<?xml version="1.0" encoding="utf-8" standalone="no"?>
<!DOCTYPE svg PUBLIC "-//W3C//DTD SVG 1.1//EN"
  "http://www.w3.org/Graphics/SVG/1.1/DTD/svg11.dtd">
<!-- Created with matplotlib (https://matplotlib.org/) -->
<svg height="325.986375pt" version="1.1" viewBox="0 0 404.923125 325.986375" width="404.923125pt" xmlns="http://www.w3.org/2000/svg" xmlns:xlink="http://www.w3.org/1999/xlink">
 <defs>
  <style type="text/css">
*{stroke-linecap:butt;stroke-linejoin:round;}
  </style>
 </defs>
 <g id="figure_1">
  <g id="patch_1">
   <path d="M 0 325.986375 
L 404.923125 325.986375 
L 404.923125 0 
L 0 0 
z
" style="fill:#ffffff;"/>
  </g>
  <g id="axes_1">
   <g id="patch_2">
    <path d="M 40.603125 288.430125 
L 397.723125 288.430125 
L 397.723125 22.318125 
L 40.603125 22.318125 
z
" style="fill:#ffffff;"/>
   </g>
   <g id="matplotlib.axis_1">
    <g id="xtick_1">
     <g id="line2d_1">
      <path clip-path="url(#p1f39dbba17)" d="M 56.835852 288.430125 
L 56.835852 22.318125 
" style="fill:none;stroke:#b0b0b0;stroke-dasharray:2.96,1.28;stroke-dashoffset:0;stroke-width:0.8;"/>
     </g>
     <g id="line2d_2">
      <defs>
       <path d="M 0 0 
L 0 3.5 
" id="m9f90157c0e" style="stroke:#000000;stroke-width:0.8;"/>
      </defs>
      <g>
       <use style="stroke:#000000;stroke-width:0.8;" x="56.835852" xlink:href="#m9f90157c0e" y="288.430125"/>
      </g>
     </g>
     <g id="text_1">
      <!-- 0 -->
      <defs>
       <path d="M 31.78125 66.40625 
Q 24.171875 66.40625 20.328125 58.90625 
Q 16.5 51.421875 16.5 36.375 
Q 16.5 21.390625 20.328125 13.890625 
Q 24.171875 6.390625 31.78125 6.390625 
Q 39.453125 6.390625 43.28125 13.890625 
Q 47.125 21.390625 47.125 36.375 
Q 47.125 51.421875 43.28125 58.90625 
Q 39.453125 66.40625 31.78125 66.40625 
z
M 31.78125 74.21875 
Q 44.046875 74.21875 50.515625 64.515625 
Q 56.984375 54.828125 56.984375 36.375 
Q 56.984375 17.96875 50.515625 8.265625 
Q 44.046875 -1.421875 31.78125 -1.421875 
Q 19.53125 -1.421875 13.0625 8.265625 
Q 6.59375 17.96875 6.59375 36.375 
Q 6.59375 54.828125 13.0625 64.515625 
Q 19.53125 74.21875 31.78125 74.21875 
z
" id="DejaVuSans-48"/>
      </defs>
      <g transform="translate(53.654602 303.028562)scale(0.1 -0.1)">
       <use xlink:href="#DejaVuSans-48"/>
      </g>
     </g>
    </g>
    <g id="xtick_2">
     <g id="line2d_3">
      <path clip-path="url(#p1f39dbba17)" d="M 105.766454 288.430125 
L 105.766454 22.318125 
" style="fill:none;stroke:#b0b0b0;stroke-dasharray:2.96,1.28;stroke-dashoffset:0;stroke-width:0.8;"/>
     </g>
     <g id="line2d_4">
      <g>
       <use style="stroke:#000000;stroke-width:0.8;" x="105.766454" xlink:href="#m9f90157c0e" y="288.430125"/>
      </g>
     </g>
     <g id="text_2">
      <!-- 200 -->
      <defs>
       <path d="M 19.1875 8.296875 
L 53.609375 8.296875 
L 53.609375 0 
L 7.328125 0 
L 7.328125 8.296875 
Q 12.9375 14.109375 22.625 23.890625 
Q 32.328125 33.6875 34.8125 36.53125 
Q 39.546875 41.84375 41.421875 45.53125 
Q 43.3125 49.21875 43.3125 52.78125 
Q 43.3125 58.59375 39.234375 62.25 
Q 35.15625 65.921875 28.609375 65.921875 
Q 23.96875 65.921875 18.8125 64.3125 
Q 13.671875 62.703125 7.8125 59.421875 
L 7.8125 69.390625 
Q 13.765625 71.78125 18.9375 73 
Q 24.125 74.21875 28.421875 74.21875 
Q 39.75 74.21875 46.484375 68.546875 
Q 53.21875 62.890625 53.21875 53.421875 
Q 53.21875 48.921875 51.53125 44.890625 
Q 49.859375 40.875 45.40625 35.40625 
Q 44.1875 33.984375 37.640625 27.21875 
Q 31.109375 20.453125 19.1875 8.296875 
z
" id="DejaVuSans-50"/>
      </defs>
      <g transform="translate(96.222704 303.028562)scale(0.1 -0.1)">
       <use xlink:href="#DejaVuSans-50"/>
       <use x="63.623047" xlink:href="#DejaVuSans-48"/>
       <use x="127.246094" xlink:href="#DejaVuSans-48"/>
      </g>
     </g>
    </g>
    <g id="xtick_3">
     <g id="line2d_5">
      <path clip-path="url(#p1f39dbba17)" d="M 154.697057 288.430125 
L 154.697057 22.318125 
" style="fill:none;stroke:#b0b0b0;stroke-dasharray:2.96,1.28;stroke-dashoffset:0;stroke-width:0.8;"/>
     </g>
     <g id="line2d_6">
      <g>
       <use style="stroke:#000000;stroke-width:0.8;" x="154.697057" xlink:href="#m9f90157c0e" y="288.430125"/>
      </g>
     </g>
     <g id="text_3">
      <!-- 400 -->
      <defs>
       <path d="M 37.796875 64.3125 
L 12.890625 25.390625 
L 37.796875 25.390625 
z
M 35.203125 72.90625 
L 47.609375 72.90625 
L 47.609375 25.390625 
L 58.015625 25.390625 
L 58.015625 17.1875 
L 47.609375 17.1875 
L 47.609375 0 
L 37.796875 0 
L 37.796875 17.1875 
L 4.890625 17.1875 
L 4.890625 26.703125 
z
" id="DejaVuSans-52"/>
      </defs>
      <g transform="translate(145.153307 303.028562)scale(0.1 -0.1)">
       <use xlink:href="#DejaVuSans-52"/>
       <use x="63.623047" xlink:href="#DejaVuSans-48"/>
       <use x="127.246094" xlink:href="#DejaVuSans-48"/>
      </g>
     </g>
    </g>
    <g id="xtick_4">
     <g id="line2d_7">
      <path clip-path="url(#p1f39dbba17)" d="M 203.627659 288.430125 
L 203.627659 22.318125 
" style="fill:none;stroke:#b0b0b0;stroke-dasharray:2.96,1.28;stroke-dashoffset:0;stroke-width:0.8;"/>
     </g>
     <g id="line2d_8">
      <g>
       <use style="stroke:#000000;stroke-width:0.8;" x="203.627659" xlink:href="#m9f90157c0e" y="288.430125"/>
      </g>
     </g>
     <g id="text_4">
      <!-- 600 -->
      <defs>
       <path d="M 33.015625 40.375 
Q 26.375 40.375 22.484375 35.828125 
Q 18.609375 31.296875 18.609375 23.390625 
Q 18.609375 15.53125 22.484375 10.953125 
Q 26.375 6.390625 33.015625 6.390625 
Q 39.65625 6.390625 43.53125 10.953125 
Q 47.40625 15.53125 47.40625 23.390625 
Q 47.40625 31.296875 43.53125 35.828125 
Q 39.65625 40.375 33.015625 40.375 
z
M 52.59375 71.296875 
L 52.59375 62.3125 
Q 48.875 64.0625 45.09375 64.984375 
Q 41.3125 65.921875 37.59375 65.921875 
Q 27.828125 65.921875 22.671875 59.328125 
Q 17.53125 52.734375 16.796875 39.40625 
Q 19.671875 43.65625 24.015625 45.921875 
Q 28.375 48.1875 33.59375 48.1875 
Q 44.578125 48.1875 50.953125 41.515625 
Q 57.328125 34.859375 57.328125 23.390625 
Q 57.328125 12.15625 50.6875 5.359375 
Q 44.046875 -1.421875 33.015625 -1.421875 
Q 20.359375 -1.421875 13.671875 8.265625 
Q 6.984375 17.96875 6.984375 36.375 
Q 6.984375 53.65625 15.1875 63.9375 
Q 23.390625 74.21875 37.203125 74.21875 
Q 40.921875 74.21875 44.703125 73.484375 
Q 48.484375 72.75 52.59375 71.296875 
z
" id="DejaVuSans-54"/>
      </defs>
      <g transform="translate(194.083909 303.028562)scale(0.1 -0.1)">
       <use xlink:href="#DejaVuSans-54"/>
       <use x="63.623047" xlink:href="#DejaVuSans-48"/>
       <use x="127.246094" xlink:href="#DejaVuSans-48"/>
      </g>
     </g>
    </g>
    <g id="xtick_5">
     <g id="line2d_9">
      <path clip-path="url(#p1f39dbba17)" d="M 252.558261 288.430125 
L 252.558261 22.318125 
" style="fill:none;stroke:#b0b0b0;stroke-dasharray:2.96,1.28;stroke-dashoffset:0;stroke-width:0.8;"/>
     </g>
     <g id="line2d_10">
      <g>
       <use style="stroke:#000000;stroke-width:0.8;" x="252.558261" xlink:href="#m9f90157c0e" y="288.430125"/>
      </g>
     </g>
     <g id="text_5">
      <!-- 800 -->
      <defs>
       <path d="M 31.78125 34.625 
Q 24.75 34.625 20.71875 30.859375 
Q 16.703125 27.09375 16.703125 20.515625 
Q 16.703125 13.921875 20.71875 10.15625 
Q 24.75 6.390625 31.78125 6.390625 
Q 38.8125 6.390625 42.859375 10.171875 
Q 46.921875 13.96875 46.921875 20.515625 
Q 46.921875 27.09375 42.890625 30.859375 
Q 38.875 34.625 31.78125 34.625 
z
M 21.921875 38.8125 
Q 15.578125 40.375 12.03125 44.71875 
Q 8.5 49.078125 8.5 55.328125 
Q 8.5 64.0625 14.71875 69.140625 
Q 20.953125 74.21875 31.78125 74.21875 
Q 42.671875 74.21875 48.875 69.140625 
Q 55.078125 64.0625 55.078125 55.328125 
Q 55.078125 49.078125 51.53125 44.71875 
Q 48 40.375 41.703125 38.8125 
Q 48.828125 37.15625 52.796875 32.3125 
Q 56.78125 27.484375 56.78125 20.515625 
Q 56.78125 9.90625 50.3125 4.234375 
Q 43.84375 -1.421875 31.78125 -1.421875 
Q 19.734375 -1.421875 13.25 4.234375 
Q 6.78125 9.90625 6.78125 20.515625 
Q 6.78125 27.484375 10.78125 32.3125 
Q 14.796875 37.15625 21.921875 38.8125 
z
M 18.3125 54.390625 
Q 18.3125 48.734375 21.84375 45.5625 
Q 25.390625 42.390625 31.78125 42.390625 
Q 38.140625 42.390625 41.71875 45.5625 
Q 45.3125 48.734375 45.3125 54.390625 
Q 45.3125 60.0625 41.71875 63.234375 
Q 38.140625 66.40625 31.78125 66.40625 
Q 25.390625 66.40625 21.84375 63.234375 
Q 18.3125 60.0625 18.3125 54.390625 
z
" id="DejaVuSans-56"/>
      </defs>
      <g transform="translate(243.014511 303.028562)scale(0.1 -0.1)">
       <use xlink:href="#DejaVuSans-56"/>
       <use x="63.623047" xlink:href="#DejaVuSans-48"/>
       <use x="127.246094" xlink:href="#DejaVuSans-48"/>
      </g>
     </g>
    </g>
    <g id="xtick_6">
     <g id="line2d_11">
      <path clip-path="url(#p1f39dbba17)" d="M 301.488863 288.430125 
L 301.488863 22.318125 
" style="fill:none;stroke:#b0b0b0;stroke-dasharray:2.96,1.28;stroke-dashoffset:0;stroke-width:0.8;"/>
     </g>
     <g id="line2d_12">
      <g>
       <use style="stroke:#000000;stroke-width:0.8;" x="301.488863" xlink:href="#m9f90157c0e" y="288.430125"/>
      </g>
     </g>
     <g id="text_6">
      <!-- 1000 -->
      <defs>
       <path d="M 12.40625 8.296875 
L 28.515625 8.296875 
L 28.515625 63.921875 
L 10.984375 60.40625 
L 10.984375 69.390625 
L 28.421875 72.90625 
L 38.28125 72.90625 
L 38.28125 8.296875 
L 54.390625 8.296875 
L 54.390625 0 
L 12.40625 0 
z
" id="DejaVuSans-49"/>
      </defs>
      <g transform="translate(288.763863 303.028562)scale(0.1 -0.1)">
       <use xlink:href="#DejaVuSans-49"/>
       <use x="63.623047" xlink:href="#DejaVuSans-48"/>
       <use x="127.246094" xlink:href="#DejaVuSans-48"/>
       <use x="190.869141" xlink:href="#DejaVuSans-48"/>
      </g>
     </g>
    </g>
    <g id="xtick_7">
     <g id="line2d_13">
      <path clip-path="url(#p1f39dbba17)" d="M 350.419465 288.430125 
L 350.419465 22.318125 
" style="fill:none;stroke:#b0b0b0;stroke-dasharray:2.96,1.28;stroke-dashoffset:0;stroke-width:0.8;"/>
     </g>
     <g id="line2d_14">
      <g>
       <use style="stroke:#000000;stroke-width:0.8;" x="350.419465" xlink:href="#m9f90157c0e" y="288.430125"/>
      </g>
     </g>
     <g id="text_7">
      <!-- 1200 -->
      <g transform="translate(337.694465 303.028562)scale(0.1 -0.1)">
       <use xlink:href="#DejaVuSans-49"/>
       <use x="63.623047" xlink:href="#DejaVuSans-50"/>
       <use x="127.246094" xlink:href="#DejaVuSans-48"/>
       <use x="190.869141" xlink:href="#DejaVuSans-48"/>
      </g>
     </g>
    </g>
    <g id="text_8">
     <!-- Day -->
     <defs>
      <path d="M 19.671875 64.796875 
L 19.671875 8.109375 
L 31.59375 8.109375 
Q 46.6875 8.109375 53.6875 14.9375 
Q 60.6875 21.78125 60.6875 36.53125 
Q 60.6875 51.171875 53.6875 57.984375 
Q 46.6875 64.796875 31.59375 64.796875 
z
M 9.8125 72.90625 
L 30.078125 72.90625 
Q 51.265625 72.90625 61.171875 64.09375 
Q 71.09375 55.28125 71.09375 36.53125 
Q 71.09375 17.671875 61.125 8.828125 
Q 51.171875 0 30.078125 0 
L 9.8125 0 
z
" id="DejaVuSans-68"/>
      <path d="M 34.28125 27.484375 
Q 23.390625 27.484375 19.1875 25 
Q 14.984375 22.515625 14.984375 16.5 
Q 14.984375 11.71875 18.140625 8.90625 
Q 21.296875 6.109375 26.703125 6.109375 
Q 34.1875 6.109375 38.703125 11.40625 
Q 43.21875 16.703125 43.21875 25.484375 
L 43.21875 27.484375 
z
M 52.203125 31.203125 
L 52.203125 0 
L 43.21875 0 
L 43.21875 8.296875 
Q 40.140625 3.328125 35.546875 0.953125 
Q 30.953125 -1.421875 24.3125 -1.421875 
Q 15.921875 -1.421875 10.953125 3.296875 
Q 6 8.015625 6 15.921875 
Q 6 25.140625 12.171875 29.828125 
Q 18.359375 34.515625 30.609375 34.515625 
L 43.21875 34.515625 
L 43.21875 35.40625 
Q 43.21875 41.609375 39.140625 45 
Q 35.0625 48.390625 27.6875 48.390625 
Q 23 48.390625 18.546875 47.265625 
Q 14.109375 46.140625 10.015625 43.890625 
L 10.015625 52.203125 
Q 14.9375 54.109375 19.578125 55.046875 
Q 24.21875 56 28.609375 56 
Q 40.484375 56 46.34375 49.84375 
Q 52.203125 43.703125 52.203125 31.203125 
z
" id="DejaVuSans-97"/>
      <path d="M 32.171875 -5.078125 
Q 28.375 -14.84375 24.75 -17.8125 
Q 21.140625 -20.796875 15.09375 -20.796875 
L 7.90625 -20.796875 
L 7.90625 -13.28125 
L 13.1875 -13.28125 
Q 16.890625 -13.28125 18.9375 -11.515625 
Q 21 -9.765625 23.484375 -3.21875 
L 25.09375 0.875 
L 2.984375 54.6875 
L 12.5 54.6875 
L 29.59375 11.921875 
L 46.6875 54.6875 
L 56.203125 54.6875 
z
" id="DejaVuSans-121"/>
     </defs>
     <g transform="translate(209.289688 316.706687)scale(0.1 -0.1)">
      <use xlink:href="#DejaVuSans-68"/>
      <use x="77.001953" xlink:href="#DejaVuSans-97"/>
      <use x="138.28125" xlink:href="#DejaVuSans-121"/>
     </g>
    </g>
   </g>
   <g id="matplotlib.axis_2">
    <g id="ytick_1">
     <g id="line2d_15">
      <path clip-path="url(#p1f39dbba17)" d="M 40.603125 262.645956 
L 397.723125 262.645956 
" style="fill:none;stroke:#b0b0b0;stroke-dasharray:2.96,1.28;stroke-dashoffset:0;stroke-width:0.8;"/>
     </g>
     <g id="line2d_16">
      <defs>
       <path d="M 0 0 
L -3.5 0 
" id="m1ad5481735" style="stroke:#000000;stroke-width:0.8;"/>
      </defs>
      <g>
       <use style="stroke:#000000;stroke-width:0.8;" x="40.603125" xlink:href="#m1ad5481735" y="262.645956"/>
      </g>
     </g>
     <g id="text_9">
      <!-- 15 -->
      <defs>
       <path d="M 10.796875 72.90625 
L 49.515625 72.90625 
L 49.515625 64.59375 
L 19.828125 64.59375 
L 19.828125 46.734375 
Q 21.96875 47.46875 24.109375 47.828125 
Q 26.265625 48.1875 28.421875 48.1875 
Q 40.625 48.1875 47.75 41.5 
Q 54.890625 34.8125 54.890625 23.390625 
Q 54.890625 11.625 47.5625 5.09375 
Q 40.234375 -1.421875 26.90625 -1.421875 
Q 22.3125 -1.421875 17.546875 -0.640625 
Q 12.796875 0.140625 7.71875 1.703125 
L 7.71875 11.625 
Q 12.109375 9.234375 16.796875 8.0625 
Q 21.484375 6.890625 26.703125 6.890625 
Q 35.15625 6.890625 40.078125 11.328125 
Q 45.015625 15.765625 45.015625 23.390625 
Q 45.015625 31 40.078125 35.4375 
Q 35.15625 39.890625 26.703125 39.890625 
Q 22.75 39.890625 18.8125 39.015625 
Q 14.890625 38.140625 10.796875 36.28125 
z
" id="DejaVuSans-53"/>
      </defs>
      <g transform="translate(20.878125 266.445175)scale(0.1 -0.1)">
       <use xlink:href="#DejaVuSans-49"/>
       <use x="63.623047" xlink:href="#DejaVuSans-53"/>
      </g>
     </g>
    </g>
    <g id="ytick_2">
     <g id="line2d_17">
      <path clip-path="url(#p1f39dbba17)" d="M 40.603125 227.910066 
L 397.723125 227.910066 
" style="fill:none;stroke:#b0b0b0;stroke-dasharray:2.96,1.28;stroke-dashoffset:0;stroke-width:0.8;"/>
     </g>
     <g id="line2d_18">
      <g>
       <use style="stroke:#000000;stroke-width:0.8;" x="40.603125" xlink:href="#m1ad5481735" y="227.910066"/>
      </g>
     </g>
     <g id="text_10">
      <!-- 20 -->
      <g transform="translate(20.878125 231.709284)scale(0.1 -0.1)">
       <use xlink:href="#DejaVuSans-50"/>
       <use x="63.623047" xlink:href="#DejaVuSans-48"/>
      </g>
     </g>
    </g>
    <g id="ytick_3">
     <g id="line2d_19">
      <path clip-path="url(#p1f39dbba17)" d="M 40.603125 193.174175 
L 397.723125 193.174175 
" style="fill:none;stroke:#b0b0b0;stroke-dasharray:2.96,1.28;stroke-dashoffset:0;stroke-width:0.8;"/>
     </g>
     <g id="line2d_20">
      <g>
       <use style="stroke:#000000;stroke-width:0.8;" x="40.603125" xlink:href="#m1ad5481735" y="193.174175"/>
      </g>
     </g>
     <g id="text_11">
      <!-- 25 -->
      <g transform="translate(20.878125 196.973394)scale(0.1 -0.1)">
       <use xlink:href="#DejaVuSans-50"/>
       <use x="63.623047" xlink:href="#DejaVuSans-53"/>
      </g>
     </g>
    </g>
    <g id="ytick_4">
     <g id="line2d_21">
      <path clip-path="url(#p1f39dbba17)" d="M 40.603125 158.438284 
L 397.723125 158.438284 
" style="fill:none;stroke:#b0b0b0;stroke-dasharray:2.96,1.28;stroke-dashoffset:0;stroke-width:0.8;"/>
     </g>
     <g id="line2d_22">
      <g>
       <use style="stroke:#000000;stroke-width:0.8;" x="40.603125" xlink:href="#m1ad5481735" y="158.438284"/>
      </g>
     </g>
     <g id="text_12">
      <!-- 30 -->
      <defs>
       <path d="M 40.578125 39.3125 
Q 47.65625 37.796875 51.625 33 
Q 55.609375 28.21875 55.609375 21.1875 
Q 55.609375 10.40625 48.1875 4.484375 
Q 40.765625 -1.421875 27.09375 -1.421875 
Q 22.515625 -1.421875 17.65625 -0.515625 
Q 12.796875 0.390625 7.625 2.203125 
L 7.625 11.71875 
Q 11.71875 9.328125 16.59375 8.109375 
Q 21.484375 6.890625 26.8125 6.890625 
Q 36.078125 6.890625 40.9375 10.546875 
Q 45.796875 14.203125 45.796875 21.1875 
Q 45.796875 27.640625 41.28125 31.265625 
Q 36.765625 34.90625 28.71875 34.90625 
L 20.21875 34.90625 
L 20.21875 43.015625 
L 29.109375 43.015625 
Q 36.375 43.015625 40.234375 45.921875 
Q 44.09375 48.828125 44.09375 54.296875 
Q 44.09375 59.90625 40.109375 62.90625 
Q 36.140625 65.921875 28.71875 65.921875 
Q 24.65625 65.921875 20.015625 65.03125 
Q 15.375 64.15625 9.8125 62.3125 
L 9.8125 71.09375 
Q 15.4375 72.65625 20.34375 73.4375 
Q 25.25 74.21875 29.59375 74.21875 
Q 40.828125 74.21875 47.359375 69.109375 
Q 53.90625 64.015625 53.90625 55.328125 
Q 53.90625 49.265625 50.4375 45.09375 
Q 46.96875 40.921875 40.578125 39.3125 
z
" id="DejaVuSans-51"/>
      </defs>
      <g transform="translate(20.878125 162.237503)scale(0.1 -0.1)">
       <use xlink:href="#DejaVuSans-51"/>
       <use x="63.623047" xlink:href="#DejaVuSans-48"/>
      </g>
     </g>
    </g>
    <g id="ytick_5">
     <g id="line2d_23">
      <path clip-path="url(#p1f39dbba17)" d="M 40.603125 123.702394 
L 397.723125 123.702394 
" style="fill:none;stroke:#b0b0b0;stroke-dasharray:2.96,1.28;stroke-dashoffset:0;stroke-width:0.8;"/>
     </g>
     <g id="line2d_24">
      <g>
       <use style="stroke:#000000;stroke-width:0.8;" x="40.603125" xlink:href="#m1ad5481735" y="123.702394"/>
      </g>
     </g>
     <g id="text_13">
      <!-- 35 -->
      <g transform="translate(20.878125 127.501612)scale(0.1 -0.1)">
       <use xlink:href="#DejaVuSans-51"/>
       <use x="63.623047" xlink:href="#DejaVuSans-53"/>
      </g>
     </g>
    </g>
    <g id="ytick_6">
     <g id="line2d_25">
      <path clip-path="url(#p1f39dbba17)" d="M 40.603125 88.966503 
L 397.723125 88.966503 
" style="fill:none;stroke:#b0b0b0;stroke-dasharray:2.96,1.28;stroke-dashoffset:0;stroke-width:0.8;"/>
     </g>
     <g id="line2d_26">
      <g>
       <use style="stroke:#000000;stroke-width:0.8;" x="40.603125" xlink:href="#m1ad5481735" y="88.966503"/>
      </g>
     </g>
     <g id="text_14">
      <!-- 40 -->
      <g transform="translate(20.878125 92.765722)scale(0.1 -0.1)">
       <use xlink:href="#DejaVuSans-52"/>
       <use x="63.623047" xlink:href="#DejaVuSans-48"/>
      </g>
     </g>
    </g>
    <g id="ytick_7">
     <g id="line2d_27">
      <path clip-path="url(#p1f39dbba17)" d="M 40.603125 54.230612 
L 397.723125 54.230612 
" style="fill:none;stroke:#b0b0b0;stroke-dasharray:2.96,1.28;stroke-dashoffset:0;stroke-width:0.8;"/>
     </g>
     <g id="line2d_28">
      <g>
       <use style="stroke:#000000;stroke-width:0.8;" x="40.603125" xlink:href="#m1ad5481735" y="54.230612"/>
      </g>
     </g>
     <g id="text_15">
      <!-- 45 -->
      <g transform="translate(20.878125 58.029831)scale(0.1 -0.1)">
       <use xlink:href="#DejaVuSans-52"/>
       <use x="63.623047" xlink:href="#DejaVuSans-53"/>
      </g>
     </g>
    </g>
    <g id="text_16">
     <!-- Price $ -->
     <defs>
      <path d="M 19.671875 64.796875 
L 19.671875 37.40625 
L 32.078125 37.40625 
Q 38.96875 37.40625 42.71875 40.96875 
Q 46.484375 44.53125 46.484375 51.125 
Q 46.484375 57.671875 42.71875 61.234375 
Q 38.96875 64.796875 32.078125 64.796875 
z
M 9.8125 72.90625 
L 32.078125 72.90625 
Q 44.34375 72.90625 50.609375 67.359375 
Q 56.890625 61.8125 56.890625 51.125 
Q 56.890625 40.328125 50.609375 34.8125 
Q 44.34375 29.296875 32.078125 29.296875 
L 19.671875 29.296875 
L 19.671875 0 
L 9.8125 0 
z
" id="DejaVuSans-80"/>
      <path d="M 41.109375 46.296875 
Q 39.59375 47.171875 37.8125 47.578125 
Q 36.03125 48 33.890625 48 
Q 26.265625 48 22.1875 43.046875 
Q 18.109375 38.09375 18.109375 28.8125 
L 18.109375 0 
L 9.078125 0 
L 9.078125 54.6875 
L 18.109375 54.6875 
L 18.109375 46.1875 
Q 20.953125 51.171875 25.484375 53.578125 
Q 30.03125 56 36.53125 56 
Q 37.453125 56 38.578125 55.875 
Q 39.703125 55.765625 41.0625 55.515625 
z
" id="DejaVuSans-114"/>
      <path d="M 9.421875 54.6875 
L 18.40625 54.6875 
L 18.40625 0 
L 9.421875 0 
z
M 9.421875 75.984375 
L 18.40625 75.984375 
L 18.40625 64.59375 
L 9.421875 64.59375 
z
" id="DejaVuSans-105"/>
      <path d="M 48.78125 52.59375 
L 48.78125 44.1875 
Q 44.96875 46.296875 41.140625 47.34375 
Q 37.3125 48.390625 33.40625 48.390625 
Q 24.65625 48.390625 19.8125 42.84375 
Q 14.984375 37.3125 14.984375 27.296875 
Q 14.984375 17.28125 19.8125 11.734375 
Q 24.65625 6.203125 33.40625 6.203125 
Q 37.3125 6.203125 41.140625 7.25 
Q 44.96875 8.296875 48.78125 10.40625 
L 48.78125 2.09375 
Q 45.015625 0.34375 40.984375 -0.53125 
Q 36.96875 -1.421875 32.421875 -1.421875 
Q 20.0625 -1.421875 12.78125 6.34375 
Q 5.515625 14.109375 5.515625 27.296875 
Q 5.515625 40.671875 12.859375 48.328125 
Q 20.21875 56 33.015625 56 
Q 37.15625 56 41.109375 55.140625 
Q 45.0625 54.296875 48.78125 52.59375 
z
" id="DejaVuSans-99"/>
      <path d="M 56.203125 29.59375 
L 56.203125 25.203125 
L 14.890625 25.203125 
Q 15.484375 15.921875 20.484375 11.0625 
Q 25.484375 6.203125 34.421875 6.203125 
Q 39.59375 6.203125 44.453125 7.46875 
Q 49.3125 8.734375 54.109375 11.28125 
L 54.109375 2.78125 
Q 49.265625 0.734375 44.1875 -0.34375 
Q 39.109375 -1.421875 33.890625 -1.421875 
Q 20.796875 -1.421875 13.15625 6.1875 
Q 5.515625 13.8125 5.515625 26.8125 
Q 5.515625 40.234375 12.765625 48.109375 
Q 20.015625 56 32.328125 56 
Q 43.359375 56 49.78125 48.890625 
Q 56.203125 41.796875 56.203125 29.59375 
z
M 47.21875 32.234375 
Q 47.125 39.59375 43.09375 43.984375 
Q 39.0625 48.390625 32.421875 48.390625 
Q 24.90625 48.390625 20.390625 44.140625 
Q 15.875 39.890625 15.1875 32.171875 
z
" id="DejaVuSans-101"/>
      <path id="DejaVuSans-32"/>
      <path d="M 33.796875 -14.703125 
L 28.90625 -14.703125 
L 28.859375 0 
Q 23.734375 0.09375 18.609375 1.1875 
Q 13.484375 2.296875 8.296875 4.5 
L 8.296875 13.28125 
Q 13.28125 10.15625 18.375 8.5625 
Q 23.484375 6.984375 28.90625 6.9375 
L 28.90625 29.203125 
Q 18.109375 30.953125 13.203125 35.15625 
Q 8.296875 39.359375 8.296875 46.6875 
Q 8.296875 54.640625 13.625 59.21875 
Q 18.953125 63.8125 28.90625 64.5 
L 28.90625 75.984375 
L 33.796875 75.984375 
L 33.796875 64.65625 
Q 38.328125 64.453125 42.578125 63.6875 
Q 46.828125 62.9375 50.875 61.625 
L 50.875 53.078125 
Q 46.828125 55.125 42.546875 56.25 
Q 38.28125 57.375 33.796875 57.5625 
L 33.796875 36.71875 
Q 44.875 35.015625 50.09375 30.609375 
Q 55.328125 26.21875 55.328125 18.609375 
Q 55.328125 10.359375 49.78125 5.59375 
Q 44.234375 0.828125 33.796875 0.09375 
z
M 28.90625 37.59375 
L 28.90625 57.625 
Q 23.25 56.984375 20.265625 54.390625 
Q 17.28125 51.8125 17.28125 47.515625 
Q 17.28125 43.3125 20.03125 40.96875 
Q 22.796875 38.625 28.90625 37.59375 
z
M 33.796875 28.21875 
L 33.796875 7.078125 
Q 39.984375 7.90625 43.140625 10.59375 
Q 46.296875 13.28125 46.296875 17.671875 
Q 46.296875 21.96875 43.28125 24.5 
Q 40.28125 27.046875 33.796875 28.21875 
z
" id="DejaVuSans-36"/>
     </defs>
     <g transform="translate(14.798438 172.342094)rotate(-90)scale(0.1 -0.1)">
      <use xlink:href="#DejaVuSans-80"/>
      <use x="58.552734" xlink:href="#DejaVuSans-114"/>
      <use x="99.666016" xlink:href="#DejaVuSans-105"/>
      <use x="127.449219" xlink:href="#DejaVuSans-99"/>
      <use x="182.429688" xlink:href="#DejaVuSans-101"/>
      <use x="243.953125" xlink:href="#DejaVuSans-32"/>
      <use x="275.740234" xlink:href="#DejaVuSans-36"/>
     </g>
    </g>
   </g>
   <g id="line2d_29">
    <path clip-path="url(#p1f39dbba17)" d="M 56.835852 119.503541 
L 57.325158 125.357431 
L 57.814464 125.013603 
L 58.059117 121.688819 
L 58.30377 120.099001 
L 58.793076 118.394114 
L 59.037729 119.279896 
L 59.282382 118.738049 
L 59.527035 118.94415 
L 59.771688 118.33491 
L 60.016341 120.291639 
L 60.260994 118.693103 
L 60.505647 118.408292 
L 60.994953 119.811408 
L 61.239606 120.044116 
L 61.484259 121.273357 
L 61.728912 119.744147 
L 61.973566 123.097765 
L 62.218219 124.08836 
L 62.462872 121.535535 
L 62.707525 122.280144 
L 62.952178 122.523347 
L 63.196831 123.893469 
L 63.441484 124.46937 
L 63.686137 119.384232 
L 63.93079 120.435515 
L 64.175443 120.186641 
L 64.420096 120.136023 
L 64.664749 119.884207 
L 64.909402 119.137451 
L 65.154055 115.815768 
L 65.398708 115.968337 
L 65.643361 116.970115 
L 65.888014 122.181108 
L 66.132667 117.437865 
L 66.37732 118.548856 
L 66.621973 119.105411 
L 67.111279 120.990269 
L 67.355932 120.10242 
L 67.600585 120.592377 
L 67.845238 121.585092 
L 68.089891 120.802215 
L 68.334544 121.123147 
L 68.579197 118.676062 
L 68.82385 118.008174 
L 69.068503 118.065046 
L 69.313156 121.8072 
L 69.802462 122.71217 
L 70.047115 117.627668 
L 70.291768 122.256187 
L 70.536421 109.698693 
L 70.781074 108.545379 
L 71.025727 105.810781 
L 71.27038 107.453708 
L 71.759686 112.581036 
L 72.004339 111.178874 
L 72.248992 110.635172 
L 72.493645 111.810535 
L 72.738298 112.438565 
L 72.982951 108.866973 
L 73.227604 113.245161 
L 73.472257 113.149464 
L 73.71691 111.274041 
L 74.206216 118.641981 
L 74.450869 117.572121 
L 74.940175 121.574121 
L 75.184828 122.997669 
L 75.429481 122.056234 
L 75.674134 119.549442 
L 75.918787 115.788975 
L 76.16344 114.113107 
L 76.408093 114.010255 
L 76.652746 109.964926 
L 77.142052 113.111408 
L 77.386705 110.73177 
L 77.631358 109.860961 
L 77.876011 106.338768 
L 78.120664 110.944947 
L 78.60997 112.091555 
L 78.854623 109.448308 
L 79.099276 109.869282 
L 79.588582 107.976553 
L 79.833235 108.563215 
L 80.077888 111.194961 
L 80.322541 111.077003 
L 80.811847 107.239709 
L 81.301153 108.445204 
L 81.545806 111.50614 
L 81.790459 112.44095 
L 82.035112 114.85284 
L 82.524418 116.877016 
L 82.769071 111.890277 
L 83.013724 110.525642 
L 83.258377 111.79633 
L 83.50303 112.238002 
L 83.992336 117.740722 
L 84.236989 110.229648 
L 84.481643 108.647966 
L 84.726296 107.86 
L 84.970949 110.535527 
L 85.215602 109.156819 
L 85.949561 102.484407 
L 86.194214 101.422762 
L 86.438867 102.320576 
L 86.68352 102.156002 
L 86.928173 108.331884 
L 87.172826 109.774248 
L 87.417479 107.727493 
L 87.662132 108.799077 
L 88.640744 93.335229 
L 89.13005 91.323377 
L 89.374703 86.57266 
L 89.619356 86.837859 
L 90.108662 81.770954 
L 90.353315 80.940348 
L 90.597968 83.24035 
L 90.842621 80.592597 
L 91.331927 85.819835 
L 91.57658 84.820706 
L 91.821233 88.642762 
L 92.065886 87.107458 
L 92.310539 83.139591 
L 92.555192 83.184485 
L 92.799845 85.647523 
L 93.044498 84.784506 
L 93.289151 80.571687 
L 93.533804 82.038803 
L 94.267763 76.960503 
L 94.512416 77.628046 
L 95.001722 72.837709 
L 95.246375 73.710241 
L 95.491028 75.877206 
L 95.735681 75.709479 
L 96.46964 65.575138 
L 96.714293 64.825494 
L 96.958946 63.711482 
L 97.203599 65.050649 
L 97.448252 62.170691 
L 97.692905 63.350559 
L 97.937558 60.251276 
L 98.182211 67.291394 
L 98.426864 65.196884 
L 98.671517 70.012026 
L 99.160823 65.343278 
L 99.405476 60.148106 
L 99.650129 59.354549 
L 99.894782 60.368332 
L 100.139435 67.354097 
L 100.384088 67.076839 
L 100.628741 62.110136 
L 100.873394 60.395894 
L 101.118047 60.836903 
L 101.607353 59.44566 
L 101.852006 59.145797 
L 102.096659 54.958234 
L 102.341312 56.462797 
L 102.585965 54.945355 
L 102.830618 49.519038 
L 103.075271 54.069034 
L 103.319924 55.136218 
L 103.564577 51.309312 
L 103.80923 50.126131 
L 104.298536 45.208456 
L 104.787842 46.937088 
L 105.032495 45.343189 
L 105.277148 42.83698 
L 105.521801 42.523256 
L 105.766454 44.686272 
L 106.011107 41.479526 
L 106.25576 44.809371 
L 106.500413 41.779071 
L 106.98972 50.735319 
L 107.479026 48.262422 
L 107.723679 54.407933 
L 107.968332 53.514148 
L 108.212985 54.929613 
L 108.457638 55.024859 
L 108.702291 56.49073 
L 108.946944 59.433523 
L 109.191597 57.677091 
L 109.43625 52.852885 
L 109.925556 55.432477 
L 110.170209 60.531316 
L 110.414862 54.377616 
L 110.904168 57.623187 
L 111.148821 53.622326 
L 111.393474 52.457962 
L 111.638127 60.717541 
L 111.88278 59.79577 
L 112.127433 60.970762 
L 112.372086 57.704201 
L 112.616739 57.301274 
L 112.861392 53.541683 
L 113.106045 51.79821 
L 113.350698 48.890717 
L 113.595351 53.353258 
L 113.840004 53.734321 
L 114.084657 48.089368 
L 114.32931 46.64968 
L 114.573963 44.127385 
L 115.063269 41.594065 
L 115.307922 39.243684 
L 115.552575 42.424804 
L 115.797228 43.85299 
L 116.041881 66.199855 
L 116.286534 62.353074 
L 116.531187 71.134651 
L 116.77584 73.378841 
L 117.020493 71.101498 
L 117.265146 73.405475 
L 117.754452 69.078435 
L 118.488411 73.814179 
L 118.733064 69.452661 
L 118.977717 68.773537 
L 119.22237 68.553231 
L 119.467023 69.915508 
L 119.711676 71.925267 
L 119.956329 67.571328 
L 120.200982 68.339259 
L 120.445635 71.872662 
L 120.690288 70.5689 
L 120.934941 70.051434 
L 121.179594 74.507853 
L 121.6689 77.465619 
L 121.913553 73.637786 
L 122.158206 76.825611 
L 122.402859 76.07048 
L 122.647512 76.081425 
L 122.892165 78.600991 
L 123.136818 84.477805 
L 123.381471 83.204122 
L 123.626124 85.618266 
L 123.870777 85.118688 
L 124.360083 80.772037 
L 124.604736 80.850031 
L 124.849389 79.942783 
L 125.094042 75.444067 
L 125.338695 74.096604 
L 125.583348 75.166439 
L 125.828001 77.609283 
L 126.072654 74.007745 
L 126.317307 75.384121 
L 126.56196 73.860901 
L 127.051266 64.987073 
L 127.540572 69.945349 
L 127.785225 69.284775 
L 128.029878 73.84084 
L 128.274531 73.306068 
L 128.519184 73.944593 
L 128.763837 75.713851 
L 129.00849 72.269043 
L 129.253143 71.763131 
L 129.497797 73.161079 
L 129.74245 71.06368 
L 130.231756 85.347925 
L 130.721062 80.040599 
L 130.965715 76.399203 
L 131.210368 75.080866 
L 131.455021 77.924755 
L 132.18898 69.505823 
L 132.433633 69.491751 
L 132.922939 66.069045 
L 133.167592 61.290448 
L 133.412245 59.986739 
L 133.656898 59.750956 
L 133.901551 54.089228 
L 134.390857 57.705235 
L 134.63551 55.086422 
L 134.880163 50.420005 
L 135.124816 53.557159 
L 135.369469 54.786558 
L 135.614122 59.173809 
L 135.858775 59.544139 
L 136.103428 58.91391 
L 136.348081 57.471678 
L 136.592734 49.873176 
L 136.837387 48.249516 
L 137.08204 45.846397 
L 137.571346 47.6213 
L 137.815999 49.073576 
L 138.060652 47.819266 
L 138.305305 48.140754 
L 138.549958 49.712604 
L 139.039264 44.727111 
L 139.283917 44.977735 
L 139.52857 47.929458 
L 139.773223 48.029475 
L 140.017876 49.711279 
L 140.262529 48.135056 
L 140.507182 45.254807 
L 140.751835 45.703713 
L 140.996488 44.91755 
L 141.241141 50.366738 
L 141.485794 50.988566 
L 141.730447 50.767968 
L 141.9751 52.506936 
L 142.219753 55.961577 
L 142.464406 52.532059 
L 142.709059 53.034261 
L 142.953712 50.520631 
L 143.198365 46.567977 
L 143.443018 48.243924 
L 143.932324 40.149925 
L 144.176977 34.414125 
L 144.666283 37.412014 
L 145.644895 48.426651 
L 146.134201 51.793042 
L 146.378854 56.09252 
L 146.86816 58.69901 
L 147.112813 57.895674 
L 147.602119 64.396595 
L 147.846772 62.176045 
L 148.091425 67.022591 
L 148.336078 67.296297 
L 148.580731 66.812143 
L 148.825384 67.422576 
L 149.070037 71.416997 
L 149.31469 67.392815 
L 149.559343 102.526518 
L 149.803996 114.193778 
L 150.048649 109.900607 
L 150.293302 112.08819 
L 150.537955 110.752812 
L 150.782608 110.074191 
L 151.027261 110.671002 
L 151.271914 108.447563 
L 151.516567 110.571966 
L 151.76122 108.951195 
L 152.005874 111.261744 
L 152.250527 119.498877 
L 152.49518 121.381588 
L 152.739833 119.608593 
L 152.984486 119.126506 
L 153.473792 113.803227 
L 153.718445 110.186053 
L 154.207751 107.645684 
L 154.452404 110.188889 
L 154.697057 105.918615 
L 154.94171 106.292682 
L 155.186363 102.686613 
L 155.431016 103.963688 
L 155.675669 104.302693 
L 155.920322 106.680874 
L 156.164975 107.415413 
L 156.409628 108.916796 
L 156.654281 107.451005 
L 157.143587 101.912958 
L 157.38824 101.587335 
L 157.632893 98.643482 
L 158.122199 96.883923 
L 158.366852 97.342079 
L 159.345464 87.971615 
L 159.83477 86.732437 
L 160.324076 92.737994 
L 160.568729 100.470753 
L 160.813382 98.729638 
L 161.058035 99.27835 
L 161.302688 102.402067 
L 161.547341 103.438457 
L 162.036647 99.061197 
L 162.525953 105.473604 
L 162.770606 102.070085 
L 163.259912 105.140482 
L 163.504565 104.225389 
L 164.238524 98.047943 
L 164.483177 94.072021 
L 164.972483 91.738309 
L 165.217136 93.61996 
L 165.461789 94.081455 
L 165.706442 92.677306 
L 165.951095 93.802873 
L 166.440401 91.351786 
L 166.685054 91.038434 
L 167.17436 97.281073 
L 167.419013 96.487065 
L 167.908319 98.8887 
L 168.152972 100.052958 
L 168.397625 98.246412 
L 168.642278 98.362753 
L 168.886931 97.397414 
L 169.131584 99.100737 
L 169.376237 96.744075 
L 169.62089 97.135474 
L 170.110196 99.098061 
L 170.599502 95.081962 
L 170.844155 97.19929 
L 171.088808 95.048411 
L 171.578114 96.961917 
L 171.822767 99.066869 
L 172.06742 99.370866 
L 172.556726 98.174063 
L 172.801379 94.57931 
L 173.046032 96.764614 
L 173.535338 93.486367 
L 174.024644 95.313027 
L 174.513951 93.858499 
L 174.758604 96.492922 
L 175.003257 92.949422 
L 175.24791 93.879223 
L 175.492563 90.475677 
L 175.981869 95.197932 
L 176.226522 92.244379 
L 176.471175 94.156984 
L 176.715828 94.928545 
L 176.960481 91.408208 
L 177.205134 96.590208 
L 177.449787 95.71455 
L 177.69444 112.73432 
L 178.673052 120.951471 
L 178.917705 120.340269 
L 179.162358 121.136795 
L 179.407011 120.691148 
L 179.651664 121.575896 
L 179.896317 118.332392 
L 180.14097 120.455921 
L 180.385623 121.415642 
L 180.630276 121.5133 
L 180.874929 121.205619 
L 181.119582 120.388846 
L 181.364235 121.922879 
L 181.608888 118.053015 
L 181.853541 118.222067 
L 182.098194 121.543538 
L 182.342847 122.328986 
L 182.5875 122.114404 
L 182.832153 122.330682 
L 183.076806 121.261908 
L 183.321459 121.686593 
L 183.566112 124.100683 
L 183.810765 121.746406 
L 184.055418 123.598005 
L 184.300071 124.516622 
L 184.544724 125.888864 
L 184.789377 124.737458 
L 185.03403 125.455169 
L 185.278683 127.144181 
L 185.523336 126.283761 
L 185.767989 126.875113 
L 186.257295 122.589866 
L 186.501948 124.750205 
L 186.746601 128.136843 
L 186.991254 127.73752 
L 187.235907 126.584631 
L 187.48056 128.215314 
L 187.725213 128.523631 
L 187.969866 130.232705 
L 188.214519 129.595108 
L 188.459172 130.378993 
L 188.703825 131.55099 
L 189.193131 143.772844 
L 190.171743 155.018427 
L 190.416396 153.825666 
L 190.661049 154.971254 
L 191.150355 146.493396 
L 191.395008 145.863432 
L 191.639661 148.480934 
L 191.884314 147.320359 
L 192.128967 154.159504 
L 192.37362 153.618584 
L 192.618273 157.220082 
L 192.862926 154.246137 
L 193.107579 154.62186 
L 193.596885 166.549178 
L 193.841538 162.033329 
L 194.086191 161.411991 
L 194.575497 156.64369 
L 194.82015 156.024896 
L 195.309456 151.741438 
L 195.554109 152.083823 
L 195.798762 152.789846 
L 196.043415 150.615487 
L 196.532721 150.168541 
L 196.777375 149.407289 
L 197.266681 146.729007 
L 197.511334 147.868765 
L 197.755987 152.904425 
L 198.00064 149.456926 
L 198.245293 150.073733 
L 198.734599 152.638165 
L 198.979252 152.375258 
L 199.223905 151.0784 
L 199.468558 148.274461 
L 199.713211 148.450245 
L 199.957864 150.090283 
L 200.202517 150.276667 
L 200.44717 152.068571 
L 200.691823 148.161393 
L 200.936476 154.136885 
L 201.181129 154.440538 
L 201.425782 156.435482 
L 201.670435 153.944286 
L 201.915088 152.688505 
L 202.159741 153.142659 
L 202.404394 153.054794 
L 202.649047 156.617255 
L 202.8937 151.075763 
L 203.383006 154.816195 
L 203.627659 154.875743 
L 204.116965 150.731577 
L 204.361618 163.173101 
L 204.606271 161.297227 
L 204.850924 156.420522 
L 205.095577 156.825039 
L 205.584883 153.511969 
L 205.829536 153.620148 
L 206.074189 152.53004 
L 206.318842 155.796401 
L 206.563495 155.724424 
L 206.808148 159.370576 
L 207.297454 159.015113 
L 207.542107 164.791778 
L 207.78676 166.461392 
L 208.276066 172.763553 
L 208.520719 176.364534 
L 208.765372 173.780265 
L 209.010025 174.364978 
L 209.499331 169.609703 
L 209.743984 171.973216 
L 209.988637 181.250461 
L 210.23329 182.401125 
L 210.477943 179.396226 
L 210.967249 180.018796 
L 211.211902 173.429917 
L 211.456555 172.250592 
L 211.701208 173.015952 
L 211.945861 172.46948 
L 212.190514 170.933527 
L 212.435167 173.113318 
L 212.924473 179.53932 
L 213.169126 176.258462 
L 213.413779 175.013573 
L 213.658432 179.381836 
L 213.903085 181.533814 
L 214.147738 187.30066 
L 214.392391 187.658986 
L 214.637044 190.427572 
L 214.881697 191.127844 
L 215.12635 187.050845 
L 216.104962 180.244151 
L 216.838921 188.786646 
L 217.083574 189.54383 
L 217.57288 195.669174 
L 217.817533 189.191494 
L 218.062186 192.633441 
L 218.306839 193.145076 
L 218.796145 200.003753 
L 219.040798 201.697788 
L 219.530105 198.917289 
L 220.019411 206.26334 
L 220.264064 208.817079 
L 220.508717 209.85698 
L 220.75337 209.659955 
L 220.998023 208.758193 
L 221.242676 207.113093 
L 221.487329 209.620097 
L 221.731982 201.44629 
L 221.976635 200.743645 
L 222.221288 201.145843 
L 222.465941 198.656887 
L 222.710594 198.915593 
L 222.955247 198.353022 
L 223.1999 196.661319 
L 223.444553 191.556597 
L 223.689206 191.96493 
L 223.933859 182.508826 
L 224.178512 178.848986 
L 224.423165 178.845594 
L 225.157124 158.356236 
L 225.401777 167.482225 
L 226.869695 175.560443 
L 227.359001 180.649967 
L 227.848307 177.219124 
L 228.337613 185.008318 
L 228.582266 181.193589 
L 228.826919 180.163997 
L 229.071572 184.736705 
L 229.560878 187.990359 
L 229.805531 185.58997 
L 230.050184 184.3463 
L 230.294837 185.950945 
L 230.53949 185.790175 
L 230.784143 187.599066 
L 231.273449 187.816232 
L 231.518102 189.572279 
L 231.762755 188.987314 
L 232.007408 190.900396 
L 232.496714 187.840361 
L 232.98602 184.102474 
L 233.230673 182.294801 
L 233.475326 185.673754 
L 233.719979 187.409714 
L 234.209285 180.014291 
L 234.453938 179.715647 
L 234.698591 182.113969 
L 234.943244 180.791272 
L 235.187897 180.719639 
L 235.43255 181.234561 
L 235.677203 182.397587 
L 235.921856 180.604676 
L 236.166509 187.14947 
L 236.411162 188.349373 
L 236.655815 184.063636 
L 237.145121 188.131028 
L 237.389774 186.538017 
L 237.634427 186.324535 
L 237.87908 188.004113 
L 238.123733 190.731211 
L 238.368386 185.814702 
L 239.102345 192.496667 
L 239.346998 197.571231 
L 239.836304 202.159508 
L 240.080957 202.094858 
L 240.570263 205.728966 
L 240.814916 206.564581 
L 241.059569 206.97514 
L 241.304222 206.374751 
L 241.548875 204.51996 
L 241.793529 205.747159 
L 242.038182 210.558074 
L 242.282835 209.872881 
L 242.527488 207.922565 
L 242.772141 209.945786 
L 243.016794 208.332064 
L 243.261447 203.698324 
L 243.5061 205.416886 
L 243.750753 205.866216 
L 243.995406 206.711968 
L 244.240059 206.74108 
L 244.484712 204.83636 
L 244.974018 210.826931 
L 245.218671 209.125356 
L 245.463324 210.407241 
L 245.707977 218.017497 
L 245.95263 218.062854 
L 246.197283 216.063259 
L 246.441936 208.728061 
L 246.931242 204.723914 
L 247.175895 210.035149 
L 247.420548 207.847963 
L 247.665201 206.989425 
L 247.909854 208.524173 
L 248.154507 207.36805 
L 248.39916 208.578487 
L 248.643813 208.994506 
L 248.888466 210.394786 
L 249.133119 209.532033 
L 249.377772 206.837346 
L 249.622425 200.403844 
L 249.867078 201.741621 
L 250.111731 207.309468 
L 250.356384 206.521066 
L 250.601037 208.239601 
L 250.84569 208.960571 
L 251.090343 210.190248 
L 251.334996 210.109247 
L 251.824302 220.968161 
L 252.068955 220.89454 
L 252.313608 228.948257 
L 252.558261 228.282397 
L 252.802914 217.744864 
L 253.29222 215.829769 
L 253.536873 211.994648 
L 253.781526 211.845233 
L 254.026179 211.154209 
L 254.270832 210.992657 
L 254.760138 210.489979 
L 255.004791 201.698039 
L 255.249444 206.608732 
L 255.494097 202.191349 
L 255.73875 201.839862 
L 255.983403 197.302123 
L 256.228056 195.489004 
L 256.472709 197.339861 
L 256.717362 201.483537 
L 256.962015 197.366018 
L 257.206668 195.849874 
L 257.451321 196.560959 
L 257.940627 191.349051 
L 258.18528 194.655311 
L 258.674586 196.222284 
L 258.919239 195.31868 
L 259.897851 205.93406 
L 260.142504 202.046493 
L 260.387157 195.778982 
L 260.63181 198.146775 
L 260.876463 197.790318 
L 261.121116 196.637786 
L 261.365769 203.332022 
L 261.855075 195.039488 
L 262.099728 196.989208 
L 262.344381 194.372713 
L 262.589034 194.946124 
L 262.833687 196.453694 
L 263.07834 197.155133 
L 263.322993 189.563918 
L 263.567646 188.608875 
L 263.812299 191.013968 
L 264.056952 191.610593 
L 264.301606 189.382397 
L 264.790912 179.498124 
L 265.035565 178.772648 
L 265.280218 176.313479 
L 265.769524 185.27671 
L 266.014177 183.944367 
L 266.503483 175.431725 
L 266.748136 174.858474 
L 266.992789 176.113102 
L 267.237442 175.073162 
L 267.726748 178.371192 
L 267.971401 176.451816 
L 268.216054 177.695102 
L 268.460707 180.352648 
L 268.70536 178.916962 
L 269.194666 181.48325 
L 269.439319 178.912324 
L 269.683972 184.326543 
L 269.928625 184.232331 
L 270.417931 194.17757 
L 270.662584 193.504369 
L 270.907237 187.615775 
L 271.641196 179.235734 
L 271.885849 179.697123 
L 272.130502 178.241693 
L 272.375155 175.498045 
L 272.619808 181.088034 
L 272.864461 156.161325 
L 273.109114 146.792398 
L 273.353767 143.291844 
L 273.59842 146.922586 
L 273.843073 145.363841 
L 274.577032 159.189771 
L 274.821685 153.349065 
L 275.066338 156.180565 
L 275.310991 145.657225 
L 275.555644 149.180411 
L 275.800297 146.514425 
L 276.04495 142.091225 
L 276.289603 145.000693 
L 276.534256 142.582826 
L 276.778909 137.058109 
L 277.023562 141.557646 
L 277.268215 141.584863 
L 277.512868 141.324063 
L 277.757521 142.852477 
L 278.246827 138.198305 
L 278.49148 143.52919 
L 278.980786 137.227904 
L 279.225439 135.832659 
L 279.470092 133.579512 
L 279.714745 137.53789 
L 279.959398 138.842103 
L 280.204051 142.814713 
L 280.448704 143.201236 
L 280.693357 138.967746 
L 280.93801 139.080191 
L 281.182663 140.454102 
L 281.427316 142.979631 
L 281.671969 141.224869 
L 281.916622 142.036606 
L 282.161275 141.696169 
L 282.405928 139.031111 
L 282.650581 133.612002 
L 282.895234 133.266424 
L 283.139887 128.734979 
L 283.38454 131.90481 
L 283.629193 137.000601 
L 283.873846 138.060683 
L 284.118499 141.180929 
L 284.363152 142.516943 
L 284.607805 140.632907 
L 285.097111 134.966355 
L 285.341764 135.871828 
L 285.586417 132.608077 
L 285.83107 131.36275 
L 286.075723 131.420523 
L 286.320376 137.21142 
L 286.56503 150.325787 
L 286.809683 144.603424 
L 287.054336 144.161142 
L 287.298989 142.675157 
L 287.543642 142.987237 
L 287.788295 149.288152 
L 288.032948 150.703657 
L 288.277601 148.96514 
L 288.522254 152.718465 
L 289.01156 155.066951 
L 289.745519 149.547124 
L 289.990172 151.971828 
L 290.234825 149.960135 
L 290.724131 151.950693 
L 290.968784 154.137706 
L 291.213437 159.501003 
L 291.947396 151.5905 
L 292.436702 147.591945 
L 292.681355 147.239476 
L 293.170661 145.492744 
L 293.415314 145.896479 
L 293.659967 146.989926 
L 293.90462 147.186116 
L 294.149273 147.638362 
L 294.393926 143.758321 
L 294.638579 145.777223 
L 294.883232 144.883026 
L 295.127885 151.021634 
L 295.372538 152.118964 
L 295.617191 150.99879 
L 296.106497 145.77974 
L 296.35115 146.504699 
L 296.595803 141.957314 
L 296.840456 143.788029 
L 297.085109 143.993574 
L 297.329762 142.096605 
L 297.574415 159.783494 
L 297.819068 165.581149 
L 298.553027 149.866121 
L 298.79768 148.042375 
L 299.042333 147.490179 
L 299.286986 143.990579 
L 299.531639 142.731101 
L 300.020945 138.905229 
L 300.265598 134.48024 
L 300.754904 138.259867 
L 300.999557 138.197006 
L 301.488863 141.70465 
L 301.733516 138.779984 
L 301.978169 139.858166 
L 302.222822 139.483516 
L 302.467475 139.422271 
L 302.712128 138.406791 
L 302.956781 138.204453 
L 303.201434 137.576158 
L 303.446087 135.008307 
L 303.69074 139.403667 
L 303.935393 140.553748 
L 304.180046 139.566306 
L 304.424699 137.067517 
L 304.669352 131.025547 
L 304.914005 130.63269 
L 305.158658 134.299448 
L 305.647964 129.851297 
L 306.13727 130.668308 
L 306.381923 133.021233 
L 306.626576 133.186523 
L 306.871229 135.064357 
L 307.115882 138.652936 
L 307.360535 133.657823 
L 307.605188 132.29006 
L 307.849841 136.601623 
L 308.094494 135.146353 
L 308.339147 132.984529 
L 308.5838 132.913108 
L 308.828453 133.95917 
L 309.073107 136.731745 
L 309.31776 136.352987 
L 309.562413 133.027514 
L 309.807066 138.606718 
L 310.051719 138.580269 
L 310.296372 141.16365 
L 310.541025 146.257481 
L 310.785678 145.008338 
L 311.274984 149.179563 
L 311.519637 149.269787 
L 311.76429 149.754696 
L 312.008943 146.406511 
L 312.253596 147.772366 
L 312.742902 144.037381 
L 312.987555 145.082794 
L 313.232208 149.409383 
L 313.476861 148.712529 
L 314.21082 156.604866 
L 314.455473 153.215061 
L 314.700126 156.817619 
L 314.944779 154.296026 
L 315.189432 155.157042 
L 315.434085 157.839234 
L 315.678738 156.596491 
L 315.923391 162.364411 
L 316.168044 161.082036 
L 316.412697 158.785028 
L 316.902003 157.277948 
L 317.146656 153.753807 
L 317.391309 154.344444 
L 317.635962 141.754128 
L 317.880615 139.991229 
L 318.125268 136.975134 
L 318.859227 148.580645 
L 319.10388 146.462893 
L 319.348533 147.714103 
L 319.593186 151.21532 
L 319.837839 152.504651 
L 320.082492 158.206053 
L 320.571798 152.662785 
L 320.816451 151.411933 
L 321.061104 149.097872 
L 321.305757 153.750071 
L 321.55041 152.676553 
L 321.795063 144.824445 
L 322.039716 142.229297 
L 322.284369 144.887452 
L 322.529022 145.870176 
L 322.773675 154.670689 
L 323.752287 142.053593 
L 323.99694 147.924033 
L 324.241593 147.569485 
L 324.486246 147.856799 
L 324.730899 155.761658 
L 324.975552 158.228261 
L 325.220205 159.446238 
L 325.464858 163.977166 
L 325.709511 161.463205 
L 325.954164 160.821699 
L 326.198817 162.021006 
L 326.44347 162.477665 
L 326.688123 160.939842 
L 326.932776 161.245178 
L 327.177429 165.190054 
L 327.422082 166.991724 
L 327.666735 170.155181 
L 327.911388 166.534615 
L 328.400694 170.426158 
L 328.645347 170.591235 
L 328.89 174.213417 
L 329.134653 175.335817 
L 329.379306 174.969197 
L 329.623959 175.746813 
L 330.113265 163.894163 
L 330.357918 152.119348 
L 330.602571 155.681107 
L 330.847224 155.538622 
L 331.33653 161.88141 
L 331.581184 161.587457 
L 331.825837 162.181459 
L 332.07049 152.326761 
L 332.559796 158.601069 
L 332.804449 158.686324 
L 333.049102 157.064201 
L 333.293755 150.488347 
L 333.538408 148.133885 
L 333.783061 186.311298 
L 334.027714 182.447555 
L 334.272367 184.058892 
L 334.51702 184.595227 
L 334.761673 189.477391 
L 335.006326 187.748825 
L 335.250979 187.414908 
L 335.495632 186.868449 
L 335.740285 186.976085 
L 335.984938 186.333175 
L 336.474244 188.198276 
L 336.718897 186.617932 
L 336.96355 188.396267 
L 337.208203 186.187867 
L 337.452856 188.667734 
L 337.697509 186.041169 
L 337.942162 187.717395 
L 338.186815 188.045071 
L 338.431468 189.847403 
L 338.920774 186.478906 
L 339.654733 191.073636 
L 339.899386 190.137832 
L 340.144039 189.962711 
L 340.388692 192.98571 
L 340.877998 191.953217 
L 341.122651 189.910742 
L 341.367304 190.544575 
L 341.611957 191.884286 
L 341.85661 189.139856 
L 342.101263 191.174142 
L 342.345916 188.8165 
L 342.835222 193.657189 
L 343.079875 192.973149 
L 343.324528 193.02105 
L 343.569181 192.361841 
L 343.813834 192.496919 
L 344.058487 190.553056 
L 344.30314 191.287409 
L 344.547793 190.944945 
L 344.792446 189.355061 
L 345.037099 189.681916 
L 345.281752 193.782938 
L 345.771058 190.900542 
L 346.015711 193.943285 
L 346.505017 188.453139 
L 346.74967 188.183567 
L 346.994323 193.304111 
L 347.238976 192.122613 
L 347.483629 191.765799 
L 347.728282 192.430692 
L 347.972935 192.060375 
L 348.217588 215.121877 
L 348.462241 216.61303 
L 348.706894 212.998069 
L 348.951547 211.303227 
L 349.1962 210.661668 
L 349.440853 211.321327 
L 349.685506 214.112585 
L 349.930159 213.918423 
L 350.174812 215.890642 
L 350.419465 215.777693 
L 350.664118 213.571652 
L 350.908771 212.824101 
L 351.398077 210.502289 
L 351.64273 211.51533 
L 351.887383 209.326277 
L 352.132036 211.118366 
L 352.376689 210.083527 
L 352.621342 213.286484 
L 352.865995 213.515151 
L 353.110648 213.049257 
L 353.355301 215.132186 
L 353.599954 216.074204 
L 353.844607 211.814054 
L 354.089261 213.03643 
L 354.333914 210.343254 
L 354.82322 208.28623 
L 355.067873 208.859733 
L 355.312526 210.604398 
L 355.557179 208.857242 
L 355.801832 208.9324 
L 356.046485 211.866619 
L 356.291138 211.485914 
L 356.535791 212.380866 
L 356.780444 212.761757 
L 357.025097 210.446675 
L 357.26975 213.210187 
L 357.514403 222.795471 
L 357.759056 222.993489 
L 358.248362 227.945127 
L 358.493015 228.127642 
L 358.982321 223.813098 
L 359.226974 224.118592 
L 359.471627 223.986642 
L 359.71628 223.461106 
L 359.960933 222.345941 
L 360.205586 218.205657 
L 360.450239 221.316204 
L 360.694892 221.543413 
L 360.939545 223.051355 
L 361.428851 222.076038 
L 361.673504 222.362836 
L 361.918157 222.292859 
L 362.16281 223.154247 
L 362.407463 221.132761 
L 362.652116 222.379837 
L 362.896769 222.728184 
L 363.141422 219.583199 
L 363.386075 219.456363 
L 363.630728 217.355678 
L 363.875381 222.491421 
L 364.120034 220.79096 
L 364.364687 221.64331 
L 364.60934 219.427159 
L 364.853993 230.255517 
L 365.098646 228.325753 
L 365.343299 230.280879 
L 365.587952 230.870826 
L 365.832605 234.79209 
L 366.077258 235.088402 
L 366.566564 239.335328 
L 366.811217 242.168286 
L 367.300523 245.151639 
L 367.545176 245.90078 
L 367.789829 245.319512 
L 368.034482 246.195343 
L 368.523788 250.413104 
L 368.768441 252.875957 
L 369.013094 253.628344 
L 369.257747 255.386777 
L 369.747053 252.868974 
L 369.991706 253.172176 
L 370.236359 255.33559 
L 370.481012 255.325904 
L 370.725665 255.059657 
L 370.970318 253.027691 
L 371.214971 254.418192 
L 371.459624 257.674847 
L 371.94893 261.057291 
L 372.193583 258.995219 
L 372.438236 258.080961 
L 372.682889 255.645417 
L 372.927542 257.183756 
L 373.172195 257.034077 
L 373.416848 263.340624 
L 373.661501 262.736809 
L 373.906154 262.922743 
L 374.150807 262.864308 
L 374.39546 266.244797 
L 374.640113 265.374664 
L 374.884766 263.404446 
L 375.129419 262.93235 
L 375.374072 262.901178 
L 375.618725 260.279098 
L 375.863378 260.222756 
L 376.108031 258.759462 
L 376.352684 258.010268 
L 376.597338 259.465419 
L 376.841991 259.404811 
L 377.086644 259.11629 
L 377.331297 259.509438 
L 377.57595 259.127619 
L 377.820603 258.957302 
L 378.065256 257.700441 
L 378.309909 258.109821 
L 378.554562 258.856709 
L 378.799215 259.148105 
L 379.288521 256.629208 
L 379.533174 259.909218 
L 379.777827 260.40751 
L 380.02248 260.181308 
L 380.267133 260.791999 
L 380.511786 269.460137 
L 380.756439 260.129093 
L 381.001092 268.481282 
L 381.490398 276.334125 
L 381.490398 276.334125 
" style="fill:none;stroke:#1f77b4;stroke-linecap:square;stroke-width:1.5;"/>
   </g>
   <g id="line2d_30">
    <path clip-path="url(#p1f39dbba17)" d="M 56.835852 120.506692 
L 57.569811 126.759152 
L 57.814464 122.174014 
L 58.059117 121.757184 
L 58.30377 121.062466 
L 58.548423 119.603559 
L 58.793076 120.645635 
L 59.037729 119.186728 
L 59.282382 119.603559 
L 59.527035 119.117256 
L 59.771688 120.089861 
L 60.260994 118.422538 
L 60.505647 118.630954 
L 60.7503 119.950917 
L 60.994953 120.367748 
L 61.239606 121.131938 
L 61.484259 119.186728 
L 61.728912 122.38243 
L 61.973566 123.632922 
L 62.218219 121.20141 
L 62.462872 122.243486 
L 62.707525 122.729789 
L 63.196831 125.369716 
L 63.441484 119.2562 
L 63.686137 120.228805 
L 63.93079 119.881446 
L 64.420096 119.950917 
L 64.664749 119.117256 
L 64.909402 115.574195 
L 65.154055 115.782611 
L 65.398708 116.824687 
L 65.643361 121.965599 
L 65.888014 116.755216 
L 66.132667 117.866764 
L 66.37732 118.283595 
L 66.866626 121.548768 
L 67.111279 119.881446 
L 67.355932 120.43722 
L 67.600585 121.687712 
L 67.845238 120.784579 
L 68.089891 121.340353 
L 68.334544 118.353067 
L 68.579197 117.172046 
L 68.82385 117.102574 
L 69.068503 121.20141 
L 69.313156 122.451902 
L 69.557809 121.965599 
L 69.802462 116.685744 
L 70.047115 120.784579 
L 70.291768 108.418602 
L 70.536421 107.029166 
L 70.781074 104.319767 
L 71.27038 108.765961 
L 71.515033 111.614304 
L 71.759686 111.266945 
L 72.004339 109.391207 
L 72.248992 110.850114 
L 72.493645 111.336417 
L 72.738298 108.696489 
L 72.982951 113.559514 
L 73.227604 113.42057 
L 73.472257 111.128001 
L 73.961563 117.449933 
L 74.206216 116.824687 
L 74.450869 118.144651 
L 74.940175 123.007676 
L 75.184828 122.868732 
L 75.429481 121.548768 
L 75.918787 115.435252 
L 76.16344 114.879477 
L 76.408093 110.711171 
L 76.652746 111.753247 
L 76.897399 113.698457 
L 77.631358 106.264977 
L 77.876011 110.502755 
L 78.365317 111.822719 
L 78.60997 109.043848 
L 78.854623 109.321735 
L 79.099276 109.321735 
L 79.343929 107.515469 
L 79.588582 108.488074 
L 79.833235 110.850114 
L 80.077888 110.224868 
L 80.567194 106.126033 
L 80.811847 107.16811 
L 81.0565 107.445997 
L 81.545806 112.586909 
L 81.790459 115.296308 
L 82.035112 115.782611 
L 82.279765 117.866764 
L 82.524418 112.447965 
L 82.769071 111.197473 
L 83.013724 111.753247 
L 83.258377 113.628985 
L 83.747683 118.839369 
L 83.992336 111.128001 
L 84.481643 108.904904 
L 84.726296 111.058529 
L 85.215602 107.58494 
L 85.460255 104.389238 
L 85.704908 102.652444 
L 85.949561 101.749311 
L 86.194214 102.999803 
L 86.438867 102.582972 
L 86.68352 108.765961 
L 86.928173 110.155396 
L 87.172826 108.001771 
L 87.417479 109.043848 
L 88.640744 92.37062 
L 88.885397 91.259072 
L 89.13005 86.743406 
L 89.374703 87.090765 
L 89.864009 82.088797 
L 90.108662 80.977248 
L 90.353315 83.061402 
L 90.597968 80.629889 
L 91.087274 86.048688 
L 91.331927 85.35397 
L 91.57658 89.24439 
L 91.821233 87.577067 
L 92.065886 83.269817 
L 92.310539 83.756119 
L 92.555192 85.492914 
L 92.799845 84.798196 
L 93.044498 80.838305 
L 93.289151 82.436156 
L 93.533804 80.213059 
L 94.02311 77.364716 
L 94.267763 77.781546 
L 94.757069 72.987993 
L 95.001722 74.099542 
L 95.246375 76.531054 
L 95.491028 76.392111 
L 96.224987 66.457646 
L 96.46964 64.581908 
L 96.714293 64.234549 
L 96.958946 65.693456 
L 97.203599 62.775642 
L 97.448252 64.304021 
L 97.692905 61.038847 
L 97.937558 68.19444 
L 98.182211 66.179759 
L 98.426864 70.625953 
L 98.91617 66.318702 
L 99.160823 60.830432 
L 99.405476 59.649411 
L 99.650129 61.038847 
L 99.894782 67.986025 
L 100.139435 68.263912 
L 100.384088 62.70617 
L 100.628741 61.316734 
L 100.873394 61.108319 
L 101.118047 60.691488 
L 101.3627 59.718883 
L 101.607353 59.510468 
L 101.852006 55.481105 
L 102.096659 56.662125 
L 102.341312 55.550576 
L 102.585965 49.645475 
L 102.830618 54.716915 
L 103.075271 55.68952 
L 103.319924 51.7991 
L 103.564577 50.61808 
L 104.053883 45.477168 
L 104.543189 47.422378 
L 104.787842 46.102414 
L 105.032495 43.254071 
L 105.277148 42.767769 
L 105.521801 45.96347 
L 105.766454 41.795164 
L 106.011107 46.102414 
L 106.25576 42.767769 
L 106.745066 51.7991 
L 106.98972 49.85389 
L 107.234373 49.159172 
L 107.479026 55.272689 
L 107.723679 54.161141 
L 107.968332 55.967407 
L 108.212985 54.647443 
L 108.457638 55.550576 
L 108.702291 61.247262 
L 108.946944 58.954694 
L 109.191597 52.98012 
L 109.680903 56.106351 
L 109.925556 61.386206 
L 110.170209 54.994802 
L 110.659515 57.982089 
L 110.904168 53.883254 
L 111.148821 52.771705 
L 111.393474 61.038847 
L 111.638127 60.344129 
L 111.88278 61.733565 
L 112.127433 58.676806 
L 112.372086 58.121032 
L 112.861392 52.076987 
L 113.106045 49.714947 
L 113.350698 53.952725 
L 113.595351 54.716915 
L 113.840004 49.43706 
L 114.32931 44.643507 
L 114.818616 42.489881 
L 115.063269 39.780482 
L 115.552575 44.990866 
L 115.797228 67.01342 
L 116.041881 63.88719 
L 116.286534 72.432219 
L 116.531187 74.516373 
L 116.77584 72.223804 
L 117.020493 74.238485 
L 117.509799 69.72282 
L 117.754452 71.390142 
L 117.999105 74.377429 
L 118.243758 74.863731 
L 118.488411 70.209122 
L 118.733064 69.236517 
L 118.977717 69.097574 
L 119.467023 72.779578 
L 119.711676 68.541799 
L 119.956329 68.95863 
L 120.200982 72.432219 
L 120.445635 71.112255 
L 120.690288 70.834368 
L 121.179594 77.503659 
L 121.424247 77.781546 
L 121.6689 74.933203 
L 121.913553 78.198377 
L 122.158206 77.225772 
L 122.402859 76.947885 
L 122.647512 79.10151 
L 122.892165 85.284499 
L 123.136818 83.964535 
L 123.381471 86.257104 
L 123.626124 85.492914 
L 124.11543 81.116192 
L 124.360083 81.255135 
L 124.604736 80.421474 
L 124.849389 75.766865 
L 125.094042 74.377429 
L 125.583348 78.337321 
L 125.828001 74.863731 
L 126.072654 75.558449 
L 126.317307 74.238485 
L 126.806613 65.276626 
L 127.295919 70.417537 
L 127.540572 69.861763 
L 127.785225 74.169014 
L 128.029878 73.960598 
L 128.274531 74.446901 
L 128.519184 75.905808 
L 128.763837 72.918522 
L 129.00849 72.223804 
L 129.253143 73.821655 
L 129.497797 71.251199 
L 129.74245 80.977248 
L 129.987103 86.257104 
L 130.476409 80.490946 
L 130.721062 76.808941 
L 130.965715 75.488977 
L 131.210368 78.198377 
L 131.944327 70.278594 
L 132.18898 70.070179 
L 132.678286 67.01342 
L 132.922939 61.803037 
L 133.167592 60.830432 
L 133.412245 60.344129 
L 133.656898 54.855858 
L 134.146204 58.537863 
L 134.390857 55.550576 
L 134.63551 50.479136 
L 134.880163 53.952725 
L 135.124816 54.92533 
L 135.369469 59.788355 
L 135.614122 59.99677 
L 136.103428 57.63473 
L 136.348081 50.409664 
L 136.837387 46.032942 
L 137.08204 46.936075 
L 137.571346 49.85389 
L 137.815999 48.603398 
L 138.060652 49.298116 
L 138.305305 50.479136 
L 138.794611 45.268753 
L 139.039264 45.407696 
L 139.283917 48.67287 
L 139.52857 48.464455 
L 139.773223 50.270721 
L 140.017876 48.742342 
L 140.262529 45.477168 
L 140.507182 46.171886 
L 140.751835 45.477168 
L 140.996488 51.243326 
L 141.241141 52.076987 
L 141.485794 51.660157 
L 141.730447 53.327479 
L 141.9751 56.314766 
L 142.219753 52.98012 
L 142.464406 53.74431 
L 142.953712 47.49185 
L 143.198365 48.742342 
L 143.687671 40.405728 
L 143.932324 34.63957 
L 144.42163 37.626857 
L 144.666283 41.239389 
L 144.910936 42.976184 
L 145.400242 49.43706 
L 145.889548 52.424346 
L 146.134201 56.592653 
L 146.623507 59.440996 
L 146.86816 58.746278 
L 147.112813 61.177791 
L 147.357466 65.346097 
L 147.602119 63.192472 
L 147.846772 68.402856 
L 148.336078 67.847082 
L 148.580731 68.19444 
L 148.825384 72.571163 
L 149.070037 68.055497 
L 149.31469 103.972408 
L 149.559343 116.407857 
L 149.803996 111.544832 
L 150.048649 113.559514 
L 150.537955 110.224868 
L 150.782608 111.336417 
L 151.027261 109.043848 
L 151.271914 111.266945 
L 151.516567 109.391207 
L 151.76122 112.23955 
L 152.005874 120.43722 
L 152.250527 122.035071 
L 152.49518 119.881446 
L 152.739833 119.881446 
L 153.718445 108.765961 
L 153.963098 107.654412 
L 154.207751 110.502755 
L 154.452404 106.542864 
L 154.697057 106.612335 
L 154.94171 103.069275 
L 155.675669 107.098638 
L 155.920322 107.515469 
L 156.164975 109.321735 
L 156.409628 107.862828 
L 156.898934 101.540895 
L 157.143587 101.471424 
L 157.38824 98.692552 
L 157.632893 98.067306 
L 157.877546 97.02523 
L 158.122199 97.650476 
L 158.856158 89.313862 
L 159.345464 87.507596 
L 159.590117 86.743406 
L 160.079423 93.065338 
L 160.324076 101.054593 
L 160.568729 98.900968 
L 160.813382 99.595686 
L 161.058035 102.999803 
L 161.302688 104.111351 
L 161.791994 99.665157 
L 162.2813 106.542864 
L 162.525953 102.999803 
L 163.015259 105.917618 
L 163.259912 105.083956 
L 163.993871 98.692552 
L 164.238524 94.385302 
L 164.72783 92.023261 
L 165.217136 94.732661 
L 165.461789 93.065338 
L 165.706442 93.829528 
L 165.951095 92.926395 
L 166.195748 91.1896 
L 166.440401 90.772769 
L 166.929707 97.303117 
L 167.17436 96.538927 
L 167.908319 100.15146 
L 168.152972 98.275722 
L 168.397625 98.97044 
L 168.642278 98.067306 
L 168.886931 99.595686 
L 169.131584 97.303117 
L 169.376237 97.094701 
L 169.865543 99.734629 
L 170.354849 95.218963 
L 170.599502 97.233645 
L 170.844155 95.010548 
L 171.088808 96.469455 
L 171.333461 96.816814 
L 171.578114 99.248327 
L 171.822767 99.595686 
L 172.06742 98.762024 
L 172.312073 98.345194 
L 172.556726 94.454774 
L 172.801379 96.330512 
L 173.290685 92.926395 
L 173.535338 94.663189 
L 173.779991 95.427379 
L 174.269298 93.621112 
L 174.513951 96.122097 
L 174.758604 92.787451 
L 175.003257 94.176887 
L 175.24791 90.42541 
L 175.737216 94.524246 
L 175.981869 92.023261 
L 176.226522 94.176887 
L 176.471175 95.010548 
L 176.715828 91.328544 
L 176.960481 96.330512 
L 177.205134 95.705266 
L 177.449787 113.559514 
L 177.939093 117.033103 
L 178.183746 120.367748 
L 178.428399 121.757184 
L 178.673052 120.923522 
L 178.917705 121.61824 
L 179.162358 120.784579 
L 179.407011 121.965599 
L 179.651664 118.908841 
L 180.14097 121.965599 
L 180.385623 122.035071 
L 180.630276 121.687712 
L 180.874929 120.854051 
L 181.119582 122.451902 
L 181.364235 118.283595 
L 181.608888 118.700425 
L 181.853541 122.035071 
L 182.098194 122.799261 
L 182.342847 122.521373 
L 182.5875 123.146619 
L 182.832153 121.548768 
L 183.076806 122.035071 
L 183.321459 124.397111 
L 183.566112 121.757184 
L 183.810765 123.771865 
L 184.055418 124.605527 
L 184.300071 126.064434 
L 184.544724 124.813942 
L 184.789377 125.786547 
L 185.03403 127.245455 
L 185.278683 126.620208 
L 185.523336 127.106511 
L 185.767989 124.188696 
L 186.012642 123.007676 
L 186.257295 124.813942 
L 186.501948 128.426475 
L 186.746601 127.801229 
L 186.991254 126.550737 
L 187.235907 128.287531 
L 187.48056 128.426475 
L 187.725213 130.093798 
L 187.969866 129.538023 
L 188.459172 131.483233 
L 188.948478 144.057626 
L 189.92709 155.103639 
L 190.171743 153.922619 
L 190.416396 155.242582 
L 190.905702 146.141779 
L 191.150355 145.516533 
L 191.395008 148.364876 
L 191.639661 147.670158 
L 191.884314 154.131034 
L 192.128967 153.366844 
L 192.37362 157.048849 
L 192.618273 153.853147 
L 192.862926 154.686808 
L 193.352232 166.913842 
L 193.596885 162.18976 
L 193.841538 161.703458 
L 194.330844 156.770962 
L 194.575497 156.284659 
L 195.064803 151.838465 
L 195.554109 152.81107 
L 195.798762 151.004804 
L 196.043415 150.587973 
L 196.288068 150.449029 
L 196.777375 148.086989 
L 197.022028 146.836497 
L 197.266681 148.017517 
L 197.511334 153.227901 
L 197.755987 149.337481 
L 198.489946 152.741598 
L 198.734599 152.255296 
L 198.979252 150.86586 
L 199.223905 147.73963 
L 199.468558 148.364876 
L 199.713211 150.101671 
L 199.957864 150.171142 
L 200.202517 152.324768 
L 200.44717 147.670158 
L 200.691823 154.478393 
L 200.936476 154.408921 
L 201.181129 156.562546 
L 201.425782 153.714203 
L 201.670435 152.324768 
L 201.915088 152.880542 
L 202.159741 153.088957 
L 202.404394 156.632018 
L 202.649047 150.449029 
L 202.8937 153.227901 
L 203.138353 154.408921 
L 203.383006 154.825752 
L 203.627659 153.158429 
L 203.872312 150.171142 
L 204.116965 164.065499 
L 204.361618 161.495043 
L 204.606271 155.798357 
L 204.850924 156.909905 
L 205.34023 153.088957 
L 205.584883 153.366844 
L 205.829536 151.838465 
L 206.074189 155.173111 
L 206.318842 155.242582 
L 206.563495 159.758248 
L 207.052801 158.577228 
L 207.297454 164.690745 
L 207.542107 166.010708 
L 207.78676 170.456902 
L 208.031413 172.679999 
L 208.276066 176.500947 
L 208.520719 173.583133 
L 208.765372 174.069435 
L 209.254678 169.484297 
L 209.499331 172.054753 
L 209.743984 181.780803 
L 209.988637 182.683936 
L 210.23329 179.418762 
L 210.477943 179.974536 
L 210.722596 179.974536 
L 210.967249 172.957887 
L 211.211902 171.846338 
L 211.456555 172.818943 
L 211.701208 172.402112 
L 211.945861 170.873733 
L 212.190514 172.957887 
L 212.67982 179.766121 
L 212.924473 176.22306 
L 213.169126 175.04204 
L 213.413779 179.140875 
L 213.658432 181.363972 
L 213.903085 187.546961 
L 214.147738 187.824848 
L 214.392391 190.464775 
L 214.637044 190.951078 
L 214.881697 186.782771 
L 215.860309 179.974536 
L 216.349615 185.671223 
L 216.594268 188.797453 
L 216.838921 189.353227 
L 217.328227 195.814103 
L 217.57288 188.589037 
L 217.817533 192.896288 
L 218.062186 192.826816 
L 218.551492 200.39924 
L 218.796145 201.719204 
L 219.285452 198.870861 
L 219.530105 203.733886 
L 220.019411 208.805326 
L 220.264064 209.777931 
L 220.508717 209.500043 
L 220.998023 206.512757 
L 221.242676 209.500043 
L 221.487329 200.121353 
L 221.731982 200.816071 
L 221.976635 200.538184 
L 222.221288 198.245615 
L 222.465941 198.523502 
L 222.710594 197.967728 
L 222.955247 196.230933 
L 223.1999 190.603719 
L 223.444553 191.298437 
L 223.689206 181.016613 
L 223.933859 177.751439 
L 224.178512 177.751439 
L 224.423165 169.831656 
L 224.667818 165.941237 
L 224.912471 157.048849 
L 225.157124 166.774898 
L 226.625042 174.972568 
L 227.114348 180.460839 
L 227.603654 176.500947 
L 228.09296 185.045976 
L 228.337613 181.155557 
L 228.582266 179.627178 
L 228.826919 184.281787 
L 229.316225 187.89432 
L 229.805531 183.864956 
L 230.050184 185.740694 
L 230.294837 185.462807 
L 230.53949 187.199602 
L 230.784143 187.546961 
L 231.028796 187.616432 
L 231.273449 189.144812 
L 231.518102 188.589037 
L 231.762755 190.742663 
L 232.252061 187.477489 
L 232.496714 186.157525 
L 232.98602 182.128162 
L 233.475326 187.13013 
L 233.964632 179.627178 
L 234.209285 179.279819 
L 234.453938 181.572387 
L 234.698591 180.252424 
L 235.187897 181.155557 
L 235.43255 181.919746 
L 235.677203 179.974536 
L 235.921856 186.921715 
L 236.166509 188.380622 
L 236.411162 183.864956 
L 236.900468 187.824848 
L 237.145121 185.94911 
L 237.389774 185.94911 
L 237.634427 187.755376 
L 237.87908 190.534247 
L 238.123733 185.532279 
L 238.857692 192.132098 
L 239.102345 197.967728 
L 239.591651 201.997091 
L 239.836304 202.205506 
L 240.080957 203.386527 
L 240.32561 205.609624 
L 240.570263 206.512757 
L 240.814916 206.6517 
L 241.059569 206.23487 
L 241.304222 204.011773 
L 241.548875 205.609624 
L 241.793529 210.472648 
L 242.038182 209.708459 
L 242.282835 207.554834 
L 242.527488 209.638987 
L 242.772141 208.319023 
L 243.016794 203.317055 
L 243.261447 204.984378 
L 243.5061 205.540152 
L 243.750753 206.512757 
L 243.995406 206.443285 
L 244.240059 204.220188 
L 244.729365 210.472648 
L 244.974018 208.735854 
L 245.218671 209.986346 
L 245.463324 217.906129 
L 245.707977 217.906129 
L 245.95263 215.752504 
L 246.197283 208.249551 
L 246.686589 204.081245 
L 246.931242 210.055818 
L 247.175895 207.554834 
L 247.420548 206.373813 
L 247.665201 208.319023 
L 247.909854 207.068531 
L 248.154507 208.388495 
L 248.39916 208.735854 
L 248.643813 209.847402 
L 248.888466 209.013741 
L 249.133119 206.23487 
L 249.377772 199.982409 
L 249.622425 201.302373 
L 249.867078 206.790644 
L 250.111731 205.748567 
L 250.356384 207.971664 
L 250.84569 209.847402 
L 251.090343 209.638987 
L 251.579649 220.754472 
L 251.824302 220.546057 
L 252.068955 229.091086 
L 252.313608 228.396368 
L 252.558261 216.655637 
L 252.802914 216.099863 
L 253.047567 215.266201 
L 253.29222 211.72314 
L 253.536873 211.584197 
L 253.781526 210.611592 
L 254.026179 210.750536 
L 254.270832 210.403177 
L 254.515485 210.333705 
L 254.760138 200.885543 
L 255.004791 206.095926 
L 255.249444 201.649732 
L 255.494097 201.16343 
L 255.73875 196.717236 
L 255.983403 194.980441 
L 256.228056 196.717236 
L 256.472709 200.885543 
L 256.717362 197.064595 
L 256.962015 195.744631 
L 257.206668 196.09199 
L 257.695974 190.951078 
L 257.940627 194.077308 
L 258.18528 194.633082 
L 258.429933 195.814103 
L 258.674586 195.258328 
L 259.653198 205.679096 
L 259.897851 201.649732 
L 260.142504 195.188857 
L 260.387157 197.689841 
L 260.63181 197.342482 
L 260.876463 196.369877 
L 261.121116 203.247583 
L 261.365769 197.550897 
L 261.610422 194.494139 
L 261.855075 196.786708 
L 262.099728 194.14678 
L 262.344381 194.355195 
L 262.833687 196.786708 
L 263.07834 189.422699 
L 263.322993 187.963791 
L 263.567646 190.534247 
L 263.812299 191.02055 
L 264.056952 189.214283 
L 264.546259 178.793516 
L 264.790912 178.654573 
L 265.035565 175.597814 
L 265.524871 184.907033 
L 265.769524 183.587069 
L 266.25883 174.694681 
L 266.503483 174.486266 
L 266.748136 176.014645 
L 266.992789 174.555738 
L 267.482095 178.098798 
L 267.726748 176.292532 
L 267.971401 177.473552 
L 268.216054 179.835593 
L 268.460707 178.862988 
L 268.70536 179.766121 
L 268.950013 181.363972 
L 269.194666 178.515629 
L 269.439319 184.42073 
L 269.683972 184.142843 
L 270.173278 194.077308 
L 270.417931 193.313118 
L 270.662584 187.477489 
L 271.396543 178.515629 
L 271.641196 179.488234 
L 271.885849 178.029327 
L 272.130502 175.180984 
L 272.375155 180.947141 
L 272.619808 155.242582 
L 272.864461 146.211251 
L 273.109114 142.529246 
L 273.353767 145.863892 
L 273.59842 144.821815 
L 274.087726 156.70149 
L 274.332379 158.716171 
L 274.577032 153.158429 
L 274.821685 156.006772 
L 275.066338 145.169174 
L 275.310991 148.225932 
L 275.555644 146.002835 
L 275.800297 141.765057 
L 276.04495 144.752343 
L 276.289603 142.320831 
L 276.534256 136.624145 
L 276.778909 141.278754 
L 277.023562 141.209283 
L 277.268215 140.931395 
L 277.512868 142.66819 
L 278.002174 137.735693 
L 278.246827 143.015549 
L 278.736133 137.040976 
L 278.980786 135.65154 
L 279.225439 133.289499 
L 279.470092 137.318863 
L 279.714745 138.847242 
L 279.959398 142.876605 
L 280.204051 143.362908 
L 280.448704 138.916714 
L 280.693357 139.125129 
L 280.93801 140.375621 
L 281.182663 143.015549 
L 281.427316 141.278754 
L 281.671969 142.112416 
L 281.916622 141.904 
L 282.161275 139.125129 
L 282.405928 133.497915 
L 282.650581 133.289499 
L 282.895234 128.843305 
L 283.139887 131.969536 
L 283.38454 137.040976 
L 283.629193 138.221996 
L 283.873846 141.48717 
L 284.118499 142.459775 
L 284.363152 140.445093 
L 284.852458 134.678935 
L 285.097111 135.65154 
L 285.341764 132.386366 
L 285.586417 131.135874 
L 285.83107 131.274818 
L 286.075723 137.318863 
L 286.320376 150.587973 
L 286.56503 144.404984 
L 286.809683 144.057626 
L 287.054336 142.598718 
L 287.298989 142.807134 
L 287.543642 149.268009 
L 287.788295 150.86586 
L 288.032948 149.198537 
L 288.277601 152.741598 
L 288.766907 155.173111 
L 289.500866 149.476425 
L 289.745519 152.04688 
L 289.990172 149.962727 
L 290.479478 151.907937 
L 290.724131 154.339449 
L 290.968784 159.758248 
L 291.213437 156.284659 
L 291.45809 154.617336 
L 291.947396 148.92065 
L 292.192049 147.322799 
L 292.436702 147.114384 
L 292.926008 145.377589 
L 293.170661 145.724948 
L 293.415314 146.836497 
L 293.90462 147.531215 
L 294.149273 143.43238 
L 294.393926 145.655477 
L 294.638579 144.6134 
L 294.883232 150.935332 
L 295.127885 151.838465 
L 295.372538 150.796388 
L 295.861844 145.447061 
L 296.106497 146.280723 
L 296.35115 141.626113 
L 296.595803 143.640795 
L 296.840456 143.640795 
L 297.085109 141.904 
L 297.329762 160.105607 
L 297.574415 166.149652 
L 298.063721 151.491106 
L 298.553027 147.670158 
L 298.79768 147.183856 
L 299.042333 143.640795 
L 299.531639 140.236678 
L 299.776292 138.569355 
L 300.020945 133.984217 
L 300.510251 138.152524 
L 300.754904 137.874637 
L 301.24421 141.973472 
L 301.488863 138.77777 
L 301.733516 139.472488 
L 302.222822 139.125129 
L 302.467475 138.499883 
L 302.712128 138.221996 
L 302.956781 137.249391 
L 303.201434 134.956822 
L 303.446087 139.54196 
L 303.69074 140.514565 
L 303.935393 139.472488 
L 304.180046 137.179919 
L 304.424699 130.996931 
L 304.669352 130.232741 
L 304.914005 134.192633 
L 305.403311 129.81591 
L 305.892617 130.510628 
L 306.13727 132.872669 
L 306.381923 133.150556 
L 306.626576 134.956822 
L 306.871229 138.499883 
L 307.115882 133.775802 
L 307.360535 132.177951 
L 307.605188 136.346258 
L 307.849841 135.026294 
L 308.094494 132.733725 
L 308.339147 132.733725 
L 308.5838 133.636858 
L 308.828453 136.693617 
L 309.073107 136.485201 
L 309.31776 132.803197 
L 309.562413 138.291468 
L 309.807066 138.638827 
L 310.051719 141.278754 
L 310.296372 146.419666 
L 310.541025 144.960759 
L 311.030331 149.268009 
L 311.274984 149.337481 
L 311.519637 149.823783 
L 311.76429 146.350194 
L 312.008943 147.809102 
L 312.498249 143.779738 
L 312.742902 144.752343 
L 312.987555 149.545896 
L 313.232208 148.990122 
L 313.721514 153.088957 
L 313.966167 156.493074 
L 314.21082 153.088957 
L 314.455473 156.979377 
L 314.700126 154.408921 
L 314.944779 154.964695 
L 315.189432 158.021454 
L 315.434085 156.354131 
L 315.678738 162.328704 
L 315.923391 161.217156 
L 316.168044 158.577228 
L 316.65735 157.187792 
L 316.902003 153.505788 
L 317.146656 154.131034 
L 317.391309 141.348226 
L 317.880615 136.971504 
L 318.614574 148.364876 
L 318.859227 146.419666 
L 319.10388 147.809102 
L 319.348533 151.282691 
L 319.593186 152.185824 
L 319.837839 158.090925 
L 320.327145 152.533183 
L 320.571798 151.074275 
L 320.816451 148.781707 
L 321.061104 153.644731 
L 321.305757 152.324768 
L 321.55041 144.474456 
L 321.795063 141.973472 
L 322.039716 144.543928 
L 322.284369 145.863892 
L 322.529022 154.825752 
L 323.507634 141.765057 
L 323.752287 148.086989 
L 323.99694 147.600686 
L 324.241593 147.531215 
L 324.486246 155.728885 
L 324.730899 158.716171 
L 324.975552 159.758248 
L 325.220205 164.065499 
L 325.464858 161.495043 
L 325.709511 160.661381 
L 325.954164 161.981345 
L 326.198817 162.537119 
L 326.44347 160.869797 
L 326.688123 160.869797 
L 326.932776 164.89916 
L 327.177429 166.705426 
L 327.422082 169.831656 
L 327.666735 166.08018 
L 327.911388 168.720108 
L 328.156041 169.9706 
L 328.400694 169.9706 
L 328.645347 173.513661 
L 328.89 175.180984 
L 329.134653 174.903096 
L 329.379306 175.458871 
L 329.868612 163.579196 
L 330.113265 151.907937 
L 330.357918 155.173111 
L 330.602571 154.825752 
L 331.091877 161.842402 
L 331.33653 161.286627 
L 331.581184 161.77293 
L 331.825837 152.116352 
L 332.315143 157.951982 
L 332.559796 158.299341 
L 332.804449 156.770962 
L 333.049102 150.171142 
L 333.293755 147.600686 
L 333.538408 186.296469 
L 333.783061 182.822879 
L 334.272367 184.768089 
L 334.51702 189.631114 
L 334.761673 187.824848 
L 335.006326 187.477489 
L 335.250979 186.782771 
L 335.495632 187.060658 
L 335.740285 186.574356 
L 336.229591 188.102735 
L 336.474244 186.852243 
L 336.718897 188.380622 
L 336.96355 186.226997 
L 337.208203 188.519566 
L 337.452856 185.532279 
L 337.697509 187.685904 
L 337.942162 187.824848 
L 338.186815 189.49217 
L 338.676121 186.226997 
L 339.165427 189.353227 
L 339.41008 190.673191 
L 339.654733 190.047945 
L 339.899386 189.909001 
L 340.144039 193.035231 
L 340.633345 191.784739 
L 340.877998 189.422699 
L 341.122651 189.978473 
L 341.367304 191.923683 
L 341.611957 189.07534 
L 341.85661 190.603719 
L 342.101263 188.589037 
L 342.590569 193.452062 
L 342.835222 192.757344 
L 343.079875 192.618401 
L 343.324528 192.062626 
L 343.569181 192.062626 
L 343.813834 190.117417 
L 344.058487 190.673191 
L 344.30314 190.395304 
L 344.547793 188.936396 
L 344.792446 189.422699 
L 345.037099 193.38259 
L 345.526405 190.881606 
L 345.771058 193.729949 
L 346.260364 188.102735 
L 346.505017 188.102735 
L 346.74967 193.104703 
L 346.994323 191.506852 
L 347.238976 191.506852 
L 347.483629 192.409985 
L 347.728282 191.715267 
L 347.972935 215.474617 
L 348.217588 216.794581 
L 348.462241 213.112576 
L 348.951547 210.055818 
L 349.1962 211.097894 
L 349.440853 214.085181 
L 349.685506 213.598879 
L 349.930159 215.821976 
L 350.174812 215.544088 
L 350.419465 213.182048 
L 350.664118 212.48733 
L 351.153424 209.986346 
L 351.398077 211.167366 
L 351.64273 209.291628 
L 351.887383 210.820007 
L 352.132036 209.500043 
L 352.376689 212.904161 
L 352.621342 213.459935 
L 352.865995 212.973633 
L 353.110648 214.779899 
L 353.355301 215.752504 
L 353.599954 211.167366 
L 353.844607 212.765217 
L 354.333914 208.805326 
L 354.578567 207.693777 
L 354.82322 208.59691 
L 355.067873 210.12529 
L 355.312526 208.457967 
L 355.557179 208.457967 
L 355.801832 211.445253 
L 356.046485 211.028423 
L 356.291138 212.139971 
L 356.535791 212.417858 
L 356.780444 209.500043 
L 357.025097 212.973633 
L 357.26975 223.255456 
L 357.514403 222.908097 
L 358.003709 227.771122 
L 358.248362 227.979537 
L 358.737668 223.185984 
L 358.982321 223.672287 
L 359.226974 223.533343 
L 359.471627 223.116513 
L 359.71628 221.866021 
L 359.960933 217.280883 
L 360.205586 221.032359 
L 360.450239 221.171303 
L 360.694892 222.63021 
L 360.939545 222.282851 
L 361.184198 221.518662 
L 361.428851 221.796549 
L 361.673504 221.796549 
L 361.918157 222.838625 
L 362.16281 220.546057 
L 362.407463 222.004964 
L 362.652116 222.004964 
L 362.896769 218.878734 
L 363.141422 218.809262 
L 363.386075 216.586165 
L 363.630728 222.352323 
L 363.875381 220.337641 
L 364.120034 221.518662 
L 364.364687 218.878734 
L 364.60934 230.41105 
L 364.853993 227.771122 
L 365.098646 229.855275 
L 365.343299 230.549993 
L 365.587952 234.996187 
L 365.832605 234.857244 
L 366.077258 236.385623 
L 366.811217 243.610688 
L 367.05587 245.208539 
L 367.300523 245.764313 
L 367.545176 245.347483 
L 367.789829 245.833785 
L 368.279135 250.002092 
L 368.523788 252.780963 
L 368.768441 253.545153 
L 369.013094 255.420891 
L 369.5024 252.433604 
L 369.747053 252.433604 
L 369.991706 254.934588 
L 370.236359 254.865117 
L 370.481012 254.170399 
L 370.725665 252.364133 
L 370.970318 254.239871 
L 371.214971 257.852403 
L 371.459624 258.755536 
L 371.704277 260.700746 
L 371.94893 258.616593 
L 372.193583 257.782931 
L 372.438236 255.00406 
L 372.682889 256.810327 
L 372.927542 256.671383 
L 373.172195 263.549089 
L 373.416848 262.298597 
L 373.661501 262.576484 
L 373.906154 262.645956 
L 374.150807 265.980602 
L 374.884766 262.576484 
L 375.129419 262.576484 
L 375.374072 259.311311 
L 375.618725 260.006028 
L 375.863378 257.921875 
L 376.108031 257.643988 
L 376.352684 258.755536 
L 376.597338 258.825008 
L 376.841991 258.477649 
L 377.086644 259.102895 
L 377.331297 258.060819 
L 377.57595 258.338706 
L 377.820603 257.505044 
L 378.065256 257.435573 
L 378.309909 258.547121 
L 378.554562 258.269234 
L 379.043868 255.907193 
L 379.288521 259.450254 
L 379.533174 259.867085 
L 379.777827 259.519726 
L 380.02248 260.0755 
L 380.267133 269.593134 
L 380.511786 258.616593 
L 380.756439 268.759473 
L 381.245745 276.262425 
L 381.490398 275.706651 
L 381.490398 275.706651 
" style="fill:none;stroke:#ff7f0e;stroke-linecap:square;stroke-width:1.5;"/>
   </g>
   <g id="patch_3">
    <path d="M 40.603125 288.430125 
L 40.603125 22.318125 
" style="fill:none;stroke:#000000;stroke-linecap:square;stroke-linejoin:miter;stroke-width:0.8;"/>
   </g>
   <g id="patch_4">
    <path d="M 397.723125 288.430125 
L 397.723125 22.318125 
" style="fill:none;stroke:#000000;stroke-linecap:square;stroke-linejoin:miter;stroke-width:0.8;"/>
   </g>
   <g id="patch_5">
    <path d="M 40.603125 288.430125 
L 397.723125 288.430125 
" style="fill:none;stroke:#000000;stroke-linecap:square;stroke-linejoin:miter;stroke-width:0.8;"/>
   </g>
   <g id="patch_6">
    <path d="M 40.603125 22.318125 
L 397.723125 22.318125 
" style="fill:none;stroke:#000000;stroke-linecap:square;stroke-linejoin:miter;stroke-width:0.8;"/>
   </g>
   <g id="text_17">
    <!-- Training: MAT -->
    <defs>
     <path d="M -0.296875 72.90625 
L 61.375 72.90625 
L 61.375 64.59375 
L 35.5 64.59375 
L 35.5 0 
L 25.59375 0 
L 25.59375 64.59375 
L -0.296875 64.59375 
z
" id="DejaVuSans-84"/>
     <path d="M 54.890625 33.015625 
L 54.890625 0 
L 45.90625 0 
L 45.90625 32.71875 
Q 45.90625 40.484375 42.875 44.328125 
Q 39.84375 48.1875 33.796875 48.1875 
Q 26.515625 48.1875 22.3125 43.546875 
Q 18.109375 38.921875 18.109375 30.90625 
L 18.109375 0 
L 9.078125 0 
L 9.078125 54.6875 
L 18.109375 54.6875 
L 18.109375 46.1875 
Q 21.34375 51.125 25.703125 53.5625 
Q 30.078125 56 35.796875 56 
Q 45.21875 56 50.046875 50.171875 
Q 54.890625 44.34375 54.890625 33.015625 
z
" id="DejaVuSans-110"/>
     <path d="M 45.40625 27.984375 
Q 45.40625 37.75 41.375 43.109375 
Q 37.359375 48.484375 30.078125 48.484375 
Q 22.859375 48.484375 18.828125 43.109375 
Q 14.796875 37.75 14.796875 27.984375 
Q 14.796875 18.265625 18.828125 12.890625 
Q 22.859375 7.515625 30.078125 7.515625 
Q 37.359375 7.515625 41.375 12.890625 
Q 45.40625 18.265625 45.40625 27.984375 
z
M 54.390625 6.78125 
Q 54.390625 -7.171875 48.1875 -13.984375 
Q 42 -20.796875 29.203125 -20.796875 
Q 24.46875 -20.796875 20.265625 -20.09375 
Q 16.0625 -19.390625 12.109375 -17.921875 
L 12.109375 -9.1875 
Q 16.0625 -11.328125 19.921875 -12.34375 
Q 23.78125 -13.375 27.78125 -13.375 
Q 36.625 -13.375 41.015625 -8.765625 
Q 45.40625 -4.15625 45.40625 5.171875 
L 45.40625 9.625 
Q 42.625 4.78125 38.28125 2.390625 
Q 33.9375 0 27.875 0 
Q 17.828125 0 11.671875 7.65625 
Q 5.515625 15.328125 5.515625 27.984375 
Q 5.515625 40.671875 11.671875 48.328125 
Q 17.828125 56 27.875 56 
Q 33.9375 56 38.28125 53.609375 
Q 42.625 51.21875 45.40625 46.390625 
L 45.40625 54.6875 
L 54.390625 54.6875 
z
" id="DejaVuSans-103"/>
     <path d="M 11.71875 12.40625 
L 22.015625 12.40625 
L 22.015625 0 
L 11.71875 0 
z
M 11.71875 51.703125 
L 22.015625 51.703125 
L 22.015625 39.3125 
L 11.71875 39.3125 
z
" id="DejaVuSans-58"/>
     <path d="M 9.8125 72.90625 
L 24.515625 72.90625 
L 43.109375 23.296875 
L 61.8125 72.90625 
L 76.515625 72.90625 
L 76.515625 0 
L 66.890625 0 
L 66.890625 64.015625 
L 48.09375 14.015625 
L 38.1875 14.015625 
L 19.390625 64.015625 
L 19.390625 0 
L 9.8125 0 
z
" id="DejaVuSans-77"/>
     <path d="M 34.1875 63.1875 
L 20.796875 26.90625 
L 47.609375 26.90625 
z
M 28.609375 72.90625 
L 39.796875 72.90625 
L 67.578125 0 
L 57.328125 0 
L 50.6875 18.703125 
L 17.828125 18.703125 
L 11.1875 0 
L 0.78125 0 
z
" id="DejaVuSans-65"/>
    </defs>
    <g transform="translate(179.083125 16.318125)scale(0.12 -0.12)">
     <use xlink:href="#DejaVuSans-84"/>
     <use x="46.333984" xlink:href="#DejaVuSans-114"/>
     <use x="87.447266" xlink:href="#DejaVuSans-97"/>
     <use x="148.726562" xlink:href="#DejaVuSans-105"/>
     <use x="176.509766" xlink:href="#DejaVuSans-110"/>
     <use x="239.888672" xlink:href="#DejaVuSans-105"/>
     <use x="267.671875" xlink:href="#DejaVuSans-110"/>
     <use x="331.050781" xlink:href="#DejaVuSans-103"/>
     <use x="394.527344" xlink:href="#DejaVuSans-58"/>
     <use x="428.21875" xlink:href="#DejaVuSans-32"/>
     <use x="460.005859" xlink:href="#DejaVuSans-77"/>
     <use x="546.285156" xlink:href="#DejaVuSans-65"/>
     <use x="606.943359" xlink:href="#DejaVuSans-84"/>
    </g>
   </g>
   <g id="legend_1">
    <g id="patch_7">
     <path d="M 47.603125 59.674375 
L 131.33125 59.674375 
Q 133.33125 59.674375 133.33125 57.674375 
L 133.33125 29.318125 
Q 133.33125 27.318125 131.33125 27.318125 
L 47.603125 27.318125 
Q 45.603125 27.318125 45.603125 29.318125 
L 45.603125 57.674375 
Q 45.603125 59.674375 47.603125 59.674375 
z
" style="fill:#ffffff;opacity:0.8;stroke:#cccccc;stroke-linejoin:miter;"/>
    </g>
    <g id="line2d_31">
     <path d="M 49.603125 35.416562 
L 69.603125 35.416562 
" style="fill:none;stroke:#1f77b4;stroke-linecap:square;stroke-width:1.5;"/>
    </g>
    <g id="line2d_32"/>
    <g id="text_18">
     <!-- Predicted -->
     <defs>
      <path d="M 45.40625 46.390625 
L 45.40625 75.984375 
L 54.390625 75.984375 
L 54.390625 0 
L 45.40625 0 
L 45.40625 8.203125 
Q 42.578125 3.328125 38.25 0.953125 
Q 33.9375 -1.421875 27.875 -1.421875 
Q 17.96875 -1.421875 11.734375 6.484375 
Q 5.515625 14.40625 5.515625 27.296875 
Q 5.515625 40.1875 11.734375 48.09375 
Q 17.96875 56 27.875 56 
Q 33.9375 56 38.25 53.625 
Q 42.578125 51.265625 45.40625 46.390625 
z
M 14.796875 27.296875 
Q 14.796875 17.390625 18.875 11.75 
Q 22.953125 6.109375 30.078125 6.109375 
Q 37.203125 6.109375 41.296875 11.75 
Q 45.40625 17.390625 45.40625 27.296875 
Q 45.40625 37.203125 41.296875 42.84375 
Q 37.203125 48.484375 30.078125 48.484375 
Q 22.953125 48.484375 18.875 42.84375 
Q 14.796875 37.203125 14.796875 27.296875 
z
" id="DejaVuSans-100"/>
      <path d="M 18.3125 70.21875 
L 18.3125 54.6875 
L 36.8125 54.6875 
L 36.8125 47.703125 
L 18.3125 47.703125 
L 18.3125 18.015625 
Q 18.3125 11.328125 20.140625 9.421875 
Q 21.96875 7.515625 27.59375 7.515625 
L 36.8125 7.515625 
L 36.8125 0 
L 27.59375 0 
Q 17.1875 0 13.234375 3.875 
Q 9.28125 7.765625 9.28125 18.015625 
L 9.28125 47.703125 
L 2.6875 47.703125 
L 2.6875 54.6875 
L 9.28125 54.6875 
L 9.28125 70.21875 
z
" id="DejaVuSans-116"/>
     </defs>
     <g transform="translate(77.603125 38.916562)scale(0.1 -0.1)">
      <use xlink:href="#DejaVuSans-80"/>
      <use x="58.552734" xlink:href="#DejaVuSans-114"/>
      <use x="97.416016" xlink:href="#DejaVuSans-101"/>
      <use x="158.939453" xlink:href="#DejaVuSans-100"/>
      <use x="222.416016" xlink:href="#DejaVuSans-105"/>
      <use x="250.199219" xlink:href="#DejaVuSans-99"/>
      <use x="305.179688" xlink:href="#DejaVuSans-116"/>
      <use x="344.388672" xlink:href="#DejaVuSans-101"/>
      <use x="405.912109" xlink:href="#DejaVuSans-100"/>
     </g>
    </g>
    <g id="line2d_33">
     <path d="M 49.603125 50.094687 
L 69.603125 50.094687 
" style="fill:none;stroke:#ff7f0e;stroke-linecap:square;stroke-width:1.5;"/>
    </g>
    <g id="line2d_34"/>
    <g id="text_19">
     <!-- True value -->
     <defs>
      <path d="M 8.5 21.578125 
L 8.5 54.6875 
L 17.484375 54.6875 
L 17.484375 21.921875 
Q 17.484375 14.15625 20.5 10.265625 
Q 23.53125 6.390625 29.59375 6.390625 
Q 36.859375 6.390625 41.078125 11.03125 
Q 45.3125 15.671875 45.3125 23.6875 
L 45.3125 54.6875 
L 54.296875 54.6875 
L 54.296875 0 
L 45.3125 0 
L 45.3125 8.40625 
Q 42.046875 3.421875 37.71875 1 
Q 33.40625 -1.421875 27.6875 -1.421875 
Q 18.265625 -1.421875 13.375 4.4375 
Q 8.5 10.296875 8.5 21.578125 
z
M 31.109375 56 
z
" id="DejaVuSans-117"/>
      <path d="M 2.984375 54.6875 
L 12.5 54.6875 
L 29.59375 8.796875 
L 46.6875 54.6875 
L 56.203125 54.6875 
L 35.6875 0 
L 23.484375 0 
z
" id="DejaVuSans-118"/>
      <path d="M 9.421875 75.984375 
L 18.40625 75.984375 
L 18.40625 0 
L 9.421875 0 
z
" id="DejaVuSans-108"/>
     </defs>
     <g transform="translate(77.603125 53.594687)scale(0.1 -0.1)">
      <use xlink:href="#DejaVuSans-84"/>
      <use x="46.333984" xlink:href="#DejaVuSans-114"/>
      <use x="87.447266" xlink:href="#DejaVuSans-117"/>
      <use x="150.826172" xlink:href="#DejaVuSans-101"/>
      <use x="212.349609" xlink:href="#DejaVuSans-32"/>
      <use x="244.136719" xlink:href="#DejaVuSans-118"/>
      <use x="303.316406" xlink:href="#DejaVuSans-97"/>
      <use x="364.595703" xlink:href="#DejaVuSans-108"/>
      <use x="392.378906" xlink:href="#DejaVuSans-117"/>
      <use x="455.757812" xlink:href="#DejaVuSans-101"/>
     </g>
    </g>
   </g>
  </g>
 </g>
 <defs>
  <clipPath id="p1f39dbba17">
   <rect height="266.112" width="357.12" x="40.603125" y="22.318125"/>
  </clipPath>
 </defs>
</svg>
