<?xml version="1.0" encoding="utf-8" standalone="no"?>
<!DOCTYPE svg PUBLIC "-//W3C//DTD SVG 1.1//EN"
  "http://www.w3.org/Graphics/SVG/1.1/DTD/svg11.dtd">
<!-- Created with matplotlib (https://matplotlib.org/) -->
<svg height="325.986375pt" version="1.1" viewBox="0 0 404.923125 325.986375" width="404.923125pt" xmlns="http://www.w3.org/2000/svg" xmlns:xlink="http://www.w3.org/1999/xlink">
 <defs>
  <style type="text/css">
*{stroke-linecap:butt;stroke-linejoin:round;}
  </style>
 </defs>
 <g id="figure_1">
  <g id="patch_1">
   <path d="M 0 325.986375 
L 404.923125 325.986375 
L 404.923125 0 
L 0 0 
z
" style="fill:#ffffff;"/>
  </g>
  <g id="axes_1">
   <g id="patch_2">
    <path d="M 40.603125 288.430125 
L 397.723125 288.430125 
L 397.723125 22.318125 
L 40.603125 22.318125 
z
" style="fill:#ffffff;"/>
   </g>
   <g id="matplotlib.axis_1">
    <g id="xtick_1">
     <g id="line2d_1">
      <path clip-path="url(#p478ad38a68)" d="M 56.835852 288.430125 
L 56.835852 22.318125 
" style="fill:none;stroke:#b0b0b0;stroke-dasharray:2.96,1.28;stroke-dashoffset:0;stroke-width:0.8;"/>
     </g>
     <g id="line2d_2">
      <defs>
       <path d="M 0 0 
L 0 3.5 
" id="me68c955926" style="stroke:#000000;stroke-width:0.8;"/>
      </defs>
      <g>
       <use style="stroke:#000000;stroke-width:0.8;" x="56.835852" xlink:href="#me68c955926" y="288.430125"/>
      </g>
     </g>
     <g id="text_1">
      <!-- 0 -->
      <defs>
       <path d="M 31.78125 66.40625 
Q 24.171875 66.40625 20.328125 58.90625 
Q 16.5 51.421875 16.5 36.375 
Q 16.5 21.390625 20.328125 13.890625 
Q 24.171875 6.390625 31.78125 6.390625 
Q 39.453125 6.390625 43.28125 13.890625 
Q 47.125 21.390625 47.125 36.375 
Q 47.125 51.421875 43.28125 58.90625 
Q 39.453125 66.40625 31.78125 66.40625 
z
M 31.78125 74.21875 
Q 44.046875 74.21875 50.515625 64.515625 
Q 56.984375 54.828125 56.984375 36.375 
Q 56.984375 17.96875 50.515625 8.265625 
Q 44.046875 -1.421875 31.78125 -1.421875 
Q 19.53125 -1.421875 13.0625 8.265625 
Q 6.59375 17.96875 6.59375 36.375 
Q 6.59375 54.828125 13.0625 64.515625 
Q 19.53125 74.21875 31.78125 74.21875 
z
" id="DejaVuSans-48"/>
      </defs>
      <g transform="translate(53.654602 303.028562)scale(0.1 -0.1)">
       <use xlink:href="#DejaVuSans-48"/>
      </g>
     </g>
    </g>
    <g id="xtick_2">
     <g id="line2d_3">
      <path clip-path="url(#p478ad38a68)" d="M 105.766454 288.430125 
L 105.766454 22.318125 
" style="fill:none;stroke:#b0b0b0;stroke-dasharray:2.96,1.28;stroke-dashoffset:0;stroke-width:0.8;"/>
     </g>
     <g id="line2d_4">
      <g>
       <use style="stroke:#000000;stroke-width:0.8;" x="105.766454" xlink:href="#me68c955926" y="288.430125"/>
      </g>
     </g>
     <g id="text_2">
      <!-- 200 -->
      <defs>
       <path d="M 19.1875 8.296875 
L 53.609375 8.296875 
L 53.609375 0 
L 7.328125 0 
L 7.328125 8.296875 
Q 12.9375 14.109375 22.625 23.890625 
Q 32.328125 33.6875 34.8125 36.53125 
Q 39.546875 41.84375 41.421875 45.53125 
Q 43.3125 49.21875 43.3125 52.78125 
Q 43.3125 58.59375 39.234375 62.25 
Q 35.15625 65.921875 28.609375 65.921875 
Q 23.96875 65.921875 18.8125 64.3125 
Q 13.671875 62.703125 7.8125 59.421875 
L 7.8125 69.390625 
Q 13.765625 71.78125 18.9375 73 
Q 24.125 74.21875 28.421875 74.21875 
Q 39.75 74.21875 46.484375 68.546875 
Q 53.21875 62.890625 53.21875 53.421875 
Q 53.21875 48.921875 51.53125 44.890625 
Q 49.859375 40.875 45.40625 35.40625 
Q 44.1875 33.984375 37.640625 27.21875 
Q 31.109375 20.453125 19.1875 8.296875 
z
" id="DejaVuSans-50"/>
      </defs>
      <g transform="translate(96.222704 303.028562)scale(0.1 -0.1)">
       <use xlink:href="#DejaVuSans-50"/>
       <use x="63.623047" xlink:href="#DejaVuSans-48"/>
       <use x="127.246094" xlink:href="#DejaVuSans-48"/>
      </g>
     </g>
    </g>
    <g id="xtick_3">
     <g id="line2d_5">
      <path clip-path="url(#p478ad38a68)" d="M 154.697057 288.430125 
L 154.697057 22.318125 
" style="fill:none;stroke:#b0b0b0;stroke-dasharray:2.96,1.28;stroke-dashoffset:0;stroke-width:0.8;"/>
     </g>
     <g id="line2d_6">
      <g>
       <use style="stroke:#000000;stroke-width:0.8;" x="154.697057" xlink:href="#me68c955926" y="288.430125"/>
      </g>
     </g>
     <g id="text_3">
      <!-- 400 -->
      <defs>
       <path d="M 37.796875 64.3125 
L 12.890625 25.390625 
L 37.796875 25.390625 
z
M 35.203125 72.90625 
L 47.609375 72.90625 
L 47.609375 25.390625 
L 58.015625 25.390625 
L 58.015625 17.1875 
L 47.609375 17.1875 
L 47.609375 0 
L 37.796875 0 
L 37.796875 17.1875 
L 4.890625 17.1875 
L 4.890625 26.703125 
z
" id="DejaVuSans-52"/>
      </defs>
      <g transform="translate(145.153307 303.028562)scale(0.1 -0.1)">
       <use xlink:href="#DejaVuSans-52"/>
       <use x="63.623047" xlink:href="#DejaVuSans-48"/>
       <use x="127.246094" xlink:href="#DejaVuSans-48"/>
      </g>
     </g>
    </g>
    <g id="xtick_4">
     <g id="line2d_7">
      <path clip-path="url(#p478ad38a68)" d="M 203.627659 288.430125 
L 203.627659 22.318125 
" style="fill:none;stroke:#b0b0b0;stroke-dasharray:2.96,1.28;stroke-dashoffset:0;stroke-width:0.8;"/>
     </g>
     <g id="line2d_8">
      <g>
       <use style="stroke:#000000;stroke-width:0.8;" x="203.627659" xlink:href="#me68c955926" y="288.430125"/>
      </g>
     </g>
     <g id="text_4">
      <!-- 600 -->
      <defs>
       <path d="M 33.015625 40.375 
Q 26.375 40.375 22.484375 35.828125 
Q 18.609375 31.296875 18.609375 23.390625 
Q 18.609375 15.53125 22.484375 10.953125 
Q 26.375 6.390625 33.015625 6.390625 
Q 39.65625 6.390625 43.53125 10.953125 
Q 47.40625 15.53125 47.40625 23.390625 
Q 47.40625 31.296875 43.53125 35.828125 
Q 39.65625 40.375 33.015625 40.375 
z
M 52.59375 71.296875 
L 52.59375 62.3125 
Q 48.875 64.0625 45.09375 64.984375 
Q 41.3125 65.921875 37.59375 65.921875 
Q 27.828125 65.921875 22.671875 59.328125 
Q 17.53125 52.734375 16.796875 39.40625 
Q 19.671875 43.65625 24.015625 45.921875 
Q 28.375 48.1875 33.59375 48.1875 
Q 44.578125 48.1875 50.953125 41.515625 
Q 57.328125 34.859375 57.328125 23.390625 
Q 57.328125 12.15625 50.6875 5.359375 
Q 44.046875 -1.421875 33.015625 -1.421875 
Q 20.359375 -1.421875 13.671875 8.265625 
Q 6.984375 17.96875 6.984375 36.375 
Q 6.984375 53.65625 15.1875 63.9375 
Q 23.390625 74.21875 37.203125 74.21875 
Q 40.921875 74.21875 44.703125 73.484375 
Q 48.484375 72.75 52.59375 71.296875 
z
" id="DejaVuSans-54"/>
      </defs>
      <g transform="translate(194.083909 303.028562)scale(0.1 -0.1)">
       <use xlink:href="#DejaVuSans-54"/>
       <use x="63.623047" xlink:href="#DejaVuSans-48"/>
       <use x="127.246094" xlink:href="#DejaVuSans-48"/>
      </g>
     </g>
    </g>
    <g id="xtick_5">
     <g id="line2d_9">
      <path clip-path="url(#p478ad38a68)" d="M 252.558261 288.430125 
L 252.558261 22.318125 
" style="fill:none;stroke:#b0b0b0;stroke-dasharray:2.96,1.28;stroke-dashoffset:0;stroke-width:0.8;"/>
     </g>
     <g id="line2d_10">
      <g>
       <use style="stroke:#000000;stroke-width:0.8;" x="252.558261" xlink:href="#me68c955926" y="288.430125"/>
      </g>
     </g>
     <g id="text_5">
      <!-- 800 -->
      <defs>
       <path d="M 31.78125 34.625 
Q 24.75 34.625 20.71875 30.859375 
Q 16.703125 27.09375 16.703125 20.515625 
Q 16.703125 13.921875 20.71875 10.15625 
Q 24.75 6.390625 31.78125 6.390625 
Q 38.8125 6.390625 42.859375 10.171875 
Q 46.921875 13.96875 46.921875 20.515625 
Q 46.921875 27.09375 42.890625 30.859375 
Q 38.875 34.625 31.78125 34.625 
z
M 21.921875 38.8125 
Q 15.578125 40.375 12.03125 44.71875 
Q 8.5 49.078125 8.5 55.328125 
Q 8.5 64.0625 14.71875 69.140625 
Q 20.953125 74.21875 31.78125 74.21875 
Q 42.671875 74.21875 48.875 69.140625 
Q 55.078125 64.0625 55.078125 55.328125 
Q 55.078125 49.078125 51.53125 44.71875 
Q 48 40.375 41.703125 38.8125 
Q 48.828125 37.15625 52.796875 32.3125 
Q 56.78125 27.484375 56.78125 20.515625 
Q 56.78125 9.90625 50.3125 4.234375 
Q 43.84375 -1.421875 31.78125 -1.421875 
Q 19.734375 -1.421875 13.25 4.234375 
Q 6.78125 9.90625 6.78125 20.515625 
Q 6.78125 27.484375 10.78125 32.3125 
Q 14.796875 37.15625 21.921875 38.8125 
z
M 18.3125 54.390625 
Q 18.3125 48.734375 21.84375 45.5625 
Q 25.390625 42.390625 31.78125 42.390625 
Q 38.140625 42.390625 41.71875 45.5625 
Q 45.3125 48.734375 45.3125 54.390625 
Q 45.3125 60.0625 41.71875 63.234375 
Q 38.140625 66.40625 31.78125 66.40625 
Q 25.390625 66.40625 21.84375 63.234375 
Q 18.3125 60.0625 18.3125 54.390625 
z
" id="DejaVuSans-56"/>
      </defs>
      <g transform="translate(243.014511 303.028562)scale(0.1 -0.1)">
       <use xlink:href="#DejaVuSans-56"/>
       <use x="63.623047" xlink:href="#DejaVuSans-48"/>
       <use x="127.246094" xlink:href="#DejaVuSans-48"/>
      </g>
     </g>
    </g>
    <g id="xtick_6">
     <g id="line2d_11">
      <path clip-path="url(#p478ad38a68)" d="M 301.488863 288.430125 
L 301.488863 22.318125 
" style="fill:none;stroke:#b0b0b0;stroke-dasharray:2.96,1.28;stroke-dashoffset:0;stroke-width:0.8;"/>
     </g>
     <g id="line2d_12">
      <g>
       <use style="stroke:#000000;stroke-width:0.8;" x="301.488863" xlink:href="#me68c955926" y="288.430125"/>
      </g>
     </g>
     <g id="text_6">
      <!-- 1000 -->
      <defs>
       <path d="M 12.40625 8.296875 
L 28.515625 8.296875 
L 28.515625 63.921875 
L 10.984375 60.40625 
L 10.984375 69.390625 
L 28.421875 72.90625 
L 38.28125 72.90625 
L 38.28125 8.296875 
L 54.390625 8.296875 
L 54.390625 0 
L 12.40625 0 
z
" id="DejaVuSans-49"/>
      </defs>
      <g transform="translate(288.763863 303.028562)scale(0.1 -0.1)">
       <use xlink:href="#DejaVuSans-49"/>
       <use x="63.623047" xlink:href="#DejaVuSans-48"/>
       <use x="127.246094" xlink:href="#DejaVuSans-48"/>
       <use x="190.869141" xlink:href="#DejaVuSans-48"/>
      </g>
     </g>
    </g>
    <g id="xtick_7">
     <g id="line2d_13">
      <path clip-path="url(#p478ad38a68)" d="M 350.419465 288.430125 
L 350.419465 22.318125 
" style="fill:none;stroke:#b0b0b0;stroke-dasharray:2.96,1.28;stroke-dashoffset:0;stroke-width:0.8;"/>
     </g>
     <g id="line2d_14">
      <g>
       <use style="stroke:#000000;stroke-width:0.8;" x="350.419465" xlink:href="#me68c955926" y="288.430125"/>
      </g>
     </g>
     <g id="text_7">
      <!-- 1200 -->
      <g transform="translate(337.694465 303.028562)scale(0.1 -0.1)">
       <use xlink:href="#DejaVuSans-49"/>
       <use x="63.623047" xlink:href="#DejaVuSans-50"/>
       <use x="127.246094" xlink:href="#DejaVuSans-48"/>
       <use x="190.869141" xlink:href="#DejaVuSans-48"/>
      </g>
     </g>
    </g>
    <g id="text_8">
     <!-- Day -->
     <defs>
      <path d="M 19.671875 64.796875 
L 19.671875 8.109375 
L 31.59375 8.109375 
Q 46.6875 8.109375 53.6875 14.9375 
Q 60.6875 21.78125 60.6875 36.53125 
Q 60.6875 51.171875 53.6875 57.984375 
Q 46.6875 64.796875 31.59375 64.796875 
z
M 9.8125 72.90625 
L 30.078125 72.90625 
Q 51.265625 72.90625 61.171875 64.09375 
Q 71.09375 55.28125 71.09375 36.53125 
Q 71.09375 17.671875 61.125 8.828125 
Q 51.171875 0 30.078125 0 
L 9.8125 0 
z
" id="DejaVuSans-68"/>
      <path d="M 34.28125 27.484375 
Q 23.390625 27.484375 19.1875 25 
Q 14.984375 22.515625 14.984375 16.5 
Q 14.984375 11.71875 18.140625 8.90625 
Q 21.296875 6.109375 26.703125 6.109375 
Q 34.1875 6.109375 38.703125 11.40625 
Q 43.21875 16.703125 43.21875 25.484375 
L 43.21875 27.484375 
z
M 52.203125 31.203125 
L 52.203125 0 
L 43.21875 0 
L 43.21875 8.296875 
Q 40.140625 3.328125 35.546875 0.953125 
Q 30.953125 -1.421875 24.3125 -1.421875 
Q 15.921875 -1.421875 10.953125 3.296875 
Q 6 8.015625 6 15.921875 
Q 6 25.140625 12.171875 29.828125 
Q 18.359375 34.515625 30.609375 34.515625 
L 43.21875 34.515625 
L 43.21875 35.40625 
Q 43.21875 41.609375 39.140625 45 
Q 35.0625 48.390625 27.6875 48.390625 
Q 23 48.390625 18.546875 47.265625 
Q 14.109375 46.140625 10.015625 43.890625 
L 10.015625 52.203125 
Q 14.9375 54.109375 19.578125 55.046875 
Q 24.21875 56 28.609375 56 
Q 40.484375 56 46.34375 49.84375 
Q 52.203125 43.703125 52.203125 31.203125 
z
" id="DejaVuSans-97"/>
      <path d="M 32.171875 -5.078125 
Q 28.375 -14.84375 24.75 -17.8125 
Q 21.140625 -20.796875 15.09375 -20.796875 
L 7.90625 -20.796875 
L 7.90625 -13.28125 
L 13.1875 -13.28125 
Q 16.890625 -13.28125 18.9375 -11.515625 
Q 21 -9.765625 23.484375 -3.21875 
L 25.09375 0.875 
L 2.984375 54.6875 
L 12.5 54.6875 
L 29.59375 11.921875 
L 46.6875 54.6875 
L 56.203125 54.6875 
z
" id="DejaVuSans-121"/>
     </defs>
     <g transform="translate(209.289688 316.706687)scale(0.1 -0.1)">
      <use xlink:href="#DejaVuSans-68"/>
      <use x="77.001953" xlink:href="#DejaVuSans-97"/>
      <use x="138.28125" xlink:href="#DejaVuSans-121"/>
     </g>
    </g>
   </g>
   <g id="matplotlib.axis_2">
    <g id="ytick_1">
     <g id="line2d_15">
      <path clip-path="url(#p478ad38a68)" d="M 40.603125 269.287695 
L 397.723125 269.287695 
" style="fill:none;stroke:#b0b0b0;stroke-dasharray:2.96,1.28;stroke-dashoffset:0;stroke-width:0.8;"/>
     </g>
     <g id="line2d_16">
      <defs>
       <path d="M 0 0 
L -3.5 0 
" id="m1829aa3b1e" style="stroke:#000000;stroke-width:0.8;"/>
      </defs>
      <g>
       <use style="stroke:#000000;stroke-width:0.8;" x="40.603125" xlink:href="#m1829aa3b1e" y="269.287695"/>
      </g>
     </g>
     <g id="text_9">
      <!-- 20 -->
      <g transform="translate(20.878125 273.086914)scale(0.1 -0.1)">
       <use xlink:href="#DejaVuSans-50"/>
       <use x="63.623047" xlink:href="#DejaVuSans-48"/>
      </g>
     </g>
    </g>
    <g id="ytick_2">
     <g id="line2d_17">
      <path clip-path="url(#p478ad38a68)" d="M 40.603125 226.050805 
L 397.723125 226.050805 
" style="fill:none;stroke:#b0b0b0;stroke-dasharray:2.96,1.28;stroke-dashoffset:0;stroke-width:0.8;"/>
     </g>
     <g id="line2d_18">
      <g>
       <use style="stroke:#000000;stroke-width:0.8;" x="40.603125" xlink:href="#m1829aa3b1e" y="226.050805"/>
      </g>
     </g>
     <g id="text_10">
      <!-- 25 -->
      <defs>
       <path d="M 10.796875 72.90625 
L 49.515625 72.90625 
L 49.515625 64.59375 
L 19.828125 64.59375 
L 19.828125 46.734375 
Q 21.96875 47.46875 24.109375 47.828125 
Q 26.265625 48.1875 28.421875 48.1875 
Q 40.625 48.1875 47.75 41.5 
Q 54.890625 34.8125 54.890625 23.390625 
Q 54.890625 11.625 47.5625 5.09375 
Q 40.234375 -1.421875 26.90625 -1.421875 
Q 22.3125 -1.421875 17.546875 -0.640625 
Q 12.796875 0.140625 7.71875 1.703125 
L 7.71875 11.625 
Q 12.109375 9.234375 16.796875 8.0625 
Q 21.484375 6.890625 26.703125 6.890625 
Q 35.15625 6.890625 40.078125 11.328125 
Q 45.015625 15.765625 45.015625 23.390625 
Q 45.015625 31 40.078125 35.4375 
Q 35.15625 39.890625 26.703125 39.890625 
Q 22.75 39.890625 18.8125 39.015625 
Q 14.890625 38.140625 10.796875 36.28125 
z
" id="DejaVuSans-53"/>
      </defs>
      <g transform="translate(20.878125 229.850024)scale(0.1 -0.1)">
       <use xlink:href="#DejaVuSans-50"/>
       <use x="63.623047" xlink:href="#DejaVuSans-53"/>
      </g>
     </g>
    </g>
    <g id="ytick_3">
     <g id="line2d_19">
      <path clip-path="url(#p478ad38a68)" d="M 40.603125 182.813916 
L 397.723125 182.813916 
" style="fill:none;stroke:#b0b0b0;stroke-dasharray:2.96,1.28;stroke-dashoffset:0;stroke-width:0.8;"/>
     </g>
     <g id="line2d_20">
      <g>
       <use style="stroke:#000000;stroke-width:0.8;" x="40.603125" xlink:href="#m1829aa3b1e" y="182.813916"/>
      </g>
     </g>
     <g id="text_11">
      <!-- 30 -->
      <defs>
       <path d="M 40.578125 39.3125 
Q 47.65625 37.796875 51.625 33 
Q 55.609375 28.21875 55.609375 21.1875 
Q 55.609375 10.40625 48.1875 4.484375 
Q 40.765625 -1.421875 27.09375 -1.421875 
Q 22.515625 -1.421875 17.65625 -0.515625 
Q 12.796875 0.390625 7.625 2.203125 
L 7.625 11.71875 
Q 11.71875 9.328125 16.59375 8.109375 
Q 21.484375 6.890625 26.8125 6.890625 
Q 36.078125 6.890625 40.9375 10.546875 
Q 45.796875 14.203125 45.796875 21.1875 
Q 45.796875 27.640625 41.28125 31.265625 
Q 36.765625 34.90625 28.71875 34.90625 
L 20.21875 34.90625 
L 20.21875 43.015625 
L 29.109375 43.015625 
Q 36.375 43.015625 40.234375 45.921875 
Q 44.09375 48.828125 44.09375 54.296875 
Q 44.09375 59.90625 40.109375 62.90625 
Q 36.140625 65.921875 28.71875 65.921875 
Q 24.65625 65.921875 20.015625 65.03125 
Q 15.375 64.15625 9.8125 62.3125 
L 9.8125 71.09375 
Q 15.4375 72.65625 20.34375 73.4375 
Q 25.25 74.21875 29.59375 74.21875 
Q 40.828125 74.21875 47.359375 69.109375 
Q 53.90625 64.015625 53.90625 55.328125 
Q 53.90625 49.265625 50.4375 45.09375 
Q 46.96875 40.921875 40.578125 39.3125 
z
" id="DejaVuSans-51"/>
      </defs>
      <g transform="translate(20.878125 186.613134)scale(0.1 -0.1)">
       <use xlink:href="#DejaVuSans-51"/>
       <use x="63.623047" xlink:href="#DejaVuSans-48"/>
      </g>
     </g>
    </g>
    <g id="ytick_4">
     <g id="line2d_21">
      <path clip-path="url(#p478ad38a68)" d="M 40.603125 139.577026 
L 397.723125 139.577026 
" style="fill:none;stroke:#b0b0b0;stroke-dasharray:2.96,1.28;stroke-dashoffset:0;stroke-width:0.8;"/>
     </g>
     <g id="line2d_22">
      <g>
       <use style="stroke:#000000;stroke-width:0.8;" x="40.603125" xlink:href="#m1829aa3b1e" y="139.577026"/>
      </g>
     </g>
     <g id="text_12">
      <!-- 35 -->
      <g transform="translate(20.878125 143.376245)scale(0.1 -0.1)">
       <use xlink:href="#DejaVuSans-51"/>
       <use x="63.623047" xlink:href="#DejaVuSans-53"/>
      </g>
     </g>
    </g>
    <g id="ytick_5">
     <g id="line2d_23">
      <path clip-path="url(#p478ad38a68)" d="M 40.603125 96.340136 
L 397.723125 96.340136 
" style="fill:none;stroke:#b0b0b0;stroke-dasharray:2.96,1.28;stroke-dashoffset:0;stroke-width:0.8;"/>
     </g>
     <g id="line2d_24">
      <g>
       <use style="stroke:#000000;stroke-width:0.8;" x="40.603125" xlink:href="#m1829aa3b1e" y="96.340136"/>
      </g>
     </g>
     <g id="text_13">
      <!-- 40 -->
      <g transform="translate(20.878125 100.139355)scale(0.1 -0.1)">
       <use xlink:href="#DejaVuSans-52"/>
       <use x="63.623047" xlink:href="#DejaVuSans-48"/>
      </g>
     </g>
    </g>
    <g id="ytick_6">
     <g id="line2d_25">
      <path clip-path="url(#p478ad38a68)" d="M 40.603125 53.103247 
L 397.723125 53.103247 
" style="fill:none;stroke:#b0b0b0;stroke-dasharray:2.96,1.28;stroke-dashoffset:0;stroke-width:0.8;"/>
     </g>
     <g id="line2d_26">
      <g>
       <use style="stroke:#000000;stroke-width:0.8;" x="40.603125" xlink:href="#m1829aa3b1e" y="53.103247"/>
      </g>
     </g>
     <g id="text_14">
      <!-- 45 -->
      <g transform="translate(20.878125 56.902466)scale(0.1 -0.1)">
       <use xlink:href="#DejaVuSans-52"/>
       <use x="63.623047" xlink:href="#DejaVuSans-53"/>
      </g>
     </g>
    </g>
    <g id="text_15">
     <!-- Price $ -->
     <defs>
      <path d="M 19.671875 64.796875 
L 19.671875 37.40625 
L 32.078125 37.40625 
Q 38.96875 37.40625 42.71875 40.96875 
Q 46.484375 44.53125 46.484375 51.125 
Q 46.484375 57.671875 42.71875 61.234375 
Q 38.96875 64.796875 32.078125 64.796875 
z
M 9.8125 72.90625 
L 32.078125 72.90625 
Q 44.34375 72.90625 50.609375 67.359375 
Q 56.890625 61.8125 56.890625 51.125 
Q 56.890625 40.328125 50.609375 34.8125 
Q 44.34375 29.296875 32.078125 29.296875 
L 19.671875 29.296875 
L 19.671875 0 
L 9.8125 0 
z
" id="DejaVuSans-80"/>
      <path d="M 41.109375 46.296875 
Q 39.59375 47.171875 37.8125 47.578125 
Q 36.03125 48 33.890625 48 
Q 26.265625 48 22.1875 43.046875 
Q 18.109375 38.09375 18.109375 28.8125 
L 18.109375 0 
L 9.078125 0 
L 9.078125 54.6875 
L 18.109375 54.6875 
L 18.109375 46.1875 
Q 20.953125 51.171875 25.484375 53.578125 
Q 30.03125 56 36.53125 56 
Q 37.453125 56 38.578125 55.875 
Q 39.703125 55.765625 41.0625 55.515625 
z
" id="DejaVuSans-114"/>
      <path d="M 9.421875 54.6875 
L 18.40625 54.6875 
L 18.40625 0 
L 9.421875 0 
z
M 9.421875 75.984375 
L 18.40625 75.984375 
L 18.40625 64.59375 
L 9.421875 64.59375 
z
" id="DejaVuSans-105"/>
      <path d="M 48.78125 52.59375 
L 48.78125 44.1875 
Q 44.96875 46.296875 41.140625 47.34375 
Q 37.3125 48.390625 33.40625 48.390625 
Q 24.65625 48.390625 19.8125 42.84375 
Q 14.984375 37.3125 14.984375 27.296875 
Q 14.984375 17.28125 19.8125 11.734375 
Q 24.65625 6.203125 33.40625 6.203125 
Q 37.3125 6.203125 41.140625 7.25 
Q 44.96875 8.296875 48.78125 10.40625 
L 48.78125 2.09375 
Q 45.015625 0.34375 40.984375 -0.53125 
Q 36.96875 -1.421875 32.421875 -1.421875 
Q 20.0625 -1.421875 12.78125 6.34375 
Q 5.515625 14.109375 5.515625 27.296875 
Q 5.515625 40.671875 12.859375 48.328125 
Q 20.21875 56 33.015625 56 
Q 37.15625 56 41.109375 55.140625 
Q 45.0625 54.296875 48.78125 52.59375 
z
" id="DejaVuSans-99"/>
      <path d="M 56.203125 29.59375 
L 56.203125 25.203125 
L 14.890625 25.203125 
Q 15.484375 15.921875 20.484375 11.0625 
Q 25.484375 6.203125 34.421875 6.203125 
Q 39.59375 6.203125 44.453125 7.46875 
Q 49.3125 8.734375 54.109375 11.28125 
L 54.109375 2.78125 
Q 49.265625 0.734375 44.1875 -0.34375 
Q 39.109375 -1.421875 33.890625 -1.421875 
Q 20.796875 -1.421875 13.15625 6.1875 
Q 5.515625 13.8125 5.515625 26.8125 
Q 5.515625 40.234375 12.765625 48.109375 
Q 20.015625 56 32.328125 56 
Q 43.359375 56 49.78125 48.890625 
Q 56.203125 41.796875 56.203125 29.59375 
z
M 47.21875 32.234375 
Q 47.125 39.59375 43.09375 43.984375 
Q 39.0625 48.390625 32.421875 48.390625 
Q 24.90625 48.390625 20.390625 44.140625 
Q 15.875 39.890625 15.1875 32.171875 
z
" id="DejaVuSans-101"/>
      <path id="DejaVuSans-32"/>
      <path d="M 33.796875 -14.703125 
L 28.90625 -14.703125 
L 28.859375 0 
Q 23.734375 0.09375 18.609375 1.1875 
Q 13.484375 2.296875 8.296875 4.5 
L 8.296875 13.28125 
Q 13.28125 10.15625 18.375 8.5625 
Q 23.484375 6.984375 28.90625 6.9375 
L 28.90625 29.203125 
Q 18.109375 30.953125 13.203125 35.15625 
Q 8.296875 39.359375 8.296875 46.6875 
Q 8.296875 54.640625 13.625 59.21875 
Q 18.953125 63.8125 28.90625 64.5 
L 28.90625 75.984375 
L 33.796875 75.984375 
L 33.796875 64.65625 
Q 38.328125 64.453125 42.578125 63.6875 
Q 46.828125 62.9375 50.875 61.625 
L 50.875 53.078125 
Q 46.828125 55.125 42.546875 56.25 
Q 38.28125 57.375 33.796875 57.5625 
L 33.796875 36.71875 
Q 44.875 35.015625 50.09375 30.609375 
Q 55.328125 26.21875 55.328125 18.609375 
Q 55.328125 10.359375 49.78125 5.59375 
Q 44.234375 0.828125 33.796875 0.09375 
z
M 28.90625 37.59375 
L 28.90625 57.625 
Q 23.25 56.984375 20.265625 54.390625 
Q 17.28125 51.8125 17.28125 47.515625 
Q 17.28125 43.3125 20.03125 40.96875 
Q 22.796875 38.625 28.90625 37.59375 
z
M 33.796875 28.21875 
L 33.796875 7.078125 
Q 39.984375 7.90625 43.140625 10.59375 
Q 46.296875 13.28125 46.296875 17.671875 
Q 46.296875 21.96875 43.28125 24.5 
Q 40.28125 27.046875 33.796875 28.21875 
z
" id="DejaVuSans-36"/>
     </defs>
     <g transform="translate(14.798438 172.342094)rotate(-90)scale(0.1 -0.1)">
      <use xlink:href="#DejaVuSans-80"/>
      <use x="58.552734" xlink:href="#DejaVuSans-114"/>
      <use x="99.666016" xlink:href="#DejaVuSans-105"/>
      <use x="127.449219" xlink:href="#DejaVuSans-99"/>
      <use x="182.429688" xlink:href="#DejaVuSans-101"/>
      <use x="243.953125" xlink:href="#DejaVuSans-32"/>
      <use x="275.740234" xlink:href="#DejaVuSans-36"/>
     </g>
    </g>
   </g>
   <g id="line2d_27">
    <path clip-path="url(#p478ad38a68)" d="M 56.835852 219.364182 
L 57.080505 216.068884 
L 57.325158 215.318031 
L 57.569811 215.172706 
L 57.814464 218.592861 
L 58.059117 213.442498 
L 58.548423 209.30926 
L 59.037729 207.719445 
L 59.282382 207.674253 
L 60.016341 215.712903 
L 60.260994 211.486872 
L 60.7503 217.340999 
L 60.994953 217.169747 
L 61.239606 218.363188 
L 61.484259 222.311302 
L 61.728912 223.143584 
L 61.973566 226.101572 
L 62.218219 223.32018 
L 62.707525 230.736182 
L 62.952178 223.820826 
L 63.441484 228.593041 
L 63.686137 224.210189 
L 63.93079 235.350702 
L 64.175443 238.377798 
L 64.420096 238.051836 
L 64.909402 239.713464 
L 65.154055 236.243515 
L 65.398708 239.06873 
L 65.643361 237.505734 
L 65.888014 240.226546 
L 66.132667 240.600405 
L 66.37732 242.446332 
L 66.621973 246.291114 
L 66.866626 246.605415 
L 67.111279 245.01311 
L 67.355932 240.948568 
L 67.600585 244.928597 
L 68.089891 240.19595 
L 68.334544 244.290263 
L 68.579197 245.223485 
L 68.82385 242.836388 
L 69.068503 244.915303 
L 69.313156 251.977237 
L 69.557809 251.99157 
L 69.802462 252.705659 
L 70.047115 254.794239 
L 70.536421 246.44264 
L 70.781074 256.043923 
L 71.025727 254.132583 
L 71.27038 256.512357 
L 71.759686 252.151789 
L 72.004339 254.068473 
L 72.248992 252.783426 
L 72.493645 250.567763 
L 72.738298 251.008026 
L 72.982951 248.214907 
L 73.227604 248.84191 
L 73.472257 251.798397 
L 73.71691 253.29913 
L 73.961563 258.757808 
L 74.206216 259.687517 
L 74.695522 262.322248 
L 75.184828 267.269658 
L 75.429481 267.657817 
L 75.674134 270.571307 
L 75.918787 270.953363 
L 76.16344 276.334125 
L 76.408093 274.918812 
L 76.897399 268.375254 
L 77.142052 266.188868 
L 77.386705 265.558203 
L 77.631358 274.033042 
L 77.876011 269.562758 
L 78.120664 269.732708 
L 78.365317 267.686368 
L 78.60997 267.478499 
L 79.099276 263.823492 
L 79.343929 266.178081 
L 79.833235 259.1524 
L 80.077888 260.144438 
L 80.567194 257.033438 
L 80.811847 254.809776 
L 81.0565 254.832537 
L 81.301153 256.091837 
L 81.790459 261.116915 
L 82.035112 259.79616 
L 82.279765 260.734066 
L 82.524418 262.912553 
L 82.769071 260.315988 
L 83.013724 253.095616 
L 83.258377 255.491471 
L 83.50303 256.169423 
L 83.747683 254.564781 
L 83.992336 256.967629 
L 84.236989 253.373929 
L 84.726296 249.310376 
L 84.970949 248.927016 
L 85.215602 250.78058 
L 85.704908 243.846702 
L 85.949561 259.305889 
L 86.194214 257.791169 
L 86.438867 258.559324 
L 86.68352 259.73195 
L 86.928173 257.051515 
L 87.172826 256.006549 
L 87.417479 255.687514 
L 87.662132 254.048598 
L 87.906785 257.552177 
L 88.151438 254.707499 
L 88.396091 257.367532 
L 88.640744 255.656308 
L 89.13005 259.90345 
L 89.374703 257.001919 
L 89.619356 256.473036 
L 90.108662 254.717132 
L 90.353315 257.141257 
L 90.597968 257.682658 
L 90.842621 257.62884 
L 91.087274 259.912126 
L 91.331927 263.270034 
L 91.57658 262.692116 
L 91.821233 264.249653 
L 92.065886 259.78473 
L 92.310539 257.972334 
L 92.555192 258.879134 
L 93.044498 254.784607 
L 93.533804 250.474855 
L 93.778457 248.99558 
L 94.02311 251.846559 
L 94.267763 251.687676 
L 94.512416 253.146301 
L 94.757069 252.403893 
L 95.001722 252.9336 
L 95.246375 255.123434 
L 95.735681 257.075414 
L 95.980334 255.058054 
L 96.224987 257.991022 
L 96.46964 255.027442 
L 96.714293 256.857122 
L 96.958946 251.875653 
L 97.203599 251.093611 
L 97.448252 249.856396 
L 97.692905 254.223545 
L 97.937558 252.587648 
L 98.182211 256.331373 
L 98.426864 255.249577 
L 98.671517 258.714413 
L 98.91617 256.685259 
L 99.405476 247.521171 
L 99.650129 252.734011 
L 99.894782 253.363967 
L 100.139435 255.378985 
L 100.384088 251.127324 
L 100.628741 250.408023 
L 100.873394 246.571702 
L 101.118047 244.950022 
L 101.852006 234.572799 
L 102.096659 237.105468 
L 102.341312 235.981135 
L 102.585965 233.118759 
L 102.830618 232.518245 
L 103.075271 231.164734 
L 103.319924 230.776096 
L 103.564577 231.697575 
L 103.80923 231.79337 
L 104.053883 229.929844 
L 104.298536 229.586861 
L 104.787842 226.560275 
L 105.032495 230.543619 
L 105.277148 232.2812 
L 105.521801 230.294517 
L 105.766454 231.76439 
L 106.011107 229.868637 
L 106.500413 229.157863 
L 107.234373 233.915827 
L 107.723679 229.315014 
L 107.968332 229.914489 
L 108.212985 227.891025 
L 108.457638 219.936773 
L 108.702291 219.255836 
L 108.946944 223.767684 
L 109.43625 227.697407 
L 109.680903 223.117656 
L 110.170209 226.198456 
L 110.414862 223.906246 
L 110.659515 224.671218 
L 111.148821 218.879849 
L 111.393474 222.219796 
L 111.638127 229.189465 
L 111.88278 228.274715 
L 112.127433 233.749803 
L 112.372086 232.078956 
L 112.616739 229.526791 
L 112.861392 228.706698 
L 113.106045 229.520095 
L 113.350698 230.793942 
L 113.595351 233.615034 
L 113.840004 233.546339 
L 114.084657 230.130785 
L 114.32931 238.495661 
L 114.573963 238.55301 
L 114.818616 238.919216 
L 115.063269 231.624492 
L 115.307922 233.61068 
L 115.552575 232.69918 
L 115.797228 229.621464 
L 116.041881 230.857112 
L 116.286534 239.025831 
L 116.77584 242.293173 
L 117.020493 243.069772 
L 117.265146 241.192557 
L 117.509799 240.973242 
L 117.754452 240.004988 
L 117.999105 239.674654 
L 118.243758 237.501941 
L 118.488411 237.580302 
L 118.733064 238.570427 
L 118.977717 238.252118 
L 119.22237 241.531071 
L 119.711676 243.679688 
L 119.956329 245.427527 
L 120.200982 245.077765 
L 120.445635 242.925635 
L 120.690288 245.69911 
L 120.934941 243.949374 
L 121.179594 249.196868 
L 121.424247 249.433319 
L 121.913553 242.713148 
L 122.158206 246.646385 
L 122.402859 245.696125 
L 122.647512 243.68076 
L 123.136818 248.610455 
L 123.381471 246.178776 
L 123.870777 248.622149 
L 124.11543 247.407481 
L 124.360083 242.555058 
L 124.604736 244.34291 
L 124.849389 242.857896 
L 125.094042 240.243138 
L 125.338695 238.858883 
L 125.583348 242.057084 
L 125.828001 243.54068 
L 126.072654 236.946833 
L 126.317307 236.32275 
L 126.56196 232.938089 
L 127.051266 231.744829 
L 127.295919 234.67336 
L 127.540572 235.220435 
L 128.029878 233.370039 
L 128.519184 240.454536 
L 128.763837 242.500777 
L 129.00849 242.560748 
L 129.253143 241.87577 
L 129.497797 244.565607 
L 129.74245 241.938231 
L 129.987103 241.41776 
L 130.231756 244.917893 
L 130.476409 242.617832 
L 130.721062 238.113819 
L 130.965715 238.23569 
L 131.210368 236.538057 
L 131.455021 237.628512 
L 131.944327 232.621396 
L 132.18898 233.522505 
L 132.433633 230.581653 
L 132.678286 231.631617 
L 132.922939 234.653849 
L 133.167592 232.47749 
L 133.412245 228.310259 
L 133.656898 228.037076 
L 133.901551 226.344787 
L 134.146204 227.475321 
L 134.390857 227.866813 
L 134.880163 230.855018 
L 135.124816 233.927291 
L 135.369469 230.671444 
L 135.614122 231.840739 
L 136.103428 230.06971 
L 136.592734 227.129534 
L 136.837387 228.987913 
L 137.326693 225.450225 
L 137.571346 223.881357 
L 137.815999 226.247392 
L 138.060652 222.141435 
L 138.305305 233.3023 
L 138.549958 233.938424 
L 138.794611 235.520866 
L 139.039264 234.726833 
L 139.283917 234.694736 
L 139.52857 235.071663 
L 139.773223 236.5435 
L 140.017876 233.650974 
L 140.507182 222.052485 
L 140.751835 222.074966 
L 141.241141 227.371 
L 141.485794 225.653591 
L 141.730447 228.996836 
L 142.464406 222.32608 
L 142.709059 222.841685 
L 142.953712 223.02704 
L 143.443018 217.639203 
L 143.687671 215.752949 
L 143.932324 217.561634 
L 144.176977 215.315771 
L 144.42163 214.142468 
L 144.666283 217.73414 
L 144.910936 217.336876 
L 145.155589 219.305515 
L 145.400242 217.995497 
L 145.889548 220.538392 
L 146.134201 217.262424 
L 146.378854 218.113294 
L 146.623507 210.226286 
L 146.86816 207.151308 
L 147.112813 210.672964 
L 147.357466 219.555805 
L 147.602119 220.163856 
L 148.336078 226.771244 
L 148.580731 226.857225 
L 148.825384 223.936693 
L 149.070037 226.538866 
L 149.31469 224.817812 
L 149.803996 233.376422 
L 150.048649 233.913353 
L 150.293302 235.821824 
L 150.537955 231.272058 
L 150.782608 228.853986 
L 151.027261 228.144498 
L 151.271914 226.380528 
L 151.76122 225.174684 
L 152.005874 224.943988 
L 152.250527 224.352859 
L 152.49518 227.31154 
L 152.739833 225.122976 
L 152.984486 227.330673 
L 153.229139 224.963813 
L 153.473792 226.458823 
L 153.718445 224.053088 
L 153.963098 225.68351 
L 154.207751 224.833811 
L 154.452404 228.24727 
L 154.697057 225.408051 
L 154.94171 226.725788 
L 155.675669 223.74672 
L 155.920322 225.817718 
L 156.164975 225.148921 
L 156.654281 227.720845 
L 157.632893 219.677214 
L 157.877546 221.508016 
L 158.122199 222.069704 
L 158.366852 219.566393 
L 158.611505 219.279785 
L 158.856158 220.361218 
L 159.345464 214.957993 
L 159.590117 214.365973 
L 159.83477 216.73148 
L 160.079423 211.531784 
L 160.324076 213.102615 
L 160.813382 207.140257 
L 161.058035 205.885922 
L 161.547341 212.014765 
L 162.2813 205.425207 
L 162.525953 204.600413 
L 163.015259 207.847947 
L 163.259912 209.055391 
L 163.504565 207.848128 
L 163.749218 212.034327 
L 163.993871 211.476036 
L 164.238524 209.351484 
L 164.483177 209.33339 
L 164.72783 211.477751 
L 164.972483 211.183836 
L 165.217136 214.811315 
L 165.706442 210.720021 
L 165.951095 212.080641 
L 166.195748 212.257732 
L 166.685054 209.218298 
L 167.419013 216.08094 
L 167.908319 213.289553 
L 168.152972 212.002494 
L 168.397625 213.63285 
L 168.642278 211.723489 
L 169.131584 206.704497 
L 169.376237 205.886664 
L 169.62089 203.188548 
L 169.865543 203.930461 
L 170.110196 201.242538 
L 170.354849 202.026362 
L 170.599502 200.673807 
L 170.844155 196.285199 
L 171.088808 198.48206 
L 171.333461 195.722422 
L 171.578114 198.492896 
L 171.822767 197.608445 
L 172.06742 178.597369 
L 172.312073 179.137368 
L 172.556726 181.169788 
L 172.801379 182.179656 
L 173.290685 178.304773 
L 173.535338 178.00586 
L 174.024644 172.729453 
L 174.269298 174.192169 
L 174.513951 171.850973 
L 174.758604 173.424245 
L 175.003257 171.139738 
L 175.24791 170.497957 
L 175.492563 168.647379 
L 175.981869 173.199256 
L 176.471175 170.144054 
L 176.715828 169.906926 
L 176.960481 166.66731 
L 177.205134 166.002042 
L 177.449787 140.854848 
L 177.69444 148.123562 
L 177.939093 148.004809 
L 178.183746 145.625084 
L 178.428399 139.625022 
L 178.673052 142.618637 
L 178.917705 144.055689 
L 179.162358 143.794299 
L 179.407011 145.154886 
L 179.651664 144.856814 
L 179.896317 142.213093 
L 180.14097 146.794808 
L 180.385623 148.171163 
L 180.630276 145.924047 
L 180.874929 155.495361 
L 181.119582 155.230672 
L 181.608888 157.021247 
L 181.853541 153.030167 
L 182.098194 152.439499 
L 182.342847 145.477335 
L 182.5875 146.800811 
L 183.076806 141.624042 
L 183.321459 142.832031 
L 183.566112 141.540849 
L 183.810765 136.547356 
L 184.544724 139.440855 
L 184.789377 139.679154 
L 185.03403 141.382181 
L 185.278683 138.268559 
L 185.523336 141.482165 
L 186.257295 136.18905 
L 186.501948 133.532563 
L 186.746601 137.063737 
L 186.991254 136.220256 
L 187.235907 136.791461 
L 187.48056 140.133585 
L 187.725213 140.736491 
L 187.969866 137.946835 
L 188.214519 136.477984 
L 188.459172 134.231198 
L 188.703825 138.026235 
L 188.948478 139.001434 
L 189.193131 141.700638 
L 189.437784 139.156242 
L 189.682437 143.886003 
L 189.92709 142.794162 
L 190.171743 141.133491 
L 190.416396 138.381935 
L 190.905702 147.890706 
L 191.395008 141.99617 
L 191.639661 147.909113 
L 191.884314 143.584731 
L 192.128967 147.408401 
L 192.37362 165.44926 
L 192.618273 165.466644 
L 192.862926 159.199684 
L 193.107579 173.364604 
L 193.352232 173.056207 
L 193.596885 167.850509 
L 193.841538 166.701831 
L 194.086191 158.90082 
L 194.330844 160.416546 
L 194.575497 154.668143 
L 194.82015 151.733311 
L 195.064803 152.055529 
L 195.309456 147.40563 
L 195.554109 145.686341 
L 195.798762 156.912257 
L 196.043415 145.587215 
L 196.532721 140.353873 
L 196.777375 147.961002 
L 197.022028 146.579765 
L 197.511334 152.149312 
L 197.755987 150.779323 
L 198.00064 150.416893 
L 198.489946 145.856489 
L 198.734599 143.542211 
L 198.979252 139.22822 
L 199.223905 141.634466 
L 199.468558 132.2682 
L 199.713211 131.737668 
L 199.957864 125.815291 
L 200.202517 124.260904 
L 200.691823 115.972954 
L 200.936476 118.273245 
L 201.181129 114.556619 
L 201.425782 115.655255 
L 201.670435 115.693916 
L 201.915088 112.616679 
L 202.404394 122.402145 
L 202.649047 124.498774 
L 202.8937 121.056831 
L 203.138353 125.564424 
L 203.383006 127.051021 
L 203.627659 129.95445 
L 203.872312 126.764099 
L 204.116965 119.236766 
L 204.361618 125.83858 
L 204.850924 114.059305 
L 205.095577 113.837961 
L 205.34023 112.439967 
L 206.074189 124.801563 
L 206.318842 122.384662 
L 206.808148 132.000608 
L 207.297454 121.01154 
L 207.542107 120.407348 
L 207.78676 123.39519 
L 208.031413 122.52809 
L 208.276066 125.387448 
L 208.520719 125.811992 
L 208.765372 125.049494 
L 209.010025 128.722908 
L 209.254678 125.941664 
L 209.499331 121.544777 
L 209.743984 124.322458 
L 209.988637 130.163621 
L 210.23329 146.616512 
L 210.477943 145.949776 
L 210.722596 144.072149 
L 210.967249 153.128963 
L 211.211902 149.577965 
L 211.456555 148.513668 
L 211.701208 149.410984 
L 211.945861 146.189989 
L 212.435167 154.969975 
L 212.67982 148.546094 
L 212.924473 149.749498 
L 213.169126 144.108039 
L 213.658432 139.289378 
L 213.903085 143.177637 
L 214.147738 144.174871 
L 214.392391 142.459639 
L 214.637044 147.001736 
L 214.881697 143.281514 
L 215.371003 150.131522 
L 215.615656 152.254507 
L 215.860309 146.85204 
L 216.104962 144.195323 
L 216.349615 144.34525 
L 216.594268 147.037296 
L 217.083574 156.154972 
L 217.328227 164.811982 
L 217.57288 158.039592 
L 217.817533 173.870379 
L 218.062186 172.627573 
L 218.306839 173.366468 
L 218.551492 175.988928 
L 218.796145 172.734484 
L 219.040798 173.645292 
L 219.285452 167.242638 
L 219.530105 168.002926 
L 219.774758 172.116685 
L 220.019411 179.329832 
L 220.264064 180.05766 
L 220.508717 165.55952 
L 220.75337 168.661976 
L 220.998023 169.607519 
L 221.242676 173.26396 
L 221.487329 172.207333 
L 222.221288 167.236519 
L 222.465941 171.687637 
L 222.710594 164.738519 
L 222.955247 165.414426 
L 223.1999 166.929046 
L 223.444553 155.116405 
L 223.689206 154.154764 
L 223.933859 159.828451 
L 224.178512 155.967605 
L 224.423165 158.607796 
L 224.667818 157.244306 
L 224.912471 162.345039 
L 225.157124 162.186503 
L 225.64643 154.743353 
L 226.135736 159.291652 
L 226.380389 152.035836 
L 226.625042 150.635631 
L 226.869695 157.815709 
L 227.114348 160.828588 
L 227.359001 159.70729 
L 227.603654 154.703142 
L 227.848307 157.600929 
L 228.09296 161.929434 
L 228.582266 153.410179 
L 228.826919 152.882615 
L 229.071572 150.556231 
L 229.316225 153.333385 
L 229.560878 151.001096 
L 229.805531 150.017353 
L 230.050184 151.22267 
L 230.294837 154.556217 
L 231.028796 140.643467 
L 232.007408 160.605628 
L 232.496714 168.32648 
L 232.741367 169.225495 
L 232.98602 163.450999 
L 233.230673 161.770799 
L 233.475326 168.24195 
L 233.719979 167.365235 
L 233.964632 165.288118 
L 234.453938 158.219768 
L 234.698591 161.309112 
L 234.943244 159.121108 
L 235.43255 163.054131 
L 235.677203 161.373403 
L 235.921856 171.276882 
L 236.166509 175.674346 
L 236.411162 174.905301 
L 236.655815 177.585571 
L 236.900468 174.168814 
L 237.389774 183.185928 
L 237.87908 188.08229 
L 238.123733 185.734415 
L 238.368386 181.717704 
L 238.613039 183.917583 
L 239.102345 178.919653 
L 239.346998 184.057217 
L 239.591651 186.135753 
L 240.080957 192.949607 
L 240.32561 193.278884 
L 240.570263 196.484145 
L 240.814916 194.754349 
L 241.059569 188.427748 
L 241.304222 188.043217 
L 241.548875 189.069463 
L 242.038182 185.961399 
L 242.282835 186.32754 
L 242.527488 186.995018 
L 242.772141 188.542213 
L 243.016794 190.962759 
L 243.261447 184.875991 
L 243.5061 188.930142 
L 243.750753 186.396763 
L 243.995406 189.430853 
L 244.240059 188.210973 
L 244.484712 188.056807 
L 244.729365 190.251557 
L 245.218671 200.600889 
L 245.707977 214.445076 
L 245.95263 212.220094 
L 246.197283 203.492623 
L 246.931242 192.09877 
L 247.175895 199.971264 
L 247.665201 186.716986 
L 247.909854 192.990511 
L 248.154507 184.34884 
L 248.39916 185.255771 
L 248.643813 185.334264 
L 248.888466 184.464905 
L 249.133119 186.363677 
L 249.377772 181.720244 
L 249.622425 181.984207 
L 249.867078 183.06475 
L 250.111731 189.346571 
L 250.356384 187.466767 
L 250.601037 192.606656 
L 250.84569 189.717528 
L 251.090343 194.585472 
L 251.334996 188.635732 
L 251.579649 190.388684 
L 251.824302 186.626964 
L 252.068955 178.464431 
L 252.313608 180.869935 
L 252.558261 178.050327 
L 253.047567 165.820184 
L 253.29222 160.204142 
L 253.536873 158.394336 
L 253.781526 162.033905 
L 254.026179 160.496078 
L 254.270832 162.796336 
L 255.004791 155.055741 
L 255.249444 150.795949 
L 255.494097 151.83214 
L 255.73875 150.271288 
L 256.228056 137.824321 
L 256.717362 142.475539 
L 256.962015 140.677807 
L 257.206668 147.060519 
L 257.451321 146.884434 
L 257.940627 142.838991 
L 258.18528 145.459126 
L 258.429933 146.781778 
L 258.674586 148.918486 
L 258.919239 152.562244 
L 259.408545 155.862442 
L 259.897851 162.555926 
L 260.142504 163.541515 
L 261.121116 138.76772 
L 261.365769 140.783926 
L 261.610422 144.234347 
L 262.099728 139.773563 
L 262.589034 134.845583 
L 262.833687 137.224384 
L 263.07834 142.97945 
L 263.322993 138.629174 
L 263.567646 136.947325 
L 263.812299 140.514091 
L 264.056952 137.765406 
L 264.301606 138.841743 
L 264.546259 143.779091 
L 264.790912 142.223254 
L 265.035565 135.371464 
L 265.280218 133.959648 
L 265.524871 137.490623 
L 265.769524 144.865358 
L 266.014177 142.566023 
L 266.503483 135.318025 
L 266.748136 136.230449 
L 266.992789 138.250383 
L 267.237442 133.529001 
L 267.726748 140.785213 
L 267.971401 147.918481 
L 268.216054 148.65957 
L 268.70536 163.870067 
L 268.950013 165.468426 
L 269.194666 161.299842 
L 269.439319 154.484602 
L 269.683972 162.018797 
L 269.928625 156.576778 
L 270.173278 186.53554 
L 270.417931 181.34871 
L 270.662584 184.41135 
L 270.907237 181.679571 
L 271.15189 177.205988 
L 271.396543 180.665546 
L 271.641196 179.11238 
L 271.885849 180.879979 
L 272.130502 178.843107 
L 272.375155 171.718579 
L 272.619808 173.689181 
L 273.109114 187.095431 
L 273.353767 184.02103 
L 273.843073 191.525734 
L 274.087726 192.621484 
L 274.577032 197.309252 
L 274.821685 192.139905 
L 275.066338 190.002042 
L 275.310991 185.008731 
L 275.555644 185.208319 
L 275.800297 190.793024 
L 276.04495 184.792748 
L 276.289603 189.542399 
L 276.534256 188.223706 
L 277.023562 179.809003 
L 277.268215 180.017118 
L 277.512868 182.390988 
L 277.757521 176.510686 
L 278.002174 175.052523 
L 278.246827 171.59082 
L 278.49148 173.578658 
L 278.736133 171.363275 
L 278.980786 175.238191 
L 279.714745 163.769588 
L 279.959398 167.65031 
L 280.204051 166.357429 
L 280.448704 166.107551 
L 280.93801 157.192813 
L 281.182663 161.683812 
L 281.427316 161.982676 
L 281.671969 162.94016 
L 281.916622 165.269381 
L 282.161275 164.234542 
L 282.650581 157.181531 
L 282.895234 160.585935 
L 283.139887 158.792556 
L 283.38454 163.10691 
L 283.629193 164.023424 
L 283.873846 161.919109 
L 284.118499 166.535856 
L 284.607805 162.037962 
L 284.852458 162.376707 
L 285.097111 160.579667 
L 285.341764 165.620381 
L 285.586417 167.568535 
L 285.83107 166.277996 
L 286.075723 167.112488 
L 286.320376 163.144284 
L 286.56503 163.818179 
L 287.054336 170.435677 
L 287.543642 165.635093 
L 288.032948 177.396357 
L 288.277601 173.88458 
L 288.766907 181.63009 
L 289.01156 180.050848 
L 289.256213 179.456535 
L 289.500866 181.490142 
L 289.745519 177.872163 
L 289.990172 179.206311 
L 290.234825 181.560108 
L 290.479478 179.257029 
L 290.724131 175.771955 
L 290.968784 179.290824 
L 291.213437 178.939149 
L 291.45809 183.208227 
L 291.702743 178.704857 
L 291.947396 176.575258 
L 292.436702 166.920783 
L 292.681355 165.371905 
L 292.926008 164.771408 
L 293.170661 165.306921 
L 293.415314 164.435698 
L 293.659967 164.316449 
L 293.90462 166.364983 
L 294.149273 165.214161 
L 294.393926 163.072142 
L 294.638579 162.791718 
L 294.883232 162.8125 
L 295.127885 162.533363 
L 295.372538 160.031817 
L 296.106497 165.906858 
L 296.35115 164.59872 
L 296.595803 159.674467 
L 296.840456 158.811359 
L 297.085109 159.898219 
L 297.329762 153.733815 
L 297.574415 167.634212 
L 297.819068 172.853155 
L 298.063721 169.304004 
L 298.553027 156.549828 
L 299.042333 158.961582 
L 299.531639 151.688646 
L 299.776292 144.891417 
L 300.020945 141.791947 
L 300.265598 137.268719 
L 300.754904 133.917721 
L 300.999557 136.183706 
L 301.24421 136.737164 
L 301.488863 136.565532 
L 301.733516 131.662886 
L 301.978169 146.653359 
L 302.222822 140.347869 
L 302.467475 138.767984 
L 302.712128 135.113703 
L 302.956781 137.811423 
L 303.201434 139.264308 
L 303.446087 138.16996 
L 303.69074 139.15743 
L 303.935393 141.054355 
L 304.180046 145.030821 
L 304.424699 141.778752 
L 304.669352 135.697047 
L 304.914005 135.330098 
L 305.158658 137.223625 
L 305.403311 140.051744 
L 305.647964 138.721274 
L 305.892617 140.674607 
L 306.13727 136.914404 
L 306.381923 134.895955 
L 306.626576 137.292173 
L 306.871229 138.037682 
L 307.115882 136.455289 
L 307.605188 131.893763 
L 307.849841 135.456571 
L 308.094494 136.776254 
L 308.828453 129.955769 
L 309.31776 127.789537 
L 309.562413 125.728897 
L 309.807066 121.929341 
L 310.296372 125.069979 
L 310.541025 132.409022 
L 310.785678 129.960651 
L 311.030331 133.55008 
L 311.274984 131.601002 
L 311.519637 124.452559 
L 311.76429 112.532726 
L 312.008943 116.070563 
L 312.253596 117.338456 
L 312.498249 116.264395 
L 312.742902 113.293541 
L 313.232208 122.540889 
L 313.721514 114.881443 
L 313.966167 117.225475 
L 314.21082 112.498947 
L 314.700126 115.109615 
L 314.944779 110.481158 
L 315.189432 110.190244 
L 315.434085 109.64909 
L 315.678738 110.503457 
L 315.923391 117.164746 
L 316.412697 122.652584 
L 316.65735 116.585459 
L 316.902003 116.810728 
L 317.146656 111.218816 
L 317.391309 134.240269 
L 317.635962 133.415822 
L 317.880615 137.274195 
L 318.125268 134.002069 
L 318.614574 138.490265 
L 318.859227 138.509991 
L 319.10388 139.030792 
L 319.348533 135.979549 
L 319.593186 139.962184 
L 319.837839 138.467438 
L 320.327145 149.370971 
L 320.571798 139.460746 
L 320.816451 138.086404 
L 321.061104 141.299482 
L 321.305757 141.985911 
L 321.55041 139.096338 
L 321.795063 141.410319 
L 322.039716 136.632562 
L 322.284369 138.712301 
L 322.529022 137.134494 
L 322.773675 138.883307 
L 323.018328 136.491344 
L 323.262981 132.281164 
L 323.507634 135.070984 
L 323.99694 132.037884 
L 324.241593 133.691166 
L 324.730899 144.852328 
L 324.975552 144.221878 
L 325.464858 139.090268 
L 325.954164 131.03458 
L 326.44347 127.118249 
L 326.688123 121.130657 
L 326.932776 123.326775 
L 327.177429 119.629181 
L 327.422082 125.295479 
L 327.911388 117.836529 
L 328.156041 119.854121 
L 328.400694 119.85897 
L 328.645347 119.388276 
L 328.89 117.569564 
L 329.134653 121.503444 
L 329.379306 121.411344 
L 329.623959 125.094588 
L 329.868612 121.011969 
L 330.113265 123.65978 
L 330.357918 124.68436 
L 330.847224 121.412202 
L 331.091877 123.071091 
L 331.33653 120.147706 
L 331.581184 123.369493 
L 331.825837 121.356256 
L 332.07049 120.904629 
L 332.315143 121.550649 
L 332.559796 123.766196 
L 332.804449 120.31317 
L 333.049102 121.609861 
L 333.293755 115.221771 
L 333.538408 111.987977 
L 333.783061 114.747977 
L 334.027714 108.520106 
L 334.51702 121.205372 
L 334.761673 124.526418 
L 335.006326 123.751979 
L 335.250979 124.145218 
L 335.495632 126.565253 
L 335.984938 123.436556 
L 336.229591 131.361681 
L 336.474244 134.223182 
L 336.718897 129.934327 
L 337.208203 126.586959 
L 337.452856 123.034245 
L 337.697509 123.016267 
L 337.942162 121.906613 
L 338.186815 127.089583 
L 338.431468 125.756442 
L 338.676121 123.565799 
L 338.920774 124.438375 
L 339.165427 126.87012 
L 339.41008 130.65569 
L 339.899386 130.261791 
L 340.144039 133.264081 
L 340.388692 131.083731 
L 340.633345 131.94641 
L 341.122651 126.892881 
L 341.367304 134.259369 
L 341.611957 134.163706 
L 341.85661 136.796508 
L 342.101263 133.706571 
L 342.590569 130.470137 
L 342.835222 134.37324 
L 343.079875 132.170459 
L 343.324528 133.861709 
L 343.569181 133.860719 
L 343.813834 133.720755 
L 344.058487 131.380252 
L 344.30314 132.574683 
L 345.037099 124.408159 
L 345.281752 124.427885 
L 345.526405 124.842698 
L 345.771058 127.664516 
L 346.015711 127.31284 
L 346.505017 132.449761 
L 346.74967 131.772238 
L 346.994323 134.328378 
L 347.972935 125.409021 
L 348.217588 124.709265 
L 348.462241 120.19557 
L 348.951547 118.119492 
L 349.1962 115.564046 
L 349.440853 128.893617 
L 349.685506 125.632707 
L 349.930159 119.744603 
L 350.174812 119.227299 
L 350.419465 120.88167 
L 350.664118 121.644266 
L 350.908771 124.559339 
L 351.153424 125.840196 
L 351.887383 132.880672 
L 352.376689 128.974666 
L 352.621342 135.35629 
L 352.865995 132.665662 
L 353.110648 131.41545 
L 353.355301 128.250466 
L 353.599954 127.119371 
L 353.844607 124.891618 
L 354.089261 123.841869 
L 354.333914 123.965109 
L 355.067873 127.53491 
L 355.312526 124.80539 
L 355.557179 124.026531 
L 355.801832 126.730387 
L 356.291138 123.106981 
L 356.535791 129.405214 
L 356.780444 129.204751 
L 357.025097 128.523633 
L 357.514403 134.385116 
L 357.759056 135.70592 
L 358.003709 132.00968 
L 358.493015 142.631073 
L 358.737668 142.826885 
L 358.982321 144.564845 
L 359.226974 144.908472 
L 359.471627 148.747019 
L 359.71628 143.949899 
L 359.960933 150.26512 
L 360.205586 147.435055 
L 360.450239 149.79723 
L 360.694892 143.933042 
L 360.939545 148.347017 
L 361.184198 145.721209 
L 361.428851 150.748117 
L 361.918157 142.436911 
L 362.16281 143.205511 
L 362.407463 139.772376 
L 362.652116 141.661681 
L 362.896769 141.369052 
L 363.386075 138.409612 
L 363.630728 140.804543 
L 363.875381 142.011443 
L 364.60934 136.738978 
L 364.853993 132.612717 
L 365.098646 130.392981 
L 365.343299 124.481423 
L 365.587952 122.982653 
L 365.832605 125.18362 
L 366.077258 126.274933 
L 366.321911 124.385596 
L 366.566564 125.552251 
L 366.811217 123.481847 
L 367.05587 127.347906 
L 367.300523 128.720368 
L 367.545176 124.978869 
L 367.789829 128.677485 
L 368.034482 129.827746 
L 368.279135 134.763346 
L 368.768441 137.559401 
L 369.013094 139.382963 
L 369.257747 139.216048 
L 369.5024 137.647642 
L 369.747053 139.621889 
L 369.991706 140.281664 
L 370.236359 139.692712 
L 370.725665 135.21494 
L 370.970318 133.967796 
L 371.214971 136.205049 
L 371.459624 130.685378 
L 371.704277 132.342421 
L 371.94893 135.846314 
L 372.438236 126.689911 
L 372.927542 124.22861 
L 373.416848 119.03472 
L 373.661501 116.510149 
L 373.906154 119.311416 
L 374.150807 117.765013 
L 374.39546 119.392367 
L 374.640113 120.035385 
L 374.884766 116.199279 
L 375.374072 112.990951 
L 375.618725 109.980116 
L 375.863378 102.531392 
L 376.108031 98.667411 
L 376.352684 100.109807 
L 376.841991 95.393868 
L 377.086644 93.713338 
L 377.820603 100.936233 
L 378.065256 96.852888 
L 378.309909 95.551183 
L 378.554562 95.910974 
L 378.799215 92.235779 
L 379.043868 94.201383 
L 379.533174 85.434724 
L 379.777827 84.000311 
L 380.02248 86.986405 
L 380.267133 82.51279 
L 380.511786 53.745572 
L 380.756439 55.614293 
L 381.245745 36.792695 
L 381.490398 34.414125 
L 381.490398 34.414125 
" style="fill:none;stroke:#1f77b4;stroke-linecap:square;stroke-width:1.5;"/>
   </g>
   <g id="line2d_28">
    <path clip-path="url(#p478ad38a68)" d="M 56.835852 219.478798 
L 57.080505 219.997641 
L 57.325158 218.008744 
L 57.569811 218.181691 
L 57.814464 215.41453 
L 58.059117 214.72274 
L 58.30377 213.079738 
L 58.793076 211.350263 
L 59.037729 209.793735 
L 59.771688 215.068635 
L 60.016341 212.301474 
L 60.260994 214.549793 
L 60.7503 216.452216 
L 60.994953 219.738219 
L 61.239606 225.70491 
L 61.728912 227.434386 
L 61.973566 226.050805 
L 62.462872 232.363391 
L 62.707525 227.52086 
L 62.952178 231.152758 
L 63.196831 231.325706 
L 63.441484 225.272541 
L 63.93079 241.097243 
L 64.175443 240.405453 
L 64.420096 241.702559 
L 64.664749 240.232505 
L 64.909402 240.146031 
L 65.154055 240.664874 
L 65.398708 240.146031 
L 65.643361 242.048454 
L 65.888014 241.789033 
L 66.132667 242.307876 
L 66.621973 247.323355 
L 66.866626 246.458617 
L 67.111279 242.567297 
L 67.355932 246.28567 
L 67.845238 244.729142 
L 68.089891 247.236881 
L 68.334544 248.015145 
L 68.579197 246.112722 
L 68.82385 247.582776 
L 69.068503 252.857677 
L 69.802462 256.489576 
L 70.047115 254.327731 
L 70.291768 248.966357 
L 70.536421 253.808888 
L 70.781074 254.846574 
L 71.025727 258.305525 
L 71.515033 255.538364 
L 71.759686 256.662523 
L 72.248992 252.425308 
L 72.493645 255.192469 
L 72.738298 249.744621 
L 73.472257 254.327731 
L 73.71691 261.418581 
L 73.961563 262.110371 
L 74.450869 262.629214 
L 74.940175 269.63359 
L 75.184828 269.028274 
L 75.429481 267.644693 
L 75.674134 267.12585 
L 75.918787 273.52491 
L 76.16344 274.822017 
L 76.408093 271.708961 
L 76.652746 270.238906 
L 76.897399 269.893011 
L 77.142052 268.509431 
L 77.386705 273.351963 
L 77.631358 273.006067 
L 77.876011 273.265489 
L 78.120664 269.547116 
L 78.365317 270.584802 
L 78.60997 267.904114 
L 78.854623 267.904114 
L 79.099276 268.595905 
L 79.343929 263.666899 
L 79.588582 263.493952 
L 79.833235 265.05048 
L 80.322541 264.358689 
L 80.567194 260.986212 
L 80.811847 259.775579 
L 81.0565 260.380896 
L 81.301153 262.629214 
L 81.545806 263.753373 
L 81.790459 263.666899 
L 82.035112 264.877532 
L 82.279765 267.298798 
L 82.524418 263.926321 
L 82.769071 257.354313 
L 83.013724 257.873156 
L 83.258377 259.256737 
L 83.50303 258.478473 
L 83.747683 259.862053 
L 84.236989 253.722415 
L 84.481643 251.992939 
L 84.726296 251.992939 
L 84.970949 253.030624 
L 85.215602 251.041727 
L 85.460255 246.112722 
L 85.704908 258.478473 
L 86.194214 259.689105 
L 86.438867 261.072686 
L 86.68352 260.986212 
L 86.928173 260.207948 
L 87.172826 258.219051 
L 87.417479 257.440787 
L 87.662132 260.294422 
L 87.906785 257.527261 
L 88.151438 259.256737 
L 88.396091 259.083789 
L 88.885397 262.283319 
L 89.13005 260.640317 
L 89.374703 260.380896 
L 89.619356 258.997315 
L 89.864009 258.478473 
L 90.108662 258.65142 
L 90.353315 259.689105 
L 90.597968 259.862053 
L 91.087274 267.12585 
L 91.331927 265.655796 
L 91.57658 267.298798 
L 92.065886 261.245633 
L 92.310539 261.678002 
L 92.555192 260.380896 
L 93.533804 252.944151 
L 93.778457 255.624838 
L 94.02311 254.673626 
L 94.267763 255.105995 
L 94.512416 254.933048 
L 94.757069 255.019521 
L 95.001722 257.354313 
L 95.491028 259.429684 
L 95.735681 259.083789 
L 95.980334 260.294422 
L 96.224987 257.786682 
L 96.46964 259.34321 
L 96.714293 253.981836 
L 96.958946 253.462993 
L 97.203599 253.37652 
L 97.448252 256.921944 
L 97.692905 256.748997 
L 97.937558 260.207948 
L 98.182211 259.429684 
L 98.426864 261.15916 
L 98.671517 259.862053 
L 99.160823 249.744621 
L 99.405476 253.549467 
L 99.650129 254.7601 
L 99.894782 257.354313 
L 100.139435 252.771203 
L 100.384088 252.598256 
L 101.118047 244.383246 
L 101.607353 237.638292 
L 101.852006 240.059558 
L 102.096659 239.88661 
L 102.341312 236.773554 
L 102.585965 235.130552 
L 102.830618 234.784657 
L 103.075271 233.746972 
L 103.319924 235.044078 
L 103.564577 235.476447 
L 103.80923 233.401077 
L 104.298536 231.585127 
L 104.543189 230.374494 
L 105.032495 236.081764 
L 105.277148 232.968708 
L 105.521801 235.217026 
L 105.766454 234.352288 
L 106.011107 234.006393 
L 106.25576 233.401077 
L 106.500413 234.092867 
L 106.745066 234.265814 
L 106.98972 235.389973 
L 107.479026 232.363391 
L 107.723679 232.882234 
L 107.968332 232.276917 
L 108.212985 223.975435 
L 108.457638 222.937749 
L 108.702291 228.645019 
L 109.191597 229.59623 
L 109.43625 225.964332 
L 109.925556 230.720389 
L 110.170209 226.137279 
L 110.414862 226.742596 
L 110.659515 225.186067 
L 110.904168 222.073011 
L 111.148821 226.050805 
L 111.393474 233.141655 
L 111.638127 232.968708 
L 111.88278 238.330082 
L 112.127433 235.735869 
L 112.372086 234.698183 
L 112.616739 234.265814 
L 112.861392 232.709286 
L 113.106045 235.649395 
L 113.350698 237.119449 
L 113.595351 236.773554 
L 113.840004 234.179341 
L 114.084657 241.789033 
L 114.32931 242.134928 
L 114.573963 241.183717 
L 114.818616 234.784657 
L 115.063269 235.562921 
L 115.307922 235.217026 
L 115.552575 232.536339 
L 115.797228 233.401077 
L 116.041881 241.27019 
L 116.531187 245.334458 
L 116.77584 245.507406 
L 117.509799 241.097243 
L 117.754452 241.27019 
L 117.999105 240.059558 
L 118.243758 240.405453 
L 118.488411 241.616086 
L 118.733064 241.443138 
L 118.977717 244.037351 
L 119.467023 245.939775 
L 119.711676 248.101619 
L 119.956329 247.582776 
L 120.200982 246.458617 
L 120.445635 247.496303 
L 120.690288 247.063934 
L 120.934941 251.733518 
L 121.179594 252.771203 
L 121.6689 247.496303 
L 121.913553 250.522885 
L 122.158206 249.744621 
L 122.402859 248.188093 
L 122.647512 249.658147 
L 122.892165 250.349937 
L 123.136818 249.485199 
L 123.381471 251.474096 
L 123.626124 252.165887 
L 123.870777 251.387623 
L 124.11543 246.458617 
L 124.360083 246.804512 
L 124.604736 246.199196 
L 124.849389 244.123825 
L 125.094042 243.518509 
L 125.583348 246.545091 
L 125.828001 239.540715 
L 126.072654 239.973084 
L 126.317307 236.946501 
L 126.56196 235.562921 
L 126.806613 235.476447 
L 127.295919 237.984187 
L 127.540572 237.292397 
L 127.785225 237.292397 
L 128.029878 239.800136 
L 128.274531 243.518509 
L 128.763837 244.815615 
L 129.00849 244.296773 
L 129.253143 246.804512 
L 129.497797 244.988563 
L 129.74245 244.815615 
L 129.987103 247.842198 
L 130.231756 246.890986 
L 130.476409 242.480823 
L 130.965715 239.454241 
L 131.210368 239.973084 
L 131.699674 235.389973 
L 131.944327 235.735869 
L 132.18898 233.48755 
L 132.433633 234.092867 
L 132.678286 237.032975 
L 132.922939 236.600606 
L 133.167592 232.709286 
L 133.656898 230.201547 
L 134.146204 230.633916 
L 134.390857 231.931022 
L 134.63551 232.536339 
L 134.880163 234.438762 
L 135.124816 232.536339 
L 135.369469 234.179341 
L 135.614122 233.919919 
L 135.858775 233.228129 
L 136.348081 229.509756 
L 136.592734 231.325706 
L 137.08204 229.509756 
L 137.326693 228.645019 
L 137.571346 229.855652 
L 137.815999 224.061908 
L 138.060652 235.822342 
L 138.549958 237.724765 
L 138.794611 235.562921 
L 139.039264 236.081764 
L 139.52857 238.589503 
L 139.773223 236.946501 
L 140.262529 227.607333 
L 140.507182 226.656122 
L 140.751835 227.607333 
L 140.996488 231.066284 
L 141.241141 230.633916 
L 141.485794 232.190444 
L 141.9751 228.990914 
L 142.219753 224.753699 
L 142.464406 224.840172 
L 142.709059 225.618436 
L 142.953712 223.283644 
L 143.198365 222.332433 
L 143.443018 219.997641 
L 143.687671 220.862379 
L 143.932324 218.700534 
L 144.176977 217.835796 
L 144.42163 219.219377 
L 144.666283 219.305851 
L 144.910936 222.073011 
L 145.155589 220.948852 
L 145.644895 223.370118 
L 145.889548 221.467695 
L 146.134201 221.727116 
L 146.378854 212.993265 
L 146.623507 211.609684 
L 146.86816 212.733843 
L 147.112813 218.700534 
L 148.091425 227.693807 
L 148.336078 228.472071 
L 148.580731 226.915543 
L 148.825384 228.817966 
L 149.070037 228.299124 
L 149.31469 230.028599 
L 149.559343 235.130552 
L 149.803996 236.254711 
L 150.048649 238.848925 
L 150.293302 234.784657 
L 150.537955 232.968708 
L 150.782608 232.190444 
L 151.027261 230.633916 
L 151.271914 229.942125 
L 151.516567 228.645019 
L 151.76122 228.21265 
L 152.005874 228.126176 
L 152.250527 230.374494 
L 152.49518 228.299124 
L 152.739833 231.066284 
L 152.984486 229.250335 
L 153.229139 229.336809 
L 153.473792 227.780281 
L 153.718445 228.126176 
L 153.963098 228.126176 
L 154.207751 230.374494 
L 154.452404 229.423283 
L 154.697057 230.374494 
L 154.94171 229.250335 
L 155.186363 229.163861 
L 155.431016 227.434386 
L 155.675669 228.385597 
L 155.920322 228.126176 
L 156.164975 229.769178 
L 156.409628 230.374494 
L 157.143587 225.877858 
L 157.38824 222.332433 
L 157.632893 224.580751 
L 157.877546 225.01312 
L 158.122199 222.073011 
L 158.611505 223.370118 
L 159.100811 219.046429 
L 159.345464 217.489901 
L 159.590117 218.354639 
L 159.83477 213.858002 
L 160.079423 216.019847 
L 160.813382 208.928997 
L 161.058035 213.685055 
L 161.302688 215.846899 
L 161.791994 210.744946 
L 162.2813 208.410154 
L 163.015259 210.917894 
L 163.259912 210.917894 
L 163.504565 215.155109 
L 163.749218 214.549793 
L 164.238524 211.436737 
L 164.483177 213.512107 
L 164.72783 213.858002 
L 164.972483 215.933373 
L 165.217136 215.673952 
L 165.461789 214.203898 
L 165.951095 214.809214 
L 166.440401 213.512107 
L 166.685054 214.549793 
L 167.17436 218.959955 
L 167.419013 217.057532 
L 167.663666 217.057532 
L 167.908319 215.673952 
L 168.152972 216.106321 
L 168.397625 214.895688 
L 168.642278 211.263789 
L 168.886931 209.793735 
L 169.131584 209.101945 
L 169.376237 205.988889 
L 169.62089 206.507731 
L 169.865543 203.04878 
L 170.110196 203.567623 
L 170.354849 203.04878 
L 170.599502 198.638617 
L 170.844155 200.886936 
L 171.088808 198.033301 
L 171.333461 200.713988 
L 171.578114 200.454567 
L 171.822767 183.938075 
L 172.06742 182.727442 
L 172.312073 183.246285 
L 172.556726 183.419232 
L 173.046032 181.08444 
L 173.290685 180.825019 
L 173.779991 175.204223 
L 174.024644 176.068961 
L 174.269298 174.771854 
L 174.513951 175.031276 
L 174.758604 174.339485 
L 175.003257 174.339485 
L 175.24791 172.955905 
L 175.492563 173.907116 
L 175.737216 175.982487 
L 175.981869 175.117749 
L 176.226522 171.918219 
L 176.471175 172.004693 
L 176.960481 168.026899 
L 177.205134 142.603608 
L 177.449787 150.818617 
L 177.69444 150.818617 
L 177.939093 147.705561 
L 178.183746 141.392975 
L 178.673052 146.062559 
L 178.917705 146.062559 
L 179.162358 146.235507 
L 179.407011 146.581402 
L 179.651664 145.197822 
L 179.896317 149.175616 
L 180.14097 150.472722 
L 180.385623 147.792035 
L 180.630276 158.42831 
L 180.874929 158.255362 
L 181.119582 159.638943 
L 181.364235 160.330733 
L 181.608888 156.698834 
L 181.853541 155.747623 
L 182.098194 147.359666 
L 182.342847 148.743247 
L 182.832153 144.678979 
L 183.076806 145.284295 
L 183.321459 143.900715 
L 183.566112 138.279919 
L 184.055418 141.220028 
L 184.544724 141.392975 
L 184.789377 142.603608 
L 185.03403 140.268816 
L 185.278683 143.295399 
L 185.523336 143.295399 
L 185.767989 140.35529 
L 186.012642 139.577026 
L 186.257295 136.723391 
L 186.501948 140.35529 
L 186.746601 139.404078 
L 186.991254 139.404078 
L 187.235907 142.86303 
L 187.48056 143.55482 
L 187.725213 140.182342 
L 187.969866 139.749974 
L 188.214519 138.106972 
L 188.459172 141.133554 
L 188.703825 142.084766 
L 188.948478 144.592505 
L 189.193131 141.738871 
L 189.437784 147.013771 
L 189.682437 145.976086 
L 189.92709 140.441764 
L 190.171743 141.133554 
L 190.661049 152.375145 
L 190.905702 147.964983 
L 191.150355 147.273192 
L 191.395008 152.807514 
L 191.639661 145.889612 
L 191.884314 151.510408 
L 192.128967 166.297424 
L 192.37362 170.10227 
L 192.618273 164.308527 
L 192.862926 171.831746 
L 193.107579 175.463644 
L 193.352232 170.880534 
L 193.596885 169.151059 
L 193.841538 160.244259 
L 194.086191 163.184368 
L 194.575497 155.315254 
L 194.82015 155.142306 
L 195.064803 150.472722 
L 195.309456 148.916194 
L 195.554109 160.503681 
L 195.798762 148.13793 
L 196.288068 143.55482 
L 196.532721 150.299775 
L 196.777375 149.780932 
L 197.266681 154.623464 
L 197.755987 153.585778 
L 198.734599 142.084766 
L 198.979252 145.197822 
L 199.223905 131.362017 
L 199.468558 134.475073 
L 199.713211 128.767804 
L 199.957864 128.162487 
L 200.44717 120.120426 
L 200.691823 120.812216 
L 200.936476 117.093843 
L 201.181129 118.563898 
L 201.425782 118.304476 
L 201.670435 116.488527 
L 202.404394 127.297749 
L 202.649047 124.876484 
L 203.138353 131.621438 
L 203.383006 134.734494 
L 203.872312 122.109323 
L 204.116965 127.730118 
L 204.361618 120.466321 
L 204.606271 118.563898 
L 204.850924 118.477424 
L 205.095577 117.526212 
L 205.829536 128.421909 
L 206.074189 127.816592 
L 206.318842 131.362017 
L 206.563495 137.15576 
L 207.052801 124.962957 
L 207.297454 124.357641 
L 208.276066 129.286646 
L 208.520719 127.038328 
L 208.765372 130.151384 
L 209.254678 123.060534 
L 209.743984 132.659124 
L 209.988637 146.581402 
L 210.23329 150.213301 
L 210.477943 146.408455 
L 210.722596 156.525887 
L 210.967249 151.250986 
L 211.211902 150.818617 
L 211.456555 151.683355 
L 211.701208 148.743247 
L 212.190514 157.477098 
L 212.435167 150.818617 
L 212.67982 152.115724 
L 212.924473 147.186719 
L 213.169126 145.111348 
L 213.413779 141.911818 
L 213.658432 145.889612 
L 213.903085 146.408455 
L 214.147738 144.678979 
L 214.392391 150.299775 
L 214.637044 144.678979 
L 215.12635 151.250986 
L 215.371003 154.709937 
L 215.615656 147.705561 
L 216.104962 147.186719 
L 216.594268 155.22878 
L 216.838921 159.293048 
L 217.083574 168.113373 
L 217.328227 162.665525 
L 217.57288 175.896013 
L 217.817533 174.771854 
L 218.062186 175.636592 
L 218.306839 177.711963 
L 218.551492 175.117749 
L 218.796145 176.414856 
L 219.040798 171.485851 
L 219.285452 172.437062 
L 219.530105 175.982487 
L 219.774758 183.765127 
L 220.019411 182.122125 
L 220.264064 165.51916 
L 220.508717 170.188744 
L 220.75337 171.831746 
L 220.998023 175.80954 
L 221.242676 175.80954 
L 221.731982 171.918219 
L 221.976635 171.485851 
L 222.221288 172.091167 
L 222.465941 166.124476 
L 222.955247 169.929323 
L 223.1999 158.341836 
L 223.444553 157.995941 
L 223.689206 161.454892 
L 223.933859 159.206574 
L 224.178512 161.800787 
L 224.423165 159.465995 
L 224.912471 164.82737 
L 225.401777 156.698834 
L 225.64643 157.909467 
L 225.891083 160.763102 
L 226.135736 153.239883 
L 226.380389 153.153409 
L 226.625042 159.984838 
L 226.869695 163.616737 
L 227.114348 163.443789 
L 227.359001 158.601257 
L 227.603654 159.552469 
L 227.848307 163.357315 
L 228.337613 157.131203 
L 228.582266 156.958256 
L 228.826919 153.326357 
L 229.071572 155.574675 
L 229.560878 152.115724 
L 229.805531 152.980462 
L 230.050184 156.007044 
L 230.294837 150.732144 
L 230.53949 148.13793 
L 230.784143 144.24661 
L 232.252061 171.572324 
L 232.496714 172.004693 
L 232.741367 167.075688 
L 232.98602 166.816267 
L 233.230673 171.399377 
L 233.475326 170.79406 
L 233.964632 165.951529 
L 234.209285 162.233156 
L 234.453938 164.913843 
L 234.698591 163.270842 
L 235.187897 166.297424 
L 235.43255 165.605634 
L 235.921856 179.441438 
L 236.166509 179.268491 
L 236.411162 181.257388 
L 236.655815 178.057858 
L 236.900468 182.468021 
L 237.145121 183.678653 
L 237.634427 192.06661 
L 237.87908 189.991239 
L 238.123733 185.148708 
L 238.368386 185.840498 
L 238.613039 185.494603 
L 238.857692 183.678653 
L 239.591651 193.882559 
L 239.836304 194.833771 
L 240.080957 195.006719 
L 240.32561 199.589829 
L 240.570263 197.082089 
L 240.814916 191.807189 
L 241.059569 191.37482 
L 241.304222 192.239558 
L 241.548875 191.893662 
L 242.038182 190.337134 
L 242.282835 190.423608 
L 242.772141 192.498979 
L 243.016794 185.926972 
L 243.261447 191.720715 
L 243.5061 187.4835 
L 243.750753 192.585453 
L 243.995406 191.288346 
L 244.240059 190.769503 
L 244.484712 192.239558 
L 244.729365 196.995615 
L 245.218671 212.560896 
L 245.707977 218.527586 
L 245.95263 206.161836 
L 246.197283 202.529937 
L 246.441936 196.476773 
L 246.686589 195.439087 
L 246.931242 201.6652 
L 247.420548 190.769503 
L 247.665201 195.612035 
L 247.909854 187.137605 
L 248.154507 189.385923 
L 248.39916 189.126502 
L 248.643813 187.397026 
L 248.888466 188.088816 
L 249.133119 185.148708 
L 249.377772 184.802813 
L 249.622425 185.321655 
L 249.867078 191.288346 
L 250.111731 190.077713 
L 250.356384 194.314928 
L 250.601037 193.709612 
L 250.84569 195.95793 
L 251.090343 193.104295 
L 251.334996 193.536664 
L 251.579649 189.385923 
L 251.824302 181.603283 
L 252.068955 182.813916 
L 252.802914 167.767478 
L 253.047567 162.838473 
L 253.29222 161.022523 
L 253.536873 164.308527 
L 253.781526 163.70321 
L 254.026179 165.173265 
L 254.270832 158.601257 
L 254.515485 159.033626 
L 254.760138 156.525887 
L 255.004791 151.769829 
L 255.249444 153.066936 
L 255.494097 153.672252 
L 255.73875 144.765453 
L 255.983403 140.441764 
L 256.228056 143.122451 
L 256.472709 144.160136 
L 256.717362 142.084766 
L 256.962015 147.964983 
L 257.206668 149.435037 
L 257.695974 145.543717 
L 258.429933 149.607984 
L 258.674586 153.8452 
L 258.919239 155.055833 
L 259.653198 164.567948 
L 259.897851 164.654422 
L 260.387157 155.488201 
L 260.63181 145.630191 
L 260.876463 142.517135 
L 261.365769 145.111348 
L 261.610422 144.333084 
L 261.855075 144.24661 
L 262.344381 138.798762 
L 262.589034 141.04708 
L 262.833687 147.878509 
L 263.07834 140.095869 
L 263.322993 139.749974 
L 263.567646 141.738871 
L 263.812299 141.220028 
L 264.056952 141.565923 
L 264.301606 145.889612 
L 264.546259 144.160136 
L 264.790912 138.020498 
L 265.035565 136.982813 
L 265.280218 140.35529 
L 265.524871 149.348563 
L 266.25883 139.577026 
L 266.503483 139.749974 
L 266.748136 140.182342 
L 266.992789 135.77218 
L 268.216054 156.179992 
L 268.460707 166.90274 
L 268.70536 169.756375 
L 269.194666 159.638943 
L 269.439319 166.297424 
L 269.683972 159.1201 
L 269.928625 184.889286 
L 270.173278 184.543391 
L 270.417931 186.359341 
L 270.662584 185.754024 
L 270.907237 183.419232 
L 271.15189 186.272867 
L 271.396543 183.332758 
L 271.641196 184.456917 
L 271.885849 183.073337 
L 272.130502 173.99359 
L 272.375155 175.723066 
L 272.619808 184.543391 
L 272.864461 188.521185 
L 273.109114 184.802813 
L 273.353767 191.115398 
L 273.59842 193.017822 
L 273.843073 193.104295 
L 274.087726 198.119775 
L 274.332379 198.206248 
L 274.577032 194.57435 
L 274.821685 193.363717 
L 275.066338 187.397026 
L 275.310991 187.829395 
L 275.555644 193.969033 
L 275.800297 188.434711 
L 276.04495 193.190769 
L 276.778909 184.543391 
L 277.023562 184.543391 
L 277.268215 186.359341 
L 277.512868 179.614386 
L 277.757521 178.144332 
L 278.246827 177.366068 
L 278.49148 174.68538 
L 278.736133 177.971384 
L 279.225439 172.004693 
L 279.470092 167.594531 
L 279.714745 170.448165 
L 279.959398 168.545742 
L 280.204051 168.199847 
L 280.448704 165.692107 
L 280.693357 159.638943 
L 280.93801 162.579051 
L 281.182663 162.751999 
L 281.427316 165.51916 
L 281.671969 166.556845 
L 281.916622 166.383898 
L 282.405928 159.379521 
L 282.650581 162.492578 
L 282.895234 161.62784 
L 283.139887 165.51916 
L 283.38454 166.383898 
L 283.629193 164.82737 
L 283.873846 169.41048 
L 284.118499 168.71869 
L 284.363152 168.372795 
L 284.852458 164.395001 
L 285.341764 170.188744 
L 285.586417 168.545742 
L 285.83107 168.978111 
L 286.075723 165.51916 
L 286.320376 165.778581 
L 286.809683 170.79406 
L 287.054336 170.707587 
L 287.298989 167.681004 
L 287.788295 180.39265 
L 288.032948 177.539015 
L 288.277601 179.70086 
L 288.522254 184.111022 
L 288.766907 183.678653 
L 289.01156 182.468021 
L 289.256213 184.543391 
L 289.500866 181.603283 
L 289.745519 182.295073 
L 289.990172 184.889286 
L 290.234825 183.59218 
L 290.479478 179.441438 
L 290.724131 182.986863 
L 290.968784 182.900389 
L 291.213437 186.013445 
L 291.45809 181.516809 
L 291.702743 180.825019 
L 291.947396 173.647695 
L 292.192049 170.79406 
L 292.681355 169.237532 
L 292.926008 169.064585 
L 293.415314 167.594531 
L 293.659967 168.805163 
L 293.90462 168.286321 
L 294.149273 166.556845 
L 294.393926 166.470371 
L 294.638579 166.038002 
L 295.127885 164.049106 
L 295.372538 164.308527 
L 295.617191 168.891637 
L 296.106497 167.594531 
L 296.35115 164.049106 
L 296.595803 162.751999 
L 296.840456 163.01142 
L 297.085109 156.958256 
L 297.574415 176.587804 
L 297.819068 172.523536 
L 298.308374 158.601257 
L 298.79768 159.638943 
L 299.286986 155.142306 
L 299.531639 148.224404 
L 299.776292 144.9384 
L 300.020945 140.095869 
L 300.265598 139.490552 
L 300.510251 137.84755 
L 300.754904 138.97171 
L 300.999557 139.144657 
L 301.24421 138.279919 
L 301.488863 133.610335 
L 301.733516 145.889612 
L 301.978169 142.517135 
L 302.222822 142.257713 
L 302.467475 138.798762 
L 302.712128 141.04708 
L 302.956781 141.565923 
L 303.201434 140.787659 
L 303.446087 140.874133 
L 303.935393 146.062559 
L 304.424699 139.749974 
L 304.669352 139.231131 
L 304.914005 140.268816 
L 305.158658 143.641294 
L 305.403311 142.344187 
L 305.647964 143.295399 
L 306.13727 137.761077 
L 306.381923 139.404078 
L 306.626576 139.836447 
L 306.871229 137.501655 
L 307.115882 136.46397 
L 307.360535 136.118075 
L 307.605188 138.279919 
L 307.849841 138.798762 
L 308.094494 137.328708 
L 308.339147 134.820968 
L 309.073107 130.756701 
L 309.31776 130.237858 
L 309.562413 126.000643 
L 309.807066 126.951854 
L 310.051719 127.124802 
L 310.296372 135.77218 
L 310.541025 130.237858 
L 310.785678 134.302126 
L 311.030331 134.215652 
L 311.519637 116.488527 
L 311.76429 120.89869 
L 312.008943 121.071637 
L 312.253596 118.39095 
L 312.498249 117.526212 
L 312.742902 120.639268 
L 312.987555 125.308852 
L 313.232208 120.725742 
L 313.476861 118.477424 
L 313.721514 119.515109 
L 313.966167 115.796737 
L 314.455473 117.612686 
L 314.700126 113.721366 
L 314.944779 113.029576 
L 315.189432 112.770154 
L 315.434085 113.461945 
L 315.678738 119.947478 
L 316.168044 122.541692 
L 316.412697 118.39095 
L 316.65735 119.774531 
L 316.902003 115.796737 
L 317.146656 135.166863 
L 317.391309 135.858654 
L 317.635962 138.279919 
L 317.880615 137.328708 
L 318.614574 141.220028 
L 318.859227 141.825344 
L 319.10388 140.701185 
L 319.348533 143.727767 
L 319.593186 143.035977 
L 319.837839 148.82972 
L 320.082492 151.596881 
L 320.327145 142.257713 
L 320.571798 141.825344 
L 320.816451 141.738871 
L 321.061104 143.900715 
L 321.305757 142.949503 
L 321.55041 144.073663 
L 321.795063 140.35529 
L 322.039716 140.960607 
L 322.284369 139.404078 
L 322.529022 140.009395 
L 322.773675 139.749974 
L 323.018328 135.426285 
L 323.262981 137.84755 
L 323.507634 135.77218 
L 323.752287 135.166863 
L 323.99694 136.896339 
L 324.241593 142.171239 
L 324.486246 150.299775 
L 324.975552 144.851927 
L 325.220205 141.998292 
L 325.464858 135.253337 
L 325.709511 133.523861 
L 325.954164 133.005019 
L 326.198817 131.189069 
L 326.44347 124.011746 
L 326.688123 126.17359 
L 326.932776 124.09822 
L 327.177429 128.248961 
L 327.666735 120.466321 
L 327.911388 122.455218 
L 328.156041 122.887587 
L 328.400694 122.541692 
L 328.645347 121.676954 
L 328.89 125.4818 
L 329.134653 125.222379 
L 329.379306 128.594856 
L 329.623959 125.741221 
L 329.868612 127.384223 
L 330.113265 127.903066 
L 330.602571 125.654748 
L 330.847224 126.260064 
L 331.091877 122.714639 
L 331.33653 124.79001 
L 331.581184 124.09822 
L 331.825837 124.011746 
L 332.07049 124.357641 
L 332.315143 126.000643 
L 332.559796 122.801113 
L 332.804449 124.271167 
L 333.049102 116.920896 
L 333.293755 115.364368 
L 333.538408 117.439739 
L 333.783061 113.80784 
L 334.51702 126.433012 
L 334.761673 125.049431 
L 335.006326 126.433012 
L 335.250979 128.594856 
L 335.495632 127.903066 
L 335.740285 127.643645 
L 335.984938 135.599232 
L 336.229591 136.636918 
L 336.474244 132.659124 
L 336.96355 130.497279 
L 337.208203 127.384223 
L 337.697509 126.433012 
L 337.942162 130.324332 
L 338.186815 129.37312 
L 338.431468 126.346538 
L 338.676121 126.519485 
L 339.165427 131.534965 
L 339.654733 131.794386 
L 339.899386 134.648021 
L 340.144039 132.659124 
L 340.388692 134.215652 
L 340.633345 132.486176 
L 340.877998 131.707912 
L 341.122651 138.193446 
L 341.367304 138.020498 
L 341.611957 138.712288 
L 341.85661 138.366393 
L 342.345916 135.858654 
L 342.590569 139.231131 
L 342.835222 136.377496 
L 343.324528 138.193446 
L 343.813834 134.388599 
L 344.058487 134.648021 
L 344.30314 133.091493 
L 344.547793 130.324332 
L 345.037099 128.508382 
L 345.281752 129.027225 
L 345.526405 130.670227 
L 345.771058 130.670227 
L 346.015711 132.659124 
L 346.260364 133.177966 
L 346.505017 134.129178 
L 346.74967 137.415182 
L 347.972935 128.162487 
L 348.217588 124.444115 
L 348.462241 123.406429 
L 348.706894 122.887587 
L 348.951547 118.563898 
L 349.1962 129.632541 
L 349.440853 128.248961 
L 349.685506 122.541692 
L 349.930159 122.455218 
L 350.174812 123.579377 
L 350.419465 123.838798 
L 351.64273 134.993916 
L 351.887383 134.129178 
L 352.132036 132.486176 
L 352.376689 139.231131 
L 352.865995 136.118075 
L 353.110648 132.918545 
L 353.355301 132.140281 
L 353.599954 129.891963 
L 353.844607 128.68133 
L 354.089261 128.68133 
L 354.578567 129.978437 
L 354.82322 129.891963 
L 355.067873 128.162487 
L 355.312526 127.98954 
L 355.557179 129.805489 
L 355.801832 128.68133 
L 356.046485 126.778907 
L 356.291138 133.437388 
L 356.535791 133.26444 
L 356.780444 131.967333 
L 357.26975 136.896339 
L 357.514403 137.761077 
L 357.759056 135.166863 
L 358.003709 140.787659 
L 358.493015 145.111348 
L 358.982321 147.619088 
L 359.226974 151.250986 
L 359.471627 146.494928 
L 359.71628 152.202198 
L 359.960933 150.472722 
L 360.205586 152.893988 
L 360.450239 145.284295 
L 360.694892 151.423934 
L 360.939545 149.262089 
L 361.184198 151.250986 
L 361.673504 146.062559 
L 361.918157 146.149033 
L 362.16281 142.344187 
L 362.407463 144.160136 
L 362.896769 143.381872 
L 363.141422 141.738871 
L 363.386075 141.911818 
L 363.630728 143.900715 
L 363.875381 142.430661 
L 364.120034 141.738871 
L 364.364687 139.836447 
L 364.60934 136.896339 
L 364.853993 135.512758 
L 365.098646 127.903066 
L 365.343299 125.395326 
L 365.832605 128.335435 
L 366.077258 127.211276 
L 366.321911 127.384223 
L 366.566564 125.827695 
L 367.05587 132.053807 
L 367.300523 127.98954 
L 368.279135 139.490552 
L 368.523788 140.268816 
L 368.768441 142.603608 
L 369.013094 142.517135 
L 369.257747 142.084766 
L 369.747053 142.603608 
L 369.991706 141.911818 
L 370.481012 138.97171 
L 370.725665 138.798762 
L 370.970318 139.404078 
L 371.214971 133.005019 
L 371.459624 134.907442 
L 371.704277 137.934024 
L 372.193583 130.151384 
L 372.682889 126.778907 
L 372.927542 122.28227 
L 373.172195 122.28227 
L 373.416848 120.293373 
L 373.661501 121.676954 
L 373.906154 120.552795 
L 374.39546 120.89869 
L 374.640113 118.218003 
L 374.884766 117.612686 
L 375.374072 112.943102 
L 375.618725 104.641619 
L 375.863378 101.701511 
L 376.108031 102.047406 
L 376.352684 100.404404 
L 376.597338 99.539666 
L 376.841991 97.550769 
L 377.086644 99.366719 
L 377.331297 102.393301 
L 377.57595 103.344513 
L 377.820603 99.193771 
L 378.065256 98.415507 
L 378.309909 98.156086 
L 378.554562 94.178292 
L 378.799215 95.561872 
L 379.288521 89.162813 
L 379.533174 88.125127 
L 379.777827 89.595182 
L 380.02248 84.666176 
L 380.267133 58.291674 
L 380.511786 58.551095 
L 381.001092 38.316231 
L 381.245745 34.943753 
L 381.490398 41.51576 
L 381.490398 41.51576 
" style="fill:none;stroke:#ff7f0e;stroke-linecap:square;stroke-width:1.5;"/>
   </g>
   <g id="patch_3">
    <path d="M 40.603125 288.430125 
L 40.603125 22.318125 
" style="fill:none;stroke:#000000;stroke-linecap:square;stroke-linejoin:miter;stroke-width:0.8;"/>
   </g>
   <g id="patch_4">
    <path d="M 397.723125 288.430125 
L 397.723125 22.318125 
" style="fill:none;stroke:#000000;stroke-linecap:square;stroke-linejoin:miter;stroke-width:0.8;"/>
   </g>
   <g id="patch_5">
    <path d="M 40.603125 288.430125 
L 397.723125 288.430125 
" style="fill:none;stroke:#000000;stroke-linecap:square;stroke-linejoin:miter;stroke-width:0.8;"/>
   </g>
   <g id="patch_6">
    <path d="M 40.603125 22.318125 
L 397.723125 22.318125 
" style="fill:none;stroke:#000000;stroke-linecap:square;stroke-linejoin:miter;stroke-width:0.8;"/>
   </g>
   <g id="text_16">
    <!-- Training: INTC -->
    <defs>
     <path d="M -0.296875 72.90625 
L 61.375 72.90625 
L 61.375 64.59375 
L 35.5 64.59375 
L 35.5 0 
L 25.59375 0 
L 25.59375 64.59375 
L -0.296875 64.59375 
z
" id="DejaVuSans-84"/>
     <path d="M 54.890625 33.015625 
L 54.890625 0 
L 45.90625 0 
L 45.90625 32.71875 
Q 45.90625 40.484375 42.875 44.328125 
Q 39.84375 48.1875 33.796875 48.1875 
Q 26.515625 48.1875 22.3125 43.546875 
Q 18.109375 38.921875 18.109375 30.90625 
L 18.109375 0 
L 9.078125 0 
L 9.078125 54.6875 
L 18.109375 54.6875 
L 18.109375 46.1875 
Q 21.34375 51.125 25.703125 53.5625 
Q 30.078125 56 35.796875 56 
Q 45.21875 56 50.046875 50.171875 
Q 54.890625 44.34375 54.890625 33.015625 
z
" id="DejaVuSans-110"/>
     <path d="M 45.40625 27.984375 
Q 45.40625 37.75 41.375 43.109375 
Q 37.359375 48.484375 30.078125 48.484375 
Q 22.859375 48.484375 18.828125 43.109375 
Q 14.796875 37.75 14.796875 27.984375 
Q 14.796875 18.265625 18.828125 12.890625 
Q 22.859375 7.515625 30.078125 7.515625 
Q 37.359375 7.515625 41.375 12.890625 
Q 45.40625 18.265625 45.40625 27.984375 
z
M 54.390625 6.78125 
Q 54.390625 -7.171875 48.1875 -13.984375 
Q 42 -20.796875 29.203125 -20.796875 
Q 24.46875 -20.796875 20.265625 -20.09375 
Q 16.0625 -19.390625 12.109375 -17.921875 
L 12.109375 -9.1875 
Q 16.0625 -11.328125 19.921875 -12.34375 
Q 23.78125 -13.375 27.78125 -13.375 
Q 36.625 -13.375 41.015625 -8.765625 
Q 45.40625 -4.15625 45.40625 5.171875 
L 45.40625 9.625 
Q 42.625 4.78125 38.28125 2.390625 
Q 33.9375 0 27.875 0 
Q 17.828125 0 11.671875 7.65625 
Q 5.515625 15.328125 5.515625 27.984375 
Q 5.515625 40.671875 11.671875 48.328125 
Q 17.828125 56 27.875 56 
Q 33.9375 56 38.28125 53.609375 
Q 42.625 51.21875 45.40625 46.390625 
L 45.40625 54.6875 
L 54.390625 54.6875 
z
" id="DejaVuSans-103"/>
     <path d="M 11.71875 12.40625 
L 22.015625 12.40625 
L 22.015625 0 
L 11.71875 0 
z
M 11.71875 51.703125 
L 22.015625 51.703125 
L 22.015625 39.3125 
L 11.71875 39.3125 
z
" id="DejaVuSans-58"/>
     <path d="M 9.8125 72.90625 
L 19.671875 72.90625 
L 19.671875 0 
L 9.8125 0 
z
" id="DejaVuSans-73"/>
     <path d="M 9.8125 72.90625 
L 23.09375 72.90625 
L 55.421875 11.921875 
L 55.421875 72.90625 
L 64.984375 72.90625 
L 64.984375 0 
L 51.703125 0 
L 19.390625 60.984375 
L 19.390625 0 
L 9.8125 0 
z
" id="DejaVuSans-78"/>
     <path d="M 64.40625 67.28125 
L 64.40625 56.890625 
Q 59.421875 61.53125 53.78125 63.8125 
Q 48.140625 66.109375 41.796875 66.109375 
Q 29.296875 66.109375 22.65625 58.46875 
Q 16.015625 50.828125 16.015625 36.375 
Q 16.015625 21.96875 22.65625 14.328125 
Q 29.296875 6.6875 41.796875 6.6875 
Q 48.140625 6.6875 53.78125 8.984375 
Q 59.421875 11.28125 64.40625 15.921875 
L 64.40625 5.609375 
Q 59.234375 2.09375 53.4375 0.328125 
Q 47.65625 -1.421875 41.21875 -1.421875 
Q 24.65625 -1.421875 15.125 8.703125 
Q 5.609375 18.84375 5.609375 36.375 
Q 5.609375 53.953125 15.125 64.078125 
Q 24.65625 74.21875 41.21875 74.21875 
Q 47.75 74.21875 53.53125 72.484375 
Q 59.328125 70.75 64.40625 67.28125 
z
" id="DejaVuSans-67"/>
    </defs>
    <g transform="translate(177.803438 16.318125)scale(0.12 -0.12)">
     <use xlink:href="#DejaVuSans-84"/>
     <use x="46.333984" xlink:href="#DejaVuSans-114"/>
     <use x="87.447266" xlink:href="#DejaVuSans-97"/>
     <use x="148.726562" xlink:href="#DejaVuSans-105"/>
     <use x="176.509766" xlink:href="#DejaVuSans-110"/>
     <use x="239.888672" xlink:href="#DejaVuSans-105"/>
     <use x="267.671875" xlink:href="#DejaVuSans-110"/>
     <use x="331.050781" xlink:href="#DejaVuSans-103"/>
     <use x="394.527344" xlink:href="#DejaVuSans-58"/>
     <use x="428.21875" xlink:href="#DejaVuSans-32"/>
     <use x="460.005859" xlink:href="#DejaVuSans-73"/>
     <use x="489.498047" xlink:href="#DejaVuSans-78"/>
     <use x="564.302734" xlink:href="#DejaVuSans-84"/>
     <use x="619.511719" xlink:href="#DejaVuSans-67"/>
    </g>
   </g>
   <g id="legend_1">
    <g id="patch_7">
     <path d="M 47.603125 59.674375 
L 131.33125 59.674375 
Q 133.33125 59.674375 133.33125 57.674375 
L 133.33125 29.318125 
Q 133.33125 27.318125 131.33125 27.318125 
L 47.603125 27.318125 
Q 45.603125 27.318125 45.603125 29.318125 
L 45.603125 57.674375 
Q 45.603125 59.674375 47.603125 59.674375 
z
" style="fill:#ffffff;opacity:0.8;stroke:#cccccc;stroke-linejoin:miter;"/>
    </g>
    <g id="line2d_29">
     <path d="M 49.603125 35.416562 
L 69.603125 35.416562 
" style="fill:none;stroke:#1f77b4;stroke-linecap:square;stroke-width:1.5;"/>
    </g>
    <g id="line2d_30"/>
    <g id="text_17">
     <!-- Predicted -->
     <defs>
      <path d="M 45.40625 46.390625 
L 45.40625 75.984375 
L 54.390625 75.984375 
L 54.390625 0 
L 45.40625 0 
L 45.40625 8.203125 
Q 42.578125 3.328125 38.25 0.953125 
Q 33.9375 -1.421875 27.875 -1.421875 
Q 17.96875 -1.421875 11.734375 6.484375 
Q 5.515625 14.40625 5.515625 27.296875 
Q 5.515625 40.1875 11.734375 48.09375 
Q 17.96875 56 27.875 56 
Q 33.9375 56 38.25 53.625 
Q 42.578125 51.265625 45.40625 46.390625 
z
M 14.796875 27.296875 
Q 14.796875 17.390625 18.875 11.75 
Q 22.953125 6.109375 30.078125 6.109375 
Q 37.203125 6.109375 41.296875 11.75 
Q 45.40625 17.390625 45.40625 27.296875 
Q 45.40625 37.203125 41.296875 42.84375 
Q 37.203125 48.484375 30.078125 48.484375 
Q 22.953125 48.484375 18.875 42.84375 
Q 14.796875 37.203125 14.796875 27.296875 
z
" id="DejaVuSans-100"/>
      <path d="M 18.3125 70.21875 
L 18.3125 54.6875 
L 36.8125 54.6875 
L 36.8125 47.703125 
L 18.3125 47.703125 
L 18.3125 18.015625 
Q 18.3125 11.328125 20.140625 9.421875 
Q 21.96875 7.515625 27.59375 7.515625 
L 36.8125 7.515625 
L 36.8125 0 
L 27.59375 0 
Q 17.1875 0 13.234375 3.875 
Q 9.28125 7.765625 9.28125 18.015625 
L 9.28125 47.703125 
L 2.6875 47.703125 
L 2.6875 54.6875 
L 9.28125 54.6875 
L 9.28125 70.21875 
z
" id="DejaVuSans-116"/>
     </defs>
     <g transform="translate(77.603125 38.916562)scale(0.1 -0.1)">
      <use xlink:href="#DejaVuSans-80"/>
      <use x="58.552734" xlink:href="#DejaVuSans-114"/>
      <use x="97.416016" xlink:href="#DejaVuSans-101"/>
      <use x="158.939453" xlink:href="#DejaVuSans-100"/>
      <use x="222.416016" xlink:href="#DejaVuSans-105"/>
      <use x="250.199219" xlink:href="#DejaVuSans-99"/>
      <use x="305.179688" xlink:href="#DejaVuSans-116"/>
      <use x="344.388672" xlink:href="#DejaVuSans-101"/>
      <use x="405.912109" xlink:href="#DejaVuSans-100"/>
     </g>
    </g>
    <g id="line2d_31">
     <path d="M 49.603125 50.094687 
L 69.603125 50.094687 
" style="fill:none;stroke:#ff7f0e;stroke-linecap:square;stroke-width:1.5;"/>
    </g>
    <g id="line2d_32"/>
    <g id="text_18">
     <!-- True value -->
     <defs>
      <path d="M 8.5 21.578125 
L 8.5 54.6875 
L 17.484375 54.6875 
L 17.484375 21.921875 
Q 17.484375 14.15625 20.5 10.265625 
Q 23.53125 6.390625 29.59375 6.390625 
Q 36.859375 6.390625 41.078125 11.03125 
Q 45.3125 15.671875 45.3125 23.6875 
L 45.3125 54.6875 
L 54.296875 54.6875 
L 54.296875 0 
L 45.3125 0 
L 45.3125 8.40625 
Q 42.046875 3.421875 37.71875 1 
Q 33.40625 -1.421875 27.6875 -1.421875 
Q 18.265625 -1.421875 13.375 4.4375 
Q 8.5 10.296875 8.5 21.578125 
z
M 31.109375 56 
z
" id="DejaVuSans-117"/>
      <path d="M 2.984375 54.6875 
L 12.5 54.6875 
L 29.59375 8.796875 
L 46.6875 54.6875 
L 56.203125 54.6875 
L 35.6875 0 
L 23.484375 0 
z
" id="DejaVuSans-118"/>
      <path d="M 9.421875 75.984375 
L 18.40625 75.984375 
L 18.40625 0 
L 9.421875 0 
z
" id="DejaVuSans-108"/>
     </defs>
     <g transform="translate(77.603125 53.594687)scale(0.1 -0.1)">
      <use xlink:href="#DejaVuSans-84"/>
      <use x="46.333984" xlink:href="#DejaVuSans-114"/>
      <use x="87.447266" xlink:href="#DejaVuSans-117"/>
      <use x="150.826172" xlink:href="#DejaVuSans-101"/>
      <use x="212.349609" xlink:href="#DejaVuSans-32"/>
      <use x="244.136719" xlink:href="#DejaVuSans-118"/>
      <use x="303.316406" xlink:href="#DejaVuSans-97"/>
      <use x="364.595703" xlink:href="#DejaVuSans-108"/>
      <use x="392.378906" xlink:href="#DejaVuSans-117"/>
      <use x="455.757812" xlink:href="#DejaVuSans-101"/>
     </g>
    </g>
   </g>
  </g>
 </g>
 <defs>
  <clipPath id="p478ad38a68">
   <rect height="266.112" width="357.12" x="40.603125" y="22.318125"/>
  </clipPath>
 </defs>
</svg>
