<?xml version="1.0" encoding="utf-8" standalone="no"?>
<!DOCTYPE svg PUBLIC "-//W3C//DTD SVG 1.1//EN"
  "http://www.w3.org/Graphics/SVG/1.1/DTD/svg11.dtd">
<!-- Created with matplotlib (https://matplotlib.org/) -->
<svg height="325.986375pt" version="1.1" viewBox="0 0 411.285625 325.986375" width="411.285625pt" xmlns="http://www.w3.org/2000/svg" xmlns:xlink="http://www.w3.org/1999/xlink">
 <defs>
  <style type="text/css">
*{stroke-linecap:butt;stroke-linejoin:round;}
  </style>
 </defs>
 <g id="figure_1">
  <g id="patch_1">
   <path d="M 0 325.986375 
L 411.285625 325.986375 
L 411.285625 0 
L 0 0 
z
" style="fill:#ffffff;"/>
  </g>
  <g id="axes_1">
   <g id="patch_2">
    <path d="M 46.965625 288.430125 
L 404.085625 288.430125 
L 404.085625 22.318125 
L 46.965625 22.318125 
z
" style="fill:#ffffff;"/>
   </g>
   <g id="matplotlib.axis_1">
    <g id="xtick_1">
     <g id="line2d_1">
      <path clip-path="url(#pf4edf81170)" d="M 63.198352 288.430125 
L 63.198352 22.318125 
" style="fill:none;stroke:#b0b0b0;stroke-dasharray:2.96,1.28;stroke-dashoffset:0;stroke-width:0.8;"/>
     </g>
     <g id="line2d_2">
      <defs>
       <path d="M 0 0 
L 0 3.5 
" id="m57f200db0d" style="stroke:#000000;stroke-width:0.8;"/>
      </defs>
      <g>
       <use style="stroke:#000000;stroke-width:0.8;" x="63.198352" xlink:href="#m57f200db0d" y="288.430125"/>
      </g>
     </g>
     <g id="text_1">
      <!-- 0 -->
      <defs>
       <path d="M 31.78125 66.40625 
Q 24.171875 66.40625 20.328125 58.90625 
Q 16.5 51.421875 16.5 36.375 
Q 16.5 21.390625 20.328125 13.890625 
Q 24.171875 6.390625 31.78125 6.390625 
Q 39.453125 6.390625 43.28125 13.890625 
Q 47.125 21.390625 47.125 36.375 
Q 47.125 51.421875 43.28125 58.90625 
Q 39.453125 66.40625 31.78125 66.40625 
z
M 31.78125 74.21875 
Q 44.046875 74.21875 50.515625 64.515625 
Q 56.984375 54.828125 56.984375 36.375 
Q 56.984375 17.96875 50.515625 8.265625 
Q 44.046875 -1.421875 31.78125 -1.421875 
Q 19.53125 -1.421875 13.0625 8.265625 
Q 6.59375 17.96875 6.59375 36.375 
Q 6.59375 54.828125 13.0625 64.515625 
Q 19.53125 74.21875 31.78125 74.21875 
z
" id="DejaVuSans-48"/>
      </defs>
      <g transform="translate(60.017102 303.028562)scale(0.1 -0.1)">
       <use xlink:href="#DejaVuSans-48"/>
      </g>
     </g>
    </g>
    <g id="xtick_2">
     <g id="line2d_3">
      <path clip-path="url(#pf4edf81170)" d="M 112.128954 288.430125 
L 112.128954 22.318125 
" style="fill:none;stroke:#b0b0b0;stroke-dasharray:2.96,1.28;stroke-dashoffset:0;stroke-width:0.8;"/>
     </g>
     <g id="line2d_4">
      <g>
       <use style="stroke:#000000;stroke-width:0.8;" x="112.128954" xlink:href="#m57f200db0d" y="288.430125"/>
      </g>
     </g>
     <g id="text_2">
      <!-- 200 -->
      <defs>
       <path d="M 19.1875 8.296875 
L 53.609375 8.296875 
L 53.609375 0 
L 7.328125 0 
L 7.328125 8.296875 
Q 12.9375 14.109375 22.625 23.890625 
Q 32.328125 33.6875 34.8125 36.53125 
Q 39.546875 41.84375 41.421875 45.53125 
Q 43.3125 49.21875 43.3125 52.78125 
Q 43.3125 58.59375 39.234375 62.25 
Q 35.15625 65.921875 28.609375 65.921875 
Q 23.96875 65.921875 18.8125 64.3125 
Q 13.671875 62.703125 7.8125 59.421875 
L 7.8125 69.390625 
Q 13.765625 71.78125 18.9375 73 
Q 24.125 74.21875 28.421875 74.21875 
Q 39.75 74.21875 46.484375 68.546875 
Q 53.21875 62.890625 53.21875 53.421875 
Q 53.21875 48.921875 51.53125 44.890625 
Q 49.859375 40.875 45.40625 35.40625 
Q 44.1875 33.984375 37.640625 27.21875 
Q 31.109375 20.453125 19.1875 8.296875 
z
" id="DejaVuSans-50"/>
      </defs>
      <g transform="translate(102.585204 303.028562)scale(0.1 -0.1)">
       <use xlink:href="#DejaVuSans-50"/>
       <use x="63.623047" xlink:href="#DejaVuSans-48"/>
       <use x="127.246094" xlink:href="#DejaVuSans-48"/>
      </g>
     </g>
    </g>
    <g id="xtick_3">
     <g id="line2d_5">
      <path clip-path="url(#pf4edf81170)" d="M 161.059557 288.430125 
L 161.059557 22.318125 
" style="fill:none;stroke:#b0b0b0;stroke-dasharray:2.96,1.28;stroke-dashoffset:0;stroke-width:0.8;"/>
     </g>
     <g id="line2d_6">
      <g>
       <use style="stroke:#000000;stroke-width:0.8;" x="161.059557" xlink:href="#m57f200db0d" y="288.430125"/>
      </g>
     </g>
     <g id="text_3">
      <!-- 400 -->
      <defs>
       <path d="M 37.796875 64.3125 
L 12.890625 25.390625 
L 37.796875 25.390625 
z
M 35.203125 72.90625 
L 47.609375 72.90625 
L 47.609375 25.390625 
L 58.015625 25.390625 
L 58.015625 17.1875 
L 47.609375 17.1875 
L 47.609375 0 
L 37.796875 0 
L 37.796875 17.1875 
L 4.890625 17.1875 
L 4.890625 26.703125 
z
" id="DejaVuSans-52"/>
      </defs>
      <g transform="translate(151.515807 303.028562)scale(0.1 -0.1)">
       <use xlink:href="#DejaVuSans-52"/>
       <use x="63.623047" xlink:href="#DejaVuSans-48"/>
       <use x="127.246094" xlink:href="#DejaVuSans-48"/>
      </g>
     </g>
    </g>
    <g id="xtick_4">
     <g id="line2d_7">
      <path clip-path="url(#pf4edf81170)" d="M 209.990159 288.430125 
L 209.990159 22.318125 
" style="fill:none;stroke:#b0b0b0;stroke-dasharray:2.96,1.28;stroke-dashoffset:0;stroke-width:0.8;"/>
     </g>
     <g id="line2d_8">
      <g>
       <use style="stroke:#000000;stroke-width:0.8;" x="209.990159" xlink:href="#m57f200db0d" y="288.430125"/>
      </g>
     </g>
     <g id="text_4">
      <!-- 600 -->
      <defs>
       <path d="M 33.015625 40.375 
Q 26.375 40.375 22.484375 35.828125 
Q 18.609375 31.296875 18.609375 23.390625 
Q 18.609375 15.53125 22.484375 10.953125 
Q 26.375 6.390625 33.015625 6.390625 
Q 39.65625 6.390625 43.53125 10.953125 
Q 47.40625 15.53125 47.40625 23.390625 
Q 47.40625 31.296875 43.53125 35.828125 
Q 39.65625 40.375 33.015625 40.375 
z
M 52.59375 71.296875 
L 52.59375 62.3125 
Q 48.875 64.0625 45.09375 64.984375 
Q 41.3125 65.921875 37.59375 65.921875 
Q 27.828125 65.921875 22.671875 59.328125 
Q 17.53125 52.734375 16.796875 39.40625 
Q 19.671875 43.65625 24.015625 45.921875 
Q 28.375 48.1875 33.59375 48.1875 
Q 44.578125 48.1875 50.953125 41.515625 
Q 57.328125 34.859375 57.328125 23.390625 
Q 57.328125 12.15625 50.6875 5.359375 
Q 44.046875 -1.421875 33.015625 -1.421875 
Q 20.359375 -1.421875 13.671875 8.265625 
Q 6.984375 17.96875 6.984375 36.375 
Q 6.984375 53.65625 15.1875 63.9375 
Q 23.390625 74.21875 37.203125 74.21875 
Q 40.921875 74.21875 44.703125 73.484375 
Q 48.484375 72.75 52.59375 71.296875 
z
" id="DejaVuSans-54"/>
      </defs>
      <g transform="translate(200.446409 303.028562)scale(0.1 -0.1)">
       <use xlink:href="#DejaVuSans-54"/>
       <use x="63.623047" xlink:href="#DejaVuSans-48"/>
       <use x="127.246094" xlink:href="#DejaVuSans-48"/>
      </g>
     </g>
    </g>
    <g id="xtick_5">
     <g id="line2d_9">
      <path clip-path="url(#pf4edf81170)" d="M 258.920761 288.430125 
L 258.920761 22.318125 
" style="fill:none;stroke:#b0b0b0;stroke-dasharray:2.96,1.28;stroke-dashoffset:0;stroke-width:0.8;"/>
     </g>
     <g id="line2d_10">
      <g>
       <use style="stroke:#000000;stroke-width:0.8;" x="258.920761" xlink:href="#m57f200db0d" y="288.430125"/>
      </g>
     </g>
     <g id="text_5">
      <!-- 800 -->
      <defs>
       <path d="M 31.78125 34.625 
Q 24.75 34.625 20.71875 30.859375 
Q 16.703125 27.09375 16.703125 20.515625 
Q 16.703125 13.921875 20.71875 10.15625 
Q 24.75 6.390625 31.78125 6.390625 
Q 38.8125 6.390625 42.859375 10.171875 
Q 46.921875 13.96875 46.921875 20.515625 
Q 46.921875 27.09375 42.890625 30.859375 
Q 38.875 34.625 31.78125 34.625 
z
M 21.921875 38.8125 
Q 15.578125 40.375 12.03125 44.71875 
Q 8.5 49.078125 8.5 55.328125 
Q 8.5 64.0625 14.71875 69.140625 
Q 20.953125 74.21875 31.78125 74.21875 
Q 42.671875 74.21875 48.875 69.140625 
Q 55.078125 64.0625 55.078125 55.328125 
Q 55.078125 49.078125 51.53125 44.71875 
Q 48 40.375 41.703125 38.8125 
Q 48.828125 37.15625 52.796875 32.3125 
Q 56.78125 27.484375 56.78125 20.515625 
Q 56.78125 9.90625 50.3125 4.234375 
Q 43.84375 -1.421875 31.78125 -1.421875 
Q 19.734375 -1.421875 13.25 4.234375 
Q 6.78125 9.90625 6.78125 20.515625 
Q 6.78125 27.484375 10.78125 32.3125 
Q 14.796875 37.15625 21.921875 38.8125 
z
M 18.3125 54.390625 
Q 18.3125 48.734375 21.84375 45.5625 
Q 25.390625 42.390625 31.78125 42.390625 
Q 38.140625 42.390625 41.71875 45.5625 
Q 45.3125 48.734375 45.3125 54.390625 
Q 45.3125 60.0625 41.71875 63.234375 
Q 38.140625 66.40625 31.78125 66.40625 
Q 25.390625 66.40625 21.84375 63.234375 
Q 18.3125 60.0625 18.3125 54.390625 
z
" id="DejaVuSans-56"/>
      </defs>
      <g transform="translate(249.377011 303.028562)scale(0.1 -0.1)">
       <use xlink:href="#DejaVuSans-56"/>
       <use x="63.623047" xlink:href="#DejaVuSans-48"/>
       <use x="127.246094" xlink:href="#DejaVuSans-48"/>
      </g>
     </g>
    </g>
    <g id="xtick_6">
     <g id="line2d_11">
      <path clip-path="url(#pf4edf81170)" d="M 307.851363 288.430125 
L 307.851363 22.318125 
" style="fill:none;stroke:#b0b0b0;stroke-dasharray:2.96,1.28;stroke-dashoffset:0;stroke-width:0.8;"/>
     </g>
     <g id="line2d_12">
      <g>
       <use style="stroke:#000000;stroke-width:0.8;" x="307.851363" xlink:href="#m57f200db0d" y="288.430125"/>
      </g>
     </g>
     <g id="text_6">
      <!-- 1000 -->
      <defs>
       <path d="M 12.40625 8.296875 
L 28.515625 8.296875 
L 28.515625 63.921875 
L 10.984375 60.40625 
L 10.984375 69.390625 
L 28.421875 72.90625 
L 38.28125 72.90625 
L 38.28125 8.296875 
L 54.390625 8.296875 
L 54.390625 0 
L 12.40625 0 
z
" id="DejaVuSans-49"/>
      </defs>
      <g transform="translate(295.126363 303.028562)scale(0.1 -0.1)">
       <use xlink:href="#DejaVuSans-49"/>
       <use x="63.623047" xlink:href="#DejaVuSans-48"/>
       <use x="127.246094" xlink:href="#DejaVuSans-48"/>
       <use x="190.869141" xlink:href="#DejaVuSans-48"/>
      </g>
     </g>
    </g>
    <g id="xtick_7">
     <g id="line2d_13">
      <path clip-path="url(#pf4edf81170)" d="M 356.781965 288.430125 
L 356.781965 22.318125 
" style="fill:none;stroke:#b0b0b0;stroke-dasharray:2.96,1.28;stroke-dashoffset:0;stroke-width:0.8;"/>
     </g>
     <g id="line2d_14">
      <g>
       <use style="stroke:#000000;stroke-width:0.8;" x="356.781965" xlink:href="#m57f200db0d" y="288.430125"/>
      </g>
     </g>
     <g id="text_7">
      <!-- 1200 -->
      <g transform="translate(344.056965 303.028562)scale(0.1 -0.1)">
       <use xlink:href="#DejaVuSans-49"/>
       <use x="63.623047" xlink:href="#DejaVuSans-50"/>
       <use x="127.246094" xlink:href="#DejaVuSans-48"/>
       <use x="190.869141" xlink:href="#DejaVuSans-48"/>
      </g>
     </g>
    </g>
    <g id="text_8">
     <!-- Day -->
     <defs>
      <path d="M 19.671875 64.796875 
L 19.671875 8.109375 
L 31.59375 8.109375 
Q 46.6875 8.109375 53.6875 14.9375 
Q 60.6875 21.78125 60.6875 36.53125 
Q 60.6875 51.171875 53.6875 57.984375 
Q 46.6875 64.796875 31.59375 64.796875 
z
M 9.8125 72.90625 
L 30.078125 72.90625 
Q 51.265625 72.90625 61.171875 64.09375 
Q 71.09375 55.28125 71.09375 36.53125 
Q 71.09375 17.671875 61.125 8.828125 
Q 51.171875 0 30.078125 0 
L 9.8125 0 
z
" id="DejaVuSans-68"/>
      <path d="M 34.28125 27.484375 
Q 23.390625 27.484375 19.1875 25 
Q 14.984375 22.515625 14.984375 16.5 
Q 14.984375 11.71875 18.140625 8.90625 
Q 21.296875 6.109375 26.703125 6.109375 
Q 34.1875 6.109375 38.703125 11.40625 
Q 43.21875 16.703125 43.21875 25.484375 
L 43.21875 27.484375 
z
M 52.203125 31.203125 
L 52.203125 0 
L 43.21875 0 
L 43.21875 8.296875 
Q 40.140625 3.328125 35.546875 0.953125 
Q 30.953125 -1.421875 24.3125 -1.421875 
Q 15.921875 -1.421875 10.953125 3.296875 
Q 6 8.015625 6 15.921875 
Q 6 25.140625 12.171875 29.828125 
Q 18.359375 34.515625 30.609375 34.515625 
L 43.21875 34.515625 
L 43.21875 35.40625 
Q 43.21875 41.609375 39.140625 45 
Q 35.0625 48.390625 27.6875 48.390625 
Q 23 48.390625 18.546875 47.265625 
Q 14.109375 46.140625 10.015625 43.890625 
L 10.015625 52.203125 
Q 14.9375 54.109375 19.578125 55.046875 
Q 24.21875 56 28.609375 56 
Q 40.484375 56 46.34375 49.84375 
Q 52.203125 43.703125 52.203125 31.203125 
z
" id="DejaVuSans-97"/>
      <path d="M 32.171875 -5.078125 
Q 28.375 -14.84375 24.75 -17.8125 
Q 21.140625 -20.796875 15.09375 -20.796875 
L 7.90625 -20.796875 
L 7.90625 -13.28125 
L 13.1875 -13.28125 
Q 16.890625 -13.28125 18.9375 -11.515625 
Q 21 -9.765625 23.484375 -3.21875 
L 25.09375 0.875 
L 2.984375 54.6875 
L 12.5 54.6875 
L 29.59375 11.921875 
L 46.6875 54.6875 
L 56.203125 54.6875 
z
" id="DejaVuSans-121"/>
     </defs>
     <g transform="translate(215.652188 316.706687)scale(0.1 -0.1)">
      <use xlink:href="#DejaVuSans-68"/>
      <use x="77.001953" xlink:href="#DejaVuSans-97"/>
      <use x="138.28125" xlink:href="#DejaVuSans-121"/>
     </g>
    </g>
   </g>
   <g id="matplotlib.axis_2">
    <g id="ytick_1">
     <g id="line2d_15">
      <path clip-path="url(#pf4edf81170)" d="M 46.965625 265.22286 
L 404.085625 265.22286 
" style="fill:none;stroke:#b0b0b0;stroke-dasharray:2.96,1.28;stroke-dashoffset:0;stroke-width:0.8;"/>
     </g>
     <g id="line2d_16">
      <defs>
       <path d="M 0 0 
L -3.5 0 
" id="macdbe60260" style="stroke:#000000;stroke-width:0.8;"/>
      </defs>
      <g>
       <use style="stroke:#000000;stroke-width:0.8;" x="46.965625" xlink:href="#macdbe60260" y="265.22286"/>
      </g>
     </g>
     <g id="text_9">
      <!-- 30 -->
      <defs>
       <path d="M 40.578125 39.3125 
Q 47.65625 37.796875 51.625 33 
Q 55.609375 28.21875 55.609375 21.1875 
Q 55.609375 10.40625 48.1875 4.484375 
Q 40.765625 -1.421875 27.09375 -1.421875 
Q 22.515625 -1.421875 17.65625 -0.515625 
Q 12.796875 0.390625 7.625 2.203125 
L 7.625 11.71875 
Q 11.71875 9.328125 16.59375 8.109375 
Q 21.484375 6.890625 26.8125 6.890625 
Q 36.078125 6.890625 40.9375 10.546875 
Q 45.796875 14.203125 45.796875 21.1875 
Q 45.796875 27.640625 41.28125 31.265625 
Q 36.765625 34.90625 28.71875 34.90625 
L 20.21875 34.90625 
L 20.21875 43.015625 
L 29.109375 43.015625 
Q 36.375 43.015625 40.234375 45.921875 
Q 44.09375 48.828125 44.09375 54.296875 
Q 44.09375 59.90625 40.109375 62.90625 
Q 36.140625 65.921875 28.71875 65.921875 
Q 24.65625 65.921875 20.015625 65.03125 
Q 15.375 64.15625 9.8125 62.3125 
L 9.8125 71.09375 
Q 15.4375 72.65625 20.34375 73.4375 
Q 25.25 74.21875 29.59375 74.21875 
Q 40.828125 74.21875 47.359375 69.109375 
Q 53.90625 64.015625 53.90625 55.328125 
Q 53.90625 49.265625 50.4375 45.09375 
Q 46.96875 40.921875 40.578125 39.3125 
z
" id="DejaVuSans-51"/>
      </defs>
      <g transform="translate(27.240625 269.022078)scale(0.1 -0.1)">
       <use xlink:href="#DejaVuSans-51"/>
       <use x="63.623047" xlink:href="#DejaVuSans-48"/>
      </g>
     </g>
    </g>
    <g id="ytick_2">
     <g id="line2d_17">
      <path clip-path="url(#pf4edf81170)" d="M 46.965625 231.459559 
L 404.085625 231.459559 
" style="fill:none;stroke:#b0b0b0;stroke-dasharray:2.96,1.28;stroke-dashoffset:0;stroke-width:0.8;"/>
     </g>
     <g id="line2d_18">
      <g>
       <use style="stroke:#000000;stroke-width:0.8;" x="46.965625" xlink:href="#macdbe60260" y="231.459559"/>
      </g>
     </g>
     <g id="text_10">
      <!-- 40 -->
      <g transform="translate(27.240625 235.258778)scale(0.1 -0.1)">
       <use xlink:href="#DejaVuSans-52"/>
       <use x="63.623047" xlink:href="#DejaVuSans-48"/>
      </g>
     </g>
    </g>
    <g id="ytick_3">
     <g id="line2d_19">
      <path clip-path="url(#pf4edf81170)" d="M 46.965625 197.696258 
L 404.085625 197.696258 
" style="fill:none;stroke:#b0b0b0;stroke-dasharray:2.96,1.28;stroke-dashoffset:0;stroke-width:0.8;"/>
     </g>
     <g id="line2d_20">
      <g>
       <use style="stroke:#000000;stroke-width:0.8;" x="46.965625" xlink:href="#macdbe60260" y="197.696258"/>
      </g>
     </g>
     <g id="text_11">
      <!-- 50 -->
      <defs>
       <path d="M 10.796875 72.90625 
L 49.515625 72.90625 
L 49.515625 64.59375 
L 19.828125 64.59375 
L 19.828125 46.734375 
Q 21.96875 47.46875 24.109375 47.828125 
Q 26.265625 48.1875 28.421875 48.1875 
Q 40.625 48.1875 47.75 41.5 
Q 54.890625 34.8125 54.890625 23.390625 
Q 54.890625 11.625 47.5625 5.09375 
Q 40.234375 -1.421875 26.90625 -1.421875 
Q 22.3125 -1.421875 17.546875 -0.640625 
Q 12.796875 0.140625 7.71875 1.703125 
L 7.71875 11.625 
Q 12.109375 9.234375 16.796875 8.0625 
Q 21.484375 6.890625 26.703125 6.890625 
Q 35.15625 6.890625 40.078125 11.328125 
Q 45.015625 15.765625 45.015625 23.390625 
Q 45.015625 31 40.078125 35.4375 
Q 35.15625 39.890625 26.703125 39.890625 
Q 22.75 39.890625 18.8125 39.015625 
Q 14.890625 38.140625 10.796875 36.28125 
z
" id="DejaVuSans-53"/>
      </defs>
      <g transform="translate(27.240625 201.495477)scale(0.1 -0.1)">
       <use xlink:href="#DejaVuSans-53"/>
       <use x="63.623047" xlink:href="#DejaVuSans-48"/>
      </g>
     </g>
    </g>
    <g id="ytick_4">
     <g id="line2d_21">
      <path clip-path="url(#pf4edf81170)" d="M 46.965625 163.932957 
L 404.085625 163.932957 
" style="fill:none;stroke:#b0b0b0;stroke-dasharray:2.96,1.28;stroke-dashoffset:0;stroke-width:0.8;"/>
     </g>
     <g id="line2d_22">
      <g>
       <use style="stroke:#000000;stroke-width:0.8;" x="46.965625" xlink:href="#macdbe60260" y="163.932957"/>
      </g>
     </g>
     <g id="text_12">
      <!-- 60 -->
      <g transform="translate(27.240625 167.732176)scale(0.1 -0.1)">
       <use xlink:href="#DejaVuSans-54"/>
       <use x="63.623047" xlink:href="#DejaVuSans-48"/>
      </g>
     </g>
    </g>
    <g id="ytick_5">
     <g id="line2d_23">
      <path clip-path="url(#pf4edf81170)" d="M 46.965625 130.169656 
L 404.085625 130.169656 
" style="fill:none;stroke:#b0b0b0;stroke-dasharray:2.96,1.28;stroke-dashoffset:0;stroke-width:0.8;"/>
     </g>
     <g id="line2d_24">
      <g>
       <use style="stroke:#000000;stroke-width:0.8;" x="46.965625" xlink:href="#macdbe60260" y="130.169656"/>
      </g>
     </g>
     <g id="text_13">
      <!-- 70 -->
      <defs>
       <path d="M 8.203125 72.90625 
L 55.078125 72.90625 
L 55.078125 68.703125 
L 28.609375 0 
L 18.3125 0 
L 43.21875 64.59375 
L 8.203125 64.59375 
z
" id="DejaVuSans-55"/>
      </defs>
      <g transform="translate(27.240625 133.968875)scale(0.1 -0.1)">
       <use xlink:href="#DejaVuSans-55"/>
       <use x="63.623047" xlink:href="#DejaVuSans-48"/>
      </g>
     </g>
    </g>
    <g id="ytick_6">
     <g id="line2d_25">
      <path clip-path="url(#pf4edf81170)" d="M 46.965625 96.406355 
L 404.085625 96.406355 
" style="fill:none;stroke:#b0b0b0;stroke-dasharray:2.96,1.28;stroke-dashoffset:0;stroke-width:0.8;"/>
     </g>
     <g id="line2d_26">
      <g>
       <use style="stroke:#000000;stroke-width:0.8;" x="46.965625" xlink:href="#macdbe60260" y="96.406355"/>
      </g>
     </g>
     <g id="text_14">
      <!-- 80 -->
      <g transform="translate(27.240625 100.205574)scale(0.1 -0.1)">
       <use xlink:href="#DejaVuSans-56"/>
       <use x="63.623047" xlink:href="#DejaVuSans-48"/>
      </g>
     </g>
    </g>
    <g id="ytick_7">
     <g id="line2d_27">
      <path clip-path="url(#pf4edf81170)" d="M 46.965625 62.643054 
L 404.085625 62.643054 
" style="fill:none;stroke:#b0b0b0;stroke-dasharray:2.96,1.28;stroke-dashoffset:0;stroke-width:0.8;"/>
     </g>
     <g id="line2d_28">
      <g>
       <use style="stroke:#000000;stroke-width:0.8;" x="46.965625" xlink:href="#macdbe60260" y="62.643054"/>
      </g>
     </g>
     <g id="text_15">
      <!-- 90 -->
      <defs>
       <path d="M 10.984375 1.515625 
L 10.984375 10.5 
Q 14.703125 8.734375 18.5 7.8125 
Q 22.3125 6.890625 25.984375 6.890625 
Q 35.75 6.890625 40.890625 13.453125 
Q 46.046875 20.015625 46.78125 33.40625 
Q 43.953125 29.203125 39.59375 26.953125 
Q 35.25 24.703125 29.984375 24.703125 
Q 19.046875 24.703125 12.671875 31.3125 
Q 6.296875 37.9375 6.296875 49.421875 
Q 6.296875 60.640625 12.9375 67.421875 
Q 19.578125 74.21875 30.609375 74.21875 
Q 43.265625 74.21875 49.921875 64.515625 
Q 56.59375 54.828125 56.59375 36.375 
Q 56.59375 19.140625 48.40625 8.859375 
Q 40.234375 -1.421875 26.421875 -1.421875 
Q 22.703125 -1.421875 18.890625 -0.6875 
Q 15.09375 0.046875 10.984375 1.515625 
z
M 30.609375 32.421875 
Q 37.25 32.421875 41.125 36.953125 
Q 45.015625 41.5 45.015625 49.421875 
Q 45.015625 57.28125 41.125 61.84375 
Q 37.25 66.40625 30.609375 66.40625 
Q 23.96875 66.40625 20.09375 61.84375 
Q 16.21875 57.28125 16.21875 49.421875 
Q 16.21875 41.5 20.09375 36.953125 
Q 23.96875 32.421875 30.609375 32.421875 
z
" id="DejaVuSans-57"/>
      </defs>
      <g transform="translate(27.240625 66.442273)scale(0.1 -0.1)">
       <use xlink:href="#DejaVuSans-57"/>
       <use x="63.623047" xlink:href="#DejaVuSans-48"/>
      </g>
     </g>
    </g>
    <g id="ytick_8">
     <g id="line2d_29">
      <path clip-path="url(#pf4edf81170)" d="M 46.965625 28.879753 
L 404.085625 28.879753 
" style="fill:none;stroke:#b0b0b0;stroke-dasharray:2.96,1.28;stroke-dashoffset:0;stroke-width:0.8;"/>
     </g>
     <g id="line2d_30">
      <g>
       <use style="stroke:#000000;stroke-width:0.8;" x="46.965625" xlink:href="#macdbe60260" y="28.879753"/>
      </g>
     </g>
     <g id="text_16">
      <!-- 100 -->
      <g transform="translate(20.878125 32.678972)scale(0.1 -0.1)">
       <use xlink:href="#DejaVuSans-49"/>
       <use x="63.623047" xlink:href="#DejaVuSans-48"/>
       <use x="127.246094" xlink:href="#DejaVuSans-48"/>
      </g>
     </g>
    </g>
    <g id="text_17">
     <!-- Price $ -->
     <defs>
      <path d="M 19.671875 64.796875 
L 19.671875 37.40625 
L 32.078125 37.40625 
Q 38.96875 37.40625 42.71875 40.96875 
Q 46.484375 44.53125 46.484375 51.125 
Q 46.484375 57.671875 42.71875 61.234375 
Q 38.96875 64.796875 32.078125 64.796875 
z
M 9.8125 72.90625 
L 32.078125 72.90625 
Q 44.34375 72.90625 50.609375 67.359375 
Q 56.890625 61.8125 56.890625 51.125 
Q 56.890625 40.328125 50.609375 34.8125 
Q 44.34375 29.296875 32.078125 29.296875 
L 19.671875 29.296875 
L 19.671875 0 
L 9.8125 0 
z
" id="DejaVuSans-80"/>
      <path d="M 41.109375 46.296875 
Q 39.59375 47.171875 37.8125 47.578125 
Q 36.03125 48 33.890625 48 
Q 26.265625 48 22.1875 43.046875 
Q 18.109375 38.09375 18.109375 28.8125 
L 18.109375 0 
L 9.078125 0 
L 9.078125 54.6875 
L 18.109375 54.6875 
L 18.109375 46.1875 
Q 20.953125 51.171875 25.484375 53.578125 
Q 30.03125 56 36.53125 56 
Q 37.453125 56 38.578125 55.875 
Q 39.703125 55.765625 41.0625 55.515625 
z
" id="DejaVuSans-114"/>
      <path d="M 9.421875 54.6875 
L 18.40625 54.6875 
L 18.40625 0 
L 9.421875 0 
z
M 9.421875 75.984375 
L 18.40625 75.984375 
L 18.40625 64.59375 
L 9.421875 64.59375 
z
" id="DejaVuSans-105"/>
      <path d="M 48.78125 52.59375 
L 48.78125 44.1875 
Q 44.96875 46.296875 41.140625 47.34375 
Q 37.3125 48.390625 33.40625 48.390625 
Q 24.65625 48.390625 19.8125 42.84375 
Q 14.984375 37.3125 14.984375 27.296875 
Q 14.984375 17.28125 19.8125 11.734375 
Q 24.65625 6.203125 33.40625 6.203125 
Q 37.3125 6.203125 41.140625 7.25 
Q 44.96875 8.296875 48.78125 10.40625 
L 48.78125 2.09375 
Q 45.015625 0.34375 40.984375 -0.53125 
Q 36.96875 -1.421875 32.421875 -1.421875 
Q 20.0625 -1.421875 12.78125 6.34375 
Q 5.515625 14.109375 5.515625 27.296875 
Q 5.515625 40.671875 12.859375 48.328125 
Q 20.21875 56 33.015625 56 
Q 37.15625 56 41.109375 55.140625 
Q 45.0625 54.296875 48.78125 52.59375 
z
" id="DejaVuSans-99"/>
      <path d="M 56.203125 29.59375 
L 56.203125 25.203125 
L 14.890625 25.203125 
Q 15.484375 15.921875 20.484375 11.0625 
Q 25.484375 6.203125 34.421875 6.203125 
Q 39.59375 6.203125 44.453125 7.46875 
Q 49.3125 8.734375 54.109375 11.28125 
L 54.109375 2.78125 
Q 49.265625 0.734375 44.1875 -0.34375 
Q 39.109375 -1.421875 33.890625 -1.421875 
Q 20.796875 -1.421875 13.15625 6.1875 
Q 5.515625 13.8125 5.515625 26.8125 
Q 5.515625 40.234375 12.765625 48.109375 
Q 20.015625 56 32.328125 56 
Q 43.359375 56 49.78125 48.890625 
Q 56.203125 41.796875 56.203125 29.59375 
z
M 47.21875 32.234375 
Q 47.125 39.59375 43.09375 43.984375 
Q 39.0625 48.390625 32.421875 48.390625 
Q 24.90625 48.390625 20.390625 44.140625 
Q 15.875 39.890625 15.1875 32.171875 
z
" id="DejaVuSans-101"/>
      <path id="DejaVuSans-32"/>
      <path d="M 33.796875 -14.703125 
L 28.90625 -14.703125 
L 28.859375 0 
Q 23.734375 0.09375 18.609375 1.1875 
Q 13.484375 2.296875 8.296875 4.5 
L 8.296875 13.28125 
Q 13.28125 10.15625 18.375 8.5625 
Q 23.484375 6.984375 28.90625 6.9375 
L 28.90625 29.203125 
Q 18.109375 30.953125 13.203125 35.15625 
Q 8.296875 39.359375 8.296875 46.6875 
Q 8.296875 54.640625 13.625 59.21875 
Q 18.953125 63.8125 28.90625 64.5 
L 28.90625 75.984375 
L 33.796875 75.984375 
L 33.796875 64.65625 
Q 38.328125 64.453125 42.578125 63.6875 
Q 46.828125 62.9375 50.875 61.625 
L 50.875 53.078125 
Q 46.828125 55.125 42.546875 56.25 
Q 38.28125 57.375 33.796875 57.5625 
L 33.796875 36.71875 
Q 44.875 35.015625 50.09375 30.609375 
Q 55.328125 26.21875 55.328125 18.609375 
Q 55.328125 10.359375 49.78125 5.59375 
Q 44.234375 0.828125 33.796875 0.09375 
z
M 28.90625 37.59375 
L 28.90625 57.625 
Q 23.25 56.984375 20.265625 54.390625 
Q 17.28125 51.8125 17.28125 47.515625 
Q 17.28125 43.3125 20.03125 40.96875 
Q 22.796875 38.625 28.90625 37.59375 
z
M 33.796875 28.21875 
L 33.796875 7.078125 
Q 39.984375 7.90625 43.140625 10.59375 
Q 46.296875 13.28125 46.296875 17.671875 
Q 46.296875 21.96875 43.28125 24.5 
Q 40.28125 27.046875 33.796875 28.21875 
z
" id="DejaVuSans-36"/>
     </defs>
     <g transform="translate(14.798438 172.342094)rotate(-90)scale(0.1 -0.1)">
      <use xlink:href="#DejaVuSans-80"/>
      <use x="58.552734" xlink:href="#DejaVuSans-114"/>
      <use x="99.666016" xlink:href="#DejaVuSans-105"/>
      <use x="127.449219" xlink:href="#DejaVuSans-99"/>
      <use x="182.429688" xlink:href="#DejaVuSans-101"/>
      <use x="243.953125" xlink:href="#DejaVuSans-32"/>
      <use x="275.740234" xlink:href="#DejaVuSans-36"/>
     </g>
    </g>
   </g>
   <g id="line2d_31">
    <path clip-path="url(#pf4edf81170)" d="M 63.198352 274.657017 
L 63.443005 273.519349 
L 63.687658 273.244786 
L 63.932311 274.207735 
L 64.176964 271.989842 
L 64.421617 271.665596 
L 64.910923 268.179905 
L 65.155576 267.641283 
L 65.400229 266.656722 
L 65.644882 267.962238 
L 65.889535 268.548141 
L 66.378841 265.063815 
L 66.868147 267.858409 
L 67.1128 267.056752 
L 67.357453 268.299911 
L 67.602106 268.595371 
L 67.846759 267.100948 
L 68.336066 268.879007 
L 68.580719 268.113948 
L 68.825372 269.711923 
L 69.070025 268.970337 
L 69.314678 270.634031 
L 69.559331 270.68904 
L 69.803984 268.060961 
L 70.048637 268.341989 
L 70.537943 271.8667 
L 71.027249 269.19378 
L 71.271902 267.179766 
L 71.761208 270.992897 
L 72.005861 270.635769 
L 72.250514 270.043401 
L 72.495167 269.134939 
L 73.229126 274.78374 
L 73.473779 273.564479 
L 73.718432 274.939423 
L 73.963085 274.040486 
L 74.207738 274.086428 
L 74.452391 275.3211 
L 74.941697 272.13345 
L 75.431003 274.986563 
L 75.675656 276.334125 
L 75.920309 274.80335 
L 76.164962 275.272286 
L 76.654268 270.265305 
L 76.898921 271.371927 
L 77.143574 270.723345 
L 77.63288 274.65117 
L 77.877533 273.374633 
L 78.122186 274.70766 
L 78.611492 270.757772 
L 78.856145 271.432629 
L 79.100798 270.240267 
L 79.345451 270.358328 
L 79.834757 266.38876 
L 80.324063 269.327954 
L 80.568716 267.16015 
L 80.813369 267.660622 
L 81.058022 268.512207 
L 81.302675 270.172429 
L 81.547328 270.205247 
L 81.791981 271.828273 
L 82.281287 268.359827 
L 82.52594 269.127327 
L 82.770593 267.565081 
L 83.015246 266.99064 
L 83.259899 268.171166 
L 83.504552 266.505772 
L 83.749205 266.080781 
L 83.993858 267.918061 
L 84.238511 267.819016 
L 84.483164 267.457168 
L 84.727817 266.777057 
L 84.97247 267.534974 
L 85.217123 266.285839 
L 85.461776 266.756288 
L 85.706429 263.302584 
L 85.951082 261.948736 
L 86.195735 264.284492 
L 86.685041 262.827588 
L 86.929694 261.616273 
L 87.174347 262.356069 
L 87.419 261.935277 
L 87.663653 263.784309 
L 87.908306 262.703524 
L 88.152959 263.721914 
L 88.642265 264.940969 
L 89.131571 258.935542 
L 89.376224 258.667593 
L 89.620877 260.389233 
L 89.86553 259.652786 
L 90.110183 261.482428 
L 90.599489 257.443238 
L 90.844143 257.575101 
L 91.333449 259.129555 
L 91.822755 255.583684 
L 92.067408 253.341525 
L 92.556714 256.075288 
L 92.801367 255.50969 
L 93.04602 256.946933 
L 93.290673 255.734389 
L 93.535326 257.824966 
L 94.024632 255.691963 
L 94.269285 254.179618 
L 94.513938 255.135007 
L 94.758591 253.778674 
L 95.003244 254.535909 
L 95.247897 254.339803 
L 95.49255 251.746197 
L 95.981856 254.583873 
L 96.226509 253.282356 
L 96.471162 253.031151 
L 96.715815 254.405476 
L 96.960468 253.245417 
L 97.205121 255.839783 
L 97.449774 256.628869 
L 97.694427 253.047662 
L 97.93908 253.00324 
L 98.183733 252.699602 
L 98.428386 252.07723 
L 98.673039 251.091432 
L 98.917692 251.174146 
L 99.162345 250.823574 
L 99.651651 248.917098 
L 99.896304 248.81088 
L 100.140957 248.536465 
L 100.630263 247.403917 
L 100.874916 248.807299 
L 101.119569 247.703884 
L 101.608875 250.898044 
L 102.098181 249.654125 
L 102.342834 251.576868 
L 102.587487 251.511825 
L 102.83214 250.769518 
L 103.076793 249.351208 
L 103.321446 249.405135 
L 103.566099 247.571494 
L 104.300058 252.012948 
L 104.544711 251.028335 
L 104.789364 252.028777 
L 105.27867 247.780467 
L 105.523323 246.528961 
L 105.767976 247.20262 
L 106.012629 246.257303 
L 106.257282 248.39153 
L 106.501935 247.619123 
L 106.991241 253.905037 
L 107.969853 245.408687 
L 108.214506 245.345873 
L 108.459159 247.368716 
L 109.193118 244.152687 
L 109.682424 242.501151 
L 110.416383 242.024462 
L 110.661036 243.033159 
L 110.905689 241.743067 
L 111.150342 243.77508 
L 111.394995 244.371422 
L 111.639648 242.921853 
L 111.884301 244.226178 
L 112.128954 242.452994 
L 112.373607 243.404442 
L 112.61826 243.747299 
L 113.107566 246.828813 
L 113.35222 245.221429 
L 113.596873 244.660159 
L 113.841526 245.340038 
L 114.086179 244.004017 
L 114.330832 246.305589 
L 114.820138 243.637835 
L 115.309444 247.241916 
L 115.554097 245.00809 
L 115.79875 243.983474 
L 116.288056 250.070512 
L 116.777362 247.04639 
L 117.266668 244.776771 
L 117.755974 249.950641 
L 118.000627 250.281005 
L 118.24528 251.304604 
L 118.489933 249.105257 
L 118.734586 249.142415 
L 118.979239 250.011897 
L 119.223892 249.304017 
L 119.468545 249.425369 
L 119.713198 248.728463 
L 120.202504 246.053444 
L 120.447157 246.870415 
L 121.425769 240.489732 
L 121.915075 239.573536 
L 122.159728 239.037987 
L 122.649034 241.655073 
L 122.893687 239.885238 
L 123.382993 234.567515 
L 123.627646 234.478542 
L 124.116952 237.270315 
L 124.361605 236.592355 
L 124.606258 235.312463 
L 125.095564 231.365177 
L 125.829523 233.763978 
L 126.074176 232.59695 
L 126.318829 232.28172 
L 126.563482 233.269269 
L 126.808135 232.167902 
L 127.297441 236.980729 
L 127.542094 236.32031 
L 127.786747 237.527484 
L 128.0314 235.906628 
L 128.276053 237.593003 
L 128.765359 235.014556 
L 129.010012 234.872042 
L 129.254665 237.934147 
L 129.499318 237.743618 
L 129.743971 236.976556 
L 129.988624 238.338646 
L 130.722583 233.241076 
L 130.967236 235.075554 
L 131.456542 230.643464 
L 131.701195 231.374527 
L 131.945848 232.513902 
L 132.190501 231.274272 
L 132.435154 230.629399 
L 132.92446 228.358738 
L 133.169113 229.157961 
L 133.413766 229.569492 
L 133.903072 231.492196 
L 134.147725 230.442 
L 134.392378 230.410754 
L 134.637031 232.282828 
L 135.126337 230.533768 
L 135.37099 231.206563 
L 135.615643 231.363786 
L 135.860297 231.93478 
L 136.349603 234.823692 
L 136.594256 234.056385 
L 137.328215 229.802086 
L 137.572868 231.215515 
L 137.817521 229.460259 
L 138.062174 230.970827 
L 138.306827 229.379143 
L 138.55148 228.944106 
L 139.040786 234.18844 
L 139.285439 233.288988 
L 139.530092 231.783006 
L 140.019398 226.066722 
L 140.264051 226.484371 
L 140.508704 224.215462 
L 140.753357 224.857552 
L 140.99801 225.117297 
L 141.242663 225.710161 
L 141.487316 224.41511 
L 141.731969 226.140651 
L 141.976622 224.910526 
L 142.221275 226.778015 
L 142.710581 224.603501 
L 142.955234 222.38978 
L 143.689193 224.675537 
L 143.933846 225.787671 
L 144.423152 222.479642 
L 144.667805 223.862984 
L 144.912458 222.521308 
L 145.157111 224.034193 
L 145.401764 221.807748 
L 145.646417 222.818699 
L 145.89107 221.737051 
L 146.135723 224.258506 
L 146.625029 220.619907 
L 146.869682 218.471435 
L 147.848294 225.811885 
L 148.582253 221.830042 
L 148.826906 223.379828 
L 149.560865 219.677913 
L 149.805518 219.469532 
L 150.294824 218.527835 
L 150.539477 218.559545 
L 150.78413 221.209912 
L 151.028783 220.747403 
L 151.273436 222.253397 
L 151.518089 222.847988 
L 151.762742 220.981813 
L 152.007395 222.098197 
L 152.252048 221.596701 
L 152.496701 224.27628 
L 152.986007 219.135601 
L 153.23066 221.258726 
L 153.719966 218.707403 
L 153.964619 216.010116 
L 154.209272 217.815074 
L 154.698578 223.731134 
L 154.943231 222.245 
L 155.187884 224.208378 
L 155.432537 222.539841 
L 155.921843 227.250493 
L 156.166496 230.165229 
L 156.655802 228.128076 
L 157.389761 221.768375 
L 157.634414 220.343547 
L 157.879067 219.806439 
L 158.368374 218.302415 
L 158.613027 219.213922 
L 158.85768 217.205131 
L 159.102333 218.46788 
L 159.346986 216.749486 
L 159.591639 216.808823 
L 159.836292 216.620007 
L 160.325598 215.397275 
L 160.570251 216.503897 
L 160.814904 214.256032 
L 161.059557 214.71187 
L 161.30421 212.773504 
L 161.793516 211.551184 
L 162.038169 212.781812 
L 162.282822 210.807808 
L 162.772128 217.594393 
L 163.261434 213.660566 
L 163.506087 212.588745 
L 163.995393 206.934438 
L 164.240046 210.037784 
L 164.484699 208.986158 
L 164.729352 210.626217 
L 164.974005 211.20257 
L 165.463311 206.967153 
L 165.707964 205.568291 
L 165.952617 204.92763 
L 166.19727 205.313891 
L 166.686576 211.385874 
L 166.931229 208.548468 
L 167.175882 207.792598 
L 167.665188 216.252202 
L 168.154494 212.71333 
L 168.399147 214.456298 
L 169.377759 208.62129 
L 169.622412 204.497629 
L 169.867065 208.23562 
L 170.111718 213.881904 
L 170.356371 211.824813 
L 170.845677 214.716391 
L 171.09033 211.804695 
L 171.579636 214.094843 
L 172.068942 211.292019 
L 172.313595 211.595787 
L 172.558248 208.383724 
L 172.802901 209.863238 
L 173.292207 215.816598 
L 173.53686 214.97902 
L 174.026166 211.674043 
L 174.270819 213.395502 
L 174.515472 211.148231 
L 175.004778 210.224101 
L 175.494084 209.34554 
L 175.98339 208.122305 
L 176.228043 207.93649 
L 176.472696 209.389897 
L 176.717349 207.285345 
L 177.451308 204.688673 
L 177.695961 204.650421 
L 178.185267 203.446995 
L 178.42992 204.559052 
L 178.674573 203.319306 
L 178.919226 205.693945 
L 179.163879 204.939106 
L 179.408532 205.012172 
L 179.653185 204.682337 
L 179.897838 206.368698 
L 180.142491 204.621094 
L 180.387144 205.874248 
L 180.631798 206.516145 
L 181.61041 201.00175 
L 182.099716 202.082303 
L 182.344369 200.445902 
L 182.589022 201.80955 
L 182.833675 199.838612 
L 183.078328 201.608524 
L 183.322981 202.462962 
L 183.567634 201.330207 
L 183.812287 204.322427 
L 184.05694 202.609417 
L 184.301593 199.979451 
L 184.546246 201.180945 
L 184.790899 203.070831 
L 185.280205 208.19608 
L 185.524858 207.336117 
L 185.769511 208.661976 
L 186.014164 207.206612 
L 186.50347 211.794224 
L 186.748123 209.678016 
L 186.992776 211.977321 
L 187.237429 210.525833 
L 187.482082 212.837053 
L 187.726735 210.67847 
L 187.971388 209.528856 
L 188.216041 208.931625 
L 188.95 206.039185 
L 189.194653 205.802933 
L 189.439306 205.900535 
L 189.683959 204.928132 
L 189.928612 203.407777 
L 190.417918 206.703454 
L 190.662571 206.61698 
L 190.907224 205.952298 
L 191.39653 203.709406 
L 191.641183 205.067362 
L 191.885836 203.347577 
L 192.130489 204.249154 
L 192.375142 201.838748 
L 193.109101 205.290927 
L 193.353754 203.728365 
L 193.84306 207.112989 
L 194.332366 203.603148 
L 194.577019 200.648048 
L 195.066325 203.304469 
L 195.310978 202.084596 
L 195.555631 202.208447 
L 195.800284 204.571417 
L 196.044937 203.157537 
L 196.534243 205.940217 
L 196.778896 208.093596 
L 197.023549 208.582393 
L 197.268202 208.191417 
L 197.757508 209.971118 
L 198.002161 207.557621 
L 198.246814 212.394855 
L 198.73612 228.421513 
L 199.225426 222.857158 
L 199.714732 219.876646 
L 199.959385 216.532077 
L 200.204038 209.931913 
L 200.693344 207.85786 
L 200.937997 206.958485 
L 201.427303 203.524776 
L 201.671956 204.958618 
L 201.916609 205.535486 
L 202.405915 196.951941 
L 202.650568 196.221973 
L 202.895221 194.045385 
L 203.384528 195.395561 
L 203.629181 192.412757 
L 204.36314 194.150946 
L 204.607793 191.925377 
L 204.852446 193.430818 
L 205.097099 191.621854 
L 205.341752 191.547783 
L 205.586405 190.802192 
L 206.075711 188.492879 
L 206.320364 189.580129 
L 206.80967 181.430114 
L 207.054323 184.256135 
L 207.543629 179.085266 
L 207.788282 179.401565 
L 208.032935 177.911966 
L 208.766894 183.858887 
L 209.011547 183.306941 
L 209.500853 189.158835 
L 209.745506 189.833589 
L 210.234812 181.957846 
L 210.479465 182.66485 
L 210.724118 180.488314 
L 210.968771 181.89113 
L 211.213424 179.648404 
L 211.458077 181.383529 
L 211.70273 182.172486 
L 212.192036 186.469391 
L 212.436689 185.360142 
L 212.925995 192.122243 
L 213.659954 184.435226 
L 213.904607 187.374317 
L 214.393913 189.465539 
L 214.638566 190.156791 
L 215.127872 184.526595 
L 215.861831 179.539519 
L 216.59579 184.121503 
L 216.840443 182.902905 
L 217.085096 186.380328 
L 217.329749 186.287865 
L 218.063708 180.641711 
L 218.308361 183.201289 
L 218.553014 184.372425 
L 219.04232 176.078557 
L 219.531626 169.771109 
L 219.776279 169.391635 
L 220.020932 172.136217 
L 220.510238 169.257712 
L 220.754891 170.248378 
L 220.999544 167.733479 
L 221.48885 165.700358 
L 221.733503 167.283103 
L 221.978156 164.52577 
L 222.467462 170.627401 
L 222.712115 169.138858 
L 222.956768 171.712295 
L 223.201421 169.876542 
L 223.446074 173.703454 
L 223.690727 174.29516 
L 223.93538 173.573524 
L 224.180033 174.13804 
L 224.424686 169.243905 
L 224.669339 170.428049 
L 225.158645 168.136407 
L 225.403298 165.310065 
L 225.647952 166.495021 
L 225.892605 170.522754 
L 226.137258 177.406052 
L 226.381911 179.86495 
L 226.871217 170.51026 
L 227.11587 172.747293 
L 227.360523 176.386587 
L 227.605176 175.32838 
L 227.849829 174.995647 
L 228.094482 174.937224 
L 228.339135 173.981874 
L 228.583788 171.293461 
L 228.828441 171.749324 
L 229.073094 173.722375 
L 229.317747 174.369321 
L 229.5624 168.784178 
L 229.807053 168.76196 
L 230.051706 171.638623 
L 230.296359 169.251813 
L 230.541012 168.872841 
L 230.785665 169.536853 
L 231.030318 180.898944 
L 231.274971 184.81935 
L 231.519624 179.900846 
L 231.764277 180.334028 
L 232.00893 182.325947 
L 232.253583 183.31436 
L 232.498236 179.401179 
L 232.742889 179.490641 
L 233.232195 186.842026 
L 233.721501 181.262601 
L 234.210807 184.238348 
L 234.700113 179.214063 
L 234.944766 177.878247 
L 235.189419 177.491458 
L 235.434072 178.61217 
L 235.678725 178.63941 
L 235.923378 179.321685 
L 236.412684 181.743567 
L 236.657337 178.200561 
L 236.90199 177.741851 
L 237.146643 176.155577 
L 237.391296 178.626737 
L 237.635949 179.634275 
L 238.125255 183.223442 
L 238.614561 188.922545 
L 238.859214 187.523953 
L 239.103867 183.851339 
L 239.34852 185.028954 
L 239.593173 188.564593 
L 239.837826 187.977743 
L 240.082479 187.75571 
L 240.327132 186.553096 
L 241.061091 178.967597 
L 241.305744 180.842634 
L 241.79505 185.369699 
L 242.039703 187.685902 
L 242.284356 191.844699 
L 242.529009 193.99129 
L 242.773662 190.977935 
L 243.018315 190.173071 
L 243.507621 194.436463 
L 243.996927 204.626271 
L 244.730886 197.836286 
L 245.220192 200.985444 
L 245.709498 197.840897 
L 245.954151 196.644117 
L 246.198804 199.764039 
L 246.443457 197.975245 
L 246.68811 201.174015 
L 246.932763 201.398289 
L 247.177416 198.683459 
L 247.422069 198.592168 
L 247.666722 196.997754 
L 247.911375 199.087971 
L 248.156029 197.310628 
L 248.400682 198.660018 
L 248.645335 195.473883 
L 248.889988 197.369823 
L 249.134641 195.362203 
L 249.379294 192.312334 
L 250.113253 196.181595 
L 250.357906 195.041911 
L 250.602559 194.746078 
L 251.091865 201.563033 
L 252.070477 219.852716 
L 252.31513 215.010485 
L 252.559783 207.404276 
L 252.804436 203.315854 
L 253.293742 209.687946 
L 253.538395 208.572643 
L 253.783048 206.721692 
L 254.027701 208.636475 
L 254.272354 203.937337 
L 254.517007 204.16572 
L 254.76166 207.48744 
L 255.006313 205.896465 
L 255.250966 205.386881 
L 255.740272 202.155846 
L 256.963537 211.302117 
L 257.20819 208.795114 
L 257.452843 208.152199 
L 257.697496 209.518797 
L 258.186802 201.404034 
L 258.431455 202.586053 
L 258.676108 202.154584 
L 259.165414 195.888788 
L 259.65472 193.181699 
L 259.899373 195.708138 
L 260.144026 194.541651 
L 260.388679 195.012803 
L 260.633332 190.486266 
L 260.877985 190.627299 
L 261.122638 189.679818 
L 261.367291 189.63197 
L 261.611944 191.988912 
L 261.856597 189.076753 
L 262.345903 160.951994 
L 262.590556 166.333497 
L 262.835209 168.206627 
L 263.079862 168.546522 
L 263.324515 175.282464 
L 263.569168 176.52203 
L 264.058474 173.560967 
L 264.303127 175.587146 
L 264.54778 172.918039 
L 264.792433 171.766712 
L 265.037086 174.023244 
L 265.281739 174.629902 
L 265.526392 171.975916 
L 266.015698 177.625149 
L 266.749657 170.493568 
L 266.99431 170.949496 
L 267.238963 169.588037 
L 267.483616 172.82251 
L 267.728269 171.250777 
L 267.972922 173.820234 
L 268.706881 168.934239 
L 268.951534 172.841675 
L 269.196187 171.165617 
L 269.44084 167.920157 
L 269.685493 168.75355 
L 270.174799 174.97245 
L 270.419452 174.284804 
L 270.664106 177.568903 
L 270.908759 176.021655 
L 271.398065 169.235919 
L 271.887371 181.278302 
L 272.132024 179.477761 
L 272.376677 179.035138 
L 272.62133 175.230623 
L 272.865983 173.569815 
L 273.110636 175.812076 
L 273.355289 173.160138 
L 274.089248 183.654525 
L 274.333901 184.47715 
L 274.578554 186.660732 
L 275.06786 196.697014 
L 275.557166 192.3044 
L 275.801819 197.469485 
L 276.046472 199.310532 
L 276.291125 205.163985 
L 276.535778 205.554703 
L 277.269737 196.294073 
L 277.51439 197.695923 
L 277.759043 195.205032 
L 278.003696 196.808616 
L 278.493002 187.99884 
L 278.737655 188.727855 
L 279.226961 198.547849 
L 279.471614 195.44462 
L 279.716267 197.704115 
L 279.96092 196.129844 
L 280.205573 196.315222 
L 280.450226 195.075475 
L 280.694879 197.643992 
L 281.184185 189.149948 
L 281.428838 184.549186 
L 281.918144 188.515083 
L 282.162797 186.887826 
L 282.40745 190.200479 
L 282.652103 189.817927 
L 283.141409 186.583994 
L 283.386062 186.234543 
L 283.630715 187.85442 
L 284.120021 182.238829 
L 284.364674 181.713545 
L 284.85398 179.830497 
L 285.098633 182.693443 
L 285.343286 182.243196 
L 285.832592 177.037063 
L 286.077245 179.212273 
L 286.566551 177.875465 
L 287.055857 173.375821 
L 287.545163 174.828533 
L 287.789816 176.099808 
L 288.034469 174.880592 
L 288.279122 176.505312 
L 288.768428 169.644282 
L 289.013081 171.891207 
L 289.257734 170.736801 
L 289.502387 171.776062 
L 289.74704 172.083616 
L 289.991693 169.989728 
L 290.236346 172.981226 
L 290.480999 171.290305 
L 290.725652 171.776294 
L 291.214958 166.549129 
L 291.459611 165.215451 
L 291.704264 168.232026 
L 291.948917 167.171475 
L 292.19357 170.026358 
L 292.438223 166.522828 
L 292.92753 168.546998 
L 293.661489 163.26579 
L 294.150795 173.798906 
L 294.395448 172.308701 
L 294.640101 173.837751 
L 294.884754 176.94156 
L 295.37406 173.334632 
L 295.618713 174.713414 
L 295.863366 171.915639 
L 296.108019 170.761852 
L 296.352672 173.715767 
L 296.597325 174.108701 
L 296.841978 170.79561 
L 297.086631 172.493434 
L 297.331284 171.081667 
L 297.575937 173.371056 
L 298.554549 161.27879 
L 299.043855 160.218033 
L 299.288508 162.590495 
L 299.533161 160.094079 
L 299.777814 161.766029 
L 300.022467 162.400095 
L 300.26712 159.586555 
L 301.001079 155.43644 
L 301.245732 158.070798 
L 301.490385 159.147565 
L 301.735038 157.115667 
L 301.979691 158.563136 
L 302.224344 155.776373 
L 302.468997 158.373393 
L 302.71365 156.654845 
L 302.958303 156.750579 
L 303.447609 154.251909 
L 303.936915 169.144396 
L 304.181568 165.457177 
L 304.670874 154.710632 
L 304.915527 156.259245 
L 305.16018 159.988041 
L 305.404833 161.838065 
L 306.138792 150.416071 
L 306.628098 147.394447 
L 306.872751 147.748484 
L 307.117404 147.556834 
L 307.362057 147.101743 
L 307.60671 148.438525 
L 307.851363 145.518908 
L 308.096016 148.647665 
L 308.340669 146.909965 
L 308.585322 140.72213 
L 308.829975 125.69894 
L 309.074628 120.69637 
L 309.319281 128.012078 
L 309.563934 131.166569 
L 309.808587 129.676596 
L 310.05324 134.699773 
L 310.297893 133.910146 
L 310.542546 131.732785 
L 310.787199 128.482264 
L 311.031852 129.881898 
L 311.276505 127.639624 
L 311.521158 131.08468 
L 311.765811 128.985524 
L 312.010464 131.069121 
L 312.255117 127.621 
L 312.49977 130.943647 
L 312.744423 129.974555 
L 312.989076 129.493859 
L 313.233729 127.940184 
L 313.478382 129.973885 
L 313.967688 129.860467 
L 314.456994 130.566634 
L 314.701647 128.41073 
L 314.9463 132.508657 
L 315.190953 130.68523 
L 315.435607 129.971541 
L 315.68026 132.04723 
L 315.924913 128.510161 
L 316.414219 134.694132 
L 316.658872 140.277936 
L 316.903525 138.821734 
L 317.148178 139.059725 
L 317.637484 132.718544 
L 317.882137 129.519799 
L 318.12679 129.673943 
L 318.371443 133.065085 
L 318.616096 130.521426 
L 318.860749 129.630255 
L 319.350055 135.845034 
L 319.839361 130.615576 
L 320.084014 129.960336 
L 320.328667 128.434841 
L 320.57332 130.97309 
L 320.817973 132.129093 
L 321.307279 124.613879 
L 321.796585 129.49319 
L 322.285891 136.757611 
L 322.530544 137.923634 
L 322.775197 134.978284 
L 323.01985 135.409779 
L 323.264503 131.452266 
L 323.509156 130.549169 
L 323.753809 130.887904 
L 323.998462 129.073905 
L 324.243115 124.399664 
L 324.487768 124.337584 
L 324.732421 122.767216 
L 324.977074 127.326287 
L 325.221727 126.412216 
L 325.46638 126.466157 
L 325.955686 134.849126 
L 326.444992 139.569554 
L 326.934298 128.891786 
L 327.423604 133.383033 
L 328.157563 126.977325 
L 328.891522 120.68908 
L 329.380828 113.082523 
L 329.625481 116.160354 
L 330.114787 112.988141 
L 330.35944 114.33958 
L 330.604093 117.972422 
L 330.848746 126.947006 
L 331.093399 129.774559 
L 331.338052 129.90315 
L 331.827358 121.209909 
L 332.561317 123.533274 
L 332.80597 118.780879 
L 333.050623 119.973202 
L 333.295276 117.371997 
L 333.539929 119.875342 
L 334.029235 115.032403 
L 334.273888 114.66031 
L 334.518541 115.120217 
L 334.763194 114.320209 
L 335.007847 112.710687 
L 335.2525 115.929061 
L 335.497153 115.656887 
L 335.741806 120.252974 
L 335.986459 117.413238 
L 336.475765 119.631376 
L 336.965071 113.784826 
L 337.209724 112.871477 
L 337.454377 111.258993 
L 337.69903 113.991262 
L 337.943684 112.024432 
L 338.188337 114.939824 
L 338.677643 117.199718 
L 339.166949 109.843285 
L 339.900908 96.264164 
L 340.634867 110.213034 
L 340.87952 110.007629 
L 341.124173 110.308653 
L 341.368826 106.791522 
L 341.613479 108.352642 
L 341.858132 108.310912 
L 342.102785 108.768218 
L 342.592091 112.619885 
L 342.836744 109.965822 
L 343.081397 110.128157 
L 343.32605 110.094412 
L 343.815356 107.368377 
L 344.304662 104.013067 
L 344.549315 106.843015 
L 344.793968 103.63139 
L 345.038621 107.133375 
L 345.283274 107.50382 
L 345.527927 101.801935 
L 345.77258 101.747042 
L 346.017233 103.412178 
L 346.751192 96.474411 
L 346.995845 99.376976 
L 347.240498 93.954168 
L 347.485151 91.314246 
L 347.729804 90.531909 
L 347.974457 89.030061 
L 348.21911 89.903046 
L 348.463763 86.020441 
L 348.953069 96.442109 
L 349.197722 94.091877 
L 349.442375 93.051483 
L 349.687028 93.193777 
L 349.931681 94.029591 
L 350.176334 92.164021 
L 350.420987 94.844591 
L 350.66564 90.530595 
L 350.910293 93.524193 
L 351.154946 94.402458 
L 351.399599 91.56236 
L 351.644252 96.031145 
L 352.133558 92.834151 
L 352.622864 97.371764 
L 353.11217 104.347191 
L 353.601476 96.229105 
L 353.846129 97.042019 
L 354.090782 92.064024 
L 354.335435 95.645991 
L 354.824741 85.525192 
L 355.5587 98.623334 
L 355.803353 98.268344 
L 356.048006 99.5737 
L 356.292659 95.341927 
L 356.537312 98.610944 
L 356.781965 95.491512 
L 357.026618 97.990839 
L 357.271271 97.318674 
L 357.515924 92.199183 
L 357.760577 94.648279 
L 358.494536 87.161993 
L 358.739189 98.865446 
L 358.983842 100.684649 
L 359.228495 94.662885 
L 359.473148 92.529135 
L 359.717801 97.489382 
L 360.207107 92.884098 
L 360.451761 91.024634 
L 360.941067 85.747366 
L 361.18572 90.643807 
L 361.430373 89.843284 
L 361.675026 89.584016 
L 361.919679 88.0824 
L 362.408985 81.235564 
L 362.653638 90.774021 
L 362.898291 93.700412 
L 363.142944 93.709918 
L 363.387597 94.708118 
L 363.63225 96.581313 
L 363.876903 95.811134 
L 364.121556 90.617095 
L 364.366209 94.77128 
L 364.610862 96.270037 
L 364.855515 98.643993 
L 365.100168 95.370288 
L 365.589474 105.539618 
L 365.834127 102.657816 
L 366.07878 105.663417 
L 366.323433 105.509814 
L 366.568086 108.848922 
L 366.812739 105.691211 
L 367.057392 107.176006 
L 367.302045 100.748223 
L 367.546698 98.300106 
L 367.791351 97.908667 
L 368.52531 88.341539 
L 368.769963 89.574743 
L 369.014616 88.058418 
L 369.259269 87.415491 
L 369.503922 85.776191 
L 369.993228 94.097081 
L 370.482534 86.428418 
L 370.97184 95.08691 
L 371.216493 90.527452 
L 371.461146 88.351946 
L 371.705799 91.605327 
L 371.950452 90.051033 
L 372.195105 90.594633 
L 372.684411 84.78443 
L 373.173717 94.168151 
L 373.41837 93.144345 
L 373.663023 87.832251 
L 373.907676 88.052906 
L 374.152329 86.179505 
L 374.396982 93.570611 
L 374.641635 97.421969 
L 374.886288 96.546795 
L 375.130941 93.115031 
L 375.620247 89.961648 
L 376.109553 93.855896 
L 376.354206 91.385007 
L 376.843512 83.216201 
L 377.332818 89.638909 
L 377.577471 87.261836 
L 378.066777 91.355023 
L 378.556083 84.882805 
L 378.800736 87.774164 
L 379.290042 79.797342 
L 379.534695 72.88044 
L 379.779348 70.774123 
L 380.024001 77.3026 
L 380.268654 74.436331 
L 380.513307 68.006229 
L 380.75796 69.504316 
L 381.002613 69.33451 
L 381.491919 61.488623 
L 381.736572 64.035167 
L 381.981225 62.20445 
L 382.225878 62.606914 
L 382.959838 56.94761 
L 383.204491 56.457667 
L 383.693797 50.897433 
L 383.93845 53.887527 
L 384.427756 46.438617 
L 384.672409 45.91699 
L 384.917062 51.994781 
L 385.161715 49.933569 
L 385.895674 37.872911 
L 386.140327 43.43348 
L 386.629633 36.608642 
L 386.874286 40.39452 
L 387.118939 38.854471 
L 387.363592 41.322475 
L 387.852898 34.414125 
L 387.852898 34.414125 
" style="fill:none;stroke:#1f77b4;stroke-linecap:square;stroke-width:1.5;"/>
   </g>
   <g id="line2d_32">
    <path clip-path="url(#pf4edf81170)" d="M 63.198352 274.642821 
L 63.443005 274.541531 
L 63.687658 273.224762 
L 63.932311 274.507767 
L 64.176964 271.063911 
L 64.421617 271.165201 
L 64.66627 267.822634 
L 65.155576 266.775972 
L 65.400229 266.066942 
L 65.644882 266.775972 
L 65.889535 266.978551 
L 66.378841 264.311251 
L 66.868147 266.809735 
L 67.1128 266.438339 
L 67.357453 267.316184 
L 67.602106 267.518764 
L 67.846759 266.708445 
L 68.091412 267.518764 
L 68.336066 267.788871 
L 68.580719 267.248658 
L 68.825372 268.565427 
L 69.070025 268.464137 
L 69.559331 270.219828 
L 69.803984 266.708445 
L 70.537943 270.017248 
L 70.782596 269.983485 
L 71.027249 268.90306 
L 71.271902 266.708445 
L 71.761208 269.747142 
L 72.005861 269.645852 
L 72.495167 268.632953 
L 72.73982 269.679615 
L 72.984473 272.549496 
L 73.229126 273.427342 
L 73.473779 272.38068 
L 73.718432 273.494868 
L 73.963085 273.292289 
L 74.207738 273.292289 
L 74.452391 273.764975 
L 74.941697 271.435307 
L 75.18635 272.009283 
L 75.431003 274.271424 
L 75.675656 274.777874 
L 75.920309 274.338951 
L 76.164962 274.406478 
L 76.409615 271.232727 
L 76.654268 269.510799 
L 76.898921 270.388645 
L 77.143574 269.409509 
L 77.388227 272.617023 
L 77.63288 272.684549 
L 77.877533 272.515733 
L 78.122186 272.988419 
L 78.366839 271.536597 
L 78.611492 268.869296 
L 78.856145 271.67165 
L 79.100798 267.89016 
L 79.345451 270.186065 
L 79.590104 267.012315 
L 79.834757 265.42544 
L 80.07941 267.620054 
L 80.324063 268.126504 
L 80.568716 266.877261 
L 80.813369 266.911025 
L 81.058022 267.316184 
L 81.302675 269.409509 
L 81.547328 269.308219 
L 81.791981 270.895094 
L 82.281287 267.552527 
L 82.52594 267.923924 
L 82.770593 266.607155 
L 83.015246 266.505865 
L 83.259899 267.046078 
L 83.749205 265.054043 
L 83.993858 267.012315 
L 84.238511 266.539628 
L 84.483164 266.539628 
L 84.727817 265.695546 
L 84.97247 265.864362 
L 85.217123 265.729309 
L 85.461776 265.830599 
L 85.706429 261.812766 
L 85.951082 261.64395 
L 86.195735 263.264588 
L 86.440388 262.521796 
L 86.685041 262.150399 
L 86.929694 260.698577 
L 87.174347 261.002447 
L 87.419 260.901157 
L 87.663653 262.082873 
L 87.908306 262.082873 
L 88.152959 262.521796 
L 88.397612 262.724375 
L 88.642265 263.635985 
L 88.886918 262.217926 
L 89.131571 257.423537 
L 89.376224 258.841596 
L 89.620877 259.077939 
L 89.86553 258.740306 
L 90.110183 259.989548 
L 90.599489 257.018378 
L 90.844143 257.052141 
L 91.333449 257.524827 
L 91.578102 256.748271 
L 92.067408 253.338178 
L 92.312061 253.540758 
L 92.556714 254.823763 
L 92.801367 254.79 
L 93.04602 255.769135 
L 93.290673 254.958816 
L 93.535326 256.208058 
L 93.779979 255.701609 
L 94.024632 254.823763 
L 94.269285 252.662912 
L 94.513938 254.18226 
L 94.758591 252.561622 
L 95.247897 253.675811 
L 95.49255 250.772167 
L 95.737203 252.764202 
L 95.981856 253.203125 
L 96.226509 252.662912 
L 96.471162 252.426569 
L 96.715815 253.101835 
L 96.960468 251.920119 
L 97.449774 256.849561 
L 97.694427 251.1098 
L 97.93908 252.629148 
L 98.183733 252.527859 
L 98.428386 250.738404 
L 98.917692 249.961848 
L 99.162345 249.826795 
L 99.406998 248.341209 
L 99.651651 247.868523 
L 100.140957 247.362074 
L 100.38561 246.585518 
L 100.630263 246.247885 
L 100.874916 247.362074 
L 101.119569 247.058204 
L 101.364222 248.071103 
L 101.608875 249.624215 
L 101.853528 249.489161 
L 102.098181 248.138629 
L 102.342834 250.738404 
L 102.587487 250.164428 
L 102.83214 250.096901 
L 103.076793 248.03734 
L 103.321446 248.071103 
L 103.566099 246.720571 
L 103.810752 248.307446 
L 104.055405 249.117765 
L 104.300058 251.21109 
L 104.544711 250.063138 
L 104.789364 251.042273 
L 105.034017 248.104866 
L 105.27867 247.800996 
L 105.523323 245.775198 
L 105.767976 246.011542 
L 106.012629 245.471329 
L 106.257282 247.4296 
L 106.501935 245.876488 
L 106.746588 251.00851 
L 106.991241 251.987646 
L 107.235894 250.873457 
L 107.480547 248.982712 
L 107.7252 245.977778 
L 107.969853 244.931116 
L 108.214506 244.593483 
L 108.459159 245.842725 
L 109.437771 242.601448 
L 109.682424 241.554786 
L 110.416383 241.284679 
L 110.661036 241.554786 
L 110.905689 241.453496 
L 111.150342 243.141661 
L 111.394995 243.242951 
L 111.639648 242.230052 
L 111.884301 242.939081 
L 112.128954 242.365105 
L 112.373607 242.837791 
L 112.61826 242.939081 
L 112.862913 244.931116 
L 113.35222 244.998642 
L 113.596873 244.289613 
L 113.841526 244.661009 
L 114.086179 243.378004 
L 114.330832 245.268749 
L 114.575485 244.863589 
L 114.820138 242.804028 
L 115.064791 245.403802 
L 115.309444 246.079068 
L 115.79875 242.871555 
L 116.043403 247.463363 
L 116.288056 249.050239 
L 116.532709 246.720571 
L 116.777362 246.720571 
L 117.266668 244.55972 
L 117.511321 245.944015 
L 117.755974 249.624215 
L 118.000627 248.510026 
L 118.24528 251.076037 
L 118.489933 248.273683 
L 118.734586 248.476262 
L 118.979239 248.847659 
L 119.223892 248.847659 
L 119.468545 248.172393 
L 119.713198 247.902286 
L 119.957851 246.754334 
L 120.202504 244.964879 
L 120.447157 246.011542 
L 121.181116 241.014573 
L 121.670422 238.921248 
L 121.915075 238.819958 
L 122.159728 238.549852 
L 122.649034 240.710703 
L 122.893687 240.17049 
L 123.13834 235.072232 
L 123.382993 235.072232 
L 123.627646 233.991806 
L 123.872299 234.464493 
L 124.116952 236.220184 
L 124.361605 235.646208 
L 124.606258 234.228149 
L 124.850911 232.067298 
L 125.095564 231.662139 
L 125.340217 231.932245 
L 125.829523 232.641274 
L 126.074176 232.641274 
L 126.318829 232.202351 
L 126.563482 232.438695 
L 126.808135 232.269878 
L 127.297441 236.017604 
L 127.542094 235.713735 
L 127.786747 236.726634 
L 128.0314 235.679971 
L 128.276053 236.69287 
L 128.765359 234.599546 
L 129.010012 234.194386 
L 129.254665 237.368136 
L 129.743971 236.152658 
L 129.988624 237.536953 
L 130.233277 236.051368 
L 130.47793 233.586647 
L 130.722583 233.21525 
L 130.967236 234.228149 
L 131.456542 230.412896 
L 131.701195 231.358269 
L 131.945848 231.763429 
L 132.190501 230.514186 
L 132.435154 229.94021 
L 132.679807 228.994838 
L 132.92446 228.589678 
L 133.169113 228.758495 
L 133.413766 229.703867 
L 133.658419 229.872684 
L 133.903072 230.412896 
L 134.147725 230.379133 
L 134.392378 230.176553 
L 134.637031 230.919346 
L 135.126337 230.109027 
L 135.37099 230.581713 
L 135.615643 230.716766 
L 135.860297 231.695902 
L 136.10495 231.932245 
L 136.349603 234.02557 
L 136.594256 233.856753 
L 136.838909 231.054399 
L 137.328215 229.602577 
L 137.572868 230.615476 
L 137.817521 228.927311 
L 138.062174 229.264944 
L 138.306827 229.062364 
L 138.55148 228.116992 
L 139.040786 232.371168 
L 139.285439 231.864718 
L 139.530092 230.683003 
L 140.019398 225.517218 
L 140.264051 225.652271 
L 140.508704 224.403029 
L 141.242663 225.044532 
L 141.487316 224.234212 
L 141.731969 225.888614 
L 141.976622 224.774425 
L 142.221275 225.415928 
L 142.465928 225.213348 
L 142.710581 223.39013 
L 142.955234 222.579811 
L 143.44454 223.221313 
L 143.933846 224.943242 
L 144.178499 223.221313 
L 144.423152 222.546047 
L 144.667805 222.849917 
L 144.912458 222.343468 
L 145.157111 222.951207 
L 145.401764 221.330569 
L 145.646417 221.972071 
L 145.89107 221.870781 
L 146.135723 223.255077 
L 146.380376 222.478521 
L 146.625029 219.676167 
L 146.869682 219.372297 
L 147.114335 219.946273 
L 147.603641 223.28884 
L 147.848294 224.875715 
L 148.092947 223.727763 
L 148.3376 223.255077 
L 148.582253 220.992936 
L 148.826906 223.153787 
L 149.560865 219.878747 
L 149.805518 219.338534 
L 150.050171 219.068427 
L 150.294824 218.291871 
L 150.539477 218.258108 
L 150.78413 220.992936 
L 151.028783 220.351433 
L 151.518089 222.343468 
L 151.762742 220.351433 
L 152.007395 221.127989 
L 152.252048 220.959172 
L 152.496701 223.896579 
L 152.741354 220.182616 
L 152.986007 219.50735 
L 153.23066 220.081326 
L 153.475313 219.81122 
L 153.719966 218.460688 
L 153.964619 215.894677 
L 154.209272 217.650369 
L 154.453925 221.499385 
L 154.698578 222.546047 
L 154.943231 221.668202 
L 155.187884 223.356367 
L 155.432537 222.377231 
L 155.67719 223.356367 
L 156.166496 228.454625 
L 156.411149 228.184519 
L 156.655802 227.306673 
L 157.389761 220.891646 
L 157.634414 220.31767 
L 157.879067 218.832084 
L 158.368374 217.920475 
L 158.613027 218.190582 
L 158.85768 217.278972 
L 159.102333 217.447789 
L 159.346986 216.43489 
L 159.591639 216.367363 
L 160.325598 214.712962 
L 160.570251 215.995967 
L 160.814904 213.700063 
L 161.059557 213.970169 
L 161.30421 212.282004 
L 161.548863 211.708028 
L 161.793516 211.640501 
L 162.038169 212.315767 
L 162.282822 209.749756 
L 162.527475 214.611672 
L 162.772128 216.907576 
L 163.016781 213.666299 
L 163.506087 212.822217 
L 163.75074 207.994065 
L 163.995393 207.318799 
L 164.240046 209.27707 
L 164.484699 208.871911 
L 164.974005 210.931472 
L 165.707964 206.035793 
L 166.19727 205.49558 
L 166.441923 210.053626 
L 166.686576 210.357496 
L 167.175882 207.014929 
L 167.420535 212.788453 
L 167.665188 214.645435 
L 168.154494 211.843081 
L 168.399147 213.868879 
L 168.6438 211.775554 
L 168.888453 210.830182 
L 169.133106 209.209544 
L 169.377759 209.648466 
L 169.622412 202.862043 
L 169.867065 210.053626 
L 170.111718 213.05856 
L 170.356371 210.796419 
L 170.601024 213.05856 
L 170.845677 213.801352 
L 171.09033 211.944371 
L 171.334983 212.146951 
L 171.579636 213.294903 
L 171.824289 212.619637 
L 172.068942 210.830182 
L 172.313595 211.741791 
L 172.558248 207.994065 
L 173.047554 212.518347 
L 173.292207 214.949305 
L 173.53686 214.611672 
L 173.781513 212.55211 
L 174.026166 212.180714 
L 174.270819 212.383294 
L 174.515472 210.728892 
L 175.249431 209.648466 
L 175.494084 208.9732 
L 175.738737 207.892775 
L 176.228043 207.859012 
L 176.472696 208.331698 
L 176.717349 206.474716 
L 176.962002 206.137083 
L 177.206655 204.854078 
L 177.940614 203.976232 
L 178.185267 203.334729 
L 178.42992 204.009995 
L 178.674573 203.571072 
L 178.919226 204.887841 
L 179.408532 204.651498 
L 179.653185 204.178812 
L 179.897838 205.428054 
L 180.142491 204.313865 
L 180.387144 205.157947 
L 180.631798 205.259237 
L 180.876451 205.157947 
L 181.121104 202.794516 
L 181.365757 202.72699 
L 181.61041 201.241405 
L 181.855063 201.342694 
L 182.099716 201.579038 
L 182.344369 200.127216 
L 182.589022 201.106351 
L 182.833675 200.093452 
L 183.322981 202.22054 
L 183.567634 200.903772 
L 183.812287 203.942469 
L 184.05694 201.680327 
L 184.301593 200.498612 
L 184.546246 200.667428 
L 184.790899 203.773652 
L 185.035552 204.921604 
L 185.280205 208.432988 
L 185.524858 206.643533 
L 185.769511 208.601804 
L 186.014164 207.048692 
L 186.258817 210.357496 
L 186.50347 210.391259 
L 186.748123 209.88481 
L 186.992776 211.235342 
L 187.237429 210.627602 
L 187.482082 212.315767 
L 187.726735 210.087389 
L 188.216041 208.9732 
L 188.460694 207.555142 
L 188.705347 206.947402 
L 188.95 205.934503 
L 189.194653 205.934503 
L 189.683959 204.854078 
L 189.928612 203.874942 
L 190.173265 204.381392 
L 190.417918 206.576006 
L 190.662571 206.170846 
L 191.151877 204.381392 
L 191.39653 203.841179 
L 191.641183 204.752788 
L 191.885836 203.267203 
L 192.130489 203.604836 
L 192.375142 202.490647 
L 192.619795 202.794516 
L 193.109101 204.482681 
L 193.353754 203.942469 
L 193.84306 205.833213 
L 194.332366 203.199676 
L 194.577019 201.140115 
L 194.821672 201.916671 
L 195.066325 202.22054 
L 195.310978 202.22054 
L 195.555631 201.714091 
L 195.800284 203.976232 
L 196.044937 203.334729 
L 196.28959 203.571072 
L 196.778896 208.230408 
L 197.268202 208.432988 
L 197.512855 209.108254 
L 197.757508 211.167815 
L 198.002161 208.027828 
L 198.246814 211.134052 
L 198.491467 222.208414 
L 198.73612 224.943242 
L 199.225426 222.140888 
L 199.470079 219.338534 
L 199.714732 219.068427 
L 199.959385 216.569943 
L 200.204038 208.601804 
L 200.448691 209.108254 
L 200.693344 207.825248 
L 201.427303 202.760753 
L 201.671956 203.334729 
L 201.916609 206.035793 
L 202.161262 198.84421 
L 202.650568 196.345726 
L 202.895221 193.881005 
L 203.139875 194.623798 
L 203.384528 194.657561 
L 203.629181 192.429183 
L 203.873834 193.273266 
L 204.118487 193.374555 
L 204.36314 193.712188 
L 204.607793 192.19284 
L 204.852446 192.462946 
L 205.097099 191.483811 
L 205.341752 191.146178 
L 206.075711 188.073717 
L 206.320364 189.458013 
L 206.565017 183.076749 
L 206.80967 182.772879 
L 207.054323 183.346855 
L 207.298976 182.300193 
L 207.543629 178.721283 
L 207.788282 179.430312 
L 208.032935 178.856336 
L 208.277588 180.544501 
L 208.522241 180.780844 
L 208.766894 183.887068 
L 209.011547 182.570299 
L 209.2562 187.195871 
L 209.500853 187.364688 
L 209.745506 189.356723 
L 210.234812 182.604062 
L 210.479465 183.414382 
L 210.724118 181.422347 
L 210.968771 181.5574 
L 211.213424 181.287294 
L 211.458077 181.692453 
L 211.70273 182.671589 
L 212.192036 185.980393 
L 212.436689 185.946629 
L 212.925995 191.68639 
L 213.415301 185.64276 
L 213.659954 185.54147 
L 214.14926 188.276297 
L 214.393913 188.546403 
L 214.638566 189.660592 
L 215.127872 184.866204 
L 215.861831 180.612028 
L 216.106484 180.645791 
L 216.351137 181.388584 
L 216.59579 184.393517 
L 216.840443 181.928796 
L 217.085096 186.047919 
L 217.329749 185.912866 
L 217.574402 182.705352 
L 217.819055 182.097613 
L 218.063708 179.767945 
L 218.308361 182.975459 
L 218.553014 183.279328 
L 218.797667 178.046017 
L 219.04232 177.438277 
L 219.286973 172.576362 
L 219.531626 170.786907 
L 219.776279 170.010351 
L 220.020932 170.888197 
L 220.265585 170.550564 
L 220.510238 168.929926 
L 220.754891 169.774008 
L 220.999544 167.44434 
L 221.244197 166.971654 
L 221.48885 165.891228 
L 221.733503 167.984553 
L 221.978156 164.135537 
L 222.222809 168.761109 
L 222.467462 169.605192 
L 222.712115 169.537665 
L 222.956768 171.901096 
L 223.201421 169.267559 
L 223.446074 173.724314 
L 223.93538 173.319155 
L 224.180033 173.656788 
L 224.424686 169.571428 
L 224.669339 170.786907 
L 225.158645 168.929926 
L 225.403298 166.363915 
L 225.647952 168.457239 
L 225.892605 169.200032 
L 226.137258 178.349887 
L 226.381911 178.113543 
L 226.871217 170.685617 
L 227.360523 175.648822 
L 227.605176 175.00732 
L 228.339135 174.163237 
L 228.583788 171.42841 
L 228.828441 171.698516 
L 229.317747 174.90603 
L 229.5624 168.997452 
L 229.807053 169.301322 
L 230.051706 172.947758 
L 230.296359 170.111641 
L 230.541012 170.145404 
L 230.785665 168.220896 
L 231.030318 181.75998 
L 231.274971 181.726217 
L 231.519624 178.923863 
L 231.764277 180.510738 
L 232.00893 180.747081 
L 232.253583 183.481908 
L 232.498236 179.767945 
L 232.742889 179.801708 
L 232.987542 184.157174 
L 233.232195 185.203837 
L 233.476848 183.988358 
L 233.721501 181.827507 
L 234.210807 183.650725 
L 234.45546 181.86127 
L 234.700113 178.788809 
L 234.944766 178.755046 
L 235.189419 178.147307 
L 235.434072 178.18107 
L 236.168031 179.565365 
L 236.412684 182.300193 
L 236.657337 177.539567 
L 236.90199 177.742147 
L 237.146643 177.708384 
L 237.391296 178.417413 
L 237.880602 181.219767 
L 238.125255 184.258464 
L 238.369908 184.93373 
L 238.614561 188.175007 
L 238.859214 187.871137 
L 239.103867 183.549435 
L 239.593173 187.533504 
L 240.082479 187.263398 
L 240.327132 186.588132 
L 240.571785 183.448145 
L 240.816438 182.469009 
L 241.061091 179.126442 
L 241.550397 184.224701 
L 241.79505 184.866204 
L 242.039703 187.904901 
L 242.284356 192.564236 
L 242.529009 192.598 
L 242.773662 191.247467 
L 243.018315 191.044888 
L 243.262968 193.003159 
L 243.507621 193.610899 
L 243.996927 204.077522 
L 244.24158 201.038825 
L 244.730886 198.506577 
L 244.975539 199.418186 
L 245.220192 199.857109 
L 245.464845 199.857109 
L 245.709498 197.392388 
L 245.954151 196.919702 
L 246.198804 200.059689 
L 246.443457 195.97433 
L 246.68811 200.971298 
L 246.932763 200.971298 
L 247.177416 197.426152 
L 247.422069 197.831311 
L 247.666722 196.885939 
L 247.911375 197.763785 
L 248.156029 197.392388 
L 248.400682 198.236471 
L 248.645335 194.826377 
L 248.889988 196.852175 
L 249.134641 196.615832 
L 249.379294 190.673491 
L 249.623947 195.535407 
L 249.8686 193.948532 
L 250.113253 195.56917 
L 250.357906 195.535407 
L 250.602559 194.657561 
L 251.091865 200.397322 
L 251.581171 211.336631 
L 252.070477 219.574877 
L 252.559783 207.622668 
L 252.804436 204.482681 
L 253.049089 204.989131 
L 253.293742 210.053626 
L 253.538395 206.643533 
L 253.783048 206.272136 
L 254.027701 209.412123 
L 254.272354 202.11925 
L 254.517007 205.765687 
L 254.76166 206.440953 
L 255.006313 205.90074 
L 255.250966 205.022894 
L 255.740272 202.085487 
L 256.229578 205.124184 
L 256.474231 206.3059 
L 256.718884 209.142017 
L 256.963537 209.243307 
L 257.20819 208.669331 
L 257.452843 207.251272 
L 257.697496 207.994065 
L 257.942149 206.035793 
L 258.186802 199.316896 
L 258.431455 202.963333 
L 258.676108 201.849144 
L 258.920761 197.257335 
L 259.165414 196.143146 
L 259.65472 192.564236 
L 259.899373 194.758851 
L 260.144026 193.171976 
L 260.388679 194.623798 
L 260.633332 188.748983 
L 260.877985 189.491776 
L 261.367291 188.782746 
L 261.611944 189.491776 
L 261.856597 191.281231 
L 262.10125 170.381748 
L 262.345903 167.376814 
L 262.590556 167.95079 
L 262.835209 169.267559 
L 263.079862 168.423476 
L 263.324515 175.513769 
L 263.569168 175.00732 
L 264.058474 173.555498 
L 264.303127 174.230764 
L 264.54778 172.711415 
L 264.792433 171.934859 
L 265.037086 173.352918 
L 265.281739 173.960657 
L 265.526392 172.036149 
L 266.015698 176.999354 
L 266.260351 174.467107 
L 266.505004 173.825604 
L 266.749657 170.82067 
L 266.99431 170.854434 
L 267.238963 170.280458 
L 267.483616 172.880232 
L 267.728269 171.192067 
L 267.972922 173.150338 
L 268.217575 172.204966 
L 268.462228 170.280458 
L 268.706881 169.638955 
L 268.951534 172.204966 
L 269.196187 171.73228 
L 269.44084 167.714447 
L 269.930146 171.799806 
L 270.174799 174.872267 
L 270.419452 174.29829 
L 270.664106 176.729248 
L 270.908759 176.695485 
L 271.153412 172.204966 
L 271.398065 170.449274 
L 271.887371 181.017187 
L 272.132024 178.046017 
L 272.376677 178.755046 
L 272.62133 175.074846 
L 272.865983 174.90603 
L 273.110636 176.020219 
L 273.355289 173.994421 
L 273.599942 176.898065 
L 273.844595 181.45611 
L 274.578554 186.149209 
L 275.06786 196.480779 
L 275.312513 193.610899 
L 275.557166 192.530473 
L 275.801819 198.303997 
L 276.046472 197.594968 
L 276.291125 204.347628 
L 276.535778 203.706125 
L 277.269737 196.683359 
L 277.51439 197.426152 
L 277.759043 195.332827 
L 278.003696 195.434117 
L 278.248349 193.881005 
L 278.493002 187.803611 
L 278.737655 188.141244 
L 278.982308 195.535407 
L 279.226961 196.852175 
L 279.471614 193.442082 
L 279.716267 198.101418 
L 279.96092 194.657561 
L 280.205573 195.400353 
L 280.450226 195.16401 
L 280.694879 196.413253 
L 280.939532 193.847242 
L 281.428838 185.2376 
L 281.673491 187.364688 
L 281.918144 188.377587 
L 282.162797 186.554369 
L 282.40745 190.133279 
L 282.652103 189.390486 
L 282.896756 187.195871 
L 283.141409 186.554369 
L 283.386062 186.351789 
L 283.630715 187.499741 
L 283.875368 183.448145 
L 284.120021 182.772879 
L 284.364674 181.25353 
L 284.609327 181.186004 
L 284.85398 179.160206 
L 285.098633 182.401483 
L 285.343286 181.65869 
L 285.832592 177.235698 
L 286.077245 178.755046 
L 286.321898 178.349887 
L 287.055857 173.758078 
L 287.30051 173.994421 
L 287.545163 174.39958 
L 287.789816 175.412479 
L 288.034469 175.074846 
L 288.279122 175.682586 
L 288.768428 169.436375 
L 289.013081 172.643889 
L 289.257734 170.888197 
L 289.502387 171.63099 
L 289.74704 171.664753 
L 289.991693 169.470138 
L 290.236346 173.555498 
L 290.480999 171.057014 
L 290.725652 171.293357 
L 291.214958 166.735311 
L 291.459611 166.566495 
L 291.704264 167.54563 
L 291.948917 167.478104 
L 292.19357 169.267559 
L 292.438223 167.140471 
L 292.92753 168.389713 
L 293.416836 165.958755 
L 293.661489 164.203063 
L 294.150795 173.926894 
L 294.395448 171.192067 
L 294.884754 175.986455 
L 295.129407 175.277426 
L 295.37406 173.386681 
L 295.618713 174.365817 
L 295.863366 171.934859 
L 296.108019 171.934859 
L 296.352672 173.521734 
L 296.597325 173.656788 
L 296.841978 170.618091 
L 297.086631 172.610125 
L 297.331284 170.651854 
L 297.575937 173.285391 
L 297.82059 168.896162 
L 298.065243 168.220896 
L 298.309896 163.629087 
L 299.043855 160.4891 
L 299.288508 161.907159 
L 299.533161 160.320284 
L 300.022467 162.143502 
L 300.26712 159.577491 
L 300.511773 158.665882 
L 300.756426 156.91019 
L 301.001079 156.707611 
L 301.245732 157.484167 
L 301.490385 158.767172 
L 301.735038 157.51793 
L 301.979691 158.226959 
L 302.224344 156.977717 
L 302.468997 158.463302 
L 302.71365 157.146534 
L 303.202956 156.977717 
L 303.447609 152.791068 
L 303.692262 162.109739 
L 303.936915 167.072944 
L 304.670874 154.985682 
L 304.915527 156.808901 
L 305.16018 159.712544 
L 305.404833 160.354047 
L 305.649486 157.956853 
L 305.894139 152.892358 
L 306.138792 152.453435 
L 306.383445 149.144631 
L 306.628098 148.604418 
L 306.872751 147.692809 
L 307.117404 147.557756 
L 307.362057 146.409804 
L 307.60671 147.253886 
L 307.851363 145.531958 
L 308.096016 147.355176 
L 308.585322 142.932184 
L 308.829975 125.375267 
L 309.074628 125.881717 
L 309.319281 129.3931 
L 309.563934 131.013739 
L 309.808587 130.574816 
L 310.05324 134.052436 
L 310.297893 133.951146 
L 310.787199 129.663207 
L 311.031852 129.69697 
L 311.276505 129.325574 
L 311.521158 130.541052 
L 311.765811 130.169656 
L 312.010464 130.709869 
L 312.255117 129.055467 
L 312.49977 130.777396 
L 312.744423 130.777396 
L 312.989076 129.730733 
L 313.233729 129.258047 
L 313.478382 130.169656 
L 313.723035 130.237183 
L 314.456994 131.013739 
L 314.701647 130.237183 
L 314.9463 132.499324 
L 315.435607 131.182555 
L 315.68026 131.250082 
L 315.924913 130.878685 
L 316.169566 131.891584 
L 316.414219 133.57975 
L 316.658872 141.412835 
L 316.903525 137.124896 
L 317.148178 138.779298 
L 317.392831 137.631346 
L 317.637484 132.803194 
L 318.12679 131.722768 
L 318.371443 132.938247 
L 318.616096 131.655241 
L 318.860749 130.979975 
L 319.350055 135.504258 
L 319.594708 132.026638 
L 319.839361 131.047502 
L 320.084014 130.709869 
L 320.328667 129.561917 
L 320.57332 131.317608 
L 320.817973 131.553951 
L 321.062626 128.143858 
L 321.307279 126.928379 
L 321.551932 127.232249 
L 322.285891 135.369204 
L 322.530544 137.698872 
L 322.775197 135.267915 
L 323.01985 135.504258 
L 323.264503 132.701904 
L 323.998462 130.270946 
L 324.243115 124.497422 
L 324.487768 126.11806 
L 324.732421 124.396132 
L 324.977074 127.704935 
L 325.46638 127.299776 
L 325.711033 132.060401 
L 325.955686 134.086199 
L 326.200339 137.259949 
L 326.444992 138.272848 
L 326.934298 130.743632 
L 327.178951 130.878685 
L 327.423604 133.0733 
L 327.668257 130.676106 
L 327.91291 130.10213 
L 328.157563 126.692036 
L 328.402216 126.11806 
L 329.380828 115.313804 
L 329.625481 116.461756 
L 329.870134 115.212514 
L 330.114787 114.874881 
L 330.35944 115.313804 
L 330.604093 116.900679 
L 330.848746 128.785361 
L 331.093399 127.738698 
L 331.338052 128.447728 
L 331.827358 122.74173 
L 332.072011 122.978073 
L 332.316664 123.450759 
L 332.561317 124.328605 
L 332.80597 119.3654 
L 333.050623 121.728831 
L 333.295276 118.521317 
L 333.539929 120.412062 
L 334.029235 116.529283 
L 334.273888 116.09036 
L 334.518541 115.98907 
L 334.763194 115.38133 
L 335.007847 113.726929 
L 335.2525 116.495519 
L 335.497153 116.157886 
L 335.741806 120.141956 
L 335.986459 118.082394 
L 336.231112 118.386264 
L 336.475765 120.310772 
L 336.720418 116.157886 
L 337.209724 114.638538 
L 337.454377 112.61274 
L 337.69903 113.794455 
L 337.943684 113.288006 
L 338.188337 115.009934 
L 338.43299 115.38133 
L 338.677643 117.069495 
L 339.166949 110.823285 
L 339.900908 98.90484 
L 340.145561 103.057726 
L 340.390214 103.496648 
L 340.634867 111.464787 
L 340.87952 109.000066 
L 341.124173 110.283072 
L 341.368826 108.223511 
L 341.613479 109.168883 
L 341.858132 109.303936 
L 342.102785 110.080492 
L 342.347438 112.275107 
L 342.592091 112.747793 
L 342.836744 111.532314 
L 343.081397 111.127154 
L 343.32605 111.025865 
L 343.570703 109.067593 
L 343.815356 108.42609 
L 344.060009 106.265239 
L 344.304662 105.75879 
L 344.549315 106.062659 
L 344.793968 105.725026 
L 345.038621 105.893843 
L 345.283274 107.818351 
L 345.527927 102.652566 
L 345.77258 102.888909 
L 346.017233 103.631702 
L 346.261886 102.112353 
L 346.506539 99.377526 
L 346.751192 98.634733 
L 346.995845 99.343762 
L 347.485151 92.962499 
L 347.729804 92.726155 
L 347.974457 90.261435 
L 348.21911 90.632831 
L 348.463763 88.978429 
L 348.708416 91.03799 
L 348.953069 97.250438 
L 349.197722 94.076688 
L 349.442375 94.144214 
L 349.931681 94.6169 
L 350.176334 94.346794 
L 350.420987 94.751954 
L 350.66564 92.894972 
L 350.910293 94.51561 
L 351.154946 95.190876 
L 351.399599 94.380557 
L 351.644252 96.136249 
L 351.888905 96.068722 
L 352.133558 94.6169 
L 352.378211 95.967432 
L 353.11217 103.699228 
L 353.601476 97.723124 
L 353.846129 98.533443 
L 354.090782 93.840344 
L 354.335435 97.047858 
L 354.824741 88.438216 
L 355.069394 92.658629 
L 355.314047 93.705291 
L 355.5587 99.174946 
L 355.803353 98.80355 
L 356.048006 98.938603 
L 356.292659 97.182911 
L 356.537312 98.769786 
L 356.781965 97.655597 
L 357.026618 98.229574 
L 357.271271 98.263337 
L 357.515924 94.751954 
L 357.760577 95.055823 
L 358.00523 94.076688 
L 358.494536 88.742086 
L 358.739189 100.863111 
L 358.983842 99.006129 
L 359.228495 95.393456 
L 359.473148 95.157113 
L 359.717801 97.453018 
L 359.962454 96.237539 
L 360.207107 93.739054 
L 360.451761 92.624866 
L 360.941067 87.999293 
L 361.18572 91.375623 
L 361.430373 90.902937 
L 361.919679 88.910902 
L 362.164332 86.648761 
L 362.408985 81.753083 
L 362.653638 93.367658 
L 362.898291 92.861209 
L 363.142944 93.063788 
L 363.387597 95.866142 
L 363.63225 96.136249 
L 363.876903 97.419254 
L 364.121556 91.611967 
L 364.366209 97.858177 
L 364.610862 97.520544 
L 364.855515 99.613869 
L 365.100168 97.824414 
L 365.589474 106.704162 
L 365.834127 102.956436 
L 366.07878 106.872979 
L 366.323433 106.771689 
L 366.568086 108.52738 
L 366.812739 106.839215 
L 367.057392 107.008032 
L 367.302045 101.538377 
L 367.791351 99.647632 
L 368.036004 94.650664 
L 368.280657 94.583137 
L 368.52531 89.653695 
L 368.769963 90.801647 
L 369.014616 89.113482 
L 369.259269 89.113482 
L 369.503922 87.324027 
L 369.993228 93.300132 
L 370.237881 91.713256 
L 370.482534 87.86424 
L 370.727187 93.131315 
L 370.97184 94.009161 
L 371.216493 91.74702 
L 371.461146 90.632831 
L 371.705799 91.983363 
L 372.195105 91.578203 
L 372.439758 89.079719 
L 372.684411 88.134347 
L 372.929064 88.708323 
L 373.173717 95.190876 
L 373.41837 93.401421 
L 373.663023 89.484879 
L 373.907676 89.822512 
L 374.152329 88.100583 
L 374.396982 95.899906 
L 374.641635 96.507645 
L 374.886288 96.777752 
L 375.130941 93.874108 
L 375.375594 93.401421 
L 375.620247 92.185943 
L 376.109553 93.840344 
L 376.354206 92.928735 
L 376.598859 88.607033 
L 376.843512 86.885104 
L 377.088165 87.830477 
L 377.332818 90.160145 
L 377.577471 89.417352 
L 377.822124 89.653695 
L 378.066777 91.74702 
L 378.556083 86.648761 
L 378.800736 87.290264 
L 379.045389 85.298229 
L 379.534695 75.675689 
L 379.779348 73.413547 
L 380.024001 76.722351 
L 380.268654 75.979558 
L 380.513307 68.484105 
L 380.75796 71.08388 
L 381.002613 70.408614 
L 381.491919 63.82477 
L 381.981225 63.82477 
L 382.225878 62.845634 
L 382.959838 58.085009 
L 383.204491 57.308453 
L 383.693797 52.952987 
L 383.93845 53.79707 
L 384.427756 48.361178 
L 384.672409 48.226125 
L 384.917062 51.062242 
L 385.161715 50.994716 
L 385.651021 41.676045 
L 385.895674 40.899489 
L 386.140327 42.992813 
L 386.38498 41.878624 
L 386.629633 37.320579 
L 386.874286 42.182494 
L 387.118939 40.055406 
L 387.363592 41.203358 
L 387.608245 39.717773 
L 387.852898 35.69994 
L 387.852898 35.69994 
" style="fill:none;stroke:#ff7f0e;stroke-linecap:square;stroke-width:1.5;"/>
   </g>
   <g id="patch_3">
    <path d="M 46.965625 288.430125 
L 46.965625 22.318125 
" style="fill:none;stroke:#000000;stroke-linecap:square;stroke-linejoin:miter;stroke-width:0.8;"/>
   </g>
   <g id="patch_4">
    <path d="M 404.085625 288.430125 
L 404.085625 22.318125 
" style="fill:none;stroke:#000000;stroke-linecap:square;stroke-linejoin:miter;stroke-width:0.8;"/>
   </g>
   <g id="patch_5">
    <path d="M 46.965625 288.430125 
L 404.085625 288.430125 
" style="fill:none;stroke:#000000;stroke-linecap:square;stroke-linejoin:miter;stroke-width:0.8;"/>
   </g>
   <g id="patch_6">
    <path d="M 46.965625 22.318125 
L 404.085625 22.318125 
" style="fill:none;stroke:#000000;stroke-linecap:square;stroke-linejoin:miter;stroke-width:0.8;"/>
   </g>
   <g id="text_18">
    <!-- Training: TXN -->
    <defs>
     <path d="M -0.296875 72.90625 
L 61.375 72.90625 
L 61.375 64.59375 
L 35.5 64.59375 
L 35.5 0 
L 25.59375 0 
L 25.59375 64.59375 
L -0.296875 64.59375 
z
" id="DejaVuSans-84"/>
     <path d="M 54.890625 33.015625 
L 54.890625 0 
L 45.90625 0 
L 45.90625 32.71875 
Q 45.90625 40.484375 42.875 44.328125 
Q 39.84375 48.1875 33.796875 48.1875 
Q 26.515625 48.1875 22.3125 43.546875 
Q 18.109375 38.921875 18.109375 30.90625 
L 18.109375 0 
L 9.078125 0 
L 9.078125 54.6875 
L 18.109375 54.6875 
L 18.109375 46.1875 
Q 21.34375 51.125 25.703125 53.5625 
Q 30.078125 56 35.796875 56 
Q 45.21875 56 50.046875 50.171875 
Q 54.890625 44.34375 54.890625 33.015625 
z
" id="DejaVuSans-110"/>
     <path d="M 45.40625 27.984375 
Q 45.40625 37.75 41.375 43.109375 
Q 37.359375 48.484375 30.078125 48.484375 
Q 22.859375 48.484375 18.828125 43.109375 
Q 14.796875 37.75 14.796875 27.984375 
Q 14.796875 18.265625 18.828125 12.890625 
Q 22.859375 7.515625 30.078125 7.515625 
Q 37.359375 7.515625 41.375 12.890625 
Q 45.40625 18.265625 45.40625 27.984375 
z
M 54.390625 6.78125 
Q 54.390625 -7.171875 48.1875 -13.984375 
Q 42 -20.796875 29.203125 -20.796875 
Q 24.46875 -20.796875 20.265625 -20.09375 
Q 16.0625 -19.390625 12.109375 -17.921875 
L 12.109375 -9.1875 
Q 16.0625 -11.328125 19.921875 -12.34375 
Q 23.78125 -13.375 27.78125 -13.375 
Q 36.625 -13.375 41.015625 -8.765625 
Q 45.40625 -4.15625 45.40625 5.171875 
L 45.40625 9.625 
Q 42.625 4.78125 38.28125 2.390625 
Q 33.9375 0 27.875 0 
Q 17.828125 0 11.671875 7.65625 
Q 5.515625 15.328125 5.515625 27.984375 
Q 5.515625 40.671875 11.671875 48.328125 
Q 17.828125 56 27.875 56 
Q 33.9375 56 38.28125 53.609375 
Q 42.625 51.21875 45.40625 46.390625 
L 45.40625 54.6875 
L 54.390625 54.6875 
z
" id="DejaVuSans-103"/>
     <path d="M 11.71875 12.40625 
L 22.015625 12.40625 
L 22.015625 0 
L 11.71875 0 
z
M 11.71875 51.703125 
L 22.015625 51.703125 
L 22.015625 39.3125 
L 11.71875 39.3125 
z
" id="DejaVuSans-58"/>
     <path d="M 6.296875 72.90625 
L 16.890625 72.90625 
L 35.015625 45.796875 
L 53.21875 72.90625 
L 63.8125 72.90625 
L 40.375 37.890625 
L 65.375 0 
L 54.78125 0 
L 34.28125 31 
L 13.625 0 
L 2.984375 0 
L 29 38.921875 
z
" id="DejaVuSans-88"/>
     <path d="M 9.8125 72.90625 
L 23.09375 72.90625 
L 55.421875 11.921875 
L 55.421875 72.90625 
L 64.984375 72.90625 
L 64.984375 0 
L 51.703125 0 
L 19.390625 60.984375 
L 19.390625 0 
L 9.8125 0 
z
" id="DejaVuSans-78"/>
    </defs>
    <g transform="translate(185.663125 16.318125)scale(0.12 -0.12)">
     <use xlink:href="#DejaVuSans-84"/>
     <use x="46.333984" xlink:href="#DejaVuSans-114"/>
     <use x="87.447266" xlink:href="#DejaVuSans-97"/>
     <use x="148.726562" xlink:href="#DejaVuSans-105"/>
     <use x="176.509766" xlink:href="#DejaVuSans-110"/>
     <use x="239.888672" xlink:href="#DejaVuSans-105"/>
     <use x="267.671875" xlink:href="#DejaVuSans-110"/>
     <use x="331.050781" xlink:href="#DejaVuSans-103"/>
     <use x="394.527344" xlink:href="#DejaVuSans-58"/>
     <use x="428.21875" xlink:href="#DejaVuSans-32"/>
     <use x="460.005859" xlink:href="#DejaVuSans-84"/>
     <use x="521.089844" xlink:href="#DejaVuSans-88"/>
     <use x="589.595703" xlink:href="#DejaVuSans-78"/>
    </g>
   </g>
   <g id="legend_1">
    <g id="patch_7">
     <path d="M 53.965625 59.674375 
L 137.69375 59.674375 
Q 139.69375 59.674375 139.69375 57.674375 
L 139.69375 29.318125 
Q 139.69375 27.318125 137.69375 27.318125 
L 53.965625 27.318125 
Q 51.965625 27.318125 51.965625 29.318125 
L 51.965625 57.674375 
Q 51.965625 59.674375 53.965625 59.674375 
z
" style="fill:#ffffff;opacity:0.8;stroke:#cccccc;stroke-linejoin:miter;"/>
    </g>
    <g id="line2d_33">
     <path d="M 55.965625 35.416562 
L 75.965625 35.416562 
" style="fill:none;stroke:#1f77b4;stroke-linecap:square;stroke-width:1.5;"/>
    </g>
    <g id="line2d_34"/>
    <g id="text_19">
     <!-- Predicted -->
     <defs>
      <path d="M 45.40625 46.390625 
L 45.40625 75.984375 
L 54.390625 75.984375 
L 54.390625 0 
L 45.40625 0 
L 45.40625 8.203125 
Q 42.578125 3.328125 38.25 0.953125 
Q 33.9375 -1.421875 27.875 -1.421875 
Q 17.96875 -1.421875 11.734375 6.484375 
Q 5.515625 14.40625 5.515625 27.296875 
Q 5.515625 40.1875 11.734375 48.09375 
Q 17.96875 56 27.875 56 
Q 33.9375 56 38.25 53.625 
Q 42.578125 51.265625 45.40625 46.390625 
z
M 14.796875 27.296875 
Q 14.796875 17.390625 18.875 11.75 
Q 22.953125 6.109375 30.078125 6.109375 
Q 37.203125 6.109375 41.296875 11.75 
Q 45.40625 17.390625 45.40625 27.296875 
Q 45.40625 37.203125 41.296875 42.84375 
Q 37.203125 48.484375 30.078125 48.484375 
Q 22.953125 48.484375 18.875 42.84375 
Q 14.796875 37.203125 14.796875 27.296875 
z
" id="DejaVuSans-100"/>
      <path d="M 18.3125 70.21875 
L 18.3125 54.6875 
L 36.8125 54.6875 
L 36.8125 47.703125 
L 18.3125 47.703125 
L 18.3125 18.015625 
Q 18.3125 11.328125 20.140625 9.421875 
Q 21.96875 7.515625 27.59375 7.515625 
L 36.8125 7.515625 
L 36.8125 0 
L 27.59375 0 
Q 17.1875 0 13.234375 3.875 
Q 9.28125 7.765625 9.28125 18.015625 
L 9.28125 47.703125 
L 2.6875 47.703125 
L 2.6875 54.6875 
L 9.28125 54.6875 
L 9.28125 70.21875 
z
" id="DejaVuSans-116"/>
     </defs>
     <g transform="translate(83.965625 38.916562)scale(0.1 -0.1)">
      <use xlink:href="#DejaVuSans-80"/>
      <use x="58.552734" xlink:href="#DejaVuSans-114"/>
      <use x="97.416016" xlink:href="#DejaVuSans-101"/>
      <use x="158.939453" xlink:href="#DejaVuSans-100"/>
      <use x="222.416016" xlink:href="#DejaVuSans-105"/>
      <use x="250.199219" xlink:href="#DejaVuSans-99"/>
      <use x="305.179688" xlink:href="#DejaVuSans-116"/>
      <use x="344.388672" xlink:href="#DejaVuSans-101"/>
      <use x="405.912109" xlink:href="#DejaVuSans-100"/>
     </g>
    </g>
    <g id="line2d_35">
     <path d="M 55.965625 50.094687 
L 75.965625 50.094687 
" style="fill:none;stroke:#ff7f0e;stroke-linecap:square;stroke-width:1.5;"/>
    </g>
    <g id="line2d_36"/>
    <g id="text_20">
     <!-- True value -->
     <defs>
      <path d="M 8.5 21.578125 
L 8.5 54.6875 
L 17.484375 54.6875 
L 17.484375 21.921875 
Q 17.484375 14.15625 20.5 10.265625 
Q 23.53125 6.390625 29.59375 6.390625 
Q 36.859375 6.390625 41.078125 11.03125 
Q 45.3125 15.671875 45.3125 23.6875 
L 45.3125 54.6875 
L 54.296875 54.6875 
L 54.296875 0 
L 45.3125 0 
L 45.3125 8.40625 
Q 42.046875 3.421875 37.71875 1 
Q 33.40625 -1.421875 27.6875 -1.421875 
Q 18.265625 -1.421875 13.375 4.4375 
Q 8.5 10.296875 8.5 21.578125 
z
M 31.109375 56 
z
" id="DejaVuSans-117"/>
      <path d="M 2.984375 54.6875 
L 12.5 54.6875 
L 29.59375 8.796875 
L 46.6875 54.6875 
L 56.203125 54.6875 
L 35.6875 0 
L 23.484375 0 
z
" id="DejaVuSans-118"/>
      <path d="M 9.421875 75.984375 
L 18.40625 75.984375 
L 18.40625 0 
L 9.421875 0 
z
" id="DejaVuSans-108"/>
     </defs>
     <g transform="translate(83.965625 53.594687)scale(0.1 -0.1)">
      <use xlink:href="#DejaVuSans-84"/>
      <use x="46.333984" xlink:href="#DejaVuSans-114"/>
      <use x="87.447266" xlink:href="#DejaVuSans-117"/>
      <use x="150.826172" xlink:href="#DejaVuSans-101"/>
      <use x="212.349609" xlink:href="#DejaVuSans-32"/>
      <use x="244.136719" xlink:href="#DejaVuSans-118"/>
      <use x="303.316406" xlink:href="#DejaVuSans-97"/>
      <use x="364.595703" xlink:href="#DejaVuSans-108"/>
      <use x="392.378906" xlink:href="#DejaVuSans-117"/>
      <use x="455.757812" xlink:href="#DejaVuSans-101"/>
     </g>
    </g>
   </g>
  </g>
 </g>
 <defs>
  <clipPath id="pf4edf81170">
   <rect height="266.112" width="357.12" x="46.965625" y="22.318125"/>
  </clipPath>
 </defs>
</svg>
