<?xml version="1.0" encoding="utf-8" standalone="no"?>
<!DOCTYPE svg PUBLIC "-//W3C//DTD SVG 1.1//EN"
  "http://www.w3.org/Graphics/SVG/1.1/DTD/svg11.dtd">
<!-- Created with matplotlib (https://matplotlib.org/) -->
<svg height="325.986375pt" version="1.1" viewBox="0 0 404.923125 325.986375" width="404.923125pt" xmlns="http://www.w3.org/2000/svg" xmlns:xlink="http://www.w3.org/1999/xlink">
 <defs>
  <style type="text/css">
*{stroke-linecap:butt;stroke-linejoin:round;}
  </style>
 </defs>
 <g id="figure_1">
  <g id="patch_1">
   <path d="M 0 325.986375 
L 404.923125 325.986375 
L 404.923125 0 
L 0 0 
z
" style="fill:#ffffff;"/>
  </g>
  <g id="axes_1">
   <g id="patch_2">
    <path d="M 40.603125 288.430125 
L 397.723125 288.430125 
L 397.723125 22.318125 
L 40.603125 22.318125 
z
" style="fill:#ffffff;"/>
   </g>
   <g id="matplotlib.axis_1">
    <g id="xtick_1">
     <g id="line2d_1">
      <path clip-path="url(#p30b9277b03)" d="M 56.835852 288.430125 
L 56.835852 22.318125 
" style="fill:none;stroke:#b0b0b0;stroke-dasharray:2.96,1.28;stroke-dashoffset:0;stroke-width:0.8;"/>
     </g>
     <g id="line2d_2">
      <defs>
       <path d="M 0 0 
L 0 3.5 
" id="m2498019d7c" style="stroke:#000000;stroke-width:0.8;"/>
      </defs>
      <g>
       <use style="stroke:#000000;stroke-width:0.8;" x="56.835852" xlink:href="#m2498019d7c" y="288.430125"/>
      </g>
     </g>
     <g id="text_1">
      <!-- 0 -->
      <defs>
       <path d="M 31.78125 66.40625 
Q 24.171875 66.40625 20.328125 58.90625 
Q 16.5 51.421875 16.5 36.375 
Q 16.5 21.390625 20.328125 13.890625 
Q 24.171875 6.390625 31.78125 6.390625 
Q 39.453125 6.390625 43.28125 13.890625 
Q 47.125 21.390625 47.125 36.375 
Q 47.125 51.421875 43.28125 58.90625 
Q 39.453125 66.40625 31.78125 66.40625 
z
M 31.78125 74.21875 
Q 44.046875 74.21875 50.515625 64.515625 
Q 56.984375 54.828125 56.984375 36.375 
Q 56.984375 17.96875 50.515625 8.265625 
Q 44.046875 -1.421875 31.78125 -1.421875 
Q 19.53125 -1.421875 13.0625 8.265625 
Q 6.59375 17.96875 6.59375 36.375 
Q 6.59375 54.828125 13.0625 64.515625 
Q 19.53125 74.21875 31.78125 74.21875 
z
" id="DejaVuSans-48"/>
      </defs>
      <g transform="translate(53.654602 303.028562)scale(0.1 -0.1)">
       <use xlink:href="#DejaVuSans-48"/>
      </g>
     </g>
    </g>
    <g id="xtick_2">
     <g id="line2d_3">
      <path clip-path="url(#p30b9277b03)" d="M 105.766454 288.430125 
L 105.766454 22.318125 
" style="fill:none;stroke:#b0b0b0;stroke-dasharray:2.96,1.28;stroke-dashoffset:0;stroke-width:0.8;"/>
     </g>
     <g id="line2d_4">
      <g>
       <use style="stroke:#000000;stroke-width:0.8;" x="105.766454" xlink:href="#m2498019d7c" y="288.430125"/>
      </g>
     </g>
     <g id="text_2">
      <!-- 200 -->
      <defs>
       <path d="M 19.1875 8.296875 
L 53.609375 8.296875 
L 53.609375 0 
L 7.328125 0 
L 7.328125 8.296875 
Q 12.9375 14.109375 22.625 23.890625 
Q 32.328125 33.6875 34.8125 36.53125 
Q 39.546875 41.84375 41.421875 45.53125 
Q 43.3125 49.21875 43.3125 52.78125 
Q 43.3125 58.59375 39.234375 62.25 
Q 35.15625 65.921875 28.609375 65.921875 
Q 23.96875 65.921875 18.8125 64.3125 
Q 13.671875 62.703125 7.8125 59.421875 
L 7.8125 69.390625 
Q 13.765625 71.78125 18.9375 73 
Q 24.125 74.21875 28.421875 74.21875 
Q 39.75 74.21875 46.484375 68.546875 
Q 53.21875 62.890625 53.21875 53.421875 
Q 53.21875 48.921875 51.53125 44.890625 
Q 49.859375 40.875 45.40625 35.40625 
Q 44.1875 33.984375 37.640625 27.21875 
Q 31.109375 20.453125 19.1875 8.296875 
z
" id="DejaVuSans-50"/>
      </defs>
      <g transform="translate(96.222704 303.028562)scale(0.1 -0.1)">
       <use xlink:href="#DejaVuSans-50"/>
       <use x="63.623047" xlink:href="#DejaVuSans-48"/>
       <use x="127.246094" xlink:href="#DejaVuSans-48"/>
      </g>
     </g>
    </g>
    <g id="xtick_3">
     <g id="line2d_5">
      <path clip-path="url(#p30b9277b03)" d="M 154.697057 288.430125 
L 154.697057 22.318125 
" style="fill:none;stroke:#b0b0b0;stroke-dasharray:2.96,1.28;stroke-dashoffset:0;stroke-width:0.8;"/>
     </g>
     <g id="line2d_6">
      <g>
       <use style="stroke:#000000;stroke-width:0.8;" x="154.697057" xlink:href="#m2498019d7c" y="288.430125"/>
      </g>
     </g>
     <g id="text_3">
      <!-- 400 -->
      <defs>
       <path d="M 37.796875 64.3125 
L 12.890625 25.390625 
L 37.796875 25.390625 
z
M 35.203125 72.90625 
L 47.609375 72.90625 
L 47.609375 25.390625 
L 58.015625 25.390625 
L 58.015625 17.1875 
L 47.609375 17.1875 
L 47.609375 0 
L 37.796875 0 
L 37.796875 17.1875 
L 4.890625 17.1875 
L 4.890625 26.703125 
z
" id="DejaVuSans-52"/>
      </defs>
      <g transform="translate(145.153307 303.028562)scale(0.1 -0.1)">
       <use xlink:href="#DejaVuSans-52"/>
       <use x="63.623047" xlink:href="#DejaVuSans-48"/>
       <use x="127.246094" xlink:href="#DejaVuSans-48"/>
      </g>
     </g>
    </g>
    <g id="xtick_4">
     <g id="line2d_7">
      <path clip-path="url(#p30b9277b03)" d="M 203.627659 288.430125 
L 203.627659 22.318125 
" style="fill:none;stroke:#b0b0b0;stroke-dasharray:2.96,1.28;stroke-dashoffset:0;stroke-width:0.8;"/>
     </g>
     <g id="line2d_8">
      <g>
       <use style="stroke:#000000;stroke-width:0.8;" x="203.627659" xlink:href="#m2498019d7c" y="288.430125"/>
      </g>
     </g>
     <g id="text_4">
      <!-- 600 -->
      <defs>
       <path d="M 33.015625 40.375 
Q 26.375 40.375 22.484375 35.828125 
Q 18.609375 31.296875 18.609375 23.390625 
Q 18.609375 15.53125 22.484375 10.953125 
Q 26.375 6.390625 33.015625 6.390625 
Q 39.65625 6.390625 43.53125 10.953125 
Q 47.40625 15.53125 47.40625 23.390625 
Q 47.40625 31.296875 43.53125 35.828125 
Q 39.65625 40.375 33.015625 40.375 
z
M 52.59375 71.296875 
L 52.59375 62.3125 
Q 48.875 64.0625 45.09375 64.984375 
Q 41.3125 65.921875 37.59375 65.921875 
Q 27.828125 65.921875 22.671875 59.328125 
Q 17.53125 52.734375 16.796875 39.40625 
Q 19.671875 43.65625 24.015625 45.921875 
Q 28.375 48.1875 33.59375 48.1875 
Q 44.578125 48.1875 50.953125 41.515625 
Q 57.328125 34.859375 57.328125 23.390625 
Q 57.328125 12.15625 50.6875 5.359375 
Q 44.046875 -1.421875 33.015625 -1.421875 
Q 20.359375 -1.421875 13.671875 8.265625 
Q 6.984375 17.96875 6.984375 36.375 
Q 6.984375 53.65625 15.1875 63.9375 
Q 23.390625 74.21875 37.203125 74.21875 
Q 40.921875 74.21875 44.703125 73.484375 
Q 48.484375 72.75 52.59375 71.296875 
z
" id="DejaVuSans-54"/>
      </defs>
      <g transform="translate(194.083909 303.028562)scale(0.1 -0.1)">
       <use xlink:href="#DejaVuSans-54"/>
       <use x="63.623047" xlink:href="#DejaVuSans-48"/>
       <use x="127.246094" xlink:href="#DejaVuSans-48"/>
      </g>
     </g>
    </g>
    <g id="xtick_5">
     <g id="line2d_9">
      <path clip-path="url(#p30b9277b03)" d="M 252.558261 288.430125 
L 252.558261 22.318125 
" style="fill:none;stroke:#b0b0b0;stroke-dasharray:2.96,1.28;stroke-dashoffset:0;stroke-width:0.8;"/>
     </g>
     <g id="line2d_10">
      <g>
       <use style="stroke:#000000;stroke-width:0.8;" x="252.558261" xlink:href="#m2498019d7c" y="288.430125"/>
      </g>
     </g>
     <g id="text_5">
      <!-- 800 -->
      <defs>
       <path d="M 31.78125 34.625 
Q 24.75 34.625 20.71875 30.859375 
Q 16.703125 27.09375 16.703125 20.515625 
Q 16.703125 13.921875 20.71875 10.15625 
Q 24.75 6.390625 31.78125 6.390625 
Q 38.8125 6.390625 42.859375 10.171875 
Q 46.921875 13.96875 46.921875 20.515625 
Q 46.921875 27.09375 42.890625 30.859375 
Q 38.875 34.625 31.78125 34.625 
z
M 21.921875 38.8125 
Q 15.578125 40.375 12.03125 44.71875 
Q 8.5 49.078125 8.5 55.328125 
Q 8.5 64.0625 14.71875 69.140625 
Q 20.953125 74.21875 31.78125 74.21875 
Q 42.671875 74.21875 48.875 69.140625 
Q 55.078125 64.0625 55.078125 55.328125 
Q 55.078125 49.078125 51.53125 44.71875 
Q 48 40.375 41.703125 38.8125 
Q 48.828125 37.15625 52.796875 32.3125 
Q 56.78125 27.484375 56.78125 20.515625 
Q 56.78125 9.90625 50.3125 4.234375 
Q 43.84375 -1.421875 31.78125 -1.421875 
Q 19.734375 -1.421875 13.25 4.234375 
Q 6.78125 9.90625 6.78125 20.515625 
Q 6.78125 27.484375 10.78125 32.3125 
Q 14.796875 37.15625 21.921875 38.8125 
z
M 18.3125 54.390625 
Q 18.3125 48.734375 21.84375 45.5625 
Q 25.390625 42.390625 31.78125 42.390625 
Q 38.140625 42.390625 41.71875 45.5625 
Q 45.3125 48.734375 45.3125 54.390625 
Q 45.3125 60.0625 41.71875 63.234375 
Q 38.140625 66.40625 31.78125 66.40625 
Q 25.390625 66.40625 21.84375 63.234375 
Q 18.3125 60.0625 18.3125 54.390625 
z
" id="DejaVuSans-56"/>
      </defs>
      <g transform="translate(243.014511 303.028562)scale(0.1 -0.1)">
       <use xlink:href="#DejaVuSans-56"/>
       <use x="63.623047" xlink:href="#DejaVuSans-48"/>
       <use x="127.246094" xlink:href="#DejaVuSans-48"/>
      </g>
     </g>
    </g>
    <g id="xtick_6">
     <g id="line2d_11">
      <path clip-path="url(#p30b9277b03)" d="M 301.488863 288.430125 
L 301.488863 22.318125 
" style="fill:none;stroke:#b0b0b0;stroke-dasharray:2.96,1.28;stroke-dashoffset:0;stroke-width:0.8;"/>
     </g>
     <g id="line2d_12">
      <g>
       <use style="stroke:#000000;stroke-width:0.8;" x="301.488863" xlink:href="#m2498019d7c" y="288.430125"/>
      </g>
     </g>
     <g id="text_6">
      <!-- 1000 -->
      <defs>
       <path d="M 12.40625 8.296875 
L 28.515625 8.296875 
L 28.515625 63.921875 
L 10.984375 60.40625 
L 10.984375 69.390625 
L 28.421875 72.90625 
L 38.28125 72.90625 
L 38.28125 8.296875 
L 54.390625 8.296875 
L 54.390625 0 
L 12.40625 0 
z
" id="DejaVuSans-49"/>
      </defs>
      <g transform="translate(288.763863 303.028562)scale(0.1 -0.1)">
       <use xlink:href="#DejaVuSans-49"/>
       <use x="63.623047" xlink:href="#DejaVuSans-48"/>
       <use x="127.246094" xlink:href="#DejaVuSans-48"/>
       <use x="190.869141" xlink:href="#DejaVuSans-48"/>
      </g>
     </g>
    </g>
    <g id="xtick_7">
     <g id="line2d_13">
      <path clip-path="url(#p30b9277b03)" d="M 350.419465 288.430125 
L 350.419465 22.318125 
" style="fill:none;stroke:#b0b0b0;stroke-dasharray:2.96,1.28;stroke-dashoffset:0;stroke-width:0.8;"/>
     </g>
     <g id="line2d_14">
      <g>
       <use style="stroke:#000000;stroke-width:0.8;" x="350.419465" xlink:href="#m2498019d7c" y="288.430125"/>
      </g>
     </g>
     <g id="text_7">
      <!-- 1200 -->
      <g transform="translate(337.694465 303.028562)scale(0.1 -0.1)">
       <use xlink:href="#DejaVuSans-49"/>
       <use x="63.623047" xlink:href="#DejaVuSans-50"/>
       <use x="127.246094" xlink:href="#DejaVuSans-48"/>
       <use x="190.869141" xlink:href="#DejaVuSans-48"/>
      </g>
     </g>
    </g>
    <g id="text_8">
     <!-- Day -->
     <defs>
      <path d="M 19.671875 64.796875 
L 19.671875 8.109375 
L 31.59375 8.109375 
Q 46.6875 8.109375 53.6875 14.9375 
Q 60.6875 21.78125 60.6875 36.53125 
Q 60.6875 51.171875 53.6875 57.984375 
Q 46.6875 64.796875 31.59375 64.796875 
z
M 9.8125 72.90625 
L 30.078125 72.90625 
Q 51.265625 72.90625 61.171875 64.09375 
Q 71.09375 55.28125 71.09375 36.53125 
Q 71.09375 17.671875 61.125 8.828125 
Q 51.171875 0 30.078125 0 
L 9.8125 0 
z
" id="DejaVuSans-68"/>
      <path d="M 34.28125 27.484375 
Q 23.390625 27.484375 19.1875 25 
Q 14.984375 22.515625 14.984375 16.5 
Q 14.984375 11.71875 18.140625 8.90625 
Q 21.296875 6.109375 26.703125 6.109375 
Q 34.1875 6.109375 38.703125 11.40625 
Q 43.21875 16.703125 43.21875 25.484375 
L 43.21875 27.484375 
z
M 52.203125 31.203125 
L 52.203125 0 
L 43.21875 0 
L 43.21875 8.296875 
Q 40.140625 3.328125 35.546875 0.953125 
Q 30.953125 -1.421875 24.3125 -1.421875 
Q 15.921875 -1.421875 10.953125 3.296875 
Q 6 8.015625 6 15.921875 
Q 6 25.140625 12.171875 29.828125 
Q 18.359375 34.515625 30.609375 34.515625 
L 43.21875 34.515625 
L 43.21875 35.40625 
Q 43.21875 41.609375 39.140625 45 
Q 35.0625 48.390625 27.6875 48.390625 
Q 23 48.390625 18.546875 47.265625 
Q 14.109375 46.140625 10.015625 43.890625 
L 10.015625 52.203125 
Q 14.9375 54.109375 19.578125 55.046875 
Q 24.21875 56 28.609375 56 
Q 40.484375 56 46.34375 49.84375 
Q 52.203125 43.703125 52.203125 31.203125 
z
" id="DejaVuSans-97"/>
      <path d="M 32.171875 -5.078125 
Q 28.375 -14.84375 24.75 -17.8125 
Q 21.140625 -20.796875 15.09375 -20.796875 
L 7.90625 -20.796875 
L 7.90625 -13.28125 
L 13.1875 -13.28125 
Q 16.890625 -13.28125 18.9375 -11.515625 
Q 21 -9.765625 23.484375 -3.21875 
L 25.09375 0.875 
L 2.984375 54.6875 
L 12.5 54.6875 
L 29.59375 11.921875 
L 46.6875 54.6875 
L 56.203125 54.6875 
z
" id="DejaVuSans-121"/>
     </defs>
     <g transform="translate(209.289688 316.706687)scale(0.1 -0.1)">
      <use xlink:href="#DejaVuSans-68"/>
      <use x="77.001953" xlink:href="#DejaVuSans-97"/>
      <use x="138.28125" xlink:href="#DejaVuSans-121"/>
     </g>
    </g>
   </g>
   <g id="matplotlib.axis_2">
    <g id="ytick_1">
     <g id="line2d_15">
      <path clip-path="url(#p30b9277b03)" d="M 40.603125 286.247805 
L 397.723125 286.247805 
" style="fill:none;stroke:#b0b0b0;stroke-dasharray:2.96,1.28;stroke-dashoffset:0;stroke-width:0.8;"/>
     </g>
     <g id="line2d_16">
      <defs>
       <path d="M 0 0 
L -3.5 0 
" id="mea8595984e" style="stroke:#000000;stroke-width:0.8;"/>
      </defs>
      <g>
       <use style="stroke:#000000;stroke-width:0.8;" x="40.603125" xlink:href="#mea8595984e" y="286.247805"/>
      </g>
     </g>
     <g id="text_9">
      <!-- 55 -->
      <defs>
       <path d="M 10.796875 72.90625 
L 49.515625 72.90625 
L 49.515625 64.59375 
L 19.828125 64.59375 
L 19.828125 46.734375 
Q 21.96875 47.46875 24.109375 47.828125 
Q 26.265625 48.1875 28.421875 48.1875 
Q 40.625 48.1875 47.75 41.5 
Q 54.890625 34.8125 54.890625 23.390625 
Q 54.890625 11.625 47.5625 5.09375 
Q 40.234375 -1.421875 26.90625 -1.421875 
Q 22.3125 -1.421875 17.546875 -0.640625 
Q 12.796875 0.140625 7.71875 1.703125 
L 7.71875 11.625 
Q 12.109375 9.234375 16.796875 8.0625 
Q 21.484375 6.890625 26.703125 6.890625 
Q 35.15625 6.890625 40.078125 11.328125 
Q 45.015625 15.765625 45.015625 23.390625 
Q 45.015625 31 40.078125 35.4375 
Q 35.15625 39.890625 26.703125 39.890625 
Q 22.75 39.890625 18.8125 39.015625 
Q 14.890625 38.140625 10.796875 36.28125 
z
" id="DejaVuSans-53"/>
      </defs>
      <g transform="translate(20.878125 290.047024)scale(0.1 -0.1)">
       <use xlink:href="#DejaVuSans-53"/>
       <use x="63.623047" xlink:href="#DejaVuSans-53"/>
      </g>
     </g>
    </g>
    <g id="ytick_2">
     <g id="line2d_17">
      <path clip-path="url(#p30b9277b03)" d="M 40.603125 251.340481 
L 397.723125 251.340481 
" style="fill:none;stroke:#b0b0b0;stroke-dasharray:2.96,1.28;stroke-dashoffset:0;stroke-width:0.8;"/>
     </g>
     <g id="line2d_18">
      <g>
       <use style="stroke:#000000;stroke-width:0.8;" x="40.603125" xlink:href="#mea8595984e" y="251.340481"/>
      </g>
     </g>
     <g id="text_10">
      <!-- 60 -->
      <g transform="translate(20.878125 255.1397)scale(0.1 -0.1)">
       <use xlink:href="#DejaVuSans-54"/>
       <use x="63.623047" xlink:href="#DejaVuSans-48"/>
      </g>
     </g>
    </g>
    <g id="ytick_3">
     <g id="line2d_19">
      <path clip-path="url(#p30b9277b03)" d="M 40.603125 216.433158 
L 397.723125 216.433158 
" style="fill:none;stroke:#b0b0b0;stroke-dasharray:2.96,1.28;stroke-dashoffset:0;stroke-width:0.8;"/>
     </g>
     <g id="line2d_20">
      <g>
       <use style="stroke:#000000;stroke-width:0.8;" x="40.603125" xlink:href="#mea8595984e" y="216.433158"/>
      </g>
     </g>
     <g id="text_11">
      <!-- 65 -->
      <g transform="translate(20.878125 220.232377)scale(0.1 -0.1)">
       <use xlink:href="#DejaVuSans-54"/>
       <use x="63.623047" xlink:href="#DejaVuSans-53"/>
      </g>
     </g>
    </g>
    <g id="ytick_4">
     <g id="line2d_21">
      <path clip-path="url(#p30b9277b03)" d="M 40.603125 181.525835 
L 397.723125 181.525835 
" style="fill:none;stroke:#b0b0b0;stroke-dasharray:2.96,1.28;stroke-dashoffset:0;stroke-width:0.8;"/>
     </g>
     <g id="line2d_22">
      <g>
       <use style="stroke:#000000;stroke-width:0.8;" x="40.603125" xlink:href="#mea8595984e" y="181.525835"/>
      </g>
     </g>
     <g id="text_12">
      <!-- 70 -->
      <defs>
       <path d="M 8.203125 72.90625 
L 55.078125 72.90625 
L 55.078125 68.703125 
L 28.609375 0 
L 18.3125 0 
L 43.21875 64.59375 
L 8.203125 64.59375 
z
" id="DejaVuSans-55"/>
      </defs>
      <g transform="translate(20.878125 185.325053)scale(0.1 -0.1)">
       <use xlink:href="#DejaVuSans-55"/>
       <use x="63.623047" xlink:href="#DejaVuSans-48"/>
      </g>
     </g>
    </g>
    <g id="ytick_5">
     <g id="line2d_23">
      <path clip-path="url(#p30b9277b03)" d="M 40.603125 146.618511 
L 397.723125 146.618511 
" style="fill:none;stroke:#b0b0b0;stroke-dasharray:2.96,1.28;stroke-dashoffset:0;stroke-width:0.8;"/>
     </g>
     <g id="line2d_24">
      <g>
       <use style="stroke:#000000;stroke-width:0.8;" x="40.603125" xlink:href="#mea8595984e" y="146.618511"/>
      </g>
     </g>
     <g id="text_13">
      <!-- 75 -->
      <g transform="translate(20.878125 150.41773)scale(0.1 -0.1)">
       <use xlink:href="#DejaVuSans-55"/>
       <use x="63.623047" xlink:href="#DejaVuSans-53"/>
      </g>
     </g>
    </g>
    <g id="ytick_6">
     <g id="line2d_25">
      <path clip-path="url(#p30b9277b03)" d="M 40.603125 111.711188 
L 397.723125 111.711188 
" style="fill:none;stroke:#b0b0b0;stroke-dasharray:2.96,1.28;stroke-dashoffset:0;stroke-width:0.8;"/>
     </g>
     <g id="line2d_26">
      <g>
       <use style="stroke:#000000;stroke-width:0.8;" x="40.603125" xlink:href="#mea8595984e" y="111.711188"/>
      </g>
     </g>
     <g id="text_14">
      <!-- 80 -->
      <g transform="translate(20.878125 115.510406)scale(0.1 -0.1)">
       <use xlink:href="#DejaVuSans-56"/>
       <use x="63.623047" xlink:href="#DejaVuSans-48"/>
      </g>
     </g>
    </g>
    <g id="ytick_7">
     <g id="line2d_27">
      <path clip-path="url(#p30b9277b03)" d="M 40.603125 76.803864 
L 397.723125 76.803864 
" style="fill:none;stroke:#b0b0b0;stroke-dasharray:2.96,1.28;stroke-dashoffset:0;stroke-width:0.8;"/>
     </g>
     <g id="line2d_28">
      <g>
       <use style="stroke:#000000;stroke-width:0.8;" x="40.603125" xlink:href="#mea8595984e" y="76.803864"/>
      </g>
     </g>
     <g id="text_15">
      <!-- 85 -->
      <g transform="translate(20.878125 80.603083)scale(0.1 -0.1)">
       <use xlink:href="#DejaVuSans-56"/>
       <use x="63.623047" xlink:href="#DejaVuSans-53"/>
      </g>
     </g>
    </g>
    <g id="ytick_8">
     <g id="line2d_29">
      <path clip-path="url(#p30b9277b03)" d="M 40.603125 41.896541 
L 397.723125 41.896541 
" style="fill:none;stroke:#b0b0b0;stroke-dasharray:2.96,1.28;stroke-dashoffset:0;stroke-width:0.8;"/>
     </g>
     <g id="line2d_30">
      <g>
       <use style="stroke:#000000;stroke-width:0.8;" x="40.603125" xlink:href="#mea8595984e" y="41.896541"/>
      </g>
     </g>
     <g id="text_16">
      <!-- 90 -->
      <defs>
       <path d="M 10.984375 1.515625 
L 10.984375 10.5 
Q 14.703125 8.734375 18.5 7.8125 
Q 22.3125 6.890625 25.984375 6.890625 
Q 35.75 6.890625 40.890625 13.453125 
Q 46.046875 20.015625 46.78125 33.40625 
Q 43.953125 29.203125 39.59375 26.953125 
Q 35.25 24.703125 29.984375 24.703125 
Q 19.046875 24.703125 12.671875 31.3125 
Q 6.296875 37.9375 6.296875 49.421875 
Q 6.296875 60.640625 12.9375 67.421875 
Q 19.578125 74.21875 30.609375 74.21875 
Q 43.265625 74.21875 49.921875 64.515625 
Q 56.59375 54.828125 56.59375 36.375 
Q 56.59375 19.140625 48.40625 8.859375 
Q 40.234375 -1.421875 26.421875 -1.421875 
Q 22.703125 -1.421875 18.890625 -0.6875 
Q 15.09375 0.046875 10.984375 1.515625 
z
M 30.609375 32.421875 
Q 37.25 32.421875 41.125 36.953125 
Q 45.015625 41.5 45.015625 49.421875 
Q 45.015625 57.28125 41.125 61.84375 
Q 37.25 66.40625 30.609375 66.40625 
Q 23.96875 66.40625 20.09375 61.84375 
Q 16.21875 57.28125 16.21875 49.421875 
Q 16.21875 41.5 20.09375 36.953125 
Q 23.96875 32.421875 30.609375 32.421875 
z
" id="DejaVuSans-57"/>
      </defs>
      <g transform="translate(20.878125 45.69576)scale(0.1 -0.1)">
       <use xlink:href="#DejaVuSans-57"/>
       <use x="63.623047" xlink:href="#DejaVuSans-48"/>
      </g>
     </g>
    </g>
    <g id="text_17">
     <!-- Price $ -->
     <defs>
      <path d="M 19.671875 64.796875 
L 19.671875 37.40625 
L 32.078125 37.40625 
Q 38.96875 37.40625 42.71875 40.96875 
Q 46.484375 44.53125 46.484375 51.125 
Q 46.484375 57.671875 42.71875 61.234375 
Q 38.96875 64.796875 32.078125 64.796875 
z
M 9.8125 72.90625 
L 32.078125 72.90625 
Q 44.34375 72.90625 50.609375 67.359375 
Q 56.890625 61.8125 56.890625 51.125 
Q 56.890625 40.328125 50.609375 34.8125 
Q 44.34375 29.296875 32.078125 29.296875 
L 19.671875 29.296875 
L 19.671875 0 
L 9.8125 0 
z
" id="DejaVuSans-80"/>
      <path d="M 41.109375 46.296875 
Q 39.59375 47.171875 37.8125 47.578125 
Q 36.03125 48 33.890625 48 
Q 26.265625 48 22.1875 43.046875 
Q 18.109375 38.09375 18.109375 28.8125 
L 18.109375 0 
L 9.078125 0 
L 9.078125 54.6875 
L 18.109375 54.6875 
L 18.109375 46.1875 
Q 20.953125 51.171875 25.484375 53.578125 
Q 30.03125 56 36.53125 56 
Q 37.453125 56 38.578125 55.875 
Q 39.703125 55.765625 41.0625 55.515625 
z
" id="DejaVuSans-114"/>
      <path d="M 9.421875 54.6875 
L 18.40625 54.6875 
L 18.40625 0 
L 9.421875 0 
z
M 9.421875 75.984375 
L 18.40625 75.984375 
L 18.40625 64.59375 
L 9.421875 64.59375 
z
" id="DejaVuSans-105"/>
      <path d="M 48.78125 52.59375 
L 48.78125 44.1875 
Q 44.96875 46.296875 41.140625 47.34375 
Q 37.3125 48.390625 33.40625 48.390625 
Q 24.65625 48.390625 19.8125 42.84375 
Q 14.984375 37.3125 14.984375 27.296875 
Q 14.984375 17.28125 19.8125 11.734375 
Q 24.65625 6.203125 33.40625 6.203125 
Q 37.3125 6.203125 41.140625 7.25 
Q 44.96875 8.296875 48.78125 10.40625 
L 48.78125 2.09375 
Q 45.015625 0.34375 40.984375 -0.53125 
Q 36.96875 -1.421875 32.421875 -1.421875 
Q 20.0625 -1.421875 12.78125 6.34375 
Q 5.515625 14.109375 5.515625 27.296875 
Q 5.515625 40.671875 12.859375 48.328125 
Q 20.21875 56 33.015625 56 
Q 37.15625 56 41.109375 55.140625 
Q 45.0625 54.296875 48.78125 52.59375 
z
" id="DejaVuSans-99"/>
      <path d="M 56.203125 29.59375 
L 56.203125 25.203125 
L 14.890625 25.203125 
Q 15.484375 15.921875 20.484375 11.0625 
Q 25.484375 6.203125 34.421875 6.203125 
Q 39.59375 6.203125 44.453125 7.46875 
Q 49.3125 8.734375 54.109375 11.28125 
L 54.109375 2.78125 
Q 49.265625 0.734375 44.1875 -0.34375 
Q 39.109375 -1.421875 33.890625 -1.421875 
Q 20.796875 -1.421875 13.15625 6.1875 
Q 5.515625 13.8125 5.515625 26.8125 
Q 5.515625 40.234375 12.765625 48.109375 
Q 20.015625 56 32.328125 56 
Q 43.359375 56 49.78125 48.890625 
Q 56.203125 41.796875 56.203125 29.59375 
z
M 47.21875 32.234375 
Q 47.125 39.59375 43.09375 43.984375 
Q 39.0625 48.390625 32.421875 48.390625 
Q 24.90625 48.390625 20.390625 44.140625 
Q 15.875 39.890625 15.1875 32.171875 
z
" id="DejaVuSans-101"/>
      <path id="DejaVuSans-32"/>
      <path d="M 33.796875 -14.703125 
L 28.90625 -14.703125 
L 28.859375 0 
Q 23.734375 0.09375 18.609375 1.1875 
Q 13.484375 2.296875 8.296875 4.5 
L 8.296875 13.28125 
Q 13.28125 10.15625 18.375 8.5625 
Q 23.484375 6.984375 28.90625 6.9375 
L 28.90625 29.203125 
Q 18.109375 30.953125 13.203125 35.15625 
Q 8.296875 39.359375 8.296875 46.6875 
Q 8.296875 54.640625 13.625 59.21875 
Q 18.953125 63.8125 28.90625 64.5 
L 28.90625 75.984375 
L 33.796875 75.984375 
L 33.796875 64.65625 
Q 38.328125 64.453125 42.578125 63.6875 
Q 46.828125 62.9375 50.875 61.625 
L 50.875 53.078125 
Q 46.828125 55.125 42.546875 56.25 
Q 38.28125 57.375 33.796875 57.5625 
L 33.796875 36.71875 
Q 44.875 35.015625 50.09375 30.609375 
Q 55.328125 26.21875 55.328125 18.609375 
Q 55.328125 10.359375 49.78125 5.59375 
Q 44.234375 0.828125 33.796875 0.09375 
z
M 28.90625 37.59375 
L 28.90625 57.625 
Q 23.25 56.984375 20.265625 54.390625 
Q 17.28125 51.8125 17.28125 47.515625 
Q 17.28125 43.3125 20.03125 40.96875 
Q 22.796875 38.625 28.90625 37.59375 
z
M 33.796875 28.21875 
L 33.796875 7.078125 
Q 39.984375 7.90625 43.140625 10.59375 
Q 46.296875 13.28125 46.296875 17.671875 
Q 46.296875 21.96875 43.28125 24.5 
Q 40.28125 27.046875 33.796875 28.21875 
z
" id="DejaVuSans-36"/>
     </defs>
     <g transform="translate(14.798438 172.342094)rotate(-90)scale(0.1 -0.1)">
      <use xlink:href="#DejaVuSans-80"/>
      <use x="58.552734" xlink:href="#DejaVuSans-114"/>
      <use x="99.666016" xlink:href="#DejaVuSans-105"/>
      <use x="127.449219" xlink:href="#DejaVuSans-99"/>
      <use x="182.429688" xlink:href="#DejaVuSans-101"/>
      <use x="243.953125" xlink:href="#DejaVuSans-32"/>
      <use x="275.740234" xlink:href="#DejaVuSans-36"/>
     </g>
    </g>
   </g>
   <g id="line2d_31">
    <path clip-path="url(#p30b9277b03)" d="M 56.835852 193.500193 
L 57.080505 152.034643 
L 57.325158 150.558582 
L 57.569811 150.769029 
L 57.814464 153.201665 
L 58.30377 146.806534 
L 58.793076 152.001513 
L 59.037729 150.849991 
L 59.282382 153.855325 
L 59.771688 157.283472 
L 60.260994 150.314365 
L 60.505647 164.654246 
L 60.7503 166.730756 
L 60.994953 164.547078 
L 61.239606 169.819716 
L 61.484259 168.067745 
L 61.728912 168.816695 
L 62.218219 162.596111 
L 62.462872 162.94201 
L 62.707525 160.525087 
L 62.952178 163.22021 
L 63.196831 161.285968 
L 63.441484 155.240038 
L 63.686137 154.251612 
L 63.93079 146.389102 
L 64.175443 151.970832 
L 64.420096 154.152966 
L 64.664749 150.604708 
L 64.909402 150.380785 
L 65.154055 143.61062 
L 65.643361 150.60897 
L 65.888014 151.109814 
L 66.37732 145.833927 
L 66.621973 147.596018 
L 66.866626 145.810917 
L 67.111279 148.608627 
L 67.355932 149.022491 
L 67.845238 151.810081 
L 68.089891 150.299131 
L 68.334544 152.199869 
L 68.579197 149.47071 
L 69.068503 142.913283 
L 69.313156 141.956656 
L 69.557809 148.99767 
L 69.802462 141.426196 
L 70.047115 143.36603 
L 70.291768 138.497988 
L 70.536421 129.528112 
L 70.781074 130.066295 
L 71.025727 129.589313 
L 71.27038 132.395599 
L 71.515033 138.372285 
L 71.759686 138.680738 
L 72.004339 144.503118 
L 72.248992 144.718146 
L 72.493645 141.660772 
L 72.738298 142.775222 
L 72.982951 143.283737 
L 73.227604 153.422712 
L 73.472257 158.547754 
L 73.71691 156.553537 
L 73.961563 152.267249 
L 74.450869 160.757373 
L 74.695522 162.142406 
L 74.940175 161.432445 
L 75.429481 168.916086 
L 75.674134 185.112283 
L 75.918787 191.021323 
L 76.16344 185.1762 
L 76.408093 184.868066 
L 76.652746 186.256241 
L 76.897399 177.881914 
L 77.142052 178.900541 
L 77.386705 181.568606 
L 77.631358 174.754817 
L 77.876011 172.895519 
L 78.120664 165.241805 
L 78.365317 168.424722 
L 78.60997 163.874243 
L 78.854623 166.291432 
L 79.099276 166.991059 
L 79.343929 162.675955 
L 79.588582 162.361801 
L 80.077888 184.477425 
L 80.322541 184.668325 
L 80.567194 186.25965 
L 81.0565 181.730689 
L 81.301153 187.192842 
L 81.545806 184.909452 
L 81.790459 188.359065 
L 82.035112 187.391305 
L 82.279765 191.650588 
L 82.524418 191.236138 
L 82.769071 193.935416 
L 83.258377 183.77114 
L 83.50303 187.388482 
L 83.747683 184.692081 
L 83.992336 187.823918 
L 84.481643 186.337683 
L 84.726296 187.161735 
L 84.970949 186.932059 
L 85.215602 190.603784 
L 85.460255 185.293222 
L 85.704908 183.375972 
L 85.949561 185.23772 
L 86.194214 183.99469 
L 86.438867 180.701622 
L 86.68352 181.23352 
L 86.928173 179.36522 
L 87.172826 184.897574 
L 87.417479 182.840345 
L 87.662132 178.447368 
L 87.906785 178.472243 
L 88.151438 179.419176 
L 88.396091 172.73498 
L 88.640744 180.823757 
L 88.885397 171.4585 
L 89.13005 169.603516 
L 89.374703 168.89739 
L 89.619356 167.630551 
L 89.864009 168.020872 
L 90.108662 167.55401 
L 90.353315 167.516938 
L 90.597968 171.77782 
L 90.842621 181.742141 
L 91.087274 186.949796 
L 91.331927 183.201797 
L 91.57658 176.209893 
L 91.821233 174.399225 
L 92.065886 174.492917 
L 92.555192 165.035512 
L 92.799845 171.833161 
L 93.044498 165.784888 
L 93.289151 155.785412 
L 93.533804 151.763102 
L 93.778457 154.721031 
L 94.02311 154.166549 
L 94.267763 155.975033 
L 94.512416 156.837862 
L 94.757069 152.508962 
L 95.001722 151.192534 
L 95.491028 159.588593 
L 95.735681 162.201422 
L 95.980334 161.275954 
L 96.224987 156.349695 
L 96.46964 154.93494 
L 96.958946 144.078547 
L 97.203599 144.945425 
L 97.448252 143.536689 
L 97.692905 143.25801 
L 97.937558 140.462697 
L 98.426864 132.806107 
L 98.671517 133.932914 
L 98.91617 134.432321 
L 99.160823 125.196016 
L 99.405476 122.367679 
L 99.650129 124.675943 
L 99.894782 123.493528 
L 100.139435 117.428476 
L 100.384088 118.864643 
L 100.628741 116.784777 
L 100.873394 116.51707 
L 101.118047 125.694784 
L 101.3627 120.123066 
L 101.607353 121.099722 
L 101.852006 115.340035 
L 102.096659 120.357483 
L 102.585965 113.729108 
L 103.075271 122.850521 
L 103.319924 120.958411 
L 103.564577 117.869718 
L 103.80923 112.538063 
L 104.053883 116.31898 
L 104.298536 116.027944 
L 104.543189 119.710108 
L 105.032495 115.628408 
L 105.277148 117.207376 
L 105.521801 115.91204 
L 105.766454 108.784365 
L 106.011107 117.895179 
L 106.500413 125.447051 
L 106.745066 124.393429 
L 106.98972 127.43525 
L 107.234373 132.159478 
L 107.479026 126.272329 
L 107.723679 126.938879 
L 108.212985 137.823076 
L 108.457638 143.393195 
L 108.702291 137.542213 
L 108.946944 135.712476 
L 109.191597 139.191703 
L 109.43625 137.935783 
L 109.680903 133.832351 
L 110.170209 141.456716 
L 110.414862 143.539086 
L 110.659515 142.983699 
L 110.904168 143.386963 
L 111.148821 143.143865 
L 111.393474 138.251374 
L 111.88278 155.606391 
L 112.127433 153.771221 
L 112.372086 148.965498 
L 112.616739 147.601451 
L 112.861392 141.695714 
L 113.106045 139.839717 
L 113.350698 146.78656 
L 113.595351 146.341909 
L 114.084657 144.554198 
L 114.32931 141.549609 
L 114.573963 131.990097 
L 114.818616 128.507514 
L 115.063269 130.296291 
L 115.307922 125.625274 
L 115.552575 123.769437 
L 115.797228 128.46437 
L 116.041881 125.68248 
L 116.286534 126.93057 
L 116.531187 126.066516 
L 116.77584 121.786938 
L 117.020493 122.674642 
L 117.265146 118.427502 
L 117.754452 121.599181 
L 117.999105 121.892242 
L 118.243758 121.37398 
L 118.488411 122.126285 
L 118.733064 123.483088 
L 119.22237 117.595567 
L 119.467023 117.570745 
L 119.956329 126.955284 
L 120.200982 127.226933 
L 120.445635 130.059584 
L 120.690288 128.679611 
L 120.934941 130.266516 
L 121.179594 133.038393 
L 121.424247 146.116761 
L 122.158206 154.962691 
L 122.402859 152.057334 
L 122.892165 154.286553 
L 123.136818 157.034781 
L 123.381471 157.810576 
L 123.626124 160.279751 
L 123.870777 160.573557 
L 124.11543 157.779256 
L 124.360083 158.434674 
L 124.604736 157.487847 
L 124.849389 159.013019 
L 125.094042 159.533411 
L 125.583348 149.778472 
L 125.828001 148.94318 
L 126.072654 150.465582 
L 126.317307 146.506869 
L 126.56196 144.574332 
L 126.806613 141.44846 
L 127.051266 134.868076 
L 127.295919 134.368616 
L 127.540572 137.088028 
L 127.785225 132.667247 
L 128.029878 137.409531 
L 128.274531 144.740091 
L 128.519184 144.912401 
L 128.763837 146.334612 
L 129.00849 150.442572 
L 129.253143 151.982657 
L 129.497797 151.541522 
L 129.987103 157.42425 
L 130.231756 163.577454 
L 130.476409 158.010637 
L 130.721062 155.986432 
L 130.965715 144.613268 
L 131.210368 144.034551 
L 131.699674 147.10817 
L 131.944327 139.370245 
L 132.18898 137.45944 
L 132.433633 138.746573 
L 132.678286 141.470246 
L 132.922939 133.790006 
L 133.167592 136.412529 
L 133.412245 132.560345 
L 133.656898 135.719294 
L 133.901551 128.823531 
L 134.146204 127.536399 
L 134.63551 130.867285 
L 134.880163 127.748071 
L 135.124816 126.086064 
L 135.369469 125.451579 
L 135.614122 120.537783 
L 135.858775 124.558282 
L 136.103428 121.9193 
L 136.348081 114.645574 
L 136.592734 116.509666 
L 137.08204 113.199926 
L 137.326693 112.315472 
L 137.571346 113.180591 
L 137.815999 111.564285 
L 138.305305 116.412193 
L 138.794611 103.585019 
L 139.039264 102.333147 
L 139.283917 100.313842 
L 139.52857 100.984973 
L 139.773223 99.679091 
L 140.017876 99.031663 
L 140.507182 110.381337 
L 140.751835 108.067054 
L 140.996488 107.898472 
L 141.241141 113.174146 
L 141.485794 113.890712 
L 141.9751 120.7355 
L 142.464406 126.536946 
L 142.709059 122.529337 
L 142.953712 126.957575 
L 143.198365 125.85953 
L 143.443018 122.799547 
L 143.687671 121.820122 
L 144.176977 118.054705 
L 144.42163 117.760207 
L 144.910936 114.896183 
L 145.155589 115.944958 
L 145.400242 119.721879 
L 145.644895 118.836892 
L 145.889548 122.36198 
L 146.134201 121.174931 
L 146.378854 122.031741 
L 146.623507 125.174284 
L 146.86816 121.693459 
L 147.112813 123.074551 
L 147.357466 130.311311 
L 147.846772 136.36571 
L 148.336078 141.468807 
L 148.580731 146.213649 
L 148.825384 147.83656 
L 149.070037 144.639155 
L 149.31469 147.8005 
L 149.559343 144.910004 
L 149.803996 144.219858 
L 150.048649 157.862242 
L 150.293302 158.084781 
L 150.537955 157.572751 
L 150.782608 157.476289 
L 151.027261 151.518618 
L 151.271914 151.564852 
L 151.516567 144.985266 
L 151.76122 143.659144 
L 152.250527 138.28035 
L 152.49518 139.991361 
L 153.229139 154.870916 
L 153.718445 153.296476 
L 153.963098 145.285038 
L 154.207751 145.951961 
L 154.452404 144.650074 
L 154.697057 147.334491 
L 154.94171 141.5258 
L 155.186363 143.264775 
L 155.431016 142.880792 
L 155.675669 145.017012 
L 155.920322 145.434232 
L 156.164975 143.131134 
L 156.409628 137.977649 
L 156.898934 147.229666 
L 157.38824 143.488592 
L 157.632893 146.663093 
L 158.122199 135.799776 
L 158.366852 130.717612 
L 158.611505 129.731795 
L 158.856158 134.244191 
L 159.100811 134.959691 
L 159.345464 134.394982 
L 159.590117 133.101937 
L 159.83477 131.187457 
L 160.324076 125.57643 
L 160.568729 126.551487 
L 160.813382 125.598375 
L 161.058035 120.700825 
L 161.302688 121.762383 
L 161.547341 128.939595 
L 161.791994 130.870108 
L 162.036647 125.318684 
L 162.2813 130.342791 
L 162.525953 126.072108 
L 162.770606 124.633332 
L 163.259912 124.215952 
L 163.504565 120.896997 
L 163.749218 119.725714 
L 163.993871 117.723774 
L 164.238524 108.673202 
L 164.483177 109.78648 
L 164.972483 108.448214 
L 165.461789 115.61115 
L 165.951095 121.146754 
L 166.195748 115.729557 
L 166.440401 112.908783 
L 166.685054 112.739616 
L 166.929707 112.791229 
L 167.17436 115.649554 
L 167.419013 128.198634 
L 167.663666 126.508237 
L 168.152972 136.80578 
L 168.642278 138.529627 
L 168.886931 137.328463 
L 169.131584 138.509866 
L 169.376237 137.816098 
L 169.865543 129.57083 
L 170.110196 130.099958 
L 170.354849 129.618555 
L 170.844155 125.205764 
L 171.578114 130.522504 
L 172.312073 139.606153 
L 172.556726 140.199198 
L 172.801379 141.313915 
L 173.046032 137.79426 
L 173.290685 136.236437 
L 173.535338 137.748239 
L 174.024644 135.994884 
L 174.269298 136.058268 
L 174.513951 141.564044 
L 174.758604 141.423213 
L 175.003257 142.548209 
L 175.981869 135.911418 
L 176.226522 130.504022 
L 176.471175 128.222497 
L 176.715828 128.906784 
L 177.205134 131.95409 
L 177.449787 130.218525 
L 177.69444 129.508511 
L 177.939093 130.668609 
L 178.183746 127.779444 
L 178.428399 130.116364 
L 178.673052 129.910817 
L 178.917705 129.322192 
L 179.407011 135.690052 
L 179.651664 136.040797 
L 179.896317 138.869401 
L 180.14097 143.256359 
L 180.385623 151.379705 
L 180.630276 150.751771 
L 180.874929 151.513185 
L 181.119582 153.414243 
L 181.364235 147.604807 
L 181.608888 149.838128 
L 181.853541 143.700264 
L 182.098194 146.895859 
L 182.342847 146.808931 
L 182.5875 148.229438 
L 182.832153 146.518214 
L 183.076806 149.011519 
L 183.321459 145.315772 
L 183.810765 142.134345 
L 184.055418 138.514873 
L 184.300071 136.599487 
L 184.789377 138.685479 
L 185.03403 135.969423 
L 185.278683 135.210193 
L 185.523336 138.520892 
L 186.012642 134.482176 
L 186.257295 130.805658 
L 186.501948 124.460862 
L 186.746601 130.451077 
L 186.991254 129.836247 
L 187.725213 136.624894 
L 187.969866 136.910498 
L 188.214519 132.702614 
L 188.459172 133.674795 
L 188.703825 134.187678 
L 188.948478 129.262643 
L 189.437784 138.072992 
L 189.682437 128.542775 
L 189.92709 134.710574 
L 190.171743 132.313145 
L 190.416396 135.659371 
L 190.661049 133.095492 
L 190.905702 134.572193 
L 191.150355 132.9708 
L 191.395008 127.85918 
L 191.639661 126.376035 
L 191.884314 126.478036 
L 192.128967 120.023515 
L 192.37362 122.355375 
L 192.618273 119.848755 
L 192.862926 124.963571 
L 193.107579 121.988171 
L 193.596885 149.336005 
L 193.841538 147.874591 
L 194.330844 136.22946 
L 194.575497 135.312088 
L 194.82015 133.508823 
L 195.064803 132.749221 
L 195.309456 130.617581 
L 195.554109 133.69658 
L 195.798762 134.081149 
L 196.043415 130.234238 
L 196.288068 132.123151 
L 196.532721 132.740432 
L 196.777375 126.244685 
L 197.266681 121.691755 
L 197.755987 111.894896 
L 198.00064 114.024938 
L 198.245293 112.940476 
L 198.489946 88.985953 
L 199.223905 81.696674 
L 199.468558 73.845243 
L 199.713211 76.424675 
L 199.957864 75.872058 
L 200.202517 70.527566 
L 200.44717 73.540145 
L 200.691823 73.988258 
L 200.936476 56.96151 
L 201.181129 64.469599 
L 201.425782 64.026386 
L 201.670435 72.449078 
L 201.915088 73.633304 
L 202.159741 79.056946 
L 202.404394 78.705881 
L 202.8937 86.096469 
L 203.138353 79.600615 
L 203.383006 80.913315 
L 203.627659 81.054839 
L 203.872312 86.892345 
L 204.116965 78.722393 
L 204.361618 66.014158 
L 204.606271 71.238219 
L 204.850924 63.826325 
L 205.095577 61.311236 
L 205.34023 63.344922 
L 205.584883 58.343027 
L 205.829536 60.713237 
L 206.074189 59.192274 
L 206.318842 66.207082 
L 206.563495 66.172407 
L 206.808148 68.309586 
L 207.052801 63.106138 
L 207.542107 34.414125 
L 207.78676 42.037958 
L 208.031413 38.517557 
L 208.276066 41.476711 
L 208.520719 59.857279 
L 208.765372 55.43277 
L 209.010025 59.991239 
L 209.499331 60.52564 
L 209.743984 49.762833 
L 209.988637 48.000795 
L 210.23329 47.656974 
L 210.722596 59.672665 
L 210.967249 53.817102 
L 211.211902 71.992869 
L 211.456555 68.157516 
L 211.701208 67.113428 
L 211.945861 58.067331 
L 212.435167 56.949365 
L 212.67982 66.980001 
L 212.924473 57.09531 
L 213.413779 66.266578 
L 213.658432 67.708125 
L 214.147738 63.633508 
L 214.392391 82.165347 
L 214.881697 75.377392 
L 215.12635 75.942793 
L 215.371003 82.453987 
L 215.860309 79.456322 
L 216.104962 79.56871 
L 216.594268 88.536828 
L 216.838921 81.972583 
L 217.083574 89.015515 
L 217.328227 88.055212 
L 217.57288 93.329981 
L 217.817533 101.579084 
L 218.062186 94.317555 
L 218.306839 93.983747 
L 218.551492 85.416177 
L 218.796145 89.151073 
L 219.040798 90.087141 
L 219.285452 96.482325 
L 219.530105 85.705029 
L 219.774758 84.904413 
L 220.019411 86.092101 
L 220.264064 96.832804 
L 220.508717 94.81792 
L 220.75337 98.096767 
L 220.998023 90.132948 
L 221.242676 91.618118 
L 221.487329 101.877417 
L 221.731982 102.158387 
L 221.976635 101.362724 
L 222.221288 103.475028 
L 222.465941 99.767829 
L 222.710594 101.109931 
L 223.1999 104.720881 
L 223.444553 106.014459 
L 223.689206 108.267807 
L 223.933859 111.622343 
L 224.178512 121.154637 
L 224.423165 120.630569 
L 224.667818 120.985257 
L 224.912471 118.173378 
L 225.401777 109.648366 
L 225.891083 114.069307 
L 226.135736 121.50272 
L 226.380389 121.824809 
L 226.869695 114.096791 
L 227.114348 120.491975 
L 227.359001 123.901906 
L 227.603654 121.937783 
L 227.848307 118.467025 
L 228.09296 120.91793 
L 228.337613 115.995932 
L 228.582266 120.4989 
L 229.071572 113.27913 
L 229.316225 108.128095 
L 229.560878 130.997463 
L 229.805531 136.034033 
L 230.050184 134.278706 
L 230.294837 135.404502 
L 230.53949 142.889421 
L 230.784143 140.899358 
L 231.028796 142.815596 
L 231.273449 147.059114 
L 231.518102 145.380648 
L 231.762755 145.351832 
L 232.007408 143.288903 
L 232.741367 158.582003 
L 232.98602 159.733845 
L 233.230673 156.988441 
L 233.475326 156.988867 
L 233.719979 159.255744 
L 233.964632 163.116078 
L 234.209285 161.59831 
L 234.453938 158.473557 
L 234.698591 156.86801 
L 234.943244 157.686896 
L 235.187897 157.79939 
L 235.677203 160.045335 
L 235.921856 163.891074 
L 236.166509 162.1978 
L 236.655815 171.092307 
L 236.900468 164.526784 
L 237.145121 164.362677 
L 237.389774 159.641911 
L 237.634427 151.638516 
L 237.87908 155.969227 
L 238.123733 158.183107 
L 238.368386 155.510941 
L 238.613039 150.727323 
L 238.857692 150.352821 
L 239.102345 151.128297 
L 239.346998 149.762226 
L 240.080957 158.137939 
L 240.32561 154.573062 
L 240.570263 157.811322 
L 240.814916 166.251058 
L 241.059569 167.823261 
L 241.304222 162.982011 
L 241.548875 161.78154 
L 241.793529 162.39408 
L 242.038182 164.133214 
L 242.282835 163.392999 
L 242.527488 162.042428 
L 242.772141 153.403217 
L 243.016794 158.607091 
L 243.261447 168.475909 
L 243.5061 167.171945 
L 243.750753 164.620689 
L 243.995406 160.20646 
L 244.240059 162.941584 
L 244.484712 161.566778 
L 244.729365 163.694316 
L 244.974018 179.877303 
L 245.218671 187.078643 
L 245.463324 187.778909 
L 245.707977 199.614141 
L 245.95263 217.97058 
L 246.197283 225.335442 
L 246.686589 205.135364 
L 246.931242 212.258724 
L 247.175895 214.351641 
L 247.420548 219.17036 
L 247.665201 215.406914 
L 247.909854 213.460208 
L 248.154507 220.159745 
L 248.39916 203.792836 
L 248.888466 216.186704 
L 249.133119 215.110285 
L 249.377772 216.679878 
L 249.622425 216.927931 
L 249.867078 213.765147 
L 250.111731 215.770922 
L 250.356384 222.988348 
L 250.601037 220.52109 
L 250.84569 222.288668 
L 251.090343 221.63831 
L 251.334996 220.173274 
L 251.579649 219.86253 
L 251.824302 220.980655 
L 252.068955 220.968617 
L 252.313608 213.871835 
L 252.558261 217.175184 
L 253.047567 207.767475 
L 253.29222 208.294792 
L 253.781526 199.866667 
L 254.026179 200.317816 
L 254.270832 199.190423 
L 254.515485 200.108328 
L 254.760138 243.35533 
L 255.004791 252.066368 
L 255.983403 256.289139 
L 256.228056 253.505145 
L 256.472709 258.763268 
L 256.717362 260.03341 
L 256.962015 263.299393 
L 257.206668 262.573906 
L 257.451321 261.132866 
L 257.695974 266.265312 
L 258.674586 256.035707 
L 258.919239 254.750492 
L 259.163892 257.236951 
L 259.408545 255.155807 
L 259.897851 267.188649 
L 260.142504 270.178484 
L 260.387157 262.336374 
L 260.63181 247.868285 
L 260.876463 240.320327 
L 261.121116 242.187855 
L 261.365769 246.206624 
L 261.610422 244.728165 
L 261.855075 247.79502 
L 262.099728 246.076845 
L 262.344381 247.649741 
L 262.589034 254.365231 
L 262.833687 253.687815 
L 263.07834 257.509532 
L 263.812299 243.124109 
L 264.056952 249.166151 
L 264.301606 251.970918 
L 264.546259 248.917699 
L 264.790912 250.779501 
L 265.035565 245.292554 
L 265.280218 248.92963 
L 265.524871 244.730509 
L 265.769524 253.450868 
L 266.014177 254.676854 
L 266.748136 239.348999 
L 266.992789 240.8869 
L 267.237442 241.327876 
L 267.482095 235.931345 
L 267.726748 235.304157 
L 267.971401 237.633514 
L 268.216054 236.556136 
L 268.460707 227.220014 
L 268.70536 222.485959 
L 268.950013 211.729543 
L 269.194666 221.595432 
L 269.439319 218.159722 
L 269.683972 220.556298 
L 269.928625 231.713981 
L 270.173278 224.86304 
L 270.417931 232.120787 
L 270.662584 227.764109 
L 270.907237 240.579885 
L 271.396543 227.84643 
L 271.885849 219.420169 
L 272.130502 219.56393 
L 272.375155 217.552828 
L 272.619808 203.329542 
L 272.864461 195.629062 
L 273.353767 203.864902 
L 273.59842 202.247051 
L 273.843073 197.907977 
L 274.087726 198.082312 
L 274.332379 206.064347 
L 274.577032 205.616713 
L 274.821685 210.20091 
L 275.066338 204.136124 
L 275.310991 205.471302 
L 275.555644 203.569072 
L 275.800297 217.175876 
L 276.04495 214.564112 
L 276.534256 202.229207 
L 276.778909 197.892371 
L 277.023562 190.805177 
L 277.268215 200.682091 
L 277.512868 202.577343 
L 277.757521 202.446739 
L 278.002174 204.330486 
L 278.246827 204.096602 
L 278.49148 199.959507 
L 278.736133 192.032174 
L 278.980786 190.907018 
L 279.225439 194.604203 
L 279.470092 196.46739 
L 279.714745 192.328803 
L 279.959398 195.968995 
L 280.204051 190.391153 
L 280.448704 190.669779 
L 280.93801 197.449318 
L 281.182663 191.951319 
L 281.427316 192.18483 
L 281.671969 194.012969 
L 282.161275 189.631923 
L 282.405928 190.611135 
L 282.650581 186.084198 
L 282.895234 187.84794 
L 283.139887 184.03597 
L 283.38454 183.797453 
L 283.629193 186.356964 
L 283.873846 184.327007 
L 284.118499 189.338223 
L 284.363152 190.094204 
L 284.607805 194.753024 
L 284.852458 186.174108 
L 285.097111 182.795177 
L 285.341764 185.008364 
L 285.586417 183.212876 
L 285.83107 178.417434 
L 286.075723 179.607679 
L 286.320376 181.949606 
L 286.56503 186.85685 
L 286.809683 185.680986 
L 287.054336 180.998677 
L 287.298989 181.604506 
L 287.543642 181.21786 
L 287.788295 184.719245 
L 288.032948 198.306075 
L 288.277601 193.751387 
L 288.522254 197.259005 
L 288.766907 196.427601 
L 289.01156 196.249805 
L 289.500866 184.222236 
L 289.745519 185.407048 
L 289.990172 200.566028 
L 290.234825 198.206737 
L 290.479478 210.652378 
L 290.724131 205.16908 
L 290.968784 210.131187 
L 291.213437 223.517716 
L 291.45809 185.302916 
L 291.702743 178.538237 
L 291.947396 181.03772 
L 292.192049 176.142993 
L 292.681355 171.552724 
L 292.926008 171.422014 
L 293.170661 171.829433 
L 293.415314 173.752329 
L 293.659967 170.213499 
L 293.90462 170.576282 
L 294.149273 169.95767 
L 294.393926 169.825415 
L 294.638579 168.576046 
L 294.883232 169.758408 
L 295.127885 170.010082 
L 295.372538 172.019001 
L 296.106497 167.402153 
L 296.35115 170.49303 
L 296.595803 170.15379 
L 297.085109 164.551499 
L 297.329762 162.67702 
L 297.574415 163.041827 
L 297.819068 165.824623 
L 298.063721 166.123489 
L 298.553027 155.721335 
L 298.79768 157.512082 
L 299.042333 155.033586 
L 299.286986 150.413543 
L 299.531639 151.797883 
L 300.020945 149.555507 
L 300.265598 152.440091 
L 300.510251 152.204503 
L 300.754904 149.96772 
L 300.999557 151.629568 
L 301.24421 150.228449 
L 301.488863 150.65499 
L 301.733516 150.71129 
L 301.978169 151.886728 
L 302.222822 151.588181 
L 302.467475 152.507684 
L 302.712128 152.150174 
L 302.956781 153.374614 
L 303.201434 153.832368 
L 303.446087 155.499649 
L 303.69074 150.714859 
L 303.935393 154.977818 
L 304.180046 156.512151 
L 304.669352 150.871936 
L 304.914005 153.37275 
L 305.158658 152.331911 
L 305.403311 149.217225 
L 305.647964 150.336043 
L 305.892617 150.736698 
L 306.381923 157.139392 
L 306.626576 156.34831 
L 306.871229 148.279134 
L 307.115882 156.282475 
L 307.360535 158.719852 
L 307.605188 162.849383 
L 307.849841 161.069502 
L 308.094494 167.878976 
L 308.339147 169.119396 
L 308.5838 167.39182 
L 308.828453 167.953599 
L 309.073107 167.199003 
L 309.31776 158.2189 
L 309.562413 159.28749 
L 309.807066 156.22479 
L 310.051719 162.649322 
L 310.296372 164.026898 
L 310.541025 173.238967 
L 310.785678 163.496811 
L 311.030331 166.753021 
L 311.274984 166.160029 
L 311.76429 156.431296 
L 312.008943 161.179013 
L 312.253596 163.44669 
L 312.742902 160.957913 
L 312.987555 160.006132 
L 313.232208 165.425513 
L 313.476861 161.891051 
L 313.721514 164.253059 
L 313.966167 171.533336 
L 314.21082 163.268094 
L 314.455473 163.53905 
L 314.944779 166.142452 
L 315.189432 180.596691 
L 315.923391 194.902164 
L 316.168044 195.527381 
L 316.412697 188.94966 
L 316.65735 187.447925 
L 316.902003 190.039608 
L 317.146656 186.104864 
L 317.391309 184.470767 
L 317.635962 185.282143 
L 317.880615 187.472746 
L 318.125268 182.666224 
L 319.348533 176.11194 
L 319.593186 182.26525 
L 320.082492 179.423118 
L 320.327145 182.974305 
L 320.571798 178.527371 
L 320.816451 178.287522 
L 321.061104 169.5845 
L 321.305757 166.734485 
L 321.55041 169.132446 
L 321.795063 173.690969 
L 322.039716 167.824913 
L 322.284369 167.46671 
L 322.529022 181.353418 
L 322.773675 187.161789 
L 323.507634 171.513628 
L 323.752287 168.877363 
L 323.99694 169.462898 
L 324.241593 167.477895 
L 324.486246 173.914519 
L 324.730899 173.442277 
L 324.975552 171.196599 
L 325.220205 177.106065 
L 325.709511 173.240618 
L 326.198817 176.599894 
L 326.44347 166.847512 
L 326.688123 164.766687 
L 327.177429 170.666672 
L 327.422082 171.248319 
L 327.666735 167.074471 
L 327.911388 165.056338 
L 328.156041 167.966223 
L 328.400694 178.483268 
L 328.645347 180.256545 
L 328.89 179.530339 
L 329.134653 181.88164 
L 329.379306 182.748251 
L 329.623959 183.159718 
L 329.868612 185.75577 
L 330.113265 184.398647 
L 330.357918 184.368393 
L 330.602571 188.508205 
L 330.847224 186.929663 
L 331.091877 189.232334 
L 331.33653 187.600793 
L 331.825837 197.203237 
L 332.07049 188.847073 
L 332.315143 190.076946 
L 332.804449 196.176833 
L 333.049102 200.375928 
L 333.293755 195.207954 
L 333.538408 197.825844 
L 333.783061 199.014171 
L 334.027714 206.598003 
L 334.51702 199.983742 
L 334.761673 203.741436 
L 335.006326 200.18082 
L 335.250979 201.81561 
L 335.495632 202.591671 
L 335.984938 192.257003 
L 336.229591 183.756119 
L 336.474244 190.982813 
L 336.718897 192.347179 
L 336.96355 187.421292 
L 337.452856 184.235765 
L 337.697509 181.082515 
L 337.942162 167.372166 
L 338.186815 164.993007 
L 338.431468 167.061315 
L 338.676121 161.062737 
L 338.920774 163.959945 
L 339.41008 173.679197 
L 339.654733 171.782667 
L 339.899386 177.44488 
L 340.144039 178.106263 
L 340.388692 177.673011 
L 340.633345 178.406035 
L 340.877998 178.154894 
L 341.122651 176.334105 
L 341.367304 177.469754 
L 341.611957 171.919236 
L 341.85661 172.58291 
L 342.101263 173.894119 
L 342.345916 177.44259 
L 342.590569 177.811232 
L 342.835222 177.610532 
L 343.079875 175.844659 
L 343.324528 176.68581 
L 343.569181 180.203867 
L 343.813834 179.180499 
L 344.058487 176.184752 
L 344.792446 162.631585 
L 345.037099 164.195693 
L 345.281752 162.702214 
L 345.771058 166.317851 
L 346.015711 157.152921 
L 346.505017 154.142526 
L 346.74967 153.161664 
L 346.994323 154.064334 
L 347.238976 153.533289 
L 347.728282 149.029575 
L 347.972935 143.731051 
L 348.217588 143.186103 
L 348.462241 144.103262 
L 348.706894 142.36498 
L 348.951547 139.741977 
L 349.1962 139.386384 
L 349.440853 140.631918 
L 349.685506 140.971585 
L 349.930159 138.509653 
L 350.174812 137.669035 
L 350.419465 133.15339 
L 350.664118 132.640828 
L 350.908771 134.041307 
L 351.153424 130.619552 
L 351.398077 130.064005 
L 351.887383 136.526302 
L 352.132036 133.039405 
L 352.376689 140.132298 
L 352.621342 141.078699 
L 353.110648 115.535515 
L 353.355301 117.874405 
L 353.599954 117.431193 
L 353.844607 120.305018 
L 354.333914 120.131322 
L 354.578567 119.591861 
L 354.82322 117.309803 
L 355.067873 108.761781 
L 355.312526 109.422365 
L 355.557179 106.096113 
L 355.801832 114.230964 
L 356.046485 113.478019 
L 356.291138 114.069946 
L 356.535791 110.6051 
L 356.780444 112.802734 
L 357.025097 109.108905 
L 357.26975 107.956903 
L 357.514403 113.595627 
L 357.759056 138.206739 
L 358.003709 138.224476 
L 358.248362 137.098468 
L 358.493015 133.060338 
L 358.982321 143.450135 
L 359.71628 131.42965 
L 359.960933 135.485836 
L 360.205586 136.484436 
L 360.694892 139.467772 
L 360.939545 138.541931 
L 361.184198 139.782405 
L 361.428851 152.723671 
L 361.673504 152.064045 
L 361.918157 148.802722 
L 362.407463 133.758793 
L 362.652116 132.316607 
L 363.141422 135.715299 
L 363.630728 134.445903 
L 363.875381 130.434139 
L 364.120034 119.450231 
L 364.364687 116.088558 
L 364.60934 109.328354 
L 364.853993 109.297461 
L 365.587952 103.748381 
L 365.832605 101.027371 
L 366.077258 102.911811 
L 366.321911 98.795009 
L 366.811217 96.956004 
L 367.05587 102.766026 
L 367.300523 105.377045 
L 367.545176 103.240505 
L 367.789829 102.517015 
L 368.034482 101.106362 
L 368.279135 108.761674 
L 368.523788 112.838528 
L 369.013094 107.179723 
L 369.257747 106.77044 
L 369.5024 117.573782 
L 369.747053 117.306235 
L 369.991706 120.408297 
L 370.236359 116.318554 
L 370.481012 117.905405 
L 370.725665 121.209979 
L 370.970318 118.294022 
L 371.214971 109.040673 
L 371.459624 107.632204 
L 371.704277 107.092423 
L 371.94893 114.507353 
L 372.193583 112.676284 
L 372.682889 107.987477 
L 372.927542 109.446707 
L 373.416848 101.321497 
L 373.661501 108.294919 
L 373.906154 101.238032 
L 374.150807 110.841541 
L 374.39546 107.586237 
L 374.640113 113.699066 
L 374.884766 110.194113 
L 375.374072 113.282539 
L 375.618725 118.215244 
L 375.863378 117.253982 
L 376.108031 112.727898 
L 376.352684 114.265373 
L 376.597338 111.752201 
L 376.841991 114.177061 
L 377.086644 104.457223 
L 377.57595 67.703597 
L 377.820603 66.104229 
L 378.065256 63.763527 
L 378.309909 65.272825 
L 378.554562 67.524256 
L 378.799215 63.373632 
L 379.043868 62.190844 
L 379.533174 47.758336 
L 379.777827 51.837799 
L 380.267133 47.081346 
L 380.511786 50.479398 
L 380.756439 57.282321 
L 381.001092 56.237967 
L 381.490398 46.252499 
L 381.490398 46.252499 
" style="fill:none;stroke:#1f77b4;stroke-linecap:square;stroke-width:1.5;"/>
   </g>
   <g id="line2d_32">
    <path clip-path="url(#p30b9277b03)" d="M 56.835852 149.969614 
L 57.080505 146.75814 
L 57.325158 150.597946 
L 57.569811 156.252932 
L 58.059117 149.76017 
L 58.548423 153.66979 
L 58.793076 151.435722 
L 59.037729 154.647196 
L 59.282382 155.834045 
L 59.527035 157.788855 
L 60.016341 150.458317 
L 60.260994 166.515686 
L 60.505647 167.63272 
L 60.7503 165.468466 
L 60.994953 171.54234 
L 61.239606 169.168642 
L 61.484259 170.63475 
L 61.973566 164.072173 
L 62.218219 164.700505 
L 62.462872 162.187177 
L 62.707525 165.817539 
L 62.952178 163.374026 
L 63.196831 157.020894 
L 63.441484 156.741635 
L 63.686137 147.944989 
L 63.93079 154.856639 
L 64.175443 157.020894 
L 64.420096 153.181088 
L 64.664749 153.111273 
L 64.909402 145.641106 
L 65.398708 153.66979 
L 65.643361 153.949049 
L 66.132667 148.363877 
L 66.37732 150.458317 
L 66.621973 148.433692 
L 66.866626 151.784795 
L 67.111279 152.273498 
L 67.600585 154.996269 
L 67.845238 153.250903 
L 68.089891 155.345342 
L 68.82385 145.710921 
L 69.068503 144.873145 
L 69.313156 152.622571 
L 69.557809 143.686296 
L 69.802462 146.548697 
L 70.047115 140.963525 
L 70.291768 131.608362 
L 70.536421 133.283914 
L 70.781074 132.446138 
L 71.025727 135.727426 
L 71.27038 142.290003 
L 71.515033 142.080559 
L 71.759686 148.294063 
L 72.004339 147.875175 
L 72.248992 144.384442 
L 72.493645 145.85055 
L 72.738298 146.478882 
L 72.982951 157.439781 
L 73.227604 162.187177 
L 73.472257 159.604035 
L 73.71691 155.275527 
L 74.206216 164.211802 
L 74.450869 165.398651 
L 74.695522 164.211802 
L 75.184828 172.380116 
L 75.429481 190.462109 
L 75.674134 195.27932 
L 75.918787 188.36767 
L 76.16344 188.507299 
L 76.408093 189.27526 
L 76.652746 180.129542 
L 77.142052 185.016567 
L 77.386705 177.616214 
L 77.631358 175.731219 
L 77.876011 167.423276 
L 78.120664 172.170672 
L 78.365317 166.725129 
L 78.60997 170.006418 
L 78.854623 170.425306 
L 79.099276 165.53828 
L 79.343929 166.515686 
L 79.588582 175.312331 
L 79.833235 188.926187 
L 80.077888 188.228041 
L 80.322541 190.252665 
L 80.811847 185.016567 
L 81.0565 191.858402 
L 81.301153 188.507299 
L 81.545806 190.950812 
L 81.790459 191.509329 
L 82.035112 195.558579 
L 82.279765 194.162286 
L 82.524418 198.211535 
L 82.769071 193.883027 
L 83.013724 186.831748 
L 83.258377 189.903592 
L 83.50303 188.088411 
L 83.747683 192.696178 
L 83.992336 191.3697 
L 84.236989 191.509329 
L 84.481643 192.975437 
L 84.726296 191.090441 
L 84.970949 193.394325 
L 85.215602 188.646929 
L 85.460255 187.041192 
L 85.704908 189.554519 
L 86.194214 184.45805 
L 86.438867 185.086382 
L 86.68352 182.991942 
L 86.928173 188.507299 
L 87.172826 186.063787 
L 87.417479 182.293796 
L 87.662132 183.271201 
L 87.906785 181.874908 
L 88.151438 178.104917 
L 88.396091 184.108977 
L 88.640744 176.150107 
L 88.885397 172.380116 
L 89.13005 172.938633 
L 89.374703 171.193267 
L 89.619356 171.751784 
L 90.108662 171.821599 
L 90.353315 175.801034 
L 90.597968 186.41286 
L 90.842621 190.182851 
L 91.087274 187.041192 
L 91.331927 179.710654 
L 91.57658 178.733249 
L 91.821233 178.45399 
L 92.310539 169.936603 
L 92.555192 176.080292 
L 92.799845 169.378086 
L 93.044498 158.76626 
L 93.289151 155.554786 
L 93.533804 157.928484 
L 93.778457 158.347372 
L 94.02311 160.371997 
L 94.267763 160.72107 
L 94.512416 156.392562 
L 94.757069 156.043488 
L 95.001722 159.045518 
L 95.246375 164.072173 
L 95.491028 165.817539 
L 95.735681 164.421246 
L 95.980334 160.651255 
L 96.224987 159.67385 
L 96.46964 151.645166 
L 96.714293 147.665731 
L 96.958946 148.224248 
L 97.203599 148.154433 
L 97.448252 147.80536 
L 97.937558 139.497417 
L 98.182211 139.637046 
L 98.671517 136.914275 
L 99.160823 124.836341 
L 99.405476 130.07244 
L 99.650129 127.140225 
L 99.894782 121.764497 
L 100.139435 122.392829 
L 100.384088 120.926721 
L 100.628741 122.11357 
L 100.873394 131.538547 
L 101.118047 123.649492 
L 101.3627 125.883561 
L 101.607353 118.064321 
L 101.852006 125.464673 
L 102.341312 118.413394 
L 102.830618 127.628927 
L 103.319924 122.462643 
L 103.564577 116.947286 
L 103.80923 119.879501 
L 104.053883 119.879501 
L 104.298536 123.928751 
L 104.543189 122.881531 
L 104.787842 119.460614 
L 105.032495 122.183385 
L 105.277148 120.228575 
L 105.521801 112.688593 
L 105.766454 122.183385 
L 106.25576 129.862996 
L 106.500413 129.932811 
L 106.745066 132.446138 
L 106.98972 137.333163 
L 107.234373 130.491328 
L 107.479026 130.421513 
L 107.968332 142.220188 
L 108.212985 147.735546 
L 108.457638 141.801301 
L 108.702291 140.055934 
L 108.946944 144.873145 
L 109.191597 142.220188 
L 109.43625 137.333163 
L 110.170209 147.735546 
L 110.414862 146.618511 
L 110.659515 147.526102 
L 110.904168 146.967584 
L 111.148821 141.522042 
L 111.638127 160.371997 
L 112.861392 144.80333 
L 113.106045 150.179058 
L 113.840004 148.294063 
L 114.084657 145.152404 
L 114.32931 134.680207 
L 114.573963 132.446138 
L 114.818616 134.261319 
L 115.063269 128.257259 
L 115.307922 128.257259 
L 115.552575 132.446138 
L 115.797228 130.07244 
L 116.041881 131.259289 
L 116.286534 130.281884 
L 116.531187 125.1156 
L 116.77584 126.581708 
L 117.020493 121.834312 
L 117.509799 125.604302 
L 117.999105 125.743932 
L 118.243758 126.442078 
L 118.488411 126.093005 
L 118.733064 124.138195 
L 118.977717 120.438019 
L 119.22237 120.298389 
L 119.711676 130.07244 
L 119.956329 130.910216 
L 120.200982 133.353728 
L 120.445635 132.097065 
L 120.690288 133.632987 
L 120.934941 136.844461 
L 121.179594 150.737575 
L 121.424247 152.832015 
L 121.913553 158.975704 
L 122.158206 156.741635 
L 122.402859 157.369967 
L 122.647512 157.509596 
L 122.892165 160.371997 
L 123.136818 161.558846 
L 123.381471 164.909949 
L 123.626124 164.560875 
L 123.870777 160.72107 
L 124.11543 162.815509 
L 124.360083 161.209772 
L 124.604736 162.885324 
L 124.849389 163.443841 
L 125.094042 157.020894 
L 125.338695 153.879234 
L 125.583348 153.250903 
L 125.828001 154.228308 
L 126.56196 145.571291 
L 126.806613 136.704831 
L 127.051266 138.170939 
L 127.295919 140.823895 
L 127.540572 136.704831 
L 127.785225 141.382413 
L 128.029878 149.062024 
L 128.274531 149.271468 
L 128.519184 151.086649 
L 129.00849 156.462376 
L 129.253143 155.554786 
L 129.987103 168.470496 
L 130.231756 161.279587 
L 130.476409 160.581441 
L 130.721062 148.084619 
L 130.965715 147.875175 
L 131.210368 148.85258 
L 131.455021 151.016834 
L 131.699674 142.429632 
L 131.944327 141.172969 
L 132.18898 141.661671 
L 132.433633 145.571291 
L 132.678286 137.402978 
L 132.922939 140.335193 
L 133.167592 136.704831 
L 133.412245 139.078529 
L 133.656898 131.678177 
L 133.901551 132.236694 
L 134.390857 134.400948 
L 134.880163 130.351698 
L 135.124816 129.723367 
L 135.369469 124.557083 
L 135.614122 129.095035 
L 135.858775 125.953376 
L 136.103428 118.622838 
L 136.348081 120.717277 
L 137.08204 117.15673 
L 137.326693 117.15673 
L 137.571346 116.947286 
L 137.815999 119.390799 
L 138.060652 119.670057 
L 138.549958 108.709158 
L 139.039264 105.218426 
L 139.52857 103.961762 
L 139.773223 103.263615 
L 140.262529 115.620808 
L 140.507182 112.130076 
L 140.751835 112.060261 
L 140.996488 118.134135 
L 141.241141 118.064321 
L 141.730447 125.1156 
L 142.219753 130.910216 
L 142.464406 126.093005 
L 142.709059 130.98003 
L 142.953712 129.653552 
L 143.198365 126.581708 
L 143.443018 125.604302 
L 143.687671 122.951346 
L 143.932324 122.392829 
L 144.176977 121.275794 
L 144.42163 120.856906 
L 144.666283 119.320984 
L 144.910936 121.136165 
L 145.155589 124.20801 
L 145.400242 122.532458 
L 145.644895 126.860966 
L 145.889548 125.045785 
L 146.134201 125.394859 
L 146.378854 129.234664 
L 146.623507 125.953376 
L 146.86816 128.047815 
L 147.357466 138.310568 
L 147.846772 144.174999 
L 148.580731 152.552756 
L 148.825384 148.922395 
L 149.070037 152.901829 
L 149.31469 148.363877 
L 149.559343 148.85258 
L 149.803996 162.955139 
L 150.048649 162.466436 
L 150.293302 161.489031 
L 150.537955 161.838104 
L 150.782608 155.345342 
L 151.027261 155.275527 
L 151.271914 148.014804 
L 151.516567 146.89777 
L 152.005874 141.103154 
L 152.49518 147.665731 
L 152.739833 156.951079 
L 152.984486 159.743665 
L 153.229139 158.137928 
L 153.473792 158.137928 
L 153.718445 148.154433 
L 153.963098 149.690356 
L 154.207751 148.712951 
L 154.452404 152.7622 
L 154.697057 145.710921 
L 154.94171 148.014804 
L 155.186363 147.456287 
L 155.431016 149.550726 
L 155.675669 150.597946 
L 156.164975 142.918335 
L 156.654281 151.645166 
L 156.898934 148.85258 
L 157.143587 148.224248 
L 157.38824 150.947019 
L 157.877546 138.9389 
L 158.122199 134.331133 
L 158.366852 133.563172 
L 158.611505 138.03131 
L 159.100811 139.567232 
L 159.83477 131.398918 
L 160.079423 129.444108 
L 160.324076 130.491328 
L 160.568729 130.491328 
L 160.813382 124.417453 
L 161.058035 125.883561 
L 161.302688 133.423543 
L 161.547341 136.146314 
L 161.791994 130.002625 
L 162.036647 133.493358 
L 162.525953 128.047815 
L 163.015259 128.745962 
L 163.504565 123.509863 
L 163.749218 121.345609 
L 163.993871 113.386739 
L 164.238524 114.015071 
L 164.483177 113.735812 
L 164.72783 113.805627 
L 165.461789 125.604302 
L 165.706442 125.953376 
L 166.195748 117.296359 
L 166.440401 117.645433 
L 166.685054 117.715247 
L 166.929707 120.507833 
L 167.17436 133.842431 
L 167.419013 132.585767 
L 167.663666 135.378353 
L 167.908319 141.801301 
L 168.152972 142.010744 
L 168.397625 143.89574 
L 168.642278 142.359818 
L 168.886931 142.499447 
L 169.131584 142.918335 
L 169.376237 139.776676 
L 169.62089 134.261319 
L 169.865543 134.331133 
L 170.110196 134.680207 
L 170.354849 131.747991 
L 170.599502 130.421513 
L 170.844155 131.189474 
L 171.088808 132.585767 
L 172.06742 144.663701 
L 172.312073 144.244813 
L 172.556726 146.688326 
L 172.801379 141.731486 
L 173.046032 140.544637 
L 173.290685 141.871115 
L 173.535338 141.103154 
L 173.779991 139.84649 
L 174.024644 142.290003 
L 174.269298 147.246843 
L 174.513951 144.244813 
L 174.758604 146.129809 
L 175.003257 144.663701 
L 175.24791 142.290003 
L 175.492563 141.382413 
L 175.737216 139.148344 
L 176.226522 131.189474 
L 176.471175 132.236694 
L 176.960481 135.797241 
L 177.205134 133.772616 
L 177.449787 133.632987 
L 177.69444 135.378353 
L 177.939093 132.02725 
L 178.183746 134.261319 
L 178.428399 135.168909 
L 178.673052 132.725396 
L 179.162358 139.84649 
L 179.651664 143.546667 
L 179.896317 148.154433 
L 180.14097 156.532191 
L 180.385623 156.81145 
L 180.630276 156.81145 
L 180.874929 158.207743 
L 181.119582 152.203683 
L 181.364235 153.949049 
L 181.608888 148.922395 
L 181.853541 151.086649 
L 182.342847 153.390532 
L 182.5875 150.877205 
L 182.832153 154.298122 
L 183.321459 147.456287 
L 183.566112 146.89777 
L 183.810765 142.778706 
L 184.055418 141.522042 
L 184.300071 141.801301 
L 184.544724 142.98815 
L 184.789377 140.684266 
L 185.03403 140.335193 
L 185.278683 143.127779 
L 185.767989 139.567232 
L 186.012642 135.727426 
L 186.257295 129.095035 
L 186.501948 135.93687 
L 186.746601 134.470763 
L 186.991254 136.076499 
L 187.48056 141.242783 
L 187.725213 140.963525 
L 187.969866 137.402978 
L 188.214519 137.961495 
L 188.459172 138.101124 
L 188.703825 133.772616 
L 189.193131 142.429632 
L 189.437784 132.097065 
L 189.682437 138.799271 
L 189.92709 136.216129 
L 190.171743 139.078529 
L 190.416396 136.355758 
L 190.661049 138.799271 
L 190.905702 138.03131 
L 191.150355 130.421513 
L 191.395008 130.212069 
L 191.639661 130.561142 
L 191.884314 123.998566 
L 192.128967 126.651522 
L 192.37362 123.649492 
L 192.618273 128.745962 
L 192.862926 125.813746 
L 193.107579 145.222218 
L 193.352232 154.856639 
L 193.596885 152.901829 
L 194.086191 139.497417 
L 194.330844 139.427603 
L 195.064803 135.517982 
L 195.309456 137.193534 
L 195.798762 136.495387 
L 196.043415 137.752051 
L 196.288068 137.682236 
L 196.532721 130.840401 
L 196.777375 127.768557 
L 197.022028 127.000595 
L 197.511334 115.620808 
L 197.755987 118.622838 
L 198.00064 117.296359 
L 198.245293 91.185682 
L 198.489946 91.046052 
L 198.734599 86.787359 
L 198.979252 85.251437 
L 199.223905 76.873679 
L 199.468558 79.736079 
L 199.713211 79.247377 
L 199.957864 74.011278 
L 200.202517 77.152938 
L 200.44717 76.943494 
L 200.691823 59.070944 
L 200.936476 68.286477 
L 201.181129 67.029814 
L 201.425782 77.222752 
L 201.670435 78.479416 
L 201.915088 82.947553 
L 202.159741 82.179592 
L 202.649047 90.906423 
L 202.8937 84.972178 
L 203.138353 85.111807 
L 203.383006 84.204217 
L 203.627659 91.046052 
L 204.116965 70.241288 
L 204.361618 75.68683 
L 204.606271 67.169443 
L 204.850924 65.214633 
L 205.095577 66.82037 
L 205.34023 63.469267 
L 205.584883 65.354262 
L 205.829536 64.307043 
L 206.074189 70.660175 
L 206.318842 70.520546 
L 206.563495 72.265912 
L 206.808148 67.658146 
L 207.297454 38.615252 
L 207.542107 46.434493 
L 207.78676 41.756912 
L 208.031413 46.713752 
L 208.276066 65.563706 
L 208.520719 60.187978 
L 208.765372 64.446672 
L 209.254678 65.354262 
L 209.499331 53.765031 
L 209.988637 51.461148 
L 210.477943 64.097599 
L 210.722596 57.81428 
L 210.967249 76.943494 
L 211.456555 68.495921 
L 211.945861 60.886125 
L 212.190514 60.537052 
L 212.435167 70.450731 
L 212.67982 60.81631 
L 212.924473 67.448702 
L 213.169126 70.590361 
L 213.413779 71.148878 
L 213.658432 70.101658 
L 213.903085 67.797775 
L 214.147738 87.136432 
L 214.392391 81.69089 
L 214.637044 79.59645 
L 214.881697 79.805894 
L 215.12635 86.787359 
L 215.615656 84.274032 
L 215.860309 84.064588 
L 216.349615 93.699009 
L 216.594268 86.787359 
L 216.838921 93.629194 
L 217.083574 91.604569 
L 217.328227 97.259556 
L 217.57288 106.893977 
L 217.817533 98.446405 
L 218.062186 98.446405 
L 218.306839 88.742169 
L 218.551492 93.41975 
L 218.796145 94.048082 
L 219.040798 101.099361 
L 219.285452 89.091242 
L 219.530105 88.60254 
L 219.774758 90.41772 
L 220.019411 102.495654 
L 220.264064 98.516219 
L 220.508717 102.28621 
L 220.75337 94.048082 
L 220.998023 96.002892 
L 221.242676 106.754348 
L 221.487329 106.614719 
L 221.731982 104.799538 
L 221.976635 108.220455 
L 222.221288 104.520279 
L 222.710594 107.173236 
L 222.955247 109.686563 
L 223.1999 110.663968 
L 223.689206 117.017101 
L 223.933859 126.511893 
L 224.178512 124.696712 
L 224.423165 125.464673 
L 224.667818 122.672087 
L 225.157124 112.828222 
L 225.64643 117.994506 
L 225.891083 126.511893 
L 226.135736 125.325044 
L 226.625042 117.435989 
L 226.869695 124.766527 
L 227.114348 128.11763 
L 227.603654 121.973941 
L 227.848307 124.975971 
L 228.09296 118.971911 
L 228.337613 124.557083 
L 229.071572 112.269705 
L 229.316225 136.635017 
L 229.560878 140.335193 
L 229.805531 138.869085 
L 230.050184 140.614452 
L 230.294837 147.316658 
L 230.53949 145.292033 
L 230.784143 147.735546 
L 231.028796 151.71498 
L 231.273449 148.503507 
L 231.518102 149.8998 
L 231.762755 147.386472 
L 232.007408 152.552756 
L 232.252061 160.162553 
L 232.496714 163.304212 
L 232.741367 164.281617 
L 232.98602 161.070143 
L 233.230673 161.000328 
L 233.719979 168.051608 
L 234.209285 162.466436 
L 234.453938 160.72107 
L 234.698591 162.396621 
L 234.943244 162.047548 
L 235.43255 164.909949 
L 235.677203 168.54031 
L 235.921856 166.725129 
L 236.411162 175.033072 
L 236.655815 168.400681 
L 236.900468 168.54031 
L 237.145121 163.862729 
L 237.389774 155.066083 
L 237.634427 160.162553 
L 237.87908 162.117363 
L 238.123733 159.743665 
L 238.368386 154.437752 
L 238.613039 155.066083 
L 238.857692 156.043488 
L 239.102345 154.786825 
L 239.591651 159.883294 
L 239.836304 162.396621 
L 240.080957 159.464406 
L 240.814916 171.891413 
L 241.059569 166.864759 
L 241.304222 165.957168 
L 241.548875 166.445871 
L 241.793529 167.702535 
L 242.038182 166.306242 
L 242.282835 165.817539 
L 242.527488 157.020894 
L 242.772141 162.047548 
L 243.016794 172.799004 
L 243.261447 171.193267 
L 243.750753 163.513656 
L 243.995406 166.794944 
L 244.240059 164.909949 
L 244.484712 168.191237 
L 244.729365 185.156196 
L 244.974018 191.509329 
L 245.218671 192.486734 
L 245.95263 229.697941 
L 246.441936 208.893176 
L 246.686589 216.852046 
L 246.931242 218.318153 
L 247.175895 224.671286 
L 247.665201 217.410563 
L 247.909854 224.182584 
L 248.154507 206.798737 
L 248.643813 222.576847 
L 248.888466 218.876671 
L 249.133119 221.459813 
L 249.377772 221.180554 
L 249.622425 218.597412 
L 249.867078 220.133334 
L 250.111731 228.022389 
L 250.356384 225.369433 
L 250.601037 226.277023 
L 251.090343 224.601472 
L 251.334996 224.950545 
L 251.579649 225.788321 
L 251.824302 224.950545 
L 252.068955 217.550192 
L 252.313608 221.529627 
L 252.802914 210.359284 
L 253.047567 211.685762 
L 253.536873 203.308004 
L 253.781526 204.634483 
L 254.026179 202.958931 
L 254.270832 204.355224 
L 254.515485 251.131037 
L 255.004791 259.089907 
L 255.249444 259.369166 
L 255.73875 260.835273 
L 255.983403 259.020093 
L 256.228056 263.208971 
L 256.472709 265.163782 
L 256.717362 268.933772 
L 256.962015 267.816738 
L 257.206668 265.582669 
L 257.451321 270.609324 
L 258.429933 261.044717 
L 258.674586 259.857868 
L 258.919239 261.882493 
L 259.163892 260.556015 
L 259.653198 272.633949 
L 259.897851 276.334125 
L 260.63181 244.847719 
L 260.876463 246.453456 
L 261.121116 250.851779 
L 261.365769 249.525301 
L 261.610422 251.898999 
L 261.855075 249.66493 
L 262.099728 252.108443 
L 262.344381 259.43898 
L 262.589034 258.391761 
L 262.833687 262.859898 
L 263.567646 247.849749 
L 263.812299 254.063253 
L 264.056952 257.414356 
L 264.301606 254.412326 
L 264.546259 255.808619 
L 264.790912 248.61771 
L 265.035565 253.853809 
L 265.280218 249.246042 
L 265.524871 258.461575 
L 265.769524 259.369166 
L 266.503483 243.730685 
L 266.748136 245.545866 
L 266.992789 246.104383 
L 267.237442 240.100323 
L 267.482095 239.611621 
L 267.726748 242.264577 
L 267.971401 241.147543 
L 268.216054 230.954605 
L 268.460707 226.556282 
L 268.70536 216.223714 
L 268.950013 226.626096 
L 269.194666 221.8787 
L 269.439319 226.067579 
L 269.683972 237.936069 
L 269.928625 229.977199 
L 270.173278 237.866255 
L 270.417931 233.467932 
L 270.662584 245.476051 
L 271.15189 232.560341 
L 271.641196 223.414623 
L 271.885849 223.763696 
L 272.130502 221.8787 
L 272.375155 206.938366 
L 272.619808 198.979496 
L 273.109114 207.566698 
L 273.353767 206.519478 
L 273.59842 202.470229 
L 273.843073 203.168375 
L 274.087726 210.778172 
L 274.332379 210.917801 
L 274.577032 214.199089 
L 274.821685 208.19503 
L 275.066338 210.14984 
L 275.310991 208.683732 
L 275.555644 222.576847 
L 275.800297 218.806856 
L 276.289603 206.10059 
L 276.778909 195.209505 
L 277.023562 205.891146 
L 277.268215 207.077995 
L 277.512868 206.24022 
L 277.757521 207.985586 
L 278.002174 208.474288 
L 278.246827 204.006151 
L 278.49148 196.256725 
L 278.736133 195.209505 
L 278.980786 198.770052 
L 279.225439 199.607828 
L 279.470092 201.28338 
L 279.714745 199.956901 
L 279.959398 194.860432 
L 280.204051 195.558579 
L 280.693357 202.819302 
L 280.93801 195.698208 
L 281.182663 196.396354 
L 281.427316 199.258755 
L 281.671969 195.488764 
L 281.916622 194.650988 
L 282.161275 195.27932 
L 282.405928 189.903592 
L 282.650581 192.067846 
L 282.895234 188.088411 
L 283.139887 187.809153 
L 283.38454 191.020627 
L 283.629193 188.228041 
L 283.873846 193.952842 
L 284.118499 195.069876 
L 284.363152 199.677643 
L 284.607805 189.903592 
L 284.852458 187.46008 
L 285.097111 189.903592 
L 285.341764 188.088411 
L 285.586417 182.50324 
L 285.83107 183.131571 
L 286.320376 192.207476 
L 286.56503 190.462109 
L 286.809683 185.226011 
L 287.054336 186.41286 
L 287.298989 185.575084 
L 287.543642 189.135631 
L 287.788295 203.377819 
L 288.032948 198.351164 
L 288.277601 202.470229 
L 288.522254 201.14375 
L 288.766907 201.004121 
L 289.256213 188.856372 
L 289.500866 189.973407 
L 289.745519 206.589293 
L 289.990172 203.517448 
L 290.234825 216.852046 
L 290.479478 209.312064 
L 290.724131 215.735012 
L 290.968784 229.348868 
L 291.213437 187.111006 
L 291.45809 182.50324 
L 291.702743 185.016567 
L 291.947396 179.850283 
L 292.192049 178.174732 
L 292.436702 175.59159 
L 292.681355 176.289736 
L 292.926008 176.080292 
L 293.170661 178.035102 
L 293.415314 174.893443 
L 293.659967 175.45196 
L 293.90462 174.195297 
L 294.149273 174.334926 
L 294.393926 172.58956 
L 294.638579 173.916038 
L 294.883232 173.566965 
L 295.127885 177.825658 
L 295.372538 174.893443 
L 295.861844 172.44993 
L 296.106497 174.893443 
L 296.35115 173.846223 
L 297.085109 166.864759 
L 297.329762 167.842164 
L 297.574415 171.053638 
L 297.819068 170.983823 
L 298.308374 160.441811 
L 298.553027 161.907919 
L 298.79768 159.604035 
L 299.042333 154.856639 
L 299.286986 156.881264 
L 299.776292 153.181088 
L 300.020945 158.696445 
L 300.265598 156.252932 
L 300.510251 155.694415 
L 300.754904 155.903859 
L 300.999557 154.71701 
L 301.24421 155.973674 
L 301.488863 155.066083 
L 301.733516 156.951079 
L 301.978169 156.741635 
L 302.222822 155.345342 
L 302.467475 155.484971 
L 302.712128 158.347372 
L 302.956781 158.905889 
L 303.201434 160.790884 
L 303.446087 155.135898 
L 303.69074 159.67385 
L 303.935393 161.000328 
L 304.424699 155.275527 
L 304.669352 158.207743 
L 304.914005 156.81145 
L 305.158658 153.949049 
L 305.403311 154.996269 
L 305.647964 154.367937 
L 306.13727 161.349402 
L 306.381923 161.070143 
L 306.626576 151.505536 
L 306.871229 161.907919 
L 307.115882 162.67588 
L 307.360535 167.772349 
L 307.605188 165.957168 
L 307.849841 173.008448 
L 308.094494 173.566965 
L 308.339147 171.751784 
L 308.5838 172.380116 
L 308.828453 171.472525 
L 309.073107 161.698475 
L 309.31776 164.072173 
L 309.562413 160.581441 
L 309.807066 167.144017 
L 310.051719 168.749754 
L 310.296372 179.431395 
L 310.541025 167.981793 
L 310.785678 171.332896 
L 311.030331 170.914008 
L 311.274984 164.770319 
L 311.519637 161.489031 
L 311.76429 166.934573 
L 312.008943 167.772349 
L 312.253596 166.236427 
L 312.742902 165.119393 
L 312.987555 170.215862 
L 313.232208 165.259022 
L 313.476861 169.029013 
L 313.721514 176.429365 
L 313.966167 166.725129 
L 314.21082 167.493091 
L 314.455473 169.308271 
L 314.700126 169.866789 
L 314.944779 185.993972 
L 315.678738 199.747457 
L 315.923391 199.258755 
L 316.168044 193.883027 
L 316.412697 192.347105 
L 316.65735 193.952842 
L 316.902003 189.41489 
L 317.146656 189.27526 
L 317.391309 190.392295 
L 317.635962 193.115066 
L 317.880615 187.180821 
L 318.369921 184.388235 
L 318.859227 181.595649 
L 319.10388 181.386205 
L 319.348533 186.41286 
L 319.837839 184.108977 
L 320.082492 187.390265 
L 320.327145 183.061757 
L 320.571798 182.991942 
L 320.816451 173.846223 
L 321.061104 171.821599 
L 321.305757 172.938633 
L 321.55041 178.104917 
L 321.795063 171.612155 
L 322.039716 171.821599 
L 322.284369 187.180821 
L 322.529022 191.718773 
L 323.262981 175.731219 
L 323.507634 172.938633 
L 323.752287 173.217892 
L 323.99694 171.961228 
L 324.241593 178.523805 
L 324.730899 175.382146 
L 324.975552 181.944722 
L 325.464858 177.336956 
L 325.954164 180.967317 
L 326.198817 169.866789 
L 326.44347 168.959198 
L 326.932776 173.985853 
L 327.177429 174.683999 
L 327.422082 170.49512 
L 327.666735 168.819569 
L 327.911388 172.868818 
L 328.156041 184.388235 
L 328.400694 184.737308 
L 328.645347 183.620274 
L 328.89 186.343045 
L 329.134653 186.692118 
L 329.379306 187.669524 
L 329.623959 190.880997 
L 329.868612 188.088411 
L 330.113265 187.041192 
L 330.357918 193.673583 
L 330.602571 190.531924 
L 330.847224 193.883027 
L 331.091877 191.788588 
L 331.33653 195.698208 
L 331.581184 201.562638 
L 331.825837 192.556549 
L 332.07049 194.720803 
L 332.804449 204.913741 
L 333.049102 199.677643 
L 333.293755 203.23819 
L 333.538408 204.355224 
L 333.783061 211.825391 
L 334.027714 206.519478 
L 334.272367 204.285409 
L 334.51702 207.845956 
L 334.761673 204.564668 
L 335.006326 205.960961 
L 335.250979 206.659107 
L 335.495632 203.23819 
L 335.984938 187.948782 
L 336.229591 195.349135 
L 336.474244 197.094501 
L 336.718897 190.880997 
L 336.96355 190.671553 
L 337.208203 189.41489 
L 337.452856 185.924157 
L 337.697509 171.402711 
L 337.942162 169.58753 
L 338.186815 172.380116 
L 338.431468 164.840134 
L 339.165427 178.384175 
L 339.41008 176.219921 
L 339.654733 181.316391 
L 339.899386 182.36361 
L 340.144039 182.433425 
L 340.388692 182.922128 
L 340.633345 182.50324 
L 340.877998 180.827688 
L 341.122651 181.874908 
L 341.367304 176.49918 
L 341.85661 178.45399 
L 342.101263 182.293796 
L 342.345916 181.665464 
L 342.590569 182.223981 
L 342.835222 179.780468 
L 343.324528 184.248606 
L 343.569181 183.899533 
L 344.547793 167.004388 
L 344.792446 168.749754 
L 345.037099 167.493091 
L 345.526405 171.54234 
L 345.771058 161.279587 
L 346.015711 160.162553 
L 346.260364 157.579411 
L 346.505017 157.509596 
L 346.74967 159.534221 
L 347.483629 153.111273 
L 347.728282 148.014804 
L 347.972935 147.037399 
L 348.217588 148.154433 
L 348.706894 143.616481 
L 348.951547 143.546667 
L 349.1962 145.361848 
L 349.440853 145.012774 
L 349.930159 141.312598 
L 350.174812 137.263348 
L 350.419465 136.146314 
L 350.664118 138.799271 
L 350.908771 134.610392 
L 351.153424 134.750021 
L 351.64273 141.661671 
L 351.887383 137.612422 
L 352.132036 145.85055 
L 352.376689 145.780735 
L 352.621342 128.885591 
L 352.865995 120.298389 
L 353.110648 121.834312 
L 353.355301 122.253199 
L 353.599954 124.626897 
L 353.844607 123.509863 
L 354.089261 124.766527 
L 354.333914 124.626897 
L 354.578567 121.485238 
L 354.82322 113.037666 
L 355.067873 114.364144 
L 355.312526 109.896007 
L 355.557179 119.181355 
L 355.801832 117.645433 
L 356.046485 119.181355 
L 356.291138 115.760437 
L 356.535791 117.017101 
L 357.025097 112.409334 
L 357.26975 119.320984 
L 357.514403 144.94296 
L 357.759056 143.127779 
L 358.003709 142.84852 
L 358.248362 137.961495 
L 358.737668 147.735546 
L 359.226974 139.567232 
L 359.471627 136.076499 
L 359.71628 140.125749 
L 360.205586 144.105184 
L 360.450239 144.384442 
L 360.694892 143.337223 
L 360.939545 144.314628 
L 361.184198 158.975704 
L 361.428851 157.300152 
L 361.673504 154.018864 
L 362.16281 137.263348 
L 362.407463 137.053905 
L 362.652116 138.240754 
L 362.896769 140.544637 
L 363.386075 138.589827 
L 363.630728 133.423543 
L 363.875381 122.043755 
L 364.120034 119.390799 
L 364.364687 113.24711 
L 364.60934 113.037666 
L 364.853993 111.781002 
L 365.098646 108.220455 
L 365.343299 108.011011 
L 365.587952 105.637313 
L 365.832605 108.360085 
L 366.077258 102.774913 
L 366.321911 100.610659 
L 366.566564 100.47103 
L 366.811217 107.103421 
L 367.05587 108.918602 
L 367.300523 106.824162 
L 367.545176 106.33546 
L 367.789829 104.869352 
L 368.034482 113.805627 
L 368.279135 116.528398 
L 368.768441 111.571558 
L 369.013094 111.990446 
L 369.257747 123.300419 
L 369.5024 121.275794 
L 369.747053 125.464673 
L 369.991706 120.298389 
L 370.236359 121.904126 
L 370.481012 125.185415 
L 370.725665 123.090975 
L 370.970318 113.107481 
L 371.214971 111.152671 
L 371.459624 110.873412 
L 371.704277 119.530428 
L 371.94893 118.134135 
L 372.193583 114.433959 
L 372.438236 112.688593 
L 372.682889 113.945256 
L 372.927542 109.058231 
L 373.172195 111.711188 
L 373.416848 111.362114 
L 373.661501 108.220455 
L 374.39546 117.645433 
L 374.640113 115.969881 
L 374.884766 116.668028 
L 375.129419 119.041726 
L 375.374072 124.696712 
L 375.618725 122.532458 
L 375.863378 117.15673 
L 376.108031 118.064321 
L 376.352684 115.830252 
L 376.597338 118.692652 
L 376.841991 108.011011 
L 377.086644 82.877739 
L 377.331297 71.707395 
L 377.820603 65.493892 
L 378.065256 71.63758 
L 378.799215 67.029814 
L 379.288521 51.321518 
L 379.533174 55.9991 
L 379.777827 52.508367 
L 380.02248 51.530962 
L 380.267133 54.672621 
L 380.511786 63.190008 
L 380.756439 60.676681 
L 381.245745 50.274299 
L 381.490398 44.13061 
L 381.490398 44.13061 
" style="fill:none;stroke:#ff7f0e;stroke-linecap:square;stroke-width:1.5;"/>
   </g>
   <g id="patch_3">
    <path d="M 40.603125 288.430125 
L 40.603125 22.318125 
" style="fill:none;stroke:#000000;stroke-linecap:square;stroke-linejoin:miter;stroke-width:0.8;"/>
   </g>
   <g id="patch_4">
    <path d="M 397.723125 288.430125 
L 397.723125 22.318125 
" style="fill:none;stroke:#000000;stroke-linecap:square;stroke-linejoin:miter;stroke-width:0.8;"/>
   </g>
   <g id="patch_5">
    <path d="M 40.603125 288.430125 
L 397.723125 288.430125 
" style="fill:none;stroke:#000000;stroke-linecap:square;stroke-linejoin:miter;stroke-width:0.8;"/>
   </g>
   <g id="patch_6">
    <path d="M 40.603125 22.318125 
L 397.723125 22.318125 
" style="fill:none;stroke:#000000;stroke-linecap:square;stroke-linejoin:miter;stroke-width:0.8;"/>
   </g>
   <g id="text_18">
    <!-- Training: WMT -->
    <defs>
     <path d="M -0.296875 72.90625 
L 61.375 72.90625 
L 61.375 64.59375 
L 35.5 64.59375 
L 35.5 0 
L 25.59375 0 
L 25.59375 64.59375 
L -0.296875 64.59375 
z
" id="DejaVuSans-84"/>
     <path d="M 54.890625 33.015625 
L 54.890625 0 
L 45.90625 0 
L 45.90625 32.71875 
Q 45.90625 40.484375 42.875 44.328125 
Q 39.84375 48.1875 33.796875 48.1875 
Q 26.515625 48.1875 22.3125 43.546875 
Q 18.109375 38.921875 18.109375 30.90625 
L 18.109375 0 
L 9.078125 0 
L 9.078125 54.6875 
L 18.109375 54.6875 
L 18.109375 46.1875 
Q 21.34375 51.125 25.703125 53.5625 
Q 30.078125 56 35.796875 56 
Q 45.21875 56 50.046875 50.171875 
Q 54.890625 44.34375 54.890625 33.015625 
z
" id="DejaVuSans-110"/>
     <path d="M 45.40625 27.984375 
Q 45.40625 37.75 41.375 43.109375 
Q 37.359375 48.484375 30.078125 48.484375 
Q 22.859375 48.484375 18.828125 43.109375 
Q 14.796875 37.75 14.796875 27.984375 
Q 14.796875 18.265625 18.828125 12.890625 
Q 22.859375 7.515625 30.078125 7.515625 
Q 37.359375 7.515625 41.375 12.890625 
Q 45.40625 18.265625 45.40625 27.984375 
z
M 54.390625 6.78125 
Q 54.390625 -7.171875 48.1875 -13.984375 
Q 42 -20.796875 29.203125 -20.796875 
Q 24.46875 -20.796875 20.265625 -20.09375 
Q 16.0625 -19.390625 12.109375 -17.921875 
L 12.109375 -9.1875 
Q 16.0625 -11.328125 19.921875 -12.34375 
Q 23.78125 -13.375 27.78125 -13.375 
Q 36.625 -13.375 41.015625 -8.765625 
Q 45.40625 -4.15625 45.40625 5.171875 
L 45.40625 9.625 
Q 42.625 4.78125 38.28125 2.390625 
Q 33.9375 0 27.875 0 
Q 17.828125 0 11.671875 7.65625 
Q 5.515625 15.328125 5.515625 27.984375 
Q 5.515625 40.671875 11.671875 48.328125 
Q 17.828125 56 27.875 56 
Q 33.9375 56 38.28125 53.609375 
Q 42.625 51.21875 45.40625 46.390625 
L 45.40625 54.6875 
L 54.390625 54.6875 
z
" id="DejaVuSans-103"/>
     <path d="M 11.71875 12.40625 
L 22.015625 12.40625 
L 22.015625 0 
L 11.71875 0 
z
M 11.71875 51.703125 
L 22.015625 51.703125 
L 22.015625 39.3125 
L 11.71875 39.3125 
z
" id="DejaVuSans-58"/>
     <path d="M 3.328125 72.90625 
L 13.28125 72.90625 
L 28.609375 11.28125 
L 43.890625 72.90625 
L 54.984375 72.90625 
L 70.3125 11.28125 
L 85.59375 72.90625 
L 95.609375 72.90625 
L 77.296875 0 
L 64.890625 0 
L 49.515625 63.28125 
L 33.984375 0 
L 21.578125 0 
z
" id="DejaVuSans-87"/>
     <path d="M 9.8125 72.90625 
L 24.515625 72.90625 
L 43.109375 23.296875 
L 61.8125 72.90625 
L 76.515625 72.90625 
L 76.515625 0 
L 66.890625 0 
L 66.890625 64.015625 
L 48.09375 14.015625 
L 38.1875 14.015625 
L 19.390625 64.015625 
L 19.390625 0 
L 9.8125 0 
z
" id="DejaVuSans-77"/>
    </defs>
    <g transform="translate(176.79 16.318125)scale(0.12 -0.12)">
     <use xlink:href="#DejaVuSans-84"/>
     <use x="46.333984" xlink:href="#DejaVuSans-114"/>
     <use x="87.447266" xlink:href="#DejaVuSans-97"/>
     <use x="148.726562" xlink:href="#DejaVuSans-105"/>
     <use x="176.509766" xlink:href="#DejaVuSans-110"/>
     <use x="239.888672" xlink:href="#DejaVuSans-105"/>
     <use x="267.671875" xlink:href="#DejaVuSans-110"/>
     <use x="331.050781" xlink:href="#DejaVuSans-103"/>
     <use x="394.527344" xlink:href="#DejaVuSans-58"/>
     <use x="428.21875" xlink:href="#DejaVuSans-32"/>
     <use x="460.005859" xlink:href="#DejaVuSans-87"/>
     <use x="558.882812" xlink:href="#DejaVuSans-77"/>
     <use x="645.162109" xlink:href="#DejaVuSans-84"/>
    </g>
   </g>
   <g id="legend_1">
    <g id="patch_7">
     <path d="M 47.603125 59.674375 
L 131.33125 59.674375 
Q 133.33125 59.674375 133.33125 57.674375 
L 133.33125 29.318125 
Q 133.33125 27.318125 131.33125 27.318125 
L 47.603125 27.318125 
Q 45.603125 27.318125 45.603125 29.318125 
L 45.603125 57.674375 
Q 45.603125 59.674375 47.603125 59.674375 
z
" style="fill:#ffffff;opacity:0.8;stroke:#cccccc;stroke-linejoin:miter;"/>
    </g>
    <g id="line2d_33">
     <path d="M 49.603125 35.416562 
L 69.603125 35.416562 
" style="fill:none;stroke:#1f77b4;stroke-linecap:square;stroke-width:1.5;"/>
    </g>
    <g id="line2d_34"/>
    <g id="text_19">
     <!-- Predicted -->
     <defs>
      <path d="M 45.40625 46.390625 
L 45.40625 75.984375 
L 54.390625 75.984375 
L 54.390625 0 
L 45.40625 0 
L 45.40625 8.203125 
Q 42.578125 3.328125 38.25 0.953125 
Q 33.9375 -1.421875 27.875 -1.421875 
Q 17.96875 -1.421875 11.734375 6.484375 
Q 5.515625 14.40625 5.515625 27.296875 
Q 5.515625 40.1875 11.734375 48.09375 
Q 17.96875 56 27.875 56 
Q 33.9375 56 38.25 53.625 
Q 42.578125 51.265625 45.40625 46.390625 
z
M 14.796875 27.296875 
Q 14.796875 17.390625 18.875 11.75 
Q 22.953125 6.109375 30.078125 6.109375 
Q 37.203125 6.109375 41.296875 11.75 
Q 45.40625 17.390625 45.40625 27.296875 
Q 45.40625 37.203125 41.296875 42.84375 
Q 37.203125 48.484375 30.078125 48.484375 
Q 22.953125 48.484375 18.875 42.84375 
Q 14.796875 37.203125 14.796875 27.296875 
z
" id="DejaVuSans-100"/>
      <path d="M 18.3125 70.21875 
L 18.3125 54.6875 
L 36.8125 54.6875 
L 36.8125 47.703125 
L 18.3125 47.703125 
L 18.3125 18.015625 
Q 18.3125 11.328125 20.140625 9.421875 
Q 21.96875 7.515625 27.59375 7.515625 
L 36.8125 7.515625 
L 36.8125 0 
L 27.59375 0 
Q 17.1875 0 13.234375 3.875 
Q 9.28125 7.765625 9.28125 18.015625 
L 9.28125 47.703125 
L 2.6875 47.703125 
L 2.6875 54.6875 
L 9.28125 54.6875 
L 9.28125 70.21875 
z
" id="DejaVuSans-116"/>
     </defs>
     <g transform="translate(77.603125 38.916562)scale(0.1 -0.1)">
      <use xlink:href="#DejaVuSans-80"/>
      <use x="58.552734" xlink:href="#DejaVuSans-114"/>
      <use x="97.416016" xlink:href="#DejaVuSans-101"/>
      <use x="158.939453" xlink:href="#DejaVuSans-100"/>
      <use x="222.416016" xlink:href="#DejaVuSans-105"/>
      <use x="250.199219" xlink:href="#DejaVuSans-99"/>
      <use x="305.179688" xlink:href="#DejaVuSans-116"/>
      <use x="344.388672" xlink:href="#DejaVuSans-101"/>
      <use x="405.912109" xlink:href="#DejaVuSans-100"/>
     </g>
    </g>
    <g id="line2d_35">
     <path d="M 49.603125 50.094687 
L 69.603125 50.094687 
" style="fill:none;stroke:#ff7f0e;stroke-linecap:square;stroke-width:1.5;"/>
    </g>
    <g id="line2d_36"/>
    <g id="text_20">
     <!-- True value -->
     <defs>
      <path d="M 8.5 21.578125 
L 8.5 54.6875 
L 17.484375 54.6875 
L 17.484375 21.921875 
Q 17.484375 14.15625 20.5 10.265625 
Q 23.53125 6.390625 29.59375 6.390625 
Q 36.859375 6.390625 41.078125 11.03125 
Q 45.3125 15.671875 45.3125 23.6875 
L 45.3125 54.6875 
L 54.296875 54.6875 
L 54.296875 0 
L 45.3125 0 
L 45.3125 8.40625 
Q 42.046875 3.421875 37.71875 1 
Q 33.40625 -1.421875 27.6875 -1.421875 
Q 18.265625 -1.421875 13.375 4.4375 
Q 8.5 10.296875 8.5 21.578125 
z
M 31.109375 56 
z
" id="DejaVuSans-117"/>
      <path d="M 2.984375 54.6875 
L 12.5 54.6875 
L 29.59375 8.796875 
L 46.6875 54.6875 
L 56.203125 54.6875 
L 35.6875 0 
L 23.484375 0 
z
" id="DejaVuSans-118"/>
      <path d="M 9.421875 75.984375 
L 18.40625 75.984375 
L 18.40625 0 
L 9.421875 0 
z
" id="DejaVuSans-108"/>
     </defs>
     <g transform="translate(77.603125 53.594687)scale(0.1 -0.1)">
      <use xlink:href="#DejaVuSans-84"/>
      <use x="46.333984" xlink:href="#DejaVuSans-114"/>
      <use x="87.447266" xlink:href="#DejaVuSans-117"/>
      <use x="150.826172" xlink:href="#DejaVuSans-101"/>
      <use x="212.349609" xlink:href="#DejaVuSans-32"/>
      <use x="244.136719" xlink:href="#DejaVuSans-118"/>
      <use x="303.316406" xlink:href="#DejaVuSans-97"/>
      <use x="364.595703" xlink:href="#DejaVuSans-108"/>
      <use x="392.378906" xlink:href="#DejaVuSans-117"/>
      <use x="455.757812" xlink:href="#DejaVuSans-101"/>
     </g>
    </g>
   </g>
  </g>
 </g>
 <defs>
  <clipPath id="p30b9277b03">
   <rect height="266.112" width="357.12" x="40.603125" y="22.318125"/>
  </clipPath>
 </defs>
</svg>
