<?xml version="1.0" encoding="utf-8" standalone="no"?>
<!DOCTYPE svg PUBLIC "-//W3C//DTD SVG 1.1//EN"
  "http://www.w3.org/Graphics/SVG/1.1/DTD/svg11.dtd">
<!-- Created with matplotlib (https://matplotlib.org/) -->
<svg height="325.986375pt" version="1.1" viewBox="0 0 411.285625 325.986375" width="411.285625pt" xmlns="http://www.w3.org/2000/svg" xmlns:xlink="http://www.w3.org/1999/xlink">
 <defs>
  <style type="text/css">
*{stroke-linecap:butt;stroke-linejoin:round;}
  </style>
 </defs>
 <g id="figure_1">
  <g id="patch_1">
   <path d="M 0 325.986375 
L 411.285625 325.986375 
L 411.285625 0 
L 0 0 
z
" style="fill:#ffffff;"/>
  </g>
  <g id="axes_1">
   <g id="patch_2">
    <path d="M 46.965625 288.430125 
L 404.085625 288.430125 
L 404.085625 22.318125 
L 46.965625 22.318125 
z
" style="fill:#ffffff;"/>
   </g>
   <g id="matplotlib.axis_1">
    <g id="xtick_1">
     <g id="line2d_1">
      <path clip-path="url(#pc429274bf8)" d="M 63.198352 288.430125 
L 63.198352 22.318125 
" style="fill:none;stroke:#b0b0b0;stroke-dasharray:2.96,1.28;stroke-dashoffset:0;stroke-width:0.8;"/>
     </g>
     <g id="line2d_2">
      <defs>
       <path d="M 0 0 
L 0 3.5 
" id="mfcfbb0bd66" style="stroke:#000000;stroke-width:0.8;"/>
      </defs>
      <g>
       <use style="stroke:#000000;stroke-width:0.8;" x="63.198352" xlink:href="#mfcfbb0bd66" y="288.430125"/>
      </g>
     </g>
     <g id="text_1">
      <!-- 0 -->
      <defs>
       <path d="M 31.78125 66.40625 
Q 24.171875 66.40625 20.328125 58.90625 
Q 16.5 51.421875 16.5 36.375 
Q 16.5 21.390625 20.328125 13.890625 
Q 24.171875 6.390625 31.78125 6.390625 
Q 39.453125 6.390625 43.28125 13.890625 
Q 47.125 21.390625 47.125 36.375 
Q 47.125 51.421875 43.28125 58.90625 
Q 39.453125 66.40625 31.78125 66.40625 
z
M 31.78125 74.21875 
Q 44.046875 74.21875 50.515625 64.515625 
Q 56.984375 54.828125 56.984375 36.375 
Q 56.984375 17.96875 50.515625 8.265625 
Q 44.046875 -1.421875 31.78125 -1.421875 
Q 19.53125 -1.421875 13.0625 8.265625 
Q 6.59375 17.96875 6.59375 36.375 
Q 6.59375 54.828125 13.0625 64.515625 
Q 19.53125 74.21875 31.78125 74.21875 
z
" id="DejaVuSans-48"/>
      </defs>
      <g transform="translate(60.017102 303.028562)scale(0.1 -0.1)">
       <use xlink:href="#DejaVuSans-48"/>
      </g>
     </g>
    </g>
    <g id="xtick_2">
     <g id="line2d_3">
      <path clip-path="url(#pc429274bf8)" d="M 112.128954 288.430125 
L 112.128954 22.318125 
" style="fill:none;stroke:#b0b0b0;stroke-dasharray:2.96,1.28;stroke-dashoffset:0;stroke-width:0.8;"/>
     </g>
     <g id="line2d_4">
      <g>
       <use style="stroke:#000000;stroke-width:0.8;" x="112.128954" xlink:href="#mfcfbb0bd66" y="288.430125"/>
      </g>
     </g>
     <g id="text_2">
      <!-- 200 -->
      <defs>
       <path d="M 19.1875 8.296875 
L 53.609375 8.296875 
L 53.609375 0 
L 7.328125 0 
L 7.328125 8.296875 
Q 12.9375 14.109375 22.625 23.890625 
Q 32.328125 33.6875 34.8125 36.53125 
Q 39.546875 41.84375 41.421875 45.53125 
Q 43.3125 49.21875 43.3125 52.78125 
Q 43.3125 58.59375 39.234375 62.25 
Q 35.15625 65.921875 28.609375 65.921875 
Q 23.96875 65.921875 18.8125 64.3125 
Q 13.671875 62.703125 7.8125 59.421875 
L 7.8125 69.390625 
Q 13.765625 71.78125 18.9375 73 
Q 24.125 74.21875 28.421875 74.21875 
Q 39.75 74.21875 46.484375 68.546875 
Q 53.21875 62.890625 53.21875 53.421875 
Q 53.21875 48.921875 51.53125 44.890625 
Q 49.859375 40.875 45.40625 35.40625 
Q 44.1875 33.984375 37.640625 27.21875 
Q 31.109375 20.453125 19.1875 8.296875 
z
" id="DejaVuSans-50"/>
      </defs>
      <g transform="translate(102.585204 303.028562)scale(0.1 -0.1)">
       <use xlink:href="#DejaVuSans-50"/>
       <use x="63.623047" xlink:href="#DejaVuSans-48"/>
       <use x="127.246094" xlink:href="#DejaVuSans-48"/>
      </g>
     </g>
    </g>
    <g id="xtick_3">
     <g id="line2d_5">
      <path clip-path="url(#pc429274bf8)" d="M 161.059557 288.430125 
L 161.059557 22.318125 
" style="fill:none;stroke:#b0b0b0;stroke-dasharray:2.96,1.28;stroke-dashoffset:0;stroke-width:0.8;"/>
     </g>
     <g id="line2d_6">
      <g>
       <use style="stroke:#000000;stroke-width:0.8;" x="161.059557" xlink:href="#mfcfbb0bd66" y="288.430125"/>
      </g>
     </g>
     <g id="text_3">
      <!-- 400 -->
      <defs>
       <path d="M 37.796875 64.3125 
L 12.890625 25.390625 
L 37.796875 25.390625 
z
M 35.203125 72.90625 
L 47.609375 72.90625 
L 47.609375 25.390625 
L 58.015625 25.390625 
L 58.015625 17.1875 
L 47.609375 17.1875 
L 47.609375 0 
L 37.796875 0 
L 37.796875 17.1875 
L 4.890625 17.1875 
L 4.890625 26.703125 
z
" id="DejaVuSans-52"/>
      </defs>
      <g transform="translate(151.515807 303.028562)scale(0.1 -0.1)">
       <use xlink:href="#DejaVuSans-52"/>
       <use x="63.623047" xlink:href="#DejaVuSans-48"/>
       <use x="127.246094" xlink:href="#DejaVuSans-48"/>
      </g>
     </g>
    </g>
    <g id="xtick_4">
     <g id="line2d_7">
      <path clip-path="url(#pc429274bf8)" d="M 209.990159 288.430125 
L 209.990159 22.318125 
" style="fill:none;stroke:#b0b0b0;stroke-dasharray:2.96,1.28;stroke-dashoffset:0;stroke-width:0.8;"/>
     </g>
     <g id="line2d_8">
      <g>
       <use style="stroke:#000000;stroke-width:0.8;" x="209.990159" xlink:href="#mfcfbb0bd66" y="288.430125"/>
      </g>
     </g>
     <g id="text_4">
      <!-- 600 -->
      <defs>
       <path d="M 33.015625 40.375 
Q 26.375 40.375 22.484375 35.828125 
Q 18.609375 31.296875 18.609375 23.390625 
Q 18.609375 15.53125 22.484375 10.953125 
Q 26.375 6.390625 33.015625 6.390625 
Q 39.65625 6.390625 43.53125 10.953125 
Q 47.40625 15.53125 47.40625 23.390625 
Q 47.40625 31.296875 43.53125 35.828125 
Q 39.65625 40.375 33.015625 40.375 
z
M 52.59375 71.296875 
L 52.59375 62.3125 
Q 48.875 64.0625 45.09375 64.984375 
Q 41.3125 65.921875 37.59375 65.921875 
Q 27.828125 65.921875 22.671875 59.328125 
Q 17.53125 52.734375 16.796875 39.40625 
Q 19.671875 43.65625 24.015625 45.921875 
Q 28.375 48.1875 33.59375 48.1875 
Q 44.578125 48.1875 50.953125 41.515625 
Q 57.328125 34.859375 57.328125 23.390625 
Q 57.328125 12.15625 50.6875 5.359375 
Q 44.046875 -1.421875 33.015625 -1.421875 
Q 20.359375 -1.421875 13.671875 8.265625 
Q 6.984375 17.96875 6.984375 36.375 
Q 6.984375 53.65625 15.1875 63.9375 
Q 23.390625 74.21875 37.203125 74.21875 
Q 40.921875 74.21875 44.703125 73.484375 
Q 48.484375 72.75 52.59375 71.296875 
z
" id="DejaVuSans-54"/>
      </defs>
      <g transform="translate(200.446409 303.028562)scale(0.1 -0.1)">
       <use xlink:href="#DejaVuSans-54"/>
       <use x="63.623047" xlink:href="#DejaVuSans-48"/>
       <use x="127.246094" xlink:href="#DejaVuSans-48"/>
      </g>
     </g>
    </g>
    <g id="xtick_5">
     <g id="line2d_9">
      <path clip-path="url(#pc429274bf8)" d="M 258.920761 288.430125 
L 258.920761 22.318125 
" style="fill:none;stroke:#b0b0b0;stroke-dasharray:2.96,1.28;stroke-dashoffset:0;stroke-width:0.8;"/>
     </g>
     <g id="line2d_10">
      <g>
       <use style="stroke:#000000;stroke-width:0.8;" x="258.920761" xlink:href="#mfcfbb0bd66" y="288.430125"/>
      </g>
     </g>
     <g id="text_5">
      <!-- 800 -->
      <defs>
       <path d="M 31.78125 34.625 
Q 24.75 34.625 20.71875 30.859375 
Q 16.703125 27.09375 16.703125 20.515625 
Q 16.703125 13.921875 20.71875 10.15625 
Q 24.75 6.390625 31.78125 6.390625 
Q 38.8125 6.390625 42.859375 10.171875 
Q 46.921875 13.96875 46.921875 20.515625 
Q 46.921875 27.09375 42.890625 30.859375 
Q 38.875 34.625 31.78125 34.625 
z
M 21.921875 38.8125 
Q 15.578125 40.375 12.03125 44.71875 
Q 8.5 49.078125 8.5 55.328125 
Q 8.5 64.0625 14.71875 69.140625 
Q 20.953125 74.21875 31.78125 74.21875 
Q 42.671875 74.21875 48.875 69.140625 
Q 55.078125 64.0625 55.078125 55.328125 
Q 55.078125 49.078125 51.53125 44.71875 
Q 48 40.375 41.703125 38.8125 
Q 48.828125 37.15625 52.796875 32.3125 
Q 56.78125 27.484375 56.78125 20.515625 
Q 56.78125 9.90625 50.3125 4.234375 
Q 43.84375 -1.421875 31.78125 -1.421875 
Q 19.734375 -1.421875 13.25 4.234375 
Q 6.78125 9.90625 6.78125 20.515625 
Q 6.78125 27.484375 10.78125 32.3125 
Q 14.796875 37.15625 21.921875 38.8125 
z
M 18.3125 54.390625 
Q 18.3125 48.734375 21.84375 45.5625 
Q 25.390625 42.390625 31.78125 42.390625 
Q 38.140625 42.390625 41.71875 45.5625 
Q 45.3125 48.734375 45.3125 54.390625 
Q 45.3125 60.0625 41.71875 63.234375 
Q 38.140625 66.40625 31.78125 66.40625 
Q 25.390625 66.40625 21.84375 63.234375 
Q 18.3125 60.0625 18.3125 54.390625 
z
" id="DejaVuSans-56"/>
      </defs>
      <g transform="translate(249.377011 303.028562)scale(0.1 -0.1)">
       <use xlink:href="#DejaVuSans-56"/>
       <use x="63.623047" xlink:href="#DejaVuSans-48"/>
       <use x="127.246094" xlink:href="#DejaVuSans-48"/>
      </g>
     </g>
    </g>
    <g id="xtick_6">
     <g id="line2d_11">
      <path clip-path="url(#pc429274bf8)" d="M 307.851363 288.430125 
L 307.851363 22.318125 
" style="fill:none;stroke:#b0b0b0;stroke-dasharray:2.96,1.28;stroke-dashoffset:0;stroke-width:0.8;"/>
     </g>
     <g id="line2d_12">
      <g>
       <use style="stroke:#000000;stroke-width:0.8;" x="307.851363" xlink:href="#mfcfbb0bd66" y="288.430125"/>
      </g>
     </g>
     <g id="text_6">
      <!-- 1000 -->
      <defs>
       <path d="M 12.40625 8.296875 
L 28.515625 8.296875 
L 28.515625 63.921875 
L 10.984375 60.40625 
L 10.984375 69.390625 
L 28.421875 72.90625 
L 38.28125 72.90625 
L 38.28125 8.296875 
L 54.390625 8.296875 
L 54.390625 0 
L 12.40625 0 
z
" id="DejaVuSans-49"/>
      </defs>
      <g transform="translate(295.126363 303.028562)scale(0.1 -0.1)">
       <use xlink:href="#DejaVuSans-49"/>
       <use x="63.623047" xlink:href="#DejaVuSans-48"/>
       <use x="127.246094" xlink:href="#DejaVuSans-48"/>
       <use x="190.869141" xlink:href="#DejaVuSans-48"/>
      </g>
     </g>
    </g>
    <g id="xtick_7">
     <g id="line2d_13">
      <path clip-path="url(#pc429274bf8)" d="M 356.781965 288.430125 
L 356.781965 22.318125 
" style="fill:none;stroke:#b0b0b0;stroke-dasharray:2.96,1.28;stroke-dashoffset:0;stroke-width:0.8;"/>
     </g>
     <g id="line2d_14">
      <g>
       <use style="stroke:#000000;stroke-width:0.8;" x="356.781965" xlink:href="#mfcfbb0bd66" y="288.430125"/>
      </g>
     </g>
     <g id="text_7">
      <!-- 1200 -->
      <g transform="translate(344.056965 303.028562)scale(0.1 -0.1)">
       <use xlink:href="#DejaVuSans-49"/>
       <use x="63.623047" xlink:href="#DejaVuSans-50"/>
       <use x="127.246094" xlink:href="#DejaVuSans-48"/>
       <use x="190.869141" xlink:href="#DejaVuSans-48"/>
      </g>
     </g>
    </g>
    <g id="text_8">
     <!-- Day -->
     <defs>
      <path d="M 19.671875 64.796875 
L 19.671875 8.109375 
L 31.59375 8.109375 
Q 46.6875 8.109375 53.6875 14.9375 
Q 60.6875 21.78125 60.6875 36.53125 
Q 60.6875 51.171875 53.6875 57.984375 
Q 46.6875 64.796875 31.59375 64.796875 
z
M 9.8125 72.90625 
L 30.078125 72.90625 
Q 51.265625 72.90625 61.171875 64.09375 
Q 71.09375 55.28125 71.09375 36.53125 
Q 71.09375 17.671875 61.125 8.828125 
Q 51.171875 0 30.078125 0 
L 9.8125 0 
z
" id="DejaVuSans-68"/>
      <path d="M 34.28125 27.484375 
Q 23.390625 27.484375 19.1875 25 
Q 14.984375 22.515625 14.984375 16.5 
Q 14.984375 11.71875 18.140625 8.90625 
Q 21.296875 6.109375 26.703125 6.109375 
Q 34.1875 6.109375 38.703125 11.40625 
Q 43.21875 16.703125 43.21875 25.484375 
L 43.21875 27.484375 
z
M 52.203125 31.203125 
L 52.203125 0 
L 43.21875 0 
L 43.21875 8.296875 
Q 40.140625 3.328125 35.546875 0.953125 
Q 30.953125 -1.421875 24.3125 -1.421875 
Q 15.921875 -1.421875 10.953125 3.296875 
Q 6 8.015625 6 15.921875 
Q 6 25.140625 12.171875 29.828125 
Q 18.359375 34.515625 30.609375 34.515625 
L 43.21875 34.515625 
L 43.21875 35.40625 
Q 43.21875 41.609375 39.140625 45 
Q 35.0625 48.390625 27.6875 48.390625 
Q 23 48.390625 18.546875 47.265625 
Q 14.109375 46.140625 10.015625 43.890625 
L 10.015625 52.203125 
Q 14.9375 54.109375 19.578125 55.046875 
Q 24.21875 56 28.609375 56 
Q 40.484375 56 46.34375 49.84375 
Q 52.203125 43.703125 52.203125 31.203125 
z
" id="DejaVuSans-97"/>
      <path d="M 32.171875 -5.078125 
Q 28.375 -14.84375 24.75 -17.8125 
Q 21.140625 -20.796875 15.09375 -20.796875 
L 7.90625 -20.796875 
L 7.90625 -13.28125 
L 13.1875 -13.28125 
Q 16.890625 -13.28125 18.9375 -11.515625 
Q 21 -9.765625 23.484375 -3.21875 
L 25.09375 0.875 
L 2.984375 54.6875 
L 12.5 54.6875 
L 29.59375 11.921875 
L 46.6875 54.6875 
L 56.203125 54.6875 
z
" id="DejaVuSans-121"/>
     </defs>
     <g transform="translate(215.652188 316.706687)scale(0.1 -0.1)">
      <use xlink:href="#DejaVuSans-68"/>
      <use x="77.001953" xlink:href="#DejaVuSans-97"/>
      <use x="138.28125" xlink:href="#DejaVuSans-121"/>
     </g>
    </g>
   </g>
   <g id="matplotlib.axis_2">
    <g id="ytick_1">
     <g id="line2d_15">
      <path clip-path="url(#pc429274bf8)" d="M 46.965625 272.917793 
L 404.085625 272.917793 
" style="fill:none;stroke:#b0b0b0;stroke-dasharray:2.96,1.28;stroke-dashoffset:0;stroke-width:0.8;"/>
     </g>
     <g id="line2d_16">
      <defs>
       <path d="M 0 0 
L -3.5 0 
" id="m01c6e916d0" style="stroke:#000000;stroke-width:0.8;"/>
      </defs>
      <g>
       <use style="stroke:#000000;stroke-width:0.8;" x="46.965625" xlink:href="#m01c6e916d0" y="272.917793"/>
      </g>
     </g>
     <g id="text_9">
      <!-- 100 -->
      <g transform="translate(20.878125 276.717012)scale(0.1 -0.1)">
       <use xlink:href="#DejaVuSans-49"/>
       <use x="63.623047" xlink:href="#DejaVuSans-48"/>
       <use x="127.246094" xlink:href="#DejaVuSans-48"/>
      </g>
     </g>
    </g>
    <g id="ytick_2">
     <g id="line2d_17">
      <path clip-path="url(#pc429274bf8)" d="M 46.965625 241.718412 
L 404.085625 241.718412 
" style="fill:none;stroke:#b0b0b0;stroke-dasharray:2.96,1.28;stroke-dashoffset:0;stroke-width:0.8;"/>
     </g>
     <g id="line2d_18">
      <g>
       <use style="stroke:#000000;stroke-width:0.8;" x="46.965625" xlink:href="#m01c6e916d0" y="241.718412"/>
      </g>
     </g>
     <g id="text_10">
      <!-- 120 -->
      <g transform="translate(20.878125 245.517631)scale(0.1 -0.1)">
       <use xlink:href="#DejaVuSans-49"/>
       <use x="63.623047" xlink:href="#DejaVuSans-50"/>
       <use x="127.246094" xlink:href="#DejaVuSans-48"/>
      </g>
     </g>
    </g>
    <g id="ytick_3">
     <g id="line2d_19">
      <path clip-path="url(#pc429274bf8)" d="M 46.965625 210.519031 
L 404.085625 210.519031 
" style="fill:none;stroke:#b0b0b0;stroke-dasharray:2.96,1.28;stroke-dashoffset:0;stroke-width:0.8;"/>
     </g>
     <g id="line2d_20">
      <g>
       <use style="stroke:#000000;stroke-width:0.8;" x="46.965625" xlink:href="#m01c6e916d0" y="210.519031"/>
      </g>
     </g>
     <g id="text_11">
      <!-- 140 -->
      <g transform="translate(20.878125 214.31825)scale(0.1 -0.1)">
       <use xlink:href="#DejaVuSans-49"/>
       <use x="63.623047" xlink:href="#DejaVuSans-52"/>
       <use x="127.246094" xlink:href="#DejaVuSans-48"/>
      </g>
     </g>
    </g>
    <g id="ytick_4">
     <g id="line2d_21">
      <path clip-path="url(#pc429274bf8)" d="M 46.965625 179.31965 
L 404.085625 179.31965 
" style="fill:none;stroke:#b0b0b0;stroke-dasharray:2.96,1.28;stroke-dashoffset:0;stroke-width:0.8;"/>
     </g>
     <g id="line2d_22">
      <g>
       <use style="stroke:#000000;stroke-width:0.8;" x="46.965625" xlink:href="#m01c6e916d0" y="179.31965"/>
      </g>
     </g>
     <g id="text_12">
      <!-- 160 -->
      <g transform="translate(20.878125 183.118869)scale(0.1 -0.1)">
       <use xlink:href="#DejaVuSans-49"/>
       <use x="63.623047" xlink:href="#DejaVuSans-54"/>
       <use x="127.246094" xlink:href="#DejaVuSans-48"/>
      </g>
     </g>
    </g>
    <g id="ytick_5">
     <g id="line2d_23">
      <path clip-path="url(#pc429274bf8)" d="M 46.965625 148.120269 
L 404.085625 148.120269 
" style="fill:none;stroke:#b0b0b0;stroke-dasharray:2.96,1.28;stroke-dashoffset:0;stroke-width:0.8;"/>
     </g>
     <g id="line2d_24">
      <g>
       <use style="stroke:#000000;stroke-width:0.8;" x="46.965625" xlink:href="#m01c6e916d0" y="148.120269"/>
      </g>
     </g>
     <g id="text_13">
      <!-- 180 -->
      <g transform="translate(20.878125 151.919488)scale(0.1 -0.1)">
       <use xlink:href="#DejaVuSans-49"/>
       <use x="63.623047" xlink:href="#DejaVuSans-56"/>
       <use x="127.246094" xlink:href="#DejaVuSans-48"/>
      </g>
     </g>
    </g>
    <g id="ytick_6">
     <g id="line2d_25">
      <path clip-path="url(#pc429274bf8)" d="M 46.965625 116.920888 
L 404.085625 116.920888 
" style="fill:none;stroke:#b0b0b0;stroke-dasharray:2.96,1.28;stroke-dashoffset:0;stroke-width:0.8;"/>
     </g>
     <g id="line2d_26">
      <g>
       <use style="stroke:#000000;stroke-width:0.8;" x="46.965625" xlink:href="#m01c6e916d0" y="116.920888"/>
      </g>
     </g>
     <g id="text_14">
      <!-- 200 -->
      <g transform="translate(20.878125 120.720107)scale(0.1 -0.1)">
       <use xlink:href="#DejaVuSans-50"/>
       <use x="63.623047" xlink:href="#DejaVuSans-48"/>
       <use x="127.246094" xlink:href="#DejaVuSans-48"/>
      </g>
     </g>
    </g>
    <g id="ytick_7">
     <g id="line2d_27">
      <path clip-path="url(#pc429274bf8)" d="M 46.965625 85.721507 
L 404.085625 85.721507 
" style="fill:none;stroke:#b0b0b0;stroke-dasharray:2.96,1.28;stroke-dashoffset:0;stroke-width:0.8;"/>
     </g>
     <g id="line2d_28">
      <g>
       <use style="stroke:#000000;stroke-width:0.8;" x="46.965625" xlink:href="#m01c6e916d0" y="85.721507"/>
      </g>
     </g>
     <g id="text_15">
      <!-- 220 -->
      <g transform="translate(20.878125 89.520726)scale(0.1 -0.1)">
       <use xlink:href="#DejaVuSans-50"/>
       <use x="63.623047" xlink:href="#DejaVuSans-50"/>
       <use x="127.246094" xlink:href="#DejaVuSans-48"/>
      </g>
     </g>
    </g>
    <g id="ytick_8">
     <g id="line2d_29">
      <path clip-path="url(#pc429274bf8)" d="M 46.965625 54.522126 
L 404.085625 54.522126 
" style="fill:none;stroke:#b0b0b0;stroke-dasharray:2.96,1.28;stroke-dashoffset:0;stroke-width:0.8;"/>
     </g>
     <g id="line2d_30">
      <g>
       <use style="stroke:#000000;stroke-width:0.8;" x="46.965625" xlink:href="#m01c6e916d0" y="54.522126"/>
      </g>
     </g>
     <g id="text_16">
      <!-- 240 -->
      <g transform="translate(20.878125 58.321345)scale(0.1 -0.1)">
       <use xlink:href="#DejaVuSans-50"/>
       <use x="63.623047" xlink:href="#DejaVuSans-52"/>
       <use x="127.246094" xlink:href="#DejaVuSans-48"/>
      </g>
     </g>
    </g>
    <g id="ytick_9">
     <g id="line2d_31">
      <path clip-path="url(#pc429274bf8)" d="M 46.965625 23.322745 
L 404.085625 23.322745 
" style="fill:none;stroke:#b0b0b0;stroke-dasharray:2.96,1.28;stroke-dashoffset:0;stroke-width:0.8;"/>
     </g>
     <g id="line2d_32">
      <g>
       <use style="stroke:#000000;stroke-width:0.8;" x="46.965625" xlink:href="#m01c6e916d0" y="23.322745"/>
      </g>
     </g>
     <g id="text_17">
      <!-- 260 -->
      <g transform="translate(20.878125 27.121964)scale(0.1 -0.1)">
       <use xlink:href="#DejaVuSans-50"/>
       <use x="63.623047" xlink:href="#DejaVuSans-54"/>
       <use x="127.246094" xlink:href="#DejaVuSans-48"/>
      </g>
     </g>
    </g>
    <g id="text_18">
     <!-- Price $ -->
     <defs>
      <path d="M 19.671875 64.796875 
L 19.671875 37.40625 
L 32.078125 37.40625 
Q 38.96875 37.40625 42.71875 40.96875 
Q 46.484375 44.53125 46.484375 51.125 
Q 46.484375 57.671875 42.71875 61.234375 
Q 38.96875 64.796875 32.078125 64.796875 
z
M 9.8125 72.90625 
L 32.078125 72.90625 
Q 44.34375 72.90625 50.609375 67.359375 
Q 56.890625 61.8125 56.890625 51.125 
Q 56.890625 40.328125 50.609375 34.8125 
Q 44.34375 29.296875 32.078125 29.296875 
L 19.671875 29.296875 
L 19.671875 0 
L 9.8125 0 
z
" id="DejaVuSans-80"/>
      <path d="M 41.109375 46.296875 
Q 39.59375 47.171875 37.8125 47.578125 
Q 36.03125 48 33.890625 48 
Q 26.265625 48 22.1875 43.046875 
Q 18.109375 38.09375 18.109375 28.8125 
L 18.109375 0 
L 9.078125 0 
L 9.078125 54.6875 
L 18.109375 54.6875 
L 18.109375 46.1875 
Q 20.953125 51.171875 25.484375 53.578125 
Q 30.03125 56 36.53125 56 
Q 37.453125 56 38.578125 55.875 
Q 39.703125 55.765625 41.0625 55.515625 
z
" id="DejaVuSans-114"/>
      <path d="M 9.421875 54.6875 
L 18.40625 54.6875 
L 18.40625 0 
L 9.421875 0 
z
M 9.421875 75.984375 
L 18.40625 75.984375 
L 18.40625 64.59375 
L 9.421875 64.59375 
z
" id="DejaVuSans-105"/>
      <path d="M 48.78125 52.59375 
L 48.78125 44.1875 
Q 44.96875 46.296875 41.140625 47.34375 
Q 37.3125 48.390625 33.40625 48.390625 
Q 24.65625 48.390625 19.8125 42.84375 
Q 14.984375 37.3125 14.984375 27.296875 
Q 14.984375 17.28125 19.8125 11.734375 
Q 24.65625 6.203125 33.40625 6.203125 
Q 37.3125 6.203125 41.140625 7.25 
Q 44.96875 8.296875 48.78125 10.40625 
L 48.78125 2.09375 
Q 45.015625 0.34375 40.984375 -0.53125 
Q 36.96875 -1.421875 32.421875 -1.421875 
Q 20.0625 -1.421875 12.78125 6.34375 
Q 5.515625 14.109375 5.515625 27.296875 
Q 5.515625 40.671875 12.859375 48.328125 
Q 20.21875 56 33.015625 56 
Q 37.15625 56 41.109375 55.140625 
Q 45.0625 54.296875 48.78125 52.59375 
z
" id="DejaVuSans-99"/>
      <path d="M 56.203125 29.59375 
L 56.203125 25.203125 
L 14.890625 25.203125 
Q 15.484375 15.921875 20.484375 11.0625 
Q 25.484375 6.203125 34.421875 6.203125 
Q 39.59375 6.203125 44.453125 7.46875 
Q 49.3125 8.734375 54.109375 11.28125 
L 54.109375 2.78125 
Q 49.265625 0.734375 44.1875 -0.34375 
Q 39.109375 -1.421875 33.890625 -1.421875 
Q 20.796875 -1.421875 13.15625 6.1875 
Q 5.515625 13.8125 5.515625 26.8125 
Q 5.515625 40.234375 12.765625 48.109375 
Q 20.015625 56 32.328125 56 
Q 43.359375 56 49.78125 48.890625 
Q 56.203125 41.796875 56.203125 29.59375 
z
M 47.21875 32.234375 
Q 47.125 39.59375 43.09375 43.984375 
Q 39.0625 48.390625 32.421875 48.390625 
Q 24.90625 48.390625 20.390625 44.140625 
Q 15.875 39.890625 15.1875 32.171875 
z
" id="DejaVuSans-101"/>
      <path id="DejaVuSans-32"/>
      <path d="M 33.796875 -14.703125 
L 28.90625 -14.703125 
L 28.859375 0 
Q 23.734375 0.09375 18.609375 1.1875 
Q 13.484375 2.296875 8.296875 4.5 
L 8.296875 13.28125 
Q 13.28125 10.15625 18.375 8.5625 
Q 23.484375 6.984375 28.90625 6.9375 
L 28.90625 29.203125 
Q 18.109375 30.953125 13.203125 35.15625 
Q 8.296875 39.359375 8.296875 46.6875 
Q 8.296875 54.640625 13.625 59.21875 
Q 18.953125 63.8125 28.90625 64.5 
L 28.90625 75.984375 
L 33.796875 75.984375 
L 33.796875 64.65625 
Q 38.328125 64.453125 42.578125 63.6875 
Q 46.828125 62.9375 50.875 61.625 
L 50.875 53.078125 
Q 46.828125 55.125 42.546875 56.25 
Q 38.28125 57.375 33.796875 57.5625 
L 33.796875 36.71875 
Q 44.875 35.015625 50.09375 30.609375 
Q 55.328125 26.21875 55.328125 18.609375 
Q 55.328125 10.359375 49.78125 5.59375 
Q 44.234375 0.828125 33.796875 0.09375 
z
M 28.90625 37.59375 
L 28.90625 57.625 
Q 23.25 56.984375 20.265625 54.390625 
Q 17.28125 51.8125 17.28125 47.515625 
Q 17.28125 43.3125 20.03125 40.96875 
Q 22.796875 38.625 28.90625 37.59375 
z
M 33.796875 28.21875 
L 33.796875 7.078125 
Q 39.984375 7.90625 43.140625 10.59375 
Q 46.296875 13.28125 46.296875 17.671875 
Q 46.296875 21.96875 43.28125 24.5 
Q 40.28125 27.046875 33.796875 28.21875 
z
" id="DejaVuSans-36"/>
     </defs>
     <g transform="translate(14.798438 172.342094)rotate(-90)scale(0.1 -0.1)">
      <use xlink:href="#DejaVuSans-80"/>
      <use x="58.552734" xlink:href="#DejaVuSans-114"/>
      <use x="99.666016" xlink:href="#DejaVuSans-105"/>
      <use x="127.449219" xlink:href="#DejaVuSans-99"/>
      <use x="182.429688" xlink:href="#DejaVuSans-101"/>
      <use x="243.953125" xlink:href="#DejaVuSans-32"/>
      <use x="275.740234" xlink:href="#DejaVuSans-36"/>
     </g>
    </g>
   </g>
   <g id="line2d_33">
    <path clip-path="url(#pc429274bf8)" d="M 63.198352 272.21305 
L 63.443005 269.331228 
L 64.176964 271.194403 
L 64.421617 272.265822 
L 64.66627 267.437002 
L 64.910923 267.862794 
L 65.155576 265.185834 
L 65.400229 267.635878 
L 65.644882 265.364216 
L 65.889535 266.482932 
L 66.134188 265.737748 
L 66.378841 265.431996 
L 66.623494 265.950716 
L 67.1128 265.674574 
L 67.357453 263.580127 
L 67.602106 262.531916 
L 68.091412 265.023746 
L 68.336066 263.681029 
L 68.580719 263.724673 
L 68.825372 264.898018 
L 69.070025 263.058825 
L 69.314678 264.148025 
L 69.559331 261.924505 
L 69.803984 261.120134 
L 70.537943 247.348604 
L 70.782596 249.091608 
L 71.271902 243.300292 
L 71.516555 240.341049 
L 71.761208 238.843933 
L 72.005861 241.684885 
L 72.250514 241.563334 
L 72.495167 242.320265 
L 72.73982 245.111266 
L 72.984473 246.359341 
L 73.229126 246.554433 
L 73.473779 250.542534 
L 73.718432 251.129951 
L 73.963085 248.831938 
L 74.207738 250.424363 
L 74.452391 244.927386 
L 74.697044 244.791577 
L 74.941697 243.904977 
L 75.18635 240.723377 
L 75.431003 242.627636 
L 75.675656 241.967894 
L 75.920309 241.890712 
L 76.164962 240.624582 
L 76.409615 238.123766 
L 76.654268 241.054385 
L 76.898921 234.715178 
L 77.143574 237.506655 
L 77.388227 233.6658 
L 77.877533 235.498923 
L 78.366839 242.433175 
L 78.611492 240.980964 
L 78.856145 241.798272 
L 79.100798 241.718757 
L 79.345451 236.984257 
L 79.590104 234.42692 
L 79.834757 236.287096 
L 80.324063 231.975508 
L 80.568716 244.673322 
L 80.813369 248.025008 
L 81.302675 245.166906 
L 81.547328 247.817456 
L 81.791981 248.880664 
L 82.281287 245.847536 
L 82.52594 242.297878 
L 83.015246 244.211277 
L 83.259899 239.848941 
L 83.504552 239.299039 
L 83.749205 242.635289 
L 83.993858 241.791345 
L 84.483164 244.247268 
L 84.727817 243.202353 
L 84.97247 245.976026 
L 85.217123 245.560731 
L 85.461776 245.681711 
L 85.706429 246.351081 
L 86.195735 243.30804 
L 86.440388 244.34917 
L 86.929694 241.453434 
L 87.419 230.352211 
L 87.663653 229.238636 
L 87.908306 227.443776 
L 88.152959 227.905583 
L 88.397612 229.933535 
L 88.642265 229.989152 
L 88.886918 231.48215 
L 89.131571 232.013117 
L 89.376224 226.373273 
L 89.620877 223.425647 
L 89.86553 224.400461 
L 90.110183 219.057776 
L 90.354836 218.792941 
L 90.599489 221.436553 
L 90.844143 218.866922 
L 91.088796 213.650252 
L 91.822755 217.7958 
L 92.067408 207.938546 
L 92.312061 207.245229 
L 92.556714 202.031058 
L 92.801367 201.761677 
L 93.04602 202.054528 
L 93.290673 201.492271 
L 93.535326 203.178612 
L 93.779979 203.997181 
L 94.024632 198.941088 
L 94.269285 199.259075 
L 94.513938 198.067009 
L 94.758591 194.747029 
L 95.003244 198.620744 
L 95.247897 193.820035 
L 95.49255 192.93803 
L 95.737203 194.016412 
L 95.981856 191.781502 
L 96.226509 190.76458 
L 96.471162 188.376592 
L 96.715815 188.159887 
L 96.960468 185.316828 
L 97.205121 186.641312 
L 97.449774 181.501479 
L 97.694427 185.97425 
L 97.93908 192.79076 
L 98.183733 189.09583 
L 98.428386 197.77342 
L 98.673039 196.682351 
L 98.917692 192.14693 
L 99.162345 194.143974 
L 99.406998 193.458726 
L 100.140957 186.881439 
L 100.38561 184.542366 
L 100.630263 190.650706 
L 100.874916 190.32134 
L 101.119569 191.825943 
L 101.364222 190.547138 
L 101.853528 186.663877 
L 102.098181 192.560654 
L 102.342834 195.711441 
L 102.587487 194.183892 
L 102.83214 200.817235 
L 103.076793 199.548285 
L 103.321446 201.604242 
L 103.810752 197.806173 
L 104.055405 197.8126 
L 104.300058 201.625189 
L 104.544711 198.191881 
L 104.789364 204.771858 
L 105.034017 205.119242 
L 105.27867 204.223622 
L 105.523323 204.82989 
L 106.012629 194.913437 
L 106.257282 195.685638 
L 106.746588 198.957584 
L 107.480547 210.7434 
L 107.7252 212.287278 
L 107.969853 210.598676 
L 108.214506 205.108864 
L 108.459159 203.714637 
L 108.948465 203.012037 
L 109.437771 200.164931 
L 109.682424 205.744006 
L 109.927077 204.754815 
L 110.661036 194.495095 
L 110.905689 193.983421 
L 111.150342 197.015977 
L 111.394995 196.600825 
L 111.639648 194.936979 
L 111.884301 187.528173 
L 112.128954 185.529391 
L 112.373607 187.427176 
L 112.61826 182.013224 
L 112.862913 180.940246 
L 113.107566 177.8846 
L 113.35222 179.600933 
L 113.596873 183.586357 
L 114.086179 177.492418 
L 114.330832 174.039354 
L 114.575485 172.686687 
L 114.820138 175.570497 
L 115.064791 173.945664 
L 115.554097 181.491695 
L 115.79875 177.991358 
L 116.043403 169.533543 
L 116.288056 169.067547 
L 116.532709 176.010143 
L 116.777362 174.2428 
L 117.022015 170.435234 
L 117.266668 174.07106 
L 117.511321 171.467866 
L 117.755974 173.625415 
L 118.000627 177.943275 
L 118.24528 187.471831 
L 118.489933 187.239178 
L 118.734586 193.400051 
L 118.979239 188.700197 
L 119.223892 191.377038 
L 119.468545 189.70586 
L 119.713198 193.01301 
L 119.957851 192.122817 
L 120.202504 193.20158 
L 120.447157 193.445039 
L 120.69181 189.081906 
L 120.936463 187.706364 
L 121.181116 185.363768 
L 121.425769 186.258223 
L 122.159728 174.846569 
L 122.404381 179.381205 
L 122.649034 177.459141 
L 122.893687 173.178724 
L 123.13834 171.902204 
L 123.382993 169.040412 
L 123.872299 171.597879 
L 124.116952 169.909301 
L 124.361605 170.703996 
L 124.606258 174.424585 
L 124.850911 175.487114 
L 125.58487 167.36652 
L 125.829523 166.923042 
L 126.074176 172.626727 
L 126.318829 174.127783 
L 126.563482 174.141374 
L 126.808135 174.90603 
L 127.052788 176.934661 
L 127.297441 173.082916 
L 127.542094 173.6998 
L 127.786747 178.147935 
L 128.0314 180.463681 
L 128.276053 179.032012 
L 128.520706 178.794693 
L 128.765359 183.210265 
L 129.010012 180.729492 
L 129.254665 183.431421 
L 129.499318 184.297098 
L 129.743971 190.30206 
L 129.988624 189.31344 
L 130.233277 188.810929 
L 130.47793 190.840774 
L 130.722583 186.676374 
L 130.967236 185.762782 
L 131.211889 185.690801 
L 131.456542 184.74048 
L 131.701195 179.594411 
L 131.945848 170.565342 
L 132.435154 173.003484 
L 132.679807 172.800371 
L 132.92446 169.078164 
L 133.413766 167.433098 
L 133.658419 166.888099 
L 133.903072 164.199238 
L 134.147725 172.091368 
L 134.392378 173.850094 
L 134.637031 176.509535 
L 134.881684 175.649524 
L 135.37099 180.998469 
L 135.615643 181.315885 
L 135.860297 181.021248 
L 136.594256 187.747329 
L 136.838909 189.33979 
L 137.083562 186.97201 
L 137.572868 179.611501 
L 137.817521 180.403197 
L 138.062174 183.008866 
L 138.306827 175.958442 
L 138.55148 182.467985 
L 138.796133 179.76646 
L 139.040786 179.687529 
L 139.285439 180.974927 
L 139.530092 184.092652 
L 140.019398 174.671187 
L 140.264051 177.457594 
L 140.508704 175.257699 
L 140.753357 176.197046 
L 140.99801 177.892479 
L 141.487316 173.834812 
L 141.731969 175.713911 
L 141.976622 174.524154 
L 142.221275 179.15686 
L 142.465928 174.042972 
L 142.710581 173.874564 
L 142.955234 174.847474 
L 143.199887 173.830052 
L 143.44454 173.920575 
L 143.689193 173.577666 
L 143.933846 169.719375 
L 144.178499 168.447235 
L 144.423152 171.205959 
L 145.157111 163.522607 
L 145.401764 167.614169 
L 145.646417 167.565872 
L 145.89107 166.125396 
L 146.135723 163.39226 
L 146.380376 165.339294 
L 146.625029 165.762111 
L 146.869682 171.240331 
L 147.114335 166.966245 
L 147.358988 167.189686 
L 147.603641 163.043448 
L 147.848294 167.58601 
L 148.092947 167.054055 
L 148.3376 165.862108 
L 148.582253 161.571574 
L 148.826906 162.491641 
L 149.071559 155.797099 
L 149.316212 156.72314 
L 149.560865 155.103235 
L 149.805518 154.444075 
L 150.050171 154.334747 
L 150.294824 154.848826 
L 150.539477 153.896863 
L 150.78413 154.243438 
L 151.028783 153.042564 
L 151.273436 152.673091 
L 151.518089 153.192453 
L 151.762742 148.554345 
L 152.496701 152.259771 
L 152.741354 150.829101 
L 152.986007 154.826189 
L 153.23066 153.424368 
L 153.475313 150.080846 
L 153.719966 155.6862 
L 153.964619 154.097572 
L 154.209272 158.409838 
L 154.453925 158.698404 
L 155.187884 172.169109 
L 155.432537 169.87312 
L 155.67719 171.664005 
L 155.921843 170.21872 
L 156.166496 173.280602 
L 156.411149 178.960602 
L 156.655802 176.561283 
L 157.145108 176.451645 
L 157.389761 176.183145 
L 157.634414 176.467308 
L 157.879067 173.023384 
L 158.12372 172.82884 
L 158.368374 172.830768 
L 158.613027 173.69135 
L 158.85768 172.159517 
L 159.102333 174.644337 
L 159.346986 172.440085 
L 159.591639 172.112315 
L 159.836292 169.616498 
L 160.080945 173.597685 
L 160.325598 174.424419 
L 160.814904 168.476941 
L 161.059557 171.400931 
L 161.548863 160.682619 
L 161.793516 160.664076 
L 162.038169 156.643328 
L 162.282822 158.430761 
L 162.772128 166.157697 
L 163.016781 169.711568 
L 163.506087 167.41177 
L 163.75074 166.401561 
L 163.995393 167.766677 
L 164.240046 165.440529 
L 164.484699 168.202276 
L 164.729352 169.213199 
L 165.218658 177.044655 
L 165.463311 174.849449 
L 165.707964 175.218304 
L 165.952617 173.531369 
L 166.441923 167.936394 
L 166.686576 169.726492 
L 167.420535 183.565957 
L 167.665188 182.581074 
L 167.909841 185.269626 
L 168.154494 190.255738 
L 168.399147 186.63717 
L 168.6438 186.815552 
L 168.888453 183.354918 
L 169.133106 182.037837 
L 169.377759 182.06333 
L 169.622412 178.993236 
L 170.111718 177.455237 
L 170.356371 180.114083 
L 170.601024 184.652766 
L 171.09033 178.547782 
L 171.334983 178.621715 
L 171.579636 179.58289 
L 171.824289 186.270386 
L 172.068942 187.580135 
L 172.802901 181.543301 
L 173.047554 180.714829 
L 173.292207 178.767558 
L 173.53686 180.364279 
L 173.781513 183.335399 
L 174.026166 184.378933 
L 174.270819 182.71949 
L 174.515472 182.16616 
L 174.760125 180.638421 
L 175.004778 179.975643 
L 175.249431 178.004973 
L 175.738737 176.914023 
L 175.98339 177.851347 
L 176.228043 178.264119 
L 176.472696 180.703618 
L 176.717349 175.496802 
L 176.962002 173.339467 
L 177.206655 176.926996 
L 177.451308 168.870314 
L 177.695961 170.075448 
L 177.940614 169.105347 
L 178.185267 170.322192 
L 178.42992 170.300722 
L 178.674573 170.46306 
L 178.919226 170.404671 
L 179.163879 164.797342 
L 179.653185 164.763255 
L 179.897838 163.395735 
L 180.142491 163.20938 
L 180.387144 166.730879 
L 180.631798 165.478447 
L 180.876451 166.347099 
L 181.121104 169.247547 
L 181.365757 168.077214 
L 181.855063 168.953935 
L 182.099716 164.622531 
L 182.344369 167.099258 
L 182.589022 173.205241 
L 182.833675 172.583667 
L 183.078328 172.981133 
L 183.567634 168.092281 
L 183.812287 164.534887 
L 184.301593 163.906672 
L 184.546246 160.294197 
L 184.790899 160.389815 
L 185.280205 152.227542 
L 185.769511 156.553161 
L 186.014164 155.116731 
L 186.258817 155.103258 
L 186.50347 154.000193 
L 186.992776 162.820483 
L 187.237429 162.414518 
L 187.482082 164.197167 
L 187.726735 163.375312 
L 187.971388 165.476305 
L 188.216041 159.798757 
L 188.705347 159.279061 
L 188.95 160.204602 
L 189.194653 159.226931 
L 189.439306 159.517022 
L 189.683959 156.734185 
L 189.928612 157.105611 
L 190.173265 158.199655 
L 190.907224 151.874706 
L 191.151877 151.257536 
L 191.641183 152.237396 
L 191.885836 149.186654 
L 192.130489 147.796712 
L 192.375142 148.691761 
L 192.619795 148.868905 
L 192.864448 148.034125 
L 193.109101 148.790259 
L 193.353754 152.417468 
L 193.598407 147.247809 
L 193.84306 147.008872 
L 194.332366 141.736288 
L 194.577019 141.773968 
L 194.821672 141.079771 
L 195.066325 136.103394 
L 195.555631 140.446438 
L 195.800284 139.682068 
L 196.044937 137.142715 
L 196.28959 142.019237 
L 196.534243 138.149473 
L 197.023549 145.134891 
L 197.268202 147.997635 
L 197.757508 135.555753 
L 198.002161 136.281109 
L 198.246814 141.375574 
L 198.491467 139.888585 
L 198.73612 148.644916 
L 198.980773 147.817539 
L 199.225426 148.003276 
L 199.714732 153.243273 
L 199.959385 160.116078 
L 200.204038 152.002506 
L 200.448691 151.181104 
L 200.693344 149.081468 
L 200.937997 153.132564 
L 201.427303 142.097621 
L 201.671956 142.408134 
L 201.916609 138.880304 
L 202.161262 138.56622 
L 202.405915 137.822964 
L 202.650568 130.64305 
L 202.895221 130.140992 
L 203.384528 134.600601 
L 203.873834 129.341394 
L 204.118487 129.113669 
L 204.36314 129.126189 
L 204.607793 132.394564 
L 204.852446 133.890764 
L 205.097099 133.77827 
L 205.341752 132.353504 
L 205.586405 132.380901 
L 205.831058 134.636544 
L 206.075711 133.819664 
L 206.320364 131.806386 
L 206.565017 132.475662 
L 206.80967 134.764296 
L 207.054323 135.801498 
L 207.298976 135.40753 
L 207.543629 135.421741 
L 208.032935 130.512537 
L 208.277588 130.728861 
L 208.766894 122.669846 
L 209.011547 121.716169 
L 209.2562 129.568548 
L 209.500853 128.352941 
L 209.745506 136.709234 
L 209.990159 140.902913 
L 210.234812 140.648504 
L 210.479465 136.889591 
L 210.968771 125.600953 
L 211.213424 125.870929 
L 211.458077 124.256618 
L 211.70273 123.964409 
L 211.947383 124.354877 
L 212.192036 122.624096 
L 212.436689 126.023651 
L 212.681342 126.150832 
L 212.925995 129.448604 
L 213.170648 136.320099 
L 213.415301 139.124478 
L 213.659954 134.485964 
L 213.904607 132.985813 
L 214.14926 139.088201 
L 214.393913 141.969464 
L 214.638566 138.90087 
L 214.883219 148.815323 
L 215.127872 147.878761 
L 215.372525 151.670689 
L 215.617178 158.193395 
L 216.106484 144.303158 
L 216.351137 147.020774 
L 216.59579 146.786216 
L 217.085096 159.994157 
L 217.329749 155.481516 
L 217.574402 158.349877 
L 217.819055 155.050368 
L 218.063708 148.034268 
L 218.308361 149.619468 
L 218.553014 147.77148 
L 218.797667 141.235135 
L 219.04232 145.009614 
L 219.286973 141.745071 
L 219.531626 136.110511 
L 219.776279 133.132893 
L 220.020932 134.25831 
L 220.265585 134.014279 
L 220.510238 134.914637 
L 220.754891 134.010756 
L 220.999544 129.172939 
L 221.244197 132.465998 
L 221.733503 129.512182 
L 221.978156 129.521037 
L 222.222809 131.825167 
L 222.467462 130.183957 
L 222.956768 133.635617 
L 223.201421 132.608769 
L 223.690727 139.199244 
L 223.93538 142.415442 
L 224.180033 140.183198 
L 224.424686 133.313107 
L 224.669339 133.844991 
L 224.913992 131.073675 
L 225.158645 130.921882 
L 225.403298 129.294478 
L 225.647952 130.314875 
L 225.892605 127.813988 
L 226.137258 131.439864 
L 226.381911 130.833691 
L 226.626564 138.779354 
L 226.871217 134.99314 
L 227.11587 135.847414 
L 227.360523 129.701847 
L 227.605176 137.076161 
L 227.849829 130.656023 
L 228.339135 129.906388 
L 228.583788 127.694829 
L 228.828441 127.861475 
L 229.317747 124.113037 
L 229.5624 124.27497 
L 230.051706 116.193699 
L 230.541012 120.93947 
L 230.785665 119.55255 
L 231.030318 122.756395 
L 231.519624 118.367744 
L 232.00893 123.945367 
L 232.253583 120.659972 
L 232.498236 119.928023 
L 232.742889 121.495275 
L 232.987542 121.451763 
L 233.232195 120.145227 
L 233.476848 123.547234 
L 233.721501 123.432026 
L 234.210807 116.145259 
L 234.45546 115.274275 
L 234.700113 118.332039 
L 234.944766 115.212625 
L 235.434072 113.423883 
L 235.923378 109.319562 
L 236.168031 109.192667 
L 236.412684 108.663568 
L 236.657337 106.018243 
L 236.90199 107.341322 
L 237.146643 103.675671 
L 237.391296 104.494764 
L 237.635949 107.970061 
L 237.880602 105.582548 
L 238.125255 107.867826 
L 238.859214 101.699717 
L 239.103867 102.51036 
L 239.34852 102.800759 
L 239.593173 96.70563 
L 239.837826 95.482525 
L 240.082479 99.198782 
L 240.327132 98.389186 
L 240.571785 95.992485 
L 240.816438 97.676279 
L 241.061091 94.942406 
L 241.305744 98.489279 
L 241.79505 89.457425 
L 242.284356 99.132418 
L 242.529009 98.833878 
L 242.773662 106.514636 
L 243.262968 100.35819 
L 243.752274 105.982943 
L 243.996927 106.716535 
L 244.24158 111.997259 
L 244.486233 107.481642 
L 244.730886 105.443371 
L 244.975539 102.382512 
L 245.220192 101.342073 
L 245.464845 98.79515 
L 245.709498 99.157983 
L 245.954151 97.294023 
L 246.198804 97.295879 
L 246.443457 100.861914 
L 246.68811 97.879106 
L 247.422069 108.681825 
L 247.666722 107.525488 
L 247.911375 107.185054 
L 248.156029 107.768495 
L 248.645335 110.009689 
L 248.889988 109.059559 
L 249.134641 109.143394 
L 249.379294 110.507034 
L 249.623947 109.967272 
L 249.8686 109.086766 
L 250.113253 115.832104 
L 250.357906 116.465389 
L 250.602559 116.083942 
L 250.847212 115.041384 
L 251.091865 115.209149 
L 251.336518 114.489173 
L 251.581171 117.32421 
L 251.825824 122.548235 
L 252.31513 151.067538 
L 252.559783 147.632921 
L 253.049089 132.257672 
L 253.293742 137.674313 
L 253.538395 136.772622 
L 253.783048 143.978482 
L 254.027701 140.084843 
L 254.272354 139.73772 
L 254.517007 148.045313 
L 254.76166 139.565742 
L 255.006313 139.448297 
L 255.495619 140.290384 
L 255.740272 141.480903 
L 256.229578 133.943774 
L 256.474231 138.79228 
L 256.718884 148.624755 
L 256.963537 144.753325 
L 257.20819 148.586432 
L 257.452843 147.863979 
L 257.697496 152.672591 
L 257.942149 150.464436 
L 258.186802 161.264608 
L 258.676108 158.196656 
L 258.920761 153.507466 
L 259.165414 152.542792 
L 259.410067 147.22034 
L 259.65472 150.852619 
L 259.899373 144.424602 
L 260.144026 145.437168 
L 260.388679 150.475219 
L 260.633332 148.112938 
L 260.877985 148.080184 
L 261.122638 150.597282 
L 261.367291 139.202148 
L 261.856597 139.676141 
L 262.10125 140.442582 
L 262.345903 148.683668 
L 262.835209 138.731224 
L 263.079862 137.018676 
L 263.324515 140.488237 
L 263.569168 129.788514 
L 263.813821 131.822739 
L 264.058474 136.173804 
L 264.303127 133.83397 
L 265.037086 129.698585 
L 265.281739 118.514134 
L 265.526392 122.600507 
L 265.771045 121.452025 
L 266.015698 122.729473 
L 266.260351 131.186597 
L 266.505004 133.194972 
L 266.749657 128.648053 
L 266.99431 132.687844 
L 267.238963 126.008417 
L 267.483616 129.880299 
L 267.728269 131.887174 
L 267.972922 135.154526 
L 268.706881 132.959153 
L 269.196187 130.746904 
L 269.685493 139.87178 
L 269.930146 131.727716 
L 270.419452 146.654394 
L 270.664106 146.788502 
L 270.908759 146.679054 
L 271.153412 153.214305 
L 271.398065 152.347938 
L 271.642718 143.772488 
L 271.887371 139.71306 
L 272.132024 145.589271 
L 272.376677 154.728667 
L 272.62133 152.53308 
L 273.110636 144.552901 
L 273.355289 144.210397 
L 273.599942 145.807427 
L 273.844595 144.318178 
L 274.089248 145.232151 
L 274.578554 152.644431 
L 275.312513 171.950262 
L 275.557166 172.966613 
L 275.801819 169.203559 
L 276.046472 171.036623 
L 276.291125 180.459492 
L 276.535778 176.256316 
L 276.780431 186.347842 
L 277.025084 183.703373 
L 277.269737 189.256264 
L 277.51439 189.105018 
L 277.759043 182.473698 
L 278.003696 193.131336 
L 278.248349 188.755444 
L 278.493002 188.525362 
L 278.982308 175.652475 
L 279.226961 180.341332 
L 279.471614 193.769192 
L 279.96092 184.592805 
L 280.205573 185.653216 
L 280.450226 195.852999 
L 280.694879 195.687733 
L 280.939532 198.578636 
L 281.184185 210.335889 
L 281.428838 197.164771 
L 281.673491 194.652078 
L 281.918144 193.346732 
L 282.162797 198.425415 
L 282.40745 200.453808 
L 282.652103 195.707109 
L 282.896756 201.392322 
L 283.141409 200.181951 
L 283.630715 194.123217 
L 283.875368 195.373744 
L 284.120021 187.376999 
L 284.364674 187.633859 
L 284.609327 185.228494 
L 284.85398 184.096317 
L 285.587939 194.002939 
L 285.832592 192.939387 
L 286.077245 188.867653 
L 286.321898 188.886148 
L 286.811204 194.326687 
L 287.055857 189.918851 
L 287.30051 181.701426 
L 287.545163 183.48486 
L 287.789816 188.527861 
L 288.034469 188.733902 
L 288.279122 191.317172 
L 288.523775 187.279286 
L 288.768428 185.653049 
L 289.013081 185.193742 
L 289.257734 184.464101 
L 289.502387 179.371398 
L 289.991693 186.402946 
L 290.236346 186.033901 
L 290.480999 193.947787 
L 290.725652 194.505188 
L 291.214958 186.733478 
L 291.459611 179.05541 
L 291.704264 177.316203 
L 291.948917 180.982901 
L 292.19357 181.174255 
L 292.438223 175.473523 
L 292.682876 166.608102 
L 292.92753 169.852673 
L 293.172183 169.002398 
L 293.416836 172.629916 
L 293.906142 168.30213 
L 294.150795 171.892468 
L 294.395448 173.117454 
L 294.640101 169.359804 
L 294.884754 176.111568 
L 295.129407 178.989737 
L 295.37406 178.958959 
L 295.618713 181.405528 
L 295.863366 182.426544 
L 296.108019 176.959178 
L 296.352672 178.946963 
L 296.597325 181.933912 
L 296.841978 186.7942 
L 297.086631 185.79175 
L 297.331284 187.089265 
L 297.575937 178.227272 
L 297.82059 187.457596 
L 298.065243 186.991696 
L 298.309896 185.567381 
L 298.554549 182.785021 
L 298.799202 176.938302 
L 299.043855 180.012586 
L 299.288508 179.340383 
L 299.533161 180.84339 
L 299.777814 180.043435 
L 300.022467 180.045244 
L 300.26712 185.052898 
L 300.511773 183.152685 
L 300.756426 187.536956 
L 301.001079 187.54962 
L 301.245732 189.537214 
L 301.490385 194.714871 
L 301.735038 196.797868 
L 301.979691 200.207658 
L 302.224344 199.418819 
L 302.468997 200.290184 
L 302.71365 200.474255 
L 302.958303 197.088649 
L 303.202956 196.798344 
L 303.447609 197.604846 
L 303.692262 190.803284 
L 303.936915 207.511825 
L 304.181568 209.697319 
L 304.915527 196.496424 
L 305.16018 197.556858 
L 305.404833 203.386033 
L 305.894139 198.716504 
L 306.138792 192.260757 
L 306.383445 190.280708 
L 306.628098 184.087653 
L 306.872751 183.476219 
L 307.117404 174.581996 
L 307.362057 176.829236 
L 307.60671 173.96961 
L 307.851363 176.407919 
L 308.096016 176.752018 
L 308.340669 179.575582 
L 308.829975 178.572704 
L 309.074628 176.658305 
L 309.563934 178.530192 
L 309.808587 181.231478 
L 310.05324 181.48484 
L 310.297893 184.614371 
L 310.542546 181.34552 
L 310.787199 181.843864 
L 311.031852 175.321515 
L 311.276505 175.231539 
L 311.521158 173.987796 
L 311.765811 175.578828 
L 312.010464 172.458557 
L 312.255117 174.752808 
L 312.49977 170.7964 
L 312.744423 170.209008 
L 313.233729 170.458751 
L 313.723035 168.994162 
L 313.967688 169.261591 
L 314.212341 171.493074 
L 314.456994 170.024342 
L 314.9463 168.559872 
L 315.190953 164.478069 
L 315.435607 164.784678 
L 315.68026 165.763824 
L 315.924913 165.168482 
L 316.169566 165.370119 
L 316.414219 164.400994 
L 316.658872 161.089797 
L 316.903525 165.126778 
L 317.148178 163.15449 
L 317.392831 168.045317 
L 317.637484 169.347878 
L 317.882137 166.914592 
L 318.12679 169.048981 
L 318.371443 168.943509 
L 318.616096 168.489748 
L 318.860749 168.502292 
L 319.105402 167.359165 
L 319.350055 170.580886 
L 319.594708 176.104856 
L 319.839361 173.854236 
L 320.084014 174.36691 
L 320.328667 181.020248 
L 320.57332 177.501344 
L 320.817973 177.693674 
L 321.062626 174.460719 
L 321.307279 168.841393 
L 321.551932 167.833159 
L 321.796585 163.702155 
L 322.041238 162.643672 
L 322.285891 165.806694 
L 322.530544 164.272314 
L 322.775197 168.362948 
L 323.01985 162.199575 
L 323.264503 165.204663 
L 323.509156 159.735273 
L 323.753809 157.106872 
L 323.998462 156.698028 
L 324.487768 155.407773 
L 324.732421 154.949823 
L 324.977074 153.608129 
L 325.221727 151.615203 
L 325.46638 151.85583 
L 325.711033 150.883825 
L 325.955686 151.318186 
L 326.200339 155.438384 
L 326.444992 153.985173 
L 326.689645 153.355053 
L 326.934298 145.552542 
L 327.178951 145.372209 
L 327.668257 114.857647 
L 327.91291 110.940253 
L 328.157563 102.709593 
L 328.402216 102.323504 
L 328.646869 109.45386 
L 328.891522 101.868958 
L 329.136175 102.243668 
L 329.380828 100.938465 
L 329.625481 100.771747 
L 329.870134 99.572159 
L 330.114787 99.901501 
L 330.35944 99.166433 
L 330.604093 97.505491 
L 331.093399 77.596605 
L 331.338052 81.168995 
L 331.582705 72.945404 
L 332.072011 63.968798 
L 332.316664 56.131177 
L 332.561317 55.00995 
L 332.80597 60.04393 
L 333.050623 57.104587 
L 333.295276 56.680366 
L 333.539929 51.172772 
L 333.784582 59.963808 
L 334.029235 59.409074 
L 334.273888 50.369318 
L 334.518541 50.404856 
L 334.763194 54.938587 
L 335.2525 55.42465 
L 335.497153 55.00995 
L 335.741806 60.044882 
L 336.231112 50.423922 
L 336.475765 50.78428 
L 336.720418 56.132534 
L 336.965071 51.857234 
L 337.209724 51.297025 
L 337.454377 49.884946 
L 337.69903 45.467326 
L 338.188337 52.992363 
L 338.43299 62.152659 
L 338.922296 68.765222 
L 339.411602 66.94237 
L 339.900908 62.665857 
L 340.145561 54.459571 
L 340.87952 73.231019 
L 341.124173 70.48384 
L 341.368826 70.059619 
L 341.613479 53.791938 
L 342.102785 57.239456 
L 342.347438 60.152116 
L 342.592091 54.49868 
L 342.836744 51.890345 
L 343.081397 45.338241 
L 343.32605 42.319277 
L 343.570703 42.319372 
L 343.815356 43.019854 
L 344.304662 38.241734 
L 344.549315 38.207458 
L 344.793968 39.713941 
L 345.038621 47.237788 
L 345.283274 43.234678 
L 345.527927 43.29947 
L 345.77258 37.822655 
L 346.017233 38.735366 
L 346.261886 37.618827 
L 346.751192 40.587734 
L 346.995845 39.644888 
L 347.240498 40.62351 
L 347.485151 45.508982 
L 347.729804 43.7464 
L 348.21911 46.020847 
L 348.463763 43.832996 
L 348.953069 54.475234 
L 349.197722 68.737991 
L 349.442375 68.976595 
L 349.687028 68.642207 
L 349.931681 75.414562 
L 350.176334 77.482635 
L 350.420987 73.030525 
L 350.66564 74.230232 
L 350.910293 68.430882 
L 351.399599 72.534894 
L 351.644252 72.600091 
L 351.888905 73.68609 
L 352.133558 73.316235 
L 352.378211 73.508922 
L 352.622864 72.711799 
L 353.11217 76.976316 
L 353.356823 81.255924 
L 353.601476 76.61296 
L 353.846129 97.528556 
L 354.090782 92.908847 
L 354.335435 91.733729 
L 354.580088 92.215768 
L 355.069394 73.301429 
L 355.314047 76.268027 
L 355.5587 77.847467 
L 355.803353 80.523284 
L 356.048006 80.730801 
L 356.292659 78.800477 
L 356.537312 75.505538 
L 356.781965 75.048016 
L 357.515924 81.886091 
L 357.760577 78.763368 
L 358.00523 78.523812 
L 358.249883 81.651463 
L 358.494536 78.29761 
L 358.739189 80.703308 
L 358.983842 97.908265 
L 359.473148 90.295942 
L 359.717801 94.011104 
L 360.207107 79.024847 
L 360.451761 80.589862 
L 360.696414 78.079739 
L 361.18572 101.318079 
L 361.430373 95.547341 
L 361.919679 94.65641 
L 362.164332 95.307357 
L 362.408985 91.82042 
L 362.653638 91.117582 
L 362.898291 80.234361 
L 363.142944 81.257662 
L 363.387597 81.375393 
L 363.63225 79.093448 
L 363.876903 81.488648 
L 364.121556 78.792884 
L 364.366209 79.545423 
L 364.610862 78.95108 
L 365.344821 91.203774 
L 365.834127 83.690757 
L 366.07878 83.648626 
L 366.323433 78.870935 
L 366.568086 83.963733 
L 366.812739 74.617558 
L 367.057392 73.721128 
L 367.546698 78.767343 
L 367.791351 80.079306 
L 368.036004 74.119428 
L 368.280657 75.931663 
L 368.52531 69.359327 
L 368.769963 73.722651 
L 369.014616 74.253845 
L 369.259269 81.745985 
L 369.503922 83.708324 
L 369.748575 80.025297 
L 369.993228 88.258932 
L 370.237881 88.913807 
L 370.482534 81.950312 
L 370.727187 84.67207 
L 370.97184 85.023263 
L 371.705799 76.196189 
L 372.195105 79.5449 
L 372.439758 70.66622 
L 372.684411 66.840659 
L 372.929064 71.165946 
L 373.173717 72.498903 
L 373.41837 76.544264 
L 373.663023 76.700722 
L 373.907676 74.592017 
L 374.152329 75.359219 
L 374.641635 87.626504 
L 374.886288 81.614163 
L 375.130941 80.557775 
L 375.375594 78.797716 
L 375.8649 83.686854 
L 376.354206 86.469143 
L 376.598859 84.906603 
L 376.843512 78.775555 
L 377.088165 80.295583 
L 377.332818 79.858198 
L 377.577471 92.172161 
L 377.822124 87.652354 
L 378.066777 93.49405 
L 378.31143 89.605339 
L 378.800736 75.905432 
L 379.045389 78.144293 
L 379.290042 75.838212 
L 379.534695 77.442788 
L 379.779348 73.914006 
L 380.268654 72.006057 
L 380.513307 69.850769 
L 381.002613 71.434827 
L 381.247266 68.978571 
L 381.491919 61.793492 
L 381.736572 63.494804 
L 381.981225 61.09151 
L 382.225878 55.204398 
L 382.470531 52.533008 
L 382.715184 54.314705 
L 382.959838 47.410337 
L 383.204491 47.374585 
L 383.449144 51.663881 
L 383.693797 51.060564 
L 384.183103 55.304705 
L 384.427756 56.460924 
L 384.672409 52.922453 
L 384.917062 63.932665 
L 385.161715 53.769563 
L 385.406368 53.57102 
L 385.651021 49.864523 
L 385.895674 50.921363 
L 386.140327 49.310978 
L 386.38498 54.889243 
L 386.629633 54.397254 
L 387.118939 52.784275 
L 387.363592 53.015048 
L 387.608245 50.471719 
L 387.852898 46.076285 
L 387.852898 46.076285 
" style="fill:none;stroke:#1f77b4;stroke-linecap:square;stroke-width:1.5;"/>
   </g>
   <g id="line2d_34">
    <path clip-path="url(#pc429274bf8)" d="M 63.198352 270.359444 
L 63.443005 271.54502 
L 63.687658 271.513821 
L 63.932311 272.777396 
L 64.176964 276.334125 
L 64.421617 271.389023 
L 64.910923 267.863493 
L 65.155576 269.01787 
L 65.400229 267.301904 
L 65.644882 268.206686 
L 65.889535 267.286305 
L 66.134188 267.832294 
L 66.378841 268.03509 
L 66.623494 267.473501 
L 66.868147 267.301904 
L 67.1128 264.681156 
L 67.357453 264.618757 
L 67.846759 266.553119 
L 68.091412 265.180346 
L 68.336066 264.930751 
L 68.580719 265.071148 
L 68.825372 264.291164 
L 69.070025 265.554739 
L 69.559331 262.918391 
L 70.29329 247.443498 
L 70.537943 250.017447 
L 71.271902 240.673233 
L 71.516555 239.596854 
L 71.761208 241.874409 
L 72.005861 241.905608 
L 72.250514 243.247181 
L 72.73982 246.83511 
L 72.984473 247.022307 
L 73.229126 251.858211 
L 73.473779 252.513398 
L 73.718432 249.159464 
L 73.963085 251.577416 
L 74.207738 246.616715 
L 74.452391 246.008327 
L 74.697044 244.978747 
L 74.941697 241.874409 
L 75.18635 242.79479 
L 75.675656 242.2956 
L 75.920309 241.593614 
L 76.164962 238.614073 
L 76.409615 241.406418 
L 76.654268 234.698551 
L 76.898921 236.695311 
L 77.143574 234.043364 
L 77.388227 233.684571 
L 77.877533 237.397298 
L 78.122186 243.278381 
L 78.366839 242.077205 
L 78.611492 242.155203 
L 78.856145 242.591994 
L 79.345451 234.152562 
L 79.590104 236.648512 
L 79.834757 235.353738 
L 80.07941 231.968605 
L 80.324063 244.869549 
L 80.568716 249.097065 
L 81.058022 246.023926 
L 81.302675 247.225103 
L 81.547328 250.703834 
L 81.791981 248.831871 
L 82.036634 248.207883 
L 82.281287 244.370359 
L 82.52594 244.697953 
L 82.770593 245.306341 
L 83.015246 241.234821 
L 83.259899 240.252041 
L 83.504552 244.198763 
L 83.749205 242.763591 
L 83.993858 243.699573 
L 84.238511 245.165943 
L 84.483164 244.214362 
L 84.727817 247.053506 
L 84.97247 246.195523 
L 85.217123 246.086325 
L 85.461776 247.069106 
L 85.706429 246.382719 
L 85.951082 243.496777 
L 86.195735 244.697953 
L 86.440388 244.058365 
L 86.685041 242.716792 
L 87.174347 229.597452 
L 87.419 230.408636 
L 87.663653 226.555513 
L 88.152959 229.956245 
L 88.642265 231.313418 
L 88.886918 233.107383 
L 89.131571 229.925046 
L 89.376224 223.529173 
L 89.620877 224.65235 
L 89.86553 219.083261 
L 90.110183 219.473253 
L 90.354836 221.360816 
L 90.599489 219.379655 
L 90.844143 214.621749 
L 91.088796 214.996142 
L 91.333449 216.556111 
L 91.578102 217.398494 
L 91.822755 208.818665 
L 92.067408 208.943462 
L 92.312061 203.577169 
L 92.556714 201.237215 
L 92.801367 201.845603 
L 93.290673 203.561569 
L 93.535326 204.045159 
L 93.779979 199.443251 
L 94.024632 199.365252 
L 94.269285 198.257674 
L 94.513938 195.075337 
L 94.758591 198.788064 
L 95.003244 194.217354 
L 95.247897 193.172175 
L 95.49255 194.513748 
L 95.737203 192.42339 
L 95.981856 191.42501 
L 96.226509 188.507868 
L 96.471162 187.86828 
L 96.715815 185.668724 
L 96.960468 187.135095 
L 97.205121 181.425608 
L 97.694427 193.546568 
L 97.93908 188.539067 
L 98.183733 198.585268 
L 98.428386 198.039278 
L 98.673039 192.345391 
L 98.917692 195.293733 
L 99.162345 194.092557 
L 99.406998 191.518608 
L 99.651651 190.301832 
L 99.896304 188.476668 
L 100.140957 184.592345 
L 100.38561 190.270633 
L 100.630263 189.771443 
L 100.874916 192.033398 
L 101.119569 191.939799 
L 101.364222 188.648265 
L 101.608875 187.36909 
L 102.098181 196.728904 
L 102.342834 194.716544 
L 102.587487 202.126397 
L 102.83214 200.223235 
L 103.076793 200.98762 
L 103.321446 200.316833 
L 103.566099 198.288874 
L 103.810752 199.365252 
L 104.055405 201.096818 
L 104.300058 200.098438 
L 104.544711 205.199536 
L 104.789364 205.854723 
L 105.034017 204.762745 
L 105.27867 204.559949 
L 105.767976 195.761724 
L 106.012629 196.370112 
L 106.257282 196.292113 
L 107.235894 212.702988 
L 107.480547 212.515791 
L 107.7252 211.267816 
L 107.969853 205.932722 
L 108.459159 203.093578 
L 108.703812 204.107558 
L 109.193118 201.050019 
L 109.437771 206.447512 
L 109.682424 204.793944 
L 109.927077 202.141997 
L 110.17173 197.337292 
L 110.661036 194.513748 
L 110.905689 197.196895 
L 111.394995 195.496529 
L 111.639648 187.86828 
L 111.884301 186.167914 
L 112.128954 187.946279 
L 112.373607 182.158794 
L 112.61826 181.035616 
L 112.862913 178.180872 
L 113.35222 183.35997 
L 113.596873 181.31641 
L 114.330832 172.533785 
L 114.575485 176.074914 
L 114.820138 173.76616 
L 115.064791 176.698902 
L 115.309444 181.971597 
L 115.554097 179.81884 
L 115.79875 169.944236 
L 116.043403 167.635482 
L 116.288056 174.156152 
L 116.532709 176.418107 
L 116.777362 170.24063 
L 117.022015 174.76454 
L 117.266668 172.908177 
L 117.511321 172.845778 
L 117.755974 176.886098 
L 118.000627 186.479908 
L 118.24528 188.289472 
L 118.489933 193.702565 
L 118.734586 190.145835 
L 118.979239 192.329792 
L 119.223892 189.443849 
L 119.468545 192.969379 
L 119.713198 192.189395 
L 120.202504 194.248554 
L 120.447157 189.865041 
L 120.69181 188.975858 
L 120.936463 184.093155 
L 121.181116 185.824721 
L 121.670422 179.148053 
L 121.915075 174.639743 
L 122.159728 178.945257 
L 122.404381 176.979696 
L 122.649034 172.986176 
L 122.893687 172.518185 
L 123.13834 169.569843 
L 123.382993 169.554244 
L 123.627646 171.457406 
L 123.872299 170.100233 
L 124.116952 171.114213 
L 124.361605 174.374548 
L 124.606258 175.528925 
L 124.850911 173.032975 
L 125.095564 167.635482 
L 125.340217 167.432686 
L 125.58487 166.340707 
L 125.829523 171.862998 
L 126.074176 173.937757 
L 126.808135 176.683302 
L 127.052788 173.532165 
L 127.297441 174.109353 
L 127.542094 178.149673 
L 127.786747 178.29007 
L 128.0314 181.456807 
L 128.276053 180.006036 
L 128.520706 183.82796 
L 128.765359 180.240032 
L 129.254665 182.595585 
L 129.499318 189.88064 
L 129.743971 190.286232 
L 129.988624 189.256653 
L 130.233277 191.596606 
L 130.47793 187.493888 
L 130.722583 185.965118 
L 131.211889 184.529947 
L 131.456542 180.115234 
L 131.701195 171.301409 
L 131.945848 171.426207 
L 132.190501 174.093754 
L 132.435154 173.079774 
L 132.679807 168.353067 
L 132.92446 167.74468 
L 133.169113 166.746299 
L 133.413766 167.183091 
L 133.658419 164.109952 
L 133.903072 171.129812 
L 134.147725 174.686542 
L 134.392378 175.716121 
L 134.637031 175.747321 
L 135.126337 182.111994 
L 135.37099 180.879619 
L 135.615643 181.394409 
L 135.860297 184.233552 
L 136.10495 184.701543 
L 136.349603 188.289472 
L 136.594256 190.161435 
L 136.838909 187.993078 
L 137.328215 179.31965 
L 137.572868 180.162033 
L 137.817521 183.016777 
L 138.062174 175.80972 
L 138.306827 181.940398 
L 138.55148 181.363209 
L 138.796133 179.678443 
L 139.040786 180.489627 
L 139.285439 182.84518 
L 139.774745 176.059315 
L 140.019398 177.057695 
L 140.264051 176.028115 
L 140.508704 176.121713 
L 140.753357 177.978077 
L 141.242663 174.390148 
L 141.487316 176.27771 
L 141.731969 173.828559 
L 141.976622 179.881239 
L 142.221275 174.374548 
L 142.465928 173.329369 
L 142.710581 174.811339 
L 142.955234 174.733341 
L 143.199887 174.327749 
L 143.933846 169.023854 
L 144.178499 171.519805 
L 144.423152 168.290669 
L 144.912458 164.531143 
L 145.157111 166.777499 
L 145.401764 166.496704 
L 145.89107 164.156751 
L 146.135723 166.761899 
L 146.380376 165.747919 
L 146.625029 170.646222 
L 146.869682 168.072273 
L 147.114335 167.354687 
L 147.358988 164.141151 
L 147.603641 167.463885 
L 147.848294 166.325108 
L 148.092947 166.23151 
L 148.3376 162.237989 
L 148.582253 162.955575 
L 148.826906 156.169709 
L 149.071559 156.278907 
L 149.316212 155.670519 
L 149.560865 153.62696 
L 149.805518 154.11055 
L 150.050171 153.658159 
L 150.294824 153.814156 
L 150.539477 154.781337 
L 150.78413 152.394584 
L 151.028783 152.971773 
L 151.518089 149.103049 
L 151.762742 150.787816 
L 152.007395 150.553821 
L 152.252048 152.176188 
L 152.496701 150.631819 
L 152.741354 154.547341 
L 152.986007 153.424164 
L 153.23066 150.07023 
L 153.475313 155.654919 
L 153.719966 153.923354 
L 153.964619 158.728058 
L 154.209272 157.979273 
L 154.943231 172.003395 
L 155.187884 169.569843 
L 155.432537 173.235771 
L 155.67719 170.209431 
L 155.921843 172.892577 
L 156.166496 179.600444 
L 156.411149 176.574104 
L 156.655802 178.664463 
L 156.900455 176.589704 
L 157.145108 176.30891 
L 157.389761 177.759681 
L 157.634414 172.471386 
L 157.879067 173.859758 
L 158.12372 172.986176 
L 158.368374 173.516565 
L 158.613027 172.065794 
L 158.85768 174.234151 
L 159.102333 172.299789 
L 159.346986 172.299789 
L 159.591639 169.117452 
L 159.836292 173.890958 
L 160.080945 174.951737 
L 160.325598 170.927016 
L 160.570251 169.25785 
L 160.814904 171.925397 
L 161.30421 160.756018 
L 161.548863 159.66404 
L 161.793516 157.074491 
L 162.038169 158.244468 
L 162.282822 163.891556 
L 162.527475 164.156751 
L 162.772128 168.867857 
L 163.016781 170.973815 
L 163.506087 166.6995 
L 163.75074 166.559103 
L 163.995393 164.936735 
L 164.240046 168.477865 
L 164.484699 170.396627 
L 164.974005 176.620903 
L 165.218658 175.747321 
L 165.463311 175.731721 
L 166.19727 167.978675 
L 166.441923 169.819438 
L 166.686576 174.26535 
L 166.931229 181.566005 
L 167.175882 184.685943 
L 167.420535 182.189993 
L 167.665188 185.590725 
L 167.909841 190.676225 
L 168.154494 187.525087 
L 168.399147 187.244293 
L 168.6438 183.656364 
L 168.888453 183.313171 
L 169.133106 182.751582 
L 169.377759 178.602064 
L 169.622412 178.617664 
L 169.867065 177.993676 
L 170.356371 184.717143 
L 170.845677 179.600444 
L 171.09033 178.742461 
L 171.334983 181.066815 
L 171.824289 187.837081 
L 172.068942 186.308311 
L 172.313595 183.375569 
L 172.558248 183.687563 
L 172.802901 180.021636 
L 173.047554 178.882859 
L 173.292207 180.177633 
L 173.53686 184.561146 
L 173.781513 184.888739 
L 174.026166 182.954378 
L 174.270819 185.013537 
L 174.515472 180.33363 
L 175.004778 179.070055 
L 175.249431 176.558505 
L 175.98339 179.616044 
L 176.228043 179.272851 
L 176.472696 176.511706 
L 176.717349 175.591324 
L 176.962002 175.29493 
L 177.206655 169.663441 
L 177.451308 169.959836 
L 177.695961 169.398247 
L 177.940614 170.849018 
L 178.185267 170.022234 
L 178.674573 170.193831 
L 179.163879 163.938355 
L 179.408532 164.141151 
L 179.653185 163.969554 
L 179.897838 163.345567 
L 180.142491 166.481105 
L 180.387144 166.247109 
L 180.631798 166.824298 
L 180.876451 168.74306 
L 181.121104 167.71348 
L 181.365757 168.696261 
L 181.61041 168.571463 
L 181.855063 164.562343 
L 182.099716 167.183091 
L 182.344369 171.660202 
L 182.589022 172.034594 
L 182.833675 173.984556 
L 183.078328 171.831798 
L 183.812287 162.986774 
L 184.05694 163.501564 
L 184.301593 161.426805 
L 184.546246 161.036813 
L 185.035552 153.08097 
L 185.280205 153.954553 
L 185.524858 155.296127 
L 185.769511 154.438144 
L 186.014164 155.077731 
L 186.258817 154.734538 
L 186.748123 163.329967 
L 186.992776 161.083612 
L 187.237429 164.624741 
L 187.482082 164.125551 
L 187.726735 165.123932 
L 187.971388 160.194429 
L 188.216041 159.882436 
L 188.460694 160.085232 
L 188.705347 160.022833 
L 188.95 159.461244 
L 189.194653 160.756018 
L 189.439306 156.6221 
L 189.683959 157.542482 
L 189.928612 157.433284 
L 190.173265 155.686119 
L 190.417918 155.186929 
L 190.662571 151.443003 
L 190.907224 151.396204 
L 191.39653 151.786196 
L 191.641183 149.508641 
L 191.885836 148.479062 
L 192.130489 148.744257 
L 192.375142 147.995471 
L 192.619795 148.510261 
L 192.864448 147.948672 
L 193.109101 152.176188 
L 193.353754 148.323065 
L 193.598407 146.5603 
L 193.84306 143.175167 
L 194.087713 141.911592 
L 194.332366 141.817994 
L 194.577019 140.601218 
L 194.821672 135.812113 
L 195.066325 138.448461 
L 195.310978 139.868033 
L 195.555631 140.180026 
L 195.800284 135.936911 
L 196.044937 141.739996 
L 196.28959 140.133227 
L 196.534243 142.145587 
L 196.778896 142.551179 
L 197.023549 147.028291 
L 197.268202 143.627558 
L 197.512855 135.531319 
L 197.757508 136.4517 
L 198.002161 142.192387 
L 198.246814 137.762074 
L 198.491467 146.139108 
L 198.73612 147.527481 
L 198.980773 150.039031 
L 199.225426 150.148229 
L 199.470079 152.425783 
L 199.714732 159.695239 
L 199.959385 152.940573 
L 200.204038 151.489802 
L 200.448691 147.839474 
L 200.693344 153.065371 
L 201.18265 142.894373 
L 201.427303 142.02079 
L 201.671956 138.261265 
L 201.916609 138.635657 
L 202.161262 137.247285 
L 202.405915 132.536178 
L 202.650568 131.225804 
L 203.139875 132.770173 
L 203.384528 130.960609 
L 203.629181 131.413 
L 203.873834 129.712634 
L 204.118487 129.587837 
L 204.36314 132.239784 
L 204.607793 132.146186 
L 204.852446 132.551778 
L 205.097099 132.629776 
L 205.341752 133.082167 
L 205.586405 133.784153 
L 205.831058 132.910571 
L 206.075711 133.160166 
L 206.320364 132.411381 
L 206.565017 134.298943 
L 206.80967 134.829333 
L 207.054323 135.000929 
L 207.298976 135.328523 
L 207.543629 132.224184 
L 208.032935 129.478639 
L 208.277588 124.018747 
L 208.522241 122.193583 
L 208.766894 121.772392 
L 209.011547 129.40064 
L 209.2562 126.998288 
L 209.745506 139.47804 
L 209.990159 142.956771 
L 210.234812 140.273625 
L 210.479465 130.009028 
L 210.968771 125.594316 
L 211.213424 123.940749 
L 211.458077 123.332361 
L 211.70273 124.018747 
L 211.947383 122.86437 
L 212.192036 123.613155 
L 212.436689 126.545897 
L 212.681342 125.641115 
L 213.170648 141.053609 
L 213.659954 132.099387 
L 214.14926 140.211226 
L 214.393913 140.429622 
L 214.638566 147.761476 
L 215.372525 154.937334 
L 215.617178 152.566181 
L 215.861831 144.937932 
L 216.106484 147.355884 
L 216.351137 147.465082 
L 216.840443 158.962054 
L 217.085096 154.375745 
L 217.329749 159.960434 
L 217.574402 155.155729 
L 217.819055 147.745876 
L 218.063708 150.023431 
L 218.553014 142.769575 
L 218.797667 144.657138 
L 219.531626 132.863772 
L 219.776279 134.080547 
L 220.020932 132.489379 
L 220.265585 134.595337 
L 220.510238 133.908951 
L 220.754891 130.165025 
L 220.999544 132.036988 
L 221.244197 129.057447 
L 221.48885 129.837432 
L 221.733503 129.088647 
L 221.978156 132.848172 
L 222.222809 129.728234 
L 222.467462 130.539418 
L 222.712115 133.035368 
L 222.956768 132.395781 
L 223.201421 137.340883 
L 223.446074 135.749714 
L 223.690727 143.892753 
L 223.93538 141.599598 
L 224.180033 132.598577 
L 224.424686 133.550158 
L 224.669339 129.556637 
L 224.913992 131.631396 
L 225.158645 128.90145 
L 225.403298 132.567378 
L 225.647952 127.637875 
L 226.137258 130.523818 
L 226.381911 136.654496 
L 226.626564 136.826093 
L 226.871217 135.546918 
L 227.11587 130.92941 
L 227.360523 135.687316 
L 227.605176 129.041847 
L 227.849829 130.102626 
L 228.339135 128.792252 
L 228.583788 128.527058 
L 228.828441 124.89233 
L 229.073094 123.722353 
L 229.317747 123.815951 
L 229.5624 120.477617 
L 229.807053 115.204922 
L 230.051706 116.593294 
L 230.296359 121.054806 
L 230.541012 119.884829 
L 230.785665 121.85039 
L 231.274971 117.997267 
L 231.764277 122.34958 
L 232.253583 119.167243 
L 232.498236 122.505577 
L 232.742889 120.774012 
L 232.987542 118.012866 
L 233.232195 121.148404 
L 233.476848 122.770772 
L 233.721501 120.992407 
L 233.966154 116.140903 
L 234.210807 114.222142 
L 234.45546 116.094104 
L 235.189419 112.28778 
L 235.434072 109.651432 
L 235.678725 108.497055 
L 235.923378 108.996245 
L 236.168031 109.199041 
L 236.412684 104.753129 
L 236.657337 106.968285 
L 236.90199 102.787568 
L 237.146643 103.69235 
L 237.391296 107.26468 
L 237.635949 104.73753 
L 237.880602 106.890287 
L 238.125255 103.988745 
L 238.369908 103.083963 
L 238.614561 100.619211 
L 239.103867 102.849967 
L 239.34852 96.438494 
L 239.593173 95.174919 
L 239.837826 96.547692 
L 240.082479 98.575652 
L 240.327132 95.767708 
L 240.571785 96.750488 
L 240.816438 94.14534 
L 241.061091 96.344896 
L 241.550397 88.217457 
L 241.79505 94.410535 
L 242.039703 96.922085 
L 242.284356 96.376096 
L 242.529009 104.987125 
L 243.018315 101.414796 
L 243.262968 102.569173 
L 243.507621 104.378737 
L 243.752274 104.113542 
L 243.996927 110.587414 
L 244.24158 109.417437 
L 244.975539 97.951664 
L 245.220192 96.703689 
L 245.464845 99.480434 
L 245.709498 97.483674 
L 245.954151 97.592871 
L 246.198804 98.981244 
L 246.443457 96.251298 
L 246.68811 99.68323 
L 247.177416 109.089843 
L 247.422069 107.186681 
L 247.911375 105.689111 
L 248.156029 109.011845 
L 248.400682 109.604633 
L 248.889988 108.029064 
L 249.134641 108.980646 
L 249.379294 111.554594 
L 249.623947 107.607873 
L 249.8686 114.268941 
L 250.357906 115.766511 
L 250.602559 113.76975 
L 250.847212 112.911768 
L 251.091865 115.080124 
L 251.336518 115.438917 
L 251.581171 121.990787 
L 252.070477 148.962652 
L 252.31513 150.897014 
L 252.804436 133.752954 
L 253.049089 136.030509 
L 253.293742 134.704535 
L 253.538395 144.813135 
L 253.783048 141.084809 
L 254.027701 140.226826 
L 254.272354 147.527481 
L 254.517007 138.947651 
L 254.76166 139.259645 
L 255.006313 138.900852 
L 255.250966 139.899232 
L 255.495619 141.973991 
L 255.740272 136.4985 
L 255.984925 134.642136 
L 256.229578 138.058469 
L 256.474231 146.653898 
L 256.718884 142.894373 
L 256.963537 148.55706 
L 257.20819 149.040651 
L 257.452843 152.940573 
L 257.697496 148.385464 
L 257.942149 159.008853 
L 258.186802 160.818417 
L 258.920761 152.784576 
L 259.165414 147.028291 
L 259.410067 147.621079 
L 259.65472 144.641538 
L 259.899373 146.451102 
L 260.144026 149.383844 
L 260.633332 146.607099 
L 260.877985 148.884654 
L 261.122638 140.382822 
L 261.367291 140.039629 
L 261.611944 139.166047 
L 261.856597 139.524839 
L 262.10125 148.58826 
L 262.345903 142.566779 
L 262.835209 137.184886 
L 263.079862 138.276864 
L 263.324515 130.461419 
L 263.569168 132.692175 
L 263.813821 136.420501 
L 264.058474 133.019769 
L 264.54778 129.94663 
L 264.792433 129.369441 
L 265.037086 118.215662 
L 265.281739 121.975188 
L 265.526392 120.33722 
L 265.771045 120.992407 
L 266.015698 128.199464 
L 266.260351 131.912191 
L 266.505004 129.151045 
L 266.749657 131.631396 
L 266.99431 126.811092 
L 267.238963 127.793872 
L 267.483616 130.227424 
L 267.728269 133.784153 
L 267.972922 134.595337 
L 268.217575 133.846552 
L 268.462228 131.787393 
L 268.706881 132.489379 
L 268.951534 127.731473 
L 269.196187 132.114986 
L 269.44084 140.00843 
L 269.685493 132.536178 
L 270.174799 143.565159 
L 270.419452 147.012691 
L 270.664106 144.828734 
L 270.908759 153.486562 
L 271.153412 153.736157 
L 271.642718 138.432861 
L 271.887371 144.04875 
L 272.132024 155.155729 
L 272.865983 143.51836 
L 273.110636 144.267145 
L 273.355289 145.593119 
L 273.599942 142.613578 
L 274.089248 147.761476 
L 274.823207 163.969554 
L 275.06786 172.112593 
L 275.312513 173.173372 
L 275.557166 170.381027 
L 275.801819 170.412227 
L 276.046472 180.895219 
L 276.291125 177.151293 
L 276.535778 186.167914 
L 276.780431 184.280351 
L 277.269737 192.345391 
L 277.51439 184.217953 
L 277.759043 193.172175 
L 278.003696 187.977478 
L 278.248349 189.116256 
L 278.737655 176.886098 
L 278.982308 179.865639 
L 279.226961 192.267393 
L 279.471614 190.738623 
L 279.716267 184.795141 
L 279.96092 184.826341 
L 280.205573 196.089317 
L 280.694879 199.240455 
L 280.939532 209.442652 
L 281.184185 200.956421 
L 281.673491 193.452969 
L 281.918144 198.46047 
L 282.162797 199.739645 
L 282.40745 196.806903 
L 282.652103 202.859583 
L 282.896756 201.845603 
L 283.386062 194.529348 
L 283.630715 195.652526 
L 283.875368 187.665484 
L 284.120021 188.36747 
L 284.609327 184.249152 
L 284.85398 186.573506 
L 285.098633 192.42339 
L 285.343286 195.059738 
L 285.587939 193.328172 
L 285.832592 188.773062 
L 286.077245 189.475048 
L 286.566551 194.076957 
L 286.811204 190.37983 
L 287.055857 183.063576 
L 287.30051 185.107135 
L 287.545163 188.36747 
L 287.789816 188.554667 
L 288.034469 190.239433 
L 288.523775 187.072696 
L 288.768428 184.779542 
L 289.013081 184.030756 
L 289.257734 179.600444 
L 289.74704 186.573506 
L 289.991693 186.823101 
L 290.236346 194.279753 
L 290.480999 194.482549 
L 290.970305 188.195874 
L 291.214958 179.553645 
L 291.459611 177.900078 
L 291.704264 181.628404 
L 291.948917 180.84842 
L 292.438223 168.431066 
L 292.682876 171.020615 
L 292.92753 168.789859 
L 293.172183 171.379407 
L 293.661489 168.524664 
L 293.906142 172.627383 
L 294.150795 172.908177 
L 294.395448 169.679041 
L 294.884754 179.210452 
L 295.37406 181.113614 
L 295.618713 183.203973 
L 295.863366 177.104494 
L 296.597325 186.589106 
L 296.841978 186.526707 
L 297.086631 187.665484 
L 297.331284 179.413248 
L 297.575937 187.587486 
L 297.82059 187.88388 
L 298.065243 186.417509 
L 298.309896 183.079175 
L 298.554549 177.369689 
L 298.799202 180.536426 
L 299.043855 180.052835 
L 299.288508 180.130834 
L 299.533161 179.366449 
L 299.777814 180.442828 
L 300.022467 186.074316 
L 300.26712 183.905959 
L 300.511773 186.8543 
L 300.756426 187.681084 
L 301.001079 189.974238 
L 301.245732 195.090937 
L 301.490385 197.056498 
L 301.735038 200.862822 
L 301.979691 200.909622 
L 302.224344 200.176436 
L 302.468997 201.720805 
L 302.71365 198.429271 
L 302.958303 197.493289 
L 303.202956 197.820883 
L 303.447609 190.769823 
L 303.692262 207.617488 
L 303.936915 211.283416 
L 304.670874 197.134496 
L 304.915527 197.649286 
L 305.16018 203.577169 
L 305.649486 199.599248 
L 305.894139 194.326552 
L 306.138792 191.503008 
L 306.383445 184.124355 
L 306.628098 182.564386 
L 306.872751 175.357329 
L 307.117404 176.761301 
L 307.362057 174.124953 
L 307.60671 177.120094 
L 307.851363 176.558505 
L 308.096016 179.241651 
L 308.340669 178.680063 
L 308.585322 178.524066 
L 308.829975 177.510086 
L 309.074628 177.775281 
L 309.319281 178.492866 
L 309.563934 181.176013 
L 309.808587 182.158794 
L 310.05324 185.465928 
L 310.297893 181.909199 
L 310.542546 182.36159 
L 310.787199 176.059315 
L 311.276505 173.953356 
L 311.521158 175.903318 
L 311.765811 173.298169 
L 312.010464 174.24975 
L 312.255117 170.661822 
L 312.744423 170.474625 
L 312.989076 169.866237 
L 313.233729 169.601043 
L 313.478382 169.554244 
L 313.723035 169.835038 
L 313.967688 171.051814 
L 314.212341 170.115833 
L 314.456994 170.006635 
L 314.701647 168.602663 
L 314.9463 164.70274 
L 315.190953 164.562343 
L 315.435607 166.044313 
L 315.68026 164.999134 
L 315.924913 164.765139 
L 316.169566 164.234749 
L 316.414219 161.130411 
L 316.658872 165.950715 
L 316.903525 162.066392 
L 317.148178 168.399867 
L 317.392831 169.710241 
L 317.637484 166.7151 
L 317.882137 169.959836 
L 318.371443 169.22665 
L 318.616096 168.353067 
L 318.860749 166.808698 
L 319.350055 177.010896 
L 319.594708 174.811339 
L 319.839361 173.937757 
L 320.084014 180.957617 
L 320.328667 177.338489 
L 320.57332 177.650483 
L 320.817973 175.77852 
L 321.062626 169.335848 
L 321.307279 168.165871 
L 321.551932 163.985154 
L 321.796585 162.097592 
L 322.041238 165.21753 
L 322.285891 164.811938 
L 322.530544 167.74468 
L 322.775197 162.908776 
L 323.01985 165.279928 
L 323.264503 159.617241 
L 323.509156 156.684499 
L 323.753809 156.684499 
L 323.998462 156.434904 
L 324.487768 155.062131 
L 324.732421 152.690978 
L 324.977074 151.630199 
L 325.221727 152.58178 
L 325.46638 150.865814 
L 325.711033 151.146609 
L 325.955686 153.455363 
L 326.444992 154.484943 
L 326.689645 145.811515 
L 326.934298 145.125128 
L 327.423604 115.563715 
L 327.668257 110.77461 
L 327.91291 102.600372 
L 328.157563 99.464834 
L 328.402216 107.155482 
L 328.646869 101.898386 
L 329.136175 99.636431 
L 329.380828 99.589632 
L 329.625481 97.717669 
L 330.114787 100.775208 
L 330.35944 98.591252 
L 330.848746 75.378912 
L 331.093399 80.480011 
L 331.338052 72.383772 
L 331.582705 67.969059 
L 332.072011 52.260171 
L 332.316664 51.636183 
L 332.561317 58.936838 
L 333.050623 54.631324 
L 333.295276 49.842219 
L 333.539929 56.238092 
L 333.784582 55.972897 
L 334.029235 49.701822 
L 334.518541 54.33493 
L 335.007847 52.088574 
L 335.2525 53.508146 
L 335.497153 57.36127 
L 335.741806 55.380109 
L 336.231112 49.639423 
L 336.475765 52.462967 
L 336.720418 46.878278 
L 336.965071 50.013815 
L 337.209724 50.513006 
L 337.454377 45.536704 
L 337.69903 48.531845 
L 337.943684 47.814259 
L 338.188337 61.167594 
L 338.43299 63.429549 
L 338.677643 67.92226 
L 339.411602 64.38113 
L 339.900908 55.177313 
L 340.390214 64.037937 
L 340.634867 71.182595 
L 340.87952 69.076637 
L 341.124173 69.482229 
L 341.368826 53.040155 
L 341.613479 54.553325 
L 341.858132 55.114914 
L 342.102785 58.063256 
L 342.347438 52.104174 
L 342.592091 50.27901 
L 343.081397 39.764819 
L 343.32605 38.080052 
L 343.570703 39.796018 
L 343.815356 38.329647 
L 344.060009 36.17689 
L 344.304662 36.223689 
L 344.549315 37.066072 
L 344.793968 43.056354 
L 345.038621 39.967615 
L 345.283274 41.948776 
L 345.527927 34.694919 
L 345.77258 37.268868 
L 346.017233 34.414125 
L 346.751192 38.548043 
L 346.995845 38.641641 
L 347.240498 41.449585 
L 347.485151 41.792779 
L 347.729804 42.479165 
L 347.974457 43.945536 
L 348.21911 41.69918 
L 348.463763 48.375848 
L 348.708416 51.183792 
L 348.953069 65.441909 
L 349.197722 68.45265 
L 349.442375 67.157875 
L 349.931681 77.172877 
L 350.176334 71.166996 
L 350.420987 72.539769 
L 350.66564 68.218654 
L 350.910293 70.558608 
L 351.154946 71.744184 
L 351.399599 71.276194 
L 351.644252 73.772144 
L 351.888905 72.243374 
L 352.133558 73.428951 
L 352.378211 71.853382 
L 352.622864 73.647347 
L 353.11217 80.54241 
L 353.356823 75.956101 
L 353.601476 92.60097 
L 353.846129 94.940924 
L 354.090782 88.747847 
L 354.335435 90.61981 
L 354.580088 80.698407 
L 354.824741 75.378912 
L 355.314047 76.658087 
L 355.5587 79.793625 
L 355.803353 78.155657 
L 356.048006 77.734465 
L 356.292659 75.878102 
L 356.781965 75.00452 
L 357.271271 79.856023 
L 357.515924 78.108858 
L 357.760577 78.296054 
L 358.00523 81.322394 
L 358.249883 77.734465 
L 358.494536 76.98568 
L 358.739189 95.518113 
L 358.983842 93.271757 
L 359.228495 92.912964 
L 359.473148 91.930184 
L 359.962454 79.746826 
L 360.207107 81.868383 
L 360.451761 80.214816 
L 360.941067 99.355636 
L 361.18572 93.505753 
L 361.430373 96.1577 
L 361.919679 94.254538 
L 362.164332 92.304576 
L 362.653638 81.915183 
L 362.898291 82.741966 
L 363.387597 75.566108 
L 363.63225 80.682807 
L 363.876903 82.897963 
L 364.121556 76.158897 
L 364.366209 77.765665 
L 365.100168 90.10502 
L 365.344821 85.035121 
L 365.589474 85.284716 
L 365.834127 80.698407 
L 366.07878 78.842043 
L 366.323433 82.757566 
L 366.568086 74.364932 
L 366.812739 73.179356 
L 367.302045 77.48487 
L 367.546698 76.611288 
L 367.791351 74.879722 
L 368.036004 74.193336 
L 368.280657 69.497829 
L 368.52531 72.305773 
L 368.769963 71.276194 
L 369.014616 80.558009 
L 369.503922 82.133578 
L 369.993228 88.560651 
L 370.237881 83.256756 
L 370.482534 82.211577 
L 370.727187 83.412753 
L 371.461146 74.801724 
L 371.705799 75.940501 
L 371.950452 79.49723 
L 372.195105 70.44941 
L 372.439758 65.566707 
L 372.929064 68.546248 
L 373.173717 77.141677 
L 373.41837 79.247635 
L 373.663023 74.240135 
L 373.907676 73.881342 
L 374.152329 76.970081 
L 374.396982 83.506351 
L 374.641635 82.367574 
L 374.886288 84.489131 
L 375.130941 80.136818 
L 375.375594 81.447192 
L 375.620247 81.0572 
L 375.8649 81.868383 
L 376.109553 85.175518 
L 376.354206 85.783906 
L 376.598859 81.946382 
L 376.843512 79.887223 
L 377.088165 76.548889 
L 377.332818 89.184638 
L 377.577471 87.546671 
L 377.822124 92.210978 
L 378.066777 90.073821 
L 378.556083 76.439691 
L 378.800736 75.48811 
L 379.045389 75.035719 
L 379.290042 77.578469 
L 379.779348 71.822183 
L 380.024001 70.44941 
L 380.268654 68.109456 
L 380.513307 68.515048 
L 380.75796 69.716225 
L 381.002613 70.215415 
L 381.247266 62.696364 
L 381.491919 61.588786 
L 381.736572 58.905639 
L 381.981225 53.508146 
L 382.225878 51.994976 
L 382.470531 54.038536 
L 382.715184 45.068714 
L 382.959838 45.131112 
L 383.204491 50.154213 
L 383.693797 50.7782 
L 383.93845 54.83412 
L 384.183103 56.815281 
L 384.427756 50.762601 
L 384.672409 60.621605 
L 384.917062 51.355389 
L 385.161715 54.537726 
L 385.406368 47.143472 
L 385.651021 51.199392 
L 385.895674 46.971876 
L 386.140327 51.854579 
L 386.629633 51.854579 
L 386.874286 53.133754 
L 387.363592 47.876658 
L 387.608245 43.789539 
L 387.852898 47.658262 
L 387.852898 47.658262 
" style="fill:none;stroke:#ff7f0e;stroke-linecap:square;stroke-width:1.5;"/>
   </g>
   <g id="patch_3">
    <path d="M 46.965625 288.430125 
L 46.965625 22.318125 
" style="fill:none;stroke:#000000;stroke-linecap:square;stroke-linejoin:miter;stroke-width:0.8;"/>
   </g>
   <g id="patch_4">
    <path d="M 404.085625 288.430125 
L 404.085625 22.318125 
" style="fill:none;stroke:#000000;stroke-linecap:square;stroke-linejoin:miter;stroke-width:0.8;"/>
   </g>
   <g id="patch_5">
    <path d="M 46.965625 288.430125 
L 404.085625 288.430125 
" style="fill:none;stroke:#000000;stroke-linecap:square;stroke-linejoin:miter;stroke-width:0.8;"/>
   </g>
   <g id="patch_6">
    <path d="M 46.965625 22.318125 
L 404.085625 22.318125 
" style="fill:none;stroke:#000000;stroke-linecap:square;stroke-linejoin:miter;stroke-width:0.8;"/>
   </g>
   <g id="text_19">
    <!-- Training: GS -->
    <defs>
     <path d="M -0.296875 72.90625 
L 61.375 72.90625 
L 61.375 64.59375 
L 35.5 64.59375 
L 35.5 0 
L 25.59375 0 
L 25.59375 64.59375 
L -0.296875 64.59375 
z
" id="DejaVuSans-84"/>
     <path d="M 54.890625 33.015625 
L 54.890625 0 
L 45.90625 0 
L 45.90625 32.71875 
Q 45.90625 40.484375 42.875 44.328125 
Q 39.84375 48.1875 33.796875 48.1875 
Q 26.515625 48.1875 22.3125 43.546875 
Q 18.109375 38.921875 18.109375 30.90625 
L 18.109375 0 
L 9.078125 0 
L 9.078125 54.6875 
L 18.109375 54.6875 
L 18.109375 46.1875 
Q 21.34375 51.125 25.703125 53.5625 
Q 30.078125 56 35.796875 56 
Q 45.21875 56 50.046875 50.171875 
Q 54.890625 44.34375 54.890625 33.015625 
z
" id="DejaVuSans-110"/>
     <path d="M 45.40625 27.984375 
Q 45.40625 37.75 41.375 43.109375 
Q 37.359375 48.484375 30.078125 48.484375 
Q 22.859375 48.484375 18.828125 43.109375 
Q 14.796875 37.75 14.796875 27.984375 
Q 14.796875 18.265625 18.828125 12.890625 
Q 22.859375 7.515625 30.078125 7.515625 
Q 37.359375 7.515625 41.375 12.890625 
Q 45.40625 18.265625 45.40625 27.984375 
z
M 54.390625 6.78125 
Q 54.390625 -7.171875 48.1875 -13.984375 
Q 42 -20.796875 29.203125 -20.796875 
Q 24.46875 -20.796875 20.265625 -20.09375 
Q 16.0625 -19.390625 12.109375 -17.921875 
L 12.109375 -9.1875 
Q 16.0625 -11.328125 19.921875 -12.34375 
Q 23.78125 -13.375 27.78125 -13.375 
Q 36.625 -13.375 41.015625 -8.765625 
Q 45.40625 -4.15625 45.40625 5.171875 
L 45.40625 9.625 
Q 42.625 4.78125 38.28125 2.390625 
Q 33.9375 0 27.875 0 
Q 17.828125 0 11.671875 7.65625 
Q 5.515625 15.328125 5.515625 27.984375 
Q 5.515625 40.671875 11.671875 48.328125 
Q 17.828125 56 27.875 56 
Q 33.9375 56 38.28125 53.609375 
Q 42.625 51.21875 45.40625 46.390625 
L 45.40625 54.6875 
L 54.390625 54.6875 
z
" id="DejaVuSans-103"/>
     <path d="M 11.71875 12.40625 
L 22.015625 12.40625 
L 22.015625 0 
L 11.71875 0 
z
M 11.71875 51.703125 
L 22.015625 51.703125 
L 22.015625 39.3125 
L 11.71875 39.3125 
z
" id="DejaVuSans-58"/>
     <path d="M 59.515625 10.40625 
L 59.515625 29.984375 
L 43.40625 29.984375 
L 43.40625 38.09375 
L 69.28125 38.09375 
L 69.28125 6.78125 
Q 63.578125 2.734375 56.6875 0.65625 
Q 49.8125 -1.421875 42 -1.421875 
Q 24.90625 -1.421875 15.25 8.5625 
Q 5.609375 18.5625 5.609375 36.375 
Q 5.609375 54.25 15.25 64.234375 
Q 24.90625 74.21875 42 74.21875 
Q 49.125 74.21875 55.546875 72.453125 
Q 61.96875 70.703125 67.390625 67.28125 
L 67.390625 56.78125 
Q 61.921875 61.421875 55.765625 63.765625 
Q 49.609375 66.109375 42.828125 66.109375 
Q 29.4375 66.109375 22.71875 58.640625 
Q 16.015625 51.171875 16.015625 36.375 
Q 16.015625 21.625 22.71875 14.15625 
Q 29.4375 6.6875 42.828125 6.6875 
Q 48.046875 6.6875 52.140625 7.59375 
Q 56.25 8.5 59.515625 10.40625 
z
" id="DejaVuSans-71"/>
     <path d="M 53.515625 70.515625 
L 53.515625 60.890625 
Q 47.90625 63.578125 42.921875 64.890625 
Q 37.9375 66.21875 33.296875 66.21875 
Q 25.25 66.21875 20.875 63.09375 
Q 16.5 59.96875 16.5 54.203125 
Q 16.5 49.359375 19.40625 46.890625 
Q 22.3125 44.4375 30.421875 42.921875 
L 36.375 41.703125 
Q 47.40625 39.59375 52.65625 34.296875 
Q 57.90625 29 57.90625 20.125 
Q 57.90625 9.515625 50.796875 4.046875 
Q 43.703125 -1.421875 29.984375 -1.421875 
Q 24.8125 -1.421875 18.96875 -0.25 
Q 13.140625 0.921875 6.890625 3.21875 
L 6.890625 13.375 
Q 12.890625 10.015625 18.65625 8.296875 
Q 24.421875 6.59375 29.984375 6.59375 
Q 38.421875 6.59375 43.015625 9.90625 
Q 47.609375 13.234375 47.609375 19.390625 
Q 47.609375 24.75 44.3125 27.78125 
Q 41.015625 30.8125 33.5 32.328125 
L 27.484375 33.5 
Q 16.453125 35.6875 11.515625 40.375 
Q 6.59375 45.0625 6.59375 53.421875 
Q 6.59375 63.09375 13.40625 68.65625 
Q 20.21875 74.21875 32.171875 74.21875 
Q 37.3125 74.21875 42.625 73.28125 
Q 47.953125 72.359375 53.515625 70.515625 
z
" id="DejaVuSans-83"/>
    </defs>
    <g transform="translate(189.468438 16.318125)scale(0.12 -0.12)">
     <use xlink:href="#DejaVuSans-84"/>
     <use x="46.333984" xlink:href="#DejaVuSans-114"/>
     <use x="87.447266" xlink:href="#DejaVuSans-97"/>
     <use x="148.726562" xlink:href="#DejaVuSans-105"/>
     <use x="176.509766" xlink:href="#DejaVuSans-110"/>
     <use x="239.888672" xlink:href="#DejaVuSans-105"/>
     <use x="267.671875" xlink:href="#DejaVuSans-110"/>
     <use x="331.050781" xlink:href="#DejaVuSans-103"/>
     <use x="394.527344" xlink:href="#DejaVuSans-58"/>
     <use x="428.21875" xlink:href="#DejaVuSans-32"/>
     <use x="460.005859" xlink:href="#DejaVuSans-71"/>
     <use x="537.496094" xlink:href="#DejaVuSans-83"/>
    </g>
   </g>
   <g id="legend_1">
    <g id="patch_7">
     <path d="M 53.965625 59.674375 
L 137.69375 59.674375 
Q 139.69375 59.674375 139.69375 57.674375 
L 139.69375 29.318125 
Q 139.69375 27.318125 137.69375 27.318125 
L 53.965625 27.318125 
Q 51.965625 27.318125 51.965625 29.318125 
L 51.965625 57.674375 
Q 51.965625 59.674375 53.965625 59.674375 
z
" style="fill:#ffffff;opacity:0.8;stroke:#cccccc;stroke-linejoin:miter;"/>
    </g>
    <g id="line2d_35">
     <path d="M 55.965625 35.416562 
L 75.965625 35.416562 
" style="fill:none;stroke:#1f77b4;stroke-linecap:square;stroke-width:1.5;"/>
    </g>
    <g id="line2d_36"/>
    <g id="text_20">
     <!-- Predicted -->
     <defs>
      <path d="M 45.40625 46.390625 
L 45.40625 75.984375 
L 54.390625 75.984375 
L 54.390625 0 
L 45.40625 0 
L 45.40625 8.203125 
Q 42.578125 3.328125 38.25 0.953125 
Q 33.9375 -1.421875 27.875 -1.421875 
Q 17.96875 -1.421875 11.734375 6.484375 
Q 5.515625 14.40625 5.515625 27.296875 
Q 5.515625 40.1875 11.734375 48.09375 
Q 17.96875 56 27.875 56 
Q 33.9375 56 38.25 53.625 
Q 42.578125 51.265625 45.40625 46.390625 
z
M 14.796875 27.296875 
Q 14.796875 17.390625 18.875 11.75 
Q 22.953125 6.109375 30.078125 6.109375 
Q 37.203125 6.109375 41.296875 11.75 
Q 45.40625 17.390625 45.40625 27.296875 
Q 45.40625 37.203125 41.296875 42.84375 
Q 37.203125 48.484375 30.078125 48.484375 
Q 22.953125 48.484375 18.875 42.84375 
Q 14.796875 37.203125 14.796875 27.296875 
z
" id="DejaVuSans-100"/>
      <path d="M 18.3125 70.21875 
L 18.3125 54.6875 
L 36.8125 54.6875 
L 36.8125 47.703125 
L 18.3125 47.703125 
L 18.3125 18.015625 
Q 18.3125 11.328125 20.140625 9.421875 
Q 21.96875 7.515625 27.59375 7.515625 
L 36.8125 7.515625 
L 36.8125 0 
L 27.59375 0 
Q 17.1875 0 13.234375 3.875 
Q 9.28125 7.765625 9.28125 18.015625 
L 9.28125 47.703125 
L 2.6875 47.703125 
L 2.6875 54.6875 
L 9.28125 54.6875 
L 9.28125 70.21875 
z
" id="DejaVuSans-116"/>
     </defs>
     <g transform="translate(83.965625 38.916562)scale(0.1 -0.1)">
      <use xlink:href="#DejaVuSans-80"/>
      <use x="58.552734" xlink:href="#DejaVuSans-114"/>
      <use x="97.416016" xlink:href="#DejaVuSans-101"/>
      <use x="158.939453" xlink:href="#DejaVuSans-100"/>
      <use x="222.416016" xlink:href="#DejaVuSans-105"/>
      <use x="250.199219" xlink:href="#DejaVuSans-99"/>
      <use x="305.179688" xlink:href="#DejaVuSans-116"/>
      <use x="344.388672" xlink:href="#DejaVuSans-101"/>
      <use x="405.912109" xlink:href="#DejaVuSans-100"/>
     </g>
    </g>
    <g id="line2d_37">
     <path d="M 55.965625 50.094687 
L 75.965625 50.094687 
" style="fill:none;stroke:#ff7f0e;stroke-linecap:square;stroke-width:1.5;"/>
    </g>
    <g id="line2d_38"/>
    <g id="text_21">
     <!-- True value -->
     <defs>
      <path d="M 8.5 21.578125 
L 8.5 54.6875 
L 17.484375 54.6875 
L 17.484375 21.921875 
Q 17.484375 14.15625 20.5 10.265625 
Q 23.53125 6.390625 29.59375 6.390625 
Q 36.859375 6.390625 41.078125 11.03125 
Q 45.3125 15.671875 45.3125 23.6875 
L 45.3125 54.6875 
L 54.296875 54.6875 
L 54.296875 0 
L 45.3125 0 
L 45.3125 8.40625 
Q 42.046875 3.421875 37.71875 1 
Q 33.40625 -1.421875 27.6875 -1.421875 
Q 18.265625 -1.421875 13.375 4.4375 
Q 8.5 10.296875 8.5 21.578125 
z
M 31.109375 56 
z
" id="DejaVuSans-117"/>
      <path d="M 2.984375 54.6875 
L 12.5 54.6875 
L 29.59375 8.796875 
L 46.6875 54.6875 
L 56.203125 54.6875 
L 35.6875 0 
L 23.484375 0 
z
" id="DejaVuSans-118"/>
      <path d="M 9.421875 75.984375 
L 18.40625 75.984375 
L 18.40625 0 
L 9.421875 0 
z
" id="DejaVuSans-108"/>
     </defs>
     <g transform="translate(83.965625 53.594687)scale(0.1 -0.1)">
      <use xlink:href="#DejaVuSans-84"/>
      <use x="46.333984" xlink:href="#DejaVuSans-114"/>
      <use x="87.447266" xlink:href="#DejaVuSans-117"/>
      <use x="150.826172" xlink:href="#DejaVuSans-101"/>
      <use x="212.349609" xlink:href="#DejaVuSans-32"/>
      <use x="244.136719" xlink:href="#DejaVuSans-118"/>
      <use x="303.316406" xlink:href="#DejaVuSans-97"/>
      <use x="364.595703" xlink:href="#DejaVuSans-108"/>
      <use x="392.378906" xlink:href="#DejaVuSans-117"/>
      <use x="455.757812" xlink:href="#DejaVuSans-101"/>
     </g>
    </g>
   </g>
  </g>
 </g>
 <defs>
  <clipPath id="pc429274bf8">
   <rect height="266.112" width="357.12" x="46.965625" y="22.318125"/>
  </clipPath>
 </defs>
</svg>
