<?xml version="1.0" encoding="utf-8" standalone="no"?>
<!DOCTYPE svg PUBLIC "-//W3C//DTD SVG 1.1//EN"
  "http://www.w3.org/Graphics/SVG/1.1/DTD/svg11.dtd">
<!-- Created with matplotlib (https://matplotlib.org/) -->
<svg height="325.986375pt" version="1.1" viewBox="0 0 417.648125 325.986375" width="417.648125pt" xmlns="http://www.w3.org/2000/svg" xmlns:xlink="http://www.w3.org/1999/xlink">
 <defs>
  <style type="text/css">
*{stroke-linecap:butt;stroke-linejoin:round;}
  </style>
 </defs>
 <g id="figure_1">
  <g id="patch_1">
   <path d="M 0 325.986375 
L 417.648125 325.986375 
L 417.648125 0 
L 0 0 
z
" style="fill:#ffffff;"/>
  </g>
  <g id="axes_1">
   <g id="patch_2">
    <path d="M 53.328125 288.430125 
L 410.448125 288.430125 
L 410.448125 22.318125 
L 53.328125 22.318125 
z
" style="fill:#ffffff;"/>
   </g>
   <g id="matplotlib.axis_1">
    <g id="xtick_1">
     <g id="line2d_1">
      <path clip-path="url(#p503fa791b9)" d="M 69.560852 288.430125 
L 69.560852 22.318125 
" style="fill:none;stroke:#b0b0b0;stroke-dasharray:2.96,1.28;stroke-dashoffset:0;stroke-width:0.8;"/>
     </g>
     <g id="line2d_2">
      <defs>
       <path d="M 0 0 
L 0 3.5 
" id="m6ef6c906f7" style="stroke:#000000;stroke-width:0.8;"/>
      </defs>
      <g>
       <use style="stroke:#000000;stroke-width:0.8;" x="69.560852" xlink:href="#m6ef6c906f7" y="288.430125"/>
      </g>
     </g>
     <g id="text_1">
      <!-- 0 -->
      <defs>
       <path d="M 31.78125 66.40625 
Q 24.171875 66.40625 20.328125 58.90625 
Q 16.5 51.421875 16.5 36.375 
Q 16.5 21.390625 20.328125 13.890625 
Q 24.171875 6.390625 31.78125 6.390625 
Q 39.453125 6.390625 43.28125 13.890625 
Q 47.125 21.390625 47.125 36.375 
Q 47.125 51.421875 43.28125 58.90625 
Q 39.453125 66.40625 31.78125 66.40625 
z
M 31.78125 74.21875 
Q 44.046875 74.21875 50.515625 64.515625 
Q 56.984375 54.828125 56.984375 36.375 
Q 56.984375 17.96875 50.515625 8.265625 
Q 44.046875 -1.421875 31.78125 -1.421875 
Q 19.53125 -1.421875 13.0625 8.265625 
Q 6.59375 17.96875 6.59375 36.375 
Q 6.59375 54.828125 13.0625 64.515625 
Q 19.53125 74.21875 31.78125 74.21875 
z
" id="DejaVuSans-48"/>
      </defs>
      <g transform="translate(66.379602 303.028562)scale(0.1 -0.1)">
       <use xlink:href="#DejaVuSans-48"/>
      </g>
     </g>
    </g>
    <g id="xtick_2">
     <g id="line2d_3">
      <path clip-path="url(#p503fa791b9)" d="M 118.491454 288.430125 
L 118.491454 22.318125 
" style="fill:none;stroke:#b0b0b0;stroke-dasharray:2.96,1.28;stroke-dashoffset:0;stroke-width:0.8;"/>
     </g>
     <g id="line2d_4">
      <g>
       <use style="stroke:#000000;stroke-width:0.8;" x="118.491454" xlink:href="#m6ef6c906f7" y="288.430125"/>
      </g>
     </g>
     <g id="text_2">
      <!-- 200 -->
      <defs>
       <path d="M 19.1875 8.296875 
L 53.609375 8.296875 
L 53.609375 0 
L 7.328125 0 
L 7.328125 8.296875 
Q 12.9375 14.109375 22.625 23.890625 
Q 32.328125 33.6875 34.8125 36.53125 
Q 39.546875 41.84375 41.421875 45.53125 
Q 43.3125 49.21875 43.3125 52.78125 
Q 43.3125 58.59375 39.234375 62.25 
Q 35.15625 65.921875 28.609375 65.921875 
Q 23.96875 65.921875 18.8125 64.3125 
Q 13.671875 62.703125 7.8125 59.421875 
L 7.8125 69.390625 
Q 13.765625 71.78125 18.9375 73 
Q 24.125 74.21875 28.421875 74.21875 
Q 39.75 74.21875 46.484375 68.546875 
Q 53.21875 62.890625 53.21875 53.421875 
Q 53.21875 48.921875 51.53125 44.890625 
Q 49.859375 40.875 45.40625 35.40625 
Q 44.1875 33.984375 37.640625 27.21875 
Q 31.109375 20.453125 19.1875 8.296875 
z
" id="DejaVuSans-50"/>
      </defs>
      <g transform="translate(108.947704 303.028562)scale(0.1 -0.1)">
       <use xlink:href="#DejaVuSans-50"/>
       <use x="63.623047" xlink:href="#DejaVuSans-48"/>
       <use x="127.246094" xlink:href="#DejaVuSans-48"/>
      </g>
     </g>
    </g>
    <g id="xtick_3">
     <g id="line2d_5">
      <path clip-path="url(#p503fa791b9)" d="M 167.422057 288.430125 
L 167.422057 22.318125 
" style="fill:none;stroke:#b0b0b0;stroke-dasharray:2.96,1.28;stroke-dashoffset:0;stroke-width:0.8;"/>
     </g>
     <g id="line2d_6">
      <g>
       <use style="stroke:#000000;stroke-width:0.8;" x="167.422057" xlink:href="#m6ef6c906f7" y="288.430125"/>
      </g>
     </g>
     <g id="text_3">
      <!-- 400 -->
      <defs>
       <path d="M 37.796875 64.3125 
L 12.890625 25.390625 
L 37.796875 25.390625 
z
M 35.203125 72.90625 
L 47.609375 72.90625 
L 47.609375 25.390625 
L 58.015625 25.390625 
L 58.015625 17.1875 
L 47.609375 17.1875 
L 47.609375 0 
L 37.796875 0 
L 37.796875 17.1875 
L 4.890625 17.1875 
L 4.890625 26.703125 
z
" id="DejaVuSans-52"/>
      </defs>
      <g transform="translate(157.878307 303.028562)scale(0.1 -0.1)">
       <use xlink:href="#DejaVuSans-52"/>
       <use x="63.623047" xlink:href="#DejaVuSans-48"/>
       <use x="127.246094" xlink:href="#DejaVuSans-48"/>
      </g>
     </g>
    </g>
    <g id="xtick_4">
     <g id="line2d_7">
      <path clip-path="url(#p503fa791b9)" d="M 216.352659 288.430125 
L 216.352659 22.318125 
" style="fill:none;stroke:#b0b0b0;stroke-dasharray:2.96,1.28;stroke-dashoffset:0;stroke-width:0.8;"/>
     </g>
     <g id="line2d_8">
      <g>
       <use style="stroke:#000000;stroke-width:0.8;" x="216.352659" xlink:href="#m6ef6c906f7" y="288.430125"/>
      </g>
     </g>
     <g id="text_4">
      <!-- 600 -->
      <defs>
       <path d="M 33.015625 40.375 
Q 26.375 40.375 22.484375 35.828125 
Q 18.609375 31.296875 18.609375 23.390625 
Q 18.609375 15.53125 22.484375 10.953125 
Q 26.375 6.390625 33.015625 6.390625 
Q 39.65625 6.390625 43.53125 10.953125 
Q 47.40625 15.53125 47.40625 23.390625 
Q 47.40625 31.296875 43.53125 35.828125 
Q 39.65625 40.375 33.015625 40.375 
z
M 52.59375 71.296875 
L 52.59375 62.3125 
Q 48.875 64.0625 45.09375 64.984375 
Q 41.3125 65.921875 37.59375 65.921875 
Q 27.828125 65.921875 22.671875 59.328125 
Q 17.53125 52.734375 16.796875 39.40625 
Q 19.671875 43.65625 24.015625 45.921875 
Q 28.375 48.1875 33.59375 48.1875 
Q 44.578125 48.1875 50.953125 41.515625 
Q 57.328125 34.859375 57.328125 23.390625 
Q 57.328125 12.15625 50.6875 5.359375 
Q 44.046875 -1.421875 33.015625 -1.421875 
Q 20.359375 -1.421875 13.671875 8.265625 
Q 6.984375 17.96875 6.984375 36.375 
Q 6.984375 53.65625 15.1875 63.9375 
Q 23.390625 74.21875 37.203125 74.21875 
Q 40.921875 74.21875 44.703125 73.484375 
Q 48.484375 72.75 52.59375 71.296875 
z
" id="DejaVuSans-54"/>
      </defs>
      <g transform="translate(206.808909 303.028562)scale(0.1 -0.1)">
       <use xlink:href="#DejaVuSans-54"/>
       <use x="63.623047" xlink:href="#DejaVuSans-48"/>
       <use x="127.246094" xlink:href="#DejaVuSans-48"/>
      </g>
     </g>
    </g>
    <g id="xtick_5">
     <g id="line2d_9">
      <path clip-path="url(#p503fa791b9)" d="M 265.283261 288.430125 
L 265.283261 22.318125 
" style="fill:none;stroke:#b0b0b0;stroke-dasharray:2.96,1.28;stroke-dashoffset:0;stroke-width:0.8;"/>
     </g>
     <g id="line2d_10">
      <g>
       <use style="stroke:#000000;stroke-width:0.8;" x="265.283261" xlink:href="#m6ef6c906f7" y="288.430125"/>
      </g>
     </g>
     <g id="text_5">
      <!-- 800 -->
      <defs>
       <path d="M 31.78125 34.625 
Q 24.75 34.625 20.71875 30.859375 
Q 16.703125 27.09375 16.703125 20.515625 
Q 16.703125 13.921875 20.71875 10.15625 
Q 24.75 6.390625 31.78125 6.390625 
Q 38.8125 6.390625 42.859375 10.171875 
Q 46.921875 13.96875 46.921875 20.515625 
Q 46.921875 27.09375 42.890625 30.859375 
Q 38.875 34.625 31.78125 34.625 
z
M 21.921875 38.8125 
Q 15.578125 40.375 12.03125 44.71875 
Q 8.5 49.078125 8.5 55.328125 
Q 8.5 64.0625 14.71875 69.140625 
Q 20.953125 74.21875 31.78125 74.21875 
Q 42.671875 74.21875 48.875 69.140625 
Q 55.078125 64.0625 55.078125 55.328125 
Q 55.078125 49.078125 51.53125 44.71875 
Q 48 40.375 41.703125 38.8125 
Q 48.828125 37.15625 52.796875 32.3125 
Q 56.78125 27.484375 56.78125 20.515625 
Q 56.78125 9.90625 50.3125 4.234375 
Q 43.84375 -1.421875 31.78125 -1.421875 
Q 19.734375 -1.421875 13.25 4.234375 
Q 6.78125 9.90625 6.78125 20.515625 
Q 6.78125 27.484375 10.78125 32.3125 
Q 14.796875 37.15625 21.921875 38.8125 
z
M 18.3125 54.390625 
Q 18.3125 48.734375 21.84375 45.5625 
Q 25.390625 42.390625 31.78125 42.390625 
Q 38.140625 42.390625 41.71875 45.5625 
Q 45.3125 48.734375 45.3125 54.390625 
Q 45.3125 60.0625 41.71875 63.234375 
Q 38.140625 66.40625 31.78125 66.40625 
Q 25.390625 66.40625 21.84375 63.234375 
Q 18.3125 60.0625 18.3125 54.390625 
z
" id="DejaVuSans-56"/>
      </defs>
      <g transform="translate(255.739511 303.028562)scale(0.1 -0.1)">
       <use xlink:href="#DejaVuSans-56"/>
       <use x="63.623047" xlink:href="#DejaVuSans-48"/>
       <use x="127.246094" xlink:href="#DejaVuSans-48"/>
      </g>
     </g>
    </g>
    <g id="xtick_6">
     <g id="line2d_11">
      <path clip-path="url(#p503fa791b9)" d="M 314.213863 288.430125 
L 314.213863 22.318125 
" style="fill:none;stroke:#b0b0b0;stroke-dasharray:2.96,1.28;stroke-dashoffset:0;stroke-width:0.8;"/>
     </g>
     <g id="line2d_12">
      <g>
       <use style="stroke:#000000;stroke-width:0.8;" x="314.213863" xlink:href="#m6ef6c906f7" y="288.430125"/>
      </g>
     </g>
     <g id="text_6">
      <!-- 1000 -->
      <defs>
       <path d="M 12.40625 8.296875 
L 28.515625 8.296875 
L 28.515625 63.921875 
L 10.984375 60.40625 
L 10.984375 69.390625 
L 28.421875 72.90625 
L 38.28125 72.90625 
L 38.28125 8.296875 
L 54.390625 8.296875 
L 54.390625 0 
L 12.40625 0 
z
" id="DejaVuSans-49"/>
      </defs>
      <g transform="translate(301.488863 303.028562)scale(0.1 -0.1)">
       <use xlink:href="#DejaVuSans-49"/>
       <use x="63.623047" xlink:href="#DejaVuSans-48"/>
       <use x="127.246094" xlink:href="#DejaVuSans-48"/>
       <use x="190.869141" xlink:href="#DejaVuSans-48"/>
      </g>
     </g>
    </g>
    <g id="xtick_7">
     <g id="line2d_13">
      <path clip-path="url(#p503fa791b9)" d="M 363.144465 288.430125 
L 363.144465 22.318125 
" style="fill:none;stroke:#b0b0b0;stroke-dasharray:2.96,1.28;stroke-dashoffset:0;stroke-width:0.8;"/>
     </g>
     <g id="line2d_14">
      <g>
       <use style="stroke:#000000;stroke-width:0.8;" x="363.144465" xlink:href="#m6ef6c906f7" y="288.430125"/>
      </g>
     </g>
     <g id="text_7">
      <!-- 1200 -->
      <g transform="translate(350.419465 303.028562)scale(0.1 -0.1)">
       <use xlink:href="#DejaVuSans-49"/>
       <use x="63.623047" xlink:href="#DejaVuSans-50"/>
       <use x="127.246094" xlink:href="#DejaVuSans-48"/>
       <use x="190.869141" xlink:href="#DejaVuSans-48"/>
      </g>
     </g>
    </g>
    <g id="text_8">
     <!-- Day -->
     <defs>
      <path d="M 19.671875 64.796875 
L 19.671875 8.109375 
L 31.59375 8.109375 
Q 46.6875 8.109375 53.6875 14.9375 
Q 60.6875 21.78125 60.6875 36.53125 
Q 60.6875 51.171875 53.6875 57.984375 
Q 46.6875 64.796875 31.59375 64.796875 
z
M 9.8125 72.90625 
L 30.078125 72.90625 
Q 51.265625 72.90625 61.171875 64.09375 
Q 71.09375 55.28125 71.09375 36.53125 
Q 71.09375 17.671875 61.125 8.828125 
Q 51.171875 0 30.078125 0 
L 9.8125 0 
z
" id="DejaVuSans-68"/>
      <path d="M 34.28125 27.484375 
Q 23.390625 27.484375 19.1875 25 
Q 14.984375 22.515625 14.984375 16.5 
Q 14.984375 11.71875 18.140625 8.90625 
Q 21.296875 6.109375 26.703125 6.109375 
Q 34.1875 6.109375 38.703125 11.40625 
Q 43.21875 16.703125 43.21875 25.484375 
L 43.21875 27.484375 
z
M 52.203125 31.203125 
L 52.203125 0 
L 43.21875 0 
L 43.21875 8.296875 
Q 40.140625 3.328125 35.546875 0.953125 
Q 30.953125 -1.421875 24.3125 -1.421875 
Q 15.921875 -1.421875 10.953125 3.296875 
Q 6 8.015625 6 15.921875 
Q 6 25.140625 12.171875 29.828125 
Q 18.359375 34.515625 30.609375 34.515625 
L 43.21875 34.515625 
L 43.21875 35.40625 
Q 43.21875 41.609375 39.140625 45 
Q 35.0625 48.390625 27.6875 48.390625 
Q 23 48.390625 18.546875 47.265625 
Q 14.109375 46.140625 10.015625 43.890625 
L 10.015625 52.203125 
Q 14.9375 54.109375 19.578125 55.046875 
Q 24.21875 56 28.609375 56 
Q 40.484375 56 46.34375 49.84375 
Q 52.203125 43.703125 52.203125 31.203125 
z
" id="DejaVuSans-97"/>
      <path d="M 32.171875 -5.078125 
Q 28.375 -14.84375 24.75 -17.8125 
Q 21.140625 -20.796875 15.09375 -20.796875 
L 7.90625 -20.796875 
L 7.90625 -13.28125 
L 13.1875 -13.28125 
Q 16.890625 -13.28125 18.9375 -11.515625 
Q 21 -9.765625 23.484375 -3.21875 
L 25.09375 0.875 
L 2.984375 54.6875 
L 12.5 54.6875 
L 29.59375 11.921875 
L 46.6875 54.6875 
L 56.203125 54.6875 
z
" id="DejaVuSans-121"/>
     </defs>
     <g transform="translate(222.014688 316.706687)scale(0.1 -0.1)">
      <use xlink:href="#DejaVuSans-68"/>
      <use x="77.001953" xlink:href="#DejaVuSans-97"/>
      <use x="138.28125" xlink:href="#DejaVuSans-121"/>
     </g>
    </g>
   </g>
   <g id="matplotlib.axis_2">
    <g id="ytick_1">
     <g id="line2d_15">
      <path clip-path="url(#p503fa791b9)" d="M 53.328125 281.173912 
L 410.448125 281.173912 
" style="fill:none;stroke:#b0b0b0;stroke-dasharray:2.96,1.28;stroke-dashoffset:0;stroke-width:0.8;"/>
     </g>
     <g id="line2d_16">
      <defs>
       <path d="M 0 0 
L -3.5 0 
" id="ma8971f51a9" style="stroke:#000000;stroke-width:0.8;"/>
      </defs>
      <g>
       <use style="stroke:#000000;stroke-width:0.8;" x="53.328125" xlink:href="#ma8971f51a9" y="281.173912"/>
      </g>
     </g>
     <g id="text_9">
      <!-- 200 -->
      <g transform="translate(27.240625 284.97313)scale(0.1 -0.1)">
       <use xlink:href="#DejaVuSans-50"/>
       <use x="63.623047" xlink:href="#DejaVuSans-48"/>
       <use x="127.246094" xlink:href="#DejaVuSans-48"/>
      </g>
     </g>
    </g>
    <g id="ytick_2">
     <g id="line2d_17">
      <path clip-path="url(#p503fa791b9)" d="M 53.328125 227.036179 
L 410.448125 227.036179 
" style="fill:none;stroke:#b0b0b0;stroke-dasharray:2.96,1.28;stroke-dashoffset:0;stroke-width:0.8;"/>
     </g>
     <g id="line2d_18">
      <g>
       <use style="stroke:#000000;stroke-width:0.8;" x="53.328125" xlink:href="#ma8971f51a9" y="227.036179"/>
      </g>
     </g>
     <g id="text_10">
      <!-- 400 -->
      <g transform="translate(27.240625 230.835397)scale(0.1 -0.1)">
       <use xlink:href="#DejaVuSans-52"/>
       <use x="63.623047" xlink:href="#DejaVuSans-48"/>
       <use x="127.246094" xlink:href="#DejaVuSans-48"/>
      </g>
     </g>
    </g>
    <g id="ytick_3">
     <g id="line2d_19">
      <path clip-path="url(#p503fa791b9)" d="M 53.328125 172.898446 
L 410.448125 172.898446 
" style="fill:none;stroke:#b0b0b0;stroke-dasharray:2.96,1.28;stroke-dashoffset:0;stroke-width:0.8;"/>
     </g>
     <g id="line2d_20">
      <g>
       <use style="stroke:#000000;stroke-width:0.8;" x="53.328125" xlink:href="#ma8971f51a9" y="172.898446"/>
      </g>
     </g>
     <g id="text_11">
      <!-- 600 -->
      <g transform="translate(27.240625 176.697665)scale(0.1 -0.1)">
       <use xlink:href="#DejaVuSans-54"/>
       <use x="63.623047" xlink:href="#DejaVuSans-48"/>
       <use x="127.246094" xlink:href="#DejaVuSans-48"/>
      </g>
     </g>
    </g>
    <g id="ytick_4">
     <g id="line2d_21">
      <path clip-path="url(#p503fa791b9)" d="M 53.328125 118.760713 
L 410.448125 118.760713 
" style="fill:none;stroke:#b0b0b0;stroke-dasharray:2.96,1.28;stroke-dashoffset:0;stroke-width:0.8;"/>
     </g>
     <g id="line2d_22">
      <g>
       <use style="stroke:#000000;stroke-width:0.8;" x="53.328125" xlink:href="#ma8971f51a9" y="118.760713"/>
      </g>
     </g>
     <g id="text_12">
      <!-- 800 -->
      <g transform="translate(27.240625 122.559932)scale(0.1 -0.1)">
       <use xlink:href="#DejaVuSans-56"/>
       <use x="63.623047" xlink:href="#DejaVuSans-48"/>
       <use x="127.246094" xlink:href="#DejaVuSans-48"/>
      </g>
     </g>
    </g>
    <g id="ytick_5">
     <g id="line2d_23">
      <path clip-path="url(#p503fa791b9)" d="M 53.328125 64.62298 
L 410.448125 64.62298 
" style="fill:none;stroke:#b0b0b0;stroke-dasharray:2.96,1.28;stroke-dashoffset:0;stroke-width:0.8;"/>
     </g>
     <g id="line2d_24">
      <g>
       <use style="stroke:#000000;stroke-width:0.8;" x="53.328125" xlink:href="#ma8971f51a9" y="64.62298"/>
      </g>
     </g>
     <g id="text_13">
      <!-- 1000 -->
      <g transform="translate(20.878125 68.422199)scale(0.1 -0.1)">
       <use xlink:href="#DejaVuSans-49"/>
       <use x="63.623047" xlink:href="#DejaVuSans-48"/>
       <use x="127.246094" xlink:href="#DejaVuSans-48"/>
       <use x="190.869141" xlink:href="#DejaVuSans-48"/>
      </g>
     </g>
    </g>
    <g id="text_14">
     <!-- Price $ -->
     <defs>
      <path d="M 19.671875 64.796875 
L 19.671875 37.40625 
L 32.078125 37.40625 
Q 38.96875 37.40625 42.71875 40.96875 
Q 46.484375 44.53125 46.484375 51.125 
Q 46.484375 57.671875 42.71875 61.234375 
Q 38.96875 64.796875 32.078125 64.796875 
z
M 9.8125 72.90625 
L 32.078125 72.90625 
Q 44.34375 72.90625 50.609375 67.359375 
Q 56.890625 61.8125 56.890625 51.125 
Q 56.890625 40.328125 50.609375 34.8125 
Q 44.34375 29.296875 32.078125 29.296875 
L 19.671875 29.296875 
L 19.671875 0 
L 9.8125 0 
z
" id="DejaVuSans-80"/>
      <path d="M 41.109375 46.296875 
Q 39.59375 47.171875 37.8125 47.578125 
Q 36.03125 48 33.890625 48 
Q 26.265625 48 22.1875 43.046875 
Q 18.109375 38.09375 18.109375 28.8125 
L 18.109375 0 
L 9.078125 0 
L 9.078125 54.6875 
L 18.109375 54.6875 
L 18.109375 46.1875 
Q 20.953125 51.171875 25.484375 53.578125 
Q 30.03125 56 36.53125 56 
Q 37.453125 56 38.578125 55.875 
Q 39.703125 55.765625 41.0625 55.515625 
z
" id="DejaVuSans-114"/>
      <path d="M 9.421875 54.6875 
L 18.40625 54.6875 
L 18.40625 0 
L 9.421875 0 
z
M 9.421875 75.984375 
L 18.40625 75.984375 
L 18.40625 64.59375 
L 9.421875 64.59375 
z
" id="DejaVuSans-105"/>
      <path d="M 48.78125 52.59375 
L 48.78125 44.1875 
Q 44.96875 46.296875 41.140625 47.34375 
Q 37.3125 48.390625 33.40625 48.390625 
Q 24.65625 48.390625 19.8125 42.84375 
Q 14.984375 37.3125 14.984375 27.296875 
Q 14.984375 17.28125 19.8125 11.734375 
Q 24.65625 6.203125 33.40625 6.203125 
Q 37.3125 6.203125 41.140625 7.25 
Q 44.96875 8.296875 48.78125 10.40625 
L 48.78125 2.09375 
Q 45.015625 0.34375 40.984375 -0.53125 
Q 36.96875 -1.421875 32.421875 -1.421875 
Q 20.0625 -1.421875 12.78125 6.34375 
Q 5.515625 14.109375 5.515625 27.296875 
Q 5.515625 40.671875 12.859375 48.328125 
Q 20.21875 56 33.015625 56 
Q 37.15625 56 41.109375 55.140625 
Q 45.0625 54.296875 48.78125 52.59375 
z
" id="DejaVuSans-99"/>
      <path d="M 56.203125 29.59375 
L 56.203125 25.203125 
L 14.890625 25.203125 
Q 15.484375 15.921875 20.484375 11.0625 
Q 25.484375 6.203125 34.421875 6.203125 
Q 39.59375 6.203125 44.453125 7.46875 
Q 49.3125 8.734375 54.109375 11.28125 
L 54.109375 2.78125 
Q 49.265625 0.734375 44.1875 -0.34375 
Q 39.109375 -1.421875 33.890625 -1.421875 
Q 20.796875 -1.421875 13.15625 6.1875 
Q 5.515625 13.8125 5.515625 26.8125 
Q 5.515625 40.234375 12.765625 48.109375 
Q 20.015625 56 32.328125 56 
Q 43.359375 56 49.78125 48.890625 
Q 56.203125 41.796875 56.203125 29.59375 
z
M 47.21875 32.234375 
Q 47.125 39.59375 43.09375 43.984375 
Q 39.0625 48.390625 32.421875 48.390625 
Q 24.90625 48.390625 20.390625 44.140625 
Q 15.875 39.890625 15.1875 32.171875 
z
" id="DejaVuSans-101"/>
      <path id="DejaVuSans-32"/>
      <path d="M 33.796875 -14.703125 
L 28.90625 -14.703125 
L 28.859375 0 
Q 23.734375 0.09375 18.609375 1.1875 
Q 13.484375 2.296875 8.296875 4.5 
L 8.296875 13.28125 
Q 13.28125 10.15625 18.375 8.5625 
Q 23.484375 6.984375 28.90625 6.9375 
L 28.90625 29.203125 
Q 18.109375 30.953125 13.203125 35.15625 
Q 8.296875 39.359375 8.296875 46.6875 
Q 8.296875 54.640625 13.625 59.21875 
Q 18.953125 63.8125 28.90625 64.5 
L 28.90625 75.984375 
L 33.796875 75.984375 
L 33.796875 64.65625 
Q 38.328125 64.453125 42.578125 63.6875 
Q 46.828125 62.9375 50.875 61.625 
L 50.875 53.078125 
Q 46.828125 55.125 42.546875 56.25 
Q 38.28125 57.375 33.796875 57.5625 
L 33.796875 36.71875 
Q 44.875 35.015625 50.09375 30.609375 
Q 55.328125 26.21875 55.328125 18.609375 
Q 55.328125 10.359375 49.78125 5.59375 
Q 44.234375 0.828125 33.796875 0.09375 
z
M 28.90625 37.59375 
L 28.90625 57.625 
Q 23.25 56.984375 20.265625 54.390625 
Q 17.28125 51.8125 17.28125 47.515625 
Q 17.28125 43.3125 20.03125 40.96875 
Q 22.796875 38.625 28.90625 37.59375 
z
M 33.796875 28.21875 
L 33.796875 7.078125 
Q 39.984375 7.90625 43.140625 10.59375 
Q 46.296875 13.28125 46.296875 17.671875 
Q 46.296875 21.96875 43.28125 24.5 
Q 40.28125 27.046875 33.796875 28.21875 
z
" id="DejaVuSans-36"/>
     </defs>
     <g transform="translate(14.798438 172.342094)rotate(-90)scale(0.1 -0.1)">
      <use xlink:href="#DejaVuSans-80"/>
      <use x="58.552734" xlink:href="#DejaVuSans-114"/>
      <use x="99.666016" xlink:href="#DejaVuSans-105"/>
      <use x="127.449219" xlink:href="#DejaVuSans-99"/>
      <use x="182.429688" xlink:href="#DejaVuSans-101"/>
      <use x="243.953125" xlink:href="#DejaVuSans-32"/>
      <use x="275.740234" xlink:href="#DejaVuSans-36"/>
     </g>
    </g>
   </g>
   <g id="line2d_25">
    <path clip-path="url(#p503fa791b9)" d="M 69.560852 269.198078 
L 69.805505 269.338738 
L 70.539464 272.821285 
L 70.784117 271.728498 
L 71.02877 273.753017 
L 71.273423 273.231738 
L 71.762729 275.617396 
L 72.007382 275.654975 
L 72.252035 276.334125 
L 72.496688 273.743087 
L 72.985994 271.306608 
L 73.230647 271.367007 
L 73.4753 273.033434 
L 73.719953 273.717074 
L 73.964606 271.576777 
L 74.209259 271.835322 
L 74.453912 270.207547 
L 74.698566 270.403335 
L 75.187872 269.000443 
L 75.432525 269.216652 
L 75.677178 268.601589 
L 76.166484 270.359264 
L 76.65579 266.925914 
L 76.900443 266.783544 
L 77.145096 267.44787 
L 77.389749 268.951329 
L 77.879055 265.340896 
L 78.123708 265.663826 
L 78.368361 265.171865 
L 78.613014 264.20752 
L 78.857667 264.902539 
L 79.10232 266.746742 
L 79.591626 268.112407 
L 79.836279 269.141087 
L 80.080932 267.211802 
L 80.325585 267.934322 
L 80.570238 269.25763 
L 80.814891 269.901135 
L 81.059544 267.821992 
L 81.304197 266.706359 
L 81.54885 267.417747 
L 81.793503 266.680111 
L 82.282809 268.283392 
L 82.527462 269.935851 
L 82.772115 270.582895 
L 83.016768 269.283758 
L 83.261421 270.573895 
L 83.506074 269.607568 
L 83.750727 270.164356 
L 83.99538 271.913196 
L 84.240033 272.300205 
L 84.484686 271.214439 
L 84.973992 274.281272 
L 85.218645 271.983838 
L 85.707951 275.456584 
L 85.952604 273.627329 
L 86.197257 273.003671 
L 86.44191 271.944752 
L 86.686563 272.839182 
L 86.931216 274.452195 
L 87.175869 275.137661 
L 87.665175 272.288503 
L 88.154481 274.773213 
L 88.643787 273.554593 
L 89.133093 272.48499 
L 89.622399 271.61825 
L 89.867052 271.830853 
L 90.111705 270.692359 
L 90.601011 270.361449 
L 90.845664 270.764178 
L 91.33497 267.724085 
L 91.579623 269.327854 
L 91.824276 268.110495 
L 92.068929 268.810016 
L 92.313582 268.481589 
L 92.558235 267.628322 
L 92.802888 269.632424 
L 93.047541 269.261909 
L 93.292194 269.194393 
L 93.536847 266.855635 
L 93.7815 267.528607 
L 94.026153 267.503535 
L 94.270806 267.873167 
L 94.515459 266.600663 
L 94.760112 268.847429 
L 95.249418 269.864556 
L 95.983377 266.195262 
L 96.22803 266.098528 
L 96.472683 264.25772 
L 96.717336 264.932691 
L 96.961989 264.731525 
L 97.206643 265.691194 
L 97.695949 262.83772 
L 97.940602 263.252444 
L 98.185255 264.861475 
L 98.429908 263.586839 
L 98.674561 263.185589 
L 99.163867 265.35812 
L 99.653173 261.047134 
L 100.142479 265.471986 
L 100.387132 262.183493 
L 100.631785 265.175714 
L 100.876438 265.235605 
L 101.121091 266.885919 
L 101.365744 264.342269 
L 101.610397 266.18653 
L 101.85505 267.08699 
L 102.099703 265.462016 
L 102.344356 267.119918 
L 102.833662 263.92639 
L 103.322968 266.592604 
L 103.567621 264.849786 
L 103.812274 265.325168 
L 104.056927 266.275907 
L 104.30158 266.450912 
L 104.790886 267.808217 
L 105.035539 265.286698 
L 105.524845 264.969757 
L 106.014151 263.156106 
L 106.258804 263.874884 
L 106.503457 262.982176 
L 106.74811 262.647004 
L 106.992763 263.107665 
L 107.482069 261.776187 
L 107.726722 264.66562 
L 107.971375 265.717348 
L 108.216028 267.291857 
L 108.460681 267.621234 
L 108.705334 265.934143 
L 108.949987 267.700963 
L 109.19464 266.329136 
L 109.439293 267.297177 
L 109.928599 264.925719 
L 110.173252 264.58578 
L 110.417905 265.946782 
L 110.662558 265.269036 
L 110.907211 266.661644 
L 111.151864 266.185279 
L 111.396517 267.696317 
L 111.64117 266.821258 
L 111.885823 266.448632 
L 112.619782 263.653057 
L 112.864435 264.936408 
L 113.109088 263.487272 
L 113.353741 264.365094 
L 113.598394 266.099449 
L 113.843047 265.550472 
L 114.332353 263.693899 
L 114.577006 264.139534 
L 114.821659 262.783819 
L 115.066312 266.335038 
L 115.310965 268.214093 
L 115.555618 266.933968 
L 115.800271 268.902875 
L 116.289577 266.069425 
L 116.53423 267.524199 
L 117.023536 266.284255 
L 117.268189 266.249651 
L 117.512842 265.349859 
L 118.002148 264.552167 
L 118.491454 266.090238 
L 118.736107 264.323666 
L 118.98076 264.955185 
L 119.225413 263.595141 
L 119.71472 266.713736 
L 119.959373 266.584455 
L 120.204026 264.71483 
L 120.448679 265.50175 
L 120.937985 263.681912 
L 121.427291 266.902172 
L 121.671944 264.475838 
L 121.916597 264.312944 
L 122.16125 262.498434 
L 122.405903 261.65178 
L 122.650556 263.201161 
L 122.895209 263.968586 
L 123.139862 262.505968 
L 123.384515 263.369176 
L 123.873821 260.826918 
L 124.60778 263.775788 
L 124.852433 264.438359 
L 125.341739 260.908708 
L 125.586392 262.163882 
L 126.320351 260.255208 
L 126.565004 260.024204 
L 127.298963 258.352382 
L 127.543616 258.230528 
L 128.032922 254.955639 
L 128.277575 255.215506 
L 128.766881 253.511865 
L 129.011534 254.567978 
L 129.256187 253.987032 
L 129.50084 254.52874 
L 129.745493 255.653583 
L 129.990146 255.874641 
L 130.479452 252.761473 
L 130.724105 254.562947 
L 131.213411 255.919687 
L 131.458064 253.874165 
L 131.94737 256.104397 
L 132.681329 257.702483 
L 132.925982 256.057352 
L 133.904594 260.167511 
L 134.149247 260.805754 
L 134.638553 258.405152 
L 134.883206 259.721695 
L 135.127859 258.389448 
L 135.372512 257.84703 
L 135.861818 261.080326 
L 136.106471 259.980132 
L 136.351124 259.593306 
L 136.595777 260.810273 
L 137.085083 257.762341 
L 137.329736 257.416686 
L 138.063695 255.540369 
L 138.797654 257.235238 
L 139.042307 257.314797 
L 139.531613 252.807915 
L 140.020919 251.137631 
L 140.265572 252.355754 
L 140.510225 251.815253 
L 140.754878 252.434769 
L 140.999531 250.860821 
L 141.488837 252.775467 
L 141.73349 250.591388 
L 142.222797 252.223937 
L 142.46745 250.74807 
L 142.956756 254.568201 
L 143.201409 255.972671 
L 143.690715 252.723325 
L 144.180021 254.77263 
L 144.424674 253.051451 
L 144.669327 252.648978 
L 144.91398 249.084236 
L 145.158633 250.099476 
L 145.403286 247.733693 
L 145.647939 249.004594 
L 145.892592 247.502978 
L 146.137245 240.215581 
L 146.381898 241.482889 
L 146.626551 239.470097 
L 146.871204 240.254621 
L 147.115857 238.320719 
L 147.36051 239.771127 
L 147.605163 240.355254 
L 147.849816 239.316455 
L 148.094469 240.712763 
L 148.339122 243.692189 
L 148.583775 241.634763 
L 148.828428 240.603126 
L 149.073081 242.459386 
L 149.317734 240.960925 
L 149.562387 238.715848 
L 149.80704 237.554963 
L 150.296346 239.046146 
L 150.540999 239.56873 
L 150.785652 237.09364 
L 152.008917 231.253496 
L 152.25357 231.164073 
L 152.498223 232.662551 
L 152.742876 231.631096 
L 152.987529 232.552708 
L 153.232182 231.577359 
L 153.476835 232.511371 
L 153.721488 231.464526 
L 153.966141 233.174512 
L 154.210794 233.883706 
L 154.7001 230.946989 
L 154.944753 232.069825 
L 155.189406 230.115353 
L 155.434059 230.889577 
L 155.678712 228.661905 
L 155.923365 227.719583 
L 156.168018 228.834472 
L 156.412671 227.366783 
L 156.901977 230.259817 
L 157.14663 228.602138 
L 157.391283 229.973045 
L 157.635936 230.408321 
L 157.880589 231.115318 
L 158.125242 228.588293 
L 158.369895 227.771205 
L 159.103854 231.344802 
L 159.348507 228.737656 
L 159.837813 231.135202 
L 160.327119 226.843249 
L 160.816425 229.599105 
L 161.061078 232.105635 
L 161.305731 232.792493 
L 161.550384 230.18025 
L 161.795037 233.063099 
L 162.03969 228.705547 
L 162.284343 237.912687 
L 162.528996 241.478164 
L 162.773649 240.668898 
L 163.018302 242.806453 
L 163.507608 239.118676 
L 163.752261 239.892849 
L 163.996914 238.298861 
L 164.241567 241.330181 
L 164.48622 239.447512 
L 164.730874 239.402647 
L 165.22018 243.433883 
L 165.464833 242.01746 
L 165.709486 242.63838 
L 166.443445 239.126532 
L 166.688098 239.34683 
L 166.932751 238.796142 
L 167.177404 240.104036 
L 167.422057 238.821619 
L 167.66671 236.837193 
L 168.400669 237.895686 
L 168.645322 237.816391 
L 168.889975 236.790702 
L 169.134628 235.081608 
L 169.379281 234.730352 
L 169.623934 234.704355 
L 169.868587 234.044519 
L 170.847199 241.397613 
L 171.091852 239.859269 
L 171.581158 244.583822 
L 172.070464 246.104183 
L 172.315117 243.535821 
L 172.55977 244.312638 
L 172.804423 245.84539 
L 173.049076 248.853521 
L 173.293729 250.396929 
L 173.538382 248.008049 
L 173.783035 246.954009 
L 174.027688 250.099468 
L 174.272341 251.758253 
L 174.516994 250.114618 
L 174.761647 250.299171 
L 175.0063 248.66288 
L 175.250953 248.549666 
L 175.495606 247.458229 
L 175.984912 249.211708 
L 176.229565 246.450218 
L 176.474218 253.082627 
L 176.718871 255.50598 
L 177.45283 252.770197 
L 177.697483 252.099753 
L 177.942136 251.837276 
L 178.431442 256.598928 
L 178.676095 258.143302 
L 178.920748 257.050337 
L 179.165401 254.79092 
L 179.410054 253.860898 
L 179.654707 255.924288 
L 179.89936 256.61982 
L 180.144013 255.905503 
L 180.388666 256.699445 
L 180.877972 254.234508 
L 181.122625 254.709799 
L 181.367278 252.637818 
L 181.611931 253.44729 
L 181.856584 253.502513 
L 182.101237 252.206325 
L 182.34589 252.667664 
L 182.590543 254.057727 
L 183.079849 254.986799 
L 183.324502 250.915342 
L 183.569155 248.828657 
L 183.813808 249.386737 
L 184.303114 246.034594 
L 184.547767 248.146276 
L 184.79242 247.990809 
L 185.037073 247.443294 
L 185.281726 248.479425 
L 185.526379 246.639464 
L 186.015685 249.649867 
L 186.260338 248.431884 
L 186.504991 249.422209 
L 186.749644 248.638742 
L 187.238951 250.373097 
L 187.728257 246.979295 
L 188.217563 245.327894 
L 188.706869 249.051012 
L 188.951522 247.075219 
L 189.196175 248.576323 
L 189.685481 242.355366 
L 189.930134 242.961392 
L 190.174787 241.475925 
L 190.41944 242.261689 
L 190.664093 240.381044 
L 190.908746 239.468288 
L 191.153399 239.042387 
L 191.398052 240.353924 
L 191.642705 239.672097 
L 191.887358 248.095473 
L 192.376664 250.531448 
L 192.621317 249.438177 
L 193.110623 253.575662 
L 193.355276 251.935191 
L 193.599929 253.003282 
L 193.844582 251.85022 
L 194.089235 253.015954 
L 194.578541 250.614476 
L 194.823194 250.198151 
L 195.3125 247.248001 
L 195.557153 247.025795 
L 196.291112 246.0026 
L 196.780418 247.570452 
L 197.025071 246.752083 
L 197.269724 244.752334 
L 197.514377 243.884904 
L 198.003683 246.237272 
L 198.248336 244.340105 
L 198.492989 245.566548 
L 198.737642 243.212825 
L 198.982295 242.906813 
L 199.226948 244.427 
L 199.471601 247.211943 
L 199.716254 246.329041 
L 199.960907 247.328725 
L 200.20556 247.13088 
L 200.450213 249.254995 
L 200.694866 247.927416 
L 200.939519 249.614635 
L 201.184172 248.782215 
L 201.428825 247.17301 
L 201.673478 249.415534 
L 201.918131 249.861103 
L 202.162784 248.222779 
L 202.407437 249.906083 
L 202.65209 249.044172 
L 202.896743 250.113428 
L 203.141396 249.586276 
L 203.386049 250.959776 
L 203.630702 250.443165 
L 203.875355 249.300759 
L 204.120008 250.054009 
L 204.364661 252.269256 
L 204.609314 249.787632 
L 205.343273 254.038265 
L 205.587926 252.502457 
L 206.077232 255.915309 
L 206.321885 253.9745 
L 206.566538 253.795473 
L 206.811191 251.561375 
L 207.055844 252.596993 
L 207.300497 252.124676 
L 207.54515 258.39153 
L 208.034456 256.715537 
L 208.279109 257.253949 
L 208.523762 255.934639 
L 208.768415 253.859932 
L 209.013068 253.470222 
L 209.257721 254.297438 
L 209.502375 256.355351 
L 209.991681 254.906306 
L 210.480987 252.54239 
L 210.72564 252.99313 
L 210.970293 251.521533 
L 211.214946 248.807881 
L 211.459599 250.196185 
L 211.948905 247.709935 
L 212.193558 247.172233 
L 212.682864 245.636128 
L 212.927517 246.159117 
L 213.17217 247.095813 
L 213.416823 245.193756 
L 213.661476 247.68991 
L 213.906129 247.152317 
L 214.150782 249.754044 
L 214.395435 249.320527 
L 214.884741 253.274326 
L 215.129394 251.861769 
L 215.374047 253.717591 
L 215.6187 252.493032 
L 215.863353 253.951205 
L 216.108006 254.664712 
L 216.352659 256.726359 
L 216.597312 254.846407 
L 216.841965 256.158638 
L 217.331271 253.2764 
L 217.820577 255.04754 
L 218.06523 253.170249 
L 218.309883 252.178602 
L 218.554536 252.847088 
L 218.799189 252.299408 
L 219.288495 255.101417 
L 219.533148 256.85179 
L 219.777801 255.353098 
L 220.022454 254.704083 
L 220.51176 257.867409 
L 220.756413 255.882092 
L 221.245719 259.24732 
L 221.490372 257.596349 
L 221.735025 258.335819 
L 222.468984 252.350715 
L 222.95829 254.072564 
L 223.202943 254.667033 
L 223.447596 252.62836 
L 223.692249 243.25764 
L 223.936902 240.401217 
L 224.181555 239.767682 
L 224.426208 238.283777 
L 224.670861 235.555718 
L 224.915514 234.655509 
L 225.160167 236.2976 
L 225.40482 235.231805 
L 226.138779 233.620411 
L 226.628085 236.666493 
L 226.872738 234.533903 
L 227.117391 233.41015 
L 227.606697 235.382448 
L 227.85135 233.206861 
L 228.340656 234.578486 
L 228.585309 232.352368 
L 229.074615 234.103872 
L 229.319268 231.94246 
L 230.053227 237.01157 
L 230.29788 238.694808 
L 230.542533 236.021443 
L 230.787186 237.195909 
L 231.031839 235.746095 
L 231.276492 237.367196 
L 231.521145 235.304723 
L 231.765798 236.515866 
L 232.010452 234.754606 
L 232.499758 236.725946 
L 232.744411 237.074566 
L 232.989064 238.092912 
L 233.47837 235.208815 
L 233.967676 237.369525 
L 234.456982 234.709931 
L 234.701635 235.880407 
L 235.190941 233.047907 
L 235.680247 234.620583 
L 235.9249 232.943838 
L 236.169553 233.906936 
L 236.414206 232.07132 
L 236.658859 234.848117 
L 236.903512 231.704245 
L 237.148165 230.8471 
L 237.392818 232.221591 
L 237.637471 230.493762 
L 237.882124 218.739796 
L 238.37143 221.915332 
L 238.616083 220.223181 
L 238.860736 222.548569 
L 239.105389 221.18019 
L 239.350042 220.616013 
L 239.839348 223.607177 
L 240.328654 219.422738 
L 241.062613 222.510751 
L 241.307266 220.262114 
L 241.551919 222.373102 
L 242.041225 224.214071 
L 242.530531 219.923018 
L 243.019837 222.650086 
L 243.26449 220.529606 
L 243.509143 222.184088 
L 243.998449 220.058577 
L 244.243102 219.820816 
L 244.487755 218.464068 
L 244.977061 222.13539 
L 245.221714 223.447951 
L 245.955673 219.156543 
L 246.444979 222.723251 
L 246.689632 221.10011 
L 246.934285 220.507756 
L 247.178938 218.232527 
L 247.423591 219.697483 
L 247.668244 218.631985 
L 247.912897 216.665394 
L 248.402203 219.052144 
L 248.646856 219.632049 
L 248.891509 221.442932 
L 249.380815 217.731851 
L 249.625468 217.511214 
L 249.870121 218.973154 
L 250.114774 218.758763 
L 250.359427 220.804012 
L 250.848733 216.96151 
L 251.338039 211.965929 
L 251.582692 213.233601 
L 252.071998 207.15881 
L 252.316651 205.140086 
L 252.561304 205.832569 
L 252.805957 204.70025 
L 253.05061 206.36619 
L 253.295263 193.902541 
L 253.539916 192.795351 
L 253.784569 194.280339 
L 254.273875 191.036552 
L 255.007835 194.40321 
L 255.252488 192.03622 
L 255.741794 196.360647 
L 256.2311 193.59995 
L 256.475753 195.694135 
L 256.965059 193.110384 
L 257.209712 192.189276 
L 257.699018 194.238407 
L 257.943671 197.745018 
L 258.432977 210.080055 
L 258.67763 208.213057 
L 259.166936 198.172885 
L 259.656242 199.584699 
L 259.900895 202.775666 
L 260.145548 199.114975 
L 260.634854 202.72022 
L 260.879507 197.814814 
L 261.12416 198.293161 
L 261.613466 194.148745 
L 261.858119 196.387924 
L 262.347425 194.022934 
L 262.592078 191.678893 
L 262.836731 190.850371 
L 263.081384 189.079793 
L 263.326037 191.975669 
L 263.57069 192.983267 
L 264.059996 195.727162 
L 264.304649 200.250772 
L 264.549302 202.296831 
L 265.038608 196.168634 
L 265.283261 194.122889 
L 265.527914 191.098789 
L 265.772567 192.462723 
L 266.01722 190.646264 
L 266.261873 193.271452 
L 266.751179 188.727504 
L 267.240485 191.08686 
L 267.729791 183.786379 
L 267.974444 182.137068 
L 268.46375 186.980931 
L 268.708403 184.411487 
L 268.953056 175.520313 
L 269.442362 171.651153 
L 269.931668 167.88831 
L 270.176321 168.497095 
L 270.420974 167.397885 
L 270.665627 168.586443 
L 271.154933 161.166511 
L 271.399586 159.644052 
L 271.644239 160.752729 
L 271.888892 159.465537 
L 272.133545 155.953606 
L 272.378198 157.91866 
L 272.622851 162.728539 
L 272.867504 161.599557 
L 273.112157 163.31644 
L 273.35681 159.034226 
L 273.601463 159.806129 
L 274.090769 153.754624 
L 274.335422 156.369238 
L 274.580075 154.408794 
L 274.824728 155.532192 
L 275.069381 157.803108 
L 275.314034 153.917659 
L 275.558687 155.253705 
L 275.80334 157.820225 
L 276.047993 155.328828 
L 276.292646 156.937298 
L 276.537299 154.97768 
L 276.781952 158.146013 
L 277.026606 159.307129 
L 277.271259 164.145606 
L 277.515912 160.062328 
L 277.760565 158.198369 
L 278.005218 154.575926 
L 278.494524 158.252163 
L 278.739177 156.615359 
L 278.98383 158.088947 
L 279.228483 156.908369 
L 279.473136 158.215023 
L 279.962442 150.681753 
L 280.207095 152.202278 
L 280.451748 155.0626 
L 280.696401 163.781241 
L 281.185707 167.540433 
L 281.43036 172.890829 
L 281.675013 173.836174 
L 281.919666 170.286013 
L 282.164319 168.76747 
L 282.408972 176.188377 
L 282.653625 174.728634 
L 282.898278 181.205469 
L 283.142931 179.889793 
L 283.387584 182.942641 
L 283.632237 180.922108 
L 283.87689 176.090768 
L 284.366196 173.4804 
L 284.610849 177.551733 
L 284.855502 167.890986 
L 285.100155 179.14502 
L 285.344808 182.063977 
L 285.834114 192.282061 
L 286.078767 190.985468 
L 286.568073 203.830929 
L 286.812726 206.270332 
L 288.035991 192.913265 
L 288.280644 194.749055 
L 288.525297 192.589295 
L 288.76995 187.431605 
L 289.014603 189.198219 
L 289.748562 186.10225 
L 289.993215 186.95899 
L 290.237868 187.069437 
L 290.482521 182.625609 
L 290.727174 181.150452 
L 291.21648 183.056375 
L 291.461133 185.591884 
L 291.950439 187.752833 
L 292.195092 188.042604 
L 292.439745 184.181094 
L 292.929051 180.703049 
L 293.173704 182.204988 
L 293.66301 188.413546 
L 294.152316 185.699455 
L 294.641622 180.574759 
L 294.886275 181.6307 
L 295.375581 175.806284 
L 295.620234 177.043862 
L 295.864887 175.507294 
L 296.354193 179.158997 
L 296.598846 175.297371 
L 296.843499 177.90726 
L 297.332805 174.792374 
L 297.577458 173.44706 
L 298.066764 169.533011 
L 298.311417 168.152671 
L 298.55607 165.801724 
L 298.800723 167.834169 
L 299.045376 166.272059 
L 299.29003 167.114706 
L 299.534683 170.072307 
L 299.779336 167.961599 
L 300.513295 174.514862 
L 300.757948 160.998256 
L 301.002601 155.184744 
L 301.247254 157.142594 
L 301.491907 157.843751 
L 301.73656 159.987766 
L 301.981213 155.496737 
L 302.225866 153.084594 
L 302.470519 147.718122 
L 302.959825 142.98525 
L 303.204478 145.33357 
L 303.449131 144.550681 
L 303.693784 148.217402 
L 303.938437 147.638323 
L 304.18309 147.640619 
L 304.427743 146.121911 
L 304.672396 148.486141 
L 305.406355 143.526974 
L 305.651008 144.759183 
L 305.895661 142.198099 
L 306.140314 143.52101 
L 306.384967 141.087588 
L 306.62962 142.55232 
L 306.874273 140.611338 
L 307.118926 141.880208 
L 307.363579 140.067318 
L 307.608232 139.317951 
L 308.097538 144.530492 
L 308.342191 142.816318 
L 308.586844 144.612174 
L 308.831497 143.29716 
L 309.07615 146.357012 
L 309.320803 143.617198 
L 309.565456 142.502309 
L 309.810109 144.632215 
L 310.054762 142.040797 
L 310.299415 148.034592 
L 310.544068 150.856617 
L 311.033374 143.695031 
L 311.278027 142.732669 
L 311.52268 140.278925 
L 311.767333 139.588177 
L 312.011986 137.723723 
L 312.256639 138.63918 
L 312.745945 133.307833 
L 313.235251 137.202865 
L 313.724557 139.311524 
L 314.213863 135.563021 
L 314.458516 134.110564 
L 314.703169 135.717646 
L 314.947822 134.832654 
L 315.437128 139.178955 
L 315.681781 137.725342 
L 316.171087 131.424643 
L 316.41574 129.282446 
L 316.905046 133.758838 
L 317.394352 129.326195 
L 318.372964 127.01034 
L 318.617617 126.978685 
L 319.106923 131.189179 
L 319.351576 130.0807 
L 319.596229 131.22475 
L 319.840882 133.611399 
L 320.330188 130.23896 
L 320.574841 132.226747 
L 320.819494 131.148024 
L 321.064147 128.919006 
L 321.3088 127.771206 
L 321.553453 129.69218 
L 322.287413 126.696613 
L 322.532066 123.844783 
L 323.021372 126.554214 
L 323.266025 131.589958 
L 323.510678 128.466167 
L 323.755331 131.596649 
L 323.999984 130.259066 
L 324.48929 125.882168 
L 324.733943 127.675249 
L 325.223249 123.201484 
L 325.467902 119.667299 
L 325.712555 118.672951 
L 325.957208 120.900366 
L 326.446514 113.776747 
L 326.691167 112.45904 
L 326.93582 110.123094 
L 327.425126 112.972677 
L 327.669779 109.464497 
L 328.159085 111.66376 
L 328.403738 109.328326 
L 328.648391 112.860199 
L 328.893044 110.719406 
L 329.627003 118.466167 
L 329.871656 115.788243 
L 330.116309 114.904011 
L 330.360962 118.051824 
L 330.605615 115.842599 
L 330.850268 111.496397 
L 331.094921 112.894118 
L 331.339574 116.028069 
L 331.584227 117.357011 
L 331.82888 127.30097 
L 332.073533 123.142899 
L 332.318186 125.262445 
L 332.562839 130.207057 
L 332.807492 128.365947 
L 333.052145 132.350708 
L 333.296798 125.545806 
L 333.541451 123.523406 
L 334.520063 142.865948 
L 334.764716 137.002096 
L 335.009369 135.12335 
L 335.987981 123.892629 
L 336.232634 126.314486 
L 336.477287 125.194509 
L 336.966593 131.162843 
L 337.455899 136.930458 
L 337.700552 138.532914 
L 337.945205 133.210009 
L 338.434511 128.81269 
L 338.679164 130.412006 
L 338.923817 128.639924 
L 339.16847 131.489623 
L 339.413123 127.595136 
L 340.147082 134.001142 
L 340.636388 128.205127 
L 341.370347 133.201567 
L 341.615 129.184539 
L 341.859653 127.409814 
L 342.348959 133.913429 
L 342.838265 130.85209 
L 343.327571 122.878852 
L 343.572224 121.389915 
L 343.816877 122.491703 
L 344.06153 121.036867 
L 344.306184 117.35526 
L 344.550837 115.466932 
L 345.040143 119.344815 
L 345.284796 117.700774 
L 345.529449 118.817464 
L 346.508061 109.875751 
L 346.752714 111.555725 
L 347.24202 116.483716 
L 347.731326 110.347176 
L 347.975979 117.963368 
L 348.220632 119.845169 
L 348.709938 115.16287 
L 349.199244 112.379588 
L 349.443897 109.977688 
L 349.68855 111.352147 
L 350.177856 108.325982 
L 350.422509 107.675397 
L 350.667162 105.218581 
L 351.156468 108.241673 
L 351.401121 110.808738 
L 351.645774 108.313558 
L 351.890427 109.859312 
L 352.13508 106.592527 
L 352.379733 108.161923 
L 352.624386 106.66889 
L 352.869039 109.014698 
L 353.113692 110.194467 
L 353.602998 105.844647 
L 353.847651 107.380406 
L 354.092304 105.939316 
L 354.336957 107.594855 
L 354.826263 104.984058 
L 355.070916 107.024069 
L 355.315569 105.345532 
L 355.560222 108.910662 
L 355.804875 107.304159 
L 356.294181 110.364226 
L 356.538834 108.389441 
L 357.517446 97.085381 
L 357.762099 95.046344 
L 358.006752 91.984377 
L 358.251405 90.351075 
L 358.740711 95.64434 
L 358.985364 92.226516 
L 359.47467 96.049894 
L 359.719323 99.259167 
L 359.963976 94.313796 
L 360.208629 92.297757 
L 360.453282 94.22681 
L 360.697935 92.511479 
L 360.942588 94.681301 
L 361.187241 91.529242 
L 361.676547 89.630241 
L 361.9212 87.601266 
L 362.410506 80.279074 
L 363.389118 86.903462 
L 363.633771 81.886619 
L 363.878424 79.236731 
L 364.36773 82.90712 
L 364.612383 78.666507 
L 364.857036 80.257349 
L 365.101689 76.951689 
L 365.346342 82.046283 
L 365.590995 78.395241 
L 365.835648 76.648073 
L 366.080301 74.092457 
L 366.324954 73.293774 
L 367.058914 67.097177 
L 367.303567 66.282303 
L 367.54822 68.323322 
L 367.792873 67.475256 
L 368.037526 64.74324 
L 368.282179 63.281961 
L 368.526832 66.001982 
L 368.771485 63.844667 
L 369.016138 62.845627 
L 369.505444 76.821813 
L 369.750097 72.724756 
L 369.99475 74.765346 
L 370.239403 78.959451 
L 370.728709 67.292677 
L 370.973362 68.762729 
L 371.218015 65.710774 
L 371.462668 66.872039 
L 371.707321 64.981728 
L 371.951974 67.850278 
L 372.196627 72.752446 
L 372.44128 69.772194 
L 372.685933 74.545263 
L 372.930586 76.943296 
L 373.175239 80.436326 
L 373.419892 75.705008 
L 373.664545 77.943724 
L 374.153851 68.489364 
L 374.398504 70.506989 
L 374.643157 66.365654 
L 374.88781 68.372011 
L 375.377116 63.499368 
L 375.621769 60.471567 
L 376.111075 57.906881 
L 376.355728 60.900251 
L 376.600381 57.405981 
L 376.845034 56.39384 
L 377.089687 53.144452 
L 377.33434 55.103509 
L 377.823646 69.363518 
L 378.068299 67.237561 
L 378.557605 71.625645 
L 379.046911 67.318549 
L 379.291564 69.352052 
L 379.536217 72.534362 
L 379.78087 78.207407 
L 380.270176 70.895443 
L 380.514829 72.446649 
L 380.759482 74.713947 
L 381.004135 78.879321 
L 381.248788 80.00338 
L 381.493441 81.738057 
L 381.738094 76.854129 
L 382.2274 82.089916 
L 382.472053 83.725266 
L 383.450665 71.621514 
L 383.695318 73.010132 
L 383.939971 76.687427 
L 384.184624 74.96296 
L 384.429277 71.771646 
L 384.67393 75.548218 
L 384.918583 72.217413 
L 385.163236 70.632784 
L 385.407889 67.054998 
L 386.141848 74.786824 
L 386.386501 75.835759 
L 386.631154 74.30423 
L 387.609766 85.581146 
L 388.099072 77.846924 
L 388.343725 75.615296 
L 388.833031 79.102461 
L 389.077684 76.342392 
L 389.566991 69.852604 
L 389.811644 68.287966 
L 390.056297 70.452732 
L 390.790256 64.571862 
L 391.279562 62.666732 
L 392.258174 75.776843 
L 392.502827 72.579994 
L 392.992133 76.244055 
L 393.236786 49.282315 
L 393.481439 42.597441 
L 393.726092 42.264202 
L 393.970745 42.404404 
L 394.215398 44.084147 
L 394.215398 44.084147 
" style="fill:none;stroke:#1f77b4;stroke-linecap:square;stroke-width:1.5;"/>
   </g>
   <g id="line2d_26">
    <path clip-path="url(#p503fa791b9)" d="M 69.560852 271.404758 
L 69.805505 272.159979 
L 70.294811 272.833994 
L 70.539464 271.707929 
L 70.784117 271.973204 
L 71.02877 271.277534 
L 71.273423 271.867635 
L 71.518076 271.954256 
L 71.762729 272.308858 
L 72.007382 272.392771 
L 72.252035 272.189755 
L 72.741341 269.926798 
L 73.230647 270.251624 
L 73.4753 270.495244 
L 73.719953 269.50723 
L 73.964606 270.021539 
L 74.209259 268.792612 
L 74.453912 269.285265 
L 74.698566 268.692457 
L 74.943219 268.419062 
L 75.187872 268.662682 
L 75.432525 268.10777 
L 75.677178 268.213338 
L 75.921831 268.662682 
L 76.166484 267.265928 
L 76.411137 265.165384 
L 76.900443 266.104674 
L 77.145096 266.115501 
L 77.389749 264.867626 
L 77.634402 264.588817 
L 77.879055 265.473969 
L 78.123708 265.270953 
L 78.368361 264.477835 
L 78.613014 264.713334 
L 79.10232 266.337466 
L 79.591626 267.728806 
L 79.836279 265.85564 
L 80.570238 267.477065 
L 81.059544 264.805368 
L 81.304197 265.335918 
L 81.54885 265.187039 
L 82.038156 268.995629 
L 82.282809 269.204059 
L 82.527462 269.70754 
L 82.772115 269.214886 
L 83.016768 269.279852 
L 83.261421 268.318907 
L 83.506074 269.033525 
L 83.99538 272.030049 
L 84.240033 271.886584 
L 84.729339 274.969727 
L 84.973992 270.822777 
L 85.218645 272.270961 
L 85.463298 272.473978 
L 85.707951 272.398185 
L 85.952604 271.88117 
L 86.197257 271.006845 
L 86.686563 273.770577 
L 86.931216 274.052093 
L 87.420522 273.973593 
L 87.909828 275.597725 
L 88.88844 270.879622 
L 89.133093 270.378848 
L 89.377746 269.366472 
L 89.622399 269.426024 
L 90.111705 267.295704 
L 90.356358 267.084567 
L 90.601011 267.550151 
L 91.090317 266.567551 
L 91.579623 266.754326 
L 91.824276 268.243114 
L 92.068929 267.452703 
L 92.313582 267.163066 
L 92.558235 267.301118 
L 92.802888 267.858736 
L 93.292194 264.824316 
L 93.536847 265.476676 
L 93.7815 264.526559 
L 94.026153 265.766313 
L 94.270806 265.306142 
L 94.515459 268.010322 
L 94.760112 268.096942 
L 95.004765 268.944198 
L 95.494071 265.660744 
L 95.983377 265.162677 
L 96.22803 262.642566 
L 96.472683 263.205598 
L 96.717336 263.213719 
L 96.961989 263.487114 
L 97.206643 262.783324 
L 97.451296 261.486725 
L 97.695949 261.711397 
L 97.940602 262.515342 
L 98.429908 261.651845 
L 98.919214 262.737307 
L 99.163867 261.245812 
L 99.40852 258.438771 
L 99.653173 260.590746 
L 99.897826 264.837851 
L 100.142479 261.478604 
L 100.387132 263.443804 
L 100.631785 263.579148 
L 100.876438 264.938006 
L 101.121091 263.067547 
L 101.365744 264.331663 
L 101.610397 264.870333 
L 101.85505 264.404749 
L 102.099703 265.687813 
L 102.344356 265.284487 
L 102.589009 262.36917 
L 102.833662 262.431428 
L 103.078315 263.554786 
L 103.322968 262.293377 
L 103.567621 263.197477 
L 104.056927 263.465459 
L 104.30158 264.967781 
L 104.546233 265.105832 
L 104.790886 264.052854 
L 105.280192 263.378839 
L 105.524845 261.383863 
L 105.769498 260.712555 
L 106.014151 261.199795 
L 106.503457 261.09152 
L 106.74811 261.890051 
L 106.992763 261.107761 
L 107.237416 260.845193 
L 107.482069 263.378839 
L 107.971375 265.503745 
L 108.216028 265.904364 
L 108.460681 265.668865 
L 108.705334 266.721844 
L 108.949987 265.541641 
L 109.19464 266.009933 
L 109.683946 263.497942 
L 109.928599 263.175822 
L 110.173252 264.496783 
L 110.417905 264.033905 
L 110.662558 265.19516 
L 110.907211 265.181625 
L 111.151864 266.156104 
L 112.375129 261.448829 
L 112.619782 262.842875 
L 112.864435 261.592294 
L 113.109088 262.929496 
L 113.353741 265.089591 
L 113.598394 264.845971 
L 113.843047 263.971647 
L 114.0877 262.523463 
L 114.332353 262.555945 
L 114.577006 260.953468 
L 114.821659 266.337466 
L 115.066312 267.709857 
L 115.310965 266.608155 
L 115.555618 268.118597 
L 116.044924 265.460435 
L 116.289577 266.091139 
L 116.53423 265.547055 
L 117.023536 264.889282 
L 117.268189 263.949992 
L 117.512842 263.711786 
L 117.757495 262.677755 
L 118.246801 263.817354 
L 118.491454 262.252774 
L 118.736107 262.867237 
L 118.98076 262.53429 
L 119.225413 264.131353 
L 119.470066 264.445352 
L 119.71472 264.461593 
L 119.959373 262.959271 
L 120.204026 263.435683 
L 120.448679 263.083788 
L 120.693332 262.442256 
L 120.937985 263.070254 
L 121.182638 263.389666 
L 121.427291 262.991754 
L 121.671944 262.813099 
L 121.916597 260.366074 
L 122.16125 259.229182 
L 122.405903 260.931813 
L 122.650556 261.773655 
L 122.895209 260.658418 
L 123.139862 261.145657 
L 123.629168 259.042406 
L 124.118474 261.294536 
L 124.363127 261.316191 
L 124.60778 262.060585 
L 124.852433 261.659966 
L 125.097086 260.176592 
L 125.586392 260.144109 
L 125.831045 258.950372 
L 126.075698 258.50915 
L 126.320351 258.427943 
L 126.565004 257.927169 
L 126.809657 256.652225 
L 127.298963 256.181227 
L 127.788269 252.061346 
L 128.032922 252.326621 
L 128.277575 252.245414 
L 128.522228 251.752761 
L 128.766881 252.992515 
L 129.011534 252.689343 
L 129.50084 253.818115 
L 129.745493 254.391975 
L 129.990146 253.184704 
L 130.234799 250.854074 
L 130.724105 253.452685 
L 130.968758 253.774805 
L 131.213411 252.597309 
L 131.458064 252.965446 
L 131.702717 253.837063 
L 131.94737 253.902029 
L 132.192023 254.941473 
L 132.436676 255.258179 
L 132.681329 254.846732 
L 132.925982 255.001025 
L 133.415288 256.449209 
L 133.659941 257.767463 
L 133.904594 258.214099 
L 134.149247 258.011083 
L 134.3939 257.599636 
L 134.638553 258.281771 
L 134.883206 256.885018 
L 135.127859 256.809225 
L 135.617165 259.267078 
L 135.861818 259.09113 
L 136.106471 258.441478 
L 136.351124 259.253544 
L 136.84043 255.826625 
L 137.085083 255.702108 
L 137.329736 255.225696 
L 137.574389 254.183545 
L 137.819042 254.007597 
L 138.553001 254.668078 
L 138.797654 255.171558 
L 139.28696 250.848661 
L 139.531613 250.84054 
L 139.776266 249.681992 
L 140.020919 250.994832 
L 140.265572 250.280214 
L 140.510225 250.680834 
L 140.754878 249.200167 
L 140.999531 249.77132 
L 141.244184 250.68354 
L 141.488837 248.434118 
L 141.73349 248.553221 
L 141.978143 250.10968 
L 142.222797 248.951133 
L 142.712103 253.230721 
L 142.956756 254.584164 
L 143.446062 251.157246 
L 143.690715 251.208676 
L 143.935368 252.372638 
L 144.180021 251.265521 
L 144.424674 251.189728 
L 144.669327 246.274022 
L 144.91398 246.948037 
L 145.158633 245.296836 
L 145.403286 246.861416 
L 145.647939 245.386163 
L 145.892592 236.946091 
L 146.137245 238.361792 
L 146.381898 237.132866 
L 146.626551 237.571382 
L 146.871204 236.77285 
L 147.115857 238.134414 
L 147.605163 238.16419 
L 147.849816 238.897756 
L 148.094469 242.313847 
L 148.583775 239.384996 
L 148.828428 240.697836 
L 149.073081 238.886928 
L 149.317734 235.860629 
L 149.562387 235.38151 
L 149.80704 236.190869 
L 150.051693 236.526523 
L 150.296346 237.168055 
L 150.540999 235.449182 
L 151.030305 233.359466 
L 151.519611 230.633631 
L 151.764264 228.763172 
L 152.008917 229.120481 
L 152.25357 231.188543 
L 152.498223 230.836648 
L 152.742876 231.23456 
L 152.987529 230.568666 
L 153.232182 231.126284 
L 153.476835 230.343994 
L 153.721488 231.857144 
L 153.966141 232.111591 
L 154.210794 231.302232 
L 154.455447 230.021875 
L 154.7001 230.379184 
L 154.944753 228.129761 
L 155.189406 228.338191 
L 155.434059 226.440664 
L 155.678712 226.245768 
L 155.923365 227.25273 
L 156.168018 225.847855 
L 156.657324 228.830845 
L 156.901977 227.363712 
L 157.14663 227.585677 
L 157.391283 227.99983 
L 157.635936 228.760465 
L 158.125242 226.516456 
L 158.369895 226.762783 
L 158.614548 227.66959 
L 158.859201 229.47779 
L 159.103854 227.702073 
L 159.348507 228.154123 
L 159.59316 228.173071 
L 159.837813 227.141747 
L 160.082466 225.127824 
L 160.327119 225.807252 
L 160.571772 227.071368 
L 160.816425 230.392718 
L 161.061078 230.750027 
L 161.305731 228.543915 
L 161.550384 231.31306 
L 161.795037 226.221406 
L 162.03969 238.218327 
L 162.284343 241.612763 
L 162.528996 241.125524 
L 162.773649 241.531557 
L 163.262955 237.571382 
L 163.507608 237.628226 
L 163.752261 237.379193 
L 163.996914 240.773628 
L 164.241567 238.621654 
L 164.48622 238.58105 
L 164.730874 239.582598 
L 164.975527 241.279816 
L 165.22018 240.62475 
L 165.464833 241.447643 
L 166.198792 237.917863 
L 166.443445 237.828536 
L 166.688098 237.295279 
L 166.932751 237.923277 
L 167.177404 236.808039 
L 167.422057 234.515306 
L 167.911363 234.59922 
L 168.400669 235.476251 
L 168.645322 234.983598 
L 168.889975 234.748099 
L 169.623934 232.782899 
L 170.357893 237.695898 
L 170.602546 240.069838 
L 170.847199 239.295668 
L 171.091852 242.35445 
L 171.336505 243.691652 
L 171.581158 243.740376 
L 171.825811 244.260098 
L 172.070464 242.468139 
L 172.315117 242.746949 
L 173.049076 249.297614 
L 173.293729 246.777503 
L 173.538382 245.494439 
L 173.783035 249.473562 
L 174.027688 250.929867 
L 174.272341 249.798388 
L 174.516994 249.752371 
L 174.761647 247.695138 
L 175.0063 247.362191 
L 175.250953 245.748886 
L 175.495606 246.168454 
L 175.740259 247.451518 
L 175.984912 244.048961 
L 176.229565 253.068308 
L 176.474218 255.0308 
L 177.208177 251.969312 
L 177.45283 251.936829 
L 177.697483 251.384624 
L 177.942136 254.814249 
L 178.431442 257.266689 
L 178.676095 256.205589 
L 178.920748 253.330876 
L 179.165401 252.84905 
L 179.410054 254.749284 
L 179.654707 255.407058 
L 179.89936 254.727629 
L 180.144013 254.984783 
L 180.633319 252.748895 
L 180.877972 252.775964 
L 181.122625 250.791816 
L 181.611931 251.354848 
L 181.856584 250.374955 
L 182.101237 250.707902 
L 182.34589 251.712157 
L 182.590543 252.158794 
L 182.835196 252.269776 
L 183.079849 247.724913 
L 183.324502 246.073712 
L 183.569155 246.661107 
L 184.058461 244.576804 
L 184.303114 247.091502 
L 184.547767 246.994054 
L 184.79242 246.628624 
L 185.037073 247.170002 
L 185.281726 244.798769 
L 185.526379 246.796451 
L 185.771032 247.554379 
L 186.015685 246.731486 
L 186.260338 247.565207 
L 186.504991 246.677348 
L 186.994298 247.454225 
L 187.238951 247.39738 
L 187.483604 245.337439 
L 187.728257 245.212923 
L 187.97291 243.956927 
L 188.217563 245.02344 
L 188.462216 247.659948 
L 188.706869 245.992506 
L 188.951522 246.547418 
L 189.196175 241.599229 
L 189.440828 239.130548 
L 189.685481 239.368754 
L 189.930134 238.973549 
L 190.174787 239.907425 
L 190.41944 238.226448 
L 190.908746 237.636347 
L 191.153399 238.367206 
L 191.398052 238.239983 
L 191.642705 247.60581 
L 191.887358 248.58029 
L 192.132011 248.691272 
L 192.376664 248.011843 
L 192.86597 252.193983 
L 193.110623 250.410145 
L 193.355276 250.770161 
L 193.599929 250.34518 
L 193.844582 251.00566 
L 194.089235 249.557476 
L 194.578541 248.87534 
L 195.067847 245.115475 
L 195.3125 245.001785 
L 196.046459 244.419805 
L 196.291112 245.196681 
L 196.535765 245.55399 
L 196.780418 244.896217 
L 197.025071 242.782138 
L 197.269724 242.416709 
L 197.514377 243.272085 
L 197.75903 243.53736 
L 198.003683 242.63326 
L 198.248336 243.548187 
L 198.492989 241.666901 
L 198.737642 241.550505 
L 198.982295 242.644087 
L 199.226948 246.052057 
L 199.471601 245.624369 
L 199.716254 245.843627 
L 199.960907 245.662266 
L 200.20556 247.638293 
L 200.450213 246.590728 
L 200.694866 247.608517 
L 200.939519 247.337829 
L 201.184172 245.627076 
L 201.428825 247.473173 
L 201.673478 247.708672 
L 201.918131 246.468918 
L 202.162784 248.168843 
L 202.407437 247.822361 
L 202.65209 248.198618 
L 202.896743 248.030792 
L 203.141396 249.378821 
L 203.386049 249.121667 
L 203.630702 247.949585 
L 203.875355 248.095757 
L 204.120008 249.508752 
L 204.364661 247.960412 
L 204.853967 251.021901 
L 205.09862 252.359103 
L 205.343273 251.855622 
L 205.832579 253.330876 
L 206.077232 253.119738 
L 206.321885 252.424069 
L 206.566538 249.955388 
L 206.811191 250.594213 
L 207.055844 250.537369 
L 207.300497 257.607756 
L 207.54515 256.820052 
L 207.789803 255.298782 
L 208.034456 255.696694 
L 208.523762 252.627085 
L 208.768415 252.556706 
L 209.013068 253.34441 
L 209.257721 255.047042 
L 209.502375 255.014559 
L 209.747028 254.142942 
L 210.236334 250.854074 
L 210.480987 250.989419 
L 210.72564 249.644096 
L 210.970293 246.574486 
L 211.214946 247.865671 
L 211.704252 246.920968 
L 211.948905 245.838213 
L 212.438211 244.457701 
L 212.682864 244.620114 
L 212.927517 245.018027 
L 213.17217 243.645635 
L 213.416823 247.06714 
L 213.661476 246.983226 
L 213.906129 249.638682 
L 214.150782 249.522286 
L 214.640088 252.307672 
L 214.884741 250.721437 
L 215.129394 252.524223 
L 215.374047 252.112777 
L 215.6187 252.123604 
L 215.863353 252.461965 
L 216.108006 255.442247 
L 216.352659 254.408216 
L 216.597312 254.719508 
L 216.841965 254.132114 
L 217.086618 252.334741 
L 217.331271 252.402413 
L 217.575924 253.284858 
L 217.820577 251.644485 
L 218.06523 250.845954 
L 218.309883 251.316952 
L 218.554536 251.303417 
L 218.799189 251.798778 
L 219.288495 255.379989 
L 219.777801 253.980528 
L 220.022454 254.936059 
L 220.267107 256.430261 
L 220.51176 255.528868 
L 220.756413 255.92678 
L 221.001066 257.637532 
L 221.245719 256.611622 
L 221.490372 256.963517 
L 221.735025 254.849439 
L 221.979678 251.311538 
L 222.224331 250.751213 
L 222.95829 253.046652 
L 223.202943 250.916333 
L 223.447596 239.344392 
L 223.692249 236.653747 
L 223.936902 236.902781 
L 224.181555 236.577954 
L 224.426208 234.10386 
L 224.670861 233.998291 
L 224.915514 235.005253 
L 225.649473 233.216001 
L 225.894126 231.954592 
L 226.138779 233.686999 
L 226.383432 234.244618 
L 226.872738 231.459231 
L 227.117391 232.412056 
L 227.362044 232.831623 
L 227.606697 230.996354 
L 227.85135 231.150646 
L 228.096003 232.406642 
L 228.340656 230.920561 
L 228.585309 231.202077 
L 228.829962 231.713679 
L 229.074615 230.33046 
L 229.319268 232.42559 
L 229.563921 232.839744 
L 229.808574 235.289476 
L 230.053227 236.139438 
L 230.29788 234.009119 
L 230.542533 234.999839 
L 230.787186 234.250032 
L 231.031839 234.637116 
L 231.276492 233.768206 
L 231.521145 234.279807 
L 231.765798 232.858692 
L 232.010452 233.77362 
L 232.255105 234.049722 
L 232.744411 235.874164 
L 233.233717 233.914378 
L 233.723023 235.089166 
L 233.967676 234.547789 
L 234.212329 233.25119 
L 234.456982 233.963102 
L 234.701635 232.125126 
L 234.946288 231.491714 
L 235.190941 231.732627 
L 235.435594 231.811127 
L 235.680247 231.066733 
L 235.9249 231.516076 
L 236.169553 230.814992 
L 236.414206 233.65181 
L 236.658859 229.875703 
L 236.903512 229.423653 
L 237.148165 229.797203 
L 237.392818 229.745772 
L 237.637471 214.82812 
L 238.126777 219.102294 
L 238.37143 219.086053 
L 238.616083 221.14058 
L 238.860736 220.845529 
L 239.105389 220.799512 
L 239.594695 221.866025 
L 240.084001 217.916678 
L 240.328654 218.144056 
L 240.573307 218.639416 
L 240.81796 219.762774 
L 241.062613 218.298349 
L 241.307266 219.998273 
L 241.551919 220.203997 
L 241.796572 221.159528 
L 242.041225 220.577547 
L 242.285878 218.474296 
L 242.775184 220.141738 
L 243.019837 218.531141 
L 243.26449 219.843981 
L 243.753796 218.666485 
L 243.998449 218.647537 
L 244.243102 217.13168 
L 244.732408 219.741119 
L 244.977061 220.674995 
L 245.221714 220.139032 
L 245.466367 218.707088 
L 245.71102 218.111573 
L 245.955673 218.937174 
L 246.200326 220.628978 
L 246.444979 219.657206 
L 246.689632 219.508327 
L 246.934285 216.373752 
L 247.178938 217.583731 
L 247.423591 217.212887 
L 247.668244 214.587207 
L 247.912897 215.981254 
L 248.15755 216.181563 
L 248.402203 216.722941 
L 248.646856 218.953415 
L 249.136162 216.91513 
L 249.380815 216.828509 
L 249.625468 217.280559 
L 249.870121 217.096491 
L 250.114774 218.996725 
L 250.359427 217.727196 
L 251.093386 209.287123 
L 251.338039 210.472739 
L 251.582692 206.604598 
L 252.071998 203.188507 
L 252.561304 203.14249 
L 252.805957 204.790984 
L 253.05061 192.003652 
L 253.295263 191.464981 
L 253.539916 192.921286 
L 253.784569 192.117341 
L 254.029222 190.016797 
L 254.273875 190.181917 
L 254.518529 190.485088 
L 254.763182 191.332344 
L 255.007835 189.949125 
L 255.497141 193.844335 
L 255.741794 193.470784 
L 255.986447 192.534202 
L 256.2311 192.953769 
L 256.475753 191.938686 
L 256.720406 191.435206 
L 256.965059 190.433657 
L 257.209712 190.487795 
L 257.454365 191.056241 
L 257.943671 201.464221 
L 258.188324 209.882638 
L 258.432977 209.070572 
L 258.67763 199.758882 
L 258.922283 194.994761 
L 259.166936 195.092209 
L 259.411589 196.478135 
L 259.656242 200.903895 
L 259.900895 197.111547 
L 260.390201 200.238001 
L 260.634854 195.219433 
L 260.879507 195.395381 
L 261.368813 191.998238 
L 261.613466 194.179989 
L 261.858119 193.912007 
L 262.102772 192.55315 
L 262.347425 189.445644 
L 262.592078 189.069387 
L 262.836731 186.868688 
L 263.081384 189.572868 
L 263.57069 190.83157 
L 263.815343 193.403112 
L 264.059996 198.868316 
L 264.304649 201.031119 
L 264.793955 194.358643 
L 265.283261 188.143631 
L 265.527914 189.821901 
L 265.772567 188.61463 
L 266.01722 190.991276 
L 266.261873 189.193903 
L 266.506526 186.381448 
L 266.751179 186.730637 
L 266.995832 187.832339 
L 267.240485 183.065512 
L 267.485138 180.813382 
L 267.729791 180.166436 
L 267.974444 183.487786 
L 268.219097 184.871005 
L 268.46375 182.6676 
L 268.708403 173.161014 
L 268.953056 170.567816 
L 269.197709 169.918164 
L 269.442362 168.26967 
L 269.687015 165.711662 
L 269.931668 165.887609 
L 270.176321 165.224422 
L 270.420974 166.047316 
L 270.91028 157.834622 
L 271.154933 156.82766 
L 271.399586 157.877932 
L 271.644239 156.743746 
L 271.888892 153.070501 
L 272.133545 155.141269 
L 272.378198 161.434781 
L 272.622851 159.956821 
L 272.867504 161.177627 
L 273.112157 155.698888 
L 273.35681 156.313351 
L 273.601463 154.369807 
L 273.846116 151.516748 
L 274.090769 153.638947 
L 274.335422 152.504762 
L 274.580075 153.067794 
L 274.824728 155.35782 
L 275.069381 151.4978 
L 275.314034 152.3234 
L 275.558687 154.965322 
L 275.80334 153.235621 
L 276.047993 153.996256 
L 276.292646 151.966091 
L 276.537299 155.360527 
L 276.781952 156.029128 
L 277.026606 162.030296 
L 277.271259 157.222865 
L 277.515912 157.025262 
L 277.760565 152.388366 
L 278.249871 155.536475 
L 278.494524 155.43632 
L 278.739177 155.804457 
L 278.98383 155.655578 
L 279.228483 155.901905 
L 279.473136 152.542658 
L 279.717789 147.461832 
L 279.962442 148.788206 
L 280.207095 152.355883 
L 280.451748 162.885672 
L 280.696401 163.751876 
L 280.941054 164.060461 
L 281.185707 170.749178 
L 281.43036 170.990091 
L 281.675013 168.096429 
L 281.919666 168.055826 
L 282.164319 177.822273 
L 282.408972 174.793266 
L 282.653625 180.970382 
L 282.898278 179.806421 
L 283.142931 180.539987 
L 283.387584 179.660249 
L 283.632237 173.878339 
L 283.87689 173.837735 
L 284.121543 172.560085 
L 284.366196 177.405412 
L 284.610849 163.329601 
L 284.855502 176.417398 
L 285.100155 179.717093 
L 285.589461 191.557015 
L 285.834114 190.152141 
L 286.078767 199.390745 
L 286.32342 203.188507 
L 286.568073 204.82076 
L 286.812726 202.544268 
L 287.057379 198.933282 
L 287.302032 198.050836 
L 287.791338 190.736829 
L 288.035991 193.200096 
L 288.280644 190.520278 
L 288.525297 183.861337 
L 288.76995 185.637054 
L 289.259256 185.038832 
L 289.748562 184.981988 
L 289.993215 185.750744 
L 290.237868 178.57208 
L 290.482521 178.255374 
L 290.971827 179.627766 
L 291.21648 182.968064 
L 291.461133 183.655613 
L 291.950439 184.015629 
L 292.195092 181.124674 
L 292.684398 179.118871 
L 292.929051 179.863265 
L 293.173704 183.877578 
L 293.418357 185.869847 
L 293.66301 185.355538 
L 294.152316 181.119261 
L 294.396969 177.513688 
L 294.641622 178.347409 
L 294.886275 174.560474 
L 295.130928 173.253048 
L 295.375581 174.620026 
L 295.620234 173.304479 
L 296.10954 176.650191 
L 296.354193 172.335413 
L 296.598846 175.218248 
L 296.843499 174.360165 
L 297.088152 174.000149 
L 297.332805 172.040363 
L 297.577458 168.88684 
L 298.066764 165.890316 
L 298.311417 163.329601 
L 298.55607 165.346232 
L 298.800723 163.968427 
L 299.045376 164.507097 
L 299.29003 167.349328 
L 299.534683 165.806403 
L 300.268642 172.357068 
L 300.513295 156.768108 
L 300.757948 150.201201 
L 301.002601 153.59293 
L 301.247254 153.706619 
L 301.491907 156.903453 
L 301.73656 152.881019 
L 301.981213 151.311025 
L 302.225866 144.998565 
L 302.470519 142.248368 
L 302.715172 140.976132 
L 302.959825 143.144348 
L 303.204478 142.944038 
L 303.449131 147.109937 
L 303.693784 146.519835 
L 303.938437 146.230199 
L 304.18309 145.071651 
L 304.427743 146.709317 
L 304.917049 143.569329 
L 305.161702 141.793611 
L 305.406355 142.51635 
L 305.651008 139.660585 
L 305.895661 140.567392 
L 306.140314 138.185331 
L 306.384967 138.916191 
L 306.62962 138.594071 
L 306.874273 139.40343 
L 307.118926 138.618433 
L 307.363579 138.345038 
L 307.608232 140.981545 
L 307.852885 141.704284 
L 308.097538 140.605288 
L 308.342191 141.969559 
L 308.586844 141.089821 
L 308.831497 144.099879 
L 309.07615 142.037231 
L 309.320803 141.547285 
L 309.565456 142.960279 
L 309.810109 139.852774 
L 310.054762 146.111096 
L 310.299415 148.168329 
L 310.544068 143.677604 
L 310.788721 141.606836 
L 311.033374 141.601422 
L 311.278027 138.878294 
L 311.52268 138.223228 
L 311.767333 135.648979 
L 312.011986 135.930495 
L 312.501292 131.271943 
L 312.990598 134.290122 
L 313.235251 134.677206 
L 313.479904 136.236373 
L 313.724557 136.065839 
L 313.96921 135.015567 
L 314.213863 133.453694 
L 314.458516 133.802882 
L 314.703169 133.686486 
L 315.192475 136.19577 
L 315.437128 135.903426 
L 315.681781 131.588649 
L 316.171087 127.493129 
L 316.660393 131.039151 
L 317.149699 127.969541 
L 317.394352 127.812542 
L 317.639005 127.338837 
L 317.883658 127.271164 
L 318.128311 126.545719 
L 318.372964 126.18841 
L 318.86227 128.494677 
L 319.106923 128.334971 
L 319.351576 128.380988 
L 319.596229 130.316412 
L 320.085535 128.925072 
L 320.330188 130.332653 
L 320.574841 129.799397 
L 320.819494 127.152061 
L 321.064147 126.532184 
L 321.3088 127.536439 
L 322.04276 126.220892 
L 322.287413 121.773478 
L 322.532066 122.961801 
L 322.776719 123.07549 
L 323.021372 129.550363 
L 323.266025 126.478047 
L 323.510678 129.314864 
L 323.755331 129.293209 
L 324.244637 124.575105 
L 324.48929 125.500861 
L 324.733943 124.114935 
L 324.978596 121.537979 
L 325.223249 117.488476 
L 325.467902 117.204253 
L 325.712555 118.988091 
L 326.201861 110.986534 
L 326.446514 110.897207 
L 326.691167 108.661319 
L 326.93582 108.815611 
L 327.180473 109.549178 
L 327.425126 106.752964 
L 327.914432 108.087459 
L 328.159085 107.470289 
L 328.403738 110.369364 
L 328.648391 109.532936 
L 329.137697 112.545701 
L 329.38235 115.255295 
L 329.627003 113.983058 
L 329.871656 113.97223 
L 330.116309 115.967206 
L 330.360962 113.620335 
L 330.605615 108.450182 
L 330.850268 109.237886 
L 331.094921 112.645856 
L 331.339574 113.790869 
L 331.584227 125.17062 
L 331.82888 121.516323 
L 332.073533 122.71006 
L 332.318186 128.08323 
L 332.562839 127.685318 
L 332.807492 130.928168 
L 333.052145 122.839991 
L 333.296798 122.076649 
L 333.541451 126.372478 
L 333.786104 134.357794 
L 334.030757 135.270015 
L 334.27541 140.667546 
L 334.520063 134.125001 
L 334.764716 133.245263 
L 335.009369 130.562739 
L 335.254022 129.544949 
L 335.498675 124.174486 
L 335.743328 122.731716 
L 335.987981 124.142004 
L 336.232634 124.074331 
L 336.477287 127.755697 
L 336.72194 128.906124 
L 337.211246 134.014019 
L 337.455899 134.909999 
L 337.700552 129.7615 
L 338.189858 126.767684 
L 338.434511 127.604112 
L 338.679164 127.244096 
L 338.923817 129.555777 
L 339.16847 125.706584 
L 339.902429 130.191895 
L 340.391735 126.551133 
L 340.636388 126.71896 
L 341.125694 129.428553 
L 341.370347 126.502409 
L 341.615 126.304806 
L 341.859653 128.194213 
L 342.104306 132.330336 
L 342.593612 130.351601 
L 343.082918 119.846174 
L 343.327571 119.594434 
L 343.572224 119.870536 
L 343.816877 119.025988 
L 344.06153 115.068519 
L 344.306184 114.121109 
L 344.550837 116.129619 
L 344.79549 116.735962 
L 345.040143 116.313687 
L 345.284796 116.505876 
L 345.529449 113.9208 
L 345.774102 112.686459 
L 346.018755 108.875163 
L 346.263408 108.163252 
L 346.508061 109.078179 
L 346.997367 112.404943 
L 347.486673 107.946701 
L 347.731326 115.999688 
L 347.975979 116.692651 
L 348.220632 115.377105 
L 348.465285 113.425439 
L 348.709938 112.978803 
L 348.954591 111.327602 
L 349.199244 108.872456 
L 349.443897 108.910352 
L 349.68855 107.202307 
L 350.177856 106.560775 
L 350.422509 103.483045 
L 350.667162 103.707716 
L 350.911815 104.633471 
L 351.156468 106.514758 
L 351.401121 105.594416 
L 351.645774 106.568895 
L 351.890427 104.392559 
L 352.13508 105.52133 
L 352.379733 105.258762 
L 352.624386 106.143914 
L 352.869039 106.303621 
L 353.358345 104.414214 
L 353.602998 104.560386 
L 353.847651 103.983819 
L 354.092304 104.541437 
L 354.58161 104.300524 
L 354.826263 104.600989 
L 355.070916 103.33958 
L 355.315569 107.066963 
L 355.560222 105.751416 
L 355.804875 105.935484 
L 356.049528 106.414603 
L 356.294181 106.08707 
L 356.538834 103.602148 
L 356.783487 98.643131 
L 357.02814 98.09634 
L 357.272793 95.335316 
L 357.517446 93.989993 
L 357.762099 89.843043 
L 358.006752 89.179856 
L 358.251405 92.157431 
L 358.496058 93.077772 
L 358.740711 89.786198 
L 359.230017 92.712343 
L 359.47467 95.841504 
L 359.719323 91.153176 
L 359.963976 90.668643 
L 360.208629 91.908397 
L 360.453282 91.134228 
L 360.697935 92.089759 
L 360.942588 89.686043 
L 361.187241 89.629199 
L 361.431894 89.177149 
L 361.9212 84.927337 
L 362.165853 78.636532 
L 362.410506 78.985721 
L 362.899812 81.532901 
L 363.144465 82.447829 
L 363.389118 78.417274 
L 363.633771 77.394071 
L 363.878424 78.441636 
L 364.123077 78.801652 
L 364.36773 75.085097 
L 364.612383 76.000025 
L 364.857036 73.807446 
L 365.101689 79.575822 
L 365.346342 75.859266 
L 365.590995 75.493837 
L 365.835648 72.562278 
L 366.080301 72.326779 
L 366.324954 69.942012 
L 366.569607 66.414939 
L 366.814261 65.765286 
L 367.058914 65.516253 
L 367.303567 66.079285 
L 367.54822 65.719269 
L 367.792873 62.801245 
L 368.037526 61.553371 
L 368.282179 63.810914 
L 368.526832 61.897145 
L 368.771485 61.843007 
L 369.016138 70.494217 
L 369.260791 74.121445 
L 369.505444 69.822909 
L 369.750097 70.992284 
L 369.99475 74.321755 
L 370.239403 67.949744 
L 370.484056 65.930406 
L 370.728709 66.628783 
L 370.973362 64.019344 
L 371.218015 64.271085 
L 371.462668 63.610604 
L 371.707321 66.252526 
L 371.951974 70.908371 
L 372.196627 67.240539 
L 372.930586 77.166693 
L 373.175239 72.364676 
L 373.419892 74.059187 
L 373.909198 65.578511 
L 374.153851 66.211922 
L 374.398504 62.860797 
L 374.643157 64.452446 
L 374.88781 64.133033 
L 375.132463 61.905266 
L 375.377116 58.004642 
L 375.866422 56.854215 
L 376.111075 57.674402 
L 376.355728 54.079656 
L 376.600381 53.830623 
L 376.845034 50.330618 
L 377.089687 52.171301 
L 377.578993 67.930795 
L 377.823646 65.654304 
L 378.068299 65.73551 
L 378.312952 68.163588 
L 378.557605 67.984933 
L 378.802258 66.715403 
L 379.046911 67.373177 
L 379.291564 69.492669 
L 379.536217 76.284248 
L 380.025523 69.143481 
L 380.270176 69.295066 
L 380.514829 70.529407 
L 380.759482 75.296234 
L 381.004135 75.86468 
L 381.248788 77.266847 
L 381.493441 73.582775 
L 381.982747 77.494226 
L 382.2274 79.440477 
L 382.472053 79.234754 
L 382.716706 77.058417 
L 383.206012 69.87434 
L 383.450665 70.510458 
L 383.695318 74.023997 
L 383.939971 73.339155 
L 384.184624 70.180218 
L 384.429277 73.853463 
L 384.67393 70.588958 
L 384.918583 69.338376 
L 385.163236 64.731255 
L 386.141848 72.781536 
L 386.386501 71.874729 
L 386.875807 76.776901 
L 387.12046 80.921144 
L 387.365113 81.243264 
L 387.609766 77.921914 
L 388.099072 75.085097 
L 388.588378 76.235524 
L 388.833031 73.975273 
L 389.322338 67.443556 
L 389.566991 67.061885 
L 389.811644 68.087795 
L 390.30095 64.37124 
L 390.545603 63.827155 
L 391.034909 62.151592 
L 391.524215 68.247501 
L 391.768868 69.249049 
L 392.013521 73.745188 
L 392.258174 71.146577 
L 392.502827 71.955936 
L 392.74748 72.085866 
L 392.992133 37.296959 
L 393.236786 34.617141 
L 393.481439 36.124877 
L 393.726092 36.557979 
L 393.970745 39.118694 
L 394.215398 34.414125 
L 394.215398 34.414125 
" style="fill:none;stroke:#ff7f0e;stroke-linecap:square;stroke-width:1.5;"/>
   </g>
   <g id="patch_3">
    <path d="M 53.328125 288.430125 
L 53.328125 22.318125 
" style="fill:none;stroke:#000000;stroke-linecap:square;stroke-linejoin:miter;stroke-width:0.8;"/>
   </g>
   <g id="patch_4">
    <path d="M 410.448125 288.430125 
L 410.448125 22.318125 
" style="fill:none;stroke:#000000;stroke-linecap:square;stroke-linejoin:miter;stroke-width:0.8;"/>
   </g>
   <g id="patch_5">
    <path d="M 53.328125 288.430125 
L 410.448125 288.430125 
" style="fill:none;stroke:#000000;stroke-linecap:square;stroke-linejoin:miter;stroke-width:0.8;"/>
   </g>
   <g id="patch_6">
    <path d="M 53.328125 22.318125 
L 410.448125 22.318125 
" style="fill:none;stroke:#000000;stroke-linecap:square;stroke-linejoin:miter;stroke-width:0.8;"/>
   </g>
   <g id="text_15">
    <!-- Training: AMZN -->
    <defs>
     <path d="M -0.296875 72.90625 
L 61.375 72.90625 
L 61.375 64.59375 
L 35.5 64.59375 
L 35.5 0 
L 25.59375 0 
L 25.59375 64.59375 
L -0.296875 64.59375 
z
" id="DejaVuSans-84"/>
     <path d="M 54.890625 33.015625 
L 54.890625 0 
L 45.90625 0 
L 45.90625 32.71875 
Q 45.90625 40.484375 42.875 44.328125 
Q 39.84375 48.1875 33.796875 48.1875 
Q 26.515625 48.1875 22.3125 43.546875 
Q 18.109375 38.921875 18.109375 30.90625 
L 18.109375 0 
L 9.078125 0 
L 9.078125 54.6875 
L 18.109375 54.6875 
L 18.109375 46.1875 
Q 21.34375 51.125 25.703125 53.5625 
Q 30.078125 56 35.796875 56 
Q 45.21875 56 50.046875 50.171875 
Q 54.890625 44.34375 54.890625 33.015625 
z
" id="DejaVuSans-110"/>
     <path d="M 45.40625 27.984375 
Q 45.40625 37.75 41.375 43.109375 
Q 37.359375 48.484375 30.078125 48.484375 
Q 22.859375 48.484375 18.828125 43.109375 
Q 14.796875 37.75 14.796875 27.984375 
Q 14.796875 18.265625 18.828125 12.890625 
Q 22.859375 7.515625 30.078125 7.515625 
Q 37.359375 7.515625 41.375 12.890625 
Q 45.40625 18.265625 45.40625 27.984375 
z
M 54.390625 6.78125 
Q 54.390625 -7.171875 48.1875 -13.984375 
Q 42 -20.796875 29.203125 -20.796875 
Q 24.46875 -20.796875 20.265625 -20.09375 
Q 16.0625 -19.390625 12.109375 -17.921875 
L 12.109375 -9.1875 
Q 16.0625 -11.328125 19.921875 -12.34375 
Q 23.78125 -13.375 27.78125 -13.375 
Q 36.625 -13.375 41.015625 -8.765625 
Q 45.40625 -4.15625 45.40625 5.171875 
L 45.40625 9.625 
Q 42.625 4.78125 38.28125 2.390625 
Q 33.9375 0 27.875 0 
Q 17.828125 0 11.671875 7.65625 
Q 5.515625 15.328125 5.515625 27.984375 
Q 5.515625 40.671875 11.671875 48.328125 
Q 17.828125 56 27.875 56 
Q 33.9375 56 38.28125 53.609375 
Q 42.625 51.21875 45.40625 46.390625 
L 45.40625 54.6875 
L 54.390625 54.6875 
z
" id="DejaVuSans-103"/>
     <path d="M 11.71875 12.40625 
L 22.015625 12.40625 
L 22.015625 0 
L 11.71875 0 
z
M 11.71875 51.703125 
L 22.015625 51.703125 
L 22.015625 39.3125 
L 11.71875 39.3125 
z
" id="DejaVuSans-58"/>
     <path d="M 34.1875 63.1875 
L 20.796875 26.90625 
L 47.609375 26.90625 
z
M 28.609375 72.90625 
L 39.796875 72.90625 
L 67.578125 0 
L 57.328125 0 
L 50.6875 18.703125 
L 17.828125 18.703125 
L 11.1875 0 
L 0.78125 0 
z
" id="DejaVuSans-65"/>
     <path d="M 9.8125 72.90625 
L 24.515625 72.90625 
L 43.109375 23.296875 
L 61.8125 72.90625 
L 76.515625 72.90625 
L 76.515625 0 
L 66.890625 0 
L 66.890625 64.015625 
L 48.09375 14.015625 
L 38.1875 14.015625 
L 19.390625 64.015625 
L 19.390625 0 
L 9.8125 0 
z
" id="DejaVuSans-77"/>
     <path d="M 5.609375 72.90625 
L 62.890625 72.90625 
L 62.890625 65.375 
L 16.796875 8.296875 
L 64.015625 8.296875 
L 64.015625 0 
L 4.5 0 
L 4.5 7.515625 
L 50.59375 64.59375 
L 5.609375 64.59375 
z
" id="DejaVuSans-90"/>
     <path d="M 9.8125 72.90625 
L 23.09375 72.90625 
L 55.421875 11.921875 
L 55.421875 72.90625 
L 64.984375 72.90625 
L 64.984375 0 
L 51.703125 0 
L 19.390625 60.984375 
L 19.390625 0 
L 9.8125 0 
z
" id="DejaVuSans-78"/>
    </defs>
    <g transform="translate(186.409063 16.318125)scale(0.12 -0.12)">
     <use xlink:href="#DejaVuSans-84"/>
     <use x="46.333984" xlink:href="#DejaVuSans-114"/>
     <use x="87.447266" xlink:href="#DejaVuSans-97"/>
     <use x="148.726562" xlink:href="#DejaVuSans-105"/>
     <use x="176.509766" xlink:href="#DejaVuSans-110"/>
     <use x="239.888672" xlink:href="#DejaVuSans-105"/>
     <use x="267.671875" xlink:href="#DejaVuSans-110"/>
     <use x="331.050781" xlink:href="#DejaVuSans-103"/>
     <use x="394.527344" xlink:href="#DejaVuSans-58"/>
     <use x="428.21875" xlink:href="#DejaVuSans-32"/>
     <use x="460.005859" xlink:href="#DejaVuSans-65"/>
     <use x="528.414062" xlink:href="#DejaVuSans-77"/>
     <use x="614.693359" xlink:href="#DejaVuSans-90"/>
     <use x="683.199219" xlink:href="#DejaVuSans-78"/>
    </g>
   </g>
   <g id="legend_1">
    <g id="patch_7">
     <path d="M 60.328125 59.674375 
L 144.05625 59.674375 
Q 146.05625 59.674375 146.05625 57.674375 
L 146.05625 29.318125 
Q 146.05625 27.318125 144.05625 27.318125 
L 60.328125 27.318125 
Q 58.328125 27.318125 58.328125 29.318125 
L 58.328125 57.674375 
Q 58.328125 59.674375 60.328125 59.674375 
z
" style="fill:#ffffff;opacity:0.8;stroke:#cccccc;stroke-linejoin:miter;"/>
    </g>
    <g id="line2d_27">
     <path d="M 62.328125 35.416562 
L 82.328125 35.416562 
" style="fill:none;stroke:#1f77b4;stroke-linecap:square;stroke-width:1.5;"/>
    </g>
    <g id="line2d_28"/>
    <g id="text_16">
     <!-- Predicted -->
     <defs>
      <path d="M 45.40625 46.390625 
L 45.40625 75.984375 
L 54.390625 75.984375 
L 54.390625 0 
L 45.40625 0 
L 45.40625 8.203125 
Q 42.578125 3.328125 38.25 0.953125 
Q 33.9375 -1.421875 27.875 -1.421875 
Q 17.96875 -1.421875 11.734375 6.484375 
Q 5.515625 14.40625 5.515625 27.296875 
Q 5.515625 40.1875 11.734375 48.09375 
Q 17.96875 56 27.875 56 
Q 33.9375 56 38.25 53.625 
Q 42.578125 51.265625 45.40625 46.390625 
z
M 14.796875 27.296875 
Q 14.796875 17.390625 18.875 11.75 
Q 22.953125 6.109375 30.078125 6.109375 
Q 37.203125 6.109375 41.296875 11.75 
Q 45.40625 17.390625 45.40625 27.296875 
Q 45.40625 37.203125 41.296875 42.84375 
Q 37.203125 48.484375 30.078125 48.484375 
Q 22.953125 48.484375 18.875 42.84375 
Q 14.796875 37.203125 14.796875 27.296875 
z
" id="DejaVuSans-100"/>
      <path d="M 18.3125 70.21875 
L 18.3125 54.6875 
L 36.8125 54.6875 
L 36.8125 47.703125 
L 18.3125 47.703125 
L 18.3125 18.015625 
Q 18.3125 11.328125 20.140625 9.421875 
Q 21.96875 7.515625 27.59375 7.515625 
L 36.8125 7.515625 
L 36.8125 0 
L 27.59375 0 
Q 17.1875 0 13.234375 3.875 
Q 9.28125 7.765625 9.28125 18.015625 
L 9.28125 47.703125 
L 2.6875 47.703125 
L 2.6875 54.6875 
L 9.28125 54.6875 
L 9.28125 70.21875 
z
" id="DejaVuSans-116"/>
     </defs>
     <g transform="translate(90.328125 38.916562)scale(0.1 -0.1)">
      <use xlink:href="#DejaVuSans-80"/>
      <use x="58.552734" xlink:href="#DejaVuSans-114"/>
      <use x="97.416016" xlink:href="#DejaVuSans-101"/>
      <use x="158.939453" xlink:href="#DejaVuSans-100"/>
      <use x="222.416016" xlink:href="#DejaVuSans-105"/>
      <use x="250.199219" xlink:href="#DejaVuSans-99"/>
      <use x="305.179688" xlink:href="#DejaVuSans-116"/>
      <use x="344.388672" xlink:href="#DejaVuSans-101"/>
      <use x="405.912109" xlink:href="#DejaVuSans-100"/>
     </g>
    </g>
    <g id="line2d_29">
     <path d="M 62.328125 50.094687 
L 82.328125 50.094687 
" style="fill:none;stroke:#ff7f0e;stroke-linecap:square;stroke-width:1.5;"/>
    </g>
    <g id="line2d_30"/>
    <g id="text_17">
     <!-- True value -->
     <defs>
      <path d="M 8.5 21.578125 
L 8.5 54.6875 
L 17.484375 54.6875 
L 17.484375 21.921875 
Q 17.484375 14.15625 20.5 10.265625 
Q 23.53125 6.390625 29.59375 6.390625 
Q 36.859375 6.390625 41.078125 11.03125 
Q 45.3125 15.671875 45.3125 23.6875 
L 45.3125 54.6875 
L 54.296875 54.6875 
L 54.296875 0 
L 45.3125 0 
L 45.3125 8.40625 
Q 42.046875 3.421875 37.71875 1 
Q 33.40625 -1.421875 27.6875 -1.421875 
Q 18.265625 -1.421875 13.375 4.4375 
Q 8.5 10.296875 8.5 21.578125 
z
M 31.109375 56 
z
" id="DejaVuSans-117"/>
      <path d="M 2.984375 54.6875 
L 12.5 54.6875 
L 29.59375 8.796875 
L 46.6875 54.6875 
L 56.203125 54.6875 
L 35.6875 0 
L 23.484375 0 
z
" id="DejaVuSans-118"/>
      <path d="M 9.421875 75.984375 
L 18.40625 75.984375 
L 18.40625 0 
L 9.421875 0 
z
" id="DejaVuSans-108"/>
     </defs>
     <g transform="translate(90.328125 53.594687)scale(0.1 -0.1)">
      <use xlink:href="#DejaVuSans-84"/>
      <use x="46.333984" xlink:href="#DejaVuSans-114"/>
      <use x="87.447266" xlink:href="#DejaVuSans-117"/>
      <use x="150.826172" xlink:href="#DejaVuSans-101"/>
      <use x="212.349609" xlink:href="#DejaVuSans-32"/>
      <use x="244.136719" xlink:href="#DejaVuSans-118"/>
      <use x="303.316406" xlink:href="#DejaVuSans-97"/>
      <use x="364.595703" xlink:href="#DejaVuSans-108"/>
      <use x="392.378906" xlink:href="#DejaVuSans-117"/>
      <use x="455.757812" xlink:href="#DejaVuSans-101"/>
     </g>
    </g>
   </g>
  </g>
 </g>
 <defs>
  <clipPath id="p503fa791b9">
   <rect height="266.112" width="357.12" x="53.328125" y="22.318125"/>
  </clipPath>
 </defs>
</svg>
