<?xml version="1.0" encoding="utf-8" standalone="no"?>
<!DOCTYPE svg PUBLIC "-//W3C//DTD SVG 1.1//EN"
  "http://www.w3.org/Graphics/SVG/1.1/DTD/svg11.dtd">
<!-- Created with matplotlib (https://matplotlib.org/) -->
<svg height="325.986375pt" version="1.1" viewBox="0 0 411.285625 325.986375" width="411.285625pt" xmlns="http://www.w3.org/2000/svg" xmlns:xlink="http://www.w3.org/1999/xlink">
 <defs>
  <style type="text/css">
*{stroke-linecap:butt;stroke-linejoin:round;}
  </style>
 </defs>
 <g id="figure_1">
  <g id="patch_1">
   <path d="M 0 325.986375 
L 411.285625 325.986375 
L 411.285625 0 
L 0 0 
z
" style="fill:#ffffff;"/>
  </g>
  <g id="axes_1">
   <g id="patch_2">
    <path d="M 46.965625 288.430125 
L 404.085625 288.430125 
L 404.085625 22.318125 
L 46.965625 22.318125 
z
" style="fill:#ffffff;"/>
   </g>
   <g id="matplotlib.axis_1">
    <g id="xtick_1">
     <g id="line2d_1">
      <path clip-path="url(#p51e1aa759b)" d="M 63.198352 288.430125 
L 63.198352 22.318125 
" style="fill:none;stroke:#b0b0b0;stroke-dasharray:2.96,1.28;stroke-dashoffset:0;stroke-width:0.8;"/>
     </g>
     <g id="line2d_2">
      <defs>
       <path d="M 0 0 
L 0 3.5 
" id="me6e91654f7" style="stroke:#000000;stroke-width:0.8;"/>
      </defs>
      <g>
       <use style="stroke:#000000;stroke-width:0.8;" x="63.198352" xlink:href="#me6e91654f7" y="288.430125"/>
      </g>
     </g>
     <g id="text_1">
      <!-- 0 -->
      <defs>
       <path d="M 31.78125 66.40625 
Q 24.171875 66.40625 20.328125 58.90625 
Q 16.5 51.421875 16.5 36.375 
Q 16.5 21.390625 20.328125 13.890625 
Q 24.171875 6.390625 31.78125 6.390625 
Q 39.453125 6.390625 43.28125 13.890625 
Q 47.125 21.390625 47.125 36.375 
Q 47.125 51.421875 43.28125 58.90625 
Q 39.453125 66.40625 31.78125 66.40625 
z
M 31.78125 74.21875 
Q 44.046875 74.21875 50.515625 64.515625 
Q 56.984375 54.828125 56.984375 36.375 
Q 56.984375 17.96875 50.515625 8.265625 
Q 44.046875 -1.421875 31.78125 -1.421875 
Q 19.53125 -1.421875 13.0625 8.265625 
Q 6.59375 17.96875 6.59375 36.375 
Q 6.59375 54.828125 13.0625 64.515625 
Q 19.53125 74.21875 31.78125 74.21875 
z
" id="DejaVuSans-48"/>
      </defs>
      <g transform="translate(60.017102 303.028562)scale(0.1 -0.1)">
       <use xlink:href="#DejaVuSans-48"/>
      </g>
     </g>
    </g>
    <g id="xtick_2">
     <g id="line2d_3">
      <path clip-path="url(#p51e1aa759b)" d="M 112.128954 288.430125 
L 112.128954 22.318125 
" style="fill:none;stroke:#b0b0b0;stroke-dasharray:2.96,1.28;stroke-dashoffset:0;stroke-width:0.8;"/>
     </g>
     <g id="line2d_4">
      <g>
       <use style="stroke:#000000;stroke-width:0.8;" x="112.128954" xlink:href="#me6e91654f7" y="288.430125"/>
      </g>
     </g>
     <g id="text_2">
      <!-- 200 -->
      <defs>
       <path d="M 19.1875 8.296875 
L 53.609375 8.296875 
L 53.609375 0 
L 7.328125 0 
L 7.328125 8.296875 
Q 12.9375 14.109375 22.625 23.890625 
Q 32.328125 33.6875 34.8125 36.53125 
Q 39.546875 41.84375 41.421875 45.53125 
Q 43.3125 49.21875 43.3125 52.78125 
Q 43.3125 58.59375 39.234375 62.25 
Q 35.15625 65.921875 28.609375 65.921875 
Q 23.96875 65.921875 18.8125 64.3125 
Q 13.671875 62.703125 7.8125 59.421875 
L 7.8125 69.390625 
Q 13.765625 71.78125 18.9375 73 
Q 24.125 74.21875 28.421875 74.21875 
Q 39.75 74.21875 46.484375 68.546875 
Q 53.21875 62.890625 53.21875 53.421875 
Q 53.21875 48.921875 51.53125 44.890625 
Q 49.859375 40.875 45.40625 35.40625 
Q 44.1875 33.984375 37.640625 27.21875 
Q 31.109375 20.453125 19.1875 8.296875 
z
" id="DejaVuSans-50"/>
      </defs>
      <g transform="translate(102.585204 303.028562)scale(0.1 -0.1)">
       <use xlink:href="#DejaVuSans-50"/>
       <use x="63.623047" xlink:href="#DejaVuSans-48"/>
       <use x="127.246094" xlink:href="#DejaVuSans-48"/>
      </g>
     </g>
    </g>
    <g id="xtick_3">
     <g id="line2d_5">
      <path clip-path="url(#p51e1aa759b)" d="M 161.059557 288.430125 
L 161.059557 22.318125 
" style="fill:none;stroke:#b0b0b0;stroke-dasharray:2.96,1.28;stroke-dashoffset:0;stroke-width:0.8;"/>
     </g>
     <g id="line2d_6">
      <g>
       <use style="stroke:#000000;stroke-width:0.8;" x="161.059557" xlink:href="#me6e91654f7" y="288.430125"/>
      </g>
     </g>
     <g id="text_3">
      <!-- 400 -->
      <defs>
       <path d="M 37.796875 64.3125 
L 12.890625 25.390625 
L 37.796875 25.390625 
z
M 35.203125 72.90625 
L 47.609375 72.90625 
L 47.609375 25.390625 
L 58.015625 25.390625 
L 58.015625 17.1875 
L 47.609375 17.1875 
L 47.609375 0 
L 37.796875 0 
L 37.796875 17.1875 
L 4.890625 17.1875 
L 4.890625 26.703125 
z
" id="DejaVuSans-52"/>
      </defs>
      <g transform="translate(151.515807 303.028562)scale(0.1 -0.1)">
       <use xlink:href="#DejaVuSans-52"/>
       <use x="63.623047" xlink:href="#DejaVuSans-48"/>
       <use x="127.246094" xlink:href="#DejaVuSans-48"/>
      </g>
     </g>
    </g>
    <g id="xtick_4">
     <g id="line2d_7">
      <path clip-path="url(#p51e1aa759b)" d="M 209.990159 288.430125 
L 209.990159 22.318125 
" style="fill:none;stroke:#b0b0b0;stroke-dasharray:2.96,1.28;stroke-dashoffset:0;stroke-width:0.8;"/>
     </g>
     <g id="line2d_8">
      <g>
       <use style="stroke:#000000;stroke-width:0.8;" x="209.990159" xlink:href="#me6e91654f7" y="288.430125"/>
      </g>
     </g>
     <g id="text_4">
      <!-- 600 -->
      <defs>
       <path d="M 33.015625 40.375 
Q 26.375 40.375 22.484375 35.828125 
Q 18.609375 31.296875 18.609375 23.390625 
Q 18.609375 15.53125 22.484375 10.953125 
Q 26.375 6.390625 33.015625 6.390625 
Q 39.65625 6.390625 43.53125 10.953125 
Q 47.40625 15.53125 47.40625 23.390625 
Q 47.40625 31.296875 43.53125 35.828125 
Q 39.65625 40.375 33.015625 40.375 
z
M 52.59375 71.296875 
L 52.59375 62.3125 
Q 48.875 64.0625 45.09375 64.984375 
Q 41.3125 65.921875 37.59375 65.921875 
Q 27.828125 65.921875 22.671875 59.328125 
Q 17.53125 52.734375 16.796875 39.40625 
Q 19.671875 43.65625 24.015625 45.921875 
Q 28.375 48.1875 33.59375 48.1875 
Q 44.578125 48.1875 50.953125 41.515625 
Q 57.328125 34.859375 57.328125 23.390625 
Q 57.328125 12.15625 50.6875 5.359375 
Q 44.046875 -1.421875 33.015625 -1.421875 
Q 20.359375 -1.421875 13.671875 8.265625 
Q 6.984375 17.96875 6.984375 36.375 
Q 6.984375 53.65625 15.1875 63.9375 
Q 23.390625 74.21875 37.203125 74.21875 
Q 40.921875 74.21875 44.703125 73.484375 
Q 48.484375 72.75 52.59375 71.296875 
z
" id="DejaVuSans-54"/>
      </defs>
      <g transform="translate(200.446409 303.028562)scale(0.1 -0.1)">
       <use xlink:href="#DejaVuSans-54"/>
       <use x="63.623047" xlink:href="#DejaVuSans-48"/>
       <use x="127.246094" xlink:href="#DejaVuSans-48"/>
      </g>
     </g>
    </g>
    <g id="xtick_5">
     <g id="line2d_9">
      <path clip-path="url(#p51e1aa759b)" d="M 258.920761 288.430125 
L 258.920761 22.318125 
" style="fill:none;stroke:#b0b0b0;stroke-dasharray:2.96,1.28;stroke-dashoffset:0;stroke-width:0.8;"/>
     </g>
     <g id="line2d_10">
      <g>
       <use style="stroke:#000000;stroke-width:0.8;" x="258.920761" xlink:href="#me6e91654f7" y="288.430125"/>
      </g>
     </g>
     <g id="text_5">
      <!-- 800 -->
      <defs>
       <path d="M 31.78125 34.625 
Q 24.75 34.625 20.71875 30.859375 
Q 16.703125 27.09375 16.703125 20.515625 
Q 16.703125 13.921875 20.71875 10.15625 
Q 24.75 6.390625 31.78125 6.390625 
Q 38.8125 6.390625 42.859375 10.171875 
Q 46.921875 13.96875 46.921875 20.515625 
Q 46.921875 27.09375 42.890625 30.859375 
Q 38.875 34.625 31.78125 34.625 
z
M 21.921875 38.8125 
Q 15.578125 40.375 12.03125 44.71875 
Q 8.5 49.078125 8.5 55.328125 
Q 8.5 64.0625 14.71875 69.140625 
Q 20.953125 74.21875 31.78125 74.21875 
Q 42.671875 74.21875 48.875 69.140625 
Q 55.078125 64.0625 55.078125 55.328125 
Q 55.078125 49.078125 51.53125 44.71875 
Q 48 40.375 41.703125 38.8125 
Q 48.828125 37.15625 52.796875 32.3125 
Q 56.78125 27.484375 56.78125 20.515625 
Q 56.78125 9.90625 50.3125 4.234375 
Q 43.84375 -1.421875 31.78125 -1.421875 
Q 19.734375 -1.421875 13.25 4.234375 
Q 6.78125 9.90625 6.78125 20.515625 
Q 6.78125 27.484375 10.78125 32.3125 
Q 14.796875 37.15625 21.921875 38.8125 
z
M 18.3125 54.390625 
Q 18.3125 48.734375 21.84375 45.5625 
Q 25.390625 42.390625 31.78125 42.390625 
Q 38.140625 42.390625 41.71875 45.5625 
Q 45.3125 48.734375 45.3125 54.390625 
Q 45.3125 60.0625 41.71875 63.234375 
Q 38.140625 66.40625 31.78125 66.40625 
Q 25.390625 66.40625 21.84375 63.234375 
Q 18.3125 60.0625 18.3125 54.390625 
z
" id="DejaVuSans-56"/>
      </defs>
      <g transform="translate(249.377011 303.028562)scale(0.1 -0.1)">
       <use xlink:href="#DejaVuSans-56"/>
       <use x="63.623047" xlink:href="#DejaVuSans-48"/>
       <use x="127.246094" xlink:href="#DejaVuSans-48"/>
      </g>
     </g>
    </g>
    <g id="xtick_6">
     <g id="line2d_11">
      <path clip-path="url(#p51e1aa759b)" d="M 307.851363 288.430125 
L 307.851363 22.318125 
" style="fill:none;stroke:#b0b0b0;stroke-dasharray:2.96,1.28;stroke-dashoffset:0;stroke-width:0.8;"/>
     </g>
     <g id="line2d_12">
      <g>
       <use style="stroke:#000000;stroke-width:0.8;" x="307.851363" xlink:href="#me6e91654f7" y="288.430125"/>
      </g>
     </g>
     <g id="text_6">
      <!-- 1000 -->
      <defs>
       <path d="M 12.40625 8.296875 
L 28.515625 8.296875 
L 28.515625 63.921875 
L 10.984375 60.40625 
L 10.984375 69.390625 
L 28.421875 72.90625 
L 38.28125 72.90625 
L 38.28125 8.296875 
L 54.390625 8.296875 
L 54.390625 0 
L 12.40625 0 
z
" id="DejaVuSans-49"/>
      </defs>
      <g transform="translate(295.126363 303.028562)scale(0.1 -0.1)">
       <use xlink:href="#DejaVuSans-49"/>
       <use x="63.623047" xlink:href="#DejaVuSans-48"/>
       <use x="127.246094" xlink:href="#DejaVuSans-48"/>
       <use x="190.869141" xlink:href="#DejaVuSans-48"/>
      </g>
     </g>
    </g>
    <g id="xtick_7">
     <g id="line2d_13">
      <path clip-path="url(#p51e1aa759b)" d="M 356.781965 288.430125 
L 356.781965 22.318125 
" style="fill:none;stroke:#b0b0b0;stroke-dasharray:2.96,1.28;stroke-dashoffset:0;stroke-width:0.8;"/>
     </g>
     <g id="line2d_14">
      <g>
       <use style="stroke:#000000;stroke-width:0.8;" x="356.781965" xlink:href="#me6e91654f7" y="288.430125"/>
      </g>
     </g>
     <g id="text_7">
      <!-- 1200 -->
      <g transform="translate(344.056965 303.028562)scale(0.1 -0.1)">
       <use xlink:href="#DejaVuSans-49"/>
       <use x="63.623047" xlink:href="#DejaVuSans-50"/>
       <use x="127.246094" xlink:href="#DejaVuSans-48"/>
       <use x="190.869141" xlink:href="#DejaVuSans-48"/>
      </g>
     </g>
    </g>
    <g id="text_8">
     <!-- Day -->
     <defs>
      <path d="M 19.671875 64.796875 
L 19.671875 8.109375 
L 31.59375 8.109375 
Q 46.6875 8.109375 53.6875 14.9375 
Q 60.6875 21.78125 60.6875 36.53125 
Q 60.6875 51.171875 53.6875 57.984375 
Q 46.6875 64.796875 31.59375 64.796875 
z
M 9.8125 72.90625 
L 30.078125 72.90625 
Q 51.265625 72.90625 61.171875 64.09375 
Q 71.09375 55.28125 71.09375 36.53125 
Q 71.09375 17.671875 61.125 8.828125 
Q 51.171875 0 30.078125 0 
L 9.8125 0 
z
" id="DejaVuSans-68"/>
      <path d="M 34.28125 27.484375 
Q 23.390625 27.484375 19.1875 25 
Q 14.984375 22.515625 14.984375 16.5 
Q 14.984375 11.71875 18.140625 8.90625 
Q 21.296875 6.109375 26.703125 6.109375 
Q 34.1875 6.109375 38.703125 11.40625 
Q 43.21875 16.703125 43.21875 25.484375 
L 43.21875 27.484375 
z
M 52.203125 31.203125 
L 52.203125 0 
L 43.21875 0 
L 43.21875 8.296875 
Q 40.140625 3.328125 35.546875 0.953125 
Q 30.953125 -1.421875 24.3125 -1.421875 
Q 15.921875 -1.421875 10.953125 3.296875 
Q 6 8.015625 6 15.921875 
Q 6 25.140625 12.171875 29.828125 
Q 18.359375 34.515625 30.609375 34.515625 
L 43.21875 34.515625 
L 43.21875 35.40625 
Q 43.21875 41.609375 39.140625 45 
Q 35.0625 48.390625 27.6875 48.390625 
Q 23 48.390625 18.546875 47.265625 
Q 14.109375 46.140625 10.015625 43.890625 
L 10.015625 52.203125 
Q 14.9375 54.109375 19.578125 55.046875 
Q 24.21875 56 28.609375 56 
Q 40.484375 56 46.34375 49.84375 
Q 52.203125 43.703125 52.203125 31.203125 
z
" id="DejaVuSans-97"/>
      <path d="M 32.171875 -5.078125 
Q 28.375 -14.84375 24.75 -17.8125 
Q 21.140625 -20.796875 15.09375 -20.796875 
L 7.90625 -20.796875 
L 7.90625 -13.28125 
L 13.1875 -13.28125 
Q 16.890625 -13.28125 18.9375 -11.515625 
Q 21 -9.765625 23.484375 -3.21875 
L 25.09375 0.875 
L 2.984375 54.6875 
L 12.5 54.6875 
L 29.59375 11.921875 
L 46.6875 54.6875 
L 56.203125 54.6875 
z
" id="DejaVuSans-121"/>
     </defs>
     <g transform="translate(215.652188 316.706687)scale(0.1 -0.1)">
      <use xlink:href="#DejaVuSans-68"/>
      <use x="77.001953" xlink:href="#DejaVuSans-97"/>
      <use x="138.28125" xlink:href="#DejaVuSans-121"/>
     </g>
    </g>
   </g>
   <g id="matplotlib.axis_2">
    <g id="ytick_1">
     <g id="line2d_15">
      <path clip-path="url(#p51e1aa759b)" d="M 46.965625 242.794468 
L 404.085625 242.794468 
" style="fill:none;stroke:#b0b0b0;stroke-dasharray:2.96,1.28;stroke-dashoffset:0;stroke-width:0.8;"/>
     </g>
     <g id="line2d_16">
      <defs>
       <path d="M 0 0 
L -3.5 0 
" id="mb41d42efba" style="stroke:#000000;stroke-width:0.8;"/>
      </defs>
      <g>
       <use style="stroke:#000000;stroke-width:0.8;" x="46.965625" xlink:href="#mb41d42efba" y="242.794468"/>
      </g>
     </g>
     <g id="text_9">
      <!-- 100 -->
      <g transform="translate(20.878125 246.593686)scale(0.1 -0.1)">
       <use xlink:href="#DejaVuSans-49"/>
       <use x="63.623047" xlink:href="#DejaVuSans-48"/>
       <use x="127.246094" xlink:href="#DejaVuSans-48"/>
      </g>
     </g>
    </g>
    <g id="ytick_2">
     <g id="line2d_17">
      <path clip-path="url(#p51e1aa759b)" d="M 46.965625 192.247386 
L 404.085625 192.247386 
" style="fill:none;stroke:#b0b0b0;stroke-dasharray:2.96,1.28;stroke-dashoffset:0;stroke-width:0.8;"/>
     </g>
     <g id="line2d_18">
      <g>
       <use style="stroke:#000000;stroke-width:0.8;" x="46.965625" xlink:href="#mb41d42efba" y="192.247386"/>
      </g>
     </g>
     <g id="text_10">
      <!-- 120 -->
      <g transform="translate(20.878125 196.046605)scale(0.1 -0.1)">
       <use xlink:href="#DejaVuSans-49"/>
       <use x="63.623047" xlink:href="#DejaVuSans-50"/>
       <use x="127.246094" xlink:href="#DejaVuSans-48"/>
      </g>
     </g>
    </g>
    <g id="ytick_3">
     <g id="line2d_19">
      <path clip-path="url(#p51e1aa759b)" d="M 46.965625 141.700305 
L 404.085625 141.700305 
" style="fill:none;stroke:#b0b0b0;stroke-dasharray:2.96,1.28;stroke-dashoffset:0;stroke-width:0.8;"/>
     </g>
     <g id="line2d_20">
      <g>
       <use style="stroke:#000000;stroke-width:0.8;" x="46.965625" xlink:href="#mb41d42efba" y="141.700305"/>
      </g>
     </g>
     <g id="text_11">
      <!-- 140 -->
      <g transform="translate(20.878125 145.499524)scale(0.1 -0.1)">
       <use xlink:href="#DejaVuSans-49"/>
       <use x="63.623047" xlink:href="#DejaVuSans-52"/>
       <use x="127.246094" xlink:href="#DejaVuSans-48"/>
      </g>
     </g>
    </g>
    <g id="ytick_4">
     <g id="line2d_21">
      <path clip-path="url(#p51e1aa759b)" d="M 46.965625 91.153224 
L 404.085625 91.153224 
" style="fill:none;stroke:#b0b0b0;stroke-dasharray:2.96,1.28;stroke-dashoffset:0;stroke-width:0.8;"/>
     </g>
     <g id="line2d_22">
      <g>
       <use style="stroke:#000000;stroke-width:0.8;" x="46.965625" xlink:href="#mb41d42efba" y="91.153224"/>
      </g>
     </g>
     <g id="text_12">
      <!-- 160 -->
      <g transform="translate(20.878125 94.952442)scale(0.1 -0.1)">
       <use xlink:href="#DejaVuSans-49"/>
       <use x="63.623047" xlink:href="#DejaVuSans-54"/>
       <use x="127.246094" xlink:href="#DejaVuSans-48"/>
      </g>
     </g>
    </g>
    <g id="ytick_5">
     <g id="line2d_23">
      <path clip-path="url(#p51e1aa759b)" d="M 46.965625 40.606142 
L 404.085625 40.606142 
" style="fill:none;stroke:#b0b0b0;stroke-dasharray:2.96,1.28;stroke-dashoffset:0;stroke-width:0.8;"/>
     </g>
     <g id="line2d_24">
      <g>
       <use style="stroke:#000000;stroke-width:0.8;" x="46.965625" xlink:href="#mb41d42efba" y="40.606142"/>
      </g>
     </g>
     <g id="text_13">
      <!-- 180 -->
      <g transform="translate(20.878125 44.405361)scale(0.1 -0.1)">
       <use xlink:href="#DejaVuSans-49"/>
       <use x="63.623047" xlink:href="#DejaVuSans-56"/>
       <use x="127.246094" xlink:href="#DejaVuSans-48"/>
      </g>
     </g>
    </g>
    <g id="text_14">
     <!-- Price $ -->
     <defs>
      <path d="M 19.671875 64.796875 
L 19.671875 37.40625 
L 32.078125 37.40625 
Q 38.96875 37.40625 42.71875 40.96875 
Q 46.484375 44.53125 46.484375 51.125 
Q 46.484375 57.671875 42.71875 61.234375 
Q 38.96875 64.796875 32.078125 64.796875 
z
M 9.8125 72.90625 
L 32.078125 72.90625 
Q 44.34375 72.90625 50.609375 67.359375 
Q 56.890625 61.8125 56.890625 51.125 
Q 56.890625 40.328125 50.609375 34.8125 
Q 44.34375 29.296875 32.078125 29.296875 
L 19.671875 29.296875 
L 19.671875 0 
L 9.8125 0 
z
" id="DejaVuSans-80"/>
      <path d="M 41.109375 46.296875 
Q 39.59375 47.171875 37.8125 47.578125 
Q 36.03125 48 33.890625 48 
Q 26.265625 48 22.1875 43.046875 
Q 18.109375 38.09375 18.109375 28.8125 
L 18.109375 0 
L 9.078125 0 
L 9.078125 54.6875 
L 18.109375 54.6875 
L 18.109375 46.1875 
Q 20.953125 51.171875 25.484375 53.578125 
Q 30.03125 56 36.53125 56 
Q 37.453125 56 38.578125 55.875 
Q 39.703125 55.765625 41.0625 55.515625 
z
" id="DejaVuSans-114"/>
      <path d="M 9.421875 54.6875 
L 18.40625 54.6875 
L 18.40625 0 
L 9.421875 0 
z
M 9.421875 75.984375 
L 18.40625 75.984375 
L 18.40625 64.59375 
L 9.421875 64.59375 
z
" id="DejaVuSans-105"/>
      <path d="M 48.78125 52.59375 
L 48.78125 44.1875 
Q 44.96875 46.296875 41.140625 47.34375 
Q 37.3125 48.390625 33.40625 48.390625 
Q 24.65625 48.390625 19.8125 42.84375 
Q 14.984375 37.3125 14.984375 27.296875 
Q 14.984375 17.28125 19.8125 11.734375 
Q 24.65625 6.203125 33.40625 6.203125 
Q 37.3125 6.203125 41.140625 7.25 
Q 44.96875 8.296875 48.78125 10.40625 
L 48.78125 2.09375 
Q 45.015625 0.34375 40.984375 -0.53125 
Q 36.96875 -1.421875 32.421875 -1.421875 
Q 20.0625 -1.421875 12.78125 6.34375 
Q 5.515625 14.109375 5.515625 27.296875 
Q 5.515625 40.671875 12.859375 48.328125 
Q 20.21875 56 33.015625 56 
Q 37.15625 56 41.109375 55.140625 
Q 45.0625 54.296875 48.78125 52.59375 
z
" id="DejaVuSans-99"/>
      <path d="M 56.203125 29.59375 
L 56.203125 25.203125 
L 14.890625 25.203125 
Q 15.484375 15.921875 20.484375 11.0625 
Q 25.484375 6.203125 34.421875 6.203125 
Q 39.59375 6.203125 44.453125 7.46875 
Q 49.3125 8.734375 54.109375 11.28125 
L 54.109375 2.78125 
Q 49.265625 0.734375 44.1875 -0.34375 
Q 39.109375 -1.421875 33.890625 -1.421875 
Q 20.796875 -1.421875 13.15625 6.1875 
Q 5.515625 13.8125 5.515625 26.8125 
Q 5.515625 40.234375 12.765625 48.109375 
Q 20.015625 56 32.328125 56 
Q 43.359375 56 49.78125 48.890625 
Q 56.203125 41.796875 56.203125 29.59375 
z
M 47.21875 32.234375 
Q 47.125 39.59375 43.09375 43.984375 
Q 39.0625 48.390625 32.421875 48.390625 
Q 24.90625 48.390625 20.390625 44.140625 
Q 15.875 39.890625 15.1875 32.171875 
z
" id="DejaVuSans-101"/>
      <path id="DejaVuSans-32"/>
      <path d="M 33.796875 -14.703125 
L 28.90625 -14.703125 
L 28.859375 0 
Q 23.734375 0.09375 18.609375 1.1875 
Q 13.484375 2.296875 8.296875 4.5 
L 8.296875 13.28125 
Q 13.28125 10.15625 18.375 8.5625 
Q 23.484375 6.984375 28.90625 6.9375 
L 28.90625 29.203125 
Q 18.109375 30.953125 13.203125 35.15625 
Q 8.296875 39.359375 8.296875 46.6875 
Q 8.296875 54.640625 13.625 59.21875 
Q 18.953125 63.8125 28.90625 64.5 
L 28.90625 75.984375 
L 33.796875 75.984375 
L 33.796875 64.65625 
Q 38.328125 64.453125 42.578125 63.6875 
Q 46.828125 62.9375 50.875 61.625 
L 50.875 53.078125 
Q 46.828125 55.125 42.546875 56.25 
Q 38.28125 57.375 33.796875 57.5625 
L 33.796875 36.71875 
Q 44.875 35.015625 50.09375 30.609375 
Q 55.328125 26.21875 55.328125 18.609375 
Q 55.328125 10.359375 49.78125 5.59375 
Q 44.234375 0.828125 33.796875 0.09375 
z
M 28.90625 37.59375 
L 28.90625 57.625 
Q 23.25 56.984375 20.265625 54.390625 
Q 17.28125 51.8125 17.28125 47.515625 
Q 17.28125 43.3125 20.03125 40.96875 
Q 22.796875 38.625 28.90625 37.59375 
z
M 33.796875 28.21875 
L 33.796875 7.078125 
Q 39.984375 7.90625 43.140625 10.59375 
Q 46.296875 13.28125 46.296875 17.671875 
Q 46.296875 21.96875 43.28125 24.5 
Q 40.28125 27.046875 33.796875 28.21875 
z
" id="DejaVuSans-36"/>
     </defs>
     <g transform="translate(14.798438 172.342094)rotate(-90)scale(0.1 -0.1)">
      <use xlink:href="#DejaVuSans-80"/>
      <use x="58.552734" xlink:href="#DejaVuSans-114"/>
      <use x="99.666016" xlink:href="#DejaVuSans-105"/>
      <use x="127.449219" xlink:href="#DejaVuSans-99"/>
      <use x="182.429688" xlink:href="#DejaVuSans-101"/>
      <use x="243.953125" xlink:href="#DejaVuSans-32"/>
      <use x="275.740234" xlink:href="#DejaVuSans-36"/>
     </g>
    </g>
   </g>
   <g id="line2d_25">
    <path clip-path="url(#p51e1aa759b)" d="M 63.198352 276.334125 
L 63.443005 262.321957 
L 63.687658 260.747837 
L 63.932311 261.557977 
L 64.176964 261.064643 
L 64.421617 256.575365 
L 65.400229 260.692111 
L 65.644882 260.938884 
L 65.889535 260.044577 
L 66.134188 260.163432 
L 66.378841 258.58748 
L 66.623494 259.096838 
L 67.357453 262.108464 
L 67.602106 261.598296 
L 67.846759 263.099144 
L 68.091412 259.590597 
L 68.336066 258.034988 
L 68.580719 258.157102 
L 68.825372 257.151247 
L 69.070025 253.987195 
L 69.314678 255.30897 
L 69.803984 253.807119 
L 70.048637 249.847967 
L 70.29329 250.26826 
L 70.537943 248.368368 
L 70.782596 250.21749 
L 71.271902 243.206933 
L 71.516555 244.526142 
L 71.761208 244.369552 
L 72.250514 245.1118 
L 72.495167 243.52532 
L 72.73982 243.96343 
L 72.984473 243.159672 
L 73.718432 249.299581 
L 73.963085 249.337143 
L 74.207738 248.184898 
L 74.452391 249.883369 
L 74.697044 249.529097 
L 74.941697 245.930039 
L 75.18635 245.519618 
L 75.431003 246.611452 
L 75.675656 250.706197 
L 75.920309 246.767137 
L 76.164962 253.150869 
L 76.654268 257.664731 
L 76.898921 256.682439 
L 77.143574 257.120878 
L 77.388227 258.217648 
L 77.63288 261.662082 
L 77.877533 261.558228 
L 78.122186 261.305169 
L 78.366839 260.186687 
L 78.611492 257.81895 
L 78.856145 256.721042 
L 79.100798 254.721769 
L 79.590104 258.962307 
L 80.07941 252.875173 
L 80.324063 256.609649 
L 80.568716 262.106112 
L 81.058022 259.724107 
L 81.547328 264.489602 
L 81.791981 262.315112 
L 82.036634 261.274471 
L 82.52594 258.689271 
L 82.770593 259.290007 
L 83.015246 256.699813 
L 83.259899 260.583572 
L 83.504552 260.747181 
L 83.749205 247.218938 
L 83.993858 247.440683 
L 84.238511 242.276645 
L 84.483164 239.825609 
L 84.727817 239.226666 
L 84.97247 236.153877 
L 85.217123 253.227516 
L 85.461776 254.125179 
L 85.706429 253.025574 
L 86.195735 256.732804 
L 86.440388 256.244946 
L 86.685041 257.919102 
L 86.929694 253.288698 
L 87.174347 251.727112 
L 87.419 254.232253 
L 87.663653 253.414534 
L 87.908306 253.16562 
L 88.152959 252.648414 
L 88.397612 254.34193 
L 88.886918 258.50422 
L 89.131571 254.73546 
L 89.376224 248.419851 
L 89.620877 245.787409 
L 89.86553 246.180091 
L 90.110183 248.532633 
L 90.354836 249.417762 
L 90.599489 249.042781 
L 91.088796 251.166251 
L 91.333449 251.212663 
L 91.822755 248.362409 
L 92.067408 249.570515 
L 92.312061 249.782484 
L 92.556714 247.302661 
L 92.801367 246.951262 
L 93.04602 245.574148 
L 93.290673 246.619088 
L 93.535326 246.505632 
L 93.779979 244.345179 
L 94.024632 246.135375 
L 94.269285 246.538778 
L 94.513938 242.778521 
L 94.758591 246.110868 
L 95.003244 244.486595 
L 95.247897 248.041072 
L 95.49255 247.807931 
L 95.737203 245.621717 
L 95.981856 247.220499 
L 96.471162 248.552493 
L 96.715815 247.697483 
L 96.960468 247.479266 
L 97.205121 247.940631 
L 97.694427 250.488212 
L 97.93908 249.367165 
L 98.428386 253.452365 
L 98.917692 249.182326 
L 99.162345 249.263581 
L 99.406998 244.673825 
L 99.651651 244.742122 
L 100.140957 247.479286 
L 100.38561 244.915411 
L 100.630263 245.842055 
L 100.874916 243.236107 
L 101.119569 243.435311 
L 101.364222 244.984422 
L 101.608875 247.811113 
L 101.853528 248.202444 
L 102.098181 247.366157 
L 103.076793 239.313725 
L 103.566099 236.053166 
L 104.055405 237.812048 
L 104.300058 233.669156 
L 104.544711 236.477933 
L 104.789364 236.676906 
L 105.034017 238.047098 
L 105.27867 235.087862 
L 105.523323 237.780348 
L 105.767976 238.088323 
L 106.257282 237.5904 
L 106.501935 241.791929 
L 106.746588 238.784429 
L 106.991241 240.402339 
L 107.235894 242.846703 
L 107.480547 241.605528 
L 107.7252 239.707101 
L 107.969853 234.980981 
L 108.214506 233.663718 
L 108.459159 230.329887 
L 108.703812 230.07004 
L 108.948465 231.416322 
L 109.437771 232.089135 
L 109.682424 231.194249 
L 109.927077 228.673374 
L 110.17173 230.152452 
L 110.416383 228.46987 
L 110.661036 228.809198 
L 110.905689 229.981574 
L 111.150342 228.125105 
L 111.394995 227.890749 
L 111.884301 221.173628 
L 112.128954 223.695872 
L 112.373607 220.762686 
L 112.61826 222.618654 
L 112.862913 219.530709 
L 113.107566 219.499124 
L 113.35222 220.016003 
L 113.596873 217.272553 
L 113.841526 216.090613 
L 114.575485 228.135671 
L 114.820138 226.167944 
L 115.064791 226.352802 
L 115.309444 228.460576 
L 115.554097 223.838155 
L 115.79875 225.761206 
L 116.288056 227.570298 
L 116.532709 229.305097 
L 116.777362 226.062374 
L 117.022015 225.66599 
L 117.511321 223.073655 
L 117.755974 227.179969 
L 118.000627 233.439621 
L 118.979239 225.144002 
L 119.223892 224.367663 
L 119.468545 226.448519 
L 119.713198 226.777589 
L 119.957851 225.892267 
L 120.202504 225.571218 
L 120.936463 220.035825 
L 121.181116 218.986218 
L 121.425769 214.057789 
L 121.670422 212.423104 
L 121.915075 213.363187 
L 122.404381 209.707247 
L 122.649034 210.375433 
L 122.893687 208.047244 
L 123.13834 208.052952 
L 123.382993 205.704825 
L 123.627646 208.306127 
L 123.872299 209.532551 
L 124.116952 211.648616 
L 124.361605 210.581424 
L 124.606258 210.710673 
L 124.850911 209.797218 
L 125.58487 203.322936 
L 125.829523 204.439259 
L 126.074176 204.910978 
L 126.563482 213.773223 
L 126.808135 213.964059 
L 127.052788 213.935752 
L 127.542094 222.808217 
L 127.786747 223.021863 
L 128.0314 222.641773 
L 128.276053 220.719648 
L 128.520706 222.422419 
L 128.765359 222.47585 
L 129.010012 220.207725 
L 129.254665 222.819844 
L 129.499318 223.569882 
L 129.743971 226.289904 
L 130.233277 223.228144 
L 130.47793 222.897917 
L 130.722583 224.1765 
L 130.967236 217.073214 
L 131.211889 217.244247 
L 131.456542 214.942552 
L 131.945848 205.419777 
L 132.435154 210.624481 
L 132.679807 210.218225 
L 133.169113 206.975714 
L 133.413766 205.42452 
L 133.658419 208.25501 
L 133.903072 209.270814 
L 134.392378 214.619499 
L 134.637031 212.365739 
L 135.126337 215.40465 
L 135.37099 215.513825 
L 135.615643 216.112094 
L 135.860297 217.089083 
L 136.10495 217.228455 
L 136.594256 222.383565 
L 136.838909 217.1198 
L 137.083562 214.452476 
L 137.572868 212.880805 
L 137.817521 214.862107 
L 138.306827 207.594306 
L 138.796133 209.938421 
L 139.040786 208.774529 
L 139.285439 209.917616 
L 139.530092 212.509237 
L 139.774745 211.801658 
L 140.019398 209.823307 
L 140.264051 206.37544 
L 140.508704 208.371088 
L 140.753357 208.217139 
L 140.99801 204.572672 
L 141.242663 202.721891 
L 141.487316 203.103929 
L 141.731969 194.132162 
L 141.976622 196.612679 
L 142.221275 196.896282 
L 142.465928 196.511332 
L 142.710581 197.322533 
L 143.44454 193.081186 
L 143.689193 195.388724 
L 143.933846 194.766931 
L 144.178499 196.866529 
L 144.667805 191.158386 
L 145.157111 190.792989 
L 145.401764 190.127272 
L 145.646417 190.033985 
L 145.89107 193.721451 
L 146.135723 193.965564 
L 146.380376 196.137239 
L 146.625029 200.510109 
L 146.869682 198.703793 
L 147.114335 199.267006 
L 147.603641 206.238325 
L 148.092947 208.117663 
L 148.3376 208.259715 
L 148.582253 209.373974 
L 148.826906 207.667674 
L 149.071559 208.349608 
L 149.560865 206.461458 
L 150.294824 207.179565 
L 150.539477 206.699767 
L 150.78413 205.733344 
L 151.028783 208.764098 
L 151.273436 209.854409 
L 151.762742 213.547313 
L 152.007395 217.450451 
L 152.252048 207.852243 
L 152.496701 208.636816 
L 152.741354 215.753696 
L 152.986007 212.843995 
L 153.23066 212.701712 
L 153.475313 214.211931 
L 153.719966 212.511185 
L 154.453925 220.734842 
L 154.698578 222.709338 
L 155.187884 217.513619 
L 155.432537 222.012769 
L 155.67719 221.280104 
L 155.921843 222.077518 
L 156.166496 226.824656 
L 156.411149 225.516669 
L 156.655802 226.629077 
L 156.900455 218.088459 
L 157.389761 218.809189 
L 157.634414 216.35287 
L 157.879067 216.378747 
L 158.12372 214.147162 
L 158.368374 213.27634 
L 158.85768 215.921856 
L 159.102333 215.588698 
L 159.346986 219.56773 
L 159.591639 218.245551 
L 159.836292 214.78438 
L 160.570251 211.547828 
L 160.814904 213.836063 
L 161.059557 211.687084 
L 161.30421 211.885304 
L 161.548863 218.912753 
L 161.793516 218.960245 
L 162.038169 216.423886 
L 162.282822 216.099483 
L 162.527475 215.403261 
L 162.772128 216.923873 
L 163.016781 219.377435 
L 163.261434 219.335264 
L 163.506087 218.550383 
L 163.75074 220.651119 
L 163.995393 220.211003 
L 164.240046 219.053957 
L 164.484699 219.644801 
L 164.729352 218.451369 
L 164.974005 221.567485 
L 165.218658 222.746379 
L 165.707964 223.831445 
L 165.952617 223.393894 
L 166.19727 224.13593 
L 166.441923 223.931867 
L 166.686576 226.407911 
L 166.931229 226.317092 
L 167.175882 221.863756 
L 167.420535 220.684246 
L 167.665188 222.509459 
L 167.909841 222.75413 
L 168.154494 221.325147 
L 168.399147 222.916814 
L 168.6438 219.515977 
L 168.888453 219.262378 
L 169.133106 217.864323 
L 169.377759 219.012674 
L 169.622412 216.592027 
L 169.867065 215.512668 
L 170.111718 215.745231 
L 170.356371 214.881331 
L 170.601024 214.882662 
L 171.09033 214.343069 
L 171.334983 215.326827 
L 171.579636 216.931239 
L 172.068942 223.209209 
L 172.313595 217.104895 
L 172.802901 212.709656 
L 173.047554 213.240765 
L 173.53686 217.545666 
L 173.781513 214.256107 
L 174.026166 213.082767 
L 174.270819 216.149019 
L 174.515472 217.577616 
L 175.004778 216.238083 
L 175.249431 218.320058 
L 175.494084 217.747762 
L 175.738737 217.934626 
L 175.98339 214.150382 
L 176.228043 214.635908 
L 176.472696 214.602511 
L 176.717349 213.01443 
L 176.962002 209.638352 
L 177.206655 208.625767 
L 177.695961 210.71154 
L 178.185267 214.540403 
L 178.42992 214.447135 
L 178.674573 213.840691 
L 178.919226 213.898943 
L 179.163879 212.444449 
L 179.408532 213.125746 
L 179.653185 215.270446 
L 179.897838 215.433322 
L 180.142491 212.751036 
L 180.387144 213.421824 
L 180.631798 214.563908 
L 181.121104 215.594425 
L 181.365757 214.947488 
L 181.855063 212.908456 
L 182.099716 213.033655 
L 182.344369 210.296723 
L 182.589022 208.999032 
L 182.833675 208.415302 
L 183.078328 208.552187 
L 183.322981 209.93173 
L 183.567634 209.244533 
L 183.812287 208.966966 
L 184.05694 211.160198 
L 184.301593 209.576321 
L 184.546246 210.550399 
L 184.790899 209.504244 
L 185.035552 209.380048 
L 185.280205 208.062284 
L 185.769511 210.699315 
L 186.014164 206.482592 
L 186.50347 209.750806 
L 186.992776 208.187213 
L 187.237429 208.3337 
L 187.482082 204.793897 
L 187.726735 208.459054 
L 187.971388 205.835154 
L 188.216041 205.559014 
L 188.705347 207.086837 
L 188.95 205.926358 
L 189.194653 206.994746 
L 189.439306 205.182683 
L 189.683959 202.409019 
L 189.928612 201.552774 
L 190.173265 199.997319 
L 190.417918 200.732047 
L 190.662571 200.330361 
L 190.907224 200.96783 
L 191.151877 200.703683 
L 191.39653 201.261517 
L 191.641183 201.206813 
L 191.885836 200.041707 
L 192.130489 200.458452 
L 192.619795 186.641632 
L 193.109101 188.651047 
L 193.353754 188.757601 
L 193.598407 189.226216 
L 193.84306 190.831592 
L 194.087713 190.054385 
L 194.332366 188.270051 
L 194.577019 189.066366 
L 194.821672 188.081645 
L 195.066325 188.038819 
L 195.310978 189.499868 
L 195.555631 190.236621 
L 195.800284 185.642024 
L 196.044937 189.611474 
L 196.28959 190.355727 
L 196.534243 190.593399 
L 196.778896 190.635145 
L 197.023549 191.910662 
L 197.268202 190.201296 
L 197.512855 186.841646 
L 198.002161 190.53966 
L 198.246814 182.523517 
L 198.491467 183.580335 
L 198.73612 182.487247 
L 198.980773 186.582455 
L 199.225426 188.313474 
L 199.714732 195.727646 
L 199.959385 192.407968 
L 200.204038 182.979425 
L 200.448691 178.536772 
L 200.937997 177.519097 
L 201.18265 177.885054 
L 201.427303 176.615052 
L 201.671956 176.131898 
L 202.650568 168.712983 
L 202.895221 163.518479 
L 203.139875 163.221649 
L 203.629181 160.371048 
L 203.873834 160.338886 
L 204.118487 161.750264 
L 204.36314 162.37867 
L 204.607793 158.071455 
L 204.852446 158.913662 
L 205.097099 158.487565 
L 205.586405 155.082254 
L 205.831058 156.095996 
L 206.075711 155.230804 
L 206.320364 154.94026 
L 206.565017 157.066082 
L 206.80967 155.49686 
L 207.054323 150.021106 
L 207.298976 149.992337 
L 207.543629 147.867942 
L 207.788282 148.133226 
L 208.277588 147.086474 
L 208.522241 148.969263 
L 208.766894 147.538911 
L 209.011547 154.204144 
L 209.2562 151.460907 
L 209.500853 159.751897 
L 209.745506 159.215814 
L 209.990159 161.055681 
L 210.479465 150.616733 
L 210.724118 150.497106 
L 211.213424 144.829225 
L 211.70273 146.489652 
L 211.947383 146.956242 
L 212.192036 146.687525 
L 212.436689 150.689118 
L 212.681342 151.380114 
L 212.925995 154.306725 
L 213.659954 141.464792 
L 213.904607 146.749845 
L 214.14926 148.368507 
L 214.638566 155.919641 
L 214.883219 156.083193 
L 215.127872 155.357797 
L 215.617178 156.655642 
L 215.861831 151.935865 
L 216.351137 147.617197 
L 216.840443 155.162276 
L 217.085096 153.084351 
L 217.574402 140.219241 
L 217.819055 122.421402 
L 218.063708 116.288511 
L 218.308361 120.542623 
L 218.553014 121.695852 
L 218.797667 124.471406 
L 219.04232 122.775268 
L 219.286973 124.023288 
L 219.531626 123.968064 
L 219.776279 124.833448 
L 220.020932 124.434886 
L 220.510238 126.120727 
L 220.999544 122.153456 
L 221.244197 122.581212 
L 221.733503 126.508453 
L 221.978156 125.685566 
L 222.222809 123.691442 
L 222.467462 124.665809 
L 222.712115 125.072779 
L 222.956768 115.527019 
L 223.201421 118.957975 
L 223.446074 116.516504 
L 223.690727 122.284961 
L 223.93538 124.443023 
L 224.180033 118.965148 
L 224.424686 119.635744 
L 224.669339 118.062857 
L 224.913992 118.015076 
L 225.892605 111.063773 
L 226.137258 110.22735 
L 226.381911 115.317615 
L 226.626564 117.676674 
L 226.871217 116.777237 
L 227.11587 112.057075 
L 227.360523 113.875076 
L 227.605176 117.719095 
L 227.849829 113.431085 
L 228.094482 112.344187 
L 228.339135 113.159399 
L 228.583788 112.87973 
L 228.828441 120.602321 
L 229.073094 119.014279 
L 229.317747 120.253043 
L 229.5624 119.397879 
L 229.807053 120.421068 
L 230.296359 131.625789 
L 230.785665 125.102396 
L 231.030318 126.033417 
L 231.274971 125.131898 
L 231.519624 123.300901 
L 231.764277 126.138389 
L 232.00893 127.133735 
L 232.498236 135.583264 
L 232.742889 130.277309 
L 232.987542 129.047222 
L 233.232195 132.148915 
L 233.476848 131.622781 
L 233.721501 131.833381 
L 233.966154 128.87723 
L 234.210807 132.882872 
L 234.45546 133.219693 
L 234.944766 136.918517 
L 235.189419 131.169149 
L 235.434072 130.620956 
L 235.678725 131.166179 
L 235.923378 134.174778 
L 236.168031 133.356288 
L 236.657337 134.91209 
L 236.90199 129.930886 
L 237.146643 132.367845 
L 237.391296 136.505801 
L 237.635949 137.179598 
L 237.880602 139.688942 
L 238.125255 137.864115 
L 238.859214 147.75302 
L 239.103867 148.237157 
L 239.34852 144.507868 
L 239.593173 145.03404 
L 239.837826 146.346231 
L 240.082479 149.863416 
L 240.327132 148.433411 
L 240.571785 146.162703 
L 240.816438 142.381005 
L 241.305744 142.933169 
L 241.550397 144.360899 
L 242.039703 149.974636 
L 242.284356 148.452578 
L 242.529009 153.815569 
L 242.773662 155.660913 
L 243.018315 152.337282 
L 243.262968 152.629792 
L 243.507621 153.950352 
L 243.752274 143.079174 
L 243.996927 143.854395 
L 244.24158 145.011403 
L 244.486233 137.051371 
L 244.730886 133.329447 
L 244.975539 133.572403 
L 245.220192 134.466055 
L 245.464845 132.437492 
L 245.954151 130.948715 
L 246.198804 130.936683 
L 246.443457 127.5994 
L 247.177416 132.632281 
L 247.422069 131.922658 
L 247.666722 129.942956 
L 248.156029 130.190115 
L 248.400682 129.567609 
L 248.645335 131.479669 
L 248.889988 126.45319 
L 249.134641 127.381319 
L 249.379294 130.13493 
L 249.623947 127.884198 
L 249.8686 128.672723 
L 250.113253 127.09143 
L 250.357906 129.890856 
L 250.602559 128.257308 
L 250.847212 128.174549 
L 251.336518 130.365082 
L 251.581171 133.895765 
L 252.070477 160.09782 
L 252.31513 161.521616 
L 252.559783 148.426663 
L 252.804436 143.083763 
L 253.049089 143.565509 
L 253.293742 143.215962 
L 253.538395 147.475935 
L 253.783048 142.624886 
L 254.027701 142.246878 
L 254.272354 147.186857 
L 254.517007 140.058504 
L 254.76166 143.985436 
L 255.006313 143.335935 
L 255.250966 140.969395 
L 255.495619 140.615489 
L 255.984925 134.533388 
L 256.229578 135.116211 
L 256.474231 139.053363 
L 256.718884 135.770957 
L 256.963537 136.733446 
L 257.20819 130.167941 
L 257.452843 131.329731 
L 257.697496 129.894712 
L 257.942149 134.376894 
L 258.186802 134.237291 
L 258.431455 132.237536 
L 258.676108 132.057132 
L 258.920761 128.783519 
L 259.165414 123.677096 
L 259.410067 122.691931 
L 259.65472 123.614853 
L 260.144026 108.784735 
L 260.388679 109.381981 
L 260.633332 112.572411 
L 260.877985 118.446072 
L 261.122638 113.805468 
L 261.367291 112.950997 
L 262.10125 104.955255 
L 262.345903 97.942094 
L 262.590556 103.620349 
L 263.079862 98.937517 
L 263.324515 98.492562 
L 263.569168 97.261047 
L 263.813821 97.809201 
L 264.058474 95.432788 
L 264.303127 96.307197 
L 264.792433 102.659904 
L 265.037086 99.164854 
L 265.281739 104.994166 
L 265.526392 102.31753 
L 265.771045 102.361262 
L 266.015698 103.510017 
L 266.260351 109.035364 
L 266.99431 90.246421 
L 267.238963 86.132529 
L 267.728269 84.467243 
L 267.972922 87.537545 
L 268.217575 87.16779 
L 268.462228 84.152828 
L 268.706881 89.385086 
L 268.951534 89.671195 
L 269.196187 90.311132 
L 269.685493 76.08551 
L 269.930146 75.161585 
L 270.174799 71.188183 
L 270.419452 93.109054 
L 270.664106 88.477281 
L 270.908759 92.622796 
L 271.153412 88.264907 
L 271.398065 89.471355 
L 271.642718 85.990188 
L 272.132024 98.616508 
L 272.62133 89.969876 
L 272.865983 88.844568 
L 273.110636 88.481138 
L 273.355289 90.13767 
L 273.599942 86.42612 
L 273.844595 86.340931 
L 274.089248 89.04383 
L 274.333901 94.00151 
L 274.578554 92.845698 
L 274.823207 97.122756 
L 275.312513 112.411173 
L 275.557166 106.313684 
L 275.801819 103.003705 
L 276.046472 112.245925 
L 276.291125 110.075368 
L 276.535778 116.641221 
L 276.780431 116.852168 
L 277.025084 120.700428 
L 277.269737 117.000448 
L 277.51439 109.119628 
L 278.003696 121.92905 
L 278.248349 123.891205 
L 278.737655 115.422278 
L 278.982308 114.896993 
L 279.716267 134.78128 
L 279.96092 133.6493 
L 280.205573 126.162338 
L 280.450226 123.715429 
L 280.694879 123.576636 
L 280.939532 126.731471 
L 281.184185 121.788175 
L 281.428838 120.600161 
L 281.673491 116.350523 
L 281.918144 121.746487 
L 282.162797 121.806416 
L 282.40745 117.910065 
L 282.652103 117.301481 
L 282.896756 108.714393 
L 283.141409 106.49941 
L 283.386062 118.539243 
L 283.630715 119.180993 
L 284.120021 116.86929 
L 284.364674 111.42057 
L 284.85398 116.04301 
L 285.098633 122.516579 
L 285.587939 110.773692 
L 285.832592 111.081204 
L 286.077245 111.618405 
L 286.321898 111.457515 
L 286.566551 107.892587 
L 286.811204 107.946037 
L 287.055857 108.47703 
L 287.30051 110.006415 
L 287.545163 108.060033 
L 287.789816 112.065443 
L 288.034469 109.186652 
L 288.279122 114.283858 
L 288.523775 111.347144 
L 289.013081 99.339898 
L 289.257734 98.932851 
L 289.502387 97.663389 
L 289.74704 98.754221 
L 289.991693 103.071347 
L 290.236346 101.066309 
L 290.480999 112.398794 
L 290.725652 113.850318 
L 290.970305 120.271477 
L 291.459611 113.735435 
L 291.704264 114.72087 
L 291.948917 110.451602 
L 292.19357 110.217863 
L 292.438223 109.078055 
L 292.682876 111.277111 
L 293.172183 118.460803 
L 293.661489 111.699545 
L 293.906142 113.634473 
L 294.150795 114.56291 
L 294.395448 122.462318 
L 294.640101 115.992375 
L 294.884754 114.869343 
L 295.129407 114.503174 
L 295.37406 123.189758 
L 295.618713 127.087265 
L 295.863366 121.734185 
L 296.108019 119.446778 
L 296.352672 125.11331 
L 296.597325 126.368001 
L 296.841978 131.746573 
L 297.086631 128.750469 
L 297.575937 139.662178 
L 297.82059 136.768887 
L 298.065243 136.632871 
L 298.309896 138.363871 
L 298.554549 137.236094 
L 298.799202 132.384543 
L 299.043855 119.580211 
L 299.533161 121.305388 
L 299.777814 112.508008 
L 300.022467 114.469623 
L 300.26712 114.090728 
L 301.001079 109.829597 
L 301.490385 106.17304 
L 301.735038 105.894528 
L 301.979691 103.702106 
L 302.224344 106.002432 
L 302.468997 102.506302 
L 302.71365 103.363858 
L 302.958303 102.249386 
L 303.447609 97.973871 
L 303.936915 103.959099 
L 304.181568 107.286779 
L 304.670874 100.643759 
L 304.915527 100.635391 
L 305.404833 104.851092 
L 305.649486 103.1489 
L 305.894139 84.617953 
L 306.383445 76.506787 
L 306.628098 77.614819 
L 306.872751 76.03098 
L 307.117404 75.489999 
L 307.362057 77.092619 
L 307.60671 73.845152 
L 307.851363 72.408822 
L 308.096016 72.688376 
L 308.340669 74.843699 
L 308.829975 72.91579 
L 309.074628 73.389476 
L 309.319281 77.215022 
L 309.563934 76.855756 
L 309.808587 74.614743 
L 310.05324 73.743458 
L 310.297893 76.56421 
L 310.542546 77.220961 
L 310.787199 76.282536 
L 311.031852 73.505207 
L 311.276505 74.306189 
L 311.765811 71.991479 
L 312.010464 72.992533 
L 312.255117 70.203288 
L 312.49977 70.738716 
L 313.233729 73.59726 
L 313.478382 72.715139 
L 313.723035 73.098623 
L 313.967688 74.372134 
L 314.212341 74.053053 
L 314.456994 80.641427 
L 314.701647 83.006734 
L 314.9463 82.911557 
L 315.190953 87.906182 
L 315.435607 87.616756 
L 315.68026 101.83883 
L 315.924913 98.103987 
L 316.169566 97.878232 
L 316.903525 116.118944 
L 317.148178 113.625141 
L 317.392831 115.969738 
L 317.637484 116.271157 
L 317.882137 111.551882 
L 318.12679 112.143035 
L 318.371443 113.363327 
L 318.616096 112.81633 
L 319.105402 110.439107 
L 319.350055 111.743084 
L 319.839361 116.680479 
L 320.084014 119.492246 
L 320.328667 124.196211 
L 320.57332 112.371992 
L 320.817973 115.335316 
L 321.551932 119.28851 
L 322.041238 117.512043 
L 322.285891 115.573374 
L 322.530544 117.121733 
L 323.01985 117.602515 
L 323.264503 121.069836 
L 323.753809 119.41261 
L 323.998462 118.186186 
L 324.243115 120.312201 
L 324.487768 113.199197 
L 324.732421 115.744291 
L 325.221727 116.112426 
L 325.46638 118.472565 
L 325.955686 126.194963 
L 326.200339 127.583396 
L 326.689645 137.18465 
L 326.934298 134.35148 
L 327.178951 128.280601 
L 327.423604 126.359826 
L 327.668257 126.720248 
L 328.157563 113.444389 
L 328.402216 115.249163 
L 328.646869 112.899166 
L 329.136175 117.253816 
L 329.380828 115.307472 
L 329.625481 111.641544 
L 329.870134 114.203914 
L 330.114787 113.432512 
L 330.35944 114.962591 
L 330.604093 114.430827 
L 330.848746 118.045195 
L 331.093399 113.494292 
L 331.338052 112.692731 
L 331.582705 113.397649 
L 331.827358 115.447885 
L 332.561317 93.795538 
L 332.80597 92.123233 
L 333.295276 95.650561 
L 333.539929 93.153943 
L 333.784582 92.281925 
L 334.029235 84.935492 
L 334.273888 83.420992 
L 334.763194 87.475032 
L 335.007847 87.694425 
L 335.2525 87.547417 
L 335.497153 90.130613 
L 335.741806 90.368362 
L 335.986459 92.888042 
L 336.231112 93.692109 
L 336.475765 93.498747 
L 336.720418 85.623865 
L 336.965071 85.762659 
L 337.209724 90.443331 
L 337.454377 88.4037 
L 337.69903 88.809783 
L 337.943684 87.926158 
L 338.188337 87.88096 
L 338.43299 83.128327 
L 338.677643 81.829402 
L 338.922296 83.639613 
L 339.166949 81.841203 
L 339.411602 84.834723 
L 339.900908 81.908883 
L 340.145561 82.163948 
L 340.390214 87.333462 
L 340.87952 82.775656 
L 341.124173 87.760254 
L 341.368826 72.646109 
L 341.613479 71.721451 
L 341.858132 75.286997 
L 342.347438 71.702323 
L 342.592091 65.336658 
L 342.836744 62.803018 
L 343.081397 62.719334 
L 343.570703 55.250304 
L 343.815356 53.417725 
L 344.060009 53.089851 
L 344.304662 50.352475 
L 344.549315 51.320981 
L 344.793968 52.982102 
L 345.038621 48.687112 
L 345.283274 48.176365 
L 345.527927 49.403098 
L 345.77258 47.710431 
L 346.017233 47.564696 
L 346.261886 66.152487 
L 346.506539 75.201075 
L 346.751192 74.865758 
L 347.240498 77.909759 
L 347.729804 81.114419 
L 347.974457 79.422947 
L 348.21911 76.530389 
L 348.708416 73.340075 
L 348.953069 74.239396 
L 349.197722 75.988289 
L 349.442375 73.899836 
L 349.931681 77.626889 
L 350.176334 77.409926 
L 350.66564 74.180007 
L 350.910293 72.898821 
L 351.154946 73.248253 
L 351.399599 75.866426 
L 351.644252 74.532678 
L 351.888905 75.135747 
L 352.133558 67.753564 
L 352.622864 64.804316 
L 353.11217 66.82613 
L 353.356823 70.434636 
L 353.601476 68.10905 
L 353.846129 67.097237 
L 354.090782 67.013051 
L 354.335435 67.254811 
L 354.580088 65.811848 
L 354.824741 61.663981 
L 355.069394 60.948921 
L 355.314047 50.780578 
L 355.5587 49.139086 
L 355.803353 48.659461 
L 356.048006 47.864688 
L 356.292659 45.979122 
L 356.537312 42.973763 
L 356.781965 36.433826 
L 357.026618 41.889333 
L 357.271271 60.635238 
L 357.515924 60.60404 
L 357.760577 63.880738 
L 358.00523 64.100092 
L 358.249883 64.995518 
L 358.494536 63.662965 
L 358.739189 65.102033 
L 358.983842 69.034132 
L 359.473148 63.115737 
L 359.717801 61.344668 
L 359.962454 61.380032 
L 360.207107 60.058624 
L 361.18572 41.417807 
L 361.430373 40.980448 
L 361.675026 39.927757 
L 361.919679 37.076771 
L 362.164332 38.586141 
L 362.408985 36.691937 
L 363.142944 42.884911 
L 363.387597 41.039606 
L 363.63225 38.022214 
L 363.876903 41.848725 
L 364.121556 73.69344 
L 364.366209 81.291545 
L 364.610862 84.829787 
L 364.855515 84.361152 
L 365.344821 99.498783 
L 365.589474 92.519945 
L 365.834127 94.563432 
L 366.07878 92.402902 
L 366.323433 96.26628 
L 366.568086 93.241792 
L 367.302045 100.132434 
L 367.791351 115.209982 
L 368.036004 114.993096 
L 368.280657 113.463402 
L 368.52531 108.894836 
L 368.769963 110.391249 
L 369.014616 110.627378 
L 369.259269 114.119073 
L 369.748575 115.187499 
L 369.993228 116.649319 
L 370.237881 115.00694 
L 370.482534 110.018061 
L 370.727187 112.773832 
L 371.216493 110.974458 
L 371.461146 97.277977 
L 371.950452 89.803355 
L 372.195105 97.687068 
L 372.439758 101.73247 
L 372.684411 100.826246 
L 372.929064 98.891472 
L 373.173717 100.956555 
L 373.41837 101.335565 
L 373.663023 101.395918 
L 373.907676 98.187325 
L 374.152329 100.448701 
L 374.396982 94.049407 
L 374.886288 99.949215 
L 375.130941 100.127845 
L 375.375594 96.04091 
L 375.620247 94.325682 
L 375.8649 113.783987 
L 376.109553 111.924105 
L 376.354206 111.341128 
L 376.843512 106.695009 
L 377.332818 97.206325 
L 377.577471 94.791848 
L 377.822124 95.696993 
L 378.066777 94.819923 
L 378.31143 99.276961 
L 378.556083 99.311245 
L 379.045389 85.849814 
L 379.290042 87.109789 
L 379.534695 87.2814 
L 379.779348 90.594503 
L 380.024001 89.218103 
L 380.268654 85.865355 
L 380.513307 88.988336 
L 380.75796 89.724491 
L 381.002613 86.938139 
L 381.247266 82.45642 
L 381.491919 81.544411 
L 381.736572 82.788228 
L 381.981225 82.069735 
L 382.225878 77.968994 
L 382.470531 80.054709 
L 382.715184 79.263599 
L 382.959838 75.226605 
L 383.204491 99.16686 
L 383.449144 105.509425 
L 383.693797 100.381676 
L 383.93845 97.805653 
L 384.183103 99.167245 
L 384.427756 92.791438 
L 384.672409 95.437879 
L 384.917062 96.438855 
L 385.161715 98.723254 
L 385.406368 96.306695 
L 385.895674 87.665771 
L 386.140327 86.835751 
L 386.38498 87.343797 
L 386.629633 86.447099 
L 386.874286 86.705249 
L 387.118939 91.371729 
L 387.363592 89.777324 
L 387.852898 80.247569 
L 387.852898 80.247569 
" style="fill:none;stroke:#1f77b4;stroke-linecap:square;stroke-width:1.5;"/>
   </g>
   <g id="line2d_26">
    <path clip-path="url(#p51e1aa759b)" d="M 63.198352 259.550825 
L 63.932311 261.421067 
L 64.176964 257.73113 
L 64.66627 261.168332 
L 65.400229 262.406735 
L 65.644882 261.597982 
L 65.889535 261.496888 
L 66.134188 259.525551 
L 66.378841 259.500278 
L 66.623494 260.334305 
L 66.868147 260.637587 
L 67.1128 262.432009 
L 67.357453 261.825444 
L 67.602106 263.771506 
L 67.846759 260.081569 
L 68.091412 259.121175 
L 68.336066 259.29809 
L 68.580719 257.958592 
L 68.825372 254.344476 
L 69.070025 256.113623 
L 69.314678 255.431238 
L 69.559331 255.254323 
L 69.803984 250.957821 
L 70.048637 251.58966 
L 70.29329 249.795238 
L 70.537943 252.069857 
L 71.027249 244.159239 
L 71.271902 245.549283 
L 71.516555 245.397642 
L 71.761208 246.029481 
L 72.005861 246.30749 
L 72.250514 244.437248 
L 72.495167 245.119633 
L 72.73982 244.513068 
L 72.984473 247.368978 
L 73.229126 248.455741 
L 73.473779 250.174341 
L 73.718432 250.502897 
L 73.963085 249.643597 
L 74.207738 252.145678 
L 74.452391 251.817122 
L 74.697044 247.267884 
L 74.941697 246.509678 
L 75.18635 247.59644 
L 75.431003 251.791848 
L 75.675656 247.090969 
L 75.920309 255.001588 
L 76.409615 259.424457 
L 76.654268 258.236601 
L 76.898921 258.767345 
L 77.143574 259.879381 
L 77.388227 263.670412 
L 77.877533 262.684744 
L 78.122186 261.623255 
L 78.366839 259.171722 
L 78.611492 258.388242 
L 78.856145 254.748852 
L 79.345451 260.384852 
L 79.834757 253.864278 
L 80.07941 257.503668 
L 80.324063 263.771506 
L 80.813369 260.738681 
L 81.058022 261.446341 
L 81.302675 264.428618 
L 81.547328 261.421067 
L 81.791981 261.446341 
L 82.281287 257.933318 
L 82.52594 258.868439 
L 82.770593 255.987256 
L 83.015246 260.056296 
L 83.259899 259.424457 
L 83.504552 244.588889 
L 83.749205 246.30749 
L 83.993858 241.303329 
L 84.238511 239.660548 
L 84.483164 240.140746 
L 84.727817 236.349715 
L 84.97247 254.647758 
L 85.217123 254.420296 
L 85.461776 253.459902 
L 85.951082 256.467453 
L 86.195735 256.164171 
L 86.440388 258.438789 
L 86.929694 251.261104 
L 87.174347 254.117014 
L 87.663653 252.145678 
L 87.908306 252.272045 
L 88.642265 258.312421 
L 88.886918 254.01592 
L 89.131571 247.343705 
L 89.376224 244.816351 
L 89.620877 245.625104 
L 89.86553 247.545893 
L 90.110183 248.000817 
L 90.354836 247.899723 
L 90.844143 250.224888 
L 91.088796 249.997427 
L 91.333449 248.076638 
L 91.578102 247.16679 
L 91.822755 248.556835 
L 92.067408 247.975543 
L 92.312061 245.650378 
L 92.556714 245.700925 
L 92.801367 243.830683 
L 93.04602 245.119633 
L 93.290673 244.816351 
L 93.535326 242.6681 
L 93.779979 244.715257 
L 94.024632 245.17018 
L 94.269285 240.747311 
L 94.513938 244.841624 
L 94.758591 242.794468 
L 95.003244 246.73714 
L 95.247897 246.38331 
L 95.49255 244.083418 
L 95.737203 246.029481 
L 96.226509 246.914055 
L 96.471162 245.95366 
L 96.715815 245.599831 
L 96.960468 246.256943 
L 97.205121 248.253552 
L 97.449774 249.213947 
L 97.694427 248.051364 
L 98.183733 252.246772 
L 98.428386 249.112853 
L 98.673039 247.748081 
L 98.917692 247.419525 
L 99.162345 242.516459 
L 99.406998 243.198844 
L 99.896304 246.080028 
L 100.140957 243.45158 
L 100.38561 244.942718 
L 100.630263 241.732979 
L 100.874916 242.541732 
L 101.119569 243.780136 
L 101.364222 246.636046 
L 101.608875 246.787687 
L 101.853528 245.700925 
L 102.098181 243.375759 
L 102.342834 242.288997 
L 102.587487 238.396871 
L 103.076793 236.299168 
L 103.321446 234.656387 
L 103.810752 236.678271 
L 104.055405 232.10376 
L 104.300058 235.338773 
L 104.544711 235.338773 
L 104.789364 236.703544 
L 105.034017 233.670719 
L 105.27867 236.728818 
L 105.523323 236.829912 
L 105.767976 236.198073 
L 106.012629 235.894791 
L 106.257282 240.595669 
L 106.501935 237.310109 
L 106.746588 239.230898 
L 106.991241 242.061535 
L 107.480547 238.270504 
L 107.7252 233.165249 
L 107.969853 231.74993 
L 108.214506 228.565464 
L 108.459159 228.211635 
L 108.703812 229.778594 
L 109.193118 230.789536 
L 109.437771 229.652226 
L 109.682424 227.049052 
L 109.927077 228.666558 
L 110.17173 227.150146 
L 110.416383 227.377608 
L 110.661036 228.540191 
L 110.905689 226.46776 
L 111.150342 226.417213 
L 111.639648 219.54281 
L 111.884301 222.75255 
L 112.128954 218.986792 
L 112.373607 221.488873 
L 112.61826 217.925304 
L 112.862913 218.178039 
L 113.107566 218.632963 
L 113.35222 215.701232 
L 113.596873 214.61447 
L 114.330832 227.327061 
L 114.575485 224.294236 
L 114.820138 224.82498 
L 115.064791 228.46437 
L 115.309444 223.763491 
L 115.554097 225.027168 
L 116.043403 226.39194 
L 116.288056 227.908352 
L 116.532709 224.294236 
L 116.777362 223.990953 
L 117.266668 221.337232 
L 117.755974 232.407042 
L 118.24528 227.327061 
L 118.489933 225.835922 
L 118.734586 223.561303 
L 118.979239 222.803097 
L 119.223892 225.052442 
L 119.468545 225.380998 
L 119.713198 224.344783 
L 119.957851 224.218415 
L 120.69181 218.228586 
L 120.936463 217.495653 
L 121.181116 212.011295 
L 121.425769 210.62125 
L 121.670422 212.036569 
L 122.159728 208.321358 
L 122.404381 209.155385 
L 122.649034 206.703851 
L 122.893687 206.754399 
L 123.13834 204.176497 
L 123.382993 207.108228 
L 123.627646 208.220264 
L 123.872299 210.368515 
L 124.116952 208.97847 
L 124.361605 209.483941 
L 124.606258 208.296085 
L 125.340217 201.800785 
L 125.58487 203.190829 
L 125.829523 203.595206 
L 126.318829 212.668407 
L 126.563482 212.415672 
L 126.808135 212.61786 
L 127.297441 222.044891 
L 127.542094 221.792155 
L 127.786747 221.337232 
L 128.0314 219.492263 
L 128.276053 221.640514 
L 128.520706 220.958128 
L 128.765359 218.936245 
L 129.010012 221.867976 
L 129.254665 222.348173 
L 129.499318 225.305177 
L 129.743971 223.030559 
L 129.988624 221.867976 
L 130.233277 221.589967 
L 130.47793 222.777823 
L 130.722583 215.145214 
L 130.967236 215.802326 
L 131.211889 213.350793 
L 131.701195 203.797394 
L 132.190501 209.231206 
L 132.435154 208.447726 
L 133.169113 203.923762 
L 133.413766 207.007134 
L 133.658419 207.916981 
L 134.147725 213.199151 
L 134.392378 210.772892 
L 134.881684 213.780443 
L 135.37099 214.639743 
L 135.615643 215.625411 
L 135.860297 215.574864 
L 136.349603 221.033949 
L 136.594256 215.195761 
L 136.838909 212.491492 
L 137.083562 212.011295 
L 137.328215 211.126721 
L 137.572868 213.325519 
L 137.817521 208.422452 
L 138.062174 206.223654 
L 138.306827 207.740067 
L 138.55148 208.371905 
L 138.796133 207.33569 
L 139.285439 211.177268 
L 139.530092 210.671797 
L 139.774745 208.447726 
L 140.019398 205.035798 
L 140.264051 207.462058 
L 140.508704 206.855493 
L 140.753357 202.91282 
L 140.99801 201.143673 
L 141.242663 201.649143 
L 141.487316 192.019924 
L 141.731969 195.179117 
L 141.976622 195.179117 
L 142.221275 194.597826 
L 142.465928 195.98787 
L 143.199887 191.48918 
L 143.44454 193.864893 
L 143.689193 193.081413 
L 143.933846 195.229664 
L 144.423152 189.239835 
L 144.912458 189.290382 
L 145.157111 188.810185 
L 145.401764 188.683817 
L 145.646417 192.955045 
L 145.89107 192.626489 
L 146.135723 194.69892 
L 146.380376 199.652534 
L 146.625029 196.922991 
L 146.869682 197.908659 
L 147.358988 205.465448 
L 147.848294 207.082955 
L 148.092947 206.855493 
L 148.3376 207.967529 
L 148.582253 205.642363 
L 148.826906 206.880766 
L 149.071559 205.566542 
L 149.316212 205.187439 
L 149.560865 205.187439 
L 149.805518 205.313807 
L 150.050171 205.566542 
L 150.539477 204.378686 
L 150.78413 207.33569 
L 151.028783 208.599367 
L 151.518089 212.112389 
L 151.762742 216.535259 
L 152.007395 205.617089 
L 152.252048 207.234596 
L 152.496701 214.766111 
L 152.741354 211.202542 
L 152.986007 211.177268 
L 153.23066 212.845322 
L 153.475313 211.0509 
L 154.209272 219.593357 
L 154.453925 221.236137 
L 154.943231 215.726505 
L 155.187884 220.983402 
L 155.432537 219.770272 
L 155.67719 220.654846 
L 155.921843 225.987563 
L 156.166496 224.268962 
L 156.411149 225.17881 
L 156.655802 216.004514 
L 157.145108 217.015456 
L 157.389761 214.235367 
L 157.634414 214.665017 
L 157.879067 212.213483 
L 158.12372 211.505824 
L 158.613027 214.412281 
L 158.85768 214.058452 
L 159.102333 218.632963 
L 159.346986 216.787994 
L 159.591639 213.072784 
L 160.325598 209.812497 
L 160.570251 212.365125 
L 160.814904 210.166327 
L 161.059557 210.595977 
L 161.30421 218.456048 
L 161.548863 217.874756 
L 161.793516 215.195761 
L 162.038169 214.917752 
L 162.282822 213.679349 
L 162.772128 218.001124 
L 163.016781 217.975851 
L 163.261434 217.015456 
L 163.506087 219.46699 
L 163.75074 218.708783 
L 163.995393 217.066003 
L 164.240046 218.203312 
L 164.484699 216.813268 
L 164.729352 220.351563 
L 165.218658 222.373447 
L 165.463311 222.3229 
L 165.707964 221.893249 
L 165.952617 222.651456 
L 166.19727 222.272353 
L 166.441923 224.850254 
L 166.686576 224.496424 
L 166.931229 219.921913 
L 167.175882 218.986792 
L 167.420535 221.337232 
L 167.665188 221.337232 
L 167.909841 220.174649 
L 168.154494 221.387779 
L 168.399147 217.90003 
L 168.6438 217.874756 
L 168.888453 216.408891 
L 169.133106 217.723115 
L 169.377759 214.715564 
L 169.622412 214.134272 
L 169.867065 214.18482 
L 170.111718 212.769501 
L 170.356371 213.224425 
L 170.601024 212.542039 
L 170.845677 212.845322 
L 171.09033 213.83099 
L 171.334983 215.448497 
L 171.579636 219.517537 
L 171.824289 221.589967 
L 172.068942 214.867205 
L 172.313595 213.249699 
L 172.558248 210.520156 
L 172.802901 211.0509 
L 173.292207 215.802326 
L 173.781513 210.848712 
L 174.026166 213.881537 
L 174.270819 215.372676 
L 174.760125 214.361734 
L 175.004778 216.964909 
L 175.249431 216.055062 
L 175.494084 216.307797 
L 175.738737 211.708013 
L 175.98339 212.542039 
L 176.228043 212.946416 
L 176.472696 211.000353 
L 176.717349 207.487331 
L 176.962002 206.299475 
L 177.206655 207.411511 
L 178.185267 213.47716 
L 178.42992 213.148604 
L 178.674573 213.098057 
L 178.919226 211.101448 
L 179.163879 211.126721 
L 179.408532 213.325519 
L 179.653185 213.654075 
L 179.897838 211.000353 
L 180.142491 211.101448 
L 180.387144 212.643134 
L 180.631798 212.996963 
L 180.876451 213.805716 
L 181.365757 212.365125 
L 181.61041 210.899259 
L 181.855063 210.97508 
L 182.099716 208.19499 
L 182.344369 207.057681 
L 182.589022 206.678578 
L 182.833675 206.830219 
L 183.078328 208.422452 
L 183.322981 207.310416 
L 183.567634 207.234596 
L 183.812287 209.837771 
L 184.05694 207.512605 
L 184.301593 209.205932 
L 184.546246 207.967529 
L 184.790899 207.866434 
L 185.035552 206.526937 
L 185.524858 209.029017 
L 185.769511 204.656695 
L 186.258817 207.992802 
L 186.748123 206.501663 
L 186.992776 206.754399 
L 187.237429 202.988641 
L 187.482082 207.360964 
L 187.726735 204.024856 
L 187.971388 203.974309 
L 188.216041 204.403959 
L 188.460694 205.288533 
L 188.705347 203.772121 
L 188.95 205.465448 
L 189.683959 199.753628 
L 189.928612 198.009754 
L 190.173265 198.818507 
L 190.417918 198.565771 
L 190.662571 199.298704 
L 190.907224 198.944875 
L 191.151877 199.601987 
L 191.39653 199.323978 
L 191.641183 198.161395 
L 191.885836 198.666866 
L 192.130489 189.366203 
L 192.375142 184.816965 
L 192.864448 187.015763 
L 193.109101 186.889396 
L 193.353754 187.445414 
L 193.598407 188.835458 
L 193.84306 188.001431 
L 194.087713 186.232284 
L 194.332366 187.268499 
L 194.577019 186.131189 
L 194.821672 186.080642 
L 195.066325 187.723422 
L 195.310978 188.481629 
L 195.555631 183.325826 
L 195.800284 188.127799 
L 196.044937 188.431082 
L 196.28959 188.961826 
L 196.534243 188.961826 
L 196.778896 190.326597 
L 197.268202 184.640051 
L 197.757508 189.088194 
L 198.002161 180.621558 
L 198.246814 181.405037 
L 198.491467 180.191907 
L 198.73612 184.918059 
L 198.980773 186.687207 
L 199.470079 194.749467 
L 199.714732 190.604606 
L 199.959385 181.379764 
L 200.204038 176.830526 
L 200.448691 176.198688 
L 200.693344 176.07232 
L 200.937997 176.42615 
L 201.18265 175.263567 
L 201.427303 174.909737 
L 202.405915 167.07494 
L 202.650568 161.489487 
L 202.895221 161.615855 
L 203.384528 158.658851 
L 203.629181 158.709398 
L 203.873834 160.251084 
L 204.118487 160.630187 
L 204.36314 156.207317 
L 204.607793 156.763335 
L 204.852446 156.788609 
L 205.341752 153.022851 
L 205.586405 154.893093 
L 205.831058 153.73051 
L 206.075711 153.528322 
L 206.320364 155.802941 
L 206.565017 153.65469 
L 206.80967 147.867049 
L 207.054323 148.195605 
L 207.298976 145.567157 
L 207.543629 146.477004 
L 208.032935 145.086959 
L 208.277588 147.336305 
L 208.522241 145.617704 
L 208.766894 152.44156 
L 209.011547 149.58565 
L 209.2562 158.229201 
L 209.500853 157.470994 
L 209.745506 159.619245 
L 210.234812 149.23182 
L 210.479465 148.726349 
L 210.968771 142.888161 
L 211.213424 144.126565 
L 211.70273 144.884771 
L 211.947383 144.505668 
L 212.192036 148.776896 
L 212.436689 149.105452 
L 212.681342 153.048125 
L 213.415301 139.45096 
L 213.659954 144.935318 
L 213.904607 146.881381 
L 214.393913 154.741452 
L 214.638566 154.741452 
L 214.883219 153.73051 
L 215.372525 155.145829 
L 215.617178 149.939479 
L 216.106484 145.94626 
L 216.59579 153.983246 
L 216.840443 151.481165 
L 217.329749 138.364198 
L 217.574402 119.409042 
L 217.819055 114.101599 
L 218.063708 118.726657 
L 218.308361 119.712325 
L 218.553014 122.644055 
L 218.797667 120.925455 
L 219.04232 122.846244 
L 219.286973 122.088037 
L 219.531626 123.756091 
L 219.776279 122.669329 
L 220.020932 123.427535 
L 220.265585 124.868127 
L 220.754891 120.495804 
L 220.999544 120.950728 
L 221.48885 124.8934 
L 221.733503 124.109921 
L 221.978156 121.633114 
L 222.222809 123.073706 
L 222.467462 123.579176 
L 222.712115 113.46976 
L 222.956768 117.589347 
L 223.201421 114.708164 
L 223.446074 121.077096 
L 223.690727 122.997885 
L 223.93538 117.842083 
L 224.180033 118.246459 
L 224.424686 116.452038 
L 224.669339 116.350944 
L 224.913992 114.076325 
L 225.158645 113.115931 
L 225.403298 109.880917 
L 225.892605 108.490873 
L 226.137258 113.671948 
L 226.381911 116.275123 
L 226.626564 115.238908 
L 226.871217 110.436935 
L 227.360523 115.820199 
L 227.849829 110.108379 
L 228.094482 111.928074 
L 228.339135 111.372056 
L 228.583788 119.434316 
L 228.828441 117.361885 
L 229.073094 118.903571 
L 229.317747 117.639894 
L 229.5624 118.777204 
L 230.051706 130.150297 
L 230.541012 123.149526 
L 230.785665 124.059374 
L 231.030318 123.25062 
L 231.274971 121.17819 
L 231.519624 124.109921 
L 231.764277 124.994495 
L 232.253583 133.991875 
L 232.498236 128.077867 
L 232.742889 127.168019 
L 232.987542 130.327212 
L 233.232195 129.644826 
L 233.476848 130.17557 
L 233.721501 126.839463 
L 233.966154 130.908503 
L 234.210807 131.413974 
L 234.700113 135.129184 
L 234.944766 129.493185 
L 235.189419 128.911893 
L 235.434072 129.720647 
L 235.678725 132.879839 
L 235.923378 131.74253 
L 236.168031 132.399642 
L 236.412684 133.486404 
L 236.657337 128.002046 
L 237.391296 135.659929 
L 237.635949 138.162009 
L 237.880602 136.317041 
L 238.614561 146.628645 
L 238.859214 146.653919 
L 239.103867 143.140897 
L 239.34852 143.418906 
L 239.593173 144.783677 
L 239.837826 148.701076 
L 240.327132 144.530942 
L 240.571785 140.436628 
L 241.061091 141.220108 
L 241.305744 142.584879 
L 241.79505 148.145058 
L 242.039703 146.603372 
L 242.284356 152.593201 
L 242.529009 154.185434 
L 242.773662 150.571318 
L 243.018315 150.824053 
L 243.262968 152.113004 
L 243.507621 140.436628 
L 243.996927 143.09035 
L 244.24158 134.825902 
L 244.486233 131.439247 
L 244.730886 131.767804 
L 244.975539 132.52601 
L 245.220192 130.756862 
L 245.709498 128.962441 
L 245.954151 129.215176 
L 246.198804 125.575786 
L 246.932763 130.95905 
L 247.177416 130.200844 
L 247.422069 128.10314 
L 247.666722 128.305328 
L 247.911375 128.305328 
L 248.156029 127.749311 
L 248.400682 129.467911 
L 248.645335 124.286835 
L 248.889988 125.424145 
L 249.134641 128.406423 
L 249.379294 125.904342 
L 249.623947 126.81419 
L 249.8686 125.297777 
L 250.113253 128.381149 
L 250.357906 126.308719 
L 250.602559 126.308719 
L 251.091865 128.633884 
L 251.336518 132.323821 
L 251.825824 159.467604 
L 252.070477 160.124716 
L 252.31513 146.350636 
L 252.559783 141.169561 
L 252.804436 141.826673 
L 253.049089 141.573937 
L 253.293742 145.996807 
L 253.538395 140.638816 
L 253.783048 140.487175 
L 254.027701 145.541883 
L 254.272354 138.086189 
L 254.517007 142.509058 
L 254.76166 141.675031 
L 255.006313 139.046583 
L 255.250966 138.793848 
L 255.740272 132.576557 
L 255.984925 133.233669 
L 256.229578 137.125794 
L 256.474231 133.587498 
L 256.718884 135.002817 
L 256.963537 127.976772 
L 257.20819 129.392091 
L 257.452843 127.67349 
L 257.697496 132.728198 
L 257.942149 132.298548 
L 258.186802 130.150297 
L 258.431455 130.17557 
L 258.676108 126.89001 
L 258.920761 121.304558 
L 259.165414 120.445257 
L 259.410067 121.582567 
L 259.899373 106.393169 
L 260.144026 107.252469 
L 260.388679 110.664397 
L 260.633332 116.831141 
L 260.877985 111.953348 
L 261.122638 111.220415 
L 261.856597 103.25925 
L 262.10125 95.828829 
L 262.345903 101.919752 
L 262.835209 96.814497 
L 263.079862 96.814497 
L 263.324515 95.500273 
L 263.569168 95.904649 
L 263.813821 93.301475 
L 264.058474 94.186049 
L 264.303127 98.356183 
L 264.54778 100.580254 
L 264.792433 97.345241 
L 265.037086 103.385617 
L 265.281739 100.226425 
L 265.526392 100.276972 
L 265.771045 101.26264 
L 266.015698 107.151375 
L 266.749657 87.994031 
L 266.99431 84.000812 
L 267.483616 82.433852 
L 267.728269 85.618318 
L 267.972922 85.112848 
L 268.217575 82.105296 
L 268.462228 87.564381 
L 268.951534 88.398408 
L 269.44084 73.967216 
L 269.685493 73.158463 
L 269.930146 68.735593 
L 270.174799 91.860883 
L 270.419452 86.452345 
L 270.664106 91.102677 
L 270.908759 86.502892 
L 271.153412 87.892937 
L 271.398065 84.177727 
L 271.887371 96.966138 
L 272.376677 88.044578 
L 272.62133 86.831448 
L 272.865983 86.730354 
L 273.110636 88.221493 
L 273.355289 84.430462 
L 273.599942 84.304094 
L 273.844595 87.362193 
L 274.089248 92.315807 
L 274.333901 91.330139 
L 274.578554 95.070623 
L 275.06786 111.094047 
L 275.312513 104.497653 
L 275.557166 101.110999 
L 275.801819 111.068774 
L 276.046472 108.389778 
L 276.291125 115.441096 
L 276.535778 115.238908 
L 276.780431 119.409042 
L 277.025084 115.46637 
L 277.269737 107.100828 
L 277.759043 120.217795 
L 278.003696 122.163858 
L 278.493002 113.596128 
L 278.737655 113.267572 
L 279.471614 133.410584 
L 279.716267 131.616162 
L 279.96092 123.958279 
L 280.205573 121.633114 
L 280.450226 121.355105 
L 280.694879 124.8934 
L 280.939532 119.838692 
L 281.184185 118.676109 
L 281.428838 114.126872 
L 281.673491 119.838692 
L 281.918144 119.712325 
L 282.162797 116.275123 
L 282.40745 115.516917 
L 282.652103 106.645904 
L 282.896756 104.497653 
L 283.141409 117.235518 
L 283.386062 117.361885 
L 283.875368 115.11254 
L 284.120021 109.375447 
L 284.609327 114.152146 
L 284.85398 121.051822 
L 285.343286 108.718334 
L 285.832592 109.577635 
L 286.077245 109.678729 
L 286.321898 105.862424 
L 286.566551 106.165707 
L 286.811204 106.721725 
L 287.055857 108.465599 
L 287.30051 106.468989 
L 287.545163 110.790765 
L 287.789816 107.555752 
L 288.034469 112.812648 
L 288.279122 109.678729 
L 288.768428 97.218873 
L 289.013081 97.269421 
L 289.257734 95.576093 
L 289.502387 96.890317 
L 289.74704 101.287914 
L 289.991693 99.316577 
L 290.236346 111.296236 
L 290.480999 112.25663 
L 290.725652 118.827751 
L 291.214958 111.675339 
L 291.459611 112.888469 
L 291.704264 108.415052 
L 291.948917 108.086496 
L 292.19357 107.126101 
L 292.682876 112.837922 
L 292.92753 116.628953 
L 293.416836 109.855644 
L 293.661489 111.953348 
L 293.906142 112.787375 
L 294.150795 121.152916 
L 294.395448 114.076325 
L 294.640101 112.863195 
L 294.884754 112.61046 
L 295.129407 121.885849 
L 295.37406 125.424145 
L 295.618713 119.990334 
L 295.863366 117.5388 
L 296.108019 123.705544 
L 296.352672 124.716486 
L 296.597325 130.327212 
L 296.841978 127.066925 
L 297.331284 138.440018 
L 297.575937 134.876449 
L 297.82059 134.901723 
L 298.065243 136.620323 
L 298.309896 135.205005 
L 298.554549 130.226118 
L 298.799202 117.159697 
L 299.043855 118.75193 
L 299.288508 119.53541 
L 299.533161 110.057832 
L 299.777814 112.61046 
L 300.022467 112.104989 
L 301.001079 106.19098 
L 301.245732 104.11855 
L 301.490385 103.916362 
L 301.735038 101.591196 
L 301.979691 104.143824 
L 302.224344 100.201151 
L 302.468997 101.540649 
L 302.958303 98.229815 
L 303.202956 95.904649 
L 303.692262 102.374676 
L 303.936915 105.660236 
L 304.426221 98.533098 
L 304.670874 98.634192 
L 305.16018 103.158156 
L 305.404833 101.237366 
L 305.649486 81.802014 
L 306.138792 74.169404 
L 306.383445 75.28144 
L 306.628098 74.017763 
L 306.872751 73.613387 
L 307.117404 74.952884 
L 307.60671 70.631109 
L 307.851363 70.833297 
L 308.096016 73.335378 
L 308.585322 71.010212 
L 308.829975 72.021153 
L 309.074628 75.609996 
L 309.319281 75.104525 
L 309.563934 72.905727 
L 309.808587 72.046427 
L 310.05324 74.725422 
L 310.297893 75.685817 
L 310.542546 74.599055 
L 310.787199 71.692597 
L 311.031852 72.450804 
L 311.521158 70.201459 
L 311.765811 71.237674 
L 312.010464 68.305943 
L 312.49977 69.898176 
L 312.744423 71.035485 
L 312.989076 71.56623 
L 313.233729 70.883844 
L 313.478382 71.086032 
L 313.723035 72.551898 
L 313.967688 72.021153 
L 314.212341 78.870283 
L 314.456994 81.220722 
L 314.701647 81.094355 
L 314.9463 86.19961 
L 315.190953 85.871054 
L 315.435607 100.731896 
L 315.68026 96.258479 
L 315.924913 96.056291 
L 316.658872 114.657617 
L 316.903525 112.155536 
L 317.148178 114.556522 
L 317.392831 114.68289 
L 317.637484 109.678729 
L 317.882137 110.487482 
L 318.12679 111.902801 
L 318.616096 109.602908 
L 318.860749 108.465599 
L 319.105402 110.032559 
L 319.594708 115.289455 
L 319.839361 117.917903 
L 320.084014 122.770423 
L 320.328667 110.083106 
L 320.57332 113.874137 
L 321.307279 117.766262 
L 322.041238 113.874137 
L 322.285891 115.264181 
L 322.530544 115.870746 
L 322.775197 116.047661 
L 323.01985 119.712325 
L 323.753809 116.32567 
L 323.998462 119.029939 
L 324.243115 111.068774 
L 324.487768 113.924684 
L 324.732421 113.949957 
L 324.977074 114.25324 
L 325.221727 117.033329 
L 325.711033 124.868127 
L 325.955686 125.853795 
L 326.444992 136.039032 
L 326.689645 132.753472 
L 326.934298 126.308719 
L 327.178951 124.539571 
L 327.423604 124.767033 
L 327.91291 111.372056 
L 328.157563 113.520307 
L 328.402216 111.018227 
L 328.891522 115.516917 
L 329.136175 113.46976 
L 329.380828 109.678729 
L 329.625481 112.382998 
L 329.870134 111.675339 
L 330.114787 113.267572 
L 330.35944 112.68628 
L 330.604093 116.148755 
L 330.848746 112.029168 
L 331.093399 111.144594 
L 331.338052 111.953348 
L 331.582705 113.874137 
L 332.316664 91.91143 
L 332.561317 90.319197 
L 333.050623 93.705851 
L 333.295276 90.875215 
L 333.539929 90.117009 
L 333.784582 82.408579 
L 334.029235 81.397637 
L 334.518541 85.921601 
L 335.007847 85.972148 
L 335.2525 88.600596 
L 335.497153 88.297314 
L 335.741806 90.875215 
L 335.986459 91.835609 
L 336.231112 91.759789 
L 336.475765 83.798623 
L 336.720418 84.000812 
L 336.965071 88.70169 
L 337.209724 86.957816 
L 337.454377 87.261098 
L 337.69903 86.427072 
L 337.943684 86.452345 
L 338.188337 81.524005 
L 338.43299 80.361422 
L 338.677643 81.802014 
L 338.922296 80.437242 
L 339.166949 83.545888 
L 339.656255 80.689978 
L 339.900908 80.866893 
L 340.145561 85.946874 
L 340.634867 81.170175 
L 340.87952 86.452345 
L 341.124173 70.555288 
L 341.368826 70.125638 
L 341.613479 73.385925 
L 341.858132 72.147521 
L 342.102785 69.872903 
L 342.347438 63.453423 
L 342.592091 60.824975 
L 342.836744 60.926069 
L 343.32605 53.242913 
L 343.570703 51.347397 
L 343.815356 51.069388 
L 344.060009 48.339846 
L 344.304662 49.426608 
L 344.549315 51.094662 
L 344.793968 46.772886 
L 345.038621 46.621245 
L 345.283274 47.733281 
L 345.527927 46.01468 
L 345.77258 45.711398 
L 346.017233 65.222571 
L 346.261886 74.144131 
L 346.506539 73.461745 
L 346.995845 76.570391 
L 347.240498 77.581332 
L 347.485151 79.653763 
L 347.729804 77.909888 
L 347.974457 74.624328 
L 348.463763 71.414588 
L 348.708416 72.349709 
L 348.953069 74.017763 
L 349.197722 71.743145 
L 349.687028 75.938552 
L 349.931681 75.609996 
L 350.66564 71.2124 
L 350.910293 71.717871 
L 351.154946 74.219951 
L 351.399599 72.829907 
L 351.644252 73.461745 
L 351.888905 65.829136 
L 352.378211 62.796311 
L 352.867517 65.450033 
L 353.11217 68.811414 
L 353.356823 66.637889 
L 353.601476 65.551127 
L 353.846129 65.728042 
L 354.090782 65.50058 
L 354.335435 63.93362 
L 354.580088 59.990948 
L 354.824741 59.106374 
L 355.069394 48.693675 
L 355.314047 47.050895 
L 355.5587 46.873981 
L 355.803353 46.01468 
L 356.048006 44.169712 
L 356.292659 41.061066 
L 356.537312 34.414125 
L 356.781965 40.100672 
L 357.026618 59.207468 
L 357.271271 59.106374 
L 357.515924 62.467755 
L 357.760577 62.695217 
L 358.00523 63.655612 
L 358.249883 61.911737 
L 358.494536 63.352329 
L 358.739189 68.027934 
L 359.228495 61.734822 
L 359.473148 59.814033 
L 359.717801 59.637119 
L 359.962454 58.272347 
L 360.207107 53.925298 
L 360.451761 46.01468 
L 361.18572 39.013909 
L 361.430373 38.154609 
L 361.675026 35.349246 
L 361.919679 36.941479 
L 362.164332 35.045964 
L 362.898291 41.51599 
L 363.387597 36.385461 
L 363.63225 40.454501 
L 363.876903 73.183736 
L 364.121556 80.184507 
L 364.366209 83.823897 
L 364.610862 83.192058 
L 365.100168 98.40673 
L 365.344821 90.647753 
L 365.589474 93.023466 
L 365.834127 90.723574 
L 366.07878 94.489331 
L 366.323433 91.330139 
L 367.057392 98.507824 
L 367.546698 113.89941 
L 367.791351 113.621401 
L 368.036004 112.003895 
L 368.280657 107.32829 
L 368.52531 108.844702 
L 368.769963 109.249079 
L 369.014616 112.635733 
L 369.503922 113.924684 
L 369.748575 115.314729 
L 369.993228 113.89941 
L 370.237881 108.415052 
L 370.482534 111.144594 
L 370.97184 109.122711 
L 371.216493 94.918981 
L 371.705799 87.918211 
L 371.950452 96.435394 
L 372.195105 100.150604 
L 372.439758 98.861654 
L 372.684411 96.83977 
L 372.929064 99.089115 
L 373.173717 99.645133 
L 373.41837 99.61986 
L 373.663023 96.435394 
L 373.907676 99.038568 
L 374.152329 91.759789 
L 374.641635 98.533098 
L 374.886288 98.558371 
L 375.130941 94.438784 
L 375.375594 92.745457 
L 375.620247 113.065383 
L 375.8649 110.234747 
L 376.109553 109.982011 
L 376.598859 105.205312 
L 377.088165 95.601367 
L 377.332818 93.326748 
L 377.577471 94.034407 
L 377.822124 92.972919 
L 378.066777 97.951806 
L 378.31143 97.825438 
L 378.800736 83.596435 
L 379.045389 85.163395 
L 379.290042 85.340309 
L 379.534695 88.853332 
L 379.779348 87.210551 
L 380.024001 83.950265 
L 380.268654 87.41274 
L 380.513307 87.892937 
L 380.75796 85.264489 
L 381.002613 80.866893 
L 381.247266 79.982319 
L 381.491919 81.296543 
L 381.736572 80.310875 
L 381.981225 76.267108 
L 382.225878 78.314265 
L 382.470531 77.985709 
L 382.715184 73.28483 
L 382.959838 98.507824 
L 383.204491 104.775662 
L 383.449144 99.063842 
L 383.693797 96.536488 
L 383.93845 98.179268 
L 384.183103 91.532327 
L 384.427756 94.160775 
L 384.672409 95.247537 
L 384.917062 97.345241 
L 385.161715 95.045349 
L 385.651021 85.997421 
L 385.895674 85.365583 
L 386.140327 85.643592 
L 386.38498 84.935933 
L 386.629633 85.138121 
L 386.874286 90.571932 
L 387.118939 88.423681 
L 387.852898 74.877064 
L 387.852898 74.877064 
" style="fill:none;stroke:#ff7f0e;stroke-linecap:square;stroke-width:1.5;"/>
   </g>
   <g id="patch_3">
    <path d="M 46.965625 288.430125 
L 46.965625 22.318125 
" style="fill:none;stroke:#000000;stroke-linecap:square;stroke-linejoin:miter;stroke-width:0.8;"/>
   </g>
   <g id="patch_4">
    <path d="M 404.085625 288.430125 
L 404.085625 22.318125 
" style="fill:none;stroke:#000000;stroke-linecap:square;stroke-linejoin:miter;stroke-width:0.8;"/>
   </g>
   <g id="patch_5">
    <path d="M 46.965625 288.430125 
L 404.085625 288.430125 
" style="fill:none;stroke:#000000;stroke-linecap:square;stroke-linejoin:miter;stroke-width:0.8;"/>
   </g>
   <g id="patch_6">
    <path d="M 46.965625 22.318125 
L 404.085625 22.318125 
" style="fill:none;stroke:#000000;stroke-linecap:square;stroke-linejoin:miter;stroke-width:0.8;"/>
   </g>
   <g id="text_15">
    <!-- Training: COST -->
    <defs>
     <path d="M -0.296875 72.90625 
L 61.375 72.90625 
L 61.375 64.59375 
L 35.5 64.59375 
L 35.5 0 
L 25.59375 0 
L 25.59375 64.59375 
L -0.296875 64.59375 
z
" id="DejaVuSans-84"/>
     <path d="M 54.890625 33.015625 
L 54.890625 0 
L 45.90625 0 
L 45.90625 32.71875 
Q 45.90625 40.484375 42.875 44.328125 
Q 39.84375 48.1875 33.796875 48.1875 
Q 26.515625 48.1875 22.3125 43.546875 
Q 18.109375 38.921875 18.109375 30.90625 
L 18.109375 0 
L 9.078125 0 
L 9.078125 54.6875 
L 18.109375 54.6875 
L 18.109375 46.1875 
Q 21.34375 51.125 25.703125 53.5625 
Q 30.078125 56 35.796875 56 
Q 45.21875 56 50.046875 50.171875 
Q 54.890625 44.34375 54.890625 33.015625 
z
" id="DejaVuSans-110"/>
     <path d="M 45.40625 27.984375 
Q 45.40625 37.75 41.375 43.109375 
Q 37.359375 48.484375 30.078125 48.484375 
Q 22.859375 48.484375 18.828125 43.109375 
Q 14.796875 37.75 14.796875 27.984375 
Q 14.796875 18.265625 18.828125 12.890625 
Q 22.859375 7.515625 30.078125 7.515625 
Q 37.359375 7.515625 41.375 12.890625 
Q 45.40625 18.265625 45.40625 27.984375 
z
M 54.390625 6.78125 
Q 54.390625 -7.171875 48.1875 -13.984375 
Q 42 -20.796875 29.203125 -20.796875 
Q 24.46875 -20.796875 20.265625 -20.09375 
Q 16.0625 -19.390625 12.109375 -17.921875 
L 12.109375 -9.1875 
Q 16.0625 -11.328125 19.921875 -12.34375 
Q 23.78125 -13.375 27.78125 -13.375 
Q 36.625 -13.375 41.015625 -8.765625 
Q 45.40625 -4.15625 45.40625 5.171875 
L 45.40625 9.625 
Q 42.625 4.78125 38.28125 2.390625 
Q 33.9375 0 27.875 0 
Q 17.828125 0 11.671875 7.65625 
Q 5.515625 15.328125 5.515625 27.984375 
Q 5.515625 40.671875 11.671875 48.328125 
Q 17.828125 56 27.875 56 
Q 33.9375 56 38.28125 53.609375 
Q 42.625 51.21875 45.40625 46.390625 
L 45.40625 54.6875 
L 54.390625 54.6875 
z
" id="DejaVuSans-103"/>
     <path d="M 11.71875 12.40625 
L 22.015625 12.40625 
L 22.015625 0 
L 11.71875 0 
z
M 11.71875 51.703125 
L 22.015625 51.703125 
L 22.015625 39.3125 
L 11.71875 39.3125 
z
" id="DejaVuSans-58"/>
     <path d="M 64.40625 67.28125 
L 64.40625 56.890625 
Q 59.421875 61.53125 53.78125 63.8125 
Q 48.140625 66.109375 41.796875 66.109375 
Q 29.296875 66.109375 22.65625 58.46875 
Q 16.015625 50.828125 16.015625 36.375 
Q 16.015625 21.96875 22.65625 14.328125 
Q 29.296875 6.6875 41.796875 6.6875 
Q 48.140625 6.6875 53.78125 8.984375 
Q 59.421875 11.28125 64.40625 15.921875 
L 64.40625 5.609375 
Q 59.234375 2.09375 53.4375 0.328125 
Q 47.65625 -1.421875 41.21875 -1.421875 
Q 24.65625 -1.421875 15.125 8.703125 
Q 5.609375 18.84375 5.609375 36.375 
Q 5.609375 53.953125 15.125 64.078125 
Q 24.65625 74.21875 41.21875 74.21875 
Q 47.75 74.21875 53.53125 72.484375 
Q 59.328125 70.75 64.40625 67.28125 
z
" id="DejaVuSans-67"/>
     <path d="M 39.40625 66.21875 
Q 28.65625 66.21875 22.328125 58.203125 
Q 16.015625 50.203125 16.015625 36.375 
Q 16.015625 22.609375 22.328125 14.59375 
Q 28.65625 6.59375 39.40625 6.59375 
Q 50.140625 6.59375 56.421875 14.59375 
Q 62.703125 22.609375 62.703125 36.375 
Q 62.703125 50.203125 56.421875 58.203125 
Q 50.140625 66.21875 39.40625 66.21875 
z
M 39.40625 74.21875 
Q 54.734375 74.21875 63.90625 63.9375 
Q 73.09375 53.65625 73.09375 36.375 
Q 73.09375 19.140625 63.90625 8.859375 
Q 54.734375 -1.421875 39.40625 -1.421875 
Q 24.03125 -1.421875 14.8125 8.828125 
Q 5.609375 19.09375 5.609375 36.375 
Q 5.609375 53.65625 14.8125 63.9375 
Q 24.03125 74.21875 39.40625 74.21875 
z
" id="DejaVuSans-79"/>
     <path d="M 53.515625 70.515625 
L 53.515625 60.890625 
Q 47.90625 63.578125 42.921875 64.890625 
Q 37.9375 66.21875 33.296875 66.21875 
Q 25.25 66.21875 20.875 63.09375 
Q 16.5 59.96875 16.5 54.203125 
Q 16.5 49.359375 19.40625 46.890625 
Q 22.3125 44.4375 30.421875 42.921875 
L 36.375 41.703125 
Q 47.40625 39.59375 52.65625 34.296875 
Q 57.90625 29 57.90625 20.125 
Q 57.90625 9.515625 50.796875 4.046875 
Q 43.703125 -1.421875 29.984375 -1.421875 
Q 24.8125 -1.421875 18.96875 -0.25 
Q 13.140625 0.921875 6.890625 3.21875 
L 6.890625 13.375 
Q 12.890625 10.015625 18.65625 8.296875 
Q 24.421875 6.59375 29.984375 6.59375 
Q 38.421875 6.59375 43.015625 9.90625 
Q 47.609375 13.234375 47.609375 19.390625 
Q 47.609375 24.75 44.3125 27.78125 
Q 41.015625 30.8125 33.5 32.328125 
L 27.484375 33.5 
Q 16.453125 35.6875 11.515625 40.375 
Q 6.59375 45.0625 6.59375 53.421875 
Q 6.59375 63.09375 13.40625 68.65625 
Q 20.21875 74.21875 32.171875 74.21875 
Q 37.3125 74.21875 42.625 73.28125 
Q 47.953125 72.359375 53.515625 70.515625 
z
" id="DejaVuSans-83"/>
    </defs>
    <g transform="translate(181.54 16.318125)scale(0.12 -0.12)">
     <use xlink:href="#DejaVuSans-84"/>
     <use x="46.333984" xlink:href="#DejaVuSans-114"/>
     <use x="87.447266" xlink:href="#DejaVuSans-97"/>
     <use x="148.726562" xlink:href="#DejaVuSans-105"/>
     <use x="176.509766" xlink:href="#DejaVuSans-110"/>
     <use x="239.888672" xlink:href="#DejaVuSans-105"/>
     <use x="267.671875" xlink:href="#DejaVuSans-110"/>
     <use x="331.050781" xlink:href="#DejaVuSans-103"/>
     <use x="394.527344" xlink:href="#DejaVuSans-58"/>
     <use x="428.21875" xlink:href="#DejaVuSans-32"/>
     <use x="460.005859" xlink:href="#DejaVuSans-67"/>
     <use x="529.830078" xlink:href="#DejaVuSans-79"/>
     <use x="608.541016" xlink:href="#DejaVuSans-83"/>
     <use x="672.017578" xlink:href="#DejaVuSans-84"/>
    </g>
   </g>
   <g id="legend_1">
    <g id="patch_7">
     <path d="M 53.965625 59.674375 
L 137.69375 59.674375 
Q 139.69375 59.674375 139.69375 57.674375 
L 139.69375 29.318125 
Q 139.69375 27.318125 137.69375 27.318125 
L 53.965625 27.318125 
Q 51.965625 27.318125 51.965625 29.318125 
L 51.965625 57.674375 
Q 51.965625 59.674375 53.965625 59.674375 
z
" style="fill:#ffffff;opacity:0.8;stroke:#cccccc;stroke-linejoin:miter;"/>
    </g>
    <g id="line2d_27">
     <path d="M 55.965625 35.416562 
L 75.965625 35.416562 
" style="fill:none;stroke:#1f77b4;stroke-linecap:square;stroke-width:1.5;"/>
    </g>
    <g id="line2d_28"/>
    <g id="text_16">
     <!-- Predicted -->
     <defs>
      <path d="M 45.40625 46.390625 
L 45.40625 75.984375 
L 54.390625 75.984375 
L 54.390625 0 
L 45.40625 0 
L 45.40625 8.203125 
Q 42.578125 3.328125 38.25 0.953125 
Q 33.9375 -1.421875 27.875 -1.421875 
Q 17.96875 -1.421875 11.734375 6.484375 
Q 5.515625 14.40625 5.515625 27.296875 
Q 5.515625 40.1875 11.734375 48.09375 
Q 17.96875 56 27.875 56 
Q 33.9375 56 38.25 53.625 
Q 42.578125 51.265625 45.40625 46.390625 
z
M 14.796875 27.296875 
Q 14.796875 17.390625 18.875 11.75 
Q 22.953125 6.109375 30.078125 6.109375 
Q 37.203125 6.109375 41.296875 11.75 
Q 45.40625 17.390625 45.40625 27.296875 
Q 45.40625 37.203125 41.296875 42.84375 
Q 37.203125 48.484375 30.078125 48.484375 
Q 22.953125 48.484375 18.875 42.84375 
Q 14.796875 37.203125 14.796875 27.296875 
z
" id="DejaVuSans-100"/>
      <path d="M 18.3125 70.21875 
L 18.3125 54.6875 
L 36.8125 54.6875 
L 36.8125 47.703125 
L 18.3125 47.703125 
L 18.3125 18.015625 
Q 18.3125 11.328125 20.140625 9.421875 
Q 21.96875 7.515625 27.59375 7.515625 
L 36.8125 7.515625 
L 36.8125 0 
L 27.59375 0 
Q 17.1875 0 13.234375 3.875 
Q 9.28125 7.765625 9.28125 18.015625 
L 9.28125 47.703125 
L 2.6875 47.703125 
L 2.6875 54.6875 
L 9.28125 54.6875 
L 9.28125 70.21875 
z
" id="DejaVuSans-116"/>
     </defs>
     <g transform="translate(83.965625 38.916562)scale(0.1 -0.1)">
      <use xlink:href="#DejaVuSans-80"/>
      <use x="58.552734" xlink:href="#DejaVuSans-114"/>
      <use x="97.416016" xlink:href="#DejaVuSans-101"/>
      <use x="158.939453" xlink:href="#DejaVuSans-100"/>
      <use x="222.416016" xlink:href="#DejaVuSans-105"/>
      <use x="250.199219" xlink:href="#DejaVuSans-99"/>
      <use x="305.179688" xlink:href="#DejaVuSans-116"/>
      <use x="344.388672" xlink:href="#DejaVuSans-101"/>
      <use x="405.912109" xlink:href="#DejaVuSans-100"/>
     </g>
    </g>
    <g id="line2d_29">
     <path d="M 55.965625 50.094687 
L 75.965625 50.094687 
" style="fill:none;stroke:#ff7f0e;stroke-linecap:square;stroke-width:1.5;"/>
    </g>
    <g id="line2d_30"/>
    <g id="text_17">
     <!-- True value -->
     <defs>
      <path d="M 8.5 21.578125 
L 8.5 54.6875 
L 17.484375 54.6875 
L 17.484375 21.921875 
Q 17.484375 14.15625 20.5 10.265625 
Q 23.53125 6.390625 29.59375 6.390625 
Q 36.859375 6.390625 41.078125 11.03125 
Q 45.3125 15.671875 45.3125 23.6875 
L 45.3125 54.6875 
L 54.296875 54.6875 
L 54.296875 0 
L 45.3125 0 
L 45.3125 8.40625 
Q 42.046875 3.421875 37.71875 1 
Q 33.40625 -1.421875 27.6875 -1.421875 
Q 18.265625 -1.421875 13.375 4.4375 
Q 8.5 10.296875 8.5 21.578125 
z
M 31.109375 56 
z
" id="DejaVuSans-117"/>
      <path d="M 2.984375 54.6875 
L 12.5 54.6875 
L 29.59375 8.796875 
L 46.6875 54.6875 
L 56.203125 54.6875 
L 35.6875 0 
L 23.484375 0 
z
" id="DejaVuSans-118"/>
      <path d="M 9.421875 75.984375 
L 18.40625 75.984375 
L 18.40625 0 
L 9.421875 0 
z
" id="DejaVuSans-108"/>
     </defs>
     <g transform="translate(83.965625 53.594687)scale(0.1 -0.1)">
      <use xlink:href="#DejaVuSans-84"/>
      <use x="46.333984" xlink:href="#DejaVuSans-114"/>
      <use x="87.447266" xlink:href="#DejaVuSans-117"/>
      <use x="150.826172" xlink:href="#DejaVuSans-101"/>
      <use x="212.349609" xlink:href="#DejaVuSans-32"/>
      <use x="244.136719" xlink:href="#DejaVuSans-118"/>
      <use x="303.316406" xlink:href="#DejaVuSans-97"/>
      <use x="364.595703" xlink:href="#DejaVuSans-108"/>
      <use x="392.378906" xlink:href="#DejaVuSans-117"/>
      <use x="455.757812" xlink:href="#DejaVuSans-101"/>
     </g>
    </g>
   </g>
  </g>
 </g>
 <defs>
  <clipPath id="p51e1aa759b">
   <rect height="266.112" width="357.12" x="46.965625" y="22.318125"/>
  </clipPath>
 </defs>
</svg>
