<?xml version="1.0" encoding="utf-8" standalone="no"?>
<!DOCTYPE svg PUBLIC "-//W3C//DTD SVG 1.1//EN"
  "http://www.w3.org/Graphics/SVG/1.1/DTD/svg11.dtd">
<!-- Created with matplotlib (https://matplotlib.org/) -->
<svg height="325.986375pt" version="1.1" viewBox="0 0 411.285625 325.986375" width="411.285625pt" xmlns="http://www.w3.org/2000/svg" xmlns:xlink="http://www.w3.org/1999/xlink">
 <defs>
  <style type="text/css">
*{stroke-linecap:butt;stroke-linejoin:round;}
  </style>
 </defs>
 <g id="figure_1">
  <g id="patch_1">
   <path d="M 0 325.986375 
L 411.285625 325.986375 
L 411.285625 0 
L 0 0 
z
" style="fill:#ffffff;"/>
  </g>
  <g id="axes_1">
   <g id="patch_2">
    <path d="M 46.965625 288.430125 
L 404.085625 288.430125 
L 404.085625 22.318125 
L 46.965625 22.318125 
z
" style="fill:#ffffff;"/>
   </g>
   <g id="matplotlib.axis_1">
    <g id="xtick_1">
     <g id="line2d_1">
      <path clip-path="url(#p0a30449e92)" d="M 63.198352 288.430125 
L 63.198352 22.318125 
" style="fill:none;stroke:#b0b0b0;stroke-dasharray:2.96,1.28;stroke-dashoffset:0;stroke-width:0.8;"/>
     </g>
     <g id="line2d_2">
      <defs>
       <path d="M 0 0 
L 0 3.5 
" id="m931a5dbed3" style="stroke:#000000;stroke-width:0.8;"/>
      </defs>
      <g>
       <use style="stroke:#000000;stroke-width:0.8;" x="63.198352" xlink:href="#m931a5dbed3" y="288.430125"/>
      </g>
     </g>
     <g id="text_1">
      <!-- 0 -->
      <defs>
       <path d="M 31.78125 66.40625 
Q 24.171875 66.40625 20.328125 58.90625 
Q 16.5 51.421875 16.5 36.375 
Q 16.5 21.390625 20.328125 13.890625 
Q 24.171875 6.390625 31.78125 6.390625 
Q 39.453125 6.390625 43.28125 13.890625 
Q 47.125 21.390625 47.125 36.375 
Q 47.125 51.421875 43.28125 58.90625 
Q 39.453125 66.40625 31.78125 66.40625 
z
M 31.78125 74.21875 
Q 44.046875 74.21875 50.515625 64.515625 
Q 56.984375 54.828125 56.984375 36.375 
Q 56.984375 17.96875 50.515625 8.265625 
Q 44.046875 -1.421875 31.78125 -1.421875 
Q 19.53125 -1.421875 13.0625 8.265625 
Q 6.59375 17.96875 6.59375 36.375 
Q 6.59375 54.828125 13.0625 64.515625 
Q 19.53125 74.21875 31.78125 74.21875 
z
" id="DejaVuSans-48"/>
      </defs>
      <g transform="translate(60.017102 303.028562)scale(0.1 -0.1)">
       <use xlink:href="#DejaVuSans-48"/>
      </g>
     </g>
    </g>
    <g id="xtick_2">
     <g id="line2d_3">
      <path clip-path="url(#p0a30449e92)" d="M 112.128954 288.430125 
L 112.128954 22.318125 
" style="fill:none;stroke:#b0b0b0;stroke-dasharray:2.96,1.28;stroke-dashoffset:0;stroke-width:0.8;"/>
     </g>
     <g id="line2d_4">
      <g>
       <use style="stroke:#000000;stroke-width:0.8;" x="112.128954" xlink:href="#m931a5dbed3" y="288.430125"/>
      </g>
     </g>
     <g id="text_2">
      <!-- 200 -->
      <defs>
       <path d="M 19.1875 8.296875 
L 53.609375 8.296875 
L 53.609375 0 
L 7.328125 0 
L 7.328125 8.296875 
Q 12.9375 14.109375 22.625 23.890625 
Q 32.328125 33.6875 34.8125 36.53125 
Q 39.546875 41.84375 41.421875 45.53125 
Q 43.3125 49.21875 43.3125 52.78125 
Q 43.3125 58.59375 39.234375 62.25 
Q 35.15625 65.921875 28.609375 65.921875 
Q 23.96875 65.921875 18.8125 64.3125 
Q 13.671875 62.703125 7.8125 59.421875 
L 7.8125 69.390625 
Q 13.765625 71.78125 18.9375 73 
Q 24.125 74.21875 28.421875 74.21875 
Q 39.75 74.21875 46.484375 68.546875 
Q 53.21875 62.890625 53.21875 53.421875 
Q 53.21875 48.921875 51.53125 44.890625 
Q 49.859375 40.875 45.40625 35.40625 
Q 44.1875 33.984375 37.640625 27.21875 
Q 31.109375 20.453125 19.1875 8.296875 
z
" id="DejaVuSans-50"/>
      </defs>
      <g transform="translate(102.585204 303.028562)scale(0.1 -0.1)">
       <use xlink:href="#DejaVuSans-50"/>
       <use x="63.623047" xlink:href="#DejaVuSans-48"/>
       <use x="127.246094" xlink:href="#DejaVuSans-48"/>
      </g>
     </g>
    </g>
    <g id="xtick_3">
     <g id="line2d_5">
      <path clip-path="url(#p0a30449e92)" d="M 161.059557 288.430125 
L 161.059557 22.318125 
" style="fill:none;stroke:#b0b0b0;stroke-dasharray:2.96,1.28;stroke-dashoffset:0;stroke-width:0.8;"/>
     </g>
     <g id="line2d_6">
      <g>
       <use style="stroke:#000000;stroke-width:0.8;" x="161.059557" xlink:href="#m931a5dbed3" y="288.430125"/>
      </g>
     </g>
     <g id="text_3">
      <!-- 400 -->
      <defs>
       <path d="M 37.796875 64.3125 
L 12.890625 25.390625 
L 37.796875 25.390625 
z
M 35.203125 72.90625 
L 47.609375 72.90625 
L 47.609375 25.390625 
L 58.015625 25.390625 
L 58.015625 17.1875 
L 47.609375 17.1875 
L 47.609375 0 
L 37.796875 0 
L 37.796875 17.1875 
L 4.890625 17.1875 
L 4.890625 26.703125 
z
" id="DejaVuSans-52"/>
      </defs>
      <g transform="translate(151.515807 303.028562)scale(0.1 -0.1)">
       <use xlink:href="#DejaVuSans-52"/>
       <use x="63.623047" xlink:href="#DejaVuSans-48"/>
       <use x="127.246094" xlink:href="#DejaVuSans-48"/>
      </g>
     </g>
    </g>
    <g id="xtick_4">
     <g id="line2d_7">
      <path clip-path="url(#p0a30449e92)" d="M 209.990159 288.430125 
L 209.990159 22.318125 
" style="fill:none;stroke:#b0b0b0;stroke-dasharray:2.96,1.28;stroke-dashoffset:0;stroke-width:0.8;"/>
     </g>
     <g id="line2d_8">
      <g>
       <use style="stroke:#000000;stroke-width:0.8;" x="209.990159" xlink:href="#m931a5dbed3" y="288.430125"/>
      </g>
     </g>
     <g id="text_4">
      <!-- 600 -->
      <defs>
       <path d="M 33.015625 40.375 
Q 26.375 40.375 22.484375 35.828125 
Q 18.609375 31.296875 18.609375 23.390625 
Q 18.609375 15.53125 22.484375 10.953125 
Q 26.375 6.390625 33.015625 6.390625 
Q 39.65625 6.390625 43.53125 10.953125 
Q 47.40625 15.53125 47.40625 23.390625 
Q 47.40625 31.296875 43.53125 35.828125 
Q 39.65625 40.375 33.015625 40.375 
z
M 52.59375 71.296875 
L 52.59375 62.3125 
Q 48.875 64.0625 45.09375 64.984375 
Q 41.3125 65.921875 37.59375 65.921875 
Q 27.828125 65.921875 22.671875 59.328125 
Q 17.53125 52.734375 16.796875 39.40625 
Q 19.671875 43.65625 24.015625 45.921875 
Q 28.375 48.1875 33.59375 48.1875 
Q 44.578125 48.1875 50.953125 41.515625 
Q 57.328125 34.859375 57.328125 23.390625 
Q 57.328125 12.15625 50.6875 5.359375 
Q 44.046875 -1.421875 33.015625 -1.421875 
Q 20.359375 -1.421875 13.671875 8.265625 
Q 6.984375 17.96875 6.984375 36.375 
Q 6.984375 53.65625 15.1875 63.9375 
Q 23.390625 74.21875 37.203125 74.21875 
Q 40.921875 74.21875 44.703125 73.484375 
Q 48.484375 72.75 52.59375 71.296875 
z
" id="DejaVuSans-54"/>
      </defs>
      <g transform="translate(200.446409 303.028562)scale(0.1 -0.1)">
       <use xlink:href="#DejaVuSans-54"/>
       <use x="63.623047" xlink:href="#DejaVuSans-48"/>
       <use x="127.246094" xlink:href="#DejaVuSans-48"/>
      </g>
     </g>
    </g>
    <g id="xtick_5">
     <g id="line2d_9">
      <path clip-path="url(#p0a30449e92)" d="M 258.920761 288.430125 
L 258.920761 22.318125 
" style="fill:none;stroke:#b0b0b0;stroke-dasharray:2.96,1.28;stroke-dashoffset:0;stroke-width:0.8;"/>
     </g>
     <g id="line2d_10">
      <g>
       <use style="stroke:#000000;stroke-width:0.8;" x="258.920761" xlink:href="#m931a5dbed3" y="288.430125"/>
      </g>
     </g>
     <g id="text_5">
      <!-- 800 -->
      <defs>
       <path d="M 31.78125 34.625 
Q 24.75 34.625 20.71875 30.859375 
Q 16.703125 27.09375 16.703125 20.515625 
Q 16.703125 13.921875 20.71875 10.15625 
Q 24.75 6.390625 31.78125 6.390625 
Q 38.8125 6.390625 42.859375 10.171875 
Q 46.921875 13.96875 46.921875 20.515625 
Q 46.921875 27.09375 42.890625 30.859375 
Q 38.875 34.625 31.78125 34.625 
z
M 21.921875 38.8125 
Q 15.578125 40.375 12.03125 44.71875 
Q 8.5 49.078125 8.5 55.328125 
Q 8.5 64.0625 14.71875 69.140625 
Q 20.953125 74.21875 31.78125 74.21875 
Q 42.671875 74.21875 48.875 69.140625 
Q 55.078125 64.0625 55.078125 55.328125 
Q 55.078125 49.078125 51.53125 44.71875 
Q 48 40.375 41.703125 38.8125 
Q 48.828125 37.15625 52.796875 32.3125 
Q 56.78125 27.484375 56.78125 20.515625 
Q 56.78125 9.90625 50.3125 4.234375 
Q 43.84375 -1.421875 31.78125 -1.421875 
Q 19.734375 -1.421875 13.25 4.234375 
Q 6.78125 9.90625 6.78125 20.515625 
Q 6.78125 27.484375 10.78125 32.3125 
Q 14.796875 37.15625 21.921875 38.8125 
z
M 18.3125 54.390625 
Q 18.3125 48.734375 21.84375 45.5625 
Q 25.390625 42.390625 31.78125 42.390625 
Q 38.140625 42.390625 41.71875 45.5625 
Q 45.3125 48.734375 45.3125 54.390625 
Q 45.3125 60.0625 41.71875 63.234375 
Q 38.140625 66.40625 31.78125 66.40625 
Q 25.390625 66.40625 21.84375 63.234375 
Q 18.3125 60.0625 18.3125 54.390625 
z
" id="DejaVuSans-56"/>
      </defs>
      <g transform="translate(249.377011 303.028562)scale(0.1 -0.1)">
       <use xlink:href="#DejaVuSans-56"/>
       <use x="63.623047" xlink:href="#DejaVuSans-48"/>
       <use x="127.246094" xlink:href="#DejaVuSans-48"/>
      </g>
     </g>
    </g>
    <g id="xtick_6">
     <g id="line2d_11">
      <path clip-path="url(#p0a30449e92)" d="M 307.851363 288.430125 
L 307.851363 22.318125 
" style="fill:none;stroke:#b0b0b0;stroke-dasharray:2.96,1.28;stroke-dashoffset:0;stroke-width:0.8;"/>
     </g>
     <g id="line2d_12">
      <g>
       <use style="stroke:#000000;stroke-width:0.8;" x="307.851363" xlink:href="#m931a5dbed3" y="288.430125"/>
      </g>
     </g>
     <g id="text_6">
      <!-- 1000 -->
      <defs>
       <path d="M 12.40625 8.296875 
L 28.515625 8.296875 
L 28.515625 63.921875 
L 10.984375 60.40625 
L 10.984375 69.390625 
L 28.421875 72.90625 
L 38.28125 72.90625 
L 38.28125 8.296875 
L 54.390625 8.296875 
L 54.390625 0 
L 12.40625 0 
z
" id="DejaVuSans-49"/>
      </defs>
      <g transform="translate(295.126363 303.028562)scale(0.1 -0.1)">
       <use xlink:href="#DejaVuSans-49"/>
       <use x="63.623047" xlink:href="#DejaVuSans-48"/>
       <use x="127.246094" xlink:href="#DejaVuSans-48"/>
       <use x="190.869141" xlink:href="#DejaVuSans-48"/>
      </g>
     </g>
    </g>
    <g id="xtick_7">
     <g id="line2d_13">
      <path clip-path="url(#p0a30449e92)" d="M 356.781965 288.430125 
L 356.781965 22.318125 
" style="fill:none;stroke:#b0b0b0;stroke-dasharray:2.96,1.28;stroke-dashoffset:0;stroke-width:0.8;"/>
     </g>
     <g id="line2d_14">
      <g>
       <use style="stroke:#000000;stroke-width:0.8;" x="356.781965" xlink:href="#m931a5dbed3" y="288.430125"/>
      </g>
     </g>
     <g id="text_7">
      <!-- 1200 -->
      <g transform="translate(344.056965 303.028562)scale(0.1 -0.1)">
       <use xlink:href="#DejaVuSans-49"/>
       <use x="63.623047" xlink:href="#DejaVuSans-50"/>
       <use x="127.246094" xlink:href="#DejaVuSans-48"/>
       <use x="190.869141" xlink:href="#DejaVuSans-48"/>
      </g>
     </g>
    </g>
    <g id="text_8">
     <!-- Day -->
     <defs>
      <path d="M 19.671875 64.796875 
L 19.671875 8.109375 
L 31.59375 8.109375 
Q 46.6875 8.109375 53.6875 14.9375 
Q 60.6875 21.78125 60.6875 36.53125 
Q 60.6875 51.171875 53.6875 57.984375 
Q 46.6875 64.796875 31.59375 64.796875 
z
M 9.8125 72.90625 
L 30.078125 72.90625 
Q 51.265625 72.90625 61.171875 64.09375 
Q 71.09375 55.28125 71.09375 36.53125 
Q 71.09375 17.671875 61.125 8.828125 
Q 51.171875 0 30.078125 0 
L 9.8125 0 
z
" id="DejaVuSans-68"/>
      <path d="M 34.28125 27.484375 
Q 23.390625 27.484375 19.1875 25 
Q 14.984375 22.515625 14.984375 16.5 
Q 14.984375 11.71875 18.140625 8.90625 
Q 21.296875 6.109375 26.703125 6.109375 
Q 34.1875 6.109375 38.703125 11.40625 
Q 43.21875 16.703125 43.21875 25.484375 
L 43.21875 27.484375 
z
M 52.203125 31.203125 
L 52.203125 0 
L 43.21875 0 
L 43.21875 8.296875 
Q 40.140625 3.328125 35.546875 0.953125 
Q 30.953125 -1.421875 24.3125 -1.421875 
Q 15.921875 -1.421875 10.953125 3.296875 
Q 6 8.015625 6 15.921875 
Q 6 25.140625 12.171875 29.828125 
Q 18.359375 34.515625 30.609375 34.515625 
L 43.21875 34.515625 
L 43.21875 35.40625 
Q 43.21875 41.609375 39.140625 45 
Q 35.0625 48.390625 27.6875 48.390625 
Q 23 48.390625 18.546875 47.265625 
Q 14.109375 46.140625 10.015625 43.890625 
L 10.015625 52.203125 
Q 14.9375 54.109375 19.578125 55.046875 
Q 24.21875 56 28.609375 56 
Q 40.484375 56 46.34375 49.84375 
Q 52.203125 43.703125 52.203125 31.203125 
z
" id="DejaVuSans-97"/>
      <path d="M 32.171875 -5.078125 
Q 28.375 -14.84375 24.75 -17.8125 
Q 21.140625 -20.796875 15.09375 -20.796875 
L 7.90625 -20.796875 
L 7.90625 -13.28125 
L 13.1875 -13.28125 
Q 16.890625 -13.28125 18.9375 -11.515625 
Q 21 -9.765625 23.484375 -3.21875 
L 25.09375 0.875 
L 2.984375 54.6875 
L 12.5 54.6875 
L 29.59375 11.921875 
L 46.6875 54.6875 
L 56.203125 54.6875 
z
" id="DejaVuSans-121"/>
     </defs>
     <g transform="translate(215.652188 316.706687)scale(0.1 -0.1)">
      <use xlink:href="#DejaVuSans-68"/>
      <use x="77.001953" xlink:href="#DejaVuSans-97"/>
      <use x="138.28125" xlink:href="#DejaVuSans-121"/>
     </g>
    </g>
   </g>
   <g id="matplotlib.axis_2">
    <g id="ytick_1">
     <g id="line2d_15">
      <path clip-path="url(#p0a30449e92)" d="M 46.965625 285.846494 
L 404.085625 285.846494 
" style="fill:none;stroke:#b0b0b0;stroke-dasharray:2.96,1.28;stroke-dashoffset:0;stroke-width:0.8;"/>
     </g>
     <g id="line2d_16">
      <defs>
       <path d="M 0 0 
L -3.5 0 
" id="mbb3c666623" style="stroke:#000000;stroke-width:0.8;"/>
      </defs>
      <g>
       <use style="stroke:#000000;stroke-width:0.8;" x="46.965625" xlink:href="#mbb3c666623" y="285.846494"/>
      </g>
     </g>
     <g id="text_9">
      <!-- 0 -->
      <g transform="translate(33.603125 289.645713)scale(0.1 -0.1)">
       <use xlink:href="#DejaVuSans-48"/>
      </g>
     </g>
    </g>
    <g id="ytick_2">
     <g id="line2d_17">
      <path clip-path="url(#p0a30449e92)" d="M 46.965625 254.833029 
L 404.085625 254.833029 
" style="fill:none;stroke:#b0b0b0;stroke-dasharray:2.96,1.28;stroke-dashoffset:0;stroke-width:0.8;"/>
     </g>
     <g id="line2d_18">
      <g>
       <use style="stroke:#000000;stroke-width:0.8;" x="46.965625" xlink:href="#mbb3c666623" y="254.833029"/>
      </g>
     </g>
     <g id="text_10">
      <!-- 25 -->
      <defs>
       <path d="M 10.796875 72.90625 
L 49.515625 72.90625 
L 49.515625 64.59375 
L 19.828125 64.59375 
L 19.828125 46.734375 
Q 21.96875 47.46875 24.109375 47.828125 
Q 26.265625 48.1875 28.421875 48.1875 
Q 40.625 48.1875 47.75 41.5 
Q 54.890625 34.8125 54.890625 23.390625 
Q 54.890625 11.625 47.5625 5.09375 
Q 40.234375 -1.421875 26.90625 -1.421875 
Q 22.3125 -1.421875 17.546875 -0.640625 
Q 12.796875 0.140625 7.71875 1.703125 
L 7.71875 11.625 
Q 12.109375 9.234375 16.796875 8.0625 
Q 21.484375 6.890625 26.703125 6.890625 
Q 35.15625 6.890625 40.078125 11.328125 
Q 45.015625 15.765625 45.015625 23.390625 
Q 45.015625 31 40.078125 35.4375 
Q 35.15625 39.890625 26.703125 39.890625 
Q 22.75 39.890625 18.8125 39.015625 
Q 14.890625 38.140625 10.796875 36.28125 
z
" id="DejaVuSans-53"/>
      </defs>
      <g transform="translate(27.240625 258.632247)scale(0.1 -0.1)">
       <use xlink:href="#DejaVuSans-50"/>
       <use x="63.623047" xlink:href="#DejaVuSans-53"/>
      </g>
     </g>
    </g>
    <g id="ytick_3">
     <g id="line2d_19">
      <path clip-path="url(#p0a30449e92)" d="M 46.965625 223.819563 
L 404.085625 223.819563 
" style="fill:none;stroke:#b0b0b0;stroke-dasharray:2.96,1.28;stroke-dashoffset:0;stroke-width:0.8;"/>
     </g>
     <g id="line2d_20">
      <g>
       <use style="stroke:#000000;stroke-width:0.8;" x="46.965625" xlink:href="#mbb3c666623" y="223.819563"/>
      </g>
     </g>
     <g id="text_11">
      <!-- 50 -->
      <g transform="translate(27.240625 227.618782)scale(0.1 -0.1)">
       <use xlink:href="#DejaVuSans-53"/>
       <use x="63.623047" xlink:href="#DejaVuSans-48"/>
      </g>
     </g>
    </g>
    <g id="ytick_4">
     <g id="line2d_21">
      <path clip-path="url(#p0a30449e92)" d="M 46.965625 192.806097 
L 404.085625 192.806097 
" style="fill:none;stroke:#b0b0b0;stroke-dasharray:2.96,1.28;stroke-dashoffset:0;stroke-width:0.8;"/>
     </g>
     <g id="line2d_22">
      <g>
       <use style="stroke:#000000;stroke-width:0.8;" x="46.965625" xlink:href="#mbb3c666623" y="192.806097"/>
      </g>
     </g>
     <g id="text_12">
      <!-- 75 -->
      <defs>
       <path d="M 8.203125 72.90625 
L 55.078125 72.90625 
L 55.078125 68.703125 
L 28.609375 0 
L 18.3125 0 
L 43.21875 64.59375 
L 8.203125 64.59375 
z
" id="DejaVuSans-55"/>
      </defs>
      <g transform="translate(27.240625 196.605316)scale(0.1 -0.1)">
       <use xlink:href="#DejaVuSans-55"/>
       <use x="63.623047" xlink:href="#DejaVuSans-53"/>
      </g>
     </g>
    </g>
    <g id="ytick_5">
     <g id="line2d_23">
      <path clip-path="url(#p0a30449e92)" d="M 46.965625 161.792631 
L 404.085625 161.792631 
" style="fill:none;stroke:#b0b0b0;stroke-dasharray:2.96,1.28;stroke-dashoffset:0;stroke-width:0.8;"/>
     </g>
     <g id="line2d_24">
      <g>
       <use style="stroke:#000000;stroke-width:0.8;" x="46.965625" xlink:href="#mbb3c666623" y="161.792631"/>
      </g>
     </g>
     <g id="text_13">
      <!-- 100 -->
      <g transform="translate(20.878125 165.59185)scale(0.1 -0.1)">
       <use xlink:href="#DejaVuSans-49"/>
       <use x="63.623047" xlink:href="#DejaVuSans-48"/>
       <use x="127.246094" xlink:href="#DejaVuSans-48"/>
      </g>
     </g>
    </g>
    <g id="ytick_6">
     <g id="line2d_25">
      <path clip-path="url(#p0a30449e92)" d="M 46.965625 130.779166 
L 404.085625 130.779166 
" style="fill:none;stroke:#b0b0b0;stroke-dasharray:2.96,1.28;stroke-dashoffset:0;stroke-width:0.8;"/>
     </g>
     <g id="line2d_26">
      <g>
       <use style="stroke:#000000;stroke-width:0.8;" x="46.965625" xlink:href="#mbb3c666623" y="130.779166"/>
      </g>
     </g>
     <g id="text_14">
      <!-- 125 -->
      <g transform="translate(20.878125 134.578384)scale(0.1 -0.1)">
       <use xlink:href="#DejaVuSans-49"/>
       <use x="63.623047" xlink:href="#DejaVuSans-50"/>
       <use x="127.246094" xlink:href="#DejaVuSans-53"/>
      </g>
     </g>
    </g>
    <g id="ytick_7">
     <g id="line2d_27">
      <path clip-path="url(#p0a30449e92)" d="M 46.965625 99.7657 
L 404.085625 99.7657 
" style="fill:none;stroke:#b0b0b0;stroke-dasharray:2.96,1.28;stroke-dashoffset:0;stroke-width:0.8;"/>
     </g>
     <g id="line2d_28">
      <g>
       <use style="stroke:#000000;stroke-width:0.8;" x="46.965625" xlink:href="#mbb3c666623" y="99.7657"/>
      </g>
     </g>
     <g id="text_15">
      <!-- 150 -->
      <g transform="translate(20.878125 103.564919)scale(0.1 -0.1)">
       <use xlink:href="#DejaVuSans-49"/>
       <use x="63.623047" xlink:href="#DejaVuSans-53"/>
       <use x="127.246094" xlink:href="#DejaVuSans-48"/>
      </g>
     </g>
    </g>
    <g id="ytick_8">
     <g id="line2d_29">
      <path clip-path="url(#p0a30449e92)" d="M 46.965625 68.752234 
L 404.085625 68.752234 
" style="fill:none;stroke:#b0b0b0;stroke-dasharray:2.96,1.28;stroke-dashoffset:0;stroke-width:0.8;"/>
     </g>
     <g id="line2d_30">
      <g>
       <use style="stroke:#000000;stroke-width:0.8;" x="46.965625" xlink:href="#mbb3c666623" y="68.752234"/>
      </g>
     </g>
     <g id="text_16">
      <!-- 175 -->
      <g transform="translate(20.878125 72.551453)scale(0.1 -0.1)">
       <use xlink:href="#DejaVuSans-49"/>
       <use x="63.623047" xlink:href="#DejaVuSans-55"/>
       <use x="127.246094" xlink:href="#DejaVuSans-53"/>
      </g>
     </g>
    </g>
    <g id="ytick_9">
     <g id="line2d_31">
      <path clip-path="url(#p0a30449e92)" d="M 46.965625 37.738769 
L 404.085625 37.738769 
" style="fill:none;stroke:#b0b0b0;stroke-dasharray:2.96,1.28;stroke-dashoffset:0;stroke-width:0.8;"/>
     </g>
     <g id="line2d_32">
      <g>
       <use style="stroke:#000000;stroke-width:0.8;" x="46.965625" xlink:href="#mbb3c666623" y="37.738769"/>
      </g>
     </g>
     <g id="text_17">
      <!-- 200 -->
      <g transform="translate(20.878125 41.537987)scale(0.1 -0.1)">
       <use xlink:href="#DejaVuSans-50"/>
       <use x="63.623047" xlink:href="#DejaVuSans-48"/>
       <use x="127.246094" xlink:href="#DejaVuSans-48"/>
      </g>
     </g>
    </g>
    <g id="text_18">
     <!-- Price $ -->
     <defs>
      <path d="M 19.671875 64.796875 
L 19.671875 37.40625 
L 32.078125 37.40625 
Q 38.96875 37.40625 42.71875 40.96875 
Q 46.484375 44.53125 46.484375 51.125 
Q 46.484375 57.671875 42.71875 61.234375 
Q 38.96875 64.796875 32.078125 64.796875 
z
M 9.8125 72.90625 
L 32.078125 72.90625 
Q 44.34375 72.90625 50.609375 67.359375 
Q 56.890625 61.8125 56.890625 51.125 
Q 56.890625 40.328125 50.609375 34.8125 
Q 44.34375 29.296875 32.078125 29.296875 
L 19.671875 29.296875 
L 19.671875 0 
L 9.8125 0 
z
" id="DejaVuSans-80"/>
      <path d="M 41.109375 46.296875 
Q 39.59375 47.171875 37.8125 47.578125 
Q 36.03125 48 33.890625 48 
Q 26.265625 48 22.1875 43.046875 
Q 18.109375 38.09375 18.109375 28.8125 
L 18.109375 0 
L 9.078125 0 
L 9.078125 54.6875 
L 18.109375 54.6875 
L 18.109375 46.1875 
Q 20.953125 51.171875 25.484375 53.578125 
Q 30.03125 56 36.53125 56 
Q 37.453125 56 38.578125 55.875 
Q 39.703125 55.765625 41.0625 55.515625 
z
" id="DejaVuSans-114"/>
      <path d="M 9.421875 54.6875 
L 18.40625 54.6875 
L 18.40625 0 
L 9.421875 0 
z
M 9.421875 75.984375 
L 18.40625 75.984375 
L 18.40625 64.59375 
L 9.421875 64.59375 
z
" id="DejaVuSans-105"/>
      <path d="M 48.78125 52.59375 
L 48.78125 44.1875 
Q 44.96875 46.296875 41.140625 47.34375 
Q 37.3125 48.390625 33.40625 48.390625 
Q 24.65625 48.390625 19.8125 42.84375 
Q 14.984375 37.3125 14.984375 27.296875 
Q 14.984375 17.28125 19.8125 11.734375 
Q 24.65625 6.203125 33.40625 6.203125 
Q 37.3125 6.203125 41.140625 7.25 
Q 44.96875 8.296875 48.78125 10.40625 
L 48.78125 2.09375 
Q 45.015625 0.34375 40.984375 -0.53125 
Q 36.96875 -1.421875 32.421875 -1.421875 
Q 20.0625 -1.421875 12.78125 6.34375 
Q 5.515625 14.109375 5.515625 27.296875 
Q 5.515625 40.671875 12.859375 48.328125 
Q 20.21875 56 33.015625 56 
Q 37.15625 56 41.109375 55.140625 
Q 45.0625 54.296875 48.78125 52.59375 
z
" id="DejaVuSans-99"/>
      <path d="M 56.203125 29.59375 
L 56.203125 25.203125 
L 14.890625 25.203125 
Q 15.484375 15.921875 20.484375 11.0625 
Q 25.484375 6.203125 34.421875 6.203125 
Q 39.59375 6.203125 44.453125 7.46875 
Q 49.3125 8.734375 54.109375 11.28125 
L 54.109375 2.78125 
Q 49.265625 0.734375 44.1875 -0.34375 
Q 39.109375 -1.421875 33.890625 -1.421875 
Q 20.796875 -1.421875 13.15625 6.1875 
Q 5.515625 13.8125 5.515625 26.8125 
Q 5.515625 40.234375 12.765625 48.109375 
Q 20.015625 56 32.328125 56 
Q 43.359375 56 49.78125 48.890625 
Q 56.203125 41.796875 56.203125 29.59375 
z
M 47.21875 32.234375 
Q 47.125 39.59375 43.09375 43.984375 
Q 39.0625 48.390625 32.421875 48.390625 
Q 24.90625 48.390625 20.390625 44.140625 
Q 15.875 39.890625 15.1875 32.171875 
z
" id="DejaVuSans-101"/>
      <path id="DejaVuSans-32"/>
      <path d="M 33.796875 -14.703125 
L 28.90625 -14.703125 
L 28.859375 0 
Q 23.734375 0.09375 18.609375 1.1875 
Q 13.484375 2.296875 8.296875 4.5 
L 8.296875 13.28125 
Q 13.28125 10.15625 18.375 8.5625 
Q 23.484375 6.984375 28.90625 6.9375 
L 28.90625 29.203125 
Q 18.109375 30.953125 13.203125 35.15625 
Q 8.296875 39.359375 8.296875 46.6875 
Q 8.296875 54.640625 13.625 59.21875 
Q 18.953125 63.8125 28.90625 64.5 
L 28.90625 75.984375 
L 33.796875 75.984375 
L 33.796875 64.65625 
Q 38.328125 64.453125 42.578125 63.6875 
Q 46.828125 62.9375 50.875 61.625 
L 50.875 53.078125 
Q 46.828125 55.125 42.546875 56.25 
Q 38.28125 57.375 33.796875 57.5625 
L 33.796875 36.71875 
Q 44.875 35.015625 50.09375 30.609375 
Q 55.328125 26.21875 55.328125 18.609375 
Q 55.328125 10.359375 49.78125 5.59375 
Q 44.234375 0.828125 33.796875 0.09375 
z
M 28.90625 37.59375 
L 28.90625 57.625 
Q 23.25 56.984375 20.265625 54.390625 
Q 17.28125 51.8125 17.28125 47.515625 
Q 17.28125 43.3125 20.03125 40.96875 
Q 22.796875 38.625 28.90625 37.59375 
z
M 33.796875 28.21875 
L 33.796875 7.078125 
Q 39.984375 7.90625 43.140625 10.59375 
Q 46.296875 13.28125 46.296875 17.671875 
Q 46.296875 21.96875 43.28125 24.5 
Q 40.28125 27.046875 33.796875 28.21875 
z
" id="DejaVuSans-36"/>
     </defs>
     <g transform="translate(14.798438 172.342094)rotate(-90)scale(0.1 -0.1)">
      <use xlink:href="#DejaVuSans-80"/>
      <use x="58.552734" xlink:href="#DejaVuSans-114"/>
      <use x="99.666016" xlink:href="#DejaVuSans-105"/>
      <use x="127.449219" xlink:href="#DejaVuSans-99"/>
      <use x="182.429688" xlink:href="#DejaVuSans-101"/>
      <use x="243.953125" xlink:href="#DejaVuSans-32"/>
      <use x="275.740234" xlink:href="#DejaVuSans-36"/>
     </g>
    </g>
   </g>
   <g id="line2d_33">
    <path clip-path="url(#p0a30449e92)" d="M 63.198352 273.424945 
L 63.443005 275.293137 
L 63.932311 276.334125 
L 64.176964 276.230052 
L 64.66627 275.223869 
L 64.910923 275.133191 
L 65.155576 275.779409 
L 65.400229 275.051606 
L 65.644882 274.876313 
L 66.134188 274.885817 
L 66.623494 274.216588 
L 66.868147 274.746488 
L 67.357453 274.071921 
L 67.602106 274.434735 
L 68.336066 274.799544 
L 68.825372 274.403332 
L 69.070025 275.153703 
L 69.314678 275.377001 
L 69.559331 276.086453 
L 69.803984 276.166348 
L 70.29329 275.61228 
L 70.537943 275.985407 
L 71.516555 275.154094 
L 71.761208 275.848888 
L 72.005861 275.922429 
L 72.250514 275.720253 
L 72.495167 275.303055 
L 72.984473 275.843181 
L 73.229126 276.192535 
L 73.473779 276.073259 
L 73.718432 275.768099 
L 73.963085 276.214302 
L 74.452391 275.833795 
L 75.18635 274.294252 
L 75.431003 273.057935 
L 75.675656 274.143206 
L 75.920309 274.072158 
L 76.164962 273.871123 
L 76.409615 274.481788 
L 76.898921 274.100767 
L 77.143574 273.711773 
L 77.63288 274.425167 
L 77.877533 273.989271 
L 78.122186 273.810919 
L 78.366839 275.299428 
L 78.611492 274.969439 
L 78.856145 273.947285 
L 79.100798 272.117751 
L 79.345451 272.009057 
L 79.590104 272.235727 
L 79.834757 271.986493 
L 80.07941 272.12099 
L 80.324063 271.885215 
L 80.568716 272.115101 
L 81.302675 271.664429 
L 81.547328 271.721901 
L 81.791981 271.494124 
L 82.036634 271.646863 
L 82.281287 271.582559 
L 82.770593 271.038943 
L 83.259899 271.437697 
L 83.749205 271.197852 
L 84.238511 271.462074 
L 84.483164 272.134213 
L 84.727817 271.172462 
L 84.97247 270.960271 
L 85.217123 270.514855 
L 85.461776 270.44642 
L 85.706429 270.815416 
L 85.951082 270.509686 
L 86.440388 269.271746 
L 87.174347 268.839913 
L 87.663653 269.301128 
L 88.152959 269.840371 
L 88.397612 269.589378 
L 88.642265 269.582636 
L 88.886918 269.899328 
L 89.131571 269.401281 
L 89.376224 269.394328 
L 89.620877 268.818982 
L 89.86553 268.847009 
L 90.110183 268.391061 
L 90.599489 268.870203 
L 90.844143 268.424619 
L 91.333449 267.341874 
L 91.822755 268.483597 
L 92.067408 268.425678 
L 92.312061 268.015559 
L 92.556714 268.449854 
L 92.801367 267.780541 
L 93.04602 259.832303 
L 93.290673 257.229448 
L 93.535326 257.1116 
L 93.779979 256.178967 
L 94.024632 256.450808 
L 94.269285 257.062838 
L 94.513938 256.717855 
L 94.758591 255.048627 
L 95.003244 254.819038 
L 95.247897 253.166838 
L 95.49255 253.401505 
L 95.981856 254.493483 
L 96.226509 254.191355 
L 96.471162 252.691627 
L 96.960468 252.193957 
L 97.205121 251.159046 
L 97.449774 252.588932 
L 97.694427 252.628437 
L 97.93908 253.831189 
L 98.183733 253.787162 
L 98.917692 252.152479 
L 99.162345 252.065982 
L 99.406998 253.656743 
L 99.651651 253.586998 
L 99.896304 253.282296 
L 100.140957 253.746277 
L 100.38561 253.078439 
L 100.630263 253.7511 
L 100.874916 253.449599 
L 101.119569 251.673993 
L 101.608875 252.967612 
L 101.853528 252.987116 
L 102.098181 253.550115 
L 102.342834 253.313868 
L 102.587487 253.400946 
L 102.83214 253.683811 
L 103.076793 253.742551 
L 103.321446 252.121904 
L 103.566099 251.893713 
L 103.810752 252.23739 
L 104.789364 256.282654 
L 105.27867 256.973966 
L 105.523323 255.815256 
L 105.767976 256.35218 
L 106.012629 255.078781 
L 106.257282 254.822275 
L 106.501935 254.240306 
L 106.746588 254.7338 
L 107.235894 256.502899 
L 107.480547 256.5712 
L 107.7252 254.81303 
L 107.969853 247.045947 
L 108.214506 247.357475 
L 108.459159 248.062836 
L 108.703812 247.519263 
L 108.948465 247.831524 
L 109.193118 247.307488 
L 109.437771 248.053968 
L 109.682424 247.737683 
L 109.927077 247.971333 
L 110.416383 249.353146 
L 110.661036 248.788954 
L 110.905689 247.379535 
L 111.150342 247.014059 
L 111.884301 242.599514 
L 112.128954 243.611583 
L 112.373607 243.222552 
L 112.61826 243.105598 
L 112.862913 243.691573 
L 113.107566 245.02715 
L 113.35222 245.712535 
L 113.596873 245.174328 
L 113.841526 247.170288 
L 114.086179 247.324851 
L 114.575485 245.478235 
L 114.820138 246.489221 
L 115.064791 245.836786 
L 115.309444 246.149911 
L 115.554097 247.028208 
L 116.043403 246.387148 
L 116.532709 248.750701 
L 116.777362 247.649542 
L 117.022015 247.785735 
L 117.266668 244.992552 
L 117.511321 245.251403 
L 117.755974 244.528296 
L 118.24528 247.196358 
L 118.734586 248.168307 
L 118.979239 248.049943 
L 119.223892 247.570658 
L 119.468545 248.273316 
L 119.713198 246.133277 
L 119.957851 246.629525 
L 120.202504 246.763319 
L 120.447157 245.918881 
L 120.69181 244.4038 
L 120.936463 242.097755 
L 121.181116 242.865284 
L 121.425769 242.362455 
L 121.670422 240.176871 
L 121.915075 239.994352 
L 122.159728 239.404421 
L 122.404381 238.247644 
L 123.13834 239.227704 
L 123.627646 242.873134 
L 123.872299 241.964792 
L 124.361605 242.390385 
L 124.606258 242.608562 
L 124.850911 242.31704 
L 125.095564 241.485398 
L 125.340217 242.303354 
L 125.58487 241.077656 
L 125.829523 240.468342 
L 126.074176 241.552317 
L 126.808135 240.208719 
L 127.297441 239.238635 
L 127.542094 240.794542 
L 127.786747 239.784603 
L 128.0314 239.455937 
L 128.276053 237.247306 
L 128.520706 237.852446 
L 128.765359 237.887091 
L 129.254665 235.480103 
L 129.499318 236.618519 
L 129.988624 234.590226 
L 130.233277 235.404036 
L 130.47793 234.478989 
L 130.967236 233.348282 
L 131.211889 234.102437 
L 131.456542 233.680833 
L 131.701195 230.450684 
L 131.945848 231.185872 
L 132.190501 232.344405 
L 132.435154 231.653056 
L 132.679807 231.981552 
L 132.92446 232.557419 
L 133.169113 231.408833 
L 133.413766 231.559826 
L 133.658419 230.14849 
L 133.903072 231.98761 
L 134.147725 231.442901 
L 134.392378 231.22081 
L 134.637031 230.175128 
L 135.126337 231.061782 
L 135.37099 228.268833 
L 135.615643 227.158967 
L 135.860297 228.628354 
L 136.10495 227.76502 
L 136.349603 229.270562 
L 136.838909 234.387651 
L 137.083562 231.587746 
L 137.328215 232.218228 
L 137.572868 228.21691 
L 137.817521 228.725649 
L 138.062174 228.416097 
L 138.55148 226.576357 
L 138.796133 223.095884 
L 139.040786 228.252166 
L 139.530092 227.102582 
L 139.774745 227.567836 
L 140.019398 229.708099 
L 140.264051 227.703373 
L 140.508704 229.056649 
L 140.753357 228.151364 
L 141.242663 225.817711 
L 141.487316 225.214256 
L 141.731969 226.125044 
L 141.976622 227.483871 
L 142.465928 225.774316 
L 142.710581 226.371099 
L 142.955234 226.20714 
L 143.44454 223.70675 
L 143.689193 225.05845 
L 143.933846 225.740589 
L 144.178499 225.280867 
L 144.423152 223.817419 
L 144.667805 224.045359 
L 144.912458 223.567195 
L 145.157111 222.745359 
L 145.646417 220.830263 
L 146.380376 222.266694 
L 146.625029 222.211776 
L 146.869682 222.729198 
L 147.114335 222.456359 
L 147.358988 221.346355 
L 147.603641 221.051355 
L 147.848294 219.680844 
L 148.3376 220.748134 
L 148.582253 219.312251 
L 148.826906 219.190845 
L 149.071559 218.857252 
L 149.316212 219.029219 
L 149.560865 218.152782 
L 149.805518 218.620733 
L 150.050171 218.829332 
L 150.294824 220.454856 
L 150.539477 220.83852 
L 150.78413 220.499883 
L 151.028783 221.397767 
L 151.273436 221.152332 
L 151.518089 222.146972 
L 151.762742 225.678033 
L 152.007395 225.226058 
L 152.496701 226.752185 
L 152.741354 225.63726 
L 152.986007 225.576895 
L 153.23066 227.420586 
L 153.475313 226.943359 
L 153.719966 227.111067 
L 153.964619 227.447243 
L 154.209272 226.454771 
L 154.453925 216.097718 
L 154.943231 218.562791 
L 155.187884 213.915219 
L 155.432537 214.832278 
L 155.921843 213.018964 
L 156.166496 214.113067 
L 156.411149 213.893971 
L 156.655802 214.236839 
L 156.900455 213.414081 
L 157.145108 209.542754 
L 157.389761 209.453021 
L 157.634414 208.799914 
L 157.879067 209.632431 
L 158.12372 208.319465 
L 158.368374 208.457098 
L 158.613027 208.189687 
L 158.85768 209.536342 
L 159.102333 208.31549 
L 159.346986 208.84109 
L 159.591639 206.461316 
L 159.836292 205.242281 
L 160.080945 206.004614 
L 160.325598 205.430238 
L 160.570251 206.616611 
L 160.814904 206.791677 
L 161.059557 204.985233 
L 161.30421 205.229002 
L 161.793516 206.163268 
L 162.038169 207.825197 
L 162.282822 207.993865 
L 162.527475 208.338072 
L 163.016781 210.186463 
L 163.261434 210.53322 
L 163.506087 211.165879 
L 163.75074 211.259237 
L 163.995393 210.275098 
L 164.240046 213.482817 
L 164.484699 218.387313 
L 164.729352 219.666401 
L 164.974005 219.24943 
L 165.463311 221.603295 
L 165.707964 222.654897 
L 165.952617 220.542606 
L 166.19727 220.995206 
L 166.441923 222.452057 
L 166.686576 225.254471 
L 166.931229 225.055611 
L 167.175882 223.194907 
L 167.420535 222.641566 
L 167.665188 225.82949 
L 167.909841 227.379288 
L 168.154494 226.293405 
L 168.399147 227.834367 
L 168.6438 226.402815 
L 168.888453 223.85125 
L 169.133106 223.768147 
L 169.377759 219.121503 
L 169.622412 222.978419 
L 169.867065 224.612892 
L 170.111718 228.069973 
L 170.356371 229.845927 
L 170.601024 228.418392 
L 170.845677 228.081066 
L 171.09033 225.414989 
L 171.579636 224.414264 
L 171.824289 227.341297 
L 172.068942 228.509058 
L 172.313595 228.149769 
L 172.558248 227.019251 
L 172.802901 224.116613 
L 173.047554 223.71082 
L 173.292207 222.982934 
L 173.53686 224.492914 
L 173.781513 223.598816 
L 174.026166 221.032056 
L 174.270819 219.679145 
L 174.515472 216.456141 
L 174.760125 216.102086 
L 175.004778 214.39768 
L 175.249431 214.958909 
L 175.494084 214.553363 
L 175.738737 212.154632 
L 176.228043 211.026769 
L 176.472696 211.454164 
L 177.206655 209.367551 
L 177.451308 210.586042 
L 177.695961 209.562218 
L 177.940614 209.543374 
L 178.185267 210.6711 
L 178.674573 209.599702 
L 178.919226 206.948911 
L 179.163879 206.441744 
L 179.408532 207.488737 
L 179.897838 207.890233 
L 180.142491 207.981414 
L 180.387144 207.083644 
L 180.631798 207.783941 
L 180.876451 207.3949 
L 181.121104 207.559158 
L 181.365757 201.884048 
L 181.61041 203.14733 
L 181.855063 202.254443 
L 182.589022 207.198989 
L 182.833675 208.169257 
L 183.078328 207.608378 
L 183.322981 205.392304 
L 183.567634 206.407312 
L 183.812287 206.852023 
L 184.05694 207.784315 
L 184.301593 207.125373 
L 184.546246 205.395389 
L 184.790899 209.58923 
L 185.035552 209.885149 
L 185.524858 210.917529 
L 185.769511 210.288065 
L 186.014164 210.376009 
L 186.258817 208.528594 
L 186.50347 210.701382 
L 186.748123 210.303998 
L 186.992776 210.631884 
L 187.237429 210.353034 
L 187.482082 209.120474 
L 187.726735 205.854998 
L 187.971388 206.714091 
L 188.216041 205.229816 
L 188.460694 206.472773 
L 188.705347 205.363598 
L 188.95 205.64515 
L 189.439306 202.751938 
L 189.683959 202.547012 
L 189.928612 201.921452 
L 190.173265 201.935838 
L 190.417918 200.642458 
L 190.662571 200.238729 
L 191.39653 201.349366 
L 191.641183 200.783537 
L 191.885836 201.070957 
L 192.130489 200.593441 
L 192.375142 201.643477 
L 192.619795 201.249316 
L 192.864448 200.594785 
L 193.109101 200.436935 
L 193.353754 199.784685 
L 193.84306 200.916211 
L 194.087713 204.220317 
L 194.332366 204.786127 
L 194.577019 205.021984 
L 194.821672 204.095763 
L 195.066325 204.52995 
L 195.310978 207.128961 
L 195.555631 206.830051 
L 195.800284 205.66087 
L 196.044937 207.011997 
L 196.28959 205.926266 
L 196.534243 205.984075 
L 196.778896 205.349373 
L 197.023549 207.755278 
L 197.512855 203.930531 
L 197.757508 203.140023 
L 198.002161 204.537654 
L 198.246814 202.803861 
L 198.491467 203.708313 
L 198.73612 205.176824 
L 198.980773 207.755874 
L 199.225426 205.800719 
L 199.470079 206.460748 
L 199.714732 223.441624 
L 200.204038 221.093997 
L 200.448691 220.355184 
L 200.937997 217.546515 
L 201.18265 217.251685 
L 201.427303 218.409971 
L 201.671956 216.915272 
L 201.916609 218.314337 
L 202.161262 218.023481 
L 202.405915 215.614993 
L 202.895221 217.691129 
L 203.139875 218.026908 
L 203.384528 217.474277 
L 203.629181 217.209894 
L 203.873834 216.764799 
L 204.118487 217.492444 
L 204.36314 217.431951 
L 204.607793 218.220103 
L 204.852446 216.99979 
L 205.097099 217.757726 
L 205.341752 217.779906 
L 205.586405 220.604732 
L 205.831058 220.055295 
L 206.565017 223.657582 
L 206.80967 223.090929 
L 207.298976 224.94382 
L 207.543629 223.079567 
L 207.788282 222.669132 
L 208.032935 223.412327 
L 208.277588 223.14182 
L 208.522241 225.335908 
L 208.766894 224.722709 
L 209.011547 226.148639 
L 209.2562 225.77601 
L 209.500853 226.241331 
L 209.745506 227.315515 
L 209.990159 229.148322 
L 210.234812 226.388433 
L 210.724118 225.108906 
L 210.968771 225.918173 
L 211.213424 225.995716 
L 211.458077 224.846723 
L 211.70273 225.226621 
L 212.192036 224.629786 
L 212.436689 225.044717 
L 212.681342 223.627059 
L 212.925995 226.949776 
L 213.170648 227.932988 
L 213.415301 227.393025 
L 213.659954 226.200903 
L 213.904607 227.215366 
L 214.14926 228.908774 
L 214.393913 227.860527 
L 214.638566 227.857021 
L 214.883219 228.247344 
L 215.372525 223.96739 
L 215.617178 212.056929 
L 216.59579 205.182863 
L 216.840443 207.109411 
L 217.085096 207.051768 
L 217.574402 207.628595 
L 217.819055 204.829267 
L 218.063708 206.103282 
L 218.308361 205.900617 
L 218.553014 206.79463 
L 218.797667 207.110419 
L 219.04232 205.24584 
L 219.286973 204.847978 
L 219.531626 204.751118 
L 219.776279 203.184592 
L 220.020932 202.667041 
L 220.265585 201.719355 
L 220.510238 201.443605 
L 220.754891 200.973377 
L 220.999544 202.049374 
L 221.48885 200.771915 
L 221.733503 199.939393 
L 221.978156 201.349584 
L 222.222809 200.664312 
L 222.712115 202.355875 
L 222.956768 202.715963 
L 223.446074 206.546758 
L 223.690727 208.354602 
L 224.180033 205.834498 
L 224.913992 211.416699 
L 225.403298 209.967353 
L 225.647952 209.383584 
L 225.892605 210.383827 
L 226.137258 207.691723 
L 226.381911 210.640298 
L 226.871217 212.061245 
L 227.11587 210.462402 
L 227.605176 212.241602 
L 227.849829 211.909116 
L 228.094482 210.62815 
L 228.339135 210.314603 
L 228.583788 207.296549 
L 228.828441 207.907047 
L 229.317747 200.969506 
L 229.5624 200.779013 
L 229.807053 201.419281 
L 230.051706 184.970011 
L 230.296359 184.848505 
L 230.541012 185.313413 
L 230.785665 186.5135 
L 231.030318 186.976204 
L 231.519624 186.498082 
L 231.764277 185.009904 
L 232.00893 185.780376 
L 232.253583 185.839851 
L 232.498236 186.90274 
L 232.742889 186.943702 
L 232.987542 187.140196 
L 233.232195 184.758497 
L 233.476848 186.192188 
L 233.721501 185.557428 
L 234.210807 180.974907 
L 234.45546 182.220358 
L 234.700113 182.510153 
L 234.944766 181.687579 
L 235.189419 176.505941 
L 235.923378 175.528697 
L 236.168031 175.128621 
L 236.412684 175.21824 
L 236.657337 176.252584 
L 236.90199 174.19161 
L 237.146643 174.592586 
L 237.391296 174.739457 
L 237.635949 175.332014 
L 237.880602 174.986141 
L 238.125255 175.155377 
L 238.369908 174.730428 
L 238.614561 173.310545 
L 238.859214 174.364982 
L 239.34852 166.090658 
L 240.082479 170.056866 
L 240.327132 167.25654 
L 240.571785 168.547459 
L 240.816438 167.753202 
L 241.061091 168.673744 
L 241.305744 165.933518 
L 241.550397 164.984677 
L 241.79505 164.822208 
L 242.039703 168.481103 
L 242.529009 171.380826 
L 242.773662 168.864171 
L 243.018315 169.114017 
L 243.262968 168.804488 
L 243.507621 168.107423 
L 243.996927 169.628813 
L 244.730886 159.864332 
L 244.975539 160.984358 
L 245.220192 163.641467 
L 245.464845 141.044672 
L 245.709498 143.30497 
L 245.954151 148.746769 
L 246.198804 145.989383 
L 246.443457 146.564952 
L 246.932763 149.290091 
L 247.177416 152.935858 
L 247.422069 152.799474 
L 247.666722 152.262181 
L 248.156029 143.585338 
L 248.400682 145.713539 
L 248.645335 135.0767 
L 248.889988 130.580372 
L 249.134641 128.554105 
L 249.379294 132.234351 
L 249.623947 132.096878 
L 249.8686 133.093847 
L 250.113253 135.716873 
L 250.357906 131.396227 
L 250.602559 131.704393 
L 250.847212 129.910016 
L 251.091865 131.142226 
L 251.336518 133.896252 
L 252.070477 163.64124 
L 252.804436 139.482594 
L 253.049089 139.875326 
L 253.293742 142.76832 
L 253.538395 153.951699 
L 253.783048 154.152385 
L 254.272354 162.341377 
L 254.517007 166.122951 
L 254.76166 161.295127 
L 255.006313 161.548673 
L 255.495619 166.311551 
L 255.740272 162.407108 
L 255.984925 156.035132 
L 256.229578 155.474263 
L 256.963537 163.097908 
L 257.20819 163.329203 
L 257.452843 156.92659 
L 257.697496 158.117269 
L 257.942149 161.815895 
L 258.186802 163.211492 
L 258.431455 157.176369 
L 258.676108 154.191228 
L 258.920761 154.27904 
L 259.165414 147.23244 
L 259.410067 150.982213 
L 259.65472 150.97502 
L 259.899373 144.025885 
L 260.144026 144.395495 
L 260.388679 144.158266 
L 260.633332 148.916081 
L 260.877985 148.352523 
L 261.122638 160.558018 
L 261.367291 161.792064 
L 261.611944 158.815252 
L 261.856597 162.18366 
L 262.345903 164.033044 
L 262.835209 157.488576 
L 263.079862 157.312109 
L 263.324515 154.231945 
L 263.569168 154.655436 
L 263.813821 150.602116 
L 264.058474 151.745529 
L 264.303127 149.064068 
L 264.54778 144.014764 
L 264.792433 144.562071 
L 265.037086 143.99452 
L 265.281739 149.062582 
L 265.526392 145.79783 
L 265.771045 144.992907 
L 266.260351 156.102936 
L 266.749657 139.582104 
L 266.99431 135.897788 
L 267.238963 135.705099 
L 267.483616 131.927179 
L 267.728269 130.376941 
L 267.972922 132.795618 
L 268.462228 129.51702 
L 268.706881 131.967233 
L 268.951534 130.084609 
L 269.196187 125.24043 
L 269.44084 127.361353 
L 269.685493 123.385642 
L 269.930146 129.58242 
L 270.174799 128.044438 
L 270.664106 132.254321 
L 270.908759 137.120723 
L 271.153412 136.137175 
L 271.398065 137.258366 
L 271.642718 133.25304 
L 271.887371 132.595235 
L 272.132024 138.603564 
L 272.376677 140.334849 
L 272.62133 141.054335 
L 272.865983 138.764726 
L 273.355289 140.649129 
L 273.599942 137.723464 
L 274.089248 143.188849 
L 274.333901 150.172245 
L 274.578554 151.605066 
L 274.823207 140.1876 
L 275.06786 142.329051 
L 275.312513 146.365912 
L 275.801819 140.294994 
L 276.046472 153.470578 
L 276.291125 152.563646 
L 276.535778 155.988018 
L 276.780431 150.183262 
L 277.025084 153.295408 
L 277.269737 157.918371 
L 278.003696 163.910014 
L 278.248349 171.312321 
L 278.493002 167.839595 
L 278.737655 171.011121 
L 278.982308 167.625469 
L 279.471614 173.07519 
L 279.716267 174.238327 
L 279.96092 181.688137 
L 280.205573 181.349079 
L 280.694879 174.129674 
L 280.939532 178.587718 
L 281.428838 174.296837 
L 281.673491 167.873601 
L 281.918144 172.817489 
L 282.162797 174.510007 
L 282.40745 171.213199 
L 282.652103 174.48468 
L 282.896756 172.015273 
L 283.141409 168.237844 
L 283.386062 167.149146 
L 283.630715 167.44179 
L 283.875368 169.05687 
L 284.120021 163.370269 
L 284.364674 164.374355 
L 284.609327 164.19167 
L 284.85398 159.21423 
L 285.098633 166.600192 
L 285.343286 165.496009 
L 285.587939 163.699371 
L 285.832592 164.420788 
L 286.321898 163.403301 
L 286.566551 164.034142 
L 286.811204 162.034763 
L 287.055857 161.367616 
L 287.30051 159.670583 
L 287.545163 160.169744 
L 287.789816 161.461012 
L 288.034469 161.935925 
L 288.279122 163.796392 
L 288.768428 156.386599 
L 289.013081 158.739043 
L 289.257734 158.783072 
L 289.502387 154.521096 
L 289.74704 156.286757 
L 289.991693 155.474092 
L 290.236346 155.199327 
L 290.480999 155.661074 
L 290.970305 157.972442 
L 291.459611 149.063056 
L 291.704264 148.555717 
L 291.948917 147.421286 
L 292.19357 151.616764 
L 292.438223 168.915885 
L 292.682876 165.043073 
L 292.92753 166.937849 
L 293.172183 166.194692 
L 293.416836 169.411365 
L 294.150795 173.044723 
L 294.395448 173.929092 
L 294.640101 170.001451 
L 294.884754 171.765816 
L 295.129407 172.646275 
L 295.37406 174.186632 
L 295.618713 172.925281 
L 295.863366 173.010575 
L 296.108019 170.019339 
L 296.597325 176.760774 
L 296.841978 176.420145 
L 297.086631 174.759408 
L 297.331284 175.040382 
L 297.575937 172.727102 
L 297.82059 174.266674 
L 298.554549 163.610537 
L 299.043855 157.578612 
L 299.288508 157.600012 
L 299.533161 158.121509 
L 299.777814 159.662642 
L 300.022467 159.752215 
L 300.26712 162.122377 
L 300.511773 160.357625 
L 300.756426 161.25919 
L 301.001079 163.775939 
L 301.245732 164.74281 
L 301.490385 169.132084 
L 301.735038 168.040546 
L 302.224344 168.113897 
L 302.468997 167.114865 
L 302.71365 168.088863 
L 302.958303 168.504878 
L 303.202956 172.236479 
L 303.447609 173.442386 
L 303.692262 171.869216 
L 304.181568 179.033925 
L 304.670874 171.941071 
L 304.915527 172.03211 
L 305.16018 164.968246 
L 305.404833 164.194017 
L 305.649486 168.410364 
L 305.894139 167.242949 
L 306.138792 164.559283 
L 306.383445 167.794373 
L 306.628098 166.084175 
L 306.872751 165.785871 
L 307.117404 163.581386 
L 307.362057 163.352731 
L 307.60671 162.906544 
L 307.851363 180.929278 
L 308.096016 175.510307 
L 308.340669 178.193387 
L 308.585322 178.584964 
L 308.829975 176.635842 
L 309.074628 171.121449 
L 309.563934 171.881567 
L 309.808587 172.051503 
L 310.05324 168.375194 
L 310.297893 169.428306 
L 310.542546 169.533117 
L 310.787199 169.496337 
L 311.031852 164.763916 
L 311.276505 167.642164 
L 311.521158 168.528075 
L 311.765811 168.815694 
L 312.010464 166.335156 
L 312.255117 165.63086 
L 312.49977 167.007187 
L 312.744423 167.346094 
L 312.989076 165.833932 
L 313.478382 166.289641 
L 313.723035 167.215417 
L 313.967688 166.280896 
L 314.212341 167.273311 
L 314.456994 164.341731 
L 314.9463 164.662891 
L 315.190953 164.166967 
L 315.435607 164.46937 
L 315.68026 164.463189 
L 315.924913 164.339857 
L 316.169566 161.095084 
L 316.414219 162.44279 
L 316.658872 161.604864 
L 316.903525 165.557188 
L 317.148178 162.363146 
L 317.392831 166.18555 
L 317.637484 164.209795 
L 317.882137 164.315864 
L 318.12679 161.848046 
L 318.371443 163.438461 
L 318.616096 163.143527 
L 318.860749 167.965369 
L 319.105402 166.299361 
L 319.350055 165.885712 
L 319.594708 167.932584 
L 319.839361 164.41969 
L 320.084014 164.431729 
L 320.328667 165.093444 
L 320.57332 162.623175 
L 320.817973 157.918579 
L 321.062626 157.95551 
L 321.307279 153.084159 
L 321.551932 155.333553 
L 321.796585 155.091591 
L 322.041238 157.138785 
L 322.285891 160.584159 
L 322.530544 161.357451 
L 322.775197 161.058608 
L 323.01985 159.031422 
L 323.264503 161.916021 
L 323.509156 135.099557 
L 323.753809 135.508748 
L 323.998462 133.205519 
L 324.243115 127.496724 
L 324.487768 127.075533 
L 324.732421 128.403703 
L 324.977074 127.855876 
L 325.221727 128.22258 
L 325.46638 128.043236 
L 325.955686 132.386854 
L 326.200339 133.379761 
L 326.444992 133.423384 
L 326.689645 133.603106 
L 326.934298 130.353175 
L 327.178951 130.969356 
L 327.423604 133.89009 
L 327.668257 141.930148 
L 327.91291 142.399722 
L 328.157563 144.230244 
L 328.402216 143.35411 
L 328.646869 142.048881 
L 328.891522 142.150502 
L 329.136175 142.082518 
L 329.380828 138.418144 
L 329.625481 138.570816 
L 330.114787 139.205699 
L 330.35944 140.283532 
L 330.604093 139.112558 
L 331.093399 140.114268 
L 331.338052 135.327 
L 331.582705 137.414474 
L 331.827358 130.551051 
L 332.072011 129.790233 
L 332.316664 132.221811 
L 332.561317 132.497485 
L 332.80597 132.511454 
L 333.050623 131.329501 
L 333.295276 131.950433 
L 333.539929 129.528169 
L 333.784582 130.552878 
L 334.029235 129.487045 
L 334.273888 129.559496 
L 334.518541 127.761599 
L 334.763194 128.966428 
L 335.007847 129.07263 
L 335.2525 125.496996 
L 335.497153 128.582205 
L 335.741806 129.456579 
L 335.986459 131.075785 
L 336.231112 126.686596 
L 336.720418 121.375142 
L 336.965071 122.143191 
L 337.209724 122.435438 
L 337.454377 123.768881 
L 337.69903 123.267676 
L 337.943684 124.814828 
L 338.188337 118.873508 
L 338.43299 120.154593 
L 338.677643 120.334495 
L 338.922296 111.634465 
L 339.411602 114.511407 
L 339.656255 111.079633 
L 340.145561 112.270578 
L 340.390214 108.427759 
L 340.634867 110.362012 
L 341.124173 110.38024 
L 341.368826 112.09785 
L 341.613479 110.861986 
L 341.858132 110.23176 
L 342.102785 106.223709 
L 342.347438 105.677263 
L 342.592091 105.93875 
L 342.836744 105.144276 
L 343.081397 106.888329 
L 343.32605 109.926869 
L 343.570703 108.39363 
L 343.815356 108.625738 
L 344.060009 108.354673 
L 344.304662 107.804764 
L 344.549315 106.365242 
L 344.793968 107.618425 
L 345.283274 106.724555 
L 345.527927 108.05194 
L 345.77258 107.433677 
L 346.017233 111.445174 
L 346.261886 111.627347 
L 346.506539 108.154233 
L 346.995845 110.511135 
L 347.240498 110.41471 
L 347.485151 109.709979 
L 347.729804 106.648857 
L 347.974457 107.102569 
L 348.21911 104.380846 
L 348.463763 105.189801 
L 348.708416 104.787652 
L 348.953069 103.730044 
L 349.197722 107.514429 
L 349.442375 107.660429 
L 349.687028 108.321472 
L 349.931681 108.102254 
L 350.910293 100.674449 
L 351.154946 100.882461 
L 351.399599 102.101856 
L 351.888905 106.465434 
L 352.133558 106.598146 
L 352.378211 107.06897 
L 352.867517 105.912249 
L 353.11217 105.709954 
L 353.356823 106.894765 
L 353.601476 101.832646 
L 354.090782 111.31479 
L 354.824741 105.852471 
L 355.069394 95.372157 
L 355.314047 98.698457 
L 355.5587 95.047334 
L 355.803353 95.933349 
L 356.048006 91.678859 
L 356.292659 90.689434 
L 356.537312 91.674222 
L 356.781965 89.774401 
L 357.271271 90.738215 
L 357.515924 89.6567 
L 357.760577 86.006409 
L 358.00523 88.062451 
L 358.249883 85.290566 
L 358.494536 85.742972 
L 358.739189 86.488192 
L 358.983842 94.674297 
L 359.473148 89.302971 
L 359.717801 89.432219 
L 359.962454 88.606228 
L 360.207107 88.502989 
L 360.451761 81.636717 
L 360.696414 83.235091 
L 360.941067 81.944371 
L 361.18572 82.496893 
L 361.430373 82.37711 
L 361.675026 80.020946 
L 361.919679 80.11421 
L 362.408985 79.26698 
L 362.653638 78.796346 
L 363.142944 96.840754 
L 363.387597 94.05329 
L 363.63225 94.758721 
L 363.876903 96.337713 
L 364.366209 93.529029 
L 364.610862 95.476797 
L 364.855515 92.003077 
L 365.100168 92.306511 
L 365.344821 88.817648 
L 365.589474 88.870573 
L 365.834127 97.234801 
L 366.07878 94.440693 
L 366.323433 98.597187 
L 366.568086 99.013835 
L 366.812739 102.913877 
L 367.057392 101.631978 
L 367.302045 103.450896 
L 367.791351 95.353474 
L 368.036004 93.395768 
L 368.280657 87.546444 
L 368.52531 88.207486 
L 368.769963 84.939393 
L 369.014616 84.020517 
L 369.259269 55.893647 
L 369.503922 57.110619 
L 369.748575 56.962612 
L 369.993228 50.47407 
L 370.237881 50.946106 
L 370.482534 52.809999 
L 370.727187 50.100978 
L 370.97184 58.587563 
L 371.216493 56.338292 
L 371.461146 58.598239 
L 371.705799 58.180777 
L 372.195105 61.765876 
L 372.439758 60.841056 
L 372.684411 59.476645 
L 373.173717 67.129801 
L 373.41837 73.908602 
L 373.663023 71.288622 
L 373.907676 71.784792 
L 374.152329 74.824752 
L 374.396982 74.180121 
L 374.641635 77.915138 
L 374.886288 77.276224 
L 375.130941 77.577159 
L 375.375594 74.41098 
L 375.8649 75.676278 
L 376.109553 78.474134 
L 376.354206 77.400532 
L 376.598859 75.66634 
L 376.843512 68.200318 
L 377.088165 67.916911 
L 377.332818 67.883369 
L 377.577471 68.000029 
L 377.822124 62.437462 
L 378.066777 62.401269 
L 378.31143 65.291973 
L 378.800736 55.494924 
L 379.045389 57.11077 
L 379.534695 58.027413 
L 380.024001 54.413106 
L 380.268654 54.642338 
L 380.513307 50.701012 
L 380.75796 51.707586 
L 381.002613 62.851934 
L 381.247266 62.048487 
L 381.491919 57.902405 
L 381.736572 60.048891 
L 381.981225 59.142622 
L 382.225878 64.059441 
L 382.470531 61.948958 
L 382.715184 54.96082 
L 382.959838 44.171469 
L 383.204491 39.403395 
L 383.449144 39.801683 
L 383.693797 42.711902 
L 383.93845 42.718792 
L 384.183103 41.674567 
L 384.672409 34.526857 
L 384.917062 37.403799 
L 385.161715 42.256183 
L 385.406368 43.208924 
L 385.651021 43.249754 
L 385.895674 45.85228 
L 386.140327 42.128639 
L 386.38498 43.748669 
L 386.629633 42.307216 
L 386.874286 37.070552 
L 387.118939 38.244857 
L 387.363592 40.861997 
L 387.852898 37.496533 
L 387.852898 37.496533 
" style="fill:none;stroke:#1f77b4;stroke-linecap:square;stroke-width:1.5;"/>
   </g>
   <g id="line2d_34">
    <path clip-path="url(#p0a30449e92)" d="M 63.198352 275.612051 
L 63.443005 275.773321 
L 63.687658 276.182699 
L 64.176964 276.294347 
L 64.421617 275.785726 
L 64.66627 275.58724 
L 65.155576 275.58724 
L 65.400229 275.227484 
L 65.644882 275.227484 
L 66.134188 274.632025 
L 66.378841 274.445944 
L 66.623494 274.557593 
L 66.868147 274.45835 
L 67.1128 274.222647 
L 67.357453 274.259864 
L 67.846759 274.656836 
L 68.091412 274.793295 
L 68.580719 274.607214 
L 68.825372 275.128241 
L 69.070025 275.2647 
L 69.314678 275.934591 
L 69.559331 276.108266 
L 69.803984 275.810537 
L 70.048637 275.810537 
L 70.29329 275.934591 
L 70.537943 275.711294 
L 70.782596 275.711294 
L 71.027249 275.562429 
L 71.271902 275.115835 
L 71.516555 275.736105 
L 71.761208 275.90978 
L 72.250514 275.438375 
L 72.73982 275.847753 
L 72.984473 276.306752 
L 73.229126 276.07105 
L 73.473779 275.996618 
L 73.718432 276.195104 
L 73.963085 275.90978 
L 74.207738 275.835348 
L 74.697044 274.036567 
L 74.941697 274.048972 
L 75.18635 272.820839 
L 75.431003 274.235053 
L 75.920309 274.148215 
L 76.164962 274.445944 
L 76.409615 274.371512 
L 76.654268 274.13581 
L 76.898921 273.701621 
L 77.143574 273.912513 
L 77.388227 274.334296 
L 77.63288 273.81327 
L 77.877533 273.751243 
L 78.122186 275.190268 
L 78.366839 274.94216 
L 78.856145 271.803597 
L 79.345451 272.212975 
L 79.590104 271.977273 
L 79.834757 272.312218 
L 80.07941 272.076516 
L 80.324063 272.38665 
L 80.568716 272.039299 
L 80.813369 271.989678 
L 81.058022 271.74157 
L 81.302675 271.704354 
L 81.547328 271.406625 
L 81.791981 271.505868 
L 82.281287 271.245355 
L 82.52594 271.133706 
L 82.770593 271.146112 
L 83.015246 271.307382 
L 83.259899 271.121301 
L 83.749205 271.41903 
L 83.993858 271.369409 
L 84.238511 272.374245 
L 84.483164 270.488626 
L 84.727817 271.071679 
L 84.97247 270.575464 
L 85.217123 270.61268 
L 85.461776 270.823572 
L 85.706429 270.587869 
L 85.951082 269.769114 
L 86.195735 269.446574 
L 86.685041 269.062007 
L 86.929694 268.900737 
L 87.174347 269.186061 
L 87.419 269.272898 
L 87.908306 269.855952 
L 88.397612 269.80633 
L 88.642265 270.017222 
L 88.886918 269.434168 
L 89.131571 269.545817 
L 89.376224 268.727061 
L 89.620877 268.83871 
L 89.86553 268.268062 
L 90.354836 268.851115 
L 90.599489 268.478954 
L 91.088796 267.511334 
L 91.333449 267.821468 
L 91.578102 268.565791 
L 91.822755 268.528575 
L 92.067408 268.268062 
L 92.312061 268.51617 
L 92.556714 267.54855 
L 92.801367 259.819994 
L 93.04602 255.800649 
L 93.290673 257.11562 
L 93.535326 255.875081 
L 93.779979 256.123189 
L 94.024632 256.557377 
L 94.269285 256.644215 
L 94.513938 254.88265 
L 94.758591 254.944677 
L 95.003244 253.170707 
L 95.247897 253.604895 
L 95.49255 253.778571 
L 95.737203 254.324408 
L 95.981856 254.312002 
L 96.226509 252.835762 
L 96.471162 252.637275 
L 96.715815 252.265114 
L 96.960468 251.03698 
L 97.205121 252.686897 
L 97.449774 252.674491 
L 97.694427 253.977057 
L 97.93908 254.063895 
L 98.183733 253.220328 
L 98.428386 253.183112 
L 98.673039 252.513221 
L 98.917692 252.289925 
L 99.162345 253.728949 
L 99.406998 253.642112 
L 99.651651 253.43122 
L 99.896304 253.666922 
L 100.140957 253.10868 
L 100.38561 253.865409 
L 100.630263 253.567679 
L 100.874916 251.756493 
L 101.364222 253.083869 
L 101.608875 252.959815 
L 101.853528 253.704139 
L 102.098181 253.406409 
L 102.587487 253.716544 
L 102.83214 253.803382 
L 103.076793 252.066628 
L 103.566099 252.30233 
L 104.300058 255.763433 
L 104.789364 256.669026 
L 105.034017 256.95435 
L 105.27867 255.837865 
L 105.523323 256.420918 
L 105.767976 255.18038 
L 106.012629 255.155569 
L 106.257282 254.572516 
L 106.501935 254.684164 
L 106.991241 256.817891 
L 107.235894 256.892323 
L 107.480547 254.944677 
L 107.7252 247.389797 
L 107.969853 247.439418 
L 108.214506 247.960445 
L 108.459159 247.65031 
L 108.703812 247.737148 
L 108.948465 247.551067 
L 109.193118 248.109309 
L 109.437771 247.836391 
L 109.682424 248.022472 
L 109.927077 248.506282 
L 110.17173 249.300226 
L 110.416383 248.878443 
L 110.661036 247.48904 
L 110.905689 247.265743 
L 111.150342 245.194044 
L 111.394995 244.387693 
L 111.639648 242.712966 
L 111.884301 243.841856 
L 112.128954 243.494506 
L 112.373607 243.395263 
L 112.61826 243.829451 
L 112.862913 245.342908 
L 113.107566 245.764691 
L 113.35222 245.305692 
L 113.596873 247.886012 
L 113.841526 247.687526 
L 114.086179 246.384961 
L 114.330832 245.752286 
L 114.575485 246.509015 
L 114.820138 245.913556 
L 115.064791 246.248501 
L 115.309444 247.253338 
L 115.554097 246.819149 
L 115.79875 246.695095 
L 116.288056 249.052119 
L 116.532709 247.675121 
L 116.777362 247.923229 
L 117.022015 245.218854 
L 117.266668 245.293287 
L 117.511321 244.673017 
L 118.000627 247.402202 
L 118.24528 247.637905 
L 118.489933 248.121715 
L 118.734586 248.258174 
L 118.979239 247.749553 
L 119.223892 248.431849 
L 119.468545 246.099637 
L 119.713198 246.595852 
L 119.957851 246.695095 
L 120.202504 245.950772 
L 120.447157 244.536558 
L 120.69181 242.005859 
L 120.936463 242.638534 
L 121.181116 242.576507 
L 121.425769 240.2567 
L 121.670422 240.132646 
L 121.915075 239.686052 
L 122.159728 238.371081 
L 122.649034 238.954134 
L 122.893687 239.425539 
L 123.382993 243.085128 
L 123.627646 242.117508 
L 123.872299 242.19194 
L 124.361605 242.650939 
L 124.606258 242.51448 
L 124.850911 241.695725 
L 125.095564 242.216751 
L 125.340217 240.864564 
L 125.58487 240.492402 
L 125.829523 241.683319 
L 126.074176 241.472428 
L 126.318829 241.050645 
L 126.808135 239.909349 
L 127.052788 239.45035 
L 127.297441 240.938996 
L 127.542094 239.971376 
L 127.786747 239.810106 
L 128.0314 237.415866 
L 128.276053 237.936893 
L 128.520706 238.036136 
L 128.765359 236.510273 
L 129.010012 235.741139 
L 129.254665 236.932056 
L 129.743971 234.835546 
L 129.988624 235.530248 
L 130.47793 234.016791 
L 130.722583 233.545386 
L 130.967236 234.178061 
L 131.211889 233.719061 
L 131.456542 230.369607 
L 131.945848 232.428901 
L 132.190501 231.684578 
L 132.679807 232.763846 
L 132.92446 231.448876 
L 133.169113 231.709389 
L 133.413766 230.233148 
L 133.658419 232.317253 
L 133.903072 231.535713 
L 134.147725 231.411659 
L 134.392378 230.282769 
L 134.637031 230.481255 
L 134.881684 231.051903 
L 135.126337 228.322718 
L 135.37099 227.231044 
L 135.615643 228.831339 
L 135.860297 227.851314 
L 136.10495 229.464014 
L 136.594256 234.736303 
L 136.838909 231.969902 
L 137.083562 232.528144 
L 137.328215 228.359934 
L 137.572868 228.831339 
L 137.817521 228.620447 
L 138.062174 227.342693 
L 138.306827 226.747234 
L 138.55148 222.938781 
L 138.796133 228.69488 
L 139.040786 227.317882 
L 139.285439 227.144206 
L 139.530092 227.714854 
L 139.774745 230.195932 
L 140.019398 227.838908 
L 140.264051 229.464014 
L 140.508704 228.69488 
L 141.242663 225.320615 
L 141.487316 226.362667 
L 141.731969 227.925746 
L 141.976622 226.499126 
L 142.221275 225.965695 
L 142.465928 226.697613 
L 142.710581 226.424694 
L 143.199887 223.856779 
L 143.689193 226.077343 
L 143.933846 225.680371 
L 144.178499 224.080076 
L 144.423152 224.20413 
L 144.667805 223.782347 
L 145.401764 221.015946 
L 145.89107 221.524567 
L 146.135723 222.703078 
L 146.380376 222.392944 
L 146.625029 223.038024 
L 146.869682 222.814727 
L 147.114335 221.499756 
L 147.358988 221.338486 
L 147.603641 219.688569 
L 148.092947 220.929108 
L 148.3376 219.415651 
L 148.582253 219.167543 
L 148.826906 219.080705 
L 149.071559 219.266786 
L 149.316212 218.398409 
L 149.805518 219.043489 
L 150.050171 220.718216 
L 150.294824 220.805054 
L 150.539477 220.594163 
L 150.78413 221.549377 
L 151.028783 221.499756 
L 151.273436 222.120025 
L 151.518089 225.680371 
L 151.762742 225.419858 
L 152.252048 226.982936 
L 152.496701 226.151776 
L 152.741354 225.953289 
L 152.986007 227.293071 
L 153.23066 227.069774 
L 153.719966 227.5908 
L 153.964619 226.697613 
L 154.209272 216.959384 
L 154.453925 217.430789 
L 154.698578 218.286761 
L 154.943231 213.758795 
L 155.187884 214.887685 
L 155.67719 213.299795 
L 155.921843 214.180578 
L 156.166496 213.907659 
L 156.411149 214.180578 
L 156.655802 213.560308 
L 156.900455 209.640206 
L 157.145108 209.565774 
L 157.389761 208.933099 
L 157.634414 209.826287 
L 157.879067 208.486506 
L 158.12372 208.660181 
L 158.368374 208.424479 
L 158.613027 209.950341 
L 158.85768 208.759424 
L 159.102333 209.243234 
L 159.346986 206.625698 
L 159.591639 205.558834 
L 159.836292 206.315563 
L 160.080945 205.707699 
L 160.325598 206.873805 
L 160.570251 206.873805 
L 160.814904 205.211484 
L 161.059557 205.471997 
L 161.548863 206.389995 
L 161.793516 207.878642 
L 162.038169 208.31283 
L 162.282822 208.4741 
L 162.772128 210.620232 
L 163.506087 211.401771 
L 163.75074 210.657448 
L 163.995393 213.895254 
L 164.240046 218.696138 
L 164.484699 220.122758 
L 164.729352 219.87465 
L 165.218658 222.244079 
L 165.463311 223.459807 
L 165.707964 221.214432 
L 165.952617 221.536972 
L 166.19727 222.988402 
L 166.441923 226.064938 
L 166.686576 225.940884 
L 166.931229 224.018049 
L 167.175882 223.286131 
L 167.420535 226.523937 
L 167.665188 227.950557 
L 167.909841 227.08218 
L 168.154494 228.024989 
L 168.399147 227.119396 
L 168.6438 224.576292 
L 168.888453 224.092481 
L 169.133106 219.763002 
L 169.377759 223.199294 
L 169.622412 224.874021 
L 169.867065 228.769312 
L 170.111718 230.158715 
L 170.356371 229.153879 
L 170.601024 228.769312 
L 170.845677 226.213803 
L 171.334983 224.811994 
L 171.579636 228.037394 
L 171.824289 229.042231 
L 172.068942 228.843744 
L 172.313595 227.615611 
L 172.558248 224.625913 
L 172.802901 224.328184 
L 173.047554 223.484618 
L 173.292207 224.84921 
L 173.53686 223.844374 
L 173.781513 221.251648 
L 174.026166 219.973893 
L 174.270819 216.624439 
L 174.515472 216.413547 
L 174.760125 214.540334 
L 175.004778 215.173009 
L 175.249431 214.73882 
L 175.494084 212.270148 
L 175.738737 211.798744 
L 175.98339 211.05442 
L 176.228043 211.848365 
L 176.717349 209.937936 
L 176.962002 209.615396 
L 177.206655 210.86834 
L 177.451308 209.950341 
L 177.695961 209.640206 
L 177.940614 210.979988 
L 178.185267 210.049584 
L 178.42992 209.590585 
L 178.674573 207.221156 
L 178.919226 206.327968 
L 179.163879 207.618128 
L 179.653185 207.953074 
L 179.897838 208.511316 
L 180.142491 207.121913 
L 180.387144 207.940669 
L 180.631798 207.50648 
L 180.876451 207.766993 
L 181.121104 201.998488 
L 181.365757 203.127379 
L 181.61041 202.134948 
L 182.099716 206.973048 
L 182.344369 207.332805 
L 182.589022 208.126749 
L 182.833675 207.878642 
L 183.078328 205.645672 
L 183.567634 207.084697 
L 183.812287 207.977885 
L 184.05694 207.134318 
L 184.301593 205.757321 
L 184.546246 209.454126 
L 185.280205 211.079231 
L 185.524858 210.583016 
L 185.769511 210.657448 
L 186.014164 208.871072 
L 186.258817 210.930367 
L 186.50347 210.458962 
L 186.748123 210.930367 
L 186.992776 210.905556 
L 187.237429 209.590585 
L 187.482082 206.154293 
L 187.726735 206.836589 
L 187.971388 205.819347 
L 188.216041 206.737346 
L 188.460694 205.831753 
L 188.705347 205.943401 
L 189.194653 203.263838 
L 189.439306 202.879271 
L 189.683959 202.159758 
L 189.928612 202.184569 
L 190.173265 200.91922 
L 190.417918 200.621491 
L 190.662571 200.894409 
L 190.907224 201.72557 
L 191.151877 201.626327 
L 191.39653 201.204544 
L 191.641183 201.378219 
L 191.885836 201.24176 
L 192.130489 202.085326 
L 192.619795 200.894409 
L 192.864448 200.956436 
L 193.109101 200.001221 
L 193.353754 200.509842 
L 193.598407 201.390625 
L 193.84306 204.727673 
L 194.087713 204.876538 
L 194.332366 205.298321 
L 194.577019 204.504377 
L 194.821672 204.76489 
L 195.066325 207.382426 
L 195.310978 207.18394 
L 195.555631 205.993023 
L 195.800284 207.245967 
L 196.044937 206.315563 
L 196.28959 206.179104 
L 196.534243 205.89378 
L 196.778896 208.077128 
L 197.268202 204.405133 
L 197.512855 203.710432 
L 197.757508 204.988187 
L 198.002161 203.114973 
L 198.246814 204.032972 
L 198.73612 208.126749 
L 198.980773 206.253536 
L 199.225426 206.352779 
L 199.470079 221.747863 
L 199.714732 222.566619 
L 199.959385 222.182052 
L 200.448691 219.452867 
L 200.693344 217.964221 
L 200.937997 217.61687 
L 201.18265 218.609301 
L 201.427303 217.405978 
L 201.671956 218.845003 
L 201.916609 218.683733 
L 202.161262 216.239872 
L 202.895221 218.435625 
L 203.139875 217.914599 
L 203.384528 217.765734 
L 203.629181 217.219897 
L 203.873834 218.051058 
L 204.118487 217.815356 
L 204.36314 218.609301 
L 204.607793 217.430789 
L 204.852446 218.299166 
L 205.097099 218.323977 
L 205.341752 221.499756 
L 205.586405 220.606568 
L 205.831058 221.995971 
L 206.075711 222.678267 
L 206.320364 223.993238 
L 206.565017 223.608671 
L 207.054323 225.270993 
L 207.298976 223.410185 
L 207.543629 222.91397 
L 207.788282 223.707914 
L 208.032935 223.658293 
L 208.277588 225.680371 
L 208.522241 224.923642 
L 208.766894 226.598369 
L 209.2562 226.573559 
L 209.745506 229.761743 
L 209.990159 226.722423 
L 210.234812 226.585964 
L 210.479465 225.568722 
L 210.724118 226.176586 
L 210.968771 226.226208 
L 211.213424 225.221372 
L 211.458077 225.581128 
L 211.947383 225.022885 
L 212.192036 225.308209 
L 212.436689 224.005644 
L 212.681342 227.156612 
L 212.925995 228.161448 
L 213.170648 227.863719 
L 213.415301 226.573559 
L 213.659954 227.491557 
L 213.904607 229.33996 
L 214.14926 228.459177 
L 214.393913 228.384745 
L 214.638566 228.471583 
L 215.127872 224.030455 
L 215.372525 213.312201 
L 215.617178 209.913125 
L 216.351137 205.360348 
L 216.59579 207.432048 
L 216.840443 207.196345 
L 217.085096 207.556102 
L 217.329749 207.680155 
L 217.574402 204.876538 
L 217.819055 206.327968 
L 218.063708 206.290752 
L 218.308361 207.097102 
L 218.553014 207.332805 
L 218.797667 205.397564 
L 219.04232 205.236294 
L 219.286973 204.901349 
L 219.531626 203.239027 
L 220.020932 201.651138 
L 220.265585 201.737975 
L 220.510238 201.105301 
L 220.754891 202.221785 
L 221.244197 201.08049 
L 221.48885 200.249329 
L 221.733503 201.688354 
L 221.978156 200.733139 
L 222.467462 202.593947 
L 222.712115 202.966109 
L 223.201421 206.873805 
L 223.446074 208.747019 
L 223.690727 207.841425 
L 223.93538 206.389995 
L 224.180033 208.15156 
L 224.424686 211.066826 
L 224.669339 211.67469 
L 224.913992 210.855934 
L 225.403298 209.950341 
L 225.647952 210.533394 
L 225.892605 208.176371 
L 226.137258 211.104042 
L 226.626564 212.344581 
L 226.871217 210.955177 
L 227.360523 212.629905 
L 227.605176 212.468635 
L 227.849829 211.004799 
L 228.094482 210.806313 
L 228.339135 207.630534 
L 228.583788 207.953074 
L 229.317747 201.006058 
L 229.5624 201.589111 
L 229.807053 186.243648 
L 230.051706 184.556515 
L 230.296359 185.288433 
L 230.541012 186.528972 
L 230.785665 187.012782 
L 231.030318 186.764674 
L 231.274971 186.888728 
L 231.519624 185.524135 
L 231.764277 186.057567 
L 232.00893 186.094783 
L 232.253583 187.223673 
L 232.498236 187.12443 
L 232.742889 187.508997 
L 232.987542 185.623379 
L 233.232195 186.504161 
L 233.476848 185.673 
L 233.721501 184.010678 
L 233.966154 181.293899 
L 234.45546 183.043058 
L 234.700113 181.839736 
L 234.944766 177.162905 
L 235.189419 176.34415 
L 235.434072 176.592257 
L 235.678725 175.69907 
L 235.923378 175.438556 
L 236.168031 175.637043 
L 236.412684 176.6915 
L 236.657337 174.371693 
L 237.146643 175.252476 
L 237.391296 175.438556 
L 237.635949 175.277286 
L 237.880602 175.674259 
L 238.125255 175.004368 
L 238.369908 173.62737 
L 238.614561 174.694233 
L 239.103867 166.916056 
L 239.837826 169.94297 
L 240.082479 167.660379 
L 240.327132 168.900918 
L 240.571785 168.317865 
L 240.816438 169.397133 
L 241.061091 166.246165 
L 241.305744 165.12968 
L 241.550397 165.58868 
L 242.039703 170.364753 
L 242.284356 171.431617 
L 242.529009 169.421944 
L 242.773662 169.682457 
L 243.262968 168.528756 
L 243.752274 169.843727 
L 244.486233 160.440444 
L 244.730886 161.333632 
L 244.975539 164.112439 
L 245.220192 142.179716 
L 245.464845 143.469876 
L 245.709498 148.704949 
L 245.954151 146.273493 
L 246.68811 150.206001 
L 246.932763 153.815968 
L 247.177416 153.232915 
L 247.422069 153.009618 
L 247.911375 144.040524 
L 248.156029 146.211466 
L 248.400682 135.555239 
L 248.889988 128.980385 
L 249.134641 132.615163 
L 249.623947 133.582783 
L 249.8686 136.349184 
L 250.113253 132.35465 
L 250.357906 132.776433 
L 250.602559 130.332572 
L 250.847212 131.957677 
L 251.091865 134.426349 
L 251.825824 165.663112 
L 252.070477 159.907013 
L 252.559783 139.884719 
L 252.804436 139.921935 
L 253.049089 143.147336 
L 253.293742 154.609913 
L 253.538395 155.044101 
L 253.783048 160.477661 
L 254.027701 163.293683 
L 254.272354 168.057352 
L 254.517007 162.809873 
L 254.76166 162.437712 
L 255.250966 167.139353 
L 255.740272 156.731234 
L 255.984925 156.569964 
L 256.229578 158.54242 
L 256.718884 163.690656 
L 256.963537 164.186871 
L 257.20819 157.128206 
L 257.452843 159.013825 
L 257.697496 162.450117 
L 257.942149 163.83952 
L 258.431455 154.37421 
L 258.676108 154.21294 
L 258.920761 147.836572 
L 259.165414 151.458945 
L 259.410067 151.744269 
L 259.65472 143.27139 
L 259.899373 145.256252 
L 260.144026 145.107387 
L 260.388679 149.722191 
L 260.633332 149.101921 
L 260.877985 160.440444 
L 261.122638 163.045576 
L 261.367291 159.696121 
L 261.611944 163.045576 
L 262.10125 165.117275 
L 262.590556 158.021394 
L 262.835209 157.984178 
L 263.079862 154.597507 
L 263.324515 155.441074 
L 263.569168 151.396918 
L 263.813821 152.314916 
L 264.058474 149.709785 
L 264.303127 144.363064 
L 264.54778 145.04536 
L 264.792433 144.350658 
L 265.037086 149.560921 
L 265.281739 146.037791 
L 265.526392 145.839305 
L 266.015698 157.264665 
L 266.505004 140.579421 
L 266.749657 136.20032 
L 266.99431 136.70894 
L 267.238963 132.218191 
L 267.483616 130.74195 
L 267.728269 132.875676 
L 267.972922 131.821218 
L 268.217575 130.233329 
L 268.462228 132.850865 
L 268.706881 130.320166 
L 268.951534 125.903849 
L 269.196187 128.533791 
L 269.44084 123.422772 
L 269.685493 130.332572 
L 269.930146 128.322899 
L 270.174799 131.771597 
L 270.419452 133.371891 
L 270.664106 138.334046 
L 270.908759 136.150698 
L 271.153412 138.718613 
L 271.398065 133.706837 
L 271.642718 133.868107 
L 271.887371 139.438125 
L 272.132024 141.162474 
L 272.376677 141.646284 
L 272.62133 139.26445 
L 272.865983 140.294097 
L 273.110636 140.567016 
L 273.355289 138.073533 
L 273.844595 143.953686 
L 274.089248 149.436867 
L 274.333901 152.290106 
L 274.578554 139.859909 
L 275.06786 147.662896 
L 275.312513 143.221768 
L 275.557166 141.224501 
L 275.801819 153.654698 
L 276.046472 153.034429 
L 276.291125 156.780855 
L 276.535778 152.004782 
L 276.780431 152.190862 
L 277.025084 158.877366 
L 277.759043 164.4846 
L 278.003696 172.771398 
L 278.248349 168.727242 
L 278.493002 171.915427 
L 278.737655 169.124215 
L 278.982308 172.349615 
L 279.471614 174.557774 
L 279.716267 183.142301 
L 279.96092 182.484816 
L 280.450226 176.120853 
L 280.694879 178.725984 
L 280.939532 177.423418 
L 281.184185 175.376529 
L 281.428838 168.293054 
L 281.673491 173.590154 
L 281.918144 175.153233 
L 282.162797 171.803778 
L 282.40745 175.289692 
L 282.896756 168.578378 
L 283.386062 168.032541 
L 283.630715 169.967781 
L 283.875368 163.901547 
L 284.120021 164.757519 
L 284.364674 164.360546 
L 284.609327 159.83258 
L 284.85398 167.387461 
L 285.098633 166.469462 
L 285.343286 164.273709 
L 285.587939 165.067653 
L 285.832592 164.695492 
L 286.077245 164.112439 
L 286.321898 164.447384 
L 286.566551 162.598982 
L 286.811204 162.139982 
L 287.055857 160.403228 
L 287.30051 160.477661 
L 287.545163 161.991118 
L 287.789816 162.301252 
L 288.034469 163.827115 
L 288.523775 156.669207 
L 288.768428 159.075852 
L 289.013081 159.02623 
L 289.257734 154.721561 
L 289.502387 156.396288 
L 289.74704 155.664371 
L 289.991693 155.80083 
L 290.236346 156.272235 
L 290.480999 157.066179 
L 290.725652 158.467988 
L 291.214958 149.821434 
L 291.704264 147.514032 
L 291.948917 151.372107 
L 292.19357 168.81408 
L 292.438223 165.799571 
L 292.682876 168.020135 
L 292.92753 166.87884 
L 293.172183 169.7817 
L 293.906142 173.850667 
L 294.150795 174.160802 
L 294.395448 170.339943 
L 294.640101 172.287588 
L 294.884754 173.217992 
L 295.129407 174.979557 
L 295.37406 173.155965 
L 295.618713 173.528127 
L 295.863366 170.612861 
L 296.352672 177.001635 
L 296.597325 176.82796 
L 296.841978 175.289692 
L 297.086631 175.897556 
L 297.331284 173.577748 
L 297.575937 174.75626 
L 298.554549 161.544524 
L 298.799202 158.306718 
L 299.043855 157.698854 
L 299.777814 160.241958 
L 300.022467 162.301252 
L 300.26712 160.874633 
L 300.511773 161.929091 
L 300.756426 164.447384 
L 301.001079 165.402599 
L 301.245732 169.545998 
L 301.490385 169.421944 
L 301.979691 168.876107 
L 302.224344 167.449488 
L 302.71365 169.483971 
L 302.958303 172.969885 
L 303.202956 174.185612 
L 303.447609 172.138724 
L 303.936915 179.991333 
L 304.426221 172.883047 
L 304.670874 172.362021 
L 304.915527 165.923625 
L 305.16018 164.385357 
L 305.404833 168.49154 
L 305.649486 167.871271 
L 305.894139 165.439815 
L 306.138792 168.404702 
L 306.383445 166.792002 
L 306.628098 166.221354 
L 306.872751 164.248898 
L 307.362057 163.268872 
L 307.60671 179.358658 
L 307.851363 176.790744 
L 308.096016 179.172578 
L 308.340669 179.296632 
L 308.585322 177.100878 
L 308.829975 172.448858 
L 309.074628 171.667319 
L 309.563934 172.647344 
L 309.808587 168.776864 
L 310.297893 170.352348 
L 310.542546 169.930565 
L 310.787199 165.477031 
L 311.276505 169.248269 
L 311.521158 169.322701 
L 311.765811 166.891245 
L 312.010464 166.022868 
L 312.255117 167.610758 
L 312.49977 167.84646 
L 312.744423 166.295787 
L 313.233729 166.916056 
L 313.478382 167.672785 
L 313.723035 166.829218 
L 313.967688 167.772028 
L 314.212341 165.117275 
L 314.456994 164.794735 
L 314.701647 165.142086 
L 314.9463 164.956005 
L 315.68026 165.042843 
L 315.924913 161.680983 
L 316.169566 162.847089 
L 316.414219 162.214415 
L 316.658872 166.134517 
L 316.903525 162.971143 
L 317.148178 166.643138 
L 317.392831 165.501842 
L 317.637484 165.092464 
L 317.882137 162.437712 
L 318.12679 164.199276 
L 318.371443 163.963574 
L 318.616096 168.144189 
L 318.860749 166.965678 
L 319.105402 166.829218 
L 319.350055 168.541162 
L 319.594708 165.42741 
L 319.839361 164.918789 
L 320.084014 165.923625 
L 320.328667 163.591412 
L 320.57332 158.530015 
L 320.817973 158.889771 
L 321.062626 154.002049 
L 321.307279 155.503101 
L 321.551932 155.813235 
L 321.796585 157.661638 
L 322.041238 161.060714 
L 322.285891 162.412901 
L 322.530544 161.507308 
L 322.775197 159.96904 
L 323.01985 162.040739 
L 323.264503 138.482911 
L 323.509156 134.662052 
L 323.753809 132.826054 
L 323.998462 127.677819 
L 324.243115 127.888711 
L 324.487768 128.905952 
L 324.732421 128.335305 
L 324.977074 128.955574 
L 325.221727 128.83152 
L 325.711033 132.888081 
L 325.955686 134.078999 
L 326.444992 134.463565 
L 326.689645 131.300192 
L 326.934298 131.597921 
L 327.178951 134.265079 
L 327.423604 142.663526 
L 327.668257 143.457471 
L 327.91291 145.194225 
L 328.157563 144.933712 
L 328.402216 142.94885 
L 328.646869 143.147336 
L 328.891522 142.924039 
L 329.136175 139.512558 
L 329.380828 139.413315 
L 330.114787 140.790312 
L 330.35944 140.0708 
L 330.604093 140.703475 
L 330.848746 140.430556 
L 331.093399 135.977023 
L 331.338052 138.023911 
L 331.582705 131.312597 
L 331.827358 130.295356 
L 332.072011 132.962514 
L 332.316664 133.409108 
L 332.561317 133.471135 
L 332.80597 132.292623 
L 333.050623 132.714406 
L 333.295276 130.779166 
L 333.539929 131.746786 
L 333.784582 130.220923 
L 334.029235 130.630301 
L 334.273888 128.918358 
L 334.518541 130.059653 
L 334.763194 130.047248 
L 335.007847 126.623361 
L 335.2525 129.675086 
L 335.497153 130.369788 
L 335.741806 132.267812 
L 335.986459 127.690225 
L 336.475765 122.331098 
L 336.720418 123.249096 
L 336.965071 123.397961 
L 337.209724 124.712932 
L 337.454377 123.956203 
L 337.69903 125.593714 
L 337.943684 119.98648 
L 338.188337 120.991316 
L 338.43299 120.532317 
L 338.677643 114.143543 
L 338.922296 113.90784 
L 339.166949 115.408892 
L 339.411602 112.034627 
L 339.900908 113.461246 
L 340.145561 109.131767 
L 340.390214 110.657629 
L 340.634867 111.290304 
L 340.87952 111.203466 
L 341.124173 113.163517 
L 341.613479 110.967764 
L 341.858132 107.208932 
L 342.102785 106.290933 
L 342.347438 107.035256 
L 342.592091 106.19169 
L 342.836744 108.201363 
L 343.081397 111.153845 
L 343.32605 109.355064 
L 343.570703 109.677604 
L 343.815356 109.417091 
L 344.060009 108.945686 
L 344.304662 107.382607 
L 344.549315 108.722389 
L 344.793968 108.139336 
L 345.038621 107.94085 
L 345.283274 109.528739 
L 345.527927 108.883659 
L 345.77258 112.754139 
L 346.017233 113.23795 
L 346.261886 109.764441 
L 346.506539 110.397116 
L 346.751192 111.774114 
L 346.995845 111.513601 
L 347.240498 111.067007 
L 347.485151 107.80439 
L 347.729804 108.213768 
L 347.974457 105.658258 
L 348.21911 106.725122 
L 348.708416 104.938746 
L 348.953069 109.168983 
L 349.197722 108.883659 
L 349.442375 109.888495 
L 349.687028 109.665198 
L 350.176334 105.757502 
L 350.66564 102.172345 
L 350.910293 102.48248 
L 351.154946 103.586559 
L 351.644252 107.680336 
L 351.888905 107.531472 
L 352.133558 108.313011 
L 352.622864 106.774743 
L 352.867517 107.419823 
L 353.11217 108.548714 
L 353.356823 103.177181 
L 353.846129 112.468816 
L 354.580088 107.419823 
L 354.824741 97.086137 
L 355.069394 99.554808 
L 355.314047 95.944841 
L 355.5587 97.036515 
L 355.803353 93.128818 
L 356.048006 91.764226 
L 356.292659 92.831089 
L 356.537312 90.771795 
L 356.781965 91.578145 
L 357.026618 91.851064 
L 357.271271 90.511282 
L 357.515924 87.012963 
L 357.760577 89.1715 
L 358.00523 86.355477 
L 358.494536 88.092232 
L 358.739189 95.795976 
L 358.983842 92.69463 
L 359.228495 91.057119 
L 359.473148 90.883443 
L 359.717801 89.903418 
L 359.962454 90.151526 
L 360.207107 83.576671 
L 360.451761 84.345805 
L 360.696414 83.365779 
L 361.18572 83.651103 
L 361.430373 80.934324 
L 361.675026 81.083188 
L 361.919679 80.946729 
L 362.408985 80.065947 
L 362.898291 97.979324 
L 363.142944 96.391435 
L 363.63225 97.582352 
L 363.876903 96.813218 
L 364.121556 95.547869 
L 364.366209 97.222596 
L 364.610862 93.525791 
L 364.855515 93.699466 
L 365.100168 89.81658 
L 365.344821 90.46166 
L 365.589474 98.487945 
L 365.834127 95.535463 
L 366.07878 99.654052 
L 366.323433 100.497618 
L 366.568086 104.516963 
L 366.812739 102.730587 
L 367.057392 104.41772 
L 367.546698 96.453462 
L 367.791351 94.394168 
L 368.036004 88.910987 
L 368.280657 89.580878 
L 368.52531 85.97091 
L 368.769963 85.251398 
L 369.014616 58.083602 
L 369.259269 57.761062 
L 369.503922 58.083602 
L 369.748575 51.955341 
L 369.993228 52.736881 
L 370.237881 53.902987 
L 370.482534 51.28545 
L 370.727187 59.224898 
L 370.97184 57.537765 
L 371.216493 60.490247 
L 371.461146 60.031248 
L 371.950452 63.504756 
L 372.439758 60.899625 
L 372.929064 67.784614 
L 373.173717 76.021791 
L 373.41837 73.218173 
L 373.663023 73.714389 
L 373.907676 76.815735 
L 374.152329 74.979738 
L 374.396982 79.805433 
L 374.641635 79.247191 
L 374.886288 78.974273 
L 375.130941 75.773683 
L 375.375594 76.121034 
L 375.620247 77.274735 
L 375.8649 79.979109 
L 376.354206 76.431168 
L 376.598859 69.136801 
L 377.088165 69.074774 
L 377.332818 69.347693 
L 377.577471 63.479945 
L 377.822124 63.79008 
L 378.066777 66.990669 
L 378.556083 56.160767 
L 379.045389 59.286925 
L 379.290042 59.634275 
L 379.534695 56.818253 
L 379.779348 55.503282 
L 380.024001 55.714173 
L 380.268654 51.657612 
L 380.513307 53.431582 
L 380.75796 64.348322 
L 381.002613 63.318675 
L 381.247266 60.10568 
L 381.491919 61.681164 
L 381.736572 60.874814 
L 381.981225 66.258752 
L 382.225878 63.554377 
L 382.470531 57.029144 
L 382.715184 44.69819 
L 382.959838 40.195035 
L 383.204491 41.621654 
L 383.449144 43.842219 
L 383.693797 44.003489 
L 383.93845 42.874598 
L 384.427756 34.414125 
L 384.917062 43.271571 
L 385.161715 43.780192 
L 385.406368 44.983514 
L 385.651021 47.080024 
L 385.895674 42.676112 
L 386.140327 45.467324 
L 386.38498 43.680949 
L 386.629633 38.309416 
L 386.874286 39.760846 
L 387.118939 42.167491 
L 387.608245 38.582335 
L 387.852898 37.726363 
L 387.852898 37.726363 
" style="fill:none;stroke:#ff7f0e;stroke-linecap:square;stroke-width:1.5;"/>
   </g>
   <g id="patch_3">
    <path d="M 46.965625 288.430125 
L 46.965625 22.318125 
" style="fill:none;stroke:#000000;stroke-linecap:square;stroke-linejoin:miter;stroke-width:0.8;"/>
   </g>
   <g id="patch_4">
    <path d="M 404.085625 288.430125 
L 404.085625 22.318125 
" style="fill:none;stroke:#000000;stroke-linecap:square;stroke-linejoin:miter;stroke-width:0.8;"/>
   </g>
   <g id="patch_5">
    <path d="M 46.965625 288.430125 
L 404.085625 288.430125 
" style="fill:none;stroke:#000000;stroke-linecap:square;stroke-linejoin:miter;stroke-width:0.8;"/>
   </g>
   <g id="patch_6">
    <path d="M 46.965625 22.318125 
L 404.085625 22.318125 
" style="fill:none;stroke:#000000;stroke-linecap:square;stroke-linejoin:miter;stroke-width:0.8;"/>
   </g>
   <g id="text_19">
    <!-- Training: NFLX -->
    <defs>
     <path d="M -0.296875 72.90625 
L 61.375 72.90625 
L 61.375 64.59375 
L 35.5 64.59375 
L 35.5 0 
L 25.59375 0 
L 25.59375 64.59375 
L -0.296875 64.59375 
z
" id="DejaVuSans-84"/>
     <path d="M 54.890625 33.015625 
L 54.890625 0 
L 45.90625 0 
L 45.90625 32.71875 
Q 45.90625 40.484375 42.875 44.328125 
Q 39.84375 48.1875 33.796875 48.1875 
Q 26.515625 48.1875 22.3125 43.546875 
Q 18.109375 38.921875 18.109375 30.90625 
L 18.109375 0 
L 9.078125 0 
L 9.078125 54.6875 
L 18.109375 54.6875 
L 18.109375 46.1875 
Q 21.34375 51.125 25.703125 53.5625 
Q 30.078125 56 35.796875 56 
Q 45.21875 56 50.046875 50.171875 
Q 54.890625 44.34375 54.890625 33.015625 
z
" id="DejaVuSans-110"/>
     <path d="M 45.40625 27.984375 
Q 45.40625 37.75 41.375 43.109375 
Q 37.359375 48.484375 30.078125 48.484375 
Q 22.859375 48.484375 18.828125 43.109375 
Q 14.796875 37.75 14.796875 27.984375 
Q 14.796875 18.265625 18.828125 12.890625 
Q 22.859375 7.515625 30.078125 7.515625 
Q 37.359375 7.515625 41.375 12.890625 
Q 45.40625 18.265625 45.40625 27.984375 
z
M 54.390625 6.78125 
Q 54.390625 -7.171875 48.1875 -13.984375 
Q 42 -20.796875 29.203125 -20.796875 
Q 24.46875 -20.796875 20.265625 -20.09375 
Q 16.0625 -19.390625 12.109375 -17.921875 
L 12.109375 -9.1875 
Q 16.0625 -11.328125 19.921875 -12.34375 
Q 23.78125 -13.375 27.78125 -13.375 
Q 36.625 -13.375 41.015625 -8.765625 
Q 45.40625 -4.15625 45.40625 5.171875 
L 45.40625 9.625 
Q 42.625 4.78125 38.28125 2.390625 
Q 33.9375 0 27.875 0 
Q 17.828125 0 11.671875 7.65625 
Q 5.515625 15.328125 5.515625 27.984375 
Q 5.515625 40.671875 11.671875 48.328125 
Q 17.828125 56 27.875 56 
Q 33.9375 56 38.28125 53.609375 
Q 42.625 51.21875 45.40625 46.390625 
L 45.40625 54.6875 
L 54.390625 54.6875 
z
" id="DejaVuSans-103"/>
     <path d="M 11.71875 12.40625 
L 22.015625 12.40625 
L 22.015625 0 
L 11.71875 0 
z
M 11.71875 51.703125 
L 22.015625 51.703125 
L 22.015625 39.3125 
L 11.71875 39.3125 
z
" id="DejaVuSans-58"/>
     <path d="M 9.8125 72.90625 
L 23.09375 72.90625 
L 55.421875 11.921875 
L 55.421875 72.90625 
L 64.984375 72.90625 
L 64.984375 0 
L 51.703125 0 
L 19.390625 60.984375 
L 19.390625 0 
L 9.8125 0 
z
" id="DejaVuSans-78"/>
     <path d="M 9.8125 72.90625 
L 51.703125 72.90625 
L 51.703125 64.59375 
L 19.671875 64.59375 
L 19.671875 43.109375 
L 48.578125 43.109375 
L 48.578125 34.8125 
L 19.671875 34.8125 
L 19.671875 0 
L 9.8125 0 
z
" id="DejaVuSans-70"/>
     <path d="M 9.8125 72.90625 
L 19.671875 72.90625 
L 19.671875 8.296875 
L 55.171875 8.296875 
L 55.171875 0 
L 9.8125 0 
z
" id="DejaVuSans-76"/>
     <path d="M 6.296875 72.90625 
L 16.890625 72.90625 
L 35.015625 45.796875 
L 53.21875 72.90625 
L 63.8125 72.90625 
L 40.375 37.890625 
L 65.375 0 
L 54.78125 0 
L 34.28125 31 
L 13.625 0 
L 2.984375 0 
L 29 38.921875 
z
" id="DejaVuSans-88"/>
    </defs>
    <g transform="translate(182.53375 16.318125)scale(0.12 -0.12)">
     <use xlink:href="#DejaVuSans-84"/>
     <use x="46.333984" xlink:href="#DejaVuSans-114"/>
     <use x="87.447266" xlink:href="#DejaVuSans-97"/>
     <use x="148.726562" xlink:href="#DejaVuSans-105"/>
     <use x="176.509766" xlink:href="#DejaVuSans-110"/>
     <use x="239.888672" xlink:href="#DejaVuSans-105"/>
     <use x="267.671875" xlink:href="#DejaVuSans-110"/>
     <use x="331.050781" xlink:href="#DejaVuSans-103"/>
     <use x="394.527344" xlink:href="#DejaVuSans-58"/>
     <use x="428.21875" xlink:href="#DejaVuSans-32"/>
     <use x="460.005859" xlink:href="#DejaVuSans-78"/>
     <use x="534.810547" xlink:href="#DejaVuSans-70"/>
     <use x="592.330078" xlink:href="#DejaVuSans-76"/>
     <use x="648.042969" xlink:href="#DejaVuSans-88"/>
    </g>
   </g>
   <g id="legend_1">
    <g id="patch_7">
     <path d="M 53.965625 59.674375 
L 137.69375 59.674375 
Q 139.69375 59.674375 139.69375 57.674375 
L 139.69375 29.318125 
Q 139.69375 27.318125 137.69375 27.318125 
L 53.965625 27.318125 
Q 51.965625 27.318125 51.965625 29.318125 
L 51.965625 57.674375 
Q 51.965625 59.674375 53.965625 59.674375 
z
" style="fill:#ffffff;opacity:0.8;stroke:#cccccc;stroke-linejoin:miter;"/>
    </g>
    <g id="line2d_35">
     <path d="M 55.965625 35.416562 
L 75.965625 35.416562 
" style="fill:none;stroke:#1f77b4;stroke-linecap:square;stroke-width:1.5;"/>
    </g>
    <g id="line2d_36"/>
    <g id="text_20">
     <!-- Predicted -->
     <defs>
      <path d="M 45.40625 46.390625 
L 45.40625 75.984375 
L 54.390625 75.984375 
L 54.390625 0 
L 45.40625 0 
L 45.40625 8.203125 
Q 42.578125 3.328125 38.25 0.953125 
Q 33.9375 -1.421875 27.875 -1.421875 
Q 17.96875 -1.421875 11.734375 6.484375 
Q 5.515625 14.40625 5.515625 27.296875 
Q 5.515625 40.1875 11.734375 48.09375 
Q 17.96875 56 27.875 56 
Q 33.9375 56 38.25 53.625 
Q 42.578125 51.265625 45.40625 46.390625 
z
M 14.796875 27.296875 
Q 14.796875 17.390625 18.875 11.75 
Q 22.953125 6.109375 30.078125 6.109375 
Q 37.203125 6.109375 41.296875 11.75 
Q 45.40625 17.390625 45.40625 27.296875 
Q 45.40625 37.203125 41.296875 42.84375 
Q 37.203125 48.484375 30.078125 48.484375 
Q 22.953125 48.484375 18.875 42.84375 
Q 14.796875 37.203125 14.796875 27.296875 
z
" id="DejaVuSans-100"/>
      <path d="M 18.3125 70.21875 
L 18.3125 54.6875 
L 36.8125 54.6875 
L 36.8125 47.703125 
L 18.3125 47.703125 
L 18.3125 18.015625 
Q 18.3125 11.328125 20.140625 9.421875 
Q 21.96875 7.515625 27.59375 7.515625 
L 36.8125 7.515625 
L 36.8125 0 
L 27.59375 0 
Q 17.1875 0 13.234375 3.875 
Q 9.28125 7.765625 9.28125 18.015625 
L 9.28125 47.703125 
L 2.6875 47.703125 
L 2.6875 54.6875 
L 9.28125 54.6875 
L 9.28125 70.21875 
z
" id="DejaVuSans-116"/>
     </defs>
     <g transform="translate(83.965625 38.916562)scale(0.1 -0.1)">
      <use xlink:href="#DejaVuSans-80"/>
      <use x="58.552734" xlink:href="#DejaVuSans-114"/>
      <use x="97.416016" xlink:href="#DejaVuSans-101"/>
      <use x="158.939453" xlink:href="#DejaVuSans-100"/>
      <use x="222.416016" xlink:href="#DejaVuSans-105"/>
      <use x="250.199219" xlink:href="#DejaVuSans-99"/>
      <use x="305.179688" xlink:href="#DejaVuSans-116"/>
      <use x="344.388672" xlink:href="#DejaVuSans-101"/>
      <use x="405.912109" xlink:href="#DejaVuSans-100"/>
     </g>
    </g>
    <g id="line2d_37">
     <path d="M 55.965625 50.094687 
L 75.965625 50.094687 
" style="fill:none;stroke:#ff7f0e;stroke-linecap:square;stroke-width:1.5;"/>
    </g>
    <g id="line2d_38"/>
    <g id="text_21">
     <!-- True value -->
     <defs>
      <path d="M 8.5 21.578125 
L 8.5 54.6875 
L 17.484375 54.6875 
L 17.484375 21.921875 
Q 17.484375 14.15625 20.5 10.265625 
Q 23.53125 6.390625 29.59375 6.390625 
Q 36.859375 6.390625 41.078125 11.03125 
Q 45.3125 15.671875 45.3125 23.6875 
L 45.3125 54.6875 
L 54.296875 54.6875 
L 54.296875 0 
L 45.3125 0 
L 45.3125 8.40625 
Q 42.046875 3.421875 37.71875 1 
Q 33.40625 -1.421875 27.6875 -1.421875 
Q 18.265625 -1.421875 13.375 4.4375 
Q 8.5 10.296875 8.5 21.578125 
z
M 31.109375 56 
z
" id="DejaVuSans-117"/>
      <path d="M 2.984375 54.6875 
L 12.5 54.6875 
L 29.59375 8.796875 
L 46.6875 54.6875 
L 56.203125 54.6875 
L 35.6875 0 
L 23.484375 0 
z
" id="DejaVuSans-118"/>
      <path d="M 9.421875 75.984375 
L 18.40625 75.984375 
L 18.40625 0 
L 9.421875 0 
z
" id="DejaVuSans-108"/>
     </defs>
     <g transform="translate(83.965625 53.594687)scale(0.1 -0.1)">
      <use xlink:href="#DejaVuSans-84"/>
      <use x="46.333984" xlink:href="#DejaVuSans-114"/>
      <use x="87.447266" xlink:href="#DejaVuSans-117"/>
      <use x="150.826172" xlink:href="#DejaVuSans-101"/>
      <use x="212.349609" xlink:href="#DejaVuSans-32"/>
      <use x="244.136719" xlink:href="#DejaVuSans-118"/>
      <use x="303.316406" xlink:href="#DejaVuSans-97"/>
      <use x="364.595703" xlink:href="#DejaVuSans-108"/>
      <use x="392.378906" xlink:href="#DejaVuSans-117"/>
      <use x="455.757812" xlink:href="#DejaVuSans-101"/>
     </g>
    </g>
   </g>
  </g>
 </g>
 <defs>
  <clipPath id="p0a30449e92">
   <rect height="266.112" width="357.12" x="46.965625" y="22.318125"/>
  </clipPath>
 </defs>
</svg>
