<?xml version="1.0" encoding="utf-8" standalone="no"?>
<!DOCTYPE svg PUBLIC "-//W3C//DTD SVG 1.1//EN"
  "http://www.w3.org/Graphics/SVG/1.1/DTD/svg11.dtd">
<!-- Created with matplotlib (https://matplotlib.org/) -->
<svg height="325.986375pt" version="1.1" viewBox="0 0 411.285625 325.986375" width="411.285625pt" xmlns="http://www.w3.org/2000/svg" xmlns:xlink="http://www.w3.org/1999/xlink">
 <defs>
  <style type="text/css">
*{stroke-linecap:butt;stroke-linejoin:round;}
  </style>
 </defs>
 <g id="figure_1">
  <g id="patch_1">
   <path d="M 0 325.986375 
L 411.285625 325.986375 
L 411.285625 0 
L 0 0 
z
" style="fill:#ffffff;"/>
  </g>
  <g id="axes_1">
   <g id="patch_2">
    <path d="M 46.965625 288.430125 
L 404.085625 288.430125 
L 404.085625 22.318125 
L 46.965625 22.318125 
z
" style="fill:#ffffff;"/>
   </g>
   <g id="matplotlib.axis_1">
    <g id="xtick_1">
     <g id="line2d_1">
      <path clip-path="url(#p9e6d24c88d)" d="M 63.198352 288.430125 
L 63.198352 22.318125 
" style="fill:none;stroke:#b0b0b0;stroke-dasharray:2.96,1.28;stroke-dashoffset:0;stroke-width:0.8;"/>
     </g>
     <g id="line2d_2">
      <defs>
       <path d="M 0 0 
L 0 3.5 
" id="m3164c21afc" style="stroke:#000000;stroke-width:0.8;"/>
      </defs>
      <g>
       <use style="stroke:#000000;stroke-width:0.8;" x="63.198352" xlink:href="#m3164c21afc" y="288.430125"/>
      </g>
     </g>
     <g id="text_1">
      <!-- 0 -->
      <defs>
       <path d="M 31.78125 66.40625 
Q 24.171875 66.40625 20.328125 58.90625 
Q 16.5 51.421875 16.5 36.375 
Q 16.5 21.390625 20.328125 13.890625 
Q 24.171875 6.390625 31.78125 6.390625 
Q 39.453125 6.390625 43.28125 13.890625 
Q 47.125 21.390625 47.125 36.375 
Q 47.125 51.421875 43.28125 58.90625 
Q 39.453125 66.40625 31.78125 66.40625 
z
M 31.78125 74.21875 
Q 44.046875 74.21875 50.515625 64.515625 
Q 56.984375 54.828125 56.984375 36.375 
Q 56.984375 17.96875 50.515625 8.265625 
Q 44.046875 -1.421875 31.78125 -1.421875 
Q 19.53125 -1.421875 13.0625 8.265625 
Q 6.59375 17.96875 6.59375 36.375 
Q 6.59375 54.828125 13.0625 64.515625 
Q 19.53125 74.21875 31.78125 74.21875 
z
" id="DejaVuSans-48"/>
      </defs>
      <g transform="translate(60.017102 303.028562)scale(0.1 -0.1)">
       <use xlink:href="#DejaVuSans-48"/>
      </g>
     </g>
    </g>
    <g id="xtick_2">
     <g id="line2d_3">
      <path clip-path="url(#p9e6d24c88d)" d="M 112.128954 288.430125 
L 112.128954 22.318125 
" style="fill:none;stroke:#b0b0b0;stroke-dasharray:2.96,1.28;stroke-dashoffset:0;stroke-width:0.8;"/>
     </g>
     <g id="line2d_4">
      <g>
       <use style="stroke:#000000;stroke-width:0.8;" x="112.128954" xlink:href="#m3164c21afc" y="288.430125"/>
      </g>
     </g>
     <g id="text_2">
      <!-- 200 -->
      <defs>
       <path d="M 19.1875 8.296875 
L 53.609375 8.296875 
L 53.609375 0 
L 7.328125 0 
L 7.328125 8.296875 
Q 12.9375 14.109375 22.625 23.890625 
Q 32.328125 33.6875 34.8125 36.53125 
Q 39.546875 41.84375 41.421875 45.53125 
Q 43.3125 49.21875 43.3125 52.78125 
Q 43.3125 58.59375 39.234375 62.25 
Q 35.15625 65.921875 28.609375 65.921875 
Q 23.96875 65.921875 18.8125 64.3125 
Q 13.671875 62.703125 7.8125 59.421875 
L 7.8125 69.390625 
Q 13.765625 71.78125 18.9375 73 
Q 24.125 74.21875 28.421875 74.21875 
Q 39.75 74.21875 46.484375 68.546875 
Q 53.21875 62.890625 53.21875 53.421875 
Q 53.21875 48.921875 51.53125 44.890625 
Q 49.859375 40.875 45.40625 35.40625 
Q 44.1875 33.984375 37.640625 27.21875 
Q 31.109375 20.453125 19.1875 8.296875 
z
" id="DejaVuSans-50"/>
      </defs>
      <g transform="translate(102.585204 303.028562)scale(0.1 -0.1)">
       <use xlink:href="#DejaVuSans-50"/>
       <use x="63.623047" xlink:href="#DejaVuSans-48"/>
       <use x="127.246094" xlink:href="#DejaVuSans-48"/>
      </g>
     </g>
    </g>
    <g id="xtick_3">
     <g id="line2d_5">
      <path clip-path="url(#p9e6d24c88d)" d="M 161.059557 288.430125 
L 161.059557 22.318125 
" style="fill:none;stroke:#b0b0b0;stroke-dasharray:2.96,1.28;stroke-dashoffset:0;stroke-width:0.8;"/>
     </g>
     <g id="line2d_6">
      <g>
       <use style="stroke:#000000;stroke-width:0.8;" x="161.059557" xlink:href="#m3164c21afc" y="288.430125"/>
      </g>
     </g>
     <g id="text_3">
      <!-- 400 -->
      <defs>
       <path d="M 37.796875 64.3125 
L 12.890625 25.390625 
L 37.796875 25.390625 
z
M 35.203125 72.90625 
L 47.609375 72.90625 
L 47.609375 25.390625 
L 58.015625 25.390625 
L 58.015625 17.1875 
L 47.609375 17.1875 
L 47.609375 0 
L 37.796875 0 
L 37.796875 17.1875 
L 4.890625 17.1875 
L 4.890625 26.703125 
z
" id="DejaVuSans-52"/>
      </defs>
      <g transform="translate(151.515807 303.028562)scale(0.1 -0.1)">
       <use xlink:href="#DejaVuSans-52"/>
       <use x="63.623047" xlink:href="#DejaVuSans-48"/>
       <use x="127.246094" xlink:href="#DejaVuSans-48"/>
      </g>
     </g>
    </g>
    <g id="xtick_4">
     <g id="line2d_7">
      <path clip-path="url(#p9e6d24c88d)" d="M 209.990159 288.430125 
L 209.990159 22.318125 
" style="fill:none;stroke:#b0b0b0;stroke-dasharray:2.96,1.28;stroke-dashoffset:0;stroke-width:0.8;"/>
     </g>
     <g id="line2d_8">
      <g>
       <use style="stroke:#000000;stroke-width:0.8;" x="209.990159" xlink:href="#m3164c21afc" y="288.430125"/>
      </g>
     </g>
     <g id="text_4">
      <!-- 600 -->
      <defs>
       <path d="M 33.015625 40.375 
Q 26.375 40.375 22.484375 35.828125 
Q 18.609375 31.296875 18.609375 23.390625 
Q 18.609375 15.53125 22.484375 10.953125 
Q 26.375 6.390625 33.015625 6.390625 
Q 39.65625 6.390625 43.53125 10.953125 
Q 47.40625 15.53125 47.40625 23.390625 
Q 47.40625 31.296875 43.53125 35.828125 
Q 39.65625 40.375 33.015625 40.375 
z
M 52.59375 71.296875 
L 52.59375 62.3125 
Q 48.875 64.0625 45.09375 64.984375 
Q 41.3125 65.921875 37.59375 65.921875 
Q 27.828125 65.921875 22.671875 59.328125 
Q 17.53125 52.734375 16.796875 39.40625 
Q 19.671875 43.65625 24.015625 45.921875 
Q 28.375 48.1875 33.59375 48.1875 
Q 44.578125 48.1875 50.953125 41.515625 
Q 57.328125 34.859375 57.328125 23.390625 
Q 57.328125 12.15625 50.6875 5.359375 
Q 44.046875 -1.421875 33.015625 -1.421875 
Q 20.359375 -1.421875 13.671875 8.265625 
Q 6.984375 17.96875 6.984375 36.375 
Q 6.984375 53.65625 15.1875 63.9375 
Q 23.390625 74.21875 37.203125 74.21875 
Q 40.921875 74.21875 44.703125 73.484375 
Q 48.484375 72.75 52.59375 71.296875 
z
" id="DejaVuSans-54"/>
      </defs>
      <g transform="translate(200.446409 303.028562)scale(0.1 -0.1)">
       <use xlink:href="#DejaVuSans-54"/>
       <use x="63.623047" xlink:href="#DejaVuSans-48"/>
       <use x="127.246094" xlink:href="#DejaVuSans-48"/>
      </g>
     </g>
    </g>
    <g id="xtick_5">
     <g id="line2d_9">
      <path clip-path="url(#p9e6d24c88d)" d="M 258.920761 288.430125 
L 258.920761 22.318125 
" style="fill:none;stroke:#b0b0b0;stroke-dasharray:2.96,1.28;stroke-dashoffset:0;stroke-width:0.8;"/>
     </g>
     <g id="line2d_10">
      <g>
       <use style="stroke:#000000;stroke-width:0.8;" x="258.920761" xlink:href="#m3164c21afc" y="288.430125"/>
      </g>
     </g>
     <g id="text_5">
      <!-- 800 -->
      <defs>
       <path d="M 31.78125 34.625 
Q 24.75 34.625 20.71875 30.859375 
Q 16.703125 27.09375 16.703125 20.515625 
Q 16.703125 13.921875 20.71875 10.15625 
Q 24.75 6.390625 31.78125 6.390625 
Q 38.8125 6.390625 42.859375 10.171875 
Q 46.921875 13.96875 46.921875 20.515625 
Q 46.921875 27.09375 42.890625 30.859375 
Q 38.875 34.625 31.78125 34.625 
z
M 21.921875 38.8125 
Q 15.578125 40.375 12.03125 44.71875 
Q 8.5 49.078125 8.5 55.328125 
Q 8.5 64.0625 14.71875 69.140625 
Q 20.953125 74.21875 31.78125 74.21875 
Q 42.671875 74.21875 48.875 69.140625 
Q 55.078125 64.0625 55.078125 55.328125 
Q 55.078125 49.078125 51.53125 44.71875 
Q 48 40.375 41.703125 38.8125 
Q 48.828125 37.15625 52.796875 32.3125 
Q 56.78125 27.484375 56.78125 20.515625 
Q 56.78125 9.90625 50.3125 4.234375 
Q 43.84375 -1.421875 31.78125 -1.421875 
Q 19.734375 -1.421875 13.25 4.234375 
Q 6.78125 9.90625 6.78125 20.515625 
Q 6.78125 27.484375 10.78125 32.3125 
Q 14.796875 37.15625 21.921875 38.8125 
z
M 18.3125 54.390625 
Q 18.3125 48.734375 21.84375 45.5625 
Q 25.390625 42.390625 31.78125 42.390625 
Q 38.140625 42.390625 41.71875 45.5625 
Q 45.3125 48.734375 45.3125 54.390625 
Q 45.3125 60.0625 41.71875 63.234375 
Q 38.140625 66.40625 31.78125 66.40625 
Q 25.390625 66.40625 21.84375 63.234375 
Q 18.3125 60.0625 18.3125 54.390625 
z
" id="DejaVuSans-56"/>
      </defs>
      <g transform="translate(249.377011 303.028562)scale(0.1 -0.1)">
       <use xlink:href="#DejaVuSans-56"/>
       <use x="63.623047" xlink:href="#DejaVuSans-48"/>
       <use x="127.246094" xlink:href="#DejaVuSans-48"/>
      </g>
     </g>
    </g>
    <g id="xtick_6">
     <g id="line2d_11">
      <path clip-path="url(#p9e6d24c88d)" d="M 307.851363 288.430125 
L 307.851363 22.318125 
" style="fill:none;stroke:#b0b0b0;stroke-dasharray:2.96,1.28;stroke-dashoffset:0;stroke-width:0.8;"/>
     </g>
     <g id="line2d_12">
      <g>
       <use style="stroke:#000000;stroke-width:0.8;" x="307.851363" xlink:href="#m3164c21afc" y="288.430125"/>
      </g>
     </g>
     <g id="text_6">
      <!-- 1000 -->
      <defs>
       <path d="M 12.40625 8.296875 
L 28.515625 8.296875 
L 28.515625 63.921875 
L 10.984375 60.40625 
L 10.984375 69.390625 
L 28.421875 72.90625 
L 38.28125 72.90625 
L 38.28125 8.296875 
L 54.390625 8.296875 
L 54.390625 0 
L 12.40625 0 
z
" id="DejaVuSans-49"/>
      </defs>
      <g transform="translate(295.126363 303.028562)scale(0.1 -0.1)">
       <use xlink:href="#DejaVuSans-49"/>
       <use x="63.623047" xlink:href="#DejaVuSans-48"/>
       <use x="127.246094" xlink:href="#DejaVuSans-48"/>
       <use x="190.869141" xlink:href="#DejaVuSans-48"/>
      </g>
     </g>
    </g>
    <g id="xtick_7">
     <g id="line2d_13">
      <path clip-path="url(#p9e6d24c88d)" d="M 356.781965 288.430125 
L 356.781965 22.318125 
" style="fill:none;stroke:#b0b0b0;stroke-dasharray:2.96,1.28;stroke-dashoffset:0;stroke-width:0.8;"/>
     </g>
     <g id="line2d_14">
      <g>
       <use style="stroke:#000000;stroke-width:0.8;" x="356.781965" xlink:href="#m3164c21afc" y="288.430125"/>
      </g>
     </g>
     <g id="text_7">
      <!-- 1200 -->
      <g transform="translate(344.056965 303.028562)scale(0.1 -0.1)">
       <use xlink:href="#DejaVuSans-49"/>
       <use x="63.623047" xlink:href="#DejaVuSans-50"/>
       <use x="127.246094" xlink:href="#DejaVuSans-48"/>
       <use x="190.869141" xlink:href="#DejaVuSans-48"/>
      </g>
     </g>
    </g>
    <g id="text_8">
     <!-- Day -->
     <defs>
      <path d="M 19.671875 64.796875 
L 19.671875 8.109375 
L 31.59375 8.109375 
Q 46.6875 8.109375 53.6875 14.9375 
Q 60.6875 21.78125 60.6875 36.53125 
Q 60.6875 51.171875 53.6875 57.984375 
Q 46.6875 64.796875 31.59375 64.796875 
z
M 9.8125 72.90625 
L 30.078125 72.90625 
Q 51.265625 72.90625 61.171875 64.09375 
Q 71.09375 55.28125 71.09375 36.53125 
Q 71.09375 17.671875 61.125 8.828125 
Q 51.171875 0 30.078125 0 
L 9.8125 0 
z
" id="DejaVuSans-68"/>
      <path d="M 34.28125 27.484375 
Q 23.390625 27.484375 19.1875 25 
Q 14.984375 22.515625 14.984375 16.5 
Q 14.984375 11.71875 18.140625 8.90625 
Q 21.296875 6.109375 26.703125 6.109375 
Q 34.1875 6.109375 38.703125 11.40625 
Q 43.21875 16.703125 43.21875 25.484375 
L 43.21875 27.484375 
z
M 52.203125 31.203125 
L 52.203125 0 
L 43.21875 0 
L 43.21875 8.296875 
Q 40.140625 3.328125 35.546875 0.953125 
Q 30.953125 -1.421875 24.3125 -1.421875 
Q 15.921875 -1.421875 10.953125 3.296875 
Q 6 8.015625 6 15.921875 
Q 6 25.140625 12.171875 29.828125 
Q 18.359375 34.515625 30.609375 34.515625 
L 43.21875 34.515625 
L 43.21875 35.40625 
Q 43.21875 41.609375 39.140625 45 
Q 35.0625 48.390625 27.6875 48.390625 
Q 23 48.390625 18.546875 47.265625 
Q 14.109375 46.140625 10.015625 43.890625 
L 10.015625 52.203125 
Q 14.9375 54.109375 19.578125 55.046875 
Q 24.21875 56 28.609375 56 
Q 40.484375 56 46.34375 49.84375 
Q 52.203125 43.703125 52.203125 31.203125 
z
" id="DejaVuSans-97"/>
      <path d="M 32.171875 -5.078125 
Q 28.375 -14.84375 24.75 -17.8125 
Q 21.140625 -20.796875 15.09375 -20.796875 
L 7.90625 -20.796875 
L 7.90625 -13.28125 
L 13.1875 -13.28125 
Q 16.890625 -13.28125 18.9375 -11.515625 
Q 21 -9.765625 23.484375 -3.21875 
L 25.09375 0.875 
L 2.984375 54.6875 
L 12.5 54.6875 
L 29.59375 11.921875 
L 46.6875 54.6875 
L 56.203125 54.6875 
z
" id="DejaVuSans-121"/>
     </defs>
     <g transform="translate(215.652188 316.706687)scale(0.1 -0.1)">
      <use xlink:href="#DejaVuSans-68"/>
      <use x="77.001953" xlink:href="#DejaVuSans-97"/>
      <use x="138.28125" xlink:href="#DejaVuSans-121"/>
     </g>
    </g>
   </g>
   <g id="matplotlib.axis_2">
    <g id="ytick_1">
     <g id="line2d_15">
      <path clip-path="url(#p9e6d24c88d)" d="M 46.965625 254.14838 
L 404.085625 254.14838 
" style="fill:none;stroke:#b0b0b0;stroke-dasharray:2.96,1.28;stroke-dashoffset:0;stroke-width:0.8;"/>
     </g>
     <g id="line2d_16">
      <defs>
       <path d="M 0 0 
L -3.5 0 
" id="m79d700e99b" style="stroke:#000000;stroke-width:0.8;"/>
      </defs>
      <g>
       <use style="stroke:#000000;stroke-width:0.8;" x="46.965625" xlink:href="#m79d700e99b" y="254.14838"/>
      </g>
     </g>
     <g id="text_9">
      <!-- 70 -->
      <defs>
       <path d="M 8.203125 72.90625 
L 55.078125 72.90625 
L 55.078125 68.703125 
L 28.609375 0 
L 18.3125 0 
L 43.21875 64.59375 
L 8.203125 64.59375 
z
" id="DejaVuSans-55"/>
      </defs>
      <g transform="translate(27.240625 257.947598)scale(0.1 -0.1)">
       <use xlink:href="#DejaVuSans-55"/>
       <use x="63.623047" xlink:href="#DejaVuSans-48"/>
      </g>
     </g>
    </g>
    <g id="ytick_2">
     <g id="line2d_17">
      <path clip-path="url(#p9e6d24c88d)" d="M 46.965625 209.395986 
L 404.085625 209.395986 
" style="fill:none;stroke:#b0b0b0;stroke-dasharray:2.96,1.28;stroke-dashoffset:0;stroke-width:0.8;"/>
     </g>
     <g id="line2d_18">
      <g>
       <use style="stroke:#000000;stroke-width:0.8;" x="46.965625" xlink:href="#m79d700e99b" y="209.395986"/>
      </g>
     </g>
     <g id="text_10">
      <!-- 80 -->
      <g transform="translate(27.240625 213.195204)scale(0.1 -0.1)">
       <use xlink:href="#DejaVuSans-56"/>
       <use x="63.623047" xlink:href="#DejaVuSans-48"/>
      </g>
     </g>
    </g>
    <g id="ytick_3">
     <g id="line2d_19">
      <path clip-path="url(#p9e6d24c88d)" d="M 46.965625 164.643592 
L 404.085625 164.643592 
" style="fill:none;stroke:#b0b0b0;stroke-dasharray:2.96,1.28;stroke-dashoffset:0;stroke-width:0.8;"/>
     </g>
     <g id="line2d_20">
      <g>
       <use style="stroke:#000000;stroke-width:0.8;" x="46.965625" xlink:href="#m79d700e99b" y="164.643592"/>
      </g>
     </g>
     <g id="text_11">
      <!-- 90 -->
      <defs>
       <path d="M 10.984375 1.515625 
L 10.984375 10.5 
Q 14.703125 8.734375 18.5 7.8125 
Q 22.3125 6.890625 25.984375 6.890625 
Q 35.75 6.890625 40.890625 13.453125 
Q 46.046875 20.015625 46.78125 33.40625 
Q 43.953125 29.203125 39.59375 26.953125 
Q 35.25 24.703125 29.984375 24.703125 
Q 19.046875 24.703125 12.671875 31.3125 
Q 6.296875 37.9375 6.296875 49.421875 
Q 6.296875 60.640625 12.9375 67.421875 
Q 19.578125 74.21875 30.609375 74.21875 
Q 43.265625 74.21875 49.921875 64.515625 
Q 56.59375 54.828125 56.59375 36.375 
Q 56.59375 19.140625 48.40625 8.859375 
Q 40.234375 -1.421875 26.421875 -1.421875 
Q 22.703125 -1.421875 18.890625 -0.6875 
Q 15.09375 0.046875 10.984375 1.515625 
z
M 30.609375 32.421875 
Q 37.25 32.421875 41.125 36.953125 
Q 45.015625 41.5 45.015625 49.421875 
Q 45.015625 57.28125 41.125 61.84375 
Q 37.25 66.40625 30.609375 66.40625 
Q 23.96875 66.40625 20.09375 61.84375 
Q 16.21875 57.28125 16.21875 49.421875 
Q 16.21875 41.5 20.09375 36.953125 
Q 23.96875 32.421875 30.609375 32.421875 
z
" id="DejaVuSans-57"/>
      </defs>
      <g transform="translate(27.240625 168.44281)scale(0.1 -0.1)">
       <use xlink:href="#DejaVuSans-57"/>
       <use x="63.623047" xlink:href="#DejaVuSans-48"/>
      </g>
     </g>
    </g>
    <g id="ytick_4">
     <g id="line2d_21">
      <path clip-path="url(#p9e6d24c88d)" d="M 46.965625 119.891198 
L 404.085625 119.891198 
" style="fill:none;stroke:#b0b0b0;stroke-dasharray:2.96,1.28;stroke-dashoffset:0;stroke-width:0.8;"/>
     </g>
     <g id="line2d_22">
      <g>
       <use style="stroke:#000000;stroke-width:0.8;" x="46.965625" xlink:href="#m79d700e99b" y="119.891198"/>
      </g>
     </g>
     <g id="text_12">
      <!-- 100 -->
      <g transform="translate(20.878125 123.690416)scale(0.1 -0.1)">
       <use xlink:href="#DejaVuSans-49"/>
       <use x="63.623047" xlink:href="#DejaVuSans-48"/>
       <use x="127.246094" xlink:href="#DejaVuSans-48"/>
      </g>
     </g>
    </g>
    <g id="ytick_5">
     <g id="line2d_23">
      <path clip-path="url(#p9e6d24c88d)" d="M 46.965625 75.138804 
L 404.085625 75.138804 
" style="fill:none;stroke:#b0b0b0;stroke-dasharray:2.96,1.28;stroke-dashoffset:0;stroke-width:0.8;"/>
     </g>
     <g id="line2d_24">
      <g>
       <use style="stroke:#000000;stroke-width:0.8;" x="46.965625" xlink:href="#m79d700e99b" y="75.138804"/>
      </g>
     </g>
     <g id="text_13">
      <!-- 110 -->
      <g transform="translate(20.878125 78.938022)scale(0.1 -0.1)">
       <use xlink:href="#DejaVuSans-49"/>
       <use x="63.623047" xlink:href="#DejaVuSans-49"/>
       <use x="127.246094" xlink:href="#DejaVuSans-48"/>
      </g>
     </g>
    </g>
    <g id="ytick_6">
     <g id="line2d_25">
      <path clip-path="url(#p9e6d24c88d)" d="M 46.965625 30.38641 
L 404.085625 30.38641 
" style="fill:none;stroke:#b0b0b0;stroke-dasharray:2.96,1.28;stroke-dashoffset:0;stroke-width:0.8;"/>
     </g>
     <g id="line2d_26">
      <g>
       <use style="stroke:#000000;stroke-width:0.8;" x="46.965625" xlink:href="#m79d700e99b" y="30.38641"/>
      </g>
     </g>
     <g id="text_14">
      <!-- 120 -->
      <g transform="translate(20.878125 34.185628)scale(0.1 -0.1)">
       <use xlink:href="#DejaVuSans-49"/>
       <use x="63.623047" xlink:href="#DejaVuSans-50"/>
       <use x="127.246094" xlink:href="#DejaVuSans-48"/>
      </g>
     </g>
    </g>
    <g id="text_15">
     <!-- Price $ -->
     <defs>
      <path d="M 19.671875 64.796875 
L 19.671875 37.40625 
L 32.078125 37.40625 
Q 38.96875 37.40625 42.71875 40.96875 
Q 46.484375 44.53125 46.484375 51.125 
Q 46.484375 57.671875 42.71875 61.234375 
Q 38.96875 64.796875 32.078125 64.796875 
z
M 9.8125 72.90625 
L 32.078125 72.90625 
Q 44.34375 72.90625 50.609375 67.359375 
Q 56.890625 61.8125 56.890625 51.125 
Q 56.890625 40.328125 50.609375 34.8125 
Q 44.34375 29.296875 32.078125 29.296875 
L 19.671875 29.296875 
L 19.671875 0 
L 9.8125 0 
z
" id="DejaVuSans-80"/>
      <path d="M 41.109375 46.296875 
Q 39.59375 47.171875 37.8125 47.578125 
Q 36.03125 48 33.890625 48 
Q 26.265625 48 22.1875 43.046875 
Q 18.109375 38.09375 18.109375 28.8125 
L 18.109375 0 
L 9.078125 0 
L 9.078125 54.6875 
L 18.109375 54.6875 
L 18.109375 46.1875 
Q 20.953125 51.171875 25.484375 53.578125 
Q 30.03125 56 36.53125 56 
Q 37.453125 56 38.578125 55.875 
Q 39.703125 55.765625 41.0625 55.515625 
z
" id="DejaVuSans-114"/>
      <path d="M 9.421875 54.6875 
L 18.40625 54.6875 
L 18.40625 0 
L 9.421875 0 
z
M 9.421875 75.984375 
L 18.40625 75.984375 
L 18.40625 64.59375 
L 9.421875 64.59375 
z
" id="DejaVuSans-105"/>
      <path d="M 48.78125 52.59375 
L 48.78125 44.1875 
Q 44.96875 46.296875 41.140625 47.34375 
Q 37.3125 48.390625 33.40625 48.390625 
Q 24.65625 48.390625 19.8125 42.84375 
Q 14.984375 37.3125 14.984375 27.296875 
Q 14.984375 17.28125 19.8125 11.734375 
Q 24.65625 6.203125 33.40625 6.203125 
Q 37.3125 6.203125 41.140625 7.25 
Q 44.96875 8.296875 48.78125 10.40625 
L 48.78125 2.09375 
Q 45.015625 0.34375 40.984375 -0.53125 
Q 36.96875 -1.421875 32.421875 -1.421875 
Q 20.0625 -1.421875 12.78125 6.34375 
Q 5.515625 14.109375 5.515625 27.296875 
Q 5.515625 40.671875 12.859375 48.328125 
Q 20.21875 56 33.015625 56 
Q 37.15625 56 41.109375 55.140625 
Q 45.0625 54.296875 48.78125 52.59375 
z
" id="DejaVuSans-99"/>
      <path d="M 56.203125 29.59375 
L 56.203125 25.203125 
L 14.890625 25.203125 
Q 15.484375 15.921875 20.484375 11.0625 
Q 25.484375 6.203125 34.421875 6.203125 
Q 39.59375 6.203125 44.453125 7.46875 
Q 49.3125 8.734375 54.109375 11.28125 
L 54.109375 2.78125 
Q 49.265625 0.734375 44.1875 -0.34375 
Q 39.109375 -1.421875 33.890625 -1.421875 
Q 20.796875 -1.421875 13.15625 6.1875 
Q 5.515625 13.8125 5.515625 26.8125 
Q 5.515625 40.234375 12.765625 48.109375 
Q 20.015625 56 32.328125 56 
Q 43.359375 56 49.78125 48.890625 
Q 56.203125 41.796875 56.203125 29.59375 
z
M 47.21875 32.234375 
Q 47.125 39.59375 43.09375 43.984375 
Q 39.0625 48.390625 32.421875 48.390625 
Q 24.90625 48.390625 20.390625 44.140625 
Q 15.875 39.890625 15.1875 32.171875 
z
" id="DejaVuSans-101"/>
      <path id="DejaVuSans-32"/>
      <path d="M 33.796875 -14.703125 
L 28.90625 -14.703125 
L 28.859375 0 
Q 23.734375 0.09375 18.609375 1.1875 
Q 13.484375 2.296875 8.296875 4.5 
L 8.296875 13.28125 
Q 13.28125 10.15625 18.375 8.5625 
Q 23.484375 6.984375 28.90625 6.9375 
L 28.90625 29.203125 
Q 18.109375 30.953125 13.203125 35.15625 
Q 8.296875 39.359375 8.296875 46.6875 
Q 8.296875 54.640625 13.625 59.21875 
Q 18.953125 63.8125 28.90625 64.5 
L 28.90625 75.984375 
L 33.796875 75.984375 
L 33.796875 64.65625 
Q 38.328125 64.453125 42.578125 63.6875 
Q 46.828125 62.9375 50.875 61.625 
L 50.875 53.078125 
Q 46.828125 55.125 42.546875 56.25 
Q 38.28125 57.375 33.796875 57.5625 
L 33.796875 36.71875 
Q 44.875 35.015625 50.09375 30.609375 
Q 55.328125 26.21875 55.328125 18.609375 
Q 55.328125 10.359375 49.78125 5.59375 
Q 44.234375 0.828125 33.796875 0.09375 
z
M 28.90625 37.59375 
L 28.90625 57.625 
Q 23.25 56.984375 20.265625 54.390625 
Q 17.28125 51.8125 17.28125 47.515625 
Q 17.28125 43.3125 20.03125 40.96875 
Q 22.796875 38.625 28.90625 37.59375 
z
M 33.796875 28.21875 
L 33.796875 7.078125 
Q 39.984375 7.90625 43.140625 10.59375 
Q 46.296875 13.28125 46.296875 17.671875 
Q 46.296875 21.96875 43.28125 24.5 
Q 40.28125 27.046875 33.796875 28.21875 
z
" id="DejaVuSans-36"/>
     </defs>
     <g transform="translate(14.798438 172.342094)rotate(-90)scale(0.1 -0.1)">
      <use xlink:href="#DejaVuSans-80"/>
      <use x="58.552734" xlink:href="#DejaVuSans-114"/>
      <use x="99.666016" xlink:href="#DejaVuSans-105"/>
      <use x="127.449219" xlink:href="#DejaVuSans-99"/>
      <use x="182.429688" xlink:href="#DejaVuSans-101"/>
      <use x="243.953125" xlink:href="#DejaVuSans-32"/>
      <use x="275.740234" xlink:href="#DejaVuSans-36"/>
     </g>
    </g>
   </g>
   <g id="line2d_27">
    <path clip-path="url(#p9e6d24c88d)" d="M 63.198352 260.969815 
L 63.443005 259.644779 
L 63.687658 256.997814 
L 63.932311 257.611985 
L 64.421617 257.000887 
L 64.66627 257.09584 
L 64.910923 253.723124 
L 65.155576 248.08025 
L 65.644882 254.39889 
L 66.134188 256.301665 
L 66.378841 256.488873 
L 66.623494 257.043566 
L 66.868147 255.33732 
L 67.1128 256.062115 
L 67.357453 259.815701 
L 67.602106 259.650344 
L 67.846759 258.774874 
L 68.091412 258.898098 
L 68.336066 258.434328 
L 68.580719 261.20834 
L 68.825372 262.622695 
L 69.314678 258.984958 
L 69.559331 257.925831 
L 69.803984 257.502009 
L 70.048637 255.057481 
L 70.29329 253.800151 
L 70.537943 255.16534 
L 71.027249 255.952925 
L 71.271902 255.730959 
L 71.516555 255.789651 
L 71.761208 256.55675 
L 72.005861 256.543571 
L 72.495167 257.223912 
L 73.229126 256.430693 
L 73.473779 254.296152 
L 73.718432 248.227271 
L 73.963085 249.217907 
L 74.207738 252.36572 
L 74.697044 255.065027 
L 74.941697 253.788952 
L 75.18635 251.725498 
L 75.431003 254.206355 
L 75.920309 261.034721 
L 76.164962 257.857374 
L 76.409615 257.576237 
L 76.654268 257.628169 
L 76.898921 260.437827 
L 77.388227 257.860242 
L 77.877533 256.543161 
L 78.122186 259.532959 
L 78.366839 260.794864 
L 78.611492 255.754791 
L 79.100798 260.828017 
L 79.345451 261.439013 
L 79.834757 258.696993 
L 80.324063 256.78814 
L 80.813369 260.564157 
L 81.058022 258.8968 
L 81.302675 260.430452 
L 81.547328 260.280392 
L 81.791981 259.47891 
L 82.036634 259.880846 
L 82.281287 256.689909 
L 82.52594 255.669603 
L 82.770593 255.517836 
L 83.015246 254.571245 
L 83.259899 251.178863 
L 83.504552 252.06222 
L 83.749205 252.395801 
L 83.993858 254.509241 
L 84.483164 255.351455 
L 84.727817 255.087698 
L 84.97247 255.993351 
L 85.217123 253.239586 
L 85.461776 253.616494 
L 85.706429 254.349348 
L 85.951082 254.11987 
L 86.195735 255.022894 
L 86.440388 253.73323 
L 86.685041 254.142883 
L 86.929694 254.922785 
L 87.174347 255.02682 
L 87.419 253.942939 
L 87.663653 251.437021 
L 87.908306 252.456269 
L 88.642265 249.248294 
L 88.886918 249.217429 
L 89.131571 248.739012 
L 89.376224 247.29864 
L 89.620877 248.241543 
L 89.86553 245.618445 
L 90.110183 244.840625 
L 90.599489 246.369633 
L 90.844143 245.248399 
L 91.088796 246.827632 
L 91.333449 249.645689 
L 91.578102 250.713455 
L 91.822755 247.067284 
L 92.067408 245.749897 
L 92.312061 247.808605 
L 92.556714 247.160496 
L 92.801367 245.84543 
L 93.04602 248.238982 
L 93.290673 246.041515 
L 93.779979 249.418089 
L 94.024632 249.959569 
L 94.269285 247.200853 
L 94.513938 247.341695 
L 94.758591 247.308166 
L 95.003244 248.008002 
L 95.247897 249.697416 
L 95.49255 250.591665 
L 95.981856 253.529292 
L 96.226509 253.55869 
L 96.715815 247.833837 
L 96.960468 248.666287 
L 97.449774 246.343035 
L 97.694427 249.553707 
L 97.93908 250.480836 
L 98.183733 250.673882 
L 98.428386 252.063483 
L 98.673039 252.785411 
L 98.917692 249.652757 
L 99.406998 253.377218 
L 99.651651 254.530342 
L 99.896304 252.651637 
L 100.140957 252.375315 
L 100.38561 253.303844 
L 100.630263 252.065703 
L 100.874916 253.519698 
L 101.119569 251.689409 
L 101.853528 252.67004 
L 102.098181 252.307164 
L 102.342834 251.297921 
L 102.83214 246.938939 
L 103.076793 248.959544 
L 103.321446 248.460436 
L 103.566099 250.561312 
L 103.810752 250.51416 
L 104.055405 248.542927 
L 104.300058 248.736724 
L 104.544711 247.03758 
L 104.789364 247.370887 
L 105.034017 249.392926 
L 105.27867 250.465471 
L 105.523323 249.394906 
L 105.767976 250.065413 
L 106.257282 245.698955 
L 106.501935 246.32231 
L 106.746588 245.815691 
L 106.991241 248.466275 
L 107.235894 248.144098 
L 107.480547 250.934669 
L 107.7252 249.077236 
L 107.969853 252.090764 
L 108.214506 251.602206 
L 108.459159 251.810925 
L 108.948465 249.907398 
L 109.193118 250.721376 
L 109.437771 249.691953 
L 109.682424 252.411711 
L 109.927077 251.692925 
L 110.17173 252.61384 
L 110.416383 251.810481 
L 110.661036 254.238962 
L 110.905689 254.832408 
L 111.150342 256.389414 
L 111.394995 254.640283 
L 111.639648 254.72728 
L 111.884301 254.112973 
L 112.128954 250.555917 
L 112.373607 251.29833 
L 112.61826 251.276069 
L 112.862913 251.840698 
L 113.107566 250.418388 
L 114.086179 255.16575 
L 114.330832 253.065113 
L 114.575485 249.866972 
L 115.309444 255.492911 
L 115.554097 253.174235 
L 116.043403 255.745709 
L 116.532709 257.599079 
L 116.777362 257.872363 
L 117.022015 257.587812 
L 117.266668 258.107235 
L 117.511321 258.293692 
L 117.755974 257.764572 
L 118.24528 258.109113 
L 118.489933 258.018052 
L 118.734586 257.476026 
L 119.223892 252.431958 
L 119.468545 252.530906 
L 119.713198 251.314344 
L 119.957851 253.056407 
L 120.202504 252.505879 
L 120.447157 250.304519 
L 120.69181 251.477617 
L 121.181116 252.347146 
L 121.425769 250.024407 
L 121.670422 251.068785 
L 121.915075 250.795535 
L 122.404381 252.447869 
L 122.893687 253.239381 
L 123.13834 254.164734 
L 123.382993 254.076713 
L 123.627646 254.589751 
L 123.872299 253.452743 
L 124.116952 254.291953 
L 124.361605 254.423678 
L 124.606258 255.347495 
L 124.850911 255.112623 
L 125.095564 254.59057 
L 125.340217 254.922888 
L 125.58487 254.690713 
L 125.829523 255.106886 
L 126.074176 255.139937 
L 126.318829 254.737114 
L 126.563482 254.617953 
L 126.808135 254.908445 
L 127.052788 255.406392 
L 127.297441 254.864093 
L 127.542094 253.704038 
L 127.786747 247.706755 
L 128.0314 249.299134 
L 128.276053 249.82699 
L 128.520706 247.407864 
L 128.765359 248.714873 
L 129.010012 248.641362 
L 129.499318 251.418652 
L 129.743971 251.25391 
L 129.988624 252.01756 
L 130.233277 251.812495 
L 130.47793 251.436816 
L 130.722583 252.545656 
L 130.967236 251.82844 
L 131.211889 251.502303 
L 131.456542 252.358209 
L 131.701195 252.083252 
L 131.945848 250.28755 
L 132.190501 249.956189 
L 132.435154 250.217078 
L 132.679807 252.121425 
L 132.92446 252.571605 
L 133.169113 251.158821 
L 133.658419 251.954088 
L 133.903072 251.720206 
L 134.147725 252.242497 
L 134.392378 253.467049 
L 134.637031 253.216334 
L 134.881684 253.50727 
L 135.126337 254.063738 
L 135.37099 252.003903 
L 135.615643 251.225844 
L 135.860297 251.454263 
L 136.10495 251.507322 
L 136.349603 251.10624 
L 136.594256 250.293252 
L 136.838909 248.981327 
L 137.083562 250.432796 
L 137.328215 248.956778 
L 137.572868 248.195552 
L 138.062174 250.298749 
L 138.306827 249.446975 
L 138.55148 248.115178 
L 138.796133 249.26482 
L 139.040786 249.566135 
L 139.285439 248.275584 
L 139.530092 250.08706 
L 139.774745 248.545214 
L 140.019398 249.16239 
L 140.264051 250.70625 
L 140.508704 250.60225 
L 141.242663 253.581805 
L 141.487316 253.954206 
L 141.731969 254.985507 
L 142.221275 252.167177 
L 142.465928 253.561797 
L 142.710581 253.307702 
L 142.955234 253.282367 
L 143.199887 253.094852 
L 143.44454 253.42017 
L 144.178499 249.640533 
L 144.667805 246.429862 
L 144.912458 247.700951 
L 145.157111 247.789075 
L 145.401764 250.00993 
L 145.646417 251.176302 
L 145.89107 250.64609 
L 146.135723 251.52214 
L 146.380376 250.958433 
L 146.625029 249.030869 
L 146.869682 249.42065 
L 147.114335 248.092985 
L 148.092947 252.233586 
L 148.3376 252.878759 
L 148.582253 254.309127 
L 149.071559 250.046532 
L 149.316212 250.658723 
L 149.560865 250.360139 
L 149.805518 251.727478 
L 150.050171 251.551094 
L 150.294824 252.140101 
L 150.539477 252.130882 
L 150.78413 250.929616 
L 151.028783 252.328197 
L 151.273436 250.769586 
L 151.518089 250.965876 
L 151.762742 253.083311 
L 152.007395 251.953303 
L 152.496701 253.59454 
L 152.741354 254.142678 
L 152.986007 255.940292 
L 153.475313 252.582189 
L 153.719966 250.916437 
L 153.964619 250.904179 
L 154.209272 251.142705 
L 154.453925 248.938204 
L 154.698578 250.813563 
L 154.943231 249.858539 
L 155.67719 251.946781 
L 155.921843 254.062441 
L 156.166496 252.770968 
L 156.411149 252.170489 
L 156.655802 254.380111 
L 156.900455 251.940328 
L 157.145108 254.568958 
L 157.389761 254.105666 
L 157.634414 252.492973 
L 157.879067 251.675034 
L 158.12372 252.112547 
L 158.368374 249.036605 
L 158.613027 247.943574 
L 158.85768 247.853231 
L 159.346986 252.596393 
L 159.591639 252.535754 
L 159.836292 252.871759 
L 160.814904 248.489219 
L 161.30421 246.811653 
L 161.548863 247.326159 
L 161.793516 248.121563 
L 162.038169 247.257224 
L 162.527475 253.203906 
L 162.772128 252.873227 
L 163.016781 251.947498 
L 163.261434 251.890445 
L 163.75074 255.296041 
L 163.995393 252.932876 
L 164.240046 251.91175 
L 164.729352 249.230813 
L 164.974005 248.57526 
L 165.218658 249.948233 
L 165.463311 249.230335 
L 165.707964 252.734742 
L 165.952617 251.020711 
L 166.441923 255.88218 
L 166.686576 253.479955 
L 166.931229 252.266602 
L 167.420535 251.357979 
L 167.665188 250.581012 
L 167.909841 251.067794 
L 168.154494 249.984391 
L 168.399147 251.285595 
L 168.6438 249.437414 
L 168.888453 249.670477 
L 169.133106 248.888662 
L 169.622412 250.67279 
L 169.867065 248.942097 
L 170.111718 249.834468 
L 170.356371 250.297657 
L 170.845677 247.234587 
L 171.09033 244.123648 
L 171.334983 248.171993 
L 171.579636 242.826507 
L 172.068942 244.310549 
L 172.313595 243.46632 
L 172.558248 243.190988 
L 172.802901 249.041181 
L 173.292207 245.874179 
L 173.53686 251.058712 
L 173.781513 253.77789 
L 174.515472 243.177501 
L 175.004778 240.437599 
L 175.249431 240.659633 
L 175.494084 241.74208 
L 175.738737 240.54795 
L 175.98339 240.382389 
L 176.228043 238.226372 
L 176.472696 239.495993 
L 176.717349 241.779979 
L 176.962002 240.954222 
L 177.206655 240.640717 
L 177.451308 241.335569 
L 177.695961 240.566763 
L 177.940614 242.567154 
L 178.185267 241.629304 
L 178.674573 250.629735 
L 179.163879 255.562905 
L 179.408532 251.810925 
L 179.653185 253.292815 
L 179.897838 255.866303 
L 180.142491 256.185783 
L 180.387144 253.797386 
L 180.631798 249.950453 
L 181.121104 249.00632 
L 181.61041 255.618354 
L 181.855063 251.817958 
L 182.344369 257.190963 
L 182.833675 259.865277 
L 183.322981 256.984362 
L 183.567634 259.334006 
L 183.812287 258.367407 
L 184.05694 253.335904 
L 184.301593 252.477198 
L 184.790899 247.740967 
L 185.280205 245.867486 
L 185.769511 248.07506 
L 186.014164 248.252981 
L 186.50347 245.813984 
L 186.748123 245.919419 
L 186.992776 244.973989 
L 187.237429 245.285854 
L 187.482082 246.446353 
L 187.971388 247.202936 
L 188.216041 246.251497 
L 188.460694 247.362556 
L 188.705347 245.176391 
L 189.439306 244.202178 
L 189.928612 246.050802 
L 190.173265 245.462205 
L 190.417918 246.013415 
L 190.662571 246.242107 
L 190.907224 248.503867 
L 191.151877 249.257786 
L 191.39653 250.392063 
L 191.641183 248.23929 
L 191.885836 249.076519 
L 192.130489 249.260893 
L 192.375142 247.673841 
L 192.619795 251.028256 
L 192.864448 249.666038 
L 193.353754 251.342444 
L 193.598407 250.146197 
L 193.84306 249.768537 
L 194.087713 248.717911 
L 194.332366 249.280833 
L 194.577019 250.291682 
L 194.821672 249.89398 
L 195.066325 248.599605 
L 195.310978 249.277521 
L 195.555631 250.886186 
L 196.044937 246.996471 
L 196.28959 249.062896 
L 196.534243 249.381146 
L 196.778896 252.040641 
L 197.023549 252.010629 
L 197.268202 250.944673 
L 197.512855 247.829159 
L 197.757508 248.515339 
L 198.002161 249.904257 
L 198.246814 253.971039 
L 198.73612 249.275302 
L 198.980773 249.631998 
L 199.470079 252.293234 
L 199.714732 250.603103 
L 199.959385 249.873323 
L 200.204038 247.680192 
L 200.693344 249.150439 
L 200.937997 247.409435 
L 201.427303 250.887791 
L 201.916609 252.925023 
L 202.161262 252.274865 
L 202.405915 253.264783 
L 202.650568 250.515901 
L 203.384528 253.804624 
L 203.629181 252.346054 
L 203.873834 252.468287 
L 204.118487 253.691473 
L 204.36314 253.388246 
L 204.607793 251.613986 
L 204.852446 252.121356 
L 205.097099 250.967276 
L 205.341752 252.03931 
L 205.586405 253.758838 
L 205.831058 253.306234 
L 206.320364 256.700631 
L 206.565017 256.040605 
L 206.80967 257.351779 
L 207.054323 257.009799 
L 207.298976 258.327699 
L 207.543629 258.771426 
L 207.788282 256.568325 
L 208.032935 258.346716 
L 208.277588 259.246428 
L 208.522241 259.059698 
L 208.766894 259.645974 
L 209.011547 258.250876 
L 209.2562 256.047195 
L 209.990159 258.621673 
L 210.234812 258.590363 
L 210.479465 251.084012 
L 210.968771 253.596145 
L 211.213424 253.194243 
L 211.458077 254.812878 
L 211.947383 261.828418 
L 212.436689 256.508267 
L 212.681342 256.601342 
L 212.925995 254.628743 
L 213.170648 255.424966 
L 213.415301 252.254652 
L 213.659954 252.425096 
L 213.904607 252.372276 
L 214.14926 252.518034 
L 214.393913 256.971285 
L 214.638566 255.925166 
L 214.883219 256.009466 
L 215.127872 256.487405 
L 215.372525 256.645967 
L 215.617178 256.156351 
L 215.861831 256.378966 
L 216.106484 255.217033 
L 216.351137 255.936878 
L 216.59579 256.184793 
L 216.840443 256.274521 
L 217.329749 257.112058 
L 217.574402 256.739827 
L 218.063708 262.011392 
L 218.308361 260.795206 
L 218.553014 260.376198 
L 219.04232 258.759919 
L 219.286973 256.36285 
L 219.531626 257.179833 
L 219.776279 254.821823 
L 220.020932 257.024514 
L 220.265585 257.621853 
L 220.510238 256.30269 
L 220.999544 257.596006 
L 221.244197 257.849384 
L 221.48885 257.777171 
L 222.222809 255.684148 
L 222.467462 254.29984 
L 222.712115 254.628333 
L 222.956768 254.746332 
L 223.201421 253.043705 
L 223.690727 254.805366 
L 223.93538 253.807083 
L 224.180033 250.765557 
L 224.424686 255.483488 
L 224.669339 255.013812 
L 224.913992 254.299396 
L 225.158645 254.67009 
L 225.647952 251.74892 
L 225.892605 251.806281 
L 226.137258 251.064517 
L 226.381911 251.352448 
L 226.626564 250.54564 
L 226.871217 251.585818 
L 227.11587 251.665576 
L 227.605176 254.352591 
L 227.849829 252.688921 
L 228.094482 254.179962 
L 228.339135 253.531238 
L 228.583788 253.958816 
L 229.073094 256.699196 
L 229.317747 256.748704 
L 230.051706 263.270736 
L 230.785665 266.431593 
L 231.030318 265.484114 
L 231.274971 266.849746 
L 231.519624 265.618537 
L 231.764277 266.502679 
L 232.00893 266.627405 
L 232.253583 267.292074 
L 232.742889 264.557361 
L 233.232195 263.264078 
L 233.476848 264.542372 
L 233.966154 263.598308 
L 234.210807 263.650786 
L 234.45546 262.785252 
L 234.700113 260.552344 
L 234.944766 260.133814 
L 235.189419 256.997029 
L 235.434072 257.899677 
L 235.678725 257.058794 
L 236.168031 256.732452 
L 236.412684 257.591636 
L 236.657337 255.345412 
L 236.90199 256.818357 
L 237.391296 257.896673 
L 237.635949 256.895589 
L 237.880602 257.461413 
L 238.125255 256.24427 
L 238.369908 256.718385 
L 238.614561 256.559584 
L 238.859214 255.817205 
L 239.103867 256.740886 
L 239.34852 253.791991 
L 239.593173 255.489565 
L 239.837826 254.819638 
L 240.327132 256.379341 
L 240.571785 255.258859 
L 240.816438 254.87997 
L 241.061091 256.270083 
L 241.305744 256.908973 
L 241.550397 257.913164 
L 242.039703 253.891246 
L 242.529009 256.179534 
L 243.018315 257.117384 
L 243.262968 256.005813 
L 243.507621 256.214736 
L 243.752274 255.853363 
L 243.996927 256.903579 
L 244.24158 255.956749 
L 244.486233 256.457871 
L 244.730886 255.74646 
L 245.220192 258.001151 
L 245.464845 258.012316 
L 245.709498 258.785561 
L 245.954151 257.650772 
L 246.198804 258.195769 
L 246.443457 257.645104 
L 246.68811 256.746314 
L 246.932763 257.397053 
L 247.177416 256.448891 
L 247.422069 256.622579 
L 247.666722 260.100183 
L 247.911375 259.839806 
L 248.156029 259.944319 
L 248.400682 258.457955 
L 248.645335 259.522238 
L 248.889988 257.07812 
L 249.134641 256.968007 
L 249.379294 256.597279 
L 249.623947 255.355928 
L 249.8686 255.575709 
L 250.113253 256.614521 
L 250.357906 256.25506 
L 250.602559 257.429865 
L 250.847212 256.974529 
L 251.091865 256.87763 
L 251.336518 257.725375 
L 251.581171 257.17956 
L 251.825824 258.019896 
L 252.070477 258.446039 
L 252.31513 258.545499 
L 252.559783 256.627325 
L 253.049089 257.581359 
L 253.293742 257.385512 
L 253.538395 257.790521 
L 254.027701 255.708049 
L 254.272354 256.443429 
L 254.517007 253.882266 
L 254.76166 253.712608 
L 255.006313 253.379778 
L 255.250966 254.489711 
L 255.495619 253.957279 
L 255.984925 255.535898 
L 256.474231 254.330398 
L 256.963537 256.653171 
L 257.20819 255.502881 
L 257.452843 253.67587 
L 257.697496 255.111188 
L 258.186802 252.041119 
L 258.431455 256.321229 
L 258.676108 256.65481 
L 258.920761 254.605491 
L 259.165414 254.660223 
L 259.410067 256.752358 
L 259.65472 254.86662 
L 259.899373 256.517076 
L 260.144026 254.320531 
L 260.388679 253.226714 
L 260.633332 252.699608 
L 261.122638 251.000395 
L 261.367291 250.289394 
L 261.856597 255.132118 
L 262.10125 256.291286 
L 262.345903 255.642562 
L 262.835209 256.543195 
L 263.079862 258.471032 
L 263.324515 258.162035 
L 263.813821 258.373553 
L 264.058474 260.093491 
L 264.54778 257.440722 
L 264.792433 259.021765 
L 265.281739 260.103836 
L 265.526392 259.791049 
L 266.99431 256.075465 
L 267.238963 256.270356 
L 267.483616 257.343345 
L 267.728269 255.938687 
L 267.972922 256.679052 
L 268.217575 256.845808 
L 268.462228 256.655459 
L 268.706881 255.267087 
L 268.951534 254.546901 
L 269.196187 256.701587 
L 269.44084 257.646333 
L 269.685493 257.648553 
L 269.930146 255.705147 
L 270.174799 256.392452 
L 270.419452 254.696483 
L 270.664106 255.097565 
L 270.908759 253.845938 
L 271.153412 255.612686 
L 271.398065 255.760527 
L 271.642718 254.174534 
L 271.887371 256.946121 
L 272.132024 255.739222 
L 272.376677 255.746426 
L 272.865983 256.375756 
L 273.355289 255.44412 
L 273.599942 254.760912 
L 273.844595 255.147073 
L 274.089248 254.144692 
L 274.333901 256.205961 
L 274.578554 254.690337 
L 274.823207 256.474055 
L 275.06786 255.417762 
L 275.557166 252.339123 
L 275.801819 253.162592 
L 276.046472 252.197257 
L 276.535778 253.274685 
L 276.780431 253.258672 
L 277.025084 256.020836 
L 277.269737 256.642109 
L 277.759043 253.19257 
L 278.003696 253.563128 
L 278.248349 254.166817 
L 278.493002 252.073931 
L 278.737655 251.368734 
L 278.982308 254.663057 
L 279.471614 256.066827 
L 279.716267 254.617714 
L 280.205573 256.683934 
L 280.694879 254.015767 
L 280.939532 255.371566 
L 281.184185 255.090941 
L 281.428838 255.032522 
L 281.918144 252.146588 
L 282.162797 254.023552 
L 282.40745 252.627668 
L 282.652103 253.074059 
L 283.141409 254.396295 
L 283.386062 253.405352 
L 283.630715 254.714067 
L 283.875368 255.247625 
L 284.120021 254.525937 
L 284.364674 253.405147 
L 284.609327 254.047554 
L 284.85398 255.947189 
L 285.343286 255.820688 
L 285.587939 254.587976 
L 285.832592 254.865527 
L 286.077245 254.038028 
L 286.566551 255.61074 
L 286.811204 254.301137 
L 287.055857 255.309425 
L 287.30051 255.023713 
L 287.545163 257.065691 
L 287.789816 257.581393 
L 288.034469 259.104733 
L 288.279122 256.895862 
L 288.768428 256.55098 
L 289.013081 256.213712 
L 289.257734 256.391974 
L 289.502387 255.456924 
L 289.74704 256.189743 
L 289.991693 255.137035 
L 290.236346 257.44936 
L 290.480999 257.388107 
L 290.725652 259.064547 
L 291.704264 256.066144 
L 291.948917 256.923587 
L 292.19357 256.917987 
L 292.682876 255.205356 
L 292.92753 255.381775 
L 293.172183 254.833432 
L 293.416836 256.38617 
L 293.661489 256.872235 
L 293.906142 256.064369 
L 294.395448 257.554249 
L 294.640101 256.339838 
L 294.884754 256.728594 
L 295.129407 255.22253 
L 295.37406 257.446561 
L 295.618713 256.358173 
L 295.863366 257.398145 
L 296.108019 256.164238 
L 296.352672 255.655604 
L 296.597325 256.435337 
L 296.841978 257.636329 
L 297.086631 256.055048 
L 297.82059 257.925831 
L 298.065243 257.672692 
L 298.309896 257.701885 
L 298.799202 254.175694 
L 299.043855 254.048408 
L 299.288508 254.992404 
L 299.533161 255.363303 
L 299.777814 254.381169 
L 300.26712 253.7699 
L 300.756426 255.99615 
L 301.001079 256.193363 
L 301.245732 256.855641 
L 301.490385 257.013725 
L 301.735038 258.889323 
L 301.979691 257.477802 
L 302.224344 259.307989 
L 302.468997 257.308485 
L 302.71365 256.466748 
L 302.958303 256.608956 
L 303.202956 256.927786 
L 303.447609 258.537032 
L 303.692262 258.464374 
L 303.936915 257.006316 
L 304.181568 257.514882 
L 304.426221 256.23512 
L 304.670874 256.641187 
L 304.915527 258.629526 
L 305.404833 259.515341 
L 305.649486 261.028712 
L 305.894139 261.07402 
L 306.138792 260.470741 
L 306.383445 260.681064 
L 306.628098 260.39624 
L 306.872751 259.063352 
L 307.117404 259.951694 
L 307.362057 259.550885 
L 307.851363 258.089856 
L 308.096016 258.622185 
L 308.340669 260.167889 
L 308.585322 260.687551 
L 308.829975 259.274801 
L 309.074628 259.668713 
L 309.319281 259.448933 
L 309.563934 261.131552 
L 309.808587 259.481813 
L 310.05324 260.84147 
L 310.297893 260.203877 
L 310.787199 260.524927 
L 311.031852 260.320818 
L 311.276505 259.479764 
L 311.521158 259.830655 
L 311.765811 259.823758 
L 312.010464 258.675619 
L 312.49977 261.038101 
L 312.744423 259.738707 
L 312.989076 261.588083 
L 313.233729 260.049856 
L 313.478382 260.794864 
L 313.723035 259.055806 
L 313.967688 259.756394 
L 314.212341 260.040159 
L 314.456994 258.667357 
L 314.9463 259.774694 
L 315.190953 259.699511 
L 315.435607 258.117205 
L 315.68026 258.366178 
L 315.924913 259.266948 
L 316.169566 258.206592 
L 316.414219 258.046425 
L 316.658872 257.395892 
L 316.903525 255.862923 
L 317.148178 258.289048 
L 317.392831 257.20865 
L 317.637484 258.406126 
L 317.882137 257.223502 
L 318.12679 258.652061 
L 318.371443 259.226762 
L 318.616096 257.990225 
L 318.860749 257.606727 
L 319.105402 258.38383 
L 319.350055 259.979998 
L 319.839361 258.877065 
L 320.084014 257.638446 
L 320.328667 258.492884 
L 320.57332 258.300759 
L 320.817973 259.530535 
L 321.062626 259.656217 
L 321.307279 257.471315 
L 321.551932 258.468915 
L 321.796585 257.234735 
L 322.041238 258.181292 
L 322.285891 258.207685 
L 322.530544 255.812835 
L 322.775197 254.786997 
L 323.01985 258.177297 
L 323.264503 257.836683 
L 323.509156 256.931406 
L 323.753809 259.121259 
L 323.998462 258.010814 
L 324.243115 259.988637 
L 324.487768 259.013263 
L 324.732421 257.194173 
L 324.977074 257.594606 
L 325.221727 256.882683 
L 325.46638 255.730617 
L 325.711033 255.531596 
L 325.955686 257.053331 
L 326.200339 256.495258 
L 326.689645 257.539499 
L 326.934298 259.681722 
L 327.178951 258.841317 
L 327.423604 258.505381 
L 327.668257 257.042474 
L 328.157563 259.287332 
L 328.402216 260.376437 
L 328.646869 260.950524 
L 329.136175 258.59388 
L 329.380828 260.113567 
L 329.625481 260.027526 
L 329.870134 260.519088 
L 330.114787 259.958625 
L 330.35944 258.398853 
L 330.604093 258.505824 
L 330.848746 257.634315 
L 331.093399 257.276629 
L 331.338052 255.4573 
L 331.582705 255.60077 
L 331.827358 256.256152 
L 332.316664 262.094326 
L 332.80597 266.477959 
L 333.050623 268.015503 
L 333.295276 267.121596 
L 333.784582 269.420196 
L 334.273888 270.413016 
L 334.518541 270.706308 
L 334.763194 268.508875 
L 335.007847 269.378063 
L 335.2525 269.471752 
L 335.497153 270.565091 
L 335.741806 271.023363 
L 335.986459 269.15456 
L 336.720418 261.075488 
L 337.209724 260.551763 
L 337.454377 259.737034 
L 337.69903 260.513864 
L 338.43299 256.568359 
L 338.677643 257.12056 
L 338.922296 255.469899 
L 339.166949 254.646839 
L 339.656255 258.818236 
L 339.900908 259.913692 
L 340.145561 259.83885 
L 340.390214 259.433636 
L 340.634867 260.676728 
L 340.87952 259.832124 
L 341.124173 259.433807 
L 341.368826 258.796214 
L 341.613479 259.131604 
L 341.858132 257.257543 
L 342.347438 256.740408 
L 342.592091 256.015612 
L 342.836744 256.906276 
L 343.081397 256.911398 
L 343.32605 259.139218 
L 343.570703 258.547855 
L 344.060009 260.883398 
L 344.304662 259.112757 
L 344.549315 259.366237 
L 344.793968 260.764203 
L 345.038621 260.2414 
L 345.283274 260.330651 
L 345.527927 260.762633 
L 345.77258 262.344563 
L 346.261886 262.170705 
L 346.506539 263.945887 
L 346.995845 260.336728 
L 347.240498 261.944301 
L 347.485151 262.785115 
L 347.729804 263.041395 
L 347.974457 263.851686 
L 348.21911 262.402163 
L 348.463763 263.509637 
L 348.708416 263.993278 
L 348.953069 263.715454 
L 349.442375 262.460241 
L 349.687028 261.729266 
L 349.931681 262.943233 
L 350.420987 262.865489 
L 350.66564 263.19405 
L 350.910293 262.320663 
L 351.154946 264.818831 
L 351.644252 263.690939 
L 351.888905 263.926972 
L 352.133558 262.531703 
L 352.622864 264.677784 
L 352.867517 262.923225 
L 353.11217 263.808187 
L 353.356823 263.612511 
L 353.601476 264.147435 
L 353.846129 262.716009 
L 354.090782 263.31642 
L 354.335435 264.270317 
L 354.580088 262.749947 
L 355.069394 262.068343 
L 355.314047 261.321696 
L 355.5587 262.113105 
L 355.803353 262.1466 
L 356.048006 262.588313 
L 356.292659 264.261133 
L 356.537312 264.536533 
L 356.781965 264.160205 
L 357.271271 264.287457 
L 357.515924 264.313577 
L 357.760577 265.140086 
L 358.00523 264.664946 
L 358.249883 263.19446 
L 358.494536 263.365723 
L 358.739189 260.937378 
L 358.983842 262.151346 
L 359.228495 262.323633 
L 359.473148 262.078586 
L 359.717801 262.966929 
L 359.962454 263.05017 
L 360.207107 260.75816 
L 360.451761 261.73507 
L 360.696414 262.179412 
L 360.941067 263.204771 
L 361.18572 263.309523 
L 361.430373 262.970753 
L 361.675026 264.060267 
L 361.919679 264.162493 
L 362.408985 266.736356 
L 362.653638 266.695179 
L 362.898291 264.523183 
L 363.387597 267.800707 
L 363.63225 267.480477 
L 363.876903 265.876558 
L 364.366209 266.911853 
L 364.610862 268.362639 
L 365.100168 265.983393 
L 365.344821 266.469219 
L 365.589474 266.46396 
L 365.834127 265.8376 
L 366.07878 265.977691 
L 366.323433 265.237497 
L 366.568086 265.949488 
L 366.812739 265.013687 
L 367.057392 265.821792 
L 367.302045 264.466095 
L 367.546698 262.474615 
L 367.791351 262.345314 
L 368.036004 263.315908 
L 368.280657 263.277736 
L 368.769963 261.30302 
L 369.259269 264.274039 
L 369.503922 263.763766 
L 369.748575 265.711953 
L 369.993228 266.192009 
L 370.237881 266.953371 
L 370.482534 267.337245 
L 370.727187 265.006551 
L 370.97184 263.936942 
L 371.705799 268.84686 
L 371.950452 270.994512 
L 372.439758 268.359464 
L 372.684411 270.981196 
L 373.173717 273.600778 
L 373.41837 274.331446 
L 373.663023 274.59056 
L 373.907676 270.766127 
L 374.152329 270.673086 
L 374.396982 270.051643 
L 374.641635 268.369775 
L 374.886288 269.674666 
L 375.130941 271.597211 
L 375.620247 270.871698 
L 375.8649 269.4302 
L 376.109553 268.949085 
L 376.354206 271.001853 
L 376.598859 269.680709 
L 377.088165 270.883717 
L 377.577471 268.557734 
L 377.822124 270.76203 
L 378.066777 270.991371 
L 378.31143 270.75882 
L 378.800736 274.020844 
L 379.290042 275.429838 
L 379.534695 275.416215 
L 379.779348 275.681065 
L 380.024001 276.334125 
L 380.268654 274.456684 
L 380.513307 274.526234 
L 380.75796 273.72885 
L 381.002613 272.048211 
L 381.247266 272.516214 
L 381.491919 271.530665 
L 381.736572 272.33778 
L 382.225878 271.356193 
L 382.470531 268.931263 
L 382.715184 270.068681 
L 382.959838 269.308001 
L 383.204491 267.264144 
L 383.693797 268.228114 
L 383.93845 267.819008 
L 384.183103 265.638818 
L 384.427756 265.607816 
L 384.672409 264.266903 
L 384.917062 263.612443 
L 385.161715 264.088163 
L 385.406368 265.452805 
L 385.651021 264.943932 
L 385.895674 265.445703 
L 386.140327 263.71897 
L 386.38498 262.813215 
L 386.629633 263.631768 
L 386.874286 262.476391 
L 387.363592 267.104558 
L 387.852898 270.129934 
L 387.852898 270.129934 
" style="fill:none;stroke:#1f77b4;stroke-linecap:square;stroke-width:1.5;"/>
   </g>
   <g id="line2d_28">
    <path clip-path="url(#p9e6d24c88d)" d="M 63.198352 244.034339 
L 63.443005 241.841471 
L 63.687658 241.930976 
L 63.932311 243.407805 
L 64.176964 246.092949 
L 64.421617 241.304443 
L 64.66627 243.049786 
L 64.910923 243.900081 
L 65.155576 242.647014 
L 65.400229 244.571367 
L 65.644882 244.61612 
L 65.889535 245.242653 
L 66.134188 244.123843 
L 66.378841 242.423252 
L 66.623494 238.127023 
L 66.868147 238.977318 
L 67.1128 239.245832 
L 67.357453 240.677909 
L 67.602106 241.214938 
L 67.846759 242.244243 
L 68.091412 240.454147 
L 68.336066 239.961871 
L 68.580719 240.185633 
L 68.825372 241.707214 
L 69.070025 244.392358 
L 69.314678 243.273548 
L 69.559331 243.049786 
L 69.803984 247.256511 
L 70.048637 244.526615 
L 70.29329 244.750377 
L 70.782596 247.077501 
L 71.027249 253.879865 
L 71.271902 250.210169 
L 71.516555 252.08977 
L 71.761208 252.403036 
L 72.005861 250.881455 
L 72.250514 250.344426 
L 72.495167 248.599083 
L 72.73982 251.686998 
L 72.984473 251.015712 
L 73.229126 252.582046 
L 73.473779 252.268779 
L 73.963085 250.702445 
L 74.207738 251.239474 
L 74.452391 251.373731 
L 74.697044 251.015712 
L 75.431003 248.822845 
L 75.675656 249.180864 
L 76.164962 254.953923 
L 76.654268 252.626798 
L 76.898921 252.805808 
L 77.143574 253.700856 
L 77.388227 250.747198 
L 77.63288 254.685408 
L 77.877533 255.938475 
L 78.122186 260.771734 
L 78.366839 261.308763 
L 78.611492 259.115895 
L 78.856145 258.713124 
L 79.345451 256.654514 
L 79.590104 258.399857 
L 79.834757 258.623619 
L 80.07941 257.057285 
L 80.568716 259.563419 
L 80.813369 259.294905 
L 81.058022 260.368962 
L 81.302675 260.50322 
L 81.547328 262.338068 
L 81.791981 262.248563 
L 82.036634 261.711534 
L 82.281287 259.608172 
L 82.52594 259.026391 
L 82.770593 257.236295 
L 83.015246 253.298084 
L 83.259899 254.14838 
L 83.504552 253.656103 
L 83.749205 252.582046 
L 83.993858 252.761055 
L 84.238511 253.208579 
L 84.483164 254.730161 
L 84.727817 254.774913 
L 84.97247 255.446199 
L 85.461776 252.984817 
L 85.706429 253.208579 
L 85.951082 252.268779 
L 86.195735 253.074322 
L 86.685041 253.432341 
L 87.174347 251.776503 
L 87.419 254.685408 
L 87.663653 253.656103 
L 87.908306 255.804218 
L 88.152959 256.699266 
L 88.397612 259.339657 
L 88.642265 260.100448 
L 88.886918 263.009354 
L 89.131571 261.174506 
L 89.376224 257.14679 
L 89.620877 257.012533 
L 89.86553 256.565009 
L 90.110183 256.609761 
L 90.354836 255.669961 
L 90.599489 254.103627 
L 90.844143 250.523436 
L 91.088796 250.210169 
L 91.578102 246.987997 
L 91.822755 247.525025 
L 92.067408 243.273548 
L 92.312061 243.049786 
L 92.801367 246.048196 
L 93.290673 243.005034 
L 93.535326 242.468005 
L 94.024632 239.782861 
L 94.269285 241.393947 
L 94.758591 243.184043 
L 95.003244 240.051376 
L 95.247897 241.751967 
L 95.49255 241.572957 
L 96.226509 244.43711 
L 96.471162 247.435521 
L 96.715815 243.944834 
L 97.205121 229.534563 
L 97.694427 230.161096 
L 97.93908 229.221296 
L 98.183733 230.921887 
L 98.428386 228.997534 
L 98.673039 229.624068 
L 99.162345 227.61021 
L 99.406998 224.6118 
L 99.651651 223.269228 
L 99.896304 223.716752 
L 100.140957 222.19517 
L 100.38561 221.926656 
L 100.630263 223.49299 
L 101.119569 223.045466 
L 101.364222 221.971408 
L 101.608875 222.642694 
L 101.853528 224.25378 
L 102.098181 224.298533 
L 102.342834 225.864867 
L 102.587487 226.625657 
L 102.83214 215.482311 
L 103.076793 219.107255 
L 103.321446 214.229244 
L 103.566099 217.048645 
L 103.810752 213.378949 
L 104.055405 213.423701 
L 104.300058 210.559548 
L 104.544711 214.050235 
L 104.789364 211.499348 
L 105.034017 215.706073 
L 105.27867 211.633605 
L 105.523323 212.931425 
L 105.767976 209.127471 
L 106.012629 209.574995 
L 106.257282 209.440738 
L 106.501935 214.229244 
L 106.746588 209.395986 
L 106.991241 214.542511 
L 107.480547 196.999573 
L 107.969853 191.047504 
L 108.214506 198.923925 
L 108.459159 196.775811 
L 108.703812 198.163135 
L 108.948465 197.536601 
L 109.437771 199.505707 
L 109.927077 196.731058 
L 110.17173 198.207887 
L 110.416383 194.448686 
L 110.661036 194.851458 
L 110.905689 196.641553 
L 111.150342 195.970267 
L 111.394995 195.83601 
L 111.639648 193.732648 
L 111.884301 190.376218 
L 112.128954 192.65859 
L 112.373607 192.390076 
L 112.61826 197.805116 
L 112.862913 197.626106 
L 113.107566 196.104525 
L 113.35222 199.908478 
L 113.596873 197.849868 
L 113.841526 198.521154 
L 114.086179 204.383718 
L 114.330832 203.936194 
L 114.575485 205.950051 
L 114.820138 203.13065 
L 115.064791 202.101345 
L 115.309444 204.025698 
L 115.554097 201.967088 
L 115.79875 198.163135 
L 116.043403 196.641553 
L 116.777362 200.535012 
L 117.022015 199.863726 
L 117.266668 197.984125 
L 117.511321 197.89462 
L 118.000627 214.273997 
L 118.24528 208.814205 
L 118.489933 208.814205 
L 118.734586 209.216976 
L 118.979239 203.578174 
L 119.223892 201.609069 
L 119.468545 201.385307 
L 119.713198 200.266497 
L 119.957851 201.877583 
L 120.202504 206.129061 
L 120.447157 205.815794 
L 120.936463 196.999573 
L 121.181116 196.01502 
L 121.425769 189.033646 
L 121.670422 190.062951 
L 121.915075 188.272856 
L 122.159728 191.405523 
L 122.649034 178.964358 
L 122.893687 180.709701 
L 123.13834 180.754453 
L 123.382993 181.649501 
L 123.627646 184.155635 
L 123.872299 184.558407 
L 124.116952 185.632464 
L 124.361605 185.900979 
L 124.606258 186.527512 
L 124.850911 193.553638 
L 125.095564 190.59998 
L 125.340217 190.197209 
L 125.58487 189.346913 
L 125.829523 186.796027 
L 126.074176 188.093846 
L 126.318829 188.451865 
L 126.563482 189.973447 
L 127.297441 197.089077 
L 127.542094 205.323518 
L 127.786747 208.590443 
L 128.0314 205.457775 
L 128.276053 208.098166 
L 128.520706 213.513206 
L 128.765359 212.752415 
L 129.010012 210.067272 
L 129.254665 210.78331 
L 129.499318 213.602711 
L 129.743971 212.215386 
L 129.988624 212.394396 
L 130.47793 208.500938 
L 130.967236 213.557958 
L 131.456542 212.170634 
L 131.701195 211.946872 
L 131.945848 210.067272 
L 132.190501 209.977767 
L 132.435154 207.963909 
L 132.92446 201.967088 
L 133.169113 196.507296 
L 133.413766 201.25105 
L 133.658419 201.609069 
L 134.147725 206.979356 
L 134.392378 208.456185 
L 134.637031 206.979356 
L 134.881684 208.500938 
L 135.126337 211.633605 
L 135.37099 210.201529 
L 135.615643 211.365091 
L 135.860297 211.90212 
L 136.10495 211.096577 
L 136.349603 213.602711 
L 136.594256 214.184492 
L 136.838909 211.633605 
L 137.083562 206.30807 
L 137.328215 205.681537 
L 137.572868 204.517975 
L 137.817521 206.710842 
L 138.062174 199.237192 
L 138.55148 195.925515 
L 138.796133 198.789668 
L 139.040786 194.001162 
L 139.285439 194.493438 
L 139.530092 198.028878 
L 139.774745 194.403934 
L 140.264051 184.826921 
L 140.753357 191.092256 
L 140.99801 188.988894 
L 141.242663 189.839189 
L 141.487316 188.72038 
L 141.731969 179.501386 
L 141.976622 185.677217 
L 142.221275 183.215835 
L 142.465928 185.005931 
L 142.710581 184.155635 
L 143.199887 180.799206 
L 143.44454 182.410292 
L 143.689193 183.171083 
L 143.933846 185.721969 
L 144.178499 186.438008 
L 144.423152 184.24514 
L 144.667805 183.708111 
L 144.912458 185.36395 
L 145.157111 189.749685 
L 145.646417 189.436418 
L 145.89107 192.8376 
L 146.135723 192.390076 
L 146.625029 200.893031 
L 146.869682 195.298982 
L 147.358988 198.655411 
L 147.603641 197.447096 
L 147.848294 203.667679 
L 148.092947 205.234013 
L 148.3376 204.920746 
L 148.582253 207.337376 
L 148.826906 203.041146 
L 149.316212 201.295802 
L 149.560865 201.07204 
L 149.805518 200.266497 
L 150.294824 197.268087 
L 150.539477 196.373039 
L 150.78413 196.238782 
L 151.028783 199.997983 
L 151.273436 199.371449 
L 151.518089 199.19244 
L 151.762742 193.822153 
L 152.007395 194.89621 
L 152.252048 196.641553 
L 152.496701 193.732648 
L 152.741354 198.789668 
L 152.986007 198.789668 
L 153.23066 196.462544 
L 153.475313 196.596801 
L 153.719966 199.550459 
L 153.964619 196.328287 
L 154.209272 196.641553 
L 154.453925 198.521154 
L 154.698578 202.996393 
L 154.943231 200.176992 
L 155.187884 199.01343 
L 155.432537 208.411433 
L 155.67719 204.562727 
L 155.921843 207.784899 
L 156.166496 215.795578 
L 156.411149 214.676768 
L 156.655802 211.991625 
L 156.900455 212.125882 
L 157.145108 208.411433 
L 157.389761 206.710842 
L 157.634414 203.801936 
L 157.879067 202.727879 
L 158.368374 217.943693 
L 158.613027 217.540921 
L 158.85768 222.37418 
L 159.102333 218.301712 
L 159.346986 217.361912 
L 159.591639 214.408254 
L 159.836292 212.84192 
L 160.080945 215.437559 
L 160.325598 213.557958 
L 160.570251 209.082719 
L 160.814904 211.544101 
L 161.059557 205.592032 
L 161.793516 202.414612 
L 162.038169 201.653821 
L 162.282822 196.820563 
L 162.527475 199.774221 
L 162.772128 201.340555 
L 163.016781 204.920746 
L 163.261434 200.221745 
L 163.506087 200.669269 
L 163.75074 203.264908 
L 164.240046 199.818973 
L 164.484699 200.937783 
L 164.974005 196.552049 
L 165.218658 198.028878 
L 165.707964 193.732648 
L 165.952617 196.507296 
L 166.19727 197.178582 
L 166.441923 196.373039 
L 166.686576 197.805116 
L 166.931229 191.8978 
L 167.175882 193.866905 
L 167.420535 191.8978 
L 167.665188 193.195619 
L 167.909841 195.298982 
L 168.399147 191.674038 
L 168.888453 184.558407 
L 169.133106 182.947321 
L 169.377759 186.393255 
L 169.622412 185.18494 
L 169.867065 184.692664 
L 170.111718 185.900979 
L 170.356371 178.874853 
L 170.601024 183.618607 
L 170.845677 183.036826 
L 171.09033 184.468902 
L 171.334983 184.692664 
L 171.579636 182.947321 
L 171.824289 185.36395 
L 172.068942 178.964358 
L 172.313595 179.590891 
L 172.558248 177.308519 
L 172.802901 178.382577 
L 173.047554 177.040005 
L 173.292207 178.785348 
L 173.53686 183.708111 
L 173.781513 180.12792 
L 174.270819 184.110883 
L 174.515472 182.097025 
L 174.760125 184.42415 
L 175.004778 183.30534 
L 175.98339 172.117241 
L 176.228043 174.175852 
L 176.472696 172.609518 
L 176.717349 176.144957 
L 176.962002 174.668128 
L 177.451308 173.59407 
L 177.695961 171.71447 
L 178.185267 177.084757 
L 178.42992 177.219014 
L 178.674573 175.607928 
L 178.919226 176.816243 
L 179.408532 164.196068 
L 179.897838 171.848727 
L 180.142491 173.370308 
L 180.387144 170.998432 
L 180.631798 170.864174 
L 180.876451 170.192888 
L 181.121104 167.59725 
L 181.365757 168.53705 
L 181.855063 164.554087 
L 182.344369 165.851906 
L 182.589022 165.672897 
L 182.833675 164.196068 
L 183.078328 165.314878 
L 183.322981 159.810333 
L 183.567634 163.12201 
L 183.812287 162.405972 
L 184.05694 164.688344 
L 184.301593 164.24082 
L 184.546246 165.046363 
L 184.790899 168.35804 
L 185.280205 156.095884 
L 185.524858 157.706971 
L 186.014164 164.017058 
L 186.50347 173.146546 
L 186.748123 173.101794 
L 186.992776 166.030916 
L 187.237429 168.223783 
L 187.482082 162.36122 
L 187.726735 165.091116 
L 187.971388 163.345772 
L 188.216041 156.632913 
L 188.460694 159.228552 
L 188.705347 156.856675 
L 189.194653 156.364399 
L 189.439306 155.021827 
L 189.683959 156.319646 
L 189.928612 154.663808 
L 190.173265 155.469351 
L 190.417918 157.483209 
L 190.662571 150.367578 
L 191.151877 154.663808 
L 191.39653 153.097474 
L 191.641183 153.500246 
L 191.885836 153.544998 
L 192.130489 152.336683 
L 192.375142 156.364399 
L 192.619795 156.811923 
L 192.864448 156.319646 
L 193.109101 158.288752 
L 193.353754 156.632913 
L 193.598407 157.259447 
L 193.84306 160.750133 
L 194.087713 159.273304 
L 194.332366 153.142226 
L 194.577019 151.889159 
L 195.066325 147.682434 
L 195.310978 148.622235 
L 195.555631 151.53114 
L 195.800284 148.980254 
L 196.044937 152.694702 
L 196.28959 150.636092 
L 196.534243 150.546588 
L 196.778896 150.815102 
L 197.023549 152.784207 
L 197.268202 153.097474 
L 197.512855 148.980254 
L 197.757508 149.562035 
L 198.002161 150.770349 
L 198.246814 147.011148 
L 198.491467 148.666987 
L 198.73612 143.833728 
L 199.225426 151.173121 
L 199.714732 161.108152 
L 199.959385 157.88598 
L 200.204038 148.756492 
L 200.448691 147.950949 
L 200.693344 144.684024 
L 200.937997 147.816691 
L 201.18265 144.05749 
L 201.427303 143.967986 
L 201.671956 141.103832 
L 201.916609 143.654719 
L 202.161262 139.358489 
L 202.405915 137.031365 
L 202.650568 138.552946 
L 202.895221 134.52523 
L 203.139875 133.809192 
L 203.384528 134.167211 
L 203.629181 134.211964 
L 203.873834 133.451173 
L 204.118487 134.659488 
L 204.36314 132.600878 
L 204.607793 126.425047 
L 204.852446 130.094743 
L 205.097099 126.962076 
L 205.341752 129.110191 
L 205.586405 127.006828 
L 205.831058 128.573162 
L 206.075711 124.858713 
L 206.320364 125.798514 
L 206.565017 124.679704 
L 206.80967 122.800103 
L 207.054323 119.443674 
L 207.298976 121.368027 
L 207.543629 118.145854 
L 207.788282 127.4096 
L 208.032935 129.960486 
L 208.522241 129.826229 
L 208.766894 132.735135 
L 209.011547 136.986612 
L 209.2562 136.494336 
L 209.500853 143.430957 
L 209.745506 146.1161 
L 209.990159 153.052722 
L 210.479465 140.656308 
L 210.724118 140.298289 
L 211.213424 131.70583 
L 211.458077 132.914144 
L 211.70273 133.093154 
L 211.947383 134.52523 
L 212.192036 137.971165 
L 212.436689 144.2365 
L 212.681342 144.773529 
L 213.170648 151.128369 
L 213.659954 131.168801 
L 214.14926 135.912555 
L 214.393913 136.225821 
L 214.638566 134.793745 
L 214.883219 134.793745 
L 215.127872 132.019096 
L 215.372525 131.034544 
L 215.617178 131.52682 
L 215.861831 124.813961 
L 216.106484 126.4698 
L 216.351137 125.753761 
L 216.59579 134.569983 
L 216.840443 139.045222 
L 217.085096 137.657898 
L 217.329749 147.727187 
L 217.819055 136.897107 
L 218.063708 135.107012 
L 218.308361 135.062259 
L 218.553014 134.614735 
L 218.797667 137.926412 
L 219.286973 118.101102 
L 219.531626 118.682883 
L 220.020932 127.23059 
L 220.265585 122.889608 
L 220.510238 125.619504 
L 220.999544 122.352579 
L 221.244197 121.770798 
L 221.48885 122.128817 
L 221.733503 124.05317 
L 221.978156 124.455942 
L 222.222809 124.366437 
L 222.467462 127.051581 
L 222.712115 131.70583 
L 222.956768 132.287611 
L 223.201421 137.031365 
L 223.446074 137.613146 
L 223.690727 144.818281 
L 223.93538 148.398473 
L 224.180033 139.089975 
L 224.424686 145.310557 
L 224.669339 140.253537 
L 224.913992 146.160853 
L 225.158645 143.878481 
L 225.403298 146.29511 
L 225.647952 140.745813 
L 225.892605 138.463441 
L 226.137258 138.418689 
L 226.381911 141.103832 
L 227.11587 135.465031 
L 227.605176 141.864623 
L 228.094482 135.64404 
L 228.583788 137.657898 
L 228.828441 136.225821 
L 229.073094 136.897107 
L 229.317747 139.895518 
L 229.5624 135.599288 
L 229.807053 134.972754 
L 230.051706 135.778297 
L 230.296359 138.642451 
L 230.541012 135.554536 
L 230.785665 134.301468 
L 231.030318 132.063849 
L 231.274971 139.00047 
L 231.764277 144.549767 
L 232.253583 145.042043 
L 232.742889 139.761261 
L 232.987542 138.015917 
L 233.232195 140.387794 
L 233.476848 140.11928 
L 233.721501 141.596109 
L 233.966154 135.330774 
L 234.45546 136.897107 
L 234.700113 135.957307 
L 234.944766 128.841676 
L 235.189419 127.857124 
L 235.923378 130.229001 
L 236.168031 132.421868 
L 236.412684 136.628593 
L 236.657337 138.731955 
L 237.146643 133.048401 
L 237.635949 137.926412 
L 237.880602 137.568393 
L 238.125255 140.924823 
L 238.614561 150.994111 
L 238.859214 151.933912 
L 239.103867 150.904607 
L 239.593173 146.339862 
L 239.837826 147.906196 
L 240.082479 152.82896 
L 240.816438 141.23809 
L 241.061091 142.893928 
L 241.305744 139.582251 
L 241.550397 139.582251 
L 241.79505 140.969575 
L 242.039703 143.028185 
L 242.284356 142.670166 
L 242.529009 148.129958 
L 242.773662 149.696292 
L 243.018315 144.41551 
L 243.262968 143.788976 
L 243.507621 144.952538 
L 243.752274 136.002059 
L 244.24158 144.102243 
L 244.486233 139.806013 
L 244.730886 132.332363 
L 244.975539 132.735135 
L 245.220192 136.225821 
L 245.464845 133.76444 
L 245.709498 134.301468 
L 245.954151 131.929592 
L 246.198804 133.630183 
L 246.443457 132.556125 
L 246.68811 133.898697 
L 247.177416 139.313737 
L 247.666722 135.420278 
L 247.911375 134.972754 
L 248.156029 136.225821 
L 248.400682 131.303058 
L 248.645335 129.691972 
L 248.889988 123.516142 
L 249.623947 123.963665 
L 249.8686 126.067028 
L 250.113253 127.141085 
L 250.602559 123.337132 
L 250.847212 120.517731 
L 251.091865 120.920503 
L 251.581171 128.931181 
L 251.825824 136.673345 
L 252.070477 156.453904 
L 252.31513 166.254678 
L 252.559783 153.500246 
L 252.804436 148.53273 
L 253.049089 148.845997 
L 253.293742 151.53114 
L 253.538395 158.691523 
L 253.783048 157.304199 
L 254.027701 155.111332 
L 254.272354 160.526371 
L 254.517007 154.037274 
L 254.76166 160.929143 
L 255.006313 159.899838 
L 255.250966 157.393704 
L 255.495619 159.273304 
L 255.984925 150.904607 
L 256.229578 149.562035 
L 256.474231 150.994111 
L 256.718884 148.040453 
L 256.963537 154.037274 
L 257.20819 153.903017 
L 257.452843 153.58975 
L 257.697496 149.114511 
L 257.942149 153.58975 
L 258.186802 151.038864 
L 258.431455 145.400062 
L 258.676108 147.41392 
L 258.920761 146.026596 
L 259.65472 126.514552 
L 260.144026 122.263074 
L 260.388679 123.739903 
L 260.633332 129.199696 
L 260.877985 131.124048 
L 261.122638 127.588609 
L 261.367291 121.233769 
L 261.611944 119.085655 
L 261.856597 118.682883 
L 262.10125 118.772388 
L 262.345903 106.10746 
L 262.590556 109.016366 
L 262.835209 108.52409 
L 263.079862 106.733994 
L 263.324515 107.629042 
L 263.569168 107.360527 
L 264.54778 117.116549 
L 264.792433 117.161302 
L 265.281739 124.903466 
L 265.526392 125.127228 
L 265.771045 122.442084 
L 266.015698 127.185838 
L 266.260351 128.662667 
L 266.505004 121.860303 
L 266.749657 125.127228 
L 266.99431 118.682883 
L 267.238963 115.729225 
L 267.483616 119.443674 
L 267.728269 116.087244 
L 268.217575 117.653578 
L 268.462228 116.57952 
L 268.706881 119.175159 
L 268.951534 115.147444 
L 269.196187 122.218322 
L 269.44084 123.963665 
L 269.685493 115.147444 
L 270.174799 119.130407 
L 270.419452 123.784656 
L 270.664106 124.813961 
L 270.908759 129.826229 
L 271.153412 129.065438 
L 271.642718 115.057939 
L 271.887371 118.99615 
L 272.132024 129.2892 
L 272.376677 126.067028 
L 272.865983 117.027044 
L 273.110636 117.474568 
L 273.355289 116.848035 
L 273.599942 113.4021 
L 273.844595 114.744672 
L 274.333901 125.395742 
L 274.578554 122.352579 
L 274.823207 122.218322 
L 275.06786 130.766029 
L 275.312513 132.377116 
L 275.801819 130.542267 
L 276.535778 147.055901 
L 276.780431 138.82146 
L 277.025084 147.771939 
L 277.269737 144.639271 
L 277.51439 138.463441 
L 277.759043 138.06067 
L 278.003696 136.360079 
L 278.248349 138.06067 
L 278.737655 123.023865 
L 278.982308 124.23218 
L 279.226961 127.901876 
L 279.471614 125.619504 
L 279.716267 131.571572 
L 279.96092 131.884839 
L 280.205573 130.989791 
L 280.450226 127.588609 
L 280.939532 133.76444 
L 281.184185 126.648809 
L 281.428838 126.156533 
L 281.673491 121.905055 
L 281.918144 121.591789 
L 282.162797 121.770798 
L 282.40745 120.472979 
L 282.652103 121.949808 
L 282.896756 121.323274 
L 283.141409 116.892787 
L 283.386062 127.23059 
L 283.630715 129.647219 
L 283.875368 123.963665 
L 284.120021 127.364847 
L 284.609327 119.891198 
L 284.85398 123.247627 
L 285.832592 114.028634 
L 286.077245 116.982292 
L 286.321898 114.744672 
L 286.566551 116.176749 
L 286.811204 111.5225 
L 287.055857 114.118139 
L 287.30051 112.999329 
L 287.545163 116.445263 
L 287.789816 116.266254 
L 288.034469 116.848035 
L 288.523775 113.76012 
L 288.768428 107.852804 
L 289.013081 108.792604 
L 289.257734 102.974793 
L 289.502387 102.795783 
L 289.74704 106.017955 
L 289.991693 102.348259 
L 290.236346 103.780336 
L 290.480999 97.156981 
L 290.725652 100.647668 
L 290.970305 97.917772 
L 291.459611 105.749441 
L 291.704264 103.019545 
L 291.948917 103.243307 
L 292.19357 100.558163 
L 292.682876 115.460711 
L 293.172183 107.360527 
L 293.416836 108.255575 
L 293.661489 108.121318 
L 293.906142 106.599737 
L 294.150795 106.644489 
L 294.395448 104.541126 
L 294.640101 103.959345 
L 294.884754 101.900735 
L 295.129407 101.05044 
L 295.37406 97.69401 
L 295.618713 96.261934 
L 295.863366 90.488875 
L 296.108019 94.292828 
L 296.352672 92.592237 
L 296.597325 101.184697 
L 296.841978 101.408459 
L 297.331284 115.81873 
L 297.575937 113.939129 
L 297.82059 119.443674 
L 298.065243 118.011597 
L 298.309896 115.013187 
L 298.554549 115.013187 
L 298.799202 111.388243 
L 299.043855 111.119728 
L 299.288508 114.655167 
L 300.26712 107.808051 
L 300.511773 108.747851 
L 301.001079 103.511821 
L 301.490385 106.196965 
L 301.735038 105.436174 
L 301.979691 107.092013 
L 302.224344 102.661526 
L 302.468997 104.630631 
L 302.71365 104.809641 
L 302.958303 101.632221 
L 303.202956 103.153802 
L 303.447609 100.021135 
L 303.692262 111.030224 
L 303.936915 110.358938 
L 304.181568 110.314185 
L 304.426221 105.928451 
L 304.670874 93.308276 
L 304.915527 94.6956 
L 305.16018 91.160161 
L 305.404833 93.39778 
L 305.649486 86.371654 
L 306.138792 80.016815 
L 306.383445 80.553843 
L 306.628098 75.541575 
L 306.872751 75.317813 
L 307.117404 76.660385 
L 307.362057 78.674243 
L 307.60671 77.242166 
L 308.096016 81.493644 
L 308.340669 78.763747 
L 308.585322 79.524538 
L 309.074628 86.416407 
L 309.563934 79.972062 
L 309.808587 79.92731 
L 310.05324 80.86711 
L 310.297893 83.910273 
L 310.787199 81.135624 
L 311.031852 83.462749 
L 311.276505 82.836215 
L 311.521158 80.419586 
L 311.765811 81.941167 
L 312.255117 80.86711 
L 312.49977 84.089282 
L 312.744423 81.98592 
L 313.478382 84.268292 
L 313.723035 84.626311 
L 313.967688 83.597006 
L 314.212341 84.626311 
L 314.456994 86.550664 
L 314.701647 84.134035 
L 315.190953 89.683332 
L 315.68026 84.671063 
L 315.924913 84.447302 
L 316.169566 87.624722 
L 316.414219 89.101551 
L 316.658872 101.766478 
L 316.903525 92.950256 
L 317.148178 99.349849 
L 317.637484 95.366886 
L 317.882137 96.261934 
L 318.12679 94.51659 
L 318.860749 84.894825 
L 319.350055 88.430265 
L 319.594708 86.371654 
L 319.839361 86.863931 
L 320.084014 85.16334 
L 320.328667 80.643348 
L 320.57332 82.970473 
L 321.062626 92.995009 
L 321.307279 91.249665 
L 321.551932 93.084514 
L 321.796585 92.055209 
L 322.041238 94.964114 
L 322.285891 92.681742 
L 322.530544 93.39778 
L 322.775197 89.325312 
L 323.01985 89.235808 
L 323.264503 88.788284 
L 323.753809 93.621542 
L 323.998462 94.740352 
L 324.243115 87.177198 
L 324.487768 87.535217 
L 324.732421 88.251255 
L 324.977074 90.22036 
L 325.221727 88.251255 
L 325.46638 87.669474 
L 325.711033 89.862341 
L 325.955686 89.862341 
L 326.200339 90.22036 
L 326.444992 93.890057 
L 326.689645 88.743531 
L 326.934298 80.86711 
L 327.178951 87.445712 
L 327.423604 105.34667 
L 327.668257 105.615184 
L 327.91291 113.670615 
L 328.157563 111.612005 
L 328.646869 112.64131 
L 328.891522 114.028634 
L 329.380828 106.957756 
L 329.625481 113.044081 
L 330.114787 107.40528 
L 330.35944 108.52409 
L 330.604093 119.443674 
L 330.848746 124.23218 
L 331.093399 117.206054 
L 331.338052 116.713778 
L 331.582705 112.954577 
L 331.827358 107.315775 
L 332.072011 110.269433 
L 332.561317 98.768068 
L 332.80597 94.6956 
L 333.050623 99.886877 
L 333.539929 93.621542 
L 334.273888 98.857572 
L 334.518541 95.948667 
L 334.763194 97.112229 
L 335.007847 96.933219 
L 335.2525 99.215592 
L 335.497153 97.559753 
L 335.741806 99.170839 
L 335.986459 99.081334 
L 336.231112 98.186286 
L 336.720418 99.484106 
L 337.209724 111.074976 
L 337.454377 111.791014 
L 337.69903 111.656757 
L 337.943684 112.954577 
L 338.43299 107.629042 
L 338.677643 109.329633 
L 339.411602 98.81282 
L 339.656255 99.260344 
L 340.145561 104.317364 
L 340.390214 103.377564 
L 340.634867 102.974793 
L 340.87952 106.420727 
L 341.368826 97.022724 
L 341.613479 99.439354 
L 341.858132 94.785105 
L 342.102785 94.427085 
L 342.347438 93.174018 
L 342.592091 92.592237 
L 343.081397 88.922541 
L 343.32605 89.772836 
L 343.570703 83.552254 
L 343.815356 83.417996 
L 344.060009 78.002957 
L 344.304662 77.779195 
L 344.549315 77.197414 
L 344.793968 75.899594 
L 345.038621 78.405728 
L 345.283274 73.438213 
L 345.527927 76.347118 
L 346.017233 72.63267 
L 346.261886 76.794642 
L 346.506539 78.181966 
L 346.751192 78.271471 
L 346.995845 79.524538 
L 347.240498 76.973652 
L 347.485151 77.779195 
L 347.729804 78.092462 
L 347.974457 70.171288 
L 348.21911 70.037031 
L 348.463763 68.918221 
L 348.708416 69.992278 
L 348.953069 67.21763 
L 349.197722 66.09882 
L 349.442375 67.172877 
L 349.687028 65.651296 
L 349.931681 66.949115 
L 350.176334 64.174467 
L 350.420987 64.263972 
L 350.910293 66.814858 
L 351.154946 66.814858 
L 351.399599 65.830306 
L 351.644252 66.456839 
L 351.888905 68.067925 
L 352.133558 67.933668 
L 352.378211 66.09882 
L 352.622864 67.396639 
L 352.867517 58.983189 
L 353.11217 63.145162 
L 353.356823 60.281009 
L 353.601476 55.984779 
L 353.846129 58.938437 
L 354.090782 59.072694 
L 354.335435 59.788732 
L 354.580088 55.805769 
L 354.824741 56.521808 
L 355.314047 63.324172 
L 355.5587 60.460018 
L 355.803353 64.935258 
L 356.048006 64.890505 
L 356.292659 67.128125 
L 356.537312 61.892095 
L 356.781965 60.728533 
L 357.026618 60.728533 
L 357.271271 62.966152 
L 357.515924 62.429124 
L 357.760577 61.534076 
L 358.00523 62.115857 
L 358.249883 57.50636 
L 358.494536 58.177646 
L 358.739189 58.401408 
L 358.983842 57.103589 
L 359.228495 58.62517 
L 359.473148 54.105178 
L 359.717801 52.538845 
L 359.962454 48.018853 
L 360.207107 41.440251 
L 360.451761 39.73966 
L 360.696414 39.292136 
L 360.941067 44.393909 
L 361.675026 39.873917 
L 361.919679 40.67946 
L 362.164332 43.588366 
L 362.408985 48.779643 
L 362.653638 48.555882 
L 362.898291 47.258062 
L 363.142944 46.855291 
L 363.387597 42.156289 
L 363.63225 42.872327 
L 363.876903 44.438661 
L 364.121556 42.514308 
L 364.366209 39.56065 
L 364.610862 41.932527 
L 364.855515 47.616081 
L 365.100168 43.991137 
L 365.344821 43.275099 
L 365.589474 48.555882 
L 365.834127 46.586776 
L 366.07878 51.957063 
L 366.323433 50.569739 
L 366.568086 50.793501 
L 367.057392 52.180825 
L 367.302045 50.480234 
L 367.546698 56.029531 
L 367.791351 58.401408 
L 368.036004 53.791912 
L 368.280657 57.148341 
L 368.52531 53.075873 
L 368.769963 53.075873 
L 369.014616 52.717854 
L 369.259269 51.241025 
L 369.503922 50.480234 
L 369.748575 45.467966 
L 369.993228 47.705586 
L 370.237881 46.273509 
L 370.482534 42.961832 
L 370.727187 42.290546 
L 370.97184 45.557471 
L 371.216493 45.557471 
L 371.461146 48.645386 
L 371.705799 50.032711 
L 371.950452 46.944795 
L 372.195105 46.631529 
L 372.439758 43.991137 
L 372.684411 45.109947 
L 372.929064 45.467966 
L 373.173717 46.586776 
L 373.41837 46.004995 
L 373.907676 34.995906 
L 374.152329 34.414125 
L 374.641635 41.126984 
L 374.886288 38.173326 
L 375.130941 39.694907 
L 375.375594 42.514308 
L 375.620247 47.302814 
L 376.109553 50.345977 
L 376.354206 49.003405 
L 376.598859 52.091321 
L 376.843512 49.495682 
L 377.088165 49.003405 
L 377.332818 48.869148 
L 377.822124 43.85688 
L 378.066777 52.583597 
L 378.31143 49.674691 
L 378.800736 55.223988 
L 379.045389 56.38755 
L 379.290042 53.433892 
L 379.534695 52.807359 
L 379.779348 55.044979 
L 380.513307 66.859611 
L 380.75796 66.456839 
L 381.002613 67.03862 
L 381.247266 70.21604 
L 381.491919 67.799411 
L 381.736572 68.739211 
L 381.981225 79.077014 
L 382.225878 79.032262 
L 382.470531 78.092462 
L 382.715184 73.124946 
L 382.959838 73.348708 
L 383.204491 75.094051 
L 383.93845 64.174467 
L 384.183103 63.413676 
L 384.427756 59.162199 
L 384.672409 65.338029 
L 384.917062 66.412087 
L 385.161715 63.189914 
L 385.406368 67.933668 
L 385.651021 67.575649 
L 386.140327 74.825537 
L 386.38498 71.871879 
L 386.629633 72.45366 
L 386.874286 76.705137 
L 387.118939 74.109499 
L 387.608245 74.915042 
L 387.852898 74.154251 
L 387.852898 74.154251 
" style="fill:none;stroke:#ff7f0e;stroke-linecap:square;stroke-width:1.5;"/>
   </g>
   <g id="patch_3">
    <path d="M 46.965625 288.430125 
L 46.965625 22.318125 
" style="fill:none;stroke:#000000;stroke-linecap:square;stroke-linejoin:miter;stroke-width:0.8;"/>
   </g>
   <g id="patch_4">
    <path d="M 404.085625 288.430125 
L 404.085625 22.318125 
" style="fill:none;stroke:#000000;stroke-linecap:square;stroke-linejoin:miter;stroke-width:0.8;"/>
   </g>
   <g id="patch_5">
    <path d="M 46.965625 288.430125 
L 404.085625 288.430125 
" style="fill:none;stroke:#000000;stroke-linecap:square;stroke-linejoin:miter;stroke-width:0.8;"/>
   </g>
   <g id="patch_6">
    <path d="M 46.965625 22.318125 
L 404.085625 22.318125 
" style="fill:none;stroke:#000000;stroke-linecap:square;stroke-linejoin:miter;stroke-width:0.8;"/>
   </g>
   <g id="text_16">
    <!-- Training: PEP -->
    <defs>
     <path d="M -0.296875 72.90625 
L 61.375 72.90625 
L 61.375 64.59375 
L 35.5 64.59375 
L 35.5 0 
L 25.59375 0 
L 25.59375 64.59375 
L -0.296875 64.59375 
z
" id="DejaVuSans-84"/>
     <path d="M 54.890625 33.015625 
L 54.890625 0 
L 45.90625 0 
L 45.90625 32.71875 
Q 45.90625 40.484375 42.875 44.328125 
Q 39.84375 48.1875 33.796875 48.1875 
Q 26.515625 48.1875 22.3125 43.546875 
Q 18.109375 38.921875 18.109375 30.90625 
L 18.109375 0 
L 9.078125 0 
L 9.078125 54.6875 
L 18.109375 54.6875 
L 18.109375 46.1875 
Q 21.34375 51.125 25.703125 53.5625 
Q 30.078125 56 35.796875 56 
Q 45.21875 56 50.046875 50.171875 
Q 54.890625 44.34375 54.890625 33.015625 
z
" id="DejaVuSans-110"/>
     <path d="M 45.40625 27.984375 
Q 45.40625 37.75 41.375 43.109375 
Q 37.359375 48.484375 30.078125 48.484375 
Q 22.859375 48.484375 18.828125 43.109375 
Q 14.796875 37.75 14.796875 27.984375 
Q 14.796875 18.265625 18.828125 12.890625 
Q 22.859375 7.515625 30.078125 7.515625 
Q 37.359375 7.515625 41.375 12.890625 
Q 45.40625 18.265625 45.40625 27.984375 
z
M 54.390625 6.78125 
Q 54.390625 -7.171875 48.1875 -13.984375 
Q 42 -20.796875 29.203125 -20.796875 
Q 24.46875 -20.796875 20.265625 -20.09375 
Q 16.0625 -19.390625 12.109375 -17.921875 
L 12.109375 -9.1875 
Q 16.0625 -11.328125 19.921875 -12.34375 
Q 23.78125 -13.375 27.78125 -13.375 
Q 36.625 -13.375 41.015625 -8.765625 
Q 45.40625 -4.15625 45.40625 5.171875 
L 45.40625 9.625 
Q 42.625 4.78125 38.28125 2.390625 
Q 33.9375 0 27.875 0 
Q 17.828125 0 11.671875 7.65625 
Q 5.515625 15.328125 5.515625 27.984375 
Q 5.515625 40.671875 11.671875 48.328125 
Q 17.828125 56 27.875 56 
Q 33.9375 56 38.28125 53.609375 
Q 42.625 51.21875 45.40625 46.390625 
L 45.40625 54.6875 
L 54.390625 54.6875 
z
" id="DejaVuSans-103"/>
     <path d="M 11.71875 12.40625 
L 22.015625 12.40625 
L 22.015625 0 
L 11.71875 0 
z
M 11.71875 51.703125 
L 22.015625 51.703125 
L 22.015625 39.3125 
L 11.71875 39.3125 
z
" id="DejaVuSans-58"/>
     <path d="M 9.8125 72.90625 
L 55.90625 72.90625 
L 55.90625 64.59375 
L 19.671875 64.59375 
L 19.671875 43.015625 
L 54.390625 43.015625 
L 54.390625 34.71875 
L 19.671875 34.71875 
L 19.671875 8.296875 
L 56.78125 8.296875 
L 56.78125 0 
L 9.8125 0 
z
" id="DejaVuSans-69"/>
    </defs>
    <g transform="translate(186.899688 16.318125)scale(0.12 -0.12)">
     <use xlink:href="#DejaVuSans-84"/>
     <use x="46.333984" xlink:href="#DejaVuSans-114"/>
     <use x="87.447266" xlink:href="#DejaVuSans-97"/>
     <use x="148.726562" xlink:href="#DejaVuSans-105"/>
     <use x="176.509766" xlink:href="#DejaVuSans-110"/>
     <use x="239.888672" xlink:href="#DejaVuSans-105"/>
     <use x="267.671875" xlink:href="#DejaVuSans-110"/>
     <use x="331.050781" xlink:href="#DejaVuSans-103"/>
     <use x="394.527344" xlink:href="#DejaVuSans-58"/>
     <use x="428.21875" xlink:href="#DejaVuSans-32"/>
     <use x="460.005859" xlink:href="#DejaVuSans-80"/>
     <use x="520.308594" xlink:href="#DejaVuSans-69"/>
     <use x="583.492188" xlink:href="#DejaVuSans-80"/>
    </g>
   </g>
   <g id="legend_1">
    <g id="patch_7">
     <path d="M 53.965625 59.674375 
L 137.69375 59.674375 
Q 139.69375 59.674375 139.69375 57.674375 
L 139.69375 29.318125 
Q 139.69375 27.318125 137.69375 27.318125 
L 53.965625 27.318125 
Q 51.965625 27.318125 51.965625 29.318125 
L 51.965625 57.674375 
Q 51.965625 59.674375 53.965625 59.674375 
z
" style="fill:#ffffff;opacity:0.8;stroke:#cccccc;stroke-linejoin:miter;"/>
    </g>
    <g id="line2d_29">
     <path d="M 55.965625 35.416562 
L 75.965625 35.416562 
" style="fill:none;stroke:#1f77b4;stroke-linecap:square;stroke-width:1.5;"/>
    </g>
    <g id="line2d_30"/>
    <g id="text_17">
     <!-- Predicted -->
     <defs>
      <path d="M 45.40625 46.390625 
L 45.40625 75.984375 
L 54.390625 75.984375 
L 54.390625 0 
L 45.40625 0 
L 45.40625 8.203125 
Q 42.578125 3.328125 38.25 0.953125 
Q 33.9375 -1.421875 27.875 -1.421875 
Q 17.96875 -1.421875 11.734375 6.484375 
Q 5.515625 14.40625 5.515625 27.296875 
Q 5.515625 40.1875 11.734375 48.09375 
Q 17.96875 56 27.875 56 
Q 33.9375 56 38.25 53.625 
Q 42.578125 51.265625 45.40625 46.390625 
z
M 14.796875 27.296875 
Q 14.796875 17.390625 18.875 11.75 
Q 22.953125 6.109375 30.078125 6.109375 
Q 37.203125 6.109375 41.296875 11.75 
Q 45.40625 17.390625 45.40625 27.296875 
Q 45.40625 37.203125 41.296875 42.84375 
Q 37.203125 48.484375 30.078125 48.484375 
Q 22.953125 48.484375 18.875 42.84375 
Q 14.796875 37.203125 14.796875 27.296875 
z
" id="DejaVuSans-100"/>
      <path d="M 18.3125 70.21875 
L 18.3125 54.6875 
L 36.8125 54.6875 
L 36.8125 47.703125 
L 18.3125 47.703125 
L 18.3125 18.015625 
Q 18.3125 11.328125 20.140625 9.421875 
Q 21.96875 7.515625 27.59375 7.515625 
L 36.8125 7.515625 
L 36.8125 0 
L 27.59375 0 
Q 17.1875 0 13.234375 3.875 
Q 9.28125 7.765625 9.28125 18.015625 
L 9.28125 47.703125 
L 2.6875 47.703125 
L 2.6875 54.6875 
L 9.28125 54.6875 
L 9.28125 70.21875 
z
" id="DejaVuSans-116"/>
     </defs>
     <g transform="translate(83.965625 38.916562)scale(0.1 -0.1)">
      <use xlink:href="#DejaVuSans-80"/>
      <use x="58.552734" xlink:href="#DejaVuSans-114"/>
      <use x="97.416016" xlink:href="#DejaVuSans-101"/>
      <use x="158.939453" xlink:href="#DejaVuSans-100"/>
      <use x="222.416016" xlink:href="#DejaVuSans-105"/>
      <use x="250.199219" xlink:href="#DejaVuSans-99"/>
      <use x="305.179688" xlink:href="#DejaVuSans-116"/>
      <use x="344.388672" xlink:href="#DejaVuSans-101"/>
      <use x="405.912109" xlink:href="#DejaVuSans-100"/>
     </g>
    </g>
    <g id="line2d_31">
     <path d="M 55.965625 50.094687 
L 75.965625 50.094687 
" style="fill:none;stroke:#ff7f0e;stroke-linecap:square;stroke-width:1.5;"/>
    </g>
    <g id="line2d_32"/>
    <g id="text_18">
     <!-- True value -->
     <defs>
      <path d="M 8.5 21.578125 
L 8.5 54.6875 
L 17.484375 54.6875 
L 17.484375 21.921875 
Q 17.484375 14.15625 20.5 10.265625 
Q 23.53125 6.390625 29.59375 6.390625 
Q 36.859375 6.390625 41.078125 11.03125 
Q 45.3125 15.671875 45.3125 23.6875 
L 45.3125 54.6875 
L 54.296875 54.6875 
L 54.296875 0 
L 45.3125 0 
L 45.3125 8.40625 
Q 42.046875 3.421875 37.71875 1 
Q 33.40625 -1.421875 27.6875 -1.421875 
Q 18.265625 -1.421875 13.375 4.4375 
Q 8.5 10.296875 8.5 21.578125 
z
M 31.109375 56 
z
" id="DejaVuSans-117"/>
      <path d="M 2.984375 54.6875 
L 12.5 54.6875 
L 29.59375 8.796875 
L 46.6875 54.6875 
L 56.203125 54.6875 
L 35.6875 0 
L 23.484375 0 
z
" id="DejaVuSans-118"/>
      <path d="M 9.421875 75.984375 
L 18.40625 75.984375 
L 18.40625 0 
L 9.421875 0 
z
" id="DejaVuSans-108"/>
     </defs>
     <g transform="translate(83.965625 53.594687)scale(0.1 -0.1)">
      <use xlink:href="#DejaVuSans-84"/>
      <use x="46.333984" xlink:href="#DejaVuSans-114"/>
      <use x="87.447266" xlink:href="#DejaVuSans-117"/>
      <use x="150.826172" xlink:href="#DejaVuSans-101"/>
      <use x="212.349609" xlink:href="#DejaVuSans-32"/>
      <use x="244.136719" xlink:href="#DejaVuSans-118"/>
      <use x="303.316406" xlink:href="#DejaVuSans-97"/>
      <use x="364.595703" xlink:href="#DejaVuSans-108"/>
      <use x="392.378906" xlink:href="#DejaVuSans-117"/>
      <use x="455.757812" xlink:href="#DejaVuSans-101"/>
     </g>
    </g>
   </g>
  </g>
 </g>
 <defs>
  <clipPath id="p9e6d24c88d">
   <rect height="266.112" width="357.12" x="46.965625" y="22.318125"/>
  </clipPath>
 </defs>
</svg>
