<?xml version="1.0" encoding="utf-8" standalone="no"?>
<!DOCTYPE svg PUBLIC "-//W3C//DTD SVG 1.1//EN"
  "http://www.w3.org/Graphics/SVG/1.1/DTD/svg11.dtd">
<!-- Created with matplotlib (https://matplotlib.org/) -->
<svg height="325.986375pt" version="1.1" viewBox="0 0 411.285625 325.986375" width="411.285625pt" xmlns="http://www.w3.org/2000/svg" xmlns:xlink="http://www.w3.org/1999/xlink">
 <defs>
  <style type="text/css">
*{stroke-linecap:butt;stroke-linejoin:round;}
  </style>
 </defs>
 <g id="figure_1">
  <g id="patch_1">
   <path d="M 0 325.986375 
L 411.285625 325.986375 
L 411.285625 0 
L 0 0 
z
" style="fill:#ffffff;"/>
  </g>
  <g id="axes_1">
   <g id="patch_2">
    <path d="M 46.965625 288.430125 
L 404.085625 288.430125 
L 404.085625 22.318125 
L 46.965625 22.318125 
z
" style="fill:#ffffff;"/>
   </g>
   <g id="matplotlib.axis_1">
    <g id="xtick_1">
     <g id="line2d_1">
      <path clip-path="url(#pee4de064d7)" d="M 63.198352 288.430125 
L 63.198352 22.318125 
" style="fill:none;stroke:#b0b0b0;stroke-dasharray:2.96,1.28;stroke-dashoffset:0;stroke-width:0.8;"/>
     </g>
     <g id="line2d_2">
      <defs>
       <path d="M 0 0 
L 0 3.5 
" id="m13c7f7cc46" style="stroke:#000000;stroke-width:0.8;"/>
      </defs>
      <g>
       <use style="stroke:#000000;stroke-width:0.8;" x="63.198352" xlink:href="#m13c7f7cc46" y="288.430125"/>
      </g>
     </g>
     <g id="text_1">
      <!-- 0 -->
      <defs>
       <path d="M 31.78125 66.40625 
Q 24.171875 66.40625 20.328125 58.90625 
Q 16.5 51.421875 16.5 36.375 
Q 16.5 21.390625 20.328125 13.890625 
Q 24.171875 6.390625 31.78125 6.390625 
Q 39.453125 6.390625 43.28125 13.890625 
Q 47.125 21.390625 47.125 36.375 
Q 47.125 51.421875 43.28125 58.90625 
Q 39.453125 66.40625 31.78125 66.40625 
z
M 31.78125 74.21875 
Q 44.046875 74.21875 50.515625 64.515625 
Q 56.984375 54.828125 56.984375 36.375 
Q 56.984375 17.96875 50.515625 8.265625 
Q 44.046875 -1.421875 31.78125 -1.421875 
Q 19.53125 -1.421875 13.0625 8.265625 
Q 6.59375 17.96875 6.59375 36.375 
Q 6.59375 54.828125 13.0625 64.515625 
Q 19.53125 74.21875 31.78125 74.21875 
z
" id="DejaVuSans-48"/>
      </defs>
      <g transform="translate(60.017102 303.028562)scale(0.1 -0.1)">
       <use xlink:href="#DejaVuSans-48"/>
      </g>
     </g>
    </g>
    <g id="xtick_2">
     <g id="line2d_3">
      <path clip-path="url(#pee4de064d7)" d="M 112.128954 288.430125 
L 112.128954 22.318125 
" style="fill:none;stroke:#b0b0b0;stroke-dasharray:2.96,1.28;stroke-dashoffset:0;stroke-width:0.8;"/>
     </g>
     <g id="line2d_4">
      <g>
       <use style="stroke:#000000;stroke-width:0.8;" x="112.128954" xlink:href="#m13c7f7cc46" y="288.430125"/>
      </g>
     </g>
     <g id="text_2">
      <!-- 200 -->
      <defs>
       <path d="M 19.1875 8.296875 
L 53.609375 8.296875 
L 53.609375 0 
L 7.328125 0 
L 7.328125 8.296875 
Q 12.9375 14.109375 22.625 23.890625 
Q 32.328125 33.6875 34.8125 36.53125 
Q 39.546875 41.84375 41.421875 45.53125 
Q 43.3125 49.21875 43.3125 52.78125 
Q 43.3125 58.59375 39.234375 62.25 
Q 35.15625 65.921875 28.609375 65.921875 
Q 23.96875 65.921875 18.8125 64.3125 
Q 13.671875 62.703125 7.8125 59.421875 
L 7.8125 69.390625 
Q 13.765625 71.78125 18.9375 73 
Q 24.125 74.21875 28.421875 74.21875 
Q 39.75 74.21875 46.484375 68.546875 
Q 53.21875 62.890625 53.21875 53.421875 
Q 53.21875 48.921875 51.53125 44.890625 
Q 49.859375 40.875 45.40625 35.40625 
Q 44.1875 33.984375 37.640625 27.21875 
Q 31.109375 20.453125 19.1875 8.296875 
z
" id="DejaVuSans-50"/>
      </defs>
      <g transform="translate(102.585204 303.028562)scale(0.1 -0.1)">
       <use xlink:href="#DejaVuSans-50"/>
       <use x="63.623047" xlink:href="#DejaVuSans-48"/>
       <use x="127.246094" xlink:href="#DejaVuSans-48"/>
      </g>
     </g>
    </g>
    <g id="xtick_3">
     <g id="line2d_5">
      <path clip-path="url(#pee4de064d7)" d="M 161.059557 288.430125 
L 161.059557 22.318125 
" style="fill:none;stroke:#b0b0b0;stroke-dasharray:2.96,1.28;stroke-dashoffset:0;stroke-width:0.8;"/>
     </g>
     <g id="line2d_6">
      <g>
       <use style="stroke:#000000;stroke-width:0.8;" x="161.059557" xlink:href="#m13c7f7cc46" y="288.430125"/>
      </g>
     </g>
     <g id="text_3">
      <!-- 400 -->
      <defs>
       <path d="M 37.796875 64.3125 
L 12.890625 25.390625 
L 37.796875 25.390625 
z
M 35.203125 72.90625 
L 47.609375 72.90625 
L 47.609375 25.390625 
L 58.015625 25.390625 
L 58.015625 17.1875 
L 47.609375 17.1875 
L 47.609375 0 
L 37.796875 0 
L 37.796875 17.1875 
L 4.890625 17.1875 
L 4.890625 26.703125 
z
" id="DejaVuSans-52"/>
      </defs>
      <g transform="translate(151.515807 303.028562)scale(0.1 -0.1)">
       <use xlink:href="#DejaVuSans-52"/>
       <use x="63.623047" xlink:href="#DejaVuSans-48"/>
       <use x="127.246094" xlink:href="#DejaVuSans-48"/>
      </g>
     </g>
    </g>
    <g id="xtick_4">
     <g id="line2d_7">
      <path clip-path="url(#pee4de064d7)" d="M 209.990159 288.430125 
L 209.990159 22.318125 
" style="fill:none;stroke:#b0b0b0;stroke-dasharray:2.96,1.28;stroke-dashoffset:0;stroke-width:0.8;"/>
     </g>
     <g id="line2d_8">
      <g>
       <use style="stroke:#000000;stroke-width:0.8;" x="209.990159" xlink:href="#m13c7f7cc46" y="288.430125"/>
      </g>
     </g>
     <g id="text_4">
      <!-- 600 -->
      <defs>
       <path d="M 33.015625 40.375 
Q 26.375 40.375 22.484375 35.828125 
Q 18.609375 31.296875 18.609375 23.390625 
Q 18.609375 15.53125 22.484375 10.953125 
Q 26.375 6.390625 33.015625 6.390625 
Q 39.65625 6.390625 43.53125 10.953125 
Q 47.40625 15.53125 47.40625 23.390625 
Q 47.40625 31.296875 43.53125 35.828125 
Q 39.65625 40.375 33.015625 40.375 
z
M 52.59375 71.296875 
L 52.59375 62.3125 
Q 48.875 64.0625 45.09375 64.984375 
Q 41.3125 65.921875 37.59375 65.921875 
Q 27.828125 65.921875 22.671875 59.328125 
Q 17.53125 52.734375 16.796875 39.40625 
Q 19.671875 43.65625 24.015625 45.921875 
Q 28.375 48.1875 33.59375 48.1875 
Q 44.578125 48.1875 50.953125 41.515625 
Q 57.328125 34.859375 57.328125 23.390625 
Q 57.328125 12.15625 50.6875 5.359375 
Q 44.046875 -1.421875 33.015625 -1.421875 
Q 20.359375 -1.421875 13.671875 8.265625 
Q 6.984375 17.96875 6.984375 36.375 
Q 6.984375 53.65625 15.1875 63.9375 
Q 23.390625 74.21875 37.203125 74.21875 
Q 40.921875 74.21875 44.703125 73.484375 
Q 48.484375 72.75 52.59375 71.296875 
z
" id="DejaVuSans-54"/>
      </defs>
      <g transform="translate(200.446409 303.028562)scale(0.1 -0.1)">
       <use xlink:href="#DejaVuSans-54"/>
       <use x="63.623047" xlink:href="#DejaVuSans-48"/>
       <use x="127.246094" xlink:href="#DejaVuSans-48"/>
      </g>
     </g>
    </g>
    <g id="xtick_5">
     <g id="line2d_9">
      <path clip-path="url(#pee4de064d7)" d="M 258.920761 288.430125 
L 258.920761 22.318125 
" style="fill:none;stroke:#b0b0b0;stroke-dasharray:2.96,1.28;stroke-dashoffset:0;stroke-width:0.8;"/>
     </g>
     <g id="line2d_10">
      <g>
       <use style="stroke:#000000;stroke-width:0.8;" x="258.920761" xlink:href="#m13c7f7cc46" y="288.430125"/>
      </g>
     </g>
     <g id="text_5">
      <!-- 800 -->
      <defs>
       <path d="M 31.78125 34.625 
Q 24.75 34.625 20.71875 30.859375 
Q 16.703125 27.09375 16.703125 20.515625 
Q 16.703125 13.921875 20.71875 10.15625 
Q 24.75 6.390625 31.78125 6.390625 
Q 38.8125 6.390625 42.859375 10.171875 
Q 46.921875 13.96875 46.921875 20.515625 
Q 46.921875 27.09375 42.890625 30.859375 
Q 38.875 34.625 31.78125 34.625 
z
M 21.921875 38.8125 
Q 15.578125 40.375 12.03125 44.71875 
Q 8.5 49.078125 8.5 55.328125 
Q 8.5 64.0625 14.71875 69.140625 
Q 20.953125 74.21875 31.78125 74.21875 
Q 42.671875 74.21875 48.875 69.140625 
Q 55.078125 64.0625 55.078125 55.328125 
Q 55.078125 49.078125 51.53125 44.71875 
Q 48 40.375 41.703125 38.8125 
Q 48.828125 37.15625 52.796875 32.3125 
Q 56.78125 27.484375 56.78125 20.515625 
Q 56.78125 9.90625 50.3125 4.234375 
Q 43.84375 -1.421875 31.78125 -1.421875 
Q 19.734375 -1.421875 13.25 4.234375 
Q 6.78125 9.90625 6.78125 20.515625 
Q 6.78125 27.484375 10.78125 32.3125 
Q 14.796875 37.15625 21.921875 38.8125 
z
M 18.3125 54.390625 
Q 18.3125 48.734375 21.84375 45.5625 
Q 25.390625 42.390625 31.78125 42.390625 
Q 38.140625 42.390625 41.71875 45.5625 
Q 45.3125 48.734375 45.3125 54.390625 
Q 45.3125 60.0625 41.71875 63.234375 
Q 38.140625 66.40625 31.78125 66.40625 
Q 25.390625 66.40625 21.84375 63.234375 
Q 18.3125 60.0625 18.3125 54.390625 
z
" id="DejaVuSans-56"/>
      </defs>
      <g transform="translate(249.377011 303.028562)scale(0.1 -0.1)">
       <use xlink:href="#DejaVuSans-56"/>
       <use x="63.623047" xlink:href="#DejaVuSans-48"/>
       <use x="127.246094" xlink:href="#DejaVuSans-48"/>
      </g>
     </g>
    </g>
    <g id="xtick_6">
     <g id="line2d_11">
      <path clip-path="url(#pee4de064d7)" d="M 307.851363 288.430125 
L 307.851363 22.318125 
" style="fill:none;stroke:#b0b0b0;stroke-dasharray:2.96,1.28;stroke-dashoffset:0;stroke-width:0.8;"/>
     </g>
     <g id="line2d_12">
      <g>
       <use style="stroke:#000000;stroke-width:0.8;" x="307.851363" xlink:href="#m13c7f7cc46" y="288.430125"/>
      </g>
     </g>
     <g id="text_6">
      <!-- 1000 -->
      <defs>
       <path d="M 12.40625 8.296875 
L 28.515625 8.296875 
L 28.515625 63.921875 
L 10.984375 60.40625 
L 10.984375 69.390625 
L 28.421875 72.90625 
L 38.28125 72.90625 
L 38.28125 8.296875 
L 54.390625 8.296875 
L 54.390625 0 
L 12.40625 0 
z
" id="DejaVuSans-49"/>
      </defs>
      <g transform="translate(295.126363 303.028562)scale(0.1 -0.1)">
       <use xlink:href="#DejaVuSans-49"/>
       <use x="63.623047" xlink:href="#DejaVuSans-48"/>
       <use x="127.246094" xlink:href="#DejaVuSans-48"/>
       <use x="190.869141" xlink:href="#DejaVuSans-48"/>
      </g>
     </g>
    </g>
    <g id="xtick_7">
     <g id="line2d_13">
      <path clip-path="url(#pee4de064d7)" d="M 356.781965 288.430125 
L 356.781965 22.318125 
" style="fill:none;stroke:#b0b0b0;stroke-dasharray:2.96,1.28;stroke-dashoffset:0;stroke-width:0.8;"/>
     </g>
     <g id="line2d_14">
      <g>
       <use style="stroke:#000000;stroke-width:0.8;" x="356.781965" xlink:href="#m13c7f7cc46" y="288.430125"/>
      </g>
     </g>
     <g id="text_7">
      <!-- 1200 -->
      <g transform="translate(344.056965 303.028562)scale(0.1 -0.1)">
       <use xlink:href="#DejaVuSans-49"/>
       <use x="63.623047" xlink:href="#DejaVuSans-50"/>
       <use x="127.246094" xlink:href="#DejaVuSans-48"/>
       <use x="190.869141" xlink:href="#DejaVuSans-48"/>
      </g>
     </g>
    </g>
    <g id="text_8">
     <!-- Day -->
     <defs>
      <path d="M 19.671875 64.796875 
L 19.671875 8.109375 
L 31.59375 8.109375 
Q 46.6875 8.109375 53.6875 14.9375 
Q 60.6875 21.78125 60.6875 36.53125 
Q 60.6875 51.171875 53.6875 57.984375 
Q 46.6875 64.796875 31.59375 64.796875 
z
M 9.8125 72.90625 
L 30.078125 72.90625 
Q 51.265625 72.90625 61.171875 64.09375 
Q 71.09375 55.28125 71.09375 36.53125 
Q 71.09375 17.671875 61.125 8.828125 
Q 51.171875 0 30.078125 0 
L 9.8125 0 
z
" id="DejaVuSans-68"/>
      <path d="M 34.28125 27.484375 
Q 23.390625 27.484375 19.1875 25 
Q 14.984375 22.515625 14.984375 16.5 
Q 14.984375 11.71875 18.140625 8.90625 
Q 21.296875 6.109375 26.703125 6.109375 
Q 34.1875 6.109375 38.703125 11.40625 
Q 43.21875 16.703125 43.21875 25.484375 
L 43.21875 27.484375 
z
M 52.203125 31.203125 
L 52.203125 0 
L 43.21875 0 
L 43.21875 8.296875 
Q 40.140625 3.328125 35.546875 0.953125 
Q 30.953125 -1.421875 24.3125 -1.421875 
Q 15.921875 -1.421875 10.953125 3.296875 
Q 6 8.015625 6 15.921875 
Q 6 25.140625 12.171875 29.828125 
Q 18.359375 34.515625 30.609375 34.515625 
L 43.21875 34.515625 
L 43.21875 35.40625 
Q 43.21875 41.609375 39.140625 45 
Q 35.0625 48.390625 27.6875 48.390625 
Q 23 48.390625 18.546875 47.265625 
Q 14.109375 46.140625 10.015625 43.890625 
L 10.015625 52.203125 
Q 14.9375 54.109375 19.578125 55.046875 
Q 24.21875 56 28.609375 56 
Q 40.484375 56 46.34375 49.84375 
Q 52.203125 43.703125 52.203125 31.203125 
z
" id="DejaVuSans-97"/>
      <path d="M 32.171875 -5.078125 
Q 28.375 -14.84375 24.75 -17.8125 
Q 21.140625 -20.796875 15.09375 -20.796875 
L 7.90625 -20.796875 
L 7.90625 -13.28125 
L 13.1875 -13.28125 
Q 16.890625 -13.28125 18.9375 -11.515625 
Q 21 -9.765625 23.484375 -3.21875 
L 25.09375 0.875 
L 2.984375 54.6875 
L 12.5 54.6875 
L 29.59375 11.921875 
L 46.6875 54.6875 
L 56.203125 54.6875 
z
" id="DejaVuSans-121"/>
     </defs>
     <g transform="translate(215.652188 316.706687)scale(0.1 -0.1)">
      <use xlink:href="#DejaVuSans-68"/>
      <use x="77.001953" xlink:href="#DejaVuSans-97"/>
      <use x="138.28125" xlink:href="#DejaVuSans-121"/>
     </g>
    </g>
   </g>
   <g id="matplotlib.axis_2">
    <g id="ytick_1">
     <g id="line2d_15">
      <path clip-path="url(#pee4de064d7)" d="M 46.965625 266.525168 
L 404.085625 266.525168 
" style="fill:none;stroke:#b0b0b0;stroke-dasharray:2.96,1.28;stroke-dashoffset:0;stroke-width:0.8;"/>
     </g>
     <g id="line2d_16">
      <defs>
       <path d="M 0 0 
L -3.5 0 
" id="m5b4b810bdf" style="stroke:#000000;stroke-width:0.8;"/>
      </defs>
      <g>
       <use style="stroke:#000000;stroke-width:0.8;" x="46.965625" xlink:href="#m5b4b810bdf" y="266.525168"/>
      </g>
     </g>
     <g id="text_9">
      <!-- 50 -->
      <defs>
       <path d="M 10.796875 72.90625 
L 49.515625 72.90625 
L 49.515625 64.59375 
L 19.828125 64.59375 
L 19.828125 46.734375 
Q 21.96875 47.46875 24.109375 47.828125 
Q 26.265625 48.1875 28.421875 48.1875 
Q 40.625 48.1875 47.75 41.5 
Q 54.890625 34.8125 54.890625 23.390625 
Q 54.890625 11.625 47.5625 5.09375 
Q 40.234375 -1.421875 26.90625 -1.421875 
Q 22.3125 -1.421875 17.546875 -0.640625 
Q 12.796875 0.140625 7.71875 1.703125 
L 7.71875 11.625 
Q 12.109375 9.234375 16.796875 8.0625 
Q 21.484375 6.890625 26.703125 6.890625 
Q 35.15625 6.890625 40.078125 11.328125 
Q 45.015625 15.765625 45.015625 23.390625 
Q 45.015625 31 40.078125 35.4375 
Q 35.15625 39.890625 26.703125 39.890625 
Q 22.75 39.890625 18.8125 39.015625 
Q 14.890625 38.140625 10.796875 36.28125 
z
" id="DejaVuSans-53"/>
      </defs>
      <g transform="translate(27.240625 270.324387)scale(0.1 -0.1)">
       <use xlink:href="#DejaVuSans-53"/>
       <use x="63.623047" xlink:href="#DejaVuSans-48"/>
      </g>
     </g>
    </g>
    <g id="ytick_2">
     <g id="line2d_17">
      <path clip-path="url(#pee4de064d7)" d="M 46.965625 234.148122 
L 404.085625 234.148122 
" style="fill:none;stroke:#b0b0b0;stroke-dasharray:2.96,1.28;stroke-dashoffset:0;stroke-width:0.8;"/>
     </g>
     <g id="line2d_18">
      <g>
       <use style="stroke:#000000;stroke-width:0.8;" x="46.965625" xlink:href="#m5b4b810bdf" y="234.148122"/>
      </g>
     </g>
     <g id="text_10">
      <!-- 60 -->
      <g transform="translate(27.240625 237.947341)scale(0.1 -0.1)">
       <use xlink:href="#DejaVuSans-54"/>
       <use x="63.623047" xlink:href="#DejaVuSans-48"/>
      </g>
     </g>
    </g>
    <g id="ytick_3">
     <g id="line2d_19">
      <path clip-path="url(#pee4de064d7)" d="M 46.965625 201.771076 
L 404.085625 201.771076 
" style="fill:none;stroke:#b0b0b0;stroke-dasharray:2.96,1.28;stroke-dashoffset:0;stroke-width:0.8;"/>
     </g>
     <g id="line2d_20">
      <g>
       <use style="stroke:#000000;stroke-width:0.8;" x="46.965625" xlink:href="#m5b4b810bdf" y="201.771076"/>
      </g>
     </g>
     <g id="text_11">
      <!-- 70 -->
      <defs>
       <path d="M 8.203125 72.90625 
L 55.078125 72.90625 
L 55.078125 68.703125 
L 28.609375 0 
L 18.3125 0 
L 43.21875 64.59375 
L 8.203125 64.59375 
z
" id="DejaVuSans-55"/>
      </defs>
      <g transform="translate(27.240625 205.570295)scale(0.1 -0.1)">
       <use xlink:href="#DejaVuSans-55"/>
       <use x="63.623047" xlink:href="#DejaVuSans-48"/>
      </g>
     </g>
    </g>
    <g id="ytick_4">
     <g id="line2d_21">
      <path clip-path="url(#pee4de064d7)" d="M 46.965625 169.39403 
L 404.085625 169.39403 
" style="fill:none;stroke:#b0b0b0;stroke-dasharray:2.96,1.28;stroke-dashoffset:0;stroke-width:0.8;"/>
     </g>
     <g id="line2d_22">
      <g>
       <use style="stroke:#000000;stroke-width:0.8;" x="46.965625" xlink:href="#m5b4b810bdf" y="169.39403"/>
      </g>
     </g>
     <g id="text_12">
      <!-- 80 -->
      <g transform="translate(27.240625 173.193249)scale(0.1 -0.1)">
       <use xlink:href="#DejaVuSans-56"/>
       <use x="63.623047" xlink:href="#DejaVuSans-48"/>
      </g>
     </g>
    </g>
    <g id="ytick_5">
     <g id="line2d_23">
      <path clip-path="url(#pee4de064d7)" d="M 46.965625 137.016984 
L 404.085625 137.016984 
" style="fill:none;stroke:#b0b0b0;stroke-dasharray:2.96,1.28;stroke-dashoffset:0;stroke-width:0.8;"/>
     </g>
     <g id="line2d_24">
      <g>
       <use style="stroke:#000000;stroke-width:0.8;" x="46.965625" xlink:href="#m5b4b810bdf" y="137.016984"/>
      </g>
     </g>
     <g id="text_13">
      <!-- 90 -->
      <defs>
       <path d="M 10.984375 1.515625 
L 10.984375 10.5 
Q 14.703125 8.734375 18.5 7.8125 
Q 22.3125 6.890625 25.984375 6.890625 
Q 35.75 6.890625 40.890625 13.453125 
Q 46.046875 20.015625 46.78125 33.40625 
Q 43.953125 29.203125 39.59375 26.953125 
Q 35.25 24.703125 29.984375 24.703125 
Q 19.046875 24.703125 12.671875 31.3125 
Q 6.296875 37.9375 6.296875 49.421875 
Q 6.296875 60.640625 12.9375 67.421875 
Q 19.578125 74.21875 30.609375 74.21875 
Q 43.265625 74.21875 49.921875 64.515625 
Q 56.59375 54.828125 56.59375 36.375 
Q 56.59375 19.140625 48.40625 8.859375 
Q 40.234375 -1.421875 26.421875 -1.421875 
Q 22.703125 -1.421875 18.890625 -0.6875 
Q 15.09375 0.046875 10.984375 1.515625 
z
M 30.609375 32.421875 
Q 37.25 32.421875 41.125 36.953125 
Q 45.015625 41.5 45.015625 49.421875 
Q 45.015625 57.28125 41.125 61.84375 
Q 37.25 66.40625 30.609375 66.40625 
Q 23.96875 66.40625 20.09375 61.84375 
Q 16.21875 57.28125 16.21875 49.421875 
Q 16.21875 41.5 20.09375 36.953125 
Q 23.96875 32.421875 30.609375 32.421875 
z
" id="DejaVuSans-57"/>
      </defs>
      <g transform="translate(27.240625 140.816203)scale(0.1 -0.1)">
       <use xlink:href="#DejaVuSans-57"/>
       <use x="63.623047" xlink:href="#DejaVuSans-48"/>
      </g>
     </g>
    </g>
    <g id="ytick_6">
     <g id="line2d_25">
      <path clip-path="url(#pee4de064d7)" d="M 46.965625 104.639938 
L 404.085625 104.639938 
" style="fill:none;stroke:#b0b0b0;stroke-dasharray:2.96,1.28;stroke-dashoffset:0;stroke-width:0.8;"/>
     </g>
     <g id="line2d_26">
      <g>
       <use style="stroke:#000000;stroke-width:0.8;" x="46.965625" xlink:href="#m5b4b810bdf" y="104.639938"/>
      </g>
     </g>
     <g id="text_14">
      <!-- 100 -->
      <g transform="translate(20.878125 108.439157)scale(0.1 -0.1)">
       <use xlink:href="#DejaVuSans-49"/>
       <use x="63.623047" xlink:href="#DejaVuSans-48"/>
       <use x="127.246094" xlink:href="#DejaVuSans-48"/>
      </g>
     </g>
    </g>
    <g id="ytick_7">
     <g id="line2d_27">
      <path clip-path="url(#pee4de064d7)" d="M 46.965625 72.262892 
L 404.085625 72.262892 
" style="fill:none;stroke:#b0b0b0;stroke-dasharray:2.96,1.28;stroke-dashoffset:0;stroke-width:0.8;"/>
     </g>
     <g id="line2d_28">
      <g>
       <use style="stroke:#000000;stroke-width:0.8;" x="46.965625" xlink:href="#m5b4b810bdf" y="72.262892"/>
      </g>
     </g>
     <g id="text_15">
      <!-- 110 -->
      <g transform="translate(20.878125 76.062111)scale(0.1 -0.1)">
       <use xlink:href="#DejaVuSans-49"/>
       <use x="63.623047" xlink:href="#DejaVuSans-49"/>
       <use x="127.246094" xlink:href="#DejaVuSans-48"/>
      </g>
     </g>
    </g>
    <g id="ytick_8">
     <g id="line2d_29">
      <path clip-path="url(#pee4de064d7)" d="M 46.965625 39.885846 
L 404.085625 39.885846 
" style="fill:none;stroke:#b0b0b0;stroke-dasharray:2.96,1.28;stroke-dashoffset:0;stroke-width:0.8;"/>
     </g>
     <g id="line2d_30">
      <g>
       <use style="stroke:#000000;stroke-width:0.8;" x="46.965625" xlink:href="#m5b4b810bdf" y="39.885846"/>
      </g>
     </g>
     <g id="text_16">
      <!-- 120 -->
      <g transform="translate(20.878125 43.685065)scale(0.1 -0.1)">
       <use xlink:href="#DejaVuSans-49"/>
       <use x="63.623047" xlink:href="#DejaVuSans-50"/>
       <use x="127.246094" xlink:href="#DejaVuSans-48"/>
      </g>
     </g>
    </g>
    <g id="text_17">
     <!-- Price $ -->
     <defs>
      <path d="M 19.671875 64.796875 
L 19.671875 37.40625 
L 32.078125 37.40625 
Q 38.96875 37.40625 42.71875 40.96875 
Q 46.484375 44.53125 46.484375 51.125 
Q 46.484375 57.671875 42.71875 61.234375 
Q 38.96875 64.796875 32.078125 64.796875 
z
M 9.8125 72.90625 
L 32.078125 72.90625 
Q 44.34375 72.90625 50.609375 67.359375 
Q 56.890625 61.8125 56.890625 51.125 
Q 56.890625 40.328125 50.609375 34.8125 
Q 44.34375 29.296875 32.078125 29.296875 
L 19.671875 29.296875 
L 19.671875 0 
L 9.8125 0 
z
" id="DejaVuSans-80"/>
      <path d="M 41.109375 46.296875 
Q 39.59375 47.171875 37.8125 47.578125 
Q 36.03125 48 33.890625 48 
Q 26.265625 48 22.1875 43.046875 
Q 18.109375 38.09375 18.109375 28.8125 
L 18.109375 0 
L 9.078125 0 
L 9.078125 54.6875 
L 18.109375 54.6875 
L 18.109375 46.1875 
Q 20.953125 51.171875 25.484375 53.578125 
Q 30.03125 56 36.53125 56 
Q 37.453125 56 38.578125 55.875 
Q 39.703125 55.765625 41.0625 55.515625 
z
" id="DejaVuSans-114"/>
      <path d="M 9.421875 54.6875 
L 18.40625 54.6875 
L 18.40625 0 
L 9.421875 0 
z
M 9.421875 75.984375 
L 18.40625 75.984375 
L 18.40625 64.59375 
L 9.421875 64.59375 
z
" id="DejaVuSans-105"/>
      <path d="M 48.78125 52.59375 
L 48.78125 44.1875 
Q 44.96875 46.296875 41.140625 47.34375 
Q 37.3125 48.390625 33.40625 48.390625 
Q 24.65625 48.390625 19.8125 42.84375 
Q 14.984375 37.3125 14.984375 27.296875 
Q 14.984375 17.28125 19.8125 11.734375 
Q 24.65625 6.203125 33.40625 6.203125 
Q 37.3125 6.203125 41.140625 7.25 
Q 44.96875 8.296875 48.78125 10.40625 
L 48.78125 2.09375 
Q 45.015625 0.34375 40.984375 -0.53125 
Q 36.96875 -1.421875 32.421875 -1.421875 
Q 20.0625 -1.421875 12.78125 6.34375 
Q 5.515625 14.109375 5.515625 27.296875 
Q 5.515625 40.671875 12.859375 48.328125 
Q 20.21875 56 33.015625 56 
Q 37.15625 56 41.109375 55.140625 
Q 45.0625 54.296875 48.78125 52.59375 
z
" id="DejaVuSans-99"/>
      <path d="M 56.203125 29.59375 
L 56.203125 25.203125 
L 14.890625 25.203125 
Q 15.484375 15.921875 20.484375 11.0625 
Q 25.484375 6.203125 34.421875 6.203125 
Q 39.59375 6.203125 44.453125 7.46875 
Q 49.3125 8.734375 54.109375 11.28125 
L 54.109375 2.78125 
Q 49.265625 0.734375 44.1875 -0.34375 
Q 39.109375 -1.421875 33.890625 -1.421875 
Q 20.796875 -1.421875 13.15625 6.1875 
Q 5.515625 13.8125 5.515625 26.8125 
Q 5.515625 40.234375 12.765625 48.109375 
Q 20.015625 56 32.328125 56 
Q 43.359375 56 49.78125 48.890625 
Q 56.203125 41.796875 56.203125 29.59375 
z
M 47.21875 32.234375 
Q 47.125 39.59375 43.09375 43.984375 
Q 39.0625 48.390625 32.421875 48.390625 
Q 24.90625 48.390625 20.390625 44.140625 
Q 15.875 39.890625 15.1875 32.171875 
z
" id="DejaVuSans-101"/>
      <path id="DejaVuSans-32"/>
      <path d="M 33.796875 -14.703125 
L 28.90625 -14.703125 
L 28.859375 0 
Q 23.734375 0.09375 18.609375 1.1875 
Q 13.484375 2.296875 8.296875 4.5 
L 8.296875 13.28125 
Q 13.28125 10.15625 18.375 8.5625 
Q 23.484375 6.984375 28.90625 6.9375 
L 28.90625 29.203125 
Q 18.109375 30.953125 13.203125 35.15625 
Q 8.296875 39.359375 8.296875 46.6875 
Q 8.296875 54.640625 13.625 59.21875 
Q 18.953125 63.8125 28.90625 64.5 
L 28.90625 75.984375 
L 33.796875 75.984375 
L 33.796875 64.65625 
Q 38.328125 64.453125 42.578125 63.6875 
Q 46.828125 62.9375 50.875 61.625 
L 50.875 53.078125 
Q 46.828125 55.125 42.546875 56.25 
Q 38.28125 57.375 33.796875 57.5625 
L 33.796875 36.71875 
Q 44.875 35.015625 50.09375 30.609375 
Q 55.328125 26.21875 55.328125 18.609375 
Q 55.328125 10.359375 49.78125 5.59375 
Q 44.234375 0.828125 33.796875 0.09375 
z
M 28.90625 37.59375 
L 28.90625 57.625 
Q 23.25 56.984375 20.265625 54.390625 
Q 17.28125 51.8125 17.28125 47.515625 
Q 17.28125 43.3125 20.03125 40.96875 
Q 22.796875 38.625 28.90625 37.59375 
z
M 33.796875 28.21875 
L 33.796875 7.078125 
Q 39.984375 7.90625 43.140625 10.59375 
Q 46.296875 13.28125 46.296875 17.671875 
Q 46.296875 21.96875 43.28125 24.5 
Q 40.28125 27.046875 33.796875 28.21875 
z
" id="DejaVuSans-36"/>
     </defs>
     <g transform="translate(14.798438 172.342094)rotate(-90)scale(0.1 -0.1)">
      <use xlink:href="#DejaVuSans-80"/>
      <use x="58.552734" xlink:href="#DejaVuSans-114"/>
      <use x="99.666016" xlink:href="#DejaVuSans-105"/>
      <use x="127.449219" xlink:href="#DejaVuSans-99"/>
      <use x="182.429688" xlink:href="#DejaVuSans-101"/>
      <use x="243.953125" xlink:href="#DejaVuSans-32"/>
      <use x="275.740234" xlink:href="#DejaVuSans-36"/>
     </g>
    </g>
   </g>
   <g id="line2d_31">
    <path clip-path="url(#pee4de064d7)" d="M 63.198352 270.323713 
L 63.443005 267.047141 
L 63.687658 266.4004 
L 63.932311 266.881528 
L 64.421617 269.407218 
L 64.66627 268.045078 
L 64.910923 265.979581 
L 65.155576 266.930586 
L 65.400229 266.846464 
L 65.644882 265.736393 
L 66.134188 267.604066 
L 66.378841 266.922693 
L 66.623494 267.496057 
L 66.868147 266.771087 
L 67.1128 266.425398 
L 67.357453 265.813265 
L 67.602106 265.697018 
L 67.846759 268.062048 
L 68.091412 268.279991 
L 68.336066 269.313005 
L 68.825372 267.879144 
L 69.070025 267.937193 
L 69.314678 267.116071 
L 69.559331 269.189052 
L 70.048637 267.979421 
L 70.537943 261.950891 
L 70.782596 260.637327 
L 71.271902 261.766443 
L 71.516555 261.277484 
L 71.761208 259.232305 
L 72.005861 259.743618 
L 72.250514 259.801322 
L 72.495167 260.534148 
L 72.73982 259.040965 
L 73.473779 257.544399 
L 73.718432 257.712198 
L 73.963085 259.697488 
L 74.207738 259.177443 
L 74.697044 260.775422 
L 74.941697 262.160583 
L 75.18635 259.597989 
L 75.431003 259.519191 
L 75.675656 258.52034 
L 76.164962 262.701391 
L 76.409615 263.210222 
L 76.654268 265.915653 
L 76.898921 265.381479 
L 77.143574 265.281239 
L 77.63288 260.127199 
L 77.877533 259.989055 
L 78.122186 261.365114 
L 78.366839 261.370943 
L 78.611492 265.026404 
L 78.856145 265.367065 
L 79.590104 269.169056 
L 80.07941 266.369066 
L 80.324063 265.473023 
L 80.568716 265.824418 
L 80.813369 267.543386 
L 81.058022 266.796332 
L 81.302675 276.334125 
L 81.547328 274.497589 
L 81.791981 273.757673 
L 82.036634 276.133868 
L 82.281287 275.759007 
L 82.52594 274.896262 
L 83.015246 271.577462 
L 83.259899 270.778423 
L 83.504552 269.55213 
L 83.749205 270.017696 
L 83.993858 270.853936 
L 84.238511 270.129595 
L 84.483164 268.633127 
L 84.727817 268.229711 
L 84.97247 268.934847 
L 85.217123 269.151234 
L 85.461776 268.839263 
L 85.706429 270.798085 
L 85.951082 269.340301 
L 86.685041 267.998342 
L 86.929694 269.983101 
L 87.174347 270.195252 
L 87.419 269.477099 
L 87.663653 266.669525 
L 87.908306 266.461673 
L 88.152959 264.353306 
L 88.397612 266.272161 
L 88.642265 266.391582 
L 88.886918 266.925275 
L 89.131571 268.329444 
L 89.376224 268.866423 
L 89.620877 267.439491 
L 89.86553 262.363014 
L 90.110183 262.328321 
L 90.354836 259.629645 
L 90.599489 263.712247 
L 90.844143 263.973208 
L 91.088796 263.439626 
L 91.333449 263.333421 
L 91.578102 264.313339 
L 91.822755 264.659855 
L 92.312061 261.718176 
L 92.556714 258.854875 
L 92.801367 259.401561 
L 93.04602 258.183309 
L 93.290673 254.209049 
L 93.779979 252.742408 
L 94.024632 252.718522 
L 94.269285 253.984954 
L 94.513938 254.533567 
L 94.758591 254.02943 
L 95.003244 251.774595 
L 95.247897 253.872166 
L 95.737203 251.712877 
L 95.981856 252.867646 
L 96.471162 251.078759 
L 96.960468 250.312351 
L 97.205121 250.795603 
L 97.694427 248.144157 
L 97.93908 251.153112 
L 98.183733 252.483794 
L 98.428386 252.878675 
L 98.673039 254.501344 
L 98.917692 253.997095 
L 99.162345 252.428351 
L 99.406998 251.896658 
L 99.896304 248.658892 
L 100.140957 246.172033 
L 100.630263 246.470158 
L 100.874916 243.835942 
L 101.119569 242.405316 
L 101.364222 243.796826 
L 101.608875 243.190337 
L 101.853528 241.982312 
L 102.098181 242.647159 
L 102.587487 246.140996 
L 102.83214 244.25634 
L 103.076793 246.217003 
L 103.321446 245.066051 
L 103.566099 246.531431 
L 103.810752 244.869054 
L 104.055405 245.977371 
L 104.300058 244.619863 
L 104.544711 244.765888 
L 104.789364 242.464045 
L 105.034017 243.181716 
L 105.27867 242.07435 
L 105.523323 242.415457 
L 105.767976 238.484535 
L 106.012629 237.029196 
L 106.257282 234.031592 
L 106.501935 232.602758 
L 106.746588 232.680432 
L 106.991241 237.203479 
L 107.235894 232.187411 
L 107.480547 232.006878 
L 107.7252 233.647245 
L 107.969853 229.616875 
L 108.459159 226.06778 
L 108.703812 227.530518 
L 108.948465 227.789379 
L 109.193118 227.863596 
L 109.437771 223.983165 
L 109.682424 225.044203 
L 110.17173 221.45934 
L 110.416383 218.569633 
L 110.661036 217.52018 
L 110.905689 214.894337 
L 111.150342 215.622742 
L 111.639648 210.930699 
L 111.884301 210.314069 
L 112.128954 210.100844 
L 112.373607 209.652829 
L 112.61826 212.796 
L 113.107566 214.196687 
L 113.35222 214.939146 
L 113.596873 215.312365 
L 113.841526 217.319874 
L 114.086179 217.754526 
L 114.330832 212.605723 
L 114.575485 214.550564 
L 115.064791 222.705048 
L 115.554097 221.066508 
L 115.79875 224.346058 
L 116.043403 223.755044 
L 116.288056 218.635043 
L 116.532709 221.521823 
L 116.777362 221.920558 
L 117.022015 223.660004 
L 117.266668 221.09951 
L 117.511321 222.325049 
L 118.000627 217.218202 
L 118.24528 220.4419 
L 118.489933 227.806078 
L 118.734586 225.352344 
L 118.979239 226.728712 
L 119.713198 222.136896 
L 119.957851 223.735876 
L 120.202504 221.032198 
L 120.447157 223.481263 
L 120.936463 222.177234 
L 121.181116 219.112948 
L 121.425769 218.099979 
L 121.670422 217.68914 
L 121.915075 214.208469 
L 122.159728 212.481621 
L 122.649034 217.66392 
L 122.893687 217.823394 
L 123.13834 214.876676 
L 123.627646 219.506347 
L 123.872299 219.385556 
L 124.116952 218.895819 
L 124.361605 219.870673 
L 124.606258 218.588357 
L 125.095564 220.476335 
L 125.340217 218.987537 
L 125.829523 213.486265 
L 126.074176 215.238062 
L 126.318829 211.730244 
L 126.563482 216.667699 
L 126.808135 215.544437 
L 127.297441 221.29884 
L 127.542094 221.72313 
L 127.786747 221.653582 
L 128.0314 226.586862 
L 128.520706 228.194278 
L 128.765359 227.831842 
L 129.010012 230.265332 
L 129.254665 228.838375 
L 129.499318 228.578995 
L 129.743971 229.921126 
L 129.988624 232.020044 
L 130.233277 231.488438 
L 130.47793 230.684187 
L 130.722583 231.774237 
L 130.967236 230.592247 
L 131.211889 230.743891 
L 131.456542 229.806386 
L 131.701195 229.719659 
L 131.945848 229.223722 
L 132.679807 217.399068 
L 132.92446 213.228206 
L 133.169113 211.484165 
L 133.413766 212.051638 
L 133.658419 212.270224 
L 133.903072 215.868055 
L 134.147725 217.609452 
L 134.392378 218.417792 
L 134.637031 219.813044 
L 134.881684 219.879739 
L 135.126337 217.610786 
L 135.37099 217.444717 
L 135.615643 219.566372 
L 135.860297 218.459587 
L 136.10495 218.330891 
L 136.349603 220.801483 
L 136.594256 217.244558 
L 137.083562 220.806943 
L 137.328215 222.1221 
L 137.572868 216.191351 
L 138.062174 212.6283 
L 138.306827 213.678123 
L 138.55148 213.321579 
L 138.796133 213.628028 
L 139.285439 209.883 
L 139.530092 205.501136 
L 139.774745 207.461588 
L 140.019398 205.072635 
L 140.264051 204.10329 
L 140.508704 204.870674 
L 140.753357 204.969036 
L 140.99801 206.674023 
L 141.242663 206.249919 
L 141.487316 205.061396 
L 141.976622 206.143603 
L 142.221275 205.303744 
L 142.465928 210.084788 
L 142.710581 206.416532 
L 142.955234 206.786539 
L 143.199887 208.38321 
L 143.689193 202.045809 
L 143.933846 201.832065 
L 144.423152 204.346206 
L 144.667805 204.506447 
L 144.912458 202.312588 
L 145.157111 201.272151 
L 145.401764 202.686695 
L 145.646417 198.294728 
L 145.89107 199.503532 
L 146.135723 199.54135 
L 146.380376 198.231418 
L 146.625029 202.157337 
L 146.869682 202.068534 
L 147.114335 200.651545 
L 147.358988 196.950436 
L 147.603641 198.641516 
L 147.848294 197.067102 
L 148.092947 199.390843 
L 148.3376 203.47305 
L 148.582253 203.216498 
L 148.826906 200.244633 
L 149.071559 200.127399 
L 149.560865 192.797532 
L 149.805518 193.525023 
L 150.539477 187.089655 
L 150.78413 187.843354 
L 151.028783 181.522726 
L 151.273436 181.393141 
L 151.518089 181.505682 
L 151.762742 181.751513 
L 152.007395 182.455414 
L 152.252048 182.066979 
L 152.496701 185.028469 
L 152.741354 186.061149 
L 152.986007 184.578749 
L 153.23066 190.974495 
L 153.475313 187.621631 
L 153.719966 187.452276 
L 154.209272 188.841106 
L 154.453925 188.345021 
L 154.698578 184.739063 
L 154.943231 186.822555 
L 155.187884 192.808203 
L 155.432537 194.310908 
L 155.67719 192.35342 
L 155.921843 197.78528 
L 156.166496 191.052923 
L 156.411149 193.69707 
L 156.655802 200.606637 
L 157.145108 196.446718 
L 157.389761 181.712633 
L 157.634414 184.236309 
L 158.12372 176.724984 
L 158.368374 176.387879 
L 158.613027 176.507436 
L 158.85768 172.603031 
L 159.102333 170.753317 
L 159.346986 172.529173 
L 159.591639 172.120755 
L 160.080945 166.995542 
L 160.325598 168.589569 
L 160.570251 168.689216 
L 160.814904 168.455439 
L 161.059557 166.959774 
L 161.30421 171.502372 
L 161.548863 163.424265 
L 162.038169 158.277389 
L 162.282822 162.250538 
L 162.527475 163.063694 
L 162.772128 165.353297 
L 163.016781 165.664564 
L 163.261434 168.494418 
L 163.506087 168.950906 
L 163.75074 164.924525 
L 163.995393 163.05579 
L 164.240046 167.270126 
L 164.484699 166.978745 
L 164.729352 167.171097 
L 164.974005 169.917904 
L 165.218658 170.384767 
L 165.707964 174.531545 
L 165.952617 172.67605 
L 166.441923 164.092916 
L 166.686576 164.030791 
L 166.931229 163.59115 
L 167.175882 166.363301 
L 167.420535 171.363474 
L 167.665188 171.131228 
L 167.909841 168.101858 
L 168.154494 176.066584 
L 168.399147 177.925241 
L 168.6438 176.861238 
L 168.888453 177.294087 
L 169.377759 169.722489 
L 169.622412 171.970371 
L 169.867065 170.659697 
L 170.111718 170.97462 
L 170.356371 170.529741 
L 170.601024 174.707915 
L 170.845677 176.100178 
L 172.068942 166.010857 
L 172.313595 165.716561 
L 172.558248 167.001174 
L 172.802901 164.40769 
L 173.047554 163.561829 
L 173.292207 161.443014 
L 173.53686 162.327558 
L 174.026166 169.006386 
L 174.270819 169.102278 
L 174.515472 166.275462 
L 174.760125 166.007102 
L 175.004778 162.556444 
L 175.249431 161.528235 
L 175.738737 157.505732 
L 175.98339 157.199332 
L 176.717349 155.604885 
L 176.962002 156.632822 
L 177.206655 156.190414 
L 177.451308 154.429132 
L 177.695961 153.911359 
L 177.940614 151.724243 
L 178.42992 154.816504 
L 178.674573 159.529198 
L 178.919226 160.880679 
L 179.163879 158.954612 
L 179.408532 158.937419 
L 179.653185 157.618816 
L 179.897838 157.223021 
L 180.142491 159.628203 
L 180.387144 159.909259 
L 180.631798 159.500717 
L 181.121104 154.880457 
L 181.855063 148.351149 
L 182.099716 148.458996 
L 182.344369 147.488984 
L 182.589022 148.260469 
L 182.833675 150.142864 
L 183.078328 145.83797 
L 183.322981 147.340823 
L 183.812287 147.041438 
L 184.05694 149.516403 
L 184.546246 152.511216 
L 184.790899 151.224651 
L 185.035552 151.192045 
L 185.280205 150.21235 
L 185.524858 150.068536 
L 185.769511 147.62472 
L 186.014164 148.905678 
L 186.258817 147.059915 
L 186.50347 149.228875 
L 186.748123 146.462603 
L 186.992776 150.441557 
L 187.237429 151.547033 
L 187.482082 145.88725 
L 187.726735 147.64794 
L 187.971388 147.325335 
L 188.216041 150.642752 
L 188.705347 145.295471 
L 188.95 145.90175 
L 189.194653 144.616519 
L 189.683959 139.544712 
L 189.928612 136.930429 
L 190.173265 136.63433 
L 190.417918 137.38546 
L 190.662571 135.655499 
L 190.907224 135.074811 
L 191.151877 135.036029 
L 191.39653 136.22354 
L 191.641183 136.153609 
L 191.885836 135.923587 
L 192.130489 136.905011 
L 192.375142 134.535424 
L 192.619795 133.661872 
L 192.864448 136.188982 
L 193.109101 133.612098 
L 193.353754 134.823817 
L 193.598407 137.427403 
L 193.84306 138.15435 
L 194.087713 137.397984 
L 194.332366 137.516552 
L 194.821672 136.510722 
L 195.066325 135.677014 
L 195.310978 136.052975 
L 195.555631 134.888708 
L 196.044937 141.557112 
L 196.28959 138.798547 
L 196.534243 142.084889 
L 196.778896 141.033114 
L 197.023549 141.494864 
L 197.268202 139.8604 
L 197.757508 147.694972 
L 198.002161 141.628969 
L 198.246814 141.176063 
L 198.491467 145.818851 
L 198.73612 143.746278 
L 198.980773 149.854397 
L 199.225426 148.64048 
L 199.470079 155.704309 
L 199.714732 154.835278 
L 199.959385 164.201653 
L 200.204038 164.384001 
L 200.693344 150.658883 
L 200.937997 144.212251 
L 201.18265 145.272079 
L 201.427303 142.551035 
L 201.671956 141.774586 
L 201.916609 141.623387 
L 202.161262 137.007326 
L 202.405915 138.619459 
L 202.650568 136.82604 
L 202.895221 131.961405 
L 203.139875 131.948758 
L 203.384528 135.599599 
L 203.629181 134.002608 
L 203.873834 130.694454 
L 204.118487 138.488664 
L 204.36314 137.50966 
L 204.607793 137.204445 
L 204.852446 136.675853 
L 205.097099 134.453661 
L 205.341752 133.866501 
L 205.586405 135.449561 
L 205.831058 135.460652 
L 206.075711 137.275463 
L 206.320364 140.016613 
L 206.565017 139.575638 
L 207.054323 131.733211 
L 207.298976 130.911607 
L 207.543629 128.474979 
L 207.788282 128.552987 
L 208.032935 126.155438 
L 208.277588 126.502769 
L 208.522241 126.480018 
L 208.766894 124.685018 
L 209.011547 124.518652 
L 209.500853 131.025704 
L 209.745506 131.592312 
L 209.990159 131.243153 
L 210.479465 135.175372 
L 210.724118 132.640456 
L 210.968771 128.089558 
L 211.213424 127.916942 
L 211.458077 123.493506 
L 211.70273 121.704285 
L 211.947383 122.022444 
L 212.436689 119.039982 
L 212.925995 122.11095 
L 213.170648 123.955724 
L 213.415301 128.86376 
L 213.659954 130.240683 
L 214.393913 122.530632 
L 214.638566 122.658315 
L 214.883219 119.220576 
L 215.127872 123.070686 
L 215.372525 122.228703 
L 215.617178 120.183647 
L 216.106484 122.928528 
L 216.351137 120.4236 
L 216.59579 121.161366 
L 216.840443 121.417548 
L 217.329749 127.005646 
L 217.574402 127.012588 
L 217.819055 133.172951 
L 218.063708 130.951772 
L 218.308361 124.039784 
L 218.553014 97.697345 
L 218.797667 96.915387 
L 219.286973 98.365477 
L 219.531626 98.696579 
L 219.776279 98.438619 
L 220.020932 93.668419 
L 220.265585 91.088744 
L 220.510238 91.010884 
L 220.754891 91.821521 
L 220.999544 91.767375 
L 221.244197 90.793139 
L 221.48885 88.940287 
L 221.733503 89.641865 
L 221.978156 86.891007 
L 222.222809 89.419871 
L 222.467462 90.486812 
L 222.712115 85.983836 
L 222.956768 84.449884 
L 223.201421 86.95575 
L 223.446074 87.663825 
L 223.690727 91.671902 
L 223.93538 87.956516 
L 224.180033 94.176682 
L 224.424686 94.218799 
L 224.669339 82.403346 
L 224.913992 84.028225 
L 225.158645 80.536093 
L 225.403298 82.167172 
L 225.647952 79.743241 
L 225.892605 80.410583 
L 226.137258 77.583298 
L 226.381911 77.40053 
L 226.626564 81.220454 
L 226.871217 87.258816 
L 227.11587 88.164331 
L 227.360523 86.704509 
L 227.605176 84.274921 
L 227.849829 87.880929 
L 228.094482 87.099094 
L 228.339135 85.658119 
L 228.583788 85.690923 
L 228.828441 85.460653 
L 229.317747 82.477747 
L 229.5624 81.797165 
L 230.051706 82.456924 
L 230.296359 81.71103 
L 230.541012 78.378619 
L 230.785665 82.882559 
L 231.030318 77.56114 
L 231.274971 79.250294 
L 231.519624 78.97608 
L 232.00893 73.317013 
L 232.253583 70.620474 
L 232.498236 72.293324 
L 232.742889 72.413745 
L 232.987542 75.95617 
L 233.232195 70.160676 
L 233.476848 68.82745 
L 233.721501 68.482515 
L 234.210807 74.288038 
L 234.45546 70.949748 
L 234.700113 75.830587 
L 234.944766 74.869986 
L 235.189419 74.393317 
L 235.434072 72.218626 
L 235.678725 71.188392 
L 235.923378 70.663258 
L 236.168031 69.837034 
L 236.412684 70.939522 
L 236.90199 70.256889 
L 237.146643 73.00009 
L 237.391296 70.753271 
L 237.635949 70.002388 
L 237.880602 70.895874 
L 238.125255 68.108951 
L 238.369908 69.340678 
L 238.614561 68.276478 
L 238.859214 70.933741 
L 239.103867 71.218775 
L 239.593173 76.642705 
L 239.837826 72.210327 
L 240.082479 69.875223 
L 240.327132 71.831402 
L 240.571785 71.970275 
L 240.816438 68.675831 
L 241.061091 67.063401 
L 241.305744 61.415005 
L 241.550397 62.862872 
L 242.039703 57.763004 
L 242.284356 59.288039 
L 242.529009 56.736276 
L 242.773662 55.779406 
L 243.018315 61.674374 
L 243.507621 55.486863 
L 243.752274 55.764313 
L 243.996927 54.303873 
L 244.24158 50.042183 
L 244.486233 54.842074 
L 244.975539 50.199533 
L 245.220192 45.877793 
L 245.464845 46.555806 
L 245.709498 45.200546 
L 245.954151 42.449687 
L 246.198804 43.432198 
L 246.443457 41.057276 
L 246.68811 41.722098 
L 246.932763 41.632653 
L 247.177416 42.892614 
L 247.422069 42.260694 
L 247.666722 44.56166 
L 247.911375 44.840222 
L 248.156029 40.896813 
L 248.645335 39.584929 
L 248.889988 35.990976 
L 249.134641 35.367134 
L 249.379294 74.246638 
L 249.623947 76.127675 
L 249.8686 74.136098 
L 250.113253 69.398677 
L 250.602559 82.342382 
L 250.847212 79.723406 
L 251.091865 80.166036 
L 251.336518 75.201632 
L 251.581171 79.78973 
L 251.825824 81.762484 
L 252.070477 100.012366 
L 252.31513 106.915313 
L 252.559783 118.09109 
L 253.049089 106.788692 
L 253.293742 97.879743 
L 253.538395 96.336305 
L 253.783048 98.157489 
L 254.027701 104.85099 
L 254.272354 98.230235 
L 254.517007 97.109246 
L 254.76166 100.465519 
L 255.006313 91.373679 
L 255.250966 96.597328 
L 255.495619 96.126933 
L 255.740272 90.971781 
L 255.984925 91.515466 
L 256.229578 93.422934 
L 256.474231 92.061325 
L 256.718884 89.586212 
L 256.963537 93.621708 
L 257.20819 93.165764 
L 257.942149 101.924206 
L 258.186802 102.384226 
L 258.431455 107.549801 
L 258.676108 106.438718 
L 258.920761 97.361352 
L 259.165414 96.297301 
L 259.410067 96.72595 
L 259.65472 92.066414 
L 259.899373 91.249132 
L 260.144026 92.551778 
L 260.388679 90.151215 
L 260.877985 84.029732 
L 261.122638 83.437508 
L 261.367291 84.938657 
L 261.611944 79.280652 
L 261.856597 78.076517 
L 262.345903 72.018073 
L 262.590556 70.500424 
L 262.835209 62.035389 
L 263.324515 60.900716 
L 264.058474 55.475031 
L 264.303127 58.884289 
L 264.54778 55.732275 
L 264.792433 54.231842 
L 265.037086 60.715971 
L 265.281739 62.266993 
L 265.526392 52.925862 
L 265.771045 51.75253 
L 266.015698 49.542887 
L 266.260351 50.059424 
L 266.505004 51.939152 
L 266.749657 55.323585 
L 266.99431 54.091117 
L 267.238963 51.579865 
L 267.728269 43.953084 
L 267.972922 40.303428 
L 268.217575 41.135506 
L 268.462228 46.185897 
L 268.706881 44.024892 
L 268.951534 55.338727 
L 269.196187 59.21754 
L 269.44084 55.589795 
L 269.685493 58.230212 
L 269.930146 64.480416 
L 270.174799 59.244218 
L 270.419452 59.525521 
L 270.908759 66.361674 
L 271.153412 69.079408 
L 271.398065 77.127378 
L 271.642718 74.233349 
L 271.887371 64.613237 
L 272.132024 60.667013 
L 272.376677 64.783901 
L 272.62133 77.536365 
L 272.865983 81.848075 
L 273.110636 82.851213 
L 273.355289 86.116435 
L 273.599942 85.874951 
L 273.844595 81.095982 
L 274.089248 80.955083 
L 274.333901 83.291743 
L 274.578554 86.966051 
L 275.06786 100.414708 
L 275.557166 105.36108 
L 275.801819 105.564104 
L 276.046472 105.227197 
L 276.291125 100.459146 
L 276.535778 107.700531 
L 276.780431 107.920006 
L 277.025084 122.6679 
L 277.269737 122.860771 
L 277.51439 128.165788 
L 277.759043 123.740572 
L 278.003696 114.291841 
L 278.248349 118.820186 
L 278.493002 117.095734 
L 278.982308 124.583173 
L 279.226961 119.221317 
L 279.471614 120.031732 
L 279.716267 126.275414 
L 279.96092 121.263533 
L 280.205573 119.349297 
L 280.450226 123.296213 
L 280.694879 130.444374 
L 280.939532 130.954267 
L 281.184185 142.048503 
L 282.162797 118.967186 
L 282.40745 119.623486 
L 282.652103 119.843455 
L 282.896756 115.903629 
L 283.386062 120.424514 
L 283.875368 118.691391 
L 284.120021 118.627611 
L 284.364674 112.872208 
L 284.609327 113.960146 
L 284.85398 108.947326 
L 285.098633 109.391908 
L 285.343286 106.600069 
L 285.587939 110.94661 
L 285.832592 112.06298 
L 286.077245 114.001349 
L 286.566551 108.511711 
L 286.811204 110.282726 
L 287.055857 109.68361 
L 287.30051 106.078591 
L 287.545163 106.243302 
L 288.279122 113.953872 
L 288.523775 114.170012 
L 288.768428 110.753294 
L 289.013081 111.223788 
L 289.502387 106.215562 
L 289.991693 108.041489 
L 290.236346 114.476066 
L 290.480999 112.791952 
L 290.725652 116.198147 
L 291.214958 115.499582 
L 291.459611 113.540069 
L 291.704264 106.382422 
L 291.948917 108.341541 
L 292.19357 108.734348 
L 292.438223 100.083137 
L 292.682876 95.595302 
L 292.92753 94.644928 
L 293.172183 94.5872 
L 294.150795 87.201705 
L 294.640101 93.754332 
L 294.884754 90.867614 
L 295.129407 92.382052 
L 295.37406 92.13128 
L 295.863366 87.380447 
L 296.108019 86.382028 
L 296.352672 83.921316 
L 296.597325 99.354016 
L 296.841978 98.443979 
L 297.331284 103.610543 
L 297.575937 103.924971 
L 298.065243 109.432419 
L 298.309896 105.157983 
L 298.554549 105.691318 
L 298.799202 105.81448 
L 299.043855 104.578628 
L 299.288508 104.290557 
L 299.533161 103.78222 
L 300.022467 109.140889 
L 300.26712 109.479624 
L 300.756426 108.693417 
L 301.001079 108.990628 
L 301.735038 113.048825 
L 301.979691 112.437309 
L 302.224344 110.294089 
L 302.468997 109.71923 
L 302.71365 110.602663 
L 303.202956 104.987195 
L 303.447609 107.54328 
L 303.692262 107.65839 
L 303.936915 107.582778 
L 304.181568 118.617953 
L 304.426221 121.912373 
L 304.915527 114.163688 
L 305.16018 111.232038 
L 305.404833 110.412781 
L 305.649486 111.604318 
L 305.894139 110.160897 
L 306.138792 109.685932 
L 306.383445 105.536487 
L 306.872751 103.579221 
L 307.362057 104.417845 
L 307.60671 104.635047 
L 307.851363 104.119621 
L 308.096016 105.882509 
L 308.340669 110.441212 
L 308.585322 110.527026 
L 309.074628 112.429627 
L 309.319281 115.43353 
L 310.05324 118.309527 
L 310.297893 118.861018 
L 310.542546 120.630081 
L 310.787199 117.866008 
L 311.031852 119.730766 
L 311.276505 118.344752 
L 311.521158 117.74944 
L 311.765811 116.360759 
L 312.010464 112.18219 
L 312.255117 112.067228 
L 312.49977 114.704804 
L 312.744423 114.242413 
L 312.989076 114.786666 
L 313.233729 114.716241 
L 313.478382 115.238757 
L 314.212341 118.214846 
L 314.456994 117.955082 
L 315.190953 121.471373 
L 315.435607 121.360264 
L 315.924913 123.529965 
L 316.169566 123.464259 
L 316.414219 125.196566 
L 316.658872 125.745562 
L 316.903525 125.437927 
L 317.148178 129.666516 
L 317.392831 126.216846 
L 317.637484 128.58584 
L 318.12679 130.120781 
L 318.860749 127.45754 
L 319.105402 129.26037 
L 319.350055 126.050826 
L 319.594708 126.352804 
L 319.839361 130.97756 
L 320.084014 131.200617 
L 320.328667 130.429404 
L 320.57332 130.768361 
L 320.817973 127.767225 
L 321.062626 129.161317 
L 321.551932 128.682424 
L 321.796585 127.587347 
L 322.041238 128.718933 
L 322.285891 128.625413 
L 323.01985 133.621658 
L 323.264503 132.417967 
L 323.509156 133.742301 
L 323.998462 130.824681 
L 324.243115 130.74035 
L 324.732421 126.06167 
L 324.977074 127.500274 
L 325.221727 126.248761 
L 325.46638 123.87695 
L 325.711033 124.206126 
L 325.955686 127.789654 
L 326.444992 130.491035 
L 326.689645 126.141135 
L 326.934298 128.442768 
L 327.178951 122.918128 
L 327.423604 122.956292 
L 327.668257 123.638628 
L 327.91291 120.850396 
L 328.157563 111.515515 
L 328.402216 111.561189 
L 328.646869 112.285369 
L 328.891522 107.849162 
L 329.136175 107.56981 
L 329.625481 111.83313 
L 329.870134 112.247403 
L 330.35944 108.198024 
L 330.604093 107.796522 
L 330.848746 105.627439 
L 331.093399 106.334674 
L 331.582705 108.800623 
L 332.072011 102.579938 
L 332.561317 94.12424 
L 332.80597 88.989073 
L 333.050623 91.099761 
L 333.295276 91.359599 
L 333.539929 90.860624 
L 333.784582 89.734151 
L 334.029235 91.283616 
L 334.273888 85.828018 
L 334.763194 87.178486 
L 335.007847 86.84521 
L 335.2525 87.657032 
L 335.497153 87.141705 
L 335.741806 89.982057 
L 335.986459 89.289075 
L 336.231112 90.663702 
L 336.475765 83.66469 
L 336.720418 80.651919 
L 336.965071 80.728964 
L 337.209724 75.424145 
L 337.454377 77.472412 
L 337.69903 77.70525 
L 337.943684 74.208005 
L 338.188337 79.403025 
L 338.43299 78.33092 
L 338.677643 78.268178 
L 338.922296 77.972301 
L 339.166949 79.575344 
L 339.411602 78.928134 
L 339.656255 80.42454 
L 339.900908 78.316939 
L 340.145561 77.325955 
L 340.390214 77.590412 
L 340.87952 69.388723 
L 341.124173 69.652908 
L 341.368826 67.385709 
L 341.858132 69.7653 
L 342.347438 74.66637 
L 342.592091 73.709054 
L 343.081397 74.315531 
L 343.32605 73.834465 
L 343.570703 71.426121 
L 344.060009 69.705275 
L 344.304662 71.595427 
L 344.549315 71.286853 
L 345.038621 72.440695 
L 345.283274 71.41088 
L 345.527927 71.127996 
L 345.77258 71.509613 
L 346.017233 68.592388 
L 346.261886 69.72022 
L 346.506539 68.914227 
L 346.751192 70.00135 
L 346.995845 70.303551 
L 347.240498 69.084867 
L 347.485151 69.24728 
L 347.729804 68.918229 
L 347.974457 67.498102 
L 348.21911 65.100528 
L 348.463763 65.451811 
L 348.953069 66.510675 
L 349.197722 63.59313 
L 349.442375 65.603208 
L 349.687028 65.801884 
L 349.931681 64.556744 
L 350.176334 64.404013 
L 350.420987 64.75248 
L 350.66564 62.263732 
L 350.910293 63.378669 
L 351.399599 60.84857 
L 351.888905 61.781357 
L 352.133558 61.860402 
L 352.378211 62.637617 
L 352.622864 62.881004 
L 352.867517 63.922132 
L 353.11217 62.191134 
L 353.356823 62.536933 
L 354.335435 58.628256 
L 354.580088 56.642262 
L 354.824741 57.048432 
L 355.069394 58.611384 
L 355.5587 54.165568 
L 355.803353 53.866109 
L 356.048006 53.83491 
L 356.537312 58.047419 
L 356.781965 65.995891 
L 357.026618 68.532215 
L 357.271271 66.362465 
L 357.515924 66.094426 
L 357.760577 66.295177 
L 358.00523 74.727927 
L 358.249883 73.689342 
L 358.494536 73.773254 
L 358.739189 74.276008 
L 359.228495 84.097958 
L 359.473148 83.471967 
L 359.717801 80.67173 
L 359.962454 79.685242 
L 360.207107 81.050037 
L 360.451761 80.138568 
L 360.696414 80.245897 
L 360.941067 77.616645 
L 361.18572 76.797783 
L 361.919679 80.332822 
L 362.164332 82.968743 
L 362.408985 86.890167 
L 362.653638 85.673409 
L 362.898291 90.161244 
L 363.142944 87.338009 
L 363.387597 82.236905 
L 364.366209 86.921686 
L 364.610862 86.798079 
L 364.855515 91.196048 
L 365.100168 89.870924 
L 365.589474 91.117522 
L 365.834127 87.323361 
L 366.07878 86.759347 
L 366.323433 83.256271 
L 366.568086 85.55205 
L 366.812739 84.413078 
L 367.057392 80.187082 
L 367.302045 84.902839 
L 367.546698 92.995075 
L 367.791351 93.286852 
L 368.036004 92.981464 
L 368.280657 92.314468 
L 368.52531 90.319853 
L 368.769963 89.957677 
L 369.014616 88.275045 
L 369.259269 88.202743 
L 369.503922 86.549481 
L 369.748575 82.573096 
L 369.993228 80.706485 
L 370.237881 81.501461 
L 370.482534 80.95496 
L 370.727187 82.833403 
L 370.97184 82.07086 
L 371.216493 72.87668 
L 371.461146 72.256544 
L 371.705799 72.670075 
L 371.950452 70.757223 
L 372.195105 77.07958 
L 372.439758 75.057398 
L 372.929064 82.802254 
L 373.173717 82.055718 
L 373.41837 98.069625 
L 373.663023 98.091585 
L 373.907676 96.811665 
L 374.152329 98.493185 
L 374.396982 98.48491 
L 374.641635 96.835477 
L 375.130941 101.319433 
L 375.375594 100.638283 
L 375.620247 95.740301 
L 375.8649 98.325016 
L 376.109553 99.13422 
L 376.354206 96.662318 
L 376.598859 96.289865 
L 376.843512 96.671334 
L 377.088165 95.064289 
L 377.332818 99.840121 
L 377.577471 98.802797 
L 377.822124 98.695369 
L 378.066777 99.343147 
L 378.31143 112.82898 
L 378.556083 113.213635 
L 378.800736 112.851212 
L 379.045389 111.247106 
L 379.290042 108.640358 
L 379.534695 110.863143 
L 379.779348 109.072243 
L 380.024001 109.963802 
L 380.268654 108.897774 
L 380.513307 106.429627 
L 380.75796 107.104281 
L 381.002613 108.33544 
L 381.247266 105.801734 
L 381.491919 108.150127 
L 381.736572 107.13627 
L 381.981225 110.237398 
L 382.225878 109.112284 
L 382.715184 101.789853 
L 383.204491 103.348137 
L 383.449144 104.257852 
L 383.693797 104.672544 
L 383.93845 105.400578 
L 384.183103 108.650757 
L 384.427756 113.936927 
L 384.672409 112.928009 
L 384.917062 110.528879 
L 385.161715 109.905901 
L 385.406368 110.158229 
L 385.895674 106.00088 
L 386.629633 111.144199 
L 386.874286 109.145187 
L 387.608245 111.668987 
L 387.852898 107.585569 
L 387.852898 107.585569 
" style="fill:none;stroke:#1f77b4;stroke-linecap:square;stroke-width:1.5;"/>
   </g>
   <g id="line2d_32">
    <path clip-path="url(#pee4de064d7)" d="M 63.198352 267.464103 
L 63.443005 266.719431 
L 63.687658 267.172709 
L 63.932311 269.309594 
L 64.176964 270.34566 
L 64.421617 269.827627 
L 64.66627 267.269841 
L 64.910923 267.658365 
L 65.155576 267.140332 
L 65.400229 264.938693 
L 65.889535 267.658365 
L 66.134188 266.978447 
L 66.378841 267.528857 
L 66.623494 266.881316 
L 67.1128 265.035824 
L 67.357453 265.068201 
L 67.602106 267.690742 
L 67.846759 267.625988 
L 68.091412 269.212463 
L 68.336066 267.949759 
L 68.580719 267.723119 
L 68.825372 267.723119 
L 69.070025 266.39566 
L 69.314678 268.403037 
L 69.559331 268.241152 
L 69.803984 267.625988 
L 70.29329 260.503038 
L 70.537943 260.891562 
L 70.782596 261.603857 
L 71.027249 261.474349 
L 71.271902 261.021071 
L 71.516555 258.107136 
L 72.250514 260.37353 
L 72.495167 257.783366 
L 72.73982 257.912874 
L 72.984473 257.653858 
L 73.229126 257.071071 
L 73.473779 258.301399 
L 73.718432 260.244022 
L 73.963085 258.171891 
L 74.697044 261.215333 
L 74.941697 258.528038 
L 75.18635 258.010005 
L 75.431003 256.909186 
L 76.409615 265.424349 
L 76.898921 263.967382 
L 77.143574 262.510415 
L 77.388227 259.110825 
L 77.63288 258.689923 
L 77.877533 260.37353 
L 78.122186 260.729677 
L 78.366839 264.064513 
L 78.611492 264.42066 
L 78.856145 265.683365 
L 79.100798 266.266152 
L 79.345451 269.374349 
L 79.590104 267.237463 
L 79.834757 266.978447 
L 80.07941 265.489103 
L 80.324063 265.003447 
L 80.568716 266.266152 
L 80.813369 266.39566 
L 81.058022 276.04402 
L 81.547328 273.130086 
L 81.791981 275.687873 
L 82.036634 274.716561 
L 82.281287 274.878446 
L 83.259899 268.92107 
L 83.504552 269.665742 
L 83.749205 271.057955 
L 84.238511 267.431726 
L 84.483164 267.625988 
L 84.727817 268.823939 
L 84.97247 268.791562 
L 85.217123 267.852627 
L 85.461776 269.568611 
L 85.706429 268.985824 
L 85.951082 268.791562 
L 86.440388 267.690742 
L 86.929694 270.831316 
L 87.174347 268.856316 
L 87.419 265.812873 
L 87.663653 266.719431 
L 87.908306 263.514103 
L 88.152959 266.525168 
L 88.397612 266.913693 
L 88.642265 267.010824 
L 89.131571 269.277217 
L 89.376224 267.205086 
L 89.620877 262.963693 
L 89.86553 262.607546 
L 90.110183 259.434595 
L 90.354836 263.384595 
L 90.599489 264.064513 
L 91.088796 263.967382 
L 91.333449 264.6473 
L 91.578102 264.614923 
L 92.067408 261.57148 
L 92.312061 258.7223 
L 92.556714 258.94894 
L 92.801367 257.686235 
L 93.04602 253.736235 
L 93.290673 253.736235 
L 93.535326 252.344022 
L 93.779979 252.408776 
L 94.269285 254.254268 
L 94.513938 253.962875 
L 94.758591 251.664104 
L 95.003244 253.89812 
L 95.49255 251.890744 
L 95.737203 252.408776 
L 95.981856 251.437465 
L 96.226509 251.146072 
L 96.471162 250.498531 
L 96.715815 250.466154 
L 96.960468 250.72517 
L 97.205121 248.361646 
L 97.449774 247.973121 
L 97.694427 251.631727 
L 97.93908 253.02394 
L 98.183733 252.764924 
L 98.428386 254.901809 
L 98.673039 253.89812 
L 98.917692 252.020252 
L 99.162345 251.664104 
L 99.896304 245.544843 
L 100.140957 245.933367 
L 100.38561 246.062875 
L 100.630263 242.598531 
L 100.874916 241.724351 
L 101.119569 243.505089 
L 101.364222 242.760417 
L 101.608875 241.432958 
L 101.853528 241.983368 
L 102.342834 246.095252 
L 102.587487 244.055498 
L 102.83214 246.095252 
L 103.076793 244.573531 
L 103.321446 246.419023 
L 103.566099 245.059187 
L 103.810752 245.57722 
L 104.055405 244.508777 
L 104.300058 244.864925 
L 104.544711 242.371892 
L 104.789364 243.05181 
L 105.034017 241.95099 
L 105.27867 241.594843 
L 105.523323 237.968614 
L 105.767976 236.932548 
L 106.012629 233.791975 
L 106.257282 232.367385 
L 106.501935 232.367385 
L 106.746588 237.774352 
L 106.991241 231.719844 
L 107.235894 231.946483 
L 107.480547 234.180499 
L 107.7252 229.097303 
L 108.214506 225.762467 
L 108.459159 227.866975 
L 108.703812 227.672713 
L 108.948465 228.093615 
L 109.193118 224.435009 
L 109.437771 224.953041 
L 109.682424 223.755091 
L 110.661036 214.495255 
L 110.905689 214.754272 
L 111.394995 210.836649 
L 111.884301 209.962469 
L 112.128954 209.314928 
L 112.373607 213.200174 
L 112.61826 212.844026 
L 113.107566 215.272305 
L 113.596873 217.214927 
L 113.841526 216.373124 
L 114.086179 212.487879 
L 114.330832 213.880092 
L 114.820138 224.175992 
L 115.309444 220.064107 
L 115.554097 224.046484 
L 115.79875 223.98173 
L 116.043403 218.445255 
L 116.288056 221.747714 
L 116.532709 221.844845 
L 116.777362 224.467386 
L 117.022015 220.225993 
L 117.266668 221.844845 
L 117.755974 217.020665 
L 118.000627 220.128861 
L 118.24528 227.737467 
L 118.489933 225.309189 
L 118.734586 226.248123 
L 118.979239 225.827222 
L 119.468545 222.103861 
L 119.713198 223.949353 
L 119.957851 221.423943 
L 120.202504 223.593205 
L 120.69181 221.780091 
L 120.936463 218.898534 
L 121.181116 218.153862 
L 121.425769 218.250993 
L 121.670422 212.844026 
L 121.915075 211.548944 
L 122.404381 217.862468 
L 122.893687 215.304682 
L 123.382993 219.902222 
L 123.627646 219.740337 
L 123.872299 219.125173 
L 124.116952 219.416566 
L 124.361605 218.024353 
L 124.850911 220.614517 
L 125.095564 219.092796 
L 125.340217 216.794026 
L 125.58487 213.070665 
L 125.829523 214.657141 
L 126.074176 211.322305 
L 126.318829 215.013288 
L 126.563482 215.531321 
L 127.052788 221.423943 
L 127.297441 221.262058 
L 127.542094 221.326812 
L 127.786747 226.442385 
L 128.0314 227.122303 
L 128.276053 228.223123 
L 128.520706 228.061238 
L 128.765359 230.457139 
L 129.010012 228.838287 
L 129.254665 228.546893 
L 129.499318 229.777221 
L 129.743971 231.914106 
L 129.988624 231.525582 
L 130.233277 230.651401 
L 130.47793 231.460828 
L 130.722583 231.137057 
L 131.701195 229.000172 
L 132.679807 212.487879 
L 132.92446 211.678452 
L 133.169113 211.548944 
L 133.413766 211.128043 
L 133.658419 215.628452 
L 133.903072 217.927222 
L 134.147725 218.769025 
L 134.392378 220.161238 
L 134.637031 219.740337 
L 134.881684 217.18255 
L 135.126337 217.344435 
L 135.37099 219.610829 
L 135.615643 218.510009 
L 135.860297 218.348124 
L 136.10495 221.13255 
L 136.349603 216.988288 
L 136.838909 221.197304 
L 137.083562 222.524763 
L 137.328215 216.081731 
L 137.817521 212.0346 
L 138.062174 213.297305 
L 138.306827 213.588698 
L 138.55148 213.362059 
L 139.040786 209.50919 
L 139.285439 205.008781 
L 139.530092 207.857961 
L 139.774745 204.846896 
L 140.019398 204.166978 
L 140.264051 205.008781 
L 140.508704 205.267797 
L 140.753357 206.724764 
L 140.99801 206.33624 
L 141.242663 204.976404 
L 141.487316 205.623945 
L 141.731969 205.494437 
L 141.976622 205.008781 
L 142.221275 210.998534 
L 142.465928 206.368617 
L 142.710581 207.145666 
L 142.955234 208.991158 
L 143.44454 201.706322 
L 143.689193 201.771076 
L 144.178499 204.620256 
L 144.423152 204.264109 
L 144.667805 201.965339 
L 144.912458 201.123535 
L 145.157111 202.612879 
L 145.401764 197.950585 
L 145.89107 200.022716 
L 146.135723 198.824765 
L 146.380376 202.094847 
L 146.625029 201.868207 
L 146.869682 201.026404 
L 147.114335 197.044028 
L 147.358988 198.177224 
L 147.603641 196.68788 
L 148.092947 202.969027 
L 148.3376 203.001404 
L 148.582253 200.119847 
L 148.826906 199.634191 
L 149.071559 194.648126 
L 149.316212 192.155094 
L 149.560865 194.000585 
L 150.050171 189.305914 
L 150.294824 186.812881 
L 150.539477 187.687061 
L 150.78413 181.600177 
L 151.028783 181.049767 
L 151.518089 181.988701 
L 151.762742 182.927635 
L 152.007395 181.244029 
L 152.252048 184.870258 
L 152.496701 185.906324 
L 152.741354 184.319848 
L 152.986007 191.183782 
L 153.23066 187.363291 
L 153.475313 187.913701 
L 153.719966 188.14034 
L 153.964619 188.885012 
L 154.209272 188.172717 
L 154.453925 184.578865 
L 154.698578 186.262471 
L 154.943231 192.96452 
L 155.187884 194.486241 
L 155.432537 192.446487 
L 155.67719 197.464929 
L 155.921843 191.345667 
L 156.166496 193.320667 
L 156.411149 201.803453 
L 156.900455 196.072716 
L 157.145108 183.769439 
L 157.389761 183.413291 
L 157.634414 178.912882 
L 157.879067 176.549357 
L 158.12372 176.160833 
L 158.368374 176.19321 
L 158.613027 171.887063 
L 158.85768 170.753866 
L 159.102333 173.052636 
L 159.346986 172.016571 
L 159.836292 167.030506 
L 160.080945 168.714112 
L 160.325598 169.135014 
L 160.814904 166.771489 
L 161.059557 171.142391 
L 161.30421 163.857555 
L 161.793516 158.580097 
L 162.038169 162.238703 
L 162.282822 163.015752 
L 162.527475 165.99444 
L 162.772128 164.925998 
L 163.016781 169.62067 
L 163.261434 169.167391 
L 163.506087 164.893621 
L 163.75074 162.950998 
L 163.995393 167.710424 
L 164.240046 166.771489 
L 164.484699 168.260834 
L 164.729352 171.04526 
L 164.974005 170.850997 
L 165.218658 173.862063 
L 165.463311 174.315341 
L 165.707964 172.664112 
L 166.19727 164.310834 
L 166.441923 163.987063 
L 166.686576 163.922309 
L 167.175882 172.210833 
L 167.420535 170.786243 
L 167.665188 167.872309 
L 167.909841 177.455915 
L 168.154494 179.074767 
L 168.399147 177.099767 
L 168.6438 176.970259 
L 169.133106 169.426407 
L 169.377759 172.275587 
L 169.622412 171.174768 
L 170.111718 170.721489 
L 170.356371 175.124767 
L 170.601024 176.581734 
L 171.09033 171.530915 
L 171.334983 170.81862 
L 171.824289 165.444031 
L 172.068942 166.059194 
L 172.313595 168.455096 
L 172.558248 164.213703 
L 173.047554 161.558785 
L 173.292207 162.659605 
L 173.781513 168.908374 
L 174.026166 168.131325 
L 174.270819 165.99444 
L 174.515472 165.864932 
L 174.760125 162.303457 
L 175.004778 161.785424 
L 175.249431 158.644851 
L 175.494084 157.285015 
L 175.738737 157.738294 
L 175.98339 156.346081 
L 176.228043 156.410835 
L 176.472696 155.569031 
L 176.717349 156.831736 
L 176.962002 155.666163 
L 177.206655 153.917802 
L 177.451308 154.468212 
L 177.695961 151.651409 
L 178.185267 155.439523 
L 178.42992 160.328457 
L 178.674573 160.328457 
L 178.919226 158.709605 
L 179.163879 159.162884 
L 179.408532 157.803048 
L 179.653185 157.187884 
L 179.897838 160.263703 
L 180.387144 160.716982 
L 180.631798 156.766982 
L 180.876451 154.986245 
L 181.121104 152.234196 
L 181.365757 150.809606 
L 181.61041 148.446081 
L 181.855063 148.543212 
L 182.099716 147.248131 
L 182.344369 148.057557 
L 182.589022 150.421081 
L 182.833675 146.017803 
L 183.078328 147.183377 
L 183.322981 147.086245 
L 183.567634 147.507147 
L 184.301593 153.108376 
L 184.546246 150.582966 
L 184.790899 150.809606 
L 185.035552 149.287885 
L 185.280205 149.838294 
L 185.524858 147.377639 
L 185.769511 149.22313 
L 186.014164 146.244442 
L 186.258817 149.320262 
L 186.50347 146.05018 
L 186.748123 150.356327 
L 186.992776 151.975179 
L 187.237429 145.953049 
L 187.482082 147.539524 
L 187.726735 148.057557 
L 187.971388 151.554278 
L 188.216041 147.215754 
L 188.460694 145.111246 
L 188.705347 146.05018 
L 188.95 144.787475 
L 189.439306 139.348131 
L 189.683959 137.114115 
L 189.928612 136.725591 
L 190.173265 137.535017 
L 190.417918 135.786656 
L 190.662571 135.430509 
L 190.907224 135.786656 
L 191.151877 136.95223 
L 191.39653 135.819033 
L 191.641183 136.272312 
L 191.885836 137.405509 
L 192.130489 134.42682 
L 192.375142 133.973542 
L 192.619795 136.563705 
L 192.864448 133.973542 
L 193.109101 135.20387 
L 193.353754 138.312066 
L 193.598407 138.571082 
L 193.84306 137.114115 
L 194.087713 138.085427 
L 194.332366 136.757968 
L 194.577019 136.142804 
L 194.821672 135.948542 
L 195.066325 135.916165 
L 195.310978 135.430509 
L 195.800284 142.488705 
L 196.044937 138.797722 
L 196.28959 143.265754 
L 196.534243 141.096492 
L 196.778896 140.805098 
L 197.023549 140.157558 
L 197.268202 145.143623 
L 197.512855 147.410016 
L 197.757508 142.035426 
L 198.002161 141.679279 
L 198.246814 146.37395 
L 198.491467 143.136246 
L 198.73612 150.906737 
L 198.980773 149.093622 
L 199.225426 156.734605 
L 199.470079 155.989933 
L 199.714732 162.659605 
L 199.959385 163.760424 
L 200.693344 144.981737 
L 200.937997 146.406327 
L 201.427303 141.517393 
L 201.671956 142.035426 
L 201.916609 137.243623 
L 202.161262 138.538705 
L 202.405915 136.304689 
L 202.650568 132.548952 
L 202.895221 131.480509 
L 203.139875 135.883787 
L 203.384528 133.779279 
L 203.629181 130.541575 
L 203.873834 137.016984 
L 204.118487 137.729279 
L 204.36314 137.081738 
L 204.607793 137.340755 
L 204.852446 135.430509 
L 205.097099 134.42682 
L 205.341752 135.689525 
L 205.586405 136.110427 
L 205.831058 137.599771 
L 206.075711 140.578459 
L 206.320364 140.384197 
L 206.80967 131.674771 
L 207.054323 130.800591 
L 207.298976 128.890346 
L 207.543629 128.275182 
L 207.788282 125.782149 
L 208.032935 126.947723 
L 208.277588 126.559198 
L 208.522241 124.843215 
L 208.766894 124.713707 
L 209.011547 127.498133 
L 209.2562 131.739526 
L 209.500853 131.351001 
L 209.745506 132.192804 
L 210.234812 136.466574 
L 210.724118 128.566575 
L 210.968771 127.660018 
L 211.213424 123.418625 
L 211.458077 121.832149 
L 211.70273 122.70633 
L 212.192036 119.209609 
L 212.681342 123.451002 
L 212.925995 124.875592 
L 213.170648 129.311247 
L 213.415301 130.897722 
L 213.904607 124.746084 
L 214.14926 123.256739 
L 214.393913 122.576822 
L 214.638566 120.213297 
L 214.883219 123.321494 
L 215.127872 122.932969 
L 215.372525 120.245674 
L 215.861831 123.515756 
L 216.106484 120.342805 
L 216.351137 121.735018 
L 216.59579 120.925592 
L 217.085096 128.372313 
L 217.329749 126.591575 
L 217.574402 133.908788 
L 217.819055 130.768214 
L 218.063708 123.742395 
L 218.308361 100.495676 
L 218.553014 96.092398 
L 218.797667 98.099775 
L 219.04232 99.038709 
L 219.286973 98.423545 
L 219.531626 98.58543 
L 219.776279 93.048955 
L 220.020932 91.13871 
L 220.265585 91.300595 
L 220.510238 92.142398 
L 220.754891 92.045267 
L 221.244197 88.483792 
L 221.48885 89.519857 
L 221.733503 86.605923 
L 221.978156 89.876005 
L 222.222809 91.430103 
L 222.467462 85.569858 
L 222.712115 84.080514 
L 223.446074 92.271906 
L 223.690727 87.609612 
L 223.93538 94.635431 
L 224.180033 95.282972 
L 224.424686 81.425596 
L 224.669339 83.78912 
L 224.913992 80.778055 
L 225.158645 82.105514 
L 225.403298 78.835432 
L 225.647952 80.778055 
L 225.892605 77.346088 
L 226.137258 78.026006 
L 226.381911 81.619858 
L 226.626564 88.451415 
L 227.11587 86.897317 
L 227.360523 84.825186 
L 227.605176 88.807562 
L 228.094482 85.21371 
L 228.583788 87.059202 
L 228.828441 84.048137 
L 229.073094 82.720678 
L 229.317747 82.137891 
L 229.5624 83.562481 
L 229.807053 83.076825 
L 230.051706 82.04076 
L 230.296359 78.414531 
L 230.541012 82.979694 
L 230.785665 78.026006 
L 231.030318 79.774367 
L 231.274971 78.932563 
L 231.519624 75.500596 
L 232.00893 71.744859 
L 232.253583 72.521908 
L 232.498236 72.878056 
L 232.742889 76.407154 
L 232.987542 70.579285 
L 233.232195 68.928056 
L 233.476848 69.640351 
L 233.721501 73.169449 
L 233.966154 74.658793 
L 234.210807 71.906744 
L 234.45546 76.795678 
L 234.700113 74.723547 
L 234.944766 74.885433 
L 235.189419 72.489531 
L 235.434072 71.291581 
L 235.678725 71.194449 
L 235.923378 70.449777 
L 236.168031 71.615351 
L 236.412684 71.000187 
L 236.657337 71.421089 
L 236.90199 74.076006 
L 237.146643 71.064941 
L 237.391296 70.546908 
L 237.635949 71.064941 
L 237.880602 69.154695 
L 238.125255 69.834613 
L 238.369908 68.474777 
L 238.614561 71.291581 
L 238.859214 71.291581 
L 239.34852 77.054695 
L 239.593173 72.262892 
L 239.837826 70.255515 
L 240.082479 72.424777 
L 240.327132 71.680105 
L 240.571785 68.830925 
L 240.816438 67.438712 
L 241.061091 61.837483 
L 241.305744 63.780106 
L 241.79505 57.984615 
L 242.039703 60.056746 
L 242.529009 56.106746 
L 242.773662 62.387893 
L 243.262968 55.653467 
L 243.507621 56.1715 
L 243.752274 53.807976 
L 243.996927 49.275189 
L 244.24158 55.459205 
L 244.486233 54.131746 
L 244.730886 51.412074 
L 244.975539 46.19937 
L 245.220192 46.846911 
L 245.464845 45.389944 
L 245.709498 42.896911 
L 245.954151 43.576829 
L 246.198804 41.245682 
L 246.443457 42.119862 
L 246.68811 42.055108 
L 246.932763 43.771091 
L 247.177416 43.414944 
L 247.422069 45.551829 
L 247.666722 44.871911 
L 247.911375 40.403879 
L 248.156029 39.788715 
L 248.400682 39.885846 
L 248.645335 36.259617 
L 248.889988 34.414125 
L 249.134641 70.546908 
L 249.379294 76.957564 
L 249.623947 74.3674 
L 249.8686 69.025187 
L 250.113253 78.738301 
L 250.357906 82.008383 
L 250.602559 80.292399 
L 250.847212 81.457973 
L 251.091865 75.338711 
L 251.336518 82.170268 
L 251.581171 83.756743 
L 251.825824 104.575184 
L 252.070477 108.395675 
L 252.31513 119.662887 
L 252.559783 117.946904 
L 253.049089 97.614119 
L 253.293742 96.610431 
L 253.538395 98.553053 
L 253.783048 106.226413 
L 254.027701 98.520676 
L 254.272354 98.196906 
L 254.517007 101.499365 
L 254.76166 91.656743 
L 255.006313 98.455922 
L 255.250966 96.221906 
L 255.495619 90.135021 
L 255.984925 93.534611 
L 256.229578 91.818628 
L 256.474231 91.041579 
L 256.718884 95.444857 
L 256.963537 93.599365 
L 257.697496 102.632561 
L 257.942149 103.668627 
L 258.186802 109.528872 
L 258.431455 106.517807 
L 258.676108 97.516988 
L 259.165414 94.926824 
L 259.410067 92.174775 
L 259.65472 92.433792 
L 259.899373 93.664119 
L 260.388679 86.6383 
L 260.633332 84.080514 
L 260.877985 83.303465 
L 261.122638 86.087891 
L 261.367291 79.094449 
L 261.611944 77.961252 
L 261.856597 73.978875 
L 262.345903 71.971498 
L 262.590556 61.740352 
L 262.835209 62.258385 
L 263.569168 58.211254 
L 263.813821 55.944861 
L 264.058474 60.153877 
L 264.303127 55.944861 
L 264.54778 54.326008 
L 264.792433 61.740352 
L 265.037086 62.549778 
L 265.281739 53.905107 
L 265.771045 48.239124 
L 266.015698 51.153058 
L 266.260351 52.156746 
L 266.505004 56.592402 
L 266.749657 53.095681 
L 266.99431 52.415763 
L 267.238963 45.907976 
L 267.483616 44.062485 
L 267.728269 39.659206 
L 267.972922 41.763714 
L 268.217575 46.52314 
L 268.462228 44.191993 
L 268.706881 55.653467 
L 268.951534 61.028057 
L 269.196187 54.811664 
L 269.44084 59.312073 
L 269.685493 66.14363 
L 269.930146 58.535024 
L 270.174799 59.862483 
L 270.664106 67.503466 
L 270.908759 69.802236 
L 271.153412 78.608793 
L 271.398065 74.3674 
L 271.887371 59.991991 
L 272.132024 65.755106 
L 272.376677 79.644858 
L 272.62133 83.303465 
L 272.865983 82.817809 
L 273.110636 86.6383 
L 273.355289 85.666989 
L 273.599942 81.16658 
L 273.844595 81.716989 
L 274.089248 84.112891 
L 274.333901 88.192399 
L 274.823207 101.726004 
L 275.06786 103.474364 
L 275.312513 106.25879 
L 275.557166 107.068216 
L 275.801819 104.898954 
L 276.046472 99.912889 
L 276.291125 109.561249 
L 276.535778 107.521495 
L 276.780431 124.389936 
L 277.025084 124.163297 
L 277.269737 128.793214 
L 277.51439 124.001412 
L 277.759043 114.676822 
L 278.003696 119.889527 
L 278.248349 116.716576 
L 278.493002 123.0301 
L 278.737655 125.587887 
L 278.982308 118.173543 
L 279.226961 120.342805 
L 279.471614 126.915346 
L 279.716267 120.375182 
L 279.96092 119.436248 
L 280.450226 130.15305 
L 280.694879 129.505509 
L 280.939532 140.740344 
L 281.673491 127.595264 
L 281.918144 119.209609 
L 282.162797 120.278051 
L 282.40745 120.796084 
L 282.652103 116.392806 
L 282.896756 119.598133 
L 283.141409 119.436248 
L 283.386062 118.723953 
L 283.630715 119.824773 
L 283.875368 119.144855 
L 284.120021 112.248544 
L 284.364674 114.353052 
L 284.609327 108.460429 
L 284.85398 109.561249 
L 285.098633 106.614938 
L 285.343286 111.698134 
L 285.587939 112.216167 
L 285.832592 114.223544 
L 286.321898 108.492806 
L 286.566551 110.338298 
L 286.811204 109.690757 
L 287.055857 105.93502 
L 287.30051 107.230102 
L 288.034469 114.903462 
L 288.279122 113.640757 
L 288.523775 110.823954 
L 288.768428 110.597314 
L 289.013081 108.169036 
L 289.257734 106.873954 
L 289.502387 107.651003 
L 289.74704 108.913708 
L 289.991693 114.353052 
L 290.236346 112.798954 
L 290.480999 117.072724 
L 290.725652 116.23092 
L 290.970305 116.716576 
L 291.214958 113.219855 
L 291.459611 106.323544 
L 291.704264 109.075593 
L 291.948917 109.205101 
L 292.19357 99.848135 
L 292.438223 96.092398 
L 292.682876 94.052644 
L 292.92753 95.218218 
L 293.416836 89.843628 
L 293.906142 87.544858 
L 294.395448 94.085021 
L 294.640101 90.523546 
L 294.884754 92.401415 
L 295.129407 92.757562 
L 295.37406 88.678054 
L 295.618713 86.703054 
L 295.863366 87.350595 
L 296.108019 83.271088 
L 296.352672 97.225594 
L 296.597325 99.103463 
L 296.841978 102.956332 
L 297.086631 103.474364 
L 297.331284 104.8342 
L 297.82059 109.787888 
L 298.065243 105.352233 
L 298.309896 107.294856 
L 298.799202 105.093217 
L 299.043855 105.255102 
L 299.288508 103.701004 
L 299.777814 109.431741 
L 300.022467 108.7842 
L 300.511773 108.589938 
L 301.001079 110.985839 
L 301.245732 111.63338 
L 301.490385 113.252232 
L 301.735038 112.50756 
L 301.979691 109.820265 
L 302.224344 110.241167 
L 302.468997 109.885019 
L 302.958303 106.032151 
L 303.202956 108.460429 
L 303.447609 108.557561 
L 303.692262 107.812889 
L 303.936915 118.497314 
L 304.181568 122.835838 
L 304.670874 114.417806 
L 304.915527 111.698134 
L 305.16018 111.018216 
L 305.404833 112.216167 
L 305.649486 109.65838 
L 305.894139 109.787888 
L 306.138792 105.870266 
L 306.628098 103.992397 
L 306.872751 105.028463 
L 307.117404 104.737069 
L 307.362057 105.287479 
L 307.60671 104.154282 
L 307.851363 106.355921 
L 308.096016 110.403052 
L 308.585322 112.054282 
L 308.829975 113.090347 
L 309.074628 115.35674 
L 309.563934 117.88215 
L 309.808587 117.752642 
L 310.297893 120.796084 
L 310.542546 117.299363 
L 310.787199 120.310428 
L 311.031852 118.141166 
L 311.276505 118.400183 
L 311.765811 111.568626 
L 312.010464 111.860019 
L 312.255117 114.871085 
L 312.49977 114.029281 
L 312.744423 114.741576 
L 312.989076 114.773953 
L 313.478382 116.328052 
L 313.723035 118.011658 
L 313.967688 117.687888 
L 314.212341 118.173543 
L 314.701647 120.148543 
L 314.9463 121.249363 
L 315.190953 121.28174 
L 315.435607 122.576822 
L 315.68026 123.224362 
L 315.924913 122.70633 
L 316.169566 124.713707 
L 316.414219 125.0051 
L 316.658872 123.774772 
L 316.903525 129.181739 
L 317.148178 125.231739 
L 317.392831 128.275182 
L 317.637484 129.699772 
L 317.882137 128.922723 
L 318.371443 128.501821 
L 318.616096 127.465755 
L 318.860749 129.27887 
L 319.105402 125.976411 
L 319.350055 126.42969 
L 319.594708 130.671083 
L 319.839361 131.448132 
L 320.084014 129.894034 
L 320.328667 131.189116 
L 320.57332 127.757149 
L 320.817973 128.9551 
L 321.062626 128.631329 
L 321.307279 129.084608 
L 321.551932 127.85428 
L 321.796585 128.9551 
L 322.041238 128.9551 
L 322.530544 132.451821 
L 322.775197 133.390755 
L 323.01985 132.807968 
L 323.264503 134.329689 
L 323.509156 133.22887 
L 323.753809 130.768214 
L 323.998462 130.444444 
L 324.243115 127.206739 
L 324.487768 126.10592 
L 324.732421 128.113296 
L 325.221727 124.001412 
L 325.46638 124.551821 
L 325.711033 128.307559 
L 325.955686 129.27887 
L 326.200339 130.832968 
L 326.444992 126.10592 
L 326.689645 129.084608 
L 326.934298 122.673953 
L 327.178951 122.835838 
L 327.668257 120.957969 
L 327.91291 112.151413 
L 328.157563 111.374364 
L 328.402216 112.086659 
L 328.646869 107.489118 
L 328.891522 106.679692 
L 329.136175 110.338298 
L 329.380828 112.313298 
L 329.625481 112.054282 
L 330.114787 108.460429 
L 330.35944 107.974774 
L 330.604093 105.708381 
L 330.848746 107.489118 
L 331.093399 108.071905 
L 331.338052 109.496495 
L 331.582705 104.769446 
L 331.827358 102.503053 
L 332.561317 88.904694 
L 332.80597 91.494857 
L 333.050623 92.174775 
L 333.295276 91.527234 
L 333.539929 90.426415 
L 333.784582 91.980513 
L 334.029235 87.480104 
L 334.518541 86.6383 
L 334.763194 87.091579 
L 335.007847 87.965759 
L 335.2525 87.901005 
L 335.497153 90.717808 
L 335.741806 89.876005 
L 335.986459 90.976825 
L 336.475765 80.551416 
L 336.720418 80.745678 
L 336.965071 75.565351 
L 337.209724 77.572727 
L 337.454377 77.507973 
L 337.69903 74.076006 
L 337.943684 80.260022 
L 338.188337 78.544039 
L 338.43299 78.835432 
L 338.677643 78.220268 
L 338.922296 81.069448 
L 339.166949 79.839121 
L 339.411602 81.587481 
L 339.656255 79.062072 
L 339.900908 78.608793 
L 340.145561 78.544039 
L 340.634867 69.21945 
L 340.87952 70.158384 
L 341.124173 68.053876 
L 341.368826 70.287892 
L 341.613479 71.291581 
L 342.102785 75.500596 
L 342.347438 75.500596 
L 342.592091 73.914121 
L 342.836744 74.658793 
L 343.081397 73.396089 
L 343.32605 71.194449 
L 343.570703 71.680105 
L 343.815356 69.964122 
L 344.060009 72.06863 
L 344.304662 72.230515 
L 344.549315 71.874367 
L 344.793968 73.137072 
L 345.038621 71.226826 
L 345.527927 71.971498 
L 345.77258 68.895679 
L 346.017233 70.352646 
L 346.261886 68.248138 
L 346.506539 70.09363 
L 346.751192 69.478466 
L 346.995845 69.54322 
L 347.240498 68.928056 
L 347.485151 69.284204 
L 347.974457 64.783794 
L 348.21911 66.208384 
L 348.463763 66.726417 
L 348.708416 66.564532 
L 348.953069 63.488712 
L 349.197722 66.596909 
L 349.442375 65.528466 
L 349.687028 65.010434 
L 349.931681 65.334204 
L 350.176334 64.557155 
L 350.420987 62.387893 
L 350.66564 64.071499 
L 350.910293 61.966991 
L 351.154946 61.287073 
L 351.644252 62.42027 
L 351.888905 62.549778 
L 352.133558 62.387893 
L 352.378211 63.909614 
L 352.622864 64.39527 
L 352.867517 62.323139 
L 353.11217 62.42027 
L 353.356823 61.902237 
L 353.846129 58.69691 
L 354.090782 60.186254 
L 354.335435 56.754287 
L 354.580088 57.887483 
L 354.824741 60.283385 
L 355.069394 55.491582 
L 355.5587 53.354697 
L 355.803353 54.131746 
L 356.048006 56.948549 
L 356.292659 58.114123 
L 356.537312 67.01781 
L 356.781965 68.474777 
L 357.026618 65.81986 
L 357.271271 67.665351 
L 357.515924 65.560843 
L 357.760577 73.363711 
L 358.00523 73.622728 
L 358.249883 73.26658 
L 358.494536 75.079695 
L 358.983842 84.210022 
L 359.228495 83.012071 
L 359.473148 80.292399 
L 359.717801 79.936252 
L 359.962454 81.911252 
L 360.207107 79.677235 
L 360.451761 81.101825 
L 360.696414 77.410842 
L 360.941067 77.637482 
L 361.18572 78.932563 
L 361.430373 78.058383 
L 362.164332 86.832563 
L 362.408985 85.472727 
L 362.653638 90.653054 
L 363.142944 81.846498 
L 363.63225 84.760432 
L 363.876903 85.278464 
L 364.121556 86.800186 
L 364.366209 87.253464 
L 364.610862 91.883382 
L 364.855515 89.098956 
L 365.100168 90.976825 
L 365.344821 90.523546 
L 365.589474 86.605923 
L 365.834127 87.123956 
L 366.07878 82.429284 
L 366.323433 86.152645 
L 366.568086 84.404284 
L 366.812739 80.486662 
L 367.302045 93.793628 
L 367.546698 93.890759 
L 368.036004 92.207152 
L 368.280657 90.458792 
L 368.52531 90.750185 
L 368.769963 88.160022 
L 369.014616 89.131333 
L 369.748575 80.810432 
L 369.993228 81.684612 
L 370.237881 81.976006 
L 370.482534 83.853874 
L 370.727187 82.170268 
L 370.97184 72.262892 
L 371.461146 72.489531 
L 371.705799 70.287892 
L 371.950452 76.569039 
L 372.195105 75.112072 
L 372.684411 84.080514 
L 372.929064 82.04076 
L 373.173717 95.477234 
L 373.41837 100.269037 
L 373.663023 98.196906 
L 373.907676 100.107152 
L 374.152329 99.751004 
L 374.396982 97.516988 
L 374.886288 102.373545 
L 375.130941 100.851824 
L 375.375594 95.671496 
L 375.620247 99.783381 
L 375.8649 99.718627 
L 376.109553 96.83707 
L 376.354206 96.351414 
L 376.598859 96.319037 
L 376.843512 95.347726 
L 377.088165 100.754692 
L 377.332818 99.783381 
L 377.577471 99.459611 
L 377.822124 99.783381 
L 378.066777 114.15879 
L 378.556083 114.061658 
L 379.045389 108.460429 
L 379.290042 111.439118 
L 379.534695 109.431741 
L 379.779348 110.791577 
L 380.024001 109.723134 
L 380.268654 107.197725 
L 380.75796 109.172724 
L 381.002613 106.032151 
L 381.247266 109.075593 
L 381.491919 107.100593 
L 381.736572 110.953462 
L 381.981225 109.269856 
L 382.470531 102.082151 
L 382.715184 102.8592 
L 382.959838 104.28379 
L 383.204491 104.413299 
L 383.449144 106.032151 
L 383.693797 105.999774 
L 383.93845 109.33461 
L 384.183103 114.579691 
L 384.427756 113.122724 
L 384.672409 110.694446 
L 384.917062 109.949774 
L 385.161715 110.305921 
L 385.406368 107.845266 
L 385.651021 106.582561 
L 386.140327 110.176413 
L 386.38498 111.762888 
L 386.629633 109.302233 
L 387.363592 111.730511 
L 387.608245 107.780511 
L 387.852898 109.982151 
L 387.852898 109.982151 
" style="fill:none;stroke:#ff7f0e;stroke-linecap:square;stroke-width:1.5;"/>
   </g>
   <g id="patch_3">
    <path d="M 46.965625 288.430125 
L 46.965625 22.318125 
" style="fill:none;stroke:#000000;stroke-linecap:square;stroke-linejoin:miter;stroke-width:0.8;"/>
   </g>
   <g id="patch_4">
    <path d="M 404.085625 288.430125 
L 404.085625 22.318125 
" style="fill:none;stroke:#000000;stroke-linecap:square;stroke-linejoin:miter;stroke-width:0.8;"/>
   </g>
   <g id="patch_5">
    <path d="M 46.965625 288.430125 
L 404.085625 288.430125 
" style="fill:none;stroke:#000000;stroke-linecap:square;stroke-linejoin:miter;stroke-width:0.8;"/>
   </g>
   <g id="patch_6">
    <path d="M 46.965625 22.318125 
L 404.085625 22.318125 
" style="fill:none;stroke:#000000;stroke-linecap:square;stroke-linejoin:miter;stroke-width:0.8;"/>
   </g>
   <g id="text_18">
    <!-- Training: DIS -->
    <defs>
     <path d="M -0.296875 72.90625 
L 61.375 72.90625 
L 61.375 64.59375 
L 35.5 64.59375 
L 35.5 0 
L 25.59375 0 
L 25.59375 64.59375 
L -0.296875 64.59375 
z
" id="DejaVuSans-84"/>
     <path d="M 54.890625 33.015625 
L 54.890625 0 
L 45.90625 0 
L 45.90625 32.71875 
Q 45.90625 40.484375 42.875 44.328125 
Q 39.84375 48.1875 33.796875 48.1875 
Q 26.515625 48.1875 22.3125 43.546875 
Q 18.109375 38.921875 18.109375 30.90625 
L 18.109375 0 
L 9.078125 0 
L 9.078125 54.6875 
L 18.109375 54.6875 
L 18.109375 46.1875 
Q 21.34375 51.125 25.703125 53.5625 
Q 30.078125 56 35.796875 56 
Q 45.21875 56 50.046875 50.171875 
Q 54.890625 44.34375 54.890625 33.015625 
z
" id="DejaVuSans-110"/>
     <path d="M 45.40625 27.984375 
Q 45.40625 37.75 41.375 43.109375 
Q 37.359375 48.484375 30.078125 48.484375 
Q 22.859375 48.484375 18.828125 43.109375 
Q 14.796875 37.75 14.796875 27.984375 
Q 14.796875 18.265625 18.828125 12.890625 
Q 22.859375 7.515625 30.078125 7.515625 
Q 37.359375 7.515625 41.375 12.890625 
Q 45.40625 18.265625 45.40625 27.984375 
z
M 54.390625 6.78125 
Q 54.390625 -7.171875 48.1875 -13.984375 
Q 42 -20.796875 29.203125 -20.796875 
Q 24.46875 -20.796875 20.265625 -20.09375 
Q 16.0625 -19.390625 12.109375 -17.921875 
L 12.109375 -9.1875 
Q 16.0625 -11.328125 19.921875 -12.34375 
Q 23.78125 -13.375 27.78125 -13.375 
Q 36.625 -13.375 41.015625 -8.765625 
Q 45.40625 -4.15625 45.40625 5.171875 
L 45.40625 9.625 
Q 42.625 4.78125 38.28125 2.390625 
Q 33.9375 0 27.875 0 
Q 17.828125 0 11.671875 7.65625 
Q 5.515625 15.328125 5.515625 27.984375 
Q 5.515625 40.671875 11.671875 48.328125 
Q 17.828125 56 27.875 56 
Q 33.9375 56 38.28125 53.609375 
Q 42.625 51.21875 45.40625 46.390625 
L 45.40625 54.6875 
L 54.390625 54.6875 
z
" id="DejaVuSans-103"/>
     <path d="M 11.71875 12.40625 
L 22.015625 12.40625 
L 22.015625 0 
L 11.71875 0 
z
M 11.71875 51.703125 
L 22.015625 51.703125 
L 22.015625 39.3125 
L 11.71875 39.3125 
z
" id="DejaVuSans-58"/>
     <path d="M 9.8125 72.90625 
L 19.671875 72.90625 
L 19.671875 0 
L 9.8125 0 
z
" id="DejaVuSans-73"/>
     <path d="M 53.515625 70.515625 
L 53.515625 60.890625 
Q 47.90625 63.578125 42.921875 64.890625 
Q 37.9375 66.21875 33.296875 66.21875 
Q 25.25 66.21875 20.875 63.09375 
Q 16.5 59.96875 16.5 54.203125 
Q 16.5 49.359375 19.40625 46.890625 
Q 22.3125 44.4375 30.421875 42.921875 
L 36.375 41.703125 
Q 47.40625 39.59375 52.65625 34.296875 
Q 57.90625 29 57.90625 20.125 
Q 57.90625 9.515625 50.796875 4.046875 
Q 43.703125 -1.421875 29.984375 -1.421875 
Q 24.8125 -1.421875 18.96875 -0.25 
Q 13.140625 0.921875 6.890625 3.21875 
L 6.890625 13.375 
Q 12.890625 10.015625 18.65625 8.296875 
Q 24.421875 6.59375 29.984375 6.59375 
Q 38.421875 6.59375 43.015625 9.90625 
Q 47.609375 13.234375 47.609375 19.390625 
Q 47.609375 24.75 44.3125 27.78125 
Q 41.015625 30.8125 33.5 32.328125 
L 27.484375 33.5 
Q 16.453125 35.6875 11.515625 40.375 
Q 6.59375 45.0625 6.59375 53.421875 
Q 6.59375 63.09375 13.40625 68.65625 
Q 20.21875 74.21875 32.171875 74.21875 
Q 37.3125 74.21875 42.625 73.28125 
Q 47.953125 72.359375 53.515625 70.515625 
z
" id="DejaVuSans-83"/>
    </defs>
    <g transform="translate(187.7275 16.318125)scale(0.12 -0.12)">
     <use xlink:href="#DejaVuSans-84"/>
     <use x="46.333984" xlink:href="#DejaVuSans-114"/>
     <use x="87.447266" xlink:href="#DejaVuSans-97"/>
     <use x="148.726562" xlink:href="#DejaVuSans-105"/>
     <use x="176.509766" xlink:href="#DejaVuSans-110"/>
     <use x="239.888672" xlink:href="#DejaVuSans-105"/>
     <use x="267.671875" xlink:href="#DejaVuSans-110"/>
     <use x="331.050781" xlink:href="#DejaVuSans-103"/>
     <use x="394.527344" xlink:href="#DejaVuSans-58"/>
     <use x="428.21875" xlink:href="#DejaVuSans-32"/>
     <use x="460.005859" xlink:href="#DejaVuSans-68"/>
     <use x="537.007812" xlink:href="#DejaVuSans-73"/>
     <use x="566.5" xlink:href="#DejaVuSans-83"/>
    </g>
   </g>
   <g id="legend_1">
    <g id="patch_7">
     <path d="M 53.965625 59.674375 
L 137.69375 59.674375 
Q 139.69375 59.674375 139.69375 57.674375 
L 139.69375 29.318125 
Q 139.69375 27.318125 137.69375 27.318125 
L 53.965625 27.318125 
Q 51.965625 27.318125 51.965625 29.318125 
L 51.965625 57.674375 
Q 51.965625 59.674375 53.965625 59.674375 
z
" style="fill:#ffffff;opacity:0.8;stroke:#cccccc;stroke-linejoin:miter;"/>
    </g>
    <g id="line2d_33">
     <path d="M 55.965625 35.416562 
L 75.965625 35.416562 
" style="fill:none;stroke:#1f77b4;stroke-linecap:square;stroke-width:1.5;"/>
    </g>
    <g id="line2d_34"/>
    <g id="text_19">
     <!-- Predicted -->
     <defs>
      <path d="M 45.40625 46.390625 
L 45.40625 75.984375 
L 54.390625 75.984375 
L 54.390625 0 
L 45.40625 0 
L 45.40625 8.203125 
Q 42.578125 3.328125 38.25 0.953125 
Q 33.9375 -1.421875 27.875 -1.421875 
Q 17.96875 -1.421875 11.734375 6.484375 
Q 5.515625 14.40625 5.515625 27.296875 
Q 5.515625 40.1875 11.734375 48.09375 
Q 17.96875 56 27.875 56 
Q 33.9375 56 38.25 53.625 
Q 42.578125 51.265625 45.40625 46.390625 
z
M 14.796875 27.296875 
Q 14.796875 17.390625 18.875 11.75 
Q 22.953125 6.109375 30.078125 6.109375 
Q 37.203125 6.109375 41.296875 11.75 
Q 45.40625 17.390625 45.40625 27.296875 
Q 45.40625 37.203125 41.296875 42.84375 
Q 37.203125 48.484375 30.078125 48.484375 
Q 22.953125 48.484375 18.875 42.84375 
Q 14.796875 37.203125 14.796875 27.296875 
z
" id="DejaVuSans-100"/>
      <path d="M 18.3125 70.21875 
L 18.3125 54.6875 
L 36.8125 54.6875 
L 36.8125 47.703125 
L 18.3125 47.703125 
L 18.3125 18.015625 
Q 18.3125 11.328125 20.140625 9.421875 
Q 21.96875 7.515625 27.59375 7.515625 
L 36.8125 7.515625 
L 36.8125 0 
L 27.59375 0 
Q 17.1875 0 13.234375 3.875 
Q 9.28125 7.765625 9.28125 18.015625 
L 9.28125 47.703125 
L 2.6875 47.703125 
L 2.6875 54.6875 
L 9.28125 54.6875 
L 9.28125 70.21875 
z
" id="DejaVuSans-116"/>
     </defs>
     <g transform="translate(83.965625 38.916562)scale(0.1 -0.1)">
      <use xlink:href="#DejaVuSans-80"/>
      <use x="58.552734" xlink:href="#DejaVuSans-114"/>
      <use x="97.416016" xlink:href="#DejaVuSans-101"/>
      <use x="158.939453" xlink:href="#DejaVuSans-100"/>
      <use x="222.416016" xlink:href="#DejaVuSans-105"/>
      <use x="250.199219" xlink:href="#DejaVuSans-99"/>
      <use x="305.179688" xlink:href="#DejaVuSans-116"/>
      <use x="344.388672" xlink:href="#DejaVuSans-101"/>
      <use x="405.912109" xlink:href="#DejaVuSans-100"/>
     </g>
    </g>
    <g id="line2d_35">
     <path d="M 55.965625 50.094687 
L 75.965625 50.094687 
" style="fill:none;stroke:#ff7f0e;stroke-linecap:square;stroke-width:1.5;"/>
    </g>
    <g id="line2d_36"/>
    <g id="text_20">
     <!-- True value -->
     <defs>
      <path d="M 8.5 21.578125 
L 8.5 54.6875 
L 17.484375 54.6875 
L 17.484375 21.921875 
Q 17.484375 14.15625 20.5 10.265625 
Q 23.53125 6.390625 29.59375 6.390625 
Q 36.859375 6.390625 41.078125 11.03125 
Q 45.3125 15.671875 45.3125 23.6875 
L 45.3125 54.6875 
L 54.296875 54.6875 
L 54.296875 0 
L 45.3125 0 
L 45.3125 8.40625 
Q 42.046875 3.421875 37.71875 1 
Q 33.40625 -1.421875 27.6875 -1.421875 
Q 18.265625 -1.421875 13.375 4.4375 
Q 8.5 10.296875 8.5 21.578125 
z
M 31.109375 56 
z
" id="DejaVuSans-117"/>
      <path d="M 2.984375 54.6875 
L 12.5 54.6875 
L 29.59375 8.796875 
L 46.6875 54.6875 
L 56.203125 54.6875 
L 35.6875 0 
L 23.484375 0 
z
" id="DejaVuSans-118"/>
      <path d="M 9.421875 75.984375 
L 18.40625 75.984375 
L 18.40625 0 
L 9.421875 0 
z
" id="DejaVuSans-108"/>
     </defs>
     <g transform="translate(83.965625 53.594687)scale(0.1 -0.1)">
      <use xlink:href="#DejaVuSans-84"/>
      <use x="46.333984" xlink:href="#DejaVuSans-114"/>
      <use x="87.447266" xlink:href="#DejaVuSans-117"/>
      <use x="150.826172" xlink:href="#DejaVuSans-101"/>
      <use x="212.349609" xlink:href="#DejaVuSans-32"/>
      <use x="244.136719" xlink:href="#DejaVuSans-118"/>
      <use x="303.316406" xlink:href="#DejaVuSans-97"/>
      <use x="364.595703" xlink:href="#DejaVuSans-108"/>
      <use x="392.378906" xlink:href="#DejaVuSans-117"/>
      <use x="455.757812" xlink:href="#DejaVuSans-101"/>
     </g>
    </g>
   </g>
  </g>
 </g>
 <defs>
  <clipPath id="pee4de064d7">
   <rect height="266.112" width="357.12" x="46.965625" y="22.318125"/>
  </clipPath>
 </defs>
</svg>
