<?xml version="1.0" encoding="utf-8" standalone="no"?>
<!DOCTYPE svg PUBLIC "-//W3C//DTD SVG 1.1//EN"
  "http://www.w3.org/Graphics/SVG/1.1/DTD/svg11.dtd">
<!-- Created with matplotlib (https://matplotlib.org/) -->
<svg height="325.986375pt" version="1.1" viewBox="0 0 404.923125 325.986375" width="404.923125pt" xmlns="http://www.w3.org/2000/svg" xmlns:xlink="http://www.w3.org/1999/xlink">
 <defs>
  <style type="text/css">
*{stroke-linecap:butt;stroke-linejoin:round;}
  </style>
 </defs>
 <g id="figure_1">
  <g id="patch_1">
   <path d="M 0 325.986375 
L 404.923125 325.986375 
L 404.923125 0 
L 0 0 
z
" style="fill:#ffffff;"/>
  </g>
  <g id="axes_1">
   <g id="patch_2">
    <path d="M 40.603125 288.430125 
L 397.723125 288.430125 
L 397.723125 22.318125 
L 40.603125 22.318125 
z
" style="fill:#ffffff;"/>
   </g>
   <g id="matplotlib.axis_1">
    <g id="xtick_1">
     <g id="line2d_1">
      <path clip-path="url(#p533bfb1339)" d="M 56.835852 288.430125 
L 56.835852 22.318125 
" style="fill:none;stroke:#b0b0b0;stroke-dasharray:2.96,1.28;stroke-dashoffset:0;stroke-width:0.8;"/>
     </g>
     <g id="line2d_2">
      <defs>
       <path d="M 0 0 
L 0 3.5 
" id="mf716eadd92" style="stroke:#000000;stroke-width:0.8;"/>
      </defs>
      <g>
       <use style="stroke:#000000;stroke-width:0.8;" x="56.835852" xlink:href="#mf716eadd92" y="288.430125"/>
      </g>
     </g>
     <g id="text_1">
      <!-- 0 -->
      <defs>
       <path d="M 31.78125 66.40625 
Q 24.171875 66.40625 20.328125 58.90625 
Q 16.5 51.421875 16.5 36.375 
Q 16.5 21.390625 20.328125 13.890625 
Q 24.171875 6.390625 31.78125 6.390625 
Q 39.453125 6.390625 43.28125 13.890625 
Q 47.125 21.390625 47.125 36.375 
Q 47.125 51.421875 43.28125 58.90625 
Q 39.453125 66.40625 31.78125 66.40625 
z
M 31.78125 74.21875 
Q 44.046875 74.21875 50.515625 64.515625 
Q 56.984375 54.828125 56.984375 36.375 
Q 56.984375 17.96875 50.515625 8.265625 
Q 44.046875 -1.421875 31.78125 -1.421875 
Q 19.53125 -1.421875 13.0625 8.265625 
Q 6.59375 17.96875 6.59375 36.375 
Q 6.59375 54.828125 13.0625 64.515625 
Q 19.53125 74.21875 31.78125 74.21875 
z
" id="DejaVuSans-48"/>
      </defs>
      <g transform="translate(53.654602 303.028562)scale(0.1 -0.1)">
       <use xlink:href="#DejaVuSans-48"/>
      </g>
     </g>
    </g>
    <g id="xtick_2">
     <g id="line2d_3">
      <path clip-path="url(#p533bfb1339)" d="M 105.766454 288.430125 
L 105.766454 22.318125 
" style="fill:none;stroke:#b0b0b0;stroke-dasharray:2.96,1.28;stroke-dashoffset:0;stroke-width:0.8;"/>
     </g>
     <g id="line2d_4">
      <g>
       <use style="stroke:#000000;stroke-width:0.8;" x="105.766454" xlink:href="#mf716eadd92" y="288.430125"/>
      </g>
     </g>
     <g id="text_2">
      <!-- 200 -->
      <defs>
       <path d="M 19.1875 8.296875 
L 53.609375 8.296875 
L 53.609375 0 
L 7.328125 0 
L 7.328125 8.296875 
Q 12.9375 14.109375 22.625 23.890625 
Q 32.328125 33.6875 34.8125 36.53125 
Q 39.546875 41.84375 41.421875 45.53125 
Q 43.3125 49.21875 43.3125 52.78125 
Q 43.3125 58.59375 39.234375 62.25 
Q 35.15625 65.921875 28.609375 65.921875 
Q 23.96875 65.921875 18.8125 64.3125 
Q 13.671875 62.703125 7.8125 59.421875 
L 7.8125 69.390625 
Q 13.765625 71.78125 18.9375 73 
Q 24.125 74.21875 28.421875 74.21875 
Q 39.75 74.21875 46.484375 68.546875 
Q 53.21875 62.890625 53.21875 53.421875 
Q 53.21875 48.921875 51.53125 44.890625 
Q 49.859375 40.875 45.40625 35.40625 
Q 44.1875 33.984375 37.640625 27.21875 
Q 31.109375 20.453125 19.1875 8.296875 
z
" id="DejaVuSans-50"/>
      </defs>
      <g transform="translate(96.222704 303.028562)scale(0.1 -0.1)">
       <use xlink:href="#DejaVuSans-50"/>
       <use x="63.623047" xlink:href="#DejaVuSans-48"/>
       <use x="127.246094" xlink:href="#DejaVuSans-48"/>
      </g>
     </g>
    </g>
    <g id="xtick_3">
     <g id="line2d_5">
      <path clip-path="url(#p533bfb1339)" d="M 154.697057 288.430125 
L 154.697057 22.318125 
" style="fill:none;stroke:#b0b0b0;stroke-dasharray:2.96,1.28;stroke-dashoffset:0;stroke-width:0.8;"/>
     </g>
     <g id="line2d_6">
      <g>
       <use style="stroke:#000000;stroke-width:0.8;" x="154.697057" xlink:href="#mf716eadd92" y="288.430125"/>
      </g>
     </g>
     <g id="text_3">
      <!-- 400 -->
      <defs>
       <path d="M 37.796875 64.3125 
L 12.890625 25.390625 
L 37.796875 25.390625 
z
M 35.203125 72.90625 
L 47.609375 72.90625 
L 47.609375 25.390625 
L 58.015625 25.390625 
L 58.015625 17.1875 
L 47.609375 17.1875 
L 47.609375 0 
L 37.796875 0 
L 37.796875 17.1875 
L 4.890625 17.1875 
L 4.890625 26.703125 
z
" id="DejaVuSans-52"/>
      </defs>
      <g transform="translate(145.153307 303.028562)scale(0.1 -0.1)">
       <use xlink:href="#DejaVuSans-52"/>
       <use x="63.623047" xlink:href="#DejaVuSans-48"/>
       <use x="127.246094" xlink:href="#DejaVuSans-48"/>
      </g>
     </g>
    </g>
    <g id="xtick_4">
     <g id="line2d_7">
      <path clip-path="url(#p533bfb1339)" d="M 203.627659 288.430125 
L 203.627659 22.318125 
" style="fill:none;stroke:#b0b0b0;stroke-dasharray:2.96,1.28;stroke-dashoffset:0;stroke-width:0.8;"/>
     </g>
     <g id="line2d_8">
      <g>
       <use style="stroke:#000000;stroke-width:0.8;" x="203.627659" xlink:href="#mf716eadd92" y="288.430125"/>
      </g>
     </g>
     <g id="text_4">
      <!-- 600 -->
      <defs>
       <path d="M 33.015625 40.375 
Q 26.375 40.375 22.484375 35.828125 
Q 18.609375 31.296875 18.609375 23.390625 
Q 18.609375 15.53125 22.484375 10.953125 
Q 26.375 6.390625 33.015625 6.390625 
Q 39.65625 6.390625 43.53125 10.953125 
Q 47.40625 15.53125 47.40625 23.390625 
Q 47.40625 31.296875 43.53125 35.828125 
Q 39.65625 40.375 33.015625 40.375 
z
M 52.59375 71.296875 
L 52.59375 62.3125 
Q 48.875 64.0625 45.09375 64.984375 
Q 41.3125 65.921875 37.59375 65.921875 
Q 27.828125 65.921875 22.671875 59.328125 
Q 17.53125 52.734375 16.796875 39.40625 
Q 19.671875 43.65625 24.015625 45.921875 
Q 28.375 48.1875 33.59375 48.1875 
Q 44.578125 48.1875 50.953125 41.515625 
Q 57.328125 34.859375 57.328125 23.390625 
Q 57.328125 12.15625 50.6875 5.359375 
Q 44.046875 -1.421875 33.015625 -1.421875 
Q 20.359375 -1.421875 13.671875 8.265625 
Q 6.984375 17.96875 6.984375 36.375 
Q 6.984375 53.65625 15.1875 63.9375 
Q 23.390625 74.21875 37.203125 74.21875 
Q 40.921875 74.21875 44.703125 73.484375 
Q 48.484375 72.75 52.59375 71.296875 
z
" id="DejaVuSans-54"/>
      </defs>
      <g transform="translate(194.083909 303.028562)scale(0.1 -0.1)">
       <use xlink:href="#DejaVuSans-54"/>
       <use x="63.623047" xlink:href="#DejaVuSans-48"/>
       <use x="127.246094" xlink:href="#DejaVuSans-48"/>
      </g>
     </g>
    </g>
    <g id="xtick_5">
     <g id="line2d_9">
      <path clip-path="url(#p533bfb1339)" d="M 252.558261 288.430125 
L 252.558261 22.318125 
" style="fill:none;stroke:#b0b0b0;stroke-dasharray:2.96,1.28;stroke-dashoffset:0;stroke-width:0.8;"/>
     </g>
     <g id="line2d_10">
      <g>
       <use style="stroke:#000000;stroke-width:0.8;" x="252.558261" xlink:href="#mf716eadd92" y="288.430125"/>
      </g>
     </g>
     <g id="text_5">
      <!-- 800 -->
      <defs>
       <path d="M 31.78125 34.625 
Q 24.75 34.625 20.71875 30.859375 
Q 16.703125 27.09375 16.703125 20.515625 
Q 16.703125 13.921875 20.71875 10.15625 
Q 24.75 6.390625 31.78125 6.390625 
Q 38.8125 6.390625 42.859375 10.171875 
Q 46.921875 13.96875 46.921875 20.515625 
Q 46.921875 27.09375 42.890625 30.859375 
Q 38.875 34.625 31.78125 34.625 
z
M 21.921875 38.8125 
Q 15.578125 40.375 12.03125 44.71875 
Q 8.5 49.078125 8.5 55.328125 
Q 8.5 64.0625 14.71875 69.140625 
Q 20.953125 74.21875 31.78125 74.21875 
Q 42.671875 74.21875 48.875 69.140625 
Q 55.078125 64.0625 55.078125 55.328125 
Q 55.078125 49.078125 51.53125 44.71875 
Q 48 40.375 41.703125 38.8125 
Q 48.828125 37.15625 52.796875 32.3125 
Q 56.78125 27.484375 56.78125 20.515625 
Q 56.78125 9.90625 50.3125 4.234375 
Q 43.84375 -1.421875 31.78125 -1.421875 
Q 19.734375 -1.421875 13.25 4.234375 
Q 6.78125 9.90625 6.78125 20.515625 
Q 6.78125 27.484375 10.78125 32.3125 
Q 14.796875 37.15625 21.921875 38.8125 
z
M 18.3125 54.390625 
Q 18.3125 48.734375 21.84375 45.5625 
Q 25.390625 42.390625 31.78125 42.390625 
Q 38.140625 42.390625 41.71875 45.5625 
Q 45.3125 48.734375 45.3125 54.390625 
Q 45.3125 60.0625 41.71875 63.234375 
Q 38.140625 66.40625 31.78125 66.40625 
Q 25.390625 66.40625 21.84375 63.234375 
Q 18.3125 60.0625 18.3125 54.390625 
z
" id="DejaVuSans-56"/>
      </defs>
      <g transform="translate(243.014511 303.028562)scale(0.1 -0.1)">
       <use xlink:href="#DejaVuSans-56"/>
       <use x="63.623047" xlink:href="#DejaVuSans-48"/>
       <use x="127.246094" xlink:href="#DejaVuSans-48"/>
      </g>
     </g>
    </g>
    <g id="xtick_6">
     <g id="line2d_11">
      <path clip-path="url(#p533bfb1339)" d="M 301.488863 288.430125 
L 301.488863 22.318125 
" style="fill:none;stroke:#b0b0b0;stroke-dasharray:2.96,1.28;stroke-dashoffset:0;stroke-width:0.8;"/>
     </g>
     <g id="line2d_12">
      <g>
       <use style="stroke:#000000;stroke-width:0.8;" x="301.488863" xlink:href="#mf716eadd92" y="288.430125"/>
      </g>
     </g>
     <g id="text_6">
      <!-- 1000 -->
      <defs>
       <path d="M 12.40625 8.296875 
L 28.515625 8.296875 
L 28.515625 63.921875 
L 10.984375 60.40625 
L 10.984375 69.390625 
L 28.421875 72.90625 
L 38.28125 72.90625 
L 38.28125 8.296875 
L 54.390625 8.296875 
L 54.390625 0 
L 12.40625 0 
z
" id="DejaVuSans-49"/>
      </defs>
      <g transform="translate(288.763863 303.028562)scale(0.1 -0.1)">
       <use xlink:href="#DejaVuSans-49"/>
       <use x="63.623047" xlink:href="#DejaVuSans-48"/>
       <use x="127.246094" xlink:href="#DejaVuSans-48"/>
       <use x="190.869141" xlink:href="#DejaVuSans-48"/>
      </g>
     </g>
    </g>
    <g id="xtick_7">
     <g id="line2d_13">
      <path clip-path="url(#p533bfb1339)" d="M 350.419465 288.430125 
L 350.419465 22.318125 
" style="fill:none;stroke:#b0b0b0;stroke-dasharray:2.96,1.28;stroke-dashoffset:0;stroke-width:0.8;"/>
     </g>
     <g id="line2d_14">
      <g>
       <use style="stroke:#000000;stroke-width:0.8;" x="350.419465" xlink:href="#mf716eadd92" y="288.430125"/>
      </g>
     </g>
     <g id="text_7">
      <!-- 1200 -->
      <g transform="translate(337.694465 303.028562)scale(0.1 -0.1)">
       <use xlink:href="#DejaVuSans-49"/>
       <use x="63.623047" xlink:href="#DejaVuSans-50"/>
       <use x="127.246094" xlink:href="#DejaVuSans-48"/>
       <use x="190.869141" xlink:href="#DejaVuSans-48"/>
      </g>
     </g>
    </g>
    <g id="text_8">
     <!-- Day -->
     <defs>
      <path d="M 19.671875 64.796875 
L 19.671875 8.109375 
L 31.59375 8.109375 
Q 46.6875 8.109375 53.6875 14.9375 
Q 60.6875 21.78125 60.6875 36.53125 
Q 60.6875 51.171875 53.6875 57.984375 
Q 46.6875 64.796875 31.59375 64.796875 
z
M 9.8125 72.90625 
L 30.078125 72.90625 
Q 51.265625 72.90625 61.171875 64.09375 
Q 71.09375 55.28125 71.09375 36.53125 
Q 71.09375 17.671875 61.125 8.828125 
Q 51.171875 0 30.078125 0 
L 9.8125 0 
z
" id="DejaVuSans-68"/>
      <path d="M 34.28125 27.484375 
Q 23.390625 27.484375 19.1875 25 
Q 14.984375 22.515625 14.984375 16.5 
Q 14.984375 11.71875 18.140625 8.90625 
Q 21.296875 6.109375 26.703125 6.109375 
Q 34.1875 6.109375 38.703125 11.40625 
Q 43.21875 16.703125 43.21875 25.484375 
L 43.21875 27.484375 
z
M 52.203125 31.203125 
L 52.203125 0 
L 43.21875 0 
L 43.21875 8.296875 
Q 40.140625 3.328125 35.546875 0.953125 
Q 30.953125 -1.421875 24.3125 -1.421875 
Q 15.921875 -1.421875 10.953125 3.296875 
Q 6 8.015625 6 15.921875 
Q 6 25.140625 12.171875 29.828125 
Q 18.359375 34.515625 30.609375 34.515625 
L 43.21875 34.515625 
L 43.21875 35.40625 
Q 43.21875 41.609375 39.140625 45 
Q 35.0625 48.390625 27.6875 48.390625 
Q 23 48.390625 18.546875 47.265625 
Q 14.109375 46.140625 10.015625 43.890625 
L 10.015625 52.203125 
Q 14.9375 54.109375 19.578125 55.046875 
Q 24.21875 56 28.609375 56 
Q 40.484375 56 46.34375 49.84375 
Q 52.203125 43.703125 52.203125 31.203125 
z
" id="DejaVuSans-97"/>
      <path d="M 32.171875 -5.078125 
Q 28.375 -14.84375 24.75 -17.8125 
Q 21.140625 -20.796875 15.09375 -20.796875 
L 7.90625 -20.796875 
L 7.90625 -13.28125 
L 13.1875 -13.28125 
Q 16.890625 -13.28125 18.9375 -11.515625 
Q 21 -9.765625 23.484375 -3.21875 
L 25.09375 0.875 
L 2.984375 54.6875 
L 12.5 54.6875 
L 29.59375 11.921875 
L 46.6875 54.6875 
L 56.203125 54.6875 
z
" id="DejaVuSans-121"/>
     </defs>
     <g transform="translate(209.289688 316.706687)scale(0.1 -0.1)">
      <use xlink:href="#DejaVuSans-68"/>
      <use x="77.001953" xlink:href="#DejaVuSans-97"/>
      <use x="138.28125" xlink:href="#DejaVuSans-121"/>
     </g>
    </g>
   </g>
   <g id="matplotlib.axis_2">
    <g id="ytick_1">
     <g id="line2d_15">
      <path clip-path="url(#p533bfb1339)" d="M 40.603125 258.148034 
L 397.723125 258.148034 
" style="fill:none;stroke:#b0b0b0;stroke-dasharray:2.96,1.28;stroke-dashoffset:0;stroke-width:0.8;"/>
     </g>
     <g id="line2d_16">
      <defs>
       <path d="M 0 0 
L -3.5 0 
" id="m42fb99b142" style="stroke:#000000;stroke-width:0.8;"/>
      </defs>
      <g>
       <use style="stroke:#000000;stroke-width:0.8;" x="40.603125" xlink:href="#m42fb99b142" y="258.148034"/>
      </g>
     </g>
     <g id="text_9">
      <!-- 8 -->
      <g transform="translate(27.240625 261.947253)scale(0.1 -0.1)">
       <use xlink:href="#DejaVuSans-56"/>
      </g>
     </g>
    </g>
    <g id="ytick_2">
     <g id="line2d_17">
      <path clip-path="url(#p533bfb1339)" d="M 40.603125 215.8548 
L 397.723125 215.8548 
" style="fill:none;stroke:#b0b0b0;stroke-dasharray:2.96,1.28;stroke-dashoffset:0;stroke-width:0.8;"/>
     </g>
     <g id="line2d_18">
      <g>
       <use style="stroke:#000000;stroke-width:0.8;" x="40.603125" xlink:href="#m42fb99b142" y="215.8548"/>
      </g>
     </g>
     <g id="text_10">
      <!-- 10 -->
      <g transform="translate(20.878125 219.654019)scale(0.1 -0.1)">
       <use xlink:href="#DejaVuSans-49"/>
       <use x="63.623047" xlink:href="#DejaVuSans-48"/>
      </g>
     </g>
    </g>
    <g id="ytick_3">
     <g id="line2d_19">
      <path clip-path="url(#p533bfb1339)" d="M 40.603125 173.561566 
L 397.723125 173.561566 
" style="fill:none;stroke:#b0b0b0;stroke-dasharray:2.96,1.28;stroke-dashoffset:0;stroke-width:0.8;"/>
     </g>
     <g id="line2d_20">
      <g>
       <use style="stroke:#000000;stroke-width:0.8;" x="40.603125" xlink:href="#m42fb99b142" y="173.561566"/>
      </g>
     </g>
     <g id="text_11">
      <!-- 12 -->
      <g transform="translate(20.878125 177.360785)scale(0.1 -0.1)">
       <use xlink:href="#DejaVuSans-49"/>
       <use x="63.623047" xlink:href="#DejaVuSans-50"/>
      </g>
     </g>
    </g>
    <g id="ytick_4">
     <g id="line2d_21">
      <path clip-path="url(#p533bfb1339)" d="M 40.603125 131.268332 
L 397.723125 131.268332 
" style="fill:none;stroke:#b0b0b0;stroke-dasharray:2.96,1.28;stroke-dashoffset:0;stroke-width:0.8;"/>
     </g>
     <g id="line2d_22">
      <g>
       <use style="stroke:#000000;stroke-width:0.8;" x="40.603125" xlink:href="#m42fb99b142" y="131.268332"/>
      </g>
     </g>
     <g id="text_12">
      <!-- 14 -->
      <g transform="translate(20.878125 135.067551)scale(0.1 -0.1)">
       <use xlink:href="#DejaVuSans-49"/>
       <use x="63.623047" xlink:href="#DejaVuSans-52"/>
      </g>
     </g>
    </g>
    <g id="ytick_5">
     <g id="line2d_23">
      <path clip-path="url(#p533bfb1339)" d="M 40.603125 88.975098 
L 397.723125 88.975098 
" style="fill:none;stroke:#b0b0b0;stroke-dasharray:2.96,1.28;stroke-dashoffset:0;stroke-width:0.8;"/>
     </g>
     <g id="line2d_24">
      <g>
       <use style="stroke:#000000;stroke-width:0.8;" x="40.603125" xlink:href="#m42fb99b142" y="88.975098"/>
      </g>
     </g>
     <g id="text_13">
      <!-- 16 -->
      <g transform="translate(20.878125 92.774317)scale(0.1 -0.1)">
       <use xlink:href="#DejaVuSans-49"/>
       <use x="63.623047" xlink:href="#DejaVuSans-54"/>
      </g>
     </g>
    </g>
    <g id="ytick_6">
     <g id="line2d_25">
      <path clip-path="url(#p533bfb1339)" d="M 40.603125 46.681864 
L 397.723125 46.681864 
" style="fill:none;stroke:#b0b0b0;stroke-dasharray:2.96,1.28;stroke-dashoffset:0;stroke-width:0.8;"/>
     </g>
     <g id="line2d_26">
      <g>
       <use style="stroke:#000000;stroke-width:0.8;" x="40.603125" xlink:href="#m42fb99b142" y="46.681864"/>
      </g>
     </g>
     <g id="text_14">
      <!-- 18 -->
      <g transform="translate(20.878125 50.481082)scale(0.1 -0.1)">
       <use xlink:href="#DejaVuSans-49"/>
       <use x="63.623047" xlink:href="#DejaVuSans-56"/>
      </g>
     </g>
    </g>
    <g id="text_15">
     <!-- Price $ -->
     <defs>
      <path d="M 19.671875 64.796875 
L 19.671875 37.40625 
L 32.078125 37.40625 
Q 38.96875 37.40625 42.71875 40.96875 
Q 46.484375 44.53125 46.484375 51.125 
Q 46.484375 57.671875 42.71875 61.234375 
Q 38.96875 64.796875 32.078125 64.796875 
z
M 9.8125 72.90625 
L 32.078125 72.90625 
Q 44.34375 72.90625 50.609375 67.359375 
Q 56.890625 61.8125 56.890625 51.125 
Q 56.890625 40.328125 50.609375 34.8125 
Q 44.34375 29.296875 32.078125 29.296875 
L 19.671875 29.296875 
L 19.671875 0 
L 9.8125 0 
z
" id="DejaVuSans-80"/>
      <path d="M 41.109375 46.296875 
Q 39.59375 47.171875 37.8125 47.578125 
Q 36.03125 48 33.890625 48 
Q 26.265625 48 22.1875 43.046875 
Q 18.109375 38.09375 18.109375 28.8125 
L 18.109375 0 
L 9.078125 0 
L 9.078125 54.6875 
L 18.109375 54.6875 
L 18.109375 46.1875 
Q 20.953125 51.171875 25.484375 53.578125 
Q 30.03125 56 36.53125 56 
Q 37.453125 56 38.578125 55.875 
Q 39.703125 55.765625 41.0625 55.515625 
z
" id="DejaVuSans-114"/>
      <path d="M 9.421875 54.6875 
L 18.40625 54.6875 
L 18.40625 0 
L 9.421875 0 
z
M 9.421875 75.984375 
L 18.40625 75.984375 
L 18.40625 64.59375 
L 9.421875 64.59375 
z
" id="DejaVuSans-105"/>
      <path d="M 48.78125 52.59375 
L 48.78125 44.1875 
Q 44.96875 46.296875 41.140625 47.34375 
Q 37.3125 48.390625 33.40625 48.390625 
Q 24.65625 48.390625 19.8125 42.84375 
Q 14.984375 37.3125 14.984375 27.296875 
Q 14.984375 17.28125 19.8125 11.734375 
Q 24.65625 6.203125 33.40625 6.203125 
Q 37.3125 6.203125 41.140625 7.25 
Q 44.96875 8.296875 48.78125 10.40625 
L 48.78125 2.09375 
Q 45.015625 0.34375 40.984375 -0.53125 
Q 36.96875 -1.421875 32.421875 -1.421875 
Q 20.0625 -1.421875 12.78125 6.34375 
Q 5.515625 14.109375 5.515625 27.296875 
Q 5.515625 40.671875 12.859375 48.328125 
Q 20.21875 56 33.015625 56 
Q 37.15625 56 41.109375 55.140625 
Q 45.0625 54.296875 48.78125 52.59375 
z
" id="DejaVuSans-99"/>
      <path d="M 56.203125 29.59375 
L 56.203125 25.203125 
L 14.890625 25.203125 
Q 15.484375 15.921875 20.484375 11.0625 
Q 25.484375 6.203125 34.421875 6.203125 
Q 39.59375 6.203125 44.453125 7.46875 
Q 49.3125 8.734375 54.109375 11.28125 
L 54.109375 2.78125 
Q 49.265625 0.734375 44.1875 -0.34375 
Q 39.109375 -1.421875 33.890625 -1.421875 
Q 20.796875 -1.421875 13.15625 6.1875 
Q 5.515625 13.8125 5.515625 26.8125 
Q 5.515625 40.234375 12.765625 48.109375 
Q 20.015625 56 32.328125 56 
Q 43.359375 56 49.78125 48.890625 
Q 56.203125 41.796875 56.203125 29.59375 
z
M 47.21875 32.234375 
Q 47.125 39.59375 43.09375 43.984375 
Q 39.0625 48.390625 32.421875 48.390625 
Q 24.90625 48.390625 20.390625 44.140625 
Q 15.875 39.890625 15.1875 32.171875 
z
" id="DejaVuSans-101"/>
      <path id="DejaVuSans-32"/>
      <path d="M 33.796875 -14.703125 
L 28.90625 -14.703125 
L 28.859375 0 
Q 23.734375 0.09375 18.609375 1.1875 
Q 13.484375 2.296875 8.296875 4.5 
L 8.296875 13.28125 
Q 13.28125 10.15625 18.375 8.5625 
Q 23.484375 6.984375 28.90625 6.9375 
L 28.90625 29.203125 
Q 18.109375 30.953125 13.203125 35.15625 
Q 8.296875 39.359375 8.296875 46.6875 
Q 8.296875 54.640625 13.625 59.21875 
Q 18.953125 63.8125 28.90625 64.5 
L 28.90625 75.984375 
L 33.796875 75.984375 
L 33.796875 64.65625 
Q 38.328125 64.453125 42.578125 63.6875 
Q 46.828125 62.9375 50.875 61.625 
L 50.875 53.078125 
Q 46.828125 55.125 42.546875 56.25 
Q 38.28125 57.375 33.796875 57.5625 
L 33.796875 36.71875 
Q 44.875 35.015625 50.09375 30.609375 
Q 55.328125 26.21875 55.328125 18.609375 
Q 55.328125 10.359375 49.78125 5.59375 
Q 44.234375 0.828125 33.796875 0.09375 
z
M 28.90625 37.59375 
L 28.90625 57.625 
Q 23.25 56.984375 20.265625 54.390625 
Q 17.28125 51.8125 17.28125 47.515625 
Q 17.28125 43.3125 20.03125 40.96875 
Q 22.796875 38.625 28.90625 37.59375 
z
M 33.796875 28.21875 
L 33.796875 7.078125 
Q 39.984375 7.90625 43.140625 10.59375 
Q 46.296875 13.28125 46.296875 17.671875 
Q 46.296875 21.96875 43.28125 24.5 
Q 40.28125 27.046875 33.796875 28.21875 
z
" id="DejaVuSans-36"/>
     </defs>
     <g transform="translate(14.798438 172.342094)rotate(-90)scale(0.1 -0.1)">
      <use xlink:href="#DejaVuSans-80"/>
      <use x="58.552734" xlink:href="#DejaVuSans-114"/>
      <use x="99.666016" xlink:href="#DejaVuSans-105"/>
      <use x="127.449219" xlink:href="#DejaVuSans-99"/>
      <use x="182.429688" xlink:href="#DejaVuSans-101"/>
      <use x="243.953125" xlink:href="#DejaVuSans-32"/>
      <use x="275.740234" xlink:href="#DejaVuSans-36"/>
     </g>
    </g>
   </g>
   <g id="line2d_27">
    <path clip-path="url(#p533bfb1339)" d="M 56.835852 187.314986 
L 57.080505 188.845923 
L 57.325158 191.742487 
L 57.569811 191.29839 
L 57.814464 188.728833 
L 58.059117 183.584114 
L 58.30377 185.246075 
L 58.548423 177.488118 
L 59.037729 172.607547 
L 59.282382 170.004311 
L 59.527035 172.908438 
L 59.771688 178.034765 
L 60.016341 175.356791 
L 60.260994 168.677727 
L 60.505647 202.693906 
L 60.7503 207.793854 
L 60.994953 203.516195 
L 61.239606 203.648188 
L 61.484259 207.227949 
L 61.728912 207.17374 
L 62.218219 210.183118 
L 62.462872 206.599283 
L 62.707525 212.200885 
L 63.196831 214.342276 
L 63.93079 206.440145 
L 64.175443 211.801357 
L 64.420096 209.194411 
L 64.909402 212.079399 
L 65.154055 209.553686 
L 65.398708 214.045378 
L 65.643361 211.365468 
L 66.37732 220.265764 
L 66.866626 232.016703 
L 67.111279 232.914699 
L 67.355932 230.717102 
L 67.600585 234.106003 
L 67.845238 233.473465 
L 68.089891 231.828364 
L 68.334544 233.352726 
L 68.579197 229.796237 
L 68.82385 231.97649 
L 69.068503 233.092329 
L 69.557809 240.833266 
L 69.802462 239.8834 
L 70.047115 242.36642 
L 70.291768 243.353453 
L 70.536421 238.220088 
L 70.781074 237.378863 
L 71.025727 240.7456 
L 71.27038 265.931029 
L 71.515033 268.778244 
L 71.759686 265.986528 
L 72.004339 266.661255 
L 72.248992 263.807344 
L 72.493645 263.410004 
L 72.982951 256.455419 
L 73.227604 258.330535 
L 73.472257 255.210229 
L 73.71691 254.814875 
L 73.961563 259.533446 
L 74.450869 262.737597 
L 74.695522 262.63294 
L 75.184828 271.342184 
L 75.429481 270.579509 
L 75.674134 270.559221 
L 75.918787 264.92881 
L 76.16344 262.56044 
L 76.408093 262.089893 
L 76.897399 250.976049 
L 77.142052 251.942976 
L 77.386705 246.924966 
L 77.631358 248.115705 
L 77.876011 248.369083 
L 78.120664 247.435412 
L 78.365317 244.453159 
L 78.60997 242.876907 
L 78.854623 239.904495 
L 79.099276 241.45578 
L 79.343929 244.639764 
L 79.588582 244.478771 
L 80.322541 253.552644 
L 80.567194 251.341616 
L 80.811847 245.191936 
L 81.0565 243.248484 
L 81.301153 248.389311 
L 81.790459 252.463022 
L 82.035112 269.541131 
L 82.279765 275.041353 
L 82.524418 274.614943 
L 82.769071 273.04097 
L 83.258377 268.775511 
L 83.50303 262.572207 
L 83.747683 261.564765 
L 83.992336 259.703766 
L 84.726296 245.316608 
L 84.970949 242.667271 
L 85.215602 243.916435 
L 85.460255 242.390984 
L 85.704908 243.331834 
L 85.949561 243.627119 
L 86.194214 239.660293 
L 86.438867 230.875736 
L 86.68352 234.586461 
L 86.928173 233.348148 
L 87.172826 228.326689 
L 87.417479 227.523963 
L 87.662132 231.024003 
L 87.906785 231.478204 
L 88.151438 226.37392 
L 88.396091 230.922967 
L 88.640744 227.248845 
L 88.885397 226.291881 
L 89.13005 230.80743 
L 89.619356 225.414415 
L 90.108662 228.732328 
L 90.353315 225.956423 
L 90.597968 229.39806 
L 90.842621 230.998795 
L 91.087274 231.83159 
L 91.331927 227.17822 
L 91.57658 218.58898 
L 91.821233 218.981691 
L 92.310539 210.115861 
L 92.555192 213.610941 
L 92.799845 210.199292 
L 93.289151 208.122939 
L 93.533804 206.221999 
L 93.778457 207.95515 
L 94.02311 201.495624 
L 94.267763 201.329367 
L 94.512416 203.584722 
L 95.001722 197.904892 
L 95.491028 204.760578 
L 95.735681 208.602329 
L 95.980334 206.239847 
L 96.224987 212.490181 
L 96.714293 209.90441 
L 96.958946 205.522669 
L 97.203599 205.013593 
L 97.448252 203.734523 
L 97.692905 207.26429 
L 97.937558 212.696549 
L 98.182211 215.00335 
L 98.426864 207.663616 
L 98.671517 209.507887 
L 98.91617 205.82602 
L 99.160823 206.977616 
L 99.405476 204.772921 
L 99.650129 208.580447 
L 99.894782 206.269634 
L 100.139435 212.102773 
L 100.384088 209.98655 
L 100.873394 224.578151 
L 101.118047 221.036203 
L 101.3627 214.337275 
L 101.852006 207.93218 
L 102.096659 203.936475 
L 102.341312 204.159804 
L 102.830618 199.690538 
L 103.075271 196.726334 
L 103.319924 199.255758 
L 103.564577 200.556508 
L 103.80923 198.855362 
L 104.053883 202.749547 
L 104.298536 198.26326 
L 104.543189 198.863127 
L 105.277148 191.439861 
L 105.766454 188.330656 
L 106.25576 183.269106 
L 106.500413 182.131083 
L 106.745066 186.899264 
L 106.98972 187.942704 
L 107.234373 187.329809 
L 107.479026 188.25263 
L 107.723679 185.619629 
L 108.212985 197.302807 
L 108.457638 196.747388 
L 108.702291 198.160872 
L 108.946944 200.376074 
L 109.191597 199.48068 
L 109.43625 189.851933 
L 109.680903 191.255958 
L 109.925556 197.039204 
L 110.414862 193.776852 
L 110.659515 194.191908 
L 111.148821 182.704571 
L 111.393474 189.283688 
L 111.638127 190.856833 
L 111.88278 190.41683 
L 112.127433 194.01694 
L 112.616739 179.280943 
L 112.861392 177.195657 
L 113.106045 179.620777 
L 113.350698 178.716389 
L 113.595351 179.196928 
L 113.840004 174.960973 
L 114.084657 172.865261 
L 114.32931 182.852496 
L 114.573963 179.107507 
L 114.818616 179.450245 
L 115.063269 173.654112 
L 115.307922 173.302602 
L 115.552575 173.9763 
L 115.797228 176.252144 
L 116.041881 173.288606 
L 116.286534 175.981584 
L 116.531187 172.782294 
L 116.77584 174.479829 
L 117.020493 173.446332 
L 117.509799 174.134833 
L 117.754452 175.616138 
L 117.999105 171.147275 
L 118.488411 153.125129 
L 118.977717 149.872033 
L 119.22237 152.114663 
L 119.467023 156.185994 
L 119.711676 155.168307 
L 119.956329 156.0515 
L 120.200982 158.570397 
L 120.445635 158.450686 
L 120.690288 144.516529 
L 121.179594 151.553557 
L 121.424247 152.207753 
L 121.6689 149.059909 
L 121.913553 148.653484 
L 122.402859 152.914868 
L 122.647512 168.875646 
L 122.892165 172.903437 
L 123.136818 180.197432 
L 123.626124 172.880164 
L 123.870777 171.001347 
L 124.11543 167.955104 
L 124.360083 167.741697 
L 124.604736 172.387827 
L 124.849389 171.894603 
L 125.094042 161.716306 
L 125.338695 156.627631 
L 125.583348 156.400792 
L 125.828001 161.703782 
L 126.317307 157.553053 
L 126.56196 159.085442 
L 126.806613 158.637553 
L 127.295919 163.642071 
L 127.540572 172.276606 
L 128.029878 173.948712 
L 128.274531 173.53303 
L 128.763837 183.564472 
L 129.00849 188.306637 
L 129.253143 188.079355 
L 129.497797 187.641974 
L 129.987103 193.507219 
L 130.231756 194.910256 
L 130.476409 192.646048 
L 130.721062 185.992718 
L 130.965715 188.242829 
L 131.210368 185.84318 
L 131.455021 187.76106 
L 131.944327 178.939274 
L 132.18898 178.609766 
L 132.678286 169.954136 
L 133.167592 176.077781 
L 133.412245 174.251801 
L 133.656898 174.214533 
L 133.901551 173.471359 
L 134.146204 172.236172 
L 134.390857 173.580926 
L 134.63551 173.078284 
L 134.880163 173.295967 
L 135.124816 152.015078 
L 135.369469 152.310787 
L 135.614122 152.140617 
L 135.858775 145.016852 
L 136.348081 138.321755 
L 136.592734 132.269824 
L 136.837387 137.973209 
L 137.08204 134.08935 
L 137.326693 135.802798 
L 137.571346 144.51179 
L 137.815999 145.912871 
L 138.060652 135.10014 
L 138.305305 119.142105 
L 138.549958 121.351338 
L 138.794611 125.633716 
L 139.039264 124.708233 
L 139.283917 126.329135 
L 139.52857 126.153198 
L 139.773223 128.722351 
L 140.017876 126.720253 
L 140.507182 139.355817 
L 140.751835 143.163385 
L 141.241141 141.73891 
L 141.485794 148.428682 
L 141.730447 148.834422 
L 141.9751 139.286846 
L 142.219753 140.144992 
L 142.464406 142.437212 
L 142.709059 142.563215 
L 142.953712 144.629928 
L 143.198365 142.614258 
L 143.443018 143.19781 
L 143.687671 136.223159 
L 143.932324 138.797414 
L 144.176977 136.077714 
L 144.42163 123.353214 
L 144.666283 127.420895 
L 144.910936 127.596731 
L 145.155589 117.640512 
L 145.400242 116.353636 
L 145.889548 106.992505 
L 146.134201 105.621311 
L 146.378854 105.188205 
L 146.623507 92.997867 
L 146.86816 99.172373 
L 147.112813 115.138273 
L 147.357466 116.522656 
L 147.602119 112.199116 
L 147.846772 103.065347 
L 148.091425 106.385619 
L 148.336078 115.074162 
L 148.825384 111.28057 
L 149.070037 112.602718 
L 149.31469 109.244229 
L 149.559343 111.303016 
L 149.803996 121.161829 
L 150.048649 121.668181 
L 150.537955 117.782588 
L 150.782608 112.069926 
L 151.271914 113.598483 
L 151.516567 104.835182 
L 151.76122 104.868417 
L 152.005874 103.163742 
L 152.250527 94.793838 
L 152.49518 93.660453 
L 152.739833 86.5455 
L 152.984486 97.192761 
L 153.229139 101.118386 
L 153.473792 107.339498 
L 153.718445 103.880255 
L 153.963098 103.206435 
L 154.207751 103.806282 
L 154.452404 101.076519 
L 154.697057 95.821648 
L 154.94171 94.566939 
L 155.186363 91.569843 
L 155.431016 91.405462 
L 155.675669 97.307169 
L 155.920322 92.004441 
L 156.164975 90.987561 
L 156.409628 94.525516 
L 156.654281 92.728779 
L 156.898934 95.659667 
L 157.632893 85.153212 
L 157.877546 84.890315 
L 158.122199 91.145408 
L 158.366852 93.662268 
L 158.611505 103.36525 
L 158.856158 103.242938 
L 159.100811 100.674067 
L 159.83477 84.007969 
L 160.079423 91.33036 
L 160.324076 89.843871 
L 160.568729 92.541387 
L 160.813382 88.301117 
L 161.058035 90.021502 
L 161.302688 103.976552 
L 161.547341 110.763348 
L 161.791994 106.359947 
L 162.2813 104.017269 
L 162.770606 92.987864 
L 163.015259 93.225956 
L 163.259912 92.729767 
L 163.504565 90.972577 
L 163.749218 91.352221 
L 163.993871 94.563733 
L 164.238524 91.556169 
L 164.72783 91.971529 
L 164.972483 92.362123 
L 165.217136 90.723132 
L 165.461789 101.456183 
L 165.706442 103.346999 
L 166.440401 96.555303 
L 166.685054 105.634258 
L 166.929707 103.532475 
L 167.17436 105.6586 
L 167.419013 102.767239 
L 167.663666 96.858675 
L 167.908319 103.872773 
L 168.397625 97.327295 
L 168.642278 91.289239 
L 168.886931 93.77353 
L 169.131584 94.657953 
L 169.376237 94.183786 
L 169.62089 97.715066 
L 169.865543 90.595576 
L 170.110196 87.566918 
L 170.354849 88.458984 
L 170.599502 105.051735 
L 170.844155 105.365351 
L 171.088808 112.795534 
L 171.333461 113.270386 
L 171.578114 106.816769 
L 171.822767 111.069785 
L 172.06742 112.102758 
L 172.312073 118.148578 
L 172.556726 113.399495 
L 172.801379 114.244008 
L 173.046032 115.948905 
L 173.290685 113.497688 
L 173.535338 115.712669 
L 173.779991 122.82744 
L 174.024644 120.480346 
L 174.513951 126.838775 
L 174.758604 124.001683 
L 175.003257 118.181874 
L 175.24791 119.536692 
L 175.492563 117.753124 
L 175.737216 119.458182 
L 175.981869 117.511766 
L 176.226522 123.674736 
L 176.471175 125.450076 
L 176.960481 132.46736 
L 177.449787 122.928477 
L 177.69444 128.710614 
L 177.939093 126.454674 
L 178.183746 126.75363 
L 178.428399 127.622625 
L 178.673052 131.918657 
L 178.917705 131.918697 
L 179.162358 143.356 
L 179.407011 146.755145 
L 179.896317 139.05422 
L 180.14097 144.760368 
L 180.385623 144.06019 
L 180.630276 145.325911 
L 180.874929 150.708701 
L 181.119582 150.215074 
L 181.364235 155.820608 
L 181.608888 153.920213 
L 181.853541 149.661571 
L 182.098194 150.352814 
L 182.342847 146.822543 
L 182.5875 145.204163 
L 182.832153 145.164736 
L 183.321459 141.814496 
L 183.566112 140.80899 
L 183.810765 138.731609 
L 184.055418 134.070071 
L 184.300071 141.039035 
L 184.544724 142.016166 
L 185.03403 132.941647 
L 185.278683 133.199946 
L 185.523336 134.360576 
L 186.012642 128.531269 
L 186.257295 128.571159 
L 186.746601 133.47214 
L 187.235907 133.537057 
L 187.48056 134.106149 
L 187.725213 136.879372 
L 187.969866 132.983433 
L 188.214519 134.280957 
L 188.703825 132.270712 
L 188.948478 139.914987 
L 189.193131 143.807014 
L 189.437784 135.267808 
L 190.416396 141.883568 
L 190.661049 144.290437 
L 190.905702 148.900751 
L 191.150355 148.355315 
L 191.395008 148.985089 
L 191.639661 151.032079 
L 191.884314 145.109196 
L 192.128967 149.083101 
L 192.618273 179.384118 
L 192.862926 175.035954 
L 193.107579 174.769165 
L 193.352232 170.28915 
L 193.596885 170.070116 
L 194.086191 157.80865 
L 194.330844 158.788967 
L 194.82015 151.481318 
L 195.064803 151.549926 
L 195.309456 150.732901 
L 195.554109 152.593286 
L 195.798762 158.329785 
L 196.043415 143.384859 
L 196.288068 141.173307 
L 196.532721 141.919364 
L 196.777375 137.81756 
L 197.022028 144.356423 
L 197.266681 144.305401 
L 197.511334 140.428721 
L 197.755987 144.979502 
L 198.00064 145.491159 
L 198.245293 154.154311 
L 198.489946 149.432675 
L 198.734599 151.351604 
L 198.979252 142.610083 
L 199.468558 146.014996 
L 199.713211 131.770329 
L 199.957864 133.15933 
L 200.202517 129.818527 
L 200.44717 123.574365 
L 200.691823 124.363096 
L 200.936476 125.803805 
L 201.181129 120.71275 
L 201.425782 108.375314 
L 201.670435 109.982764 
L 201.915088 108.144181 
L 202.159741 105.343611 
L 202.649047 125.057989 
L 202.8937 122.692604 
L 203.138353 127.078399 
L 203.383006 129.447717 
L 203.627659 135.444854 
L 203.872312 127.046938 
L 204.116965 127.041715 
L 204.361618 127.265689 
L 204.606271 122.406454 
L 204.850924 124.216219 
L 205.095577 124.074183 
L 205.34023 123.180262 
L 205.584883 123.947051 
L 205.829536 121.139726 
L 206.318842 120.059421 
L 206.563495 125.033305 
L 206.808148 114.150756 
L 207.052801 109.212547 
L 207.297454 88.907054 
L 207.542107 88.424499 
L 207.78676 90.716154 
L 208.520719 102.615764 
L 209.010025 95.617437 
L 209.254678 94.053972 
L 209.499331 95.592188 
L 209.743984 99.021786 
L 209.988637 96.667835 
L 210.477943 103.668179 
L 210.722596 104.299244 
L 210.967249 99.471671 
L 211.211902 101.472901 
L 211.456555 90.347219 
L 211.701208 86.158294 
L 212.190514 84.027451 
L 212.435167 87.187496 
L 212.67982 81.535618 
L 212.924473 81.200927 
L 213.413779 76.484675 
L 213.658432 81.688645 
L 213.903085 83.993651 
L 214.147738 80.456119 
L 214.392391 82.65662 
L 214.637044 86.888783 
L 214.881697 85.020473 
L 215.12635 81.562763 
L 215.371003 86.680418 
L 215.615656 86.237672 
L 215.860309 80.154462 
L 216.104962 88.703892 
L 216.838921 76.922541 
L 217.083574 78.272842 
L 217.57288 84.647101 
L 217.817533 86.979292 
L 218.062186 87.403001 
L 218.306839 88.817473 
L 218.551492 94.233881 
L 218.796145 92.127056 
L 219.040798 92.837096 
L 219.285452 94.694052 
L 219.774758 99.500792 
L 220.019411 112.080595 
L 220.264064 110.393586 
L 220.508717 104.542034 
L 220.75337 105.843511 
L 220.998023 115.821066 
L 221.242676 110.284967 
L 221.487329 114.140088 
L 221.976635 108.423171 
L 222.221288 109.551312 
L 222.465941 102.108706 
L 222.710594 103.879992 
L 222.955247 104.348774 
L 223.1999 106.455901 
L 223.444553 102.271312 
L 223.689206 102.830684 
L 223.933859 109.430189 
L 224.178512 109.583559 
L 224.423165 110.991174 
L 224.912471 119.461651 
L 225.401777 129.178508 
L 225.64643 128.429587 
L 226.135736 130.622283 
L 226.380389 124.979439 
L 226.625042 127.124319 
L 226.869695 132.734552 
L 227.114348 129.79949 
L 227.359001 128.860959 
L 227.603654 126.920532 
L 227.848307 129.15098 
L 228.09296 129.113086 
L 228.337613 128.574668 
L 228.582266 126.025763 
L 228.826919 124.972219 
L 229.071572 123.048127 
L 229.316225 127.572873 
L 229.560878 128.023565 
L 229.805531 123.444026 
L 230.050184 148.376591 
L 230.294837 142.983737 
L 230.784143 127.012775 
L 231.028796 131.310723 
L 231.273449 129.392056 
L 231.518102 130.714768 
L 231.762755 128.960704 
L 232.007408 128.515216 
L 232.252061 126.899739 
L 232.496714 133.211723 
L 232.741367 128.493637 
L 232.98602 127.49396 
L 233.230673 121.444771 
L 233.719979 129.202728 
L 233.964632 128.415893 
L 234.209285 128.925896 
L 234.453938 121.739794 
L 234.698591 118.636862 
L 234.943244 118.818001 
L 235.677203 124.33349 
L 235.921856 132.364145 
L 236.166509 145.837144 
L 236.411162 147.993095 
L 236.900468 143.367192 
L 237.389774 148.68567 
L 237.87908 164.181498 
L 238.123733 162.348621 
L 238.368386 148.567572 
L 238.857692 158.141042 
L 239.346998 155.217515 
L 239.591651 160.600406 
L 239.836304 161.021795 
L 240.080957 164.558802 
L 240.32561 164.374657 
L 240.570263 168.893171 
L 240.814916 167.286024 
L 241.304222 161.298546 
L 241.548875 159.844023 
L 241.793529 163.906339 
L 242.038182 163.255712 
L 242.282835 167.614141 
L 242.527488 155.718039 
L 242.772141 163.722477 
L 243.016794 162.72653 
L 243.261447 159.960104 
L 243.5061 161.622227 
L 243.995406 167.691239 
L 244.240059 164.424369 
L 244.484712 164.440522 
L 244.974018 175.013367 
L 245.218671 184.97483 
L 245.463324 190.257108 
L 245.707977 201.700319 
L 245.95263 206.768464 
L 246.197283 205.154399 
L 246.441936 192.578005 
L 246.686589 188.045293 
L 246.931242 188.860463 
L 247.175895 196.286754 
L 247.665201 191.848101 
L 247.909854 197.078006 
L 248.154507 196.439156 
L 248.39916 203.493749 
L 248.643813 203.896968 
L 248.888466 237.373095 
L 249.133119 243.329555 
L 249.377772 243.23233 
L 249.622425 236.024044 
L 249.867078 238.435229 
L 250.111731 243.561092 
L 250.356384 244.014144 
L 250.601037 240.354138 
L 250.84569 242.15741 
L 251.334996 230.39193 
L 251.579649 235.152992 
L 251.824302 235.678261 
L 252.068955 235.48851 
L 252.313608 239.264597 
L 252.558261 235.595718 
L 252.802914 234.13825 
L 253.047567 227.35819 
L 253.29222 226.623527 
L 253.536873 227.699093 
L 253.781526 228.208007 
L 254.026179 231.295189 
L 254.270832 230.662208 
L 254.515485 225.934421 
L 255.004791 229.48744 
L 255.249444 227.50067 
L 255.73875 234.67084 
L 255.983403 233.889772 
L 256.228056 225.663235 
L 256.472709 227.331368 
L 256.717362 255.002327 
L 256.962015 251.814088 
L 257.206668 252.81786 
L 257.451321 252.890279 
L 258.18528 244.931681 
L 258.429933 243.197824 
L 258.674586 239.227288 
L 258.919239 238.916273 
L 259.163892 242.222085 
L 259.408545 240.825461 
L 259.653198 244.856075 
L 259.897851 246.742354 
L 260.142504 244.892577 
L 260.387157 247.206053 
L 260.63181 247.745016 
L 260.876463 242.130789 
L 261.365769 244.091161 
L 261.610422 246.224284 
L 261.855075 247.335102 
L 262.344381 240.095013 
L 262.589034 229.66487 
L 262.833687 225.730694 
L 263.07834 234.466104 
L 263.322993 232.02957 
L 263.567646 234.735959 
L 263.812299 248.223699 
L 264.056952 251.779744 
L 264.301606 248.981817 
L 264.790912 256.72368 
L 265.035565 253.115081 
L 265.280218 246.615443 
L 265.524871 247.981958 
L 265.769524 246.21418 
L 266.014177 246.392456 
L 266.25883 243.654082 
L 266.503483 238.445535 
L 266.748136 236.637686 
L 266.992789 239.064661 
L 267.237442 237.838367 
L 267.482095 241.644039 
L 267.726748 240.635266 
L 267.971401 241.126453 
L 268.216054 246.65985 
L 268.460707 256.230174 
L 268.70536 255.068697 
L 269.194666 251.343371 
L 269.439319 247.969394 
L 269.683972 251.637063 
L 269.928625 250.824878 
L 270.173278 255.17046 
L 270.417931 262.09553 
L 270.662584 259.697292 
L 270.907237 255.808825 
L 271.15189 254.26589 
L 271.396543 254.225072 
L 271.641196 251.341657 
L 271.885849 253.70682 
L 272.130502 250.068333 
L 272.375155 240.651863 
L 272.619808 238.59112 
L 272.864461 243.543144 
L 273.109114 231.555262 
L 273.353767 230.51148 
L 273.59842 237.328808 
L 274.332379 245.310397 
L 274.577032 248.897398 
L 274.821685 244.968506 
L 275.066338 234.618708 
L 275.310991 230.647244 
L 275.555644 230.937568 
L 275.800297 233.226621 
L 276.04495 230.43299 
L 276.289603 231.227569 
L 276.534256 226.478809 
L 276.778909 225.233921 
L 277.268215 225.4343 
L 277.512868 225.153878 
L 278.002174 217.348347 
L 278.246827 219.976428 
L 278.49148 220.974976 
L 278.736133 212.351008 
L 278.980786 219.031302 
L 279.225439 218.480643 
L 279.470092 215.888761 
L 279.714745 210.077039 
L 279.959398 210.42371 
L 280.204051 211.175455 
L 280.448704 210.151395 
L 280.693357 210.160067 
L 281.182663 205.760316 
L 281.427316 207.198424 
L 281.671969 209.52035 
L 282.161275 211.446882 
L 282.405928 209.216797 
L 282.650581 209.068852 
L 282.895234 209.122839 
L 283.38454 223.102351 
L 283.629193 198.059714 
L 283.873846 196.622877 
L 284.363152 204.710665 
L 284.607805 201.135845 
L 284.852458 201.611524 
L 285.097111 199.294619 
L 285.83107 217.3861 
L 286.075723 219.383881 
L 286.320376 218.100334 
L 286.56503 219.48034 
L 286.809683 212.290104 
L 287.054336 216.538522 
L 287.298989 216.440066 
L 287.543642 207.931817 
L 287.788295 206.350705 
L 288.032948 215.530535 
L 288.277601 220.458197 
L 288.522254 222.576819 
L 288.766907 226.106163 
L 289.01156 225.06599 
L 289.256213 224.676767 
L 289.745519 221.173802 
L 289.990172 221.525978 
L 290.234825 225.64811 
L 290.479478 225.663135 
L 290.724131 222.173823 
L 290.968784 221.306582 
L 291.213437 220.018254 
L 291.45809 221.358955 
L 291.702743 217.238679 
L 291.947396 217.075447 
L 292.681355 212.62298 
L 292.926008 214.146354 
L 293.170661 211.002765 
L 293.659967 209.769957 
L 293.90462 212.012969 
L 294.149273 215.286031 
L 294.883232 210.308556 
L 295.127885 219.105597 
L 295.372538 221.64331 
L 296.106497 209.562741 
L 296.35115 215.138086 
L 296.595803 212.855828 
L 296.840456 213.685317 
L 297.085109 211.081839 
L 297.329762 207.282359 
L 297.819068 233.300816 
L 298.063721 231.6299 
L 298.308374 227.435631 
L 298.553027 225.701533 
L 298.79768 225.635909 
L 299.042333 228.554032 
L 299.286986 227.422422 
L 299.776292 216.000547 
L 300.020945 215.718693 
L 300.265598 214.697659 
L 300.510251 215.384204 
L 300.754904 213.772156 
L 300.999557 215.551993 
L 301.24421 213.995364 
L 301.488863 218.555845 
L 301.733516 190.955127 
L 301.978169 189.052997 
L 302.222822 180.212598 
L 302.467475 183.448552 
L 302.712128 181.095407 
L 302.956781 180.676801 
L 303.201434 176.061687 
L 303.446087 178.949519 
L 303.69074 176.888635 
L 303.935393 187.061588 
L 304.180046 188.225102 
L 304.424699 186.165851 
L 304.669352 185.979307 
L 304.914005 186.184163 
L 305.158658 182.211166 
L 305.403311 184.752327 
L 305.647964 185.656292 
L 305.892617 186.051263 
L 306.13727 180.030086 
L 306.381923 183.035028 
L 306.871229 180.825331 
L 307.360535 164.712414 
L 307.849841 171.011209 
L 308.339147 167.725099 
L 308.5838 167.229818 
L 308.828453 167.180591 
L 309.073107 165.101455 
L 309.31776 155.219955 
L 309.562413 152.233587 
L 309.807066 153.654956 
L 310.051719 160.043252 
L 310.296372 161.632209 
L 310.541025 166.760553 
L 310.785678 161.801713 
L 311.030331 163.851263 
L 311.274984 163.653667 
L 311.519637 161.412833 
L 312.008943 154.502393 
L 312.253596 160.707835 
L 312.498249 153.996202 
L 312.987555 152.003018 
L 313.232208 154.998784 
L 313.476861 150.474219 
L 313.966167 147.245949 
L 314.21082 146.577776 
L 314.455473 151.65661 
L 314.700126 151.8607 
L 314.944779 148.688836 
L 315.189432 148.38978 
L 315.434085 150.026613 
L 315.678738 148.54194 
L 315.923391 155.572312 
L 316.168044 153.260853 
L 316.412697 152.110851 
L 316.65735 152.077414 
L 316.902003 154.823069 
L 317.146656 152.074833 
L 317.391309 153.929026 
L 317.635962 151.307015 
L 317.880615 154.027078 
L 318.614574 143.73401 
L 318.859227 149.48632 
L 319.10388 149.996786 
L 319.593186 153.142977 
L 319.837839 153.410069 
L 320.082492 159.71685 
L 320.327145 162.011671 
L 320.571798 155.576487 
L 320.816451 158.244882 
L 321.061104 158.541155 
L 321.305757 162.618113 
L 321.55041 152.900106 
L 322.039716 143.337829 
L 322.284369 143.174658 
L 322.529022 144.728323 
L 322.773675 114.440757 
L 323.018328 115.397318 
L 323.262981 114.172758 
L 323.507634 116.695003 
L 323.752287 117.209886 
L 323.99694 121.090639 
L 324.241593 123.171146 
L 324.486246 124.155658 
L 324.730899 131.602943 
L 324.975552 130.669171 
L 325.220205 130.513824 
L 325.464858 129.842304 
L 325.709511 123.488474 
L 325.954164 125.936584 
L 326.198817 123.688974 
L 326.44347 127.428014 
L 326.688123 124.401393 
L 326.932776 125.529816 
L 327.177429 120.607983 
L 327.666735 126.769077 
L 327.911388 123.706479 
L 328.156041 122.895221 
L 328.400694 124.810581 
L 328.645347 124.172598 
L 328.89 123.934204 
L 329.134653 127.880561 
L 329.379306 128.613348 
L 329.623959 133.383687 
L 330.113265 125.973187 
L 330.357918 130.00243 
L 330.602571 127.314413 
L 331.091877 119.243343 
L 331.33653 119.565208 
L 331.581184 122.100662 
L 331.825837 121.088965 
L 332.07049 126.130752 
L 332.315143 126.57973 
L 332.559796 128.710513 
L 332.804449 128.630067 
L 333.049102 131.863964 
L 333.538408 104.988955 
L 333.783061 107.411897 
L 334.027714 108.237554 
L 334.272367 111.596466 
L 334.51702 112.539071 
L 334.761673 103.002708 
L 335.006326 101.871885 
L 335.250979 94.822677 
L 335.495632 94.029025 
L 335.984938 95.653234 
L 336.229591 96.031546 
L 336.474244 99.743865 
L 336.718897 95.724383 
L 336.96355 97.641033 
L 337.208203 93.095294 
L 337.452856 93.286961 
L 337.697509 92.804345 
L 337.942162 84.642624 
L 338.186815 82.949364 
L 338.431468 88.715226 
L 338.676121 88.709902 
L 338.920774 88.343871 
L 339.165427 97.222387 
L 339.41008 90.277663 
L 339.654733 92.148373 
L 339.899386 87.051974 
L 340.388692 90.059093 
L 340.633345 92.162046 
L 340.877998 92.31352 
L 341.122651 80.446722 
L 341.367304 83.195078 
L 341.611957 88.368636 
L 341.85661 88.526866 
L 342.345916 86.029952 
L 342.590569 83.338788 
L 342.835222 95.003474 
L 343.079875 91.525858 
L 343.324528 90.440834 
L 343.569181 90.661522 
L 343.813834 94.323564 
L 344.058487 94.886808 
L 344.30314 94.02721 
L 344.547793 96.692721 
L 345.037099 109.399051 
L 345.281752 110.123873 
L 345.526405 109.697381 
L 345.771058 107.411131 
L 346.015711 106.700103 
L 346.260364 107.828366 
L 346.505017 112.525882 
L 346.74967 113.379006 
L 346.994323 116.048167 
L 347.238976 113.165357 
L 347.483629 111.956124 
L 347.728282 111.693227 
L 347.972935 110.882736 
L 348.217588 111.662392 
L 348.462241 108.433032 
L 348.706894 99.569803 
L 348.951547 115.339721 
L 349.1962 107.899172 
L 349.685506 109.871604 
L 349.930159 115.060206 
L 350.174812 107.532818 
L 350.419465 108.065771 
L 350.664118 106.419076 
L 350.908771 106.750339 
L 351.153424 98.504321 
L 351.398077 94.251447 
L 351.64273 94.921676 
L 351.887383 98.567706 
L 352.132036 86.459871 
L 352.376689 83.575387 
L 352.621342 104.40748 
L 352.865995 98.874264 
L 353.110648 88.507143 
L 353.599954 81.516903 
L 353.844607 72.451641 
L 354.089261 69.231095 
L 354.333914 53.680292 
L 354.578567 61.035111 
L 354.82322 63.230126 
L 355.067873 51.621807 
L 355.312526 55.853002 
L 355.557179 57.064393 
L 355.801832 50.841425 
L 356.046485 52.459987 
L 356.291138 49.817669 
L 356.535791 62.096539 
L 357.025097 51.885672 
L 357.514403 58.839007 
L 357.759056 60.583854 
L 358.003709 57.885511 
L 358.248362 56.667103 
L 358.737668 55.521658 
L 358.982321 53.332048 
L 359.226974 53.723086 
L 359.471627 71.636572 
L 359.71628 64.44918 
L 360.450239 86.104932 
L 360.694892 81.398765 
L 360.939545 86.621853 
L 361.184198 85.621651 
L 361.428851 85.844657 
L 361.673504 86.951986 
L 361.918157 80.715386 
L 362.407463 76.199595 
L 362.652116 82.757293 
L 362.896769 83.745314 
L 363.141422 78.271753 
L 363.386075 78.416269 
L 363.630728 83.254369 
L 363.875381 83.499519 
L 364.120034 88.265825 
L 364.364687 87.443859 
L 364.60934 91.050079 
L 364.853993 96.706455 
L 365.098646 97.57783 
L 365.343299 93.304224 
L 365.587952 95.157408 
L 365.832605 98.914497 
L 366.077258 97.894149 
L 366.321911 95.127339 
L 366.811217 99.029913 
L 367.05587 108.291863 
L 367.300523 101.41956 
L 367.545176 98.010956 
L 367.789829 92.518074 
L 368.034482 89.770101 
L 368.279135 97.842098 
L 368.523788 95.957029 
L 368.768441 96.416312 
L 369.013094 90.434865 
L 369.257747 90.925124 
L 369.5024 91.765684 
L 369.747053 66.691547 
L 369.991706 65.118199 
L 370.236359 62.370689 
L 370.481012 51.78766 
L 370.725665 48.566952 
L 370.970318 49.874257 
L 371.214971 49.987112 
L 371.94893 62.37682 
L 372.193583 59.879784 
L 372.682889 50.691948 
L 372.927542 41.154214 
L 373.416848 37.645723 
L 373.661501 43.613941 
L 373.906154 45.864375 
L 374.150807 46.039949 
L 374.39546 49.496449 
L 374.640113 54.682268 
L 374.884766 53.877404 
L 375.129419 48.160668 
L 375.374072 47.202696 
L 375.618725 48.665287 
L 375.863378 38.236414 
L 376.108031 37.345719 
L 376.352684 35.737402 
L 376.841991 42.124488 
L 377.086644 37.091938 
L 377.331297 35.764829 
L 377.57595 35.786892 
L 377.820603 40.507136 
L 378.065256 40.579495 
L 378.309909 40.902651 
L 378.799215 37.21544 
L 379.043868 38.113557 
L 379.288521 38.011552 
L 379.533174 36.634752 
L 379.777827 34.414125 
L 380.02248 38.331199 
L 380.267133 38.198379 
L 380.511786 37.25041 
L 380.756439 41.72619 
L 381.001092 36.786973 
L 381.245745 40.358384 
L 381.490398 40.684363 
L 381.490398 40.684363 
" style="fill:none;stroke:#1f77b4;stroke-linecap:square;stroke-width:1.5;"/>
   </g>
   <g id="line2d_28">
    <path clip-path="url(#p533bfb1339)" d="M 56.835852 187.729799 
L 57.080505 189.210063 
L 57.325158 191.747657 
L 57.569811 192.382055 
L 57.814464 187.306867 
L 58.059117 192.170589 
L 58.30377 180.328484 
L 58.793076 174.830363 
L 59.037729 171.235438 
L 59.282382 173.773032 
L 59.527035 178.213822 
L 59.771688 174.830363 
L 60.016341 167.640513 
L 60.260994 204.435627 
L 60.505647 206.550289 
L 60.7503 202.743898 
L 60.994953 203.589762 
L 61.239606 206.973221 
L 61.484259 206.338823 
L 61.973566 209.722281 
L 62.218219 205.704424 
L 62.462872 212.048409 
L 62.707525 212.471341 
L 62.952178 213.951605 
L 63.686137 205.704424 
L 63.93079 211.414011 
L 64.175443 208.453484 
L 64.420096 210.568146 
L 64.664749 211.625477 
L 64.909402 208.66495 
L 65.154055 213.740138 
L 65.398708 210.568146 
L 65.643361 213.951605 
L 65.888014 215.643334 
L 66.132667 219.872657 
L 66.621973 231.926229 
L 66.866626 232.560628 
L 67.111279 230.023034 
L 67.355932 233.829425 
L 67.600585 232.98356 
L 67.845238 231.291831 
L 68.089891 232.98356 
L 68.334544 229.177169 
L 68.579197 231.714763 
L 68.82385 232.772094 
L 69.313156 240.807808 
L 69.557809 239.539011 
L 69.802462 242.288072 
L 70.047115 243.133936 
L 70.291768 237.635816 
L 70.536421 237.001417 
L 70.781074 240.596342 
L 71.025727 267.24108 
L 71.27038 269.567208 
L 71.515033 266.183749 
L 71.759686 267.029613 
L 72.004339 263.646155 
L 72.248992 263.434689 
L 72.738298 256.244839 
L 72.982951 258.570967 
L 73.227604 255.187508 
L 73.472257 254.764576 
L 73.71691 259.839764 
L 74.206216 263.011756 
L 74.450869 262.80029 
L 74.940175 271.681869 
L 75.184828 270.624538 
L 75.429481 270.836005 
L 75.674134 264.492019 
L 75.918787 262.165892 
L 76.16344 261.954425 
L 76.652746 250.535252 
L 76.897399 252.015515 
L 77.142052 246.728861 
L 77.386705 247.997658 
L 77.631358 248.42059 
L 77.876011 247.36326 
L 78.120664 244.191267 
L 78.365317 242.711004 
L 78.60997 239.750477 
L 78.854623 241.442207 
L 79.099276 244.825666 
L 79.343929 244.614199 
L 80.077888 253.707245 
L 80.322541 251.381117 
L 80.567194 245.037132 
L 80.811847 243.133936 
L 81.0565 248.632057 
L 81.545806 252.86138 
L 81.790459 270.836005 
L 82.035112 276.334125 
L 82.279765 275.699726 
L 82.769071 271.047471 
L 83.013724 268.932809 
L 83.258377 262.165892 
L 83.50303 261.742959 
L 83.747683 260.05123 
L 84.481643 245.037132 
L 84.726296 242.499538 
L 84.970949 244.191267 
L 85.215602 242.711004 
L 85.460255 243.556869 
L 85.704908 243.768335 
L 85.949561 239.539011 
L 86.194214 230.445966 
L 86.438867 234.675289 
L 86.68352 233.617959 
L 86.928173 228.119838 
L 87.172826 227.48544 
L 87.417479 231.291831 
L 87.662132 231.714763 
L 87.906785 226.216643 
L 88.151438 231.080364 
L 88.396091 227.273973 
L 88.640744 226.428109 
L 88.885397 231.080364 
L 89.13005 227.273973 
L 89.374703 225.370778 
L 89.864009 228.754237 
L 90.108662 226.005176 
L 90.353315 229.600101 
L 90.842621 231.926229 
L 91.087274 227.062507 
L 91.331927 218.180928 
L 91.57658 219.026793 
L 92.065886 209.933747 
L 92.310539 213.740138 
L 92.555192 210.145214 
L 92.799845 209.299349 
L 93.044498 208.030552 
L 93.289151 206.127356 
L 93.533804 208.030552 
L 93.778457 201.263634 
L 94.02311 201.263634 
L 94.267763 203.589762 
L 94.757069 197.880176 
L 95.246375 204.858559 
L 95.491028 209.087883 
L 95.735681 206.338823 
L 95.980334 212.894274 
L 96.46964 209.933747 
L 96.714293 205.492958 
L 96.958946 205.070025 
L 97.203599 203.801228 
L 97.448252 207.60762 
L 97.692905 213.317206 
L 97.937558 215.643334 
L 98.182211 207.819086 
L 98.426864 209.933747 
L 98.671517 205.91589 
L 98.91617 207.184687 
L 99.160823 204.858559 
L 99.405476 209.087883 
L 99.650129 206.550289 
L 99.894782 212.682808 
L 100.139435 210.35668 
L 100.628741 225.370778 
L 100.873394 221.564387 
L 101.118047 214.374537 
L 101.607353 208.030552 
L 101.852006 204.012695 
L 102.096659 204.435627 
L 102.585965 199.783371 
L 102.830618 196.822845 
L 103.075271 199.571905 
L 103.319924 200.840702 
L 103.564577 198.937507 
L 103.80923 203.16683 
L 104.053883 198.303108 
L 104.298536 198.937507 
L 105.032495 191.324724 
L 105.521801 188.364198 
L 106.011107 183.28901 
L 106.25576 182.231679 
L 106.500413 187.095401 
L 106.745066 188.152732 
L 106.98972 187.518333 
L 107.234373 188.575664 
L 107.479026 185.615138 
L 107.723679 193.650852 
L 107.968332 197.880176 
L 108.212985 197.034311 
L 108.702291 200.840702 
L 108.946944 199.783371 
L 109.191597 189.632995 
L 109.43625 191.536191 
L 109.680903 197.457243 
L 110.170209 194.073785 
L 110.414862 194.496717 
L 110.904168 182.654611 
L 111.148821 189.632995 
L 111.393474 191.113258 
L 111.638127 190.690326 
L 111.88278 194.496717 
L 112.372086 179.271153 
L 112.616739 177.156491 
L 112.861392 179.694085 
L 113.106045 178.84822 
L 113.350698 179.482619 
L 113.595351 175.041829 
L 113.840004 172.927168 
L 114.084657 183.28901 
L 114.32931 179.271153 
L 114.573963 179.694085 
L 114.818616 173.773032 
L 115.063269 173.3501 
L 115.307922 174.195965 
L 115.552575 176.522092 
L 115.797228 173.3501 
L 116.041881 176.310626 
L 116.286534 172.927168 
L 116.531187 174.618897 
L 116.77584 173.773032 
L 117.020493 173.984498 
L 117.265146 174.407431 
L 117.509799 175.887694 
L 117.754452 171.446904 
L 118.243758 152.837881 
L 118.733064 149.877355 
L 118.977717 152.203483 
L 119.22237 156.432806 
L 119.467023 155.375475 
L 119.711676 156.22134 
L 119.956329 158.758934 
L 120.200982 158.547468 
L 120.445635 144.379235 
L 120.934941 151.569084 
L 121.179594 152.414949 
L 121.424247 149.242956 
L 121.6689 148.820024 
L 122.158206 153.260814 
L 122.402859 169.543709 
L 122.647512 173.773032 
L 122.892165 181.174348 
L 123.381471 173.138634 
L 123.626124 171.235438 
L 123.870777 168.063446 
L 124.11543 168.063446 
L 124.360083 173.138634 
L 124.604736 172.292769 
L 124.849389 161.507994 
L 125.094042 156.644272 
L 125.338695 156.432806 
L 125.583348 162.142393 
L 126.072654 157.701603 
L 126.317307 159.393333 
L 126.56196 158.758934 
L 127.051266 163.834122 
L 127.295919 172.927168 
L 127.785225 174.407431 
L 128.029878 173.773032 
L 128.519184 184.134875 
L 128.763837 188.998597 
L 129.00849 188.78713 
L 129.253143 188.152732 
L 129.74245 194.073785 
L 129.987103 195.554048 
L 130.231756 193.016454 
L 130.476409 185.826604 
L 130.721062 188.78713 
L 130.965715 185.826604 
L 131.210368 188.152732 
L 131.699674 178.84822 
L 131.944327 178.84822 
L 132.433633 169.966641 
L 132.678286 174.195965 
L 132.922939 176.310626 
L 133.167592 174.407431 
L 133.412245 174.407431 
L 133.656898 173.561566 
L 133.901551 172.292769 
L 134.146204 173.773032 
L 134.390857 173.138634 
L 134.63551 173.3501 
L 134.880163 151.569084 
L 135.124816 152.203483 
L 135.369469 152.203483 
L 135.614122 145.013633 
L 135.858775 142.264573 
L 136.103428 138.246716 
L 136.348081 132.114197 
L 136.592734 137.823783 
L 136.837387 134.017392 
L 137.08204 135.709122 
L 137.326693 144.590701 
L 137.571346 146.070964 
L 138.060652 119.003294 
L 138.305305 121.117956 
L 138.549958 125.558745 
L 138.794611 124.712881 
L 139.039264 126.40461 
L 139.283917 126.193144 
L 139.52857 128.730738 
L 139.773223 126.827542 
L 140.262529 139.726979 
L 140.507182 143.53337 
L 140.996488 142.053107 
L 141.241141 149.03149 
L 141.485794 149.242956 
L 141.730447 139.304046 
L 141.9751 140.572843 
L 142.219753 142.687505 
L 142.464406 142.898971 
L 142.709059 145.225099 
L 142.953712 142.898971 
L 143.198365 143.53337 
L 143.443018 136.34352 
L 143.687671 139.09258 
L 143.932324 136.34352 
L 144.176977 123.232617 
L 144.42163 127.673407 
L 144.666283 127.884873 
L 144.910936 117.734497 
L 145.155589 116.4657 
L 145.644895 106.949722 
L 145.889548 105.680925 
L 146.134201 105.257993 
L 146.378854 92.992955 
L 146.623507 99.125474 
L 146.86816 115.196903 
L 147.112813 116.888632 
L 147.357466 112.447843 
L 147.602119 103.143331 
L 147.846772 106.315324 
L 148.091425 115.196903 
L 148.580731 111.601978 
L 148.825384 112.870775 
L 149.070037 109.487316 
L 149.31469 111.601978 
L 149.559343 121.752354 
L 149.803996 122.175287 
L 150.293302 118.157429 
L 150.537955 112.236377 
L 151.027261 113.928106 
L 151.271914 104.835061 
L 151.516567 105.257993 
L 151.76122 103.354797 
L 152.005874 94.684684 
L 152.250527 93.83882 
L 152.49518 86.437504 
L 152.739833 97.433745 
L 152.984486 101.240136 
L 153.229139 107.795587 
L 153.473792 104.200662 
L 153.718445 103.354797 
L 153.963098 103.989196 
L 154.207751 101.02867 
L 154.452404 95.953481 
L 154.697057 94.684684 
L 154.94171 91.724158 
L 155.186363 91.724158 
L 155.431016 97.645211 
L 155.675669 92.14709 
L 155.920322 91.301226 
L 156.164975 94.684684 
L 156.409628 92.992955 
L 156.654281 95.953481 
L 157.38824 85.168707 
L 157.632893 84.957241 
L 157.877546 91.301226 
L 158.122199 94.050286 
L 158.366852 103.989196 
L 158.611505 103.566264 
L 158.856158 101.02867 
L 159.345464 84.745774 
L 159.590117 84.111376 
L 159.83477 91.512692 
L 160.079423 90.243895 
L 160.324076 92.992955 
L 160.568729 88.552165 
L 160.813382 90.243895 
L 161.058035 104.412128 
L 161.302688 111.390512 
L 161.547341 106.738256 
L 162.036647 104.200662 
L 162.525953 93.204421 
L 162.770606 93.415887 
L 163.015259 92.992955 
L 163.259912 91.301226 
L 163.504565 91.512692 
L 163.749218 94.896151 
L 163.993871 91.724158 
L 164.483177 92.14709 
L 164.72783 92.570023 
L 164.972483 90.878293 
L 165.217136 101.874534 
L 165.461789 103.566264 
L 165.951095 99.971339 
L 166.195748 96.58788 
L 166.440401 106.103858 
L 166.685054 103.77773 
L 166.929707 106.103858 
L 167.17436 103.143331 
L 167.419013 97.010812 
L 167.663666 104.412128 
L 168.152972 97.645211 
L 168.397625 91.301226 
L 168.642278 94.050286 
L 168.886931 94.896151 
L 169.131584 94.473218 
L 169.376237 98.068143 
L 169.62089 90.666827 
L 169.865543 87.706301 
L 170.110196 88.552165 
L 170.354849 105.469459 
L 170.599502 105.680925 
L 170.844155 113.505174 
L 171.088808 113.71664 
L 171.333461 106.949722 
L 171.578114 111.390512 
L 171.822767 112.447843 
L 172.06742 118.791828 
L 172.312073 113.71664 
L 172.556726 114.773971 
L 172.801379 116.4657 
L 173.046032 113.71664 
L 173.290685 116.254234 
L 173.535338 123.444084 
L 173.779991 120.90649 
L 174.269298 127.461941 
L 174.513951 124.289948 
L 174.758604 118.368896 
L 175.003257 119.849159 
L 175.24791 117.945963 
L 175.492563 119.849159 
L 175.737216 117.734497 
L 175.981869 124.289948 
L 176.226522 125.770211 
L 176.715828 132.960061 
L 177.205134 123.021151 
L 177.449787 129.15367 
L 177.69444 126.40461 
L 178.183746 127.884873 
L 178.428399 132.325663 
L 178.673052 132.114197 
L 178.917705 144.167768 
L 179.162358 147.339761 
L 179.651664 139.304046 
L 179.896317 145.225099 
L 180.14097 144.167768 
L 180.385623 145.859498 
L 180.630276 151.357618 
L 180.874929 150.511753 
L 181.119582 156.644272 
L 181.364235 154.106678 
L 181.608888 149.877355 
L 181.853541 150.72322 
L 182.098194 146.916829 
L 182.342847 145.436565 
L 182.5875 145.436565 
L 183.076806 142.053107 
L 183.321459 140.995776 
L 183.566112 138.881114 
L 183.810765 134.017392 
L 184.055418 141.418708 
L 184.300071 142.053107 
L 184.789377 132.960061 
L 185.03403 133.171527 
L 185.278683 134.440324 
L 185.767989 128.519272 
L 186.012642 128.519272 
L 186.501948 133.59446 
L 186.991254 133.59446 
L 187.235907 134.228858 
L 187.48056 136.977919 
L 187.725213 132.960061 
L 187.969866 134.440324 
L 188.214519 133.59446 
L 188.459172 132.325663 
L 188.703825 140.361377 
L 188.948478 144.167768 
L 189.193131 135.286189 
L 190.416396 144.590701 
L 190.661049 149.454423 
L 190.905702 148.608558 
L 191.150355 149.242956 
L 191.395008 151.569084 
L 191.639661 145.013633 
L 191.884314 149.665889 
L 192.37362 180.53995 
L 192.618273 175.676228 
L 192.862926 175.464762 
L 193.107579 170.389573 
L 193.352232 170.389573 
L 193.841538 157.701603 
L 194.086191 159.181866 
L 194.575497 151.78055 
L 194.82015 151.78055 
L 195.064803 150.934686 
L 195.309456 152.837881 
L 195.554109 158.758934 
L 195.798762 143.110437 
L 196.043415 141.207242 
L 196.288068 141.84164 
L 196.532721 137.612317 
L 196.777375 144.590701 
L 197.022028 144.379235 
L 197.266681 140.361377 
L 197.511334 145.225099 
L 197.755987 145.436565 
L 198.00064 154.529611 
L 198.245293 149.454423 
L 198.489946 151.569084 
L 198.734599 142.264573 
L 199.223905 146.070964 
L 199.468558 131.479798 
L 199.713211 133.382994 
L 199.957864 129.788069 
L 200.202517 123.444084 
L 200.691823 125.770211 
L 200.936476 120.695023 
L 201.181129 108.218519 
L 201.425782 109.910249 
L 201.915088 105.257993 
L 202.404394 125.135813 
L 202.649047 122.809685 
L 202.8937 127.250475 
L 203.138353 129.576603 
L 203.383006 135.709122 
L 203.627659 127.039009 
L 204.116965 127.461941 
L 204.361618 122.386753 
L 204.606271 124.501414 
L 204.850924 124.289948 
L 205.095577 123.444084 
L 205.34023 124.289948 
L 205.584883 121.329422 
L 206.074189 120.272091 
L 206.318842 125.347279 
L 206.563495 113.928106 
L 206.808148 109.27585 
L 207.052801 88.552165 
L 207.297454 88.340699 
L 207.542107 90.666827 
L 208.276066 102.720399 
L 208.765372 95.530549 
L 209.010025 94.050286 
L 209.254678 95.530549 
L 209.499331 99.125474 
L 209.743984 96.799346 
L 210.23329 103.989196 
L 210.477943 104.412128 
L 210.722596 99.759872 
L 210.967249 101.663068 
L 211.211902 90.243895 
L 211.456555 86.226038 
L 211.945861 84.111376 
L 212.190514 87.494835 
L 212.435167 81.573782 
L 212.67982 81.362316 
L 212.924473 78.190323 
L 213.169126 76.498594 
L 213.413779 81.785248 
L 213.658432 84.111376 
L 213.903085 80.516451 
L 214.147738 82.842579 
L 214.392391 87.071902 
L 214.637044 85.168707 
L 214.881697 81.785248 
L 215.12635 86.860436 
L 215.371003 86.437504 
L 215.615656 80.304985 
L 215.860309 88.975098 
L 216.594268 77.132992 
L 216.838921 78.401789 
L 217.328227 84.957241 
L 217.57288 87.494835 
L 217.817533 87.706301 
L 218.062186 89.186564 
L 218.306839 94.684684 
L 218.551492 92.570023 
L 218.796145 93.204421 
L 219.285452 97.856677 
L 219.530105 100.182805 
L 219.774758 112.870775 
L 220.019411 110.96758 
L 220.264064 105.046527 
L 220.508717 106.315324 
L 220.75337 116.4657 
L 220.998023 110.756113 
L 221.242676 114.985437 
L 221.731982 108.852918 
L 221.976635 110.121715 
L 222.221288 102.086 
L 222.465941 104.412128 
L 222.710594 104.623594 
L 222.955247 106.949722 
L 223.1999 102.508933 
L 223.444553 103.143331 
L 223.689206 109.910249 
L 223.933859 109.698783 
L 224.178512 111.390512 
L 224.667818 119.849159 
L 225.157124 129.788069 
L 225.401777 128.730738 
L 225.891083 131.056866 
L 226.135736 124.924347 
L 226.380389 127.673407 
L 226.625042 133.382994 
L 226.869695 129.999535 
L 227.114348 129.365136 
L 227.359001 127.250475 
L 227.603654 129.576603 
L 227.848307 129.365136 
L 228.09296 128.942204 
L 228.337613 126.193144 
L 228.582266 125.135813 
L 228.826919 123.232617 
L 229.071572 127.884873 
L 229.316225 128.307806 
L 229.560878 123.444084 
L 229.805531 149.454423 
L 230.050184 143.110437 
L 230.53949 127.039009 
L 230.784143 131.479798 
L 231.028796 129.365136 
L 231.273449 131.056866 
L 231.518102 129.15367 
L 231.762755 128.730738 
L 232.007408 127.039009 
L 232.252061 133.59446 
L 232.496714 128.519272 
L 232.741367 127.673407 
L 232.98602 121.329422 
L 233.475326 129.365136 
L 233.719979 128.519272 
L 233.964632 129.15367 
L 234.209285 121.540888 
L 234.453938 118.580362 
L 234.698591 118.791828 
L 235.43255 124.501414 
L 235.677203 132.748595 
L 235.921856 146.493896 
L 236.166509 148.397092 
L 236.655815 143.53337 
L 237.145121 149.03149 
L 237.634427 165.102919 
L 237.87908 162.776791 
L 238.123733 148.397092 
L 238.613039 158.547468 
L 239.102345 155.586942 
L 239.346998 161.296528 
L 239.591651 161.296528 
L 239.836304 165.102919 
L 240.080957 164.679987 
L 240.32561 169.543709 
L 240.570263 167.429047 
L 241.059569 161.296528 
L 241.304222 159.816265 
L 241.548875 164.257055 
L 241.793529 163.41119 
L 242.038182 168.063446 
L 242.282835 155.375475 
L 242.527488 164.257055 
L 242.772141 162.776791 
L 243.016794 160.027731 
L 243.261447 161.930927 
L 243.750753 168.063446 
L 243.995406 164.468521 
L 244.240059 164.679987 
L 244.729365 175.464762 
L 244.974018 185.826604 
L 245.218671 191.113258 
L 245.463324 202.955364 
L 245.707977 207.819086 
L 245.95263 205.704424 
L 246.197283 192.170589 
L 246.441936 187.941266 
L 246.686589 188.998597 
L 246.931242 197.034311 
L 247.420548 192.170589 
L 247.665201 197.880176 
L 247.909854 196.611379 
L 248.154507 204.435627 
L 248.39916 204.224161 
L 248.643813 240.384876 
L 248.888466 245.037132 
L 249.133119 244.614199 
L 249.377772 236.155553 
L 249.622425 239.116079 
L 249.867078 244.402733 
L 250.111731 244.402733 
L 250.356384 240.384876 
L 250.601037 242.92247 
L 251.090343 230.023034 
L 251.334996 235.944086 
L 251.824302 235.944086 
L 252.068955 240.17341 
L 252.313608 235.521154 
L 252.558261 234.252357 
L 252.802914 226.851041 
L 253.047567 226.639575 
L 253.29222 227.908372 
L 253.536873 228.331304 
L 253.781526 231.714763 
L 254.026179 230.868898 
L 254.270832 225.79371 
L 254.760138 229.600101 
L 255.004791 227.48544 
L 255.494097 235.098222 
L 255.73875 234.040891 
L 255.983403 225.159312 
L 256.228056 227.48544 
L 256.472709 257.090703 
L 256.717362 252.226982 
L 256.962015 253.707245 
L 257.206668 253.707245 
L 257.695974 246.517395 
L 258.18528 243.345402 
L 258.429933 239.116079 
L 258.674586 239.116079 
L 258.919239 242.711004 
L 259.163892 241.019274 
L 259.408545 245.460064 
L 259.653198 247.151793 
L 259.897851 245.037132 
L 260.142504 247.574726 
L 260.387157 247.997658 
L 260.63181 241.865139 
L 261.121116 244.191267 
L 261.365769 246.517395 
L 261.610422 247.574726 
L 262.099728 239.961944 
L 262.344381 228.965703 
L 262.589034 225.370778 
L 262.833687 234.886756 
L 263.07834 231.926229 
L 263.322993 235.098222 
L 263.567646 249.266455 
L 263.812299 252.438448 
L 264.056952 249.266455 
L 264.546259 257.30217 
L 264.790912 253.072846 
L 265.035565 246.305929 
L 265.280218 248.209124 
L 265.524871 246.305929 
L 265.769524 246.517395 
L 266.014177 243.768335 
L 266.25883 238.270214 
L 266.503483 236.578485 
L 266.748136 239.327545 
L 266.992789 237.847282 
L 267.237442 242.076605 
L 267.482095 240.807808 
L 267.726748 241.230741 
L 267.971401 247.151793 
L 268.216054 257.090703 
L 268.950013 251.381117 
L 269.194666 247.997658 
L 269.439319 252.015515 
L 269.683972 250.958185 
L 269.928625 255.821906 
L 270.173278 263.011756 
L 270.907237 254.341643 
L 271.15189 254.341643 
L 271.396543 251.381117 
L 271.641196 254.130177 
L 271.885849 250.11232 
L 272.130502 240.17341 
L 272.375155 238.48168 
L 272.619808 243.979801 
L 272.864461 231.291831 
L 273.109114 230.657432 
L 273.353767 237.847282 
L 274.087726 245.882996 
L 274.332379 249.477921 
L 274.577032 245.248598 
L 274.821685 234.463823 
L 275.066338 230.657432 
L 275.310991 231.080364 
L 275.555644 233.617959 
L 275.800297 230.657432 
L 276.04495 231.503297 
L 276.289603 226.639575 
L 276.534256 225.370778 
L 276.778909 225.582244 
L 277.023562 225.582244 
L 277.268215 225.370778 
L 277.757521 217.123597 
L 278.002174 220.084124 
L 278.246827 221.141454 
L 278.49148 212.259875 
L 278.736133 219.238259 
L 278.980786 218.60386 
L 279.225439 215.8548 
L 279.470092 209.933747 
L 279.714745 210.35668 
L 279.959398 211.202544 
L 280.204051 210.145214 
L 280.448704 210.145214 
L 280.93801 205.704424 
L 281.182663 207.184687 
L 281.427316 209.722281 
L 281.916622 211.836943 
L 282.161275 209.299349 
L 282.405928 209.087883 
L 282.650581 209.299349 
L 283.139887 223.890515 
L 283.38454 197.245777 
L 283.629193 196.611379 
L 284.118499 204.858559 
L 284.363152 201.263634 
L 284.607805 201.898033 
L 284.852458 199.360439 
L 285.586417 217.969462 
L 285.83107 220.084124 
L 286.075723 218.392394 
L 286.320376 219.872657 
L 286.56503 212.048409 
L 286.809683 216.912131 
L 287.054336 216.700665 
L 287.298989 207.819086 
L 287.543642 206.550289 
L 287.788295 216.277733 
L 288.032948 221.141454 
L 288.277601 223.256116 
L 288.522254 226.851041 
L 288.766907 225.370778 
L 289.01156 224.947846 
L 289.500866 221.352921 
L 289.745519 221.775853 
L 289.990172 226.216643 
L 290.234825 226.005176 
L 290.479478 222.198785 
L 290.724131 221.564387 
L 290.968784 220.084124 
L 291.213437 221.564387 
L 291.45809 217.123597 
L 291.702743 217.335063 
L 292.436702 212.682808 
L 292.681355 214.374537 
L 292.926008 210.991078 
L 293.415314 209.933747 
L 293.90462 215.643334 
L 294.638579 210.35668 
L 294.883232 219.661191 
L 295.127885 221.987319 
L 295.861844 209.299349 
L 296.106497 215.431868 
L 296.35115 212.894274 
L 296.595803 213.951605 
L 296.840456 211.202544 
L 297.085109 207.184687 
L 297.574415 234.463823 
L 297.819068 232.137695 
L 298.063721 227.696906 
L 298.308374 225.79371 
L 298.553027 225.79371 
L 298.79768 229.177169 
L 299.042333 227.696906 
L 299.531639 215.8548 
L 299.776292 215.8548 
L 300.020945 214.797469 
L 300.265598 215.643334 
L 300.510251 213.951605 
L 300.754904 215.8548 
L 300.999557 214.163071 
L 301.24421 219.026793 
L 301.488863 189.844461 
L 301.733516 188.78713 
L 301.978169 179.694085 
L 302.222822 183.28901 
L 302.467475 181.174348 
L 302.712128 180.53995 
L 302.956781 175.887694 
L 303.201434 178.84822 
L 303.446087 176.733559 
L 303.69074 187.095401 
L 303.935393 188.364198 
L 304.180046 186.03807 
L 304.669352 186.03807 
L 304.914005 182.231679 
L 305.158658 184.769273 
L 305.403311 185.826604 
L 305.647964 186.249536 
L 305.892617 179.905551 
L 306.13727 183.28901 
L 306.626576 180.962882 
L 307.115882 164.468521 
L 307.360535 168.90931 
L 307.605188 171.235438 
L 308.339147 167.217581 
L 308.5838 167.217581 
L 308.828453 165.102919 
L 309.073107 155.164009 
L 309.31776 152.203483 
L 309.562413 153.683746 
L 309.807066 160.239197 
L 310.051719 161.930927 
L 310.296372 167.006115 
L 310.541025 162.142393 
L 310.785678 164.045588 
L 311.030331 163.834122 
L 311.274984 161.507994 
L 311.76429 154.529611 
L 312.008943 161.085062 
L 312.253596 154.106678 
L 312.742902 152.203483 
L 312.987555 155.164009 
L 313.232208 150.511753 
L 313.721514 147.339761 
L 313.966167 146.705362 
L 314.21082 151.992017 
L 314.455473 151.992017 
L 314.700126 148.820024 
L 314.944779 148.608558 
L 315.189432 150.088821 
L 315.434085 148.820024 
L 315.678738 156.009874 
L 316.168044 152.414949 
L 316.412697 152.414949 
L 316.65735 155.164009 
L 316.902003 152.203483 
L 317.146656 154.318145 
L 317.391309 151.357618 
L 317.635962 154.529611 
L 317.880615 150.934686 
L 318.125268 149.03149 
L 318.369921 143.956302 
L 318.614574 149.877355 
L 318.859227 150.300287 
L 319.348533 153.47228 
L 319.593186 153.683746 
L 319.837839 160.239197 
L 320.082492 162.565325 
L 320.327145 155.586942 
L 320.571798 158.758934 
L 320.816451 158.758934 
L 321.061104 163.199724 
L 321.305757 152.837881 
L 321.795063 143.321904 
L 322.039716 143.321904 
L 322.284369 144.802167 
L 322.529022 114.351038 
L 322.773675 115.408369 
L 323.018328 114.139572 
L 323.262981 116.677166 
L 323.507634 117.311565 
L 323.99694 123.232617 
L 324.241593 124.078482 
L 324.486246 131.691264 
L 324.730899 130.8454 
L 324.975552 130.633933 
L 325.220205 129.999535 
L 325.464858 123.444084 
L 325.709511 125.981678 
L 325.954164 123.867016 
L 326.198817 127.673407 
L 326.44347 124.712881 
L 326.688123 125.770211 
L 326.932776 120.90649 
L 327.422082 127.039009 
L 327.666735 124.078482 
L 327.911388 123.232617 
L 328.156041 125.135813 
L 328.645347 124.078482 
L 328.89 128.307806 
L 329.134653 128.942204 
L 329.379306 134.017392 
L 329.868612 126.193144 
L 330.113265 130.422467 
L 330.602571 123.444084 
L 330.847224 119.426226 
L 331.091877 119.849159 
L 331.33653 122.386753 
L 331.581184 121.329422 
L 331.825837 126.616076 
L 332.07049 126.827542 
L 332.315143 129.15367 
L 332.559796 128.942204 
L 332.804449 132.325663 
L 333.293755 104.623594 
L 333.538408 107.584121 
L 333.783061 108.218519 
L 334.027714 112.02491 
L 334.272367 112.870775 
L 334.51702 103.143331 
L 334.761673 101.874534 
L 335.006326 94.896151 
L 335.250979 94.050286 
L 335.740285 95.742015 
L 335.984938 96.164948 
L 336.229591 99.971339 
L 336.474244 95.742015 
L 336.718897 97.856677 
L 336.96355 92.992955 
L 337.208203 93.415887 
L 337.452856 92.992955 
L 337.697509 84.534308 
L 337.942162 83.054045 
L 338.186815 88.763632 
L 338.431468 88.763632 
L 338.676121 88.552165 
L 338.920774 97.433745 
L 339.165427 90.455361 
L 339.41008 92.14709 
L 339.654733 87.071902 
L 339.899386 88.340699 
L 340.388692 92.358557 
L 340.633345 92.570023 
L 340.877998 80.727917 
L 341.122651 83.265511 
L 341.367304 88.552165 
L 341.611957 88.975098 
L 342.101263 86.437504 
L 342.345916 83.688444 
L 342.590569 95.319083 
L 342.835222 92.14709 
L 343.079875 90.878293 
L 343.324528 91.08976 
L 343.569181 94.684684 
L 343.813834 95.319083 
L 344.058487 94.473218 
L 344.30314 97.222278 
L 344.792446 110.121715 
L 345.037099 110.96758 
L 345.281752 110.333181 
L 345.526405 108.007053 
L 345.771058 107.161188 
L 346.015711 108.429985 
L 346.260364 113.293707 
L 346.505017 114.139572 
L 346.74967 116.888632 
L 346.994323 113.71664 
L 347.238976 112.447843 
L 347.483629 112.236377 
L 347.728282 111.390512 
L 347.972935 112.236377 
L 348.217588 108.852918 
L 348.462241 99.759872 
L 348.706894 116.042768 
L 348.951547 108.218519 
L 349.1962 109.698783 
L 349.440853 110.333181 
L 349.685506 115.619835 
L 349.930159 107.795587 
L 350.174812 108.429985 
L 350.419465 106.738256 
L 350.664118 107.161188 
L 350.908771 98.702542 
L 351.153424 94.261752 
L 351.398077 95.107617 
L 351.64273 98.914008 
L 351.887383 86.64897 
L 352.132036 83.688444 
L 352.376689 104.623594 
L 352.621342 99.33694 
L 352.865995 88.763632 
L 353.355301 81.362316 
L 353.599954 72.480736 
L 353.844607 69.097278 
L 354.089261 53.660247 
L 354.333914 60.004232 
L 354.578567 62.753293 
L 354.82322 51.334119 
L 355.067873 55.351977 
L 355.312526 56.620774 
L 355.557179 50.699721 
L 355.801832 52.602916 
L 356.046485 50.065322 
L 356.291138 62.33036 
L 356.535791 58.312503 
L 356.780444 52.179984 
L 357.26975 59.158368 
L 357.514403 60.850097 
L 358.003709 56.83224 
L 358.493015 55.774909 
L 358.737668 53.660247 
L 358.982321 54.08318 
L 359.226974 72.26927 
L 359.471627 65.079421 
L 359.960933 77.978857 
L 360.205586 87.071902 
L 360.450239 81.996714 
L 360.694892 87.494835 
L 360.939545 86.226038 
L 361.184198 86.437504 
L 361.428851 87.706301 
L 361.673504 81.150849 
L 362.16281 76.71006 
L 362.407463 83.476977 
L 362.652116 84.534308 
L 362.896769 78.824722 
L 363.141422 78.824722 
L 363.386075 83.688444 
L 363.630728 84.111376 
L 363.875381 88.975098 
L 364.120034 87.917767 
L 364.364687 91.724158 
L 364.60934 97.645211 
L 364.853993 98.279609 
L 365.098646 93.83882 
L 365.343299 95.742015 
L 365.587952 99.548406 
L 365.832605 98.491075 
L 366.077258 95.742015 
L 366.566564 99.548406 
L 366.811217 109.064384 
L 367.05587 101.874534 
L 367.300523 98.491075 
L 367.545176 92.781489 
L 367.789829 90.032429 
L 368.034482 98.491075 
L 368.279135 96.376414 
L 368.523788 97.010812 
L 368.768441 90.666827 
L 369.257747 91.935624 
L 369.5024 66.77115 
L 369.991706 62.33036 
L 370.236359 51.757052 
L 370.481012 48.585059 
L 370.725665 49.853856 
L 370.970318 50.065322 
L 371.704277 62.541826 
L 371.94893 60.004232 
L 372.438236 50.488255 
L 372.682889 40.760811 
L 372.927542 39.492014 
L 373.172195 37.588818 
L 373.416848 43.509871 
L 373.661501 46.047465 
L 373.906154 46.047465 
L 374.150807 49.430924 
L 374.39546 54.929044 
L 374.640113 54.08318 
L 374.884766 48.373593 
L 375.129419 47.316262 
L 375.374072 48.796525 
L 375.618725 38.223217 
L 375.863378 37.588818 
L 376.108031 35.897089 
L 376.597338 42.45254 
L 376.841991 37.165886 
L 377.086644 35.897089 
L 377.331297 35.897089 
L 377.57595 40.549345 
L 378.065256 40.972277 
L 378.554562 37.165886 
L 378.799215 38.011751 
L 379.043868 38.011751 
L 379.288521 36.742954 
L 379.533174 34.416826 
L 379.777827 38.434683 
L 380.02248 38.223217 
L 380.267133 37.377352 
L 380.511786 41.818142 
L 380.756439 36.742954 
L 381.001092 40.549345 
L 381.245745 40.760811 
L 381.490398 35.897089 
L 381.490398 35.897089 
" style="fill:none;stroke:#ff7f0e;stroke-linecap:square;stroke-width:1.5;"/>
   </g>
   <g id="patch_3">
    <path d="M 40.603125 288.430125 
L 40.603125 22.318125 
" style="fill:none;stroke:#000000;stroke-linecap:square;stroke-linejoin:miter;stroke-width:0.8;"/>
   </g>
   <g id="patch_4">
    <path d="M 397.723125 288.430125 
L 397.723125 22.318125 
" style="fill:none;stroke:#000000;stroke-linecap:square;stroke-linejoin:miter;stroke-width:0.8;"/>
   </g>
   <g id="patch_5">
    <path d="M 40.603125 288.430125 
L 397.723125 288.430125 
" style="fill:none;stroke:#000000;stroke-linecap:square;stroke-linejoin:miter;stroke-width:0.8;"/>
   </g>
   <g id="patch_6">
    <path d="M 40.603125 22.318125 
L 397.723125 22.318125 
" style="fill:none;stroke:#000000;stroke-linecap:square;stroke-linejoin:miter;stroke-width:0.8;"/>
   </g>
   <g id="text_16">
    <!-- Training: MRVL -->
    <defs>
     <path d="M -0.296875 72.90625 
L 61.375 72.90625 
L 61.375 64.59375 
L 35.5 64.59375 
L 35.5 0 
L 25.59375 0 
L 25.59375 64.59375 
L -0.296875 64.59375 
z
" id="DejaVuSans-84"/>
     <path d="M 54.890625 33.015625 
L 54.890625 0 
L 45.90625 0 
L 45.90625 32.71875 
Q 45.90625 40.484375 42.875 44.328125 
Q 39.84375 48.1875 33.796875 48.1875 
Q 26.515625 48.1875 22.3125 43.546875 
Q 18.109375 38.921875 18.109375 30.90625 
L 18.109375 0 
L 9.078125 0 
L 9.078125 54.6875 
L 18.109375 54.6875 
L 18.109375 46.1875 
Q 21.34375 51.125 25.703125 53.5625 
Q 30.078125 56 35.796875 56 
Q 45.21875 56 50.046875 50.171875 
Q 54.890625 44.34375 54.890625 33.015625 
z
" id="DejaVuSans-110"/>
     <path d="M 45.40625 27.984375 
Q 45.40625 37.75 41.375 43.109375 
Q 37.359375 48.484375 30.078125 48.484375 
Q 22.859375 48.484375 18.828125 43.109375 
Q 14.796875 37.75 14.796875 27.984375 
Q 14.796875 18.265625 18.828125 12.890625 
Q 22.859375 7.515625 30.078125 7.515625 
Q 37.359375 7.515625 41.375 12.890625 
Q 45.40625 18.265625 45.40625 27.984375 
z
M 54.390625 6.78125 
Q 54.390625 -7.171875 48.1875 -13.984375 
Q 42 -20.796875 29.203125 -20.796875 
Q 24.46875 -20.796875 20.265625 -20.09375 
Q 16.0625 -19.390625 12.109375 -17.921875 
L 12.109375 -9.1875 
Q 16.0625 -11.328125 19.921875 -12.34375 
Q 23.78125 -13.375 27.78125 -13.375 
Q 36.625 -13.375 41.015625 -8.765625 
Q 45.40625 -4.15625 45.40625 5.171875 
L 45.40625 9.625 
Q 42.625 4.78125 38.28125 2.390625 
Q 33.9375 0 27.875 0 
Q 17.828125 0 11.671875 7.65625 
Q 5.515625 15.328125 5.515625 27.984375 
Q 5.515625 40.671875 11.671875 48.328125 
Q 17.828125 56 27.875 56 
Q 33.9375 56 38.28125 53.609375 
Q 42.625 51.21875 45.40625 46.390625 
L 45.40625 54.6875 
L 54.390625 54.6875 
z
" id="DejaVuSans-103"/>
     <path d="M 11.71875 12.40625 
L 22.015625 12.40625 
L 22.015625 0 
L 11.71875 0 
z
M 11.71875 51.703125 
L 22.015625 51.703125 
L 22.015625 39.3125 
L 11.71875 39.3125 
z
" id="DejaVuSans-58"/>
     <path d="M 9.8125 72.90625 
L 24.515625 72.90625 
L 43.109375 23.296875 
L 61.8125 72.90625 
L 76.515625 72.90625 
L 76.515625 0 
L 66.890625 0 
L 66.890625 64.015625 
L 48.09375 14.015625 
L 38.1875 14.015625 
L 19.390625 64.015625 
L 19.390625 0 
L 9.8125 0 
z
" id="DejaVuSans-77"/>
     <path d="M 44.390625 34.1875 
Q 47.5625 33.109375 50.5625 29.59375 
Q 53.5625 26.078125 56.59375 19.921875 
L 66.609375 0 
L 56 0 
L 46.6875 18.703125 
Q 43.0625 26.03125 39.671875 28.421875 
Q 36.28125 30.8125 30.421875 30.8125 
L 19.671875 30.8125 
L 19.671875 0 
L 9.8125 0 
L 9.8125 72.90625 
L 32.078125 72.90625 
Q 44.578125 72.90625 50.734375 67.671875 
Q 56.890625 62.453125 56.890625 51.90625 
Q 56.890625 45.015625 53.6875 40.46875 
Q 50.484375 35.9375 44.390625 34.1875 
z
M 19.671875 64.796875 
L 19.671875 38.921875 
L 32.078125 38.921875 
Q 39.203125 38.921875 42.84375 42.21875 
Q 46.484375 45.515625 46.484375 51.90625 
Q 46.484375 58.296875 42.84375 61.546875 
Q 39.203125 64.796875 32.078125 64.796875 
z
" id="DejaVuSans-82"/>
     <path d="M 28.609375 0 
L 0.78125 72.90625 
L 11.078125 72.90625 
L 34.1875 11.53125 
L 57.328125 72.90625 
L 67.578125 72.90625 
L 39.796875 0 
z
" id="DejaVuSans-86"/>
     <path d="M 9.8125 72.90625 
L 19.671875 72.90625 
L 19.671875 8.296875 
L 55.171875 8.296875 
L 55.171875 0 
L 9.8125 0 
z
" id="DejaVuSans-76"/>
    </defs>
    <g transform="translate(175.100625 16.318125)scale(0.12 -0.12)">
     <use xlink:href="#DejaVuSans-84"/>
     <use x="46.333984" xlink:href="#DejaVuSans-114"/>
     <use x="87.447266" xlink:href="#DejaVuSans-97"/>
     <use x="148.726562" xlink:href="#DejaVuSans-105"/>
     <use x="176.509766" xlink:href="#DejaVuSans-110"/>
     <use x="239.888672" xlink:href="#DejaVuSans-105"/>
     <use x="267.671875" xlink:href="#DejaVuSans-110"/>
     <use x="331.050781" xlink:href="#DejaVuSans-103"/>
     <use x="394.527344" xlink:href="#DejaVuSans-58"/>
     <use x="428.21875" xlink:href="#DejaVuSans-32"/>
     <use x="460.005859" xlink:href="#DejaVuSans-77"/>
     <use x="546.285156" xlink:href="#DejaVuSans-82"/>
     <use x="610.267578" xlink:href="#DejaVuSans-86"/>
     <use x="678.675781" xlink:href="#DejaVuSans-76"/>
    </g>
   </g>
   <g id="legend_1">
    <g id="patch_7">
     <path d="M 47.603125 59.674375 
L 131.33125 59.674375 
Q 133.33125 59.674375 133.33125 57.674375 
L 133.33125 29.318125 
Q 133.33125 27.318125 131.33125 27.318125 
L 47.603125 27.318125 
Q 45.603125 27.318125 45.603125 29.318125 
L 45.603125 57.674375 
Q 45.603125 59.674375 47.603125 59.674375 
z
" style="fill:#ffffff;opacity:0.8;stroke:#cccccc;stroke-linejoin:miter;"/>
    </g>
    <g id="line2d_29">
     <path d="M 49.603125 35.416562 
L 69.603125 35.416562 
" style="fill:none;stroke:#1f77b4;stroke-linecap:square;stroke-width:1.5;"/>
    </g>
    <g id="line2d_30"/>
    <g id="text_17">
     <!-- Predicted -->
     <defs>
      <path d="M 45.40625 46.390625 
L 45.40625 75.984375 
L 54.390625 75.984375 
L 54.390625 0 
L 45.40625 0 
L 45.40625 8.203125 
Q 42.578125 3.328125 38.25 0.953125 
Q 33.9375 -1.421875 27.875 -1.421875 
Q 17.96875 -1.421875 11.734375 6.484375 
Q 5.515625 14.40625 5.515625 27.296875 
Q 5.515625 40.1875 11.734375 48.09375 
Q 17.96875 56 27.875 56 
Q 33.9375 56 38.25 53.625 
Q 42.578125 51.265625 45.40625 46.390625 
z
M 14.796875 27.296875 
Q 14.796875 17.390625 18.875 11.75 
Q 22.953125 6.109375 30.078125 6.109375 
Q 37.203125 6.109375 41.296875 11.75 
Q 45.40625 17.390625 45.40625 27.296875 
Q 45.40625 37.203125 41.296875 42.84375 
Q 37.203125 48.484375 30.078125 48.484375 
Q 22.953125 48.484375 18.875 42.84375 
Q 14.796875 37.203125 14.796875 27.296875 
z
" id="DejaVuSans-100"/>
      <path d="M 18.3125 70.21875 
L 18.3125 54.6875 
L 36.8125 54.6875 
L 36.8125 47.703125 
L 18.3125 47.703125 
L 18.3125 18.015625 
Q 18.3125 11.328125 20.140625 9.421875 
Q 21.96875 7.515625 27.59375 7.515625 
L 36.8125 7.515625 
L 36.8125 0 
L 27.59375 0 
Q 17.1875 0 13.234375 3.875 
Q 9.28125 7.765625 9.28125 18.015625 
L 9.28125 47.703125 
L 2.6875 47.703125 
L 2.6875 54.6875 
L 9.28125 54.6875 
L 9.28125 70.21875 
z
" id="DejaVuSans-116"/>
     </defs>
     <g transform="translate(77.603125 38.916562)scale(0.1 -0.1)">
      <use xlink:href="#DejaVuSans-80"/>
      <use x="58.552734" xlink:href="#DejaVuSans-114"/>
      <use x="97.416016" xlink:href="#DejaVuSans-101"/>
      <use x="158.939453" xlink:href="#DejaVuSans-100"/>
      <use x="222.416016" xlink:href="#DejaVuSans-105"/>
      <use x="250.199219" xlink:href="#DejaVuSans-99"/>
      <use x="305.179688" xlink:href="#DejaVuSans-116"/>
      <use x="344.388672" xlink:href="#DejaVuSans-101"/>
      <use x="405.912109" xlink:href="#DejaVuSans-100"/>
     </g>
    </g>
    <g id="line2d_31">
     <path d="M 49.603125 50.094687 
L 69.603125 50.094687 
" style="fill:none;stroke:#ff7f0e;stroke-linecap:square;stroke-width:1.5;"/>
    </g>
    <g id="line2d_32"/>
    <g id="text_18">
     <!-- True value -->
     <defs>
      <path d="M 8.5 21.578125 
L 8.5 54.6875 
L 17.484375 54.6875 
L 17.484375 21.921875 
Q 17.484375 14.15625 20.5 10.265625 
Q 23.53125 6.390625 29.59375 6.390625 
Q 36.859375 6.390625 41.078125 11.03125 
Q 45.3125 15.671875 45.3125 23.6875 
L 45.3125 54.6875 
L 54.296875 54.6875 
L 54.296875 0 
L 45.3125 0 
L 45.3125 8.40625 
Q 42.046875 3.421875 37.71875 1 
Q 33.40625 -1.421875 27.6875 -1.421875 
Q 18.265625 -1.421875 13.375 4.4375 
Q 8.5 10.296875 8.5 21.578125 
z
M 31.109375 56 
z
" id="DejaVuSans-117"/>
      <path d="M 2.984375 54.6875 
L 12.5 54.6875 
L 29.59375 8.796875 
L 46.6875 54.6875 
L 56.203125 54.6875 
L 35.6875 0 
L 23.484375 0 
z
" id="DejaVuSans-118"/>
      <path d="M 9.421875 75.984375 
L 18.40625 75.984375 
L 18.40625 0 
L 9.421875 0 
z
" id="DejaVuSans-108"/>
     </defs>
     <g transform="translate(77.603125 53.594687)scale(0.1 -0.1)">
      <use xlink:href="#DejaVuSans-84"/>
      <use x="46.333984" xlink:href="#DejaVuSans-114"/>
      <use x="87.447266" xlink:href="#DejaVuSans-117"/>
      <use x="150.826172" xlink:href="#DejaVuSans-101"/>
      <use x="212.349609" xlink:href="#DejaVuSans-32"/>
      <use x="244.136719" xlink:href="#DejaVuSans-118"/>
      <use x="303.316406" xlink:href="#DejaVuSans-97"/>
      <use x="364.595703" xlink:href="#DejaVuSans-108"/>
      <use x="392.378906" xlink:href="#DejaVuSans-117"/>
      <use x="455.757812" xlink:href="#DejaVuSans-101"/>
     </g>
    </g>
   </g>
  </g>
 </g>
 <defs>
  <clipPath id="p533bfb1339">
   <rect height="266.112" width="357.12" x="40.603125" y="22.318125"/>
  </clipPath>
 </defs>
</svg>
