<?xml version="1.0" encoding="utf-8" standalone="no"?>
<!DOCTYPE svg PUBLIC "-//W3C//DTD SVG 1.1//EN"
  "http://www.w3.org/Graphics/SVG/1.1/DTD/svg11.dtd">
<!-- Created with matplotlib (https://matplotlib.org/) -->
<svg height="325.986375pt" version="1.1" viewBox="0 0 411.285625 325.986375" width="411.285625pt" xmlns="http://www.w3.org/2000/svg" xmlns:xlink="http://www.w3.org/1999/xlink">
 <defs>
  <style type="text/css">
*{stroke-linecap:butt;stroke-linejoin:round;}
  </style>
 </defs>
 <g id="figure_1">
  <g id="patch_1">
   <path d="M 0 325.986375 
L 411.285625 325.986375 
L 411.285625 0 
L 0 0 
z
" style="fill:#ffffff;"/>
  </g>
  <g id="axes_1">
   <g id="patch_2">
    <path d="M 46.965625 288.430125 
L 404.085625 288.430125 
L 404.085625 22.318125 
L 46.965625 22.318125 
z
" style="fill:#ffffff;"/>
   </g>
   <g id="matplotlib.axis_1">
    <g id="xtick_1">
     <g id="line2d_1">
      <path clip-path="url(#pb4b4afcbd6)" d="M 63.198352 288.430125 
L 63.198352 22.318125 
" style="fill:none;stroke:#b0b0b0;stroke-dasharray:2.96,1.28;stroke-dashoffset:0;stroke-width:0.8;"/>
     </g>
     <g id="line2d_2">
      <defs>
       <path d="M 0 0 
L 0 3.5 
" id="m383ee15070" style="stroke:#000000;stroke-width:0.8;"/>
      </defs>
      <g>
       <use style="stroke:#000000;stroke-width:0.8;" x="63.198352" xlink:href="#m383ee15070" y="288.430125"/>
      </g>
     </g>
     <g id="text_1">
      <!-- 0 -->
      <defs>
       <path d="M 31.78125 66.40625 
Q 24.171875 66.40625 20.328125 58.90625 
Q 16.5 51.421875 16.5 36.375 
Q 16.5 21.390625 20.328125 13.890625 
Q 24.171875 6.390625 31.78125 6.390625 
Q 39.453125 6.390625 43.28125 13.890625 
Q 47.125 21.390625 47.125 36.375 
Q 47.125 51.421875 43.28125 58.90625 
Q 39.453125 66.40625 31.78125 66.40625 
z
M 31.78125 74.21875 
Q 44.046875 74.21875 50.515625 64.515625 
Q 56.984375 54.828125 56.984375 36.375 
Q 56.984375 17.96875 50.515625 8.265625 
Q 44.046875 -1.421875 31.78125 -1.421875 
Q 19.53125 -1.421875 13.0625 8.265625 
Q 6.59375 17.96875 6.59375 36.375 
Q 6.59375 54.828125 13.0625 64.515625 
Q 19.53125 74.21875 31.78125 74.21875 
z
" id="DejaVuSans-48"/>
      </defs>
      <g transform="translate(60.017102 303.028562)scale(0.1 -0.1)">
       <use xlink:href="#DejaVuSans-48"/>
      </g>
     </g>
    </g>
    <g id="xtick_2">
     <g id="line2d_3">
      <path clip-path="url(#pb4b4afcbd6)" d="M 112.128954 288.430125 
L 112.128954 22.318125 
" style="fill:none;stroke:#b0b0b0;stroke-dasharray:2.96,1.28;stroke-dashoffset:0;stroke-width:0.8;"/>
     </g>
     <g id="line2d_4">
      <g>
       <use style="stroke:#000000;stroke-width:0.8;" x="112.128954" xlink:href="#m383ee15070" y="288.430125"/>
      </g>
     </g>
     <g id="text_2">
      <!-- 200 -->
      <defs>
       <path d="M 19.1875 8.296875 
L 53.609375 8.296875 
L 53.609375 0 
L 7.328125 0 
L 7.328125 8.296875 
Q 12.9375 14.109375 22.625 23.890625 
Q 32.328125 33.6875 34.8125 36.53125 
Q 39.546875 41.84375 41.421875 45.53125 
Q 43.3125 49.21875 43.3125 52.78125 
Q 43.3125 58.59375 39.234375 62.25 
Q 35.15625 65.921875 28.609375 65.921875 
Q 23.96875 65.921875 18.8125 64.3125 
Q 13.671875 62.703125 7.8125 59.421875 
L 7.8125 69.390625 
Q 13.765625 71.78125 18.9375 73 
Q 24.125 74.21875 28.421875 74.21875 
Q 39.75 74.21875 46.484375 68.546875 
Q 53.21875 62.890625 53.21875 53.421875 
Q 53.21875 48.921875 51.53125 44.890625 
Q 49.859375 40.875 45.40625 35.40625 
Q 44.1875 33.984375 37.640625 27.21875 
Q 31.109375 20.453125 19.1875 8.296875 
z
" id="DejaVuSans-50"/>
      </defs>
      <g transform="translate(102.585204 303.028562)scale(0.1 -0.1)">
       <use xlink:href="#DejaVuSans-50"/>
       <use x="63.623047" xlink:href="#DejaVuSans-48"/>
       <use x="127.246094" xlink:href="#DejaVuSans-48"/>
      </g>
     </g>
    </g>
    <g id="xtick_3">
     <g id="line2d_5">
      <path clip-path="url(#pb4b4afcbd6)" d="M 161.059557 288.430125 
L 161.059557 22.318125 
" style="fill:none;stroke:#b0b0b0;stroke-dasharray:2.96,1.28;stroke-dashoffset:0;stroke-width:0.8;"/>
     </g>
     <g id="line2d_6">
      <g>
       <use style="stroke:#000000;stroke-width:0.8;" x="161.059557" xlink:href="#m383ee15070" y="288.430125"/>
      </g>
     </g>
     <g id="text_3">
      <!-- 400 -->
      <defs>
       <path d="M 37.796875 64.3125 
L 12.890625 25.390625 
L 37.796875 25.390625 
z
M 35.203125 72.90625 
L 47.609375 72.90625 
L 47.609375 25.390625 
L 58.015625 25.390625 
L 58.015625 17.1875 
L 47.609375 17.1875 
L 47.609375 0 
L 37.796875 0 
L 37.796875 17.1875 
L 4.890625 17.1875 
L 4.890625 26.703125 
z
" id="DejaVuSans-52"/>
      </defs>
      <g transform="translate(151.515807 303.028562)scale(0.1 -0.1)">
       <use xlink:href="#DejaVuSans-52"/>
       <use x="63.623047" xlink:href="#DejaVuSans-48"/>
       <use x="127.246094" xlink:href="#DejaVuSans-48"/>
      </g>
     </g>
    </g>
    <g id="xtick_4">
     <g id="line2d_7">
      <path clip-path="url(#pb4b4afcbd6)" d="M 209.990159 288.430125 
L 209.990159 22.318125 
" style="fill:none;stroke:#b0b0b0;stroke-dasharray:2.96,1.28;stroke-dashoffset:0;stroke-width:0.8;"/>
     </g>
     <g id="line2d_8">
      <g>
       <use style="stroke:#000000;stroke-width:0.8;" x="209.990159" xlink:href="#m383ee15070" y="288.430125"/>
      </g>
     </g>
     <g id="text_4">
      <!-- 600 -->
      <defs>
       <path d="M 33.015625 40.375 
Q 26.375 40.375 22.484375 35.828125 
Q 18.609375 31.296875 18.609375 23.390625 
Q 18.609375 15.53125 22.484375 10.953125 
Q 26.375 6.390625 33.015625 6.390625 
Q 39.65625 6.390625 43.53125 10.953125 
Q 47.40625 15.53125 47.40625 23.390625 
Q 47.40625 31.296875 43.53125 35.828125 
Q 39.65625 40.375 33.015625 40.375 
z
M 52.59375 71.296875 
L 52.59375 62.3125 
Q 48.875 64.0625 45.09375 64.984375 
Q 41.3125 65.921875 37.59375 65.921875 
Q 27.828125 65.921875 22.671875 59.328125 
Q 17.53125 52.734375 16.796875 39.40625 
Q 19.671875 43.65625 24.015625 45.921875 
Q 28.375 48.1875 33.59375 48.1875 
Q 44.578125 48.1875 50.953125 41.515625 
Q 57.328125 34.859375 57.328125 23.390625 
Q 57.328125 12.15625 50.6875 5.359375 
Q 44.046875 -1.421875 33.015625 -1.421875 
Q 20.359375 -1.421875 13.671875 8.265625 
Q 6.984375 17.96875 6.984375 36.375 
Q 6.984375 53.65625 15.1875 63.9375 
Q 23.390625 74.21875 37.203125 74.21875 
Q 40.921875 74.21875 44.703125 73.484375 
Q 48.484375 72.75 52.59375 71.296875 
z
" id="DejaVuSans-54"/>
      </defs>
      <g transform="translate(200.446409 303.028562)scale(0.1 -0.1)">
       <use xlink:href="#DejaVuSans-54"/>
       <use x="63.623047" xlink:href="#DejaVuSans-48"/>
       <use x="127.246094" xlink:href="#DejaVuSans-48"/>
      </g>
     </g>
    </g>
    <g id="xtick_5">
     <g id="line2d_9">
      <path clip-path="url(#pb4b4afcbd6)" d="M 258.920761 288.430125 
L 258.920761 22.318125 
" style="fill:none;stroke:#b0b0b0;stroke-dasharray:2.96,1.28;stroke-dashoffset:0;stroke-width:0.8;"/>
     </g>
     <g id="line2d_10">
      <g>
       <use style="stroke:#000000;stroke-width:0.8;" x="258.920761" xlink:href="#m383ee15070" y="288.430125"/>
      </g>
     </g>
     <g id="text_5">
      <!-- 800 -->
      <defs>
       <path d="M 31.78125 34.625 
Q 24.75 34.625 20.71875 30.859375 
Q 16.703125 27.09375 16.703125 20.515625 
Q 16.703125 13.921875 20.71875 10.15625 
Q 24.75 6.390625 31.78125 6.390625 
Q 38.8125 6.390625 42.859375 10.171875 
Q 46.921875 13.96875 46.921875 20.515625 
Q 46.921875 27.09375 42.890625 30.859375 
Q 38.875 34.625 31.78125 34.625 
z
M 21.921875 38.8125 
Q 15.578125 40.375 12.03125 44.71875 
Q 8.5 49.078125 8.5 55.328125 
Q 8.5 64.0625 14.71875 69.140625 
Q 20.953125 74.21875 31.78125 74.21875 
Q 42.671875 74.21875 48.875 69.140625 
Q 55.078125 64.0625 55.078125 55.328125 
Q 55.078125 49.078125 51.53125 44.71875 
Q 48 40.375 41.703125 38.8125 
Q 48.828125 37.15625 52.796875 32.3125 
Q 56.78125 27.484375 56.78125 20.515625 
Q 56.78125 9.90625 50.3125 4.234375 
Q 43.84375 -1.421875 31.78125 -1.421875 
Q 19.734375 -1.421875 13.25 4.234375 
Q 6.78125 9.90625 6.78125 20.515625 
Q 6.78125 27.484375 10.78125 32.3125 
Q 14.796875 37.15625 21.921875 38.8125 
z
M 18.3125 54.390625 
Q 18.3125 48.734375 21.84375 45.5625 
Q 25.390625 42.390625 31.78125 42.390625 
Q 38.140625 42.390625 41.71875 45.5625 
Q 45.3125 48.734375 45.3125 54.390625 
Q 45.3125 60.0625 41.71875 63.234375 
Q 38.140625 66.40625 31.78125 66.40625 
Q 25.390625 66.40625 21.84375 63.234375 
Q 18.3125 60.0625 18.3125 54.390625 
z
" id="DejaVuSans-56"/>
      </defs>
      <g transform="translate(249.377011 303.028562)scale(0.1 -0.1)">
       <use xlink:href="#DejaVuSans-56"/>
       <use x="63.623047" xlink:href="#DejaVuSans-48"/>
       <use x="127.246094" xlink:href="#DejaVuSans-48"/>
      </g>
     </g>
    </g>
    <g id="xtick_6">
     <g id="line2d_11">
      <path clip-path="url(#pb4b4afcbd6)" d="M 307.851363 288.430125 
L 307.851363 22.318125 
" style="fill:none;stroke:#b0b0b0;stroke-dasharray:2.96,1.28;stroke-dashoffset:0;stroke-width:0.8;"/>
     </g>
     <g id="line2d_12">
      <g>
       <use style="stroke:#000000;stroke-width:0.8;" x="307.851363" xlink:href="#m383ee15070" y="288.430125"/>
      </g>
     </g>
     <g id="text_6">
      <!-- 1000 -->
      <defs>
       <path d="M 12.40625 8.296875 
L 28.515625 8.296875 
L 28.515625 63.921875 
L 10.984375 60.40625 
L 10.984375 69.390625 
L 28.421875 72.90625 
L 38.28125 72.90625 
L 38.28125 8.296875 
L 54.390625 8.296875 
L 54.390625 0 
L 12.40625 0 
z
" id="DejaVuSans-49"/>
      </defs>
      <g transform="translate(295.126363 303.028562)scale(0.1 -0.1)">
       <use xlink:href="#DejaVuSans-49"/>
       <use x="63.623047" xlink:href="#DejaVuSans-48"/>
       <use x="127.246094" xlink:href="#DejaVuSans-48"/>
       <use x="190.869141" xlink:href="#DejaVuSans-48"/>
      </g>
     </g>
    </g>
    <g id="xtick_7">
     <g id="line2d_13">
      <path clip-path="url(#pb4b4afcbd6)" d="M 356.781965 288.430125 
L 356.781965 22.318125 
" style="fill:none;stroke:#b0b0b0;stroke-dasharray:2.96,1.28;stroke-dashoffset:0;stroke-width:0.8;"/>
     </g>
     <g id="line2d_14">
      <g>
       <use style="stroke:#000000;stroke-width:0.8;" x="356.781965" xlink:href="#m383ee15070" y="288.430125"/>
      </g>
     </g>
     <g id="text_7">
      <!-- 1200 -->
      <g transform="translate(344.056965 303.028562)scale(0.1 -0.1)">
       <use xlink:href="#DejaVuSans-49"/>
       <use x="63.623047" xlink:href="#DejaVuSans-50"/>
       <use x="127.246094" xlink:href="#DejaVuSans-48"/>
       <use x="190.869141" xlink:href="#DejaVuSans-48"/>
      </g>
     </g>
    </g>
    <g id="text_8">
     <!-- Day -->
     <defs>
      <path d="M 19.671875 64.796875 
L 19.671875 8.109375 
L 31.59375 8.109375 
Q 46.6875 8.109375 53.6875 14.9375 
Q 60.6875 21.78125 60.6875 36.53125 
Q 60.6875 51.171875 53.6875 57.984375 
Q 46.6875 64.796875 31.59375 64.796875 
z
M 9.8125 72.90625 
L 30.078125 72.90625 
Q 51.265625 72.90625 61.171875 64.09375 
Q 71.09375 55.28125 71.09375 36.53125 
Q 71.09375 17.671875 61.125 8.828125 
Q 51.171875 0 30.078125 0 
L 9.8125 0 
z
" id="DejaVuSans-68"/>
      <path d="M 34.28125 27.484375 
Q 23.390625 27.484375 19.1875 25 
Q 14.984375 22.515625 14.984375 16.5 
Q 14.984375 11.71875 18.140625 8.90625 
Q 21.296875 6.109375 26.703125 6.109375 
Q 34.1875 6.109375 38.703125 11.40625 
Q 43.21875 16.703125 43.21875 25.484375 
L 43.21875 27.484375 
z
M 52.203125 31.203125 
L 52.203125 0 
L 43.21875 0 
L 43.21875 8.296875 
Q 40.140625 3.328125 35.546875 0.953125 
Q 30.953125 -1.421875 24.3125 -1.421875 
Q 15.921875 -1.421875 10.953125 3.296875 
Q 6 8.015625 6 15.921875 
Q 6 25.140625 12.171875 29.828125 
Q 18.359375 34.515625 30.609375 34.515625 
L 43.21875 34.515625 
L 43.21875 35.40625 
Q 43.21875 41.609375 39.140625 45 
Q 35.0625 48.390625 27.6875 48.390625 
Q 23 48.390625 18.546875 47.265625 
Q 14.109375 46.140625 10.015625 43.890625 
L 10.015625 52.203125 
Q 14.9375 54.109375 19.578125 55.046875 
Q 24.21875 56 28.609375 56 
Q 40.484375 56 46.34375 49.84375 
Q 52.203125 43.703125 52.203125 31.203125 
z
" id="DejaVuSans-97"/>
      <path d="M 32.171875 -5.078125 
Q 28.375 -14.84375 24.75 -17.8125 
Q 21.140625 -20.796875 15.09375 -20.796875 
L 7.90625 -20.796875 
L 7.90625 -13.28125 
L 13.1875 -13.28125 
Q 16.890625 -13.28125 18.9375 -11.515625 
Q 21 -9.765625 23.484375 -3.21875 
L 25.09375 0.875 
L 2.984375 54.6875 
L 12.5 54.6875 
L 29.59375 11.921875 
L 46.6875 54.6875 
L 56.203125 54.6875 
z
" id="DejaVuSans-121"/>
     </defs>
     <g transform="translate(215.652188 316.706687)scale(0.1 -0.1)">
      <use xlink:href="#DejaVuSans-68"/>
      <use x="77.001953" xlink:href="#DejaVuSans-97"/>
      <use x="138.28125" xlink:href="#DejaVuSans-121"/>
     </g>
    </g>
   </g>
   <g id="matplotlib.axis_2">
    <g id="ytick_1">
     <g id="line2d_15">
      <path clip-path="url(#pb4b4afcbd6)" d="M 46.965625 266.25488 
L 404.085625 266.25488 
" style="fill:none;stroke:#b0b0b0;stroke-dasharray:2.96,1.28;stroke-dashoffset:0;stroke-width:0.8;"/>
     </g>
     <g id="line2d_16">
      <defs>
       <path d="M 0 0 
L -3.5 0 
" id="m3a5c8d52be" style="stroke:#000000;stroke-width:0.8;"/>
      </defs>
      <g>
       <use style="stroke:#000000;stroke-width:0.8;" x="46.965625" xlink:href="#m3a5c8d52be" y="266.25488"/>
      </g>
     </g>
     <g id="text_9">
      <!-- 30 -->
      <defs>
       <path d="M 40.578125 39.3125 
Q 47.65625 37.796875 51.625 33 
Q 55.609375 28.21875 55.609375 21.1875 
Q 55.609375 10.40625 48.1875 4.484375 
Q 40.765625 -1.421875 27.09375 -1.421875 
Q 22.515625 -1.421875 17.65625 -0.515625 
Q 12.796875 0.390625 7.625 2.203125 
L 7.625 11.71875 
Q 11.71875 9.328125 16.59375 8.109375 
Q 21.484375 6.890625 26.8125 6.890625 
Q 36.078125 6.890625 40.9375 10.546875 
Q 45.796875 14.203125 45.796875 21.1875 
Q 45.796875 27.640625 41.28125 31.265625 
Q 36.765625 34.90625 28.71875 34.90625 
L 20.21875 34.90625 
L 20.21875 43.015625 
L 29.109375 43.015625 
Q 36.375 43.015625 40.234375 45.921875 
Q 44.09375 48.828125 44.09375 54.296875 
Q 44.09375 59.90625 40.109375 62.90625 
Q 36.140625 65.921875 28.71875 65.921875 
Q 24.65625 65.921875 20.015625 65.03125 
Q 15.375 64.15625 9.8125 62.3125 
L 9.8125 71.09375 
Q 15.4375 72.65625 20.34375 73.4375 
Q 25.25 74.21875 29.59375 74.21875 
Q 40.828125 74.21875 47.359375 69.109375 
Q 53.90625 64.015625 53.90625 55.328125 
Q 53.90625 49.265625 50.4375 45.09375 
Q 46.96875 40.921875 40.578125 39.3125 
z
" id="DejaVuSans-51"/>
      </defs>
      <g transform="translate(27.240625 270.054099)scale(0.1 -0.1)">
       <use xlink:href="#DejaVuSans-51"/>
       <use x="63.623047" xlink:href="#DejaVuSans-48"/>
      </g>
     </g>
    </g>
    <g id="ytick_2">
     <g id="line2d_17">
      <path clip-path="url(#pb4b4afcbd6)" d="M 46.965625 232.182048 
L 404.085625 232.182048 
" style="fill:none;stroke:#b0b0b0;stroke-dasharray:2.96,1.28;stroke-dashoffset:0;stroke-width:0.8;"/>
     </g>
     <g id="line2d_18">
      <g>
       <use style="stroke:#000000;stroke-width:0.8;" x="46.965625" xlink:href="#m3a5c8d52be" y="232.182048"/>
      </g>
     </g>
     <g id="text_10">
      <!-- 40 -->
      <g transform="translate(27.240625 235.981267)scale(0.1 -0.1)">
       <use xlink:href="#DejaVuSans-52"/>
       <use x="63.623047" xlink:href="#DejaVuSans-48"/>
      </g>
     </g>
    </g>
    <g id="ytick_3">
     <g id="line2d_19">
      <path clip-path="url(#pb4b4afcbd6)" d="M 46.965625 198.109216 
L 404.085625 198.109216 
" style="fill:none;stroke:#b0b0b0;stroke-dasharray:2.96,1.28;stroke-dashoffset:0;stroke-width:0.8;"/>
     </g>
     <g id="line2d_20">
      <g>
       <use style="stroke:#000000;stroke-width:0.8;" x="46.965625" xlink:href="#m3a5c8d52be" y="198.109216"/>
      </g>
     </g>
     <g id="text_11">
      <!-- 50 -->
      <defs>
       <path d="M 10.796875 72.90625 
L 49.515625 72.90625 
L 49.515625 64.59375 
L 19.828125 64.59375 
L 19.828125 46.734375 
Q 21.96875 47.46875 24.109375 47.828125 
Q 26.265625 48.1875 28.421875 48.1875 
Q 40.625 48.1875 47.75 41.5 
Q 54.890625 34.8125 54.890625 23.390625 
Q 54.890625 11.625 47.5625 5.09375 
Q 40.234375 -1.421875 26.90625 -1.421875 
Q 22.3125 -1.421875 17.546875 -0.640625 
Q 12.796875 0.140625 7.71875 1.703125 
L 7.71875 11.625 
Q 12.109375 9.234375 16.796875 8.0625 
Q 21.484375 6.890625 26.703125 6.890625 
Q 35.15625 6.890625 40.078125 11.328125 
Q 45.015625 15.765625 45.015625 23.390625 
Q 45.015625 31 40.078125 35.4375 
Q 35.15625 39.890625 26.703125 39.890625 
Q 22.75 39.890625 18.8125 39.015625 
Q 14.890625 38.140625 10.796875 36.28125 
z
" id="DejaVuSans-53"/>
      </defs>
      <g transform="translate(27.240625 201.908435)scale(0.1 -0.1)">
       <use xlink:href="#DejaVuSans-53"/>
       <use x="63.623047" xlink:href="#DejaVuSans-48"/>
      </g>
     </g>
    </g>
    <g id="ytick_4">
     <g id="line2d_21">
      <path clip-path="url(#pb4b4afcbd6)" d="M 46.965625 164.036384 
L 404.085625 164.036384 
" style="fill:none;stroke:#b0b0b0;stroke-dasharray:2.96,1.28;stroke-dashoffset:0;stroke-width:0.8;"/>
     </g>
     <g id="line2d_22">
      <g>
       <use style="stroke:#000000;stroke-width:0.8;" x="46.965625" xlink:href="#m3a5c8d52be" y="164.036384"/>
      </g>
     </g>
     <g id="text_12">
      <!-- 60 -->
      <g transform="translate(27.240625 167.835603)scale(0.1 -0.1)">
       <use xlink:href="#DejaVuSans-54"/>
       <use x="63.623047" xlink:href="#DejaVuSans-48"/>
      </g>
     </g>
    </g>
    <g id="ytick_5">
     <g id="line2d_23">
      <path clip-path="url(#pb4b4afcbd6)" d="M 46.965625 129.963552 
L 404.085625 129.963552 
" style="fill:none;stroke:#b0b0b0;stroke-dasharray:2.96,1.28;stroke-dashoffset:0;stroke-width:0.8;"/>
     </g>
     <g id="line2d_24">
      <g>
       <use style="stroke:#000000;stroke-width:0.8;" x="46.965625" xlink:href="#m3a5c8d52be" y="129.963552"/>
      </g>
     </g>
     <g id="text_13">
      <!-- 70 -->
      <defs>
       <path d="M 8.203125 72.90625 
L 55.078125 72.90625 
L 55.078125 68.703125 
L 28.609375 0 
L 18.3125 0 
L 43.21875 64.59375 
L 8.203125 64.59375 
z
" id="DejaVuSans-55"/>
      </defs>
      <g transform="translate(27.240625 133.762771)scale(0.1 -0.1)">
       <use xlink:href="#DejaVuSans-55"/>
       <use x="63.623047" xlink:href="#DejaVuSans-48"/>
      </g>
     </g>
    </g>
    <g id="ytick_6">
     <g id="line2d_25">
      <path clip-path="url(#pb4b4afcbd6)" d="M 46.965625 95.89072 
L 404.085625 95.89072 
" style="fill:none;stroke:#b0b0b0;stroke-dasharray:2.96,1.28;stroke-dashoffset:0;stroke-width:0.8;"/>
     </g>
     <g id="line2d_26">
      <g>
       <use style="stroke:#000000;stroke-width:0.8;" x="46.965625" xlink:href="#m3a5c8d52be" y="95.89072"/>
      </g>
     </g>
     <g id="text_14">
      <!-- 80 -->
      <g transform="translate(27.240625 99.689938)scale(0.1 -0.1)">
       <use xlink:href="#DejaVuSans-56"/>
       <use x="63.623047" xlink:href="#DejaVuSans-48"/>
      </g>
     </g>
    </g>
    <g id="ytick_7">
     <g id="line2d_27">
      <path clip-path="url(#pb4b4afcbd6)" d="M 46.965625 61.817888 
L 404.085625 61.817888 
" style="fill:none;stroke:#b0b0b0;stroke-dasharray:2.96,1.28;stroke-dashoffset:0;stroke-width:0.8;"/>
     </g>
     <g id="line2d_28">
      <g>
       <use style="stroke:#000000;stroke-width:0.8;" x="46.965625" xlink:href="#m3a5c8d52be" y="61.817888"/>
      </g>
     </g>
     <g id="text_15">
      <!-- 90 -->
      <defs>
       <path d="M 10.984375 1.515625 
L 10.984375 10.5 
Q 14.703125 8.734375 18.5 7.8125 
Q 22.3125 6.890625 25.984375 6.890625 
Q 35.75 6.890625 40.890625 13.453125 
Q 46.046875 20.015625 46.78125 33.40625 
Q 43.953125 29.203125 39.59375 26.953125 
Q 35.25 24.703125 29.984375 24.703125 
Q 19.046875 24.703125 12.671875 31.3125 
Q 6.296875 37.9375 6.296875 49.421875 
Q 6.296875 60.640625 12.9375 67.421875 
Q 19.578125 74.21875 30.609375 74.21875 
Q 43.265625 74.21875 49.921875 64.515625 
Q 56.59375 54.828125 56.59375 36.375 
Q 56.59375 19.140625 48.40625 8.859375 
Q 40.234375 -1.421875 26.421875 -1.421875 
Q 22.703125 -1.421875 18.890625 -0.6875 
Q 15.09375 0.046875 10.984375 1.515625 
z
M 30.609375 32.421875 
Q 37.25 32.421875 41.125 36.953125 
Q 45.015625 41.5 45.015625 49.421875 
Q 45.015625 57.28125 41.125 61.84375 
Q 37.25 66.40625 30.609375 66.40625 
Q 23.96875 66.40625 20.09375 61.84375 
Q 16.21875 57.28125 16.21875 49.421875 
Q 16.21875 41.5 20.09375 36.953125 
Q 23.96875 32.421875 30.609375 32.421875 
z
" id="DejaVuSans-57"/>
      </defs>
      <g transform="translate(27.240625 65.617106)scale(0.1 -0.1)">
       <use xlink:href="#DejaVuSans-57"/>
       <use x="63.623047" xlink:href="#DejaVuSans-48"/>
      </g>
     </g>
    </g>
    <g id="ytick_8">
     <g id="line2d_29">
      <path clip-path="url(#pb4b4afcbd6)" d="M 46.965625 27.745055 
L 404.085625 27.745055 
" style="fill:none;stroke:#b0b0b0;stroke-dasharray:2.96,1.28;stroke-dashoffset:0;stroke-width:0.8;"/>
     </g>
     <g id="line2d_30">
      <g>
       <use style="stroke:#000000;stroke-width:0.8;" x="46.965625" xlink:href="#m3a5c8d52be" y="27.745055"/>
      </g>
     </g>
     <g id="text_16">
      <!-- 100 -->
      <g transform="translate(20.878125 31.544274)scale(0.1 -0.1)">
       <use xlink:href="#DejaVuSans-49"/>
       <use x="63.623047" xlink:href="#DejaVuSans-48"/>
       <use x="127.246094" xlink:href="#DejaVuSans-48"/>
      </g>
     </g>
    </g>
    <g id="text_17">
     <!-- Price $ -->
     <defs>
      <path d="M 19.671875 64.796875 
L 19.671875 37.40625 
L 32.078125 37.40625 
Q 38.96875 37.40625 42.71875 40.96875 
Q 46.484375 44.53125 46.484375 51.125 
Q 46.484375 57.671875 42.71875 61.234375 
Q 38.96875 64.796875 32.078125 64.796875 
z
M 9.8125 72.90625 
L 32.078125 72.90625 
Q 44.34375 72.90625 50.609375 67.359375 
Q 56.890625 61.8125 56.890625 51.125 
Q 56.890625 40.328125 50.609375 34.8125 
Q 44.34375 29.296875 32.078125 29.296875 
L 19.671875 29.296875 
L 19.671875 0 
L 9.8125 0 
z
" id="DejaVuSans-80"/>
      <path d="M 41.109375 46.296875 
Q 39.59375 47.171875 37.8125 47.578125 
Q 36.03125 48 33.890625 48 
Q 26.265625 48 22.1875 43.046875 
Q 18.109375 38.09375 18.109375 28.8125 
L 18.109375 0 
L 9.078125 0 
L 9.078125 54.6875 
L 18.109375 54.6875 
L 18.109375 46.1875 
Q 20.953125 51.171875 25.484375 53.578125 
Q 30.03125 56 36.53125 56 
Q 37.453125 56 38.578125 55.875 
Q 39.703125 55.765625 41.0625 55.515625 
z
" id="DejaVuSans-114"/>
      <path d="M 9.421875 54.6875 
L 18.40625 54.6875 
L 18.40625 0 
L 9.421875 0 
z
M 9.421875 75.984375 
L 18.40625 75.984375 
L 18.40625 64.59375 
L 9.421875 64.59375 
z
" id="DejaVuSans-105"/>
      <path d="M 48.78125 52.59375 
L 48.78125 44.1875 
Q 44.96875 46.296875 41.140625 47.34375 
Q 37.3125 48.390625 33.40625 48.390625 
Q 24.65625 48.390625 19.8125 42.84375 
Q 14.984375 37.3125 14.984375 27.296875 
Q 14.984375 17.28125 19.8125 11.734375 
Q 24.65625 6.203125 33.40625 6.203125 
Q 37.3125 6.203125 41.140625 7.25 
Q 44.96875 8.296875 48.78125 10.40625 
L 48.78125 2.09375 
Q 45.015625 0.34375 40.984375 -0.53125 
Q 36.96875 -1.421875 32.421875 -1.421875 
Q 20.0625 -1.421875 12.78125 6.34375 
Q 5.515625 14.109375 5.515625 27.296875 
Q 5.515625 40.671875 12.859375 48.328125 
Q 20.21875 56 33.015625 56 
Q 37.15625 56 41.109375 55.140625 
Q 45.0625 54.296875 48.78125 52.59375 
z
" id="DejaVuSans-99"/>
      <path d="M 56.203125 29.59375 
L 56.203125 25.203125 
L 14.890625 25.203125 
Q 15.484375 15.921875 20.484375 11.0625 
Q 25.484375 6.203125 34.421875 6.203125 
Q 39.59375 6.203125 44.453125 7.46875 
Q 49.3125 8.734375 54.109375 11.28125 
L 54.109375 2.78125 
Q 49.265625 0.734375 44.1875 -0.34375 
Q 39.109375 -1.421875 33.890625 -1.421875 
Q 20.796875 -1.421875 13.15625 6.1875 
Q 5.515625 13.8125 5.515625 26.8125 
Q 5.515625 40.234375 12.765625 48.109375 
Q 20.015625 56 32.328125 56 
Q 43.359375 56 49.78125 48.890625 
Q 56.203125 41.796875 56.203125 29.59375 
z
M 47.21875 32.234375 
Q 47.125 39.59375 43.09375 43.984375 
Q 39.0625 48.390625 32.421875 48.390625 
Q 24.90625 48.390625 20.390625 44.140625 
Q 15.875 39.890625 15.1875 32.171875 
z
" id="DejaVuSans-101"/>
      <path id="DejaVuSans-32"/>
      <path d="M 33.796875 -14.703125 
L 28.90625 -14.703125 
L 28.859375 0 
Q 23.734375 0.09375 18.609375 1.1875 
Q 13.484375 2.296875 8.296875 4.5 
L 8.296875 13.28125 
Q 13.28125 10.15625 18.375 8.5625 
Q 23.484375 6.984375 28.90625 6.9375 
L 28.90625 29.203125 
Q 18.109375 30.953125 13.203125 35.15625 
Q 8.296875 39.359375 8.296875 46.6875 
Q 8.296875 54.640625 13.625 59.21875 
Q 18.953125 63.8125 28.90625 64.5 
L 28.90625 75.984375 
L 33.796875 75.984375 
L 33.796875 64.65625 
Q 38.328125 64.453125 42.578125 63.6875 
Q 46.828125 62.9375 50.875 61.625 
L 50.875 53.078125 
Q 46.828125 55.125 42.546875 56.25 
Q 38.28125 57.375 33.796875 57.5625 
L 33.796875 36.71875 
Q 44.875 35.015625 50.09375 30.609375 
Q 55.328125 26.21875 55.328125 18.609375 
Q 55.328125 10.359375 49.78125 5.59375 
Q 44.234375 0.828125 33.796875 0.09375 
z
M 28.90625 37.59375 
L 28.90625 57.625 
Q 23.25 56.984375 20.265625 54.390625 
Q 17.28125 51.8125 17.28125 47.515625 
Q 17.28125 43.3125 20.03125 40.96875 
Q 22.796875 38.625 28.90625 37.59375 
z
M 33.796875 28.21875 
L 33.796875 7.078125 
Q 39.984375 7.90625 43.140625 10.59375 
Q 46.296875 13.28125 46.296875 17.671875 
Q 46.296875 21.96875 43.28125 24.5 
Q 40.28125 27.046875 33.796875 28.21875 
z
" id="DejaVuSans-36"/>
     </defs>
     <g transform="translate(14.798438 172.342094)rotate(-90)scale(0.1 -0.1)">
      <use xlink:href="#DejaVuSans-80"/>
      <use x="58.552734" xlink:href="#DejaVuSans-114"/>
      <use x="99.666016" xlink:href="#DejaVuSans-105"/>
      <use x="127.449219" xlink:href="#DejaVuSans-99"/>
      <use x="182.429688" xlink:href="#DejaVuSans-101"/>
      <use x="243.953125" xlink:href="#DejaVuSans-32"/>
      <use x="275.740234" xlink:href="#DejaVuSans-36"/>
     </g>
    </g>
   </g>
   <g id="line2d_31">
    <path clip-path="url(#pb4b4afcbd6)" d="M 63.198352 274.432762 
L 63.443005 276.117959 
L 63.687658 276.146288 
L 63.932311 274.71582 
L 64.176964 276.334125 
L 64.421617 272.009948 
L 64.66627 272.380884 
L 64.910923 268.791645 
L 65.644882 266.889613 
L 65.889535 268.309273 
L 66.134188 268.257191 
L 66.623494 265.447018 
L 67.1128 267.991783 
L 67.357453 267.460435 
L 67.602106 268.464804 
L 67.846759 268.814762 
L 68.091412 267.888561 
L 68.336066 268.505682 
L 68.580719 268.712548 
L 68.825372 268.14515 
L 69.070025 269.507562 
L 69.314678 269.23225 
L 69.803984 271.100449 
L 70.048637 267.613834 
L 70.537943 270.516772 
L 70.782596 270.761078 
L 71.027249 270.832702 
L 71.271902 269.686671 
L 71.516555 267.324056 
L 72.005861 270.660495 
L 72.250514 270.541085 
L 72.73982 269.130965 
L 72.984473 270.731554 
L 73.473779 274.684125 
L 73.718432 273.314883 
L 73.963085 274.416683 
L 74.207738 274.00806 
L 74.452391 273.862479 
L 74.697044 274.661178 
L 75.18635 272.116159 
L 75.431003 272.935758 
L 75.675656 275.035929 
L 75.920309 275.544771 
L 76.164962 275.233254 
L 76.409615 275.222427 
L 76.654268 271.857445 
L 76.898921 270.247771 
L 77.143574 271.535283 
L 77.388227 270.467452 
L 77.63288 273.342945 
L 77.877533 273.330169 
L 78.366839 273.894453 
L 78.611492 272.357501 
L 78.856145 269.945157 
L 79.100798 272.474754 
L 79.345451 268.876241 
L 79.590104 270.927222 
L 80.07941 266.374726 
L 80.324063 268.669278 
L 80.568716 268.905584 
L 80.813369 267.704169 
L 81.058022 267.722093 
L 81.302675 268.175558 
L 81.547328 270.003549 
L 81.791981 269.972816 
L 82.036634 271.586195 
L 82.52594 268.680476 
L 82.770593 268.982543 
L 83.015246 267.484201 
L 83.259899 267.427798 
L 83.504552 267.87507 
L 83.749205 267.195794 
L 83.993858 266.090485 
L 84.238511 267.728709 
L 84.483164 267.15786 
L 84.727817 267.359299 
L 84.97247 266.633472 
L 85.461776 266.913236 
L 85.706429 266.774511 
L 85.951082 263.058668 
L 86.195735 262.64337 
L 86.440388 263.921881 
L 86.685041 263.366136 
L 86.929694 263.158139 
L 87.174347 261.568871 
L 87.419 261.59889 
L 87.663653 261.977014 
L 87.908306 263.398812 
L 88.397612 263.325342 
L 88.642265 263.676854 
L 88.886918 264.429203 
L 89.131571 263.330392 
L 89.376224 258.110553 
L 89.620877 259.696532 
L 89.86553 259.788153 
L 90.110183 259.541326 
L 90.354836 260.71759 
L 90.844143 257.767789 
L 91.088796 257.827163 
L 91.578102 258.524232 
L 91.822755 257.787558 
L 92.067408 255.40793 
L 92.312061 254.308216 
L 92.556714 254.705349 
L 92.801367 255.961491 
L 93.04602 255.337352 
L 93.290673 256.26001 
L 93.535326 255.482667 
L 93.779979 257.139932 
L 94.269285 255.653613 
L 94.513938 253.491099 
L 94.758591 255.042342 
L 95.003244 253.264184 
L 95.49255 254.759498 
L 95.737203 251.650136 
L 95.981856 253.400258 
L 96.226509 253.984377 
L 96.471162 253.293013 
L 96.715815 253.181011 
L 96.960468 253.870789 
L 97.205121 252.712429 
L 97.694427 257.407088 
L 97.93908 251.740041 
L 98.183733 253.006855 
L 98.428386 252.916351 
L 98.673039 251.156299 
L 98.917692 250.746194 
L 99.162345 250.823401 
L 99.406998 250.648477 
L 99.651651 249.11326 
L 99.896304 248.450258 
L 100.140957 248.271448 
L 100.38561 248.303071 
L 100.630263 247.495508 
L 100.874916 247.154525 
L 101.119569 248.442017 
L 101.364222 247.855936 
L 101.608875 248.869448 
L 101.853528 250.720381 
L 102.098181 250.494337 
L 102.342834 248.790019 
L 102.587487 251.319655 
L 102.83214 250.878329 
L 103.076793 250.683454 
L 103.321446 248.882628 
L 103.566099 249.284233 
L 103.810752 247.931284 
L 104.300058 249.807067 
L 104.544711 251.589189 
L 104.789364 250.782692 
L 105.034017 251.918982 
L 105.27867 249.158285 
L 105.523323 248.459668 
L 105.767976 246.474781 
L 106.012629 246.879713 
L 106.257282 246.559826 
L 106.501935 247.936457 
L 106.746588 246.620642 
L 106.991241 251.614665 
L 107.235894 252.085587 
L 107.480547 251.684229 
L 108.214506 245.537201 
L 108.459159 245.068372 
L 108.703812 246.781502 
L 109.927077 242.131361 
L 110.17173 242.167924 
L 110.416383 242.378656 
L 110.661036 242.347137 
L 111.150342 242.639391 
L 111.394995 243.901915 
L 111.639648 244.061085 
L 111.884301 243.35185 
L 112.128954 243.490601 
L 112.373607 243.234948 
L 112.862913 243.754754 
L 113.107566 245.465675 
L 113.35222 245.829326 
L 113.596873 245.990004 
L 113.841526 244.417965 
L 114.086179 245.187939 
L 114.330832 244.241442 
L 114.575485 245.760893 
L 114.820138 245.451091 
L 115.064791 242.972445 
L 115.309444 245.688469 
L 115.554097 246.723038 
L 116.043403 243.402918 
L 116.288056 247.958579 
L 116.532709 249.244239 
L 116.777362 247.453694 
L 117.022015 247.12979 
L 117.511321 244.984966 
L 117.755974 246.405542 
L 118.000627 250.04221 
L 118.24528 249.283648 
L 118.489933 251.418568 
L 118.734586 248.709173 
L 118.979239 248.798403 
L 119.468545 249.525887 
L 119.713198 248.390208 
L 119.957851 248.175225 
L 120.202504 247.343798 
L 120.447157 245.643146 
L 120.69181 246.761239 
L 120.936463 244.75098 
L 121.181116 243.743732 
L 121.425769 241.53544 
L 121.915075 239.68326 
L 122.159728 239.573182 
L 122.404381 239.192712 
L 122.893687 241.382482 
L 123.13834 241.025005 
L 123.382993 234.889753 
L 123.627646 235.523524 
L 123.872299 234.77419 
L 124.116952 235.564519 
L 124.361605 237.115099 
L 124.606258 236.258742 
L 125.095564 232.617447 
L 125.340217 232.529842 
L 126.074176 233.206037 
L 126.318829 233.177689 
L 126.563482 232.566366 
L 126.808135 232.830623 
L 127.052788 232.863689 
L 127.542094 236.577213 
L 127.786747 236.173814 
L 128.0314 236.715561 
L 128.276053 235.968151 
L 128.520706 237.183584 
L 129.010012 234.928513 
L 129.254665 234.321283 
L 129.499318 237.833653 
L 129.988624 236.428141 
L 130.233277 237.7748 
L 130.722583 233.94444 
L 130.967236 233.584584 
L 131.211889 234.536851 
L 131.701195 230.728132 
L 132.190501 232.164254 
L 132.92446 229.348668 
L 133.169113 229.190342 
L 133.413766 229.273398 
L 133.658419 230.005938 
L 133.903072 230.308617 
L 134.147725 230.791288 
L 134.392378 230.721919 
L 134.637031 230.416069 
L 134.881684 231.327004 
L 135.126337 231.148909 
L 135.37099 230.431836 
L 135.615643 230.932405 
L 135.860297 231.153783 
L 136.10495 231.971913 
L 136.349603 232.21631 
L 136.594256 234.144371 
L 136.838909 234.049487 
L 137.083562 230.963067 
L 137.572868 230.06821 
L 137.817521 231.052855 
L 138.062174 229.556385 
L 138.306827 229.970116 
L 138.55148 229.381968 
L 138.796133 228.219553 
L 139.040786 231.433092 
L 139.285439 233.127986 
L 139.774745 230.721322 
L 140.264051 225.933534 
L 140.508704 225.879398 
L 140.753357 224.499609 
L 141.242663 224.96407 
L 141.487316 225.532319 
L 141.731969 224.387867 
L 141.976622 225.900702 
L 142.221275 224.930965 
L 142.465928 225.712585 
L 142.710581 225.484994 
L 143.199887 222.891176 
L 143.689193 223.358042 
L 144.178499 224.830921 
L 144.423152 223.219499 
L 144.667805 222.719241 
L 144.912458 223.060042 
L 145.157111 222.437138 
L 145.401764 223.552176 
L 145.646417 221.461813 
L 145.89107 222.114573 
L 146.135723 222.164718 
L 146.380376 223.351088 
L 146.625029 222.472037 
L 146.869682 219.389282 
L 147.114335 219.487779 
L 147.358988 220.216537 
L 147.848294 223.379813 
L 148.092947 224.639451 
L 148.3376 223.372755 
L 148.582253 223.043132 
L 148.826906 221.262466 
L 149.071559 223.555491 
L 149.560865 220.047969 
L 149.805518 219.819572 
L 150.050171 219.271106 
L 150.294824 219.033247 
L 150.539477 218.526023 
L 150.78413 218.375093 
L 151.028783 221.480893 
L 151.273436 220.452511 
L 151.762742 222.118446 
L 152.007395 220.356536 
L 152.252048 221.180554 
L 152.496701 221.081173 
L 152.741354 223.964959 
L 152.986007 220.028615 
L 153.23066 219.605018 
L 153.475313 220.254113 
L 153.719966 219.865519 
L 153.964619 218.451793 
L 154.209272 216.074621 
L 154.453925 217.9666 
L 154.698578 221.525814 
L 154.943231 222.299089 
L 155.187884 221.795478 
L 155.432537 223.577223 
L 155.67719 222.244719 
L 156.411149 228.279771 
L 156.655802 228.322625 
L 156.900455 227.052017 
L 157.145108 224.848455 
L 157.389761 223.680646 
L 157.634414 221.039048 
L 157.879067 220.401183 
L 158.12372 219.041735 
L 158.613027 218.29205 
L 158.85768 218.332512 
L 159.102333 217.397987 
L 159.346986 217.323926 
L 159.591639 216.268235 
L 159.836292 216.430811 
L 160.080945 215.70694 
L 160.325598 215.51148 
L 160.570251 214.929427 
L 160.814904 216.259839 
L 161.059557 213.688233 
L 161.30421 214.368444 
L 161.548863 212.264381 
L 161.793516 211.515411 
L 162.038169 211.709091 
L 162.282822 212.232731 
L 162.527475 209.913516 
L 162.772128 214.186073 
L 163.016781 216.3078 
L 163.261434 213.4579 
L 163.506087 213.097537 
L 163.75074 212.533538 
L 163.995393 208.164343 
L 164.240046 207.777985 
L 164.484699 209.72631 
L 164.729352 209.036181 
L 164.974005 209.478923 
L 165.218658 210.692277 
L 165.952617 204.482639 
L 166.19727 205.110677 
L 166.441923 205.351824 
L 166.686576 209.653067 
L 166.931229 209.956591 
L 167.420535 206.977376 
L 167.665188 212.278289 
L 167.909841 214.288508 
L 168.399147 211.746355 
L 168.6438 214.166472 
L 168.888453 211.834974 
L 169.377759 209.417717 
L 169.622412 209.384599 
L 169.867065 201.821543 
L 170.111718 209.876876 
L 170.356371 212.516355 
L 170.601024 210.565782 
L 170.845677 212.842469 
L 171.09033 213.52346 
L 171.334983 211.929767 
L 171.579636 212.448871 
L 171.824289 213.325466 
L 172.068942 212.650336 
L 172.313595 210.508176 
L 172.558248 211.797138 
L 172.802901 207.881629 
L 173.53686 214.721827 
L 173.781513 214.340304 
L 174.026166 212.150027 
L 174.270819 212.117402 
L 174.515472 212.522503 
L 174.760125 210.739614 
L 175.004778 210.363329 
L 175.249431 209.649974 
L 175.494084 209.71339 
L 176.228043 207.857285 
L 176.472696 207.830444 
L 176.717349 208.086591 
L 176.962002 207.184976 
L 177.451308 204.537255 
L 177.695961 204.553268 
L 177.940614 204.203551 
L 178.185267 204.121574 
L 178.42992 203.456401 
L 178.674573 204.073521 
L 178.919226 203.716577 
L 179.163879 204.66631 
L 179.653185 204.563446 
L 179.897838 204.1451 
L 180.142491 205.148059 
L 180.387144 204.990604 
L 180.876451 205.079586 
L 181.121104 205.06564 
L 181.365757 202.247311 
L 181.61041 202.484572 
L 181.855063 201.085702 
L 182.099716 201.143061 
L 182.344369 201.410022 
L 182.589022 199.930227 
L 182.833675 201.282956 
L 183.078328 200.0529 
L 183.567634 201.852257 
L 183.812287 200.529216 
L 184.05694 203.758755 
L 184.301593 201.309666 
L 184.546246 200.640438 
L 184.790899 200.891788 
L 185.035552 203.48302 
L 185.280205 204.404301 
L 185.524858 208.170413 
L 185.769511 206.617455 
L 186.014164 208.38307 
L 186.258817 206.681495 
L 186.50347 210.393913 
L 186.748123 210.115696 
L 186.992776 209.550463 
L 187.237429 210.944563 
L 187.482082 210.247013 
L 187.726735 211.850156 
L 187.971388 209.615738 
L 188.216041 209.024457 
L 188.460694 208.748956 
L 188.705347 207.150974 
L 188.95 206.749447 
L 189.194653 205.839552 
L 189.439306 205.818769 
L 190.173265 203.69656 
L 190.417918 204.040663 
L 190.662571 205.917734 
L 190.907224 205.828803 
L 191.641183 203.621161 
L 191.885836 204.497222 
L 192.130489 203.096142 
L 192.375142 203.234763 
L 192.619795 202.320657 
L 192.864448 202.44099 
L 193.353754 204.094396 
L 193.598407 203.904434 
L 194.087713 205.834769 
L 194.332366 204.647827 
L 194.821672 200.834013 
L 195.310978 202.467662 
L 195.555631 202.178618 
L 195.800284 201.363477 
L 196.044937 203.750631 
L 196.28959 203.025993 
L 196.534243 203.45345 
L 196.778896 205.079379 
L 197.023549 207.804215 
L 197.268202 208.345727 
L 197.512855 208.018769 
L 197.757508 208.823356 
L 198.002161 211.036171 
L 198.246814 207.844131 
L 198.491467 210.984362 
L 198.73612 223.907041 
L 198.980773 224.835185 
L 199.225426 222.638395 
L 199.470079 222.018584 
L 199.959385 218.240098 
L 200.204038 216.374518 
L 200.448691 208.253014 
L 200.693344 208.470493 
L 201.18265 205.391117 
L 201.427303 204.432402 
L 201.671956 202.619879 
L 201.916609 203.564477 
L 202.161262 206.346283 
L 202.405915 198.062476 
L 202.895221 196.455148 
L 203.139875 194.052487 
L 203.384528 194.826321 
L 203.629181 194.792462 
L 203.873834 192.518661 
L 204.36314 193.397049 
L 204.607793 193.42129 
L 204.852446 192.178354 
L 205.097099 192.376596 
L 205.341752 191.238967 
L 205.586405 191.106091 
L 205.831058 190.270933 
L 206.320364 187.720618 
L 206.565017 189.016 
L 206.80967 182.8217 
L 207.054323 182.092045 
L 207.298976 183.000796 
L 207.543629 181.967747 
L 207.788282 178.150645 
L 208.032935 178.893934 
L 208.277588 178.38402 
L 208.522241 179.784463 
L 208.766894 180.320204 
L 209.011547 183.125964 
L 209.2562 181.698928 
L 209.500853 186.361937 
L 209.745506 186.333082 
L 209.990159 188.287671 
L 210.479465 181.724325 
L 210.724118 182.894513 
L 210.968771 180.986157 
L 211.213424 180.863081 
L 211.458077 180.500119 
L 211.70273 180.997101 
L 211.947383 182.054572 
L 212.436689 185.072417 
L 212.681342 185.133727 
L 213.170648 190.756816 
L 213.659954 184.606655 
L 213.904607 185.048423 
L 214.14926 186.774486 
L 214.393913 187.156971 
L 214.638566 187.764499 
L 214.883219 188.732675 
L 215.372525 184.004196 
L 215.617178 182.942618 
L 215.861831 180.963047 
L 216.106484 180.231988 
L 216.351137 180.449285 
L 216.59579 180.978189 
L 216.840443 183.52597 
L 217.085096 181.36924 
L 217.329749 185.533616 
L 217.574402 185.759335 
L 217.819055 182.038975 
L 218.063708 181.702853 
L 218.308361 179.335936 
L 218.553014 182.448443 
L 218.797667 182.569907 
L 219.04232 177.133363 
L 219.286973 176.698289 
L 219.531626 171.611436 
L 219.776279 170.264505 
L 220.020932 169.542921 
L 220.265585 170.519196 
L 220.510238 169.830835 
L 220.754891 168.352756 
L 220.999544 169.245819 
L 221.244197 166.913996 
L 221.733503 165.201438 
L 221.978156 167.220002 
L 222.222809 163.346086 
L 222.467462 167.897237 
L 222.712115 168.840341 
L 222.956768 168.574797 
L 223.201421 170.882704 
L 223.446074 168.257365 
L 223.690727 172.756993 
L 223.93538 172.053788 
L 224.180033 172.664345 
L 224.424686 172.838866 
L 224.669339 168.480459 
L 224.913992 170.159639 
L 225.403298 167.91685 
L 225.647952 165.10515 
L 225.892605 167.594285 
L 226.137258 168.014385 
L 226.381911 176.825615 
L 226.626564 177.308182 
L 227.11587 169.583279 
L 227.605176 174.875302 
L 227.849829 173.777655 
L 228.094482 173.892945 
L 228.339135 173.065495 
L 228.583788 173.210563 
L 228.828441 170.849949 
L 229.073094 170.929574 
L 229.5624 173.816687 
L 229.807053 167.833028 
L 230.051706 168.618833 
L 230.296359 172.335606 
L 230.541012 168.867337 
L 230.785665 168.867038 
L 231.030318 167.498765 
L 231.274971 184.222546 
L 231.519624 181.510434 
L 231.764277 177.327302 
L 232.00893 180.10708 
L 232.253583 180.599721 
L 232.498236 182.852426 
L 232.742889 178.731917 
L 232.987542 179.016568 
L 233.232195 183.429657 
L 233.476848 184.200709 
L 233.721501 182.715768 
L 233.966154 180.387714 
L 234.45546 183.277869 
L 234.700113 180.979476 
L 234.944766 177.552306 
L 235.189419 177.891561 
L 235.434072 177.630683 
L 235.678725 177.57036 
L 235.923378 177.77202 
L 236.412684 178.914211 
L 236.657337 181.944689 
L 236.90199 176.726897 
L 237.146643 177.063968 
L 237.391296 177.095929 
L 237.635949 177.874105 
L 237.880602 179.735162 
L 238.125255 180.495011 
L 238.369908 183.579794 
L 238.614561 184.232268 
L 238.859214 187.514006 
L 239.103867 186.966644 
L 239.34852 182.617193 
L 239.837826 187.127349 
L 240.082479 187.017206 
L 240.327132 186.584666 
L 240.571785 185.759478 
L 240.816438 182.658721 
L 241.061091 182.397154 
L 241.305744 178.588084 
L 241.79505 183.427733 
L 242.039703 183.787745 
L 242.529009 191.946071 
L 242.773662 191.714087 
L 243.018315 190.09059 
L 243.262968 190.28267 
L 243.507621 192.858214 
L 243.752274 193.921249 
L 244.24158 202.730918 
L 244.486233 199.788188 
L 244.730886 199.145904 
L 244.975539 197.944573 
L 245.220192 199.514182 
L 245.464845 199.840088 
L 245.709498 199.483404 
L 245.954151 195.719579 
L 246.198804 195.819857 
L 246.443457 200.970607 
L 246.68811 195.095362 
L 246.932763 200.21844 
L 247.177416 200.365158 
L 247.422069 196.738421 
L 247.666722 197.985087 
L 247.911375 196.665555 
L 248.156029 197.37496 
L 248.400682 196.977073 
L 248.645335 197.971167 
L 248.889988 194.259775 
L 249.134641 196.625847 
L 249.379294 196.552735 
L 249.623947 189.698421 
L 249.8686 195.592877 
L 250.113253 194.102593 
L 250.357906 195.100444 
L 250.602559 195.22092 
L 250.847212 194.347939 
L 251.581171 205.680382 
L 252.31513 217.564787 
L 253.049089 204.880929 
L 253.293742 205.232024 
L 253.538395 209.87516 
L 253.783048 206.116755 
L 254.027701 205.259202 
L 254.272354 209.144621 
L 254.517007 201.615022 
L 254.76166 204.848343 
L 255.006313 206.223844 
L 255.250966 205.978498 
L 255.984925 202.291334 
L 256.718884 206.375865 
L 256.963537 209.413805 
L 257.20819 209.339587 
L 257.452843 209.117625 
L 257.697496 206.737697 
L 257.942149 207.750742 
L 258.186802 206.073564 
L 258.431455 199.23603 
L 258.676108 202.870046 
L 258.920761 202.468507 
L 259.165414 196.783354 
L 259.410067 196.102727 
L 259.65472 193.593172 
L 259.899373 192.657672 
L 260.144026 194.454482 
L 260.388679 193.058198 
L 260.633332 194.229893 
L 260.877985 188.294118 
L 261.122638 188.889389 
L 261.367291 188.999285 
L 261.611944 188.530144 
L 262.10125 190.597749 
L 262.345903 168.255702 
L 262.590556 167.139767 
L 263.079862 168.914558 
L 263.324515 168.785152 
L 263.569168 175.412941 
L 264.058474 173.505807 
L 264.303127 173.158935 
L 264.54778 173.934784 
L 264.792433 172.342014 
L 265.037086 171.67363 
L 265.526392 173.685137 
L 265.771045 170.789315 
L 266.015698 174.119521 
L 266.260351 175.802926 
L 266.505004 173.841863 
L 266.749657 172.803629 
L 266.99431 170.224784 
L 267.238963 170.307501 
L 267.483616 169.570009 
L 267.728269 171.855807 
L 267.972922 170.67925 
L 268.217575 172.19883 
L 268.462228 171.412661 
L 268.706881 169.310638 
L 268.951534 168.970214 
L 269.196187 171.288533 
L 269.44084 170.865911 
L 269.685493 167.100695 
L 269.930146 168.789416 
L 270.419452 174.147298 
L 270.664106 173.062245 
L 270.908759 175.732179 
L 271.153412 175.663278 
L 271.398065 170.767869 
L 271.642718 170.043543 
L 272.132024 179.995637 
L 272.376677 177.193828 
L 272.62133 177.698869 
L 272.865983 174.593121 
L 273.110636 174.006961 
L 273.355289 175.648538 
L 273.599942 172.962669 
L 273.844595 175.783832 
L 274.333901 182.855143 
L 274.823207 185.637754 
L 275.312513 195.227757 
L 275.557166 192.431979 
L 275.801819 191.709096 
L 276.046472 197.371905 
L 276.291125 196.554139 
L 276.535778 205.02753 
L 277.51439 194.957521 
L 277.759043 196.453614 
L 278.003696 194.499714 
L 278.248349 194.911119 
L 278.493002 192.897026 
L 278.737655 187.369328 
L 278.982308 187.975881 
L 279.226961 194.871683 
L 279.471614 196.901543 
L 279.716267 193.173878 
L 279.96092 197.611922 
L 280.205573 194.807241 
L 280.450226 195.188894 
L 280.694879 194.108728 
L 280.939532 196.39979 
L 281.184185 193.658148 
L 281.673491 184.741143 
L 282.162797 188.26976 
L 282.40745 185.904182 
L 282.652103 189.496761 
L 282.896756 189.424988 
L 283.141409 187.182355 
L 283.386062 186.067447 
L 283.630715 185.990123 
L 283.875368 186.931135 
L 284.120021 183.248442 
L 284.364674 182.41153 
L 284.609327 180.988393 
L 284.85398 180.797391 
L 285.098633 178.962407 
L 285.343286 182.020765 
L 285.587939 180.877093 
L 286.077245 176.489168 
L 286.321898 178.405401 
L 286.566551 178.257317 
L 287.30051 173.135929 
L 287.545163 173.780969 
L 287.789816 173.834676 
L 288.034469 174.560015 
L 288.279122 174.67398 
L 288.523775 174.594875 
L 288.768428 172.200377 
L 289.013081 168.342111 
L 289.257734 171.872223 
L 289.502387 170.372165 
L 289.74704 170.856448 
L 289.991693 170.665433 
L 290.236346 169.018137 
L 290.480999 172.88918 
L 290.725652 169.812092 
L 290.970305 169.902205 
L 291.214958 168.502048 
L 291.459611 165.91894 
L 291.704264 166.517447 
L 291.948917 166.761142 
L 292.19357 166.793259 
L 292.438223 168.484059 
L 292.682876 166.17159 
L 292.92753 166.948102 
L 293.172183 167.144264 
L 293.416836 166.282201 
L 293.906142 163.704395 
L 294.150795 167.318863 
L 294.395448 173.262788 
L 294.640101 170.154466 
L 295.129407 175.115643 
L 295.618713 172.607519 
L 295.863366 173.42743 
L 296.108019 171.054534 
L 296.352672 170.723507 
L 296.597325 172.691627 
L 296.841978 172.573179 
L 297.086631 169.214845 
L 297.331284 171.650949 
L 297.575937 169.533732 
L 297.82059 172.626872 
L 298.065243 167.617889 
L 298.309896 166.8201 
L 298.554549 162.485115 
L 299.043855 160.735838 
L 299.288508 159.671426 
L 299.533161 161.079369 
L 299.777814 159.590255 
L 300.022467 160.634781 
L 300.26712 161.121963 
L 300.511773 158.528443 
L 300.756426 157.559733 
L 301.001079 155.890276 
L 301.245732 156.172405 
L 301.735038 157.634665 
L 301.979691 156.547884 
L 302.224344 156.995942 
L 302.468997 156.332498 
L 302.71365 157.759548 
L 302.958303 155.529172 
L 303.202956 155.795561 
L 303.447609 155.683637 
L 303.692262 151.561997 
L 303.936915 161.970222 
L 304.181568 166.119573 
L 304.915527 154.043854 
L 305.649486 159.453636 
L 305.894139 156.731607 
L 306.138792 151.528619 
L 306.383445 151.040138 
L 306.628098 147.898503 
L 306.872751 147.462064 
L 307.117404 146.225068 
L 307.362057 146.36248 
L 307.60671 145.136298 
L 307.851363 146.027736 
L 308.096016 144.161986 
L 308.340669 146.009799 
L 308.829975 141.981067 
L 309.074628 121.793268 
L 309.563934 129.335084 
L 309.808587 130.009928 
L 310.05324 129.444525 
L 310.297893 132.855682 
L 310.542546 132.836003 
L 311.031852 128.395685 
L 311.276505 128.498835 
L 311.521158 127.669578 
L 311.765811 128.864878 
L 312.010464 128.698532 
L 312.255117 128.95672 
L 312.49977 127.370916 
L 312.744423 129.084722 
L 312.989076 129.357986 
L 313.233729 128.220371 
L 313.478382 127.733891 
L 313.723035 128.502864 
L 313.967688 128.366388 
L 314.456994 129.191303 
L 314.701647 129.326506 
L 314.9463 128.373511 
L 315.190953 130.682484 
L 315.435607 130.170112 
L 315.68026 130.293539 
L 315.924913 129.675392 
L 316.169566 129.388765 
L 316.414219 130.172296 
L 316.658872 132.086111 
L 316.903525 139.673056 
L 317.148178 135.570757 
L 317.392831 136.681207 
L 317.637484 135.942727 
L 317.882137 131.330967 
L 318.12679 130.894919 
L 318.371443 129.741914 
L 318.616096 131.137587 
L 319.105402 129.039463 
L 319.594708 134.075183 
L 319.839361 130.677154 
L 320.084014 129.523214 
L 320.328667 129.214517 
L 320.57332 127.827371 
L 320.817973 129.844102 
L 321.062626 130.11287 
L 321.307279 126.854255 
L 321.551932 125.62368 
L 321.796585 125.828888 
L 322.041238 128.464183 
L 322.285891 132.926728 
L 322.530544 133.904679 
L 322.775197 136.758414 
L 323.01985 132.932915 
L 323.264503 133.54893 
L 323.509156 130.260628 
L 323.753809 130.776093 
L 324.243115 129.323178 
L 324.487768 122.711949 
L 324.732421 124.36061 
L 324.977074 122.849829 
L 325.221727 125.915479 
L 325.46638 125.338613 
L 325.711033 125.130883 
L 325.955686 130.589082 
L 326.200339 132.327609 
L 326.444992 135.882365 
L 326.689645 137.222381 
L 326.934298 131.3305 
L 327.178951 129.194631 
L 327.423604 131.00358 
L 327.668257 131.580004 
L 327.91291 128.836439 
L 328.157563 128.123564 
L 328.402216 124.89266 
L 328.646869 124.780541 
L 329.625481 113.244307 
L 329.870134 114.73021 
L 330.35944 113.096548 
L 330.604093 113.236144 
L 330.848746 115.072103 
L 331.093399 126.906974 
L 331.338052 126.01681 
L 331.582705 126.188406 
L 332.072011 121.458549 
L 332.316664 121.501182 
L 332.561317 121.850666 
L 332.80597 123.014433 
L 333.050623 117.51004 
L 333.295276 119.471713 
L 333.539929 116.832649 
L 333.784582 118.538422 
L 334.273888 114.564541 
L 334.518541 113.956194 
L 334.763194 114.481771 
L 335.007847 113.84028 
L 335.2525 111.964132 
L 335.497153 114.425777 
L 335.741806 114.311033 
L 335.986459 117.870831 
L 336.231112 115.748428 
L 336.475765 116.381575 
L 336.720418 118.417413 
L 336.965071 114.795069 
L 337.209724 113.105543 
L 337.454377 112.812781 
L 337.69903 111.009551 
L 337.943684 112.512039 
L 338.188337 111.318664 
L 338.43299 112.956563 
L 338.677643 113.213606 
L 338.922296 114.877735 
L 339.411602 109.204111 
L 339.900908 99.605244 
L 340.145561 97.590748 
L 340.390214 101.16448 
L 340.634867 101.853231 
L 340.87952 109.506595 
L 341.124173 106.611215 
L 341.368826 108.845685 
L 341.613479 106.568063 
L 341.858132 107.688443 
L 342.102785 107.438964 
L 342.347438 108.024071 
L 342.592091 110.092118 
L 342.836744 111.13121 
L 343.081397 109.524714 
L 343.32605 109.301334 
L 343.570703 109.567138 
L 343.815356 107.426538 
L 344.060009 106.913621 
L 344.304662 104.23468 
L 344.549315 103.858473 
L 344.793968 104.19696 
L 345.038621 104.191527 
L 345.283274 103.926295 
L 345.527927 105.81765 
L 345.77258 100.931119 
L 346.017233 100.755519 
L 346.261886 102.176849 
L 346.506539 100.683174 
L 346.751192 96.85128 
L 346.995845 96.208645 
L 347.240498 97.26505 
L 347.729804 90.931219 
L 347.974457 90.725126 
L 348.21911 88.104675 
L 348.463763 88.363018 
L 348.708416 87.05703 
L 348.953069 88.788825 
L 349.197722 94.428316 
L 349.442375 92.081728 
L 349.687028 92.035352 
L 349.931681 91.663174 
L 350.176334 93.016006 
L 350.420987 92.174662 
L 350.66564 92.465396 
L 350.910293 90.907251 
L 351.399599 92.675361 
L 351.644252 92.255586 
L 352.133558 94.029779 
L 352.378211 92.0255 
L 352.622864 93.564304 
L 353.11217 99.16137 
L 353.356823 100.766957 
L 353.846129 95.730795 
L 354.090782 95.907331 
L 354.335435 91.670011 
L 354.580088 95.388928 
L 355.069394 86.271992 
L 355.314047 90.472892 
L 355.5587 91.741785 
L 355.803353 97.042815 
L 356.292659 97.154127 
L 356.537312 95.474922 
L 356.781965 96.75442 
L 357.026618 95.749772 
L 357.271271 96.06346 
L 357.515924 96.095356 
L 357.760577 92.446913 
L 358.00523 93.360551 
L 358.249883 92.061061 
L 358.739189 86.667695 
L 358.983842 98.504412 
L 359.228495 96.268382 
L 359.473148 92.405112 
L 359.717801 92.550375 
L 359.962454 95.097233 
L 360.207107 93.740891 
L 360.451761 91.326246 
L 360.696414 90.596656 
L 361.18572 85.075653 
L 361.430373 88.786043 
L 361.675026 88.634412 
L 362.408985 83.87557 
L 362.653638 79.738385 
L 362.898291 90.922666 
L 363.142944 90.768565 
L 363.387597 89.968657 
L 363.63225 93.273908 
L 364.121556 95.316973 
L 364.366209 89.301118 
L 364.610862 95.366312 
L 364.855515 95.246421 
L 365.100168 96.88198 
L 365.344821 95.491143 
L 365.834127 103.90906 
L 366.07878 100.498917 
L 366.323433 105.00646 
L 366.568086 104.134389 
L 366.812739 105.630587 
L 367.057392 104.395592 
L 367.302045 104.787006 
L 367.546698 99.105688 
L 368.036004 97.652721 
L 368.280657 92.292681 
L 368.52531 92.270793 
L 368.769963 87.249995 
L 369.014616 88.678968 
L 369.259269 87.302896 
L 369.503922 86.674116 
L 369.748575 85.313018 
L 369.993228 89.409702 
L 370.237881 91.157562 
L 370.482534 89.536456 
L 370.727187 84.418564 
L 370.97184 91.528024 
L 371.216493 92.355071 
L 371.461146 89.400915 
L 371.705799 88.429463 
L 371.950452 89.937592 
L 372.195105 89.527253 
L 372.439758 88.714608 
L 372.929064 85.185588 
L 373.173717 86.803314 
L 373.41837 92.48523 
L 373.663023 90.367194 
L 373.907676 86.633875 
L 374.152329 87.523182 
L 374.396982 85.881643 
L 374.641635 93.34004 
L 374.886288 93.551228 
L 375.130941 94.233454 
L 375.375594 91.348629 
L 375.620247 91.357623 
L 375.8649 89.776758 
L 376.354206 91.089895 
L 376.598859 90.864384 
L 376.843512 86.009125 
L 377.088165 84.507911 
L 377.332818 85.371013 
L 377.577471 88.072805 
L 378.066777 86.108974 
L 378.31143 89.313128 
L 378.556083 86.109494 
L 378.800736 84.385368 
L 379.045389 85.374809 
L 379.290042 83.102152 
L 379.779348 73.256795 
L 380.024001 71.062514 
L 380.268654 74.958227 
L 380.513307 73.261786 
L 380.75796 65.581387 
L 381.002613 69.150414 
L 381.247266 67.7269 
L 381.491919 63.869297 
L 381.736572 61.882382 
L 381.981225 61.692485 
L 382.225878 61.246038 
L 382.715184 58.596784 
L 382.959838 56.426705 
L 383.449144 54.276331 
L 383.693797 51.83686 
L 383.93845 50.557621 
L 384.183103 50.405834 
L 384.672409 45.220172 
L 384.917062 45.775462 
L 385.161715 48.038267 
L 385.406368 48.439377 
L 385.651021 41.737008 
L 385.895674 38.464953 
L 386.140327 38.636991 
L 386.38498 40.874399 
L 386.874286 34.414125 
L 387.118939 38.826862 
L 387.363592 36.554179 
L 387.608245 37.618097 
L 387.852898 37.059506 
L 387.852898 37.059506 
" style="fill:none;stroke:#1f77b4;stroke-linecap:square;stroke-width:1.5;"/>
   </g>
   <g id="line2d_32">
    <path clip-path="url(#pb4b4afcbd6)" d="M 63.198352 275.7612 
L 63.443005 275.658982 
L 63.687658 274.330141 
L 63.932311 275.624909 
L 64.176964 272.14948 
L 64.421617 272.251699 
L 64.66627 268.878488 
L 65.155576 267.822231 
L 65.400229 267.106701 
L 65.644882 267.822231 
L 65.889535 268.026667 
L 66.378841 265.334914 
L 66.868147 267.856303 
L 67.1128 267.481502 
L 67.357453 268.367396 
L 67.602106 268.571833 
L 67.846759 267.754085 
L 68.091412 268.571833 
L 68.336066 268.844415 
L 68.580719 268.29925 
L 68.825372 269.628091 
L 69.070025 269.525872 
L 69.559331 271.297659 
L 69.803984 267.754085 
L 70.537943 271.093222 
L 70.782596 271.05915 
L 71.027249 269.968819 
L 71.271902 267.754085 
L 71.761208 270.82064 
L 72.005861 270.718421 
L 72.495167 269.696236 
L 72.73982 270.752494 
L 72.984473 273.648685 
L 73.229126 274.534578 
L 73.473779 273.478321 
L 73.718432 274.602724 
L 73.963085 274.398287 
L 74.207738 274.398287 
L 74.452391 274.875307 
L 74.941697 272.524281 
L 75.18635 273.103519 
L 75.431003 275.386399 
L 75.675656 275.897492 
L 75.920309 275.454545 
L 76.164962 275.522691 
L 76.409615 272.319844 
L 76.654268 270.58213 
L 76.898921 271.468024 
L 77.143574 270.479911 
L 77.388227 273.71683 
L 77.63288 273.784976 
L 77.877533 273.614612 
L 78.122186 274.091632 
L 78.366839 272.6265 
L 78.611492 269.934746 
L 78.856145 272.762791 
L 79.100798 268.946634 
L 79.345451 271.263587 
L 79.590104 268.06074 
L 79.834757 266.459317 
L 80.07941 268.674051 
L 80.324063 269.185144 
L 80.568716 267.924449 
L 80.813369 267.958522 
L 81.058022 268.367396 
L 81.302675 270.479911 
L 81.547328 270.377693 
L 81.791981 271.979116 
L 82.281287 268.605906 
L 82.52594 268.980707 
L 82.770593 267.651866 
L 83.015246 267.549648 
L 83.259899 268.094813 
L 83.749205 266.084516 
L 83.993858 268.06074 
L 84.238511 267.583721 
L 84.483164 267.583721 
L 84.727817 266.7319 
L 84.97247 266.902264 
L 85.217123 266.765973 
L 85.461776 266.868191 
L 85.706429 262.813524 
L 85.951082 262.64316 
L 86.195735 264.278656 
L 86.440388 263.529054 
L 86.685041 263.154253 
L 86.929694 261.689121 
L 87.174347 261.995776 
L 87.419 261.893558 
L 87.663653 263.086107 
L 87.908306 263.086107 
L 88.152959 263.529054 
L 88.397612 263.733491 
L 88.642265 264.653457 
L 88.886918 263.222398 
L 89.131571 258.384056 
L 89.376224 259.815115 
L 89.620877 260.053625 
L 89.86553 259.712896 
L 90.110183 260.973591 
L 90.599489 257.975182 
L 90.844143 258.009255 
L 91.333449 258.486275 
L 91.578102 257.702599 
L 92.067408 254.261243 
L 92.312061 254.46568 
L 92.556714 255.760448 
L 92.801367 255.726375 
L 93.04602 256.714487 
L 93.290673 255.896739 
L 93.535326 257.157434 
L 93.779979 256.646342 
L 94.024632 255.760448 
L 94.269285 253.579787 
L 94.513938 255.113064 
L 94.758591 253.477568 
L 95.247897 254.601972 
L 95.49255 251.671708 
L 95.737203 253.682005 
L 95.981856 254.124952 
L 96.226509 253.579787 
L 96.471162 253.341277 
L 96.715815 254.022733 
L 96.960468 252.830184 
L 97.449774 257.804818 
L 97.694427 252.012436 
L 97.93908 253.545714 
L 98.183733 253.443495 
L 98.428386 251.637635 
L 98.917692 250.85396 
L 99.162345 250.717669 
L 99.406998 249.218464 
L 99.651651 248.741445 
L 100.140957 248.230352 
L 100.38561 247.446677 
L 100.630263 247.105949 
L 100.874916 248.230352 
L 101.119569 247.923697 
L 101.364222 248.945882 
L 101.608875 250.513232 
L 101.853528 250.37694 
L 102.098181 249.014027 
L 102.342834 251.637635 
L 102.587487 251.058397 
L 102.83214 250.990251 
L 103.076793 248.911809 
L 103.321446 248.945882 
L 103.566099 247.582968 
L 103.810752 249.184391 
L 104.055405 250.002139 
L 104.300058 252.114655 
L 104.544711 250.956179 
L 104.789364 251.944291 
L 105.034017 248.979954 
L 105.27867 248.673299 
L 105.523323 246.628929 
L 105.767976 246.867439 
L 106.012629 246.322273 
L 106.257282 248.298498 
L 106.501935 246.731147 
L 106.746588 251.910218 
L 106.991241 252.89833 
L 107.235894 251.773927 
L 107.480547 249.865848 
L 107.7252 246.833366 
L 107.969853 245.777108 
L 108.214506 245.43638 
L 108.459159 246.697075 
L 109.437771 243.426083 
L 109.682424 242.369825 
L 110.416383 242.097242 
L 110.661036 242.369825 
L 110.905689 242.267606 
L 111.150342 243.971248 
L 111.394995 244.073467 
L 111.639648 243.051282 
L 111.884301 243.766811 
L 112.128954 243.187573 
L 112.373607 243.664593 
L 112.61826 243.766811 
L 112.862913 245.777108 
L 113.35222 245.845254 
L 113.596873 245.129724 
L 113.841526 245.504525 
L 114.086179 244.209758 
L 114.330832 246.117836 
L 114.575485 245.708962 
L 114.820138 243.63052 
L 115.064791 246.254128 
L 115.309444 246.935584 
L 115.79875 243.698665 
L 116.043403 248.332571 
L 116.288056 249.933994 
L 116.532709 247.582968 
L 116.777362 247.582968 
L 117.266668 245.402307 
L 117.511321 246.799293 
L 117.755974 250.513232 
L 118.000627 249.388828 
L 118.24528 251.978364 
L 118.489933 249.150319 
L 118.734586 249.354755 
L 118.979239 249.729557 
L 119.223892 249.729557 
L 119.468545 249.0481 
L 119.713198 248.775517 
L 119.957851 247.617041 
L 120.202504 245.811181 
L 120.447157 246.867439 
L 121.181116 241.82466 
L 121.670422 239.712144 
L 121.915075 239.609926 
L 122.159728 239.337343 
L 122.649034 241.518004 
L 122.893687 240.972839 
L 123.13834 235.827841 
L 123.382993 235.827841 
L 123.627646 234.737511 
L 123.872299 235.21453 
L 124.116952 236.986317 
L 124.361605 236.407079 
L 124.606258 234.97602 
L 124.850911 232.795359 
L 125.095564 232.386485 
L 125.340217 232.659068 
L 125.829523 233.374597 
L 126.074176 233.374597 
L 126.318829 232.93165 
L 126.563482 233.17016 
L 126.808135 232.999796 
L 127.297441 236.78188 
L 127.542094 236.475225 
L 127.786747 237.49741 
L 128.0314 236.441152 
L 128.276053 237.463337 
L 128.765359 235.350821 
L 129.010012 234.941948 
L 129.254665 238.144794 
L 129.743971 236.918172 
L 129.988624 238.315158 
L 130.233277 236.815953 
L 130.47793 234.328637 
L 130.722583 233.953835 
L 130.967236 234.97602 
L 131.456542 231.12579 
L 131.701195 232.07983 
L 131.945848 232.488704 
L 132.190501 231.228009 
L 132.435154 230.648771 
L 132.679807 229.694731 
L 132.92446 229.285857 
L 133.169113 229.456222 
L 133.413766 230.410261 
L 133.658419 230.580625 
L 133.903072 231.12579 
L 134.147725 231.091717 
L 134.392378 230.88728 
L 134.637031 231.636883 
L 135.126337 230.819135 
L 135.37099 231.296154 
L 135.615643 231.432446 
L 135.860297 232.420558 
L 136.10495 232.659068 
L 136.349603 234.771583 
L 136.594256 234.601219 
L 136.838909 231.773174 
L 137.328215 230.308042 
L 137.572868 231.330227 
L 137.817521 229.626586 
L 138.062174 229.967314 
L 138.306827 229.762877 
L 138.55148 228.808838 
L 139.040786 233.102015 
L 139.285439 232.590922 
L 139.530092 231.398373 
L 140.019398 226.18523 
L 140.264051 226.321521 
L 140.508704 225.060826 
L 141.242663 225.70821 
L 141.487316 224.890462 
L 141.731969 226.560031 
L 141.976622 225.435627 
L 142.221275 226.083011 
L 142.465928 225.878574 
L 142.710581 224.038641 
L 142.955234 223.220893 
L 143.44454 223.868277 
L 143.933846 225.605992 
L 144.178499 223.868277 
L 144.423152 223.18682 
L 144.667805 223.493476 
L 144.912458 222.982383 
L 145.157111 223.595694 
L 145.401764 221.960198 
L 145.646417 222.607582 
L 145.89107 222.505364 
L 146.135723 223.90235 
L 146.380376 223.118675 
L 146.625029 220.29063 
L 146.869682 219.983974 
L 147.114335 220.563212 
L 147.603641 223.936423 
L 147.848294 225.537846 
L 148.092947 224.37937 
L 148.3376 223.90235 
L 148.582253 221.61947 
L 148.826906 223.800131 
L 149.560865 220.495067 
L 149.805518 219.949901 
L 150.050171 219.677319 
L 150.294824 218.893644 
L 150.539477 218.859571 
L 150.78413 221.61947 
L 151.028783 220.972086 
L 151.518089 222.982383 
L 151.762742 220.972086 
L 152.007395 221.755761 
L 152.252048 221.585397 
L 152.496701 224.549734 
L 152.741354 220.801722 
L 152.986007 220.120266 
L 153.23066 220.699504 
L 153.475313 220.426921 
L 153.719966 219.064008 
L 153.964619 216.474473 
L 154.209272 218.24626 
L 154.453925 222.130563 
L 154.698578 223.18682 
L 154.943231 222.300927 
L 155.187884 224.004568 
L 155.432537 223.016456 
L 155.67719 224.004568 
L 156.166496 229.149566 
L 156.411149 228.876983 
L 156.655802 227.99109 
L 157.389761 221.517252 
L 157.634414 220.938014 
L 157.879067 219.438809 
L 158.368374 218.518842 
L 158.613027 218.791425 
L 158.85768 217.871459 
L 159.102333 218.041823 
L 159.346986 217.019638 
L 159.591639 216.951492 
L 160.325598 215.281923 
L 160.570251 216.576691 
L 160.814904 214.259738 
L 161.059557 214.532321 
L 161.30421 212.828679 
L 161.548863 212.249441 
L 161.793516 212.181296 
L 162.038169 212.862752 
L 162.282822 210.273217 
L 162.527475 215.179705 
L 162.772128 217.496657 
L 163.016781 214.225666 
L 163.506087 213.373845 
L 163.75074 208.50143 
L 163.995393 207.819973 
L 164.240046 209.796197 
L 164.484699 209.387323 
L 164.974005 211.465766 
L 165.707964 206.525206 
L 166.19727 205.98004 
L 166.441923 210.579873 
L 166.686576 210.886528 
L 167.175882 207.513318 
L 167.420535 213.339772 
L 167.665188 215.213778 
L 168.154494 212.385733 
L 168.399147 214.430103 
L 168.6438 212.317587 
L 168.888453 211.363548 
L 169.133106 209.728052 
L 169.377759 210.170999 
L 169.622412 203.322359 
L 169.867065 210.579873 
L 170.111718 213.612355 
L 170.356371 211.329475 
L 170.601024 213.612355 
L 170.845677 214.361957 
L 171.09033 212.487951 
L 171.334983 212.692388 
L 171.579636 213.850864 
L 171.824289 213.169408 
L 172.068942 211.363548 
L 172.313595 212.283514 
L 172.558248 208.50143 
L 173.047554 213.067189 
L 173.292207 215.520433 
L 173.53686 215.179705 
L 173.781513 213.101262 
L 174.026166 212.726461 
L 174.270819 212.930898 
L 174.515472 211.261329 
L 175.249431 210.170999 
L 175.494084 209.489542 
L 175.738737 208.399211 
L 176.228043 208.365138 
L 176.472696 208.842158 
L 176.717349 206.968152 
L 176.962002 206.627424 
L 177.206655 205.332656 
L 177.940614 204.446763 
L 178.185267 203.799379 
L 178.42992 204.480836 
L 178.674573 204.037889 
L 178.919226 205.366729 
L 179.408532 205.128219 
L 179.653185 204.6512 
L 179.897838 205.911895 
L 180.142491 204.787491 
L 180.387144 205.639312 
L 180.631798 205.74153 
L 180.876451 205.639312 
L 181.121104 203.254214 
L 181.365757 203.186068 
L 181.61041 201.686863 
L 181.855063 201.789082 
L 182.099716 202.027592 
L 182.344369 200.56246 
L 182.589022 201.550572 
L 182.833675 200.528387 
L 183.322981 202.674976 
L 183.567634 201.346135 
L 183.812287 204.41269 
L 184.05694 202.12981 
L 184.301593 200.937261 
L 184.546246 201.107625 
L 184.790899 204.242326 
L 185.035552 205.400802 
L 185.280205 208.944377 
L 185.524858 207.138517 
L 185.769511 209.114741 
L 186.014164 207.54739 
L 186.258817 210.886528 
L 186.50347 210.920601 
L 186.748123 210.409508 
L 186.992776 211.772422 
L 187.237429 211.159111 
L 187.482082 212.862752 
L 187.726735 210.613945 
L 188.216041 209.489542 
L 188.460694 208.058483 
L 188.705347 207.445172 
L 188.95 206.422987 
L 189.194653 206.422987 
L 189.683959 205.332656 
L 189.928612 204.344544 
L 190.173265 204.855637 
L 190.417918 207.070371 
L 190.662571 206.661497 
L 191.151877 204.855637 
L 191.39653 204.310471 
L 191.641183 205.230438 
L 191.885836 203.731233 
L 192.130489 204.071962 
L 192.375142 202.947558 
L 192.619795 203.254214 
L 193.109101 204.957855 
L 193.353754 204.41269 
L 193.84306 206.320769 
L 194.332366 203.663088 
L 194.577019 201.584645 
L 194.821672 202.36832 
L 195.066325 202.674976 
L 195.310978 202.674976 
L 195.555631 202.163883 
L 195.800284 204.446763 
L 196.044937 203.799379 
L 196.28959 204.037889 
L 196.778896 208.73994 
L 197.268202 208.944377 
L 197.512855 209.625833 
L 197.757508 211.704276 
L 198.002161 208.535503 
L 198.246814 211.670203 
L 198.491467 222.846092 
L 198.73612 225.605992 
L 199.225426 222.777946 
L 199.470079 219.949901 
L 199.714732 219.677319 
L 199.959385 217.155929 
L 200.204038 209.114741 
L 200.448691 209.625833 
L 200.693344 208.331066 
L 201.427303 203.220141 
L 201.671956 203.799379 
L 201.916609 206.525206 
L 202.161262 199.267692 
L 202.650568 196.746303 
L 202.895221 194.258986 
L 203.139875 195.008588 
L 203.384528 195.042661 
L 203.629181 192.793854 
L 203.873834 193.645675 
L 204.118487 193.747893 
L 204.36314 194.088622 
L 204.607793 192.555344 
L 204.852446 192.827927 
L 205.097099 191.839815 
L 205.341752 191.499087 
L 206.075711 188.398459 
L 206.320364 189.795445 
L 206.565017 183.35568 
L 206.80967 183.049024 
L 207.054323 183.628262 
L 207.298976 182.572005 
L 207.543629 178.960284 
L 207.788282 179.675814 
L 208.032935 179.096576 
L 208.277588 180.800217 
L 208.522241 181.038727 
L 208.766894 184.173428 
L 209.011547 182.844587 
L 209.2562 187.512565 
L 209.500853 187.682929 
L 209.745506 189.693226 
L 210.234812 182.87866 
L 210.479465 183.696408 
L 210.724118 181.686111 
L 210.968771 181.822402 
L 211.213424 181.54982 
L 211.458077 181.958694 
L 211.70273 182.946806 
L 212.192036 186.285943 
L 212.436689 186.25187 
L 212.925995 192.044252 
L 213.415301 185.945215 
L 213.659954 185.842996 
L 214.14926 188.602896 
L 214.393913 188.875478 
L 214.638566 189.999882 
L 215.127872 185.16154 
L 215.861831 180.868363 
L 216.106484 180.902436 
L 216.351137 181.652038 
L 216.59579 184.68452 
L 216.840443 182.197203 
L 217.085096 186.354089 
L 217.329749 186.217798 
L 217.574402 182.980879 
L 217.819055 182.367568 
L 218.063708 180.016542 
L 218.308361 183.253461 
L 218.553014 183.560117 
L 218.797667 178.278828 
L 219.04232 177.665517 
L 219.286973 172.759029 
L 219.531626 170.953169 
L 219.776279 170.169494 
L 220.020932 171.055387 
L 220.265585 170.714659 
L 220.510238 169.079163 
L 220.754891 169.930984 
L 220.999544 167.579958 
L 221.244197 167.102939 
L 221.48885 166.012608 
L 221.733503 168.125124 
L 221.978156 164.240821 
L 222.222809 168.908799 
L 222.467462 169.76062 
L 222.712115 169.692474 
L 222.956768 172.077572 
L 223.201421 169.419891 
L 223.446074 173.917505 
L 223.93538 173.508631 
L 224.180033 173.84936 
L 224.424686 169.726547 
L 224.669339 170.953169 
L 225.158645 169.079163 
L 225.403298 166.489628 
L 225.647952 168.602143 
L 225.892605 169.351746 
L 226.137258 178.585483 
L 226.381911 178.346973 
L 226.871217 170.85095 
L 227.360523 175.859657 
L 227.605176 175.212273 
L 228.339135 174.360452 
L 228.583788 171.600553 
L 228.828441 171.873135 
L 229.317747 175.110054 
L 229.5624 169.147309 
L 229.807053 169.453964 
L 230.051706 173.13383 
L 230.296359 170.271712 
L 230.541012 170.305785 
L 230.785665 168.363634 
L 231.030318 182.026839 
L 231.274971 181.992766 
L 231.519624 179.164721 
L 231.764277 180.766144 
L 232.00893 181.004654 
L 232.253583 183.764554 
L 232.498236 180.016542 
L 232.742889 180.050615 
L 232.987542 184.44601 
L 233.232195 185.502268 
L 233.476848 184.275646 
L 233.721501 182.094985 
L 234.210807 183.934918 
L 234.45546 182.129058 
L 234.700113 179.02843 
L 234.944766 178.994357 
L 235.189419 178.381046 
L 235.434072 178.415119 
L 236.168031 179.812105 
L 236.412684 182.572005 
L 236.657337 177.767735 
L 236.90199 177.972172 
L 237.146643 177.938099 
L 237.391296 178.653629 
L 237.880602 181.481674 
L 238.125255 184.548229 
L 238.369908 185.229685 
L 238.614561 188.500677 
L 238.859214 188.194022 
L 239.103867 183.832699 
L 239.593173 187.853294 
L 240.082479 187.580711 
L 240.327132 186.899254 
L 240.571785 183.730481 
L 240.816438 182.742369 
L 241.061091 179.369158 
L 241.550397 184.514156 
L 241.79505 185.16154 
L 242.039703 188.228095 
L 242.284356 192.930146 
L 242.529009 192.964218 
L 242.773662 191.601305 
L 243.018315 191.396868 
L 243.262968 193.373092 
L 243.507621 193.986403 
L 243.996927 204.548981 
L 244.24158 201.482426 
L 244.730886 198.926964 
L 244.975539 199.84693 
L 245.220192 200.289877 
L 245.464845 200.289877 
L 245.709498 197.802561 
L 245.954151 197.325541 
L 246.198804 200.494314 
L 246.443457 196.371502 
L 246.68811 201.414281 
L 246.932763 201.414281 
L 247.177416 197.836633 
L 247.422069 198.245507 
L 247.666722 197.291468 
L 247.911375 198.177362 
L 248.156029 197.802561 
L 248.400682 198.654381 
L 248.645335 195.213025 
L 248.889988 197.257395 
L 249.134641 197.018885 
L 249.379294 191.022067 
L 249.623947 195.928555 
L 249.8686 194.327132 
L 250.113253 195.962628 
L 250.357906 195.928555 
L 250.602559 195.042661 
L 251.091865 200.835043 
L 251.581171 211.87464 
L 252.070477 220.188411 
L 252.559783 208.126629 
L 252.804436 204.957855 
L 253.049089 205.468948 
L 253.293742 210.579873 
L 253.538395 207.138517 
L 253.783048 206.763715 
L 254.027701 209.932489 
L 254.272354 202.572757 
L 254.517007 206.252623 
L 254.76166 206.93408 
L 255.006313 206.388914 
L 255.250966 205.503021 
L 255.740272 202.538684 
L 256.229578 205.605239 
L 256.474231 206.797788 
L 256.718884 209.659906 
L 256.963537 209.762125 
L 257.20819 209.182886 
L 257.452843 207.751827 
L 257.697496 208.50143 
L 257.942149 206.525206 
L 258.186802 199.744712 
L 258.431455 203.424578 
L 258.676108 202.300174 
L 258.920761 197.666269 
L 259.165414 196.541866 
L 259.65472 192.930146 
L 259.899373 195.14488 
L 260.144026 193.543456 
L 260.388679 195.008588 
L 260.633332 189.079915 
L 260.877985 189.829518 
L 261.367291 189.113988 
L 261.611944 189.829518 
L 261.856597 191.635378 
L 262.10125 170.544295 
L 262.345903 167.511813 
L 262.590556 168.091051 
L 262.835209 169.419891 
L 263.079862 168.568071 
L 263.324515 175.723365 
L 263.569168 175.212273 
L 264.058474 173.747141 
L 264.303127 174.428598 
L 264.54778 172.89532 
L 264.792433 172.111645 
L 265.037086 173.542704 
L 265.281739 174.156015 
L 265.526392 172.213864 
L 266.015698 177.22257 
L 266.260351 174.667108 
L 266.505004 174.019724 
L 266.749657 170.987242 
L 266.99431 171.021314 
L 267.238963 170.442076 
L 267.483616 173.065684 
L 267.728269 171.362043 
L 267.972922 173.338267 
L 268.217575 172.384228 
L 268.462228 170.442076 
L 268.706881 169.794693 
L 268.951534 172.384228 
L 269.196187 171.907208 
L 269.44084 167.852541 
L 269.930146 171.975354 
L 270.174799 175.075981 
L 270.419452 174.496743 
L 270.664106 176.949987 
L 270.908759 176.915914 
L 271.153412 172.384228 
L 271.398065 170.61244 
L 271.887371 181.277237 
L 272.132024 178.278828 
L 272.376677 178.994357 
L 272.62133 175.280418 
L 272.865983 175.110054 
L 273.110636 176.234458 
L 273.355289 174.190088 
L 273.599942 177.120351 
L 273.844595 181.720184 
L 274.578554 186.456307 
L 275.06786 196.882594 
L 275.312513 193.986403 
L 275.557166 192.896073 
L 275.801819 198.722527 
L 276.046472 198.006998 
L 276.291125 204.821564 
L 276.535778 204.17418 
L 277.269737 197.087031 
L 277.51439 197.836633 
L 277.759043 195.724118 
L 278.003696 195.826336 
L 278.248349 194.258986 
L 278.493002 188.125876 
L 278.737655 188.466605 
L 278.982308 195.928555 
L 279.226961 197.257395 
L 279.471614 193.816039 
L 279.716267 198.51809 
L 279.96092 195.042661 
L 280.205573 195.792263 
L 280.450226 195.553754 
L 280.694879 196.814448 
L 280.939532 194.224913 
L 281.428838 185.536341 
L 281.673491 187.682929 
L 281.918144 188.705114 
L 282.162797 186.865181 
L 282.40745 190.476902 
L 282.652103 189.727299 
L 282.896756 187.512565 
L 283.141409 186.865181 
L 283.386062 186.660744 
L 283.630715 187.819221 
L 283.875368 183.730481 
L 284.120021 183.049024 
L 284.364674 181.515747 
L 284.609327 181.447601 
L 284.85398 179.403231 
L 285.098633 182.674223 
L 285.343286 181.924621 
L 285.832592 177.46108 
L 286.077245 178.994357 
L 286.321898 178.585483 
L 287.055857 173.951578 
L 287.30051 174.190088 
L 287.545163 174.598962 
L 287.789816 175.621147 
L 288.034469 175.280418 
L 288.279122 175.893729 
L 288.768428 169.590256 
L 289.013081 172.827175 
L 289.257734 171.055387 
L 289.502387 171.80499 
L 289.74704 171.839062 
L 289.991693 169.624328 
L 290.236346 173.747141 
L 290.480999 171.225751 
L 290.725652 171.464261 
L 291.214958 166.864429 
L 291.459611 166.694065 
L 291.704264 167.682177 
L 291.948917 167.614031 
L 292.19357 169.419891 
L 292.438223 167.273303 
L 292.92753 168.533998 
L 293.416836 166.080754 
L 293.661489 164.308967 
L 294.150795 174.121942 
L 294.395448 171.362043 
L 294.884754 176.200385 
L 295.129407 175.484855 
L 295.37406 173.576777 
L 295.618713 174.564889 
L 295.863366 172.111645 
L 296.108019 172.111645 
L 296.352672 173.713068 
L 296.597325 173.84936 
L 296.841978 170.782805 
L 297.086631 172.793102 
L 297.331284 170.816877 
L 297.575937 173.474558 
L 297.82059 169.04509 
L 298.065243 168.363634 
L 298.309896 163.729728 
L 299.043855 160.560955 
L 299.288508 161.992014 
L 299.533161 160.390591 
L 300.022467 162.230524 
L 300.26712 159.640989 
L 300.511773 158.721022 
L 300.756426 156.949235 
L 301.001079 156.744798 
L 301.245732 157.528473 
L 301.490385 158.823241 
L 301.735038 157.562546 
L 301.979691 158.278075 
L 302.224344 157.01738 
L 302.468997 158.516585 
L 302.71365 157.187745 
L 303.202956 157.01738 
L 303.447609 152.792349 
L 303.692262 162.196451 
L 303.936915 167.205157 
L 304.670874 155.007083 
L 304.915527 156.847016 
L 305.16018 159.77728 
L 305.404833 160.424664 
L 305.649486 158.005493 
L 305.894139 152.894568 
L 306.138792 152.451621 
L 306.383445 149.112483 
L 306.628098 148.567318 
L 306.872751 147.647352 
L 307.117404 147.51106 
L 307.362057 146.352584 
L 307.60671 147.204405 
L 307.851363 145.46669 
L 308.096016 147.306623 
L 308.585322 142.843082 
L 308.829975 125.12521 
L 309.074628 125.636302 
L 309.319281 129.179877 
L 309.563934 130.815373 
L 309.808587 130.372426 
L 310.05324 133.881927 
L 310.297893 133.779709 
L 310.787199 129.452459 
L 311.031852 129.486532 
L 311.276505 129.111731 
L 311.521158 130.338353 
L 311.765811 129.963552 
L 312.010464 130.508717 
L 312.255117 128.839148 
L 312.49977 130.576863 
L 312.744423 130.576863 
L 312.989076 129.520605 
L 313.233729 129.043585 
L 313.478382 129.963552 
L 313.723035 130.031697 
L 314.456994 130.815373 
L 314.701647 130.031697 
L 314.9463 132.314577 
L 315.435607 130.985737 
L 315.68026 131.053882 
L 315.924913 130.679081 
L 316.169566 131.701266 
L 316.414219 133.404908 
L 316.658872 141.309805 
L 316.903525 136.982555 
L 317.148178 138.652124 
L 317.392831 137.493648 
L 317.637484 132.621233 
L 318.12679 131.530902 
L 318.371443 132.757524 
L 318.616096 131.462756 
L 318.860749 130.7813 
L 319.350055 135.347059 
L 319.594708 131.837558 
L 319.839361 130.849445 
L 320.084014 130.508717 
L 320.328667 129.350241 
L 320.57332 131.122028 
L 320.817973 131.360538 
L 321.062626 127.919182 
L 321.307279 126.69256 
L 321.551932 126.999215 
L 322.285891 135.210768 
L 322.530544 137.561793 
L 322.775197 135.108549 
L 323.01985 135.347059 
L 323.264503 132.519014 
L 323.998462 130.06577 
L 324.243115 124.239316 
L 324.487768 125.874812 
L 324.732421 124.137097 
L 324.977074 127.476235 
L 325.46638 127.067361 
L 325.711033 131.87163 
L 325.955686 133.916 
L 326.200339 137.118847 
L 326.444992 138.141031 
L 326.934298 130.54279 
L 327.178951 130.679081 
L 327.423604 132.893815 
L 327.668257 130.474644 
L 327.91291 129.895406 
L 328.157563 126.45405 
L 328.402216 125.874812 
L 329.380828 114.971506 
L 329.625481 116.129982 
L 329.870134 114.869287 
L 330.114787 114.528559 
L 330.35944 114.971506 
L 330.604093 116.572929 
L 330.848746 128.566566 
L 331.093399 127.510308 
L 331.338052 128.225837 
L 331.827358 122.467529 
L 332.072011 122.706039 
L 332.316664 123.183058 
L 332.561317 124.068952 
L 332.80597 119.060245 
L 333.050623 121.445344 
L 333.295276 118.208425 
L 333.539929 120.116503 
L 334.029235 116.198128 
L 334.273888 115.755181 
L 334.518541 115.652962 
L 334.763194 115.039651 
L 335.007847 113.370083 
L 335.2525 116.164055 
L 335.497153 115.823326 
L 335.741806 119.843921 
L 335.986459 117.765478 
L 336.231112 118.072133 
L 336.475765 120.014285 
L 336.720418 115.823326 
L 337.209724 114.290049 
L 337.454377 112.245679 
L 337.69903 113.438228 
L 337.943684 112.927136 
L 338.188337 114.66485 
L 338.43299 115.039651 
L 338.677643 116.743293 
L 339.166949 110.439819 
L 339.900908 98.412109 
L 340.145561 102.603068 
L 340.390214 103.046014 
L 340.634867 111.087203 
L 340.87952 108.599886 
L 341.124173 109.894654 
L 341.368826 107.816211 
L 341.613479 108.77025 
L 341.858132 108.906542 
L 342.102785 109.690217 
L 342.347438 111.904951 
L 342.592091 112.38197 
L 342.836744 111.155348 
L 343.081397 110.746474 
L 343.32605 110.644256 
L 343.570703 108.668032 
L 343.815356 108.020648 
L 344.060009 105.839987 
L 344.304662 105.328894 
L 344.549315 105.63555 
L 344.793968 105.294821 
L 345.038621 105.465185 
L 345.283274 107.407337 
L 345.527927 102.194194 
L 345.77258 102.432703 
L 346.017233 103.182306 
L 346.261886 101.649028 
L 346.506539 98.889129 
L 346.751192 98.139527 
L 346.995845 98.855056 
L 347.485151 92.415291 
L 347.729804 92.176781 
L 347.974457 89.689464 
L 348.21911 90.064265 
L 348.463763 88.394697 
L 348.708416 90.473139 
L 348.953069 96.74254 
L 349.197722 93.539694 
L 349.442375 93.60784 
L 349.931681 94.08486 
L 350.176334 93.812277 
L 350.420987 94.221151 
L 350.66564 92.347145 
L 350.910293 93.982641 
L 351.154946 94.664098 
L 351.399599 93.84635 
L 351.644252 95.618137 
L 351.888905 95.549991 
L 352.133558 94.08486 
L 352.378211 95.447773 
L 353.11217 103.250451 
L 353.601476 97.21956 
L 353.846129 98.037308 
L 354.090782 93.301184 
L 354.335435 96.538103 
L 354.824741 87.849531 
L 355.069394 92.108635 
L 355.314047 93.164893 
L 355.5587 98.684692 
L 355.803353 98.309891 
L 356.048006 98.446182 
L 356.292659 96.674395 
L 356.537312 98.275818 
L 356.781965 97.151414 
L 357.026618 97.730653 
L 357.271271 97.764725 
L 357.515924 94.221151 
L 357.760577 94.527806 
L 358.00523 93.539694 
L 358.494536 88.156187 
L 358.739189 100.388333 
L 358.983842 98.514328 
L 359.228495 94.868535 
L 359.473148 94.630025 
L 359.717801 96.946977 
L 359.962454 95.720355 
L 360.207107 93.198966 
L 360.451761 92.074562 
L 360.941067 87.406584 
L 361.18572 90.813868 
L 361.430373 90.336848 
L 361.919679 88.326551 
L 362.164332 86.043671 
L 362.408985 81.103111 
L 362.653638 92.824165 
L 362.898291 92.313072 
L 363.142944 92.517509 
L 363.387597 95.345554 
L 363.63225 95.618137 
L 363.876903 96.912905 
L 364.121556 91.052378 
L 364.366209 97.355851 
L 364.610862 97.015123 
L 364.855515 99.127639 
L 365.100168 97.321779 
L 365.589474 106.282933 
L 365.834127 102.500849 
L 366.07878 106.453298 
L 366.323433 106.351079 
L 366.568086 108.122866 
L 366.812739 106.419225 
L 367.057392 106.589589 
L 367.302045 101.06979 
L 367.791351 99.161712 
L 368.036004 94.118932 
L 368.280657 94.050787 
L 368.52531 89.076153 
L 368.769963 90.23463 
L 369.014616 88.530988 
L 369.259269 88.530988 
L 369.503922 86.725128 
L 369.993228 92.756019 
L 370.237881 91.154596 
L 370.482534 87.270293 
L 370.727187 92.585655 
L 370.97184 93.471549 
L 371.216493 91.188669 
L 371.461146 90.064265 
L 371.705799 91.427179 
L 372.195105 91.018305 
L 372.439758 88.496915 
L 372.684411 87.542876 
L 372.929064 88.122114 
L 373.173717 94.664098 
L 373.41837 92.858238 
L 373.663023 88.905789 
L 373.907676 89.246517 
L 374.152329 87.508803 
L 374.396982 95.379627 
L 374.641635 95.992938 
L 374.886288 96.265521 
L 375.130941 93.335257 
L 375.375594 92.858238 
L 375.620247 91.631616 
L 376.109553 93.301184 
L 376.354206 92.381218 
L 376.598859 88.019895 
L 376.843512 86.282181 
L 377.088165 87.23622 
L 377.332818 89.587246 
L 377.577471 88.837643 
L 377.822124 89.076153 
L 378.066777 91.188669 
L 378.556083 86.043671 
L 378.800736 86.691055 
L 379.045389 84.680758 
L 379.534695 74.970001 
L 379.779348 72.687121 
L 380.024001 76.026259 
L 380.268654 75.276656 
L 380.513307 67.712488 
L 380.75796 70.336096 
L 381.002613 69.654639 
L 381.491919 63.010437 
L 381.981225 63.010437 
L 382.225878 62.022325 
L 382.959838 57.218055 
L 383.204491 56.43438 
L 383.693797 52.038985 
L 383.93845 52.890806 
L 384.427756 47.40508 
L 384.672409 47.268788 
L 384.917062 50.130906 
L 385.161715 50.06276 
L 385.651021 40.658659 
L 385.895674 39.874984 
L 386.140327 41.987499 
L 386.38498 40.863096 
L 386.629633 36.263263 
L 386.874286 41.169751 
L 387.118939 39.023163 
L 387.363592 40.181639 
L 387.608245 38.682435 
L 387.852898 34.627768 
L 387.852898 34.627768 
" style="fill:none;stroke:#ff7f0e;stroke-linecap:square;stroke-width:1.5;"/>
   </g>
   <g id="patch_3">
    <path d="M 46.965625 288.430125 
L 46.965625 22.318125 
" style="fill:none;stroke:#000000;stroke-linecap:square;stroke-linejoin:miter;stroke-width:0.8;"/>
   </g>
   <g id="patch_4">
    <path d="M 404.085625 288.430125 
L 404.085625 22.318125 
" style="fill:none;stroke:#000000;stroke-linecap:square;stroke-linejoin:miter;stroke-width:0.8;"/>
   </g>
   <g id="patch_5">
    <path d="M 46.965625 288.430125 
L 404.085625 288.430125 
" style="fill:none;stroke:#000000;stroke-linecap:square;stroke-linejoin:miter;stroke-width:0.8;"/>
   </g>
   <g id="patch_6">
    <path d="M 46.965625 22.318125 
L 404.085625 22.318125 
" style="fill:none;stroke:#000000;stroke-linecap:square;stroke-linejoin:miter;stroke-width:0.8;"/>
   </g>
   <g id="text_18">
    <!-- Training: TXN -->
    <defs>
     <path d="M -0.296875 72.90625 
L 61.375 72.90625 
L 61.375 64.59375 
L 35.5 64.59375 
L 35.5 0 
L 25.59375 0 
L 25.59375 64.59375 
L -0.296875 64.59375 
z
" id="DejaVuSans-84"/>
     <path d="M 54.890625 33.015625 
L 54.890625 0 
L 45.90625 0 
L 45.90625 32.71875 
Q 45.90625 40.484375 42.875 44.328125 
Q 39.84375 48.1875 33.796875 48.1875 
Q 26.515625 48.1875 22.3125 43.546875 
Q 18.109375 38.921875 18.109375 30.90625 
L 18.109375 0 
L 9.078125 0 
L 9.078125 54.6875 
L 18.109375 54.6875 
L 18.109375 46.1875 
Q 21.34375 51.125 25.703125 53.5625 
Q 30.078125 56 35.796875 56 
Q 45.21875 56 50.046875 50.171875 
Q 54.890625 44.34375 54.890625 33.015625 
z
" id="DejaVuSans-110"/>
     <path d="M 45.40625 27.984375 
Q 45.40625 37.75 41.375 43.109375 
Q 37.359375 48.484375 30.078125 48.484375 
Q 22.859375 48.484375 18.828125 43.109375 
Q 14.796875 37.75 14.796875 27.984375 
Q 14.796875 18.265625 18.828125 12.890625 
Q 22.859375 7.515625 30.078125 7.515625 
Q 37.359375 7.515625 41.375 12.890625 
Q 45.40625 18.265625 45.40625 27.984375 
z
M 54.390625 6.78125 
Q 54.390625 -7.171875 48.1875 -13.984375 
Q 42 -20.796875 29.203125 -20.796875 
Q 24.46875 -20.796875 20.265625 -20.09375 
Q 16.0625 -19.390625 12.109375 -17.921875 
L 12.109375 -9.1875 
Q 16.0625 -11.328125 19.921875 -12.34375 
Q 23.78125 -13.375 27.78125 -13.375 
Q 36.625 -13.375 41.015625 -8.765625 
Q 45.40625 -4.15625 45.40625 5.171875 
L 45.40625 9.625 
Q 42.625 4.78125 38.28125 2.390625 
Q 33.9375 0 27.875 0 
Q 17.828125 0 11.671875 7.65625 
Q 5.515625 15.328125 5.515625 27.984375 
Q 5.515625 40.671875 11.671875 48.328125 
Q 17.828125 56 27.875 56 
Q 33.9375 56 38.28125 53.609375 
Q 42.625 51.21875 45.40625 46.390625 
L 45.40625 54.6875 
L 54.390625 54.6875 
z
" id="DejaVuSans-103"/>
     <path d="M 11.71875 12.40625 
L 22.015625 12.40625 
L 22.015625 0 
L 11.71875 0 
z
M 11.71875 51.703125 
L 22.015625 51.703125 
L 22.015625 39.3125 
L 11.71875 39.3125 
z
" id="DejaVuSans-58"/>
     <path d="M 6.296875 72.90625 
L 16.890625 72.90625 
L 35.015625 45.796875 
L 53.21875 72.90625 
L 63.8125 72.90625 
L 40.375 37.890625 
L 65.375 0 
L 54.78125 0 
L 34.28125 31 
L 13.625 0 
L 2.984375 0 
L 29 38.921875 
z
" id="DejaVuSans-88"/>
     <path d="M 9.8125 72.90625 
L 23.09375 72.90625 
L 55.421875 11.921875 
L 55.421875 72.90625 
L 64.984375 72.90625 
L 64.984375 0 
L 51.703125 0 
L 19.390625 60.984375 
L 19.390625 0 
L 9.8125 0 
z
" id="DejaVuSans-78"/>
    </defs>
    <g transform="translate(185.663125 16.318125)scale(0.12 -0.12)">
     <use xlink:href="#DejaVuSans-84"/>
     <use x="46.333984" xlink:href="#DejaVuSans-114"/>
     <use x="87.447266" xlink:href="#DejaVuSans-97"/>
     <use x="148.726562" xlink:href="#DejaVuSans-105"/>
     <use x="176.509766" xlink:href="#DejaVuSans-110"/>
     <use x="239.888672" xlink:href="#DejaVuSans-105"/>
     <use x="267.671875" xlink:href="#DejaVuSans-110"/>
     <use x="331.050781" xlink:href="#DejaVuSans-103"/>
     <use x="394.527344" xlink:href="#DejaVuSans-58"/>
     <use x="428.21875" xlink:href="#DejaVuSans-32"/>
     <use x="460.005859" xlink:href="#DejaVuSans-84"/>
     <use x="521.089844" xlink:href="#DejaVuSans-88"/>
     <use x="589.595703" xlink:href="#DejaVuSans-78"/>
    </g>
   </g>
   <g id="legend_1">
    <g id="patch_7">
     <path d="M 53.965625 59.674375 
L 137.69375 59.674375 
Q 139.69375 59.674375 139.69375 57.674375 
L 139.69375 29.318125 
Q 139.69375 27.318125 137.69375 27.318125 
L 53.965625 27.318125 
Q 51.965625 27.318125 51.965625 29.318125 
L 51.965625 57.674375 
Q 51.965625 59.674375 53.965625 59.674375 
z
" style="fill:#ffffff;opacity:0.8;stroke:#cccccc;stroke-linejoin:miter;"/>
    </g>
    <g id="line2d_33">
     <path d="M 55.965625 35.416562 
L 75.965625 35.416562 
" style="fill:none;stroke:#1f77b4;stroke-linecap:square;stroke-width:1.5;"/>
    </g>
    <g id="line2d_34"/>
    <g id="text_19">
     <!-- Predicted -->
     <defs>
      <path d="M 45.40625 46.390625 
L 45.40625 75.984375 
L 54.390625 75.984375 
L 54.390625 0 
L 45.40625 0 
L 45.40625 8.203125 
Q 42.578125 3.328125 38.25 0.953125 
Q 33.9375 -1.421875 27.875 -1.421875 
Q 17.96875 -1.421875 11.734375 6.484375 
Q 5.515625 14.40625 5.515625 27.296875 
Q 5.515625 40.1875 11.734375 48.09375 
Q 17.96875 56 27.875 56 
Q 33.9375 56 38.25 53.625 
Q 42.578125 51.265625 45.40625 46.390625 
z
M 14.796875 27.296875 
Q 14.796875 17.390625 18.875 11.75 
Q 22.953125 6.109375 30.078125 6.109375 
Q 37.203125 6.109375 41.296875 11.75 
Q 45.40625 17.390625 45.40625 27.296875 
Q 45.40625 37.203125 41.296875 42.84375 
Q 37.203125 48.484375 30.078125 48.484375 
Q 22.953125 48.484375 18.875 42.84375 
Q 14.796875 37.203125 14.796875 27.296875 
z
" id="DejaVuSans-100"/>
      <path d="M 18.3125 70.21875 
L 18.3125 54.6875 
L 36.8125 54.6875 
L 36.8125 47.703125 
L 18.3125 47.703125 
L 18.3125 18.015625 
Q 18.3125 11.328125 20.140625 9.421875 
Q 21.96875 7.515625 27.59375 7.515625 
L 36.8125 7.515625 
L 36.8125 0 
L 27.59375 0 
Q 17.1875 0 13.234375 3.875 
Q 9.28125 7.765625 9.28125 18.015625 
L 9.28125 47.703125 
L 2.6875 47.703125 
L 2.6875 54.6875 
L 9.28125 54.6875 
L 9.28125 70.21875 
z
" id="DejaVuSans-116"/>
     </defs>
     <g transform="translate(83.965625 38.916562)scale(0.1 -0.1)">
      <use xlink:href="#DejaVuSans-80"/>
      <use x="58.552734" xlink:href="#DejaVuSans-114"/>
      <use x="97.416016" xlink:href="#DejaVuSans-101"/>
      <use x="158.939453" xlink:href="#DejaVuSans-100"/>
      <use x="222.416016" xlink:href="#DejaVuSans-105"/>
      <use x="250.199219" xlink:href="#DejaVuSans-99"/>
      <use x="305.179688" xlink:href="#DejaVuSans-116"/>
      <use x="344.388672" xlink:href="#DejaVuSans-101"/>
      <use x="405.912109" xlink:href="#DejaVuSans-100"/>
     </g>
    </g>
    <g id="line2d_35">
     <path d="M 55.965625 50.094687 
L 75.965625 50.094687 
" style="fill:none;stroke:#ff7f0e;stroke-linecap:square;stroke-width:1.5;"/>
    </g>
    <g id="line2d_36"/>
    <g id="text_20">
     <!-- True value -->
     <defs>
      <path d="M 8.5 21.578125 
L 8.5 54.6875 
L 17.484375 54.6875 
L 17.484375 21.921875 
Q 17.484375 14.15625 20.5 10.265625 
Q 23.53125 6.390625 29.59375 6.390625 
Q 36.859375 6.390625 41.078125 11.03125 
Q 45.3125 15.671875 45.3125 23.6875 
L 45.3125 54.6875 
L 54.296875 54.6875 
L 54.296875 0 
L 45.3125 0 
L 45.3125 8.40625 
Q 42.046875 3.421875 37.71875 1 
Q 33.40625 -1.421875 27.6875 -1.421875 
Q 18.265625 -1.421875 13.375 4.4375 
Q 8.5 10.296875 8.5 21.578125 
z
M 31.109375 56 
z
" id="DejaVuSans-117"/>
      <path d="M 2.984375 54.6875 
L 12.5 54.6875 
L 29.59375 8.796875 
L 46.6875 54.6875 
L 56.203125 54.6875 
L 35.6875 0 
L 23.484375 0 
z
" id="DejaVuSans-118"/>
      <path d="M 9.421875 75.984375 
L 18.40625 75.984375 
L 18.40625 0 
L 9.421875 0 
z
" id="DejaVuSans-108"/>
     </defs>
     <g transform="translate(83.965625 53.594687)scale(0.1 -0.1)">
      <use xlink:href="#DejaVuSans-84"/>
      <use x="46.333984" xlink:href="#DejaVuSans-114"/>
      <use x="87.447266" xlink:href="#DejaVuSans-117"/>
      <use x="150.826172" xlink:href="#DejaVuSans-101"/>
      <use x="212.349609" xlink:href="#DejaVuSans-32"/>
      <use x="244.136719" xlink:href="#DejaVuSans-118"/>
      <use x="303.316406" xlink:href="#DejaVuSans-97"/>
      <use x="364.595703" xlink:href="#DejaVuSans-108"/>
      <use x="392.378906" xlink:href="#DejaVuSans-117"/>
      <use x="455.757812" xlink:href="#DejaVuSans-101"/>
     </g>
    </g>
   </g>
  </g>
 </g>
 <defs>
  <clipPath id="pb4b4afcbd6">
   <rect height="266.112" width="357.12" x="46.965625" y="22.318125"/>
  </clipPath>
 </defs>
</svg>
