<?xml version="1.0" encoding="utf-8" standalone="no"?>
<!DOCTYPE svg PUBLIC "-//W3C//DTD SVG 1.1//EN"
  "http://www.w3.org/Graphics/SVG/1.1/DTD/svg11.dtd">
<!-- Created with matplotlib (https://matplotlib.org/) -->
<svg height="325.986375pt" version="1.1" viewBox="0 0 411.285625 325.986375" width="411.285625pt" xmlns="http://www.w3.org/2000/svg" xmlns:xlink="http://www.w3.org/1999/xlink">
 <defs>
  <style type="text/css">
*{stroke-linecap:butt;stroke-linejoin:round;}
  </style>
 </defs>
 <g id="figure_1">
  <g id="patch_1">
   <path d="M 0 325.986375 
L 411.285625 325.986375 
L 411.285625 0 
L 0 0 
z
" style="fill:#ffffff;"/>
  </g>
  <g id="axes_1">
   <g id="patch_2">
    <path d="M 46.965625 288.430125 
L 404.085625 288.430125 
L 404.085625 22.318125 
L 46.965625 22.318125 
z
" style="fill:#ffffff;"/>
   </g>
   <g id="matplotlib.axis_1">
    <g id="xtick_1">
     <g id="line2d_1">
      <path clip-path="url(#pbdbb9d301d)" d="M 63.198352 288.430125 
L 63.198352 22.318125 
" style="fill:none;stroke:#b0b0b0;stroke-dasharray:2.96,1.28;stroke-dashoffset:0;stroke-width:0.8;"/>
     </g>
     <g id="line2d_2">
      <defs>
       <path d="M 0 0 
L 0 3.5 
" id="mc4858d9b17" style="stroke:#000000;stroke-width:0.8;"/>
      </defs>
      <g>
       <use style="stroke:#000000;stroke-width:0.8;" x="63.198352" xlink:href="#mc4858d9b17" y="288.430125"/>
      </g>
     </g>
     <g id="text_1">
      <!-- 0 -->
      <defs>
       <path d="M 31.78125 66.40625 
Q 24.171875 66.40625 20.328125 58.90625 
Q 16.5 51.421875 16.5 36.375 
Q 16.5 21.390625 20.328125 13.890625 
Q 24.171875 6.390625 31.78125 6.390625 
Q 39.453125 6.390625 43.28125 13.890625 
Q 47.125 21.390625 47.125 36.375 
Q 47.125 51.421875 43.28125 58.90625 
Q 39.453125 66.40625 31.78125 66.40625 
z
M 31.78125 74.21875 
Q 44.046875 74.21875 50.515625 64.515625 
Q 56.984375 54.828125 56.984375 36.375 
Q 56.984375 17.96875 50.515625 8.265625 
Q 44.046875 -1.421875 31.78125 -1.421875 
Q 19.53125 -1.421875 13.0625 8.265625 
Q 6.59375 17.96875 6.59375 36.375 
Q 6.59375 54.828125 13.0625 64.515625 
Q 19.53125 74.21875 31.78125 74.21875 
z
" id="DejaVuSans-48"/>
      </defs>
      <g transform="translate(60.017102 303.028562)scale(0.1 -0.1)">
       <use xlink:href="#DejaVuSans-48"/>
      </g>
     </g>
    </g>
    <g id="xtick_2">
     <g id="line2d_3">
      <path clip-path="url(#pbdbb9d301d)" d="M 112.128954 288.430125 
L 112.128954 22.318125 
" style="fill:none;stroke:#b0b0b0;stroke-dasharray:2.96,1.28;stroke-dashoffset:0;stroke-width:0.8;"/>
     </g>
     <g id="line2d_4">
      <g>
       <use style="stroke:#000000;stroke-width:0.8;" x="112.128954" xlink:href="#mc4858d9b17" y="288.430125"/>
      </g>
     </g>
     <g id="text_2">
      <!-- 200 -->
      <defs>
       <path d="M 19.1875 8.296875 
L 53.609375 8.296875 
L 53.609375 0 
L 7.328125 0 
L 7.328125 8.296875 
Q 12.9375 14.109375 22.625 23.890625 
Q 32.328125 33.6875 34.8125 36.53125 
Q 39.546875 41.84375 41.421875 45.53125 
Q 43.3125 49.21875 43.3125 52.78125 
Q 43.3125 58.59375 39.234375 62.25 
Q 35.15625 65.921875 28.609375 65.921875 
Q 23.96875 65.921875 18.8125 64.3125 
Q 13.671875 62.703125 7.8125 59.421875 
L 7.8125 69.390625 
Q 13.765625 71.78125 18.9375 73 
Q 24.125 74.21875 28.421875 74.21875 
Q 39.75 74.21875 46.484375 68.546875 
Q 53.21875 62.890625 53.21875 53.421875 
Q 53.21875 48.921875 51.53125 44.890625 
Q 49.859375 40.875 45.40625 35.40625 
Q 44.1875 33.984375 37.640625 27.21875 
Q 31.109375 20.453125 19.1875 8.296875 
z
" id="DejaVuSans-50"/>
      </defs>
      <g transform="translate(102.585204 303.028562)scale(0.1 -0.1)">
       <use xlink:href="#DejaVuSans-50"/>
       <use x="63.623047" xlink:href="#DejaVuSans-48"/>
       <use x="127.246094" xlink:href="#DejaVuSans-48"/>
      </g>
     </g>
    </g>
    <g id="xtick_3">
     <g id="line2d_5">
      <path clip-path="url(#pbdbb9d301d)" d="M 161.059557 288.430125 
L 161.059557 22.318125 
" style="fill:none;stroke:#b0b0b0;stroke-dasharray:2.96,1.28;stroke-dashoffset:0;stroke-width:0.8;"/>
     </g>
     <g id="line2d_6">
      <g>
       <use style="stroke:#000000;stroke-width:0.8;" x="161.059557" xlink:href="#mc4858d9b17" y="288.430125"/>
      </g>
     </g>
     <g id="text_3">
      <!-- 400 -->
      <defs>
       <path d="M 37.796875 64.3125 
L 12.890625 25.390625 
L 37.796875 25.390625 
z
M 35.203125 72.90625 
L 47.609375 72.90625 
L 47.609375 25.390625 
L 58.015625 25.390625 
L 58.015625 17.1875 
L 47.609375 17.1875 
L 47.609375 0 
L 37.796875 0 
L 37.796875 17.1875 
L 4.890625 17.1875 
L 4.890625 26.703125 
z
" id="DejaVuSans-52"/>
      </defs>
      <g transform="translate(151.515807 303.028562)scale(0.1 -0.1)">
       <use xlink:href="#DejaVuSans-52"/>
       <use x="63.623047" xlink:href="#DejaVuSans-48"/>
       <use x="127.246094" xlink:href="#DejaVuSans-48"/>
      </g>
     </g>
    </g>
    <g id="xtick_4">
     <g id="line2d_7">
      <path clip-path="url(#pbdbb9d301d)" d="M 209.990159 288.430125 
L 209.990159 22.318125 
" style="fill:none;stroke:#b0b0b0;stroke-dasharray:2.96,1.28;stroke-dashoffset:0;stroke-width:0.8;"/>
     </g>
     <g id="line2d_8">
      <g>
       <use style="stroke:#000000;stroke-width:0.8;" x="209.990159" xlink:href="#mc4858d9b17" y="288.430125"/>
      </g>
     </g>
     <g id="text_4">
      <!-- 600 -->
      <defs>
       <path d="M 33.015625 40.375 
Q 26.375 40.375 22.484375 35.828125 
Q 18.609375 31.296875 18.609375 23.390625 
Q 18.609375 15.53125 22.484375 10.953125 
Q 26.375 6.390625 33.015625 6.390625 
Q 39.65625 6.390625 43.53125 10.953125 
Q 47.40625 15.53125 47.40625 23.390625 
Q 47.40625 31.296875 43.53125 35.828125 
Q 39.65625 40.375 33.015625 40.375 
z
M 52.59375 71.296875 
L 52.59375 62.3125 
Q 48.875 64.0625 45.09375 64.984375 
Q 41.3125 65.921875 37.59375 65.921875 
Q 27.828125 65.921875 22.671875 59.328125 
Q 17.53125 52.734375 16.796875 39.40625 
Q 19.671875 43.65625 24.015625 45.921875 
Q 28.375 48.1875 33.59375 48.1875 
Q 44.578125 48.1875 50.953125 41.515625 
Q 57.328125 34.859375 57.328125 23.390625 
Q 57.328125 12.15625 50.6875 5.359375 
Q 44.046875 -1.421875 33.015625 -1.421875 
Q 20.359375 -1.421875 13.671875 8.265625 
Q 6.984375 17.96875 6.984375 36.375 
Q 6.984375 53.65625 15.1875 63.9375 
Q 23.390625 74.21875 37.203125 74.21875 
Q 40.921875 74.21875 44.703125 73.484375 
Q 48.484375 72.75 52.59375 71.296875 
z
" id="DejaVuSans-54"/>
      </defs>
      <g transform="translate(200.446409 303.028562)scale(0.1 -0.1)">
       <use xlink:href="#DejaVuSans-54"/>
       <use x="63.623047" xlink:href="#DejaVuSans-48"/>
       <use x="127.246094" xlink:href="#DejaVuSans-48"/>
      </g>
     </g>
    </g>
    <g id="xtick_5">
     <g id="line2d_9">
      <path clip-path="url(#pbdbb9d301d)" d="M 258.920761 288.430125 
L 258.920761 22.318125 
" style="fill:none;stroke:#b0b0b0;stroke-dasharray:2.96,1.28;stroke-dashoffset:0;stroke-width:0.8;"/>
     </g>
     <g id="line2d_10">
      <g>
       <use style="stroke:#000000;stroke-width:0.8;" x="258.920761" xlink:href="#mc4858d9b17" y="288.430125"/>
      </g>
     </g>
     <g id="text_5">
      <!-- 800 -->
      <defs>
       <path d="M 31.78125 34.625 
Q 24.75 34.625 20.71875 30.859375 
Q 16.703125 27.09375 16.703125 20.515625 
Q 16.703125 13.921875 20.71875 10.15625 
Q 24.75 6.390625 31.78125 6.390625 
Q 38.8125 6.390625 42.859375 10.171875 
Q 46.921875 13.96875 46.921875 20.515625 
Q 46.921875 27.09375 42.890625 30.859375 
Q 38.875 34.625 31.78125 34.625 
z
M 21.921875 38.8125 
Q 15.578125 40.375 12.03125 44.71875 
Q 8.5 49.078125 8.5 55.328125 
Q 8.5 64.0625 14.71875 69.140625 
Q 20.953125 74.21875 31.78125 74.21875 
Q 42.671875 74.21875 48.875 69.140625 
Q 55.078125 64.0625 55.078125 55.328125 
Q 55.078125 49.078125 51.53125 44.71875 
Q 48 40.375 41.703125 38.8125 
Q 48.828125 37.15625 52.796875 32.3125 
Q 56.78125 27.484375 56.78125 20.515625 
Q 56.78125 9.90625 50.3125 4.234375 
Q 43.84375 -1.421875 31.78125 -1.421875 
Q 19.734375 -1.421875 13.25 4.234375 
Q 6.78125 9.90625 6.78125 20.515625 
Q 6.78125 27.484375 10.78125 32.3125 
Q 14.796875 37.15625 21.921875 38.8125 
z
M 18.3125 54.390625 
Q 18.3125 48.734375 21.84375 45.5625 
Q 25.390625 42.390625 31.78125 42.390625 
Q 38.140625 42.390625 41.71875 45.5625 
Q 45.3125 48.734375 45.3125 54.390625 
Q 45.3125 60.0625 41.71875 63.234375 
Q 38.140625 66.40625 31.78125 66.40625 
Q 25.390625 66.40625 21.84375 63.234375 
Q 18.3125 60.0625 18.3125 54.390625 
z
" id="DejaVuSans-56"/>
      </defs>
      <g transform="translate(249.377011 303.028562)scale(0.1 -0.1)">
       <use xlink:href="#DejaVuSans-56"/>
       <use x="63.623047" xlink:href="#DejaVuSans-48"/>
       <use x="127.246094" xlink:href="#DejaVuSans-48"/>
      </g>
     </g>
    </g>
    <g id="xtick_6">
     <g id="line2d_11">
      <path clip-path="url(#pbdbb9d301d)" d="M 307.851363 288.430125 
L 307.851363 22.318125 
" style="fill:none;stroke:#b0b0b0;stroke-dasharray:2.96,1.28;stroke-dashoffset:0;stroke-width:0.8;"/>
     </g>
     <g id="line2d_12">
      <g>
       <use style="stroke:#000000;stroke-width:0.8;" x="307.851363" xlink:href="#mc4858d9b17" y="288.430125"/>
      </g>
     </g>
     <g id="text_6">
      <!-- 1000 -->
      <defs>
       <path d="M 12.40625 8.296875 
L 28.515625 8.296875 
L 28.515625 63.921875 
L 10.984375 60.40625 
L 10.984375 69.390625 
L 28.421875 72.90625 
L 38.28125 72.90625 
L 38.28125 8.296875 
L 54.390625 8.296875 
L 54.390625 0 
L 12.40625 0 
z
" id="DejaVuSans-49"/>
      </defs>
      <g transform="translate(295.126363 303.028562)scale(0.1 -0.1)">
       <use xlink:href="#DejaVuSans-49"/>
       <use x="63.623047" xlink:href="#DejaVuSans-48"/>
       <use x="127.246094" xlink:href="#DejaVuSans-48"/>
       <use x="190.869141" xlink:href="#DejaVuSans-48"/>
      </g>
     </g>
    </g>
    <g id="xtick_7">
     <g id="line2d_13">
      <path clip-path="url(#pbdbb9d301d)" d="M 356.781965 288.430125 
L 356.781965 22.318125 
" style="fill:none;stroke:#b0b0b0;stroke-dasharray:2.96,1.28;stroke-dashoffset:0;stroke-width:0.8;"/>
     </g>
     <g id="line2d_14">
      <g>
       <use style="stroke:#000000;stroke-width:0.8;" x="356.781965" xlink:href="#mc4858d9b17" y="288.430125"/>
      </g>
     </g>
     <g id="text_7">
      <!-- 1200 -->
      <g transform="translate(344.056965 303.028562)scale(0.1 -0.1)">
       <use xlink:href="#DejaVuSans-49"/>
       <use x="63.623047" xlink:href="#DejaVuSans-50"/>
       <use x="127.246094" xlink:href="#DejaVuSans-48"/>
       <use x="190.869141" xlink:href="#DejaVuSans-48"/>
      </g>
     </g>
    </g>
    <g id="text_8">
     <!-- Day -->
     <defs>
      <path d="M 19.671875 64.796875 
L 19.671875 8.109375 
L 31.59375 8.109375 
Q 46.6875 8.109375 53.6875 14.9375 
Q 60.6875 21.78125 60.6875 36.53125 
Q 60.6875 51.171875 53.6875 57.984375 
Q 46.6875 64.796875 31.59375 64.796875 
z
M 9.8125 72.90625 
L 30.078125 72.90625 
Q 51.265625 72.90625 61.171875 64.09375 
Q 71.09375 55.28125 71.09375 36.53125 
Q 71.09375 17.671875 61.125 8.828125 
Q 51.171875 0 30.078125 0 
L 9.8125 0 
z
" id="DejaVuSans-68"/>
      <path d="M 34.28125 27.484375 
Q 23.390625 27.484375 19.1875 25 
Q 14.984375 22.515625 14.984375 16.5 
Q 14.984375 11.71875 18.140625 8.90625 
Q 21.296875 6.109375 26.703125 6.109375 
Q 34.1875 6.109375 38.703125 11.40625 
Q 43.21875 16.703125 43.21875 25.484375 
L 43.21875 27.484375 
z
M 52.203125 31.203125 
L 52.203125 0 
L 43.21875 0 
L 43.21875 8.296875 
Q 40.140625 3.328125 35.546875 0.953125 
Q 30.953125 -1.421875 24.3125 -1.421875 
Q 15.921875 -1.421875 10.953125 3.296875 
Q 6 8.015625 6 15.921875 
Q 6 25.140625 12.171875 29.828125 
Q 18.359375 34.515625 30.609375 34.515625 
L 43.21875 34.515625 
L 43.21875 35.40625 
Q 43.21875 41.609375 39.140625 45 
Q 35.0625 48.390625 27.6875 48.390625 
Q 23 48.390625 18.546875 47.265625 
Q 14.109375 46.140625 10.015625 43.890625 
L 10.015625 52.203125 
Q 14.9375 54.109375 19.578125 55.046875 
Q 24.21875 56 28.609375 56 
Q 40.484375 56 46.34375 49.84375 
Q 52.203125 43.703125 52.203125 31.203125 
z
" id="DejaVuSans-97"/>
      <path d="M 32.171875 -5.078125 
Q 28.375 -14.84375 24.75 -17.8125 
Q 21.140625 -20.796875 15.09375 -20.796875 
L 7.90625 -20.796875 
L 7.90625 -13.28125 
L 13.1875 -13.28125 
Q 16.890625 -13.28125 18.9375 -11.515625 
Q 21 -9.765625 23.484375 -3.21875 
L 25.09375 0.875 
L 2.984375 54.6875 
L 12.5 54.6875 
L 29.59375 11.921875 
L 46.6875 54.6875 
L 56.203125 54.6875 
z
" id="DejaVuSans-121"/>
     </defs>
     <g transform="translate(215.652188 316.706687)scale(0.1 -0.1)">
      <use xlink:href="#DejaVuSans-68"/>
      <use x="77.001953" xlink:href="#DejaVuSans-97"/>
      <use x="138.28125" xlink:href="#DejaVuSans-121"/>
     </g>
    </g>
   </g>
   <g id="matplotlib.axis_2">
    <g id="ytick_1">
     <g id="line2d_15">
      <path clip-path="url(#pbdbb9d301d)" d="M 46.965625 258.478617 
L 404.085625 258.478617 
" style="fill:none;stroke:#b0b0b0;stroke-dasharray:2.96,1.28;stroke-dashoffset:0;stroke-width:0.8;"/>
     </g>
     <g id="line2d_16">
      <defs>
       <path d="M 0 0 
L -3.5 0 
" id="m068a7807fb" style="stroke:#000000;stroke-width:0.8;"/>
      </defs>
      <g>
       <use style="stroke:#000000;stroke-width:0.8;" x="46.965625" xlink:href="#m068a7807fb" y="258.478617"/>
      </g>
     </g>
     <g id="text_9">
      <!-- 60 -->
      <g transform="translate(27.240625 262.277836)scale(0.1 -0.1)">
       <use xlink:href="#DejaVuSans-54"/>
       <use x="63.623047" xlink:href="#DejaVuSans-48"/>
      </g>
     </g>
    </g>
    <g id="ytick_2">
     <g id="line2d_17">
      <path clip-path="url(#pbdbb9d301d)" d="M 46.965625 217.00241 
L 404.085625 217.00241 
" style="fill:none;stroke:#b0b0b0;stroke-dasharray:2.96,1.28;stroke-dashoffset:0;stroke-width:0.8;"/>
     </g>
     <g id="line2d_18">
      <g>
       <use style="stroke:#000000;stroke-width:0.8;" x="46.965625" xlink:href="#m068a7807fb" y="217.00241"/>
      </g>
     </g>
     <g id="text_10">
      <!-- 80 -->
      <g transform="translate(27.240625 220.801628)scale(0.1 -0.1)">
       <use xlink:href="#DejaVuSans-56"/>
       <use x="63.623047" xlink:href="#DejaVuSans-48"/>
      </g>
     </g>
    </g>
    <g id="ytick_3">
     <g id="line2d_19">
      <path clip-path="url(#pbdbb9d301d)" d="M 46.965625 175.526202 
L 404.085625 175.526202 
" style="fill:none;stroke:#b0b0b0;stroke-dasharray:2.96,1.28;stroke-dashoffset:0;stroke-width:0.8;"/>
     </g>
     <g id="line2d_20">
      <g>
       <use style="stroke:#000000;stroke-width:0.8;" x="46.965625" xlink:href="#m068a7807fb" y="175.526202"/>
      </g>
     </g>
     <g id="text_11">
      <!-- 100 -->
      <g transform="translate(20.878125 179.32542)scale(0.1 -0.1)">
       <use xlink:href="#DejaVuSans-49"/>
       <use x="63.623047" xlink:href="#DejaVuSans-48"/>
       <use x="127.246094" xlink:href="#DejaVuSans-48"/>
      </g>
     </g>
    </g>
    <g id="ytick_4">
     <g id="line2d_21">
      <path clip-path="url(#pbdbb9d301d)" d="M 46.965625 134.049994 
L 404.085625 134.049994 
" style="fill:none;stroke:#b0b0b0;stroke-dasharray:2.96,1.28;stroke-dashoffset:0;stroke-width:0.8;"/>
     </g>
     <g id="line2d_22">
      <g>
       <use style="stroke:#000000;stroke-width:0.8;" x="46.965625" xlink:href="#m068a7807fb" y="134.049994"/>
      </g>
     </g>
     <g id="text_12">
      <!-- 120 -->
      <g transform="translate(20.878125 137.849212)scale(0.1 -0.1)">
       <use xlink:href="#DejaVuSans-49"/>
       <use x="63.623047" xlink:href="#DejaVuSans-50"/>
       <use x="127.246094" xlink:href="#DejaVuSans-48"/>
      </g>
     </g>
    </g>
    <g id="ytick_5">
     <g id="line2d_23">
      <path clip-path="url(#pbdbb9d301d)" d="M 46.965625 92.573786 
L 404.085625 92.573786 
" style="fill:none;stroke:#b0b0b0;stroke-dasharray:2.96,1.28;stroke-dashoffset:0;stroke-width:0.8;"/>
     </g>
     <g id="line2d_24">
      <g>
       <use style="stroke:#000000;stroke-width:0.8;" x="46.965625" xlink:href="#m068a7807fb" y="92.573786"/>
      </g>
     </g>
     <g id="text_13">
      <!-- 140 -->
      <g transform="translate(20.878125 96.373004)scale(0.1 -0.1)">
       <use xlink:href="#DejaVuSans-49"/>
       <use x="63.623047" xlink:href="#DejaVuSans-52"/>
       <use x="127.246094" xlink:href="#DejaVuSans-48"/>
      </g>
     </g>
    </g>
    <g id="ytick_6">
     <g id="line2d_25">
      <path clip-path="url(#pbdbb9d301d)" d="M 46.965625 51.097578 
L 404.085625 51.097578 
" style="fill:none;stroke:#b0b0b0;stroke-dasharray:2.96,1.28;stroke-dashoffset:0;stroke-width:0.8;"/>
     </g>
     <g id="line2d_26">
      <g>
       <use style="stroke:#000000;stroke-width:0.8;" x="46.965625" xlink:href="#m068a7807fb" y="51.097578"/>
      </g>
     </g>
     <g id="text_14">
      <!-- 160 -->
      <g transform="translate(20.878125 54.896797)scale(0.1 -0.1)">
       <use xlink:href="#DejaVuSans-49"/>
       <use x="63.623047" xlink:href="#DejaVuSans-54"/>
       <use x="127.246094" xlink:href="#DejaVuSans-48"/>
      </g>
     </g>
    </g>
    <g id="text_15">
     <!-- Price $ -->
     <defs>
      <path d="M 19.671875 64.796875 
L 19.671875 37.40625 
L 32.078125 37.40625 
Q 38.96875 37.40625 42.71875 40.96875 
Q 46.484375 44.53125 46.484375 51.125 
Q 46.484375 57.671875 42.71875 61.234375 
Q 38.96875 64.796875 32.078125 64.796875 
z
M 9.8125 72.90625 
L 32.078125 72.90625 
Q 44.34375 72.90625 50.609375 67.359375 
Q 56.890625 61.8125 56.890625 51.125 
Q 56.890625 40.328125 50.609375 34.8125 
Q 44.34375 29.296875 32.078125 29.296875 
L 19.671875 29.296875 
L 19.671875 0 
L 9.8125 0 
z
" id="DejaVuSans-80"/>
      <path d="M 41.109375 46.296875 
Q 39.59375 47.171875 37.8125 47.578125 
Q 36.03125 48 33.890625 48 
Q 26.265625 48 22.1875 43.046875 
Q 18.109375 38.09375 18.109375 28.8125 
L 18.109375 0 
L 9.078125 0 
L 9.078125 54.6875 
L 18.109375 54.6875 
L 18.109375 46.1875 
Q 20.953125 51.171875 25.484375 53.578125 
Q 30.03125 56 36.53125 56 
Q 37.453125 56 38.578125 55.875 
Q 39.703125 55.765625 41.0625 55.515625 
z
" id="DejaVuSans-114"/>
      <path d="M 9.421875 54.6875 
L 18.40625 54.6875 
L 18.40625 0 
L 9.421875 0 
z
M 9.421875 75.984375 
L 18.40625 75.984375 
L 18.40625 64.59375 
L 9.421875 64.59375 
z
" id="DejaVuSans-105"/>
      <path d="M 48.78125 52.59375 
L 48.78125 44.1875 
Q 44.96875 46.296875 41.140625 47.34375 
Q 37.3125 48.390625 33.40625 48.390625 
Q 24.65625 48.390625 19.8125 42.84375 
Q 14.984375 37.3125 14.984375 27.296875 
Q 14.984375 17.28125 19.8125 11.734375 
Q 24.65625 6.203125 33.40625 6.203125 
Q 37.3125 6.203125 41.140625 7.25 
Q 44.96875 8.296875 48.78125 10.40625 
L 48.78125 2.09375 
Q 45.015625 0.34375 40.984375 -0.53125 
Q 36.96875 -1.421875 32.421875 -1.421875 
Q 20.0625 -1.421875 12.78125 6.34375 
Q 5.515625 14.109375 5.515625 27.296875 
Q 5.515625 40.671875 12.859375 48.328125 
Q 20.21875 56 33.015625 56 
Q 37.15625 56 41.109375 55.140625 
Q 45.0625 54.296875 48.78125 52.59375 
z
" id="DejaVuSans-99"/>
      <path d="M 56.203125 29.59375 
L 56.203125 25.203125 
L 14.890625 25.203125 
Q 15.484375 15.921875 20.484375 11.0625 
Q 25.484375 6.203125 34.421875 6.203125 
Q 39.59375 6.203125 44.453125 7.46875 
Q 49.3125 8.734375 54.109375 11.28125 
L 54.109375 2.78125 
Q 49.265625 0.734375 44.1875 -0.34375 
Q 39.109375 -1.421875 33.890625 -1.421875 
Q 20.796875 -1.421875 13.15625 6.1875 
Q 5.515625 13.8125 5.515625 26.8125 
Q 5.515625 40.234375 12.765625 48.109375 
Q 20.015625 56 32.328125 56 
Q 43.359375 56 49.78125 48.890625 
Q 56.203125 41.796875 56.203125 29.59375 
z
M 47.21875 32.234375 
Q 47.125 39.59375 43.09375 43.984375 
Q 39.0625 48.390625 32.421875 48.390625 
Q 24.90625 48.390625 20.390625 44.140625 
Q 15.875 39.890625 15.1875 32.171875 
z
" id="DejaVuSans-101"/>
      <path id="DejaVuSans-32"/>
      <path d="M 33.796875 -14.703125 
L 28.90625 -14.703125 
L 28.859375 0 
Q 23.734375 0.09375 18.609375 1.1875 
Q 13.484375 2.296875 8.296875 4.5 
L 8.296875 13.28125 
Q 13.28125 10.15625 18.375 8.5625 
Q 23.484375 6.984375 28.90625 6.9375 
L 28.90625 29.203125 
Q 18.109375 30.953125 13.203125 35.15625 
Q 8.296875 39.359375 8.296875 46.6875 
Q 8.296875 54.640625 13.625 59.21875 
Q 18.953125 63.8125 28.90625 64.5 
L 28.90625 75.984375 
L 33.796875 75.984375 
L 33.796875 64.65625 
Q 38.328125 64.453125 42.578125 63.6875 
Q 46.828125 62.9375 50.875 61.625 
L 50.875 53.078125 
Q 46.828125 55.125 42.546875 56.25 
Q 38.28125 57.375 33.796875 57.5625 
L 33.796875 36.71875 
Q 44.875 35.015625 50.09375 30.609375 
Q 55.328125 26.21875 55.328125 18.609375 
Q 55.328125 10.359375 49.78125 5.59375 
Q 44.234375 0.828125 33.796875 0.09375 
z
M 28.90625 37.59375 
L 28.90625 57.625 
Q 23.25 56.984375 20.265625 54.390625 
Q 17.28125 51.8125 17.28125 47.515625 
Q 17.28125 43.3125 20.03125 40.96875 
Q 22.796875 38.625 28.90625 37.59375 
z
M 33.796875 28.21875 
L 33.796875 7.078125 
Q 39.984375 7.90625 43.140625 10.59375 
Q 46.296875 13.28125 46.296875 17.671875 
Q 46.296875 21.96875 43.28125 24.5 
Q 40.28125 27.046875 33.796875 28.21875 
z
" id="DejaVuSans-36"/>
     </defs>
     <g transform="translate(14.798438 172.342094)rotate(-90)scale(0.1 -0.1)">
      <use xlink:href="#DejaVuSans-80"/>
      <use x="58.552734" xlink:href="#DejaVuSans-114"/>
      <use x="99.666016" xlink:href="#DejaVuSans-105"/>
      <use x="127.449219" xlink:href="#DejaVuSans-99"/>
      <use x="182.429688" xlink:href="#DejaVuSans-101"/>
      <use x="243.953125" xlink:href="#DejaVuSans-32"/>
      <use x="275.740234" xlink:href="#DejaVuSans-36"/>
     </g>
    </g>
   </g>
   <g id="line2d_27">
    <path clip-path="url(#pbdbb9d301d)" d="M 63.198352 257.138541 
L 63.443005 271.435123 
L 63.687658 273.754726 
L 63.932311 274.119121 
L 64.176964 274.802335 
L 64.421617 274.822397 
L 64.66627 271.648457 
L 64.910923 273.518695 
L 65.400229 271.680536 
L 65.644882 269.687837 
L 65.889535 271.655965 
L 66.134188 272.475271 
L 66.378841 267.224293 
L 66.623494 267.548698 
L 67.1128 263.824907 
L 67.602106 265.863292 
L 67.846759 264.125626 
L 68.091412 265.214617 
L 68.336066 262.914023 
L 68.580719 265.021938 
L 68.825372 265.047735 
L 69.070025 263.563315 
L 69.314678 264.472395 
L 69.559331 263.698822 
L 69.803984 264.385469 
L 70.048637 264.366475 
L 70.29329 262.419121 
L 70.537943 262.826156 
L 70.782596 262.182006 
L 71.027249 263.957233 
L 71.516555 260.624251 
L 71.761208 257.272101 
L 72.005861 258.956004 
L 72.250514 259.33558 
L 72.495167 257.384389 
L 72.73982 259.496837 
L 72.984473 258.338823 
L 73.229126 259.099137 
L 73.473779 257.769962 
L 73.718432 258.841628 
L 74.207738 256.659635 
L 74.452391 256.094729 
L 74.697044 257.22723 
L 74.941697 253.714559 
L 75.18635 253.989805 
L 75.431003 250.656681 
L 75.920309 256.734647 
L 76.164962 259.005052 
L 76.409615 260.08826 
L 76.898921 255.960354 
L 77.143574 255.407567 
L 77.388227 253.632633 
L 77.63288 253.464683 
L 78.122186 253.747453 
L 78.366839 255.120613 
L 78.856145 255.721996 
L 79.100798 256.809286 
L 79.345451 252.429503 
L 79.590104 251.676743 
L 79.834757 253.23415 
L 80.324063 251.64082 
L 80.813369 256.238368 
L 81.302675 254.508242 
L 81.547328 248.62324 
L 81.791981 254.802688 
L 82.036634 255.096398 
L 82.770593 249.464665 
L 83.015246 248.828181 
L 83.259899 246.747504 
L 83.749205 249.082028 
L 83.993858 247.590638 
L 84.238511 249.896635 
L 84.483164 247.693433 
L 84.727817 247.389304 
L 84.97247 249.03972 
L 85.217123 249.726565 
L 85.461776 248.365817 
L 85.706429 247.90858 
L 85.951082 251.849796 
L 86.195735 251.636611 
L 86.440388 250.86519 
L 86.929694 253.507062 
L 87.174347 250.132936 
L 87.419 251.353336 
L 87.663653 254.152652 
L 87.908306 253.4842 
L 88.152959 255.628916 
L 88.397612 253.28978 
L 88.642265 255.371612 
L 88.886918 254.83104 
L 89.131571 255.314226 
L 89.376224 252.528271 
L 89.620877 248.43575 
L 90.354836 251.787418 
L 90.599489 250.147318 
L 90.844143 250.264163 
L 91.333449 249.083325 
L 91.578102 249.925115 
L 91.822755 248.715513 
L 92.067408 249.383214 
L 92.312061 246.235997 
L 92.801367 244.754844 
L 93.04602 243.620539 
L 93.535326 240.233826 
L 94.024632 243.069082 
L 94.269285 242.103154 
L 94.513938 243.41582 
L 94.758591 242.196503 
L 95.003244 244.799747 
L 95.49255 242.888586 
L 95.737203 243.722227 
L 95.981856 242.172312 
L 96.226509 244.008667 
L 96.471162 241.442652 
L 96.715815 241.583483 
L 96.960468 242.622176 
L 97.205121 241.711831 
L 97.449774 241.427732 
L 97.694427 244.44532 
L 97.93908 249.092296 
L 98.183733 244.916386 
L 98.428386 248.688126 
L 98.673039 239.985533 
L 99.162345 238.673453 
L 99.406998 238.28792 
L 99.651651 235.473834 
L 99.896304 235.03245 
L 100.140957 235.027118 
L 100.38561 236.327157 
L 100.630263 233.481491 
L 100.874916 234.333327 
L 101.119569 235.916294 
L 101.364222 235.208864 
L 101.853528 239.094411 
L 102.098181 237.770006 
L 102.342834 239.126877 
L 102.587487 238.367362 
L 102.83214 238.151757 
L 103.076793 237.359443 
L 103.321446 237.557549 
L 103.566099 235.889919 
L 103.810752 237.75719 
L 104.055405 236.897205 
L 104.300058 237.187632 
L 104.544711 233.837816 
L 104.789364 236.065146 
L 105.034017 235.471113 
L 105.27867 237.419867 
L 105.523323 233.723123 
L 105.767976 234.220295 
L 106.012629 232.741816 
L 106.257282 232.094067 
L 106.501935 228.056266 
L 106.746588 232.363403 
L 107.235894 230.622138 
L 107.480547 231.374296 
L 107.7252 227.740318 
L 108.214506 230.451419 
L 108.459159 230.316189 
L 108.703812 229.524302 
L 108.948465 230.019623 
L 109.193118 228.724694 
L 109.682424 231.206599 
L 110.17173 228.063481 
L 110.416383 225.445649 
L 110.661036 226.375314 
L 110.905689 225.171171 
L 111.150342 224.655186 
L 111.394995 223.746882 
L 112.128954 220.079678 
L 112.373607 223.033519 
L 112.61826 222.044032 
L 112.862913 223.140333 
L 113.107566 216.855376 
L 113.35222 214.98858 
L 113.596873 218.871832 
L 113.841526 218.585187 
L 114.086179 215.419601 
L 114.330832 217.384968 
L 114.575485 217.30032 
L 114.820138 218.947366 
L 115.064791 217.797319 
L 115.309444 224.848309 
L 115.554097 226.658051 
L 116.043403 217.150075 
L 116.288056 220.28454 
L 116.532709 220.449736 
L 116.777362 223.606668 
L 117.022015 223.08369 
L 117.266668 222.888638 
L 117.511321 223.689053 
L 117.755974 221.102596 
L 118.24528 229.463024 
L 118.489933 229.015454 
L 118.734586 230.04709 
L 119.468545 222.726605 
L 119.713198 220.941244 
L 119.957851 222.492425 
L 120.202504 221.008234 
L 120.447157 220.727221 
L 120.69181 219.886524 
L 120.936463 217.514217 
L 121.181116 216.273383 
L 121.425769 217.903879 
L 121.670422 215.84029 
L 121.915075 214.949073 
L 122.404381 216.721618 
L 122.649034 214.65662 
L 122.893687 216.303524 
L 123.13834 216.713565 
L 123.382993 216.276595 
L 123.627646 215.296981 
L 123.872299 215.238076 
L 124.116952 219.068879 
L 124.361605 219.02472 
L 124.606258 218.821123 
L 124.850911 219.292949 
L 125.095564 217.285843 
L 125.340217 218.527848 
L 125.58487 214.899946 
L 125.829523 217.534406 
L 126.074176 216.113249 
L 126.318829 219.405347 
L 126.563482 215.728698 
L 126.808135 218.958188 
L 127.052788 217.754837 
L 127.297441 217.374652 
L 127.786747 227.043536 
L 128.0314 225.007446 
L 128.276053 225.479825 
L 128.520706 227.089784 
L 128.765359 227.835518 
L 129.010012 227.399482 
L 129.254665 228.132021 
L 129.499318 224.397938 
L 129.743971 228.509817 
L 129.988624 225.651366 
L 130.233277 225.537464 
L 130.722583 228.985424 
L 130.967236 227.526675 
L 131.211889 230.799533 
L 131.456542 231.484227 
L 131.945848 226.323813 
L 132.190501 225.212339 
L 132.435154 224.687542 
L 132.679807 226.260715 
L 132.92446 224.575824 
L 133.169113 224.564305 
L 133.413766 220.478311 
L 133.658419 218.288178 
L 134.147725 225.528841 
L 134.392378 224.532535 
L 134.637031 225.482024 
L 134.881684 223.267335 
L 135.126337 224.932766 
L 135.37099 225.228019 
L 135.615643 223.435965 
L 135.860297 223.668342 
L 136.10495 224.53176 
L 136.349603 224.914666 
L 136.838909 228.597106 
L 137.083562 228.522174 
L 137.328215 224.336327 
L 137.572868 223.011337 
L 137.817521 223.666032 
L 138.062174 226.188552 
L 138.306827 227.069817 
L 138.55148 224.504451 
L 138.796133 228.148428 
L 139.040786 227.948218 
L 139.530092 225.947821 
L 139.774745 221.802779 
L 140.019398 223.99296 
L 140.264051 225.029818 
L 140.508704 220.567151 
L 140.753357 219.718036 
L 140.99801 219.966772 
L 141.242663 222.600188 
L 141.487316 222.327323 
L 141.731969 223.72212 
L 142.465928 225.83509 
L 142.710581 225.752515 
L 143.689193 215.566808 
L 143.933846 217.156673 
L 144.178499 213.832473 
L 144.423152 216.898808 
L 144.667805 216.571547 
L 144.912458 218.802786 
L 145.157111 215.942404 
L 145.401764 214.449543 
L 145.89107 213.753758 
L 146.380376 218.936196 
L 146.625029 219.684794 
L 146.869682 218.282972 
L 147.114335 214.811406 
L 147.603641 219.365555 
L 147.848294 217.822887 
L 148.092947 218.807437 
L 148.3376 217.373275 
L 148.582253 217.506923 
L 148.826906 219.017109 
L 149.071559 214.989782 
L 149.316212 216.168294 
L 149.560865 215.425661 
L 149.805518 214.257987 
L 150.050171 214.223005 
L 150.294824 212.434543 
L 150.78413 211.762981 
L 151.028783 210.842146 
L 151.762742 214.66537 
L 152.007395 212.311512 
L 152.252048 211.252867 
L 152.496701 212.898346 
L 152.741354 211.721955 
L 152.986007 214.842971 
L 153.475313 213.220497 
L 153.719966 212.79128 
L 154.453925 215.890477 
L 154.698578 216.08757 
L 154.943231 218.433945 
L 155.187884 218.805934 
L 155.432537 220.167584 
L 155.67719 223.610323 
L 155.921843 221.522621 
L 156.166496 223.074308 
L 156.411149 226.860983 
L 156.900455 225.744067 
L 157.145108 223.553918 
L 157.389761 222.82815 
L 157.634414 223.646618 
L 158.368374 220.75847 
L 158.613027 220.402366 
L 159.102333 224.192553 
L 159.346986 220.878953 
L 159.836292 219.799614 
L 160.080945 212.359863 
L 160.325598 211.633068 
L 160.570251 211.826665 
L 160.814904 211.765829 
L 161.059557 213.211431 
L 161.30421 209.788216 
L 161.548863 209.548625 
L 161.793516 211.578039 
L 162.038169 210.286686 
L 162.772128 215.424047 
L 163.016781 218.962239 
L 163.261434 216.537546 
L 163.506087 216.168721 
L 163.75074 215.164472 
L 163.995393 216.16986 
L 164.484699 213.673446 
L 164.729352 217.080965 
L 164.974005 217.643688 
L 165.218658 218.757171 
L 165.463311 219.143906 
L 165.952617 217.439775 
L 166.19727 216.841453 
L 166.441923 214.909296 
L 167.175882 222.609523 
L 167.420535 222.41966 
L 167.665188 220.178106 
L 168.154494 225.170522 
L 168.399147 223.970968 
L 168.6438 224.385692 
L 169.622412 215.570178 
L 169.867065 219.533046 
L 170.111718 216.007955 
L 170.356371 217.873881 
L 170.601024 214.808811 
L 170.845677 217.040999 
L 171.09033 217.799138 
L 171.334983 217.835386 
L 171.579636 216.99154 
L 172.068942 221.75044 
L 172.558248 222.968617 
L 173.047554 218.763974 
L 173.53686 223.77495 
L 173.781513 224.47518 
L 174.026166 220.528846 
L 174.270819 223.541466 
L 174.515472 218.51326 
L 174.760125 219.412452 
L 175.004778 218.759513 
L 175.494084 216.290154 
L 175.738737 216.897289 
L 175.98339 216.001974 
L 176.228043 215.654857 
L 176.472696 213.92617 
L 176.962002 215.428999 
L 177.206655 215.599686 
L 177.451308 213.832979 
L 177.695961 214.635577 
L 177.940614 214.326828 
L 178.42992 219.56537 
L 178.674573 220.408156 
L 179.163879 214.969087 
L 179.408532 213.795781 
L 179.897838 216.388756 
L 180.142491 214.239143 
L 180.387144 215.444141 
L 180.876451 214.58558 
L 181.121104 213.625728 
L 181.365757 214.22647 
L 181.61041 211.539623 
L 181.855063 211.820589 
L 182.099716 211.748615 
L 182.589022 215.403858 
L 182.833675 215.32266 
L 183.078328 219.005354 
L 183.322981 216.397727 
L 183.567634 217.803837 
L 183.812287 216.190476 
L 184.301593 217.439015 
L 184.546246 215.706927 
L 184.790899 217.594608 
L 185.035552 215.051219 
L 185.280205 213.774295 
L 185.524858 213.264276 
L 185.769511 214.412393 
L 186.014164 214.028079 
L 186.258817 213.883451 
L 186.50347 211.766573 
L 186.992776 217.136912 
L 187.237429 215.784438 
L 187.482082 215.411389 
L 187.726735 214.683106 
L 187.971388 215.035856 
L 188.216041 209.819623 
L 188.460694 209.230937 
L 188.705347 209.693775 
L 188.95 209.311708 
L 189.194653 207.828703 
L 189.439306 208.845151 
L 189.683959 208.984669 
L 189.928612 195.946269 
L 190.173265 192.988947 
L 190.417918 193.040843 
L 190.662571 194.46616 
L 191.39653 191.596302 
L 191.641183 190.175763 
L 191.885836 187.477224 
L 192.130489 194.640645 
L 192.375142 198.099395 
L 192.864448 191.298866 
L 193.109101 193.580544 
L 193.353754 198.011409 
L 193.598407 196.330378 
L 194.087713 197.992027 
L 195.310978 189.716183 
L 195.555631 192.249035 
L 195.800284 192.863463 
L 196.044937 188.673598 
L 196.28959 192.269034 
L 196.534243 189.533583 
L 196.778896 192.053587 
L 197.023549 192.856328 
L 197.268202 193.217732 
L 197.757508 187.306664 
L 198.246814 190.901577 
L 198.491467 186.317572 
L 198.73612 189.340761 
L 198.980773 190.366986 
L 199.225426 194.932812 
L 199.470079 196.81138 
L 199.714732 201.815568 
L 200.204038 193.138559 
L 200.448691 190.278558 
L 200.693344 185.873451 
L 200.937997 188.703976 
L 201.18265 184.035624 
L 201.427303 185.137558 
L 201.671956 184.682456 
L 201.916609 181.335551 
L 202.161262 182.457483 
L 202.405915 179.429469 
L 202.650568 179.062574 
L 202.895221 183.969236 
L 203.139875 183.601487 
L 203.384528 183.964758 
L 203.629181 179.778643 
L 203.873834 179.580536 
L 204.118487 178.305891 
L 204.36314 178.552048 
L 204.607793 177.851849 
L 204.852446 176.391281 
L 205.097099 178.853187 
L 205.341752 179.551693 
L 205.586405 185.300112 
L 205.831058 180.902679 
L 206.075711 179.642811 
L 206.320364 176.616901 
L 206.565017 176.840607 
L 206.80967 180.930178 
L 207.054323 178.631902 
L 207.298976 174.617122 
L 207.788282 178.772717 
L 208.032935 176.912502 
L 208.277588 176.631141 
L 208.766894 172.897437 
L 209.011547 176.258456 
L 209.2562 177.233102 
L 209.500853 172.938337 
L 209.745506 175.515965 
L 209.990159 173.865533 
L 210.234812 181.676608 
L 210.724118 171.432549 
L 210.968771 169.707138 
L 211.213424 166.260902 
L 211.458077 166.697239 
L 211.70273 167.443448 
L 211.947383 166.550475 
L 212.192036 165.140173 
L 212.436689 166.203453 
L 212.681342 163.815404 
L 213.170648 173.490696 
L 213.415301 172.875635 
L 213.659954 163.416011 
L 213.904607 159.411563 
L 214.14926 165.448716 
L 214.393913 166.226442 
L 214.638566 167.559423 
L 215.127872 173.141269 
L 215.372525 165.04975 
L 215.617178 168.29193 
L 215.861831 167.230485 
L 216.106484 160.99078 
L 216.351137 163.936853 
L 216.59579 161.074509 
L 216.840443 165.560814 
L 217.085096 164.856359 
L 217.329749 157.779326 
L 217.574402 167.976774 
L 217.819055 166.007451 
L 218.063708 158.399909 
L 218.553014 155.758662 
L 218.797667 156.14739 
L 219.04232 158.586687 
L 219.286973 151.733977 
L 219.531626 154.12364 
L 219.776279 148.91565 
L 220.020932 151.004365 
L 220.265585 150.449 
L 220.510238 150.863882 
L 220.754891 153.109614 
L 220.999544 149.310882 
L 221.244197 149.310328 
L 221.48885 135.706058 
L 221.733503 141.871812 
L 222.222809 145.533447 
L 222.467462 141.100667 
L 222.712115 142.5772 
L 222.956768 145.826136 
L 223.201421 141.243286 
L 223.446074 146.15096 
L 223.690727 142.745466 
L 223.93538 150.545466 
L 224.180033 146.778188 
L 224.424686 139.444698 
L 224.669339 144.627025 
L 224.913992 139.0735 
L 225.158645 143.688295 
L 225.403298 142.015348 
L 225.647952 144.020492 
L 225.892605 137.507953 
L 226.137258 142.197965 
L 226.381911 140.076578 
L 226.626564 147.074976 
L 226.871217 149.854017 
L 227.11587 144.712352 
L 227.360523 142.882674 
L 227.605176 146.547869 
L 227.849829 147.572449 
L 228.094482 144.03163 
L 228.339135 143.774334 
L 228.583788 145.071684 
L 228.828441 141.604042 
L 229.073094 144.963193 
L 229.317747 142.465862 
L 229.5624 145.446299 
L 229.807053 145.501613 
L 230.296359 146.93818 
L 230.541012 149.933949 
L 230.785665 146.373068 
L 231.030318 146.125724 
L 231.274971 147.415574 
L 231.519624 145.003444 
L 231.764277 146.553691 
L 232.00893 152.087929 
L 232.253583 153.580601 
L 232.742889 161.293042 
L 232.987542 153.27894 
L 233.232195 153.136416 
L 233.476848 159.15289 
L 233.721501 156.997407 
L 233.966154 152.794077 
L 234.210807 146.448634 
L 234.45546 150.919623 
L 234.700113 149.471823 
L 234.944766 152.987706 
L 235.678725 145.103866 
L 235.923378 149.750446 
L 236.168031 150.586208 
L 236.412684 150.677389 
L 236.657337 149.630991 
L 236.90199 153.097352 
L 237.146643 148.83613 
L 237.391296 149.269413 
L 237.635949 151.609395 
L 237.880602 150.015685 
L 238.125255 151.337179 
L 238.369908 146.720296 
L 238.614561 152.124335 
L 238.859214 153.856804 
L 239.103867 154.282271 
L 239.34852 155.533389 
L 239.593173 151.355264 
L 239.837826 150.506639 
L 240.327132 154.74628 
L 240.571785 153.441383 
L 240.816438 152.744776 
L 241.061091 149.159419 
L 241.305744 148.615018 
L 241.550397 146.71672 
L 241.79505 147.150241 
L 242.039703 149.583272 
L 242.284356 149.128534 
L 242.529009 148.083845 
L 242.773662 153.951925 
L 243.262968 148.28203 
L 243.507621 150.987531 
L 243.752274 151.910439 
L 243.996927 148.480136 
L 244.24158 152.801767 
L 244.730886 146.23382 
L 244.975539 142.759896 
L 245.220192 142.966594 
L 245.464845 142.407463 
L 245.709498 145.469241 
L 245.954151 145.799065 
L 246.198804 149.267593 
L 246.68811 143.498242 
L 246.932763 144.651011 
L 247.177416 147.173341 
L 247.422069 148.370269 
L 247.911375 139.693767 
L 248.156029 141.056208 
L 248.400682 138.769672 
L 248.645335 140.158804 
L 248.889988 139.397913 
L 249.134641 137.278503 
L 249.379294 142.058368 
L 249.8686 137.409461 
L 250.357906 138.408505 
L 250.602559 134.069328 
L 250.847212 133.172178 
L 251.091865 134.169971 
L 251.336518 125.222882 
L 251.581171 128.260627 
L 251.825824 134.025802 
L 252.070477 144.127558 
L 252.31513 159.086675 
L 252.559783 150.43177 
L 252.804436 137.776451 
L 253.049089 136.582909 
L 253.293742 138.096323 
L 253.538395 141.439067 
L 253.783048 150.439997 
L 254.027701 138.122587 
L 254.272354 139.655841 
L 254.517007 146.787191 
L 254.76166 139.185045 
L 255.006313 146.657357 
L 255.495619 142.231302 
L 255.740272 144.481257 
L 256.229578 137.019546 
L 256.474231 137.040526 
L 256.718884 145.324012 
L 256.963537 139.140237 
L 257.20819 143.249489 
L 257.452843 140.806063 
L 257.697496 141.098721 
L 257.942149 138.935976 
L 258.186802 146.330302 
L 258.431455 148.405457 
L 258.676108 140.360486 
L 258.920761 138.7604 
L 259.165414 138.43113 
L 259.410067 134.047367 
L 259.65472 137.238015 
L 260.144026 131.009005 
L 260.388679 130.922127 
L 260.633332 129.422747 
L 260.877985 130.751488 
L 261.122638 134.237863 
L 261.367291 128.785171 
L 261.611944 127.390802 
L 261.856597 127.086578 
L 262.10125 128.154526 
L 262.590556 123.874997 
L 262.835209 124.086647 
L 263.079862 122.625636 
L 263.569168 126.88526 
L 263.813821 126.85167 
L 264.058474 125.850918 
L 264.54778 121.194939 
L 264.792433 123.091939 
L 265.037086 121.699642 
L 265.281739 121.159925 
L 265.526392 125.666592 
L 265.771045 122.191957 
L 266.015698 123.865425 
L 266.260351 126.461881 
L 266.505004 135.89282 
L 266.749657 131.450279 
L 266.99431 116.227584 
L 267.238963 120.62815 
L 267.483616 119.276705 
L 267.728269 111.173463 
L 267.972922 107.316617 
L 268.217575 106.282876 
L 268.462228 103.563911 
L 268.706881 103.532426 
L 268.951534 106.96306 
L 269.196187 104.382252 
L 269.44084 105.819072 
L 269.685493 112.940359 
L 269.930146 101.277929 
L 270.174799 105.927959 
L 270.419452 105.446973 
L 270.664106 110.162632 
L 270.908759 106.689816 
L 271.153412 113.799648 
L 271.398065 107.497588 
L 271.642718 109.877489 
L 271.887371 106.041181 
L 272.376677 113.284423 
L 272.62133 109.685158 
L 272.865983 108.542974 
L 273.110636 105.523709 
L 273.599942 108.072303 
L 273.844595 104.128722 
L 274.333901 108.671479 
L 274.578554 113.157246 
L 274.823207 112.240683 
L 275.06786 116.07813 
L 275.312513 125.139976 
L 275.557166 124.902109 
L 276.046472 115.861528 
L 276.291125 132.749195 
L 276.535778 134.685481 
L 276.780431 135.574973 
L 277.025084 131.471005 
L 277.269737 142.779009 
L 277.51439 128.557621 
L 277.759043 123.626245 
L 278.003696 129.144725 
L 278.248349 128.029263 
L 278.493002 129.847629 
L 278.737655 128.353534 
L 278.982308 119.336591 
L 279.226961 120.138715 
L 279.96092 133.497682 
L 280.450226 152.880259 
L 280.694879 143.771312 
L 280.939532 142.131766 
L 281.184185 146.846824 
L 281.673491 131.22363 
L 281.918144 129.490766 
L 282.162797 134.675845 
L 282.896756 122.312631 
L 283.141409 123.229352 
L 283.386062 119.44331 
L 283.630715 121.2609 
L 283.875368 126.298805 
L 284.120021 120.966676 
L 284.364674 122.885716 
L 284.609327 119.190128 
L 284.85398 122.548599 
L 285.343286 119.17516 
L 285.587939 121.136508 
L 285.832592 121.608698 
L 286.077245 113.605861 
L 286.321898 114.672227 
L 286.811204 111.770329 
L 287.055857 111.34532 
L 287.30051 109.920398 
L 287.789816 112.382637 
L 288.034469 112.807107 
L 288.279122 111.861589 
L 289.013081 104.507341 
L 289.257734 105.10158 
L 289.502387 102.613046 
L 289.74704 102.281798 
L 289.991693 103.86592 
L 290.236346 101.339793 
L 290.480999 106.083773 
L 290.725652 105.359604 
L 290.970305 106.221139 
L 291.214958 102.330371 
L 291.459611 105.143002 
L 291.948917 102.322017 
L 292.19357 97.871976 
L 292.438223 102.813161 
L 292.682876 102.687061 
L 292.92753 103.907247 
L 293.172183 101.074522 
L 293.416836 101.924128 
L 293.661489 102.294804 
L 293.906142 100.701631 
L 294.150795 109.248252 
L 294.640101 98.382202 
L 294.884754 104.095211 
L 295.129407 102.058646 
L 295.37406 103.661849 
L 295.618713 100.55819 
L 295.863366 99.62976 
L 296.108019 96.363578 
L 296.352672 106.210222 
L 296.597325 104.171188 
L 296.841978 107.070649 
L 297.086631 100.11641 
L 297.331284 111.908074 
L 297.575937 109.802778 
L 297.82059 109.343943 
L 298.065243 108.404848 
L 298.309896 109.33619 
L 298.554549 103.88633 
L 298.799202 105.843913 
L 299.043855 104.269126 
L 299.288508 105.160343 
L 299.533161 109.985142 
L 299.777814 110.117318 
L 300.022467 107.476418 
L 300.26712 109.840719 
L 300.511773 116.72338 
L 300.756426 111.817383 
L 301.245732 114.703364 
L 301.490385 115.57569 
L 301.735038 117.332112 
L 301.979691 124.141739 
L 302.224344 118.09658 
L 302.468997 117.443594 
L 302.71365 118.635791 
L 302.958303 116.14145 
L 303.447609 117.444258 
L 303.692262 115.697772 
L 303.936915 122.371156 
L 304.181568 125.534875 
L 304.426221 115.75549 
L 304.670874 118.149346 
L 304.915527 117.99437 
L 305.16018 112.251347 
L 305.404833 114.415405 
L 305.649486 108.80413 
L 305.894139 111.360066 
L 306.138792 102.384261 
L 306.383445 101.990801 
L 306.628098 103.960852 
L 306.872751 107.040683 
L 307.117404 103.153459 
L 307.362057 102.759652 
L 307.60671 99.020268 
L 307.851363 98.810564 
L 308.096016 97.468739 
L 308.340669 102.278001 
L 308.585322 99.385343 
L 309.074628 99.226902 
L 309.319281 99.826078 
L 309.563934 95.566153 
L 309.808587 96.031318 
L 310.05324 94.508332 
L 310.297893 98.83936 
L 310.542546 99.80532 
L 310.787199 101.712589 
L 311.031852 96.880543 
L 311.276505 99.956134 
L 311.521158 100.195646 
L 311.765811 101.466843 
L 312.010464 97.399344 
L 312.255117 100.342442 
L 312.49977 97.67012 
L 312.744423 100.464714 
L 312.989076 100.982186 
L 313.233729 104.274853 
L 313.478382 101.850967 
L 313.723035 101.615221 
L 313.967688 98.867776 
L 314.212341 103.022232 
L 314.456994 101.448616 
L 314.701647 104.346242 
L 314.9463 100.983863 
L 315.190953 105.154995 
L 315.68026 103.351201 
L 315.924913 100.693246 
L 316.414219 107.966708 
L 316.658872 110.739436 
L 316.903525 119.009172 
L 317.148178 114.903575 
L 317.392831 122.613563 
L 317.637484 118.453206 
L 317.882137 117.204588 
L 318.12679 120.285558 
L 319.105402 113.839329 
L 319.350055 117.582304 
L 319.594708 123.39909 
L 319.839361 117.96684 
L 320.084014 115.362758 
L 320.328667 116.371564 
L 320.57332 114.821585 
L 321.062626 116.436529 
L 321.307279 118.104918 
L 321.551932 111.59056 
L 321.796585 117.817149 
L 322.041238 119.360166 
L 322.285891 123.133662 
L 322.530544 118.768632 
L 322.775197 121.033239 
L 323.01985 119.219715 
L 323.264503 123.25231 
L 323.509156 120.561967 
L 323.753809 120.939431 
L 323.998462 119.760255 
L 324.243115 119.607573 
L 324.487768 115.798114 
L 324.732421 129.737524 
L 324.977074 127.873307 
L 325.221727 128.761739 
L 325.46638 124.662249 
L 325.955686 134.657603 
L 326.200339 131.302122 
L 326.444992 132.305247 
L 326.689645 130.262859 
L 326.934298 122.587616 
L 327.178951 123.472725 
L 327.423604 121.89278 
L 327.668257 112.650597 
L 327.91291 113.151297 
L 328.402216 127.41406 
L 328.646869 122.331126 
L 328.891522 112.482821 
L 329.136175 116.623069 
L 329.380828 116.391373 
L 329.625481 109.453905 
L 329.870134 109.834042 
L 330.114787 109.07535 
L 330.604093 114.467523 
L 330.848746 114.680043 
L 331.338052 112.400959 
L 331.582705 113.03931 
L 331.827358 115.625687 
L 332.072011 105.8554 
L 332.316664 108.189575 
L 332.561317 106.152061 
L 332.80597 103.072862 
L 333.050623 98.37331 
L 333.295276 101.815146 
L 333.539929 101.115026 
L 333.784582 103.583499 
L 334.029235 101.314509 
L 334.273888 96.534202 
L 334.518541 98.159397 
L 334.763194 102.543461 
L 335.007847 102.557701 
L 335.2525 101.421276 
L 335.497153 102.173861 
L 335.741806 101.140468 
L 335.986459 103.900665 
L 336.231112 103.142669 
L 336.475765 100.04518 
L 336.720418 105.654366 
L 336.965071 105.20091 
L 337.209724 102.7344 
L 337.454377 98.605765 
L 337.943684 103.001505 
L 338.188337 102.084119 
L 338.43299 99.601533 
L 338.677643 100.061477 
L 338.922296 101.90723 
L 339.166949 100.928613 
L 339.411602 94.822175 
L 339.656255 97.10648 
L 339.900908 97.768501 
L 340.145561 94.061869 
L 340.390214 96.014483 
L 340.634867 95.683046 
L 340.87952 98.485803 
L 341.124173 97.66069 
L 341.368826 99.123142 
L 341.613479 95.732695 
L 341.858132 100.412913 
L 342.347438 95.177599 
L 342.592091 94.601744 
L 342.836744 91.605041 
L 343.081397 92.547901 
L 343.32605 89.210964 
L 343.570703 87.588774 
L 343.815356 89.686476 
L 344.304662 80.825189 
L 344.549315 82.715592 
L 344.793968 82.785683 
L 345.038621 79.751387 
L 345.283274 82.467789 
L 345.527927 83.202274 
L 345.77258 77.258391 
L 346.017233 75.930616 
L 346.261886 76.888696 
L 346.751192 81.421201 
L 346.995845 77.759091 
L 347.240498 78.759701 
L 347.485151 77.798963 
L 347.729804 76.363377 
L 347.974457 77.851744 
L 348.463763 73.949585 
L 348.708416 73.17371 
L 348.953069 77.688367 
L 349.197722 79.962135 
L 349.442375 76.548873 
L 349.687028 75.22404 
L 349.931681 76.159052 
L 350.176334 79.005732 
L 350.420987 77.527269 
L 350.66564 78.307226 
L 350.910293 78.335357 
L 351.399599 79.237555 
L 351.644252 81.255703 
L 351.888905 77.545527 
L 352.133558 75.96207 
L 352.378211 77.28744 
L 352.622864 74.726156 
L 352.867517 75.71028 
L 353.11217 79.926916 
L 353.356823 80.255189 
L 353.601476 76.434639 
L 353.846129 75.935014 
L 354.090782 76.860185 
L 354.335435 73.298513 
L 354.580088 71.439311 
L 354.824741 66.421295 
L 355.314047 63.256247 
L 355.5587 58.748266 
L 355.803353 61.372299 
L 356.048006 65.295787 
L 356.292659 61.515931 
L 356.537312 62.209975 
L 356.781965 62.130011 
L 357.515924 55.703496 
L 357.760577 55.431264 
L 358.00523 60.889446 
L 358.249883 57.647915 
L 358.494536 56.620661 
L 358.739189 53.220341 
L 358.983842 62.072831 
L 359.473148 57.942836 
L 359.717801 59.253365 
L 359.962454 61.918852 
L 360.207107 62.119157 
L 360.451761 56.2803 
L 360.696414 62.777254 
L 360.941067 64.99169 
L 361.18572 64.509279 
L 361.430373 59.9994 
L 361.675026 60.526017 
L 361.919679 61.858729 
L 362.164332 64.396944 
L 362.408985 61.035799 
L 362.653638 65.057003 
L 362.898291 65.157408 
L 363.142944 67.68727 
L 363.63225 56.088317 
L 363.876903 58.489609 
L 364.121556 59.778431 
L 364.366209 52.738437 
L 364.855515 59.228176 
L 365.100168 60.886662 
L 365.344821 72.759872 
L 365.589474 67.431588 
L 365.834127 65.908222 
L 366.07878 63.293017 
L 366.323433 67.452504 
L 366.568086 63.447692 
L 366.812739 61.680953 
L 367.057392 66.741151 
L 367.302045 68.702246 
L 367.546698 66.328895 
L 367.791351 70.120111 
L 368.036004 70.419399 
L 368.280657 64.886031 
L 368.52531 63.797008 
L 368.769963 66.922786 
L 369.014616 63.128374 
L 369.259269 67.778784 
L 369.503922 63.799793 
L 369.748575 83.601524 
L 369.993228 79.451056 
L 370.237881 83.407864 
L 370.482534 75.197808 
L 370.727187 77.902311 
L 370.97184 75.956279 
L 371.216493 74.928867 
L 371.461146 71.977826 
L 371.705799 71.417951 
L 371.950452 70.080018 
L 372.195105 69.660864 
L 372.439758 65.049092 
L 372.684411 63.710874 
L 372.929064 66.028658 
L 373.173717 60.158948 
L 373.41837 64.30793 
L 373.663023 60.555477 
L 373.907676 62.961769 
L 374.152329 75.251349 
L 374.396982 64.403114 
L 374.886288 78.082206 
L 375.130941 71.13091 
L 375.375594 69.493785 
L 375.620247 74.065654 
L 375.8649 74.498416 
L 376.354206 65.743705 
L 376.598859 73.607167 
L 376.843512 72.212433 
L 377.088165 72.665446 
L 377.332818 69.170258 
L 377.822124 55.560783 
L 378.066777 55.146185 
L 378.31143 51.91152 
L 378.556083 58.520051 
L 378.800736 50.994482 
L 379.045389 51.597297 
L 379.290042 53.356251 
L 379.534695 56.526204 
L 379.779348 56.546963 
L 380.024001 56.120435 
L 380.268654 52.335833 
L 380.75796 50.811106 
L 381.002613 48.19375 
L 381.247266 48.531959 
L 381.491919 50.076305 
L 381.736572 45.586329 
L 381.981225 43.86 
L 382.225878 43.01935 
L 382.470531 40.644132 
L 382.715184 40.486229 
L 382.959838 39.041814 
L 383.204491 39.747282 
L 383.449144 39.342083 
L 383.693797 40.833488 
L 383.93845 41.105499 
L 384.427756 41.385167 
L 384.672409 42.157023 
L 384.917062 45.231887 
L 385.161715 42.679906 
L 385.406368 44.116821 
L 385.651021 43.360407 
L 385.895674 38.971122 
L 386.140327 37.658726 
L 386.38498 38.493585 
L 386.629633 34.414125 
L 386.874286 36.788077 
L 387.118939 42.462481 
L 387.363592 38.747495 
L 387.608245 39.735321 
L 387.852898 48.062618 
L 387.852898 48.062618 
" style="fill:none;stroke:#1f77b4;stroke-linecap:square;stroke-width:1.5;"/>
   </g>
   <g id="line2d_28">
    <path clip-path="url(#pbdbb9d301d)" d="M 63.198352 271.522885 
L 63.443005 272.476838 
L 63.687658 274.695815 
L 64.176964 276.334125 
L 64.421617 274.467696 
L 64.66627 275.069101 
L 65.400229 272.684219 
L 65.644882 272.870862 
L 65.889535 273.368576 
L 66.134188 269.449074 
L 66.378841 268.847669 
L 66.623494 266.130978 
L 66.868147 265.259977 
L 67.357453 266.11024 
L 67.602106 265.44662 
L 67.846759 265.633263 
L 68.091412 264.783001 
L 68.336066 265.384406 
L 68.580719 265.67474 
L 68.825372 265.031858 
L 69.070025 265.488097 
L 69.314678 265.218501 
L 69.559331 265.135549 
L 69.803984 265.654001 
L 70.048637 263.352072 
L 70.29329 264.160858 
L 70.537943 264.077906 
L 70.782596 265.280716 
L 71.027249 264.596358 
L 71.516555 259.598475 
L 71.761208 260.739071 
L 72.005861 260.842761 
L 72.250514 259.577737 
L 72.495167 259.971761 
L 72.73982 259.681428 
L 72.984473 259.743642 
L 73.229126 259.059284 
L 73.473779 260.19988 
L 73.963085 257.711308 
L 74.207738 257.296546 
L 74.452391 257.79426 
L 74.697044 254.807973 
L 74.941697 254.870187 
L 75.18635 251.842424 
L 75.920309 259.017808 
L 76.164962 260.53169 
L 76.409615 259.391094 
L 76.654268 257.130641 
L 76.898921 256.695141 
L 77.388227 254.745759 
L 77.877533 254.248044 
L 78.122186 254.849449 
L 78.366839 255.82414 
L 78.856145 258.395665 
L 79.345451 253.791806 
L 79.590104 254.28952 
L 80.07941 253.045234 
L 80.324063 254.351735 
L 80.568716 256.695141 
L 80.813369 256.487759 
L 81.058022 256.072997 
L 81.302675 251.469138 
L 81.547328 255.430116 
L 81.791981 255.886354 
L 82.52594 250.556662 
L 82.770593 249.996733 
L 83.015246 248.482851 
L 83.259899 248.793923 
L 83.504552 249.851566 
L 83.749205 248.462113 
L 83.993858 249.685661 
L 84.238511 247.964399 
L 84.483164 248.151042 
L 84.727817 249.685661 
L 84.97247 250.1419 
L 85.217123 249.47828 
L 85.461776 249.250161 
L 85.706429 252.174234 
L 85.951082 252.485305 
L 86.195735 252.402353 
L 86.685041 254.206568 
L 86.929694 251.614305 
L 87.174347 252.257186 
L 87.419 254.807973 
L 87.663653 254.393211 
L 87.908306 255.741188 
L 88.152959 255.222735 
L 88.397612 256.114474 
L 88.642265 256.25964 
L 88.886918 257.130641 
L 89.376224 251.261757 
L 89.86553 251.8839 
L 90.110183 252.588996 
L 90.354836 251.800948 
L 90.599489 251.904639 
L 90.844143 250.971424 
L 91.088796 250.805519 
L 91.333449 251.261757 
L 91.578102 250.287066 
L 91.822755 250.473709 
L 92.067408 248.005875 
L 92.801367 245.081802 
L 93.04602 243.236111 
L 93.290673 242.26142 
L 93.535326 242.759135 
L 93.779979 243.547183 
L 94.024632 243.46423 
L 94.269285 244.12785 
L 94.513938 243.339802 
L 94.758591 245.289183 
L 95.003244 245.226969 
L 95.247897 244.646302 
L 95.49255 245.392874 
L 95.737203 243.941207 
L 95.981856 245.247707 
L 96.226509 243.298325 
L 96.471162 243.02873 
L 96.715815 243.256849 
L 96.960468 242.883563 
L 97.205121 242.821349 
L 97.449774 245.123279 
L 97.694427 249.395328 
L 97.93908 246.906755 
L 98.183733 250.349281 
L 98.428386 242.800611 
L 99.162345 239.75211 
L 99.406998 237.139108 
L 99.651651 236.765823 
L 99.896304 236.745085 
L 100.140957 237.222061 
L 100.38561 234.899393 
L 100.630263 235.003084 
L 100.874916 236.185156 
L 101.119569 236.164418 
L 101.364222 237.242799 
L 101.608875 239.710633 
L 101.853528 239.08849 
L 102.098181 240.249824 
L 102.587487 239.918014 
L 102.83214 238.65299 
L 103.076793 238.839633 
L 103.321446 237.636823 
L 103.566099 238.466347 
L 103.810752 238.196752 
L 104.055405 238.424871 
L 104.300058 235.625227 
L 104.544711 236.993942 
L 104.789364 236.309584 
L 105.034017 237.616085 
L 105.27867 235.210465 
L 105.523323 235.251941 
L 105.767976 234.235774 
L 106.012629 233.800274 
L 106.257282 230.23332 
L 106.501935 233.115916 
L 106.991241 231.933844 
L 107.235894 232.597464 
L 107.480547 229.445272 
L 107.7252 229.735605 
L 107.969853 230.731034 
L 108.214506 230.938415 
L 108.459159 230.751772 
L 108.703812 230.793249 
L 108.948465 230.129629 
L 109.193118 230.793249 
L 109.437771 232.016797 
L 109.927077 229.528224 
L 110.17173 226.832271 
L 110.416383 227.226295 
L 111.150342 225.276913 
L 111.884301 221.398888 
L 112.128954 223.742293 
L 112.373607 223.514174 
L 112.61826 223.721555 
L 112.862913 219.677625 
L 113.107566 217.645291 
L 113.35222 219.262863 
L 113.596873 219.096958 
L 113.841526 217.375695 
L 114.086179 218.060053 
L 114.330832 218.163743 
L 114.575485 219.781315 
L 114.820138 218.910315 
L 115.309444 227.16408 
L 115.79875 219.615411 
L 116.043403 221.709959 
L 116.288056 221.958816 
L 116.532709 224.468127 
L 117.022015 224.074103 
L 117.266668 225.007318 
L 117.511321 222.829817 
L 117.755974 225.442818 
L 118.000627 229.714867 
L 118.24528 229.818558 
L 118.489933 230.461439 
L 118.734586 229.154938 
L 118.979239 225.982009 
L 119.223892 224.737722 
L 119.468545 222.24915 
L 119.713198 223.493436 
L 120.447157 220.548625 
L 120.69181 218.619982 
L 120.936463 217.624553 
L 121.181116 218.246696 
L 121.425769 217.292743 
L 121.670422 215.882552 
L 122.159728 216.546171 
L 122.404381 216.089933 
L 122.649034 216.960933 
L 122.893687 217.230529 
L 123.13834 217.00241 
L 123.382993 216.608386 
L 123.627646 216.442481 
L 123.872299 219.096958 
L 124.116952 219.615411 
L 124.606258 219.905744 
L 124.850911 219.014006 
L 125.095564 219.822792 
L 125.340217 216.525433 
L 125.58487 217.707505 
L 125.829523 216.898719 
L 126.074176 219.428768 
L 126.318829 216.919457 
L 126.563482 219.138434 
L 127.052788 218.163743 
L 127.542094 227.081128 
L 127.786747 226.583414 
L 128.0314 226.935961 
L 128.520706 230.005201 
L 128.765359 229.445272 
L 129.010012 229.673391 
L 129.254665 226.479723 
L 129.499318 229.196415 
L 129.743971 227.309247 
L 129.988624 227.267771 
L 130.47793 229.652653 
L 130.722583 229.154938 
L 130.967236 231.53982 
L 131.211889 232.141225 
L 131.945848 227.288509 
L 132.190501 226.541937 
L 132.435154 227.143342 
L 132.92446 225.712413 
L 133.413766 220.092387 
L 133.903072 225.484294 
L 134.147725 225.214699 
L 134.392378 226.29308 
L 134.637031 225.152484 
L 135.126337 225.608723 
L 135.37099 224.75846 
L 135.615643 224.634032 
L 135.860297 225.546508 
L 136.10495 225.753889 
L 136.594256 228.885343 
L 136.838909 229.154938 
L 137.328215 224.634032 
L 137.572868 224.571817 
L 137.817521 226.998176 
L 138.062174 227.49589 
L 138.306827 225.836842 
L 138.55148 228.014343 
L 138.796133 228.159509 
L 139.285439 227.205557 
L 139.530092 223.680079 
L 139.774745 224.779199 
L 140.019398 225.173223 
L 140.264051 222.186936 
L 140.508704 221.398888 
L 140.753357 221.378149 
L 140.99801 223.244579 
L 141.242663 223.223841 
L 141.731969 224.426651 
L 141.976622 225.940532 
L 142.465928 226.604152 
L 142.710581 224.924365 
L 143.44454 216.940195 
L 143.689193 217.686767 
L 143.933846 216.214362 
L 144.178499 217.520862 
L 144.423152 217.354957 
L 144.667805 218.702934 
L 145.401764 215.633695 
L 145.646417 215.612957 
L 146.135723 219.677625 
L 146.380376 220.320506 
L 146.625029 220.030173 
L 146.869682 217.334219 
L 147.114335 217.831934 
L 147.358988 219.885006 
L 147.603641 219.07622 
L 147.848294 220.050911 
L 148.092947 219.055482 
L 148.3376 218.868839 
L 148.582253 219.864268 
L 148.826906 216.898719 
L 149.071559 217.1061 
L 149.316212 216.919457 
L 149.560865 215.841076 
L 149.805518 215.675171 
L 150.050171 213.788003 
L 150.294824 213.60136 
L 150.78413 212.149693 
L 151.028783 212.813313 
L 151.273436 213.082908 
L 151.518089 214.721218 
L 152.007395 212.999955 
L 152.252048 213.746527 
L 152.496701 212.834051 
L 152.741354 214.990813 
L 153.23066 214.783432 
L 153.475313 214.389408 
L 153.719966 214.928599 
L 153.964619 216.048457 
L 154.209272 216.587647 
L 154.453925 216.504695 
L 154.698578 218.74441 
L 154.943231 219.200649 
L 155.187884 220.030173 
L 155.432537 223.88746 
L 155.67719 223.369007 
L 155.921843 223.534912 
L 156.166496 227.184819 
L 156.411149 227.433676 
L 156.655802 226.832271 
L 156.900455 224.965841 
L 157.145108 224.364436 
L 157.389761 224.447389 
L 157.634414 223.845984 
L 157.879067 222.643174 
L 158.368374 221.295197 
L 158.613027 222.041769 
L 158.85768 224.364436 
L 159.102333 222.228412 
L 159.346986 221.689221 
L 159.591639 221.419626 
L 159.836292 214.970075 
L 160.080945 213.476932 
L 160.325598 212.917003 
L 160.570251 212.792574 
L 160.814904 212.854789 
L 161.059557 211.050574 
L 161.30421 210.967621 
L 161.548863 212.004526 
L 161.793516 211.714193 
L 162.038169 212.481503 
L 162.527475 215.841076 
L 162.772128 219.490982 
L 163.016781 218.288172 
L 163.506087 217.375695 
L 163.75074 217.520862 
L 164.240046 216.131409 
L 164.484699 217.707505 
L 164.729352 218.101529 
L 164.974005 219.345815 
L 165.218658 219.739839 
L 165.463311 219.656887 
L 166.19727 217.1061 
L 166.686576 219.656887 
L 166.931229 222.954245 
L 167.175882 222.995722 
L 167.420535 221.647745 
L 167.909841 225.919794 
L 168.154494 225.359865 
L 168.399147 225.52577 
L 169.133106 221.232983 
L 169.377759 217.686767 
L 169.622412 220.071649 
L 169.867065 217.479386 
L 170.111718 218.288172 
L 170.356371 216.649862 
L 170.601024 217.997839 
L 170.845677 218.018577 
L 171.09033 218.391863 
L 171.334983 218.246696 
L 171.579636 219.719101 
L 171.824289 222.35284 
L 172.068942 223.057936 
L 172.313595 223.12015 
L 172.802901 220.590102 
L 173.292207 224.65477 
L 173.53686 224.799937 
L 173.781513 222.477269 
L 174.026166 224.260746 
L 174.270819 221.232983 
L 174.515472 220.984126 
L 175.004778 218.702934 
L 175.249431 217.645291 
L 175.494084 217.666029 
L 175.98339 216.525433 
L 176.228043 215.260409 
L 176.962002 216.214362 
L 177.206655 215.675171 
L 177.451308 215.737385 
L 177.695961 215.46779 
L 177.940614 217.396434 
L 178.185267 220.258292 
L 178.42992 221.004864 
L 179.163879 215.530004 
L 179.653185 216.649862 
L 179.897838 215.675171 
L 180.142491 216.110671 
L 180.387144 215.90329 
L 180.631798 215.447052 
L 180.876451 214.659004 
L 181.121104 215.011552 
L 181.365757 213.228075 
L 181.855063 212.751098 
L 182.344369 215.426314 
L 182.589022 215.488528 
L 182.833675 218.246696 
L 183.078328 217.811196 
L 183.322981 218.122267 
L 183.567634 217.292743 
L 184.05694 217.935624 
L 184.301593 216.836505 
L 184.546246 217.603815 
L 185.035552 214.887123 
L 185.280205 214.513837 
L 185.524858 214.866385 
L 185.769511 214.783432 
L 186.014164 214.970075 
L 186.258817 213.352503 
L 186.748123 217.520862 
L 186.992776 216.940195 
L 187.237429 216.940195 
L 187.482082 215.924028 
L 187.726735 216.027719 
L 187.971388 211.96305 
L 188.216041 211.029836 
L 188.460694 210.946883 
L 188.705347 210.532121 
L 188.95 208.997501 
L 189.439306 209.55743 
L 189.683959 199.93495 
L 189.928612 194.708948 
L 190.173265 193.879424 
L 190.417918 194.128281 
L 190.662571 193.775733 
L 191.39653 191.059041 
L 191.641183 189.005969 
L 192.130489 198.338116 
L 192.375142 196.409472 
L 192.619795 192.925471 
L 192.864448 194.563781 
L 193.109101 198.483283 
L 193.353754 197.819663 
L 193.598407 197.881878 
L 193.84306 198.669926 
L 194.087713 197.550068 
L 194.821672 191.930042 
L 195.066325 191.411589 
L 195.555631 193.174328 
L 195.800284 190.001398 
L 196.044937 192.324066 
L 196.28959 190.374684 
L 196.534243 190.291732 
L 197.023549 194.149019 
L 197.512855 188.923017 
L 197.757508 189.503684 
L 198.002161 191.141994 
L 198.246814 187.782421 
L 198.491467 189.897708 
L 198.73612 190.976089 
L 198.980773 195.020019 
L 199.225426 196.056925 
L 199.470079 200.722998 
L 199.959385 195.766591 
L 200.204038 192.427756 
L 200.448691 187.554302 
L 200.693344 189.337779 
L 200.937997 186.310016 
L 201.18265 185.915992 
L 201.427303 184.920563 
L 201.671956 182.597895 
L 201.916609 182.950443 
L 202.161262 180.669251 
L 202.405915 180.669251 
L 202.650568 183.6348 
L 203.139875 184.277681 
L 203.384528 181.146228 
L 203.873834 179.342013 
L 204.118487 179.383489 
L 204.607793 177.600012 
L 204.852446 179.176108 
L 205.097099 179.611608 
L 205.341752 183.862919 
L 206.075711 179.093155 
L 206.320364 178.844298 
L 206.565017 181.726895 
L 206.80967 180.295966 
L 207.054323 176.770488 
L 207.543629 179.342013 
L 208.277588 176.272773 
L 208.522241 174.634463 
L 209.011547 177.724441 
L 209.2562 174.966273 
L 209.500853 175.98244 
L 209.745506 175.422511 
L 209.990159 181.623204 
L 210.724118 171.523748 
L 210.968771 168.267865 
L 211.213424 167.728675 
L 211.458077 168.143437 
L 211.70273 167.749413 
L 211.947383 166.13184 
L 212.192036 166.671031 
L 212.436689 165.219364 
L 213.170648 173.556082 
L 213.659954 161.590196 
L 213.904607 165.385269 
L 214.393913 167.790889 
L 214.638566 170.051342 
L 214.883219 173.431653 
L 215.127872 166.982103 
L 215.372525 168.786318 
L 215.617178 168.205651 
L 215.861831 162.938172 
L 216.106484 164.38984 
L 216.351137 162.336767 
L 216.59579 164.82534 
L 216.840443 165.69634 
L 217.085096 159.723766 
L 217.329749 166.35996 
L 217.574402 166.339222 
L 217.819055 160.511814 
L 218.063708 158.085456 
L 218.308361 156.882646 
L 218.553014 156.778956 
L 218.797667 158.230623 
L 219.04232 153.398645 
L 219.286973 154.145216 
L 219.531626 150.308667 
L 219.776279 150.868596 
L 220.020932 150.640477 
L 220.265585 150.661215 
L 220.510238 152.838716 
L 220.754891 150.142762 
L 220.999544 150.05981 
L 221.244197 140.789877 
L 221.48885 141.702354 
L 221.978156 144.937498 
L 222.222809 142.096378 
L 222.467462 142.200069 
L 222.712115 144.91676 
L 222.956768 142.531878 
L 223.201421 145.559641 
L 223.446074 143.900593 
L 223.690727 149.479143 
L 223.93538 148.4215 
L 224.180033 142.137854 
L 224.424686 144.792332 
L 224.669339 141.30833 
L 224.913992 143.216236 
L 225.158645 142.17933 
L 225.403298 144.087236 
L 225.647952 139.255258 
L 225.892605 142.200069 
L 226.137258 142.034164 
L 226.381911 147.156475 
L 226.626564 149.873167 
L 226.871217 146.783189 
L 227.11587 145.186355 
L 227.360523 147.301642 
L 227.605176 148.297071 
L 227.849829 145.372998 
L 228.094482 144.522736 
L 228.339135 145.870713 
L 228.583788 143.195498 
L 228.828441 145.310784 
L 229.073094 143.921331 
L 229.317747 145.580379 
L 229.5624 146.389166 
L 229.807053 147.633452 
L 230.051706 147.799357 
L 230.296359 150.433096 
L 230.541012 148.857 
L 230.785665 148.214119 
L 231.030318 148.587405 
L 231.274971 146.575808 
L 231.519624 147.114999 
L 231.764277 151.905501 
L 232.00893 153.585288 
L 232.498236 161.051005 
L 232.742889 155.721312 
L 232.987542 154.663669 
L 233.232195 158.81129 
L 233.476848 158.292837 
L 233.966154 149.665786 
L 234.210807 150.847858 
L 234.45546 149.562095 
L 234.700113 152.320263 
L 234.944766 150.764905 
L 235.434072 145.808499 
L 235.678725 149.935381 
L 235.923378 150.433096 
L 236.168031 150.619739 
L 236.412684 150.308667 
L 236.657337 152.859454 
L 236.90199 150.308667 
L 237.146643 150.246453 
L 237.391296 151.843287 
L 237.635949 151.324834 
L 237.880602 151.490739 
L 238.125255 148.234857 
L 238.614561 154.020788 
L 239.103867 155.762789 
L 239.34852 152.755763 
L 239.593173 152.112882 
L 240.082479 154.76736 
L 240.571785 153.813407 
L 240.816438 150.951548 
L 241.305744 148.4215 
L 241.550397 148.193381 
L 241.79505 149.914643 
L 242.039703 150.142762 
L 242.284356 149.396191 
L 242.529009 153.66824 
L 242.773662 152.444692 
L 243.018315 150.49531 
L 243.262968 151.69812 
L 243.507621 152.050668 
L 243.752274 149.810953 
L 243.996927 152.714287 
L 244.24158 151.926239 
L 244.730886 144.626427 
L 244.975539 143.672474 
L 245.220192 143.216236 
L 245.464845 144.978974 
L 245.709498 145.518165 
L 245.954151 147.716404 
L 246.198804 146.783189 
L 246.443457 144.626427 
L 246.68811 145.269308 
L 246.932763 147.343118 
L 247.177416 148.4215 
L 247.666722 141.577925 
L 247.911375 141.391282 
L 248.156029 140.209211 
L 248.400682 140.499544 
L 248.889988 138.197614 
L 249.134641 141.183901 
L 249.379294 140.416592 
L 249.623947 139.027139 
L 249.8686 138.840496 
L 250.113253 138.840496 
L 250.602559 134.568446 
L 250.847212 134.672137 
L 251.091865 128.243325 
L 251.336518 128.326277 
L 251.581171 132.930136 
L 252.070477 149.520619 
L 252.31513 152.776502 
L 252.559783 142.490402 
L 252.804436 138.90271 
L 253.049089 139.193043 
L 253.293742 141.391282 
L 253.538395 148.4215 
L 253.783048 141.349806 
L 254.027701 141.100949 
L 254.272354 145.621856 
L 254.517007 141.453497 
L 254.76166 146.55507 
L 255.006313 145.476689 
L 255.250966 143.506569 
L 255.495619 144.978974 
L 255.984925 138.5709 
L 256.229578 138.384257 
L 256.474231 144.170188 
L 256.718884 141.142425 
L 256.963537 142.759997 
L 257.20819 141.992687 
L 257.452843 141.64014 
L 257.697496 140.810616 
L 257.942149 146.285475 
L 258.186802 148.753309 
L 258.676108 140.209211 
L 258.920761 138.591638 
L 259.165414 135.709042 
L 259.410067 136.787423 
L 260.144026 131.291826 
L 260.388679 130.109754 
L 260.633332 130.711159 
L 260.877985 133.490065 
L 261.367291 128.367753 
L 261.611944 127.621181 
L 261.856597 128.139634 
L 262.10125 127.206419 
L 262.345903 125.00818 
L 262.590556 124.489728 
L 262.835209 123.660204 
L 263.569168 126.522062 
L 263.813821 126.501324 
L 264.058474 124.90449 
L 264.303127 122.312227 
L 264.54778 122.892894 
L 265.037086 121.648607 
L 265.281739 124.717847 
L 265.526392 123.141751 
L 265.771045 124.282347 
L 266.015698 126.148776 
L 266.260351 134.049994 
L 266.505004 132.307993 
L 266.749657 121.233845 
L 267.238963 119.823654 
L 267.728269 108.127364 
L 268.217575 103.668671 
L 268.462228 103.482028 
L 268.706881 105.265505 
L 268.951534 104.12491 
L 269.196187 105.410672 
L 269.44084 111.383246 
L 269.685493 103.917529 
L 269.930146 105.161815 
L 270.174799 105.348458 
L 270.419452 109.37165 
L 270.664106 108.044411 
L 270.908759 112.399413 
L 271.153412 109.143531 
L 271.398065 110.636674 
L 271.642718 107.29784 
L 272.132024 112.710485 
L 272.865983 106.862339 
L 273.355289 107.754078 
L 273.599942 105.638791 
L 273.844595 106.364625 
L 274.823207 115.219795 
L 275.06786 122.851418 
L 275.312513 125.962133 
L 275.801819 118.517154 
L 276.046472 131.146659 
L 276.291125 134.838042 
L 276.535778 135.646828 
L 276.780431 134.547708 
L 277.025084 141.391282 
L 277.51439 128.326277 
L 277.759043 130.503778 
L 278.003696 129.487611 
L 278.248349 130.794111 
L 278.493002 129.321706 
L 278.737655 122.104846 
L 278.982308 120.549488 
L 279.471614 126.190252 
L 279.716267 131.748064 
L 280.205573 150.951548 
L 280.450226 146.783189 
L 280.694879 145.808499 
L 280.939532 148.006738 
L 281.673491 131.540683 
L 281.918144 134.112208 
L 282.652103 124.655633 
L 283.141409 119.823654 
L 283.386062 121.067941 
L 283.630715 125.505895 
L 283.875368 122.229274 
L 284.120021 122.457394 
L 284.364674 119.948083 
L 284.609327 122.519608 
L 285.098633 120.113988 
L 285.343286 121.544917 
L 285.587939 121.83525 
L 285.832592 116.505558 
L 286.077245 115.71751 
L 286.566551 112.378675 
L 287.055857 110.512246 
L 287.789816 112.855651 
L 288.034469 112.357937 
L 288.279122 111.072174 
L 288.768428 106.219458 
L 289.013081 106.19872 
L 289.257734 103.253909 
L 289.502387 103.253909 
L 289.74704 103.813838 
L 289.991693 102.030361 
L 290.236346 105.286243 
L 290.480999 105.804696 
L 290.725652 107.06972 
L 290.970305 104.2286 
L 291.214958 105.348458 
L 291.704264 102.9221 
L 291.948917 99.209979 
L 292.19357 102.030361 
L 292.438223 102.548814 
L 292.682876 103.772362 
L 292.92753 101.574123 
L 293.172183 101.594861 
L 293.416836 102.237742 
L 293.661489 101.38748 
L 293.906142 107.650387 
L 294.150795 105.244767 
L 294.395448 100.765337 
L 294.640101 103.89679 
L 294.884754 102.611028 
L 295.129407 103.627195 
L 295.37406 101.49117 
L 295.618713 100.371313 
L 295.863366 97.737574 
L 296.108019 104.394505 
L 296.352672 104.622624 
L 296.597325 106.820863 
L 296.841978 102.237742 
L 297.086631 109.164269 
L 297.331284 109.641245 
L 297.575937 109.724198 
L 297.82059 109.47534 
L 298.065243 110.367079 
L 298.309896 106.343887 
L 298.554549 106.675696 
L 298.799202 104.912958 
L 299.043855 105.141077 
L 299.288508 108.915412 
L 299.533161 109.516817 
L 299.777814 108.314007 
L 300.022467 109.70346 
L 300.26712 114.991676 
L 300.511773 113.477795 
L 301.245732 115.738248 
L 301.490385 117.812058 
L 301.735038 123.183227 
L 302.224344 118.786749 
L 302.468997 119.242987 
L 302.71365 118.247558 
L 302.958303 117.998701 
L 303.202956 118.289035 
L 303.447609 116.858105 
L 303.936915 124.365299 
L 304.181568 118.434201 
L 304.426221 118.766011 
L 304.670874 118.102392 
L 304.915527 114.099938 
L 305.16018 114.659866 
L 305.404833 110.056007 
L 305.649486 110.90627 
L 305.894139 104.311553 
L 306.138792 102.631766 
L 306.383445 103.274647 
L 306.628098 105.929125 
L 306.872751 103.89679 
L 307.117404 103.399076 
L 307.362057 100.163932 
L 307.851363 97.944955 
L 308.096016 100.723861 
L 308.340669 99.790646 
L 308.585322 99.832122 
L 308.829975 99.313669 
L 309.074628 100.226146 
L 309.319281 96.804359 
L 309.563934 96.223692 
L 309.808587 95.124572 
L 310.05324 98.338979 
L 310.297893 98.670788 
L 310.542546 100.765337 
L 310.787199 98.98186 
L 311.031852 100.433527 
L 311.276505 100.640908 
L 311.521158 101.698551 
L 311.765811 98.712264 
L 312.010464 99.686955 
L 312.255117 98.670788 
L 312.49977 100.392051 
L 312.744423 100.557956 
L 312.989076 103.3576 
L 313.233729 101.988885 
L 313.478382 102.237742 
L 313.723035 100.412789 
L 313.967688 102.818409 
L 314.212341 102.051099 
L 314.456994 104.270076 
L 314.701647 102.445123 
L 314.9463 104.809267 
L 315.190953 104.767791 
L 315.435607 104.539672 
L 315.68026 102.631766 
L 316.169566 107.525959 
L 316.414219 110.698889 
L 316.658872 117.998701 
L 316.903525 116.235962 
L 317.148178 122.187798 
L 317.637484 119.616273 
L 317.882137 121.379012 
L 318.12679 121.005726 
L 318.371443 119.885869 
L 318.616096 117.231391 
L 318.860749 115.904153 
L 319.105402 117.895011 
L 319.350055 122.747727 
L 319.839361 116.899582 
L 320.084014 117.604677 
L 320.328667 116.049319 
L 320.57332 116.422605 
L 320.817973 117.044748 
L 321.062626 118.330511 
L 321.307279 112.917866 
L 321.796585 119.014868 
L 322.041238 121.918203 
L 322.285891 120.176202 
L 322.530544 121.005726 
L 322.775197 120.736131 
L 323.01985 123.390608 
L 323.264503 122.146322 
L 323.509156 121.83525 
L 323.998462 120.362845 
L 324.243115 117.915749 
L 324.487768 127.123467 
L 324.977074 129.363182 
L 325.221727 126.625752 
L 325.711033 134.278113 
L 325.955686 133.448589 
L 326.200339 133.676708 
L 326.444992 132.162826 
L 326.689645 126.273205 
L 326.934298 125.236299 
L 327.178951 121.565655 
L 327.423604 115.323486 
L 327.668257 113.622961 
L 327.91291 118.143868 
L 328.157563 124.925228 
L 328.402216 122.996584 
L 328.646869 115.530867 
L 328.891522 116.775153 
L 329.136175 117.003272 
L 329.380828 111.279555 
L 329.625481 110.802579 
L 329.870134 110.056007 
L 330.35944 114.099938 
L 330.604093 114.556176 
L 330.848746 114.411009 
L 331.093399 113.581485 
L 331.338052 113.975509 
L 331.582705 115.924891 
L 331.827358 108.210316 
L 332.072011 108.065149 
L 332.561317 103.813838 
L 332.80597 99.74917 
L 333.050623 100.910504 
L 333.295276 101.200837 
L 333.539929 102.714719 
L 333.784582 102.030361 
L 334.029235 98.567098 
L 334.273888 99.147765 
L 334.518541 102.051099 
L 334.763194 102.839147 
L 335.007847 102.403647 
L 335.2525 102.797671 
L 335.497153 102.735457 
L 335.741806 104.850743 
L 335.986459 104.373767 
L 336.231112 101.905932 
L 336.475765 105.224029 
L 336.720418 105.991339 
L 336.965071 104.373767 
L 337.209724 100.661646 
L 337.454377 101.49117 
L 337.69903 102.797671 
L 337.943684 102.859885 
L 338.188337 101.014194 
L 338.43299 100.537218 
L 338.677643 102.134052 
L 338.922296 101.698551 
L 339.166949 96.57624 
L 339.411602 96.596978 
L 339.656255 97.799788 
L 339.900908 95.767454 
L 340.145561 96.037049 
L 340.390214 95.746716 
L 340.634867 97.592407 
L 340.87952 97.88274 
L 341.124173 98.898907 
L 341.368826 96.762883 
L 341.613479 99.85286 
L 341.858132 99.521051 
L 342.592091 92.884857 
L 342.836744 92.843381 
L 343.32605 88.032141 
L 343.570703 89.380118 
L 344.060009 82.163258 
L 344.304662 81.686281 
L 344.549315 82.806139 
L 344.793968 80.234614 
L 345.283274 82.391377 
L 345.77258 76.086993 
L 346.017233 76.377327 
L 346.261886 77.787518 
L 346.506539 80.089447 
L 346.751192 78.223018 
L 346.995845 78.845161 
L 347.240498 78.368184 
L 347.485151 77.165374 
L 347.729804 77.725303 
L 348.463763 72.665206 
L 348.953069 78.865899 
L 349.442375 76.004041 
L 349.687028 76.584708 
L 349.931681 78.326708 
L 350.176334 77.642351 
L 350.66564 78.160803 
L 350.910293 78.409661 
L 351.399599 79.425828 
L 351.644252 78.803685 
L 351.888905 77.559398 
L 352.133558 77.787518 
L 352.378211 75.547802 
L 352.622864 75.56854 
L 352.867517 79.011066 
L 353.11217 80.317566 
L 353.356823 77.414232 
L 353.601476 76.481017 
L 353.846129 77.600875 
L 355.314047 59.143962 
L 355.5587 59.185438 
L 355.803353 63.10494 
L 356.048006 61.57032 
L 356.292659 61.46663 
L 356.537312 61.756963 
L 357.515924 54.975603 
L 357.760577 58.978057 
L 358.494536 54.706008 
L 358.739189 59.206176 
L 358.983842 60.014962 
L 359.228495 58.770676 
L 359.473148 59.475772 
L 359.717801 61.819178 
L 359.962454 61.46663 
L 360.207107 58.438867 
L 360.696414 63.789297 
L 360.941067 64.556607 
L 361.18572 61.155558 
L 361.430373 60.740796 
L 361.919679 63.125678 
L 362.164332 61.549582 
L 362.408985 64.577345 
L 362.898291 67.314775 
L 363.142944 63.561178 
L 363.387597 57.816723 
L 363.63225 57.795985 
L 363.876903 58.065581 
L 364.121556 53.565412 
L 364.855515 60.471201 
L 365.100168 69.11899 
L 365.344821 68.890871 
L 365.834127 65.137274 
L 366.07878 67.356251 
L 366.323433 64.784726 
L 366.568086 63.519702 
L 366.812739 66.257132 
L 367.057392 67.58437 
L 367.302045 67.211085 
L 367.791351 70.591395 
L 368.036004 66.464513 
L 368.280657 65.012846 
L 368.52531 65.863108 
L 368.769963 63.768559 
L 369.014616 67.335513 
L 369.259269 64.992107 
L 369.503922 77.994899 
L 369.748575 78.782947 
L 369.993228 83.075734 
L 370.237881 78.119327 
L 370.482534 78.699994 
L 370.727187 76.543231 
L 370.97184 75.817398 
L 371.216493 72.665206 
L 371.461146 72.146753 
L 371.705799 70.798777 
L 371.950452 70.197372 
L 372.195105 66.132703 
L 372.439758 64.888417 
L 372.684411 64.888417 
L 372.929064 60.927439 
L 373.173717 63.789297 
L 373.41837 61.715487 
L 373.663023 63.001249 
L 373.907676 71.483134 
L 374.152329 67.169608 
L 374.641635 77.040946 
L 374.886288 73.49473 
L 375.130941 72.022325 
L 375.620247 75.46485 
L 376.109553 68.953085 
L 376.354206 72.167491 
L 376.598859 71.835682 
L 376.843512 72.105277 
L 377.088165 70.21811 
L 377.332818 65.759417 
L 377.577471 58.231486 
L 378.066777 51.802673 
L 378.31143 54.477889 
L 378.556083 51.284221 
L 378.800736 51.056102 
L 379.045389 52.38334 
L 379.534695 55.639223 
L 379.779348 55.950294 
L 380.024001 53.835007 
L 380.268654 52.777364 
L 381.002613 48.484577 
L 381.247266 49.189672 
L 381.736572 43.714813 
L 381.981225 42.76086 
L 382.225878 40.375978 
L 382.470531 40.127121 
L 382.715184 38.405858 
L 383.204491 39.25612 
L 383.449144 40.396716 
L 383.693797 40.210073 
L 383.93845 41.578788 
L 384.183103 41.827645 
L 384.427756 42.346098 
L 384.672409 44.150313 
L 384.917062 43.942932 
L 385.161715 44.378432 
L 385.406368 43.984408 
L 385.895674 38.592501 
L 386.140327 38.509549 
L 386.38498 35.232928 
L 386.629633 35.875809 
L 386.874286 40.085645 
L 387.118939 39.110954 
L 387.363592 39.940478 
L 387.608245 45.477552 
L 387.852898 41.99355 
L 387.852898 41.99355 
" style="fill:none;stroke:#ff7f0e;stroke-linecap:square;stroke-width:1.5;"/>
   </g>
   <g id="patch_3">
    <path d="M 46.965625 288.430125 
L 46.965625 22.318125 
" style="fill:none;stroke:#000000;stroke-linecap:square;stroke-linejoin:miter;stroke-width:0.8;"/>
   </g>
   <g id="patch_4">
    <path d="M 404.085625 288.430125 
L 404.085625 22.318125 
" style="fill:none;stroke:#000000;stroke-linecap:square;stroke-linejoin:miter;stroke-width:0.8;"/>
   </g>
   <g id="patch_5">
    <path d="M 46.965625 288.430125 
L 404.085625 288.430125 
" style="fill:none;stroke:#000000;stroke-linecap:square;stroke-linejoin:miter;stroke-width:0.8;"/>
   </g>
   <g id="patch_6">
    <path d="M 46.965625 22.318125 
L 404.085625 22.318125 
" style="fill:none;stroke:#000000;stroke-linecap:square;stroke-linejoin:miter;stroke-width:0.8;"/>
   </g>
   <g id="text_16">
    <!-- Training: HD -->
    <defs>
     <path d="M -0.296875 72.90625 
L 61.375 72.90625 
L 61.375 64.59375 
L 35.5 64.59375 
L 35.5 0 
L 25.59375 0 
L 25.59375 64.59375 
L -0.296875 64.59375 
z
" id="DejaVuSans-84"/>
     <path d="M 54.890625 33.015625 
L 54.890625 0 
L 45.90625 0 
L 45.90625 32.71875 
Q 45.90625 40.484375 42.875 44.328125 
Q 39.84375 48.1875 33.796875 48.1875 
Q 26.515625 48.1875 22.3125 43.546875 
Q 18.109375 38.921875 18.109375 30.90625 
L 18.109375 0 
L 9.078125 0 
L 9.078125 54.6875 
L 18.109375 54.6875 
L 18.109375 46.1875 
Q 21.34375 51.125 25.703125 53.5625 
Q 30.078125 56 35.796875 56 
Q 45.21875 56 50.046875 50.171875 
Q 54.890625 44.34375 54.890625 33.015625 
z
" id="DejaVuSans-110"/>
     <path d="M 45.40625 27.984375 
Q 45.40625 37.75 41.375 43.109375 
Q 37.359375 48.484375 30.078125 48.484375 
Q 22.859375 48.484375 18.828125 43.109375 
Q 14.796875 37.75 14.796875 27.984375 
Q 14.796875 18.265625 18.828125 12.890625 
Q 22.859375 7.515625 30.078125 7.515625 
Q 37.359375 7.515625 41.375 12.890625 
Q 45.40625 18.265625 45.40625 27.984375 
z
M 54.390625 6.78125 
Q 54.390625 -7.171875 48.1875 -13.984375 
Q 42 -20.796875 29.203125 -20.796875 
Q 24.46875 -20.796875 20.265625 -20.09375 
Q 16.0625 -19.390625 12.109375 -17.921875 
L 12.109375 -9.1875 
Q 16.0625 -11.328125 19.921875 -12.34375 
Q 23.78125 -13.375 27.78125 -13.375 
Q 36.625 -13.375 41.015625 -8.765625 
Q 45.40625 -4.15625 45.40625 5.171875 
L 45.40625 9.625 
Q 42.625 4.78125 38.28125 2.390625 
Q 33.9375 0 27.875 0 
Q 17.828125 0 11.671875 7.65625 
Q 5.515625 15.328125 5.515625 27.984375 
Q 5.515625 40.671875 11.671875 48.328125 
Q 17.828125 56 27.875 56 
Q 33.9375 56 38.28125 53.609375 
Q 42.625 51.21875 45.40625 46.390625 
L 45.40625 54.6875 
L 54.390625 54.6875 
z
" id="DejaVuSans-103"/>
     <path d="M 11.71875 12.40625 
L 22.015625 12.40625 
L 22.015625 0 
L 11.71875 0 
z
M 11.71875 51.703125 
L 22.015625 51.703125 
L 22.015625 39.3125 
L 11.71875 39.3125 
z
" id="DejaVuSans-58"/>
     <path d="M 9.8125 72.90625 
L 19.671875 72.90625 
L 19.671875 43.015625 
L 55.515625 43.015625 
L 55.515625 72.90625 
L 65.375 72.90625 
L 65.375 0 
L 55.515625 0 
L 55.515625 34.71875 
L 19.671875 34.71875 
L 19.671875 0 
L 9.8125 0 
z
" id="DejaVuSans-72"/>
    </defs>
    <g transform="translate(188.794375 16.318125)scale(0.12 -0.12)">
     <use xlink:href="#DejaVuSans-84"/>
     <use x="46.333984" xlink:href="#DejaVuSans-114"/>
     <use x="87.447266" xlink:href="#DejaVuSans-97"/>
     <use x="148.726562" xlink:href="#DejaVuSans-105"/>
     <use x="176.509766" xlink:href="#DejaVuSans-110"/>
     <use x="239.888672" xlink:href="#DejaVuSans-105"/>
     <use x="267.671875" xlink:href="#DejaVuSans-110"/>
     <use x="331.050781" xlink:href="#DejaVuSans-103"/>
     <use x="394.527344" xlink:href="#DejaVuSans-58"/>
     <use x="428.21875" xlink:href="#DejaVuSans-32"/>
     <use x="460.005859" xlink:href="#DejaVuSans-72"/>
     <use x="535.201172" xlink:href="#DejaVuSans-68"/>
    </g>
   </g>
   <g id="legend_1">
    <g id="patch_7">
     <path d="M 53.965625 59.674375 
L 137.69375 59.674375 
Q 139.69375 59.674375 139.69375 57.674375 
L 139.69375 29.318125 
Q 139.69375 27.318125 137.69375 27.318125 
L 53.965625 27.318125 
Q 51.965625 27.318125 51.965625 29.318125 
L 51.965625 57.674375 
Q 51.965625 59.674375 53.965625 59.674375 
z
" style="fill:#ffffff;opacity:0.8;stroke:#cccccc;stroke-linejoin:miter;"/>
    </g>
    <g id="line2d_29">
     <path d="M 55.965625 35.416562 
L 75.965625 35.416562 
" style="fill:none;stroke:#1f77b4;stroke-linecap:square;stroke-width:1.5;"/>
    </g>
    <g id="line2d_30"/>
    <g id="text_17">
     <!-- Predicted -->
     <defs>
      <path d="M 45.40625 46.390625 
L 45.40625 75.984375 
L 54.390625 75.984375 
L 54.390625 0 
L 45.40625 0 
L 45.40625 8.203125 
Q 42.578125 3.328125 38.25 0.953125 
Q 33.9375 -1.421875 27.875 -1.421875 
Q 17.96875 -1.421875 11.734375 6.484375 
Q 5.515625 14.40625 5.515625 27.296875 
Q 5.515625 40.1875 11.734375 48.09375 
Q 17.96875 56 27.875 56 
Q 33.9375 56 38.25 53.625 
Q 42.578125 51.265625 45.40625 46.390625 
z
M 14.796875 27.296875 
Q 14.796875 17.390625 18.875 11.75 
Q 22.953125 6.109375 30.078125 6.109375 
Q 37.203125 6.109375 41.296875 11.75 
Q 45.40625 17.390625 45.40625 27.296875 
Q 45.40625 37.203125 41.296875 42.84375 
Q 37.203125 48.484375 30.078125 48.484375 
Q 22.953125 48.484375 18.875 42.84375 
Q 14.796875 37.203125 14.796875 27.296875 
z
" id="DejaVuSans-100"/>
      <path d="M 18.3125 70.21875 
L 18.3125 54.6875 
L 36.8125 54.6875 
L 36.8125 47.703125 
L 18.3125 47.703125 
L 18.3125 18.015625 
Q 18.3125 11.328125 20.140625 9.421875 
Q 21.96875 7.515625 27.59375 7.515625 
L 36.8125 7.515625 
L 36.8125 0 
L 27.59375 0 
Q 17.1875 0 13.234375 3.875 
Q 9.28125 7.765625 9.28125 18.015625 
L 9.28125 47.703125 
L 2.6875 47.703125 
L 2.6875 54.6875 
L 9.28125 54.6875 
L 9.28125 70.21875 
z
" id="DejaVuSans-116"/>
     </defs>
     <g transform="translate(83.965625 38.916562)scale(0.1 -0.1)">
      <use xlink:href="#DejaVuSans-80"/>
      <use x="58.552734" xlink:href="#DejaVuSans-114"/>
      <use x="97.416016" xlink:href="#DejaVuSans-101"/>
      <use x="158.939453" xlink:href="#DejaVuSans-100"/>
      <use x="222.416016" xlink:href="#DejaVuSans-105"/>
      <use x="250.199219" xlink:href="#DejaVuSans-99"/>
      <use x="305.179688" xlink:href="#DejaVuSans-116"/>
      <use x="344.388672" xlink:href="#DejaVuSans-101"/>
      <use x="405.912109" xlink:href="#DejaVuSans-100"/>
     </g>
    </g>
    <g id="line2d_31">
     <path d="M 55.965625 50.094687 
L 75.965625 50.094687 
" style="fill:none;stroke:#ff7f0e;stroke-linecap:square;stroke-width:1.5;"/>
    </g>
    <g id="line2d_32"/>
    <g id="text_18">
     <!-- True value -->
     <defs>
      <path d="M 8.5 21.578125 
L 8.5 54.6875 
L 17.484375 54.6875 
L 17.484375 21.921875 
Q 17.484375 14.15625 20.5 10.265625 
Q 23.53125 6.390625 29.59375 6.390625 
Q 36.859375 6.390625 41.078125 11.03125 
Q 45.3125 15.671875 45.3125 23.6875 
L 45.3125 54.6875 
L 54.296875 54.6875 
L 54.296875 0 
L 45.3125 0 
L 45.3125 8.40625 
Q 42.046875 3.421875 37.71875 1 
Q 33.40625 -1.421875 27.6875 -1.421875 
Q 18.265625 -1.421875 13.375 4.4375 
Q 8.5 10.296875 8.5 21.578125 
z
M 31.109375 56 
z
" id="DejaVuSans-117"/>
      <path d="M 2.984375 54.6875 
L 12.5 54.6875 
L 29.59375 8.796875 
L 46.6875 54.6875 
L 56.203125 54.6875 
L 35.6875 0 
L 23.484375 0 
z
" id="DejaVuSans-118"/>
      <path d="M 9.421875 75.984375 
L 18.40625 75.984375 
L 18.40625 0 
L 9.421875 0 
z
" id="DejaVuSans-108"/>
     </defs>
     <g transform="translate(83.965625 53.594687)scale(0.1 -0.1)">
      <use xlink:href="#DejaVuSans-84"/>
      <use x="46.333984" xlink:href="#DejaVuSans-114"/>
      <use x="87.447266" xlink:href="#DejaVuSans-117"/>
      <use x="150.826172" xlink:href="#DejaVuSans-101"/>
      <use x="212.349609" xlink:href="#DejaVuSans-32"/>
      <use x="244.136719" xlink:href="#DejaVuSans-118"/>
      <use x="303.316406" xlink:href="#DejaVuSans-97"/>
      <use x="364.595703" xlink:href="#DejaVuSans-108"/>
      <use x="392.378906" xlink:href="#DejaVuSans-117"/>
      <use x="455.757812" xlink:href="#DejaVuSans-101"/>
     </g>
    </g>
   </g>
  </g>
 </g>
 <defs>
  <clipPath id="pbdbb9d301d">
   <rect height="266.112" width="357.12" x="46.965625" y="22.318125"/>
  </clipPath>
 </defs>
</svg>
