<?xml version="1.0" encoding="utf-8" standalone="no"?>
<!DOCTYPE svg PUBLIC "-//W3C//DTD SVG 1.1//EN"
  "http://www.w3.org/Graphics/SVG/1.1/DTD/svg11.dtd">
<!-- Created with matplotlib (https://matplotlib.org/) -->
<svg height="325.986375pt" version="1.1" viewBox="0 0 416.480937 325.986375" width="416.480937pt" xmlns="http://www.w3.org/2000/svg" xmlns:xlink="http://www.w3.org/1999/xlink">
 <defs>
  <style type="text/css">
*{stroke-linecap:butt;stroke-linejoin:round;}
  </style>
 </defs>
 <g id="figure_1">
  <g id="patch_1">
   <path d="M 0 325.986375 
L 416.480937 325.986375 
L 416.480937 0 
L 0 0 
z
" style="fill:#ffffff;"/>
  </g>
  <g id="axes_1">
   <g id="patch_2">
    <path d="M 52.160938 288.430125 
L 409.280938 288.430125 
L 409.280938 22.318125 
L 52.160938 22.318125 
z
" style="fill:#ffffff;"/>
   </g>
   <g id="matplotlib.axis_1">
    <g id="xtick_1">
     <g id="line2d_1">
      <path clip-path="url(#p60d8e64de9)" d="M 68.393665 288.430125 
L 68.393665 22.318125 
" style="fill:none;stroke:#b0b0b0;stroke-dasharray:2.96,1.28;stroke-dashoffset:0;stroke-width:0.8;"/>
     </g>
     <g id="line2d_2">
      <defs>
       <path d="M 0 0 
L 0 3.5 
" id="m8ea50fee2e" style="stroke:#000000;stroke-width:0.8;"/>
      </defs>
      <g>
       <use style="stroke:#000000;stroke-width:0.8;" x="68.393665" xlink:href="#m8ea50fee2e" y="288.430125"/>
      </g>
     </g>
     <g id="text_1">
      <!-- 0 -->
      <defs>
       <path d="M 31.78125 66.40625 
Q 24.171875 66.40625 20.328125 58.90625 
Q 16.5 51.421875 16.5 36.375 
Q 16.5 21.390625 20.328125 13.890625 
Q 24.171875 6.390625 31.78125 6.390625 
Q 39.453125 6.390625 43.28125 13.890625 
Q 47.125 21.390625 47.125 36.375 
Q 47.125 51.421875 43.28125 58.90625 
Q 39.453125 66.40625 31.78125 66.40625 
z
M 31.78125 74.21875 
Q 44.046875 74.21875 50.515625 64.515625 
Q 56.984375 54.828125 56.984375 36.375 
Q 56.984375 17.96875 50.515625 8.265625 
Q 44.046875 -1.421875 31.78125 -1.421875 
Q 19.53125 -1.421875 13.0625 8.265625 
Q 6.59375 17.96875 6.59375 36.375 
Q 6.59375 54.828125 13.0625 64.515625 
Q 19.53125 74.21875 31.78125 74.21875 
z
" id="DejaVuSans-48"/>
      </defs>
      <g transform="translate(65.212415 303.028562)scale(0.1 -0.1)">
       <use xlink:href="#DejaVuSans-48"/>
      </g>
     </g>
    </g>
    <g id="xtick_2">
     <g id="line2d_3">
      <path clip-path="url(#p60d8e64de9)" d="M 117.324267 288.430125 
L 117.324267 22.318125 
" style="fill:none;stroke:#b0b0b0;stroke-dasharray:2.96,1.28;stroke-dashoffset:0;stroke-width:0.8;"/>
     </g>
     <g id="line2d_4">
      <g>
       <use style="stroke:#000000;stroke-width:0.8;" x="117.324267" xlink:href="#m8ea50fee2e" y="288.430125"/>
      </g>
     </g>
     <g id="text_2">
      <!-- 200 -->
      <defs>
       <path d="M 19.1875 8.296875 
L 53.609375 8.296875 
L 53.609375 0 
L 7.328125 0 
L 7.328125 8.296875 
Q 12.9375 14.109375 22.625 23.890625 
Q 32.328125 33.6875 34.8125 36.53125 
Q 39.546875 41.84375 41.421875 45.53125 
Q 43.3125 49.21875 43.3125 52.78125 
Q 43.3125 58.59375 39.234375 62.25 
Q 35.15625 65.921875 28.609375 65.921875 
Q 23.96875 65.921875 18.8125 64.3125 
Q 13.671875 62.703125 7.8125 59.421875 
L 7.8125 69.390625 
Q 13.765625 71.78125 18.9375 73 
Q 24.125 74.21875 28.421875 74.21875 
Q 39.75 74.21875 46.484375 68.546875 
Q 53.21875 62.890625 53.21875 53.421875 
Q 53.21875 48.921875 51.53125 44.890625 
Q 49.859375 40.875 45.40625 35.40625 
Q 44.1875 33.984375 37.640625 27.21875 
Q 31.109375 20.453125 19.1875 8.296875 
z
" id="DejaVuSans-50"/>
      </defs>
      <g transform="translate(107.780517 303.028562)scale(0.1 -0.1)">
       <use xlink:href="#DejaVuSans-50"/>
       <use x="63.623047" xlink:href="#DejaVuSans-48"/>
       <use x="127.246094" xlink:href="#DejaVuSans-48"/>
      </g>
     </g>
    </g>
    <g id="xtick_3">
     <g id="line2d_5">
      <path clip-path="url(#p60d8e64de9)" d="M 166.254869 288.430125 
L 166.254869 22.318125 
" style="fill:none;stroke:#b0b0b0;stroke-dasharray:2.96,1.28;stroke-dashoffset:0;stroke-width:0.8;"/>
     </g>
     <g id="line2d_6">
      <g>
       <use style="stroke:#000000;stroke-width:0.8;" x="166.254869" xlink:href="#m8ea50fee2e" y="288.430125"/>
      </g>
     </g>
     <g id="text_3">
      <!-- 400 -->
      <defs>
       <path d="M 37.796875 64.3125 
L 12.890625 25.390625 
L 37.796875 25.390625 
z
M 35.203125 72.90625 
L 47.609375 72.90625 
L 47.609375 25.390625 
L 58.015625 25.390625 
L 58.015625 17.1875 
L 47.609375 17.1875 
L 47.609375 0 
L 37.796875 0 
L 37.796875 17.1875 
L 4.890625 17.1875 
L 4.890625 26.703125 
z
" id="DejaVuSans-52"/>
      </defs>
      <g transform="translate(156.711119 303.028562)scale(0.1 -0.1)">
       <use xlink:href="#DejaVuSans-52"/>
       <use x="63.623047" xlink:href="#DejaVuSans-48"/>
       <use x="127.246094" xlink:href="#DejaVuSans-48"/>
      </g>
     </g>
    </g>
    <g id="xtick_4">
     <g id="line2d_7">
      <path clip-path="url(#p60d8e64de9)" d="M 215.185471 288.430125 
L 215.185471 22.318125 
" style="fill:none;stroke:#b0b0b0;stroke-dasharray:2.96,1.28;stroke-dashoffset:0;stroke-width:0.8;"/>
     </g>
     <g id="line2d_8">
      <g>
       <use style="stroke:#000000;stroke-width:0.8;" x="215.185471" xlink:href="#m8ea50fee2e" y="288.430125"/>
      </g>
     </g>
     <g id="text_4">
      <!-- 600 -->
      <defs>
       <path d="M 33.015625 40.375 
Q 26.375 40.375 22.484375 35.828125 
Q 18.609375 31.296875 18.609375 23.390625 
Q 18.609375 15.53125 22.484375 10.953125 
Q 26.375 6.390625 33.015625 6.390625 
Q 39.65625 6.390625 43.53125 10.953125 
Q 47.40625 15.53125 47.40625 23.390625 
Q 47.40625 31.296875 43.53125 35.828125 
Q 39.65625 40.375 33.015625 40.375 
z
M 52.59375 71.296875 
L 52.59375 62.3125 
Q 48.875 64.0625 45.09375 64.984375 
Q 41.3125 65.921875 37.59375 65.921875 
Q 27.828125 65.921875 22.671875 59.328125 
Q 17.53125 52.734375 16.796875 39.40625 
Q 19.671875 43.65625 24.015625 45.921875 
Q 28.375 48.1875 33.59375 48.1875 
Q 44.578125 48.1875 50.953125 41.515625 
Q 57.328125 34.859375 57.328125 23.390625 
Q 57.328125 12.15625 50.6875 5.359375 
Q 44.046875 -1.421875 33.015625 -1.421875 
Q 20.359375 -1.421875 13.671875 8.265625 
Q 6.984375 17.96875 6.984375 36.375 
Q 6.984375 53.65625 15.1875 63.9375 
Q 23.390625 74.21875 37.203125 74.21875 
Q 40.921875 74.21875 44.703125 73.484375 
Q 48.484375 72.75 52.59375 71.296875 
z
" id="DejaVuSans-54"/>
      </defs>
      <g transform="translate(205.641721 303.028562)scale(0.1 -0.1)">
       <use xlink:href="#DejaVuSans-54"/>
       <use x="63.623047" xlink:href="#DejaVuSans-48"/>
       <use x="127.246094" xlink:href="#DejaVuSans-48"/>
      </g>
     </g>
    </g>
    <g id="xtick_5">
     <g id="line2d_9">
      <path clip-path="url(#p60d8e64de9)" d="M 264.116073 288.430125 
L 264.116073 22.318125 
" style="fill:none;stroke:#b0b0b0;stroke-dasharray:2.96,1.28;stroke-dashoffset:0;stroke-width:0.8;"/>
     </g>
     <g id="line2d_10">
      <g>
       <use style="stroke:#000000;stroke-width:0.8;" x="264.116073" xlink:href="#m8ea50fee2e" y="288.430125"/>
      </g>
     </g>
     <g id="text_5">
      <!-- 800 -->
      <defs>
       <path d="M 31.78125 34.625 
Q 24.75 34.625 20.71875 30.859375 
Q 16.703125 27.09375 16.703125 20.515625 
Q 16.703125 13.921875 20.71875 10.15625 
Q 24.75 6.390625 31.78125 6.390625 
Q 38.8125 6.390625 42.859375 10.171875 
Q 46.921875 13.96875 46.921875 20.515625 
Q 46.921875 27.09375 42.890625 30.859375 
Q 38.875 34.625 31.78125 34.625 
z
M 21.921875 38.8125 
Q 15.578125 40.375 12.03125 44.71875 
Q 8.5 49.078125 8.5 55.328125 
Q 8.5 64.0625 14.71875 69.140625 
Q 20.953125 74.21875 31.78125 74.21875 
Q 42.671875 74.21875 48.875 69.140625 
Q 55.078125 64.0625 55.078125 55.328125 
Q 55.078125 49.078125 51.53125 44.71875 
Q 48 40.375 41.703125 38.8125 
Q 48.828125 37.15625 52.796875 32.3125 
Q 56.78125 27.484375 56.78125 20.515625 
Q 56.78125 9.90625 50.3125 4.234375 
Q 43.84375 -1.421875 31.78125 -1.421875 
Q 19.734375 -1.421875 13.25 4.234375 
Q 6.78125 9.90625 6.78125 20.515625 
Q 6.78125 27.484375 10.78125 32.3125 
Q 14.796875 37.15625 21.921875 38.8125 
z
M 18.3125 54.390625 
Q 18.3125 48.734375 21.84375 45.5625 
Q 25.390625 42.390625 31.78125 42.390625 
Q 38.140625 42.390625 41.71875 45.5625 
Q 45.3125 48.734375 45.3125 54.390625 
Q 45.3125 60.0625 41.71875 63.234375 
Q 38.140625 66.40625 31.78125 66.40625 
Q 25.390625 66.40625 21.84375 63.234375 
Q 18.3125 60.0625 18.3125 54.390625 
z
" id="DejaVuSans-56"/>
      </defs>
      <g transform="translate(254.572323 303.028562)scale(0.1 -0.1)">
       <use xlink:href="#DejaVuSans-56"/>
       <use x="63.623047" xlink:href="#DejaVuSans-48"/>
       <use x="127.246094" xlink:href="#DejaVuSans-48"/>
      </g>
     </g>
    </g>
    <g id="xtick_6">
     <g id="line2d_11">
      <path clip-path="url(#p60d8e64de9)" d="M 313.046676 288.430125 
L 313.046676 22.318125 
" style="fill:none;stroke:#b0b0b0;stroke-dasharray:2.96,1.28;stroke-dashoffset:0;stroke-width:0.8;"/>
     </g>
     <g id="line2d_12">
      <g>
       <use style="stroke:#000000;stroke-width:0.8;" x="313.046676" xlink:href="#m8ea50fee2e" y="288.430125"/>
      </g>
     </g>
     <g id="text_6">
      <!-- 1000 -->
      <defs>
       <path d="M 12.40625 8.296875 
L 28.515625 8.296875 
L 28.515625 63.921875 
L 10.984375 60.40625 
L 10.984375 69.390625 
L 28.421875 72.90625 
L 38.28125 72.90625 
L 38.28125 8.296875 
L 54.390625 8.296875 
L 54.390625 0 
L 12.40625 0 
z
" id="DejaVuSans-49"/>
      </defs>
      <g transform="translate(300.321676 303.028562)scale(0.1 -0.1)">
       <use xlink:href="#DejaVuSans-49"/>
       <use x="63.623047" xlink:href="#DejaVuSans-48"/>
       <use x="127.246094" xlink:href="#DejaVuSans-48"/>
       <use x="190.869141" xlink:href="#DejaVuSans-48"/>
      </g>
     </g>
    </g>
    <g id="xtick_7">
     <g id="line2d_13">
      <path clip-path="url(#p60d8e64de9)" d="M 361.977278 288.430125 
L 361.977278 22.318125 
" style="fill:none;stroke:#b0b0b0;stroke-dasharray:2.96,1.28;stroke-dashoffset:0;stroke-width:0.8;"/>
     </g>
     <g id="line2d_14">
      <g>
       <use style="stroke:#000000;stroke-width:0.8;" x="361.977278" xlink:href="#m8ea50fee2e" y="288.430125"/>
      </g>
     </g>
     <g id="text_7">
      <!-- 1200 -->
      <g transform="translate(349.252278 303.028562)scale(0.1 -0.1)">
       <use xlink:href="#DejaVuSans-49"/>
       <use x="63.623047" xlink:href="#DejaVuSans-50"/>
       <use x="127.246094" xlink:href="#DejaVuSans-48"/>
       <use x="190.869141" xlink:href="#DejaVuSans-48"/>
      </g>
     </g>
    </g>
    <g id="text_8">
     <!-- Day -->
     <defs>
      <path d="M 19.671875 64.796875 
L 19.671875 8.109375 
L 31.59375 8.109375 
Q 46.6875 8.109375 53.6875 14.9375 
Q 60.6875 21.78125 60.6875 36.53125 
Q 60.6875 51.171875 53.6875 57.984375 
Q 46.6875 64.796875 31.59375 64.796875 
z
M 9.8125 72.90625 
L 30.078125 72.90625 
Q 51.265625 72.90625 61.171875 64.09375 
Q 71.09375 55.28125 71.09375 36.53125 
Q 71.09375 17.671875 61.125 8.828125 
Q 51.171875 0 30.078125 0 
L 9.8125 0 
z
" id="DejaVuSans-68"/>
      <path d="M 34.28125 27.484375 
Q 23.390625 27.484375 19.1875 25 
Q 14.984375 22.515625 14.984375 16.5 
Q 14.984375 11.71875 18.140625 8.90625 
Q 21.296875 6.109375 26.703125 6.109375 
Q 34.1875 6.109375 38.703125 11.40625 
Q 43.21875 16.703125 43.21875 25.484375 
L 43.21875 27.484375 
z
M 52.203125 31.203125 
L 52.203125 0 
L 43.21875 0 
L 43.21875 8.296875 
Q 40.140625 3.328125 35.546875 0.953125 
Q 30.953125 -1.421875 24.3125 -1.421875 
Q 15.921875 -1.421875 10.953125 3.296875 
Q 6 8.015625 6 15.921875 
Q 6 25.140625 12.171875 29.828125 
Q 18.359375 34.515625 30.609375 34.515625 
L 43.21875 34.515625 
L 43.21875 35.40625 
Q 43.21875 41.609375 39.140625 45 
Q 35.0625 48.390625 27.6875 48.390625 
Q 23 48.390625 18.546875 47.265625 
Q 14.109375 46.140625 10.015625 43.890625 
L 10.015625 52.203125 
Q 14.9375 54.109375 19.578125 55.046875 
Q 24.21875 56 28.609375 56 
Q 40.484375 56 46.34375 49.84375 
Q 52.203125 43.703125 52.203125 31.203125 
z
" id="DejaVuSans-97"/>
      <path d="M 32.171875 -5.078125 
Q 28.375 -14.84375 24.75 -17.8125 
Q 21.140625 -20.796875 15.09375 -20.796875 
L 7.90625 -20.796875 
L 7.90625 -13.28125 
L 13.1875 -13.28125 
Q 16.890625 -13.28125 18.9375 -11.515625 
Q 21 -9.765625 23.484375 -3.21875 
L 25.09375 0.875 
L 2.984375 54.6875 
L 12.5 54.6875 
L 29.59375 11.921875 
L 46.6875 54.6875 
L 56.203125 54.6875 
z
" id="DejaVuSans-121"/>
     </defs>
     <g transform="translate(220.8475 316.706687)scale(0.1 -0.1)">
      <use xlink:href="#DejaVuSans-68"/>
      <use x="77.001953" xlink:href="#DejaVuSans-97"/>
      <use x="138.28125" xlink:href="#DejaVuSans-121"/>
     </g>
    </g>
   </g>
   <g id="matplotlib.axis_2">
    <g id="ytick_1">
     <g id="line2d_15">
      <path clip-path="url(#p60d8e64de9)" d="M 52.160938 284.44556 
L 409.280938 284.44556 
" style="fill:none;stroke:#b0b0b0;stroke-dasharray:2.96,1.28;stroke-dashoffset:0;stroke-width:0.8;"/>
     </g>
     <g id="line2d_16">
      <defs>
       <path d="M 0 0 
L -3.5 0 
" id="m12c0c3ecf7" style="stroke:#000000;stroke-width:0.8;"/>
      </defs>
      <g>
       <use style="stroke:#000000;stroke-width:0.8;" x="52.160938" xlink:href="#m12c0c3ecf7" y="284.44556"/>
      </g>
     </g>
     <g id="text_9">
      <!-- −7.5 -->
      <defs>
       <path d="M 10.59375 35.5 
L 73.1875 35.5 
L 73.1875 27.203125 
L 10.59375 27.203125 
z
" id="DejaVuSans-8722"/>
       <path d="M 8.203125 72.90625 
L 55.078125 72.90625 
L 55.078125 68.703125 
L 28.609375 0 
L 18.3125 0 
L 43.21875 64.59375 
L 8.203125 64.59375 
z
" id="DejaVuSans-55"/>
       <path d="M 10.6875 12.40625 
L 21 12.40625 
L 21 0 
L 10.6875 0 
z
" id="DejaVuSans-46"/>
       <path d="M 10.796875 72.90625 
L 49.515625 72.90625 
L 49.515625 64.59375 
L 19.828125 64.59375 
L 19.828125 46.734375 
Q 21.96875 47.46875 24.109375 47.828125 
Q 26.265625 48.1875 28.421875 48.1875 
Q 40.625 48.1875 47.75 41.5 
Q 54.890625 34.8125 54.890625 23.390625 
Q 54.890625 11.625 47.5625 5.09375 
Q 40.234375 -1.421875 26.90625 -1.421875 
Q 22.3125 -1.421875 17.546875 -0.640625 
Q 12.796875 0.140625 7.71875 1.703125 
L 7.71875 11.625 
Q 12.109375 9.234375 16.796875 8.0625 
Q 21.484375 6.890625 26.703125 6.890625 
Q 35.15625 6.890625 40.078125 11.328125 
Q 45.015625 15.765625 45.015625 23.390625 
Q 45.015625 31 40.078125 35.4375 
Q 35.15625 39.890625 26.703125 39.890625 
Q 22.75 39.890625 18.8125 39.015625 
Q 14.890625 38.140625 10.796875 36.28125 
z
" id="DejaVuSans-53"/>
      </defs>
      <g transform="translate(20.878125 288.244779)scale(0.1 -0.1)">
       <use xlink:href="#DejaVuSans-8722"/>
       <use x="83.789062" xlink:href="#DejaVuSans-55"/>
       <use x="147.412109" xlink:href="#DejaVuSans-46"/>
       <use x="179.199219" xlink:href="#DejaVuSans-53"/>
      </g>
     </g>
    </g>
    <g id="ytick_2">
     <g id="line2d_17">
      <path clip-path="url(#p60d8e64de9)" d="M 52.160938 248.86909 
L 409.280938 248.86909 
" style="fill:none;stroke:#b0b0b0;stroke-dasharray:2.96,1.28;stroke-dashoffset:0;stroke-width:0.8;"/>
     </g>
     <g id="line2d_18">
      <g>
       <use style="stroke:#000000;stroke-width:0.8;" x="52.160938" xlink:href="#m12c0c3ecf7" y="248.86909"/>
      </g>
     </g>
     <g id="text_10">
      <!-- −5.0 -->
      <g transform="translate(20.878125 252.668308)scale(0.1 -0.1)">
       <use xlink:href="#DejaVuSans-8722"/>
       <use x="83.789062" xlink:href="#DejaVuSans-53"/>
       <use x="147.412109" xlink:href="#DejaVuSans-46"/>
       <use x="179.199219" xlink:href="#DejaVuSans-48"/>
      </g>
     </g>
    </g>
    <g id="ytick_3">
     <g id="line2d_19">
      <path clip-path="url(#p60d8e64de9)" d="M 52.160938 213.292619 
L 409.280938 213.292619 
" style="fill:none;stroke:#b0b0b0;stroke-dasharray:2.96,1.28;stroke-dashoffset:0;stroke-width:0.8;"/>
     </g>
     <g id="line2d_20">
      <g>
       <use style="stroke:#000000;stroke-width:0.8;" x="52.160938" xlink:href="#m12c0c3ecf7" y="213.292619"/>
      </g>
     </g>
     <g id="text_11">
      <!-- −2.5 -->
      <g transform="translate(20.878125 217.091838)scale(0.1 -0.1)">
       <use xlink:href="#DejaVuSans-8722"/>
       <use x="83.789062" xlink:href="#DejaVuSans-50"/>
       <use x="147.412109" xlink:href="#DejaVuSans-46"/>
       <use x="179.199219" xlink:href="#DejaVuSans-53"/>
      </g>
     </g>
    </g>
    <g id="ytick_4">
     <g id="line2d_21">
      <path clip-path="url(#p60d8e64de9)" d="M 52.160938 177.716149 
L 409.280938 177.716149 
" style="fill:none;stroke:#b0b0b0;stroke-dasharray:2.96,1.28;stroke-dashoffset:0;stroke-width:0.8;"/>
     </g>
     <g id="line2d_22">
      <g>
       <use style="stroke:#000000;stroke-width:0.8;" x="52.160938" xlink:href="#m12c0c3ecf7" y="177.716149"/>
      </g>
     </g>
     <g id="text_12">
      <!-- 0.0 -->
      <g transform="translate(29.257812 181.515367)scale(0.1 -0.1)">
       <use xlink:href="#DejaVuSans-48"/>
       <use x="63.623047" xlink:href="#DejaVuSans-46"/>
       <use x="95.410156" xlink:href="#DejaVuSans-48"/>
      </g>
     </g>
    </g>
    <g id="ytick_5">
     <g id="line2d_23">
      <path clip-path="url(#p60d8e64de9)" d="M 52.160938 142.139678 
L 409.280938 142.139678 
" style="fill:none;stroke:#b0b0b0;stroke-dasharray:2.96,1.28;stroke-dashoffset:0;stroke-width:0.8;"/>
     </g>
     <g id="line2d_24">
      <g>
       <use style="stroke:#000000;stroke-width:0.8;" x="52.160938" xlink:href="#m12c0c3ecf7" y="142.139678"/>
      </g>
     </g>
     <g id="text_13">
      <!-- 2.5 -->
      <g transform="translate(29.257812 145.938897)scale(0.1 -0.1)">
       <use xlink:href="#DejaVuSans-50"/>
       <use x="63.623047" xlink:href="#DejaVuSans-46"/>
       <use x="95.410156" xlink:href="#DejaVuSans-53"/>
      </g>
     </g>
    </g>
    <g id="ytick_6">
     <g id="line2d_25">
      <path clip-path="url(#p60d8e64de9)" d="M 52.160938 106.563207 
L 409.280938 106.563207 
" style="fill:none;stroke:#b0b0b0;stroke-dasharray:2.96,1.28;stroke-dashoffset:0;stroke-width:0.8;"/>
     </g>
     <g id="line2d_26">
      <g>
       <use style="stroke:#000000;stroke-width:0.8;" x="52.160938" xlink:href="#m12c0c3ecf7" y="106.563207"/>
      </g>
     </g>
     <g id="text_14">
      <!-- 5.0 -->
      <g transform="translate(29.257812 110.362426)scale(0.1 -0.1)">
       <use xlink:href="#DejaVuSans-53"/>
       <use x="63.623047" xlink:href="#DejaVuSans-46"/>
       <use x="95.410156" xlink:href="#DejaVuSans-48"/>
      </g>
     </g>
    </g>
    <g id="ytick_7">
     <g id="line2d_27">
      <path clip-path="url(#p60d8e64de9)" d="M 52.160938 70.986737 
L 409.280938 70.986737 
" style="fill:none;stroke:#b0b0b0;stroke-dasharray:2.96,1.28;stroke-dashoffset:0;stroke-width:0.8;"/>
     </g>
     <g id="line2d_28">
      <g>
       <use style="stroke:#000000;stroke-width:0.8;" x="52.160938" xlink:href="#m12c0c3ecf7" y="70.986737"/>
      </g>
     </g>
     <g id="text_15">
      <!-- 7.5 -->
      <g transform="translate(29.257812 74.785956)scale(0.1 -0.1)">
       <use xlink:href="#DejaVuSans-55"/>
       <use x="63.623047" xlink:href="#DejaVuSans-46"/>
       <use x="95.410156" xlink:href="#DejaVuSans-53"/>
      </g>
     </g>
    </g>
    <g id="ytick_8">
     <g id="line2d_29">
      <path clip-path="url(#p60d8e64de9)" d="M 52.160938 35.410266 
L 409.280938 35.410266 
" style="fill:none;stroke:#b0b0b0;stroke-dasharray:2.96,1.28;stroke-dashoffset:0;stroke-width:0.8;"/>
     </g>
     <g id="line2d_30">
      <g>
       <use style="stroke:#000000;stroke-width:0.8;" x="52.160938" xlink:href="#m12c0c3ecf7" y="35.410266"/>
      </g>
     </g>
     <g id="text_16">
      <!-- 10.0 -->
      <g transform="translate(22.895313 39.209485)scale(0.1 -0.1)">
       <use xlink:href="#DejaVuSans-49"/>
       <use x="63.623047" xlink:href="#DejaVuSans-48"/>
       <use x="127.246094" xlink:href="#DejaVuSans-46"/>
       <use x="159.033203" xlink:href="#DejaVuSans-48"/>
      </g>
     </g>
    </g>
    <g id="text_17">
     <!-- Change $ -->
     <defs>
      <path d="M 64.40625 67.28125 
L 64.40625 56.890625 
Q 59.421875 61.53125 53.78125 63.8125 
Q 48.140625 66.109375 41.796875 66.109375 
Q 29.296875 66.109375 22.65625 58.46875 
Q 16.015625 50.828125 16.015625 36.375 
Q 16.015625 21.96875 22.65625 14.328125 
Q 29.296875 6.6875 41.796875 6.6875 
Q 48.140625 6.6875 53.78125 8.984375 
Q 59.421875 11.28125 64.40625 15.921875 
L 64.40625 5.609375 
Q 59.234375 2.09375 53.4375 0.328125 
Q 47.65625 -1.421875 41.21875 -1.421875 
Q 24.65625 -1.421875 15.125 8.703125 
Q 5.609375 18.84375 5.609375 36.375 
Q 5.609375 53.953125 15.125 64.078125 
Q 24.65625 74.21875 41.21875 74.21875 
Q 47.75 74.21875 53.53125 72.484375 
Q 59.328125 70.75 64.40625 67.28125 
z
" id="DejaVuSans-67"/>
      <path d="M 54.890625 33.015625 
L 54.890625 0 
L 45.90625 0 
L 45.90625 32.71875 
Q 45.90625 40.484375 42.875 44.328125 
Q 39.84375 48.1875 33.796875 48.1875 
Q 26.515625 48.1875 22.3125 43.546875 
Q 18.109375 38.921875 18.109375 30.90625 
L 18.109375 0 
L 9.078125 0 
L 9.078125 75.984375 
L 18.109375 75.984375 
L 18.109375 46.1875 
Q 21.34375 51.125 25.703125 53.5625 
Q 30.078125 56 35.796875 56 
Q 45.21875 56 50.046875 50.171875 
Q 54.890625 44.34375 54.890625 33.015625 
z
" id="DejaVuSans-104"/>
      <path d="M 54.890625 33.015625 
L 54.890625 0 
L 45.90625 0 
L 45.90625 32.71875 
Q 45.90625 40.484375 42.875 44.328125 
Q 39.84375 48.1875 33.796875 48.1875 
Q 26.515625 48.1875 22.3125 43.546875 
Q 18.109375 38.921875 18.109375 30.90625 
L 18.109375 0 
L 9.078125 0 
L 9.078125 54.6875 
L 18.109375 54.6875 
L 18.109375 46.1875 
Q 21.34375 51.125 25.703125 53.5625 
Q 30.078125 56 35.796875 56 
Q 45.21875 56 50.046875 50.171875 
Q 54.890625 44.34375 54.890625 33.015625 
z
" id="DejaVuSans-110"/>
      <path d="M 45.40625 27.984375 
Q 45.40625 37.75 41.375 43.109375 
Q 37.359375 48.484375 30.078125 48.484375 
Q 22.859375 48.484375 18.828125 43.109375 
Q 14.796875 37.75 14.796875 27.984375 
Q 14.796875 18.265625 18.828125 12.890625 
Q 22.859375 7.515625 30.078125 7.515625 
Q 37.359375 7.515625 41.375 12.890625 
Q 45.40625 18.265625 45.40625 27.984375 
z
M 54.390625 6.78125 
Q 54.390625 -7.171875 48.1875 -13.984375 
Q 42 -20.796875 29.203125 -20.796875 
Q 24.46875 -20.796875 20.265625 -20.09375 
Q 16.0625 -19.390625 12.109375 -17.921875 
L 12.109375 -9.1875 
Q 16.0625 -11.328125 19.921875 -12.34375 
Q 23.78125 -13.375 27.78125 -13.375 
Q 36.625 -13.375 41.015625 -8.765625 
Q 45.40625 -4.15625 45.40625 5.171875 
L 45.40625 9.625 
Q 42.625 4.78125 38.28125 2.390625 
Q 33.9375 0 27.875 0 
Q 17.828125 0 11.671875 7.65625 
Q 5.515625 15.328125 5.515625 27.984375 
Q 5.515625 40.671875 11.671875 48.328125 
Q 17.828125 56 27.875 56 
Q 33.9375 56 38.28125 53.609375 
Q 42.625 51.21875 45.40625 46.390625 
L 45.40625 54.6875 
L 54.390625 54.6875 
z
" id="DejaVuSans-103"/>
      <path d="M 56.203125 29.59375 
L 56.203125 25.203125 
L 14.890625 25.203125 
Q 15.484375 15.921875 20.484375 11.0625 
Q 25.484375 6.203125 34.421875 6.203125 
Q 39.59375 6.203125 44.453125 7.46875 
Q 49.3125 8.734375 54.109375 11.28125 
L 54.109375 2.78125 
Q 49.265625 0.734375 44.1875 -0.34375 
Q 39.109375 -1.421875 33.890625 -1.421875 
Q 20.796875 -1.421875 13.15625 6.1875 
Q 5.515625 13.8125 5.515625 26.8125 
Q 5.515625 40.234375 12.765625 48.109375 
Q 20.015625 56 32.328125 56 
Q 43.359375 56 49.78125 48.890625 
Q 56.203125 41.796875 56.203125 29.59375 
z
M 47.21875 32.234375 
Q 47.125 39.59375 43.09375 43.984375 
Q 39.0625 48.390625 32.421875 48.390625 
Q 24.90625 48.390625 20.390625 44.140625 
Q 15.875 39.890625 15.1875 32.171875 
z
" id="DejaVuSans-101"/>
      <path id="DejaVuSans-32"/>
      <path d="M 33.796875 -14.703125 
L 28.90625 -14.703125 
L 28.859375 0 
Q 23.734375 0.09375 18.609375 1.1875 
Q 13.484375 2.296875 8.296875 4.5 
L 8.296875 13.28125 
Q 13.28125 10.15625 18.375 8.5625 
Q 23.484375 6.984375 28.90625 6.9375 
L 28.90625 29.203125 
Q 18.109375 30.953125 13.203125 35.15625 
Q 8.296875 39.359375 8.296875 46.6875 
Q 8.296875 54.640625 13.625 59.21875 
Q 18.953125 63.8125 28.90625 64.5 
L 28.90625 75.984375 
L 33.796875 75.984375 
L 33.796875 64.65625 
Q 38.328125 64.453125 42.578125 63.6875 
Q 46.828125 62.9375 50.875 61.625 
L 50.875 53.078125 
Q 46.828125 55.125 42.546875 56.25 
Q 38.28125 57.375 33.796875 57.5625 
L 33.796875 36.71875 
Q 44.875 35.015625 50.09375 30.609375 
Q 55.328125 26.21875 55.328125 18.609375 
Q 55.328125 10.359375 49.78125 5.59375 
Q 44.234375 0.828125 33.796875 0.09375 
z
M 28.90625 37.59375 
L 28.90625 57.625 
Q 23.25 56.984375 20.265625 54.390625 
Q 17.28125 51.8125 17.28125 47.515625 
Q 17.28125 43.3125 20.03125 40.96875 
Q 22.796875 38.625 28.90625 37.59375 
z
M 33.796875 28.21875 
L 33.796875 7.078125 
Q 39.984375 7.90625 43.140625 10.59375 
Q 46.296875 13.28125 46.296875 17.671875 
Q 46.296875 21.96875 43.28125 24.5 
Q 40.28125 27.046875 33.796875 28.21875 
z
" id="DejaVuSans-36"/>
     </defs>
     <g transform="translate(14.798437 179.288187)rotate(-90)scale(0.1 -0.1)">
      <use xlink:href="#DejaVuSans-67"/>
      <use x="69.824219" xlink:href="#DejaVuSans-104"/>
      <use x="133.203125" xlink:href="#DejaVuSans-97"/>
      <use x="194.482422" xlink:href="#DejaVuSans-110"/>
      <use x="257.861328" xlink:href="#DejaVuSans-103"/>
      <use x="321.337891" xlink:href="#DejaVuSans-101"/>
      <use x="382.861328" xlink:href="#DejaVuSans-32"/>
      <use x="414.648438" xlink:href="#DejaVuSans-36"/>
     </g>
    </g>
   </g>
   <g id="line2d_31">
    <path clip-path="url(#p60d8e64de9)" d="M 68.393665 170.798378 
L 68.638318 151.796142 
L 69.127624 166.742373 
L 70.350889 175.956065 
L 70.595542 175.94768 
L 70.840195 176.202452 
L 71.084848 176.863293 
L 71.329501 176.475414 
L 71.574154 177.012846 
L 71.818807 176.569156 
L 72.06346 177.28004 
L 72.308113 176.431961 
L 72.552766 176.222171 
L 72.797419 175.496471 
L 73.042072 175.379463 
L 73.286725 176.63346 
L 73.531378 177.136335 
L 73.776031 176.756365 
L 74.020684 177.443788 
L 74.265337 177.437927 
L 74.50999 176.781123 
L 74.754643 177.004288 
L 74.999296 176.430807 
L 75.243949 176.165452 
L 75.488602 176.39819 
L 76.222561 176.082727 
L 76.467214 175.841891 
L 76.711867 175.971004 
L 76.95652 175.962604 
L 77.201173 175.147489 
L 77.445826 174.882363 
L 77.690479 175.371093 
L 78.179785 175.123494 
L 78.424438 175.230661 
L 78.669091 175.601258 
L 78.913744 175.096061 
L 79.158397 175.487869 
L 79.647703 176.492761 
L 79.892356 176.637988 
L 80.137009 176.598492 
L 80.381662 176.822176 
L 80.626315 176.628939 
L 80.870968 177.307502 
L 81.115621 177.268786 
L 81.360274 176.979738 
L 81.604927 176.268407 
L 81.84958 176.038704 
L 82.094233 175.991458 
L 82.338886 175.646477 
L 82.583539 176.239626 
L 82.828192 176.523388 
L 83.072845 176.59811 
L 83.317498 175.168375 
L 83.806804 175.556932 
L 84.051457 175.770904 
L 84.29611 176.366893 
L 84.540763 175.495706 
L 84.785417 176.030499 
L 85.03007 176.140066 
L 85.274723 175.366536 
L 85.519376 176.976004 
L 85.764029 177.33371 
L 86.008682 177.485591 
L 86.497988 177.399059 
L 86.987294 178.375003 
L 87.231947 177.588561 
L 87.4766 177.563536 
L 87.721253 178.290685 
L 87.965906 178.107268 
L 88.210559 176.990423 
L 88.455212 176.669653 
L 88.699865 177.559195 
L 88.944518 177.768596 
L 89.189171 178.206691 
L 89.433824 177.789137 
L 89.678477 177.594545 
L 89.92313 178.038768 
L 90.412436 176.667259 
L 90.657089 176.918477 
L 91.635701 176.902356 
L 91.880354 177.021389 
L 92.125007 177.870398 
L 92.36966 177.303299 
L 92.858966 178.16543 
L 93.348272 177.199492 
L 93.592925 177.777125 
L 93.837578 177.107697 
L 94.082231 177.75887 
L 95.060843 177.48438 
L 95.305496 177.98326 
L 95.794802 177.096126 
L 96.039455 177.111403 
L 96.284108 176.873805 
L 96.528761 177.047575 
L 96.773414 176.836502 
L 97.018067 176.907237 
L 97.752026 176.16127 
L 97.996679 175.371915 
L 98.241332 176.401348 
L 98.485985 176.516726 
L 98.730638 176.905629 
L 98.975291 177.618993 
L 99.219944 177.169146 
L 99.464597 177.052535 
L 99.70925 176.732998 
L 99.953903 176.700554 
L 100.198556 177.125073 
L 100.443209 176.32349 
L 100.687862 175.971119 
L 100.932515 176.344744 
L 101.177168 176.489892 
L 101.421821 176.313757 
L 101.666474 176.734469 
L 101.911127 176.794952 
L 102.15578 176.403814 
L 102.400433 176.236764 
L 102.645086 177.141749 
L 102.889739 176.834404 
L 103.134392 177.315786 
L 103.623698 177.071072 
L 103.868351 176.391089 
L 104.113004 176.639026 
L 104.60231 176.011609 
L 105.336269 176.887316 
L 105.580922 177.364344 
L 105.825575 177.055052 
L 106.070228 176.558356 
L 106.314881 177.071245 
L 106.559534 177.127806 
L 107.04884 176.891498 
L 107.293494 177.013523 
L 107.538147 177.7344 
L 107.7828 177.350465 
L 108.272106 177.154842 
L 108.516759 177.422361 
L 108.761412 176.680309 
L 109.250718 177.535872 
L 109.495371 177.085203 
L 109.740024 177.496535 
L 110.22933 177.011822 
L 110.473983 177.441517 
L 110.718636 176.979825 
L 110.963289 176.919926 
L 111.207942 176.719444 
L 111.452595 176.308926 
L 111.941901 177.228988 
L 112.186554 176.985088 
L 112.67586 177.28699 
L 112.920513 176.864086 
L 113.165166 175.991191 
L 113.654472 175.835806 
L 113.899125 175.760082 
L 114.143778 175.352434 
L 114.633084 175.369961 
L 114.877737 175.496658 
L 115.12239 175.946209 
L 115.367043 176.069122 
L 115.611696 176.405948 
L 115.856349 177.112326 
L 116.101002 176.869811 
L 116.345655 177.090942 
L 116.590308 176.492566 
L 117.079614 177.117633 
L 117.324267 176.754599 
L 117.56892 177.048469 
L 117.813573 176.537101 
L 118.058226 176.799926 
L 118.302879 176.103815 
L 118.792185 176.197737 
L 119.036838 176.571232 
L 119.281491 176.492999 
L 119.526144 176.911181 
L 119.770797 176.43969 
L 120.01545 176.903819 
L 120.260103 176.235156 
L 120.504756 176.223288 
L 120.749409 176.859277 
L 121.238715 176.879443 
L 121.483368 176.275393 
L 121.728021 176.35217 
L 121.972674 177.095225 
L 122.217327 176.299438 
L 122.46198 177.055924 
L 122.706633 177.385562 
L 122.951286 176.966206 
L 123.195939 176.844627 
L 123.440592 176.417253 
L 123.685245 176.289546 
L 124.174551 176.658701 
L 124.419204 176.650756 
L 124.663857 176.283274 
L 125.153163 176.288746 
L 125.642469 176.215927 
L 125.887122 176.514239 
L 126.376428 176.652148 
L 126.621081 176.257621 
L 126.865734 176.98286 
L 127.110387 177.096219 
L 127.35504 176.460721 
L 127.599693 177.215145 
L 127.844346 177.096594 
L 128.333652 177.494192 
L 128.578305 177.368043 
L 128.822958 176.50522 
L 129.312264 175.669923 
L 129.556917 175.687443 
L 129.801571 176.287967 
L 130.046224 176.084032 
L 130.290877 176.540165 
L 131.269489 175.722987 
L 131.514142 175.59983 
L 132.003448 176.232128 
L 132.248101 176.755255 
L 132.492754 176.929522 
L 132.737407 176.937359 
L 132.98206 176.689429 
L 133.226713 176.27915 
L 133.471366 176.705219 
L 133.716019 176.556395 
L 133.960672 176.587007 
L 134.205325 176.785276 
L 134.449978 176.415105 
L 134.939284 176.556834 
L 135.183937 175.669873 
L 135.673243 176.165617 
L 135.917896 175.916779 
L 136.162549 176.209785 
L 136.407202 175.562411 
L 136.651855 176.117117 
L 136.896508 176.335184 
L 137.141161 175.896195 
L 137.385814 176.252892 
L 137.630467 176.25096 
L 137.87512 177.349427 
L 138.119773 177.334041 
L 138.364426 176.811066 
L 138.609079 177.541755 
L 138.853732 176.828088 
L 139.098385 176.533785 
L 139.343038 176.835983 
L 139.587691 176.830669 
L 139.832344 176.979832 
L 140.076997 177.47978 
L 140.32165 177.219918 
L 140.810956 177.289737 
L 141.055609 176.735529 
L 141.300262 177.049515 
L 141.544915 176.420209 
L 141.789568 176.699638 
L 142.034221 176.559754 
L 142.278874 176.813142 
L 142.523527 176.59279 
L 142.76818 176.187672 
L 143.012833 176.012749 
L 143.257486 176.77072 
L 143.746792 176.336626 
L 143.991445 176.55142 
L 144.236098 176.139597 
L 144.480751 176.504116 
L 144.725404 177.409282 
L 144.970057 177.575655 
L 145.21471 176.738874 
L 145.459363 177.650284 
L 145.948669 177.258238 
L 146.193322 178.128588 
L 146.682628 177.098008 
L 146.927281 177.941227 
L 147.171934 177.27177 
L 147.416587 177.489513 
L 147.66124 176.394795 
L 147.905893 177.157092 
L 148.395199 176.693654 
L 148.639852 176.050665 
L 148.884505 176.288602 
L 149.129158 176.21411 
L 149.373811 177.269269 
L 149.618464 177.142247 
L 149.863117 177.205087 
L 150.10777 176.758687 
L 150.352423 177.435591 
L 150.597076 177.12141 
L 150.841729 176.613251 
L 151.086382 177.157863 
L 151.331035 177.030812 
L 151.575688 177.370451 
L 151.820341 176.709638 
L 152.064994 177.288101 
L 152.309648 176.395242 
L 152.554301 176.999464 
L 152.798954 176.421009 
L 153.043607 177.270191 
L 153.28826 177.443147 
L 153.532913 177.476391 
L 153.777566 177.994572 
L 154.022219 177.143833 
L 154.511525 178.125848 
L 154.756178 177.23048 
L 155.000831 176.966465 
L 155.245484 177.898999 
L 155.490137 176.977972 
L 155.73479 177.699361 
L 155.979443 177.44673 
L 156.224096 176.658204 
L 156.468749 177.251511 
L 156.713402 176.426871 
L 157.202708 177.756087 
L 157.447361 177.111735 
L 157.692014 177.803001 
L 157.936667 176.836523 
L 158.18132 177.276089 
L 158.425973 177.328454 
L 158.670626 176.72457 
L 158.915279 176.463936 
L 159.159932 177.839959 
L 159.649238 176.134861 
L 160.138544 175.749346 
L 160.383197 174.978059 
L 160.62785 175.669029 
L 160.872503 175.696124 
L 161.117156 175.220408 
L 161.361809 175.033286 
L 161.606462 175.247805 
L 161.851115 173.971213 
L 162.095768 174.588587 
L 162.829727 175.03679 
L 163.07438 175.311742 
L 163.319033 175.306608 
L 163.563686 175.500378 
L 163.808339 175.205325 
L 164.052992 175.237005 
L 164.297645 176.280029 
L 164.786951 176.91387 
L 165.031604 176.323101 
L 165.276257 177.326961 
L 165.52091 176.32659 
L 165.765563 176.018992 
L 166.010216 176.859508 
L 166.254869 177.08932 
L 166.499522 176.389495 
L 166.988828 176.116973 
L 167.233481 176.863228 
L 167.478134 175.835806 
L 167.722787 176.178674 
L 168.212093 176.250613 
L 168.456746 176.753474 
L 168.701399 176.668045 
L 168.946052 176.022547 
L 169.435358 177.432274 
L 169.680011 176.741931 
L 169.924664 177.792987 
L 170.169317 177.308259 
L 170.41397 178.368882 
L 170.658623 177.550846 
L 170.903276 178.499985 
L 171.147929 178.665053 
L 171.392582 178.558535 
L 171.637235 177.644682 
L 171.881888 177.470234 
L 172.126541 177.00919 
L 172.371194 177.794645 
L 172.615847 177.397516 
L 172.8605 176.628608 
L 173.105153 176.999918 
L 173.349806 176.87537 
L 173.594459 176.086014 
L 173.839112 176.846357 
L 174.328418 176.857734 
L 174.573072 176.30344 
L 175.796337 175.852439 
L 176.04099 176.776307 
L 176.285643 174.902414 
L 176.774949 174.775197 
L 177.019602 175.070279 
L 177.264255 174.750129 
L 177.508908 175.545209 
L 177.753561 174.748225 
L 177.998214 175.525065 
L 178.242867 175.706095 
L 178.48752 176.391608 
L 178.732173 176.0029 
L 178.976826 176.812471 
L 179.221479 176.119871 
L 179.466132 176.159179 
L 179.710785 176.311197 
L 179.955438 176.27561 
L 180.200091 177.334748 
L 180.444744 177.193768 
L 180.689397 176.718687 
L 180.93405 176.647353 
L 181.178703 177.424293 
L 181.423356 176.509228 
L 181.668009 177.117878 
L 181.912662 176.936184 
L 182.157315 177.33203 
L 182.401968 177.373861 
L 182.646621 176.695212 
L 182.891274 176.425624 
L 183.38058 176.524268 
L 183.625233 178.132106 
L 183.869886 177.229355 
L 184.114539 177.833506 
L 184.359192 177.325411 
L 184.603845 176.299827 
L 184.848498 176.824699 
L 185.337804 175.57448 
L 185.582457 176.2876 
L 185.82711 175.548915 
L 186.071763 176.552573 
L 186.316416 175.884963 
L 186.561069 177.305202 
L 186.805722 177.427134 
L 187.050375 177.32234 
L 187.295028 176.376424 
L 187.539681 176.076757 
L 187.784334 176.081977 
L 188.028987 177.28433 
L 189.007599 178.907107 
L 189.252252 177.561344 
L 189.496905 178.205429 
L 189.741558 177.127279 
L 189.986211 178.201183 
L 190.230864 177.371993 
L 190.475517 178.238832 
L 190.72017 177.1919 
L 190.964823 178.060232 
L 191.209476 177.109024 
L 191.454129 178.349337 
L 191.698782 177.147178 
L 191.943435 177.630745 
L 192.188088 177.696224 
L 192.432741 176.901137 
L 192.677394 177.668712 
L 192.922047 176.847504 
L 193.1667 176.754728 
L 193.411353 176.908354 
L 193.656006 176.578399 
L 193.900659 177.483075 
L 194.145312 176.435249 
L 194.389965 177.218158 
L 194.634618 176.874202 
L 194.879271 175.896895 
L 195.123924 176.327873 
L 195.368577 175.990103 
L 195.61323 175.842136 
L 195.857883 175.953693 
L 196.102536 175.843369 
L 196.347189 176.076642 
L 196.591842 175.37575 
L 196.836495 176.612148 
L 197.081149 175.97409 
L 198.059761 176.95976 
L 198.304414 176.957785 
L 198.549067 177.838553 
L 198.79372 177.199442 
L 199.038373 176.015402 
L 199.283026 175.462823 
L 199.527679 175.913636 
L 199.772332 174.725507 
L 200.016985 175.771019 
L 200.261638 175.048505 
L 200.750944 175.442008 
L 200.995597 176.546979 
L 201.24025 175.439715 
L 201.484903 176.007384 
L 201.729556 174.836718 
L 201.974209 175.575115 
L 202.218862 174.544477 
L 202.463515 174.977943 
L 202.708168 175.053545 
L 202.952821 174.671139 
L 203.197474 174.522552 
L 203.442127 175.525396 
L 203.68678 174.840871 
L 203.931433 174.662112 
L 204.665392 172.062237 
L 205.644004 174.976674 
L 205.888657 174.786286 
L 206.13331 175.588626 
L 206.377963 175.629159 
L 206.622616 175.930449 
L 206.867269 176.408162 
L 207.111922 177.328865 
L 207.356575 176.580821 
L 207.601228 178.235249 
L 207.845881 178.981353 
L 208.090534 178.27858 
L 208.335187 179.410248 
L 208.57984 178.141068 
L 208.824493 177.763369 
L 209.313799 177.823729 
L 209.558452 178.800395 
L 210.292411 177.116018 
L 210.537064 177.014504 
L 210.781717 176.12122 
L 211.02637 176.891094 
L 211.271023 176.401255 
L 211.515676 177.561279 
L 211.760329 177.030784 
L 212.004982 178.03809 
L 212.249635 177.206724 
L 212.494288 176.987691 
L 212.738941 178.038422 
L 213.228247 177.398439 
L 213.4729 177.426586 
L 213.717553 176.613727 
L 213.962206 177.935712 
L 214.206859 177.442844 
L 214.451512 178.88919 
L 214.696165 177.543831 
L 214.940818 177.367019 
L 215.185471 177.334957 
L 215.674777 180.100318 
L 215.91943 180.766876 
L 216.164083 180.4386 
L 216.408736 178.989276 
L 216.653389 178.549026 
L 217.142695 178.63183 
L 217.387348 178.350822 
L 218.121307 176.806487 
L 218.36596 175.5804 
L 218.610613 176.109893 
L 218.855266 176.267023 
L 219.099919 176.650295 
L 219.344572 175.249947 
L 219.833879 174.221083 
L 220.078532 173.264785 
L 220.323185 173.936664 
L 220.812491 173.611575 
L 221.057144 172.989753 
L 221.301797 174.098913 
L 221.54645 171.616118 
L 221.791103 170.663713 
L 222.035756 173.405693 
L 222.280409 174.119778 
L 222.525062 173.180503 
L 223.014368 173.91701 
L 223.259021 175.458389 
L 223.503674 175.909843 
L 223.99298 175.689419 
L 224.237633 176.937193 
L 224.971592 177.995668 
L 225.216245 176.877251 
L 225.460898 178.044197 
L 225.950204 178.712781 
L 226.43951 177.738229 
L 226.684163 177.205325 
L 226.928816 178.557901 
L 227.173469 177.520378 
L 227.418122 178.767345 
L 227.662775 177.050488 
L 227.907428 176.261673 
L 228.152081 176.826595 
L 228.396734 175.214626 
L 228.641387 175.495216 
L 229.130693 172.928146 
L 229.375346 173.269991 
L 229.619999 172.546496 
L 229.864652 173.997637 
L 230.109305 173.448086 
L 230.353958 174.546907 
L 230.843264 175.640919 
L 231.577223 174.67775 
L 231.821876 173.77903 
L 232.066529 173.710969 
L 232.311182 174.822883 
L 232.555835 173.707062 
L 232.800488 174.288876 
L 233.289794 174.621377 
L 233.534447 175.09759 
L 233.7791 174.795493 
L 234.268406 176.086923 
L 234.513059 175.894552 
L 235.002365 177.840031 
L 235.247018 177.025528 
L 235.491671 178.277722 
L 235.736324 178.708513 
L 235.980977 177.803528 
L 236.22563 178.494642 
L 236.470283 177.487364 
L 236.959589 177.327235 
L 237.204242 176.956991 
L 237.448895 175.81528 
L 237.693548 176.907972 
L 237.938201 177.378446 
L 238.182854 177.458662 
L 238.67216 175.484625 
L 238.916813 174.938001 
L 239.161466 176.022785 
L 239.406119 175.404056 
L 239.650772 175.227243 
L 239.895425 176.252128 
L 240.140078 176.353382 
L 240.384731 175.681668 
L 240.629384 176.294189 
L 240.874037 175.143898 
L 241.11869 174.854642 
L 241.363343 175.638345 
L 241.607996 174.90648 
L 241.852649 174.710071 
L 242.341956 176.867107 
L 242.586609 176.240318 
L 243.075915 176.00264 
L 243.320568 177.053884 
L 243.565221 175.672101 
L 244.29918 174.245444 
L 244.543833 175.12932 
L 244.788486 175.124965 
L 245.033139 174.303973 
L 245.277792 173.902749 
L 245.522445 173.732628 
L 245.767098 174.799537 
L 246.011751 174.756747 
L 246.256404 174.168804 
L 246.501057 174.882875 
L 246.74571 174.014861 
L 247.724322 172.354197 
L 247.968975 171.744877 
L 248.458281 172.663115 
L 248.702934 172.451508 
L 248.947587 172.98077 
L 249.19224 172.728594 
L 249.436893 172.918708 
L 249.681546 172.935385 
L 250.660158 175.416709 
L 250.904811 175.630443 
L 251.149464 175.12689 
L 251.394117 175.740601 
L 251.63877 175.038549 
L 251.883423 174.843142 
L 252.372729 175.444524 
L 252.617382 176.429892 
L 252.862035 176.600035 
L 253.106688 178.391744 
L 253.840647 177.411777 
L 254.0853 178.049561 
L 254.329953 176.879198 
L 254.574606 176.685875 
L 254.819259 177.303075 
L 255.308565 175.339658 
L 255.553218 175.257409 
L 255.797871 175.833153 
L 256.042524 175.445642 
L 256.287177 174.787468 
L 256.53183 174.645839 
L 256.776483 174.308963 
L 257.265789 173.139003 
L 257.510442 173.123791 
L 257.755095 173.25596 
L 257.999748 173.750442 
L 258.244401 173.937738 
L 258.489054 174.559805 
L 258.733707 173.82673 
L 258.97836 174.463209 
L 259.223013 174.328285 
L 259.467666 173.928806 
L 259.712319 174.723546 
L 259.956972 174.690756 
L 260.201625 174.42628 
L 260.446278 174.34044 
L 260.690931 175.420487 
L 261.180237 175.769317 
L 261.669543 174.985752 
L 261.914196 175.27464 
L 262.648155 172.895096 
L 263.382114 173.709217 
L 263.87142 175.584653 
L 264.116073 175.6243 
L 264.360726 175.407329 
L 264.60538 175.586643 
L 264.850033 175.990874 
L 265.094686 176.055402 
L 265.339339 176.355912 
L 265.583992 175.907918 
L 265.828645 176.055935 
L 266.073298 176.514794 
L 266.317951 175.600227 
L 266.562604 175.328252 
L 266.807257 176.557087 
L 267.05191 175.139738 
L 267.296563 172.607354 
L 267.785869 170.28161 
L 268.030522 169.895872 
L 268.519828 169.553711 
L 268.764481 170.226022 
L 269.253787 170.313729 
L 269.49844 170.653014 
L 269.743093 171.377185 
L 269.987746 171.550112 
L 270.232399 172.431774 
L 270.721705 172.679149 
L 270.966358 172.05874 
L 271.211011 171.814257 
L 271.700317 172.614095 
L 272.434276 173.907493 
L 272.678929 173.401252 
L 272.923582 173.208757 
L 273.168235 173.582195 
L 273.412888 173.280272 
L 273.657541 174.275596 
L 273.902194 174.735032 
L 274.146847 174.851138 
L 274.636153 175.431035 
L 275.125459 175.224583 
L 275.370112 175.699231 
L 275.614765 175.482707 
L 275.859418 176.27287 
L 276.104071 175.558641 
L 276.593377 176.491016 
L 276.83803 176.774916 
L 277.082683 176.759386 
L 277.327336 176.170484 
L 277.571989 176.656344 
L 277.816642 176.464513 
L 278.061295 176.758297 
L 278.305948 176.73909 
L 278.550601 176.459322 
L 279.039907 176.790301 
L 279.28456 176.671362 
L 279.529213 177.268194 
L 279.773866 176.662198 
L 280.018519 176.805009 
L 280.263172 176.579214 
L 280.507825 176.848939 
L 280.752478 176.692176 
L 281.241784 175.013545 
L 281.73109 173.139407 
L 281.975743 173.021585 
L 282.220396 171.861243 
L 282.465049 171.838554 
L 282.709702 172.116513 
L 282.954355 173.560992 
L 283.199008 171.909203 
L 283.443661 173.18919 
L 283.688314 172.158964 
L 283.932967 172.276057 
L 284.17762 172.061055 
L 284.422273 173.989757 
L 284.666926 173.503104 
L 284.911579 173.97577 
L 285.400885 177.351878 
L 285.645538 176.753842 
L 285.890191 176.602638 
L 286.134844 175.630731 
L 286.379497 175.199074 
L 286.62415 174.505732 
L 286.868803 175.032594 
L 287.35811 174.213029 
L 287.602763 173.629001 
L 287.847416 175.25986 
L 288.092069 174.86338 
L 288.826028 176.308479 
L 289.070681 176.198602 
L 289.315334 175.655663 
L 289.559987 175.611394 
L 289.80464 175.755951 
L 290.049293 176.914461 
L 290.293946 177.374366 
L 290.538599 179.197387 
L 290.783252 179.104107 
L 291.272558 178.484455 
L 291.517211 178.780755 
L 291.761864 179.607262 
L 292.006517 179.55497 
L 292.25117 178.307296 
L 292.495823 178.008465 
L 292.740476 178.023483 
L 292.985129 177.708546 
L 293.229782 178.63245 
L 293.719088 176.822234 
L 293.963741 177.214373 
L 294.453047 176.528168 
L 294.6977 176.288544 
L 294.942353 176.332084 
L 295.187006 176.594549 
L 295.676312 175.606175 
L 295.920965 175.347192 
L 296.165618 175.338425 
L 296.410271 175.072557 
L 296.654924 175.005341 
L 296.899577 174.707627 
L 297.14423 174.0852 
L 297.388883 173.861242 
L 297.633536 174.296425 
L 297.878189 173.772036 
L 298.367495 174.943668 
L 298.612148 174.844714 
L 299.101454 174.265841 
L 299.346107 174.336605 
L 299.59076 175.55735 
L 299.835413 174.004573 
L 300.080066 174.020413 
L 300.324719 174.311183 
L 300.569372 174.782796 
L 300.814025 174.503079 
L 301.058678 174.666214 
L 301.303331 173.674531 
L 301.547984 174.619444 
L 301.792637 174.489517 
L 302.03729 174.199396 
L 302.281943 174.4107 
L 302.771249 173.688129 
L 303.015902 174.387506 
L 303.749861 174.158365 
L 303.994514 174.907576 
L 304.239167 176.226713 
L 304.48382 176.880496 
L 304.973126 177.311518 
L 305.217779 178.533929 
L 305.462432 178.45372 
L 305.707085 179.792741 
L 305.951738 179.835308 
L 306.196391 179.493889 
L 306.441044 179.840203 
L 306.685697 179.790766 
L 306.93035 179.46913 
L 307.175003 179.931796 
L 307.419656 178.920985 
L 308.153615 179.536354 
L 308.398268 179.250047 
L 308.887574 178.241341 
L 309.132227 178.399005 
L 309.376881 179.686548 
L 309.866187 177.527891 
L 310.11084 176.848477 
L 310.355493 176.947878 
L 310.600146 177.200221 
L 310.844799 176.511788 
L 311.334105 176.244175 
L 311.578758 177.029111 
L 311.823411 177.354351 
L 312.068064 177.277264 
L 312.55737 176.885773 
L 312.802023 177.491034 
L 313.046676 177.319369 
L 313.291329 177.956 
L 313.535982 177.338014 
L 313.780635 177.745936 
L 314.025288 177.316666 
L 314.269941 177.417689 
L 314.514594 176.849753 
L 315.0039 178.036201 
L 315.737859 174.378349 
L 315.982512 174.273368 
L 316.227165 174.010268 
L 316.471818 173.985034 
L 316.716471 174.240765 
L 316.961124 174.779127 
L 317.205777 174.500036 
L 317.695083 174.322286 
L 317.939736 174.654498 
L 318.184389 174.794072 
L 318.429042 174.413908 
L 318.673695 174.34119 
L 318.918348 174.630511 
L 319.407654 175.719822 
L 319.89696 175.873939 
L 320.386266 176.680641 
L 320.875572 176.176814 
L 321.120225 176.556503 
L 321.364878 176.663979 
L 321.854184 177.982676 
L 322.098837 178.372026 
L 322.34349 178.451939 
L 322.588143 178.660994 
L 322.832796 178.10804 
L 323.077449 178.280382 
L 323.322102 179.31053 
L 323.566755 178.620287 
L 324.056061 178.211565 
L 324.300714 177.303356 
L 324.545367 177.119341 
L 324.79002 177.567789 
L 325.279326 177.074013 
L 325.523979 178.063418 
L 325.768632 178.075999 
L 326.013285 178.593633 
L 326.257938 177.769375 
L 326.502591 177.939201 
L 326.747244 177.186846 
L 326.991897 177.379182 
L 327.23655 177.418684 
L 327.481203 177.625165 
L 328.215162 175.331698 
L 328.459815 174.765031 
L 328.704468 174.908088 
L 328.949121 174.037694 
L 329.193774 174.589661 
L 329.438427 174.525854 
L 329.927733 175.288656 
L 330.172386 175.060971 
L 330.417039 177.0726 
L 330.661692 176.191263 
L 331.150998 175.831661 
L 331.395651 176.064356 
L 331.884958 175.349305 
L 332.374264 175.000085 
L 332.618917 175.389852 
L 332.86357 175.244027 
L 333.108223 174.810367 
L 333.597529 175.588684 
L 334.331488 174.522156 
L 334.820794 175.811379 
L 335.065447 175.494791 
L 335.554753 176.275206 
L 336.044059 177.621026 
L 336.288712 177.703881 
L 336.533365 177.253955 
L 336.778018 176.524304 
L 337.022671 176.603893 
L 337.267324 177.828596 
L 337.511977 177.429261 
L 337.75663 177.543161 
L 338.001283 177.315397 
L 338.245936 177.537746 
L 338.490589 176.673964 
L 338.735242 177.151518 
L 338.979895 176.445436 
L 339.224548 176.615356 
L 339.469201 177.169666 
L 339.713854 177.061966 
L 339.958507 177.881206 
L 340.20316 177.471452 
L 340.447813 176.481002 
L 341.181772 175.6412 
L 341.426425 176.462083 
L 341.671078 176.566495 
L 341.915731 177.149723 
L 342.160384 176.410296 
L 342.405037 176.685788 
L 342.64969 175.952922 
L 342.894343 176.62961 
L 343.138996 175.497228 
L 343.383649 176.19848 
L 343.872955 176.715594 
L 344.117608 176.40703 
L 344.362261 177.10286 
L 344.606914 177.288209 
L 344.851567 177.678943 
L 345.09622 180.409278 
L 345.340873 179.819864 
L 345.585526 180.103735 
L 345.830179 178.722565 
L 346.074832 179.01167 
L 346.319485 178.019331 
L 346.564138 178.558492 
L 346.808791 177.529635 
L 347.053444 177.141511 
L 347.298097 177.728841 
L 347.54275 176.260981 
L 347.787403 176.559005 
L 348.032056 175.714105 
L 348.276709 176.166519 
L 348.521362 175.129861 
L 348.766015 174.603799 
L 349.010668 174.403742 
L 349.499974 173.375297 
L 349.744627 173.299637 
L 349.98928 174.044018 
L 350.233933 173.538215 
L 350.478586 173.595541 
L 350.967892 174.908802 
L 351.212545 174.770295 
L 351.457198 175.032449 
L 351.701851 174.113253 
L 351.946504 174.798773 
L 352.43581 174.159461 
L 352.680463 175.020618 
L 352.925116 175.065384 
L 353.414422 175.518432 
L 353.659075 175.904177 
L 354.148381 175.153393 
L 354.393035 175.176731 
L 354.637688 175.330343 
L 354.882341 175.299644 
L 355.126994 177.339146 
L 355.860953 177.625057 
L 356.105606 178.203339 
L 356.594912 177.156089 
L 356.839565 178.147737 
L 357.084218 177.456535 
L 357.328871 178.35961 
L 357.573524 178.440879 
L 357.818177 177.778243 
L 358.06283 179.337228 
L 358.552136 177.569051 
L 358.796789 178.055603 
L 359.041442 176.857763 
L 359.286095 176.472033 
L 359.530748 177.013437 
L 359.775401 176.11468 
L 360.020054 176.719191 
L 360.264707 176.743359 
L 360.50936 175.464387 
L 360.754013 175.909728 
L 360.998666 178.438161 
L 361.487972 177.106616 
L 361.732625 177.641582 
L 361.977278 176.868852 
L 362.221931 177.346694 
L 362.711237 175.781538 
L 362.95589 176.147492 
L 363.689849 174.284226 
L 363.934502 174.099086 
L 364.179155 173.305578 
L 364.423808 173.312038 
L 364.668461 173.134476 
L 364.913114 173.559016 
L 365.157767 173.527668 
L 365.40242 174.506273 
L 365.647073 173.964111 
L 366.136379 174.788881 
L 366.381032 174.456821 
L 366.625685 175.432217 
L 366.870338 174.992853 
L 367.114991 174.902493 
L 367.359644 175.849757 
L 367.604297 175.163191 
L 367.84895 175.960535 
L 368.093603 174.59638 
L 368.338256 174.087355 
L 368.582909 174.62036 
L 368.827562 174.389575 
L 369.072215 173.866773 
L 369.316868 173.641842 
L 369.561521 174.83245 
L 369.806174 174.231407 
L 370.050827 175.245066 
L 370.29548 174.815038 
L 370.540133 176.314254 
L 370.784786 175.982979 
L 371.029439 175.234201 
L 371.274092 175.918344 
L 371.763398 173.951855 
L 372.008051 173.011657 
L 372.252704 172.822451 
L 372.497357 171.608771 
L 372.74201 172.391457 
L 372.986663 172.65628 
L 373.231316 173.513133 
L 373.475969 174.903899 
L 373.720622 174.517606 
L 373.965275 175.353349 
L 374.209928 175.218606 
L 374.454581 174.562891 
L 374.699234 175.35769 
L 374.943887 175.686383 
L 375.18854 175.217459 
L 375.433193 175.360992 
L 375.677846 174.664022 
L 375.922499 174.756769 
L 376.167152 174.447924 
L 376.411805 171.597409 
L 376.656458 171.648237 
L 377.145765 171.331988 
L 377.390418 171.598259 
L 377.879724 169.203293 
L 378.124377 169.842837 
L 378.613683 169.263466 
L 379.102989 170.492683 
L 379.592295 172.567304 
L 379.836948 172.582596 
L 380.081601 172.970857 
L 380.326254 173.022854 
L 381.549519 177.259406 
L 381.794172 176.286828 
L 382.038825 176.971945 
L 382.283478 176.292026 
L 382.528131 177.512137 
L 382.772784 176.815975 
L 383.017437 177.97096 
L 383.506743 176.552948 
L 383.751396 177.244049 
L 383.996049 177.10738 
L 384.240702 175.430357 
L 384.485355 175.745345 
L 384.730008 176.320613 
L 384.974661 176.597029 
L 385.219314 177.529765 
L 385.463967 176.01595 
L 385.70862 175.210704 
L 385.953273 176.039598 
L 386.197926 175.503493 
L 386.442579 176.690064 
L 386.687232 177.00126 
L 386.931885 176.030066 
L 387.176538 175.543623 
L 387.665844 173.741041 
L 387.910497 174.544556 
L 388.15515 173.495822 
L 388.399803 174.315185 
L 388.644456 174.246814 
L 388.889109 174.70284 
L 389.133762 174.356735 
L 389.623068 175.149637 
L 389.867721 174.639206 
L 390.357027 174.266533 
L 390.60168 174.275877 
L 391.090986 176.612422 
L 391.580292 175.499153 
L 391.824945 176.109006 
L 392.069598 174.357484 
L 392.314251 173.865064 
L 392.558904 174.82209 
L 393.04821 174.674203 
L 393.04821 174.674203 
" style="fill:none;stroke:#1f77b4;stroke-linecap:square;stroke-width:1.5;"/>
   </g>
   <g id="line2d_32">
    <path clip-path="url(#p60d8e64de9)" d="M 68.393665 174.158501 
L 68.638318 183.408384 
L 68.882971 182.696854 
L 69.372277 162.062501 
L 69.61693 174.158501 
L 69.861583 170.600854 
L 70.106236 176.150784 
L 70.350889 161.06636 
L 70.595542 164.054784 
L 71.084848 182.269937 
L 71.329501 175.296949 
L 71.574154 160.070219 
L 71.818807 176.720007 
L 72.06346 179.993043 
L 72.308113 187.108337 
L 72.552766 179.993043 
L 72.797419 192.231349 
L 73.042072 175.58156 
L 73.286725 175.439254 
L 73.531378 181.843019 
L 73.776031 177.716149 
L 74.020684 197.638972 
L 74.50999 170.600854 
L 74.754643 184.546831 
L 74.999296 159.643301 
L 75.243949 195.504384 
L 75.488602 187.392949 
L 75.733255 162.489419 
L 75.977908 188.673701 
L 76.222561 162.062501 
L 76.467214 199.346643 
L 76.711867 200.200478 
L 76.95652 179.423819 
L 77.201173 181.843019 
L 77.445826 177.716149 
L 77.690479 162.204807 
L 77.935132 179.708431 
L 78.179785 182.83916 
L 78.424438 192.800572 
L 78.669091 163.770172 
L 78.913744 189.812149 
L 79.158397 186.396807 
L 79.40305 177.004619 
L 79.647703 185.827584 
L 79.892356 172.166219 
L 80.137009 177.716149 
L 80.381662 172.735443 
L 80.626315 194.081325 
L 80.870968 189.385231 
L 81.115621 174.585419 
L 81.360274 185.827584 
L 81.604927 181.558407 
L 81.84958 169.177796 
L 82.338886 187.535254 
L 82.583539 187.250643 
L 82.828192 172.023913 
L 83.072845 189.812149 
L 83.317498 187.250643 
L 83.562151 168.608572 
L 83.806804 181.700713 
L 84.051457 176.150784 
L 84.29611 160.924054 
L 84.540763 180.704572 
L 84.785417 172.593137 
L 85.03007 156.654878 
L 85.274723 202.477372 
L 85.764029 173.87389 
L 86.008682 183.123772 
L 86.253335 178.427678 
L 86.497988 189.527537 
L 86.987294 167.327819 
L 87.231947 171.739301 
L 87.4766 190.665984 
L 87.721253 173.589278 
L 87.965906 167.612431 
L 88.210559 167.470125 
L 88.455212 193.654407 
L 88.699865 188.958313 
L 88.944518 177.431537 
L 89.189171 184.689137 
L 89.433824 178.00076 
L 89.678477 175.154643 
L 89.92313 142.993513 
L 90.167783 162.489419 
L 90.412436 170.600854 
L 90.657089 165.620149 
L 90.901742 181.843019 
L 91.146395 181.985325 
L 91.391048 178.143066 
L 91.635701 178.427678 
L 91.880354 174.016196 
L 92.125007 155.516431 
L 92.36966 154.947207 
L 92.614313 164.054784 
L 92.858966 178.71229 
L 93.103619 181.700713 
L 93.348272 173.731584 
L 93.592925 178.00076 
L 93.837578 186.396807 
L 94.082231 163.058643 
L 94.326884 164.19709 
L 94.571537 183.692996 
L 95.060843 177.431537 
L 95.305496 190.80829 
L 95.550149 151.816478 
L 95.794802 172.593137 
L 96.039455 180.277654 
L 96.284108 167.470125 
L 96.528761 175.723866 
L 96.773414 171.027772 
L 97.26272 183.55069 
L 97.507373 141.428149 
L 97.752026 181.843019 
L 97.996679 167.470125 
L 98.241332 173.589278 
L 98.485985 169.747019 
L 98.730638 213.719537 
L 98.975291 167.185513 
L 99.464597 180.989184 
L 99.70925 183.266078 
L 99.953903 174.158501 
L 100.198556 158.362549 
L 100.443209 183.266078 
L 100.687862 165.050925 
L 101.177168 183.692996 
L 101.421821 171.312384 
L 101.666474 175.154643 
L 101.911127 180.846878 
L 102.15578 178.00076 
L 102.400433 206.604243 
L 102.889739 175.439254 
L 103.134392 193.22749 
L 103.379045 162.631725 
L 103.623698 161.493278 
L 103.868351 175.58156 
L 104.113004 163.200949 
L 104.357657 182.981466 
L 104.60231 169.747019 
L 104.846963 171.170078 
L 105.091616 199.915866 
L 105.336269 172.166219 
L 105.580922 172.735443 
L 105.825575 149.539584 
L 106.070228 172.023913 
L 106.314881 173.020054 
L 106.559534 185.685278 
L 106.804187 185.685278 
L 107.04884 188.246784 
L 107.293494 171.027772 
L 107.538147 195.219772 
L 107.7828 180.135349 
L 108.027453 183.408384 
L 108.272106 161.350972 
L 108.516759 156.93949 
L 108.761412 175.58156 
L 109.006065 176.150784 
L 109.250718 182.412243 
L 109.495371 170.173937 
L 109.740024 175.154643 
L 109.984677 191.662125 
L 110.473983 158.64716 
L 110.718636 154.377984 
L 110.963289 189.385231 
L 111.207942 178.71229 
L 111.452595 194.223631 
L 111.697248 165.335537 
L 111.941901 198.492807 
L 112.186554 196.500525 
L 112.431207 168.039349 
L 112.67586 169.462407 
L 112.920513 138.866643 
L 113.165166 182.554549 
L 113.409819 181.985325 
L 113.654472 167.897043 
L 113.899125 165.90476 
L 114.143778 161.208666 
L 114.388431 184.546831 
L 114.633084 151.247254 
L 114.877737 170.74316 
L 115.12239 163.770172 
L 115.367043 167.754737 
L 115.611696 175.154643 
L 115.856349 196.642831 
L 116.101002 166.473984 
L 116.345655 185.685278 
L 116.590308 159.216384 
L 117.079614 185.116054 
L 117.324267 157.651019 
L 117.56892 192.089043 
L 117.813573 159.643301 
L 118.058226 182.269937 
L 118.302879 151.247254 
L 118.547532 177.146925 
L 119.036838 165.335537 
L 119.526144 184.404525 
L 119.770797 170.885466 
L 120.01545 183.123772 
L 120.260103 186.396807 
L 120.504756 162.774031 
L 120.749409 173.589278 
L 120.994062 171.170078 
L 121.483368 186.681419 
L 121.728021 172.735443 
L 121.972674 183.123772 
L 122.217327 166.758596 
L 122.46198 177.431537 
L 122.951286 207.315772 
L 123.195939 196.215913 
L 123.440592 201.196619 
L 123.685245 156.085654 
L 123.929898 168.466266 
L 124.174551 150.535725 
L 124.419204 185.25836 
L 124.663857 163.912478 
L 124.90851 176.008478 
L 125.153163 177.289231 
L 125.397816 159.216384 
L 125.642469 167.612431 
L 125.887122 163.770172 
L 126.131775 163.058643 
L 126.376428 180.704572 
L 126.621081 165.762454 
L 126.865734 172.308525 
L 127.110387 182.696854 
L 127.35504 168.32396 
L 127.599693 162.062501 
L 127.844346 175.723866 
L 128.088999 173.446972 
L 128.333652 209.877278 
L 128.578305 181.985325 
L 128.822958 234.638501 
L 129.067611 190.523678 
L 129.312264 178.143066 
L 129.556917 142.281984 
L 129.801571 187.819866 
L 130.046224 148.401137 
L 130.290877 195.931301 
L 130.53553 182.83916 
L 130.780183 182.554549 
L 131.024836 189.669843 
L 131.269489 133.601325 
L 131.514142 166.61629 
L 131.758795 168.181654 
L 132.003448 174.300807 
L 132.248101 176.577701 
L 132.492754 212.865701 
L 133.471366 158.220243 
L 133.716019 164.481701 
L 133.960672 204.327349 
L 134.205325 186.681419 
L 134.449978 225.530925 
L 134.694631 163.200949 
L 134.939284 202.477372 
L 135.183937 159.500996 
L 135.42859 159.785607 
L 135.673243 155.089513 
L 135.917896 174.158501 
L 136.162549 179.281513 
L 136.407202 171.881607 
L 136.651855 167.897043 
L 137.141161 197.069749 
L 137.630467 168.32396 
L 137.87512 176.720007 
L 138.119773 189.242925 
L 138.364426 176.150784 
L 138.609079 187.819866 
L 138.853732 183.55069 
L 139.098385 157.651019 
L 139.343038 167.043207 
L 139.587691 207.74269 
L 139.832344 177.716149 
L 140.076997 176.577701 
L 140.32165 168.608572 
L 140.566303 170.600854 
L 140.810956 183.266078 
L 141.055609 165.193231 
L 141.300262 186.681419 
L 141.544915 192.231349 
L 141.789568 181.416101 
L 142.034221 143.420431 
L 142.278874 160.639443 
L 142.523527 146.835772 
L 142.76818 185.96989 
L 143.012833 163.627866 
L 143.502139 159.216384 
L 143.991445 178.854596 
L 144.236098 207.884996 
L 144.725404 147.974219 
L 144.970057 180.562266 
L 145.21471 173.304666 
L 145.459363 171.027772 
L 145.704016 228.661654 
L 145.948669 174.585419 
L 146.193322 146.124243 
L 146.437975 190.239066 
L 146.682628 175.154643 
L 146.927281 193.939019 
L 147.171934 157.224101 
L 147.416587 179.281513 
L 147.66124 169.604713 
L 147.905893 173.304666 
L 148.150546 129.189843 
L 148.395199 181.985325 
L 148.639852 196.073607 
L 148.884505 186.966031 
L 149.373811 165.050925 
L 149.863117 182.269937 
L 150.10777 177.004619 
L 150.352423 158.789466 
L 150.597076 194.081325 
L 150.841729 172.023913 
L 151.086382 176.435396 
L 151.331035 148.685749 
L 151.575688 188.958313 
L 151.820341 147.404996 
L 152.064994 179.281513 
L 152.309648 170.173937 
L 152.554301 198.777419 
L 152.798954 163.343254 
L 153.043607 175.012337 
L 153.28826 140.574313 
L 153.532913 152.954925 
L 153.777566 196.215913 
L 154.022219 177.716149 
L 154.266872 169.462407 
L 154.511525 178.427678 
L 154.756178 178.71229 
L 155.000831 170.316243 
L 155.245484 181.416101 
L 155.490137 166.758596 
L 155.73479 173.304666 
L 155.979443 195.077466 
L 156.224096 169.177796 
L 156.468749 183.266078 
L 156.713402 138.439725 
L 157.202708 198.919725 
L 157.447361 170.031631 
L 157.692014 189.812149 
L 157.936667 131.039819 
L 158.18132 162.204807 
L 158.425973 178.143066 
L 158.670626 179.566125 
L 158.915279 177.146925 
L 159.159932 188.816007 
L 159.404585 192.373654 
L 159.649238 206.888854 
L 159.893891 183.55069 
L 160.138544 195.077466 
L 160.62785 138.724337 
L 160.872503 188.673701 
L 161.117156 215.711819 
L 161.361809 177.716149 
L 161.606462 188.531396 
L 161.851115 169.03549 
L 162.095768 158.789466 
L 162.340421 177.573843 
L 162.585074 175.154643 
L 162.829727 160.639443 
L 163.563686 182.981466 
L 163.808339 190.381372 
L 164.297645 152.528007 
L 164.786951 189.242925 
L 165.031604 156.512572 
L 165.276257 189.954454 
L 165.52091 198.06589 
L 165.765563 164.766313 
L 166.010216 165.477843 
L 166.744175 212.865701 
L 166.988828 165.477843 
L 167.233481 204.754266 
L 167.478134 164.19709 
L 167.722787 177.004619 
L 167.96744 166.189372 
L 168.212093 176.008478 
L 168.456746 160.924054 
L 168.701399 184.119913 
L 168.946052 147.547301 
L 169.435358 186.823725 
L 169.680011 151.104949 
L 169.924664 185.116054 
L 170.169317 172.450831 
L 170.41397 181.843019 
L 170.658623 143.420431 
L 170.903276 153.239537 
L 171.392582 187.392949 
L 171.637235 219.83869 
L 172.126541 158.077937 
L 172.371194 173.87389 
L 172.615847 221.54636 
L 173.105153 147.26269 
L 173.349806 191.662125 
L 173.594459 164.766313 
L 173.839112 166.758596 
L 174.083765 160.497137 
L 174.573072 201.196619 
L 174.817725 186.823725 
L 175.062378 206.604243 
L 175.307031 181.13149 
L 175.551684 178.854596 
L 175.796337 168.750878 
L 176.04099 260.25356 
L 176.285643 157.793325 
L 176.530296 174.585419 
L 176.774949 170.458549 
L 177.019602 192.800572 
L 177.264255 174.300807 
L 177.508908 201.054313 
L 177.753561 170.458549 
L 177.998214 175.723866 
L 178.242867 138.866643 
L 178.48752 178.143066 
L 178.732173 169.03549 
L 179.221479 198.635113 
L 179.466132 180.277654 
L 179.710785 178.00076 
L 180.200091 140.858925 
L 180.444744 180.846878 
L 180.689397 178.71229 
L 180.93405 167.470125 
L 181.178703 180.41996 
L 181.423356 174.443113 
L 181.668009 159.785607 
L 181.912662 137.870501 
L 182.157315 174.727725 
L 182.401968 185.116054 
L 182.646621 189.954454 
L 182.891274 178.854596 
L 183.135927 191.377513 
L 183.38058 143.847349 
L 183.625233 187.108337 
L 183.869886 165.477843 
L 184.114539 168.181654 
L 184.359192 202.050454 
L 184.603845 175.154643 
L 184.848498 175.866172 
L 185.093151 191.519819 
L 185.337804 158.931772 
L 185.582457 178.427678 
L 185.82711 163.343254 
L 186.071763 186.254501 
L 186.316416 146.978078 
L 186.805722 168.893184 
L 187.050375 189.242925 
L 187.295028 197.212054 
L 188.028987 144.13196 
L 188.27364 168.32396 
L 188.518293 173.731584 
L 188.762946 141.855066 
L 189.007599 221.54636 
L 189.252252 159.074078 
L 189.496905 183.835301 
L 189.741558 161.635584 
L 189.986211 185.685278 
L 190.230864 177.716149 
L 190.475517 181.13149 
L 190.72017 157.081796 
L 190.964823 178.00076 
L 191.209476 172.308525 
L 191.454129 195.931301 
L 191.943435 152.10109 
L 192.188088 184.119913 
L 192.432741 174.443113 
L 192.677394 181.700713 
L 192.922047 181.985325 
L 193.1667 182.83916 
L 193.411353 198.06589 
L 193.656006 165.050925 
L 193.900659 178.285372 
L 194.145312 174.016196 
L 194.389965 174.585419 
L 194.634618 189.527537 
L 194.879271 174.443113 
L 195.123924 171.170078 
L 195.368577 173.446972 
L 195.61323 164.766313 
L 195.857883 177.146925 
L 196.102536 166.900901 
L 196.347189 186.823725 
L 196.591842 164.339396 
L 196.836495 192.089043 
L 197.081149 181.416101 
L 197.325802 188.958313 
L 197.570455 178.143066 
L 197.815108 184.546831 
L 198.059761 186.112196 
L 198.304414 177.146925 
L 198.549067 175.296949 
L 198.79372 180.135349 
L 199.038373 211.015725 
L 199.283026 169.889325 
L 199.527679 181.700713 
L 199.772332 152.670313 
L 200.016985 192.800572 
L 200.261638 182.269937 
L 200.506291 194.508243 
L 200.750944 158.789466 
L 200.995597 208.454219 
L 201.24025 162.062501 
L 201.484903 192.51596 
L 201.729556 162.489419 
L 201.974209 216.70796 
L 202.218862 170.173937 
L 202.463515 173.589278 
L 202.952821 197.496666 
L 203.197474 144.274266 
L 203.442127 210.019584 
L 203.68678 219.411772 
L 203.931433 234.496196 
L 204.176086 186.254501 
L 204.420739 188.673701 
L 204.910045 159.785607 
L 205.154698 163.627866 
L 205.399351 137.158972 
L 205.644004 197.781278 
L 205.888657 158.931772 
L 206.13331 162.204807 
L 206.377963 159.643301 
L 206.622616 175.866172 
L 206.867269 139.151254 
L 207.111922 186.254501 
L 207.356575 132.462878 
L 207.601228 143.847349 
L 207.845881 188.38909 
L 208.090534 159.500996 
L 208.335187 226.38476 
L 208.57984 179.993043 
L 208.824493 178.569984 
L 209.069146 187.535254 
L 209.313799 168.039349 
L 209.558452 174.870031 
L 209.803105 169.462407 
L 210.047758 175.866172 
L 210.292411 151.38956 
L 210.537064 184.546831 
L 210.781717 151.247254 
L 211.02637 178.71229 
L 211.271023 162.631725 
L 211.515676 179.566125 
L 211.760329 162.916337 
L 212.004982 183.408384 
L 212.249635 193.654407 
L 212.494288 169.604713 
L 212.738941 171.739301 
L 212.983594 169.462407 
L 213.228247 158.504854 
L 213.4729 178.00076 
L 213.717553 138.582031 
L 213.962206 185.827584 
L 214.206859 166.189372 
L 214.451512 212.011866 
L 214.696165 180.989184 
L 214.940818 190.665984 
L 215.185471 128.478313 
L 215.430124 114.959254 
L 215.674777 156.085654 
L 216.164083 191.662125 
L 216.408736 180.41996 
L 216.653389 178.00076 
L 216.898042 178.569984 
L 217.387348 200.627396 
L 217.632001 181.558407 
L 218.121307 212.296478 
L 218.36596 154.947207 
L 218.610613 145.839631 
L 218.855266 151.531866 
L 219.099919 204.754266 
L 219.344572 191.092901 
L 219.589226 186.396807 
L 219.833879 235.634643 
L 220.078532 153.951066 
L 220.323185 174.585419 
L 220.567838 177.146925 
L 220.812491 196.785137 
L 221.057144 166.189372 
L 221.301797 250.57676 
L 221.54645 225.388619 
L 221.791103 146.408854 
L 222.035756 160.212525 
L 222.280409 232.219301 
L 222.525062 160.781749 
L 223.014368 130.043678 
L 223.259021 176.720007 
L 223.503674 187.819866 
L 223.748327 189.100619 
L 223.99298 156.654878 
L 224.237633 149.112666 
L 224.971592 189.669843 
L 225.216245 145.981937 
L 225.460898 165.762454 
L 225.705551 156.797184 
L 226.194857 207.884996 
L 226.43951 217.846407 
L 226.684163 160.781749 
L 226.928816 182.83916 
L 227.173469 152.10109 
L 227.418122 223.396337 
L 227.662775 180.704572 
L 227.907428 177.431537 
L 228.152081 218.273325 
L 228.396734 177.004619 
L 228.641387 223.111725 
L 229.130693 168.181654 
L 229.375346 197.212054 
L 229.619999 163.343254 
L 229.864652 200.200478 
L 230.109305 159.785607 
L 230.353958 157.508713 
L 230.598611 161.493278 
L 230.843264 189.100619 
L 231.087917 201.908149 
L 231.33257 224.961701 
L 231.577223 191.662125 
L 231.821876 190.665984 
L 232.066529 174.870031 
L 232.311182 205.038878 
L 232.555835 158.64716 
L 233.045141 175.012337 
L 233.289794 164.624007 
L 233.534447 180.562266 
L 233.7791 176.150784 
L 234.023753 151.104949 
L 234.268406 183.266078 
L 234.513059 168.32396 
L 234.757712 136.87436 
L 235.002365 194.792854 
L 235.247018 154.804901 
L 235.491671 147.26269 
L 235.736324 204.754266 
L 235.980977 168.750878 
L 236.470283 185.116054 
L 236.714936 189.812149 
L 236.959589 191.946737 
L 237.204242 207.173466 
L 237.448895 150.535725 
L 237.693548 155.089513 
L 237.938201 175.296949 
L 238.182854 216.281043 
L 238.427507 205.038878 
L 238.916813 153.666454 
L 239.161466 184.546831 
L 239.406119 178.996901 
L 239.650772 177.716149 
L 239.895425 142.851207 
L 240.140078 188.246784 
L 240.384731 174.870031 
L 240.629384 210.16189 
L 241.11869 171.739301 
L 241.363343 178.00076 
L 241.607996 206.746549 
L 242.097303 108.55549 
L 242.341956 204.327349 
L 242.586609 180.989184 
L 242.831262 180.277654 
L 243.075915 160.781749 
L 243.320568 216.70796 
L 243.565221 185.25836 
L 243.809874 210.019584 
L 244.29918 155.516431 
L 244.543833 165.477843 
L 244.788486 198.350501 
L 245.033139 195.64669 
L 245.277792 187.67756 
L 245.522445 163.912478 
L 245.767098 172.023913 
L 246.011751 197.638972 
L 246.256404 169.462407 
L 246.501057 220.123301 
L 246.74571 190.381372 
L 246.990363 203.046596 
L 247.235016 199.062031 
L 247.724322 228.092431 
L 247.968975 163.200949 
L 248.213628 157.366407 
L 248.458281 192.800572 
L 248.702934 177.573843 
L 248.947587 199.204337 
L 249.436893 181.273796 
L 249.681546 169.03549 
L 249.926199 168.466266 
L 250.170852 173.020054 
L 250.660158 177.146925 
L 250.904811 185.542972 
L 251.149464 173.304666 
L 251.63877 186.539113 
L 251.883423 186.823725 
L 252.128076 188.673701 
L 252.372729 159.927913 
L 252.617382 163.343254 
L 252.862035 68.282925 
L 253.106688 183.123772 
L 253.351341 180.704572 
L 253.595994 198.492807 
L 253.840647 173.446972 
L 254.0853 184.831443 
L 254.329953 187.392949 
L 254.574606 157.081796 
L 254.819259 202.90429 
L 255.063912 178.143066 
L 255.308565 200.342784 
L 255.553218 164.481701 
L 255.797871 162.062501 
L 256.287177 200.48509 
L 256.53183 205.038878 
L 256.776483 182.696854 
L 257.021136 213.577231 
L 257.265789 202.761984 
L 257.510442 128.336007 
L 257.755095 138.155113 
L 257.999748 179.566125 
L 258.244401 168.039349 
L 258.489054 199.204337 
L 258.733707 167.754737 
L 258.97836 168.466266 
L 259.223013 203.046596 
L 259.467666 122.501466 
L 259.712319 199.204337 
L 260.201625 187.819866 
L 260.446278 176.150784 
L 260.690931 176.29309 
L 260.935584 171.739301 
L 261.180237 183.835301 
L 261.42489 246.876807 
L 261.669543 172.166219 
L 261.914196 237.626925 
L 262.158849 186.396807 
L 262.403502 178.285372 
L 262.892808 209.308054 
L 263.137461 161.77789 
L 263.382114 34.414125 
L 263.626767 199.77356 
L 263.87142 155.658737 
L 264.116073 139.29356 
L 264.360726 165.193231 
L 264.60538 156.797184 
L 264.850033 166.61629 
L 265.094686 167.327819 
L 265.339339 191.804431 
L 265.583992 186.823725 
L 265.828645 194.508243 
L 266.073298 207.173466 
L 266.317951 200.48509 
L 266.562604 164.054784 
L 266.807257 257.692054 
L 267.296563 198.777419 
L 267.541216 186.539113 
L 267.785869 208.738831 
L 268.030522 177.573843 
L 268.275175 172.735443 
L 268.519828 173.446972 
L 268.764481 191.946737 
L 269.009134 163.200949 
L 269.253787 167.897043 
L 269.743093 187.67756 
L 269.987746 177.146925 
L 270.477052 220.834831 
L 270.721705 191.662125 
L 270.966358 180.562266 
L 271.211011 208.596525 
L 271.455664 157.508713 
L 271.700317 166.189372 
L 271.94497 152.385701 
L 272.189623 209.45036 
L 272.434276 181.985325 
L 272.678929 183.266078 
L 272.923582 170.458549 
L 273.168235 180.562266 
L 273.412888 176.29309 
L 273.902194 156.085654 
L 274.146847 199.488949 
L 274.3915 160.354831 
L 274.636153 164.054784 
L 274.880806 194.93516 
L 275.125459 168.750878 
L 275.370112 192.658266 
L 275.614765 172.023913 
L 276.104071 216.138737 
L 276.348724 156.370266 
L 276.83803 199.915866 
L 277.327336 174.870031 
L 277.571989 168.750878 
L 277.816642 168.750878 
L 278.061295 164.908619 
L 278.305948 190.80829 
L 278.550601 166.900901 
L 278.795254 177.289231 
L 279.039907 192.51596 
L 279.28456 172.735443 
L 279.529213 181.416101 
L 279.773866 196.785137 
L 280.018519 191.519819 
L 280.263172 212.438784 
L 280.507825 214.573372 
L 280.752478 183.977607 
L 280.997131 211.442643 
L 281.241784 188.246784 
L 281.486437 206.319631 
L 281.73109 188.958313 
L 281.975743 187.108337 
L 282.220396 204.042737 
L 282.465049 166.189372 
L 282.709702 210.16189 
L 282.954355 136.87436 
L 283.199008 201.481231 
L 283.443661 148.97036 
L 283.688314 145.128101 
L 283.932967 160.497137 
L 284.17762 210.446501 
L 284.422273 161.350972 
L 284.666926 162.062501 
L 284.911579 224.392478 
L 285.156232 233.926972 
L 285.645538 177.004619 
L 285.890191 179.566125 
L 286.379497 153.524149 
L 286.62415 170.458549 
L 286.868803 161.77789 
L 287.113457 181.843019 
L 287.35811 149.539584 
L 287.602763 225.104007 
L 287.847416 161.350972 
L 288.092069 176.720007 
L 288.336722 179.139207 
L 288.581375 177.431537 
L 288.826028 183.123772 
L 289.070681 141.143537 
L 289.315334 159.927913 
L 289.559987 159.074078 
L 289.80464 174.870031 
L 290.049293 160.497137 
L 290.293946 229.373184 
L 290.538599 163.48556 
L 290.783252 171.312384 
L 291.027905 149.397278 
L 291.272558 201.765843 
L 291.517211 214.431066 
L 291.761864 170.316243 
L 292.006517 179.566125 
L 292.25117 134.739772 
L 292.495823 173.87389 
L 292.740476 148.543443 
L 292.985129 215.00029 
L 293.229782 186.254501 
L 293.474435 178.285372 
L 293.719088 174.300807 
L 293.963741 208.738831 
L 294.208394 162.062501 
L 294.453047 186.823725 
L 294.6977 182.412243 
L 294.942353 208.169607 
L 295.187006 169.320101 
L 295.431659 198.635113 
L 295.920965 161.635584 
L 296.165618 181.416101 
L 296.410271 165.90476 
L 296.654924 220.123301 
L 297.14423 170.031631 
L 297.388883 173.589278 
L 297.633536 149.824196 
L 297.878189 176.720007 
L 298.122842 173.304666 
L 298.367495 182.269937 
L 298.612148 160.639443 
L 298.856801 155.801043 
L 299.101454 178.00076 
L 299.346107 251.572901 
L 299.59076 178.00076 
L 299.835413 198.919725 
L 300.080066 174.300807 
L 300.324719 198.635113 
L 300.814025 182.127631 
L 301.058678 157.651019 
L 301.303331 200.912007 
L 301.547984 183.123772 
L 301.792637 190.80829 
L 302.281943 160.924054 
L 302.526596 153.381843 
L 302.771249 178.996901 
L 303.015902 160.781749 
L 303.260555 164.908619 
L 303.505208 151.816478 
L 303.749861 151.104949 
L 303.994514 174.443113 
L 304.239167 169.03549 
L 304.48382 155.658737 
L 304.973126 167.043207 
L 305.217779 186.396807 
L 305.462432 174.158501 
L 305.707085 153.239537 
L 305.951738 184.546831 
L 306.196391 193.22749 
L 306.441044 196.500525 
L 306.93035 176.008478 
L 307.175003 179.708431 
L 307.419656 175.439254 
L 307.664309 175.296949 
L 307.908962 163.200949 
L 308.153615 159.785607 
L 308.398268 185.116054 
L 308.642921 142.708901 
L 308.887574 219.980996 
L 309.132227 258.261278 
L 309.376881 150.251113 
L 309.621534 156.512572 
L 309.866187 154.093372 
L 310.11084 188.958313 
L 310.355493 202.619678 
L 310.844799 146.408854 
L 311.089452 153.666454 
L 311.334105 175.866172 
L 311.578758 144.13196 
L 311.823411 175.296949 
L 312.068064 181.416101 
L 312.312717 178.996901 
L 312.55737 171.170078 
L 312.802023 190.80829 
L 313.046676 168.181654 
L 313.291329 180.846878 
L 313.535982 167.043207 
L 313.780635 182.412243 
L 314.025288 153.951066 
L 314.269941 181.985325 
L 314.514594 174.016196 
L 314.759247 265.80349 
L 315.0039 198.208196 
L 315.248553 192.231349 
L 315.493206 181.558407 
L 315.737859 184.546831 
L 315.982512 161.77789 
L 316.227165 178.71229 
L 316.471818 178.71229 
L 316.716471 207.74269 
L 316.961124 167.470125 
L 317.205777 171.739301 
L 317.45043 155.943349 
L 317.939736 192.658266 
L 318.184389 162.347113 
L 318.429042 166.473984 
L 318.673695 184.262219 
L 318.918348 172.593137 
L 319.163001 193.22749 
L 319.407654 163.058643 
L 319.89696 175.58156 
L 320.141613 177.431537 
L 320.386266 183.835301 
L 320.630919 182.696854 
L 320.875572 168.466266 
L 321.120225 169.462407 
L 321.364878 95.890266 
L 321.609531 175.296949 
L 321.854184 204.469654 
L 322.098837 167.470125 
L 322.588143 183.123772 
L 322.832796 159.35869 
L 323.077449 154.093372 
L 323.322102 182.127631 
L 323.566755 180.704572 
L 323.811408 153.381843 
L 324.056061 178.569984 
L 324.300714 179.708431 
L 324.79002 151.38956 
L 325.034673 189.812149 
L 325.279326 174.016196 
L 325.523979 174.870031 
L 325.768632 172.166219 
L 326.013285 180.135349 
L 326.257938 169.889325 
L 326.502591 194.650549 
L 326.747244 168.893184 
L 326.991897 169.320101 
L 327.23655 215.284901 
L 327.481203 180.41996 
L 327.725856 194.081325 
L 327.970509 183.977607 
L 328.215162 201.338925 
L 328.459815 166.189372 
L 328.704468 183.266078 
L 328.949121 174.016196 
L 329.193774 188.958313 
L 329.438427 171.312384 
L 329.68308 176.150784 
L 329.927733 136.589749 
L 330.172386 134.170549 
L 330.417039 182.981466 
L 330.906345 194.792854 
L 331.150998 206.746549 
L 331.395651 178.569984 
L 331.640304 179.423819 
L 331.884958 140.00509 
L 332.129611 183.55069 
L 332.374264 174.585419 
L 332.618917 186.823725 
L 332.86357 148.543443 
L 333.108223 169.320101 
L 333.597529 180.277654 
L 333.842182 188.104478 
L 334.086835 147.404996 
L 334.331488 174.300807 
L 334.820794 179.850737 
L 335.065447 169.889325 
L 335.3101 168.039349 
L 335.554753 172.023913 
L 335.799406 163.627866 
L 336.044059 206.888854 
L 336.288712 152.954925 
L 336.533365 195.64669 
L 337.022671 102.294031 
L 337.267324 190.523678 
L 337.511977 185.400666 
L 337.75663 197.923584 
L 338.001283 154.804901 
L 338.245936 188.104478 
L 338.490589 167.470125 
L 338.735242 187.819866 
L 338.979895 160.924054 
L 339.224548 169.320101 
L 339.469201 173.87389 
L 339.713854 163.912478 
L 339.958507 175.439254 
L 340.20316 180.277654 
L 340.447813 191.377513 
L 340.692466 188.816007 
L 340.937119 184.546831 
L 341.181772 156.654878 
L 341.426425 161.920196 
L 341.671078 177.573843 
L 341.915731 180.135349 
L 342.160384 156.654878 
L 342.405037 192.231349 
L 342.64969 169.03549 
L 342.894343 187.67756 
L 343.138996 174.158501 
L 343.383649 168.893184 
L 343.628302 154.662596 
L 343.872955 200.058172 
L 344.117608 164.054784 
L 344.362261 177.431537 
L 344.606914 129.901372 
L 344.851567 120.65149 
L 345.09622 199.77356 
L 345.340873 162.774031 
L 345.585526 181.985325 
L 345.830179 170.458549 
L 346.074832 185.827584 
L 346.319485 176.720007 
L 346.564138 179.139207 
L 346.808791 180.41996 
L 347.053444 176.150784 
L 347.298097 205.750407 
L 347.54275 163.912478 
L 347.787403 187.535254 
L 348.032056 161.920196 
L 348.276709 207.03116 
L 348.521362 183.408384 
L 348.766015 178.569984 
L 349.010668 192.51596 
L 349.255321 177.858454 
L 349.499974 183.835301 
L 349.744627 176.008478 
L 349.98928 176.862313 
L 350.233933 157.081796 
L 350.478586 166.61629 
L 350.723239 157.224101 
L 350.967892 206.746549 
L 351.212545 159.785607 
L 351.457198 188.246784 
L 351.701851 177.716149 
L 351.946504 182.696854 
L 352.191157 208.881137 
L 352.43581 167.185513 
L 352.680463 167.754737 
L 352.925116 177.716149 
L 353.169769 163.200949 
L 353.659075 181.558407 
L 353.903728 184.119913 
L 354.148381 223.254031 
L 354.393035 153.381843 
L 354.637688 159.785607 
L 354.882341 149.397278 
L 355.126994 172.166219 
L 355.371647 149.397278 
L 355.6163 165.90476 
L 355.860953 144.13196 
L 356.105606 195.077466 
L 356.350259 183.266078 
L 356.594912 165.620149 
L 356.839565 181.843019 
L 357.084218 157.935631 
L 357.328871 162.347113 
L 357.573524 183.266078 
L 357.818177 159.643301 
L 358.06283 203.900431 
L 358.552136 168.32396 
L 358.796789 196.073607 
L 359.286095 154.804901 
L 359.530748 196.215913 
L 359.775401 139.862784 
L 360.020054 161.920196 
L 360.264707 210.019584 
L 360.754013 129.901372 
L 360.998666 197.212054 
L 361.243319 183.55069 
L 361.487972 150.251113 
L 361.732625 178.427678 
L 361.977278 155.658737 
L 362.221931 189.385231 
L 362.466584 192.231349 
L 362.711237 168.32396 
L 362.95589 175.723866 
L 363.200543 178.143066 
L 363.445196 186.681419 
L 363.689849 178.569984 
L 363.934502 230.938549 
L 364.179155 165.050925 
L 364.423808 169.889325 
L 364.668461 158.931772 
L 364.913114 177.004619 
L 365.157767 153.951066 
L 365.40242 183.835301 
L 365.647073 167.185513 
L 365.891726 159.500996 
L 366.136379 195.219772 
L 366.381032 155.943349 
L 366.870338 207.600384 
L 367.114991 170.316243 
L 367.359644 177.858454 
L 367.604297 162.204807 
L 367.84895 249.011396 
L 368.093603 168.750878 
L 368.338256 129.189843 
L 368.582909 209.734972 
L 368.827562 184.689137 
L 369.072215 180.41996 
L 369.316868 156.085654 
L 369.561521 183.55069 
L 369.806174 137.870501 
L 370.050827 188.816007 
L 370.29548 133.743631 
L 370.540133 187.392949 
L 370.784786 189.242925 
L 371.029439 151.816478 
L 371.274092 206.461937 
L 371.518745 221.119443 
L 371.763398 224.819396 
L 372.008051 161.77789 
L 372.252704 181.843019 
L 372.74201 144.558878 
L 372.986663 142.42429 
L 373.231316 143.847349 
L 373.475969 196.642831 
L 373.720622 154.377984 
L 373.965275 175.866172 
L 374.209928 181.985325 
L 374.699234 170.173937 
L 374.943887 180.41996 
L 375.18854 180.562266 
L 375.433193 190.09676 
L 375.677846 188.958313 
L 375.922499 192.800572 
L 376.167152 276.334125 
L 376.411805 175.58156 
L 376.656458 169.889325 
L 376.901112 196.215913 
L 377.145765 175.723866 
L 377.390418 225.246313 
L 377.635071 180.562266 
L 377.879724 172.450831 
L 378.124377 182.696854 
L 378.36903 203.331207 
L 378.858336 136.020525 
L 379.102989 163.627866 
L 379.347642 148.828054 
L 379.592295 225.673231 
L 379.836948 167.470125 
L 380.081601 168.32396 
L 380.326254 138.012807 
L 380.570907 154.093372 
L 381.549519 184.689137 
L 381.794172 174.443113 
L 382.038825 206.604243 
L 382.283478 147.26269 
L 382.528131 190.665984 
L 382.772784 176.862313 
L 383.017437 193.939019 
L 383.26209 197.923584 
L 383.751396 157.793325 
L 383.996049 220.977137 
L 384.485355 138.866643 
L 384.730008 168.32396 
L 384.974661 167.185513 
L 385.219314 228.234737 
L 385.70862 163.627866 
L 385.953273 183.266078 
L 386.197926 175.012337 
L 386.442579 142.993513 
L 386.687232 206.319631 
L 386.931885 182.127631 
L 387.176538 220.550219 
L 387.665844 158.504854 
L 387.910497 188.673701 
L 388.15515 173.87389 
L 388.399803 171.739301 
L 388.644456 152.954925 
L 388.889109 183.266078 
L 389.133762 175.723866 
L 389.378415 148.685749 
L 389.623068 191.519819 
L 389.867721 192.658266 
L 390.112374 181.700713 
L 390.357027 178.00076 
L 390.846333 155.231819 
L 391.090986 179.139207 
L 391.335639 186.254501 
L 391.580292 147.974219 
L 391.824945 210.019584 
L 392.069598 196.500525 
L 392.314251 128.193701 
L 392.558904 178.143066 
L 392.803557 186.823725 
L 393.04821 200.342784 
L 393.04821 200.342784 
" style="fill:none;stroke:#ff7f0e;stroke-linecap:square;stroke-width:1.5;"/>
   </g>
   <g id="patch_3">
    <path d="M 52.160938 288.430125 
L 52.160938 22.318125 
" style="fill:none;stroke:#000000;stroke-linecap:square;stroke-linejoin:miter;stroke-width:0.8;"/>
   </g>
   <g id="patch_4">
    <path d="M 409.280938 288.430125 
L 409.280938 22.318125 
" style="fill:none;stroke:#000000;stroke-linecap:square;stroke-linejoin:miter;stroke-width:0.8;"/>
   </g>
   <g id="patch_5">
    <path d="M 52.160938 288.430125 
L 409.280938 288.430125 
" style="fill:none;stroke:#000000;stroke-linecap:square;stroke-linejoin:miter;stroke-width:0.8;"/>
   </g>
   <g id="patch_6">
    <path d="M 52.160938 22.318125 
L 409.280938 22.318125 
" style="fill:none;stroke:#000000;stroke-linecap:square;stroke-linejoin:miter;stroke-width:0.8;"/>
   </g>
   <g id="text_18">
    <!-- Training: WDC -->
    <defs>
     <path d="M -0.296875 72.90625 
L 61.375 72.90625 
L 61.375 64.59375 
L 35.5 64.59375 
L 35.5 0 
L 25.59375 0 
L 25.59375 64.59375 
L -0.296875 64.59375 
z
" id="DejaVuSans-84"/>
     <path d="M 41.109375 46.296875 
Q 39.59375 47.171875 37.8125 47.578125 
Q 36.03125 48 33.890625 48 
Q 26.265625 48 22.1875 43.046875 
Q 18.109375 38.09375 18.109375 28.8125 
L 18.109375 0 
L 9.078125 0 
L 9.078125 54.6875 
L 18.109375 54.6875 
L 18.109375 46.1875 
Q 20.953125 51.171875 25.484375 53.578125 
Q 30.03125 56 36.53125 56 
Q 37.453125 56 38.578125 55.875 
Q 39.703125 55.765625 41.0625 55.515625 
z
" id="DejaVuSans-114"/>
     <path d="M 9.421875 54.6875 
L 18.40625 54.6875 
L 18.40625 0 
L 9.421875 0 
z
M 9.421875 75.984375 
L 18.40625 75.984375 
L 18.40625 64.59375 
L 9.421875 64.59375 
z
" id="DejaVuSans-105"/>
     <path d="M 11.71875 12.40625 
L 22.015625 12.40625 
L 22.015625 0 
L 11.71875 0 
z
M 11.71875 51.703125 
L 22.015625 51.703125 
L 22.015625 39.3125 
L 11.71875 39.3125 
z
" id="DejaVuSans-58"/>
     <path d="M 3.328125 72.90625 
L 13.28125 72.90625 
L 28.609375 11.28125 
L 43.890625 72.90625 
L 54.984375 72.90625 
L 70.3125 11.28125 
L 85.59375 72.90625 
L 95.609375 72.90625 
L 77.296875 0 
L 64.890625 0 
L 49.515625 63.28125 
L 33.984375 0 
L 21.578125 0 
z
" id="DejaVuSans-87"/>
    </defs>
    <g transform="translate(188.379688 16.318125)scale(0.12 -0.12)">
     <use xlink:href="#DejaVuSans-84"/>
     <use x="46.333984" xlink:href="#DejaVuSans-114"/>
     <use x="87.447266" xlink:href="#DejaVuSans-97"/>
     <use x="148.726562" xlink:href="#DejaVuSans-105"/>
     <use x="176.509766" xlink:href="#DejaVuSans-110"/>
     <use x="239.888672" xlink:href="#DejaVuSans-105"/>
     <use x="267.671875" xlink:href="#DejaVuSans-110"/>
     <use x="331.050781" xlink:href="#DejaVuSans-103"/>
     <use x="394.527344" xlink:href="#DejaVuSans-58"/>
     <use x="428.21875" xlink:href="#DejaVuSans-32"/>
     <use x="460.005859" xlink:href="#DejaVuSans-87"/>
     <use x="558.882812" xlink:href="#DejaVuSans-68"/>
     <use x="635.884766" xlink:href="#DejaVuSans-67"/>
    </g>
   </g>
   <g id="legend_1">
    <g id="patch_7">
     <path d="M 59.160938 59.674375 
L 142.889063 59.674375 
Q 144.889063 59.674375 144.889063 57.674375 
L 144.889063 29.318125 
Q 144.889063 27.318125 142.889063 27.318125 
L 59.160938 27.318125 
Q 57.160938 27.318125 57.160938 29.318125 
L 57.160938 57.674375 
Q 57.160938 59.674375 59.160938 59.674375 
z
" style="fill:#ffffff;opacity:0.8;stroke:#cccccc;stroke-linejoin:miter;"/>
    </g>
    <g id="line2d_33">
     <path d="M 61.160938 35.416562 
L 81.160938 35.416562 
" style="fill:none;stroke:#1f77b4;stroke-linecap:square;stroke-width:1.5;"/>
    </g>
    <g id="line2d_34"/>
    <g id="text_19">
     <!-- Predicted -->
     <defs>
      <path d="M 19.671875 64.796875 
L 19.671875 37.40625 
L 32.078125 37.40625 
Q 38.96875 37.40625 42.71875 40.96875 
Q 46.484375 44.53125 46.484375 51.125 
Q 46.484375 57.671875 42.71875 61.234375 
Q 38.96875 64.796875 32.078125 64.796875 
z
M 9.8125 72.90625 
L 32.078125 72.90625 
Q 44.34375 72.90625 50.609375 67.359375 
Q 56.890625 61.8125 56.890625 51.125 
Q 56.890625 40.328125 50.609375 34.8125 
Q 44.34375 29.296875 32.078125 29.296875 
L 19.671875 29.296875 
L 19.671875 0 
L 9.8125 0 
z
" id="DejaVuSans-80"/>
      <path d="M 45.40625 46.390625 
L 45.40625 75.984375 
L 54.390625 75.984375 
L 54.390625 0 
L 45.40625 0 
L 45.40625 8.203125 
Q 42.578125 3.328125 38.25 0.953125 
Q 33.9375 -1.421875 27.875 -1.421875 
Q 17.96875 -1.421875 11.734375 6.484375 
Q 5.515625 14.40625 5.515625 27.296875 
Q 5.515625 40.1875 11.734375 48.09375 
Q 17.96875 56 27.875 56 
Q 33.9375 56 38.25 53.625 
Q 42.578125 51.265625 45.40625 46.390625 
z
M 14.796875 27.296875 
Q 14.796875 17.390625 18.875 11.75 
Q 22.953125 6.109375 30.078125 6.109375 
Q 37.203125 6.109375 41.296875 11.75 
Q 45.40625 17.390625 45.40625 27.296875 
Q 45.40625 37.203125 41.296875 42.84375 
Q 37.203125 48.484375 30.078125 48.484375 
Q 22.953125 48.484375 18.875 42.84375 
Q 14.796875 37.203125 14.796875 27.296875 
z
" id="DejaVuSans-100"/>
      <path d="M 48.78125 52.59375 
L 48.78125 44.1875 
Q 44.96875 46.296875 41.140625 47.34375 
Q 37.3125 48.390625 33.40625 48.390625 
Q 24.65625 48.390625 19.8125 42.84375 
Q 14.984375 37.3125 14.984375 27.296875 
Q 14.984375 17.28125 19.8125 11.734375 
Q 24.65625 6.203125 33.40625 6.203125 
Q 37.3125 6.203125 41.140625 7.25 
Q 44.96875 8.296875 48.78125 10.40625 
L 48.78125 2.09375 
Q 45.015625 0.34375 40.984375 -0.53125 
Q 36.96875 -1.421875 32.421875 -1.421875 
Q 20.0625 -1.421875 12.78125 6.34375 
Q 5.515625 14.109375 5.515625 27.296875 
Q 5.515625 40.671875 12.859375 48.328125 
Q 20.21875 56 33.015625 56 
Q 37.15625 56 41.109375 55.140625 
Q 45.0625 54.296875 48.78125 52.59375 
z
" id="DejaVuSans-99"/>
      <path d="M 18.3125 70.21875 
L 18.3125 54.6875 
L 36.8125 54.6875 
L 36.8125 47.703125 
L 18.3125 47.703125 
L 18.3125 18.015625 
Q 18.3125 11.328125 20.140625 9.421875 
Q 21.96875 7.515625 27.59375 7.515625 
L 36.8125 7.515625 
L 36.8125 0 
L 27.59375 0 
Q 17.1875 0 13.234375 3.875 
Q 9.28125 7.765625 9.28125 18.015625 
L 9.28125 47.703125 
L 2.6875 47.703125 
L 2.6875 54.6875 
L 9.28125 54.6875 
L 9.28125 70.21875 
z
" id="DejaVuSans-116"/>
     </defs>
     <g transform="translate(89.160938 38.916562)scale(0.1 -0.1)">
      <use xlink:href="#DejaVuSans-80"/>
      <use x="58.552734" xlink:href="#DejaVuSans-114"/>
      <use x="97.416016" xlink:href="#DejaVuSans-101"/>
      <use x="158.939453" xlink:href="#DejaVuSans-100"/>
      <use x="222.416016" xlink:href="#DejaVuSans-105"/>
      <use x="250.199219" xlink:href="#DejaVuSans-99"/>
      <use x="305.179688" xlink:href="#DejaVuSans-116"/>
      <use x="344.388672" xlink:href="#DejaVuSans-101"/>
      <use x="405.912109" xlink:href="#DejaVuSans-100"/>
     </g>
    </g>
    <g id="line2d_35">
     <path d="M 61.160938 50.094687 
L 81.160938 50.094687 
" style="fill:none;stroke:#ff7f0e;stroke-linecap:square;stroke-width:1.5;"/>
    </g>
    <g id="line2d_36"/>
    <g id="text_20">
     <!-- True value -->
     <defs>
      <path d="M 8.5 21.578125 
L 8.5 54.6875 
L 17.484375 54.6875 
L 17.484375 21.921875 
Q 17.484375 14.15625 20.5 10.265625 
Q 23.53125 6.390625 29.59375 6.390625 
Q 36.859375 6.390625 41.078125 11.03125 
Q 45.3125 15.671875 45.3125 23.6875 
L 45.3125 54.6875 
L 54.296875 54.6875 
L 54.296875 0 
L 45.3125 0 
L 45.3125 8.40625 
Q 42.046875 3.421875 37.71875 1 
Q 33.40625 -1.421875 27.6875 -1.421875 
Q 18.265625 -1.421875 13.375 4.4375 
Q 8.5 10.296875 8.5 21.578125 
z
M 31.109375 56 
z
" id="DejaVuSans-117"/>
      <path d="M 2.984375 54.6875 
L 12.5 54.6875 
L 29.59375 8.796875 
L 46.6875 54.6875 
L 56.203125 54.6875 
L 35.6875 0 
L 23.484375 0 
z
" id="DejaVuSans-118"/>
      <path d="M 9.421875 75.984375 
L 18.40625 75.984375 
L 18.40625 0 
L 9.421875 0 
z
" id="DejaVuSans-108"/>
     </defs>
     <g transform="translate(89.160938 53.594687)scale(0.1 -0.1)">
      <use xlink:href="#DejaVuSans-84"/>
      <use x="46.333984" xlink:href="#DejaVuSans-114"/>
      <use x="87.447266" xlink:href="#DejaVuSans-117"/>
      <use x="150.826172" xlink:href="#DejaVuSans-101"/>
      <use x="212.349609" xlink:href="#DejaVuSans-32"/>
      <use x="244.136719" xlink:href="#DejaVuSans-118"/>
      <use x="303.316406" xlink:href="#DejaVuSans-97"/>
      <use x="364.595703" xlink:href="#DejaVuSans-108"/>
      <use x="392.378906" xlink:href="#DejaVuSans-117"/>
      <use x="455.757812" xlink:href="#DejaVuSans-101"/>
     </g>
    </g>
   </g>
  </g>
 </g>
 <defs>
  <clipPath id="p60d8e64de9">
   <rect height="266.112" width="357.12" x="52.160938" y="22.318125"/>
  </clipPath>
 </defs>
</svg>
