<?xml version="1.0" encoding="utf-8" standalone="no"?>
<!DOCTYPE svg PUBLIC "-//W3C//DTD SVG 1.1//EN"
  "http://www.w3.org/Graphics/SVG/1.1/DTD/svg11.dtd">
<!-- Created with matplotlib (https://matplotlib.org/) -->
<svg height="325.986375pt" version="1.1" viewBox="0 0 411.285625 325.986375" width="411.285625pt" xmlns="http://www.w3.org/2000/svg" xmlns:xlink="http://www.w3.org/1999/xlink">
 <defs>
  <style type="text/css">
*{stroke-linecap:butt;stroke-linejoin:round;}
  </style>
 </defs>
 <g id="figure_1">
  <g id="patch_1">
   <path d="M 0 325.986375 
L 411.285625 325.986375 
L 411.285625 0 
L 0 0 
z
" style="fill:#ffffff;"/>
  </g>
  <g id="axes_1">
   <g id="patch_2">
    <path d="M 46.965625 288.430125 
L 404.085625 288.430125 
L 404.085625 22.318125 
L 46.965625 22.318125 
z
" style="fill:#ffffff;"/>
   </g>
   <g id="matplotlib.axis_1">
    <g id="xtick_1">
     <g id="line2d_1">
      <path clip-path="url(#p73bd1ae3f0)" d="M 63.198352 288.430125 
L 63.198352 22.318125 
" style="fill:none;stroke:#b0b0b0;stroke-dasharray:2.96,1.28;stroke-dashoffset:0;stroke-width:0.8;"/>
     </g>
     <g id="line2d_2">
      <defs>
       <path d="M 0 0 
L 0 3.5 
" id="mea72873b53" style="stroke:#000000;stroke-width:0.8;"/>
      </defs>
      <g>
       <use style="stroke:#000000;stroke-width:0.8;" x="63.198352" xlink:href="#mea72873b53" y="288.430125"/>
      </g>
     </g>
     <g id="text_1">
      <!-- 0 -->
      <defs>
       <path d="M 31.78125 66.40625 
Q 24.171875 66.40625 20.328125 58.90625 
Q 16.5 51.421875 16.5 36.375 
Q 16.5 21.390625 20.328125 13.890625 
Q 24.171875 6.390625 31.78125 6.390625 
Q 39.453125 6.390625 43.28125 13.890625 
Q 47.125 21.390625 47.125 36.375 
Q 47.125 51.421875 43.28125 58.90625 
Q 39.453125 66.40625 31.78125 66.40625 
z
M 31.78125 74.21875 
Q 44.046875 74.21875 50.515625 64.515625 
Q 56.984375 54.828125 56.984375 36.375 
Q 56.984375 17.96875 50.515625 8.265625 
Q 44.046875 -1.421875 31.78125 -1.421875 
Q 19.53125 -1.421875 13.0625 8.265625 
Q 6.59375 17.96875 6.59375 36.375 
Q 6.59375 54.828125 13.0625 64.515625 
Q 19.53125 74.21875 31.78125 74.21875 
z
" id="DejaVuSans-48"/>
      </defs>
      <g transform="translate(60.017102 303.028562)scale(0.1 -0.1)">
       <use xlink:href="#DejaVuSans-48"/>
      </g>
     </g>
    </g>
    <g id="xtick_2">
     <g id="line2d_3">
      <path clip-path="url(#p73bd1ae3f0)" d="M 112.128954 288.430125 
L 112.128954 22.318125 
" style="fill:none;stroke:#b0b0b0;stroke-dasharray:2.96,1.28;stroke-dashoffset:0;stroke-width:0.8;"/>
     </g>
     <g id="line2d_4">
      <g>
       <use style="stroke:#000000;stroke-width:0.8;" x="112.128954" xlink:href="#mea72873b53" y="288.430125"/>
      </g>
     </g>
     <g id="text_2">
      <!-- 200 -->
      <defs>
       <path d="M 19.1875 8.296875 
L 53.609375 8.296875 
L 53.609375 0 
L 7.328125 0 
L 7.328125 8.296875 
Q 12.9375 14.109375 22.625 23.890625 
Q 32.328125 33.6875 34.8125 36.53125 
Q 39.546875 41.84375 41.421875 45.53125 
Q 43.3125 49.21875 43.3125 52.78125 
Q 43.3125 58.59375 39.234375 62.25 
Q 35.15625 65.921875 28.609375 65.921875 
Q 23.96875 65.921875 18.8125 64.3125 
Q 13.671875 62.703125 7.8125 59.421875 
L 7.8125 69.390625 
Q 13.765625 71.78125 18.9375 73 
Q 24.125 74.21875 28.421875 74.21875 
Q 39.75 74.21875 46.484375 68.546875 
Q 53.21875 62.890625 53.21875 53.421875 
Q 53.21875 48.921875 51.53125 44.890625 
Q 49.859375 40.875 45.40625 35.40625 
Q 44.1875 33.984375 37.640625 27.21875 
Q 31.109375 20.453125 19.1875 8.296875 
z
" id="DejaVuSans-50"/>
      </defs>
      <g transform="translate(102.585204 303.028562)scale(0.1 -0.1)">
       <use xlink:href="#DejaVuSans-50"/>
       <use x="63.623047" xlink:href="#DejaVuSans-48"/>
       <use x="127.246094" xlink:href="#DejaVuSans-48"/>
      </g>
     </g>
    </g>
    <g id="xtick_3">
     <g id="line2d_5">
      <path clip-path="url(#p73bd1ae3f0)" d="M 161.059557 288.430125 
L 161.059557 22.318125 
" style="fill:none;stroke:#b0b0b0;stroke-dasharray:2.96,1.28;stroke-dashoffset:0;stroke-width:0.8;"/>
     </g>
     <g id="line2d_6">
      <g>
       <use style="stroke:#000000;stroke-width:0.8;" x="161.059557" xlink:href="#mea72873b53" y="288.430125"/>
      </g>
     </g>
     <g id="text_3">
      <!-- 400 -->
      <defs>
       <path d="M 37.796875 64.3125 
L 12.890625 25.390625 
L 37.796875 25.390625 
z
M 35.203125 72.90625 
L 47.609375 72.90625 
L 47.609375 25.390625 
L 58.015625 25.390625 
L 58.015625 17.1875 
L 47.609375 17.1875 
L 47.609375 0 
L 37.796875 0 
L 37.796875 17.1875 
L 4.890625 17.1875 
L 4.890625 26.703125 
z
" id="DejaVuSans-52"/>
      </defs>
      <g transform="translate(151.515807 303.028562)scale(0.1 -0.1)">
       <use xlink:href="#DejaVuSans-52"/>
       <use x="63.623047" xlink:href="#DejaVuSans-48"/>
       <use x="127.246094" xlink:href="#DejaVuSans-48"/>
      </g>
     </g>
    </g>
    <g id="xtick_4">
     <g id="line2d_7">
      <path clip-path="url(#p73bd1ae3f0)" d="M 209.990159 288.430125 
L 209.990159 22.318125 
" style="fill:none;stroke:#b0b0b0;stroke-dasharray:2.96,1.28;stroke-dashoffset:0;stroke-width:0.8;"/>
     </g>
     <g id="line2d_8">
      <g>
       <use style="stroke:#000000;stroke-width:0.8;" x="209.990159" xlink:href="#mea72873b53" y="288.430125"/>
      </g>
     </g>
     <g id="text_4">
      <!-- 600 -->
      <defs>
       <path d="M 33.015625 40.375 
Q 26.375 40.375 22.484375 35.828125 
Q 18.609375 31.296875 18.609375 23.390625 
Q 18.609375 15.53125 22.484375 10.953125 
Q 26.375 6.390625 33.015625 6.390625 
Q 39.65625 6.390625 43.53125 10.953125 
Q 47.40625 15.53125 47.40625 23.390625 
Q 47.40625 31.296875 43.53125 35.828125 
Q 39.65625 40.375 33.015625 40.375 
z
M 52.59375 71.296875 
L 52.59375 62.3125 
Q 48.875 64.0625 45.09375 64.984375 
Q 41.3125 65.921875 37.59375 65.921875 
Q 27.828125 65.921875 22.671875 59.328125 
Q 17.53125 52.734375 16.796875 39.40625 
Q 19.671875 43.65625 24.015625 45.921875 
Q 28.375 48.1875 33.59375 48.1875 
Q 44.578125 48.1875 50.953125 41.515625 
Q 57.328125 34.859375 57.328125 23.390625 
Q 57.328125 12.15625 50.6875 5.359375 
Q 44.046875 -1.421875 33.015625 -1.421875 
Q 20.359375 -1.421875 13.671875 8.265625 
Q 6.984375 17.96875 6.984375 36.375 
Q 6.984375 53.65625 15.1875 63.9375 
Q 23.390625 74.21875 37.203125 74.21875 
Q 40.921875 74.21875 44.703125 73.484375 
Q 48.484375 72.75 52.59375 71.296875 
z
" id="DejaVuSans-54"/>
      </defs>
      <g transform="translate(200.446409 303.028562)scale(0.1 -0.1)">
       <use xlink:href="#DejaVuSans-54"/>
       <use x="63.623047" xlink:href="#DejaVuSans-48"/>
       <use x="127.246094" xlink:href="#DejaVuSans-48"/>
      </g>
     </g>
    </g>
    <g id="xtick_5">
     <g id="line2d_9">
      <path clip-path="url(#p73bd1ae3f0)" d="M 258.920761 288.430125 
L 258.920761 22.318125 
" style="fill:none;stroke:#b0b0b0;stroke-dasharray:2.96,1.28;stroke-dashoffset:0;stroke-width:0.8;"/>
     </g>
     <g id="line2d_10">
      <g>
       <use style="stroke:#000000;stroke-width:0.8;" x="258.920761" xlink:href="#mea72873b53" y="288.430125"/>
      </g>
     </g>
     <g id="text_5">
      <!-- 800 -->
      <defs>
       <path d="M 31.78125 34.625 
Q 24.75 34.625 20.71875 30.859375 
Q 16.703125 27.09375 16.703125 20.515625 
Q 16.703125 13.921875 20.71875 10.15625 
Q 24.75 6.390625 31.78125 6.390625 
Q 38.8125 6.390625 42.859375 10.171875 
Q 46.921875 13.96875 46.921875 20.515625 
Q 46.921875 27.09375 42.890625 30.859375 
Q 38.875 34.625 31.78125 34.625 
z
M 21.921875 38.8125 
Q 15.578125 40.375 12.03125 44.71875 
Q 8.5 49.078125 8.5 55.328125 
Q 8.5 64.0625 14.71875 69.140625 
Q 20.953125 74.21875 31.78125 74.21875 
Q 42.671875 74.21875 48.875 69.140625 
Q 55.078125 64.0625 55.078125 55.328125 
Q 55.078125 49.078125 51.53125 44.71875 
Q 48 40.375 41.703125 38.8125 
Q 48.828125 37.15625 52.796875 32.3125 
Q 56.78125 27.484375 56.78125 20.515625 
Q 56.78125 9.90625 50.3125 4.234375 
Q 43.84375 -1.421875 31.78125 -1.421875 
Q 19.734375 -1.421875 13.25 4.234375 
Q 6.78125 9.90625 6.78125 20.515625 
Q 6.78125 27.484375 10.78125 32.3125 
Q 14.796875 37.15625 21.921875 38.8125 
z
M 18.3125 54.390625 
Q 18.3125 48.734375 21.84375 45.5625 
Q 25.390625 42.390625 31.78125 42.390625 
Q 38.140625 42.390625 41.71875 45.5625 
Q 45.3125 48.734375 45.3125 54.390625 
Q 45.3125 60.0625 41.71875 63.234375 
Q 38.140625 66.40625 31.78125 66.40625 
Q 25.390625 66.40625 21.84375 63.234375 
Q 18.3125 60.0625 18.3125 54.390625 
z
" id="DejaVuSans-56"/>
      </defs>
      <g transform="translate(249.377011 303.028562)scale(0.1 -0.1)">
       <use xlink:href="#DejaVuSans-56"/>
       <use x="63.623047" xlink:href="#DejaVuSans-48"/>
       <use x="127.246094" xlink:href="#DejaVuSans-48"/>
      </g>
     </g>
    </g>
    <g id="xtick_6">
     <g id="line2d_11">
      <path clip-path="url(#p73bd1ae3f0)" d="M 307.851363 288.430125 
L 307.851363 22.318125 
" style="fill:none;stroke:#b0b0b0;stroke-dasharray:2.96,1.28;stroke-dashoffset:0;stroke-width:0.8;"/>
     </g>
     <g id="line2d_12">
      <g>
       <use style="stroke:#000000;stroke-width:0.8;" x="307.851363" xlink:href="#mea72873b53" y="288.430125"/>
      </g>
     </g>
     <g id="text_6">
      <!-- 1000 -->
      <defs>
       <path d="M 12.40625 8.296875 
L 28.515625 8.296875 
L 28.515625 63.921875 
L 10.984375 60.40625 
L 10.984375 69.390625 
L 28.421875 72.90625 
L 38.28125 72.90625 
L 38.28125 8.296875 
L 54.390625 8.296875 
L 54.390625 0 
L 12.40625 0 
z
" id="DejaVuSans-49"/>
      </defs>
      <g transform="translate(295.126363 303.028562)scale(0.1 -0.1)">
       <use xlink:href="#DejaVuSans-49"/>
       <use x="63.623047" xlink:href="#DejaVuSans-48"/>
       <use x="127.246094" xlink:href="#DejaVuSans-48"/>
       <use x="190.869141" xlink:href="#DejaVuSans-48"/>
      </g>
     </g>
    </g>
    <g id="xtick_7">
     <g id="line2d_13">
      <path clip-path="url(#p73bd1ae3f0)" d="M 356.781965 288.430125 
L 356.781965 22.318125 
" style="fill:none;stroke:#b0b0b0;stroke-dasharray:2.96,1.28;stroke-dashoffset:0;stroke-width:0.8;"/>
     </g>
     <g id="line2d_14">
      <g>
       <use style="stroke:#000000;stroke-width:0.8;" x="356.781965" xlink:href="#mea72873b53" y="288.430125"/>
      </g>
     </g>
     <g id="text_7">
      <!-- 1200 -->
      <g transform="translate(344.056965 303.028562)scale(0.1 -0.1)">
       <use xlink:href="#DejaVuSans-49"/>
       <use x="63.623047" xlink:href="#DejaVuSans-50"/>
       <use x="127.246094" xlink:href="#DejaVuSans-48"/>
       <use x="190.869141" xlink:href="#DejaVuSans-48"/>
      </g>
     </g>
    </g>
    <g id="text_8">
     <!-- Day -->
     <defs>
      <path d="M 19.671875 64.796875 
L 19.671875 8.109375 
L 31.59375 8.109375 
Q 46.6875 8.109375 53.6875 14.9375 
Q 60.6875 21.78125 60.6875 36.53125 
Q 60.6875 51.171875 53.6875 57.984375 
Q 46.6875 64.796875 31.59375 64.796875 
z
M 9.8125 72.90625 
L 30.078125 72.90625 
Q 51.265625 72.90625 61.171875 64.09375 
Q 71.09375 55.28125 71.09375 36.53125 
Q 71.09375 17.671875 61.125 8.828125 
Q 51.171875 0 30.078125 0 
L 9.8125 0 
z
" id="DejaVuSans-68"/>
      <path d="M 34.28125 27.484375 
Q 23.390625 27.484375 19.1875 25 
Q 14.984375 22.515625 14.984375 16.5 
Q 14.984375 11.71875 18.140625 8.90625 
Q 21.296875 6.109375 26.703125 6.109375 
Q 34.1875 6.109375 38.703125 11.40625 
Q 43.21875 16.703125 43.21875 25.484375 
L 43.21875 27.484375 
z
M 52.203125 31.203125 
L 52.203125 0 
L 43.21875 0 
L 43.21875 8.296875 
Q 40.140625 3.328125 35.546875 0.953125 
Q 30.953125 -1.421875 24.3125 -1.421875 
Q 15.921875 -1.421875 10.953125 3.296875 
Q 6 8.015625 6 15.921875 
Q 6 25.140625 12.171875 29.828125 
Q 18.359375 34.515625 30.609375 34.515625 
L 43.21875 34.515625 
L 43.21875 35.40625 
Q 43.21875 41.609375 39.140625 45 
Q 35.0625 48.390625 27.6875 48.390625 
Q 23 48.390625 18.546875 47.265625 
Q 14.109375 46.140625 10.015625 43.890625 
L 10.015625 52.203125 
Q 14.9375 54.109375 19.578125 55.046875 
Q 24.21875 56 28.609375 56 
Q 40.484375 56 46.34375 49.84375 
Q 52.203125 43.703125 52.203125 31.203125 
z
" id="DejaVuSans-97"/>
      <path d="M 32.171875 -5.078125 
Q 28.375 -14.84375 24.75 -17.8125 
Q 21.140625 -20.796875 15.09375 -20.796875 
L 7.90625 -20.796875 
L 7.90625 -13.28125 
L 13.1875 -13.28125 
Q 16.890625 -13.28125 18.9375 -11.515625 
Q 21 -9.765625 23.484375 -3.21875 
L 25.09375 0.875 
L 2.984375 54.6875 
L 12.5 54.6875 
L 29.59375 11.921875 
L 46.6875 54.6875 
L 56.203125 54.6875 
z
" id="DejaVuSans-121"/>
     </defs>
     <g transform="translate(215.652188 316.706687)scale(0.1 -0.1)">
      <use xlink:href="#DejaVuSans-68"/>
      <use x="77.001953" xlink:href="#DejaVuSans-97"/>
      <use x="138.28125" xlink:href="#DejaVuSans-121"/>
     </g>
    </g>
   </g>
   <g id="matplotlib.axis_2">
    <g id="ytick_1">
     <g id="line2d_15">
      <path clip-path="url(#p73bd1ae3f0)" d="M 46.965625 262.257263 
L 404.085625 262.257263 
" style="fill:none;stroke:#b0b0b0;stroke-dasharray:2.96,1.28;stroke-dashoffset:0;stroke-width:0.8;"/>
     </g>
     <g id="line2d_16">
      <defs>
       <path d="M 0 0 
L -3.5 0 
" id="m09b38014a4" style="stroke:#000000;stroke-width:0.8;"/>
      </defs>
      <g>
       <use style="stroke:#000000;stroke-width:0.8;" x="46.965625" xlink:href="#m09b38014a4" y="262.257263"/>
      </g>
     </g>
     <g id="text_9">
      <!-- 40 -->
      <g transform="translate(27.240625 266.056482)scale(0.1 -0.1)">
       <use xlink:href="#DejaVuSans-52"/>
       <use x="63.623047" xlink:href="#DejaVuSans-48"/>
      </g>
     </g>
    </g>
    <g id="ytick_2">
     <g id="line2d_17">
      <path clip-path="url(#p73bd1ae3f0)" d="M 46.965625 232.258167 
L 404.085625 232.258167 
" style="fill:none;stroke:#b0b0b0;stroke-dasharray:2.96,1.28;stroke-dashoffset:0;stroke-width:0.8;"/>
     </g>
     <g id="line2d_18">
      <g>
       <use style="stroke:#000000;stroke-width:0.8;" x="46.965625" xlink:href="#m09b38014a4" y="232.258167"/>
      </g>
     </g>
     <g id="text_10">
      <!-- 50 -->
      <defs>
       <path d="M 10.796875 72.90625 
L 49.515625 72.90625 
L 49.515625 64.59375 
L 19.828125 64.59375 
L 19.828125 46.734375 
Q 21.96875 47.46875 24.109375 47.828125 
Q 26.265625 48.1875 28.421875 48.1875 
Q 40.625 48.1875 47.75 41.5 
Q 54.890625 34.8125 54.890625 23.390625 
Q 54.890625 11.625 47.5625 5.09375 
Q 40.234375 -1.421875 26.90625 -1.421875 
Q 22.3125 -1.421875 17.546875 -0.640625 
Q 12.796875 0.140625 7.71875 1.703125 
L 7.71875 11.625 
Q 12.109375 9.234375 16.796875 8.0625 
Q 21.484375 6.890625 26.703125 6.890625 
Q 35.15625 6.890625 40.078125 11.328125 
Q 45.015625 15.765625 45.015625 23.390625 
Q 45.015625 31 40.078125 35.4375 
Q 35.15625 39.890625 26.703125 39.890625 
Q 22.75 39.890625 18.8125 39.015625 
Q 14.890625 38.140625 10.796875 36.28125 
z
" id="DejaVuSans-53"/>
      </defs>
      <g transform="translate(27.240625 236.057385)scale(0.1 -0.1)">
       <use xlink:href="#DejaVuSans-53"/>
       <use x="63.623047" xlink:href="#DejaVuSans-48"/>
      </g>
     </g>
    </g>
    <g id="ytick_3">
     <g id="line2d_19">
      <path clip-path="url(#p73bd1ae3f0)" d="M 46.965625 202.25907 
L 404.085625 202.25907 
" style="fill:none;stroke:#b0b0b0;stroke-dasharray:2.96,1.28;stroke-dashoffset:0;stroke-width:0.8;"/>
     </g>
     <g id="line2d_20">
      <g>
       <use style="stroke:#000000;stroke-width:0.8;" x="46.965625" xlink:href="#m09b38014a4" y="202.25907"/>
      </g>
     </g>
     <g id="text_11">
      <!-- 60 -->
      <g transform="translate(27.240625 206.058289)scale(0.1 -0.1)">
       <use xlink:href="#DejaVuSans-54"/>
       <use x="63.623047" xlink:href="#DejaVuSans-48"/>
      </g>
     </g>
    </g>
    <g id="ytick_4">
     <g id="line2d_21">
      <path clip-path="url(#p73bd1ae3f0)" d="M 46.965625 172.259974 
L 404.085625 172.259974 
" style="fill:none;stroke:#b0b0b0;stroke-dasharray:2.96,1.28;stroke-dashoffset:0;stroke-width:0.8;"/>
     </g>
     <g id="line2d_22">
      <g>
       <use style="stroke:#000000;stroke-width:0.8;" x="46.965625" xlink:href="#m09b38014a4" y="172.259974"/>
      </g>
     </g>
     <g id="text_12">
      <!-- 70 -->
      <defs>
       <path d="M 8.203125 72.90625 
L 55.078125 72.90625 
L 55.078125 68.703125 
L 28.609375 0 
L 18.3125 0 
L 43.21875 64.59375 
L 8.203125 64.59375 
z
" id="DejaVuSans-55"/>
      </defs>
      <g transform="translate(27.240625 176.059192)scale(0.1 -0.1)">
       <use xlink:href="#DejaVuSans-55"/>
       <use x="63.623047" xlink:href="#DejaVuSans-48"/>
      </g>
     </g>
    </g>
    <g id="ytick_5">
     <g id="line2d_23">
      <path clip-path="url(#p73bd1ae3f0)" d="M 46.965625 142.260877 
L 404.085625 142.260877 
" style="fill:none;stroke:#b0b0b0;stroke-dasharray:2.96,1.28;stroke-dashoffset:0;stroke-width:0.8;"/>
     </g>
     <g id="line2d_24">
      <g>
       <use style="stroke:#000000;stroke-width:0.8;" x="46.965625" xlink:href="#m09b38014a4" y="142.260877"/>
      </g>
     </g>
     <g id="text_13">
      <!-- 80 -->
      <g transform="translate(27.240625 146.060096)scale(0.1 -0.1)">
       <use xlink:href="#DejaVuSans-56"/>
       <use x="63.623047" xlink:href="#DejaVuSans-48"/>
      </g>
     </g>
    </g>
    <g id="ytick_6">
     <g id="line2d_25">
      <path clip-path="url(#p73bd1ae3f0)" d="M 46.965625 112.261781 
L 404.085625 112.261781 
" style="fill:none;stroke:#b0b0b0;stroke-dasharray:2.96,1.28;stroke-dashoffset:0;stroke-width:0.8;"/>
     </g>
     <g id="line2d_26">
      <g>
       <use style="stroke:#000000;stroke-width:0.8;" x="46.965625" xlink:href="#m09b38014a4" y="112.261781"/>
      </g>
     </g>
     <g id="text_14">
      <!-- 90 -->
      <defs>
       <path d="M 10.984375 1.515625 
L 10.984375 10.5 
Q 14.703125 8.734375 18.5 7.8125 
Q 22.3125 6.890625 25.984375 6.890625 
Q 35.75 6.890625 40.890625 13.453125 
Q 46.046875 20.015625 46.78125 33.40625 
Q 43.953125 29.203125 39.59375 26.953125 
Q 35.25 24.703125 29.984375 24.703125 
Q 19.046875 24.703125 12.671875 31.3125 
Q 6.296875 37.9375 6.296875 49.421875 
Q 6.296875 60.640625 12.9375 67.421875 
Q 19.578125 74.21875 30.609375 74.21875 
Q 43.265625 74.21875 49.921875 64.515625 
Q 56.59375 54.828125 56.59375 36.375 
Q 56.59375 19.140625 48.40625 8.859375 
Q 40.234375 -1.421875 26.421875 -1.421875 
Q 22.703125 -1.421875 18.890625 -0.6875 
Q 15.09375 0.046875 10.984375 1.515625 
z
M 30.609375 32.421875 
Q 37.25 32.421875 41.125 36.953125 
Q 45.015625 41.5 45.015625 49.421875 
Q 45.015625 57.28125 41.125 61.84375 
Q 37.25 66.40625 30.609375 66.40625 
Q 23.96875 66.40625 20.09375 61.84375 
Q 16.21875 57.28125 16.21875 49.421875 
Q 16.21875 41.5 20.09375 36.953125 
Q 23.96875 32.421875 30.609375 32.421875 
z
" id="DejaVuSans-57"/>
      </defs>
      <g transform="translate(27.240625 116.060999)scale(0.1 -0.1)">
       <use xlink:href="#DejaVuSans-57"/>
       <use x="63.623047" xlink:href="#DejaVuSans-48"/>
      </g>
     </g>
    </g>
    <g id="ytick_7">
     <g id="line2d_27">
      <path clip-path="url(#p73bd1ae3f0)" d="M 46.965625 82.262684 
L 404.085625 82.262684 
" style="fill:none;stroke:#b0b0b0;stroke-dasharray:2.96,1.28;stroke-dashoffset:0;stroke-width:0.8;"/>
     </g>
     <g id="line2d_28">
      <g>
       <use style="stroke:#000000;stroke-width:0.8;" x="46.965625" xlink:href="#m09b38014a4" y="82.262684"/>
      </g>
     </g>
     <g id="text_15">
      <!-- 100 -->
      <g transform="translate(20.878125 86.061903)scale(0.1 -0.1)">
       <use xlink:href="#DejaVuSans-49"/>
       <use x="63.623047" xlink:href="#DejaVuSans-48"/>
       <use x="127.246094" xlink:href="#DejaVuSans-48"/>
      </g>
     </g>
    </g>
    <g id="ytick_8">
     <g id="line2d_29">
      <path clip-path="url(#p73bd1ae3f0)" d="M 46.965625 52.263587 
L 404.085625 52.263587 
" style="fill:none;stroke:#b0b0b0;stroke-dasharray:2.96,1.28;stroke-dashoffset:0;stroke-width:0.8;"/>
     </g>
     <g id="line2d_30">
      <g>
       <use style="stroke:#000000;stroke-width:0.8;" x="46.965625" xlink:href="#m09b38014a4" y="52.263587"/>
      </g>
     </g>
     <g id="text_16">
      <!-- 110 -->
      <g transform="translate(20.878125 56.062806)scale(0.1 -0.1)">
       <use xlink:href="#DejaVuSans-49"/>
       <use x="63.623047" xlink:href="#DejaVuSans-49"/>
       <use x="127.246094" xlink:href="#DejaVuSans-48"/>
      </g>
     </g>
    </g>
    <g id="text_17">
     <!-- Price $ -->
     <defs>
      <path d="M 19.671875 64.796875 
L 19.671875 37.40625 
L 32.078125 37.40625 
Q 38.96875 37.40625 42.71875 40.96875 
Q 46.484375 44.53125 46.484375 51.125 
Q 46.484375 57.671875 42.71875 61.234375 
Q 38.96875 64.796875 32.078125 64.796875 
z
M 9.8125 72.90625 
L 32.078125 72.90625 
Q 44.34375 72.90625 50.609375 67.359375 
Q 56.890625 61.8125 56.890625 51.125 
Q 56.890625 40.328125 50.609375 34.8125 
Q 44.34375 29.296875 32.078125 29.296875 
L 19.671875 29.296875 
L 19.671875 0 
L 9.8125 0 
z
" id="DejaVuSans-80"/>
      <path d="M 41.109375 46.296875 
Q 39.59375 47.171875 37.8125 47.578125 
Q 36.03125 48 33.890625 48 
Q 26.265625 48 22.1875 43.046875 
Q 18.109375 38.09375 18.109375 28.8125 
L 18.109375 0 
L 9.078125 0 
L 9.078125 54.6875 
L 18.109375 54.6875 
L 18.109375 46.1875 
Q 20.953125 51.171875 25.484375 53.578125 
Q 30.03125 56 36.53125 56 
Q 37.453125 56 38.578125 55.875 
Q 39.703125 55.765625 41.0625 55.515625 
z
" id="DejaVuSans-114"/>
      <path d="M 9.421875 54.6875 
L 18.40625 54.6875 
L 18.40625 0 
L 9.421875 0 
z
M 9.421875 75.984375 
L 18.40625 75.984375 
L 18.40625 64.59375 
L 9.421875 64.59375 
z
" id="DejaVuSans-105"/>
      <path d="M 48.78125 52.59375 
L 48.78125 44.1875 
Q 44.96875 46.296875 41.140625 47.34375 
Q 37.3125 48.390625 33.40625 48.390625 
Q 24.65625 48.390625 19.8125 42.84375 
Q 14.984375 37.3125 14.984375 27.296875 
Q 14.984375 17.28125 19.8125 11.734375 
Q 24.65625 6.203125 33.40625 6.203125 
Q 37.3125 6.203125 41.140625 7.25 
Q 44.96875 8.296875 48.78125 10.40625 
L 48.78125 2.09375 
Q 45.015625 0.34375 40.984375 -0.53125 
Q 36.96875 -1.421875 32.421875 -1.421875 
Q 20.0625 -1.421875 12.78125 6.34375 
Q 5.515625 14.109375 5.515625 27.296875 
Q 5.515625 40.671875 12.859375 48.328125 
Q 20.21875 56 33.015625 56 
Q 37.15625 56 41.109375 55.140625 
Q 45.0625 54.296875 48.78125 52.59375 
z
" id="DejaVuSans-99"/>
      <path d="M 56.203125 29.59375 
L 56.203125 25.203125 
L 14.890625 25.203125 
Q 15.484375 15.921875 20.484375 11.0625 
Q 25.484375 6.203125 34.421875 6.203125 
Q 39.59375 6.203125 44.453125 7.46875 
Q 49.3125 8.734375 54.109375 11.28125 
L 54.109375 2.78125 
Q 49.265625 0.734375 44.1875 -0.34375 
Q 39.109375 -1.421875 33.890625 -1.421875 
Q 20.796875 -1.421875 13.15625 6.1875 
Q 5.515625 13.8125 5.515625 26.8125 
Q 5.515625 40.234375 12.765625 48.109375 
Q 20.015625 56 32.328125 56 
Q 43.359375 56 49.78125 48.890625 
Q 56.203125 41.796875 56.203125 29.59375 
z
M 47.21875 32.234375 
Q 47.125 39.59375 43.09375 43.984375 
Q 39.0625 48.390625 32.421875 48.390625 
Q 24.90625 48.390625 20.390625 44.140625 
Q 15.875 39.890625 15.1875 32.171875 
z
" id="DejaVuSans-101"/>
      <path id="DejaVuSans-32"/>
      <path d="M 33.796875 -14.703125 
L 28.90625 -14.703125 
L 28.859375 0 
Q 23.734375 0.09375 18.609375 1.1875 
Q 13.484375 2.296875 8.296875 4.5 
L 8.296875 13.28125 
Q 13.28125 10.15625 18.375 8.5625 
Q 23.484375 6.984375 28.90625 6.9375 
L 28.90625 29.203125 
Q 18.109375 30.953125 13.203125 35.15625 
Q 8.296875 39.359375 8.296875 46.6875 
Q 8.296875 54.640625 13.625 59.21875 
Q 18.953125 63.8125 28.90625 64.5 
L 28.90625 75.984375 
L 33.796875 75.984375 
L 33.796875 64.65625 
Q 38.328125 64.453125 42.578125 63.6875 
Q 46.828125 62.9375 50.875 61.625 
L 50.875 53.078125 
Q 46.828125 55.125 42.546875 56.25 
Q 38.28125 57.375 33.796875 57.5625 
L 33.796875 36.71875 
Q 44.875 35.015625 50.09375 30.609375 
Q 55.328125 26.21875 55.328125 18.609375 
Q 55.328125 10.359375 49.78125 5.59375 
Q 44.234375 0.828125 33.796875 0.09375 
z
M 28.90625 37.59375 
L 28.90625 57.625 
Q 23.25 56.984375 20.265625 54.390625 
Q 17.28125 51.8125 17.28125 47.515625 
Q 17.28125 43.3125 20.03125 40.96875 
Q 22.796875 38.625 28.90625 37.59375 
z
M 33.796875 28.21875 
L 33.796875 7.078125 
Q 39.984375 7.90625 43.140625 10.59375 
Q 46.296875 13.28125 46.296875 17.671875 
Q 46.296875 21.96875 43.28125 24.5 
Q 40.28125 27.046875 33.796875 28.21875 
z
" id="DejaVuSans-36"/>
     </defs>
     <g transform="translate(14.798438 172.342094)rotate(-90)scale(0.1 -0.1)">
      <use xlink:href="#DejaVuSans-80"/>
      <use x="58.552734" xlink:href="#DejaVuSans-114"/>
      <use x="99.666016" xlink:href="#DejaVuSans-105"/>
      <use x="127.449219" xlink:href="#DejaVuSans-99"/>
      <use x="182.429688" xlink:href="#DejaVuSans-101"/>
      <use x="243.953125" xlink:href="#DejaVuSans-32"/>
      <use x="275.740234" xlink:href="#DejaVuSans-36"/>
     </g>
    </g>
   </g>
   <g id="line2d_31">
    <path clip-path="url(#p73bd1ae3f0)" d="M 63.198352 271.923201 
L 63.443005 273.049747 
L 63.687658 274.850603 
L 63.932311 275.065403 
L 64.176964 274.85478 
L 64.421617 272.212259 
L 64.66627 271.360112 
L 64.910923 271.086766 
L 65.155576 271.022281 
L 65.644882 269.471092 
L 65.889535 269.521514 
L 66.134188 270.091035 
L 66.378841 268.243396 
L 66.868147 267.976081 
L 67.1128 268.404283 
L 67.357453 268.462029 
L 67.602106 268.793119 
L 67.846759 269.544985 
L 68.336066 268.942437 
L 68.580719 269.613647 
L 68.825372 269.415659 
L 69.070025 269.652522 
L 69.314678 269.307973 
L 69.559331 270.306555 
L 69.803984 269.449189 
L 70.048637 267.9194 
L 70.29329 269.148161 
L 71.516555 263.127491 
L 72.005861 266.480509 
L 72.250514 267.600509 
L 72.495167 267.390276 
L 72.73982 267.552296 
L 72.984473 267.073147 
L 73.229126 268.911356 
L 73.473779 268.509085 
L 73.718432 270.022235 
L 73.963085 268.337257 
L 74.207738 268.49034 
L 74.452391 268.305947 
L 74.697044 269.586091 
L 74.941697 268.948159 
L 75.18635 269.019682 
L 75.431003 268.00223 
L 75.675656 269.661413 
L 75.920309 269.099411 
L 76.164962 267.800672 
L 76.409615 265.288655 
L 76.654268 269.185651 
L 76.898921 266.867239 
L 77.143574 265.812034 
L 77.388227 265.43375 
L 77.63288 265.522141 
L 77.877533 267.61106 
L 78.122186 271.375549 
L 78.366839 271.263664 
L 78.611492 272.846998 
L 78.856145 272.96203 
L 79.345451 272.024662 
L 79.590104 273.467386 
L 79.834757 272.325174 
L 80.07941 269.017394 
L 80.324063 271.080495 
L 80.568716 270.59607 
L 80.813369 271.229424 
L 81.058022 272.587156 
L 81.547328 272.060732 
L 82.036634 270.724846 
L 82.281287 268.615306 
L 82.52594 268.548864 
L 82.770593 267.777807 
L 83.015246 265.916035 
L 83.259899 267.835495 
L 83.504552 266.228518 
L 83.993858 265.665943 
L 84.238511 266.533116 
L 84.727817 269.311979 
L 84.97247 269.648619 
L 85.217123 270.177286 
L 85.461776 269.318696 
L 85.706429 267.753741 
L 86.195735 268.896033 
L 86.440388 270.019076 
L 86.685041 270.399718 
L 86.929694 270.299803 
L 87.174347 272.087865 
L 87.419 271.261844 
L 87.663653 272.012108 
L 87.908306 273.954993 
L 88.152959 274.12396 
L 88.397612 276.334125 
L 88.886918 274.496912 
L 89.131571 271.816969 
L 89.376224 274.805904 
L 89.620877 272.299929 
L 90.110183 274.989942 
L 90.354836 275.471587 
L 90.844143 271.144088 
L 91.088796 271.132072 
L 91.333449 271.580312 
L 91.578102 268.964867 
L 92.067408 267.389772 
L 92.312061 265.56351 
L 92.556714 264.812629 
L 92.801367 266.986289 
L 93.04602 266.044434 
L 93.290673 269.114963 
L 93.535326 270.501442 
L 93.779979 270.309347 
L 94.024632 270.364265 
L 94.513938 268.682 
L 94.758591 269.685937 
L 95.003244 267.96981 
L 95.247897 267.136076 
L 95.49255 265.716548 
L 95.737203 262.861173 
L 95.981856 262.081979 
L 96.226509 262.497616 
L 96.715815 259.25122 
L 96.960468 260.62749 
L 97.205121 259.767607 
L 97.449774 258.389586 
L 97.694427 258.005099 
L 97.93908 258.299844 
L 98.183733 260.477085 
L 98.428386 261.104535 
L 98.673039 260.285757 
L 99.162345 261.725518 
L 99.406998 261.337838 
L 99.896304 258.638842 
L 100.140957 258.771601 
L 100.38561 256.850184 
L 100.630263 256.090537 
L 100.874916 256.200935 
L 101.119569 256.62718 
L 101.364222 255.65231 
L 101.608875 255.222998 
L 101.853528 255.208224 
L 102.098181 256.079242 
L 102.342834 255.10285 
L 102.83214 250.924726 
L 103.076793 251.857209 
L 103.321446 250.764388 
L 103.566099 250.564386 
L 103.810752 249.85255 
L 104.300058 251.574365 
L 104.544711 252.040709 
L 104.789364 251.553869 
L 105.27867 252.241902 
L 106.012629 246.493021 
L 106.257282 247.883528 
L 106.501935 250.503757 
L 106.746588 249.065678 
L 106.991241 250.714379 
L 107.480547 247.31221 
L 107.969853 239.064381 
L 108.214506 239.966526 
L 108.459159 238.642954 
L 108.703812 240.218906 
L 108.948465 239.410749 
L 109.682424 241.092121 
L 109.927077 240.007575 
L 110.17173 240.982136 
L 110.416383 239.373763 
L 110.661036 238.956055 
L 110.905689 238.978976 
L 111.394995 240.072587 
L 111.639648 240.147738 
L 111.884301 239.861907 
L 112.128954 240.26364 
L 112.373607 239.444851 
L 112.61826 239.057755 
L 112.862913 237.514303 
L 113.35222 241.694429 
L 113.596873 240.903242 
L 113.841526 241.553419 
L 114.086179 248.236727 
L 114.330832 247.915959 
L 114.575485 247.931717 
L 114.820138 248.641756 
L 115.064791 250.659277 
L 115.309444 249.440438 
L 115.554097 248.849414 
L 115.79875 247.10731 
L 116.043403 248.001021 
L 116.288056 248.258631 
L 116.532709 250.083748 
L 116.777362 248.859634 
L 117.022015 249.531839 
L 117.511321 248.106006 
L 117.755974 248.268438 
L 118.000627 251.251159 
L 118.24528 250.079377 
L 118.489933 250.676408 
L 118.734586 249.942613 
L 120.202504 243.536884 
L 120.69181 241.976609 
L 120.936463 239.797044 
L 121.181116 240.386019 
L 121.425769 240.351757 
L 121.670422 238.969123 
L 121.915075 238.903528 
L 122.159728 240.419355 
L 122.404381 243.60835 
L 122.649034 242.434576 
L 122.893687 244.976335 
L 123.382993 238.714832 
L 123.627646 240.718174 
L 123.872299 240.637564 
L 124.116952 241.168154 
L 124.361605 241.042719 
L 124.850911 243.88633 
L 125.095564 241.460232 
L 125.340217 241.169653 
L 125.58487 242.081285 
L 125.829523 243.779903 
L 126.074176 244.692622 
L 126.318829 242.752815 
L 126.563482 244.152088 
L 126.808135 246.556053 
L 127.052788 245.184108 
L 127.297441 246.319877 
L 127.542094 246.097308 
L 127.786747 248.689179 
L 128.0314 247.441009 
L 128.276053 246.801418 
L 128.520706 247.216449 
L 128.765359 246.895761 
L 129.010012 244.060286 
L 129.254665 243.12492 
L 129.499318 245.863455 
L 129.743971 245.204386 
L 129.988624 245.026035 
L 130.233277 245.665867 
L 130.47793 243.248398 
L 130.722583 242.093129 
L 130.967236 239.410955 
L 131.456542 237.596469 
L 131.701195 240.982582 
L 131.945848 240.919767 
L 132.190501 242.181944 
L 132.435154 241.239906 
L 132.679807 239.433133 
L 133.169113 237.925454 
L 133.413766 234.22696 
L 133.658419 235.632092 
L 133.903072 236.310077 
L 134.147725 236.120992 
L 134.392378 238.341022 
L 134.637031 238.722064 
L 134.881684 239.540304 
L 135.126337 241.328195 
L 135.37099 239.199623 
L 135.615643 239.988338 
L 135.860297 241.207097 
L 136.10495 240.448502 
L 136.594256 244.016216 
L 136.838909 243.659595 
L 137.083562 242.982754 
L 137.328215 241.416861 
L 138.062174 244.863775 
L 138.306827 241.119678 
L 138.55148 239.226596 
L 138.796133 233.149474 
L 139.040786 232.525882 
L 139.285439 231.524531 
L 139.530092 229.936803 
L 139.774745 226.045574 
L 140.019398 225.439696 
L 140.264051 222.453793 
L 140.753357 226.845949 
L 140.99801 226.424305 
L 141.242663 225.162403 
L 141.487316 226.072512 
L 141.731969 225.665596 
L 141.976622 229.622374 
L 142.221275 229.818463 
L 142.465928 229.237841 
L 142.710581 228.113367 
L 142.955234 223.470708 
L 143.199887 224.41944 
L 143.44454 224.030067 
L 143.933846 226.547954 
L 144.178499 226.342699 
L 144.667805 223.723466 
L 144.912458 220.61024 
L 145.157111 220.837421 
L 145.646417 220.983581 
L 145.89107 220.739909 
L 146.380376 225.703429 
L 146.625029 224.198324 
L 146.869682 226.701781 
L 147.114335 225.233251 
L 147.358988 225.792942 
L 147.603641 227.997213 
L 148.092947 226.509721 
L 148.3376 227.177452 
L 148.582253 227.290024 
L 148.826906 225.198359 
L 149.071559 225.718111 
L 149.316212 225.352243 
L 149.560865 222.133975 
L 149.805518 221.518096 
L 150.78413 217.463278 
L 151.273436 221.577809 
L 151.518089 220.84367 
L 152.007395 221.003768 
L 152.252048 223.461576 
L 152.496701 223.349072 
L 152.741354 225.538833 
L 152.986007 225.466989 
L 153.23066 227.110128 
L 153.475313 226.248643 
L 153.964619 227.126367 
L 154.209272 225.151016 
L 154.453925 226.641919 
L 154.698578 229.333271 
L 154.943231 229.309456 
L 155.187884 227.661683 
L 155.432537 229.634093 
L 155.67719 228.704631 
L 155.921843 236.356642 
L 156.166496 237.455734 
L 156.411149 234.654121 
L 156.655802 234.850507 
L 156.900455 231.855839 
L 157.145108 231.404703 
L 157.389761 224.970811 
L 157.634414 225.473947 
L 157.879067 225.55395 
L 158.12372 223.077764 
L 158.368374 223.942785 
L 158.613027 223.768188 
L 159.102333 219.328003 
L 159.346986 219.089492 
L 159.591639 219.257349 
L 159.836292 218.6039 
L 160.080945 217.1047 
L 160.325598 216.853567 
L 160.570251 216.912891 
L 160.814904 218.042057 
L 161.059557 217.520669 
L 161.30421 217.896333 
L 161.548863 217.137521 
L 161.793516 217.231005 
L 162.038169 217.962008 
L 162.282822 218.31665 
L 162.527475 219.009237 
L 163.016781 218.378492 
L 163.261434 217.24143 
L 163.506087 216.98335 
L 163.75074 217.929245 
L 163.995393 218.171074 
L 164.240046 217.062461 
L 164.484699 217.070369 
L 164.974005 219.430058 
L 165.218658 218.690849 
L 165.463311 215.728258 
L 165.707964 215.590772 
L 165.952617 213.296358 
L 166.19727 213.073869 
L 166.441923 214.964685 
L 166.686576 217.754499 
L 166.931229 218.103167 
L 167.175882 217.520943 
L 167.420535 218.015622 
L 167.909841 221.496753 
L 168.154494 219.8283 
L 168.399147 221.253699 
L 168.6438 220.010256 
L 168.888453 217.991693 
L 169.133106 214.368431 
L 169.622412 217.040901 
L 169.867065 217.428249 
L 170.111718 217.448733 
L 170.356371 215.034446 
L 170.845677 217.405533 
L 171.334983 214.182276 
L 171.579636 216.941134 
L 172.068942 215.467466 
L 172.313595 216.483018 
L 172.558248 215.631764 
L 172.802901 215.578608 
L 173.047554 216.125333 
L 173.292207 216.979723 
L 173.53686 219.250231 
L 173.781513 219.409803 
L 174.270819 221.584916 
L 174.515472 220.995574 
L 174.760125 221.44053 
L 175.004778 221.382212 
L 175.249431 223.12149 
L 175.494084 222.366672 
L 175.738737 222.482586 
L 175.98339 220.564511 
L 176.228043 226.024929 
L 176.472696 227.279782 
L 176.962002 225.155777 
L 177.206655 226.607519 
L 177.451308 224.522834 
L 177.695961 223.996125 
L 177.940614 224.777366 
L 178.185267 223.719575 
L 178.674573 223.430346 
L 178.919226 224.235264 
L 179.163879 224.249535 
L 179.653185 223.997933 
L 179.897838 220.794313 
L 180.142491 221.154425 
L 180.387144 222.249648 
L 180.631798 222.832284 
L 180.876451 222.539633 
L 181.121104 222.442659 
L 181.365757 220.414987 
L 181.61041 220.057404 
L 181.855063 220.108558 
L 182.099716 221.522032 
L 182.344369 221.631549 
L 182.589022 220.559487 
L 182.833675 221.545675 
L 183.078328 219.459754 
L 183.322981 218.526357 
L 183.567634 221.064122 
L 183.812287 225.183539 
L 184.05694 224.029346 
L 184.301593 223.714082 
L 184.546246 227.383313 
L 184.790899 227.585181 
L 185.035552 228.605712 
L 185.280205 227.122041 
L 185.524858 227.733172 
L 186.014164 229.87432 
L 186.258817 230.555452 
L 186.50347 233.082288 
L 186.748123 233.850209 
L 187.482082 231.715653 
L 187.726735 232.400859 
L 187.971388 230.699757 
L 188.216041 230.082733 
L 188.460694 230.689034 
L 188.705347 230.67259 
L 188.95 229.619479 
L 189.194653 229.239089 
L 189.439306 226.695785 
L 189.928612 225.021347 
L 190.173265 224.373654 
L 190.417918 224.799041 
L 190.662571 223.735722 
L 190.907224 225.147331 
L 191.151877 225.215959 
L 191.39653 225.702273 
L 191.641183 224.120049 
L 191.885836 224.464105 
L 192.375142 220.677758 
L 192.619795 220.573632 
L 192.864448 220.216507 
L 193.109101 220.785776 
L 193.353754 220.771906 
L 193.598407 220.27955 
L 193.84306 221.44069 
L 194.332366 221.393919 
L 194.577019 220.586677 
L 194.821672 220.613902 
L 195.066325 219.944191 
L 195.310978 222.210923 
L 195.555631 223.093739 
L 195.800284 217.18222 
L 196.044937 217.811706 
L 196.28959 215.939109 
L 196.534243 216.009819 
L 196.778896 217.405281 
L 197.023549 217.198195 
L 197.268202 216.656254 
L 197.512855 215.824591 
L 197.757508 216.715429 
L 198.002161 216.736452 
L 198.246814 215.618501 
L 198.491467 217.552952 
L 198.73612 217.457053 
L 198.980773 217.654034 
L 199.225426 217.68333 
L 199.470079 219.784368 
L 199.714732 219.365618 
L 199.959385 219.590557 
L 200.204038 211.543737 
L 200.448691 208.346457 
L 200.693344 211.351127 
L 200.937997 209.656228 
L 201.18265 208.852007 
L 201.427303 209.217578 
L 201.671956 209.345542 
L 201.916609 208.759679 
L 202.161262 209.659204 
L 202.405915 209.306805 
L 202.650568 208.430374 
L 202.895221 208.480589 
L 203.139875 209.167454 
L 203.384528 207.086111 
L 203.629181 207.350759 
L 203.873834 210.409478 
L 204.118487 211.242114 
L 204.36314 209.254038 
L 204.852446 219.709743 
L 205.097099 212.26213 
L 205.341752 212.393458 
L 205.586405 214.634006 
L 206.075711 210.412671 
L 206.320364 210.703365 
L 206.565017 208.894532 
L 207.054323 204.018397 
L 207.543629 209.568775 
L 207.788282 210.142118 
L 208.277588 213.164389 
L 208.522241 213.025244 
L 208.766894 213.238911 
L 209.011547 216.113717 
L 209.2562 216.242196 
L 209.500853 215.727434 
L 209.745506 215.704077 
L 209.990159 211.219375 
L 210.234812 204.097909 
L 210.724118 214.672492 
L 210.968771 217.673786 
L 211.213424 215.94546 
L 211.458077 215.669929 
L 211.70273 215.570769 
L 211.947383 214.750756 
L 212.192036 217.866236 
L 212.436689 219.058869 
L 212.681342 218.692566 
L 212.925995 218.732951 
L 213.170648 217.784069 
L 213.415301 218.144708 
L 213.659954 217.473189 
L 213.904607 222.908476 
L 214.14926 224.023017 
L 214.393913 227.649175 
L 214.638566 224.994958 
L 214.883219 225.107564 
L 215.127872 224.386619 
L 215.372525 226.393372 
L 216.106484 217.803226 
L 216.59579 218.618685 
L 217.085096 214.291014 
L 217.329749 217.053112 
L 217.574402 216.647969 
L 218.063708 211.489642 
L 218.553014 213.350888 
L 218.797667 201.747821 
L 219.286973 196.28952 
L 219.531626 196.19845 
L 219.776279 192.230262 
L 220.265585 196.653167 
L 220.510238 196.414359 
L 220.754891 196.889138 
L 220.999544 195.9991 
L 221.244197 196.315623 
L 221.48885 194.894046 
L 221.733503 194.312063 
L 221.978156 194.472619 
L 222.222809 192.617232 
L 222.712115 194.997108 
L 222.956768 195.791888 
L 223.201421 197.711794 
L 223.446074 197.491983 
L 223.690727 198.157013 
L 223.93538 197.937396 
L 224.180033 198.751379 
L 224.669339 198.089152 
L 224.913992 197.231603 
L 225.158645 197.415424 
L 225.403298 198.185027 
L 225.647952 197.993505 
L 225.892605 198.677475 
L 226.137258 197.929248 
L 226.381911 200.914064 
L 226.626564 202.023684 
L 226.871217 200.009493 
L 227.11587 195.103776 
L 227.360523 193.059648 
L 227.605176 192.577259 
L 228.094482 189.880575 
L 228.339135 191.176213 
L 228.583788 189.871603 
L 228.828441 189.306991 
L 229.073094 189.989405 
L 229.5624 188.421932 
L 229.807053 187.195322 
L 230.051706 183.637713 
L 230.296359 183.802663 
L 230.541012 158.619714 
L 231.274971 168.017639 
L 231.519624 168.636883 
L 231.764277 170.541535 
L 232.00893 169.28112 
L 232.253583 171.798401 
L 232.498236 169.138989 
L 232.742889 168.508278 
L 233.232195 171.529107 
L 233.721501 167.324377 
L 233.966154 168.103101 
L 234.210807 167.815176 
L 234.45546 169.031006 
L 234.700113 168.562293 
L 234.944766 166.179728 
L 235.189419 165.733879 
L 235.434072 167.328062 
L 235.923378 165.617451 
L 236.168031 163.737495 
L 236.657337 164.628093 
L 236.90199 163.866191 
L 237.146643 164.339459 
L 237.391296 165.76496 
L 237.635949 164.425653 
L 237.880602 166.336049 
L 238.125255 163.614703 
L 238.369908 165.904826 
L 238.614561 166.211976 
L 238.859214 164.530295 
L 239.103867 166.367588 
L 239.593173 161.900819 
L 239.837826 163.945107 
L 240.082479 162.732802 
L 240.327132 162.381823 
L 240.816438 155.69135 
L 241.79505 147.438143 
L 242.039703 147.139301 
L 242.284356 149.560042 
L 242.529009 154.582588 
L 242.773662 156.799837 
L 243.018315 154.628432 
L 243.752274 154.139395 
L 243.996927 151.441783 
L 244.24158 154.861473 
L 244.730886 146.935922 
L 244.975539 146.398272 
L 245.220192 149.742456 
L 245.464845 146.615383 
L 245.709498 147.623531 
L 245.954151 133.400945 
L 246.198804 141.758222 
L 246.443457 143.184639 
L 246.68811 145.589131 
L 246.932763 143.272069 
L 247.177416 143.602473 
L 247.422069 142.489157 
L 247.666722 139.437659 
L 248.400682 149.752755 
L 248.645335 144.880877 
L 248.889988 145.889209 
L 249.134641 152.393445 
L 249.379294 149.038757 
L 249.623947 144.02461 
L 249.8686 144.452629 
L 250.113253 143.115794 
L 250.357906 140.317614 
L 250.602559 139.907081 
L 250.847212 141.653397 
L 251.336518 150.141636 
L 251.825824 164.538259 
L 252.070477 173.260889 
L 252.31513 160.939498 
L 252.804436 156.56888 
L 253.049089 157.230214 
L 253.293742 162.645624 
L 253.538395 163.273176 
L 253.783048 155.078927 
L 254.027701 154.645232 
L 254.272354 152.661 
L 254.76166 155.121726 
L 255.495619 149.657154 
L 255.740272 144.414522 
L 255.984925 142.368814 
L 256.229578 149.964441 
L 256.718884 153.141935 
L 256.963537 157.779857 
L 257.20819 157.58719 
L 257.452843 160.9839 
L 257.697496 160.995321 
L 257.942149 164.962296 
L 258.186802 161.51695 
L 258.431455 167.524139 
L 258.676108 166.872921 
L 258.920761 165.087262 
L 259.165414 160.988592 
L 259.410067 165.158053 
L 259.65472 160.120836 
L 259.899373 160.116006 
L 260.144026 158.995206 
L 260.388679 159.079272 
L 260.633332 160.425697 
L 260.877985 160.856051 
L 261.122638 156.476506 
L 261.367291 149.682971 
L 261.611944 163.247176 
L 261.856597 161.315334 
L 262.10125 157.483578 
L 262.590556 146.619045 
L 262.835209 148.045943 
L 263.079862 147.371655 
L 263.324515 147.98417 
L 263.813821 150.712245 
L 264.058474 150.94778 
L 264.303127 150.597349 
L 264.792433 153.409147 
L 265.037086 148.773765 
L 265.281739 147.365589 
L 265.526392 143.769712 
L 265.771045 148.002503 
L 266.015698 150.274224 
L 266.260351 154.783037 
L 266.505004 156.426382 
L 266.749657 156.504589 
L 266.99431 153.942448 
L 267.238963 152.551026 
L 267.483616 154.807435 
L 267.728269 154.886923 
L 267.972922 155.120742 
L 268.217575 153.158963 
L 268.462228 156.192403 
L 268.706881 162.477561 
L 268.951534 162.705978 
L 269.196187 164.807393 
L 269.685493 174.290872 
L 269.930146 173.936139 
L 270.174799 172.296662 
L 270.419452 177.565203 
L 270.664106 178.681564 
L 270.908759 176.828249 
L 271.153412 176.150985 
L 271.398065 174.281489 
L 271.642718 174.69637 
L 271.887371 183.399637 
L 272.132024 183.268309 
L 272.376677 185.489907 
L 272.62133 181.31406 
L 272.865983 179.911354 
L 273.355289 178.776455 
L 273.599942 177.402565 
L 273.844595 179.708548 
L 274.089248 180.416298 
L 274.333901 181.757116 
L 274.823207 173.844406 
L 275.312513 177.656707 
L 275.557166 171.514459 
L 275.801819 171.343627 
L 276.046472 176.021602 
L 276.291125 172.704746 
L 276.535778 166.405261 
L 277.025084 173.072823 
L 277.269737 165.23262 
L 277.51439 162.754957 
L 277.759043 168.401623 
L 278.003696 165.969895 
L 278.248349 168.899311 
L 278.737655 159.160614 
L 278.982308 162.369234 
L 279.716267 153.27379 
L 279.96092 159.528805 
L 280.205573 155.446797 
L 280.450226 166.219415 
L 280.694879 165.268302 
L 280.939532 172.812226 
L 281.673491 165.337971 
L 281.918144 164.995094 
L 282.162797 165.59866 
L 282.40745 159.415146 
L 282.652103 158.589433 
L 282.896756 155.195264 
L 283.141409 154.540407 
L 283.386062 153.007494 
L 283.630715 152.864974 
L 283.875368 154.905439 
L 284.364674 146.039282 
L 284.609327 145.326771 
L 284.85398 148.937365 
L 285.343286 146.535437 
L 285.587939 148.862157 
L 285.832592 147.934275 
L 286.077245 148.843046 
L 286.321898 146.62138 
L 286.566551 146.732659 
L 286.811204 148.593618 
L 287.055857 146.176012 
L 287.30051 146.707025 
L 287.545163 148.493943 
L 288.034469 147.648479 
L 288.279122 150.022553 
L 288.523775 147.341947 
L 289.013081 146.663035 
L 289.257734 141.432762 
L 289.502387 144.359363 
L 289.74704 143.895365 
L 289.991693 147.671916 
L 290.236346 145.148707 
L 290.480999 146.934732 
L 290.725652 147.78308 
L 291.214958 140.130875 
L 291.459611 137.983456 
L 291.704264 138.236065 
L 291.948917 135.091278 
L 292.19357 122.337657 
L 292.438223 122.018239 
L 292.682876 122.922112 
L 292.92753 122.594866 
L 293.172183 120.77206 
L 293.416836 120.766842 
L 293.661489 119.887756 
L 293.906142 121.881669 
L 294.150795 127.358509 
L 294.395448 128.873272 
L 294.640101 125.427949 
L 295.37406 131.483957 
L 295.618713 129.344411 
L 295.863366 124.50366 
L 296.108019 124.901926 
L 296.352672 129.363705 
L 296.597325 126.621166 
L 296.841978 127.218689 
L 297.086631 126.213608 
L 297.331284 128.744118 
L 297.575937 127.44349 
L 298.065243 128.40758 
L 298.309896 128.434588 
L 298.554549 123.24494 
L 298.799202 122.379747 
L 299.043855 121.992605 
L 299.533161 120.558886 
L 299.777814 122.221068 
L 300.022467 122.546413 
L 300.26712 125.051587 
L 300.511773 124.544652 
L 300.756426 121.687812 
L 301.001079 120.521213 
L 301.245732 121.823169 
L 301.735038 126.957085 
L 301.979691 127.343541 
L 302.224344 124.404672 
L 302.468997 126.118716 
L 302.71365 126.69381 
L 302.958303 125.705071 
L 303.202956 125.501647 
L 303.447609 125.930925 
L 303.692262 125.297124 
L 303.936915 136.081231 
L 304.181568 138.734967 
L 304.426221 132.706332 
L 304.915527 129.326605 
L 305.16018 130.4889 
L 305.404833 133.927357 
L 305.649486 132.524011 
L 305.894139 133.122953 
L 306.138792 127.485947 
L 306.628098 124.490042 
L 306.872751 127.300054 
L 307.117404 127.359722 
L 307.362057 129.033393 
L 307.60671 142.47444 
L 307.851363 138.399047 
L 308.096016 137.514537 
L 308.340669 139.513828 
L 308.585322 142.444412 
L 308.829975 139.526371 
L 309.074628 139.759365 
L 309.319281 138.763485 
L 309.563934 140.599268 
L 309.808587 138.885269 
L 310.05324 140.630235 
L 310.297893 141.138841 
L 310.542546 140.354326 
L 310.787199 140.115152 
L 311.031852 137.364761 
L 311.276505 137.253917 
L 311.521158 137.897674 
L 311.765811 137.151084 
L 312.010464 134.448666 
L 312.49977 137.230503 
L 312.744423 140.294498 
L 312.989076 140.422805 
L 313.233729 141.248655 
L 313.478382 139.715193 
L 313.723035 140.018406 
L 313.967688 134.650167 
L 314.212341 138.82757 
L 314.456994 139.573176 
L 314.701647 138.537768 
L 314.9463 136.844529 
L 315.190953 136.328759 
L 315.435607 137.775867 
L 315.924913 133.626295 
L 316.169566 135.87165 
L 316.414219 135.071686 
L 316.903525 142.714965 
L 317.148178 142.671021 
L 317.392831 147.730645 
L 317.637484 147.179239 
L 317.882137 149.730852 
L 318.12679 148.487099 
L 318.371443 150.527863 
L 318.616096 148.935832 
L 318.860749 145.600391 
L 319.105402 144.840115 
L 319.350055 142.395204 
L 319.594708 143.429558 
L 319.839361 142.394105 
L 320.084014 142.658181 
L 320.328667 144.862178 
L 320.57332 145.102062 
L 320.817973 141.883531 
L 321.062626 141.132775 
L 321.307279 141.598009 
L 321.551932 141.297634 
L 321.796585 144.198029 
L 322.041238 144.228309 
L 322.285891 145.506415 
L 322.775197 152.620833 
L 323.01985 152.475291 
L 323.264503 137.088876 
L 323.509156 138.163146 
L 323.753809 139.887284 
L 324.487768 131.666714 
L 324.732421 134.597961 
L 324.977074 136.104919 
L 325.221727 135.096016 
L 325.711033 131.09329 
L 325.955686 134.361419 
L 326.200339 139.255497 
L 326.444992 139.52605 
L 326.689645 137.294863 
L 326.934298 133.590545 
L 327.178951 133.233912 
L 327.423604 134.002772 
L 327.91291 127.979332 
L 328.157563 120.484387 
L 328.402216 126.438706 
L 328.646869 126.584774 
L 328.891522 125.47702 
L 329.136175 130.309096 
L 329.380828 124.709144 
L 329.870134 122.562572 
L 330.114787 118.495418 
L 330.35944 125.163026 
L 330.604093 123.860316 
L 331.093399 129.672778 
L 331.338052 130.080885 
L 331.827358 127.101734 
L 332.072011 121.257161 
L 332.316664 121.148171 
L 332.561317 125.182549 
L 332.80597 125.543256 
L 333.050623 126.726608 
L 333.295276 126.944268 
L 333.539929 135.191548 
L 334.029235 142.779256 
L 334.273888 138.63163 
L 334.763194 147.642871 
L 335.007847 147.113094 
L 335.2525 148.360783 
L 335.497153 146.821348 
L 335.741806 147.392276 
L 335.986459 145.950135 
L 336.231112 139.514401 
L 336.475765 137.906806 
L 336.720418 130.585051 
L 336.965071 134.234095 
L 337.209724 134.029939 
L 337.454377 132.058158 
L 337.69903 134.526231 
L 337.943684 131.631536 
L 338.188337 130.605466 
L 338.43299 127.058019 
L 338.677643 127.806967 
L 338.922296 129.879979 
L 339.411602 128.393962 
L 339.900908 121.218756 
L 340.145561 136.999706 
L 340.634867 131.042343 
L 340.87952 135.074044 
L 341.124173 135.710957 
L 341.368826 134.961071 
L 341.613479 133.663876 
L 341.858132 96.910291 
L 342.102785 96.589019 
L 342.347438 92.412967 
L 342.592091 90.161112 
L 342.836744 90.083547 
L 343.081397 87.65317 
L 343.570703 88.251426 
L 343.815356 89.889781 
L 344.060009 85.812443 
L 344.304662 86.060246 
L 344.549315 85.755453 
L 344.793968 91.266098 
L 345.283274 89.765113 
L 345.527927 91.578215 
L 345.77258 89.184045 
L 346.017233 91.762802 
L 346.261886 89.597943 
L 346.506539 90.510353 
L 346.751192 92.486894 
L 346.995845 90.019279 
L 347.240498 89.09634 
L 347.485151 90.355656 
L 348.21911 83.892411 
L 348.463763 84.375543 
L 348.708416 81.286235 
L 348.953069 81.706838 
L 349.197722 86.655824 
L 349.442375 88.04569 
L 349.687028 83.197341 
L 349.931681 83.113252 
L 350.176334 86.211715 
L 350.66564 82.429831 
L 350.910293 83.707594 
L 351.154946 81.497303 
L 351.399599 83.125771 
L 351.644252 88.872409 
L 351.888905 91.14841 
L 352.133558 92.195536 
L 352.622864 95.568237 
L 352.867517 95.557297 
L 353.11217 92.296951 
L 353.356823 96.161962 
L 353.601476 95.01214 
L 353.846129 95.939106 
L 354.335435 93.460139 
L 354.580088 93.605131 
L 354.824741 75.391103 
L 355.314047 80.714345 
L 355.5587 81.840661 
L 355.803353 85.499914 
L 356.048006 86.87543 
L 356.292659 83.082514 
L 356.537312 85.337298 
L 356.781965 84.972952 
L 357.026618 80.717343 
L 357.271271 82.139458 
L 357.515924 78.155386 
L 357.760577 76.727527 
L 358.249883 78.35334 
L 358.494536 79.724072 
L 358.739189 82.885956 
L 358.983842 84.237348 
L 359.228495 83.495565 
L 359.473148 79.588189 
L 359.717801 78.419256 
L 359.962454 79.325967 
L 360.207107 69.73027 
L 360.451761 68.645495 
L 360.696414 69.447541 
L 360.941067 68.688569 
L 361.18572 65.09466 
L 361.430373 63.86535 
L 361.675026 59.322548 
L 361.919679 58.5338 
L 362.164332 58.751666 
L 362.408985 57.391851 
L 362.653638 57.882193 
L 362.898291 60.271693 
L 363.387597 54.238343 
L 363.63225 57.16515 
L 363.876903 57.534371 
L 364.366209 50.310712 
L 364.610862 48.870333 
L 365.100168 51.863766 
L 365.344821 47.057072 
L 365.589474 48.043797 
L 365.834127 52.209481 
L 366.07878 51.822088 
L 366.323433 53.518669 
L 366.568086 49.375506 
L 366.812739 49.802495 
L 367.057392 47.033887 
L 367.302045 48.940163 
L 367.791351 45.709387 
L 368.036004 45.351106 
L 368.280657 44.438078 
L 368.52531 45.921211 
L 368.769963 44.616097 
L 369.014616 43.986737 
L 369.259269 44.88617 
L 369.993228 37.706889 
L 370.237881 69.54241 
L 370.482534 64.820903 
L 370.727187 63.66204 
L 370.97184 64.782406 
L 371.216493 67.059849 
L 371.705799 67.657075 
L 372.195105 72.284766 
L 372.439758 72.4304 
L 372.684411 75.977847 
L 372.929064 82.099153 
L 373.41837 87.897013 
L 373.663023 87.878108 
L 373.907676 87.129389 
L 374.152329 87.089542 
L 374.641635 95.328285 
L 374.886288 95.40038 
L 375.375594 96.503374 
L 375.620247 98.762507 
L 375.8649 97.983532 
L 376.109553 98.627448 
L 376.354206 98.660704 
L 376.843512 94.927365 
L 377.088165 87.687295 
L 377.332818 87.374812 
L 377.822124 101.86715 
L 378.066777 103.425331 
L 378.31143 99.680113 
L 378.556083 92.826132 
L 378.800736 97.286218 
L 379.045389 94.911435 
L 379.290042 97.266741 
L 379.534695 97.380652 
L 379.779348 104.012395 
L 380.024001 95.333137 
L 380.268654 95.701557 
L 380.513307 97.110763 
L 380.75796 96.040154 
L 381.247266 89.041937 
L 381.491919 91.470231 
L 381.736572 90.220483 
L 381.981225 88.081829 
L 382.225878 87.90008 
L 382.470531 90.154452 
L 382.715184 86.965492 
L 382.959838 94.160199 
L 383.204491 94.5987 
L 383.449144 89.423403 
L 383.693797 93.303588 
L 383.93845 93.03521 
L 384.427756 90.814138 
L 384.672409 90.84213 
L 384.917062 92.783607 
L 385.161715 91.535987 
L 385.406368 90.951212 
L 385.651021 88.383212 
L 385.895674 110.686892 
L 386.140327 102.34408 
L 386.38498 99.011638 
L 386.629633 97.559266 
L 386.874286 92.320181 
L 387.118939 93.944896 
L 387.363592 104.697761 
L 387.608245 109.872097 
L 387.852898 112.568748 
L 387.852898 112.568748 
" style="fill:none;stroke:#1f77b4;stroke-linecap:square;stroke-width:1.5;"/>
   </g>
   <g id="line2d_32">
    <path clip-path="url(#p73bd1ae3f0)" d="M 63.198352 273.32693 
L 63.443005 274.796886 
L 63.687658 275.216873 
L 63.932311 276.176844 
L 64.421617 272.876943 
L 65.155576 270.147026 
L 65.400229 269.577043 
L 65.644882 269.517045 
L 66.134188 269.097057 
L 66.378841 267.537104 
L 66.623494 267.537104 
L 67.1128 268.287082 
L 67.357453 269.00706 
L 67.602106 270.387018 
L 68.091412 269.247053 
L 68.336066 269.757037 
L 68.580719 269.757037 
L 68.825372 270.057028 
L 69.070025 269.727038 
L 69.314678 270.65701 
L 69.559331 270.867004 
L 69.803984 268.407078 
L 70.048637 269.33705 
L 70.29329 268.707069 
L 70.537943 266.577133 
L 71.027249 265.047179 
L 71.271902 262.37726 
L 71.516555 265.377169 
L 72.250514 267.657101 
L 72.495167 268.227083 
L 72.73982 267.957092 
L 72.984473 269.66704 
L 73.229126 270.32702 
L 73.718432 267.777097 
L 73.963085 268.527074 
L 74.207738 268.857064 
L 74.452391 270.027029 
L 74.697044 269.877034 
L 74.941697 268.977061 
L 75.18635 267.597102 
L 75.431003 269.547044 
L 75.675656 270.297021 
L 75.920309 268.827065 
L 76.164962 264.3572 
L 76.409615 269.00706 
L 76.898921 265.377169 
L 77.143574 265.107177 
L 77.388227 265.107177 
L 77.63288 267.087118 
L 77.877533 271.916972 
L 78.122186 271.706979 
L 78.856145 274.286901 
L 79.100798 273.266932 
L 79.345451 275.516864 
L 79.590104 273.746917 
L 79.834757 268.887064 
L 80.07941 270.627011 
L 80.324063 270.507015 
L 80.568716 270.597012 
L 80.813369 271.406988 
L 81.058022 271.31699 
L 81.302675 272.816945 
L 81.547328 273.236933 
L 81.791981 272.906942 
L 82.036634 270.057028 
L 82.281287 270.477016 
L 82.770593 267.507105 
L 83.015246 267.297111 
L 83.259899 267.35711 
L 83.504552 266.637131 
L 83.749205 266.457137 
L 83.993858 266.877124 
L 84.238511 269.157055 
L 84.727817 271.256992 
L 85.461776 269.457046 
L 85.706429 268.227083 
L 85.951082 268.947062 
L 86.195735 270.65701 
L 86.685041 272.00697 
L 86.929694 272.096967 
L 87.174347 272.546953 
L 87.419 272.456956 
L 87.663653 274.136905 
L 87.908306 274.586892 
L 88.152959 276.086847 
L 88.397612 275.576862 
L 88.642265 276.326839 
L 88.886918 274.556893 
L 89.131571 274.796886 
L 89.376224 273.896913 
L 89.86553 276.206843 
L 90.110183 276.116846 
L 90.354836 275.216873 
L 90.599489 271.046998 
L 90.844143 271.586982 
L 91.088796 272.576952 
L 91.578102 269.547044 
L 91.822755 268.437077 
L 92.067408 265.227174 
L 92.312061 265.647161 
L 92.556714 267.897093 
L 92.801367 266.907123 
L 93.04602 270.32702 
L 93.290673 271.196994 
L 93.535326 270.597012 
L 93.779979 270.537014 
L 94.024632 270.147026 
L 94.269285 269.307051 
L 94.513938 269.967031 
L 95.247897 266.097148 
L 95.49255 262.737249 
L 95.737203 263.187235 
L 95.981856 262.587253 
L 96.471162 259.617343 
L 96.715815 260.667311 
L 97.205121 258.897364 
L 97.694427 258.867365 
L 97.93908 261.927273 
L 98.183733 262.107268 
L 98.428386 260.69731 
L 98.673039 262.197265 
L 98.917692 261.927273 
L 99.162345 262.01727 
L 99.406998 260.157326 
L 99.651651 259.407349 
L 99.896304 259.077359 
L 100.38561 255.417469 
L 100.630263 255.807457 
L 100.874916 256.827427 
L 101.119569 255.567465 
L 101.364222 255.117478 
L 101.608875 255.597464 
L 101.853528 256.767429 
L 102.098181 255.537466 
L 102.342834 253.587524 
L 102.587487 250.73761 
L 102.83214 251.247595 
L 103.076793 250.767609 
L 103.321446 251.247595 
L 103.566099 250.437619 
L 103.810752 251.577585 
L 104.055405 252.087569 
L 104.300058 253.167537 
L 104.544711 251.877576 
L 105.034017 252.507557 
L 105.767976 247.07772 
L 106.012629 247.527707 
L 106.257282 250.857606 
L 106.501935 249.267654 
L 106.746588 251.037601 
L 107.235894 247.197717 
L 107.7252 238.977964 
L 107.969853 240.417921 
L 108.214506 238.977964 
L 108.459159 240.44792 
L 108.703812 239.307954 
L 109.437771 241.827878 
L 109.682424 240.597915 
L 109.927077 240.807909 
L 110.17173 239.877937 
L 110.416383 239.45795 
L 110.661036 239.487949 
L 111.150342 239.877937 
L 111.394995 239.727942 
L 111.639648 239.427951 
L 111.884301 240.627915 
L 112.128954 238.527978 
L 112.373607 239.157959 
L 112.61826 236.878028 
L 112.862913 239.817939 
L 113.107566 241.347893 
L 113.35222 240.77791 
L 113.596873 242.09787 
L 113.841526 248.907665 
L 114.086179 247.7677 
L 114.330832 248.817668 
L 114.575485 247.827698 
L 114.820138 248.277684 
L 115.064791 249.957634 
L 115.309444 249.717641 
L 115.554097 247.257715 
L 115.79875 248.487678 
L 116.043403 248.157688 
L 116.288056 250.827607 
L 116.532709 249.297653 
L 116.777362 249.987633 
L 117.022015 249.327653 
L 117.266668 248.037691 
L 117.511321 247.617704 
L 117.755974 250.827607 
L 118.000627 249.237655 
L 118.24528 250.707611 
L 118.734586 249.867636 
L 118.979239 248.367681 
L 119.223892 247.7677 
L 119.468545 245.067781 
L 119.957851 244.167808 
L 120.202504 242.42786 
L 120.447157 242.127869 
L 120.69181 240.567916 
L 120.936463 241.407891 
L 121.425769 239.337953 
L 121.670422 239.907936 
L 121.915075 240.77791 
L 122.159728 244.167808 
L 122.404381 242.817849 
L 122.649034 246.117749 
L 123.13834 238.767971 
L 123.382993 240.897906 
L 123.872299 241.017903 
L 124.116952 240.807909 
L 124.361605 243.057841 
L 124.606258 244.257805 
L 124.850911 241.377892 
L 125.095564 241.287895 
L 125.340217 241.857878 
L 125.829523 244.467799 
L 126.074176 243.267835 
L 126.318829 244.377802 
L 126.563482 246.207747 
L 126.808135 245.187777 
L 127.052788 245.907756 
L 127.297441 247.137719 
L 127.542094 247.557706 
L 127.786747 247.587705 
L 128.0314 247.017722 
L 128.276053 247.977693 
L 128.520706 246.477738 
L 128.765359 243.927815 
L 129.010012 243.08784 
L 129.254665 245.577766 
L 129.499318 245.337773 
L 129.743971 245.367772 
L 129.988624 245.517767 
L 130.722583 239.577946 
L 130.967236 238.287985 
L 131.211889 237.778 
L 131.456542 240.747911 
L 131.701195 240.77791 
L 131.945848 242.75785 
L 132.190501 241.797879 
L 133.169113 234.358103 
L 133.413766 235.888057 
L 133.658419 236.698033 
L 133.903072 237.028023 
L 134.147725 238.557977 
L 134.881684 240.837908 
L 135.126337 239.397952 
L 135.615643 241.347893 
L 135.860297 239.967934 
L 136.349603 244.467799 
L 136.594256 244.287804 
L 137.083562 242.09787 
L 137.328215 242.697852 
L 137.572868 244.287804 
L 137.817521 243.957814 
L 138.306827 240.537917 
L 138.55148 233.098141 
L 138.796133 232.288166 
L 139.040786 232.048173 
L 139.285439 230.548218 
L 139.530092 226.108352 
L 139.774745 225.868359 
L 140.019398 222.118472 
L 140.264051 225.50837 
L 140.508704 227.308316 
L 140.753357 226.738333 
L 140.99801 225.538369 
L 141.242663 225.988355 
L 141.487316 225.388374 
L 141.731969 230.458221 
L 141.976622 230.81821 
L 142.221275 228.50828 
L 142.465928 228.50828 
L 142.710581 223.408433 
L 142.955234 224.068413 
L 143.199887 224.068413 
L 143.44454 226.018355 
L 143.689193 226.918327 
L 143.933846 226.558338 
L 144.178499 225.958356 
L 144.667805 221.488491 
L 145.157111 220.708514 
L 145.401764 220.798512 
L 145.646417 221.278497 
L 146.135723 226.048354 
L 146.380376 225.148381 
L 146.625029 226.978326 
L 146.869682 225.028384 
L 147.114335 225.50837 
L 147.358988 227.428312 
L 147.603641 227.8183 
L 147.848294 226.978326 
L 148.092947 228.328285 
L 148.3376 227.668305 
L 148.582253 224.908388 
L 148.826906 225.448372 
L 149.071559 224.788392 
L 149.316212 222.778452 
L 149.560865 221.908478 
L 149.805518 219.778542 
L 150.050171 219.058564 
L 150.294824 217.348616 
L 150.539477 217.228619 
L 151.273436 221.068504 
L 151.518089 220.918508 
L 151.762742 221.098503 
L 152.007395 223.318436 
L 152.252048 223.138441 
L 152.496701 225.50837 
L 152.741354 225.328375 
L 152.986007 225.448372 
L 153.23066 225.208379 
L 153.719966 226.82833 
L 153.964619 225.148381 
L 154.453925 228.448281 
L 154.698578 228.958266 
L 154.943231 226.348345 
L 155.187884 229.798241 
L 155.432537 228.538279 
L 155.67719 234.898087 
L 155.921843 238.017993 
L 156.166496 236.218047 
L 156.411149 235.978055 
L 156.655802 233.278136 
L 156.900455 231.988175 
L 157.145108 225.17838 
L 157.389761 225.148381 
L 157.634414 226.408343 
L 157.879067 223.49843 
L 158.12372 223.798421 
L 158.368374 223.378434 
L 158.613027 220.648516 
L 158.85768 219.448552 
L 159.102333 219.358555 
L 159.591639 218.218589 
L 159.836292 217.138622 
L 160.080945 217.168621 
L 160.325598 216.778633 
L 160.570251 218.308587 
L 160.814904 217.378615 
L 161.059557 217.768603 
L 161.30421 217.018626 
L 161.548863 217.948598 
L 161.793516 217.738604 
L 162.038169 218.758573 
L 162.527475 218.338586 
L 162.772128 218.278588 
L 163.016781 217.378615 
L 163.261434 217.078624 
L 163.506087 218.038595 
L 163.995393 216.658636 
L 164.729352 218.84857 
L 164.974005 218.728574 
L 165.707964 213.088744 
L 165.952617 213.388735 
L 166.19727 214.948688 
L 166.686576 218.698575 
L 166.931229 218.578579 
L 167.175882 216.988627 
L 167.665188 221.368495 
L 167.909841 221.308496 
L 168.154494 221.818481 
L 168.399147 220.708514 
L 168.888453 215.278678 
L 169.377759 217.138622 
L 169.622412 217.408614 
L 169.867065 218.098593 
L 170.111718 215.188681 
L 170.356371 216.718635 
L 170.601024 216.478642 
L 170.845677 215.278678 
L 171.09033 214.948688 
L 171.334983 215.698665 
L 171.579636 216.088654 
L 172.068942 216.448643 
L 172.558248 215.488672 
L 172.802901 215.758664 
L 173.047554 217.408614 
L 173.292207 220.138532 
L 173.53686 219.688545 
L 173.781513 220.648516 
L 174.026166 222.238468 
L 174.270819 221.158501 
L 174.515472 221.158501 
L 174.760125 220.708514 
L 175.004778 221.668486 
L 175.249431 222.088473 
L 175.494084 222.208469 
L 175.738737 221.158501 
L 175.98339 225.718364 
L 176.228043 227.8183 
L 176.717349 224.908388 
L 176.962002 225.688365 
L 177.206655 223.018445 
L 177.451308 222.988446 
L 177.695961 223.52843 
L 177.940614 224.878389 
L 178.185267 225.088383 
L 178.42992 225.658365 
L 178.674573 225.028384 
L 178.919226 225.118382 
L 179.163879 224.938387 
L 179.408532 224.308406 
L 179.653185 220.948507 
L 179.897838 221.668486 
L 180.142491 223.108442 
L 180.387144 223.708424 
L 180.631798 222.50846 
L 180.876451 223.108442 
L 181.121104 220.798512 
L 181.365757 221.308496 
L 181.61041 219.898539 
L 181.855063 221.51849 
L 182.099716 221.51849 
L 182.344369 219.928538 
L 182.589022 221.068504 
L 182.833675 219.088563 
L 183.078328 219.778542 
L 183.322981 221.668486 
L 183.567634 224.608397 
L 184.05694 222.628457 
L 184.301593 226.918327 
L 184.546246 227.308316 
L 184.790899 228.748272 
L 185.035552 226.858329 
L 185.769511 230.188229 
L 186.014164 230.188229 
L 186.258817 232.408162 
L 186.50347 233.458131 
L 186.748123 233.15814 
L 187.237429 231.448191 
L 187.482082 233.218138 
L 187.726735 231.058203 
L 187.971388 230.578217 
L 188.216041 231.508189 
L 188.460694 231.298196 
L 188.705347 229.228258 
L 188.95 229.888238 
L 189.194653 227.48831 
L 189.928612 224.458402 
L 190.173265 224.84839 
L 190.417918 224.128411 
L 190.662571 225.568368 
L 190.907224 225.478371 
L 191.151877 225.898358 
L 191.39653 224.278407 
L 191.641183 224.278407 
L 192.130489 220.708514 
L 192.375142 220.19853 
L 192.619795 220.258528 
L 192.864448 221.248498 
L 193.109101 221.098503 
L 193.353754 220.588518 
L 193.84306 221.638486 
L 194.087713 221.938477 
L 194.332366 220.948507 
L 194.821672 219.898539 
L 195.310978 223.438432 
L 195.555631 217.408614 
L 195.800284 218.308587 
L 196.044937 216.268648 
L 196.28959 217.108623 
L 196.534243 217.288617 
L 196.778896 217.708605 
L 197.023549 216.478642 
L 197.268202 215.998656 
L 197.757508 217.978597 
L 198.002161 215.698665 
L 198.246814 217.708605 
L 198.491467 217.258618 
L 198.73612 218.278588 
L 198.980773 217.768603 
L 199.225426 219.268558 
L 199.470079 219.628547 
L 199.714732 220.708514 
L 199.959385 212.728755 
L 200.204038 209.098864 
L 200.448691 211.528791 
L 200.693344 209.818842 
L 200.937997 209.458853 
L 201.18265 210.328827 
L 201.427303 209.068865 
L 201.671956 209.398855 
L 201.916609 210.718815 
L 202.161262 209.668847 
L 202.405915 209.338857 
L 202.650568 210.178832 
L 203.139875 207.8989 
L 203.384528 208.318888 
L 203.629181 211.018806 
L 203.873834 212.248769 
L 204.118487 209.848842 
L 204.36314 217.318617 
L 204.607793 220.19853 
L 204.852446 213.148742 
L 205.097099 213.89872 
L 205.341752 213.86872 
L 205.586405 212.728755 
L 205.831058 212.188771 
L 206.075711 212.278768 
L 206.80967 204.658998 
L 207.054323 209.878841 
L 207.298976 209.878841 
L 207.788282 212.008776 
L 208.032935 210.56882 
L 208.277588 212.608758 
L 208.522241 213.148742 
L 208.766894 215.608668 
L 209.011547 213.358736 
L 209.2562 214.078714 
L 209.500853 213.658727 
L 210.234812 207.178922 
L 210.479465 218.368585 
L 210.724118 219.268558 
L 210.968771 216.598638 
L 211.213424 216.508641 
L 211.70273 214.5587 
L 211.947383 217.168621 
L 212.436689 217.348616 
L 212.681342 216.86863 
L 212.925995 219.028565 
L 213.415301 217.258618 
L 213.659954 222.598458 
L 214.14926 226.528339 
L 214.393913 225.658365 
L 214.638566 226.378344 
L 214.883219 224.638396 
L 215.127872 226.018355 
L 215.617178 220.738514 
L 215.861831 217.438613 
L 216.106484 217.708605 
L 216.351137 218.308587 
L 216.59579 217.108623 
L 216.840443 214.948688 
L 217.085096 217.498611 
L 217.329749 218.158591 
L 217.574402 213.808722 
L 217.819055 212.518761 
L 218.308361 215.038685 
L 218.553014 203.279039 
L 218.797667 197.429216 
L 219.04232 198.659179 
L 219.531626 194.069317 
L 220.020932 195.899262 
L 220.265585 196.919231 
L 220.510238 196.769235 
L 220.754891 196.199253 
L 221.244197 196.019258 
L 221.48885 194.759296 
L 221.733503 195.329279 
L 221.978156 192.809355 
L 222.467462 194.96929 
L 222.712115 194.96929 
L 222.956768 197.309219 
L 223.201421 196.349248 
L 223.690727 199.529152 
L 223.93538 197.159224 
L 224.180033 200.069136 
L 224.424686 197.759206 
L 224.669339 197.459215 
L 224.913992 197.969199 
L 225.158645 198.959169 
L 225.403298 199.019168 
L 225.647952 198.119195 
L 225.892605 197.789205 
L 226.137258 200.219132 
L 226.381911 200.60912 
L 226.626564 199.169163 
L 226.871217 194.549302 
L 227.360523 190.889413 
L 227.605176 191.909382 
L 227.849829 189.809445 
L 228.094482 191.429396 
L 228.339135 190.139435 
L 228.583788 189.62945 
L 228.828441 189.599451 
L 229.073094 190.619421 
L 229.5624 187.799506 
L 229.807053 184.109617 
L 230.051706 184.589602 
L 230.296359 159.780349 
L 230.541012 161.610294 
L 230.785665 167.07013 
L 231.030318 167.130128 
L 231.274971 167.430119 
L 231.519624 169.260064 
L 231.764277 168.930074 
L 232.00893 170.610023 
L 232.253583 169.890045 
L 232.498236 167.280124 
L 232.742889 168.690081 
L 232.987542 171.71999 
L 233.232195 171.090009 
L 233.476848 168.900075 
L 233.721501 168.600084 
L 233.966154 166.260154 
L 234.210807 169.38006 
L 234.45546 170.940013 
L 234.700113 166.350152 
L 234.944766 165.09019 
L 235.189419 166.350152 
L 235.434072 166.770139 
L 235.678725 166.890135 
L 235.923378 164.610204 
L 236.168031 163.560236 
L 236.412684 165.720171 
L 236.657337 165.06019 
L 236.90199 164.910195 
L 237.146643 165.870166 
L 237.391296 165.09019 
L 237.635949 165.75017 
L 237.880602 163.920225 
L 238.125255 165.690171 
L 238.369908 165.600174 
L 238.614561 165.240185 
L 238.859214 166.110159 
L 239.34852 162.450269 
L 239.593173 163.800228 
L 239.837826 163.590235 
L 240.082479 163.140248 
L 240.571785 155.79047 
L 241.550397 147.240727 
L 241.79505 147.000734 
L 242.039703 149.190668 
L 242.284356 155.46048 
L 242.529009 157.890406 
L 242.773662 154.920496 
L 243.018315 154.500508 
L 243.262968 154.710502 
L 243.507621 153.78053 
L 243.752274 151.110611 
L 243.996927 154.44051 
L 244.486233 147.600716 
L 244.730886 146.190759 
L 244.975539 148.050703 
L 245.220192 147.000734 
L 245.464845 147.510719 
L 245.709498 132.811162 
L 245.954151 141.000915 
L 246.443457 144.420812 
L 246.68811 143.340845 
L 246.932763 143.730833 
L 247.177416 143.550838 
L 247.422069 139.980946 
L 247.666722 142.290876 
L 248.156029 149.040673 
L 248.400682 145.770771 
L 248.645335 144.540808 
L 248.889988 151.4706 
L 249.134641 150.030643 
L 249.379294 143.730833 
L 249.623947 144.870798 
L 249.8686 143.790831 
L 250.113253 140.610927 
L 250.357906 140.130941 
L 250.602559 140.400933 
L 250.847212 141.120911 
L 251.091865 143.520839 
L 251.336518 148.680684 
L 251.581171 156.720442 
L 251.825824 168.72008 
L 252.070477 167.670112 
L 252.31513 163.890226 
L 252.559783 156.840438 
L 252.804436 155.730471 
L 253.049089 158.490388 
L 253.293742 164.700201 
L 253.783048 151.680593 
L 254.027701 156.150459 
L 254.272354 153.390542 
L 254.517007 156.420451 
L 255.250966 149.520658 
L 255.740272 141.5109 
L 255.984925 149.730652 
L 256.229578 151.080611 
L 256.474231 150.690623 
L 256.718884 155.610475 
L 256.963537 156.12046 
L 257.20819 158.310394 
L 257.452843 157.410421 
L 257.697496 165.870166 
L 257.942149 164.190217 
L 258.431455 167.220125 
L 258.676108 168.180096 
L 258.920761 161.340302 
L 259.165414 163.680232 
L 259.899373 159.210367 
L 260.144026 158.940375 
L 260.388679 159.870347 
L 260.633332 161.250305 
L 260.877985 156.270455 
L 261.122638 148.920676 
L 261.367291 165.720171 
L 261.856597 160.290334 
L 262.345903 145.650775 
L 262.590556 147.330724 
L 263.079862 147.720713 
L 263.324515 149.010674 
L 263.569168 151.770591 
L 263.813821 150.540628 
L 264.058474 150.570627 
L 264.303127 151.230607 
L 264.54778 151.080611 
L 264.792433 147.540718 
L 265.037086 147.090732 
L 265.281739 142.83086 
L 266.015698 154.230517 
L 266.260351 154.950495 
L 266.505004 157.980404 
L 266.749657 155.550477 
L 266.99431 155.46048 
L 267.238963 155.79047 
L 267.483616 156.690442 
L 267.728269 155.220487 
L 267.972922 152.880557 
L 268.217575 156.150459 
L 268.462228 162.990253 
L 268.706881 162.870256 
L 268.951534 164.7302 
L 269.44084 176.129857 
L 269.685493 175.70987 
L 269.930146 172.799957 
L 270.174799 177.02983 
L 270.419452 177.599813 
L 270.664106 177.149826 
L 270.908759 174.6899 
L 271.398065 174.629902 
L 271.642718 183.089647 
L 272.132024 186.32955 
L 272.376677 181.949682 
L 272.865983 179.399759 
L 273.110636 179.309761 
L 273.355289 176.969832 
L 273.599942 179.759748 
L 273.844595 180.179735 
L 274.089248 181.379699 
L 274.578554 172.589964 
L 275.06786 178.139796 
L 275.312513 172.229974 
L 275.557166 169.770049 
L 275.801819 176.819836 
L 276.291125 166.050161 
L 276.535778 170.910014 
L 276.780431 173.069949 
L 277.025084 166.41015 
L 277.269737 163.530236 
L 277.51439 169.530056 
L 277.759043 165.270184 
L 278.003696 168.780078 
L 278.248349 165.210186 
L 278.493002 159.42036 
L 278.737655 160.950314 
L 279.226961 157.260425 
L 279.471614 154.560507 
L 279.716267 159.960344 
L 279.96092 156.930435 
L 280.205573 166.440149 
L 280.450226 165.75017 
L 280.694879 173.579934 
L 280.939532 172.019981 
L 281.428838 166.110159 
L 281.673491 165.450179 
L 281.918144 166.020161 
L 282.162797 158.640384 
L 282.40745 158.730381 
L 282.652103 155.010493 
L 283.141409 152.910556 
L 283.386062 152.820559 
L 283.630715 154.650504 
L 284.120021 145.440781 
L 284.364674 145.590777 
L 284.609327 148.530688 
L 284.85398 146.460751 
L 285.098633 146.520749 
L 285.343286 148.260696 
L 285.587939 148.440691 
L 285.832592 148.320695 
L 286.077245 147.060732 
L 286.321898 146.82074 
L 286.566551 147.090732 
L 286.811204 146.430751 
L 287.055857 146.790741 
L 287.30051 148.710683 
L 287.545163 148.020704 
L 287.789816 148.050703 
L 288.034469 150.360633 
L 288.279122 147.900707 
L 288.523775 147.570717 
L 288.768428 146.610746 
L 289.013081 141.960886 
L 289.257734 144.690804 
L 289.502387 143.16085 
L 289.74704 148.860678 
L 289.991693 143.040854 
L 290.236346 146.880738 
L 290.480999 145.980765 
L 290.725652 143.910827 
L 290.970305 139.440962 
L 291.214958 137.761013 
L 291.459611 138.270997 
L 291.704264 135.031095 
L 291.948917 120.721526 
L 292.19357 121.201511 
L 292.438223 122.761464 
L 292.682876 121.861491 
L 292.92753 119.971548 
L 293.172183 120.541531 
L 293.416836 119.371566 
L 293.661489 120.781524 
L 293.906142 126.301358 
L 294.150795 128.341296 
L 294.395448 125.491382 
L 295.129407 131.611198 
L 295.618713 123.931429 
L 295.863366 123.271449 
L 296.108019 128.761284 
L 296.352672 126.361356 
L 296.597325 126.931339 
L 296.841978 125.88137 
L 297.086631 128.371295 
L 297.331284 127.56132 
L 297.575937 127.651317 
L 297.82059 129.091274 
L 298.065243 127.351326 
L 298.309896 122.101484 
L 298.554549 121.981488 
L 298.799202 122.011487 
L 299.043855 120.421535 
L 299.288508 120.391536 
L 299.533161 120.90152 
L 299.777814 122.071485 
L 300.022467 124.8914 
L 300.26712 123.541441 
L 300.511773 121.411505 
L 300.756426 120.931519 
L 301.001079 121.051516 
L 301.490385 127.081334 
L 301.735038 125.941369 
L 301.979691 124.201421 
L 302.224344 124.591409 
L 302.468997 126.001367 
L 302.71365 123.811433 
L 302.958303 124.801403 
L 303.202956 124.651407 
L 303.447609 123.661437 
L 303.692262 135.151091 
L 303.936915 140.430932 
L 304.181568 133.981126 
L 304.426221 133.051154 
L 304.670874 130.291238 
L 304.915527 130.561229 
L 305.16018 135.271088 
L 305.404833 133.231149 
L 305.649486 132.931158 
L 305.894139 128.131303 
L 306.383445 123.511442 
L 306.628098 125.641378 
L 306.872751 126.481352 
L 307.117404 125.761374 
L 307.362057 142.800861 
L 307.60671 139.020975 
L 307.851363 138.270997 
L 308.340669 141.060913 
L 308.585322 138.810981 
L 308.829975 139.620957 
L 309.319281 139.290966 
L 309.563934 138.570988 
L 309.808587 139.200969 
L 310.05324 141.060913 
L 310.297893 139.83095 
L 310.542546 140.550929 
L 310.787199 136.591048 
L 311.031852 137.041034 
L 311.276505 137.731013 
L 311.765811 133.711135 
L 312.010464 135.001096 
L 312.255117 136.891039 
L 312.49977 139.710954 
L 312.744423 139.080973 
L 312.989076 140.250938 
L 313.478382 140.100942 
L 313.723035 135.84107 
L 313.967688 138.630986 
L 314.212341 139.800951 
L 314.456994 138.181 
L 314.701647 137.491021 
L 314.9463 135.601078 
L 315.190953 137.041034 
L 315.435607 137.401023 
L 315.68026 133.53114 
L 315.924913 134.131122 
L 316.169566 134.341116 
L 316.658872 142.470871 
L 316.903525 142.380873 
L 317.148178 148.560687 
L 317.392831 149.100671 
L 317.637484 149.010674 
L 317.882137 150.45063 
L 318.371443 150.150639 
L 318.616096 145.350784 
L 318.860749 144.060823 
L 319.105402 141.780891 
L 319.350055 144.15082 
L 319.594708 142.650865 
L 320.084014 144.090822 
L 320.328667 144.270817 
L 320.57332 140.640926 
L 320.817973 141.000915 
L 321.307279 140.82092 
L 321.551932 144.360814 
L 321.796585 142.920857 
L 322.530544 152.400572 
L 322.775197 153.78053 
L 323.01985 136.801041 
L 323.264503 137.911008 
L 323.509156 139.560958 
L 323.753809 134.8511 
L 323.998462 133.831131 
L 324.243115 130.621228 
L 324.732421 134.641107 
L 324.977074 133.831131 
L 325.221727 132.451172 
L 325.46638 132.031185 
L 325.955686 139.080973 
L 326.200339 138.420993 
L 326.444992 138.900978 
L 326.689645 134.371115 
L 326.934298 132.361175 
L 327.178951 131.971187 
L 327.423604 130.561229 
L 327.668257 128.491292 
L 327.91291 120.661528 
L 328.157563 125.971368 
L 328.402216 126.301358 
L 328.646869 124.411415 
L 328.891522 129.421264 
L 329.136175 125.371386 
L 329.625481 121.5915 
L 329.870134 118.441594 
L 330.114787 125.911369 
L 330.35944 122.401475 
L 330.848746 129.87125 
L 331.093399 130.321237 
L 331.338052 129.121273 
L 331.582705 128.941278 
L 331.827358 122.701466 
L 332.072011 122.071485 
L 332.316664 124.23142 
L 332.561317 124.56141 
L 333.050623 127.021336 
L 333.539929 139.650956 
L 333.784582 142.800861 
L 334.029235 139.350965 
L 334.763194 147.180729 
L 335.007847 147.660714 
L 335.2525 149.400662 
L 335.497153 148.47069 
L 335.741806 148.890677 
L 336.475765 131.131212 
L 336.720418 133.651136 
L 336.965071 134.461112 
L 337.209724 133.681135 
L 337.454377 134.821101 
L 337.69903 131.911189 
L 337.943684 130.681226 
L 338.188337 126.751344 
L 338.677643 130.951218 
L 338.922296 130.291238 
L 339.166949 130.501231 
L 339.656255 121.981488 
L 339.900908 137.731013 
L 340.390214 132.151182 
L 340.634867 134.731104 
L 340.87952 135.871069 
L 341.368826 134.371115 
L 341.613479 99.33217 
L 341.858132 97.32223 
L 342.347438 89.04248 
L 342.592091 89.37247 
L 342.836744 87.872515 
L 343.081397 88.862485 
L 343.32605 88.742489 
L 343.570703 89.342471 
L 343.815356 86.762548 
L 344.060009 85.622583 
L 344.304662 85.802577 
L 344.549315 91.112417 
L 344.793968 88.922483 
L 345.038621 89.672461 
L 345.283274 91.652401 
L 345.527927 88.472497 
L 345.77258 89.672461 
L 346.017233 89.012481 
L 346.261886 91.142417 
L 346.751192 90.122447 
L 346.995845 90.212445 
L 347.240498 89.852455 
L 347.485151 89.192475 
L 347.729804 87.72252 
L 347.974457 83.73264 
L 348.21911 84.542615 
L 348.463763 81.512707 
L 348.708416 80.612734 
L 348.953069 85.982572 
L 349.197722 85.922574 
L 349.442375 82.472678 
L 349.687028 82.352681 
L 349.931681 85.112598 
L 350.420987 83.312652 
L 350.66564 83.522646 
L 350.910293 82.802668 
L 351.154946 83.492647 
L 351.644252 92.582373 
L 351.888905 92.972361 
L 352.133558 95.0123 
L 352.378211 94.922303 
L 352.622864 93.392349 
L 352.867517 92.882364 
L 353.11217 95.762277 
L 353.356823 94.772307 
L 353.846129 95.732278 
L 354.090782 94.232323 
L 354.335435 94.172325 
L 354.580088 77.162838 
L 354.824741 77.552826 
L 355.314047 80.702731 
L 355.5587 84.932604 
L 355.803353 85.922574 
L 356.048006 83.252654 
L 356.292659 85.022601 
L 356.537312 84.152627 
L 356.781965 81.662702 
L 357.026618 83.012661 
L 357.271271 78.692791 
L 357.515924 76.802848 
L 357.760577 78.122809 
L 358.00523 78.152808 
L 358.249883 78.392801 
L 358.494536 79.202776 
L 358.739189 83.852636 
L 358.983842 83.672642 
L 359.228495 79.112779 
L 359.473148 78.482798 
L 359.717801 79.322773 
L 359.962454 70.383042 
L 360.207107 69.753061 
L 360.696414 69.543067 
L 361.430373 60.783331 
L 361.675026 58.863389 
L 361.919679 58.263407 
L 362.164332 57.063443 
L 362.408985 56.733453 
L 362.653638 58.563398 
L 362.898291 56.943446 
L 363.142944 51.963596 
L 363.387597 54.333525 
L 363.63225 55.293496 
L 363.876903 53.343555 
L 364.121556 48.363705 
L 364.366209 48.123712 
L 364.610862 48.603698 
L 364.855515 50.85363 
L 365.100168 46.53376 
L 365.344821 46.743754 
L 365.589474 51.003625 
L 365.834127 49.803662 
L 366.07878 52.083593 
L 366.323433 47.733724 
L 366.568086 50.043654 
L 366.812739 46.263768 
L 367.057392 48.903689 
L 367.302045 46.473762 
L 367.791351 45.363795 
L 368.036004 43.353856 
L 368.280657 47.043745 
L 368.52531 42.843871 
L 368.769963 43.743844 
L 369.259269 40.143952 
L 369.748575 34.414125 
L 369.993228 67.263136 
L 370.237881 63.303255 
L 370.482534 63.963235 
L 370.727187 62.343284 
L 370.97184 65.043203 
L 371.461146 64.413222 
L 371.950452 70.44304 
L 372.439758 73.202957 
L 373.173717 88.802487 
L 373.41837 89.612463 
L 373.663023 87.542525 
L 373.907676 87.272533 
L 374.152329 85.38259 
L 374.641635 95.732278 
L 374.886288 97.742218 
L 375.130941 98.612192 
L 375.375594 100.502135 
L 375.620247 97.112237 
L 375.8649 96.66225 
L 376.109553 98.372199 
L 376.354206 97.772217 
L 376.598859 96.422258 
L 376.843512 87.512526 
L 377.088165 87.242534 
L 377.577471 101.282111 
L 377.822124 104.252022 
L 378.31143 94.862305 
L 378.556083 97.502225 
L 378.800736 94.382319 
L 379.045389 97.052239 
L 379.290042 97.742218 
L 379.534695 102.542073 
L 379.779348 97.292231 
L 380.024001 95.702279 
L 380.268654 97.742218 
L 380.513307 93.842335 
L 380.75796 92.462377 
L 381.002613 90.002451 
L 381.491919 91.232414 
L 381.736572 89.252473 
L 381.981225 89.312472 
L 382.225878 89.552464 
L 382.470531 89.222474 
L 382.715184 92.522375 
L 382.959838 93.482346 
L 383.204491 92.402379 
L 383.449144 93.69234 
L 383.693797 92.432378 
L 384.183103 92.402379 
L 384.427756 90.872425 
L 384.672409 92.582373 
L 384.917062 92.102388 
L 385.161715 92.252383 
L 385.406368 87.69252 
L 385.651021 113.011758 
L 385.895674 103.382048 
L 386.140327 99.062178 
L 386.38498 97.472226 
L 386.629633 90.842426 
L 386.874286 95.852275 
L 387.363592 110.851823 
L 387.608245 113.431745 
L 387.852898 110.191843 
L 387.852898 110.191843 
" style="fill:none;stroke:#ff7f0e;stroke-linecap:square;stroke-width:1.5;"/>
   </g>
   <g id="patch_3">
    <path d="M 46.965625 288.430125 
L 46.965625 22.318125 
" style="fill:none;stroke:#000000;stroke-linecap:square;stroke-linejoin:miter;stroke-width:0.8;"/>
   </g>
   <g id="patch_4">
    <path d="M 404.085625 288.430125 
L 404.085625 22.318125 
" style="fill:none;stroke:#000000;stroke-linecap:square;stroke-linejoin:miter;stroke-width:0.8;"/>
   </g>
   <g id="patch_5">
    <path d="M 46.965625 288.430125 
L 404.085625 288.430125 
" style="fill:none;stroke:#000000;stroke-linecap:square;stroke-linejoin:miter;stroke-width:0.8;"/>
   </g>
   <g id="patch_6">
    <path d="M 46.965625 22.318125 
L 404.085625 22.318125 
" style="fill:none;stroke:#000000;stroke-linecap:square;stroke-linejoin:miter;stroke-width:0.8;"/>
   </g>
   <g id="text_18">
    <!-- Training: HAS -->
    <defs>
     <path d="M -0.296875 72.90625 
L 61.375 72.90625 
L 61.375 64.59375 
L 35.5 64.59375 
L 35.5 0 
L 25.59375 0 
L 25.59375 64.59375 
L -0.296875 64.59375 
z
" id="DejaVuSans-84"/>
     <path d="M 54.890625 33.015625 
L 54.890625 0 
L 45.90625 0 
L 45.90625 32.71875 
Q 45.90625 40.484375 42.875 44.328125 
Q 39.84375 48.1875 33.796875 48.1875 
Q 26.515625 48.1875 22.3125 43.546875 
Q 18.109375 38.921875 18.109375 30.90625 
L 18.109375 0 
L 9.078125 0 
L 9.078125 54.6875 
L 18.109375 54.6875 
L 18.109375 46.1875 
Q 21.34375 51.125 25.703125 53.5625 
Q 30.078125 56 35.796875 56 
Q 45.21875 56 50.046875 50.171875 
Q 54.890625 44.34375 54.890625 33.015625 
z
" id="DejaVuSans-110"/>
     <path d="M 45.40625 27.984375 
Q 45.40625 37.75 41.375 43.109375 
Q 37.359375 48.484375 30.078125 48.484375 
Q 22.859375 48.484375 18.828125 43.109375 
Q 14.796875 37.75 14.796875 27.984375 
Q 14.796875 18.265625 18.828125 12.890625 
Q 22.859375 7.515625 30.078125 7.515625 
Q 37.359375 7.515625 41.375 12.890625 
Q 45.40625 18.265625 45.40625 27.984375 
z
M 54.390625 6.78125 
Q 54.390625 -7.171875 48.1875 -13.984375 
Q 42 -20.796875 29.203125 -20.796875 
Q 24.46875 -20.796875 20.265625 -20.09375 
Q 16.0625 -19.390625 12.109375 -17.921875 
L 12.109375 -9.1875 
Q 16.0625 -11.328125 19.921875 -12.34375 
Q 23.78125 -13.375 27.78125 -13.375 
Q 36.625 -13.375 41.015625 -8.765625 
Q 45.40625 -4.15625 45.40625 5.171875 
L 45.40625 9.625 
Q 42.625 4.78125 38.28125 2.390625 
Q 33.9375 0 27.875 0 
Q 17.828125 0 11.671875 7.65625 
Q 5.515625 15.328125 5.515625 27.984375 
Q 5.515625 40.671875 11.671875 48.328125 
Q 17.828125 56 27.875 56 
Q 33.9375 56 38.28125 53.609375 
Q 42.625 51.21875 45.40625 46.390625 
L 45.40625 54.6875 
L 54.390625 54.6875 
z
" id="DejaVuSans-103"/>
     <path d="M 11.71875 12.40625 
L 22.015625 12.40625 
L 22.015625 0 
L 11.71875 0 
z
M 11.71875 51.703125 
L 22.015625 51.703125 
L 22.015625 39.3125 
L 11.71875 39.3125 
z
" id="DejaVuSans-58"/>
     <path d="M 9.8125 72.90625 
L 19.671875 72.90625 
L 19.671875 43.015625 
L 55.515625 43.015625 
L 55.515625 72.90625 
L 65.375 72.90625 
L 65.375 0 
L 55.515625 0 
L 55.515625 34.71875 
L 19.671875 34.71875 
L 19.671875 0 
L 9.8125 0 
z
" id="DejaVuSans-72"/>
     <path d="M 34.1875 63.1875 
L 20.796875 26.90625 
L 47.609375 26.90625 
z
M 28.609375 72.90625 
L 39.796875 72.90625 
L 67.578125 0 
L 57.328125 0 
L 50.6875 18.703125 
L 17.828125 18.703125 
L 11.1875 0 
L 0.78125 0 
z
" id="DejaVuSans-65"/>
     <path d="M 53.515625 70.515625 
L 53.515625 60.890625 
Q 47.90625 63.578125 42.921875 64.890625 
Q 37.9375 66.21875 33.296875 66.21875 
Q 25.25 66.21875 20.875 63.09375 
Q 16.5 59.96875 16.5 54.203125 
Q 16.5 49.359375 19.40625 46.890625 
Q 22.3125 44.4375 30.421875 42.921875 
L 36.375 41.703125 
Q 47.40625 39.59375 52.65625 34.296875 
Q 57.90625 29 57.90625 20.125 
Q 57.90625 9.515625 50.796875 4.046875 
Q 43.703125 -1.421875 29.984375 -1.421875 
Q 24.8125 -1.421875 18.96875 -0.25 
Q 13.140625 0.921875 6.890625 3.21875 
L 6.890625 13.375 
Q 12.890625 10.015625 18.65625 8.296875 
Q 24.421875 6.59375 29.984375 6.59375 
Q 38.421875 6.59375 43.015625 9.90625 
Q 47.609375 13.234375 47.609375 19.390625 
Q 47.609375 24.75 44.3125 27.78125 
Q 41.015625 30.8125 33.5 32.328125 
L 27.484375 33.5 
Q 16.453125 35.6875 11.515625 40.375 
Q 6.59375 45.0625 6.59375 53.421875 
Q 6.59375 63.09375 13.40625 68.65625 
Q 20.21875 74.21875 32.171875 74.21875 
Q 37.3125 74.21875 42.625 73.28125 
Q 47.953125 72.359375 53.515625 70.515625 
z
" id="DejaVuSans-83"/>
    </defs>
    <g transform="translate(185.500938 16.318125)scale(0.12 -0.12)">
     <use xlink:href="#DejaVuSans-84"/>
     <use x="46.333984" xlink:href="#DejaVuSans-114"/>
     <use x="87.447266" xlink:href="#DejaVuSans-97"/>
     <use x="148.726562" xlink:href="#DejaVuSans-105"/>
     <use x="176.509766" xlink:href="#DejaVuSans-110"/>
     <use x="239.888672" xlink:href="#DejaVuSans-105"/>
     <use x="267.671875" xlink:href="#DejaVuSans-110"/>
     <use x="331.050781" xlink:href="#DejaVuSans-103"/>
     <use x="394.527344" xlink:href="#DejaVuSans-58"/>
     <use x="428.21875" xlink:href="#DejaVuSans-32"/>
     <use x="460.005859" xlink:href="#DejaVuSans-72"/>
     <use x="535.201172" xlink:href="#DejaVuSans-65"/>
     <use x="603.609375" xlink:href="#DejaVuSans-83"/>
    </g>
   </g>
   <g id="legend_1">
    <g id="patch_7">
     <path d="M 53.965625 59.674375 
L 137.69375 59.674375 
Q 139.69375 59.674375 139.69375 57.674375 
L 139.69375 29.318125 
Q 139.69375 27.318125 137.69375 27.318125 
L 53.965625 27.318125 
Q 51.965625 27.318125 51.965625 29.318125 
L 51.965625 57.674375 
Q 51.965625 59.674375 53.965625 59.674375 
z
" style="fill:#ffffff;opacity:0.8;stroke:#cccccc;stroke-linejoin:miter;"/>
    </g>
    <g id="line2d_33">
     <path d="M 55.965625 35.416562 
L 75.965625 35.416562 
" style="fill:none;stroke:#1f77b4;stroke-linecap:square;stroke-width:1.5;"/>
    </g>
    <g id="line2d_34"/>
    <g id="text_19">
     <!-- Predicted -->
     <defs>
      <path d="M 45.40625 46.390625 
L 45.40625 75.984375 
L 54.390625 75.984375 
L 54.390625 0 
L 45.40625 0 
L 45.40625 8.203125 
Q 42.578125 3.328125 38.25 0.953125 
Q 33.9375 -1.421875 27.875 -1.421875 
Q 17.96875 -1.421875 11.734375 6.484375 
Q 5.515625 14.40625 5.515625 27.296875 
Q 5.515625 40.1875 11.734375 48.09375 
Q 17.96875 56 27.875 56 
Q 33.9375 56 38.25 53.625 
Q 42.578125 51.265625 45.40625 46.390625 
z
M 14.796875 27.296875 
Q 14.796875 17.390625 18.875 11.75 
Q 22.953125 6.109375 30.078125 6.109375 
Q 37.203125 6.109375 41.296875 11.75 
Q 45.40625 17.390625 45.40625 27.296875 
Q 45.40625 37.203125 41.296875 42.84375 
Q 37.203125 48.484375 30.078125 48.484375 
Q 22.953125 48.484375 18.875 42.84375 
Q 14.796875 37.203125 14.796875 27.296875 
z
" id="DejaVuSans-100"/>
      <path d="M 18.3125 70.21875 
L 18.3125 54.6875 
L 36.8125 54.6875 
L 36.8125 47.703125 
L 18.3125 47.703125 
L 18.3125 18.015625 
Q 18.3125 11.328125 20.140625 9.421875 
Q 21.96875 7.515625 27.59375 7.515625 
L 36.8125 7.515625 
L 36.8125 0 
L 27.59375 0 
Q 17.1875 0 13.234375 3.875 
Q 9.28125 7.765625 9.28125 18.015625 
L 9.28125 47.703125 
L 2.6875 47.703125 
L 2.6875 54.6875 
L 9.28125 54.6875 
L 9.28125 70.21875 
z
" id="DejaVuSans-116"/>
     </defs>
     <g transform="translate(83.965625 38.916562)scale(0.1 -0.1)">
      <use xlink:href="#DejaVuSans-80"/>
      <use x="58.552734" xlink:href="#DejaVuSans-114"/>
      <use x="97.416016" xlink:href="#DejaVuSans-101"/>
      <use x="158.939453" xlink:href="#DejaVuSans-100"/>
      <use x="222.416016" xlink:href="#DejaVuSans-105"/>
      <use x="250.199219" xlink:href="#DejaVuSans-99"/>
      <use x="305.179688" xlink:href="#DejaVuSans-116"/>
      <use x="344.388672" xlink:href="#DejaVuSans-101"/>
      <use x="405.912109" xlink:href="#DejaVuSans-100"/>
     </g>
    </g>
    <g id="line2d_35">
     <path d="M 55.965625 50.094687 
L 75.965625 50.094687 
" style="fill:none;stroke:#ff7f0e;stroke-linecap:square;stroke-width:1.5;"/>
    </g>
    <g id="line2d_36"/>
    <g id="text_20">
     <!-- True value -->
     <defs>
      <path d="M 8.5 21.578125 
L 8.5 54.6875 
L 17.484375 54.6875 
L 17.484375 21.921875 
Q 17.484375 14.15625 20.5 10.265625 
Q 23.53125 6.390625 29.59375 6.390625 
Q 36.859375 6.390625 41.078125 11.03125 
Q 45.3125 15.671875 45.3125 23.6875 
L 45.3125 54.6875 
L 54.296875 54.6875 
L 54.296875 0 
L 45.3125 0 
L 45.3125 8.40625 
Q 42.046875 3.421875 37.71875 1 
Q 33.40625 -1.421875 27.6875 -1.421875 
Q 18.265625 -1.421875 13.375 4.4375 
Q 8.5 10.296875 8.5 21.578125 
z
M 31.109375 56 
z
" id="DejaVuSans-117"/>
      <path d="M 2.984375 54.6875 
L 12.5 54.6875 
L 29.59375 8.796875 
L 46.6875 54.6875 
L 56.203125 54.6875 
L 35.6875 0 
L 23.484375 0 
z
" id="DejaVuSans-118"/>
      <path d="M 9.421875 75.984375 
L 18.40625 75.984375 
L 18.40625 0 
L 9.421875 0 
z
" id="DejaVuSans-108"/>
     </defs>
     <g transform="translate(83.965625 53.594687)scale(0.1 -0.1)">
      <use xlink:href="#DejaVuSans-84"/>
      <use x="46.333984" xlink:href="#DejaVuSans-114"/>
      <use x="87.447266" xlink:href="#DejaVuSans-117"/>
      <use x="150.826172" xlink:href="#DejaVuSans-101"/>
      <use x="212.349609" xlink:href="#DejaVuSans-32"/>
      <use x="244.136719" xlink:href="#DejaVuSans-118"/>
      <use x="303.316406" xlink:href="#DejaVuSans-97"/>
      <use x="364.595703" xlink:href="#DejaVuSans-108"/>
      <use x="392.378906" xlink:href="#DejaVuSans-117"/>
      <use x="455.757812" xlink:href="#DejaVuSans-101"/>
     </g>
    </g>
   </g>
  </g>
 </g>
 <defs>
  <clipPath id="p73bd1ae3f0">
   <rect height="266.112" width="357.12" x="46.965625" y="22.318125"/>
  </clipPath>
 </defs>
</svg>
