<?xml version="1.0" encoding="utf-8" standalone="no"?>
<!DOCTYPE svg PUBLIC "-//W3C//DTD SVG 1.1//EN"
  "http://www.w3.org/Graphics/SVG/1.1/DTD/svg11.dtd">
<!-- Created with matplotlib (https://matplotlib.org/) -->
<svg height="325.986375pt" version="1.1" viewBox="0 0 411.285625 325.986375" width="411.285625pt" xmlns="http://www.w3.org/2000/svg" xmlns:xlink="http://www.w3.org/1999/xlink">
 <defs>
  <style type="text/css">
*{stroke-linecap:butt;stroke-linejoin:round;}
  </style>
 </defs>
 <g id="figure_1">
  <g id="patch_1">
   <path d="M 0 325.986375 
L 411.285625 325.986375 
L 411.285625 0 
L 0 0 
z
" style="fill:#ffffff;"/>
  </g>
  <g id="axes_1">
   <g id="patch_2">
    <path d="M 46.965625 288.430125 
L 404.085625 288.430125 
L 404.085625 22.318125 
L 46.965625 22.318125 
z
" style="fill:#ffffff;"/>
   </g>
   <g id="matplotlib.axis_1">
    <g id="xtick_1">
     <g id="line2d_1">
      <path clip-path="url(#pc93420dcdd)" d="M 63.198352 288.430125 
L 63.198352 22.318125 
" style="fill:none;stroke:#b0b0b0;stroke-dasharray:2.96,1.28;stroke-dashoffset:0;stroke-width:0.8;"/>
     </g>
     <g id="line2d_2">
      <defs>
       <path d="M 0 0 
L 0 3.5 
" id="m3e01265469" style="stroke:#000000;stroke-width:0.8;"/>
      </defs>
      <g>
       <use style="stroke:#000000;stroke-width:0.8;" x="63.198352" xlink:href="#m3e01265469" y="288.430125"/>
      </g>
     </g>
     <g id="text_1">
      <!-- 0 -->
      <defs>
       <path d="M 31.78125 66.40625 
Q 24.171875 66.40625 20.328125 58.90625 
Q 16.5 51.421875 16.5 36.375 
Q 16.5 21.390625 20.328125 13.890625 
Q 24.171875 6.390625 31.78125 6.390625 
Q 39.453125 6.390625 43.28125 13.890625 
Q 47.125 21.390625 47.125 36.375 
Q 47.125 51.421875 43.28125 58.90625 
Q 39.453125 66.40625 31.78125 66.40625 
z
M 31.78125 74.21875 
Q 44.046875 74.21875 50.515625 64.515625 
Q 56.984375 54.828125 56.984375 36.375 
Q 56.984375 17.96875 50.515625 8.265625 
Q 44.046875 -1.421875 31.78125 -1.421875 
Q 19.53125 -1.421875 13.0625 8.265625 
Q 6.59375 17.96875 6.59375 36.375 
Q 6.59375 54.828125 13.0625 64.515625 
Q 19.53125 74.21875 31.78125 74.21875 
z
" id="DejaVuSans-48"/>
      </defs>
      <g transform="translate(60.017102 303.028562)scale(0.1 -0.1)">
       <use xlink:href="#DejaVuSans-48"/>
      </g>
     </g>
    </g>
    <g id="xtick_2">
     <g id="line2d_3">
      <path clip-path="url(#pc93420dcdd)" d="M 112.128954 288.430125 
L 112.128954 22.318125 
" style="fill:none;stroke:#b0b0b0;stroke-dasharray:2.96,1.28;stroke-dashoffset:0;stroke-width:0.8;"/>
     </g>
     <g id="line2d_4">
      <g>
       <use style="stroke:#000000;stroke-width:0.8;" x="112.128954" xlink:href="#m3e01265469" y="288.430125"/>
      </g>
     </g>
     <g id="text_2">
      <!-- 200 -->
      <defs>
       <path d="M 19.1875 8.296875 
L 53.609375 8.296875 
L 53.609375 0 
L 7.328125 0 
L 7.328125 8.296875 
Q 12.9375 14.109375 22.625 23.890625 
Q 32.328125 33.6875 34.8125 36.53125 
Q 39.546875 41.84375 41.421875 45.53125 
Q 43.3125 49.21875 43.3125 52.78125 
Q 43.3125 58.59375 39.234375 62.25 
Q 35.15625 65.921875 28.609375 65.921875 
Q 23.96875 65.921875 18.8125 64.3125 
Q 13.671875 62.703125 7.8125 59.421875 
L 7.8125 69.390625 
Q 13.765625 71.78125 18.9375 73 
Q 24.125 74.21875 28.421875 74.21875 
Q 39.75 74.21875 46.484375 68.546875 
Q 53.21875 62.890625 53.21875 53.421875 
Q 53.21875 48.921875 51.53125 44.890625 
Q 49.859375 40.875 45.40625 35.40625 
Q 44.1875 33.984375 37.640625 27.21875 
Q 31.109375 20.453125 19.1875 8.296875 
z
" id="DejaVuSans-50"/>
      </defs>
      <g transform="translate(102.585204 303.028562)scale(0.1 -0.1)">
       <use xlink:href="#DejaVuSans-50"/>
       <use x="63.623047" xlink:href="#DejaVuSans-48"/>
       <use x="127.246094" xlink:href="#DejaVuSans-48"/>
      </g>
     </g>
    </g>
    <g id="xtick_3">
     <g id="line2d_5">
      <path clip-path="url(#pc93420dcdd)" d="M 161.059557 288.430125 
L 161.059557 22.318125 
" style="fill:none;stroke:#b0b0b0;stroke-dasharray:2.96,1.28;stroke-dashoffset:0;stroke-width:0.8;"/>
     </g>
     <g id="line2d_6">
      <g>
       <use style="stroke:#000000;stroke-width:0.8;" x="161.059557" xlink:href="#m3e01265469" y="288.430125"/>
      </g>
     </g>
     <g id="text_3">
      <!-- 400 -->
      <defs>
       <path d="M 37.796875 64.3125 
L 12.890625 25.390625 
L 37.796875 25.390625 
z
M 35.203125 72.90625 
L 47.609375 72.90625 
L 47.609375 25.390625 
L 58.015625 25.390625 
L 58.015625 17.1875 
L 47.609375 17.1875 
L 47.609375 0 
L 37.796875 0 
L 37.796875 17.1875 
L 4.890625 17.1875 
L 4.890625 26.703125 
z
" id="DejaVuSans-52"/>
      </defs>
      <g transform="translate(151.515807 303.028562)scale(0.1 -0.1)">
       <use xlink:href="#DejaVuSans-52"/>
       <use x="63.623047" xlink:href="#DejaVuSans-48"/>
       <use x="127.246094" xlink:href="#DejaVuSans-48"/>
      </g>
     </g>
    </g>
    <g id="xtick_4">
     <g id="line2d_7">
      <path clip-path="url(#pc93420dcdd)" d="M 209.990159 288.430125 
L 209.990159 22.318125 
" style="fill:none;stroke:#b0b0b0;stroke-dasharray:2.96,1.28;stroke-dashoffset:0;stroke-width:0.8;"/>
     </g>
     <g id="line2d_8">
      <g>
       <use style="stroke:#000000;stroke-width:0.8;" x="209.990159" xlink:href="#m3e01265469" y="288.430125"/>
      </g>
     </g>
     <g id="text_4">
      <!-- 600 -->
      <defs>
       <path d="M 33.015625 40.375 
Q 26.375 40.375 22.484375 35.828125 
Q 18.609375 31.296875 18.609375 23.390625 
Q 18.609375 15.53125 22.484375 10.953125 
Q 26.375 6.390625 33.015625 6.390625 
Q 39.65625 6.390625 43.53125 10.953125 
Q 47.40625 15.53125 47.40625 23.390625 
Q 47.40625 31.296875 43.53125 35.828125 
Q 39.65625 40.375 33.015625 40.375 
z
M 52.59375 71.296875 
L 52.59375 62.3125 
Q 48.875 64.0625 45.09375 64.984375 
Q 41.3125 65.921875 37.59375 65.921875 
Q 27.828125 65.921875 22.671875 59.328125 
Q 17.53125 52.734375 16.796875 39.40625 
Q 19.671875 43.65625 24.015625 45.921875 
Q 28.375 48.1875 33.59375 48.1875 
Q 44.578125 48.1875 50.953125 41.515625 
Q 57.328125 34.859375 57.328125 23.390625 
Q 57.328125 12.15625 50.6875 5.359375 
Q 44.046875 -1.421875 33.015625 -1.421875 
Q 20.359375 -1.421875 13.671875 8.265625 
Q 6.984375 17.96875 6.984375 36.375 
Q 6.984375 53.65625 15.1875 63.9375 
Q 23.390625 74.21875 37.203125 74.21875 
Q 40.921875 74.21875 44.703125 73.484375 
Q 48.484375 72.75 52.59375 71.296875 
z
" id="DejaVuSans-54"/>
      </defs>
      <g transform="translate(200.446409 303.028562)scale(0.1 -0.1)">
       <use xlink:href="#DejaVuSans-54"/>
       <use x="63.623047" xlink:href="#DejaVuSans-48"/>
       <use x="127.246094" xlink:href="#DejaVuSans-48"/>
      </g>
     </g>
    </g>
    <g id="xtick_5">
     <g id="line2d_9">
      <path clip-path="url(#pc93420dcdd)" d="M 258.920761 288.430125 
L 258.920761 22.318125 
" style="fill:none;stroke:#b0b0b0;stroke-dasharray:2.96,1.28;stroke-dashoffset:0;stroke-width:0.8;"/>
     </g>
     <g id="line2d_10">
      <g>
       <use style="stroke:#000000;stroke-width:0.8;" x="258.920761" xlink:href="#m3e01265469" y="288.430125"/>
      </g>
     </g>
     <g id="text_5">
      <!-- 800 -->
      <defs>
       <path d="M 31.78125 34.625 
Q 24.75 34.625 20.71875 30.859375 
Q 16.703125 27.09375 16.703125 20.515625 
Q 16.703125 13.921875 20.71875 10.15625 
Q 24.75 6.390625 31.78125 6.390625 
Q 38.8125 6.390625 42.859375 10.171875 
Q 46.921875 13.96875 46.921875 20.515625 
Q 46.921875 27.09375 42.890625 30.859375 
Q 38.875 34.625 31.78125 34.625 
z
M 21.921875 38.8125 
Q 15.578125 40.375 12.03125 44.71875 
Q 8.5 49.078125 8.5 55.328125 
Q 8.5 64.0625 14.71875 69.140625 
Q 20.953125 74.21875 31.78125 74.21875 
Q 42.671875 74.21875 48.875 69.140625 
Q 55.078125 64.0625 55.078125 55.328125 
Q 55.078125 49.078125 51.53125 44.71875 
Q 48 40.375 41.703125 38.8125 
Q 48.828125 37.15625 52.796875 32.3125 
Q 56.78125 27.484375 56.78125 20.515625 
Q 56.78125 9.90625 50.3125 4.234375 
Q 43.84375 -1.421875 31.78125 -1.421875 
Q 19.734375 -1.421875 13.25 4.234375 
Q 6.78125 9.90625 6.78125 20.515625 
Q 6.78125 27.484375 10.78125 32.3125 
Q 14.796875 37.15625 21.921875 38.8125 
z
M 18.3125 54.390625 
Q 18.3125 48.734375 21.84375 45.5625 
Q 25.390625 42.390625 31.78125 42.390625 
Q 38.140625 42.390625 41.71875 45.5625 
Q 45.3125 48.734375 45.3125 54.390625 
Q 45.3125 60.0625 41.71875 63.234375 
Q 38.140625 66.40625 31.78125 66.40625 
Q 25.390625 66.40625 21.84375 63.234375 
Q 18.3125 60.0625 18.3125 54.390625 
z
" id="DejaVuSans-56"/>
      </defs>
      <g transform="translate(249.377011 303.028562)scale(0.1 -0.1)">
       <use xlink:href="#DejaVuSans-56"/>
       <use x="63.623047" xlink:href="#DejaVuSans-48"/>
       <use x="127.246094" xlink:href="#DejaVuSans-48"/>
      </g>
     </g>
    </g>
    <g id="xtick_6">
     <g id="line2d_11">
      <path clip-path="url(#pc93420dcdd)" d="M 307.851363 288.430125 
L 307.851363 22.318125 
" style="fill:none;stroke:#b0b0b0;stroke-dasharray:2.96,1.28;stroke-dashoffset:0;stroke-width:0.8;"/>
     </g>
     <g id="line2d_12">
      <g>
       <use style="stroke:#000000;stroke-width:0.8;" x="307.851363" xlink:href="#m3e01265469" y="288.430125"/>
      </g>
     </g>
     <g id="text_6">
      <!-- 1000 -->
      <defs>
       <path d="M 12.40625 8.296875 
L 28.515625 8.296875 
L 28.515625 63.921875 
L 10.984375 60.40625 
L 10.984375 69.390625 
L 28.421875 72.90625 
L 38.28125 72.90625 
L 38.28125 8.296875 
L 54.390625 8.296875 
L 54.390625 0 
L 12.40625 0 
z
" id="DejaVuSans-49"/>
      </defs>
      <g transform="translate(295.126363 303.028562)scale(0.1 -0.1)">
       <use xlink:href="#DejaVuSans-49"/>
       <use x="63.623047" xlink:href="#DejaVuSans-48"/>
       <use x="127.246094" xlink:href="#DejaVuSans-48"/>
       <use x="190.869141" xlink:href="#DejaVuSans-48"/>
      </g>
     </g>
    </g>
    <g id="xtick_7">
     <g id="line2d_13">
      <path clip-path="url(#pc93420dcdd)" d="M 356.781965 288.430125 
L 356.781965 22.318125 
" style="fill:none;stroke:#b0b0b0;stroke-dasharray:2.96,1.28;stroke-dashoffset:0;stroke-width:0.8;"/>
     </g>
     <g id="line2d_14">
      <g>
       <use style="stroke:#000000;stroke-width:0.8;" x="356.781965" xlink:href="#m3e01265469" y="288.430125"/>
      </g>
     </g>
     <g id="text_7">
      <!-- 1200 -->
      <g transform="translate(344.056965 303.028562)scale(0.1 -0.1)">
       <use xlink:href="#DejaVuSans-49"/>
       <use x="63.623047" xlink:href="#DejaVuSans-50"/>
       <use x="127.246094" xlink:href="#DejaVuSans-48"/>
       <use x="190.869141" xlink:href="#DejaVuSans-48"/>
      </g>
     </g>
    </g>
    <g id="text_8">
     <!-- Day -->
     <defs>
      <path d="M 19.671875 64.796875 
L 19.671875 8.109375 
L 31.59375 8.109375 
Q 46.6875 8.109375 53.6875 14.9375 
Q 60.6875 21.78125 60.6875 36.53125 
Q 60.6875 51.171875 53.6875 57.984375 
Q 46.6875 64.796875 31.59375 64.796875 
z
M 9.8125 72.90625 
L 30.078125 72.90625 
Q 51.265625 72.90625 61.171875 64.09375 
Q 71.09375 55.28125 71.09375 36.53125 
Q 71.09375 17.671875 61.125 8.828125 
Q 51.171875 0 30.078125 0 
L 9.8125 0 
z
" id="DejaVuSans-68"/>
      <path d="M 34.28125 27.484375 
Q 23.390625 27.484375 19.1875 25 
Q 14.984375 22.515625 14.984375 16.5 
Q 14.984375 11.71875 18.140625 8.90625 
Q 21.296875 6.109375 26.703125 6.109375 
Q 34.1875 6.109375 38.703125 11.40625 
Q 43.21875 16.703125 43.21875 25.484375 
L 43.21875 27.484375 
z
M 52.203125 31.203125 
L 52.203125 0 
L 43.21875 0 
L 43.21875 8.296875 
Q 40.140625 3.328125 35.546875 0.953125 
Q 30.953125 -1.421875 24.3125 -1.421875 
Q 15.921875 -1.421875 10.953125 3.296875 
Q 6 8.015625 6 15.921875 
Q 6 25.140625 12.171875 29.828125 
Q 18.359375 34.515625 30.609375 34.515625 
L 43.21875 34.515625 
L 43.21875 35.40625 
Q 43.21875 41.609375 39.140625 45 
Q 35.0625 48.390625 27.6875 48.390625 
Q 23 48.390625 18.546875 47.265625 
Q 14.109375 46.140625 10.015625 43.890625 
L 10.015625 52.203125 
Q 14.9375 54.109375 19.578125 55.046875 
Q 24.21875 56 28.609375 56 
Q 40.484375 56 46.34375 49.84375 
Q 52.203125 43.703125 52.203125 31.203125 
z
" id="DejaVuSans-97"/>
      <path d="M 32.171875 -5.078125 
Q 28.375 -14.84375 24.75 -17.8125 
Q 21.140625 -20.796875 15.09375 -20.796875 
L 7.90625 -20.796875 
L 7.90625 -13.28125 
L 13.1875 -13.28125 
Q 16.890625 -13.28125 18.9375 -11.515625 
Q 21 -9.765625 23.484375 -3.21875 
L 25.09375 0.875 
L 2.984375 54.6875 
L 12.5 54.6875 
L 29.59375 11.921875 
L 46.6875 54.6875 
L 56.203125 54.6875 
z
" id="DejaVuSans-121"/>
     </defs>
     <g transform="translate(215.652188 316.706687)scale(0.1 -0.1)">
      <use xlink:href="#DejaVuSans-68"/>
      <use x="77.001953" xlink:href="#DejaVuSans-97"/>
      <use x="138.28125" xlink:href="#DejaVuSans-121"/>
     </g>
    </g>
   </g>
   <g id="matplotlib.axis_2">
    <g id="ytick_1">
     <g id="line2d_15">
      <path clip-path="url(#pc93420dcdd)" d="M 46.965625 268.987749 
L 404.085625 268.987749 
" style="fill:none;stroke:#b0b0b0;stroke-dasharray:2.96,1.28;stroke-dashoffset:0;stroke-width:0.8;"/>
     </g>
     <g id="line2d_16">
      <defs>
       <path d="M 0 0 
L -3.5 0 
" id="ma15202c621" style="stroke:#000000;stroke-width:0.8;"/>
      </defs>
      <g>
       <use style="stroke:#000000;stroke-width:0.8;" x="46.965625" xlink:href="#ma15202c621" y="268.987749"/>
      </g>
     </g>
     <g id="text_9">
      <!-- 75 -->
      <defs>
       <path d="M 8.203125 72.90625 
L 55.078125 72.90625 
L 55.078125 68.703125 
L 28.609375 0 
L 18.3125 0 
L 43.21875 64.59375 
L 8.203125 64.59375 
z
" id="DejaVuSans-55"/>
       <path d="M 10.796875 72.90625 
L 49.515625 72.90625 
L 49.515625 64.59375 
L 19.828125 64.59375 
L 19.828125 46.734375 
Q 21.96875 47.46875 24.109375 47.828125 
Q 26.265625 48.1875 28.421875 48.1875 
Q 40.625 48.1875 47.75 41.5 
Q 54.890625 34.8125 54.890625 23.390625 
Q 54.890625 11.625 47.5625 5.09375 
Q 40.234375 -1.421875 26.90625 -1.421875 
Q 22.3125 -1.421875 17.546875 -0.640625 
Q 12.796875 0.140625 7.71875 1.703125 
L 7.71875 11.625 
Q 12.109375 9.234375 16.796875 8.0625 
Q 21.484375 6.890625 26.703125 6.890625 
Q 35.15625 6.890625 40.078125 11.328125 
Q 45.015625 15.765625 45.015625 23.390625 
Q 45.015625 31 40.078125 35.4375 
Q 35.15625 39.890625 26.703125 39.890625 
Q 22.75 39.890625 18.8125 39.015625 
Q 14.890625 38.140625 10.796875 36.28125 
z
" id="DejaVuSans-53"/>
      </defs>
      <g transform="translate(27.240625 272.786968)scale(0.1 -0.1)">
       <use xlink:href="#DejaVuSans-55"/>
       <use x="63.623047" xlink:href="#DejaVuSans-53"/>
      </g>
     </g>
    </g>
    <g id="ytick_2">
     <g id="line2d_17">
      <path clip-path="url(#pc93420dcdd)" d="M 46.965625 238.400758 
L 404.085625 238.400758 
" style="fill:none;stroke:#b0b0b0;stroke-dasharray:2.96,1.28;stroke-dashoffset:0;stroke-width:0.8;"/>
     </g>
     <g id="line2d_18">
      <g>
       <use style="stroke:#000000;stroke-width:0.8;" x="46.965625" xlink:href="#ma15202c621" y="238.400758"/>
      </g>
     </g>
     <g id="text_10">
      <!-- 100 -->
      <g transform="translate(20.878125 242.199976)scale(0.1 -0.1)">
       <use xlink:href="#DejaVuSans-49"/>
       <use x="63.623047" xlink:href="#DejaVuSans-48"/>
       <use x="127.246094" xlink:href="#DejaVuSans-48"/>
      </g>
     </g>
    </g>
    <g id="ytick_3">
     <g id="line2d_19">
      <path clip-path="url(#pc93420dcdd)" d="M 46.965625 207.813766 
L 404.085625 207.813766 
" style="fill:none;stroke:#b0b0b0;stroke-dasharray:2.96,1.28;stroke-dashoffset:0;stroke-width:0.8;"/>
     </g>
     <g id="line2d_20">
      <g>
       <use style="stroke:#000000;stroke-width:0.8;" x="46.965625" xlink:href="#ma15202c621" y="207.813766"/>
      </g>
     </g>
     <g id="text_11">
      <!-- 125 -->
      <g transform="translate(20.878125 211.612985)scale(0.1 -0.1)">
       <use xlink:href="#DejaVuSans-49"/>
       <use x="63.623047" xlink:href="#DejaVuSans-50"/>
       <use x="127.246094" xlink:href="#DejaVuSans-53"/>
      </g>
     </g>
    </g>
    <g id="ytick_4">
     <g id="line2d_21">
      <path clip-path="url(#pc93420dcdd)" d="M 46.965625 177.226775 
L 404.085625 177.226775 
" style="fill:none;stroke:#b0b0b0;stroke-dasharray:2.96,1.28;stroke-dashoffset:0;stroke-width:0.8;"/>
     </g>
     <g id="line2d_22">
      <g>
       <use style="stroke:#000000;stroke-width:0.8;" x="46.965625" xlink:href="#ma15202c621" y="177.226775"/>
      </g>
     </g>
     <g id="text_12">
      <!-- 150 -->
      <g transform="translate(20.878125 181.025993)scale(0.1 -0.1)">
       <use xlink:href="#DejaVuSans-49"/>
       <use x="63.623047" xlink:href="#DejaVuSans-53"/>
       <use x="127.246094" xlink:href="#DejaVuSans-48"/>
      </g>
     </g>
    </g>
    <g id="ytick_5">
     <g id="line2d_23">
      <path clip-path="url(#pc93420dcdd)" d="M 46.965625 146.639783 
L 404.085625 146.639783 
" style="fill:none;stroke:#b0b0b0;stroke-dasharray:2.96,1.28;stroke-dashoffset:0;stroke-width:0.8;"/>
     </g>
     <g id="line2d_24">
      <g>
       <use style="stroke:#000000;stroke-width:0.8;" x="46.965625" xlink:href="#ma15202c621" y="146.639783"/>
      </g>
     </g>
     <g id="text_13">
      <!-- 175 -->
      <g transform="translate(20.878125 150.439002)scale(0.1 -0.1)">
       <use xlink:href="#DejaVuSans-49"/>
       <use x="63.623047" xlink:href="#DejaVuSans-55"/>
       <use x="127.246094" xlink:href="#DejaVuSans-53"/>
      </g>
     </g>
    </g>
    <g id="ytick_6">
     <g id="line2d_25">
      <path clip-path="url(#pc93420dcdd)" d="M 46.965625 116.052792 
L 404.085625 116.052792 
" style="fill:none;stroke:#b0b0b0;stroke-dasharray:2.96,1.28;stroke-dashoffset:0;stroke-width:0.8;"/>
     </g>
     <g id="line2d_26">
      <g>
       <use style="stroke:#000000;stroke-width:0.8;" x="46.965625" xlink:href="#ma15202c621" y="116.052792"/>
      </g>
     </g>
     <g id="text_14">
      <!-- 200 -->
      <g transform="translate(20.878125 119.85201)scale(0.1 -0.1)">
       <use xlink:href="#DejaVuSans-50"/>
       <use x="63.623047" xlink:href="#DejaVuSans-48"/>
       <use x="127.246094" xlink:href="#DejaVuSans-48"/>
      </g>
     </g>
    </g>
    <g id="ytick_7">
     <g id="line2d_27">
      <path clip-path="url(#pc93420dcdd)" d="M 46.965625 85.4658 
L 404.085625 85.4658 
" style="fill:none;stroke:#b0b0b0;stroke-dasharray:2.96,1.28;stroke-dashoffset:0;stroke-width:0.8;"/>
     </g>
     <g id="line2d_28">
      <g>
       <use style="stroke:#000000;stroke-width:0.8;" x="46.965625" xlink:href="#ma15202c621" y="85.4658"/>
      </g>
     </g>
     <g id="text_15">
      <!-- 225 -->
      <g transform="translate(20.878125 89.265019)scale(0.1 -0.1)">
       <use xlink:href="#DejaVuSans-50"/>
       <use x="63.623047" xlink:href="#DejaVuSans-50"/>
       <use x="127.246094" xlink:href="#DejaVuSans-53"/>
      </g>
     </g>
    </g>
    <g id="ytick_8">
     <g id="line2d_29">
      <path clip-path="url(#pc93420dcdd)" d="M 46.965625 54.878809 
L 404.085625 54.878809 
" style="fill:none;stroke:#b0b0b0;stroke-dasharray:2.96,1.28;stroke-dashoffset:0;stroke-width:0.8;"/>
     </g>
     <g id="line2d_30">
      <g>
       <use style="stroke:#000000;stroke-width:0.8;" x="46.965625" xlink:href="#ma15202c621" y="54.878809"/>
      </g>
     </g>
     <g id="text_16">
      <!-- 250 -->
      <g transform="translate(20.878125 58.678027)scale(0.1 -0.1)">
       <use xlink:href="#DejaVuSans-50"/>
       <use x="63.623047" xlink:href="#DejaVuSans-53"/>
       <use x="127.246094" xlink:href="#DejaVuSans-48"/>
      </g>
     </g>
    </g>
    <g id="ytick_9">
     <g id="line2d_31">
      <path clip-path="url(#pc93420dcdd)" d="M 46.965625 24.291817 
L 404.085625 24.291817 
" style="fill:none;stroke:#b0b0b0;stroke-dasharray:2.96,1.28;stroke-dashoffset:0;stroke-width:0.8;"/>
     </g>
     <g id="line2d_32">
      <g>
       <use style="stroke:#000000;stroke-width:0.8;" x="46.965625" xlink:href="#ma15202c621" y="24.291817"/>
      </g>
     </g>
     <g id="text_17">
      <!-- 275 -->
      <g transform="translate(20.878125 28.091036)scale(0.1 -0.1)">
       <use xlink:href="#DejaVuSans-50"/>
       <use x="63.623047" xlink:href="#DejaVuSans-55"/>
       <use x="127.246094" xlink:href="#DejaVuSans-53"/>
      </g>
     </g>
    </g>
    <g id="text_18">
     <!-- Price $ -->
     <defs>
      <path d="M 19.671875 64.796875 
L 19.671875 37.40625 
L 32.078125 37.40625 
Q 38.96875 37.40625 42.71875 40.96875 
Q 46.484375 44.53125 46.484375 51.125 
Q 46.484375 57.671875 42.71875 61.234375 
Q 38.96875 64.796875 32.078125 64.796875 
z
M 9.8125 72.90625 
L 32.078125 72.90625 
Q 44.34375 72.90625 50.609375 67.359375 
Q 56.890625 61.8125 56.890625 51.125 
Q 56.890625 40.328125 50.609375 34.8125 
Q 44.34375 29.296875 32.078125 29.296875 
L 19.671875 29.296875 
L 19.671875 0 
L 9.8125 0 
z
" id="DejaVuSans-80"/>
      <path d="M 41.109375 46.296875 
Q 39.59375 47.171875 37.8125 47.578125 
Q 36.03125 48 33.890625 48 
Q 26.265625 48 22.1875 43.046875 
Q 18.109375 38.09375 18.109375 28.8125 
L 18.109375 0 
L 9.078125 0 
L 9.078125 54.6875 
L 18.109375 54.6875 
L 18.109375 46.1875 
Q 20.953125 51.171875 25.484375 53.578125 
Q 30.03125 56 36.53125 56 
Q 37.453125 56 38.578125 55.875 
Q 39.703125 55.765625 41.0625 55.515625 
z
" id="DejaVuSans-114"/>
      <path d="M 9.421875 54.6875 
L 18.40625 54.6875 
L 18.40625 0 
L 9.421875 0 
z
M 9.421875 75.984375 
L 18.40625 75.984375 
L 18.40625 64.59375 
L 9.421875 64.59375 
z
" id="DejaVuSans-105"/>
      <path d="M 48.78125 52.59375 
L 48.78125 44.1875 
Q 44.96875 46.296875 41.140625 47.34375 
Q 37.3125 48.390625 33.40625 48.390625 
Q 24.65625 48.390625 19.8125 42.84375 
Q 14.984375 37.3125 14.984375 27.296875 
Q 14.984375 17.28125 19.8125 11.734375 
Q 24.65625 6.203125 33.40625 6.203125 
Q 37.3125 6.203125 41.140625 7.25 
Q 44.96875 8.296875 48.78125 10.40625 
L 48.78125 2.09375 
Q 45.015625 0.34375 40.984375 -0.53125 
Q 36.96875 -1.421875 32.421875 -1.421875 
Q 20.0625 -1.421875 12.78125 6.34375 
Q 5.515625 14.109375 5.515625 27.296875 
Q 5.515625 40.671875 12.859375 48.328125 
Q 20.21875 56 33.015625 56 
Q 37.15625 56 41.109375 55.140625 
Q 45.0625 54.296875 48.78125 52.59375 
z
" id="DejaVuSans-99"/>
      <path d="M 56.203125 29.59375 
L 56.203125 25.203125 
L 14.890625 25.203125 
Q 15.484375 15.921875 20.484375 11.0625 
Q 25.484375 6.203125 34.421875 6.203125 
Q 39.59375 6.203125 44.453125 7.46875 
Q 49.3125 8.734375 54.109375 11.28125 
L 54.109375 2.78125 
Q 49.265625 0.734375 44.1875 -0.34375 
Q 39.109375 -1.421875 33.890625 -1.421875 
Q 20.796875 -1.421875 13.15625 6.1875 
Q 5.515625 13.8125 5.515625 26.8125 
Q 5.515625 40.234375 12.765625 48.109375 
Q 20.015625 56 32.328125 56 
Q 43.359375 56 49.78125 48.890625 
Q 56.203125 41.796875 56.203125 29.59375 
z
M 47.21875 32.234375 
Q 47.125 39.59375 43.09375 43.984375 
Q 39.0625 48.390625 32.421875 48.390625 
Q 24.90625 48.390625 20.390625 44.140625 
Q 15.875 39.890625 15.1875 32.171875 
z
" id="DejaVuSans-101"/>
      <path id="DejaVuSans-32"/>
      <path d="M 33.796875 -14.703125 
L 28.90625 -14.703125 
L 28.859375 0 
Q 23.734375 0.09375 18.609375 1.1875 
Q 13.484375 2.296875 8.296875 4.5 
L 8.296875 13.28125 
Q 13.28125 10.15625 18.375 8.5625 
Q 23.484375 6.984375 28.90625 6.9375 
L 28.90625 29.203125 
Q 18.109375 30.953125 13.203125 35.15625 
Q 8.296875 39.359375 8.296875 46.6875 
Q 8.296875 54.640625 13.625 59.21875 
Q 18.953125 63.8125 28.90625 64.5 
L 28.90625 75.984375 
L 33.796875 75.984375 
L 33.796875 64.65625 
Q 38.328125 64.453125 42.578125 63.6875 
Q 46.828125 62.9375 50.875 61.625 
L 50.875 53.078125 
Q 46.828125 55.125 42.546875 56.25 
Q 38.28125 57.375 33.796875 57.5625 
L 33.796875 36.71875 
Q 44.875 35.015625 50.09375 30.609375 
Q 55.328125 26.21875 55.328125 18.609375 
Q 55.328125 10.359375 49.78125 5.59375 
Q 44.234375 0.828125 33.796875 0.09375 
z
M 28.90625 37.59375 
L 28.90625 57.625 
Q 23.25 56.984375 20.265625 54.390625 
Q 17.28125 51.8125 17.28125 47.515625 
Q 17.28125 43.3125 20.03125 40.96875 
Q 22.796875 38.625 28.90625 37.59375 
z
M 33.796875 28.21875 
L 33.796875 7.078125 
Q 39.984375 7.90625 43.140625 10.59375 
Q 46.296875 13.28125 46.296875 17.671875 
Q 46.296875 21.96875 43.28125 24.5 
Q 40.28125 27.046875 33.796875 28.21875 
z
" id="DejaVuSans-36"/>
     </defs>
     <g transform="translate(14.798438 172.342094)rotate(-90)scale(0.1 -0.1)">
      <use xlink:href="#DejaVuSans-80"/>
      <use x="58.552734" xlink:href="#DejaVuSans-114"/>
      <use x="99.666016" xlink:href="#DejaVuSans-105"/>
      <use x="127.449219" xlink:href="#DejaVuSans-99"/>
      <use x="182.429688" xlink:href="#DejaVuSans-101"/>
      <use x="243.953125" xlink:href="#DejaVuSans-32"/>
      <use x="275.740234" xlink:href="#DejaVuSans-36"/>
     </g>
    </g>
   </g>
   <g id="line2d_33">
    <path clip-path="url(#pc93420dcdd)" d="M 63.198352 268.601062 
L 63.443005 269.238611 
L 63.932311 271.754972 
L 64.421617 272.652989 
L 64.66627 271.43665 
L 64.910923 271.05364 
L 65.155576 269.511167 
L 65.889535 270.682327 
L 66.378841 270.818451 
L 66.623494 271.689267 
L 66.868147 270.900201 
L 67.1128 270.569381 
L 67.846759 272.291458 
L 68.091412 275.119158 
L 68.580719 273.665847 
L 68.825372 273.747784 
L 69.070025 274.061915 
L 69.314678 274.923481 
L 69.559331 273.95722 
L 69.803984 274.593155 
L 70.29329 271.918072 
L 70.537943 272.004005 
L 70.782596 274.461605 
L 71.027249 273.888314 
L 71.271902 274.387499 
L 71.516555 273.553582 
L 71.761208 273.886774 
L 72.005861 275.552779 
L 72.250514 274.942794 
L 72.73982 275.834118 
L 72.984473 275.762448 
L 73.229126 275.413771 
L 73.473779 276.198645 
L 73.718432 275.216432 
L 74.207738 276.334125 
L 74.452391 275.261499 
L 74.697044 275.772931 
L 74.941697 275.380559 
L 75.18635 275.225188 
L 75.431003 274.643841 
L 75.675656 275.367668 
L 75.920309 275.019654 
L 76.164962 274.980216 
L 76.409615 274.361158 
L 76.654268 273.273802 
L 76.898921 272.752288 
L 77.143574 271.408124 
L 77.388227 271.349924 
L 77.63288 270.670463 
L 78.122186 271.68361 
L 78.366839 272.856227 
L 78.611492 272.328385 
L 78.856145 273.42725 
L 79.345451 274.746109 
L 79.590104 274.001886 
L 79.834757 274.535599 
L 80.07941 274.540126 
L 80.324063 272.88157 
L 80.568716 275.861627 
L 80.813369 274.438213 
L 81.058022 272.288508 
L 81.302675 271.19501 
L 81.791981 274.181769 
L 82.036634 273.784394 
L 82.281287 273.932914 
L 82.52594 272.114627 
L 83.259899 270.425043 
L 83.749205 269.923804 
L 83.993858 270.818703 
L 84.483164 270.273256 
L 84.727817 270.855546 
L 84.97247 270.054327 
L 85.461776 270.735188 
L 85.951082 268.451189 
L 86.195735 268.720244 
L 86.440388 269.256384 
L 86.685041 270.743635 
L 86.929694 270.861128 
L 87.174347 270.034043 
L 87.419 268.758776 
L 87.663653 268.679079 
L 87.908306 268.314505 
L 88.152959 268.50095 
L 88.642265 268.169625 
L 88.886918 268.559384 
L 89.131571 269.620165 
L 89.376224 268.93445 
L 89.620877 266.555277 
L 89.86553 266.113264 
L 90.110183 265.950883 
L 90.599489 271.389324 
L 90.844143 267.442111 
L 91.088796 266.570781 
L 91.333449 269.062592 
L 91.578102 267.176118 
L 91.822755 266.866262 
L 92.067408 270.924163 
L 92.312061 269.276724 
L 92.556714 269.204485 
L 92.801367 270.396955 
L 93.04602 269.74294 
L 93.290673 268.413888 
L 93.535326 268.750048 
L 93.779979 270.182945 
L 94.024632 270.559841 
L 94.269285 269.355217 
L 94.513938 270.088631 
L 94.758591 269.091268 
L 95.003244 268.650236 
L 95.247897 267.701253 
L 95.49255 267.563617 
L 95.737203 266.261346 
L 95.981856 267.353611 
L 96.226509 267.877832 
L 96.471162 267.684787 
L 96.715815 269.052203 
L 97.205121 268.871582 
L 97.449774 269.541606 
L 97.694427 268.983773 
L 98.183733 266.734591 
L 98.428386 268.649283 
L 98.673039 267.876917 
L 98.917692 266.099291 
L 99.162345 266.758972 
L 99.406998 266.361326 
L 99.651651 266.741872 
L 99.896304 264.698821 
L 100.140957 264.209773 
L 100.38561 261.702728 
L 100.630263 261.440525 
L 101.119569 258.198694 
L 101.364222 257.477499 
L 101.608875 257.761853 
L 101.853528 255.606594 
L 102.098181 257.123911 
L 102.342834 256.56969 
L 102.587487 256.35274 
L 102.83214 257.610925 
L 103.076793 257.068287 
L 103.321446 257.098932 
L 103.566099 254.953726 
L 103.810752 255.819614 
L 104.055405 256.137348 
L 104.300058 256.73925 
L 104.544711 257.875378 
L 105.27867 255.732963 
L 106.012629 253.508349 
L 106.257282 252.447848 
L 106.501935 252.369542 
L 106.746588 254.831632 
L 106.991241 254.275507 
L 107.235894 254.667132 
L 107.480547 255.282083 
L 107.7252 253.23375 
L 107.969853 254.479837 
L 108.214506 252.926946 
L 108.459159 249.150198 
L 108.703812 248.488808 
L 108.948465 247.205906 
L 109.193118 249.136915 
L 109.437771 249.654097 
L 109.682424 249.708059 
L 110.17173 246.089501 
L 110.416383 245.665821 
L 110.661036 244.916026 
L 110.905689 246.266612 
L 111.150342 245.205364 
L 111.394995 245.687841 
L 111.639648 244.924735 
L 112.128954 242.341969 
L 112.373607 243.140024 
L 112.61826 240.351565 
L 112.862913 240.52553 
L 113.107566 240.4111 
L 113.35222 241.379069 
L 113.596873 239.281067 
L 114.086179 238.31489 
L 114.330832 239.89374 
L 114.575485 238.006556 
L 114.820138 239.762844 
L 115.064791 237.857103 
L 115.309444 240.091088 
L 115.554097 240.117103 
L 115.79875 238.609774 
L 116.043403 235.402461 
L 116.777362 237.539593 
L 117.022015 235.976453 
L 117.266668 236.46944 
L 117.755974 233.789541 
L 118.24528 239.423127 
L 118.489933 238.99675 
L 118.734586 241.519505 
L 119.223892 236.924586 
L 119.468545 234.13203 
L 119.713198 235.489589 
L 119.957851 234.26918 
L 120.202504 236.794922 
L 120.69181 233.359309 
L 120.936463 233.300997 
L 121.425769 231.829464 
L 121.670422 229.983893 
L 121.915075 238.57925 
L 122.159728 232.083528 
L 122.404381 233.556246 
L 122.649034 232.545488 
L 122.893687 229.257312 
L 123.13834 230.624439 
L 123.382993 230.658257 
L 123.627646 229.223279 
L 124.116952 230.644937 
L 124.606258 233.273852 
L 124.850911 231.787273 
L 125.095564 232.279373 
L 125.58487 229.18974 
L 126.318829 231.219171 
L 126.563482 231.279332 
L 126.808135 232.080961 
L 127.052788 233.480068 
L 127.297441 230.866097 
L 127.786747 235.381431 
L 128.276053 232.769514 
L 128.520706 232.820872 
L 128.765359 233.919214 
L 129.010012 232.228762 
L 129.254665 231.757253 
L 129.499318 231.589477 
L 129.743971 235.041238 
L 129.988624 234.534296 
L 130.233277 232.332916 
L 130.47793 233.947544 
L 130.967236 230.614432 
L 131.211889 230.351258 
L 131.456542 231.512935 
L 131.945848 228.664474 
L 132.435154 226.953328 
L 132.679807 225.006655 
L 132.92446 219.278259 
L 133.413766 216.167502 
L 133.658419 215.415419 
L 133.903072 218.821405 
L 134.392378 215.248866 
L 134.637031 216.201209 
L 134.881684 215.094951 
L 135.126337 216.271945 
L 135.37099 218.261574 
L 135.615643 217.275973 
L 135.860297 217.144516 
L 136.10495 220.190464 
L 136.349603 217.807875 
L 137.083562 221.052964 
L 137.328215 215.578744 
L 137.572868 216.64281 
L 137.817521 215.145412 
L 138.062174 216.783732 
L 138.55148 211.37461 
L 138.796133 211.058416 
L 139.040786 212.682613 
L 139.285439 210.89161 
L 139.530092 202.232742 
L 139.774745 203.553579 
L 140.019398 200.7044 
L 140.264051 203.113742 
L 140.508704 203.102092 
L 140.99801 200.954506 
L 141.242663 197.826079 
L 141.487316 198.585004 
L 141.731969 198.04204 
L 141.976622 198.46543 
L 142.221275 200.207642 
L 142.465928 197.73925 
L 142.710581 199.212612 
L 142.955234 199.526622 
L 143.199887 198.274467 
L 143.44454 195.824072 
L 143.689193 194.521325 
L 143.933846 190.74397 
L 144.178499 193.448484 
L 144.423152 199.505713 
L 144.667805 198.595309 
L 144.912458 194.525339 
L 145.157111 198.974641 
L 145.401764 196.175364 
L 145.646417 196.33866 
L 145.89107 196.808946 
L 146.135723 196.755105 
L 146.380376 199.58134 
L 146.625029 200.072722 
L 146.869682 198.42589 
L 147.114335 194.953041 
L 147.848294 199.028724 
L 148.582253 195.842032 
L 148.826906 193.888657 
L 149.071559 195.722253 
L 149.316212 196.430305 
L 149.560865 193.695921 
L 149.805518 194.001716 
L 150.050171 193.356577 
L 150.294824 191.549716 
L 150.78413 194.960024 
L 151.028783 193.910575 
L 151.273436 193.643032 
L 152.496701 187.044445 
L 152.741354 187.854111 
L 152.986007 189.489145 
L 153.23066 190.270416 
L 153.475313 189.039152 
L 153.719966 189.570989 
L 153.964619 189.022499 
L 154.209272 187.306088 
L 154.453925 184.026126 
L 154.943231 194.221298 
L 155.187884 192.480058 
L 155.432537 193.157923 
L 155.67719 203.271419 
L 156.655802 210.765689 
L 156.900455 212.105755 
L 157.145108 210.016127 
L 157.389761 204.998378 
L 157.634414 204.466979 
L 157.879067 201.180138 
L 158.12372 203.980199 
L 158.368374 202.082178 
L 158.85768 200.688252 
L 159.102333 203.679967 
L 159.346986 202.259438 
L 159.591639 203.702818 
L 159.836292 201.962977 
L 160.080945 205.353711 
L 160.325598 205.683887 
L 160.570251 203.386101 
L 160.814904 202.88363 
L 161.059557 204.567595 
L 161.30421 201.651936 
L 161.548863 203.362429 
L 161.793516 203.111166 
L 162.038169 203.41795 
L 162.282822 206.114904 
L 162.527475 206.863113 
L 163.016781 211.213115 
L 163.506087 206.681465 
L 163.995393 210.887167 
L 164.240046 209.178186 
L 164.484699 210.624002 
L 164.974005 208.576331 
L 165.463311 210.213213 
L 166.19727 203.597694 
L 166.441923 203.693203 
L 166.686576 203.011922 
L 167.420535 209.046944 
L 167.665188 205.666609 
L 167.909841 209.442359 
L 168.154494 211.333296 
L 169.133106 203.922438 
L 169.622412 204.82626 
L 169.867065 200.45323 
L 170.601024 205.667673 
L 171.09033 202.972251 
L 171.334983 203.856667 
L 171.824289 199.456502 
L 172.313595 201.912179 
L 172.802901 200.5075 
L 173.292207 197.295493 
L 173.53686 198.228243 
L 173.781513 200.577732 
L 174.026166 200.790893 
L 174.270819 200.116127 
L 174.515472 202.190027 
L 175.004778 199.362878 
L 175.249431 198.625627 
L 175.494084 196.525964 
L 175.738737 196.207119 
L 175.98339 195.114079 
L 176.228043 195.22107 
L 176.472696 194.497952 
L 176.717349 194.596355 
L 176.962002 195.617465 
L 177.451308 191.54111 
L 177.695961 192.301416 
L 177.940614 193.609577 
L 178.185267 197.463064 
L 178.42992 199.365323 
L 178.919226 198.003508 
L 179.163879 198.438211 
L 179.653185 198.096385 
L 180.142491 200.542672 
L 180.631798 205.011324 
L 181.121104 203.419164 
L 181.365757 205.673134 
L 181.61041 204.144662 
L 181.855063 204.336736 
L 182.344369 202.712176 
L 182.589022 205.828375 
L 182.833675 205.398133 
L 183.078328 205.707905 
L 183.567634 202.175503 
L 183.812287 203.024356 
L 184.301593 206.829107 
L 184.546246 204.663412 
L 184.790899 203.915007 
L 185.035552 202.068251 
L 185.280205 206.779383 
L 185.524858 209.289499 
L 185.769511 210.646825 
L 186.014164 210.248152 
L 186.258817 211.051434 
L 186.50347 210.907684 
L 186.748123 213.33057 
L 186.992776 213.494818 
L 187.237429 213.966066 
L 187.482082 212.636463 
L 187.726735 216.26935 
L 187.971388 214.088571 
L 188.216041 212.931599 
L 188.460694 212.46598 
L 188.705347 213.134949 
L 188.95 211.373732 
L 189.194653 208.727297 
L 189.439306 209.988618 
L 189.683959 207.76379 
L 189.928612 206.944957 
L 190.173265 204.805351 
L 190.417918 204.757242 
L 190.662571 205.165576 
L 191.151877 203.290498 
L 191.39653 203.990019 
L 191.641183 205.528777 
L 191.885836 205.929905 
L 192.130489 207.850917 
L 192.375142 206.9121 
L 192.619795 207.297405 
L 192.864448 208.255704 
L 193.109101 204.213774 
L 193.353754 203.854651 
L 193.598407 203.817183 
L 194.332366 206.775136 
L 195.066325 203.199469 
L 195.310978 202.424918 
L 195.800284 205.179605 
L 196.044937 203.540194 
L 196.28959 205.318053 
L 196.534243 203.357221 
L 196.778896 203.423439 
L 197.023549 205.018839 
L 197.268202 208.066691 
L 197.512855 208.697389 
L 197.757508 206.173636 
L 198.002161 206.351055 
L 198.246814 210.148862 
L 198.491467 207.738027 
L 198.980773 212.240507 
L 199.225426 213.334528 
L 199.470079 210.92177 
L 199.714732 214.167017 
L 199.959385 213.651281 
L 200.204038 209.315813 
L 200.448691 208.329978 
L 200.693344 204.869703 
L 200.937997 212.168585 
L 201.18265 211.100552 
L 201.427303 210.666268 
L 201.671956 211.197284 
L 201.916609 209.368571 
L 202.161262 209.833704 
L 202.405915 209.261748 
L 202.895221 206.049805 
L 203.139875 206.8968 
L 203.384528 208.996818 
L 203.629181 208.331816 
L 203.873834 208.421296 
L 204.118487 208.28493 
L 204.36314 207.129703 
L 204.607793 206.687812 
L 204.852446 203.437608 
L 205.097099 203.301737 
L 205.341752 203.883121 
L 205.586405 201.045498 
L 205.831058 199.652599 
L 206.075711 199.618808 
L 206.565017 195.796779 
L 206.80967 195.668225 
L 207.054323 195.962222 
L 207.298976 196.431537 
L 207.543629 198.930676 
L 207.788282 198.981399 
L 208.277588 200.17667 
L 208.522241 199.194373 
L 209.011547 202.588607 
L 209.2562 208.18662 
L 209.500853 209.387884 
L 209.745506 212.670795 
L 209.990159 211.064595 
L 210.234812 207.808315 
L 210.479465 206.659641 
L 210.968771 205.769232 
L 211.70273 199.910639 
L 211.947383 199.788807 
L 212.192036 199.305639 
L 212.436689 200.152979 
L 212.681342 202.206325 
L 212.925995 202.13025 
L 213.415301 204.976264 
L 213.904607 199.481798 
L 214.393913 201.33003 
L 214.638566 200.217461 
L 214.883219 201.547036 
L 215.127872 201.578474 
L 215.617178 200.063798 
L 215.861831 198.619504 
L 216.106484 194.582633 
L 216.351137 196.226572 
L 216.59579 196.982286 
L 216.840443 199.478755 
L 217.329749 179.982628 
L 217.574402 184.071473 
L 218.063708 180.812961 
L 218.308361 181.512837 
L 218.553014 179.363981 
L 219.04232 181.195784 
L 219.286973 179.761925 
L 219.531626 180.276326 
L 219.776279 179.70618 
L 220.020932 177.527716 
L 220.265585 177.564494 
L 220.510238 175.918128 
L 220.754891 172.608352 
L 220.999544 167.000687 
L 221.244197 172.542152 
L 221.48885 172.53349 
L 222.222809 176.527254 
L 222.712115 170.132045 
L 222.956768 172.019239 
L 223.201421 171.536239 
L 223.446074 173.255432 
L 223.690727 171.178152 
L 224.180033 175.577441 
L 224.424686 174.37767 
L 224.669339 175.119476 
L 224.913992 172.363211 
L 225.403298 170.402855 
L 225.647952 172.372154 
L 225.892605 171.53538 
L 226.381911 175.290706 
L 226.626564 179.203858 
L 226.871217 179.486187 
L 227.11587 178.489926 
L 227.360523 173.599946 
L 227.849829 178.936372 
L 228.094482 177.814282 
L 228.828441 172.786434 
L 229.073094 173.131583 
L 229.317747 171.748373 
L 229.5624 173.366063 
L 230.051706 174.269092 
L 230.296359 175.039704 
L 230.541012 177.863549 
L 230.785665 173.657241 
L 231.030318 173.229986 
L 231.274971 176.716892 
L 231.519624 177.730739 
L 231.764277 179.467892 
L 232.253583 180.411582 
L 232.498236 181.985307 
L 232.742889 185.284573 
L 232.987542 183.141971 
L 233.721501 187.982926 
L 233.966154 187.200684 
L 234.210807 182.374234 
L 234.45546 182.131334 
L 234.700113 183.48923 
L 234.944766 182.54567 
L 235.189419 179.277339 
L 235.434072 181.489799 
L 235.678725 181.677458 
L 235.923378 180.831929 
L 236.168031 181.809428 
L 236.412684 180.653716 
L 236.90199 186.397421 
L 237.146643 185.756464 
L 237.391296 186.471611 
L 237.635949 188.840198 
L 237.880602 187.648922 
L 238.125255 185.141047 
L 238.369908 184.414326 
L 238.614561 188.028366 
L 239.34852 189.425204 
L 239.837826 185.189679 
L 240.327132 187.237163 
L 240.571785 186.496888 
L 240.816438 184.866895 
L 241.061091 182.461717 
L 241.305744 183.429639 
L 241.550397 182.209575 
L 242.039703 186.097525 
L 242.284356 186.686619 
L 242.529009 186.347538 
L 242.773662 191.080848 
L 243.018315 190.891995 
L 243.262968 187.904162 
L 243.507621 188.970563 
L 243.752274 188.832208 
L 243.996927 185.615365 
L 244.24158 187.440056 
L 244.730886 183.393253 
L 244.975539 180.891128 
L 245.220192 179.882619 
L 245.464845 181.655186 
L 245.709498 179.217785 
L 245.954151 181.871595 
L 246.198804 182.16197 
L 246.443457 184.086669 
L 246.68811 181.36623 
L 246.932763 182.128964 
L 247.177416 184.706119 
L 247.422069 188.55492 
L 247.666722 187.267126 
L 247.911375 184.088368 
L 248.156029 186.083673 
L 248.400682 184.165657 
L 248.645335 185.157289 
L 248.889988 185.211241 
L 249.134641 183.413509 
L 249.623947 186.92586 
L 249.8686 182.298514 
L 250.357906 187.696024 
L 250.602559 184.280041 
L 250.847212 183.612089 
L 251.091865 184.894376 
L 251.336518 184.247762 
L 251.581171 186.682438 
L 252.31513 206.18115 
L 252.559783 206.008342 
L 253.049089 198.641869 
L 253.293742 197.48121 
L 253.783048 205.029592 
L 254.027701 200.655731 
L 254.272354 199.887733 
L 254.517007 202.280776 
L 254.76166 196.480487 
L 255.006313 198.137867 
L 255.495619 195.837514 
L 255.740272 196.698557 
L 255.984925 194.078034 
L 256.229578 192.83764 
L 256.474231 192.200996 
L 256.718884 194.872728 
L 256.963537 194.850699 
L 257.697496 202.631676 
L 257.942149 200.246921 
L 258.186802 203.831558 
L 258.431455 203.11208 
L 258.676108 200.151336 
L 258.920761 200.816189 
L 260.388679 189.885895 
L 260.633332 188.708714 
L 260.877985 189.805451 
L 261.122638 196.907424 
L 261.367291 192.491987 
L 261.611944 192.287769 
L 262.10125 190.901086 
L 262.345903 188.03055 
L 262.590556 181.396754 
L 262.835209 181.09585 
L 263.079862 181.25067 
L 263.324515 179.293842 
L 263.813821 181.218317 
L 264.058474 179.332169 
L 264.303127 178.907118 
L 264.54778 179.72974 
L 264.792433 179.701924 
L 265.281739 180.290757 
L 265.526392 182.301557 
L 265.771045 183.232664 
L 266.015698 183.409682 
L 266.260351 186.408398 
L 266.505004 186.156836 
L 267.483616 177.92525 
L 267.728269 177.527959 
L 267.972922 179.202962 
L 268.217575 178.785696 
L 268.951534 182.821595 
L 269.196187 179.741539 
L 269.685493 182.653819 
L 269.930146 178.828783 
L 270.174799 179.278627 
L 270.419452 183.59876 
L 270.664106 184.656665 
L 270.908759 181.52891 
L 271.398065 186.038737 
L 271.642718 181.193581 
L 271.887371 179.252957 
L 272.132024 182.202855 
L 272.376677 189.733819 
L 273.110636 184.154717 
L 273.355289 185.044828 
L 273.599942 183.79986 
L 273.844595 180.312861 
L 274.089248 181.531188 
L 274.333901 184.039885 
L 274.578554 189.296035 
L 274.823207 188.087976 
L 275.06786 191.280661 
L 275.312513 197.870828 
L 275.557166 200.279087 
L 275.801819 200.445874 
L 276.046472 198.462835 
L 276.291125 202.776975 
L 276.535778 201.81723 
L 276.780431 206.618299 
L 277.025084 205.577942 
L 277.269737 210.719138 
L 277.759043 207.00718 
L 278.003696 208.313176 
L 278.248349 203.878622 
L 278.493002 219.714914 
L 278.982308 213.603676 
L 279.226961 211.763351 
L 279.471614 216.548635 
L 279.716267 211.099646 
L 279.96092 209.100412 
L 280.205573 210.654012 
L 280.450226 214.398361 
L 280.694879 215.069505 
L 280.939532 217.892753 
L 281.184185 228.00133 
L 281.428838 227.150041 
L 281.918144 218.252342 
L 282.162797 216.656662 
L 282.40745 219.477204 
L 282.652103 216.286264 
L 282.896756 217.046598 
L 283.141409 219.293362 
L 283.630715 215.284794 
L 283.875368 215.389862 
L 284.120021 213.362064 
L 284.364674 214.178638 
L 284.609327 214.542634 
L 285.098633 210.087862 
L 285.343286 211.381751 
L 285.587939 210.133945 
L 285.832592 209.96517 
L 286.321898 205.812235 
L 286.566551 206.032359 
L 286.811204 204.419747 
L 287.545163 194.272507 
L 287.789816 195.539056 
L 288.279122 199.605852 
L 288.523775 200.236821 
L 288.768428 201.369869 
L 289.257734 205.296015 
L 289.502387 205.323131 
L 289.74704 205.934656 
L 290.236346 203.907577 
L 290.480999 204.903904 
L 290.725652 203.460683 
L 290.970305 203.232942 
L 291.459611 199.832996 
L 291.704264 200.496 
L 292.19357 199.146189 
L 292.438223 197.980022 
L 292.682876 201.401456 
L 293.172183 199.875131 
L 293.416836 200.894374 
L 293.661489 197.826602 
L 293.906142 193.357679 
L 294.150795 195.876252 
L 294.395448 195.724269 
L 294.640101 196.633216 
L 295.129407 200.50035 
L 295.618713 197.348923 
L 295.863366 198.824973 
L 296.108019 195.544824 
L 296.352672 197.580528 
L 296.597325 195.923633 
L 296.841978 198.712419 
L 297.086631 196.232322 
L 297.575937 200.007661 
L 297.82059 203.647371 
L 298.065243 204.044756 
L 298.309896 204.026162 
L 298.554549 204.308649 
L 298.799202 202.746657 
L 299.043855 201.9966 
L 299.288508 202.510142 
L 299.533161 205.762436 
L 299.777814 205.563772 
L 300.26712 204.549607 
L 300.511773 199.4338 
L 300.756426 199.06384 
L 301.001079 197.701745 
L 301.245732 197.912945 
L 301.490385 200.595916 
L 301.735038 201.834461 
L 301.979691 201.322749 
L 302.224344 201.549967 
L 302.468997 202.995344 
L 302.71365 202.124929 
L 302.958303 198.077865 
L 303.202956 199.628479 
L 303.447609 199.152555 
L 303.692262 196.701955 
L 303.936915 206.518029 
L 304.181568 210.048032 
L 304.426221 208.151093 
L 304.915527 201.684849 
L 305.16018 202.151532 
L 305.404833 205.347447 
L 305.649486 205.59634 
L 305.894139 204.691602 
L 306.383445 198.53906 
L 306.628098 200.525011 
L 306.872751 201.325624 
L 307.117404 199.284301 
L 307.362057 198.373505 
L 307.851363 195.536162 
L 308.096016 195.557108 
L 308.585322 198.150711 
L 308.829975 198.377276 
L 309.319281 193.533987 
L 309.563934 197.605208 
L 309.808587 196.78912 
L 310.05324 197.645514 
L 310.297893 199.765228 
L 310.542546 198.795794 
L 310.787199 199.707597 
L 311.521158 197.871034 
L 311.765811 198.623387 
L 312.010464 197.582731 
L 312.255117 197.384916 
L 312.49977 195.43942 
L 312.744423 195.508999 
L 312.989076 196.108305 
L 313.233729 195.465444 
L 313.478382 196.320308 
L 313.723035 195.444106 
L 313.967688 196.284315 
L 314.212341 197.526239 
L 314.701647 198.887513 
L 314.9463 197.990271 
L 315.435607 201.980918 
L 315.68026 201.424438 
L 316.169566 197.640884 
L 316.414219 198.455909 
L 316.658872 198.027777 
L 316.903525 203.289509 
L 317.148178 201.566153 
L 317.637484 204.282867 
L 317.882137 203.863071 
L 318.12679 205.53141 
L 318.371443 203.976708 
L 318.616096 203.610631 
L 319.105402 199.010634 
L 319.350055 199.725407 
L 319.594708 201.087335 
L 320.084014 198.750447 
L 320.328667 200.460492 
L 320.57332 199.215543 
L 320.817973 198.614631 
L 321.062626 198.853088 
L 321.307279 195.86296 
L 321.551932 196.51971 
L 321.796585 197.534622 
L 322.041238 194.542701 
L 322.285891 197.275984 
L 322.530544 197.94625 
L 322.775197 197.844057 
L 323.264503 196.249348 
L 323.753809 193.8572 
L 324.243115 195.415057 
L 324.732421 190.582932 
L 324.977074 183.420864 
L 325.221727 186.395778 
L 325.46638 186.43502 
L 325.711033 187.051744 
L 325.955686 187.056225 
L 326.444992 189.971379 
L 326.689645 190.469426 
L 326.934298 185.833678 
L 327.178951 187.209402 
L 327.668257 179.746934 
L 327.91291 179.235446 
L 328.157563 177.58839 
L 328.402216 180.634002 
L 328.891522 183.121491 
L 329.380828 180.425583 
L 329.625481 177.45431 
L 329.870134 177.365577 
L 330.114787 177.154526 
L 330.35944 178.164547 
L 330.604093 175.565829 
L 330.848746 176.712075 
L 331.093399 174.342554 
L 331.338052 174.835299 
L 331.582705 174.864441 
L 331.827358 175.082866 
L 332.316664 170.469316 
L 332.561317 169.236427 
L 332.80597 168.655566 
L 333.050623 169.200956 
L 333.295276 171.969915 
L 333.539929 172.97945 
L 334.273888 168.870668 
L 334.518541 167.697612 
L 334.763194 168.400195 
L 335.007847 167.255255 
L 335.497153 169.947578 
L 335.741806 170.430578 
L 335.986459 170.410845 
L 336.475765 166.431717 
L 336.720418 166.388966 
L 336.965071 165.979316 
L 337.209724 167.490034 
L 337.454377 166.068982 
L 337.69903 165.734736 
L 337.943684 167.538162 
L 338.188337 166.2317 
L 338.43299 167.975199 
L 339.166949 165.168529 
L 339.411602 167.828612 
L 339.656255 164.200495 
L 339.900908 155.055761 
L 340.145561 153.308826 
L 340.87952 161.467118 
L 341.124173 159.923767 
L 341.368826 162.318155 
L 341.613479 161.614247 
L 341.858132 159.728622 
L 342.102785 156.468692 
L 342.347438 160.418118 
L 342.592091 159.188925 
L 343.081397 154.532138 
L 343.32605 154.182042 
L 343.570703 153.151467 
L 344.060009 149.312131 
L 344.304662 145.420205 
L 344.549315 146.320546 
L 344.793968 144.289678 
L 345.038621 143.318694 
L 345.283274 140.804769 
L 345.527927 139.541955 
L 345.77258 134.873966 
L 346.506539 139.287536 
L 346.751192 137.848618 
L 346.995845 138.1919 
L 347.485151 141.670498 
L 347.729804 141.402433 
L 348.21911 141.909366 
L 348.463763 142.363317 
L 348.708416 140.131889 
L 348.953069 140.928525 
L 349.197722 144.601727 
L 349.687028 143.220402 
L 349.931681 145.319543 
L 350.176334 145.257469 
L 350.420987 143.417806 
L 350.910293 142.453973 
L 351.154946 143.972476 
L 351.399599 144.241213 
L 351.644252 141.836707 
L 351.888905 143.563853 
L 352.133558 143.06267 
L 352.378211 141.333116 
L 352.622864 143.159729 
L 352.867517 142.043819 
L 353.11217 144.95593 
L 353.356823 145.698539 
L 353.601476 141.568884 
L 353.846129 142.919573 
L 354.580088 139.468082 
L 355.069394 135.708854 
L 355.314047 138.798338 
L 355.803353 134.354562 
L 356.048006 137.702385 
L 356.292659 135.892089 
L 356.781965 136.930187 
L 357.026618 134.243875 
L 357.515924 131.829287 
L 357.760577 137.784771 
L 358.00523 135.609331 
L 358.494536 137.292026 
L 358.739189 136.830514 
L 358.983842 141.486667 
L 359.228495 143.534729 
L 359.717801 134.684757 
L 359.962454 135.788943 
L 360.451761 131.251076 
L 360.696414 132.18084 
L 360.941067 131.755564 
L 361.18572 130.531132 
L 361.430373 131.759167 
L 361.675026 127.684081 
L 361.919679 129.310303 
L 362.164332 132.000685 
L 362.653638 127.745632 
L 362.898291 127.578864 
L 363.142944 128.241252 
L 363.63225 124.823477 
L 363.876903 121.309987 
L 364.121556 119.677996 
L 364.366209 116.594113 
L 364.610862 117.762762 
L 364.855515 116.319046 
L 365.100168 116.197886 
L 365.344821 113.087866 
L 365.589474 115.605095 
L 365.834127 116.830647 
L 366.07878 115.783849 
L 366.323433 118.54969 
L 366.568086 117.945026 
L 366.812739 116.837461 
L 367.057392 113.244311 
L 367.302045 113.774841 
L 367.546698 112.574044 
L 368.280657 107.312611 
L 368.52531 107.700101 
L 368.769963 105.280958 
L 369.014616 104.397195 
L 369.259269 105.869866 
L 369.503922 102.583389 
L 369.748575 103.356035 
L 369.993228 101.229097 
L 370.237881 100.958978 
L 370.482534 100.332937 
L 370.727187 72.978582 
L 370.97184 64.470269 
L 371.216493 65.665017 
L 371.461146 63.901262 
L 371.705799 68.333725 
L 371.950452 70.139783 
L 372.195105 69.439945 
L 372.439758 70.583728 
L 372.684411 67.206893 
L 372.929064 68.387752 
L 373.173717 74.761025 
L 373.41837 75.754486 
L 374.152329 68.459739 
L 374.641635 72.07658 
L 375.130941 71.844116 
L 375.375594 67.186152 
L 375.620247 69.213026 
L 375.8649 68.368747 
L 376.109553 71.487859 
L 376.354206 70.271865 
L 376.598859 66.189667 
L 376.843512 66.360916 
L 377.088165 67.550437 
L 377.332818 66.123953 
L 377.822124 73.214127 
L 378.556083 66.12763 
L 378.800736 66.41429 
L 379.045389 65.258522 
L 379.779348 51.229465 
L 380.024001 52.531447 
L 380.268654 48.336881 
L 380.513307 47.598212 
L 380.75796 47.479161 
L 381.002613 50.408654 
L 381.247266 50.313331 
L 381.491919 47.643111 
L 381.736572 49.73835 
L 381.981225 50.129387 
L 382.225878 47.365804 
L 382.470531 47.93959 
L 382.715184 47.489168 
L 382.959838 43.955571 
L 383.204491 44.42106 
L 383.449144 44.54517 
L 383.693797 41.210695 
L 383.93845 40.85244 
L 384.183103 39.7521 
L 384.427756 40.6979 
L 384.672409 42.12991 
L 384.917062 44.380698 
L 385.161715 42.320071 
L 385.406368 43.637977 
L 385.651021 36.639747 
L 385.895674 39.124604 
L 386.140327 34.414125 
L 386.38498 44.936207 
L 386.629633 42.611715 
L 386.874286 46.003503 
L 387.118939 42.843918 
L 387.363592 44.271746 
L 387.608245 43.935409 
L 387.852898 39.225079 
L 387.852898 39.225079 
" style="fill:none;stroke:#1f77b4;stroke-linecap:square;stroke-width:1.5;"/>
   </g>
   <g id="line2d_34">
    <path clip-path="url(#pc93420dcdd)" d="M 63.198352 268.363774 
L 63.687658 270.321342 
L 64.176964 272.670423 
L 64.421617 271.66717 
L 64.66627 271.569291 
L 64.910923 269.648428 
L 65.155576 269.477141 
L 65.400229 269.868654 
L 65.889535 269.978768 
L 66.134188 270.44369 
L 66.378841 271.349065 
L 66.623494 270.651681 
L 66.868147 270.321342 
L 67.1128 270.41922 
L 67.602106 271.679404 
L 67.846759 274.664695 
L 68.091412 273.771555 
L 68.580719 273.245458 
L 68.825372 273.343337 
L 69.070025 274.101894 
L 69.314678 273.392276 
L 69.559331 274.04072 
L 70.048637 271.654935 
L 70.29329 271.569291 
L 70.537943 273.783789 
L 70.782596 273.551328 
L 71.027249 273.930607 
L 71.271902 273.17205 
L 71.516555 273.539093 
L 71.761208 275.203026 
L 72.005861 274.554582 
L 72.250514 275.227495 
L 72.495167 275.288669 
L 72.984473 275.068443 
L 73.229126 275.863705 
L 73.473779 274.799277 
L 73.718432 274.982799 
L 73.963085 275.606774 
L 74.207738 275.092913 
L 74.452391 275.680183 
L 74.697044 275.276435 
L 74.941697 275.178556 
L 75.18635 274.01625 
L 75.431003 274.407764 
L 75.675656 274.32212 
L 75.920309 274.689164 
L 76.164962 274.089659 
L 76.409615 272.84171 
L 76.654268 272.352318 
L 76.898921 270.847438 
L 77.143574 270.663916 
L 77.388227 269.893124 
L 77.877533 270.578273 
L 78.122186 271.654935 
L 78.366839 271.789517 
L 78.611492 273.220989 
L 78.856145 273.747085 
L 79.100798 274.566816 
L 79.345451 274.138598 
L 79.590104 275.043973 
L 79.834757 274.603521 
L 80.07941 272.633718 
L 80.324063 274.970565 
L 80.568716 273.906137 
L 80.813369 271.128838 
L 81.058022 270.590507 
L 81.302675 270.994256 
L 81.547328 273.526859 
L 82.036634 274.163068 
L 82.281287 272.707127 
L 83.259899 269.880889 
L 83.504552 269.611724 
L 83.749205 270.101116 
L 83.993858 270.064411 
L 84.238511 269.868654 
L 84.483164 270.186759 
L 84.727817 270.150055 
L 84.97247 270.370281 
L 85.217123 270.235698 
L 85.951082 267.984496 
L 86.195735 268.412714 
L 86.440388 269.819715 
L 86.685041 270.186759 
L 87.174347 268.35154 
L 87.419 268.363774 
L 87.663653 267.519573 
L 87.908306 267.556278 
L 88.152959 267.800974 
L 88.397612 267.7398 
L 88.642265 267.972261 
L 88.886918 269.367028 
L 89.131571 268.547296 
L 89.376224 266.455146 
L 89.86553 265.696589 
L 90.354836 270.052176 
L 90.599489 266.834425 
L 90.844143 266.430677 
L 91.088796 268.791992 
L 91.333449 267.091356 
L 91.578102 266.614199 
L 91.822755 269.795246 
L 92.067408 268.669644 
L 92.312061 268.93881 
L 92.556714 270.015472 
L 92.801367 269.85642 
L 93.04602 268.596236 
L 93.290673 268.951045 
L 93.535326 270.211229 
L 93.779979 270.639447 
L 94.024632 269.489376 
L 94.269285 270.370281 
L 94.513938 269.146801 
L 94.758591 268.730818 
L 95.49255 266.014694 
L 95.981856 267.923322 
L 96.226509 267.776504 
L 96.471162 269.256915 
L 96.960468 268.951045 
L 97.205121 269.415967 
L 97.449774 269.256915 
L 97.694427 267.752035 
L 97.93908 266.956773 
L 98.183733 268.951045 
L 98.428386 268.192487 
L 98.673039 266.100337 
L 98.917692 266.663138 
L 99.162345 266.198215 
L 99.406998 266.430677 
L 99.651651 264.509814 
L 99.896304 263.995952 
L 100.140957 261.585697 
L 100.38561 261.365471 
L 100.874916 257.780675 
L 101.119569 257.058822 
L 101.364222 257.217875 
L 101.608875 255.003377 
L 101.853528 256.532726 
L 102.098181 256.128978 
L 102.342834 256.300265 
L 102.587487 257.572684 
L 102.83214 256.973179 
L 103.076793 256.936474 
L 103.321446 254.770915 
L 104.055405 256.447083 
L 104.300058 257.866319 
L 104.544711 257.535979 
L 104.789364 256.814126 
L 105.034017 255.321481 
L 106.257282 251.993617 
L 106.501935 254.587393 
L 106.746588 254.440576 
L 106.991241 254.685272 
L 107.235894 255.382655 
L 107.480547 253.131453 
L 107.7252 254.379402 
L 107.969853 252.862287 
L 108.214506 249.620066 
L 108.703812 247.148637 
L 108.948465 248.310943 
L 109.193118 248.910448 
L 109.437771 249.191848 
L 109.682424 247.931664 
L 109.927077 246.05974 
L 110.416383 244.775087 
L 110.661036 245.692696 
L 110.905689 244.995313 
L 111.150342 245.448 
L 111.394995 244.811791 
L 111.884301 242.046727 
L 112.128954 242.585058 
L 112.373607 239.722116 
L 112.61826 239.966812 
L 112.862913 239.930107 
L 113.107566 240.93336 
L 113.35222 238.706628 
L 113.841526 238.266175 
L 114.086179 239.514124 
L 114.330832 237.740079 
L 114.575485 239.599768 
L 114.820138 237.495383 
L 115.309444 240.248212 
L 115.554097 238.694393 
L 115.79875 235.354293 
L 116.043403 235.660163 
L 116.288056 236.259668 
L 116.532709 237.324095 
L 116.777362 235.758042 
L 117.022015 236.16179 
L 117.511321 233.408961 
L 118.000627 238.84121 
L 118.24528 238.425227 
L 118.489933 241.031239 
L 118.734586 240.027986 
L 119.223892 234.546797 
L 119.468545 235.415467 
L 119.713198 234.436683 
L 119.957851 236.602242 
L 120.447157 233.262143 
L 120.69181 233.054151 
L 120.936463 232.674873 
L 121.181116 231.671619 
L 121.425769 229.983218 
L 121.670422 236.112851 
L 121.915075 231.475863 
L 122.159728 233.225439 
L 122.404381 232.54029 
L 122.649034 229.065608 
L 122.893687 229.885339 
L 123.13834 230.007687 
L 123.382993 228.869851 
L 123.627646 229.897574 
L 123.872299 230.203444 
L 124.361605 232.51582 
L 124.606258 231.390219 
L 124.850911 232.161011 
L 125.340217 228.735268 
L 125.829523 229.787461 
L 126.563482 231.879611 
L 126.808135 233.213204 
L 127.052788 230.778479 
L 127.542094 235.060658 
L 127.786747 234.155283 
L 128.0314 232.625934 
L 128.276053 232.736047 
L 128.520706 233.616952 
L 128.765359 232.112072 
L 129.010012 231.696089 
L 129.254665 231.634915 
L 129.499318 234.473388 
L 129.743971 234.399979 
L 129.988624 232.369003 
L 130.233277 233.604717 
L 130.722583 230.607192 
L 130.967236 230.264618 
L 131.211889 230.974236 
L 131.945848 227.10804 
L 132.190501 226.410657 
L 132.435154 224.538733 
L 132.679807 219.228831 
L 133.169113 215.888732 
L 133.413766 215.105705 
L 133.658419 218.054291 
L 133.903072 216.977629 
L 134.147725 215.154644 
L 134.392378 215.754149 
L 134.637031 214.689722 
L 134.881684 215.472749 
L 135.126337 216.989864 
L 135.37099 216.683994 
L 135.615643 216.57388 
L 135.860297 219.754928 
L 136.10495 217.356907 
L 136.349603 217.980882 
L 136.838909 220.697007 
L 137.083562 215.276992 
L 137.328215 216.402593 
L 137.572868 214.591843 
L 137.817521 216.157897 
L 138.306827 211.129396 
L 138.55148 210.847996 
L 138.796133 212.132649 
L 139.040786 210.896935 
L 139.285439 202.895378 
L 139.530092 202.944317 
L 139.774745 200.240427 
L 140.019398 201.843185 
L 140.264051 202.112351 
L 140.508704 202.087881 
L 140.753357 201.084628 
L 140.99801 197.989224 
L 141.242663 198.28286 
L 141.487316 197.328545 
L 141.731969 197.915816 
L 141.976622 199.848914 
L 142.221275 197.426424 
L 142.465928 198.600964 
L 142.710581 198.84566 
L 142.955234 197.817937 
L 143.199887 195.468856 
L 143.44454 194.257611 
L 143.689193 191.468078 
L 143.933846 193.15648 
L 144.178499 198.698843 
L 144.423152 198.111572 
L 144.667805 194.392194 
L 144.912458 198.025929 
L 145.157111 195.848135 
L 145.401764 195.921544 
L 145.646417 196.496579 
L 145.89107 196.606692 
L 146.135723 199.249408 
L 146.380376 199.861148 
L 146.625029 198.356268 
L 146.869682 195.358743 
L 147.114335 195.970483 
L 147.603641 198.56426 
L 147.848294 198.074868 
L 148.582253 194.502307 
L 149.071559 195.370978 
L 149.316212 193.535758 
L 149.560865 193.866098 
L 149.805518 193.340002 
L 150.050171 191.578191 
L 150.539477 194.453368 
L 150.78413 193.755985 
L 151.028783 193.535758 
L 151.518089 191.406904 
L 151.762742 188.837597 
L 152.007395 188.458318 
L 152.252048 186.85556 
L 152.496701 187.13696 
L 152.986007 189.449336 
L 153.23066 188.703014 
L 153.475313 189.20464 
L 153.719966 188.898771 
L 153.964619 187.41836 
L 154.209272 184.114965 
L 154.453925 187.858813 
L 154.698578 193.560228 
L 154.943231 192.691558 
L 155.187884 193.021897 
L 155.432537 201.965533 
L 155.67719 205.941842 
L 155.921843 207.495661 
L 156.166496 210.162847 
L 156.655802 212.218293 
L 156.900455 210.664474 
L 157.145108 205.342337 
L 157.389761 205.17105 
L 157.634414 201.500611 
L 157.879067 203.984275 
L 158.12372 202.308108 
L 158.613027 200.925576 
L 158.85768 203.66617 
L 159.102333 202.234699 
L 159.346986 203.800753 
L 159.591639 202.197994 
L 159.836292 205.635972 
L 160.080945 205.843964 
L 160.325598 203.458179 
L 160.570251 203.017726 
L 160.814904 203.874162 
L 161.059557 201.414967 
L 161.30421 203.176778 
L 161.548863 203.091135 
L 161.793516 203.482648 
L 162.282822 206.994035 
L 162.527475 208.51115 
L 162.772128 211.618788 
L 163.016781 210.126143 
L 163.261434 207.299905 
L 163.75074 211.19057 
L 163.995393 209.367585 
L 164.240046 210.774587 
L 164.729352 209.012776 
L 165.218658 210.003795 
L 165.707964 207.214261 
L 165.952617 203.886396 
L 166.19727 203.764048 
L 166.441923 203.189013 
L 167.175882 208.853724 
L 167.420535 205.513624 
L 167.665188 209.477698 
L 167.909841 211.398562 
L 168.6438 206.541347 
L 168.888453 204.241205 
L 169.133106 204.363553 
L 169.377759 204.693893 
L 169.622412 200.925576 
L 169.867065 201.867655 
L 170.356371 205.317868 
L 170.601024 203.69064 
L 170.845677 202.895378 
L 171.09033 203.580526 
L 171.579636 199.298348 
L 171.824289 200.68088 
L 172.068942 201.26815 
L 172.313595 200.998984 
L 172.558248 200.35054 
L 173.047554 197.475363 
L 173.292207 198.038164 
L 173.53686 200.215957 
L 173.781513 200.705349 
L 174.026166 200.04467 
L 174.270819 202.210229 
L 174.760125 199.445165 
L 175.004778 198.747782 
L 175.249431 196.594458 
L 175.494084 196.398701 
L 175.738737 195.407682 
L 175.98339 195.2731 
L 176.228043 194.477838 
L 176.472696 194.502307 
L 176.717349 195.175221 
L 177.206655 191.602661 
L 177.451308 191.95747 
L 177.695961 192.82614 
L 178.185267 199.016947 
L 178.42992 198.894599 
L 178.674573 198.588729 
L 178.919226 198.698843 
L 179.163879 198.662138 
L 179.408532 198.246155 
L 179.653185 199.127061 
L 180.142491 202.736326 
L 180.387144 205.293398 
L 180.876451 203.482648 
L 181.121104 205.085406 
L 181.365757 203.959805 
L 181.61041 204.608249 
L 182.099716 202.809734 
L 182.344369 205.623738 
L 182.833675 205.623738 
L 183.322981 202.283638 
L 183.567634 202.797499 
L 184.05694 206.737104 
L 184.301593 204.58378 
L 184.546246 203.776283 
L 184.790899 202.014473 
L 185.280205 208.547854 
L 185.524858 210.016029 
L 185.769511 210.187317 
L 186.014164 211.092692 
L 186.258817 211.129396 
L 186.50347 213.343894 
L 186.748123 213.466242 
L 186.992776 214.016808 
L 187.237429 212.377345 
L 187.482082 215.962141 
L 187.726735 214.126921 
L 187.971388 213.160372 
L 188.216041 212.952381 
L 188.460694 213.356129 
L 188.95 208.902663 
L 189.194653 210.064969 
L 189.439306 207.838236 
L 189.683959 207.104148 
L 189.928612 204.938589 
L 190.173265 204.755067 
L 190.417918 204.804006 
L 190.662571 203.739579 
L 190.907224 203.409239 
L 191.151877 203.898631 
L 191.39653 205.232224 
L 191.641183 205.611503 
L 191.885836 207.226496 
L 192.130489 206.663695 
L 192.375142 207.250965 
L 192.619795 208.193045 
L 192.864448 204.167797 
L 193.109101 203.886396 
L 193.353754 203.874162 
L 194.087713 206.211008 
L 194.332366 204.975293 
L 194.577019 204.436962 
L 195.066325 202.49163 
L 195.310978 203.397005 
L 195.555631 204.901885 
L 195.800284 203.433709 
L 196.044937 205.19552 
L 196.28959 203.299126 
L 196.534243 203.201248 
L 196.778896 204.901885 
L 197.023549 208.217514 
L 197.268202 208.829254 
L 197.512855 206.149834 
L 197.757508 206.272182 
L 198.002161 209.869212 
L 198.246814 207.838236 
L 198.73612 212.095945 
L 198.980773 213.380599 
L 199.225426 211.129396 
L 199.470079 213.698703 
L 199.714732 213.576355 
L 199.959385 209.96709 
L 200.204038 208.657967 
L 200.448691 205.219989 
L 200.693344 212.157119 
L 200.937997 211.447501 
L 201.18265 211.19057 
L 201.427303 211.337388 
L 201.671956 209.514403 
L 201.916609 210.162847 
L 202.161262 209.257472 
L 202.650568 206.553582 
L 202.895221 206.786043 
L 203.139875 208.76808 
L 203.384528 208.327628 
L 203.629181 208.48668 
L 203.873834 208.254219 
L 204.36314 206.749339 
L 204.607793 203.494883 
L 204.852446 203.091135 
L 205.097099 203.629466 
L 205.341752 200.888871 
L 205.586405 199.726566 
L 205.831058 199.616452 
L 206.075711 198.295094 
L 206.320364 196.056127 
L 206.565017 195.811431 
L 206.80967 195.848135 
L 207.054323 196.361996 
L 207.298976 198.772251 
L 207.543629 198.906834 
L 207.788282 199.286113 
L 208.032935 200.081375 
L 208.277588 198.992478 
L 208.522241 201.353794 
L 208.766894 202.112351 
L 209.011547 208.254219 
L 209.2562 209.808038 
L 209.500853 212.989085 
L 209.745506 211.386327 
L 209.990159 208.731376 
L 210.479465 206.994035 
L 210.724118 206.308886 
L 211.213424 201.659663 
L 211.458077 200.179253 
L 211.70273 199.702096 
L 211.947383 198.894599 
L 212.192036 199.4574 
L 212.436689 201.720837 
L 212.681342 201.757542 
L 212.925995 202.858673 
L 213.170648 204.718363 
L 213.659954 199.494104 
L 213.904607 199.812209 
L 214.14926 200.631941 
L 214.393913 200.264897 
L 214.638566 201.231446 
L 214.883219 201.525081 
L 215.372525 200.203723 
L 215.617178 198.747782 
L 215.861831 194.795943 
L 216.59579 198.662138 
L 217.085096 179.942899 
L 217.329749 182.891485 
L 217.819055 180.481231 
L 218.063708 180.628048 
L 218.308361 178.939646 
L 218.797667 180.187595 
L 219.04232 179.624795 
L 219.286973 179.771612 
L 219.531626 179.563621 
L 219.776279 177.557114 
L 220.020932 177.324653 
L 220.265585 175.795303 
L 220.510238 172.638726 
L 220.754891 167.059659 
L 220.999544 171.427481 
L 221.244197 171.867934 
L 221.978156 176.186817 
L 222.467462 170.411993 
L 222.712115 171.904638 
L 222.956768 171.757821 
L 223.201421 173.409518 
L 223.446074 171.415246 
L 223.690727 174.265954 
L 223.93538 175.795303 
L 224.180033 174.730876 
L 224.424686 175.305912 
L 224.669339 172.736604 
L 225.158645 170.216236 
L 225.403298 172.198273 
L 225.647952 171.721116 
L 226.137258 175.208033 
L 226.381911 179.392334 
L 226.626564 179.465742 
L 226.871217 178.633776 
L 227.11587 173.92338 
L 227.605176 178.890707 
L 227.849829 178.10768 
L 228.339135 174.388302 
L 228.583788 173.115883 
L 228.828441 173.042474 
L 229.073094 171.867934 
L 229.317747 173.262701 
L 229.5624 173.299405 
L 230.051706 174.81652 
L 230.296359 177.716166 
L 230.541012 173.960084 
L 230.785665 173.152587 
L 231.274971 177.385827 
L 231.519624 179.184342 
L 231.764277 179.91843 
L 232.00893 180.273239 
L 232.253583 181.937171 
L 232.498236 185.375149 
L 232.742889 183.747921 
L 232.987542 184.543183 
L 233.232195 185.901245 
L 233.476848 188.189152 
L 233.721501 187.638587 
L 233.966154 182.781372 
L 234.210807 182.255276 
L 234.45546 182.818077 
L 234.700113 182.585616 
L 234.944766 179.722673 
L 235.189419 181.044031 
L 235.434072 181.252023 
L 235.678725 180.83604 
L 235.923378 181.606832 
L 236.168031 180.468996 
L 236.657337 186.035828 
L 236.90199 185.791132 
L 237.146643 186.610864 
L 237.391296 188.825362 
L 237.635949 187.932222 
L 237.880602 185.485262 
L 238.125255 184.800114 
L 238.369908 188.00563 
L 238.614561 188.568431 
L 238.859214 188.678544 
L 239.103867 189.339223 
L 239.593173 185.840071 
L 239.837826 186.035828 
L 240.082479 186.659803 
L 240.327132 186.598629 
L 240.571785 185.265036 
L 240.816438 182.879251 
L 241.061091 183.185121 
L 241.305744 182.487737 
L 242.039703 186.464046 
L 242.284356 186.427342 
L 242.529009 191.01539 
L 242.773662 191.027625 
L 243.018315 188.568431 
L 243.262968 189.20464 
L 243.507621 188.825362 
L 243.752274 185.60761 
L 243.996927 187.11249 
L 244.24158 186.035828 
L 244.975539 179.979604 
L 245.220192 181.031796 
L 245.464845 179.074229 
L 245.709498 181.09297 
L 245.954151 181.239788 
L 246.198804 183.344173 
L 246.443457 181.545658 
L 246.68811 181.98611 
L 246.932763 184.494244 
L 247.177416 188.201387 
L 247.422069 187.247073 
L 247.666722 184.396365 
L 247.911375 185.778897 
L 248.156029 184.359661 
L 248.400682 184.946931 
L 248.645335 185.130453 
L 248.889988 183.405347 
L 249.379294 186.50075 
L 249.623947 182.29198 
L 250.113253 186.488516 
L 250.357906 183.576634 
L 250.602559 183.23406 
L 250.847212 184.029322 
L 251.091865 183.833565 
L 251.336518 186.133707 
L 252.070477 205.134346 
L 252.31513 207.214261 
L 252.804436 199.408461 
L 253.049089 197.732294 
L 253.538395 204.828476 
L 253.783048 200.925576 
L 254.027701 200.448419 
L 254.272354 201.990003 
L 254.517007 197.022676 
L 254.76166 198.454147 
L 255.250966 195.982718 
L 255.495619 196.276353 
L 255.740272 193.988446 
L 255.984925 192.887314 
L 256.229578 192.581444 
L 256.474231 194.245377 
L 256.718884 194.33102 
L 257.452843 202.002238 
L 257.697496 200.460653 
L 257.942149 203.984275 
L 258.186802 203.225717 
L 258.431455 200.534062 
L 258.676108 200.950045 
L 259.165414 196.77798 
L 259.410067 196.031657 
L 259.899373 190.636112 
L 260.144026 189.828615 
L 260.388679 188.629605 
L 260.633332 189.106762 
L 260.877985 196.533284 
L 261.122638 192.654853 
L 261.367291 192.397922 
L 261.856597 190.831868 
L 262.10125 188.00563 
L 262.345903 181.741415 
L 262.590556 181.264257 
L 262.835209 181.264257 
L 263.079862 179.110933 
L 263.569168 180.676987 
L 263.813821 179.58809 
L 264.058474 179.184342 
L 264.303127 179.563621 
L 264.54778 179.441273 
L 264.792433 179.710438 
L 265.037086 179.747143 
L 265.281739 182.145163 
L 265.526392 183.160651 
L 265.771045 183.356408 
L 266.015698 186.353933 
L 266.260351 186.292759 
L 267.238963 178.156619 
L 267.483616 177.960862 
L 267.728269 179.257751 
L 267.972922 178.878472 
L 268.217575 180.371117 
L 268.462228 180.958388 
L 268.706881 182.793607 
L 268.951534 179.991839 
L 269.196187 180.946153 
L 269.44084 182.659024 
L 269.685493 179.061994 
L 269.930146 179.123168 
L 270.174799 183.356408 
L 270.419452 184.274017 
L 270.664106 181.619067 
L 271.153412 185.791132 
L 271.398065 181.472249 
L 271.642718 179.539151 
L 271.887371 182.659024 
L 272.132024 189.975433 
L 272.865983 184.494244 
L 273.110636 185.142688 
L 273.355289 183.906974 
L 273.599942 180.468996 
L 273.844595 181.619067 
L 274.089248 183.8458 
L 274.333901 188.849831 
L 274.578554 188.152448 
L 274.823207 190.893042 
L 275.06786 198.013694 
L 275.312513 201.708603 
L 275.557166 201.439437 
L 275.801819 199.347287 
L 276.046472 203.99651 
L 276.291125 202.675152 
L 276.535778 207.042974 
L 276.780431 206.516878 
L 277.025084 211.312918 
L 277.51439 208.290923 
L 277.759043 209.025011 
L 278.003696 204.131092 
L 278.248349 218.115465 
L 278.493002 216.365889 
L 278.982308 212.022536 
L 279.226961 216.965394 
L 279.471614 211.643257 
L 279.716267 209.514403 
L 279.96092 210.799056 
L 280.205573 214.579609 
L 280.450226 215.301462 
L 280.694879 218.38463 
L 280.939532 228.074589 
L 281.184185 227.842128 
L 281.673491 218.4091 
L 281.918144 216.90422 
L 282.162797 219.852806 
L 282.40745 217.124446 
L 282.652103 217.723951 
L 282.896756 219.32671 
L 283.386062 216.182367 
L 283.630715 216.157897 
L 283.875368 213.980104 
L 284.120021 214.359382 
L 284.364674 214.408321 
L 284.85398 210.383073 
L 285.098633 211.055987 
L 285.343286 210.432013 
L 285.587939 210.334134 
L 286.077245 206.174303 
L 286.321898 206.149834 
L 286.566551 204.669423 
L 287.30051 194.526777 
L 287.545163 195.432152 
L 287.789816 198.197216 
L 288.523775 200.619706 
L 289.013081 205.440216 
L 289.257734 205.415746 
L 289.502387 206.174303 
L 289.991693 204.228971 
L 290.236346 205.366807 
L 290.480999 204.290145 
L 290.725652 204.25344 
L 291.214958 200.301601 
L 291.459611 200.65641 
L 291.704264 200.313836 
L 292.19357 198.417442 
L 292.438223 200.998984 
L 292.682876 200.790993 
L 292.92753 200.411714 
L 293.172183 200.778758 
L 293.416836 197.732294 
L 293.661489 193.034132 
L 293.906142 195.823665 
L 294.150795 195.823665 
L 294.395448 196.790214 
L 294.884754 200.607471 
L 295.37406 197.707824 
L 295.618713 199.127061 
L 295.863366 195.921544 
L 296.108019 198.025929 
L 296.352672 196.288588 
L 296.597325 199.102591 
L 296.841978 196.631162 
L 297.331284 200.485123 
L 297.575937 204.045449 
L 297.82059 204.88965 
L 298.065243 204.657189 
L 298.309896 204.755067 
L 298.554549 203.091135 
L 298.799202 202.540569 
L 299.043855 202.650682 
L 299.288508 206.406764 
L 299.533161 206.08866 
L 300.022467 204.901885 
L 300.26712 199.371756 
L 300.511773 199.335052 
L 300.756426 198.025929 
L 301.001079 197.903581 
L 301.490385 201.794246 
L 301.735038 201.084628 
L 301.979691 201.500611 
L 302.224344 202.46716 
L 302.468997 201.916594 
L 302.71365 198.331799 
L 302.958303 199.836679 
L 303.202956 199.530809 
L 303.447609 197.353015 
L 303.692262 205.954077 
L 303.936915 210.627769 
L 304.181568 209.171829 
L 304.670874 201.85542 
L 304.915527 202.075646 
L 305.16018 205.403511 
L 305.404833 205.415746 
L 305.649486 205.158815 
L 306.138792 199.200469 
L 306.628098 201.561785 
L 307.117404 198.772251 
L 307.60671 195.994953 
L 307.851363 195.921544 
L 308.096016 197.377485 
L 308.340669 197.450893 
L 308.585322 198.099338 
L 309.074628 194.404429 
L 309.319281 198.013694 
L 309.563934 197.218432 
L 309.808587 197.768998 
L 310.05324 199.7388 
L 310.297893 199.408461 
L 310.542546 200.215957 
L 311.276505 198.490851 
L 311.521158 198.906834 
L 311.765811 198.025929 
L 312.010464 197.903581 
L 312.255117 195.994953 
L 312.49977 195.57897 
L 312.744423 195.921544 
L 312.989076 195.57897 
L 313.233729 196.264118 
L 313.478382 195.591204 
L 313.967688 197.67112 
L 314.212341 198.050398 
L 314.456994 198.968008 
L 314.701647 198.148277 
L 315.190953 202.369282 
L 315.435607 201.818716 
L 315.924913 198.038164 
L 316.169566 198.466382 
L 316.414219 198.148277 
L 316.658872 203.494883 
L 316.903525 201.54955 
L 317.392831 204.547075 
L 317.637484 204.424727 
L 317.882137 205.733851 
L 318.12679 204.779537 
L 318.371443 204.400258 
L 318.616096 201.011219 
L 318.860749 199.408461 
L 319.105402 199.518574 
L 319.350055 200.998984 
L 319.839361 198.968008 
L 320.084014 200.436184 
L 320.57332 198.784486 
L 320.817973 198.943539 
L 321.062626 195.994953 
L 321.307279 196.288588 
L 321.551932 196.985971 
L 321.796585 194.551247 
L 322.041238 197.120554 
L 322.285891 197.830172 
L 322.775197 197.414189 
L 323.01985 196.802449 
L 323.509156 194.135264 
L 323.998462 194.808177 
L 324.487768 190.660581 
L 324.732421 182.683494 
L 324.977074 185.411854 
L 325.221727 185.778897 
L 325.46638 186.488516 
L 325.711033 186.512985 
L 325.955686 188.543961 
L 326.444992 190.024372 
L 326.689645 185.754428 
L 326.934298 186.769916 
L 327.423604 180.053013 
L 327.668257 179.037525 
L 327.91291 177.239009 
L 328.402216 181.582362 
L 328.646869 182.940425 
L 329.136175 180.872744 
L 329.380828 177.814045 
L 329.870134 177.177835 
L 330.114787 177.508175 
L 330.35944 175.220268 
L 330.604093 176.541626 
L 330.848746 174.302658 
L 331.338052 174.584059 
L 331.582705 174.48618 
L 332.072011 170.632219 
L 332.561317 168.46666 
L 332.80597 169.0784 
L 333.050623 171.757821 
L 333.295276 172.614256 
L 333.539929 171.721116 
L 333.784582 169.66567 
L 334.029235 169.40874 
L 334.273888 168.075147 
L 334.518541 168.099616 
L 334.763194 167.671398 
L 335.007847 168.075147 
L 335.2525 169.763549 
L 335.497153 170.265175 
L 335.741806 170.27741 
L 336.231112 166.68038 
L 336.475765 166.570267 
L 336.720418 166.09311 
L 336.965071 167.047424 
L 337.209724 166.129814 
L 337.454377 165.726066 
L 337.69903 167.084128 
L 337.943684 166.423449 
L 338.188337 167.842686 
L 338.922296 165.567013 
L 339.166949 167.634694 
L 339.411602 164.319064 
L 339.656255 155.987168 
L 339.900908 153.833844 
L 340.145561 155.571185 
L 340.634867 160.807678 
L 340.87952 160.134764 
L 341.124173 162.226914 
L 341.368826 162.055627 
L 341.613479 160.122529 
L 341.858132 157.03936 
L 342.102785 160.330521 
L 342.347438 159.755485 
L 342.836744 155.167436 
L 343.081397 154.592401 
L 343.32605 153.613617 
L 343.815356 149.441552 
L 344.060009 145.954635 
L 344.304662 146.19933 
L 344.549315 144.364111 
L 344.793968 143.654493 
L 345.038621 141.219768 
L 345.283274 140.240985 
L 345.527927 135.738579 
L 346.261886 139.384549 
L 346.506539 138.050956 
L 346.751192 138.39353 
L 346.995845 139.825001 
L 347.240498 142.112908 
L 347.485151 141.684691 
L 347.729804 142.076204 
L 347.974457 142.100674 
L 348.21911 142.736883 
L 348.463763 140.400037 
L 348.708416 141.268707 
L 348.953069 145.465243 
L 349.197722 144.217293 
L 349.442375 143.874719 
L 349.687028 145.63653 
L 349.931681 145.293956 
L 350.176334 143.752371 
L 350.66564 142.993814 
L 350.910293 144.364111 
L 351.154946 144.621042 
L 351.399599 142.112908 
L 351.644252 144.094945 
L 351.888905 143.740136 
L 352.133558 141.929386 
L 352.378211 143.507675 
L 352.622864 142.271961 
L 352.867517 145.355129 
L 353.11217 145.881226 
L 353.356823 141.721395 
L 353.601476 143.152866 
L 353.846129 142.479952 
L 354.335435 140.057463 
L 354.824741 136.227971 
L 355.069394 138.430235 
L 355.5587 134.612978 
L 355.803353 137.598268 
L 356.048006 136.313615 
L 356.292659 136.374789 
L 356.537312 136.766302 
L 356.781965 134.392752 
L 357.271271 132.06814 
L 357.515924 136.63172 
L 357.760577 135.701875 
L 358.249883 137.598268 
L 358.494536 137.21899 
L 358.739189 142.01503 
L 358.983842 143.703432 
L 359.473148 136.032214 
L 359.717801 136.252441 
L 360.207107 131.872384 
L 360.451761 132.459654 
L 360.696414 132.104845 
L 360.941067 131.187235 
L 361.18572 131.566514 
L 361.430373 128.006188 
L 361.675026 129.572242 
L 361.919679 132.263897 
L 362.408985 128.373232 
L 362.653638 128.250884 
L 362.898291 128.287588 
L 363.387597 125.375707 
L 363.63225 121.619624 
L 363.876903 120.408379 
L 364.121556 117.178393 
L 364.366209 118.096003 
L 364.610862 117.06828 
L 364.855515 116.73794 
L 365.100168 113.324432 
L 365.344821 116.077261 
L 365.589474 117.410854 
L 365.834127 116.517714 
L 366.07878 119.16043 
L 366.323433 118.805621 
L 366.568086 117.777898 
L 366.812739 113.838293 
L 367.057392 114.242042 
L 367.302045 113.153145 
L 368.036004 108.173583 
L 368.280657 108.430513 
L 368.52531 105.64098 
L 368.769963 105.041475 
L 369.014616 105.971319 
L 369.259269 102.741333 
L 369.503922 103.475421 
L 369.748575 101.199749 
L 369.993228 101.150809 
L 370.237881 100.808235 
L 370.482534 75.127397 
L 370.727187 65.890126 
L 370.97184 65.559786 
L 371.216493 64.103845 
L 371.461146 67.798754 
L 371.705799 69.621739 
L 371.950452 69.254695 
L 372.195105 69.915374 
L 372.439758 66.832205 
L 372.684411 67.725345 
L 372.929064 74.075205 
L 373.173717 75.82478 
L 373.907676 68.129093 
L 374.396982 72.509151 
L 374.641635 72.288924 
L 374.886288 72.399037 
L 375.130941 67.419475 
L 375.375594 69.450451 
L 375.620247 68.65519 
L 375.8649 72.142107 
L 376.109553 70.563818 
L 376.354206 66.5141 
L 376.598859 66.550805 
L 376.843512 67.529588 
L 377.088165 66.709857 
L 377.577471 73.695926 
L 377.822124 71.628245 
L 378.31143 66.391752 
L 378.556083 66.403987 
L 378.800736 64.75229 
L 379.534695 51.110491 
L 379.779348 51.869049 
L 380.024001 48.19861 
L 380.513307 46.987365 
L 380.75796 49.593377 
L 381.002613 50.351934 
L 381.247266 48.418836 
L 381.491919 49.654551 
L 381.736572 49.727959 
L 381.981225 47.550166 
L 382.225878 48.19861 
L 382.470531 47.831566 
L 382.715184 44.002074 
L 383.204491 44.613814 
L 383.449144 41.506176 
L 383.93845 40.307166 
L 384.672409 44.332414 
L 384.917062 42.595073 
L 385.161715 43.818553 
L 385.406368 36.832484 
L 385.651021 39.805539 
L 385.895674 35.303134 
L 386.140327 44.57711 
L 386.38498 43.537152 
L 386.629633 46.97513 
L 386.874286 43.561622 
L 387.118939 45.115441 
L 387.363592 44.479232 
L 387.608245 39.426261 
L 387.852898 40.502923 
L 387.852898 40.502923 
" style="fill:none;stroke:#ff7f0e;stroke-linecap:square;stroke-width:1.5;"/>
   </g>
   <g id="patch_3">
    <path d="M 46.965625 288.430125 
L 46.965625 22.318125 
" style="fill:none;stroke:#000000;stroke-linecap:square;stroke-linejoin:miter;stroke-width:0.8;"/>
   </g>
   <g id="patch_4">
    <path d="M 404.085625 288.430125 
L 404.085625 22.318125 
" style="fill:none;stroke:#000000;stroke-linecap:square;stroke-linejoin:miter;stroke-width:0.8;"/>
   </g>
   <g id="patch_5">
    <path d="M 46.965625 288.430125 
L 404.085625 288.430125 
" style="fill:none;stroke:#000000;stroke-linecap:square;stroke-linejoin:miter;stroke-width:0.8;"/>
   </g>
   <g id="patch_6">
    <path d="M 46.965625 22.318125 
L 404.085625 22.318125 
" style="fill:none;stroke:#000000;stroke-linecap:square;stroke-linejoin:miter;stroke-width:0.8;"/>
   </g>
   <g id="text_19">
    <!-- Training: BA -->
    <defs>
     <path d="M -0.296875 72.90625 
L 61.375 72.90625 
L 61.375 64.59375 
L 35.5 64.59375 
L 35.5 0 
L 25.59375 0 
L 25.59375 64.59375 
L -0.296875 64.59375 
z
" id="DejaVuSans-84"/>
     <path d="M 54.890625 33.015625 
L 54.890625 0 
L 45.90625 0 
L 45.90625 32.71875 
Q 45.90625 40.484375 42.875 44.328125 
Q 39.84375 48.1875 33.796875 48.1875 
Q 26.515625 48.1875 22.3125 43.546875 
Q 18.109375 38.921875 18.109375 30.90625 
L 18.109375 0 
L 9.078125 0 
L 9.078125 54.6875 
L 18.109375 54.6875 
L 18.109375 46.1875 
Q 21.34375 51.125 25.703125 53.5625 
Q 30.078125 56 35.796875 56 
Q 45.21875 56 50.046875 50.171875 
Q 54.890625 44.34375 54.890625 33.015625 
z
" id="DejaVuSans-110"/>
     <path d="M 45.40625 27.984375 
Q 45.40625 37.75 41.375 43.109375 
Q 37.359375 48.484375 30.078125 48.484375 
Q 22.859375 48.484375 18.828125 43.109375 
Q 14.796875 37.75 14.796875 27.984375 
Q 14.796875 18.265625 18.828125 12.890625 
Q 22.859375 7.515625 30.078125 7.515625 
Q 37.359375 7.515625 41.375 12.890625 
Q 45.40625 18.265625 45.40625 27.984375 
z
M 54.390625 6.78125 
Q 54.390625 -7.171875 48.1875 -13.984375 
Q 42 -20.796875 29.203125 -20.796875 
Q 24.46875 -20.796875 20.265625 -20.09375 
Q 16.0625 -19.390625 12.109375 -17.921875 
L 12.109375 -9.1875 
Q 16.0625 -11.328125 19.921875 -12.34375 
Q 23.78125 -13.375 27.78125 -13.375 
Q 36.625 -13.375 41.015625 -8.765625 
Q 45.40625 -4.15625 45.40625 5.171875 
L 45.40625 9.625 
Q 42.625 4.78125 38.28125 2.390625 
Q 33.9375 0 27.875 0 
Q 17.828125 0 11.671875 7.65625 
Q 5.515625 15.328125 5.515625 27.984375 
Q 5.515625 40.671875 11.671875 48.328125 
Q 17.828125 56 27.875 56 
Q 33.9375 56 38.28125 53.609375 
Q 42.625 51.21875 45.40625 46.390625 
L 45.40625 54.6875 
L 54.390625 54.6875 
z
" id="DejaVuSans-103"/>
     <path d="M 11.71875 12.40625 
L 22.015625 12.40625 
L 22.015625 0 
L 11.71875 0 
z
M 11.71875 51.703125 
L 22.015625 51.703125 
L 22.015625 39.3125 
L 11.71875 39.3125 
z
" id="DejaVuSans-58"/>
     <path d="M 19.671875 34.8125 
L 19.671875 8.109375 
L 35.5 8.109375 
Q 43.453125 8.109375 47.28125 11.40625 
Q 51.125 14.703125 51.125 21.484375 
Q 51.125 28.328125 47.28125 31.5625 
Q 43.453125 34.8125 35.5 34.8125 
z
M 19.671875 64.796875 
L 19.671875 42.828125 
L 34.28125 42.828125 
Q 41.5 42.828125 45.03125 45.53125 
Q 48.578125 48.25 48.578125 53.8125 
Q 48.578125 59.328125 45.03125 62.0625 
Q 41.5 64.796875 34.28125 64.796875 
z
M 9.8125 72.90625 
L 35.015625 72.90625 
Q 46.296875 72.90625 52.390625 68.21875 
Q 58.5 63.53125 58.5 54.890625 
Q 58.5 48.1875 55.375 44.234375 
Q 52.25 40.28125 46.1875 39.3125 
Q 53.46875 37.75 57.5 32.78125 
Q 61.53125 27.828125 61.53125 20.40625 
Q 61.53125 10.640625 54.890625 5.3125 
Q 48.25 0 35.984375 0 
L 9.8125 0 
z
" id="DejaVuSans-66"/>
     <path d="M 34.1875 63.1875 
L 20.796875 26.90625 
L 47.609375 26.90625 
z
M 28.609375 72.90625 
L 39.796875 72.90625 
L 67.578125 0 
L 57.328125 0 
L 50.6875 18.703125 
L 17.828125 18.703125 
L 11.1875 0 
L 0.78125 0 
z
" id="DejaVuSans-65"/>
    </defs>
    <g transform="translate(189.705625 16.318125)scale(0.12 -0.12)">
     <use xlink:href="#DejaVuSans-84"/>
     <use x="46.333984" xlink:href="#DejaVuSans-114"/>
     <use x="87.447266" xlink:href="#DejaVuSans-97"/>
     <use x="148.726562" xlink:href="#DejaVuSans-105"/>
     <use x="176.509766" xlink:href="#DejaVuSans-110"/>
     <use x="239.888672" xlink:href="#DejaVuSans-105"/>
     <use x="267.671875" xlink:href="#DejaVuSans-110"/>
     <use x="331.050781" xlink:href="#DejaVuSans-103"/>
     <use x="394.527344" xlink:href="#DejaVuSans-58"/>
     <use x="428.21875" xlink:href="#DejaVuSans-32"/>
     <use x="460.005859" xlink:href="#DejaVuSans-66"/>
     <use x="528.609375" xlink:href="#DejaVuSans-65"/>
    </g>
   </g>
   <g id="legend_1">
    <g id="patch_7">
     <path d="M 53.965625 59.674375 
L 137.69375 59.674375 
Q 139.69375 59.674375 139.69375 57.674375 
L 139.69375 29.318125 
Q 139.69375 27.318125 137.69375 27.318125 
L 53.965625 27.318125 
Q 51.965625 27.318125 51.965625 29.318125 
L 51.965625 57.674375 
Q 51.965625 59.674375 53.965625 59.674375 
z
" style="fill:#ffffff;opacity:0.8;stroke:#cccccc;stroke-linejoin:miter;"/>
    </g>
    <g id="line2d_35">
     <path d="M 55.965625 35.416562 
L 75.965625 35.416562 
" style="fill:none;stroke:#1f77b4;stroke-linecap:square;stroke-width:1.5;"/>
    </g>
    <g id="line2d_36"/>
    <g id="text_20">
     <!-- Predicted -->
     <defs>
      <path d="M 45.40625 46.390625 
L 45.40625 75.984375 
L 54.390625 75.984375 
L 54.390625 0 
L 45.40625 0 
L 45.40625 8.203125 
Q 42.578125 3.328125 38.25 0.953125 
Q 33.9375 -1.421875 27.875 -1.421875 
Q 17.96875 -1.421875 11.734375 6.484375 
Q 5.515625 14.40625 5.515625 27.296875 
Q 5.515625 40.1875 11.734375 48.09375 
Q 17.96875 56 27.875 56 
Q 33.9375 56 38.25 53.625 
Q 42.578125 51.265625 45.40625 46.390625 
z
M 14.796875 27.296875 
Q 14.796875 17.390625 18.875 11.75 
Q 22.953125 6.109375 30.078125 6.109375 
Q 37.203125 6.109375 41.296875 11.75 
Q 45.40625 17.390625 45.40625 27.296875 
Q 45.40625 37.203125 41.296875 42.84375 
Q 37.203125 48.484375 30.078125 48.484375 
Q 22.953125 48.484375 18.875 42.84375 
Q 14.796875 37.203125 14.796875 27.296875 
z
" id="DejaVuSans-100"/>
      <path d="M 18.3125 70.21875 
L 18.3125 54.6875 
L 36.8125 54.6875 
L 36.8125 47.703125 
L 18.3125 47.703125 
L 18.3125 18.015625 
Q 18.3125 11.328125 20.140625 9.421875 
Q 21.96875 7.515625 27.59375 7.515625 
L 36.8125 7.515625 
L 36.8125 0 
L 27.59375 0 
Q 17.1875 0 13.234375 3.875 
Q 9.28125 7.765625 9.28125 18.015625 
L 9.28125 47.703125 
L 2.6875 47.703125 
L 2.6875 54.6875 
L 9.28125 54.6875 
L 9.28125 70.21875 
z
" id="DejaVuSans-116"/>
     </defs>
     <g transform="translate(83.965625 38.916562)scale(0.1 -0.1)">
      <use xlink:href="#DejaVuSans-80"/>
      <use x="58.552734" xlink:href="#DejaVuSans-114"/>
      <use x="97.416016" xlink:href="#DejaVuSans-101"/>
      <use x="158.939453" xlink:href="#DejaVuSans-100"/>
      <use x="222.416016" xlink:href="#DejaVuSans-105"/>
      <use x="250.199219" xlink:href="#DejaVuSans-99"/>
      <use x="305.179688" xlink:href="#DejaVuSans-116"/>
      <use x="344.388672" xlink:href="#DejaVuSans-101"/>
      <use x="405.912109" xlink:href="#DejaVuSans-100"/>
     </g>
    </g>
    <g id="line2d_37">
     <path d="M 55.965625 50.094687 
L 75.965625 50.094687 
" style="fill:none;stroke:#ff7f0e;stroke-linecap:square;stroke-width:1.5;"/>
    </g>
    <g id="line2d_38"/>
    <g id="text_21">
     <!-- True value -->
     <defs>
      <path d="M 8.5 21.578125 
L 8.5 54.6875 
L 17.484375 54.6875 
L 17.484375 21.921875 
Q 17.484375 14.15625 20.5 10.265625 
Q 23.53125 6.390625 29.59375 6.390625 
Q 36.859375 6.390625 41.078125 11.03125 
Q 45.3125 15.671875 45.3125 23.6875 
L 45.3125 54.6875 
L 54.296875 54.6875 
L 54.296875 0 
L 45.3125 0 
L 45.3125 8.40625 
Q 42.046875 3.421875 37.71875 1 
Q 33.40625 -1.421875 27.6875 -1.421875 
Q 18.265625 -1.421875 13.375 4.4375 
Q 8.5 10.296875 8.5 21.578125 
z
M 31.109375 56 
z
" id="DejaVuSans-117"/>
      <path d="M 2.984375 54.6875 
L 12.5 54.6875 
L 29.59375 8.796875 
L 46.6875 54.6875 
L 56.203125 54.6875 
L 35.6875 0 
L 23.484375 0 
z
" id="DejaVuSans-118"/>
      <path d="M 9.421875 75.984375 
L 18.40625 75.984375 
L 18.40625 0 
L 9.421875 0 
z
" id="DejaVuSans-108"/>
     </defs>
     <g transform="translate(83.965625 53.594687)scale(0.1 -0.1)">
      <use xlink:href="#DejaVuSans-84"/>
      <use x="46.333984" xlink:href="#DejaVuSans-114"/>
      <use x="87.447266" xlink:href="#DejaVuSans-117"/>
      <use x="150.826172" xlink:href="#DejaVuSans-101"/>
      <use x="212.349609" xlink:href="#DejaVuSans-32"/>
      <use x="244.136719" xlink:href="#DejaVuSans-118"/>
      <use x="303.316406" xlink:href="#DejaVuSans-97"/>
      <use x="364.595703" xlink:href="#DejaVuSans-108"/>
      <use x="392.378906" xlink:href="#DejaVuSans-117"/>
      <use x="455.757812" xlink:href="#DejaVuSans-101"/>
     </g>
    </g>
   </g>
  </g>
 </g>
 <defs>
  <clipPath id="pc93420dcdd">
   <rect height="266.112" width="357.12" x="46.965625" y="22.318125"/>
  </clipPath>
 </defs>
</svg>
