<?xml version="1.0" encoding="utf-8" standalone="no"?>
<!DOCTYPE svg PUBLIC "-//W3C//DTD SVG 1.1//EN"
  "http://www.w3.org/Graphics/SVG/1.1/DTD/svg11.dtd">
<!-- Created with matplotlib (https://matplotlib.org/) -->
<svg height="325.986375pt" version="1.1" viewBox="0 0 404.923125 325.986375" width="404.923125pt" xmlns="http://www.w3.org/2000/svg" xmlns:xlink="http://www.w3.org/1999/xlink">
 <defs>
  <style type="text/css">
*{stroke-linecap:butt;stroke-linejoin:round;}
  </style>
 </defs>
 <g id="figure_1">
  <g id="patch_1">
   <path d="M 0 325.986375 
L 404.923125 325.986375 
L 404.923125 0 
L 0 0 
z
" style="fill:#ffffff;"/>
  </g>
  <g id="axes_1">
   <g id="patch_2">
    <path d="M 40.603125 288.430125 
L 397.723125 288.430125 
L 397.723125 22.318125 
L 40.603125 22.318125 
z
" style="fill:#ffffff;"/>
   </g>
   <g id="matplotlib.axis_1">
    <g id="xtick_1">
     <g id="line2d_1">
      <path clip-path="url(#p27fdc03d2a)" d="M 56.835852 288.430125 
L 56.835852 22.318125 
" style="fill:none;stroke:#b0b0b0;stroke-dasharray:2.96,1.28;stroke-dashoffset:0;stroke-width:0.8;"/>
     </g>
     <g id="line2d_2">
      <defs>
       <path d="M 0 0 
L 0 3.5 
" id="m4c4d20996b" style="stroke:#000000;stroke-width:0.8;"/>
      </defs>
      <g>
       <use style="stroke:#000000;stroke-width:0.8;" x="56.835852" xlink:href="#m4c4d20996b" y="288.430125"/>
      </g>
     </g>
     <g id="text_1">
      <!-- 0 -->
      <defs>
       <path d="M 31.78125 66.40625 
Q 24.171875 66.40625 20.328125 58.90625 
Q 16.5 51.421875 16.5 36.375 
Q 16.5 21.390625 20.328125 13.890625 
Q 24.171875 6.390625 31.78125 6.390625 
Q 39.453125 6.390625 43.28125 13.890625 
Q 47.125 21.390625 47.125 36.375 
Q 47.125 51.421875 43.28125 58.90625 
Q 39.453125 66.40625 31.78125 66.40625 
z
M 31.78125 74.21875 
Q 44.046875 74.21875 50.515625 64.515625 
Q 56.984375 54.828125 56.984375 36.375 
Q 56.984375 17.96875 50.515625 8.265625 
Q 44.046875 -1.421875 31.78125 -1.421875 
Q 19.53125 -1.421875 13.0625 8.265625 
Q 6.59375 17.96875 6.59375 36.375 
Q 6.59375 54.828125 13.0625 64.515625 
Q 19.53125 74.21875 31.78125 74.21875 
z
" id="DejaVuSans-48"/>
      </defs>
      <g transform="translate(53.654602 303.028562)scale(0.1 -0.1)">
       <use xlink:href="#DejaVuSans-48"/>
      </g>
     </g>
    </g>
    <g id="xtick_2">
     <g id="line2d_3">
      <path clip-path="url(#p27fdc03d2a)" d="M 105.766454 288.430125 
L 105.766454 22.318125 
" style="fill:none;stroke:#b0b0b0;stroke-dasharray:2.96,1.28;stroke-dashoffset:0;stroke-width:0.8;"/>
     </g>
     <g id="line2d_4">
      <g>
       <use style="stroke:#000000;stroke-width:0.8;" x="105.766454" xlink:href="#m4c4d20996b" y="288.430125"/>
      </g>
     </g>
     <g id="text_2">
      <!-- 200 -->
      <defs>
       <path d="M 19.1875 8.296875 
L 53.609375 8.296875 
L 53.609375 0 
L 7.328125 0 
L 7.328125 8.296875 
Q 12.9375 14.109375 22.625 23.890625 
Q 32.328125 33.6875 34.8125 36.53125 
Q 39.546875 41.84375 41.421875 45.53125 
Q 43.3125 49.21875 43.3125 52.78125 
Q 43.3125 58.59375 39.234375 62.25 
Q 35.15625 65.921875 28.609375 65.921875 
Q 23.96875 65.921875 18.8125 64.3125 
Q 13.671875 62.703125 7.8125 59.421875 
L 7.8125 69.390625 
Q 13.765625 71.78125 18.9375 73 
Q 24.125 74.21875 28.421875 74.21875 
Q 39.75 74.21875 46.484375 68.546875 
Q 53.21875 62.890625 53.21875 53.421875 
Q 53.21875 48.921875 51.53125 44.890625 
Q 49.859375 40.875 45.40625 35.40625 
Q 44.1875 33.984375 37.640625 27.21875 
Q 31.109375 20.453125 19.1875 8.296875 
z
" id="DejaVuSans-50"/>
      </defs>
      <g transform="translate(96.222704 303.028562)scale(0.1 -0.1)">
       <use xlink:href="#DejaVuSans-50"/>
       <use x="63.623047" xlink:href="#DejaVuSans-48"/>
       <use x="127.246094" xlink:href="#DejaVuSans-48"/>
      </g>
     </g>
    </g>
    <g id="xtick_3">
     <g id="line2d_5">
      <path clip-path="url(#p27fdc03d2a)" d="M 154.697057 288.430125 
L 154.697057 22.318125 
" style="fill:none;stroke:#b0b0b0;stroke-dasharray:2.96,1.28;stroke-dashoffset:0;stroke-width:0.8;"/>
     </g>
     <g id="line2d_6">
      <g>
       <use style="stroke:#000000;stroke-width:0.8;" x="154.697057" xlink:href="#m4c4d20996b" y="288.430125"/>
      </g>
     </g>
     <g id="text_3">
      <!-- 400 -->
      <defs>
       <path d="M 37.796875 64.3125 
L 12.890625 25.390625 
L 37.796875 25.390625 
z
M 35.203125 72.90625 
L 47.609375 72.90625 
L 47.609375 25.390625 
L 58.015625 25.390625 
L 58.015625 17.1875 
L 47.609375 17.1875 
L 47.609375 0 
L 37.796875 0 
L 37.796875 17.1875 
L 4.890625 17.1875 
L 4.890625 26.703125 
z
" id="DejaVuSans-52"/>
      </defs>
      <g transform="translate(145.153307 303.028562)scale(0.1 -0.1)">
       <use xlink:href="#DejaVuSans-52"/>
       <use x="63.623047" xlink:href="#DejaVuSans-48"/>
       <use x="127.246094" xlink:href="#DejaVuSans-48"/>
      </g>
     </g>
    </g>
    <g id="xtick_4">
     <g id="line2d_7">
      <path clip-path="url(#p27fdc03d2a)" d="M 203.627659 288.430125 
L 203.627659 22.318125 
" style="fill:none;stroke:#b0b0b0;stroke-dasharray:2.96,1.28;stroke-dashoffset:0;stroke-width:0.8;"/>
     </g>
     <g id="line2d_8">
      <g>
       <use style="stroke:#000000;stroke-width:0.8;" x="203.627659" xlink:href="#m4c4d20996b" y="288.430125"/>
      </g>
     </g>
     <g id="text_4">
      <!-- 600 -->
      <defs>
       <path d="M 33.015625 40.375 
Q 26.375 40.375 22.484375 35.828125 
Q 18.609375 31.296875 18.609375 23.390625 
Q 18.609375 15.53125 22.484375 10.953125 
Q 26.375 6.390625 33.015625 6.390625 
Q 39.65625 6.390625 43.53125 10.953125 
Q 47.40625 15.53125 47.40625 23.390625 
Q 47.40625 31.296875 43.53125 35.828125 
Q 39.65625 40.375 33.015625 40.375 
z
M 52.59375 71.296875 
L 52.59375 62.3125 
Q 48.875 64.0625 45.09375 64.984375 
Q 41.3125 65.921875 37.59375 65.921875 
Q 27.828125 65.921875 22.671875 59.328125 
Q 17.53125 52.734375 16.796875 39.40625 
Q 19.671875 43.65625 24.015625 45.921875 
Q 28.375 48.1875 33.59375 48.1875 
Q 44.578125 48.1875 50.953125 41.515625 
Q 57.328125 34.859375 57.328125 23.390625 
Q 57.328125 12.15625 50.6875 5.359375 
Q 44.046875 -1.421875 33.015625 -1.421875 
Q 20.359375 -1.421875 13.671875 8.265625 
Q 6.984375 17.96875 6.984375 36.375 
Q 6.984375 53.65625 15.1875 63.9375 
Q 23.390625 74.21875 37.203125 74.21875 
Q 40.921875 74.21875 44.703125 73.484375 
Q 48.484375 72.75 52.59375 71.296875 
z
" id="DejaVuSans-54"/>
      </defs>
      <g transform="translate(194.083909 303.028562)scale(0.1 -0.1)">
       <use xlink:href="#DejaVuSans-54"/>
       <use x="63.623047" xlink:href="#DejaVuSans-48"/>
       <use x="127.246094" xlink:href="#DejaVuSans-48"/>
      </g>
     </g>
    </g>
    <g id="xtick_5">
     <g id="line2d_9">
      <path clip-path="url(#p27fdc03d2a)" d="M 252.558261 288.430125 
L 252.558261 22.318125 
" style="fill:none;stroke:#b0b0b0;stroke-dasharray:2.96,1.28;stroke-dashoffset:0;stroke-width:0.8;"/>
     </g>
     <g id="line2d_10">
      <g>
       <use style="stroke:#000000;stroke-width:0.8;" x="252.558261" xlink:href="#m4c4d20996b" y="288.430125"/>
      </g>
     </g>
     <g id="text_5">
      <!-- 800 -->
      <defs>
       <path d="M 31.78125 34.625 
Q 24.75 34.625 20.71875 30.859375 
Q 16.703125 27.09375 16.703125 20.515625 
Q 16.703125 13.921875 20.71875 10.15625 
Q 24.75 6.390625 31.78125 6.390625 
Q 38.8125 6.390625 42.859375 10.171875 
Q 46.921875 13.96875 46.921875 20.515625 
Q 46.921875 27.09375 42.890625 30.859375 
Q 38.875 34.625 31.78125 34.625 
z
M 21.921875 38.8125 
Q 15.578125 40.375 12.03125 44.71875 
Q 8.5 49.078125 8.5 55.328125 
Q 8.5 64.0625 14.71875 69.140625 
Q 20.953125 74.21875 31.78125 74.21875 
Q 42.671875 74.21875 48.875 69.140625 
Q 55.078125 64.0625 55.078125 55.328125 
Q 55.078125 49.078125 51.53125 44.71875 
Q 48 40.375 41.703125 38.8125 
Q 48.828125 37.15625 52.796875 32.3125 
Q 56.78125 27.484375 56.78125 20.515625 
Q 56.78125 9.90625 50.3125 4.234375 
Q 43.84375 -1.421875 31.78125 -1.421875 
Q 19.734375 -1.421875 13.25 4.234375 
Q 6.78125 9.90625 6.78125 20.515625 
Q 6.78125 27.484375 10.78125 32.3125 
Q 14.796875 37.15625 21.921875 38.8125 
z
M 18.3125 54.390625 
Q 18.3125 48.734375 21.84375 45.5625 
Q 25.390625 42.390625 31.78125 42.390625 
Q 38.140625 42.390625 41.71875 45.5625 
Q 45.3125 48.734375 45.3125 54.390625 
Q 45.3125 60.0625 41.71875 63.234375 
Q 38.140625 66.40625 31.78125 66.40625 
Q 25.390625 66.40625 21.84375 63.234375 
Q 18.3125 60.0625 18.3125 54.390625 
z
" id="DejaVuSans-56"/>
      </defs>
      <g transform="translate(243.014511 303.028562)scale(0.1 -0.1)">
       <use xlink:href="#DejaVuSans-56"/>
       <use x="63.623047" xlink:href="#DejaVuSans-48"/>
       <use x="127.246094" xlink:href="#DejaVuSans-48"/>
      </g>
     </g>
    </g>
    <g id="xtick_6">
     <g id="line2d_11">
      <path clip-path="url(#p27fdc03d2a)" d="M 301.488863 288.430125 
L 301.488863 22.318125 
" style="fill:none;stroke:#b0b0b0;stroke-dasharray:2.96,1.28;stroke-dashoffset:0;stroke-width:0.8;"/>
     </g>
     <g id="line2d_12">
      <g>
       <use style="stroke:#000000;stroke-width:0.8;" x="301.488863" xlink:href="#m4c4d20996b" y="288.430125"/>
      </g>
     </g>
     <g id="text_6">
      <!-- 1000 -->
      <defs>
       <path d="M 12.40625 8.296875 
L 28.515625 8.296875 
L 28.515625 63.921875 
L 10.984375 60.40625 
L 10.984375 69.390625 
L 28.421875 72.90625 
L 38.28125 72.90625 
L 38.28125 8.296875 
L 54.390625 8.296875 
L 54.390625 0 
L 12.40625 0 
z
" id="DejaVuSans-49"/>
      </defs>
      <g transform="translate(288.763863 303.028562)scale(0.1 -0.1)">
       <use xlink:href="#DejaVuSans-49"/>
       <use x="63.623047" xlink:href="#DejaVuSans-48"/>
       <use x="127.246094" xlink:href="#DejaVuSans-48"/>
       <use x="190.869141" xlink:href="#DejaVuSans-48"/>
      </g>
     </g>
    </g>
    <g id="xtick_7">
     <g id="line2d_13">
      <path clip-path="url(#p27fdc03d2a)" d="M 350.419465 288.430125 
L 350.419465 22.318125 
" style="fill:none;stroke:#b0b0b0;stroke-dasharray:2.96,1.28;stroke-dashoffset:0;stroke-width:0.8;"/>
     </g>
     <g id="line2d_14">
      <g>
       <use style="stroke:#000000;stroke-width:0.8;" x="350.419465" xlink:href="#m4c4d20996b" y="288.430125"/>
      </g>
     </g>
     <g id="text_7">
      <!-- 1200 -->
      <g transform="translate(337.694465 303.028562)scale(0.1 -0.1)">
       <use xlink:href="#DejaVuSans-49"/>
       <use x="63.623047" xlink:href="#DejaVuSans-50"/>
       <use x="127.246094" xlink:href="#DejaVuSans-48"/>
       <use x="190.869141" xlink:href="#DejaVuSans-48"/>
      </g>
     </g>
    </g>
    <g id="text_8">
     <!-- Day -->
     <defs>
      <path d="M 19.671875 64.796875 
L 19.671875 8.109375 
L 31.59375 8.109375 
Q 46.6875 8.109375 53.6875 14.9375 
Q 60.6875 21.78125 60.6875 36.53125 
Q 60.6875 51.171875 53.6875 57.984375 
Q 46.6875 64.796875 31.59375 64.796875 
z
M 9.8125 72.90625 
L 30.078125 72.90625 
Q 51.265625 72.90625 61.171875 64.09375 
Q 71.09375 55.28125 71.09375 36.53125 
Q 71.09375 17.671875 61.125 8.828125 
Q 51.171875 0 30.078125 0 
L 9.8125 0 
z
" id="DejaVuSans-68"/>
      <path d="M 34.28125 27.484375 
Q 23.390625 27.484375 19.1875 25 
Q 14.984375 22.515625 14.984375 16.5 
Q 14.984375 11.71875 18.140625 8.90625 
Q 21.296875 6.109375 26.703125 6.109375 
Q 34.1875 6.109375 38.703125 11.40625 
Q 43.21875 16.703125 43.21875 25.484375 
L 43.21875 27.484375 
z
M 52.203125 31.203125 
L 52.203125 0 
L 43.21875 0 
L 43.21875 8.296875 
Q 40.140625 3.328125 35.546875 0.953125 
Q 30.953125 -1.421875 24.3125 -1.421875 
Q 15.921875 -1.421875 10.953125 3.296875 
Q 6 8.015625 6 15.921875 
Q 6 25.140625 12.171875 29.828125 
Q 18.359375 34.515625 30.609375 34.515625 
L 43.21875 34.515625 
L 43.21875 35.40625 
Q 43.21875 41.609375 39.140625 45 
Q 35.0625 48.390625 27.6875 48.390625 
Q 23 48.390625 18.546875 47.265625 
Q 14.109375 46.140625 10.015625 43.890625 
L 10.015625 52.203125 
Q 14.9375 54.109375 19.578125 55.046875 
Q 24.21875 56 28.609375 56 
Q 40.484375 56 46.34375 49.84375 
Q 52.203125 43.703125 52.203125 31.203125 
z
" id="DejaVuSans-97"/>
      <path d="M 32.171875 -5.078125 
Q 28.375 -14.84375 24.75 -17.8125 
Q 21.140625 -20.796875 15.09375 -20.796875 
L 7.90625 -20.796875 
L 7.90625 -13.28125 
L 13.1875 -13.28125 
Q 16.890625 -13.28125 18.9375 -11.515625 
Q 21 -9.765625 23.484375 -3.21875 
L 25.09375 0.875 
L 2.984375 54.6875 
L 12.5 54.6875 
L 29.59375 11.921875 
L 46.6875 54.6875 
L 56.203125 54.6875 
z
" id="DejaVuSans-121"/>
     </defs>
     <g transform="translate(209.289688 316.706687)scale(0.1 -0.1)">
      <use xlink:href="#DejaVuSans-68"/>
      <use x="77.001953" xlink:href="#DejaVuSans-97"/>
      <use x="138.28125" xlink:href="#DejaVuSans-121"/>
     </g>
    </g>
   </g>
   <g id="matplotlib.axis_2">
    <g id="ytick_1">
     <g id="line2d_15">
      <path clip-path="url(#p27fdc03d2a)" d="M 40.603125 270.327391 
L 397.723125 270.327391 
" style="fill:none;stroke:#b0b0b0;stroke-dasharray:2.96,1.28;stroke-dashoffset:0;stroke-width:0.8;"/>
     </g>
     <g id="line2d_16">
      <defs>
       <path d="M 0 0 
L -3.5 0 
" id="m6b9fefc0eb" style="stroke:#000000;stroke-width:0.8;"/>
      </defs>
      <g>
       <use style="stroke:#000000;stroke-width:0.8;" x="40.603125" xlink:href="#m6b9fefc0eb" y="270.327391"/>
      </g>
     </g>
     <g id="text_9">
      <!-- 24 -->
      <g transform="translate(20.878125 274.12661)scale(0.1 -0.1)">
       <use xlink:href="#DejaVuSans-50"/>
       <use x="63.623047" xlink:href="#DejaVuSans-52"/>
      </g>
     </g>
    </g>
    <g id="ytick_2">
     <g id="line2d_17">
      <path clip-path="url(#p27fdc03d2a)" d="M 40.603125 234.993662 
L 397.723125 234.993662 
" style="fill:none;stroke:#b0b0b0;stroke-dasharray:2.96,1.28;stroke-dashoffset:0;stroke-width:0.8;"/>
     </g>
     <g id="line2d_18">
      <g>
       <use style="stroke:#000000;stroke-width:0.8;" x="40.603125" xlink:href="#m6b9fefc0eb" y="234.993662"/>
      </g>
     </g>
     <g id="text_10">
      <!-- 26 -->
      <g transform="translate(20.878125 238.792881)scale(0.1 -0.1)">
       <use xlink:href="#DejaVuSans-50"/>
       <use x="63.623047" xlink:href="#DejaVuSans-54"/>
      </g>
     </g>
    </g>
    <g id="ytick_3">
     <g id="line2d_19">
      <path clip-path="url(#p27fdc03d2a)" d="M 40.603125 199.659934 
L 397.723125 199.659934 
" style="fill:none;stroke:#b0b0b0;stroke-dasharray:2.96,1.28;stroke-dashoffset:0;stroke-width:0.8;"/>
     </g>
     <g id="line2d_20">
      <g>
       <use style="stroke:#000000;stroke-width:0.8;" x="40.603125" xlink:href="#m6b9fefc0eb" y="199.659934"/>
      </g>
     </g>
     <g id="text_11">
      <!-- 28 -->
      <g transform="translate(20.878125 203.459153)scale(0.1 -0.1)">
       <use xlink:href="#DejaVuSans-50"/>
       <use x="63.623047" xlink:href="#DejaVuSans-56"/>
      </g>
     </g>
    </g>
    <g id="ytick_4">
     <g id="line2d_21">
      <path clip-path="url(#p27fdc03d2a)" d="M 40.603125 164.326205 
L 397.723125 164.326205 
" style="fill:none;stroke:#b0b0b0;stroke-dasharray:2.96,1.28;stroke-dashoffset:0;stroke-width:0.8;"/>
     </g>
     <g id="line2d_22">
      <g>
       <use style="stroke:#000000;stroke-width:0.8;" x="40.603125" xlink:href="#m6b9fefc0eb" y="164.326205"/>
      </g>
     </g>
     <g id="text_12">
      <!-- 30 -->
      <defs>
       <path d="M 40.578125 39.3125 
Q 47.65625 37.796875 51.625 33 
Q 55.609375 28.21875 55.609375 21.1875 
Q 55.609375 10.40625 48.1875 4.484375 
Q 40.765625 -1.421875 27.09375 -1.421875 
Q 22.515625 -1.421875 17.65625 -0.515625 
Q 12.796875 0.390625 7.625 2.203125 
L 7.625 11.71875 
Q 11.71875 9.328125 16.59375 8.109375 
Q 21.484375 6.890625 26.8125 6.890625 
Q 36.078125 6.890625 40.9375 10.546875 
Q 45.796875 14.203125 45.796875 21.1875 
Q 45.796875 27.640625 41.28125 31.265625 
Q 36.765625 34.90625 28.71875 34.90625 
L 20.21875 34.90625 
L 20.21875 43.015625 
L 29.109375 43.015625 
Q 36.375 43.015625 40.234375 45.921875 
Q 44.09375 48.828125 44.09375 54.296875 
Q 44.09375 59.90625 40.109375 62.90625 
Q 36.140625 65.921875 28.71875 65.921875 
Q 24.65625 65.921875 20.015625 65.03125 
Q 15.375 64.15625 9.8125 62.3125 
L 9.8125 71.09375 
Q 15.4375 72.65625 20.34375 73.4375 
Q 25.25 74.21875 29.59375 74.21875 
Q 40.828125 74.21875 47.359375 69.109375 
Q 53.90625 64.015625 53.90625 55.328125 
Q 53.90625 49.265625 50.4375 45.09375 
Q 46.96875 40.921875 40.578125 39.3125 
z
" id="DejaVuSans-51"/>
      </defs>
      <g transform="translate(20.878125 168.125424)scale(0.1 -0.1)">
       <use xlink:href="#DejaVuSans-51"/>
       <use x="63.623047" xlink:href="#DejaVuSans-48"/>
      </g>
     </g>
    </g>
    <g id="ytick_5">
     <g id="line2d_23">
      <path clip-path="url(#p27fdc03d2a)" d="M 40.603125 128.992477 
L 397.723125 128.992477 
" style="fill:none;stroke:#b0b0b0;stroke-dasharray:2.96,1.28;stroke-dashoffset:0;stroke-width:0.8;"/>
     </g>
     <g id="line2d_24">
      <g>
       <use style="stroke:#000000;stroke-width:0.8;" x="40.603125" xlink:href="#m6b9fefc0eb" y="128.992477"/>
      </g>
     </g>
     <g id="text_13">
      <!-- 32 -->
      <g transform="translate(20.878125 132.791695)scale(0.1 -0.1)">
       <use xlink:href="#DejaVuSans-51"/>
       <use x="63.623047" xlink:href="#DejaVuSans-50"/>
      </g>
     </g>
    </g>
    <g id="ytick_6">
     <g id="line2d_25">
      <path clip-path="url(#p27fdc03d2a)" d="M 40.603125 93.658748 
L 397.723125 93.658748 
" style="fill:none;stroke:#b0b0b0;stroke-dasharray:2.96,1.28;stroke-dashoffset:0;stroke-width:0.8;"/>
     </g>
     <g id="line2d_26">
      <g>
       <use style="stroke:#000000;stroke-width:0.8;" x="40.603125" xlink:href="#m6b9fefc0eb" y="93.658748"/>
      </g>
     </g>
     <g id="text_14">
      <!-- 34 -->
      <g transform="translate(20.878125 97.457967)scale(0.1 -0.1)">
       <use xlink:href="#DejaVuSans-51"/>
       <use x="63.623047" xlink:href="#DejaVuSans-52"/>
      </g>
     </g>
    </g>
    <g id="ytick_7">
     <g id="line2d_27">
      <path clip-path="url(#p27fdc03d2a)" d="M 40.603125 58.325019 
L 397.723125 58.325019 
" style="fill:none;stroke:#b0b0b0;stroke-dasharray:2.96,1.28;stroke-dashoffset:0;stroke-width:0.8;"/>
     </g>
     <g id="line2d_28">
      <g>
       <use style="stroke:#000000;stroke-width:0.8;" x="40.603125" xlink:href="#m6b9fefc0eb" y="58.325019"/>
      </g>
     </g>
     <g id="text_15">
      <!-- 36 -->
      <g transform="translate(20.878125 62.124238)scale(0.1 -0.1)">
       <use xlink:href="#DejaVuSans-51"/>
       <use x="63.623047" xlink:href="#DejaVuSans-54"/>
      </g>
     </g>
    </g>
    <g id="ytick_8">
     <g id="line2d_29">
      <path clip-path="url(#p27fdc03d2a)" d="M 40.603125 22.991291 
L 397.723125 22.991291 
" style="fill:none;stroke:#b0b0b0;stroke-dasharray:2.96,1.28;stroke-dashoffset:0;stroke-width:0.8;"/>
     </g>
     <g id="line2d_30">
      <g>
       <use style="stroke:#000000;stroke-width:0.8;" x="40.603125" xlink:href="#m6b9fefc0eb" y="22.991291"/>
      </g>
     </g>
     <g id="text_16">
      <!-- 38 -->
      <g transform="translate(20.878125 26.790509)scale(0.1 -0.1)">
       <use xlink:href="#DejaVuSans-51"/>
       <use x="63.623047" xlink:href="#DejaVuSans-56"/>
      </g>
     </g>
    </g>
    <g id="text_17">
     <!-- Price $ -->
     <defs>
      <path d="M 19.671875 64.796875 
L 19.671875 37.40625 
L 32.078125 37.40625 
Q 38.96875 37.40625 42.71875 40.96875 
Q 46.484375 44.53125 46.484375 51.125 
Q 46.484375 57.671875 42.71875 61.234375 
Q 38.96875 64.796875 32.078125 64.796875 
z
M 9.8125 72.90625 
L 32.078125 72.90625 
Q 44.34375 72.90625 50.609375 67.359375 
Q 56.890625 61.8125 56.890625 51.125 
Q 56.890625 40.328125 50.609375 34.8125 
Q 44.34375 29.296875 32.078125 29.296875 
L 19.671875 29.296875 
L 19.671875 0 
L 9.8125 0 
z
" id="DejaVuSans-80"/>
      <path d="M 41.109375 46.296875 
Q 39.59375 47.171875 37.8125 47.578125 
Q 36.03125 48 33.890625 48 
Q 26.265625 48 22.1875 43.046875 
Q 18.109375 38.09375 18.109375 28.8125 
L 18.109375 0 
L 9.078125 0 
L 9.078125 54.6875 
L 18.109375 54.6875 
L 18.109375 46.1875 
Q 20.953125 51.171875 25.484375 53.578125 
Q 30.03125 56 36.53125 56 
Q 37.453125 56 38.578125 55.875 
Q 39.703125 55.765625 41.0625 55.515625 
z
" id="DejaVuSans-114"/>
      <path d="M 9.421875 54.6875 
L 18.40625 54.6875 
L 18.40625 0 
L 9.421875 0 
z
M 9.421875 75.984375 
L 18.40625 75.984375 
L 18.40625 64.59375 
L 9.421875 64.59375 
z
" id="DejaVuSans-105"/>
      <path d="M 48.78125 52.59375 
L 48.78125 44.1875 
Q 44.96875 46.296875 41.140625 47.34375 
Q 37.3125 48.390625 33.40625 48.390625 
Q 24.65625 48.390625 19.8125 42.84375 
Q 14.984375 37.3125 14.984375 27.296875 
Q 14.984375 17.28125 19.8125 11.734375 
Q 24.65625 6.203125 33.40625 6.203125 
Q 37.3125 6.203125 41.140625 7.25 
Q 44.96875 8.296875 48.78125 10.40625 
L 48.78125 2.09375 
Q 45.015625 0.34375 40.984375 -0.53125 
Q 36.96875 -1.421875 32.421875 -1.421875 
Q 20.0625 -1.421875 12.78125 6.34375 
Q 5.515625 14.109375 5.515625 27.296875 
Q 5.515625 40.671875 12.859375 48.328125 
Q 20.21875 56 33.015625 56 
Q 37.15625 56 41.109375 55.140625 
Q 45.0625 54.296875 48.78125 52.59375 
z
" id="DejaVuSans-99"/>
      <path d="M 56.203125 29.59375 
L 56.203125 25.203125 
L 14.890625 25.203125 
Q 15.484375 15.921875 20.484375 11.0625 
Q 25.484375 6.203125 34.421875 6.203125 
Q 39.59375 6.203125 44.453125 7.46875 
Q 49.3125 8.734375 54.109375 11.28125 
L 54.109375 2.78125 
Q 49.265625 0.734375 44.1875 -0.34375 
Q 39.109375 -1.421875 33.890625 -1.421875 
Q 20.796875 -1.421875 13.15625 6.1875 
Q 5.515625 13.8125 5.515625 26.8125 
Q 5.515625 40.234375 12.765625 48.109375 
Q 20.015625 56 32.328125 56 
Q 43.359375 56 49.78125 48.890625 
Q 56.203125 41.796875 56.203125 29.59375 
z
M 47.21875 32.234375 
Q 47.125 39.59375 43.09375 43.984375 
Q 39.0625 48.390625 32.421875 48.390625 
Q 24.90625 48.390625 20.390625 44.140625 
Q 15.875 39.890625 15.1875 32.171875 
z
" id="DejaVuSans-101"/>
      <path id="DejaVuSans-32"/>
      <path d="M 33.796875 -14.703125 
L 28.90625 -14.703125 
L 28.859375 0 
Q 23.734375 0.09375 18.609375 1.1875 
Q 13.484375 2.296875 8.296875 4.5 
L 8.296875 13.28125 
Q 13.28125 10.15625 18.375 8.5625 
Q 23.484375 6.984375 28.90625 6.9375 
L 28.90625 29.203125 
Q 18.109375 30.953125 13.203125 35.15625 
Q 8.296875 39.359375 8.296875 46.6875 
Q 8.296875 54.640625 13.625 59.21875 
Q 18.953125 63.8125 28.90625 64.5 
L 28.90625 75.984375 
L 33.796875 75.984375 
L 33.796875 64.65625 
Q 38.328125 64.453125 42.578125 63.6875 
Q 46.828125 62.9375 50.875 61.625 
L 50.875 53.078125 
Q 46.828125 55.125 42.546875 56.25 
Q 38.28125 57.375 33.796875 57.5625 
L 33.796875 36.71875 
Q 44.875 35.015625 50.09375 30.609375 
Q 55.328125 26.21875 55.328125 18.609375 
Q 55.328125 10.359375 49.78125 5.59375 
Q 44.234375 0.828125 33.796875 0.09375 
z
M 28.90625 37.59375 
L 28.90625 57.625 
Q 23.25 56.984375 20.265625 54.390625 
Q 17.28125 51.8125 17.28125 47.515625 
Q 17.28125 43.3125 20.03125 40.96875 
Q 22.796875 38.625 28.90625 37.59375 
z
M 33.796875 28.21875 
L 33.796875 7.078125 
Q 39.984375 7.90625 43.140625 10.59375 
Q 46.296875 13.28125 46.296875 17.671875 
Q 46.296875 21.96875 43.28125 24.5 
Q 40.28125 27.046875 33.796875 28.21875 
z
" id="DejaVuSans-36"/>
     </defs>
     <g transform="translate(14.798438 172.342094)rotate(-90)scale(0.1 -0.1)">
      <use xlink:href="#DejaVuSans-80"/>
      <use x="58.552734" xlink:href="#DejaVuSans-114"/>
      <use x="99.666016" xlink:href="#DejaVuSans-105"/>
      <use x="127.449219" xlink:href="#DejaVuSans-99"/>
      <use x="182.429688" xlink:href="#DejaVuSans-101"/>
      <use x="243.953125" xlink:href="#DejaVuSans-32"/>
      <use x="275.740234" xlink:href="#DejaVuSans-36"/>
     </g>
    </g>
   </g>
   <g id="line2d_31">
    <path clip-path="url(#p27fdc03d2a)" d="M 56.835852 272.620429 
L 57.080505 272.638828 
L 57.325158 272.859711 
L 57.814464 268.251597 
L 58.059117 268.128064 
L 58.548423 263.301796 
L 58.793076 268.547084 
L 59.037729 270.129152 
L 59.282382 269.375219 
L 59.527035 268.193436 
L 59.771688 270.831766 
L 60.260994 268.193672 
L 60.505647 267.675077 
L 60.7503 271.230872 
L 60.994953 270.49382 
L 61.239606 272.636671 
L 61.728912 272.648095 
L 61.973566 268.696732 
L 62.218219 269.414981 
L 62.462872 270.490518 
L 62.707525 268.770764 
L 62.952178 270.518149 
L 63.196831 270.278868 
L 63.441484 272.18884 
L 63.686137 269.426943 
L 63.93079 262.605753 
L 64.175443 262.849382 
L 64.420096 265.047125 
L 64.664749 264.151901 
L 64.909402 266.127177 
L 65.154055 263.44339 
L 65.398708 270.416182 
L 65.643361 267.567921 
L 65.888014 267.30057 
L 66.132667 264.893299 
L 66.37732 260.3391 
L 66.621973 258.303034 
L 67.111279 252.648666 
L 67.355932 252.500298 
L 67.600585 250.830484 
L 67.845238 252.537466 
L 68.334544 248.756003 
L 68.579197 244.730508 
L 68.82385 244.802889 
L 69.068503 241.771249 
L 69.313156 243.915246 
L 69.557809 244.853434 
L 69.802462 247.342184 
L 70.047115 247.83618 
L 70.291768 247.386225 
L 70.781074 236.452703 
L 71.025727 236.059461 
L 71.27038 232.155645 
L 71.515033 237.317365 
L 71.759686 239.821042 
L 72.004339 247.911795 
L 72.493645 240.046441 
L 72.738298 243.676234 
L 72.982951 253.285199 
L 73.227604 258.14759 
L 73.472257 258.272909 
L 73.71691 257.053419 
L 73.961563 254.819216 
L 74.206216 264.303233 
L 74.450869 264.745269 
L 74.695522 264.857479 
L 75.184828 265.834015 
L 75.674134 272.644051 
L 75.918787 270.002857 
L 76.16344 264.83433 
L 76.897399 257.762536 
L 77.142052 258.518963 
L 77.386705 261.985226 
L 77.876011 253.798639 
L 78.365317 248.621115 
L 78.60997 247.427942 
L 78.854623 239.007027 
L 79.099276 239.585366 
L 79.343929 239.802239 
L 79.588582 242.513658 
L 79.833235 238.977003 
L 80.567194 246.558462 
L 80.811847 243.634012 
L 81.0565 238.961637 
L 81.301153 243.890546 
L 81.545806 243.013046 
L 81.790459 248.50048 
L 82.279765 246.340376 
L 82.524418 247.492337 
L 82.769071 251.597997 
L 83.013724 248.34106 
L 83.258377 233.648888 
L 83.50303 236.485457 
L 83.747683 232.763671 
L 83.992336 232.319816 
L 84.236989 231.257286 
L 84.481643 222.869731 
L 84.726296 219.094772 
L 84.970949 222.783871 
L 85.215602 218.23786 
L 85.460255 221.201871 
L 85.704908 221.00717 
L 85.949561 217.108881 
L 86.194214 222.698079 
L 86.438867 219.437402 
L 86.68352 222.562348 
L 86.928173 216.80453 
L 87.172826 214.308199 
L 87.417479 217.651333 
L 87.662132 201.04346 
L 88.151438 209.855596 
L 88.396091 202.902179 
L 88.640744 212.397553 
L 88.885397 204.179324 
L 89.374703 215.241265 
L 89.619356 216.389924 
L 89.864009 211.794177 
L 90.108662 215.09647 
L 90.353315 214.245152 
L 90.597968 213.938645 
L 90.842621 209.553638 
L 91.087274 201.757732 
L 91.57658 207.818249 
L 91.821233 207.873007 
L 92.065886 217.289327 
L 92.310539 213.375166 
L 92.555192 207.194891 
L 92.799845 208.678497 
L 93.044498 207.720562 
L 93.533804 195.910112 
L 93.778457 195.495809 
L 94.02311 192.429024 
L 94.267763 194.320328 
L 94.512416 192.52543 
L 94.757069 198.513667 
L 95.001722 196.314239 
L 95.246375 195.629552 
L 95.491028 196.948414 
L 95.735681 196.500381 
L 95.980334 197.568875 
L 96.224987 191.609752 
L 96.46964 196.500145 
L 96.714293 190.627623 
L 96.958946 195.212284 
L 97.203599 185.59294 
L 97.448252 186.605598 
L 97.692905 181.642487 
L 97.937558 183.495276 
L 98.182211 176.9998 
L 98.426864 179.855037 
L 98.671517 176.697505 
L 98.91617 178.014884 
L 99.160823 177.116998 
L 99.405476 178.509049 
L 99.894782 150.767629 
L 100.139435 150.946459 
L 100.384088 155.964529 
L 100.628741 144.866095 
L 101.118047 152.195265 
L 101.3627 142.722839 
L 101.607353 147.168602 
L 101.852006 143.038713 
L 102.096659 153.42173 
L 102.585965 161.0506 
L 102.830618 154.495177 
L 103.075271 181.059666 
L 103.319924 180.216908 
L 103.564577 175.401557 
L 104.053883 184.059597 
L 104.298536 179.287211 
L 104.543189 184.526164 
L 104.787842 186.422422 
L 105.032495 184.783575 
L 105.277148 172.988693 
L 105.521801 173.018784 
L 105.766454 170.128031 
L 106.25576 180.102844 
L 106.500413 184.381099 
L 106.745066 182.522919 
L 106.98972 173.681939 
L 107.234373 177.966193 
L 107.723679 180.217143 
L 107.968332 192.858086 
L 108.212985 191.77645 
L 108.457638 210.26481 
L 108.702291 200.970742 
L 108.946944 205.094767 
L 109.191597 205.77413 
L 109.43625 195.367829 
L 109.925556 190.673552 
L 110.414862 189.435225 
L 110.659515 177.849467 
L 110.904168 178.746578 
L 111.148821 176.831282 
L 111.393474 173.02239 
L 112.127433 188.378828 
L 112.372086 202.106664 
L 112.616739 195.715041 
L 112.861392 195.361629 
L 113.106045 193.934398 
L 113.595351 201.865091 
L 113.840004 203.121478 
L 114.084657 203.275945 
L 114.32931 197.523451 
L 114.573963 195.278869 
L 114.818616 191.403628 
L 115.063269 190.057607 
L 115.307922 183.278234 
L 115.552575 183.172561 
L 115.797228 183.745846 
L 116.041881 186.10183 
L 116.286534 185.142278 
L 116.531187 189.161101 
L 116.77584 177.216235 
L 117.020493 174.080842 
L 117.265146 172.62689 
L 117.754452 176.680118 
L 118.243758 170.029771 
L 118.488411 168.272378 
L 118.733064 176.907808 
L 118.977717 178.026274 
L 119.22237 173.225245 
L 119.467023 176.743535 
L 119.711676 173.479084 
L 120.200982 177.608635 
L 120.445635 176.055748 
L 120.690288 176.936214 
L 120.934941 174.974719 
L 121.424247 183.362005 
L 121.6689 191.060122 
L 121.913553 188.560859 
L 122.158206 187.770398 
L 122.402859 193.175072 
L 122.647512 194.786389 
L 122.892165 191.206838 
L 123.136818 197.362852 
L 123.381471 197.123503 
L 123.626124 193.832296 
L 123.870777 196.009586 
L 124.11543 193.725477 
L 124.360083 197.792184 
L 124.604736 190.527139 
L 124.849389 192.875305 
L 125.094042 192.616783 
L 125.338695 191.883606 
L 125.583348 189.242109 
L 125.828001 185.308909 
L 126.072654 192.47128 
L 126.56196 184.994517 
L 126.806613 186.366249 
L 127.051266 178.181381 
L 127.295919 183.021565 
L 127.540572 179.401342 
L 127.785225 184.016364 
L 128.029878 184.867177 
L 128.274531 189.483749 
L 128.519184 188.01716 
L 128.763837 181.243651 
L 129.00849 184.692896 
L 129.253143 181.244055 
L 129.497797 179.856048 
L 129.74245 184.16399 
L 129.987103 179.074247 
L 130.476409 192.975856 
L 130.721062 191.706226 
L 130.965715 183.402239 
L 131.210368 184.827145 
L 131.455021 173.321719 
L 131.699674 177.711309 
L 131.944327 164.544258 
L 132.433633 152.91193 
L 132.678286 156.233733 
L 132.922939 149.753421 
L 133.167592 152.427403 
L 133.656898 151.332086 
L 133.901551 148.759633 
L 134.146204 139.267663 
L 134.390857 147.369974 
L 134.63551 151.199152 
L 134.880163 141.468877 
L 135.124816 140.855122 
L 135.369469 141.528824 
L 135.614122 146.445265 
L 135.858775 146.2446 
L 136.103428 138.482694 
L 136.348081 141.407684 
L 136.592734 137.929392 
L 136.837387 129.487012 
L 137.08204 127.460752 
L 137.326693 123.807067 
L 137.571346 127.53475 
L 137.815999 133.241349 
L 138.060652 127.804055 
L 138.305305 128.150459 
L 138.549958 125.079529 
L 138.794611 125.505255 
L 139.039264 130.428064 
L 139.283917 130.047559 
L 139.52857 133.018376 
L 139.773223 130.709736 
L 140.017876 142.161011 
L 140.262529 140.087205 
L 140.507182 141.06438 
L 140.751835 134.981286 
L 140.996488 135.580316 
L 141.241141 139.80779 
L 141.485794 152.175013 
L 141.730447 157.719294 
L 141.9751 157.861461 
L 142.219753 157.393007 
L 142.464406 159.567938 
L 142.709059 148.02494 
L 142.953712 150.271982 
L 143.198365 157.858428 
L 143.443018 155.648655 
L 143.687671 156.723046 
L 143.932324 151.997565 
L 144.176977 151.303612 
L 144.42163 150.013999 
L 144.666283 150.810593 
L 144.910936 153.996127 
L 145.155589 152.798843 
L 145.400242 152.897508 
L 145.889548 145.383274 
L 146.134201 146.134141 
L 146.623507 152.698898 
L 146.86816 144.144746 
L 147.112813 141.263225 
L 147.357466 141.935781 
L 147.602119 143.493284 
L 147.846772 140.016205 
L 148.091425 139.651571 
L 148.336078 144.631463 
L 148.580731 161.119948 
L 148.825384 166.683706 
L 149.070037 153.769751 
L 149.31469 160.394994 
L 149.559343 147.730396 
L 149.803996 156.136147 
L 150.048649 151.80364 
L 150.293302 137.407629 
L 150.537955 151.732742 
L 151.516567 129.521585 
L 151.76122 134.9362 
L 152.250527 127.398278 
L 152.49518 129.614891 
L 152.739833 136.918351 
L 152.984486 134.830122 
L 153.229139 136.924315 
L 153.473792 126.615095 
L 153.718445 130.044493 
L 153.963098 127.454349 
L 154.207751 122.857422 
L 154.697057 127.458932 
L 154.94171 114.57891 
L 155.186363 114.408404 
L 155.431016 119.143219 
L 155.920322 120.208377 
L 156.164975 119.609988 
L 156.409628 127.562044 
L 156.654281 142.553512 
L 157.143587 137.306573 
L 157.38824 128.14837 
L 157.632893 132.679756 
L 158.122199 124.193503 
L 158.366852 136.734467 
L 158.856158 124.285967 
L 159.100811 125.465223 
L 159.345464 129.61196 
L 159.590117 124.780435 
L 159.83477 128.0276 
L 160.079423 121.409063 
L 160.324076 120.421543 
L 160.568729 125.23541 
L 160.813382 142.052507 
L 161.058035 145.456801 
L 161.302688 140.297911 
L 161.791994 164.095921 
L 162.036647 163.500935 
L 162.2813 163.446784 
L 162.770606 157.920565 
L 163.015259 146.386801 
L 163.259912 144.597362 
L 163.504565 146.192572 
L 163.749218 150.356595 
L 163.993871 148.834204 
L 164.238524 124.653128 
L 164.72783 140.435091 
L 164.972483 142.370639 
L 165.217136 149.930667 
L 165.706442 171.531202 
L 165.951095 179.43204 
L 166.195748 176.401916 
L 166.440401 178.837594 
L 166.929707 175.619745 
L 167.17436 177.300106 
L 167.419013 177.77776 
L 167.663666 176.57468 
L 167.908319 173.609828 
L 168.152972 173.874146 
L 168.397625 168.833161 
L 168.642278 167.548603 
L 168.886931 171.016449 
L 169.131584 168.567563 
L 169.376237 167.911181 
L 169.62089 168.61895 
L 170.110196 167.18006 
L 170.354849 169.231054 
L 170.599502 168.13594 
L 170.844155 166.104625 
L 171.088808 172.505851 
L 171.333461 173.404512 
L 171.578114 171.063119 
L 171.822767 171.766878 
L 172.06742 171.433448 
L 172.556726 169.16366 
L 172.801379 171.053179 
L 173.046032 166.603911 
L 173.290685 168.629127 
L 173.535338 165.927885 
L 173.779991 171.703629 
L 174.024644 174.696383 
L 174.269298 165.408178 
L 174.513951 169.177173 
L 174.758604 167.585703 
L 175.003257 167.560734 
L 175.492563 155.550395 
L 175.737216 152.755812 
L 175.981869 153.917242 
L 176.226522 159.727863 
L 176.715828 162.284748 
L 176.960481 160.991866 
L 177.449787 154.855397 
L 177.69444 145.05473 
L 177.939093 153.237576 
L 178.183746 148.689072 
L 178.428399 156.685743 
L 178.673052 153.012886 
L 178.917705 155.650845 
L 179.162358 155.894844 
L 179.407011 158.882476 
L 179.651664 160.223712 
L 180.14097 175.293795 
L 180.385623 185.155554 
L 180.630276 181.902425 
L 180.874929 184.276235 
L 181.119582 189.726333 
L 181.364235 192.224787 
L 181.608888 196.372198 
L 181.853541 190.956504 
L 182.098194 192.268526 
L 182.342847 195.214441 
L 182.5875 193.307299 
L 182.832153 184.196777 
L 183.076806 185.362083 
L 183.321459 182.038527 
L 183.566112 180.636265 
L 184.055418 182.536836 
L 184.300071 180.590741 
L 184.544724 180.736884 
L 185.03403 170.704921 
L 185.278683 172.396504 
L 185.523336 172.522295 
L 185.767989 175.066981 
L 186.012642 172.116618 
L 186.257295 173.239667 
L 186.501948 167.725646 
L 186.746601 172.793386 
L 186.991254 175.489001 
L 187.48056 168.376333 
L 187.725213 171.972193 
L 187.969866 162.866962 
L 188.214519 161.271517 
L 188.703825 152.197489 
L 189.437784 161.3009 
L 189.682437 156.349516 
L 190.171743 166.964367 
L 190.416396 165.975734 
L 190.661049 169.782301 
L 190.905702 176.896991 
L 191.150355 178.327254 
L 191.395008 175.642221 
L 191.639661 176.463144 
L 191.884314 183.504778 
L 192.128967 172.58059 
L 192.37362 179.54051 
L 192.618273 177.12768 
L 192.862926 189.021832 
L 193.107579 188.324812 
L 193.352232 193.448118 
L 193.596885 201.598178 
L 194.086191 198.080696 
L 194.330844 192.050743 
L 194.575497 191.397259 
L 194.82015 186.626827 
L 195.064803 177.788812 
L 195.309456 179.015243 
L 195.554109 178.109809 
L 196.043415 164.724502 
L 196.288068 162.767759 
L 196.532721 158.693942 
L 196.777375 157.576284 
L 197.022028 161.548404 
L 197.266681 161.05279 
L 197.511334 163.420871 
L 197.755987 158.012322 
L 198.245293 154.567625 
L 198.489946 154.721418 
L 198.734599 156.560121 
L 198.979252 156.421897 
L 199.223905 151.431727 
L 199.468558 154.780859 
L 199.713211 154.465389 
L 199.957864 154.553203 
L 200.202517 158.350234 
L 200.44717 153.690058 
L 200.691823 142.564565 
L 200.936476 142.451646 
L 201.181129 140.263709 
L 201.425782 134.49285 
L 201.670435 131.486314 
L 201.915088 133.039268 
L 202.159741 127.055446 
L 202.404394 128.042157 
L 202.649047 128.117167 
L 202.8937 129.744827 
L 203.138353 133.591088 
L 203.383006 146.261111 
L 203.627659 146.464977 
L 203.872312 150.202129 
L 204.116965 142.018979 
L 204.361618 127.247316 
L 204.606271 128.282012 
L 204.850924 125.635392 
L 205.095577 137.377336 
L 205.34023 136.703432 
L 205.584883 132.866033 
L 205.829536 137.441394 
L 206.074189 137.541608 
L 206.318842 141.903836 
L 206.563495 138.567071 
L 206.808148 141.940802 
L 207.297454 129.683667 
L 207.542107 118.290553 
L 208.031413 113.690459 
L 208.276066 120.002421 
L 208.520719 118.505202 
L 208.765372 120.411367 
L 209.254678 108.11794 
L 209.499331 116.661714 
L 209.743984 112.980735 
L 209.988637 119.458689 
L 210.23329 112.451627 
L 210.477943 116.761052 
L 210.722596 127.815377 
L 210.967249 129.684004 
L 211.211902 139.943184 
L 211.701208 126.585307 
L 211.945861 125.509636 
L 212.190514 110.038392 
L 212.435167 107.401814 
L 212.67982 108.567658 
L 212.924473 89.191823 
L 213.169126 88.439372 
L 213.413779 77.068364 
L 213.658432 81.42173 
L 213.903085 82.118446 
L 214.147738 83.990173 
L 214.392391 84.886779 
L 214.637044 82.457167 
L 214.881697 85.514012 
L 215.12635 86.18431 
L 215.371003 80.725687 
L 215.615656 82.277495 
L 215.860309 86.802783 
L 216.104962 78.806111 
L 216.349615 82.585148 
L 216.594268 80.906707 
L 216.838921 83.880523 
L 217.083574 92.535025 
L 217.328227 91.148803 
L 217.817533 98.133557 
L 218.062186 92.471001 
L 218.306839 92.225283 
L 218.551492 84.203137 
L 218.796145 88.711913 
L 219.040798 84.990026 
L 219.285452 89.337124 
L 219.530105 87.128295 
L 219.774758 73.679874 
L 220.019411 83.337127 
L 220.508717 89.37938 
L 220.998023 74.649535 
L 221.242676 78.560798 
L 221.487329 86.533477 
L 221.731982 85.275775 
L 221.976635 83.234217 
L 222.221288 82.347652 
L 222.465941 80.917288 
L 222.955247 67.360767 
L 223.1999 73.517657 
L 223.444553 74.568932 
L 223.689206 71.426969 
L 223.933859 71.844608 
L 224.178512 74.376253 
L 224.423165 74.750693 
L 224.667818 76.776279 
L 224.912471 75.735181 
L 225.157124 68.255082 
L 225.401777 69.80224 
L 225.64643 81.311676 
L 225.891083 83.075168 
L 226.135736 86.344303 
L 226.380389 92.309323 
L 226.625042 90.137021 
L 226.869695 86.294567 
L 227.114348 89.601173 
L 227.359001 100.468076 
L 227.603654 98.130255 
L 227.848307 91.749753 
L 228.09296 92.204189 
L 228.337613 95.220867 
L 228.582266 99.646142 
L 228.826919 92.623445 
L 229.071572 91.801242 
L 229.316225 91.89438 
L 229.560878 88.372181 
L 230.050184 85.961574 
L 230.294837 87.039874 
L 230.53949 89.766962 
L 231.273449 79.175968 
L 231.518102 82.261321 
L 232.007408 85.130879 
L 232.496714 90.152319 
L 232.741367 92.031796 
L 232.98602 91.503024 
L 233.475326 83.932281 
L 233.964632 90.826593 
L 234.209285 90.68318 
L 234.453938 91.831501 
L 234.698591 85.205686 
L 234.943244 88.863886 
L 235.187897 86.739028 
L 235.43255 83.490852 
L 235.921856 91.619279 
L 236.166509 93.207345 
L 236.411162 98.678436 
L 236.655815 99.811527 
L 236.900468 97.574392 
L 237.145121 102.894184 
L 237.389774 104.808705 
L 237.634427 97.110925 
L 237.87908 101.685477 
L 238.857692 73.96906 
L 239.102345 75.448757 
L 239.346998 72.982551 
L 239.591651 73.475469 
L 239.836304 70.482243 
L 240.080957 72.216284 
L 240.32561 76.743459 
L 240.570263 78.163714 
L 240.814916 87.198114 
L 241.059569 85.571095 
L 241.304222 69.438179 
L 241.548875 61.453504 
L 241.793529 61.98733 
L 242.038182 56.311294 
L 242.282835 54.737785 
L 242.527488 55.342577 
L 242.772141 60.365904 
L 243.016794 71.514041 
L 243.261447 70.754986 
L 243.5061 68.603373 
L 243.750753 72.934971 
L 243.995406 68.587805 
L 244.240059 68.65621 
L 244.484712 69.354409 
L 244.729365 66.526837 
L 244.974018 66.048477 
L 245.218671 69.823537 
L 245.707977 99.009069 
L 245.95263 122.792994 
L 246.197283 135.371496 
L 246.686589 106.548137 
L 247.175895 122.45306 
L 247.420548 136.44154 
L 247.665201 127.090086 
L 247.909854 128.209968 
L 248.154507 136.426073 
L 248.39916 117.873049 
L 248.643813 127.263018 
L 248.888466 116.28687 
L 249.133119 111.08778 
L 249.377772 114.980442 
L 249.622425 106.947445 
L 249.867078 106.922173 
L 250.111731 101.14936 
L 250.601037 119.45761 
L 250.84569 121.941811 
L 251.090343 115.136324 
L 251.334996 114.9024 
L 251.824302 147.70418 
L 252.313608 137.138796 
L 252.558261 129.555922 
L 252.802914 108.882926 
L 253.047567 101.451823 
L 253.29222 114.020283 
L 253.536873 104.309115 
L 253.781526 108.176101 
L 254.026179 104.620205 
L 254.270832 106.101182 
L 254.515485 110.09999 
L 254.760138 108.325176 
L 255.004791 90.168291 
L 255.249444 85.421211 
L 255.494097 83.953645 
L 255.983403 101.745929 
L 256.228056 103.399704 
L 256.472709 90.267562 
L 256.717362 89.554132 
L 257.206668 67.647258 
L 257.695974 95.799577 
L 257.940627 73.089168 
L 258.18528 75.734709 
L 258.429933 90.163304 
L 258.674586 89.395353 
L 259.163892 97.944855 
L 259.408545 95.704754 
L 259.653198 96.501348 
L 259.897851 102.287101 
L 260.387157 106.266297 
L 260.63181 111.133001 
L 260.876463 104.082672 
L 261.121116 120.839115 
L 261.365769 123.043564 
L 261.610422 137.281704 
L 262.099728 113.219915 
L 262.344381 113.181771 
L 262.589034 113.899986 
L 262.833687 99.640684 
L 263.322993 119.977014 
L 263.567646 112.783271 
L 264.301606 122.057054 
L 264.546259 120.745437 
L 264.790912 125.810144 
L 265.280218 122.60355 
L 265.524871 116.985743 
L 266.014177 127.327042 
L 266.25883 119.137018 
L 266.748136 117.127539 
L 266.992789 116.709968 
L 267.237442 120.085316 
L 267.482095 112.584797 
L 267.726748 114.134246 
L 268.216054 127.695147 
L 268.460707 123.507368 
L 268.70536 133.819014 
L 268.950013 136.747407 
L 269.194666 144.170119 
L 269.439319 142.642 
L 269.683972 144.521645 
L 269.928625 154.791204 
L 270.173278 142.970073 
L 270.417931 147.948314 
L 270.662584 149.874898 
L 271.15189 151.733618 
L 271.396543 149.457259 
L 271.641196 153.061308 
L 271.885849 150.45344 
L 272.130502 152.864619 
L 272.375155 158.201327 
L 272.619808 153.781208 
L 272.864461 158.75864 
L 273.109114 159.580069 
L 273.59842 178.653272 
L 273.843073 178.162241 
L 274.087726 186.18159 
L 274.577032 171.665451 
L 274.821685 176.906662 
L 275.066338 173.545332 
L 275.310991 165.968928 
L 275.800297 169.774248 
L 276.04495 171.145104 
L 276.289603 161.232428 
L 276.534256 162.83522 
L 276.778909 162.054935 
L 277.023562 151.966429 
L 277.512868 168.094021 
L 277.757521 160.936199 
L 278.246827 163.919855 
L 278.49148 167.51986 
L 278.736133 165.419904 
L 278.980786 173.467526 
L 279.225439 166.177916 
L 279.470092 169.552623 
L 279.714745 153.344631 
L 280.448704 178.554068 
L 280.693357 172.543793 
L 280.93801 171.651702 
L 281.182663 160.636432 
L 281.427316 155.714431 
L 281.671969 159.188578 
L 281.916622 160.632152 
L 282.161275 166.275771 
L 282.405928 160.795447 
L 282.650581 161.103908 
L 282.895234 168.618647 
L 283.38454 149.572199 
L 283.629193 138.516964 
L 283.873846 110.112121 
L 284.363152 119.170985 
L 284.607805 130.748589 
L 284.852458 126.742402 
L 285.097111 117.103951 
L 285.341764 116.068312 
L 285.586417 119.077779 
L 285.83107 117.311592 
L 286.320376 105.685161 
L 286.56503 106.271149 
L 286.809683 105.285448 
L 287.054336 106.595313 
L 287.298989 109.128913 
L 287.543642 109.578969 
L 287.788295 111.078816 
L 288.032948 114.907455 
L 288.277601 113.292162 
L 288.522254 98.049248 
L 288.766907 103.325436 
L 289.01156 99.705651 
L 289.256213 99.695946 
L 289.500866 95.285026 
L 289.745519 96.182509 
L 289.990172 107.126241 
L 290.234825 105.632189 
L 290.479478 106.283684 
L 290.724131 102.792689 
L 290.968784 108.868302 
L 291.45809 103.089828 
L 291.702743 97.145296 
L 291.947396 98.565821 
L 292.192049 90.124822 
L 292.436702 86.032135 
L 292.681355 84.583372 
L 293.170661 79.738167 
L 293.415314 78.895004 
L 293.659967 76.825005 
L 293.90462 80.317416 
L 294.149273 75.8914 
L 294.393926 77.574693 
L 294.638579 70.478941 
L 294.883232 69.651481 
L 295.127885 69.923751 
L 295.372538 79.521092 
L 295.617191 74.808786 
L 295.861844 78.274577 
L 296.106497 78.621789 
L 296.35115 88.20619 
L 296.840456 79.356112 
L 297.085109 83.893732 
L 297.329762 81.670008 
L 297.574415 92.289375 
L 297.819068 94.65786 
L 298.308374 74.403144 
L 298.553027 70.894154 
L 299.042333 61.019084 
L 299.286986 60.294534 
L 299.531639 61.508969 
L 299.776292 54.937069 
L 300.020945 54.881064 
L 300.510251 52.095749 
L 300.754904 41.715697 
L 301.24421 46.462171 
L 301.488863 46.275625 
L 301.733516 45.289318 
L 301.978169 44.987596 
L 302.222822 44.447166 
L 302.712128 42.778968 
L 302.956781 42.375145 
L 303.201434 45.445941 
L 303.446087 41.624716 
L 303.69074 34.414125 
L 304.180046 69.682077 
L 304.424699 71.063784 
L 304.669352 66.235157 
L 304.914005 75.265783 
L 305.158658 73.190663 
L 305.647964 71.594307 
L 305.892617 74.49399 
L 306.13727 72.274647 
L 306.381923 77.584263 
L 306.626576 71.944418 
L 306.871229 70.891525 
L 307.360535 76.811189 
L 307.605188 72.584591 
L 307.849841 77.259492 
L 308.094494 78.534515 
L 308.339147 77.61614 
L 308.5838 72.890356 
L 308.828453 76.735641 
L 309.073107 78.0048 
L 309.31776 80.174946 
L 309.562413 78.467525 
L 309.807066 78.220055 
L 310.051719 77.388888 
L 310.296372 79.227187 
L 310.541025 90.132842 
L 310.785678 80.010842 
L 311.030331 90.824909 
L 311.274984 92.160113 
L 311.519637 89.066202 
L 312.008943 97.857445 
L 312.253596 95.119372 
L 312.498249 87.185781 
L 312.742902 89.535262 
L 312.987555 87.594457 
L 313.232208 98.018314 
L 313.721514 92.147443 
L 313.966167 103.778996 
L 314.21082 93.990729 
L 314.455473 97.942429 
L 314.700126 96.858198 
L 314.944779 93.719941 
L 315.189432 98.266525 
L 315.434085 99.301154 
L 315.678738 98.257697 
L 315.923391 106.932686 
L 316.168044 107.658045 
L 316.412697 113.772275 
L 316.902003 117.93714 
L 317.146656 114.566712 
L 317.391309 116.584615 
L 317.635962 116.94652 
L 317.880615 122.986953 
L 318.125268 124.045843 
L 318.859227 118.66324 
L 319.10388 127.837348 
L 319.348533 131.127038 
L 320.082492 162.582224 
L 320.327145 161.335338 
L 320.571798 155.775186 
L 320.816451 161.310773 
L 321.305757 102.421147 
L 321.55041 116.715763 
L 321.795063 120.747527 
L 322.039716 122.869823 
L 322.773675 135.581428 
L 323.018328 133.712633 
L 323.262981 138.625906 
L 323.507634 137.1577 
L 323.752287 133.048636 
L 323.99694 135.196946 
L 324.241593 128.531571 
L 324.486246 125.080337 
L 324.730899 136.256645 
L 324.975552 132.793753 
L 325.220205 134.470442 
L 325.464858 134.325545 
L 325.954164 146.665575 
L 326.44347 121.450174 
L 326.688123 113.847419 
L 326.932776 113.230698 
L 327.177429 114.58356 
L 327.422082 112.853833 
L 327.666735 112.921159 
L 327.911388 112.360578 
L 328.156041 120.249756 
L 328.400694 120.686535 
L 328.645347 118.688513 
L 328.89 118.095246 
L 329.134653 121.278522 
L 329.379306 118.813259 
L 329.623959 118.642348 
L 329.868612 108.670299 
L 330.357918 98.52808 
L 330.602571 101.205768 
L 330.847224 101.05548 
L 331.091877 101.40795 
L 331.33653 112.848037 
L 331.581184 115.950373 
L 331.825837 117.550839 
L 332.07049 126.278463 
L 332.315143 126.145024 
L 332.559796 132.377091 
L 332.804449 130.903527 
L 333.293755 141.747887 
L 333.538408 139.317871 
L 333.783061 139.50408 
L 334.027714 137.135965 
L 334.272367 139.177726 
L 334.51702 131.777455 
L 334.761673 133.27828 
L 335.006326 131.547036 
L 335.250979 125.807314 
L 335.495632 123.675852 
L 335.740285 125.787567 
L 335.984938 124.603864 
L 336.229591 119.975127 
L 336.474244 120.688153 
L 336.718897 115.96931 
L 336.96355 114.193148 
L 337.208203 100.198569 
L 337.452856 99.068848 
L 337.697509 98.903126 
L 337.942162 98.512647 
L 338.186815 99.101871 
L 338.431468 90.271606 
L 338.676121 87.276224 
L 338.920774 87.553212 
L 339.165427 90.383345 
L 339.41008 84.711151 
L 339.654733 83.44617 
L 339.899386 83.325401 
L 340.144039 86.530108 
L 340.388692 92.550862 
L 340.633345 93.610427 
L 340.877998 91.103784 
L 341.122651 90.164383 
L 341.367304 90.429577 
L 341.611957 88.370226 
L 341.85661 81.062252 
L 342.101263 84.571713 
L 342.345916 86.247054 
L 342.590569 85.030732 
L 342.835222 87.320838 
L 343.079875 83.560133 
L 343.324528 86.749407 
L 343.569181 91.607956 
L 343.813834 88.805051 
L 344.058487 88.850811 
L 344.30314 86.322602 
L 344.547793 86.153714 
L 344.792446 88.180715 
L 345.037099 87.830942 
L 345.281752 86.297128 
L 345.771058 89.711429 
L 346.260364 90.953563 
L 346.505017 93.060291 
L 346.74967 93.241581 
L 346.994323 93.782348 
L 347.238976 91.538945 
L 347.728282 98.533741 
L 347.972935 96.570831 
L 348.217588 98.15418 
L 348.462241 96.488274 
L 348.706894 96.151844 
L 348.951547 94.35351 
L 349.1962 94.1394 
L 349.440853 92.975915 
L 350.174812 100.923321 
L 350.419465 100.980808 
L 350.664118 100.521183 
L 350.908771 100.878033 
L 351.153424 102.273824 
L 351.398077 108.201643 
L 351.64273 108.271261 
L 351.887383 109.170697 
L 352.132036 107.417315 
L 352.621342 122.190426 
L 352.865995 122.523688 
L 353.110648 118.717088 
L 353.355301 124.469144 
L 353.599954 124.227941 
L 353.844607 125.88886 
L 354.089261 124.046248 
L 354.578567 124.227402 
L 354.82322 115.513392 
L 355.067873 114.607216 
L 355.557179 120.77536 
L 355.801832 125.476343 
L 356.046485 126.60748 
L 356.291138 131.057555 
L 356.535791 113.565578 
L 357.025097 116.778237 
L 357.514403 112.858483 
L 358.003709 105.469568 
L 358.493015 93.928929 
L 358.982321 89.257465 
L 359.226974 91.761614 
L 359.471627 96.358272 
L 359.71628 96.311905 
L 359.960933 98.560025 
L 360.205586 99.151607 
L 360.450239 95.230842 
L 360.694892 98.339782 
L 360.939545 105.567289 
L 361.184198 103.177103 
L 361.428851 102.111877 
L 361.673504 105.997733 
L 362.16281 104.342071 
L 362.407463 101.749029 
L 362.652116 104.781141 
L 362.896769 102.977482 
L 363.141422 98.502269 
L 363.386075 100.358562 
L 363.630728 101.262312 
L 364.120034 107.537208 
L 364.364687 111.255321 
L 364.853993 106.817375 
L 365.098646 106.841502 
L 365.343299 108.089297 
L 365.587952 110.896786 
L 365.832605 101.935777 
L 366.077258 98.516758 
L 366.321911 104.043719 
L 366.566564 104.557057 
L 366.811217 101.897835 
L 367.05587 102.389472 
L 367.300523 105.34617 
L 367.789829 102.380711 
L 368.034482 102.944864 
L 368.523788 114.316412 
L 368.768441 113.04887 
L 369.013094 107.490032 
L 369.257747 104.952456 
L 369.5024 104.890117 
L 369.747053 102.061467 
L 370.236359 100.247092 
L 370.481012 101.59308 
L 370.725665 93.638867 
L 370.970318 92.539675 
L 371.214971 95.435853 
L 371.459624 92.491421 
L 371.704277 92.281557 
L 371.94893 90.336102 
L 372.193583 86.275022 
L 372.438236 68.332181 
L 372.682889 73.426541 
L 372.927542 61.465028 
L 373.172195 68.737082 
L 373.416848 64.770556 
L 373.661501 66.637093 
L 373.906154 56.908807 
L 374.150807 57.870988 
L 374.39546 58.366197 
L 374.640113 65.685089 
L 374.884766 68.65958 
L 375.374072 63.730738 
L 375.618725 62.092329 
L 375.863378 55.811502 
L 376.108031 54.457832 
L 376.352684 57.407925 
L 376.841991 55.855645 
L 377.086644 54.531695 
L 377.331297 50.256034 
L 377.57595 48.735227 
L 377.820603 50.420408 
L 378.065256 50.580063 
L 378.309909 56.653183 
L 378.554562 53.388091 
L 378.799215 59.43924 
L 379.043868 52.937025 
L 379.288521 49.897365 
L 379.533174 50.186147 
L 380.02248 54.051178 
L 380.267133 61.50351 
L 380.511786 63.463792 
L 380.756439 70.987022 
L 381.001092 72.965298 
L 381.490398 66.879846 
L 381.490398 66.879846 
" style="fill:none;stroke:#1f77b4;stroke-linecap:square;stroke-width:1.5;"/>
   </g>
   <g id="line2d_32">
    <path clip-path="url(#p27fdc03d2a)" d="M 56.835852 273.507427 
L 57.080505 275.450782 
L 57.325158 269.620717 
L 57.569811 271.387403 
L 57.814464 271.74074 
L 58.059117 265.380669 
L 58.30377 265.734006 
L 58.548423 274.920776 
L 58.793076 273.330758 
L 59.037729 272.624083 
L 59.282382 271.387403 
L 59.527035 275.274113 
L 59.771688 270.680728 
L 60.016341 269.620717 
L 60.260994 269.974054 
L 60.505647 274.037433 
L 60.7503 271.917409 
L 60.994953 275.804119 
L 61.239606 275.62745 
L 61.484259 274.920776 
L 61.728912 270.150722 
L 61.973566 272.270746 
L 62.218219 272.977421 
L 62.462872 271.034066 
L 62.707525 273.154089 
L 62.952178 272.800752 
L 63.196831 274.39077 
L 63.441484 271.74074 
L 63.686137 264.320657 
L 64.175443 268.560705 
L 64.420096 267.324024 
L 64.664749 269.090711 
L 64.909402 265.910675 
L 65.154055 273.860764 
L 65.398708 269.974054 
L 65.643361 270.150722 
L 65.888014 267.500693 
L 66.132667 263.083977 
L 66.37732 261.140622 
L 66.621973 257.077243 
L 66.866626 255.487225 
L 67.111279 255.663894 
L 67.355932 253.367201 
L 67.600585 255.310556 
L 67.845238 251.953852 
L 68.089891 250.540503 
L 68.334544 247.00713 
L 68.579197 246.477124 
L 68.82385 243.473757 
L 69.557809 249.833829 
L 69.802462 250.540503 
L 70.047115 250.540503 
L 70.291768 242.590414 
L 70.536421 238.527035 
L 70.781074 237.820361 
L 71.025727 234.286988 
L 71.759686 249.303823 
L 72.004339 247.183799 
L 72.248992 241.88374 
L 72.493645 245.063775 
L 72.982951 260.610616 
L 73.227604 260.610616 
L 73.472257 260.08061 
L 73.71691 257.783917 
L 73.961563 267.324024 
L 74.206216 267.500693 
L 74.450869 267.324024 
L 74.940175 269.444048 
L 75.429481 276.334125 
L 76.16344 265.380669 
L 76.408093 264.143989 
L 76.652746 260.963953 
L 76.897399 261.847296 
L 77.142052 265.910675 
L 77.386705 258.490592 
L 77.876011 252.30719 
L 78.365317 249.833829 
L 78.60997 241.353734 
L 78.854623 241.88374 
L 79.099276 242.767083 
L 79.343929 245.417112 
L 79.588582 241.353734 
L 80.077888 246.830462 
L 80.322541 249.480491 
L 80.567194 246.300456 
L 80.811847 241.353734 
L 81.0565 246.477124 
L 81.301153 245.063775 
L 81.545806 251.247178 
L 81.790459 251.247178 
L 82.035112 248.420479 
L 82.279765 250.187166 
L 82.524418 254.603882 
L 82.769071 251.247178 
L 83.013724 236.58368 
L 83.258377 237.643692 
L 83.50303 235.700337 
L 83.747683 235.347 
L 83.992336 234.640325 
L 84.481643 221.566846 
L 84.726296 225.806893 
L 84.970949 221.920183 
L 85.215602 224.040207 
L 85.460255 224.216875 
L 85.704908 220.330165 
L 85.949561 225.453556 
L 86.194214 222.980195 
L 86.438867 223.510201 
L 86.928173 217.326798 
L 87.172826 220.153496 
L 87.417479 204.959993 
L 87.906785 212.380076 
L 88.151438 206.196674 
L 88.396091 214.323431 
L 88.640744 208.316697 
L 88.885397 211.673402 
L 89.13005 218.033473 
L 89.374703 219.446822 
L 89.619356 214.853437 
L 89.864009 217.503467 
L 90.108662 217.326798 
L 90.353315 216.266786 
L 90.597968 212.203408 
L 90.842621 204.783324 
L 91.331927 210.083384 
L 91.57658 210.61339 
L 91.821233 220.153496 
L 92.065886 216.796792 
L 92.310539 210.083384 
L 92.555192 210.790058 
L 92.799845 210.436721 
L 93.289151 198.423253 
L 93.533804 197.53991 
L 93.778457 194.88988 
L 94.02311 196.30323 
L 94.267763 195.243218 
L 94.512416 200.719946 
L 95.001722 197.716579 
L 95.246375 199.306597 
L 95.491028 198.953259 
L 95.735681 199.836602 
L 95.980334 194.536543 
L 96.224987 197.716579 
L 96.46964 192.946525 
L 96.714293 196.833236 
L 96.958946 189.059815 
L 97.203599 188.353141 
L 97.448252 184.466431 
L 97.692905 184.819768 
L 97.937558 177.929691 
L 98.182211 181.463064 
L 98.426864 179.166371 
L 98.671517 180.226383 
L 98.91617 179.166371 
L 99.160823 180.049714 
L 99.650129 153.019412 
L 99.894782 152.489406 
L 100.139435 156.376116 
L 100.384088 147.719353 
L 100.628741 148.956033 
L 100.873394 153.902755 
L 101.118047 145.599329 
L 101.3627 147.896021 
L 101.607353 145.245992 
L 102.096659 159.73282 
L 102.341312 162.736187 
L 102.585965 156.729454 
L 102.830618 180.756389 
L 103.075271 183.759756 
L 103.319924 177.223016 
L 103.80923 186.939792 
L 104.053883 181.463064 
L 104.298536 186.763123 
L 104.543189 189.059815 
L 104.787842 186.939792 
L 105.032495 175.45633 
L 105.277148 174.926324 
L 105.521801 172.099625 
L 106.25576 187.293129 
L 106.500413 185.87978 
L 106.745066 176.69301 
L 106.98972 180.049714 
L 107.234373 181.286395 
L 107.479026 181.816401 
L 107.723679 194.713212 
L 107.968332 195.243218 
L 108.212985 213.263419 
L 108.457638 204.07665 
L 108.702291 205.666668 
L 108.946944 208.846703 
L 109.191597 197.716579 
L 109.680903 193.123194 
L 109.925556 192.239851 
L 110.170209 192.063182 
L 110.414862 180.57972 
L 110.659515 180.403052 
L 110.904168 179.166371 
L 111.148821 174.926324 
L 111.393474 180.226383 
L 111.638127 188.353141 
L 111.88278 191.533176 
L 112.127433 204.783324 
L 112.372086 199.836602 
L 112.861392 196.479898 
L 113.595351 204.959993 
L 113.840004 205.843336 
L 114.084657 200.18994 
L 114.818616 191.886514 
L 115.063269 186.056448 
L 115.307922 185.349774 
L 115.552575 185.703111 
L 115.797228 187.646466 
L 116.041881 187.646466 
L 116.286534 191.00317 
L 116.531187 180.403052 
L 116.77584 175.809667 
L 117.020493 174.572986 
L 117.509799 178.636365 
L 118.243758 170.15627 
L 118.488411 177.929691 
L 118.733064 180.049714 
L 118.977717 175.45633 
L 119.22237 178.636365 
L 119.467023 175.986336 
L 119.711676 177.399685 
L 119.956329 179.696377 
L 120.200982 178.283028 
L 120.445635 178.636365 
L 120.690288 177.223016 
L 121.179594 185.526442 
L 121.424247 193.123194 
L 121.913553 190.296496 
L 122.158206 195.419886 
L 122.402859 196.833236 
L 122.647512 193.6532 
L 122.892165 199.306597 
L 123.136818 199.659934 
L 123.381471 195.949892 
L 123.626124 197.893247 
L 123.870777 195.949892 
L 124.11543 199.483265 
L 124.360083 193.123194 
L 124.604736 194.88988 
L 124.849389 194.713212 
L 125.094042 194.359875 
L 125.338695 191.709845 
L 125.583348 187.823135 
L 125.828001 194.183206 
L 126.317307 187.11646 
L 126.56196 188.353141 
L 126.806613 181.286395 
L 127.051266 184.819768 
L 127.295919 182.523075 
L 127.540572 185.526442 
L 127.785225 187.11646 
L 128.029878 191.00317 
L 128.274531 190.473164 
L 128.519184 184.113093 
L 128.763837 186.763123 
L 129.253143 181.816401 
L 129.497797 186.056448 
L 129.74245 181.99307 
L 130.231756 195.419886 
L 130.476409 194.536543 
L 130.721062 186.056448 
L 130.965715 186.939792 
L 131.210368 175.809667 
L 131.455021 179.166371 
L 131.944327 159.73282 
L 132.18898 155.316104 
L 132.433633 157.259459 
L 132.678286 152.312737 
L 132.922939 153.726087 
L 133.167592 153.549418 
L 133.412245 153.549418 
L 133.656898 151.252726 
L 133.901551 142.242625 
L 134.390857 152.312737 
L 134.63551 143.655974 
L 134.880163 142.065956 
L 135.124816 142.419293 
L 135.369469 147.189347 
L 135.614122 148.249359 
L 135.858775 141.005944 
L 136.103428 142.419293 
L 136.348081 139.945932 
L 136.592734 131.289169 
L 136.837387 128.992477 
L 137.08204 125.459104 
L 137.326693 128.815808 
L 137.571346 134.99921 
L 137.815999 130.405826 
L 138.060652 129.522482 
L 138.305305 126.872453 
L 138.549958 126.519116 
L 138.794611 130.935832 
L 139.039264 131.1125 
L 139.283917 133.76253 
L 139.52857 131.995843 
L 139.773223 142.772631 
L 140.017876 141.889287 
L 140.262529 142.242625 
L 140.507182 137.119234 
L 140.751835 136.41256 
L 140.996488 140.652607 
L 141.485794 159.909489 
L 141.9751 159.909489 
L 142.219753 161.852844 
L 142.464406 150.72272 
L 142.709059 151.782732 
L 142.953712 159.909489 
L 143.198365 158.142803 
L 143.443018 159.202815 
L 143.687671 154.60943 
L 144.176977 152.136069 
L 144.42163 153.196081 
L 144.666283 156.199448 
L 144.910936 155.139436 
L 145.155589 154.60943 
L 145.644895 147.542684 
L 145.889548 147.896021 
L 146.378854 154.786098 
L 146.623507 146.659341 
L 146.86816 143.479305 
L 147.112813 143.655974 
L 147.357466 145.069323 
L 147.602119 142.595962 
L 147.846772 141.889287 
L 148.091425 146.482672 
L 148.336078 162.736187 
L 148.580731 170.332939 
L 148.825384 156.906122 
L 149.070037 162.38285 
L 149.31469 149.839376 
L 149.559343 157.259459 
L 149.803996 153.726087 
L 150.048649 138.885921 
L 150.293302 152.842743 
L 150.537955 149.486039 
L 151.271914 131.1125 
L 151.516567 135.882554 
L 151.76122 134.292536 
L 152.005874 130.052488 
L 152.250527 131.1125 
L 152.49518 138.179246 
L 152.739833 136.942565 
L 152.984486 138.532583 
L 153.229139 129.169145 
L 153.473792 130.935832 
L 153.718445 129.169145 
L 153.963098 124.929098 
L 154.452404 129.345814 
L 154.697057 116.80234 
L 154.94171 115.742328 
L 155.186363 120.865719 
L 155.675669 122.102399 
L 155.920322 121.572394 
L 156.164975 129.345814 
L 156.409628 144.539317 
L 156.654281 142.595962 
L 156.898934 139.239258 
L 157.143587 130.229157 
L 157.38824 134.115867 
L 157.877546 125.812441 
L 158.122199 138.002577 
L 158.611505 125.812441 
L 158.856158 127.22579 
L 159.100811 131.1125 
L 159.345464 126.872453 
L 159.590117 129.87582 
L 159.83477 123.869086 
L 160.079423 121.925731 
L 160.324076 126.165778 
L 160.568729 143.125968 
L 160.813382 148.956033 
L 161.058035 142.595962 
L 161.547341 166.799566 
L 161.791994 166.622898 
L 162.036647 166.26956 
L 162.525953 159.909489 
L 162.770606 149.132702 
L 163.015259 146.659341 
L 163.259912 148.07269 
L 163.504565 151.782732 
L 163.749218 151.076057 
L 163.993871 128.285802 
L 164.238524 133.232524 
L 164.483177 141.712619 
L 164.72783 144.009311 
L 164.972483 151.076057 
L 165.461789 174.396318 
L 165.706442 181.639732 
L 165.951095 178.989703 
L 166.195748 181.463064 
L 166.685054 178.459697 
L 166.929707 180.226383 
L 167.17436 180.933058 
L 167.419013 179.873046 
L 167.663666 177.046348 
L 167.908319 177.576353 
L 168.152972 171.922957 
L 168.397625 170.332939 
L 168.642278 173.336306 
L 168.886931 171.216282 
L 169.131584 171.216282 
L 169.376237 171.392951 
L 169.62089 170.862945 
L 169.865543 169.449596 
L 170.110196 171.56962 
L 170.354849 170.686276 
L 170.599502 168.566253 
L 170.844155 174.572986 
L 171.088808 175.809667 
L 171.333461 173.159637 
L 171.578114 174.396318 
L 171.822767 174.042981 
L 172.312073 171.216282 
L 172.556726 173.512975 
L 172.801379 169.449596 
L 173.046032 171.56962 
L 173.290685 168.212915 
L 173.535338 174.042981 
L 173.779991 176.69301 
L 174.024644 167.859578 
L 174.269298 171.56962 
L 174.513951 170.15627 
L 174.758604 169.979602 
L 175.24791 157.789465 
L 175.492563 154.962767 
L 175.737216 155.669442 
L 175.981869 161.676176 
L 176.226522 163.442862 
L 176.471175 164.326205 
L 176.715828 163.089525 
L 177.205134 157.082791 
L 177.449787 147.366015 
L 177.69444 154.60943 
L 177.939093 151.429394 
L 178.183746 158.142803 
L 178.428399 155.669442 
L 178.673052 157.436128 
L 178.917705 158.319471 
L 179.407011 162.559519 
L 179.896317 177.399685 
L 180.14097 187.293129 
L 180.385623 184.466431 
L 180.630276 186.409786 
L 180.874929 192.416519 
L 181.119582 194.713212 
L 181.364235 198.953259 
L 181.608888 193.6532 
L 181.853541 195.243218 
L 182.098194 198.246585 
L 182.342847 195.949892 
L 182.5875 186.763123 
L 182.832153 188.353141 
L 183.076806 184.819768 
L 183.321459 183.053081 
L 183.810765 185.173105 
L 184.055418 183.406419 
L 184.300071 183.583087 
L 184.789377 173.336306 
L 185.03403 175.279661 
L 185.278683 175.102992 
L 185.523336 177.399685 
L 185.767989 174.926324 
L 186.012642 175.45633 
L 186.257295 170.509608 
L 186.746601 177.929691 
L 187.235907 170.862945 
L 187.48056 174.396318 
L 187.725213 165.739554 
L 187.969866 163.442862 
L 188.459172 154.079424 
L 189.193131 163.442862 
L 189.437784 158.849477 
L 189.92709 169.272927 
L 190.171743 168.389584 
L 190.416396 171.922957 
L 190.661049 179.34304 
L 190.905702 180.933058 
L 191.150355 178.106359 
L 191.395008 178.989703 
L 191.639661 185.703111 
L 191.884314 175.279661 
L 192.128967 182.169738 
L 192.37362 179.696377 
L 192.618273 191.356508 
L 192.862926 191.533176 
L 193.107579 196.30323 
L 193.352232 204.959993 
L 193.841538 200.896614 
L 194.086191 194.713212 
L 194.330844 194.359875 
L 194.575497 189.059815 
L 194.82015 180.049714 
L 195.064803 181.463064 
L 195.309456 180.403052 
L 195.798762 167.152903 
L 196.043415 165.209548 
L 196.288068 160.969501 
L 196.532721 159.379483 
L 196.777375 163.619531 
L 197.022028 163.619531 
L 197.266681 165.739554 
L 197.511334 160.792832 
L 198.00064 156.906122 
L 198.245293 156.906122 
L 198.489946 158.319471 
L 198.734599 158.672809 
L 198.979252 153.902755 
L 199.223905 156.552785 
L 199.468558 156.552785 
L 199.713211 156.376116 
L 199.957864 160.439495 
L 200.202517 156.022779 
L 200.44717 144.892654 
L 200.691823 144.009311 
L 200.936476 142.065956 
L 201.425782 133.409193 
L 201.670435 134.822542 
L 201.915088 129.169145 
L 202.404394 129.87582 
L 202.649047 131.465838 
L 202.8937 135.175879 
L 203.138353 147.542684 
L 203.383006 149.132702 
L 203.627659 152.489406 
L 203.872312 144.539317 
L 204.116965 129.522482 
L 204.361618 130.052488 
L 204.606271 127.402459 
L 204.850924 138.709252 
L 205.095577 139.239258 
L 205.34023 135.175879 
L 205.584883 139.769264 
L 205.829536 139.945932 
L 206.074189 144.009311 
L 206.318842 140.829276 
L 206.563495 143.832643 
L 206.808148 139.239258 
L 207.052801 131.642506 
L 207.297454 120.159044 
L 207.78676 115.388991 
L 208.031413 121.219056 
L 208.276066 120.512382 
L 208.520719 121.925731 
L 209.010025 109.558926 
L 209.254678 117.685683 
L 209.499331 114.682316 
L 209.743984 121.042388 
L 209.988637 114.858985 
L 210.23329 118.392358 
L 210.477943 129.87582 
L 210.722596 131.995843 
L 210.967249 142.242625 
L 211.456555 128.639139 
L 211.701208 127.755796 
L 211.945861 111.502281 
L 212.190514 108.322245 
L 212.435167 110.088932 
L 212.67982 91.008718 
L 212.924473 89.242032 
L 213.169126 78.288576 
L 213.413779 82.351955 
L 213.658432 83.411967 
L 214.147738 86.415334 
L 214.392391 83.765304 
L 214.637044 86.768671 
L 214.881697 87.652014 
L 215.12635 81.998617 
L 215.371003 83.235298 
L 215.615656 88.005351 
L 215.860309 80.055262 
L 216.104962 83.765304 
L 216.349615 82.351955 
L 216.594268 85.355322 
L 216.838921 94.188754 
L 217.083574 93.128742 
L 217.57288 100.195488 
L 217.817533 93.658748 
L 218.062186 93.658748 
L 218.306839 85.885328 
L 218.551492 90.655381 
L 218.796145 86.945339 
L 219.040798 91.008718 
L 219.285452 89.242032 
L 219.530105 75.10854 
L 219.774758 84.471978 
L 220.264064 90.83205 
L 220.75337 75.991884 
L 220.998023 79.701925 
L 221.242676 87.828683 
L 221.487329 86.945339 
L 222.221288 82.351955 
L 222.710594 68.218463 
L 222.955247 74.401866 
L 223.1999 75.461878 
L 223.444553 72.281842 
L 223.689206 72.635179 
L 223.933859 75.285209 
L 224.178512 75.815215 
L 224.423165 77.935239 
L 224.667818 77.228564 
L 224.912471 69.631812 
L 225.157124 71.22183 
L 225.401777 83.235298 
L 225.64643 85.178653 
L 225.891083 88.535357 
L 226.135736 94.895428 
L 226.380389 92.245399 
L 226.625042 88.005351 
L 226.869695 91.538724 
L 227.114348 103.198855 
L 227.359001 101.078831 
L 227.603654 93.305411 
L 227.848307 94.365422 
L 228.337613 101.962174 
L 228.582266 94.71876 
L 228.826919 93.835417 
L 229.071572 94.012085 
L 229.316225 89.948706 
L 229.805531 87.298677 
L 230.050184 88.712026 
L 230.294837 91.715393 
L 231.028796 80.4086 
L 231.273449 83.765304 
L 231.762755 86.415334 
L 232.252061 92.06873 
L 232.496714 94.012085 
L 232.741367 93.482079 
L 232.98602 88.18202 
L 233.230673 85.53199 
L 233.719979 92.952073 
L 233.964632 92.952073 
L 234.209285 94.012085 
L 234.453938 87.122008 
L 234.698591 90.478712 
L 234.943244 88.18202 
L 235.187897 84.825316 
L 235.677203 93.305411 
L 235.921856 95.072097 
L 236.166509 100.902162 
L 236.411162 101.962174 
L 236.655815 99.135476 
L 236.900468 104.788872 
L 237.145121 106.908896 
L 237.389774 98.428801 
L 237.634427 103.375523 
L 238.613039 74.578534 
L 238.857692 76.345221 
L 239.102345 74.225197 
L 239.346998 74.755203 
L 239.591651 71.751836 
L 239.836304 73.518523 
L 240.080957 78.111907 
L 240.32561 79.878594 
L 240.570263 89.065363 
L 240.814916 87.652014 
L 241.059569 69.808481 
L 241.304222 62.565067 
L 241.548875 63.095073 
L 241.793529 57.265007 
L 242.038182 55.67499 
L 242.282835 56.381664 
L 242.527488 61.505055 
L 242.772141 72.988517 
L 243.016794 72.635179 
L 243.261447 69.631812 
L 243.5061 73.87186 
L 243.750753 69.455144 
L 243.995406 69.631812 
L 244.240059 70.338487 
L 244.484712 67.158451 
L 244.729365 66.805114 
L 244.974018 71.22183 
L 245.463324 101.785505 
L 245.95263 140.652607 
L 246.441936 106.732227 
L 247.175895 140.29927 
L 247.420548 129.522482 
L 247.665201 130.935832 
L 247.909854 140.122601 
L 248.154507 119.629038 
L 248.39916 129.699151 
L 248.643813 118.039021 
L 248.888466 111.855618 
L 249.133119 116.449003 
L 249.377772 108.322245 
L 249.622425 108.145577 
L 249.867078 102.845517 
L 250.356384 121.572394 
L 250.601037 124.399092 
L 250.84569 118.039021 
L 251.090343 116.625672 
L 251.579649 149.839376 
L 251.824302 146.306004 
L 252.313608 131.819175 
L 252.558261 109.912263 
L 252.802914 102.845517 
L 253.047567 115.035654 
L 253.29222 106.202222 
L 253.536873 109.735594 
L 253.781526 107.085565 
L 254.026179 107.438902 
L 254.270832 111.67895 
L 254.515485 110.618938 
L 254.760138 92.245399 
L 255.004791 86.415334 
L 255.249444 84.825316 
L 255.73875 103.198855 
L 255.983403 105.495547 
L 256.228056 92.775405 
L 256.472709 90.83205 
L 256.962015 68.041795 
L 257.451321 96.838783 
L 257.695974 74.931872 
L 257.940627 76.521889 
L 258.18528 91.185387 
L 258.429933 91.008718 
L 258.919239 99.84215 
L 259.163892 97.368789 
L 259.408545 98.252133 
L 259.653198 104.435535 
L 260.142504 108.498914 
L 260.387157 113.622305 
L 260.63181 105.848884 
L 260.876463 123.869086 
L 261.121116 125.812441 
L 261.365769 140.829276 
L 261.855075 113.622305 
L 262.099728 115.035654 
L 262.344381 115.388991 
L 262.589034 100.372156 
L 263.07834 122.102399 
L 263.322993 114.858985 
L 263.812299 119.629038 
L 264.056952 123.869086 
L 264.301606 122.632405 
L 264.546259 127.932465 
L 265.035565 124.399092 
L 265.280218 118.745695 
L 265.769524 129.169145 
L 266.014177 120.865719 
L 266.748136 118.039021 
L 266.992789 121.572394 
L 267.237442 114.328979 
L 267.482095 115.742328 
L 267.971401 129.87582 
L 268.216054 125.812441 
L 268.460707 135.882554 
L 268.70536 139.592595 
L 268.950013 146.659341 
L 269.194666 145.42266 
L 269.439319 146.659341 
L 269.683972 157.789465 
L 269.928625 144.715986 
L 270.173278 150.016045 
L 270.417931 152.136069 
L 270.662584 152.666075 
L 270.907237 154.079424 
L 271.15189 151.782732 
L 271.396543 155.492773 
L 271.641196 152.489406 
L 271.885849 155.139436 
L 272.130502 160.792832 
L 272.375155 155.669442 
L 272.619808 161.322838 
L 272.864461 161.852844 
L 273.353767 181.99307 
L 273.59842 181.463064 
L 273.843073 189.76649 
L 274.332379 173.336306 
L 274.577032 179.696377 
L 274.821685 175.632998 
L 275.066338 167.682909 
L 275.310991 170.862945 
L 275.800297 173.336306 
L 276.04495 163.442862 
L 276.289603 165.03288 
L 276.534256 163.972868 
L 276.778909 153.902755 
L 277.023562 160.262826 
L 277.268215 170.15627 
L 277.512868 163.619531 
L 277.757521 164.679542 
L 278.002174 166.26956 
L 278.246827 169.449596 
L 278.49148 168.036247 
L 278.736133 175.632998 
L 278.980786 168.91959 
L 279.225439 171.56962 
L 279.470092 155.492773 
L 279.959398 172.452963 
L 280.204051 181.286395 
L 280.448704 175.986336 
L 280.693357 174.042981 
L 280.93801 163.089525 
L 281.182663 157.612797 
L 281.916622 168.212915 
L 282.161275 163.442862 
L 282.405928 163.089525 
L 282.650581 170.686276 
L 282.895234 163.619531 
L 283.38454 140.29927 
L 283.629193 112.562293 
L 283.873846 115.56566 
L 284.118499 120.159044 
L 284.363152 130.935832 
L 284.607805 129.699151 
L 284.852458 119.45237 
L 285.097111 117.509015 
L 285.341764 120.159044 
L 285.586417 118.215689 
L 286.075723 107.262233 
L 286.320376 107.085565 
L 286.56503 106.555559 
L 286.809683 107.615571 
L 287.054336 110.442269 
L 287.298989 111.325612 
L 287.543642 112.91563 
L 287.788295 116.449003 
L 288.032948 114.858985 
L 288.277601 98.958807 
L 288.522254 104.258866 
L 288.766907 101.2555 
L 289.01156 101.078831 
L 289.256213 96.838783 
L 289.500866 97.192121 
L 289.745519 108.498914 
L 289.990172 107.968908 
L 290.234825 107.968908 
L 290.479478 104.612204 
L 290.724131 110.795606 
L 290.968784 108.322245 
L 291.213437 104.612204 
L 291.45809 98.252133 
L 291.702743 99.488813 
L 292.192049 87.475345 
L 292.436702 86.061996 
L 292.681355 82.881961 
L 293.415314 78.288576 
L 293.659967 81.468612 
L 293.90462 77.228564 
L 294.149273 78.818582 
L 294.393926 71.575167 
L 294.638579 70.515156 
L 294.883232 70.868493 
L 295.127885 80.585268 
L 295.372538 76.168552 
L 295.617191 79.701925 
L 295.861844 80.4086 
L 296.106497 89.772038 
L 296.595803 80.4086 
L 296.840456 85.355322 
L 297.085109 83.235298 
L 297.329762 94.188754 
L 297.574415 97.192121 
L 298.063721 75.815215 
L 298.308374 72.281842 
L 298.79768 61.681723 
L 299.042333 60.79838 
L 299.286986 62.388398 
L 299.531639 56.204996 
L 299.776292 55.67499 
L 300.265598 52.848291 
L 300.510251 42.071504 
L 300.999557 47.018226 
L 301.24421 47.018226 
L 301.733516 45.781546 
L 302.222822 44.544865 
L 302.467475 43.661522 
L 302.712128 43.308185 
L 302.956781 46.48822 
L 303.201434 42.60151 
L 303.446087 35.181427 
L 303.935393 70.868493 
L 304.180046 73.341854 
L 304.424699 68.218463 
L 304.669352 77.228564 
L 304.914005 74.578534 
L 305.158658 73.695191 
L 305.403311 73.341854 
L 305.647964 76.345221 
L 305.892617 74.048528 
L 306.13727 79.701925 
L 306.381923 73.518523 
L 306.626576 72.635179 
L 307.115882 78.818582 
L 307.360535 74.401866 
L 307.605188 79.171919 
L 307.849841 80.055262 
L 308.094494 79.171919 
L 308.339147 74.048528 
L 308.5838 78.111907 
L 308.828453 79.525256 
L 309.073107 81.64528 
L 309.31776 80.055262 
L 309.562413 80.055262 
L 309.807066 78.818582 
L 310.051719 80.938606 
L 310.296372 91.892061 
L 310.541025 82.175286 
L 310.785678 92.952073 
L 311.030331 94.71876 
L 311.274984 91.185387 
L 311.76429 99.84215 
L 312.008943 97.015452 
L 312.253596 88.712026 
L 312.498249 91.008718 
L 312.742902 89.065363 
L 312.987555 100.018819 
L 313.476861 93.835417 
L 313.721514 105.672216 
L 313.966167 95.95544 
L 314.21082 99.312144 
L 314.455473 98.60547 
L 314.700126 95.425434 
L 314.944779 99.84215 
L 315.189432 101.432168 
L 315.434085 100.548825 
L 315.678738 109.02892 
L 315.923391 110.088932 
L 316.168044 115.56566 
L 316.412697 117.332346 
L 316.65735 120.159044 
L 316.902003 116.80234 
L 317.391309 119.45237 
L 317.635962 125.812441 
L 317.880615 126.695784 
L 318.369921 121.925731 
L 318.614574 120.512382 
L 318.859227 130.229157 
L 319.10388 134.115867 
L 319.837839 166.26956 
L 320.082492 164.326205 
L 320.327145 157.612797 
L 320.571798 164.326205 
L 321.061104 102.668849 
L 321.305757 118.569027 
L 322.529022 138.179246 
L 322.773675 136.589228 
L 323.018328 140.829276 
L 323.262981 139.239258 
L 323.507634 134.469204 
L 323.752287 137.119234 
L 324.241593 126.519116 
L 324.486246 138.532583 
L 324.730899 135.529216 
L 325.220205 136.765897 
L 325.709511 147.719353 
L 326.198817 121.925731 
L 326.44347 114.328979 
L 326.688123 114.505648 
L 326.932776 115.742328 
L 327.177429 114.152311 
L 327.422082 114.328979 
L 327.666735 113.975642 
L 327.911388 121.925731 
L 328.156041 122.985743 
L 328.400694 120.512382 
L 328.645347 119.629038 
L 328.89 122.809074 
L 329.134653 120.335713 
L 329.379306 120.512382 
L 329.868612 106.202222 
L 330.113265 100.548825 
L 330.357918 102.845517 
L 330.602571 103.022186 
L 330.847224 103.552192 
L 331.091877 114.328979 
L 331.33653 118.392358 
L 331.581184 119.805707 
L 331.825837 127.932465 
L 332.07049 128.462471 
L 332.315143 134.292536 
L 332.559796 133.055855 
L 333.049102 144.009311 
L 333.293755 141.53595 
L 333.538408 141.712619 
L 333.783061 139.239258 
L 334.027714 141.182613 
L 334.272367 133.76253 
L 334.51702 134.822542 
L 334.761673 133.76253 
L 335.006326 127.402459 
L 335.250979 124.929098 
L 335.495632 127.579127 
L 335.740285 126.519116 
L 335.984938 122.279068 
L 336.229591 122.809074 
L 336.474244 118.215689 
L 336.718897 115.742328 
L 336.96355 102.315511 
L 337.208203 100.372156 
L 337.697509 100.372156 
L 337.942162 100.902162 
L 338.186815 92.598736 
L 338.431468 89.065363 
L 338.676121 88.712026 
L 338.920774 91.538724 
L 339.165427 86.238665 
L 339.41008 84.648647 
L 339.654733 84.471978 
L 339.899386 87.475345 
L 340.144039 93.835417 
L 340.388692 95.248766 
L 340.633345 92.775405 
L 340.877998 91.715393 
L 341.122651 91.715393 
L 341.367304 89.772038 
L 341.611957 82.528623 
L 342.101263 88.005351 
L 342.345916 86.945339 
L 342.590569 89.242032 
L 342.835222 85.355322 
L 343.079875 88.535357 
L 343.324528 93.658748 
L 343.569181 90.478712 
L 343.813834 90.83205 
L 344.058487 87.828683 
L 344.30314 87.475345 
L 344.547793 89.948706 
L 344.792446 89.4187 
L 345.037099 87.652014 
L 345.281752 90.302044 
L 345.526405 91.715393 
L 345.771058 91.892061 
L 346.015711 92.952073 
L 346.260364 94.895428 
L 346.505017 95.072097 
L 346.74967 95.778772 
L 346.994323 93.658748 
L 347.483629 100.548825 
L 347.728282 98.252133 
L 347.972935 100.018819 
L 348.217588 98.252133 
L 348.462241 97.898795 
L 348.706894 96.308778 
L 348.951547 96.132109 
L 349.1962 95.072097 
L 349.930159 103.022186 
L 350.174812 103.375523 
L 350.419465 102.845517 
L 350.664118 103.375523 
L 350.908771 104.612204 
L 351.153424 110.795606 
L 351.398077 110.618938 
L 351.64273 111.148944 
L 351.887383 109.205588 
L 352.376689 124.929098 
L 352.621342 125.105766 
L 352.865995 120.865719 
L 353.110648 126.872453 
L 353.355301 126.519116 
L 353.599954 128.109133 
L 353.844607 126.165778 
L 354.333914 126.695784 
L 354.578567 117.509015 
L 354.82322 116.449003 
L 355.312526 122.809074 
L 355.557179 127.755796 
L 355.801832 128.992477 
L 356.046485 133.409193 
L 356.291138 115.388991 
L 356.535791 116.625672 
L 356.780444 118.745695 
L 357.26975 114.682316 
L 357.514403 111.855618 
L 358.003709 101.432168 
L 358.493015 92.598736 
L 358.737668 90.655381 
L 358.982321 92.952073 
L 359.226974 97.722127 
L 359.471627 98.075464 
L 359.71628 100.195488 
L 359.960933 100.902162 
L 360.205586 96.838783 
L 360.450239 100.018819 
L 360.694892 107.438902 
L 360.939545 105.14221 
L 361.184198 104.082198 
L 361.428851 108.322245 
L 361.918157 106.37889 
L 362.16281 103.728861 
L 362.407463 106.908896 
L 362.652116 104.965541 
L 362.896769 100.372156 
L 363.386075 102.845517 
L 363.875381 109.558926 
L 364.120034 113.268967 
L 364.60934 108.675583 
L 364.853993 108.498914 
L 365.098646 109.912263 
L 365.343299 112.738961 
L 365.587952 103.728861 
L 365.832605 100.018819 
L 366.077258 105.848884 
L 366.321911 106.37889 
L 366.566564 103.375523 
L 366.811217 103.905529 
L 367.05587 106.908896 
L 367.545176 104.612204 
L 367.789829 104.965541 
L 368.279135 117.155677 
L 368.523788 115.56566 
L 368.768441 108.675583 
L 369.013094 107.085565 
L 369.257747 107.262233 
L 369.5024 104.435535 
L 369.747053 103.022186 
L 369.991706 102.49218 
L 370.236359 103.375523 
L 370.481012 95.072097 
L 370.725665 94.365422 
L 370.970318 97.192121 
L 371.214971 93.835417 
L 371.459624 93.835417 
L 371.704277 91.892061 
L 371.94893 88.005351 
L 372.193583 69.455144 
L 372.438236 74.931872 
L 372.682889 63.095073 
L 372.927542 69.631812 
L 373.172195 66.275108 
L 373.416848 68.041795 
L 373.661501 58.501688 
L 374.150807 59.031694 
L 374.39546 66.981783 
L 374.640113 70.691824 
L 375.374072 63.625079 
L 375.618725 57.088339 
L 375.863378 55.851658 
L 376.108031 59.031694 
L 376.597338 57.441676 
L 376.841991 55.851658 
L 377.086644 51.258274 
L 377.331297 50.37493 
L 377.57595 52.141617 
L 377.820603 52.318285 
L 378.065256 58.678357 
L 378.309909 54.791646 
L 378.554562 61.328386 
L 378.799215 54.084972 
L 379.043868 50.904936 
L 379.288521 51.258274 
L 379.777827 55.498321 
L 380.02248 62.918404 
L 380.267133 65.391765 
L 380.511786 73.341854 
L 380.756439 74.931872 
L 381.245745 67.865126 
L 381.490398 66.275108 
L 381.490398 66.275108 
" style="fill:none;stroke:#ff7f0e;stroke-linecap:square;stroke-width:1.5;"/>
   </g>
   <g id="patch_3">
    <path d="M 40.603125 288.430125 
L 40.603125 22.318125 
" style="fill:none;stroke:#000000;stroke-linecap:square;stroke-linejoin:miter;stroke-width:0.8;"/>
   </g>
   <g id="patch_4">
    <path d="M 397.723125 288.430125 
L 397.723125 22.318125 
" style="fill:none;stroke:#000000;stroke-linecap:square;stroke-linejoin:miter;stroke-width:0.8;"/>
   </g>
   <g id="patch_5">
    <path d="M 40.603125 288.430125 
L 397.723125 288.430125 
" style="fill:none;stroke:#000000;stroke-linecap:square;stroke-linejoin:miter;stroke-width:0.8;"/>
   </g>
   <g id="patch_6">
    <path d="M 40.603125 22.318125 
L 397.723125 22.318125 
" style="fill:none;stroke:#000000;stroke-linecap:square;stroke-linejoin:miter;stroke-width:0.8;"/>
   </g>
   <g id="text_18">
    <!-- Training: PFE -->
    <defs>
     <path d="M -0.296875 72.90625 
L 61.375 72.90625 
L 61.375 64.59375 
L 35.5 64.59375 
L 35.5 0 
L 25.59375 0 
L 25.59375 64.59375 
L -0.296875 64.59375 
z
" id="DejaVuSans-84"/>
     <path d="M 54.890625 33.015625 
L 54.890625 0 
L 45.90625 0 
L 45.90625 32.71875 
Q 45.90625 40.484375 42.875 44.328125 
Q 39.84375 48.1875 33.796875 48.1875 
Q 26.515625 48.1875 22.3125 43.546875 
Q 18.109375 38.921875 18.109375 30.90625 
L 18.109375 0 
L 9.078125 0 
L 9.078125 54.6875 
L 18.109375 54.6875 
L 18.109375 46.1875 
Q 21.34375 51.125 25.703125 53.5625 
Q 30.078125 56 35.796875 56 
Q 45.21875 56 50.046875 50.171875 
Q 54.890625 44.34375 54.890625 33.015625 
z
" id="DejaVuSans-110"/>
     <path d="M 45.40625 27.984375 
Q 45.40625 37.75 41.375 43.109375 
Q 37.359375 48.484375 30.078125 48.484375 
Q 22.859375 48.484375 18.828125 43.109375 
Q 14.796875 37.75 14.796875 27.984375 
Q 14.796875 18.265625 18.828125 12.890625 
Q 22.859375 7.515625 30.078125 7.515625 
Q 37.359375 7.515625 41.375 12.890625 
Q 45.40625 18.265625 45.40625 27.984375 
z
M 54.390625 6.78125 
Q 54.390625 -7.171875 48.1875 -13.984375 
Q 42 -20.796875 29.203125 -20.796875 
Q 24.46875 -20.796875 20.265625 -20.09375 
Q 16.0625 -19.390625 12.109375 -17.921875 
L 12.109375 -9.1875 
Q 16.0625 -11.328125 19.921875 -12.34375 
Q 23.78125 -13.375 27.78125 -13.375 
Q 36.625 -13.375 41.015625 -8.765625 
Q 45.40625 -4.15625 45.40625 5.171875 
L 45.40625 9.625 
Q 42.625 4.78125 38.28125 2.390625 
Q 33.9375 0 27.875 0 
Q 17.828125 0 11.671875 7.65625 
Q 5.515625 15.328125 5.515625 27.984375 
Q 5.515625 40.671875 11.671875 48.328125 
Q 17.828125 56 27.875 56 
Q 33.9375 56 38.28125 53.609375 
Q 42.625 51.21875 45.40625 46.390625 
L 45.40625 54.6875 
L 54.390625 54.6875 
z
" id="DejaVuSans-103"/>
     <path d="M 11.71875 12.40625 
L 22.015625 12.40625 
L 22.015625 0 
L 11.71875 0 
z
M 11.71875 51.703125 
L 22.015625 51.703125 
L 22.015625 39.3125 
L 11.71875 39.3125 
z
" id="DejaVuSans-58"/>
     <path d="M 9.8125 72.90625 
L 51.703125 72.90625 
L 51.703125 64.59375 
L 19.671875 64.59375 
L 19.671875 43.109375 
L 48.578125 43.109375 
L 48.578125 34.8125 
L 19.671875 34.8125 
L 19.671875 0 
L 9.8125 0 
z
" id="DejaVuSans-70"/>
     <path d="M 9.8125 72.90625 
L 55.90625 72.90625 
L 55.90625 64.59375 
L 19.671875 64.59375 
L 19.671875 43.015625 
L 54.390625 43.015625 
L 54.390625 34.71875 
L 19.671875 34.71875 
L 19.671875 8.296875 
L 56.78125 8.296875 
L 56.78125 0 
L 9.8125 0 
z
" id="DejaVuSans-69"/>
    </defs>
    <g transform="translate(180.704063 16.318125)scale(0.12 -0.12)">
     <use xlink:href="#DejaVuSans-84"/>
     <use x="46.333984" xlink:href="#DejaVuSans-114"/>
     <use x="87.447266" xlink:href="#DejaVuSans-97"/>
     <use x="148.726562" xlink:href="#DejaVuSans-105"/>
     <use x="176.509766" xlink:href="#DejaVuSans-110"/>
     <use x="239.888672" xlink:href="#DejaVuSans-105"/>
     <use x="267.671875" xlink:href="#DejaVuSans-110"/>
     <use x="331.050781" xlink:href="#DejaVuSans-103"/>
     <use x="394.527344" xlink:href="#DejaVuSans-58"/>
     <use x="428.21875" xlink:href="#DejaVuSans-32"/>
     <use x="460.005859" xlink:href="#DejaVuSans-80"/>
     <use x="520.308594" xlink:href="#DejaVuSans-70"/>
     <use x="577.828125" xlink:href="#DejaVuSans-69"/>
    </g>
   </g>
   <g id="legend_1">
    <g id="patch_7">
     <path d="M 47.603125 59.674375 
L 131.33125 59.674375 
Q 133.33125 59.674375 133.33125 57.674375 
L 133.33125 29.318125 
Q 133.33125 27.318125 131.33125 27.318125 
L 47.603125 27.318125 
Q 45.603125 27.318125 45.603125 29.318125 
L 45.603125 57.674375 
Q 45.603125 59.674375 47.603125 59.674375 
z
" style="fill:#ffffff;opacity:0.8;stroke:#cccccc;stroke-linejoin:miter;"/>
    </g>
    <g id="line2d_33">
     <path d="M 49.603125 35.416562 
L 69.603125 35.416562 
" style="fill:none;stroke:#1f77b4;stroke-linecap:square;stroke-width:1.5;"/>
    </g>
    <g id="line2d_34"/>
    <g id="text_19">
     <!-- Predicted -->
     <defs>
      <path d="M 45.40625 46.390625 
L 45.40625 75.984375 
L 54.390625 75.984375 
L 54.390625 0 
L 45.40625 0 
L 45.40625 8.203125 
Q 42.578125 3.328125 38.25 0.953125 
Q 33.9375 -1.421875 27.875 -1.421875 
Q 17.96875 -1.421875 11.734375 6.484375 
Q 5.515625 14.40625 5.515625 27.296875 
Q 5.515625 40.1875 11.734375 48.09375 
Q 17.96875 56 27.875 56 
Q 33.9375 56 38.25 53.625 
Q 42.578125 51.265625 45.40625 46.390625 
z
M 14.796875 27.296875 
Q 14.796875 17.390625 18.875 11.75 
Q 22.953125 6.109375 30.078125 6.109375 
Q 37.203125 6.109375 41.296875 11.75 
Q 45.40625 17.390625 45.40625 27.296875 
Q 45.40625 37.203125 41.296875 42.84375 
Q 37.203125 48.484375 30.078125 48.484375 
Q 22.953125 48.484375 18.875 42.84375 
Q 14.796875 37.203125 14.796875 27.296875 
z
" id="DejaVuSans-100"/>
      <path d="M 18.3125 70.21875 
L 18.3125 54.6875 
L 36.8125 54.6875 
L 36.8125 47.703125 
L 18.3125 47.703125 
L 18.3125 18.015625 
Q 18.3125 11.328125 20.140625 9.421875 
Q 21.96875 7.515625 27.59375 7.515625 
L 36.8125 7.515625 
L 36.8125 0 
L 27.59375 0 
Q 17.1875 0 13.234375 3.875 
Q 9.28125 7.765625 9.28125 18.015625 
L 9.28125 47.703125 
L 2.6875 47.703125 
L 2.6875 54.6875 
L 9.28125 54.6875 
L 9.28125 70.21875 
z
" id="DejaVuSans-116"/>
     </defs>
     <g transform="translate(77.603125 38.916562)scale(0.1 -0.1)">
      <use xlink:href="#DejaVuSans-80"/>
      <use x="58.552734" xlink:href="#DejaVuSans-114"/>
      <use x="97.416016" xlink:href="#DejaVuSans-101"/>
      <use x="158.939453" xlink:href="#DejaVuSans-100"/>
      <use x="222.416016" xlink:href="#DejaVuSans-105"/>
      <use x="250.199219" xlink:href="#DejaVuSans-99"/>
      <use x="305.179688" xlink:href="#DejaVuSans-116"/>
      <use x="344.388672" xlink:href="#DejaVuSans-101"/>
      <use x="405.912109" xlink:href="#DejaVuSans-100"/>
     </g>
    </g>
    <g id="line2d_35">
     <path d="M 49.603125 50.094687 
L 69.603125 50.094687 
" style="fill:none;stroke:#ff7f0e;stroke-linecap:square;stroke-width:1.5;"/>
    </g>
    <g id="line2d_36"/>
    <g id="text_20">
     <!-- True value -->
     <defs>
      <path d="M 8.5 21.578125 
L 8.5 54.6875 
L 17.484375 54.6875 
L 17.484375 21.921875 
Q 17.484375 14.15625 20.5 10.265625 
Q 23.53125 6.390625 29.59375 6.390625 
Q 36.859375 6.390625 41.078125 11.03125 
Q 45.3125 15.671875 45.3125 23.6875 
L 45.3125 54.6875 
L 54.296875 54.6875 
L 54.296875 0 
L 45.3125 0 
L 45.3125 8.40625 
Q 42.046875 3.421875 37.71875 1 
Q 33.40625 -1.421875 27.6875 -1.421875 
Q 18.265625 -1.421875 13.375 4.4375 
Q 8.5 10.296875 8.5 21.578125 
z
M 31.109375 56 
z
" id="DejaVuSans-117"/>
      <path d="M 2.984375 54.6875 
L 12.5 54.6875 
L 29.59375 8.796875 
L 46.6875 54.6875 
L 56.203125 54.6875 
L 35.6875 0 
L 23.484375 0 
z
" id="DejaVuSans-118"/>
      <path d="M 9.421875 75.984375 
L 18.40625 75.984375 
L 18.40625 0 
L 9.421875 0 
z
" id="DejaVuSans-108"/>
     </defs>
     <g transform="translate(77.603125 53.594687)scale(0.1 -0.1)">
      <use xlink:href="#DejaVuSans-84"/>
      <use x="46.333984" xlink:href="#DejaVuSans-114"/>
      <use x="87.447266" xlink:href="#DejaVuSans-117"/>
      <use x="150.826172" xlink:href="#DejaVuSans-101"/>
      <use x="212.349609" xlink:href="#DejaVuSans-32"/>
      <use x="244.136719" xlink:href="#DejaVuSans-118"/>
      <use x="303.316406" xlink:href="#DejaVuSans-97"/>
      <use x="364.595703" xlink:href="#DejaVuSans-108"/>
      <use x="392.378906" xlink:href="#DejaVuSans-117"/>
      <use x="455.757812" xlink:href="#DejaVuSans-101"/>
     </g>
    </g>
   </g>
  </g>
 </g>
 <defs>
  <clipPath id="p27fdc03d2a">
   <rect height="266.112" width="357.12" x="40.603125" y="22.318125"/>
  </clipPath>
 </defs>
</svg>
