<?xml version="1.0" encoding="utf-8" standalone="no"?>
<!DOCTYPE svg PUBLIC "-//W3C//DTD SVG 1.1//EN"
  "http://www.w3.org/Graphics/SVG/1.1/DTD/svg11.dtd">
<!-- Created with matplotlib (https://matplotlib.org/) -->
<svg height="325.986375pt" version="1.1" viewBox="0 0 411.285625 325.986375" width="411.285625pt" xmlns="http://www.w3.org/2000/svg" xmlns:xlink="http://www.w3.org/1999/xlink">
 <defs>
  <style type="text/css">
*{stroke-linecap:butt;stroke-linejoin:round;}
  </style>
 </defs>
 <g id="figure_1">
  <g id="patch_1">
   <path d="M 0 325.986375 
L 411.285625 325.986375 
L 411.285625 0 
L 0 0 
z
" style="fill:#ffffff;"/>
  </g>
  <g id="axes_1">
   <g id="patch_2">
    <path d="M 46.965625 288.430125 
L 404.085625 288.430125 
L 404.085625 22.318125 
L 46.965625 22.318125 
z
" style="fill:#ffffff;"/>
   </g>
   <g id="matplotlib.axis_1">
    <g id="xtick_1">
     <g id="line2d_1">
      <path clip-path="url(#p9856c71652)" d="M 63.198352 288.430125 
L 63.198352 22.318125 
" style="fill:none;stroke:#b0b0b0;stroke-dasharray:2.96,1.28;stroke-dashoffset:0;stroke-width:0.8;"/>
     </g>
     <g id="line2d_2">
      <defs>
       <path d="M 0 0 
L 0 3.5 
" id="me1081d220c" style="stroke:#000000;stroke-width:0.8;"/>
      </defs>
      <g>
       <use style="stroke:#000000;stroke-width:0.8;" x="63.198352" xlink:href="#me1081d220c" y="288.430125"/>
      </g>
     </g>
     <g id="text_1">
      <!-- 0 -->
      <defs>
       <path d="M 31.78125 66.40625 
Q 24.171875 66.40625 20.328125 58.90625 
Q 16.5 51.421875 16.5 36.375 
Q 16.5 21.390625 20.328125 13.890625 
Q 24.171875 6.390625 31.78125 6.390625 
Q 39.453125 6.390625 43.28125 13.890625 
Q 47.125 21.390625 47.125 36.375 
Q 47.125 51.421875 43.28125 58.90625 
Q 39.453125 66.40625 31.78125 66.40625 
z
M 31.78125 74.21875 
Q 44.046875 74.21875 50.515625 64.515625 
Q 56.984375 54.828125 56.984375 36.375 
Q 56.984375 17.96875 50.515625 8.265625 
Q 44.046875 -1.421875 31.78125 -1.421875 
Q 19.53125 -1.421875 13.0625 8.265625 
Q 6.59375 17.96875 6.59375 36.375 
Q 6.59375 54.828125 13.0625 64.515625 
Q 19.53125 74.21875 31.78125 74.21875 
z
" id="DejaVuSans-48"/>
      </defs>
      <g transform="translate(60.017102 303.028562)scale(0.1 -0.1)">
       <use xlink:href="#DejaVuSans-48"/>
      </g>
     </g>
    </g>
    <g id="xtick_2">
     <g id="line2d_3">
      <path clip-path="url(#p9856c71652)" d="M 112.128954 288.430125 
L 112.128954 22.318125 
" style="fill:none;stroke:#b0b0b0;stroke-dasharray:2.96,1.28;stroke-dashoffset:0;stroke-width:0.8;"/>
     </g>
     <g id="line2d_4">
      <g>
       <use style="stroke:#000000;stroke-width:0.8;" x="112.128954" xlink:href="#me1081d220c" y="288.430125"/>
      </g>
     </g>
     <g id="text_2">
      <!-- 200 -->
      <defs>
       <path d="M 19.1875 8.296875 
L 53.609375 8.296875 
L 53.609375 0 
L 7.328125 0 
L 7.328125 8.296875 
Q 12.9375 14.109375 22.625 23.890625 
Q 32.328125 33.6875 34.8125 36.53125 
Q 39.546875 41.84375 41.421875 45.53125 
Q 43.3125 49.21875 43.3125 52.78125 
Q 43.3125 58.59375 39.234375 62.25 
Q 35.15625 65.921875 28.609375 65.921875 
Q 23.96875 65.921875 18.8125 64.3125 
Q 13.671875 62.703125 7.8125 59.421875 
L 7.8125 69.390625 
Q 13.765625 71.78125 18.9375 73 
Q 24.125 74.21875 28.421875 74.21875 
Q 39.75 74.21875 46.484375 68.546875 
Q 53.21875 62.890625 53.21875 53.421875 
Q 53.21875 48.921875 51.53125 44.890625 
Q 49.859375 40.875 45.40625 35.40625 
Q 44.1875 33.984375 37.640625 27.21875 
Q 31.109375 20.453125 19.1875 8.296875 
z
" id="DejaVuSans-50"/>
      </defs>
      <g transform="translate(102.585204 303.028562)scale(0.1 -0.1)">
       <use xlink:href="#DejaVuSans-50"/>
       <use x="63.623047" xlink:href="#DejaVuSans-48"/>
       <use x="127.246094" xlink:href="#DejaVuSans-48"/>
      </g>
     </g>
    </g>
    <g id="xtick_3">
     <g id="line2d_5">
      <path clip-path="url(#p9856c71652)" d="M 161.059557 288.430125 
L 161.059557 22.318125 
" style="fill:none;stroke:#b0b0b0;stroke-dasharray:2.96,1.28;stroke-dashoffset:0;stroke-width:0.8;"/>
     </g>
     <g id="line2d_6">
      <g>
       <use style="stroke:#000000;stroke-width:0.8;" x="161.059557" xlink:href="#me1081d220c" y="288.430125"/>
      </g>
     </g>
     <g id="text_3">
      <!-- 400 -->
      <defs>
       <path d="M 37.796875 64.3125 
L 12.890625 25.390625 
L 37.796875 25.390625 
z
M 35.203125 72.90625 
L 47.609375 72.90625 
L 47.609375 25.390625 
L 58.015625 25.390625 
L 58.015625 17.1875 
L 47.609375 17.1875 
L 47.609375 0 
L 37.796875 0 
L 37.796875 17.1875 
L 4.890625 17.1875 
L 4.890625 26.703125 
z
" id="DejaVuSans-52"/>
      </defs>
      <g transform="translate(151.515807 303.028562)scale(0.1 -0.1)">
       <use xlink:href="#DejaVuSans-52"/>
       <use x="63.623047" xlink:href="#DejaVuSans-48"/>
       <use x="127.246094" xlink:href="#DejaVuSans-48"/>
      </g>
     </g>
    </g>
    <g id="xtick_4">
     <g id="line2d_7">
      <path clip-path="url(#p9856c71652)" d="M 209.990159 288.430125 
L 209.990159 22.318125 
" style="fill:none;stroke:#b0b0b0;stroke-dasharray:2.96,1.28;stroke-dashoffset:0;stroke-width:0.8;"/>
     </g>
     <g id="line2d_8">
      <g>
       <use style="stroke:#000000;stroke-width:0.8;" x="209.990159" xlink:href="#me1081d220c" y="288.430125"/>
      </g>
     </g>
     <g id="text_4">
      <!-- 600 -->
      <defs>
       <path d="M 33.015625 40.375 
Q 26.375 40.375 22.484375 35.828125 
Q 18.609375 31.296875 18.609375 23.390625 
Q 18.609375 15.53125 22.484375 10.953125 
Q 26.375 6.390625 33.015625 6.390625 
Q 39.65625 6.390625 43.53125 10.953125 
Q 47.40625 15.53125 47.40625 23.390625 
Q 47.40625 31.296875 43.53125 35.828125 
Q 39.65625 40.375 33.015625 40.375 
z
M 52.59375 71.296875 
L 52.59375 62.3125 
Q 48.875 64.0625 45.09375 64.984375 
Q 41.3125 65.921875 37.59375 65.921875 
Q 27.828125 65.921875 22.671875 59.328125 
Q 17.53125 52.734375 16.796875 39.40625 
Q 19.671875 43.65625 24.015625 45.921875 
Q 28.375 48.1875 33.59375 48.1875 
Q 44.578125 48.1875 50.953125 41.515625 
Q 57.328125 34.859375 57.328125 23.390625 
Q 57.328125 12.15625 50.6875 5.359375 
Q 44.046875 -1.421875 33.015625 -1.421875 
Q 20.359375 -1.421875 13.671875 8.265625 
Q 6.984375 17.96875 6.984375 36.375 
Q 6.984375 53.65625 15.1875 63.9375 
Q 23.390625 74.21875 37.203125 74.21875 
Q 40.921875 74.21875 44.703125 73.484375 
Q 48.484375 72.75 52.59375 71.296875 
z
" id="DejaVuSans-54"/>
      </defs>
      <g transform="translate(200.446409 303.028562)scale(0.1 -0.1)">
       <use xlink:href="#DejaVuSans-54"/>
       <use x="63.623047" xlink:href="#DejaVuSans-48"/>
       <use x="127.246094" xlink:href="#DejaVuSans-48"/>
      </g>
     </g>
    </g>
    <g id="xtick_5">
     <g id="line2d_9">
      <path clip-path="url(#p9856c71652)" d="M 258.920761 288.430125 
L 258.920761 22.318125 
" style="fill:none;stroke:#b0b0b0;stroke-dasharray:2.96,1.28;stroke-dashoffset:0;stroke-width:0.8;"/>
     </g>
     <g id="line2d_10">
      <g>
       <use style="stroke:#000000;stroke-width:0.8;" x="258.920761" xlink:href="#me1081d220c" y="288.430125"/>
      </g>
     </g>
     <g id="text_5">
      <!-- 800 -->
      <defs>
       <path d="M 31.78125 34.625 
Q 24.75 34.625 20.71875 30.859375 
Q 16.703125 27.09375 16.703125 20.515625 
Q 16.703125 13.921875 20.71875 10.15625 
Q 24.75 6.390625 31.78125 6.390625 
Q 38.8125 6.390625 42.859375 10.171875 
Q 46.921875 13.96875 46.921875 20.515625 
Q 46.921875 27.09375 42.890625 30.859375 
Q 38.875 34.625 31.78125 34.625 
z
M 21.921875 38.8125 
Q 15.578125 40.375 12.03125 44.71875 
Q 8.5 49.078125 8.5 55.328125 
Q 8.5 64.0625 14.71875 69.140625 
Q 20.953125 74.21875 31.78125 74.21875 
Q 42.671875 74.21875 48.875 69.140625 
Q 55.078125 64.0625 55.078125 55.328125 
Q 55.078125 49.078125 51.53125 44.71875 
Q 48 40.375 41.703125 38.8125 
Q 48.828125 37.15625 52.796875 32.3125 
Q 56.78125 27.484375 56.78125 20.515625 
Q 56.78125 9.90625 50.3125 4.234375 
Q 43.84375 -1.421875 31.78125 -1.421875 
Q 19.734375 -1.421875 13.25 4.234375 
Q 6.78125 9.90625 6.78125 20.515625 
Q 6.78125 27.484375 10.78125 32.3125 
Q 14.796875 37.15625 21.921875 38.8125 
z
M 18.3125 54.390625 
Q 18.3125 48.734375 21.84375 45.5625 
Q 25.390625 42.390625 31.78125 42.390625 
Q 38.140625 42.390625 41.71875 45.5625 
Q 45.3125 48.734375 45.3125 54.390625 
Q 45.3125 60.0625 41.71875 63.234375 
Q 38.140625 66.40625 31.78125 66.40625 
Q 25.390625 66.40625 21.84375 63.234375 
Q 18.3125 60.0625 18.3125 54.390625 
z
" id="DejaVuSans-56"/>
      </defs>
      <g transform="translate(249.377011 303.028562)scale(0.1 -0.1)">
       <use xlink:href="#DejaVuSans-56"/>
       <use x="63.623047" xlink:href="#DejaVuSans-48"/>
       <use x="127.246094" xlink:href="#DejaVuSans-48"/>
      </g>
     </g>
    </g>
    <g id="xtick_6">
     <g id="line2d_11">
      <path clip-path="url(#p9856c71652)" d="M 307.851363 288.430125 
L 307.851363 22.318125 
" style="fill:none;stroke:#b0b0b0;stroke-dasharray:2.96,1.28;stroke-dashoffset:0;stroke-width:0.8;"/>
     </g>
     <g id="line2d_12">
      <g>
       <use style="stroke:#000000;stroke-width:0.8;" x="307.851363" xlink:href="#me1081d220c" y="288.430125"/>
      </g>
     </g>
     <g id="text_6">
      <!-- 1000 -->
      <defs>
       <path d="M 12.40625 8.296875 
L 28.515625 8.296875 
L 28.515625 63.921875 
L 10.984375 60.40625 
L 10.984375 69.390625 
L 28.421875 72.90625 
L 38.28125 72.90625 
L 38.28125 8.296875 
L 54.390625 8.296875 
L 54.390625 0 
L 12.40625 0 
z
" id="DejaVuSans-49"/>
      </defs>
      <g transform="translate(295.126363 303.028562)scale(0.1 -0.1)">
       <use xlink:href="#DejaVuSans-49"/>
       <use x="63.623047" xlink:href="#DejaVuSans-48"/>
       <use x="127.246094" xlink:href="#DejaVuSans-48"/>
       <use x="190.869141" xlink:href="#DejaVuSans-48"/>
      </g>
     </g>
    </g>
    <g id="xtick_7">
     <g id="line2d_13">
      <path clip-path="url(#p9856c71652)" d="M 356.781965 288.430125 
L 356.781965 22.318125 
" style="fill:none;stroke:#b0b0b0;stroke-dasharray:2.96,1.28;stroke-dashoffset:0;stroke-width:0.8;"/>
     </g>
     <g id="line2d_14">
      <g>
       <use style="stroke:#000000;stroke-width:0.8;" x="356.781965" xlink:href="#me1081d220c" y="288.430125"/>
      </g>
     </g>
     <g id="text_7">
      <!-- 1200 -->
      <g transform="translate(344.056965 303.028562)scale(0.1 -0.1)">
       <use xlink:href="#DejaVuSans-49"/>
       <use x="63.623047" xlink:href="#DejaVuSans-50"/>
       <use x="127.246094" xlink:href="#DejaVuSans-48"/>
       <use x="190.869141" xlink:href="#DejaVuSans-48"/>
      </g>
     </g>
    </g>
    <g id="text_8">
     <!-- Day -->
     <defs>
      <path d="M 19.671875 64.796875 
L 19.671875 8.109375 
L 31.59375 8.109375 
Q 46.6875 8.109375 53.6875 14.9375 
Q 60.6875 21.78125 60.6875 36.53125 
Q 60.6875 51.171875 53.6875 57.984375 
Q 46.6875 64.796875 31.59375 64.796875 
z
M 9.8125 72.90625 
L 30.078125 72.90625 
Q 51.265625 72.90625 61.171875 64.09375 
Q 71.09375 55.28125 71.09375 36.53125 
Q 71.09375 17.671875 61.125 8.828125 
Q 51.171875 0 30.078125 0 
L 9.8125 0 
z
" id="DejaVuSans-68"/>
      <path d="M 34.28125 27.484375 
Q 23.390625 27.484375 19.1875 25 
Q 14.984375 22.515625 14.984375 16.5 
Q 14.984375 11.71875 18.140625 8.90625 
Q 21.296875 6.109375 26.703125 6.109375 
Q 34.1875 6.109375 38.703125 11.40625 
Q 43.21875 16.703125 43.21875 25.484375 
L 43.21875 27.484375 
z
M 52.203125 31.203125 
L 52.203125 0 
L 43.21875 0 
L 43.21875 8.296875 
Q 40.140625 3.328125 35.546875 0.953125 
Q 30.953125 -1.421875 24.3125 -1.421875 
Q 15.921875 -1.421875 10.953125 3.296875 
Q 6 8.015625 6 15.921875 
Q 6 25.140625 12.171875 29.828125 
Q 18.359375 34.515625 30.609375 34.515625 
L 43.21875 34.515625 
L 43.21875 35.40625 
Q 43.21875 41.609375 39.140625 45 
Q 35.0625 48.390625 27.6875 48.390625 
Q 23 48.390625 18.546875 47.265625 
Q 14.109375 46.140625 10.015625 43.890625 
L 10.015625 52.203125 
Q 14.9375 54.109375 19.578125 55.046875 
Q 24.21875 56 28.609375 56 
Q 40.484375 56 46.34375 49.84375 
Q 52.203125 43.703125 52.203125 31.203125 
z
" id="DejaVuSans-97"/>
      <path d="M 32.171875 -5.078125 
Q 28.375 -14.84375 24.75 -17.8125 
Q 21.140625 -20.796875 15.09375 -20.796875 
L 7.90625 -20.796875 
L 7.90625 -13.28125 
L 13.1875 -13.28125 
Q 16.890625 -13.28125 18.9375 -11.515625 
Q 21 -9.765625 23.484375 -3.21875 
L 25.09375 0.875 
L 2.984375 54.6875 
L 12.5 54.6875 
L 29.59375 11.921875 
L 46.6875 54.6875 
L 56.203125 54.6875 
z
" id="DejaVuSans-121"/>
     </defs>
     <g transform="translate(215.652188 316.706687)scale(0.1 -0.1)">
      <use xlink:href="#DejaVuSans-68"/>
      <use x="77.001953" xlink:href="#DejaVuSans-97"/>
      <use x="138.28125" xlink:href="#DejaVuSans-121"/>
     </g>
    </g>
   </g>
   <g id="matplotlib.axis_2">
    <g id="ytick_1">
     <g id="line2d_15">
      <path clip-path="url(#p9856c71652)" d="M 46.965625 262.44344 
L 404.085625 262.44344 
" style="fill:none;stroke:#b0b0b0;stroke-dasharray:2.96,1.28;stroke-dashoffset:0;stroke-width:0.8;"/>
     </g>
     <g id="line2d_16">
      <defs>
       <path d="M 0 0 
L -3.5 0 
" id="mdbedfc6345" style="stroke:#000000;stroke-width:0.8;"/>
      </defs>
      <g>
       <use style="stroke:#000000;stroke-width:0.8;" x="46.965625" xlink:href="#mdbedfc6345" y="262.44344"/>
      </g>
     </g>
     <g id="text_9">
      <!-- 40 -->
      <g transform="translate(27.240625 266.242659)scale(0.1 -0.1)">
       <use xlink:href="#DejaVuSans-52"/>
       <use x="63.623047" xlink:href="#DejaVuSans-48"/>
      </g>
     </g>
    </g>
    <g id="ytick_2">
     <g id="line2d_17">
      <path clip-path="url(#p9856c71652)" d="M 46.965625 232.825774 
L 404.085625 232.825774 
" style="fill:none;stroke:#b0b0b0;stroke-dasharray:2.96,1.28;stroke-dashoffset:0;stroke-width:0.8;"/>
     </g>
     <g id="line2d_18">
      <g>
       <use style="stroke:#000000;stroke-width:0.8;" x="46.965625" xlink:href="#mdbedfc6345" y="232.825774"/>
      </g>
     </g>
     <g id="text_10">
      <!-- 50 -->
      <defs>
       <path d="M 10.796875 72.90625 
L 49.515625 72.90625 
L 49.515625 64.59375 
L 19.828125 64.59375 
L 19.828125 46.734375 
Q 21.96875 47.46875 24.109375 47.828125 
Q 26.265625 48.1875 28.421875 48.1875 
Q 40.625 48.1875 47.75 41.5 
Q 54.890625 34.8125 54.890625 23.390625 
Q 54.890625 11.625 47.5625 5.09375 
Q 40.234375 -1.421875 26.90625 -1.421875 
Q 22.3125 -1.421875 17.546875 -0.640625 
Q 12.796875 0.140625 7.71875 1.703125 
L 7.71875 11.625 
Q 12.109375 9.234375 16.796875 8.0625 
Q 21.484375 6.890625 26.703125 6.890625 
Q 35.15625 6.890625 40.078125 11.328125 
Q 45.015625 15.765625 45.015625 23.390625 
Q 45.015625 31 40.078125 35.4375 
Q 35.15625 39.890625 26.703125 39.890625 
Q 22.75 39.890625 18.8125 39.015625 
Q 14.890625 38.140625 10.796875 36.28125 
z
" id="DejaVuSans-53"/>
      </defs>
      <g transform="translate(27.240625 236.624993)scale(0.1 -0.1)">
       <use xlink:href="#DejaVuSans-53"/>
       <use x="63.623047" xlink:href="#DejaVuSans-48"/>
      </g>
     </g>
    </g>
    <g id="ytick_3">
     <g id="line2d_19">
      <path clip-path="url(#p9856c71652)" d="M 46.965625 203.208109 
L 404.085625 203.208109 
" style="fill:none;stroke:#b0b0b0;stroke-dasharray:2.96,1.28;stroke-dashoffset:0;stroke-width:0.8;"/>
     </g>
     <g id="line2d_20">
      <g>
       <use style="stroke:#000000;stroke-width:0.8;" x="46.965625" xlink:href="#mdbedfc6345" y="203.208109"/>
      </g>
     </g>
     <g id="text_11">
      <!-- 60 -->
      <g transform="translate(27.240625 207.007328)scale(0.1 -0.1)">
       <use xlink:href="#DejaVuSans-54"/>
       <use x="63.623047" xlink:href="#DejaVuSans-48"/>
      </g>
     </g>
    </g>
    <g id="ytick_4">
     <g id="line2d_21">
      <path clip-path="url(#p9856c71652)" d="M 46.965625 173.590444 
L 404.085625 173.590444 
" style="fill:none;stroke:#b0b0b0;stroke-dasharray:2.96,1.28;stroke-dashoffset:0;stroke-width:0.8;"/>
     </g>
     <g id="line2d_22">
      <g>
       <use style="stroke:#000000;stroke-width:0.8;" x="46.965625" xlink:href="#mdbedfc6345" y="173.590444"/>
      </g>
     </g>
     <g id="text_12">
      <!-- 70 -->
      <defs>
       <path d="M 8.203125 72.90625 
L 55.078125 72.90625 
L 55.078125 68.703125 
L 28.609375 0 
L 18.3125 0 
L 43.21875 64.59375 
L 8.203125 64.59375 
z
" id="DejaVuSans-55"/>
      </defs>
      <g transform="translate(27.240625 177.389662)scale(0.1 -0.1)">
       <use xlink:href="#DejaVuSans-55"/>
       <use x="63.623047" xlink:href="#DejaVuSans-48"/>
      </g>
     </g>
    </g>
    <g id="ytick_5">
     <g id="line2d_23">
      <path clip-path="url(#p9856c71652)" d="M 46.965625 143.972778 
L 404.085625 143.972778 
" style="fill:none;stroke:#b0b0b0;stroke-dasharray:2.96,1.28;stroke-dashoffset:0;stroke-width:0.8;"/>
     </g>
     <g id="line2d_24">
      <g>
       <use style="stroke:#000000;stroke-width:0.8;" x="46.965625" xlink:href="#mdbedfc6345" y="143.972778"/>
      </g>
     </g>
     <g id="text_13">
      <!-- 80 -->
      <g transform="translate(27.240625 147.771997)scale(0.1 -0.1)">
       <use xlink:href="#DejaVuSans-56"/>
       <use x="63.623047" xlink:href="#DejaVuSans-48"/>
      </g>
     </g>
    </g>
    <g id="ytick_6">
     <g id="line2d_25">
      <path clip-path="url(#p9856c71652)" d="M 46.965625 114.355113 
L 404.085625 114.355113 
" style="fill:none;stroke:#b0b0b0;stroke-dasharray:2.96,1.28;stroke-dashoffset:0;stroke-width:0.8;"/>
     </g>
     <g id="line2d_26">
      <g>
       <use style="stroke:#000000;stroke-width:0.8;" x="46.965625" xlink:href="#mdbedfc6345" y="114.355113"/>
      </g>
     </g>
     <g id="text_14">
      <!-- 90 -->
      <defs>
       <path d="M 10.984375 1.515625 
L 10.984375 10.5 
Q 14.703125 8.734375 18.5 7.8125 
Q 22.3125 6.890625 25.984375 6.890625 
Q 35.75 6.890625 40.890625 13.453125 
Q 46.046875 20.015625 46.78125 33.40625 
Q 43.953125 29.203125 39.59375 26.953125 
Q 35.25 24.703125 29.984375 24.703125 
Q 19.046875 24.703125 12.671875 31.3125 
Q 6.296875 37.9375 6.296875 49.421875 
Q 6.296875 60.640625 12.9375 67.421875 
Q 19.578125 74.21875 30.609375 74.21875 
Q 43.265625 74.21875 49.921875 64.515625 
Q 56.59375 54.828125 56.59375 36.375 
Q 56.59375 19.140625 48.40625 8.859375 
Q 40.234375 -1.421875 26.421875 -1.421875 
Q 22.703125 -1.421875 18.890625 -0.6875 
Q 15.09375 0.046875 10.984375 1.515625 
z
M 30.609375 32.421875 
Q 37.25 32.421875 41.125 36.953125 
Q 45.015625 41.5 45.015625 49.421875 
Q 45.015625 57.28125 41.125 61.84375 
Q 37.25 66.40625 30.609375 66.40625 
Q 23.96875 66.40625 20.09375 61.84375 
Q 16.21875 57.28125 16.21875 49.421875 
Q 16.21875 41.5 20.09375 36.953125 
Q 23.96875 32.421875 30.609375 32.421875 
z
" id="DejaVuSans-57"/>
      </defs>
      <g transform="translate(27.240625 118.154331)scale(0.1 -0.1)">
       <use xlink:href="#DejaVuSans-57"/>
       <use x="63.623047" xlink:href="#DejaVuSans-48"/>
      </g>
     </g>
    </g>
    <g id="ytick_7">
     <g id="line2d_27">
      <path clip-path="url(#p9856c71652)" d="M 46.965625 84.737447 
L 404.085625 84.737447 
" style="fill:none;stroke:#b0b0b0;stroke-dasharray:2.96,1.28;stroke-dashoffset:0;stroke-width:0.8;"/>
     </g>
     <g id="line2d_28">
      <g>
       <use style="stroke:#000000;stroke-width:0.8;" x="46.965625" xlink:href="#mdbedfc6345" y="84.737447"/>
      </g>
     </g>
     <g id="text_15">
      <!-- 100 -->
      <g transform="translate(20.878125 88.536666)scale(0.1 -0.1)">
       <use xlink:href="#DejaVuSans-49"/>
       <use x="63.623047" xlink:href="#DejaVuSans-48"/>
       <use x="127.246094" xlink:href="#DejaVuSans-48"/>
      </g>
     </g>
    </g>
    <g id="ytick_8">
     <g id="line2d_29">
      <path clip-path="url(#p9856c71652)" d="M 46.965625 55.119782 
L 404.085625 55.119782 
" style="fill:none;stroke:#b0b0b0;stroke-dasharray:2.96,1.28;stroke-dashoffset:0;stroke-width:0.8;"/>
     </g>
     <g id="line2d_30">
      <g>
       <use style="stroke:#000000;stroke-width:0.8;" x="46.965625" xlink:href="#mdbedfc6345" y="55.119782"/>
      </g>
     </g>
     <g id="text_16">
      <!-- 110 -->
      <g transform="translate(20.878125 58.919001)scale(0.1 -0.1)">
       <use xlink:href="#DejaVuSans-49"/>
       <use x="63.623047" xlink:href="#DejaVuSans-49"/>
       <use x="127.246094" xlink:href="#DejaVuSans-48"/>
      </g>
     </g>
    </g>
    <g id="ytick_9">
     <g id="line2d_31">
      <path clip-path="url(#p9856c71652)" d="M 46.965625 25.502116 
L 404.085625 25.502116 
" style="fill:none;stroke:#b0b0b0;stroke-dasharray:2.96,1.28;stroke-dashoffset:0;stroke-width:0.8;"/>
     </g>
     <g id="line2d_32">
      <g>
       <use style="stroke:#000000;stroke-width:0.8;" x="46.965625" xlink:href="#mdbedfc6345" y="25.502116"/>
      </g>
     </g>
     <g id="text_17">
      <!-- 120 -->
      <g transform="translate(20.878125 29.301335)scale(0.1 -0.1)">
       <use xlink:href="#DejaVuSans-49"/>
       <use x="63.623047" xlink:href="#DejaVuSans-50"/>
       <use x="127.246094" xlink:href="#DejaVuSans-48"/>
      </g>
     </g>
    </g>
    <g id="text_18">
     <!-- Price $ -->
     <defs>
      <path d="M 19.671875 64.796875 
L 19.671875 37.40625 
L 32.078125 37.40625 
Q 38.96875 37.40625 42.71875 40.96875 
Q 46.484375 44.53125 46.484375 51.125 
Q 46.484375 57.671875 42.71875 61.234375 
Q 38.96875 64.796875 32.078125 64.796875 
z
M 9.8125 72.90625 
L 32.078125 72.90625 
Q 44.34375 72.90625 50.609375 67.359375 
Q 56.890625 61.8125 56.890625 51.125 
Q 56.890625 40.328125 50.609375 34.8125 
Q 44.34375 29.296875 32.078125 29.296875 
L 19.671875 29.296875 
L 19.671875 0 
L 9.8125 0 
z
" id="DejaVuSans-80"/>
      <path d="M 41.109375 46.296875 
Q 39.59375 47.171875 37.8125 47.578125 
Q 36.03125 48 33.890625 48 
Q 26.265625 48 22.1875 43.046875 
Q 18.109375 38.09375 18.109375 28.8125 
L 18.109375 0 
L 9.078125 0 
L 9.078125 54.6875 
L 18.109375 54.6875 
L 18.109375 46.1875 
Q 20.953125 51.171875 25.484375 53.578125 
Q 30.03125 56 36.53125 56 
Q 37.453125 56 38.578125 55.875 
Q 39.703125 55.765625 41.0625 55.515625 
z
" id="DejaVuSans-114"/>
      <path d="M 9.421875 54.6875 
L 18.40625 54.6875 
L 18.40625 0 
L 9.421875 0 
z
M 9.421875 75.984375 
L 18.40625 75.984375 
L 18.40625 64.59375 
L 9.421875 64.59375 
z
" id="DejaVuSans-105"/>
      <path d="M 48.78125 52.59375 
L 48.78125 44.1875 
Q 44.96875 46.296875 41.140625 47.34375 
Q 37.3125 48.390625 33.40625 48.390625 
Q 24.65625 48.390625 19.8125 42.84375 
Q 14.984375 37.3125 14.984375 27.296875 
Q 14.984375 17.28125 19.8125 11.734375 
Q 24.65625 6.203125 33.40625 6.203125 
Q 37.3125 6.203125 41.140625 7.25 
Q 44.96875 8.296875 48.78125 10.40625 
L 48.78125 2.09375 
Q 45.015625 0.34375 40.984375 -0.53125 
Q 36.96875 -1.421875 32.421875 -1.421875 
Q 20.0625 -1.421875 12.78125 6.34375 
Q 5.515625 14.109375 5.515625 27.296875 
Q 5.515625 40.671875 12.859375 48.328125 
Q 20.21875 56 33.015625 56 
Q 37.15625 56 41.109375 55.140625 
Q 45.0625 54.296875 48.78125 52.59375 
z
" id="DejaVuSans-99"/>
      <path d="M 56.203125 29.59375 
L 56.203125 25.203125 
L 14.890625 25.203125 
Q 15.484375 15.921875 20.484375 11.0625 
Q 25.484375 6.203125 34.421875 6.203125 
Q 39.59375 6.203125 44.453125 7.46875 
Q 49.3125 8.734375 54.109375 11.28125 
L 54.109375 2.78125 
Q 49.265625 0.734375 44.1875 -0.34375 
Q 39.109375 -1.421875 33.890625 -1.421875 
Q 20.796875 -1.421875 13.15625 6.1875 
Q 5.515625 13.8125 5.515625 26.8125 
Q 5.515625 40.234375 12.765625 48.109375 
Q 20.015625 56 32.328125 56 
Q 43.359375 56 49.78125 48.890625 
Q 56.203125 41.796875 56.203125 29.59375 
z
M 47.21875 32.234375 
Q 47.125 39.59375 43.09375 43.984375 
Q 39.0625 48.390625 32.421875 48.390625 
Q 24.90625 48.390625 20.390625 44.140625 
Q 15.875 39.890625 15.1875 32.171875 
z
" id="DejaVuSans-101"/>
      <path id="DejaVuSans-32"/>
      <path d="M 33.796875 -14.703125 
L 28.90625 -14.703125 
L 28.859375 0 
Q 23.734375 0.09375 18.609375 1.1875 
Q 13.484375 2.296875 8.296875 4.5 
L 8.296875 13.28125 
Q 13.28125 10.15625 18.375 8.5625 
Q 23.484375 6.984375 28.90625 6.9375 
L 28.90625 29.203125 
Q 18.109375 30.953125 13.203125 35.15625 
Q 8.296875 39.359375 8.296875 46.6875 
Q 8.296875 54.640625 13.625 59.21875 
Q 18.953125 63.8125 28.90625 64.5 
L 28.90625 75.984375 
L 33.796875 75.984375 
L 33.796875 64.65625 
Q 38.328125 64.453125 42.578125 63.6875 
Q 46.828125 62.9375 50.875 61.625 
L 50.875 53.078125 
Q 46.828125 55.125 42.546875 56.25 
Q 38.28125 57.375 33.796875 57.5625 
L 33.796875 36.71875 
Q 44.875 35.015625 50.09375 30.609375 
Q 55.328125 26.21875 55.328125 18.609375 
Q 55.328125 10.359375 49.78125 5.59375 
Q 44.234375 0.828125 33.796875 0.09375 
z
M 28.90625 37.59375 
L 28.90625 57.625 
Q 23.25 56.984375 20.265625 54.390625 
Q 17.28125 51.8125 17.28125 47.515625 
Q 17.28125 43.3125 20.03125 40.96875 
Q 22.796875 38.625 28.90625 37.59375 
z
M 33.796875 28.21875 
L 33.796875 7.078125 
Q 39.984375 7.90625 43.140625 10.59375 
Q 46.296875 13.28125 46.296875 17.671875 
Q 46.296875 21.96875 43.28125 24.5 
Q 40.28125 27.046875 33.796875 28.21875 
z
" id="DejaVuSans-36"/>
     </defs>
     <g transform="translate(14.798438 172.342094)rotate(-90)scale(0.1 -0.1)">
      <use xlink:href="#DejaVuSans-80"/>
      <use x="58.552734" xlink:href="#DejaVuSans-114"/>
      <use x="99.666016" xlink:href="#DejaVuSans-105"/>
      <use x="127.449219" xlink:href="#DejaVuSans-99"/>
      <use x="182.429688" xlink:href="#DejaVuSans-101"/>
      <use x="243.953125" xlink:href="#DejaVuSans-32"/>
      <use x="275.740234" xlink:href="#DejaVuSans-36"/>
     </g>
    </g>
   </g>
   <g id="line2d_33">
    <path clip-path="url(#p9856c71652)" d="M 63.198352 274.848108 
L 63.443005 271.551665 
L 63.687658 271.611037 
L 63.932311 272.09067 
L 64.176964 272.198196 
L 64.421617 269.816447 
L 64.66627 269.145659 
L 65.155576 267.311536 
L 65.644882 265.568206 
L 65.889535 265.868152 
L 66.134188 266.419416 
L 66.623494 265.288394 
L 66.868147 265.258555 
L 67.1128 264.810523 
L 67.602106 265.951612 
L 67.846759 266.817295 
L 68.091412 266.647177 
L 68.336066 266.096478 
L 68.580719 267.036503 
L 68.825372 267.089774 
L 69.070025 267.426338 
L 69.314678 266.991841 
L 69.803984 267.522237 
L 70.048637 265.117587 
L 70.29329 265.639532 
L 70.537943 264.816376 
L 71.027249 262.152058 
L 71.271902 261.476514 
L 71.516555 259.400868 
L 71.761208 261.49136 
L 72.73982 264.603314 
L 72.984473 264.379157 
L 73.229126 266.380979 
L 73.473779 267.221365 
L 73.718432 266.250417 
L 73.963085 263.549131 
L 74.207738 263.48385 
L 74.452391 263.792416 
L 74.697044 265.805232 
L 74.941697 265.996285 
L 75.18635 265.518935 
L 75.431003 263.842377 
L 75.675656 265.941896 
L 75.920309 266.993593 
L 76.164962 265.11796 
L 76.409615 261.813179 
L 76.654268 264.424169 
L 76.898921 264.084815 
L 77.143574 262.896307 
L 77.388227 262.509275 
L 77.63288 262.354658 
L 77.877533 263.45409 
L 78.122186 268.098493 
L 78.366839 269.533358 
L 78.611492 268.328333 
L 78.856145 269.183248 
L 79.100798 270.971523 
L 79.345451 270.913631 
L 79.590104 271.297206 
L 79.834757 269.972917 
L 80.07941 265.74447 
L 80.324063 266.658227 
L 80.568716 266.507757 
L 81.547328 270.090237 
L 81.791981 269.68828 
L 82.036634 268.773563 
L 82.281287 265.526335 
L 82.52594 265.630765 
L 82.770593 265.113034 
L 83.015246 263.570338 
L 83.259899 263.05716 
L 83.504552 262.996557 
L 83.749205 262.635792 
L 83.993858 263.244305 
L 84.238511 264.178714 
L 84.483164 266.403417 
L 84.727817 266.56766 
L 85.217123 267.366039 
L 85.461776 266.630546 
L 85.706429 265.113328 
L 85.951082 264.62112 
L 86.929694 268.469459 
L 87.174347 268.252307 
L 87.419 269.046144 
L 87.663653 268.903255 
L 88.397612 272.290954 
L 88.886918 271.745001 
L 89.131571 270.550313 
L 89.376224 270.833843 
L 89.620877 270.096203 
L 89.86553 270.749603 
L 90.110183 272.367025 
L 90.354836 272.191903 
L 90.599489 271.477888 
L 90.844143 267.900491 
L 91.088796 267.999486 
L 91.333449 268.983315 
L 91.822755 266.141253 
L 92.067408 265.069219 
L 92.312061 262.507377 
L 92.556714 262.116412 
L 92.801367 264.127918 
L 93.04602 263.322545 
L 93.290673 266.102884 
L 93.535326 267.383303 
L 93.779979 267.046321 
L 94.024632 266.92221 
L 94.269285 266.660611 
L 94.513938 265.882715 
L 94.758591 266.08013 
L 95.247897 264.318892 
L 95.49255 262.609355 
L 95.737203 259.844177 
L 95.981856 259.646921 
L 96.226509 259.246896 
L 96.715815 256.441621 
L 96.960468 257.328466 
L 97.449774 255.431931 
L 97.694427 255.606828 
L 97.93908 255.50572 
L 98.183733 257.934628 
L 98.428386 258.414238 
L 98.673039 257.385996 
L 98.917692 258.47639 
L 99.162345 258.290658 
L 99.406998 258.491812 
L 99.651651 256.8583 
L 99.896304 256.463077 
L 100.140957 255.755513 
L 100.38561 254.696303 
L 100.630263 252.573092 
L 100.874916 252.29668 
L 101.119569 253.19184 
L 101.364222 252.025624 
L 101.608875 251.510458 
L 101.853528 251.851778 
L 102.098181 253.275492 
L 102.587487 250.448491 
L 102.83214 247.844834 
L 103.076793 247.943659 
L 103.321446 247.543724 
L 103.566099 247.95602 
L 103.810752 247.095884 
L 104.055405 248.147638 
L 104.300058 248.698359 
L 104.544711 249.663896 
L 104.789364 248.769075 
L 105.27867 249.003491 
L 106.012629 244.115012 
L 106.257282 244.323205 
L 106.501935 247.308201 
L 106.746588 246.224688 
L 106.991241 247.489764 
L 107.480547 244.289254 
L 107.969853 236.373592 
L 108.214506 237.062864 
L 108.459159 235.922453 
L 108.703812 237.225751 
L 108.948465 236.374948 
L 109.193118 236.87363 
L 109.682424 238.555543 
L 109.927077 237.64086 
L 110.17173 237.714897 
L 110.661036 236.315982 
L 110.905689 236.12224 
L 111.394995 237.136065 
L 111.884301 236.59636 
L 112.128954 237.500174 
L 112.373607 236.116715 
L 112.61826 236.001688 
L 112.862913 233.948131 
L 113.35222 238.041088 
L 113.596873 237.846736 
L 113.841526 238.834858 
L 114.086179 245.010748 
L 114.330832 244.76256 
L 114.575485 245.712143 
L 114.820138 244.931299 
L 115.064791 245.750749 
L 115.309444 247.144659 
L 115.554097 246.848046 
L 115.79875 244.783066 
L 116.043403 245.60812 
L 116.288056 245.1527 
L 116.532709 247.523286 
L 116.777362 246.538553 
L 117.022015 246.955199 
L 117.266668 246.449512 
L 117.511321 245.465424 
L 117.755974 245.005483 
L 118.000627 247.597538 
L 118.24528 246.70196 
L 118.489933 247.834179 
L 118.979239 247.081649 
L 119.223892 245.652862 
L 119.468545 245.053806 
L 119.713198 242.728865 
L 119.957851 241.973679 
L 120.202504 241.601176 
L 120.936463 238.101082 
L 121.181116 238.735433 
L 121.425769 238.184802 
L 121.670422 236.840243 
L 121.915075 237.15908 
L 122.159728 237.959108 
L 122.404381 241.060792 
L 122.649034 240.22583 
L 122.893687 242.823273 
L 123.382993 236.337426 
L 123.627646 237.780257 
L 123.872299 238.085219 
L 124.361605 238.249688 
L 124.850911 241.322618 
L 125.095564 238.994864 
L 125.340217 238.647996 
L 125.58487 238.980989 
L 126.074176 241.561869 
L 126.318829 240.366267 
L 126.563482 241.220866 
L 126.808135 242.860433 
L 127.052788 242.330206 
L 127.297441 242.958524 
L 127.542094 244.03736 
L 128.0314 244.876559 
L 128.276053 244.23335 
L 128.520706 244.930169 
L 128.765359 243.871558 
L 129.010012 241.502045 
L 129.254665 240.281417 
L 129.499318 242.058066 
L 130.233277 242.565549 
L 131.211889 235.822848 
L 131.456542 235.444289 
L 131.701195 237.85556 
L 131.945848 237.789047 
L 132.190501 239.570091 
L 132.435154 238.958269 
L 132.679807 237.433729 
L 132.92446 236.77712 
L 133.413766 231.839155 
L 134.147725 233.926845 
L 134.637031 236.219371 
L 135.126337 237.697825 
L 135.37099 236.345177 
L 135.615643 237.011796 
L 135.860297 238.060092 
L 136.10495 237.23131 
L 136.594256 241.189931 
L 136.838909 241.006098 
L 137.328215 239.36783 
L 137.572868 239.528084 
L 137.817521 241.055471 
L 138.062174 240.856159 
L 138.55148 237.406319 
L 138.796133 230.927229 
L 139.530092 227.684306 
L 139.774745 223.726045 
L 140.019398 223.022154 
L 140.264051 219.603441 
L 140.753357 224.052587 
L 140.99801 223.651669 
L 141.242663 222.6191 
L 141.487316 222.975447 
L 141.731969 222.540995 
L 141.976622 226.603595 
L 142.221275 227.773471 
L 142.465928 225.769028 
L 142.710581 225.33522 
L 142.955234 221.11022 
L 143.44454 221.181557 
L 143.933846 223.419106 
L 144.178499 223.219613 
L 144.423152 222.740274 
L 145.157111 217.802027 
L 145.401764 218.130941 
L 145.646417 217.54254 
L 145.89107 217.486444 
L 146.380376 221.846334 
L 146.625029 221.627216 
L 146.869682 223.011985 
L 147.114335 221.490779 
L 147.358988 222.039432 
L 147.603641 223.729571 
L 147.848294 223.840926 
L 148.092947 223.435534 
L 148.3376 224.986692 
L 148.582253 224.920213 
L 148.826906 222.137332 
L 149.071559 222.38186 
L 149.316212 221.688464 
L 150.050171 217.008223 
L 150.294824 216.236825 
L 150.539477 214.862133 
L 150.78413 214.500093 
L 151.518089 218.467222 
L 152.007395 218.54953 
L 152.252048 220.481156 
L 152.496701 220.594093 
L 152.741354 222.5574 
L 152.986007 222.677162 
L 153.23066 223.113952 
L 153.475313 222.808628 
L 153.964619 224.030115 
L 154.209272 222.853143 
L 154.453925 223.812183 
L 154.698578 225.673049 
L 154.943231 226.283764 
L 155.187884 223.955264 
L 155.432537 226.485698 
L 155.67719 225.808063 
L 155.921843 231.614614 
L 156.166496 234.452563 
L 156.411149 232.976674 
L 156.655802 233.040294 
L 156.900455 230.555426 
L 157.145108 229.332448 
L 157.389761 223.022945 
L 157.634414 222.279667 
L 157.879067 223.259778 
L 158.12372 221.030499 
L 158.368374 221.073082 
L 158.613027 220.729514 
L 158.85768 218.030308 
L 159.102333 216.659017 
L 159.591639 216.010634 
L 160.080945 214.404781 
L 160.570251 213.820447 
L 160.814904 214.979737 
L 161.30421 214.827888 
L 161.548863 213.8384 
L 161.793516 214.476581 
L 162.038169 214.324077 
L 162.282822 215.704745 
L 162.527475 215.592949 
L 162.772128 215.6155 
L 163.016781 215.826393 
L 163.261434 214.596467 
L 163.506087 214.081945 
L 163.75074 215.225688 
L 163.995393 215.003633 
L 164.240046 213.853087 
L 164.484699 214.27154 
L 164.974005 215.936743 
L 165.218658 215.667551 
L 165.952617 210.608356 
L 166.19727 210.650329 
L 166.441923 212.089963 
L 166.686576 214.346866 
L 166.931229 215.550434 
L 167.175882 215.566556 
L 167.420535 214.622102 
L 167.909841 218.096097 
L 168.154494 218.260103 
L 168.399147 218.654321 
L 168.6438 217.688468 
L 168.888453 216.043014 
L 169.133106 212.587402 
L 169.377759 213.065272 
L 169.622412 214.262807 
L 169.867065 214.404159 
L 170.111718 215.22179 
L 170.356371 212.755779 
L 170.601024 213.495159 
L 170.845677 213.32216 
L 171.09033 212.359912 
L 171.334983 212.44527 
L 171.579636 212.820518 
L 171.824289 213.645064 
L 172.313595 213.775073 
L 172.802901 212.75152 
L 173.047554 213.153613 
L 173.292207 214.595743 
L 173.53686 217.244402 
L 173.781513 217.1987 
L 174.026166 218.003565 
L 174.270819 219.498932 
L 174.515472 218.875676 
L 174.760125 218.791527 
L 175.004778 218.50019 
L 175.494084 219.605881 
L 175.738737 219.788009 
L 175.98339 218.953668 
L 176.472696 225.049917 
L 176.962002 222.656497 
L 177.206655 223.065189 
L 177.451308 220.762257 
L 177.695961 220.520474 
L 177.940614 221.129845 
L 178.185267 222.475217 
L 178.674573 223.088022 
L 178.919226 222.656079 
L 179.163879 222.750216 
L 179.408532 222.558124 
L 179.653185 222.108182 
L 179.897838 219.002804 
L 180.142491 219.301044 
L 180.631798 221.237269 
L 180.876451 220.506521 
L 181.121104 220.82164 
L 181.365757 218.807197 
L 181.61041 218.916146 
L 181.855063 217.803699 
L 182.099716 219.15933 
L 182.344369 219.253715 
L 182.589022 217.811562 
L 182.833675 218.96787 
L 183.078328 217.07573 
L 183.322981 217.307819 
L 183.567634 219.085801 
L 183.812287 221.832528 
L 184.301593 220.286668 
L 184.546246 223.869296 
L 184.790899 224.624742 
L 185.035552 225.878203 
L 185.280205 224.42561 
L 186.014164 227.306594 
L 186.258817 227.414199 
L 186.748123 230.473638 
L 186.992776 230.448974 
L 187.237429 229.51174 
L 187.482082 229.070803 
L 187.726735 230.402731 
L 187.971388 228.704481 
L 188.216041 228.074208 
L 188.460694 228.684517 
L 188.705347 228.832433 
L 188.95 227.026771 
L 189.194653 227.376327 
L 189.439306 225.503169 
L 190.173265 222.457761 
L 190.417918 222.502999 
L 190.662571 221.849249 
L 190.907224 222.846229 
L 191.151877 223.03178 
L 191.39653 223.388431 
L 191.641183 221.930585 
L 191.885836 221.866592 
L 192.375142 218.553676 
L 192.619795 217.755591 
L 192.864448 217.783904 
L 193.109101 218.674488 
L 193.353754 218.526639 
L 193.598407 217.90623 
L 193.84306 218.658524 
L 194.332366 219.192004 
L 194.821672 217.905383 
L 195.066325 217.275788 
L 195.555631 220.167732 
L 195.800284 215.051673 
L 196.044937 215.239337 
L 196.28959 213.521088 
L 196.534243 214.101242 
L 196.778896 214.175754 
L 197.023549 214.461114 
L 197.268202 213.3695 
L 197.512855 212.970186 
L 198.002161 214.844248 
L 198.246814 213.08388 
L 198.491467 214.428676 
L 198.73612 214.235149 
L 198.980773 215.134173 
L 199.225426 214.922828 
L 199.714732 216.609972 
L 199.959385 217.208507 
L 200.204038 210.225357 
L 200.448691 206.431181 
L 200.693344 208.001694 
L 200.937997 207.00929 
L 201.18265 206.541893 
L 201.427303 207.333425 
L 201.671956 206.197963 
L 201.916609 206.279864 
L 202.161262 207.416365 
L 202.405915 207.293079 
L 202.650568 206.677189 
L 202.895221 207.071792 
L 203.384528 204.915059 
L 203.629181 205.40451 
L 204.118487 209.162859 
L 204.36314 207.430827 
L 204.607793 213.376143 
L 204.852446 216.566857 
L 205.097099 210.923442 
L 205.341752 210.911985 
L 205.586405 211.012393 
L 205.831058 210.272188 
L 206.075711 209.986885 
L 206.320364 209.315498 
L 207.054323 202.703428 
L 207.298976 206.570138 
L 207.543629 206.963091 
L 207.788282 207.788281 
L 208.032935 209.140737 
L 208.277588 207.980634 
L 208.522241 209.549508 
L 208.766894 210.234339 
L 209.011547 212.380983 
L 209.2562 210.820142 
L 209.500853 211.337703 
L 209.745506 210.951348 
L 210.479465 204.889932 
L 210.724118 214.197831 
L 210.968771 216.472314 
L 211.213424 214.234629 
L 211.458077 214.047214 
L 211.70273 213.587262 
L 211.947383 212.457607 
L 212.192036 214.463113 
L 212.436689 215.178699 
L 212.681342 215.248895 
L 212.925995 214.61521 
L 213.170648 216.573399 
L 213.415301 216.047025 
L 213.659954 215.193409 
L 213.904607 219.616468 
L 214.393913 223.897869 
L 214.638566 223.233566 
L 214.883219 223.589811 
L 215.127872 222.237491 
L 215.372525 223.154445 
L 215.617178 221.514313 
L 216.106484 215.442626 
L 216.351137 215.295263 
L 216.59579 215.726336 
L 216.840443 214.630971 
L 217.085096 212.511342 
L 217.329749 214.576039 
L 217.574402 215.225135 
L 217.819055 211.457724 
L 218.063708 209.993438 
L 218.553014 212.296348 
L 219.04232 195.711386 
L 219.286973 195.932233 
L 219.776279 191.831456 
L 220.020932 192.128939 
L 220.510238 194.090201 
L 220.754891 193.964361 
L 220.999544 193.505043 
L 221.244197 193.508037 
L 221.48885 193.254425 
L 221.733503 192.22694 
L 221.978156 192.805015 
L 222.222809 190.459985 
L 222.956768 192.793321 
L 223.201421 194.661531 
L 223.446074 193.962667 
L 223.93538 196.93354 
L 224.180033 194.897833 
L 224.424686 197.421567 
L 224.669339 195.605725 
L 224.913992 195.327347 
L 225.158645 195.707601 
L 225.403298 196.662924 
L 225.647952 196.70745 
L 225.892605 195.838231 
L 226.137258 195.406367 
L 226.626564 198.656273 
L 226.871217 197.207951 
L 227.11587 192.914664 
L 227.605176 188.906477 
L 227.849829 189.691456 
L 228.094482 187.52538 
L 228.339135 188.737704 
L 228.828441 187.190003 
L 229.073094 187.231038 
L 229.317747 187.878947 
L 229.807053 185.597696 
L 230.051706 182.228854 
L 230.296359 182.277504 
L 230.541012 160.394548 
L 230.785665 159.944833 
L 231.030318 164.311332 
L 231.519624 165.070484 
L 231.764277 166.515755 
L 232.00893 166.743437 
L 232.253583 167.955355 
L 232.498236 167.589653 
L 232.742889 165.381615 
L 232.987542 166.279147 
L 233.232195 169.210702 
L 233.476848 168.862807 
L 233.721501 166.975887 
L 233.966154 166.61344 
L 234.210807 164.743513 
L 234.700113 168.856954 
L 234.944766 165.026534 
L 235.189419 163.612107 
L 235.678725 164.883634 
L 235.923378 164.987894 
L 236.412684 162.222604 
L 236.657337 163.870226 
L 237.146643 163.375725 
L 237.391296 164.350131 
L 237.635949 163.717655 
L 237.880602 163.980384 
L 238.125255 162.39341 
L 238.369908 163.865368 
L 238.614561 163.866362 
L 238.859214 163.462337 
L 239.103867 164.149813 
L 239.593173 160.790574 
L 239.837826 161.944125 
L 240.082479 161.945164 
L 240.327132 161.4677 
L 240.816438 154.444102 
L 241.79505 146.095469 
L 242.039703 145.575456 
L 242.284356 147.415285 
L 242.529009 153.039302 
L 242.773662 155.813201 
L 243.018315 153.695978 
L 243.262968 153.029246 
L 243.507621 153.127518 
L 243.752274 152.460515 
L 243.996927 149.957051 
L 244.24158 152.505708 
L 244.730886 146.548235 
L 244.975539 145.019741 
L 245.220192 146.667432 
L 245.464845 145.786711 
L 245.709498 146.141431 
L 245.954151 133.231855 
L 246.198804 139.033277 
L 246.68811 143.06745 
L 246.932763 142.183362 
L 247.177416 142.419496 
L 247.422069 142.223901 
L 247.666722 139.179273 
L 247.911375 140.979783 
L 248.400682 147.408755 
L 248.889988 143.547738 
L 249.134641 149.53235 
L 249.379294 148.914381 
L 249.623947 143.403573 
L 249.8686 143.800028 
L 250.113253 142.93874 
L 250.357906 140.046187 
L 250.602559 139.25 
L 250.847212 139.409779 
L 251.091865 140.115151 
L 251.336518 142.123301 
L 251.581171 146.839142 
L 251.825824 154.38377 
L 252.070477 165.911887 
L 252.31513 165.64692 
L 252.559783 162.364216 
L 252.804436 156.058282 
L 253.049089 154.607452 
L 253.293742 156.847781 
L 253.538395 162.377344 
L 253.783048 157.752047 
L 254.027701 150.583832 
L 254.272354 153.90486 
L 254.517007 151.887626 
L 254.76166 154.269951 
L 255.250966 150.273627 
L 255.495619 147.823129 
L 255.984925 140.051994 
L 256.229578 147.123542 
L 256.474231 149.021104 
L 256.718884 148.773447 
L 256.963537 153.041358 
L 257.20819 153.886127 
L 257.452843 155.901779 
L 257.697496 155.344301 
L 257.942149 162.847532 
L 258.186802 161.892017 
L 258.920761 165.872727 
L 259.165414 159.855102 
L 259.410067 161.222777 
L 259.899373 159.067298 
L 260.144026 157.438476 
L 260.388679 157.08292 
L 260.633332 157.720141 
L 260.877985 158.943198 
L 261.122638 154.674044 
L 261.367291 147.933829 
L 261.611944 161.823843 
L 261.856597 161.422146 
L 262.10125 158.324145 
L 262.590556 144.81113 
L 262.835209 145.454656 
L 263.079862 145.637235 
L 263.324515 145.634569 
L 263.569168 146.904943 
L 263.813821 149.664833 
L 264.058474 148.575908 
L 264.303127 148.434612 
L 264.54778 149.093978 
L 264.792433 149.085888 
L 265.037086 146.048921 
L 265.281739 145.288481 
L 265.526392 141.408845 
L 266.749657 155.511267 
L 266.99431 153.331745 
L 267.238963 153.052408 
L 267.483616 153.467641 
L 267.728269 154.299236 
L 267.972922 153.229767 
L 268.217575 151.466066 
L 268.462228 154.289588 
L 268.706881 160.008329 
L 268.951534 160.560542 
L 269.196187 162.068767 
L 269.685493 172.871559 
L 269.930146 173.045213 
L 270.174799 170.589472 
L 270.419452 173.912669 
L 270.664106 174.878986 
L 270.908759 174.645089 
L 271.398065 172.372041 
L 271.642718 172.354913 
L 271.887371 179.448582 
L 272.376677 183.776419 
L 272.62133 180.056383 
L 273.110636 176.998875 
L 273.355289 177.515318 
L 273.599942 175.449999 
L 273.844595 177.444726 
L 274.089248 178.031918 
L 274.333901 179.178893 
L 274.578554 176.145903 
L 274.823207 171.039617 
L 275.06786 172.609282 
L 275.312513 175.581397 
L 275.801819 168.067388 
L 276.046472 173.839502 
L 276.535778 164.604951 
L 277.025084 170.606939 
L 277.51439 161.813088 
L 277.759043 166.620241 
L 278.003696 163.357196 
L 278.248349 166.116746 
L 278.493002 163.275555 
L 278.737655 157.949879 
L 278.982308 158.507018 
L 279.471614 155.185561 
L 279.716267 152.673058 
L 279.96092 157.230001 
L 280.205573 154.831067 
L 280.450226 162.946414 
L 280.694879 163.012825 
L 280.939532 169.903465 
L 281.184185 169.434995 
L 281.673491 164.116822 
L 281.918144 163.083756 
L 282.162797 163.560451 
L 282.40745 157.057906 
L 282.652103 156.226061 
L 282.896756 152.750225 
L 283.141409 151.363591 
L 283.386062 150.841387 
L 283.630715 150.998364 
L 283.875368 152.047768 
L 284.364674 143.434575 
L 284.609327 143.4106 
L 284.85398 145.990441 
L 285.098633 144.408325 
L 285.343286 144.112944 
L 285.832592 146.297843 
L 286.077245 146.123602 
L 286.321898 144.997642 
L 286.566551 144.538097 
L 286.811204 144.994523 
L 287.055857 144.14885 
L 287.30051 144.81409 
L 287.545163 146.281529 
L 287.789816 145.761651 
L 288.034469 145.90297 
L 288.279122 147.77475 
L 288.523775 145.961992 
L 288.768428 145.52423 
L 289.013081 144.485244 
L 289.257734 140.378107 
L 289.502387 142.703827 
L 289.74704 141.406405 
L 289.991693 146.08851 
L 290.236346 141.329396 
L 290.480999 144.290801 
L 290.725652 143.903565 
L 290.970305 141.891574 
L 291.214958 137.669579 
L 291.459611 135.790455 
L 291.704264 136.035175 
L 291.948917 134.003932 
L 292.19357 120.263416 
L 292.438223 119.353433 
L 292.682876 120.601798 
L 292.92753 119.858238 
L 293.172183 118.50846 
L 293.416836 118.420582 
L 293.661489 117.403062 
L 293.906142 118.561448 
L 294.150795 123.306823 
L 294.395448 125.566992 
L 294.640101 123.447374 
L 295.37406 129.243214 
L 295.863366 122.234914 
L 296.108019 121.326603 
L 296.352672 126.123407 
L 296.597325 124.620877 
L 296.841978 125.23175 
L 297.086631 124.217981 
L 297.331284 126.407219 
L 297.575937 125.842194 
L 297.82059 126.050489 
L 298.065243 127.440624 
L 298.309896 126.180757 
L 298.554549 121.540501 
L 298.799202 120.907483 
L 299.043855 120.922239 
L 299.288508 119.513484 
L 299.533161 119.214487 
L 299.777814 119.916966 
L 300.022467 120.973171 
L 300.26712 123.642698 
L 300.511773 122.694346 
L 300.756426 120.652459 
L 301.001079 120.118256 
L 301.245732 120.253473 
L 301.735038 125.952533 
L 301.979691 125.1918 
L 302.224344 123.485742 
L 302.468997 123.622993 
L 302.71365 124.905141 
L 302.958303 123.061855 
L 303.202956 123.766458 
L 303.447609 123.799314 
L 303.692262 122.883614 
L 303.936915 133.221167 
L 304.181568 138.242897 
L 304.426221 133.055715 
L 304.670874 131.731155 
L 304.915527 129.270578 
L 305.16018 129.216821 
L 305.404833 133.607138 
L 305.649486 132.086823 
L 305.894139 131.592096 
L 306.383445 124.67086 
L 306.628098 122.459207 
L 306.872751 124.174822 
L 307.117404 124.973269 
L 307.362057 124.418051 
L 307.60671 139.30692 
L 308.096016 136.339279 
L 308.340669 137.394308 
L 308.585322 139.08552 
L 308.829975 137.326745 
L 309.074628 137.749706 
L 309.563934 137.517098 
L 309.808587 136.932459 
L 310.05324 137.350449 
L 310.297893 139.573988 
L 310.542546 138.258782 
L 310.787199 138.789506 
L 311.031852 135.513761 
L 311.276505 135.432482 
L 311.521158 136.078831 
L 311.765811 134.722455 
L 312.010464 132.560965 
L 312.255117 133.620447 
L 312.744423 137.971197 
L 312.989076 137.900944 
L 313.233729 138.922012 
L 313.478382 139.005732 
L 313.723035 138.886874 
L 313.967688 135.178791 
L 314.456994 138.591561 
L 315.190953 134.661783 
L 315.435607 135.618157 
L 315.68026 136.034407 
L 315.924913 132.543408 
L 316.414219 132.839332 
L 316.903525 140.238935 
L 317.148178 140.48196 
L 317.392831 145.805918 
L 317.637484 146.880042 
L 317.882137 147.243326 
L 318.12679 148.440307 
L 318.371443 148.325584 
L 318.616096 147.935117 
L 318.860749 143.628317 
L 319.350055 140.074139 
L 319.594708 141.997439 
L 319.839361 140.824139 
L 320.57332 142.140316 
L 320.817973 138.891687 
L 321.062626 138.837682 
L 321.307279 139.075645 
L 321.551932 138.829976 
L 321.796585 142.094174 
L 322.041238 141.017203 
L 323.01985 151.381149 
L 323.264503 136.406887 
L 323.509156 135.768559 
L 323.753809 137.324146 
L 323.998462 133.334579 
L 324.243115 132.221634 
L 324.487768 128.972192 
L 324.732421 130.243176 
L 324.977074 132.296135 
L 325.221727 131.771783 
L 325.46638 130.369671 
L 325.711033 129.801686 
L 326.200339 136.840921 
L 326.444992 136.562939 
L 326.689645 136.813036 
L 327.178951 130.548161 
L 327.423604 131.713145 
L 327.91291 126.686715 
L 328.157563 119.484086 
L 328.402216 123.666898 
L 328.646869 124.350826 
L 328.891522 122.74564 
L 329.136175 127.133764 
L 329.625481 121.877053 
L 329.870134 120.359112 
L 330.114787 117.635241 
L 330.35944 123.471733 
L 330.604093 121.357741 
L 331.093399 127.610075 
L 331.338052 127.736616 
L 331.827358 126.476681 
L 332.072011 120.780446 
L 332.316664 119.948308 
L 332.561317 122.327853 
L 332.80597 122.509258 
L 333.295276 125.062751 
L 333.784582 136.792609 
L 334.029235 140.359148 
L 334.273888 137.259927 
L 334.518541 139.65581 
L 334.763194 143.871049 
L 335.2525 145.231651 
L 335.497153 146.781702 
L 335.741806 146.192657 
L 335.986459 146.634463 
L 336.720418 130.644151 
L 337.209724 133.062291 
L 337.454377 132.442447 
L 337.69903 133.422502 
L 338.43299 125.883772 
L 338.677643 127.085182 
L 338.922296 129.306687 
L 339.166949 128.963989 
L 339.411602 128.984846 
L 339.900908 120.925289 
L 340.145561 134.528509 
L 340.390214 132.935841 
L 340.634867 130.560521 
L 341.124173 133.728051 
L 341.613479 132.508225 
L 341.858132 101.107403 
L 342.592091 88.143348 
L 342.836744 88.025055 
L 343.081397 86.547765 
L 343.32605 87.090216 
L 343.570703 86.920561 
L 343.815356 87.562595 
L 344.304662 83.920155 
L 344.549315 84.174343 
L 344.793968 88.7838 
L 345.038621 87.238562 
L 345.283274 87.56786 
L 345.527927 89.421473 
L 345.77258 86.811985 
L 346.017233 87.57482 
L 346.261886 86.828662 
L 346.506539 88.761429 
L 346.751192 88.724416 
L 346.995845 88.322967 
L 347.240498 88.307172 
L 347.729804 87.418498 
L 347.974457 86.337572 
L 348.21911 82.264849 
L 348.463763 82.761995 
L 348.708416 79.894862 
L 348.953069 78.848283 
L 349.197722 83.518502 
L 349.442375 83.854467 
L 349.687028 80.962026 
L 349.931681 80.646286 
L 350.176334 83.011867 
L 350.66564 81.32409 
L 350.910293 81.470967 
L 351.154946 81.25612 
L 351.399599 81.577894 
L 351.888905 90.27797 
L 352.133558 90.971185 
L 352.378211 92.923295 
L 352.622864 92.944581 
L 353.11217 90.59014 
L 353.356823 93.285178 
L 353.601476 92.886034 
L 353.846129 93.023714 
L 354.090782 93.75514 
L 354.335435 92.383985 
L 354.580088 92.297712 
L 354.824741 76.897642 
L 355.069394 75.783725 
L 355.5587 78.707327 
L 355.803353 82.454592 
L 356.048006 83.879933 
L 356.292659 81.482921 
L 356.537312 83.233516 
L 356.781965 82.48982 
L 357.026618 80.690846 
L 357.271271 80.879368 
L 357.515924 77.194243 
L 357.760577 75.371023 
L 358.249883 76.773451 
L 358.494536 76.797969 
L 358.739189 77.638874 
L 358.983842 81.925473 
L 359.228495 82.420449 
L 359.473148 78.265972 
L 359.717801 77.658804 
L 359.962454 78.268955 
L 360.207107 70.580523 
L 360.451761 69.219401 
L 360.696414 69.092251 
L 360.941067 69.167972 
L 361.919679 58.571621 
L 362.164332 57.808425 
L 362.408985 56.515612 
L 362.653638 56.105779 
L 362.898291 57.749945 
L 363.142944 56.378022 
L 363.387597 51.578483 
L 363.876903 54.31485 
L 364.121556 52.747919 
L 364.366209 47.908859 
L 364.610862 47.36329 
L 364.855515 47.676161 
L 365.100168 49.840926 
L 365.344821 46.224969 
L 365.589474 45.940502 
L 365.834127 49.847344 
L 366.07878 49.037305 
L 366.323433 51.04437 
L 366.568086 47.54483 
L 366.812739 49.222031 
L 367.057392 46.29599 
L 367.302045 48.085857 
L 367.546698 46.181629 
L 368.036004 44.905312 
L 368.280657 43.213016 
L 368.52531 46.285437 
L 368.769963 42.787208 
L 369.014616 43.106292 
L 369.503922 39.848693 
L 369.993228 34.414125 
L 370.237881 63.616603 
L 370.482534 62.46373 
L 370.727187 62.749801 
L 370.97184 61.41462 
L 371.216493 63.904437 
L 371.705799 63.57324 
L 372.195105 69.123705 
L 372.684411 71.982025 
L 373.663023 88.277932 
L 374.396982 84.409165 
L 374.886288 94.125993 
L 375.130941 96.22245 
L 375.375594 97.136659 
L 375.620247 99.039599 
L 375.8649 96.315389 
L 376.109553 95.485737 
L 376.354206 96.778866 
L 376.598859 96.475847 
L 376.843512 95.313484 
L 377.088165 87.109468 
L 377.332818 86.265241 
L 377.822124 99.313265 
L 378.066777 102.302215 
L 378.556083 93.673905 
L 378.800736 95.718955 
L 379.045389 93.165665 
L 379.290042 95.372144 
L 379.534695 96.454561 
L 379.779348 100.62176 
L 380.024001 96.09844 
L 380.268654 94.174485 
L 380.513307 95.945055 
L 380.75796 92.793908 
L 381.247266 88.915673 
L 381.491919 89.021605 
L 381.736572 89.685354 
L 381.981225 87.831177 
L 382.470531 87.852508 
L 382.715184 87.183268 
L 382.959838 90.096272 
L 383.204491 91.328458 
L 383.449144 90.479169 
L 383.693797 91.667631 
L 383.93845 90.726284 
L 384.183103 90.900074 
L 384.427756 90.433886 
L 384.672409 89.128939 
L 384.917062 90.892639 
L 385.161715 90.016303 
L 385.406368 90.151678 
L 385.651021 86.383127 
L 385.895674 108.509899 
L 386.38498 96.958056 
L 386.629633 95.381251 
L 386.874286 89.767289 
L 387.118939 93.515685 
L 387.608245 108.133645 
L 387.852898 110.510818 
L 387.852898 110.510818 
" style="fill:none;stroke:#1f77b4;stroke-linecap:square;stroke-width:1.5;"/>
   </g>
   <g id="line2d_34">
    <path clip-path="url(#p9856c71652)" d="M 63.198352 273.372358 
L 63.443005 274.823624 
L 63.687658 275.238271 
L 63.932311 276.186037 
L 64.421617 272.928093 
L 65.155576 270.232886 
L 65.400229 269.67015 
L 65.644882 269.610915 
L 66.134188 269.196268 
L 66.378841 267.656149 
L 66.623494 267.656149 
L 67.1128 268.396591 
L 67.357453 269.107415 
L 67.602106 270.469827 
L 68.091412 269.344356 
L 68.336066 269.847856 
L 68.580719 269.847856 
L 68.825372 270.144033 
L 69.070025 269.818239 
L 69.314678 270.736386 
L 69.559331 270.94371 
L 69.803984 268.515061 
L 70.048637 269.433209 
L 70.29329 268.811238 
L 70.537943 266.708384 
L 71.027249 265.197883 
L 71.271902 262.561911 
L 71.516555 265.523677 
L 72.250514 267.77462 
L 72.495167 268.337355 
L 72.73982 268.070796 
L 72.984473 269.759003 
L 73.229126 270.410592 
L 73.718432 267.89309 
L 73.963085 268.633532 
L 74.207738 268.959326 
L 74.452391 270.114415 
L 74.697044 269.966327 
L 74.941697 269.077797 
L 75.18635 267.715384 
L 75.431003 269.640533 
L 75.675656 270.380974 
L 75.920309 268.929709 
L 76.164962 264.516676 
L 76.409615 269.107415 
L 76.898921 265.523677 
L 77.143574 265.257118 
L 77.388227 265.257118 
L 77.63288 267.211884 
L 77.877533 271.980328 
L 78.122186 271.773005 
L 78.856145 274.320124 
L 79.100798 273.313123 
L 79.345451 275.534448 
L 79.590104 273.787006 
L 79.834757 268.988944 
L 80.07941 270.706769 
L 80.324063 270.588298 
L 80.568716 270.677151 
L 80.813369 271.476828 
L 81.058022 271.387975 
L 81.302675 272.868858 
L 81.547328 273.283505 
L 81.791981 272.957711 
L 82.036634 270.144033 
L 82.281287 270.55868 
L 82.770593 267.626531 
L 83.015246 267.419208 
L 83.259899 267.478443 
L 83.504552 266.767619 
L 83.749205 266.589913 
L 83.993858 267.00456 
L 84.238511 269.255503 
L 84.727817 271.32874 
L 85.461776 269.55168 
L 85.706429 268.337355 
L 85.951082 269.048179 
L 86.195735 270.736386 
L 86.685041 272.069181 
L 86.929694 272.158034 
L 87.174347 272.602299 
L 87.419 272.513446 
L 87.663653 274.172035 
L 87.908306 274.6163 
L 88.152959 276.097184 
L 88.397612 275.593683 
L 88.642265 276.334125 
L 88.886918 274.586683 
L 89.131571 274.823624 
L 89.376224 273.935094 
L 89.86553 276.215654 
L 90.110183 276.126801 
L 90.354836 275.238271 
L 90.599489 271.121416 
L 90.844143 271.654534 
L 91.088796 272.631917 
L 91.578102 269.640533 
L 91.822755 268.544679 
L 92.067408 265.375589 
L 92.312061 265.790236 
L 92.556714 268.011561 
L 92.801367 267.034178 
L 93.04602 270.410592 
L 93.290673 271.269504 
L 93.535326 270.677151 
L 93.779979 270.617916 
L 94.024632 270.232886 
L 94.269285 269.403591 
L 94.513938 270.05518 
L 95.247897 266.234501 
L 95.49255 262.917323 
L 95.737203 263.361588 
L 95.981856 262.769234 
L 96.471162 259.837085 
L 96.715815 260.873704 
L 97.205121 259.126261 
L 97.694427 259.096644 
L 97.93908 262.117646 
L 98.183733 262.295352 
L 98.428386 260.903321 
L 98.673039 262.384205 
L 98.917692 262.117646 
L 99.162345 262.206499 
L 99.406998 260.370203 
L 99.651651 259.629762 
L 99.896304 259.303967 
L 100.38561 255.690612 
L 100.630263 256.075642 
L 100.874916 257.082642 
L 101.119569 255.838701 
L 101.364222 255.394436 
L 101.608875 255.868318 
L 101.853528 257.023407 
L 102.098181 255.809083 
L 102.342834 253.883935 
L 102.587487 251.070256 
L 102.83214 251.573757 
L 103.076793 251.099874 
L 103.321446 251.573757 
L 103.566099 250.77408 
L 103.810752 251.899551 
L 104.055405 252.403051 
L 104.300058 253.469287 
L 104.544711 252.195728 
L 105.034017 252.817699 
L 105.767976 247.456901 
L 106.012629 247.901166 
L 106.257282 251.188727 
L 106.501935 249.618991 
L 106.746588 251.366433 
L 107.235894 247.575372 
L 107.7252 239.460132 
L 107.969853 240.881779 
L 108.214506 239.460132 
L 108.459159 240.911397 
L 108.703812 239.785926 
L 109.437771 242.27381 
L 109.682424 241.059485 
L 109.927077 241.266809 
L 110.17173 240.348661 
L 110.416383 239.934014 
L 110.661036 239.963632 
L 111.150342 240.348661 
L 111.394995 240.200573 
L 111.639648 239.904396 
L 111.884301 241.089103 
L 112.128954 239.015867 
L 112.373607 239.637838 
L 112.61826 237.386895 
L 112.862913 240.289426 
L 113.107566 241.799927 
L 113.35222 241.237191 
L 113.596873 242.540369 
L 113.841526 249.263579 
L 114.086179 248.138107 
L 114.330832 249.174726 
L 114.575485 248.197343 
L 114.820138 248.641608 
L 115.064791 250.300197 
L 115.309444 250.063256 
L 115.554097 247.634607 
L 115.79875 248.848931 
L 116.043403 248.523137 
L 116.288056 251.159109 
L 116.532709 249.648608 
L 116.777362 250.329815 
L 117.022015 249.678226 
L 117.266668 248.404666 
L 117.511321 247.990019 
L 117.755974 251.159109 
L 118.000627 249.589373 
L 118.24528 251.040639 
L 118.734586 250.211344 
L 118.979239 248.730461 
L 119.223892 248.138107 
L 119.468545 245.472518 
L 119.957851 244.583988 
L 120.202504 242.866163 
L 120.447157 242.569986 
L 120.69181 241.029868 
L 120.936463 241.859162 
L 121.425769 239.815544 
L 121.670422 240.378279 
L 121.915075 241.237191 
L 122.159728 244.583988 
L 122.404381 243.251193 
L 122.649034 246.509136 
L 123.13834 239.252808 
L 123.382993 241.355662 
L 123.872299 241.474133 
L 124.116952 241.266809 
L 124.361605 243.488134 
L 124.606258 244.672841 
L 124.850911 241.829545 
L 125.095564 241.740692 
L 125.340217 242.303427 
L 125.829523 244.880164 
L 126.074176 243.695458 
L 126.318829 244.791311 
L 126.563482 246.597989 
L 126.808135 245.590988 
L 127.052788 246.301812 
L 127.297441 247.516137 
L 127.542094 247.930784 
L 127.786747 247.960402 
L 128.0314 247.397666 
L 128.276053 248.345431 
L 128.520706 246.864548 
L 128.765359 244.347046 
L 129.010012 243.517752 
L 129.254665 245.976018 
L 129.499318 245.739077 
L 129.743971 245.768694 
L 129.988624 245.916783 
L 130.722583 240.052485 
L 130.967236 238.778925 
L 131.211889 238.275425 
L 131.456542 241.207574 
L 131.701195 241.237191 
L 131.945848 243.191957 
L 132.190501 242.244192 
L 133.169113 234.899011 
L 133.413766 236.409512 
L 133.658419 237.209189 
L 133.903072 237.534983 
L 134.147725 239.045484 
L 134.881684 241.296427 
L 135.126337 239.874779 
L 135.615643 241.799927 
L 135.860297 240.437514 
L 136.349603 244.880164 
L 136.594256 244.702458 
L 137.083562 242.540369 
L 137.328215 243.132722 
L 137.572868 244.702458 
L 137.817521 244.376664 
L 138.306827 241.00025 
L 138.55148 233.655069 
L 138.796133 232.855392 
L 139.040786 232.618451 
L 139.285439 231.137568 
L 139.530092 226.754153 
L 139.774745 226.517212 
L 140.019398 222.815004 
L 140.264051 226.1618 
L 140.508704 227.93886 
L 140.753357 227.376124 
L 140.99801 226.191417 
L 141.242663 226.635682 
L 141.487316 226.043329 
L 141.731969 231.048715 
L 141.976622 231.404127 
L 142.221275 229.123566 
L 142.465928 229.123566 
L 142.710581 224.088563 
L 142.955234 224.740152 
L 143.199887 224.740152 
L 143.44454 226.6653 
L 143.689193 227.55383 
L 143.933846 227.198418 
L 144.178499 226.606065 
L 144.667805 222.193033 
L 145.157111 221.422973 
L 145.401764 221.511826 
L 145.646417 221.985709 
L 146.135723 226.694918 
L 146.380376 225.806388 
L 146.625029 227.613065 
L 146.869682 225.687917 
L 147.114335 226.1618 
L 147.358988 228.05733 
L 147.603641 228.44236 
L 147.848294 227.613065 
L 148.092947 228.94586 
L 148.3376 228.294272 
L 148.582253 225.569446 
L 148.826906 226.102564 
L 149.071559 225.450976 
L 149.316212 223.466592 
L 149.560865 222.60768 
L 149.805518 220.504826 
L 150.050171 219.794002 
L 150.294824 218.105795 
L 150.539477 217.987324 
L 151.273436 221.778385 
L 151.518089 221.630297 
L 151.762742 221.808003 
L 152.007395 223.99971 
L 152.252048 223.822004 
L 152.496701 226.1618 
L 152.741354 225.984094 
L 152.986007 226.102564 
L 153.23066 225.865623 
L 153.719966 227.464977 
L 153.964619 225.806388 
L 154.453925 229.064331 
L 154.698578 229.567831 
L 154.943231 226.991094 
L 155.187884 230.397126 
L 155.432537 229.153184 
L 155.67719 235.432129 
L 155.921843 238.512366 
L 156.166496 236.735306 
L 156.411149 236.498365 
L 156.655802 233.832775 
L 156.900455 232.559215 
L 157.145108 225.836005 
L 157.389761 225.806388 
L 157.634414 227.05033 
L 157.879067 224.177416 
L 158.12372 224.473593 
L 158.368374 224.058945 
L 158.613027 221.363738 
L 158.85768 220.179031 
L 159.102333 220.090178 
L 159.591639 218.964707 
L 159.836292 217.898471 
L 160.080945 217.928089 
L 160.325598 217.543059 
L 160.570251 219.05356 
L 160.814904 218.135412 
L 161.059557 218.520442 
L 161.30421 217.78 
L 161.548863 218.698148 
L 161.793516 218.490824 
L 162.038169 219.497825 
L 162.527475 219.083178 
L 162.772128 219.023942 
L 163.016781 218.135412 
L 163.261434 217.839236 
L 163.506087 218.787001 
L 163.995393 217.424588 
L 164.729352 219.586678 
L 164.974005 219.468207 
L 165.707964 213.900086 
L 165.952617 214.196263 
L 166.19727 215.736381 
L 166.686576 219.43859 
L 166.931229 219.320119 
L 167.175882 217.750383 
L 167.665188 222.074562 
L 167.909841 222.015327 
L 168.154494 222.518827 
L 168.399147 221.422973 
L 168.888453 216.062176 
L 169.377759 217.898471 
L 169.622412 218.16503 
L 169.867065 218.846236 
L 170.111718 215.973323 
L 170.356371 217.483824 
L 170.601024 217.246882 
L 170.845677 216.062176 
L 171.09033 215.736381 
L 171.334983 216.476823 
L 171.579636 216.861853 
L 172.068942 217.217265 
L 172.558248 216.269499 
L 172.802901 216.536058 
L 173.047554 218.16503 
L 173.292207 220.860238 
L 173.53686 220.415973 
L 173.781513 221.363738 
L 174.026166 222.933474 
L 174.270819 221.867238 
L 174.515472 221.867238 
L 174.760125 221.422973 
L 175.004778 222.370739 
L 175.249431 222.785386 
L 175.494084 222.903857 
L 175.738737 221.867238 
L 175.98339 226.369123 
L 176.228043 228.44236 
L 176.717349 225.569446 
L 176.962002 226.339506 
L 177.206655 223.703533 
L 177.451308 223.673916 
L 177.695961 224.207034 
L 177.940614 225.539829 
L 178.185267 225.747152 
L 178.42992 226.309888 
L 178.674573 225.687917 
L 178.919226 225.77677 
L 179.163879 225.599064 
L 179.408532 224.977093 
L 179.653185 221.659915 
L 179.897838 222.370739 
L 180.142491 223.792386 
L 180.387144 224.38474 
L 180.631798 223.200033 
L 180.876451 223.792386 
L 181.121104 221.511826 
L 181.365757 222.015327 
L 181.61041 220.623296 
L 181.855063 222.22265 
L 182.099716 222.22265 
L 182.344369 220.652914 
L 182.589022 221.778385 
L 182.833675 219.823619 
L 183.078328 220.504826 
L 183.322981 222.370739 
L 183.567634 225.27327 
L 184.05694 223.318504 
L 184.301593 227.55383 
L 184.546246 227.93886 
L 184.790899 229.360508 
L 185.035552 227.494595 
L 185.769511 230.782156 
L 186.014164 230.782156 
L 186.258817 232.973863 
L 186.50347 234.010481 
L 186.748123 233.714304 
L 187.237429 232.026097 
L 187.482082 233.77354 
L 187.726735 231.641068 
L 187.971388 231.167185 
L 188.216041 232.085333 
L 188.460694 231.878009 
L 188.705347 229.83439 
L 188.95 230.485979 
L 189.194653 228.116566 
L 189.928612 225.125181 
L 190.173265 225.510211 
L 190.417918 224.799387 
L 190.662571 226.221035 
L 190.907224 226.132182 
L 191.151877 226.546829 
L 191.39653 224.947475 
L 191.641183 224.947475 
L 192.130489 221.422973 
L 192.375142 220.919473 
L 192.619795 220.978708 
L 192.864448 221.956091 
L 193.109101 221.808003 
L 193.353754 221.304503 
L 193.84306 222.341121 
L 194.087713 222.637298 
L 194.332366 221.659915 
L 194.821672 220.623296 
L 195.310978 224.118181 
L 195.555631 218.16503 
L 195.800284 219.05356 
L 196.044937 217.039559 
L 196.28959 217.868853 
L 196.534243 218.046559 
L 196.778896 218.461207 
L 197.023549 217.246882 
L 197.268202 216.773 
L 197.757508 218.727766 
L 198.002161 216.476823 
L 198.246814 218.461207 
L 198.491467 218.016942 
L 198.73612 219.023942 
L 198.980773 218.520442 
L 199.225426 220.001325 
L 199.470079 220.356737 
L 199.714732 221.422973 
L 199.959385 213.544674 
L 200.204038 209.960937 
L 200.448691 212.359968 
L 200.693344 210.671761 
L 200.937997 210.316349 
L 201.18265 211.175261 
L 201.427303 209.931319 
L 201.671956 210.257113 
L 201.916609 211.560291 
L 202.161262 210.523672 
L 202.405915 210.197878 
L 202.650568 211.027173 
L 203.139875 208.77623 
L 203.384528 209.190877 
L 203.629181 211.856467 
L 203.873834 213.070792 
L 204.118487 210.701378 
L 204.36314 218.076177 
L 204.607793 220.919473 
L 204.852446 213.959322 
L 205.097099 214.699763 
L 205.341752 214.670146 
L 205.586405 213.544674 
L 205.831058 213.011556 
L 206.075711 213.100409 
L 206.80967 205.577522 
L 207.054323 210.730996 
L 207.298976 210.730996 
L 207.788282 212.83385 
L 208.032935 211.412202 
L 208.277588 213.426204 
L 208.522241 213.959322 
L 208.766894 216.38797 
L 209.011547 214.166645 
L 209.2562 214.877469 
L 209.500853 214.462822 
L 210.234812 208.065406 
L 210.479465 219.112795 
L 210.724118 220.001325 
L 210.968771 217.365353 
L 211.213424 217.2765 
L 211.70273 215.351352 
L 211.947383 217.928089 
L 212.436689 218.105795 
L 212.681342 217.631912 
L 212.925995 219.764384 
L 213.415301 218.016942 
L 213.659954 223.288886 
L 214.14926 227.1688 
L 214.393913 226.309888 
L 214.638566 227.020712 
L 214.883219 225.302887 
L 215.127872 226.6653 
L 215.617178 221.452591 
L 215.861831 218.194648 
L 216.106484 218.461207 
L 216.351137 219.05356 
L 216.59579 217.868853 
L 216.840443 215.736381 
L 217.085096 218.253883 
L 217.329749 218.905472 
L 217.574402 214.61091 
L 217.819055 213.337351 
L 218.308361 215.825234 
L 218.553014 204.21511 
L 218.797667 198.439665 
L 219.04232 199.653989 
L 219.531626 195.122486 
L 220.020932 196.929164 
L 220.265585 197.936165 
L 220.510238 197.788076 
L 220.754891 197.225341 
L 221.244197 197.047635 
L 221.48885 195.803693 
L 221.733503 196.366428 
L 221.978156 193.878544 
L 222.467462 196.011016 
L 222.712115 196.011016 
L 222.956768 198.321194 
L 223.201421 197.373429 
L 223.690727 200.512901 
L 223.93538 198.173106 
L 224.180033 201.046019 
L 224.424686 198.765459 
L 224.669339 198.469283 
L 224.913992 198.972783 
L 225.158645 199.950166 
L 225.403298 200.009401 
L 225.647952 199.120871 
L 225.892605 198.795077 
L 226.137258 201.194108 
L 226.381911 201.579137 
L 226.626564 200.157489 
L 226.871217 195.596369 
L 227.360523 191.983014 
L 227.605176 192.990014 
L 227.849829 190.916778 
L 228.094482 192.516132 
L 228.339135 191.242572 
L 228.583788 190.739072 
L 228.828441 190.709454 
L 229.073094 191.716455 
L 229.5624 188.932394 
L 229.807053 185.289421 
L 230.051706 185.763304 
L 230.296359 161.269495 
L 230.541012 163.076172 
L 230.785665 168.466587 
L 231.030318 168.525823 
L 231.274971 168.821999 
L 231.519624 170.628677 
L 231.764277 170.302883 
L 232.00893 171.961472 
L 232.253583 171.250648 
L 232.498236 168.673911 
L 232.742889 170.065941 
L 232.987542 173.057326 
L 233.232195 172.435355 
L 233.476848 170.273265 
L 233.721501 169.977088 
L 233.966154 167.66691 
L 234.210807 170.747148 
L 234.45546 172.287266 
L 234.700113 167.755763 
L 234.944766 166.511822 
L 235.189419 167.755763 
L 235.434072 168.170411 
L 235.678725 168.288881 
L 235.923378 166.037939 
L 236.168031 165.001321 
L 236.412684 167.133792 
L 236.657337 166.482204 
L 236.90199 166.334116 
L 237.146643 167.281881 
L 237.391296 166.511822 
L 237.635949 167.16341 
L 237.880602 165.356733 
L 238.125255 167.104175 
L 238.369908 167.015322 
L 238.614561 166.65991 
L 238.859214 167.518822 
L 239.34852 163.905467 
L 239.593173 165.238262 
L 239.837826 165.030938 
L 240.082479 164.586673 
L 240.571785 157.330345 
L 241.550397 148.889311 
L 241.79505 148.652369 
L 242.039703 150.814459 
L 242.284356 157.004551 
L 242.529009 159.403582 
L 242.773662 156.471433 
L 243.018315 156.056786 
L 243.262968 156.264109 
L 243.507621 155.345962 
L 243.752274 152.709989 
L 243.996927 155.99755 
L 244.486233 149.244723 
L 244.730886 147.852692 
L 244.975539 149.688988 
L 245.220192 148.652369 
L 245.464845 149.15587 
L 245.709498 134.643213 
L 245.954151 142.728836 
L 246.443457 146.10525 
L 246.68811 145.039014 
L 246.932763 145.424044 
L 247.177416 145.246338 
L 247.422069 141.721836 
L 247.666722 144.002396 
L 248.156029 150.666371 
L 248.400682 147.438045 
L 248.645335 146.223721 
L 248.889988 153.065401 
L 249.134641 151.643753 
L 249.379294 145.424044 
L 249.623947 146.549515 
L 249.8686 145.483279 
L 250.113253 142.343807 
L 250.357906 141.869924 
L 250.602559 142.136483 
L 250.847212 142.847307 
L 251.091865 145.21672 
L 251.336518 150.310959 
L 251.581171 158.248493 
L 251.825824 170.095559 
L 252.070477 169.058941 
L 252.31513 165.327115 
L 252.559783 158.366964 
L 252.804436 157.27111 
L 253.049089 159.995935 
L 253.293742 166.126792 
L 253.783048 153.272725 
L 254.027701 157.685757 
L 254.272354 154.960932 
L 254.517007 157.952316 
L 255.250966 151.140253 
L 255.740272 143.232336 
L 255.984925 151.347577 
L 256.229578 152.680372 
L 256.474231 152.295342 
L 256.718884 157.152639 
L 256.963537 157.65614 
L 257.20819 159.818229 
L 257.452843 158.929699 
L 257.697496 167.281881 
L 257.942149 165.623292 
L 258.431455 168.614676 
L 258.676108 169.562441 
L 258.920761 162.809613 
L 259.165414 165.119791 
L 259.899373 160.706759 
L 260.144026 160.4402 
L 260.388679 161.358348 
L 260.633332 162.72076 
L 260.877985 157.804228 
L 261.122638 150.5479 
L 261.367291 167.133792 
L 261.856597 161.772995 
L 262.345903 147.319574 
L 262.590556 148.978164 
L 263.079862 149.363193 
L 263.324515 150.636753 
L 263.569168 153.361578 
L 263.813821 152.147254 
L 264.058474 152.176871 
L 264.303127 152.82846 
L 264.54778 152.680372 
L 264.792433 149.185487 
L 265.037086 148.741222 
L 265.281739 144.535514 
L 266.015698 155.790227 
L 266.260351 156.501051 
L 266.505004 159.492435 
L 266.749657 157.093404 
L 266.99431 157.004551 
L 267.238963 157.330345 
L 267.483616 158.218875 
L 267.728269 156.76761 
L 267.972922 154.457432 
L 268.217575 157.685757 
L 268.462228 164.438585 
L 268.706881 164.320114 
L 268.951534 166.15641 
L 269.44084 177.411122 
L 269.685493 176.996475 
L 269.930146 174.123562 
L 270.174799 178.299652 
L 270.419452 178.862388 
L 270.664106 178.418123 
L 270.908759 175.989474 
L 271.398065 175.930239 
L 271.642718 184.282421 
L 272.132024 187.481129 
L 272.376677 183.15695 
L 272.865983 180.639448 
L 273.110636 180.550595 
L 273.355289 178.240417 
L 273.599942 180.99486 
L 273.844595 181.409507 
L 274.089248 182.594214 
L 274.578554 173.916238 
L 275.06786 179.395506 
L 275.312513 173.560826 
L 275.557166 171.132177 
L 275.801819 178.092329 
L 276.291125 167.459587 
L 276.535778 172.257649 
L 276.780431 174.390121 
L 277.025084 167.814999 
L 277.269737 164.971703 
L 277.51439 170.895236 
L 277.759043 166.689528 
L 278.003696 170.154794 
L 278.248349 166.630292 
L 278.493002 160.914083 
L 278.737655 162.424584 
L 279.226961 158.781611 
L 279.471614 156.116021 
L 279.716267 161.447201 
L 279.96092 158.455817 
L 280.205573 167.844616 
L 280.450226 167.16341 
L 280.694879 174.893621 
L 280.939532 173.353502 
L 281.428838 167.518822 
L 281.673491 166.867234 
L 281.918144 167.429969 
L 282.162797 160.144023 
L 282.40745 160.232876 
L 282.652103 156.560286 
L 283.141409 154.487049 
L 283.386062 154.398196 
L 283.630715 156.204874 
L 284.120021 147.112251 
L 284.364674 147.260339 
L 284.609327 150.16287 
L 284.85398 148.119251 
L 285.098633 148.178487 
L 285.343286 149.896311 
L 285.587939 150.074017 
L 285.832592 149.955547 
L 286.077245 148.711605 
L 286.321898 148.474663 
L 286.566551 148.741222 
L 286.811204 148.089634 
L 287.055857 148.445046 
L 287.30051 150.340576 
L 287.545163 149.65937 
L 287.789816 149.688988 
L 288.034469 151.969548 
L 288.279122 149.540899 
L 288.523775 149.215105 
L 288.768428 148.26734 
L 289.013081 143.676601 
L 289.257734 146.371809 
L 289.502387 144.861308 
L 289.74704 150.488665 
L 289.991693 144.742837 
L 290.236346 148.533899 
L 290.480999 147.645369 
L 290.725652 145.60175 
L 290.970305 141.188718 
L 291.214958 139.530128 
L 291.459611 140.033629 
L 291.704264 136.834921 
L 291.948917 122.707294 
L 292.19357 123.181177 
L 292.438223 124.721296 
L 292.682876 123.832766 
L 292.92753 121.966853 
L 293.172183 122.529588 
L 293.416836 121.374499 
L 293.661489 122.76653 
L 293.906142 128.21618 
L 294.150795 130.230181 
L 294.395448 127.416503 
L 295.129407 133.458507 
L 295.618713 125.876385 
L 295.863366 125.224796 
L 296.108019 130.644829 
L 296.352672 128.275415 
L 296.597325 128.838151 
L 296.841978 127.801533 
L 297.086631 130.259799 
L 297.331284 129.460122 
L 297.575937 129.548975 
L 297.82059 130.970623 
L 298.065243 129.252798 
L 298.309896 124.069707 
L 298.554549 123.951236 
L 298.799202 123.980854 
L 299.043855 122.411118 
L 299.288508 122.3815 
L 299.533161 122.885 
L 299.777814 124.040089 
L 300.022467 126.82415 
L 300.26712 125.491355 
L 300.511773 123.388501 
L 300.756426 122.914618 
L 301.001079 123.033089 
L 301.490385 128.986239 
L 301.735038 127.860768 
L 301.979691 126.142944 
L 302.224344 126.527973 
L 302.468997 127.920003 
L 302.71365 125.757914 
L 302.958303 126.735297 
L 303.202956 126.587208 
L 303.447609 125.609826 
L 303.692262 136.953391 
L 303.936915 142.166101 
L 304.181568 135.798302 
L 304.426221 134.880155 
L 304.670874 132.15533 
L 304.915527 132.421889 
L 305.16018 137.071862 
L 305.404833 135.057861 
L 305.649486 134.761684 
L 305.894139 130.022858 
L 306.383445 125.461737 
L 306.628098 127.564591 
L 306.872751 128.393886 
L 307.117404 127.683062 
L 307.362057 144.505896 
L 307.60671 140.77407 
L 307.851363 140.033629 
L 308.340669 142.788071 
L 308.585322 140.566747 
L 308.829975 141.366424 
L 309.319281 141.040629 
L 309.563934 140.329805 
L 309.808587 140.951776 
L 310.05324 142.788071 
L 310.297893 141.573747 
L 310.542546 142.284571 
L 310.787199 138.375039 
L 311.031852 138.819304 
L 311.276505 139.500511 
L 311.765811 135.531743 
L 312.010464 136.805303 
L 312.255117 138.671216 
L 312.49977 141.455277 
L 312.744423 140.833306 
L 312.989076 141.988395 
L 313.478382 141.840306 
L 313.723035 137.634598 
L 313.967688 140.389041 
L 314.212341 141.54413 
L 314.456994 139.944776 
L 314.701647 139.263569 
L 314.9463 137.397656 
L 315.190953 138.819304 
L 315.435607 139.174716 
L 315.68026 135.354037 
L 315.924913 135.946391 
L 316.169566 136.153714 
L 316.658872 144.180102 
L 316.903525 144.091249 
L 317.148178 150.192488 
L 317.392831 150.725606 
L 317.637484 150.636753 
L 317.882137 152.058401 
L 318.371443 151.762224 
L 318.616096 147.023398 
L 318.860749 145.749838 
L 319.105402 143.498895 
L 319.350055 145.838691 
L 319.594708 144.357808 
L 320.084014 145.779456 
L 320.328667 145.957162 
L 320.57332 142.373424 
L 320.817973 142.728836 
L 321.307279 142.55113 
L 321.551932 146.046015 
L 321.796585 144.624367 
L 322.530544 153.983549 
L 322.775197 155.345962 
L 323.01985 138.582363 
L 323.264503 139.678217 
L 323.509156 141.307188 
L 323.753809 136.657215 
L 323.998462 135.650214 
L 324.243115 132.481124 
L 324.732421 136.449891 
L 324.977074 135.650214 
L 325.221727 134.287802 
L 325.46638 133.873154 
L 325.955686 140.833306 
L 326.200339 140.181717 
L 326.444992 140.6556 
L 326.689645 136.183332 
L 326.934298 134.198949 
L 327.178951 133.813919 
L 327.423604 132.421889 
L 327.668257 130.37827 
L 327.91291 122.648059 
L 328.157563 127.890386 
L 328.402216 128.21618 
L 328.646869 126.350267 
L 328.891522 131.296417 
L 329.136175 127.298032 
L 329.625481 123.566207 
L 329.870134 120.456352 
L 330.114787 127.83115 
L 330.35944 124.365884 
L 330.848746 131.740682 
L 331.093399 132.184947 
L 331.338052 131.000241 
L 331.582705 130.822535 
L 331.827358 124.66206 
L 332.072011 124.040089 
L 332.316664 126.172561 
L 332.561317 126.498355 
L 333.050623 128.927004 
L 333.539929 141.396041 
L 333.784582 144.505896 
L 334.029235 141.099865 
L 334.763194 148.830075 
L 335.007847 149.303958 
L 335.2525 151.021782 
L 335.497153 150.103635 
L 335.741806 150.518282 
L 336.475765 132.984624 
L 336.720418 135.472508 
L 336.965071 136.272185 
L 337.209724 135.502126 
L 337.454377 136.627597 
L 337.69903 133.754684 
L 337.943684 132.540359 
L 338.188337 128.660445 
L 338.677643 132.806918 
L 338.922296 132.15533 
L 339.166949 132.362653 
L 339.656255 123.951236 
L 339.900908 139.500511 
L 340.390214 133.991625 
L 340.634867 136.538744 
L 340.87952 137.664215 
L 341.368826 136.183332 
L 341.613479 101.589899 
L 341.858132 99.605515 
L 342.347438 91.43104 
L 342.592091 91.756834 
L 342.836744 90.275951 
L 343.081397 91.253334 
L 343.32605 91.134863 
L 343.570703 91.727216 
L 343.815356 89.180097 
L 344.060009 88.054626 
L 344.304662 88.232332 
L 344.549315 93.474659 
L 344.793968 91.312569 
L 345.038621 92.053011 
L 345.283274 94.007777 
L 345.527927 90.868304 
L 345.77258 92.053011 
L 346.017233 91.401422 
L 346.261886 93.504276 
L 346.751192 92.497276 
L 346.995845 92.586129 
L 347.240498 92.230717 
L 347.485151 91.579128 
L 347.729804 90.127862 
L 347.974457 86.188713 
L 348.21911 86.98839 
L 348.463763 83.997006 
L 348.708416 83.108476 
L 348.953069 88.410038 
L 349.197722 88.350802 
L 349.442375 84.944771 
L 349.687028 84.8263 
L 349.931681 87.551125 
L 350.420987 85.774066 
L 350.66564 85.981389 
L 350.910293 85.270565 
L 351.154946 85.951771 
L 351.644252 94.925924 
L 351.888905 95.310954 
L 352.133558 97.324955 
L 352.378211 97.236102 
L 352.622864 95.725601 
L 352.867517 95.222101 
L 353.11217 98.065397 
L 353.356823 97.088014 
L 353.846129 98.035779 
L 354.090782 96.554896 
L 354.335435 96.49566 
L 354.580088 79.702444 
L 354.824741 80.087474 
L 355.314047 83.197329 
L 355.5587 87.373419 
L 355.803353 88.350802 
L 356.048006 85.71483 
L 356.292659 87.462272 
L 356.537312 86.60336 
L 356.781965 84.145094 
L 357.026618 85.477889 
L 357.271271 81.212945 
L 357.515924 79.347032 
L 357.760577 80.650209 
L 358.00523 80.679827 
L 358.249883 80.916768 
L 358.494536 81.716445 
L 358.739189 86.307183 
L 358.983842 86.129477 
L 359.228495 81.627592 
L 359.473148 81.005621 
L 359.717801 81.834916 
L 359.962454 73.008852 
L 360.207107 72.386881 
L 360.696414 72.179557 
L 361.430373 63.531199 
L 361.675026 61.635668 
L 361.919679 61.043315 
L 362.164332 59.858608 
L 362.408985 59.532814 
L 362.653638 61.339492 
L 362.898291 59.740138 
L 363.142944 54.823605 
L 363.387597 57.163401 
L 363.63225 58.111166 
L 363.876903 56.186018 
L 364.121556 51.269485 
L 364.366209 51.032544 
L 364.610862 51.506427 
L 364.855515 53.727751 
L 365.100168 49.462808 
L 365.344821 49.670131 
L 365.589474 53.87584 
L 365.834127 52.691133 
L 366.07878 54.942076 
L 366.323433 50.647514 
L 366.568086 52.928075 
L 366.812739 49.196249 
L 367.057392 51.802603 
L 367.302045 49.403572 
L 367.791351 48.307719 
L 368.036004 46.323335 
L 368.280657 49.966308 
L 368.52531 45.819835 
L 368.769963 46.708365 
L 369.259269 43.154245 
L 369.748575 37.497271 
L 369.993228 69.928614 
L 370.237881 66.019083 
L 370.482534 66.670671 
L 370.727187 65.071317 
L 370.97184 67.736907 
L 371.461146 67.114936 
L 371.950452 73.068087 
L 372.439758 75.792912 
L 373.173717 91.194098 
L 373.41837 91.993775 
L 373.663023 89.950156 
L 373.907676 89.683597 
L 374.152329 87.817684 
L 374.641635 98.035779 
L 374.886288 100.020163 
L 375.130941 100.879075 
L 375.375594 102.744988 
L 375.620247 99.398192 
L 375.8649 98.953927 
L 376.109553 100.642134 
L 376.354206 100.04978 
L 376.598859 98.716985 
L 376.843512 89.920539 
L 377.088165 89.65398 
L 377.577471 103.515047 
L 377.822124 106.447196 
L 378.31143 97.176867 
L 378.556083 99.783221 
L 378.800736 96.702984 
L 379.045389 99.338956 
L 379.290042 100.020163 
L 379.534695 104.758989 
L 379.779348 99.575898 
L 380.024001 98.006161 
L 380.268654 100.020163 
L 380.513307 96.169866 
L 380.75796 94.807453 
L 381.002613 92.378805 
L 381.491919 93.593129 
L 381.736572 91.638363 
L 381.981225 91.697599 
L 382.225878 91.93454 
L 382.470531 91.608746 
L 382.715184 94.866689 
L 382.959838 95.814454 
L 383.204491 94.748218 
L 383.449144 96.021778 
L 383.693797 94.777836 
L 384.183103 94.748218 
L 384.427756 93.237717 
L 384.672409 94.925924 
L 384.917062 94.452041 
L 385.161715 94.60013 
L 385.406368 90.098245 
L 385.651021 115.095554 
L 385.895674 105.588284 
L 386.140327 101.32334 
L 386.38498 99.753604 
L 386.629633 93.2081 
L 386.874286 98.15425 
L 387.363592 112.963082 
L 387.608245 115.510202 
L 387.852898 112.311494 
L 387.852898 112.311494 
" style="fill:none;stroke:#ff7f0e;stroke-linecap:square;stroke-width:1.5;"/>
   </g>
   <g id="patch_3">
    <path d="M 46.965625 288.430125 
L 46.965625 22.318125 
" style="fill:none;stroke:#000000;stroke-linecap:square;stroke-linejoin:miter;stroke-width:0.8;"/>
   </g>
   <g id="patch_4">
    <path d="M 404.085625 288.430125 
L 404.085625 22.318125 
" style="fill:none;stroke:#000000;stroke-linecap:square;stroke-linejoin:miter;stroke-width:0.8;"/>
   </g>
   <g id="patch_5">
    <path d="M 46.965625 288.430125 
L 404.085625 288.430125 
" style="fill:none;stroke:#000000;stroke-linecap:square;stroke-linejoin:miter;stroke-width:0.8;"/>
   </g>
   <g id="patch_6">
    <path d="M 46.965625 22.318125 
L 404.085625 22.318125 
" style="fill:none;stroke:#000000;stroke-linecap:square;stroke-linejoin:miter;stroke-width:0.8;"/>
   </g>
   <g id="text_19">
    <!-- Training: HAS -->
    <defs>
     <path d="M -0.296875 72.90625 
L 61.375 72.90625 
L 61.375 64.59375 
L 35.5 64.59375 
L 35.5 0 
L 25.59375 0 
L 25.59375 64.59375 
L -0.296875 64.59375 
z
" id="DejaVuSans-84"/>
     <path d="M 54.890625 33.015625 
L 54.890625 0 
L 45.90625 0 
L 45.90625 32.71875 
Q 45.90625 40.484375 42.875 44.328125 
Q 39.84375 48.1875 33.796875 48.1875 
Q 26.515625 48.1875 22.3125 43.546875 
Q 18.109375 38.921875 18.109375 30.90625 
L 18.109375 0 
L 9.078125 0 
L 9.078125 54.6875 
L 18.109375 54.6875 
L 18.109375 46.1875 
Q 21.34375 51.125 25.703125 53.5625 
Q 30.078125 56 35.796875 56 
Q 45.21875 56 50.046875 50.171875 
Q 54.890625 44.34375 54.890625 33.015625 
z
" id="DejaVuSans-110"/>
     <path d="M 45.40625 27.984375 
Q 45.40625 37.75 41.375 43.109375 
Q 37.359375 48.484375 30.078125 48.484375 
Q 22.859375 48.484375 18.828125 43.109375 
Q 14.796875 37.75 14.796875 27.984375 
Q 14.796875 18.265625 18.828125 12.890625 
Q 22.859375 7.515625 30.078125 7.515625 
Q 37.359375 7.515625 41.375 12.890625 
Q 45.40625 18.265625 45.40625 27.984375 
z
M 54.390625 6.78125 
Q 54.390625 -7.171875 48.1875 -13.984375 
Q 42 -20.796875 29.203125 -20.796875 
Q 24.46875 -20.796875 20.265625 -20.09375 
Q 16.0625 -19.390625 12.109375 -17.921875 
L 12.109375 -9.1875 
Q 16.0625 -11.328125 19.921875 -12.34375 
Q 23.78125 -13.375 27.78125 -13.375 
Q 36.625 -13.375 41.015625 -8.765625 
Q 45.40625 -4.15625 45.40625 5.171875 
L 45.40625 9.625 
Q 42.625 4.78125 38.28125 2.390625 
Q 33.9375 0 27.875 0 
Q 17.828125 0 11.671875 7.65625 
Q 5.515625 15.328125 5.515625 27.984375 
Q 5.515625 40.671875 11.671875 48.328125 
Q 17.828125 56 27.875 56 
Q 33.9375 56 38.28125 53.609375 
Q 42.625 51.21875 45.40625 46.390625 
L 45.40625 54.6875 
L 54.390625 54.6875 
z
" id="DejaVuSans-103"/>
     <path d="M 11.71875 12.40625 
L 22.015625 12.40625 
L 22.015625 0 
L 11.71875 0 
z
M 11.71875 51.703125 
L 22.015625 51.703125 
L 22.015625 39.3125 
L 11.71875 39.3125 
z
" id="DejaVuSans-58"/>
     <path d="M 9.8125 72.90625 
L 19.671875 72.90625 
L 19.671875 43.015625 
L 55.515625 43.015625 
L 55.515625 72.90625 
L 65.375 72.90625 
L 65.375 0 
L 55.515625 0 
L 55.515625 34.71875 
L 19.671875 34.71875 
L 19.671875 0 
L 9.8125 0 
z
" id="DejaVuSans-72"/>
     <path d="M 34.1875 63.1875 
L 20.796875 26.90625 
L 47.609375 26.90625 
z
M 28.609375 72.90625 
L 39.796875 72.90625 
L 67.578125 0 
L 57.328125 0 
L 50.6875 18.703125 
L 17.828125 18.703125 
L 11.1875 0 
L 0.78125 0 
z
" id="DejaVuSans-65"/>
     <path d="M 53.515625 70.515625 
L 53.515625 60.890625 
Q 47.90625 63.578125 42.921875 64.890625 
Q 37.9375 66.21875 33.296875 66.21875 
Q 25.25 66.21875 20.875 63.09375 
Q 16.5 59.96875 16.5 54.203125 
Q 16.5 49.359375 19.40625 46.890625 
Q 22.3125 44.4375 30.421875 42.921875 
L 36.375 41.703125 
Q 47.40625 39.59375 52.65625 34.296875 
Q 57.90625 29 57.90625 20.125 
Q 57.90625 9.515625 50.796875 4.046875 
Q 43.703125 -1.421875 29.984375 -1.421875 
Q 24.8125 -1.421875 18.96875 -0.25 
Q 13.140625 0.921875 6.890625 3.21875 
L 6.890625 13.375 
Q 12.890625 10.015625 18.65625 8.296875 
Q 24.421875 6.59375 29.984375 6.59375 
Q 38.421875 6.59375 43.015625 9.90625 
Q 47.609375 13.234375 47.609375 19.390625 
Q 47.609375 24.75 44.3125 27.78125 
Q 41.015625 30.8125 33.5 32.328125 
L 27.484375 33.5 
Q 16.453125 35.6875 11.515625 40.375 
Q 6.59375 45.0625 6.59375 53.421875 
Q 6.59375 63.09375 13.40625 68.65625 
Q 20.21875 74.21875 32.171875 74.21875 
Q 37.3125 74.21875 42.625 73.28125 
Q 47.953125 72.359375 53.515625 70.515625 
z
" id="DejaVuSans-83"/>
    </defs>
    <g transform="translate(185.500938 16.318125)scale(0.12 -0.12)">
     <use xlink:href="#DejaVuSans-84"/>
     <use x="46.333984" xlink:href="#DejaVuSans-114"/>
     <use x="87.447266" xlink:href="#DejaVuSans-97"/>
     <use x="148.726562" xlink:href="#DejaVuSans-105"/>
     <use x="176.509766" xlink:href="#DejaVuSans-110"/>
     <use x="239.888672" xlink:href="#DejaVuSans-105"/>
     <use x="267.671875" xlink:href="#DejaVuSans-110"/>
     <use x="331.050781" xlink:href="#DejaVuSans-103"/>
     <use x="394.527344" xlink:href="#DejaVuSans-58"/>
     <use x="428.21875" xlink:href="#DejaVuSans-32"/>
     <use x="460.005859" xlink:href="#DejaVuSans-72"/>
     <use x="535.201172" xlink:href="#DejaVuSans-65"/>
     <use x="603.609375" xlink:href="#DejaVuSans-83"/>
    </g>
   </g>
   <g id="legend_1">
    <g id="patch_7">
     <path d="M 53.965625 59.674375 
L 137.69375 59.674375 
Q 139.69375 59.674375 139.69375 57.674375 
L 139.69375 29.318125 
Q 139.69375 27.318125 137.69375 27.318125 
L 53.965625 27.318125 
Q 51.965625 27.318125 51.965625 29.318125 
L 51.965625 57.674375 
Q 51.965625 59.674375 53.965625 59.674375 
z
" style="fill:#ffffff;opacity:0.8;stroke:#cccccc;stroke-linejoin:miter;"/>
    </g>
    <g id="line2d_35">
     <path d="M 55.965625 35.416562 
L 75.965625 35.416562 
" style="fill:none;stroke:#1f77b4;stroke-linecap:square;stroke-width:1.5;"/>
    </g>
    <g id="line2d_36"/>
    <g id="text_20">
     <!-- Predicted -->
     <defs>
      <path d="M 45.40625 46.390625 
L 45.40625 75.984375 
L 54.390625 75.984375 
L 54.390625 0 
L 45.40625 0 
L 45.40625 8.203125 
Q 42.578125 3.328125 38.25 0.953125 
Q 33.9375 -1.421875 27.875 -1.421875 
Q 17.96875 -1.421875 11.734375 6.484375 
Q 5.515625 14.40625 5.515625 27.296875 
Q 5.515625 40.1875 11.734375 48.09375 
Q 17.96875 56 27.875 56 
Q 33.9375 56 38.25 53.625 
Q 42.578125 51.265625 45.40625 46.390625 
z
M 14.796875 27.296875 
Q 14.796875 17.390625 18.875 11.75 
Q 22.953125 6.109375 30.078125 6.109375 
Q 37.203125 6.109375 41.296875 11.75 
Q 45.40625 17.390625 45.40625 27.296875 
Q 45.40625 37.203125 41.296875 42.84375 
Q 37.203125 48.484375 30.078125 48.484375 
Q 22.953125 48.484375 18.875 42.84375 
Q 14.796875 37.203125 14.796875 27.296875 
z
" id="DejaVuSans-100"/>
      <path d="M 18.3125 70.21875 
L 18.3125 54.6875 
L 36.8125 54.6875 
L 36.8125 47.703125 
L 18.3125 47.703125 
L 18.3125 18.015625 
Q 18.3125 11.328125 20.140625 9.421875 
Q 21.96875 7.515625 27.59375 7.515625 
L 36.8125 7.515625 
L 36.8125 0 
L 27.59375 0 
Q 17.1875 0 13.234375 3.875 
Q 9.28125 7.765625 9.28125 18.015625 
L 9.28125 47.703125 
L 2.6875 47.703125 
L 2.6875 54.6875 
L 9.28125 54.6875 
L 9.28125 70.21875 
z
" id="DejaVuSans-116"/>
     </defs>
     <g transform="translate(83.965625 38.916562)scale(0.1 -0.1)">
      <use xlink:href="#DejaVuSans-80"/>
      <use x="58.552734" xlink:href="#DejaVuSans-114"/>
      <use x="97.416016" xlink:href="#DejaVuSans-101"/>
      <use x="158.939453" xlink:href="#DejaVuSans-100"/>
      <use x="222.416016" xlink:href="#DejaVuSans-105"/>
      <use x="250.199219" xlink:href="#DejaVuSans-99"/>
      <use x="305.179688" xlink:href="#DejaVuSans-116"/>
      <use x="344.388672" xlink:href="#DejaVuSans-101"/>
      <use x="405.912109" xlink:href="#DejaVuSans-100"/>
     </g>
    </g>
    <g id="line2d_37">
     <path d="M 55.965625 50.094687 
L 75.965625 50.094687 
" style="fill:none;stroke:#ff7f0e;stroke-linecap:square;stroke-width:1.5;"/>
    </g>
    <g id="line2d_38"/>
    <g id="text_21">
     <!-- True value -->
     <defs>
      <path d="M 8.5 21.578125 
L 8.5 54.6875 
L 17.484375 54.6875 
L 17.484375 21.921875 
Q 17.484375 14.15625 20.5 10.265625 
Q 23.53125 6.390625 29.59375 6.390625 
Q 36.859375 6.390625 41.078125 11.03125 
Q 45.3125 15.671875 45.3125 23.6875 
L 45.3125 54.6875 
L 54.296875 54.6875 
L 54.296875 0 
L 45.3125 0 
L 45.3125 8.40625 
Q 42.046875 3.421875 37.71875 1 
Q 33.40625 -1.421875 27.6875 -1.421875 
Q 18.265625 -1.421875 13.375 4.4375 
Q 8.5 10.296875 8.5 21.578125 
z
M 31.109375 56 
z
" id="DejaVuSans-117"/>
      <path d="M 2.984375 54.6875 
L 12.5 54.6875 
L 29.59375 8.796875 
L 46.6875 54.6875 
L 56.203125 54.6875 
L 35.6875 0 
L 23.484375 0 
z
" id="DejaVuSans-118"/>
      <path d="M 9.421875 75.984375 
L 18.40625 75.984375 
L 18.40625 0 
L 9.421875 0 
z
" id="DejaVuSans-108"/>
     </defs>
     <g transform="translate(83.965625 53.594687)scale(0.1 -0.1)">
      <use xlink:href="#DejaVuSans-84"/>
      <use x="46.333984" xlink:href="#DejaVuSans-114"/>
      <use x="87.447266" xlink:href="#DejaVuSans-117"/>
      <use x="150.826172" xlink:href="#DejaVuSans-101"/>
      <use x="212.349609" xlink:href="#DejaVuSans-32"/>
      <use x="244.136719" xlink:href="#DejaVuSans-118"/>
      <use x="303.316406" xlink:href="#DejaVuSans-97"/>
      <use x="364.595703" xlink:href="#DejaVuSans-108"/>
      <use x="392.378906" xlink:href="#DejaVuSans-117"/>
      <use x="455.757812" xlink:href="#DejaVuSans-101"/>
     </g>
    </g>
   </g>
  </g>
 </g>
 <defs>
  <clipPath id="p9856c71652">
   <rect height="266.112" width="357.12" x="46.965625" y="22.318125"/>
  </clipPath>
 </defs>
</svg>
