<?xml version="1.0" encoding="utf-8" standalone="no"?>
<!DOCTYPE svg PUBLIC "-//W3C//DTD SVG 1.1//EN"
  "http://www.w3.org/Graphics/SVG/1.1/DTD/svg11.dtd">
<!-- Created with matplotlib (https://matplotlib.org/) -->
<svg height="325.986375pt" version="1.1" viewBox="0 0 404.923125 325.986375" width="404.923125pt" xmlns="http://www.w3.org/2000/svg" xmlns:xlink="http://www.w3.org/1999/xlink">
 <defs>
  <style type="text/css">
*{stroke-linecap:butt;stroke-linejoin:round;}
  </style>
 </defs>
 <g id="figure_1">
  <g id="patch_1">
   <path d="M 0 325.986375 
L 404.923125 325.986375 
L 404.923125 0 
L 0 0 
z
" style="fill:#ffffff;"/>
  </g>
  <g id="axes_1">
   <g id="patch_2">
    <path d="M 40.603125 288.430125 
L 397.723125 288.430125 
L 397.723125 22.318125 
L 40.603125 22.318125 
z
" style="fill:#ffffff;"/>
   </g>
   <g id="matplotlib.axis_1">
    <g id="xtick_1">
     <g id="line2d_1">
      <path clip-path="url(#pfab5fda427)" d="M 56.835852 288.430125 
L 56.835852 22.318125 
" style="fill:none;stroke:#b0b0b0;stroke-dasharray:2.96,1.28;stroke-dashoffset:0;stroke-width:0.8;"/>
     </g>
     <g id="line2d_2">
      <defs>
       <path d="M 0 0 
L 0 3.5 
" id="ma384612ea6" style="stroke:#000000;stroke-width:0.8;"/>
      </defs>
      <g>
       <use style="stroke:#000000;stroke-width:0.8;" x="56.835852" xlink:href="#ma384612ea6" y="288.430125"/>
      </g>
     </g>
     <g id="text_1">
      <!-- 0 -->
      <defs>
       <path d="M 31.78125 66.40625 
Q 24.171875 66.40625 20.328125 58.90625 
Q 16.5 51.421875 16.5 36.375 
Q 16.5 21.390625 20.328125 13.890625 
Q 24.171875 6.390625 31.78125 6.390625 
Q 39.453125 6.390625 43.28125 13.890625 
Q 47.125 21.390625 47.125 36.375 
Q 47.125 51.421875 43.28125 58.90625 
Q 39.453125 66.40625 31.78125 66.40625 
z
M 31.78125 74.21875 
Q 44.046875 74.21875 50.515625 64.515625 
Q 56.984375 54.828125 56.984375 36.375 
Q 56.984375 17.96875 50.515625 8.265625 
Q 44.046875 -1.421875 31.78125 -1.421875 
Q 19.53125 -1.421875 13.0625 8.265625 
Q 6.59375 17.96875 6.59375 36.375 
Q 6.59375 54.828125 13.0625 64.515625 
Q 19.53125 74.21875 31.78125 74.21875 
z
" id="DejaVuSans-48"/>
      </defs>
      <g transform="translate(53.654602 303.028562)scale(0.1 -0.1)">
       <use xlink:href="#DejaVuSans-48"/>
      </g>
     </g>
    </g>
    <g id="xtick_2">
     <g id="line2d_3">
      <path clip-path="url(#pfab5fda427)" d="M 105.766454 288.430125 
L 105.766454 22.318125 
" style="fill:none;stroke:#b0b0b0;stroke-dasharray:2.96,1.28;stroke-dashoffset:0;stroke-width:0.8;"/>
     </g>
     <g id="line2d_4">
      <g>
       <use style="stroke:#000000;stroke-width:0.8;" x="105.766454" xlink:href="#ma384612ea6" y="288.430125"/>
      </g>
     </g>
     <g id="text_2">
      <!-- 200 -->
      <defs>
       <path d="M 19.1875 8.296875 
L 53.609375 8.296875 
L 53.609375 0 
L 7.328125 0 
L 7.328125 8.296875 
Q 12.9375 14.109375 22.625 23.890625 
Q 32.328125 33.6875 34.8125 36.53125 
Q 39.546875 41.84375 41.421875 45.53125 
Q 43.3125 49.21875 43.3125 52.78125 
Q 43.3125 58.59375 39.234375 62.25 
Q 35.15625 65.921875 28.609375 65.921875 
Q 23.96875 65.921875 18.8125 64.3125 
Q 13.671875 62.703125 7.8125 59.421875 
L 7.8125 69.390625 
Q 13.765625 71.78125 18.9375 73 
Q 24.125 74.21875 28.421875 74.21875 
Q 39.75 74.21875 46.484375 68.546875 
Q 53.21875 62.890625 53.21875 53.421875 
Q 53.21875 48.921875 51.53125 44.890625 
Q 49.859375 40.875 45.40625 35.40625 
Q 44.1875 33.984375 37.640625 27.21875 
Q 31.109375 20.453125 19.1875 8.296875 
z
" id="DejaVuSans-50"/>
      </defs>
      <g transform="translate(96.222704 303.028562)scale(0.1 -0.1)">
       <use xlink:href="#DejaVuSans-50"/>
       <use x="63.623047" xlink:href="#DejaVuSans-48"/>
       <use x="127.246094" xlink:href="#DejaVuSans-48"/>
      </g>
     </g>
    </g>
    <g id="xtick_3">
     <g id="line2d_5">
      <path clip-path="url(#pfab5fda427)" d="M 154.697057 288.430125 
L 154.697057 22.318125 
" style="fill:none;stroke:#b0b0b0;stroke-dasharray:2.96,1.28;stroke-dashoffset:0;stroke-width:0.8;"/>
     </g>
     <g id="line2d_6">
      <g>
       <use style="stroke:#000000;stroke-width:0.8;" x="154.697057" xlink:href="#ma384612ea6" y="288.430125"/>
      </g>
     </g>
     <g id="text_3">
      <!-- 400 -->
      <defs>
       <path d="M 37.796875 64.3125 
L 12.890625 25.390625 
L 37.796875 25.390625 
z
M 35.203125 72.90625 
L 47.609375 72.90625 
L 47.609375 25.390625 
L 58.015625 25.390625 
L 58.015625 17.1875 
L 47.609375 17.1875 
L 47.609375 0 
L 37.796875 0 
L 37.796875 17.1875 
L 4.890625 17.1875 
L 4.890625 26.703125 
z
" id="DejaVuSans-52"/>
      </defs>
      <g transform="translate(145.153307 303.028562)scale(0.1 -0.1)">
       <use xlink:href="#DejaVuSans-52"/>
       <use x="63.623047" xlink:href="#DejaVuSans-48"/>
       <use x="127.246094" xlink:href="#DejaVuSans-48"/>
      </g>
     </g>
    </g>
    <g id="xtick_4">
     <g id="line2d_7">
      <path clip-path="url(#pfab5fda427)" d="M 203.627659 288.430125 
L 203.627659 22.318125 
" style="fill:none;stroke:#b0b0b0;stroke-dasharray:2.96,1.28;stroke-dashoffset:0;stroke-width:0.8;"/>
     </g>
     <g id="line2d_8">
      <g>
       <use style="stroke:#000000;stroke-width:0.8;" x="203.627659" xlink:href="#ma384612ea6" y="288.430125"/>
      </g>
     </g>
     <g id="text_4">
      <!-- 600 -->
      <defs>
       <path d="M 33.015625 40.375 
Q 26.375 40.375 22.484375 35.828125 
Q 18.609375 31.296875 18.609375 23.390625 
Q 18.609375 15.53125 22.484375 10.953125 
Q 26.375 6.390625 33.015625 6.390625 
Q 39.65625 6.390625 43.53125 10.953125 
Q 47.40625 15.53125 47.40625 23.390625 
Q 47.40625 31.296875 43.53125 35.828125 
Q 39.65625 40.375 33.015625 40.375 
z
M 52.59375 71.296875 
L 52.59375 62.3125 
Q 48.875 64.0625 45.09375 64.984375 
Q 41.3125 65.921875 37.59375 65.921875 
Q 27.828125 65.921875 22.671875 59.328125 
Q 17.53125 52.734375 16.796875 39.40625 
Q 19.671875 43.65625 24.015625 45.921875 
Q 28.375 48.1875 33.59375 48.1875 
Q 44.578125 48.1875 50.953125 41.515625 
Q 57.328125 34.859375 57.328125 23.390625 
Q 57.328125 12.15625 50.6875 5.359375 
Q 44.046875 -1.421875 33.015625 -1.421875 
Q 20.359375 -1.421875 13.671875 8.265625 
Q 6.984375 17.96875 6.984375 36.375 
Q 6.984375 53.65625 15.1875 63.9375 
Q 23.390625 74.21875 37.203125 74.21875 
Q 40.921875 74.21875 44.703125 73.484375 
Q 48.484375 72.75 52.59375 71.296875 
z
" id="DejaVuSans-54"/>
      </defs>
      <g transform="translate(194.083909 303.028562)scale(0.1 -0.1)">
       <use xlink:href="#DejaVuSans-54"/>
       <use x="63.623047" xlink:href="#DejaVuSans-48"/>
       <use x="127.246094" xlink:href="#DejaVuSans-48"/>
      </g>
     </g>
    </g>
    <g id="xtick_5">
     <g id="line2d_9">
      <path clip-path="url(#pfab5fda427)" d="M 252.558261 288.430125 
L 252.558261 22.318125 
" style="fill:none;stroke:#b0b0b0;stroke-dasharray:2.96,1.28;stroke-dashoffset:0;stroke-width:0.8;"/>
     </g>
     <g id="line2d_10">
      <g>
       <use style="stroke:#000000;stroke-width:0.8;" x="252.558261" xlink:href="#ma384612ea6" y="288.430125"/>
      </g>
     </g>
     <g id="text_5">
      <!-- 800 -->
      <defs>
       <path d="M 31.78125 34.625 
Q 24.75 34.625 20.71875 30.859375 
Q 16.703125 27.09375 16.703125 20.515625 
Q 16.703125 13.921875 20.71875 10.15625 
Q 24.75 6.390625 31.78125 6.390625 
Q 38.8125 6.390625 42.859375 10.171875 
Q 46.921875 13.96875 46.921875 20.515625 
Q 46.921875 27.09375 42.890625 30.859375 
Q 38.875 34.625 31.78125 34.625 
z
M 21.921875 38.8125 
Q 15.578125 40.375 12.03125 44.71875 
Q 8.5 49.078125 8.5 55.328125 
Q 8.5 64.0625 14.71875 69.140625 
Q 20.953125 74.21875 31.78125 74.21875 
Q 42.671875 74.21875 48.875 69.140625 
Q 55.078125 64.0625 55.078125 55.328125 
Q 55.078125 49.078125 51.53125 44.71875 
Q 48 40.375 41.703125 38.8125 
Q 48.828125 37.15625 52.796875 32.3125 
Q 56.78125 27.484375 56.78125 20.515625 
Q 56.78125 9.90625 50.3125 4.234375 
Q 43.84375 -1.421875 31.78125 -1.421875 
Q 19.734375 -1.421875 13.25 4.234375 
Q 6.78125 9.90625 6.78125 20.515625 
Q 6.78125 27.484375 10.78125 32.3125 
Q 14.796875 37.15625 21.921875 38.8125 
z
M 18.3125 54.390625 
Q 18.3125 48.734375 21.84375 45.5625 
Q 25.390625 42.390625 31.78125 42.390625 
Q 38.140625 42.390625 41.71875 45.5625 
Q 45.3125 48.734375 45.3125 54.390625 
Q 45.3125 60.0625 41.71875 63.234375 
Q 38.140625 66.40625 31.78125 66.40625 
Q 25.390625 66.40625 21.84375 63.234375 
Q 18.3125 60.0625 18.3125 54.390625 
z
" id="DejaVuSans-56"/>
      </defs>
      <g transform="translate(243.014511 303.028562)scale(0.1 -0.1)">
       <use xlink:href="#DejaVuSans-56"/>
       <use x="63.623047" xlink:href="#DejaVuSans-48"/>
       <use x="127.246094" xlink:href="#DejaVuSans-48"/>
      </g>
     </g>
    </g>
    <g id="xtick_6">
     <g id="line2d_11">
      <path clip-path="url(#pfab5fda427)" d="M 301.488863 288.430125 
L 301.488863 22.318125 
" style="fill:none;stroke:#b0b0b0;stroke-dasharray:2.96,1.28;stroke-dashoffset:0;stroke-width:0.8;"/>
     </g>
     <g id="line2d_12">
      <g>
       <use style="stroke:#000000;stroke-width:0.8;" x="301.488863" xlink:href="#ma384612ea6" y="288.430125"/>
      </g>
     </g>
     <g id="text_6">
      <!-- 1000 -->
      <defs>
       <path d="M 12.40625 8.296875 
L 28.515625 8.296875 
L 28.515625 63.921875 
L 10.984375 60.40625 
L 10.984375 69.390625 
L 28.421875 72.90625 
L 38.28125 72.90625 
L 38.28125 8.296875 
L 54.390625 8.296875 
L 54.390625 0 
L 12.40625 0 
z
" id="DejaVuSans-49"/>
      </defs>
      <g transform="translate(288.763863 303.028562)scale(0.1 -0.1)">
       <use xlink:href="#DejaVuSans-49"/>
       <use x="63.623047" xlink:href="#DejaVuSans-48"/>
       <use x="127.246094" xlink:href="#DejaVuSans-48"/>
       <use x="190.869141" xlink:href="#DejaVuSans-48"/>
      </g>
     </g>
    </g>
    <g id="xtick_7">
     <g id="line2d_13">
      <path clip-path="url(#pfab5fda427)" d="M 350.419465 288.430125 
L 350.419465 22.318125 
" style="fill:none;stroke:#b0b0b0;stroke-dasharray:2.96,1.28;stroke-dashoffset:0;stroke-width:0.8;"/>
     </g>
     <g id="line2d_14">
      <g>
       <use style="stroke:#000000;stroke-width:0.8;" x="350.419465" xlink:href="#ma384612ea6" y="288.430125"/>
      </g>
     </g>
     <g id="text_7">
      <!-- 1200 -->
      <g transform="translate(337.694465 303.028562)scale(0.1 -0.1)">
       <use xlink:href="#DejaVuSans-49"/>
       <use x="63.623047" xlink:href="#DejaVuSans-50"/>
       <use x="127.246094" xlink:href="#DejaVuSans-48"/>
       <use x="190.869141" xlink:href="#DejaVuSans-48"/>
      </g>
     </g>
    </g>
    <g id="text_8">
     <!-- Day -->
     <defs>
      <path d="M 19.671875 64.796875 
L 19.671875 8.109375 
L 31.59375 8.109375 
Q 46.6875 8.109375 53.6875 14.9375 
Q 60.6875 21.78125 60.6875 36.53125 
Q 60.6875 51.171875 53.6875 57.984375 
Q 46.6875 64.796875 31.59375 64.796875 
z
M 9.8125 72.90625 
L 30.078125 72.90625 
Q 51.265625 72.90625 61.171875 64.09375 
Q 71.09375 55.28125 71.09375 36.53125 
Q 71.09375 17.671875 61.125 8.828125 
Q 51.171875 0 30.078125 0 
L 9.8125 0 
z
" id="DejaVuSans-68"/>
      <path d="M 34.28125 27.484375 
Q 23.390625 27.484375 19.1875 25 
Q 14.984375 22.515625 14.984375 16.5 
Q 14.984375 11.71875 18.140625 8.90625 
Q 21.296875 6.109375 26.703125 6.109375 
Q 34.1875 6.109375 38.703125 11.40625 
Q 43.21875 16.703125 43.21875 25.484375 
L 43.21875 27.484375 
z
M 52.203125 31.203125 
L 52.203125 0 
L 43.21875 0 
L 43.21875 8.296875 
Q 40.140625 3.328125 35.546875 0.953125 
Q 30.953125 -1.421875 24.3125 -1.421875 
Q 15.921875 -1.421875 10.953125 3.296875 
Q 6 8.015625 6 15.921875 
Q 6 25.140625 12.171875 29.828125 
Q 18.359375 34.515625 30.609375 34.515625 
L 43.21875 34.515625 
L 43.21875 35.40625 
Q 43.21875 41.609375 39.140625 45 
Q 35.0625 48.390625 27.6875 48.390625 
Q 23 48.390625 18.546875 47.265625 
Q 14.109375 46.140625 10.015625 43.890625 
L 10.015625 52.203125 
Q 14.9375 54.109375 19.578125 55.046875 
Q 24.21875 56 28.609375 56 
Q 40.484375 56 46.34375 49.84375 
Q 52.203125 43.703125 52.203125 31.203125 
z
" id="DejaVuSans-97"/>
      <path d="M 32.171875 -5.078125 
Q 28.375 -14.84375 24.75 -17.8125 
Q 21.140625 -20.796875 15.09375 -20.796875 
L 7.90625 -20.796875 
L 7.90625 -13.28125 
L 13.1875 -13.28125 
Q 16.890625 -13.28125 18.9375 -11.515625 
Q 21 -9.765625 23.484375 -3.21875 
L 25.09375 0.875 
L 2.984375 54.6875 
L 12.5 54.6875 
L 29.59375 11.921875 
L 46.6875 54.6875 
L 56.203125 54.6875 
z
" id="DejaVuSans-121"/>
     </defs>
     <g transform="translate(209.289688 316.706687)scale(0.1 -0.1)">
      <use xlink:href="#DejaVuSans-68"/>
      <use x="77.001953" xlink:href="#DejaVuSans-97"/>
      <use x="138.28125" xlink:href="#DejaVuSans-121"/>
     </g>
    </g>
   </g>
   <g id="matplotlib.axis_2">
    <g id="ytick_1">
     <g id="line2d_15">
      <path clip-path="url(#pfab5fda427)" d="M 40.603125 278.763793 
L 397.723125 278.763793 
" style="fill:none;stroke:#b0b0b0;stroke-dasharray:2.96,1.28;stroke-dashoffset:0;stroke-width:0.8;"/>
     </g>
     <g id="line2d_16">
      <defs>
       <path d="M 0 0 
L -3.5 0 
" id="m4e967a1b82" style="stroke:#000000;stroke-width:0.8;"/>
      </defs>
      <g>
       <use style="stroke:#000000;stroke-width:0.8;" x="40.603125" xlink:href="#m4e967a1b82" y="278.763793"/>
      </g>
     </g>
     <g id="text_9">
      <!-- 10 -->
      <g transform="translate(20.878125 282.563012)scale(0.1 -0.1)">
       <use xlink:href="#DejaVuSans-49"/>
       <use x="63.623047" xlink:href="#DejaVuSans-48"/>
      </g>
     </g>
    </g>
    <g id="ytick_2">
     <g id="line2d_17">
      <path clip-path="url(#pfab5fda427)" d="M 40.603125 235.376862 
L 397.723125 235.376862 
" style="fill:none;stroke:#b0b0b0;stroke-dasharray:2.96,1.28;stroke-dashoffset:0;stroke-width:0.8;"/>
     </g>
     <g id="line2d_18">
      <g>
       <use style="stroke:#000000;stroke-width:0.8;" x="40.603125" xlink:href="#m4e967a1b82" y="235.376862"/>
      </g>
     </g>
     <g id="text_10">
      <!-- 20 -->
      <g transform="translate(20.878125 239.176081)scale(0.1 -0.1)">
       <use xlink:href="#DejaVuSans-50"/>
       <use x="63.623047" xlink:href="#DejaVuSans-48"/>
      </g>
     </g>
    </g>
    <g id="ytick_3">
     <g id="line2d_19">
      <path clip-path="url(#pfab5fda427)" d="M 40.603125 191.98993 
L 397.723125 191.98993 
" style="fill:none;stroke:#b0b0b0;stroke-dasharray:2.96,1.28;stroke-dashoffset:0;stroke-width:0.8;"/>
     </g>
     <g id="line2d_20">
      <g>
       <use style="stroke:#000000;stroke-width:0.8;" x="40.603125" xlink:href="#m4e967a1b82" y="191.98993"/>
      </g>
     </g>
     <g id="text_11">
      <!-- 30 -->
      <defs>
       <path d="M 40.578125 39.3125 
Q 47.65625 37.796875 51.625 33 
Q 55.609375 28.21875 55.609375 21.1875 
Q 55.609375 10.40625 48.1875 4.484375 
Q 40.765625 -1.421875 27.09375 -1.421875 
Q 22.515625 -1.421875 17.65625 -0.515625 
Q 12.796875 0.390625 7.625 2.203125 
L 7.625 11.71875 
Q 11.71875 9.328125 16.59375 8.109375 
Q 21.484375 6.890625 26.8125 6.890625 
Q 36.078125 6.890625 40.9375 10.546875 
Q 45.796875 14.203125 45.796875 21.1875 
Q 45.796875 27.640625 41.28125 31.265625 
Q 36.765625 34.90625 28.71875 34.90625 
L 20.21875 34.90625 
L 20.21875 43.015625 
L 29.109375 43.015625 
Q 36.375 43.015625 40.234375 45.921875 
Q 44.09375 48.828125 44.09375 54.296875 
Q 44.09375 59.90625 40.109375 62.90625 
Q 36.140625 65.921875 28.71875 65.921875 
Q 24.65625 65.921875 20.015625 65.03125 
Q 15.375 64.15625 9.8125 62.3125 
L 9.8125 71.09375 
Q 15.4375 72.65625 20.34375 73.4375 
Q 25.25 74.21875 29.59375 74.21875 
Q 40.828125 74.21875 47.359375 69.109375 
Q 53.90625 64.015625 53.90625 55.328125 
Q 53.90625 49.265625 50.4375 45.09375 
Q 46.96875 40.921875 40.578125 39.3125 
z
" id="DejaVuSans-51"/>
      </defs>
      <g transform="translate(20.878125 195.789149)scale(0.1 -0.1)">
       <use xlink:href="#DejaVuSans-51"/>
       <use x="63.623047" xlink:href="#DejaVuSans-48"/>
      </g>
     </g>
    </g>
    <g id="ytick_4">
     <g id="line2d_21">
      <path clip-path="url(#pfab5fda427)" d="M 40.603125 148.602999 
L 397.723125 148.602999 
" style="fill:none;stroke:#b0b0b0;stroke-dasharray:2.96,1.28;stroke-dashoffset:0;stroke-width:0.8;"/>
     </g>
     <g id="line2d_22">
      <g>
       <use style="stroke:#000000;stroke-width:0.8;" x="40.603125" xlink:href="#m4e967a1b82" y="148.602999"/>
      </g>
     </g>
     <g id="text_12">
      <!-- 40 -->
      <g transform="translate(20.878125 152.402218)scale(0.1 -0.1)">
       <use xlink:href="#DejaVuSans-52"/>
       <use x="63.623047" xlink:href="#DejaVuSans-48"/>
      </g>
     </g>
    </g>
    <g id="ytick_5">
     <g id="line2d_23">
      <path clip-path="url(#pfab5fda427)" d="M 40.603125 105.216068 
L 397.723125 105.216068 
" style="fill:none;stroke:#b0b0b0;stroke-dasharray:2.96,1.28;stroke-dashoffset:0;stroke-width:0.8;"/>
     </g>
     <g id="line2d_24">
      <g>
       <use style="stroke:#000000;stroke-width:0.8;" x="40.603125" xlink:href="#m4e967a1b82" y="105.216068"/>
      </g>
     </g>
     <g id="text_13">
      <!-- 50 -->
      <defs>
       <path d="M 10.796875 72.90625 
L 49.515625 72.90625 
L 49.515625 64.59375 
L 19.828125 64.59375 
L 19.828125 46.734375 
Q 21.96875 47.46875 24.109375 47.828125 
Q 26.265625 48.1875 28.421875 48.1875 
Q 40.625 48.1875 47.75 41.5 
Q 54.890625 34.8125 54.890625 23.390625 
Q 54.890625 11.625 47.5625 5.09375 
Q 40.234375 -1.421875 26.90625 -1.421875 
Q 22.3125 -1.421875 17.546875 -0.640625 
Q 12.796875 0.140625 7.71875 1.703125 
L 7.71875 11.625 
Q 12.109375 9.234375 16.796875 8.0625 
Q 21.484375 6.890625 26.703125 6.890625 
Q 35.15625 6.890625 40.078125 11.328125 
Q 45.015625 15.765625 45.015625 23.390625 
Q 45.015625 31 40.078125 35.4375 
Q 35.15625 39.890625 26.703125 39.890625 
Q 22.75 39.890625 18.8125 39.015625 
Q 14.890625 38.140625 10.796875 36.28125 
z
" id="DejaVuSans-53"/>
      </defs>
      <g transform="translate(20.878125 109.015286)scale(0.1 -0.1)">
       <use xlink:href="#DejaVuSans-53"/>
       <use x="63.623047" xlink:href="#DejaVuSans-48"/>
      </g>
     </g>
    </g>
    <g id="ytick_6">
     <g id="line2d_25">
      <path clip-path="url(#pfab5fda427)" d="M 40.603125 61.829136 
L 397.723125 61.829136 
" style="fill:none;stroke:#b0b0b0;stroke-dasharray:2.96,1.28;stroke-dashoffset:0;stroke-width:0.8;"/>
     </g>
     <g id="line2d_26">
      <g>
       <use style="stroke:#000000;stroke-width:0.8;" x="40.603125" xlink:href="#m4e967a1b82" y="61.829136"/>
      </g>
     </g>
     <g id="text_14">
      <!-- 60 -->
      <g transform="translate(20.878125 65.628355)scale(0.1 -0.1)">
       <use xlink:href="#DejaVuSans-54"/>
       <use x="63.623047" xlink:href="#DejaVuSans-48"/>
      </g>
     </g>
    </g>
    <g id="text_15">
     <!-- Price $ -->
     <defs>
      <path d="M 19.671875 64.796875 
L 19.671875 37.40625 
L 32.078125 37.40625 
Q 38.96875 37.40625 42.71875 40.96875 
Q 46.484375 44.53125 46.484375 51.125 
Q 46.484375 57.671875 42.71875 61.234375 
Q 38.96875 64.796875 32.078125 64.796875 
z
M 9.8125 72.90625 
L 32.078125 72.90625 
Q 44.34375 72.90625 50.609375 67.359375 
Q 56.890625 61.8125 56.890625 51.125 
Q 56.890625 40.328125 50.609375 34.8125 
Q 44.34375 29.296875 32.078125 29.296875 
L 19.671875 29.296875 
L 19.671875 0 
L 9.8125 0 
z
" id="DejaVuSans-80"/>
      <path d="M 41.109375 46.296875 
Q 39.59375 47.171875 37.8125 47.578125 
Q 36.03125 48 33.890625 48 
Q 26.265625 48 22.1875 43.046875 
Q 18.109375 38.09375 18.109375 28.8125 
L 18.109375 0 
L 9.078125 0 
L 9.078125 54.6875 
L 18.109375 54.6875 
L 18.109375 46.1875 
Q 20.953125 51.171875 25.484375 53.578125 
Q 30.03125 56 36.53125 56 
Q 37.453125 56 38.578125 55.875 
Q 39.703125 55.765625 41.0625 55.515625 
z
" id="DejaVuSans-114"/>
      <path d="M 9.421875 54.6875 
L 18.40625 54.6875 
L 18.40625 0 
L 9.421875 0 
z
M 9.421875 75.984375 
L 18.40625 75.984375 
L 18.40625 64.59375 
L 9.421875 64.59375 
z
" id="DejaVuSans-105"/>
      <path d="M 48.78125 52.59375 
L 48.78125 44.1875 
Q 44.96875 46.296875 41.140625 47.34375 
Q 37.3125 48.390625 33.40625 48.390625 
Q 24.65625 48.390625 19.8125 42.84375 
Q 14.984375 37.3125 14.984375 27.296875 
Q 14.984375 17.28125 19.8125 11.734375 
Q 24.65625 6.203125 33.40625 6.203125 
Q 37.3125 6.203125 41.140625 7.25 
Q 44.96875 8.296875 48.78125 10.40625 
L 48.78125 2.09375 
Q 45.015625 0.34375 40.984375 -0.53125 
Q 36.96875 -1.421875 32.421875 -1.421875 
Q 20.0625 -1.421875 12.78125 6.34375 
Q 5.515625 14.109375 5.515625 27.296875 
Q 5.515625 40.671875 12.859375 48.328125 
Q 20.21875 56 33.015625 56 
Q 37.15625 56 41.109375 55.140625 
Q 45.0625 54.296875 48.78125 52.59375 
z
" id="DejaVuSans-99"/>
      <path d="M 56.203125 29.59375 
L 56.203125 25.203125 
L 14.890625 25.203125 
Q 15.484375 15.921875 20.484375 11.0625 
Q 25.484375 6.203125 34.421875 6.203125 
Q 39.59375 6.203125 44.453125 7.46875 
Q 49.3125 8.734375 54.109375 11.28125 
L 54.109375 2.78125 
Q 49.265625 0.734375 44.1875 -0.34375 
Q 39.109375 -1.421875 33.890625 -1.421875 
Q 20.796875 -1.421875 13.15625 6.1875 
Q 5.515625 13.8125 5.515625 26.8125 
Q 5.515625 40.234375 12.765625 48.109375 
Q 20.015625 56 32.328125 56 
Q 43.359375 56 49.78125 48.890625 
Q 56.203125 41.796875 56.203125 29.59375 
z
M 47.21875 32.234375 
Q 47.125 39.59375 43.09375 43.984375 
Q 39.0625 48.390625 32.421875 48.390625 
Q 24.90625 48.390625 20.390625 44.140625 
Q 15.875 39.890625 15.1875 32.171875 
z
" id="DejaVuSans-101"/>
      <path id="DejaVuSans-32"/>
      <path d="M 33.796875 -14.703125 
L 28.90625 -14.703125 
L 28.859375 0 
Q 23.734375 0.09375 18.609375 1.1875 
Q 13.484375 2.296875 8.296875 4.5 
L 8.296875 13.28125 
Q 13.28125 10.15625 18.375 8.5625 
Q 23.484375 6.984375 28.90625 6.9375 
L 28.90625 29.203125 
Q 18.109375 30.953125 13.203125 35.15625 
Q 8.296875 39.359375 8.296875 46.6875 
Q 8.296875 54.640625 13.625 59.21875 
Q 18.953125 63.8125 28.90625 64.5 
L 28.90625 75.984375 
L 33.796875 75.984375 
L 33.796875 64.65625 
Q 38.328125 64.453125 42.578125 63.6875 
Q 46.828125 62.9375 50.875 61.625 
L 50.875 53.078125 
Q 46.828125 55.125 42.546875 56.25 
Q 38.28125 57.375 33.796875 57.5625 
L 33.796875 36.71875 
Q 44.875 35.015625 50.09375 30.609375 
Q 55.328125 26.21875 55.328125 18.609375 
Q 55.328125 10.359375 49.78125 5.59375 
Q 44.234375 0.828125 33.796875 0.09375 
z
M 28.90625 37.59375 
L 28.90625 57.625 
Q 23.25 56.984375 20.265625 54.390625 
Q 17.28125 51.8125 17.28125 47.515625 
Q 17.28125 43.3125 20.03125 40.96875 
Q 22.796875 38.625 28.90625 37.59375 
z
M 33.796875 28.21875 
L 33.796875 7.078125 
Q 39.984375 7.90625 43.140625 10.59375 
Q 46.296875 13.28125 46.296875 17.671875 
Q 46.296875 21.96875 43.28125 24.5 
Q 40.28125 27.046875 33.796875 28.21875 
z
" id="DejaVuSans-36"/>
     </defs>
     <g transform="translate(14.798438 172.342094)rotate(-90)scale(0.1 -0.1)">
      <use xlink:href="#DejaVuSans-80"/>
      <use x="58.552734" xlink:href="#DejaVuSans-114"/>
      <use x="99.666016" xlink:href="#DejaVuSans-105"/>
      <use x="127.449219" xlink:href="#DejaVuSans-99"/>
      <use x="182.429688" xlink:href="#DejaVuSans-101"/>
      <use x="243.953125" xlink:href="#DejaVuSans-32"/>
      <use x="275.740234" xlink:href="#DejaVuSans-36"/>
     </g>
    </g>
   </g>
   <g id="line2d_27">
    <path clip-path="url(#pfab5fda427)" d="M 56.835852 270.036767 
L 57.080505 270.031152 
L 57.325158 270.15556 
L 57.569811 270.602771 
L 57.814464 270.694781 
L 58.059117 272.621659 
L 58.793076 271.142518 
L 59.037729 271.124651 
L 59.282382 271.266533 
L 59.527035 271.834759 
L 59.771688 271.962759 
L 60.016341 271.69541 
L 60.505647 269.752507 
L 61.484259 271.227998 
L 61.728912 271.099846 
L 61.973566 271.237147 
L 62.462872 270.868515 
L 62.707525 271.340618 
L 62.952178 270.966976 
L 63.196831 271.279678 
L 63.441484 270.695307 
L 63.686137 268.967895 
L 63.93079 269.797417 
L 64.175443 269.964171 
L 64.420096 269.926121 
L 64.664749 270.260248 
L 65.154055 269.428633 
L 65.643361 270.474498 
L 66.132667 270.325285 
L 66.37732 269.572658 
L 66.621973 269.641381 
L 66.866626 271.390991 
L 67.111279 271.255866 
L 67.355932 272.555832 
L 67.600585 272.960896 
L 67.845238 273.68844 
L 68.089891 273.715286 
L 68.334544 273.227927 
L 68.579197 272.469039 
L 68.82385 272.898181 
L 69.068503 272.900184 
L 69.313156 273.728564 
L 69.557809 273.788891 
L 69.802462 273.339748 
L 70.047115 273.495189 
L 70.291768 272.873984 
L 70.536421 273.150622 
L 70.781074 272.903171 
L 71.025727 272.898359 
L 71.27038 273.395437 
L 72.004339 273.841428 
L 72.248992 273.92935 
L 72.493645 275.054995 
L 72.738298 274.713237 
L 72.982951 273.262832 
L 73.227604 273.515257 
L 73.71691 272.751599 
L 74.450869 275.60197 
L 74.695522 275.189044 
L 75.184828 275.536602 
L 75.429481 276.084169 
L 75.674134 274.073089 
L 75.918787 273.231162 
L 76.16344 273.192893 
L 76.408093 272.722081 
L 76.652746 273.166242 
L 76.897399 272.7508 
L 77.142052 272.786343 
L 77.386705 271.907429 
L 77.631358 272.22739 
L 77.876011 272.228689 
L 78.120664 272.858794 
L 78.60997 273.215414 
L 78.854623 272.681883 
L 79.099276 272.757085 
L 79.343929 272.38017 
L 79.588582 271.745418 
L 79.833235 272.06105 
L 80.077888 272.101736 
L 80.322541 272.435768 
L 80.567194 273.650005 
L 80.811847 273.721401 
L 81.0565 274.814242 
L 81.301153 275.136975 
L 81.545806 275.696065 
L 81.790459 275.594894 
L 82.035112 275.639623 
L 82.279765 275.971011 
L 82.524418 276.104307 
L 82.769071 275.861689 
L 83.013724 274.488279 
L 83.258377 274.194626 
L 83.50303 273.508302 
L 83.747683 273.443547 
L 83.992336 274.22563 
L 84.236989 274.448164 
L 84.481643 274.5013 
L 84.726296 272.04802 
L 84.970949 272.080092 
L 85.215602 271.770931 
L 85.460255 272.390762 
L 85.704908 272.396572 
L 85.949561 272.650747 
L 86.194214 272.489633 
L 86.438867 272.86678 
L 87.172826 272.499245 
L 87.417479 272.413789 
L 87.662132 272.869503 
L 87.906785 272.502667 
L 88.151438 271.454409 
L 88.396091 271.63677 
L 88.640744 270.586324 
L 89.13005 269.665727 
L 89.374703 263.965726 
L 89.619356 263.193507 
L 89.864009 263.404124 
L 90.353315 261.27846 
L 90.842621 258.561613 
L 91.087274 260.223814 
L 91.331927 260.034319 
L 91.57658 259.060181 
L 92.065886 260.463978 
L 92.310539 260.131187 
L 92.555192 260.005546 
L 92.799845 259.747746 
L 93.044498 259.655244 
L 93.289151 258.802592 
L 93.533804 258.445852 
L 93.778457 257.077134 
L 94.02311 257.598513 
L 94.267763 257.671138 
L 94.512416 257.495211 
L 94.757069 256.980899 
L 95.001722 256.758817 
L 95.735681 261.070197 
L 95.980334 260.229879 
L 96.224987 260.891796 
L 96.46964 259.736641 
L 96.714293 259.66858 
L 96.958946 259.19531 
L 97.203599 259.091677 
L 97.448252 258.700569 
L 97.692905 259.228581 
L 97.937558 258.013533 
L 98.182211 258.830087 
L 98.426864 258.87705 
L 98.671517 259.257297 
L 98.91617 258.299535 
L 99.160823 258.244259 
L 99.405476 257.355998 
L 99.650129 258.096974 
L 99.894782 258.267381 
L 100.139435 259.864839 
L 100.384088 259.261078 
L 100.628741 260.308516 
L 100.873394 260.580103 
L 101.118047 260.010056 
L 101.3627 259.083145 
L 101.852006 258.123794 
L 102.096659 258.065159 
L 102.585965 257.117783 
L 102.830618 256.979782 
L 103.075271 257.901165 
L 103.319924 257.447603 
L 103.564577 256.057216 
L 103.80923 257.306189 
L 104.053883 257.061431 
L 104.298536 255.714246 
L 104.543189 259.361182 
L 104.787842 257.04635 
L 105.032495 258.164608 
L 105.277148 256.242994 
L 105.521801 257.227755 
L 105.766454 257.399593 
L 106.011107 257.066343 
L 106.25576 256.050918 
L 106.500413 254.389019 
L 106.745066 255.542171 
L 106.98972 254.486119 
L 107.234373 254.177529 
L 107.479026 253.57462 
L 108.212985 259.161004 
L 108.457638 258.376037 
L 108.702291 259.388118 
L 108.946944 259.791308 
L 109.191597 258.478432 
L 109.43625 257.990643 
L 109.680903 258.72108 
L 109.925556 260.187046 
L 110.170209 260.299414 
L 110.414862 258.933269 
L 110.659515 258.695314 
L 110.904168 257.973894 
L 111.148821 258.544015 
L 111.88278 262.959471 
L 112.127433 263.258262 
L 112.372086 262.082771 
L 112.616739 262.228641 
L 113.106045 260.031522 
L 113.595351 259.733778 
L 113.840004 259.555161 
L 114.084657 258.285843 
L 114.32931 259.107975 
L 114.573963 257.300036 
L 114.818616 257.240718 
L 115.063269 255.497919 
L 115.307922 256.753007 
L 115.552575 256.242361 
L 115.797228 256.36895 
L 116.041881 255.649363 
L 116.286534 254.332751 
L 116.531187 254.533632 
L 116.77584 256.137073 
L 117.020493 255.848204 
L 117.265146 255.13546 
L 117.509799 256.017688 
L 117.754452 246.363101 
L 117.999105 242.794236 
L 118.243758 243.157261 
L 118.488411 243.975491 
L 118.733064 242.967638 
L 118.977717 243.481143 
L 119.467023 246.176276 
L 119.711676 245.933649 
L 119.956329 246.002633 
L 120.200982 247.164888 
L 120.445635 247.384484 
L 120.690288 246.203113 
L 120.934941 246.272279 
L 121.179594 247.146782 
L 121.424247 246.847982 
L 121.6689 248.984558 
L 121.913553 249.173717 
L 122.158206 249.895299 
L 122.402859 248.992031 
L 122.647512 249.314539 
L 122.892165 249.987619 
L 123.136818 251.502977 
L 123.381471 250.739654 
L 123.626124 249.221954 
L 123.870777 250.987552 
L 124.11543 248.246367 
L 124.604736 247.371335 
L 124.849389 248.200414 
L 125.583348 247.299959 
L 125.828001 248.482299 
L 126.072654 248.197245 
L 126.317307 247.017421 
L 126.56196 247.388341 
L 126.806613 247.430165 
L 127.051266 247.639871 
L 127.295919 248.104312 
L 127.785225 248.36627 
L 128.029878 248.286635 
L 128.274531 248.035758 
L 128.763837 249.433225 
L 129.00849 248.519265 
L 129.497797 249.525587 
L 129.74245 248.609881 
L 129.987103 250.155519 
L 130.476409 251.156619 
L 130.721062 247.938539 
L 130.965715 247.761661 
L 131.210368 244.575871 
L 131.455021 244.830472 
L 131.699674 246.681191 
L 131.944327 245.525424 
L 132.18898 245.519929 
L 132.433633 246.072817 
L 132.678286 245.485495 
L 133.167592 246.72664 
L 133.412245 246.607987 
L 133.656898 246.780587 
L 133.901551 249.777639 
L 134.146204 249.728293 
L 134.390857 249.450388 
L 134.63551 249.369935 
L 134.880163 248.784707 
L 135.124816 250.073675 
L 135.369469 250.090896 
L 135.858775 247.802069 
L 136.103428 248.117403 
L 136.348081 247.608309 
L 136.592734 246.710834 
L 136.837387 245.086844 
L 137.08204 244.981705 
L 137.326693 245.82103 
L 137.571346 248.488588 
L 137.815999 247.19434 
L 138.060652 246.56608 
L 138.305305 247.159898 
L 138.549958 246.322709 
L 138.794611 247.626581 
L 139.039264 247.676143 
L 139.52857 246.660296 
L 139.773223 247.538903 
L 140.017876 246.996608 
L 140.262529 248.972418 
L 140.507182 247.227028 
L 140.751835 246.790335 
L 140.996488 246.698247 
L 141.485794 249.486933 
L 141.730447 249.048072 
L 141.9751 249.178533 
L 142.219753 247.841709 
L 142.464406 247.319423 
L 142.709059 245.280406 
L 143.198365 243.144591 
L 143.443018 243.037301 
L 143.687671 243.404695 
L 143.932324 244.502866 
L 144.176977 244.588152 
L 144.42163 244.470443 
L 144.910936 242.528595 
L 145.155589 243.416372 
L 145.400242 242.391828 
L 145.644895 242.297207 
L 145.889548 242.458701 
L 146.134201 242.963095 
L 146.86816 246.337696 
L 147.112813 246.611214 
L 147.357466 248.179097 
L 147.602119 248.924942 
L 148.091425 249.462909 
L 148.825384 249.38944 
L 149.070037 248.465657 
L 149.31469 246.975398 
L 150.048649 248.454436 
L 150.293302 248.50528 
L 150.537955 247.33244 
L 150.782608 236.84313 
L 151.027261 237.94706 
L 151.271914 237.87288 
L 151.76122 236.089639 
L 152.005874 235.952457 
L 152.250527 235.344315 
L 152.49518 236.481338 
L 152.739833 236.687578 
L 152.984486 236.309359 
L 153.229139 236.452076 
L 153.473792 237.4414 
L 153.718445 237.523989 
L 153.963098 237.056594 
L 154.207751 237.906511 
L 154.697057 236.36972 
L 154.94171 234.955751 
L 155.186363 234.385866 
L 155.431016 234.626722 
L 155.675669 233.845218 
L 155.920322 234.772559 
L 156.164975 232.505761 
L 156.654281 230.784097 
L 156.898934 229.787905 
L 157.143587 230.335786 
L 157.38824 230.575607 
L 157.877546 231.673182 
L 158.122199 232.91191 
L 158.366852 232.492852 
L 158.611505 232.499298 
L 158.856158 233.94564 
L 159.100811 233.106199 
L 159.345464 233.140609 
L 159.590117 232.07784 
L 159.83477 231.723165 
L 160.079423 233.959335 
L 160.324076 234.472228 
L 160.568729 237.387412 
L 160.813382 236.125314 
L 161.058035 235.70398 
L 161.547341 239.102149 
L 161.791994 238.294909 
L 162.036647 238.998094 
L 162.525953 236.383498 
L 162.770606 236.361386 
L 163.015259 235.464465 
L 163.259912 236.588496 
L 163.504565 236.844099 
L 163.993871 237.870621 
L 164.483177 235.001026 
L 164.972483 235.284773 
L 165.217136 237.486294 
L 165.461789 237.956619 
L 165.706442 230.750847 
L 165.951095 231.606308 
L 166.195748 231.641884 
L 166.685054 232.845284 
L 167.17436 234.637107 
L 167.419013 233.503899 
L 167.663666 231.685355 
L 168.152972 231.297809 
L 168.397625 232.736703 
L 168.642278 232.085793 
L 168.886931 232.507871 
L 169.131584 233.573826 
L 169.376237 231.796816 
L 169.62089 231.666172 
L 169.865543 232.346981 
L 170.110196 231.79238 
L 170.599502 231.953113 
L 170.844155 231.057674 
L 171.088808 229.475541 
L 171.333461 228.783412 
L 171.578114 228.645701 
L 171.822767 229.317787 
L 172.06742 228.920866 
L 172.312073 228.831897 
L 172.556726 227.207295 
L 172.801379 227.167201 
L 173.046032 226.263321 
L 173.290685 226.343757 
L 173.535338 225.990679 
L 173.779991 226.7983 
L 174.024644 226.190183 
L 174.269298 227.217747 
L 174.513951 226.704143 
L 175.003257 224.013876 
L 175.24791 224.352845 
L 175.492563 223.481305 
L 175.737216 223.813347 
L 175.981869 225.001868 
L 176.226522 224.094115 
L 176.471175 224.439646 
L 176.715828 224.443932 
L 177.205134 223.12106 
L 177.449787 221.962678 
L 177.69444 223.88214 
L 177.939093 222.328368 
L 178.183746 222.920233 
L 178.917705 221.202789 
L 179.162358 222.097583 
L 179.407011 220.419009 
L 179.651664 222.172658 
L 179.896317 222.464812 
L 180.14097 224.637337 
L 180.385623 224.389836 
L 180.630276 223.677763 
L 180.874929 224.746059 
L 181.119582 222.251746 
L 181.364235 224.570198 
L 181.608888 223.980849 
L 181.853541 222.864018 
L 182.098194 222.812363 
L 182.342847 221.957373 
L 182.5875 220.668289 
L 182.832153 220.446657 
L 183.076806 220.82452 
L 183.321459 221.927358 
L 183.810765 221.283151 
L 184.055418 221.419687 
L 184.300071 221.808871 
L 184.544724 221.937512 
L 185.767989 217.897007 
L 186.012642 218.575954 
L 186.257295 217.573513 
L 186.746601 218.810578 
L 187.235907 218.214509 
L 187.48056 220.275762 
L 187.725213 224.87331 
L 187.969866 225.308811 
L 188.214519 228.576808 
L 188.459172 227.269063 
L 188.703825 227.059803 
L 188.948478 227.61284 
L 189.193131 229.340627 
L 189.437784 229.662367 
L 189.682437 230.502874 
L 189.92709 229.520783 
L 190.171743 230.929513 
L 190.416396 231.46628 
L 190.905702 233.099728 
L 191.150355 231.869722 
L 191.395008 232.149778 
L 191.639661 234.302831 
L 191.884314 232.200217 
L 192.128967 234.525836 
L 192.37362 240.302322 
L 192.862926 242.554638 
L 193.352232 239.348814 
L 193.596885 239.906361 
L 193.841538 239.834125 
L 194.086191 238.277232 
L 194.330844 239.080385 
L 194.575497 239.004053 
L 194.82015 238.540481 
L 195.064803 239.299509 
L 195.309456 238.301157 
L 195.554109 239.105054 
L 196.043415 235.247782 
L 196.288068 233.745118 
L 196.532721 235.233168 
L 196.777375 231.445914 
L 197.022028 232.524695 
L 197.266681 232.206945 
L 197.511334 231.041984 
L 198.00064 233.23187 
L 198.245293 233.532813 
L 198.734599 235.433366 
L 198.979252 234.9821 
L 199.223905 236.855833 
L 199.468558 230.346602 
L 199.713211 230.036225 
L 199.957864 229.466215 
L 200.202517 227.597092 
L 200.44717 227.191034 
L 200.691823 227.90593 
L 200.936476 230.464832 
L 201.181129 230.059718 
L 201.670435 227.404382 
L 201.915088 227.329788 
L 202.159741 231.045964 
L 202.404394 230.811241 
L 202.649047 232.85001 
L 202.8937 233.50442 
L 203.138353 235.378881 
L 203.383006 234.911627 
L 203.627659 237.59884 
L 204.361618 233.959385 
L 204.606271 233.725282 
L 204.850924 234.005222 
L 205.34023 233.180306 
L 205.584883 233.429329 
L 206.074189 234.328294 
L 206.318842 234.421632 
L 206.808148 237.194371 
L 207.052801 239.029028 
L 207.297454 238.226306 
L 207.542107 239.698268 
L 207.78676 239.899244 
L 208.031413 241.166464 
L 208.276066 239.648127 
L 208.520719 241.213609 
L 208.765372 234.099876 
L 209.010025 234.097808 
L 209.254678 234.595283 
L 209.499331 232.486008 
L 209.743984 232.209187 
L 209.988637 231.384221 
L 210.23329 232.971824 
L 210.477943 232.103701 
L 210.722596 231.773281 
L 210.967249 231.184395 
L 211.211902 230.206176 
L 211.456555 227.889809 
L 211.701208 228.499433 
L 212.190514 225.931187 
L 212.435167 226.232346 
L 212.67982 225.18137 
L 213.169126 222.343603 
L 213.413779 221.613936 
L 213.658432 219.963548 
L 214.147738 220.689731 
L 214.392391 220.715244 
L 214.637044 220.452715 
L 214.881697 219.725225 
L 215.371003 220.547013 
L 215.615656 220.66675 
L 215.860309 220.961934 
L 216.349615 222.322881 
L 216.594268 220.787289 
L 216.838921 221.721797 
L 217.083574 220.655595 
L 217.328227 223.115747 
L 217.57288 222.818213 
L 217.817533 222.898311 
L 218.306839 221.24189 
L 218.551492 221.532969 
L 218.796145 219.523363 
L 219.040798 221.342279 
L 219.285452 220.182184 
L 219.530105 221.196094 
L 219.774758 221.195093 
L 220.019411 223.24083 
L 220.264064 224.183977 
L 220.75337 221.909715 
L 221.242676 224.418237 
L 221.487329 223.528086 
L 221.731982 223.392294 
L 221.976635 222.968768 
L 222.221288 222.15753 
L 222.465941 221.979808 
L 222.710594 222.2726 
L 222.955247 222.864192 
L 223.1999 222.308689 
L 223.444553 222.394753 
L 223.689206 221.204957 
L 223.933859 222.827498 
L 224.667818 219.877922 
L 225.157124 217.937026 
L 225.891083 221.119737 
L 226.135736 222.701613 
L 226.625042 221.156265 
L 226.869695 223.210368 
L 227.114348 221.13714 
L 227.359001 215.960728 
L 227.603654 213.188478 
L 227.848307 214.957038 
L 228.09296 215.032204 
L 228.337613 214.9078 
L 228.582266 212.566068 
L 228.826919 211.517244 
L 229.071572 211.539132 
L 229.316225 211.273442 
L 229.560878 210.096722 
L 230.294837 211.55013 
L 230.53949 210.250694 
L 230.784143 210.180146 
L 231.028796 212.205724 
L 231.518102 211.019296 
L 231.762755 209.178789 
L 232.007408 210.388438 
L 232.252061 209.986833 
L 232.496714 211.389894 
L 232.741367 211.035467 
L 232.98602 211.121258 
L 233.230673 211.982487 
L 233.475326 211.558455 
L 233.719979 215.22747 
L 234.453938 212.696588 
L 234.698591 213.246836 
L 235.187897 211.480137 
L 235.43255 211.383786 
L 235.677203 211.546092 
L 235.921856 213.077488 
L 236.166509 215.419426 
L 236.411162 216.616289 
L 236.655815 214.431236 
L 236.900468 214.863112 
L 237.389774 213.086003 
L 237.634427 214.140165 
L 238.613039 208.716873 
L 238.857692 209.963223 
L 239.102345 209.590681 
L 239.346998 209.756239 
L 239.591651 207.862297 
L 240.080957 209.177134 
L 240.32561 209.208912 
L 240.570263 208.174206 
L 240.814916 210.636236 
L 241.059569 210.190979 
L 241.304222 209.034069 
L 241.548875 208.701109 
L 242.038182 211.006817 
L 242.282835 210.356263 
L 242.527488 197.308762 
L 242.772141 197.333886 
L 243.261447 196.83915 
L 243.5061 198.313346 
L 243.995406 196.574229 
L 244.240059 197.364637 
L 244.484712 194.658201 
L 244.729365 195.07025 
L 244.974018 196.104509 
L 245.707977 208.093976 
L 245.95263 208.041567 
L 246.686589 195.120241 
L 247.175895 200.873862 
L 247.420548 198.598591 
L 247.665201 197.602257 
L 247.909854 199.789893 
L 248.154507 196.476306 
L 248.39916 197.28171 
L 248.643813 195.690971 
L 249.133119 195.043851 
L 249.867078 187.443699 
L 250.111731 186.890819 
L 250.356384 185.024071 
L 250.601037 185.518907 
L 250.84569 184.561137 
L 251.090343 185.142219 
L 251.334996 182.628268 
L 251.824302 188.724499 
L 252.068955 187.658801 
L 252.313608 187.648953 
L 252.802914 183.079476 
L 253.047567 183.354641 
L 253.29222 183.189919 
L 253.536873 184.063272 
L 254.515485 178.503692 
L 254.760138 175.094741 
L 255.004791 173.522828 
L 255.249444 175.383171 
L 255.494097 174.991943 
L 255.73875 175.147753 
L 255.983403 170.90853 
L 256.228056 170.359143 
L 256.472709 170.462122 
L 256.717362 170.423244 
L 256.962015 168.638339 
L 257.451321 170.899543 
L 257.695974 171.690009 
L 258.18528 161.239204 
L 258.429933 159.731575 
L 258.674586 170.096829 
L 258.919239 173.824136 
L 259.163892 174.532824 
L 259.653198 169.775297 
L 259.897851 171.64183 
L 260.142504 170.067203 
L 260.63181 161.749598 
L 260.876463 161.166116 
L 261.121116 158.944552 
L 261.365769 159.640629 
L 261.610422 161.826477 
L 261.855075 160.042929 
L 262.099728 160.058801 
L 262.344381 158.258587 
L 262.589034 154.333813 
L 262.833687 155.259185 
L 263.07834 158.531775 
L 263.322993 152.830206 
L 263.567646 153.822427 
L 263.812299 150.874812 
L 264.056952 154.300811 
L 264.301606 155.091525 
L 264.546259 160.099996 
L 265.280218 151.554404 
L 265.769524 154.724561 
L 266.014177 153.467147 
L 266.25883 151.433103 
L 266.503483 153.090666 
L 266.992789 152.233947 
L 267.237442 149.857004 
L 267.482095 150.550631 
L 267.726748 153.660858 
L 267.971401 158.300262 
L 268.950013 166.509625 
L 269.194666 164.428445 
L 269.439319 160.548771 
L 269.683972 170.144843 
L 269.928625 167.914854 
L 270.173278 169.907852 
L 270.417931 168.960865 
L 270.662584 170.83895 
L 270.907237 171.525809 
L 271.15189 165.772088 
L 271.396543 170.801016 
L 271.641196 168.422351 
L 271.885849 173.639114 
L 272.130502 174.85669 
L 272.375155 170.479699 
L 272.619808 171.130062 
L 272.864461 176.527444 
L 273.109114 177.797983 
L 273.59842 188.80736 
L 273.843073 196.471143 
L 274.087726 196.341881 
L 274.332379 190.868159 
L 274.577032 189.155076 
L 274.821685 199.12676 
L 275.066338 194.039995 
L 275.310991 193.682796 
L 275.555644 196.100802 
L 276.04495 184.936062 
L 276.289603 188.285621 
L 276.778909 181.433135 
L 277.023562 183.338885 
L 277.268215 183.341078 
L 277.512868 184.237179 
L 277.757521 181.880072 
L 278.002174 182.818569 
L 278.49148 186.334687 
L 278.980786 188.084322 
L 279.225439 187.750236 
L 279.714745 184.938478 
L 279.959398 181.102201 
L 280.204051 180.81094 
L 280.448704 179.448528 
L 280.693357 180.260643 
L 280.93801 181.963803 
L 281.182663 182.617708 
L 281.427316 180.453128 
L 281.671969 180.341328 
L 281.916622 181.97375 
L 282.161275 182.249503 
L 282.650581 173.929283 
L 282.895234 174.992076 
L 283.139887 172.400452 
L 283.38454 173.232875 
L 283.629193 175.459106 
L 283.873846 174.118492 
L 284.118499 176.680076 
L 284.363152 174.26538 
L 284.607805 176.751774 
L 284.852458 176.424614 
L 285.097111 169.147823 
L 285.586417 171.780476 
L 285.83107 167.90168 
L 286.075723 168.941384 
L 286.320376 168.74256 
L 286.56503 168.990921 
L 286.809683 171.3342 
L 287.298989 168.890425 
L 287.543642 172.575096 
L 287.788295 174.549822 
L 288.032948 172.05939 
L 288.277601 171.614091 
L 288.522254 173.664818 
L 288.766907 172.91025 
L 289.01156 170.182843 
L 289.256213 157.407644 
L 289.745519 163.826922 
L 290.234825 157.090879 
L 290.479478 155.551571 
L 290.724131 150.763491 
L 290.968784 156.522855 
L 291.213437 154.702598 
L 291.45809 157.67302 
L 291.702743 158.777968 
L 291.947396 157.897201 
L 292.192049 152.326896 
L 292.436702 152.769299 
L 292.681355 152.128253 
L 292.926008 150.980141 
L 293.170661 151.304967 
L 293.415314 153.933002 
L 293.659967 153.676117 
L 293.90462 157.511766 
L 294.149273 157.687154 
L 294.393926 156.112644 
L 294.638579 156.206007 
L 294.883232 154.411155 
L 295.127885 157.734771 
L 295.372538 158.28338 
L 295.617191 154.89467 
L 295.861844 155.268007 
L 296.106497 152.262878 
L 296.35115 156.391127 
L 296.595803 153.684393 
L 296.840456 153.820159 
L 297.085109 155.310724 
L 297.329762 152.696575 
L 297.574415 161.129555 
L 297.819068 164.587746 
L 298.553027 149.754207 
L 298.79768 149.875772 
L 299.286986 145.854507 
L 299.531639 146.35977 
L 300.020945 138.473181 
L 300.265598 136.581242 
L 300.510251 139.056183 
L 300.754904 140.037844 
L 300.999557 138.417984 
L 301.24421 138.75893 
L 301.488863 141.49587 
L 301.978169 142.478988 
L 302.222822 141.743652 
L 302.467475 137.597991 
L 302.956781 144.120777 
L 303.201434 146.699955 
L 303.69074 147.562996 
L 303.935393 148.979282 
L 304.424699 144.379483 
L 304.669352 145.553597 
L 304.914005 145.314603 
L 305.158658 142.526174 
L 305.403311 143.191086 
L 305.647964 142.282943 
L 305.892617 143.019851 
L 306.13727 141.534649 
L 306.381923 150.969962 
L 306.626576 148.363972 
L 306.871229 147.789544 
L 307.115882 148.043979 
L 307.360535 147.473026 
L 307.605188 145.228026 
L 307.849841 145.094428 
L 308.094494 143.694512 
L 308.339147 143.419338 
L 308.828453 141.108134 
L 309.073107 142.03915 
L 309.807066 132.818666 
L 310.051719 133.442085 
L 310.296372 133.718781 
L 310.541025 138.086157 
L 310.785678 132.820619 
L 311.030331 133.204151 
L 311.274984 132.14432 
L 311.519637 128.093727 
L 311.76429 128.914497 
L 312.008943 130.158257 
L 312.253596 130.017145 
L 312.498249 127.640433 
L 312.987555 129.049668 
L 313.232208 130.669611 
L 313.476861 129.621862 
L 313.721514 129.868337 
L 313.966167 129.660856 
L 314.21082 129.271449 
L 314.455473 130.134225 
L 314.700126 129.977588 
L 314.944779 128.239208 
L 315.189432 130.601967 
L 315.434085 130.864033 
L 315.678738 131.408835 
L 315.923391 135.252511 
L 316.168044 133.374475 
L 316.412697 134.133561 
L 316.65735 131.888064 
L 316.902003 132.595429 
L 317.146656 129.786394 
L 317.391309 131.470355 
L 317.635962 129.147599 
L 317.880615 128.202565 
L 318.125268 124.189161 
L 318.614574 128.667212 
L 319.10388 133.37037 
L 319.348533 134.0398 
L 319.593186 136.546568 
L 319.837839 136.566843 
L 320.082492 133.281939 
L 320.327145 140.466807 
L 320.571798 143.036203 
L 320.816451 143.339381 
L 321.061104 147.021802 
L 321.305757 153.238167 
L 321.55041 150.353677 
L 321.795063 157.207694 
L 322.529022 148.220096 
L 322.773675 154.744141 
L 323.018328 154.65 
L 323.262981 159.944766 
L 323.507634 159.655922 
L 323.752287 159.854945 
L 323.99694 159.292681 
L 324.241593 156.86981 
L 324.730899 166.98647 
L 324.975552 166.445789 
L 325.220205 163.1992 
L 325.464858 162.277933 
L 325.709511 159.115422 
L 325.954164 159.35147 
L 326.198817 161.917456 
L 326.44347 160.234554 
L 326.688123 159.582039 
L 326.932776 162.120634 
L 327.177429 161.033776 
L 327.422082 163.292315 
L 328.156041 161.482352 
L 328.400694 163.475433 
L 328.89 163.048836 
L 329.134653 163.490362 
L 329.379306 163.27967 
L 329.623959 164.877865 
L 330.357918 157.028201 
L 330.602571 157.186708 
L 330.847224 158.065754 
L 331.33653 151.512911 
L 331.581184 151.91311 
L 331.825837 152.677723 
L 332.07049 152.615708 
L 332.315143 152.031613 
L 332.559796 153.018438 
L 332.804449 152.521252 
L 333.049102 154.453045 
L 333.538408 149.976252 
L 333.783061 150.410462 
L 334.027714 149.76801 
L 334.272367 149.742042 
L 334.51702 147.10775 
L 334.761673 146.017598 
L 335.006326 146.036036 
L 335.250979 148.020196 
L 335.495632 147.162285 
L 335.740285 147.786283 
L 335.984938 151.531597 
L 336.229591 149.130092 
L 336.474244 116.757123 
L 336.718897 123.965527 
L 336.96355 126.793678 
L 337.208203 124.129578 
L 337.697509 124.805695 
L 337.942162 124.807582 
L 338.431468 126.01958 
L 338.676121 123.935057 
L 338.920774 123.391892 
L 339.165427 125.836992 
L 339.41008 116.931486 
L 339.654733 119.153199 
L 339.899386 117.32331 
L 340.144039 114.058796 
L 340.388692 113.013067 
L 340.877998 108.832434 
L 341.122651 108.06744 
L 341.367304 106.7351 
L 341.611957 108.589717 
L 341.85661 107.873415 
L 342.101263 108.417241 
L 342.345916 108.276344 
L 342.590569 109.024903 
L 342.835222 112.213664 
L 343.079875 110.12914 
L 343.324528 109.744863 
L 343.569181 108.294384 
L 343.813834 107.523663 
L 344.30314 103.865274 
L 344.547793 103.642616 
L 345.037099 106.40142 
L 345.281752 108.489154 
L 346.015711 106.12277 
L 346.260364 108.595923 
L 346.505017 108.360422 
L 346.74967 110.233095 
L 346.994323 111.158517 
L 347.483629 107.979257 
L 347.728282 107.234388 
L 347.972935 104.64955 
L 348.217588 104.994138 
L 348.462241 100.60331 
L 348.706894 98.574033 
L 348.951547 98.589044 
L 349.440853 94.701096 
L 349.930159 91.35838 
L 350.174812 92.190869 
L 350.419465 90.984431 
L 350.664118 87.828624 
L 350.908771 87.222666 
L 351.153424 84.463581 
L 351.398077 78.554151 
L 351.64273 79.724706 
L 352.132036 76.637154 
L 352.376689 75.045563 
L 352.621342 86.181968 
L 353.355301 73.634922 
L 354.089261 64.583438 
L 354.333914 68.590503 
L 354.578567 67.021553 
L 354.82322 67.076998 
L 355.067873 62.897656 
L 355.312526 62.672913 
L 355.557179 61.980278 
L 355.801832 61.760103 
L 356.046485 58.748552 
L 356.291138 58.713994 
L 356.535791 69.476368 
L 356.780444 74.531677 
L 357.025097 69.698678 
L 357.514403 65.769584 
L 357.759056 66.199243 
L 358.003709 59.662372 
L 358.248362 60.357092 
L 358.737668 55.934138 
L 358.982321 58.987645 
L 359.226974 59.820995 
L 359.471627 68.069053 
L 359.71628 65.749856 
L 359.960933 71.143215 
L 360.205586 71.229131 
L 360.450239 76.823864 
L 360.694892 73.067627 
L 360.939545 75.339174 
L 361.184198 69.205448 
L 361.428851 67.378074 
L 361.673504 69.555166 
L 361.918157 56.705141 
L 362.16281 58.902011 
L 362.407463 57.702906 
L 362.652116 58.720697 
L 362.896769 55.123993 
L 363.141422 55.251881 
L 363.630728 56.916792 
L 363.875381 54.733129 
L 364.120034 56.885214 
L 364.364687 49.649733 
L 364.60934 56.027551 
L 365.098646 53.186292 
L 365.343299 50.585416 
L 365.587952 54.64632 
L 365.832605 43.888631 
L 366.077258 52.345875 
L 366.321911 49.897118 
L 366.566564 54.962722 
L 366.811217 54.664626 
L 367.05587 59.710683 
L 367.300523 57.487712 
L 367.545176 52.769145 
L 367.789829 52.470469 
L 368.034482 48.547814 
L 368.279135 54.880713 
L 368.523788 51.996901 
L 368.768441 53.020568 
L 369.013094 42.659337 
L 369.257747 43.838648 
L 369.5024 46.127458 
L 369.747053 49.574212 
L 369.991706 48.76976 
L 370.236359 45.812066 
L 370.481012 36.721505 
L 370.725665 37.325146 
L 370.970318 38.950269 
L 371.214971 39.049508 
L 371.459624 43.430505 
L 371.704277 35.681221 
L 371.94893 39.712665 
L 372.193583 34.414125 
L 372.438236 34.796879 
L 372.682889 37.563908 
L 373.172195 39.121669 
L 373.416848 42.510181 
L 373.661501 42.054968 
L 373.906154 39.254605 
L 374.150807 43.005017 
L 374.39546 43.811736 
L 374.640113 51.15521 
L 374.884766 52.734024 
L 375.129419 47.347748 
L 375.374072 45.546442 
L 375.618725 41.52756 
L 375.863378 46.093942 
L 376.108031 45.713009 
L 376.352684 49.129194 
L 376.597338 47.244554 
L 376.841991 46.682555 
L 377.086644 55.397743 
L 377.331297 54.252511 
L 377.57595 54.711398 
L 377.820603 51.929639 
L 378.065256 56.002328 
L 378.309909 54.318946 
L 378.554562 53.5541 
L 378.799215 54.21744 
L 379.288521 49.500048 
L 379.533174 54.394864 
L 379.777827 49.015059 
L 380.02248 52.924772 
L 380.267133 51.834224 
L 380.756439 38.401577 
L 381.001092 37.549476 
L 381.245745 38.043484 
L 381.490398 37.373872 
L 381.490398 37.373872 
" style="fill:none;stroke:#1f77b4;stroke-linecap:square;stroke-width:1.5;"/>
   </g>
   <g id="line2d_28">
    <path clip-path="url(#pfab5fda427)" d="M 56.835852 269.956246 
L 57.080505 269.956246 
L 57.325158 270.867372 
L 57.569811 271.084306 
L 57.814464 273.904457 
L 58.059117 272.602849 
L 58.548423 271.604949 
L 59.037729 271.648336 
L 59.282382 272.16898 
L 59.527035 272.125593 
L 59.771688 271.73511 
L 60.260994 269.652538 
L 60.994953 270.954146 
L 61.239606 271.301241 
L 61.484259 271.17108 
L 61.728912 271.344628 
L 62.218219 270.997532 
L 62.462872 271.518176 
L 62.707525 271.127693 
L 62.952178 271.474789 
L 63.196831 270.867372 
L 63.441484 269.088507 
L 63.686137 269.999633 
L 63.93079 270.173181 
L 64.175443 270.129794 
L 64.420096 270.476889 
L 64.909402 269.609151 
L 65.398708 270.693824 
L 65.888014 270.520276 
L 66.132667 269.739311 
L 66.37732 269.826085 
L 66.621973 271.648336 
L 66.866626 271.474789 
L 67.111279 272.819784 
L 67.355932 273.210266 
L 67.600585 273.947844 
L 67.845238 273.947844 
L 68.334544 272.646236 
L 68.579197 273.123492 
L 68.82385 273.123492 
L 69.068503 273.991231 
L 69.313156 274.034618 
L 69.557809 273.557361 
L 69.802462 273.730909 
L 70.047115 273.080105 
L 70.291768 273.383814 
L 70.536421 273.123492 
L 70.781074 273.123492 
L 71.025727 273.644135 
L 71.759686 274.078005 
L 72.004339 274.164778 
L 72.248992 275.336226 
L 72.493645 274.945743 
L 72.738298 273.427201 
L 72.982951 273.730909 
L 73.472257 272.949944 
L 74.206216 275.900256 
L 74.450869 275.422999 
L 74.940175 275.770095 
L 75.184828 276.334125 
L 75.429481 274.208165 
L 75.674134 273.383814 
L 75.918787 273.383814 
L 76.16344 272.906557 
L 76.408093 273.383814 
L 76.652746 272.949944 
L 76.897399 272.993331 
L 77.142052 272.082206 
L 77.386705 272.429301 
L 77.631358 272.429301 
L 77.876011 273.080105 
L 78.365317 273.427201 
L 78.60997 272.86317 
L 78.854623 272.949944 
L 79.099276 272.559462 
L 79.343929 271.908658 
L 79.588582 272.255753 
L 79.833235 272.29914 
L 80.077888 272.646236 
L 80.322541 273.904457 
L 80.567194 273.947844 
L 80.811847 275.075904 
L 81.0565 275.379613 
L 81.301153 275.943643 
L 81.545806 275.813482 
L 81.790459 275.856869 
L 82.035112 276.203964 
L 82.279765 276.334125 
L 82.524418 276.073803 
L 82.769071 274.642035 
L 83.013724 274.381713 
L 83.258377 273.687522 
L 83.50303 273.644135 
L 83.747683 274.468487 
L 83.992336 274.685422 
L 84.236989 274.728809 
L 84.481643 272.16898 
L 84.726296 272.255753 
L 84.970949 271.952045 
L 85.215602 272.602849 
L 85.460255 272.602849 
L 85.704908 272.86317 
L 85.949561 272.689623 
L 86.194214 273.080105 
L 86.928173 272.689623 
L 87.172826 272.602849 
L 87.417479 273.080105 
L 87.662132 272.689623 
L 87.906785 271.604949 
L 88.151438 271.821884 
L 88.396091 270.737211 
L 88.885397 269.826085 
L 89.13005 263.96885 
L 89.374703 263.274659 
L 89.619356 263.53498 
L 90.108662 261.409021 
L 90.597968 258.675644 
L 90.842621 260.367734 
L 91.087274 260.194187 
L 91.331927 259.196287 
L 91.821233 260.628056 
L 92.065886 260.28096 
L 92.310539 260.1508 
L 92.555192 259.890478 
L 92.799845 259.803704 
L 93.044498 258.935966 
L 93.289151 258.58887 
L 93.533804 257.200488 
L 93.778457 257.764518 
L 94.02311 257.851292 
L 94.267763 257.677745 
L 94.512416 257.157101 
L 94.757069 256.940167 
L 95.491028 261.365634 
L 95.735681 260.454508 
L 95.980334 261.148699 
L 96.224987 259.933865 
L 96.46964 259.890478 
L 96.714293 259.413222 
L 96.958946 259.326448 
L 97.203599 258.935966 
L 97.448252 259.499996 
L 97.692905 258.241775 
L 97.937558 259.109513 
L 98.182211 259.1529 
L 98.426864 259.543383 
L 98.671517 258.545483 
L 98.91617 258.502096 
L 99.160823 257.590971 
L 99.405476 258.371935 
L 99.650129 258.545483 
L 99.894782 260.194187 
L 100.139435 259.543383 
L 100.384088 260.628056 
L 100.628741 260.888377 
L 100.873394 260.28096 
L 101.118047 259.326448 
L 101.607353 258.371935 
L 101.852006 258.328548 
L 102.341312 257.374036 
L 102.585965 257.243875 
L 102.830618 258.198388 
L 103.075271 257.721131 
L 103.319924 256.289363 
L 103.564577 257.590971 
L 103.80923 257.330649 
L 104.053883 255.942267 
L 104.298536 259.71693 
L 104.543189 257.287262 
L 104.787842 258.458709 
L 105.032495 256.46291 
L 105.277148 257.504197 
L 105.521801 257.677745 
L 105.766454 257.330649 
L 106.011107 256.289363 
L 106.25576 254.597272 
L 106.500413 255.812106 
L 106.745066 254.727433 
L 106.98972 254.423725 
L 107.234373 253.816308 
L 107.968332 259.543383 
L 108.212985 258.675644 
L 108.457638 259.71693 
L 108.702291 260.107413 
L 108.946944 258.719031 
L 109.191597 258.241775 
L 109.43625 259.022739 
L 109.680903 260.541282 
L 109.925556 260.628056 
L 110.170209 259.196287 
L 110.414862 258.979352 
L 110.659515 258.241775 
L 110.904168 258.849192 
L 111.638127 263.361433 
L 111.88278 263.621754 
L 112.127433 262.363533 
L 112.372086 262.537081 
L 112.861392 260.28096 
L 113.350698 260.020639 
L 113.595351 259.847091 
L 113.840004 258.545483 
L 114.084657 259.413222 
L 114.32931 257.547584 
L 114.573963 257.504197 
L 114.818616 255.725333 
L 115.063269 257.026941 
L 115.307922 256.506297 
L 115.552575 256.636458 
L 115.797228 255.89888 
L 116.041881 254.553885 
L 116.286534 254.77082 
L 116.531187 256.419524 
L 116.77584 256.115815 
L 117.020493 255.378237 
L 117.265146 256.289363 
L 117.509799 246.397142 
L 117.754452 242.882801 
L 117.999105 243.273283 
L 118.243758 244.141022 
L 118.488411 243.186509 
L 118.733064 243.707153 
L 119.22237 246.440529 
L 119.467023 246.180208 
L 119.711676 246.223595 
L 119.956329 247.395042 
L 120.200982 247.611976 
L 120.445635 246.397142 
L 120.690288 246.483916 
L 120.934941 247.395042 
L 121.179594 247.091333 
L 121.424247 249.304067 
L 121.6689 249.477614 
L 121.913553 250.215192 
L 122.158206 249.26068 
L 122.402859 249.607775 
L 122.647512 250.301966 
L 122.892165 251.863896 
L 123.136818 251.039544 
L 123.381471 249.477614 
L 123.626124 251.343253 
L 123.870777 248.479715 
L 124.360083 247.655363 
L 124.604736 248.523102 
L 125.338695 247.611976 
L 125.583348 248.826811 
L 125.828001 248.523102 
L 126.072654 247.308268 
L 126.317307 247.69875 
L 126.56196 247.742137 
L 126.806613 247.959072 
L 127.051266 248.436328 
L 127.540572 248.69665 
L 127.785225 248.609876 
L 128.029878 248.349554 
L 128.519184 249.781323 
L 128.763837 248.826811 
L 129.253143 249.868097 
L 129.497797 248.913584 
L 129.74245 250.518901 
L 130.231756 251.5168 
L 130.476409 248.176007 
L 130.721062 248.045846 
L 130.965715 244.791826 
L 131.210368 245.095534 
L 131.455021 247.004559 
L 131.699674 245.833112 
L 131.944327 245.833112 
L 132.18898 246.397142 
L 132.433633 245.789725 
L 132.922939 247.047946 
L 133.167592 246.917786 
L 133.412245 247.091333 
L 133.656898 250.171805 
L 133.901551 250.085032 
L 134.146204 249.781323 
L 134.390857 249.694549 
L 134.63551 249.087132 
L 134.880163 250.432127 
L 135.124816 250.432127 
L 135.614122 248.089233 
L 135.858775 248.436328 
L 136.103428 247.915685 
L 136.348081 247.004559 
L 136.592734 245.355856 
L 136.837387 245.269082 
L 137.08204 246.136821 
L 137.326693 248.870197 
L 137.571346 247.525203 
L 137.815999 246.874399 
L 138.060652 247.481816 
L 138.305305 246.614077 
L 138.549958 247.959072 
L 138.794611 248.002459 
L 139.283917 246.961172 
L 139.52857 247.872298 
L 139.773223 247.308268 
L 140.017876 249.347454 
L 140.262529 247.525203 
L 140.507182 247.091333 
L 140.751835 247.004559 
L 141.241141 249.868097 
L 141.485794 249.390841 
L 141.730447 249.521001 
L 141.9751 248.13262 
L 142.219753 247.611976 
L 142.464406 245.529404 
L 142.953712 243.403444 
L 143.198365 243.31667 
L 143.443018 243.707153 
L 143.687671 244.835213 
L 143.932324 244.921987 
L 144.176977 244.791826 
L 144.666283 242.796027 
L 144.910936 243.707153 
L 145.155589 242.665866 
L 145.400242 242.579092 
L 145.644895 242.75264 
L 145.889548 243.273283 
L 146.623507 246.700851 
L 146.86816 246.961172 
L 147.112813 248.566489 
L 147.357466 249.304067 
L 148.091425 249.82471 
L 148.580731 249.737936 
L 148.825384 248.783424 
L 149.070037 247.264881 
L 149.803996 248.826811 
L 150.048649 248.870197 
L 150.293302 247.655363 
L 150.537955 236.938791 
L 150.782608 238.153625 
L 151.027261 238.110238 
L 151.516567 236.374761 
L 151.76122 236.2446 
L 152.005874 235.637183 
L 152.250527 236.765244 
L 152.49518 236.982178 
L 152.739833 236.591696 
L 152.984486 236.721857 
L 153.229139 237.719756 
L 153.473792 237.80653 
L 153.718445 237.329274 
L 153.963098 238.197012 
L 154.452404 236.635083 
L 154.697057 235.203314 
L 154.94171 234.639284 
L 155.186363 234.899606 
L 155.431016 234.118641 
L 155.675669 235.073153 
L 155.920322 232.773646 
L 156.409628 231.038169 
L 156.654281 230.040269 
L 156.898934 230.604299 
L 157.143587 230.864621 
L 157.632893 231.992681 
L 157.877546 233.250902 
L 158.122199 232.817033 
L 158.366852 232.817033 
L 158.611505 234.292189 
L 158.856158 233.42445 
L 159.100811 233.467837 
L 159.345464 232.383164 
L 159.590117 232.036068 
L 159.83477 234.335575 
L 160.079423 234.856219 
L 160.324076 237.849917 
L 160.568729 236.504922 
L 160.813382 236.071053 
L 161.302688 239.542007 
L 161.547341 238.674269 
L 161.791994 239.411846 
L 162.2813 236.721857 
L 162.525953 236.721857 
L 162.770606 235.810731 
L 163.015259 236.982178 
L 163.259912 237.2425 
L 163.749218 238.283786 
L 164.238524 235.333475 
L 164.72783 235.637183 
L 164.972483 237.893304 
L 165.217136 238.37056 
L 165.461789 230.994782 
L 165.706442 231.905907 
L 165.951095 231.949294 
L 166.440401 233.207515 
L 166.929707 235.029766 
L 167.17436 233.858319 
L 167.419013 231.992681 
L 167.908319 231.602199 
L 168.152972 233.077354 
L 168.397625 232.42655 
L 168.642278 232.86042 
L 168.886931 233.945093 
L 169.131584 232.122842 
L 169.376237 231.992681 
L 169.62089 232.686872 
L 169.865543 232.122842 
L 170.354849 232.29639 
L 170.599502 231.385264 
L 170.844155 229.779948 
L 171.088808 229.085757 
L 171.333461 228.955596 
L 171.578114 229.649787 
L 171.822767 229.259304 
L 172.06742 229.172531 
L 172.312073 227.523827 
L 172.556726 227.48044 
L 172.801379 226.569315 
L 173.046032 226.656089 
L 173.290685 226.308993 
L 173.535338 227.133345 
L 173.779991 226.525928 
L 174.024644 227.567214 
L 174.269298 227.046571 
L 174.758604 224.313194 
L 175.003257 224.66029 
L 175.24791 223.792551 
L 175.492563 224.139647 
L 175.737216 225.354481 
L 175.981869 224.443355 
L 176.226522 224.790451 
L 176.471175 224.790451 
L 176.960481 223.445456 
L 177.205134 222.274009 
L 177.449787 224.22642 
L 177.69444 222.664491 
L 177.939093 223.271908 
L 178.673052 221.536431 
L 178.917705 222.447556 
L 179.162358 220.755466 
L 179.407011 222.53433 
L 179.651664 222.838039 
L 179.896317 225.050772 
L 180.14097 224.790451 
L 180.385623 224.052873 
L 180.630276 225.137546 
L 180.874929 222.577717 
L 181.119582 224.963998 
L 181.364235 224.356581 
L 181.608888 223.228521 
L 181.853541 223.185134 
L 182.098194 222.317395 
L 182.342847 221.015788 
L 182.5875 220.798853 
L 182.832153 221.189335 
L 183.076806 222.317395 
L 183.566112 221.666591 
L 183.810765 221.796752 
L 184.055418 222.187235 
L 184.300071 222.317395 
L 185.523336 218.239024 
L 185.767989 218.933215 
L 186.012642 217.935315 
L 186.501948 219.193536 
L 186.991254 218.586119 
L 187.235907 220.668692 
L 187.48056 225.354481 
L 187.725213 225.78835 
L 187.969866 229.129144 
L 188.214519 227.697375 
L 188.459172 227.48044 
L 188.703825 228.04447 
L 188.948478 229.823335 
L 189.193131 230.127043 
L 189.437784 230.994782 
L 189.682437 229.953495 
L 189.92709 231.428651 
L 190.171743 231.949294 
L 190.661049 233.597998 
L 190.905702 232.29639 
L 191.150355 232.600098 
L 191.395008 234.812832 
L 191.639661 232.600098 
L 191.884314 235.029766 
L 192.128967 240.973776 
L 192.618273 243.143123 
L 192.862926 240.930389 
L 193.107579 239.758942 
L 193.352232 240.366359 
L 193.596885 240.279585 
L 193.841538 238.674269 
L 194.086191 239.542007 
L 194.330844 239.455233 
L 194.575497 238.977977 
L 194.82015 239.758942 
L 195.064803 238.717656 
L 195.309456 239.542007 
L 195.798762 235.593796 
L 196.043415 234.075254 
L 196.288068 235.593796 
L 196.532721 231.775746 
L 196.777375 232.86042 
L 197.022028 232.556711 
L 197.266681 231.385264 
L 197.755987 233.597998 
L 198.00064 233.901706 
L 198.489946 235.810731 
L 198.734599 235.333475 
L 198.979252 237.2425 
L 199.223905 230.560912 
L 199.468558 230.300591 
L 199.713211 229.736561 
L 199.957864 227.870923 
L 200.202517 227.48044 
L 200.44717 228.218018 
L 200.691823 230.821234 
L 200.936476 230.430752 
L 201.425782 227.697375 
L 201.670435 227.610601 
L 201.915088 231.385264 
L 202.159741 231.168329 
L 202.404394 233.250902 
L 202.649047 233.901706 
L 202.8937 235.810731 
L 203.138353 235.290088 
L 203.383006 238.066852 
L 204.116965 234.292189 
L 204.361618 234.075254 
L 204.606271 234.378962 
L 205.095577 233.554611 
L 205.34023 233.814932 
L 205.829536 234.726058 
L 206.074189 234.812832 
L 206.563495 237.632982 
L 206.808148 239.49862 
L 207.052801 238.630882 
L 207.297454 240.149424 
L 207.542107 240.322972 
L 207.78676 241.62458 
L 208.031413 240.019263 
L 208.276066 241.667967 
L 208.520719 234.292189 
L 208.765372 234.422349 
L 209.010025 234.942992 
L 209.254678 232.817033 
L 209.499331 232.556711 
L 209.743984 231.73236 
L 209.988637 233.337676 
L 210.23329 232.469937 
L 210.477943 232.122842 
L 210.722596 231.515425 
L 210.967249 230.517525 
L 211.211902 228.174631 
L 211.456555 228.782048 
L 211.945861 226.222219 
L 212.190514 226.525928 
L 212.435167 225.484641 
L 212.924473 222.621104 
L 213.169126 221.883526 
L 213.413779 220.234823 
L 213.903085 220.972401 
L 214.147738 221.015788 
L 214.392391 220.755466 
L 214.637044 220.017888 
L 215.12635 220.84224 
L 215.371003 220.972401 
L 215.615656 221.276109 
L 216.104962 222.664491 
L 216.349615 221.102561 
L 216.594268 222.057074 
L 216.838921 220.972401 
L 217.083574 223.488843 
L 217.328227 223.185134 
L 217.57288 223.271908 
L 218.062186 221.579818 
L 218.306839 221.883526 
L 218.551492 219.84434 
L 218.796145 221.709978 
L 219.040798 220.538531 
L 219.285452 221.579818 
L 219.530105 221.579818 
L 219.774758 223.66239 
L 220.019411 224.616903 
L 220.508717 222.274009 
L 220.998023 224.833837 
L 221.242676 223.922712 
L 221.487329 223.792551 
L 221.731982 223.358682 
L 221.976635 222.53433 
L 222.221288 222.360782 
L 222.465941 222.664491 
L 222.710594 223.271908 
L 222.955247 222.707878 
L 223.1999 222.794652 
L 223.444553 221.579818 
L 223.689206 223.228521 
L 224.423165 220.234823 
L 224.912471 218.282411 
L 225.64643 221.536431 
L 225.891083 223.141747 
L 226.380389 221.536431 
L 226.625042 223.619003 
L 226.869695 221.493044 
L 227.114348 216.243225 
L 227.359001 213.466461 
L 227.603654 215.245326 
L 227.848307 215.375486 
L 228.09296 215.288713 
L 228.337613 212.945818 
L 228.582266 211.861145 
L 228.826919 211.861145 
L 229.071572 211.600823 
L 229.316225 210.429376 
L 230.050184 211.904532 
L 230.294837 210.602924 
L 230.53949 210.51615 
L 230.784143 212.555336 
L 231.273449 211.383889 
L 231.518102 209.518251 
L 231.762755 210.733085 
L 232.007408 210.342602 
L 232.252061 211.774371 
L 232.496714 211.427276 
L 232.741367 211.51405 
L 232.98602 212.381788 
L 233.230673 211.947919 
L 233.475326 215.679195 
L 234.209285 213.075979 
L 234.453938 213.640009 
L 234.943244 211.861145 
L 235.187897 211.774371 
L 235.43255 211.947919 
L 235.677203 213.509848 
L 235.921856 215.89613 
L 236.166509 217.110964 
L 236.411162 214.854843 
L 236.655815 215.288713 
L 237.145121 213.466461 
L 237.389774 214.551135 
L 238.368386 209.084381 
L 238.613039 210.342602 
L 238.857692 209.995507 
L 239.102345 210.169055 
L 239.346998 208.26003 
L 239.836304 209.561638 
L 240.080957 209.605025 
L 240.32561 208.563738 
L 240.570263 211.036793 
L 240.814916 210.602924 
L 241.059569 209.431477 
L 241.304222 209.084381 
L 241.793529 211.427276 
L 242.038182 210.776472 
L 242.282835 197.586845 
L 242.527488 197.586845 
L 243.016794 197.152975 
L 243.261447 198.671518 
L 243.750753 196.979428 
L 243.995406 197.717005 
L 244.240059 195.027016 
L 244.484712 195.374111 
L 244.729365 196.415397 
L 245.463324 208.650512 
L 245.707977 208.563738 
L 246.441936 195.374111 
L 246.931242 201.274734 
L 247.175895 199.062 
L 247.420548 198.064101 
L 247.665201 200.233447 
L 247.909854 196.892654 
L 248.154507 197.673618 
L 248.39916 196.068302 
L 248.888466 195.417498 
L 249.622425 187.781398 
L 249.867078 187.217368 
L 250.111731 185.395117 
L 250.356384 185.872373 
L 250.601037 184.961248 
L 250.84569 185.525278 
L 251.090343 183.052223 
L 251.579649 189.126393 
L 251.824302 188.128494 
L 252.068955 188.085107 
L 252.558261 183.442705 
L 252.802914 183.703027 
L 253.047567 183.572866 
L 253.29222 184.483991 
L 253.536873 183.008836 
L 254.026179 179.494494 
L 254.270832 178.887077 
L 254.515485 175.502897 
L 254.760138 173.89758 
L 255.004791 175.719831 
L 255.249444 175.416123 
L 255.494097 175.58967 
L 255.73875 171.381138 
L 255.983403 170.730334 
L 256.472709 170.817108 
L 256.717362 169.081631 
L 257.206668 171.337751 
L 257.451321 172.162103 
L 257.940627 161.662465 
L 258.18528 160.057149 
L 258.429933 170.296465 
L 258.674586 174.418223 
L 258.919239 175.242575 
L 259.408545 170.253078 
L 259.653198 172.075329 
L 259.897851 170.513399 
L 260.387157 162.183109 
L 260.63181 161.575692 
L 260.876463 159.406345 
L 261.121116 160.100536 
L 261.365769 162.313269 
L 261.610422 160.621179 
L 261.855075 160.577792 
L 262.099728 158.755541 
L 262.344381 154.80733 
L 262.589034 155.631682 
L 262.833687 158.929089 
L 263.07834 153.418948 
L 263.322993 154.286687 
L 263.567646 151.379763 
L 263.812299 154.720556 
L 264.056952 155.631682 
L 264.301606 160.664566 
L 265.035565 152.030567 
L 265.524871 155.2412 
L 265.769524 154.069752 
L 266.014177 152.030567 
L 266.25883 153.635883 
L 266.748136 152.811531 
L 266.992789 150.42525 
L 267.237442 151.076054 
L 267.482095 154.199913 
L 267.726748 158.929089 
L 268.70536 167.215993 
L 268.950013 165.046646 
L 269.194666 161.098435 
L 269.439319 170.903882 
L 269.683972 168.560987 
L 269.928625 170.686947 
L 270.173278 169.645661 
L 270.417931 171.554686 
L 270.662584 172.20549 
L 270.907237 166.304867 
L 271.15189 171.467912 
L 271.396543 168.994857 
L 271.641196 174.331449 
L 271.885849 175.546283 
L 272.130502 171.07743 
L 272.375155 171.728233 
L 272.619808 177.1516 
L 272.864461 178.453208 
L 273.353767 189.690423 
L 273.59842 197.543458 
L 273.843073 197.152975 
L 274.087726 191.339126 
L 274.332379 189.73381 
L 274.577032 200.146674 
L 274.821685 194.506372 
L 275.066338 194.376212 
L 275.310991 196.849267 
L 275.800297 185.395117 
L 276.04495 188.822684 
L 276.534256 181.924162 
L 276.778909 183.7898 
L 277.023562 183.833187 
L 277.268215 184.744313 
L 277.512868 182.401419 
L 277.757521 183.269157 
L 278.246827 186.826886 
L 278.736133 188.60575 
L 278.980786 188.258654 
L 279.470092 185.395117 
L 279.714745 181.53368 
L 279.959398 181.229971 
L 280.204051 179.884977 
L 280.448704 180.709328 
L 280.693357 182.444806 
L 280.93801 183.138996 
L 281.182663 180.96965 
L 281.427316 180.796102 
L 281.671969 182.401419 
L 281.916622 182.705127 
L 282.405928 174.331449 
L 282.650581 175.329349 
L 282.895234 172.812907 
L 283.139887 173.637258 
L 283.38454 175.893379 
L 283.629193 174.635158 
L 283.873846 177.1516 
L 284.118499 174.765319 
L 284.363152 177.194987 
L 284.607805 176.891278 
L 284.852458 169.602274 
L 285.341764 172.162103 
L 285.586417 168.38744 
L 285.83107 169.385339 
L 286.075723 169.211791 
L 286.320376 169.472113 
L 286.56503 171.815007 
L 287.054336 169.385339 
L 287.543642 175.069027 
L 287.788295 172.595972 
L 288.032948 172.118716 
L 288.277601 174.157902 
L 288.522254 173.420324 
L 288.766907 170.686947 
L 289.01156 157.844415 
L 289.500866 164.178907 
L 290.479478 151.249602 
L 290.724131 156.759742 
L 290.968784 155.2412 
L 291.213437 158.148124 
L 291.45809 159.319571 
L 291.702743 158.451832 
L 291.947396 152.854918 
L 292.192049 153.158627 
L 292.436702 152.55121 
L 292.681355 151.466537 
L 292.926008 151.813632 
L 293.170661 154.460235 
L 293.415314 154.286687 
L 293.659967 158.104737 
L 293.90462 158.321672 
L 294.149273 156.716355 
L 294.393926 156.759742 
L 294.638579 154.937491 
L 294.883232 158.278285 
L 295.127885 158.885702 
L 295.372538 155.501521 
L 295.617191 155.848617 
L 295.861844 152.811531 
L 296.106497 156.93329 
L 296.35115 154.286687 
L 296.595803 154.416848 
L 296.840456 155.892004 
L 297.085109 153.288788 
L 297.329762 161.705852 
L 297.574415 165.306968 
L 298.308374 150.208316 
L 298.553027 150.295089 
L 299.042333 146.390266 
L 299.286986 146.910909 
L 299.776292 139.057874 
L 300.020945 137.062075 
L 300.265598 139.448357 
L 300.510251 140.576417 
L 300.754904 139.057874 
L 300.999557 139.318196 
L 301.24421 142.008185 
L 301.733516 143.092859 
L 301.978169 142.355281 
L 302.222822 138.190136 
L 302.712128 144.741562 
L 302.956781 147.431552 
L 303.446087 148.299291 
L 303.69074 149.687672 
L 304.180046 145.001884 
L 304.424699 146.173331 
L 304.669352 145.956396 
L 304.914005 143.179633 
L 305.158658 143.830437 
L 305.403311 142.919311 
L 305.647964 143.656889 
L 305.892617 142.181733 
L 306.13727 151.596697 
L 306.381923 149.123642 
L 306.626576 148.516225 
L 306.871229 148.689773 
L 307.115882 148.082356 
L 307.360535 145.826235 
L 307.605188 145.696075 
L 307.849841 144.307693 
L 308.094494 144.047371 
L 308.5838 141.747864 
L 308.828453 142.658989 
L 309.562413 133.374186 
L 310.051719 134.285312 
L 310.296372 138.667392 
L 310.541025 133.591121 
L 310.785678 133.808055 
L 311.030331 132.723382 
L 311.274984 128.688398 
L 311.519637 129.425975 
L 311.76429 130.727583 
L 312.008943 130.684196 
L 312.253596 128.341302 
L 312.742902 129.686297 
L 312.987555 131.335 
L 313.232208 130.337101 
L 313.476861 130.554036 
L 313.721514 130.337101 
L 313.966167 129.946619 
L 314.21082 130.814357 
L 314.455473 130.684196 
L 314.700126 128.948719 
L 314.944779 131.291613 
L 315.189432 131.595322 
L 315.434085 132.159352 
L 315.678738 136.020789 
L 315.923391 134.155151 
L 316.168044 134.892729 
L 316.412697 132.593221 
L 316.65735 133.287412 
L 316.902003 130.467262 
L 317.146656 132.159352 
L 317.391309 129.859845 
L 317.635962 128.905332 
L 317.880615 124.870348 
L 318.125268 126.649212 
L 318.859227 134.198538 
L 319.10388 134.849342 
L 319.348533 137.322397 
L 319.593186 137.322397 
L 319.837839 133.981603 
L 320.082492 141.227221 
L 320.327145 143.873824 
L 320.571798 144.220919 
L 320.816451 147.952195 
L 321.061104 154.2433 
L 321.305757 151.162828 
L 321.55041 158.278285 
L 322.284369 148.863321 
L 322.529022 155.588295 
L 322.773675 155.414747 
L 323.018328 160.881501 
L 323.262981 160.491018 
L 323.507634 160.664566 
L 323.752287 160.013762 
L 323.99694 157.49732 
L 324.486246 167.780023 
L 324.730899 167.215993 
L 324.975552 163.875199 
L 325.220205 162.920686 
L 325.464858 159.666667 
L 325.709511 159.926988 
L 325.954164 162.530204 
L 326.198817 160.881501 
L 326.44347 160.230697 
L 326.688123 162.747139 
L 326.932776 161.662465 
L 327.177429 163.918586 
L 327.911388 162.052948 
L 328.156041 164.048747 
L 328.645347 163.658264 
L 328.89 164.092134 
L 329.134653 163.875199 
L 329.379306 165.480515 
L 330.113265 157.540707 
L 330.357918 157.670868 
L 330.602571 158.581993 
L 331.091877 152.073954 
L 331.33653 152.377662 
L 331.581184 153.158627 
L 331.825837 153.158627 
L 332.07049 152.594597 
L 332.315143 153.549109 
L 332.559796 153.071853 
L 332.804449 154.980878 
L 333.293755 150.512024 
L 333.538408 150.902506 
L 333.783061 150.295089 
L 334.027714 150.295089 
L 334.272367 147.691874 
L 334.51702 146.563813 
L 334.761673 146.563813 
L 335.006326 148.559612 
L 335.250979 147.778647 
L 335.495632 148.386064 
L 335.740285 152.117341 
L 335.984938 149.774446 
L 336.229591 117.234248 
L 336.474244 123.872448 
L 336.718897 126.996307 
L 336.96355 124.826961 
L 337.452856 125.477765 
L 337.697509 125.434378 
L 338.186815 126.562438 
L 338.431468 124.523252 
L 338.676121 123.915835 
L 338.920774 126.345503 
L 339.165427 117.62473 
L 339.41008 119.620529 
L 339.654733 117.928439 
L 339.899386 114.717806 
L 340.144039 113.633132 
L 340.633345 109.467987 
L 340.877998 108.687022 
L 341.122651 107.385414 
L 341.367304 109.207665 
L 341.611957 108.600248 
L 341.85661 109.120892 
L 342.101263 108.990731 
L 342.345916 109.728309 
L 342.590569 112.938941 
L 342.835222 110.943143 
L 343.079875 110.509273 
L 343.324528 109.034118 
L 343.569181 108.253153 
L 344.058487 104.608651 
L 344.30314 104.391716 
L 344.792446 107.255253 
L 345.037099 109.381213 
L 345.526405 107.992831 
L 345.771058 106.908158 
L 346.015711 109.381213 
L 346.260364 109.207665 
L 346.505017 111.11669 
L 346.74967 112.071203 
L 347.238976 108.817183 
L 347.483629 108.036218 
L 347.728282 105.433002 
L 347.972935 105.780098 
L 348.217588 101.398018 
L 348.462241 99.315445 
L 348.706894 99.315445 
L 349.1962 95.454008 
L 349.685506 92.069827 
L 349.930159 92.894179 
L 350.174812 91.766119 
L 350.419465 88.598873 
L 350.664118 87.904682 
L 350.908771 85.171305 
L 351.153424 79.227296 
L 351.398077 80.268582 
L 351.64273 79.140522 
L 352.132036 75.799728 
L 352.376689 86.863396 
L 353.599954 68.293789 
L 353.844607 65.213317 
L 354.089261 69.291689 
L 354.333914 67.990081 
L 354.578567 67.990081 
L 354.82322 63.738161 
L 355.067873 63.347679 
L 355.312526 62.696875 
L 355.557179 62.523327 
L 355.801832 59.529629 
L 356.046485 59.442855 
L 356.291138 70.376362 
L 356.535791 75.886502 
L 356.780444 70.940392 
L 357.26975 66.558312 
L 357.514403 67.035568 
L 357.759056 60.440755 
L 358.003709 61.178332 
L 358.493015 56.796252 
L 358.737668 59.920111 
L 358.982321 60.874624 
L 359.226974 69.248302 
L 359.471627 66.992181 
L 359.71628 72.328774 
L 359.960933 72.372161 
L 360.205586 78.055849 
L 360.450239 74.151025 
L 360.694892 76.493919 
L 360.939545 70.11604 
L 361.184198 68.293789 
L 361.428851 70.593296 
L 361.673504 57.403669 
L 361.918157 59.65979 
L 362.16281 58.575116 
L 362.407463 59.65979 
L 362.652116 56.058674 
L 362.896769 56.058674 
L 363.386075 57.794152 
L 363.630728 55.581418 
L 363.875381 57.707378 
L 364.120034 50.374986 
L 364.364687 56.752865 
L 364.853993 54.106263 
L 365.098646 51.416273 
L 365.343299 55.538031 
L 365.587952 44.604525 
L 365.832605 53.108363 
L 366.077258 50.939017 
L 366.321911 56.058674 
L 366.566564 55.84174 
L 366.811217 60.918011 
L 367.05587 58.618503 
L 367.300523 53.629006 
L 367.545176 53.281911 
L 367.789829 49.290313 
L 368.034482 55.885127 
L 368.279135 53.108363 
L 368.523788 54.106263 
L 368.768441 43.346304 
L 369.013094 44.430977 
L 369.257747 46.947419 
L 369.5024 50.635308 
L 369.747053 49.89773 
L 369.991706 46.730484 
L 370.236359 37.185359 
L 370.481012 37.706002 
L 370.725665 39.615027 
L 370.970318 39.918736 
L 371.214971 44.474364 
L 371.459624 36.534555 
L 371.704277 40.439379 
L 371.94893 35.102787 
L 372.193583 35.406495 
L 372.438236 38.400193 
L 372.927542 40.135671 
L 373.172195 43.606625 
L 373.416848 43.129369 
L 373.661501 40.135671 
L 373.906154 43.997108 
L 374.150807 44.908233 
L 374.39546 52.544333 
L 374.640113 54.193036 
L 374.884766 48.422575 
L 375.129419 46.470163 
L 375.374072 42.26163 
L 375.618725 47.120967 
L 375.863378 46.860645 
L 376.108031 50.418373 
L 376.352684 48.422575 
L 376.597338 47.728384 
L 376.841991 56.709478 
L 377.086644 55.538031 
L 377.331297 55.928514 
L 377.57595 52.934815 
L 377.820603 57.143348 
L 378.065256 55.40787 
L 378.309909 54.626906 
L 378.554562 55.321097 
L 379.043868 50.418373 
L 379.288521 55.494644 
L 379.533174 49.984504 
L 379.777827 53.976102 
L 380.02248 52.891428 
L 380.511786 38.834063 
L 380.756439 38.009711 
L 381.001092 38.703902 
L 381.245745 38.183259 
L 381.490398 47.945318 
L 381.490398 47.945318 
" style="fill:none;stroke:#ff7f0e;stroke-linecap:square;stroke-width:1.5;"/>
   </g>
   <g id="patch_3">
    <path d="M 40.603125 288.430125 
L 40.603125 22.318125 
" style="fill:none;stroke:#000000;stroke-linecap:square;stroke-linejoin:miter;stroke-width:0.8;"/>
   </g>
   <g id="patch_4">
    <path d="M 397.723125 288.430125 
L 397.723125 22.318125 
" style="fill:none;stroke:#000000;stroke-linecap:square;stroke-linejoin:miter;stroke-width:0.8;"/>
   </g>
   <g id="patch_5">
    <path d="M 40.603125 288.430125 
L 397.723125 288.430125 
" style="fill:none;stroke:#000000;stroke-linecap:square;stroke-linejoin:miter;stroke-width:0.8;"/>
   </g>
   <g id="patch_6">
    <path d="M 40.603125 22.318125 
L 397.723125 22.318125 
" style="fill:none;stroke:#000000;stroke-linecap:square;stroke-linejoin:miter;stroke-width:0.8;"/>
   </g>
   <g id="text_16">
    <!-- Training: ATVI -->
    <defs>
     <path d="M -0.296875 72.90625 
L 61.375 72.90625 
L 61.375 64.59375 
L 35.5 64.59375 
L 35.5 0 
L 25.59375 0 
L 25.59375 64.59375 
L -0.296875 64.59375 
z
" id="DejaVuSans-84"/>
     <path d="M 54.890625 33.015625 
L 54.890625 0 
L 45.90625 0 
L 45.90625 32.71875 
Q 45.90625 40.484375 42.875 44.328125 
Q 39.84375 48.1875 33.796875 48.1875 
Q 26.515625 48.1875 22.3125 43.546875 
Q 18.109375 38.921875 18.109375 30.90625 
L 18.109375 0 
L 9.078125 0 
L 9.078125 54.6875 
L 18.109375 54.6875 
L 18.109375 46.1875 
Q 21.34375 51.125 25.703125 53.5625 
Q 30.078125 56 35.796875 56 
Q 45.21875 56 50.046875 50.171875 
Q 54.890625 44.34375 54.890625 33.015625 
z
" id="DejaVuSans-110"/>
     <path d="M 45.40625 27.984375 
Q 45.40625 37.75 41.375 43.109375 
Q 37.359375 48.484375 30.078125 48.484375 
Q 22.859375 48.484375 18.828125 43.109375 
Q 14.796875 37.75 14.796875 27.984375 
Q 14.796875 18.265625 18.828125 12.890625 
Q 22.859375 7.515625 30.078125 7.515625 
Q 37.359375 7.515625 41.375 12.890625 
Q 45.40625 18.265625 45.40625 27.984375 
z
M 54.390625 6.78125 
Q 54.390625 -7.171875 48.1875 -13.984375 
Q 42 -20.796875 29.203125 -20.796875 
Q 24.46875 -20.796875 20.265625 -20.09375 
Q 16.0625 -19.390625 12.109375 -17.921875 
L 12.109375 -9.1875 
Q 16.0625 -11.328125 19.921875 -12.34375 
Q 23.78125 -13.375 27.78125 -13.375 
Q 36.625 -13.375 41.015625 -8.765625 
Q 45.40625 -4.15625 45.40625 5.171875 
L 45.40625 9.625 
Q 42.625 4.78125 38.28125 2.390625 
Q 33.9375 0 27.875 0 
Q 17.828125 0 11.671875 7.65625 
Q 5.515625 15.328125 5.515625 27.984375 
Q 5.515625 40.671875 11.671875 48.328125 
Q 17.828125 56 27.875 56 
Q 33.9375 56 38.28125 53.609375 
Q 42.625 51.21875 45.40625 46.390625 
L 45.40625 54.6875 
L 54.390625 54.6875 
z
" id="DejaVuSans-103"/>
     <path d="M 11.71875 12.40625 
L 22.015625 12.40625 
L 22.015625 0 
L 11.71875 0 
z
M 11.71875 51.703125 
L 22.015625 51.703125 
L 22.015625 39.3125 
L 11.71875 39.3125 
z
" id="DejaVuSans-58"/>
     <path d="M 34.1875 63.1875 
L 20.796875 26.90625 
L 47.609375 26.90625 
z
M 28.609375 72.90625 
L 39.796875 72.90625 
L 67.578125 0 
L 57.328125 0 
L 50.6875 18.703125 
L 17.828125 18.703125 
L 11.1875 0 
L 0.78125 0 
z
" id="DejaVuSans-65"/>
     <path d="M 28.609375 0 
L 0.78125 72.90625 
L 11.078125 72.90625 
L 34.1875 11.53125 
L 57.328125 72.90625 
L 67.578125 72.90625 
L 39.796875 0 
z
" id="DejaVuSans-86"/>
     <path d="M 9.8125 72.90625 
L 19.671875 72.90625 
L 19.671875 0 
L 9.8125 0 
z
" id="DejaVuSans-73"/>
    </defs>
    <g transform="translate(178.385625 16.318125)scale(0.12 -0.12)">
     <use xlink:href="#DejaVuSans-84"/>
     <use x="46.333984" xlink:href="#DejaVuSans-114"/>
     <use x="87.447266" xlink:href="#DejaVuSans-97"/>
     <use x="148.726562" xlink:href="#DejaVuSans-105"/>
     <use x="176.509766" xlink:href="#DejaVuSans-110"/>
     <use x="239.888672" xlink:href="#DejaVuSans-105"/>
     <use x="267.671875" xlink:href="#DejaVuSans-110"/>
     <use x="331.050781" xlink:href="#DejaVuSans-103"/>
     <use x="394.527344" xlink:href="#DejaVuSans-58"/>
     <use x="428.21875" xlink:href="#DejaVuSans-32"/>
     <use x="460.005859" xlink:href="#DejaVuSans-65"/>
     <use x="520.664062" xlink:href="#DejaVuSans-84"/>
     <use x="581.748047" xlink:href="#DejaVuSans-86"/>
     <use x="650.15625" xlink:href="#DejaVuSans-73"/>
    </g>
   </g>
   <g id="legend_1">
    <g id="patch_7">
     <path d="M 47.603125 59.674375 
L 131.33125 59.674375 
Q 133.33125 59.674375 133.33125 57.674375 
L 133.33125 29.318125 
Q 133.33125 27.318125 131.33125 27.318125 
L 47.603125 27.318125 
Q 45.603125 27.318125 45.603125 29.318125 
L 45.603125 57.674375 
Q 45.603125 59.674375 47.603125 59.674375 
z
" style="fill:#ffffff;opacity:0.8;stroke:#cccccc;stroke-linejoin:miter;"/>
    </g>
    <g id="line2d_29">
     <path d="M 49.603125 35.416562 
L 69.603125 35.416562 
" style="fill:none;stroke:#1f77b4;stroke-linecap:square;stroke-width:1.5;"/>
    </g>
    <g id="line2d_30"/>
    <g id="text_17">
     <!-- Predicted -->
     <defs>
      <path d="M 45.40625 46.390625 
L 45.40625 75.984375 
L 54.390625 75.984375 
L 54.390625 0 
L 45.40625 0 
L 45.40625 8.203125 
Q 42.578125 3.328125 38.25 0.953125 
Q 33.9375 -1.421875 27.875 -1.421875 
Q 17.96875 -1.421875 11.734375 6.484375 
Q 5.515625 14.40625 5.515625 27.296875 
Q 5.515625 40.1875 11.734375 48.09375 
Q 17.96875 56 27.875 56 
Q 33.9375 56 38.25 53.625 
Q 42.578125 51.265625 45.40625 46.390625 
z
M 14.796875 27.296875 
Q 14.796875 17.390625 18.875 11.75 
Q 22.953125 6.109375 30.078125 6.109375 
Q 37.203125 6.109375 41.296875 11.75 
Q 45.40625 17.390625 45.40625 27.296875 
Q 45.40625 37.203125 41.296875 42.84375 
Q 37.203125 48.484375 30.078125 48.484375 
Q 22.953125 48.484375 18.875 42.84375 
Q 14.796875 37.203125 14.796875 27.296875 
z
" id="DejaVuSans-100"/>
      <path d="M 18.3125 70.21875 
L 18.3125 54.6875 
L 36.8125 54.6875 
L 36.8125 47.703125 
L 18.3125 47.703125 
L 18.3125 18.015625 
Q 18.3125 11.328125 20.140625 9.421875 
Q 21.96875 7.515625 27.59375 7.515625 
L 36.8125 7.515625 
L 36.8125 0 
L 27.59375 0 
Q 17.1875 0 13.234375 3.875 
Q 9.28125 7.765625 9.28125 18.015625 
L 9.28125 47.703125 
L 2.6875 47.703125 
L 2.6875 54.6875 
L 9.28125 54.6875 
L 9.28125 70.21875 
z
" id="DejaVuSans-116"/>
     </defs>
     <g transform="translate(77.603125 38.916562)scale(0.1 -0.1)">
      <use xlink:href="#DejaVuSans-80"/>
      <use x="58.552734" xlink:href="#DejaVuSans-114"/>
      <use x="97.416016" xlink:href="#DejaVuSans-101"/>
      <use x="158.939453" xlink:href="#DejaVuSans-100"/>
      <use x="222.416016" xlink:href="#DejaVuSans-105"/>
      <use x="250.199219" xlink:href="#DejaVuSans-99"/>
      <use x="305.179688" xlink:href="#DejaVuSans-116"/>
      <use x="344.388672" xlink:href="#DejaVuSans-101"/>
      <use x="405.912109" xlink:href="#DejaVuSans-100"/>
     </g>
    </g>
    <g id="line2d_31">
     <path d="M 49.603125 50.094687 
L 69.603125 50.094687 
" style="fill:none;stroke:#ff7f0e;stroke-linecap:square;stroke-width:1.5;"/>
    </g>
    <g id="line2d_32"/>
    <g id="text_18">
     <!-- True value -->
     <defs>
      <path d="M 8.5 21.578125 
L 8.5 54.6875 
L 17.484375 54.6875 
L 17.484375 21.921875 
Q 17.484375 14.15625 20.5 10.265625 
Q 23.53125 6.390625 29.59375 6.390625 
Q 36.859375 6.390625 41.078125 11.03125 
Q 45.3125 15.671875 45.3125 23.6875 
L 45.3125 54.6875 
L 54.296875 54.6875 
L 54.296875 0 
L 45.3125 0 
L 45.3125 8.40625 
Q 42.046875 3.421875 37.71875 1 
Q 33.40625 -1.421875 27.6875 -1.421875 
Q 18.265625 -1.421875 13.375 4.4375 
Q 8.5 10.296875 8.5 21.578125 
z
M 31.109375 56 
z
" id="DejaVuSans-117"/>
      <path d="M 2.984375 54.6875 
L 12.5 54.6875 
L 29.59375 8.796875 
L 46.6875 54.6875 
L 56.203125 54.6875 
L 35.6875 0 
L 23.484375 0 
z
" id="DejaVuSans-118"/>
      <path d="M 9.421875 75.984375 
L 18.40625 75.984375 
L 18.40625 0 
L 9.421875 0 
z
" id="DejaVuSans-108"/>
     </defs>
     <g transform="translate(77.603125 53.594687)scale(0.1 -0.1)">
      <use xlink:href="#DejaVuSans-84"/>
      <use x="46.333984" xlink:href="#DejaVuSans-114"/>
      <use x="87.447266" xlink:href="#DejaVuSans-117"/>
      <use x="150.826172" xlink:href="#DejaVuSans-101"/>
      <use x="212.349609" xlink:href="#DejaVuSans-32"/>
      <use x="244.136719" xlink:href="#DejaVuSans-118"/>
      <use x="303.316406" xlink:href="#DejaVuSans-97"/>
      <use x="364.595703" xlink:href="#DejaVuSans-108"/>
      <use x="392.378906" xlink:href="#DejaVuSans-117"/>
      <use x="455.757812" xlink:href="#DejaVuSans-101"/>
     </g>
    </g>
   </g>
  </g>
 </g>
 <defs>
  <clipPath id="pfab5fda427">
   <rect height="266.112" width="357.12" x="40.603125" y="22.318125"/>
  </clipPath>
 </defs>
</svg>
