<?xml version="1.0" encoding="utf-8" standalone="no"?>
<!DOCTYPE svg PUBLIC "-//W3C//DTD SVG 1.1//EN"
  "http://www.w3.org/Graphics/SVG/1.1/DTD/svg11.dtd">
<!-- Created with matplotlib (https://matplotlib.org/) -->
<svg height="325.986375pt" version="1.1" viewBox="0 0 411.285625 325.986375" width="411.285625pt" xmlns="http://www.w3.org/2000/svg" xmlns:xlink="http://www.w3.org/1999/xlink">
 <defs>
  <style type="text/css">
*{stroke-linecap:butt;stroke-linejoin:round;}
  </style>
 </defs>
 <g id="figure_1">
  <g id="patch_1">
   <path d="M 0 325.986375 
L 411.285625 325.986375 
L 411.285625 0 
L 0 0 
z
" style="fill:#ffffff;"/>
  </g>
  <g id="axes_1">
   <g id="patch_2">
    <path d="M 46.965625 288.430125 
L 404.085625 288.430125 
L 404.085625 22.318125 
L 46.965625 22.318125 
z
" style="fill:#ffffff;"/>
   </g>
   <g id="matplotlib.axis_1">
    <g id="xtick_1">
     <g id="line2d_1">
      <path clip-path="url(#p8a55609c54)" d="M 63.198352 288.430125 
L 63.198352 22.318125 
" style="fill:none;stroke:#b0b0b0;stroke-dasharray:2.96,1.28;stroke-dashoffset:0;stroke-width:0.8;"/>
     </g>
     <g id="line2d_2">
      <defs>
       <path d="M 0 0 
L 0 3.5 
" id="mb0d73d81c6" style="stroke:#000000;stroke-width:0.8;"/>
      </defs>
      <g>
       <use style="stroke:#000000;stroke-width:0.8;" x="63.198352" xlink:href="#mb0d73d81c6" y="288.430125"/>
      </g>
     </g>
     <g id="text_1">
      <!-- 0 -->
      <defs>
       <path d="M 31.78125 66.40625 
Q 24.171875 66.40625 20.328125 58.90625 
Q 16.5 51.421875 16.5 36.375 
Q 16.5 21.390625 20.328125 13.890625 
Q 24.171875 6.390625 31.78125 6.390625 
Q 39.453125 6.390625 43.28125 13.890625 
Q 47.125 21.390625 47.125 36.375 
Q 47.125 51.421875 43.28125 58.90625 
Q 39.453125 66.40625 31.78125 66.40625 
z
M 31.78125 74.21875 
Q 44.046875 74.21875 50.515625 64.515625 
Q 56.984375 54.828125 56.984375 36.375 
Q 56.984375 17.96875 50.515625 8.265625 
Q 44.046875 -1.421875 31.78125 -1.421875 
Q 19.53125 -1.421875 13.0625 8.265625 
Q 6.59375 17.96875 6.59375 36.375 
Q 6.59375 54.828125 13.0625 64.515625 
Q 19.53125 74.21875 31.78125 74.21875 
z
" id="DejaVuSans-48"/>
      </defs>
      <g transform="translate(60.017102 303.028562)scale(0.1 -0.1)">
       <use xlink:href="#DejaVuSans-48"/>
      </g>
     </g>
    </g>
    <g id="xtick_2">
     <g id="line2d_3">
      <path clip-path="url(#p8a55609c54)" d="M 112.128954 288.430125 
L 112.128954 22.318125 
" style="fill:none;stroke:#b0b0b0;stroke-dasharray:2.96,1.28;stroke-dashoffset:0;stroke-width:0.8;"/>
     </g>
     <g id="line2d_4">
      <g>
       <use style="stroke:#000000;stroke-width:0.8;" x="112.128954" xlink:href="#mb0d73d81c6" y="288.430125"/>
      </g>
     </g>
     <g id="text_2">
      <!-- 200 -->
      <defs>
       <path d="M 19.1875 8.296875 
L 53.609375 8.296875 
L 53.609375 0 
L 7.328125 0 
L 7.328125 8.296875 
Q 12.9375 14.109375 22.625 23.890625 
Q 32.328125 33.6875 34.8125 36.53125 
Q 39.546875 41.84375 41.421875 45.53125 
Q 43.3125 49.21875 43.3125 52.78125 
Q 43.3125 58.59375 39.234375 62.25 
Q 35.15625 65.921875 28.609375 65.921875 
Q 23.96875 65.921875 18.8125 64.3125 
Q 13.671875 62.703125 7.8125 59.421875 
L 7.8125 69.390625 
Q 13.765625 71.78125 18.9375 73 
Q 24.125 74.21875 28.421875 74.21875 
Q 39.75 74.21875 46.484375 68.546875 
Q 53.21875 62.890625 53.21875 53.421875 
Q 53.21875 48.921875 51.53125 44.890625 
Q 49.859375 40.875 45.40625 35.40625 
Q 44.1875 33.984375 37.640625 27.21875 
Q 31.109375 20.453125 19.1875 8.296875 
z
" id="DejaVuSans-50"/>
      </defs>
      <g transform="translate(102.585204 303.028562)scale(0.1 -0.1)">
       <use xlink:href="#DejaVuSans-50"/>
       <use x="63.623047" xlink:href="#DejaVuSans-48"/>
       <use x="127.246094" xlink:href="#DejaVuSans-48"/>
      </g>
     </g>
    </g>
    <g id="xtick_3">
     <g id="line2d_5">
      <path clip-path="url(#p8a55609c54)" d="M 161.059557 288.430125 
L 161.059557 22.318125 
" style="fill:none;stroke:#b0b0b0;stroke-dasharray:2.96,1.28;stroke-dashoffset:0;stroke-width:0.8;"/>
     </g>
     <g id="line2d_6">
      <g>
       <use style="stroke:#000000;stroke-width:0.8;" x="161.059557" xlink:href="#mb0d73d81c6" y="288.430125"/>
      </g>
     </g>
     <g id="text_3">
      <!-- 400 -->
      <defs>
       <path d="M 37.796875 64.3125 
L 12.890625 25.390625 
L 37.796875 25.390625 
z
M 35.203125 72.90625 
L 47.609375 72.90625 
L 47.609375 25.390625 
L 58.015625 25.390625 
L 58.015625 17.1875 
L 47.609375 17.1875 
L 47.609375 0 
L 37.796875 0 
L 37.796875 17.1875 
L 4.890625 17.1875 
L 4.890625 26.703125 
z
" id="DejaVuSans-52"/>
      </defs>
      <g transform="translate(151.515807 303.028562)scale(0.1 -0.1)">
       <use xlink:href="#DejaVuSans-52"/>
       <use x="63.623047" xlink:href="#DejaVuSans-48"/>
       <use x="127.246094" xlink:href="#DejaVuSans-48"/>
      </g>
     </g>
    </g>
    <g id="xtick_4">
     <g id="line2d_7">
      <path clip-path="url(#p8a55609c54)" d="M 209.990159 288.430125 
L 209.990159 22.318125 
" style="fill:none;stroke:#b0b0b0;stroke-dasharray:2.96,1.28;stroke-dashoffset:0;stroke-width:0.8;"/>
     </g>
     <g id="line2d_8">
      <g>
       <use style="stroke:#000000;stroke-width:0.8;" x="209.990159" xlink:href="#mb0d73d81c6" y="288.430125"/>
      </g>
     </g>
     <g id="text_4">
      <!-- 600 -->
      <defs>
       <path d="M 33.015625 40.375 
Q 26.375 40.375 22.484375 35.828125 
Q 18.609375 31.296875 18.609375 23.390625 
Q 18.609375 15.53125 22.484375 10.953125 
Q 26.375 6.390625 33.015625 6.390625 
Q 39.65625 6.390625 43.53125 10.953125 
Q 47.40625 15.53125 47.40625 23.390625 
Q 47.40625 31.296875 43.53125 35.828125 
Q 39.65625 40.375 33.015625 40.375 
z
M 52.59375 71.296875 
L 52.59375 62.3125 
Q 48.875 64.0625 45.09375 64.984375 
Q 41.3125 65.921875 37.59375 65.921875 
Q 27.828125 65.921875 22.671875 59.328125 
Q 17.53125 52.734375 16.796875 39.40625 
Q 19.671875 43.65625 24.015625 45.921875 
Q 28.375 48.1875 33.59375 48.1875 
Q 44.578125 48.1875 50.953125 41.515625 
Q 57.328125 34.859375 57.328125 23.390625 
Q 57.328125 12.15625 50.6875 5.359375 
Q 44.046875 -1.421875 33.015625 -1.421875 
Q 20.359375 -1.421875 13.671875 8.265625 
Q 6.984375 17.96875 6.984375 36.375 
Q 6.984375 53.65625 15.1875 63.9375 
Q 23.390625 74.21875 37.203125 74.21875 
Q 40.921875 74.21875 44.703125 73.484375 
Q 48.484375 72.75 52.59375 71.296875 
z
" id="DejaVuSans-54"/>
      </defs>
      <g transform="translate(200.446409 303.028562)scale(0.1 -0.1)">
       <use xlink:href="#DejaVuSans-54"/>
       <use x="63.623047" xlink:href="#DejaVuSans-48"/>
       <use x="127.246094" xlink:href="#DejaVuSans-48"/>
      </g>
     </g>
    </g>
    <g id="xtick_5">
     <g id="line2d_9">
      <path clip-path="url(#p8a55609c54)" d="M 258.920761 288.430125 
L 258.920761 22.318125 
" style="fill:none;stroke:#b0b0b0;stroke-dasharray:2.96,1.28;stroke-dashoffset:0;stroke-width:0.8;"/>
     </g>
     <g id="line2d_10">
      <g>
       <use style="stroke:#000000;stroke-width:0.8;" x="258.920761" xlink:href="#mb0d73d81c6" y="288.430125"/>
      </g>
     </g>
     <g id="text_5">
      <!-- 800 -->
      <defs>
       <path d="M 31.78125 34.625 
Q 24.75 34.625 20.71875 30.859375 
Q 16.703125 27.09375 16.703125 20.515625 
Q 16.703125 13.921875 20.71875 10.15625 
Q 24.75 6.390625 31.78125 6.390625 
Q 38.8125 6.390625 42.859375 10.171875 
Q 46.921875 13.96875 46.921875 20.515625 
Q 46.921875 27.09375 42.890625 30.859375 
Q 38.875 34.625 31.78125 34.625 
z
M 21.921875 38.8125 
Q 15.578125 40.375 12.03125 44.71875 
Q 8.5 49.078125 8.5 55.328125 
Q 8.5 64.0625 14.71875 69.140625 
Q 20.953125 74.21875 31.78125 74.21875 
Q 42.671875 74.21875 48.875 69.140625 
Q 55.078125 64.0625 55.078125 55.328125 
Q 55.078125 49.078125 51.53125 44.71875 
Q 48 40.375 41.703125 38.8125 
Q 48.828125 37.15625 52.796875 32.3125 
Q 56.78125 27.484375 56.78125 20.515625 
Q 56.78125 9.90625 50.3125 4.234375 
Q 43.84375 -1.421875 31.78125 -1.421875 
Q 19.734375 -1.421875 13.25 4.234375 
Q 6.78125 9.90625 6.78125 20.515625 
Q 6.78125 27.484375 10.78125 32.3125 
Q 14.796875 37.15625 21.921875 38.8125 
z
M 18.3125 54.390625 
Q 18.3125 48.734375 21.84375 45.5625 
Q 25.390625 42.390625 31.78125 42.390625 
Q 38.140625 42.390625 41.71875 45.5625 
Q 45.3125 48.734375 45.3125 54.390625 
Q 45.3125 60.0625 41.71875 63.234375 
Q 38.140625 66.40625 31.78125 66.40625 
Q 25.390625 66.40625 21.84375 63.234375 
Q 18.3125 60.0625 18.3125 54.390625 
z
" id="DejaVuSans-56"/>
      </defs>
      <g transform="translate(249.377011 303.028562)scale(0.1 -0.1)">
       <use xlink:href="#DejaVuSans-56"/>
       <use x="63.623047" xlink:href="#DejaVuSans-48"/>
       <use x="127.246094" xlink:href="#DejaVuSans-48"/>
      </g>
     </g>
    </g>
    <g id="xtick_6">
     <g id="line2d_11">
      <path clip-path="url(#p8a55609c54)" d="M 307.851363 288.430125 
L 307.851363 22.318125 
" style="fill:none;stroke:#b0b0b0;stroke-dasharray:2.96,1.28;stroke-dashoffset:0;stroke-width:0.8;"/>
     </g>
     <g id="line2d_12">
      <g>
       <use style="stroke:#000000;stroke-width:0.8;" x="307.851363" xlink:href="#mb0d73d81c6" y="288.430125"/>
      </g>
     </g>
     <g id="text_6">
      <!-- 1000 -->
      <defs>
       <path d="M 12.40625 8.296875 
L 28.515625 8.296875 
L 28.515625 63.921875 
L 10.984375 60.40625 
L 10.984375 69.390625 
L 28.421875 72.90625 
L 38.28125 72.90625 
L 38.28125 8.296875 
L 54.390625 8.296875 
L 54.390625 0 
L 12.40625 0 
z
" id="DejaVuSans-49"/>
      </defs>
      <g transform="translate(295.126363 303.028562)scale(0.1 -0.1)">
       <use xlink:href="#DejaVuSans-49"/>
       <use x="63.623047" xlink:href="#DejaVuSans-48"/>
       <use x="127.246094" xlink:href="#DejaVuSans-48"/>
       <use x="190.869141" xlink:href="#DejaVuSans-48"/>
      </g>
     </g>
    </g>
    <g id="xtick_7">
     <g id="line2d_13">
      <path clip-path="url(#p8a55609c54)" d="M 356.781965 288.430125 
L 356.781965 22.318125 
" style="fill:none;stroke:#b0b0b0;stroke-dasharray:2.96,1.28;stroke-dashoffset:0;stroke-width:0.8;"/>
     </g>
     <g id="line2d_14">
      <g>
       <use style="stroke:#000000;stroke-width:0.8;" x="356.781965" xlink:href="#mb0d73d81c6" y="288.430125"/>
      </g>
     </g>
     <g id="text_7">
      <!-- 1200 -->
      <g transform="translate(344.056965 303.028562)scale(0.1 -0.1)">
       <use xlink:href="#DejaVuSans-49"/>
       <use x="63.623047" xlink:href="#DejaVuSans-50"/>
       <use x="127.246094" xlink:href="#DejaVuSans-48"/>
       <use x="190.869141" xlink:href="#DejaVuSans-48"/>
      </g>
     </g>
    </g>
    <g id="text_8">
     <!-- Day -->
     <defs>
      <path d="M 19.671875 64.796875 
L 19.671875 8.109375 
L 31.59375 8.109375 
Q 46.6875 8.109375 53.6875 14.9375 
Q 60.6875 21.78125 60.6875 36.53125 
Q 60.6875 51.171875 53.6875 57.984375 
Q 46.6875 64.796875 31.59375 64.796875 
z
M 9.8125 72.90625 
L 30.078125 72.90625 
Q 51.265625 72.90625 61.171875 64.09375 
Q 71.09375 55.28125 71.09375 36.53125 
Q 71.09375 17.671875 61.125 8.828125 
Q 51.171875 0 30.078125 0 
L 9.8125 0 
z
" id="DejaVuSans-68"/>
      <path d="M 34.28125 27.484375 
Q 23.390625 27.484375 19.1875 25 
Q 14.984375 22.515625 14.984375 16.5 
Q 14.984375 11.71875 18.140625 8.90625 
Q 21.296875 6.109375 26.703125 6.109375 
Q 34.1875 6.109375 38.703125 11.40625 
Q 43.21875 16.703125 43.21875 25.484375 
L 43.21875 27.484375 
z
M 52.203125 31.203125 
L 52.203125 0 
L 43.21875 0 
L 43.21875 8.296875 
Q 40.140625 3.328125 35.546875 0.953125 
Q 30.953125 -1.421875 24.3125 -1.421875 
Q 15.921875 -1.421875 10.953125 3.296875 
Q 6 8.015625 6 15.921875 
Q 6 25.140625 12.171875 29.828125 
Q 18.359375 34.515625 30.609375 34.515625 
L 43.21875 34.515625 
L 43.21875 35.40625 
Q 43.21875 41.609375 39.140625 45 
Q 35.0625 48.390625 27.6875 48.390625 
Q 23 48.390625 18.546875 47.265625 
Q 14.109375 46.140625 10.015625 43.890625 
L 10.015625 52.203125 
Q 14.9375 54.109375 19.578125 55.046875 
Q 24.21875 56 28.609375 56 
Q 40.484375 56 46.34375 49.84375 
Q 52.203125 43.703125 52.203125 31.203125 
z
" id="DejaVuSans-97"/>
      <path d="M 32.171875 -5.078125 
Q 28.375 -14.84375 24.75 -17.8125 
Q 21.140625 -20.796875 15.09375 -20.796875 
L 7.90625 -20.796875 
L 7.90625 -13.28125 
L 13.1875 -13.28125 
Q 16.890625 -13.28125 18.9375 -11.515625 
Q 21 -9.765625 23.484375 -3.21875 
L 25.09375 0.875 
L 2.984375 54.6875 
L 12.5 54.6875 
L 29.59375 11.921875 
L 46.6875 54.6875 
L 56.203125 54.6875 
z
" id="DejaVuSans-121"/>
     </defs>
     <g transform="translate(215.652188 316.706687)scale(0.1 -0.1)">
      <use xlink:href="#DejaVuSans-68"/>
      <use x="77.001953" xlink:href="#DejaVuSans-97"/>
      <use x="138.28125" xlink:href="#DejaVuSans-121"/>
     </g>
    </g>
   </g>
   <g id="matplotlib.axis_2">
    <g id="ytick_1">
     <g id="line2d_15">
      <path clip-path="url(#p8a55609c54)" d="M 46.965625 259.488248 
L 404.085625 259.488248 
" style="fill:none;stroke:#b0b0b0;stroke-dasharray:2.96,1.28;stroke-dashoffset:0;stroke-width:0.8;"/>
     </g>
     <g id="line2d_16">
      <defs>
       <path d="M 0 0 
L -3.5 0 
" id="me7fac4d365" style="stroke:#000000;stroke-width:0.8;"/>
      </defs>
      <g>
       <use style="stroke:#000000;stroke-width:0.8;" x="46.965625" xlink:href="#me7fac4d365" y="259.488248"/>
      </g>
     </g>
     <g id="text_9">
      <!-- 25 -->
      <defs>
       <path d="M 10.796875 72.90625 
L 49.515625 72.90625 
L 49.515625 64.59375 
L 19.828125 64.59375 
L 19.828125 46.734375 
Q 21.96875 47.46875 24.109375 47.828125 
Q 26.265625 48.1875 28.421875 48.1875 
Q 40.625 48.1875 47.75 41.5 
Q 54.890625 34.8125 54.890625 23.390625 
Q 54.890625 11.625 47.5625 5.09375 
Q 40.234375 -1.421875 26.90625 -1.421875 
Q 22.3125 -1.421875 17.546875 -0.640625 
Q 12.796875 0.140625 7.71875 1.703125 
L 7.71875 11.625 
Q 12.109375 9.234375 16.796875 8.0625 
Q 21.484375 6.890625 26.703125 6.890625 
Q 35.15625 6.890625 40.078125 11.328125 
Q 45.015625 15.765625 45.015625 23.390625 
Q 45.015625 31 40.078125 35.4375 
Q 35.15625 39.890625 26.703125 39.890625 
Q 22.75 39.890625 18.8125 39.015625 
Q 14.890625 38.140625 10.796875 36.28125 
z
" id="DejaVuSans-53"/>
      </defs>
      <g transform="translate(27.240625 263.287467)scale(0.1 -0.1)">
       <use xlink:href="#DejaVuSans-50"/>
       <use x="63.623047" xlink:href="#DejaVuSans-53"/>
      </g>
     </g>
    </g>
    <g id="ytick_2">
     <g id="line2d_17">
      <path clip-path="url(#p8a55609c54)" d="M 46.965625 228.855916 
L 404.085625 228.855916 
" style="fill:none;stroke:#b0b0b0;stroke-dasharray:2.96,1.28;stroke-dashoffset:0;stroke-width:0.8;"/>
     </g>
     <g id="line2d_18">
      <g>
       <use style="stroke:#000000;stroke-width:0.8;" x="46.965625" xlink:href="#me7fac4d365" y="228.855916"/>
      </g>
     </g>
     <g id="text_10">
      <!-- 50 -->
      <g transform="translate(27.240625 232.655135)scale(0.1 -0.1)">
       <use xlink:href="#DejaVuSans-53"/>
       <use x="63.623047" xlink:href="#DejaVuSans-48"/>
      </g>
     </g>
    </g>
    <g id="ytick_3">
     <g id="line2d_19">
      <path clip-path="url(#p8a55609c54)" d="M 46.965625 198.223584 
L 404.085625 198.223584 
" style="fill:none;stroke:#b0b0b0;stroke-dasharray:2.96,1.28;stroke-dashoffset:0;stroke-width:0.8;"/>
     </g>
     <g id="line2d_20">
      <g>
       <use style="stroke:#000000;stroke-width:0.8;" x="46.965625" xlink:href="#me7fac4d365" y="198.223584"/>
      </g>
     </g>
     <g id="text_11">
      <!-- 75 -->
      <defs>
       <path d="M 8.203125 72.90625 
L 55.078125 72.90625 
L 55.078125 68.703125 
L 28.609375 0 
L 18.3125 0 
L 43.21875 64.59375 
L 8.203125 64.59375 
z
" id="DejaVuSans-55"/>
      </defs>
      <g transform="translate(27.240625 202.022803)scale(0.1 -0.1)">
       <use xlink:href="#DejaVuSans-55"/>
       <use x="63.623047" xlink:href="#DejaVuSans-53"/>
      </g>
     </g>
    </g>
    <g id="ytick_4">
     <g id="line2d_21">
      <path clip-path="url(#p8a55609c54)" d="M 46.965625 167.591252 
L 404.085625 167.591252 
" style="fill:none;stroke:#b0b0b0;stroke-dasharray:2.96,1.28;stroke-dashoffset:0;stroke-width:0.8;"/>
     </g>
     <g id="line2d_22">
      <g>
       <use style="stroke:#000000;stroke-width:0.8;" x="46.965625" xlink:href="#me7fac4d365" y="167.591252"/>
      </g>
     </g>
     <g id="text_12">
      <!-- 100 -->
      <g transform="translate(20.878125 171.390471)scale(0.1 -0.1)">
       <use xlink:href="#DejaVuSans-49"/>
       <use x="63.623047" xlink:href="#DejaVuSans-48"/>
       <use x="127.246094" xlink:href="#DejaVuSans-48"/>
      </g>
     </g>
    </g>
    <g id="ytick_5">
     <g id="line2d_23">
      <path clip-path="url(#p8a55609c54)" d="M 46.965625 136.95892 
L 404.085625 136.95892 
" style="fill:none;stroke:#b0b0b0;stroke-dasharray:2.96,1.28;stroke-dashoffset:0;stroke-width:0.8;"/>
     </g>
     <g id="line2d_24">
      <g>
       <use style="stroke:#000000;stroke-width:0.8;" x="46.965625" xlink:href="#me7fac4d365" y="136.95892"/>
      </g>
     </g>
     <g id="text_13">
      <!-- 125 -->
      <g transform="translate(20.878125 140.758139)scale(0.1 -0.1)">
       <use xlink:href="#DejaVuSans-49"/>
       <use x="63.623047" xlink:href="#DejaVuSans-50"/>
       <use x="127.246094" xlink:href="#DejaVuSans-53"/>
      </g>
     </g>
    </g>
    <g id="ytick_6">
     <g id="line2d_25">
      <path clip-path="url(#p8a55609c54)" d="M 46.965625 106.326588 
L 404.085625 106.326588 
" style="fill:none;stroke:#b0b0b0;stroke-dasharray:2.96,1.28;stroke-dashoffset:0;stroke-width:0.8;"/>
     </g>
     <g id="line2d_26">
      <g>
       <use style="stroke:#000000;stroke-width:0.8;" x="46.965625" xlink:href="#me7fac4d365" y="106.326588"/>
      </g>
     </g>
     <g id="text_14">
      <!-- 150 -->
      <g transform="translate(20.878125 110.125807)scale(0.1 -0.1)">
       <use xlink:href="#DejaVuSans-49"/>
       <use x="63.623047" xlink:href="#DejaVuSans-53"/>
       <use x="127.246094" xlink:href="#DejaVuSans-48"/>
      </g>
     </g>
    </g>
    <g id="ytick_7">
     <g id="line2d_27">
      <path clip-path="url(#p8a55609c54)" d="M 46.965625 75.694256 
L 404.085625 75.694256 
" style="fill:none;stroke:#b0b0b0;stroke-dasharray:2.96,1.28;stroke-dashoffset:0;stroke-width:0.8;"/>
     </g>
     <g id="line2d_28">
      <g>
       <use style="stroke:#000000;stroke-width:0.8;" x="46.965625" xlink:href="#me7fac4d365" y="75.694256"/>
      </g>
     </g>
     <g id="text_15">
      <!-- 175 -->
      <g transform="translate(20.878125 79.493474)scale(0.1 -0.1)">
       <use xlink:href="#DejaVuSans-49"/>
       <use x="63.623047" xlink:href="#DejaVuSans-55"/>
       <use x="127.246094" xlink:href="#DejaVuSans-53"/>
      </g>
     </g>
    </g>
    <g id="ytick_8">
     <g id="line2d_29">
      <path clip-path="url(#p8a55609c54)" d="M 46.965625 45.061924 
L 404.085625 45.061924 
" style="fill:none;stroke:#b0b0b0;stroke-dasharray:2.96,1.28;stroke-dashoffset:0;stroke-width:0.8;"/>
     </g>
     <g id="line2d_30">
      <g>
       <use style="stroke:#000000;stroke-width:0.8;" x="46.965625" xlink:href="#me7fac4d365" y="45.061924"/>
      </g>
     </g>
     <g id="text_16">
      <!-- 200 -->
      <g transform="translate(20.878125 48.861142)scale(0.1 -0.1)">
       <use xlink:href="#DejaVuSans-50"/>
       <use x="63.623047" xlink:href="#DejaVuSans-48"/>
       <use x="127.246094" xlink:href="#DejaVuSans-48"/>
      </g>
     </g>
    </g>
    <g id="text_17">
     <!-- Price $ -->
     <defs>
      <path d="M 19.671875 64.796875 
L 19.671875 37.40625 
L 32.078125 37.40625 
Q 38.96875 37.40625 42.71875 40.96875 
Q 46.484375 44.53125 46.484375 51.125 
Q 46.484375 57.671875 42.71875 61.234375 
Q 38.96875 64.796875 32.078125 64.796875 
z
M 9.8125 72.90625 
L 32.078125 72.90625 
Q 44.34375 72.90625 50.609375 67.359375 
Q 56.890625 61.8125 56.890625 51.125 
Q 56.890625 40.328125 50.609375 34.8125 
Q 44.34375 29.296875 32.078125 29.296875 
L 19.671875 29.296875 
L 19.671875 0 
L 9.8125 0 
z
" id="DejaVuSans-80"/>
      <path d="M 41.109375 46.296875 
Q 39.59375 47.171875 37.8125 47.578125 
Q 36.03125 48 33.890625 48 
Q 26.265625 48 22.1875 43.046875 
Q 18.109375 38.09375 18.109375 28.8125 
L 18.109375 0 
L 9.078125 0 
L 9.078125 54.6875 
L 18.109375 54.6875 
L 18.109375 46.1875 
Q 20.953125 51.171875 25.484375 53.578125 
Q 30.03125 56 36.53125 56 
Q 37.453125 56 38.578125 55.875 
Q 39.703125 55.765625 41.0625 55.515625 
z
" id="DejaVuSans-114"/>
      <path d="M 9.421875 54.6875 
L 18.40625 54.6875 
L 18.40625 0 
L 9.421875 0 
z
M 9.421875 75.984375 
L 18.40625 75.984375 
L 18.40625 64.59375 
L 9.421875 64.59375 
z
" id="DejaVuSans-105"/>
      <path d="M 48.78125 52.59375 
L 48.78125 44.1875 
Q 44.96875 46.296875 41.140625 47.34375 
Q 37.3125 48.390625 33.40625 48.390625 
Q 24.65625 48.390625 19.8125 42.84375 
Q 14.984375 37.3125 14.984375 27.296875 
Q 14.984375 17.28125 19.8125 11.734375 
Q 24.65625 6.203125 33.40625 6.203125 
Q 37.3125 6.203125 41.140625 7.25 
Q 44.96875 8.296875 48.78125 10.40625 
L 48.78125 2.09375 
Q 45.015625 0.34375 40.984375 -0.53125 
Q 36.96875 -1.421875 32.421875 -1.421875 
Q 20.0625 -1.421875 12.78125 6.34375 
Q 5.515625 14.109375 5.515625 27.296875 
Q 5.515625 40.671875 12.859375 48.328125 
Q 20.21875 56 33.015625 56 
Q 37.15625 56 41.109375 55.140625 
Q 45.0625 54.296875 48.78125 52.59375 
z
" id="DejaVuSans-99"/>
      <path d="M 56.203125 29.59375 
L 56.203125 25.203125 
L 14.890625 25.203125 
Q 15.484375 15.921875 20.484375 11.0625 
Q 25.484375 6.203125 34.421875 6.203125 
Q 39.59375 6.203125 44.453125 7.46875 
Q 49.3125 8.734375 54.109375 11.28125 
L 54.109375 2.78125 
Q 49.265625 0.734375 44.1875 -0.34375 
Q 39.109375 -1.421875 33.890625 -1.421875 
Q 20.796875 -1.421875 13.15625 6.1875 
Q 5.515625 13.8125 5.515625 26.8125 
Q 5.515625 40.234375 12.765625 48.109375 
Q 20.015625 56 32.328125 56 
Q 43.359375 56 49.78125 48.890625 
Q 56.203125 41.796875 56.203125 29.59375 
z
M 47.21875 32.234375 
Q 47.125 39.59375 43.09375 43.984375 
Q 39.0625 48.390625 32.421875 48.390625 
Q 24.90625 48.390625 20.390625 44.140625 
Q 15.875 39.890625 15.1875 32.171875 
z
" id="DejaVuSans-101"/>
      <path id="DejaVuSans-32"/>
      <path d="M 33.796875 -14.703125 
L 28.90625 -14.703125 
L 28.859375 0 
Q 23.734375 0.09375 18.609375 1.1875 
Q 13.484375 2.296875 8.296875 4.5 
L 8.296875 13.28125 
Q 13.28125 10.15625 18.375 8.5625 
Q 23.484375 6.984375 28.90625 6.9375 
L 28.90625 29.203125 
Q 18.109375 30.953125 13.203125 35.15625 
Q 8.296875 39.359375 8.296875 46.6875 
Q 8.296875 54.640625 13.625 59.21875 
Q 18.953125 63.8125 28.90625 64.5 
L 28.90625 75.984375 
L 33.796875 75.984375 
L 33.796875 64.65625 
Q 38.328125 64.453125 42.578125 63.6875 
Q 46.828125 62.9375 50.875 61.625 
L 50.875 53.078125 
Q 46.828125 55.125 42.546875 56.25 
Q 38.28125 57.375 33.796875 57.5625 
L 33.796875 36.71875 
Q 44.875 35.015625 50.09375 30.609375 
Q 55.328125 26.21875 55.328125 18.609375 
Q 55.328125 10.359375 49.78125 5.59375 
Q 44.234375 0.828125 33.796875 0.09375 
z
M 28.90625 37.59375 
L 28.90625 57.625 
Q 23.25 56.984375 20.265625 54.390625 
Q 17.28125 51.8125 17.28125 47.515625 
Q 17.28125 43.3125 20.03125 40.96875 
Q 22.796875 38.625 28.90625 37.59375 
z
M 33.796875 28.21875 
L 33.796875 7.078125 
Q 39.984375 7.90625 43.140625 10.59375 
Q 46.296875 13.28125 46.296875 17.671875 
Q 46.296875 21.96875 43.28125 24.5 
Q 40.28125 27.046875 33.796875 28.21875 
z
" id="DejaVuSans-36"/>
     </defs>
     <g transform="translate(14.798438 172.342094)rotate(-90)scale(0.1 -0.1)">
      <use xlink:href="#DejaVuSans-80"/>
      <use x="58.552734" xlink:href="#DejaVuSans-114"/>
      <use x="99.666016" xlink:href="#DejaVuSans-105"/>
      <use x="127.449219" xlink:href="#DejaVuSans-99"/>
      <use x="182.429688" xlink:href="#DejaVuSans-101"/>
      <use x="243.953125" xlink:href="#DejaVuSans-32"/>
      <use x="275.740234" xlink:href="#DejaVuSans-36"/>
     </g>
    </g>
   </g>
   <g id="line2d_31">
    <path clip-path="url(#p8a55609c54)" d="M 63.198352 263.334661 
L 63.687658 268.247087 
L 63.932311 273.81354 
L 64.176964 274.378803 
L 64.421617 275.261979 
L 64.910923 273.984482 
L 65.400229 271.849153 
L 65.644882 272.005867 
L 65.889535 271.166154 
L 66.378841 271.838418 
L 66.623494 271.393859 
L 66.868147 272.003343 
L 67.1128 272.051313 
L 67.357453 272.676063 
L 67.602106 271.989412 
L 67.846759 272.549666 
L 68.091412 272.082304 
L 68.825372 271.878161 
L 69.314678 272.673874 
L 69.559331 273.428756 
L 69.803984 273.426767 
L 70.048637 273.070464 
L 70.29329 274.013653 
L 70.537943 274.173041 
L 71.027249 272.950929 
L 71.271902 272.889372 
L 71.516555 272.452119 
L 71.761208 274.232436 
L 72.250514 272.795053 
L 72.495167 273.629006 
L 72.73982 273.118831 
L 73.229126 273.456708 
L 73.473779 274.230915 
L 73.718432 273.853815 
L 73.963085 273.763256 
L 74.207738 274.293406 
L 74.452391 274.32118 
L 74.697044 274.462711 
L 74.941697 274.11517 
L 75.18635 273.498055 
L 75.431003 274.104033 
L 75.920309 274.185441 
L 76.164962 274.195533 
L 76.409615 274.540779 
L 76.654268 274.49189 
L 76.898921 273.864074 
L 77.143574 274.460325 
L 77.388227 273.979501 
L 77.63288 274.453027 
L 78.122186 274.605371 
L 78.366839 274.280113 
L 78.611492 274.954109 
L 78.856145 275.046685 
L 79.100798 275.718919 
L 79.345451 274.849101 
L 79.834757 274.541314 
L 80.07941 273.878218 
L 80.324063 274.366382 
L 80.568716 274.249577 
L 80.813369 274.917942 
L 81.058022 274.541045 
L 81.302675 275.692034 
L 81.547328 275.742147 
L 81.791981 275.280199 
L 82.036634 275.732738 
L 82.281287 275.877147 
L 82.52594 276.334125 
L 83.015246 275.254105 
L 83.259899 275.414033 
L 83.504552 274.941947 
L 83.749205 274.713178 
L 83.993858 275.521678 
L 84.238511 275.862238 
L 84.483164 275.75549 
L 84.727817 275.249072 
L 84.97247 275.338333 
L 85.217123 275.765905 
L 85.461776 275.935182 
L 85.951082 275.041578 
L 86.195735 275.224639 
L 86.440388 274.495097 
L 86.685041 274.336308 
L 86.929694 274.836897 
L 87.174347 274.218778 
L 87.419 274.034102 
L 87.908306 274.784463 
L 88.397612 275.080462 
L 88.642265 274.935077 
L 89.131571 275.192482 
L 89.376224 274.823362 
L 89.620877 274.988592 
L 89.86553 274.455887 
L 90.110183 274.419933 
L 90.354836 274.965696 
L 90.599489 274.422528 
L 91.333449 274.941149 
L 91.578102 275.048722 
L 91.822755 275.022372 
L 92.067408 274.83603 
L 92.312061 275.789377 
L 92.556714 275.673549 
L 92.801367 275.302797 
L 93.04602 275.174851 
L 93.290673 274.455179 
L 93.535326 274.520658 
L 93.779979 274.272985 
L 94.024632 274.644482 
L 94.269285 274.447808 
L 94.513938 274.103919 
L 94.758591 274.759149 
L 95.49255 275.248694 
L 95.737203 275.04686 
L 96.226509 274.052989 
L 96.471162 275.479888 
L 96.960468 274.475148 
L 97.205121 274.985922 
L 97.449774 275.11859 
L 97.93908 274.42155 
L 98.428386 274.744429 
L 98.917692 274.224803 
L 99.162345 274.269736 
L 99.406998 274.200123 
L 99.651651 274.472354 
L 99.896304 273.965528 
L 100.140957 274.277881 
L 100.38561 274.203483 
L 100.630263 273.933762 
L 100.874916 274.761189 
L 101.119569 274.582173 
L 101.364222 274.726058 
L 101.608875 275.383304 
L 101.853528 274.983081 
L 102.098181 275.369523 
L 102.342834 274.680257 
L 102.587487 274.863771 
L 102.83214 274.783783 
L 103.076793 273.025199 
L 103.566099 273.529827 
L 103.810752 273.937381 
L 104.055405 273.721502 
L 104.300058 275.69877 
L 104.544711 275.215111 
L 104.789364 274.029188 
L 105.034017 274.778777 
L 105.27867 274.845564 
L 105.523323 274.543454 
L 105.767976 273.599153 
L 106.012629 273.892339 
L 106.257282 273.250972 
L 106.746588 273.909943 
L 106.991241 273.948882 
L 107.235894 273.695215 
L 107.480547 273.919653 
L 107.7252 273.927733 
L 108.214506 272.893143 
L 108.459159 272.905072 
L 108.703812 273.266692 
L 109.193118 272.892351 
L 109.437771 273.303408 
L 109.927077 273.261754 
L 110.17173 272.722126 
L 110.416383 273.173062 
L 110.905689 273.088555 
L 111.150342 272.47598 
L 111.394995 272.987301 
L 111.884301 272.057729 
L 112.128954 272.040094 
L 112.373607 271.90217 
L 112.862913 271.912472 
L 113.35222 272.312809 
L 113.596873 272.197537 
L 113.841526 272.575102 
L 114.086179 272.509143 
L 114.330832 272.106679 
L 114.575485 272.205654 
L 114.820138 272.443697 
L 115.064791 272.293785 
L 115.309444 272.787125 
L 115.79875 272.410167 
L 116.043403 272.52021 
L 116.288056 272.443177 
L 116.532709 272.565147 
L 116.777362 272.357074 
L 117.022015 272.523916 
L 117.266668 272.230041 
L 117.511321 272.448241 
L 117.755974 271.701553 
L 118.000627 272.250197 
L 118.489933 272.670191 
L 118.979239 272.447402 
L 119.223892 273.157605 
L 119.468545 272.946504 
L 119.713198 272.536961 
L 119.957851 272.921183 
L 120.447157 272.420779 
L 120.69181 272.711621 
L 120.936463 272.609505 
L 121.181116 272.151065 
L 121.425769 272.07277 
L 121.670422 272.144196 
L 121.915075 272.358979 
L 122.159728 272.045616 
L 122.404381 271.92769 
L 122.649034 272.534107 
L 122.893687 272.762317 
L 123.13834 272.157724 
L 123.382993 272.346105 
L 123.627646 272.818425 
L 124.606258 272.761257 
L 125.340217 271.960318 
L 125.58487 271.932534 
L 126.074176 272.21628 
L 126.318829 271.946435 
L 126.808135 272.910038 
L 127.052788 272.770272 
L 127.542094 271.843237 
L 127.786747 271.567493 
L 128.276053 271.779168 
L 128.520706 272.035414 
L 129.010012 271.441175 
L 129.499318 271.736181 
L 130.233277 272.446179 
L 130.722583 271.791981 
L 130.967236 271.830809 
L 131.211889 272.082739 
L 131.701195 271.372068 
L 131.945848 270.95174 
L 133.169113 270.384594 
L 133.413766 270.413478 
L 134.147725 271.13721 
L 134.392378 270.962394 
L 134.637031 270.949015 
L 135.126337 271.479262 
L 135.615643 271.103305 
L 135.860297 271.05333 
L 136.10495 270.730714 
L 136.349603 270.663227 
L 136.838909 271.474019 
L 137.083562 271.164622 
L 137.328215 271.42527 
L 137.572868 271.187378 
L 137.817521 271.459067 
L 138.062174 270.966911 
L 138.306827 270.853996 
L 138.796133 270.455052 
L 139.040786 270.885106 
L 139.285439 270.90314 
L 139.530092 271.268474 
L 139.774745 271.297689 
L 140.019398 270.98569 
L 140.264051 271.182559 
L 140.508704 270.989863 
L 140.753357 271.77381 
L 141.242663 271.893507 
L 141.487316 272.175541 
L 141.731969 272.262132 
L 141.976622 272.188114 
L 142.221275 271.338136 
L 143.199887 270.110922 
L 143.44454 270.245258 
L 143.689193 270.915137 
L 143.933846 271.143474 
L 144.178499 271.045773 
L 144.423152 271.110827 
L 144.667805 271.432393 
L 144.912458 271.455543 
L 145.157111 271.046056 
L 145.401764 270.951751 
L 145.646417 271.271131 
L 145.89107 271.202909 
L 146.135723 271.484659 
L 146.380376 270.474727 
L 147.114335 271.161825 
L 147.358988 270.828008 
L 147.603641 270.809513 
L 147.848294 271.312795 
L 148.3376 271.723079 
L 149.071559 271.404077 
L 149.805518 270.630363 
L 150.294824 270.703263 
L 150.539477 270.372553 
L 150.78413 270.472806 
L 151.028783 271.262311 
L 151.273436 271.175369 
L 151.762742 270.288765 
L 152.007395 270.152334 
L 152.252048 270.657232 
L 152.496701 270.902922 
L 152.741354 271.343092 
L 153.475313 270.590397 
L 153.719966 270.607352 
L 153.964619 270.406852 
L 154.209272 270.608633 
L 154.453925 270.5896 
L 154.698578 270.891584 
L 155.187884 271.066905 
L 155.432537 270.948834 
L 155.921843 271.08268 
L 156.166496 271.634387 
L 156.411149 271.211416 
L 156.655802 271.493333 
L 157.389761 270.804093 
L 157.634414 270.365818 
L 158.368374 268.289514 
L 158.613027 268.347714 
L 158.85768 268.029339 
L 159.102333 267.411036 
L 159.346986 267.442103 
L 159.591639 267.241912 
L 159.836292 267.441072 
L 160.080945 267.456452 
L 160.570251 268.210664 
L 160.814904 268.156554 
L 161.30421 267.352673 
L 162.038169 267.942433 
L 162.282822 267.772577 
L 162.527475 267.449988 
L 162.772128 268.092815 
L 163.016781 268.415033 
L 163.261434 268.347555 
L 163.995393 267.020186 
L 164.240046 267.326313 
L 164.484699 267.409662 
L 164.729352 267.199041 
L 164.974005 267.598997 
L 165.218658 268.338067 
L 165.463311 268.115419 
L 165.707964 268.240691 
L 165.952617 267.612103 
L 166.19727 267.62678 
L 166.441923 267.198602 
L 166.686576 267.560452 
L 166.931229 267.546245 
L 167.175882 266.96971 
L 167.420535 267.059636 
L 167.909841 267.747066 
L 168.154494 267.8052 
L 168.6438 267.60193 
L 168.888453 267.514626 
L 169.133106 267.097232 
L 169.377759 266.944355 
L 169.622412 266.611284 
L 169.867065 266.070708 
L 170.601024 267.325715 
L 170.845677 267.196279 
L 171.09033 267.581529 
L 171.334983 267.713583 
L 171.579636 267.587484 
L 171.824289 267.32575 
L 172.068942 267.800634 
L 172.313595 267.712604 
L 172.558248 268.124064 
L 172.802901 267.783683 
L 173.292207 267.970671 
L 173.781513 268.094295 
L 174.026166 267.453134 
L 174.270819 267.312064 
L 174.515472 267.728538 
L 175.249431 267.124536 
L 175.738737 266.541628 
L 176.472696 267.028426 
L 177.695961 266.622037 
L 178.42992 265.904756 
L 178.674573 266.177897 
L 178.919226 265.746572 
L 179.408532 266.588381 
L 179.897838 267.306441 
L 180.142491 267.495245 
L 180.387144 267.493252 
L 180.631798 267.342883 
L 180.876451 267.79879 
L 181.365757 267.497746 
L 181.61041 267.521397 
L 181.855063 267.057044 
L 182.344369 267.443498 
L 182.589022 266.67467 
L 182.833675 266.922064 
L 183.567634 266.140792 
L 183.812287 266.25428 
L 184.301593 267.159938 
L 184.546246 267.537854 
L 184.790899 267.256388 
L 185.035552 267.852523 
L 185.524858 267.88183 
L 185.769511 268.572656 
L 186.014164 268.340572 
L 186.258817 267.884546 
L 186.748123 268.695013 
L 187.237429 268.373008 
L 187.482082 268.340352 
L 187.726735 268.738438 
L 187.971388 267.333341 
L 188.216041 266.79914 
L 188.460694 267.080062 
L 188.705347 266.803484 
L 188.95 266.856363 
L 189.194653 267.025568 
L 189.439306 266.65223 
L 189.928612 266.360127 
L 190.173265 266.697041 
L 190.417918 266.66416 
L 190.907224 266.226144 
L 191.151877 266.421265 
L 191.641183 266.080732 
L 191.885836 265.992599 
L 192.130489 266.107942 
L 192.375142 265.515827 
L 192.619795 265.402117 
L 193.109101 265.960205 
L 193.598407 265.993375 
L 194.087713 266.703708 
L 194.332366 266.668133 
L 194.821672 266.332732 
L 195.066325 266.777358 
L 195.310978 266.825549 
L 195.800284 266.769852 
L 196.28959 267.247131 
L 196.534243 267.873363 
L 197.023549 267.306364 
L 197.757508 267.523126 
L 198.002161 267.925344 
L 198.491467 267.719012 
L 198.73612 269.184868 
L 198.980773 269.518194 
L 199.470079 268.557105 
L 199.714732 268.564607 
L 199.959385 268.428287 
L 200.204038 268.493886 
L 200.448691 267.564967 
L 200.693344 267.832457 
L 201.18265 267.488935 
L 201.427303 267.387313 
L 201.671956 266.855468 
L 201.916609 266.887193 
L 202.161262 267.165264 
L 202.650568 265.573779 
L 202.895221 265.333117 
L 203.139875 265.367052 
L 203.384528 265.193637 
L 203.629181 265.523092 
L 203.873834 265.42868 
L 204.118487 265.863539 
L 204.36314 265.970193 
L 205.097099 265.764338 
L 205.341752 265.877837 
L 206.320364 264.661804 
L 206.565017 264.773721 
L 207.054323 264.319908 
L 207.298976 264.59193 
L 207.543629 264.671294 
L 207.788282 264.132779 
L 208.032935 264.381319 
L 208.277588 264.187595 
L 209.011547 265.002512 
L 209.2562 265.039115 
L 209.500853 265.678591 
L 209.990159 266.294091 
L 210.479465 265.24677 
L 210.724118 265.068216 
L 210.968771 264.603438 
L 211.213424 264.788168 
L 211.458077 264.749256 
L 211.70273 264.547451 
L 212.681342 265.40167 
L 212.925995 265.34606 
L 213.170648 266.491353 
L 213.415301 266.74675 
L 213.659954 265.876933 
L 213.904607 265.458538 
L 214.14926 265.850863 
L 214.393913 265.940503 
L 215.127872 265.771987 
L 215.861831 264.883013 
L 216.106484 264.663993 
L 216.351137 264.80841 
L 216.840443 265.969595 
L 217.085096 265.888758 
L 217.329749 266.305253 
L 217.574402 266.09238 
L 218.063708 265.398317 
L 218.308361 265.087946 
L 218.553014 265.033408 
L 218.797667 265.160572 
L 219.04232 264.661666 
L 219.286973 264.46732 
L 219.531626 263.035482 
L 219.776279 262.862937 
L 220.020932 262.547466 
L 220.265585 262.787394 
L 220.754891 262.578077 
L 220.999544 262.868156 
L 221.244197 262.646539 
L 221.48885 262.939695 
L 221.733503 262.770347 
L 221.978156 263.058869 
L 222.222809 262.687106 
L 222.467462 262.760127 
L 222.712115 262.657418 
L 222.956768 262.151115 
L 223.201421 262.421134 
L 223.446074 262.402417 
L 223.690727 261.951298 
L 223.93538 262.050637 
L 224.180033 262.415121 
L 224.424686 262.306263 
L 224.913992 261.807716 
L 225.158645 262.078294 
L 225.403298 262.007528 
L 225.647952 261.56243 
L 225.892605 262.377352 
L 226.137258 262.594853 
L 226.626564 264.427275 
L 227.11587 263.708467 
L 227.360523 264.21593 
L 227.605176 264.456689 
L 227.849829 264.076895 
L 228.094482 263.921093 
L 228.339135 263.150466 
L 228.583788 263.001527 
L 228.828441 262.376503 
L 229.317747 262.082496 
L 229.5624 262.357365 
L 229.807053 262.080772 
L 230.296359 262.628724 
L 231.030318 262.353474 
L 231.519624 262.888638 
L 232.00893 262.717027 
L 232.253583 263.161684 
L 232.498236 262.896831 
L 232.742889 262.340917 
L 232.987542 262.492524 
L 233.232195 263.032047 
L 233.721501 262.521158 
L 233.966154 264.541709 
L 234.210807 264.962789 
L 234.700113 264.598888 
L 234.944766 264.430269 
L 235.189419 264.081299 
L 235.678725 264.506604 
L 235.923378 264.135369 
L 236.412684 264.674209 
L 236.657337 264.839892 
L 237.146643 263.284342 
L 237.391296 263.037247 
L 237.635949 262.986301 
L 237.880602 263.477879 
L 238.125255 263.450928 
L 238.369908 263.021133 
L 238.614561 262.860399 
L 238.859214 263.373057 
L 239.103867 263.212578 
L 239.34852 263.992904 
L 239.593173 263.508235 
L 240.082479 264.436233 
L 240.327132 264.12553 
L 240.816438 263.257536 
L 241.061091 263.423734 
L 241.305744 263.444367 
L 241.550397 263.965226 
L 241.79505 264.094853 
L 242.039703 263.889945 
L 242.529009 264.928832 
L 242.773662 265.370704 
L 243.018315 264.992706 
L 243.262968 264.951915 
L 243.507621 265.247209 
L 243.752274 265.83254 
L 243.996927 266.087378 
L 244.24158 265.931379 
L 244.486233 265.594097 
L 244.730886 265.533034 
L 245.220192 265.967517 
L 245.464845 265.555021 
L 245.709498 265.659514 
L 245.954151 265.946409 
L 246.198804 265.831521 
L 246.443457 266.351277 
L 246.68811 266.076114 
L 247.177416 266.93378 
L 247.422069 266.084104 
L 247.666722 265.83664 
L 248.156029 265.782123 
L 248.400682 265.352606 
L 248.645335 265.198005 
L 248.889988 264.840061 
L 249.134641 265.148569 
L 249.379294 262.460656 
L 249.623947 261.555129 
L 249.8686 261.179428 
L 250.602559 261.186416 
L 251.336518 262.013011 
L 251.825824 263.338697 
L 252.070477 264.495356 
L 252.31513 264.802331 
L 252.804436 262.456578 
L 253.049089 262.370915 
L 253.293742 262.738318 
L 253.538395 263.531131 
L 253.783048 262.69468 
L 254.027701 262.543603 
L 254.272354 263.252834 
L 254.517007 262.390645 
L 254.76166 262.888811 
L 255.006313 262.530006 
L 255.495619 262.25324 
L 255.984925 261.959466 
L 256.229578 261.31164 
L 256.474231 261.666488 
L 256.718884 261.326814 
L 256.963537 262.015331 
L 257.20819 262.04928 
L 257.697496 261.245569 
L 257.942149 261.650874 
L 258.186802 261.203862 
L 258.431455 260.124081 
L 258.676108 260.630101 
L 259.410067 258.797964 
L 259.65472 258.340167 
L 260.144026 258.311346 
L 260.633332 257.834948 
L 260.877985 256.951457 
L 261.367291 256.033999 
L 261.611944 256.066531 
L 262.10125 256.525749 
L 262.590556 255.094243 
L 262.835209 255.259992 
L 263.079862 255.217049 
L 263.324515 255.049374 
L 263.569168 255.728494 
L 263.813821 255.537252 
L 264.058474 255.016103 
L 264.792433 256.14988 
L 265.037086 252.311495 
L 265.281739 251.818978 
L 265.771045 252.701031 
L 266.015698 252.844162 
L 266.260351 253.290796 
L 266.505004 252.707407 
L 267.238963 252.000579 
L 267.483616 251.76018 
L 267.728269 252.176593 
L 267.972922 251.861568 
L 268.217575 252.198341 
L 268.706881 251.097557 
L 268.951534 250.139759 
L 269.196187 250.437534 
L 269.44084 250.275342 
L 269.685493 248.928792 
L 269.930146 249.483564 
L 270.174799 249.079159 
L 270.419452 249.609471 
L 270.664106 249.6396 
L 270.908759 250.105054 
L 271.153412 250.267989 
L 271.398065 249.65982 
L 271.642718 249.45508 
L 271.887371 250.025168 
L 272.132024 251.019032 
L 272.376677 249.743104 
L 272.62133 249.546431 
L 273.355289 249.540368 
L 273.599942 249.234428 
L 273.844595 249.153496 
L 274.089248 249.634379 
L 274.333901 250.449635 
L 274.578554 249.685033 
L 275.312513 253.630918 
L 275.557166 253.714961 
L 275.801819 253.122147 
L 276.046472 253.806223 
L 276.535778 256.908731 
L 276.780431 256.547215 
L 277.025084 256.692999 
L 277.269737 256.27724 
L 277.51439 255.224791 
L 277.759043 255.585568 
L 278.003696 254.762451 
L 278.248349 255.255005 
L 278.493002 255.494862 
L 278.737655 254.433518 
L 278.982308 254.088227 
L 279.226961 255.101497 
L 279.471614 255.379458 
L 279.716267 255.205415 
L 280.205573 258.583616 
L 280.450226 258.586883 
L 280.694879 258.849172 
L 280.939532 259.32217 
L 281.184185 259.034419 
L 281.673491 256.527544 
L 281.918144 253.645228 
L 282.162797 252.968919 
L 282.40745 251.424886 
L 282.652103 251.30621 
L 283.141409 250.963795 
L 283.630715 251.50529 
L 283.875368 252.002862 
L 284.364674 250.057527 
L 284.85398 250.487851 
L 285.343286 251.541136 
L 285.832592 251.419763 
L 286.321898 250.694236 
L 286.566551 250.997578 
L 286.811204 250.238869 
L 287.055857 250.163378 
L 287.30051 248.981946 
L 287.789816 248.714049 
L 288.034469 248.049094 
L 288.279122 247.816496 
L 288.768428 246.838136 
L 289.013081 246.33284 
L 289.257734 246.551243 
L 289.502387 245.944673 
L 290.480999 246.691219 
L 290.725652 246.597508 
L 290.970305 245.988984 
L 291.214958 246.410328 
L 291.459611 245.561264 
L 291.704264 245.258264 
L 291.948917 244.691508 
L 292.438223 245.525512 
L 292.682876 245.280929 
L 292.92753 245.231346 
L 293.172183 245.625117 
L 293.661489 245.053005 
L 293.906142 244.59259 
L 294.395448 246.469012 
L 294.640101 245.868247 
L 294.884754 246.345292 
L 295.129407 247.428707 
L 295.618713 246.761677 
L 295.863366 247.062158 
L 296.352672 245.671611 
L 296.597325 246.473578 
L 296.841978 240.984213 
L 297.331284 238.064611 
L 297.575937 236.982323 
L 297.82059 236.764691 
L 298.065243 235.641654 
L 298.309896 235.383249 
L 298.554549 234.655339 
L 298.799202 234.989286 
L 299.533161 232.918047 
L 299.777814 232.582604 
L 300.022467 231.904337 
L 300.26712 233.040093 
L 300.511773 233.387721 
L 300.756426 233.110588 
L 301.001079 233.263306 
L 301.245732 232.62647 
L 301.490385 233.283283 
L 302.224344 232.054414 
L 302.468997 231.79278 
L 302.71365 232.665611 
L 302.958303 231.683064 
L 303.447609 232.293916 
L 303.692262 230.785908 
L 303.936915 233.441385 
L 304.181568 234.610206 
L 304.426221 233.870128 
L 304.670874 232.718733 
L 304.915527 232.451125 
L 305.16018 232.878588 
L 305.404833 232.397976 
L 305.649486 231.669771 
L 306.138792 228.413796 
L 306.383445 226.192339 
L 306.628098 225.36085 
L 306.872751 225.2915 
L 307.117404 224.690305 
L 307.362057 225.455165 
L 307.851363 224.587577 
L 308.096016 223.761627 
L 308.340669 224.728273 
L 309.074628 220.894847 
L 309.319281 221.323268 
L 309.808587 220.286758 
L 310.05324 220.588024 
L 310.297893 221.40514 
L 310.542546 221.266748 
L 311.276505 218.203613 
L 311.521158 217.667333 
L 311.765811 218.211256 
L 312.010464 216.907867 
L 312.255117 213.391894 
L 312.49977 213.263911 
L 312.744423 213.350186 
L 312.989076 214.548108 
L 313.478382 213.456069 
L 313.723035 213.34469 
L 313.967688 212.924911 
L 314.456994 215.012931 
L 314.701647 214.390314 
L 314.9463 214.401004 
L 315.435607 215.063837 
L 315.68026 213.225878 
L 315.924913 213.545476 
L 316.169566 212.677847 
L 316.414219 213.771451 
L 316.658872 213.311022 
L 316.903525 216.483027 
L 317.148178 216.273972 
L 317.392831 216.872998 
L 317.637484 216.156913 
L 317.882137 214.160693 
L 318.12679 213.2924 
L 318.371443 211.944593 
L 318.616096 212.350737 
L 318.860749 210.765892 
L 319.105402 210.090042 
L 319.350055 210.420016 
L 319.594708 211.51793 
L 319.839361 209.460129 
L 320.57332 206.293635 
L 320.817973 206.320492 
L 321.062626 206.550413 
L 321.307279 206.561528 
L 321.551932 207.647925 
L 321.796585 208.061874 
L 322.041238 207.276584 
L 322.285891 208.611364 
L 322.530544 208.548712 
L 322.775197 210.178504 
L 323.01985 209.009646 
L 323.264503 209.863291 
L 323.509156 208.177148 
L 323.753809 208.650197 
L 323.998462 207.265357 
L 324.243115 207.517619 
L 324.732421 202.546129 
L 324.977074 201.635152 
L 325.221727 202.810161 
L 325.46638 203.292306 
L 325.711033 202.332989 
L 325.955686 204.340655 
L 326.200339 205.11713 
L 326.444992 206.784175 
L 326.689645 207.635267 
L 326.934298 203.499154 
L 327.178951 203.165777 
L 327.668257 206.161189 
L 327.91291 187.037015 
L 328.157563 187.403878 
L 328.402216 183.805364 
L 328.646869 178.287057 
L 329.136175 174.66765 
L 329.380828 175.648898 
L 329.625481 175.183196 
L 329.870134 174.477908 
L 330.114787 174.483826 
L 330.848746 177.097539 
L 331.093399 181.686275 
L 331.338052 181.694838 
L 331.827358 176.246045 
L 332.072011 174.632341 
L 332.561317 176.993568 
L 332.80597 179.964179 
L 333.050623 177.967852 
L 333.539929 169.811114 
L 334.029235 166.059439 
L 334.273888 161.353476 
L 334.518541 160.278418 
L 335.007847 156.026518 
L 335.2525 148.241841 
L 335.497153 154.084523 
L 335.741806 154.311498 
L 335.986459 158.198424 
L 336.231112 164.561981 
L 336.475765 162.866424 
L 336.720418 165.120165 
L 336.965071 164.03086 
L 337.209724 160.223909 
L 337.454377 160.129164 
L 337.69903 161.110721 
L 337.943684 163.173823 
L 338.188337 163.257106 
L 338.43299 165.28934 
L 338.677643 164.208253 
L 338.922296 161.388747 
L 339.166949 162.367256 
L 339.411602 161.041226 
L 339.900908 157.37002 
L 340.390214 153.578474 
L 340.87952 156.696133 
L 341.124173 152.021562 
L 341.368826 149.633468 
L 341.613479 150.08639 
L 342.102785 143.954334 
L 342.347438 145.350971 
L 342.836744 149.420038 
L 343.081397 154.540306 
L 343.570703 155.915153 
L 343.815356 158.541954 
L 344.060009 159.756113 
L 344.304662 155.380592 
L 344.549315 155.047542 
L 344.793968 165.068095 
L 345.038621 166.004125 
L 345.283274 163.329003 
L 345.527927 165.666074 
L 345.77258 163.955102 
L 346.017233 167.681584 
L 346.506539 171.411702 
L 346.751192 169.669442 
L 346.995845 169.129581 
L 347.240498 169.792511 
L 347.485151 168.418731 
L 347.729804 165.575228 
L 347.974457 165.715162 
L 348.21911 164.568011 
L 348.708416 160.274567 
L 348.953069 157.11844 
L 349.197722 159.801639 
L 349.442375 157.723365 
L 349.687028 158.745755 
L 349.931681 157.899271 
L 350.66564 159.168071 
L 350.910293 156.947507 
L 351.399599 157.582506 
L 351.644252 165.089932 
L 351.888905 167.11997 
L 352.133558 166.621343 
L 352.378211 166.961003 
L 352.622864 169.707003 
L 352.867517 169.801374 
L 353.11217 170.554487 
L 353.356823 172.989107 
L 353.601476 169.64021 
L 354.090782 167.554345 
L 354.335435 165.967938 
L 354.580088 165.525243 
L 355.069394 161.768043 
L 355.314047 161.999243 
L 355.5587 160.636381 
L 355.803353 161.991765 
L 356.048006 159.733079 
L 356.292659 162.782187 
L 356.537312 162.275718 
L 356.781965 162.68447 
L 357.026618 162.70842 
L 357.271271 163.889449 
L 357.515924 163.108534 
L 357.760577 143.984211 
L 358.494536 126.037925 
L 358.739189 122.555984 
L 358.983842 131.000666 
L 359.717801 120.173621 
L 359.962454 121.941412 
L 360.207107 119.52446 
L 360.451761 120.376927 
L 360.941067 113.066897 
L 361.18572 113.266277 
L 361.430373 112.939574 
L 361.675026 113.766034 
L 361.919679 110.203474 
L 362.164332 110.176962 
L 362.408985 107.45135 
L 362.653638 96.28444 
L 362.898291 104.760439 
L 363.142944 106.082823 
L 363.387597 104.084673 
L 363.63225 104.089253 
L 363.876903 105.050066 
L 364.121556 105.15342 
L 364.366209 98.672412 
L 364.610862 97.709543 
L 364.855515 94.958167 
L 365.100168 96.036693 
L 365.834127 108.469449 
L 366.07878 104.80374 
L 366.323433 110.117601 
L 366.568086 112.469582 
L 366.812739 117.470875 
L 367.057392 114.28617 
L 367.302045 114.319001 
L 367.546698 110.628856 
L 367.791351 103.481075 
L 368.036004 100.302485 
L 368.280657 92.731621 
L 368.52531 93.166613 
L 368.769963 88.412114 
L 369.014616 89.171435 
L 369.259269 87.30057 
L 369.503922 88.032837 
L 369.748575 85.894501 
L 369.993228 84.853237 
L 370.482534 88.509336 
L 370.727187 85.348432 
L 370.97184 91.151468 
L 371.216493 89.683494 
L 371.461146 91.326598 
L 371.705799 89.900243 
L 371.950452 89.626769 
L 372.439758 85.140527 
L 372.684411 80.070357 
L 372.929064 81.17201 
L 373.173717 79.809709 
L 373.41837 86.260728 
L 373.663023 97.995599 
L 373.907676 86.511672 
L 374.396982 87.948329 
L 374.641635 91.263067 
L 374.886288 90.92941 
L 375.130941 94.06182 
L 375.620247 88.330149 
L 375.8649 88.276882 
L 376.109553 88.736442 
L 376.354206 87.49019 
L 376.598859 88.885397 
L 376.843512 86.984207 
L 377.088165 83.184276 
L 377.332818 81.253041 
L 377.577471 86.585934 
L 377.822124 86.926472 
L 378.066777 85.806272 
L 378.31143 89.200302 
L 378.556083 83.711349 
L 379.045389 81.364659 
L 379.290042 82.848225 
L 379.779348 60.667212 
L 380.024001 60.967384 
L 380.268654 61.666652 
L 380.513307 68.268533 
L 380.75796 69.90556 
L 381.002613 78.405041 
L 381.247266 76.801107 
L 381.491919 74.323074 
L 381.736572 75.879669 
L 381.981225 71.33715 
L 382.225878 70.122327 
L 382.470531 69.654504 
L 382.715184 68.449926 
L 382.959838 68.807758 
L 383.204491 68.31705 
L 383.693797 57.83905 
L 383.93845 56.45392 
L 384.183103 55.817754 
L 384.672409 48.527655 
L 384.917062 49.300998 
L 385.161715 49.391115 
L 385.406368 49.109415 
L 385.651021 49.059308 
L 385.895674 49.569423 
L 386.140327 47.351029 
L 386.38498 52.838206 
L 386.629633 50.44212 
L 386.874286 44.085387 
L 387.118939 41.435646 
L 387.363592 37.020619 
L 387.608245 36.37845 
L 387.852898 38.119505 
L 387.852898 38.119505 
" style="fill:none;stroke:#1f77b4;stroke-linecap:square;stroke-width:1.5;"/>
   </g>
   <g id="line2d_32">
    <path clip-path="url(#p8a55609c54)" d="M 63.198352 273.787421 
L 63.443005 273.530109 
L 63.687658 273.713903 
L 63.932311 273.652639 
L 64.66627 272.78268 
L 64.910923 272.684657 
L 65.155576 272.096516 
L 65.400229 272.206793 
L 65.644882 271.973987 
L 66.134188 272.378334 
L 66.378841 272.010746 
L 66.623494 272.170034 
L 67.357453 272.182287 
L 67.602106 272.598886 
L 67.846759 272.231298 
L 68.091412 272.537622 
L 68.580719 272.57438 
L 68.825372 272.90521 
L 69.070025 272.929716 
L 69.314678 273.848686 
L 69.559331 273.799674 
L 69.803984 273.297304 
L 70.048637 273.70165 
L 70.29329 273.848686 
L 71.271902 273.162521 
L 71.516555 273.628133 
L 72.005861 273.321809 
L 72.250514 273.444339 
L 72.73982 273.383074 
L 73.229126 273.971215 
L 73.718432 273.775168 
L 73.963085 274.044732 
L 74.207738 273.983468 
L 74.452391 274.142756 
L 74.697044 273.432086 
L 74.941697 273.82418 
L 75.18635 273.983468 
L 75.675656 274.596114 
L 75.920309 274.510344 
L 76.164962 274.645126 
L 76.409615 274.449079 
L 76.654268 273.995721 
L 77.143574 274.363309 
L 77.388227 275.282279 
L 77.63288 275.45382 
L 77.877533 275.012714 
L 78.122186 275.208761 
L 78.366839 275.196508 
L 78.856145 275.45382 
L 79.100798 274.74315 
L 79.345451 274.816667 
L 79.590104 274.167262 
L 79.834757 274.179515 
L 80.07941 274.669632 
L 80.324063 274.583861 
L 80.813369 275.527337 
L 81.058022 275.625361 
L 81.302675 275.980696 
L 81.547328 275.919431 
L 81.791981 276.176743 
L 82.036634 275.784649 
L 82.281287 276.04196 
L 82.52594 275.637614 
L 82.770593 275.53959 
L 83.015246 275.282279 
L 83.504552 275.098485 
L 83.749205 275.368049 
L 83.993858 275.45382 
L 84.238511 275.723384 
L 84.483164 275.294532 
L 84.727817 275.466073 
L 85.217123 275.466073 
L 85.706429 274.62062 
L 85.951082 274.779908 
L 87.419 274.632873 
L 87.663653 274.988208 
L 88.152959 275.122991 
L 88.642265 275.294532 
L 88.886918 275.098485 
L 89.131571 274.53485 
L 89.376224 274.522597 
L 89.620877 274.007974 
L 90.110183 274.816667 
L 90.354836 275.159749 
L 91.088796 275.172002 
L 91.333449 275.441567 
L 91.822755 275.110738 
L 92.312061 275.282279 
L 92.801367 275.184255 
L 93.290673 274.669632 
L 93.535326 275.000461 
L 94.269285 274.963702 
L 94.513938 275.221014 
L 94.758591 274.877932 
L 95.247897 275.061726 
L 95.737203 274.792161 
L 96.226509 274.963702 
L 96.471162 274.522597 
L 96.715815 274.522597 
L 97.449774 275.061726 
L 97.694427 274.779908 
L 97.93908 275.049473 
L 98.183733 274.963702 
L 98.428386 274.681885 
L 98.917692 274.547103 
L 99.162345 274.62062 
L 99.406998 274.436826 
L 101.364222 274.632873 
L 101.853528 274.841173 
L 102.098181 274.657379 
L 102.342834 274.902438 
L 102.587487 274.82892 
L 102.83214 274.914691 
L 103.321446 274.62062 
L 103.566099 274.400067 
L 103.810752 274.914691 
L 104.300058 275.257773 
L 104.544711 275.122991 
L 104.789364 274.853426 
L 105.034017 274.890185 
L 105.523323 274.400067 
L 105.767976 274.473585 
L 106.012629 274.081491 
L 106.257282 274.41232 
L 106.501935 274.240779 
L 106.991241 274.755403 
L 107.480547 274.694138 
L 108.214506 273.61588 
L 108.459159 273.689397 
L 108.948465 273.248292 
L 109.193118 273.395327 
L 109.682424 273.125762 
L 109.927077 273.174774 
L 110.17173 273.395327 
L 110.416383 273.089004 
L 110.661036 273.076751 
L 110.905689 272.304816 
L 111.150342 272.672404 
L 111.639648 272.108769 
L 111.884301 272.19454 
L 112.128954 271.900469 
L 112.373607 271.937228 
L 112.61826 271.839205 
L 112.862913 272.476357 
L 113.107566 272.19454 
L 113.841526 272.427345 
L 114.086179 272.19454 
L 114.330832 272.390587 
L 114.820138 272.390587 
L 115.064791 272.770427 
L 115.309444 272.660151 
L 115.554097 272.415092 
L 115.79875 272.427345 
L 116.288056 272.90521 
L 116.532709 272.513116 
L 116.777362 272.537622 
L 117.022015 272.366081 
L 117.266668 272.476357 
L 117.511321 271.937228 
L 117.755974 272.427345 
L 118.000627 272.464104 
L 118.24528 272.819439 
L 118.489933 272.69691 
L 119.223892 272.917463 
L 120.202504 272.672404 
L 120.447157 272.770427 
L 120.69181 272.672404 
L 121.181116 272.19454 
L 122.159728 272.219045 
L 122.404381 272.292563 
L 122.649034 272.672404 
L 124.116952 272.758174 
L 124.361605 272.464104 
L 124.606258 272.427345 
L 125.095564 272.035251 
L 125.340217 271.949481 
L 125.58487 272.219045 
L 125.829523 272.231298 
L 126.074176 272.108769 
L 126.563482 272.513116 
L 126.808135 272.451851 
L 127.052788 271.704422 
L 127.542094 271.508375 
L 127.786747 271.802446 
L 129.010012 271.753434 
L 129.254665 271.98624 
L 130.233277 272.035251 
L 130.722583 271.814699 
L 130.967236 271.888216 
L 131.945848 270.883476 
L 132.435154 270.748694 
L 133.169113 270.601658 
L 133.658419 270.956993 
L 134.147725 270.85897 
L 135.615643 271.27557 
L 135.860297 271.018258 
L 136.10495 271.018258 
L 136.349603 271.177546 
L 136.594256 271.471617 
L 136.838909 271.27557 
L 137.083562 271.422605 
L 137.328215 271.140787 
L 137.572868 271.238811 
L 137.817521 271.006005 
L 138.062174 270.969246 
L 138.306827 270.748694 
L 138.55148 270.699682 
L 138.796133 270.797705 
L 139.285439 271.27557 
L 139.774745 271.483869 
L 140.753357 271.422605 
L 140.99801 271.961734 
L 141.242663 271.98624 
L 141.487316 271.86371 
L 141.731969 272.304816 
L 141.976622 271.055017 
L 142.221275 270.895729 
L 142.465928 270.871223 
L 142.710581 270.332094 
L 142.955234 270.246323 
L 143.199887 270.307588 
L 143.689193 271.202052 
L 143.933846 271.483869 
L 144.178499 271.336834 
L 144.423152 271.520628 
L 144.667805 271.116281 
L 145.157111 270.883476 
L 145.401764 271.006005 
L 145.646417 270.822211 
L 145.89107 270.834464 
L 146.135723 270.5649 
L 146.869682 271.483869 
L 147.114335 271.055017 
L 147.358988 271.238811 
L 147.603641 271.606399 
L 147.848294 271.716675 
L 148.3376 271.606399 
L 148.582253 271.349087 
L 148.826906 271.27557 
L 149.071559 270.895729 
L 149.560865 270.736441 
L 149.805518 270.920235 
L 150.050171 270.809958 
L 150.294824 270.552647 
L 150.539477 270.491382 
L 151.028783 270.920235 
L 151.762742 270.074782 
L 152.007395 270.822211 
L 152.252048 270.846717 
L 152.496701 271.300075 
L 152.741354 270.711935 
L 152.986007 270.503635 
L 153.23066 270.44237 
L 153.475313 270.528141 
L 153.964619 270.479129 
L 154.209272 270.552647 
L 154.453925 271.055017 
L 154.698578 271.177546 
L 154.943231 270.993752 
L 155.187884 271.177546 
L 155.432537 270.85897 
L 155.67719 270.883476 
L 155.921843 271.140787 
L 156.166496 271.030511 
L 156.411149 271.202052 
L 157.389761 270.209564 
L 158.12372 268.175578 
L 158.368374 268.187831 
L 158.613027 267.89376 
L 158.85768 267.109572 
L 159.102333 267.281114 
L 159.346986 266.950284 
L 159.591639 267.158584 
L 159.836292 267.195343 
L 160.325598 267.59969 
L 160.570251 267.709966 
L 161.059557 267.281114 
L 161.30421 267.59969 
L 161.548863 267.624196 
L 161.793516 267.955025 
L 162.038169 267.734472 
L 162.282822 267.673207 
L 162.527475 268.383877 
L 163.016781 268.285854 
L 163.506087 267.39139 
L 163.995393 267.403643 
L 164.484699 267.513919 
L 164.974005 268.322613 
L 165.463311 268.175578 
L 165.707964 267.268861 
L 165.952617 267.415896 
L 166.19727 267.170837 
L 166.441923 267.881507 
L 166.686576 267.80799 
L 166.931229 267.011549 
L 167.175882 267.036055 
L 167.665188 267.918266 
L 168.154494 267.513919 
L 168.6438 267.379137 
L 169.622412 266.521432 
L 169.867065 267.170837 
L 170.111718 267.268861 
L 170.356371 267.219849 
L 170.601024 267.489413 
L 170.845677 267.366884 
L 171.09033 267.538425 
L 171.334983 267.293366 
L 171.579636 267.758978 
L 171.824289 267.734472 
L 172.068942 267.452655 
L 172.313595 268.004037 
L 172.558248 267.354631 
L 173.047554 267.942772 
L 173.53686 268.114313 
L 173.781513 267.403643 
L 174.026166 267.771231 
L 174.515472 267.673207 
L 174.760125 267.464908 
L 175.249431 266.864514 
L 176.472696 266.987043 
L 177.451308 266.656214 
L 177.940614 266.202855 
L 178.919226 266.117085 
L 179.163879 266.668467 
L 179.897838 267.550678 
L 180.142491 267.317872 
L 180.387144 267.624196 
L 180.631798 267.59969 
L 181.121104 267.146331 
L 181.365757 267.232102 
L 181.61041 267.023802 
L 182.099716 267.39139 
L 182.344369 266.705226 
L 182.589022 266.840008 
L 182.833675 266.778743 
L 183.078328 266.484673 
L 183.322981 266.386649 
L 183.812287 266.47242 
L 184.05694 267.526172 
L 184.301593 267.39139 
L 184.546246 267.489413 
L 184.790899 267.967278 
L 185.035552 267.930519 
L 185.280205 268.322613 
L 185.524858 268.408383 
L 185.769511 268.334866 
L 186.014164 267.967278 
L 186.258817 268.677948 
L 186.50347 268.445142 
L 187.482082 268.72696 
L 187.726735 266.840008 
L 188.216041 266.962537 
L 188.460694 266.827755 
L 188.705347 267.085067 
L 189.194653 266.47242 
L 189.439306 266.386649 
L 190.173265 266.741984 
L 190.417918 266.705226 
L 190.662571 266.288626 
L 190.907224 266.55819 
L 191.39653 266.288626 
L 191.641183 266.227361 
L 191.885836 266.006808 
L 192.130489 265.577956 
L 192.375142 265.651473 
L 192.864448 266.17835 
L 193.109101 266.092579 
L 193.598407 266.692973 
L 193.84306 267.011549 
L 194.087713 266.668467 
L 194.332366 266.656214 
L 194.577019 266.300879 
L 195.066325 266.97479 
L 195.310978 267.072814 
L 195.555631 266.938031 
L 195.800284 267.440402 
L 196.28959 267.428149 
L 196.534243 267.513919 
L 197.023549 267.832495 
L 197.268202 267.783484 
L 197.757508 268.151072 
L 198.002161 267.746725 
L 198.246814 268.175578 
L 198.491467 269.486641 
L 198.73612 269.547906 
L 199.225426 268.751465 
L 199.714732 268.775971 
L 199.959385 268.592177 
L 200.204038 267.673207 
L 200.448691 268.200083 
L 200.693344 267.709966 
L 200.937997 267.47716 
L 201.18265 267.464908 
L 201.427303 266.925778 
L 201.916609 267.219849 
L 202.161262 266.17835 
L 202.650568 265.455427 
L 203.139875 265.34515 
L 203.384528 265.872026 
L 203.629181 265.590209 
L 204.118487 266.05582 
L 204.36314 266.166097 
L 204.607793 265.872026 
L 204.852446 265.982303 
L 205.097099 265.406415 
L 205.341752 265.602462 
L 205.586405 265.198115 
L 206.320364 264.916297 
L 206.565017 264.499698 
L 206.80967 264.42618 
L 207.054323 264.904045 
L 207.298976 264.867286 
L 207.543629 264.21788 
L 207.788282 264.450686 
L 208.032935 264.303651 
L 208.277588 264.63448 
L 208.522241 264.720251 
L 208.766894 265.283885 
L 209.011547 265.296138 
L 209.2562 266.068073 
L 209.500853 266.141591 
L 209.745506 266.423408 
L 209.990159 265.443174 
L 210.234812 265.34515 
L 210.479465 265.100091 
L 210.724118 264.658986 
L 211.213424 264.916297 
L 211.70273 264.92855 
L 211.947383 265.161356 
L 212.192036 265.55345 
L 212.436689 265.455427 
L 212.681342 265.872026 
L 212.925995 266.607202 
L 213.170648 266.668467 
L 213.415301 265.786256 
L 213.659954 265.688232 
L 213.904607 265.994556 
L 214.14926 266.031314 
L 214.393913 265.933291 
L 214.638566 266.104832 
L 214.883219 265.663726 
L 215.127872 265.590209 
L 215.861831 264.744756 
L 216.106484 264.867286 
L 216.351137 266.068073 
L 216.59579 266.460167 
L 216.840443 265.884279 
L 217.085096 266.594949 
L 217.574402 265.479932 
L 217.819055 265.418668 
L 218.063708 265.026574 
L 218.553014 265.149103 
L 218.797667 264.450686 
L 219.04232 264.622227 
L 219.286973 262.79654 
L 219.776279 262.698517 
L 220.020932 263.017093 
L 220.265585 262.943575 
L 220.510238 262.747528 
L 220.754891 262.968081 
L 220.999544 262.784287 
L 221.244197 262.992587 
L 221.48885 262.919069 
L 221.733503 263.09061 
L 221.978156 262.441205 
L 222.222809 262.943575 
L 222.467462 262.637252 
L 222.712115 262.110376 
L 222.956768 262.490217 
L 223.201421 262.416699 
L 223.446074 261.938835 
L 224.180033 262.306423 
L 224.669339 261.632511 
L 224.913992 262.098123 
L 225.403298 261.362947 
L 225.647952 262.29417 
L 225.892605 262.674011 
L 226.137258 264.34041 
L 226.381911 264.438433 
L 226.626564 263.92381 
L 226.871217 263.813534 
L 227.11587 264.475192 
L 227.605176 264.315904 
L 227.849829 263.580728 
L 228.339135 263.139622 
L 228.583788 262.526976 
L 228.828441 262.232905 
L 229.317747 262.723022 
L 229.5624 262.392193 
L 229.807053 262.563734 
L 230.051706 262.919069 
L 230.541012 263.102863 
L 230.785665 262.784287 
L 231.030318 262.894564 
L 231.274971 263.127369 
L 231.764277 262.79654 
L 232.00893 262.992587 
L 232.253583 262.919069 
L 232.498236 262.245158 
L 232.742889 262.416699 
L 232.987542 263.127369 
L 233.232195 263.041599 
L 233.476848 262.563734 
L 233.721501 264.609974 
L 233.966154 264.84278 
L 234.700113 264.034086 
L 235.189419 264.058592 
L 235.434072 264.34041 
L 235.678725 264.34041 
L 235.923378 264.524204 
L 236.168031 264.560962 
L 236.412684 264.720251 
L 236.657337 263.360175 
L 236.90199 262.992587 
L 237.146643 263.00484 
L 237.391296 262.698517 
L 237.880602 263.531716 
L 238.125255 263.053852 
L 238.369908 262.845552 
L 238.614561 263.470451 
L 238.859214 263.335669 
L 239.103867 263.813534 
L 239.34852 263.531716 
L 239.593173 264.254639 
L 239.837826 264.303651 
L 240.571785 263.237646 
L 241.061091 263.445946 
L 241.305744 264.119857 
L 241.550397 264.377168 
L 241.79505 264.181122 
L 242.284356 265.467679 
L 242.529009 265.479932 
L 242.773662 265.124597 
L 243.018315 265.100091 
L 243.996927 266.337638 
L 244.24158 265.921038 
L 244.486233 265.76175 
L 244.730886 265.749497 
L 244.975539 265.921038 
L 245.220192 265.381909 
L 245.464845 265.528944 
L 245.709498 265.982303 
L 245.954151 265.872026 
L 246.198804 266.337638 
L 246.443457 266.043567 
L 246.932763 266.460167 
L 247.422069 265.651473 
L 247.666722 265.590209 
L 247.911375 265.675979 
L 248.156029 265.25938 
L 248.400682 265.161356 
L 248.645335 264.904045 
L 248.889988 265.063333 
L 249.134641 261.963341 
L 249.379294 260.983106 
L 249.623947 261.130141 
L 249.8686 261.056624 
L 250.113253 261.301682 
L 250.357906 261.277176 
L 250.602559 261.46097 
L 250.847212 261.840811 
L 251.091865 261.951088 
L 251.825824 264.744756 
L 252.070477 265.271633 
L 252.31513 263.396934 
L 252.559783 262.392193 
L 252.804436 262.269664 
L 253.049089 262.575987 
L 253.293742 263.703257 
L 253.538395 262.906816 
L 253.783048 262.833299 
L 254.027701 263.470451 
L 254.272354 262.330929 
L 254.517007 262.882311 
L 254.76166 262.453458 
L 255.250966 262.318676 
L 255.984925 261.558994 
L 256.229578 261.5835 
L 256.474231 261.289429 
L 256.718884 262.073617 
L 256.963537 261.938835 
L 257.20819 261.399706 
L 257.452843 261.191406 
L 257.697496 261.571247 
L 257.942149 261.068877 
L 258.186802 259.917101 
L 258.431455 260.505242 
L 258.920761 258.973625 
L 259.410067 258.238449 
L 259.65472 258.054655 
L 259.899373 258.177184 
L 260.144026 257.834102 
L 260.388679 257.772838 
L 260.633332 256.596556 
L 260.877985 256.510786 
L 261.122638 255.983909 
L 261.611944 256.094186 
L 261.856597 256.535291 
L 262.10125 255.322251 
L 262.345903 255.089445 
L 262.590556 255.248733 
L 262.835209 255.273239 
L 263.079862 254.991422 
L 263.324515 256.204462 
L 263.569168 255.35901 
L 263.813821 254.954663 
L 264.058474 255.199722 
L 264.54778 256.167703 
L 264.792433 251.462577 
L 265.037086 251.634118 
L 265.281739 252.369294 
L 265.526392 252.736882 
L 265.771045 252.871664 
L 266.015698 253.60684 
L 266.260351 252.871664 
L 266.505004 252.871664 
L 266.749657 252.09973 
L 266.99431 251.989453 
L 267.238963 251.658624 
L 267.483616 252.234512 
L 267.728269 251.928189 
L 267.972922 251.9772 
L 268.462228 251.254277 
L 268.706881 249.992225 
L 268.951534 250.298549 
L 269.196187 250.384319 
L 269.44084 248.766932 
L 269.685493 249.55112 
L 269.930146 248.999738 
L 270.174799 250.041237 
L 270.419452 249.710408 
L 270.664106 250.310802 
L 270.908759 250.212778 
L 271.398065 249.477602 
L 271.887371 250.739654 
L 272.132024 249.808431 
L 272.62133 249.624637 
L 272.865983 249.477602 
L 273.110636 249.514361 
L 273.355289 248.852703 
L 273.844595 249.734914 
L 274.089248 250.457837 
L 274.333901 249.820684 
L 274.823207 253.0187 
L 275.06786 253.81514 
L 275.312513 253.753876 
L 275.557166 253.141229 
L 276.291125 256.902879 
L 277.025084 256.057427 
L 277.269737 255.260986 
L 277.51439 255.297745 
L 277.759043 254.954663 
L 278.248349 255.751104 
L 278.493002 254.23174 
L 278.737655 254.219487 
L 278.982308 255.738851 
L 279.226961 255.56731 
L 279.471614 255.555057 
L 279.96092 259.218684 
L 280.205573 258.887855 
L 280.694879 259.12066 
L 280.939532 258.593784 
L 281.184185 257.049915 
L 281.428838 256.228968 
L 281.673491 253.31277 
L 281.918144 252.822653 
L 282.162797 251.499336 
L 282.40745 251.401313 
L 282.652103 251.131748 
L 282.896756 251.045978 
L 283.141409 251.303289 
L 283.386062 251.327795 
L 283.630715 251.695383 
L 283.875368 249.992225 
L 284.120021 249.75942 
L 284.364674 250.114755 
L 284.609327 250.237284 
L 284.85398 250.494596 
L 285.098633 251.217519 
L 285.587939 251.303289 
L 285.832592 250.641631 
L 286.077245 250.543607 
L 286.321898 250.739654 
L 286.566551 249.563373 
L 286.811204 249.906455 
L 287.055857 248.693414 
L 287.30051 248.570885 
L 287.545163 248.644403 
L 287.789816 247.933733 
L 288.034469 247.872468 
L 288.279122 247.443615 
L 288.768428 246.304092 
L 289.013081 246.463381 
L 289.257734 245.826228 
L 289.502387 246.255081 
L 289.74704 246.316345 
L 289.991693 246.255081 
L 290.236346 246.708439 
L 290.725652 246.157057 
L 290.970305 246.206069 
L 291.214958 245.103305 
L 291.459611 244.980776 
L 291.704264 244.625441 
L 291.948917 244.821488 
L 292.19357 245.630181 
L 292.438223 245.45864 
L 292.682876 245.507652 
L 292.92753 245.679193 
L 293.172183 245.45864 
L 293.416836 245.421881 
L 293.661489 244.404888 
L 294.150795 246.58591 
L 294.395448 246.010022 
L 294.640101 246.536898 
L 294.884754 247.529386 
L 295.129407 247.272074 
L 295.37406 246.830969 
L 295.618713 246.892233 
L 295.863366 246.059034 
L 296.108019 245.936505 
L 296.352672 246.536898 
L 296.597325 239.908062 
L 296.841978 238.425457 
L 297.086631 238.31518 
L 297.331284 236.991864 
L 297.575937 236.759058 
L 297.82059 235.803329 
L 298.065243 235.717559 
L 298.309896 234.541277 
L 298.554549 234.774083 
L 299.288508 232.874878 
L 299.533161 232.764602 
L 299.777814 232.360255 
L 300.022467 233.168948 
L 300.26712 233.463019 
L 300.511773 233.352742 
L 300.756426 233.536536 
L 301.001079 232.066185 
L 301.245732 233.512031 
L 301.490385 232.789108 
L 301.735038 232.678831 
L 301.979691 232.09069 
L 302.224344 231.857885 
L 302.468997 232.874878 
L 302.71365 231.845632 
L 302.958303 232.200967 
L 303.202956 232.249979 
L 303.447609 230.706109 
L 303.692262 234.087918 
L 303.936915 234.688312 
L 304.670874 232.519543 
L 304.915527 232.948396 
L 305.16018 232.102943 
L 305.404833 231.735355 
L 305.649486 230.215992 
L 306.138792 226.380824 
L 306.383445 225.425095 
L 306.628098 225.449601 
L 306.872751 224.787942 
L 307.117404 225.547624 
L 307.362057 225.216795 
L 307.851363 223.685178 
L 308.096016 224.910472 
L 308.585322 221.89625 
L 308.829975 220.732222 
L 309.074628 221.430639 
L 309.319281 221.283604 
L 309.563934 220.156334 
L 309.808587 220.609692 
L 310.05324 221.455145 
L 310.297893 221.271351 
L 310.787199 218.808511 
L 311.031852 218.146853 
L 311.276505 217.963059 
L 311.521158 218.42867 
L 311.765811 216.970571 
L 312.010464 212.878092 
L 312.255117 212.951609 
L 312.49977 213.417221 
L 312.744423 215.193896 
L 312.989076 214.029867 
L 313.478382 213.515244 
L 313.723035 213.03738 
L 313.967688 214.225914 
L 314.212341 214.728285 
L 314.456994 214.115638 
L 314.701647 214.16465 
L 315.190953 214.96109 
L 315.435607 212.743309 
L 315.68026 213.502991 
L 315.924913 212.780068 
L 316.169566 213.919591 
L 316.414219 213.368209 
L 316.658872 217.191124 
L 316.903525 215.684013 
L 317.148178 216.762271 
L 317.392831 216.112866 
L 317.637484 213.306944 
L 317.882137 213.12315 
L 318.12679 212.106157 
L 318.371443 212.816827 
L 318.616096 210.648058 
L 318.860749 210.452011 
L 319.105402 210.537782 
L 319.350055 211.28521 
L 319.594708 208.589565 
L 319.839361 208.295495 
L 320.084014 207.535813 
L 320.328667 206.163485 
L 321.062626 206.51882 
L 321.551932 208.209724 
L 321.796585 207.903401 
L 322.041238 209.091935 
L 322.285891 208.724347 
L 322.530544 210.047664 
L 322.775197 209.263477 
L 323.01985 209.729088 
L 323.264503 208.503795 
L 323.509156 208.675336 
L 323.753809 207.131466 
L 323.998462 207.364272 
L 324.243115 203.480092 
L 324.487768 202.058752 
L 324.732421 201.703417 
L 324.977074 203.516851 
L 325.221727 203.663886 
L 325.46638 202.92871 
L 325.711033 205.514079 
L 325.955686 205.869414 
L 326.200339 206.849649 
L 326.444992 207.327513 
L 326.689645 202.793928 
L 326.934298 202.92871 
L 327.178951 204.399062 
L 327.423604 207.082454 
L 327.668257 182.33153 
L 327.91291 187.63705 
L 328.157563 184.512552 
L 328.402216 177.846957 
L 328.891522 175.727199 
L 329.136175 176.192811 
L 329.380828 175.371864 
L 329.870134 174.746965 
L 330.114787 174.808229 
L 330.604093 177.14854 
L 330.848746 182.735877 
L 331.093399 181.743389 
L 331.338052 177.540633 
L 331.827358 173.631948 
L 332.561317 180.346555 
L 332.80597 178.410592 
L 333.050623 171.941043 
L 333.539929 167.088882 
L 333.784582 165.594024 
L 334.029235 161.256486 
L 334.273888 160.447792 
L 334.518541 158.879417 
L 334.763194 155.607884 
L 335.007847 146.369172 
L 335.2525 156.257289 
L 335.497153 153.58615 
L 335.986459 165.128412 
L 336.231112 162.212214 
L 336.475765 165.459242 
L 336.720418 163.792843 
L 336.965071 158.671117 
L 337.209724 159.663604 
L 337.69903 163.376243 
L 337.943684 163.388496 
L 338.188337 166.231176 
L 338.677643 161.268739 
L 338.922296 162.677826 
L 339.166949 161.354509 
L 339.411602 158.609852 
L 339.656255 158.046217 
L 340.145561 153.16955 
L 340.390214 155.313813 
L 340.634867 156.34306 
L 340.87952 150.498411 
L 341.124173 148.733988 
L 341.368826 149.971535 
L 341.858132 144.151391 
L 342.102785 144.788544 
L 342.592091 150.902757 
L 342.836744 157.323294 
L 343.32605 156.563612 
L 343.570703 158.707876 
L 343.815356 158.732382 
L 344.060009 154.027255 
L 344.304662 154.407096 
L 344.549315 166.990858 
L 344.793968 165.802324 
L 345.038621 162.187709 
L 345.283274 165.777818 
L 345.527927 164.172684 
L 345.77258 168.816545 
L 346.261886 170.446185 
L 346.506539 169.135122 
L 346.751192 169.355674 
L 346.995845 169.38018 
L 347.240498 168.66951 
L 347.485151 165.324459 
L 347.729804 165.41023 
L 347.974457 164.466754 
L 348.21911 162.922885 
L 348.463763 160.153722 
L 348.708416 156.01223 
L 348.953069 160.349769 
L 349.197722 157.703135 
L 349.442375 158.903923 
L 349.687028 158.438311 
L 349.931681 157.482582 
L 350.420987 158.597599 
L 350.66564 156.073495 
L 351.154946 157.323294 
L 351.399599 166.635523 
L 351.644252 167.554493 
L 351.888905 166.660029 
L 352.133558 167.186905 
L 352.378211 170.323656 
L 352.622864 169.894803 
L 352.867517 170.887291 
L 353.11217 173.117325 
L 353.356823 168.534728 
L 353.601476 168.46121 
L 353.846129 167.983346 
L 354.090782 166.047382 
L 354.335435 165.532759 
L 354.824741 161.783362 
L 355.069394 162.665573 
L 355.314047 160.680598 
L 355.5587 162.322491 
L 355.803353 159.455305 
L 356.048006 163.327231 
L 356.292659 162.383756 
L 356.537312 162.873873 
L 356.781965 162.86162 
L 357.026618 164.19719 
L 357.271271 163.98889 
L 357.515924 141.504758 
L 357.760577 135.12098 
L 358.00523 133.417822 
L 358.249883 125.551439 
L 358.494536 122.488206 
L 358.739189 133.626122 
L 359.228495 123.480694 
L 359.473148 119.927343 
L 359.717801 122.218642 
L 359.962454 120.33169 
L 360.207107 120.711531 
L 360.696414 112.612342 
L 360.941067 113.249495 
L 361.18572 113.237242 
L 361.430373 114.119453 
L 361.675026 108.764921 
L 361.919679 109.585868 
L 362.164332 107.404846 
L 362.408985 94.147173 
L 362.653638 106.816705 
L 362.898291 106.363347 
L 363.142944 104.611177 
L 363.387597 104.219083 
L 363.63225 103.422643 
L 363.876903 104.341613 
L 364.121556 97.357441 
L 364.366209 97.639258 
L 364.610862 94.72306 
L 364.855515 96.070883 
L 365.100168 101.633715 
L 365.344821 103.692207 
L 365.589474 110.517091 
L 365.834127 104.182325 
L 366.07878 110.394562 
L 366.323433 112.992183 
L 366.568086 119.400467 
L 366.812739 114.842376 
L 367.057392 114.3155 
L 367.302045 110.296538 
L 367.546698 101.793003 
L 367.791351 99.121863 
L 368.036004 90.998169 
L 368.280657 93.30172 
L 368.52531 88.008453 
L 368.769963 88.866159 
L 369.014616 86.770907 
L 369.259269 87.824659 
L 369.503922 84.883955 
L 369.748575 84.148779 
L 369.993228 86.538101 
L 370.237881 87.518336 
L 370.482534 85.178026 
L 370.727187 91.941645 
L 370.97184 88.694617 
L 371.216493 90.998169 
L 371.461146 88.572088 
L 371.705799 88.694617 
L 371.950452 86.133754 
L 372.195105 85.23929 
L 372.439758 78.941283 
L 372.684411 81.453134 
L 372.929064 79.235353 
L 373.41837 99.02384 
L 373.663023 83.781191 
L 374.152329 87.763395 
L 374.396982 92.272474 
L 374.641635 92.235715 
L 374.886288 95.115154 
L 375.375594 86.966954 
L 375.620247 87.714383 
L 375.8649 89.405288 
L 376.109553 87.983947 
L 376.354206 88.314777 
L 376.598859 87.113989 
L 376.843512 82.506886 
L 377.088165 81.257087 
L 377.332818 86.832172 
L 377.577471 86.954701 
L 377.822124 86.011225 
L 378.066777 89.552323 
L 378.31143 83.046015 
L 378.800736 81.367364 
L 379.045389 82.555898 
L 379.534695 60.316825 
L 379.779348 60.561884 
L 380.024001 62.412077 
L 380.268654 68.636566 
L 380.513307 70.793083 
L 380.75796 80.595429 
L 381.002613 79.419147 
L 381.247266 74.799792 
L 381.491919 74.861056 
L 381.736572 71.0749 
L 381.981225 70.793083 
L 382.225878 70.339724 
L 382.470531 68.501784 
L 382.715184 68.624313 
L 382.959838 67.974908 
L 383.449144 58.62592 
L 383.693797 56.163081 
L 383.93845 56.052804 
L 384.427756 47.598281 
L 384.917062 48.027133 
L 385.161715 47.757569 
L 385.406368 48.860333 
L 385.651021 49.203415 
L 385.895674 46.679311 
L 386.140327 52.830283 
L 386.38498 50.342938 
L 386.629633 42.782878 
L 386.874286 40.356797 
L 387.118939 36.717676 
L 387.363592 36.239812 
L 387.608245 37.783682 
L 387.852898 34.414125 
L 387.852898 34.414125 
" style="fill:none;stroke:#ff7f0e;stroke-linecap:square;stroke-width:1.5;"/>
   </g>
   <g id="patch_3">
    <path d="M 46.965625 288.430125 
L 46.965625 22.318125 
" style="fill:none;stroke:#000000;stroke-linecap:square;stroke-linejoin:miter;stroke-width:0.8;"/>
   </g>
   <g id="patch_4">
    <path d="M 404.085625 288.430125 
L 404.085625 22.318125 
" style="fill:none;stroke:#000000;stroke-linecap:square;stroke-linejoin:miter;stroke-width:0.8;"/>
   </g>
   <g id="patch_5">
    <path d="M 46.965625 288.430125 
L 404.085625 288.430125 
" style="fill:none;stroke:#000000;stroke-linecap:square;stroke-linejoin:miter;stroke-width:0.8;"/>
   </g>
   <g id="patch_6">
    <path d="M 46.965625 22.318125 
L 404.085625 22.318125 
" style="fill:none;stroke:#000000;stroke-linecap:square;stroke-linejoin:miter;stroke-width:0.8;"/>
   </g>
   <g id="text_18">
    <!-- Training: NVDA -->
    <defs>
     <path d="M -0.296875 72.90625 
L 61.375 72.90625 
L 61.375 64.59375 
L 35.5 64.59375 
L 35.5 0 
L 25.59375 0 
L 25.59375 64.59375 
L -0.296875 64.59375 
z
" id="DejaVuSans-84"/>
     <path d="M 54.890625 33.015625 
L 54.890625 0 
L 45.90625 0 
L 45.90625 32.71875 
Q 45.90625 40.484375 42.875 44.328125 
Q 39.84375 48.1875 33.796875 48.1875 
Q 26.515625 48.1875 22.3125 43.546875 
Q 18.109375 38.921875 18.109375 30.90625 
L 18.109375 0 
L 9.078125 0 
L 9.078125 54.6875 
L 18.109375 54.6875 
L 18.109375 46.1875 
Q 21.34375 51.125 25.703125 53.5625 
Q 30.078125 56 35.796875 56 
Q 45.21875 56 50.046875 50.171875 
Q 54.890625 44.34375 54.890625 33.015625 
z
" id="DejaVuSans-110"/>
     <path d="M 45.40625 27.984375 
Q 45.40625 37.75 41.375 43.109375 
Q 37.359375 48.484375 30.078125 48.484375 
Q 22.859375 48.484375 18.828125 43.109375 
Q 14.796875 37.75 14.796875 27.984375 
Q 14.796875 18.265625 18.828125 12.890625 
Q 22.859375 7.515625 30.078125 7.515625 
Q 37.359375 7.515625 41.375 12.890625 
Q 45.40625 18.265625 45.40625 27.984375 
z
M 54.390625 6.78125 
Q 54.390625 -7.171875 48.1875 -13.984375 
Q 42 -20.796875 29.203125 -20.796875 
Q 24.46875 -20.796875 20.265625 -20.09375 
Q 16.0625 -19.390625 12.109375 -17.921875 
L 12.109375 -9.1875 
Q 16.0625 -11.328125 19.921875 -12.34375 
Q 23.78125 -13.375 27.78125 -13.375 
Q 36.625 -13.375 41.015625 -8.765625 
Q 45.40625 -4.15625 45.40625 5.171875 
L 45.40625 9.625 
Q 42.625 4.78125 38.28125 2.390625 
Q 33.9375 0 27.875 0 
Q 17.828125 0 11.671875 7.65625 
Q 5.515625 15.328125 5.515625 27.984375 
Q 5.515625 40.671875 11.671875 48.328125 
Q 17.828125 56 27.875 56 
Q 33.9375 56 38.28125 53.609375 
Q 42.625 51.21875 45.40625 46.390625 
L 45.40625 54.6875 
L 54.390625 54.6875 
z
" id="DejaVuSans-103"/>
     <path d="M 11.71875 12.40625 
L 22.015625 12.40625 
L 22.015625 0 
L 11.71875 0 
z
M 11.71875 51.703125 
L 22.015625 51.703125 
L 22.015625 39.3125 
L 11.71875 39.3125 
z
" id="DejaVuSans-58"/>
     <path d="M 9.8125 72.90625 
L 23.09375 72.90625 
L 55.421875 11.921875 
L 55.421875 72.90625 
L 64.984375 72.90625 
L 64.984375 0 
L 51.703125 0 
L 19.390625 60.984375 
L 19.390625 0 
L 9.8125 0 
z
" id="DejaVuSans-78"/>
     <path d="M 28.609375 0 
L 0.78125 72.90625 
L 11.078125 72.90625 
L 34.1875 11.53125 
L 57.328125 72.90625 
L 67.578125 72.90625 
L 39.796875 0 
z
" id="DejaVuSans-86"/>
     <path d="M 34.1875 63.1875 
L 20.796875 26.90625 
L 47.609375 26.90625 
z
M 28.609375 72.90625 
L 39.796875 72.90625 
L 67.578125 0 
L 57.328125 0 
L 50.6875 18.703125 
L 17.828125 18.703125 
L 11.1875 0 
L 0.78125 0 
z
" id="DejaVuSans-65"/>
    </defs>
    <g transform="translate(180.714063 16.318125)scale(0.12 -0.12)">
     <use xlink:href="#DejaVuSans-84"/>
     <use x="46.333984" xlink:href="#DejaVuSans-114"/>
     <use x="87.447266" xlink:href="#DejaVuSans-97"/>
     <use x="148.726562" xlink:href="#DejaVuSans-105"/>
     <use x="176.509766" xlink:href="#DejaVuSans-110"/>
     <use x="239.888672" xlink:href="#DejaVuSans-105"/>
     <use x="267.671875" xlink:href="#DejaVuSans-110"/>
     <use x="331.050781" xlink:href="#DejaVuSans-103"/>
     <use x="394.527344" xlink:href="#DejaVuSans-58"/>
     <use x="428.21875" xlink:href="#DejaVuSans-32"/>
     <use x="460.005859" xlink:href="#DejaVuSans-78"/>
     <use x="534.810547" xlink:href="#DejaVuSans-86"/>
     <use x="603.21875" xlink:href="#DejaVuSans-68"/>
     <use x="678.470703" xlink:href="#DejaVuSans-65"/>
    </g>
   </g>
   <g id="legend_1">
    <g id="patch_7">
     <path d="M 53.965625 59.674375 
L 137.69375 59.674375 
Q 139.69375 59.674375 139.69375 57.674375 
L 139.69375 29.318125 
Q 139.69375 27.318125 137.69375 27.318125 
L 53.965625 27.318125 
Q 51.965625 27.318125 51.965625 29.318125 
L 51.965625 57.674375 
Q 51.965625 59.674375 53.965625 59.674375 
z
" style="fill:#ffffff;opacity:0.8;stroke:#cccccc;stroke-linejoin:miter;"/>
    </g>
    <g id="line2d_33">
     <path d="M 55.965625 35.416562 
L 75.965625 35.416562 
" style="fill:none;stroke:#1f77b4;stroke-linecap:square;stroke-width:1.5;"/>
    </g>
    <g id="line2d_34"/>
    <g id="text_19">
     <!-- Predicted -->
     <defs>
      <path d="M 45.40625 46.390625 
L 45.40625 75.984375 
L 54.390625 75.984375 
L 54.390625 0 
L 45.40625 0 
L 45.40625 8.203125 
Q 42.578125 3.328125 38.25 0.953125 
Q 33.9375 -1.421875 27.875 -1.421875 
Q 17.96875 -1.421875 11.734375 6.484375 
Q 5.515625 14.40625 5.515625 27.296875 
Q 5.515625 40.1875 11.734375 48.09375 
Q 17.96875 56 27.875 56 
Q 33.9375 56 38.25 53.625 
Q 42.578125 51.265625 45.40625 46.390625 
z
M 14.796875 27.296875 
Q 14.796875 17.390625 18.875 11.75 
Q 22.953125 6.109375 30.078125 6.109375 
Q 37.203125 6.109375 41.296875 11.75 
Q 45.40625 17.390625 45.40625 27.296875 
Q 45.40625 37.203125 41.296875 42.84375 
Q 37.203125 48.484375 30.078125 48.484375 
Q 22.953125 48.484375 18.875 42.84375 
Q 14.796875 37.203125 14.796875 27.296875 
z
" id="DejaVuSans-100"/>
      <path d="M 18.3125 70.21875 
L 18.3125 54.6875 
L 36.8125 54.6875 
L 36.8125 47.703125 
L 18.3125 47.703125 
L 18.3125 18.015625 
Q 18.3125 11.328125 20.140625 9.421875 
Q 21.96875 7.515625 27.59375 7.515625 
L 36.8125 7.515625 
L 36.8125 0 
L 27.59375 0 
Q 17.1875 0 13.234375 3.875 
Q 9.28125 7.765625 9.28125 18.015625 
L 9.28125 47.703125 
L 2.6875 47.703125 
L 2.6875 54.6875 
L 9.28125 54.6875 
L 9.28125 70.21875 
z
" id="DejaVuSans-116"/>
     </defs>
     <g transform="translate(83.965625 38.916562)scale(0.1 -0.1)">
      <use xlink:href="#DejaVuSans-80"/>
      <use x="58.552734" xlink:href="#DejaVuSans-114"/>
      <use x="97.416016" xlink:href="#DejaVuSans-101"/>
      <use x="158.939453" xlink:href="#DejaVuSans-100"/>
      <use x="222.416016" xlink:href="#DejaVuSans-105"/>
      <use x="250.199219" xlink:href="#DejaVuSans-99"/>
      <use x="305.179688" xlink:href="#DejaVuSans-116"/>
      <use x="344.388672" xlink:href="#DejaVuSans-101"/>
      <use x="405.912109" xlink:href="#DejaVuSans-100"/>
     </g>
    </g>
    <g id="line2d_35">
     <path d="M 55.965625 50.094687 
L 75.965625 50.094687 
" style="fill:none;stroke:#ff7f0e;stroke-linecap:square;stroke-width:1.5;"/>
    </g>
    <g id="line2d_36"/>
    <g id="text_20">
     <!-- True value -->
     <defs>
      <path d="M 8.5 21.578125 
L 8.5 54.6875 
L 17.484375 54.6875 
L 17.484375 21.921875 
Q 17.484375 14.15625 20.5 10.265625 
Q 23.53125 6.390625 29.59375 6.390625 
Q 36.859375 6.390625 41.078125 11.03125 
Q 45.3125 15.671875 45.3125 23.6875 
L 45.3125 54.6875 
L 54.296875 54.6875 
L 54.296875 0 
L 45.3125 0 
L 45.3125 8.40625 
Q 42.046875 3.421875 37.71875 1 
Q 33.40625 -1.421875 27.6875 -1.421875 
Q 18.265625 -1.421875 13.375 4.4375 
Q 8.5 10.296875 8.5 21.578125 
z
M 31.109375 56 
z
" id="DejaVuSans-117"/>
      <path d="M 2.984375 54.6875 
L 12.5 54.6875 
L 29.59375 8.796875 
L 46.6875 54.6875 
L 56.203125 54.6875 
L 35.6875 0 
L 23.484375 0 
z
" id="DejaVuSans-118"/>
      <path d="M 9.421875 75.984375 
L 18.40625 75.984375 
L 18.40625 0 
L 9.421875 0 
z
" id="DejaVuSans-108"/>
     </defs>
     <g transform="translate(83.965625 53.594687)scale(0.1 -0.1)">
      <use xlink:href="#DejaVuSans-84"/>
      <use x="46.333984" xlink:href="#DejaVuSans-114"/>
      <use x="87.447266" xlink:href="#DejaVuSans-117"/>
      <use x="150.826172" xlink:href="#DejaVuSans-101"/>
      <use x="212.349609" xlink:href="#DejaVuSans-32"/>
      <use x="244.136719" xlink:href="#DejaVuSans-118"/>
      <use x="303.316406" xlink:href="#DejaVuSans-97"/>
      <use x="364.595703" xlink:href="#DejaVuSans-108"/>
      <use x="392.378906" xlink:href="#DejaVuSans-117"/>
      <use x="455.757812" xlink:href="#DejaVuSans-101"/>
     </g>
    </g>
   </g>
  </g>
 </g>
 <defs>
  <clipPath id="p8a55609c54">
   <rect height="266.112" width="357.12" x="46.965625" y="22.318125"/>
  </clipPath>
 </defs>
</svg>
