<?xml version="1.0" encoding="utf-8" standalone="no"?>
<!DOCTYPE svg PUBLIC "-//W3C//DTD SVG 1.1//EN"
  "http://www.w3.org/Graphics/SVG/1.1/DTD/svg11.dtd">
<!-- Created with matplotlib (https://matplotlib.org/) -->
<svg height="325.986375pt" version="1.1" viewBox="0 0 406.940312 325.986375" width="406.940312pt" xmlns="http://www.w3.org/2000/svg" xmlns:xlink="http://www.w3.org/1999/xlink">
 <defs>
  <style type="text/css">
*{stroke-linecap:butt;stroke-linejoin:round;}
  </style>
 </defs>
 <g id="figure_1">
  <g id="patch_1">
   <path d="M 0 325.986375 
L 406.940312 325.986375 
L 406.940312 0 
L 0 0 
z
" style="fill:#ffffff;"/>
  </g>
  <g id="axes_1">
   <g id="patch_2">
    <path d="M 42.620313 288.430125 
L 399.740313 288.430125 
L 399.740313 22.318125 
L 42.620313 22.318125 
z
" style="fill:#ffffff;"/>
   </g>
   <g id="matplotlib.axis_1">
    <g id="xtick_1">
     <g id="line2d_1">
      <path clip-path="url(#pe57a4189c6)" d="M 58.85304 288.430125 
L 58.85304 22.318125 
" style="fill:none;stroke:#b0b0b0;stroke-dasharray:2.96,1.28;stroke-dashoffset:0;stroke-width:0.8;"/>
     </g>
     <g id="line2d_2">
      <defs>
       <path d="M 0 0 
L 0 3.5 
" id="mf5e89d5b57" style="stroke:#000000;stroke-width:0.8;"/>
      </defs>
      <g>
       <use style="stroke:#000000;stroke-width:0.8;" x="58.85304" xlink:href="#mf5e89d5b57" y="288.430125"/>
      </g>
     </g>
     <g id="text_1">
      <!-- 0 -->
      <defs>
       <path d="M 31.78125 66.40625 
Q 24.171875 66.40625 20.328125 58.90625 
Q 16.5 51.421875 16.5 36.375 
Q 16.5 21.390625 20.328125 13.890625 
Q 24.171875 6.390625 31.78125 6.390625 
Q 39.453125 6.390625 43.28125 13.890625 
Q 47.125 21.390625 47.125 36.375 
Q 47.125 51.421875 43.28125 58.90625 
Q 39.453125 66.40625 31.78125 66.40625 
z
M 31.78125 74.21875 
Q 44.046875 74.21875 50.515625 64.515625 
Q 56.984375 54.828125 56.984375 36.375 
Q 56.984375 17.96875 50.515625 8.265625 
Q 44.046875 -1.421875 31.78125 -1.421875 
Q 19.53125 -1.421875 13.0625 8.265625 
Q 6.59375 17.96875 6.59375 36.375 
Q 6.59375 54.828125 13.0625 64.515625 
Q 19.53125 74.21875 31.78125 74.21875 
z
" id="DejaVuSans-48"/>
      </defs>
      <g transform="translate(55.67179 303.028562)scale(0.1 -0.1)">
       <use xlink:href="#DejaVuSans-48"/>
      </g>
     </g>
    </g>
    <g id="xtick_2">
     <g id="line2d_3">
      <path clip-path="url(#pe57a4189c6)" d="M 107.783642 288.430125 
L 107.783642 22.318125 
" style="fill:none;stroke:#b0b0b0;stroke-dasharray:2.96,1.28;stroke-dashoffset:0;stroke-width:0.8;"/>
     </g>
     <g id="line2d_4">
      <g>
       <use style="stroke:#000000;stroke-width:0.8;" x="107.783642" xlink:href="#mf5e89d5b57" y="288.430125"/>
      </g>
     </g>
     <g id="text_2">
      <!-- 200 -->
      <defs>
       <path d="M 19.1875 8.296875 
L 53.609375 8.296875 
L 53.609375 0 
L 7.328125 0 
L 7.328125 8.296875 
Q 12.9375 14.109375 22.625 23.890625 
Q 32.328125 33.6875 34.8125 36.53125 
Q 39.546875 41.84375 41.421875 45.53125 
Q 43.3125 49.21875 43.3125 52.78125 
Q 43.3125 58.59375 39.234375 62.25 
Q 35.15625 65.921875 28.609375 65.921875 
Q 23.96875 65.921875 18.8125 64.3125 
Q 13.671875 62.703125 7.8125 59.421875 
L 7.8125 69.390625 
Q 13.765625 71.78125 18.9375 73 
Q 24.125 74.21875 28.421875 74.21875 
Q 39.75 74.21875 46.484375 68.546875 
Q 53.21875 62.890625 53.21875 53.421875 
Q 53.21875 48.921875 51.53125 44.890625 
Q 49.859375 40.875 45.40625 35.40625 
Q 44.1875 33.984375 37.640625 27.21875 
Q 31.109375 20.453125 19.1875 8.296875 
z
" id="DejaVuSans-50"/>
      </defs>
      <g transform="translate(98.239892 303.028562)scale(0.1 -0.1)">
       <use xlink:href="#DejaVuSans-50"/>
       <use x="63.623047" xlink:href="#DejaVuSans-48"/>
       <use x="127.246094" xlink:href="#DejaVuSans-48"/>
      </g>
     </g>
    </g>
    <g id="xtick_3">
     <g id="line2d_5">
      <path clip-path="url(#pe57a4189c6)" d="M 156.714244 288.430125 
L 156.714244 22.318125 
" style="fill:none;stroke:#b0b0b0;stroke-dasharray:2.96,1.28;stroke-dashoffset:0;stroke-width:0.8;"/>
     </g>
     <g id="line2d_6">
      <g>
       <use style="stroke:#000000;stroke-width:0.8;" x="156.714244" xlink:href="#mf5e89d5b57" y="288.430125"/>
      </g>
     </g>
     <g id="text_3">
      <!-- 400 -->
      <defs>
       <path d="M 37.796875 64.3125 
L 12.890625 25.390625 
L 37.796875 25.390625 
z
M 35.203125 72.90625 
L 47.609375 72.90625 
L 47.609375 25.390625 
L 58.015625 25.390625 
L 58.015625 17.1875 
L 47.609375 17.1875 
L 47.609375 0 
L 37.796875 0 
L 37.796875 17.1875 
L 4.890625 17.1875 
L 4.890625 26.703125 
z
" id="DejaVuSans-52"/>
      </defs>
      <g transform="translate(147.170494 303.028562)scale(0.1 -0.1)">
       <use xlink:href="#DejaVuSans-52"/>
       <use x="63.623047" xlink:href="#DejaVuSans-48"/>
       <use x="127.246094" xlink:href="#DejaVuSans-48"/>
      </g>
     </g>
    </g>
    <g id="xtick_4">
     <g id="line2d_7">
      <path clip-path="url(#pe57a4189c6)" d="M 205.644846 288.430125 
L 205.644846 22.318125 
" style="fill:none;stroke:#b0b0b0;stroke-dasharray:2.96,1.28;stroke-dashoffset:0;stroke-width:0.8;"/>
     </g>
     <g id="line2d_8">
      <g>
       <use style="stroke:#000000;stroke-width:0.8;" x="205.644846" xlink:href="#mf5e89d5b57" y="288.430125"/>
      </g>
     </g>
     <g id="text_4">
      <!-- 600 -->
      <defs>
       <path d="M 33.015625 40.375 
Q 26.375 40.375 22.484375 35.828125 
Q 18.609375 31.296875 18.609375 23.390625 
Q 18.609375 15.53125 22.484375 10.953125 
Q 26.375 6.390625 33.015625 6.390625 
Q 39.65625 6.390625 43.53125 10.953125 
Q 47.40625 15.53125 47.40625 23.390625 
Q 47.40625 31.296875 43.53125 35.828125 
Q 39.65625 40.375 33.015625 40.375 
z
M 52.59375 71.296875 
L 52.59375 62.3125 
Q 48.875 64.0625 45.09375 64.984375 
Q 41.3125 65.921875 37.59375 65.921875 
Q 27.828125 65.921875 22.671875 59.328125 
Q 17.53125 52.734375 16.796875 39.40625 
Q 19.671875 43.65625 24.015625 45.921875 
Q 28.375 48.1875 33.59375 48.1875 
Q 44.578125 48.1875 50.953125 41.515625 
Q 57.328125 34.859375 57.328125 23.390625 
Q 57.328125 12.15625 50.6875 5.359375 
Q 44.046875 -1.421875 33.015625 -1.421875 
Q 20.359375 -1.421875 13.671875 8.265625 
Q 6.984375 17.96875 6.984375 36.375 
Q 6.984375 53.65625 15.1875 63.9375 
Q 23.390625 74.21875 37.203125 74.21875 
Q 40.921875 74.21875 44.703125 73.484375 
Q 48.484375 72.75 52.59375 71.296875 
z
" id="DejaVuSans-54"/>
      </defs>
      <g transform="translate(196.101096 303.028562)scale(0.1 -0.1)">
       <use xlink:href="#DejaVuSans-54"/>
       <use x="63.623047" xlink:href="#DejaVuSans-48"/>
       <use x="127.246094" xlink:href="#DejaVuSans-48"/>
      </g>
     </g>
    </g>
    <g id="xtick_5">
     <g id="line2d_9">
      <path clip-path="url(#pe57a4189c6)" d="M 254.575448 288.430125 
L 254.575448 22.318125 
" style="fill:none;stroke:#b0b0b0;stroke-dasharray:2.96,1.28;stroke-dashoffset:0;stroke-width:0.8;"/>
     </g>
     <g id="line2d_10">
      <g>
       <use style="stroke:#000000;stroke-width:0.8;" x="254.575448" xlink:href="#mf5e89d5b57" y="288.430125"/>
      </g>
     </g>
     <g id="text_5">
      <!-- 800 -->
      <defs>
       <path d="M 31.78125 34.625 
Q 24.75 34.625 20.71875 30.859375 
Q 16.703125 27.09375 16.703125 20.515625 
Q 16.703125 13.921875 20.71875 10.15625 
Q 24.75 6.390625 31.78125 6.390625 
Q 38.8125 6.390625 42.859375 10.171875 
Q 46.921875 13.96875 46.921875 20.515625 
Q 46.921875 27.09375 42.890625 30.859375 
Q 38.875 34.625 31.78125 34.625 
z
M 21.921875 38.8125 
Q 15.578125 40.375 12.03125 44.71875 
Q 8.5 49.078125 8.5 55.328125 
Q 8.5 64.0625 14.71875 69.140625 
Q 20.953125 74.21875 31.78125 74.21875 
Q 42.671875 74.21875 48.875 69.140625 
Q 55.078125 64.0625 55.078125 55.328125 
Q 55.078125 49.078125 51.53125 44.71875 
Q 48 40.375 41.703125 38.8125 
Q 48.828125 37.15625 52.796875 32.3125 
Q 56.78125 27.484375 56.78125 20.515625 
Q 56.78125 9.90625 50.3125 4.234375 
Q 43.84375 -1.421875 31.78125 -1.421875 
Q 19.734375 -1.421875 13.25 4.234375 
Q 6.78125 9.90625 6.78125 20.515625 
Q 6.78125 27.484375 10.78125 32.3125 
Q 14.796875 37.15625 21.921875 38.8125 
z
M 18.3125 54.390625 
Q 18.3125 48.734375 21.84375 45.5625 
Q 25.390625 42.390625 31.78125 42.390625 
Q 38.140625 42.390625 41.71875 45.5625 
Q 45.3125 48.734375 45.3125 54.390625 
Q 45.3125 60.0625 41.71875 63.234375 
Q 38.140625 66.40625 31.78125 66.40625 
Q 25.390625 66.40625 21.84375 63.234375 
Q 18.3125 60.0625 18.3125 54.390625 
z
" id="DejaVuSans-56"/>
      </defs>
      <g transform="translate(245.031698 303.028562)scale(0.1 -0.1)">
       <use xlink:href="#DejaVuSans-56"/>
       <use x="63.623047" xlink:href="#DejaVuSans-48"/>
       <use x="127.246094" xlink:href="#DejaVuSans-48"/>
      </g>
     </g>
    </g>
    <g id="xtick_6">
     <g id="line2d_11">
      <path clip-path="url(#pe57a4189c6)" d="M 303.506051 288.430125 
L 303.506051 22.318125 
" style="fill:none;stroke:#b0b0b0;stroke-dasharray:2.96,1.28;stroke-dashoffset:0;stroke-width:0.8;"/>
     </g>
     <g id="line2d_12">
      <g>
       <use style="stroke:#000000;stroke-width:0.8;" x="303.506051" xlink:href="#mf5e89d5b57" y="288.430125"/>
      </g>
     </g>
     <g id="text_6">
      <!-- 1000 -->
      <defs>
       <path d="M 12.40625 8.296875 
L 28.515625 8.296875 
L 28.515625 63.921875 
L 10.984375 60.40625 
L 10.984375 69.390625 
L 28.421875 72.90625 
L 38.28125 72.90625 
L 38.28125 8.296875 
L 54.390625 8.296875 
L 54.390625 0 
L 12.40625 0 
z
" id="DejaVuSans-49"/>
      </defs>
      <g transform="translate(290.781051 303.028562)scale(0.1 -0.1)">
       <use xlink:href="#DejaVuSans-49"/>
       <use x="63.623047" xlink:href="#DejaVuSans-48"/>
       <use x="127.246094" xlink:href="#DejaVuSans-48"/>
       <use x="190.869141" xlink:href="#DejaVuSans-48"/>
      </g>
     </g>
    </g>
    <g id="xtick_7">
     <g id="line2d_13">
      <path clip-path="url(#pe57a4189c6)" d="M 352.436653 288.430125 
L 352.436653 22.318125 
" style="fill:none;stroke:#b0b0b0;stroke-dasharray:2.96,1.28;stroke-dashoffset:0;stroke-width:0.8;"/>
     </g>
     <g id="line2d_14">
      <g>
       <use style="stroke:#000000;stroke-width:0.8;" x="352.436653" xlink:href="#mf5e89d5b57" y="288.430125"/>
      </g>
     </g>
     <g id="text_7">
      <!-- 1200 -->
      <g transform="translate(339.711653 303.028562)scale(0.1 -0.1)">
       <use xlink:href="#DejaVuSans-49"/>
       <use x="63.623047" xlink:href="#DejaVuSans-50"/>
       <use x="127.246094" xlink:href="#DejaVuSans-48"/>
       <use x="190.869141" xlink:href="#DejaVuSans-48"/>
      </g>
     </g>
    </g>
    <g id="text_8">
     <!-- Day -->
     <defs>
      <path d="M 19.671875 64.796875 
L 19.671875 8.109375 
L 31.59375 8.109375 
Q 46.6875 8.109375 53.6875 14.9375 
Q 60.6875 21.78125 60.6875 36.53125 
Q 60.6875 51.171875 53.6875 57.984375 
Q 46.6875 64.796875 31.59375 64.796875 
z
M 9.8125 72.90625 
L 30.078125 72.90625 
Q 51.265625 72.90625 61.171875 64.09375 
Q 71.09375 55.28125 71.09375 36.53125 
Q 71.09375 17.671875 61.125 8.828125 
Q 51.171875 0 30.078125 0 
L 9.8125 0 
z
" id="DejaVuSans-68"/>
      <path d="M 34.28125 27.484375 
Q 23.390625 27.484375 19.1875 25 
Q 14.984375 22.515625 14.984375 16.5 
Q 14.984375 11.71875 18.140625 8.90625 
Q 21.296875 6.109375 26.703125 6.109375 
Q 34.1875 6.109375 38.703125 11.40625 
Q 43.21875 16.703125 43.21875 25.484375 
L 43.21875 27.484375 
z
M 52.203125 31.203125 
L 52.203125 0 
L 43.21875 0 
L 43.21875 8.296875 
Q 40.140625 3.328125 35.546875 0.953125 
Q 30.953125 -1.421875 24.3125 -1.421875 
Q 15.921875 -1.421875 10.953125 3.296875 
Q 6 8.015625 6 15.921875 
Q 6 25.140625 12.171875 29.828125 
Q 18.359375 34.515625 30.609375 34.515625 
L 43.21875 34.515625 
L 43.21875 35.40625 
Q 43.21875 41.609375 39.140625 45 
Q 35.0625 48.390625 27.6875 48.390625 
Q 23 48.390625 18.546875 47.265625 
Q 14.109375 46.140625 10.015625 43.890625 
L 10.015625 52.203125 
Q 14.9375 54.109375 19.578125 55.046875 
Q 24.21875 56 28.609375 56 
Q 40.484375 56 46.34375 49.84375 
Q 52.203125 43.703125 52.203125 31.203125 
z
" id="DejaVuSans-97"/>
      <path d="M 32.171875 -5.078125 
Q 28.375 -14.84375 24.75 -17.8125 
Q 21.140625 -20.796875 15.09375 -20.796875 
L 7.90625 -20.796875 
L 7.90625 -13.28125 
L 13.1875 -13.28125 
Q 16.890625 -13.28125 18.9375 -11.515625 
Q 21 -9.765625 23.484375 -3.21875 
L 25.09375 0.875 
L 2.984375 54.6875 
L 12.5 54.6875 
L 29.59375 11.921875 
L 46.6875 54.6875 
L 56.203125 54.6875 
z
" id="DejaVuSans-121"/>
     </defs>
     <g transform="translate(211.306875 316.706687)scale(0.1 -0.1)">
      <use xlink:href="#DejaVuSans-68"/>
      <use x="77.001953" xlink:href="#DejaVuSans-97"/>
      <use x="138.28125" xlink:href="#DejaVuSans-121"/>
     </g>
    </g>
   </g>
   <g id="matplotlib.axis_2">
    <g id="ytick_1">
     <g id="line2d_15">
      <path clip-path="url(#pe57a4189c6)" d="M 42.620313 267.326465 
L 399.740313 267.326465 
" style="fill:none;stroke:#b0b0b0;stroke-dasharray:2.96,1.28;stroke-dashoffset:0;stroke-width:0.8;"/>
     </g>
     <g id="line2d_16">
      <defs>
       <path d="M 0 0 
L -3.5 0 
" id="m06071dc7e6" style="stroke:#000000;stroke-width:0.8;"/>
      </defs>
      <g>
       <use style="stroke:#000000;stroke-width:0.8;" x="42.620313" xlink:href="#m06071dc7e6" y="267.326465"/>
      </g>
     </g>
     <g id="text_9">
      <!-- −4 -->
      <defs>
       <path d="M 10.59375 35.5 
L 73.1875 35.5 
L 73.1875 27.203125 
L 10.59375 27.203125 
z
" id="DejaVuSans-8722"/>
      </defs>
      <g transform="translate(20.878125 271.125684)scale(0.1 -0.1)">
       <use xlink:href="#DejaVuSans-8722"/>
       <use x="83.789062" xlink:href="#DejaVuSans-52"/>
      </g>
     </g>
    </g>
    <g id="ytick_2">
     <g id="line2d_17">
      <path clip-path="url(#pe57a4189c6)" d="M 42.620313 215.854125 
L 399.740313 215.854125 
" style="fill:none;stroke:#b0b0b0;stroke-dasharray:2.96,1.28;stroke-dashoffset:0;stroke-width:0.8;"/>
     </g>
     <g id="line2d_18">
      <g>
       <use style="stroke:#000000;stroke-width:0.8;" x="42.620313" xlink:href="#m06071dc7e6" y="215.854125"/>
      </g>
     </g>
     <g id="text_10">
      <!-- −2 -->
      <g transform="translate(20.878125 219.653344)scale(0.1 -0.1)">
       <use xlink:href="#DejaVuSans-8722"/>
       <use x="83.789062" xlink:href="#DejaVuSans-50"/>
      </g>
     </g>
    </g>
    <g id="ytick_3">
     <g id="line2d_19">
      <path clip-path="url(#pe57a4189c6)" d="M 42.620313 164.381785 
L 399.740313 164.381785 
" style="fill:none;stroke:#b0b0b0;stroke-dasharray:2.96,1.28;stroke-dashoffset:0;stroke-width:0.8;"/>
     </g>
     <g id="line2d_20">
      <g>
       <use style="stroke:#000000;stroke-width:0.8;" x="42.620313" xlink:href="#m06071dc7e6" y="164.381785"/>
      </g>
     </g>
     <g id="text_11">
      <!-- 0 -->
      <g transform="translate(29.257813 168.181003)scale(0.1 -0.1)">
       <use xlink:href="#DejaVuSans-48"/>
      </g>
     </g>
    </g>
    <g id="ytick_4">
     <g id="line2d_21">
      <path clip-path="url(#pe57a4189c6)" d="M 42.620313 112.909444 
L 399.740313 112.909444 
" style="fill:none;stroke:#b0b0b0;stroke-dasharray:2.96,1.28;stroke-dashoffset:0;stroke-width:0.8;"/>
     </g>
     <g id="line2d_22">
      <g>
       <use style="stroke:#000000;stroke-width:0.8;" x="42.620313" xlink:href="#m06071dc7e6" y="112.909444"/>
      </g>
     </g>
     <g id="text_12">
      <!-- 2 -->
      <g transform="translate(29.257813 116.708663)scale(0.1 -0.1)">
       <use xlink:href="#DejaVuSans-50"/>
      </g>
     </g>
    </g>
    <g id="ytick_5">
     <g id="line2d_23">
      <path clip-path="url(#pe57a4189c6)" d="M 42.620313 61.437104 
L 399.740313 61.437104 
" style="fill:none;stroke:#b0b0b0;stroke-dasharray:2.96,1.28;stroke-dashoffset:0;stroke-width:0.8;"/>
     </g>
     <g id="line2d_24">
      <g>
       <use style="stroke:#000000;stroke-width:0.8;" x="42.620313" xlink:href="#m06071dc7e6" y="61.437104"/>
      </g>
     </g>
     <g id="text_13">
      <!-- 4 -->
      <g transform="translate(29.257813 65.236322)scale(0.1 -0.1)">
       <use xlink:href="#DejaVuSans-52"/>
      </g>
     </g>
    </g>
    <g id="text_14">
     <!-- Change $ -->
     <defs>
      <path d="M 64.40625 67.28125 
L 64.40625 56.890625 
Q 59.421875 61.53125 53.78125 63.8125 
Q 48.140625 66.109375 41.796875 66.109375 
Q 29.296875 66.109375 22.65625 58.46875 
Q 16.015625 50.828125 16.015625 36.375 
Q 16.015625 21.96875 22.65625 14.328125 
Q 29.296875 6.6875 41.796875 6.6875 
Q 48.140625 6.6875 53.78125 8.984375 
Q 59.421875 11.28125 64.40625 15.921875 
L 64.40625 5.609375 
Q 59.234375 2.09375 53.4375 0.328125 
Q 47.65625 -1.421875 41.21875 -1.421875 
Q 24.65625 -1.421875 15.125 8.703125 
Q 5.609375 18.84375 5.609375 36.375 
Q 5.609375 53.953125 15.125 64.078125 
Q 24.65625 74.21875 41.21875 74.21875 
Q 47.75 74.21875 53.53125 72.484375 
Q 59.328125 70.75 64.40625 67.28125 
z
" id="DejaVuSans-67"/>
      <path d="M 54.890625 33.015625 
L 54.890625 0 
L 45.90625 0 
L 45.90625 32.71875 
Q 45.90625 40.484375 42.875 44.328125 
Q 39.84375 48.1875 33.796875 48.1875 
Q 26.515625 48.1875 22.3125 43.546875 
Q 18.109375 38.921875 18.109375 30.90625 
L 18.109375 0 
L 9.078125 0 
L 9.078125 75.984375 
L 18.109375 75.984375 
L 18.109375 46.1875 
Q 21.34375 51.125 25.703125 53.5625 
Q 30.078125 56 35.796875 56 
Q 45.21875 56 50.046875 50.171875 
Q 54.890625 44.34375 54.890625 33.015625 
z
" id="DejaVuSans-104"/>
      <path d="M 54.890625 33.015625 
L 54.890625 0 
L 45.90625 0 
L 45.90625 32.71875 
Q 45.90625 40.484375 42.875 44.328125 
Q 39.84375 48.1875 33.796875 48.1875 
Q 26.515625 48.1875 22.3125 43.546875 
Q 18.109375 38.921875 18.109375 30.90625 
L 18.109375 0 
L 9.078125 0 
L 9.078125 54.6875 
L 18.109375 54.6875 
L 18.109375 46.1875 
Q 21.34375 51.125 25.703125 53.5625 
Q 30.078125 56 35.796875 56 
Q 45.21875 56 50.046875 50.171875 
Q 54.890625 44.34375 54.890625 33.015625 
z
" id="DejaVuSans-110"/>
      <path d="M 45.40625 27.984375 
Q 45.40625 37.75 41.375 43.109375 
Q 37.359375 48.484375 30.078125 48.484375 
Q 22.859375 48.484375 18.828125 43.109375 
Q 14.796875 37.75 14.796875 27.984375 
Q 14.796875 18.265625 18.828125 12.890625 
Q 22.859375 7.515625 30.078125 7.515625 
Q 37.359375 7.515625 41.375 12.890625 
Q 45.40625 18.265625 45.40625 27.984375 
z
M 54.390625 6.78125 
Q 54.390625 -7.171875 48.1875 -13.984375 
Q 42 -20.796875 29.203125 -20.796875 
Q 24.46875 -20.796875 20.265625 -20.09375 
Q 16.0625 -19.390625 12.109375 -17.921875 
L 12.109375 -9.1875 
Q 16.0625 -11.328125 19.921875 -12.34375 
Q 23.78125 -13.375 27.78125 -13.375 
Q 36.625 -13.375 41.015625 -8.765625 
Q 45.40625 -4.15625 45.40625 5.171875 
L 45.40625 9.625 
Q 42.625 4.78125 38.28125 2.390625 
Q 33.9375 0 27.875 0 
Q 17.828125 0 11.671875 7.65625 
Q 5.515625 15.328125 5.515625 27.984375 
Q 5.515625 40.671875 11.671875 48.328125 
Q 17.828125 56 27.875 56 
Q 33.9375 56 38.28125 53.609375 
Q 42.625 51.21875 45.40625 46.390625 
L 45.40625 54.6875 
L 54.390625 54.6875 
z
" id="DejaVuSans-103"/>
      <path d="M 56.203125 29.59375 
L 56.203125 25.203125 
L 14.890625 25.203125 
Q 15.484375 15.921875 20.484375 11.0625 
Q 25.484375 6.203125 34.421875 6.203125 
Q 39.59375 6.203125 44.453125 7.46875 
Q 49.3125 8.734375 54.109375 11.28125 
L 54.109375 2.78125 
Q 49.265625 0.734375 44.1875 -0.34375 
Q 39.109375 -1.421875 33.890625 -1.421875 
Q 20.796875 -1.421875 13.15625 6.1875 
Q 5.515625 13.8125 5.515625 26.8125 
Q 5.515625 40.234375 12.765625 48.109375 
Q 20.015625 56 32.328125 56 
Q 43.359375 56 49.78125 48.890625 
Q 56.203125 41.796875 56.203125 29.59375 
z
M 47.21875 32.234375 
Q 47.125 39.59375 43.09375 43.984375 
Q 39.0625 48.390625 32.421875 48.390625 
Q 24.90625 48.390625 20.390625 44.140625 
Q 15.875 39.890625 15.1875 32.171875 
z
" id="DejaVuSans-101"/>
      <path id="DejaVuSans-32"/>
      <path d="M 33.796875 -14.703125 
L 28.90625 -14.703125 
L 28.859375 0 
Q 23.734375 0.09375 18.609375 1.1875 
Q 13.484375 2.296875 8.296875 4.5 
L 8.296875 13.28125 
Q 13.28125 10.15625 18.375 8.5625 
Q 23.484375 6.984375 28.90625 6.9375 
L 28.90625 29.203125 
Q 18.109375 30.953125 13.203125 35.15625 
Q 8.296875 39.359375 8.296875 46.6875 
Q 8.296875 54.640625 13.625 59.21875 
Q 18.953125 63.8125 28.90625 64.5 
L 28.90625 75.984375 
L 33.796875 75.984375 
L 33.796875 64.65625 
Q 38.328125 64.453125 42.578125 63.6875 
Q 46.828125 62.9375 50.875 61.625 
L 50.875 53.078125 
Q 46.828125 55.125 42.546875 56.25 
Q 38.28125 57.375 33.796875 57.5625 
L 33.796875 36.71875 
Q 44.875 35.015625 50.09375 30.609375 
Q 55.328125 26.21875 55.328125 18.609375 
Q 55.328125 10.359375 49.78125 5.59375 
Q 44.234375 0.828125 33.796875 0.09375 
z
M 28.90625 37.59375 
L 28.90625 57.625 
Q 23.25 56.984375 20.265625 54.390625 
Q 17.28125 51.8125 17.28125 47.515625 
Q 17.28125 43.3125 20.03125 40.96875 
Q 22.796875 38.625 28.90625 37.59375 
z
M 33.796875 28.21875 
L 33.796875 7.078125 
Q 39.984375 7.90625 43.140625 10.59375 
Q 46.296875 13.28125 46.296875 17.671875 
Q 46.296875 21.96875 43.28125 24.5 
Q 40.28125 27.046875 33.796875 28.21875 
z
" id="DejaVuSans-36"/>
     </defs>
     <g transform="translate(14.798438 179.288187)rotate(-90)scale(0.1 -0.1)">
      <use xlink:href="#DejaVuSans-67"/>
      <use x="69.824219" xlink:href="#DejaVuSans-104"/>
      <use x="133.203125" xlink:href="#DejaVuSans-97"/>
      <use x="194.482422" xlink:href="#DejaVuSans-110"/>
      <use x="257.861328" xlink:href="#DejaVuSans-103"/>
      <use x="321.337891" xlink:href="#DejaVuSans-101"/>
      <use x="382.861328" xlink:href="#DejaVuSans-32"/>
      <use x="414.648438" xlink:href="#DejaVuSans-36"/>
     </g>
    </g>
   </g>
   <g id="line2d_25">
    <path clip-path="url(#pe57a4189c6)" d="M 58.85304 167.385103 
L 59.097693 168.885234 
L 59.586999 163.8072 
L 60.076305 161.093815 
L 60.320958 160.489996 
L 60.565611 160.2318 
L 60.810264 160.314813 
L 61.054917 160.568186 
L 62.278182 162.661502 
L 63.256794 163.54307 
L 63.501447 163.802615 
L 64.235406 163.933097 
L 65.458671 164.053443 
L 65.703324 163.803321 
L 66.437283 163.834612 
L 66.926589 163.81932 
L 67.415895 163.661087 
L 68.394507 163.628196 
L 69.862425 164.325706 
L 70.351731 164.182311 
L 70.841037 164.003112 
L 71.08569 164.000134 
L 71.819649 164.412072 
L 72.308955 164.253341 
L 73.042914 164.130285 
L 73.776873 164.891976 
L 74.266179 165.007167 
L 74.755485 164.706288 
L 75.000138 164.322642 
L 75.489445 164.039362 
L 75.734098 163.989499 
L 77.446669 165.712961 
L 77.691322 165.737005 
L 78.425281 165.307368 
L 78.669934 164.983562 
L 78.914587 164.898234 
L 79.648546 165.072646 
L 80.382505 165.488434 
L 81.361117 165.259487 
L 81.850423 165.023958 
L 83.073688 165.023922 
L 83.318341 164.912358 
L 83.807647 165.059661 
L 84.541606 165.321823 
L 84.786259 165.292717 
L 85.030912 165.001623 
L 85.275565 164.922452 
L 86.254177 165.091846 
L 86.49883 165.117484 
L 87.722095 164.623066 
L 88.700707 164.444458 
L 89.434666 164.247372 
L 91.147237 164.511747 
L 92.615155 163.969817 
L 93.104461 164.014964 
L 93.349114 164.147495 
L 93.83842 164.233889 
L 94.083073 164.249672 
L 95.306338 163.718361 
L 97.263562 163.853062 
L 98.486828 163.734432 
L 99.220787 163.718578 
L 99.954746 163.505132 
L 100.933358 163.613207 
L 101.422664 163.029698 
L 102.156623 163.614815 
L 102.890582 163.630128 
L 104.113847 162.186824 
L 104.3585 162.198793 
L 104.847806 161.924021 
L 105.092459 162.013458 
L 106.071071 161.98278 
L 106.80503 162.41435 
L 107.049683 162.324942 
L 108.272948 161.139964 
L 108.517601 161.137765 
L 109.25156 161.597793 
L 109.740866 161.403756 
L 110.474825 161.154593 
L 111.208784 161.414376 
L 111.453437 161.240743 
L 111.69809 161.216042 
L 112.432049 161.584505 
L 112.676702 161.733841 
L 113.166008 161.601974 
L 113.410661 161.674461 
L 113.899967 162.285757 
L 114.389273 162.284344 
L 114.878579 161.860849 
L 115.123232 161.79599 
L 115.367885 161.862082 
L 115.857191 162.204618 
L 116.59115 162.287429 
L 116.835803 162.226557 
L 117.080456 161.953783 
L 117.814415 161.709725 
L 118.303721 162.182729 
L 118.548374 163.524447 
L 119.03768 164.333802 
L 120.016292 164.015116 
L 120.505599 163.713668 
L 121.239558 163.742637 
L 121.484211 163.842355 
L 121.728864 163.803466 
L 121.973517 163.590784 
L 122.462823 163.554361 
L 123.196782 164.248446 
L 123.930741 164.634515 
L 124.175394 164.641804 
L 124.420047 164.40006 
L 124.6647 163.613163 
L 124.909353 163.40351 
L 125.887965 164.014294 
L 126.377271 164.907549 
L 126.621924 165.116063 
L 126.866577 165.173511 
L 127.11123 164.966266 
L 127.600536 164.241661 
L 128.089842 163.899377 
L 128.579148 163.931915 
L 129.068454 163.769529 
L 129.802413 164.305324 
L 130.047066 164.365929 
L 130.291719 164.306218 
L 131.025678 163.819572 
L 131.514984 163.613964 
L 131.759637 163.60382 
L 132.493596 164.073248 
L 133.961514 163.181687 
L 134.45082 163.154499 
L 134.695473 163.296777 
L 135.184779 163.784908 
L 135.429432 163.301434 
L 135.918738 162.905394 
L 136.408044 162.920304 
L 136.89735 162.84675 
L 137.142003 162.609808 
L 137.386656 162.061612 
L 137.875962 161.941951 
L 138.365268 162.229686 
L 138.854574 162.13526 
L 139.099227 162.176947 
L 139.588533 162.636412 
L 139.833186 162.648178 
L 142.035063 161.619033 
L 142.279716 161.858188 
L 143.013676 162.018916 
L 143.992288 162.789461 
L 144.236941 162.883116 
L 145.215553 162.726253 
L 145.704859 162.405684 
L 146.438818 162.466167 
L 146.928124 162.780124 
L 147.172777 163.125393 
L 147.41743 163.235342 
L 147.906736 163.646069 
L 148.151389 163.579285 
L 148.396042 163.822132 
L 148.640695 163.680128 
L 149.130001 163.127736 
L 149.619307 163.30806 
L 150.108613 163.611974 
L 150.353266 163.473402 
L 150.597919 163.63276 
L 151.087225 163.586588 
L 151.331878 163.507807 
L 151.576531 163.204946 
L 152.31049 163.981316 
L 152.555143 164.031943 
L 153.044449 163.795729 
L 153.778408 163.327281 
L 154.267714 163.390057 
L 154.75702 163.430179 
L 155.001673 163.370432 
L 155.980285 163.517656 
L 156.224938 163.347757 
L 156.469591 163.401218 
L 156.714244 163.244758 
L 157.937509 163.413582 
L 158.182162 163.322638 
L 158.916121 163.383539 
L 159.160774 162.928746 
L 159.405427 162.779958 
L 159.65008 162.393175 
L 160.384039 162.33014 
L 160.873345 162.866901 
L 161.117998 162.77153 
L 161.851957 162.144423 
L 162.09661 162.218655 
L 162.585916 162.856158 
L 162.830569 162.978941 
L 163.075222 162.803931 
L 163.564528 163.062848 
L 163.809181 163.112682 
L 164.54314 162.553946 
L 165.032447 162.557811 
L 165.521753 162.701328 
L 165.766406 162.722374 
L 166.011059 162.465201 
L 166.500365 162.49758 
L 167.478977 163.298089 
L 168.212936 163.152877 
L 168.946895 162.790355 
L 169.436201 163.062156 
L 169.925507 163.235054 
L 170.17016 163.091983 
L 171.393425 163.156857 
L 171.638078 162.990318 
L 171.882731 162.961154 
L 172.372037 163.203079 
L 172.861343 162.884558 
L 173.350649 162.934312 
L 173.839955 163.255739 
L 175.06322 162.911212 
L 177.265097 162.956468 
L 178.488362 163.048544 
L 179.222321 162.749641 
L 179.711627 161.901274 
L 179.95628 161.710683 
L 180.200933 161.668672 
L 180.690239 161.857958 
L 181.424198 162.489267 
L 182.40281 163.03013 
L 182.892116 162.875365 
L 183.136769 162.898199 
L 183.626075 162.683081 
L 184.115381 162.50838 
L 184.84934 161.998454 
L 185.338646 161.811916 
L 186.072605 162.13482 
L 187.051217 162.513398 
L 187.29587 162.392137 
L 188.02983 162.423117 
L 189.008442 161.694014 
L 189.253095 161.666408 
L 190.231707 162.154272 
L 190.47636 162.140545 
L 190.721013 161.909349 
L 190.965666 161.93423 
L 191.210319 162.079031 
L 191.454972 162.040257 
L 191.699625 162.34182 
L 192.678237 162.491127 
L 192.92289 162.579065 
L 193.412196 162.49262 
L 193.656849 162.614725 
L 193.901502 162.325281 
L 194.146155 162.47851 
L 194.635461 163.459473 
L 195.36942 163.998202 
L 195.858726 163.514361 
L 196.103379 163.108111 
L 196.348032 163.070563 
L 196.592685 162.909381 
L 196.837338 162.613023 
L 197.571297 162.522209 
L 197.81595 162.783159 
L 198.794562 162.569923 
L 199.039215 162.367343 
L 199.773174 162.341856 
L 200.017827 162.43523 
L 200.507133 162.238634 
L 200.751786 162.246889 
L 201.241092 162.751775 
L 201.485745 162.748091 
L 201.975051 163.04119 
L 202.219704 163.104384 
L 202.70901 162.876519 
L 202.953663 162.532223 
L 203.198316 162.392836 
L 203.442969 162.414257 
L 203.687622 162.241172 
L 203.932275 162.314769 
L 204.666234 163.047066 
L 205.400193 163.258089 
L 205.644846 163.701793 
L 205.889499 163.735268 
L 206.378805 162.912669 
L 206.868111 162.406239 
L 207.112764 162.468936 
L 207.60207 162.944824 
L 208.091376 163.621138 
L 208.580682 163.867928 
L 208.825335 164.089196 
L 209.069988 164.020278 
L 209.314641 163.586949 
L 209.559294 163.444988 
L 210.048601 163.687258 
L 210.537907 164.182181 
L 211.027213 164.002297 
L 211.271866 164.050105 
L 211.761172 163.607706 
L 212.005825 163.581931 
L 212.495131 165.893068 
L 212.984437 166.739338 
L 213.473743 166.22448 
L 214.207702 165.216849 
L 214.697008 165.097541 
L 214.941661 165.198478 
L 215.67562 164.925667 
L 216.654232 165.14274 
L 217.388191 165.271679 
L 219.345415 165.960328 
L 219.590068 165.968439 
L 219.834721 166.208864 
L 220.324027 166.051229 
L 220.56868 165.871763 
L 220.813333 165.51312 
L 221.791945 165.004535 
L 222.281251 165.734013 
L 222.525904 165.983169 
L 223.01521 166.125454 
L 223.504516 166.130479 
L 223.993822 165.546516 
L 224.727781 165.290259 
L 225.706393 165.110411 
L 225.951046 165.24377 
L 226.195699 164.972711 
L 226.685005 164.78357 
L 226.929658 164.643333 
L 227.174311 163.317591 
L 227.663617 161.998224 
L 227.90827 161.925189 
L 228.642229 162.79657 
L 229.376188 163.847013 
L 229.865494 163.33744 
L 230.3548 162.892712 
L 230.599453 162.410162 
L 231.088759 162.216565 
L 231.578065 162.397934 
L 232.067371 162.595568 
L 232.312024 162.713275 
L 232.801331 162.332375 
L 233.045984 162.380363 
L 233.290637 162.300573 
L 234.024596 162.553016 
L 234.758555 162.958768 
L 235.247861 162.631559 
L 235.492514 162.693859 
L 235.737167 162.894659 
L 236.226473 162.921948 
L 236.471126 162.700218 
L 237.449738 163.156229 
L 237.939044 163.453005 
L 238.42835 164.017279 
L 239.162309 163.987784 
L 240.140921 163.88397 
L 240.630227 163.491275 
L 240.87488 163.418564 
L 241.119533 163.201276 
L 241.853492 163.093937 
L 242.098145 163.636163 
L 243.076757 164.281214 
L 244.055369 163.459213 
L 244.544675 163.15186 
L 245.033981 163.520085 
L 245.278634 163.459119 
L 245.523287 163.675932 
L 246.257246 163.56847 
L 246.746552 163.335154 
L 246.991205 163.482147 
L 247.235858 163.830437 
L 247.969817 166.207515 
L 248.21447 165.802492 
L 248.703776 164.505806 
L 248.948429 164.286586 
L 249.193082 164.693902 
L 249.682388 164.464271 
L 249.927041 164.639447 
L 250.171694 164.414033 
L 250.416347 164.595907 
L 250.905653 164.651999 
L 251.150306 164.812027 
L 251.639612 164.525943 
L 251.884265 164.47789 
L 252.128918 164.71339 
L 252.618224 164.800354 
L 253.841489 165.097246 
L 254.330795 164.652388 
L 255.064755 163.503748 
L 255.554061 163.292501 
L 256.777326 163.804057 
L 257.511285 163.330446 
L 257.755938 163.415428 
L 258.000591 163.210843 
L 258.489897 160.634833 
L 258.73455 160.261352 
L 258.979203 160.175592 
L 259.713162 161.240375 
L 260.691774 160.620918 
L 261.915039 161.205638 
L 262.159692 160.923419 
L 262.404345 160.968869 
L 262.893651 160.461625 
L 263.382957 160.162701 
L 263.62761 160.117265 
L 263.872263 160.288511 
L 264.361569 160.257228 
L 264.606222 159.98299 
L 264.850875 159.878996 
L 265.095528 160.147971 
L 265.340181 159.845853 
L 265.829487 159.813675 
L 266.07414 160.123545 
L 266.318793 160.242585 
L 266.563446 160.71383 
L 267.052752 160.606354 
L 267.297405 160.28686 
L 267.542058 160.291114 
L 267.786711 160.755929 
L 268.031364 160.832417 
L 268.276017 160.78993 
L 268.52067 160.606542 
L 269.009976 160.50536 
L 269.254629 160.365454 
L 269.499282 160.422109 
L 270.477894 161.720078 
L 270.722547 162.404495 
L 271.211853 162.806368 
L 271.456506 162.625236 
L 271.701159 162.793823 
L 271.945812 162.411863 
L 272.435118 163.131521 
L 272.924424 163.421484 
L 273.169077 162.958905 
L 273.658383 162.734335 
L 273.903036 163.03424 
L 274.147689 163.014975 
L 274.392342 162.256889 
L 274.636995 162.049053 
L 275.126301 163.102351 
L 275.370954 163.606451 
L 275.86026 164.990563 
L 276.104913 165.301398 
L 276.594219 165.103115 
L 277.083525 164.321863 
L 277.328178 163.731541 
L 277.572832 163.545096 
L 277.817485 163.612075 
L 278.062138 163.531527 
L 278.306791 164.009204 
L 278.551444 164.23231 
L 278.796097 164.225836 
L 279.285403 164.526743 
L 279.530056 164.724515 
L 280.019362 164.028937 
L 280.264015 164.008187 
L 280.508668 164.126399 
L 280.753321 164.522994 
L 280.997974 164.561278 
L 281.242627 164.252181 
L 281.48728 164.272577 
L 281.976586 163.825715 
L 282.710545 163.168176 
L 282.955198 163.449011 
L 283.689157 163.608715 
L 283.93381 163.548052 
L 284.178463 163.706285 
L 284.912422 163.004298 
L 285.157075 162.820283 
L 285.401728 162.79711 
L 285.646381 163.053879 
L 285.891034 163.043678 
L 286.38034 163.31594 
L 286.624993 163.373345 
L 286.869646 163.264044 
L 287.358952 162.80321 
L 288.092911 162.220847 
L 288.582217 162.517796 
L 288.82687 163.755571 
L 289.316176 164.672662 
L 290.050135 165.085126 
L 290.294788 164.777088 
L 290.784094 164.605899 
L 291.518053 164.329513 
L 291.762706 164.085152 
L 292.252012 163.888901 
L 292.496665 164.034806 
L 292.741318 163.969997 
L 292.985971 164.404797 
L 293.230624 164.575748 
L 293.475277 164.882575 
L 293.71993 164.948833 
L 293.964583 165.160894 
L 294.453889 164.506837 
L 295.432501 164.057992 
L 295.677154 164.202101 
L 295.921807 164.528409 
L 296.411113 164.702756 
L 296.900419 164.819143 
L 297.145072 164.882798 
L 297.634378 165.492342 
L 297.879031 165.610978 
L 298.368337 165.25863 
L 298.61299 165.131802 
L 298.857643 164.736634 
L 299.102296 164.580283 
L 299.346949 164.221914 
L 300.080909 165.418773 
L 301.059521 164.37174 
L 301.79348 164.10991 
L 302.772092 163.491196 
L 303.261398 163.507411 
L 303.506051 163.793718 
L 303.750704 163.15809 
L 304.729316 162.334344 
L 305.218622 162.681314 
L 306.197234 162.43988 
L 307.175846 161.606545 
L 308.154458 161.625529 
L 308.399111 161.819205 
L 309.13307 161.798585 
L 310.600988 161.391816 
L 311.824253 161.747208 
L 312.313559 161.813971 
L 312.558212 162.203061 
L 312.802865 162.162405 
L 313.292171 162.414314 
L 313.781477 162.098851 
L 314.270783 162.199665 
L 314.760089 161.956522 
L 315.004742 162.054878 
L 315.249395 162.314409 
L 315.738701 162.181914 
L 316.47266 162.560197 
L 316.717313 162.691473 
L 317.695925 162.545374 
L 318.429884 163.107628 
L 319.408496 162.91897 
L 319.653149 162.996727 
L 320.387108 161.445955 
L 320.631761 161.505104 
L 321.36572 162.404524 
L 322.344333 163.090145 
L 322.833639 162.421387 
L 323.078292 162.319708 
L 323.322945 162.71621 
L 323.567598 162.8391 
L 323.812251 163.184275 
L 324.056904 163.081377 
L 324.301557 162.793823 
L 324.54621 162.311719 
L 325.280169 161.859097 
L 325.769475 162.198598 
L 326.014128 162.307516 
L 326.258781 162.241792 
L 326.503434 162.466283 
L 326.99274 163.085811 
L 327.482046 162.857399 
L 327.726699 162.372216 
L 327.971352 162.26389 
L 328.216005 161.924771 
L 328.949964 161.572904 
L 329.43927 161.912492 
L 329.683923 161.701974 
L 330.417882 161.696653 
L 331.151841 162.068548 
L 331.396494 162.152153 
L 331.641147 162.401849 
L 333.109065 162.103768 
L 333.353718 161.940517 
L 334.576983 162.356874 
L 335.066289 162.212268 
L 335.800248 161.711736 
L 336.044901 161.24982 
L 336.289554 161.285436 
L 336.534207 161.489293 
L 337.023513 162.449765 
L 337.512819 162.594249 
L 338.002125 162.636931 
L 338.736084 162.068728 
L 339.22539 162.01689 
L 341.182614 162.600521 
L 341.427267 162.416823 
L 341.67192 162.600687 
L 342.405879 162.595554 
L 342.650532 162.420472 
L 343.384491 162.461185 
L 343.629144 162.610673 
L 344.607756 162.620658 
L 344.85241 162.826512 
L 345.097063 162.710218 
L 345.831022 162.668286 
L 346.809634 162.452988 
L 347.543593 162.682497 
L 348.277552 162.804825 
L 348.766858 162.968213 
L 349.011511 163.096525 
L 349.500817 162.98499 
L 349.74547 163.047362 
L 349.990123 162.955293 
L 350.234776 162.670355 
L 350.724082 161.892831 
L 351.947347 161.588492 
L 353.170612 162.109788 
L 353.415265 162.032989 
L 353.904571 162.322635 
L 354.149224 162.361099 
L 354.393877 162.065029 
L 354.63853 162.450234 
L 355.127836 162.587659 
L 356.595754 161.267981 
L 357.08506 161.468283 
L 357.574366 160.845135 
L 357.819019 160.678142 
L 358.063672 160.732857 
L 358.308325 160.982546 
L 358.797631 162.165837 
L 359.776243 162.264899 
L 360.020896 161.963415 
L 360.265549 162.059031 
L 361.244161 161.746948 
L 361.488814 162.158807 
L 361.733467 162.245851 
L 361.97812 162.702158 
L 362.222773 162.749634 
L 362.467426 163.002286 
L 362.712079 162.811436 
L 362.956732 162.860484 
L 363.446038 162.338424 
L 363.690691 162.219715 
L 364.42465 161.285198 
L 364.669303 161.071284 
L 365.403262 161.115559 
L 365.892568 161.598679 
L 366.381874 161.722846 
L 366.87118 162.205151 
L 367.360487 162.478907 
L 367.849793 162.575979 
L 368.583752 162.139485 
L 368.828405 162.142419 
L 369.073058 162.430565 
L 369.317711 162.275634 
L 369.562364 161.916119 
L 370.05167 161.65103 
L 370.540976 162.192138 
L 370.785629 162.450637 
L 371.030282 162.286348 
L 371.764241 162.362289 
L 372.253547 162.343183 
L 372.742853 161.758217 
L 373.232159 162.075772 
L 373.476812 162.328662 
L 373.721465 162.227019 
L 373.966118 162.304019 
L 374.210771 162.106241 
L 374.455424 162.08141 
L 374.700077 161.926609 
L 374.94473 162.030322 
L 375.189383 161.951591 
L 375.923342 162.144387 
L 376.167995 162.443651 
L 376.412648 162.555662 
L 376.657301 162.9414 
L 376.901954 163.079849 
L 377.39126 162.850174 
L 377.880566 162.382952 
L 378.369872 162.31231 
L 378.614525 161.959334 
L 379.103831 161.688542 
L 379.83779 161.677259 
L 380.327096 161.53922 
L 381.061055 161.678355 
L 381.550361 161.374001 
L 381.795014 161.339034 
L 382.28432 161.486171 
L 382.528973 160.112809 
L 382.773626 159.487275 
L 383.018279 159.365069 
L 383.262932 159.500512 
L 383.507585 159.496431 
L 383.507585 159.496431 
" style="fill:none;stroke:#1f77b4;stroke-linecap:square;stroke-width:1.5;"/>
   </g>
   <g id="line2d_26">
    <path clip-path="url(#pe57a4189c6)" d="M 58.85304 167.212763 
L 59.097693 168.756934 
L 59.342346 165.925955 
L 59.586999 170.043742 
L 59.831652 149.969529 
L 60.076305 159.234551 
L 60.320958 156.403572 
L 60.565611 162.580253 
L 60.810264 160.006636 
L 61.054917 166.440678 
L 61.29957 165.15387 
L 61.544223 171.073189 
L 61.788876 162.580253 
L 62.033529 149.454806 
L 62.522835 168.499572 
L 62.767488 162.837614 
L 63.012141 171.073189 
L 63.256794 171.845274 
L 63.501447 156.403572 
L 63.990753 165.925955 
L 64.235406 163.867061 
L 64.480059 172.874721 
L 64.724712 151.513699 
L 64.969365 175.448338 
L 65.214018 164.381785 
L 65.458671 139.932423 
L 65.703324 174.418891 
L 65.947977 170.301104 
L 66.19263 162.580253 
L 66.437283 164.639146 
L 66.926589 157.175657 
L 67.171242 164.381785 
L 67.415895 165.15387 
L 67.660548 167.727487 
L 67.905201 154.087316 
L 68.149854 171.073189 
L 68.394507 174.933614 
L 68.63916 174.418891 
L 69.128466 164.381785 
L 69.373119 174.676253 
L 69.617772 171.330551 
L 69.862425 160.006636 
L 70.107078 159.234551 
L 70.351731 160.006636 
L 70.596384 169.014295 
L 70.841037 166.183316 
L 71.08569 177.24987 
L 71.574996 165.15387 
L 71.819649 157.947742 
L 72.064302 156.403572 
L 72.308955 164.896508 
L 72.553608 161.808168 
L 72.798261 166.69804 
L 73.042914 186.514891 
L 73.287567 180.852934 
L 73.53222 163.094976 
L 73.776873 168.24221 
L 74.021526 164.896508 
L 74.266179 155.888848 
L 74.510832 155.888848 
L 74.755485 139.160338 
L 75.000138 164.896508 
L 75.489445 158.462465 
L 75.734098 184.455997 
L 76.223404 163.867061 
L 76.71271 193.463657 
L 76.957363 170.815827 
L 77.446669 167.984848 
L 77.691322 158.977189 
L 77.935975 164.896508 
L 78.180628 158.205104 
L 78.425281 145.079657 
L 78.669934 172.359997 
L 78.914587 172.359997 
L 79.15924 157.175657 
L 79.403893 174.933614 
L 79.648546 173.132082 
L 80.137852 165.925955 
L 80.382505 156.660934 
L 80.871811 171.587912 
L 81.116464 151.771061 
L 81.361117 154.60204 
L 81.60577 166.440678 
L 81.850423 167.727487 
L 82.095076 172.102636 
L 82.339729 157.175657 
L 82.584382 152.285785 
L 82.829035 170.815827 
L 83.073688 154.859402 
L 83.318341 170.301104 
L 83.562994 174.418891 
L 83.807647 169.529019 
L 84.0523 161.808168 
L 84.296953 174.933614 
L 84.786259 140.96187 
L 85.030912 173.904168 
L 85.275565 177.507231 
L 85.520218 165.668593 
L 85.764871 167.984848 
L 86.009524 160.521359 
L 86.254177 170.558465 
L 86.49883 154.859402 
L 86.743483 162.837614 
L 86.988136 156.14621 
L 87.232789 168.756934 
L 87.477442 158.977189 
L 87.722095 164.381785 
L 87.966748 166.955402 
L 88.211401 152.543146 
L 88.456054 163.867061 
L 88.700707 157.947742 
L 88.94536 163.609699 
L 89.190013 161.808168 
L 89.679319 174.676253 
L 89.923972 152.028423 
L 90.168625 176.992508 
L 90.413278 162.837614 
L 90.657931 168.499572 
L 90.902584 165.925955 
L 91.147237 157.433019 
L 91.39189 156.403572 
L 91.636543 163.867061 
L 91.881196 160.521359 
L 92.125849 164.124423 
L 92.370502 165.15387 
L 92.615155 163.352338 
L 93.104461 174.161529 
L 93.349114 157.433019 
L 93.593767 174.418891 
L 94.083073 153.05787 
L 94.327726 164.639146 
L 94.572379 160.521359 
L 94.817032 159.234551 
L 95.061685 159.234551 
L 95.306338 171.073189 
L 95.550991 163.094976 
L 95.795644 167.984848 
L 96.040297 167.727487 
L 96.28495 163.352338 
L 96.529603 164.381785 
L 96.774256 158.462465 
L 97.018909 166.955402 
L 97.263562 162.837614 
L 97.508215 162.322891 
L 97.752869 160.778721 
L 97.997522 169.78638 
L 98.242175 160.778721 
L 98.486828 166.69804 
L 98.731481 164.381785 
L 98.976134 158.977189 
L 99.220787 158.205104 
L 99.46544 164.381785 
L 99.710093 159.491912 
L 99.954746 170.558465 
L 100.199399 163.609699 
L 100.444052 161.550806 
L 100.688705 167.212763 
L 100.933358 138.130891 
L 101.178011 147.138551 
L 101.422664 199.125614 
L 101.667317 167.984848 
L 101.91197 166.955402 
L 102.156623 157.175657 
L 102.401276 168.24221 
L 102.645929 165.15387 
L 102.890582 139.160338 
L 103.135235 137.101444 
L 103.379888 170.301104 
L 103.624541 134.527827 
L 103.869194 159.749274 
L 104.113847 168.24221 
L 104.3585 143.278125 
L 104.603153 151.771061 
L 104.847806 174.161529 
L 105.092459 153.05787 
L 105.581765 157.69038 
L 105.826418 175.705699 
L 106.071071 172.617359 
L 106.315724 172.874721 
L 106.80503 155.631487 
L 107.049683 151.513699 
L 107.294336 156.403572 
L 107.538989 158.205104 
L 107.783642 144.05021 
L 108.272948 170.301104 
L 108.517601 170.558465 
L 108.762254 176.220423 
L 109.25156 145.079657 
L 109.496213 167.984848 
L 109.740866 160.521359 
L 109.985519 167.727487 
L 110.230172 146.623827 
L 110.474825 179.823487 
L 111.208784 146.109104 
L 111.453437 169.529019 
L 111.69809 180.595572 
L 111.942743 160.263997 
L 112.187396 171.587912 
L 112.432049 172.617359 
L 112.676702 148.940082 
L 113.410661 192.691572 
L 113.899967 152.800508 
L 114.14462 165.668593 
L 114.389273 146.881189 
L 114.878579 166.183316 
L 115.123232 169.271657 
L 115.367885 175.190976 
L 115.612538 162.580253 
L 115.857191 159.234551 
L 116.346497 163.867061 
L 116.59115 155.374125 
L 116.835803 138.902976 
L 117.080456 164.896508 
L 117.325109 151.513699 
L 117.569762 161.808168 
L 117.814415 178.021955 
L 118.059068 172.102636 
L 118.303721 268.355912 
L 118.548374 148.682721 
L 118.793027 169.271657 
L 119.03768 160.778721 
L 119.282333 179.051402 
L 119.526986 158.462465 
L 119.771639 166.440678 
L 120.016292 156.403572 
L 120.260946 164.639146 
L 120.505599 168.756934 
L 120.750252 158.719827 
L 120.994905 169.271657 
L 121.239558 167.470125 
L 121.728864 143.020763 
L 121.973517 169.271657 
L 122.21817 160.006636 
L 122.462823 180.852934 
L 122.707476 161.293444 
L 122.952129 178.79404 
L 123.196782 164.124423 
L 123.441435 174.933614 
L 123.686088 158.462465 
L 123.930741 164.639146 
L 124.175394 144.307572 
L 124.420047 103.644423 
L 124.6647 179.823487 
L 124.909353 187.286976 
L 125.398659 150.741614 
L 125.643312 168.24221 
L 125.887965 203.500763 
L 126.377271 163.609699 
L 126.621924 166.440678 
L 126.866577 151.256338 
L 127.11123 145.59438 
L 127.600536 165.668593 
L 127.845189 155.631487 
L 128.089842 170.301104 
L 128.579148 154.344678 
L 128.823801 156.14621 
L 129.068454 186.257529 
L 129.313107 165.668593 
L 129.55776 171.845274 
L 130.047066 157.69038 
L 130.291719 151.513699 
L 130.536372 164.124423 
L 130.781025 156.660934 
L 131.025678 155.631487 
L 131.270331 165.925955 
L 131.514984 163.867061 
L 131.759637 179.308763 
L 132.248943 162.837614 
L 132.493596 146.623827 
L 132.738249 154.859402 
L 132.982902 156.14621 
L 133.227555 163.352338 
L 133.716861 157.175657 
L 133.961514 163.352338 
L 134.206167 163.609699 
L 134.695473 185.485444 
L 134.940126 165.411231 
L 135.184779 112.652082 
L 135.429432 168.499572 
L 135.918738 163.867061 
L 136.163391 167.727487 
L 136.652697 153.572593 
L 136.89735 146.366465 
L 137.142003 124.748082 
L 137.386656 181.88238 
L 137.631309 157.175657 
L 137.875962 169.271657 
L 138.120615 170.301104 
L 138.365268 143.792848 
L 138.609921 167.984848 
L 138.854574 169.014295 
L 139.099227 180.852934 
L 139.34388 176.220423 
L 139.588533 155.631487 
L 139.833186 156.14621 
L 140.322492 162.580253 
L 140.567145 171.845274 
L 140.811798 157.947742 
L 141.056451 150.741614 
L 141.301104 156.14621 
L 141.545757 167.984848 
L 141.79041 148.167997 
L 142.035063 188.573785 
L 142.279716 155.116763 
L 142.524369 155.631487 
L 142.769023 179.566125 
L 143.258329 174.418891 
L 143.502982 178.021955 
L 143.747635 159.491912 
L 143.992288 173.646806 
L 144.236941 162.837614 
L 144.481594 172.874721 
L 144.726247 150.226891 
L 144.9709 169.014295 
L 145.215553 152.543146 
L 145.460206 155.116763 
L 145.704859 168.24221 
L 146.194165 161.293444 
L 146.438818 170.815827 
L 146.683471 170.815827 
L 146.928124 184.455997 
L 147.172777 157.175657 
L 147.41743 181.110295 
L 147.662083 170.301104 
L 147.906736 151.256338 
L 148.151389 191.662125 
L 148.396042 143.792848 
L 148.640695 139.160338 
L 149.130001 177.507231 
L 149.374654 169.78638 
L 149.619307 170.558465 
L 149.86396 161.293444 
L 150.108613 145.079657 
L 150.353266 184.198636 
L 150.597919 158.205104 
L 150.842572 154.344678 
L 151.087225 159.234551 
L 151.331878 139.160338 
L 151.576531 199.382976 
L 151.821184 167.727487 
L 152.065837 178.021955 
L 152.31049 155.116763 
L 152.555143 154.60204 
L 152.799796 158.205104 
L 153.044449 154.859402 
L 153.289102 156.660934 
L 154.023061 169.529019 
L 154.267714 162.065529 
L 154.512367 158.205104 
L 154.75702 158.462465 
L 155.001673 171.845274 
L 155.490979 166.183316 
L 155.735632 154.344678 
L 155.980285 152.800508 
L 156.224938 178.021955 
L 156.469591 148.167997 
L 156.714244 172.102636 
L 156.958897 163.352338 
L 157.20355 170.815827 
L 157.448203 166.440678 
L 157.692856 159.234551 
L 157.937509 157.947742 
L 158.182162 174.161529 
L 158.426815 169.271657 
L 158.671468 155.374125 
L 158.916121 125.777529 
L 159.160774 171.587912 
L 159.405427 137.101444 
L 159.65008 168.756934 
L 159.894733 155.631487 
L 160.384039 178.536678 
L 160.628692 175.448338 
L 160.873345 140.189785 
L 161.362651 153.315231 
L 161.607304 166.183316 
L 161.851957 173.132082 
L 162.09661 193.721019 
L 162.341263 166.183316 
L 162.585916 163.867061 
L 162.830569 147.653274 
L 163.075222 192.948934 
L 163.319875 168.24221 
L 163.564528 165.15387 
L 163.809181 149.712168 
L 164.053834 147.653274 
L 164.298487 174.418891 
L 164.54314 166.183316 
L 164.787793 163.094976 
L 165.032447 172.102636 
L 165.2771 160.006636 
L 165.521753 163.094976 
L 165.766406 139.675061 
L 166.011059 173.646806 
L 166.255712 167.212763 
L 166.500365 174.676253 
L 166.989671 171.073189 
L 167.234324 173.904168 
L 167.478977 155.116763 
L 167.72363 158.719827 
L 167.968283 166.955402 
L 168.212936 153.315231 
L 168.457589 152.800508 
L 168.946895 180.852934 
L 169.191548 158.462465 
L 169.436201 166.440678 
L 169.680854 166.183316 
L 169.925507 147.138551 
L 170.17016 170.815827 
L 170.414813 163.867061 
L 170.659466 162.580253 
L 170.904119 169.014295 
L 171.148772 155.888848 
L 171.393425 148.940082 
L 171.638078 168.24221 
L 171.882731 177.24987 
L 172.127384 163.609699 
L 172.372037 141.476593 
L 172.861343 169.78638 
L 173.105996 168.499572 
L 173.350649 170.815827 
L 173.595302 171.587912 
L 173.839955 147.653274 
L 174.084608 157.433019 
L 174.329261 159.749274 
L 174.573914 165.15387 
L 174.818567 167.984848 
L 175.06322 160.006636 
L 175.307873 156.403572 
L 175.552526 170.815827 
L 175.797179 156.918295 
L 176.041832 172.359997 
L 176.286485 150.741614 
L 176.531138 178.536678 
L 176.775791 160.006636 
L 177.265097 166.955402 
L 177.50975 159.491912 
L 177.754403 169.78638 
L 178.243709 163.867061 
L 178.488362 154.087316 
L 178.733015 163.094976 
L 178.977668 156.403572 
L 179.222321 122.431827 
L 179.466974 152.800508 
L 179.711627 160.263997 
L 179.95628 160.521359 
L 180.200933 164.639146 
L 180.445586 163.352338 
L 180.690239 176.477785 
L 180.934892 161.808168 
L 181.179545 178.021955 
L 181.424198 166.69804 
L 181.913504 175.190976 
L 182.158157 172.102636 
L 182.40281 151.256338 
L 182.647463 171.845274 
L 182.892116 173.132082 
L 183.136769 151.771061 
L 183.381422 165.15387 
L 183.626075 164.381785 
L 184.115381 149.969529 
L 184.360034 159.491912 
L 184.604687 150.998976 
L 184.84934 156.14621 
L 185.093993 158.719827 
L 185.338646 174.161529 
L 185.583299 157.433019 
L 185.827952 166.183316 
L 186.072605 163.867061 
L 186.317258 168.499572 
L 186.561911 167.984848 
L 186.806564 164.124423 
L 187.051217 150.226891 
L 187.29587 173.132082 
L 187.540524 167.727487 
L 188.02983 147.653274 
L 188.274483 149.969529 
L 188.763789 162.322891 
L 189.008442 160.263997 
L 189.253095 172.102636 
L 189.497748 176.220423 
L 189.742401 150.998976 
L 189.987054 170.558465 
L 190.231707 160.263997 
L 190.47636 142.763402 
L 190.721013 176.220423 
L 190.965666 177.24987 
L 191.210319 150.998976 
L 191.454972 191.147402 
L 191.699625 154.859402 
L 191.944278 163.609699 
L 192.188931 166.440678 
L 192.433584 176.220423 
L 192.678237 167.984848 
L 192.92289 155.888848 
L 193.167543 164.381785 
L 193.412196 178.79404 
L 193.656849 132.211572 
L 193.901502 188.316423 
L 194.146155 211.221614 
L 194.390808 174.161529 
L 194.635461 162.322891 
L 194.880114 177.507231 
L 195.124767 176.735146 
L 195.36942 141.476593 
L 195.614073 152.800508 
L 195.858726 143.792848 
L 196.103379 177.24987 
L 196.348032 147.910636 
L 196.592685 135.814636 
L 196.837338 170.043742 
L 197.081991 149.454806 
L 197.326644 161.036082 
L 197.571297 179.051402 
L 197.81595 141.219231 
L 198.305256 161.036082 
L 198.549909 156.918295 
L 198.794562 142.763402 
L 199.039215 164.896508 
L 199.283868 158.977189 
L 199.528521 164.896508 
L 199.773174 166.69804 
L 200.017827 143.020763 
L 200.26248 165.15387 
L 200.507133 167.470125 
L 200.751786 182.911827 
L 200.996439 177.764593 
L 201.241092 152.028423 
L 201.485745 182.911827 
L 202.219704 157.175657 
L 202.464357 162.837614 
L 202.70901 143.535487 
L 202.953663 168.499572 
L 203.198316 174.161529 
L 203.442969 144.822295 
L 203.687622 175.190976 
L 203.932275 182.911827 
L 204.176928 167.212763 
L 204.421581 182.139742 
L 204.666234 157.433019 
L 204.910887 170.043742 
L 205.15554 171.587912 
L 205.400193 203.243402 
L 205.889499 118.571402 
L 206.134152 160.778721 
L 206.623458 152.285785 
L 206.868111 172.359997 
L 207.112764 171.073189 
L 207.357417 175.448338 
L 207.60207 175.448338 
L 207.846723 179.051402 
L 208.091376 156.403572 
L 208.336029 175.448338 
L 208.580682 181.88238 
L 209.069988 129.380593 
L 209.314641 174.676253 
L 209.559294 179.566125 
L 209.803947 170.815827 
L 210.048601 174.676253 
L 210.293254 176.477785 
L 210.537907 144.822295 
L 211.027213 176.477785 
L 211.271866 133.241019 
L 211.516519 163.094976 
L 211.761172 168.756934 
L 212.005825 276.334125 
L 212.495131 143.278125 
L 212.739784 205.817019 
L 212.984437 141.733955 
L 213.22909 156.14621 
L 213.473743 158.205104 
L 213.718396 148.682721 
L 213.963049 165.411231 
L 214.207702 165.668593 
L 214.452355 158.205104 
L 214.697008 170.043742 
L 214.941661 146.109104 
L 215.186314 144.307572 
L 215.430967 171.845274 
L 215.67562 165.668593 
L 215.920273 165.15387 
L 216.164926 155.374125 
L 216.409579 156.660934 
L 216.654232 165.925955 
L 216.898885 166.955402 
L 217.143538 162.837614 
L 217.388191 169.529019 
L 217.632844 163.609699 
L 217.877497 179.823487 
L 218.366803 162.837614 
L 218.611456 183.683912 
L 218.856109 151.771061 
L 219.100762 185.485444 
L 219.345415 165.668593 
L 219.590068 189.088508 
L 219.834721 155.116763 
L 220.079374 159.749274 
L 220.324027 160.778721 
L 220.56868 143.792848 
L 220.813333 170.043742 
L 221.057986 148.940082 
L 221.302639 165.15387 
L 221.547292 163.094976 
L 221.791945 201.44187 
L 222.036598 170.815827 
L 222.281251 170.558465 
L 222.525904 164.639146 
L 222.770557 172.102636 
L 223.01521 162.837614 
L 223.259863 175.448338 
L 223.504516 131.95421 
L 223.749169 164.896508 
L 223.993822 167.212763 
L 224.483128 158.205104 
L 224.972434 167.212763 
L 225.217087 148.682721 
L 225.706393 178.279316 
L 225.951046 131.182125 
L 226.195699 171.587912 
L 226.440352 155.374125 
L 226.685005 155.116763 
L 226.929658 47.796934 
L 227.174311 160.263997 
L 227.418964 135.299912 
L 227.663617 166.955402 
L 227.90827 175.190976 
L 228.152923 163.867061 
L 228.397576 175.190976 
L 228.642229 180.852934 
L 228.886882 198.353529 
L 229.131535 153.572593 
L 229.376188 137.358806 
L 229.620841 174.161529 
L 230.110147 157.433019 
L 230.3548 136.071997 
L 230.599453 175.190976 
L 230.844106 171.845274 
L 231.088759 175.448338 
L 231.333412 164.381785 
L 231.578065 168.499572 
L 231.822718 177.764593 
L 232.067371 172.359997 
L 232.312024 138.130891 
L 232.556678 168.499572 
L 232.801331 179.566125 
L 233.045984 154.859402 
L 233.290637 172.359997 
L 233.53529 166.183316 
L 233.779943 176.992508 
L 234.024596 170.043742 
L 234.269249 174.933614 
L 234.513902 166.440678 
L 234.758555 139.675061 
L 235.003208 168.756934 
L 235.247861 176.477785 
L 235.492514 176.992508 
L 235.737167 155.374125 
L 235.98182 160.778721 
L 236.226473 145.079657 
L 236.471126 180.33821 
L 236.715779 161.036082 
L 236.960432 172.617359 
L 237.205085 171.587912 
L 237.449738 163.867061 
L 237.939044 187.286976 
L 238.42835 156.660934 
L 238.673003 165.668593 
L 238.917656 164.639146 
L 239.162309 166.69804 
L 239.406962 165.925955 
L 239.651615 157.175657 
L 239.896268 162.065529 
L 240.140921 140.447146 
L 240.385574 162.322891 
L 240.630227 160.778721 
L 240.87488 141.219231 
L 241.119533 165.411231 
L 241.364186 156.660934 
L 241.608839 155.116763 
L 241.853492 209.162721 
L 242.098145 149.712168 
L 242.587451 179.566125 
L 242.832104 164.639146 
L 243.076757 139.932423 
L 243.32141 149.197444 
L 243.566063 169.014295 
L 243.810716 161.550806 
L 244.055369 145.59438 
L 244.544675 189.088508 
L 244.789328 161.293444 
L 245.033981 149.197444 
L 245.278634 188.059061 
L 245.523287 155.888848 
L 245.76794 164.639146 
L 246.012593 157.433019 
L 246.257246 156.14621 
L 246.501899 165.668593 
L 246.746552 181.367657 
L 246.991205 188.831146 
L 247.235858 231.038465 
L 247.480511 200.155061 
L 247.725164 195.522551 
L 247.969817 106.732763 
L 248.459123 163.609699 
L 248.703776 174.933614 
L 248.948429 208.133274 
L 249.193082 124.748082 
L 249.682388 187.286976 
L 249.927041 131.439487 
L 250.171694 185.485444 
L 250.416347 158.719827 
L 250.661 159.491912 
L 250.905653 175.705699 
L 251.150306 140.189785 
L 251.884265 184.198636 
L 252.128918 148.167997 
L 252.373571 169.78638 
L 252.618224 165.15387 
L 252.862877 163.352338 
L 253.10753 163.609699 
L 253.352183 181.110295 
L 253.841489 143.278125 
L 254.086142 155.374125 
L 254.330795 139.675061 
L 254.575448 137.101444 
L 254.820101 161.293444 
L 255.064755 163.094976 
L 255.309408 147.653274 
L 255.554061 173.132082 
L 255.798714 167.212763 
L 256.043367 167.212763 
L 256.28802 169.78638 
L 256.532673 155.888848 
L 256.777326 151.513699 
L 257.021979 161.550806 
L 257.266632 160.521359 
L 257.511285 179.051402 
L 257.755938 143.020763 
L 258.000591 39.818721 
L 258.489897 178.79404 
L 258.73455 156.918295 
L 258.979203 180.33821 
L 259.223856 182.911827 
L 259.468509 148.940082 
L 259.713162 140.96187 
L 259.957815 157.947742 
L 260.202468 164.896508 
L 260.447121 150.484253 
L 260.691774 183.941274 
L 260.936427 181.110295 
L 261.18108 160.778721 
L 261.425733 172.874721 
L 261.670386 176.735146 
L 261.915039 140.447146 
L 262.159692 184.970721 
L 262.404345 141.733955 
L 262.648998 162.065529 
L 262.893651 157.947742 
L 263.138304 164.381785 
L 263.382957 162.837614 
L 263.62761 178.79404 
L 263.872263 158.205104 
L 264.116916 153.572593 
L 264.361569 141.991316 
L 264.850875 190.375316 
L 265.095528 120.372934 
L 265.340181 166.955402 
L 265.584834 164.896508 
L 265.829487 185.228082 
L 266.07414 156.918295 
L 266.318793 195.522551 
L 266.563446 136.586721 
L 266.808099 162.837614 
L 267.052752 140.447146 
L 267.542058 204.787572 
L 267.786711 146.366465 
L 268.031364 150.998976 
L 268.276017 152.285785 
L 268.52067 168.24221 
L 269.009976 148.940082 
L 269.499282 185.742806 
L 269.743935 181.88238 
L 269.988588 157.947742 
L 270.477894 212.765785 
L 270.722547 160.263997 
L 270.9672 165.15387 
L 271.211853 152.028423 
L 271.456506 193.721019 
L 271.701159 126.549614 
L 271.945812 218.942465 
L 272.190465 175.448338 
L 272.435118 158.462465 
L 272.679771 172.359997 
L 272.924424 117.799316 
L 273.169077 177.24987 
L 273.41373 154.60204 
L 273.658383 188.831146 
L 274.147689 86.143827 
L 274.392342 174.161529 
L 274.636995 208.390636 
L 275.126301 168.499572 
L 275.370954 211.736338 
L 275.86026 167.727487 
L 276.104913 153.315231 
L 276.349566 164.896508 
L 276.594219 143.535487 
L 276.838872 149.197444 
L 277.083525 130.152678 
L 277.328178 170.301104 
L 277.572832 173.904168 
L 277.817485 143.020763 
L 278.062138 202.213955 
L 278.306791 159.749274 
L 278.551444 145.337019 
L 278.796097 184.970721 
L 279.04075 163.609699 
L 279.285403 175.963061 
L 279.530056 120.630295 
L 280.019362 179.823487 
L 280.264015 172.617359 
L 280.508668 190.117955 
L 280.753321 148.425359 
L 280.997974 133.755742 
L 281.242627 184.713359 
L 281.48728 138.130891 
L 281.731933 161.808168 
L 282.221239 144.822295 
L 282.465892 156.403572 
L 282.710545 194.493104 
L 282.955198 154.859402 
L 283.199851 158.977189 
L 283.444504 166.955402 
L 283.689157 158.205104 
L 283.93381 181.625019 
L 284.178463 134.270465 
L 284.423116 155.631487 
L 284.667769 159.749274 
L 284.912422 155.631487 
L 285.157075 167.984848 
L 285.401728 186.772253 
L 285.646381 149.969529 
L 285.891034 181.367657 
L 286.135687 165.411231 
L 286.38034 167.212763 
L 286.869646 146.366465 
L 287.114299 164.124423 
L 287.358952 156.918295 
L 287.603605 143.535487 
L 288.092911 184.970721 
L 288.337564 159.491912 
L 288.582217 267.326465 
L 288.82687 155.888848 
L 289.071523 181.625019 
L 289.316176 177.24987 
L 289.560829 191.147402 
L 290.050135 145.337019 
L 290.294788 185.742806 
L 290.539441 162.065529 
L 290.784094 162.580253 
L 291.028747 152.800508 
L 291.2734 172.617359 
L 291.518053 139.932423 
L 291.762706 163.609699 
L 292.007359 152.543146 
L 292.252012 175.448338 
L 292.496665 145.079657 
L 292.741318 198.353529 
L 292.985971 156.660934 
L 293.230624 176.992508 
L 293.475277 156.660934 
L 293.71993 179.566125 
L 293.964583 124.233359 
L 294.453889 170.301104 
L 294.698542 153.315231 
L 294.943195 146.881189 
L 295.187848 168.24221 
L 295.677154 182.139742 
L 295.921807 155.631487 
L 296.16646 165.15387 
L 296.411113 165.925955 
L 296.655766 175.190976 
L 296.900419 167.984848 
L 297.145072 198.868253 
L 297.389725 172.359997 
L 297.634378 167.984848 
L 297.879031 146.366465 
L 298.123684 171.073189 
L 298.368337 165.925955 
L 298.61299 135.557274 
L 298.857643 169.529019 
L 299.102296 140.704508 
L 299.346949 217.913019 
L 299.591602 200.412423 
L 299.836256 138.388253 
L 300.080909 136.071997 
L 300.570215 164.639146 
L 300.814868 164.124423 
L 301.059521 158.977189 
L 301.304174 164.381785 
L 301.548827 140.704508 
L 301.79348 156.918295 
L 302.038133 148.425359 
L 302.282786 156.660934 
L 302.527439 158.462465 
L 302.772092 165.411231 
L 303.016745 157.69038 
L 303.261398 186.772253 
L 303.506051 91.805785 
L 303.750704 167.212763 
L 303.995357 144.564934 
L 304.24001 160.263997 
L 304.484663 163.609699 
L 304.729316 179.051402 
L 305.218622 152.285785 
L 305.463275 166.955402 
L 305.707928 164.381785 
L 305.952581 154.344678 
L 306.197234 153.572593 
L 306.441887 149.712168 
L 306.68654 161.808168 
L 306.931193 160.778721 
L 307.175846 169.014295 
L 307.420499 157.175657 
L 307.665152 173.646806 
L 307.909805 159.749274 
L 308.154458 181.88238 
L 308.399111 161.293444 
L 308.643764 163.352338 
L 308.888417 163.867061 
L 309.13307 163.094976 
L 309.377723 158.719827 
L 309.622376 162.837614 
L 309.867029 158.719827 
L 310.111682 167.984848 
L 310.356335 162.580253 
L 310.845641 175.448338 
L 311.090294 161.036082 
L 311.334947 162.322891 
L 311.5796 165.925955 
L 311.824253 163.094976 
L 312.068906 170.301104 
L 312.313559 195.779912 
L 312.558212 142.763402 
L 312.802865 177.764593 
L 313.047518 171.330551 
L 313.292171 140.447146 
L 313.536824 162.837614 
L 313.781477 172.617359 
L 314.02613 167.470125 
L 314.270783 139.932423 
L 314.515436 162.837614 
L 314.760089 174.418891 
L 315.004742 178.021955 
L 315.249395 137.358806 
L 315.738701 180.595572 
L 315.983354 159.234551 
L 316.228007 169.014295 
L 316.47266 169.014295 
L 316.717313 154.087316 
L 316.961966 161.808168 
L 317.206619 162.837614 
L 317.451272 158.205104 
L 317.695925 186.257529 
L 317.940578 166.440678 
L 318.185231 169.271657 
L 318.429884 151.513699 
L 318.674537 169.529019 
L 318.91919 153.05787 
L 319.163843 167.727487 
L 319.408496 171.587912 
L 319.653149 102.357614 
L 320.387108 173.646806 
L 320.631761 178.021955 
L 321.121067 163.094976 
L 321.36572 167.470125 
L 321.610373 173.904168 
L 321.855026 170.043742 
L 322.099679 177.24987 
L 322.344333 120.372934 
L 322.588986 163.094976 
L 322.833639 172.102636 
L 323.078292 202.213955 
L 323.322945 156.14621 
L 323.567598 187.544338 
L 323.812251 145.079657 
L 324.056904 144.307572 
L 324.301557 138.902976 
L 324.54621 171.845274 
L 324.790863 151.256338 
L 325.035516 157.69038 
L 325.280169 182.911827 
L 325.524822 161.036082 
L 325.769475 162.322891 
L 326.014128 152.028423 
L 326.258781 185.742806 
L 326.503434 191.662125 
L 326.99274 139.417699 
L 327.237393 171.330551 
L 327.482046 127.836423 
L 327.726699 173.646806 
L 327.971352 139.675061 
L 328.216005 159.234551 
L 328.460658 143.535487 
L 328.705311 172.102636 
L 328.949964 166.955402 
L 329.194617 171.587912 
L 329.43927 130.41004 
L 329.683923 166.440678 
L 329.928576 164.381785 
L 330.173229 164.124423 
L 330.417882 172.359997 
L 330.662535 163.352338 
L 330.907188 171.845274 
L 331.151841 166.69804 
L 331.396494 183.941274 
L 331.641147 153.05787 
L 331.8858 171.587912 
L 332.130453 164.381785 
L 332.375106 150.484253 
L 332.619759 169.529019 
L 332.864412 164.896508 
L 333.109065 149.712168 
L 333.353718 179.308763 
L 333.598371 162.065529 
L 333.843024 168.756934 
L 334.087677 165.15387 
L 334.33233 169.529019 
L 334.576983 153.05787 
L 334.821636 158.719827 
L 335.066289 149.969529 
L 335.310942 160.263997 
L 335.555595 149.197444 
L 335.800248 125.520168 
L 336.044901 181.110295 
L 336.289554 176.735146 
L 336.534207 191.919487 
L 337.023513 151.256338 
L 337.268166 165.411231 
L 337.512819 169.78638 
L 337.757472 166.69804 
L 338.002125 145.851742 
L 338.246778 165.925955 
L 338.491431 145.851742 
L 338.736084 168.24221 
L 338.980737 165.411231 
L 339.22539 164.639146 
L 339.470043 161.808168 
L 339.714696 167.727487 
L 339.959349 167.727487 
L 340.204002 157.69038 
L 340.448655 164.381785 
L 340.693308 174.418891 
L 340.937961 170.815827 
L 341.182614 139.675061 
L 341.427267 188.316423 
L 341.67192 158.205104 
L 341.916573 163.867061 
L 342.161226 161.036082 
L 342.405879 149.197444 
L 342.650532 171.073189 
L 342.895185 159.234551 
L 343.139838 170.043742 
L 343.384491 172.102636 
L 343.629144 155.631487 
L 343.873797 167.212763 
L 344.11845 158.462465 
L 344.363103 162.837614 
L 344.607756 182.911827 
L 344.85241 143.278125 
L 345.097063 168.499572 
L 345.341716 161.550806 
L 345.586369 161.293444 
L 345.831022 159.491912 
L 346.075675 159.749274 
L 346.320328 158.205104 
L 346.564981 160.521359 
L 346.809634 172.359997 
L 347.054287 159.749274 
L 347.29894 168.756934 
L 347.543593 160.006636 
L 347.788246 165.668593 
L 348.032899 168.24221 
L 348.277552 165.668593 
L 348.522205 170.815827 
L 348.766858 171.587912 
L 349.011511 150.741614 
L 349.256164 166.69804 
L 349.500817 173.389444 
L 349.74547 152.543146 
L 349.990123 141.219231 
L 350.234776 135.299912 
L 350.724082 166.69804 
L 350.968735 153.05787 
L 351.213388 159.491912 
L 351.458041 139.932423 
L 351.702694 167.212763 
L 351.947347 170.043742 
L 352.192 171.330551 
L 352.436653 159.491912 
L 352.681306 165.925955 
L 353.170612 157.433019 
L 353.415265 186.257529 
L 353.659918 166.440678 
L 353.904571 163.094976 
L 354.149224 139.160338 
L 354.393877 214.052593 
L 354.63853 158.462465 
L 354.883183 164.896508 
L 355.127836 144.822295 
L 355.372489 158.462465 
L 355.617142 162.065529 
L 355.861795 142.50604 
L 356.106448 155.631487 
L 356.351101 152.800508 
L 356.595754 179.051402 
L 356.840407 157.69038 
L 357.08506 121.659742 
L 357.329713 150.998976 
L 358.063672 175.705699 
L 358.308325 206.331742 
L 358.797631 141.991316 
L 359.042284 174.161529 
L 359.286937 173.904168 
L 359.53159 161.808168 
L 359.776243 141.991316 
L 360.020896 189.088508 
L 360.265549 155.116763 
L 360.510202 164.639146 
L 360.754855 139.932423 
L 360.999508 181.88238 
L 361.244161 198.353529 
L 361.488814 149.197444 
L 361.733467 198.096168 
L 361.97812 153.05787 
L 362.222773 183.941274 
L 362.467426 140.96187 
L 362.712079 177.507231 
L 362.956732 141.476593 
L 363.446038 164.124423 
L 363.690691 134.527827 
L 363.935344 148.425359 
L 364.179997 138.388253 
L 364.669303 165.668593 
L 364.913956 149.969529 
L 365.158609 155.116763 
L 365.403262 175.448338 
L 365.647915 169.271657 
L 365.892568 149.197444 
L 366.381874 187.286976 
L 366.626527 167.470125 
L 366.87118 173.132082 
L 367.115833 167.470125 
L 367.360487 172.617359 
L 367.60514 167.212763 
L 367.849793 150.741614 
L 368.094446 171.587912 
L 368.339099 154.344678 
L 368.828405 191.662125 
L 369.073058 136.329359 
L 369.317711 136.329359 
L 369.562364 173.904168 
L 369.807017 153.315231 
L 370.05167 196.551997 
L 370.296323 162.065529 
L 370.540976 173.132082 
L 370.785629 138.388253 
L 371.030282 175.705699 
L 371.274935 165.15387 
L 371.519588 161.036082 
L 371.764241 164.124423 
L 372.008894 158.719827 
L 372.253547 139.675061 
L 372.4982 144.822295 
L 372.742853 185.742806 
L 372.987506 172.874721 
L 373.232159 169.78638 
L 373.476812 140.189785 
L 373.721465 173.646806 
L 373.966118 144.307572 
L 374.210771 166.440678 
L 374.455424 150.741614 
L 374.700077 175.705699 
L 374.94473 150.484253 
L 375.189383 168.24221 
L 375.434036 157.175657 
L 375.678689 177.24987 
L 375.923342 183.169189 
L 376.167995 159.234551 
L 376.412648 193.97838 
L 376.657301 164.381785 
L 376.901954 149.197444 
L 377.146607 163.867061 
L 377.39126 148.425359 
L 377.880566 173.389444 
L 378.369872 131.439487 
L 378.614525 163.609699 
L 378.859178 156.918295 
L 379.103831 164.381785 
L 379.348484 161.036082 
L 379.593137 146.366465 
L 380.082443 160.263997 
L 380.327096 165.925955 
L 380.571749 163.867061 
L 380.816402 156.660934 
L 381.061055 141.219231 
L 381.305708 163.867061 
L 381.550361 163.609699 
L 381.795014 170.301104 
L 382.039667 161.036082 
L 382.28432 34.414125 
L 382.528973 162.322891 
L 382.773626 182.654465 
L 383.262932 141.991316 
L 383.507585 162.065529 
L 383.507585 162.065529 
" style="fill:none;stroke:#ff7f0e;stroke-linecap:square;stroke-width:1.5;"/>
   </g>
   <g id="patch_3">
    <path d="M 42.620313 288.430125 
L 42.620313 22.318125 
" style="fill:none;stroke:#000000;stroke-linecap:square;stroke-linejoin:miter;stroke-width:0.8;"/>
   </g>
   <g id="patch_4">
    <path d="M 399.740313 288.430125 
L 399.740313 22.318125 
" style="fill:none;stroke:#000000;stroke-linecap:square;stroke-linejoin:miter;stroke-width:0.8;"/>
   </g>
   <g id="patch_5">
    <path d="M 42.620313 288.430125 
L 399.740313 288.430125 
" style="fill:none;stroke:#000000;stroke-linecap:square;stroke-linejoin:miter;stroke-width:0.8;"/>
   </g>
   <g id="patch_6">
    <path d="M 42.620313 22.318125 
L 399.740313 22.318125 
" style="fill:none;stroke:#000000;stroke-linecap:square;stroke-linejoin:miter;stroke-width:0.8;"/>
   </g>
   <g id="text_15">
    <!-- Training: MSFT -->
    <defs>
     <path d="M -0.296875 72.90625 
L 61.375 72.90625 
L 61.375 64.59375 
L 35.5 64.59375 
L 35.5 0 
L 25.59375 0 
L 25.59375 64.59375 
L -0.296875 64.59375 
z
" id="DejaVuSans-84"/>
     <path d="M 41.109375 46.296875 
Q 39.59375 47.171875 37.8125 47.578125 
Q 36.03125 48 33.890625 48 
Q 26.265625 48 22.1875 43.046875 
Q 18.109375 38.09375 18.109375 28.8125 
L 18.109375 0 
L 9.078125 0 
L 9.078125 54.6875 
L 18.109375 54.6875 
L 18.109375 46.1875 
Q 20.953125 51.171875 25.484375 53.578125 
Q 30.03125 56 36.53125 56 
Q 37.453125 56 38.578125 55.875 
Q 39.703125 55.765625 41.0625 55.515625 
z
" id="DejaVuSans-114"/>
     <path d="M 9.421875 54.6875 
L 18.40625 54.6875 
L 18.40625 0 
L 9.421875 0 
z
M 9.421875 75.984375 
L 18.40625 75.984375 
L 18.40625 64.59375 
L 9.421875 64.59375 
z
" id="DejaVuSans-105"/>
     <path d="M 11.71875 12.40625 
L 22.015625 12.40625 
L 22.015625 0 
L 11.71875 0 
z
M 11.71875 51.703125 
L 22.015625 51.703125 
L 22.015625 39.3125 
L 11.71875 39.3125 
z
" id="DejaVuSans-58"/>
     <path d="M 9.8125 72.90625 
L 24.515625 72.90625 
L 43.109375 23.296875 
L 61.8125 72.90625 
L 76.515625 72.90625 
L 76.515625 0 
L 66.890625 0 
L 66.890625 64.015625 
L 48.09375 14.015625 
L 38.1875 14.015625 
L 19.390625 64.015625 
L 19.390625 0 
L 9.8125 0 
z
" id="DejaVuSans-77"/>
     <path d="M 53.515625 70.515625 
L 53.515625 60.890625 
Q 47.90625 63.578125 42.921875 64.890625 
Q 37.9375 66.21875 33.296875 66.21875 
Q 25.25 66.21875 20.875 63.09375 
Q 16.5 59.96875 16.5 54.203125 
Q 16.5 49.359375 19.40625 46.890625 
Q 22.3125 44.4375 30.421875 42.921875 
L 36.375 41.703125 
Q 47.40625 39.59375 52.65625 34.296875 
Q 57.90625 29 57.90625 20.125 
Q 57.90625 9.515625 50.796875 4.046875 
Q 43.703125 -1.421875 29.984375 -1.421875 
Q 24.8125 -1.421875 18.96875 -0.25 
Q 13.140625 0.921875 6.890625 3.21875 
L 6.890625 13.375 
Q 12.890625 10.015625 18.65625 8.296875 
Q 24.421875 6.59375 29.984375 6.59375 
Q 38.421875 6.59375 43.015625 9.90625 
Q 47.609375 13.234375 47.609375 19.390625 
Q 47.609375 24.75 44.3125 27.78125 
Q 41.015625 30.8125 33.5 32.328125 
L 27.484375 33.5 
Q 16.453125 35.6875 11.515625 40.375 
Q 6.59375 45.0625 6.59375 53.421875 
Q 6.59375 63.09375 13.40625 68.65625 
Q 20.21875 74.21875 32.171875 74.21875 
Q 37.3125 74.21875 42.625 73.28125 
Q 47.953125 72.359375 53.515625 70.515625 
z
" id="DejaVuSans-83"/>
     <path d="M 9.8125 72.90625 
L 51.703125 72.90625 
L 51.703125 64.59375 
L 19.671875 64.59375 
L 19.671875 43.109375 
L 48.578125 43.109375 
L 48.578125 34.8125 
L 19.671875 34.8125 
L 19.671875 0 
L 9.8125 0 
z
" id="DejaVuSans-70"/>
    </defs>
    <g transform="translate(177.584688 16.318125)scale(0.12 -0.12)">
     <use xlink:href="#DejaVuSans-84"/>
     <use x="46.333984" xlink:href="#DejaVuSans-114"/>
     <use x="87.447266" xlink:href="#DejaVuSans-97"/>
     <use x="148.726562" xlink:href="#DejaVuSans-105"/>
     <use x="176.509766" xlink:href="#DejaVuSans-110"/>
     <use x="239.888672" xlink:href="#DejaVuSans-105"/>
     <use x="267.671875" xlink:href="#DejaVuSans-110"/>
     <use x="331.050781" xlink:href="#DejaVuSans-103"/>
     <use x="394.527344" xlink:href="#DejaVuSans-58"/>
     <use x="428.21875" xlink:href="#DejaVuSans-32"/>
     <use x="460.005859" xlink:href="#DejaVuSans-77"/>
     <use x="546.285156" xlink:href="#DejaVuSans-83"/>
     <use x="609.761719" xlink:href="#DejaVuSans-70"/>
     <use x="665.53125" xlink:href="#DejaVuSans-84"/>
    </g>
   </g>
   <g id="legend_1">
    <g id="patch_7">
     <path d="M 49.620313 59.674375 
L 133.348438 59.674375 
Q 135.348438 59.674375 135.348438 57.674375 
L 135.348438 29.318125 
Q 135.348438 27.318125 133.348438 27.318125 
L 49.620313 27.318125 
Q 47.620313 27.318125 47.620313 29.318125 
L 47.620313 57.674375 
Q 47.620313 59.674375 49.620313 59.674375 
z
" style="fill:#ffffff;opacity:0.8;stroke:#cccccc;stroke-linejoin:miter;"/>
    </g>
    <g id="line2d_27">
     <path d="M 51.620313 35.416562 
L 71.620313 35.416562 
" style="fill:none;stroke:#1f77b4;stroke-linecap:square;stroke-width:1.5;"/>
    </g>
    <g id="line2d_28"/>
    <g id="text_16">
     <!-- Predicted -->
     <defs>
      <path d="M 19.671875 64.796875 
L 19.671875 37.40625 
L 32.078125 37.40625 
Q 38.96875 37.40625 42.71875 40.96875 
Q 46.484375 44.53125 46.484375 51.125 
Q 46.484375 57.671875 42.71875 61.234375 
Q 38.96875 64.796875 32.078125 64.796875 
z
M 9.8125 72.90625 
L 32.078125 72.90625 
Q 44.34375 72.90625 50.609375 67.359375 
Q 56.890625 61.8125 56.890625 51.125 
Q 56.890625 40.328125 50.609375 34.8125 
Q 44.34375 29.296875 32.078125 29.296875 
L 19.671875 29.296875 
L 19.671875 0 
L 9.8125 0 
z
" id="DejaVuSans-80"/>
      <path d="M 45.40625 46.390625 
L 45.40625 75.984375 
L 54.390625 75.984375 
L 54.390625 0 
L 45.40625 0 
L 45.40625 8.203125 
Q 42.578125 3.328125 38.25 0.953125 
Q 33.9375 -1.421875 27.875 -1.421875 
Q 17.96875 -1.421875 11.734375 6.484375 
Q 5.515625 14.40625 5.515625 27.296875 
Q 5.515625 40.1875 11.734375 48.09375 
Q 17.96875 56 27.875 56 
Q 33.9375 56 38.25 53.625 
Q 42.578125 51.265625 45.40625 46.390625 
z
M 14.796875 27.296875 
Q 14.796875 17.390625 18.875 11.75 
Q 22.953125 6.109375 30.078125 6.109375 
Q 37.203125 6.109375 41.296875 11.75 
Q 45.40625 17.390625 45.40625 27.296875 
Q 45.40625 37.203125 41.296875 42.84375 
Q 37.203125 48.484375 30.078125 48.484375 
Q 22.953125 48.484375 18.875 42.84375 
Q 14.796875 37.203125 14.796875 27.296875 
z
" id="DejaVuSans-100"/>
      <path d="M 48.78125 52.59375 
L 48.78125 44.1875 
Q 44.96875 46.296875 41.140625 47.34375 
Q 37.3125 48.390625 33.40625 48.390625 
Q 24.65625 48.390625 19.8125 42.84375 
Q 14.984375 37.3125 14.984375 27.296875 
Q 14.984375 17.28125 19.8125 11.734375 
Q 24.65625 6.203125 33.40625 6.203125 
Q 37.3125 6.203125 41.140625 7.25 
Q 44.96875 8.296875 48.78125 10.40625 
L 48.78125 2.09375 
Q 45.015625 0.34375 40.984375 -0.53125 
Q 36.96875 -1.421875 32.421875 -1.421875 
Q 20.0625 -1.421875 12.78125 6.34375 
Q 5.515625 14.109375 5.515625 27.296875 
Q 5.515625 40.671875 12.859375 48.328125 
Q 20.21875 56 33.015625 56 
Q 37.15625 56 41.109375 55.140625 
Q 45.0625 54.296875 48.78125 52.59375 
z
" id="DejaVuSans-99"/>
      <path d="M 18.3125 70.21875 
L 18.3125 54.6875 
L 36.8125 54.6875 
L 36.8125 47.703125 
L 18.3125 47.703125 
L 18.3125 18.015625 
Q 18.3125 11.328125 20.140625 9.421875 
Q 21.96875 7.515625 27.59375 7.515625 
L 36.8125 7.515625 
L 36.8125 0 
L 27.59375 0 
Q 17.1875 0 13.234375 3.875 
Q 9.28125 7.765625 9.28125 18.015625 
L 9.28125 47.703125 
L 2.6875 47.703125 
L 2.6875 54.6875 
L 9.28125 54.6875 
L 9.28125 70.21875 
z
" id="DejaVuSans-116"/>
     </defs>
     <g transform="translate(79.620313 38.916562)scale(0.1 -0.1)">
      <use xlink:href="#DejaVuSans-80"/>
      <use x="58.552734" xlink:href="#DejaVuSans-114"/>
      <use x="97.416016" xlink:href="#DejaVuSans-101"/>
      <use x="158.939453" xlink:href="#DejaVuSans-100"/>
      <use x="222.416016" xlink:href="#DejaVuSans-105"/>
      <use x="250.199219" xlink:href="#DejaVuSans-99"/>
      <use x="305.179688" xlink:href="#DejaVuSans-116"/>
      <use x="344.388672" xlink:href="#DejaVuSans-101"/>
      <use x="405.912109" xlink:href="#DejaVuSans-100"/>
     </g>
    </g>
    <g id="line2d_29">
     <path d="M 51.620313 50.094687 
L 71.620313 50.094687 
" style="fill:none;stroke:#ff7f0e;stroke-linecap:square;stroke-width:1.5;"/>
    </g>
    <g id="line2d_30"/>
    <g id="text_17">
     <!-- True value -->
     <defs>
      <path d="M 8.5 21.578125 
L 8.5 54.6875 
L 17.484375 54.6875 
L 17.484375 21.921875 
Q 17.484375 14.15625 20.5 10.265625 
Q 23.53125 6.390625 29.59375 6.390625 
Q 36.859375 6.390625 41.078125 11.03125 
Q 45.3125 15.671875 45.3125 23.6875 
L 45.3125 54.6875 
L 54.296875 54.6875 
L 54.296875 0 
L 45.3125 0 
L 45.3125 8.40625 
Q 42.046875 3.421875 37.71875 1 
Q 33.40625 -1.421875 27.6875 -1.421875 
Q 18.265625 -1.421875 13.375 4.4375 
Q 8.5 10.296875 8.5 21.578125 
z
M 31.109375 56 
z
" id="DejaVuSans-117"/>
      <path d="M 2.984375 54.6875 
L 12.5 54.6875 
L 29.59375 8.796875 
L 46.6875 54.6875 
L 56.203125 54.6875 
L 35.6875 0 
L 23.484375 0 
z
" id="DejaVuSans-118"/>
      <path d="M 9.421875 75.984375 
L 18.40625 75.984375 
L 18.40625 0 
L 9.421875 0 
z
" id="DejaVuSans-108"/>
     </defs>
     <g transform="translate(79.620313 53.594687)scale(0.1 -0.1)">
      <use xlink:href="#DejaVuSans-84"/>
      <use x="46.333984" xlink:href="#DejaVuSans-114"/>
      <use x="87.447266" xlink:href="#DejaVuSans-117"/>
      <use x="150.826172" xlink:href="#DejaVuSans-101"/>
      <use x="212.349609" xlink:href="#DejaVuSans-32"/>
      <use x="244.136719" xlink:href="#DejaVuSans-118"/>
      <use x="303.316406" xlink:href="#DejaVuSans-97"/>
      <use x="364.595703" xlink:href="#DejaVuSans-108"/>
      <use x="392.378906" xlink:href="#DejaVuSans-117"/>
      <use x="455.757812" xlink:href="#DejaVuSans-101"/>
     </g>
    </g>
   </g>
  </g>
 </g>
 <defs>
  <clipPath id="pe57a4189c6">
   <rect height="266.112" width="357.12" x="42.620313" y="22.318125"/>
  </clipPath>
 </defs>
</svg>
