<?xml version="1.0" encoding="utf-8" standalone="no"?>
<!DOCTYPE svg PUBLIC "-//W3C//DTD SVG 1.1//EN"
  "http://www.w3.org/Graphics/SVG/1.1/DTD/svg11.dtd">
<!-- Created with matplotlib (https://matplotlib.org/) -->
<svg height="325.986375pt" version="1.1" viewBox="0 0 411.285625 325.986375" width="411.285625pt" xmlns="http://www.w3.org/2000/svg" xmlns:xlink="http://www.w3.org/1999/xlink">
 <defs>
  <style type="text/css">
*{stroke-linecap:butt;stroke-linejoin:round;}
  </style>
 </defs>
 <g id="figure_1">
  <g id="patch_1">
   <path d="M 0 325.986375 
L 411.285625 325.986375 
L 411.285625 0 
L 0 0 
z
" style="fill:#ffffff;"/>
  </g>
  <g id="axes_1">
   <g id="patch_2">
    <path d="M 46.965625 288.430125 
L 404.085625 288.430125 
L 404.085625 22.318125 
L 46.965625 22.318125 
z
" style="fill:#ffffff;"/>
   </g>
   <g id="matplotlib.axis_1">
    <g id="xtick_1">
     <g id="line2d_1">
      <path clip-path="url(#p526586e0af)" d="M 63.198352 288.430125 
L 63.198352 22.318125 
" style="fill:none;stroke:#b0b0b0;stroke-dasharray:2.96,1.28;stroke-dashoffset:0;stroke-width:0.8;"/>
     </g>
     <g id="line2d_2">
      <defs>
       <path d="M 0 0 
L 0 3.5 
" id="mfe750baf40" style="stroke:#000000;stroke-width:0.8;"/>
      </defs>
      <g>
       <use style="stroke:#000000;stroke-width:0.8;" x="63.198352" xlink:href="#mfe750baf40" y="288.430125"/>
      </g>
     </g>
     <g id="text_1">
      <!-- 0 -->
      <defs>
       <path d="M 31.78125 66.40625 
Q 24.171875 66.40625 20.328125 58.90625 
Q 16.5 51.421875 16.5 36.375 
Q 16.5 21.390625 20.328125 13.890625 
Q 24.171875 6.390625 31.78125 6.390625 
Q 39.453125 6.390625 43.28125 13.890625 
Q 47.125 21.390625 47.125 36.375 
Q 47.125 51.421875 43.28125 58.90625 
Q 39.453125 66.40625 31.78125 66.40625 
z
M 31.78125 74.21875 
Q 44.046875 74.21875 50.515625 64.515625 
Q 56.984375 54.828125 56.984375 36.375 
Q 56.984375 17.96875 50.515625 8.265625 
Q 44.046875 -1.421875 31.78125 -1.421875 
Q 19.53125 -1.421875 13.0625 8.265625 
Q 6.59375 17.96875 6.59375 36.375 
Q 6.59375 54.828125 13.0625 64.515625 
Q 19.53125 74.21875 31.78125 74.21875 
z
" id="DejaVuSans-48"/>
      </defs>
      <g transform="translate(60.017102 303.028562)scale(0.1 -0.1)">
       <use xlink:href="#DejaVuSans-48"/>
      </g>
     </g>
    </g>
    <g id="xtick_2">
     <g id="line2d_3">
      <path clip-path="url(#p526586e0af)" d="M 112.128954 288.430125 
L 112.128954 22.318125 
" style="fill:none;stroke:#b0b0b0;stroke-dasharray:2.96,1.28;stroke-dashoffset:0;stroke-width:0.8;"/>
     </g>
     <g id="line2d_4">
      <g>
       <use style="stroke:#000000;stroke-width:0.8;" x="112.128954" xlink:href="#mfe750baf40" y="288.430125"/>
      </g>
     </g>
     <g id="text_2">
      <!-- 200 -->
      <defs>
       <path d="M 19.1875 8.296875 
L 53.609375 8.296875 
L 53.609375 0 
L 7.328125 0 
L 7.328125 8.296875 
Q 12.9375 14.109375 22.625 23.890625 
Q 32.328125 33.6875 34.8125 36.53125 
Q 39.546875 41.84375 41.421875 45.53125 
Q 43.3125 49.21875 43.3125 52.78125 
Q 43.3125 58.59375 39.234375 62.25 
Q 35.15625 65.921875 28.609375 65.921875 
Q 23.96875 65.921875 18.8125 64.3125 
Q 13.671875 62.703125 7.8125 59.421875 
L 7.8125 69.390625 
Q 13.765625 71.78125 18.9375 73 
Q 24.125 74.21875 28.421875 74.21875 
Q 39.75 74.21875 46.484375 68.546875 
Q 53.21875 62.890625 53.21875 53.421875 
Q 53.21875 48.921875 51.53125 44.890625 
Q 49.859375 40.875 45.40625 35.40625 
Q 44.1875 33.984375 37.640625 27.21875 
Q 31.109375 20.453125 19.1875 8.296875 
z
" id="DejaVuSans-50"/>
      </defs>
      <g transform="translate(102.585204 303.028562)scale(0.1 -0.1)">
       <use xlink:href="#DejaVuSans-50"/>
       <use x="63.623047" xlink:href="#DejaVuSans-48"/>
       <use x="127.246094" xlink:href="#DejaVuSans-48"/>
      </g>
     </g>
    </g>
    <g id="xtick_3">
     <g id="line2d_5">
      <path clip-path="url(#p526586e0af)" d="M 161.059557 288.430125 
L 161.059557 22.318125 
" style="fill:none;stroke:#b0b0b0;stroke-dasharray:2.96,1.28;stroke-dashoffset:0;stroke-width:0.8;"/>
     </g>
     <g id="line2d_6">
      <g>
       <use style="stroke:#000000;stroke-width:0.8;" x="161.059557" xlink:href="#mfe750baf40" y="288.430125"/>
      </g>
     </g>
     <g id="text_3">
      <!-- 400 -->
      <defs>
       <path d="M 37.796875 64.3125 
L 12.890625 25.390625 
L 37.796875 25.390625 
z
M 35.203125 72.90625 
L 47.609375 72.90625 
L 47.609375 25.390625 
L 58.015625 25.390625 
L 58.015625 17.1875 
L 47.609375 17.1875 
L 47.609375 0 
L 37.796875 0 
L 37.796875 17.1875 
L 4.890625 17.1875 
L 4.890625 26.703125 
z
" id="DejaVuSans-52"/>
      </defs>
      <g transform="translate(151.515807 303.028562)scale(0.1 -0.1)">
       <use xlink:href="#DejaVuSans-52"/>
       <use x="63.623047" xlink:href="#DejaVuSans-48"/>
       <use x="127.246094" xlink:href="#DejaVuSans-48"/>
      </g>
     </g>
    </g>
    <g id="xtick_4">
     <g id="line2d_7">
      <path clip-path="url(#p526586e0af)" d="M 209.990159 288.430125 
L 209.990159 22.318125 
" style="fill:none;stroke:#b0b0b0;stroke-dasharray:2.96,1.28;stroke-dashoffset:0;stroke-width:0.8;"/>
     </g>
     <g id="line2d_8">
      <g>
       <use style="stroke:#000000;stroke-width:0.8;" x="209.990159" xlink:href="#mfe750baf40" y="288.430125"/>
      </g>
     </g>
     <g id="text_4">
      <!-- 600 -->
      <defs>
       <path d="M 33.015625 40.375 
Q 26.375 40.375 22.484375 35.828125 
Q 18.609375 31.296875 18.609375 23.390625 
Q 18.609375 15.53125 22.484375 10.953125 
Q 26.375 6.390625 33.015625 6.390625 
Q 39.65625 6.390625 43.53125 10.953125 
Q 47.40625 15.53125 47.40625 23.390625 
Q 47.40625 31.296875 43.53125 35.828125 
Q 39.65625 40.375 33.015625 40.375 
z
M 52.59375 71.296875 
L 52.59375 62.3125 
Q 48.875 64.0625 45.09375 64.984375 
Q 41.3125 65.921875 37.59375 65.921875 
Q 27.828125 65.921875 22.671875 59.328125 
Q 17.53125 52.734375 16.796875 39.40625 
Q 19.671875 43.65625 24.015625 45.921875 
Q 28.375 48.1875 33.59375 48.1875 
Q 44.578125 48.1875 50.953125 41.515625 
Q 57.328125 34.859375 57.328125 23.390625 
Q 57.328125 12.15625 50.6875 5.359375 
Q 44.046875 -1.421875 33.015625 -1.421875 
Q 20.359375 -1.421875 13.671875 8.265625 
Q 6.984375 17.96875 6.984375 36.375 
Q 6.984375 53.65625 15.1875 63.9375 
Q 23.390625 74.21875 37.203125 74.21875 
Q 40.921875 74.21875 44.703125 73.484375 
Q 48.484375 72.75 52.59375 71.296875 
z
" id="DejaVuSans-54"/>
      </defs>
      <g transform="translate(200.446409 303.028562)scale(0.1 -0.1)">
       <use xlink:href="#DejaVuSans-54"/>
       <use x="63.623047" xlink:href="#DejaVuSans-48"/>
       <use x="127.246094" xlink:href="#DejaVuSans-48"/>
      </g>
     </g>
    </g>
    <g id="xtick_5">
     <g id="line2d_9">
      <path clip-path="url(#p526586e0af)" d="M 258.920761 288.430125 
L 258.920761 22.318125 
" style="fill:none;stroke:#b0b0b0;stroke-dasharray:2.96,1.28;stroke-dashoffset:0;stroke-width:0.8;"/>
     </g>
     <g id="line2d_10">
      <g>
       <use style="stroke:#000000;stroke-width:0.8;" x="258.920761" xlink:href="#mfe750baf40" y="288.430125"/>
      </g>
     </g>
     <g id="text_5">
      <!-- 800 -->
      <defs>
       <path d="M 31.78125 34.625 
Q 24.75 34.625 20.71875 30.859375 
Q 16.703125 27.09375 16.703125 20.515625 
Q 16.703125 13.921875 20.71875 10.15625 
Q 24.75 6.390625 31.78125 6.390625 
Q 38.8125 6.390625 42.859375 10.171875 
Q 46.921875 13.96875 46.921875 20.515625 
Q 46.921875 27.09375 42.890625 30.859375 
Q 38.875 34.625 31.78125 34.625 
z
M 21.921875 38.8125 
Q 15.578125 40.375 12.03125 44.71875 
Q 8.5 49.078125 8.5 55.328125 
Q 8.5 64.0625 14.71875 69.140625 
Q 20.953125 74.21875 31.78125 74.21875 
Q 42.671875 74.21875 48.875 69.140625 
Q 55.078125 64.0625 55.078125 55.328125 
Q 55.078125 49.078125 51.53125 44.71875 
Q 48 40.375 41.703125 38.8125 
Q 48.828125 37.15625 52.796875 32.3125 
Q 56.78125 27.484375 56.78125 20.515625 
Q 56.78125 9.90625 50.3125 4.234375 
Q 43.84375 -1.421875 31.78125 -1.421875 
Q 19.734375 -1.421875 13.25 4.234375 
Q 6.78125 9.90625 6.78125 20.515625 
Q 6.78125 27.484375 10.78125 32.3125 
Q 14.796875 37.15625 21.921875 38.8125 
z
M 18.3125 54.390625 
Q 18.3125 48.734375 21.84375 45.5625 
Q 25.390625 42.390625 31.78125 42.390625 
Q 38.140625 42.390625 41.71875 45.5625 
Q 45.3125 48.734375 45.3125 54.390625 
Q 45.3125 60.0625 41.71875 63.234375 
Q 38.140625 66.40625 31.78125 66.40625 
Q 25.390625 66.40625 21.84375 63.234375 
Q 18.3125 60.0625 18.3125 54.390625 
z
" id="DejaVuSans-56"/>
      </defs>
      <g transform="translate(249.377011 303.028562)scale(0.1 -0.1)">
       <use xlink:href="#DejaVuSans-56"/>
       <use x="63.623047" xlink:href="#DejaVuSans-48"/>
       <use x="127.246094" xlink:href="#DejaVuSans-48"/>
      </g>
     </g>
    </g>
    <g id="xtick_6">
     <g id="line2d_11">
      <path clip-path="url(#p526586e0af)" d="M 307.851363 288.430125 
L 307.851363 22.318125 
" style="fill:none;stroke:#b0b0b0;stroke-dasharray:2.96,1.28;stroke-dashoffset:0;stroke-width:0.8;"/>
     </g>
     <g id="line2d_12">
      <g>
       <use style="stroke:#000000;stroke-width:0.8;" x="307.851363" xlink:href="#mfe750baf40" y="288.430125"/>
      </g>
     </g>
     <g id="text_6">
      <!-- 1000 -->
      <defs>
       <path d="M 12.40625 8.296875 
L 28.515625 8.296875 
L 28.515625 63.921875 
L 10.984375 60.40625 
L 10.984375 69.390625 
L 28.421875 72.90625 
L 38.28125 72.90625 
L 38.28125 8.296875 
L 54.390625 8.296875 
L 54.390625 0 
L 12.40625 0 
z
" id="DejaVuSans-49"/>
      </defs>
      <g transform="translate(295.126363 303.028562)scale(0.1 -0.1)">
       <use xlink:href="#DejaVuSans-49"/>
       <use x="63.623047" xlink:href="#DejaVuSans-48"/>
       <use x="127.246094" xlink:href="#DejaVuSans-48"/>
       <use x="190.869141" xlink:href="#DejaVuSans-48"/>
      </g>
     </g>
    </g>
    <g id="xtick_7">
     <g id="line2d_13">
      <path clip-path="url(#p526586e0af)" d="M 356.781965 288.430125 
L 356.781965 22.318125 
" style="fill:none;stroke:#b0b0b0;stroke-dasharray:2.96,1.28;stroke-dashoffset:0;stroke-width:0.8;"/>
     </g>
     <g id="line2d_14">
      <g>
       <use style="stroke:#000000;stroke-width:0.8;" x="356.781965" xlink:href="#mfe750baf40" y="288.430125"/>
      </g>
     </g>
     <g id="text_7">
      <!-- 1200 -->
      <g transform="translate(344.056965 303.028562)scale(0.1 -0.1)">
       <use xlink:href="#DejaVuSans-49"/>
       <use x="63.623047" xlink:href="#DejaVuSans-50"/>
       <use x="127.246094" xlink:href="#DejaVuSans-48"/>
       <use x="190.869141" xlink:href="#DejaVuSans-48"/>
      </g>
     </g>
    </g>
    <g id="text_8">
     <!-- Day -->
     <defs>
      <path d="M 19.671875 64.796875 
L 19.671875 8.109375 
L 31.59375 8.109375 
Q 46.6875 8.109375 53.6875 14.9375 
Q 60.6875 21.78125 60.6875 36.53125 
Q 60.6875 51.171875 53.6875 57.984375 
Q 46.6875 64.796875 31.59375 64.796875 
z
M 9.8125 72.90625 
L 30.078125 72.90625 
Q 51.265625 72.90625 61.171875 64.09375 
Q 71.09375 55.28125 71.09375 36.53125 
Q 71.09375 17.671875 61.125 8.828125 
Q 51.171875 0 30.078125 0 
L 9.8125 0 
z
" id="DejaVuSans-68"/>
      <path d="M 34.28125 27.484375 
Q 23.390625 27.484375 19.1875 25 
Q 14.984375 22.515625 14.984375 16.5 
Q 14.984375 11.71875 18.140625 8.90625 
Q 21.296875 6.109375 26.703125 6.109375 
Q 34.1875 6.109375 38.703125 11.40625 
Q 43.21875 16.703125 43.21875 25.484375 
L 43.21875 27.484375 
z
M 52.203125 31.203125 
L 52.203125 0 
L 43.21875 0 
L 43.21875 8.296875 
Q 40.140625 3.328125 35.546875 0.953125 
Q 30.953125 -1.421875 24.3125 -1.421875 
Q 15.921875 -1.421875 10.953125 3.296875 
Q 6 8.015625 6 15.921875 
Q 6 25.140625 12.171875 29.828125 
Q 18.359375 34.515625 30.609375 34.515625 
L 43.21875 34.515625 
L 43.21875 35.40625 
Q 43.21875 41.609375 39.140625 45 
Q 35.0625 48.390625 27.6875 48.390625 
Q 23 48.390625 18.546875 47.265625 
Q 14.109375 46.140625 10.015625 43.890625 
L 10.015625 52.203125 
Q 14.9375 54.109375 19.578125 55.046875 
Q 24.21875 56 28.609375 56 
Q 40.484375 56 46.34375 49.84375 
Q 52.203125 43.703125 52.203125 31.203125 
z
" id="DejaVuSans-97"/>
      <path d="M 32.171875 -5.078125 
Q 28.375 -14.84375 24.75 -17.8125 
Q 21.140625 -20.796875 15.09375 -20.796875 
L 7.90625 -20.796875 
L 7.90625 -13.28125 
L 13.1875 -13.28125 
Q 16.890625 -13.28125 18.9375 -11.515625 
Q 21 -9.765625 23.484375 -3.21875 
L 25.09375 0.875 
L 2.984375 54.6875 
L 12.5 54.6875 
L 29.59375 11.921875 
L 46.6875 54.6875 
L 56.203125 54.6875 
z
" id="DejaVuSans-121"/>
     </defs>
     <g transform="translate(215.652188 316.706687)scale(0.1 -0.1)">
      <use xlink:href="#DejaVuSans-68"/>
      <use x="77.001953" xlink:href="#DejaVuSans-97"/>
      <use x="138.28125" xlink:href="#DejaVuSans-121"/>
     </g>
    </g>
   </g>
   <g id="matplotlib.axis_2">
    <g id="ytick_1">
     <g id="line2d_15">
      <path clip-path="url(#p526586e0af)" d="M 46.965625 286.872025 
L 404.085625 286.872025 
" style="fill:none;stroke:#b0b0b0;stroke-dasharray:2.96,1.28;stroke-dashoffset:0;stroke-width:0.8;"/>
     </g>
     <g id="line2d_16">
      <defs>
       <path d="M 0 0 
L -3.5 0 
" id="m7dde415c7d" style="stroke:#000000;stroke-width:0.8;"/>
      </defs>
      <g>
       <use style="stroke:#000000;stroke-width:0.8;" x="46.965625" xlink:href="#m7dde415c7d" y="286.872025"/>
      </g>
     </g>
     <g id="text_9">
      <!-- 75 -->
      <defs>
       <path d="M 8.203125 72.90625 
L 55.078125 72.90625 
L 55.078125 68.703125 
L 28.609375 0 
L 18.3125 0 
L 43.21875 64.59375 
L 8.203125 64.59375 
z
" id="DejaVuSans-55"/>
       <path d="M 10.796875 72.90625 
L 49.515625 72.90625 
L 49.515625 64.59375 
L 19.828125 64.59375 
L 19.828125 46.734375 
Q 21.96875 47.46875 24.109375 47.828125 
Q 26.265625 48.1875 28.421875 48.1875 
Q 40.625 48.1875 47.75 41.5 
Q 54.890625 34.8125 54.890625 23.390625 
Q 54.890625 11.625 47.5625 5.09375 
Q 40.234375 -1.421875 26.90625 -1.421875 
Q 22.3125 -1.421875 17.546875 -0.640625 
Q 12.796875 0.140625 7.71875 1.703125 
L 7.71875 11.625 
Q 12.109375 9.234375 16.796875 8.0625 
Q 21.484375 6.890625 26.703125 6.890625 
Q 35.15625 6.890625 40.078125 11.328125 
Q 45.015625 15.765625 45.015625 23.390625 
Q 45.015625 31 40.078125 35.4375 
Q 35.15625 39.890625 26.703125 39.890625 
Q 22.75 39.890625 18.8125 39.015625 
Q 14.890625 38.140625 10.796875 36.28125 
z
" id="DejaVuSans-53"/>
      </defs>
      <g transform="translate(27.240625 290.671244)scale(0.1 -0.1)">
       <use xlink:href="#DejaVuSans-55"/>
       <use x="63.623047" xlink:href="#DejaVuSans-53"/>
      </g>
     </g>
    </g>
    <g id="ytick_2">
     <g id="line2d_17">
      <path clip-path="url(#p526586e0af)" d="M 46.965625 254.967023 
L 404.085625 254.967023 
" style="fill:none;stroke:#b0b0b0;stroke-dasharray:2.96,1.28;stroke-dashoffset:0;stroke-width:0.8;"/>
     </g>
     <g id="line2d_18">
      <g>
       <use style="stroke:#000000;stroke-width:0.8;" x="46.965625" xlink:href="#m7dde415c7d" y="254.967023"/>
      </g>
     </g>
     <g id="text_10">
      <!-- 100 -->
      <g transform="translate(20.878125 258.766242)scale(0.1 -0.1)">
       <use xlink:href="#DejaVuSans-49"/>
       <use x="63.623047" xlink:href="#DejaVuSans-48"/>
       <use x="127.246094" xlink:href="#DejaVuSans-48"/>
      </g>
     </g>
    </g>
    <g id="ytick_3">
     <g id="line2d_19">
      <path clip-path="url(#p526586e0af)" d="M 46.965625 223.062021 
L 404.085625 223.062021 
" style="fill:none;stroke:#b0b0b0;stroke-dasharray:2.96,1.28;stroke-dashoffset:0;stroke-width:0.8;"/>
     </g>
     <g id="line2d_20">
      <g>
       <use style="stroke:#000000;stroke-width:0.8;" x="46.965625" xlink:href="#m7dde415c7d" y="223.062021"/>
      </g>
     </g>
     <g id="text_11">
      <!-- 125 -->
      <g transform="translate(20.878125 226.86124)scale(0.1 -0.1)">
       <use xlink:href="#DejaVuSans-49"/>
       <use x="63.623047" xlink:href="#DejaVuSans-50"/>
       <use x="127.246094" xlink:href="#DejaVuSans-53"/>
      </g>
     </g>
    </g>
    <g id="ytick_4">
     <g id="line2d_21">
      <path clip-path="url(#p526586e0af)" d="M 46.965625 191.157019 
L 404.085625 191.157019 
" style="fill:none;stroke:#b0b0b0;stroke-dasharray:2.96,1.28;stroke-dashoffset:0;stroke-width:0.8;"/>
     </g>
     <g id="line2d_22">
      <g>
       <use style="stroke:#000000;stroke-width:0.8;" x="46.965625" xlink:href="#m7dde415c7d" y="191.157019"/>
      </g>
     </g>
     <g id="text_12">
      <!-- 150 -->
      <g transform="translate(20.878125 194.956238)scale(0.1 -0.1)">
       <use xlink:href="#DejaVuSans-49"/>
       <use x="63.623047" xlink:href="#DejaVuSans-53"/>
       <use x="127.246094" xlink:href="#DejaVuSans-48"/>
      </g>
     </g>
    </g>
    <g id="ytick_5">
     <g id="line2d_23">
      <path clip-path="url(#p526586e0af)" d="M 46.965625 159.252017 
L 404.085625 159.252017 
" style="fill:none;stroke:#b0b0b0;stroke-dasharray:2.96,1.28;stroke-dashoffset:0;stroke-width:0.8;"/>
     </g>
     <g id="line2d_24">
      <g>
       <use style="stroke:#000000;stroke-width:0.8;" x="46.965625" xlink:href="#m7dde415c7d" y="159.252017"/>
      </g>
     </g>
     <g id="text_13">
      <!-- 175 -->
      <g transform="translate(20.878125 163.051236)scale(0.1 -0.1)">
       <use xlink:href="#DejaVuSans-49"/>
       <use x="63.623047" xlink:href="#DejaVuSans-55"/>
       <use x="127.246094" xlink:href="#DejaVuSans-53"/>
      </g>
     </g>
    </g>
    <g id="ytick_6">
     <g id="line2d_25">
      <path clip-path="url(#p526586e0af)" d="M 46.965625 127.347015 
L 404.085625 127.347015 
" style="fill:none;stroke:#b0b0b0;stroke-dasharray:2.96,1.28;stroke-dashoffset:0;stroke-width:0.8;"/>
     </g>
     <g id="line2d_26">
      <g>
       <use style="stroke:#000000;stroke-width:0.8;" x="46.965625" xlink:href="#m7dde415c7d" y="127.347015"/>
      </g>
     </g>
     <g id="text_14">
      <!-- 200 -->
      <g transform="translate(20.878125 131.146234)scale(0.1 -0.1)">
       <use xlink:href="#DejaVuSans-50"/>
       <use x="63.623047" xlink:href="#DejaVuSans-48"/>
       <use x="127.246094" xlink:href="#DejaVuSans-48"/>
      </g>
     </g>
    </g>
    <g id="ytick_7">
     <g id="line2d_27">
      <path clip-path="url(#p526586e0af)" d="M 46.965625 95.442013 
L 404.085625 95.442013 
" style="fill:none;stroke:#b0b0b0;stroke-dasharray:2.96,1.28;stroke-dashoffset:0;stroke-width:0.8;"/>
     </g>
     <g id="line2d_28">
      <g>
       <use style="stroke:#000000;stroke-width:0.8;" x="46.965625" xlink:href="#m7dde415c7d" y="95.442013"/>
      </g>
     </g>
     <g id="text_15">
      <!-- 225 -->
      <g transform="translate(20.878125 99.241232)scale(0.1 -0.1)">
       <use xlink:href="#DejaVuSans-50"/>
       <use x="63.623047" xlink:href="#DejaVuSans-50"/>
       <use x="127.246094" xlink:href="#DejaVuSans-53"/>
      </g>
     </g>
    </g>
    <g id="ytick_8">
     <g id="line2d_29">
      <path clip-path="url(#p526586e0af)" d="M 46.965625 63.537011 
L 404.085625 63.537011 
" style="fill:none;stroke:#b0b0b0;stroke-dasharray:2.96,1.28;stroke-dashoffset:0;stroke-width:0.8;"/>
     </g>
     <g id="line2d_30">
      <g>
       <use style="stroke:#000000;stroke-width:0.8;" x="46.965625" xlink:href="#m7dde415c7d" y="63.537011"/>
      </g>
     </g>
     <g id="text_16">
      <!-- 250 -->
      <g transform="translate(20.878125 67.33623)scale(0.1 -0.1)">
       <use xlink:href="#DejaVuSans-50"/>
       <use x="63.623047" xlink:href="#DejaVuSans-53"/>
       <use x="127.246094" xlink:href="#DejaVuSans-48"/>
      </g>
     </g>
    </g>
    <g id="ytick_9">
     <g id="line2d_31">
      <path clip-path="url(#p526586e0af)" d="M 46.965625 31.632009 
L 404.085625 31.632009 
" style="fill:none;stroke:#b0b0b0;stroke-dasharray:2.96,1.28;stroke-dashoffset:0;stroke-width:0.8;"/>
     </g>
     <g id="line2d_32">
      <g>
       <use style="stroke:#000000;stroke-width:0.8;" x="46.965625" xlink:href="#m7dde415c7d" y="31.632009"/>
      </g>
     </g>
     <g id="text_17">
      <!-- 275 -->
      <g transform="translate(20.878125 35.431228)scale(0.1 -0.1)">
       <use xlink:href="#DejaVuSans-50"/>
       <use x="63.623047" xlink:href="#DejaVuSans-55"/>
       <use x="127.246094" xlink:href="#DejaVuSans-53"/>
      </g>
     </g>
    </g>
    <g id="text_18">
     <!-- Price $ -->
     <defs>
      <path d="M 19.671875 64.796875 
L 19.671875 37.40625 
L 32.078125 37.40625 
Q 38.96875 37.40625 42.71875 40.96875 
Q 46.484375 44.53125 46.484375 51.125 
Q 46.484375 57.671875 42.71875 61.234375 
Q 38.96875 64.796875 32.078125 64.796875 
z
M 9.8125 72.90625 
L 32.078125 72.90625 
Q 44.34375 72.90625 50.609375 67.359375 
Q 56.890625 61.8125 56.890625 51.125 
Q 56.890625 40.328125 50.609375 34.8125 
Q 44.34375 29.296875 32.078125 29.296875 
L 19.671875 29.296875 
L 19.671875 0 
L 9.8125 0 
z
" id="DejaVuSans-80"/>
      <path d="M 41.109375 46.296875 
Q 39.59375 47.171875 37.8125 47.578125 
Q 36.03125 48 33.890625 48 
Q 26.265625 48 22.1875 43.046875 
Q 18.109375 38.09375 18.109375 28.8125 
L 18.109375 0 
L 9.078125 0 
L 9.078125 54.6875 
L 18.109375 54.6875 
L 18.109375 46.1875 
Q 20.953125 51.171875 25.484375 53.578125 
Q 30.03125 56 36.53125 56 
Q 37.453125 56 38.578125 55.875 
Q 39.703125 55.765625 41.0625 55.515625 
z
" id="DejaVuSans-114"/>
      <path d="M 9.421875 54.6875 
L 18.40625 54.6875 
L 18.40625 0 
L 9.421875 0 
z
M 9.421875 75.984375 
L 18.40625 75.984375 
L 18.40625 64.59375 
L 9.421875 64.59375 
z
" id="DejaVuSans-105"/>
      <path d="M 48.78125 52.59375 
L 48.78125 44.1875 
Q 44.96875 46.296875 41.140625 47.34375 
Q 37.3125 48.390625 33.40625 48.390625 
Q 24.65625 48.390625 19.8125 42.84375 
Q 14.984375 37.3125 14.984375 27.296875 
Q 14.984375 17.28125 19.8125 11.734375 
Q 24.65625 6.203125 33.40625 6.203125 
Q 37.3125 6.203125 41.140625 7.25 
Q 44.96875 8.296875 48.78125 10.40625 
L 48.78125 2.09375 
Q 45.015625 0.34375 40.984375 -0.53125 
Q 36.96875 -1.421875 32.421875 -1.421875 
Q 20.0625 -1.421875 12.78125 6.34375 
Q 5.515625 14.109375 5.515625 27.296875 
Q 5.515625 40.671875 12.859375 48.328125 
Q 20.21875 56 33.015625 56 
Q 37.15625 56 41.109375 55.140625 
Q 45.0625 54.296875 48.78125 52.59375 
z
" id="DejaVuSans-99"/>
      <path d="M 56.203125 29.59375 
L 56.203125 25.203125 
L 14.890625 25.203125 
Q 15.484375 15.921875 20.484375 11.0625 
Q 25.484375 6.203125 34.421875 6.203125 
Q 39.59375 6.203125 44.453125 7.46875 
Q 49.3125 8.734375 54.109375 11.28125 
L 54.109375 2.78125 
Q 49.265625 0.734375 44.1875 -0.34375 
Q 39.109375 -1.421875 33.890625 -1.421875 
Q 20.796875 -1.421875 13.15625 6.1875 
Q 5.515625 13.8125 5.515625 26.8125 
Q 5.515625 40.234375 12.765625 48.109375 
Q 20.015625 56 32.328125 56 
Q 43.359375 56 49.78125 48.890625 
Q 56.203125 41.796875 56.203125 29.59375 
z
M 47.21875 32.234375 
Q 47.125 39.59375 43.09375 43.984375 
Q 39.0625 48.390625 32.421875 48.390625 
Q 24.90625 48.390625 20.390625 44.140625 
Q 15.875 39.890625 15.1875 32.171875 
z
" id="DejaVuSans-101"/>
      <path id="DejaVuSans-32"/>
      <path d="M 33.796875 -14.703125 
L 28.90625 -14.703125 
L 28.859375 0 
Q 23.734375 0.09375 18.609375 1.1875 
Q 13.484375 2.296875 8.296875 4.5 
L 8.296875 13.28125 
Q 13.28125 10.15625 18.375 8.5625 
Q 23.484375 6.984375 28.90625 6.9375 
L 28.90625 29.203125 
Q 18.109375 30.953125 13.203125 35.15625 
Q 8.296875 39.359375 8.296875 46.6875 
Q 8.296875 54.640625 13.625 59.21875 
Q 18.953125 63.8125 28.90625 64.5 
L 28.90625 75.984375 
L 33.796875 75.984375 
L 33.796875 64.65625 
Q 38.328125 64.453125 42.578125 63.6875 
Q 46.828125 62.9375 50.875 61.625 
L 50.875 53.078125 
Q 46.828125 55.125 42.546875 56.25 
Q 38.28125 57.375 33.796875 57.5625 
L 33.796875 36.71875 
Q 44.875 35.015625 50.09375 30.609375 
Q 55.328125 26.21875 55.328125 18.609375 
Q 55.328125 10.359375 49.78125 5.59375 
Q 44.234375 0.828125 33.796875 0.09375 
z
M 28.90625 37.59375 
L 28.90625 57.625 
Q 23.25 56.984375 20.265625 54.390625 
Q 17.28125 51.8125 17.28125 47.515625 
Q 17.28125 43.3125 20.03125 40.96875 
Q 22.796875 38.625 28.90625 37.59375 
z
M 33.796875 28.21875 
L 33.796875 7.078125 
Q 39.984375 7.90625 43.140625 10.59375 
Q 46.296875 13.28125 46.296875 17.671875 
Q 46.296875 21.96875 43.28125 24.5 
Q 40.28125 27.046875 33.796875 28.21875 
z
" id="DejaVuSans-36"/>
     </defs>
     <g transform="translate(14.798438 172.342094)rotate(-90)scale(0.1 -0.1)">
      <use xlink:href="#DejaVuSans-80"/>
      <use x="58.552734" xlink:href="#DejaVuSans-114"/>
      <use x="99.666016" xlink:href="#DejaVuSans-105"/>
      <use x="127.449219" xlink:href="#DejaVuSans-99"/>
      <use x="182.429688" xlink:href="#DejaVuSans-101"/>
      <use x="243.953125" xlink:href="#DejaVuSans-32"/>
      <use x="275.740234" xlink:href="#DejaVuSans-36"/>
     </g>
    </g>
   </g>
   <g id="line2d_33">
    <path clip-path="url(#p526586e0af)" d="M 63.198352 224.612103 
L 63.443005 228.162917 
L 63.687658 227.802302 
L 63.932311 224.803759 
L 64.176964 224.601383 
L 64.421617 223.183905 
L 64.66627 217.715986 
L 64.910923 217.177901 
L 65.155576 216.339693 
L 65.400229 216.941203 
L 65.644882 216.415367 
L 65.889535 218.853673 
L 66.134188 216.58751 
L 66.378841 218.147124 
L 66.623494 212.512184 
L 66.868147 212.944042 
L 67.357453 224.425958 
L 67.602106 226.29472 
L 67.846759 235.599155 
L 68.091412 233.465595 
L 68.336066 235.72945 
L 68.580719 235.525254 
L 68.825372 240.331451 
L 69.070025 239.055991 
L 69.314678 240.193697 
L 69.559331 237.441783 
L 69.803984 236.332995 
L 70.048637 238.98468 
L 70.29329 243.992123 
L 70.537943 243.651633 
L 70.782596 241.885457 
L 71.027249 242.979737 
L 71.271902 240.684501 
L 71.516555 234.982553 
L 72.005861 240.484851 
L 72.250514 237.480194 
L 72.73982 239.50482 
L 72.984473 238.802653 
L 73.229126 237.371387 
L 73.473779 236.707602 
L 73.718432 236.785787 
L 73.963085 235.120375 
L 74.207738 239.481706 
L 74.452391 239.302756 
L 74.941697 239.22053 
L 75.18635 238.386636 
L 75.431003 239.676847 
L 75.675656 246.862298 
L 75.920309 245.066035 
L 76.654268 237.278101 
L 76.898921 236.770764 
L 77.143574 236.942197 
L 77.388227 238.436137 
L 77.63288 238.88041 
L 77.877533 238.474383 
L 78.122186 237.028677 
L 78.366839 239.271579 
L 78.611492 239.42498 
L 78.856145 240.179666 
L 79.100798 248.193189 
L 79.345451 247.673837 
L 79.834757 252.12489 
L 80.07941 247.947241 
L 80.324063 251.867979 
L 80.568716 252.387069 
L 80.813369 251.229393 
L 81.058022 250.826997 
L 81.302675 259.923457 
L 81.547328 264.09983 
L 81.791981 263.048615 
L 82.036634 264.708555 
L 82.281287 265.520415 
L 82.52594 263.719985 
L 82.770593 264.158815 
L 83.015246 259.94367 
L 83.504552 261.912836 
L 83.749205 261.528794 
L 83.993858 256.741048 
L 84.238511 262.390671 
L 84.483164 262.885769 
L 84.727817 266.938176 
L 84.97247 269.040744 
L 85.461776 267.433323 
L 86.195735 259.092046 
L 86.440388 261.526224 
L 86.685041 259.916855 
L 86.929694 260.354235 
L 87.174347 258.311966 
L 87.419 254.046736 
L 87.663653 254.409825 
L 87.908306 256.528565 
L 88.152959 259.842653 
L 88.397612 256.246252 
L 88.642265 255.359118 
L 88.886918 253.340538 
L 89.131571 252.256812 
L 89.620877 248.502385 
L 90.110183 252.020445 
L 90.354836 251.85242 
L 91.088796 238.432807 
L 91.333449 237.978038 
L 92.067408 244.359506 
L 92.312061 244.513355 
L 92.556714 244.973498 
L 92.801367 245.746392 
L 93.290673 246.246563 
L 93.535326 240.628895 
L 93.779979 242.78997 
L 94.024632 246.451987 
L 94.269285 247.083505 
L 94.513938 245.467379 
L 94.758591 249.351001 
L 95.003244 259.603793 
L 95.247897 256.838901 
L 95.49255 259.912795 
L 95.981856 258.469222 
L 96.226509 259.601213 
L 96.471162 259.371555 
L 97.205121 265.540988 
L 97.449774 269.634698 
L 97.93908 268.69853 
L 98.183733 270.07604 
L 98.428386 268.157495 
L 98.673039 268.375157 
L 98.917692 267.779382 
L 99.162345 264.904826 
L 99.406998 267.770259 
L 99.651651 267.51328 
L 99.896304 268.486252 
L 100.140957 268.475688 
L 100.38561 269.239439 
L 100.630263 270.559347 
L 100.874916 272.512078 
L 101.119569 270.656061 
L 101.364222 271.118882 
L 101.608875 274.539469 
L 102.098181 271.512359 
L 102.342834 272.104512 
L 102.587487 274.007157 
L 102.83214 271.585082 
L 103.076793 274.548933 
L 103.566099 270.570554 
L 104.300058 270.902466 
L 104.789364 273.742408 
L 105.034017 276.334125 
L 105.27867 275.499978 
L 105.523323 272.894961 
L 105.767976 266.847051 
L 106.012629 268.078453 
L 106.257282 267.60238 
L 106.501935 269.57252 
L 106.746588 267.595506 
L 106.991241 269.791769 
L 107.235894 270.442614 
L 107.480547 271.952552 
L 107.7252 271.381177 
L 107.969853 271.112446 
L 108.214506 269.225535 
L 108.459159 264.755515 
L 108.703812 274.123335 
L 108.948465 271.014408 
L 109.193118 272.972708 
L 109.437771 272.190476 
L 109.682424 272.730801 
L 110.17173 270.934762 
L 110.661036 262.20957 
L 110.905689 260.651592 
L 111.150342 260.379784 
L 111.639648 263.233786 
L 111.884301 263.497522 
L 112.373607 261.17514 
L 112.61826 255.162155 
L 112.862913 256.740503 
L 113.35222 261.59921 
L 113.596873 258.620695 
L 113.841526 257.712793 
L 114.086179 258.864656 
L 114.330832 256.400558 
L 114.820138 259.171477 
L 115.064791 261.285193 
L 115.309444 261.479322 
L 115.554097 254.108398 
L 115.79875 251.758929 
L 116.043403 251.433891 
L 116.288056 255.259035 
L 116.532709 256.887886 
L 116.777362 254.72686 
L 117.266668 258.698209 
L 117.511321 258.831581 
L 118.000627 263.692897 
L 118.24528 263.786311 
L 118.489933 267.62159 
L 118.979239 261.912048 
L 119.223892 261.656325 
L 119.468545 261.071718 
L 119.957851 264.801355 
L 120.202504 265.518322 
L 120.447157 264.208394 
L 120.69181 264.991891 
L 121.181116 261.327187 
L 121.425769 257.387852 
L 121.670422 258.024502 
L 122.159728 247.246895 
L 122.649034 240.573835 
L 122.893687 240.27639 
L 123.13834 240.548247 
L 123.382993 241.844348 
L 123.627646 237.308995 
L 123.872299 220.23903 
L 124.361605 217.229447 
L 124.606258 213.294795 
L 124.850911 213.915486 
L 125.340217 205.291827 
L 125.58487 212.265944 
L 125.829523 210.874112 
L 126.074176 212.888933 
L 126.563482 206.412202 
L 126.808135 209.44937 
L 127.052788 204.424157 
L 127.786747 211.650238 
L 128.0314 210.283293 
L 128.276053 210.357915 
L 128.520706 209.09517 
L 128.765359 204.313432 
L 129.010012 205.554327 
L 129.254665 206.112625 
L 129.499318 210.071307 
L 129.743971 206.048928 
L 129.988624 205.840214 
L 130.233277 208.971126 
L 130.47793 208.185185 
L 130.967236 211.540292 
L 131.211889 209.836362 
L 131.456542 207.282326 
L 131.701195 203.286334 
L 131.945848 195.316139 
L 132.435154 199.758946 
L 132.679807 199.91923 
L 133.169113 197.42118 
L 133.413766 193.292653 
L 133.658419 194.804362 
L 134.147725 189.950183 
L 134.392378 190.412829 
L 134.637031 186.461878 
L 134.881684 185.49098 
L 135.126337 186.608512 
L 135.37099 180.557505 
L 135.615643 179.674101 
L 135.860297 182.613727 
L 136.10495 180.389704 
L 136.349603 181.41949 
L 136.594256 191.73631 
L 136.838909 194.327345 
L 137.083562 186.693396 
L 137.328215 185.379963 
L 137.572868 187.8186 
L 137.817521 188.443264 
L 138.062174 190.117303 
L 138.306827 184.111201 
L 138.55148 170.701442 
L 138.796133 177.207402 
L 139.040786 179.789772 
L 139.285439 183.728279 
L 139.530092 177.010703 
L 139.774745 177.323989 
L 140.019398 185.246727 
L 140.508704 174.047592 
L 140.753357 177.132683 
L 140.99801 177.599847 
L 141.242663 183.987644 
L 141.487316 185.411626 
L 141.731969 191.436285 
L 141.976622 192.472224 
L 142.221275 188.313805 
L 142.710581 190.960456 
L 142.955234 187.719209 
L 143.44454 175.100375 
L 143.689193 176.634869 
L 143.933846 175.19373 
L 144.178499 180.140446 
L 144.423152 180.063897 
L 144.912458 178.292355 
L 145.401764 173.444602 
L 145.646417 172.076371 
L 145.89107 169.475327 
L 146.380376 172.599735 
L 146.625029 168.473077 
L 146.869682 167.003235 
L 147.114335 163.95152 
L 147.358988 156.753753 
L 147.603641 161.689739 
L 147.848294 163.565385 
L 148.092947 164.237232 
L 148.3376 165.754433 
L 148.582253 165.989593 
L 148.826906 164.802872 
L 149.071559 165.848372 
L 149.316212 159.628396 
L 150.050171 167.975282 
L 150.294824 163.319691 
L 150.539477 161.001067 
L 150.78413 154.174285 
L 151.028783 154.620456 
L 151.273436 157.888051 
L 151.518089 156.608209 
L 151.762742 154.392307 
L 152.007395 154.992318 
L 152.252048 158.505996 
L 152.496701 156.896433 
L 152.741354 160.421484 
L 152.986007 160.068103 
L 153.23066 165.517327 
L 153.475313 158.136413 
L 153.719966 167.014685 
L 153.964619 161.429888 
L 154.453925 177.015474 
L 154.698578 179.103125 
L 154.943231 174.116021 
L 155.187884 178.506698 
L 155.432537 178.252844 
L 155.67719 180.893536 
L 155.921843 192.920655 
L 156.411149 182.185704 
L 156.655802 186.169701 
L 156.900455 178.116609 
L 157.145108 174.843425 
L 157.389761 168.904916 
L 157.634414 170.272154 
L 157.879067 165.128037 
L 158.12372 165.170391 
L 158.368374 166.290494 
L 158.613027 160.134624 
L 158.85768 162.742931 
L 159.102333 164.01327 
L 159.346986 164.064037 
L 159.591639 160.240811 
L 159.836292 162.561129 
L 160.080945 159.338946 
L 160.325598 158.877527 
L 160.570251 164.776311 
L 161.059557 160.025203 
L 161.548863 149.260011 
L 162.282822 165.314396 
L 162.527475 169.358702 
L 163.016781 183.38701 
L 163.261434 173.40402 
L 163.506087 173.94968 
L 163.75074 181.018885 
L 163.995393 182.437474 
L 164.240046 179.386928 
L 164.729352 188.976169 
L 164.974005 191.892174 
L 165.218658 188.026341 
L 165.463311 186.769458 
L 165.707964 180.491549 
L 165.952617 180.726339 
L 166.19727 181.689039 
L 166.686576 195.747316 
L 166.931229 194.612823 
L 167.175882 187.153121 
L 167.420535 185.502041 
L 167.665188 190.785898 
L 168.154494 182.324334 
L 168.399147 180.946367 
L 168.6438 181.316437 
L 168.888453 184.784568 
L 169.133106 177.920766 
L 169.377759 176.005356 
L 169.622412 178.536453 
L 169.867065 177.188007 
L 170.111718 179.838319 
L 170.356371 188.246623 
L 170.601024 184.805988 
L 170.845677 184.770216 
L 171.09033 180.47229 
L 171.334983 179.543532 
L 171.824289 182.174819 
L 172.068942 185.202074 
L 172.313595 186.716433 
L 172.802901 181.862954 
L 173.047554 185.605794 
L 173.292207 182.315357 
L 173.53686 183.371412 
L 173.781513 182.35187 
L 174.026166 176.816009 
L 174.515472 173.05946 
L 174.760125 167.135964 
L 175.004778 169.912755 
L 175.249431 169.168584 
L 175.494084 171.471902 
L 175.738737 171.922669 
L 175.98339 170.701013 
L 176.228043 171.288502 
L 176.472696 170.91372 
L 176.717349 173.262488 
L 176.962002 168.664032 
L 177.206655 161.972764 
L 177.451308 161.508463 
L 177.695961 155.696413 
L 177.940614 156.835463 
L 178.185267 154.916236 
L 178.42992 154.444807 
L 178.674573 157.627986 
L 178.919226 155.932117 
L 179.163879 157.109023 
L 179.408532 159.134379 
L 179.653185 157.878684 
L 179.897838 155.964073 
L 180.142491 150.587718 
L 180.631798 147.786099 
L 181.121104 143.370886 
L 181.365757 137.80934 
L 181.61041 139.330144 
L 181.855063 138.683242 
L 182.099716 141.618136 
L 182.344369 147.772857 
L 182.589022 144.247222 
L 182.833675 148.386226 
L 183.078328 143.096936 
L 183.322981 140.9259 
L 183.567634 140.731284 
L 183.812287 143.509711 
L 184.05694 143.748005 
L 184.546246 125.256229 
L 184.790899 126.049589 
L 185.280205 118.475617 
L 185.524858 93.832372 
L 185.769511 97.234391 
L 186.014164 103.245068 
L 186.50347 108.446923 
L 186.748123 110.274509 
L 186.992776 108.411969 
L 187.237429 108.348155 
L 187.482082 109.724467 
L 187.726735 108.895101 
L 188.216041 103.133817 
L 188.460694 104.701396 
L 188.705347 100.608135 
L 188.95 105.350557 
L 189.194653 102.205118 
L 189.439306 104.124306 
L 189.683959 104.97262 
L 189.928612 103.765277 
L 190.173265 105.795268 
L 190.417918 106.021119 
L 190.662571 105.187897 
L 191.39653 109.223439 
L 191.641183 108.331661 
L 191.885836 95.16006 
L 192.130489 93.379054 
L 192.375142 95.49387 
L 192.619795 93.56886 
L 193.109101 99.022173 
L 193.353754 102.204943 
L 193.598407 102.884209 
L 193.84306 106.736372 
L 194.087713 112.602869 
L 194.821672 92.240043 
L 195.066325 96.224507 
L 195.310978 108.083903 
L 195.555631 103.474639 
L 195.800284 101.461317 
L 196.044937 104.118269 
L 196.28959 102.41356 
L 196.534243 107.902918 
L 196.778896 107.561805 
L 197.023549 103.964956 
L 197.268202 106.345115 
L 197.512855 103.00469 
L 197.757508 105.486656 
L 198.002161 106.313374 
L 198.73612 128.437168 
L 199.470079 116.810322 
L 200.204038 98.401093 
L 200.693344 107.108643 
L 201.18265 96.605872 
L 201.427303 95.359427 
L 201.916609 83.219402 
L 202.161262 76.695332 
L 202.405915 80.429623 
L 202.650568 76.734823 
L 202.895221 78.123229 
L 203.139875 76.371861 
L 203.384528 77.946645 
L 203.629181 75.928046 
L 203.873834 64.019812 
L 204.118487 64.307529 
L 204.36314 65.83435 
L 204.607793 69.317495 
L 204.852446 62.827911 
L 205.097099 71.303612 
L 205.341752 72.100789 
L 205.586405 75.321979 
L 205.831058 76.069617 
L 206.075711 71.234443 
L 206.320364 75.450133 
L 206.80967 71.352841 
L 207.298976 79.637937 
L 207.543629 85.095145 
L 207.788282 86.867622 
L 208.032935 86.730277 
L 208.277588 86.898565 
L 208.522241 93.17809 
L 208.766894 92.695484 
L 209.011547 95.918874 
L 209.2562 94.175238 
L 209.500853 94.256656 
L 209.745506 97.241986 
L 209.990159 98.503931 
L 210.234812 87.318194 
L 210.724118 80.365108 
L 210.968771 85.74119 
L 211.213424 87.04033 
L 211.458077 85.966769 
L 211.70273 84.267415 
L 211.947383 91.273176 
L 212.436689 97.104874 
L 212.681342 102.426451 
L 213.170648 94.670794 
L 213.415301 93.441368 
L 213.659954 92.85532 
L 214.14926 103.22466 
L 214.638566 105.235431 
L 214.883219 103.524646 
L 215.127872 97.224479 
L 215.372525 97.399076 
L 215.617178 90.306503 
L 215.861831 89.524515 
L 216.106484 89.535849 
L 216.840443 104.503918 
L 217.085096 104.509545 
L 217.329749 101.8812 
L 217.574402 101.239692 
L 218.063708 110.612331 
L 218.308361 107.158046 
L 219.286973 111.3647 
L 219.531626 117.503298 
L 219.776279 110.800579 
L 220.020932 116.408939 
L 220.265585 114.969572 
L 220.510238 119.874772 
L 220.754891 120.4889 
L 220.999544 119.417968 
L 221.244197 121.735267 
L 221.48885 121.92704 
L 221.733503 118.208444 
L 221.978156 121.86159 
L 222.712115 114.065312 
L 222.956768 111.637755 
L 223.201421 110.665805 
L 223.446074 111.735744 
L 223.690727 119.869397 
L 223.93538 122.764683 
L 224.180033 124.213572 
L 224.424686 119.019564 
L 224.669339 122.722854 
L 224.913992 113.684531 
L 225.158645 112.168615 
L 225.403298 109.946696 
L 225.647952 111.95587 
L 225.892605 110.933815 
L 226.137258 116.335525 
L 226.626564 119.350279 
L 226.871217 118.349353 
L 227.11587 115.502205 
L 227.360523 116.251634 
L 227.605176 114.634749 
L 228.094482 119.382468 
L 228.339135 119.47407 
L 228.583788 108.282121 
L 228.828441 103.039839 
L 229.073094 110.050391 
L 229.317747 108.113093 
L 229.807053 114.904415 
L 230.051706 117.950774 
L 230.296359 117.181346 
L 230.541012 108.64559 
L 230.785665 107.337512 
L 231.274971 110.233596 
L 231.519624 106.015199 
L 231.764277 104.300773 
L 232.253583 111.795839 
L 232.498236 127.531096 
L 232.742889 125.229064 
L 232.987542 128.034421 
L 233.232195 138.2175 
L 233.476848 138.072735 
L 233.721501 133.37442 
L 233.966154 138.598124 
L 234.210807 139.28775 
L 234.700113 141.891657 
L 235.189419 134.917774 
L 235.434072 136.527707 
L 236.168031 124.530071 
L 236.412684 129.350425 
L 236.657337 124.150303 
L 236.90199 128.601366 
L 237.146643 127.601083 
L 237.391296 128.79419 
L 237.635949 122.595577 
L 238.125255 120.079144 
L 238.369908 122.170047 
L 238.614561 121.69636 
L 238.859214 125.352699 
L 239.103867 124.239315 
L 239.34852 118.775408 
L 239.593173 117.254312 
L 239.837826 118.438462 
L 240.082479 117.817732 
L 240.327132 118.081654 
L 240.571785 111.87603 
L 240.816438 113.783047 
L 241.061091 112.373455 
L 241.305744 112.359025 
L 241.550397 112.006715 
L 242.039703 118.576275 
L 242.284356 128.02597 
L 242.529009 125.15859 
L 243.018315 131.36657 
L 243.262968 138.210762 
L 243.507621 149.896728 
L 243.752274 149.533493 
L 243.996927 145.999718 
L 244.24158 136.937054 
L 244.730886 139.143823 
L 244.975539 143.104842 
L 245.220192 139.53251 
L 245.954151 120.99205 
L 246.198804 120.296991 
L 246.443457 117.862657 
L 246.68811 123.308863 
L 247.422069 170.61241 
L 247.666722 159.786695 
L 247.911375 161.581994 
L 248.156029 167.285013 
L 248.400682 167.014062 
L 248.645335 159.907293 
L 248.889988 159.82348 
L 249.134641 159.535976 
L 249.623947 164.076286 
L 249.8686 171.202586 
L 250.113253 171.351031 
L 250.357906 175.229561 
L 250.847212 172.234767 
L 251.091865 174.962972 
L 251.336518 180.753192 
L 252.070477 206.304476 
L 252.804436 186.085012 
L 253.293742 199.461998 
L 253.538395 197.912744 
L 253.783048 194.235295 
L 254.027701 195.88729 
L 254.272354 193.266753 
L 254.517007 195.018004 
L 255.006313 197.093776 
L 255.250966 196.169185 
L 255.495619 198.793403 
L 255.740272 198.724721 
L 255.984925 194.829522 
L 256.229578 197.513951 
L 256.963537 212.2247 
L 257.20819 212.189531 
L 257.452843 209.66379 
L 257.697496 214.371608 
L 257.942149 206.399934 
L 258.186802 208.814463 
L 258.431455 206.943998 
L 258.676108 194.033922 
L 258.920761 190.384865 
L 259.165414 193.71162 
L 259.410067 198.737651 
L 259.65472 201.281561 
L 259.899373 202.531511 
L 260.144026 195.630029 
L 260.388679 195.175932 
L 260.633332 196.569965 
L 260.877985 196.005999 
L 261.122638 187.326335 
L 261.367291 186.152837 
L 261.856597 190.945929 
L 262.590556 174.062664 
L 263.079862 159.120086 
L 263.324515 159.735597 
L 263.569168 150.552121 
L 263.813821 130.533913 
L 264.058474 132.427279 
L 264.303127 132.846889 
L 264.792433 130.922755 
L 265.037086 130.130251 
L 265.281739 130.958975 
L 265.526392 129.140055 
L 265.771045 130.924235 
L 266.015698 128.284497 
L 266.260351 131.603385 
L 266.505004 129.019671 
L 266.99431 118.904399 
L 267.238963 119.273437 
L 267.483616 121.027141 
L 267.728269 120.339969 
L 267.972922 121.813102 
L 268.217575 118.194482 
L 268.462228 110.65747 
L 268.706881 107.742789 
L 269.196187 115.275361 
L 269.44084 117.642746 
L 269.685493 113.425868 
L 269.930146 118.356753 
L 270.174799 126.76714 
L 270.419452 128.969664 
L 270.664106 132.585383 
L 270.908759 133.38106 
L 271.153412 131.957253 
L 271.398065 125.020661 
L 271.887371 133.579123 
L 272.132024 131.603404 
L 272.376677 131.561945 
L 272.62133 133.388791 
L 272.865983 134.305846 
L 273.110636 136.304932 
L 273.355289 135.105632 
L 273.599942 136.632921 
L 273.844595 141.223705 
L 274.089248 143.221311 
L 274.333901 149.834531 
L 274.578554 147.206652 
L 274.823207 157.170656 
L 275.06786 162.559143 
L 275.312513 164.036989 
L 275.557166 162.844251 
L 275.801819 170.140592 
L 276.046472 165.682967 
L 276.291125 172.312972 
L 276.535778 168.68146 
L 276.780431 173.458292 
L 277.269737 161.996599 
L 277.51439 170.448367 
L 277.759043 172.064064 
L 278.248349 179.982966 
L 278.493002 178.760006 
L 278.737655 176.475402 
L 278.982308 179.694547 
L 279.226961 186.932255 
L 280.205573 202.870794 
L 280.450226 199.678112 
L 280.694879 199.447315 
L 281.184185 180.331129 
L 281.428838 176.001695 
L 281.673491 174.361735 
L 281.918144 176.104047 
L 282.162797 167.576119 
L 282.40745 174.84806 
L 282.652103 172.896858 
L 282.896756 176.441382 
L 283.386062 158.189536 
L 283.630715 158.381406 
L 283.875368 156.65331 
L 284.120021 153.624593 
L 284.364674 157.571961 
L 284.609327 157.511828 
L 284.85398 157.218404 
L 285.098633 157.837849 
L 285.343286 160.908783 
L 286.077245 148.103416 
L 286.321898 147.454586 
L 286.566551 151.556143 
L 286.811204 151.528101 
L 287.30051 144.421605 
L 287.545163 143.784147 
L 287.789816 141.802995 
L 288.034469 146.056775 
L 288.279122 145.705692 
L 288.523775 144.425928 
L 288.768428 139.40494 
L 289.013081 140.293642 
L 289.257734 140.388243 
L 289.502387 139.963648 
L 289.74704 142.687199 
L 289.991693 148.599692 
L 290.236346 147.267564 
L 290.480999 147.84152 
L 290.725652 146.90172 
L 291.214958 140.11256 
L 291.459611 132.586415 
L 291.704264 130.720369 
L 291.948917 134.542933 
L 292.19357 136.04475 
L 292.438223 134.119584 
L 292.682876 136.48469 
L 292.92753 136.195162 
L 293.416836 139.978779 
L 293.661489 139.558078 
L 293.906142 145.714493 
L 294.150795 146.751581 
L 294.395448 141.455846 
L 294.640101 160.462028 
L 294.884754 164.555503 
L 295.129407 162.603483 
L 295.618713 162.397826 
L 295.863366 165.108388 
L 296.352672 174.648517 
L 296.597325 174.936741 
L 296.841978 176.196078 
L 297.331284 166.390489 
L 297.575937 165.80855 
L 297.82059 164.385813 
L 298.065243 164.142728 
L 298.309896 163.528055 
L 298.554549 157.74204 
L 298.799202 156.273795 
L 299.043855 155.527755 
L 299.288508 148.678442 
L 299.777814 158.235727 
L 300.022467 158.342129 
L 300.26712 160.142043 
L 300.511773 159.994981 
L 301.001079 169.930164 
L 301.245732 170.637978 
L 301.490385 175.476793 
L 301.979691 179.641093 
L 302.224344 173.352046 
L 302.468997 171.230686 
L 302.71365 172.189219 
L 302.958303 165.971775 
L 303.202956 173.55003 
L 303.447609 173.825597 
L 303.936915 183.609005 
L 304.181568 176.09729 
L 304.670874 170.443927 
L 304.915527 173.607477 
L 305.16018 172.155452 
L 305.649486 175.836075 
L 306.138792 172.493839 
L 306.383445 171.919845 
L 306.628098 170.548538 
L 306.872751 173.475214 
L 307.117404 170.575119 
L 307.362057 170.415341 
L 307.60671 170.97064 
L 308.096016 178.907691 
L 308.340669 176.92578 
L 308.585322 176.448957 
L 308.829975 178.254752 
L 309.074628 170.613948 
L 309.319281 168.908285 
L 309.563934 171.236411 
L 309.808587 179.630013 
L 310.05324 174.876179 
L 310.297893 175.589427 
L 310.542546 175.614723 
L 310.787199 174.387342 
L 311.031852 168.716785 
L 311.276505 171.530867 
L 311.521158 171.052915 
L 312.010464 169.78688 
L 312.255117 169.225972 
L 312.49977 163.195958 
L 312.744423 162.918697 
L 312.989076 161.372753 
L 313.478382 155.94717 
L 313.723035 162.60362 
L 313.967688 161.611126 
L 314.212341 163.566514 
L 314.701647 160.103836 
L 315.190953 157.70251 
L 315.435607 163.086089 
L 315.68026 154.511601 
L 315.924913 151.537585 
L 316.169566 142.471143 
L 316.903525 149.664393 
L 317.148178 149.480098 
L 317.392831 149.956336 
L 317.882137 144.535796 
L 318.12679 147.489345 
L 318.371443 145.850242 
L 318.616096 140.300905 
L 318.860749 130.573755 
L 319.105402 138.404949 
L 319.350055 139.886573 
L 319.594708 142.826783 
L 319.839361 137.651178 
L 320.328667 146.883844 
L 320.57332 149.215982 
L 320.817973 149.239428 
L 321.062626 149.707273 
L 321.307279 146.716607 
L 321.551932 151.82059 
L 321.796585 150.825662 
L 322.285891 158.108917 
L 322.530544 157.773451 
L 322.775197 159.209877 
L 323.01985 159.365254 
L 323.264503 157.662336 
L 323.509156 157.021276 
L 323.753809 159.369363 
L 323.998462 158.24965 
L 324.243115 154.742184 
L 324.487768 153.681222 
L 324.977074 162.224709 
L 325.46638 156.135457 
L 326.200339 167.39862 
L 326.689645 166.050154 
L 326.934298 162.005888 
L 327.178951 165.176934 
L 327.423604 166.183059 
L 327.668257 172.792676 
L 327.91291 173.718864 
L 328.157563 172.603143 
L 328.646869 169.731809 
L 328.891522 169.514137 
L 329.136175 172.318541 
L 329.380828 171.210454 
L 329.625481 173.809492 
L 329.870134 172.903654 
L 330.114787 173.901503 
L 330.35944 170.161643 
L 330.604093 169.79833 
L 330.848746 173.555347 
L 331.093399 174.267951 
L 331.338052 172.823736 
L 331.582705 172.284112 
L 331.827358 171.275767 
L 332.316664 167.299209 
L 332.561317 167.095811 
L 332.80597 166.616418 
L 333.050623 167.03852 
L 333.295276 164.898525 
L 333.539929 172.178509 
L 333.784582 173.134607 
L 334.029235 175.719508 
L 334.518541 170.742414 
L 334.763194 174.211927 
L 335.2525 172.401088 
L 335.497153 168.51031 
L 335.741806 169.592712 
L 335.986459 171.242117 
L 336.475765 157.128048 
L 336.720418 154.605559 
L 336.965071 157.792476 
L 337.209724 155.411947 
L 337.454377 155.241576 
L 337.69903 153.888028 
L 337.943684 154.18147 
L 338.43299 158.347834 
L 338.677643 158.910067 
L 338.922296 161.416588 
L 339.166949 160.371457 
L 339.411602 156.686609 
L 339.900908 160.372528 
L 340.390214 157.793197 
L 340.634867 162.621516 
L 340.87952 160.221026 
L 341.124173 159.464178 
L 341.368826 159.277897 
L 341.858132 152.401419 
L 342.102785 153.952406 
L 342.347438 150.84827 
L 342.592091 150.291023 
L 343.081397 145.801987 
L 343.32605 149.700593 
L 343.570703 144.571938 
L 343.815356 146.866123 
L 344.060009 145.685478 
L 344.304662 148.276844 
L 344.793968 150.571126 
L 345.038621 160.395098 
L 345.283274 165.084008 
L 345.77258 159.788233 
L 346.017233 163.08126 
L 346.506539 157.952021 
L 346.751192 159.591748 
L 346.995845 159.117924 
L 347.240498 159.380619 
L 347.485151 162.836578 
L 347.729804 161.198292 
L 347.974457 160.618359 
L 348.463763 162.711735 
L 348.708416 159.151204 
L 348.953069 160.062728 
L 349.442375 167.003196 
L 349.931681 169.814123 
L 350.420987 164.744004 
L 350.66564 163.655955 
L 350.910293 163.445741 
L 351.154946 163.836005 
L 351.399599 159.955606 
L 351.644252 161.514752 
L 351.888905 161.829012 
L 352.133558 160.488901 
L 352.378211 163.06463 
L 352.867517 160.030831 
L 353.11217 161.960126 
L 353.356823 161.895104 
L 353.601476 161.306369 
L 353.846129 159.689659 
L 354.090782 154.885818 
L 354.335435 154.798111 
L 354.580088 155.389767 
L 354.824741 151.579647 
L 355.069394 144.773506 
L 355.314047 144.396056 
L 355.5587 142.328306 
L 355.803353 150.718052 
L 356.048006 150.797347 
L 356.781965 156.741718 
L 357.026618 154.804985 
L 357.271271 154.880074 
L 357.515924 149.370561 
L 357.760577 148.834637 
L 358.00523 145.193915 
L 358.494536 147.6071 
L 358.739189 141.323427 
L 359.228495 149.546443 
L 359.473148 139.998564 
L 359.962454 137.018375 
L 360.207107 135.229171 
L 360.941067 139.103923 
L 361.18572 142.319057 
L 361.430373 142.413638 
L 361.675026 141.45347 
L 361.919679 142.737732 
L 362.164332 144.932973 
L 362.408985 142.554683 
L 362.653638 145.577811 
L 362.898291 152.000854 
L 363.142944 154.955085 
L 363.387597 153.409569 
L 363.63225 153.736389 
L 363.876903 159.618562 
L 364.121556 159.466788 
L 364.366209 157.378475 
L 364.610862 157.349927 
L 364.855515 153.522729 
L 365.100168 154.838323 
L 365.344821 155.35861 
L 365.589474 153.704181 
L 365.834127 156.624372 
L 366.323433 152.964138 
L 366.812739 152.939037 
L 367.057392 149.753288 
L 367.302045 149.966053 
L 367.546698 151.456887 
L 367.791351 146.84073 
L 368.280657 142.133885 
L 368.52531 141.86087 
L 368.769963 140.603754 
L 369.014616 140.0327 
L 369.259269 142.016598 
L 369.503922 139.466456 
L 369.748575 140.487966 
L 370.237881 130.567952 
L 370.482534 128.556052 
L 370.727187 123.208595 
L 370.97184 123.628556 
L 371.216493 98.063757 
L 371.461146 92.711744 
L 371.950452 98.429719 
L 372.195105 89.177755 
L 372.684411 92.465251 
L 372.929064 89.994405 
L 373.173717 90.782819 
L 373.41837 99.693378 
L 373.663023 99.435669 
L 374.152329 93.339328 
L 374.396982 97.294096 
L 374.641635 103.244445 
L 374.886288 101.67377 
L 375.130941 96.968114 
L 375.375594 95.787858 
L 375.620247 98.068217 
L 375.8649 97.623603 
L 376.109553 96.064457 
L 376.354206 100.696913 
L 376.598859 99.841823 
L 377.332818 84.876402 
L 377.577471 91.978653 
L 377.822124 88.702451 
L 378.066777 83.587895 
L 378.31143 88.973266 
L 378.556083 80.290545 
L 378.800736 78.288128 
L 379.045389 79.433293 
L 379.290042 79.668062 
L 379.534695 80.07519 
L 379.779348 78.061226 
L 380.024001 78.885899 
L 380.268654 79.113269 
L 380.513307 74.363525 
L 380.75796 75.58296 
L 381.002613 80.849973 
L 381.247266 75.979105 
L 381.736572 73.164322 
L 382.225878 64.804409 
L 382.470531 69.280184 
L 382.715184 67.339128 
L 382.959838 64.188314 
L 383.693797 48.393936 
L 383.93845 50.020538 
L 384.672409 36.424731 
L 385.406368 45.617126 
L 385.651021 45.078651 
L 385.895674 46.059364 
L 386.140327 48.84038 
L 386.38498 55.077005 
L 386.874286 83.830298 
L 387.118939 71.624687 
L 387.363592 70.742295 
L 387.852898 74.7149 
L 387.852898 74.7149 
" style="fill:none;stroke:#1f77b4;stroke-linecap:square;stroke-width:1.5;"/>
   </g>
   <g id="line2d_34">
    <path clip-path="url(#p526586e0af)" d="M 63.198352 227.796724 
L 63.443005 228.779398 
L 63.687658 225.308133 
L 63.932311 226.852336 
L 64.176964 223.266213 
L 64.421617 218.033793 
L 64.910923 215.060247 
L 65.155576 215.481393 
L 65.400229 215.328249 
L 66.134188 216.553401 
L 66.378841 212.010129 
L 66.623494 211.601745 
L 66.868147 215.519679 
L 67.1128 225.103941 
L 67.357453 225.869662 
L 67.602106 235.709164 
L 67.846759 234.905158 
L 68.091412 233.399242 
L 68.336066 228.651778 
L 68.580719 238.248802 
L 68.825372 239.63986 
L 69.070025 240.367294 
L 69.314678 236.44936 
L 69.559331 239.729194 
L 69.803984 238.708234 
L 70.048637 242.728265 
L 70.29329 243.277031 
L 70.537943 242.447501 
L 70.782596 245.918765 
L 71.027249 242.421977 
L 71.271902 235.032778 
L 71.761208 239.665384 
L 72.005861 236.921554 
L 72.250514 240.584248 
L 72.495167 240.78844 
L 72.73982 238.146706 
L 72.984473 238.988998 
L 73.229126 239.410144 
L 73.718432 233.412004 
L 73.963085 238.669948 
L 74.452391 239.563288 
L 74.941697 236.844982 
L 75.18635 236.730124 
L 75.431003 246.684485 
L 76.164962 240.648058 
L 76.409615 237.329938 
L 76.654268 237.85318 
L 76.898921 236.015452 
L 77.143574 238.146706 
L 77.388227 239.167666 
L 77.877533 235.836784 
L 78.122186 237.112984 
L 78.366839 237.08746 
L 78.611492 237.304414 
L 78.856145 246.378197 
L 79.100798 246.416483 
L 79.590104 250.117463 
L 79.834757 247.386395 
L 80.324063 250.245083 
L 80.568716 250.206797 
L 80.813369 249.096503 
L 81.302675 263.17299 
L 81.547328 262.841178 
L 81.791981 264.308808 
L 82.036634 264.64062 
L 82.281287 262.560414 
L 82.52594 263.594136 
L 82.770593 259.79106 
L 83.259899 261.9606 
L 83.504552 260.314302 
L 83.749205 256.243223 
L 83.993858 259.676202 
L 84.238511 260.199444 
L 84.483164 267.422736 
L 84.727817 270.12828 
L 84.97247 268.9797 
L 85.217123 268.545792 
L 85.951082 259.956966 
L 86.195735 261.028974 
L 86.440388 258.285144 
L 86.685041 259.740012 
L 87.174347 254.226827 
L 87.419 255.171215 
L 87.663653 256.626084 
L 87.908306 259.08915 
L 88.152959 253.116533 
L 88.397612 255.694457 
L 88.642265 256.243223 
L 88.886918 254.596925 
L 89.131571 249.709079 
L 89.376224 248.611547 
L 89.620877 249.032693 
L 89.86553 252.044525 
L 90.110183 253.575965 
L 90.354836 249.428315 
L 90.599489 241.490351 
L 90.844143 238.414708 
L 91.088796 238.835854 
L 91.333449 240.08653 
L 91.822755 244.208657 
L 92.067408 242.409215 
L 92.556714 244.374563 
L 92.801367 244.859519 
L 93.04602 244.744661 
L 93.290673 240.431104 
L 93.535326 242.906933 
L 94.024632 244.374563 
L 94.269285 243.978941 
L 94.513938 245.778383 
L 94.758591 259.59963 
L 95.003244 257.04723 
L 95.247897 259.72725 
L 95.49255 258.974292 
L 95.737203 259.59963 
L 95.981856 260.671638 
L 96.226509 260.186682 
L 96.715815 262.21584 
L 96.960468 264.946908 
L 97.205121 269.707134 
L 97.694427 268.775508 
L 97.93908 270.268662 
L 98.183733 268.073598 
L 98.428386 268.558554 
L 98.917692 264.461952 
L 99.162345 267.397212 
L 99.406998 265.98063 
L 99.651651 267.818358 
L 99.896304 267.19302 
L 100.140957 268.72446 
L 100.38561 268.456458 
L 100.630263 270.600474 
L 100.874916 270.728094 
L 101.364222 274.007929 
L 101.608875 273.893071 
L 101.853528 275.079937 
L 102.098181 272.706205 
L 102.342834 272.935921 
L 102.587487 272.208487 
L 102.83214 273.688879 
L 103.076793 272.744491 
L 103.321446 270.115518 
L 103.566099 270.664284 
L 103.810752 271.493814 
L 104.055405 270.12828 
L 104.300058 272.884873 
L 104.544711 273.905833 
L 104.789364 275.909467 
L 105.034017 275.296891 
L 105.27867 274.275931 
L 105.523323 267.63969 
L 105.767976 269.311512 
L 106.012629 266.93778 
L 106.257282 269.55399 
L 106.501935 267.358926 
L 106.991241 272.234011 
L 107.235894 272.285059 
L 107.480547 273.267733 
L 107.7252 270.472854 
L 107.969853 270.166566 
L 108.214506 264.742716 
L 108.459159 274.084501 
L 108.948465 273.025255 
L 109.193118 274.288693 
L 109.437771 274.110025 
L 109.682424 274.735363 
L 109.927077 270.728094 
L 110.17173 268.622364 
L 110.416383 264.015282 
L 110.905689 260.773734 
L 111.150342 263.721756 
L 111.394995 264.104616 
L 111.639648 263.198514 
L 111.884301 264.296046 
L 112.128954 261.70536 
L 112.373607 254.341685 
L 112.61826 256.204937 
L 112.862913 261.169356 
L 113.107566 262.764606 
L 113.35222 259.497534 
L 113.596873 258.438288 
L 113.841526 259.369914 
L 114.086179 257.81295 
L 114.330832 259.255056 
L 114.820138 259.995252 
L 115.064791 261.411834 
L 115.554097 251.559569 
L 115.79875 251.151185 
L 116.043403 255.694457 
L 116.288056 258.144762 
L 116.532709 255.400931 
L 117.022015 259.101912 
L 117.266668 259.688964 
L 117.755974 263.606898 
L 118.000627 263.377182 
L 118.24528 267.869406 
L 118.489933 266.337966 
L 118.734586 262.98156 
L 119.223892 261.858504 
L 119.957851 268.72446 
L 120.202504 265.7892 
L 120.447157 267.090924 
L 120.69181 264.296046 
L 120.936463 263.351658 
L 121.181116 258.693528 
L 121.425769 258.987054 
L 121.915075 247.705445 
L 122.404381 240.673582 
L 122.649034 240.826726 
L 122.893687 242.192261 
L 123.13834 242.409215 
L 123.382993 237.904228 
L 123.627646 221.977251 
L 124.850911 210.389354 
L 125.095564 204.30188 
L 125.340217 211.716603 
L 126.074176 209.355632 
L 126.318829 206.228942 
L 126.563482 208.092194 
L 126.808135 201.966434 
L 127.297441 210.402116 
L 127.542094 210.759453 
L 127.786747 210.287258 
L 128.0314 210.351068 
L 128.276053 209.036582 
L 128.520706 204.506072 
L 128.765359 205.654652 
L 129.010012 205.169696 
L 129.254665 210.146876 
L 129.499318 205.220744 
L 129.743971 204.225308 
L 129.988624 209.623634 
L 130.233277 208.806866 
L 130.722583 212.865183 
L 130.967236 209.444966 
L 131.211889 208.283624 
L 131.456542 203.1533 
L 131.701195 194.589997 
L 132.190501 200.549852 
L 132.435154 200.613662 
L 132.679807 199.056698 
L 133.169113 194.092279 
L 133.413766 195.94277 
L 133.658419 192.101407 
L 134.147725 190.289203 
L 134.392378 185.694883 
L 134.637031 186.256411 
L 134.881684 184.546303 
L 135.126337 180.130651 
L 135.37099 178.47159 
L 135.615643 182.121523 
L 135.860297 179.671218 
L 136.10495 181.534471 
L 136.349603 192.752269 
L 136.594256 195.572672 
L 136.838909 187.124227 
L 137.083562 184.903639 
L 137.572868 189.242719 
L 137.817521 190.901779 
L 138.062174 186.269173 
L 138.306827 170.852676 
L 138.796133 180.219985 
L 139.040786 184.686685 
L 139.285439 176.68491 
L 139.530092 179.211786 
L 139.774745 185.899075 
L 140.264051 172.103352 
L 140.508704 177.374058 
L 140.753357 178.318446 
L 141.242663 186.741367 
L 141.731969 194.538949 
L 141.976622 189.765961 
L 142.221275 189.115099 
L 142.465928 190.608253 
L 142.710581 187.353943 
L 143.199887 175.421472 
L 143.44454 174.732324 
L 143.689193 174.413274 
L 143.933846 179.977507 
L 144.423152 180.832561 
L 144.667805 182.657527 
L 144.912458 174.528132 
L 145.157111 174.57918 
L 145.646417 167.343126 
L 145.89107 169.397808 
L 146.135723 167.853606 
L 146.380376 169.002186 
L 146.625029 167.279316 
L 146.869682 163.208237 
L 147.114335 152.960351 
L 147.358988 161.498129 
L 147.603641 163.718717 
L 147.848294 164.050529 
L 148.092947 166.896456 
L 148.3376 167.764272 
L 148.582253 163.731479 
L 148.826906 165.1353 
L 149.071559 161.344985 
L 149.316212 162.697757 
L 149.560865 167.445222 
L 149.805518 169.104282 
L 150.050171 160.821743 
L 150.294824 160.540979 
L 150.539477 155.576561 
L 150.78413 152.883779 
L 151.028783 158.894681 
L 151.273436 157.171811 
L 151.762742 150.586619 
L 152.007395 158.588393 
L 152.252048 153.304925 
L 152.496701 164.356817 
L 152.741354 161.970323 
L 152.986007 164.994918 
L 153.23066 161.804417 
L 153.475313 165.45435 
L 153.964619 159.979451 
L 154.209272 173.826222 
L 154.698578 180.079603 
L 154.943231 172.98393 
L 155.187884 180.819799 
L 155.432537 177.361296 
L 155.921843 190.493395 
L 156.166496 183.729535 
L 156.411149 188.476999 
L 156.655802 184.712209 
L 156.900455 176.94015 
L 157.389761 170.36772 
L 157.634414 169.397808 
L 157.879067 165.58197 
L 158.12372 168.849042 
L 158.368374 160.796219 
L 158.613027 161.051459 
L 158.85768 160.655837 
L 159.102333 162.238325 
L 159.346986 162.404231 
L 159.591639 165.441588 
L 159.836292 161.932037 
L 160.080945 154.249313 
L 160.325598 164.446151 
L 160.570251 165.952068 
L 161.059557 159.800783 
L 161.30421 146.949448 
L 161.793516 153.432545 
L 162.038169 161.166317 
L 162.282822 160.298501 
L 162.772128 177.64206 
L 163.016781 176.276526 
L 163.261434 173.17536 
L 163.75074 181.611043 
L 163.995393 180.551797 
L 164.484699 183.436009 
L 164.729352 188.451475 
L 164.974005 189.880819 
L 165.218658 190.314727 
L 165.463311 188.260045 
L 165.707964 179.441502 
L 165.952617 177.795204 
L 166.19727 181.649329 
L 166.686576 199.439558 
L 167.175882 181.355803 
L 167.420535 189.919105 
L 167.665188 191.488831 
L 167.909841 186.371269 
L 168.399147 181.930093 
L 168.6438 183.755059 
L 169.133106 174.553656 
L 169.377759 179.23731 
L 169.622412 178.72683 
L 169.867065 174.681276 
L 170.111718 189.970153 
L 170.356371 184.584589 
L 170.601024 186.243649 
L 170.845677 180.066841 
L 171.09033 178.509876 
L 171.334983 178.739592 
L 171.579636 181.164373 
L 171.824289 189.536245 
L 172.068942 190.672063 
L 172.313595 187.519849 
L 172.558248 178.548162 
L 172.802901 183.359437 
L 173.047554 183.474295 
L 173.53686 185.069545 
L 173.781513 181.394089 
L 174.026166 180.411415 
L 174.270819 173.328504 
L 174.515472 173.890032 
L 174.760125 168.657612 
L 175.004778 166.500834 
L 175.249431 170.520864 
L 175.494084 168.823518 
L 175.738737 170.980296 
L 175.98339 169.142568 
L 176.228043 173.711364 
L 176.472696 174.081462 
L 176.717349 170.201814 
L 176.962002 162.646709 
L 177.206655 163.603859 
L 177.451308 157.797149 
L 177.695961 157.324955 
L 177.940614 158.001341 
L 178.185267 155.359607 
L 178.42992 156.852761 
L 178.674573 155.142653 
L 178.919226 157.108001 
L 179.163879 160.030499 
L 179.408532 159.890117 
L 180.142491 147.179164 
L 180.387144 148.136314 
L 180.631798 146.541064 
L 180.876451 144.180094 
L 181.121104 138.47548 
L 181.365757 140.160064 
L 181.61041 138.577576 
L 181.855063 142.661416 
L 182.099716 149.935757 
L 182.344369 146.566588 
L 182.589022 148.634032 
L 183.078328 141.997792 
L 183.322981 140.274922 
L 183.567634 140.849212 
L 183.812287 144.052474 
L 184.05694 138.615862 
L 184.301593 130.256751 
L 184.546246 129.350649 
L 184.790899 127.193871 
L 185.035552 121.897641 
L 185.280205 93.527713 
L 185.524858 94.421053 
L 185.769511 101.823013 
L 186.014164 102.933307 
L 186.50347 111.547658 
L 186.748123 103.226833 
L 186.992776 107.47658 
L 187.237429 108.025346 
L 187.482082 110.105552 
L 187.726735 108.089156 
L 187.971388 104.400938 
L 188.216041 106.723622 
L 188.460694 103.622456 
L 188.705347 102.359017 
L 188.95 103.290643 
L 189.194653 102.792925 
L 189.439306 104.107412 
L 189.683959 103.073689 
L 190.173265 109.237736 
L 190.417918 105.906854 
L 190.907224 107.616962 
L 191.151877 109.722692 
L 191.39653 108.81659 
L 191.641183 95.697253 
L 191.885836 92.315323 
L 192.130489 96.462973 
L 192.375142 93.272473 
L 192.619795 94.854961 
L 192.864448 100.253287 
L 193.353754 101.797489 
L 193.598407 104.426462 
L 193.84306 113.653388 
L 194.332366 102.997117 
L 194.577019 91.039123 
L 194.821672 95.531347 
L 195.066325 108.382682 
L 195.310978 108.472016 
L 195.555631 99.308899 
L 195.800284 104.949704 
L 196.28959 101.223199 
L 196.534243 104.081888 
L 196.778896 111.994328 
L 197.268202 106.353524 
L 197.512855 105.396374 
L 197.757508 107.400008 
L 198.002161 104.962466 
L 198.246814 110.756414 
L 198.491467 123.071745 
L 198.73612 127.755399 
L 198.980773 128.533881 
L 199.470079 113.02805 
L 199.714732 112.377188 
L 200.204038 98.823943 
L 200.693344 105.613328 
L 200.937997 98.568703 
L 201.18265 101.925109 
L 201.427303 90.388261 
L 201.671956 96.016303 
L 201.916609 80.11485 
L 202.161262 77.868738 
L 202.405915 80.714664 
L 202.650568 73.79766 
L 202.895221 79.234272 
L 203.139875 80.255232 
L 203.384528 80.714664 
L 203.629181 66.625415 
L 203.873834 63.103103 
L 204.118487 63.766727 
L 204.36314 71.079353 
L 204.607793 63.919871 
L 204.852446 71.002781 
L 205.097099 72.789462 
L 205.586405 78.353694 
L 205.831058 69.535151 
L 206.075711 71.309069 
L 206.320364 70.760303 
L 206.565017 68.603525 
L 206.80967 69.777629 
L 207.054323 80.62533 
L 207.298976 83.011824 
L 207.543629 87.414714 
L 207.788282 88.027291 
L 208.032935 85.589748 
L 208.277588 92.034559 
L 208.522241 89.188633 
L 208.766894 95.288869 
L 209.011547 90.043687 
L 209.2562 89.928829 
L 209.500853 94.408291 
L 209.745506 101.874061 
L 209.990159 96.909643 
L 210.234812 86.661756 
L 210.479465 83.662686 
L 210.724118 83.190492 
L 210.968771 85.02822 
L 211.213424 87.810336 
L 211.458077 82.833156 
L 211.70273 88.793011 
L 211.947383 89.048251 
L 212.192036 91.651699 
L 212.681342 102.103777 
L 212.925995 101.593297 
L 213.415301 90.069211 
L 213.659954 93.017233 
L 213.904607 100.687195 
L 214.14926 102.333493 
L 214.393913 105.88133 
L 214.638566 106.9661 
L 214.883219 101.580535 
L 215.127872 101.363581 
L 215.372525 91.256077 
L 215.617178 89.214157 
L 215.861831 84.824028 
L 216.106484 89.750161 
L 216.351137 92.213227 
L 216.59579 101.427391 
L 216.840443 101.325295 
L 217.085096 104.47751 
L 217.574402 105.447422 
L 217.819055 105.345326 
L 218.063708 105.906854 
L 218.308361 112.313378 
L 218.797667 102.537685 
L 219.04232 108.62516 
L 219.286973 120.940491 
L 219.531626 111.866708 
L 219.776279 116.103692 
L 220.020932 118.222184 
L 220.265585 118.107326 
L 220.510238 115.057208 
L 220.754891 119.141049 
L 220.999544 117.060842 
L 221.244197 122.842029 
L 221.48885 119.842959 
L 221.733503 122.561265 
L 222.467462 117.533036 
L 222.712115 109.186688 
L 222.956768 110.360792 
L 223.446074 114.087296 
L 223.690727 121.757259 
L 223.93538 123.020697 
L 224.424686 120.583155 
L 224.669339 123.186603 
L 224.913992 113.372624 
L 225.158645 108.75278 
L 225.403298 111.152036 
L 225.647952 105.932378 
L 225.892605 109.990694 
L 226.137258 117.469226 
L 226.381911 120.404487 
L 226.626564 117.992468 
L 226.871217 113.895866 
L 227.11587 116.626934 
L 227.360523 113.21948 
L 227.605176 116.486552 
L 227.849829 122.752695 
L 228.094482 122.408121 
L 228.583788 103.7756 
L 228.828441 108.472016 
L 229.073094 107.693534 
L 229.317747 109.595072 
L 229.807053 118.541234 
L 230.051706 117.30332 
L 230.296359 112.211282 
L 230.785665 110.28422 
L 231.030318 111.675278 
L 231.519624 101.235961 
L 231.764277 102.856735 
L 232.00893 103.099213 
L 232.253583 126.989679 
L 232.742889 122.625075 
L 232.987542 134.059828 
L 233.232195 140.045206 
L 233.476848 135.47641 
L 233.721501 135.591268 
L 233.966154 139.037008 
L 234.45546 141.1555 
L 234.700113 139.764442 
L 234.944766 136.30594 
L 235.189419 138.424432 
L 235.678725 133.077153 
L 236.168031 122.497455 
L 236.412684 127.104537 
L 236.657337 125.496525 
L 236.90199 127.002441 
L 237.146643 130.665135 
L 237.391296 125.356143 
L 237.635949 123.058983 
L 238.125255 121.833831 
L 238.369908 119.830197 
L 238.614561 123.326985 
L 238.859214 124.079943 
L 239.34852 118.707141 
L 239.593173 117.647894 
L 239.837826 120.034389 
L 240.082479 120.966015 
L 240.327132 115.210352 
L 240.571785 113.691674 
L 240.816438 113.47472 
L 241.061091 115.044446 
L 241.305744 112.058138 
L 241.550397 114.17663 
L 241.79505 117.711704 
L 242.284356 126.708915 
L 242.529009 128.521119 
L 242.773662 128.993313 
L 243.018315 131.137329 
L 243.262968 141.34693 
L 243.507621 143.248468 
L 243.752274 147.02602 
L 243.996927 143.210182 
L 244.24158 142.980466 
L 244.486233 135.935842 
L 244.730886 138.47548 
L 244.975539 144.47362 
L 245.220192 139.981396 
L 245.464845 129.337887 
L 245.709498 127.844733 
L 246.443457 117.609608 
L 246.68811 119.370765 
L 246.932763 130.307799 
L 247.177416 168.147132 
L 247.422069 165.620256 
L 247.666722 159.928403 
L 247.911375 162.238325 
L 248.156029 166.73055 
L 248.400682 165.224634 
L 248.889988 159.941165 
L 249.134641 157.873721 
L 249.379294 156.891047 
L 249.8686 177.348534 
L 250.113253 177.2592 
L 250.602559 168.912852 
L 250.847212 170.597436 
L 251.091865 174.7068 
L 251.581171 187.443277 
L 251.825824 202.540724 
L 252.070477 207.760382 
L 252.31513 200.85614 
L 252.559783 188.528047 
L 252.804436 188.438713 
L 253.293742 199.362986 
L 253.538395 193.517989 
L 253.783048 192.331123 
L 254.027701 196.26182 
L 254.517007 191.016637 
L 255.250966 202.298246 
L 255.495619 202.13234 
L 255.740272 190.710349 
L 256.718884 208.870676 
L 256.963537 213.656427 
L 257.20819 213.375663 
L 257.452843 211.142313 
L 257.697496 212.775849 
L 257.942149 208.156004 
L 258.186802 207.224378 
L 258.431455 207.071234 
L 258.676108 193.058557 
L 258.920761 191.641975 
L 259.165414 191.412259 
L 259.65472 202.311008 
L 259.899373 198.533456 
L 260.144026 198.724886 
L 260.388679 195.62372 
L 260.633332 197.512496 
L 260.877985 190.850731 
L 261.122638 189.880819 
L 261.367291 185.184403 
L 261.611944 187.060417 
L 261.856597 191.629213 
L 262.345903 181.457899 
L 262.835209 160.706885 
L 263.079862 162.391469 
L 263.324515 166.92198 
L 263.569168 143.337802 
L 263.813821 133.485537 
L 264.058474 136.918516 
L 264.303127 130.001511 
L 264.792433 126.964155 
L 265.037086 134.991454 
L 265.526392 127.997877 
L 265.771045 129.720747 
L 266.015698 135.068026 
L 266.260351 128.980551 
L 266.505004 131.392569 
L 266.749657 121.310589 
L 266.99431 117.392654 
L 267.238963 118.809237 
L 267.483616 117.826562 
L 267.728269 120.544869 
L 267.972922 125.049855 
L 268.217575 120.225819 
L 268.462228 104.4137 
L 269.196187 117.801038 
L 269.44084 116.754554 
L 269.685493 116.448266 
L 270.174799 126.759963 
L 270.419452 127.334253 
L 270.664106 135.4126 
L 270.908759 135.144598 
L 271.153412 128.457309 
L 271.398065 128.189307 
L 271.642718 131.252187 
L 271.887371 137.658712 
L 272.132024 130.614087 
L 272.62133 131.775429 
L 272.865983 135.09355 
L 273.110636 136.535656 
L 273.355289 134.1364 
L 273.844595 141.334168 
L 274.089248 147.72793 
L 274.333901 143.465422 
L 274.578554 145.711534 
L 274.823207 160.056023 
L 275.06786 163.922909 
L 275.312513 165.160824 
L 275.557166 161.919275 
L 275.801819 170.68677 
L 276.046472 162.787091 
L 276.291125 173.392314 
L 276.535778 170.699532 
L 276.780431 172.02678 
L 277.025084 166.194546 
L 277.269737 164.139863 
L 277.51439 168.77247 
L 277.759043 169.359522 
L 278.003696 180.602845 
L 278.248349 182.300191 
L 278.493002 174.221844 
L 278.737655 176.991198 
L 278.982308 185.005735 
L 279.226961 187.226323 
L 279.471614 187.851661 
L 279.716267 197.104112 
L 279.96092 197.47421 
L 280.205573 203.051204 
L 280.450226 199.094984 
L 280.694879 202.374818 
L 280.939532 187.672993 
L 281.428838 173.890032 
L 281.673491 177.501678 
L 282.162797 167.330364 
L 282.40745 177.093294 
L 282.652103 174.885468 
L 282.896756 180.666655 
L 283.141409 160.783457 
L 283.386062 160.413359 
L 283.630715 161.268413 
L 283.875368 152.615777 
L 284.120021 156.776189 
L 284.364674 156.316757 
L 284.609327 154.721507 
L 284.85398 156.444377 
L 285.098633 162.046895 
L 285.343286 157.337717 
L 285.587939 157.873721 
L 285.832592 149.06794 
L 286.077245 150.293093 
L 286.321898 152.590253 
L 286.566551 148.978606 
L 286.811204 148.480888 
L 287.055857 142.763512 
L 287.30051 143.784472 
L 287.545163 142.150936 
L 287.789816 147.970408 
L 288.034469 146.668684 
L 288.279122 146.273062 
L 288.523775 140.313208 
L 288.768428 140.249398 
L 289.013081 138.98596 
L 289.257734 139.68787 
L 289.502387 141.423502 
L 289.74704 148.021456 
L 289.991693 144.167332 
L 290.236346 149.642231 
L 290.970305 143.427136 
L 291.214958 135.02974 
L 291.459611 132.809151 
L 291.704264 135.999652 
L 291.948917 136.356988 
L 292.19357 134.340592 
L 292.682876 136.612228 
L 293.172183 142.610368 
L 293.416836 142.342366 
L 293.661489 142.725226 
L 293.906142 145.188292 
L 294.150795 134.621356 
L 294.395448 154.262075 
L 294.640101 160.068785 
L 294.884754 156.342281 
L 295.37406 160.604789 
L 295.863366 170.469816 
L 296.352672 176.761482 
L 296.597325 178.714068 
L 296.841978 168.236466 
L 297.086631 164.305769 
L 297.575937 167.534556 
L 297.82059 165.569208 
L 298.065243 165.926544 
L 298.309896 158.090675 
L 298.799202 155.844563 
L 299.043855 146.477254 
L 299.288508 154.734269 
L 299.533161 157.299431 
L 299.777814 158.435249 
L 300.022467 160.860029 
L 300.26712 159.736973 
L 300.756426 167.279316 
L 301.001079 166.92198 
L 301.245732 172.932882 
L 301.490385 173.864508 
L 301.735038 177.32301 
L 301.979691 177.080532 
L 302.224344 171.350394 
L 302.468997 174.974802 
L 302.71365 170.061432 
L 302.958303 174.821658 
L 303.202956 175.561854 
L 303.447609 173.392314 
L 303.692262 179.518074 
L 303.936915 182.325715 
L 304.426221 172.766976 
L 304.670874 171.822588 
L 304.915527 171.77154 
L 305.16018 176.008524 
L 305.404833 176.404146 
L 305.649486 174.030414 
L 305.894139 178.650258 
L 306.138792 169.423332 
L 306.383445 172.039542 
L 306.628098 173.086026 
L 306.872751 172.205448 
L 307.117404 174.89823 
L 307.362057 172.28202 
L 307.60671 176.87634 
L 307.851363 177.565488 
L 308.096016 176.608338 
L 308.585322 178.075968 
L 308.829975 173.251932 
L 309.074628 171.375918 
L 309.319281 171.210012 
L 309.563934 178.905498 
L 309.808587 174.272892 
L 310.05324 177.437868 
L 310.297893 175.53633 
L 310.542546 175.127946 
L 310.787199 168.976662 
L 311.276505 171.32487 
L 311.521158 171.210012 
L 311.765811 168.542754 
L 312.010464 168.210942 
L 312.255117 161.868227 
L 312.49977 161.421557 
L 312.744423 162.148991 
L 313.233729 156.023231 
L 313.478382 160.719647 
L 313.723035 161.179079 
L 313.967688 163.731479 
L 314.212341 161.995847 
L 314.456994 161.204603 
L 314.701647 160.974887 
L 314.9463 158.677727 
L 315.190953 164.267483 
L 315.435607 157.273907 
L 315.68026 155.704181 
L 315.924913 141.308644 
L 316.169566 141.193786 
L 316.414219 143.299516 
L 316.658872 150.190997 
L 316.903525 147.60031 
L 317.148178 150.446237 
L 317.392831 150.088901 
L 317.637484 144.575716 
L 317.882137 146.477254 
L 318.12679 146.821828 
L 318.371443 144.741622 
L 318.616096 132.413529 
L 318.860749 133.153725 
L 319.350055 141.563884 
L 319.594708 139.04977 
L 319.839361 142.993228 
L 320.084014 150.025091 
L 320.328667 150.229283 
L 320.57332 148.353268 
L 320.817973 147.66412 
L 321.062626 147.625834 
L 321.551932 153.126257 
L 321.796585 150.969479 
L 322.041238 156.648569 
L 322.285891 158.728775 
L 322.530544 159.749735 
L 322.775197 158.601155 
L 323.01985 159.060587 
L 323.509156 157.720577 
L 323.753809 159.035063 
L 323.998462 157.005905 
L 324.243115 151.773485 
L 324.732421 162.034133 
L 324.977074 159.124397 
L 325.221727 153.394259 
L 325.711033 161.179079 
L 325.955686 167.189982 
L 326.200339 167.457984 
L 326.444992 168.568278 
L 326.689645 163.642145 
L 326.934298 164.458913 
L 327.178951 167.343126 
L 327.423604 173.966604 
L 327.668257 174.630228 
L 327.91291 176.187192 
L 328.402216 169.79343 
L 328.646869 170.469816 
L 328.891522 172.805262 
L 329.136175 171.13344 
L 329.625481 173.762412 
L 329.870134 172.72869 
L 330.35944 166.679502 
L 330.604093 169.525428 
L 330.848746 174.464322 
L 331.093399 176.263764 
L 331.338052 172.881834 
L 331.582705 171.797064 
L 331.827358 166.488072 
L 332.072011 168.504468 
L 332.316664 164.586534 
L 332.561317 167.572842 
L 332.80597 163.769765 
L 333.050623 165.849972 
L 333.295276 171.018582 
L 333.784582 173.68584 
L 334.029235 171.656682 
L 334.518541 174.7068 
L 334.763194 173.775174 
L 335.2525 171.32487 
L 335.497153 170.099718 
L 335.741806 172.766976 
L 336.475765 156.099803 
L 336.720418 157.490861 
L 336.965071 156.495425 
L 337.209724 152.475395 
L 337.454377 153.738833 
L 337.943684 157.363241 
L 338.188337 156.750665 
L 338.677643 157.860959 
L 338.922296 161.242889 
L 339.166949 158.014103 
L 339.411602 157.912007 
L 339.656255 157.197335 
L 339.900908 159.315827 
L 340.145561 160.400597 
L 340.634867 159.162683 
L 340.87952 160.757933 
L 341.124173 161.293937 
L 341.368826 159.035063 
L 341.613479 155.665895 
L 341.858132 155.206463 
L 342.102785 150.956717 
L 342.347438 150.956717 
L 342.592091 147.778978 
L 342.836744 147.370594 
L 343.081397 149.335943 
L 343.32605 148.30222 
L 343.570703 146.566588 
L 343.815356 146.273062 
L 344.304662 145.201054 
L 344.549315 146.949448 
L 344.793968 159.035063 
L 345.038621 161.842703 
L 345.527927 158.830871 
L 346.017233 160.796219 
L 346.261886 161.421557 
L 346.506539 160.860029 
L 346.751192 160.694123 
L 347.240498 162.136229 
L 347.485151 161.485367 
L 347.729804 162.008609 
L 347.974457 163.029569 
L 348.21911 157.248383 
L 348.463763 157.184573 
L 348.708416 157.809911 
L 348.953069 163.846337 
L 349.197722 166.194546 
L 349.442375 166.130736 
L 349.687028 167.853606 
L 350.176334 165.90102 
L 350.420987 164.790726 
L 350.66564 162.621185 
L 350.910293 162.416993 
L 351.154946 159.252017 
L 351.399599 158.996777 
L 351.644252 161.906513 
L 351.888905 161.319461 
L 352.133558 162.519089 
L 352.378211 160.247453 
L 352.622864 161.791655 
L 352.867517 161.025935 
L 353.11217 162.302135 
L 353.356823 161.408795 
L 353.601476 159.928403 
L 353.846129 155.665895 
L 354.090782 154.606649 
L 354.335435 155.321321 
L 354.580088 152.832731 
L 354.824741 143.950378 
L 355.069394 144.358762 
L 355.314047 142.840084 
L 355.5587 152.577491 
L 355.803353 152.794445 
L 356.292659 156.189137 
L 356.537312 157.069715 
L 356.781965 155.385131 
L 357.026618 156.099803 
L 357.271271 149.06794 
L 357.515924 148.314982 
L 357.760577 144.448096 
L 358.00523 144.15457 
L 358.249883 145.035148 
L 358.494536 139.292248 
L 358.983842 149.769851 
L 359.228495 141.691504 
L 359.473148 137.952238 
L 359.717801 137.811856 
L 359.962454 139.30501 
L 360.207107 137.620426 
L 360.451761 139.611298 
L 360.696414 140.26216 
L 360.941067 145.086196 
L 361.18572 143.605804 
L 361.430373 143.171896 
L 361.675026 143.541994 
L 361.919679 145.532866 
L 362.164332 143.26123 
L 362.408985 145.532866 
L 362.653638 151.505483 
L 363.387597 155.168177 
L 363.876903 160.681361 
L 364.121556 156.788951 
L 364.366209 155.614847 
L 364.610862 152.654063 
L 365.100168 155.244749 
L 365.344821 154.836365 
L 365.589474 158.486297 
L 366.07878 153.343211 
L 366.323433 154.325885 
L 366.568086 152.909303 
L 366.812739 147.98317 
L 367.057392 150.586619 
L 367.302045 151.084337 
L 367.791351 147.242974 
L 368.036004 144.243904 
L 368.280657 144.039712 
L 368.52531 141.959506 
L 368.769963 142.36789 
L 369.259269 138.947674 
L 369.503922 138.424432 
L 369.748575 136.0507 
L 369.993228 129.069885 
L 370.237881 131.111805 
L 370.482534 125.853861 
L 370.727187 126.070815 
L 370.97184 101.823013 
L 371.216493 93.719143 
L 371.461146 94.676293 
L 371.705799 99.321661 
L 371.950452 92.391895 
L 372.195105 94.102003 
L 372.439758 92.685421 
L 372.684411 89.762923 
L 372.929064 88.678153 
L 373.173717 98.543179 
L 373.41837 97.369075 
L 373.663023 97.113835 
L 373.907676 95.020867 
L 374.152329 93.987145 
L 374.396982 100.483003 
L 374.641635 100.942435 
L 374.886288 98.658037 
L 375.130941 94.025431 
L 375.375594 95.454775 
L 375.620247 95.620681 
L 375.8649 94.740103 
L 376.109553 101.835775 
L 376.354206 100.942435 
L 376.843512 91.549603 
L 377.088165 85.691844 
L 377.332818 95.059153 
L 377.577471 92.927899 
L 377.822124 85.002696 
L 378.066777 90.043687 
L 378.556083 79.361892 
L 378.800736 80.88057 
L 379.045389 79.706466 
L 379.290042 82.41201 
L 379.534695 77.485878 
L 379.779348 79.042842 
L 380.024001 78.90246 
L 380.268654 77.677308 
L 380.513307 75.571578 
L 380.75796 83.330874 
L 381.002613 81.161334 
L 381.247266 76.528728 
L 381.491919 74.665476 
L 381.736572 66.485033 
L 381.981225 65.234357 
L 382.225878 67.365611 
L 382.470531 71.232497 
L 382.715184 69.573437 
L 382.959838 66.485033 
L 383.204491 60.703847 
L 383.449144 47.699368 
L 383.693797 50.366626 
L 383.93845 51.630064 
L 384.183103 47.354794 
L 384.427756 34.414125 
L 384.672409 37.604625 
L 384.917062 39.327495 
L 385.161715 45.006586 
L 385.406368 44.52163 
L 385.651021 42.951904 
L 385.895674 45.67021 
L 386.140327 46.895362 
L 386.38498 49.983766 
L 386.629633 77.103018 
L 386.874286 80.867808 
L 387.118939 71.270783 
L 387.363592 69.369245 
L 387.608245 73.631754 
L 387.852898 74.333664 
L 387.852898 74.333664 
" style="fill:none;stroke:#ff7f0e;stroke-linecap:square;stroke-width:1.5;"/>
   </g>
   <g id="patch_3">
    <path d="M 46.965625 288.430125 
L 46.965625 22.318125 
" style="fill:none;stroke:#000000;stroke-linecap:square;stroke-linejoin:miter;stroke-width:0.8;"/>
   </g>
   <g id="patch_4">
    <path d="M 404.085625 288.430125 
L 404.085625 22.318125 
" style="fill:none;stroke:#000000;stroke-linecap:square;stroke-linejoin:miter;stroke-width:0.8;"/>
   </g>
   <g id="patch_5">
    <path d="M 46.965625 288.430125 
L 404.085625 288.430125 
" style="fill:none;stroke:#000000;stroke-linecap:square;stroke-linejoin:miter;stroke-width:0.8;"/>
   </g>
   <g id="patch_6">
    <path d="M 46.965625 22.318125 
L 404.085625 22.318125 
" style="fill:none;stroke:#000000;stroke-linecap:square;stroke-linejoin:miter;stroke-width:0.8;"/>
   </g>
   <g id="text_19">
    <!-- Training: BIDU -->
    <defs>
     <path d="M -0.296875 72.90625 
L 61.375 72.90625 
L 61.375 64.59375 
L 35.5 64.59375 
L 35.5 0 
L 25.59375 0 
L 25.59375 64.59375 
L -0.296875 64.59375 
z
" id="DejaVuSans-84"/>
     <path d="M 54.890625 33.015625 
L 54.890625 0 
L 45.90625 0 
L 45.90625 32.71875 
Q 45.90625 40.484375 42.875 44.328125 
Q 39.84375 48.1875 33.796875 48.1875 
Q 26.515625 48.1875 22.3125 43.546875 
Q 18.109375 38.921875 18.109375 30.90625 
L 18.109375 0 
L 9.078125 0 
L 9.078125 54.6875 
L 18.109375 54.6875 
L 18.109375 46.1875 
Q 21.34375 51.125 25.703125 53.5625 
Q 30.078125 56 35.796875 56 
Q 45.21875 56 50.046875 50.171875 
Q 54.890625 44.34375 54.890625 33.015625 
z
" id="DejaVuSans-110"/>
     <path d="M 45.40625 27.984375 
Q 45.40625 37.75 41.375 43.109375 
Q 37.359375 48.484375 30.078125 48.484375 
Q 22.859375 48.484375 18.828125 43.109375 
Q 14.796875 37.75 14.796875 27.984375 
Q 14.796875 18.265625 18.828125 12.890625 
Q 22.859375 7.515625 30.078125 7.515625 
Q 37.359375 7.515625 41.375 12.890625 
Q 45.40625 18.265625 45.40625 27.984375 
z
M 54.390625 6.78125 
Q 54.390625 -7.171875 48.1875 -13.984375 
Q 42 -20.796875 29.203125 -20.796875 
Q 24.46875 -20.796875 20.265625 -20.09375 
Q 16.0625 -19.390625 12.109375 -17.921875 
L 12.109375 -9.1875 
Q 16.0625 -11.328125 19.921875 -12.34375 
Q 23.78125 -13.375 27.78125 -13.375 
Q 36.625 -13.375 41.015625 -8.765625 
Q 45.40625 -4.15625 45.40625 5.171875 
L 45.40625 9.625 
Q 42.625 4.78125 38.28125 2.390625 
Q 33.9375 0 27.875 0 
Q 17.828125 0 11.671875 7.65625 
Q 5.515625 15.328125 5.515625 27.984375 
Q 5.515625 40.671875 11.671875 48.328125 
Q 17.828125 56 27.875 56 
Q 33.9375 56 38.28125 53.609375 
Q 42.625 51.21875 45.40625 46.390625 
L 45.40625 54.6875 
L 54.390625 54.6875 
z
" id="DejaVuSans-103"/>
     <path d="M 11.71875 12.40625 
L 22.015625 12.40625 
L 22.015625 0 
L 11.71875 0 
z
M 11.71875 51.703125 
L 22.015625 51.703125 
L 22.015625 39.3125 
L 11.71875 39.3125 
z
" id="DejaVuSans-58"/>
     <path d="M 19.671875 34.8125 
L 19.671875 8.109375 
L 35.5 8.109375 
Q 43.453125 8.109375 47.28125 11.40625 
Q 51.125 14.703125 51.125 21.484375 
Q 51.125 28.328125 47.28125 31.5625 
Q 43.453125 34.8125 35.5 34.8125 
z
M 19.671875 64.796875 
L 19.671875 42.828125 
L 34.28125 42.828125 
Q 41.5 42.828125 45.03125 45.53125 
Q 48.578125 48.25 48.578125 53.8125 
Q 48.578125 59.328125 45.03125 62.0625 
Q 41.5 64.796875 34.28125 64.796875 
z
M 9.8125 72.90625 
L 35.015625 72.90625 
Q 46.296875 72.90625 52.390625 68.21875 
Q 58.5 63.53125 58.5 54.890625 
Q 58.5 48.1875 55.375 44.234375 
Q 52.25 40.28125 46.1875 39.3125 
Q 53.46875 37.75 57.5 32.78125 
Q 61.53125 27.828125 61.53125 20.40625 
Q 61.53125 10.640625 54.890625 5.3125 
Q 48.25 0 35.984375 0 
L 9.8125 0 
z
" id="DejaVuSans-66"/>
     <path d="M 9.8125 72.90625 
L 19.671875 72.90625 
L 19.671875 0 
L 9.8125 0 
z
" id="DejaVuSans-73"/>
     <path d="M 8.6875 72.90625 
L 18.609375 72.90625 
L 18.609375 28.609375 
Q 18.609375 16.890625 22.84375 11.734375 
Q 27.09375 6.59375 36.625 6.59375 
Q 46.09375 6.59375 50.34375 11.734375 
Q 54.59375 16.890625 54.59375 28.609375 
L 54.59375 72.90625 
L 64.5 72.90625 
L 64.5 27.390625 
Q 64.5 13.140625 57.4375 5.859375 
Q 50.390625 -1.421875 36.625 -1.421875 
Q 22.796875 -1.421875 15.734375 5.859375 
Q 8.6875 13.140625 8.6875 27.390625 
z
" id="DejaVuSans-85"/>
    </defs>
    <g transform="translate(183.02875 16.318125)scale(0.12 -0.12)">
     <use xlink:href="#DejaVuSans-84"/>
     <use x="46.333984" xlink:href="#DejaVuSans-114"/>
     <use x="87.447266" xlink:href="#DejaVuSans-97"/>
     <use x="148.726562" xlink:href="#DejaVuSans-105"/>
     <use x="176.509766" xlink:href="#DejaVuSans-110"/>
     <use x="239.888672" xlink:href="#DejaVuSans-105"/>
     <use x="267.671875" xlink:href="#DejaVuSans-110"/>
     <use x="331.050781" xlink:href="#DejaVuSans-103"/>
     <use x="394.527344" xlink:href="#DejaVuSans-58"/>
     <use x="428.21875" xlink:href="#DejaVuSans-32"/>
     <use x="460.005859" xlink:href="#DejaVuSans-66"/>
     <use x="528.609375" xlink:href="#DejaVuSans-73"/>
     <use x="558.101562" xlink:href="#DejaVuSans-68"/>
     <use x="635.103516" xlink:href="#DejaVuSans-85"/>
    </g>
   </g>
   <g id="legend_1">
    <g id="patch_7">
     <path d="M 53.965625 59.674375 
L 137.69375 59.674375 
Q 139.69375 59.674375 139.69375 57.674375 
L 139.69375 29.318125 
Q 139.69375 27.318125 137.69375 27.318125 
L 53.965625 27.318125 
Q 51.965625 27.318125 51.965625 29.318125 
L 51.965625 57.674375 
Q 51.965625 59.674375 53.965625 59.674375 
z
" style="fill:#ffffff;opacity:0.8;stroke:#cccccc;stroke-linejoin:miter;"/>
    </g>
    <g id="line2d_35">
     <path d="M 55.965625 35.416562 
L 75.965625 35.416562 
" style="fill:none;stroke:#1f77b4;stroke-linecap:square;stroke-width:1.5;"/>
    </g>
    <g id="line2d_36"/>
    <g id="text_20">
     <!-- Predicted -->
     <defs>
      <path d="M 45.40625 46.390625 
L 45.40625 75.984375 
L 54.390625 75.984375 
L 54.390625 0 
L 45.40625 0 
L 45.40625 8.203125 
Q 42.578125 3.328125 38.25 0.953125 
Q 33.9375 -1.421875 27.875 -1.421875 
Q 17.96875 -1.421875 11.734375 6.484375 
Q 5.515625 14.40625 5.515625 27.296875 
Q 5.515625 40.1875 11.734375 48.09375 
Q 17.96875 56 27.875 56 
Q 33.9375 56 38.25 53.625 
Q 42.578125 51.265625 45.40625 46.390625 
z
M 14.796875 27.296875 
Q 14.796875 17.390625 18.875 11.75 
Q 22.953125 6.109375 30.078125 6.109375 
Q 37.203125 6.109375 41.296875 11.75 
Q 45.40625 17.390625 45.40625 27.296875 
Q 45.40625 37.203125 41.296875 42.84375 
Q 37.203125 48.484375 30.078125 48.484375 
Q 22.953125 48.484375 18.875 42.84375 
Q 14.796875 37.203125 14.796875 27.296875 
z
" id="DejaVuSans-100"/>
      <path d="M 18.3125 70.21875 
L 18.3125 54.6875 
L 36.8125 54.6875 
L 36.8125 47.703125 
L 18.3125 47.703125 
L 18.3125 18.015625 
Q 18.3125 11.328125 20.140625 9.421875 
Q 21.96875 7.515625 27.59375 7.515625 
L 36.8125 7.515625 
L 36.8125 0 
L 27.59375 0 
Q 17.1875 0 13.234375 3.875 
Q 9.28125 7.765625 9.28125 18.015625 
L 9.28125 47.703125 
L 2.6875 47.703125 
L 2.6875 54.6875 
L 9.28125 54.6875 
L 9.28125 70.21875 
z
" id="DejaVuSans-116"/>
     </defs>
     <g transform="translate(83.965625 38.916562)scale(0.1 -0.1)">
      <use xlink:href="#DejaVuSans-80"/>
      <use x="58.552734" xlink:href="#DejaVuSans-114"/>
      <use x="97.416016" xlink:href="#DejaVuSans-101"/>
      <use x="158.939453" xlink:href="#DejaVuSans-100"/>
      <use x="222.416016" xlink:href="#DejaVuSans-105"/>
      <use x="250.199219" xlink:href="#DejaVuSans-99"/>
      <use x="305.179688" xlink:href="#DejaVuSans-116"/>
      <use x="344.388672" xlink:href="#DejaVuSans-101"/>
      <use x="405.912109" xlink:href="#DejaVuSans-100"/>
     </g>
    </g>
    <g id="line2d_37">
     <path d="M 55.965625 50.094687 
L 75.965625 50.094687 
" style="fill:none;stroke:#ff7f0e;stroke-linecap:square;stroke-width:1.5;"/>
    </g>
    <g id="line2d_38"/>
    <g id="text_21">
     <!-- True value -->
     <defs>
      <path d="M 8.5 21.578125 
L 8.5 54.6875 
L 17.484375 54.6875 
L 17.484375 21.921875 
Q 17.484375 14.15625 20.5 10.265625 
Q 23.53125 6.390625 29.59375 6.390625 
Q 36.859375 6.390625 41.078125 11.03125 
Q 45.3125 15.671875 45.3125 23.6875 
L 45.3125 54.6875 
L 54.296875 54.6875 
L 54.296875 0 
L 45.3125 0 
L 45.3125 8.40625 
Q 42.046875 3.421875 37.71875 1 
Q 33.40625 -1.421875 27.6875 -1.421875 
Q 18.265625 -1.421875 13.375 4.4375 
Q 8.5 10.296875 8.5 21.578125 
z
M 31.109375 56 
z
" id="DejaVuSans-117"/>
      <path d="M 2.984375 54.6875 
L 12.5 54.6875 
L 29.59375 8.796875 
L 46.6875 54.6875 
L 56.203125 54.6875 
L 35.6875 0 
L 23.484375 0 
z
" id="DejaVuSans-118"/>
      <path d="M 9.421875 75.984375 
L 18.40625 75.984375 
L 18.40625 0 
L 9.421875 0 
z
" id="DejaVuSans-108"/>
     </defs>
     <g transform="translate(83.965625 53.594687)scale(0.1 -0.1)">
      <use xlink:href="#DejaVuSans-84"/>
      <use x="46.333984" xlink:href="#DejaVuSans-114"/>
      <use x="87.447266" xlink:href="#DejaVuSans-117"/>
      <use x="150.826172" xlink:href="#DejaVuSans-101"/>
      <use x="212.349609" xlink:href="#DejaVuSans-32"/>
      <use x="244.136719" xlink:href="#DejaVuSans-118"/>
      <use x="303.316406" xlink:href="#DejaVuSans-97"/>
      <use x="364.595703" xlink:href="#DejaVuSans-108"/>
      <use x="392.378906" xlink:href="#DejaVuSans-117"/>
      <use x="455.757812" xlink:href="#DejaVuSans-101"/>
     </g>
    </g>
   </g>
  </g>
 </g>
 <defs>
  <clipPath id="p526586e0af">
   <rect height="266.112" width="357.12" x="46.965625" y="22.318125"/>
  </clipPath>
 </defs>
</svg>
