<?xml version="1.0" encoding="utf-8" standalone="no"?>
<!DOCTYPE svg PUBLIC "-//W3C//DTD SVG 1.1//EN"
  "http://www.w3.org/Graphics/SVG/1.1/DTD/svg11.dtd">
<!-- Created with matplotlib (https://matplotlib.org/) -->
<svg height="325.986375pt" version="1.1" viewBox="0 0 404.923125 325.986375" width="404.923125pt" xmlns="http://www.w3.org/2000/svg" xmlns:xlink="http://www.w3.org/1999/xlink">
 <defs>
  <style type="text/css">
*{stroke-linecap:butt;stroke-linejoin:round;}
  </style>
 </defs>
 <g id="figure_1">
  <g id="patch_1">
   <path d="M 0 325.986375 
L 404.923125 325.986375 
L 404.923125 0 
L 0 0 
z
" style="fill:#ffffff;"/>
  </g>
  <g id="axes_1">
   <g id="patch_2">
    <path d="M 40.603125 288.430125 
L 397.723125 288.430125 
L 397.723125 22.318125 
L 40.603125 22.318125 
z
" style="fill:#ffffff;"/>
   </g>
   <g id="matplotlib.axis_1">
    <g id="xtick_1">
     <g id="line2d_1">
      <path clip-path="url(#p0e3152618c)" d="M 56.835852 288.430125 
L 56.835852 22.318125 
" style="fill:none;stroke:#b0b0b0;stroke-dasharray:2.96,1.28;stroke-dashoffset:0;stroke-width:0.8;"/>
     </g>
     <g id="line2d_2">
      <defs>
       <path d="M 0 0 
L 0 3.5 
" id="m099352853b" style="stroke:#000000;stroke-width:0.8;"/>
      </defs>
      <g>
       <use style="stroke:#000000;stroke-width:0.8;" x="56.835852" xlink:href="#m099352853b" y="288.430125"/>
      </g>
     </g>
     <g id="text_1">
      <!-- 0 -->
      <defs>
       <path d="M 31.78125 66.40625 
Q 24.171875 66.40625 20.328125 58.90625 
Q 16.5 51.421875 16.5 36.375 
Q 16.5 21.390625 20.328125 13.890625 
Q 24.171875 6.390625 31.78125 6.390625 
Q 39.453125 6.390625 43.28125 13.890625 
Q 47.125 21.390625 47.125 36.375 
Q 47.125 51.421875 43.28125 58.90625 
Q 39.453125 66.40625 31.78125 66.40625 
z
M 31.78125 74.21875 
Q 44.046875 74.21875 50.515625 64.515625 
Q 56.984375 54.828125 56.984375 36.375 
Q 56.984375 17.96875 50.515625 8.265625 
Q 44.046875 -1.421875 31.78125 -1.421875 
Q 19.53125 -1.421875 13.0625 8.265625 
Q 6.59375 17.96875 6.59375 36.375 
Q 6.59375 54.828125 13.0625 64.515625 
Q 19.53125 74.21875 31.78125 74.21875 
z
" id="DejaVuSans-48"/>
      </defs>
      <g transform="translate(53.654602 303.028562)scale(0.1 -0.1)">
       <use xlink:href="#DejaVuSans-48"/>
      </g>
     </g>
    </g>
    <g id="xtick_2">
     <g id="line2d_3">
      <path clip-path="url(#p0e3152618c)" d="M 105.766454 288.430125 
L 105.766454 22.318125 
" style="fill:none;stroke:#b0b0b0;stroke-dasharray:2.96,1.28;stroke-dashoffset:0;stroke-width:0.8;"/>
     </g>
     <g id="line2d_4">
      <g>
       <use style="stroke:#000000;stroke-width:0.8;" x="105.766454" xlink:href="#m099352853b" y="288.430125"/>
      </g>
     </g>
     <g id="text_2">
      <!-- 200 -->
      <defs>
       <path d="M 19.1875 8.296875 
L 53.609375 8.296875 
L 53.609375 0 
L 7.328125 0 
L 7.328125 8.296875 
Q 12.9375 14.109375 22.625 23.890625 
Q 32.328125 33.6875 34.8125 36.53125 
Q 39.546875 41.84375 41.421875 45.53125 
Q 43.3125 49.21875 43.3125 52.78125 
Q 43.3125 58.59375 39.234375 62.25 
Q 35.15625 65.921875 28.609375 65.921875 
Q 23.96875 65.921875 18.8125 64.3125 
Q 13.671875 62.703125 7.8125 59.421875 
L 7.8125 69.390625 
Q 13.765625 71.78125 18.9375 73 
Q 24.125 74.21875 28.421875 74.21875 
Q 39.75 74.21875 46.484375 68.546875 
Q 53.21875 62.890625 53.21875 53.421875 
Q 53.21875 48.921875 51.53125 44.890625 
Q 49.859375 40.875 45.40625 35.40625 
Q 44.1875 33.984375 37.640625 27.21875 
Q 31.109375 20.453125 19.1875 8.296875 
z
" id="DejaVuSans-50"/>
      </defs>
      <g transform="translate(96.222704 303.028562)scale(0.1 -0.1)">
       <use xlink:href="#DejaVuSans-50"/>
       <use x="63.623047" xlink:href="#DejaVuSans-48"/>
       <use x="127.246094" xlink:href="#DejaVuSans-48"/>
      </g>
     </g>
    </g>
    <g id="xtick_3">
     <g id="line2d_5">
      <path clip-path="url(#p0e3152618c)" d="M 154.697057 288.430125 
L 154.697057 22.318125 
" style="fill:none;stroke:#b0b0b0;stroke-dasharray:2.96,1.28;stroke-dashoffset:0;stroke-width:0.8;"/>
     </g>
     <g id="line2d_6">
      <g>
       <use style="stroke:#000000;stroke-width:0.8;" x="154.697057" xlink:href="#m099352853b" y="288.430125"/>
      </g>
     </g>
     <g id="text_3">
      <!-- 400 -->
      <defs>
       <path d="M 37.796875 64.3125 
L 12.890625 25.390625 
L 37.796875 25.390625 
z
M 35.203125 72.90625 
L 47.609375 72.90625 
L 47.609375 25.390625 
L 58.015625 25.390625 
L 58.015625 17.1875 
L 47.609375 17.1875 
L 47.609375 0 
L 37.796875 0 
L 37.796875 17.1875 
L 4.890625 17.1875 
L 4.890625 26.703125 
z
" id="DejaVuSans-52"/>
      </defs>
      <g transform="translate(145.153307 303.028562)scale(0.1 -0.1)">
       <use xlink:href="#DejaVuSans-52"/>
       <use x="63.623047" xlink:href="#DejaVuSans-48"/>
       <use x="127.246094" xlink:href="#DejaVuSans-48"/>
      </g>
     </g>
    </g>
    <g id="xtick_4">
     <g id="line2d_7">
      <path clip-path="url(#p0e3152618c)" d="M 203.627659 288.430125 
L 203.627659 22.318125 
" style="fill:none;stroke:#b0b0b0;stroke-dasharray:2.96,1.28;stroke-dashoffset:0;stroke-width:0.8;"/>
     </g>
     <g id="line2d_8">
      <g>
       <use style="stroke:#000000;stroke-width:0.8;" x="203.627659" xlink:href="#m099352853b" y="288.430125"/>
      </g>
     </g>
     <g id="text_4">
      <!-- 600 -->
      <defs>
       <path d="M 33.015625 40.375 
Q 26.375 40.375 22.484375 35.828125 
Q 18.609375 31.296875 18.609375 23.390625 
Q 18.609375 15.53125 22.484375 10.953125 
Q 26.375 6.390625 33.015625 6.390625 
Q 39.65625 6.390625 43.53125 10.953125 
Q 47.40625 15.53125 47.40625 23.390625 
Q 47.40625 31.296875 43.53125 35.828125 
Q 39.65625 40.375 33.015625 40.375 
z
M 52.59375 71.296875 
L 52.59375 62.3125 
Q 48.875 64.0625 45.09375 64.984375 
Q 41.3125 65.921875 37.59375 65.921875 
Q 27.828125 65.921875 22.671875 59.328125 
Q 17.53125 52.734375 16.796875 39.40625 
Q 19.671875 43.65625 24.015625 45.921875 
Q 28.375 48.1875 33.59375 48.1875 
Q 44.578125 48.1875 50.953125 41.515625 
Q 57.328125 34.859375 57.328125 23.390625 
Q 57.328125 12.15625 50.6875 5.359375 
Q 44.046875 -1.421875 33.015625 -1.421875 
Q 20.359375 -1.421875 13.671875 8.265625 
Q 6.984375 17.96875 6.984375 36.375 
Q 6.984375 53.65625 15.1875 63.9375 
Q 23.390625 74.21875 37.203125 74.21875 
Q 40.921875 74.21875 44.703125 73.484375 
Q 48.484375 72.75 52.59375 71.296875 
z
" id="DejaVuSans-54"/>
      </defs>
      <g transform="translate(194.083909 303.028562)scale(0.1 -0.1)">
       <use xlink:href="#DejaVuSans-54"/>
       <use x="63.623047" xlink:href="#DejaVuSans-48"/>
       <use x="127.246094" xlink:href="#DejaVuSans-48"/>
      </g>
     </g>
    </g>
    <g id="xtick_5">
     <g id="line2d_9">
      <path clip-path="url(#p0e3152618c)" d="M 252.558261 288.430125 
L 252.558261 22.318125 
" style="fill:none;stroke:#b0b0b0;stroke-dasharray:2.96,1.28;stroke-dashoffset:0;stroke-width:0.8;"/>
     </g>
     <g id="line2d_10">
      <g>
       <use style="stroke:#000000;stroke-width:0.8;" x="252.558261" xlink:href="#m099352853b" y="288.430125"/>
      </g>
     </g>
     <g id="text_5">
      <!-- 800 -->
      <defs>
       <path d="M 31.78125 34.625 
Q 24.75 34.625 20.71875 30.859375 
Q 16.703125 27.09375 16.703125 20.515625 
Q 16.703125 13.921875 20.71875 10.15625 
Q 24.75 6.390625 31.78125 6.390625 
Q 38.8125 6.390625 42.859375 10.171875 
Q 46.921875 13.96875 46.921875 20.515625 
Q 46.921875 27.09375 42.890625 30.859375 
Q 38.875 34.625 31.78125 34.625 
z
M 21.921875 38.8125 
Q 15.578125 40.375 12.03125 44.71875 
Q 8.5 49.078125 8.5 55.328125 
Q 8.5 64.0625 14.71875 69.140625 
Q 20.953125 74.21875 31.78125 74.21875 
Q 42.671875 74.21875 48.875 69.140625 
Q 55.078125 64.0625 55.078125 55.328125 
Q 55.078125 49.078125 51.53125 44.71875 
Q 48 40.375 41.703125 38.8125 
Q 48.828125 37.15625 52.796875 32.3125 
Q 56.78125 27.484375 56.78125 20.515625 
Q 56.78125 9.90625 50.3125 4.234375 
Q 43.84375 -1.421875 31.78125 -1.421875 
Q 19.734375 -1.421875 13.25 4.234375 
Q 6.78125 9.90625 6.78125 20.515625 
Q 6.78125 27.484375 10.78125 32.3125 
Q 14.796875 37.15625 21.921875 38.8125 
z
M 18.3125 54.390625 
Q 18.3125 48.734375 21.84375 45.5625 
Q 25.390625 42.390625 31.78125 42.390625 
Q 38.140625 42.390625 41.71875 45.5625 
Q 45.3125 48.734375 45.3125 54.390625 
Q 45.3125 60.0625 41.71875 63.234375 
Q 38.140625 66.40625 31.78125 66.40625 
Q 25.390625 66.40625 21.84375 63.234375 
Q 18.3125 60.0625 18.3125 54.390625 
z
" id="DejaVuSans-56"/>
      </defs>
      <g transform="translate(243.014511 303.028562)scale(0.1 -0.1)">
       <use xlink:href="#DejaVuSans-56"/>
       <use x="63.623047" xlink:href="#DejaVuSans-48"/>
       <use x="127.246094" xlink:href="#DejaVuSans-48"/>
      </g>
     </g>
    </g>
    <g id="xtick_6">
     <g id="line2d_11">
      <path clip-path="url(#p0e3152618c)" d="M 301.488863 288.430125 
L 301.488863 22.318125 
" style="fill:none;stroke:#b0b0b0;stroke-dasharray:2.96,1.28;stroke-dashoffset:0;stroke-width:0.8;"/>
     </g>
     <g id="line2d_12">
      <g>
       <use style="stroke:#000000;stroke-width:0.8;" x="301.488863" xlink:href="#m099352853b" y="288.430125"/>
      </g>
     </g>
     <g id="text_6">
      <!-- 1000 -->
      <defs>
       <path d="M 12.40625 8.296875 
L 28.515625 8.296875 
L 28.515625 63.921875 
L 10.984375 60.40625 
L 10.984375 69.390625 
L 28.421875 72.90625 
L 38.28125 72.90625 
L 38.28125 8.296875 
L 54.390625 8.296875 
L 54.390625 0 
L 12.40625 0 
z
" id="DejaVuSans-49"/>
      </defs>
      <g transform="translate(288.763863 303.028562)scale(0.1 -0.1)">
       <use xlink:href="#DejaVuSans-49"/>
       <use x="63.623047" xlink:href="#DejaVuSans-48"/>
       <use x="127.246094" xlink:href="#DejaVuSans-48"/>
       <use x="190.869141" xlink:href="#DejaVuSans-48"/>
      </g>
     </g>
    </g>
    <g id="xtick_7">
     <g id="line2d_13">
      <path clip-path="url(#p0e3152618c)" d="M 350.419465 288.430125 
L 350.419465 22.318125 
" style="fill:none;stroke:#b0b0b0;stroke-dasharray:2.96,1.28;stroke-dashoffset:0;stroke-width:0.8;"/>
     </g>
     <g id="line2d_14">
      <g>
       <use style="stroke:#000000;stroke-width:0.8;" x="350.419465" xlink:href="#m099352853b" y="288.430125"/>
      </g>
     </g>
     <g id="text_7">
      <!-- 1200 -->
      <g transform="translate(337.694465 303.028562)scale(0.1 -0.1)">
       <use xlink:href="#DejaVuSans-49"/>
       <use x="63.623047" xlink:href="#DejaVuSans-50"/>
       <use x="127.246094" xlink:href="#DejaVuSans-48"/>
       <use x="190.869141" xlink:href="#DejaVuSans-48"/>
      </g>
     </g>
    </g>
    <g id="text_8">
     <!-- Day -->
     <defs>
      <path d="M 19.671875 64.796875 
L 19.671875 8.109375 
L 31.59375 8.109375 
Q 46.6875 8.109375 53.6875 14.9375 
Q 60.6875 21.78125 60.6875 36.53125 
Q 60.6875 51.171875 53.6875 57.984375 
Q 46.6875 64.796875 31.59375 64.796875 
z
M 9.8125 72.90625 
L 30.078125 72.90625 
Q 51.265625 72.90625 61.171875 64.09375 
Q 71.09375 55.28125 71.09375 36.53125 
Q 71.09375 17.671875 61.125 8.828125 
Q 51.171875 0 30.078125 0 
L 9.8125 0 
z
" id="DejaVuSans-68"/>
      <path d="M 34.28125 27.484375 
Q 23.390625 27.484375 19.1875 25 
Q 14.984375 22.515625 14.984375 16.5 
Q 14.984375 11.71875 18.140625 8.90625 
Q 21.296875 6.109375 26.703125 6.109375 
Q 34.1875 6.109375 38.703125 11.40625 
Q 43.21875 16.703125 43.21875 25.484375 
L 43.21875 27.484375 
z
M 52.203125 31.203125 
L 52.203125 0 
L 43.21875 0 
L 43.21875 8.296875 
Q 40.140625 3.328125 35.546875 0.953125 
Q 30.953125 -1.421875 24.3125 -1.421875 
Q 15.921875 -1.421875 10.953125 3.296875 
Q 6 8.015625 6 15.921875 
Q 6 25.140625 12.171875 29.828125 
Q 18.359375 34.515625 30.609375 34.515625 
L 43.21875 34.515625 
L 43.21875 35.40625 
Q 43.21875 41.609375 39.140625 45 
Q 35.0625 48.390625 27.6875 48.390625 
Q 23 48.390625 18.546875 47.265625 
Q 14.109375 46.140625 10.015625 43.890625 
L 10.015625 52.203125 
Q 14.9375 54.109375 19.578125 55.046875 
Q 24.21875 56 28.609375 56 
Q 40.484375 56 46.34375 49.84375 
Q 52.203125 43.703125 52.203125 31.203125 
z
" id="DejaVuSans-97"/>
      <path d="M 32.171875 -5.078125 
Q 28.375 -14.84375 24.75 -17.8125 
Q 21.140625 -20.796875 15.09375 -20.796875 
L 7.90625 -20.796875 
L 7.90625 -13.28125 
L 13.1875 -13.28125 
Q 16.890625 -13.28125 18.9375 -11.515625 
Q 21 -9.765625 23.484375 -3.21875 
L 25.09375 0.875 
L 2.984375 54.6875 
L 12.5 54.6875 
L 29.59375 11.921875 
L 46.6875 54.6875 
L 56.203125 54.6875 
z
" id="DejaVuSans-121"/>
     </defs>
     <g transform="translate(209.289688 316.706687)scale(0.1 -0.1)">
      <use xlink:href="#DejaVuSans-68"/>
      <use x="77.001953" xlink:href="#DejaVuSans-97"/>
      <use x="138.28125" xlink:href="#DejaVuSans-121"/>
     </g>
    </g>
   </g>
   <g id="matplotlib.axis_2">
    <g id="ytick_1">
     <g id="line2d_15">
      <path clip-path="url(#p0e3152618c)" d="M 40.603125 254.134332 
L 397.723125 254.134332 
" style="fill:none;stroke:#b0b0b0;stroke-dasharray:2.96,1.28;stroke-dashoffset:0;stroke-width:0.8;"/>
     </g>
     <g id="line2d_16">
      <defs>
       <path d="M 0 0 
L -3.5 0 
" id="mff4c9ca97a" style="stroke:#000000;stroke-width:0.8;"/>
      </defs>
      <g>
       <use style="stroke:#000000;stroke-width:0.8;" x="40.603125" xlink:href="#mff4c9ca97a" y="254.134332"/>
      </g>
     </g>
     <g id="text_9">
      <!-- 35 -->
      <defs>
       <path d="M 40.578125 39.3125 
Q 47.65625 37.796875 51.625 33 
Q 55.609375 28.21875 55.609375 21.1875 
Q 55.609375 10.40625 48.1875 4.484375 
Q 40.765625 -1.421875 27.09375 -1.421875 
Q 22.515625 -1.421875 17.65625 -0.515625 
Q 12.796875 0.390625 7.625 2.203125 
L 7.625 11.71875 
Q 11.71875 9.328125 16.59375 8.109375 
Q 21.484375 6.890625 26.8125 6.890625 
Q 36.078125 6.890625 40.9375 10.546875 
Q 45.796875 14.203125 45.796875 21.1875 
Q 45.796875 27.640625 41.28125 31.265625 
Q 36.765625 34.90625 28.71875 34.90625 
L 20.21875 34.90625 
L 20.21875 43.015625 
L 29.109375 43.015625 
Q 36.375 43.015625 40.234375 45.921875 
Q 44.09375 48.828125 44.09375 54.296875 
Q 44.09375 59.90625 40.109375 62.90625 
Q 36.140625 65.921875 28.71875 65.921875 
Q 24.65625 65.921875 20.015625 65.03125 
Q 15.375 64.15625 9.8125 62.3125 
L 9.8125 71.09375 
Q 15.4375 72.65625 20.34375 73.4375 
Q 25.25 74.21875 29.59375 74.21875 
Q 40.828125 74.21875 47.359375 69.109375 
Q 53.90625 64.015625 53.90625 55.328125 
Q 53.90625 49.265625 50.4375 45.09375 
Q 46.96875 40.921875 40.578125 39.3125 
z
" id="DejaVuSans-51"/>
       <path d="M 10.796875 72.90625 
L 49.515625 72.90625 
L 49.515625 64.59375 
L 19.828125 64.59375 
L 19.828125 46.734375 
Q 21.96875 47.46875 24.109375 47.828125 
Q 26.265625 48.1875 28.421875 48.1875 
Q 40.625 48.1875 47.75 41.5 
Q 54.890625 34.8125 54.890625 23.390625 
Q 54.890625 11.625 47.5625 5.09375 
Q 40.234375 -1.421875 26.90625 -1.421875 
Q 22.3125 -1.421875 17.546875 -0.640625 
Q 12.796875 0.140625 7.71875 1.703125 
L 7.71875 11.625 
Q 12.109375 9.234375 16.796875 8.0625 
Q 21.484375 6.890625 26.703125 6.890625 
Q 35.15625 6.890625 40.078125 11.328125 
Q 45.015625 15.765625 45.015625 23.390625 
Q 45.015625 31 40.078125 35.4375 
Q 35.15625 39.890625 26.703125 39.890625 
Q 22.75 39.890625 18.8125 39.015625 
Q 14.890625 38.140625 10.796875 36.28125 
z
" id="DejaVuSans-53"/>
      </defs>
      <g transform="translate(20.878125 257.933551)scale(0.1 -0.1)">
       <use xlink:href="#DejaVuSans-51"/>
       <use x="63.623047" xlink:href="#DejaVuSans-53"/>
      </g>
     </g>
    </g>
    <g id="ytick_2">
     <g id="line2d_17">
      <path clip-path="url(#p0e3152618c)" d="M 40.603125 213.325889 
L 397.723125 213.325889 
" style="fill:none;stroke:#b0b0b0;stroke-dasharray:2.96,1.28;stroke-dashoffset:0;stroke-width:0.8;"/>
     </g>
     <g id="line2d_18">
      <g>
       <use style="stroke:#000000;stroke-width:0.8;" x="40.603125" xlink:href="#mff4c9ca97a" y="213.325889"/>
      </g>
     </g>
     <g id="text_10">
      <!-- 40 -->
      <g transform="translate(20.878125 217.125108)scale(0.1 -0.1)">
       <use xlink:href="#DejaVuSans-52"/>
       <use x="63.623047" xlink:href="#DejaVuSans-48"/>
      </g>
     </g>
    </g>
    <g id="ytick_3">
     <g id="line2d_19">
      <path clip-path="url(#p0e3152618c)" d="M 40.603125 172.517446 
L 397.723125 172.517446 
" style="fill:none;stroke:#b0b0b0;stroke-dasharray:2.96,1.28;stroke-dashoffset:0;stroke-width:0.8;"/>
     </g>
     <g id="line2d_20">
      <g>
       <use style="stroke:#000000;stroke-width:0.8;" x="40.603125" xlink:href="#mff4c9ca97a" y="172.517446"/>
      </g>
     </g>
     <g id="text_11">
      <!-- 45 -->
      <g transform="translate(20.878125 176.316665)scale(0.1 -0.1)">
       <use xlink:href="#DejaVuSans-52"/>
       <use x="63.623047" xlink:href="#DejaVuSans-53"/>
      </g>
     </g>
    </g>
    <g id="ytick_4">
     <g id="line2d_21">
      <path clip-path="url(#p0e3152618c)" d="M 40.603125 131.709003 
L 397.723125 131.709003 
" style="fill:none;stroke:#b0b0b0;stroke-dasharray:2.96,1.28;stroke-dashoffset:0;stroke-width:0.8;"/>
     </g>
     <g id="line2d_22">
      <g>
       <use style="stroke:#000000;stroke-width:0.8;" x="40.603125" xlink:href="#mff4c9ca97a" y="131.709003"/>
      </g>
     </g>
     <g id="text_12">
      <!-- 50 -->
      <g transform="translate(20.878125 135.508222)scale(0.1 -0.1)">
       <use xlink:href="#DejaVuSans-53"/>
       <use x="63.623047" xlink:href="#DejaVuSans-48"/>
      </g>
     </g>
    </g>
    <g id="ytick_5">
     <g id="line2d_23">
      <path clip-path="url(#p0e3152618c)" d="M 40.603125 90.900561 
L 397.723125 90.900561 
" style="fill:none;stroke:#b0b0b0;stroke-dasharray:2.96,1.28;stroke-dashoffset:0;stroke-width:0.8;"/>
     </g>
     <g id="line2d_24">
      <g>
       <use style="stroke:#000000;stroke-width:0.8;" x="40.603125" xlink:href="#mff4c9ca97a" y="90.900561"/>
      </g>
     </g>
     <g id="text_13">
      <!-- 55 -->
      <g transform="translate(20.878125 94.699779)scale(0.1 -0.1)">
       <use xlink:href="#DejaVuSans-53"/>
       <use x="63.623047" xlink:href="#DejaVuSans-53"/>
      </g>
     </g>
    </g>
    <g id="ytick_6">
     <g id="line2d_25">
      <path clip-path="url(#p0e3152618c)" d="M 40.603125 50.092118 
L 397.723125 50.092118 
" style="fill:none;stroke:#b0b0b0;stroke-dasharray:2.96,1.28;stroke-dashoffset:0;stroke-width:0.8;"/>
     </g>
     <g id="line2d_26">
      <g>
       <use style="stroke:#000000;stroke-width:0.8;" x="40.603125" xlink:href="#mff4c9ca97a" y="50.092118"/>
      </g>
     </g>
     <g id="text_14">
      <!-- 60 -->
      <g transform="translate(20.878125 53.891337)scale(0.1 -0.1)">
       <use xlink:href="#DejaVuSans-54"/>
       <use x="63.623047" xlink:href="#DejaVuSans-48"/>
      </g>
     </g>
    </g>
    <g id="text_15">
     <!-- Price $ -->
     <defs>
      <path d="M 19.671875 64.796875 
L 19.671875 37.40625 
L 32.078125 37.40625 
Q 38.96875 37.40625 42.71875 40.96875 
Q 46.484375 44.53125 46.484375 51.125 
Q 46.484375 57.671875 42.71875 61.234375 
Q 38.96875 64.796875 32.078125 64.796875 
z
M 9.8125 72.90625 
L 32.078125 72.90625 
Q 44.34375 72.90625 50.609375 67.359375 
Q 56.890625 61.8125 56.890625 51.125 
Q 56.890625 40.328125 50.609375 34.8125 
Q 44.34375 29.296875 32.078125 29.296875 
L 19.671875 29.296875 
L 19.671875 0 
L 9.8125 0 
z
" id="DejaVuSans-80"/>
      <path d="M 41.109375 46.296875 
Q 39.59375 47.171875 37.8125 47.578125 
Q 36.03125 48 33.890625 48 
Q 26.265625 48 22.1875 43.046875 
Q 18.109375 38.09375 18.109375 28.8125 
L 18.109375 0 
L 9.078125 0 
L 9.078125 54.6875 
L 18.109375 54.6875 
L 18.109375 46.1875 
Q 20.953125 51.171875 25.484375 53.578125 
Q 30.03125 56 36.53125 56 
Q 37.453125 56 38.578125 55.875 
Q 39.703125 55.765625 41.0625 55.515625 
z
" id="DejaVuSans-114"/>
      <path d="M 9.421875 54.6875 
L 18.40625 54.6875 
L 18.40625 0 
L 9.421875 0 
z
M 9.421875 75.984375 
L 18.40625 75.984375 
L 18.40625 64.59375 
L 9.421875 64.59375 
z
" id="DejaVuSans-105"/>
      <path d="M 48.78125 52.59375 
L 48.78125 44.1875 
Q 44.96875 46.296875 41.140625 47.34375 
Q 37.3125 48.390625 33.40625 48.390625 
Q 24.65625 48.390625 19.8125 42.84375 
Q 14.984375 37.3125 14.984375 27.296875 
Q 14.984375 17.28125 19.8125 11.734375 
Q 24.65625 6.203125 33.40625 6.203125 
Q 37.3125 6.203125 41.140625 7.25 
Q 44.96875 8.296875 48.78125 10.40625 
L 48.78125 2.09375 
Q 45.015625 0.34375 40.984375 -0.53125 
Q 36.96875 -1.421875 32.421875 -1.421875 
Q 20.0625 -1.421875 12.78125 6.34375 
Q 5.515625 14.109375 5.515625 27.296875 
Q 5.515625 40.671875 12.859375 48.328125 
Q 20.21875 56 33.015625 56 
Q 37.15625 56 41.109375 55.140625 
Q 45.0625 54.296875 48.78125 52.59375 
z
" id="DejaVuSans-99"/>
      <path d="M 56.203125 29.59375 
L 56.203125 25.203125 
L 14.890625 25.203125 
Q 15.484375 15.921875 20.484375 11.0625 
Q 25.484375 6.203125 34.421875 6.203125 
Q 39.59375 6.203125 44.453125 7.46875 
Q 49.3125 8.734375 54.109375 11.28125 
L 54.109375 2.78125 
Q 49.265625 0.734375 44.1875 -0.34375 
Q 39.109375 -1.421875 33.890625 -1.421875 
Q 20.796875 -1.421875 13.15625 6.1875 
Q 5.515625 13.8125 5.515625 26.8125 
Q 5.515625 40.234375 12.765625 48.109375 
Q 20.015625 56 32.328125 56 
Q 43.359375 56 49.78125 48.890625 
Q 56.203125 41.796875 56.203125 29.59375 
z
M 47.21875 32.234375 
Q 47.125 39.59375 43.09375 43.984375 
Q 39.0625 48.390625 32.421875 48.390625 
Q 24.90625 48.390625 20.390625 44.140625 
Q 15.875 39.890625 15.1875 32.171875 
z
" id="DejaVuSans-101"/>
      <path id="DejaVuSans-32"/>
      <path d="M 33.796875 -14.703125 
L 28.90625 -14.703125 
L 28.859375 0 
Q 23.734375 0.09375 18.609375 1.1875 
Q 13.484375 2.296875 8.296875 4.5 
L 8.296875 13.28125 
Q 13.28125 10.15625 18.375 8.5625 
Q 23.484375 6.984375 28.90625 6.9375 
L 28.90625 29.203125 
Q 18.109375 30.953125 13.203125 35.15625 
Q 8.296875 39.359375 8.296875 46.6875 
Q 8.296875 54.640625 13.625 59.21875 
Q 18.953125 63.8125 28.90625 64.5 
L 28.90625 75.984375 
L 33.796875 75.984375 
L 33.796875 64.65625 
Q 38.328125 64.453125 42.578125 63.6875 
Q 46.828125 62.9375 50.875 61.625 
L 50.875 53.078125 
Q 46.828125 55.125 42.546875 56.25 
Q 38.28125 57.375 33.796875 57.5625 
L 33.796875 36.71875 
Q 44.875 35.015625 50.09375 30.609375 
Q 55.328125 26.21875 55.328125 18.609375 
Q 55.328125 10.359375 49.78125 5.59375 
Q 44.234375 0.828125 33.796875 0.09375 
z
M 28.90625 37.59375 
L 28.90625 57.625 
Q 23.25 56.984375 20.265625 54.390625 
Q 17.28125 51.8125 17.28125 47.515625 
Q 17.28125 43.3125 20.03125 40.96875 
Q 22.796875 38.625 28.90625 37.59375 
z
M 33.796875 28.21875 
L 33.796875 7.078125 
Q 39.984375 7.90625 43.140625 10.59375 
Q 46.296875 13.28125 46.296875 17.671875 
Q 46.296875 21.96875 43.28125 24.5 
Q 40.28125 27.046875 33.796875 28.21875 
z
" id="DejaVuSans-36"/>
     </defs>
     <g transform="translate(14.798438 172.342094)rotate(-90)scale(0.1 -0.1)">
      <use xlink:href="#DejaVuSans-80"/>
      <use x="58.552734" xlink:href="#DejaVuSans-114"/>
      <use x="99.666016" xlink:href="#DejaVuSans-105"/>
      <use x="127.449219" xlink:href="#DejaVuSans-99"/>
      <use x="182.429688" xlink:href="#DejaVuSans-101"/>
      <use x="243.953125" xlink:href="#DejaVuSans-32"/>
      <use x="275.740234" xlink:href="#DejaVuSans-36"/>
     </g>
    </g>
   </g>
   <g id="line2d_27">
    <path clip-path="url(#p0e3152618c)" d="M 56.835852 223.295395 
L 57.080505 223.991404 
L 57.325158 223.710665 
L 57.569811 219.214302 
L 57.814464 210.828041 
L 58.059117 212.37847 
L 58.548423 206.567115 
L 58.793076 200.884875 
L 59.037729 200.097767 
L 59.282382 201.928188 
L 59.527035 206.205614 
L 59.771688 202.687617 
L 60.260994 202.924986 
L 60.505647 203.629401 
L 60.7503 200.051937 
L 60.994953 200.918438 
L 61.239606 204.430457 
L 61.484259 211.708926 
L 61.728912 210.904164 
L 61.973566 210.978295 
L 62.218219 209.086135 
L 62.707525 214.198959 
L 62.952178 210.461901 
L 63.196831 213.237686 
L 63.686137 206.687605 
L 63.93079 203.064841 
L 64.175443 208.8549 
L 64.420096 210.840899 
L 64.909402 198.287646 
L 65.154055 193.438343 
L 65.643361 199.50858 
L 65.888014 197.612839 
L 66.132667 197.708671 
L 66.37732 198.495997 
L 66.621973 200.049851 
L 66.866626 205.884214 
L 67.111279 205.322239 
L 67.355932 198.384038 
L 67.600585 199.791903 
L 67.845238 198.105167 
L 68.089891 199.371153 
L 68.579197 190.512708 
L 68.82385 191.762099 
L 69.068503 197.106563 
L 69.313156 210.133122 
L 69.557809 211.791494 
L 69.802462 210.679935 
L 70.047115 212.698999 
L 70.291768 212.116786 
L 70.536421 216.443529 
L 70.781074 215.463606 
L 71.025727 219.053212 
L 71.27038 219.62403 
L 71.515033 219.515931 
L 72.004339 221.003563 
L 72.248992 220.347873 
L 72.493645 220.971557 
L 73.227604 233.718965 
L 73.472257 233.153658 
L 73.71691 234.206778 
L 74.206216 241.544122 
L 74.450869 238.584831 
L 74.695522 244.227002 
L 74.940175 245.949697 
L 75.184828 244.802147 
L 75.429481 237.903082 
L 75.918787 231.649681 
L 76.408093 228.220386 
L 76.652746 226.048981 
L 76.897399 228.747086 
L 77.142052 228.217116 
L 77.386705 222.100489 
L 77.631358 223.048904 
L 77.876011 223.388985 
L 78.365317 212.414337 
L 78.60997 211.572868 
L 78.854623 198.926274 
L 79.099276 197.035483 
L 79.343929 194.11262 
L 79.588582 198.068055 
L 79.833235 205.493135 
L 80.077888 206.379718 
L 80.322541 200.044745 
L 80.567194 198.218403 
L 80.811847 195.421478 
L 81.0565 202.464228 
L 81.301153 205.967032 
L 81.545806 207.079338 
L 81.790459 206.485357 
L 82.035112 211.325693 
L 82.279765 206.592397 
L 82.524418 208.795278 
L 82.769071 198.339079 
L 83.013724 196.044539 
L 83.258377 195.700473 
L 83.50303 196.360366 
L 83.747683 197.932122 
L 83.992336 196.177451 
L 84.236989 213.430096 
L 84.481643 216.762781 
L 84.726296 216.564736 
L 84.970949 212.587382 
L 85.215602 214.282493 
L 85.460255 213.906919 
L 85.949561 218.964075 
L 86.194214 226.0808 
L 86.438867 224.115443 
L 86.68352 224.298607 
L 86.928173 223.049838 
L 87.172826 227.977288 
L 87.417479 224.75018 
L 87.662132 229.874057 
L 87.906785 229.178701 
L 88.151438 225.947203 
L 88.396091 226.767469 
L 88.640744 231.906975 
L 88.885397 230.783305 
L 89.13005 227.680173 
L 89.374703 226.026066 
L 89.864009 231.640776 
L 90.353315 221.88012 
L 90.597968 220.616002 
L 90.842621 223.04193 
L 91.087274 248.749954 
L 91.57658 254.284555 
L 91.821233 257.309384 
L 92.065886 257.261686 
L 92.310539 257.075036 
L 92.555192 257.415397 
L 92.799845 251.83263 
L 93.044498 249.789655 
L 93.533804 249.303274 
L 93.778457 251.296216 
L 94.02311 249.632769 
L 94.267763 250.042435 
L 94.512416 248.023589 
L 94.757069 255.055411 
L 95.001722 256.648993 
L 95.246375 260.91957 
L 95.491028 260.653247 
L 95.980334 266.819627 
L 96.224987 266.714081 
L 96.46964 269.057628 
L 96.714293 267.839745 
L 97.203599 269.204675 
L 97.448252 269.398736 
L 97.692905 271.927936 
L 97.937558 262.001396 
L 98.182211 266.137971 
L 98.426864 266.883048 
L 98.671517 265.939863 
L 99.160823 262.666613 
L 99.405476 258.541651 
L 99.650129 259.026507 
L 99.894782 258.358861 
L 100.139435 262.982876 
L 100.384088 264.920275 
L 100.628741 269.30306 
L 100.873394 265.194475 
L 101.3627 270.008503 
L 101.852006 261.087416 
L 102.096659 253.723763 
L 102.341312 255.709295 
L 102.585965 253.158612 
L 102.830618 254.661001 
L 103.075271 261.392999 
L 103.564577 253.852784 
L 103.80923 250.499955 
L 104.053883 249.050837 
L 104.543189 250.911084 
L 104.787842 245.644705 
L 105.032495 248.542007 
L 105.277148 248.576722 
L 105.766454 242.964472 
L 106.011107 239.397127 
L 106.25576 239.635803 
L 106.500413 240.044255 
L 106.98972 249.973535 
L 107.234373 251.586762 
L 107.479026 249.968055 
L 107.723679 251.628825 
L 107.968332 250.107381 
L 108.212985 254.532852 
L 108.457638 256.03465 
L 108.946944 259.989337 
L 109.191597 256.130201 
L 109.43625 256.115537 
L 109.680903 255.079821 
L 109.925556 259.716102 
L 110.170209 260.169637 
L 110.414862 258.072488 
L 110.659515 261.119297 
L 111.148821 249.84442 
L 111.638127 260.367153 
L 112.127433 256.184499 
L 112.616739 249.208719 
L 112.861392 245.987526 
L 113.106045 244.461163 
L 113.350698 244.88733 
L 113.595351 252.024916 
L 113.840004 252.115984 
L 114.084657 250.455962 
L 114.32931 252.392644 
L 114.573963 251.049632 
L 115.063269 243.168215 
L 115.307922 243.135711 
L 115.552575 239.179373 
L 115.797228 241.841019 
L 116.286534 241.087256 
L 116.531187 240.186539 
L 116.77584 235.069823 
L 117.020493 233.824884 
L 117.265146 236.873624 
L 117.509799 235.991275 
L 117.754452 238.855202 
L 117.999105 237.953364 
L 118.243758 235.189534 
L 118.488411 215.60066 
L 118.733064 214.288377 
L 118.977717 213.617494 
L 119.467023 220.200078 
L 119.711676 221.27876 
L 119.956329 220.306962 
L 120.200982 221.513544 
L 120.445635 217.573053 
L 121.424247 231.006289 
L 121.6689 229.189567 
L 121.913553 228.271602 
L 122.158206 210.53379 
L 122.402859 207.452484 
L 122.647512 209.262138 
L 122.892165 215.889369 
L 123.381471 213.404971 
L 123.626124 204.395804 
L 123.870777 205.701673 
L 124.11543 199.482583 
L 124.360083 196.51996 
L 124.604736 195.919254 
L 124.849389 195.839768 
L 125.094042 192.37912 
L 125.583348 189.316276 
L 125.828001 192.915939 
L 126.072654 190.733015 
L 126.317307 185.140099 
L 126.56196 174.925098 
L 126.806613 176.898924 
L 127.051266 176.76212 
L 127.295919 185.489925 
L 127.540572 182.884102 
L 127.785225 178.45558 
L 128.029878 170.054002 
L 128.274531 170.99426 
L 128.519184 173.200379 
L 128.763837 173.190011 
L 129.253143 156.665911 
L 129.497797 155.165078 
L 129.74245 157.78762 
L 130.231756 165.446488 
L 130.476409 160.176809 
L 130.721062 148.231111 
L 131.455021 153.651512 
L 131.699674 141.984622 
L 132.18898 138.807391 
L 132.433633 139.471892 
L 132.678286 138.306532 
L 132.922939 142.366953 
L 133.167592 139.905158 
L 133.412245 138.688395 
L 133.656898 147.37255 
L 133.901551 146.374756 
L 134.146204 147.42414 
L 134.390857 157.670368 
L 134.63551 156.775223 
L 134.880163 148.755414 
L 135.124816 149.067194 
L 135.369469 153.95171 
L 135.614122 162.289401 
L 135.858775 162.217418 
L 136.103428 165.102018 
L 136.348081 163.193543 
L 136.592734 162.756977 
L 136.837387 159.637904 
L 137.08204 151.958394 
L 137.326693 154.75068 
L 137.571346 152.231037 
L 137.815999 148.267445 
L 138.060652 146.290444 
L 138.305305 147.135866 
L 139.039264 141.484791 
L 140.017876 157.394299 
L 140.262529 146.342438 
L 140.507182 140.892522 
L 140.751835 139.081187 
L 140.996488 142.524991 
L 141.485794 155.913517 
L 141.730447 159.129449 
L 141.9751 159.794479 
L 142.219753 157.603616 
L 142.464406 164.288258 
L 142.709059 166.917992 
L 143.198365 160.823128 
L 143.443018 163.251204 
L 143.687671 163.003935 
L 143.932324 157.842634 
L 144.176977 158.131655 
L 144.666283 172.627413 
L 144.910936 161.308481 
L 145.155589 160.591799 
L 145.644895 170.32814 
L 145.889548 172.75522 
L 146.134201 172.241596 
L 146.378854 168.274517 
L 146.623507 160.800804 
L 146.86816 157.145442 
L 147.112813 157.006925 
L 147.357466 159.119922 
L 147.602119 159.963508 
L 148.336078 169.878248 
L 148.580731 168.281335 
L 149.070037 173.363523 
L 149.31469 170.571953 
L 149.559343 175.70847 
L 149.803996 183.706268 
L 150.293302 175.465716 
L 150.537955 168.601459 
L 150.782608 168.970743 
L 151.027261 170.35504 
L 151.271914 170.185731 
L 151.516567 165.397856 
L 151.76122 162.908788 
L 152.005874 162.513817 
L 152.250527 156.652025 
L 152.49518 119.472324 
L 152.739833 117.632874 
L 153.229139 116.324888 
L 153.473792 111.84157 
L 153.718445 115.011485 
L 154.207751 99.341587 
L 154.452404 93.847709 
L 154.697057 93.731578 
L 155.186363 101.888472 
L 155.431016 102.882281 
L 155.675669 106.271786 
L 155.920322 101.681023 
L 156.409628 117.655914 
L 156.654281 109.375261 
L 156.898934 96.686199 
L 157.143587 95.21046 
L 157.38824 94.746932 
L 157.632893 93.73933 
L 157.877546 93.766417 
L 158.122199 91.444198 
L 158.366852 94.477806 
L 158.611505 85.277351 
L 158.856158 80.877566 
L 159.100811 84.568577 
L 159.345464 84.59392 
L 159.590117 82.578188 
L 159.83477 75.450689 
L 160.079423 78.680009 
L 160.324076 83.576729 
L 160.813382 76.630184 
L 161.302688 89.870542 
L 161.547341 88.946879 
L 161.791994 88.946225 
L 162.036647 86.425555 
L 162.525953 79.89098 
L 162.770606 80.182585 
L 163.015259 83.129857 
L 163.259912 84.439774 
L 163.504565 90.694607 
L 163.749218 94.024085 
L 164.238524 87.744843 
L 164.483177 75.619624 
L 164.72783 75.466879 
L 164.972483 71.370561 
L 165.217136 71.770295 
L 165.461789 67.129032 
L 165.951095 83.663252 
L 166.195748 83.224319 
L 166.440401 77.829729 
L 166.685054 86.417024 
L 166.929707 82.663091 
L 167.17436 89.229174 
L 167.419013 88.658699 
L 167.663666 94.690018 
L 168.397625 81.594995 
L 168.642278 68.729713 
L 168.886931 69.078137 
L 169.131584 68.078911 
L 169.62089 58.625675 
L 169.865543 58.812513 
L 170.110196 65.654664 
L 170.354849 62.597736 
L 171.088808 45.987985 
L 171.333461 45.165726 
L 171.578114 53.243632 
L 171.822767 54.524936 
L 172.06742 54.60984 
L 172.312073 48.17972 
L 172.556726 45.931445 
L 172.801379 41.092634 
L 173.046032 40.348025 
L 173.290685 50.836292 
L 173.535338 54.903374 
L 173.779991 50.391163 
L 174.024644 49.455762 
L 174.269298 56.191372 
L 174.513951 45.672656 
L 174.758604 43.168954 
L 175.003257 37.041679 
L 175.24791 37.886043 
L 175.492563 34.414125 
L 175.737216 41.339468 
L 176.471175 69.556424 
L 176.960481 66.596635 
L 177.449787 85.69533 
L 177.939093 74.546174 
L 178.183746 74.384835 
L 178.428399 73.290587 
L 178.917705 68.915896 
L 179.162358 72.794772 
L 179.651664 70.714778 
L 179.896317 94.089779 
L 180.385623 91.650307 
L 180.630276 90.442325 
L 180.874929 97.972951 
L 181.119582 88.892113 
L 181.608888 89.482795 
L 182.098194 85.033351 
L 182.342847 81.866269 
L 182.5875 81.686561 
L 182.832153 78.853116 
L 183.076806 78.835463 
L 183.321459 76.308348 
L 183.566112 71.03322 
L 183.810765 69.152268 
L 184.055418 69.22092 
L 184.544724 70.825243 
L 184.789377 92.3272 
L 185.03403 97.880326 
L 185.278683 99.616099 
L 185.523336 98.390961 
L 185.767989 105.858291 
L 186.012642 106.238037 
L 186.257295 105.9653 
L 186.501948 106.49172 
L 186.746601 113.062224 
L 186.991254 99.458465 
L 187.235907 104.944684 
L 187.48056 106.373378 
L 187.969866 100.007956 
L 188.703825 119.864742 
L 189.193131 124.769028 
L 189.437784 124.689946 
L 189.682437 121.809083 
L 189.92709 115.334815 
L 190.171743 117.693866 
L 190.416396 122.566831 
L 190.661049 124.442304 
L 190.905702 129.412875 
L 191.150355 124.893316 
L 191.395008 127.391694 
L 191.639661 125.983362 
L 191.884314 127.874712 
L 192.128967 138.784507 
L 192.618273 133.602253 
L 192.862926 122.254554 
L 193.107579 120.79074 
L 193.352232 107.244518 
L 193.596885 105.965891 
L 193.841538 103.859153 
L 194.086191 103.334975 
L 194.82015 84.479501 
L 195.064803 77.411968 
L 195.309456 76.380549 
L 195.554109 97.708029 
L 195.798762 96.24901 
L 196.043415 85.450831 
L 196.288068 86.301983 
L 196.532721 83.853794 
L 196.777375 89.156475 
L 197.022028 90.995427 
L 197.511334 85.313467 
L 197.755987 85.913239 
L 198.00064 86.12212 
L 198.489946 82.977922 
L 198.734599 83.331888 
L 198.979252 78.790349 
L 199.223905 59.103744 
L 199.468558 54.344139 
L 199.713211 58.763009 
L 199.957864 57.213949 
L 200.202517 73.342986 
L 200.44717 76.030878 
L 200.691823 76.145048 
L 200.936476 77.765779 
L 201.181129 76.610787 
L 201.425782 76.53236 
L 201.915088 86.171187 
L 202.159741 86.378355 
L 202.404394 86.919409 
L 202.649047 92.843159 
L 202.8937 106.061505 
L 203.138353 112.233614 
L 203.383006 113.372976 
L 203.872312 97.969433 
L 204.116965 98.63521 
L 204.606271 106.638985 
L 205.095577 97.259569 
L 205.34023 98.179341 
L 205.829536 110.461414 
L 206.074189 112.943228 
L 206.318842 118.682289 
L 206.563495 127.035672 
L 206.808148 122.549396 
L 207.052801 112.401553 
L 207.297454 119.724543 
L 207.78676 123.356243 
L 208.031413 120.207033 
L 208.276066 121.128081 
L 208.520719 119.032053 
L 208.765372 107.28904 
L 209.010025 107.168487 
L 209.499331 106.42394 
L 209.743984 107.355854 
L 209.988637 103.520847 
L 210.23329 111.576523 
L 210.477943 114.725671 
L 210.967249 111.171465 
L 211.211902 107.419835 
L 211.456555 101.061885 
L 211.701208 101.078137 
L 211.945861 104.366083 
L 212.190514 103.799219 
L 212.435167 98.781978 
L 212.924473 93.593341 
L 213.169126 85.50102 
L 213.658432 77.449329 
L 213.903085 120.347604 
L 214.147738 122.932722 
L 214.392391 134.60092 
L 214.881697 137.800941 
L 215.12635 134.262987 
L 215.371003 134.410066 
L 215.615656 134.314079 
L 215.860309 129.01149 
L 216.104962 134.2392 
L 216.349615 135.512939 
L 216.594268 136.155552 
L 216.838921 136.46755 
L 217.083574 143.358022 
L 217.57288 132.98461 
L 217.817533 140.346363 
L 218.306839 143.7156 
L 218.551492 140.34929 
L 218.796145 142.924196 
L 219.040798 142.762733 
L 219.285452 136.853865 
L 219.530105 140.004601 
L 220.019411 149.5098 
L 220.264064 148.246305 
L 220.508717 148.883875 
L 220.75337 150.197403 
L 220.998023 154.794174 
L 221.242676 154.562659 
L 221.487329 159.074652 
L 221.976635 162.399274 
L 222.221288 156.436232 
L 222.710594 160.925311 
L 223.1999 155.160688 
L 223.444553 151.616943 
L 223.933859 155.734277 
L 224.178512 150.486797 
L 224.423165 150.799884 
L 224.667818 156.099016 
L 224.912471 155.963581 
L 225.157124 160.33656 
L 225.401777 162.630447 
L 225.64643 155.873572 
L 225.891083 168.434765 
L 226.380389 165.940279 
L 226.625042 170.272471 
L 226.869695 170.562332 
L 227.114348 168.905766 
L 227.359001 166.28229 
L 227.603654 165.114316 
L 227.848307 160.187675 
L 228.09296 163.179595 
L 228.337613 160.445779 
L 228.826919 163.08451 
L 229.071572 163.80826 
L 229.316225 164.023554 
L 229.560878 163.742006 
L 230.294837 169.049762 
L 230.53949 168.871923 
L 230.784143 165.380639 
L 231.028796 168.293322 
L 231.273449 168.104585 
L 231.518102 169.099577 
L 231.762755 166.680841 
L 232.007408 168.589067 
L 232.496714 168.878804 
L 232.741367 165.475537 
L 232.98602 160.505962 
L 233.230673 164.242584 
L 233.475326 174.716218 
L 233.719979 175.656943 
L 233.964632 168.539159 
L 234.209285 169.510209 
L 234.698591 156.208266 
L 234.943244 153.918676 
L 235.187897 155.725653 
L 235.677203 168.100974 
L 235.921856 172.608639 
L 236.166509 181.311474 
L 236.411162 178.958401 
L 236.655815 180.951934 
L 236.900468 180.499209 
L 237.145121 185.071292 
L 237.389774 186.442263 
L 237.634427 186.354152 
L 238.368386 161.836427 
L 238.613039 162.096243 
L 238.857692 160.503284 
L 239.102345 189.382966 
L 239.346998 190.125895 
L 239.591651 192.233878 
L 239.836304 191.866057 
L 240.080957 189.055059 
L 240.32561 193.305679 
L 240.570263 191.26177 
L 240.814916 191.155415 
L 241.059569 189.614295 
L 241.304222 189.449781 
L 241.548875 194.781355 
L 241.793529 195.641909 
L 242.282835 205.133129 
L 242.527488 203.889559 
L 242.772141 203.460746 
L 243.016794 205.64174 
L 243.261447 206.016847 
L 243.5061 210.119983 
L 243.750753 209.012907 
L 243.995406 212.709522 
L 244.240059 214.067448 
L 244.484712 211.56851 
L 244.729365 213.943844 
L 245.463324 235.323412 
L 245.707977 239.41615 
L 246.197283 225.122142 
L 246.441936 223.938725 
L 246.931242 235.487397 
L 247.175895 235.471051 
L 247.420548 234.00235 
L 247.909854 236.794169 
L 248.154507 235.221447 
L 248.39916 241.672209 
L 248.643813 242.517226 
L 248.888466 248.334964 
L 249.377772 240.955277 
L 249.622425 241.710815 
L 249.867078 244.433173 
L 250.111731 244.210158 
L 250.356384 245.53751 
L 250.601037 250.465458 
L 250.84569 247.492686 
L 251.090343 247.127573 
L 251.334996 256.705408 
L 251.579649 251.130395 
L 251.824302 248.191684 
L 252.068955 250.126622 
L 252.313608 247.751973 
L 252.558261 243.085429 
L 252.802914 241.801541 
L 253.047567 241.956403 
L 253.29222 237.941315 
L 253.536873 236.665708 
L 253.781526 236.976367 
L 254.026179 241.011755 
L 254.515485 240.21238 
L 254.760138 275.064382 
L 255.004791 263.829513 
L 255.249444 263.187335 
L 255.73875 256.446121 
L 255.983403 256.047944 
L 256.472709 250.905916 
L 256.717362 254.706831 
L 256.962015 254.418402 
L 257.206668 248.496707 
L 257.451321 247.35062 
L 257.695974 247.297691 
L 257.940627 247.000638 
L 258.429933 236.843143 
L 258.674586 235.64201 
L 258.919239 236.534103 
L 259.163892 232.464623 
L 259.408545 237.756003 
L 259.653198 250.29397 
L 259.897851 252.810685 
L 260.142504 246.857327 
L 260.387157 244.791468 
L 260.63181 235.080906 
L 260.876463 236.463677 
L 261.121116 235.613055 
L 261.365769 232.708187 
L 261.610422 226.915139 
L 261.855075 228.672643 
L 262.099728 229.536062 
L 262.344381 229.715676 
L 263.07834 234.17829 
L 263.322993 230.90806 
L 263.567646 232.23152 
L 264.056952 239.657161 
L 264.301606 239.777651 
L 264.546259 249.146232 
L 264.790912 251.977748 
L 265.035565 244.967501 
L 265.280218 242.418219 
L 265.524871 251.387689 
L 266.014177 247.654117 
L 266.25883 241.417467 
L 266.503483 238.16542 
L 266.748136 237.56051 
L 266.992789 237.881038 
L 267.237442 236.540548 
L 267.482095 236.614087 
L 267.726748 237.632742 
L 267.971401 241.269205 
L 268.216054 240.251391 
L 268.70536 258.080676 
L 268.950013 266.601842 
L 269.194666 270.175787 
L 269.439319 270.242508 
L 269.683972 269.161087 
L 270.173278 274.162668 
L 270.417931 273.439012 
L 270.662584 273.478833 
L 271.15189 263.521874 
L 271.396543 265.940828 
L 271.641196 263.912829 
L 271.885849 263.836456 
L 272.130502 261.959458 
L 272.375155 254.063283 
L 272.864461 260.701194 
L 273.109114 258.791847 
L 273.353767 254.907834 
L 273.59842 261.4383 
L 273.843073 262.291413 
L 274.087726 265.522787 
L 274.577032 260.168142 
L 274.821685 251.030204 
L 275.066338 247.114746 
L 275.310991 208.370979 
L 275.555644 208.59499 
L 275.800297 209.327831 
L 276.534256 204.581272 
L 276.778909 213.001189 
L 277.023562 211.352998 
L 277.268215 205.860801 
L 277.512868 203.98125 
L 277.757521 201.150918 
L 278.002174 204.858368 
L 278.246827 206.512537 
L 278.736133 214.972773 
L 278.980786 217.61496 
L 279.225439 217.07839 
L 279.470092 213.189645 
L 279.959398 220.895651 
L 280.204051 220.581256 
L 280.448704 216.735508 
L 280.693357 215.477243 
L 280.93801 217.338674 
L 281.427316 214.779927 
L 281.671969 219.23018 
L 281.916622 221.558253 
L 282.161275 217.826954 
L 282.405928 216.70895 
L 282.650581 214.525964 
L 282.895234 213.919435 
L 283.139887 215.702345 
L 283.38454 215.039712 
L 283.629193 212.816344 
L 283.873846 213.359328 
L 284.118499 214.797953 
L 284.363152 215.323066 
L 284.607805 212.529503 
L 284.852458 208.328262 
L 285.097111 195.937187 
L 285.341764 196.152295 
L 285.586417 192.840065 
L 285.83107 192.760205 
L 286.075723 190.722616 
L 286.320376 190.726975 
L 286.56503 194.223583 
L 286.809683 190.995042 
L 287.054336 195.02548 
L 287.298989 196.867327 
L 287.543642 185.796536 
L 287.788295 187.59081 
L 288.032948 191.841492 
L 288.277601 192.564837 
L 288.766907 202.371759 
L 289.01156 203.144047 
L 289.256213 206.851123 
L 289.500866 205.337432 
L 289.745519 205.632088 
L 289.990172 210.690769 
L 290.234825 211.866123 
L 290.479478 211.452565 
L 290.724131 208.633815 
L 290.968784 211.891031 
L 291.213437 213.223893 
L 291.45809 213.762237 
L 292.192049 203.137291 
L 292.436702 203.239785 
L 292.681355 202.195601 
L 292.926008 200.36957 
L 293.170661 193.972826 
L 293.415314 194.156862 
L 293.659967 191.241439 
L 293.90462 191.38528 
L 294.149273 190.86929 
L 294.393926 187.690159 
L 294.638579 187.314835 
L 294.883232 187.67699 
L 295.127885 192.714842 
L 295.617191 193.736766 
L 295.861844 195.418084 
L 296.106497 198.361154 
L 296.595803 192.622373 
L 296.840456 192.128457 
L 297.085109 194.894186 
L 297.329762 190.687683 
L 297.574415 206.100629 
L 297.819068 211.12086 
L 298.308374 200.786334 
L 298.553027 193.847978 
L 298.79768 194.638199 
L 299.042333 197.906312 
L 299.531639 188.08183 
L 299.776292 186.172639 
L 300.020945 182.82065 
L 300.265598 174.549524 
L 300.510251 178.158776 
L 301.488863 167.28681 
L 301.978169 164.200522 
L 302.222822 163.601901 
L 302.467475 164.903287 
L 302.712128 160.967342 
L 302.956781 121.541826 
L 303.201434 104.81255 
L 303.69074 87.394488 
L 303.935393 92.478606 
L 304.180046 86.004899 
L 304.424699 90.661573 
L 304.669352 90.10788 
L 304.914005 91.495414 
L 305.158658 94.509719 
L 305.403311 87.065149 
L 305.647964 86.334954 
L 305.892617 87.594838 
L 306.13727 84.43719 
L 306.381923 92.009131 
L 306.871229 96.077023 
L 307.605188 108.456112 
L 307.849841 128.497618 
L 308.094494 128.69311 
L 308.339147 123.995339 
L 308.828453 138.477273 
L 309.073107 136.095089 
L 309.31776 139.176271 
L 309.562413 138.983954 
L 309.807066 141.477226 
L 310.051719 140.321705 
L 311.030331 157.080122 
L 311.274984 155.235753 
L 311.519637 155.308919 
L 312.008943 150.672824 
L 312.498249 142.846142 
L 312.742902 143.22156 
L 312.987555 144.241833 
L 313.232208 144.056148 
L 313.476861 140.040437 
L 313.721514 139.704652 
L 313.966167 144.586117 
L 314.21082 145.709788 
L 314.455473 148.218658 
L 314.944779 145.562273 
L 315.189432 146.013068 
L 315.434085 143.725656 
L 315.678738 147.378279 
L 315.923391 148.374765 
L 316.168044 147.279614 
L 316.412697 149.097301 
L 316.65735 146.156877 
L 316.902003 146.537184 
L 317.146656 144.752188 
L 317.391309 145.470831 
L 317.635962 143.883259 
L 318.614574 132.714457 
L 318.859227 145.85724 
L 319.10388 147.923006 
L 319.348533 148.803237 
L 319.593186 144.475497 
L 319.837839 149.949199 
L 320.082492 148.379591 
L 320.327145 150.860938 
L 320.571798 148.652422 
L 320.816451 148.255334 
L 321.305757 134.931629 
L 321.55041 131.981118 
L 321.795063 113.961104 
L 322.039716 109.845421 
L 322.284369 110.240672 
L 322.529022 113.306068 
L 322.773675 114.257535 
L 323.262981 108.12341 
L 323.507634 110.286283 
L 323.752287 107.856806 
L 323.99694 108.643603 
L 324.241593 117.326761 
L 324.486246 117.945588 
L 324.730899 122.03213 
L 324.975552 118.106708 
L 325.464858 115.317224 
L 325.709511 118.040516 
L 325.954164 119.19996 
L 326.198817 129.561635 
L 326.44347 129.382332 
L 326.932776 137.129715 
L 327.177429 136.854799 
L 327.422082 139.287078 
L 327.666735 134.262178 
L 327.911388 134.80843 
L 328.156041 130.10988 
L 328.400694 129.416517 
L 328.645347 127.72122 
L 328.89 127.852887 
L 329.134653 136.105613 
L 329.379306 140.451286 
L 329.623959 141.754197 
L 330.113265 134.391167 
L 330.357918 136.504662 
L 330.602571 137.039114 
L 330.847224 144.820216 
L 331.091877 148.004484 
L 331.33653 146.931532 
L 331.581184 144.683381 
L 332.315143 150.401582 
L 332.559796 151.665388 
L 332.804449 148.890133 
L 333.293755 134.720351 
L 333.538408 133.288886 
L 333.783061 137.928655 
L 334.027714 139.462271 
L 334.272367 151.250803 
L 334.51702 146.980101 
L 334.761673 147.544785 
L 335.006326 134.872691 
L 335.250979 134.40991 
L 335.495632 130.614537 
L 335.984938 138.802036 
L 336.229591 137.673975 
L 336.718897 128.585292 
L 336.96355 127.907185 
L 337.208203 124.029337 
L 337.697509 124.781419 
L 337.942162 125.512983 
L 338.186815 96.778823 
L 338.431468 110.371965 
L 338.676121 108.503093 
L 339.654733 119.386362 
L 339.899386 118.661398 
L 340.144039 116.610421 
L 340.388692 119.484248 
L 340.633345 117.623005 
L 340.877998 114.291066 
L 341.122651 112.59471 
L 341.367304 115.594694 
L 341.611957 117.21474 
L 341.85661 113.964623 
L 342.101263 112.21814 
L 342.590569 112.621828 
L 343.079875 120.27531 
L 343.324528 120.742264 
L 343.569181 123.998265 
L 343.813834 123.337532 
L 344.058487 123.330371 
L 344.30314 123.773039 
L 344.792446 126.083396 
L 345.037099 131.756328 
L 345.281752 133.11662 
L 345.526405 129.954052 
L 346.015711 127.375535 
L 346.505017 133.821066 
L 346.994323 139.924181 
L 347.238976 138.85512 
L 347.728282 132.617536 
L 347.972935 131.977226 
L 348.217588 128.971234 
L 348.706894 127.02518 
L 348.951547 128.25698 
L 349.1962 124.151726 
L 349.440853 124.794309 
L 349.685506 117.143722 
L 349.930159 120.104725 
L 350.174812 125.165524 
L 350.419465 122.168716 
L 350.664118 112.925855 
L 350.908771 114.052421 
L 351.153424 114.163291 
L 351.398077 111.130087 
L 351.64273 112.553924 
L 351.887383 113.003629 
L 352.132036 111.995218 
L 352.621342 121.557299 
L 352.865995 120.895445 
L 353.110648 121.362772 
L 353.355301 117.492302 
L 353.599954 117.889421 
L 353.844607 113.471174 
L 354.089261 114.281135 
L 354.333914 112.771211 
L 354.578567 114.683546 
L 354.82322 110.423088 
L 355.067873 108.558139 
L 355.312526 108.038382 
L 355.557179 105.424215 
L 355.801832 107.314788 
L 356.291138 119.04653 
L 356.780444 115.839721 
L 357.025097 116.986462 
L 357.26975 119.743535 
L 357.514403 119.014618 
L 357.759056 115.632024 
L 358.248362 121.154203 
L 358.493015 122.96613 
L 358.737668 120.005842 
L 358.982321 120.801668 
L 359.471627 126.647676 
L 359.71628 124.262783 
L 359.960933 124.300673 
L 360.205586 123.085561 
L 360.450239 115.574425 
L 360.694892 115.488308 
L 360.939545 122.381987 
L 361.184198 122.594821 
L 361.428851 126.006214 
L 361.673504 126.68594 
L 361.918157 129.170805 
L 362.16281 128.494691 
L 362.407463 129.873726 
L 362.652116 126.360274 
L 362.896769 127.524824 
L 363.141422 119.65365 
L 363.386075 121.675921 
L 363.630728 120.79432 
L 363.875381 118.160135 
L 364.120034 110.621196 
L 364.364687 112.731234 
L 364.853993 120.150804 
L 365.098646 126.875019 
L 365.343299 129.380713 
L 365.587952 114.857525 
L 365.832605 118.189619 
L 366.321911 112.779648 
L 366.566564 114.926675 
L 366.811217 119.04432 
L 367.05587 120.714118 
L 367.545176 116.705288 
L 368.034482 122.411658 
L 368.279135 123.170932 
L 368.523788 121.55923 
L 368.768441 117.560175 
L 369.013094 117.769212 
L 369.257747 114.390603 
L 369.5024 114.786103 
L 369.747053 112.738209 
L 369.991706 113.414509 
L 370.236359 114.884052 
L 370.481012 114.333222 
L 370.725665 117.184664 
L 370.970318 118.370728 
L 371.214971 121.069579 
L 371.459624 114.914812 
L 371.704277 113.953009 
L 371.94893 111.12797 
L 372.193583 113.821716 
L 372.438236 114.593381 
L 372.682889 112.336139 
L 372.927542 113.098713 
L 373.172195 112.207679 
L 373.416848 112.546327 
L 373.661501 114.571556 
L 373.906154 114.766986 
L 374.150807 115.18702 
L 374.39546 111.539255 
L 374.884766 99.09712 
L 375.129419 98.564099 
L 375.374072 98.417083 
L 375.618725 99.31752 
L 375.863378 95.610101 
L 376.108031 94.924771 
L 376.352684 90.123198 
L 376.597338 93.01857 
L 376.841991 101.199966 
L 377.331297 97.113673 
L 377.57595 96.441949 
L 378.065256 88.162635 
L 378.309909 89.128984 
L 378.554562 89.031471 
L 378.799215 88.774239 
L 379.043868 84.004671 
L 379.533174 83.025215 
L 379.777827 79.944749 
L 380.267133 78.255523 
L 380.511786 79.54324 
L 380.756439 78.329031 
L 381.001092 75.998468 
L 381.245745 57.521588 
L 381.490398 59.930019 
L 381.490398 59.930019 
" style="fill:none;stroke:#1f77b4;stroke-linecap:square;stroke-width:1.5;"/>
   </g>
   <g id="line2d_28">
    <path clip-path="url(#p0e3152618c)" d="M 56.835852 225.078721 
L 57.080505 224.670636 
L 57.569811 210.469298 
L 57.814464 211.20385 
L 58.059117 212.999422 
L 58.30377 207.367857 
L 58.548423 205.327434 
L 59.037729 198.63485 
L 59.527035 204.511266 
L 59.771688 205.409051 
L 60.016341 203.939947 
L 60.260994 203.695097 
L 60.505647 198.308382 
L 60.7503 199.777486 
L 60.994953 200.348804 
L 61.239606 207.449473 
L 61.728912 211.040616 
L 62.218219 207.939175 
L 62.462872 213.57074 
L 62.707525 210.469298 
L 62.952178 214.550143 
L 63.196831 213.407506 
L 63.686137 200.920123 
L 63.93079 210.469298 
L 64.175443 210.959 
L 64.909402 193.329752 
L 65.154055 194.554006 
L 65.398708 197.900298 
L 65.643361 196.512811 
L 65.888014 198.553233 
L 66.37732 196.26796 
L 66.621973 204.756116 
L 66.866626 206.388454 
L 67.111279 197.084129 
L 67.355932 199.124551 
L 67.600585 198.798084 
L 67.845238 200.512038 
L 68.089891 199.614252 
L 68.334544 192.35035 
L 68.579197 191.044479 
L 68.82385 193.737837 
L 69.068503 207.449473 
L 69.313156 212.836188 
L 69.557809 209.734746 
L 69.802462 211.938402 
L 70.047115 212.428103 
L 70.291768 213.57074 
L 70.536421 216.590565 
L 70.781074 215.366311 
L 71.025727 222.058896 
L 71.27038 218.386136 
L 71.515033 219.773623 
L 71.759686 219.120688 
L 72.004339 219.365539 
L 72.248992 221.569195 
L 72.493645 229.649266 
L 72.738298 228.833098 
L 72.982951 233.730111 
L 73.227604 233.730111 
L 73.472257 230.465435 
L 73.961563 242.626351 
L 74.206216 237.729338 
L 74.450869 241.728565 
L 74.695522 242.707968 
L 74.940175 244.993241 
L 75.184828 236.586702 
L 75.429481 236.341851 
L 75.918787 228.669864 
L 76.16344 229.241182 
L 76.408093 224.670636 
L 76.652746 226.466208 
L 76.897399 230.547052 
L 77.142052 223.609617 
L 77.386705 223.283149 
L 77.631358 222.385364 
L 77.876011 214.305292 
L 78.120664 214.142058 
L 78.365317 215.692779 
L 78.60997 197.084129 
L 78.854623 199.451019 
L 79.099276 195.696642 
L 79.343929 193.737837 
L 79.588582 204.511266 
L 79.833235 203.85833 
L 80.077888 207.775941 
L 80.322541 201.736291 
L 80.567194 191.942265 
L 81.301153 204.592882 
L 81.545806 207.939175 
L 81.790459 207.53109 
L 82.035112 202.634077 
L 82.279765 213.325889 
L 82.524418 207.204623 
L 82.769071 195.778259 
L 83.013724 196.26796 
L 83.50303 196.349577 
L 83.747683 194.96209 
L 83.992336 219.039071 
L 84.236989 218.304519 
L 84.481643 216.590565 
L 84.726296 214.060441 
L 84.970949 213.081039 
L 85.704908 217.2435 
L 86.194214 227.20076 
L 86.68352 223.364766 
L 86.928173 224.997104 
L 87.172826 224.915487 
L 87.417479 229.322799 
L 87.662132 230.547052 
L 87.906785 225.568422 
L 88.151438 229.8125 
L 88.396091 232.097773 
L 88.885397 228.343396 
L 89.13005 228.996331 
L 89.619356 232.261007 
L 89.864009 225.078721 
L 90.108662 221.732428 
L 90.597968 219.528773 
L 90.842621 249.72702 
L 91.087274 253.971098 
L 91.331927 254.134332 
L 91.57658 260.663683 
L 91.821233 259.765897 
L 92.065886 256.746072 
L 92.310539 259.357813 
L 92.555192 252.991696 
L 92.799845 250.78804 
L 93.044498 252.012293 
L 93.289151 251.685826 
L 93.533804 253.971098 
L 93.778457 249.155702 
L 94.02311 248.257916 
L 94.267763 248.42115 
L 94.512416 256.746072 
L 94.757069 254.950501 
L 95.246375 259.357813 
L 95.491028 265.479079 
L 95.735681 266.621716 
L 95.980334 269.233456 
L 96.224987 268.417287 
L 96.46964 266.866566 
L 96.714293 268.09082 
L 96.958946 270.70256 
L 97.203599 270.049625 
L 97.448252 273.722385 
L 97.692905 260.255599 
L 97.937558 266.948183 
L 98.182211 266.948183 
L 98.671517 264.254826 
L 98.91617 265.152612 
L 99.160823 259.031345 
L 99.405476 258.541644 
L 99.650129 256.419605 
L 99.894782 265.070995 
L 100.139435 264.744527 
L 100.384088 269.559923 
L 100.628741 267.193034 
L 101.118047 273.06945 
L 101.852006 251.604209 
L 102.096659 256.419605 
L 102.341312 252.175527 
L 102.585965 253.481397 
L 102.830618 264.907761 
L 103.075271 258.133559 
L 103.319924 255.685053 
L 103.80923 249.72702 
L 104.053883 248.42115 
L 104.298536 251.440975 
L 104.543189 244.993241 
L 104.787842 250.298338 
L 105.032495 250.053488 
L 105.521801 242.789585 
L 105.766454 238.790358 
L 106.011107 240.585929 
L 106.25576 240.504312 
L 106.500413 248.992468 
L 106.98972 253.154929 
L 107.234373 250.053488 
L 107.479026 253.236546 
L 107.723679 249.074085 
L 107.968332 254.70565 
L 108.212985 254.542417 
L 108.457638 256.093137 
L 108.702291 262.704105 
L 109.191597 255.440202 
L 109.43625 254.950501 
L 109.680903 259.43943 
L 109.925556 261.561469 
L 110.170209 257.317391 
L 110.414862 264.581293 
L 110.904168 247.931449 
L 111.393474 260.337215 
L 111.638127 256.664456 
L 111.88278 257.725475 
L 112.372086 250.379955 
L 112.616739 244.258689 
L 112.861392 244.585156 
L 113.106045 243.524137 
L 113.350698 252.501994 
L 113.595351 253.481397 
L 113.840004 251.359358 
L 114.084657 254.4608 
L 114.32931 252.746845 
L 114.573963 247.768215 
L 115.063269 243.44252 
L 115.307922 238.627124 
L 115.552575 242.463117 
L 115.797228 243.116053 
L 116.286534 240.259462 
L 116.531187 233.240409 
L 116.77584 233.730111 
L 117.020493 238.545507 
L 117.265146 236.097 
L 117.509799 239.198442 
L 117.754452 238.953591 
L 117.999105 235.688916 
L 118.243758 212.672954 
L 118.977717 215.93763 
L 119.467023 221.977279 
L 119.711676 221.405961 
L 119.956329 222.46698 
L 120.200982 217.406734 
L 120.445635 221.242727 
L 120.690288 222.548597 
L 121.179594 231.444838 
L 121.6689 225.976507 
L 121.913553 211.040616 
L 122.158206 208.102409 
L 122.402859 208.428876 
L 122.647512 209.89798 
L 122.892165 215.529545 
L 123.136818 217.325117 
L 123.381471 203.287012 
L 123.626124 207.041389 
L 124.11543 194.554006 
L 124.360083 195.451791 
L 124.604736 198.8797 
L 125.094042 191.697415 
L 125.338695 186.963635 
L 125.583348 193.737837 
L 126.072654 187.861421 
L 126.317307 177.251226 
L 126.806613 172.68068 
L 127.051266 183.862193 
L 127.295919 184.351895 
L 127.540572 180.352667 
L 127.785225 171.129959 
L 128.029878 169.089537 
L 128.274531 170.966726 
L 128.519184 170.966726 
L 129.00849 154.561731 
L 129.253143 155.704368 
L 129.497797 155.13305 
L 129.74245 157.989641 
L 129.987103 163.78444 
L 130.231756 163.866056 
L 130.476409 151.623524 
L 130.965715 150.807355 
L 131.210368 154.398498 
L 131.455021 142.237582 
L 131.699674 143.625069 
L 132.18898 139.544225 
L 132.433633 137.177335 
L 132.678286 141.74788 
L 133.167592 140.686861 
L 133.412245 149.664718 
L 133.901551 145.828725 
L 134.146204 158.234491 
L 134.390857 159.377128 
L 134.63551 148.766933 
L 134.880163 148.113998 
L 135.124816 148.440465 
L 135.369469 161.499167 
L 135.614122 162.315336 
L 135.858775 165.171927 
L 136.103428 165.580011 
L 136.348081 165.253544 
L 136.592734 161.662401 
L 136.837387 149.909569 
L 137.08204 154.316881 
L 137.326693 150.480887 
L 137.571346 149.175017 
L 137.815999 146.72651 
L 138.060652 147.379446 
L 138.305305 145.257407 
L 138.549958 141.339796 
L 138.794611 141.992731 
L 139.283917 145.012556 
L 139.773223 154.888199 
L 140.507182 139.707458 
L 140.751835 140.278776 
L 141.485794 159.621978 
L 141.730447 160.193297 
L 141.9751 159.703595 
L 142.219753 165.988095 
L 142.464406 166.804264 
L 142.709059 164.110907 
L 143.198365 162.72342 
L 143.443018 163.539589 
L 143.687671 158.887426 
L 143.932324 158.969043 
L 144.176977 162.805037 
L 144.42163 172.925531 
L 144.666283 159.621978 
L 144.910936 161.009465 
L 145.155589 166.967498 
L 145.400242 169.252771 
L 145.644895 173.578466 
L 145.889548 172.109362 
L 146.134201 169.171154 
L 146.623507 155.622751 
L 146.86816 156.602154 
L 147.112813 158.969043 
L 147.357466 159.703595 
L 147.602119 159.05066 
L 147.846772 162.72342 
L 148.091425 170.803492 
L 148.336078 170.31379 
L 148.580731 167.212349 
L 148.825384 174.149784 
L 149.070037 165.988095 
L 149.31469 172.109362 
L 149.559343 183.69896 
L 149.803996 179.862966 
L 150.048649 180.352667 
L 150.293302 171.456427 
L 150.537955 168.191751 
L 150.782608 176.435057 
L 151.271914 164.192524 
L 151.516567 162.233719 
L 151.76122 163.702823 
L 152.005874 154.806582 
L 152.250527 117.997367 
L 152.49518 118.976769 
L 152.739833 115.630477 
L 152.984486 117.834133 
L 153.473792 114.161373 
L 153.718445 102.735009 
L 153.963098 101.837223 
L 154.207751 102.326925 
L 154.452404 91.063794 
L 155.431016 106.244535 
L 155.675669 103.877645 
L 155.920322 98.490931 
L 156.164975 111.386399 
L 156.409628 113.834906 
L 156.898934 96.287275 
L 157.143587 95.307872 
L 157.38824 93.838769 
L 157.632893 90.084392 
L 157.877546 91.308645 
L 158.122199 95.307872 
L 158.611505 82.575638 
L 159.100811 88.778522 
L 159.345464 85.595463 
L 159.590117 75.393352 
L 159.83477 71.720592 
L 160.079423 85.105762 
L 160.324076 85.595463 
L 160.568729 76.372755 
L 160.813382 73.679398 
L 161.058035 89.023372 
L 161.302688 92.043197 
L 161.791994 87.391035 
L 162.525953 78.576411 
L 162.770606 81.024917 
L 163.015259 81.841086 
L 163.259912 86.901333 
L 163.504565 97.103444 
L 163.993871 90.166009 
L 164.238524 73.761015 
L 164.483177 76.046287 
L 164.72783 70.251489 
L 164.972483 70.659573 
L 165.217136 63.477287 
L 165.461789 78.658028 
L 165.706442 83.718275 
L 165.951095 84.126359 
L 166.195748 79.719047 
L 166.440401 84.126359 
L 166.685054 83.146956 
L 166.929707 90.818944 
L 167.17436 90.329242 
L 167.419013 87.064567 
L 167.663666 90.247626 
L 167.908319 87.799119 
L 168.152972 84.126359 
L 168.397625 71.394125 
L 168.642278 66.578729 
L 168.886931 64.864774 
L 169.131584 59.559677 
L 169.376237 58.988358 
L 169.62089 60.375845 
L 169.865543 66.089027 
L 170.110196 63.885371 
L 170.354849 59.314826 
L 170.844155 43.726001 
L 171.088808 43.317916 
L 171.333461 43.644384 
L 171.822767 56.05015 
L 172.312073 46.011273 
L 172.556726 39.971624 
L 172.801379 40.951027 
L 173.046032 49.684033 
L 173.290685 49.439183 
L 173.535338 50.82667 
L 173.779991 50.500202 
L 174.024644 56.376618 
L 174.269298 45.276722 
L 174.513951 42.746598 
L 175.003257 40.298091 
L 175.24791 36.298864 
L 175.737216 44.950254 
L 175.981869 67.558131 
L 176.226522 71.720592 
L 176.471175 70.414722 
L 176.715828 65.191242 
L 177.449787 81.596236 
L 177.69444 77.760242 
L 177.939093 79.882281 
L 178.183746 74.822034 
L 178.428399 72.536761 
L 178.673052 67.231664 
L 178.917705 73.761015 
L 179.162358 70.333105 
L 179.407011 69.843404 
L 179.651664 95.715957 
L 179.896317 90.737327 
L 180.14097 94.818171 
L 180.385623 90.247626 
L 180.630276 94.818171 
L 180.874929 90.900561 
L 181.119582 90.574093 
L 181.364235 86.085164 
L 181.608888 84.61606 
L 181.853541 88.125587 
L 182.098194 85.513846 
L 182.342847 84.779294 
L 182.5875 82.167554 
L 182.832153 82.738872 
L 183.076806 81.841086 
L 183.321459 74.005865 
L 183.810765 69.353703 
L 184.055418 68.945618 
L 184.300071 70.822807 
L 184.544724 94.246853 
L 184.789377 98.082847 
L 185.03403 96.368892 
L 185.523336 102.653392 
L 185.767989 111.794483 
L 186.012642 105.020282 
L 186.257295 102.653392 
L 186.501948 117.752516 
L 186.746601 100.939438 
L 186.991254 106.571003 
L 187.235907 102.898243 
L 187.725213 101.184288 
L 187.969866 106.65262 
L 188.214519 106.734236 
L 188.703825 119.22162 
L 188.948478 125.587737 
L 189.193131 121.58851 
L 189.437784 125.587737 
L 189.682437 116.528263 
L 189.92709 116.446646 
L 190.171743 115.467243 
L 190.661049 132.688406 
L 191.150355 121.670127 
L 191.395008 131.219302 
L 191.639661 121.996594 
L 191.884314 133.994276 
L 192.128967 133.586192 
L 192.37362 137.014101 
L 192.862926 116.528263 
L 193.107579 110.406996 
L 193.352232 113.426821 
L 193.596885 108.693042 
L 193.841538 100.286502 
L 194.086191 102.326925 
L 194.330844 97.185061 
L 195.064803 72.944846 
L 195.309456 99.388717 
L 195.554109 97.919613 
L 195.798762 86.98295 
L 196.288068 84.044742 
L 196.532721 86.003547 
L 196.777375 91.390262 
L 197.022028 93.349067 
L 197.266681 86.166781 
L 197.755987 82.249171 
L 198.00064 83.31019 
L 198.245293 83.146956 
L 198.489946 84.289593 
L 198.734599 77.515391 
L 198.979252 56.703086 
L 199.223905 60.375845 
L 199.468558 58.825125 
L 199.713211 53.111943 
L 199.957864 75.066885 
L 200.202517 74.005865 
L 200.44717 72.128677 
L 200.691823 80.780067 
L 200.936476 79.474197 
L 201.181129 75.71982 
L 201.425782 81.024917 
L 201.915088 85.921931 
L 202.159741 82.330788 
L 202.404394 91.390262 
L 202.649047 104.938665 
L 202.8937 112.284185 
L 203.138353 113.18197 
L 203.383006 113.426821 
L 203.872312 96.042424 
L 204.116965 104.775431 
L 204.361618 106.081301 
L 204.606271 104.28573 
L 204.850924 100.204886 
L 205.34023 101.021054 
L 205.829536 108.611425 
L 206.074189 110.651847 
L 206.318842 122.486295 
L 206.563495 127.546542 
L 206.808148 119.874555 
L 207.542107 119.874555 
L 207.78676 119.22162 
L 208.031413 117.017964 
L 208.276066 125.016419 
L 208.520719 108.611425 
L 208.765372 110.325379 
L 209.010025 110.488613 
L 209.254678 106.081301 
L 209.499331 107.142321 
L 209.743984 96.613743 
L 210.23329 115.385626 
L 210.477943 111.304782 
L 210.722596 112.447418 
L 210.967249 110.488613 
L 211.211902 101.91884 
L 211.456555 105.346749 
L 211.701208 103.632795 
L 211.945861 103.796029 
L 212.435167 98.164463 
L 212.67982 96.532126 
L 212.924473 83.473424 
L 213.169126 83.31019 
L 213.413779 76.127904 
L 213.658432 125.914205 
L 213.903085 125.832588 
L 214.147738 136.442783 
L 214.392391 136.606017 
L 214.637044 134.973679 
L 214.881697 136.197932 
L 215.12635 136.361166 
L 215.371003 134.728828 
L 215.615656 128.036244 
L 215.860309 134.15751 
L 216.104962 137.258952 
L 216.349615 125.914205 
L 216.594268 134.647211 
L 216.838921 136.606017 
L 217.083574 135.789848 
L 217.328227 135.626614 
L 217.817533 148.032381 
L 218.062186 141.992731 
L 218.306839 144.11477 
L 218.551492 142.155965 
L 218.796145 146.889744 
L 219.040798 135.871465 
L 219.285452 136.606017 
L 219.530105 139.299374 
L 219.774758 147.869147 
L 220.019411 152.358076 
L 220.264064 150.807355 
L 220.508717 146.971361 
L 221.242676 160.438147 
L 221.487329 158.560959 
L 221.731982 165.33516 
L 222.221288 159.540362 
L 222.465941 158.969043 
L 222.710594 157.826407 
L 222.955247 157.336706 
L 223.1999 151.052205 
L 223.444553 151.215439 
L 223.689206 158.887426 
L 223.933859 151.541907 
L 224.178512 151.541907 
L 224.423165 156.602154 
L 224.667818 155.051433 
L 224.912471 162.805037 
L 225.157124 160.846232 
L 225.401777 152.194842 
L 225.64643 168.110135 
L 225.891083 170.966726 
L 226.135736 165.498394 
L 226.380389 166.804264 
L 226.625042 170.232174 
L 226.869695 170.06894 
L 227.114348 169.171154 
L 227.359001 164.845459 
L 227.603654 158.479342 
L 227.848307 164.845459 
L 228.09296 163.376355 
L 228.582266 162.72342 
L 229.071572 163.866056 
L 229.316225 163.947673 
L 229.560878 164.845459 
L 229.805531 164.763842 
L 230.050184 171.211576 
L 230.294837 168.76307 
L 230.53949 162.560186 
L 230.784143 168.599836 
L 231.028796 168.681453 
L 231.273449 167.783667 
L 231.518102 164.02929 
L 231.762755 168.518219 
L 232.007408 167.457199 
L 232.252061 168.681453 
L 232.496714 166.641031 
L 232.741367 160.846232 
L 232.98602 164.110907 
L 233.230673 174.231401 
L 233.475326 178.96518 
L 233.719979 170.395407 
L 233.964632 170.721875 
L 234.209285 159.785212 
L 234.698591 156.030835 
L 234.943244 154.235264 
L 235.187897 163.947673 
L 235.43255 166.559414 
L 235.677203 167.865284 
L 235.921856 180.842369 
L 236.166509 181.250453 
L 236.655815 179.944583 
L 236.900468 186.392317 
L 237.145121 183.372492 
L 237.389774 185.739382 
L 237.634427 184.270278 
L 237.87908 179.291648 
L 238.123733 161.335933 
L 238.368386 161.091082 
L 238.613039 161.091082 
L 238.857692 188.024655 
L 239.102345 189.738609 
L 239.346998 192.840051 
L 240.080957 189.493759 
L 240.570263 196.104726 
L 240.814916 190.554778 
L 241.059569 191.370947 
L 241.548875 197.737064 
L 242.038182 205.082584 
L 242.282835 201.654675 
L 242.527488 207.53109 
L 242.772141 208.265642 
L 243.016794 204.511266 
L 243.261447 211.367084 
L 243.5061 210.550915 
L 243.750753 213.733974 
L 243.995406 214.142058 
L 244.240059 209.89798 
L 244.484712 210.959 
L 244.729365 214.468526 
L 245.707977 240.259462 
L 245.95263 231.934539 
L 246.197283 228.343396 
L 246.441936 229.730883 
L 246.686589 232.832325 
L 246.931242 239.361676 
L 247.175895 236.015383 
L 247.420548 235.688916 
L 247.665201 241.891799 
L 247.909854 232.342624 
L 248.154507 240.422695 
L 248.39916 243.034436 
L 248.643813 246.870429 
L 248.888466 247.523364 
L 249.133119 244.830007 
L 249.377772 240.177845 
L 249.622425 241.320481 
L 249.867078 244.095455 
L 250.111731 241.565332 
L 250.356384 246.788812 
L 250.601037 249.074085 
L 250.84569 248.992468 
L 251.334996 252.420377 
L 251.579649 252.583611 
L 251.824302 246.952046 
L 252.068955 251.03289 
L 252.313608 247.196897 
L 252.558261 240.749163 
L 252.802914 241.810182 
L 253.047567 238.627124 
L 253.536873 237.239637 
L 254.026179 239.280059 
L 254.270832 238.137422 
L 254.515485 276.334125 
L 254.760138 261.561469 
L 255.004791 262.05117 
L 255.249444 264.581293 
L 255.494097 261.479852 
L 255.73875 253.644631 
L 255.983403 250.869657 
L 256.228056 252.175527 
L 256.472709 255.848287 
L 256.962015 250.869657 
L 257.206668 250.298338 
L 257.451321 246.543962 
L 257.695974 246.543962 
L 258.18528 236.178617 
L 258.429933 234.219812 
L 258.674586 235.280831 
L 258.919239 228.914714 
L 259.163892 232.669091 
L 259.653198 250.951274 
L 259.897851 246.462345 
L 260.142504 248.584384 
L 260.387157 237.729338 
L 260.63181 237.810955 
L 260.876463 234.464663 
L 261.121116 235.280831 
L 261.365769 227.44561 
L 261.855075 233.893344 
L 262.099728 230.87352 
L 262.344381 230.710286 
L 262.833687 236.423468 
L 263.07834 232.587474 
L 263.322993 231.199987 
L 263.567646 232.587474 
L 264.056952 236.831552 
L 264.301606 250.461572 
L 264.546259 255.76667 
L 265.035565 242.381501 
L 265.280218 249.890254 
L 265.524871 252.012293 
L 265.769524 249.645403 
L 266.25883 238.790358 
L 266.503483 237.974189 
L 266.748136 238.055806 
L 266.992789 235.688916 
L 267.237442 235.280831 
L 267.482095 236.423468 
L 267.726748 239.443293 
L 267.971401 238.300656 
L 268.950013 268.825372 
L 269.194666 269.233456 
L 269.439319 274.865021 
L 269.683972 269.070222 
L 269.928625 274.37532 
L 270.173278 276.252508 
L 270.417931 275.762807 
L 270.907237 263.601891 
L 271.15189 268.825372 
L 271.396543 263.601891 
L 271.641196 264.336443 
L 271.885849 263.275423 
L 272.130502 252.665228 
L 272.375155 253.39978 
L 272.619808 261.235001 
L 272.864461 260.500449 
L 273.109114 252.991696 
L 273.843073 262.704105 
L 274.087726 258.460027 
L 274.332379 263.601891 
L 274.577032 259.357813 
L 274.821685 252.257144 
L 275.066338 204.674499 
L 275.310991 207.041389 
L 275.555644 213.57074 
L 275.800297 205.327434 
L 276.534256 210.795766 
L 276.778909 210.061214 
L 277.023562 210.306064 
L 277.268215 209.163428 
L 277.512868 201.573058 
L 277.757521 205.817136 
L 278.002174 205.653902 
L 278.49148 209.489896 
L 278.736133 218.467753 
L 278.980786 219.283922 
L 279.225439 214.713376 
L 279.470092 215.611162 
L 279.959398 221.324344 
L 280.448704 216.672182 
L 280.693357 216.345714 
L 280.93801 214.060441 
L 281.182663 213.57074 
L 281.671969 221.732428 
L 281.916622 220.671409 
L 282.405928 214.468526 
L 282.650581 213.652357 
L 282.895234 215.856013 
L 283.139887 213.244272 
L 283.38454 212.917805 
L 283.629193 213.162655 
L 283.873846 216.835415 
L 284.118499 216.345714 
L 284.363152 213.815591 
L 284.607805 209.89798 
L 284.852458 194.390772 
L 285.097111 196.26796 
L 285.341764 195.125324 
L 285.586417 194.798856 
L 286.075723 189.738609 
L 286.320376 195.043707 
L 286.56503 191.207713 
L 286.809683 196.349577 
L 287.054336 194.635622 
L 287.298989 181.658538 
L 287.788295 191.860648 
L 288.032948 188.759207 
L 288.766907 204.674499 
L 289.01156 206.470071 
L 289.256213 209.979597 
L 289.500866 206.551688 
L 289.745519 211.040616 
L 290.234825 213.244272 
L 290.479478 209.89798 
L 290.724131 212.836188 
L 291.213437 214.794993 
L 291.45809 210.959 
L 291.702743 209.653129 
L 291.947396 204.103181 
L 292.436702 201.491441 
L 292.681355 199.369402 
L 292.926008 192.758434 
L 293.170661 194.472389 
L 293.415314 190.473161 
L 293.659967 193.90107 
L 294.149273 187.045252 
L 294.393926 187.045252 
L 294.638579 186.882018 
L 294.883232 192.840051 
L 295.127885 193.492986 
L 295.372538 192.676817 
L 295.861844 198.063532 
L 296.106497 196.349577 
L 296.35115 192.758434 
L 296.595803 192.840051 
L 296.840456 194.554006 
L 297.085109 186.555551 
L 297.329762 207.041389 
L 297.574415 215.93763 
L 298.308374 193.574603 
L 298.553027 193.166518 
L 298.79768 197.737064 
L 299.042333 196.839278 
L 299.776292 182.801174 
L 300.020945 174.884336 
L 300.265598 178.149011 
L 300.999557 169.00792 
L 301.24421 167.130732 
L 301.488863 166.804264 
L 301.733516 166.722647 
L 301.978169 163.947673 
L 302.222822 165.008693 
L 302.467475 161.172699 
L 302.712128 117.099581 
L 302.956781 102.816626 
L 303.201434 96.368892 
L 303.446087 84.779294 
L 303.69074 92.043197 
L 303.935393 87.146184 
L 304.180046 94.654937 
L 304.424699 91.553496 
L 304.669352 92.043197 
L 304.914005 96.124041 
L 305.158658 90.247626 
L 305.403311 88.533671 
L 305.647964 90.084392 
L 305.892617 86.166781 
L 306.381923 92.940983 
L 306.626576 92.369665 
L 306.871229 95.960808 
L 307.115882 105.918068 
L 307.360535 101.755606 
L 307.605188 126.893607 
L 307.849841 127.464925 
L 308.094494 130.076666 
L 308.339147 130.321516 
L 308.5838 137.258952 
L 309.073107 141.013328 
L 309.31776 141.911114 
L 309.562413 139.707458 
L 309.807066 139.054523 
L 310.051719 140.523627 
L 310.296372 152.602926 
L 310.541025 149.175017 
L 310.785678 156.602154 
L 311.030331 158.234491 
L 311.274984 151.786757 
L 311.519637 154.316881 
L 311.76429 150.072803 
L 312.008943 151.70514 
L 312.253596 145.094173 
L 312.498249 142.482432 
L 312.987555 145.665491 
L 313.232208 139.789075 
L 313.476861 140.033926 
L 313.721514 146.808127 
L 313.966167 147.134595 
L 314.21082 146.073575 
L 314.455473 148.440465 
L 314.700126 144.196387 
L 314.944779 144.849322 
L 315.434085 142.564049 
L 315.678738 147.542679 
L 315.923391 145.991958 
L 316.168044 148.195614 
L 316.412697 145.339023 
L 316.65735 149.011783 
L 316.902003 142.8089 
L 317.146656 143.216984 
L 317.635962 143.135367 
L 317.880615 140.850095 
L 318.125268 135.708231 
L 318.369921 133.749426 
L 318.614574 149.256634 
L 318.859227 149.0934 
L 319.348533 139.870692 
L 319.837839 153.092628 
L 320.082492 156.112452 
L 320.327145 149.011783 
L 320.571798 146.644894 
L 321.061104 136.034698 
L 321.305757 132.117088 
L 321.55041 113.426821 
L 321.795063 109.509211 
L 322.039716 110.080529 
L 322.284369 115.304009 
L 322.529022 117.752516 
L 323.018328 109.754061 
L 323.262981 111.059931 
L 323.507634 108.937892 
L 323.752287 108.284957 
L 323.99694 115.467243 
L 324.241593 114.079756 
L 324.486246 119.140003 
L 324.730899 119.384854 
L 324.975552 114.324607 
L 325.220205 119.303237 
L 325.464858 118.1606 
L 325.709511 118.976769 
L 325.954164 131.54577 
L 326.198817 134.565594 
L 326.44347 134.075893 
L 326.688123 140.768478 
L 326.932776 135.789848 
L 327.177429 139.952309 
L 328.156041 128.117861 
L 328.400694 127.87301 
L 328.645347 126.403906 
L 328.89 138.075121 
L 329.134653 139.789075 
L 329.379306 144.033153 
L 329.868612 133.096491 
L 330.357918 139.544225 
L 330.602571 147.297829 
L 330.847224 148.603699 
L 331.091877 145.910342 
L 331.581184 143.788303 
L 331.825837 148.522082 
L 332.315143 151.215439 
L 332.804449 146.563277 
L 333.293755 133.749426 
L 333.538408 139.217757 
L 333.783061 139.870692 
L 334.027714 153.337478 
L 334.272367 145.665491 
L 334.51702 146.971361 
L 334.761673 133.341341 
L 335.006326 133.014874 
L 335.250979 129.586964 
L 335.740285 141.094945 
L 335.984938 138.809673 
L 336.474244 128.934029 
L 336.718897 129.668581 
L 336.96355 125.016419 
L 337.208203 123.955399 
L 337.452856 125.098036 
L 337.697509 128.036244 
L 337.942162 97.837996 
L 338.186815 112.855503 
L 338.431468 106.979087 
L 338.676121 110.406996 
L 338.920774 118.568685 
L 339.165427 112.610652 
L 339.41008 117.670899 
L 339.654733 119.303237 
L 339.899386 117.344432 
L 340.144039 119.384854 
L 340.388692 115.467243 
L 340.633345 114.487841 
L 340.877998 111.223165 
L 341.367304 120.119406 
L 341.85661 112.447418 
L 342.101263 112.447418 
L 342.345916 110.080529 
L 342.590569 119.303237 
L 342.835222 121.83336 
L 343.079875 119.629704 
L 343.569181 125.424503 
L 343.813834 123.465698 
L 344.058487 123.873782 
L 344.30314 122.812763 
L 344.547793 122.649529 
L 344.792446 129.750198 
L 345.281752 133.178107 
L 346.015711 127.301692 
L 346.74967 142.400816 
L 347.728282 131.872237 
L 347.972935 132.117088 
L 348.462241 125.669354 
L 348.706894 127.056841 
L 348.951547 121.83336 
L 349.1962 124.853185 
L 349.440853 116.773113 
L 349.930159 126.159055 
L 350.419465 111.386399 
L 350.664118 115.712094 
L 350.908771 115.304009 
L 351.153424 110.325379 
L 351.64273 114.161373 
L 352.132036 110.488613 
L 352.376689 122.731146 
L 352.621342 123.547315 
L 352.865995 121.751743 
L 353.110648 115.140776 
L 353.355301 117.997367 
L 353.599954 119.548088 
L 353.844607 114.732691 
L 354.089261 112.120951 
L 354.333914 114.487841 
L 354.578567 115.059159 
L 354.82322 109.345977 
L 355.067873 107.632022 
L 355.312526 102.490158 
L 355.801832 116.201795 
L 356.291138 116.283412 
L 356.535791 116.120178 
L 356.780444 118.568685 
L 357.025097 117.670899 
L 357.26975 117.834133 
L 357.514403 120.772341 
L 357.759056 117.099581 
L 358.003709 120.609107 
L 358.248362 122.159828 
L 358.493015 120.364256 
L 358.737668 121.262042 
L 358.982321 121.098808 
L 359.226974 127.056841 
L 359.471627 123.955399 
L 359.71628 124.037016 
L 359.960933 123.302464 
L 360.205586 116.85473 
L 360.450239 114.814308 
L 360.694892 123.710549 
L 360.939545 122.159828 
L 361.184198 129.586964 
L 361.428851 129.260497 
L 361.673504 129.260497 
L 361.918157 129.750198 
L 362.16281 129.260497 
L 362.407463 126.81199 
L 362.652116 129.995049 
L 362.896769 118.1606 
L 363.141422 120.853958 
L 363.386075 118.731919 
L 363.630728 117.997367 
L 363.875381 110.815081 
L 364.364687 116.365029 
L 364.60934 120.935575 
L 364.853993 130.158283 
L 365.098646 131.79062 
L 365.343299 113.590055 
L 365.587952 116.85473 
L 365.832605 116.365029 
L 366.077258 114.569457 
L 366.321911 117.344432 
L 366.566564 113.100354 
L 366.811217 121.180425 
L 367.05587 121.83336 
L 367.300523 117.017964 
L 367.545176 120.282639 
L 367.789829 116.365029 
L 368.034482 121.914977 
L 368.279135 122.159828 
L 368.523788 123.710549 
L 368.768441 117.834133 
L 369.013094 115.059159 
L 369.257747 113.916522 
L 369.5024 111.059931 
L 369.991706 119.548088 
L 370.236359 117.589282 
L 370.481012 119.466471 
L 370.725665 116.85473 
L 370.970318 119.792938 
L 371.214971 114.487841 
L 371.459624 115.712094 
L 371.704277 113.263587 
L 372.193583 115.304009 
L 372.438236 110.978315 
L 372.682889 112.855503 
L 372.927542 111.468016 
L 373.172195 111.386399 
L 373.416848 115.875328 
L 373.661501 113.916522 
L 373.906154 115.385626 
L 374.150807 112.039334 
L 374.640113 101.67399 
L 374.884766 98.817399 
L 375.129419 98.735782 
L 375.374072 99.3071 
L 375.863378 95.63434 
L 376.108031 92.777749 
L 376.352684 92.614515 
L 376.597338 100.449736 
L 376.841991 99.715184 
L 377.086644 96.94021 
L 377.331297 95.960808 
L 377.57595 93.349067 
L 377.820603 89.513074 
L 378.065256 89.676307 
L 378.309909 89.268223 
L 378.554562 90.247626 
L 379.043868 84.37121 
L 379.288521 84.37121 
L 379.533174 79.39258 
L 379.777827 78.249943 
L 380.02248 78.902878 
L 380.267133 80.371982 
L 380.756439 77.760242 
L 381.001092 51.724455 
L 381.245745 59.396443 
L 381.490398 53.764878 
L 381.490398 53.764878 
" style="fill:none;stroke:#ff7f0e;stroke-linecap:square;stroke-width:1.5;"/>
   </g>
   <g id="patch_3">
    <path d="M 40.603125 288.430125 
L 40.603125 22.318125 
" style="fill:none;stroke:#000000;stroke-linecap:square;stroke-linejoin:miter;stroke-width:0.8;"/>
   </g>
   <g id="patch_4">
    <path d="M 397.723125 288.430125 
L 397.723125 22.318125 
" style="fill:none;stroke:#000000;stroke-linecap:square;stroke-linejoin:miter;stroke-width:0.8;"/>
   </g>
   <g id="patch_5">
    <path d="M 40.603125 288.430125 
L 397.723125 288.430125 
" style="fill:none;stroke:#000000;stroke-linecap:square;stroke-linejoin:miter;stroke-width:0.8;"/>
   </g>
   <g id="patch_6">
    <path d="M 40.603125 22.318125 
L 397.723125 22.318125 
" style="fill:none;stroke:#000000;stroke-linecap:square;stroke-linejoin:miter;stroke-width:0.8;"/>
   </g>
   <g id="text_16">
    <!-- Training: GRMN -->
    <defs>
     <path d="M -0.296875 72.90625 
L 61.375 72.90625 
L 61.375 64.59375 
L 35.5 64.59375 
L 35.5 0 
L 25.59375 0 
L 25.59375 64.59375 
L -0.296875 64.59375 
z
" id="DejaVuSans-84"/>
     <path d="M 54.890625 33.015625 
L 54.890625 0 
L 45.90625 0 
L 45.90625 32.71875 
Q 45.90625 40.484375 42.875 44.328125 
Q 39.84375 48.1875 33.796875 48.1875 
Q 26.515625 48.1875 22.3125 43.546875 
Q 18.109375 38.921875 18.109375 30.90625 
L 18.109375 0 
L 9.078125 0 
L 9.078125 54.6875 
L 18.109375 54.6875 
L 18.109375 46.1875 
Q 21.34375 51.125 25.703125 53.5625 
Q 30.078125 56 35.796875 56 
Q 45.21875 56 50.046875 50.171875 
Q 54.890625 44.34375 54.890625 33.015625 
z
" id="DejaVuSans-110"/>
     <path d="M 45.40625 27.984375 
Q 45.40625 37.75 41.375 43.109375 
Q 37.359375 48.484375 30.078125 48.484375 
Q 22.859375 48.484375 18.828125 43.109375 
Q 14.796875 37.75 14.796875 27.984375 
Q 14.796875 18.265625 18.828125 12.890625 
Q 22.859375 7.515625 30.078125 7.515625 
Q 37.359375 7.515625 41.375 12.890625 
Q 45.40625 18.265625 45.40625 27.984375 
z
M 54.390625 6.78125 
Q 54.390625 -7.171875 48.1875 -13.984375 
Q 42 -20.796875 29.203125 -20.796875 
Q 24.46875 -20.796875 20.265625 -20.09375 
Q 16.0625 -19.390625 12.109375 -17.921875 
L 12.109375 -9.1875 
Q 16.0625 -11.328125 19.921875 -12.34375 
Q 23.78125 -13.375 27.78125 -13.375 
Q 36.625 -13.375 41.015625 -8.765625 
Q 45.40625 -4.15625 45.40625 5.171875 
L 45.40625 9.625 
Q 42.625 4.78125 38.28125 2.390625 
Q 33.9375 0 27.875 0 
Q 17.828125 0 11.671875 7.65625 
Q 5.515625 15.328125 5.515625 27.984375 
Q 5.515625 40.671875 11.671875 48.328125 
Q 17.828125 56 27.875 56 
Q 33.9375 56 38.28125 53.609375 
Q 42.625 51.21875 45.40625 46.390625 
L 45.40625 54.6875 
L 54.390625 54.6875 
z
" id="DejaVuSans-103"/>
     <path d="M 11.71875 12.40625 
L 22.015625 12.40625 
L 22.015625 0 
L 11.71875 0 
z
M 11.71875 51.703125 
L 22.015625 51.703125 
L 22.015625 39.3125 
L 11.71875 39.3125 
z
" id="DejaVuSans-58"/>
     <path d="M 59.515625 10.40625 
L 59.515625 29.984375 
L 43.40625 29.984375 
L 43.40625 38.09375 
L 69.28125 38.09375 
L 69.28125 6.78125 
Q 63.578125 2.734375 56.6875 0.65625 
Q 49.8125 -1.421875 42 -1.421875 
Q 24.90625 -1.421875 15.25 8.5625 
Q 5.609375 18.5625 5.609375 36.375 
Q 5.609375 54.25 15.25 64.234375 
Q 24.90625 74.21875 42 74.21875 
Q 49.125 74.21875 55.546875 72.453125 
Q 61.96875 70.703125 67.390625 67.28125 
L 67.390625 56.78125 
Q 61.921875 61.421875 55.765625 63.765625 
Q 49.609375 66.109375 42.828125 66.109375 
Q 29.4375 66.109375 22.71875 58.640625 
Q 16.015625 51.171875 16.015625 36.375 
Q 16.015625 21.625 22.71875 14.15625 
Q 29.4375 6.6875 42.828125 6.6875 
Q 48.046875 6.6875 52.140625 7.59375 
Q 56.25 8.5 59.515625 10.40625 
z
" id="DejaVuSans-71"/>
     <path d="M 44.390625 34.1875 
Q 47.5625 33.109375 50.5625 29.59375 
Q 53.5625 26.078125 56.59375 19.921875 
L 66.609375 0 
L 56 0 
L 46.6875 18.703125 
Q 43.0625 26.03125 39.671875 28.421875 
Q 36.28125 30.8125 30.421875 30.8125 
L 19.671875 30.8125 
L 19.671875 0 
L 9.8125 0 
L 9.8125 72.90625 
L 32.078125 72.90625 
Q 44.578125 72.90625 50.734375 67.671875 
Q 56.890625 62.453125 56.890625 51.90625 
Q 56.890625 45.015625 53.6875 40.46875 
Q 50.484375 35.9375 44.390625 34.1875 
z
M 19.671875 64.796875 
L 19.671875 38.921875 
L 32.078125 38.921875 
Q 39.203125 38.921875 42.84375 42.21875 
Q 46.484375 45.515625 46.484375 51.90625 
Q 46.484375 58.296875 42.84375 61.546875 
Q 39.203125 64.796875 32.078125 64.796875 
z
" id="DejaVuSans-82"/>
     <path d="M 9.8125 72.90625 
L 24.515625 72.90625 
L 43.109375 23.296875 
L 61.8125 72.90625 
L 76.515625 72.90625 
L 76.515625 0 
L 66.890625 0 
L 66.890625 64.015625 
L 48.09375 14.015625 
L 38.1875 14.015625 
L 19.390625 64.015625 
L 19.390625 0 
L 9.8125 0 
z
" id="DejaVuSans-77"/>
     <path d="M 9.8125 72.90625 
L 23.09375 72.90625 
L 55.421875 11.921875 
L 55.421875 72.90625 
L 64.984375 72.90625 
L 64.984375 0 
L 51.703125 0 
L 19.390625 60.984375 
L 19.390625 0 
L 9.8125 0 
z
" id="DejaVuSans-78"/>
    </defs>
    <g transform="translate(173.080313 16.318125)scale(0.12 -0.12)">
     <use xlink:href="#DejaVuSans-84"/>
     <use x="46.333984" xlink:href="#DejaVuSans-114"/>
     <use x="87.447266" xlink:href="#DejaVuSans-97"/>
     <use x="148.726562" xlink:href="#DejaVuSans-105"/>
     <use x="176.509766" xlink:href="#DejaVuSans-110"/>
     <use x="239.888672" xlink:href="#DejaVuSans-105"/>
     <use x="267.671875" xlink:href="#DejaVuSans-110"/>
     <use x="331.050781" xlink:href="#DejaVuSans-103"/>
     <use x="394.527344" xlink:href="#DejaVuSans-58"/>
     <use x="428.21875" xlink:href="#DejaVuSans-32"/>
     <use x="460.005859" xlink:href="#DejaVuSans-71"/>
     <use x="537.496094" xlink:href="#DejaVuSans-82"/>
     <use x="606.978516" xlink:href="#DejaVuSans-77"/>
     <use x="693.257812" xlink:href="#DejaVuSans-78"/>
    </g>
   </g>
   <g id="legend_1">
    <g id="patch_7">
     <path d="M 47.603125 59.674375 
L 131.33125 59.674375 
Q 133.33125 59.674375 133.33125 57.674375 
L 133.33125 29.318125 
Q 133.33125 27.318125 131.33125 27.318125 
L 47.603125 27.318125 
Q 45.603125 27.318125 45.603125 29.318125 
L 45.603125 57.674375 
Q 45.603125 59.674375 47.603125 59.674375 
z
" style="fill:#ffffff;opacity:0.8;stroke:#cccccc;stroke-linejoin:miter;"/>
    </g>
    <g id="line2d_29">
     <path d="M 49.603125 35.416562 
L 69.603125 35.416562 
" style="fill:none;stroke:#1f77b4;stroke-linecap:square;stroke-width:1.5;"/>
    </g>
    <g id="line2d_30"/>
    <g id="text_17">
     <!-- Predicted -->
     <defs>
      <path d="M 45.40625 46.390625 
L 45.40625 75.984375 
L 54.390625 75.984375 
L 54.390625 0 
L 45.40625 0 
L 45.40625 8.203125 
Q 42.578125 3.328125 38.25 0.953125 
Q 33.9375 -1.421875 27.875 -1.421875 
Q 17.96875 -1.421875 11.734375 6.484375 
Q 5.515625 14.40625 5.515625 27.296875 
Q 5.515625 40.1875 11.734375 48.09375 
Q 17.96875 56 27.875 56 
Q 33.9375 56 38.25 53.625 
Q 42.578125 51.265625 45.40625 46.390625 
z
M 14.796875 27.296875 
Q 14.796875 17.390625 18.875 11.75 
Q 22.953125 6.109375 30.078125 6.109375 
Q 37.203125 6.109375 41.296875 11.75 
Q 45.40625 17.390625 45.40625 27.296875 
Q 45.40625 37.203125 41.296875 42.84375 
Q 37.203125 48.484375 30.078125 48.484375 
Q 22.953125 48.484375 18.875 42.84375 
Q 14.796875 37.203125 14.796875 27.296875 
z
" id="DejaVuSans-100"/>
      <path d="M 18.3125 70.21875 
L 18.3125 54.6875 
L 36.8125 54.6875 
L 36.8125 47.703125 
L 18.3125 47.703125 
L 18.3125 18.015625 
Q 18.3125 11.328125 20.140625 9.421875 
Q 21.96875 7.515625 27.59375 7.515625 
L 36.8125 7.515625 
L 36.8125 0 
L 27.59375 0 
Q 17.1875 0 13.234375 3.875 
Q 9.28125 7.765625 9.28125 18.015625 
L 9.28125 47.703125 
L 2.6875 47.703125 
L 2.6875 54.6875 
L 9.28125 54.6875 
L 9.28125 70.21875 
z
" id="DejaVuSans-116"/>
     </defs>
     <g transform="translate(77.603125 38.916562)scale(0.1 -0.1)">
      <use xlink:href="#DejaVuSans-80"/>
      <use x="58.552734" xlink:href="#DejaVuSans-114"/>
      <use x="97.416016" xlink:href="#DejaVuSans-101"/>
      <use x="158.939453" xlink:href="#DejaVuSans-100"/>
      <use x="222.416016" xlink:href="#DejaVuSans-105"/>
      <use x="250.199219" xlink:href="#DejaVuSans-99"/>
      <use x="305.179688" xlink:href="#DejaVuSans-116"/>
      <use x="344.388672" xlink:href="#DejaVuSans-101"/>
      <use x="405.912109" xlink:href="#DejaVuSans-100"/>
     </g>
    </g>
    <g id="line2d_31">
     <path d="M 49.603125 50.094687 
L 69.603125 50.094687 
" style="fill:none;stroke:#ff7f0e;stroke-linecap:square;stroke-width:1.5;"/>
    </g>
    <g id="line2d_32"/>
    <g id="text_18">
     <!-- True value -->
     <defs>
      <path d="M 8.5 21.578125 
L 8.5 54.6875 
L 17.484375 54.6875 
L 17.484375 21.921875 
Q 17.484375 14.15625 20.5 10.265625 
Q 23.53125 6.390625 29.59375 6.390625 
Q 36.859375 6.390625 41.078125 11.03125 
Q 45.3125 15.671875 45.3125 23.6875 
L 45.3125 54.6875 
L 54.296875 54.6875 
L 54.296875 0 
L 45.3125 0 
L 45.3125 8.40625 
Q 42.046875 3.421875 37.71875 1 
Q 33.40625 -1.421875 27.6875 -1.421875 
Q 18.265625 -1.421875 13.375 4.4375 
Q 8.5 10.296875 8.5 21.578125 
z
M 31.109375 56 
z
" id="DejaVuSans-117"/>
      <path d="M 2.984375 54.6875 
L 12.5 54.6875 
L 29.59375 8.796875 
L 46.6875 54.6875 
L 56.203125 54.6875 
L 35.6875 0 
L 23.484375 0 
z
" id="DejaVuSans-118"/>
      <path d="M 9.421875 75.984375 
L 18.40625 75.984375 
L 18.40625 0 
L 9.421875 0 
z
" id="DejaVuSans-108"/>
     </defs>
     <g transform="translate(77.603125 53.594687)scale(0.1 -0.1)">
      <use xlink:href="#DejaVuSans-84"/>
      <use x="46.333984" xlink:href="#DejaVuSans-114"/>
      <use x="87.447266" xlink:href="#DejaVuSans-117"/>
      <use x="150.826172" xlink:href="#DejaVuSans-101"/>
      <use x="212.349609" xlink:href="#DejaVuSans-32"/>
      <use x="244.136719" xlink:href="#DejaVuSans-118"/>
      <use x="303.316406" xlink:href="#DejaVuSans-97"/>
      <use x="364.595703" xlink:href="#DejaVuSans-108"/>
      <use x="392.378906" xlink:href="#DejaVuSans-117"/>
      <use x="455.757812" xlink:href="#DejaVuSans-101"/>
     </g>
    </g>
   </g>
  </g>
 </g>
 <defs>
  <clipPath id="p0e3152618c">
   <rect height="266.112" width="357.12" x="40.603125" y="22.318125"/>
  </clipPath>
 </defs>
</svg>
