<?xml version="1.0" encoding="utf-8" standalone="no"?>
<!DOCTYPE svg PUBLIC "-//W3C//DTD SVG 1.1//EN"
  "http://www.w3.org/Graphics/SVG/1.1/DTD/svg11.dtd">
<!-- Created with matplotlib (https://matplotlib.org/) -->
<svg height="325.986375pt" version="1.1" viewBox="0 0 411.285625 325.986375" width="411.285625pt" xmlns="http://www.w3.org/2000/svg" xmlns:xlink="http://www.w3.org/1999/xlink">
 <defs>
  <style type="text/css">
*{stroke-linecap:butt;stroke-linejoin:round;}
  </style>
 </defs>
 <g id="figure_1">
  <g id="patch_1">
   <path d="M 0 325.986375 
L 411.285625 325.986375 
L 411.285625 0 
L 0 0 
z
" style="fill:#ffffff;"/>
  </g>
  <g id="axes_1">
   <g id="patch_2">
    <path d="M 46.965625 288.430125 
L 404.085625 288.430125 
L 404.085625 22.318125 
L 46.965625 22.318125 
z
" style="fill:#ffffff;"/>
   </g>
   <g id="matplotlib.axis_1">
    <g id="xtick_1">
     <g id="line2d_1">
      <path clip-path="url(#pd8b1c8fc38)" d="M 63.198352 288.430125 
L 63.198352 22.318125 
" style="fill:none;stroke:#b0b0b0;stroke-dasharray:2.96,1.28;stroke-dashoffset:0;stroke-width:0.8;"/>
     </g>
     <g id="line2d_2">
      <defs>
       <path d="M 0 0 
L 0 3.5 
" id="m850457aa77" style="stroke:#000000;stroke-width:0.8;"/>
      </defs>
      <g>
       <use style="stroke:#000000;stroke-width:0.8;" x="63.198352" xlink:href="#m850457aa77" y="288.430125"/>
      </g>
     </g>
     <g id="text_1">
      <!-- 0 -->
      <defs>
       <path d="M 31.78125 66.40625 
Q 24.171875 66.40625 20.328125 58.90625 
Q 16.5 51.421875 16.5 36.375 
Q 16.5 21.390625 20.328125 13.890625 
Q 24.171875 6.390625 31.78125 6.390625 
Q 39.453125 6.390625 43.28125 13.890625 
Q 47.125 21.390625 47.125 36.375 
Q 47.125 51.421875 43.28125 58.90625 
Q 39.453125 66.40625 31.78125 66.40625 
z
M 31.78125 74.21875 
Q 44.046875 74.21875 50.515625 64.515625 
Q 56.984375 54.828125 56.984375 36.375 
Q 56.984375 17.96875 50.515625 8.265625 
Q 44.046875 -1.421875 31.78125 -1.421875 
Q 19.53125 -1.421875 13.0625 8.265625 
Q 6.59375 17.96875 6.59375 36.375 
Q 6.59375 54.828125 13.0625 64.515625 
Q 19.53125 74.21875 31.78125 74.21875 
z
" id="DejaVuSans-48"/>
      </defs>
      <g transform="translate(60.017102 303.028562)scale(0.1 -0.1)">
       <use xlink:href="#DejaVuSans-48"/>
      </g>
     </g>
    </g>
    <g id="xtick_2">
     <g id="line2d_3">
      <path clip-path="url(#pd8b1c8fc38)" d="M 112.128954 288.430125 
L 112.128954 22.318125 
" style="fill:none;stroke:#b0b0b0;stroke-dasharray:2.96,1.28;stroke-dashoffset:0;stroke-width:0.8;"/>
     </g>
     <g id="line2d_4">
      <g>
       <use style="stroke:#000000;stroke-width:0.8;" x="112.128954" xlink:href="#m850457aa77" y="288.430125"/>
      </g>
     </g>
     <g id="text_2">
      <!-- 200 -->
      <defs>
       <path d="M 19.1875 8.296875 
L 53.609375 8.296875 
L 53.609375 0 
L 7.328125 0 
L 7.328125 8.296875 
Q 12.9375 14.109375 22.625 23.890625 
Q 32.328125 33.6875 34.8125 36.53125 
Q 39.546875 41.84375 41.421875 45.53125 
Q 43.3125 49.21875 43.3125 52.78125 
Q 43.3125 58.59375 39.234375 62.25 
Q 35.15625 65.921875 28.609375 65.921875 
Q 23.96875 65.921875 18.8125 64.3125 
Q 13.671875 62.703125 7.8125 59.421875 
L 7.8125 69.390625 
Q 13.765625 71.78125 18.9375 73 
Q 24.125 74.21875 28.421875 74.21875 
Q 39.75 74.21875 46.484375 68.546875 
Q 53.21875 62.890625 53.21875 53.421875 
Q 53.21875 48.921875 51.53125 44.890625 
Q 49.859375 40.875 45.40625 35.40625 
Q 44.1875 33.984375 37.640625 27.21875 
Q 31.109375 20.453125 19.1875 8.296875 
z
" id="DejaVuSans-50"/>
      </defs>
      <g transform="translate(102.585204 303.028562)scale(0.1 -0.1)">
       <use xlink:href="#DejaVuSans-50"/>
       <use x="63.623047" xlink:href="#DejaVuSans-48"/>
       <use x="127.246094" xlink:href="#DejaVuSans-48"/>
      </g>
     </g>
    </g>
    <g id="xtick_3">
     <g id="line2d_5">
      <path clip-path="url(#pd8b1c8fc38)" d="M 161.059557 288.430125 
L 161.059557 22.318125 
" style="fill:none;stroke:#b0b0b0;stroke-dasharray:2.96,1.28;stroke-dashoffset:0;stroke-width:0.8;"/>
     </g>
     <g id="line2d_6">
      <g>
       <use style="stroke:#000000;stroke-width:0.8;" x="161.059557" xlink:href="#m850457aa77" y="288.430125"/>
      </g>
     </g>
     <g id="text_3">
      <!-- 400 -->
      <defs>
       <path d="M 37.796875 64.3125 
L 12.890625 25.390625 
L 37.796875 25.390625 
z
M 35.203125 72.90625 
L 47.609375 72.90625 
L 47.609375 25.390625 
L 58.015625 25.390625 
L 58.015625 17.1875 
L 47.609375 17.1875 
L 47.609375 0 
L 37.796875 0 
L 37.796875 17.1875 
L 4.890625 17.1875 
L 4.890625 26.703125 
z
" id="DejaVuSans-52"/>
      </defs>
      <g transform="translate(151.515807 303.028562)scale(0.1 -0.1)">
       <use xlink:href="#DejaVuSans-52"/>
       <use x="63.623047" xlink:href="#DejaVuSans-48"/>
       <use x="127.246094" xlink:href="#DejaVuSans-48"/>
      </g>
     </g>
    </g>
    <g id="xtick_4">
     <g id="line2d_7">
      <path clip-path="url(#pd8b1c8fc38)" d="M 209.990159 288.430125 
L 209.990159 22.318125 
" style="fill:none;stroke:#b0b0b0;stroke-dasharray:2.96,1.28;stroke-dashoffset:0;stroke-width:0.8;"/>
     </g>
     <g id="line2d_8">
      <g>
       <use style="stroke:#000000;stroke-width:0.8;" x="209.990159" xlink:href="#m850457aa77" y="288.430125"/>
      </g>
     </g>
     <g id="text_4">
      <!-- 600 -->
      <defs>
       <path d="M 33.015625 40.375 
Q 26.375 40.375 22.484375 35.828125 
Q 18.609375 31.296875 18.609375 23.390625 
Q 18.609375 15.53125 22.484375 10.953125 
Q 26.375 6.390625 33.015625 6.390625 
Q 39.65625 6.390625 43.53125 10.953125 
Q 47.40625 15.53125 47.40625 23.390625 
Q 47.40625 31.296875 43.53125 35.828125 
Q 39.65625 40.375 33.015625 40.375 
z
M 52.59375 71.296875 
L 52.59375 62.3125 
Q 48.875 64.0625 45.09375 64.984375 
Q 41.3125 65.921875 37.59375 65.921875 
Q 27.828125 65.921875 22.671875 59.328125 
Q 17.53125 52.734375 16.796875 39.40625 
Q 19.671875 43.65625 24.015625 45.921875 
Q 28.375 48.1875 33.59375 48.1875 
Q 44.578125 48.1875 50.953125 41.515625 
Q 57.328125 34.859375 57.328125 23.390625 
Q 57.328125 12.15625 50.6875 5.359375 
Q 44.046875 -1.421875 33.015625 -1.421875 
Q 20.359375 -1.421875 13.671875 8.265625 
Q 6.984375 17.96875 6.984375 36.375 
Q 6.984375 53.65625 15.1875 63.9375 
Q 23.390625 74.21875 37.203125 74.21875 
Q 40.921875 74.21875 44.703125 73.484375 
Q 48.484375 72.75 52.59375 71.296875 
z
" id="DejaVuSans-54"/>
      </defs>
      <g transform="translate(200.446409 303.028562)scale(0.1 -0.1)">
       <use xlink:href="#DejaVuSans-54"/>
       <use x="63.623047" xlink:href="#DejaVuSans-48"/>
       <use x="127.246094" xlink:href="#DejaVuSans-48"/>
      </g>
     </g>
    </g>
    <g id="xtick_5">
     <g id="line2d_9">
      <path clip-path="url(#pd8b1c8fc38)" d="M 258.920761 288.430125 
L 258.920761 22.318125 
" style="fill:none;stroke:#b0b0b0;stroke-dasharray:2.96,1.28;stroke-dashoffset:0;stroke-width:0.8;"/>
     </g>
     <g id="line2d_10">
      <g>
       <use style="stroke:#000000;stroke-width:0.8;" x="258.920761" xlink:href="#m850457aa77" y="288.430125"/>
      </g>
     </g>
     <g id="text_5">
      <!-- 800 -->
      <defs>
       <path d="M 31.78125 34.625 
Q 24.75 34.625 20.71875 30.859375 
Q 16.703125 27.09375 16.703125 20.515625 
Q 16.703125 13.921875 20.71875 10.15625 
Q 24.75 6.390625 31.78125 6.390625 
Q 38.8125 6.390625 42.859375 10.171875 
Q 46.921875 13.96875 46.921875 20.515625 
Q 46.921875 27.09375 42.890625 30.859375 
Q 38.875 34.625 31.78125 34.625 
z
M 21.921875 38.8125 
Q 15.578125 40.375 12.03125 44.71875 
Q 8.5 49.078125 8.5 55.328125 
Q 8.5 64.0625 14.71875 69.140625 
Q 20.953125 74.21875 31.78125 74.21875 
Q 42.671875 74.21875 48.875 69.140625 
Q 55.078125 64.0625 55.078125 55.328125 
Q 55.078125 49.078125 51.53125 44.71875 
Q 48 40.375 41.703125 38.8125 
Q 48.828125 37.15625 52.796875 32.3125 
Q 56.78125 27.484375 56.78125 20.515625 
Q 56.78125 9.90625 50.3125 4.234375 
Q 43.84375 -1.421875 31.78125 -1.421875 
Q 19.734375 -1.421875 13.25 4.234375 
Q 6.78125 9.90625 6.78125 20.515625 
Q 6.78125 27.484375 10.78125 32.3125 
Q 14.796875 37.15625 21.921875 38.8125 
z
M 18.3125 54.390625 
Q 18.3125 48.734375 21.84375 45.5625 
Q 25.390625 42.390625 31.78125 42.390625 
Q 38.140625 42.390625 41.71875 45.5625 
Q 45.3125 48.734375 45.3125 54.390625 
Q 45.3125 60.0625 41.71875 63.234375 
Q 38.140625 66.40625 31.78125 66.40625 
Q 25.390625 66.40625 21.84375 63.234375 
Q 18.3125 60.0625 18.3125 54.390625 
z
" id="DejaVuSans-56"/>
      </defs>
      <g transform="translate(249.377011 303.028562)scale(0.1 -0.1)">
       <use xlink:href="#DejaVuSans-56"/>
       <use x="63.623047" xlink:href="#DejaVuSans-48"/>
       <use x="127.246094" xlink:href="#DejaVuSans-48"/>
      </g>
     </g>
    </g>
    <g id="xtick_6">
     <g id="line2d_11">
      <path clip-path="url(#pd8b1c8fc38)" d="M 307.851363 288.430125 
L 307.851363 22.318125 
" style="fill:none;stroke:#b0b0b0;stroke-dasharray:2.96,1.28;stroke-dashoffset:0;stroke-width:0.8;"/>
     </g>
     <g id="line2d_12">
      <g>
       <use style="stroke:#000000;stroke-width:0.8;" x="307.851363" xlink:href="#m850457aa77" y="288.430125"/>
      </g>
     </g>
     <g id="text_6">
      <!-- 1000 -->
      <defs>
       <path d="M 12.40625 8.296875 
L 28.515625 8.296875 
L 28.515625 63.921875 
L 10.984375 60.40625 
L 10.984375 69.390625 
L 28.421875 72.90625 
L 38.28125 72.90625 
L 38.28125 8.296875 
L 54.390625 8.296875 
L 54.390625 0 
L 12.40625 0 
z
" id="DejaVuSans-49"/>
      </defs>
      <g transform="translate(295.126363 303.028562)scale(0.1 -0.1)">
       <use xlink:href="#DejaVuSans-49"/>
       <use x="63.623047" xlink:href="#DejaVuSans-48"/>
       <use x="127.246094" xlink:href="#DejaVuSans-48"/>
       <use x="190.869141" xlink:href="#DejaVuSans-48"/>
      </g>
     </g>
    </g>
    <g id="xtick_7">
     <g id="line2d_13">
      <path clip-path="url(#pd8b1c8fc38)" d="M 356.781965 288.430125 
L 356.781965 22.318125 
" style="fill:none;stroke:#b0b0b0;stroke-dasharray:2.96,1.28;stroke-dashoffset:0;stroke-width:0.8;"/>
     </g>
     <g id="line2d_14">
      <g>
       <use style="stroke:#000000;stroke-width:0.8;" x="356.781965" xlink:href="#m850457aa77" y="288.430125"/>
      </g>
     </g>
     <g id="text_7">
      <!-- 1200 -->
      <g transform="translate(344.056965 303.028562)scale(0.1 -0.1)">
       <use xlink:href="#DejaVuSans-49"/>
       <use x="63.623047" xlink:href="#DejaVuSans-50"/>
       <use x="127.246094" xlink:href="#DejaVuSans-48"/>
       <use x="190.869141" xlink:href="#DejaVuSans-48"/>
      </g>
     </g>
    </g>
    <g id="text_8">
     <!-- Day -->
     <defs>
      <path d="M 19.671875 64.796875 
L 19.671875 8.109375 
L 31.59375 8.109375 
Q 46.6875 8.109375 53.6875 14.9375 
Q 60.6875 21.78125 60.6875 36.53125 
Q 60.6875 51.171875 53.6875 57.984375 
Q 46.6875 64.796875 31.59375 64.796875 
z
M 9.8125 72.90625 
L 30.078125 72.90625 
Q 51.265625 72.90625 61.171875 64.09375 
Q 71.09375 55.28125 71.09375 36.53125 
Q 71.09375 17.671875 61.125 8.828125 
Q 51.171875 0 30.078125 0 
L 9.8125 0 
z
" id="DejaVuSans-68"/>
      <path d="M 34.28125 27.484375 
Q 23.390625 27.484375 19.1875 25 
Q 14.984375 22.515625 14.984375 16.5 
Q 14.984375 11.71875 18.140625 8.90625 
Q 21.296875 6.109375 26.703125 6.109375 
Q 34.1875 6.109375 38.703125 11.40625 
Q 43.21875 16.703125 43.21875 25.484375 
L 43.21875 27.484375 
z
M 52.203125 31.203125 
L 52.203125 0 
L 43.21875 0 
L 43.21875 8.296875 
Q 40.140625 3.328125 35.546875 0.953125 
Q 30.953125 -1.421875 24.3125 -1.421875 
Q 15.921875 -1.421875 10.953125 3.296875 
Q 6 8.015625 6 15.921875 
Q 6 25.140625 12.171875 29.828125 
Q 18.359375 34.515625 30.609375 34.515625 
L 43.21875 34.515625 
L 43.21875 35.40625 
Q 43.21875 41.609375 39.140625 45 
Q 35.0625 48.390625 27.6875 48.390625 
Q 23 48.390625 18.546875 47.265625 
Q 14.109375 46.140625 10.015625 43.890625 
L 10.015625 52.203125 
Q 14.9375 54.109375 19.578125 55.046875 
Q 24.21875 56 28.609375 56 
Q 40.484375 56 46.34375 49.84375 
Q 52.203125 43.703125 52.203125 31.203125 
z
" id="DejaVuSans-97"/>
      <path d="M 32.171875 -5.078125 
Q 28.375 -14.84375 24.75 -17.8125 
Q 21.140625 -20.796875 15.09375 -20.796875 
L 7.90625 -20.796875 
L 7.90625 -13.28125 
L 13.1875 -13.28125 
Q 16.890625 -13.28125 18.9375 -11.515625 
Q 21 -9.765625 23.484375 -3.21875 
L 25.09375 0.875 
L 2.984375 54.6875 
L 12.5 54.6875 
L 29.59375 11.921875 
L 46.6875 54.6875 
L 56.203125 54.6875 
z
" id="DejaVuSans-121"/>
     </defs>
     <g transform="translate(215.652188 316.706687)scale(0.1 -0.1)">
      <use xlink:href="#DejaVuSans-68"/>
      <use x="77.001953" xlink:href="#DejaVuSans-97"/>
      <use x="138.28125" xlink:href="#DejaVuSans-121"/>
     </g>
    </g>
   </g>
   <g id="matplotlib.axis_2">
    <g id="ytick_1">
     <g id="line2d_15">
      <path clip-path="url(#pd8b1c8fc38)" d="M 46.965625 265.670459 
L 404.085625 265.670459 
" style="fill:none;stroke:#b0b0b0;stroke-dasharray:2.96,1.28;stroke-dashoffset:0;stroke-width:0.8;"/>
     </g>
     <g id="line2d_16">
      <defs>
       <path d="M 0 0 
L -3.5 0 
" id="mb1c51bf3a2" style="stroke:#000000;stroke-width:0.8;"/>
      </defs>
      <g>
       <use style="stroke:#000000;stroke-width:0.8;" x="46.965625" xlink:href="#mb1c51bf3a2" y="265.670459"/>
      </g>
     </g>
     <g id="text_9">
      <!-- 25 -->
      <defs>
       <path d="M 10.796875 72.90625 
L 49.515625 72.90625 
L 49.515625 64.59375 
L 19.828125 64.59375 
L 19.828125 46.734375 
Q 21.96875 47.46875 24.109375 47.828125 
Q 26.265625 48.1875 28.421875 48.1875 
Q 40.625 48.1875 47.75 41.5 
Q 54.890625 34.8125 54.890625 23.390625 
Q 54.890625 11.625 47.5625 5.09375 
Q 40.234375 -1.421875 26.90625 -1.421875 
Q 22.3125 -1.421875 17.546875 -0.640625 
Q 12.796875 0.140625 7.71875 1.703125 
L 7.71875 11.625 
Q 12.109375 9.234375 16.796875 8.0625 
Q 21.484375 6.890625 26.703125 6.890625 
Q 35.15625 6.890625 40.078125 11.328125 
Q 45.015625 15.765625 45.015625 23.390625 
Q 45.015625 31 40.078125 35.4375 
Q 35.15625 39.890625 26.703125 39.890625 
Q 22.75 39.890625 18.8125 39.015625 
Q 14.890625 38.140625 10.796875 36.28125 
z
" id="DejaVuSans-53"/>
      </defs>
      <g transform="translate(27.240625 269.469678)scale(0.1 -0.1)">
       <use xlink:href="#DejaVuSans-50"/>
       <use x="63.623047" xlink:href="#DejaVuSans-53"/>
      </g>
     </g>
    </g>
    <g id="ytick_2">
     <g id="line2d_17">
      <path clip-path="url(#pd8b1c8fc38)" d="M 46.965625 229.000357 
L 404.085625 229.000357 
" style="fill:none;stroke:#b0b0b0;stroke-dasharray:2.96,1.28;stroke-dashoffset:0;stroke-width:0.8;"/>
     </g>
     <g id="line2d_18">
      <g>
       <use style="stroke:#000000;stroke-width:0.8;" x="46.965625" xlink:href="#mb1c51bf3a2" y="229.000357"/>
      </g>
     </g>
     <g id="text_10">
      <!-- 50 -->
      <g transform="translate(27.240625 232.799575)scale(0.1 -0.1)">
       <use xlink:href="#DejaVuSans-53"/>
       <use x="63.623047" xlink:href="#DejaVuSans-48"/>
      </g>
     </g>
    </g>
    <g id="ytick_3">
     <g id="line2d_19">
      <path clip-path="url(#pd8b1c8fc38)" d="M 46.965625 192.330254 
L 404.085625 192.330254 
" style="fill:none;stroke:#b0b0b0;stroke-dasharray:2.96,1.28;stroke-dashoffset:0;stroke-width:0.8;"/>
     </g>
     <g id="line2d_20">
      <g>
       <use style="stroke:#000000;stroke-width:0.8;" x="46.965625" xlink:href="#mb1c51bf3a2" y="192.330254"/>
      </g>
     </g>
     <g id="text_11">
      <!-- 75 -->
      <defs>
       <path d="M 8.203125 72.90625 
L 55.078125 72.90625 
L 55.078125 68.703125 
L 28.609375 0 
L 18.3125 0 
L 43.21875 64.59375 
L 8.203125 64.59375 
z
" id="DejaVuSans-55"/>
      </defs>
      <g transform="translate(27.240625 196.129473)scale(0.1 -0.1)">
       <use xlink:href="#DejaVuSans-55"/>
       <use x="63.623047" xlink:href="#DejaVuSans-53"/>
      </g>
     </g>
    </g>
    <g id="ytick_4">
     <g id="line2d_21">
      <path clip-path="url(#pd8b1c8fc38)" d="M 46.965625 155.660152 
L 404.085625 155.660152 
" style="fill:none;stroke:#b0b0b0;stroke-dasharray:2.96,1.28;stroke-dashoffset:0;stroke-width:0.8;"/>
     </g>
     <g id="line2d_22">
      <g>
       <use style="stroke:#000000;stroke-width:0.8;" x="46.965625" xlink:href="#mb1c51bf3a2" y="155.660152"/>
      </g>
     </g>
     <g id="text_12">
      <!-- 100 -->
      <g transform="translate(20.878125 159.459371)scale(0.1 -0.1)">
       <use xlink:href="#DejaVuSans-49"/>
       <use x="63.623047" xlink:href="#DejaVuSans-48"/>
       <use x="127.246094" xlink:href="#DejaVuSans-48"/>
      </g>
     </g>
    </g>
    <g id="ytick_5">
     <g id="line2d_23">
      <path clip-path="url(#pd8b1c8fc38)" d="M 46.965625 118.990049 
L 404.085625 118.990049 
" style="fill:none;stroke:#b0b0b0;stroke-dasharray:2.96,1.28;stroke-dashoffset:0;stroke-width:0.8;"/>
     </g>
     <g id="line2d_24">
      <g>
       <use style="stroke:#000000;stroke-width:0.8;" x="46.965625" xlink:href="#mb1c51bf3a2" y="118.990049"/>
      </g>
     </g>
     <g id="text_13">
      <!-- 125 -->
      <g transform="translate(20.878125 122.789268)scale(0.1 -0.1)">
       <use xlink:href="#DejaVuSans-49"/>
       <use x="63.623047" xlink:href="#DejaVuSans-50"/>
       <use x="127.246094" xlink:href="#DejaVuSans-53"/>
      </g>
     </g>
    </g>
    <g id="ytick_6">
     <g id="line2d_25">
      <path clip-path="url(#pd8b1c8fc38)" d="M 46.965625 82.319947 
L 404.085625 82.319947 
" style="fill:none;stroke:#b0b0b0;stroke-dasharray:2.96,1.28;stroke-dashoffset:0;stroke-width:0.8;"/>
     </g>
     <g id="line2d_26">
      <g>
       <use style="stroke:#000000;stroke-width:0.8;" x="46.965625" xlink:href="#mb1c51bf3a2" y="82.319947"/>
      </g>
     </g>
     <g id="text_14">
      <!-- 150 -->
      <g transform="translate(20.878125 86.119166)scale(0.1 -0.1)">
       <use xlink:href="#DejaVuSans-49"/>
       <use x="63.623047" xlink:href="#DejaVuSans-53"/>
       <use x="127.246094" xlink:href="#DejaVuSans-48"/>
      </g>
     </g>
    </g>
    <g id="ytick_7">
     <g id="line2d_27">
      <path clip-path="url(#pd8b1c8fc38)" d="M 46.965625 45.649844 
L 404.085625 45.649844 
" style="fill:none;stroke:#b0b0b0;stroke-dasharray:2.96,1.28;stroke-dashoffset:0;stroke-width:0.8;"/>
     </g>
     <g id="line2d_28">
      <g>
       <use style="stroke:#000000;stroke-width:0.8;" x="46.965625" xlink:href="#mb1c51bf3a2" y="45.649844"/>
      </g>
     </g>
     <g id="text_15">
      <!-- 175 -->
      <g transform="translate(20.878125 49.449063)scale(0.1 -0.1)">
       <use xlink:href="#DejaVuSans-49"/>
       <use x="63.623047" xlink:href="#DejaVuSans-55"/>
       <use x="127.246094" xlink:href="#DejaVuSans-53"/>
      </g>
     </g>
    </g>
    <g id="text_16">
     <!-- Price $ -->
     <defs>
      <path d="M 19.671875 64.796875 
L 19.671875 37.40625 
L 32.078125 37.40625 
Q 38.96875 37.40625 42.71875 40.96875 
Q 46.484375 44.53125 46.484375 51.125 
Q 46.484375 57.671875 42.71875 61.234375 
Q 38.96875 64.796875 32.078125 64.796875 
z
M 9.8125 72.90625 
L 32.078125 72.90625 
Q 44.34375 72.90625 50.609375 67.359375 
Q 56.890625 61.8125 56.890625 51.125 
Q 56.890625 40.328125 50.609375 34.8125 
Q 44.34375 29.296875 32.078125 29.296875 
L 19.671875 29.296875 
L 19.671875 0 
L 9.8125 0 
z
" id="DejaVuSans-80"/>
      <path d="M 41.109375 46.296875 
Q 39.59375 47.171875 37.8125 47.578125 
Q 36.03125 48 33.890625 48 
Q 26.265625 48 22.1875 43.046875 
Q 18.109375 38.09375 18.109375 28.8125 
L 18.109375 0 
L 9.078125 0 
L 9.078125 54.6875 
L 18.109375 54.6875 
L 18.109375 46.1875 
Q 20.953125 51.171875 25.484375 53.578125 
Q 30.03125 56 36.53125 56 
Q 37.453125 56 38.578125 55.875 
Q 39.703125 55.765625 41.0625 55.515625 
z
" id="DejaVuSans-114"/>
      <path d="M 9.421875 54.6875 
L 18.40625 54.6875 
L 18.40625 0 
L 9.421875 0 
z
M 9.421875 75.984375 
L 18.40625 75.984375 
L 18.40625 64.59375 
L 9.421875 64.59375 
z
" id="DejaVuSans-105"/>
      <path d="M 48.78125 52.59375 
L 48.78125 44.1875 
Q 44.96875 46.296875 41.140625 47.34375 
Q 37.3125 48.390625 33.40625 48.390625 
Q 24.65625 48.390625 19.8125 42.84375 
Q 14.984375 37.3125 14.984375 27.296875 
Q 14.984375 17.28125 19.8125 11.734375 
Q 24.65625 6.203125 33.40625 6.203125 
Q 37.3125 6.203125 41.140625 7.25 
Q 44.96875 8.296875 48.78125 10.40625 
L 48.78125 2.09375 
Q 45.015625 0.34375 40.984375 -0.53125 
Q 36.96875 -1.421875 32.421875 -1.421875 
Q 20.0625 -1.421875 12.78125 6.34375 
Q 5.515625 14.109375 5.515625 27.296875 
Q 5.515625 40.671875 12.859375 48.328125 
Q 20.21875 56 33.015625 56 
Q 37.15625 56 41.109375 55.140625 
Q 45.0625 54.296875 48.78125 52.59375 
z
" id="DejaVuSans-99"/>
      <path d="M 56.203125 29.59375 
L 56.203125 25.203125 
L 14.890625 25.203125 
Q 15.484375 15.921875 20.484375 11.0625 
Q 25.484375 6.203125 34.421875 6.203125 
Q 39.59375 6.203125 44.453125 7.46875 
Q 49.3125 8.734375 54.109375 11.28125 
L 54.109375 2.78125 
Q 49.265625 0.734375 44.1875 -0.34375 
Q 39.109375 -1.421875 33.890625 -1.421875 
Q 20.796875 -1.421875 13.15625 6.1875 
Q 5.515625 13.8125 5.515625 26.8125 
Q 5.515625 40.234375 12.765625 48.109375 
Q 20.015625 56 32.328125 56 
Q 43.359375 56 49.78125 48.890625 
Q 56.203125 41.796875 56.203125 29.59375 
z
M 47.21875 32.234375 
Q 47.125 39.59375 43.09375 43.984375 
Q 39.0625 48.390625 32.421875 48.390625 
Q 24.90625 48.390625 20.390625 44.140625 
Q 15.875 39.890625 15.1875 32.171875 
z
" id="DejaVuSans-101"/>
      <path id="DejaVuSans-32"/>
      <path d="M 33.796875 -14.703125 
L 28.90625 -14.703125 
L 28.859375 0 
Q 23.734375 0.09375 18.609375 1.1875 
Q 13.484375 2.296875 8.296875 4.5 
L 8.296875 13.28125 
Q 13.28125 10.15625 18.375 8.5625 
Q 23.484375 6.984375 28.90625 6.9375 
L 28.90625 29.203125 
Q 18.109375 30.953125 13.203125 35.15625 
Q 8.296875 39.359375 8.296875 46.6875 
Q 8.296875 54.640625 13.625 59.21875 
Q 18.953125 63.8125 28.90625 64.5 
L 28.90625 75.984375 
L 33.796875 75.984375 
L 33.796875 64.65625 
Q 38.328125 64.453125 42.578125 63.6875 
Q 46.828125 62.9375 50.875 61.625 
L 50.875 53.078125 
Q 46.828125 55.125 42.546875 56.25 
Q 38.28125 57.375 33.796875 57.5625 
L 33.796875 36.71875 
Q 44.875 35.015625 50.09375 30.609375 
Q 55.328125 26.21875 55.328125 18.609375 
Q 55.328125 10.359375 49.78125 5.59375 
Q 44.234375 0.828125 33.796875 0.09375 
z
M 28.90625 37.59375 
L 28.90625 57.625 
Q 23.25 56.984375 20.265625 54.390625 
Q 17.28125 51.8125 17.28125 47.515625 
Q 17.28125 43.3125 20.03125 40.96875 
Q 22.796875 38.625 28.90625 37.59375 
z
M 33.796875 28.21875 
L 33.796875 7.078125 
Q 39.984375 7.90625 43.140625 10.59375 
Q 46.296875 13.28125 46.296875 17.671875 
Q 46.296875 21.96875 43.28125 24.5 
Q 40.28125 27.046875 33.796875 28.21875 
z
" id="DejaVuSans-36"/>
     </defs>
     <g transform="translate(14.798438 172.342094)rotate(-90)scale(0.1 -0.1)">
      <use xlink:href="#DejaVuSans-80"/>
      <use x="58.552734" xlink:href="#DejaVuSans-114"/>
      <use x="99.666016" xlink:href="#DejaVuSans-105"/>
      <use x="127.449219" xlink:href="#DejaVuSans-99"/>
      <use x="182.429688" xlink:href="#DejaVuSans-101"/>
      <use x="243.953125" xlink:href="#DejaVuSans-32"/>
      <use x="275.740234" xlink:href="#DejaVuSans-36"/>
     </g>
    </g>
   </g>
   <g id="line2d_29">
    <path clip-path="url(#pd8b1c8fc38)" d="M 63.198352 231.2073 
L 63.443005 254.474568 
L 63.687658 267.168041 
L 63.932311 272.876311 
L 64.176964 275.150634 
L 64.66627 272.075336 
L 64.910923 272.096232 
L 65.155576 271.21141 
L 65.644882 268.696358 
L 66.134188 270.128748 
L 66.378841 269.634287 
L 66.868147 272.948221 
L 67.1128 272.14952 
L 67.357453 272.789537 
L 67.602106 272.958606 
L 67.846759 272.601618 
L 68.091412 272.902053 
L 68.336066 273.444643 
L 68.580719 273.200087 
L 68.825372 273.1243 
L 69.070025 273.553026 
L 69.559331 275.163923 
L 70.048637 273.62197 
L 70.29329 273.627023 
L 70.537943 274.199752 
L 70.782596 273.41574 
L 71.027249 271.010023 
L 71.271902 271.54714 
L 71.516555 270.158484 
L 71.761208 270.463681 
L 72.005861 269.764593 
L 72.250514 267.990919 
L 72.495167 268.41184 
L 72.73982 268.202227 
L 73.229126 270.825142 
L 73.473779 270.701659 
L 73.718432 270.908306 
L 74.207738 269.526953 
L 74.452391 269.521019 
L 74.697044 269.627936 
L 74.941697 269.983449 
L 75.675656 271.976275 
L 75.920309 272.871857 
L 76.409615 272.720577 
L 76.654268 272.945504 
L 77.143574 272.675967 
L 77.388227 273.299752 
L 77.63288 273.569891 
L 77.877533 272.869904 
L 78.122186 272.619714 
L 78.366839 269.235451 
L 78.611492 269.836315 
L 78.856145 270.032677 
L 79.100798 270.900876 
L 79.345451 270.707904 
L 79.834757 270.048577 
L 80.07941 270.513536 
L 80.324063 271.604893 
L 80.568716 271.896563 
L 80.813369 272.672437 
L 81.058022 272.523571 
L 81.302675 272.181263 
L 81.547328 270.224564 
L 81.791981 270.668492 
L 82.036634 268.890494 
L 82.281287 269.141722 
L 82.52594 268.161677 
L 82.770593 266.500981 
L 83.015246 266.794214 
L 83.259899 264.494317 
L 83.749205 263.071946 
L 83.993858 261.193432 
L 84.238511 260.468498 
L 84.483164 261.983767 
L 84.97247 260.709943 
L 85.461776 260.906888 
L 85.706429 260.388042 
L 85.951082 259.270987 
L 86.195735 261.159026 
L 86.440388 260.323798 
L 86.685041 262.167797 
L 86.929694 262.79304 
L 87.174347 261.96176 
L 87.419 261.552414 
L 87.663653 261.510297 
L 87.908306 263.116561 
L 88.397612 261.811062 
L 88.642265 263.105947 
L 88.886918 263.545246 
L 89.131571 262.750246 
L 89.376224 261.392002 
L 89.620877 261.231052 
L 89.86553 260.513057 
L 90.110183 259.313272 
L 90.354836 259.226985 
L 90.844143 256.641843 
L 91.088796 255.776503 
L 91.333449 256.314281 
L 91.578102 257.421527 
L 91.822755 257.865806 
L 92.067408 257.031166 
L 92.312061 257.043493 
L 93.290673 255.196209 
L 93.535326 254.198725 
L 93.779979 255.568119 
L 94.024632 255.135963 
L 94.269285 255.974413 
L 94.513938 258.079531 
L 94.758591 258.786399 
L 95.003244 258.856065 
L 95.247897 258.268292 
L 95.49255 258.155869 
L 95.737203 259.020517 
L 95.981856 259.279576 
L 96.226509 261.702209 
L 96.471162 261.684329 
L 96.715815 260.373743 
L 96.960468 259.868575 
L 97.205121 259.882247 
L 97.449774 259.411155 
L 97.694427 260.05704 
L 97.93908 260.109553 
L 98.183733 260.567414 
L 98.428386 260.428452 
L 98.673039 261.890755 
L 98.917692 261.006033 
L 99.162345 260.7179 
L 99.406998 260.662581 
L 99.651651 261.804826 
L 99.896304 261.649181 
L 100.140957 260.236026 
L 100.38561 260.139785 
L 100.630263 260.53601 
L 100.874916 260.553104 
L 101.119569 261.471725 
L 101.364222 261.019476 
L 101.608875 261.060711 
L 101.853528 260.870431 
L 102.098181 261.761265 
L 102.342834 261.597751 
L 102.587487 262.135764 
L 103.076793 264.607112 
L 103.321446 264.574449 
L 103.566099 263.384028 
L 103.810752 263.179985 
L 104.055405 263.585105 
L 104.300058 264.651478 
L 104.544711 264.245674 
L 104.789364 262.499922 
L 105.034017 262.963854 
L 105.27867 262.769948 
L 105.523323 262.304116 
L 105.767976 262.558729 
L 106.257282 260.121695 
L 106.501935 261.165589 
L 106.746588 261.168029 
L 106.991241 262.22611 
L 107.235894 262.198928 
L 107.480547 262.969836 
L 107.7252 262.675727 
L 107.969853 262.772622 
L 108.459159 262.392132 
L 108.703812 262.973403 
L 108.948465 261.499677 
L 109.193118 262.052353 
L 109.437771 260.623382 
L 109.682424 260.560873 
L 109.927077 259.767986 
L 110.17173 260.180838 
L 110.661036 262.334185 
L 110.905689 260.516686 
L 111.394995 262.27242 
L 111.884301 260.963925 
L 112.128954 262.721167 
L 112.61826 261.692965 
L 112.862913 263.260814 
L 113.107566 262.967676 
L 113.35222 263.188756 
L 114.086179 266.386373 
L 114.330832 265.493809 
L 114.575485 265.20538 
L 114.820138 265.77015 
L 115.064791 264.861052 
L 115.309444 266.842989 
L 115.554097 266.739902 
L 115.79875 266.300315 
L 116.043403 266.224481 
L 116.288056 265.540855 
L 116.532709 265.986015 
L 116.777362 266.039723 
L 117.022015 266.340655 
L 117.266668 266.154144 
L 117.755974 265.384455 
L 118.24528 265.273232 
L 118.489933 265.384612 
L 118.734586 265.964937 
L 119.223892 265.195056 
L 119.468545 264.395723 
L 119.713198 264.180896 
L 119.957851 264.955782 
L 120.202504 265.348776 
L 120.447157 265.026475 
L 120.69181 265.108204 
L 121.181116 263.688953 
L 121.425769 263.403427 
L 121.670422 263.385466 
L 121.915075 262.578145 
L 122.404381 261.767781 
L 122.649034 262.039948 
L 122.893687 262.642031 
L 123.13834 262.824472 
L 123.627646 262.048458 
L 123.872299 254.561124 
L 124.116952 254.873493 
L 124.361605 252.607373 
L 124.606258 248.952583 
L 124.850911 249.487046 
L 125.58487 244.259632 
L 125.829523 244.359745 
L 126.074176 243.827957 
L 126.318829 243.863443 
L 126.563482 244.100313 
L 126.808135 244.550302 
L 127.297441 246.759517 
L 127.542094 247.26654 
L 127.786747 246.708403 
L 128.0314 245.71821 
L 128.276053 245.207349 
L 128.520706 245.275361 
L 128.765359 245.190216 
L 129.254665 241.961142 
L 129.499318 243.276579 
L 130.47793 240.035262 
L 130.722583 240.169479 
L 130.967236 239.373448 
L 131.211889 237.780031 
L 131.456542 237.143038 
L 131.701195 237.638377 
L 131.945848 236.377988 
L 132.190501 236.559246 
L 132.435154 236.976999 
L 132.679807 238.270849 
L 132.92446 236.520615 
L 133.413766 234.714695 
L 133.658419 233.146088 
L 133.903072 233.337949 
L 134.881684 227.063683 
L 135.126337 228.030722 
L 135.37099 227.621652 
L 135.615643 227.978808 
L 135.860297 228.903153 
L 136.10495 227.406307 
L 136.349603 227.58691 
L 136.594256 230.566625 
L 136.838909 232.083099 
L 137.083562 230.188509 
L 137.572868 229.047078 
L 137.817521 229.033068 
L 138.306827 226.191963 
L 138.55148 223.62143 
L 138.796133 223.623371 
L 139.040786 224.257214 
L 139.285439 225.276928 
L 139.530092 224.46674 
L 139.774745 224.79335 
L 140.264051 227.848586 
L 140.508704 228.842297 
L 140.753357 228.156636 
L 140.99801 228.655897 
L 141.242663 229.94836 
L 141.487316 228.703044 
L 141.731969 229.222495 
L 141.976622 230.867832 
L 142.221275 231.1948 
L 142.465928 232.752848 
L 142.710581 232.683722 
L 142.955234 231.075964 
L 143.199887 230.208608 
L 143.44454 229.841258 
L 143.689193 232.325756 
L 144.423152 231.439476 
L 144.667805 232.340942 
L 144.912458 234.297798 
L 145.157111 234.109893 
L 145.401764 233.508503 
L 145.646417 232.021371 
L 146.135723 232.716394 
L 146.380376 232.234914 
L 146.869682 231.991435 
L 147.114335 231.200518 
L 147.358988 229.322065 
L 147.603641 229.440005 
L 148.092947 224.556832 
L 148.582253 221.642998 
L 148.826906 220.618343 
L 149.071559 221.503873 
L 149.316212 221.008707 
L 149.560865 218.599831 
L 149.805518 217.495946 
L 150.050171 217.315477 
L 150.539477 220.022001 
L 150.78413 219.411429 
L 151.028783 219.344559 
L 151.273436 219.806102 
L 152.007395 216.360178 
L 152.252048 217.302311 
L 152.496701 216.520234 
L 152.741354 217.801791 
L 152.986007 217.015893 
L 153.23066 216.927323 
L 153.475313 217.038084 
L 153.719966 218.275795 
L 153.964619 216.848103 
L 154.943231 221.051691 
L 155.187884 220.222149 
L 155.432537 221.634985 
L 155.67719 214.994427 
L 155.921843 212.556477 
L 156.166496 212.445984 
L 156.411149 210.795735 
L 156.655802 210.950258 
L 156.900455 210.416673 
L 157.145108 208.568816 
L 157.389761 208.883855 
L 157.634414 207.389907 
L 157.879067 207.840248 
L 158.12372 205.545592 
L 158.368374 204.629913 
L 158.613027 204.340384 
L 159.102333 201.039795 
L 159.346986 201.641302 
L 159.591639 198.859542 
L 159.836292 199.133561 
L 160.814904 202.322756 
L 161.059557 200.840397 
L 161.30421 198.212097 
L 161.548863 198.388677 
L 161.793516 199.350327 
L 162.038169 197.204072 
L 162.282822 198.179386 
L 162.527475 197.648695 
L 163.016781 200.65266 
L 163.261434 200.248279 
L 163.506087 199.576942 
L 163.995393 202.440809 
L 164.240046 202.282134 
L 164.484699 205.13603 
L 164.729352 205.73541 
L 164.974005 210.11832 
L 165.218658 210.474161 
L 165.463311 212.136273 
L 165.707964 212.867957 
L 165.952617 210.645766 
L 166.19727 210.00785 
L 166.686576 215.393368 
L 166.931229 216.261603 
L 167.175882 215.637838 
L 167.420535 212.180001 
L 167.909841 216.564561 
L 168.154494 215.806517 
L 168.399147 215.657343 
L 168.6438 214.648893 
L 168.888453 215.643053 
L 169.377759 211.364156 
L 169.622412 212.095588 
L 169.867065 213.607928 
L 170.111718 216.391322 
L 170.356371 217.260149 
L 170.601024 216.411823 
L 171.09033 212.740477 
L 171.334983 213.455168 
L 171.579636 213.09033 
L 172.068942 217.640168 
L 172.313595 217.363368 
L 172.558248 217.652405 
L 172.802901 214.813208 
L 173.047554 213.970013 
L 173.292207 214.147997 
L 173.53686 215.511437 
L 173.781513 215.58805 
L 174.026166 214.494213 
L 174.270819 215.575577 
L 174.760125 214.051281 
L 175.004778 213.587365 
L 175.494084 209.394218 
L 175.98339 208.198657 
L 176.228043 209.210638 
L 176.472696 209.52895 
L 176.717349 209.199481 
L 176.962002 210.132566 
L 177.206655 210.357625 
L 177.451308 209.896596 
L 177.695961 206.596142 
L 177.940614 205.587524 
L 178.185267 207.387949 
L 178.42992 207.224462 
L 178.674573 207.270322 
L 178.919226 206.850957 
L 179.163879 205.333055 
L 179.408532 206.49642 
L 179.653185 205.92289 
L 179.897838 205.815447 
L 180.387144 203.697259 
L 180.631798 204.089743 
L 180.876451 203.19197 
L 181.121104 203.553177 
L 181.365757 202.246905 
L 182.099716 205.406892 
L 182.344369 207.730019 
L 182.589022 206.472002 
L 182.833675 207.278502 
L 183.322981 204.059416 
L 183.567634 204.837268 
L 183.812287 203.291849 
L 184.05694 204.518352 
L 184.546246 200.819515 
L 184.790899 201.521683 
L 185.035552 199.375294 
L 185.280205 194.21028 
L 185.524858 192.795334 
L 185.769511 193.079144 
L 186.014164 194.237082 
L 186.258817 192.538594 
L 186.50347 194.253297 
L 186.748123 195.152133 
L 186.992776 194.010982 
L 187.482082 195.928407 
L 187.726735 194.8214 
L 187.971388 194.876347 
L 188.216041 194.487767 
L 188.460694 195.318642 
L 188.95 193.327189 
L 189.194653 194.487667 
L 189.683959 192.145013 
L 190.173265 193.383333 
L 190.417918 192.89275 
L 190.907224 190.857989 
L 191.39653 193.728358 
L 191.641183 192.578232 
L 191.885836 190.810305 
L 192.130489 191.325878 
L 192.864448 188.206927 
L 193.109101 189.629214 
L 193.598407 187.939074 
L 193.84306 188.546412 
L 194.087713 191.567588 
L 194.332366 190.526215 
L 194.577019 189.980595 
L 195.066325 187.971539 
L 195.310978 189.34857 
L 195.800284 187.1285 
L 196.044937 188.735324 
L 196.28959 187.004036 
L 196.778896 185.817931 
L 197.023549 188.575474 
L 197.757508 188.658555 
L 198.002161 189.311965 
L 198.246814 188.931152 
L 198.491467 190.58566 
L 198.73612 193.995405 
L 199.225426 193.616416 
L 199.714732 195.975666 
L 200.448691 188.41267 
L 200.693344 188.039803 
L 201.18265 183.857679 
L 201.427303 183.879389 
L 201.671956 182.885386 
L 201.916609 188.409582 
L 202.161262 190.953469 
L 202.405915 190.84954 
L 202.650568 191.960677 
L 202.895221 191.258061 
L 203.139875 192.870782 
L 203.629181 191.652482 
L 203.873834 192.285043 
L 204.118487 191.94398 
L 204.36314 192.2587 
L 204.607793 192.793487 
L 204.852446 191.987065 
L 205.097099 192.974387 
L 205.341752 192.479092 
L 205.586405 193.15193 
L 205.831058 192.654855 
L 206.075711 192.456151 
L 206.320364 192.437451 
L 206.565017 191.106302 
L 206.80967 188.921954 
L 207.054323 188.189738 
L 207.298976 189.9611 
L 207.543629 189.410209 
L 207.788282 190.050526 
L 208.032935 189.649223 
L 208.277588 188.285498 
L 208.522241 187.820978 
L 208.766894 187.697532 
L 209.011547 188.905089 
L 209.2562 187.73952 
L 209.500853 187.322561 
L 209.745506 188.45054 
L 209.990159 191.047461 
L 210.234812 190.243803 
L 210.968771 184.553603 
L 211.213424 184.358379 
L 211.458077 183.305132 
L 211.70273 182.787847 
L 211.947383 183.233354 
L 212.436689 185.518185 
L 212.681342 185.018783 
L 213.170648 188.391497 
L 213.415301 188.458989 
L 213.659954 186.950891 
L 213.904607 187.405966 
L 214.393913 189.031668 
L 214.638566 189.465022 
L 214.883219 192.032769 
L 215.861831 188.412155 
L 216.106484 187.410677 
L 216.351137 187.422013 
L 216.59579 189.290244 
L 216.840443 188.622509 
L 217.085096 187.24794 
L 217.574402 190.722188 
L 217.819055 190.494354 
L 218.063708 190.057632 
L 218.308361 189.967367 
L 218.553014 191.30278 
L 218.797667 191.402747 
L 219.04232 190.824898 
L 219.286973 189.514776 
L 219.531626 189.738011 
L 220.020932 190.566289 
L 220.265585 189.342684 
L 220.510238 186.694822 
L 220.754891 185.500962 
L 221.244197 186.802545 
L 221.733503 184.495646 
L 221.978156 185.759661 
L 222.222809 184.700214 
L 222.467462 184.865469 
L 222.956768 182.488157 
L 223.446074 184.408201 
L 223.690727 186.764049 
L 223.93538 186.6293 
L 224.180033 185.449563 
L 224.424686 186.457163 
L 224.669339 186.575047 
L 225.403298 181.858247 
L 226.137258 176.829974 
L 226.381911 178.866615 
L 226.871217 177.893919 
L 227.605176 181.195101 
L 227.849829 181.469545 
L 228.094482 180.662776 
L 228.339135 180.64618 
L 228.828441 180.994439 
L 229.073094 181.413423 
L 229.5624 179.449377 
L 230.051706 181.17535 
L 230.296359 182.906179 
L 231.030318 178.282498 
L 231.519624 181.546393 
L 231.764277 180.829878 
L 232.498236 185.53515 
L 232.742889 185.302135 
L 232.987542 185.978106 
L 233.232195 187.63192 
L 233.966154 186.059362 
L 234.45546 188.472452 
L 234.700113 186.825912 
L 234.944766 184.143571 
L 235.189419 185.564224 
L 235.434072 184.167072 
L 236.168031 184.926202 
L 236.412684 184.134451 
L 236.657337 185.064017 
L 236.90199 183.696777 
L 237.146643 184.442747 
L 237.391296 185.660544 
L 237.880602 183.86981 
L 238.125255 181.712364 
L 238.369908 182.212001 
L 238.614561 181.844348 
L 238.859214 183.462911 
L 239.103867 183.504206 
L 239.34852 182.020929 
L 239.593173 182.488828 
L 240.082479 184.528647 
L 240.816438 181.16821 
L 241.061091 181.794594 
L 241.79505 173.713026 
L 242.039703 174.152512 
L 242.284356 173.055834 
L 242.529009 175.050151 
L 242.773662 175.872005 
L 243.262968 173.426854 
L 243.507621 173.148438 
L 243.996927 176.339256 
L 244.24158 175.312822 
L 244.730886 171.006044 
L 244.975539 171.725681 
L 245.220192 170.915879 
L 245.464845 169.344743 
L 245.954151 161.328418 
L 246.198804 159.028367 
L 246.68811 161.868744 
L 246.932763 159.528418 
L 247.177416 162.287147 
L 247.422069 161.247497 
L 247.666722 159.491511 
L 247.911375 162.614277 
L 248.156029 164.140147 
L 248.400682 163.161184 
L 248.645335 164.441314 
L 248.889988 161.31707 
L 249.379294 164.047229 
L 249.8686 165.065012 
L 250.113253 163.99405 
L 250.357906 165.349271 
L 250.602559 163.994397 
L 250.847212 165.031776 
L 251.091865 163.397893 
L 251.336518 162.588214 
L 251.825824 172.639893 
L 252.070477 179.232835 
L 252.31513 177.765672 
L 252.804436 171.910822 
L 253.049089 170.0047 
L 253.293742 171.606364 
L 253.538395 174.180937 
L 253.783048 171.310087 
L 254.027701 172.962458 
L 254.272354 172.488381 
L 255.006313 167.370625 
L 255.495619 166.273633 
L 256.718884 161.692131 
L 256.963537 165.075633 
L 257.20819 163.661627 
L 257.452843 163.153787 
L 257.697496 165.469382 
L 258.186802 172.522882 
L 258.431455 169.888225 
L 258.920761 168.169023 
L 259.165414 166.058736 
L 259.410067 167.172905 
L 259.65472 167.766098 
L 259.899373 166.940438 
L 260.388679 164.044375 
L 260.633332 164.824163 
L 260.877985 165.131665 
L 261.367291 160.486039 
L 261.611944 158.605163 
L 261.856597 160.103459 
L 262.10125 159.289773 
L 262.835209 150.699504 
L 263.079862 151.23005 
L 263.569168 147.868706 
L 263.813821 151.231136 
L 264.058474 149.587405 
L 264.303127 151.268356 
L 264.54778 149.821315 
L 264.792433 144.748939 
L 265.037086 146.248297 
L 265.281739 147.056465 
L 265.771045 143.210424 
L 266.015698 144.658248 
L 266.260351 148.36474 
L 266.505004 148.333394 
L 266.749657 147.02381 
L 266.99431 144.705339 
L 267.238963 146.648291 
L 267.483616 144.955712 
L 267.728269 145.978161 
L 267.972922 147.927089 
L 268.217575 148.524903 
L 268.462228 147.324351 
L 268.706881 149.16269 
L 268.951534 146.35959 
L 269.196187 147.444305 
L 269.44084 149.039211 
L 269.685493 146.793447 
L 269.930146 147.57197 
L 270.174799 146.403335 
L 270.419452 148.588176 
L 270.664106 147.278323 
L 270.908759 150.941965 
L 271.153412 148.826473 
L 271.398065 149.537068 
L 271.642718 146.938514 
L 271.887371 147.620203 
L 272.132024 149.572957 
L 272.62133 147.094256 
L 272.865983 148.48682 
L 273.355289 146.176743 
L 273.599942 144.717671 
L 274.089248 148.369809 
L 274.333901 151.853681 
L 274.578554 150.80462 
L 274.823207 150.575846 
L 275.06786 156.355471 
L 275.312513 158.124484 
L 275.557166 158.213115 
L 275.801819 156.365633 
L 276.046472 160.058158 
L 276.291125 158.054564 
L 276.535778 162.43725 
L 276.780431 161.942861 
L 277.025084 164.450826 
L 277.269737 165.071884 
L 277.51439 161.007454 
L 277.759043 161.48867 
L 278.003696 160.09981 
L 278.248349 162.878929 
L 278.493002 148.484426 
L 278.982308 137.975467 
L 279.226961 137.154933 
L 279.716267 139.809296 
L 280.205573 151.258262 
L 280.450226 153.576285 
L 280.939532 151.321323 
L 281.184185 151.039124 
L 281.428838 152.557126 
L 281.673491 149.239426 
L 281.918144 151.042414 
L 282.162797 149.29181 
L 282.40745 146.242299 
L 282.652103 148.132508 
L 283.141409 144.922352 
L 283.386062 145.400558 
L 283.630715 144.097185 
L 283.875368 145.904794 
L 284.120021 142.287941 
L 284.364674 141.077609 
L 284.85398 143.712634 
L 285.098633 146.474452 
L 285.343286 145.718478 
L 285.587939 144.287899 
L 285.832592 145.374573 
L 286.321898 141.462204 
L 286.811204 138.416967 
L 287.055857 140.068062 
L 287.545163 137.722476 
L 288.034469 136.028856 
L 288.279122 135.586684 
L 288.523775 134.359599 
L 288.768428 132.166566 
L 289.013081 134.460361 
L 289.257734 135.615041 
L 289.502387 132.892962 
L 289.74704 137.18601 
L 289.991693 138.294316 
L 290.236346 136.081218 
L 290.480999 137.023183 
L 290.970305 142.099924 
L 291.214958 139.975256 
L 291.459611 141.62738 
L 291.704264 139.975413 
L 291.948917 141.506341 
L 292.92753 135.374674 
L 293.172183 139.294373 
L 293.661489 142.158676 
L 293.906142 141.859624 
L 294.150795 133.215515 
L 294.640101 129.009656 
L 294.884754 130.56301 
L 295.129407 128.392437 
L 295.37406 129.702603 
L 295.618713 127.507186 
L 295.863366 128.380049 
L 296.108019 126.472214 
L 296.352672 127.858209 
L 296.597325 126.142846 
L 296.841978 127.376131 
L 297.331284 130.675041 
L 297.575937 129.607694 
L 297.82059 131.486175 
L 298.065243 130.086101 
L 298.309896 132.081459 
L 298.554549 129.931265 
L 298.799202 129.232521 
L 299.043855 127.36795 
L 299.533161 129.556361 
L 299.777814 129.923711 
L 300.022467 128.56181 
L 300.26712 129.698585 
L 300.511773 128.2984 
L 300.756426 130.017278 
L 301.001079 128.786578 
L 301.245732 128.33082 
L 301.735038 134.766743 
L 301.979691 133.454966 
L 302.71365 137.408293 
L 303.202956 134.507217 
L 303.447609 135.546352 
L 303.692262 133.663686 
L 304.181568 141.325385 
L 304.670874 135.466797 
L 304.915527 134.443049 
L 305.404833 136.279944 
L 305.649486 133.330378 
L 305.894139 134.422547 
L 306.383445 130.2543 
L 306.628098 128.792028 
L 306.872751 130.547835 
L 307.117404 129.100525 
L 307.362057 130.651104 
L 307.851363 125.869062 
L 308.096016 123.820279 
L 308.340669 125.844543 
L 308.829975 123.400298 
L 309.074628 124.917428 
L 309.563934 119.246554 
L 309.808587 120.903916 
L 310.05324 119.143957 
L 310.297893 121.477602 
L 310.542546 122.600132 
L 311.031852 118.082742 
L 311.276505 117.646803 
L 311.765811 120.090981 
L 312.010464 118.888649 
L 312.744423 122.691259 
L 312.989076 120.615786 
L 313.233729 121.946722 
L 313.478382 122.544838 
L 313.967688 119.734575 
L 314.212341 121.439934 
L 314.701647 118.98432 
L 314.9463 117.332128 
L 315.190953 118.889041 
L 315.68026 117.01911 
L 315.924913 116.113503 
L 316.414219 111.028738 
L 316.658872 112.726969 
L 316.903525 115.848102 
L 317.148178 113.815187 
L 317.392831 116.60722 
L 317.882137 113.833204 
L 318.12679 112.867391 
L 318.371443 114.389523 
L 318.616096 115.020495 
L 319.105402 111.523127 
L 319.350055 115.127714 
L 319.594708 116.38187 
L 319.839361 114.094555 
L 320.084014 113.065782 
L 320.328667 115.072197 
L 320.817973 113.127735 
L 321.062626 114.974512 
L 321.551932 112.937849 
L 321.796585 112.420385 
L 322.041238 111.015578 
L 322.285891 113.297074 
L 322.530544 112.105587 
L 322.775197 114.811775 
L 323.01985 113.691998 
L 323.264503 115.356231 
L 323.753809 111.432414 
L 323.998462 112.800537 
L 324.487768 107.929685 
L 325.221727 112.954568 
L 325.46638 110.258429 
L 325.711033 111.359114 
L 325.955686 113.184092 
L 326.200339 116.145654 
L 326.444992 123.95947 
L 326.689645 123.252893 
L 327.178951 120.095737 
L 327.91291 128.389874 
L 328.157563 132.509654 
L 328.402216 130.299018 
L 328.646869 132.624584 
L 328.891522 130.323571 
L 329.136175 131.744962 
L 329.380828 127.012093 
L 329.625481 127.092611 
L 330.114787 127.971673 
L 330.604093 125.387274 
L 330.848746 127.981812 
L 331.093399 132.014773 
L 331.338052 131.357793 
L 331.582705 129.506719 
L 331.827358 130.799763 
L 332.316664 128.059969 
L 332.561317 126.629109 
L 332.80597 129.046418 
L 333.050623 126.550617 
L 333.295276 127.457466 
L 333.539929 125.933599 
L 334.029235 128.090833 
L 334.273888 128.448134 
L 334.518541 129.146788 
L 334.763194 130.895344 
L 335.007847 131.577962 
L 335.2525 130.137568 
L 335.986459 133.953942 
L 336.720418 126.537546 
L 337.209724 120.167973 
L 337.454377 121.210309 
L 338.188337 114.116556 
L 338.43299 115.855443 
L 338.677643 114.418955 
L 339.166949 117.187957 
L 339.411602 114.334598 
L 339.656255 113.204683 
L 340.145561 108.318454 
L 340.87952 112.758549 
L 341.124173 108.709797 
L 341.368826 111.499268 
L 341.858132 108.130068 
L 342.102785 109.70455 
L 342.347438 106.569552 
L 342.592091 107.79488 
L 342.836744 106.432173 
L 343.32605 108.180136 
L 343.570703 108.939232 
L 343.815356 107.268262 
L 344.060009 108.162253 
L 344.304662 106.842272 
L 344.549315 104.142105 
L 344.793968 105.478871 
L 345.038621 104.370912 
L 345.283274 102.467554 
L 345.527927 104.241949 
L 345.77258 101.29283 
L 346.017233 102.893611 
L 346.506539 99.744177 
L 346.751192 101.472824 
L 347.240498 99.094549 
L 347.729804 97.070084 
L 347.974457 98.926978 
L 348.463763 96.294783 
L 348.708416 98.099976 
L 348.953069 96.709202 
L 349.197722 99.328997 
L 349.442375 97.558966 
L 349.687028 98.887855 
L 349.931681 96.71764 
L 350.176334 98.388677 
L 350.66564 93.960556 
L 351.154946 96.040819 
L 351.399599 94.221459 
L 351.644252 95.929671 
L 351.888905 94.315439 
L 352.378211 97.198331 
L 352.622864 95.673401 
L 352.867517 97.955592 
L 353.356823 99.68059 
L 353.601476 96.857794 
L 353.846129 97.888245 
L 354.335435 92.368929 
L 354.580088 93.510908 
L 355.069394 88.158313 
L 355.5587 85.284867 
L 356.048006 78.643402 
L 356.292659 77.650843 
L 356.781965 82.712566 
L 357.026618 83.586234 
L 357.271271 81.084166 
L 357.760577 83.947384 
L 358.00523 84.828796 
L 358.249883 83.095292 
L 358.739189 85.322714 
L 358.983842 90.149922 
L 359.228495 86.933388 
L 359.717801 84.162338 
L 359.962454 85.569942 
L 360.451761 80.565449 
L 360.941067 78.118955 
L 361.18572 80.566635 
L 361.430373 79.254197 
L 361.675026 77.166146 
L 361.919679 76.233547 
L 362.164332 78.81075 
L 362.653638 75.044902 
L 362.898291 81.634352 
L 363.142944 85.094198 
L 363.387597 81.8626 
L 363.876903 85.603224 
L 364.366209 80.130752 
L 364.610862 81.517788 
L 364.855515 78.305752 
L 365.100168 79.771549 
L 365.344821 76.897163 
L 365.589474 78.535522 
L 365.834127 81.796373 
L 366.07878 78.424979 
L 366.323433 81.968935 
L 366.568086 82.83233 
L 366.812739 85.359353 
L 367.057392 82.716393 
L 367.302045 85.394716 
L 368.769963 67.339301 
L 369.014616 68.962329 
L 369.503922 61.965959 
L 369.748575 60.751373 
L 369.993228 62.267842 
L 370.237881 59.07116 
L 370.482534 61.540327 
L 370.727187 59.825377 
L 370.97184 53.566482 
L 371.216493 50.46237 
L 371.461146 54.574775 
L 371.705799 52.429785 
L 372.195105 56.514616 
L 372.684411 51.253047 
L 372.929064 53.085612 
L 373.173717 53.994083 
L 373.41837 57.974526 
L 373.663023 55.957961 
L 373.907676 52.581958 
L 374.152329 51.193512 
L 374.641635 57.746994 
L 374.886288 56.235897 
L 375.130941 55.617738 
L 375.375594 53.57248 
L 375.8649 57.836969 
L 376.109553 59.638669 
L 376.354206 57.432689 
L 376.598859 56.347335 
L 377.332818 49.801753 
L 377.577471 52.687935 
L 378.066777 48.711207 
L 378.31143 52.201402 
L 378.556083 48.500282 
L 378.800736 50.446748 
L 379.045389 48.562571 
L 379.290042 52.34516 
L 379.534695 50.550017 
L 379.779348 53.659478 
L 380.024001 50.293523 
L 380.513307 53.553836 
L 380.75796 54.918714 
L 381.002613 62.367978 
L 381.247266 60.125896 
L 381.736572 54.946624 
L 381.981225 52.15458 
L 382.225878 54.650269 
L 382.470531 52.844069 
L 382.715184 55.706302 
L 382.959838 52.141128 
L 383.449144 49.046417 
L 383.693797 51.38906 
L 383.93845 48.977012 
L 384.183103 50.69646 
L 384.672409 46.423108 
L 384.917062 44.17928 
L 385.406368 48.693861 
L 385.651021 46.426935 
L 385.895674 51.079365 
L 386.140327 49.011412 
L 386.38498 52.443818 
L 386.629633 51.394029 
L 386.874286 43.979009 
L 387.608245 35.520042 
L 387.852898 40.53172 
L 387.852898 40.53172 
" style="fill:none;stroke:#1f77b4;stroke-linecap:square;stroke-width:1.5;"/>
   </g>
   <g id="line2d_30">
    <path clip-path="url(#pd8b1c8fc38)" d="M 63.198352 268.384047 
L 63.687658 271.713692 
L 63.932311 272.945808 
L 64.421617 270.188216 
L 64.66627 271.948381 
L 64.910923 271.948381 
L 65.155576 271.523008 
L 65.400229 270.349564 
L 65.644882 270.657593 
L 65.889535 272.447094 
L 66.134188 271.244315 
L 66.623494 274.397944 
L 66.868147 272.989812 
L 67.1128 274.236595 
L 67.357453 273.82589 
L 67.846759 273.869894 
L 68.091412 274.251263 
L 68.336066 273.97257 
L 68.580719 274.324603 
L 68.825372 274.339271 
L 69.070025 275.85008 
L 69.314678 276.334125 
L 69.559331 275.087342 
L 69.803984 274.529956 
L 70.048637 274.50062 
L 70.29329 274.749977 
L 70.537943 273.840558 
L 70.782596 271.640352 
L 71.027249 271.963049 
L 71.271902 270.070871 
L 71.516555 270.774937 
L 71.761208 270.261556 
L 72.005861 268.178694 
L 72.250514 269.205457 
L 72.495167 268.80942 
L 72.73982 271.845704 
L 72.984473 272.593775 
L 73.229126 272.095061 
L 73.473779 272.535102 
L 73.718432 270.569585 
L 74.207738 269.674834 
L 74.452391 270.320228 
L 74.697044 270.144212 
L 74.941697 271.669688 
L 75.18635 272.417758 
L 75.431003 272.667115 
L 75.675656 273.532529 
L 75.920309 273.371181 
L 76.164962 273.708546 
L 76.654268 273.767218 
L 76.898921 273.180496 
L 77.143574 274.50062 
L 77.388227 274.471284 
L 77.877533 273.737882 
L 78.122186 268.266702 
L 78.856145 271.376327 
L 79.100798 271.229647 
L 79.345451 271.273651 
L 79.590104 271.170975 
L 79.834757 271.288319 
L 80.568716 274.163255 
L 80.813369 272.901803 
L 81.058022 273.209832 
L 81.302675 269.542822 
L 81.547328 269.821515 
L 81.791981 267.782657 
L 82.036634 268.721412 
L 82.281287 268.457387 
L 82.52594 266.667886 
L 82.770593 267.137263 
L 83.015246 264.291663 
L 83.504552 263.675606 
L 83.993858 261.270047 
L 84.238511 262.678179 
L 84.727817 261.69542 
L 84.97247 262.780855 
L 85.461776 261.504736 
L 85.706429 261.299383 
L 85.951082 261.886105 
L 86.195735 260.918014 
L 86.440388 263.015544 
L 86.685041 263.103552 
L 86.929694 261.69542 
L 87.174347 262.135461 
L 87.419 262.208802 
L 87.663653 263.822286 
L 87.908306 262.839527 
L 88.397612 264.130315 
L 88.642265 264.335667 
L 88.886918 263.294237 
L 89.131571 261.270047 
L 89.376224 261.607412 
L 89.86553 259.187185 
L 90.110183 259.715235 
L 90.354836 257.471024 
L 90.844143 255.813536 
L 91.333449 258.189758 
L 91.578102 258.556459 
L 91.822755 258.131086 
L 92.067408 258.835152 
L 92.312061 257.265672 
L 92.556714 257.133659 
L 92.801367 256.75229 
L 93.04602 256.07756 
L 93.290673 254.713433 
L 93.535326 257.177663 
L 93.779979 256.517602 
L 94.024632 256.898971 
L 94.513938 261.108698 
L 95.003244 259.729903 
L 95.247897 260.316624 
L 95.49255 260.463305 
L 95.737203 260.888678 
L 95.981856 262.194133 
L 96.471162 260.536645 
L 96.715815 260.80067 
L 96.960468 259.905919 
L 97.205121 260.595317 
L 97.449774 262.326146 
L 97.694427 262.546166 
L 98.183733 262.164797 
L 98.428386 262.927536 
L 98.917692 261.592744 
L 99.162345 261.680752 
L 99.406998 261.974113 
L 99.651651 262.076789 
L 99.896304 260.419301 
L 100.140957 261.328719 
L 100.38561 261.064694 
L 100.630263 261.519404 
L 100.874916 262.619507 
L 101.119569 262.678179 
L 101.364222 263.2649 
L 101.608875 263.484921 
L 101.853528 263.396913 
L 102.098181 264.409008 
L 102.342834 264.585024 
L 102.587487 264.599692 
L 102.83214 265.479775 
L 103.076793 265.377098 
L 103.321446 264.071643 
L 103.566099 264.819713 
L 104.055405 265.054401 
L 104.544711 262.634175 
L 104.789364 262.164797 
L 105.034017 262.956872 
L 105.27867 263.338241 
L 105.523323 261.900773 
L 105.767976 261.240711 
L 106.257282 263.440917 
L 106.501935 262.854195 
L 106.746588 263.294237 
L 106.991241 264.658364 
L 107.235894 264.599692 
L 107.480547 264.247659 
L 107.7252 264.232991 
L 107.969853 264.042307 
L 108.214506 263.998303 
L 108.459159 262.956872 
L 108.703812 262.766187 
L 108.948465 261.607412 
L 109.193118 262.106125 
L 109.437771 259.847247 
L 110.17173 262.898199 
L 110.416383 262.560835 
L 110.661036 262.678179 
L 110.905689 263.206228 
L 111.150342 263.000876 
L 111.394995 262.634175 
L 111.884301 264.012971 
L 112.128954 263.836954 
L 112.373607 264.555688 
L 112.61826 264.702368 
L 112.862913 265.435771 
L 113.107566 265.582451 
L 113.35222 266.682554 
L 113.596873 266.990583 
L 113.841526 268.13469 
L 114.086179 266.330521 
L 114.330832 266.623882 
L 115.064791 268.750748 
L 115.309444 268.648072 
L 115.554097 268.178694 
L 115.79875 266.653218 
L 116.288056 267.474628 
L 116.777362 267.679981 
L 117.022015 267.107927 
L 117.511321 266.682554 
L 117.755974 267.283944 
L 118.000627 266.359857 
L 118.24528 267.23994 
L 118.489933 266.770562 
L 118.734586 266.902575 
L 118.979239 266.169173 
L 119.223892 265.846476 
L 119.468545 265.949152 
L 119.713198 266.535874 
L 119.957851 266.374525 
L 120.202504 266.594546 
L 120.447157 266.095832 
L 120.69181 264.966393 
L 120.936463 264.497016 
L 121.181116 264.482348 
L 121.425769 264.335667 
L 121.670422 263.79295 
L 121.915075 263.734278 
L 122.159728 263.250232 
L 122.649034 264.379672 
L 123.13834 264.012971 
L 123.382993 263.455585 
L 123.627646 251.941173 
L 123.872299 252.454554 
L 124.116952 250.371692 
L 124.361605 247.144723 
L 124.606258 248.362171 
L 125.340217 244.856509 
L 125.58487 245.795264 
L 125.829523 245.325886 
L 126.074176 245.809932 
L 126.318829 245.868604 
L 126.563482 246.279309 
L 126.808135 248.039474 
L 127.052788 248.582191 
L 127.297441 248.714204 
L 127.786747 246.880699 
L 128.0314 246.000616 
L 128.276053 246.132629 
L 128.520706 245.795264 
L 128.765359 242.861655 
L 129.010012 241.70288 
L 129.254665 244.196447 
L 129.743971 241.790888 
L 129.988624 241.77622 
L 130.233277 240.925474 
L 130.47793 241.057486 
L 130.722583 239.766699 
L 130.967236 237.874522 
L 131.211889 237.742509 
L 131.456542 238.387903 
L 131.701195 236.275705 
L 132.190501 237.346472 
L 132.435154 239.986719 
L 132.679807 236.231701 
L 132.92446 235.997012 
L 133.169113 234.896909 
L 133.413766 232.682035 
L 133.658419 233.122076 
L 134.147725 229.792431 
L 134.637031 227.18152 
L 134.881684 228.662992 
L 135.126337 228.384299 
L 135.37099 228.589652 
L 135.615643 230.203136 
L 135.860297 227.47488 
L 136.10495 228.237619 
L 136.349603 233.195416 
L 136.594256 233.738134 
L 136.838909 230.393821 
L 137.083562 230.305812 
L 137.328215 229.719091 
L 137.572868 229.733759 
L 138.306827 222.810443 
L 138.55148 223.353161 
L 139.040786 226.213429 
L 139.285439 225.406687 
L 139.530092 226.140089 
L 139.774745 228.662992 
L 140.019398 229.880439 
L 140.264051 230.452493 
L 140.508704 228.706996 
L 140.753357 229.367058 
L 140.99801 231.611268 
L 141.242663 228.853676 
L 141.487316 230.291144 
L 141.731969 232.579359 
L 141.976622 232.623363 
L 142.221275 234.574212 
L 142.465928 233.987491 
L 142.710581 230.892534 
L 142.955234 230.481829 
L 143.199887 230.452493 
L 143.44454 235.11693 
L 143.689193 234.339524 
L 143.933846 234.236847 
L 144.178499 233.84081 
L 144.423152 234.530208 
L 144.667805 236.598402 
L 145.157111 234.148839 
L 145.401764 233.386101 
L 145.646417 233.312761 
L 145.89107 233.796806 
L 146.135723 231.024546 
L 146.625029 232.021973 
L 146.869682 230.701849 
L 147.114335 228.648324 
L 147.358988 229.909775 
L 147.848294 224.130567 
L 148.092947 223.411833 
L 148.582253 220.830258 
L 148.826906 221.592996 
L 149.071559 221.49032 
L 149.316212 217.603289 
L 149.560865 217.324596 
L 149.805518 217.661961 
L 150.294824 223.558514 
L 150.539477 222.179718 
L 150.78413 222.091709 
L 151.028783 222.31173 
L 151.273436 218.439367 
L 151.518089 217.383268 
L 151.762742 216.928559 
L 152.007395 218.410031 
L 152.252048 217.353932 
L 152.496701 220.331545 
L 152.741354 217.647293 
L 152.986007 217.852646 
L 153.23066 218.454035 
L 153.475313 219.759491 
L 153.719966 216.517854 
L 154.209272 219.275446 
L 154.453925 222.473078 
L 154.698578 223.793202 
L 154.943231 221.460984 
L 155.187884 223.822538 
L 155.432537 212.748167 
L 155.67719 210.562629 
L 155.921843 212.161446 
L 156.166496 210.298604 
L 156.411149 211.120015 
L 156.655802 211.164019 
L 156.900455 207.995722 
L 157.145108 209.125161 
L 157.389761 207.218316 
L 157.634414 207.805038 
L 157.879067 203.580642 
L 158.12372 203.932675 
L 158.368374 203.624646 
L 158.613027 202.509875 
L 158.85768 200.206992 
L 159.102333 201.732469 
L 159.346986 198.520168 
L 159.836292 200.74971 
L 160.325598 201.923153 
L 160.570251 203.463297 
L 160.814904 201.42444 
L 161.059557 197.361392 
L 161.548863 199.957636 
L 161.793516 196.686662 
L 162.038169 199.517594 
L 162.282822 198.373487 
L 162.527475 201.380436 
L 162.772128 203.008588 
L 163.016781 201.512448 
L 163.261434 200.852386 
L 163.75074 204.108691 
L 163.995393 203.712654 
L 164.240046 208.318419 
L 164.484699 207.159644 
L 164.729352 213.77493 
L 164.974005 212.909516 
L 165.218658 214.317648 
L 165.463311 213.980283 
L 165.707964 210.489289 
L 165.952617 210.342609 
L 166.441923 219.099429 
L 166.686576 218.806068 
L 166.931229 216.987231 
L 167.175882 210.797318 
L 167.420535 215.564431 
L 167.665188 216.488518 
L 168.399147 214.743021 
L 168.6438 215.887128 
L 169.133106 209.887899 
L 169.377759 212.337462 
L 169.622412 213.056196 
L 169.867065 217.691297 
L 170.111718 219.99418 
L 170.601024 214.655013 
L 170.845677 212.645491 
L 171.09033 213.657586 
L 171.334983 212.542815 
L 171.579636 216.488518 
L 172.068942 219.084761 
L 172.313595 218.380695 
L 172.558248 214.581672 
L 172.802901 214.581672 
L 173.047554 215.461755 
L 173.292207 217.383268 
L 173.53686 217.236588 
L 173.781513 215.491091 
L 174.026166 216.444514 
L 174.270819 213.613582 
L 174.515472 213.569578 
L 174.760125 212.35213 
L 175.004778 209.227837 
L 175.249431 209.183833 
L 175.494084 208.714456 
L 175.738737 209.491862 
L 176.228043 210.122588 
L 176.472696 209.43319 
L 176.717349 209.653211 
L 176.962002 210.665306 
L 177.206655 210.10792 
L 177.451308 205.868856 
L 177.695961 205.854188 
L 177.940614 208.039726 
L 178.185267 207.731697 
L 178.42992 208.186407 
L 178.674573 207.878378 
L 178.919226 206.118213 
L 179.163879 207.966386 
L 179.408532 207.731697 
L 179.653185 206.455578 
L 179.897838 205.942196 
L 180.142491 203.419293 
L 180.387144 203.874003 
L 180.631798 203.184605 
L 180.876451 203.639314 
L 181.121104 202.509875 
L 181.365757 204.871429 
L 181.61041 205.106118 
L 181.855063 206.572922 
L 182.099716 210.283936 
L 182.344369 207.042299 
L 182.589022 207.18898 
L 183.078328 202.744563 
L 183.322981 203.81533 
L 183.567634 203.096596 
L 183.812287 204.930101 
L 184.05694 201.981825 
L 184.301593 200.544357 
L 184.546246 200.735042 
L 184.790899 197.772097 
L 185.035552 192.35959 
L 185.280205 192.051561 
L 185.524858 192.447599 
L 185.769511 194.222432 
L 186.014164 192.799632 
L 186.258817 195.777244 
L 186.50347 196.202617 
L 186.748123 194.515792 
L 186.992776 195.718572 
L 187.237429 196.041269 
L 187.482082 195.014506 
L 187.726735 195.175854 
L 187.971388 194.618469 
L 188.216041 195.513219 
L 188.705347 193.357017 
L 188.95 194.339776 
L 189.439306 191.904881 
L 189.683959 192.608947 
L 189.928612 192.96098 
L 190.173265 192.96098 
L 190.417918 192.300918 
L 190.662571 190.922122 
L 191.151877 194.002411 
L 191.39653 192.594279 
L 191.641183 189.866023 
L 191.885836 191.112807 
L 192.130489 190.93679 
L 192.375142 189.015277 
L 192.619795 188.09119 
L 192.864448 189.880691 
L 193.353754 188.047186 
L 193.598407 188.69258 
L 193.84306 192.946312 
L 194.087713 190.746106 
L 194.332366 190.232724 
L 194.577019 189.396646 
L 194.821672 188.061854 
L 195.066325 189.690007 
L 195.310978 187.504469 
L 195.555631 187.152436 
L 195.800284 189.073949 
L 196.044937 186.771067 
L 196.28959 186.463038 
L 196.534243 186.404366 
L 196.778896 190.056708 
L 197.268202 188.751252 
L 197.512855 188.575236 
L 197.757508 190.438077 
L 198.002161 188.633908 
L 198.246814 190.995463 
L 198.491467 195.395875 
L 198.73612 195.278531 
L 198.980773 194.398448 
L 199.225426 194.955834 
L 199.470079 195.80658 
L 199.714732 190.93679 
L 199.959385 189.469986 
L 200.204038 186.917747 
L 200.448691 187.387124 
L 200.693344 184.937562 
L 200.937997 184.013475 
L 201.18265 184.585529 
L 201.427303 183.866795 
L 201.671956 191.068803 
L 201.916609 193.63571 
L 202.161262 192.344922 
L 202.405915 193.973075 
L 202.650568 191.215483 
L 202.895221 192.579611 
L 203.384528 191.450172 
L 203.873834 192.902308 
L 204.118487 192.740959 
L 204.36314 193.430357 
L 204.607793 192.506271 
L 204.852446 193.445025 
L 205.097099 193.298345 
L 205.341752 194.779817 
L 206.075711 193.78239 
L 206.565017 188.487228 
L 206.80967 188.369883 
L 207.054323 192.183574 
L 207.298976 191.655524 
L 207.543629 192.506271 
L 207.788282 191.978221 
L 208.032935 190.335401 
L 208.277588 190.100712 
L 208.522241 189.631335 
L 208.766894 190.599425 
L 209.011547 188.325879 
L 209.2562 188.179199 
L 209.500853 189.411314 
L 209.745506 192.784964 
L 209.990159 190.702102 
L 210.479465 185.17225 
L 210.724118 182.869368 
L 210.968771 184.101483 
L 211.213424 183.866795 
L 211.458077 183.852127 
L 211.947383 186.140341 
L 212.192036 187.900506 
L 212.436689 187.26978 
L 212.925995 190.64343 
L 213.170648 190.64343 
L 213.415301 187.680485 
L 213.659954 188.311211 
L 213.904607 189.807351 
L 214.393913 190.452745 
L 214.638566 193.723718 
L 215.127872 190.511417 
L 215.372525 189.778015 
L 215.617178 188.443223 
L 215.861831 188.179199 
L 216.106484 188.663244 
L 216.351137 191.186147 
L 216.59579 190.511417 
L 216.840443 187.929842 
L 217.085096 190.995463 
L 217.329749 192.344922 
L 217.819055 191.406168 
L 218.063708 191.435504 
L 218.308361 193.10766 
L 218.553014 193.151665 
L 218.797667 192.051561 
L 219.04232 190.11538 
L 219.286973 190.526085 
L 219.531626 191.244819 
L 219.776279 191.450172 
L 220.020932 189.822019 
L 220.265585 185.84698 
L 220.510238 185.157582 
L 220.754891 186.697727 
L 220.999544 187.26978 
L 221.48885 184.394844 
L 221.733503 186.507042 
L 221.978156 185.362935 
L 222.222809 185.582955 
L 222.467462 183.690778 
L 222.712115 183.221401 
L 222.956768 184.996234 
L 223.201421 185.817644 
L 223.446074 188.589904 
L 223.690727 188.560568 
L 223.93538 186.565714 
L 224.180033 187.856502 
L 224.424686 187.827166 
L 224.913992 183.661442 
L 225.403298 179.422378 
L 225.892605 177.207504 
L 226.137258 180.713166 
L 226.381911 180.581153 
L 226.626564 180.15578 
L 226.871217 180.317129 
L 227.360523 182.546671 
L 227.605176 182.708019 
L 227.849829 181.417232 
L 228.828441 182.003953 
L 229.073094 180.581153 
L 229.317747 179.833083 
L 229.5624 181.035863 
L 229.807053 181.607916 
L 230.051706 183.852127 
L 230.296359 180.463809 
L 230.541012 179.686403 
L 230.785665 178.204931 
L 231.030318 181.461236 
L 231.274971 182.752024 
L 231.519624 182.194638 
L 231.764277 183.998807 
L 232.00893 184.306836 
L 232.253583 186.800403 
L 232.498236 186.477706 
L 232.742889 186.741731 
L 232.987542 188.575236 
L 233.476848 187.313784 
L 233.721501 187.181772 
L 234.210807 188.721916 
L 234.45546 187.284448 
L 234.700113 182.986712 
L 234.944766 184.380176 
L 235.189419 183.705446 
L 235.434072 184.072147 
L 235.923378 184.292168 
L 236.168031 184.20416 
L 236.412684 185.978993 
L 236.657337 184.189492 
L 236.90199 184.790881 
L 237.146643 186.184345 
L 237.391296 184.570861 
L 237.635949 184.35084 
L 237.880602 181.417232 
L 238.125255 181.989285 
L 238.369908 181.857273 
L 238.614561 184.013475 
L 238.859214 184.013475 
L 239.103867 181.827937 
L 239.593173 182.752024 
L 239.837826 183.954803 
L 240.082479 183.441421 
L 240.327132 182.370654 
L 240.571785 180.727834 
L 240.816438 181.314555 
L 241.550397 172.000349 
L 241.79505 173.291137 
L 242.039703 173.247133 
L 242.284356 176.48877 
L 242.529009 176.532774 
L 242.773662 174.860617 
L 243.262968 173.921863 
L 243.507621 174.405908 
L 243.752274 176.708791 
L 243.996927 176.371426 
L 244.486233 170.181512 
L 244.730886 170.79757 
L 244.975539 170.680226 
L 245.220192 169.081409 
L 245.709498 158.725772 
L 245.954151 158.021706 
L 246.443457 162.348778 
L 246.68811 160.133904 
L 246.932763 164.21162 
L 247.177416 162.568799 
L 247.422069 160.075232 
L 247.911375 164.446308 
L 248.156029 164.255624 
L 248.400682 164.372968 
L 248.645335 160.881974 
L 249.134641 164.020935 
L 249.379294 164.240956 
L 249.623947 165.018362 
L 249.8686 164.182284 
L 250.113253 165.297055 
L 250.357906 163.844919 
L 250.602559 164.563653 
L 250.847212 162.744816 
L 251.091865 162.539463 
L 251.825824 181.930613 
L 252.070477 180.595821 
L 252.559783 170.72423 
L 252.804436 168.846721 
L 253.293742 174.39124 
L 253.538395 170.489541 
L 253.783048 173.04178 
L 254.027701 172.880432 
L 254.76166 167.423921 
L 255.006313 167.321244 
L 255.250966 166.939875 
L 256.229578 163.874255 
L 256.474231 162.18743 
L 256.718884 165.986453 
L 256.963537 164.504981 
L 257.20819 163.859587 
L 257.452843 166.265145 
L 257.942149 175.21265 
L 258.186802 170.474873 
L 258.676108 167.291908 
L 258.920761 164.446308 
L 259.165414 166.221141 
L 259.410067 166.807863 
L 259.65472 166.705187 
L 260.144026 164.079607 
L 260.633332 164.3583 
L 261.122638 159.26849 
L 261.367291 157.904362 
L 261.611944 160.060564 
L 261.856597 159.899216 
L 262.590556 150.1303 
L 262.835209 150.232977 
L 263.324515 148.502148 
L 263.569168 152.770548 
L 263.813821 150.80503 
L 264.058474 151.875797 
L 264.303127 149.880944 
L 264.54778 142.810948 
L 264.792433 145.260511 
L 265.037086 146.140593 
L 265.526392 142.444247 
L 265.771045 143.896383 
L 266.015698 149.866276 
L 266.260351 149.734263 
L 266.505004 148.135447 
L 266.749657 144.263084 
L 266.99431 146.477958 
L 267.238963 144.923146 
L 267.483616 145.465863 
L 267.728269 147.240696 
L 267.972922 147.724742 
L 268.217575 147.666069 
L 268.462228 149.440902 
L 268.706881 145.216507 
L 268.951534 146.756651 
L 269.196187 149.23555 
L 269.44084 146.595302 
L 269.685493 147.431381 
L 269.930146 146.140593 
L 270.174799 148.912853 
L 270.419452 147.710074 
L 270.664106 152.550527 
L 270.908759 148.824845 
L 271.153412 148.986193 
L 271.398065 145.700552 
L 271.642718 146.53663 
L 271.887371 149.734263 
L 272.376677 147.578061 
L 272.62133 148.868849 
L 272.865983 148.296795 
L 273.355289 145.011154 
L 273.599942 146.53663 
L 273.844595 148.824845 
L 274.089248 152.403847 
L 274.333901 151.655777 
L 274.578554 151.303744 
L 274.823207 158.711104 
L 275.06786 159.576519 
L 275.312513 159.312494 
L 275.557166 156.584238 
L 275.801819 162.348778 
L 276.046472 158.051042 
L 276.291125 163.038176 
L 276.535778 162.612803 
L 276.780431 163.947595 
L 277.025084 164.226288 
L 277.269737 158.681768 
L 277.51439 160.045896 
L 277.759043 159.561851 
L 278.003696 163.800915 
L 278.248349 142.297566 
L 278.737655 133.526078 
L 278.982308 134.230144 
L 279.471614 140.273377 
L 279.96092 156.026853 
L 280.205573 156.334882 
L 280.694879 152.858556 
L 280.939532 152.711876 
L 281.184185 153.298597 
L 281.428838 148.03277 
L 281.673491 150.570342 
L 281.918144 148.956857 
L 282.162797 145.157834 
L 282.40745 147.651401 
L 282.896756 143.823043 
L 283.141409 144.043063 
L 283.386062 143.999059 
L 283.630715 145.509867 
L 283.875368 141.256136 
L 284.120021 141.065451 
L 284.364674 141.608169 
L 284.609327 143.353665 
L 284.85398 147.255364 
L 285.098633 146.962003 
L 285.343286 144.644453 
L 285.587939 144.923146 
L 285.832592 141.857525 
L 286.077245 141.153459 
L 286.321898 140.009352 
L 286.566551 137.794478 
L 286.811204 139.495971 
L 288.279122 135.579604 
L 288.523775 131.985934 
L 288.768428 134.098132 
L 289.013081 134.978214 
L 289.257734 132.103278 
L 289.502387 137.25176 
L 289.74704 137.735806 
L 289.991693 135.550268 
L 290.236346 135.652944 
L 290.480999 140.068024 
L 290.725652 142.473583 
L 290.970305 140.09736 
L 291.214958 140.244041 
L 291.459611 139.759995 
L 291.704264 141.52016 
L 291.948917 140.332049 
L 292.19357 137.633129 
L 292.438223 137.442445 
L 292.682876 135.946305 
L 292.92753 140.170701 
L 293.172183 140.84543 
L 293.416836 142.810948 
L 293.661489 142.620263 
L 293.906142 131.120519 
L 294.395448 128.4216 
L 294.640101 130.093756 
L 294.884754 129.16967 
L 295.129407 129.536371 
L 295.37406 127.07214 
L 295.618713 127.438841 
L 295.863366 125.590668 
L 296.108019 127.028136 
L 296.352672 125.913365 
L 296.597325 126.602763 
L 297.086631 130.211101 
L 297.331284 129.771059 
L 297.575937 131.003175 
L 297.82059 130.211101 
L 298.065243 132.23529 
L 298.309896 129.697719 
L 298.554549 129.419026 
L 298.799202 127.101476 
L 299.043855 127.233488 
L 299.288508 128.069567 
L 299.533161 128.113571 
L 299.777814 127.89355 
L 300.022467 128.56828 
L 300.26712 128.098903 
L 300.511773 129.609711 
L 300.756426 128.685624 
L 301.001079 128.436268 
L 301.490385 135.198235 
L 301.735038 133.746099 
L 302.224344 134.552841 
L 302.468997 136.562362 
L 302.71365 136.048981 
L 302.958303 134.567509 
L 303.202956 135.256907 
L 303.447609 133.540746 
L 303.936915 142.502919 
L 304.181568 137.03174 
L 304.426221 134.890206 
L 304.670874 134.714189 
L 304.915527 134.846202 
L 305.16018 135.124894 
L 305.404833 131.164523 
L 305.649486 132.411307 
L 305.894139 130.372449 
L 306.138792 129.448363 
L 306.383445 129.360354 
L 306.628098 131.047179 
L 306.872751 130.299109 
L 307.117404 130.929835 
L 307.362057 127.248156 
L 307.851363 123.507806 
L 308.096016 125.429319 
L 308.340669 124.857266 
L 308.585322 123.933179 
L 308.829975 124.534569 
L 309.319281 118.990049 
L 309.563934 120.544862 
L 309.808587 120.002144 
L 310.05324 121.791645 
L 310.297893 122.642392 
L 310.542546 119.928804 
L 310.787199 118.770029 
L 311.031852 118.60868 
L 311.521158 119.166066 
L 312.010464 119.166066 
L 312.49977 121.483616 
L 312.744423 119.914136 
L 313.233729 121.102247 
L 313.478382 120.236833 
L 313.723035 119.914136 
L 313.967688 121.219592 
L 314.212341 120.618202 
L 314.456994 119.048721 
L 314.701647 116.731171 
L 314.9463 117.757934 
L 315.190953 117.347229 
L 315.435607 117.273889 
L 315.68026 116.775175 
L 315.924913 112.052066 
L 316.169566 110.115885 
L 316.414219 111.259992 
L 316.658872 115.909761 
L 316.903525 113.577542 
L 317.148178 115.748412 
L 317.882137 113.020157 
L 318.12679 113.636214 
L 318.371443 113.650882 
L 318.616096 111.744037 
L 318.860749 111.538685 
L 319.105402 114.648309 
L 319.350055 115.601732 
L 319.594708 113.577542 
L 319.839361 112.785468 
L 320.084014 114.457625 
L 320.328667 114.1936 
L 320.57332 113.460198 
L 320.817973 114.310944 
L 321.551932 113.137501 
L 321.796585 111.303996 
L 322.041238 113.298849 
L 322.285891 113.049493 
L 322.530544 114.853662 
L 322.775197 114.765654 
L 323.01985 115.264367 
L 323.264503 113.753559 
L 323.509156 111.49468 
L 323.753809 111.656029 
L 324.243115 106.844911 
L 324.732421 110.130553 
L 324.977074 112.110738 
L 325.221727 109.763852 
L 325.46638 110.203893 
L 325.711033 112.389431 
L 325.955686 115.807084 
L 326.200339 126.32407 
L 326.444992 125.223967 
L 326.689645 123.170441 
L 326.934298 120.134157 
L 327.178951 121.659633 
L 327.91291 133.540746 
L 328.157563 130.431121 
L 328.402216 131.692573 
L 328.646869 129.565707 
L 328.891522 130.695146 
L 329.136175 123.727827 
L 329.380828 124.167868 
L 329.870134 125.766684 
L 330.114787 125.72268 
L 330.35944 125.04795 
L 330.848746 133.51141 
L 331.093399 133.071369 
L 331.338052 130.093756 
L 331.582705 130.269773 
L 331.827358 129.331018 
L 332.316664 126.793447 
L 332.561317 129.595043 
L 332.80597 125.869361 
L 333.050623 126.016041 
L 333.295276 125.487991 
L 333.784582 127.438841 
L 334.273888 127.732202 
L 334.518541 130.13776 
L 334.763194 130.328445 
L 335.007847 129.24301 
L 335.2525 130.841826 
L 335.497153 131.677905 
L 335.741806 133.58475 
L 336.475765 125.341311 
L 336.720418 121.322268 
L 336.965071 119.13673 
L 337.209724 119.943472 
L 337.454377 117.391233 
L 337.69903 116.613827 
L 337.943684 114.090924 
L 338.188337 114.780322 
L 338.43299 114.706981 
L 338.922296 115.997769 
L 339.166949 113.225509 
L 339.411602 112.580115 
L 339.900908 107.578313 
L 340.145561 108.458396 
L 340.634867 111.186652 
L 340.87952 106.918252 
L 341.124173 110.423913 
L 341.368826 110.218561 
L 341.613479 108.634412 
L 341.858132 108.957109 
L 342.102785 105.495452 
L 342.347438 105.58346 
L 342.592091 105.51012 
L 343.081397 106.008833 
L 343.32605 106.610223 
L 343.570703 106.023501 
L 343.815356 106.47821 
L 344.060009 106.199518 
L 344.304662 102.679188 
L 344.549315 103.793959 
L 344.793968 103.676615 
L 345.038621 102.253815 
L 345.283274 103.529934 
L 345.527927 100.772342 
L 345.77258 101.740433 
L 346.261886 100.772342 
L 346.506539 100.948359 
L 346.995845 99.569563 
L 347.485151 97.574709 
L 347.729804 97.985415 
L 348.21911 97.002656 
L 348.463763 97.222677 
L 348.708416 97.075996 
L 348.953069 99.173526 
L 349.197722 97.589378 
L 349.442375 97.677386 
L 349.687028 96.489274 
L 349.931681 96.518611 
L 350.420987 93.100957 
L 350.910293 93.981039 
L 351.154946 93.643675 
L 351.399599 94.450417 
L 351.644252 94.2744 
L 352.133558 95.843881 
L 352.378211 95.462512 
L 352.622864 97.105332 
L 353.11217 97.882738 
L 353.356823 94.905126 
L 353.601476 95.579856 
L 354.090782 91.414132 
L 354.335435 91.590149 
L 354.824741 87.468429 
L 355.069394 87.365753 
L 355.314047 85.693596 
L 355.803353 78.711609 
L 356.048006 78.242231 
L 356.781965 81.967914 
L 357.026618 80.765135 
L 357.271271 81.615881 
L 357.760577 82.261275 
L 358.00523 81.835902 
L 358.249883 82.041254 
L 358.494536 82.642644 
L 358.739189 89.873988 
L 358.983842 85.752268 
L 359.228495 85.165547 
L 359.473148 84.901522 
L 359.717801 85.150879 
L 360.207107 79.445011 
L 360.696414 78.828953 
L 360.941067 80.178413 
L 361.18572 80.075737 
L 361.430373 77.024784 
L 361.675026 76.995448 
L 361.919679 78.198227 
L 362.164332 77.743518 
L 362.408985 75.4113 
L 362.653638 82.906669 
L 362.898291 84.608161 
L 363.142944 81.32252 
L 363.63225 82.613308 
L 363.876903 81.381192 
L 364.121556 78.110219 
L 364.366209 79.019638 
L 364.610862 76.584743 
L 364.855515 77.332813 
L 365.100168 74.88325 
L 365.344821 77.05412 
L 365.589474 81.4692 
L 365.834127 77.567502 
L 366.07878 80.794471 
L 366.323433 80.882479 
L 366.568086 84.622829 
L 366.812739 81.821233 
L 367.057392 84.050776 
L 367.546698 77.186133 
L 367.791351 74.589889 
L 368.036004 69.26539 
L 368.280657 68.737341 
L 368.52531 67.69591 
L 368.769963 68.047943 
L 369.014616 63.456846 
L 369.259269 61.579337 
L 369.503922 61.007283 
L 369.748575 61.153964 
L 369.993228 58.851081 
L 370.237881 59.90718 
L 370.482534 59.423135 
L 370.727187 52.338471 
L 370.97184 49.390195 
L 371.216493 54.083968 
L 371.461146 53.189217 
L 371.950452 55.052059 
L 372.195105 53.54125 
L 372.439758 50.079593 
L 372.684411 51.179696 
L 372.929064 51.253036 
L 373.173717 56.797556 
L 373.41837 55.800129 
L 373.663023 51.883762 
L 373.907676 51.517061 
L 374.152329 52.983865 
L 374.396982 57.51629 
L 374.886288 56.24017 
L 375.130941 53.511914 
L 375.620247 56.298842 
L 375.8649 58.381704 
L 376.354206 55.844133 
L 376.843512 50.094261 
L 377.088165 50.020921 
L 377.332818 51.927766 
L 377.822124 48.275424 
L 378.066777 51.590401 
L 378.31143 47.835383 
L 378.556083 48.642125 
L 378.800736 48.510112 
L 379.045389 51.575733 
L 379.290042 50.578306 
L 379.534695 52.969197 
L 379.779348 49.287519 
L 380.024001 49.8009 
L 380.268654 51.355712 
L 380.513307 52.191791 
L 380.75796 63.442178 
L 381.002613 61.476661 
L 381.247266 56.38685 
L 381.491919 54.846706 
L 381.736572 51.707745 
L 381.981225 53.761271 
L 382.225878 53.042537 
L 382.470531 55.301415 
L 382.715184 51.165028 
L 382.959838 49.712892 
L 383.204491 49.316855 
L 383.449144 50.651646 
L 383.693797 48.964822 
L 383.93845 49.243514 
L 384.672409 44.021692 
L 384.917062 44.139036 
L 385.161715 46.295238 
L 385.406368 45.67918 
L 385.651021 51.121024 
L 385.895674 50.343618 
L 386.140327 52.103782 
L 386.38498 52.059778 
L 386.629633 41.425449 
L 386.874286 38.506508 
L 387.118939 38.227816 
L 387.363592 34.414125 
L 387.608245 39.899972 
L 387.852898 39.899972 
L 387.852898 39.899972 
" style="fill:none;stroke:#ff7f0e;stroke-linecap:square;stroke-width:1.5;"/>
   </g>
   <g id="patch_3">
    <path d="M 46.965625 288.430125 
L 46.965625 22.318125 
" style="fill:none;stroke:#000000;stroke-linecap:square;stroke-linejoin:miter;stroke-width:0.8;"/>
   </g>
   <g id="patch_4">
    <path d="M 404.085625 288.430125 
L 404.085625 22.318125 
" style="fill:none;stroke:#000000;stroke-linecap:square;stroke-linejoin:miter;stroke-width:0.8;"/>
   </g>
   <g id="patch_5">
    <path d="M 46.965625 288.430125 
L 404.085625 288.430125 
" style="fill:none;stroke:#000000;stroke-linecap:square;stroke-linejoin:miter;stroke-width:0.8;"/>
   </g>
   <g id="patch_6">
    <path d="M 46.965625 22.318125 
L 404.085625 22.318125 
" style="fill:none;stroke:#000000;stroke-linecap:square;stroke-linejoin:miter;stroke-width:0.8;"/>
   </g>
   <g id="text_17">
    <!-- Training: FB -->
    <defs>
     <path d="M -0.296875 72.90625 
L 61.375 72.90625 
L 61.375 64.59375 
L 35.5 64.59375 
L 35.5 0 
L 25.59375 0 
L 25.59375 64.59375 
L -0.296875 64.59375 
z
" id="DejaVuSans-84"/>
     <path d="M 54.890625 33.015625 
L 54.890625 0 
L 45.90625 0 
L 45.90625 32.71875 
Q 45.90625 40.484375 42.875 44.328125 
Q 39.84375 48.1875 33.796875 48.1875 
Q 26.515625 48.1875 22.3125 43.546875 
Q 18.109375 38.921875 18.109375 30.90625 
L 18.109375 0 
L 9.078125 0 
L 9.078125 54.6875 
L 18.109375 54.6875 
L 18.109375 46.1875 
Q 21.34375 51.125 25.703125 53.5625 
Q 30.078125 56 35.796875 56 
Q 45.21875 56 50.046875 50.171875 
Q 54.890625 44.34375 54.890625 33.015625 
z
" id="DejaVuSans-110"/>
     <path d="M 45.40625 27.984375 
Q 45.40625 37.75 41.375 43.109375 
Q 37.359375 48.484375 30.078125 48.484375 
Q 22.859375 48.484375 18.828125 43.109375 
Q 14.796875 37.75 14.796875 27.984375 
Q 14.796875 18.265625 18.828125 12.890625 
Q 22.859375 7.515625 30.078125 7.515625 
Q 37.359375 7.515625 41.375 12.890625 
Q 45.40625 18.265625 45.40625 27.984375 
z
M 54.390625 6.78125 
Q 54.390625 -7.171875 48.1875 -13.984375 
Q 42 -20.796875 29.203125 -20.796875 
Q 24.46875 -20.796875 20.265625 -20.09375 
Q 16.0625 -19.390625 12.109375 -17.921875 
L 12.109375 -9.1875 
Q 16.0625 -11.328125 19.921875 -12.34375 
Q 23.78125 -13.375 27.78125 -13.375 
Q 36.625 -13.375 41.015625 -8.765625 
Q 45.40625 -4.15625 45.40625 5.171875 
L 45.40625 9.625 
Q 42.625 4.78125 38.28125 2.390625 
Q 33.9375 0 27.875 0 
Q 17.828125 0 11.671875 7.65625 
Q 5.515625 15.328125 5.515625 27.984375 
Q 5.515625 40.671875 11.671875 48.328125 
Q 17.828125 56 27.875 56 
Q 33.9375 56 38.28125 53.609375 
Q 42.625 51.21875 45.40625 46.390625 
L 45.40625 54.6875 
L 54.390625 54.6875 
z
" id="DejaVuSans-103"/>
     <path d="M 11.71875 12.40625 
L 22.015625 12.40625 
L 22.015625 0 
L 11.71875 0 
z
M 11.71875 51.703125 
L 22.015625 51.703125 
L 22.015625 39.3125 
L 11.71875 39.3125 
z
" id="DejaVuSans-58"/>
     <path d="M 9.8125 72.90625 
L 51.703125 72.90625 
L 51.703125 64.59375 
L 19.671875 64.59375 
L 19.671875 43.109375 
L 48.578125 43.109375 
L 48.578125 34.8125 
L 19.671875 34.8125 
L 19.671875 0 
L 9.8125 0 
z
" id="DejaVuSans-70"/>
     <path d="M 19.671875 34.8125 
L 19.671875 8.109375 
L 35.5 8.109375 
Q 43.453125 8.109375 47.28125 11.40625 
Q 51.125 14.703125 51.125 21.484375 
Q 51.125 28.328125 47.28125 31.5625 
Q 43.453125 34.8125 35.5 34.8125 
z
M 19.671875 64.796875 
L 19.671875 42.828125 
L 34.28125 42.828125 
Q 41.5 42.828125 45.03125 45.53125 
Q 48.578125 48.25 48.578125 53.8125 
Q 48.578125 59.328125 45.03125 62.0625 
Q 41.5 64.796875 34.28125 64.796875 
z
M 9.8125 72.90625 
L 35.015625 72.90625 
Q 46.296875 72.90625 52.390625 68.21875 
Q 58.5 63.53125 58.5 54.890625 
Q 58.5 48.1875 55.375 44.234375 
Q 52.25 40.28125 46.1875 39.3125 
Q 53.46875 37.75 57.5 32.78125 
Q 61.53125 27.828125 61.53125 20.40625 
Q 61.53125 10.640625 54.890625 5.3125 
Q 48.25 0 35.984375 0 
L 9.8125 0 
z
" id="DejaVuSans-66"/>
    </defs>
    <g transform="translate(190.359063 16.318125)scale(0.12 -0.12)">
     <use xlink:href="#DejaVuSans-84"/>
     <use x="46.333984" xlink:href="#DejaVuSans-114"/>
     <use x="87.447266" xlink:href="#DejaVuSans-97"/>
     <use x="148.726562" xlink:href="#DejaVuSans-105"/>
     <use x="176.509766" xlink:href="#DejaVuSans-110"/>
     <use x="239.888672" xlink:href="#DejaVuSans-105"/>
     <use x="267.671875" xlink:href="#DejaVuSans-110"/>
     <use x="331.050781" xlink:href="#DejaVuSans-103"/>
     <use x="394.527344" xlink:href="#DejaVuSans-58"/>
     <use x="428.21875" xlink:href="#DejaVuSans-32"/>
     <use x="460.005859" xlink:href="#DejaVuSans-70"/>
     <use x="517.525391" xlink:href="#DejaVuSans-66"/>
    </g>
   </g>
   <g id="legend_1">
    <g id="patch_7">
     <path d="M 53.965625 59.674375 
L 137.69375 59.674375 
Q 139.69375 59.674375 139.69375 57.674375 
L 139.69375 29.318125 
Q 139.69375 27.318125 137.69375 27.318125 
L 53.965625 27.318125 
Q 51.965625 27.318125 51.965625 29.318125 
L 51.965625 57.674375 
Q 51.965625 59.674375 53.965625 59.674375 
z
" style="fill:#ffffff;opacity:0.8;stroke:#cccccc;stroke-linejoin:miter;"/>
    </g>
    <g id="line2d_31">
     <path d="M 55.965625 35.416562 
L 75.965625 35.416562 
" style="fill:none;stroke:#1f77b4;stroke-linecap:square;stroke-width:1.5;"/>
    </g>
    <g id="line2d_32"/>
    <g id="text_18">
     <!-- Predicted -->
     <defs>
      <path d="M 45.40625 46.390625 
L 45.40625 75.984375 
L 54.390625 75.984375 
L 54.390625 0 
L 45.40625 0 
L 45.40625 8.203125 
Q 42.578125 3.328125 38.25 0.953125 
Q 33.9375 -1.421875 27.875 -1.421875 
Q 17.96875 -1.421875 11.734375 6.484375 
Q 5.515625 14.40625 5.515625 27.296875 
Q 5.515625 40.1875 11.734375 48.09375 
Q 17.96875 56 27.875 56 
Q 33.9375 56 38.25 53.625 
Q 42.578125 51.265625 45.40625 46.390625 
z
M 14.796875 27.296875 
Q 14.796875 17.390625 18.875 11.75 
Q 22.953125 6.109375 30.078125 6.109375 
Q 37.203125 6.109375 41.296875 11.75 
Q 45.40625 17.390625 45.40625 27.296875 
Q 45.40625 37.203125 41.296875 42.84375 
Q 37.203125 48.484375 30.078125 48.484375 
Q 22.953125 48.484375 18.875 42.84375 
Q 14.796875 37.203125 14.796875 27.296875 
z
" id="DejaVuSans-100"/>
      <path d="M 18.3125 70.21875 
L 18.3125 54.6875 
L 36.8125 54.6875 
L 36.8125 47.703125 
L 18.3125 47.703125 
L 18.3125 18.015625 
Q 18.3125 11.328125 20.140625 9.421875 
Q 21.96875 7.515625 27.59375 7.515625 
L 36.8125 7.515625 
L 36.8125 0 
L 27.59375 0 
Q 17.1875 0 13.234375 3.875 
Q 9.28125 7.765625 9.28125 18.015625 
L 9.28125 47.703125 
L 2.6875 47.703125 
L 2.6875 54.6875 
L 9.28125 54.6875 
L 9.28125 70.21875 
z
" id="DejaVuSans-116"/>
     </defs>
     <g transform="translate(83.965625 38.916562)scale(0.1 -0.1)">
      <use xlink:href="#DejaVuSans-80"/>
      <use x="58.552734" xlink:href="#DejaVuSans-114"/>
      <use x="97.416016" xlink:href="#DejaVuSans-101"/>
      <use x="158.939453" xlink:href="#DejaVuSans-100"/>
      <use x="222.416016" xlink:href="#DejaVuSans-105"/>
      <use x="250.199219" xlink:href="#DejaVuSans-99"/>
      <use x="305.179688" xlink:href="#DejaVuSans-116"/>
      <use x="344.388672" xlink:href="#DejaVuSans-101"/>
      <use x="405.912109" xlink:href="#DejaVuSans-100"/>
     </g>
    </g>
    <g id="line2d_33">
     <path d="M 55.965625 50.094687 
L 75.965625 50.094687 
" style="fill:none;stroke:#ff7f0e;stroke-linecap:square;stroke-width:1.5;"/>
    </g>
    <g id="line2d_34"/>
    <g id="text_19">
     <!-- True value -->
     <defs>
      <path d="M 8.5 21.578125 
L 8.5 54.6875 
L 17.484375 54.6875 
L 17.484375 21.921875 
Q 17.484375 14.15625 20.5 10.265625 
Q 23.53125 6.390625 29.59375 6.390625 
Q 36.859375 6.390625 41.078125 11.03125 
Q 45.3125 15.671875 45.3125 23.6875 
L 45.3125 54.6875 
L 54.296875 54.6875 
L 54.296875 0 
L 45.3125 0 
L 45.3125 8.40625 
Q 42.046875 3.421875 37.71875 1 
Q 33.40625 -1.421875 27.6875 -1.421875 
Q 18.265625 -1.421875 13.375 4.4375 
Q 8.5 10.296875 8.5 21.578125 
z
M 31.109375 56 
z
" id="DejaVuSans-117"/>
      <path d="M 2.984375 54.6875 
L 12.5 54.6875 
L 29.59375 8.796875 
L 46.6875 54.6875 
L 56.203125 54.6875 
L 35.6875 0 
L 23.484375 0 
z
" id="DejaVuSans-118"/>
      <path d="M 9.421875 75.984375 
L 18.40625 75.984375 
L 18.40625 0 
L 9.421875 0 
z
" id="DejaVuSans-108"/>
     </defs>
     <g transform="translate(83.965625 53.594687)scale(0.1 -0.1)">
      <use xlink:href="#DejaVuSans-84"/>
      <use x="46.333984" xlink:href="#DejaVuSans-114"/>
      <use x="87.447266" xlink:href="#DejaVuSans-117"/>
      <use x="150.826172" xlink:href="#DejaVuSans-101"/>
      <use x="212.349609" xlink:href="#DejaVuSans-32"/>
      <use x="244.136719" xlink:href="#DejaVuSans-118"/>
      <use x="303.316406" xlink:href="#DejaVuSans-97"/>
      <use x="364.595703" xlink:href="#DejaVuSans-108"/>
      <use x="392.378906" xlink:href="#DejaVuSans-117"/>
      <use x="455.757812" xlink:href="#DejaVuSans-101"/>
     </g>
    </g>
   </g>
  </g>
 </g>
 <defs>
  <clipPath id="pd8b1c8fc38">
   <rect height="266.112" width="357.12" x="46.965625" y="22.318125"/>
  </clipPath>
 </defs>
</svg>
