<?xml version="1.0" encoding="utf-8" standalone="no"?>
<!DOCTYPE svg PUBLIC "-//W3C//DTD SVG 1.1//EN"
  "http://www.w3.org/Graphics/SVG/1.1/DTD/svg11.dtd">
<!-- Created with matplotlib (https://matplotlib.org/) -->
<svg height="325.986375pt" version="1.1" viewBox="0 0 411.285625 325.986375" width="411.285625pt" xmlns="http://www.w3.org/2000/svg" xmlns:xlink="http://www.w3.org/1999/xlink">
 <defs>
  <style type="text/css">
*{stroke-linecap:butt;stroke-linejoin:round;}
  </style>
 </defs>
 <g id="figure_1">
  <g id="patch_1">
   <path d="M 0 325.986375 
L 411.285625 325.986375 
L 411.285625 0 
L 0 0 
z
" style="fill:#ffffff;"/>
  </g>
  <g id="axes_1">
   <g id="patch_2">
    <path d="M 46.965625 288.430125 
L 404.085625 288.430125 
L 404.085625 22.318125 
L 46.965625 22.318125 
z
" style="fill:#ffffff;"/>
   </g>
   <g id="matplotlib.axis_1">
    <g id="xtick_1">
     <g id="line2d_1">
      <path clip-path="url(#p61336bce97)" d="M 63.198352 288.430125 
L 63.198352 22.318125 
" style="fill:none;stroke:#b0b0b0;stroke-dasharray:2.96,1.28;stroke-dashoffset:0;stroke-width:0.8;"/>
     </g>
     <g id="line2d_2">
      <defs>
       <path d="M 0 0 
L 0 3.5 
" id="meb8cef69e0" style="stroke:#000000;stroke-width:0.8;"/>
      </defs>
      <g>
       <use style="stroke:#000000;stroke-width:0.8;" x="63.198352" xlink:href="#meb8cef69e0" y="288.430125"/>
      </g>
     </g>
     <g id="text_1">
      <!-- 0 -->
      <defs>
       <path d="M 31.78125 66.40625 
Q 24.171875 66.40625 20.328125 58.90625 
Q 16.5 51.421875 16.5 36.375 
Q 16.5 21.390625 20.328125 13.890625 
Q 24.171875 6.390625 31.78125 6.390625 
Q 39.453125 6.390625 43.28125 13.890625 
Q 47.125 21.390625 47.125 36.375 
Q 47.125 51.421875 43.28125 58.90625 
Q 39.453125 66.40625 31.78125 66.40625 
z
M 31.78125 74.21875 
Q 44.046875 74.21875 50.515625 64.515625 
Q 56.984375 54.828125 56.984375 36.375 
Q 56.984375 17.96875 50.515625 8.265625 
Q 44.046875 -1.421875 31.78125 -1.421875 
Q 19.53125 -1.421875 13.0625 8.265625 
Q 6.59375 17.96875 6.59375 36.375 
Q 6.59375 54.828125 13.0625 64.515625 
Q 19.53125 74.21875 31.78125 74.21875 
z
" id="DejaVuSans-48"/>
      </defs>
      <g transform="translate(60.017102 303.028562)scale(0.1 -0.1)">
       <use xlink:href="#DejaVuSans-48"/>
      </g>
     </g>
    </g>
    <g id="xtick_2">
     <g id="line2d_3">
      <path clip-path="url(#p61336bce97)" d="M 112.128954 288.430125 
L 112.128954 22.318125 
" style="fill:none;stroke:#b0b0b0;stroke-dasharray:2.96,1.28;stroke-dashoffset:0;stroke-width:0.8;"/>
     </g>
     <g id="line2d_4">
      <g>
       <use style="stroke:#000000;stroke-width:0.8;" x="112.128954" xlink:href="#meb8cef69e0" y="288.430125"/>
      </g>
     </g>
     <g id="text_2">
      <!-- 200 -->
      <defs>
       <path d="M 19.1875 8.296875 
L 53.609375 8.296875 
L 53.609375 0 
L 7.328125 0 
L 7.328125 8.296875 
Q 12.9375 14.109375 22.625 23.890625 
Q 32.328125 33.6875 34.8125 36.53125 
Q 39.546875 41.84375 41.421875 45.53125 
Q 43.3125 49.21875 43.3125 52.78125 
Q 43.3125 58.59375 39.234375 62.25 
Q 35.15625 65.921875 28.609375 65.921875 
Q 23.96875 65.921875 18.8125 64.3125 
Q 13.671875 62.703125 7.8125 59.421875 
L 7.8125 69.390625 
Q 13.765625 71.78125 18.9375 73 
Q 24.125 74.21875 28.421875 74.21875 
Q 39.75 74.21875 46.484375 68.546875 
Q 53.21875 62.890625 53.21875 53.421875 
Q 53.21875 48.921875 51.53125 44.890625 
Q 49.859375 40.875 45.40625 35.40625 
Q 44.1875 33.984375 37.640625 27.21875 
Q 31.109375 20.453125 19.1875 8.296875 
z
" id="DejaVuSans-50"/>
      </defs>
      <g transform="translate(102.585204 303.028562)scale(0.1 -0.1)">
       <use xlink:href="#DejaVuSans-50"/>
       <use x="63.623047" xlink:href="#DejaVuSans-48"/>
       <use x="127.246094" xlink:href="#DejaVuSans-48"/>
      </g>
     </g>
    </g>
    <g id="xtick_3">
     <g id="line2d_5">
      <path clip-path="url(#p61336bce97)" d="M 161.059557 288.430125 
L 161.059557 22.318125 
" style="fill:none;stroke:#b0b0b0;stroke-dasharray:2.96,1.28;stroke-dashoffset:0;stroke-width:0.8;"/>
     </g>
     <g id="line2d_6">
      <g>
       <use style="stroke:#000000;stroke-width:0.8;" x="161.059557" xlink:href="#meb8cef69e0" y="288.430125"/>
      </g>
     </g>
     <g id="text_3">
      <!-- 400 -->
      <defs>
       <path d="M 37.796875 64.3125 
L 12.890625 25.390625 
L 37.796875 25.390625 
z
M 35.203125 72.90625 
L 47.609375 72.90625 
L 47.609375 25.390625 
L 58.015625 25.390625 
L 58.015625 17.1875 
L 47.609375 17.1875 
L 47.609375 0 
L 37.796875 0 
L 37.796875 17.1875 
L 4.890625 17.1875 
L 4.890625 26.703125 
z
" id="DejaVuSans-52"/>
      </defs>
      <g transform="translate(151.515807 303.028562)scale(0.1 -0.1)">
       <use xlink:href="#DejaVuSans-52"/>
       <use x="63.623047" xlink:href="#DejaVuSans-48"/>
       <use x="127.246094" xlink:href="#DejaVuSans-48"/>
      </g>
     </g>
    </g>
    <g id="xtick_4">
     <g id="line2d_7">
      <path clip-path="url(#p61336bce97)" d="M 209.990159 288.430125 
L 209.990159 22.318125 
" style="fill:none;stroke:#b0b0b0;stroke-dasharray:2.96,1.28;stroke-dashoffset:0;stroke-width:0.8;"/>
     </g>
     <g id="line2d_8">
      <g>
       <use style="stroke:#000000;stroke-width:0.8;" x="209.990159" xlink:href="#meb8cef69e0" y="288.430125"/>
      </g>
     </g>
     <g id="text_4">
      <!-- 600 -->
      <defs>
       <path d="M 33.015625 40.375 
Q 26.375 40.375 22.484375 35.828125 
Q 18.609375 31.296875 18.609375 23.390625 
Q 18.609375 15.53125 22.484375 10.953125 
Q 26.375 6.390625 33.015625 6.390625 
Q 39.65625 6.390625 43.53125 10.953125 
Q 47.40625 15.53125 47.40625 23.390625 
Q 47.40625 31.296875 43.53125 35.828125 
Q 39.65625 40.375 33.015625 40.375 
z
M 52.59375 71.296875 
L 52.59375 62.3125 
Q 48.875 64.0625 45.09375 64.984375 
Q 41.3125 65.921875 37.59375 65.921875 
Q 27.828125 65.921875 22.671875 59.328125 
Q 17.53125 52.734375 16.796875 39.40625 
Q 19.671875 43.65625 24.015625 45.921875 
Q 28.375 48.1875 33.59375 48.1875 
Q 44.578125 48.1875 50.953125 41.515625 
Q 57.328125 34.859375 57.328125 23.390625 
Q 57.328125 12.15625 50.6875 5.359375 
Q 44.046875 -1.421875 33.015625 -1.421875 
Q 20.359375 -1.421875 13.671875 8.265625 
Q 6.984375 17.96875 6.984375 36.375 
Q 6.984375 53.65625 15.1875 63.9375 
Q 23.390625 74.21875 37.203125 74.21875 
Q 40.921875 74.21875 44.703125 73.484375 
Q 48.484375 72.75 52.59375 71.296875 
z
" id="DejaVuSans-54"/>
      </defs>
      <g transform="translate(200.446409 303.028562)scale(0.1 -0.1)">
       <use xlink:href="#DejaVuSans-54"/>
       <use x="63.623047" xlink:href="#DejaVuSans-48"/>
       <use x="127.246094" xlink:href="#DejaVuSans-48"/>
      </g>
     </g>
    </g>
    <g id="xtick_5">
     <g id="line2d_9">
      <path clip-path="url(#p61336bce97)" d="M 258.920761 288.430125 
L 258.920761 22.318125 
" style="fill:none;stroke:#b0b0b0;stroke-dasharray:2.96,1.28;stroke-dashoffset:0;stroke-width:0.8;"/>
     </g>
     <g id="line2d_10">
      <g>
       <use style="stroke:#000000;stroke-width:0.8;" x="258.920761" xlink:href="#meb8cef69e0" y="288.430125"/>
      </g>
     </g>
     <g id="text_5">
      <!-- 800 -->
      <defs>
       <path d="M 31.78125 34.625 
Q 24.75 34.625 20.71875 30.859375 
Q 16.703125 27.09375 16.703125 20.515625 
Q 16.703125 13.921875 20.71875 10.15625 
Q 24.75 6.390625 31.78125 6.390625 
Q 38.8125 6.390625 42.859375 10.171875 
Q 46.921875 13.96875 46.921875 20.515625 
Q 46.921875 27.09375 42.890625 30.859375 
Q 38.875 34.625 31.78125 34.625 
z
M 21.921875 38.8125 
Q 15.578125 40.375 12.03125 44.71875 
Q 8.5 49.078125 8.5 55.328125 
Q 8.5 64.0625 14.71875 69.140625 
Q 20.953125 74.21875 31.78125 74.21875 
Q 42.671875 74.21875 48.875 69.140625 
Q 55.078125 64.0625 55.078125 55.328125 
Q 55.078125 49.078125 51.53125 44.71875 
Q 48 40.375 41.703125 38.8125 
Q 48.828125 37.15625 52.796875 32.3125 
Q 56.78125 27.484375 56.78125 20.515625 
Q 56.78125 9.90625 50.3125 4.234375 
Q 43.84375 -1.421875 31.78125 -1.421875 
Q 19.734375 -1.421875 13.25 4.234375 
Q 6.78125 9.90625 6.78125 20.515625 
Q 6.78125 27.484375 10.78125 32.3125 
Q 14.796875 37.15625 21.921875 38.8125 
z
M 18.3125 54.390625 
Q 18.3125 48.734375 21.84375 45.5625 
Q 25.390625 42.390625 31.78125 42.390625 
Q 38.140625 42.390625 41.71875 45.5625 
Q 45.3125 48.734375 45.3125 54.390625 
Q 45.3125 60.0625 41.71875 63.234375 
Q 38.140625 66.40625 31.78125 66.40625 
Q 25.390625 66.40625 21.84375 63.234375 
Q 18.3125 60.0625 18.3125 54.390625 
z
" id="DejaVuSans-56"/>
      </defs>
      <g transform="translate(249.377011 303.028562)scale(0.1 -0.1)">
       <use xlink:href="#DejaVuSans-56"/>
       <use x="63.623047" xlink:href="#DejaVuSans-48"/>
       <use x="127.246094" xlink:href="#DejaVuSans-48"/>
      </g>
     </g>
    </g>
    <g id="xtick_6">
     <g id="line2d_11">
      <path clip-path="url(#p61336bce97)" d="M 307.851363 288.430125 
L 307.851363 22.318125 
" style="fill:none;stroke:#b0b0b0;stroke-dasharray:2.96,1.28;stroke-dashoffset:0;stroke-width:0.8;"/>
     </g>
     <g id="line2d_12">
      <g>
       <use style="stroke:#000000;stroke-width:0.8;" x="307.851363" xlink:href="#meb8cef69e0" y="288.430125"/>
      </g>
     </g>
     <g id="text_6">
      <!-- 1000 -->
      <defs>
       <path d="M 12.40625 8.296875 
L 28.515625 8.296875 
L 28.515625 63.921875 
L 10.984375 60.40625 
L 10.984375 69.390625 
L 28.421875 72.90625 
L 38.28125 72.90625 
L 38.28125 8.296875 
L 54.390625 8.296875 
L 54.390625 0 
L 12.40625 0 
z
" id="DejaVuSans-49"/>
      </defs>
      <g transform="translate(295.126363 303.028562)scale(0.1 -0.1)">
       <use xlink:href="#DejaVuSans-49"/>
       <use x="63.623047" xlink:href="#DejaVuSans-48"/>
       <use x="127.246094" xlink:href="#DejaVuSans-48"/>
       <use x="190.869141" xlink:href="#DejaVuSans-48"/>
      </g>
     </g>
    </g>
    <g id="xtick_7">
     <g id="line2d_13">
      <path clip-path="url(#p61336bce97)" d="M 356.781965 288.430125 
L 356.781965 22.318125 
" style="fill:none;stroke:#b0b0b0;stroke-dasharray:2.96,1.28;stroke-dashoffset:0;stroke-width:0.8;"/>
     </g>
     <g id="line2d_14">
      <g>
       <use style="stroke:#000000;stroke-width:0.8;" x="356.781965" xlink:href="#meb8cef69e0" y="288.430125"/>
      </g>
     </g>
     <g id="text_7">
      <!-- 1200 -->
      <g transform="translate(344.056965 303.028562)scale(0.1 -0.1)">
       <use xlink:href="#DejaVuSans-49"/>
       <use x="63.623047" xlink:href="#DejaVuSans-50"/>
       <use x="127.246094" xlink:href="#DejaVuSans-48"/>
       <use x="190.869141" xlink:href="#DejaVuSans-48"/>
      </g>
     </g>
    </g>
    <g id="text_8">
     <!-- Day -->
     <defs>
      <path d="M 19.671875 64.796875 
L 19.671875 8.109375 
L 31.59375 8.109375 
Q 46.6875 8.109375 53.6875 14.9375 
Q 60.6875 21.78125 60.6875 36.53125 
Q 60.6875 51.171875 53.6875 57.984375 
Q 46.6875 64.796875 31.59375 64.796875 
z
M 9.8125 72.90625 
L 30.078125 72.90625 
Q 51.265625 72.90625 61.171875 64.09375 
Q 71.09375 55.28125 71.09375 36.53125 
Q 71.09375 17.671875 61.125 8.828125 
Q 51.171875 0 30.078125 0 
L 9.8125 0 
z
" id="DejaVuSans-68"/>
      <path d="M 34.28125 27.484375 
Q 23.390625 27.484375 19.1875 25 
Q 14.984375 22.515625 14.984375 16.5 
Q 14.984375 11.71875 18.140625 8.90625 
Q 21.296875 6.109375 26.703125 6.109375 
Q 34.1875 6.109375 38.703125 11.40625 
Q 43.21875 16.703125 43.21875 25.484375 
L 43.21875 27.484375 
z
M 52.203125 31.203125 
L 52.203125 0 
L 43.21875 0 
L 43.21875 8.296875 
Q 40.140625 3.328125 35.546875 0.953125 
Q 30.953125 -1.421875 24.3125 -1.421875 
Q 15.921875 -1.421875 10.953125 3.296875 
Q 6 8.015625 6 15.921875 
Q 6 25.140625 12.171875 29.828125 
Q 18.359375 34.515625 30.609375 34.515625 
L 43.21875 34.515625 
L 43.21875 35.40625 
Q 43.21875 41.609375 39.140625 45 
Q 35.0625 48.390625 27.6875 48.390625 
Q 23 48.390625 18.546875 47.265625 
Q 14.109375 46.140625 10.015625 43.890625 
L 10.015625 52.203125 
Q 14.9375 54.109375 19.578125 55.046875 
Q 24.21875 56 28.609375 56 
Q 40.484375 56 46.34375 49.84375 
Q 52.203125 43.703125 52.203125 31.203125 
z
" id="DejaVuSans-97"/>
      <path d="M 32.171875 -5.078125 
Q 28.375 -14.84375 24.75 -17.8125 
Q 21.140625 -20.796875 15.09375 -20.796875 
L 7.90625 -20.796875 
L 7.90625 -13.28125 
L 13.1875 -13.28125 
Q 16.890625 -13.28125 18.9375 -11.515625 
Q 21 -9.765625 23.484375 -3.21875 
L 25.09375 0.875 
L 2.984375 54.6875 
L 12.5 54.6875 
L 29.59375 11.921875 
L 46.6875 54.6875 
L 56.203125 54.6875 
z
" id="DejaVuSans-121"/>
     </defs>
     <g transform="translate(215.652188 316.706687)scale(0.1 -0.1)">
      <use xlink:href="#DejaVuSans-68"/>
      <use x="77.001953" xlink:href="#DejaVuSans-97"/>
      <use x="138.28125" xlink:href="#DejaVuSans-121"/>
     </g>
    </g>
   </g>
   <g id="matplotlib.axis_2">
    <g id="ytick_1">
     <g id="line2d_15">
      <path clip-path="url(#p61336bce97)" d="M 46.965625 270.984922 
L 404.085625 270.984922 
" style="fill:none;stroke:#b0b0b0;stroke-dasharray:2.96,1.28;stroke-dashoffset:0;stroke-width:0.8;"/>
     </g>
     <g id="line2d_16">
      <defs>
       <path d="M 0 0 
L -3.5 0 
" id="m8288f50c4f" style="stroke:#000000;stroke-width:0.8;"/>
      </defs>
      <g>
       <use style="stroke:#000000;stroke-width:0.8;" x="46.965625" xlink:href="#m8288f50c4f" y="270.984922"/>
      </g>
     </g>
     <g id="text_9">
      <!-- 75 -->
      <defs>
       <path d="M 8.203125 72.90625 
L 55.078125 72.90625 
L 55.078125 68.703125 
L 28.609375 0 
L 18.3125 0 
L 43.21875 64.59375 
L 8.203125 64.59375 
z
" id="DejaVuSans-55"/>
       <path d="M 10.796875 72.90625 
L 49.515625 72.90625 
L 49.515625 64.59375 
L 19.828125 64.59375 
L 19.828125 46.734375 
Q 21.96875 47.46875 24.109375 47.828125 
Q 26.265625 48.1875 28.421875 48.1875 
Q 40.625 48.1875 47.75 41.5 
Q 54.890625 34.8125 54.890625 23.390625 
Q 54.890625 11.625 47.5625 5.09375 
Q 40.234375 -1.421875 26.90625 -1.421875 
Q 22.3125 -1.421875 17.546875 -0.640625 
Q 12.796875 0.140625 7.71875 1.703125 
L 7.71875 11.625 
Q 12.109375 9.234375 16.796875 8.0625 
Q 21.484375 6.890625 26.703125 6.890625 
Q 35.15625 6.890625 40.078125 11.328125 
Q 45.015625 15.765625 45.015625 23.390625 
Q 45.015625 31 40.078125 35.4375 
Q 35.15625 39.890625 26.703125 39.890625 
Q 22.75 39.890625 18.8125 39.015625 
Q 14.890625 38.140625 10.796875 36.28125 
z
" id="DejaVuSans-53"/>
      </defs>
      <g transform="translate(27.240625 274.784141)scale(0.1 -0.1)">
       <use xlink:href="#DejaVuSans-55"/>
       <use x="63.623047" xlink:href="#DejaVuSans-53"/>
      </g>
     </g>
    </g>
    <g id="ytick_2">
     <g id="line2d_17">
      <path clip-path="url(#p61336bce97)" d="M 46.965625 237.738141 
L 404.085625 237.738141 
" style="fill:none;stroke:#b0b0b0;stroke-dasharray:2.96,1.28;stroke-dashoffset:0;stroke-width:0.8;"/>
     </g>
     <g id="line2d_18">
      <g>
       <use style="stroke:#000000;stroke-width:0.8;" x="46.965625" xlink:href="#m8288f50c4f" y="237.738141"/>
      </g>
     </g>
     <g id="text_10">
      <!-- 100 -->
      <g transform="translate(20.878125 241.537359)scale(0.1 -0.1)">
       <use xlink:href="#DejaVuSans-49"/>
       <use x="63.623047" xlink:href="#DejaVuSans-48"/>
       <use x="127.246094" xlink:href="#DejaVuSans-48"/>
      </g>
     </g>
    </g>
    <g id="ytick_3">
     <g id="line2d_19">
      <path clip-path="url(#p61336bce97)" d="M 46.965625 204.491359 
L 404.085625 204.491359 
" style="fill:none;stroke:#b0b0b0;stroke-dasharray:2.96,1.28;stroke-dashoffset:0;stroke-width:0.8;"/>
     </g>
     <g id="line2d_20">
      <g>
       <use style="stroke:#000000;stroke-width:0.8;" x="46.965625" xlink:href="#m8288f50c4f" y="204.491359"/>
      </g>
     </g>
     <g id="text_11">
      <!-- 125 -->
      <g transform="translate(20.878125 208.290578)scale(0.1 -0.1)">
       <use xlink:href="#DejaVuSans-49"/>
       <use x="63.623047" xlink:href="#DejaVuSans-50"/>
       <use x="127.246094" xlink:href="#DejaVuSans-53"/>
      </g>
     </g>
    </g>
    <g id="ytick_4">
     <g id="line2d_21">
      <path clip-path="url(#p61336bce97)" d="M 46.965625 171.244578 
L 404.085625 171.244578 
" style="fill:none;stroke:#b0b0b0;stroke-dasharray:2.96,1.28;stroke-dashoffset:0;stroke-width:0.8;"/>
     </g>
     <g id="line2d_22">
      <g>
       <use style="stroke:#000000;stroke-width:0.8;" x="46.965625" xlink:href="#m8288f50c4f" y="171.244578"/>
      </g>
     </g>
     <g id="text_12">
      <!-- 150 -->
      <g transform="translate(20.878125 175.043797)scale(0.1 -0.1)">
       <use xlink:href="#DejaVuSans-49"/>
       <use x="63.623047" xlink:href="#DejaVuSans-53"/>
       <use x="127.246094" xlink:href="#DejaVuSans-48"/>
      </g>
     </g>
    </g>
    <g id="ytick_5">
     <g id="line2d_23">
      <path clip-path="url(#p61336bce97)" d="M 46.965625 137.997797 
L 404.085625 137.997797 
" style="fill:none;stroke:#b0b0b0;stroke-dasharray:2.96,1.28;stroke-dashoffset:0;stroke-width:0.8;"/>
     </g>
     <g id="line2d_24">
      <g>
       <use style="stroke:#000000;stroke-width:0.8;" x="46.965625" xlink:href="#m8288f50c4f" y="137.997797"/>
      </g>
     </g>
     <g id="text_13">
      <!-- 175 -->
      <g transform="translate(20.878125 141.797016)scale(0.1 -0.1)">
       <use xlink:href="#DejaVuSans-49"/>
       <use x="63.623047" xlink:href="#DejaVuSans-55"/>
       <use x="127.246094" xlink:href="#DejaVuSans-53"/>
      </g>
     </g>
    </g>
    <g id="ytick_6">
     <g id="line2d_25">
      <path clip-path="url(#p61336bce97)" d="M 46.965625 104.751016 
L 404.085625 104.751016 
" style="fill:none;stroke:#b0b0b0;stroke-dasharray:2.96,1.28;stroke-dashoffset:0;stroke-width:0.8;"/>
     </g>
     <g id="line2d_26">
      <g>
       <use style="stroke:#000000;stroke-width:0.8;" x="46.965625" xlink:href="#m8288f50c4f" y="104.751016"/>
      </g>
     </g>
     <g id="text_14">
      <!-- 200 -->
      <g transform="translate(20.878125 108.550234)scale(0.1 -0.1)">
       <use xlink:href="#DejaVuSans-50"/>
       <use x="63.623047" xlink:href="#DejaVuSans-48"/>
       <use x="127.246094" xlink:href="#DejaVuSans-48"/>
      </g>
     </g>
    </g>
    <g id="ytick_7">
     <g id="line2d_27">
      <path clip-path="url(#p61336bce97)" d="M 46.965625 71.504234 
L 404.085625 71.504234 
" style="fill:none;stroke:#b0b0b0;stroke-dasharray:2.96,1.28;stroke-dashoffset:0;stroke-width:0.8;"/>
     </g>
     <g id="line2d_28">
      <g>
       <use style="stroke:#000000;stroke-width:0.8;" x="46.965625" xlink:href="#m8288f50c4f" y="71.504234"/>
      </g>
     </g>
     <g id="text_15">
      <!-- 225 -->
      <g transform="translate(20.878125 75.303453)scale(0.1 -0.1)">
       <use xlink:href="#DejaVuSans-50"/>
       <use x="63.623047" xlink:href="#DejaVuSans-50"/>
       <use x="127.246094" xlink:href="#DejaVuSans-53"/>
      </g>
     </g>
    </g>
    <g id="ytick_8">
     <g id="line2d_29">
      <path clip-path="url(#p61336bce97)" d="M 46.965625 38.257453 
L 404.085625 38.257453 
" style="fill:none;stroke:#b0b0b0;stroke-dasharray:2.96,1.28;stroke-dashoffset:0;stroke-width:0.8;"/>
     </g>
     <g id="line2d_30">
      <g>
       <use style="stroke:#000000;stroke-width:0.8;" x="46.965625" xlink:href="#m8288f50c4f" y="38.257453"/>
      </g>
     </g>
     <g id="text_16">
      <!-- 250 -->
      <g transform="translate(20.878125 42.056672)scale(0.1 -0.1)">
       <use xlink:href="#DejaVuSans-50"/>
       <use x="63.623047" xlink:href="#DejaVuSans-53"/>
       <use x="127.246094" xlink:href="#DejaVuSans-48"/>
      </g>
     </g>
    </g>
    <g id="text_17">
     <!-- Price $ -->
     <defs>
      <path d="M 19.671875 64.796875 
L 19.671875 37.40625 
L 32.078125 37.40625 
Q 38.96875 37.40625 42.71875 40.96875 
Q 46.484375 44.53125 46.484375 51.125 
Q 46.484375 57.671875 42.71875 61.234375 
Q 38.96875 64.796875 32.078125 64.796875 
z
M 9.8125 72.90625 
L 32.078125 72.90625 
Q 44.34375 72.90625 50.609375 67.359375 
Q 56.890625 61.8125 56.890625 51.125 
Q 56.890625 40.328125 50.609375 34.8125 
Q 44.34375 29.296875 32.078125 29.296875 
L 19.671875 29.296875 
L 19.671875 0 
L 9.8125 0 
z
" id="DejaVuSans-80"/>
      <path d="M 41.109375 46.296875 
Q 39.59375 47.171875 37.8125 47.578125 
Q 36.03125 48 33.890625 48 
Q 26.265625 48 22.1875 43.046875 
Q 18.109375 38.09375 18.109375 28.8125 
L 18.109375 0 
L 9.078125 0 
L 9.078125 54.6875 
L 18.109375 54.6875 
L 18.109375 46.1875 
Q 20.953125 51.171875 25.484375 53.578125 
Q 30.03125 56 36.53125 56 
Q 37.453125 56 38.578125 55.875 
Q 39.703125 55.765625 41.0625 55.515625 
z
" id="DejaVuSans-114"/>
      <path d="M 9.421875 54.6875 
L 18.40625 54.6875 
L 18.40625 0 
L 9.421875 0 
z
M 9.421875 75.984375 
L 18.40625 75.984375 
L 18.40625 64.59375 
L 9.421875 64.59375 
z
" id="DejaVuSans-105"/>
      <path d="M 48.78125 52.59375 
L 48.78125 44.1875 
Q 44.96875 46.296875 41.140625 47.34375 
Q 37.3125 48.390625 33.40625 48.390625 
Q 24.65625 48.390625 19.8125 42.84375 
Q 14.984375 37.3125 14.984375 27.296875 
Q 14.984375 17.28125 19.8125 11.734375 
Q 24.65625 6.203125 33.40625 6.203125 
Q 37.3125 6.203125 41.140625 7.25 
Q 44.96875 8.296875 48.78125 10.40625 
L 48.78125 2.09375 
Q 45.015625 0.34375 40.984375 -0.53125 
Q 36.96875 -1.421875 32.421875 -1.421875 
Q 20.0625 -1.421875 12.78125 6.34375 
Q 5.515625 14.109375 5.515625 27.296875 
Q 5.515625 40.671875 12.859375 48.328125 
Q 20.21875 56 33.015625 56 
Q 37.15625 56 41.109375 55.140625 
Q 45.0625 54.296875 48.78125 52.59375 
z
" id="DejaVuSans-99"/>
      <path d="M 56.203125 29.59375 
L 56.203125 25.203125 
L 14.890625 25.203125 
Q 15.484375 15.921875 20.484375 11.0625 
Q 25.484375 6.203125 34.421875 6.203125 
Q 39.59375 6.203125 44.453125 7.46875 
Q 49.3125 8.734375 54.109375 11.28125 
L 54.109375 2.78125 
Q 49.265625 0.734375 44.1875 -0.34375 
Q 39.109375 -1.421875 33.890625 -1.421875 
Q 20.796875 -1.421875 13.15625 6.1875 
Q 5.515625 13.8125 5.515625 26.8125 
Q 5.515625 40.234375 12.765625 48.109375 
Q 20.015625 56 32.328125 56 
Q 43.359375 56 49.78125 48.890625 
Q 56.203125 41.796875 56.203125 29.59375 
z
M 47.21875 32.234375 
Q 47.125 39.59375 43.09375 43.984375 
Q 39.0625 48.390625 32.421875 48.390625 
Q 24.90625 48.390625 20.390625 44.140625 
Q 15.875 39.890625 15.1875 32.171875 
z
" id="DejaVuSans-101"/>
      <path id="DejaVuSans-32"/>
      <path d="M 33.796875 -14.703125 
L 28.90625 -14.703125 
L 28.859375 0 
Q 23.734375 0.09375 18.609375 1.1875 
Q 13.484375 2.296875 8.296875 4.5 
L 8.296875 13.28125 
Q 13.28125 10.15625 18.375 8.5625 
Q 23.484375 6.984375 28.90625 6.9375 
L 28.90625 29.203125 
Q 18.109375 30.953125 13.203125 35.15625 
Q 8.296875 39.359375 8.296875 46.6875 
Q 8.296875 54.640625 13.625 59.21875 
Q 18.953125 63.8125 28.90625 64.5 
L 28.90625 75.984375 
L 33.796875 75.984375 
L 33.796875 64.65625 
Q 38.328125 64.453125 42.578125 63.6875 
Q 46.828125 62.9375 50.875 61.625 
L 50.875 53.078125 
Q 46.828125 55.125 42.546875 56.25 
Q 38.28125 57.375 33.796875 57.5625 
L 33.796875 36.71875 
Q 44.875 35.015625 50.09375 30.609375 
Q 55.328125 26.21875 55.328125 18.609375 
Q 55.328125 10.359375 49.78125 5.59375 
Q 44.234375 0.828125 33.796875 0.09375 
z
M 28.90625 37.59375 
L 28.90625 57.625 
Q 23.25 56.984375 20.265625 54.390625 
Q 17.28125 51.8125 17.28125 47.515625 
Q 17.28125 43.3125 20.03125 40.96875 
Q 22.796875 38.625 28.90625 37.59375 
z
M 33.796875 28.21875 
L 33.796875 7.078125 
Q 39.984375 7.90625 43.140625 10.59375 
Q 46.296875 13.28125 46.296875 17.671875 
Q 46.296875 21.96875 43.28125 24.5 
Q 40.28125 27.046875 33.796875 28.21875 
z
" id="DejaVuSans-36"/>
     </defs>
     <g transform="translate(14.798438 172.342094)rotate(-90)scale(0.1 -0.1)">
      <use xlink:href="#DejaVuSans-80"/>
      <use x="58.552734" xlink:href="#DejaVuSans-114"/>
      <use x="99.666016" xlink:href="#DejaVuSans-105"/>
      <use x="127.449219" xlink:href="#DejaVuSans-99"/>
      <use x="182.429688" xlink:href="#DejaVuSans-101"/>
      <use x="243.953125" xlink:href="#DejaVuSans-32"/>
      <use x="275.740234" xlink:href="#DejaVuSans-36"/>
     </g>
    </g>
   </g>
   <g id="line2d_31">
    <path clip-path="url(#p61336bce97)" d="M 63.198352 276.334125 
L 63.443005 246.123284 
L 63.687658 240.079214 
L 63.932311 238.534935 
L 64.176964 238.814877 
L 64.421617 242.550046 
L 64.66627 238.39219 
L 65.155576 235.502252 
L 65.400229 236.710076 
L 65.644882 235.460369 
L 65.889535 236.179678 
L 66.378841 234.826582 
L 66.868147 234.987063 
L 67.1128 234.929788 
L 67.602106 232.458621 
L 68.091412 233.987569 
L 68.336066 233.852525 
L 68.580719 232.870107 
L 68.825372 233.169783 
L 69.070025 232.119772 
L 69.314678 233.56126 
L 69.559331 231.644487 
L 69.803984 230.953577 
L 70.537943 219.330576 
L 70.782596 220.45783 
L 71.271902 215.739492 
L 71.761208 211.605113 
L 72.005861 213.513445 
L 72.250514 213.598064 
L 72.495167 213.844259 
L 72.73982 216.629905 
L 72.984473 216.695185 
L 73.229126 217.506478 
L 73.718432 221.572106 
L 73.963085 219.070501 
L 74.207738 221.11963 
L 74.452391 215.637432 
L 74.941697 215.963295 
L 75.18635 213.528309 
L 75.431003 213.528654 
L 75.675656 214.235158 
L 75.920309 213.437146 
L 76.164962 213.151137 
L 76.409615 210.288767 
L 76.654268 212.429881 
L 76.898921 207.600311 
L 77.143574 208.633368 
L 77.388227 206.951497 
L 77.63288 206.927958 
L 78.122186 209.498375 
L 78.366839 214.207946 
L 78.611492 212.14792 
L 78.856145 212.089773 
L 79.100798 213.337948 
L 79.590104 207.432383 
L 79.834757 208.278325 
L 80.07941 207.920806 
L 80.324063 205.140082 
L 80.568716 215.278818 
L 80.813369 216.770459 
L 81.058022 217.108639 
L 81.302675 215.886266 
L 81.791981 219.438318 
L 82.036634 218.426517 
L 82.281287 218.321749 
L 82.52594 214.706577 
L 82.770593 215.586671 
L 83.015246 216.045742 
L 83.259899 212.859772 
L 83.504552 212.952964 
L 83.749205 214.7637 
L 83.993858 214.78319 
L 84.238511 214.218275 
L 84.483164 215.329741 
L 84.727817 214.274951 
L 84.97247 216.756031 
L 85.217123 216.335535 
L 85.951082 217.022417 
L 86.195735 214.468397 
L 86.440388 214.831699 
L 86.685041 214.789684 
L 86.929694 213.747374 
L 87.419 203.718418 
L 87.663653 203.307369 
L 87.908306 201.144431 
L 88.152959 203.964137 
L 88.397612 203.577235 
L 88.642265 202.771796 
L 88.886918 203.836519 
L 89.131571 205.431529 
L 89.376224 203.714766 
L 89.620877 197.416861 
L 89.86553 198.922239 
L 90.110183 195.404176 
L 90.354836 195.375321 
L 90.599489 196.200464 
L 90.844143 194.41071 
L 91.088796 190.730674 
L 91.822755 192.246321 
L 92.067408 184.914009 
L 92.312061 185.694225 
L 92.556714 181.87326 
L 92.801367 180.301871 
L 93.04602 180.254772 
L 93.290673 180.378048 
L 93.535326 181.141725 
L 93.779979 181.021392 
L 94.024632 178.09365 
L 94.269285 178.051706 
L 94.513938 177.430115 
L 94.758591 174.34103 
L 95.003244 177.481901 
L 95.247897 173.240745 
L 95.49255 172.867063 
L 95.737203 173.190643 
L 95.981856 171.300219 
L 96.226509 170.599691 
L 96.471162 168.504113 
L 96.715815 167.896625 
L 96.960468 166.256425 
L 97.205121 166.623957 
L 97.449774 162.328621 
L 97.694427 165.95474 
L 97.93908 171.470167 
L 98.183733 167.323126 
L 98.428386 173.347015 
L 98.673039 174.125749 
L 98.917692 171.21002 
L 99.162345 172.959799 
L 99.406998 173.277129 
L 100.38561 164.354313 
L 100.630263 168.847823 
L 100.874916 168.475684 
L 101.119569 170.224305 
L 101.364222 170.263814 
L 101.608875 167.791126 
L 101.853528 168.419555 
L 102.098181 171.799205 
L 102.342834 173.556268 
L 102.587487 171.583864 
L 102.83214 177.309559 
L 103.076793 176.084943 
L 103.321446 176.802274 
L 103.810752 175.836019 
L 104.055405 176.13121 
L 104.300058 177.874413 
L 104.544711 177.694523 
L 104.789364 181.025187 
L 105.034017 181.352176 
L 105.27867 182.615367 
L 105.523323 181.975959 
L 106.012629 174.321306 
L 106.257282 174.47579 
L 106.501935 175.067654 
L 106.991241 179.101646 
L 107.235894 184.769326 
L 107.480547 187.33473 
L 107.969853 186.960115 
L 108.214506 182.912161 
L 108.703812 180.047569 
L 108.948465 180.910232 
L 109.437771 178.440384 
L 109.682424 182.118755 
L 109.927077 181.98852 
L 110.416383 175.190381 
L 110.905689 173.31542 
L 111.150342 174.704362 
L 111.394995 174.514406 
L 111.639648 174.557385 
L 111.884301 168.713691 
L 112.128954 166.924384 
L 112.373607 167.196563 
L 112.61826 162.676247 
L 112.862913 161.705589 
L 113.107566 159.512121 
L 113.35222 159.822166 
L 113.596873 164.188911 
L 113.841526 163.295972 
L 114.086179 158.355484 
L 114.575485 155.357958 
L 114.820138 156.649071 
L 115.064791 156.160495 
L 115.309444 157.076851 
L 115.554097 160.60364 
L 115.79875 160.490531 
L 116.043403 152.942594 
L 116.288056 150.947158 
L 116.532709 155.880137 
L 116.777362 156.094342 
L 117.022015 152.956982 
L 117.266668 155.406963 
L 117.511321 153.612928 
L 117.755974 154.2165 
L 118.000627 156.803434 
L 118.24528 164.937085 
L 118.489933 165.837005 
L 118.734586 171.84054 
L 118.979239 168.044433 
L 119.223892 169.39691 
L 119.468545 167.13108 
L 119.713198 170.836664 
L 119.957851 169.193623 
L 120.447157 172.489425 
L 120.69181 168.568074 
L 120.936463 167.554194 
L 121.181116 164.396135 
L 121.425769 165.696927 
L 122.159728 155.564979 
L 122.404381 158.523971 
L 122.649034 158.076933 
L 122.893687 155.101991 
L 123.13834 155.009723 
L 123.382993 152.754607 
L 123.627646 151.904079 
L 123.872299 152.792046 
L 124.116952 152.706718 
L 124.361605 153.487339 
L 124.606258 155.771006 
L 124.850911 155.858506 
L 125.095564 153.932084 
L 125.340217 149.78967 
L 125.58487 150.512337 
L 125.829523 149.442835 
L 126.318829 155.157694 
L 126.563482 154.210534 
L 127.052788 157.182634 
L 127.297441 155.193814 
L 127.542094 155.175287 
L 127.786747 159.082474 
L 128.0314 158.702887 
L 128.276053 160.946964 
L 128.520706 160.41476 
L 128.765359 163.438382 
L 129.010012 160.824845 
L 129.254665 161.551794 
L 129.499318 161.831218 
L 129.743971 168.170895 
L 129.988624 168.801252 
L 130.233277 168.32057 
L 130.47793 169.88786 
L 130.722583 165.832074 
L 131.211889 164.483533 
L 131.456542 164.666874 
L 131.701195 160.961534 
L 131.945848 152.696835 
L 132.190501 153.664977 
L 132.435154 155.293611 
L 132.679807 154.361264 
L 132.92446 149.818566 
L 133.169113 150.598903 
L 133.413766 150.300323 
L 133.658419 149.134413 
L 133.903072 148.600971 
L 134.147725 153.150366 
L 134.637031 155.809805 
L 134.881684 155.940527 
L 135.37099 162.769125 
L 135.615643 160.980406 
L 135.860297 161.927951 
L 136.10495 163.826593 
L 136.349603 163.978541 
L 136.594256 166.935991 
L 136.838909 167.643155 
L 137.083562 166.591875 
L 137.328215 161.988503 
L 137.572868 160.470908 
L 137.817521 162.078093 
L 138.062174 162.751612 
L 138.306827 157.744201 
L 138.55148 164.850153 
L 139.040786 160.594589 
L 139.285439 160.74946 
L 139.530092 163.484994 
L 140.019398 157.690346 
L 140.264051 158.568269 
L 140.508704 157.212586 
L 140.753357 157.053576 
L 140.99801 157.894486 
L 141.487316 155.986367 
L 141.731969 158.165975 
L 141.976622 155.423846 
L 142.221275 158.926082 
L 142.465928 155.508303 
L 142.710581 155.209845 
L 142.955234 156.250389 
L 143.199887 156.669099 
L 143.689193 153.948013 
L 144.178499 150.755498 
L 144.423152 152.418771 
L 144.667805 150.515421 
L 144.912458 149.927657 
L 145.157111 147.33983 
L 145.401764 148.49464 
L 145.646417 148.857323 
L 145.89107 147.819213 
L 146.135723 146.249813 
L 146.380376 148.30716 
L 146.625029 148.096953 
L 146.869682 151.994014 
L 147.114335 149.683663 
L 147.358988 148.851418 
L 147.603641 146.336258 
L 147.848294 149.126033 
L 148.092947 149.041252 
L 148.3376 148.478203 
L 148.582253 145.089382 
L 148.826906 145.772966 
L 149.071559 141.258636 
L 149.560865 140.204942 
L 149.805518 138.081807 
L 150.050171 138.493252 
L 150.294824 138.298852 
L 150.539477 138.389112 
L 150.78413 138.64518 
L 151.028783 136.90435 
L 151.273436 137.213665 
L 151.518089 136.316809 
L 151.762742 133.650025 
L 152.496701 136.170665 
L 152.741354 135.530587 
L 152.986007 138.138361 
L 153.23066 137.339903 
L 153.475313 134.748423 
L 153.719966 138.945099 
L 153.964619 138.042115 
L 154.209272 142.409002 
L 154.453925 141.311091 
L 155.187884 152.783929 
L 155.432537 151.061221 
L 155.67719 154.384255 
L 155.921843 151.519602 
L 156.411149 157.7899 
L 156.655802 156.185799 
L 156.900455 158.300513 
L 157.145108 157.174599 
L 157.389761 156.935658 
L 157.634414 158.574174 
L 157.879067 154.838781 
L 158.613027 155.230299 
L 158.85768 153.603553 
L 159.102333 154.858343 
L 159.346986 153.905907 
L 159.591639 153.663131 
L 159.836292 151.650629 
L 160.080945 154.921512 
L 160.325598 156.158871 
L 160.814904 151.780783 
L 161.059557 154.640993 
L 161.548863 145.041877 
L 162.038169 140.490697 
L 162.282822 142.130248 
L 162.527475 145.424386 
L 162.772128 146.962577 
L 163.261434 151.256919 
L 163.506087 149.308338 
L 163.75074 148.563918 
L 163.995393 148.739709 
L 164.240046 147.888166 
L 165.218658 155.01719 
L 165.463311 155.830746 
L 165.707964 156.082552 
L 165.952617 154.581902 
L 166.441923 150.677941 
L 166.686576 151.799614 
L 166.931229 154.06238 
L 167.420535 162.792278 
L 167.665188 161.441749 
L 167.909841 163.865087 
L 168.154494 169.083314 
L 168.399147 165.933596 
L 168.6438 166.286173 
L 169.133106 160.820503 
L 169.377759 162.165086 
L 169.622412 159.712081 
L 169.867065 159.649844 
L 170.111718 158.274458 
L 170.601024 163.872819 
L 171.09033 160.204796 
L 171.334983 159.478903 
L 171.579636 160.594975 
L 171.824289 165.380328 
L 172.068942 166.852143 
L 172.313595 165.438161 
L 172.558248 163.288971 
L 172.802901 163.817806 
L 173.047554 160.621253 
L 173.292207 159.706419 
L 173.53686 160.306927 
L 173.781513 163.846743 
L 174.026166 164.774423 
L 174.270819 163.316954 
L 174.515472 164.570709 
L 174.760125 160.883388 
L 175.004778 160.587264 
L 175.249431 160.004979 
L 175.494084 157.166279 
L 175.738737 158.808184 
L 175.98339 158.941301 
L 176.228043 160.037182 
L 176.472696 160.350028 
L 176.717349 158.328719 
L 177.206655 156.776526 
L 177.451308 152.527395 
L 177.695961 152.221246 
L 177.940614 151.611059 
L 178.185267 153.031008 
L 178.42992 151.993892 
L 178.674573 151.693486 
L 178.919226 152.247362 
L 179.408532 147.961401 
L 179.653185 147.591048 
L 179.897838 146.71907 
L 180.142491 146.320227 
L 180.387144 148.575789 
L 180.631798 148.750038 
L 181.121104 151.08961 
L 181.365757 150.087316 
L 181.61041 150.858806 
L 181.855063 150.443546 
L 182.099716 147.1572 
L 182.589022 153.431109 
L 182.833675 153.398297 
L 183.078328 156.20946 
L 183.322981 154.356922 
L 183.812287 147.125443 
L 184.05694 146.252146 
L 184.301593 146.606773 
L 184.546246 145.085181 
L 184.790899 145.229175 
L 185.035552 140.573672 
L 185.280205 138.396985 
L 185.524858 138.586819 
L 185.769511 139.488606 
L 186.50347 138.306178 
L 186.992776 145.577897 
L 187.237429 144.203423 
L 187.482082 146.808681 
L 187.726735 147.158641 
L 187.971388 147.016067 
L 188.216041 144.117222 
L 188.460694 143.345955 
L 188.705347 143.712534 
L 188.95 143.679437 
L 189.194653 142.960991 
L 189.439306 143.256324 
L 189.683959 140.239459 
L 190.173265 141.7367 
L 190.662571 139.101187 
L 190.907224 135.353801 
L 191.151877 135.392661 
L 191.39653 135.848241 
L 191.641183 136.93073 
L 191.885836 134.654389 
L 192.619795 132.527662 
L 192.864448 134.035963 
L 193.109101 133.370561 
L 193.353754 137.315978 
L 193.598407 133.56074 
L 193.84306 132.961084 
L 194.087713 130.189836 
L 194.332366 128.864226 
L 194.577019 128.48123 
L 194.821672 127.121185 
L 195.066325 122.879805 
L 195.555631 125.451337 
L 195.800284 125.860246 
L 196.044937 123.494355 
L 196.28959 127.376664 
L 196.534243 126.422868 
L 196.778896 129.044177 
L 197.023549 128.348661 
L 197.268202 131.417211 
L 197.512855 129.431495 
L 197.757508 122.742122 
L 198.002161 122.922135 
L 198.246814 127.749878 
L 198.491467 125.331755 
L 198.73612 130.954426 
L 198.980773 131.450551 
L 199.225426 132.770012 
L 199.470079 133.149031 
L 199.959385 144.380676 
L 200.204038 136.696071 
L 200.448691 136.84321 
L 200.693344 133.492131 
L 200.937997 136.636189 
L 201.427303 129.362562 
L 201.671956 129.105257 
L 201.916609 126.161464 
L 202.405915 125.023354 
L 202.650568 120.132583 
L 202.895221 119.064197 
L 203.139875 120.217364 
L 203.629181 118.544737 
L 203.873834 119.175338 
L 204.118487 118.206262 
L 204.36314 118.024525 
L 204.607793 120.454925 
L 204.852446 119.719981 
L 205.097099 119.64352 
L 205.586405 120.000541 
L 206.075711 121.364463 
L 206.320364 119.721259 
L 206.565017 119.471888 
L 206.80967 120.965396 
L 207.298976 121.51497 
L 207.543629 122.937374 
L 207.788282 119.791126 
L 208.032935 119.298126 
L 208.277588 118.393336 
L 208.522241 113.290775 
L 208.766894 111.84881 
L 209.011547 113.328985 
L 209.2562 117.678847 
L 209.500853 114.570017 
L 209.745506 120.956995 
L 209.990159 123.397622 
L 210.234812 127.265807 
L 210.479465 125.411179 
L 210.724118 117.324098 
L 210.968771 115.543192 
L 211.213424 114.635886 
L 211.458077 112.702889 
L 211.70273 111.848079 
L 211.947383 112.132678 
L 212.192036 111.658022 
L 212.681342 113.632699 
L 212.925995 113.253803 
L 213.415301 125.351013 
L 213.904607 118.349789 
L 214.393913 125.429503 
L 214.638566 124.615277 
L 214.883219 133.107858 
L 215.127872 134.216544 
L 215.372525 136.81409 
L 215.617178 138.173872 
L 215.861831 137.728357 
L 216.106484 131.307856 
L 216.59579 133.746637 
L 216.840443 138.577444 
L 217.085096 140.545465 
L 217.329749 138.264863 
L 217.574402 142.883312 
L 217.819055 139.702323 
L 218.063708 134.136978 
L 218.308361 135.622957 
L 218.797667 128.780155 
L 219.04232 131.259987 
L 219.776279 121.525401 
L 220.020932 121.479743 
L 220.265585 120.600603 
L 220.510238 122.069719 
L 220.754891 122.02392 
L 220.999544 119.835119 
L 221.244197 120.837616 
L 221.48885 118.019655 
L 221.733503 118.438121 
L 221.978156 118.39362 
L 222.222809 120.189665 
L 222.467462 117.950256 
L 222.712115 118.442565 
L 222.956768 120.595367 
L 223.201421 119.873005 
L 223.446074 123.548515 
L 223.690727 122.403364 
L 223.93538 129.256941 
L 224.180033 126.835227 
L 224.424686 120.013021 
L 224.669339 122.354602 
L 224.913992 118.161274 
L 225.158645 120.154742 
L 225.403298 118.20125 
L 225.647952 120.393724 
L 225.892605 116.364986 
L 226.137258 116.86799 
L 226.381911 117.732642 
L 226.626564 122.198068 
L 226.871217 123.656754 
L 227.11587 122.983904 
L 227.360523 118.579213 
L 227.605176 122.450909 
L 227.849829 118.444067 
L 228.094482 118.506242 
L 228.339135 118.800175 
L 228.583788 116.773164 
L 228.828441 116.126553 
L 229.073094 113.87369 
L 229.5624 112.581704 
L 230.051706 105.800915 
L 230.296359 106.004669 
L 230.541012 111.131053 
L 230.785665 108.461449 
L 231.030318 109.574295 
L 231.519624 107.726627 
L 231.764277 109.426892 
L 232.00893 110.201182 
L 232.253583 110.592335 
L 232.498236 109.809056 
L 232.742889 111.229308 
L 233.232195 107.196188 
L 233.721501 111.163541 
L 233.966154 110.464738 
L 234.210807 105.507428 
L 234.45546 104.857387 
L 234.700113 107.299435 
L 235.189419 103.368384 
L 235.434072 103.227597 
L 235.923378 99.621506 
L 236.412684 100.24259 
L 236.657337 97.181285 
L 236.90199 98.722865 
L 237.146643 95.382907 
L 237.391296 96.359227 
L 237.635949 98.436684 
L 237.880602 95.794372 
L 238.125255 98.073433 
L 238.369908 95.196807 
L 238.614561 95.302448 
L 238.859214 92.529293 
L 239.103867 92.901898 
L 239.34852 94.301413 
L 239.593173 89.788401 
L 239.837826 88.662325 
L 240.082479 89.810094 
L 240.327132 92.174747 
L 240.571785 89.755406 
L 240.816438 89.465532 
L 241.061091 87.922572 
L 241.305744 89.045239 
L 241.550397 84.449172 
L 241.79505 82.635473 
L 242.039703 88.179127 
L 242.284356 88.690978 
L 242.529009 88.270644 
L 242.773662 96.131386 
L 243.262968 91.407254 
L 243.507621 93.510827 
L 243.752274 96.782137 
L 243.996927 97.377227 
L 244.24158 101.547259 
L 244.975539 92.213383 
L 245.464845 89.505183 
L 245.709498 91.958695 
L 246.198804 89.971965 
L 246.443457 91.102343 
L 246.68811 89.080406 
L 246.932763 90.905813 
L 247.422069 99.978203 
L 247.666722 97.705799 
L 247.911375 97.150989 
L 248.156029 97.912353 
L 248.400682 99.435447 
L 248.645335 99.950017 
L 249.134641 97.589544 
L 249.379294 98.93291 
L 249.623947 100.971447 
L 249.8686 98.065722 
L 250.113253 104.710837 
L 250.357906 106.866642 
L 250.602559 106.099272 
L 250.847212 104.162095 
L 251.091865 104.404607 
L 251.581171 105.599941 
L 251.825824 110.980424 
L 252.31513 135.635437 
L 253.049089 120.176374 
L 253.293742 123.632302 
L 253.538395 122.018847 
L 253.783048 130.89284 
L 254.027701 126.171752 
L 254.272354 125.113046 
L 254.517007 132.839067 
L 254.76166 124.325261 
L 255.006313 122.502492 
L 255.740272 127.523478 
L 255.984925 123.578893 
L 256.229578 122.25515 
L 256.474231 123.98009 
L 256.718884 132.150552 
L 256.963537 127.849493 
L 257.20819 134.198585 
L 257.452843 134.208366 
L 257.697496 138.07442 
L 257.942149 132.754225 
L 258.186802 141.196481 
L 258.431455 144.13378 
L 258.676108 140.407884 
L 258.920761 138.629595 
L 259.165414 140.789459 
L 259.410067 133.63783 
L 259.65472 133.452196 
L 259.899373 130.009052 
L 260.388679 133.701243 
L 260.633332 132.189858 
L 260.877985 131.66366 
L 261.122638 133.28371 
L 261.611944 127.632954 
L 262.10125 127.023457 
L 262.345903 131.904001 
L 262.835209 125.3418 
L 263.079862 123.204278 
L 263.324515 125.548618 
L 263.569168 119.78173 
L 263.813821 120.509085 
L 264.058474 122.760548 
L 264.303127 120.229986 
L 264.54778 119.377874 
L 265.037086 117.206485 
L 265.281739 107.063964 
L 265.526392 110.495643 
L 266.015698 109.937952 
L 266.260351 115.808634 
L 266.505004 118.260605 
L 266.749657 117.937877 
L 266.99431 118.659509 
L 267.238963 115.37921 
L 267.483616 116.162815 
L 267.728269 117.618112 
L 268.217575 121.932625 
L 268.462228 121.128688 
L 268.706881 119.580533 
L 268.951534 120.075643 
L 269.196187 116.52775 
L 269.44084 118.949972 
L 269.685493 124.120066 
L 269.930146 120.023005 
L 270.419452 129.171308 
L 270.664106 131.271147 
L 270.908759 129.702619 
L 271.153412 137.597107 
L 271.398065 138.006035 
L 271.887371 125.409819 
L 272.132024 128.519501 
L 272.376677 137.328011 
L 273.110636 129.803533 
L 273.355289 130.465343 
L 273.599942 131.977784 
L 273.844595 128.525528 
L 274.333901 132.299598 
L 274.578554 139.129778 
L 274.823207 141.033108 
L 275.312513 153.005825 
L 275.801819 151.058684 
L 276.046472 151.372707 
L 276.291125 158.414454 
L 276.535778 157.105098 
L 276.780431 166.437715 
L 277.025084 163.004596 
L 277.269737 167.573918 
L 277.51439 169.186926 
L 277.759043 162.868881 
L 278.003696 169.737008 
L 278.248349 166.498734 
L 278.493002 166.844209 
L 278.737655 163.852039 
L 278.982308 158.43225 
L 279.226961 161.202524 
L 279.471614 170.814586 
L 279.716267 170.169151 
L 279.96092 165.33394 
L 280.205573 163.849909 
L 280.450226 174.505397 
L 280.694879 176.625792 
L 280.939532 174.390766 
L 281.184185 184.637203 
L 281.428838 177.034214 
L 281.673491 172.979705 
L 281.918144 170.944963 
L 282.40745 176.991296 
L 282.652103 173.539061 
L 282.896756 178.961082 
L 283.141409 180.645398 
L 283.630715 172.479867 
L 283.875368 174.110287 
L 284.120021 167.766024 
L 284.364674 167.889665 
L 284.609327 166.855512 
L 284.85398 163.913565 
L 285.098633 166.424566 
L 285.343286 170.750381 
L 285.587939 172.185874 
L 285.832592 170.92114 
L 286.077245 167.213142 
L 286.811204 172.339222 
L 287.055857 170.090925 
L 287.30051 163.912307 
L 287.545163 164.92006 
L 287.789816 167.726393 
L 288.034469 167.332663 
L 288.279122 170.335628 
L 288.523775 168.542729 
L 288.768428 167.960038 
L 289.013081 164.844005 
L 289.257734 164.418192 
L 289.502387 161.911169 
L 289.74704 163.014681 
L 289.991693 166.279639 
L 290.236346 166.212695 
L 290.480999 172.065683 
L 290.725652 171.00375 
L 291.214958 167.626069 
L 291.459611 160.586939 
L 291.704264 159.558813 
L 291.948917 161.3828 
L 292.19357 161.502951 
L 292.438223 158.108386 
L 292.682876 152.844867 
L 292.92753 153.027862 
L 293.172183 150.983339 
L 293.416836 153.097383 
L 293.661489 152.516072 
L 293.906142 150.938108 
L 294.150795 154.068935 
L 294.395448 154.705238 
L 294.640101 151.77364 
L 295.129407 160.104329 
L 295.37406 159.988724 
L 295.863366 162.681909 
L 296.108019 158.143573 
L 297.086631 164.87769 
L 297.331284 166.16511 
L 297.575937 161.156339 
L 297.82059 166.435199 
L 298.309896 165.773084 
L 298.799202 158.692335 
L 299.043855 160.851773 
L 299.288508 160.811676 
L 299.533161 160.00577 
L 299.777814 161.343981 
L 300.022467 161.181603 
L 300.26712 167.033312 
L 300.511773 163.952222 
L 300.756426 165.538587 
L 301.001079 166.199485 
L 301.245732 168.641106 
L 301.490385 173.060387 
L 301.735038 173.983907 
L 301.979691 177.016499 
L 302.224344 176.492614 
L 302.468997 178.029547 
L 302.71365 178.216581 
L 302.958303 174.052616 
L 303.447609 174.98133 
L 303.692262 169.353444 
L 303.936915 185.89662 
L 304.181568 187.584182 
L 304.670874 179.187097 
L 304.915527 175.705114 
L 305.16018 175.267593 
L 305.404833 180.478738 
L 305.649486 180.018814 
L 305.894139 177.323033 
L 306.138792 172.421933 
L 306.383445 170.037394 
L 306.628098 164.25277 
L 306.872751 163.553906 
L 307.117404 156.670844 
L 307.362057 157.879571 
L 307.60671 155.613822 
L 307.851363 158.028394 
L 308.096016 157.686876 
L 308.340669 159.432738 
L 308.585322 159.17111 
L 308.829975 159.415916 
L 309.074628 158.826467 
L 309.319281 158.553029 
L 309.563934 159.702219 
L 309.808587 161.38905 
L 310.05324 161.546477 
L 310.297893 164.249361 
L 310.542546 161.915674 
L 310.787199 162.394104 
L 311.031852 157.463174 
L 311.521158 155.61715 
L 311.765811 156.793044 
L 312.010464 155.127073 
L 312.255117 156.365832 
L 312.49977 153.018508 
L 313.233729 152.332488 
L 313.478382 152.323154 
L 313.723035 152.023702 
L 313.967688 151.090949 
L 314.212341 152.228978 
L 314.456994 152.155966 
L 314.9463 150.09868 
L 315.190953 148.062862 
L 315.435607 148.041474 
L 315.68026 148.66126 
L 315.924913 147.709696 
L 316.169566 147.869619 
L 316.414219 147.299408 
L 316.658872 145.210445 
L 316.903525 147.847886 
L 317.148178 146.379094 
L 317.392831 150.904849 
L 317.637484 150.981168 
L 317.882137 149.17999 
L 318.12679 151.366396 
L 318.616096 149.636484 
L 318.860749 149.5446 
L 319.105402 147.994944 
L 319.594708 156.892537 
L 320.084014 155.325815 
L 320.328667 160.022552 
L 320.57332 157.635334 
L 320.817973 158.292538 
L 321.062626 156.252013 
L 321.307279 151.560653 
L 321.551932 151.059415 
L 322.041238 145.466127 
L 322.285891 148.15227 
L 322.530544 147.546344 
L 322.775197 150.932913 
L 323.01985 144.298025 
L 323.264503 146.863226 
L 323.509156 141.875113 
L 323.753809 140.15064 
L 323.998462 140.687633 
L 324.243115 141.640616 
L 324.487768 139.923042 
L 324.732421 139.354352 
L 325.221727 136.146902 
L 325.46638 136.826205 
L 325.711033 135.460761 
L 325.955686 135.57387 
L 326.200339 137.76677 
L 326.444992 137.467987 
L 326.689645 138.120829 
L 326.934298 130.757308 
L 327.178951 132.280097 
L 327.668257 106.956009 
L 327.91291 105.035005 
L 328.157563 96.62402 
L 328.402216 95.918439 
L 328.646869 101.496447 
L 328.891522 96.073878 
L 329.136175 93.595791 
L 329.380828 92.676797 
L 329.625481 92.64441 
L 329.870134 91.279839 
L 330.114787 92.034406 
L 330.35944 93.351736 
L 330.604093 91.591102 
L 331.093399 72.69555 
L 331.338052 77.02238 
L 331.582705 69.264033 
L 332.072011 61.689474 
L 332.316664 53.455173 
L 332.561317 53.66885 
L 332.80597 57.585128 
L 333.050623 55.371225 
L 333.295276 54.967248 
L 333.539929 48.709998 
L 333.784582 54.149065 
L 334.029235 55.438596 
L 334.273888 49.556712 
L 334.518541 52.322704 
L 334.763194 52.962985 
L 335.007847 52.670756 
L 335.2525 51.380496 
L 335.497153 50.825524 
L 335.741806 54.905803 
L 335.986459 53.996326 
L 336.231112 50.275543 
L 336.475765 50.027532 
L 336.720418 53.072786 
L 336.965071 47.481304 
L 337.209724 50.193867 
L 337.454377 51.502959 
L 337.69903 47.214482 
L 337.943684 49.374569 
L 338.188337 47.065598 
L 338.43299 57.554953 
L 338.677643 59.789168 
L 338.922296 63.443574 
L 339.166949 63.209686 
L 339.411602 63.260295 
L 339.656255 62.248321 
L 340.145561 54.183603 
L 340.87952 66.74175 
L 341.124173 64.298059 
L 341.368826 66.506178 
L 341.613479 52.326276 
L 341.858132 53.515948 
L 342.102785 53.213939 
L 342.347438 56.796227 
L 342.592091 51.833479 
L 342.836744 49.777532 
L 343.081397 44.847373 
L 343.570703 40.165003 
L 343.815356 41.210722 
L 344.060009 41.554737 
L 344.304662 38.268309 
L 344.793968 39.495928 
L 345.038621 45.19293 
L 345.283274 42.204534 
L 345.527927 44.092259 
L 345.77258 34.780015 
L 346.017233 37.21496 
L 346.261886 35.684521 
L 346.506539 37.82253 
L 346.751192 38.530444 
L 346.995845 37.554043 
L 347.240498 38.117984 
L 347.485151 40.700393 
L 347.729804 41.662752 
L 347.974457 44.076147 
L 348.21911 43.982113 
L 348.463763 41.941648 
L 348.953069 49.511176 
L 349.197722 59.341744 
L 349.442375 64.255689 
L 349.687028 63.490449 
L 349.931681 67.138646 
L 350.176334 74.692894 
L 350.420987 68.954536 
L 350.66564 68.957357 
L 350.910293 65.094671 
L 351.399599 68.848692 
L 351.644252 68.541123 
L 351.888905 67.626106 
L 352.133558 68.448489 
L 352.378211 70.293174 
L 352.622864 68.836091 
L 353.356823 74.103932 
L 353.601476 71.575643 
L 353.846129 88.103112 
L 354.090782 87.187161 
L 354.335435 82.000875 
L 354.580088 83.222487 
L 354.824741 74.119679 
L 355.069394 69.941611 
L 355.314047 70.542687 
L 355.803353 74.290884 
L 356.048006 73.84267 
L 356.292659 73.845734 
L 356.781965 71.110565 
L 357.026618 71.158353 
L 357.515924 73.960892 
L 357.760577 73.595287 
L 358.00523 74.472114 
L 358.249883 76.539445 
L 358.494536 73.328952 
L 358.739189 72.642628 
L 358.983842 87.950474 
L 359.228495 84.992902 
L 359.473148 85.042151 
L 359.717801 83.728615 
L 359.962454 80.781007 
L 360.207107 75.794396 
L 360.451761 76.013167 
L 360.696414 75.659209 
L 361.18572 89.760175 
L 361.430373 85.756661 
L 361.675026 88.943717 
L 361.919679 87.771253 
L 362.164332 87.704877 
L 362.653638 81.992047 
L 362.898291 76.375971 
L 363.142944 76.680456 
L 363.387597 73.205169 
L 363.63225 72.65736 
L 363.876903 76.076722 
L 364.121556 77.361727 
L 364.366209 71.618662 
L 364.610862 73.330372 
L 365.344821 82.467109 
L 365.589474 78.800953 
L 365.834127 78.639792 
L 366.323433 71.806243 
L 366.568086 75.516088 
L 366.812739 69.28601 
L 367.057392 69.672577 
L 367.546698 71.7588 
L 367.791351 72.37822 
L 368.036004 71.230736 
L 368.280657 70.666368 
L 368.52531 67.344369 
L 368.769963 71.04492 
L 369.014616 69.064642 
L 369.259269 74.798677 
L 369.503922 75.534432 
L 369.748575 75.870512 
L 370.237881 82.004892 
L 370.482534 76.902027 
L 370.727187 76.326073 
L 370.97184 78.059942 
L 371.461146 73.768928 
L 371.705799 70.019188 
L 371.950452 71.423004 
L 372.195105 73.894516 
L 372.439758 67.183654 
L 372.684411 64.157637 
L 372.929064 63.831703 
L 373.173717 66.471215 
L 373.41837 72.740721 
L 373.663023 74.076274 
L 373.907676 68.743031 
L 374.152329 68.166346 
L 374.396982 71.201616 
L 374.641635 76.960509 
L 374.886288 76.696933 
L 375.130941 78.62715 
L 375.375594 75.348393 
L 375.620247 76.756471 
L 375.8649 75.645857 
L 376.109553 75.609899 
L 376.598859 81.835331 
L 376.843512 77.353001 
L 377.332818 72.375217 
L 377.577471 82.601565 
L 377.822124 80.313982 
L 378.066777 84.483608 
L 378.31143 83.099171 
L 378.800736 71.856994 
L 379.045389 72.272214 
L 379.290042 71.384957 
L 379.534695 73.001232 
L 379.779348 69.565799 
L 380.513307 65.213787 
L 381.002613 66.747716 
L 381.247266 66.353134 
L 381.491919 59.027499 
L 381.736572 59.779732 
L 381.981225 58.403898 
L 382.225878 54.00633 
L 382.470531 52.212883 
L 382.715184 52.60436 
L 382.959838 46.469513 
L 383.204491 45.9297 
L 383.449144 49.554926 
L 383.693797 49.671322 
L 383.93845 50.361542 
L 384.427756 55.700081 
L 384.672409 51.510853 
L 384.917062 56.707793 
L 385.161715 50.873373 
L 385.406368 54.653713 
L 385.651021 47.703524 
L 385.895674 50.475077 
L 386.140327 46.69634 
L 386.38498 49.759492 
L 386.629633 49.952248 
L 387.118939 52.820838 
L 387.363592 50.528608 
L 387.852898 44.724686 
L 387.852898 44.724686 
" style="fill:none;stroke:#1f77b4;stroke-linecap:square;stroke-width:1.5;"/>
   </g>
   <g id="line2d_32">
    <path clip-path="url(#p61336bce97)" d="M 63.198352 235.557152 
L 63.443005 236.567854 
L 63.687658 236.541257 
L 63.932311 237.618452 
L 64.176964 240.650559 
L 64.421617 236.434867 
L 64.910923 233.429358 
L 65.155576 234.413463 
L 65.400229 232.950604 
L 65.644882 233.72193 
L 65.889535 232.937306 
L 66.134188 233.40276 
L 66.378841 233.575644 
L 66.623494 233.09689 
L 66.868147 232.950604 
L 67.1128 230.716421 
L 67.357453 230.663226 
L 67.846759 232.312266 
L 68.091412 231.141979 
L 68.336066 230.9292 
L 68.580719 231.048888 
L 68.825372 230.383953 
L 69.070025 231.461148 
L 69.559331 229.213666 
L 70.29329 216.021343 
L 70.537943 218.215631 
L 71.271902 210.249702 
L 71.516555 209.332091 
L 71.761208 211.273703 
L 72.005861 211.3003 
L 72.250514 212.44399 
L 72.73982 215.502693 
L 72.984473 215.662278 
L 73.229126 219.784879 
L 73.473779 220.343425 
L 73.718432 217.484202 
L 73.963085 219.545502 
L 74.207738 215.316511 
L 74.452391 214.797862 
L 74.697044 213.920147 
L 74.941697 211.273703 
L 75.18635 212.058327 
L 75.675656 211.632768 
L 75.920309 211.034326 
L 76.164962 208.494272 
L 76.409615 210.874741 
L 76.654268 205.156295 
L 76.898921 206.85853 
L 77.143574 204.597749 
L 77.388227 204.291879 
L 77.877533 207.456972 
L 78.122186 212.470587 
L 78.366839 211.446586 
L 78.611492 211.51308 
L 78.856145 211.885444 
L 79.345451 204.69084 
L 79.590104 206.818634 
L 79.834757 205.714841 
L 80.07941 202.82902 
L 80.324063 213.827056 
L 80.568716 217.431007 
L 81.058022 214.81116 
L 81.302675 215.835161 
L 81.547328 218.800774 
L 81.791981 217.204929 
L 82.036634 216.67298 
L 82.281287 213.401497 
L 82.52594 213.68077 
L 82.770593 214.19942 
L 83.015246 210.728456 
L 83.259899 209.890637 
L 83.504552 213.255211 
L 83.749205 212.031729 
L 83.993858 212.829652 
L 84.238511 214.079731 
L 84.483164 213.26851 
L 84.727817 215.688875 
L 84.97247 214.957446 
L 85.217123 214.864355 
L 85.461776 215.702174 
L 85.706429 215.117031 
L 85.951082 212.656769 
L 86.195735 213.68077 
L 86.440388 213.135523 
L 86.685041 211.991833 
L 87.174347 200.807616 
L 87.419 201.499149 
L 87.663653 198.214367 
L 88.152959 201.113486 
L 88.642265 202.270474 
L 88.886918 203.799826 
L 89.131571 201.086889 
L 89.376224 195.634417 
L 89.620877 196.591924 
L 89.86553 191.844284 
L 90.110183 192.176752 
L 90.354836 193.785896 
L 90.599489 192.096959 
L 90.844143 188.040852 
L 91.088796 188.360021 
L 91.578102 190.408023 
L 91.822755 183.093731 
L 92.067408 183.200121 
L 92.312061 178.625364 
L 92.556714 176.630557 
L 92.801367 177.149206 
L 93.290673 178.612065 
L 93.535326 179.024325 
L 93.779979 175.101205 
L 94.024632 175.034711 
L 94.269285 174.090503 
L 94.513938 171.377565 
L 94.758591 174.542659 
L 95.003244 170.646136 
L 95.247897 169.755122 
L 95.49255 170.898812 
L 95.737203 169.116784 
L 95.981856 168.265667 
L 96.226509 165.778807 
L 96.471162 165.23356 
L 96.715815 163.358442 
L 96.960468 164.608521 
L 97.205121 159.741192 
L 97.694427 170.074291 
L 97.93908 165.805405 
L 98.183733 174.369776 
L 98.428386 173.904321 
L 98.673039 169.050291 
L 98.917692 171.563747 
L 99.162345 170.539746 
L 99.406998 168.345459 
L 99.651651 167.308159 
L 99.896304 165.75221 
L 100.140957 162.44083 
L 100.38561 167.281562 
L 100.630263 166.856003 
L 100.874916 168.784316 
L 101.119569 168.704524 
L 101.364222 165.898496 
L 101.608875 164.808001 
L 102.098181 172.787229 
L 102.342834 171.071695 
L 102.587487 177.388583 
L 102.83214 175.76614 
L 103.076793 176.417777 
L 103.321446 175.845933 
L 103.566099 174.1171 
L 103.810752 175.034711 
L 104.055405 176.510868 
L 104.300058 175.659751 
L 104.544711 180.00843 
L 104.789364 180.566976 
L 105.034017 179.636066 
L 105.27867 179.463182 
L 105.767976 171.962709 
L 106.012629 172.481358 
L 106.257282 172.414865 
L 107.235894 186.40511 
L 107.480547 186.245526 
L 107.7252 185.181629 
L 107.969853 180.633469 
L 108.459159 178.213103 
L 108.703812 179.07752 
L 109.193118 176.470972 
L 109.437771 181.072327 
L 109.682424 179.662663 
L 109.927077 177.401882 
L 110.17173 173.305879 
L 110.661036 170.898812 
L 110.905689 173.18619 
L 111.394995 171.73663 
L 111.639648 165.23356 
L 111.884301 163.784 
L 112.128954 165.300054 
L 112.373607 160.366231 
L 112.61826 159.408724 
L 112.862913 156.97506 
L 113.35222 161.390232 
L 113.596873 159.648101 
L 114.330832 152.160926 
L 114.575485 155.179733 
L 114.820138 153.211524 
L 115.064791 155.711682 
L 115.309444 160.206647 
L 115.554097 158.371424 
L 115.79875 149.953339 
L 116.043403 147.98513 
L 116.288056 153.543992 
L 116.532709 155.472305 
L 116.777362 150.206015 
L 117.022015 154.062642 
L 117.266668 152.480095 
L 117.511321 152.4269 
L 117.755974 155.871266 
L 118.000627 164.049975 
L 118.24528 165.592625 
L 118.489933 170.207279 
L 118.734586 167.175172 
L 118.979239 169.036992 
L 119.223892 166.57673 
L 119.468545 169.582239 
L 119.713198 168.917303 
L 120.202504 170.672733 
L 120.447157 166.935795 
L 120.69181 166.177769 
L 120.936463 162.015272 
L 121.181116 163.491429 
L 121.670422 157.79958 
L 121.915075 153.956252 
L 122.159728 157.626697 
L 122.404381 155.951059 
L 122.649034 152.546588 
L 122.893687 152.147627 
L 123.13834 149.63417 
L 123.382993 149.620872 
L 123.627646 151.243314 
L 123.872299 150.086327 
L 124.116952 150.950743 
L 124.361605 153.730174 
L 124.606258 154.714278 
L 124.850911 152.586484 
L 125.095564 147.98513 
L 125.340217 147.812247 
L 125.58487 146.881337 
L 125.829523 151.589081 
L 126.074176 153.35781 
L 126.808135 155.698383 
L 127.052788 153.012043 
L 127.297441 153.504096 
L 127.542094 156.948462 
L 127.786747 157.068151 
L 128.0314 159.767789 
L 128.276053 158.531009 
L 128.520706 161.789194 
L 128.765359 158.73049 
L 129.254665 160.738595 
L 129.499318 166.949094 
L 129.743971 167.294861 
L 129.988624 166.417145 
L 130.233277 168.411952 
L 130.47793 164.914391 
L 130.722583 163.611117 
L 131.211889 162.387636 
L 131.456542 158.6241 
L 131.701195 151.110327 
L 131.945848 151.216717 
L 132.190501 153.490797 
L 132.435154 152.626381 
L 132.679807 148.596871 
L 132.92446 148.078221 
L 133.169113 147.227103 
L 133.413766 147.599467 
L 133.658419 144.979621 
L 133.903072 150.964042 
L 134.147725 153.996148 
L 134.392378 154.873863 
L 134.637031 154.90046 
L 135.126337 160.326335 
L 135.37099 159.275737 
L 135.615643 159.714594 
L 135.860297 162.13496 
L 136.10495 162.533921 
L 136.349603 165.592625 
L 136.594256 167.188471 
L 136.838909 165.33995 
L 137.328215 157.945866 
L 137.572868 158.663996 
L 137.817521 161.09766 
L 138.062174 154.953655 
L 138.306827 160.180049 
L 138.55148 159.687997 
L 138.796133 158.251736 
L 139.040786 158.943269 
L 139.285439 160.951375 
L 139.774745 155.166435 
L 140.019398 156.017552 
L 140.264051 155.139837 
L 140.508704 155.21963 
L 140.753357 156.802176 
L 141.242663 153.743472 
L 141.487316 155.352617 
L 141.731969 153.264719 
L 141.976622 158.424619 
L 142.221275 153.730174 
L 142.465928 152.83916 
L 142.710581 154.102538 
L 142.955234 154.036044 
L 143.199887 153.690278 
L 143.933846 149.168715 
L 144.178499 151.296509 
L 144.423152 148.543676 
L 144.912458 145.338686 
L 145.157111 147.253701 
L 145.401764 147.014324 
L 145.89107 145.019517 
L 146.135723 147.240402 
L 146.380376 146.375986 
L 146.625029 150.551781 
L 146.869682 148.357494 
L 147.114335 147.745753 
L 147.358988 145.006218 
L 147.603641 147.838844 
L 147.848294 146.868038 
L 148.092947 146.788246 
L 148.3376 143.383775 
L 148.582253 143.995516 
L 148.826906 138.210576 
L 149.071559 138.303667 
L 149.316212 137.785017 
L 149.560865 136.042886 
L 149.805518 136.455146 
L 150.050171 136.069484 
L 150.294824 136.202471 
L 150.539477 137.026991 
L 150.78413 134.992288 
L 151.028783 135.48434 
L 151.518089 132.186259 
L 151.762742 133.62252 
L 152.007395 133.42304 
L 152.252048 134.806106 
L 152.496701 133.489533 
L 152.741354 136.82751 
L 152.986007 135.870003 
L 153.23066 133.01078 
L 153.475313 137.771719 
L 153.719966 136.295562 
L 153.964619 140.391565 
L 154.209272 139.753227 
L 154.943231 151.708769 
L 155.187884 149.63417 
L 155.432537 152.759368 
L 155.67719 150.179417 
L 155.921843 152.466796 
L 156.166496 158.185242 
L 156.411149 155.605292 
L 156.655802 157.38732 
L 156.900455 155.618591 
L 157.145108 155.379214 
L 157.389761 156.615994 
L 157.634414 152.107731 
L 157.879067 153.291316 
L 158.12372 152.546588 
L 158.368374 152.998745 
L 158.613027 151.761964 
L 158.85768 153.610485 
L 159.102333 151.961445 
L 159.346986 151.961445 
L 159.591639 149.248508 
L 159.836292 153.317914 
L 160.080945 154.222226 
L 160.325598 150.791158 
L 160.570251 149.368196 
L 160.814904 151.642276 
L 161.30421 142.120398 
L 161.548863 141.189488 
L 161.793516 138.981902 
L 162.038169 139.979305 
L 162.282822 144.793439 
L 162.527475 145.019517 
L 162.772128 149.035728 
L 163.016781 150.831054 
L 163.506087 147.187207 
L 163.75074 147.067519 
L 163.995393 145.684453 
L 164.240046 148.70326 
L 164.484699 150.339002 
L 164.974005 155.645188 
L 165.218658 154.90046 
L 165.463311 154.887162 
L 166.19727 148.277702 
L 166.441923 149.84695 
L 166.686576 153.637083 
L 166.931229 159.86088 
L 167.175882 162.520623 
L 167.420535 160.392829 
L 167.665188 163.291948 
L 167.909841 167.627328 
L 168.154494 164.940988 
L 168.399147 164.701612 
L 168.6438 161.642908 
L 168.888453 161.350336 
L 169.133106 160.871582 
L 169.377759 157.334125 
L 169.622412 157.347424 
L 169.867065 156.815475 
L 170.356371 162.54722 
L 170.845677 158.185242 
L 171.09033 157.453813 
L 171.334983 159.435321 
L 171.824289 165.206963 
L 172.068942 163.903689 
L 172.313595 161.403531 
L 172.558248 161.669505 
L 172.802901 158.544308 
L 173.047554 157.573502 
L 173.292207 158.677295 
L 173.53686 162.414233 
L 173.781513 162.693506 
L 174.026166 161.044466 
L 174.270819 162.799896 
L 174.515472 158.810282 
L 175.004778 157.733086 
L 175.249431 155.591993 
L 175.98339 158.198541 
L 176.228043 157.905969 
L 176.472696 155.552097 
L 176.717349 154.767473 
L 176.962002 154.514798 
L 177.206655 149.713963 
L 177.451308 149.966638 
L 177.695961 149.487884 
L 177.940614 150.724665 
L 178.185267 150.019833 
L 178.674573 150.166119 
L 179.163879 144.833335 
L 179.408532 145.006218 
L 179.653185 144.859932 
L 179.897838 144.327984 
L 180.142491 147.001025 
L 180.387144 146.801545 
L 180.631798 147.293597 
L 180.876451 148.929339 
L 181.121104 148.051623 
L 181.365757 148.889442 
L 181.61041 148.783053 
L 181.855063 145.365284 
L 182.099716 147.599467 
L 182.344369 151.416198 
L 182.589022 151.735367 
L 182.833675 153.397706 
L 183.078328 151.562484 
L 183.812287 144.022114 
L 184.05694 144.460971 
L 184.301593 142.692242 
L 184.546246 142.359775 
L 185.035552 135.577431 
L 185.280205 136.322159 
L 185.524858 137.465848 
L 185.769511 136.734419 
L 186.014164 137.279666 
L 186.258817 136.987095 
L 186.748123 144.314685 
L 186.992776 142.399671 
L 187.237429 145.418478 
L 187.482082 144.99292 
L 187.726735 145.844037 
L 187.971388 141.641644 
L 188.216041 141.37567 
L 188.460694 141.548553 
L 188.705347 141.495358 
L 188.95 141.016605 
L 189.194653 142.120398 
L 189.439306 138.596239 
L 189.683959 139.380863 
L 189.928612 139.287772 
L 190.173265 137.798316 
L 190.417918 137.372757 
L 190.662571 134.181066 
L 190.907224 134.14117 
L 191.39653 134.473638 
L 191.641183 132.532026 
L 191.885836 131.654311 
L 192.130489 131.880389 
L 192.375142 131.242051 
L 192.619795 131.680908 
L 192.864448 131.202155 
L 193.109101 134.806106 
L 193.353754 131.521324 
L 193.598407 130.018569 
L 193.84306 127.132749 
L 194.087713 126.055553 
L 194.332366 125.975761 
L 194.577019 124.938461 
L 194.821672 120.855756 
L 195.066325 123.103239 
L 195.310978 124.313422 
L 195.555631 124.579396 
L 195.800284 120.962146 
L 196.044937 125.909267 
L 196.28959 124.5395 
L 196.534243 126.255034 
L 196.778896 126.6008 
L 197.023549 130.417531 
L 197.268202 127.518411 
L 197.512855 120.61638 
L 197.757508 121.401004 
L 198.002161 126.29493 
L 198.246814 122.518095 
L 198.491467 129.659504 
L 198.73612 130.843089 
L 198.980773 132.984182 
L 199.225426 133.077273 
L 199.470079 135.018885 
L 199.714732 141.216085 
L 199.959385 135.457743 
L 200.204038 134.220962 
L 200.448691 131.109064 
L 200.693344 135.564132 
L 201.18265 126.893372 
L 201.427303 126.148644 
L 201.671956 122.943654 
L 201.916609 123.262823 
L 202.161262 122.079238 
L 202.405915 118.063027 
L 202.650568 116.945935 
L 203.139875 118.262507 
L 203.384528 116.719857 
L 203.629181 117.105519 
L 203.873834 115.65596 
L 204.118487 115.54957 
L 204.36314 117.810351 
L 204.607793 117.730559 
L 204.852446 118.076325 
L 205.097099 118.142819 
L 205.341752 118.528482 
L 205.586405 119.126924 
L 205.831058 118.382196 
L 206.075711 118.594975 
L 206.320364 117.956637 
L 206.565017 119.565781 
L 206.80967 120.017937 
L 207.054323 120.164223 
L 207.298976 120.443496 
L 207.543629 117.797053 
L 208.032935 115.456479 
L 208.277588 110.80193 
L 208.522241 109.24598 
L 208.766894 108.886915 
L 209.011547 115.389986 
L 209.2562 113.341984 
L 209.745506 123.980954 
L 209.990159 126.946567 
L 210.234812 124.659188 
L 210.479465 115.908635 
L 210.968771 112.1451 
L 211.213424 110.735436 
L 211.458077 110.216786 
L 211.70273 110.80193 
L 211.947383 109.817825 
L 212.192036 110.456163 
L 212.436689 112.956321 
L 212.681342 112.184996 
L 213.170648 125.324124 
L 213.659954 117.690663 
L 214.14926 124.605993 
L 214.393913 124.792175 
L 214.638566 131.04257 
L 215.372525 137.159978 
L 215.617178 135.138574 
L 215.861831 128.635503 
L 216.106484 130.696804 
L 216.351137 130.789895 
L 216.840443 140.591046 
L 217.085096 136.681224 
L 217.329749 141.442163 
L 217.574402 137.34616 
L 217.819055 131.029271 
L 218.063708 132.970883 
L 218.553014 126.786982 
L 218.797667 128.396126 
L 219.531626 118.3423 
L 219.776279 119.379599 
L 220.020932 118.023131 
L 220.265585 119.818457 
L 220.510238 119.233313 
L 220.754891 116.041622 
L 220.999544 117.637468 
L 221.244197 115.097414 
L 221.48885 115.762349 
L 221.733503 115.124011 
L 221.978156 118.329001 
L 222.222809 115.669259 
L 222.467462 116.360792 
L 222.712115 118.488586 
L 222.956768 117.943338 
L 223.201421 122.15903 
L 223.446074 120.802562 
L 223.690727 127.744489 
L 223.93538 125.789579 
L 224.180033 118.116222 
L 224.424686 118.927443 
L 224.669339 115.522973 
L 224.913992 117.291701 
L 225.158645 114.964427 
L 225.403298 118.089624 
L 225.647952 113.887231 
L 226.137258 116.347493 
L 226.381911 121.573887 
L 226.626564 121.720173 
L 226.871217 120.629678 
L 227.11587 116.693259 
L 227.360523 120.749367 
L 227.605176 115.084115 
L 227.849829 115.988428 
L 228.339135 114.871336 
L 228.583788 114.645258 
L 228.828441 111.546658 
L 229.073094 110.549254 
L 229.317747 110.629046 
L 229.5624 107.783122 
L 229.807053 103.288157 
L 230.051706 104.471743 
L 230.296359 108.275174 
L 230.541012 107.277771 
L 230.785665 108.953409 
L 231.274971 105.668627 
L 231.764277 109.378967 
L 232.253583 106.66603 
L 232.498236 109.511955 
L 232.742889 108.035798 
L 232.987542 105.681925 
L 233.232195 108.354967 
L 233.476848 109.738033 
L 233.721501 108.221979 
L 233.966154 104.08608 
L 234.210807 102.450338 
L 234.45546 104.046184 
L 235.189419 100.801298 
L 235.434072 98.553815 
L 235.678725 97.569711 
L 235.923378 97.99527 
L 236.168031 98.168153 
L 236.412684 94.37802 
L 236.657337 96.266437 
L 236.90199 92.702382 
L 237.146643 93.473707 
L 237.391296 96.519112 
L 237.635949 94.364721 
L 237.880602 96.199943 
L 238.125255 93.726383 
L 238.369908 92.955058 
L 238.614561 90.853861 
L 239.103867 92.755577 
L 239.34852 87.289806 
L 239.593173 86.21261 
L 239.837826 87.382897 
L 240.082479 89.11173 
L 240.327132 86.717961 
L 240.571785 87.55578 
L 240.816438 85.334895 
L 241.061091 87.210014 
L 241.550397 80.281384 
L 241.79505 85.560973 
L 242.039703 87.702066 
L 242.284356 87.236611 
L 242.529009 94.5775 
L 243.018315 91.532095 
L 243.262968 92.5162 
L 243.507621 94.058851 
L 243.752274 93.832773 
L 243.996927 99.351738 
L 244.24158 98.354335 
L 244.975539 88.579781 
L 245.220192 87.515884 
L 245.464845 89.883055 
L 245.709498 88.18082 
L 245.954151 88.273911 
L 246.198804 89.457496 
L 246.443457 87.130221 
L 246.68811 90.055938 
L 247.177416 98.075062 
L 247.422069 96.452619 
L 247.911375 95.175943 
L 248.156029 98.008568 
L 248.400682 98.513919 
L 248.889988 97.170749 
L 249.134641 97.981971 
L 249.379294 100.176258 
L 249.623947 96.811684 
L 249.8686 102.490234 
L 250.357906 103.766911 
L 250.602559 102.064676 
L 250.847212 101.333246 
L 251.091865 103.181767 
L 251.336518 103.487638 
L 251.581171 109.073097 
L 252.070477 132.066571 
L 252.31513 133.715611 
L 252.804436 119.100326 
L 253.049089 121.041938 
L 253.293742 119.911548 
L 253.538395 128.529114 
L 253.783048 125.350721 
L 254.027701 124.619292 
L 254.272354 130.843089 
L 254.517007 123.528798 
L 254.76166 123.794772 
L 255.006313 123.488901 
L 255.250966 124.340019 
L 255.495619 126.108748 
L 255.740272 121.4409 
L 255.984925 119.858353 
L 256.229578 122.770771 
L 256.474231 130.098362 
L 256.718884 126.893372 
L 256.963537 131.720805 
L 257.20819 132.133065 
L 257.452843 135.457743 
L 257.697496 131.574519 
L 257.942149 140.630942 
L 258.186802 142.173593 
L 258.920761 135.324756 
L 259.165414 130.417531 
L 259.410067 130.922882 
L 259.65472 128.382828 
L 259.899373 129.925478 
L 260.144026 132.425636 
L 260.633332 130.058465 
L 260.877985 132.000077 
L 261.122638 124.752279 
L 261.367291 124.459707 
L 261.611944 123.71498 
L 261.856597 124.02085 
L 262.10125 131.747402 
L 262.345903 126.614099 
L 262.835209 122.026043 
L 263.079862 122.956953 
L 263.324515 116.294298 
L 263.569168 118.196014 
L 263.813821 121.374406 
L 264.058474 118.475287 
L 264.54778 115.85544 
L 264.792433 115.363388 
L 265.037086 105.854809 
L 265.281739 109.059798 
L 265.526392 107.663434 
L 265.771045 108.221979 
L 266.015698 114.365985 
L 266.260351 117.531078 
L 266.505004 115.177206 
L 266.749657 117.291701 
L 266.99431 113.182399 
L 267.238963 114.020218 
L 267.483616 116.094817 
L 267.728269 119.126924 
L 267.972922 119.818457 
L 268.217575 119.180119 
L 268.462228 117.424689 
L 268.706881 118.023131 
L 268.951534 113.967023 
L 269.196187 117.703962 
L 269.44084 124.43311 
L 269.685493 118.063027 
L 270.174799 127.465217 
L 270.419452 130.404232 
L 270.664106 128.542412 
L 270.908759 135.923198 
L 271.153412 136.135977 
L 271.642718 123.08994 
L 271.887371 127.877477 
L 272.132024 137.34616 
L 272.865983 127.42532 
L 273.110636 128.063659 
L 273.355289 129.194049 
L 273.599942 126.653995 
L 274.089248 131.04257 
L 274.823207 144.859932 
L 275.06786 151.80186 
L 275.312513 152.706173 
L 275.557166 150.325703 
L 275.801819 150.352301 
L 276.046472 159.289036 
L 276.291125 156.097345 
L 276.535778 163.784 
L 276.780431 162.174856 
L 277.269737 169.050291 
L 277.51439 162.121661 
L 277.759043 169.755122 
L 278.003696 165.326651 
L 278.248349 166.297457 
L 278.737655 155.871266 
L 278.982308 158.411321 
L 279.226961 168.983797 
L 279.471614 167.680523 
L 279.716267 162.613714 
L 279.96092 162.640311 
L 280.205573 172.241982 
L 280.694879 174.928321 
L 280.939532 183.625679 
L 281.184185 176.39118 
L 281.673491 169.994499 
L 281.918144 174.263386 
L 282.162797 175.35388 
L 282.40745 172.853722 
L 282.652103 178.013623 
L 282.896756 177.149206 
L 283.386062 170.91211 
L 283.630715 171.869618 
L 283.875368 165.060677 
L 284.120021 165.659119 
L 284.609327 162.148259 
L 284.85398 164.129767 
L 285.098633 169.116784 
L 285.343286 171.364267 
L 285.587939 169.888109 
L 285.832592 166.004885 
L 286.077245 166.603327 
L 286.566551 170.526448 
L 286.811204 167.374653 
L 287.055857 161.137557 
L 287.30051 162.879688 
L 287.545163 165.659119 
L 287.789816 165.818703 
L 288.034469 167.254964 
L 288.523775 164.555326 
L 288.768428 162.600415 
L 289.013081 161.962077 
L 289.257734 158.185242 
L 289.74704 164.129767 
L 289.991693 164.342546 
L 290.236346 170.699331 
L 290.480999 170.872214 
L 290.970305 165.512833 
L 291.214958 158.145346 
L 291.459611 156.735683 
L 291.704264 159.914075 
L 291.948917 159.249139 
L 292.438223 148.663364 
L 292.682876 150.870951 
L 292.92753 148.969235 
L 293.172183 151.176821 
L 293.661489 148.743157 
L 293.906142 152.240718 
L 294.150795 152.480095 
L 294.395448 149.727261 
L 294.884754 157.852775 
L 295.37406 159.475218 
L 295.618713 161.257245 
L 295.863366 156.057448 
L 296.597325 164.143066 
L 296.841978 164.089871 
L 297.086631 165.060677 
L 297.331284 158.025658 
L 297.575937 164.994183 
L 297.82059 165.246859 
L 298.065243 163.99678 
L 298.309896 161.150855 
L 298.554549 156.283527 
L 298.799202 158.983165 
L 299.043855 158.570905 
L 299.288508 158.637399 
L 299.533161 157.985762 
L 299.777814 158.903373 
L 300.022467 163.704208 
L 300.26712 161.855687 
L 300.511773 164.369144 
L 300.756426 165.073976 
L 301.001079 167.028886 
L 301.245732 171.390864 
L 301.490385 173.066502 
L 301.735038 176.311388 
L 301.979691 176.351284 
L 302.224344 175.726244 
L 302.468997 177.042817 
L 302.71365 174.236788 
L 302.958303 173.438866 
L 303.202956 173.718139 
L 303.447609 167.707121 
L 303.692262 182.06973 
L 303.936915 185.194928 
L 304.670874 173.132995 
L 304.915527 173.571853 
L 305.16018 178.625364 
L 305.649486 175.234192 
L 305.894139 170.739227 
L 306.138792 168.33216 
L 306.383445 162.041869 
L 306.628098 160.711998 
L 306.872751 154.567993 
L 307.117404 155.764877 
L 307.362057 153.517394 
L 307.60671 156.070747 
L 307.851363 155.591993 
L 308.096016 157.879372 
L 308.340669 157.400618 
L 308.585322 157.267631 
L 308.829975 156.403215 
L 309.074628 156.629293 
L 309.319281 157.241034 
L 309.563934 159.528412 
L 309.808587 160.366231 
L 310.05324 163.185558 
L 310.297893 160.153452 
L 310.542546 160.539115 
L 310.787199 155.166435 
L 311.276505 153.371108 
L 311.521158 155.033448 
L 311.765811 152.812563 
L 312.010464 153.623784 
L 312.255117 150.56508 
L 312.744423 150.405496 
L 312.989076 149.886846 
L 313.233729 149.660768 
L 313.478382 149.620872 
L 313.723035 149.860248 
L 313.967688 150.897548 
L 314.212341 150.099625 
L 314.456994 150.006534 
L 314.701647 148.80965 
L 314.9463 145.484972 
L 315.190953 145.365284 
L 315.435607 146.628661 
L 315.68026 145.737648 
L 315.924913 145.538167 
L 316.169566 145.086011 
L 316.414219 142.439567 
L 316.658872 146.548869 
L 316.903525 143.23749 
L 317.148178 148.636767 
L 317.392831 149.753859 
L 317.637484 147.200506 
L 317.882137 149.966638 
L 318.371443 149.341599 
L 318.616096 148.596871 
L 318.860749 147.280298 
L 319.350055 155.977656 
L 319.594708 154.102538 
L 319.839361 153.35781 
L 320.084014 159.34223 
L 320.328667 156.256929 
L 320.57332 156.522903 
L 320.817973 154.927058 
L 321.062626 149.43469 
L 321.307279 148.437286 
L 321.551932 144.873231 
L 321.796585 143.264087 
L 322.041238 145.923829 
L 322.285891 145.578063 
L 322.530544 148.078221 
L 322.775197 143.95562 
L 323.01985 145.977024 
L 323.264503 141.149592 
L 323.509156 138.649434 
L 323.753809 138.649434 
L 323.998462 138.436654 
L 324.487768 137.266368 
L 324.732421 135.244963 
L 324.977074 134.340651 
L 325.221727 135.151872 
L 325.46638 133.689014 
L 325.711033 133.928391 
L 325.955686 135.8966 
L 326.444992 136.774315 
L 326.689645 129.380231 
L 326.934298 128.795088 
L 327.423604 103.594028 
L 327.668257 99.511323 
L 327.91291 92.542797 
L 328.157563 89.869756 
L 328.402216 96.426021 
L 328.646869 91.944355 
L 329.136175 90.016042 
L 329.380828 89.976146 
L 329.625481 88.3803 
L 330.114787 90.986848 
L 330.35944 89.125028 
L 330.848746 69.336544 
L 331.093399 73.685223 
L 331.338052 66.783191 
L 331.582705 63.019656 
L 332.072011 49.627852 
L 332.316664 49.095904 
L 332.561317 55.319701 
L 333.050623 51.649256 
L 333.295276 47.566552 
L 333.539929 53.019024 
L 333.784582 52.792946 
L 334.029235 47.446863 
L 334.518541 51.396581 
L 335.007847 49.481566 
L 335.2525 50.691749 
L 335.497153 53.976531 
L 335.741806 52.287595 
L 336.231112 47.393668 
L 336.475765 49.800735 
L 336.720418 45.039796 
L 336.965071 47.712838 
L 337.209724 48.138396 
L 337.454377 43.896107 
L 337.69903 46.44946 
L 337.943684 45.837719 
L 338.188337 57.221417 
L 338.43299 59.14973 
L 338.677643 62.979759 
L 339.411602 59.960952 
L 339.900908 52.114711 
L 340.390214 59.66838 
L 340.634867 65.75919 
L 340.87952 63.963864 
L 341.124173 64.309631 
L 341.368826 50.292788 
L 341.613479 51.582763 
L 341.858132 52.061517 
L 342.102785 54.574973 
L 342.347438 49.494865 
L 342.592091 47.938916 
L 343.081397 38.975583 
L 343.32605 37.539322 
L 343.570703 39.002181 
L 343.815356 37.752102 
L 344.060009 35.91688 
L 344.304662 35.956776 
L 344.549315 36.674906 
L 344.793968 41.781612 
L 345.038621 39.148467 
L 345.283274 40.837403 
L 345.527927 34.653502 
L 345.77258 36.847789 
L 346.017233 34.414125 
L 346.751192 37.938284 
L 346.995845 38.018076 
L 347.240498 40.411844 
L 347.485151 40.704416 
L 347.729804 41.289559 
L 347.974457 42.539638 
L 348.21911 40.624624 
L 348.463763 46.316473 
L 348.708416 48.710241 
L 348.953069 60.865264 
L 349.197722 63.431916 
L 349.442375 62.328123 
L 349.931681 70.865896 
L 350.176334 65.745892 
L 350.420987 66.916178 
L 350.66564 63.232435 
L 350.910293 65.227242 
L 351.154946 66.237944 
L 351.399599 65.838983 
L 351.644252 67.966777 
L 351.888905 66.663503 
L 352.133558 67.674205 
L 352.378211 66.331035 
L 352.622864 67.860387 
L 353.11217 73.738418 
L 353.356823 69.828596 
L 353.601476 84.018323 
L 353.846129 86.01313 
L 354.090782 80.733541 
L 354.335435 82.329386 
L 354.580088 73.871405 
L 354.824741 69.336544 
L 355.314047 70.427039 
L 355.5587 73.10008 
L 355.803353 71.703715 
L 356.048006 71.34465 
L 356.292659 69.762103 
L 356.781965 69.017375 
L 357.271271 73.153275 
L 357.515924 71.663819 
L 357.760577 71.823403 
L 358.00523 74.403354 
L 358.249883 71.34465 
L 358.494536 70.706311 
L 358.739189 86.505182 
L 358.983842 84.590167 
L 359.228495 84.284297 
L 359.473148 83.446478 
L 359.962454 73.060184 
L 360.207107 74.868808 
L 360.451761 73.459145 
L 360.941067 89.776665 
L 361.18572 84.789648 
L 361.430373 87.050429 
L 361.919679 85.427986 
L 362.164332 83.765647 
L 362.653638 74.908705 
L 362.898291 75.613536 
L 363.387597 69.496129 
L 363.63225 73.858106 
L 363.876903 75.746524 
L 364.121556 70.00148 
L 364.366209 71.371247 
L 365.100168 81.890529 
L 365.344821 77.568447 
L 365.589474 77.781227 
L 365.834127 73.871405 
L 366.07878 72.288858 
L 366.323433 75.626835 
L 366.568086 68.472128 
L 366.812739 67.461426 
L 367.302045 71.13187 
L 367.546698 70.387142 
L 367.791351 68.910985 
L 368.036004 68.325842 
L 368.280657 64.322929 
L 368.52531 66.716698 
L 368.769963 65.838983 
L 369.014616 73.751717 
L 369.503922 75.094887 
L 369.993228 80.573956 
L 370.237881 76.052394 
L 370.482534 75.16138 
L 370.727187 76.185381 
L 371.461146 68.844492 
L 371.705799 69.815298 
L 371.950452 72.847404 
L 372.195105 65.134151 
L 372.439758 60.971654 
L 372.929064 63.511708 
L 373.173717 70.839299 
L 373.41837 72.634625 
L 373.663023 68.365738 
L 373.907676 68.059868 
L 374.152329 70.693013 
L 374.396982 76.265173 
L 374.641635 75.294367 
L 374.886288 77.102992 
L 375.130941 73.392651 
L 375.375594 74.509743 
L 375.620247 74.177275 
L 375.8649 74.868808 
L 376.109553 77.688136 
L 376.354206 78.206785 
L 376.598859 74.935302 
L 376.843512 73.179872 
L 377.088165 70.333948 
L 377.332818 81.105905 
L 377.577471 79.70954 
L 377.822124 83.685855 
L 378.066777 81.863931 
L 378.556083 70.240857 
L 378.800736 69.429635 
L 379.045389 69.043972 
L 379.290042 71.211663 
L 379.779348 66.304438 
L 380.024001 65.134151 
L 380.268654 63.139344 
L 380.513307 63.485111 
L 380.75796 64.509111 
L 381.002613 64.93467 
L 381.247266 58.524691 
L 381.491919 57.580482 
L 381.736572 55.293104 
L 381.981225 50.691749 
L 382.225878 49.401774 
L 382.470531 51.143905 
L 382.715184 43.497146 
L 382.959838 43.550341 
L 383.204491 47.832526 
L 383.693797 48.364474 
L 383.93845 51.82214 
L 384.183103 53.511076 
L 384.427756 48.351176 
L 384.672409 56.755962 
L 384.917062 48.856527 
L 385.161715 51.569464 
L 385.406368 45.265874 
L 385.651021 48.72354 
L 385.895674 45.119589 
L 386.140327 49.282086 
L 386.629633 49.282086 
L 386.874286 50.37258 
L 387.363592 45.890914 
L 387.608245 42.406651 
L 387.852898 45.704732 
L 387.852898 45.704732 
" style="fill:none;stroke:#ff7f0e;stroke-linecap:square;stroke-width:1.5;"/>
   </g>
   <g id="patch_3">
    <path d="M 46.965625 288.430125 
L 46.965625 22.318125 
" style="fill:none;stroke:#000000;stroke-linecap:square;stroke-linejoin:miter;stroke-width:0.8;"/>
   </g>
   <g id="patch_4">
    <path d="M 404.085625 288.430125 
L 404.085625 22.318125 
" style="fill:none;stroke:#000000;stroke-linecap:square;stroke-linejoin:miter;stroke-width:0.8;"/>
   </g>
   <g id="patch_5">
    <path d="M 46.965625 288.430125 
L 404.085625 288.430125 
" style="fill:none;stroke:#000000;stroke-linecap:square;stroke-linejoin:miter;stroke-width:0.8;"/>
   </g>
   <g id="patch_6">
    <path d="M 46.965625 22.318125 
L 404.085625 22.318125 
" style="fill:none;stroke:#000000;stroke-linecap:square;stroke-linejoin:miter;stroke-width:0.8;"/>
   </g>
   <g id="text_18">
    <!-- Training: GS -->
    <defs>
     <path d="M -0.296875 72.90625 
L 61.375 72.90625 
L 61.375 64.59375 
L 35.5 64.59375 
L 35.5 0 
L 25.59375 0 
L 25.59375 64.59375 
L -0.296875 64.59375 
z
" id="DejaVuSans-84"/>
     <path d="M 54.890625 33.015625 
L 54.890625 0 
L 45.90625 0 
L 45.90625 32.71875 
Q 45.90625 40.484375 42.875 44.328125 
Q 39.84375 48.1875 33.796875 48.1875 
Q 26.515625 48.1875 22.3125 43.546875 
Q 18.109375 38.921875 18.109375 30.90625 
L 18.109375 0 
L 9.078125 0 
L 9.078125 54.6875 
L 18.109375 54.6875 
L 18.109375 46.1875 
Q 21.34375 51.125 25.703125 53.5625 
Q 30.078125 56 35.796875 56 
Q 45.21875 56 50.046875 50.171875 
Q 54.890625 44.34375 54.890625 33.015625 
z
" id="DejaVuSans-110"/>
     <path d="M 45.40625 27.984375 
Q 45.40625 37.75 41.375 43.109375 
Q 37.359375 48.484375 30.078125 48.484375 
Q 22.859375 48.484375 18.828125 43.109375 
Q 14.796875 37.75 14.796875 27.984375 
Q 14.796875 18.265625 18.828125 12.890625 
Q 22.859375 7.515625 30.078125 7.515625 
Q 37.359375 7.515625 41.375 12.890625 
Q 45.40625 18.265625 45.40625 27.984375 
z
M 54.390625 6.78125 
Q 54.390625 -7.171875 48.1875 -13.984375 
Q 42 -20.796875 29.203125 -20.796875 
Q 24.46875 -20.796875 20.265625 -20.09375 
Q 16.0625 -19.390625 12.109375 -17.921875 
L 12.109375 -9.1875 
Q 16.0625 -11.328125 19.921875 -12.34375 
Q 23.78125 -13.375 27.78125 -13.375 
Q 36.625 -13.375 41.015625 -8.765625 
Q 45.40625 -4.15625 45.40625 5.171875 
L 45.40625 9.625 
Q 42.625 4.78125 38.28125 2.390625 
Q 33.9375 0 27.875 0 
Q 17.828125 0 11.671875 7.65625 
Q 5.515625 15.328125 5.515625 27.984375 
Q 5.515625 40.671875 11.671875 48.328125 
Q 17.828125 56 27.875 56 
Q 33.9375 56 38.28125 53.609375 
Q 42.625 51.21875 45.40625 46.390625 
L 45.40625 54.6875 
L 54.390625 54.6875 
z
" id="DejaVuSans-103"/>
     <path d="M 11.71875 12.40625 
L 22.015625 12.40625 
L 22.015625 0 
L 11.71875 0 
z
M 11.71875 51.703125 
L 22.015625 51.703125 
L 22.015625 39.3125 
L 11.71875 39.3125 
z
" id="DejaVuSans-58"/>
     <path d="M 59.515625 10.40625 
L 59.515625 29.984375 
L 43.40625 29.984375 
L 43.40625 38.09375 
L 69.28125 38.09375 
L 69.28125 6.78125 
Q 63.578125 2.734375 56.6875 0.65625 
Q 49.8125 -1.421875 42 -1.421875 
Q 24.90625 -1.421875 15.25 8.5625 
Q 5.609375 18.5625 5.609375 36.375 
Q 5.609375 54.25 15.25 64.234375 
Q 24.90625 74.21875 42 74.21875 
Q 49.125 74.21875 55.546875 72.453125 
Q 61.96875 70.703125 67.390625 67.28125 
L 67.390625 56.78125 
Q 61.921875 61.421875 55.765625 63.765625 
Q 49.609375 66.109375 42.828125 66.109375 
Q 29.4375 66.109375 22.71875 58.640625 
Q 16.015625 51.171875 16.015625 36.375 
Q 16.015625 21.625 22.71875 14.15625 
Q 29.4375 6.6875 42.828125 6.6875 
Q 48.046875 6.6875 52.140625 7.59375 
Q 56.25 8.5 59.515625 10.40625 
z
" id="DejaVuSans-71"/>
     <path d="M 53.515625 70.515625 
L 53.515625 60.890625 
Q 47.90625 63.578125 42.921875 64.890625 
Q 37.9375 66.21875 33.296875 66.21875 
Q 25.25 66.21875 20.875 63.09375 
Q 16.5 59.96875 16.5 54.203125 
Q 16.5 49.359375 19.40625 46.890625 
Q 22.3125 44.4375 30.421875 42.921875 
L 36.375 41.703125 
Q 47.40625 39.59375 52.65625 34.296875 
Q 57.90625 29 57.90625 20.125 
Q 57.90625 9.515625 50.796875 4.046875 
Q 43.703125 -1.421875 29.984375 -1.421875 
Q 24.8125 -1.421875 18.96875 -0.25 
Q 13.140625 0.921875 6.890625 3.21875 
L 6.890625 13.375 
Q 12.890625 10.015625 18.65625 8.296875 
Q 24.421875 6.59375 29.984375 6.59375 
Q 38.421875 6.59375 43.015625 9.90625 
Q 47.609375 13.234375 47.609375 19.390625 
Q 47.609375 24.75 44.3125 27.78125 
Q 41.015625 30.8125 33.5 32.328125 
L 27.484375 33.5 
Q 16.453125 35.6875 11.515625 40.375 
Q 6.59375 45.0625 6.59375 53.421875 
Q 6.59375 63.09375 13.40625 68.65625 
Q 20.21875 74.21875 32.171875 74.21875 
Q 37.3125 74.21875 42.625 73.28125 
Q 47.953125 72.359375 53.515625 70.515625 
z
" id="DejaVuSans-83"/>
    </defs>
    <g transform="translate(189.468438 16.318125)scale(0.12 -0.12)">
     <use xlink:href="#DejaVuSans-84"/>
     <use x="46.333984" xlink:href="#DejaVuSans-114"/>
     <use x="87.447266" xlink:href="#DejaVuSans-97"/>
     <use x="148.726562" xlink:href="#DejaVuSans-105"/>
     <use x="176.509766" xlink:href="#DejaVuSans-110"/>
     <use x="239.888672" xlink:href="#DejaVuSans-105"/>
     <use x="267.671875" xlink:href="#DejaVuSans-110"/>
     <use x="331.050781" xlink:href="#DejaVuSans-103"/>
     <use x="394.527344" xlink:href="#DejaVuSans-58"/>
     <use x="428.21875" xlink:href="#DejaVuSans-32"/>
     <use x="460.005859" xlink:href="#DejaVuSans-71"/>
     <use x="537.496094" xlink:href="#DejaVuSans-83"/>
    </g>
   </g>
   <g id="legend_1">
    <g id="patch_7">
     <path d="M 53.965625 59.674375 
L 137.69375 59.674375 
Q 139.69375 59.674375 139.69375 57.674375 
L 139.69375 29.318125 
Q 139.69375 27.318125 137.69375 27.318125 
L 53.965625 27.318125 
Q 51.965625 27.318125 51.965625 29.318125 
L 51.965625 57.674375 
Q 51.965625 59.674375 53.965625 59.674375 
z
" style="fill:#ffffff;opacity:0.8;stroke:#cccccc;stroke-linejoin:miter;"/>
    </g>
    <g id="line2d_33">
     <path d="M 55.965625 35.416562 
L 75.965625 35.416562 
" style="fill:none;stroke:#1f77b4;stroke-linecap:square;stroke-width:1.5;"/>
    </g>
    <g id="line2d_34"/>
    <g id="text_19">
     <!-- Predicted -->
     <defs>
      <path d="M 45.40625 46.390625 
L 45.40625 75.984375 
L 54.390625 75.984375 
L 54.390625 0 
L 45.40625 0 
L 45.40625 8.203125 
Q 42.578125 3.328125 38.25 0.953125 
Q 33.9375 -1.421875 27.875 -1.421875 
Q 17.96875 -1.421875 11.734375 6.484375 
Q 5.515625 14.40625 5.515625 27.296875 
Q 5.515625 40.1875 11.734375 48.09375 
Q 17.96875 56 27.875 56 
Q 33.9375 56 38.25 53.625 
Q 42.578125 51.265625 45.40625 46.390625 
z
M 14.796875 27.296875 
Q 14.796875 17.390625 18.875 11.75 
Q 22.953125 6.109375 30.078125 6.109375 
Q 37.203125 6.109375 41.296875 11.75 
Q 45.40625 17.390625 45.40625 27.296875 
Q 45.40625 37.203125 41.296875 42.84375 
Q 37.203125 48.484375 30.078125 48.484375 
Q 22.953125 48.484375 18.875 42.84375 
Q 14.796875 37.203125 14.796875 27.296875 
z
" id="DejaVuSans-100"/>
      <path d="M 18.3125 70.21875 
L 18.3125 54.6875 
L 36.8125 54.6875 
L 36.8125 47.703125 
L 18.3125 47.703125 
L 18.3125 18.015625 
Q 18.3125 11.328125 20.140625 9.421875 
Q 21.96875 7.515625 27.59375 7.515625 
L 36.8125 7.515625 
L 36.8125 0 
L 27.59375 0 
Q 17.1875 0 13.234375 3.875 
Q 9.28125 7.765625 9.28125 18.015625 
L 9.28125 47.703125 
L 2.6875 47.703125 
L 2.6875 54.6875 
L 9.28125 54.6875 
L 9.28125 70.21875 
z
" id="DejaVuSans-116"/>
     </defs>
     <g transform="translate(83.965625 38.916562)scale(0.1 -0.1)">
      <use xlink:href="#DejaVuSans-80"/>
      <use x="58.552734" xlink:href="#DejaVuSans-114"/>
      <use x="97.416016" xlink:href="#DejaVuSans-101"/>
      <use x="158.939453" xlink:href="#DejaVuSans-100"/>
      <use x="222.416016" xlink:href="#DejaVuSans-105"/>
      <use x="250.199219" xlink:href="#DejaVuSans-99"/>
      <use x="305.179688" xlink:href="#DejaVuSans-116"/>
      <use x="344.388672" xlink:href="#DejaVuSans-101"/>
      <use x="405.912109" xlink:href="#DejaVuSans-100"/>
     </g>
    </g>
    <g id="line2d_35">
     <path d="M 55.965625 50.094687 
L 75.965625 50.094687 
" style="fill:none;stroke:#ff7f0e;stroke-linecap:square;stroke-width:1.5;"/>
    </g>
    <g id="line2d_36"/>
    <g id="text_20">
     <!-- True value -->
     <defs>
      <path d="M 8.5 21.578125 
L 8.5 54.6875 
L 17.484375 54.6875 
L 17.484375 21.921875 
Q 17.484375 14.15625 20.5 10.265625 
Q 23.53125 6.390625 29.59375 6.390625 
Q 36.859375 6.390625 41.078125 11.03125 
Q 45.3125 15.671875 45.3125 23.6875 
L 45.3125 54.6875 
L 54.296875 54.6875 
L 54.296875 0 
L 45.3125 0 
L 45.3125 8.40625 
Q 42.046875 3.421875 37.71875 1 
Q 33.40625 -1.421875 27.6875 -1.421875 
Q 18.265625 -1.421875 13.375 4.4375 
Q 8.5 10.296875 8.5 21.578125 
z
M 31.109375 56 
z
" id="DejaVuSans-117"/>
      <path d="M 2.984375 54.6875 
L 12.5 54.6875 
L 29.59375 8.796875 
L 46.6875 54.6875 
L 56.203125 54.6875 
L 35.6875 0 
L 23.484375 0 
z
" id="DejaVuSans-118"/>
      <path d="M 9.421875 75.984375 
L 18.40625 75.984375 
L 18.40625 0 
L 9.421875 0 
z
" id="DejaVuSans-108"/>
     </defs>
     <g transform="translate(83.965625 53.594687)scale(0.1 -0.1)">
      <use xlink:href="#DejaVuSans-84"/>
      <use x="46.333984" xlink:href="#DejaVuSans-114"/>
      <use x="87.447266" xlink:href="#DejaVuSans-117"/>
      <use x="150.826172" xlink:href="#DejaVuSans-101"/>
      <use x="212.349609" xlink:href="#DejaVuSans-32"/>
      <use x="244.136719" xlink:href="#DejaVuSans-118"/>
      <use x="303.316406" xlink:href="#DejaVuSans-97"/>
      <use x="364.595703" xlink:href="#DejaVuSans-108"/>
      <use x="392.378906" xlink:href="#DejaVuSans-117"/>
      <use x="455.757812" xlink:href="#DejaVuSans-101"/>
     </g>
    </g>
   </g>
  </g>
 </g>
 <defs>
  <clipPath id="p61336bce97">
   <rect height="266.112" width="357.12" x="46.965625" y="22.318125"/>
  </clipPath>
 </defs>
</svg>
