<?xml version="1.0" encoding="utf-8" standalone="no"?>
<!DOCTYPE svg PUBLIC "-//W3C//DTD SVG 1.1//EN"
  "http://www.w3.org/Graphics/SVG/1.1/DTD/svg11.dtd">
<!-- Created with matplotlib (https://matplotlib.org/) -->
<svg height="325.986375pt" version="1.1" viewBox="0 0 404.923125 325.986375" width="404.923125pt" xmlns="http://www.w3.org/2000/svg" xmlns:xlink="http://www.w3.org/1999/xlink">
 <defs>
  <style type="text/css">
*{stroke-linecap:butt;stroke-linejoin:round;}
  </style>
 </defs>
 <g id="figure_1">
  <g id="patch_1">
   <path d="M 0 325.986375 
L 404.923125 325.986375 
L 404.923125 0 
L 0 0 
z
" style="fill:#ffffff;"/>
  </g>
  <g id="axes_1">
   <g id="patch_2">
    <path d="M 40.603125 288.430125 
L 397.723125 288.430125 
L 397.723125 22.318125 
L 40.603125 22.318125 
z
" style="fill:#ffffff;"/>
   </g>
   <g id="matplotlib.axis_1">
    <g id="xtick_1">
     <g id="line2d_1">
      <path clip-path="url(#p48635c22f4)" d="M 56.835852 288.430125 
L 56.835852 22.318125 
" style="fill:none;stroke:#b0b0b0;stroke-dasharray:2.96,1.28;stroke-dashoffset:0;stroke-width:0.8;"/>
     </g>
     <g id="line2d_2">
      <defs>
       <path d="M 0 0 
L 0 3.5 
" id="mc4a38c6a38" style="stroke:#000000;stroke-width:0.8;"/>
      </defs>
      <g>
       <use style="stroke:#000000;stroke-width:0.8;" x="56.835852" xlink:href="#mc4a38c6a38" y="288.430125"/>
      </g>
     </g>
     <g id="text_1">
      <!-- 0 -->
      <defs>
       <path d="M 31.78125 66.40625 
Q 24.171875 66.40625 20.328125 58.90625 
Q 16.5 51.421875 16.5 36.375 
Q 16.5 21.390625 20.328125 13.890625 
Q 24.171875 6.390625 31.78125 6.390625 
Q 39.453125 6.390625 43.28125 13.890625 
Q 47.125 21.390625 47.125 36.375 
Q 47.125 51.421875 43.28125 58.90625 
Q 39.453125 66.40625 31.78125 66.40625 
z
M 31.78125 74.21875 
Q 44.046875 74.21875 50.515625 64.515625 
Q 56.984375 54.828125 56.984375 36.375 
Q 56.984375 17.96875 50.515625 8.265625 
Q 44.046875 -1.421875 31.78125 -1.421875 
Q 19.53125 -1.421875 13.0625 8.265625 
Q 6.59375 17.96875 6.59375 36.375 
Q 6.59375 54.828125 13.0625 64.515625 
Q 19.53125 74.21875 31.78125 74.21875 
z
" id="DejaVuSans-48"/>
      </defs>
      <g transform="translate(53.654602 303.028562)scale(0.1 -0.1)">
       <use xlink:href="#DejaVuSans-48"/>
      </g>
     </g>
    </g>
    <g id="xtick_2">
     <g id="line2d_3">
      <path clip-path="url(#p48635c22f4)" d="M 105.766454 288.430125 
L 105.766454 22.318125 
" style="fill:none;stroke:#b0b0b0;stroke-dasharray:2.96,1.28;stroke-dashoffset:0;stroke-width:0.8;"/>
     </g>
     <g id="line2d_4">
      <g>
       <use style="stroke:#000000;stroke-width:0.8;" x="105.766454" xlink:href="#mc4a38c6a38" y="288.430125"/>
      </g>
     </g>
     <g id="text_2">
      <!-- 200 -->
      <defs>
       <path d="M 19.1875 8.296875 
L 53.609375 8.296875 
L 53.609375 0 
L 7.328125 0 
L 7.328125 8.296875 
Q 12.9375 14.109375 22.625 23.890625 
Q 32.328125 33.6875 34.8125 36.53125 
Q 39.546875 41.84375 41.421875 45.53125 
Q 43.3125 49.21875 43.3125 52.78125 
Q 43.3125 58.59375 39.234375 62.25 
Q 35.15625 65.921875 28.609375 65.921875 
Q 23.96875 65.921875 18.8125 64.3125 
Q 13.671875 62.703125 7.8125 59.421875 
L 7.8125 69.390625 
Q 13.765625 71.78125 18.9375 73 
Q 24.125 74.21875 28.421875 74.21875 
Q 39.75 74.21875 46.484375 68.546875 
Q 53.21875 62.890625 53.21875 53.421875 
Q 53.21875 48.921875 51.53125 44.890625 
Q 49.859375 40.875 45.40625 35.40625 
Q 44.1875 33.984375 37.640625 27.21875 
Q 31.109375 20.453125 19.1875 8.296875 
z
" id="DejaVuSans-50"/>
      </defs>
      <g transform="translate(96.222704 303.028562)scale(0.1 -0.1)">
       <use xlink:href="#DejaVuSans-50"/>
       <use x="63.623047" xlink:href="#DejaVuSans-48"/>
       <use x="127.246094" xlink:href="#DejaVuSans-48"/>
      </g>
     </g>
    </g>
    <g id="xtick_3">
     <g id="line2d_5">
      <path clip-path="url(#p48635c22f4)" d="M 154.697057 288.430125 
L 154.697057 22.318125 
" style="fill:none;stroke:#b0b0b0;stroke-dasharray:2.96,1.28;stroke-dashoffset:0;stroke-width:0.8;"/>
     </g>
     <g id="line2d_6">
      <g>
       <use style="stroke:#000000;stroke-width:0.8;" x="154.697057" xlink:href="#mc4a38c6a38" y="288.430125"/>
      </g>
     </g>
     <g id="text_3">
      <!-- 400 -->
      <defs>
       <path d="M 37.796875 64.3125 
L 12.890625 25.390625 
L 37.796875 25.390625 
z
M 35.203125 72.90625 
L 47.609375 72.90625 
L 47.609375 25.390625 
L 58.015625 25.390625 
L 58.015625 17.1875 
L 47.609375 17.1875 
L 47.609375 0 
L 37.796875 0 
L 37.796875 17.1875 
L 4.890625 17.1875 
L 4.890625 26.703125 
z
" id="DejaVuSans-52"/>
      </defs>
      <g transform="translate(145.153307 303.028562)scale(0.1 -0.1)">
       <use xlink:href="#DejaVuSans-52"/>
       <use x="63.623047" xlink:href="#DejaVuSans-48"/>
       <use x="127.246094" xlink:href="#DejaVuSans-48"/>
      </g>
     </g>
    </g>
    <g id="xtick_4">
     <g id="line2d_7">
      <path clip-path="url(#p48635c22f4)" d="M 203.627659 288.430125 
L 203.627659 22.318125 
" style="fill:none;stroke:#b0b0b0;stroke-dasharray:2.96,1.28;stroke-dashoffset:0;stroke-width:0.8;"/>
     </g>
     <g id="line2d_8">
      <g>
       <use style="stroke:#000000;stroke-width:0.8;" x="203.627659" xlink:href="#mc4a38c6a38" y="288.430125"/>
      </g>
     </g>
     <g id="text_4">
      <!-- 600 -->
      <defs>
       <path d="M 33.015625 40.375 
Q 26.375 40.375 22.484375 35.828125 
Q 18.609375 31.296875 18.609375 23.390625 
Q 18.609375 15.53125 22.484375 10.953125 
Q 26.375 6.390625 33.015625 6.390625 
Q 39.65625 6.390625 43.53125 10.953125 
Q 47.40625 15.53125 47.40625 23.390625 
Q 47.40625 31.296875 43.53125 35.828125 
Q 39.65625 40.375 33.015625 40.375 
z
M 52.59375 71.296875 
L 52.59375 62.3125 
Q 48.875 64.0625 45.09375 64.984375 
Q 41.3125 65.921875 37.59375 65.921875 
Q 27.828125 65.921875 22.671875 59.328125 
Q 17.53125 52.734375 16.796875 39.40625 
Q 19.671875 43.65625 24.015625 45.921875 
Q 28.375 48.1875 33.59375 48.1875 
Q 44.578125 48.1875 50.953125 41.515625 
Q 57.328125 34.859375 57.328125 23.390625 
Q 57.328125 12.15625 50.6875 5.359375 
Q 44.046875 -1.421875 33.015625 -1.421875 
Q 20.359375 -1.421875 13.671875 8.265625 
Q 6.984375 17.96875 6.984375 36.375 
Q 6.984375 53.65625 15.1875 63.9375 
Q 23.390625 74.21875 37.203125 74.21875 
Q 40.921875 74.21875 44.703125 73.484375 
Q 48.484375 72.75 52.59375 71.296875 
z
" id="DejaVuSans-54"/>
      </defs>
      <g transform="translate(194.083909 303.028562)scale(0.1 -0.1)">
       <use xlink:href="#DejaVuSans-54"/>
       <use x="63.623047" xlink:href="#DejaVuSans-48"/>
       <use x="127.246094" xlink:href="#DejaVuSans-48"/>
      </g>
     </g>
    </g>
    <g id="xtick_5">
     <g id="line2d_9">
      <path clip-path="url(#p48635c22f4)" d="M 252.558261 288.430125 
L 252.558261 22.318125 
" style="fill:none;stroke:#b0b0b0;stroke-dasharray:2.96,1.28;stroke-dashoffset:0;stroke-width:0.8;"/>
     </g>
     <g id="line2d_10">
      <g>
       <use style="stroke:#000000;stroke-width:0.8;" x="252.558261" xlink:href="#mc4a38c6a38" y="288.430125"/>
      </g>
     </g>
     <g id="text_5">
      <!-- 800 -->
      <defs>
       <path d="M 31.78125 34.625 
Q 24.75 34.625 20.71875 30.859375 
Q 16.703125 27.09375 16.703125 20.515625 
Q 16.703125 13.921875 20.71875 10.15625 
Q 24.75 6.390625 31.78125 6.390625 
Q 38.8125 6.390625 42.859375 10.171875 
Q 46.921875 13.96875 46.921875 20.515625 
Q 46.921875 27.09375 42.890625 30.859375 
Q 38.875 34.625 31.78125 34.625 
z
M 21.921875 38.8125 
Q 15.578125 40.375 12.03125 44.71875 
Q 8.5 49.078125 8.5 55.328125 
Q 8.5 64.0625 14.71875 69.140625 
Q 20.953125 74.21875 31.78125 74.21875 
Q 42.671875 74.21875 48.875 69.140625 
Q 55.078125 64.0625 55.078125 55.328125 
Q 55.078125 49.078125 51.53125 44.71875 
Q 48 40.375 41.703125 38.8125 
Q 48.828125 37.15625 52.796875 32.3125 
Q 56.78125 27.484375 56.78125 20.515625 
Q 56.78125 9.90625 50.3125 4.234375 
Q 43.84375 -1.421875 31.78125 -1.421875 
Q 19.734375 -1.421875 13.25 4.234375 
Q 6.78125 9.90625 6.78125 20.515625 
Q 6.78125 27.484375 10.78125 32.3125 
Q 14.796875 37.15625 21.921875 38.8125 
z
M 18.3125 54.390625 
Q 18.3125 48.734375 21.84375 45.5625 
Q 25.390625 42.390625 31.78125 42.390625 
Q 38.140625 42.390625 41.71875 45.5625 
Q 45.3125 48.734375 45.3125 54.390625 
Q 45.3125 60.0625 41.71875 63.234375 
Q 38.140625 66.40625 31.78125 66.40625 
Q 25.390625 66.40625 21.84375 63.234375 
Q 18.3125 60.0625 18.3125 54.390625 
z
" id="DejaVuSans-56"/>
      </defs>
      <g transform="translate(243.014511 303.028562)scale(0.1 -0.1)">
       <use xlink:href="#DejaVuSans-56"/>
       <use x="63.623047" xlink:href="#DejaVuSans-48"/>
       <use x="127.246094" xlink:href="#DejaVuSans-48"/>
      </g>
     </g>
    </g>
    <g id="xtick_6">
     <g id="line2d_11">
      <path clip-path="url(#p48635c22f4)" d="M 301.488863 288.430125 
L 301.488863 22.318125 
" style="fill:none;stroke:#b0b0b0;stroke-dasharray:2.96,1.28;stroke-dashoffset:0;stroke-width:0.8;"/>
     </g>
     <g id="line2d_12">
      <g>
       <use style="stroke:#000000;stroke-width:0.8;" x="301.488863" xlink:href="#mc4a38c6a38" y="288.430125"/>
      </g>
     </g>
     <g id="text_6">
      <!-- 1000 -->
      <defs>
       <path d="M 12.40625 8.296875 
L 28.515625 8.296875 
L 28.515625 63.921875 
L 10.984375 60.40625 
L 10.984375 69.390625 
L 28.421875 72.90625 
L 38.28125 72.90625 
L 38.28125 8.296875 
L 54.390625 8.296875 
L 54.390625 0 
L 12.40625 0 
z
" id="DejaVuSans-49"/>
      </defs>
      <g transform="translate(288.763863 303.028562)scale(0.1 -0.1)">
       <use xlink:href="#DejaVuSans-49"/>
       <use x="63.623047" xlink:href="#DejaVuSans-48"/>
       <use x="127.246094" xlink:href="#DejaVuSans-48"/>
       <use x="190.869141" xlink:href="#DejaVuSans-48"/>
      </g>
     </g>
    </g>
    <g id="xtick_7">
     <g id="line2d_13">
      <path clip-path="url(#p48635c22f4)" d="M 350.419465 288.430125 
L 350.419465 22.318125 
" style="fill:none;stroke:#b0b0b0;stroke-dasharray:2.96,1.28;stroke-dashoffset:0;stroke-width:0.8;"/>
     </g>
     <g id="line2d_14">
      <g>
       <use style="stroke:#000000;stroke-width:0.8;" x="350.419465" xlink:href="#mc4a38c6a38" y="288.430125"/>
      </g>
     </g>
     <g id="text_7">
      <!-- 1200 -->
      <g transform="translate(337.694465 303.028562)scale(0.1 -0.1)">
       <use xlink:href="#DejaVuSans-49"/>
       <use x="63.623047" xlink:href="#DejaVuSans-50"/>
       <use x="127.246094" xlink:href="#DejaVuSans-48"/>
       <use x="190.869141" xlink:href="#DejaVuSans-48"/>
      </g>
     </g>
    </g>
    <g id="text_8">
     <!-- Day -->
     <defs>
      <path d="M 19.671875 64.796875 
L 19.671875 8.109375 
L 31.59375 8.109375 
Q 46.6875 8.109375 53.6875 14.9375 
Q 60.6875 21.78125 60.6875 36.53125 
Q 60.6875 51.171875 53.6875 57.984375 
Q 46.6875 64.796875 31.59375 64.796875 
z
M 9.8125 72.90625 
L 30.078125 72.90625 
Q 51.265625 72.90625 61.171875 64.09375 
Q 71.09375 55.28125 71.09375 36.53125 
Q 71.09375 17.671875 61.125 8.828125 
Q 51.171875 0 30.078125 0 
L 9.8125 0 
z
" id="DejaVuSans-68"/>
      <path d="M 34.28125 27.484375 
Q 23.390625 27.484375 19.1875 25 
Q 14.984375 22.515625 14.984375 16.5 
Q 14.984375 11.71875 18.140625 8.90625 
Q 21.296875 6.109375 26.703125 6.109375 
Q 34.1875 6.109375 38.703125 11.40625 
Q 43.21875 16.703125 43.21875 25.484375 
L 43.21875 27.484375 
z
M 52.203125 31.203125 
L 52.203125 0 
L 43.21875 0 
L 43.21875 8.296875 
Q 40.140625 3.328125 35.546875 0.953125 
Q 30.953125 -1.421875 24.3125 -1.421875 
Q 15.921875 -1.421875 10.953125 3.296875 
Q 6 8.015625 6 15.921875 
Q 6 25.140625 12.171875 29.828125 
Q 18.359375 34.515625 30.609375 34.515625 
L 43.21875 34.515625 
L 43.21875 35.40625 
Q 43.21875 41.609375 39.140625 45 
Q 35.0625 48.390625 27.6875 48.390625 
Q 23 48.390625 18.546875 47.265625 
Q 14.109375 46.140625 10.015625 43.890625 
L 10.015625 52.203125 
Q 14.9375 54.109375 19.578125 55.046875 
Q 24.21875 56 28.609375 56 
Q 40.484375 56 46.34375 49.84375 
Q 52.203125 43.703125 52.203125 31.203125 
z
" id="DejaVuSans-97"/>
      <path d="M 32.171875 -5.078125 
Q 28.375 -14.84375 24.75 -17.8125 
Q 21.140625 -20.796875 15.09375 -20.796875 
L 7.90625 -20.796875 
L 7.90625 -13.28125 
L 13.1875 -13.28125 
Q 16.890625 -13.28125 18.9375 -11.515625 
Q 21 -9.765625 23.484375 -3.21875 
L 25.09375 0.875 
L 2.984375 54.6875 
L 12.5 54.6875 
L 29.59375 11.921875 
L 46.6875 54.6875 
L 56.203125 54.6875 
z
" id="DejaVuSans-121"/>
     </defs>
     <g transform="translate(209.289688 316.706687)scale(0.1 -0.1)">
      <use xlink:href="#DejaVuSans-68"/>
      <use x="77.001953" xlink:href="#DejaVuSans-97"/>
      <use x="138.28125" xlink:href="#DejaVuSans-121"/>
     </g>
    </g>
   </g>
   <g id="matplotlib.axis_2">
    <g id="ytick_1">
     <g id="line2d_15">
      <path clip-path="url(#p48635c22f4)" d="M 40.603125 277.539342 
L 397.723125 277.539342 
" style="fill:none;stroke:#b0b0b0;stroke-dasharray:2.96,1.28;stroke-dashoffset:0;stroke-width:0.8;"/>
     </g>
     <g id="line2d_16">
      <defs>
       <path d="M 0 0 
L -3.5 0 
" id="m5e66af1498" style="stroke:#000000;stroke-width:0.8;"/>
      </defs>
      <g>
       <use style="stroke:#000000;stroke-width:0.8;" x="40.603125" xlink:href="#m5e66af1498" y="277.539342"/>
      </g>
     </g>
     <g id="text_9">
      <!-- 25 -->
      <defs>
       <path d="M 10.796875 72.90625 
L 49.515625 72.90625 
L 49.515625 64.59375 
L 19.828125 64.59375 
L 19.828125 46.734375 
Q 21.96875 47.46875 24.109375 47.828125 
Q 26.265625 48.1875 28.421875 48.1875 
Q 40.625 48.1875 47.75 41.5 
Q 54.890625 34.8125 54.890625 23.390625 
Q 54.890625 11.625 47.5625 5.09375 
Q 40.234375 -1.421875 26.90625 -1.421875 
Q 22.3125 -1.421875 17.546875 -0.640625 
Q 12.796875 0.140625 7.71875 1.703125 
L 7.71875 11.625 
Q 12.109375 9.234375 16.796875 8.0625 
Q 21.484375 6.890625 26.703125 6.890625 
Q 35.15625 6.890625 40.078125 11.328125 
Q 45.015625 15.765625 45.015625 23.390625 
Q 45.015625 31 40.078125 35.4375 
Q 35.15625 39.890625 26.703125 39.890625 
Q 22.75 39.890625 18.8125 39.015625 
Q 14.890625 38.140625 10.796875 36.28125 
z
" id="DejaVuSans-53"/>
      </defs>
      <g transform="translate(20.878125 281.338561)scale(0.1 -0.1)">
       <use xlink:href="#DejaVuSans-50"/>
       <use x="63.623047" xlink:href="#DejaVuSans-53"/>
      </g>
     </g>
    </g>
    <g id="ytick_2">
     <g id="line2d_17">
      <path clip-path="url(#p48635c22f4)" d="M 40.603125 222.756734 
L 397.723125 222.756734 
" style="fill:none;stroke:#b0b0b0;stroke-dasharray:2.96,1.28;stroke-dashoffset:0;stroke-width:0.8;"/>
     </g>
     <g id="line2d_18">
      <g>
       <use style="stroke:#000000;stroke-width:0.8;" x="40.603125" xlink:href="#m5e66af1498" y="222.756734"/>
      </g>
     </g>
     <g id="text_10">
      <!-- 30 -->
      <defs>
       <path d="M 40.578125 39.3125 
Q 47.65625 37.796875 51.625 33 
Q 55.609375 28.21875 55.609375 21.1875 
Q 55.609375 10.40625 48.1875 4.484375 
Q 40.765625 -1.421875 27.09375 -1.421875 
Q 22.515625 -1.421875 17.65625 -0.515625 
Q 12.796875 0.390625 7.625 2.203125 
L 7.625 11.71875 
Q 11.71875 9.328125 16.59375 8.109375 
Q 21.484375 6.890625 26.8125 6.890625 
Q 36.078125 6.890625 40.9375 10.546875 
Q 45.796875 14.203125 45.796875 21.1875 
Q 45.796875 27.640625 41.28125 31.265625 
Q 36.765625 34.90625 28.71875 34.90625 
L 20.21875 34.90625 
L 20.21875 43.015625 
L 29.109375 43.015625 
Q 36.375 43.015625 40.234375 45.921875 
Q 44.09375 48.828125 44.09375 54.296875 
Q 44.09375 59.90625 40.109375 62.90625 
Q 36.140625 65.921875 28.71875 65.921875 
Q 24.65625 65.921875 20.015625 65.03125 
Q 15.375 64.15625 9.8125 62.3125 
L 9.8125 71.09375 
Q 15.4375 72.65625 20.34375 73.4375 
Q 25.25 74.21875 29.59375 74.21875 
Q 40.828125 74.21875 47.359375 69.109375 
Q 53.90625 64.015625 53.90625 55.328125 
Q 53.90625 49.265625 50.4375 45.09375 
Q 46.96875 40.921875 40.578125 39.3125 
z
" id="DejaVuSans-51"/>
      </defs>
      <g transform="translate(20.878125 226.555952)scale(0.1 -0.1)">
       <use xlink:href="#DejaVuSans-51"/>
       <use x="63.623047" xlink:href="#DejaVuSans-48"/>
      </g>
     </g>
    </g>
    <g id="ytick_3">
     <g id="line2d_19">
      <path clip-path="url(#p48635c22f4)" d="M 40.603125 167.974125 
L 397.723125 167.974125 
" style="fill:none;stroke:#b0b0b0;stroke-dasharray:2.96,1.28;stroke-dashoffset:0;stroke-width:0.8;"/>
     </g>
     <g id="line2d_20">
      <g>
       <use style="stroke:#000000;stroke-width:0.8;" x="40.603125" xlink:href="#m5e66af1498" y="167.974125"/>
      </g>
     </g>
     <g id="text_11">
      <!-- 35 -->
      <g transform="translate(20.878125 171.773344)scale(0.1 -0.1)">
       <use xlink:href="#DejaVuSans-51"/>
       <use x="63.623047" xlink:href="#DejaVuSans-53"/>
      </g>
     </g>
    </g>
    <g id="ytick_4">
     <g id="line2d_21">
      <path clip-path="url(#p48635c22f4)" d="M 40.603125 113.191516 
L 397.723125 113.191516 
" style="fill:none;stroke:#b0b0b0;stroke-dasharray:2.96,1.28;stroke-dashoffset:0;stroke-width:0.8;"/>
     </g>
     <g id="line2d_22">
      <g>
       <use style="stroke:#000000;stroke-width:0.8;" x="40.603125" xlink:href="#m5e66af1498" y="113.191516"/>
      </g>
     </g>
     <g id="text_12">
      <!-- 40 -->
      <g transform="translate(20.878125 116.990735)scale(0.1 -0.1)">
       <use xlink:href="#DejaVuSans-52"/>
       <use x="63.623047" xlink:href="#DejaVuSans-48"/>
      </g>
     </g>
    </g>
    <g id="ytick_5">
     <g id="line2d_23">
      <path clip-path="url(#p48635c22f4)" d="M 40.603125 58.408908 
L 397.723125 58.408908 
" style="fill:none;stroke:#b0b0b0;stroke-dasharray:2.96,1.28;stroke-dashoffset:0;stroke-width:0.8;"/>
     </g>
     <g id="line2d_24">
      <g>
       <use style="stroke:#000000;stroke-width:0.8;" x="40.603125" xlink:href="#m5e66af1498" y="58.408908"/>
      </g>
     </g>
     <g id="text_13">
      <!-- 45 -->
      <g transform="translate(20.878125 62.208126)scale(0.1 -0.1)">
       <use xlink:href="#DejaVuSans-52"/>
       <use x="63.623047" xlink:href="#DejaVuSans-53"/>
      </g>
     </g>
    </g>
    <g id="text_14">
     <!-- Price $ -->
     <defs>
      <path d="M 19.671875 64.796875 
L 19.671875 37.40625 
L 32.078125 37.40625 
Q 38.96875 37.40625 42.71875 40.96875 
Q 46.484375 44.53125 46.484375 51.125 
Q 46.484375 57.671875 42.71875 61.234375 
Q 38.96875 64.796875 32.078125 64.796875 
z
M 9.8125 72.90625 
L 32.078125 72.90625 
Q 44.34375 72.90625 50.609375 67.359375 
Q 56.890625 61.8125 56.890625 51.125 
Q 56.890625 40.328125 50.609375 34.8125 
Q 44.34375 29.296875 32.078125 29.296875 
L 19.671875 29.296875 
L 19.671875 0 
L 9.8125 0 
z
" id="DejaVuSans-80"/>
      <path d="M 41.109375 46.296875 
Q 39.59375 47.171875 37.8125 47.578125 
Q 36.03125 48 33.890625 48 
Q 26.265625 48 22.1875 43.046875 
Q 18.109375 38.09375 18.109375 28.8125 
L 18.109375 0 
L 9.078125 0 
L 9.078125 54.6875 
L 18.109375 54.6875 
L 18.109375 46.1875 
Q 20.953125 51.171875 25.484375 53.578125 
Q 30.03125 56 36.53125 56 
Q 37.453125 56 38.578125 55.875 
Q 39.703125 55.765625 41.0625 55.515625 
z
" id="DejaVuSans-114"/>
      <path d="M 9.421875 54.6875 
L 18.40625 54.6875 
L 18.40625 0 
L 9.421875 0 
z
M 9.421875 75.984375 
L 18.40625 75.984375 
L 18.40625 64.59375 
L 9.421875 64.59375 
z
" id="DejaVuSans-105"/>
      <path d="M 48.78125 52.59375 
L 48.78125 44.1875 
Q 44.96875 46.296875 41.140625 47.34375 
Q 37.3125 48.390625 33.40625 48.390625 
Q 24.65625 48.390625 19.8125 42.84375 
Q 14.984375 37.3125 14.984375 27.296875 
Q 14.984375 17.28125 19.8125 11.734375 
Q 24.65625 6.203125 33.40625 6.203125 
Q 37.3125 6.203125 41.140625 7.25 
Q 44.96875 8.296875 48.78125 10.40625 
L 48.78125 2.09375 
Q 45.015625 0.34375 40.984375 -0.53125 
Q 36.96875 -1.421875 32.421875 -1.421875 
Q 20.0625 -1.421875 12.78125 6.34375 
Q 5.515625 14.109375 5.515625 27.296875 
Q 5.515625 40.671875 12.859375 48.328125 
Q 20.21875 56 33.015625 56 
Q 37.15625 56 41.109375 55.140625 
Q 45.0625 54.296875 48.78125 52.59375 
z
" id="DejaVuSans-99"/>
      <path d="M 56.203125 29.59375 
L 56.203125 25.203125 
L 14.890625 25.203125 
Q 15.484375 15.921875 20.484375 11.0625 
Q 25.484375 6.203125 34.421875 6.203125 
Q 39.59375 6.203125 44.453125 7.46875 
Q 49.3125 8.734375 54.109375 11.28125 
L 54.109375 2.78125 
Q 49.265625 0.734375 44.1875 -0.34375 
Q 39.109375 -1.421875 33.890625 -1.421875 
Q 20.796875 -1.421875 13.15625 6.1875 
Q 5.515625 13.8125 5.515625 26.8125 
Q 5.515625 40.234375 12.765625 48.109375 
Q 20.015625 56 32.328125 56 
Q 43.359375 56 49.78125 48.890625 
Q 56.203125 41.796875 56.203125 29.59375 
z
M 47.21875 32.234375 
Q 47.125 39.59375 43.09375 43.984375 
Q 39.0625 48.390625 32.421875 48.390625 
Q 24.90625 48.390625 20.390625 44.140625 
Q 15.875 39.890625 15.1875 32.171875 
z
" id="DejaVuSans-101"/>
      <path id="DejaVuSans-32"/>
      <path d="M 33.796875 -14.703125 
L 28.90625 -14.703125 
L 28.859375 0 
Q 23.734375 0.09375 18.609375 1.1875 
Q 13.484375 2.296875 8.296875 4.5 
L 8.296875 13.28125 
Q 13.28125 10.15625 18.375 8.5625 
Q 23.484375 6.984375 28.90625 6.9375 
L 28.90625 29.203125 
Q 18.109375 30.953125 13.203125 35.15625 
Q 8.296875 39.359375 8.296875 46.6875 
Q 8.296875 54.640625 13.625 59.21875 
Q 18.953125 63.8125 28.90625 64.5 
L 28.90625 75.984375 
L 33.796875 75.984375 
L 33.796875 64.65625 
Q 38.328125 64.453125 42.578125 63.6875 
Q 46.828125 62.9375 50.875 61.625 
L 50.875 53.078125 
Q 46.828125 55.125 42.546875 56.25 
Q 38.28125 57.375 33.796875 57.5625 
L 33.796875 36.71875 
Q 44.875 35.015625 50.09375 30.609375 
Q 55.328125 26.21875 55.328125 18.609375 
Q 55.328125 10.359375 49.78125 5.59375 
Q 44.234375 0.828125 33.796875 0.09375 
z
M 28.90625 37.59375 
L 28.90625 57.625 
Q 23.25 56.984375 20.265625 54.390625 
Q 17.28125 51.8125 17.28125 47.515625 
Q 17.28125 43.3125 20.03125 40.96875 
Q 22.796875 38.625 28.90625 37.59375 
z
M 33.796875 28.21875 
L 33.796875 7.078125 
Q 39.984375 7.90625 43.140625 10.59375 
Q 46.296875 13.28125 46.296875 17.671875 
Q 46.296875 21.96875 43.28125 24.5 
Q 40.28125 27.046875 33.796875 28.21875 
z
" id="DejaVuSans-36"/>
     </defs>
     <g transform="translate(14.798438 172.342094)rotate(-90)scale(0.1 -0.1)">
      <use xlink:href="#DejaVuSans-80"/>
      <use x="58.552734" xlink:href="#DejaVuSans-114"/>
      <use x="99.666016" xlink:href="#DejaVuSans-105"/>
      <use x="127.449219" xlink:href="#DejaVuSans-99"/>
      <use x="182.429688" xlink:href="#DejaVuSans-101"/>
      <use x="243.953125" xlink:href="#DejaVuSans-32"/>
      <use x="275.740234" xlink:href="#DejaVuSans-36"/>
     </g>
    </g>
   </g>
   <g id="line2d_25">
    <path clip-path="url(#p48635c22f4)" d="M 56.835852 273.326178 
L 57.569811 268.35559 
L 57.814464 268.352894 
L 59.037729 258.015577 
L 59.282382 257.044974 
L 59.527035 256.599159 
L 60.016341 257.573796 
L 60.260994 258.409399 
L 60.505647 259.706532 
L 60.7503 260.049487 
L 60.994953 259.30571 
L 61.239606 259.210039 
L 61.484259 258.416337 
L 61.973566 254.880306 
L 62.462872 253.043568 
L 62.707525 253.338083 
L 62.952178 253.292839 
L 63.196831 252.392097 
L 63.441484 252.353979 
L 63.686137 251.232096 
L 64.664749 263.036613 
L 65.154055 266.002465 
L 65.398708 266.564869 
L 65.643361 266.648148 
L 65.888014 265.475775 
L 66.621973 257.274705 
L 67.111279 254.064515 
L 67.355932 255.073925 
L 67.600585 254.645665 
L 68.089891 250.171277 
L 68.579197 247.169125 
L 69.313156 248.544061 
L 69.557809 248.401057 
L 70.291768 253.816457 
L 70.536421 253.543279 
L 70.781074 254.08163 
L 71.025727 254.098557 
L 71.27038 254.6032 
L 71.759686 257.242856 
L 72.004339 255.900918 
L 72.248992 260.066812 
L 72.493645 260.429014 
L 72.738298 261.930341 
L 72.982951 260.606667 
L 73.472257 261.479385 
L 73.71691 261.582265 
L 74.206216 265.464386 
L 74.450869 265.613827 
L 74.695522 268.787675 
L 74.940175 269.499897 
L 75.184828 270.592 
L 75.429481 272.264 
L 75.918787 268.863911 
L 76.16344 268.83898 
L 76.408093 268.589563 
L 76.652746 268.778689 
L 76.897399 269.207013 
L 77.142052 270.071455 
L 77.631358 270.03691 
L 77.876011 267.77281 
L 78.120664 267.403774 
L 78.365317 266.311837 
L 78.854623 269.751278 
L 79.343929 266.622757 
L 79.588582 265.848364 
L 79.833235 264.036787 
L 80.077888 264.060193 
L 80.322541 262.506977 
L 80.567194 262.689102 
L 80.811847 264.114966 
L 81.0565 266.733766 
L 81.301153 267.013798 
L 81.545806 265.942383 
L 82.035112 269.798298 
L 82.279765 270.780416 
L 82.524418 272.43436 
L 82.769071 272.832193 
L 83.258377 262.399561 
L 83.50303 259.15583 
L 84.481643 252.980122 
L 84.970949 249.276261 
L 85.949561 242.48091 
L 86.194214 244.036696 
L 86.438867 244.415596 
L 86.68352 244.471289 
L 86.928173 244.679286 
L 87.172826 244.581107 
L 87.417479 244.302287 
L 87.662132 244.661752 
L 87.906785 244.671553 
L 88.151438 242.759771 
L 88.396091 242.48022 
L 88.640744 242.499049 
L 89.13005 242.102302 
L 89.619356 244.082379 
L 89.864009 244.913948 
L 90.108662 245.148214 
L 90.597968 253.415509 
L 90.842621 254.725098 
L 91.087274 254.375559 
L 91.57658 255.000908 
L 91.821233 256.572075 
L 92.065886 255.816637 
L 93.289151 239.38641 
L 93.533804 237.340756 
L 93.778457 236.332662 
L 94.02311 235.947806 
L 94.267763 236.880354 
L 94.512416 239.115615 
L 94.757069 239.169135 
L 95.001722 238.41773 
L 95.246375 238.6158 
L 95.491028 239.024166 
L 95.735681 239.009057 
L 95.980334 237.299754 
L 96.224987 236.878411 
L 97.203599 218.295449 
L 97.692905 214.501768 
L 97.937558 213.022844 
L 98.671517 218.482213 
L 99.160823 220.164704 
L 99.650129 218.662855 
L 99.894782 216.872009 
L 100.139435 216.743737 
L 100.384088 215.233299 
L 100.873394 219.16687 
L 101.607353 203.473316 
L 102.096659 201.666984 
L 103.075271 204.566067 
L 103.319924 204.746479 
L 103.564577 203.996557 
L 103.80923 205.329008 
L 104.053883 205.908319 
L 104.298536 207.773959 
L 104.787842 212.557239 
L 105.032495 212.661874 
L 105.521801 208.212856 
L 106.011107 204.395979 
L 106.500413 208.568643 
L 106.745066 206.593143 
L 106.98972 206.415198 
L 107.234373 207.896316 
L 107.479026 207.927893 
L 107.723679 211.820337 
L 108.212985 222.98682 
L 108.457638 224.542314 
L 108.702291 225.08708 
L 108.946944 224.574664 
L 109.191597 227.440582 
L 109.43625 226.275711 
L 109.680903 226.138182 
L 109.925556 224.749245 
L 110.170209 224.990678 
L 110.414862 223.18675 
L 110.659515 222.588317 
L 111.148821 217.714967 
L 111.393474 220.213082 
L 111.638127 228.013916 
L 112.127433 234.844187 
L 112.372086 235.978296 
L 112.616739 235.60251 
L 112.861392 233.323802 
L 113.106045 233.807568 
L 113.350698 232.865657 
L 113.595351 232.862167 
L 113.840004 234.162289 
L 114.084657 234.439834 
L 114.32931 234.376931 
L 114.573963 233.130246 
L 114.818616 231.255285 
L 115.307922 221.096646 
L 115.552575 218.8487 
L 115.797228 219.052308 
L 117.020493 211.626049 
L 117.265146 211.474643 
L 117.509799 210.261186 
L 117.999105 205.146736 
L 118.488411 206.567439 
L 118.733064 205.235072 
L 118.977717 202.584799 
L 119.467023 200.94517 
L 119.711676 203.117863 
L 119.956329 199.004507 
L 120.200982 197.806765 
L 120.445635 198.466888 
L 120.690288 198.180043 
L 120.934941 200.275602 
L 121.424247 207.932866 
L 121.6689 210.657807 
L 121.913553 211.850994 
L 122.158206 214.045964 
L 122.402859 212.393963 
L 122.647512 209.758006 
L 122.892165 210.027213 
L 123.136818 211.080593 
L 123.381471 212.793427 
L 123.870777 213.4645 
L 124.11543 213.033523 
L 124.360083 212.121789 
L 124.604736 211.832165 
L 124.849389 211.193588 
L 125.094042 209.940821 
L 125.338695 209.460232 
L 126.072654 205.714574 
L 126.56196 200.649298 
L 127.051266 192.604941 
L 127.295919 192.426807 
L 127.785225 196.903265 
L 128.519184 200.32467 
L 128.763837 202.815742 
L 129.497797 212.798881 
L 129.74245 213.085078 
L 129.987103 212.983201 
L 130.231756 212.622712 
L 130.476409 212.870979 
L 130.721062 210.713709 
L 130.965715 210.094399 
L 131.455021 212.627874 
L 131.699674 210.067608 
L 132.18898 198.102094 
L 133.167592 185.715194 
L 134.146204 179.729114 
L 134.880163 181.25696 
L 135.369469 182.974517 
L 135.614122 189.058316 
L 136.103428 193.626264 
L 136.348081 194.667021 
L 136.592734 191.013022 
L 137.08204 178.892027 
L 137.326693 176.894731 
L 137.571346 177.254927 
L 137.815999 179.278388 
L 138.060652 179.645063 
L 138.305305 179.378865 
L 138.549958 179.919619 
L 138.794611 179.899181 
L 139.039264 178.895538 
L 139.283917 179.876402 
L 139.52857 181.512876 
L 139.773223 180.368966 
L 140.262529 174.943995 
L 140.507182 170.154989 
L 140.751835 168.312462 
L 141.241141 172.815627 
L 141.730447 177.97206 
L 141.9751 179.087799 
L 142.219753 178.766347 
L 142.953712 170.709368 
L 143.198365 169.352593 
L 144.176977 166.428558 
L 144.42163 164.492325 
L 144.666283 165.533333 
L 145.155589 169.237905 
L 145.400242 169.309125 
L 145.644895 168.954446 
L 145.889548 166.313159 
L 146.134201 162.057593 
L 146.378854 161.645988 
L 146.86816 159.973361 
L 147.112813 158.946438 
L 147.357466 160.673358 
L 147.846772 168.993525 
L 148.091425 171.655751 
L 148.580731 179.097412 
L 148.825384 180.567622 
L 149.31469 186.16546 
L 149.559343 188.092707 
L 150.048649 196.084652 
L 150.293302 197.170549 
L 150.537955 195.53232 
L 151.271914 185.944569 
L 151.516567 184.70733 
L 152.005874 177.933608 
L 152.250527 175.719851 
L 152.984486 173.079358 
L 153.229139 173.002747 
L 153.963098 178.108607 
L 154.207751 178.211048 
L 154.452404 178.572122 
L 154.697057 176.121717 
L 154.94171 174.957996 
L 155.431016 167.813378 
L 155.675669 165.714058 
L 155.920322 165.127496 
L 156.164975 165.860385 
L 156.409628 167.95423 
L 156.898934 173.540784 
L 157.38824 174.466018 
L 157.632893 174.463594 
L 157.877546 174.817354 
L 158.122199 176.62519 
L 158.366852 175.677637 
L 158.856158 174.555712 
L 159.100811 173.923759 
L 159.590117 170.339225 
L 159.83477 168.265818 
L 160.079423 167.56741 
L 160.324076 168.857939 
L 160.568729 171.339691 
L 160.813382 171.449029 
L 161.058035 169.594298 
L 161.302688 169.078579 
L 161.791994 171.473396 
L 162.036647 172.626501 
L 162.770606 169.3467 
L 164.238524 158.517864 
L 164.483177 158.323304 
L 164.72783 158.704691 
L 164.972483 159.636069 
L 165.217136 159.942224 
L 165.461789 161.583253 
L 165.951095 141.673106 
L 166.195748 136.071213 
L 166.440401 134.534423 
L 166.685054 133.897747 
L 166.929707 135.428728 
L 167.17436 138.488558 
L 167.663666 140.027354 
L 167.908319 139.945685 
L 168.152972 139.008498 
L 168.397625 139.536253 
L 168.642278 140.609319 
L 169.131584 140.15387 
L 169.62089 138.806833 
L 170.110196 135.048888 
L 170.599502 131.413906 
L 170.844155 130.712614 
L 171.088808 131.117657 
L 171.578114 134.933991 
L 171.822767 137.759764 
L 172.312073 140.26977 
L 172.556726 140.366945 
L 172.801379 139.145337 
L 173.046032 138.911281 
L 173.290685 138.30963 
L 173.535338 139.07675 
L 174.024644 141.606693 
L 174.269298 140.029528 
L 174.513951 140.133014 
L 174.758604 139.393604 
L 175.492563 134.1764 
L 175.981869 132.897741 
L 176.226522 132.875631 
L 176.471175 132.70803 
L 176.960481 129.559384 
L 177.449787 130.646744 
L 177.69444 132.106254 
L 178.183746 130.171066 
L 178.428399 129.042997 
L 178.673052 129.05378 
L 178.917705 129.275465 
L 179.407011 130.691925 
L 179.651664 132.085439 
L 179.896317 137.205176 
L 180.14097 145.300231 
L 180.385623 149.538869 
L 180.630276 151.011587 
L 181.119582 155.84987 
L 181.364235 159.770568 
L 181.608888 160.648824 
L 182.342847 156.942496 
L 182.832153 156.492982 
L 183.321459 154.625336 
L 183.566112 153.619771 
L 183.810765 153.290462 
L 184.055418 154.386682 
L 184.789377 153.061295 
L 185.03403 152.131965 
L 185.278683 152.338311 
L 186.012642 157.952199 
L 186.257295 158.423071 
L 186.501948 160.521263 
L 186.746601 160.725644 
L 186.991254 160.315418 
L 187.235907 158.99024 
L 187.725213 160.447284 
L 187.969866 160.333432 
L 188.214519 160.625627 
L 188.459172 159.330667 
L 188.703825 158.826735 
L 188.948478 161.273295 
L 189.193131 164.936363 
L 189.437784 165.147558 
L 189.682437 166.582784 
L 190.905702 177.663523 
L 191.150355 176.387664 
L 191.395008 174.448589 
L 191.639661 175.147624 
L 191.884314 173.7753 
L 192.37362 179.040444 
L 193.352232 193.566579 
L 193.596885 194.173455 
L 193.841538 191.687356 
L 194.330844 182.504732 
L 195.309456 166.719206 
L 196.043415 163.684328 
L 196.288068 163.092123 
L 196.532721 163.744054 
L 197.266681 138.615408 
L 197.511334 134.791342 
L 197.755987 133.85102 
L 198.00064 133.871667 
L 198.489946 132.555559 
L 198.734599 131.070595 
L 199.713211 122.355039 
L 199.957864 122.40766 
L 200.202517 123.679591 
L 200.44717 123.350156 
L 200.691823 122.369292 
L 200.936476 122.050515 
L 201.181129 122.621237 
L 202.159741 129.263135 
L 202.404394 128.853829 
L 202.8937 130.961633 
L 203.383006 141.526612 
L 203.872312 153.751678 
L 204.116965 152.522213 
L 204.850924 138.760774 
L 205.095577 136.861572 
L 205.34023 135.862652 
L 205.584883 137.139807 
L 205.829536 140.065723 
L 206.074189 145.263032 
L 206.808148 152.628625 
L 207.052801 149.629107 
L 207.297454 143.816814 
L 207.542107 141.475454 
L 207.78676 142.078484 
L 208.520719 148.118606 
L 208.765372 147.506464 
L 209.254678 143.82931 
L 209.499331 140.766639 
L 209.743984 141.296317 
L 209.988637 144.015678 
L 210.722596 157.156324 
L 210.967249 160.494848 
L 211.211902 160.269443 
L 211.945861 153.452002 
L 212.190514 153.259324 
L 212.67982 156.273053 
L 213.658432 144.034612 
L 213.903085 143.868724 
L 214.147738 143.917082 
L 214.392391 144.232933 
L 214.881697 144.511753 
L 215.371003 146.892358 
L 215.615656 146.047623 
L 215.860309 145.732107 
L 216.594268 148.760506 
L 217.328227 165.02915 
L 217.57288 170.409442 
L 217.817533 169.633628 
L 218.062186 169.879722 
L 218.306839 169.097429 
L 218.551492 170.232436 
L 218.796145 168.48069 
L 219.285452 167.892331 
L 219.530105 165.615922 
L 219.774758 164.836054 
L 220.019411 161.506724 
L 220.264064 162.103318 
L 220.508717 161.228364 
L 220.75337 156.517809 
L 222.221288 142.801719 
L 222.465941 141.193081 
L 222.710594 140.38893 
L 222.955247 140.739806 
L 223.1999 140.380654 
L 223.444553 139.450823 
L 223.689206 139.848134 
L 224.423165 146.125489 
L 224.667818 147.00922 
L 224.912471 147.385842 
L 225.64643 146.661604 
L 226.135736 132.424821 
L 226.380389 128.240601 
L 226.625042 126.146797 
L 227.114348 128.072623 
L 227.359001 126.377594 
L 227.848307 120.79685 
L 228.09296 119.383399 
L 228.337613 118.67379 
L 229.071572 110.245915 
L 229.316225 109.329709 
L 229.560878 106.966239 
L 229.805531 106.990522 
L 230.050184 108.078551 
L 230.294837 110.18623 
L 230.53949 110.725062 
L 230.784143 109.307013 
L 231.028796 102.901178 
L 231.273449 101.679695 
L 231.518102 101.410363 
L 231.762755 100.48747 
L 232.007408 102.48811 
L 232.496714 109.521677 
L 232.741367 110.308901 
L 233.475326 107.204475 
L 233.719979 107.730684 
L 234.698591 101.134176 
L 235.187897 99.589529 
L 235.43255 99.268537 
L 235.921856 99.528674 
L 236.166509 100.802109 
L 236.411162 100.582806 
L 236.900468 95.845167 
L 237.145121 95.738462 
L 237.389774 94.222277 
L 237.634427 94.571481 
L 237.87908 95.99839 
L 238.123733 96.263167 
L 238.368386 95.453498 
L 238.613039 93.453151 
L 238.857692 94.500554 
L 239.346998 91.351198 
L 239.591651 91.23162 
L 240.080957 88.354814 
L 240.32561 88.081678 
L 240.570263 88.241589 
L 240.814916 88.801068 
L 241.304222 81.890381 
L 241.793529 60.524027 
L 242.038182 53.987705 
L 242.772141 41.976967 
L 243.261447 42.676462 
L 243.5061 44.266709 
L 243.750753 43.634464 
L 243.995406 44.989902 
L 244.240059 44.005025 
L 244.484712 43.954327 
L 244.729365 44.309174 
L 244.974018 48.392332 
L 245.463324 67.327173 
L 245.95263 90.016615 
L 246.197283 91.896215 
L 246.931242 82.436192 
L 247.175895 88.239416 
L 247.420548 88.348962 
L 247.665201 83.301366 
L 248.154507 80.005808 
L 248.39916 83.011261 
L 248.643813 84.51194 
L 248.888466 84.187019 
L 249.133119 85.279102 
L 249.622425 80.265109 
L 249.867078 75.479739 
L 250.111731 76.178314 
L 250.356384 77.761372 
L 250.601037 82.919394 
L 251.090343 87.788146 
L 251.334996 85.633154 
L 251.579649 88.905098 
L 251.824302 95.486726 
L 252.068955 95.241176 
L 252.313608 91.922296 
L 253.047567 68.170278 
L 253.29222 64.717986 
L 253.536873 58.935577 
L 253.781526 56.91082 
L 254.026179 56.186833 
L 254.270832 57.129998 
L 254.515485 58.782771 
L 254.760138 58.903268 
L 255.004791 54.899815 
L 255.249444 48.578281 
L 255.494097 46.842125 
L 255.73875 48.173196 
L 255.983403 43.460718 
L 256.472709 38.774655 
L 256.717362 38.69842 
L 257.206668 41.432451 
L 257.451321 43.624182 
L 257.695974 43.436435 
L 257.940627 43.00272 
L 258.429933 46.535386 
L 259.163892 61.278692 
L 259.408545 62.751451 
L 259.897851 71.296187 
L 260.387157 70.02806 
L 260.876463 63.138271 
L 261.121116 63.699213 
L 261.610422 66.145856 
L 261.855075 67.63479 
L 262.099728 66.278349 
L 262.344381 68.19778 
L 262.589034 67.006139 
L 262.833687 67.785171 
L 263.07834 73.826965 
L 263.567646 68.717511 
L 263.812299 67.647956 
L 264.056952 68.674795 
L 264.301606 68.336667 
L 264.546259 73.785211 
L 264.790912 75.453867 
L 265.035565 72.770994 
L 265.280218 66.808194 
L 265.524871 63.649267 
L 265.769524 67.133616 
L 266.014177 65.871843 
L 266.25883 63.328609 
L 266.748136 54.259461 
L 266.992789 53.922963 
L 267.237442 51.539264 
L 267.482095 51.017736 
L 267.726748 54.232294 
L 268.216054 65.559335 
L 268.460707 68.128482 
L 268.950013 90.665203 
L 269.194666 94.847417 
L 269.439319 93.446004 
L 269.683972 97.591396 
L 269.928625 97.396628 
L 270.173278 100.946262 
L 270.417931 99.232467 
L 270.662584 100.409562 
L 270.907237 103.009931 
L 271.15189 99.526417 
L 271.396543 102.529948 
L 272.130502 96.655546 
L 272.619808 83.111278 
L 272.864461 84.330629 
L 273.843073 142.513411 
L 274.087726 146.721455 
L 274.821685 134.211132 
L 275.555644 113.354645 
L 275.800297 111.466394 
L 276.04495 111.585638 
L 276.289603 111.335113 
L 276.534256 108.106679 
L 276.778909 101.82619 
L 277.023562 101.265332 
L 277.268215 102.034584 
L 277.512868 103.760542 
L 278.002174 99.897313 
L 278.49148 91.930571 
L 278.736133 90.987449 
L 278.980786 92.841427 
L 279.225439 92.119823 
L 279.470092 92.577779 
L 279.959398 88.092796 
L 280.448704 91.360142 
L 280.93801 100.386575 
L 281.182663 103.058915 
L 281.671969 110.449042 
L 282.161275 115.735251 
L 282.405928 113.813647 
L 282.650581 110.218622 
L 282.895234 108.632053 
L 283.38454 99.709608 
L 283.629193 98.535898 
L 283.873846 94.926495 
L 284.118499 93.801853 
L 284.607805 88.849467 
L 285.097111 84.586629 
L 285.341764 85.17294 
L 286.075723 77.385419 
L 286.320376 76.493287 
L 286.809683 86.055668 
L 287.054336 87.724115 
L 287.298989 86.940694 
L 287.543642 79.664921 
L 287.788295 75.764995 
L 288.032948 75.514471 
L 288.277601 70.322762 
L 288.522254 69.620927 
L 288.766907 69.805497 
L 289.01156 69.512551 
L 289.256213 68.983039 
L 289.500866 67.328719 
L 289.745519 62.720355 
L 289.990172 61.709899 
L 290.234825 60.078525 
L 290.479478 61.12317 
L 290.724131 61.65151 
L 291.213437 72.809195 
L 291.45809 75.594719 
L 291.947396 76.630545 
L 292.926008 61.341051 
L 293.415314 59.350484 
L 293.90462 55.880344 
L 294.149273 55.53741 
L 294.393926 54.652049 
L 294.638579 55.22741 
L 294.883232 55.29838 
L 295.127885 56.040799 
L 295.861844 67.942031 
L 296.106497 67.912774 
L 296.35115 67.479142 
L 296.595803 66.477924 
L 296.840456 64.1644 
L 297.085109 64.076671 
L 297.329762 61.564241 
L 298.063721 89.870957 
L 298.308374 87.834414 
L 298.79768 61.976807 
L 299.286986 53.320184 
L 299.531639 52.872467 
L 299.776292 49.368975 
L 300.020945 47.965346 
L 300.265598 48.393753 
L 300.754904 50.044479 
L 300.999557 51.859963 
L 301.24421 52.353781 
L 301.488863 52.024346 
L 301.733516 53.439929 
L 302.222822 54.712151 
L 302.467475 52.589133 
L 302.712128 52.313114 
L 303.201434 62.984003 
L 303.69074 70.135517 
L 303.935393 74.487214 
L 304.180046 76.615624 
L 304.424699 80.038032 
L 304.669352 78.821063 
L 305.403311 72.609537 
L 305.647964 73.448337 
L 306.13727 76.787614 
L 306.381923 79.333104 
L 306.626576 79.787884 
L 307.115882 77.951084 
L 307.605188 76.357075 
L 308.094494 77.497014 
L 308.339147 77.897836 
L 308.5838 78.085081 
L 309.073107 63.199377 
L 309.31776 62.810383 
L 309.562413 63.464696 
L 309.807066 63.613615 
L 310.296372 70.153448 
L 310.541025 78.85868 
L 310.785678 78.709009 
L 311.274984 82.032361 
L 311.76429 79.902363 
L 312.008943 79.132526 
L 312.253596 79.220297 
L 312.498249 79.119945 
L 312.742902 77.239384 
L 312.987555 76.452286 
L 313.232208 78.126375 
L 313.476861 77.874764 
L 313.721514 76.460728 
L 313.966167 76.375214 
L 314.455473 70.993334 
L 314.700126 72.64498 
L 315.434085 79.878748 
L 315.678738 79.996362 
L 316.65735 88.270177 
L 316.902003 88.795885 
L 317.146656 88.878432 
L 317.635962 88.266708 
L 317.880615 87.353637 
L 318.369921 82.81574 
L 319.10388 61.963391 
L 319.348533 57.707365 
L 319.593186 58.477704 
L 319.837839 62.508492 
L 320.327145 76.764584 
L 320.571798 74.979568 
L 320.816451 63.391596 
L 321.061104 62.082551 
L 321.795063 93.008234 
L 322.039716 92.551949 
L 322.284369 89.023254 
L 322.773675 80.020394 
L 323.262981 75.127609 
L 323.507634 77.94122 
L 323.752287 77.346507 
L 324.241593 78.878616 
L 324.730899 95.42165 
L 324.975552 99.097801 
L 325.464858 102.49183 
L 325.709511 97.700191 
L 325.954164 95.734116 
L 326.198817 92.599012 
L 326.688123 81.950023 
L 326.932776 79.528249 
L 327.422082 65.770279 
L 327.666735 62.583306 
L 327.911388 62.294497 
L 328.156041 60.896803 
L 328.400694 58.636486 
L 328.645347 57.974106 
L 328.89 58.107434 
L 329.623959 62.426405 
L 329.868612 61.721602 
L 330.113265 60.550149 
L 330.602571 57.258645 
L 330.847224 58.103547 
L 331.091877 60.932831 
L 331.581184 58.950163 
L 331.825837 59.680253 
L 332.07049 58.923122 
L 332.315143 57.608392 
L 332.559796 58.717779 
L 332.804449 56.917466 
L 333.049102 57.15984 
L 333.293755 56.924613 
L 333.538408 56.215213 
L 333.783061 57.853399 
L 334.027714 61.343851 
L 335.006326 67.202747 
L 335.250979 65.849524 
L 335.740285 66.697143 
L 335.984938 64.931855 
L 336.718897 57.174426 
L 336.96355 56.358781 
L 337.208203 54.603524 
L 337.697509 73.525032 
L 338.431468 61.707182 
L 338.676121 56.285722 
L 339.41008 66.196053 
L 339.899386 70.241804 
L 340.144039 71.351901 
L 340.633345 75.325763 
L 341.122651 71.283105 
L 341.367304 68.117197 
L 341.611957 67.400525 
L 342.345916 59.471692 
L 342.590569 60.418826 
L 343.324528 67.479477 
L 343.813834 71.525019 
L 344.058487 71.934075 
L 344.30314 71.358045 
L 344.547793 72.616057 
L 345.037099 76.475357 
L 345.281752 75.43602 
L 346.015711 66.286875 
L 346.260364 64.252339 
L 346.505017 64.373463 
L 346.74967 64.085239 
L 346.994323 65.302333 
L 347.238976 65.803214 
L 348.706894 52.790631 
L 348.951547 53.2256 
L 349.1962 54.971745 
L 349.440853 55.863835 
L 349.930159 66.133401 
L 350.174812 64.07525 
L 350.419465 60.686612 
L 350.664118 58.954636 
L 350.908771 59.212014 
L 351.398077 62.771847 
L 351.64273 62.326805 
L 351.887383 60.445116 
L 352.376689 52.16478 
L 352.865995 54.421963 
L 353.110648 52.263251 
L 353.599954 46.810778 
L 353.844607 45.424662 
L 354.089261 42.251022 
L 354.333914 41.025778 
L 354.578567 41.119735 
L 354.82322 40.387681 
L 355.557179 34.858471 
L 356.046485 36.551202 
L 356.291138 38.870117 
L 356.780444 49.31184 
L 357.025097 50.924907 
L 357.26975 50.549623 
L 357.514403 48.905543 
L 357.759056 50.756429 
L 358.003709 51.15888 
L 358.737668 56.80771 
L 358.982321 57.666489 
L 359.226974 58.060163 
L 360.450239 76.381651 
L 360.694892 77.203022 
L 360.939545 77.534964 
L 361.184198 76.638402 
L 361.673504 76.861676 
L 362.16281 75.49211 
L 363.386075 67.515672 
L 363.630728 67.313422 
L 363.875381 68.8113 
L 364.60934 65.754647 
L 364.853993 66.673319 
L 365.098646 67.11251 
L 365.343299 69.145751 
L 365.587952 68.826765 
L 366.077258 72.555453 
L 366.321911 71.340616 
L 366.566564 71.134061 
L 366.811217 71.943729 
L 367.05587 73.463718 
L 367.300523 73.29875 
L 367.789829 70.7286 
L 368.034482 68.113687 
L 368.279135 69.841609 
L 368.768441 76.203057 
L 369.013094 76.374922 
L 369.257747 77.098407 
L 369.991706 94.257135 
L 370.481012 93.770339 
L 370.970318 99.65565 
L 371.459624 103.304717 
L 371.704277 102.359755 
L 371.94893 102.812696 
L 372.193583 101.301819 
L 372.682889 99.698741 
L 372.927542 100.932553 
L 373.172195 101.378097 
L 373.416848 102.353319 
L 374.39546 108.958311 
L 374.640113 108.148851 
L 375.129419 105.396388 
L 375.374072 105.222643 
L 375.618725 104.546679 
L 375.863378 102.181036 
L 376.108031 101.120676 
L 376.841991 99.355096 
L 377.086644 100.3732 
L 377.331297 98.519848 
L 377.820603 93.324169 
L 378.065256 92.722853 
L 378.309909 92.84824 
L 379.288521 101.88788 
L 379.533174 101.534204 
L 379.777827 100.304906 
L 380.02248 99.816605 
L 380.267133 99.953236 
L 380.511786 101.316155 
L 380.756439 108.644926 
L 381.490398 99.490431 
L 381.490398 99.490431 
" style="fill:none;stroke:#1f77b4;stroke-linecap:square;stroke-width:1.5;"/>
   </g>
   <g id="line2d_26">
    <path clip-path="url(#p48635c22f4)" d="M 56.835852 268.335864 
L 57.080505 266.801951 
L 57.569811 272.280212 
L 57.814464 261.10456 
L 58.059117 260.447168 
L 58.548423 256.831516 
L 58.793076 257.050647 
L 59.037729 258.146299 
L 59.282382 257.488908 
L 59.527035 258.255864 
L 59.771688 259.680212 
L 60.016341 259.680212 
L 60.260994 261.10456 
L 60.7503 256.721951 
L 60.994953 257.488908 
L 61.239606 255.516734 
L 61.484259 251.353255 
L 61.728912 252.339342 
L 61.973566 251.353255 
L 62.218219 252.777603 
L 62.462872 255.078473 
L 62.707525 253.873255 
L 62.952178 251.572386 
L 63.196831 252.777603 
L 63.441484 248.066299 
L 63.686137 264.829777 
L 63.93079 263.186299 
L 64.175443 266.36369 
L 64.420096 267.678473 
L 64.664749 263.734125 
L 65.154055 266.911516 
L 65.888014 253.215864 
L 66.132667 252.010647 
L 66.37732 252.996734 
L 66.621973 254.968908 
L 67.111279 256.174125 
L 67.355932 255.078473 
L 67.600585 246.641951 
L 67.845238 244.560212 
L 68.089891 246.532386 
L 68.334544 244.012386 
L 69.068503 251.681951 
L 69.313156 252.887168 
L 70.047115 253.215864 
L 70.291768 253.76369 
L 70.536421 250.695864 
L 70.781074 251.02456 
L 71.025727 255.516734 
L 71.27038 255.626299 
L 71.515033 259.132386 
L 71.759686 260.775864 
L 72.004339 261.433255 
L 72.248992 260.008908 
L 72.493645 260.556734 
L 72.738298 257.817603 
L 72.982951 263.514995 
L 73.472257 261.214125 
L 73.961563 265.377603 
L 74.450869 267.021082 
L 74.695522 269.431516 
L 74.940175 276.005429 
L 75.184828 276.334125 
L 75.674134 268.445429 
L 75.918787 271.622821 
L 76.16344 273.047168 
L 76.408093 270.746299 
L 76.652746 271.951516 
L 76.897399 274.581082 
L 77.142052 270.308038 
L 77.631358 267.788038 
L 77.876011 270.198473 
L 78.120664 269.321951 
L 78.365317 272.170647 
L 78.60997 271.841951 
L 78.854623 271.18456 
L 79.099276 267.240212 
L 79.343929 265.158473 
L 79.588582 266.14456 
L 79.833235 265.487168 
L 80.077888 266.14456 
L 80.322541 266.034995 
L 80.567194 267.788038 
L 80.811847 267.240212 
L 81.0565 265.815864 
L 81.301153 269.212386 
L 81.545806 270.198473 
L 81.790459 273.266299 
L 82.035112 273.594995 
L 82.279765 274.690647 
L 82.524418 272.608908 
L 82.769071 259.241951 
L 83.013724 259.570647 
L 83.258377 258.474995 
L 83.50303 259.351516 
L 83.747683 259.132386 
L 84.236989 252.229777 
L 84.726296 250.367168 
L 84.970949 247.847168 
L 85.215602 246.641951 
L 85.460255 244.121951 
L 85.704908 243.793255 
L 85.949561 249.490647 
L 86.194214 246.970647 
L 86.438867 246.532386 
L 86.68352 247.080212 
L 87.172826 246.532386 
L 87.417479 247.628038 
L 87.662132 246.970647 
L 87.906785 242.259342 
L 88.151438 245.98456 
L 88.640744 244.669777 
L 88.885397 244.231516 
L 89.13005 247.299342 
L 89.374703 247.408908 
L 89.619356 248.175864 
L 89.864009 247.408908 
L 90.108662 260.337603 
L 90.353315 258.694125 
L 90.597968 256.06456 
L 90.842621 255.407168 
L 91.087274 257.598473 
L 91.331927 258.146299 
L 91.57658 261.214125 
L 92.065886 249.381082 
L 92.310539 248.614125 
L 92.555192 246.751516 
L 92.799845 241.711516 
L 93.044498 239.081951 
L 93.289151 238.972386 
L 93.778457 238.314995 
L 94.02311 239.958473 
L 94.267763 242.368908 
L 94.512416 239.520212 
L 94.757069 238.972386 
L 95.246375 241.273255 
L 95.491028 240.94456 
L 95.735681 237.109777 
L 95.980334 238.534125 
L 96.224987 225.714995 
L 96.46964 224.071516 
L 96.714293 219.579342 
L 96.958946 218.921951 
L 97.203599 216.073255 
L 97.448252 215.306299 
L 97.692905 213.991516 
L 97.937558 219.579342 
L 98.182211 219.798473 
L 98.426864 222.428038 
L 98.671517 221.113255 
L 98.91617 221.332386 
L 99.405476 219.031516 
L 99.650129 216.730647 
L 99.894782 220.674995 
L 100.139435 215.854125 
L 100.384088 224.728908 
L 100.628741 221.661082 
L 100.873394 204.349777 
L 101.118047 205.993255 
L 101.3627 202.377603 
L 101.607353 206.760212 
L 101.852006 204.349777 
L 102.096659 205.774125 
L 102.341312 205.007168 
L 102.585965 206.869777 
L 102.830618 206.760212 
L 103.075271 207.198473 
L 103.319924 203.801951 
L 103.564577 210.156734 
L 103.80923 207.308038 
L 104.298536 216.401951 
L 104.543189 215.854125 
L 104.787842 213.662821 
L 105.277148 206.321951 
L 105.521801 206.760212 
L 105.766454 206.321951 
L 106.011107 213.991516 
L 106.25576 211.800212 
L 106.500413 203.36369 
L 106.745066 209.280212 
L 106.98972 212.348038 
L 107.234373 208.732386 
L 107.723679 227.139342 
L 107.968332 228.454125 
L 108.212985 225.605429 
L 108.946944 230.535864 
L 109.191597 224.290647 
L 109.43625 227.358473 
L 109.680903 224.948038 
L 109.925556 227.906299 
L 110.170209 223.085429 
L 110.414862 224.838473 
L 110.659515 219.031516 
L 110.904168 217.278473 
L 111.393474 240.94456 
L 111.638127 235.466299 
L 111.88278 237.657603 
L 112.127433 237.876734 
L 112.616739 232.069777 
L 112.861392 238.862821 
L 113.106045 233.165429 
L 113.595351 238.314995 
L 113.840004 236.12369 
L 114.084657 236.452386 
L 114.32931 233.274995 
L 114.573963 232.069777 
L 114.818616 221.00369 
L 115.063269 218.812386 
L 115.307922 220.78456 
L 115.552575 224.290647 
L 115.797228 217.278473 
L 116.286534 215.196734 
L 116.531187 215.087168 
L 116.77584 210.92369 
L 117.020493 213.991516 
L 117.509799 205.445429 
L 117.754452 205.116734 
L 117.999105 211.252386 
L 118.243758 208.841951 
L 118.488411 204.021082 
L 118.733064 201.501082 
L 118.977717 203.36369 
L 119.22237 202.377603 
L 119.467023 208.951516 
L 119.711676 193.174125 
L 119.956329 199.090647 
L 120.200982 202.158473 
L 120.445635 199.967168 
L 120.934941 209.937603 
L 121.424247 215.525429 
L 121.6689 214.539342 
L 121.913553 217.059342 
L 122.158206 210.70456 
L 122.402859 208.294125 
L 122.647512 214.977603 
L 122.892165 215.087168 
L 123.136818 216.730647 
L 123.381471 215.087168 
L 123.626124 215.415864 
L 124.11543 213.114995 
L 124.360083 214.648908 
L 124.849389 210.594995 
L 125.094042 211.361951 
L 125.338695 208.622821 
L 125.583348 208.841951 
L 126.072654 202.377603 
L 126.317307 201.062821 
L 126.56196 192.845429 
L 126.806613 190.54456 
L 127.295919 201.391516 
L 127.540572 200.295864 
L 127.785225 199.748038 
L 128.274531 203.034995 
L 128.519184 207.198473 
L 128.763837 213.44369 
L 129.253143 216.840212 
L 129.497797 213.334125 
L 129.987103 215.196734 
L 130.231756 216.073255 
L 130.476409 209.608908 
L 130.721062 213.44369 
L 131.210368 216.621082 
L 131.699674 197.666299 
L 131.944327 195.913255 
L 132.18898 195.474995 
L 132.433633 187.038473 
L 132.678286 188.681951 
L 132.922939 187.148038 
L 133.167592 184.628038 
L 133.412245 183.641951 
L 133.656898 180.026299 
L 133.901551 180.68369 
L 134.146204 182.765429 
L 134.390857 183.422821 
L 134.63551 183.20369 
L 134.880163 185.066299 
L 135.124816 185.066299 
L 135.369469 199.857603 
L 135.614122 193.393255 
L 135.858775 196.789777 
L 136.103428 196.132386 
L 136.592734 177.177603 
L 137.08204 179.368908 
L 137.571346 184.518473 
L 137.815999 180.574125 
L 138.060652 180.135864 
L 138.305305 183.20369 
L 138.549958 180.135864 
L 138.794611 179.149777 
L 139.039264 184.080212 
L 139.283917 185.066299 
L 139.773223 175.972386 
L 140.017876 174.548038 
L 140.262529 166.988038 
L 140.507182 171.370647 
L 140.751835 178.273255 
L 140.996488 178.054125 
L 141.485794 180.574125 
L 141.730447 180.574125 
L 141.9751 179.368908 
L 142.219753 171.918473 
L 142.464406 174.219342 
L 142.709059 171.589777 
L 143.198365 171.041951 
L 143.443018 168.960212 
L 143.687671 168.960212 
L 144.176977 164.687168 
L 144.42163 170.055864 
L 144.666283 170.713255 
L 144.910936 173.12369 
L 145.155589 170.055864 
L 145.400242 169.946299 
L 145.889548 159.208908 
L 146.134201 165.782821 
L 146.378854 163.591516 
L 146.623507 160.30456 
L 146.86816 160.30456 
L 147.112813 165.234995 
L 147.357466 174.000212 
L 147.846772 174.000212 
L 148.091425 182.765429 
L 148.336078 183.20369 
L 148.580731 181.888908 
L 148.825384 189.996734 
L 149.070037 190.654125 
L 149.31469 192.516734 
L 149.559343 199.967168 
L 149.803996 200.734125 
L 150.048649 199.857603 
L 150.293302 193.174125 
L 150.782608 188.572386 
L 151.027261 186.819342 
L 151.271914 187.586299 
L 151.516567 178.821082 
L 152.005874 176.848908 
L 152.250527 176.081951 
L 152.49518 173.671516 
L 152.739833 175.64369 
L 152.984486 174.548038 
L 153.229139 179.478473 
L 153.473792 179.807168 
L 153.718445 180.574125 
L 153.963098 178.601951 
L 154.207751 181.121951 
L 154.452404 175.534125 
L 154.697057 175.314995 
L 154.94171 169.288908 
L 155.186363 167.097603 
L 155.431016 167.097603 
L 155.920322 169.069777 
L 156.409628 176.191516 
L 156.654281 176.191516 
L 156.898934 174.548038 
L 157.143587 177.287168 
L 157.38824 176.081951 
L 157.632893 177.506299 
L 157.877546 180.68369 
L 158.122199 175.753255 
L 158.366852 177.068038 
L 158.611505 176.629777 
L 159.590117 168.850647 
L 159.83477 170.494125 
L 160.324076 176.410647 
L 160.813382 168.521951 
L 161.058035 171.151516 
L 161.302688 175.534125 
L 161.547341 174.000212 
L 161.791994 176.081951 
L 162.036647 170.494125 
L 162.2813 171.808908 
L 162.525953 170.38456 
L 162.770606 167.645429 
L 163.015259 166.768908 
L 163.259912 164.687168 
L 163.504565 164.248908 
L 163.749218 157.674995 
L 163.993871 161.400212 
L 164.238524 160.852386 
L 164.483177 161.071516 
L 164.72783 162.714995 
L 164.972483 161.290647 
L 165.217136 165.56369 
L 165.461789 134.008908 
L 165.706442 137.405429 
L 165.951095 135.542821 
L 166.195748 139.596734 
L 166.440401 136.748038 
L 166.929707 143.431516 
L 167.17436 140.473255 
L 167.419013 141.897603 
L 167.663666 141.459342 
L 167.908319 139.158473 
L 168.152972 142.88369 
L 168.397625 143.431516 
L 168.642278 141.349777 
L 168.886931 141.678473 
L 169.131584 140.801951 
L 169.865543 135.981082 
L 170.110196 133.351516 
L 170.354849 132.58456 
L 170.599502 132.58456 
L 170.844155 134.337603 
L 171.088808 137.84369 
L 171.333461 139.487168 
L 171.578114 142.66456 
L 171.822767 141.130647 
L 172.06742 143.321951 
L 172.312073 142.007168 
L 172.556726 139.925429 
L 172.801379 140.582821 
L 173.046032 140.692386 
L 173.290685 143.541082 
L 173.535338 144.527168 
L 173.779991 144.855864 
L 174.024644 139.158473 
L 174.269298 142.774125 
L 174.758604 136.528908 
L 175.24791 135.433255 
L 175.492563 135.652386 
L 175.737216 134.228038 
L 175.981869 134.994995 
L 176.226522 135.214125 
L 176.471175 130.502821 
L 176.715828 128.968908 
L 176.960481 134.008908 
L 177.205134 133.570647 
L 177.449787 135.214125 
L 177.69444 129.845429 
L 177.939093 132.146299 
L 178.183746 129.516734 
L 178.428399 131.927168 
L 178.673052 131.708038 
L 178.917705 133.132386 
L 179.162358 132.694125 
L 179.407011 134.994995 
L 179.896317 156.798473 
L 180.14097 153.401951 
L 180.385623 152.087168 
L 181.119582 167.207168 
L 181.608888 159.647168 
L 181.853541 160.633255 
L 182.098194 159.208908 
L 182.342847 160.30456 
L 182.5875 159.428038 
L 182.832153 156.579342 
L 183.076806 155.154995 
L 183.321459 154.826299 
L 183.566112 155.26456 
L 183.810765 158.661082 
L 184.055418 155.374125 
L 184.300071 156.250647 
L 184.544724 154.388038 
L 184.789377 153.840212 
L 185.03403 154.935864 
L 185.278683 159.866299 
L 185.523336 158.989777 
L 185.767989 162.495864 
L 186.012642 160.414125 
L 186.257295 164.468038 
L 186.501948 162.167168 
L 186.746601 161.509777 
L 186.991254 159.756734 
L 187.235907 164.468038 
L 187.725213 162.057603 
L 187.969866 163.372386 
L 188.214519 159.099342 
L 188.459172 160.633255 
L 188.948478 172.028038 
L 189.193131 165.015864 
L 189.682437 174.000212 
L 189.92709 176.739342 
L 190.171743 175.972386 
L 190.416396 181.669777 
L 190.661049 180.68369 
L 190.905702 176.191516 
L 191.150355 174.328908 
L 191.395008 179.807168 
L 191.639661 174.657603 
L 191.884314 182.765429 
L 192.128967 184.518473 
L 192.37362 190.106299 
L 192.862926 193.502821 
L 193.107579 199.748038 
L 193.596885 190.54456 
L 193.841538 187.367168 
L 194.086191 180.135864 
L 194.575497 174.876734 
L 194.82015 170.932386 
L 195.064803 164.796734 
L 195.309456 168.741082 
L 195.554109 166.221082 
L 195.798762 165.125429 
L 196.043415 163.481951 
L 196.288068 167.645429 
L 196.532721 144.417603 
L 196.777375 136.857603 
L 197.022028 137.734125 
L 197.266681 136.200212 
L 197.511334 137.62456 
L 197.755987 135.981082 
L 198.00064 132.58456 
L 198.245293 133.351516 
L 198.489946 131.050647 
L 198.979252 123.052386 
L 199.223905 124.914995 
L 199.468558 124.148038 
L 199.713211 124.257603 
L 199.957864 126.777603 
L 200.44717 121.956734 
L 200.691823 124.367168 
L 200.936476 125.353255 
L 201.425782 130.612386 
L 201.670435 129.626299 
L 201.915088 132.474995 
L 202.159741 128.968908 
L 202.404394 133.899342 
L 202.649047 133.680212 
L 203.138353 149.676734 
L 203.383006 156.798473 
L 203.627659 157.017603 
L 204.361618 140.582821 
L 205.095577 137.734125 
L 205.829536 153.401951 
L 206.074189 148.361951 
L 206.318842 154.388038 
L 206.563495 157.127168 
L 206.808148 144.746299 
L 207.052801 139.596734 
L 207.78676 150.22456 
L 208.031413 150.991516 
L 208.276066 151.101082 
L 208.520719 146.718473 
L 208.765372 145.841951 
L 209.010025 144.417603 
L 209.254678 139.596734 
L 209.743984 150.662821 
L 210.23329 160.742821 
L 210.477943 159.866299 
L 210.722596 165.34456 
L 211.211902 156.360212 
L 211.456555 156.798473 
L 211.701208 154.168908 
L 212.190514 160.194995 
L 212.435167 159.099342 
L 212.67982 148.909777 
L 212.924473 146.280212 
L 213.169126 148.471516 
L 213.413779 144.417603 
L 213.658432 146.718473 
L 213.903085 146.170647 
L 214.147738 146.389777 
L 214.637044 145.951516 
L 214.881697 149.786299 
L 215.12635 149.128908 
L 215.371003 146.718473 
L 215.615656 147.266299 
L 216.104962 152.196734 
L 216.349615 151.429777 
L 216.594268 165.56369 
L 216.838921 163.372386 
L 217.083574 173.452386 
L 217.328227 175.205429 
L 217.57288 167.974125 
L 217.817533 173.342821 
L 218.062186 171.151516 
L 218.306839 174.986299 
L 218.551492 167.754995 
L 218.796145 171.699342 
L 219.040798 170.822821 
L 219.285452 164.687168 
L 219.530105 167.86456 
L 219.774758 159.208908 
L 220.019411 167.097603 
L 220.264064 161.948038 
L 220.508717 151.539342 
L 220.75337 156.031516 
L 220.998023 153.730647 
L 221.487329 146.061082 
L 221.731982 146.061082 
L 221.976635 141.788038 
L 222.221288 141.897603 
L 222.465941 141.678473 
L 222.710594 143.321951 
L 222.955247 140.911516 
L 223.1999 140.034995 
L 223.689206 146.389777 
L 223.933859 146.170647 
L 224.178512 151.320212 
L 224.423165 147.92369 
L 224.667818 148.142821 
L 224.912471 148.033255 
L 225.157124 148.252386 
L 225.401777 148.252386 
L 225.64643 127.434995 
L 225.891083 131.050647 
L 226.135736 127.982821 
L 226.380389 128.311516 
L 226.625042 131.598473 
L 226.869695 130.174125 
L 227.359001 119.327168 
L 227.603654 120.532386 
L 227.848307 120.751516 
L 228.09296 120.751516 
L 228.337613 112.64369 
L 228.582266 108.261082 
L 228.826919 113.191516 
L 229.071572 110.452386 
L 229.316225 105.960212 
L 229.560878 109.794995 
L 229.805531 111.328908 
L 230.050184 113.848908 
L 230.294837 111.657603 
L 230.53949 108.041951 
L 230.784143 95.770647 
L 231.028796 105.631516 
L 231.273449 104.426299 
L 231.518102 101.906299 
L 232.007408 112.972386 
L 232.252061 112.64369 
L 232.741367 109.137603 
L 232.98602 109.247168 
L 233.230673 108.041951 
L 233.475326 111.986299 
L 233.719979 105.08369 
L 234.209285 103.878473 
L 234.453938 101.796734 
L 234.698591 101.687168 
L 234.943244 101.248908 
L 235.43255 101.358473 
L 235.677203 101.029777 
L 235.921856 103.988038 
L 236.166509 100.701082 
L 236.411162 95.551516 
L 236.655815 96.208908 
L 236.900468 99.386299 
L 237.145121 93.688908 
L 237.389774 97.742821 
L 237.634427 99.495864 
L 238.123733 95.661082 
L 238.368386 92.593255 
L 238.613039 98.509777 
L 238.857692 91.607168 
L 239.346998 93.360212 
L 239.836304 88.539342 
L 240.32561 90.949777 
L 240.570263 90.949777 
L 240.814916 82.513255 
L 241.059569 79.226299 
L 241.304222 55.450647 
L 241.548875 56.98456 
L 241.793529 53.040212 
L 242.038182 51.834995 
L 242.527488 38.577603 
L 242.772141 46.247168 
L 243.016794 42.960212 
L 243.261447 46.356734 
L 243.5061 41.645429 
L 243.750753 47.342821 
L 243.995406 42.193255 
L 244.240059 45.261082 
L 244.484712 45.808908 
L 245.218671 78.130647 
L 245.463324 91.716734 
L 245.707977 98.838473 
L 246.197283 82.951516 
L 246.441936 82.513255 
L 246.686589 87.334125 
L 246.931242 102.125429 
L 247.420548 77.692386 
L 247.665201 85.033255 
L 247.909854 81.088908 
L 248.154507 91.388038 
L 248.643813 83.828038 
L 248.888466 88.210647 
L 249.133119 80.431516 
L 249.377772 79.88369 
L 249.622425 72.433255 
L 249.867078 81.965429 
L 250.111731 81.965429 
L 250.356384 91.388038 
L 250.601037 88.210647 
L 250.84569 89.854125 
L 251.090343 82.513255 
L 251.334996 97.085429 
L 251.579649 104.316734 
L 251.824302 92.702821 
L 252.068955 88.977603 
L 252.313608 74.186299 
L 252.558261 66.188038 
L 252.802914 70.461082 
L 253.047567 65.749777 
L 253.29222 55.121951 
L 253.536873 58.408908 
L 253.781526 57.861082 
L 254.026179 60.161951 
L 254.270832 61.257603 
L 254.515485 58.628038 
L 255.004791 42.850647 
L 255.249444 50.301082 
L 255.494097 53.478473 
L 255.73875 37.153255 
L 255.983403 41.645429 
L 256.228056 38.687168 
L 256.962015 44.38456 
L 257.206668 45.699342 
L 257.451321 42.631516 
L 257.695974 43.069777 
L 257.940627 48.767168 
L 258.18528 48.767168 
L 258.429933 59.72369 
L 258.674586 65.092386 
L 258.919239 62.901082 
L 259.163892 64.215864 
L 259.408545 73.309777 
L 259.653198 77.36369 
L 259.897851 68.708038 
L 260.142504 71.337603 
L 260.387157 64.106299 
L 260.63181 63.010647 
L 260.876463 69.913255 
L 261.121116 68.488908 
L 261.365769 69.58456 
L 261.610422 70.132386 
L 261.855075 64.76369 
L 262.099728 73.090647 
L 262.344381 65.859342 
L 262.589034 70.899342 
L 262.833687 84.594995 
L 263.07834 63.887168 
L 263.322993 69.036734 
L 263.567646 69.365429 
L 263.812299 73.200212 
L 264.056952 69.58456 
L 264.301606 83.280212 
L 264.790912 69.146299 
L 265.035565 60.161951 
L 265.280218 65.421082 
L 265.524871 77.034995 
L 265.769524 64.54456 
L 266.014177 61.586299 
L 266.25883 52.054125 
L 266.748136 57.641951 
L 266.992789 50.191516 
L 267.237442 52.821082 
L 267.482095 60.161951 
L 267.726748 71.666299 
L 267.971401 67.721951 
L 268.216054 69.474995 
L 268.460707 95.770647 
L 268.70536 102.34456 
L 269.194666 89.96369 
L 269.439319 106.727168 
L 269.683972 98.290647 
L 269.928625 109.794995 
L 270.173278 97.194995 
L 270.417931 105.850647 
L 270.662584 109.575864 
L 270.907237 95.661082 
L 271.15189 111.000212 
L 271.396543 98.400212 
L 271.641196 100.920212 
L 271.885849 96.208908 
L 272.130502 79.226299 
L 272.375155 83.280212 
L 272.619808 91.826299 
L 272.864461 121.628038 
L 273.109114 134.885429 
L 273.353767 138.391516 
L 273.59842 153.292386 
L 274.087726 134.885429 
L 274.332379 138.610647 
L 274.577032 134.008908 
L 275.066338 115.273255 
L 275.310991 113.629777 
L 275.800297 116.478473 
L 276.04495 112.42456 
L 276.534256 95.880212 
L 276.778909 105.631516 
L 277.023562 105.521951 
L 277.268215 107.38456 
L 277.512868 98.619342 
L 277.757521 99.82456 
L 278.002174 92.593255 
L 278.246827 89.854125 
L 278.736133 98.071516 
L 278.980786 91.826299 
L 279.225439 94.894125 
L 279.470092 87.334125 
L 279.714745 88.648908 
L 279.959398 95.222821 
L 280.204051 94.346299 
L 280.448704 104.645429 
L 280.93801 105.631516 
L 281.182663 114.177603 
L 281.427316 113.848908 
L 281.671969 118.560212 
L 281.916622 119.327168 
L 282.161275 112.095864 
L 282.405928 108.151516 
L 282.650581 111.876734 
L 282.895234 99.605429 
L 283.139887 99.82456 
L 283.38454 101.906299 
L 283.629193 92.593255 
L 283.873846 96.537603 
L 284.118499 87.772386 
L 284.363152 89.525429 
L 284.852458 83.608908 
L 285.097111 89.525429 
L 285.341764 80.102821 
L 285.586417 77.582821 
L 285.83107 77.473255 
L 286.075723 78.459342 
L 286.320376 92.374125 
L 286.56503 89.196734 
L 286.809683 88.429777 
L 287.054336 85.800212 
L 287.298989 70.680212 
L 287.788295 80.760212 
L 288.032948 65.968908 
L 288.277601 72.981082 
L 288.522254 72.981082 
L 288.766907 70.241951 
L 289.01156 70.132386 
L 289.256213 66.297603 
L 289.500866 57.970647 
L 289.745519 64.982821 
L 289.990172 60.052386 
L 290.234825 65.421082 
L 290.479478 63.668038 
L 290.724131 77.582821 
L 290.968784 77.692386 
L 291.213437 77.36369 
L 291.45809 76.377603 
L 291.702743 78.240212 
L 291.947396 67.721951 
L 292.192049 66.954995 
L 292.436702 65.530647 
L 292.681355 60.819342 
L 292.926008 63.996734 
L 293.415314 57.641951 
L 293.659967 55.779342 
L 293.90462 57.094125 
L 294.149273 54.793255 
L 294.393926 57.861082 
L 294.638579 55.998473 
L 294.883232 58.189777 
L 295.127885 67.502821 
L 295.617191 71.228038 
L 295.861844 66.845429 
L 296.106497 68.927168 
L 296.595803 64.106299 
L 296.840456 67.393255 
L 297.085109 60.052386 
L 297.329762 88.320212 
L 297.574415 98.071516 
L 297.819068 92.921951 
L 298.063721 80.650647 
L 298.308374 52.821082 
L 298.553027 57.20369 
L 298.79768 59.50456 
L 299.042333 56.217603 
L 299.286986 56.546299 
L 299.531639 46.356734 
L 299.776292 49.095864 
L 300.265598 51.834995 
L 300.510251 50.958473 
L 300.754904 54.135864 
L 300.999557 53.807168 
L 301.24421 52.054125 
L 301.488863 56.546299 
L 301.733516 56.436734 
L 301.978169 56.98456 
L 302.222822 50.081951 
L 302.467475 55.669777 
L 302.712128 70.022821 
L 302.956781 67.393255 
L 303.201434 69.58456 
L 303.69074 79.993255 
L 303.935393 79.226299 
L 304.180046 85.800212 
L 304.424699 77.36369 
L 304.914005 74.62456 
L 305.158658 75.172386 
L 305.403311 78.788038 
L 305.647964 78.459342 
L 306.13727 83.608908 
L 306.626576 77.801951 
L 306.871229 79.774125 
L 307.115882 78.130647 
L 307.360535 78.021082 
L 307.605188 80.321951 
L 307.849841 79.445429 
L 308.339147 79.88369 
L 308.5838 61.257603 
L 308.828453 58.189777 
L 309.073107 69.913255 
L 309.562413 64.76369 
L 309.807066 73.748038 
L 310.051719 73.309777 
L 310.296372 90.292386 
L 310.541025 74.295864 
L 310.785678 83.718473 
L 311.030331 85.361951 
L 311.274984 80.102821 
L 311.519637 81.308038 
L 312.008943 82.074995 
L 312.253596 81.088908 
L 312.498249 76.268038 
L 312.742902 78.568908 
L 312.987555 83.389777 
L 313.476861 75.939342 
L 313.721514 78.788038 
L 313.966167 70.461082 
L 314.21082 71.775864 
L 314.455473 78.568908 
L 314.700126 79.993255 
L 314.944779 80.212386 
L 315.189432 83.718473 
L 315.434085 79.88369 
L 315.678738 87.662821 
L 315.923391 86.786299 
L 316.168044 92.702821 
L 316.412697 90.730647 
L 316.65735 91.388038 
L 316.902003 89.96369 
L 317.146656 89.854125 
L 317.391309 90.292386 
L 317.635962 88.977603 
L 317.880615 84.594995 
L 318.125268 82.951516 
L 318.369921 65.859342 
L 318.614574 70.461082 
L 318.859227 56.217603 
L 319.10388 59.066299 
L 320.082492 84.594995 
L 320.571798 47.342821 
L 321.061104 92.154995 
L 321.305757 100.153255 
L 321.55041 97.633255 
L 321.795063 87.22456 
L 322.039716 85.252386 
L 322.284369 80.431516 
L 322.529022 81.198473 
L 322.773675 80.541082 
L 323.018328 75.939342 
L 323.262981 85.800212 
L 323.507634 77.254125 
L 323.752287 81.198473 
L 323.99694 81.855864 
L 324.241593 99.605429 
L 324.486246 103.988038 
L 324.730899 100.372386 
L 324.975552 101.906299 
L 325.220205 106.069777 
L 325.464858 91.935864 
L 325.709511 98.619342 
L 326.44347 79.445429 
L 326.688123 82.18456 
L 326.932776 61.586299 
L 327.177429 65.311516 
L 327.422082 62.901082 
L 327.666735 65.859342 
L 327.911388 59.833255 
L 328.156041 58.628038 
L 328.645347 57.970647 
L 328.89 61.476734 
L 329.134653 60.161951 
L 329.379306 65.749777 
L 329.623959 60.052386 
L 329.868612 60.600212 
L 330.113265 58.408908 
L 330.357918 57.751516 
L 330.847224 67.502821 
L 331.091877 57.641951 
L 331.33653 59.614125 
L 331.581184 62.791516 
L 331.825837 59.50456 
L 332.07049 58.080212 
L 332.315143 62.901082 
L 332.559796 56.217603 
L 332.804449 59.942821 
L 333.049102 59.175864 
L 333.293755 57.422821 
L 333.783061 67.174125 
L 334.027714 64.654125 
L 334.272367 66.297603 
L 334.51702 70.570647 
L 334.761673 69.255864 
L 335.006326 65.421082 
L 335.250979 69.255864 
L 335.495632 70.132386 
L 335.740285 64.215864 
L 336.229591 58.518473 
L 336.474244 58.080212 
L 336.718897 58.518473 
L 336.96355 54.354995 
L 337.208203 78.130647 
L 337.452856 85.800212 
L 337.697509 58.737603 
L 337.942162 62.24369 
L 338.186815 59.614125 
L 338.431468 54.245429 
L 338.676121 71.885429 
L 339.165427 68.927168 
L 339.41008 71.775864 
L 339.654733 72.32369 
L 339.899386 73.200212 
L 340.144039 77.801951 
L 340.388692 78.788038 
L 340.633345 71.556734 
L 340.877998 71.008908 
L 341.122651 67.06456 
L 341.367304 70.899342 
L 341.611957 63.339342 
L 341.85661 59.72369 
L 342.101263 61.148038 
L 342.590569 68.269777 
L 342.835222 69.365429 
L 343.079875 69.146299 
L 343.569181 74.514995 
L 343.813834 72.652386 
L 344.058487 72.10456 
L 344.30314 77.254125 
L 344.547793 79.445429 
L 344.792446 79.774125 
L 345.526405 68.160212 
L 345.771058 67.393255 
L 346.015711 64.982821 
L 346.260364 68.708038 
L 346.505017 65.092386 
L 346.74967 68.927168 
L 346.994323 67.831516 
L 347.238976 61.257603 
L 347.483629 62.572386 
L 347.728282 58.628038 
L 347.972935 59.066299 
L 348.217588 54.135864 
L 348.462241 52.821082 
L 348.706894 57.094125 
L 348.951547 58.408908 
L 349.1962 58.080212 
L 349.440853 68.708038 
L 349.685506 72.214125 
L 349.930159 58.080212 
L 350.174812 57.861082 
L 351.153424 66.626299 
L 351.398077 62.134125 
L 351.64273 59.833255 
L 351.887383 49.534125 
L 352.132036 52.821082 
L 352.376689 59.942821 
L 352.621342 58.408908 
L 352.865995 50.410647 
L 353.110648 46.247168 
L 353.355301 46.90456 
L 353.599954 46.247168 
L 353.844607 41.645429 
L 354.333914 43.508038 
L 354.578567 40.988038 
L 355.067873 34.414125 
L 355.557179 38.577603 
L 355.801832 39.125429 
L 356.046485 43.179342 
L 356.291138 51.615864 
L 356.535791 54.354995 
L 356.780444 51.396734 
L 357.025097 50.410647 
L 357.26975 48.767168 
L 357.514403 56.327168 
L 357.759056 53.149777 
L 358.003709 58.080212 
L 358.248362 58.628038 
L 358.493015 60.052386 
L 358.737668 59.50456 
L 358.982321 59.50456 
L 359.226974 69.694125 
L 359.471627 68.927168 
L 359.71628 79.007168 
L 359.960933 78.240212 
L 360.205586 78.130647 
L 360.694892 79.66456 
L 360.939545 77.911516 
L 361.184198 79.774125 
L 361.428851 80.431516 
L 361.673504 77.692386 
L 361.918157 77.14456 
L 362.16281 73.528908 
L 362.407463 72.761951 
L 362.652116 71.556734 
L 362.896769 67.831516 
L 363.141422 71.447168 
L 363.386075 69.036734 
L 363.630728 72.10456 
L 363.875381 66.735864 
L 364.120034 66.954995 
L 364.364687 66.735864 
L 364.60934 70.132386 
L 364.853993 69.146299 
L 365.098646 73.528908 
L 365.343299 68.269777 
L 365.587952 75.829777 
L 365.832605 75.062821 
L 366.077258 69.474995 
L 366.321911 73.309777 
L 366.811217 77.36369 
L 367.05587 73.857603 
L 367.545176 70.899342 
L 367.789829 67.28369 
L 368.279135 80.979342 
L 368.523788 79.116734 
L 368.768441 75.501082 
L 369.013094 79.226299 
L 369.257747 92.593255 
L 369.5024 96.975864 
L 369.747053 98.948038 
L 369.991706 92.48369 
L 370.236359 95.332386 
L 370.481012 105.960212 
L 370.725665 103.549777 
L 371.214971 106.727168 
L 371.459624 102.673255 
L 371.704277 106.288908 
L 371.94893 100.153255 
L 372.193583 102.454125 
L 372.438236 100.920212 
L 372.682889 105.741082 
L 372.927542 103.768908 
L 373.661501 108.699342 
L 374.150807 112.64369 
L 374.39546 107.713255 
L 374.640113 106.288908 
L 375.129419 107.494125 
L 375.374072 105.960212 
L 375.618725 101.139342 
L 375.863378 102.892386 
L 376.352684 101.139342 
L 376.597338 100.810647 
L 376.841991 104.316734 
L 377.086644 97.30456 
L 377.331297 94.455864 
L 377.57595 93.360212 
L 378.065256 96.208908 
L 378.554562 104.316734 
L 378.799215 105.193255 
L 379.043868 102.015864 
L 379.288521 101.796734 
L 379.533174 101.248908 
L 379.777827 101.358473 
L 380.267133 105.741082 
L 380.511786 120.861082 
L 380.756439 97.52369 
L 381.490398 102.56369 
L 381.490398 102.56369 
" style="fill:none;stroke:#ff7f0e;stroke-linecap:square;stroke-width:1.5;"/>
   </g>
   <g id="patch_3">
    <path d="M 40.603125 288.430125 
L 40.603125 22.318125 
" style="fill:none;stroke:#000000;stroke-linecap:square;stroke-linejoin:miter;stroke-width:0.8;"/>
   </g>
   <g id="patch_4">
    <path d="M 397.723125 288.430125 
L 397.723125 22.318125 
" style="fill:none;stroke:#000000;stroke-linecap:square;stroke-linejoin:miter;stroke-width:0.8;"/>
   </g>
   <g id="patch_5">
    <path d="M 40.603125 288.430125 
L 397.723125 288.430125 
" style="fill:none;stroke:#000000;stroke-linecap:square;stroke-linejoin:miter;stroke-width:0.8;"/>
   </g>
   <g id="patch_6">
    <path d="M 40.603125 22.318125 
L 397.723125 22.318125 
" style="fill:none;stroke:#000000;stroke-linecap:square;stroke-linejoin:miter;stroke-width:0.8;"/>
   </g>
   <g id="text_15">
    <!-- Training: MDLZ -->
    <defs>
     <path d="M -0.296875 72.90625 
L 61.375 72.90625 
L 61.375 64.59375 
L 35.5 64.59375 
L 35.5 0 
L 25.59375 0 
L 25.59375 64.59375 
L -0.296875 64.59375 
z
" id="DejaVuSans-84"/>
     <path d="M 54.890625 33.015625 
L 54.890625 0 
L 45.90625 0 
L 45.90625 32.71875 
Q 45.90625 40.484375 42.875 44.328125 
Q 39.84375 48.1875 33.796875 48.1875 
Q 26.515625 48.1875 22.3125 43.546875 
Q 18.109375 38.921875 18.109375 30.90625 
L 18.109375 0 
L 9.078125 0 
L 9.078125 54.6875 
L 18.109375 54.6875 
L 18.109375 46.1875 
Q 21.34375 51.125 25.703125 53.5625 
Q 30.078125 56 35.796875 56 
Q 45.21875 56 50.046875 50.171875 
Q 54.890625 44.34375 54.890625 33.015625 
z
" id="DejaVuSans-110"/>
     <path d="M 45.40625 27.984375 
Q 45.40625 37.75 41.375 43.109375 
Q 37.359375 48.484375 30.078125 48.484375 
Q 22.859375 48.484375 18.828125 43.109375 
Q 14.796875 37.75 14.796875 27.984375 
Q 14.796875 18.265625 18.828125 12.890625 
Q 22.859375 7.515625 30.078125 7.515625 
Q 37.359375 7.515625 41.375 12.890625 
Q 45.40625 18.265625 45.40625 27.984375 
z
M 54.390625 6.78125 
Q 54.390625 -7.171875 48.1875 -13.984375 
Q 42 -20.796875 29.203125 -20.796875 
Q 24.46875 -20.796875 20.265625 -20.09375 
Q 16.0625 -19.390625 12.109375 -17.921875 
L 12.109375 -9.1875 
Q 16.0625 -11.328125 19.921875 -12.34375 
Q 23.78125 -13.375 27.78125 -13.375 
Q 36.625 -13.375 41.015625 -8.765625 
Q 45.40625 -4.15625 45.40625 5.171875 
L 45.40625 9.625 
Q 42.625 4.78125 38.28125 2.390625 
Q 33.9375 0 27.875 0 
Q 17.828125 0 11.671875 7.65625 
Q 5.515625 15.328125 5.515625 27.984375 
Q 5.515625 40.671875 11.671875 48.328125 
Q 17.828125 56 27.875 56 
Q 33.9375 56 38.28125 53.609375 
Q 42.625 51.21875 45.40625 46.390625 
L 45.40625 54.6875 
L 54.390625 54.6875 
z
" id="DejaVuSans-103"/>
     <path d="M 11.71875 12.40625 
L 22.015625 12.40625 
L 22.015625 0 
L 11.71875 0 
z
M 11.71875 51.703125 
L 22.015625 51.703125 
L 22.015625 39.3125 
L 11.71875 39.3125 
z
" id="DejaVuSans-58"/>
     <path d="M 9.8125 72.90625 
L 24.515625 72.90625 
L 43.109375 23.296875 
L 61.8125 72.90625 
L 76.515625 72.90625 
L 76.515625 0 
L 66.890625 0 
L 66.890625 64.015625 
L 48.09375 14.015625 
L 38.1875 14.015625 
L 19.390625 64.015625 
L 19.390625 0 
L 9.8125 0 
z
" id="DejaVuSans-77"/>
     <path d="M 9.8125 72.90625 
L 19.671875 72.90625 
L 19.671875 8.296875 
L 55.171875 8.296875 
L 55.171875 0 
L 9.8125 0 
z
" id="DejaVuSans-76"/>
     <path d="M 5.609375 72.90625 
L 62.890625 72.90625 
L 62.890625 65.375 
L 16.796875 8.296875 
L 64.015625 8.296875 
L 64.015625 0 
L 4.5 0 
L 4.5 7.515625 
L 50.59375 64.59375 
L 5.609375 64.59375 
z
" id="DejaVuSans-90"/>
    </defs>
    <g transform="translate(174.314063 16.318125)scale(0.12 -0.12)">
     <use xlink:href="#DejaVuSans-84"/>
     <use x="46.333984" xlink:href="#DejaVuSans-114"/>
     <use x="87.447266" xlink:href="#DejaVuSans-97"/>
     <use x="148.726562" xlink:href="#DejaVuSans-105"/>
     <use x="176.509766" xlink:href="#DejaVuSans-110"/>
     <use x="239.888672" xlink:href="#DejaVuSans-105"/>
     <use x="267.671875" xlink:href="#DejaVuSans-110"/>
     <use x="331.050781" xlink:href="#DejaVuSans-103"/>
     <use x="394.527344" xlink:href="#DejaVuSans-58"/>
     <use x="428.21875" xlink:href="#DejaVuSans-32"/>
     <use x="460.005859" xlink:href="#DejaVuSans-77"/>
     <use x="546.285156" xlink:href="#DejaVuSans-68"/>
     <use x="623.287109" xlink:href="#DejaVuSans-76"/>
     <use x="679" xlink:href="#DejaVuSans-90"/>
    </g>
   </g>
   <g id="legend_1">
    <g id="patch_7">
     <path d="M 47.603125 59.674375 
L 131.33125 59.674375 
Q 133.33125 59.674375 133.33125 57.674375 
L 133.33125 29.318125 
Q 133.33125 27.318125 131.33125 27.318125 
L 47.603125 27.318125 
Q 45.603125 27.318125 45.603125 29.318125 
L 45.603125 57.674375 
Q 45.603125 59.674375 47.603125 59.674375 
z
" style="fill:#ffffff;opacity:0.8;stroke:#cccccc;stroke-linejoin:miter;"/>
    </g>
    <g id="line2d_27">
     <path d="M 49.603125 35.416562 
L 69.603125 35.416562 
" style="fill:none;stroke:#1f77b4;stroke-linecap:square;stroke-width:1.5;"/>
    </g>
    <g id="line2d_28"/>
    <g id="text_16">
     <!-- Predicted -->
     <defs>
      <path d="M 45.40625 46.390625 
L 45.40625 75.984375 
L 54.390625 75.984375 
L 54.390625 0 
L 45.40625 0 
L 45.40625 8.203125 
Q 42.578125 3.328125 38.25 0.953125 
Q 33.9375 -1.421875 27.875 -1.421875 
Q 17.96875 -1.421875 11.734375 6.484375 
Q 5.515625 14.40625 5.515625 27.296875 
Q 5.515625 40.1875 11.734375 48.09375 
Q 17.96875 56 27.875 56 
Q 33.9375 56 38.25 53.625 
Q 42.578125 51.265625 45.40625 46.390625 
z
M 14.796875 27.296875 
Q 14.796875 17.390625 18.875 11.75 
Q 22.953125 6.109375 30.078125 6.109375 
Q 37.203125 6.109375 41.296875 11.75 
Q 45.40625 17.390625 45.40625 27.296875 
Q 45.40625 37.203125 41.296875 42.84375 
Q 37.203125 48.484375 30.078125 48.484375 
Q 22.953125 48.484375 18.875 42.84375 
Q 14.796875 37.203125 14.796875 27.296875 
z
" id="DejaVuSans-100"/>
      <path d="M 18.3125 70.21875 
L 18.3125 54.6875 
L 36.8125 54.6875 
L 36.8125 47.703125 
L 18.3125 47.703125 
L 18.3125 18.015625 
Q 18.3125 11.328125 20.140625 9.421875 
Q 21.96875 7.515625 27.59375 7.515625 
L 36.8125 7.515625 
L 36.8125 0 
L 27.59375 0 
Q 17.1875 0 13.234375 3.875 
Q 9.28125 7.765625 9.28125 18.015625 
L 9.28125 47.703125 
L 2.6875 47.703125 
L 2.6875 54.6875 
L 9.28125 54.6875 
L 9.28125 70.21875 
z
" id="DejaVuSans-116"/>
     </defs>
     <g transform="translate(77.603125 38.916562)scale(0.1 -0.1)">
      <use xlink:href="#DejaVuSans-80"/>
      <use x="58.552734" xlink:href="#DejaVuSans-114"/>
      <use x="97.416016" xlink:href="#DejaVuSans-101"/>
      <use x="158.939453" xlink:href="#DejaVuSans-100"/>
      <use x="222.416016" xlink:href="#DejaVuSans-105"/>
      <use x="250.199219" xlink:href="#DejaVuSans-99"/>
      <use x="305.179688" xlink:href="#DejaVuSans-116"/>
      <use x="344.388672" xlink:href="#DejaVuSans-101"/>
      <use x="405.912109" xlink:href="#DejaVuSans-100"/>
     </g>
    </g>
    <g id="line2d_29">
     <path d="M 49.603125 50.094687 
L 69.603125 50.094687 
" style="fill:none;stroke:#ff7f0e;stroke-linecap:square;stroke-width:1.5;"/>
    </g>
    <g id="line2d_30"/>
    <g id="text_17">
     <!-- True value -->
     <defs>
      <path d="M 8.5 21.578125 
L 8.5 54.6875 
L 17.484375 54.6875 
L 17.484375 21.921875 
Q 17.484375 14.15625 20.5 10.265625 
Q 23.53125 6.390625 29.59375 6.390625 
Q 36.859375 6.390625 41.078125 11.03125 
Q 45.3125 15.671875 45.3125 23.6875 
L 45.3125 54.6875 
L 54.296875 54.6875 
L 54.296875 0 
L 45.3125 0 
L 45.3125 8.40625 
Q 42.046875 3.421875 37.71875 1 
Q 33.40625 -1.421875 27.6875 -1.421875 
Q 18.265625 -1.421875 13.375 4.4375 
Q 8.5 10.296875 8.5 21.578125 
z
M 31.109375 56 
z
" id="DejaVuSans-117"/>
      <path d="M 2.984375 54.6875 
L 12.5 54.6875 
L 29.59375 8.796875 
L 46.6875 54.6875 
L 56.203125 54.6875 
L 35.6875 0 
L 23.484375 0 
z
" id="DejaVuSans-118"/>
      <path d="M 9.421875 75.984375 
L 18.40625 75.984375 
L 18.40625 0 
L 9.421875 0 
z
" id="DejaVuSans-108"/>
     </defs>
     <g transform="translate(77.603125 53.594687)scale(0.1 -0.1)">
      <use xlink:href="#DejaVuSans-84"/>
      <use x="46.333984" xlink:href="#DejaVuSans-114"/>
      <use x="87.447266" xlink:href="#DejaVuSans-117"/>
      <use x="150.826172" xlink:href="#DejaVuSans-101"/>
      <use x="212.349609" xlink:href="#DejaVuSans-32"/>
      <use x="244.136719" xlink:href="#DejaVuSans-118"/>
      <use x="303.316406" xlink:href="#DejaVuSans-97"/>
      <use x="364.595703" xlink:href="#DejaVuSans-108"/>
      <use x="392.378906" xlink:href="#DejaVuSans-117"/>
      <use x="455.757812" xlink:href="#DejaVuSans-101"/>
     </g>
    </g>
   </g>
  </g>
 </g>
 <defs>
  <clipPath id="p48635c22f4">
   <rect height="266.112" width="357.12" x="40.603125" y="22.318125"/>
  </clipPath>
 </defs>
</svg>
