<?xml version="1.0" encoding="utf-8" standalone="no"?>
<!DOCTYPE svg PUBLIC "-//W3C//DTD SVG 1.1//EN"
  "http://www.w3.org/Graphics/SVG/1.1/DTD/svg11.dtd">
<!-- Created with matplotlib (https://matplotlib.org/) -->
<svg height="325.986375pt" version="1.1" viewBox="0 0 406.940312 325.986375" width="406.940312pt" xmlns="http://www.w3.org/2000/svg" xmlns:xlink="http://www.w3.org/1999/xlink">
 <defs>
  <style type="text/css">
*{stroke-linecap:butt;stroke-linejoin:round;}
  </style>
 </defs>
 <g id="figure_1">
  <g id="patch_1">
   <path d="M 0 325.986375 
L 406.940312 325.986375 
L 406.940312 0 
L 0 0 
z
" style="fill:#ffffff;"/>
  </g>
  <g id="axes_1">
   <g id="patch_2">
    <path d="M 42.620313 288.430125 
L 399.740313 288.430125 
L 399.740313 22.318125 
L 42.620313 22.318125 
z
" style="fill:#ffffff;"/>
   </g>
   <g id="matplotlib.axis_1">
    <g id="xtick_1">
     <g id="line2d_1">
      <path clip-path="url(#pea5faf8fb8)" d="M 58.85304 288.430125 
L 58.85304 22.318125 
" style="fill:none;stroke:#b0b0b0;stroke-dasharray:2.96,1.28;stroke-dashoffset:0;stroke-width:0.8;"/>
     </g>
     <g id="line2d_2">
      <defs>
       <path d="M 0 0 
L 0 3.5 
" id="m4d13caac95" style="stroke:#000000;stroke-width:0.8;"/>
      </defs>
      <g>
       <use style="stroke:#000000;stroke-width:0.8;" x="58.85304" xlink:href="#m4d13caac95" y="288.430125"/>
      </g>
     </g>
     <g id="text_1">
      <!-- 0 -->
      <defs>
       <path d="M 31.78125 66.40625 
Q 24.171875 66.40625 20.328125 58.90625 
Q 16.5 51.421875 16.5 36.375 
Q 16.5 21.390625 20.328125 13.890625 
Q 24.171875 6.390625 31.78125 6.390625 
Q 39.453125 6.390625 43.28125 13.890625 
Q 47.125 21.390625 47.125 36.375 
Q 47.125 51.421875 43.28125 58.90625 
Q 39.453125 66.40625 31.78125 66.40625 
z
M 31.78125 74.21875 
Q 44.046875 74.21875 50.515625 64.515625 
Q 56.984375 54.828125 56.984375 36.375 
Q 56.984375 17.96875 50.515625 8.265625 
Q 44.046875 -1.421875 31.78125 -1.421875 
Q 19.53125 -1.421875 13.0625 8.265625 
Q 6.59375 17.96875 6.59375 36.375 
Q 6.59375 54.828125 13.0625 64.515625 
Q 19.53125 74.21875 31.78125 74.21875 
z
" id="DejaVuSans-48"/>
      </defs>
      <g transform="translate(55.67179 303.028562)scale(0.1 -0.1)">
       <use xlink:href="#DejaVuSans-48"/>
      </g>
     </g>
    </g>
    <g id="xtick_2">
     <g id="line2d_3">
      <path clip-path="url(#pea5faf8fb8)" d="M 107.783642 288.430125 
L 107.783642 22.318125 
" style="fill:none;stroke:#b0b0b0;stroke-dasharray:2.96,1.28;stroke-dashoffset:0;stroke-width:0.8;"/>
     </g>
     <g id="line2d_4">
      <g>
       <use style="stroke:#000000;stroke-width:0.8;" x="107.783642" xlink:href="#m4d13caac95" y="288.430125"/>
      </g>
     </g>
     <g id="text_2">
      <!-- 200 -->
      <defs>
       <path d="M 19.1875 8.296875 
L 53.609375 8.296875 
L 53.609375 0 
L 7.328125 0 
L 7.328125 8.296875 
Q 12.9375 14.109375 22.625 23.890625 
Q 32.328125 33.6875 34.8125 36.53125 
Q 39.546875 41.84375 41.421875 45.53125 
Q 43.3125 49.21875 43.3125 52.78125 
Q 43.3125 58.59375 39.234375 62.25 
Q 35.15625 65.921875 28.609375 65.921875 
Q 23.96875 65.921875 18.8125 64.3125 
Q 13.671875 62.703125 7.8125 59.421875 
L 7.8125 69.390625 
Q 13.765625 71.78125 18.9375 73 
Q 24.125 74.21875 28.421875 74.21875 
Q 39.75 74.21875 46.484375 68.546875 
Q 53.21875 62.890625 53.21875 53.421875 
Q 53.21875 48.921875 51.53125 44.890625 
Q 49.859375 40.875 45.40625 35.40625 
Q 44.1875 33.984375 37.640625 27.21875 
Q 31.109375 20.453125 19.1875 8.296875 
z
" id="DejaVuSans-50"/>
      </defs>
      <g transform="translate(98.239892 303.028562)scale(0.1 -0.1)">
       <use xlink:href="#DejaVuSans-50"/>
       <use x="63.623047" xlink:href="#DejaVuSans-48"/>
       <use x="127.246094" xlink:href="#DejaVuSans-48"/>
      </g>
     </g>
    </g>
    <g id="xtick_3">
     <g id="line2d_5">
      <path clip-path="url(#pea5faf8fb8)" d="M 156.714244 288.430125 
L 156.714244 22.318125 
" style="fill:none;stroke:#b0b0b0;stroke-dasharray:2.96,1.28;stroke-dashoffset:0;stroke-width:0.8;"/>
     </g>
     <g id="line2d_6">
      <g>
       <use style="stroke:#000000;stroke-width:0.8;" x="156.714244" xlink:href="#m4d13caac95" y="288.430125"/>
      </g>
     </g>
     <g id="text_3">
      <!-- 400 -->
      <defs>
       <path d="M 37.796875 64.3125 
L 12.890625 25.390625 
L 37.796875 25.390625 
z
M 35.203125 72.90625 
L 47.609375 72.90625 
L 47.609375 25.390625 
L 58.015625 25.390625 
L 58.015625 17.1875 
L 47.609375 17.1875 
L 47.609375 0 
L 37.796875 0 
L 37.796875 17.1875 
L 4.890625 17.1875 
L 4.890625 26.703125 
z
" id="DejaVuSans-52"/>
      </defs>
      <g transform="translate(147.170494 303.028562)scale(0.1 -0.1)">
       <use xlink:href="#DejaVuSans-52"/>
       <use x="63.623047" xlink:href="#DejaVuSans-48"/>
       <use x="127.246094" xlink:href="#DejaVuSans-48"/>
      </g>
     </g>
    </g>
    <g id="xtick_4">
     <g id="line2d_7">
      <path clip-path="url(#pea5faf8fb8)" d="M 205.644846 288.430125 
L 205.644846 22.318125 
" style="fill:none;stroke:#b0b0b0;stroke-dasharray:2.96,1.28;stroke-dashoffset:0;stroke-width:0.8;"/>
     </g>
     <g id="line2d_8">
      <g>
       <use style="stroke:#000000;stroke-width:0.8;" x="205.644846" xlink:href="#m4d13caac95" y="288.430125"/>
      </g>
     </g>
     <g id="text_4">
      <!-- 600 -->
      <defs>
       <path d="M 33.015625 40.375 
Q 26.375 40.375 22.484375 35.828125 
Q 18.609375 31.296875 18.609375 23.390625 
Q 18.609375 15.53125 22.484375 10.953125 
Q 26.375 6.390625 33.015625 6.390625 
Q 39.65625 6.390625 43.53125 10.953125 
Q 47.40625 15.53125 47.40625 23.390625 
Q 47.40625 31.296875 43.53125 35.828125 
Q 39.65625 40.375 33.015625 40.375 
z
M 52.59375 71.296875 
L 52.59375 62.3125 
Q 48.875 64.0625 45.09375 64.984375 
Q 41.3125 65.921875 37.59375 65.921875 
Q 27.828125 65.921875 22.671875 59.328125 
Q 17.53125 52.734375 16.796875 39.40625 
Q 19.671875 43.65625 24.015625 45.921875 
Q 28.375 48.1875 33.59375 48.1875 
Q 44.578125 48.1875 50.953125 41.515625 
Q 57.328125 34.859375 57.328125 23.390625 
Q 57.328125 12.15625 50.6875 5.359375 
Q 44.046875 -1.421875 33.015625 -1.421875 
Q 20.359375 -1.421875 13.671875 8.265625 
Q 6.984375 17.96875 6.984375 36.375 
Q 6.984375 53.65625 15.1875 63.9375 
Q 23.390625 74.21875 37.203125 74.21875 
Q 40.921875 74.21875 44.703125 73.484375 
Q 48.484375 72.75 52.59375 71.296875 
z
" id="DejaVuSans-54"/>
      </defs>
      <g transform="translate(196.101096 303.028562)scale(0.1 -0.1)">
       <use xlink:href="#DejaVuSans-54"/>
       <use x="63.623047" xlink:href="#DejaVuSans-48"/>
       <use x="127.246094" xlink:href="#DejaVuSans-48"/>
      </g>
     </g>
    </g>
    <g id="xtick_5">
     <g id="line2d_9">
      <path clip-path="url(#pea5faf8fb8)" d="M 254.575448 288.430125 
L 254.575448 22.318125 
" style="fill:none;stroke:#b0b0b0;stroke-dasharray:2.96,1.28;stroke-dashoffset:0;stroke-width:0.8;"/>
     </g>
     <g id="line2d_10">
      <g>
       <use style="stroke:#000000;stroke-width:0.8;" x="254.575448" xlink:href="#m4d13caac95" y="288.430125"/>
      </g>
     </g>
     <g id="text_5">
      <!-- 800 -->
      <defs>
       <path d="M 31.78125 34.625 
Q 24.75 34.625 20.71875 30.859375 
Q 16.703125 27.09375 16.703125 20.515625 
Q 16.703125 13.921875 20.71875 10.15625 
Q 24.75 6.390625 31.78125 6.390625 
Q 38.8125 6.390625 42.859375 10.171875 
Q 46.921875 13.96875 46.921875 20.515625 
Q 46.921875 27.09375 42.890625 30.859375 
Q 38.875 34.625 31.78125 34.625 
z
M 21.921875 38.8125 
Q 15.578125 40.375 12.03125 44.71875 
Q 8.5 49.078125 8.5 55.328125 
Q 8.5 64.0625 14.71875 69.140625 
Q 20.953125 74.21875 31.78125 74.21875 
Q 42.671875 74.21875 48.875 69.140625 
Q 55.078125 64.0625 55.078125 55.328125 
Q 55.078125 49.078125 51.53125 44.71875 
Q 48 40.375 41.703125 38.8125 
Q 48.828125 37.15625 52.796875 32.3125 
Q 56.78125 27.484375 56.78125 20.515625 
Q 56.78125 9.90625 50.3125 4.234375 
Q 43.84375 -1.421875 31.78125 -1.421875 
Q 19.734375 -1.421875 13.25 4.234375 
Q 6.78125 9.90625 6.78125 20.515625 
Q 6.78125 27.484375 10.78125 32.3125 
Q 14.796875 37.15625 21.921875 38.8125 
z
M 18.3125 54.390625 
Q 18.3125 48.734375 21.84375 45.5625 
Q 25.390625 42.390625 31.78125 42.390625 
Q 38.140625 42.390625 41.71875 45.5625 
Q 45.3125 48.734375 45.3125 54.390625 
Q 45.3125 60.0625 41.71875 63.234375 
Q 38.140625 66.40625 31.78125 66.40625 
Q 25.390625 66.40625 21.84375 63.234375 
Q 18.3125 60.0625 18.3125 54.390625 
z
" id="DejaVuSans-56"/>
      </defs>
      <g transform="translate(245.031698 303.028562)scale(0.1 -0.1)">
       <use xlink:href="#DejaVuSans-56"/>
       <use x="63.623047" xlink:href="#DejaVuSans-48"/>
       <use x="127.246094" xlink:href="#DejaVuSans-48"/>
      </g>
     </g>
    </g>
    <g id="xtick_6">
     <g id="line2d_11">
      <path clip-path="url(#pea5faf8fb8)" d="M 303.506051 288.430125 
L 303.506051 22.318125 
" style="fill:none;stroke:#b0b0b0;stroke-dasharray:2.96,1.28;stroke-dashoffset:0;stroke-width:0.8;"/>
     </g>
     <g id="line2d_12">
      <g>
       <use style="stroke:#000000;stroke-width:0.8;" x="303.506051" xlink:href="#m4d13caac95" y="288.430125"/>
      </g>
     </g>
     <g id="text_6">
      <!-- 1000 -->
      <defs>
       <path d="M 12.40625 8.296875 
L 28.515625 8.296875 
L 28.515625 63.921875 
L 10.984375 60.40625 
L 10.984375 69.390625 
L 28.421875 72.90625 
L 38.28125 72.90625 
L 38.28125 8.296875 
L 54.390625 8.296875 
L 54.390625 0 
L 12.40625 0 
z
" id="DejaVuSans-49"/>
      </defs>
      <g transform="translate(290.781051 303.028562)scale(0.1 -0.1)">
       <use xlink:href="#DejaVuSans-49"/>
       <use x="63.623047" xlink:href="#DejaVuSans-48"/>
       <use x="127.246094" xlink:href="#DejaVuSans-48"/>
       <use x="190.869141" xlink:href="#DejaVuSans-48"/>
      </g>
     </g>
    </g>
    <g id="xtick_7">
     <g id="line2d_13">
      <path clip-path="url(#pea5faf8fb8)" d="M 352.436653 288.430125 
L 352.436653 22.318125 
" style="fill:none;stroke:#b0b0b0;stroke-dasharray:2.96,1.28;stroke-dashoffset:0;stroke-width:0.8;"/>
     </g>
     <g id="line2d_14">
      <g>
       <use style="stroke:#000000;stroke-width:0.8;" x="352.436653" xlink:href="#m4d13caac95" y="288.430125"/>
      </g>
     </g>
     <g id="text_7">
      <!-- 1200 -->
      <g transform="translate(339.711653 303.028562)scale(0.1 -0.1)">
       <use xlink:href="#DejaVuSans-49"/>
       <use x="63.623047" xlink:href="#DejaVuSans-50"/>
       <use x="127.246094" xlink:href="#DejaVuSans-48"/>
       <use x="190.869141" xlink:href="#DejaVuSans-48"/>
      </g>
     </g>
    </g>
    <g id="text_8">
     <!-- Day -->
     <defs>
      <path d="M 19.671875 64.796875 
L 19.671875 8.109375 
L 31.59375 8.109375 
Q 46.6875 8.109375 53.6875 14.9375 
Q 60.6875 21.78125 60.6875 36.53125 
Q 60.6875 51.171875 53.6875 57.984375 
Q 46.6875 64.796875 31.59375 64.796875 
z
M 9.8125 72.90625 
L 30.078125 72.90625 
Q 51.265625 72.90625 61.171875 64.09375 
Q 71.09375 55.28125 71.09375 36.53125 
Q 71.09375 17.671875 61.125 8.828125 
Q 51.171875 0 30.078125 0 
L 9.8125 0 
z
" id="DejaVuSans-68"/>
      <path d="M 34.28125 27.484375 
Q 23.390625 27.484375 19.1875 25 
Q 14.984375 22.515625 14.984375 16.5 
Q 14.984375 11.71875 18.140625 8.90625 
Q 21.296875 6.109375 26.703125 6.109375 
Q 34.1875 6.109375 38.703125 11.40625 
Q 43.21875 16.703125 43.21875 25.484375 
L 43.21875 27.484375 
z
M 52.203125 31.203125 
L 52.203125 0 
L 43.21875 0 
L 43.21875 8.296875 
Q 40.140625 3.328125 35.546875 0.953125 
Q 30.953125 -1.421875 24.3125 -1.421875 
Q 15.921875 -1.421875 10.953125 3.296875 
Q 6 8.015625 6 15.921875 
Q 6 25.140625 12.171875 29.828125 
Q 18.359375 34.515625 30.609375 34.515625 
L 43.21875 34.515625 
L 43.21875 35.40625 
Q 43.21875 41.609375 39.140625 45 
Q 35.0625 48.390625 27.6875 48.390625 
Q 23 48.390625 18.546875 47.265625 
Q 14.109375 46.140625 10.015625 43.890625 
L 10.015625 52.203125 
Q 14.9375 54.109375 19.578125 55.046875 
Q 24.21875 56 28.609375 56 
Q 40.484375 56 46.34375 49.84375 
Q 52.203125 43.703125 52.203125 31.203125 
z
" id="DejaVuSans-97"/>
      <path d="M 32.171875 -5.078125 
Q 28.375 -14.84375 24.75 -17.8125 
Q 21.140625 -20.796875 15.09375 -20.796875 
L 7.90625 -20.796875 
L 7.90625 -13.28125 
L 13.1875 -13.28125 
Q 16.890625 -13.28125 18.9375 -11.515625 
Q 21 -9.765625 23.484375 -3.21875 
L 25.09375 0.875 
L 2.984375 54.6875 
L 12.5 54.6875 
L 29.59375 11.921875 
L 46.6875 54.6875 
L 56.203125 54.6875 
z
" id="DejaVuSans-121"/>
     </defs>
     <g transform="translate(211.306875 316.706687)scale(0.1 -0.1)">
      <use xlink:href="#DejaVuSans-68"/>
      <use x="77.001953" xlink:href="#DejaVuSans-97"/>
      <use x="138.28125" xlink:href="#DejaVuSans-121"/>
     </g>
    </g>
   </g>
   <g id="matplotlib.axis_2">
    <g id="ytick_1">
     <g id="line2d_15">
      <path clip-path="url(#pea5faf8fb8)" d="M 42.620313 288.430125 
L 399.740313 288.430125 
" style="fill:none;stroke:#b0b0b0;stroke-dasharray:2.96,1.28;stroke-dashoffset:0;stroke-width:0.8;"/>
     </g>
     <g id="line2d_16">
      <defs>
       <path d="M 0 0 
L -3.5 0 
" id="m1d7aa36fc8" style="stroke:#000000;stroke-width:0.8;"/>
      </defs>
      <g>
       <use style="stroke:#000000;stroke-width:0.8;" x="42.620313" xlink:href="#m1d7aa36fc8" y="288.430125"/>
      </g>
     </g>
     <g id="text_9">
      <!-- −3 -->
      <defs>
       <path d="M 10.59375 35.5 
L 73.1875 35.5 
L 73.1875 27.203125 
L 10.59375 27.203125 
z
" id="DejaVuSans-8722"/>
       <path d="M 40.578125 39.3125 
Q 47.65625 37.796875 51.625 33 
Q 55.609375 28.21875 55.609375 21.1875 
Q 55.609375 10.40625 48.1875 4.484375 
Q 40.765625 -1.421875 27.09375 -1.421875 
Q 22.515625 -1.421875 17.65625 -0.515625 
Q 12.796875 0.390625 7.625 2.203125 
L 7.625 11.71875 
Q 11.71875 9.328125 16.59375 8.109375 
Q 21.484375 6.890625 26.8125 6.890625 
Q 36.078125 6.890625 40.9375 10.546875 
Q 45.796875 14.203125 45.796875 21.1875 
Q 45.796875 27.640625 41.28125 31.265625 
Q 36.765625 34.90625 28.71875 34.90625 
L 20.21875 34.90625 
L 20.21875 43.015625 
L 29.109375 43.015625 
Q 36.375 43.015625 40.234375 45.921875 
Q 44.09375 48.828125 44.09375 54.296875 
Q 44.09375 59.90625 40.109375 62.90625 
Q 36.140625 65.921875 28.71875 65.921875 
Q 24.65625 65.921875 20.015625 65.03125 
Q 15.375 64.15625 9.8125 62.3125 
L 9.8125 71.09375 
Q 15.4375 72.65625 20.34375 73.4375 
Q 25.25 74.21875 29.59375 74.21875 
Q 40.828125 74.21875 47.359375 69.109375 
Q 53.90625 64.015625 53.90625 55.328125 
Q 53.90625 49.265625 50.4375 45.09375 
Q 46.96875 40.921875 40.578125 39.3125 
z
" id="DejaVuSans-51"/>
      </defs>
      <g transform="translate(20.878125 292.229344)scale(0.1 -0.1)">
       <use xlink:href="#DejaVuSans-8722"/>
       <use x="83.789062" xlink:href="#DejaVuSans-51"/>
      </g>
     </g>
    </g>
    <g id="ytick_2">
     <g id="line2d_17">
      <path clip-path="url(#pea5faf8fb8)" d="M 42.620313 245.230125 
L 399.740313 245.230125 
" style="fill:none;stroke:#b0b0b0;stroke-dasharray:2.96,1.28;stroke-dashoffset:0;stroke-width:0.8;"/>
     </g>
     <g id="line2d_18">
      <g>
       <use style="stroke:#000000;stroke-width:0.8;" x="42.620313" xlink:href="#m1d7aa36fc8" y="245.230125"/>
      </g>
     </g>
     <g id="text_10">
      <!-- −2 -->
      <g transform="translate(20.878125 249.029344)scale(0.1 -0.1)">
       <use xlink:href="#DejaVuSans-8722"/>
       <use x="83.789062" xlink:href="#DejaVuSans-50"/>
      </g>
     </g>
    </g>
    <g id="ytick_3">
     <g id="line2d_19">
      <path clip-path="url(#pea5faf8fb8)" d="M 42.620313 202.030125 
L 399.740313 202.030125 
" style="fill:none;stroke:#b0b0b0;stroke-dasharray:2.96,1.28;stroke-dashoffset:0;stroke-width:0.8;"/>
     </g>
     <g id="line2d_20">
      <g>
       <use style="stroke:#000000;stroke-width:0.8;" x="42.620313" xlink:href="#m1d7aa36fc8" y="202.030125"/>
      </g>
     </g>
     <g id="text_11">
      <!-- −1 -->
      <g transform="translate(20.878125 205.829344)scale(0.1 -0.1)">
       <use xlink:href="#DejaVuSans-8722"/>
       <use x="83.789062" xlink:href="#DejaVuSans-49"/>
      </g>
     </g>
    </g>
    <g id="ytick_4">
     <g id="line2d_21">
      <path clip-path="url(#pea5faf8fb8)" d="M 42.620313 158.830125 
L 399.740313 158.830125 
" style="fill:none;stroke:#b0b0b0;stroke-dasharray:2.96,1.28;stroke-dashoffset:0;stroke-width:0.8;"/>
     </g>
     <g id="line2d_22">
      <g>
       <use style="stroke:#000000;stroke-width:0.8;" x="42.620313" xlink:href="#m1d7aa36fc8" y="158.830125"/>
      </g>
     </g>
     <g id="text_12">
      <!-- 0 -->
      <g transform="translate(29.257813 162.629344)scale(0.1 -0.1)">
       <use xlink:href="#DejaVuSans-48"/>
      </g>
     </g>
    </g>
    <g id="ytick_5">
     <g id="line2d_23">
      <path clip-path="url(#pea5faf8fb8)" d="M 42.620313 115.630125 
L 399.740313 115.630125 
" style="fill:none;stroke:#b0b0b0;stroke-dasharray:2.96,1.28;stroke-dashoffset:0;stroke-width:0.8;"/>
     </g>
     <g id="line2d_24">
      <g>
       <use style="stroke:#000000;stroke-width:0.8;" x="42.620313" xlink:href="#m1d7aa36fc8" y="115.630125"/>
      </g>
     </g>
     <g id="text_13">
      <!-- 1 -->
      <g transform="translate(29.257813 119.429344)scale(0.1 -0.1)">
       <use xlink:href="#DejaVuSans-49"/>
      </g>
     </g>
    </g>
    <g id="ytick_6">
     <g id="line2d_25">
      <path clip-path="url(#pea5faf8fb8)" d="M 42.620313 72.430125 
L 399.740313 72.430125 
" style="fill:none;stroke:#b0b0b0;stroke-dasharray:2.96,1.28;stroke-dashoffset:0;stroke-width:0.8;"/>
     </g>
     <g id="line2d_26">
      <g>
       <use style="stroke:#000000;stroke-width:0.8;" x="42.620313" xlink:href="#m1d7aa36fc8" y="72.430125"/>
      </g>
     </g>
     <g id="text_14">
      <!-- 2 -->
      <g transform="translate(29.257813 76.229344)scale(0.1 -0.1)">
       <use xlink:href="#DejaVuSans-50"/>
      </g>
     </g>
    </g>
    <g id="ytick_7">
     <g id="line2d_27">
      <path clip-path="url(#pea5faf8fb8)" d="M 42.620313 29.230125 
L 399.740313 29.230125 
" style="fill:none;stroke:#b0b0b0;stroke-dasharray:2.96,1.28;stroke-dashoffset:0;stroke-width:0.8;"/>
     </g>
     <g id="line2d_28">
      <g>
       <use style="stroke:#000000;stroke-width:0.8;" x="42.620313" xlink:href="#m1d7aa36fc8" y="29.230125"/>
      </g>
     </g>
     <g id="text_15">
      <!-- 3 -->
      <g transform="translate(29.257813 33.029344)scale(0.1 -0.1)">
       <use xlink:href="#DejaVuSans-51"/>
      </g>
     </g>
    </g>
    <g id="text_16">
     <!-- Change $ -->
     <defs>
      <path d="M 64.40625 67.28125 
L 64.40625 56.890625 
Q 59.421875 61.53125 53.78125 63.8125 
Q 48.140625 66.109375 41.796875 66.109375 
Q 29.296875 66.109375 22.65625 58.46875 
Q 16.015625 50.828125 16.015625 36.375 
Q 16.015625 21.96875 22.65625 14.328125 
Q 29.296875 6.6875 41.796875 6.6875 
Q 48.140625 6.6875 53.78125 8.984375 
Q 59.421875 11.28125 64.40625 15.921875 
L 64.40625 5.609375 
Q 59.234375 2.09375 53.4375 0.328125 
Q 47.65625 -1.421875 41.21875 -1.421875 
Q 24.65625 -1.421875 15.125 8.703125 
Q 5.609375 18.84375 5.609375 36.375 
Q 5.609375 53.953125 15.125 64.078125 
Q 24.65625 74.21875 41.21875 74.21875 
Q 47.75 74.21875 53.53125 72.484375 
Q 59.328125 70.75 64.40625 67.28125 
z
" id="DejaVuSans-67"/>
      <path d="M 54.890625 33.015625 
L 54.890625 0 
L 45.90625 0 
L 45.90625 32.71875 
Q 45.90625 40.484375 42.875 44.328125 
Q 39.84375 48.1875 33.796875 48.1875 
Q 26.515625 48.1875 22.3125 43.546875 
Q 18.109375 38.921875 18.109375 30.90625 
L 18.109375 0 
L 9.078125 0 
L 9.078125 75.984375 
L 18.109375 75.984375 
L 18.109375 46.1875 
Q 21.34375 51.125 25.703125 53.5625 
Q 30.078125 56 35.796875 56 
Q 45.21875 56 50.046875 50.171875 
Q 54.890625 44.34375 54.890625 33.015625 
z
" id="DejaVuSans-104"/>
      <path d="M 54.890625 33.015625 
L 54.890625 0 
L 45.90625 0 
L 45.90625 32.71875 
Q 45.90625 40.484375 42.875 44.328125 
Q 39.84375 48.1875 33.796875 48.1875 
Q 26.515625 48.1875 22.3125 43.546875 
Q 18.109375 38.921875 18.109375 30.90625 
L 18.109375 0 
L 9.078125 0 
L 9.078125 54.6875 
L 18.109375 54.6875 
L 18.109375 46.1875 
Q 21.34375 51.125 25.703125 53.5625 
Q 30.078125 56 35.796875 56 
Q 45.21875 56 50.046875 50.171875 
Q 54.890625 44.34375 54.890625 33.015625 
z
" id="DejaVuSans-110"/>
      <path d="M 45.40625 27.984375 
Q 45.40625 37.75 41.375 43.109375 
Q 37.359375 48.484375 30.078125 48.484375 
Q 22.859375 48.484375 18.828125 43.109375 
Q 14.796875 37.75 14.796875 27.984375 
Q 14.796875 18.265625 18.828125 12.890625 
Q 22.859375 7.515625 30.078125 7.515625 
Q 37.359375 7.515625 41.375 12.890625 
Q 45.40625 18.265625 45.40625 27.984375 
z
M 54.390625 6.78125 
Q 54.390625 -7.171875 48.1875 -13.984375 
Q 42 -20.796875 29.203125 -20.796875 
Q 24.46875 -20.796875 20.265625 -20.09375 
Q 16.0625 -19.390625 12.109375 -17.921875 
L 12.109375 -9.1875 
Q 16.0625 -11.328125 19.921875 -12.34375 
Q 23.78125 -13.375 27.78125 -13.375 
Q 36.625 -13.375 41.015625 -8.765625 
Q 45.40625 -4.15625 45.40625 5.171875 
L 45.40625 9.625 
Q 42.625 4.78125 38.28125 2.390625 
Q 33.9375 0 27.875 0 
Q 17.828125 0 11.671875 7.65625 
Q 5.515625 15.328125 5.515625 27.984375 
Q 5.515625 40.671875 11.671875 48.328125 
Q 17.828125 56 27.875 56 
Q 33.9375 56 38.28125 53.609375 
Q 42.625 51.21875 45.40625 46.390625 
L 45.40625 54.6875 
L 54.390625 54.6875 
z
" id="DejaVuSans-103"/>
      <path d="M 56.203125 29.59375 
L 56.203125 25.203125 
L 14.890625 25.203125 
Q 15.484375 15.921875 20.484375 11.0625 
Q 25.484375 6.203125 34.421875 6.203125 
Q 39.59375 6.203125 44.453125 7.46875 
Q 49.3125 8.734375 54.109375 11.28125 
L 54.109375 2.78125 
Q 49.265625 0.734375 44.1875 -0.34375 
Q 39.109375 -1.421875 33.890625 -1.421875 
Q 20.796875 -1.421875 13.15625 6.1875 
Q 5.515625 13.8125 5.515625 26.8125 
Q 5.515625 40.234375 12.765625 48.109375 
Q 20.015625 56 32.328125 56 
Q 43.359375 56 49.78125 48.890625 
Q 56.203125 41.796875 56.203125 29.59375 
z
M 47.21875 32.234375 
Q 47.125 39.59375 43.09375 43.984375 
Q 39.0625 48.390625 32.421875 48.390625 
Q 24.90625 48.390625 20.390625 44.140625 
Q 15.875 39.890625 15.1875 32.171875 
z
" id="DejaVuSans-101"/>
      <path id="DejaVuSans-32"/>
      <path d="M 33.796875 -14.703125 
L 28.90625 -14.703125 
L 28.859375 0 
Q 23.734375 0.09375 18.609375 1.1875 
Q 13.484375 2.296875 8.296875 4.5 
L 8.296875 13.28125 
Q 13.28125 10.15625 18.375 8.5625 
Q 23.484375 6.984375 28.90625 6.9375 
L 28.90625 29.203125 
Q 18.109375 30.953125 13.203125 35.15625 
Q 8.296875 39.359375 8.296875 46.6875 
Q 8.296875 54.640625 13.625 59.21875 
Q 18.953125 63.8125 28.90625 64.5 
L 28.90625 75.984375 
L 33.796875 75.984375 
L 33.796875 64.65625 
Q 38.328125 64.453125 42.578125 63.6875 
Q 46.828125 62.9375 50.875 61.625 
L 50.875 53.078125 
Q 46.828125 55.125 42.546875 56.25 
Q 38.28125 57.375 33.796875 57.5625 
L 33.796875 36.71875 
Q 44.875 35.015625 50.09375 30.609375 
Q 55.328125 26.21875 55.328125 18.609375 
Q 55.328125 10.359375 49.78125 5.59375 
Q 44.234375 0.828125 33.796875 0.09375 
z
M 28.90625 37.59375 
L 28.90625 57.625 
Q 23.25 56.984375 20.265625 54.390625 
Q 17.28125 51.8125 17.28125 47.515625 
Q 17.28125 43.3125 20.03125 40.96875 
Q 22.796875 38.625 28.90625 37.59375 
z
M 33.796875 28.21875 
L 33.796875 7.078125 
Q 39.984375 7.90625 43.140625 10.59375 
Q 46.296875 13.28125 46.296875 17.671875 
Q 46.296875 21.96875 43.28125 24.5 
Q 40.28125 27.046875 33.796875 28.21875 
z
" id="DejaVuSans-36"/>
     </defs>
     <g transform="translate(14.798438 179.288187)rotate(-90)scale(0.1 -0.1)">
      <use xlink:href="#DejaVuSans-67"/>
      <use x="69.824219" xlink:href="#DejaVuSans-104"/>
      <use x="133.203125" xlink:href="#DejaVuSans-97"/>
      <use x="194.482422" xlink:href="#DejaVuSans-110"/>
      <use x="257.861328" xlink:href="#DejaVuSans-103"/>
      <use x="321.337891" xlink:href="#DejaVuSans-101"/>
      <use x="382.861328" xlink:href="#DejaVuSans-32"/>
      <use x="414.648438" xlink:href="#DejaVuSans-36"/>
     </g>
    </g>
   </g>
   <g id="line2d_29">
    <path clip-path="url(#pea5faf8fb8)" d="M 58.85304 155.498681 
L 59.097693 161.117881 
L 59.342346 161.95454 
L 59.586999 161.374729 
L 59.831652 159.997265 
L 60.076305 157.472819 
L 60.320958 158.374388 
L 60.565611 160.604026 
L 60.810264 160.206442 
L 61.29957 156.171476 
L 61.544223 156.663385 
L 61.788876 156.798114 
L 62.033529 155.855817 
L 62.278182 157.673878 
L 62.522835 157.711412 
L 62.767488 156.840385 
L 63.256794 156.18268 
L 63.501447 155.544189 
L 63.7461 155.937915 
L 64.235406 155.283051 
L 64.724712 156.289788 
L 65.214018 158.965784 
L 65.458671 159.996097 
L 65.947977 160.029551 
L 66.437283 162.499844 
L 66.926589 163.290252 
L 67.415895 161.024233 
L 67.905201 159.719372 
L 68.394507 156.022241 
L 68.883813 158.146508 
L 69.128466 161.175963 
L 69.373119 162.408092 
L 69.617772 162.524739 
L 70.107078 158.849757 
L 70.351731 157.807411 
L 70.596384 158.913217 
L 70.841037 159.375854 
L 71.330343 156.48265 
L 71.574996 156.613248 
L 72.308955 159.028026 
L 72.553608 158.796196 
L 72.798261 159.990178 
L 73.042914 160.225592 
L 73.287567 160.125354 
L 73.53222 159.310188 
L 73.776873 158.941451 
L 74.021526 160.57766 
L 74.266179 160.24221 
L 74.510832 160.782648 
L 74.755485 159.206591 
L 75.000138 159.252949 
L 75.244792 158.093985 
L 75.734098 160.681906 
L 75.978751 160.31673 
L 76.223404 157.727562 
L 76.468057 157.955514 
L 76.71271 158.424726 
L 76.957363 158.316565 
L 77.202016 158.640601 
L 77.446669 157.559135 
L 77.691322 157.044032 
L 77.935975 157.665955 
L 78.180628 157.185704 
L 78.669934 155.409936 
L 78.914587 156.218109 
L 79.15924 156.210762 
L 79.403893 155.851419 
L 79.893199 158.456435 
L 80.137852 159.890532 
L 80.382505 160.501041 
L 80.627158 159.620511 
L 81.116464 162.970282 
L 81.361117 163.204939 
L 81.60577 162.608423 
L 81.850423 161.111118 
L 82.095076 160.999345 
L 82.584382 162.386059 
L 83.073688 159.494434 
L 83.318341 161.031948 
L 83.807647 159.33248 
L 84.0523 161.614981 
L 84.786259 157.661831 
L 85.030912 155.684182 
L 85.275565 152.737236 
L 85.520218 151.854413 
L 86.254177 150.707683 
L 86.49883 150.919795 
L 86.988136 153.461674 
L 87.232789 152.575895 
L 88.211401 155.455062 
L 88.700707 156.794127 
L 89.434666 160.389362 
L 89.679319 160.239867 
L 89.923972 160.533154 
L 90.168625 160.38854 
L 90.413278 161.10742 
L 90.657931 160.87533 
L 90.902584 161.45899 
L 91.147237 161.470699 
L 91.39189 161.66966 
L 91.636543 160.74993 
L 91.881196 158.866714 
L 92.125849 159.077564 
L 92.370502 160.161461 
L 92.859808 160.603766 
L 93.104461 161.973191 
L 93.349114 162.01017 
L 93.593767 160.874811 
L 93.83842 161.056353 
L 94.083073 160.929626 
L 94.327726 158.903499 
L 94.572379 159.38429 
L 94.817032 158.497754 
L 95.306338 156.263127 
L 96.28495 161.106554 
L 96.529603 159.491838 
L 96.774256 160.236536 
L 97.018909 161.402408 
L 97.508215 159.841959 
L 97.752869 160.167986 
L 97.997522 159.852464 
L 98.242175 158.992352 
L 98.486828 155.399907 
L 98.731481 154.712945 
L 99.220787 154.956492 
L 99.46544 154.218989 
L 99.710093 154.86722 
L 99.954746 154.842072 
L 100.199399 156.47115 
L 100.444052 156.943456 
L 100.688705 157.091739 
L 100.933358 156.981675 
L 101.178011 157.499409 
L 101.422664 157.150657 
L 101.667317 157.58943 
L 101.91197 158.403061 
L 102.156623 158.160949 
L 102.401276 158.787796 
L 102.645929 159.885917 
L 102.890582 160.213407 
L 103.135235 155.478011 
L 103.379888 155.903568 
L 103.624541 154.685534 
L 103.869194 155.591103 
L 104.113847 155.814758 
L 104.3585 156.460256 
L 104.603153 157.437635 
L 104.847806 157.545602 
L 105.092459 158.663802 
L 106.071071 160.304488 
L 106.315724 159.917157 
L 106.560377 160.222636 
L 106.80503 160.219795 
L 107.049683 161.45873 
L 107.294336 160.986778 
L 107.538989 159.461088 
L 107.783642 159.395169 
L 108.028295 158.775619 
L 108.272948 160.239918 
L 108.517601 159.901159 
L 108.762254 158.8375 
L 109.006907 159.395804 
L 109.25156 159.411939 
L 109.496213 159.821722 
L 109.740866 160.792107 
L 109.985519 160.172679 
L 110.474825 162.030632 
L 110.719478 163.228457 
L 110.964131 162.345713 
L 111.208784 162.627551 
L 111.942743 160.564862 
L 112.187396 160.219326 
L 112.432049 159.202964 
L 112.676702 159.077009 
L 112.921355 157.932702 
L 113.166008 158.241245 
L 113.655314 160.596527 
L 113.899967 159.857915 
L 114.14462 160.861458 
L 114.633926 160.145743 
L 114.878579 160.781444 
L 115.123232 160.953859 
L 115.367885 160.600644 
L 115.612538 160.827745 
L 115.857191 159.68555 
L 116.101844 160.230595 
L 116.346497 159.880373 
L 116.59115 158.763672 
L 116.835803 158.506564 
L 117.325109 156.90603 
L 117.569762 156.789635 
L 117.814415 156.371771 
L 118.059068 154.9651 
L 118.548374 156.344013 
L 118.793027 157.470548 
L 119.03768 157.53292 
L 119.282333 157.454571 
L 119.526986 157.104039 
L 119.771639 157.33561 
L 120.016292 157.82524 
L 120.260946 158.579535 
L 120.505599 158.5089 
L 120.750252 158.749145 
L 120.994905 158.804292 
L 121.239558 159.308645 
L 121.484211 159.07737 
L 121.728864 159.95865 
L 121.973517 156.904494 
L 122.21817 158.024757 
L 122.462823 157.548205 
L 122.952129 158.664278 
L 123.196782 156.43464 
L 124.175394 160.165441 
L 124.420047 159.545681 
L 124.909353 160.690694 
L 125.154006 159.429647 
L 125.398659 158.827212 
L 125.643312 158.819541 
L 125.887965 158.370574 
L 126.132618 158.723348 
L 126.621924 158.877724 
L 126.866577 158.654733 
L 127.11123 159.229042 
L 127.600536 157.277831 
L 128.579148 157.809646 
L 128.823801 156.776319 
L 129.068454 156.27038 
L 129.313107 157.027969 
L 129.55776 157.213137 
L 129.802413 158.71231 
L 130.047066 159.169179 
L 130.291719 160.121843 
L 130.536372 159.860762 
L 130.781025 158.869159 
L 131.025678 159.523511 
L 131.270331 159.539596 
L 131.759637 160.227236 
L 132.00429 159.986991 
L 132.248943 159.046144 
L 132.493596 159.027622 
L 132.738249 157.840842 
L 133.227555 156.798453 
L 133.472208 156.926614 
L 133.961514 153.499021 
L 134.206167 153.577391 
L 134.45082 153.785234 
L 134.695473 152.159675 
L 134.940126 153.082598 
L 135.184779 152.52074 
L 135.429432 153.187082 
L 135.918738 155.002202 
L 136.163391 155.427932 
L 136.408044 154.749369 
L 136.652697 155.209583 
L 137.142003 157.225452 
L 137.386656 157.117478 
L 137.631309 158.860045 
L 138.120615 159.851433 
L 138.365268 160.521582 
L 138.609921 159.191515 
L 138.854574 157.017399 
L 139.34388 154.834372 
L 139.588533 154.530408 
L 140.077839 155.480202 
L 140.322492 156.965193 
L 140.567145 157.248595 
L 140.811798 157.789667 
L 141.056451 159.234355 
L 141.301104 159.535688 
L 141.545757 159.262755 
L 142.035063 158.048095 
L 142.279716 158.327747 
L 142.524369 156.55792 
L 142.769023 156.725129 
L 143.013676 157.411392 
L 143.258329 158.873239 
L 143.502982 159.229957 
L 143.747635 159.097557 
L 143.992288 160.27872 
L 144.236941 160.484971 
L 144.481594 158.410819 
L 144.726247 158.390833 
L 144.9709 156.73686 
L 145.460206 159.705096 
L 145.949512 161.304095 
L 146.194165 160.834811 
L 146.438818 161.632811 
L 146.683471 161.416373 
L 146.928124 160.700788 
L 147.172777 161.103224 
L 147.41743 160.76086 
L 147.662083 161.860452 
L 148.151389 160.116811 
L 148.396042 160.727911 
L 148.640695 159.775752 
L 148.885348 159.552321 
L 149.130001 159.548038 
L 149.374654 159.705709 
L 149.619307 158.950788 
L 149.86396 160.27924 
L 150.108613 162.768639 
L 150.353266 162.822994 
L 150.597919 163.082416 
L 151.087225 164.858862 
L 151.331878 164.850686 
L 151.576531 163.986724 
L 151.821184 164.456694 
L 152.31049 164.720485 
L 152.555143 164.442353 
L 152.799796 163.468673 
L 153.044449 162.952006 
L 153.289102 161.860769 
L 153.533755 161.298176 
L 153.778408 157.919227 
L 154.267714 158.696607 
L 154.512367 159.77015 
L 155.001673 159.978087 
L 155.246326 159.911209 
L 155.490979 160.661927 
L 155.735632 160.092218 
L 155.980285 159.157773 
L 156.224938 159.086021 
L 156.469591 159.434362 
L 156.714244 158.99861 
L 156.958897 159.133051 
L 157.448203 157.009685 
L 157.692856 157.998852 
L 157.937509 158.269103 
L 158.182162 156.387784 
L 158.426815 156.565007 
L 158.671468 157.00321 
L 159.160774 160.455029 
L 159.405427 159.584167 
L 159.65008 160.184864 
L 159.894733 159.263771 
L 160.139386 158.891869 
L 160.384039 158.907904 
L 160.628692 159.309943 
L 160.873345 159.458248 
L 161.117998 160.578698 
L 161.362651 160.048894 
L 161.851957 160.67068 
L 162.341263 158.72577 
L 162.585916 158.763744 
L 163.319875 159.515782 
L 163.564528 158.904515 
L 163.809181 159.63302 
L 164.54314 157.036916 
L 164.787793 157.896156 
L 165.032447 158.061555 
L 165.2771 158.036955 
L 165.521753 158.858113 
L 165.766406 159.086714 
L 166.011059 157.636402 
L 166.255712 157.747807 
L 166.500365 157.420116 
L 166.745018 158.546716 
L 166.989671 156.320956 
L 167.234324 157.758737 
L 167.478977 158.489787 
L 167.72363 151.781334 
L 167.968283 151.334097 
L 168.212936 152.015378 
L 168.702242 152.431569 
L 168.946895 154.34989 
L 169.191548 154.476176 
L 169.436201 154.409342 
L 170.414813 158.501546 
L 170.659466 157.392531 
L 170.904119 157.954879 
L 171.148772 157.621903 
L 171.393425 158.234352 
L 171.638078 157.762011 
L 172.127384 159.286597 
L 172.372037 159.145279 
L 172.61669 159.292394 
L 172.861343 160.544084 
L 173.595302 160.086407 
L 174.084608 161.816559 
L 174.329261 161.905708 
L 174.573914 162.304272 
L 174.818567 161.666956 
L 175.06322 161.393511 
L 175.307873 159.957943 
L 175.552526 159.72873 
L 176.041832 158.374777 
L 176.531138 158.225772 
L 177.020444 159.146735 
L 177.265097 158.877666 
L 177.50975 160.532707 
L 178.243709 159.459228 
L 178.733015 157.816466 
L 178.977668 159.41137 
L 179.222321 159.626848 
L 179.466974 159.160909 
L 179.711627 159.974627 
L 179.95628 158.655367 
L 180.445586 158.443508 
L 180.690239 158.574603 
L 180.934892 159.537094 
L 181.179545 159.674289 
L 181.424198 160.033696 
L 181.668851 159.668867 
L 181.913504 160.024583 
L 182.158157 161.20925 
L 182.647463 162.705128 
L 182.892116 162.412115 
L 183.136769 161.026115 
L 183.381422 161.586661 
L 183.870728 162.16035 
L 184.115381 161.146763 
L 184.360034 161.027824 
L 184.604687 161.15199 
L 184.84934 160.960881 
L 185.093993 161.577894 
L 185.583299 161.907936 
L 186.072605 160.48616 
L 186.317258 160.72497 
L 186.561911 160.586665 
L 186.806564 160.270343 
L 187.051217 160.681725 
L 187.29587 160.626801 
L 187.540524 159.828282 
L 187.785177 160.322643 
L 188.02983 161.243843 
L 188.274483 160.59913 
L 188.519136 161.256958 
L 188.763789 161.253108 
L 189.008442 161.860762 
L 189.742401 162.647796 
L 189.987054 163.046353 
L 190.231707 162.582014 
L 190.47636 161.063137 
L 190.721013 160.798553 
L 191.210319 160.882201 
L 191.454972 160.386117 
L 191.699625 161.392372 
L 191.944278 160.846966 
L 192.678237 161.733553 
L 192.92289 161.540727 
L 193.167543 161.579948 
L 193.412196 161.877244 
L 193.656849 162.501063 
L 193.901502 160.481164 
L 194.146155 161.691765 
L 194.390808 161.015005 
L 194.635461 161.865311 
L 194.880114 162.033472 
L 195.124767 160.383825 
L 195.36942 160.424286 
L 195.614073 159.811613 
L 195.858726 160.292722 
L 196.103379 160.054785 
L 196.348032 157.679985 
L 196.592685 157.446979 
L 197.081991 156.572116 
L 197.326644 155.571392 
L 197.81595 154.798871 
L 198.060603 155.078423 
L 198.549909 157.120521 
L 198.794562 151.959517 
L 199.039215 150.476624 
L 199.283868 150.339537 
L 199.528521 150.40369 
L 199.773174 151.406339 
L 200.017827 151.832524 
L 200.26248 153.15197 
L 200.507133 153.450672 
L 200.751786 154.061628 
L 200.996439 155.140542 
L 201.241092 154.718756 
L 201.730398 156.192911 
L 201.975051 156.095059 
L 202.219704 155.831701 
L 202.70901 158.122132 
L 202.953663 157.908831 
L 203.198316 156.540645 
L 203.442969 156.699239 
L 203.687622 157.205697 
L 203.932275 158.106926 
L 204.176928 158.470645 
L 204.421581 158.039796 
L 204.666234 158.698438 
L 205.15554 161.462198 
L 205.400193 161.664815 
L 205.644846 162.159852 
L 205.889499 159.101544 
L 206.134152 159.995456 
L 206.378805 159.078776 
L 206.623458 158.712901 
L 207.357417 160.991162 
L 207.60207 160.875351 
L 207.846723 160.260653 
L 208.091376 161.348334 
L 208.336029 160.829367 
L 208.580682 162.249701 
L 209.069988 159.798614 
L 209.314641 159.761203 
L 209.559294 159.557512 
L 209.803947 159.161263 
L 210.048601 157.982846 
L 210.537907 157.54832 
L 210.78256 157.723597 
L 211.027213 158.294525 
L 211.271866 158.301972 
L 211.516519 157.207788 
L 211.761172 157.933293 
L 212.005825 157.735284 
L 212.250478 158.335707 
L 212.739784 160.012449 
L 213.473743 161.452328 
L 213.718396 160.325743 
L 213.963049 159.808672 
L 214.207702 160.044064 
L 214.697008 159.066396 
L 214.941661 157.633511 
L 215.186314 157.088762 
L 215.430967 157.556763 
L 215.920273 155.669553 
L 216.164926 156.603969 
L 216.409579 156.699304 
L 217.143538 159.024991 
L 217.388191 159.264701 
L 217.632844 159.276951 
L 217.877497 159.569351 
L 218.12215 158.942893 
L 218.366803 159.039547 
L 218.611456 159.735384 
L 218.856109 161.436647 
L 219.345415 163.204175 
L 219.590068 161.551506 
L 219.834721 162.603427 
L 220.324027 161.712342 
L 220.56868 161.86927 
L 220.813333 159.40641 
L 221.057986 159.382199 
L 221.547292 158.395008 
L 221.791945 158.913773 
L 222.036598 155.995175 
L 222.281251 156.744718 
L 222.770557 155.198336 
L 223.01521 156.262672 
L 223.259863 155.727765 
L 223.993822 158.361929 
L 224.238475 158.087107 
L 224.483128 158.040596 
L 224.727781 157.698867 
L 224.972434 158.592909 
L 225.217087 158.690226 
L 225.46174 159.94958 
L 225.706393 160.619462 
L 225.951046 160.267365 
L 226.195699 161.1861 
L 226.685005 162.142809 
L 226.929658 160.984277 
L 227.174311 161.908447 
L 227.418964 161.732789 
L 227.663617 161.721433 
L 227.90827 157.108588 
L 228.152923 156.856333 
L 228.397576 156.376342 
L 228.642229 156.900442 
L 228.886882 156.948092 
L 229.620841 157.443086 
L 229.865494 157.367917 
L 230.110147 156.312319 
L 230.3548 157.673265 
L 230.599453 157.076642 
L 231.088759 158.334157 
L 231.333412 158.032932 
L 231.578065 158.361136 
L 231.822718 159.197405 
L 232.067371 158.673197 
L 232.312024 158.906988 
L 232.801331 159.917799 
L 233.045984 156.633897 
L 233.290637 157.845247 
L 233.53529 157.424831 
L 234.024596 159.949428 
L 234.269249 159.621715 
L 234.513902 161.469985 
L 234.758555 162.250667 
L 235.003208 163.599371 
L 235.492514 162.047805 
L 235.737167 162.731112 
L 235.98182 161.536098 
L 236.226473 162.431481 
L 236.471126 162.555431 
L 236.715779 162.169773 
L 236.960432 163.246345 
L 237.205085 163.576625 
L 237.694391 163.174788 
L 237.939044 163.864013 
L 238.183697 164.070257 
L 238.42835 163.254348 
L 238.673003 163.32713 
L 238.917656 163.056237 
L 239.162309 161.908505 
L 239.406962 161.460576 
L 239.651615 161.66333 
L 239.896268 161.116216 
L 240.140921 161.561513 
L 240.385574 162.562338 
L 240.630227 162.519375 
L 240.87488 162.10128 
L 241.364186 160.694098 
L 241.608839 160.019659 
L 242.098145 160.846563 
L 242.342798 160.522411 
L 242.587451 159.247182 
L 242.832104 159.621066 
L 243.076757 159.472192 
L 243.32141 158.578179 
L 243.566063 153.712401 
L 243.810716 152.92505 
L 244.055369 152.886175 
L 244.300022 153.869315 
L 244.544675 153.677636 
L 244.789328 152.176661 
L 245.033981 153.669546 
L 245.278634 154.061095 
L 245.523287 155.741788 
L 245.76794 155.715753 
L 246.012593 157.500988 
L 246.257246 157.562862 
L 246.501899 158.613666 
L 246.746552 157.983502 
L 246.991205 158.923318 
L 247.480511 161.817374 
L 247.725164 161.921 
L 247.969817 162.869475 
L 248.21447 163.362783 
L 248.459123 163.36824 
L 248.703776 164.093162 
L 248.948429 164.437429 
L 249.193082 165.02889 
L 249.682388 161.620287 
L 249.927041 161.480879 
L 250.171694 160.920117 
L 250.416347 162.611949 
L 250.661 162.14283 
L 250.905653 162.339239 
L 251.150306 162.714328 
L 251.394959 160.08508 
L 251.639612 161.156576 
L 251.884265 160.273681 
L 252.618224 163.630193 
L 252.862877 163.844749 
L 253.10753 163.789955 
L 253.352183 162.582792 
L 253.596836 164.446679 
L 253.841489 164.892647 
L 254.086142 163.210945 
L 254.330795 163.222076 
L 254.575448 160.465432 
L 254.820101 159.124572 
L 255.064755 158.994356 
L 255.309408 157.95369 
L 255.554061 156.096775 
L 255.798714 156.789476 
L 256.28802 157.497801 
L 256.532673 157.148177 
L 256.777326 157.017255 
L 257.266632 156.140957 
L 257.511285 156.755987 
L 257.755938 155.618875 
L 258.000591 153.478184 
L 258.489897 154.973838 
L 258.73455 154.872426 
L 258.979203 154.478036 
L 259.223856 154.790998 
L 259.468509 155.626546 
L 259.713162 155.606633 
L 259.957815 155.946192 
L 260.447121 157.891405 
L 260.691774 159.620172 
L 260.936427 159.751095 
L 261.18108 161.186222 
L 261.670386 162.031403 
L 261.915039 161.937438 
L 262.404345 161.127542 
L 262.648998 159.947467 
L 262.893651 160.659837 
L 263.382957 160.476946 
L 263.62761 160.6213 
L 263.872263 159.718723 
L 264.116916 159.667814 
L 264.361569 160.352787 
L 264.606222 159.54178 
L 265.095528 160.529325 
L 265.340181 157.054566 
L 265.584834 158.159147 
L 265.829487 156.537971 
L 266.318793 157.096375 
L 266.563446 159.319561 
L 267.052752 158.56952 
L 267.297405 157.512177 
L 267.542058 157.439395 
L 268.031364 156.178606 
L 268.276017 157.171811 
L 268.52067 156.064173 
L 268.765323 157.036116 
L 269.254629 156.029912 
L 269.499282 156.548965 
L 270.233241 158.795958 
L 270.477894 158.173408 
L 270.722547 161.108169 
L 271.211853 163.607079 
L 271.456506 163.698131 
L 271.701159 165.256394 
L 271.945812 163.901908 
L 272.190465 164.146666 
L 272.435118 162.546059 
L 272.679771 162.547263 
L 272.924424 161.994338 
L 273.169077 159.948592 
L 273.41373 161.956832 
L 273.658383 160.193508 
L 274.147689 158.886181 
L 274.392342 156.156818 
L 274.881648 155.161811 
L 275.86026 165.029308 
L 276.104913 166.495049 
L 276.594219 165.612651 
L 276.838872 164.492836 
L 277.328178 159.813178 
L 277.572832 159.998909 
L 278.062138 157.982132 
L 278.551444 157.107384 
L 278.796097 155.996559 
L 279.04075 157.742732 
L 279.285403 158.419485 
L 279.530056 158.667148 
L 279.774709 157.502235 
L 280.019362 157.729603 
L 280.264015 156.949281 
L 280.508668 157.783251 
L 280.753321 158.125859 
L 280.997974 157.809307 
L 281.242627 157.746236 
L 281.48728 158.077337 
L 281.731933 156.969685 
L 282.221239 157.38553 
L 282.710545 157.618082 
L 282.955198 156.75828 
L 283.199851 157.441644 
L 283.689157 159.688276 
L 283.93381 159.965708 
L 284.178463 159.188602 
L 284.667769 158.646658 
L 284.912422 158.472253 
L 285.157075 155.901398 
L 285.401728 155.354125 
L 285.891034 153.715833 
L 286.135687 154.502002 
L 286.38034 153.816568 
L 286.869646 154.201743 
L 287.114299 154.602232 
L 287.358952 155.321191 
L 287.603605 154.371808 
L 288.82687 159.1399 
L 289.071523 161.085906 
L 289.316176 161.427476 
L 289.560829 158.226284 
L 289.805482 158.677169 
L 290.050135 157.973783 
L 290.294788 155.721326 
L 290.539441 156.93776 
L 290.784094 157.064854 
L 291.028747 158.327863 
L 291.2734 158.979418 
L 291.518053 159.263209 
L 291.762706 157.936105 
L 292.007359 158.992056 
L 292.252012 157.883178 
L 292.496665 158.421612 
L 292.741318 158.652526 
L 292.985971 161.118667 
L 293.230624 160.718733 
L 293.71993 163.202819 
L 293.964583 162.980729 
L 294.209236 160.275036 
L 294.453889 160.32296 
L 294.698542 160.542822 
L 294.943195 160.497552 
L 295.187848 160.298692 
L 295.432501 159.34832 
L 295.921807 160.588936 
L 296.411113 159.912219 
L 296.655766 159.790799 
L 297.145072 160.698957 
L 297.389725 161.58152 
L 297.634378 160.801501 
L 297.879031 161.20052 
L 298.368337 160.203609 
L 298.857643 160.919446 
L 299.102296 160.679736 
L 299.346949 159.323937 
L 299.836256 163.16013 
L 300.080909 163.624598 
L 300.325562 163.026035 
L 300.570215 155.654751 
L 300.814868 156.24906 
L 301.059521 155.672905 
L 301.304174 156.013697 
L 301.548827 156.11684 
L 301.79348 154.210727 
L 302.038133 154.782678 
L 302.282786 154.203142 
L 302.527439 154.103171 
L 302.772092 155.848673 
L 303.016745 156.047374 
L 303.506051 158.105484 
L 303.995357 159.540201 
L 304.24001 159.743359 
L 304.484663 157.953632 
L 304.729316 158.545108 
L 305.218622 160.768308 
L 305.463275 160.781062 
L 305.707928 161.299618 
L 305.952581 161.134305 
L 306.197234 162.235151 
L 306.441887 162.600334 
L 306.68654 161.510699 
L 307.175846 162.39244 
L 307.420499 161.57612 
L 307.665152 160.271979 
L 307.909805 160.495547 
L 308.154458 161.388738 
L 308.399111 160.844407 
L 308.643764 161.101363 
L 308.888417 161.16522 
L 309.377723 160.657349 
L 309.622376 162.152434 
L 309.867029 162.318078 
L 310.111682 162.040076 
L 310.356335 162.206269 
L 310.600988 160.934133 
L 310.845641 156.848986 
L 311.090294 156.347661 
L 311.334947 157.3299 
L 311.5796 157.569971 
L 311.824253 158.356644 
L 312.558212 162.769281 
L 312.802865 160.278569 
L 313.047518 161.328392 
L 313.292171 160.948812 
L 313.781477 160.714162 
L 314.270783 159.044414 
L 314.515436 159.263267 
L 314.760089 159.676574 
L 315.004742 159.637036 
L 315.249395 159.101414 
L 315.494048 158.888733 
L 315.738701 159.427794 
L 315.983354 159.529336 
L 316.228007 157.787634 
L 316.717313 158.152608 
L 316.961966 157.198098 
L 317.206619 157.489748 
L 317.451272 157.501082 
L 317.695925 158.667833 
L 317.940578 159.224082 
L 318.185231 159.282812 
L 318.429884 159.567462 
L 318.674537 161.245271 
L 318.91919 160.758791 
L 319.163843 160.77174 
L 319.408496 161.891887 
L 319.653149 160.499506 
L 319.897802 160.747443 
L 320.142455 160.463846 
L 320.387108 159.772702 
L 320.631761 155.569899 
L 320.876414 155.814527 
L 321.121067 152.456458 
L 321.855026 154.404655 
L 322.344333 157.413829 
L 322.588986 156.098275 
L 322.833639 152.379875 
L 323.322945 157.138372 
L 323.812251 160.930088 
L 324.056904 161.107845 
L 324.301557 161.524253 
L 324.790863 160.053213 
L 325.035516 160.417292 
L 325.280169 160.334647 
L 325.524822 161.659408 
L 325.769475 160.558143 
L 326.014128 161.064759 
L 326.258781 160.375389 
L 326.503434 161.709313 
L 326.99274 162.212195 
L 327.237393 162.029709 
L 327.482046 161.385623 
L 327.726699 159.611708 
L 327.971352 160.34371 
L 328.949964 157.116361 
L 329.194617 152.025775 
L 329.43927 152.039963 
L 329.683923 151.826064 
L 329.928576 153.912588 
L 330.173229 153.758702 
L 330.662535 158.346378 
L 331.151841 159.785507 
L 331.396494 159.921433 
L 331.641147 160.733102 
L 331.8858 159.958895 
L 332.130453 160.095138 
L 332.375106 159.139597 
L 332.619759 160.777781 
L 332.864412 161.452321 
L 333.109065 160.915272 
L 333.353718 160.018995 
L 333.598371 159.900171 
L 333.843024 159.001465 
L 334.087677 158.570436 
L 334.33233 159.822298 
L 334.576983 159.696488 
L 334.821636 158.42836 
L 335.066289 159.126245 
L 335.310942 159.142625 
L 335.800248 161.007874 
L 336.044901 160.527638 
L 336.289554 160.993267 
L 336.534207 160.236161 
L 336.77886 160.142499 
L 337.268166 161.92193 
L 337.512819 161.521982 
L 338.002125 158.6912 
L 338.491431 159.300289 
L 338.980737 159.740525 
L 339.22539 158.880564 
L 339.470043 161.672536 
L 339.714696 160.51903 
L 339.959349 157.111328 
L 340.204002 158.446471 
L 340.448655 158.699217 
L 340.693308 158.664985 
L 340.937961 161.099763 
L 341.182614 161.445839 
L 341.427267 162.548265 
L 341.67192 162.478063 
L 341.916573 161.262639 
L 342.161226 161.07039 
L 342.650532 159.964965 
L 342.895185 159.781621 
L 343.139838 160.385771 
L 343.384491 160.324445 
L 343.629144 159.960099 
L 343.873797 157.85493 
L 344.11845 158.309363 
L 344.363103 157.533223 
L 344.607756 157.15016 
L 344.85241 157.677353 
L 345.097063 157.931058 
L 345.341716 159.349258 
L 345.586369 159.906509 
L 345.831022 159.16101 
L 346.320328 160.445944 
L 346.564981 160.333846 
L 346.809634 159.925167 
L 347.054287 158.725662 
L 347.543593 159.02016 
L 347.788246 159.095077 
L 348.032899 159.786365 
L 348.277552 159.732926 
L 348.766858 159.455306 
L 349.256164 160.348973 
L 349.500817 159.301024 
L 349.74547 159.657706 
L 349.990123 159.191248 
L 350.479429 157.562494 
L 350.724082 158.290985 
L 350.968735 158.558107 
L 351.213388 158.086112 
L 351.702694 160.440667 
L 351.947347 159.923798 
L 352.192 158.246522 
L 352.436653 158.764163 
L 352.681306 158.960506 
L 352.925959 158.390062 
L 353.170612 158.620724 
L 353.415265 158.428389 
L 353.904571 158.747883 
L 354.393877 156.015276 
L 354.63853 156.153048 
L 354.883183 157.160794 
L 355.127836 156.917082 
L 355.372489 157.035791 
L 355.617142 156.40973 
L 355.861795 155.316894 
L 356.106448 156.547762 
L 356.351101 156.344338 
L 356.595754 155.505458 
L 356.840407 156.189161 
L 357.329713 156.738453 
L 357.574366 156.687444 
L 357.819019 156.304929 
L 358.063672 156.502758 
L 358.552978 156.09599 
L 358.797631 156.305902 
L 359.286937 158.585605 
L 359.53159 158.561806 
L 360.020896 158.969497 
L 360.265549 159.936797 
L 360.510202 158.587934 
L 360.754855 158.027698 
L 360.999508 159.239143 
L 361.244161 161.084824 
L 361.488814 161.712032 
L 361.733467 161.881555 
L 361.97812 163.225804 
L 362.222773 163.836321 
L 362.467426 165.164938 
L 362.712079 164.841306 
L 362.956732 162.612338 
L 363.201385 162.046811 
L 363.446038 162.269463 
L 363.690691 161.367224 
L 364.179997 161.979493 
L 364.42465 161.507606 
L 364.669303 161.939623 
L 364.913956 162.051338 
L 365.158609 161.517461 
L 365.403262 162.080776 
L 365.647915 161.293908 
L 365.892568 161.588744 
L 366.137221 160.494329 
L 366.381874 160.025355 
L 366.626527 159.877677 
L 366.87118 160.614458 
L 367.115833 160.78414 
L 367.360487 161.68728 
L 367.60514 159.676243 
L 367.849793 160.373248 
L 368.094446 160.40722 
L 368.583752 162.322844 
L 369.073058 161.413518 
L 369.562364 161.507822 
L 369.807017 162.380162 
L 370.05167 161.973386 
L 370.296323 162.842958 
L 370.540976 162.926093 
L 370.785629 163.924576 
L 371.030282 164.112297 
L 371.274935 164.033306 
L 371.519588 163.66064 
L 372.008894 163.537043 
L 372.253547 163.293079 
L 372.4982 161.257347 
L 372.987506 161.921858 
L 373.476812 161.698131 
L 373.721465 161.40558 
L 373.966118 161.474477 
L 374.210771 160.555619 
L 374.455424 160.486701 
L 374.700077 160.134511 
L 374.94473 160.761249 
L 375.189383 160.649606 
L 375.434036 160.76086 
L 375.923342 159.227405 
L 376.167995 159.669422 
L 376.412648 158.848048 
L 376.657301 159.085048 
L 376.901954 160.432433 
L 377.39126 158.811423 
L 377.635913 158.904573 
L 377.880566 158.617775 
L 378.125219 158.602786 
L 378.614525 160.041677 
L 379.103831 161.286813 
L 379.348484 159.923379 
L 379.593137 160.386204 
L 379.83779 160.594848 
L 380.082443 160.327314 
L 380.327096 159.090045 
L 380.816402 159.219337 
L 381.305708 159.752479 
L 381.550361 160.835705 
L 381.795014 160.785863 
L 382.528973 158.517264 
L 382.773626 160.729692 
L 383.018279 157.98971 
L 383.262932 157.865651 
L 383.507585 156.763737 
L 383.507585 156.763737 
" style="fill:none;stroke:#1f77b4;stroke-linecap:square;stroke-width:1.5;"/>
   </g>
   <g id="line2d_30">
    <path clip-path="url(#pea5faf8fb8)" d="M 58.85304 156.670125 
L 59.097693 152.782125 
L 59.342346 167.902125 
L 59.586999 171.358125 
L 59.831652 114.766125 
L 60.076305 156.238125 
L 60.320958 151.054125 
L 60.565611 152.350125 
L 60.810264 159.694125 
L 61.054917 163.150125 
L 61.29957 156.238125 
L 61.544223 161.854125 
L 61.788876 164.446125 
L 62.033529 158.830125 
L 62.278182 164.446125 
L 62.522835 151.486125 
L 62.767488 148.894125 
L 63.012141 161.854125 
L 63.501447 142.414125 
L 63.7461 162.718125 
L 63.990753 154.942125 
L 64.235406 164.446125 
L 64.480059 167.902125 
L 64.724712 154.078125 
L 64.969365 149.758125 
L 65.214018 163.582125 
L 65.458671 140.254125 
L 65.703324 224.926125 
L 65.947977 152.350125 
L 66.19263 171.358125 
L 66.437283 164.014125 
L 66.681936 143.278125 
L 66.926589 164.446125 
L 67.171242 165.742125 
L 67.415895 138.094125 
L 67.660548 147.166125 
L 67.905201 137.230125 
L 68.149854 154.078125 
L 68.394507 162.718125 
L 68.63916 166.606125 
L 68.883813 161.422125 
L 69.128466 160.990125 
L 69.373119 154.510125 
L 69.617772 125.566125 
L 70.107078 166.606125 
L 70.351731 148.894125 
L 70.596384 169.630125 
L 70.841037 170.062125 
L 71.330343 163.582125 
L 71.574996 159.262125 
L 71.819649 159.694125 
L 72.064302 158.830125 
L 72.308955 160.990125 
L 72.553608 146.734125 
L 73.042914 176.542125 
L 73.287567 159.262125 
L 73.53222 172.654125 
L 73.776873 165.310125 
L 74.021526 161.422125 
L 74.266179 153.214125 
L 74.510832 160.990125 
L 74.755485 148.030125 
L 75.000138 181.294125 
L 75.244792 153.214125 
L 75.489445 155.374125 
L 75.734098 169.198125 
L 75.978751 164.878125 
L 76.468057 161.422125 
L 76.71271 168.334125 
L 76.957363 184.750125 
L 77.446669 139.390125 
L 77.691322 147.166125 
L 77.935975 171.358125 
L 78.180628 164.446125 
L 78.425281 149.758125 
L 78.669934 163.582125 
L 78.914587 169.198125 
L 79.15924 141.982125 
L 79.403893 153.646125 
L 79.648546 154.078125 
L 79.893199 168.334125 
L 80.137852 155.374125 
L 80.382505 170.062125 
L 80.627158 157.534125 
L 80.871811 156.238125 
L 81.116464 143.278125 
L 81.361117 150.622125 
L 81.60577 162.718125 
L 81.850423 156.238125 
L 82.095076 161.422125 
L 82.339729 158.398125 
L 82.584382 165.742125 
L 82.829035 156.670125 
L 83.073688 153.214125 
L 83.318341 172.222125 
L 83.562994 162.718125 
L 83.807647 170.926125 
L 84.0523 160.126125 
L 84.296953 163.150125 
L 84.541606 150.622125 
L 84.786259 106.126125 
L 85.030912 160.126125 
L 85.275565 154.510125 
L 85.520218 162.286125 
L 85.764871 157.966125 
L 86.009524 142.846125 
L 86.743483 156.238125 
L 86.988136 148.894125 
L 87.232789 154.078125 
L 87.477442 148.894125 
L 87.722095 157.534125 
L 87.966748 181.294125 
L 88.211401 148.894125 
L 88.456054 157.102125 
L 88.700707 160.990125 
L 88.94536 157.534125 
L 89.190013 157.966125 
L 89.434666 163.150125 
L 89.679319 156.238125 
L 89.923972 140.254125 
L 90.168625 173.518125 
L 90.413278 155.806125 
L 90.657931 156.670125 
L 90.902584 157.102125 
L 91.147237 170.926125 
L 91.39189 159.262125 
L 91.636543 161.854125 
L 91.881196 155.806125 
L 92.125849 209.806125 
L 92.370502 152.350125 
L 92.615155 148.462125 
L 93.104461 167.470125 
L 93.349114 160.990125 
L 93.593767 170.926125 
L 93.83842 138.958125 
L 94.083073 132.046125 
L 94.327726 155.806125 
L 94.572379 151.486125 
L 94.817032 138.958125 
L 95.306338 158.398125 
L 95.550991 157.534125 
L 95.795644 157.534125 
L 96.040297 165.310125 
L 96.28495 168.334125 
L 96.529603 147.598125 
L 97.018909 163.582125 
L 97.263562 163.150125 
L 97.508215 157.534125 
L 97.752869 143.710125 
L 97.997522 164.446125 
L 98.242175 108.286125 
L 98.486828 152.350125 
L 98.731481 141.118125 
L 98.976134 156.238125 
L 99.220787 147.598125 
L 99.46544 155.806125 
L 99.710093 153.646125 
L 99.954746 180.862125 
L 100.199399 159.694125 
L 100.444052 169.198125 
L 100.688705 153.646125 
L 100.933358 159.694125 
L 101.178011 154.510125 
L 101.422664 154.078125 
L 101.667317 149.758125 
L 101.91197 174.382125 
L 102.156623 139.822125 
L 102.401276 193.822125 
L 102.890582 90.574125 
L 103.135235 165.310125 
L 103.379888 144.574125 
L 103.624541 176.110125 
L 103.869194 149.326125 
L 104.113847 164.446125 
L 104.3585 155.806125 
L 104.603153 166.174125 
L 104.847806 158.398125 
L 105.092459 160.558125 
L 105.337112 145.438125 
L 105.581765 183.886125 
L 105.826418 147.598125 
L 106.071071 179.998125 
L 106.315724 173.518125 
L 106.560377 156.670125 
L 107.049683 143.710125 
L 107.294336 145.006125 
L 107.538989 160.558125 
L 107.783642 157.102125 
L 108.028295 189.070125 
L 108.517601 125.566125 
L 108.762254 182.158125 
L 109.006907 170.926125 
L 109.25156 144.574125 
L 109.496213 202.030125 
L 109.740866 188.206125 
L 110.230172 147.598125 
L 110.474825 166.174125 
L 110.719478 163.150125 
L 110.964131 166.606125 
L 111.208784 134.206125 
L 111.453437 170.926125 
L 111.69809 149.326125 
L 111.942743 170.494125 
L 112.187396 139.822125 
L 112.432049 165.742125 
L 112.676702 135.934125 
L 112.921355 151.918125 
L 113.166008 200.734125 
L 113.410661 210.238125 
L 113.655314 137.230125 
L 113.899967 167.470125 
L 114.633926 145.870125 
L 114.878579 185.614125 
L 115.123232 136.366125 
L 115.367885 170.494125 
L 115.612538 167.470125 
L 115.857191 150.190125 
L 116.101844 160.126125 
L 116.346497 146.302125 
L 116.59115 154.078125 
L 116.835803 115.198125 
L 117.080456 150.190125 
L 117.325109 166.606125 
L 117.569762 172.654125 
L 117.814415 131.182125 
L 118.059068 155.374125 
L 118.303721 154.078125 
L 118.548374 158.398125 
L 118.793027 142.414125 
L 119.03768 170.926125 
L 119.282333 144.142125 
L 119.526986 139.822125 
L 120.016292 183.022125 
L 120.260946 149.326125 
L 120.505599 139.822125 
L 120.750252 148.894125 
L 120.994905 166.174125 
L 121.239558 154.942125 
L 121.484211 184.750125 
L 121.728864 96.622125 
L 121.973517 182.158125 
L 122.21817 170.926125 
L 122.462823 150.190125 
L 122.707476 179.566125 
L 122.952129 177.406125 
L 123.196782 167.902125 
L 123.441435 171.790125 
L 123.686088 154.942125 
L 123.930741 168.766125 
L 124.175394 133.774125 
L 124.420047 149.326125 
L 124.6647 185.182125 
L 124.909353 159.262125 
L 125.154006 165.310125 
L 125.398659 152.350125 
L 125.643312 160.126125 
L 125.887965 153.646125 
L 126.132618 154.942125 
L 126.377271 164.878125 
L 126.621924 150.190125 
L 126.866577 151.486125 
L 127.11123 161.854125 
L 127.355883 148.030125 
L 127.600536 159.694125 
L 127.845189 146.734125 
L 128.089842 145.438125 
L 128.334495 153.646125 
L 128.579148 126.430125 
L 128.823801 149.758125 
L 129.068454 186.478125 
L 129.313107 173.950125 
L 129.55776 154.510125 
L 129.802413 156.670125 
L 130.047066 164.446125 
L 130.291719 166.174125 
L 130.781025 183.454125 
L 131.025678 167.470125 
L 131.270331 163.582125 
L 131.514984 145.006125 
L 131.759637 163.150125 
L 132.00429 161.854125 
L 132.248943 162.286125 
L 132.493596 133.342125 
L 132.738249 173.950125 
L 132.982902 166.174125 
L 133.227555 164.014125 
L 133.472208 121.246125 
L 133.716861 121.678125 
L 133.961514 151.918125 
L 134.206167 157.102125 
L 134.45082 125.566125 
L 134.695473 165.310125 
L 134.940126 152.782125 
L 135.184779 148.894125 
L 135.429432 154.942125 
L 135.674085 144.574125 
L 135.918738 161.422125 
L 136.163391 167.038125 
L 136.652697 157.966125 
L 136.89735 166.174125 
L 137.142003 158.830125 
L 137.386656 217.150125 
L 137.631309 133.342125 
L 137.875962 172.222125 
L 138.120615 156.238125 
L 138.365268 120.814125 
L 138.609921 122.110125 
L 138.854574 163.582125 
L 139.099227 162.718125 
L 139.34388 169.198125 
L 139.588533 168.766125 
L 139.833186 143.278125 
L 140.322492 170.926125 
L 140.567145 146.734125 
L 140.811798 154.942125 
L 141.056451 178.270125 
L 141.301104 162.718125 
L 141.545757 138.958125 
L 141.79041 142.846125 
L 142.035063 153.214125 
L 142.279716 129.022125 
L 142.524369 176.110125 
L 142.769023 186.046125 
L 143.013676 157.966125 
L 143.258329 163.150125 
L 143.502982 164.446125 
L 143.992288 154.078125 
L 144.236941 129.454125 
L 144.481594 167.902125 
L 144.726247 148.462125 
L 144.9709 157.534125 
L 145.215553 157.966125 
L 145.460206 150.622125 
L 145.704859 158.830125 
L 145.949512 149.326125 
L 146.194165 151.486125 
L 146.438818 179.998125 
L 146.683471 161.422125 
L 146.928124 168.334125 
L 147.172777 146.734125 
L 147.41743 158.398125 
L 147.662083 135.502125 
L 147.906736 139.822125 
L 148.151389 184.750125 
L 148.396042 150.190125 
L 148.640695 145.870125 
L 148.885348 158.830125 
L 149.374654 193.390125 
L 149.619307 158.830125 
L 149.86396 158.830125 
L 150.108613 193.390125 
L 150.353266 160.558125 
L 150.597919 153.646125 
L 150.842572 190.798125 
L 151.087225 161.422125 
L 151.331878 166.174125 
L 151.576531 188.206125 
L 151.821184 161.854125 
L 152.065837 155.374125 
L 152.31049 132.478125 
L 152.555143 148.894125 
L 153.044449 151.918125 
L 153.289102 161.854125 
L 153.533755 124.270125 
L 153.778408 154.078125 
L 154.023061 155.806125 
L 154.267714 155.806125 
L 154.512367 149.326125 
L 154.75702 166.606125 
L 155.001673 154.510125 
L 155.246326 178.270125 
L 155.490979 160.126125 
L 155.735632 161.854125 
L 155.980285 151.054125 
L 156.224938 168.766125 
L 156.469591 136.798125 
L 156.714244 157.966125 
L 156.958897 135.070125 
L 157.448203 158.830125 
L 157.692856 163.582125 
L 157.937509 161.854125 
L 158.182162 174.814125 
L 158.426815 170.926125 
L 158.671468 158.830125 
L 158.916121 152.350125 
L 159.160774 169.630125 
L 159.405427 154.078125 
L 159.894733 171.358125 
L 160.139386 139.390125 
L 160.384039 164.014125 
L 160.873345 150.622125 
L 161.117998 152.350125 
L 161.362651 147.166125 
L 161.607304 154.510125 
L 161.851957 165.310125 
L 162.341263 172.222125 
L 162.585916 142.846125 
L 162.830569 143.710125 
L 163.075222 169.198125 
L 163.319875 176.110125 
L 163.564528 152.782125 
L 163.809181 167.038125 
L 164.053834 136.798125 
L 164.298487 164.014125 
L 164.54314 153.214125 
L 164.787793 148.030125 
L 165.032447 155.374125 
L 165.2771 150.622125 
L 165.521753 157.102125 
L 165.766406 132.910125 
L 166.011059 173.518125 
L 166.255712 156.670125 
L 166.500365 159.694125 
L 166.745018 165.310125 
L 166.989671 153.214125 
L 167.234324 175.678125 
L 167.478977 34.414125 
L 167.72363 172.222125 
L 167.968283 151.486125 
L 168.212936 174.814125 
L 168.457589 147.598125 
L 168.702242 169.630125 
L 168.946895 174.382125 
L 169.191548 147.166125 
L 169.436201 164.446125 
L 169.925507 149.758125 
L 170.17016 173.518125 
L 170.659466 150.622125 
L 170.904119 160.126125 
L 171.393425 152.782125 
L 171.638078 152.350125 
L 171.882731 152.350125 
L 172.127384 148.462125 
L 172.372037 155.806125 
L 172.61669 158.830125 
L 173.105996 172.654125 
L 173.350649 165.310125 
L 173.595302 171.358125 
L 173.839955 152.782125 
L 174.084608 167.470125 
L 174.329261 153.646125 
L 174.573914 150.622125 
L 174.818567 161.422125 
L 175.06322 159.262125 
L 175.307873 170.062125 
L 175.552526 162.718125 
L 175.797179 160.126125 
L 176.041832 136.366125 
L 176.286485 173.086125 
L 176.531138 145.438125 
L 176.775791 147.598125 
L 177.020444 157.102125 
L 177.265097 156.238125 
L 177.50975 159.694125 
L 177.754403 153.214125 
L 177.999056 161.854125 
L 178.243709 159.694125 
L 178.488362 140.254125 
L 178.733015 152.782125 
L 178.977668 178.702125 
L 179.222321 157.102125 
L 179.466974 165.310125 
L 179.711627 137.662125 
L 179.95628 167.902125 
L 180.200933 148.462125 
L 180.445586 168.334125 
L 180.690239 157.966125 
L 180.934892 164.446125 
L 181.179545 157.102125 
L 181.424198 167.902125 
L 181.668851 203.758125 
L 181.913504 199.870125 
L 182.158157 145.438125 
L 182.40281 153.646125 
L 182.647463 179.998125 
L 182.892116 171.790125 
L 183.136769 184.318125 
L 183.381422 141.118125 
L 183.626075 146.734125 
L 183.870728 162.718125 
L 184.115381 153.214125 
L 184.360034 163.150125 
L 184.84934 147.598125 
L 185.338646 157.534125 
L 185.583299 160.558125 
L 185.827952 172.222125 
L 186.072605 145.870125 
L 186.317258 162.286125 
L 186.561911 151.486125 
L 187.051217 163.150125 
L 187.29587 178.270125 
L 187.540524 155.374125 
L 187.785177 172.654125 
L 188.02983 150.622125 
L 188.274483 174.814125 
L 188.519136 149.758125 
L 188.763789 156.238125 
L 189.008442 151.918125 
L 189.253095 177.406125 
L 189.497748 154.078125 
L 189.742401 154.078125 
L 189.987054 164.014125 
L 190.231707 141.982125 
L 190.721013 186.478125 
L 190.965666 176.110125 
L 191.210319 131.182125 
L 191.454972 181.726125 
L 191.699625 171.358125 
L 191.944278 169.630125 
L 192.188931 155.806125 
L 192.433584 181.294125 
L 192.678237 154.942125 
L 192.92289 141.118125 
L 193.167543 151.486125 
L 193.412196 180.430125 
L 193.656849 138.526125 
L 193.901502 190.798125 
L 194.146155 165.742125 
L 194.390808 180.862125 
L 194.635461 166.606125 
L 194.880114 164.446125 
L 195.124767 183.454125 
L 195.36942 136.366125 
L 195.614073 145.006125 
L 195.858726 146.302125 
L 196.103379 130.318125 
L 196.348032 149.326125 
L 196.592685 147.598125 
L 196.837338 143.278125 
L 197.081991 134.638125 
L 197.326644 174.382125 
L 197.571297 148.894125 
L 197.81595 154.510125 
L 198.060603 152.350125 
L 198.305256 175.246125 
L 198.549909 67.246125 
L 198.794562 129.022125 
L 199.039215 162.286125 
L 199.283868 152.782125 
L 199.528521 164.446125 
L 200.017827 145.438125 
L 200.26248 161.854125 
L 200.507133 149.758125 
L 200.996439 141.550125 
L 201.241092 166.174125 
L 201.485745 155.806125 
L 201.730398 159.262125 
L 201.975051 168.766125 
L 202.219704 148.462125 
L 202.464357 150.190125 
L 202.70901 168.334125 
L 202.953663 162.718125 
L 203.198316 168.334125 
L 203.442969 170.062125 
L 203.687622 154.942125 
L 203.932275 170.062125 
L 204.176928 145.006125 
L 204.421581 178.270125 
L 204.666234 157.966125 
L 204.910887 197.710125 
L 205.15554 183.022125 
L 205.400193 186.910125 
L 205.889499 133.774125 
L 206.134152 127.726125 
L 206.378805 150.190125 
L 206.623458 155.374125 
L 206.868111 156.670125 
L 207.112764 153.214125 
L 207.357417 176.974125 
L 207.60207 172.654125 
L 207.846723 188.638125 
L 208.091376 138.958125 
L 208.336029 182.590125 
L 208.580682 169.630125 
L 208.825335 110.014125 
L 209.314641 174.814125 
L 209.559294 173.950125 
L 209.803947 169.630125 
L 210.048601 161.854125 
L 210.293254 159.262125 
L 210.537907 141.550125 
L 210.78256 155.374125 
L 211.027213 153.214125 
L 211.271866 139.822125 
L 211.516519 186.910125 
L 211.761172 174.382125 
L 212.005825 180.430125 
L 212.250478 176.974125 
L 212.495131 155.374125 
L 212.739784 180.430125 
L 212.984437 136.366125 
L 213.22909 145.870125 
L 213.473743 160.558125 
L 213.718396 148.462125 
L 213.963049 173.950125 
L 214.207702 167.470125 
L 214.452355 154.510125 
L 214.697008 118.654125 
L 215.186314 167.470125 
L 215.430967 142.846125 
L 215.67562 167.902125 
L 215.920273 156.670125 
L 216.164926 159.694125 
L 216.409579 157.966125 
L 216.654232 157.966125 
L 216.898885 173.950125 
L 217.143538 156.238125 
L 217.388191 149.326125 
L 217.877497 169.630125 
L 218.12215 167.470125 
L 218.366803 155.806125 
L 218.611456 214.558125 
L 218.856109 150.190125 
L 219.100762 198.574125 
L 219.590068 130.318125 
L 219.834721 179.998125 
L 220.079374 150.190125 
L 220.324027 173.950125 
L 220.56868 130.318125 
L 220.813333 174.382125 
L 221.302639 134.638125 
L 221.547292 171.358125 
L 221.791945 124.702125 
L 222.036598 189.934125 
L 222.281251 138.526125 
L 222.525904 117.790125 
L 222.770557 176.542125 
L 223.01521 149.758125 
L 223.259863 144.574125 
L 223.504516 142.846125 
L 223.749169 158.830125 
L 223.993822 141.982125 
L 224.238475 159.262125 
L 224.483128 157.966125 
L 224.727781 165.310125 
L 224.972434 149.326125 
L 225.217087 155.374125 
L 225.46174 169.198125 
L 225.706393 173.518125 
L 225.951046 157.966125 
L 226.195699 179.134125 
L 226.440352 145.438125 
L 226.685005 159.694125 
L 226.929658 158.398125 
L 227.174311 159.694125 
L 227.418964 158.830125 
L 227.663617 76.750125 
L 227.90827 173.086125 
L 228.152923 146.734125 
L 228.642229 171.790125 
L 229.131535 135.934125 
L 229.376188 138.958125 
L 229.620841 163.582125 
L 229.865494 159.694125 
L 230.110147 158.830125 
L 230.3548 126.862125 
L 230.599453 141.550125 
L 230.844106 178.270125 
L 231.088759 148.030125 
L 231.333412 141.118125 
L 231.578065 173.950125 
L 231.822718 164.878125 
L 232.067371 168.766125 
L 232.312024 150.190125 
L 232.556678 144.574125 
L 232.801331 110.446125 
L 233.045984 197.710125 
L 233.290637 154.078125 
L 233.53529 148.894125 
L 233.779943 185.182125 
L 234.024596 176.110125 
L 234.269249 157.534125 
L 234.513902 151.486125 
L 234.758555 152.350125 
L 235.003208 159.262125 
L 235.247861 154.078125 
L 235.492514 174.382125 
L 235.737167 131.614125 
L 235.98182 156.670125 
L 236.226473 156.238125 
L 236.471126 150.622125 
L 236.715779 158.398125 
L 236.960432 157.102125 
L 237.205085 159.262125 
L 237.449738 158.830125 
L 237.694391 157.534125 
L 237.939044 170.494125 
L 238.183697 145.870125 
L 238.42835 138.526125 
L 238.673003 161.422125 
L 238.917656 171.358125 
L 239.162309 136.366125 
L 239.406962 174.814125 
L 239.651615 165.742125 
L 239.896268 151.918125 
L 240.140921 150.622125 
L 240.385574 146.734125 
L 240.630227 182.158125 
L 240.87488 131.614125 
L 241.119533 162.286125 
L 241.364186 162.286125 
L 241.608839 147.598125 
L 241.853492 151.054125 
L 242.098145 164.446125 
L 242.342798 162.718125 
L 242.587451 158.830125 
L 242.832104 125.566125 
L 243.076757 145.870125 
L 243.32141 65.086125 
L 243.566063 164.878125 
L 243.810716 143.278125 
L 244.055369 154.078125 
L 244.300022 129.022125 
L 244.544675 136.366125 
L 244.789328 189.070125 
L 245.033981 145.870125 
L 245.278634 172.222125 
L 245.523287 140.254125 
L 245.76794 181.294125 
L 246.012593 138.526125 
L 246.257246 170.926125 
L 246.501899 160.990125 
L 246.746552 199.438125 
L 246.991205 211.102125 
L 247.235858 193.390125 
L 247.480511 212.398125 
L 247.725164 186.910125 
L 247.969817 120.382125 
L 248.21447 134.638125 
L 248.703776 177.838125 
L 248.948429 217.150125 
L 249.193082 104.398125 
L 249.437735 116.926125 
L 249.682388 187.774125 
L 249.927041 143.278125 
L 250.171694 199.438125 
L 250.416347 141.982125 
L 250.661 145.870125 
L 250.905653 176.110125 
L 251.150306 128.158125 
L 251.394959 156.670125 
L 251.639612 129.454125 
L 251.884265 196.414125 
L 252.128918 158.830125 
L 252.373571 195.982125 
L 252.618224 146.302125 
L 252.862877 165.310125 
L 253.10753 129.886125 
L 253.352183 216.286125 
L 253.596836 187.342125 
L 253.841489 113.038125 
L 254.086142 144.142125 
L 254.330795 100.510125 
L 254.575448 127.294125 
L 254.820101 175.678125 
L 255.309408 116.926125 
L 255.554061 171.790125 
L 255.798714 156.670125 
L 256.043367 167.902125 
L 256.28802 163.150125 
L 256.532673 148.462125 
L 256.777326 121.246125 
L 257.021979 134.206125 
L 257.266632 188.206125 
L 257.511285 171.358125 
L 257.755938 94.462125 
L 258.000591 176.542125 
L 258.245244 147.166125 
L 258.489897 167.470125 
L 258.73455 167.470125 
L 258.979203 164.014125 
L 259.223856 164.014125 
L 259.468509 146.734125 
L 259.713162 160.558125 
L 259.957815 181.294125 
L 260.202468 158.830125 
L 260.447121 202.030125 
L 260.936427 150.190125 
L 261.18108 164.014125 
L 261.425733 194.686125 
L 261.670386 174.814125 
L 261.915039 124.702125 
L 262.159692 169.198125 
L 262.404345 130.318125 
L 262.893651 186.046125 
L 263.138304 153.214125 
L 263.382957 163.150125 
L 263.62761 160.990125 
L 263.872263 137.662125 
L 264.116916 191.662125 
L 264.361569 130.318125 
L 264.850875 212.830125 
L 265.095528 77.182125 
L 265.340181 179.134125 
L 265.584834 160.126125 
L 265.829487 173.950125 
L 266.07414 144.574125 
L 266.318793 212.830125 
L 266.563446 133.342125 
L 267.052752 123.406125 
L 267.297405 179.566125 
L 267.542058 204.622125 
L 267.786711 109.582125 
L 268.031364 147.166125 
L 268.276017 121.246125 
L 268.52067 168.766125 
L 268.765323 170.926125 
L 269.009976 129.454125 
L 269.254629 169.198125 
L 269.743935 204.190125 
L 269.988588 143.278125 
L 270.233241 165.742125 
L 270.477894 262.510125 
L 270.9672 129.022125 
L 271.211853 139.822125 
L 271.456506 224.926125 
L 271.701159 125.566125 
L 271.945812 204.190125 
L 272.190465 109.150125 
L 272.435118 192.958125 
L 272.679771 173.518125 
L 272.924424 103.966125 
L 273.169077 219.310125 
L 273.41373 109.150125 
L 273.658383 168.766125 
L 273.903036 140.254125 
L 274.147689 91.870125 
L 274.392342 174.814125 
L 274.636995 192.526125 
L 274.881648 276.334125 
L 275.370954 172.654125 
L 275.615607 217.582125 
L 275.86026 128.158125 
L 276.104913 116.926125 
L 276.349566 173.518125 
L 276.838872 114.766125 
L 277.083525 129.022125 
L 277.572832 165.310125 
L 277.817485 163.582125 
L 278.306791 129.022125 
L 278.551444 123.406125 
L 278.796097 197.278125 
L 279.04075 158.398125 
L 279.285403 166.174125 
L 279.530056 124.270125 
L 279.774709 163.582125 
L 280.019362 130.318125 
L 280.264015 148.030125 
L 280.508668 176.110125 
L 280.753321 173.950125 
L 280.997974 134.206125 
L 281.242627 170.926125 
L 281.48728 129.022125 
L 281.976586 184.750125 
L 282.221239 155.374125 
L 282.465892 199.438125 
L 282.710545 160.558125 
L 282.955198 160.990125 
L 283.199851 192.526125 
L 283.444504 157.534125 
L 283.689157 177.406125 
L 283.93381 161.854125 
L 284.178463 130.318125 
L 284.423116 143.278125 
L 284.667769 173.518125 
L 284.912422 110.446125 
L 285.157075 159.694125 
L 285.401728 167.038125 
L 285.646381 122.110125 
L 285.891034 174.382125 
L 286.135687 124.270125 
L 286.38034 165.742125 
L 286.624993 148.462125 
L 286.869646 145.870125 
L 287.114299 182.158125 
L 287.358952 121.678125 
L 287.603605 148.894125 
L 287.848258 158.398125 
L 288.092911 162.718125 
L 288.337564 213.694125 
L 288.582217 146.302125 
L 288.82687 155.806125 
L 289.071523 148.462125 
L 289.316176 99.214125 
L 289.560829 180.430125 
L 289.805482 176.974125 
L 290.050135 100.510125 
L 290.294788 186.478125 
L 290.539441 158.830125 
L 290.784094 148.030125 
L 291.028747 158.398125 
L 291.518053 125.998125 
L 291.762706 186.478125 
L 292.007359 139.390125 
L 292.252012 179.998125 
L 292.496665 151.918125 
L 292.741318 213.694125 
L 292.985971 159.262125 
L 293.230624 157.534125 
L 293.475277 154.942125 
L 293.71993 166.174125 
L 293.964583 117.358125 
L 294.209236 155.806125 
L 294.453889 153.214125 
L 294.698542 140.254125 
L 294.943195 171.358125 
L 295.187848 144.142125 
L 295.677154 151.486125 
L 295.921807 164.014125 
L 296.16646 149.758125 
L 296.411113 170.926125 
L 296.655766 151.486125 
L 296.900419 167.470125 
L 297.145072 195.550125 
L 297.389725 165.310125 
L 297.634378 167.038125 
L 297.879031 141.550125 
L 298.123684 167.038125 
L 298.368337 150.622125 
L 298.61299 148.030125 
L 298.857643 171.790125 
L 299.102296 129.886125 
L 299.346949 270.286125 
L 299.836256 138.526125 
L 300.080909 110.446125 
L 300.325562 49.102125 
L 300.570215 176.110125 
L 300.814868 167.902125 
L 301.059521 145.870125 
L 301.304174 160.126125 
L 301.548827 118.654125 
L 301.79348 169.630125 
L 302.038133 164.014125 
L 302.282786 164.446125 
L 302.527439 155.374125 
L 302.772092 171.358125 
L 303.016745 157.534125 
L 303.261398 151.918125 
L 303.506051 176.542125 
L 303.750704 158.398125 
L 303.995357 160.990125 
L 304.24001 131.614125 
L 304.729316 215.422125 
L 304.973969 148.462125 
L 305.463275 180.430125 
L 305.707928 178.270125 
L 305.952581 155.806125 
L 306.197234 184.750125 
L 306.441887 125.566125 
L 306.68654 152.350125 
L 306.931193 154.510125 
L 307.175846 160.990125 
L 307.420499 173.086125 
L 307.665152 157.534125 
L 307.909805 167.902125 
L 308.154458 170.062125 
L 308.399111 145.438125 
L 308.643764 149.326125 
L 308.888417 166.606125 
L 309.13307 152.350125 
L 309.377723 158.398125 
L 309.622376 167.902125 
L 309.867029 155.374125 
L 310.111682 159.694125 
L 310.356335 159.694125 
L 310.600988 85.390125 
L 311.090294 205.054125 
L 311.334947 148.462125 
L 311.5796 148.894125 
L 311.824253 194.254125 
L 312.068906 157.102125 
L 312.313559 225.790125 
L 312.558212 95.758125 
L 312.802865 195.982125 
L 313.292171 138.094125 
L 313.536824 163.582125 
L 313.781477 160.558125 
L 314.02613 160.126125 
L 314.270783 154.942125 
L 314.515436 139.822125 
L 314.760089 167.902125 
L 315.004742 177.838125 
L 315.249395 139.822125 
L 315.494048 148.462125 
L 315.738701 170.062125 
L 315.983354 125.998125 
L 316.47266 185.614125 
L 316.717313 164.446125 
L 316.961966 159.694125 
L 317.206619 172.654125 
L 317.451272 143.710125 
L 317.695925 189.502125 
L 317.940578 155.374125 
L 318.185231 182.158125 
L 318.429884 151.054125 
L 318.674537 161.422125 
L 318.91919 153.214125 
L 319.163843 158.398125 
L 319.408496 160.558125 
L 319.653149 153.646125 
L 319.897802 141.550125 
L 320.142455 152.350125 
L 320.387108 91.438125 
L 320.631761 176.974125 
L 320.876414 102.670125 
L 321.121067 170.062125 
L 321.36572 182.158125 
L 321.610373 176.542125 
L 321.855026 188.206125 
L 322.099679 189.070125 
L 322.344333 89.278125 
L 322.588986 81.502125 
L 322.833639 245.230125 
L 323.078292 249.118125 
L 323.567598 148.894125 
L 323.812251 117.790125 
L 324.056904 151.054125 
L 324.301557 139.822125 
L 324.54621 161.854125 
L 324.790863 156.238125 
L 325.035516 140.686125 
L 325.280169 197.710125 
L 325.524822 125.134125 
L 325.769475 174.382125 
L 326.014128 161.422125 
L 326.258781 228.814125 
L 326.748087 144.574125 
L 326.99274 164.878125 
L 327.237393 175.246125 
L 327.482046 103.102125 
L 327.726699 185.182125 
L 327.971352 132.046125 
L 328.216005 128.158125 
L 328.460658 140.686125 
L 328.705311 169.630125 
L 328.949964 77.614125 
L 329.194617 173.518125 
L 329.43927 149.326125 
L 329.683923 170.494125 
L 329.928576 135.070125 
L 330.173229 154.078125 
L 330.417882 157.534125 
L 330.662535 157.534125 
L 330.907188 172.654125 
L 331.151841 153.646125 
L 331.396494 180.862125 
L 331.641147 136.366125 
L 331.8858 160.990125 
L 332.130453 150.190125 
L 332.375106 156.238125 
L 332.619759 174.814125 
L 332.864412 181.294125 
L 333.109065 119.950125 
L 333.353718 166.606125 
L 333.598371 171.358125 
L 333.843024 145.870125 
L 334.087677 153.214125 
L 334.33233 177.838125 
L 334.576983 132.478125 
L 334.821636 173.518125 
L 335.066289 155.806125 
L 335.310942 151.918125 
L 335.555595 179.566125 
L 335.800248 176.542125 
L 336.044901 148.894125 
L 336.534207 175.678125 
L 336.77886 153.646125 
L 337.023513 143.710125 
L 337.268166 173.950125 
L 337.512819 162.286125 
L 337.757472 135.502125 
L 338.002125 148.894125 
L 338.246778 146.302125 
L 338.491431 157.102125 
L 338.736084 160.558125 
L 338.980737 142.414125 
L 339.22539 252.574125 
L 339.470043 189.070125 
L 339.714696 52.126125 
L 339.959349 172.654125 
L 340.204002 148.462125 
L 340.448655 137.662125 
L 340.693308 228.382125 
L 340.937961 152.350125 
L 341.182614 153.646125 
L 341.427267 170.062125 
L 341.67192 160.990125 
L 341.916573 162.286125 
L 342.161226 176.974125 
L 342.405879 162.718125 
L 342.650532 130.318125 
L 342.895185 156.670125 
L 343.139838 143.278125 
L 343.384491 173.950125 
L 343.629144 129.022125 
L 344.363103 172.222125 
L 344.607756 173.518125 
L 344.85241 163.150125 
L 345.097063 157.966125 
L 345.341716 168.334125 
L 345.586369 170.494125 
L 345.831022 151.486125 
L 346.075675 156.670125 
L 346.320328 179.134125 
L 347.29894 135.070125 
L 347.543593 154.510125 
L 347.788246 155.806125 
L 348.032899 149.326125 
L 348.277552 173.518125 
L 348.522205 144.574125 
L 348.766858 173.950125 
L 349.256164 132.910125 
L 349.500817 164.014125 
L 349.74547 143.278125 
L 349.990123 160.558125 
L 350.234776 139.390125 
L 350.479429 153.646125 
L 350.724082 175.678125 
L 351.213388 157.534125 
L 351.458041 200.734125 
L 351.702694 172.654125 
L 351.947347 103.102125 
L 352.192 157.966125 
L 352.436653 168.334125 
L 352.681306 169.198125 
L 352.925959 171.358125 
L 353.170612 160.990125 
L 353.415265 141.118125 
L 353.659918 149.758125 
L 353.904571 118.222125 
L 354.149224 171.790125 
L 354.393877 186.910125 
L 354.883183 127.294125 
L 355.372489 161.422125 
L 355.617142 156.238125 
L 355.861795 140.686125 
L 356.106448 162.718125 
L 356.351101 162.286125 
L 356.595754 148.894125 
L 356.840407 143.278125 
L 357.08506 148.462125 
L 357.329713 167.038125 
L 357.574366 167.038125 
L 357.819019 160.990125 
L 358.308325 192.094125 
L 358.797631 147.166125 
L 359.042284 154.942125 
L 359.286937 152.350125 
L 359.53159 188.638125 
L 359.776243 146.302125 
L 360.020896 178.270125 
L 360.265549 160.990125 
L 360.510202 164.446125 
L 360.754855 156.670125 
L 360.999508 158.830125 
L 361.244161 199.006125 
L 361.488814 155.806125 
L 361.733467 198.574125 
L 361.97812 155.806125 
L 362.222773 158.398125 
L 362.467426 162.286125 
L 362.712079 161.422125 
L 362.956732 151.918125 
L 363.201385 166.174125 
L 363.446038 161.422125 
L 363.690691 148.030125 
L 363.935344 156.670125 
L 364.179997 144.574125 
L 364.42465 155.806125 
L 364.669303 154.078125 
L 364.913956 144.142125 
L 365.158609 173.086125 
L 365.403262 149.326125 
L 365.647915 170.926125 
L 365.892568 137.662125 
L 366.137221 159.694125 
L 366.381874 157.966125 
L 366.626527 172.222125 
L 366.87118 154.942125 
L 367.115833 176.110125 
L 367.360487 138.094125 
L 367.60514 188.638125 
L 368.094446 136.798125 
L 368.339099 173.950125 
L 368.583752 166.174125 
L 368.828405 167.470125 
L 369.073058 145.006125 
L 369.317711 154.078125 
L 369.562364 151.918125 
L 369.807017 144.574125 
L 370.05167 192.526125 
L 370.296323 179.134125 
L 370.540976 151.486125 
L 370.785629 144.574125 
L 371.274935 211.534125 
L 371.519588 176.110125 
L 371.764241 166.606125 
L 372.008894 133.342125 
L 372.4982 200.734125 
L 372.742853 149.326125 
L 372.987506 165.310125 
L 373.232159 164.878125 
L 373.476812 142.846125 
L 373.721465 173.086125 
L 373.966118 134.638125 
L 374.210771 167.902125 
L 374.455424 152.782125 
L 374.700077 177.838125 
L 374.94473 151.054125 
L 375.189383 165.310125 
L 375.434036 164.446125 
L 375.923342 168.334125 
L 376.167995 164.878125 
L 376.412648 139.390125 
L 376.901954 161.422125 
L 377.146607 160.990125 
L 377.39126 152.782125 
L 377.635913 139.822125 
L 377.880566 165.742125 
L 378.125219 155.374125 
L 378.369872 155.374125 
L 378.614525 157.534125 
L 378.859178 172.654125 
L 379.103831 131.182125 
L 379.348484 147.598125 
L 379.83779 164.446125 
L 380.082443 164.446125 
L 380.327096 176.974125 
L 380.571749 172.654125 
L 380.816402 162.286125 
L 381.061055 146.302125 
L 381.305708 157.966125 
L 381.550361 156.670125 
L 381.795014 159.262125 
L 382.039667 166.174125 
L 382.28432 168.766125 
L 382.528973 218.446125 
L 382.773626 66.814125 
L 383.018279 165.742125 
L 383.262932 163.582125 
L 383.507585 167.038125 
L 383.507585 167.038125 
" style="fill:none;stroke:#ff7f0e;stroke-linecap:square;stroke-width:1.5;"/>
   </g>
   <g id="patch_3">
    <path d="M 42.620313 288.430125 
L 42.620313 22.318125 
" style="fill:none;stroke:#000000;stroke-linecap:square;stroke-linejoin:miter;stroke-width:0.8;"/>
   </g>
   <g id="patch_4">
    <path d="M 399.740313 288.430125 
L 399.740313 22.318125 
" style="fill:none;stroke:#000000;stroke-linecap:square;stroke-linejoin:miter;stroke-width:0.8;"/>
   </g>
   <g id="patch_5">
    <path d="M 42.620313 288.430125 
L 399.740313 288.430125 
" style="fill:none;stroke:#000000;stroke-linecap:square;stroke-linejoin:miter;stroke-width:0.8;"/>
   </g>
   <g id="patch_6">
    <path d="M 42.620313 22.318125 
L 399.740313 22.318125 
" style="fill:none;stroke:#000000;stroke-linecap:square;stroke-linejoin:miter;stroke-width:0.8;"/>
   </g>
   <g id="text_17">
    <!-- Training: MDLZ -->
    <defs>
     <path d="M -0.296875 72.90625 
L 61.375 72.90625 
L 61.375 64.59375 
L 35.5 64.59375 
L 35.5 0 
L 25.59375 0 
L 25.59375 64.59375 
L -0.296875 64.59375 
z
" id="DejaVuSans-84"/>
     <path d="M 41.109375 46.296875 
Q 39.59375 47.171875 37.8125 47.578125 
Q 36.03125 48 33.890625 48 
Q 26.265625 48 22.1875 43.046875 
Q 18.109375 38.09375 18.109375 28.8125 
L 18.109375 0 
L 9.078125 0 
L 9.078125 54.6875 
L 18.109375 54.6875 
L 18.109375 46.1875 
Q 20.953125 51.171875 25.484375 53.578125 
Q 30.03125 56 36.53125 56 
Q 37.453125 56 38.578125 55.875 
Q 39.703125 55.765625 41.0625 55.515625 
z
" id="DejaVuSans-114"/>
     <path d="M 9.421875 54.6875 
L 18.40625 54.6875 
L 18.40625 0 
L 9.421875 0 
z
M 9.421875 75.984375 
L 18.40625 75.984375 
L 18.40625 64.59375 
L 9.421875 64.59375 
z
" id="DejaVuSans-105"/>
     <path d="M 11.71875 12.40625 
L 22.015625 12.40625 
L 22.015625 0 
L 11.71875 0 
z
M 11.71875 51.703125 
L 22.015625 51.703125 
L 22.015625 39.3125 
L 11.71875 39.3125 
z
" id="DejaVuSans-58"/>
     <path d="M 9.8125 72.90625 
L 24.515625 72.90625 
L 43.109375 23.296875 
L 61.8125 72.90625 
L 76.515625 72.90625 
L 76.515625 0 
L 66.890625 0 
L 66.890625 64.015625 
L 48.09375 14.015625 
L 38.1875 14.015625 
L 19.390625 64.015625 
L 19.390625 0 
L 9.8125 0 
z
" id="DejaVuSans-77"/>
     <path d="M 9.8125 72.90625 
L 19.671875 72.90625 
L 19.671875 8.296875 
L 55.171875 8.296875 
L 55.171875 0 
L 9.8125 0 
z
" id="DejaVuSans-76"/>
     <path d="M 5.609375 72.90625 
L 62.890625 72.90625 
L 62.890625 65.375 
L 16.796875 8.296875 
L 64.015625 8.296875 
L 64.015625 0 
L 4.5 0 
L 4.5 7.515625 
L 50.59375 64.59375 
L 5.609375 64.59375 
z
" id="DejaVuSans-90"/>
    </defs>
    <g transform="translate(176.33125 16.318125)scale(0.12 -0.12)">
     <use xlink:href="#DejaVuSans-84"/>
     <use x="46.333984" xlink:href="#DejaVuSans-114"/>
     <use x="87.447266" xlink:href="#DejaVuSans-97"/>
     <use x="148.726562" xlink:href="#DejaVuSans-105"/>
     <use x="176.509766" xlink:href="#DejaVuSans-110"/>
     <use x="239.888672" xlink:href="#DejaVuSans-105"/>
     <use x="267.671875" xlink:href="#DejaVuSans-110"/>
     <use x="331.050781" xlink:href="#DejaVuSans-103"/>
     <use x="394.527344" xlink:href="#DejaVuSans-58"/>
     <use x="428.21875" xlink:href="#DejaVuSans-32"/>
     <use x="460.005859" xlink:href="#DejaVuSans-77"/>
     <use x="546.285156" xlink:href="#DejaVuSans-68"/>
     <use x="623.287109" xlink:href="#DejaVuSans-76"/>
     <use x="679" xlink:href="#DejaVuSans-90"/>
    </g>
   </g>
   <g id="legend_1">
    <g id="patch_7">
     <path d="M 49.620313 59.674375 
L 133.348438 59.674375 
Q 135.348438 59.674375 135.348438 57.674375 
L 135.348438 29.318125 
Q 135.348438 27.318125 133.348438 27.318125 
L 49.620313 27.318125 
Q 47.620313 27.318125 47.620313 29.318125 
L 47.620313 57.674375 
Q 47.620313 59.674375 49.620313 59.674375 
z
" style="fill:#ffffff;opacity:0.8;stroke:#cccccc;stroke-linejoin:miter;"/>
    </g>
    <g id="line2d_31">
     <path d="M 51.620313 35.416562 
L 71.620313 35.416562 
" style="fill:none;stroke:#1f77b4;stroke-linecap:square;stroke-width:1.5;"/>
    </g>
    <g id="line2d_32"/>
    <g id="text_18">
     <!-- Predicted -->
     <defs>
      <path d="M 19.671875 64.796875 
L 19.671875 37.40625 
L 32.078125 37.40625 
Q 38.96875 37.40625 42.71875 40.96875 
Q 46.484375 44.53125 46.484375 51.125 
Q 46.484375 57.671875 42.71875 61.234375 
Q 38.96875 64.796875 32.078125 64.796875 
z
M 9.8125 72.90625 
L 32.078125 72.90625 
Q 44.34375 72.90625 50.609375 67.359375 
Q 56.890625 61.8125 56.890625 51.125 
Q 56.890625 40.328125 50.609375 34.8125 
Q 44.34375 29.296875 32.078125 29.296875 
L 19.671875 29.296875 
L 19.671875 0 
L 9.8125 0 
z
" id="DejaVuSans-80"/>
      <path d="M 45.40625 46.390625 
L 45.40625 75.984375 
L 54.390625 75.984375 
L 54.390625 0 
L 45.40625 0 
L 45.40625 8.203125 
Q 42.578125 3.328125 38.25 0.953125 
Q 33.9375 -1.421875 27.875 -1.421875 
Q 17.96875 -1.421875 11.734375 6.484375 
Q 5.515625 14.40625 5.515625 27.296875 
Q 5.515625 40.1875 11.734375 48.09375 
Q 17.96875 56 27.875 56 
Q 33.9375 56 38.25 53.625 
Q 42.578125 51.265625 45.40625 46.390625 
z
M 14.796875 27.296875 
Q 14.796875 17.390625 18.875 11.75 
Q 22.953125 6.109375 30.078125 6.109375 
Q 37.203125 6.109375 41.296875 11.75 
Q 45.40625 17.390625 45.40625 27.296875 
Q 45.40625 37.203125 41.296875 42.84375 
Q 37.203125 48.484375 30.078125 48.484375 
Q 22.953125 48.484375 18.875 42.84375 
Q 14.796875 37.203125 14.796875 27.296875 
z
" id="DejaVuSans-100"/>
      <path d="M 48.78125 52.59375 
L 48.78125 44.1875 
Q 44.96875 46.296875 41.140625 47.34375 
Q 37.3125 48.390625 33.40625 48.390625 
Q 24.65625 48.390625 19.8125 42.84375 
Q 14.984375 37.3125 14.984375 27.296875 
Q 14.984375 17.28125 19.8125 11.734375 
Q 24.65625 6.203125 33.40625 6.203125 
Q 37.3125 6.203125 41.140625 7.25 
Q 44.96875 8.296875 48.78125 10.40625 
L 48.78125 2.09375 
Q 45.015625 0.34375 40.984375 -0.53125 
Q 36.96875 -1.421875 32.421875 -1.421875 
Q 20.0625 -1.421875 12.78125 6.34375 
Q 5.515625 14.109375 5.515625 27.296875 
Q 5.515625 40.671875 12.859375 48.328125 
Q 20.21875 56 33.015625 56 
Q 37.15625 56 41.109375 55.140625 
Q 45.0625 54.296875 48.78125 52.59375 
z
" id="DejaVuSans-99"/>
      <path d="M 18.3125 70.21875 
L 18.3125 54.6875 
L 36.8125 54.6875 
L 36.8125 47.703125 
L 18.3125 47.703125 
L 18.3125 18.015625 
Q 18.3125 11.328125 20.140625 9.421875 
Q 21.96875 7.515625 27.59375 7.515625 
L 36.8125 7.515625 
L 36.8125 0 
L 27.59375 0 
Q 17.1875 0 13.234375 3.875 
Q 9.28125 7.765625 9.28125 18.015625 
L 9.28125 47.703125 
L 2.6875 47.703125 
L 2.6875 54.6875 
L 9.28125 54.6875 
L 9.28125 70.21875 
z
" id="DejaVuSans-116"/>
     </defs>
     <g transform="translate(79.620313 38.916562)scale(0.1 -0.1)">
      <use xlink:href="#DejaVuSans-80"/>
      <use x="58.552734" xlink:href="#DejaVuSans-114"/>
      <use x="97.416016" xlink:href="#DejaVuSans-101"/>
      <use x="158.939453" xlink:href="#DejaVuSans-100"/>
      <use x="222.416016" xlink:href="#DejaVuSans-105"/>
      <use x="250.199219" xlink:href="#DejaVuSans-99"/>
      <use x="305.179688" xlink:href="#DejaVuSans-116"/>
      <use x="344.388672" xlink:href="#DejaVuSans-101"/>
      <use x="405.912109" xlink:href="#DejaVuSans-100"/>
     </g>
    </g>
    <g id="line2d_33">
     <path d="M 51.620313 50.094687 
L 71.620313 50.094687 
" style="fill:none;stroke:#ff7f0e;stroke-linecap:square;stroke-width:1.5;"/>
    </g>
    <g id="line2d_34"/>
    <g id="text_19">
     <!-- True value -->
     <defs>
      <path d="M 8.5 21.578125 
L 8.5 54.6875 
L 17.484375 54.6875 
L 17.484375 21.921875 
Q 17.484375 14.15625 20.5 10.265625 
Q 23.53125 6.390625 29.59375 6.390625 
Q 36.859375 6.390625 41.078125 11.03125 
Q 45.3125 15.671875 45.3125 23.6875 
L 45.3125 54.6875 
L 54.296875 54.6875 
L 54.296875 0 
L 45.3125 0 
L 45.3125 8.40625 
Q 42.046875 3.421875 37.71875 1 
Q 33.40625 -1.421875 27.6875 -1.421875 
Q 18.265625 -1.421875 13.375 4.4375 
Q 8.5 10.296875 8.5 21.578125 
z
M 31.109375 56 
z
" id="DejaVuSans-117"/>
      <path d="M 2.984375 54.6875 
L 12.5 54.6875 
L 29.59375 8.796875 
L 46.6875 54.6875 
L 56.203125 54.6875 
L 35.6875 0 
L 23.484375 0 
z
" id="DejaVuSans-118"/>
      <path d="M 9.421875 75.984375 
L 18.40625 75.984375 
L 18.40625 0 
L 9.421875 0 
z
" id="DejaVuSans-108"/>
     </defs>
     <g transform="translate(79.620313 53.594687)scale(0.1 -0.1)">
      <use xlink:href="#DejaVuSans-84"/>
      <use x="46.333984" xlink:href="#DejaVuSans-114"/>
      <use x="87.447266" xlink:href="#DejaVuSans-117"/>
      <use x="150.826172" xlink:href="#DejaVuSans-101"/>
      <use x="212.349609" xlink:href="#DejaVuSans-32"/>
      <use x="244.136719" xlink:href="#DejaVuSans-118"/>
      <use x="303.316406" xlink:href="#DejaVuSans-97"/>
      <use x="364.595703" xlink:href="#DejaVuSans-108"/>
      <use x="392.378906" xlink:href="#DejaVuSans-117"/>
      <use x="455.757812" xlink:href="#DejaVuSans-101"/>
     </g>
    </g>
   </g>
  </g>
 </g>
 <defs>
  <clipPath id="pea5faf8fb8">
   <rect height="266.112" width="357.12" x="42.620313" y="22.318125"/>
  </clipPath>
 </defs>
</svg>
