<?xml version="1.0" encoding="utf-8" standalone="no"?>
<!DOCTYPE svg PUBLIC "-//W3C//DTD SVG 1.1//EN"
  "http://www.w3.org/Graphics/SVG/1.1/DTD/svg11.dtd">
<!-- Created with matplotlib (https://matplotlib.org/) -->
<svg height="325.986375pt" version="1.1" viewBox="0 0 411.285625 325.986375" width="411.285625pt" xmlns="http://www.w3.org/2000/svg" xmlns:xlink="http://www.w3.org/1999/xlink">
 <defs>
  <style type="text/css">
*{stroke-linecap:butt;stroke-linejoin:round;}
  </style>
 </defs>
 <g id="figure_1">
  <g id="patch_1">
   <path d="M 0 325.986375 
L 411.285625 325.986375 
L 411.285625 0 
L 0 0 
z
" style="fill:#ffffff;"/>
  </g>
  <g id="axes_1">
   <g id="patch_2">
    <path d="M 46.965625 288.430125 
L 404.085625 288.430125 
L 404.085625 22.318125 
L 46.965625 22.318125 
z
" style="fill:#ffffff;"/>
   </g>
   <g id="matplotlib.axis_1">
    <g id="xtick_1">
     <g id="line2d_1">
      <path clip-path="url(#p6670a50d0d)" d="M 63.198352 288.430125 
L 63.198352 22.318125 
" style="fill:none;stroke:#b0b0b0;stroke-dasharray:2.96,1.28;stroke-dashoffset:0;stroke-width:0.8;"/>
     </g>
     <g id="line2d_2">
      <defs>
       <path d="M 0 0 
L 0 3.5 
" id="ma5fa982019" style="stroke:#000000;stroke-width:0.8;"/>
      </defs>
      <g>
       <use style="stroke:#000000;stroke-width:0.8;" x="63.198352" xlink:href="#ma5fa982019" y="288.430125"/>
      </g>
     </g>
     <g id="text_1">
      <!-- 0 -->
      <defs>
       <path d="M 31.78125 66.40625 
Q 24.171875 66.40625 20.328125 58.90625 
Q 16.5 51.421875 16.5 36.375 
Q 16.5 21.390625 20.328125 13.890625 
Q 24.171875 6.390625 31.78125 6.390625 
Q 39.453125 6.390625 43.28125 13.890625 
Q 47.125 21.390625 47.125 36.375 
Q 47.125 51.421875 43.28125 58.90625 
Q 39.453125 66.40625 31.78125 66.40625 
z
M 31.78125 74.21875 
Q 44.046875 74.21875 50.515625 64.515625 
Q 56.984375 54.828125 56.984375 36.375 
Q 56.984375 17.96875 50.515625 8.265625 
Q 44.046875 -1.421875 31.78125 -1.421875 
Q 19.53125 -1.421875 13.0625 8.265625 
Q 6.59375 17.96875 6.59375 36.375 
Q 6.59375 54.828125 13.0625 64.515625 
Q 19.53125 74.21875 31.78125 74.21875 
z
" id="DejaVuSans-48"/>
      </defs>
      <g transform="translate(60.017102 303.028562)scale(0.1 -0.1)">
       <use xlink:href="#DejaVuSans-48"/>
      </g>
     </g>
    </g>
    <g id="xtick_2">
     <g id="line2d_3">
      <path clip-path="url(#p6670a50d0d)" d="M 112.128954 288.430125 
L 112.128954 22.318125 
" style="fill:none;stroke:#b0b0b0;stroke-dasharray:2.96,1.28;stroke-dashoffset:0;stroke-width:0.8;"/>
     </g>
     <g id="line2d_4">
      <g>
       <use style="stroke:#000000;stroke-width:0.8;" x="112.128954" xlink:href="#ma5fa982019" y="288.430125"/>
      </g>
     </g>
     <g id="text_2">
      <!-- 200 -->
      <defs>
       <path d="M 19.1875 8.296875 
L 53.609375 8.296875 
L 53.609375 0 
L 7.328125 0 
L 7.328125 8.296875 
Q 12.9375 14.109375 22.625 23.890625 
Q 32.328125 33.6875 34.8125 36.53125 
Q 39.546875 41.84375 41.421875 45.53125 
Q 43.3125 49.21875 43.3125 52.78125 
Q 43.3125 58.59375 39.234375 62.25 
Q 35.15625 65.921875 28.609375 65.921875 
Q 23.96875 65.921875 18.8125 64.3125 
Q 13.671875 62.703125 7.8125 59.421875 
L 7.8125 69.390625 
Q 13.765625 71.78125 18.9375 73 
Q 24.125 74.21875 28.421875 74.21875 
Q 39.75 74.21875 46.484375 68.546875 
Q 53.21875 62.890625 53.21875 53.421875 
Q 53.21875 48.921875 51.53125 44.890625 
Q 49.859375 40.875 45.40625 35.40625 
Q 44.1875 33.984375 37.640625 27.21875 
Q 31.109375 20.453125 19.1875 8.296875 
z
" id="DejaVuSans-50"/>
      </defs>
      <g transform="translate(102.585204 303.028562)scale(0.1 -0.1)">
       <use xlink:href="#DejaVuSans-50"/>
       <use x="63.623047" xlink:href="#DejaVuSans-48"/>
       <use x="127.246094" xlink:href="#DejaVuSans-48"/>
      </g>
     </g>
    </g>
    <g id="xtick_3">
     <g id="line2d_5">
      <path clip-path="url(#p6670a50d0d)" d="M 161.059557 288.430125 
L 161.059557 22.318125 
" style="fill:none;stroke:#b0b0b0;stroke-dasharray:2.96,1.28;stroke-dashoffset:0;stroke-width:0.8;"/>
     </g>
     <g id="line2d_6">
      <g>
       <use style="stroke:#000000;stroke-width:0.8;" x="161.059557" xlink:href="#ma5fa982019" y="288.430125"/>
      </g>
     </g>
     <g id="text_3">
      <!-- 400 -->
      <defs>
       <path d="M 37.796875 64.3125 
L 12.890625 25.390625 
L 37.796875 25.390625 
z
M 35.203125 72.90625 
L 47.609375 72.90625 
L 47.609375 25.390625 
L 58.015625 25.390625 
L 58.015625 17.1875 
L 47.609375 17.1875 
L 47.609375 0 
L 37.796875 0 
L 37.796875 17.1875 
L 4.890625 17.1875 
L 4.890625 26.703125 
z
" id="DejaVuSans-52"/>
      </defs>
      <g transform="translate(151.515807 303.028562)scale(0.1 -0.1)">
       <use xlink:href="#DejaVuSans-52"/>
       <use x="63.623047" xlink:href="#DejaVuSans-48"/>
       <use x="127.246094" xlink:href="#DejaVuSans-48"/>
      </g>
     </g>
    </g>
    <g id="xtick_4">
     <g id="line2d_7">
      <path clip-path="url(#p6670a50d0d)" d="M 209.990159 288.430125 
L 209.990159 22.318125 
" style="fill:none;stroke:#b0b0b0;stroke-dasharray:2.96,1.28;stroke-dashoffset:0;stroke-width:0.8;"/>
     </g>
     <g id="line2d_8">
      <g>
       <use style="stroke:#000000;stroke-width:0.8;" x="209.990159" xlink:href="#ma5fa982019" y="288.430125"/>
      </g>
     </g>
     <g id="text_4">
      <!-- 600 -->
      <defs>
       <path d="M 33.015625 40.375 
Q 26.375 40.375 22.484375 35.828125 
Q 18.609375 31.296875 18.609375 23.390625 
Q 18.609375 15.53125 22.484375 10.953125 
Q 26.375 6.390625 33.015625 6.390625 
Q 39.65625 6.390625 43.53125 10.953125 
Q 47.40625 15.53125 47.40625 23.390625 
Q 47.40625 31.296875 43.53125 35.828125 
Q 39.65625 40.375 33.015625 40.375 
z
M 52.59375 71.296875 
L 52.59375 62.3125 
Q 48.875 64.0625 45.09375 64.984375 
Q 41.3125 65.921875 37.59375 65.921875 
Q 27.828125 65.921875 22.671875 59.328125 
Q 17.53125 52.734375 16.796875 39.40625 
Q 19.671875 43.65625 24.015625 45.921875 
Q 28.375 48.1875 33.59375 48.1875 
Q 44.578125 48.1875 50.953125 41.515625 
Q 57.328125 34.859375 57.328125 23.390625 
Q 57.328125 12.15625 50.6875 5.359375 
Q 44.046875 -1.421875 33.015625 -1.421875 
Q 20.359375 -1.421875 13.671875 8.265625 
Q 6.984375 17.96875 6.984375 36.375 
Q 6.984375 53.65625 15.1875 63.9375 
Q 23.390625 74.21875 37.203125 74.21875 
Q 40.921875 74.21875 44.703125 73.484375 
Q 48.484375 72.75 52.59375 71.296875 
z
" id="DejaVuSans-54"/>
      </defs>
      <g transform="translate(200.446409 303.028562)scale(0.1 -0.1)">
       <use xlink:href="#DejaVuSans-54"/>
       <use x="63.623047" xlink:href="#DejaVuSans-48"/>
       <use x="127.246094" xlink:href="#DejaVuSans-48"/>
      </g>
     </g>
    </g>
    <g id="xtick_5">
     <g id="line2d_9">
      <path clip-path="url(#p6670a50d0d)" d="M 258.920761 288.430125 
L 258.920761 22.318125 
" style="fill:none;stroke:#b0b0b0;stroke-dasharray:2.96,1.28;stroke-dashoffset:0;stroke-width:0.8;"/>
     </g>
     <g id="line2d_10">
      <g>
       <use style="stroke:#000000;stroke-width:0.8;" x="258.920761" xlink:href="#ma5fa982019" y="288.430125"/>
      </g>
     </g>
     <g id="text_5">
      <!-- 800 -->
      <defs>
       <path d="M 31.78125 34.625 
Q 24.75 34.625 20.71875 30.859375 
Q 16.703125 27.09375 16.703125 20.515625 
Q 16.703125 13.921875 20.71875 10.15625 
Q 24.75 6.390625 31.78125 6.390625 
Q 38.8125 6.390625 42.859375 10.171875 
Q 46.921875 13.96875 46.921875 20.515625 
Q 46.921875 27.09375 42.890625 30.859375 
Q 38.875 34.625 31.78125 34.625 
z
M 21.921875 38.8125 
Q 15.578125 40.375 12.03125 44.71875 
Q 8.5 49.078125 8.5 55.328125 
Q 8.5 64.0625 14.71875 69.140625 
Q 20.953125 74.21875 31.78125 74.21875 
Q 42.671875 74.21875 48.875 69.140625 
Q 55.078125 64.0625 55.078125 55.328125 
Q 55.078125 49.078125 51.53125 44.71875 
Q 48 40.375 41.703125 38.8125 
Q 48.828125 37.15625 52.796875 32.3125 
Q 56.78125 27.484375 56.78125 20.515625 
Q 56.78125 9.90625 50.3125 4.234375 
Q 43.84375 -1.421875 31.78125 -1.421875 
Q 19.734375 -1.421875 13.25 4.234375 
Q 6.78125 9.90625 6.78125 20.515625 
Q 6.78125 27.484375 10.78125 32.3125 
Q 14.796875 37.15625 21.921875 38.8125 
z
M 18.3125 54.390625 
Q 18.3125 48.734375 21.84375 45.5625 
Q 25.390625 42.390625 31.78125 42.390625 
Q 38.140625 42.390625 41.71875 45.5625 
Q 45.3125 48.734375 45.3125 54.390625 
Q 45.3125 60.0625 41.71875 63.234375 
Q 38.140625 66.40625 31.78125 66.40625 
Q 25.390625 66.40625 21.84375 63.234375 
Q 18.3125 60.0625 18.3125 54.390625 
z
" id="DejaVuSans-56"/>
      </defs>
      <g transform="translate(249.377011 303.028562)scale(0.1 -0.1)">
       <use xlink:href="#DejaVuSans-56"/>
       <use x="63.623047" xlink:href="#DejaVuSans-48"/>
       <use x="127.246094" xlink:href="#DejaVuSans-48"/>
      </g>
     </g>
    </g>
    <g id="xtick_6">
     <g id="line2d_11">
      <path clip-path="url(#p6670a50d0d)" d="M 307.851363 288.430125 
L 307.851363 22.318125 
" style="fill:none;stroke:#b0b0b0;stroke-dasharray:2.96,1.28;stroke-dashoffset:0;stroke-width:0.8;"/>
     </g>
     <g id="line2d_12">
      <g>
       <use style="stroke:#000000;stroke-width:0.8;" x="307.851363" xlink:href="#ma5fa982019" y="288.430125"/>
      </g>
     </g>
     <g id="text_6">
      <!-- 1000 -->
      <defs>
       <path d="M 12.40625 8.296875 
L 28.515625 8.296875 
L 28.515625 63.921875 
L 10.984375 60.40625 
L 10.984375 69.390625 
L 28.421875 72.90625 
L 38.28125 72.90625 
L 38.28125 8.296875 
L 54.390625 8.296875 
L 54.390625 0 
L 12.40625 0 
z
" id="DejaVuSans-49"/>
      </defs>
      <g transform="translate(295.126363 303.028562)scale(0.1 -0.1)">
       <use xlink:href="#DejaVuSans-49"/>
       <use x="63.623047" xlink:href="#DejaVuSans-48"/>
       <use x="127.246094" xlink:href="#DejaVuSans-48"/>
       <use x="190.869141" xlink:href="#DejaVuSans-48"/>
      </g>
     </g>
    </g>
    <g id="xtick_7">
     <g id="line2d_13">
      <path clip-path="url(#p6670a50d0d)" d="M 356.781965 288.430125 
L 356.781965 22.318125 
" style="fill:none;stroke:#b0b0b0;stroke-dasharray:2.96,1.28;stroke-dashoffset:0;stroke-width:0.8;"/>
     </g>
     <g id="line2d_14">
      <g>
       <use style="stroke:#000000;stroke-width:0.8;" x="356.781965" xlink:href="#ma5fa982019" y="288.430125"/>
      </g>
     </g>
     <g id="text_7">
      <!-- 1200 -->
      <g transform="translate(344.056965 303.028562)scale(0.1 -0.1)">
       <use xlink:href="#DejaVuSans-49"/>
       <use x="63.623047" xlink:href="#DejaVuSans-50"/>
       <use x="127.246094" xlink:href="#DejaVuSans-48"/>
       <use x="190.869141" xlink:href="#DejaVuSans-48"/>
      </g>
     </g>
    </g>
    <g id="text_8">
     <!-- Day -->
     <defs>
      <path d="M 19.671875 64.796875 
L 19.671875 8.109375 
L 31.59375 8.109375 
Q 46.6875 8.109375 53.6875 14.9375 
Q 60.6875 21.78125 60.6875 36.53125 
Q 60.6875 51.171875 53.6875 57.984375 
Q 46.6875 64.796875 31.59375 64.796875 
z
M 9.8125 72.90625 
L 30.078125 72.90625 
Q 51.265625 72.90625 61.171875 64.09375 
Q 71.09375 55.28125 71.09375 36.53125 
Q 71.09375 17.671875 61.125 8.828125 
Q 51.171875 0 30.078125 0 
L 9.8125 0 
z
" id="DejaVuSans-68"/>
      <path d="M 34.28125 27.484375 
Q 23.390625 27.484375 19.1875 25 
Q 14.984375 22.515625 14.984375 16.5 
Q 14.984375 11.71875 18.140625 8.90625 
Q 21.296875 6.109375 26.703125 6.109375 
Q 34.1875 6.109375 38.703125 11.40625 
Q 43.21875 16.703125 43.21875 25.484375 
L 43.21875 27.484375 
z
M 52.203125 31.203125 
L 52.203125 0 
L 43.21875 0 
L 43.21875 8.296875 
Q 40.140625 3.328125 35.546875 0.953125 
Q 30.953125 -1.421875 24.3125 -1.421875 
Q 15.921875 -1.421875 10.953125 3.296875 
Q 6 8.015625 6 15.921875 
Q 6 25.140625 12.171875 29.828125 
Q 18.359375 34.515625 30.609375 34.515625 
L 43.21875 34.515625 
L 43.21875 35.40625 
Q 43.21875 41.609375 39.140625 45 
Q 35.0625 48.390625 27.6875 48.390625 
Q 23 48.390625 18.546875 47.265625 
Q 14.109375 46.140625 10.015625 43.890625 
L 10.015625 52.203125 
Q 14.9375 54.109375 19.578125 55.046875 
Q 24.21875 56 28.609375 56 
Q 40.484375 56 46.34375 49.84375 
Q 52.203125 43.703125 52.203125 31.203125 
z
" id="DejaVuSans-97"/>
      <path d="M 32.171875 -5.078125 
Q 28.375 -14.84375 24.75 -17.8125 
Q 21.140625 -20.796875 15.09375 -20.796875 
L 7.90625 -20.796875 
L 7.90625 -13.28125 
L 13.1875 -13.28125 
Q 16.890625 -13.28125 18.9375 -11.515625 
Q 21 -9.765625 23.484375 -3.21875 
L 25.09375 0.875 
L 2.984375 54.6875 
L 12.5 54.6875 
L 29.59375 11.921875 
L 46.6875 54.6875 
L 56.203125 54.6875 
z
" id="DejaVuSans-121"/>
     </defs>
     <g transform="translate(215.652188 316.706687)scale(0.1 -0.1)">
      <use xlink:href="#DejaVuSans-68"/>
      <use x="77.001953" xlink:href="#DejaVuSans-97"/>
      <use x="138.28125" xlink:href="#DejaVuSans-121"/>
     </g>
    </g>
   </g>
   <g id="matplotlib.axis_2">
    <g id="ytick_1">
     <g id="line2d_15">
      <path clip-path="url(#p6670a50d0d)" d="M 46.965625 285.846401 
L 404.085625 285.846401 
" style="fill:none;stroke:#b0b0b0;stroke-dasharray:2.96,1.28;stroke-dashoffset:0;stroke-width:0.8;"/>
     </g>
     <g id="line2d_16">
      <defs>
       <path d="M 0 0 
L -3.5 0 
" id="m616b4eb51b" style="stroke:#000000;stroke-width:0.8;"/>
      </defs>
      <g>
       <use style="stroke:#000000;stroke-width:0.8;" x="46.965625" xlink:href="#m616b4eb51b" y="285.846401"/>
      </g>
     </g>
     <g id="text_9">
      <!-- 0 -->
      <g transform="translate(33.603125 289.64562)scale(0.1 -0.1)">
       <use xlink:href="#DejaVuSans-48"/>
      </g>
     </g>
    </g>
    <g id="ytick_2">
     <g id="line2d_17">
      <path clip-path="url(#p6670a50d0d)" d="M 46.965625 254.922227 
L 404.085625 254.922227 
" style="fill:none;stroke:#b0b0b0;stroke-dasharray:2.96,1.28;stroke-dashoffset:0;stroke-width:0.8;"/>
     </g>
     <g id="line2d_18">
      <g>
       <use style="stroke:#000000;stroke-width:0.8;" x="46.965625" xlink:href="#m616b4eb51b" y="254.922227"/>
      </g>
     </g>
     <g id="text_10">
      <!-- 25 -->
      <defs>
       <path d="M 10.796875 72.90625 
L 49.515625 72.90625 
L 49.515625 64.59375 
L 19.828125 64.59375 
L 19.828125 46.734375 
Q 21.96875 47.46875 24.109375 47.828125 
Q 26.265625 48.1875 28.421875 48.1875 
Q 40.625 48.1875 47.75 41.5 
Q 54.890625 34.8125 54.890625 23.390625 
Q 54.890625 11.625 47.5625 5.09375 
Q 40.234375 -1.421875 26.90625 -1.421875 
Q 22.3125 -1.421875 17.546875 -0.640625 
Q 12.796875 0.140625 7.71875 1.703125 
L 7.71875 11.625 
Q 12.109375 9.234375 16.796875 8.0625 
Q 21.484375 6.890625 26.703125 6.890625 
Q 35.15625 6.890625 40.078125 11.328125 
Q 45.015625 15.765625 45.015625 23.390625 
Q 45.015625 31 40.078125 35.4375 
Q 35.15625 39.890625 26.703125 39.890625 
Q 22.75 39.890625 18.8125 39.015625 
Q 14.890625 38.140625 10.796875 36.28125 
z
" id="DejaVuSans-53"/>
      </defs>
      <g transform="translate(27.240625 258.721446)scale(0.1 -0.1)">
       <use xlink:href="#DejaVuSans-50"/>
       <use x="63.623047" xlink:href="#DejaVuSans-53"/>
      </g>
     </g>
    </g>
    <g id="ytick_3">
     <g id="line2d_19">
      <path clip-path="url(#p6670a50d0d)" d="M 46.965625 223.998053 
L 404.085625 223.998053 
" style="fill:none;stroke:#b0b0b0;stroke-dasharray:2.96,1.28;stroke-dashoffset:0;stroke-width:0.8;"/>
     </g>
     <g id="line2d_20">
      <g>
       <use style="stroke:#000000;stroke-width:0.8;" x="46.965625" xlink:href="#m616b4eb51b" y="223.998053"/>
      </g>
     </g>
     <g id="text_11">
      <!-- 50 -->
      <g transform="translate(27.240625 227.797272)scale(0.1 -0.1)">
       <use xlink:href="#DejaVuSans-53"/>
       <use x="63.623047" xlink:href="#DejaVuSans-48"/>
      </g>
     </g>
    </g>
    <g id="ytick_4">
     <g id="line2d_21">
      <path clip-path="url(#p6670a50d0d)" d="M 46.965625 193.073879 
L 404.085625 193.073879 
" style="fill:none;stroke:#b0b0b0;stroke-dasharray:2.96,1.28;stroke-dashoffset:0;stroke-width:0.8;"/>
     </g>
     <g id="line2d_22">
      <g>
       <use style="stroke:#000000;stroke-width:0.8;" x="46.965625" xlink:href="#m616b4eb51b" y="193.073879"/>
      </g>
     </g>
     <g id="text_12">
      <!-- 75 -->
      <defs>
       <path d="M 8.203125 72.90625 
L 55.078125 72.90625 
L 55.078125 68.703125 
L 28.609375 0 
L 18.3125 0 
L 43.21875 64.59375 
L 8.203125 64.59375 
z
" id="DejaVuSans-55"/>
      </defs>
      <g transform="translate(27.240625 196.873098)scale(0.1 -0.1)">
       <use xlink:href="#DejaVuSans-55"/>
       <use x="63.623047" xlink:href="#DejaVuSans-53"/>
      </g>
     </g>
    </g>
    <g id="ytick_5">
     <g id="line2d_23">
      <path clip-path="url(#p6670a50d0d)" d="M 46.965625 162.149705 
L 404.085625 162.149705 
" style="fill:none;stroke:#b0b0b0;stroke-dasharray:2.96,1.28;stroke-dashoffset:0;stroke-width:0.8;"/>
     </g>
     <g id="line2d_24">
      <g>
       <use style="stroke:#000000;stroke-width:0.8;" x="46.965625" xlink:href="#m616b4eb51b" y="162.149705"/>
      </g>
     </g>
     <g id="text_13">
      <!-- 100 -->
      <g transform="translate(20.878125 165.948924)scale(0.1 -0.1)">
       <use xlink:href="#DejaVuSans-49"/>
       <use x="63.623047" xlink:href="#DejaVuSans-48"/>
       <use x="127.246094" xlink:href="#DejaVuSans-48"/>
      </g>
     </g>
    </g>
    <g id="ytick_6">
     <g id="line2d_25">
      <path clip-path="url(#p6670a50d0d)" d="M 46.965625 131.225532 
L 404.085625 131.225532 
" style="fill:none;stroke:#b0b0b0;stroke-dasharray:2.96,1.28;stroke-dashoffset:0;stroke-width:0.8;"/>
     </g>
     <g id="line2d_26">
      <g>
       <use style="stroke:#000000;stroke-width:0.8;" x="46.965625" xlink:href="#m616b4eb51b" y="131.225532"/>
      </g>
     </g>
     <g id="text_14">
      <!-- 125 -->
      <g transform="translate(20.878125 135.02475)scale(0.1 -0.1)">
       <use xlink:href="#DejaVuSans-49"/>
       <use x="63.623047" xlink:href="#DejaVuSans-50"/>
       <use x="127.246094" xlink:href="#DejaVuSans-53"/>
      </g>
     </g>
    </g>
    <g id="ytick_7">
     <g id="line2d_27">
      <path clip-path="url(#p6670a50d0d)" d="M 46.965625 100.301358 
L 404.085625 100.301358 
" style="fill:none;stroke:#b0b0b0;stroke-dasharray:2.96,1.28;stroke-dashoffset:0;stroke-width:0.8;"/>
     </g>
     <g id="line2d_28">
      <g>
       <use style="stroke:#000000;stroke-width:0.8;" x="46.965625" xlink:href="#m616b4eb51b" y="100.301358"/>
      </g>
     </g>
     <g id="text_15">
      <!-- 150 -->
      <g transform="translate(20.878125 104.100577)scale(0.1 -0.1)">
       <use xlink:href="#DejaVuSans-49"/>
       <use x="63.623047" xlink:href="#DejaVuSans-53"/>
       <use x="127.246094" xlink:href="#DejaVuSans-48"/>
      </g>
     </g>
    </g>
    <g id="ytick_8">
     <g id="line2d_29">
      <path clip-path="url(#p6670a50d0d)" d="M 46.965625 69.377184 
L 404.085625 69.377184 
" style="fill:none;stroke:#b0b0b0;stroke-dasharray:2.96,1.28;stroke-dashoffset:0;stroke-width:0.8;"/>
     </g>
     <g id="line2d_30">
      <g>
       <use style="stroke:#000000;stroke-width:0.8;" x="46.965625" xlink:href="#m616b4eb51b" y="69.377184"/>
      </g>
     </g>
     <g id="text_16">
      <!-- 175 -->
      <g transform="translate(20.878125 73.176403)scale(0.1 -0.1)">
       <use xlink:href="#DejaVuSans-49"/>
       <use x="63.623047" xlink:href="#DejaVuSans-55"/>
       <use x="127.246094" xlink:href="#DejaVuSans-53"/>
      </g>
     </g>
    </g>
    <g id="ytick_9">
     <g id="line2d_31">
      <path clip-path="url(#p6670a50d0d)" d="M 46.965625 38.45301 
L 404.085625 38.45301 
" style="fill:none;stroke:#b0b0b0;stroke-dasharray:2.96,1.28;stroke-dashoffset:0;stroke-width:0.8;"/>
     </g>
     <g id="line2d_32">
      <g>
       <use style="stroke:#000000;stroke-width:0.8;" x="46.965625" xlink:href="#m616b4eb51b" y="38.45301"/>
      </g>
     </g>
     <g id="text_17">
      <!-- 200 -->
      <g transform="translate(20.878125 42.252229)scale(0.1 -0.1)">
       <use xlink:href="#DejaVuSans-50"/>
       <use x="63.623047" xlink:href="#DejaVuSans-48"/>
       <use x="127.246094" xlink:href="#DejaVuSans-48"/>
      </g>
     </g>
    </g>
    <g id="text_18">
     <!-- Price $ -->
     <defs>
      <path d="M 19.671875 64.796875 
L 19.671875 37.40625 
L 32.078125 37.40625 
Q 38.96875 37.40625 42.71875 40.96875 
Q 46.484375 44.53125 46.484375 51.125 
Q 46.484375 57.671875 42.71875 61.234375 
Q 38.96875 64.796875 32.078125 64.796875 
z
M 9.8125 72.90625 
L 32.078125 72.90625 
Q 44.34375 72.90625 50.609375 67.359375 
Q 56.890625 61.8125 56.890625 51.125 
Q 56.890625 40.328125 50.609375 34.8125 
Q 44.34375 29.296875 32.078125 29.296875 
L 19.671875 29.296875 
L 19.671875 0 
L 9.8125 0 
z
" id="DejaVuSans-80"/>
      <path d="M 41.109375 46.296875 
Q 39.59375 47.171875 37.8125 47.578125 
Q 36.03125 48 33.890625 48 
Q 26.265625 48 22.1875 43.046875 
Q 18.109375 38.09375 18.109375 28.8125 
L 18.109375 0 
L 9.078125 0 
L 9.078125 54.6875 
L 18.109375 54.6875 
L 18.109375 46.1875 
Q 20.953125 51.171875 25.484375 53.578125 
Q 30.03125 56 36.53125 56 
Q 37.453125 56 38.578125 55.875 
Q 39.703125 55.765625 41.0625 55.515625 
z
" id="DejaVuSans-114"/>
      <path d="M 9.421875 54.6875 
L 18.40625 54.6875 
L 18.40625 0 
L 9.421875 0 
z
M 9.421875 75.984375 
L 18.40625 75.984375 
L 18.40625 64.59375 
L 9.421875 64.59375 
z
" id="DejaVuSans-105"/>
      <path d="M 48.78125 52.59375 
L 48.78125 44.1875 
Q 44.96875 46.296875 41.140625 47.34375 
Q 37.3125 48.390625 33.40625 48.390625 
Q 24.65625 48.390625 19.8125 42.84375 
Q 14.984375 37.3125 14.984375 27.296875 
Q 14.984375 17.28125 19.8125 11.734375 
Q 24.65625 6.203125 33.40625 6.203125 
Q 37.3125 6.203125 41.140625 7.25 
Q 44.96875 8.296875 48.78125 10.40625 
L 48.78125 2.09375 
Q 45.015625 0.34375 40.984375 -0.53125 
Q 36.96875 -1.421875 32.421875 -1.421875 
Q 20.0625 -1.421875 12.78125 6.34375 
Q 5.515625 14.109375 5.515625 27.296875 
Q 5.515625 40.671875 12.859375 48.328125 
Q 20.21875 56 33.015625 56 
Q 37.15625 56 41.109375 55.140625 
Q 45.0625 54.296875 48.78125 52.59375 
z
" id="DejaVuSans-99"/>
      <path d="M 56.203125 29.59375 
L 56.203125 25.203125 
L 14.890625 25.203125 
Q 15.484375 15.921875 20.484375 11.0625 
Q 25.484375 6.203125 34.421875 6.203125 
Q 39.59375 6.203125 44.453125 7.46875 
Q 49.3125 8.734375 54.109375 11.28125 
L 54.109375 2.78125 
Q 49.265625 0.734375 44.1875 -0.34375 
Q 39.109375 -1.421875 33.890625 -1.421875 
Q 20.796875 -1.421875 13.15625 6.1875 
Q 5.515625 13.8125 5.515625 26.8125 
Q 5.515625 40.234375 12.765625 48.109375 
Q 20.015625 56 32.328125 56 
Q 43.359375 56 49.78125 48.890625 
Q 56.203125 41.796875 56.203125 29.59375 
z
M 47.21875 32.234375 
Q 47.125 39.59375 43.09375 43.984375 
Q 39.0625 48.390625 32.421875 48.390625 
Q 24.90625 48.390625 20.390625 44.140625 
Q 15.875 39.890625 15.1875 32.171875 
z
" id="DejaVuSans-101"/>
      <path id="DejaVuSans-32"/>
      <path d="M 33.796875 -14.703125 
L 28.90625 -14.703125 
L 28.859375 0 
Q 23.734375 0.09375 18.609375 1.1875 
Q 13.484375 2.296875 8.296875 4.5 
L 8.296875 13.28125 
Q 13.28125 10.15625 18.375 8.5625 
Q 23.484375 6.984375 28.90625 6.9375 
L 28.90625 29.203125 
Q 18.109375 30.953125 13.203125 35.15625 
Q 8.296875 39.359375 8.296875 46.6875 
Q 8.296875 54.640625 13.625 59.21875 
Q 18.953125 63.8125 28.90625 64.5 
L 28.90625 75.984375 
L 33.796875 75.984375 
L 33.796875 64.65625 
Q 38.328125 64.453125 42.578125 63.6875 
Q 46.828125 62.9375 50.875 61.625 
L 50.875 53.078125 
Q 46.828125 55.125 42.546875 56.25 
Q 38.28125 57.375 33.796875 57.5625 
L 33.796875 36.71875 
Q 44.875 35.015625 50.09375 30.609375 
Q 55.328125 26.21875 55.328125 18.609375 
Q 55.328125 10.359375 49.78125 5.59375 
Q 44.234375 0.828125 33.796875 0.09375 
z
M 28.90625 37.59375 
L 28.90625 57.625 
Q 23.25 56.984375 20.265625 54.390625 
Q 17.28125 51.8125 17.28125 47.515625 
Q 17.28125 43.3125 20.03125 40.96875 
Q 22.796875 38.625 28.90625 37.59375 
z
M 33.796875 28.21875 
L 33.796875 7.078125 
Q 39.984375 7.90625 43.140625 10.59375 
Q 46.296875 13.28125 46.296875 17.671875 
Q 46.296875 21.96875 43.28125 24.5 
Q 40.28125 27.046875 33.796875 28.21875 
z
" id="DejaVuSans-36"/>
     </defs>
     <g transform="translate(14.798438 172.342094)rotate(-90)scale(0.1 -0.1)">
      <use xlink:href="#DejaVuSans-80"/>
      <use x="58.552734" xlink:href="#DejaVuSans-114"/>
      <use x="99.666016" xlink:href="#DejaVuSans-105"/>
      <use x="127.449219" xlink:href="#DejaVuSans-99"/>
      <use x="182.429688" xlink:href="#DejaVuSans-101"/>
      <use x="243.953125" xlink:href="#DejaVuSans-32"/>
      <use x="275.740234" xlink:href="#DejaVuSans-36"/>
     </g>
    </g>
   </g>
   <g id="line2d_33">
    <path clip-path="url(#p6670a50d0d)" d="M 63.198352 274.315999 
L 63.687658 275.423697 
L 63.932311 275.166251 
L 64.421617 274.160974 
L 64.66627 273.962827 
L 65.889535 274.382314 
L 66.378841 274.269364 
L 66.868147 274.266357 
L 67.357453 274.099082 
L 68.091412 274.448347 
L 68.580719 274.335315 
L 68.825372 274.569586 
L 69.314678 275.346732 
L 69.559331 275.515516 
L 70.29329 275.307037 
L 70.537943 275.25964 
L 71.271902 274.836691 
L 71.761208 275.283044 
L 72.495167 275.069285 
L 72.984473 275.628135 
L 73.718432 275.561689 
L 73.963085 275.49039 
L 74.207738 275.112781 
L 74.941697 273.148099 
L 75.18635 272.981949 
L 75.920309 273.85189 
L 76.409615 273.830639 
L 76.898921 273.445228 
L 77.63288 273.450225 
L 77.877533 273.676054 
L 78.122186 274.278428 
L 78.366839 274.252158 
L 78.856145 271.755275 
L 79.100798 271.354481 
L 79.590104 271.68538 
L 80.568716 271.697652 
L 81.547328 271.057563 
L 83.015246 270.747908 
L 83.504552 270.751094 
L 84.238511 271.207865 
L 84.727817 270.247901 
L 85.217123 270.234071 
L 85.461776 270.255122 
L 85.706429 270.008533 
L 86.195735 269.000664 
L 86.685041 268.631766 
L 86.929694 268.548179 
L 87.174347 268.669357 
L 87.908306 269.391163 
L 88.642265 269.418274 
L 88.886918 269.224854 
L 89.86553 267.959631 
L 90.354836 268.173804 
L 90.599489 267.936688 
L 91.088796 267.211208 
L 91.333449 267.375294 
L 92.067408 268.23652 
L 92.312061 267.971694 
L 92.556714 265.505478 
L 93.04602 256.164104 
L 93.290673 255.439526 
L 93.535326 255.847791 
L 93.779979 255.804587 
L 94.024632 255.99167 
L 94.269285 255.949778 
L 95.003244 253.329542 
L 95.247897 253.112991 
L 95.737203 253.88933 
L 95.981856 253.671047 
L 96.715815 251.660632 
L 96.960468 251.33893 
L 97.205121 251.782831 
L 97.694427 253.419973 
L 97.93908 253.633079 
L 98.673039 252.248156 
L 98.917692 252.349345 
L 99.406998 253.397212 
L 99.896304 253.083518 
L 100.38561 253.281598 
L 100.630263 252.895393 
L 100.874916 252.05795 
L 101.119569 251.958943 
L 101.608875 252.992547 
L 102.587487 253.440834 
L 102.83214 253.08982 
L 103.321446 251.66456 
L 103.566099 252.111332 
L 104.544711 256.024172 
L 104.789364 256.309443 
L 105.034017 256.227034 
L 106.257282 254.226433 
L 106.501935 254.347273 
L 106.991241 256.659822 
L 107.235894 256.35771 
L 107.480547 253.303542 
L 107.7252 248.756387 
L 107.969853 246.58318 
L 108.214506 247.1956 
L 108.459159 247.497521 
L 108.703812 247.244391 
L 108.948465 247.307895 
L 109.193118 247.564866 
L 109.682424 247.786933 
L 110.17173 248.770074 
L 110.416383 248.478579 
L 110.905689 246.469086 
L 111.639648 242.945513 
L 111.884301 243.014042 
L 112.128954 243.222696 
L 112.373607 243.229986 
L 112.61826 243.78716 
L 113.107566 245.347874 
L 113.35222 245.851652 
L 113.596873 246.926356 
L 113.841526 247.320503 
L 114.330832 245.593188 
L 114.820138 245.902406 
L 115.064791 246.135031 
L 115.309444 246.591587 
L 115.79875 246.704157 
L 116.288056 248.316021 
L 116.532709 247.993128 
L 117.266668 244.58114 
L 117.511321 244.760279 
L 118.24528 247.43217 
L 118.734586 247.877382 
L 118.979239 247.776445 
L 119.223892 247.291087 
L 119.468545 246.431768 
L 119.713198 246.068314 
L 119.957851 246.278089 
L 120.202504 245.58166 
L 120.69181 242.409285 
L 121.181116 241.800824 
L 121.670422 239.562615 
L 121.915075 239.151672 
L 122.404381 238.157976 
L 122.649034 238.542843 
L 122.893687 239.532765 
L 123.382993 242.355799 
L 123.627646 242.231731 
L 123.872299 241.861869 
L 124.361605 242.291153 
L 124.606258 242.108518 
L 125.095564 241.370921 
L 125.58487 240.441757 
L 126.074176 241.306196 
L 126.808135 239.537087 
L 127.052788 239.617842 
L 127.297441 240.156396 
L 127.542094 240.027639 
L 128.0314 237.798032 
L 128.276053 237.449724 
L 128.520706 237.354129 
L 129.010012 235.806453 
L 129.254665 235.948659 
L 129.499318 235.601135 
L 129.743971 234.917893 
L 129.988624 234.838563 
L 130.233277 234.446121 
L 130.47793 233.673918 
L 130.722583 233.555938 
L 130.967236 233.714565 
L 131.211889 232.799085 
L 131.456542 231.014957 
L 131.701195 230.707918 
L 131.945848 231.669278 
L 132.679807 232.165907 
L 133.169113 230.908287 
L 133.413766 230.847048 
L 133.658419 231.457661 
L 133.903072 231.638027 
L 134.392378 230.303063 
L 134.637031 230.288789 
L 134.881684 229.960922 
L 135.37099 227.390629 
L 135.860297 228.157943 
L 136.10495 229.335097 
L 136.594256 233.78064 
L 136.838909 232.879198 
L 137.328215 229.133893 
L 137.572868 228.247197 
L 137.817521 228.285408 
L 138.062174 227.192007 
L 138.306827 225.427447 
L 138.55148 224.778519 
L 139.040786 227.712351 
L 139.285439 227.099955 
L 139.530092 227.785174 
L 139.774745 228.919605 
L 140.264051 228.554381 
L 140.508704 228.540447 
L 140.99801 225.658387 
L 141.242663 225.307914 
L 141.731969 227.060795 
L 142.221275 225.862408 
L 142.465928 226.285279 
L 142.710581 226.107985 
L 143.199887 224.038341 
L 143.689193 225.805661 
L 143.933846 225.259755 
L 144.178499 224.149182 
L 144.667805 223.515538 
L 145.401764 220.799315 
L 145.646417 220.98732 
L 146.380376 222.413855 
L 146.625029 222.596646 
L 146.869682 222.4422 
L 147.603641 219.972239 
L 148.092947 220.315205 
L 148.582253 218.830471 
L 148.826906 218.957294 
L 149.071559 218.90469 
L 149.316212 218.450704 
L 149.560865 218.421453 
L 150.294824 220.655986 
L 150.539477 220.676979 
L 151.028783 221.38675 
L 151.273436 222.470563 
L 151.762742 225.570564 
L 152.007395 225.817816 
L 152.252048 226.274063 
L 152.741354 226.0633 
L 153.475313 227.445752 
L 153.719966 227.474673 
L 153.964619 224.496258 
L 154.209272 218.92785 
L 154.453925 216.582612 
L 154.698578 216.922119 
L 155.187884 213.776277 
L 155.432537 214.008643 
L 155.67719 213.480427 
L 155.921843 213.488907 
L 156.166496 213.98621 
L 156.411149 213.945186 
L 156.655802 212.635066 
L 156.900455 210.069246 
L 157.145108 208.759673 
L 157.389761 209.019444 
L 157.634414 209.084406 
L 158.12372 208.130818 
L 158.368374 208.50697 
L 158.613027 209.126308 
L 158.85768 209.097868 
L 159.102333 208.292257 
L 159.591639 205.515414 
L 159.836292 205.614902 
L 160.325598 206.36664 
L 160.570251 206.356911 
L 160.814904 205.388237 
L 161.059557 205.093764 
L 161.548863 206.487428 
L 162.038169 208.174055 
L 162.282822 208.47938 
L 163.016781 210.862353 
L 163.261434 211.091462 
L 163.506087 210.782046 
L 163.75074 211.012887 
L 164.484699 219.854461 
L 164.729352 219.899062 
L 164.974005 220.87152 
L 165.218658 222.3684 
L 165.463311 222.592281 
L 165.707964 221.378667 
L 165.952617 221.067556 
L 166.441923 225.362122 
L 166.686576 225.466668 
L 166.931229 223.895111 
L 167.175882 223.804126 
L 167.665188 227.521119 
L 168.154494 227.207116 
L 168.399147 226.69979 
L 169.133106 221.072903 
L 169.377759 222.059262 
L 169.867065 228.101372 
L 170.111718 229.5763 
L 170.356371 229.234854 
L 170.845677 226.312676 
L 171.09033 224.888232 
L 171.334983 225.140907 
L 171.824289 228.743444 
L 172.068942 228.501098 
L 172.802901 223.665553 
L 173.047554 223.737961 
L 173.292207 224.093361 
L 173.53686 223.414894 
L 174.515472 215.511893 
L 174.760125 214.85625 
L 175.004778 214.711515 
L 175.249431 214.162664 
L 175.738737 211.198434 
L 176.228043 211.241308 
L 176.717349 209.659997 
L 176.962002 209.706108 
L 177.206655 210.198981 
L 177.695961 209.584607 
L 177.940614 210.228519 
L 178.185267 210.164218 
L 178.919226 206.315707 
L 179.408532 207.818457 
L 179.653185 208.002216 
L 179.897838 207.905318 
L 180.142491 207.37571 
L 180.387144 207.428371 
L 180.631798 207.687279 
L 180.876451 206.275797 
L 181.121104 203.230113 
L 181.365757 201.894252 
L 181.61041 202.626776 
L 181.855063 204.053273 
L 182.344369 207.548876 
L 182.589022 207.882159 
L 182.833675 207.326754 
L 183.078328 205.913706 
L 183.322981 205.822268 
L 183.567634 207.070272 
L 183.812287 207.485547 
L 184.05694 206.669078 
L 184.301593 206.485579 
L 184.790899 210.057912 
L 185.524858 210.614854 
L 186.014164 209.51436 
L 186.50347 210.559778 
L 186.748123 210.673347 
L 186.992776 210.524714 
L 187.726735 205.988374 
L 187.971388 206.128952 
L 188.460694 205.941641 
L 188.705347 205.425986 
L 189.439306 202.456961 
L 189.928612 201.627658 
L 190.417918 200.292345 
L 191.151877 201.409835 
L 191.39653 201.079303 
L 191.641183 201.057465 
L 192.130489 201.543704 
L 192.375142 201.309847 
L 192.864448 200.507732 
L 193.109101 200.025278 
L 193.353754 200.067038 
L 193.598407 201.58218 
L 193.84306 203.901096 
L 194.087713 205.019389 
L 194.577019 204.326483 
L 194.821672 204.97576 
L 195.066325 206.511399 
L 195.310978 206.840865 
L 195.555631 206.261254 
L 195.800284 206.526716 
L 196.044937 206.389611 
L 196.28959 205.839227 
L 196.778896 207.218938 
L 197.023549 206.183415 
L 197.268202 204.339903 
L 197.512855 203.99043 
L 197.757508 203.966374 
L 198.002161 203.057976 
L 198.246814 203.565713 
L 198.491467 206.018725 
L 198.73612 206.911428 
L 198.980773 205.906977 
L 199.225426 209.014839 
L 199.714732 223.415016 
L 200.448691 219.22025 
L 200.693344 217.87139 
L 200.937997 217.389681 
L 201.671956 218.227436 
L 201.916609 218.032976 
L 202.161262 216.696695 
L 202.405915 216.614619 
L 202.650568 217.803196 
L 202.895221 218.228285 
L 203.384528 217.381962 
L 203.629181 217.23121 
L 204.118487 217.85865 
L 204.36314 217.857442 
L 204.607793 217.499135 
L 204.852446 217.612279 
L 205.586405 221.000627 
L 205.831058 221.508892 
L 206.320364 223.362535 
L 207.054323 224.451072 
L 207.543629 222.674523 
L 207.788282 223.082247 
L 208.766894 225.884557 
L 209.2562 226.635621 
L 209.745506 228.613846 
L 210.234812 225.898529 
L 210.479465 225.730904 
L 210.724118 225.899256 
L 210.968771 225.799414 
L 211.213424 225.287746 
L 211.458077 225.128539 
L 211.70273 225.190188 
L 212.192036 224.416956 
L 212.436689 224.579943 
L 212.925995 227.705741 
L 213.415301 226.548986 
L 213.659954 227.383782 
L 213.904607 228.636509 
L 214.14926 228.519425 
L 214.393913 228.018625 
L 214.638566 227.985982 
L 214.883219 226.489904 
L 215.127872 221.861767 
L 215.617178 209.356352 
L 216.351137 205.505467 
L 216.840443 207.292917 
L 217.085096 207.293955 
L 217.329749 206.758015 
L 217.574402 205.479769 
L 217.819055 205.390002 
L 218.063708 206.339942 
L 218.308361 206.778409 
L 218.553014 206.561464 
L 219.04232 204.786552 
L 219.286973 204.386759 
L 219.776279 202.162621 
L 220.265585 201.291095 
L 220.510238 201.316717 
L 220.754891 201.733054 
L 220.999544 201.606424 
L 221.244197 200.767296 
L 221.48885 200.446579 
L 221.733503 200.851109 
L 221.978156 201.031003 
L 222.222809 201.402474 
L 222.712115 203.06262 
L 223.446074 208.210818 
L 223.93538 206.667606 
L 224.180033 208.119125 
L 224.424686 210.672115 
L 224.669339 211.447725 
L 225.158645 210.313771 
L 225.403298 210.12963 
L 225.892605 209.021119 
L 226.381911 211.781565 
L 226.626564 211.641105 
L 226.871217 211.059361 
L 227.11587 211.487282 
L 227.360523 212.283106 
L 227.605176 211.969486 
L 228.583788 207.203116 
L 229.073094 201.999903 
L 229.317747 201.61487 
L 229.5624 198.475304 
L 229.807053 188.617195 
L 230.051706 183.307473 
L 230.296359 185.300302 
L 230.541012 186.256179 
L 230.785665 186.341228 
L 231.030318 186.549519 
L 231.274971 186.290832 
L 231.519624 185.577759 
L 231.764277 185.430546 
L 232.498236 187.09441 
L 232.742889 186.606473 
L 232.987542 185.782379 
L 233.232195 185.924693 
L 233.476848 185.719092 
L 233.966154 181.546735 
L 234.210807 182.107188 
L 234.45546 183.069634 
L 234.700113 181.121839 
L 234.944766 177.553772 
L 235.189419 176.184239 
L 235.434072 176.41684 
L 235.923378 175.105073 
L 236.168031 175.711543 
L 236.412684 175.859218 
L 236.657337 174.667173 
L 236.90199 174.320965 
L 237.146643 175.03586 
L 237.635949 175.348546 
L 237.880602 175.316158 
L 238.369908 173.927467 
L 238.614561 173.878865 
L 239.103867 167.147667 
L 239.34852 167.350304 
L 239.593173 169.084457 
L 239.837826 169.26772 
L 240.082479 168.211836 
L 240.327132 168.100816 
L 240.571785 168.753047 
L 240.816438 168.519011 
L 241.305744 164.851947 
L 241.550397 165.556366 
L 242.039703 170.128752 
L 242.284356 170.583121 
L 242.529009 169.554718 
L 243.018315 169.052776 
L 243.262968 168.23827 
L 243.507621 168.847439 
L 243.752274 169.904578 
L 243.996927 168.19181 
L 244.486233 160.866826 
L 244.730886 162.89916 
L 244.975539 160.249862 
L 245.220192 145.230489 
L 245.464845 141.792921 
L 245.709498 148.039154 
L 245.954151 146.477185 
L 246.198804 146.51183 
L 246.443457 149.06901 
L 246.68811 150.164144 
L 246.932763 152.693843 
L 247.177416 154.064612 
L 247.422069 151.90244 
L 247.666722 147.04031 
L 247.911375 144.540895 
L 248.156029 144.091405 
L 248.645335 130.780308 
L 248.889988 130.303563 
L 249.379294 133.144825 
L 249.623947 133.790677 
L 249.8686 134.776508 
L 250.357906 130.814962 
L 250.602559 130.80928 
L 250.847212 131.541832 
L 251.091865 135.641466 
L 251.825824 163.760881 
L 252.070477 159.464489 
L 252.559783 140.306224 
L 252.804436 138.774397 
L 253.049089 144.170981 
L 253.293742 152.490695 
L 254.272354 166.893878 
L 254.76166 161.949682 
L 255.006313 164.856439 
L 255.250966 166.186769 
L 255.740272 157.203423 
L 255.984925 156.302566 
L 256.229578 158.033359 
L 256.718884 163.790391 
L 256.963537 162.874189 
L 257.20819 158.055791 
L 257.452843 158.312533 
L 257.697496 162.637303 
L 257.942149 162.490723 
L 258.431455 154.969829 
L 258.676108 152.674364 
L 258.920761 149.158485 
L 259.165414 150.569778 
L 259.410067 150.394292 
L 259.65472 144.038943 
L 259.899373 143.690716 
L 260.144026 146.375829 
L 260.388679 147.350939 
L 260.633332 150.655828 
L 260.877985 158.720839 
L 261.122638 162.698466 
L 261.367291 160.223192 
L 261.611944 161.84271 
L 261.856597 164.661115 
L 262.10125 164.269882 
L 262.590556 158.373914 
L 263.079862 155.840761 
L 263.569168 152.30915 
L 263.813821 151.607307 
L 264.058474 149.678953 
L 264.303127 144.795976 
L 264.54778 143.311988 
L 265.037086 148.473157 
L 265.526392 145.044111 
L 266.015698 155.533227 
L 266.505004 139.300999 
L 267.483616 130.712123 
L 267.728269 132.577794 
L 268.217575 130.500218 
L 268.462228 132.020823 
L 268.706881 129.927836 
L 268.951534 126.574052 
L 269.196187 126.334778 
L 269.44084 125.243712 
L 269.930146 129.68054 
L 270.174799 130.516044 
L 270.664106 136.429424 
L 270.908759 137.182918 
L 271.153412 137.234153 
L 271.398065 134.357756 
L 271.642718 133.615181 
L 271.887371 138.680666 
L 272.132024 141.344799 
L 272.376677 140.576612 
L 272.62133 139.200284 
L 273.110636 140.270135 
L 273.355289 138.94676 
L 273.599942 139.743231 
L 274.089248 149.930108 
L 274.333901 149.573991 
L 274.578554 141.390919 
L 274.823207 142.56375 
L 275.06786 147.196554 
L 275.312513 142.804628 
L 275.557166 142.354101 
L 275.801819 150.60329 
L 276.046472 154.780413 
L 276.291125 154.521878 
L 276.535778 152.421067 
L 276.780431 152.328024 
L 277.269737 161.021494 
L 277.51439 161.969377 
L 278.003696 170.159102 
L 278.248349 170.21533 
L 278.493002 169.657028 
L 278.982308 171.434668 
L 279.226961 172.7009 
L 279.471614 175.574768 
L 279.716267 181.622469 
L 279.96092 182.808135 
L 280.205573 178.395495 
L 280.450226 176.425721 
L 280.694879 177.965484 
L 280.939532 177.694624 
L 281.428838 170.204005 
L 281.918144 174.353656 
L 282.162797 172.840959 
L 282.40745 173.797053 
L 282.652103 172.559944 
L 282.896756 168.456791 
L 283.141409 167.725466 
L 283.386062 168.535432 
L 283.630715 167.878831 
L 283.875368 165.076092 
L 284.609327 161.511187 
L 284.85398 165.270831 
L 285.098633 166.784151 
L 285.343286 164.166411 
L 285.832592 164.653612 
L 286.077245 163.884896 
L 286.321898 163.643056 
L 287.055857 160.576317 
L 287.30051 160.226467 
L 288.034469 162.977669 
L 288.523775 156.969378 
L 288.768428 158.411304 
L 289.013081 158.158375 
L 289.257734 155.186802 
L 289.502387 155.500508 
L 289.74704 156.221197 
L 289.991693 155.547402 
L 290.236346 156.169358 
L 290.480999 157.33429 
L 290.725652 156.807726 
L 291.214958 149.883101 
L 291.704264 146.8969 
L 291.948917 152.971781 
L 292.19357 165.042354 
L 292.438223 167.867148 
L 292.682876 166.259795 
L 293.906142 173.857791 
L 294.150795 173.320808 
L 294.395448 171.246063 
L 294.640101 171.511346 
L 294.884754 173.379046 
L 295.129407 174.185917 
L 295.37406 173.703888 
L 295.863366 171.402638 
L 296.108019 173.501788 
L 296.352672 176.611221 
L 296.597325 176.551511 
L 296.841978 175.443769 
L 297.086631 175.064965 
L 297.575937 173.651548 
L 297.82059 171.300517 
L 298.554549 161.058573 
L 298.799202 158.24718 
L 299.043855 157.397114 
L 299.777814 160.232809 
L 300.022467 161.246432 
L 300.26712 161.107855 
L 300.511773 161.669648 
L 301.490385 169.330091 
L 302.224344 167.483672 
L 302.468997 167.657036 
L 303.202956 173.422656 
L 303.447609 172.914542 
L 303.936915 178.971916 
L 304.670874 171.153974 
L 304.915527 166.469662 
L 305.16018 164.781309 
L 305.404833 167.841271 
L 305.649486 167.83441 
L 305.894139 165.978148 
L 306.138792 166.862735 
L 306.383445 166.893369 
L 306.872751 164.166053 
L 307.117404 162.458409 
L 307.362057 166.028421 
L 307.60671 175.455075 
L 307.851363 178.594669 
L 308.096016 177.840675 
L 308.340669 179.20229 
L 308.585322 176.607446 
L 308.829975 172.363837 
L 309.074628 171.3127 
L 309.319281 172.352597 
L 309.563934 171.635796 
L 309.808587 169.154869 
L 310.05324 169.207765 
L 310.297893 170.646152 
L 310.542546 169.057212 
L 310.787199 166.223707 
L 311.031852 167.082389 
L 311.276505 169.38462 
L 311.521158 168.772507 
L 311.765811 166.656842 
L 312.010464 165.952016 
L 312.255117 167.170429 
L 312.49977 167.376559 
L 312.744423 166.230794 
L 312.989076 166.142518 
L 313.233729 166.762105 
L 313.478382 167.016252 
L 313.723035 167.036986 
L 313.967688 166.78484 
L 314.456994 164.502417 
L 314.701647 164.937647 
L 314.9463 164.683642 
L 315.190953 164.591996 
L 315.435607 164.995715 
L 315.68026 164.265767 
L 315.924913 162.16976 
L 316.169566 161.92053 
L 316.658872 164.439319 
L 316.903525 164.215117 
L 317.392831 165.932283 
L 317.882137 162.869914 
L 318.12679 163.216678 
L 318.616096 166.84119 
L 318.860749 167.261254 
L 319.105402 167.243399 
L 319.350055 167.872688 
L 319.594708 166.01719 
L 319.839361 165.029236 
L 320.084014 165.612462 
L 320.328667 162.99677 
L 320.57332 159.007318 
L 321.307279 154.13442 
L 321.551932 155.528659 
L 321.796585 157.832835 
L 322.041238 161.275631 
L 322.285891 161.749922 
L 322.530544 160.73828 
L 322.775197 161.941679 
L 323.01985 157.894083 
L 323.264503 141.154015 
L 323.509156 132.986316 
L 323.753809 133.053369 
L 323.998462 127.579257 
L 324.243115 126.826802 
L 324.487768 128.609821 
L 324.732421 128.146279 
L 324.977074 128.345954 
L 325.221727 129.011124 
L 325.955686 133.297568 
L 326.200339 133.852001 
L 326.444992 133.71113 
L 326.689645 131.4835 
L 326.934298 130.893423 
L 327.178951 134.951183 
L 327.423604 141.243311 
L 327.668257 144.102419 
L 327.91291 144.82509 
L 328.157563 144.739654 
L 328.402216 143.04142 
L 328.646869 142.977388 
L 328.891522 142.432968 
L 329.136175 139.759143 
L 329.380828 139.025458 
L 329.625481 139.914094 
L 330.114787 140.457909 
L 330.604093 140.626167 
L 330.848746 139.328235 
L 331.093399 137.111411 
L 331.338052 136.38337 
L 331.827358 129.769817 
L 332.072011 132.622961 
L 332.316664 133.332628 
L 333.050623 131.990558 
L 333.295276 131.025857 
L 333.539929 130.948934 
L 333.784582 130.64342 
L 334.273888 128.945884 
L 334.518541 129.786012 
L 334.763194 129.619273 
L 335.007847 127.371052 
L 335.2525 128.647013 
L 335.497153 130.937458 
L 335.741806 131.06489 
L 336.475765 122.768476 
L 336.720418 122.812227 
L 337.209724 123.965901 
L 337.454377 124.915747 
L 337.69903 124.167349 
L 337.943684 120.644685 
L 338.188337 120.652273 
L 338.43299 119.999777 
L 338.677643 114.297812 
L 338.922296 113.838592 
L 339.166949 114.824055 
L 339.411602 111.968495 
L 339.900908 112.785728 
L 340.145561 109.496845 
L 340.390214 110.107647 
L 340.634867 111.407674 
L 340.87952 111.071101 
L 341.124173 112.394741 
L 341.368826 112.159053 
L 342.102785 106.190465 
L 342.347438 106.667313 
L 342.592091 106.026822 
L 343.081397 110.678604 
L 343.32605 109.5231 
L 343.570703 109.186169 
L 343.815356 109.570815 
L 344.304662 107.518049 
L 344.549315 107.978929 
L 344.793968 108.014923 
L 345.038621 108.179925 
L 345.283274 108.763679 
L 345.527927 109.025319 
L 345.77258 112.157713 
L 346.017233 113.025474 
L 346.261886 109.92428 
L 346.506539 110.05778 
L 346.751192 111.56305 
L 346.995845 111.39482 
L 347.240498 110.389822 
L 347.729804 107.012039 
L 347.974457 106.029163 
L 348.21911 106.073839 
L 348.463763 105.544915 
L 348.708416 105.290146 
L 348.953069 108.327468 
L 349.197722 109.204874 
L 349.442375 109.433275 
L 349.687028 109.399169 
L 350.176334 105.327442 
L 350.66564 102.065833 
L 350.910293 102.204335 
L 351.399599 105.353395 
L 351.644252 107.101675 
L 352.133558 108.199781 
L 352.622864 105.961497 
L 352.867517 107.877686 
L 353.11217 107.461444 
L 353.356823 103.928965 
L 353.846129 112.132478 
L 354.090782 110.064839 
L 354.335435 109.054405 
L 354.580088 106.217758 
L 354.824741 98.610343 
L 355.069394 97.549174 
L 355.314047 97.408294 
L 356.048006 91.826824 
L 356.292659 92.724822 
L 356.537312 90.849553 
L 356.781965 91.057325 
L 357.026618 92.263319 
L 357.515924 86.960098 
L 357.760577 88.271262 
L 358.00523 87.31898 
L 358.249883 85.797686 
L 358.494536 88.732463 
L 358.739189 94.28781 
L 358.983842 93.421239 
L 359.228495 90.312495 
L 359.473148 90.362777 
L 359.717801 90.052554 
L 359.962454 88.906468 
L 360.207107 84.534691 
L 360.451761 83.434452 
L 360.696414 83.499588 
L 360.941067 83.346609 
L 361.18572 83.526824 
L 361.430373 80.395865 
L 361.675026 79.971413 
L 361.919679 81.560825 
L 362.164332 79.95552 
L 362.408985 79.970941 
L 362.898291 97.298255 
L 363.142944 96.458542 
L 363.387597 96.589287 
L 363.63225 97.682769 
L 364.121556 95.728699 
L 364.366209 95.807085 
L 364.855515 93.195272 
L 365.100168 89.930001 
L 365.344821 91.111118 
L 365.589474 97.298576 
L 365.834127 97.016174 
L 366.07878 98.54298 
L 366.323433 101.658254 
L 366.812739 103.568611 
L 367.057392 103.057486 
L 367.546698 96.11174 
L 367.791351 95.196812 
L 368.036004 89.392395 
L 368.280657 86.597932 
L 368.52531 88.716702 
L 368.769963 82.457974 
L 369.014616 59.745202 
L 369.259269 56.283918 
L 369.503922 59.165582 
L 369.748575 50.447414 
L 369.993228 52.938373 
L 370.237881 53.591114 
L 370.482534 51.630287 
L 370.727187 57.841848 
L 371.461146 60.423499 
L 371.705799 60.580593 
L 371.950452 62.902133 
L 372.439758 61.360662 
L 372.684411 63.446741 
L 373.173717 74.778212 
L 373.41837 73.760078 
L 373.663023 73.848373 
L 373.907676 76.499596 
L 374.152329 75.55394 
L 374.396982 78.44791 
L 374.641635 79.716322 
L 375.130941 76.412905 
L 375.375594 75.997135 
L 375.8649 78.822231 
L 376.109553 78.826497 
L 376.354206 76.222876 
L 376.598859 69.890762 
L 376.843512 67.654573 
L 377.088165 69.961429 
L 377.332818 69.201688 
L 377.577471 63.335419 
L 377.822124 63.299293 
L 378.066777 66.84723 
L 378.556083 56.114292 
L 379.045389 59.789331 
L 379.290042 59.621857 
L 379.534695 55.930604 
L 379.779348 55.59105 
L 380.024001 56.641838 
L 380.268654 51.329916 
L 380.513307 53.298652 
L 380.75796 63.52341 
L 381.002613 63.331229 
L 381.247266 60.591012 
L 381.491919 61.921483 
L 381.736572 61.433197 
L 381.981225 64.33181 
L 382.225878 63.826631 
L 382.470531 56.394203 
L 382.715184 45.425426 
L 382.959838 40.244419 
L 383.204491 42.440009 
L 383.449144 43.304844 
L 383.93845 43.644795 
L 384.427756 34.414125 
L 384.917062 43.249862 
L 385.161715 43.028614 
L 385.406368 45.862562 
L 385.651021 46.563584 
L 385.895674 42.377817 
L 386.140327 44.924211 
L 386.38498 44.090858 
L 386.629633 38.080218 
L 387.118939 41.629193 
L 387.852898 37.160212 
L 387.852898 37.160212 
" style="fill:none;stroke:#1f77b4;stroke-linecap:square;stroke-width:1.5;"/>
   </g>
   <g id="line2d_34">
    <path clip-path="url(#p6670a50d0d)" d="M 63.198352 275.641424 
L 63.443005 275.802229 
L 63.687658 276.210428 
L 64.176964 276.321755 
L 64.421617 275.814599 
L 64.66627 275.616684 
L 65.155576 275.616684 
L 65.400229 275.257964 
L 65.644882 275.257964 
L 66.134188 274.66422 
L 66.378841 274.478675 
L 66.623494 274.590002 
L 66.868147 274.491044 
L 67.1128 274.256021 
L 67.357453 274.29313 
L 67.846759 274.688959 
L 68.091412 274.825025 
L 68.580719 274.63948 
L 68.825372 275.159006 
L 69.070025 275.295073 
L 69.314678 275.963035 
L 69.559331 276.13621 
L 69.803984 275.839338 
L 70.048637 275.839338 
L 70.29329 275.963035 
L 70.537943 275.740381 
L 70.782596 275.740381 
L 71.027249 275.591945 
L 71.271902 275.146637 
L 71.516555 275.76512 
L 71.761208 275.938296 
L 72.250514 275.468248 
L 72.73982 275.876447 
L 72.984473 276.334125 
L 73.229126 276.099101 
L 73.473779 276.024883 
L 73.718432 276.222798 
L 73.963085 275.938296 
L 74.207738 275.864078 
L 74.697044 274.070475 
L 74.941697 274.082845 
L 75.18635 272.858248 
L 75.431003 274.26839 
L 75.920309 274.181803 
L 76.164962 274.478675 
L 76.409615 274.404457 
L 76.654268 274.169433 
L 76.898921 273.736494 
L 77.143574 273.946779 
L 77.388227 274.367348 
L 77.63288 273.847821 
L 77.877533 273.785973 
L 78.122186 275.220855 
L 78.366839 274.973461 
L 78.856145 271.843935 
L 79.345451 272.252134 
L 79.590104 272.01711 
L 79.834757 272.351091 
L 80.07941 272.116068 
L 80.324063 272.425309 
L 80.568716 272.078959 
L 80.813369 272.02948 
L 81.058022 271.782087 
L 81.302675 271.744978 
L 81.547328 271.448106 
L 81.791981 271.547063 
L 82.281287 271.2873 
L 82.52594 271.175973 
L 82.770593 271.188342 
L 83.015246 271.349148 
L 83.259899 271.163603 
L 83.749205 271.460475 
L 83.993858 271.410997 
L 84.238511 272.41294 
L 84.483164 270.53275 
L 84.727817 271.114124 
L 84.97247 270.619338 
L 85.217123 270.656447 
L 85.461776 270.866731 
L 85.706429 270.631707 
L 85.951082 269.815309 
L 86.195735 269.493698 
L 86.685041 269.110238 
L 86.929694 268.949432 
L 87.174347 269.233935 
L 87.419 269.320522 
L 87.908306 269.901897 
L 88.397612 269.852418 
L 88.642265 270.062703 
L 88.886918 269.481328 
L 89.131571 269.592655 
L 89.376224 268.776257 
L 89.620877 268.887584 
L 89.86553 268.318579 
L 90.354836 268.899954 
L 90.599489 268.528864 
L 91.088796 267.564029 
L 91.333449 267.873271 
L 91.578102 268.615451 
L 91.822755 268.578342 
L 92.067408 268.318579 
L 92.312061 268.565973 
L 92.556714 267.601138 
L 92.801367 259.894834 
L 93.04602 255.887061 
L 93.290673 257.198246 
L 93.535326 255.961279 
L 93.779979 256.208673 
L 94.024632 256.641611 
L 94.269285 256.728199 
L 94.513938 254.971706 
L 94.758591 255.033554 
L 95.003244 253.264691 
L 95.247897 253.69763 
L 95.49255 253.870805 
L 95.737203 254.415071 
L 95.981856 254.402701 
L 96.226509 252.93071 
L 96.471162 252.732796 
L 96.715815 252.361705 
L 96.960468 251.137108 
L 97.205121 252.782274 
L 97.449774 252.769905 
L 97.694427 254.06872 
L 97.93908 254.155308 
L 98.183733 253.31417 
L 98.428386 253.277061 
L 98.673039 252.609099 
L 98.917692 252.386445 
L 99.162345 253.821326 
L 99.406998 253.734739 
L 99.651651 253.524454 
L 99.896304 253.759478 
L 100.140957 253.202843 
L 100.38561 253.957393 
L 100.630263 253.660521 
L 100.874916 251.854549 
L 101.364222 253.178104 
L 101.608875 253.054407 
L 101.853528 253.796587 
L 102.098181 253.499715 
L 102.587487 253.808957 
L 102.83214 253.895544 
L 103.076793 252.163791 
L 103.566099 252.398814 
L 104.300058 255.849952 
L 104.789364 256.752938 
L 105.034017 257.037441 
L 105.27867 255.92417 
L 105.523323 256.505545 
L 105.767976 255.268578 
L 106.012629 255.243838 
L 106.257282 254.662464 
L 106.501935 254.773791 
L 106.991241 256.901374 
L 107.235894 256.975592 
L 107.480547 255.033554 
L 107.7252 247.500425 
L 107.969853 247.549904 
L 108.214506 248.06943 
L 108.459159 247.760188 
L 108.703812 247.846776 
L 108.948465 247.661231 
L 109.193118 248.217866 
L 109.437771 247.945733 
L 109.682424 248.131278 
L 109.927077 248.613696 
L 110.17173 249.405354 
L 110.416383 248.984786 
L 110.661036 247.599383 
L 110.905689 247.376729 
L 111.150342 245.310994 
L 111.394995 244.506965 
L 111.639648 242.83706 
L 111.884301 243.9627 
L 112.128954 243.616349 
L 112.373607 243.517392 
L 112.61826 243.95033 
L 112.862913 245.45943 
L 113.107566 245.879999 
L 113.35222 245.422321 
L 113.596873 247.995212 
L 113.841526 247.797297 
L 114.086179 246.498482 
L 114.330832 245.867629 
L 114.575485 246.622179 
L 114.820138 246.028435 
L 115.064791 246.362416 
L 115.309444 247.364359 
L 115.554097 246.931421 
L 115.79875 246.807724 
L 116.288056 249.157961 
L 116.532709 247.784928 
L 116.777362 248.032321 
L 117.022015 245.335733 
L 117.266668 245.409951 
L 117.511321 244.791468 
L 118.000627 247.512795 
L 118.24528 247.747819 
L 118.489933 248.230236 
L 118.734586 248.366302 
L 118.979239 247.859146 
L 119.223892 248.539478 
L 119.468545 246.21398 
L 119.713198 246.708766 
L 119.957851 246.807724 
L 120.202504 246.065544 
L 120.447157 244.655401 
L 120.69181 242.131989 
L 120.936463 242.762842 
L 121.181116 242.700994 
L 121.425769 240.387865 
L 121.670422 240.264169 
L 121.915075 239.818861 
L 122.159728 238.507676 
L 122.649034 239.08905 
L 122.893687 239.559097 
L 123.382993 243.20815 
L 123.627646 242.243316 
L 123.872299 242.317534 
L 124.361605 242.775212 
L 124.606258 242.639145 
L 124.850911 241.822747 
L 125.095564 242.342273 
L 125.340217 240.993979 
L 125.58487 240.622889 
L 125.829523 241.810377 
L 126.074176 241.600093 
L 126.318829 241.179524 
L 126.808135 240.041515 
L 127.052788 239.583837 
L 127.297441 241.068197 
L 127.542094 240.103363 
L 127.786747 239.942557 
L 128.0314 237.555211 
L 128.276053 238.074737 
L 128.520706 238.173694 
L 128.765359 236.652225 
L 129.010012 235.885306 
L 129.254665 237.072794 
L 129.743971 234.98232 
L 129.988624 235.675021 
L 130.47793 234.165922 
L 130.722583 233.695874 
L 130.967236 234.326727 
L 131.211889 233.869049 
L 131.456542 230.529239 
L 131.945848 232.582604 
L 132.190501 231.840424 
L 132.679807 232.916585 
L 132.92446 231.6054 
L 133.169113 231.865163 
L 133.413766 230.393172 
L 133.658419 232.471277 
L 133.903072 231.691988 
L 134.147725 231.568291 
L 134.392378 230.442651 
L 134.637031 230.640566 
L 134.881684 231.209571 
L 135.126337 228.488243 
L 135.37099 227.399712 
L 135.615643 228.9954 
L 135.860297 228.018196 
L 136.10495 229.626253 
L 136.594256 234.883362 
L 136.838909 232.124926 
L 137.083562 232.681561 
L 137.328215 228.525352 
L 137.572868 228.9954 
L 137.817521 228.785115 
L 138.062174 227.511039 
L 138.306827 226.917295 
L 138.55148 223.119807 
L 138.796133 228.859333 
L 139.040786 227.4863 
L 139.285439 227.313125 
L 139.530092 227.882129 
L 139.774745 230.356063 
L 140.019398 228.005826 
L 140.264051 229.626253 
L 140.508704 228.859333 
L 141.242663 225.494783 
L 141.487316 226.533835 
L 141.731969 228.092414 
L 141.976622 226.669902 
L 142.221275 226.138006 
L 142.465928 226.867817 
L 142.710581 226.595684 
L 143.199887 224.035162 
L 143.689193 226.249333 
L 143.933846 225.853504 
L 144.178499 224.257816 
L 144.423152 224.381513 
L 144.667805 223.960944 
L 145.401764 221.202508 
L 145.89107 221.709664 
L 146.135723 222.884783 
L 146.380376 222.575541 
L 146.625029 223.218764 
L 146.869682 222.99611 
L 147.114335 221.684925 
L 147.358988 221.524119 
L 147.603641 219.878953 
L 148.092947 221.11592 
L 148.3376 219.60682 
L 148.582253 219.359427 
L 148.826906 219.272839 
L 149.071559 219.458384 
L 149.316212 218.592508 
L 149.805518 219.23573 
L 150.050171 220.905636 
L 150.294824 220.992223 
L 150.539477 220.781939 
L 150.78413 221.734404 
L 151.028783 221.684925 
L 151.273436 222.303408 
L 151.518089 225.853504 
L 151.762742 225.593741 
L 152.252048 227.152319 
L 152.496701 226.323551 
L 152.741354 226.125636 
L 152.986007 227.461561 
L 153.23066 227.238907 
L 153.719966 227.758433 
L 153.964619 226.867817 
L 154.209272 217.157626 
L 154.453925 217.627673 
L 154.698578 218.481181 
L 154.943231 213.966251 
L 155.187884 215.091891 
L 155.67719 213.508573 
L 155.921843 214.38682 
L 156.166496 214.114687 
L 156.411149 214.38682 
L 156.655802 213.768336 
L 156.900455 209.859521 
L 157.145108 209.785303 
L 157.389761 209.15445 
L 157.634414 210.045066 
L 157.879067 208.709142 
L 158.12372 208.882317 
L 158.368374 208.647293 
L 158.613027 210.168763 
L 158.85768 208.981274 
L 159.102333 209.463691 
L 159.346986 206.853691 
L 159.591639 205.7899 
L 159.836292 206.544449 
L 160.080945 205.938336 
L 160.325598 207.101085 
L 160.570251 207.101085 
L 160.814904 205.443549 
L 161.059557 205.703312 
L 161.548863 206.618667 
L 161.793516 208.103028 
L 162.038169 208.535966 
L 162.282822 208.696772 
L 162.772128 210.836725 
L 163.506087 211.616014 
L 163.75074 210.873834 
L 163.995393 214.102318 
L 164.240046 218.88938 
L 164.484699 220.311892 
L 164.729352 220.064498 
L 165.218658 222.427105 
L 165.463311 223.639333 
L 165.707964 221.400423 
L 165.952617 221.722034 
L 166.19727 223.169285 
L 166.441923 226.236963 
L 166.686576 226.113267 
L 166.931229 224.195968 
L 167.175882 223.466157 
L 167.420535 226.694641 
L 167.665188 228.117153 
L 167.909841 227.251276 
L 168.154494 228.191371 
L 168.399147 227.288385 
L 168.6438 224.752603 
L 168.888453 224.270186 
L 169.133106 219.953171 
L 169.377759 223.37957 
L 169.622412 225.049475 
L 169.867065 228.933551 
L 170.111718 230.318954 
L 170.356371 229.317011 
L 170.601024 228.933551 
L 170.845677 226.385399 
L 171.334983 224.987627 
L 171.579636 228.203741 
L 171.824289 229.205684 
L 172.068942 229.007769 
L 172.313595 227.783172 
L 172.558248 224.802082 
L 172.802901 224.50521 
L 173.047554 223.664072 
L 173.292207 225.024736 
L 173.53686 224.022793 
L 173.781513 221.437532 
L 174.026166 220.163456 
L 174.270819 216.823645 
L 174.515472 216.61336 
L 174.760125 214.74554 
L 175.004778 215.376394 
L 175.249431 214.943455 
L 175.494084 212.481891 
L 175.738737 212.011843 
L 175.98339 211.269663 
L 176.228043 212.061322 
L 176.717349 210.156393 
L 176.962002 209.834782 
L 177.206655 211.084118 
L 177.451308 210.168763 
L 177.695961 209.859521 
L 177.940614 211.195445 
L 178.185267 210.26772 
L 178.42992 209.810042 
L 178.674573 207.447435 
L 178.919226 206.556819 
L 179.163879 207.843265 
L 179.653185 208.177246 
L 179.897838 208.733881 
L 180.142491 207.348478 
L 180.387144 208.164876 
L 180.631798 207.731938 
L 180.876451 207.991701 
L 181.121104 202.239804 
L 181.365757 203.365444 
L 181.61041 202.375871 
L 182.099716 207.200042 
L 182.344369 207.558762 
L 182.589022 208.350421 
L 182.833675 208.103028 
L 183.078328 205.876487 
L 183.567634 207.311369 
L 183.812287 208.201985 
L 184.05694 207.360848 
L 184.301593 205.987814 
L 184.546246 209.673976 
L 185.280205 211.294403 
L 185.524858 210.799616 
L 185.769511 210.873834 
L 186.014164 209.092601 
L 186.258817 211.145967 
L 186.50347 210.675919 
L 186.748123 211.145967 
L 186.992776 211.121227 
L 187.237429 209.810042 
L 187.482082 206.383644 
L 187.726735 207.063976 
L 187.971388 206.049663 
L 188.216041 206.965018 
L 188.460694 206.062032 
L 188.705347 206.173359 
L 189.194653 203.501511 
L 189.439306 203.118051 
L 189.683959 202.40061 
L 189.928612 202.42535 
L 190.173265 201.163643 
L 190.417918 200.866771 
L 190.662571 201.138904 
L 190.907224 201.967672 
L 191.151877 201.868714 
L 191.39653 201.448146 
L 191.641183 201.621321 
L 191.885836 201.485255 
L 192.130489 202.326392 
L 192.619795 201.138904 
L 192.864448 201.200752 
L 193.109101 200.248288 
L 193.353754 200.755444 
L 193.598407 201.633691 
L 193.84306 204.961132 
L 194.087713 205.109568 
L 194.332366 205.530137 
L 194.577019 204.738478 
L 194.821672 204.998241 
L 195.066325 207.608241 
L 195.310978 207.410326 
L 195.555631 206.222838 
L 195.800284 207.472175 
L 196.044937 206.544449 
L 196.28959 206.408383 
L 196.534243 206.123881 
L 196.778896 208.300943 
L 197.268202 204.63952 
L 197.512855 203.946819 
L 197.757508 205.220895 
L 198.002161 203.353075 
L 198.246814 204.26843 
L 198.73612 208.350421 
L 198.980773 206.482601 
L 199.225426 206.581558 
L 199.470079 221.932318 
L 199.714732 222.748717 
L 199.959385 222.365257 
L 200.448691 219.64393 
L 200.693344 218.159569 
L 200.937997 217.813218 
L 201.18265 218.802792 
L 201.427303 217.602934 
L 201.671956 219.037816 
L 201.916609 218.87701 
L 202.161262 216.440185 
L 202.895221 218.629617 
L 203.139875 218.11009 
L 203.384528 217.961654 
L 203.629181 217.417389 
L 203.873834 218.246157 
L 204.118487 218.011133 
L 204.36314 218.802792 
L 204.607793 217.627673 
L 204.852446 218.49355 
L 205.097099 218.51829 
L 205.341752 221.684925 
L 205.586405 220.794309 
L 205.831058 222.179712 
L 206.075711 222.860044 
L 206.320364 224.171229 
L 206.565017 223.787769 
L 207.054323 225.445305 
L 207.298976 223.589854 
L 207.543629 223.095067 
L 207.788282 223.886726 
L 208.032935 223.837247 
L 208.277588 225.853504 
L 208.522241 225.098954 
L 208.766894 226.768859 
L 209.2562 226.74412 
L 209.745506 229.923125 
L 209.990159 226.892556 
L 210.234812 226.756489 
L 210.479465 225.742177 
L 210.724118 226.34829 
L 210.968771 226.397769 
L 211.213424 225.395826 
L 211.458077 225.754546 
L 211.947383 225.197911 
L 212.192036 225.482414 
L 212.436689 224.183598 
L 212.681342 227.325494 
L 212.925995 228.327438 
L 213.170648 228.030565 
L 213.415301 226.74412 
L 213.659954 227.659475 
L 213.904607 229.502556 
L 214.14926 228.62431 
L 214.393913 228.550092 
L 214.638566 228.636679 
L 215.127872 224.208338 
L 215.372525 213.520943 
L 215.617178 210.131654 
L 216.351137 205.591985 
L 216.59579 207.65772 
L 216.840443 207.422696 
L 217.085096 207.781416 
L 217.329749 207.905113 
L 217.574402 205.109568 
L 217.819055 206.556819 
L 218.063708 206.51971 
L 218.308361 207.323739 
L 218.553014 207.558762 
L 218.797667 205.629094 
L 219.04232 205.468288 
L 219.286973 205.134307 
L 219.531626 203.476771 
L 220.020932 201.893454 
L 220.265585 201.980041 
L 220.510238 201.349188 
L 220.754891 202.462459 
L 221.244197 201.324449 
L 221.48885 200.495681 
L 221.733503 201.930563 
L 221.978156 200.978098 
L 222.467462 202.833549 
L 222.712115 203.204639 
L 223.201421 207.101085 
L 223.446074 208.968905 
L 223.690727 208.065919 
L 223.93538 206.618667 
L 224.180033 208.375161 
L 224.424686 211.282033 
L 224.669339 211.888147 
L 224.913992 211.071749 
L 225.403298 210.168763 
L 225.647952 210.750137 
L 225.892605 208.3999 
L 226.137258 211.319142 
L 226.626564 212.556109 
L 226.871217 211.170706 
L 227.360523 212.840611 
L 227.605176 212.679806 
L 227.849829 211.220185 
L 228.094482 211.02227 
L 228.339135 207.855634 
L 228.583788 208.177246 
L 229.317747 201.250231 
L 229.5624 201.831605 
L 229.807053 186.530324 
L 230.051706 184.848049 
L 230.296359 185.57786 
L 230.541012 186.814827 
L 230.785665 187.297244 
L 231.030318 187.04985 
L 231.274971 187.173547 
L 231.519624 185.812883 
L 231.764277 186.344779 
L 232.00893 186.381888 
L 232.253583 187.507528 
L 232.498236 187.408571 
L 232.742889 187.79203 
L 232.987542 185.911841 
L 233.232195 186.790087 
L 233.476848 185.961319 
L 233.721501 184.303784 
L 233.966154 181.594826 
L 234.45546 183.338949 
L 234.700113 182.139091 
L 234.944766 177.475726 
L 235.189419 176.659328 
L 235.434072 176.906721 
L 235.678725 176.016105 
L 235.923378 175.756342 
L 236.168031 175.954257 
L 236.412684 177.005679 
L 236.657337 174.69255 
L 237.146643 175.570797 
L 237.391296 175.756342 
L 237.635949 175.595536 
L 237.880602 175.991366 
L 238.125255 175.323404 
L 238.369908 173.95037 
L 238.614561 175.014162 
L 239.103867 167.258379 
L 239.837826 170.276578 
L 240.082479 168.000559 
L 240.327132 169.237526 
L 240.571785 168.656152 
L 240.816438 169.732313 
L 241.061091 166.590417 
L 241.305744 165.477147 
L 241.550397 165.934824 
L 242.039703 170.697147 
L 242.284356 171.760939 
L 242.529009 169.757052 
L 242.773662 170.016815 
L 243.262968 168.866436 
L 243.752274 170.177621 
L 244.486233 160.801412 
L 244.730886 161.692028 
L 244.975539 164.462834 
L 245.220192 142.593258 
L 245.464845 143.879704 
L 245.709498 149.099704 
L 245.954151 146.675249 
L 246.68811 150.596434 
L 246.932763 154.196008 
L 247.177416 153.614634 
L 247.422069 153.391979 
L 247.911375 144.448708 
L 248.156029 146.613401 
L 248.400682 135.987854 
L 248.889988 129.43193 
L 249.134641 133.056243 
L 249.623947 134.021077 
L 249.8686 136.779513 
L 250.113253 132.79648 
L 250.357906 133.217048 
L 250.602559 130.780224 
L 250.847212 132.40065 
L 251.091865 134.862214 
L 251.825824 166.009042 
L 252.070477 160.269516 
L 252.559783 140.304869 
L 252.804436 140.341978 
L 253.049089 143.558092 
L 253.293742 154.987667 
L 253.538395 155.420605 
L 253.783048 160.838521 
L 254.027701 163.646435 
L 254.272354 168.396389 
L 254.517007 163.164018 
L 254.76166 162.792928 
L 255.250966 167.481033 
L 255.740272 157.10288 
L 255.984925 156.942075 
L 256.229578 158.908852 
L 256.718884 164.042265 
L 256.963537 164.537052 
L 257.20819 157.49871 
L 257.452843 159.3789 
L 257.697496 162.805298 
L 257.942149 164.190701 
L 258.431455 154.752643 
L 258.676108 154.591837 
L 258.920761 148.233827 
L 259.165414 151.845771 
L 259.410067 152.130273 
L 259.65472 143.681789 
L 259.899373 145.660936 
L 260.144026 145.5125 
L 260.388679 150.114017 
L 260.633332 149.495534 
L 260.877985 160.801412 
L 261.122638 163.399042 
L 261.367291 160.059231 
L 261.611944 163.399042 
L 262.10125 165.464777 
L 262.590556 158.389326 
L 262.835209 158.352217 
L 263.079862 154.975297 
L 263.324515 155.816435 
L 263.569168 151.783922 
L 263.813821 152.699278 
L 264.058474 150.101647 
L 264.303127 144.77032 
L 264.54778 145.450652 
L 264.792433 144.75795 
L 265.037086 149.953211 
L 265.281739 146.440225 
L 265.526392 146.24231 
L 266.015698 157.634776 
L 266.505004 140.997571 
L 266.749657 136.631077 
L 266.99431 137.138234 
L 267.238963 132.660413 
L 267.483616 131.188423 
L 267.728269 133.316006 
L 267.972922 132.264584 
L 268.217575 130.681266 
L 268.462228 133.291266 
L 268.706881 130.767854 
L 268.951534 126.364252 
L 269.196187 128.986621 
L 269.44084 123.890318 
L 269.685493 130.780224 
L 269.930146 128.776337 
L 270.174799 132.215105 
L 270.419452 133.810793 
L 270.664106 138.75866 
L 270.908759 136.581599 
L 271.153412 139.14212 
L 271.398065 134.144774 
L 271.642718 134.305579 
L 271.887371 139.859561 
L 272.132024 141.578945 
L 272.376677 142.061362 
L 272.62133 139.686386 
L 272.865983 140.713068 
L 273.110636 140.985201 
L 273.355289 138.498897 
L 273.844595 144.362121 
L 274.089248 149.829515 
L 274.333901 152.674539 
L 274.578554 140.28013 
L 275.06786 148.060652 
L 275.312513 143.63231 
L 275.557166 141.640793 
L 275.801819 154.035202 
L 276.046472 153.416719 
L 276.291125 157.152359 
L 276.535778 152.390036 
L 276.780431 152.575581 
L 277.025084 159.242833 
L 277.759043 164.833924 
L 278.003696 173.096863 
L 278.248349 169.064351 
L 278.493002 172.243356 
L 278.737655 169.46018 
L 278.982308 172.676294 
L 279.471614 174.878095 
L 279.716267 183.437907 
L 279.96092 182.782314 
L 280.450226 176.436674 
L 280.694879 179.034304 
L 280.939532 177.735489 
L 281.184185 175.694494 
L 281.428838 168.631412 
L 281.673491 173.913261 
L 281.918144 175.47184 
L 282.162797 172.132029 
L 282.40745 175.607906 
L 282.896756 168.915915 
L 283.386062 168.371649 
L 283.630715 170.301318 
L 283.875368 164.252549 
L 284.120021 165.106057 
L 284.364674 164.710227 
L 284.609327 160.195298 
L 284.85398 167.728426 
L 285.098633 166.813071 
L 285.343286 164.623639 
L 285.587939 165.415298 
L 285.832592 165.044208 
L 286.077245 164.462834 
L 286.321898 164.796815 
L 286.566551 162.953734 
L 286.811204 162.496056 
L 287.055857 160.764302 
L 287.30051 160.838521 
L 287.545163 162.34762 
L 287.789816 162.656862 
L 288.034469 164.178331 
L 288.523775 157.041032 
L 288.768428 159.440748 
L 289.013081 159.391269 
L 289.257734 155.098994 
L 289.502387 156.768899 
L 289.74704 156.039089 
L 289.991693 156.175155 
L 290.236346 156.645203 
L 290.480999 157.436861 
L 290.725652 158.834634 
L 291.214958 150.212974 
L 291.704264 147.912216 
L 291.948917 151.759183 
L 292.19357 169.150938 
L 292.438223 166.145109 
L 292.682876 168.35928 
L 292.92753 167.22127 
L 293.172183 170.115773 
L 293.906142 174.173024 
L 294.150795 174.482266 
L 294.395448 170.672408 
L 294.640101 172.614446 
L 294.884754 173.542171 
L 295.129407 175.298664 
L 295.37406 173.480323 
L 295.618713 173.851413 
L 295.863366 170.944541 
L 296.352672 177.31492 
L 296.597325 177.141745 
L 296.841978 175.607906 
L 297.086631 176.21402 
L 297.331284 173.900892 
L 297.575937 175.07601 
L 298.554549 161.902312 
L 298.799202 158.673828 
L 299.043855 158.067715 
L 299.777814 160.603497 
L 300.022467 162.656862 
L 300.26712 161.23435 
L 300.511773 162.285772 
L 300.756426 164.796815 
L 301.001079 165.749279 
L 301.245732 169.880749 
L 301.490385 169.757052 
L 301.979691 169.212787 
L 302.224344 167.790275 
L 302.71365 169.818901 
L 302.958303 173.294778 
L 303.202956 174.507005 
L 303.447609 172.46601 
L 303.936915 180.296011 
L 304.426221 173.20819 
L 304.670874 172.688664 
L 304.915527 166.268805 
L 305.16018 164.734966 
L 305.404833 168.829327 
L 305.649486 168.210844 
L 305.894139 165.786388 
L 306.138792 168.742739 
L 306.383445 167.134682 
L 306.628098 166.565678 
L 306.872751 164.5989 
L 307.362057 163.621696 
L 307.60671 179.665158 
L 307.851363 177.104636 
L 308.096016 179.479613 
L 308.340669 179.603309 
L 308.585322 177.413878 
L 308.829975 172.775252 
L 309.074628 171.995962 
L 309.563934 172.973166 
L 309.808587 169.113829 
L 310.297893 170.684777 
L 310.542546 170.264209 
L 310.787199 165.823497 
L 311.276505 169.583877 
L 311.521158 169.658095 
L 311.765811 167.23364 
L 312.010464 166.367763 
L 312.255117 167.95108 
L 312.49977 168.186104 
L 312.744423 166.639896 
L 313.233729 167.258379 
L 313.478382 168.012929 
L 313.723035 167.171791 
L 313.967688 168.111886 
L 314.212341 165.464777 
L 314.456994 165.143166 
L 314.701647 165.489516 
L 314.9463 165.303971 
L 315.68026 165.390559 
L 315.924913 162.038378 
L 316.169566 163.201127 
L 316.414219 162.570274 
L 316.658872 166.47909 
L 316.903525 163.324824 
L 317.148178 166.986246 
L 317.392831 165.848237 
L 317.637484 165.440038 
L 317.882137 162.792928 
L 318.12679 164.549421 
L 318.371443 164.314398 
L 318.616096 168.482976 
L 318.860749 167.307858 
L 319.105402 167.171791 
L 319.350055 168.878806 
L 319.594708 165.774019 
L 319.839361 165.266862 
L 320.084014 166.268805 
L 320.328667 163.943308 
L 320.57332 158.896482 
L 320.817973 159.255203 
L 321.062626 154.381553 
L 321.307279 155.878283 
L 321.551932 156.187525 
L 321.796585 158.030606 
L 322.041238 161.419895 
L 322.285891 162.768189 
L 322.530544 161.865203 
L 322.775197 160.331364 
L 323.01985 162.397099 
L 323.264503 138.907096 
L 323.509156 135.097238 
L 323.753809 133.266527 
L 323.998462 128.133114 
L 324.243115 128.343399 
L 324.487768 129.357712 
L 324.732421 128.788707 
L 324.977074 129.40719 
L 325.221727 129.283494 
L 325.711033 133.328375 
L 325.955686 134.515864 
L 326.444992 134.899323 
L 326.689645 131.745058 
L 326.934298 132.04193 
L 327.178951 134.701409 
L 327.423604 143.075675 
L 327.668257 143.867334 
L 327.91291 145.599088 
L 328.157563 145.339325 
L 328.402216 143.360177 
L 328.646869 143.558092 
L 328.891522 143.335438 
L 329.136175 139.933779 
L 329.380828 139.834822 
L 330.114787 141.207855 
L 330.35944 140.490414 
L 330.604093 141.121267 
L 330.848746 140.849135 
L 331.093399 136.408423 
L 331.338052 138.449419 
L 331.582705 131.757427 
L 331.827358 130.743115 
L 332.072011 133.402593 
L 332.316664 133.847902 
L 332.561317 133.90975 
L 332.80597 132.734631 
L 333.050623 133.1552 
L 333.295276 131.225532 
L 333.539929 132.190366 
L 333.784582 130.668897 
L 334.029235 131.077096 
L 334.273888 129.370081 
L 334.518541 130.508091 
L 334.763194 130.495721 
L 335.007847 127.081692 
L 335.2525 130.124631 
L 335.497153 130.817333 
L 335.741806 132.709892 
L 335.986459 128.145484 
L 336.475765 122.801787 
L 336.720418 123.717142 
L 336.965071 123.865578 
L 337.209724 125.176763 
L 337.454377 124.422213 
L 337.69903 126.05501 
L 337.943684 120.463919 
L 338.188337 121.465862 
L 338.43299 121.008185 
L 338.677643 114.637805 
L 338.922296 114.402781 
L 339.166949 115.899511 
L 339.411602 112.534961 
L 339.900908 113.957473 
L 340.145561 109.640458 
L 340.390214 111.161928 
L 340.634867 111.792781 
L 340.87952 111.706193 
L 341.124173 113.660601 
L 341.613479 111.471169 
L 341.858132 107.72316 
L 342.102785 106.807804 
L 342.347438 107.549984 
L 342.592091 106.708847 
L 342.836744 108.712733 
L 343.081397 111.656714 
L 343.32605 109.863112 
L 343.570703 110.184724 
L 343.815356 109.924961 
L 344.060009 109.454913 
L 344.304662 107.896335 
L 344.549315 109.232259 
L 344.793968 108.650885 
L 345.038621 108.45297 
L 345.283274 110.036288 
L 345.527927 109.393065 
L 345.77258 113.252402 
L 346.017233 113.734819 
L 346.261886 110.271311 
L 346.506539 110.902165 
L 346.751192 112.275198 
L 346.995845 112.015435 
L 347.240498 111.570127 
L 347.485151 108.316904 
L 347.729804 108.725103 
L 347.974457 106.176951 
L 348.21911 107.240742 
L 348.708416 105.45951 
L 348.953069 109.677567 
L 349.197722 109.393065 
L 349.442375 110.395008 
L 349.687028 110.172354 
L 350.176334 106.275908 
L 350.66564 102.701074 
L 350.910293 103.010315 
L 351.154946 104.111216 
L 351.644252 108.193207 
L 351.888905 108.044771 
L 352.133558 108.82406 
L 352.622864 107.290221 
L 352.867517 107.933444 
L 353.11217 109.059084 
L 353.356823 103.703017 
L 353.846129 112.967899 
L 354.580088 107.933444 
L 354.824741 97.629509 
L 355.069394 100.091073 
L 355.314047 96.4915 
L 355.5587 97.58003 
L 355.803353 93.683585 
L 356.048006 92.322921 
L 356.292659 93.386713 
L 356.537312 91.333347 
L 356.781965 92.137376 
L 357.026618 92.409509 
L 357.271271 91.073584 
L 357.515924 87.585338 
L 357.760577 89.73766 
L 358.00523 86.929745 
L 358.494536 88.661499 
L 358.739189 96.343064 
L 358.983842 93.250646 
L 359.228495 91.61785 
L 359.473148 91.444674 
L 359.717801 90.467471 
L 359.962454 90.714864 
L 360.207107 84.158939 
L 360.451761 84.925859 
L 360.696414 83.948655 
L 361.18572 84.233157 
L 361.430373 81.524199 
L 361.675026 81.672635 
L 361.919679 81.536569 
L 362.408985 80.658323 
L 362.898291 98.520125 
L 363.142944 96.936808 
L 363.63225 98.124296 
L 363.876903 97.357376 
L 364.121556 96.09567 
L 364.366209 97.765576 
L 364.610862 94.079414 
L 364.855515 94.252589 
L 365.100168 90.380883 
L 365.344821 91.024106 
L 365.589474 99.027282 
L 365.834127 96.0833 
L 366.07878 100.190031 
L 366.323433 101.031168 
L 366.568086 105.038941 
L 366.812739 103.257709 
L 367.057392 104.939984 
L 367.546698 96.998656 
L 367.791351 94.945291 
L 368.036004 89.477897 
L 368.280657 90.145859 
L 368.52531 86.546285 
L 368.769963 85.828844 
L 369.014616 58.739268 
L 369.259269 58.417657 
L 369.503922 58.739268 
L 369.748575 52.628651 
L 369.993228 53.407941 
L 370.237881 54.57069 
L 370.482534 51.960689 
L 370.727187 59.877278 
L 370.97184 58.195003 
L 371.216493 61.138984 
L 371.461146 60.681306 
L 371.950452 64.144814 
L 372.439758 61.547183 
L 372.929064 68.41235 
L 373.173717 76.62581 
L 373.41837 73.830265 
L 373.663023 74.325052 
L 373.907676 77.417469 
L 374.152329 75.586758 
L 374.396982 80.39856 
L 374.641635 79.841924 
L 374.886288 79.569792 
L 375.130941 76.378417 
L 375.375594 76.724768 
L 375.620247 77.875147 
L 375.8649 80.571735 
L 376.354206 77.034009 
L 376.598859 69.760644 
L 377.088165 69.698795 
L 377.332818 69.970928 
L 377.577471 64.120074 
L 377.822124 64.429316 
L 378.066777 67.620691 
L 378.556083 56.821969 
L 379.045389 59.939126 
L 379.290042 60.285477 
L 379.534695 57.477562 
L 379.779348 56.166377 
L 380.024001 56.376661 
L 380.268654 52.331779 
L 380.513307 54.100642 
L 380.75796 64.985951 
L 381.002613 63.959269 
L 381.247266 60.755524 
L 381.491919 62.326472 
L 381.736572 61.522444 
L 381.981225 66.89088 
L 382.225878 64.194292 
L 382.470531 57.687846 
L 382.715184 45.392395 
L 382.959838 40.902205 
L 383.204491 42.324717 
L 383.449144 44.538888 
L 383.693797 44.699693 
L 383.93845 43.574053 
L 384.427756 35.137939 
L 384.917062 43.969883 
L 385.161715 44.477039 
L 385.406368 45.676897 
L 385.651021 47.767371 
L 385.895674 43.376139 
L 386.140327 46.159314 
L 386.38498 44.378082 
L 386.629633 39.022015 
L 386.874286 40.469266 
L 387.118939 42.868982 
L 387.608245 39.294148 
L 387.852898 38.44064 
L 387.852898 38.44064 
" style="fill:none;stroke:#ff7f0e;stroke-linecap:square;stroke-width:1.5;"/>
   </g>
   <g id="patch_3">
    <path d="M 46.965625 288.430125 
L 46.965625 22.318125 
" style="fill:none;stroke:#000000;stroke-linecap:square;stroke-linejoin:miter;stroke-width:0.8;"/>
   </g>
   <g id="patch_4">
    <path d="M 404.085625 288.430125 
L 404.085625 22.318125 
" style="fill:none;stroke:#000000;stroke-linecap:square;stroke-linejoin:miter;stroke-width:0.8;"/>
   </g>
   <g id="patch_5">
    <path d="M 46.965625 288.430125 
L 404.085625 288.430125 
" style="fill:none;stroke:#000000;stroke-linecap:square;stroke-linejoin:miter;stroke-width:0.8;"/>
   </g>
   <g id="patch_6">
    <path d="M 46.965625 22.318125 
L 404.085625 22.318125 
" style="fill:none;stroke:#000000;stroke-linecap:square;stroke-linejoin:miter;stroke-width:0.8;"/>
   </g>
   <g id="text_19">
    <!-- Training: NFLX -->
    <defs>
     <path d="M -0.296875 72.90625 
L 61.375 72.90625 
L 61.375 64.59375 
L 35.5 64.59375 
L 35.5 0 
L 25.59375 0 
L 25.59375 64.59375 
L -0.296875 64.59375 
z
" id="DejaVuSans-84"/>
     <path d="M 54.890625 33.015625 
L 54.890625 0 
L 45.90625 0 
L 45.90625 32.71875 
Q 45.90625 40.484375 42.875 44.328125 
Q 39.84375 48.1875 33.796875 48.1875 
Q 26.515625 48.1875 22.3125 43.546875 
Q 18.109375 38.921875 18.109375 30.90625 
L 18.109375 0 
L 9.078125 0 
L 9.078125 54.6875 
L 18.109375 54.6875 
L 18.109375 46.1875 
Q 21.34375 51.125 25.703125 53.5625 
Q 30.078125 56 35.796875 56 
Q 45.21875 56 50.046875 50.171875 
Q 54.890625 44.34375 54.890625 33.015625 
z
" id="DejaVuSans-110"/>
     <path d="M 45.40625 27.984375 
Q 45.40625 37.75 41.375 43.109375 
Q 37.359375 48.484375 30.078125 48.484375 
Q 22.859375 48.484375 18.828125 43.109375 
Q 14.796875 37.75 14.796875 27.984375 
Q 14.796875 18.265625 18.828125 12.890625 
Q 22.859375 7.515625 30.078125 7.515625 
Q 37.359375 7.515625 41.375 12.890625 
Q 45.40625 18.265625 45.40625 27.984375 
z
M 54.390625 6.78125 
Q 54.390625 -7.171875 48.1875 -13.984375 
Q 42 -20.796875 29.203125 -20.796875 
Q 24.46875 -20.796875 20.265625 -20.09375 
Q 16.0625 -19.390625 12.109375 -17.921875 
L 12.109375 -9.1875 
Q 16.0625 -11.328125 19.921875 -12.34375 
Q 23.78125 -13.375 27.78125 -13.375 
Q 36.625 -13.375 41.015625 -8.765625 
Q 45.40625 -4.15625 45.40625 5.171875 
L 45.40625 9.625 
Q 42.625 4.78125 38.28125 2.390625 
Q 33.9375 0 27.875 0 
Q 17.828125 0 11.671875 7.65625 
Q 5.515625 15.328125 5.515625 27.984375 
Q 5.515625 40.671875 11.671875 48.328125 
Q 17.828125 56 27.875 56 
Q 33.9375 56 38.28125 53.609375 
Q 42.625 51.21875 45.40625 46.390625 
L 45.40625 54.6875 
L 54.390625 54.6875 
z
" id="DejaVuSans-103"/>
     <path d="M 11.71875 12.40625 
L 22.015625 12.40625 
L 22.015625 0 
L 11.71875 0 
z
M 11.71875 51.703125 
L 22.015625 51.703125 
L 22.015625 39.3125 
L 11.71875 39.3125 
z
" id="DejaVuSans-58"/>
     <path d="M 9.8125 72.90625 
L 23.09375 72.90625 
L 55.421875 11.921875 
L 55.421875 72.90625 
L 64.984375 72.90625 
L 64.984375 0 
L 51.703125 0 
L 19.390625 60.984375 
L 19.390625 0 
L 9.8125 0 
z
" id="DejaVuSans-78"/>
     <path d="M 9.8125 72.90625 
L 51.703125 72.90625 
L 51.703125 64.59375 
L 19.671875 64.59375 
L 19.671875 43.109375 
L 48.578125 43.109375 
L 48.578125 34.8125 
L 19.671875 34.8125 
L 19.671875 0 
L 9.8125 0 
z
" id="DejaVuSans-70"/>
     <path d="M 9.8125 72.90625 
L 19.671875 72.90625 
L 19.671875 8.296875 
L 55.171875 8.296875 
L 55.171875 0 
L 9.8125 0 
z
" id="DejaVuSans-76"/>
     <path d="M 6.296875 72.90625 
L 16.890625 72.90625 
L 35.015625 45.796875 
L 53.21875 72.90625 
L 63.8125 72.90625 
L 40.375 37.890625 
L 65.375 0 
L 54.78125 0 
L 34.28125 31 
L 13.625 0 
L 2.984375 0 
L 29 38.921875 
z
" id="DejaVuSans-88"/>
    </defs>
    <g transform="translate(182.53375 16.318125)scale(0.12 -0.12)">
     <use xlink:href="#DejaVuSans-84"/>
     <use x="46.333984" xlink:href="#DejaVuSans-114"/>
     <use x="87.447266" xlink:href="#DejaVuSans-97"/>
     <use x="148.726562" xlink:href="#DejaVuSans-105"/>
     <use x="176.509766" xlink:href="#DejaVuSans-110"/>
     <use x="239.888672" xlink:href="#DejaVuSans-105"/>
     <use x="267.671875" xlink:href="#DejaVuSans-110"/>
     <use x="331.050781" xlink:href="#DejaVuSans-103"/>
     <use x="394.527344" xlink:href="#DejaVuSans-58"/>
     <use x="428.21875" xlink:href="#DejaVuSans-32"/>
     <use x="460.005859" xlink:href="#DejaVuSans-78"/>
     <use x="534.810547" xlink:href="#DejaVuSans-70"/>
     <use x="592.330078" xlink:href="#DejaVuSans-76"/>
     <use x="648.042969" xlink:href="#DejaVuSans-88"/>
    </g>
   </g>
   <g id="legend_1">
    <g id="patch_7">
     <path d="M 53.965625 59.674375 
L 137.69375 59.674375 
Q 139.69375 59.674375 139.69375 57.674375 
L 139.69375 29.318125 
Q 139.69375 27.318125 137.69375 27.318125 
L 53.965625 27.318125 
Q 51.965625 27.318125 51.965625 29.318125 
L 51.965625 57.674375 
Q 51.965625 59.674375 53.965625 59.674375 
z
" style="fill:#ffffff;opacity:0.8;stroke:#cccccc;stroke-linejoin:miter;"/>
    </g>
    <g id="line2d_35">
     <path d="M 55.965625 35.416562 
L 75.965625 35.416562 
" style="fill:none;stroke:#1f77b4;stroke-linecap:square;stroke-width:1.5;"/>
    </g>
    <g id="line2d_36"/>
    <g id="text_20">
     <!-- Predicted -->
     <defs>
      <path d="M 45.40625 46.390625 
L 45.40625 75.984375 
L 54.390625 75.984375 
L 54.390625 0 
L 45.40625 0 
L 45.40625 8.203125 
Q 42.578125 3.328125 38.25 0.953125 
Q 33.9375 -1.421875 27.875 -1.421875 
Q 17.96875 -1.421875 11.734375 6.484375 
Q 5.515625 14.40625 5.515625 27.296875 
Q 5.515625 40.1875 11.734375 48.09375 
Q 17.96875 56 27.875 56 
Q 33.9375 56 38.25 53.625 
Q 42.578125 51.265625 45.40625 46.390625 
z
M 14.796875 27.296875 
Q 14.796875 17.390625 18.875 11.75 
Q 22.953125 6.109375 30.078125 6.109375 
Q 37.203125 6.109375 41.296875 11.75 
Q 45.40625 17.390625 45.40625 27.296875 
Q 45.40625 37.203125 41.296875 42.84375 
Q 37.203125 48.484375 30.078125 48.484375 
Q 22.953125 48.484375 18.875 42.84375 
Q 14.796875 37.203125 14.796875 27.296875 
z
" id="DejaVuSans-100"/>
      <path d="M 18.3125 70.21875 
L 18.3125 54.6875 
L 36.8125 54.6875 
L 36.8125 47.703125 
L 18.3125 47.703125 
L 18.3125 18.015625 
Q 18.3125 11.328125 20.140625 9.421875 
Q 21.96875 7.515625 27.59375 7.515625 
L 36.8125 7.515625 
L 36.8125 0 
L 27.59375 0 
Q 17.1875 0 13.234375 3.875 
Q 9.28125 7.765625 9.28125 18.015625 
L 9.28125 47.703125 
L 2.6875 47.703125 
L 2.6875 54.6875 
L 9.28125 54.6875 
L 9.28125 70.21875 
z
" id="DejaVuSans-116"/>
     </defs>
     <g transform="translate(83.965625 38.916562)scale(0.1 -0.1)">
      <use xlink:href="#DejaVuSans-80"/>
      <use x="58.552734" xlink:href="#DejaVuSans-114"/>
      <use x="97.416016" xlink:href="#DejaVuSans-101"/>
      <use x="158.939453" xlink:href="#DejaVuSans-100"/>
      <use x="222.416016" xlink:href="#DejaVuSans-105"/>
      <use x="250.199219" xlink:href="#DejaVuSans-99"/>
      <use x="305.179688" xlink:href="#DejaVuSans-116"/>
      <use x="344.388672" xlink:href="#DejaVuSans-101"/>
      <use x="405.912109" xlink:href="#DejaVuSans-100"/>
     </g>
    </g>
    <g id="line2d_37">
     <path d="M 55.965625 50.094687 
L 75.965625 50.094687 
" style="fill:none;stroke:#ff7f0e;stroke-linecap:square;stroke-width:1.5;"/>
    </g>
    <g id="line2d_38"/>
    <g id="text_21">
     <!-- True value -->
     <defs>
      <path d="M 8.5 21.578125 
L 8.5 54.6875 
L 17.484375 54.6875 
L 17.484375 21.921875 
Q 17.484375 14.15625 20.5 10.265625 
Q 23.53125 6.390625 29.59375 6.390625 
Q 36.859375 6.390625 41.078125 11.03125 
Q 45.3125 15.671875 45.3125 23.6875 
L 45.3125 54.6875 
L 54.296875 54.6875 
L 54.296875 0 
L 45.3125 0 
L 45.3125 8.40625 
Q 42.046875 3.421875 37.71875 1 
Q 33.40625 -1.421875 27.6875 -1.421875 
Q 18.265625 -1.421875 13.375 4.4375 
Q 8.5 10.296875 8.5 21.578125 
z
M 31.109375 56 
z
" id="DejaVuSans-117"/>
      <path d="M 2.984375 54.6875 
L 12.5 54.6875 
L 29.59375 8.796875 
L 46.6875 54.6875 
L 56.203125 54.6875 
L 35.6875 0 
L 23.484375 0 
z
" id="DejaVuSans-118"/>
      <path d="M 9.421875 75.984375 
L 18.40625 75.984375 
L 18.40625 0 
L 9.421875 0 
z
" id="DejaVuSans-108"/>
     </defs>
     <g transform="translate(83.965625 53.594687)scale(0.1 -0.1)">
      <use xlink:href="#DejaVuSans-84"/>
      <use x="46.333984" xlink:href="#DejaVuSans-114"/>
      <use x="87.447266" xlink:href="#DejaVuSans-117"/>
      <use x="150.826172" xlink:href="#DejaVuSans-101"/>
      <use x="212.349609" xlink:href="#DejaVuSans-32"/>
      <use x="244.136719" xlink:href="#DejaVuSans-118"/>
      <use x="303.316406" xlink:href="#DejaVuSans-97"/>
      <use x="364.595703" xlink:href="#DejaVuSans-108"/>
      <use x="392.378906" xlink:href="#DejaVuSans-117"/>
      <use x="455.757812" xlink:href="#DejaVuSans-101"/>
     </g>
    </g>
   </g>
  </g>
 </g>
 <defs>
  <clipPath id="p6670a50d0d">
   <rect height="266.112" width="357.12" x="46.965625" y="22.318125"/>
  </clipPath>
 </defs>
</svg>
