<?xml version="1.0" encoding="utf-8" standalone="no"?>
<!DOCTYPE svg PUBLIC "-//W3C//DTD SVG 1.1//EN"
  "http://www.w3.org/Graphics/SVG/1.1/DTD/svg11.dtd">
<!-- Created with matplotlib (https://matplotlib.org/) -->
<svg height="325.986375pt" version="1.1" viewBox="0 0 411.285625 325.986375" width="411.285625pt" xmlns="http://www.w3.org/2000/svg" xmlns:xlink="http://www.w3.org/1999/xlink">
 <defs>
  <style type="text/css">
*{stroke-linecap:butt;stroke-linejoin:round;}
  </style>
 </defs>
 <g id="figure_1">
  <g id="patch_1">
   <path d="M 0 325.986375 
L 411.285625 325.986375 
L 411.285625 0 
L 0 0 
z
" style="fill:#ffffff;"/>
  </g>
  <g id="axes_1">
   <g id="patch_2">
    <path d="M 46.965625 288.430125 
L 404.085625 288.430125 
L 404.085625 22.318125 
L 46.965625 22.318125 
z
" style="fill:#ffffff;"/>
   </g>
   <g id="matplotlib.axis_1">
    <g id="xtick_1">
     <g id="line2d_1">
      <path clip-path="url(#p03b2ab2c94)" d="M 63.198352 288.430125 
L 63.198352 22.318125 
" style="fill:none;stroke:#b0b0b0;stroke-dasharray:2.96,1.28;stroke-dashoffset:0;stroke-width:0.8;"/>
     </g>
     <g id="line2d_2">
      <defs>
       <path d="M 0 0 
L 0 3.5 
" id="mfe0b838ab4" style="stroke:#000000;stroke-width:0.8;"/>
      </defs>
      <g>
       <use style="stroke:#000000;stroke-width:0.8;" x="63.198352" xlink:href="#mfe0b838ab4" y="288.430125"/>
      </g>
     </g>
     <g id="text_1">
      <!-- 0 -->
      <defs>
       <path d="M 31.78125 66.40625 
Q 24.171875 66.40625 20.328125 58.90625 
Q 16.5 51.421875 16.5 36.375 
Q 16.5 21.390625 20.328125 13.890625 
Q 24.171875 6.390625 31.78125 6.390625 
Q 39.453125 6.390625 43.28125 13.890625 
Q 47.125 21.390625 47.125 36.375 
Q 47.125 51.421875 43.28125 58.90625 
Q 39.453125 66.40625 31.78125 66.40625 
z
M 31.78125 74.21875 
Q 44.046875 74.21875 50.515625 64.515625 
Q 56.984375 54.828125 56.984375 36.375 
Q 56.984375 17.96875 50.515625 8.265625 
Q 44.046875 -1.421875 31.78125 -1.421875 
Q 19.53125 -1.421875 13.0625 8.265625 
Q 6.59375 17.96875 6.59375 36.375 
Q 6.59375 54.828125 13.0625 64.515625 
Q 19.53125 74.21875 31.78125 74.21875 
z
" id="DejaVuSans-48"/>
      </defs>
      <g transform="translate(60.017102 303.028562)scale(0.1 -0.1)">
       <use xlink:href="#DejaVuSans-48"/>
      </g>
     </g>
    </g>
    <g id="xtick_2">
     <g id="line2d_3">
      <path clip-path="url(#p03b2ab2c94)" d="M 112.128954 288.430125 
L 112.128954 22.318125 
" style="fill:none;stroke:#b0b0b0;stroke-dasharray:2.96,1.28;stroke-dashoffset:0;stroke-width:0.8;"/>
     </g>
     <g id="line2d_4">
      <g>
       <use style="stroke:#000000;stroke-width:0.8;" x="112.128954" xlink:href="#mfe0b838ab4" y="288.430125"/>
      </g>
     </g>
     <g id="text_2">
      <!-- 200 -->
      <defs>
       <path d="M 19.1875 8.296875 
L 53.609375 8.296875 
L 53.609375 0 
L 7.328125 0 
L 7.328125 8.296875 
Q 12.9375 14.109375 22.625 23.890625 
Q 32.328125 33.6875 34.8125 36.53125 
Q 39.546875 41.84375 41.421875 45.53125 
Q 43.3125 49.21875 43.3125 52.78125 
Q 43.3125 58.59375 39.234375 62.25 
Q 35.15625 65.921875 28.609375 65.921875 
Q 23.96875 65.921875 18.8125 64.3125 
Q 13.671875 62.703125 7.8125 59.421875 
L 7.8125 69.390625 
Q 13.765625 71.78125 18.9375 73 
Q 24.125 74.21875 28.421875 74.21875 
Q 39.75 74.21875 46.484375 68.546875 
Q 53.21875 62.890625 53.21875 53.421875 
Q 53.21875 48.921875 51.53125 44.890625 
Q 49.859375 40.875 45.40625 35.40625 
Q 44.1875 33.984375 37.640625 27.21875 
Q 31.109375 20.453125 19.1875 8.296875 
z
" id="DejaVuSans-50"/>
      </defs>
      <g transform="translate(102.585204 303.028562)scale(0.1 -0.1)">
       <use xlink:href="#DejaVuSans-50"/>
       <use x="63.623047" xlink:href="#DejaVuSans-48"/>
       <use x="127.246094" xlink:href="#DejaVuSans-48"/>
      </g>
     </g>
    </g>
    <g id="xtick_3">
     <g id="line2d_5">
      <path clip-path="url(#p03b2ab2c94)" d="M 161.059557 288.430125 
L 161.059557 22.318125 
" style="fill:none;stroke:#b0b0b0;stroke-dasharray:2.96,1.28;stroke-dashoffset:0;stroke-width:0.8;"/>
     </g>
     <g id="line2d_6">
      <g>
       <use style="stroke:#000000;stroke-width:0.8;" x="161.059557" xlink:href="#mfe0b838ab4" y="288.430125"/>
      </g>
     </g>
     <g id="text_3">
      <!-- 400 -->
      <defs>
       <path d="M 37.796875 64.3125 
L 12.890625 25.390625 
L 37.796875 25.390625 
z
M 35.203125 72.90625 
L 47.609375 72.90625 
L 47.609375 25.390625 
L 58.015625 25.390625 
L 58.015625 17.1875 
L 47.609375 17.1875 
L 47.609375 0 
L 37.796875 0 
L 37.796875 17.1875 
L 4.890625 17.1875 
L 4.890625 26.703125 
z
" id="DejaVuSans-52"/>
      </defs>
      <g transform="translate(151.515807 303.028562)scale(0.1 -0.1)">
       <use xlink:href="#DejaVuSans-52"/>
       <use x="63.623047" xlink:href="#DejaVuSans-48"/>
       <use x="127.246094" xlink:href="#DejaVuSans-48"/>
      </g>
     </g>
    </g>
    <g id="xtick_4">
     <g id="line2d_7">
      <path clip-path="url(#p03b2ab2c94)" d="M 209.990159 288.430125 
L 209.990159 22.318125 
" style="fill:none;stroke:#b0b0b0;stroke-dasharray:2.96,1.28;stroke-dashoffset:0;stroke-width:0.8;"/>
     </g>
     <g id="line2d_8">
      <g>
       <use style="stroke:#000000;stroke-width:0.8;" x="209.990159" xlink:href="#mfe0b838ab4" y="288.430125"/>
      </g>
     </g>
     <g id="text_4">
      <!-- 600 -->
      <defs>
       <path d="M 33.015625 40.375 
Q 26.375 40.375 22.484375 35.828125 
Q 18.609375 31.296875 18.609375 23.390625 
Q 18.609375 15.53125 22.484375 10.953125 
Q 26.375 6.390625 33.015625 6.390625 
Q 39.65625 6.390625 43.53125 10.953125 
Q 47.40625 15.53125 47.40625 23.390625 
Q 47.40625 31.296875 43.53125 35.828125 
Q 39.65625 40.375 33.015625 40.375 
z
M 52.59375 71.296875 
L 52.59375 62.3125 
Q 48.875 64.0625 45.09375 64.984375 
Q 41.3125 65.921875 37.59375 65.921875 
Q 27.828125 65.921875 22.671875 59.328125 
Q 17.53125 52.734375 16.796875 39.40625 
Q 19.671875 43.65625 24.015625 45.921875 
Q 28.375 48.1875 33.59375 48.1875 
Q 44.578125 48.1875 50.953125 41.515625 
Q 57.328125 34.859375 57.328125 23.390625 
Q 57.328125 12.15625 50.6875 5.359375 
Q 44.046875 -1.421875 33.015625 -1.421875 
Q 20.359375 -1.421875 13.671875 8.265625 
Q 6.984375 17.96875 6.984375 36.375 
Q 6.984375 53.65625 15.1875 63.9375 
Q 23.390625 74.21875 37.203125 74.21875 
Q 40.921875 74.21875 44.703125 73.484375 
Q 48.484375 72.75 52.59375 71.296875 
z
" id="DejaVuSans-54"/>
      </defs>
      <g transform="translate(200.446409 303.028562)scale(0.1 -0.1)">
       <use xlink:href="#DejaVuSans-54"/>
       <use x="63.623047" xlink:href="#DejaVuSans-48"/>
       <use x="127.246094" xlink:href="#DejaVuSans-48"/>
      </g>
     </g>
    </g>
    <g id="xtick_5">
     <g id="line2d_9">
      <path clip-path="url(#p03b2ab2c94)" d="M 258.920761 288.430125 
L 258.920761 22.318125 
" style="fill:none;stroke:#b0b0b0;stroke-dasharray:2.96,1.28;stroke-dashoffset:0;stroke-width:0.8;"/>
     </g>
     <g id="line2d_10">
      <g>
       <use style="stroke:#000000;stroke-width:0.8;" x="258.920761" xlink:href="#mfe0b838ab4" y="288.430125"/>
      </g>
     </g>
     <g id="text_5">
      <!-- 800 -->
      <defs>
       <path d="M 31.78125 34.625 
Q 24.75 34.625 20.71875 30.859375 
Q 16.703125 27.09375 16.703125 20.515625 
Q 16.703125 13.921875 20.71875 10.15625 
Q 24.75 6.390625 31.78125 6.390625 
Q 38.8125 6.390625 42.859375 10.171875 
Q 46.921875 13.96875 46.921875 20.515625 
Q 46.921875 27.09375 42.890625 30.859375 
Q 38.875 34.625 31.78125 34.625 
z
M 21.921875 38.8125 
Q 15.578125 40.375 12.03125 44.71875 
Q 8.5 49.078125 8.5 55.328125 
Q 8.5 64.0625 14.71875 69.140625 
Q 20.953125 74.21875 31.78125 74.21875 
Q 42.671875 74.21875 48.875 69.140625 
Q 55.078125 64.0625 55.078125 55.328125 
Q 55.078125 49.078125 51.53125 44.71875 
Q 48 40.375 41.703125 38.8125 
Q 48.828125 37.15625 52.796875 32.3125 
Q 56.78125 27.484375 56.78125 20.515625 
Q 56.78125 9.90625 50.3125 4.234375 
Q 43.84375 -1.421875 31.78125 -1.421875 
Q 19.734375 -1.421875 13.25 4.234375 
Q 6.78125 9.90625 6.78125 20.515625 
Q 6.78125 27.484375 10.78125 32.3125 
Q 14.796875 37.15625 21.921875 38.8125 
z
M 18.3125 54.390625 
Q 18.3125 48.734375 21.84375 45.5625 
Q 25.390625 42.390625 31.78125 42.390625 
Q 38.140625 42.390625 41.71875 45.5625 
Q 45.3125 48.734375 45.3125 54.390625 
Q 45.3125 60.0625 41.71875 63.234375 
Q 38.140625 66.40625 31.78125 66.40625 
Q 25.390625 66.40625 21.84375 63.234375 
Q 18.3125 60.0625 18.3125 54.390625 
z
" id="DejaVuSans-56"/>
      </defs>
      <g transform="translate(249.377011 303.028562)scale(0.1 -0.1)">
       <use xlink:href="#DejaVuSans-56"/>
       <use x="63.623047" xlink:href="#DejaVuSans-48"/>
       <use x="127.246094" xlink:href="#DejaVuSans-48"/>
      </g>
     </g>
    </g>
    <g id="xtick_6">
     <g id="line2d_11">
      <path clip-path="url(#p03b2ab2c94)" d="M 307.851363 288.430125 
L 307.851363 22.318125 
" style="fill:none;stroke:#b0b0b0;stroke-dasharray:2.96,1.28;stroke-dashoffset:0;stroke-width:0.8;"/>
     </g>
     <g id="line2d_12">
      <g>
       <use style="stroke:#000000;stroke-width:0.8;" x="307.851363" xlink:href="#mfe0b838ab4" y="288.430125"/>
      </g>
     </g>
     <g id="text_6">
      <!-- 1000 -->
      <defs>
       <path d="M 12.40625 8.296875 
L 28.515625 8.296875 
L 28.515625 63.921875 
L 10.984375 60.40625 
L 10.984375 69.390625 
L 28.421875 72.90625 
L 38.28125 72.90625 
L 38.28125 8.296875 
L 54.390625 8.296875 
L 54.390625 0 
L 12.40625 0 
z
" id="DejaVuSans-49"/>
      </defs>
      <g transform="translate(295.126363 303.028562)scale(0.1 -0.1)">
       <use xlink:href="#DejaVuSans-49"/>
       <use x="63.623047" xlink:href="#DejaVuSans-48"/>
       <use x="127.246094" xlink:href="#DejaVuSans-48"/>
       <use x="190.869141" xlink:href="#DejaVuSans-48"/>
      </g>
     </g>
    </g>
    <g id="xtick_7">
     <g id="line2d_13">
      <path clip-path="url(#p03b2ab2c94)" d="M 356.781965 288.430125 
L 356.781965 22.318125 
" style="fill:none;stroke:#b0b0b0;stroke-dasharray:2.96,1.28;stroke-dashoffset:0;stroke-width:0.8;"/>
     </g>
     <g id="line2d_14">
      <g>
       <use style="stroke:#000000;stroke-width:0.8;" x="356.781965" xlink:href="#mfe0b838ab4" y="288.430125"/>
      </g>
     </g>
     <g id="text_7">
      <!-- 1200 -->
      <g transform="translate(344.056965 303.028562)scale(0.1 -0.1)">
       <use xlink:href="#DejaVuSans-49"/>
       <use x="63.623047" xlink:href="#DejaVuSans-50"/>
       <use x="127.246094" xlink:href="#DejaVuSans-48"/>
       <use x="190.869141" xlink:href="#DejaVuSans-48"/>
      </g>
     </g>
    </g>
    <g id="text_8">
     <!-- Day -->
     <defs>
      <path d="M 19.671875 64.796875 
L 19.671875 8.109375 
L 31.59375 8.109375 
Q 46.6875 8.109375 53.6875 14.9375 
Q 60.6875 21.78125 60.6875 36.53125 
Q 60.6875 51.171875 53.6875 57.984375 
Q 46.6875 64.796875 31.59375 64.796875 
z
M 9.8125 72.90625 
L 30.078125 72.90625 
Q 51.265625 72.90625 61.171875 64.09375 
Q 71.09375 55.28125 71.09375 36.53125 
Q 71.09375 17.671875 61.125 8.828125 
Q 51.171875 0 30.078125 0 
L 9.8125 0 
z
" id="DejaVuSans-68"/>
      <path d="M 34.28125 27.484375 
Q 23.390625 27.484375 19.1875 25 
Q 14.984375 22.515625 14.984375 16.5 
Q 14.984375 11.71875 18.140625 8.90625 
Q 21.296875 6.109375 26.703125 6.109375 
Q 34.1875 6.109375 38.703125 11.40625 
Q 43.21875 16.703125 43.21875 25.484375 
L 43.21875 27.484375 
z
M 52.203125 31.203125 
L 52.203125 0 
L 43.21875 0 
L 43.21875 8.296875 
Q 40.140625 3.328125 35.546875 0.953125 
Q 30.953125 -1.421875 24.3125 -1.421875 
Q 15.921875 -1.421875 10.953125 3.296875 
Q 6 8.015625 6 15.921875 
Q 6 25.140625 12.171875 29.828125 
Q 18.359375 34.515625 30.609375 34.515625 
L 43.21875 34.515625 
L 43.21875 35.40625 
Q 43.21875 41.609375 39.140625 45 
Q 35.0625 48.390625 27.6875 48.390625 
Q 23 48.390625 18.546875 47.265625 
Q 14.109375 46.140625 10.015625 43.890625 
L 10.015625 52.203125 
Q 14.9375 54.109375 19.578125 55.046875 
Q 24.21875 56 28.609375 56 
Q 40.484375 56 46.34375 49.84375 
Q 52.203125 43.703125 52.203125 31.203125 
z
" id="DejaVuSans-97"/>
      <path d="M 32.171875 -5.078125 
Q 28.375 -14.84375 24.75 -17.8125 
Q 21.140625 -20.796875 15.09375 -20.796875 
L 7.90625 -20.796875 
L 7.90625 -13.28125 
L 13.1875 -13.28125 
Q 16.890625 -13.28125 18.9375 -11.515625 
Q 21 -9.765625 23.484375 -3.21875 
L 25.09375 0.875 
L 2.984375 54.6875 
L 12.5 54.6875 
L 29.59375 11.921875 
L 46.6875 54.6875 
L 56.203125 54.6875 
z
" id="DejaVuSans-121"/>
     </defs>
     <g transform="translate(215.652188 316.706687)scale(0.1 -0.1)">
      <use xlink:href="#DejaVuSans-68"/>
      <use x="77.001953" xlink:href="#DejaVuSans-97"/>
      <use x="138.28125" xlink:href="#DejaVuSans-121"/>
     </g>
    </g>
   </g>
   <g id="matplotlib.axis_2">
    <g id="ytick_1">
     <g id="line2d_15">
      <path clip-path="url(#p03b2ab2c94)" d="M 46.965625 267.340896 
L 404.085625 267.340896 
" style="fill:none;stroke:#b0b0b0;stroke-dasharray:2.96,1.28;stroke-dashoffset:0;stroke-width:0.8;"/>
     </g>
     <g id="line2d_16">
      <defs>
       <path d="M 0 0 
L -3.5 0 
" id="mef57a9129d" style="stroke:#000000;stroke-width:0.8;"/>
      </defs>
      <g>
       <use style="stroke:#000000;stroke-width:0.8;" x="46.965625" xlink:href="#mef57a9129d" y="267.340896"/>
      </g>
     </g>
     <g id="text_9">
      <!-- 60 -->
      <g transform="translate(27.240625 271.140115)scale(0.1 -0.1)">
       <use xlink:href="#DejaVuSans-54"/>
       <use x="63.623047" xlink:href="#DejaVuSans-48"/>
      </g>
     </g>
    </g>
    <g id="ytick_2">
     <g id="line2d_17">
      <path clip-path="url(#p03b2ab2c94)" d="M 46.965625 224.617717 
L 404.085625 224.617717 
" style="fill:none;stroke:#b0b0b0;stroke-dasharray:2.96,1.28;stroke-dashoffset:0;stroke-width:0.8;"/>
     </g>
     <g id="line2d_18">
      <g>
       <use style="stroke:#000000;stroke-width:0.8;" x="46.965625" xlink:href="#mef57a9129d" y="224.617717"/>
      </g>
     </g>
     <g id="text_10">
      <!-- 80 -->
      <g transform="translate(27.240625 228.416936)scale(0.1 -0.1)">
       <use xlink:href="#DejaVuSans-56"/>
       <use x="63.623047" xlink:href="#DejaVuSans-48"/>
      </g>
     </g>
    </g>
    <g id="ytick_3">
     <g id="line2d_19">
      <path clip-path="url(#p03b2ab2c94)" d="M 46.965625 181.894538 
L 404.085625 181.894538 
" style="fill:none;stroke:#b0b0b0;stroke-dasharray:2.96,1.28;stroke-dashoffset:0;stroke-width:0.8;"/>
     </g>
     <g id="line2d_20">
      <g>
       <use style="stroke:#000000;stroke-width:0.8;" x="46.965625" xlink:href="#mef57a9129d" y="181.894538"/>
      </g>
     </g>
     <g id="text_11">
      <!-- 100 -->
      <g transform="translate(20.878125 185.693757)scale(0.1 -0.1)">
       <use xlink:href="#DejaVuSans-49"/>
       <use x="63.623047" xlink:href="#DejaVuSans-48"/>
       <use x="127.246094" xlink:href="#DejaVuSans-48"/>
      </g>
     </g>
    </g>
    <g id="ytick_4">
     <g id="line2d_21">
      <path clip-path="url(#p03b2ab2c94)" d="M 46.965625 139.171359 
L 404.085625 139.171359 
" style="fill:none;stroke:#b0b0b0;stroke-dasharray:2.96,1.28;stroke-dashoffset:0;stroke-width:0.8;"/>
     </g>
     <g id="line2d_22">
      <g>
       <use style="stroke:#000000;stroke-width:0.8;" x="46.965625" xlink:href="#mef57a9129d" y="139.171359"/>
      </g>
     </g>
     <g id="text_12">
      <!-- 120 -->
      <g transform="translate(20.878125 142.970578)scale(0.1 -0.1)">
       <use xlink:href="#DejaVuSans-49"/>
       <use x="63.623047" xlink:href="#DejaVuSans-50"/>
       <use x="127.246094" xlink:href="#DejaVuSans-48"/>
      </g>
     </g>
    </g>
    <g id="ytick_5">
     <g id="line2d_23">
      <path clip-path="url(#p03b2ab2c94)" d="M 46.965625 96.448181 
L 404.085625 96.448181 
" style="fill:none;stroke:#b0b0b0;stroke-dasharray:2.96,1.28;stroke-dashoffset:0;stroke-width:0.8;"/>
     </g>
     <g id="line2d_24">
      <g>
       <use style="stroke:#000000;stroke-width:0.8;" x="46.965625" xlink:href="#mef57a9129d" y="96.448181"/>
      </g>
     </g>
     <g id="text_13">
      <!-- 140 -->
      <g transform="translate(20.878125 100.247399)scale(0.1 -0.1)">
       <use xlink:href="#DejaVuSans-49"/>
       <use x="63.623047" xlink:href="#DejaVuSans-52"/>
       <use x="127.246094" xlink:href="#DejaVuSans-48"/>
      </g>
     </g>
    </g>
    <g id="ytick_6">
     <g id="line2d_25">
      <path clip-path="url(#p03b2ab2c94)" d="M 46.965625 53.725002 
L 404.085625 53.725002 
" style="fill:none;stroke:#b0b0b0;stroke-dasharray:2.96,1.28;stroke-dashoffset:0;stroke-width:0.8;"/>
     </g>
     <g id="line2d_26">
      <g>
       <use style="stroke:#000000;stroke-width:0.8;" x="46.965625" xlink:href="#mef57a9129d" y="53.725002"/>
      </g>
     </g>
     <g id="text_14">
      <!-- 160 -->
      <g transform="translate(20.878125 57.524221)scale(0.1 -0.1)">
       <use xlink:href="#DejaVuSans-49"/>
       <use x="63.623047" xlink:href="#DejaVuSans-54"/>
       <use x="127.246094" xlink:href="#DejaVuSans-48"/>
      </g>
     </g>
    </g>
    <g id="text_15">
     <!-- Price $ -->
     <defs>
      <path d="M 19.671875 64.796875 
L 19.671875 37.40625 
L 32.078125 37.40625 
Q 38.96875 37.40625 42.71875 40.96875 
Q 46.484375 44.53125 46.484375 51.125 
Q 46.484375 57.671875 42.71875 61.234375 
Q 38.96875 64.796875 32.078125 64.796875 
z
M 9.8125 72.90625 
L 32.078125 72.90625 
Q 44.34375 72.90625 50.609375 67.359375 
Q 56.890625 61.8125 56.890625 51.125 
Q 56.890625 40.328125 50.609375 34.8125 
Q 44.34375 29.296875 32.078125 29.296875 
L 19.671875 29.296875 
L 19.671875 0 
L 9.8125 0 
z
" id="DejaVuSans-80"/>
      <path d="M 41.109375 46.296875 
Q 39.59375 47.171875 37.8125 47.578125 
Q 36.03125 48 33.890625 48 
Q 26.265625 48 22.1875 43.046875 
Q 18.109375 38.09375 18.109375 28.8125 
L 18.109375 0 
L 9.078125 0 
L 9.078125 54.6875 
L 18.109375 54.6875 
L 18.109375 46.1875 
Q 20.953125 51.171875 25.484375 53.578125 
Q 30.03125 56 36.53125 56 
Q 37.453125 56 38.578125 55.875 
Q 39.703125 55.765625 41.0625 55.515625 
z
" id="DejaVuSans-114"/>
      <path d="M 9.421875 54.6875 
L 18.40625 54.6875 
L 18.40625 0 
L 9.421875 0 
z
M 9.421875 75.984375 
L 18.40625 75.984375 
L 18.40625 64.59375 
L 9.421875 64.59375 
z
" id="DejaVuSans-105"/>
      <path d="M 48.78125 52.59375 
L 48.78125 44.1875 
Q 44.96875 46.296875 41.140625 47.34375 
Q 37.3125 48.390625 33.40625 48.390625 
Q 24.65625 48.390625 19.8125 42.84375 
Q 14.984375 37.3125 14.984375 27.296875 
Q 14.984375 17.28125 19.8125 11.734375 
Q 24.65625 6.203125 33.40625 6.203125 
Q 37.3125 6.203125 41.140625 7.25 
Q 44.96875 8.296875 48.78125 10.40625 
L 48.78125 2.09375 
Q 45.015625 0.34375 40.984375 -0.53125 
Q 36.96875 -1.421875 32.421875 -1.421875 
Q 20.0625 -1.421875 12.78125 6.34375 
Q 5.515625 14.109375 5.515625 27.296875 
Q 5.515625 40.671875 12.859375 48.328125 
Q 20.21875 56 33.015625 56 
Q 37.15625 56 41.109375 55.140625 
Q 45.0625 54.296875 48.78125 52.59375 
z
" id="DejaVuSans-99"/>
      <path d="M 56.203125 29.59375 
L 56.203125 25.203125 
L 14.890625 25.203125 
Q 15.484375 15.921875 20.484375 11.0625 
Q 25.484375 6.203125 34.421875 6.203125 
Q 39.59375 6.203125 44.453125 7.46875 
Q 49.3125 8.734375 54.109375 11.28125 
L 54.109375 2.78125 
Q 49.265625 0.734375 44.1875 -0.34375 
Q 39.109375 -1.421875 33.890625 -1.421875 
Q 20.796875 -1.421875 13.15625 6.1875 
Q 5.515625 13.8125 5.515625 26.8125 
Q 5.515625 40.234375 12.765625 48.109375 
Q 20.015625 56 32.328125 56 
Q 43.359375 56 49.78125 48.890625 
Q 56.203125 41.796875 56.203125 29.59375 
z
M 47.21875 32.234375 
Q 47.125 39.59375 43.09375 43.984375 
Q 39.0625 48.390625 32.421875 48.390625 
Q 24.90625 48.390625 20.390625 44.140625 
Q 15.875 39.890625 15.1875 32.171875 
z
" id="DejaVuSans-101"/>
      <path id="DejaVuSans-32"/>
      <path d="M 33.796875 -14.703125 
L 28.90625 -14.703125 
L 28.859375 0 
Q 23.734375 0.09375 18.609375 1.1875 
Q 13.484375 2.296875 8.296875 4.5 
L 8.296875 13.28125 
Q 13.28125 10.15625 18.375 8.5625 
Q 23.484375 6.984375 28.90625 6.9375 
L 28.90625 29.203125 
Q 18.109375 30.953125 13.203125 35.15625 
Q 8.296875 39.359375 8.296875 46.6875 
Q 8.296875 54.640625 13.625 59.21875 
Q 18.953125 63.8125 28.90625 64.5 
L 28.90625 75.984375 
L 33.796875 75.984375 
L 33.796875 64.65625 
Q 38.328125 64.453125 42.578125 63.6875 
Q 46.828125 62.9375 50.875 61.625 
L 50.875 53.078125 
Q 46.828125 55.125 42.546875 56.25 
Q 38.28125 57.375 33.796875 57.5625 
L 33.796875 36.71875 
Q 44.875 35.015625 50.09375 30.609375 
Q 55.328125 26.21875 55.328125 18.609375 
Q 55.328125 10.359375 49.78125 5.59375 
Q 44.234375 0.828125 33.796875 0.09375 
z
M 28.90625 37.59375 
L 28.90625 57.625 
Q 23.25 56.984375 20.265625 54.390625 
Q 17.28125 51.8125 17.28125 47.515625 
Q 17.28125 43.3125 20.03125 40.96875 
Q 22.796875 38.625 28.90625 37.59375 
z
M 33.796875 28.21875 
L 33.796875 7.078125 
Q 39.984375 7.90625 43.140625 10.59375 
Q 46.296875 13.28125 46.296875 17.671875 
Q 46.296875 21.96875 43.28125 24.5 
Q 40.28125 27.046875 33.796875 28.21875 
z
" id="DejaVuSans-36"/>
     </defs>
     <g transform="translate(14.798438 172.342094)rotate(-90)scale(0.1 -0.1)">
      <use xlink:href="#DejaVuSans-80"/>
      <use x="58.552734" xlink:href="#DejaVuSans-114"/>
      <use x="99.666016" xlink:href="#DejaVuSans-105"/>
      <use x="127.449219" xlink:href="#DejaVuSans-99"/>
      <use x="182.429688" xlink:href="#DejaVuSans-101"/>
      <use x="243.953125" xlink:href="#DejaVuSans-32"/>
      <use x="275.740234" xlink:href="#DejaVuSans-36"/>
     </g>
    </g>
   </g>
   <g id="line2d_27">
    <path clip-path="url(#p03b2ab2c94)" d="M 63.198352 234.810073 
L 63.443005 219.434999 
L 63.932311 209.725835 
L 64.176964 210.018654 
L 64.421617 209.513754 
L 64.910923 204.953017 
L 65.400229 206.104101 
L 65.889535 205.974372 
L 66.134188 203.537 
L 66.378841 203.143984 
L 66.623494 203.392457 
L 66.868147 201.65673 
L 67.357453 192.75094 
L 67.602106 195.685844 
L 67.846759 191.412923 
L 68.091412 193.504443 
L 68.336066 193.075669 
L 68.580719 189.214328 
L 69.070025 189.904222 
L 69.314678 192.823334 
L 69.559331 192.332319 
L 69.803984 189.410877 
L 70.048637 190.868485 
L 70.537943 187.751635 
L 70.782596 193.093955 
L 71.027249 193.663589 
L 71.271902 190.966238 
L 71.761208 184.466348 
L 72.005861 181.861764 
L 72.250514 181.236295 
L 72.495167 181.141198 
L 72.73982 182.157174 
L 72.984473 181.682278 
L 73.229126 184.519593 
L 73.473779 189.65772 
L 73.718432 192.13124 
L 73.963085 187.403909 
L 74.207738 191.65429 
L 74.452391 193.905478 
L 74.697044 193.411188 
L 74.941697 190.39856 
L 75.18635 191.72406 
L 75.675656 200.20846 
L 75.920309 200.973714 
L 76.164962 199.532827 
L 76.409615 203.283394 
L 76.654268 202.867903 
L 76.898921 201.434741 
L 77.143574 196.924657 
L 77.388227 198.445158 
L 77.63288 201.996111 
L 77.877533 208.814212 
L 78.122186 201.694101 
L 78.366839 207.892876 
L 78.611492 206.742934 
L 79.345451 213.298871 
L 79.590104 213.000202 
L 79.834757 218.851855 
L 80.07941 216.627819 
L 80.324063 217.21745 
L 80.813369 230.487346 
L 81.058022 228.131724 
L 81.302675 229.320047 
L 81.547328 229.24353 
L 81.791981 231.05553 
L 82.036634 234.40656 
L 82.281287 233.962581 
L 82.52594 222.767092 
L 82.770593 224.005987 
L 83.015246 223.576659 
L 83.259899 220.74355 
L 83.504552 215.239981 
L 83.749205 216.797754 
L 83.993858 217.225322 
L 84.238511 215.313809 
L 84.483164 216.637386 
L 84.727817 216.277486 
L 84.97247 219.513293 
L 85.217123 230.587055 
L 85.461776 228.043831 
L 85.706429 232.376531 
L 85.951082 233.291055 
L 86.195735 230.050668 
L 86.440388 230.688573 
L 86.685041 233.367605 
L 86.929694 239.255113 
L 87.174347 236.840607 
L 87.419 232.444346 
L 87.908306 235.778769 
L 88.152959 236.61099 
L 88.397612 236.405135 
L 88.642265 238.519634 
L 88.886918 237.938935 
L 89.131571 239.607206 
L 89.620877 227.814687 
L 89.86553 229.831678 
L 90.110183 234.335405 
L 90.354836 235.315005 
L 90.599489 234.950949 
L 90.844143 237.358756 
L 91.088796 235.391082 
L 91.333449 236.425719 
L 91.822755 246.600669 
L 92.067408 240.902898 
L 92.556714 242.443689 
L 92.801367 241.134829 
L 93.04602 238.398592 
L 93.290673 257.005659 
L 93.535326 260.253616 
L 94.024632 255.410629 
L 94.269285 255.562327 
L 94.513938 255.940627 
L 94.758591 256.605798 
L 95.003244 259.946871 
L 95.247897 255.541841 
L 95.49255 255.642626 
L 95.981856 250.269112 
L 96.226509 248.704493 
L 96.471162 252.361609 
L 96.960468 252.821691 
L 97.205121 254.702026 
L 97.449774 254.753298 
L 97.694427 258.122126 
L 97.93908 258.948952 
L 98.183733 257.66004 
L 98.428386 259.985284 
L 98.673039 258.146687 
L 99.162345 260.382179 
L 99.651651 266.757368 
L 99.896304 263.700509 
L 100.140957 265.25596 
L 100.38561 263.709334 
L 100.630263 263.453242 
L 100.874916 261.591461 
L 101.119569 264.390411 
L 101.364222 264.404484 
L 101.608875 263.28404 
L 102.098181 256.253036 
L 102.342834 256.558877 
L 102.587487 257.263764 
L 102.83214 257.127679 
L 103.076793 254.380458 
L 103.321446 253.878655 
L 103.566099 254.544771 
L 104.055405 260.11212 
L 104.300058 264.248508 
L 104.544711 264.056416 
L 104.789364 263.498175 
L 105.27867 265.976135 
L 105.523323 265.190167 
L 105.767976 264.979048 
L 106.012629 262.379524 
L 106.257282 262.723281 
L 106.501935 263.99552 
L 106.746588 266.981306 
L 106.991241 265.197379 
L 107.235894 272.078184 
L 107.480547 275.189103 
L 107.7252 275.979479 
L 108.214506 271.377192 
L 108.459159 271.427657 
L 108.703812 270.558694 
L 108.948465 268.014231 
L 109.437771 260.223368 
L 109.682424 261.220104 
L 110.416383 254.698049 
L 110.661036 255.409684 
L 110.905689 253.727071 
L 111.150342 256.012467 
L 111.394995 257.054063 
L 111.639648 256.594748 
L 112.128954 264.258946 
L 112.373607 262.698019 
L 112.61826 263.163886 
L 112.862913 260.186388 
L 113.107566 261.146276 
L 113.35222 260.579658 
L 113.596873 260.422932 
L 113.841526 259.504146 
L 114.086179 260.581931 
L 114.330832 259.523435 
L 114.575485 257.578357 
L 114.820138 258.061858 
L 115.064791 257.731261 
L 115.309444 258.198448 
L 115.554097 259.439836 
L 115.79875 261.429129 
L 116.043403 260.479688 
L 116.288056 261.374777 
L 116.532709 261.711819 
L 116.777362 263.339028 
L 117.022015 262.250634 
L 117.266668 264.003319 
L 117.511321 263.408497 
L 117.755974 263.520812 
L 118.24528 267.883679 
L 118.489933 268.971984 
L 118.734586 272.173713 
L 118.979239 272.233598 
L 119.468545 274.872538 
L 119.713198 274.149536 
L 120.202504 267.608486 
L 120.447157 266.78012 
L 120.936463 268.523849 
L 121.181116 266.384088 
L 121.425769 266.879788 
L 121.670422 264.814206 
L 121.915075 265.106707 
L 122.159728 264.776542 
L 122.404381 263.992204 
L 122.649034 263.977234 
L 122.893687 263.521301 
L 123.13834 265.574114 
L 123.382993 265.158012 
L 123.627646 267.393505 
L 123.872299 260.958821 
L 124.116952 261.627398 
L 124.361605 260.637799 
L 124.850911 257.057062 
L 125.095564 257.260521 
L 125.58487 254.250892 
L 125.829523 252.152446 
L 126.074176 253.42656 
L 126.318829 253.438538 
L 126.563482 254.707812 
L 126.808135 256.648269 
L 127.052788 252.803062 
L 127.297441 246.152224 
L 127.542094 243.370028 
L 127.786747 243.481536 
L 128.276053 240.575332 
L 128.520706 242.585674 
L 128.765359 242.076667 
L 129.010012 241.963513 
L 129.254665 242.512351 
L 129.499318 241.910122 
L 129.743971 246.229801 
L 129.988624 245.505861 
L 130.233277 245.38653 
L 130.47793 246.636263 
L 130.722583 246.222793 
L 130.967236 243.262774 
L 131.211889 244.223485 
L 131.456542 243.274915 
L 131.701195 240.936731 
L 131.945848 244.341235 
L 132.190501 252.209911 
L 132.435154 250.945462 
L 132.679807 253.356089 
L 132.92446 257.533652 
L 133.169113 256.216138 
L 133.658419 251.170646 
L 133.903072 252.514171 
L 134.147725 245.630766 
L 134.392378 246.109475 
L 134.637031 248.182774 
L 134.881684 246.84378 
L 135.126337 247.942613 
L 135.37099 249.636634 
L 135.615643 246.3012 
L 135.860297 245.86726 
L 136.10495 247.625397 
L 136.349603 247.778447 
L 136.594256 246.417973 
L 136.838909 248.445638 
L 137.083562 246.714573 
L 138.55148 241.317329 
L 138.796133 239.98342 
L 139.040786 236.197373 
L 139.285439 236.692266 
L 139.774745 233.024622 
L 140.019398 234.851355 
L 140.264051 233.580761 
L 140.508704 237.674327 
L 140.753357 235.078136 
L 141.242663 236.572609 
L 141.487316 234.598628 
L 141.731969 235.022333 
L 141.976622 236.307904 
L 142.221275 238.849237 
L 142.465928 236.466805 
L 142.710581 236.942125 
L 142.955234 236.560793 
L 143.199887 236.399773 
L 143.44454 234.154371 
L 143.689193 235.090701 
L 143.933846 236.940479 
L 144.178499 236.707635 
L 144.423152 238.087944 
L 144.667805 236.226024 
L 144.912458 236.641809 
L 145.157111 235.417501 
L 145.89107 225.635013 
L 146.135723 227.123554 
L 146.380376 222.437066 
L 146.625029 223.008003 
L 146.869682 221.959416 
L 147.114335 224.447929 
L 147.358988 222.380529 
L 147.603641 222.758536 
L 147.848294 223.967133 
L 148.092947 224.201965 
L 148.3376 226.083279 
L 148.582253 225.13647 
L 148.826906 225.928484 
L 149.071559 227.142704 
L 149.316212 229.033193 
L 149.560865 227.708443 
L 149.805518 221.429108 
L 150.050171 222.085706 
L 150.539477 224.322225 
L 150.78413 225.983619 
L 151.028783 224.032584 
L 151.273436 226.41412 
L 151.518089 229.984957 
L 151.762742 229.20259 
L 152.007395 230.399535 
L 152.252048 229.353653 
L 152.496701 231.430211 
L 152.741354 232.502349 
L 152.986007 231.740159 
L 153.475313 225.216817 
L 153.719966 226.091085 
L 153.964619 230.133346 
L 154.209272 227.633441 
L 154.453925 226.962567 
L 154.698578 225.469984 
L 154.943231 228.530054 
L 155.187884 227.160729 
L 155.432537 240.345927 
L 155.67719 241.992164 
L 155.921843 242.622327 
L 156.411149 242.018696 
L 156.900455 238.755493 
L 157.145108 238.729124 
L 157.879067 231.637386 
L 158.12372 231.632774 
L 158.368374 229.014109 
L 158.613027 229.238315 
L 158.85768 228.561019 
L 159.346986 233.062546 
L 159.591639 234.877414 
L 159.836292 234.214738 
L 160.325598 237.252789 
L 160.570251 234.249142 
L 160.814904 234.679284 
L 161.059557 234.156963 
L 161.30421 233.144458 
L 161.548863 232.792348 
L 161.793516 233.248306 
L 162.038169 233.324058 
L 162.282822 233.185251 
L 162.527475 231.647377 
L 162.772128 231.483423 
L 163.261434 235.039119 
L 163.506087 234.479541 
L 163.75074 233.123597 
L 163.995393 233.135657 
L 164.240046 233.870304 
L 164.484699 232.655612 
L 164.974005 228.982524 
L 165.218658 230.550288 
L 165.463311 231.206559 
L 165.707964 231.433471 
L 165.952617 231.443804 
L 166.19727 229.959288 
L 166.441923 229.690117 
L 166.686576 230.802134 
L 167.175882 235.407054 
L 167.420535 235.444603 
L 167.665188 233.437277 
L 168.154494 236.545946 
L 168.399147 236.004507 
L 168.6438 237.128944 
L 168.888453 236.798364 
L 169.377759 233.163119 
L 169.622412 232.957655 
L 169.867065 235.038858 
L 170.111718 222.038052 
L 170.356371 220.919352 
L 170.601024 213.793389 
L 171.09033 215.25191 
L 171.579636 214.499581 
L 171.824289 211.879823 
L 172.068942 214.000923 
L 172.313595 214.534115 
L 172.558248 215.91035 
L 172.802901 216.626075 
L 173.047554 214.43294 
L 173.53686 214.095449 
L 173.781513 215.61049 
L 174.270819 210.869633 
L 174.515472 210.777421 
L 175.004778 209.994582 
L 175.249431 207.906713 
L 175.494084 204.410258 
L 175.738737 204.947004 
L 175.98339 201.4071 
L 176.228043 202.232785 
L 176.472696 203.479503 
L 176.962002 198.585888 
L 177.206655 197.813414 
L 177.451308 198.363996 
L 177.695961 195.166814 
L 177.940614 194.05672 
L 178.185267 194.863174 
L 178.674573 200.233754 
L 178.919226 198.294894 
L 179.163879 198.57386 
L 179.408532 198.328695 
L 179.653185 199.014172 
L 179.897838 200.999692 
L 180.142491 201.164054 
L 180.387144 202.32485 
L 180.631798 202.149423 
L 180.876451 201.029647 
L 181.365757 196.738652 
L 181.61041 195.476909 
L 181.855063 195.555349 
L 182.099716 194.36476 
L 182.344369 190.227631 
L 182.589022 191.620359 
L 182.833675 191.4478 
L 183.078328 192.242031 
L 183.322981 191.811301 
L 183.567634 189.198862 
L 183.812287 191.667328 
L 184.05694 192.733583 
L 184.301593 196.321336 
L 184.546246 193.467822 
L 184.790899 194.551873 
L 185.035552 192.859302 
L 185.280205 187.654273 
L 185.524858 188.02783 
L 185.769511 186.5918 
L 186.014164 183.7178 
L 186.258817 185.119556 
L 186.50347 185.529294 
L 186.748123 190.954341 
L 186.992776 189.746314 
L 187.482082 191.942742 
L 187.726735 192.309829 
L 187.971388 193.341565 
L 188.216041 192.809823 
L 188.460694 190.197676 
L 188.705347 190.227762 
L 188.95 187.511881 
L 189.194653 186.971175 
L 189.439306 185.917209 
L 189.928612 180.481553 
L 190.417918 180.381502 
L 190.662571 178.783033 
L 190.907224 178.349289 
L 191.151877 179.743076 
L 191.39653 177.04082 
L 191.641183 176.863502 
L 191.885836 176.306955 
L 192.130489 174.595495 
L 192.375142 183.924258 
L 192.619795 185.436903 
L 192.864448 183.729501 
L 193.353754 185.79382 
L 193.598407 179.525829 
L 194.087713 178.075049 
L 194.332366 178.115875 
L 194.577019 179.721596 
L 194.821672 178.156113 
L 195.066325 177.730909 
L 195.310978 179.493706 
L 195.555631 179.266827 
L 195.800284 175.944676 
L 196.044937 177.891326 
L 196.28959 186.037893 
L 196.534243 179.953608 
L 196.778896 181.364948 
L 197.023549 179.962996 
L 197.268202 183.291911 
L 197.512855 181.752342 
L 197.757508 182.362442 
L 198.002161 182.341614 
L 198.246814 184.170237 
L 198.491467 179.846957 
L 198.73612 179.408845 
L 198.980773 179.995835 
L 199.470079 184.14729 
L 199.959385 189.378461 
L 200.204038 186.481041 
L 200.937997 175.290213 
L 201.18265 171.296731 
L 201.427303 170.521682 
L 201.671956 170.717628 
L 201.916609 167.126387 
L 202.161262 165.934951 
L 202.405915 166.736728 
L 202.895221 161.531552 
L 203.139875 163.371714 
L 203.384528 162.708613 
L 203.629181 163.067519 
L 203.873834 162.383264 
L 204.118487 162.776216 
L 204.36314 160.898227 
L 205.097099 151.397965 
L 205.341752 151.831139 
L 205.586405 148.564611 
L 205.831058 150.339452 
L 206.075711 146.730382 
L 206.320364 146.462123 
L 206.565017 141.839211 
L 206.80967 144.150146 
L 207.054323 141.045127 
L 207.298976 141.238205 
L 207.543629 149.480601 
L 207.788282 150.200303 
L 208.032935 147.483037 
L 208.522241 149.526854 
L 208.766894 154.932898 
L 209.011547 151.383835 
L 209.2562 155.85073 
L 209.500853 156.601218 
L 210.234812 166.780552 
L 210.724118 154.61252 
L 210.968771 156.388111 
L 211.213424 153.919937 
L 211.70273 155.828125 
L 211.947383 151.57908 
L 212.192036 151.81991 
L 212.436689 154.796015 
L 212.681342 159.274367 
L 212.925995 161.445174 
L 213.170648 167.929468 
L 213.415301 167.967457 
L 213.659954 164.933187 
L 213.904607 156.263206 
L 214.14926 155.995567 
L 214.393913 161.818145 
L 214.638566 159.607229 
L 214.883219 160.485115 
L 215.127872 166.765803 
L 215.372525 168.458732 
L 215.617178 162.802781 
L 215.861831 161.095314 
L 216.106484 155.067239 
L 216.351137 153.893323 
L 216.59579 153.628422 
L 216.840443 162.069519 
L 217.329749 141.140566 
L 217.574402 145.237701 
L 217.819055 141.735363 
L 218.063708 141.771984 
L 218.308361 139.784883 
L 218.553014 139.014365 
L 218.797667 141.229648 
L 219.04232 139.431551 
L 219.776279 125.241068 
L 220.265585 122.228734 
L 220.510238 120.272044 
L 220.754891 120.883562 
L 220.999544 118.558351 
L 221.244197 111.053307 
L 221.48885 113.109836 
L 221.733503 120.264514 
L 221.978156 116.49312 
L 222.222809 120.690794 
L 222.467462 119.414986 
L 222.712115 118.807183 
L 222.956768 120.577787 
L 223.201421 124.99297 
L 223.446074 124.585415 
L 223.690727 123.441194 
L 224.180033 133.661565 
L 224.424686 129.19718 
L 224.669339 130.882775 
L 224.913992 128.204754 
L 225.403298 120.736526 
L 225.647952 122.779104 
L 225.892605 126.086653 
L 226.137258 123.244856 
L 226.381911 124.374948 
L 226.626564 131.417891 
L 226.871217 129.571959 
L 227.11587 131.654304 
L 227.360523 125.2242 
L 227.605176 129.301175 
L 227.849829 129.688178 
L 228.094482 127.334983 
L 228.339135 123.06467 
L 228.583788 125.946705 
L 228.828441 126.74431 
L 229.073094 124.6295 
L 229.317747 123.525061 
L 229.5624 124.092984 
L 229.807053 125.237515 
L 230.051706 124.193393 
L 230.296359 125.505056 
L 230.541012 128.511018 
L 230.785665 122.479831 
L 231.030318 123.980709 
L 231.519624 118.119816 
L 231.764277 116.862065 
L 232.00893 111.762187 
L 232.742889 127.478582 
L 232.987542 119.539271 
L 233.232195 120.114381 
L 233.476848 126.354292 
L 233.721501 127.898473 
L 233.966154 127.359234 
L 234.210807 122.499795 
L 234.45546 125.207381 
L 234.700113 126.18434 
L 234.944766 125.788081 
L 235.189419 119.63132 
L 235.434072 120.020409 
L 235.678725 117.032668 
L 235.923378 117.238833 
L 236.168031 117.261258 
L 236.657337 111.990028 
L 236.90199 118.305054 
L 237.146643 113.007617 
L 237.391296 113.586866 
L 237.635949 116.865715 
L 237.880602 116.223818 
L 238.125255 117.41954 
L 238.369908 117.114384 
L 239.34852 122.743314 
L 239.593173 119.715481 
L 239.837826 120.314483 
L 240.082479 123.309819 
L 240.327132 123.796546 
L 240.571785 122.367589 
L 240.816438 123.025409 
L 241.061091 121.842578 
L 241.305744 124.513625 
L 241.550397 122.421404 
L 241.79505 123.616621 
L 242.039703 121.395731 
L 242.529009 124.266357 
L 242.773662 128.892789 
L 243.262968 124.577039 
L 243.507621 124.986076 
L 243.996927 126.522727 
L 244.486233 138.250105 
L 244.975539 126.650729 
L 245.220192 126.8419 
L 245.954151 118.240646 
L 246.198804 112.982291 
L 246.443457 115.926745 
L 246.68811 127.656291 
L 246.932763 127.422257 
L 247.177416 128.8636 
L 247.422069 132.663614 
L 247.666722 131.457575 
L 247.911375 132.286569 
L 248.156029 133.627715 
L 248.400682 135.833041 
L 248.889988 149.603225 
L 249.134641 148.287503 
L 249.379294 148.821771 
L 249.623947 148.142601 
L 249.8686 139.489929 
L 250.113253 152.30478 
L 250.357906 148.860038 
L 250.602559 148.870533 
L 250.847212 147.286945 
L 251.091865 144.765201 
L 251.336518 146.191094 
L 251.581171 149.341681 
L 251.825824 154.279576 
L 252.070477 168.591639 
L 252.31513 174.161441 
L 252.559783 173.209075 
L 253.049089 154.078154 
L 253.293742 153.268652 
L 253.538395 154.342795 
L 253.783048 164.942493 
L 254.027701 155.004901 
L 254.272354 159.262144 
L 254.517007 161.547556 
L 254.76166 155.075926 
L 255.006313 159.840985 
L 255.495619 151.177931 
L 255.984925 146.817134 
L 256.229578 146.555329 
L 256.474231 151.899084 
L 256.718884 152.693478 
L 256.963537 148.935626 
L 257.20819 152.933395 
L 257.697496 149.49478 
L 257.942149 150.152405 
L 258.186802 154.926526 
L 258.431455 161.931821 
L 258.676108 159.38431 
L 258.920761 160.897934 
L 259.165414 159.305691 
L 259.65472 157.364647 
L 259.899373 158.461133 
L 260.144026 161.13094 
L 260.388679 155.635895 
L 260.633332 156.731811 
L 260.877985 156.333938 
L 261.122638 159.662771 
L 261.367291 156.162943 
L 261.611944 157.939528 
L 261.856597 156.476753 
L 262.10125 152.150702 
L 262.345903 152.243419 
L 262.590556 148.486285 
L 262.835209 140.800598 
L 263.079862 149.268553 
L 263.324515 150.431746 
L 263.569168 140.220126 
L 263.813821 137.795663 
L 264.058474 140.114632 
L 264.54778 133.367556 
L 264.792433 134.705019 
L 265.037086 136.928956 
L 265.281739 136.516415 
L 265.526392 137.584299 
L 265.771045 145.641653 
L 266.260351 147.767088 
L 266.505004 154.835455 
L 266.749657 151.22539 
L 266.99431 152.125441 
L 267.238963 144.758894 
L 267.483616 141.475644 
L 267.728269 140.375915 
L 267.972922 143.586526 
L 268.217575 141.107107 
L 268.462228 142.902483 
L 268.706881 143.384191 
L 268.951534 142.351461 
L 269.685493 148.962599 
L 269.930146 140.931533 
L 270.174799 142.572049 
L 270.419452 142.668938 
L 270.664106 148.111636 
L 270.908759 146.884655 
L 271.153412 153.151848 
L 271.398065 154.640894 
L 271.642718 158.786677 
L 271.887371 157.148573 
L 272.376677 168.188371 
L 272.62133 165.710419 
L 272.865983 165.871749 
L 273.110636 163.068806 
L 273.355289 164.222465 
L 273.599942 166.76194 
L 273.844595 162.779263 
L 274.089248 165.738239 
L 274.333901 170.061357 
L 274.578554 169.897631 
L 275.312513 188.505122 
L 275.557166 187.763336 
L 276.046472 181.606902 
L 276.291125 186.88118 
L 276.535778 182.543411 
L 276.780431 187.495991 
L 277.025084 188.46353 
L 277.269737 188.228339 
L 277.51439 189.256995 
L 277.759043 178.490931 
L 278.003696 182.787859 
L 278.248349 181.462473 
L 278.493002 195.475686 
L 278.737655 193.889832 
L 278.982308 187.218296 
L 279.226961 189.121399 
L 279.471614 193.177643 
L 279.716267 189.287488 
L 279.96092 188.823023 
L 280.205573 194.228871 
L 280.450226 192.104169 
L 280.694879 192.205117 
L 281.184185 194.888696 
L 281.428838 194.30472 
L 281.918144 185.61572 
L 282.162797 189.603922 
L 282.40745 189.966804 
L 282.652103 188.210461 
L 282.896756 192.888801 
L 283.141409 189.817046 
L 283.386062 188.512032 
L 283.630715 188.188606 
L 283.875368 188.112268 
L 284.120021 188.673036 
L 284.364674 180.471432 
L 284.609327 180.145219 
L 284.85398 178.445722 
L 285.098633 175.208399 
L 285.587939 179.419764 
L 286.077245 179.101244 
L 286.321898 176.784556 
L 286.566551 176.289859 
L 287.055857 168.97429 
L 287.30051 169.372033 
L 287.545163 169.041714 
L 287.789816 169.035048 
L 288.034469 167.269464 
L 288.523775 169.49935 
L 288.768428 170.50576 
L 289.257734 161.279656 
L 289.502387 162.55936 
L 289.991693 157.914316 
L 290.236346 160.757122 
L 290.480999 158.177 
L 290.725652 163.393129 
L 290.970305 163.026889 
L 291.214958 162.28851 
L 291.704264 155.951743 
L 291.948917 155.856483 
L 292.438223 165.478406 
L 292.682876 166.635389 
L 292.92753 166.218529 
L 293.172183 168.670992 
L 293.416836 169.315008 
L 293.906142 172.134199 
L 294.150795 185.568995 
L 294.395448 191.881544 
L 294.640101 194.412268 
L 294.884754 194.812439 
L 295.129407 191.792364 
L 295.863366 196.869441 
L 296.108019 196.784123 
L 296.352672 195.48685 
L 296.597325 197.341191 
L 296.841978 201.863351 
L 297.086631 201.595321 
L 297.331284 194.639 
L 297.575937 195.412403 
L 297.82059 193.081667 
L 298.065243 193.929794 
L 298.554549 189.155689 
L 299.288508 180.712816 
L 299.533161 180.871147 
L 299.777814 181.901921 
L 300.022467 184.882931 
L 300.26712 186.365817 
L 300.511773 185.935903 
L 301.001079 183.655804 
L 301.245732 183.862164 
L 301.490385 182.342233 
L 301.735038 184.104102 
L 301.979691 187.198478 
L 302.224344 186.923293 
L 302.468997 187.62202 
L 302.71365 186.765842 
L 302.958303 191.429172 
L 303.202956 191.927373 
L 303.447609 190.30643 
L 303.692262 191.055321 
L 303.936915 189.910431 
L 304.181568 195.554632 
L 304.426221 198.396803 
L 304.915527 193.581025 
L 305.16018 191.022595 
L 305.404833 190.409512 
L 305.649486 192.301973 
L 306.628098 188.059399 
L 306.872751 187.114138 
L 307.117404 188.303211 
L 307.362057 184.156205 
L 307.60671 184.273841 
L 307.851363 181.960381 
L 308.096016 181.931192 
L 308.340669 181.703025 
L 308.829975 184.434829 
L 309.074628 187.208859 
L 309.319281 188.59616 
L 309.563934 175.323379 
L 309.808587 172.487645 
L 310.05324 172.741318 
L 310.297893 168.688479 
L 310.542546 172.200775 
L 310.787199 169.164027 
L 311.031852 169.084234 
L 311.276505 165.588888 
L 311.521158 163.778485 
L 311.765811 162.8748 
L 312.010464 164.635804 
L 312.255117 164.7081 
L 312.49977 164.169611 
L 312.744423 161.402279 
L 313.478382 162.24832 
L 313.723035 161.633835 
L 313.967688 163.431868 
L 314.212341 162.679392 
L 314.701647 165.367958 
L 314.9463 166.687949 
L 315.190953 166.950275 
L 315.435607 168.674317 
L 315.68026 168.482706 
L 315.924913 167.175117 
L 316.169566 165.077225 
L 316.414219 165.132327 
L 316.658872 163.721216 
L 317.148178 174.649147 
L 317.637484 164.608538 
L 318.12679 148.375999 
L 318.371443 150.003428 
L 318.616096 152.736161 
L 318.860749 152.535407 
L 319.105402 152.56797 
L 319.350055 150.26877 
L 319.594708 154.495389 
L 320.084014 153.59537 
L 320.328667 151.798479 
L 320.57332 155.593244 
L 320.817973 153.666624 
L 321.062626 154.786024 
L 321.307279 153.758118 
L 321.551932 153.635756 
L 321.796585 151.852652 
L 322.041238 151.488775 
L 322.285891 147.256957 
L 322.530544 146.75354 
L 322.775197 144.522644 
L 323.01985 145.298328 
L 323.264503 143.87382 
L 323.753809 144.231764 
L 323.998462 144.973337 
L 324.243115 145.097574 
L 324.487768 146.08234 
L 324.977074 142.608751 
L 325.221727 148.263301 
L 325.711033 152.064064 
L 325.955686 152.483565 
L 326.200339 156.772343 
L 326.444992 156.630049 
L 326.934298 162.40494 
L 327.178951 159.228848 
L 327.423604 157.837945 
L 327.668257 158.213882 
L 327.91291 164.644947 
L 328.157563 163.363418 
L 328.402216 169.000415 
L 328.646869 166.215563 
L 328.891522 160.190341 
L 329.136175 160.275675 
L 329.380828 160.040941 
L 329.625481 156.468034 
L 329.870134 156.35519 
L 330.114787 157.552835 
L 330.35944 156.298246 
L 330.604093 156.797506 
L 330.848746 157.025624 
L 331.338052 161.195951 
L 331.582705 160.313306 
L 331.827358 162.021539 
L 332.316664 157.973199 
L 332.561317 155.673885 
L 332.80597 151.768067 
L 333.050623 153.198426 
L 333.295276 149.057565 
L 333.539929 149.113302 
L 333.784582 147.733531 
L 334.029235 147.419558 
L 334.273888 145.983626 
L 334.518541 145.355223 
L 334.763194 145.138986 
L 335.007847 146.790226 
L 335.2525 146.256969 
L 335.497153 144.694176 
L 335.741806 145.799006 
L 335.986459 145.833802 
L 336.231112 147.741713 
L 336.475765 147.021717 
L 336.720418 147.295289 
L 336.965071 146.057796 
L 337.454377 141.029872 
L 337.69903 140.779525 
L 337.943684 139.379447 
L 338.188337 140.429355 
L 338.43299 140.841065 
L 338.677643 138.779044 
L 338.922296 138.843875 
L 339.166949 139.300974 
L 339.411602 138.813855 
L 339.656255 138.649869 
L 339.900908 138.886347 
L 340.145561 134.821074 
L 340.634867 134.703927 
L 341.124173 135.890865 
L 341.368826 120.108514 
L 341.613479 120.850902 
L 341.858132 119.63308 
L 342.347438 114.1992 
L 342.836744 112.344631 
L 343.081397 112.991743 
L 343.815356 105.853493 
L 344.060009 106.202652 
L 344.304662 105.295658 
L 344.549315 103.175536 
L 344.793968 102.328778 
L 345.038621 103.552402 
L 345.283274 103.202753 
L 345.527927 102.595928 
L 345.77258 102.481976 
L 346.017233 96.572336 
L 346.261886 98.345971 
L 346.506539 96.609266 
L 346.751192 97.419224 
L 346.995845 97.048552 
L 347.485151 98.786593 
L 347.729804 97.813952 
L 347.974457 97.703911 
L 348.21911 98.163666 
L 348.463763 95.069078 
L 348.708416 94.562679 
L 348.953069 96.052019 
L 349.197722 92.902084 
L 349.442375 96.270667 
L 349.687028 92.991721 
L 350.176334 94.623827 
L 350.420987 94.059181 
L 350.66564 87.939823 
L 350.910293 87.291048 
L 351.399599 88.168153 
L 351.644252 88.038652 
L 351.888905 85.786715 
L 352.133558 87.400014 
L 352.622864 88.77426 
L 352.867517 89.147052 
L 353.11217 92.370945 
L 353.356823 92.033715 
L 353.601476 93.561126 
L 353.846129 92.015788 
L 354.335435 94.404364 
L 354.580088 90.718075 
L 354.824741 91.030598 
L 355.314047 86.277468 
L 355.5587 88.090185 
L 355.803353 87.816255 
L 356.048006 88.061175 
L 356.292659 81.957105 
L 356.537312 80.027534 
L 357.026618 82.066592 
L 357.271271 76.864855 
L 357.515924 68.338081 
L 357.760577 66.449711 
L 358.00523 68.005154 
L 358.249883 66.28429 
L 358.494536 61.666463 
L 358.739189 62.668961 
L 358.983842 63.141103 
L 359.228495 74.02477 
L 359.473148 69.155471 
L 359.962454 66.326045 
L 360.207107 66.616338 
L 360.451761 67.511565 
L 360.696414 66.329728 
L 360.941067 66.811485 
L 361.18572 66.707865 
L 361.430373 68.544311 
L 361.675026 67.709646 
L 361.919679 62.990546 
L 362.164332 66.139503 
L 362.408985 65.138406 
L 362.653638 63.070013 
L 362.898291 63.919737 
L 363.387597 83.702773 
L 363.63225 81.441775 
L 364.366209 90.60937 
L 364.610862 82.582379 
L 364.855515 84.911925 
L 365.100168 83.417077 
L 365.344821 83.668777 
L 365.589474 82.381462 
L 365.834127 83.29667 
L 366.07878 87.689101 
L 366.323433 83.380472 
L 366.568086 87.812441 
L 366.812739 87.300045 
L 367.057392 88.286245 
L 367.302045 87.169338 
L 367.546698 89.992799 
L 368.036004 85.115384 
L 368.280657 84.199818 
L 368.52531 83.715746 
L 369.014616 76.712929 
L 369.503922 74.504897 
L 369.748575 72.472391 
L 369.993228 73.937904 
L 370.237881 74.059386 
L 370.482534 70.175733 
L 370.97184 67.421635 
L 371.216493 73.473846 
L 371.705799 77.082395 
L 371.950452 74.468619 
L 372.195105 59.765642 
L 372.439758 63.022945 
L 372.684411 61.341326 
L 372.929064 55.828109 
L 373.41837 51.222114 
L 373.663023 63.284782 
L 374.396982 50.212445 
L 374.641635 51.571633 
L 374.886288 57.884899 
L 375.375594 59.018984 
L 375.620247 53.892802 
L 375.8649 53.407296 
L 376.109553 54.933599 
L 376.354206 53.578323 
L 376.843512 47.185232 
L 377.088165 46.261842 
L 377.332818 44.85399 
L 377.577471 44.671751 
L 377.822124 48.75707 
L 378.066777 49.100199 
L 378.31143 50.402899 
L 378.556083 55.937955 
L 378.800736 50.187543 
L 379.045389 51.303081 
L 379.534695 56.687286 
L 379.779348 53.440478 
L 380.024001 55.833618 
L 380.268654 55.883717 
L 381.002613 69.937821 
L 381.247266 72.804178 
L 381.491919 67.823045 
L 381.736572 65.43512 
L 381.981225 67.460521 
L 382.225878 65.71583 
L 382.470531 66.199673 
L 382.715184 64.901081 
L 382.959838 66.921168 
L 383.204491 63.053487 
L 383.449144 63.167049 
L 383.693797 62.168234 
L 383.93845 61.973869 
L 384.183103 60.640725 
L 384.427756 61.779145 
L 384.672409 59.732264 
L 384.917062 53.655053 
L 385.161715 52.475172 
L 385.406368 53.990913 
L 385.651021 61.731752 
L 385.895674 61.067983 
L 386.140327 61.190345 
L 386.38498 59.483922 
L 386.629633 60.894153 
L 386.874286 58.85503 
L 387.363592 39.308406 
L 387.608245 34.545498 
L 387.852898 38.919904 
L 387.852898 38.919904 
" style="fill:none;stroke:#1f77b4;stroke-linecap:square;stroke-width:1.5;"/>
   </g>
   <g id="line2d_28">
    <path clip-path="url(#p03b2ab2c94)" d="M 63.198352 216.948906 
L 63.443005 213.936922 
L 63.687658 209.130565 
L 63.932311 210.326814 
L 64.176964 210.027751 
L 64.66627 205.520456 
L 65.155576 206.353558 
L 65.644882 205.798157 
L 65.889535 203.256128 
L 66.134188 202.74345 
L 66.378841 202.999789 
L 66.623494 201.312223 
L 67.1128 192.53261 
L 67.357453 195.309616 
L 67.602106 191.400446 
L 67.846759 193.301627 
L 68.091412 193.109373 
L 68.336066 189.30701 
L 68.825372 189.990581 
L 69.070025 192.917118 
L 69.314678 192.511248 
L 69.559331 189.541987 
L 69.803984 190.973214 
L 70.29329 187.854422 
L 70.537943 193.258904 
L 70.782596 193.921113 
L 71.761208 181.958623 
L 72.005861 181.317775 
L 72.250514 181.253691 
L 72.495167 182.300408 
L 72.73982 181.873177 
L 72.984473 184.714268 
L 73.229126 189.969219 
L 73.473779 192.511248 
L 73.718432 187.598083 
L 73.963085 191.934485 
L 74.207738 194.28426 
L 74.452391 193.707497 
L 74.697044 190.610067 
L 74.941697 192.019932 
L 75.431003 200.756822 
L 75.675656 201.461754 
L 75.920309 199.92372 
L 76.164962 203.832891 
L 76.409615 203.341574 
L 76.654268 201.80354 
L 76.898921 197.210798 
L 77.143574 198.791555 
L 77.388227 202.444387 
L 77.63288 209.408265 
L 77.877533 202.017155 
L 78.122186 208.340186 
L 78.366839 207.272106 
L 79.100798 213.830114 
L 79.345451 213.466967 
L 79.590104 219.490936 
L 79.834757 217.098438 
L 80.07941 217.653839 
L 80.568716 231.410702 
L 80.813369 228.569611 
L 81.058022 229.851306 
L 81.302675 229.829945 
L 81.547328 231.667042 
L 81.791981 235.106257 
L 82.036634 234.486771 
L 82.281287 222.866067 
L 82.52594 224.340016 
L 82.770593 224.105039 
L 83.015246 221.114416 
L 83.259899 215.603126 
L 83.504552 217.055714 
L 83.749205 217.611116 
L 83.993858 215.667211 
L 84.238511 216.906183 
L 84.483164 216.628483 
L 84.727817 219.789998 
L 84.97247 231.090279 
L 85.217123 228.505526 
L 85.461776 232.777844 
L 85.706429 233.824562 
L 85.951082 230.2999 
L 86.195735 231.026194 
L 86.440388 233.867285 
L 86.685041 239.933977 
L 86.929694 237.178332 
L 87.174347 232.58559 
L 87.663653 236.302506 
L 87.908306 237.0288 
L 88.152959 236.772461 
L 88.397612 238.951344 
L 88.642265 238.331857 
L 88.886918 239.998061 
L 89.376224 227.971487 
L 89.620877 230.086284 
L 89.86553 234.679026 
L 90.110183 235.640297 
L 90.354836 235.213065 
L 90.599489 237.712371 
L 90.844143 235.747105 
L 91.088796 236.729738 
L 91.578102 247.218279 
L 91.822755 241.066141 
L 92.312061 242.924599 
L 92.556714 241.472011 
L 92.801367 238.652281 
L 93.04602 258.027243 
L 93.290673 261.274204 
L 93.779979 255.656106 
L 94.513938 257.087333 
L 94.758591 260.526549 
L 95.003244 255.784276 
L 95.247897 255.933807 
L 95.737203 250.572048 
L 95.981856 249.055375 
L 96.226509 252.729569 
L 96.715815 253.114077 
L 96.960468 255.079344 
L 97.205121 255.143428 
L 97.449774 258.539921 
L 97.694427 259.394385 
L 97.93908 257.941797 
L 98.183733 260.377018 
L 98.428386 258.497198 
L 98.917692 260.80425 
L 99.406998 267.319534 
L 99.651651 263.944403 
L 99.896304 265.610607 
L 100.140957 264.115296 
L 100.38561 263.77351 
L 100.630263 261.893691 
L 100.874916 264.777505 
L 101.119569 264.798867 
L 101.364222 263.517171 
L 101.853528 256.446485 
L 102.098181 256.809632 
L 102.342834 257.557288 
L 102.587487 257.343672 
L 102.83214 254.545304 
L 103.076793 254.032626 
L 103.321446 254.780281 
L 103.810752 260.419741 
L 104.055405 264.627974 
L 104.300058 264.350273 
L 104.544711 263.688064 
L 105.034017 266.358263 
L 105.27867 265.439714 
L 105.523323 265.204737 
L 105.767976 262.5559 
L 106.012629 262.96177 
L 106.257282 264.350273 
L 106.501935 267.383619 
L 106.746588 265.439714 
L 106.991241 272.595847 
L 107.235894 275.86417 
L 107.480547 276.334125 
L 107.969853 271.570491 
L 108.214506 271.784106 
L 108.459159 270.88692 
L 108.703812 268.195359 
L 109.193118 260.398379 
L 109.437771 261.445097 
L 110.17173 254.908451 
L 110.416383 255.549299 
L 110.661036 253.968541 
L 110.905689 256.126061 
L 111.150342 257.279587 
L 111.394995 256.745548 
L 111.884301 264.649336 
L 112.128954 262.897685 
L 112.373607 263.303555 
L 112.61826 260.334295 
L 112.862913 261.338289 
L 113.107566 260.825611 
L 113.35222 260.590634 
L 113.596873 259.672085 
L 113.841526 260.80425 
L 114.086179 259.73617 
L 114.330832 257.706819 
L 114.575485 258.26222 
L 114.820138 257.963158 
L 115.064791 258.39039 
L 115.309444 259.672085 
L 115.554097 261.701436 
L 115.79875 260.67608 
L 116.043403 261.573267 
L 116.288056 261.979137 
L 116.532709 263.623979 
L 116.777362 262.470453 
L 117.022015 264.264827 
L 117.266668 263.688064 
L 117.511321 263.752149 
L 118.000627 268.302167 
L 118.24528 269.327524 
L 118.489933 272.659932 
L 118.734586 272.63857 
L 119.223892 275.351492 
L 119.468545 274.497028 
L 119.957851 267.810851 
L 120.202504 267.105918 
L 120.69181 268.857569 
L 120.936463 266.614602 
L 121.181116 267.12728 
L 121.425769 265.119291 
L 121.670422 265.354268 
L 121.915075 265.076567 
L 122.159728 264.222104 
L 122.404381 264.200742 
L 122.649034 263.752149 
L 122.893687 265.824223 
L 123.13834 265.418353 
L 123.382993 267.639958 
L 123.627646 261.08195 
L 123.872299 261.701436 
L 124.116952 260.932419 
L 124.606258 257.172779 
L 124.850911 257.407757 
L 125.340217 254.35305 
L 125.58487 252.259614 
L 125.829523 253.541309 
L 126.074176 253.605394 
L 126.318829 254.823004 
L 126.563482 256.830994 
L 126.808135 252.8791 
L 127.052788 246.107476 
L 127.297441 243.394554 
L 127.542094 243.565447 
L 128.0314 240.574824 
L 128.276053 242.604175 
L 128.520706 242.198305 
L 128.765359 242.027412 
L 129.010012 242.625537 
L 129.254665 242.027412 
L 129.499318 246.406538 
L 129.743971 245.701606 
L 129.988624 245.466628 
L 130.233277 246.83377 
L 130.47793 246.406538 
L 130.722583 243.330469 
L 130.967236 244.377187 
L 131.211889 243.48 
L 131.456542 241.044779 
L 131.701195 244.569442 
L 131.945848 252.772292 
L 132.190501 251.255619 
L 132.435154 253.648117 
L 132.679807 258.155412 
L 132.92446 256.553293 
L 133.413766 251.383789 
L 133.658419 252.8791 
L 133.903072 245.787052 
L 134.147725 246.257007 
L 134.392378 248.564059 
L 134.637031 247.132832 
L 134.881684 248.200912 
L 135.126337 250.016647 
L 135.37099 246.598793 
L 135.615643 246.107476 
L 135.860297 247.987296 
L 136.10495 248.115465 
L 136.349603 246.662877 
L 136.594256 248.734951 
L 137.083562 246.086114 
L 138.55148 240.211677 
L 138.796133 236.409314 
L 139.040786 236.857908 
L 139.530092 233.183714 
L 139.774745 234.99945 
L 140.019398 233.8032 
L 140.264051 237.840541 
L 140.508704 235.319873 
L 140.99801 236.815185 
L 141.242663 234.764472 
L 141.487316 235.170342 
L 141.731969 236.537484 
L 141.976622 239.122236 
L 142.221275 236.644292 
L 142.465928 237.114247 
L 142.955234 236.62293 
L 143.199887 234.33724 
L 143.44454 235.298512 
L 143.689193 237.242416 
L 143.933846 236.964716 
L 144.178499 238.353219 
L 144.423152 236.473399 
L 144.667805 236.879269 
L 144.912458 235.68302 
L 145.646417 225.813966 
L 145.89107 227.287916 
L 146.135723 222.695174 
L 146.380376 223.101044 
L 146.625029 222.203857 
L 146.869682 224.617717 
L 147.114335 222.652451 
L 147.358988 222.930151 
L 147.603641 224.211847 
L 147.848294 224.446824 
L 148.092947 226.326644 
L 148.3376 225.386734 
L 148.582253 226.155751 
L 148.826906 227.437447 
L 149.071559 229.35999 
L 149.316212 227.971487 
L 149.560865 221.541648 
L 149.805518 222.267942 
L 150.294824 224.596355 
L 150.539477 226.283921 
L 150.78413 224.297293 
L 151.028783 226.711153 
L 151.273436 230.428069 
L 151.518089 229.530883 
L 151.762742 230.70577 
L 152.007395 229.659052 
L 152.252048 231.77385 
L 152.496701 232.884652 
L 152.741354 232.030189 
L 153.23066 225.429457 
L 153.475313 226.369367 
L 153.719966 230.513516 
L 153.964619 227.950125 
L 154.209272 227.202469 
L 154.453925 225.792604 
L 154.698578 228.868673 
L 154.943231 227.522893 
L 155.187884 240.937971 
L 155.432537 242.689622 
L 155.67719 242.988684 
L 156.166496 242.454644 
L 156.411149 240.2544 
L 156.655802 239.079513 
L 156.900455 239.100875 
L 157.634414 231.944742 
L 157.879067 231.966104 
L 158.12372 229.35999 
L 158.368374 229.509521 
L 158.613027 228.890035 
L 159.102333 233.418692 
L 159.346986 235.213065 
L 159.591639 234.529495 
L 160.080945 237.626925 
L 160.325598 234.486771 
L 160.570251 234.914003 
L 160.814904 234.46541 
L 161.059557 233.39733 
L 161.30421 233.055545 
L 161.548863 233.546861 
L 161.793516 233.632308 
L 162.038169 233.482777 
L 162.282822 231.923381 
L 162.527475 231.752488 
L 163.016781 235.383958 
L 163.261434 234.764472 
L 163.506087 233.354607 
L 163.75074 233.39733 
L 163.995393 234.166348 
L 164.240046 232.906014 
L 164.729352 229.189097 
L 164.974005 230.791216 
L 165.218658 231.496149 
L 165.463311 231.688403 
L 165.707964 231.709765 
L 165.952617 230.214453 
L 166.19727 229.936753 
L 166.441923 231.090279 
L 166.931229 235.768467 
L 167.175882 235.768467 
L 167.420535 233.675031 
L 167.909841 236.943354 
L 168.154494 236.302506 
L 168.399147 237.456032 
L 168.6438 237.135608 
L 169.133106 233.418692 
L 169.377759 233.247799 
L 169.622412 235.383958 
L 169.867065 222.246581 
L 170.111718 220.964885 
L 170.356371 214.214623 
L 170.845677 215.432234 
L 171.334983 214.684578 
L 171.579636 212.121187 
L 171.824289 214.107815 
L 172.068942 214.748663 
L 172.558248 216.820737 
L 172.802901 214.599132 
L 173.047554 214.321431 
L 173.292207 214.278708 
L 173.53686 215.816742 
L 174.026166 211.010385 
L 174.270819 210.967661 
L 174.760125 210.198644 
L 175.004778 208.105208 
L 175.249431 204.580546 
L 175.494084 205.093224 
L 175.738737 201.611285 
L 175.98339 202.337579 
L 176.228043 203.661998 
L 176.717349 198.727471 
L 176.962002 197.958453 
L 177.206655 198.513855 
L 177.451308 195.35234 
L 177.695961 194.177452 
L 177.940614 195.010554 
L 178.42992 200.521844 
L 178.674573 198.556578 
L 178.919226 198.812917 
L 179.163879 198.599301 
L 179.408532 199.282872 
L 179.653185 201.312223 
L 179.897838 201.483116 
L 180.142491 202.658003 
L 180.387144 202.48711 
L 180.631798 201.333585 
L 181.121104 196.997182 
L 181.365757 195.736848 
L 181.61041 195.822295 
L 181.855063 194.647407 
L 182.099716 190.503259 
L 182.344369 191.827677 
L 182.589022 191.742231 
L 182.833675 192.511248 
L 183.078328 192.105378 
L 183.322981 189.477902 
L 183.567634 191.891762 
L 183.812287 193.045288 
L 184.05694 196.655397 
L 184.301593 193.792944 
L 184.546246 194.839661 
L 184.790899 193.173457 
L 185.035552 187.897145 
L 185.280205 188.23893 
L 185.524858 186.871789 
L 185.769511 183.987974 
L 186.014164 185.355116 
L 186.258817 185.846432 
L 186.50347 191.293638 
L 186.748123 190.161473 
L 187.237429 192.318994 
L 187.482082 192.660779 
L 187.726735 193.686136 
L 187.971388 193.130734 
L 188.216041 190.460536 
L 188.460694 190.503259 
L 188.705347 187.790337 
L 188.95 187.234936 
L 189.194653 186.209579 
L 189.683959 180.762374 
L 190.173265 180.655566 
L 190.417918 179.074808 
L 190.662571 178.604853 
L 190.907224 179.993357 
L 191.151877 177.34452 
L 191.39653 177.088181 
L 191.641183 176.554141 
L 191.885836 174.845214 
L 192.130489 184.158867 
L 192.375142 185.910517 
L 192.619795 184.094782 
L 193.109101 186.188218 
L 193.353754 179.758379 
L 193.84306 178.348514 
L 194.087713 178.412599 
L 194.332366 180.057442 
L 194.577019 178.519407 
L 194.821672 178.070814 
L 195.066325 179.843826 
L 195.310978 179.63021 
L 195.555631 176.255079 
L 195.800284 178.15626 
L 196.044937 186.444557 
L 196.28959 180.292419 
L 196.534243 181.659561 
L 196.778896 180.292419 
L 197.023549 183.646189 
L 197.268202 182.108154 
L 197.512855 182.706279 
L 197.757508 182.706279 
L 198.002161 184.564737 
L 198.246814 180.185611 
L 198.491467 179.715656 
L 198.73612 180.335142 
L 199.225426 184.564737 
L 199.714732 189.883773 
L 199.959385 186.871789 
L 200.693344 175.507423 
L 200.937997 171.576891 
L 201.18265 170.743789 
L 201.427303 170.978766 
L 201.671956 167.496827 
L 201.916609 166.215132 
L 202.161262 166.984149 
L 202.650568 161.814644 
L 202.895221 163.523571 
L 203.139875 162.96817 
L 203.384528 163.309955 
L 203.629181 162.647746 
L 203.873834 163.032255 
L 204.118487 161.173797 
L 204.852446 151.603804 
L 205.097099 152.009675 
L 205.341752 148.848159 
L 205.586405 150.557087 
L 205.831058 147.053786 
L 206.075711 146.712 
L 206.320364 142.119259 
L 206.565017 144.298141 
L 206.80967 141.307518 
L 207.054323 141.45705 
L 207.298976 149.702623 
L 207.543629 150.642533 
L 207.788282 147.865526 
L 208.277588 149.852154 
L 208.522241 155.406167 
L 208.766894 151.731974 
L 209.011547 156.367439 
L 209.2562 157.072371 
L 209.990159 167.475465 
L 210.479465 154.872128 
L 210.724118 156.730586 
L 210.968771 154.252642 
L 211.458077 156.239269 
L 211.70273 152.009675 
L 211.947383 152.180567 
L 212.192036 155.149828 
L 212.436689 159.721208 
L 212.681342 161.964175 
L 212.925995 168.543545 
L 213.170648 168.522183 
L 213.415301 165.339306 
L 213.659954 156.495608 
L 213.904607 156.239269 
L 214.14926 162.135068 
L 214.393913 160.062994 
L 214.638566 160.960181 
L 214.883219 167.325934 
L 215.127872 169.098946 
L 215.372525 163.267232 
L 215.617178 161.49422 
L 215.861831 155.406167 
L 216.106484 154.167195 
L 216.351137 153.910856 
L 216.59579 162.370046 
L 217.085096 141.521134 
L 217.329749 145.238051 
L 217.574402 142.097897 
L 217.819055 142.055174 
L 218.063708 140.111269 
L 218.308361 139.299529 
L 218.553014 141.45705 
L 218.797667 139.769484 
L 219.531626 125.371773 
L 220.020932 122.445235 
L 220.265585 120.544053 
L 220.510238 121.120816 
L 220.754891 118.87785 
L 220.999544 111.401293 
L 221.244197 113.174305 
L 221.48885 120.394522 
L 221.733503 116.933945 
L 221.978156 121.099455 
L 222.222809 119.753675 
L 222.467462 119.176912 
L 222.712115 120.928562 
L 222.956768 125.478581 
L 223.201421 125.07271 
L 223.446074 123.919185 
L 223.93538 134.386363 
L 224.180033 129.665452 
L 224.424686 131.502549 
L 224.669339 128.597373 
L 225.158645 121.078093 
L 225.403298 123.150167 
L 225.647952 126.568022 
L 225.892605 123.769653 
L 226.137258 124.880456 
L 226.381911 131.951142 
L 226.626564 130.114046 
L 226.871217 132.228843 
L 227.11587 125.564027 
L 227.360523 129.708175 
L 227.605176 130.092684 
L 227.849829 127.806994 
L 228.094482 123.470591 
L 228.339135 126.333044 
L 228.583788 127.208869 
L 229.073094 124.004631 
L 229.317747 124.538671 
L 229.5624 125.713558 
L 229.807053 124.688202 
L 230.051706 125.991259 
L 230.296359 129.024604 
L 230.541012 122.936551 
L 230.785665 124.410501 
L 231.274971 118.514702 
L 231.519624 117.211646 
L 231.764277 112.148949 
L 232.253583 120.714946 
L 232.498236 128.170141 
L 232.742889 120.052737 
L 232.987542 120.586777 
L 233.232195 126.781638 
L 233.476848 128.469203 
L 233.721501 127.935163 
L 233.966154 122.893828 
L 234.210807 125.670835 
L 234.45546 126.653468 
L 234.700113 126.333044 
L 234.944766 120.052737 
L 235.189419 120.437246 
L 235.434072 117.4039 
L 235.678725 117.660239 
L 235.923378 117.6816 
L 236.412684 112.383926 
L 236.657337 118.62151 
L 236.90199 113.452006 
L 237.146643 114.007407 
L 237.391296 117.211646 
L 237.635949 116.677606 
L 237.880602 117.895216 
L 238.125255 117.553431 
L 239.103867 123.32106 
L 239.34852 120.202268 
L 239.593173 120.821754 
L 239.837826 123.8551 
L 240.082479 124.38914 
L 240.327132 122.936551 
L 240.571785 123.577399 
L 240.816438 122.338427 
L 241.061091 125.07271 
L 241.305744 122.91519 
L 241.550397 124.154162 
L 241.79505 121.84711 
L 242.284356 124.752287 
L 242.529009 129.494559 
L 243.018315 125.07271 
L 243.262968 125.414496 
L 243.752274 127.016615 
L 244.24158 139.021828 
L 244.730886 127.0807 
L 244.975539 127.187508 
L 245.709498 118.62151 
L 245.954151 113.387921 
L 246.198804 116.207651 
L 246.443457 128.02061 
L 246.68811 128.148779 
L 246.932763 129.558644 
L 247.177416 133.254199 
L 247.422069 131.951142 
L 247.666722 132.784244 
L 247.911375 134.108663 
L 248.156029 136.394353 
L 248.645335 150.621171 
L 248.889988 148.997691 
L 249.134641 149.574453 
L 249.379294 148.741351 
L 249.623947 139.769484 
L 249.8686 153.077754 
L 250.113253 149.339476 
L 250.357906 149.53173 
L 250.602559 147.801442 
L 250.847212 145.238051 
L 251.091865 146.647916 
L 251.336518 149.830793 
L 251.581171 154.872128 
L 251.825824 169.590263 
L 252.070477 175.229722 
L 252.31513 173.905304 
L 252.559783 161.195158 
L 252.804436 154.295365 
L 253.049089 153.504986 
L 253.293742 154.63715 
L 253.538395 165.403391 
L 253.783048 155.534337 
L 254.272354 162.092345 
L 254.517007 155.598422 
L 254.76166 160.212525 
L 255.250966 151.53972 
L 255.740272 147.117871 
L 255.984925 146.84017 
L 256.229578 152.159206 
L 256.474231 153.1632 
L 256.718884 149.403561 
L 256.963537 153.270008 
L 257.452843 149.852154 
L 257.697496 150.47164 
L 257.942149 155.320721 
L 258.186802 162.540938 
L 258.431455 159.892101 
L 258.676108 161.430136 
L 258.920761 159.721208 
L 259.410067 157.734581 
L 259.65472 158.866745 
L 259.899373 161.601028 
L 260.144026 156.004292 
L 260.388679 157.115095 
L 260.633332 156.709224 
L 260.877985 160.084355 
L 261.122638 156.559693 
L 261.367291 158.311344 
L 261.611944 156.837394 
L 261.856597 152.47963 
L 262.10125 152.500991 
L 262.345903 148.784075 
L 262.590556 141.136626 
L 262.835209 149.25403 
L 263.079862 150.813426 
L 263.324515 140.730755 
L 263.569168 138.039195 
L 263.813821 140.239439 
L 264.303127 133.681431 
L 264.54778 134.899042 
L 264.792433 137.206093 
L 265.037086 136.907031 
L 265.281739 137.953749 
L 265.526392 146.071153 
L 266.015698 148.31412 
L 266.260351 155.534337 
L 266.505004 151.625166 
L 266.749657 152.650522 
L 266.99431 144.96035 
L 267.238963 141.777473 
L 267.483616 140.666671 
L 267.728269 143.977717 
L 267.972922 141.563857 
L 268.217575 143.379593 
L 268.462228 143.849548 
L 268.706881 142.80283 
L 269.44084 149.424922 
L 269.685493 141.243434 
L 269.930146 142.845553 
L 270.174799 142.952361 
L 270.419452 148.527736 
L 270.664106 147.352848 
L 270.908759 153.739963 
L 271.153412 155.235275 
L 271.398065 159.486231 
L 271.642718 157.670496 
L 272.132024 169.0135 
L 272.376677 166.236493 
L 272.62133 166.450109 
L 272.865983 163.50221 
L 273.110636 164.741182 
L 273.355289 167.325934 
L 273.599942 163.224509 
L 274.089248 170.658342 
L 274.333901 170.466088 
L 275.06786 189.477902 
L 275.312513 188.388461 
L 275.801819 181.979985 
L 276.046472 187.469913 
L 276.291125 182.919895 
L 276.535778 188.025314 
L 276.780431 189.029309 
L 277.025084 188.751608 
L 277.269737 189.798326 
L 277.51439 178.861193 
L 277.759043 183.090787 
L 278.003696 181.9159 
L 278.248349 195.950464 
L 278.493002 194.519238 
L 278.737655 187.576721 
L 278.982308 189.520626 
L 279.226961 193.686136 
L 279.471614 189.691518 
L 279.716267 189.157479 
L 279.96092 194.668769 
L 280.205573 192.553971 
L 280.450226 192.596695 
L 280.939532 195.35234 
L 281.184185 194.732853 
L 281.673491 185.910517 
L 281.918144 189.883773 
L 282.162797 190.353728 
L 282.40745 188.559354 
L 282.652103 193.237542 
L 282.896756 190.225558 
L 283.141409 188.815693 
L 283.386062 188.495269 
L 283.630715 188.409823 
L 283.875368 188.965224 
L 284.120021 180.762374 
L 284.364674 180.292419 
L 284.609327 178.6903 
L 284.85398 175.4647 
L 285.343286 179.694295 
L 285.832592 179.395232 
L 286.077245 177.066819 
L 286.321898 176.511418 
L 286.811204 169.141669 
L 287.055857 169.504816 
L 287.30051 169.248477 
L 287.545163 169.269839 
L 287.789816 167.53955 
L 288.523775 170.807873 
L 289.013081 161.472859 
L 289.257734 162.690469 
L 289.74704 158.140451 
L 289.991693 160.938819 
L 290.236346 158.482236 
L 290.480999 163.651741 
L 290.725652 163.395402 
L 290.970305 162.626385 
L 291.459611 156.175185 
L 291.704264 156.047015 
L 292.19357 165.916069 
L 292.438223 167.13368 
L 292.682876 166.663725 
L 292.92753 169.141669 
L 293.172183 169.761155 
L 293.661489 172.602247 
L 293.906142 186.551365 
L 294.150795 192.93848 
L 294.395448 195.266893 
L 294.640101 195.480509 
L 294.884754 192.190824 
L 295.37406 196.334973 
L 295.618713 197.445775 
L 295.863366 197.296244 
L 296.108019 195.950464 
L 296.352672 197.894369 
L 296.597325 202.529834 
L 296.841978 202.145325 
L 297.086631 194.967831 
L 297.331284 195.800933 
L 297.575937 193.515243 
L 297.82059 194.28426 
L 298.309896 189.520626 
L 299.043855 181.018713 
L 299.288508 181.146883 
L 299.533161 182.1936 
L 299.777814 185.184223 
L 300.022467 186.764981 
L 300.26712 186.337749 
L 300.756426 183.966612 
L 301.001079 184.158867 
L 301.245732 182.642194 
L 301.490385 184.393844 
L 301.735038 187.576721 
L 301.979691 187.320382 
L 302.224344 188.003953 
L 302.468997 187.128128 
L 302.71365 191.8704 
L 302.958303 192.361717 
L 303.202956 190.631428 
L 303.447609 191.400446 
L 303.692262 190.225558 
L 303.936915 195.993187 
L 304.181568 198.898363 
L 304.426221 195.587317 
L 304.670874 193.857028 
L 304.915527 191.293638 
L 305.16018 190.674151 
L 305.404833 192.596695 
L 306.383445 188.345738 
L 306.628098 187.405828 
L 306.872751 188.580716 
L 307.117404 184.479291 
L 307.362057 184.500652 
L 307.60671 182.257685 
L 308.096016 181.979985 
L 308.585322 184.756991 
L 308.829975 187.576721 
L 309.074628 189.007948 
L 309.319281 175.592869 
L 309.563934 172.623608 
L 309.808587 172.901309 
L 310.05324 168.970777 
L 310.297893 172.324546 
L 310.542546 169.526178 
L 310.787199 169.355285 
L 311.276505 164.014888 
L 311.521158 163.074978 
L 311.765811 164.805267 
L 312.010464 164.954798 
L 312.255117 164.420758 
L 312.49977 161.643751 
L 312.989076 162.199153 
L 313.233729 162.498215 
L 313.478382 161.900091 
L 313.723035 163.715826 
L 313.967688 162.989532 
L 314.456994 165.723815 
L 314.701647 167.069595 
L 314.9463 167.325934 
L 315.190953 169.077585 
L 315.435607 168.863969 
L 315.68026 167.518189 
L 315.924913 165.38203 
L 316.169566 165.446114 
L 316.414219 164.03625 
L 316.903525 175.208361 
L 317.392831 164.912075 
L 317.882137 148.634544 
L 318.12679 150.023047 
L 318.371443 152.8855 
L 318.860749 152.949585 
L 319.105402 150.663895 
L 319.350055 154.743958 
L 319.839361 153.932218 
L 320.084014 152.095121 
L 320.328667 155.876122 
L 320.57332 154.017664 
L 320.817973 155.149828 
L 321.062626 154.124472 
L 321.307279 154.017664 
L 321.551932 152.223291 
L 321.796585 151.860144 
L 322.041238 147.609187 
L 322.285891 147.075148 
L 322.530544 144.853542 
L 322.775197 145.622559 
L 323.01985 144.234056 
L 323.509156 144.575842 
L 323.753809 145.323497 
L 323.998462 145.451667 
L 324.243115 146.4343 
L 324.732421 142.909638 
L 324.977074 148.59182 
L 325.46638 152.586438 
L 325.711033 152.970946 
L 325.955686 157.350072 
L 326.200339 157.136456 
L 326.689645 163.010893 
L 326.934298 159.657124 
L 327.178951 158.26862 
L 327.423604 158.653129 
L 327.668257 165.25386 
L 327.91291 163.886718 
L 328.157563 169.697071 
L 328.402216 166.706448 
L 328.646869 160.55431 
L 328.891522 160.639757 
L 329.136175 160.404779 
L 329.380828 156.837394 
L 329.625481 156.687863 
L 329.870134 157.905473 
L 330.114787 156.709224 
L 330.604093 157.414157 
L 331.093399 161.62239 
L 331.338052 160.746565 
L 331.582705 162.43413 
L 332.072011 158.332705 
L 332.316664 156.004292 
L 332.561317 152.095121 
L 332.80597 153.483624 
L 333.050623 149.446284 
L 333.295276 149.446284 
L 333.539929 148.100504 
L 333.784582 147.78008 
L 334.029235 146.348853 
L 334.273888 145.686644 
L 334.518541 145.451667 
L 334.763194 147.096509 
L 335.007847 146.605193 
L 335.2525 145.024435 
L 335.497153 146.092514 
L 335.741806 146.156599 
L 335.986459 148.100504 
L 336.231112 147.395571 
L 336.475765 147.673272 
L 336.720418 146.412938 
L 337.209724 141.32888 
L 337.454377 141.072541 
L 337.69903 139.705399 
L 337.943684 140.773479 
L 338.188337 141.222072 
L 338.43299 139.171359 
L 338.677643 139.192721 
L 338.922296 139.641314 
L 339.166949 139.171359 
L 339.411602 139.000467 
L 339.656255 139.235444 
L 339.900908 135.155381 
L 340.390214 135.00585 
L 340.87952 136.287545 
L 341.124173 120.479969 
L 341.368826 120.949924 
L 341.613479 119.775036 
L 342.102785 114.541447 
L 342.592091 112.640265 
L 342.836744 113.281113 
L 343.081397 110.781807 
L 343.32605 107.086252 
L 343.570703 106.039534 
L 343.815356 106.402681 
L 344.060009 105.590941 
L 344.304662 103.497505 
L 344.549315 102.62168 
L 344.793968 103.860652 
L 345.038621 103.582951 
L 345.283274 103.006189 
L 345.527927 102.878019 
L 345.77258 96.896774 
L 346.017233 98.669786 
L 346.261886 96.918136 
L 346.506539 97.858046 
L 346.751192 97.473537 
L 347.240498 99.26791 
L 347.485151 98.285277 
L 347.729804 98.157108 
L 347.974457 98.605701 
L 348.21911 95.465548 
L 348.463763 94.974231 
L 348.708416 96.469542 
L 348.953069 93.329389 
L 349.197722 96.789966 
L 349.442375 93.414835 
L 349.931681 95.081039 
L 350.176334 94.568361 
L 350.420987 88.330777 
L 350.66564 87.647206 
L 351.154946 88.629839 
L 351.399599 88.544393 
L 351.644252 86.258702 
L 351.888905 87.860822 
L 352.378211 89.31341 
L 352.622864 89.676557 
L 352.867517 92.966242 
L 353.11217 92.603095 
L 353.356823 94.205214 
L 353.601476 92.53901 
L 354.090782 94.995593 
L 354.335435 91.235953 
L 354.580088 91.5991 
L 355.069394 86.771381 
L 355.314047 88.587116 
L 355.5587 88.352138 
L 355.803353 88.6512 
L 356.048006 82.392255 
L 356.292659 80.405627 
L 356.781965 82.499063 
L 357.026618 77.308197 
L 357.271271 68.656753 
L 357.515924 66.563317 
L 357.760577 68.122713 
L 358.00523 66.648763 
L 358.249883 62.056022 
L 358.739189 63.401802 
L 358.983842 74.552551 
L 359.228495 69.660748 
L 359.473148 68.549945 
L 359.717801 66.563317 
L 359.962454 66.969187 
L 360.207107 67.95182 
L 360.451761 66.819656 
L 360.696414 67.375057 
L 360.941067 67.246888 
L 361.18572 69.190793 
L 361.430373 68.293606 
L 361.675026 63.444525 
L 361.919679 66.691487 
L 362.164332 65.580684 
L 362.408985 63.615418 
L 362.653638 64.427158 
L 363.142944 84.870199 
L 363.387597 82.370893 
L 364.121556 91.5991 
L 364.366209 82.904933 
L 364.610862 85.746024 
L 364.855515 83.908928 
L 365.100168 84.421606 
L 365.344821 83.033102 
L 365.589474 84.015736 
L 365.834127 88.480308 
L 366.07878 83.994374 
L 366.323433 88.587116 
L 366.568086 87.860822 
L 366.812739 88.971624 
L 367.057392 87.711291 
L 367.302045 90.616467 
L 367.791351 85.639216 
L 368.036004 84.635222 
L 368.280657 84.186628 
L 368.769963 77.137304 
L 369.259269 74.915699 
L 369.503922 72.907709 
L 369.748575 74.360297 
L 369.993228 74.509828 
L 370.237881 70.622019 
L 370.727187 67.695481 
L 370.97184 73.890342 
L 371.461146 77.799513 
L 371.705799 74.979783 
L 371.950452 59.834416 
L 372.195105 63.188186 
L 372.439758 61.436536 
L 372.684411 56.267031 
L 373.173717 51.460673 
L 373.41837 63.722226 
L 374.152329 50.307148 
L 374.396982 51.695651 
L 374.641635 58.296382 
L 375.130941 59.684885 
L 375.375594 54.194957 
L 375.620247 53.767725 
L 375.8649 55.284398 
L 376.109553 54.024064 
L 376.598859 47.508779 
L 376.843512 46.568869 
L 377.088165 45.180366 
L 377.332818 45.073558 
L 377.577471 49.281791 
L 377.822124 49.644938 
L 378.066777 51.033442 
L 378.31143 56.65154 
L 378.556083 50.520763 
L 378.800736 51.887905 
L 379.290042 57.399195 
L 379.534695 53.981341 
L 379.779348 56.566093 
L 380.024001 56.437924 
L 380.75796 71.049251 
L 381.002613 73.911704 
L 381.247266 68.379052 
L 381.491919 66.050639 
L 381.736572 68.07999 
L 381.981225 66.285616 
L 382.225878 66.947826 
L 382.470531 65.516599 
L 382.715184 67.652758 
L 382.959838 63.572695 
L 383.204491 63.764949 
L 383.449144 62.611423 
L 383.693797 62.483253 
L 383.93845 61.09475 
L 384.183103 62.269638 
L 384.427756 60.15484 
L 384.672409 53.981341 
L 384.917062 52.721007 
L 385.161715 54.23768 
L 385.406368 62.312361 
L 385.651021 61.735598 
L 385.895674 61.906491 
L 386.140327 59.919863 
L 386.38498 61.393812 
L 386.629633 59.257653 
L 387.118939 39.370014 
L 387.363592 34.414125 
L 387.608245 39.006867 
L 387.852898 36.400753 
L 387.852898 36.400753 
" style="fill:none;stroke:#ff7f0e;stroke-linecap:square;stroke-width:1.5;"/>
   </g>
   <g id="patch_3">
    <path d="M 46.965625 288.430125 
L 46.965625 22.318125 
" style="fill:none;stroke:#000000;stroke-linecap:square;stroke-linejoin:miter;stroke-width:0.8;"/>
   </g>
   <g id="patch_4">
    <path d="M 404.085625 288.430125 
L 404.085625 22.318125 
" style="fill:none;stroke:#000000;stroke-linecap:square;stroke-linejoin:miter;stroke-width:0.8;"/>
   </g>
   <g id="patch_5">
    <path d="M 46.965625 288.430125 
L 404.085625 288.430125 
" style="fill:none;stroke:#000000;stroke-linecap:square;stroke-linejoin:miter;stroke-width:0.8;"/>
   </g>
   <g id="patch_6">
    <path d="M 46.965625 22.318125 
L 404.085625 22.318125 
" style="fill:none;stroke:#000000;stroke-linecap:square;stroke-linejoin:miter;stroke-width:0.8;"/>
   </g>
   <g id="text_16">
    <!-- Training: AAPL -->
    <defs>
     <path d="M -0.296875 72.90625 
L 61.375 72.90625 
L 61.375 64.59375 
L 35.5 64.59375 
L 35.5 0 
L 25.59375 0 
L 25.59375 64.59375 
L -0.296875 64.59375 
z
" id="DejaVuSans-84"/>
     <path d="M 54.890625 33.015625 
L 54.890625 0 
L 45.90625 0 
L 45.90625 32.71875 
Q 45.90625 40.484375 42.875 44.328125 
Q 39.84375 48.1875 33.796875 48.1875 
Q 26.515625 48.1875 22.3125 43.546875 
Q 18.109375 38.921875 18.109375 30.90625 
L 18.109375 0 
L 9.078125 0 
L 9.078125 54.6875 
L 18.109375 54.6875 
L 18.109375 46.1875 
Q 21.34375 51.125 25.703125 53.5625 
Q 30.078125 56 35.796875 56 
Q 45.21875 56 50.046875 50.171875 
Q 54.890625 44.34375 54.890625 33.015625 
z
" id="DejaVuSans-110"/>
     <path d="M 45.40625 27.984375 
Q 45.40625 37.75 41.375 43.109375 
Q 37.359375 48.484375 30.078125 48.484375 
Q 22.859375 48.484375 18.828125 43.109375 
Q 14.796875 37.75 14.796875 27.984375 
Q 14.796875 18.265625 18.828125 12.890625 
Q 22.859375 7.515625 30.078125 7.515625 
Q 37.359375 7.515625 41.375 12.890625 
Q 45.40625 18.265625 45.40625 27.984375 
z
M 54.390625 6.78125 
Q 54.390625 -7.171875 48.1875 -13.984375 
Q 42 -20.796875 29.203125 -20.796875 
Q 24.46875 -20.796875 20.265625 -20.09375 
Q 16.0625 -19.390625 12.109375 -17.921875 
L 12.109375 -9.1875 
Q 16.0625 -11.328125 19.921875 -12.34375 
Q 23.78125 -13.375 27.78125 -13.375 
Q 36.625 -13.375 41.015625 -8.765625 
Q 45.40625 -4.15625 45.40625 5.171875 
L 45.40625 9.625 
Q 42.625 4.78125 38.28125 2.390625 
Q 33.9375 0 27.875 0 
Q 17.828125 0 11.671875 7.65625 
Q 5.515625 15.328125 5.515625 27.984375 
Q 5.515625 40.671875 11.671875 48.328125 
Q 17.828125 56 27.875 56 
Q 33.9375 56 38.28125 53.609375 
Q 42.625 51.21875 45.40625 46.390625 
L 45.40625 54.6875 
L 54.390625 54.6875 
z
" id="DejaVuSans-103"/>
     <path d="M 11.71875 12.40625 
L 22.015625 12.40625 
L 22.015625 0 
L 11.71875 0 
z
M 11.71875 51.703125 
L 22.015625 51.703125 
L 22.015625 39.3125 
L 11.71875 39.3125 
z
" id="DejaVuSans-58"/>
     <path d="M 34.1875 63.1875 
L 20.796875 26.90625 
L 47.609375 26.90625 
z
M 28.609375 72.90625 
L 39.796875 72.90625 
L 67.578125 0 
L 57.328125 0 
L 50.6875 18.703125 
L 17.828125 18.703125 
L 11.1875 0 
L 0.78125 0 
z
" id="DejaVuSans-65"/>
     <path d="M 9.8125 72.90625 
L 19.671875 72.90625 
L 19.671875 8.296875 
L 55.171875 8.296875 
L 55.171875 0 
L 9.8125 0 
z
" id="DejaVuSans-76"/>
    </defs>
    <g transform="translate(182.591875 16.318125)scale(0.12 -0.12)">
     <use xlink:href="#DejaVuSans-84"/>
     <use x="46.333984" xlink:href="#DejaVuSans-114"/>
     <use x="87.447266" xlink:href="#DejaVuSans-97"/>
     <use x="148.726562" xlink:href="#DejaVuSans-105"/>
     <use x="176.509766" xlink:href="#DejaVuSans-110"/>
     <use x="239.888672" xlink:href="#DejaVuSans-105"/>
     <use x="267.671875" xlink:href="#DejaVuSans-110"/>
     <use x="331.050781" xlink:href="#DejaVuSans-103"/>
     <use x="394.527344" xlink:href="#DejaVuSans-58"/>
     <use x="428.21875" xlink:href="#DejaVuSans-32"/>
     <use x="460.005859" xlink:href="#DejaVuSans-65"/>
     <use x="531.164062" xlink:href="#DejaVuSans-65"/>
     <use x="599.572266" xlink:href="#DejaVuSans-80"/>
     <use x="659.875" xlink:href="#DejaVuSans-76"/>
    </g>
   </g>
   <g id="legend_1">
    <g id="patch_7">
     <path d="M 53.965625 59.674375 
L 137.69375 59.674375 
Q 139.69375 59.674375 139.69375 57.674375 
L 139.69375 29.318125 
Q 139.69375 27.318125 137.69375 27.318125 
L 53.965625 27.318125 
Q 51.965625 27.318125 51.965625 29.318125 
L 51.965625 57.674375 
Q 51.965625 59.674375 53.965625 59.674375 
z
" style="fill:#ffffff;opacity:0.8;stroke:#cccccc;stroke-linejoin:miter;"/>
    </g>
    <g id="line2d_29">
     <path d="M 55.965625 35.416562 
L 75.965625 35.416562 
" style="fill:none;stroke:#1f77b4;stroke-linecap:square;stroke-width:1.5;"/>
    </g>
    <g id="line2d_30"/>
    <g id="text_17">
     <!-- Predicted -->
     <defs>
      <path d="M 45.40625 46.390625 
L 45.40625 75.984375 
L 54.390625 75.984375 
L 54.390625 0 
L 45.40625 0 
L 45.40625 8.203125 
Q 42.578125 3.328125 38.25 0.953125 
Q 33.9375 -1.421875 27.875 -1.421875 
Q 17.96875 -1.421875 11.734375 6.484375 
Q 5.515625 14.40625 5.515625 27.296875 
Q 5.515625 40.1875 11.734375 48.09375 
Q 17.96875 56 27.875 56 
Q 33.9375 56 38.25 53.625 
Q 42.578125 51.265625 45.40625 46.390625 
z
M 14.796875 27.296875 
Q 14.796875 17.390625 18.875 11.75 
Q 22.953125 6.109375 30.078125 6.109375 
Q 37.203125 6.109375 41.296875 11.75 
Q 45.40625 17.390625 45.40625 27.296875 
Q 45.40625 37.203125 41.296875 42.84375 
Q 37.203125 48.484375 30.078125 48.484375 
Q 22.953125 48.484375 18.875 42.84375 
Q 14.796875 37.203125 14.796875 27.296875 
z
" id="DejaVuSans-100"/>
      <path d="M 18.3125 70.21875 
L 18.3125 54.6875 
L 36.8125 54.6875 
L 36.8125 47.703125 
L 18.3125 47.703125 
L 18.3125 18.015625 
Q 18.3125 11.328125 20.140625 9.421875 
Q 21.96875 7.515625 27.59375 7.515625 
L 36.8125 7.515625 
L 36.8125 0 
L 27.59375 0 
Q 17.1875 0 13.234375 3.875 
Q 9.28125 7.765625 9.28125 18.015625 
L 9.28125 47.703125 
L 2.6875 47.703125 
L 2.6875 54.6875 
L 9.28125 54.6875 
L 9.28125 70.21875 
z
" id="DejaVuSans-116"/>
     </defs>
     <g transform="translate(83.965625 38.916562)scale(0.1 -0.1)">
      <use xlink:href="#DejaVuSans-80"/>
      <use x="58.552734" xlink:href="#DejaVuSans-114"/>
      <use x="97.416016" xlink:href="#DejaVuSans-101"/>
      <use x="158.939453" xlink:href="#DejaVuSans-100"/>
      <use x="222.416016" xlink:href="#DejaVuSans-105"/>
      <use x="250.199219" xlink:href="#DejaVuSans-99"/>
      <use x="305.179688" xlink:href="#DejaVuSans-116"/>
      <use x="344.388672" xlink:href="#DejaVuSans-101"/>
      <use x="405.912109" xlink:href="#DejaVuSans-100"/>
     </g>
    </g>
    <g id="line2d_31">
     <path d="M 55.965625 50.094687 
L 75.965625 50.094687 
" style="fill:none;stroke:#ff7f0e;stroke-linecap:square;stroke-width:1.5;"/>
    </g>
    <g id="line2d_32"/>
    <g id="text_18">
     <!-- True value -->
     <defs>
      <path d="M 8.5 21.578125 
L 8.5 54.6875 
L 17.484375 54.6875 
L 17.484375 21.921875 
Q 17.484375 14.15625 20.5 10.265625 
Q 23.53125 6.390625 29.59375 6.390625 
Q 36.859375 6.390625 41.078125 11.03125 
Q 45.3125 15.671875 45.3125 23.6875 
L 45.3125 54.6875 
L 54.296875 54.6875 
L 54.296875 0 
L 45.3125 0 
L 45.3125 8.40625 
Q 42.046875 3.421875 37.71875 1 
Q 33.40625 -1.421875 27.6875 -1.421875 
Q 18.265625 -1.421875 13.375 4.4375 
Q 8.5 10.296875 8.5 21.578125 
z
M 31.109375 56 
z
" id="DejaVuSans-117"/>
      <path d="M 2.984375 54.6875 
L 12.5 54.6875 
L 29.59375 8.796875 
L 46.6875 54.6875 
L 56.203125 54.6875 
L 35.6875 0 
L 23.484375 0 
z
" id="DejaVuSans-118"/>
      <path d="M 9.421875 75.984375 
L 18.40625 75.984375 
L 18.40625 0 
L 9.421875 0 
z
" id="DejaVuSans-108"/>
     </defs>
     <g transform="translate(83.965625 53.594687)scale(0.1 -0.1)">
      <use xlink:href="#DejaVuSans-84"/>
      <use x="46.333984" xlink:href="#DejaVuSans-114"/>
      <use x="87.447266" xlink:href="#DejaVuSans-117"/>
      <use x="150.826172" xlink:href="#DejaVuSans-101"/>
      <use x="212.349609" xlink:href="#DejaVuSans-32"/>
      <use x="244.136719" xlink:href="#DejaVuSans-118"/>
      <use x="303.316406" xlink:href="#DejaVuSans-97"/>
      <use x="364.595703" xlink:href="#DejaVuSans-108"/>
      <use x="392.378906" xlink:href="#DejaVuSans-117"/>
      <use x="455.757812" xlink:href="#DejaVuSans-101"/>
     </g>
    </g>
   </g>
  </g>
 </g>
 <defs>
  <clipPath id="p03b2ab2c94">
   <rect height="266.112" width="357.12" x="46.965625" y="22.318125"/>
  </clipPath>
 </defs>
</svg>
