<?xml version="1.0" encoding="utf-8" standalone="no"?>
<!DOCTYPE svg PUBLIC "-//W3C//DTD SVG 1.1//EN"
  "http://www.w3.org/Graphics/SVG/1.1/DTD/svg11.dtd">
<!-- Created with matplotlib (https://matplotlib.org/) -->
<svg height="325.986375pt" version="1.1" viewBox="0 0 411.285625 325.986375" width="411.285625pt" xmlns="http://www.w3.org/2000/svg" xmlns:xlink="http://www.w3.org/1999/xlink">
 <defs>
  <style type="text/css">
*{stroke-linecap:butt;stroke-linejoin:round;}
  </style>
 </defs>
 <g id="figure_1">
  <g id="patch_1">
   <path d="M 0 325.986375 
L 411.285625 325.986375 
L 411.285625 0 
L 0 0 
z
" style="fill:#ffffff;"/>
  </g>
  <g id="axes_1">
   <g id="patch_2">
    <path d="M 46.965625 288.430125 
L 404.085625 288.430125 
L 404.085625 22.318125 
L 46.965625 22.318125 
z
" style="fill:#ffffff;"/>
   </g>
   <g id="matplotlib.axis_1">
    <g id="xtick_1">
     <g id="line2d_1">
      <path clip-path="url(#p39b5ecae6e)" d="M 63.198352 288.430125 
L 63.198352 22.318125 
" style="fill:none;stroke:#b0b0b0;stroke-dasharray:2.96,1.28;stroke-dashoffset:0;stroke-width:0.8;"/>
     </g>
     <g id="line2d_2">
      <defs>
       <path d="M 0 0 
L 0 3.5 
" id="m76056ce5d7" style="stroke:#000000;stroke-width:0.8;"/>
      </defs>
      <g>
       <use style="stroke:#000000;stroke-width:0.8;" x="63.198352" xlink:href="#m76056ce5d7" y="288.430125"/>
      </g>
     </g>
     <g id="text_1">
      <!-- 0 -->
      <defs>
       <path d="M 31.78125 66.40625 
Q 24.171875 66.40625 20.328125 58.90625 
Q 16.5 51.421875 16.5 36.375 
Q 16.5 21.390625 20.328125 13.890625 
Q 24.171875 6.390625 31.78125 6.390625 
Q 39.453125 6.390625 43.28125 13.890625 
Q 47.125 21.390625 47.125 36.375 
Q 47.125 51.421875 43.28125 58.90625 
Q 39.453125 66.40625 31.78125 66.40625 
z
M 31.78125 74.21875 
Q 44.046875 74.21875 50.515625 64.515625 
Q 56.984375 54.828125 56.984375 36.375 
Q 56.984375 17.96875 50.515625 8.265625 
Q 44.046875 -1.421875 31.78125 -1.421875 
Q 19.53125 -1.421875 13.0625 8.265625 
Q 6.59375 17.96875 6.59375 36.375 
Q 6.59375 54.828125 13.0625 64.515625 
Q 19.53125 74.21875 31.78125 74.21875 
z
" id="DejaVuSans-48"/>
      </defs>
      <g transform="translate(60.017102 303.028562)scale(0.1 -0.1)">
       <use xlink:href="#DejaVuSans-48"/>
      </g>
     </g>
    </g>
    <g id="xtick_2">
     <g id="line2d_3">
      <path clip-path="url(#p39b5ecae6e)" d="M 112.128954 288.430125 
L 112.128954 22.318125 
" style="fill:none;stroke:#b0b0b0;stroke-dasharray:2.96,1.28;stroke-dashoffset:0;stroke-width:0.8;"/>
     </g>
     <g id="line2d_4">
      <g>
       <use style="stroke:#000000;stroke-width:0.8;" x="112.128954" xlink:href="#m76056ce5d7" y="288.430125"/>
      </g>
     </g>
     <g id="text_2">
      <!-- 200 -->
      <defs>
       <path d="M 19.1875 8.296875 
L 53.609375 8.296875 
L 53.609375 0 
L 7.328125 0 
L 7.328125 8.296875 
Q 12.9375 14.109375 22.625 23.890625 
Q 32.328125 33.6875 34.8125 36.53125 
Q 39.546875 41.84375 41.421875 45.53125 
Q 43.3125 49.21875 43.3125 52.78125 
Q 43.3125 58.59375 39.234375 62.25 
Q 35.15625 65.921875 28.609375 65.921875 
Q 23.96875 65.921875 18.8125 64.3125 
Q 13.671875 62.703125 7.8125 59.421875 
L 7.8125 69.390625 
Q 13.765625 71.78125 18.9375 73 
Q 24.125 74.21875 28.421875 74.21875 
Q 39.75 74.21875 46.484375 68.546875 
Q 53.21875 62.890625 53.21875 53.421875 
Q 53.21875 48.921875 51.53125 44.890625 
Q 49.859375 40.875 45.40625 35.40625 
Q 44.1875 33.984375 37.640625 27.21875 
Q 31.109375 20.453125 19.1875 8.296875 
z
" id="DejaVuSans-50"/>
      </defs>
      <g transform="translate(102.585204 303.028562)scale(0.1 -0.1)">
       <use xlink:href="#DejaVuSans-50"/>
       <use x="63.623047" xlink:href="#DejaVuSans-48"/>
       <use x="127.246094" xlink:href="#DejaVuSans-48"/>
      </g>
     </g>
    </g>
    <g id="xtick_3">
     <g id="line2d_5">
      <path clip-path="url(#p39b5ecae6e)" d="M 161.059557 288.430125 
L 161.059557 22.318125 
" style="fill:none;stroke:#b0b0b0;stroke-dasharray:2.96,1.28;stroke-dashoffset:0;stroke-width:0.8;"/>
     </g>
     <g id="line2d_6">
      <g>
       <use style="stroke:#000000;stroke-width:0.8;" x="161.059557" xlink:href="#m76056ce5d7" y="288.430125"/>
      </g>
     </g>
     <g id="text_3">
      <!-- 400 -->
      <defs>
       <path d="M 37.796875 64.3125 
L 12.890625 25.390625 
L 37.796875 25.390625 
z
M 35.203125 72.90625 
L 47.609375 72.90625 
L 47.609375 25.390625 
L 58.015625 25.390625 
L 58.015625 17.1875 
L 47.609375 17.1875 
L 47.609375 0 
L 37.796875 0 
L 37.796875 17.1875 
L 4.890625 17.1875 
L 4.890625 26.703125 
z
" id="DejaVuSans-52"/>
      </defs>
      <g transform="translate(151.515807 303.028562)scale(0.1 -0.1)">
       <use xlink:href="#DejaVuSans-52"/>
       <use x="63.623047" xlink:href="#DejaVuSans-48"/>
       <use x="127.246094" xlink:href="#DejaVuSans-48"/>
      </g>
     </g>
    </g>
    <g id="xtick_4">
     <g id="line2d_7">
      <path clip-path="url(#p39b5ecae6e)" d="M 209.990159 288.430125 
L 209.990159 22.318125 
" style="fill:none;stroke:#b0b0b0;stroke-dasharray:2.96,1.28;stroke-dashoffset:0;stroke-width:0.8;"/>
     </g>
     <g id="line2d_8">
      <g>
       <use style="stroke:#000000;stroke-width:0.8;" x="209.990159" xlink:href="#m76056ce5d7" y="288.430125"/>
      </g>
     </g>
     <g id="text_4">
      <!-- 600 -->
      <defs>
       <path d="M 33.015625 40.375 
Q 26.375 40.375 22.484375 35.828125 
Q 18.609375 31.296875 18.609375 23.390625 
Q 18.609375 15.53125 22.484375 10.953125 
Q 26.375 6.390625 33.015625 6.390625 
Q 39.65625 6.390625 43.53125 10.953125 
Q 47.40625 15.53125 47.40625 23.390625 
Q 47.40625 31.296875 43.53125 35.828125 
Q 39.65625 40.375 33.015625 40.375 
z
M 52.59375 71.296875 
L 52.59375 62.3125 
Q 48.875 64.0625 45.09375 64.984375 
Q 41.3125 65.921875 37.59375 65.921875 
Q 27.828125 65.921875 22.671875 59.328125 
Q 17.53125 52.734375 16.796875 39.40625 
Q 19.671875 43.65625 24.015625 45.921875 
Q 28.375 48.1875 33.59375 48.1875 
Q 44.578125 48.1875 50.953125 41.515625 
Q 57.328125 34.859375 57.328125 23.390625 
Q 57.328125 12.15625 50.6875 5.359375 
Q 44.046875 -1.421875 33.015625 -1.421875 
Q 20.359375 -1.421875 13.671875 8.265625 
Q 6.984375 17.96875 6.984375 36.375 
Q 6.984375 53.65625 15.1875 63.9375 
Q 23.390625 74.21875 37.203125 74.21875 
Q 40.921875 74.21875 44.703125 73.484375 
Q 48.484375 72.75 52.59375 71.296875 
z
" id="DejaVuSans-54"/>
      </defs>
      <g transform="translate(200.446409 303.028562)scale(0.1 -0.1)">
       <use xlink:href="#DejaVuSans-54"/>
       <use x="63.623047" xlink:href="#DejaVuSans-48"/>
       <use x="127.246094" xlink:href="#DejaVuSans-48"/>
      </g>
     </g>
    </g>
    <g id="xtick_5">
     <g id="line2d_9">
      <path clip-path="url(#p39b5ecae6e)" d="M 258.920761 288.430125 
L 258.920761 22.318125 
" style="fill:none;stroke:#b0b0b0;stroke-dasharray:2.96,1.28;stroke-dashoffset:0;stroke-width:0.8;"/>
     </g>
     <g id="line2d_10">
      <g>
       <use style="stroke:#000000;stroke-width:0.8;" x="258.920761" xlink:href="#m76056ce5d7" y="288.430125"/>
      </g>
     </g>
     <g id="text_5">
      <!-- 800 -->
      <defs>
       <path d="M 31.78125 34.625 
Q 24.75 34.625 20.71875 30.859375 
Q 16.703125 27.09375 16.703125 20.515625 
Q 16.703125 13.921875 20.71875 10.15625 
Q 24.75 6.390625 31.78125 6.390625 
Q 38.8125 6.390625 42.859375 10.171875 
Q 46.921875 13.96875 46.921875 20.515625 
Q 46.921875 27.09375 42.890625 30.859375 
Q 38.875 34.625 31.78125 34.625 
z
M 21.921875 38.8125 
Q 15.578125 40.375 12.03125 44.71875 
Q 8.5 49.078125 8.5 55.328125 
Q 8.5 64.0625 14.71875 69.140625 
Q 20.953125 74.21875 31.78125 74.21875 
Q 42.671875 74.21875 48.875 69.140625 
Q 55.078125 64.0625 55.078125 55.328125 
Q 55.078125 49.078125 51.53125 44.71875 
Q 48 40.375 41.703125 38.8125 
Q 48.828125 37.15625 52.796875 32.3125 
Q 56.78125 27.484375 56.78125 20.515625 
Q 56.78125 9.90625 50.3125 4.234375 
Q 43.84375 -1.421875 31.78125 -1.421875 
Q 19.734375 -1.421875 13.25 4.234375 
Q 6.78125 9.90625 6.78125 20.515625 
Q 6.78125 27.484375 10.78125 32.3125 
Q 14.796875 37.15625 21.921875 38.8125 
z
M 18.3125 54.390625 
Q 18.3125 48.734375 21.84375 45.5625 
Q 25.390625 42.390625 31.78125 42.390625 
Q 38.140625 42.390625 41.71875 45.5625 
Q 45.3125 48.734375 45.3125 54.390625 
Q 45.3125 60.0625 41.71875 63.234375 
Q 38.140625 66.40625 31.78125 66.40625 
Q 25.390625 66.40625 21.84375 63.234375 
Q 18.3125 60.0625 18.3125 54.390625 
z
" id="DejaVuSans-56"/>
      </defs>
      <g transform="translate(249.377011 303.028562)scale(0.1 -0.1)">
       <use xlink:href="#DejaVuSans-56"/>
       <use x="63.623047" xlink:href="#DejaVuSans-48"/>
       <use x="127.246094" xlink:href="#DejaVuSans-48"/>
      </g>
     </g>
    </g>
    <g id="xtick_6">
     <g id="line2d_11">
      <path clip-path="url(#p39b5ecae6e)" d="M 307.851363 288.430125 
L 307.851363 22.318125 
" style="fill:none;stroke:#b0b0b0;stroke-dasharray:2.96,1.28;stroke-dashoffset:0;stroke-width:0.8;"/>
     </g>
     <g id="line2d_12">
      <g>
       <use style="stroke:#000000;stroke-width:0.8;" x="307.851363" xlink:href="#m76056ce5d7" y="288.430125"/>
      </g>
     </g>
     <g id="text_6">
      <!-- 1000 -->
      <defs>
       <path d="M 12.40625 8.296875 
L 28.515625 8.296875 
L 28.515625 63.921875 
L 10.984375 60.40625 
L 10.984375 69.390625 
L 28.421875 72.90625 
L 38.28125 72.90625 
L 38.28125 8.296875 
L 54.390625 8.296875 
L 54.390625 0 
L 12.40625 0 
z
" id="DejaVuSans-49"/>
      </defs>
      <g transform="translate(295.126363 303.028562)scale(0.1 -0.1)">
       <use xlink:href="#DejaVuSans-49"/>
       <use x="63.623047" xlink:href="#DejaVuSans-48"/>
       <use x="127.246094" xlink:href="#DejaVuSans-48"/>
       <use x="190.869141" xlink:href="#DejaVuSans-48"/>
      </g>
     </g>
    </g>
    <g id="xtick_7">
     <g id="line2d_13">
      <path clip-path="url(#p39b5ecae6e)" d="M 356.781965 288.430125 
L 356.781965 22.318125 
" style="fill:none;stroke:#b0b0b0;stroke-dasharray:2.96,1.28;stroke-dashoffset:0;stroke-width:0.8;"/>
     </g>
     <g id="line2d_14">
      <g>
       <use style="stroke:#000000;stroke-width:0.8;" x="356.781965" xlink:href="#m76056ce5d7" y="288.430125"/>
      </g>
     </g>
     <g id="text_7">
      <!-- 1200 -->
      <g transform="translate(344.056965 303.028562)scale(0.1 -0.1)">
       <use xlink:href="#DejaVuSans-49"/>
       <use x="63.623047" xlink:href="#DejaVuSans-50"/>
       <use x="127.246094" xlink:href="#DejaVuSans-48"/>
       <use x="190.869141" xlink:href="#DejaVuSans-48"/>
      </g>
     </g>
    </g>
    <g id="text_8">
     <!-- Day -->
     <defs>
      <path d="M 19.671875 64.796875 
L 19.671875 8.109375 
L 31.59375 8.109375 
Q 46.6875 8.109375 53.6875 14.9375 
Q 60.6875 21.78125 60.6875 36.53125 
Q 60.6875 51.171875 53.6875 57.984375 
Q 46.6875 64.796875 31.59375 64.796875 
z
M 9.8125 72.90625 
L 30.078125 72.90625 
Q 51.265625 72.90625 61.171875 64.09375 
Q 71.09375 55.28125 71.09375 36.53125 
Q 71.09375 17.671875 61.125 8.828125 
Q 51.171875 0 30.078125 0 
L 9.8125 0 
z
" id="DejaVuSans-68"/>
      <path d="M 34.28125 27.484375 
Q 23.390625 27.484375 19.1875 25 
Q 14.984375 22.515625 14.984375 16.5 
Q 14.984375 11.71875 18.140625 8.90625 
Q 21.296875 6.109375 26.703125 6.109375 
Q 34.1875 6.109375 38.703125 11.40625 
Q 43.21875 16.703125 43.21875 25.484375 
L 43.21875 27.484375 
z
M 52.203125 31.203125 
L 52.203125 0 
L 43.21875 0 
L 43.21875 8.296875 
Q 40.140625 3.328125 35.546875 0.953125 
Q 30.953125 -1.421875 24.3125 -1.421875 
Q 15.921875 -1.421875 10.953125 3.296875 
Q 6 8.015625 6 15.921875 
Q 6 25.140625 12.171875 29.828125 
Q 18.359375 34.515625 30.609375 34.515625 
L 43.21875 34.515625 
L 43.21875 35.40625 
Q 43.21875 41.609375 39.140625 45 
Q 35.0625 48.390625 27.6875 48.390625 
Q 23 48.390625 18.546875 47.265625 
Q 14.109375 46.140625 10.015625 43.890625 
L 10.015625 52.203125 
Q 14.9375 54.109375 19.578125 55.046875 
Q 24.21875 56 28.609375 56 
Q 40.484375 56 46.34375 49.84375 
Q 52.203125 43.703125 52.203125 31.203125 
z
" id="DejaVuSans-97"/>
      <path d="M 32.171875 -5.078125 
Q 28.375 -14.84375 24.75 -17.8125 
Q 21.140625 -20.796875 15.09375 -20.796875 
L 7.90625 -20.796875 
L 7.90625 -13.28125 
L 13.1875 -13.28125 
Q 16.890625 -13.28125 18.9375 -11.515625 
Q 21 -9.765625 23.484375 -3.21875 
L 25.09375 0.875 
L 2.984375 54.6875 
L 12.5 54.6875 
L 29.59375 11.921875 
L 46.6875 54.6875 
L 56.203125 54.6875 
z
" id="DejaVuSans-121"/>
     </defs>
     <g transform="translate(215.652188 316.706687)scale(0.1 -0.1)">
      <use xlink:href="#DejaVuSans-68"/>
      <use x="77.001953" xlink:href="#DejaVuSans-97"/>
      <use x="138.28125" xlink:href="#DejaVuSans-121"/>
     </g>
    </g>
   </g>
   <g id="matplotlib.axis_2">
    <g id="ytick_1">
     <g id="line2d_15">
      <path clip-path="url(#p39b5ecae6e)" d="M 46.965625 245.934687 
L 404.085625 245.934687 
" style="fill:none;stroke:#b0b0b0;stroke-dasharray:2.96,1.28;stroke-dashoffset:0;stroke-width:0.8;"/>
     </g>
     <g id="line2d_16">
      <defs>
       <path d="M 0 0 
L -3.5 0 
" id="ma2c44a3f2a" style="stroke:#000000;stroke-width:0.8;"/>
      </defs>
      <g>
       <use style="stroke:#000000;stroke-width:0.8;" x="46.965625" xlink:href="#ma2c44a3f2a" y="245.934687"/>
      </g>
     </g>
     <g id="text_9">
      <!-- 60 -->
      <g transform="translate(27.240625 249.733906)scale(0.1 -0.1)">
       <use xlink:href="#DejaVuSans-54"/>
       <use x="63.623047" xlink:href="#DejaVuSans-48"/>
      </g>
     </g>
    </g>
    <g id="ytick_2">
     <g id="line2d_17">
      <path clip-path="url(#p39b5ecae6e)" d="M 46.965625 203.417991 
L 404.085625 203.417991 
" style="fill:none;stroke:#b0b0b0;stroke-dasharray:2.96,1.28;stroke-dashoffset:0;stroke-width:0.8;"/>
     </g>
     <g id="line2d_18">
      <g>
       <use style="stroke:#000000;stroke-width:0.8;" x="46.965625" xlink:href="#ma2c44a3f2a" y="203.417991"/>
      </g>
     </g>
     <g id="text_10">
      <!-- 80 -->
      <g transform="translate(27.240625 207.21721)scale(0.1 -0.1)">
       <use xlink:href="#DejaVuSans-56"/>
       <use x="63.623047" xlink:href="#DejaVuSans-48"/>
      </g>
     </g>
    </g>
    <g id="ytick_3">
     <g id="line2d_19">
      <path clip-path="url(#p39b5ecae6e)" d="M 46.965625 160.901295 
L 404.085625 160.901295 
" style="fill:none;stroke:#b0b0b0;stroke-dasharray:2.96,1.28;stroke-dashoffset:0;stroke-width:0.8;"/>
     </g>
     <g id="line2d_20">
      <g>
       <use style="stroke:#000000;stroke-width:0.8;" x="46.965625" xlink:href="#ma2c44a3f2a" y="160.901295"/>
      </g>
     </g>
     <g id="text_11">
      <!-- 100 -->
      <g transform="translate(20.878125 164.700514)scale(0.1 -0.1)">
       <use xlink:href="#DejaVuSans-49"/>
       <use x="63.623047" xlink:href="#DejaVuSans-48"/>
       <use x="127.246094" xlink:href="#DejaVuSans-48"/>
      </g>
     </g>
    </g>
    <g id="ytick_4">
     <g id="line2d_21">
      <path clip-path="url(#p39b5ecae6e)" d="M 46.965625 118.3846 
L 404.085625 118.3846 
" style="fill:none;stroke:#b0b0b0;stroke-dasharray:2.96,1.28;stroke-dashoffset:0;stroke-width:0.8;"/>
     </g>
     <g id="line2d_22">
      <g>
       <use style="stroke:#000000;stroke-width:0.8;" x="46.965625" xlink:href="#ma2c44a3f2a" y="118.3846"/>
      </g>
     </g>
     <g id="text_12">
      <!-- 120 -->
      <g transform="translate(20.878125 122.183818)scale(0.1 -0.1)">
       <use xlink:href="#DejaVuSans-49"/>
       <use x="63.623047" xlink:href="#DejaVuSans-50"/>
       <use x="127.246094" xlink:href="#DejaVuSans-48"/>
      </g>
     </g>
    </g>
    <g id="ytick_5">
     <g id="line2d_23">
      <path clip-path="url(#p39b5ecae6e)" d="M 46.965625 75.867904 
L 404.085625 75.867904 
" style="fill:none;stroke:#b0b0b0;stroke-dasharray:2.96,1.28;stroke-dashoffset:0;stroke-width:0.8;"/>
     </g>
     <g id="line2d_24">
      <g>
       <use style="stroke:#000000;stroke-width:0.8;" x="46.965625" xlink:href="#ma2c44a3f2a" y="75.867904"/>
      </g>
     </g>
     <g id="text_13">
      <!-- 140 -->
      <g transform="translate(20.878125 79.667122)scale(0.1 -0.1)">
       <use xlink:href="#DejaVuSans-49"/>
       <use x="63.623047" xlink:href="#DejaVuSans-52"/>
       <use x="127.246094" xlink:href="#DejaVuSans-48"/>
      </g>
     </g>
    </g>
    <g id="ytick_6">
     <g id="line2d_25">
      <path clip-path="url(#p39b5ecae6e)" d="M 46.965625 33.351208 
L 404.085625 33.351208 
" style="fill:none;stroke:#b0b0b0;stroke-dasharray:2.96,1.28;stroke-dashoffset:0;stroke-width:0.8;"/>
     </g>
     <g id="line2d_26">
      <g>
       <use style="stroke:#000000;stroke-width:0.8;" x="46.965625" xlink:href="#ma2c44a3f2a" y="33.351208"/>
      </g>
     </g>
     <g id="text_14">
      <!-- 160 -->
      <g transform="translate(20.878125 37.150426)scale(0.1 -0.1)">
       <use xlink:href="#DejaVuSans-49"/>
       <use x="63.623047" xlink:href="#DejaVuSans-54"/>
       <use x="127.246094" xlink:href="#DejaVuSans-48"/>
      </g>
     </g>
    </g>
    <g id="text_15">
     <!-- Price $ -->
     <defs>
      <path d="M 19.671875 64.796875 
L 19.671875 37.40625 
L 32.078125 37.40625 
Q 38.96875 37.40625 42.71875 40.96875 
Q 46.484375 44.53125 46.484375 51.125 
Q 46.484375 57.671875 42.71875 61.234375 
Q 38.96875 64.796875 32.078125 64.796875 
z
M 9.8125 72.90625 
L 32.078125 72.90625 
Q 44.34375 72.90625 50.609375 67.359375 
Q 56.890625 61.8125 56.890625 51.125 
Q 56.890625 40.328125 50.609375 34.8125 
Q 44.34375 29.296875 32.078125 29.296875 
L 19.671875 29.296875 
L 19.671875 0 
L 9.8125 0 
z
" id="DejaVuSans-80"/>
      <path d="M 41.109375 46.296875 
Q 39.59375 47.171875 37.8125 47.578125 
Q 36.03125 48 33.890625 48 
Q 26.265625 48 22.1875 43.046875 
Q 18.109375 38.09375 18.109375 28.8125 
L 18.109375 0 
L 9.078125 0 
L 9.078125 54.6875 
L 18.109375 54.6875 
L 18.109375 46.1875 
Q 20.953125 51.171875 25.484375 53.578125 
Q 30.03125 56 36.53125 56 
Q 37.453125 56 38.578125 55.875 
Q 39.703125 55.765625 41.0625 55.515625 
z
" id="DejaVuSans-114"/>
      <path d="M 9.421875 54.6875 
L 18.40625 54.6875 
L 18.40625 0 
L 9.421875 0 
z
M 9.421875 75.984375 
L 18.40625 75.984375 
L 18.40625 64.59375 
L 9.421875 64.59375 
z
" id="DejaVuSans-105"/>
      <path d="M 48.78125 52.59375 
L 48.78125 44.1875 
Q 44.96875 46.296875 41.140625 47.34375 
Q 37.3125 48.390625 33.40625 48.390625 
Q 24.65625 48.390625 19.8125 42.84375 
Q 14.984375 37.3125 14.984375 27.296875 
Q 14.984375 17.28125 19.8125 11.734375 
Q 24.65625 6.203125 33.40625 6.203125 
Q 37.3125 6.203125 41.140625 7.25 
Q 44.96875 8.296875 48.78125 10.40625 
L 48.78125 2.09375 
Q 45.015625 0.34375 40.984375 -0.53125 
Q 36.96875 -1.421875 32.421875 -1.421875 
Q 20.0625 -1.421875 12.78125 6.34375 
Q 5.515625 14.109375 5.515625 27.296875 
Q 5.515625 40.671875 12.859375 48.328125 
Q 20.21875 56 33.015625 56 
Q 37.15625 56 41.109375 55.140625 
Q 45.0625 54.296875 48.78125 52.59375 
z
" id="DejaVuSans-99"/>
      <path d="M 56.203125 29.59375 
L 56.203125 25.203125 
L 14.890625 25.203125 
Q 15.484375 15.921875 20.484375 11.0625 
Q 25.484375 6.203125 34.421875 6.203125 
Q 39.59375 6.203125 44.453125 7.46875 
Q 49.3125 8.734375 54.109375 11.28125 
L 54.109375 2.78125 
Q 49.265625 0.734375 44.1875 -0.34375 
Q 39.109375 -1.421875 33.890625 -1.421875 
Q 20.796875 -1.421875 13.15625 6.1875 
Q 5.515625 13.8125 5.515625 26.8125 
Q 5.515625 40.234375 12.765625 48.109375 
Q 20.015625 56 32.328125 56 
Q 43.359375 56 49.78125 48.890625 
Q 56.203125 41.796875 56.203125 29.59375 
z
M 47.21875 32.234375 
Q 47.125 39.59375 43.09375 43.984375 
Q 39.0625 48.390625 32.421875 48.390625 
Q 24.90625 48.390625 20.390625 44.140625 
Q 15.875 39.890625 15.1875 32.171875 
z
" id="DejaVuSans-101"/>
      <path id="DejaVuSans-32"/>
      <path d="M 33.796875 -14.703125 
L 28.90625 -14.703125 
L 28.859375 0 
Q 23.734375 0.09375 18.609375 1.1875 
Q 13.484375 2.296875 8.296875 4.5 
L 8.296875 13.28125 
Q 13.28125 10.15625 18.375 8.5625 
Q 23.484375 6.984375 28.90625 6.9375 
L 28.90625 29.203125 
Q 18.109375 30.953125 13.203125 35.15625 
Q 8.296875 39.359375 8.296875 46.6875 
Q 8.296875 54.640625 13.625 59.21875 
Q 18.953125 63.8125 28.90625 64.5 
L 28.90625 75.984375 
L 33.796875 75.984375 
L 33.796875 64.65625 
Q 38.328125 64.453125 42.578125 63.6875 
Q 46.828125 62.9375 50.875 61.625 
L 50.875 53.078125 
Q 46.828125 55.125 42.546875 56.25 
Q 38.28125 57.375 33.796875 57.5625 
L 33.796875 36.71875 
Q 44.875 35.015625 50.09375 30.609375 
Q 55.328125 26.21875 55.328125 18.609375 
Q 55.328125 10.359375 49.78125 5.59375 
Q 44.234375 0.828125 33.796875 0.09375 
z
M 28.90625 37.59375 
L 28.90625 57.625 
Q 23.25 56.984375 20.265625 54.390625 
Q 17.28125 51.8125 17.28125 47.515625 
Q 17.28125 43.3125 20.03125 40.96875 
Q 22.796875 38.625 28.90625 37.59375 
z
M 33.796875 28.21875 
L 33.796875 7.078125 
Q 39.984375 7.90625 43.140625 10.59375 
Q 46.296875 13.28125 46.296875 17.671875 
Q 46.296875 21.96875 43.28125 24.5 
Q 40.28125 27.046875 33.796875 28.21875 
z
" id="DejaVuSans-36"/>
     </defs>
     <g transform="translate(14.798438 172.342094)rotate(-90)scale(0.1 -0.1)">
      <use xlink:href="#DejaVuSans-80"/>
      <use x="58.552734" xlink:href="#DejaVuSans-114"/>
      <use x="99.666016" xlink:href="#DejaVuSans-105"/>
      <use x="127.449219" xlink:href="#DejaVuSans-99"/>
      <use x="182.429688" xlink:href="#DejaVuSans-101"/>
      <use x="243.953125" xlink:href="#DejaVuSans-32"/>
      <use x="275.740234" xlink:href="#DejaVuSans-36"/>
     </g>
    </g>
   </g>
   <g id="line2d_27">
    <path clip-path="url(#p39b5ecae6e)" d="M 63.198352 261.099993 
L 63.443005 256.100822 
L 63.687658 253.965864 
L 63.932311 253.9869 
L 64.176964 252.866706 
L 64.66627 247.589552 
L 64.910923 247.977255 
L 65.155576 254.498353 
L 65.400229 255.579386 
L 65.644882 257.934231 
L 65.889535 258.818149 
L 66.134188 262.019325 
L 66.378841 261.054442 
L 66.868147 264.368088 
L 67.1128 262.70749 
L 67.357453 264.622415 
L 67.602106 264.181815 
L 68.091412 261.153191 
L 68.336066 262.969205 
L 68.580719 261.308754 
L 68.825372 261.391616 
L 69.070025 264.225151 
L 69.314678 264.385207 
L 69.559331 263.170343 
L 69.803984 262.904508 
L 70.048637 260.217186 
L 70.29329 258.779824 
L 70.537943 261.585447 
L 70.782596 259.446532 
L 71.027249 258.630051 
L 71.271902 255.771134 
L 71.516555 255.139402 
L 71.761208 256.955303 
L 72.005861 257.349266 
L 72.73982 247.841 
L 72.984473 249.466184 
L 73.473779 251.363252 
L 73.718432 250.163586 
L 73.963085 250.952283 
L 74.207738 252.794864 
L 74.452391 253.406647 
L 74.697044 249.910467 
L 74.941697 249.515035 
L 76.164962 258.412378 
L 76.409615 258.41147 
L 76.898921 257.551134 
L 77.143574 258.217907 
L 77.388227 258.312746 
L 77.63288 262.857741 
L 77.877533 262.328999 
L 78.122186 259.63703 
L 78.611492 264.584488 
L 78.856145 248.408003 
L 79.100798 248.168783 
L 79.345451 246.810634 
L 79.590104 248.172675 
L 80.07941 245.104429 
L 80.324063 248.511195 
L 80.813369 251.0742 
L 81.058022 251.400629 
L 81.302675 252.249003 
L 81.547328 255.835466 
L 81.791981 254.99876 
L 82.036634 250.113234 
L 82.281287 249.936692 
L 82.770593 246.295386 
L 83.259899 244.306179 
L 83.504552 244.523308 
L 83.749205 242.646238 
L 83.993858 242.946976 
L 84.238511 242.361395 
L 84.727817 246.4307 
L 84.97247 246.118812 
L 85.217123 246.953522 
L 85.461776 246.549381 
L 85.706429 251.079204 
L 85.951082 246.306123 
L 86.195735 245.159022 
L 86.440388 247.595763 
L 86.685041 248.351066 
L 86.929694 244.901037 
L 87.174347 243.242921 
L 87.419 244.56006 
L 87.663653 244.299529 
L 87.908306 247.084335 
L 88.152959 247.075698 
L 88.397612 250.587173 
L 88.642265 245.590962 
L 88.886918 247.606298 
L 89.376224 239.477589 
L 89.620877 240.25036 
L 89.86553 236.819152 
L 90.110183 236.914357 
L 90.354836 236.179838 
L 90.844143 240.347219 
L 91.088796 240.713359 
L 91.333449 240.187706 
L 91.578102 238.829525 
L 91.822755 240.581719 
L 92.067408 240.211459 
L 92.312061 241.53601 
L 92.556714 242.004337 
L 93.04602 239.10604 
L 93.290673 232.586734 
L 93.535326 232.216669 
L 93.779979 232.320518 
L 94.024632 234.237763 
L 94.269285 235.104595 
L 94.513938 230.90223 
L 94.758591 235.328025 
L 95.003244 230.329251 
L 95.247897 234.198351 
L 95.49255 234.710574 
L 95.737203 234.281732 
L 95.981856 236.035458 
L 96.226509 234.49475 
L 96.471162 234.640136 
L 96.715815 235.267821 
L 96.960468 236.45092 
L 97.205121 236.779984 
L 97.449774 239.494643 
L 97.93908 236.716795 
L 98.183733 241.568521 
L 98.428386 240.126294 
L 98.673039 237.358347 
L 98.917692 237.922454 
L 99.162345 238.191322 
L 99.406998 236.732089 
L 99.651651 233.641315 
L 100.140957 236.913854 
L 100.630263 235.57546 
L 100.874916 235.672724 
L 101.364222 232.804521 
L 101.608875 233.042694 
L 102.098181 240.554666 
L 102.342834 239.183444 
L 102.587487 242.131387 
L 102.83214 239.854872 
L 103.076793 241.149905 
L 103.321446 241.772067 
L 103.810752 246.033306 
L 104.055405 245.124832 
L 104.300058 242.188478 
L 104.544711 244.43095 
L 105.034017 242.777173 
L 105.27867 241.287943 
L 105.523323 241.058504 
L 105.767976 236.984406 
L 106.012629 235.669545 
L 106.257282 236.78339 
L 106.501935 243.079516 
L 106.746588 239.618077 
L 107.235894 245.118864 
L 107.480547 242.767766 
L 107.969853 237.370641 
L 108.214506 237.433457 
L 108.459159 235.763241 
L 108.703812 249.170166 
L 108.948465 254.278344 
L 109.193118 254.959965 
L 109.437771 256.561412 
L 109.927077 248.404029 
L 110.17173 249.689858 
L 110.416383 252.294538 
L 110.661036 252.066695 
L 110.905689 254.581182 
L 111.150342 248.518015 
L 111.394995 247.431272 
L 111.639648 244.531312 
L 111.884301 244.614166 
L 112.128954 250.502819 
L 112.373607 250.150181 
L 112.61826 250.432713 
L 112.862913 250.427539 
L 113.107566 251.142011 
L 113.35222 250.054255 
L 113.596873 248.326884 
L 113.841526 248.397136 
L 114.086179 251.531815 
L 114.575485 251.501056 
L 114.820138 251.494568 
L 115.309444 256.815691 
L 115.554097 255.410654 
L 115.79875 254.983952 
L 116.043403 253.083819 
L 116.288056 254.91838 
L 116.532709 253.861812 
L 116.777362 250.169944 
L 117.022015 250.430321 
L 117.511321 244.925973 
L 117.755974 245.118564 
L 118.24528 248.587026 
L 118.489933 252.459078 
L 118.734586 252.225413 
L 118.979239 250.636592 
L 119.223892 246.403095 
L 119.468545 245.888683 
L 119.713198 241.730815 
L 119.957851 242.626573 
L 120.202504 242.545243 
L 120.447157 240.0826 
L 120.69181 241.066289 
L 120.936463 239.768239 
L 121.181116 239.419834 
L 121.425769 239.729581 
L 121.915075 237.148735 
L 122.159728 236.792813 
L 122.649034 234.688663 
L 122.893687 236.958585 
L 123.13834 237.967916 
L 123.382993 238.291149 
L 123.627646 238.301351 
L 123.872299 235.787407 
L 124.116952 272.785256 
L 124.361605 275.060929 
L 124.606258 272.829363 
L 124.850911 273.279842 
L 125.095564 273.042317 
L 125.340217 270.902907 
L 125.829523 264.829238 
L 126.074176 265.00595 
L 126.318829 264.898208 
L 126.563482 265.31384 
L 126.808135 267.398682 
L 127.052788 268.118814 
L 127.297441 269.398659 
L 127.542094 271.535003 
L 128.0314 273.630112 
L 128.276053 271.967478 
L 128.520706 276.112444 
L 128.765359 274.485477 
L 129.010012 269.451638 
L 129.254665 273.16215 
L 129.499318 273.438664 
L 129.743971 273.456586 
L 129.988624 273.243698 
L 130.233277 274.005878 
L 130.47793 273.043874 
L 130.722583 269.627912 
L 130.967236 271.121658 
L 131.456542 266.149783 
L 131.701195 263.617123 
L 131.945848 263.15526 
L 132.190501 265.0983 
L 132.435154 265.123983 
L 132.679807 262.661704 
L 132.92446 263.014205 
L 133.169113 260.412006 
L 133.658419 261.775767 
L 133.903072 263.758057 
L 134.147725 263.092469 
L 134.392378 264.308816 
L 134.637031 263.362747 
L 134.881684 263.007766 
L 135.126337 263.769597 
L 135.615643 260.142758 
L 135.860297 262.832067 
L 136.10495 263.761049 
L 136.349603 263.696077 
L 136.594256 266.050159 
L 136.838909 267.280714 
L 137.083562 264.48702 
L 137.328215 263.777049 
L 137.572868 270.340811 
L 137.817521 271.555017 
L 138.062174 271.65272 
L 138.55148 270.670029 
L 138.796133 271.121975 
L 139.040786 269.57602 
L 139.285439 269.032437 
L 139.530092 266.280718 
L 139.774745 266.335724 
L 140.019398 267.391505 
L 140.264051 265.866132 
L 140.508704 267.368896 
L 140.753357 248.594925 
L 140.99801 246.348146 
L 141.242663 245.719715 
L 141.487316 247.150102 
L 141.731969 246.578989 
L 141.976622 248.516977 
L 142.710581 242.132012 
L 142.955234 242.749803 
L 143.199887 244.162585 
L 143.44454 243.82954 
L 143.689193 244.163988 
L 143.933846 244.808598 
L 144.178499 243.954644 
L 144.423152 240.9216 
L 144.912458 243.384122 
L 145.401764 239.361219 
L 145.646417 238.504321 
L 145.89107 240.785411 
L 146.135723 240.887662 
L 146.380376 240.341331 
L 146.625029 238.769459 
L 146.869682 238.963387 
L 147.114335 238.903329 
L 147.358988 239.54214 
L 147.603641 241.282007 
L 148.092947 240.427429 
L 148.3376 233.801963 
L 148.582253 232.697363 
L 148.826906 230.229181 
L 149.071559 231.831472 
L 149.560865 227.805714 
L 149.805518 228.085895 
L 150.050171 227.00512 
L 150.294824 227.62382 
L 150.539477 227.502406 
L 150.78413 225.743555 
L 151.028783 226.752301 
L 151.273436 226.737056 
L 151.518089 227.294416 
L 151.762742 221.966367 
L 152.252048 225.915912 
L 152.496701 225.960514 
L 152.741354 229.594554 
L 152.986007 226.44283 
L 153.23066 226.375441 
L 153.475313 228.259534 
L 153.719966 223.6601 
L 153.964619 230.046622 
L 154.943231 234.554338 
L 155.187884 231.519486 
L 155.432537 234.622473 
L 155.67719 234.481921 
L 155.921843 235.442984 
L 156.166496 238.984366 
L 156.411149 237.590487 
L 156.655802 237.729977 
L 156.900455 235.116061 
L 157.145108 215.47911 
L 157.389761 215.891247 
L 157.634414 214.73499 
L 158.12372 210.773978 
L 158.368374 209.790403 
L 158.613027 207.966401 
L 158.85768 204.619629 
L 159.102333 204.463603 
L 159.346986 203.88005 
L 159.591639 205.443059 
L 159.836292 205.052282 
L 160.080945 206.988584 
L 160.325598 206.744879 
L 160.570251 207.071186 
L 160.814904 210.822699 
L 161.059557 210.096371 
L 161.548863 215.049716 
L 161.793516 213.969461 
L 162.038169 213.869942 
L 162.282822 214.871828 
L 162.527475 211.251801 
L 162.772128 213.382015 
L 163.016781 212.688352 
L 163.261434 210.716515 
L 163.506087 210.352013 
L 163.75074 213.691632 
L 163.995393 213.823686 
L 164.240046 215.965156 
L 164.484699 219.963017 
L 164.729352 220.560762 
L 164.974005 222.413974 
L 165.218658 220.999222 
L 165.707964 219.672457 
L 165.952617 212.418795 
L 166.19727 212.247978 
L 166.931229 227.934119 
L 167.420535 221.123961 
L 167.665188 227.786495 
L 167.909841 227.408029 
L 168.6438 219.864488 
L 168.888453 219.747615 
L 169.133106 220.307586 
L 169.377759 217.429911 
L 169.622412 219.770629 
L 169.867065 220.442056 
L 170.111718 226.229195 
L 170.356371 227.980635 
L 170.601024 223.741875 
L 170.845677 222.912931 
L 171.09033 216.873556 
L 171.334983 222.581807 
L 171.579636 221.110094 
L 172.068942 227.034314 
L 172.313595 228.296156 
L 172.558248 227.732519 
L 172.802901 223.33196 
L 173.047554 222.618883 
L 173.53686 225.448729 
L 173.781513 225.130775 
L 174.026166 223.551434 
L 174.270819 224.556969 
L 174.515472 223.160381 
L 174.760125 222.884969 
L 175.004778 222.107422 
L 175.249431 217.40289 
L 175.494084 218.38885 
L 175.738737 217.392429 
L 175.98339 218.072874 
L 176.228043 216.108109 
L 176.472696 218.251346 
L 176.717349 218.090196 
L 176.962002 216.595258 
L 177.206655 214.294795 
L 177.451308 215.430405 
L 177.695961 214.290529 
L 177.940614 212.450827 
L 178.185267 216.627225 
L 178.674573 215.31723 
L 179.163879 203.17067 
L 179.408532 208.268071 
L 179.653185 207.442062 
L 179.897838 208.505531 
L 180.142491 211.653104 
L 180.387144 209.52941 
L 180.631798 210.185624 
L 180.876451 205.981378 
L 181.121104 206.420762 
L 181.365757 202.198254 
L 181.61041 203.263896 
L 181.855063 199.147703 
L 182.099716 202.041678 
L 182.344369 206.259888 
L 182.589022 203.472195 
L 182.833675 205.261213 
L 183.567634 202.589388 
L 183.812287 205.107702 
L 184.05694 209.293166 
L 184.301593 206.383962 
L 184.546246 206.73051 
L 184.790899 203.305676 
L 185.035552 201.970834 
L 185.280205 204.039416 
L 185.524858 204.459646 
L 186.014164 202.377261 
L 186.258817 200.231267 
L 186.50347 204.992662 
L 186.748123 194.347463 
L 186.992776 193.165175 
L 187.482082 195.699384 
L 187.726735 196.27439 
L 187.971388 198.405967 
L 188.216041 195.358627 
L 188.705347 193.192228 
L 188.95 193.434019 
L 189.683959 190.393426 
L 189.928612 190.709677 
L 190.173265 188.939196 
L 190.417918 188.479733 
L 190.662571 187.300932 
L 190.907224 188.010133 
L 191.151877 189.930929 
L 191.39653 190.205952 
L 191.641183 191.26994 
L 191.885836 186.248168 
L 192.130489 186.04214 
L 192.375142 186.972176 
L 192.864448 187.348356 
L 193.109101 191.212525 
L 193.353754 188.79373 
L 193.598407 188.63125 
L 193.84306 189.830275 
L 194.087713 192.862743 
L 194.332366 190.561923 
L 194.577019 192.48692 
L 194.821672 191.16481 
L 195.066325 192.876756 
L 195.310978 196.148905 
L 195.555631 195.335612 
L 195.800284 191.171378 
L 196.044937 193.766797 
L 196.534243 189.825199 
L 196.778896 187.593666 
L 197.023549 193.586735 
L 197.268202 196.521452 
L 197.512855 192.142821 
L 197.757508 189.838563 
L 198.002161 193.71321 
L 198.246814 192.384287 
L 198.491467 195.590994 
L 198.73612 201.574186 
L 198.980773 211.395711 
L 199.225426 214.771142 
L 199.470079 216.229928 
L 199.714732 214.151128 
L 199.959385 215.156566 
L 200.448691 203.059717 
L 200.693344 205.759569 
L 200.937997 204.010482 
L 201.18265 200.492811 
L 201.427303 202.89208 
L 201.671956 202.410251 
L 201.916609 204.720023 
L 202.161262 202.11437 
L 202.405915 193.241534 
L 202.650568 191.195804 
L 202.895221 195.600985 
L 203.139875 197.366583 
L 203.873834 191.143595 
L 204.36314 188.784793 
L 204.607793 190.111169 
L 204.852446 187.031051 
L 205.097099 189.149993 
L 205.341752 186.109026 
L 206.075711 193.871927 
L 206.320364 191.82344 
L 206.565017 191.525825 
L 206.80967 191.976546 
L 207.054323 188.746452 
L 207.298976 190.077304 
L 208.032935 183.599341 
L 208.277588 179.690002 
L 208.522241 181.886437 
L 208.766894 181.116886 
L 209.011547 187.269435 
L 209.2562 188.209527 
L 209.500853 187.803457 
L 209.745506 188.202505 
L 209.990159 190.93082 
L 210.479465 187.172949 
L 210.724118 186.685655 
L 210.968771 184.027274 
L 211.213424 184.789722 
L 211.458077 184.669524 
L 211.70273 184.027712 
L 211.947383 186.36517 
L 212.192036 191.093528 
L 212.436689 192.249882 
L 212.681342 191.398263 
L 212.925995 194.832115 
L 213.170648 194.764125 
L 213.415301 194.951242 
L 213.659954 186.945951 
L 213.904607 187.806652 
L 214.14926 192.730592 
L 214.393913 193.061034 
L 214.638566 192.27434 
L 214.883219 198.28173 
L 215.127872 196.279662 
L 215.372525 195.390302 
L 215.617178 195.06985 
L 216.106484 188.04442 
L 216.351137 188.386232 
L 216.59579 189.537671 
L 216.840443 191.227203 
L 217.085096 189.857831 
L 217.329749 191.124635 
L 217.574402 190.510055 
L 217.819055 187.187887 
L 218.063708 187.086617 
L 218.308361 186.800143 
L 218.553014 208.114398 
L 218.797667 207.22027 
L 219.04232 207.500888 
L 219.286973 207.350345 
L 219.531626 183.381814 
L 219.776279 183.839752 
L 220.020932 185.192922 
L 220.265585 184.440595 
L 220.510238 179.632587 
L 220.754891 177.629091 
L 220.999544 172.466734 
L 221.244197 173.766317 
L 221.48885 172.7915 
L 221.978156 178.801242 
L 222.222809 177.8883 
L 222.712115 182.814171 
L 222.956768 179.644946 
L 223.201421 182.142776 
L 223.446074 181.363153 
L 223.690727 184.037427 
L 223.93538 184.712504 
L 224.180033 179.686936 
L 224.424686 179.669177 
L 224.669339 176.333985 
L 224.913992 177.596751 
L 225.158645 174.036798 
L 225.403298 172.715677 
L 225.647952 170.016377 
L 225.892605 171.103265 
L 226.137258 170.923301 
L 226.626564 176.576732 
L 227.11587 173.639502 
L 227.360523 173.76729 
L 227.605176 173.74061 
L 227.849829 165.765567 
L 228.094482 164.274829 
L 228.339135 164.560994 
L 228.583788 164.153642 
L 228.828441 165.980061 
L 229.073094 163.108825 
L 229.317747 163.905769 
L 229.5624 165.424647 
L 229.807053 165.577444 
L 230.296359 169.486507 
L 231.030318 162.412015 
L 231.274971 163.715539 
L 231.519624 163.594676 
L 231.764277 163.882966 
L 232.00893 165.865718 
L 232.498236 173.422915 
L 232.742889 157.661065 
L 232.987542 159.566275 
L 233.232195 163.834293 
L 233.476848 163.290313 
L 233.966154 155.435419 
L 234.210807 153.223187 
L 234.45546 154.538761 
L 234.700113 157.10823 
L 234.944766 152.584927 
L 235.189419 154.147563 
L 235.434072 153.960771 
L 235.678725 153.420927 
L 235.923378 149.652432 
L 236.168031 148.989406 
L 236.412684 133.846694 
L 236.657337 138.935887 
L 236.90199 138.266617 
L 237.391296 145.937979 
L 237.880602 145.069007 
L 238.369908 149.224709 
L 238.614561 147.777422 
L 238.859214 151.032168 
L 239.103867 150.641538 
L 239.34852 144.017118 
L 239.837826 145.018939 
L 240.082479 145.876818 
L 240.327132 144.321432 
L 240.571785 144.431444 
L 240.816438 140.776725 
L 241.061091 142.937738 
L 241.305744 141.111482 
L 241.550397 140.415094 
L 241.79505 142.17568 
L 242.039703 141.558797 
L 242.284356 138.6264 
L 242.529009 146.639281 
L 242.773662 141.315482 
L 243.018315 146.025609 
L 243.262968 146.179591 
L 243.507621 147.427079 
L 243.752274 146.29056 
L 243.996927 150.87976 
L 244.24158 151.5133 
L 244.730886 137.675376 
L 244.975539 145.87033 
L 245.220192 145.448479 
L 245.464845 139.946872 
L 245.709498 138.354183 
L 245.954151 141.027549 
L 246.443457 138.635304 
L 246.68811 141.086537 
L 246.932763 149.112361 
L 247.177416 150.778944 
L 247.422069 146.070422 
L 247.666722 146.621392 
L 247.911375 145.139672 
L 248.156029 116.107297 
L 248.400682 113.58436 
L 248.889988 104.874328 
L 249.134641 115.535648 
L 249.379294 116.687282 
L 249.623947 115.671448 
L 250.113253 117.288142 
L 250.357906 117.538787 
L 251.091865 111.882194 
L 251.336518 112.225822 
L 252.070477 143.181524 
L 252.31513 142.785346 
L 252.559783 128.705226 
L 252.804436 124.27176 
L 253.049089 126.325405 
L 253.293742 129.403074 
L 253.538395 138.925897 
L 253.783048 132.614581 
L 254.027701 133.525918 
L 254.272354 137.125379 
L 254.517007 130.337295 
L 254.76166 132.760145 
L 255.006313 127.280726 
L 255.250966 126.037293 
L 255.495619 128.034124 
L 255.740272 121.16188 
L 256.229578 100.278674 
L 256.474231 105.363569 
L 256.718884 105.594866 
L 256.963537 108.517224 
L 257.452843 117.606761 
L 257.697496 118.652405 
L 258.186802 131.481144 
L 258.676108 118.99253 
L 258.920761 113.288513 
L 259.165414 110.550352 
L 259.410067 114.133579 
L 259.65472 112.595449 
L 259.899373 112.634083 
L 260.388679 104.031987 
L 260.633332 101.708769 
L 260.877985 114.852916 
L 261.611944 96.820429 
L 261.856597 99.791817 
L 262.10125 99.571824 
L 262.590556 107.204634 
L 262.835209 100.981468 
L 263.324515 106.444295 
L 263.569168 103.954185 
L 263.813821 84.293522 
L 264.058474 86.293758 
L 264.303127 84.44027 
L 264.54778 88.94664 
L 264.792433 82.362151 
L 265.281739 98.535117 
L 265.526392 99.523525 
L 265.771045 100.043371 
L 266.015698 101.754474 
L 266.749657 116.59962 
L 267.238963 101.506553 
L 267.728269 108.221587 
L 267.972922 115.830101 
L 268.217575 110.941777 
L 268.462228 110.842064 
L 268.706881 111.997834 
L 268.951534 108.138109 
L 269.196187 111.969922 
L 269.44084 113.931443 
L 269.685493 106.29393 
L 269.930146 108.016224 
L 270.174799 106.885301 
L 270.419452 108.054955 
L 270.664106 106.864428 
L 270.908759 111.89971 
L 271.153412 109.650483 
L 271.398065 97.32091 
L 271.642718 95.319636 
L 272.132024 107.452393 
L 272.376677 106.741538 
L 272.62133 102.858522 
L 272.865983 105.497683 
L 273.110636 105.011994 
L 273.355289 105.789216 
L 273.599942 102.41904 
L 274.089248 109.593376 
L 274.333901 116.753099 
L 274.823207 120.522777 
L 275.312513 136.685281 
L 275.557166 137.082837 
L 275.801819 135.626775 
L 276.046472 147.351353 
L 276.291125 144.59214 
L 276.535778 154.896159 
L 276.780431 149.543199 
L 277.025084 147.453272 
L 277.269737 147.394933 
L 277.51439 146.034027 
L 277.759043 149.848907 
L 278.003696 150.443214 
L 278.248349 162.008507 
L 278.493002 163.58775 
L 278.737655 158.692096 
L 278.982308 156.392395 
L 279.471614 168.839019 
L 279.716267 161.209924 
L 279.96092 174.830548 
L 280.205573 178.833372 
L 280.694879 173.296717 
L 280.939532 153.693241 
L 281.184185 156.665812 
L 281.428838 149.776523 
L 281.673491 138.428481 
L 281.918144 145.601082 
L 282.162797 142.927731 
L 282.40745 146.474595 
L 282.652103 152.314624 
L 282.896756 151.882376 
L 283.141409 150.260687 
L 283.386062 149.739041 
L 283.630715 149.65579 
L 283.875368 152.733491 
L 284.120021 144.001824 
L 284.364674 147.213688 
L 284.609327 143.061958 
L 284.85398 143.230196 
L 285.098633 149.857763 
L 285.343286 150.86805 
L 285.587939 149.011594 
L 285.832592 141.373692 
L 286.077245 129.845475 
L 286.321898 126.870487 
L 286.566551 126.931081 
L 287.30051 139.349468 
L 287.545163 137.978457 
L 287.789816 142.342961 
L 288.034469 142.010767 
L 288.523775 147.069178 
L 289.013081 144.652718 
L 289.257734 144.444971 
L 289.502387 143.584172 
L 289.74704 150.110744 
L 289.991693 152.232427 
L 290.236346 148.72092 
L 290.480999 153.372319 
L 290.725652 154.646584 
L 290.970305 156.899899 
L 291.704264 142.570398 
L 291.948917 141.884212 
L 292.19357 137.921773 
L 292.438223 145.274824 
L 292.682876 143.650605 
L 292.92753 143.519589 
L 293.416836 147.488402 
L 293.661489 147.239735 
L 293.906142 144.708559 
L 294.150795 146.696404 
L 294.395448 127.5388 
L 294.640101 126.427518 
L 294.884754 127.645601 
L 295.37406 134.568383 
L 295.618713 133.247619 
L 295.863366 134.389733 
L 296.108019 129.321866 
L 296.352672 134.346558 
L 296.597325 133.639482 
L 296.841978 135.715655 
L 297.086631 135.785541 
L 297.331284 136.36204 
L 297.575937 138.246847 
L 297.82059 143.008063 
L 298.065243 138.718961 
L 298.309896 139.459691 
L 298.554549 133.296859 
L 298.799202 133.608439 
L 299.043855 136.21933 
L 299.288508 135.074881 
L 299.777814 138.653437 
L 300.022467 137.483815 
L 300.26712 139.910785 
L 300.511773 140.52642 
L 300.756426 138.657816 
L 301.001079 139.983543 
L 301.245732 141.930987 
L 301.735038 151.942937 
L 301.979691 150.364261 
L 302.224344 151.940893 
L 302.468997 151.851901 
L 302.71365 152.432681 
L 302.958303 146.030183 
L 303.202956 145.592129 
L 303.447609 144.296504 
L 303.692262 140.245266 
L 303.936915 157.512354 
L 304.181568 164.102423 
L 304.915527 147.858986 
L 305.16018 145.007099 
L 305.404833 148.883449 
L 305.649486 147.913141 
L 306.138792 141.280741 
L 306.628098 132.953117 
L 307.117404 129.192213 
L 307.362057 130.373106 
L 308.096016 124.837051 
L 308.340669 126.097692 
L 308.829975 123.942258 
L 309.074628 123.991628 
L 309.319281 124.769905 
L 309.563934 120.291139 
L 309.808587 126.215409 
L 310.05324 124.253546 
L 310.297893 132.56067 
L 310.542546 134.545612 
L 310.787199 132.51563 
L 311.031852 133.087912 
L 311.276505 131.155195 
L 311.521158 131.783999 
L 312.010464 129.702149 
L 312.49977 125.19539 
L 312.989076 128.438151 
L 313.233729 128.476768 
L 313.478382 129.290288 
L 313.723035 131.505051 
L 313.967688 132.377916 
L 314.212341 135.962392 
L 314.456994 135.04074 
L 314.701647 136.964683 
L 314.9463 140.436454 
L 315.190953 141.887099 
L 315.435607 141.780687 
L 315.68026 133.312364 
L 315.924913 135.61453 
L 316.169566 131.73432 
L 316.414219 132.369272 
L 316.658872 131.305722 
L 316.903525 137.670478 
L 317.148178 132.282095 
L 317.392831 136.613805 
L 317.637484 136.964164 
L 317.882137 135.950665 
L 318.12679 144.620637 
L 318.371443 148.023916 
L 318.616096 144.838083 
L 318.860749 144.073543 
L 319.350055 140.361539 
L 319.594708 141.811762 
L 320.084014 127.34977 
L 320.328667 122.284466 
L 320.57332 126.06227 
L 320.817973 125.147674 
L 321.062626 120.638725 
L 321.307279 120.684446 
L 321.796585 123.537955 
L 322.041238 121.452976 
L 322.285891 123.613778 
L 322.530544 121.587073 
L 322.775197 121.559095 
L 323.01985 117.242145 
L 323.509156 112.952021 
L 323.753809 108.920473 
L 323.998462 109.174719 
L 324.243115 102.774006 
L 324.487768 102.609206 
L 324.732421 101.963194 
L 324.977074 107.201471 
L 325.221727 105.017573 
L 325.46638 94.256556 
L 325.955686 106.23697 
L 326.200339 112.377387 
L 326.444992 107.420442 
L 326.689645 107.664422 
L 326.934298 104.946389 
L 327.178951 103.894743 
L 327.423604 108.766508 
L 327.668257 110.844789 
L 328.157563 120.175726 
L 328.402216 111.087714 
L 328.891522 104.838825 
L 329.136175 106.797249 
L 329.625481 102.590295 
L 329.870134 105.188114 
L 330.114787 103.216423 
L 330.604093 107.860118 
L 330.848746 109.946638 
L 331.093399 114.547791 
L 331.338052 116.284715 
L 331.582705 110.907037 
L 331.827358 110.703506 
L 332.072011 111.319141 
L 332.316664 112.348502 
L 332.561317 110.107837 
L 332.80597 118.048318 
L 333.050623 118.644539 
L 333.295276 126.272564 
L 333.539929 125.014404 
L 334.029235 126.525999 
L 334.273888 124.833872 
L 334.518541 129.426559 
L 335.007847 131.573559 
L 335.497153 132.490605 
L 335.741806 131.492822 
L 335.986459 132.740683 
L 336.231112 134.649234 
L 337.209724 124.482783 
L 337.454377 123.925326 
L 337.69903 124.541187 
L 338.188337 121.277407 
L 338.43299 121.823122 
L 338.677643 120.237958 
L 338.922296 121.249316 
L 339.166949 119.119134 
L 339.656255 118.308679 
L 340.390214 114.76793 
L 340.634867 115.567064 
L 340.87952 115.420089 
L 341.124173 117.149925 
L 341.368826 117.634446 
L 341.613479 115.531301 
L 341.858132 114.414667 
L 342.102785 113.87411 
L 342.592091 112.11135 
L 342.836744 113.100017 
L 343.081397 119.645808 
L 343.32605 119.323524 
L 343.570703 116.916406 
L 343.815356 119.540483 
L 344.304662 119.998308 
L 344.549315 117.559466 
L 344.793968 119.491778 
L 345.283274 121.384013 
L 345.527927 120.669882 
L 345.77258 117.747005 
L 346.017233 120.853268 
L 346.751192 113.714403 
L 346.995845 109.48677 
L 347.240498 108.918202 
L 347.485151 106.773035 
L 347.729804 103.50541 
L 347.974457 102.700713 
L 348.463763 96.161296 
L 348.708416 95.077781 
L 348.953069 97.894148 
L 349.197722 102.468248 
L 349.442375 102.383083 
L 349.687028 103.581931 
L 349.931681 102.140109 
L 350.176334 102.175271 
L 350.66564 98.191342 
L 350.910293 98.683389 
L 351.154946 105.665207 
L 351.399599 105.657163 
L 351.644252 107.976148 
L 351.888905 108.043342 
L 352.378211 105.038528 
L 352.622864 100.627606 
L 352.867517 99.371035 
L 353.11217 98.974582 
L 353.356823 101.400855 
L 353.601476 96.832139 
L 353.846129 96.46634 
L 354.090782 95.596329 
L 354.335435 93.507506 
L 354.580088 93.558952 
L 354.824741 88.776115 
L 355.069394 86.479302 
L 355.5587 84.576411 
L 355.803353 89.920257 
L 356.292659 78.660073 
L 356.537312 78.324538 
L 356.781965 74.227336 
L 357.271271 77.198075 
L 357.515924 77.555473 
L 357.760577 76.458366 
L 358.00523 76.452787 
L 358.249883 76.645597 
L 358.739189 65.27866 
L 358.983842 75.390064 
L 359.717801 71.066999 
L 359.962454 71.010817 
L 360.207107 68.664569 
L 360.451761 64.787619 
L 360.696414 66.613049 
L 361.18572 68.202754 
L 361.430373 61.996325 
L 361.675026 62.824946 
L 361.919679 59.805064 
L 362.164332 61.893336 
L 362.408985 62.991967 
L 362.653638 57.07524 
L 362.898291 68.673132 
L 363.142944 67.329272 
L 363.63225 61.145745 
L 363.876903 64.093388 
L 364.121556 62.988464 
L 364.366209 58.392274 
L 364.610862 59.894819 
L 365.100168 51.35382 
L 365.344821 46.081953 
L 365.589474 51.100027 
L 365.834127 59.599117 
L 366.07878 55.029104 
L 366.323433 59.070189 
L 366.568086 57.437309 
L 366.812739 59.830138 
L 367.057392 54.822671 
L 367.302045 57.732265 
L 367.546698 55.475155 
L 367.791351 54.947621 
L 368.036004 55.062093 
L 368.280657 50.133709 
L 368.52531 48.891639 
L 368.769963 46.334934 
L 369.014616 49.229185 
L 369.259269 47.656899 
L 369.503922 43.702553 
L 369.993228 46.962603 
L 370.237881 45.567232 
L 370.482534 45.612969 
L 370.727187 40.705734 
L 370.97184 46.345931 
L 371.216493 35.515578 
L 371.705799 49.611755 
L 372.195105 47.37281 
L 372.929064 63.342586 
L 373.173717 59.268707 
L 373.41837 68.167332 
L 373.663023 66.686844 
L 373.907676 59.879768 
L 374.152329 61.087876 
L 374.396982 57.642964 
L 374.641635 67.206236 
L 374.886288 68.117605 
L 375.130941 65.272562 
L 375.375594 59.899003 
L 375.620247 59.062209 
L 375.8649 55.276831 
L 376.109553 56.595584 
L 376.354206 71.218062 
L 376.598859 67.280226 
L 376.843512 68.425665 
L 377.088165 58.479434 
L 377.332818 59.128609 
L 377.577471 60.502701 
L 377.822124 67.031462 
L 378.066777 67.766564 
L 378.31143 72.923796 
L 378.556083 67.359277 
L 378.800736 64.685894 
L 379.045389 64.165854 
L 379.290042 68.880733 
L 379.534695 71.451224 
L 379.779348 71.442076 
L 380.024001 72.893337 
L 380.268654 69.802287 
L 380.513307 69.512846 
L 380.75796 64.208574 
L 381.002613 70.522241 
L 381.247266 69.206018 
L 381.491919 64.550597 
L 381.736572 70.117419 
L 381.981225 68.027233 
L 382.225878 61.881074 
L 382.470531 63.262984 
L 382.959838 58.658879 
L 383.204491 59.413574 
L 383.449144 62.543938 
L 383.693797 62.575143 
L 384.183103 59.397485 
L 384.427756 55.085773 
L 384.672409 58.324544 
L 384.917062 57.131844 
L 385.161715 50.538337 
L 385.406368 48.152384 
L 385.651021 49.511847 
L 385.895674 53.851358 
L 386.140327 53.713206 
L 386.38498 59.466447 
L 386.629633 60.706409 
L 386.874286 109.980487 
L 387.118939 117.05498 
L 387.363592 107.762189 
L 387.608245 114.409315 
L 387.852898 111.067052 
L 387.852898 111.067052 
" style="fill:none;stroke:#1f77b4;stroke-linecap:square;stroke-width:1.5;"/>
   </g>
   <g id="line2d_28">
    <path clip-path="url(#p39b5ecae6e)" d="M 63.198352 254.182926 
L 63.443005 252.33345 
L 63.687658 253.587693 
L 63.932311 252.737359 
L 64.176964 251.355566 
L 64.421617 249.293506 
L 64.66627 248.336881 
L 64.910923 254.14041 
L 65.155576 254.52306 
L 65.400229 257.754329 
L 65.644882 259.051088 
L 65.889535 262.282357 
L 66.134188 261.006856 
L 66.623494 263.749183 
L 66.868147 262.005998 
L 67.1128 263.770441 
L 67.357453 263.5366 
L 67.846759 260.687981 
L 68.091412 262.558716 
L 68.336066 261.070631 
L 68.580719 261.113148 
L 68.825372 264.0468 
L 69.070025 264.3019 
L 69.314678 262.962624 
L 69.559331 262.728782 
L 70.048637 258.455854 
L 70.29329 261.34699 
L 70.537943 259.136121 
L 70.782596 258.222013 
L 71.027249 255.352136 
L 71.271902 254.693127 
L 71.516555 256.58512 
L 71.761208 256.96777 
L 72.495167 247.273963 
L 72.73982 248.995889 
L 73.229126 250.930399 
L 73.473779 249.718673 
L 73.718432 250.526491 
L 73.963085 252.439742 
L 74.207738 253.034976 
L 74.452391 249.442315 
L 74.697044 249.080923 
L 75.431003 255.543461 
L 75.675656 255.968628 
L 75.920309 258.158237 
L 76.164962 258.158237 
L 76.654268 257.286645 
L 76.898921 257.988171 
L 77.143574 258.094462 
L 77.388227 262.728782 
L 77.63288 262.176065 
L 77.877533 259.348705 
L 78.366839 264.535742 
L 78.611492 247.932972 
L 78.856145 247.741647 
L 79.100798 246.614955 
L 79.345451 247.911714 
L 79.834757 244.74422 
L 80.07941 248.273106 
L 80.568716 250.739074 
L 80.813369 251.057949 
L 81.058022 251.908283 
L 81.302675 255.564719 
L 81.547328 254.693127 
L 81.791981 249.697415 
L 82.036634 249.548607 
L 82.52594 245.892171 
L 83.015246 243.936403 
L 83.259899 244.170245 
L 83.504552 242.256993 
L 83.749205 242.55461 
L 83.993858 241.980635 
L 84.483164 246.104754 
L 84.727817 245.743362 
L 84.97247 246.614955 
L 85.217123 246.189788 
L 85.461776 250.802849 
L 85.706429 245.934687 
L 85.951082 244.722962 
L 86.195735 247.337738 
L 86.440388 248.081781 
L 86.685041 244.531636 
L 86.929694 242.873485 
L 87.174347 244.276536 
L 87.419 244.000178 
L 87.663653 246.80628 
L 87.908306 246.80628 
L 88.152959 250.335165 
L 88.397612 245.296937 
L 88.642265 247.295222 
L 89.131571 239.025724 
L 89.376224 239.918575 
L 89.620877 236.453464 
L 89.86553 236.559756 
L 90.110183 235.836972 
L 90.599489 240.046125 
L 90.844143 240.386259 
L 91.088796 239.812283 
L 91.333449 238.451749 
L 91.578102 240.216192 
L 91.822755 239.8548 
L 92.067408 241.172817 
L 92.312061 241.704276 
L 92.801367 238.728107 
L 93.04602 232.13802 
L 93.290673 231.776628 
L 93.535326 231.967953 
L 93.779979 233.902462 
L 94.024632 234.774055 
L 94.269285 230.479868 
L 94.513938 234.96538 
L 94.758591 229.990926 
L 95.003244 233.817429 
L 95.247897 234.455179 
L 95.49255 233.923721 
L 95.737203 235.73068 
L 95.981856 234.136304 
L 96.226509 234.306371 
L 96.471162 234.944121 
L 96.715815 236.198364 
L 96.960468 236.538498 
L 97.205121 239.323341 
L 97.694427 236.389689 
L 97.93908 241.385401 
L 98.183733 239.939833 
L 98.428386 237.048698 
L 98.917692 237.984065 
L 99.162345 236.538498 
L 99.406998 233.371004 
L 99.896304 236.751081 
L 100.38561 235.34803 
L 100.630263 235.369288 
L 101.119569 232.435636 
L 101.364222 232.711995 
L 101.853528 240.301225 
L 102.098181 238.961949 
L 102.342834 241.831826 
L 102.587487 239.684733 
L 102.83214 240.875201 
L 103.076793 241.491693 
L 103.566099 245.892171 
L 103.810752 244.87177 
L 104.055405 241.959376 
L 104.300058 244.23402 
L 104.789364 242.490835 
L 105.034017 241.002751 
L 105.27867 240.768909 
L 105.523323 236.687306 
L 105.767976 235.284255 
L 106.012629 236.517239 
L 106.257282 242.830969 
L 106.501935 239.280824 
L 106.991241 244.87177 
L 107.7252 237.006181 
L 107.969853 237.048698 
L 108.214506 235.369288 
L 108.459159 248.995889 
L 108.703812 254.310476 
L 108.948465 254.77816 
L 109.193118 256.351278 
L 109.682424 248.060522 
L 109.927077 249.569865 
L 110.17173 252.163383 
L 110.416383 251.929542 
L 110.661036 254.501802 
L 110.905689 248.336881 
L 111.150342 247.146413 
L 111.394995 244.319053 
L 111.639648 244.382828 
L 111.884301 250.39894 
L 112.128954 249.973774 
L 112.373607 250.186357 
L 112.61826 250.165099 
L 112.862913 250.866624 
L 113.107566 249.739932 
L 113.35222 247.975489 
L 113.596873 248.124297 
L 113.841526 251.334308 
L 114.575485 251.228016 
L 115.064791 256.648895 
L 115.309444 255.288361 
L 115.554097 254.77816 
L 115.79875 252.864909 
L 116.043403 254.77816 
L 116.288056 253.651468 
L 116.532709 249.867482 
L 116.777362 250.165099 
L 117.266668 244.574153 
L 117.511321 244.893028 
L 118.000627 248.421914 
L 118.24528 252.33345 
L 118.489933 252.057092 
L 118.734586 250.377682 
L 118.979239 246.104754 
L 119.223892 245.615812 
L 119.468545 241.449176 
L 119.713198 242.342027 
L 119.957851 242.363285 
L 120.202504 239.812283 
L 120.447157 240.832684 
L 120.69181 239.514666 
L 120.936463 239.089499 
L 121.181116 239.387116 
L 121.670422 236.708564 
L 121.915075 236.368431 
L 122.404381 234.200079 
L 122.649034 236.517239 
L 122.893687 237.53764 
L 123.13834 237.899032 
L 123.382993 237.899032 
L 123.627646 235.305513 
L 123.872299 273.145373 
L 124.116952 275.6326 
L 124.361605 272.528881 
L 124.606258 273.294181 
L 124.850911 273.145373 
L 125.095564 271.083313 
L 125.58487 265.130976 
L 125.829523 265.492368 
L 126.074176 265.279784 
L 126.318829 265.747468 
L 126.563482 267.894561 
L 126.808135 268.511053 
L 127.052788 269.765295 
L 127.297441 271.933647 
L 127.786747 273.910673 
L 128.0314 272.295039 
L 128.276053 276.334125 
L 128.520706 274.697232 
L 128.765359 269.659004 
L 129.010012 273.145373 
L 129.254665 273.655573 
L 129.743971 273.379215 
L 129.988624 274.08074 
L 130.233277 272.996564 
L 130.47793 269.510195 
L 130.722583 271.062055 
L 131.211889 265.832501 
L 131.456542 263.281499 
L 131.701195 262.750041 
L 131.945848 264.68455 
L 132.190501 264.663292 
L 132.435154 262.048515 
L 132.679807 262.388649 
L 132.92446 259.816389 
L 133.413766 261.198181 
L 133.658419 263.238983 
L 133.903072 262.537457 
L 134.147725 263.812958 
L 134.392378 262.898849 
L 134.637031 262.49494 
L 134.881684 263.345274 
L 135.37099 259.837647 
L 135.615643 262.622491 
L 135.860297 263.642891 
L 136.10495 263.430308 
L 136.594256 267.214294 
L 136.838909 264.238125 
L 137.083562 263.515341 
L 137.328215 270.360529 
L 137.572868 271.678547 
L 137.817521 271.657288 
L 138.306827 270.530596 
L 138.55148 271.040796 
L 138.796133 269.510195 
L 139.040786 268.893703 
L 139.285439 266.130118 
L 139.530092 266.23641 
L 139.774745 267.341844 
L 140.019398 265.747468 
L 140.264051 267.278069 
L 140.508704 248.124297 
L 140.753357 245.700846 
L 140.99801 245.424487 
L 141.242663 246.827538 
L 141.487316 246.338596 
L 141.731969 248.251847 
L 142.465928 241.640501 
L 142.710581 242.278252 
L 142.955234 243.723819 
L 143.199887 243.404944 
L 143.44454 243.702561 
L 143.689193 244.446603 
L 143.933846 243.575011 
L 144.178499 240.428775 
L 144.667805 242.979777 
L 145.157111 238.919433 
L 145.401764 238.090357 
L 145.646417 240.386259 
L 145.89107 240.49255 
L 146.135723 239.897317 
L 146.380376 238.324199 
L 146.625029 238.536782 
L 146.869682 238.494266 
L 147.114335 239.132016 
L 147.358988 241.024009 
L 147.848294 240.131158 
L 148.092947 233.434779 
L 148.3376 232.350603 
L 148.582253 229.884635 
L 148.826906 231.479011 
L 149.316212 227.482441 
L 149.560865 227.865092 
L 149.805518 226.738399 
L 150.050171 227.312375 
L 150.294824 227.142308 
L 150.539477 225.399123 
L 150.78413 226.355749 
L 151.028783 226.377007 
L 151.273436 226.887208 
L 151.518089 221.593879 
L 152.007395 225.632965 
L 152.252048 225.526673 
L 152.496701 229.204368 
L 152.741354 226.100649 
L 152.986007 225.909324 
L 153.23066 227.907608 
L 153.475313 223.209513 
L 153.719966 229.629534 
L 154.209272 232.116761 
L 154.453925 232.541928 
L 154.698578 234.327629 
L 154.943231 231.160136 
L 155.187884 234.306371 
L 155.432537 234.200079 
L 155.67719 235.34803 
L 155.921843 238.983208 
L 156.166496 237.495123 
L 156.411149 237.580157 
L 156.655802 235.007897 
L 156.900455 215.216375 
L 157.145108 215.492733 
L 157.389761 214.493591 
L 157.879067 210.454505 
L 158.12372 209.519137 
L 158.368374 207.627144 
L 158.613027 204.225809 
L 158.85768 204.034484 
L 159.102333 203.43925 
L 159.346986 204.991109 
L 159.591639 204.608459 
L 159.836292 206.564227 
L 160.080945 206.351643 
L 160.325598 206.542969 
L 160.570251 210.433246 
L 160.814904 209.710462 
L 161.30421 214.663658 
L 161.548863 213.643257 
L 161.793516 213.558223 
L 162.038169 214.599882 
L 162.282822 210.837155 
L 162.527475 213.048023 
L 162.772128 212.410273 
L 163.016781 210.305696 
L 163.261434 209.944304 
L 163.506087 213.430673 
L 163.75074 213.60074 
L 163.995393 215.747833 
L 164.240046 219.808178 
L 164.484699 220.275861 
L 164.729352 222.210371 
L 165.218658 219.978245 
L 165.463311 219.361752 
L 165.707964 212.133914 
L 165.952617 211.900072 
L 166.686576 227.7588 
L 167.175882 220.828578 
L 167.420535 227.652508 
L 167.665188 227.2486 
L 167.909841 224.251172 
L 168.154494 222.720571 
L 168.399147 219.489303 
L 168.6438 219.446786 
L 168.888453 219.978245 
L 169.133106 217.150884 
L 169.377759 219.404269 
L 169.622412 220.212086 
L 169.867065 225.930582 
L 170.111718 227.716283 
L 170.356371 223.422097 
L 170.601024 222.571763 
L 170.845677 216.449359 
L 171.09033 222.231629 
L 171.334983 220.913612 
L 172.068942 227.992642 
L 172.313595 227.546216 
L 172.558248 222.975672 
L 172.802901 222.316663 
L 173.292207 225.144023 
L 173.53686 224.803889 
L 173.781513 223.273288 
L 174.026166 224.293689 
L 174.270819 222.890638 
L 174.515472 222.507988 
L 174.760125 221.721429 
L 175.004778 217.108368 
L 175.249431 218.022476 
L 175.494084 217.087109 
L 175.738737 217.661085 
L 175.98339 215.705317 
L 176.228043 217.85241 
L 176.472696 217.72486 
L 176.717349 216.173 
L 176.962002 213.85584 
L 177.206655 215.003791 
L 177.451308 213.85584 
L 177.695961 211.963847 
L 177.940614 216.215517 
L 178.42992 214.940016 
L 178.919226 202.673949 
L 179.163879 207.924761 
L 179.408532 206.989394 
L 179.653185 208.031053 
L 179.897838 211.368614 
L 180.142491 209.136487 
L 180.387144 209.774237 
L 180.631798 205.650118 
L 180.876451 206.054027 
L 181.121104 201.75984 
L 181.365757 202.865274 
L 181.61041 198.719897 
L 181.855063 201.611032 
L 182.099716 205.947735 
L 182.344369 203.0566 
L 182.589022 204.842301 
L 183.322981 202.142491 
L 183.567634 204.736009 
L 183.812287 208.945162 
L 184.05694 205.990252 
L 184.301593 206.309127 
L 184.546246 202.886533 
L 184.790899 201.547257 
L 185.035552 203.630575 
L 185.280205 204.119517 
L 185.769511 201.972424 
L 186.014164 199.846589 
L 186.258817 204.650976 
L 186.50347 193.936768 
L 186.748123 192.703784 
L 187.237429 195.233527 
L 187.482082 195.935053 
L 187.726735 197.997113 
L 187.971388 195.042202 
L 188.460694 192.746301 
L 188.705347 192.937626 
L 188.95 192.002259 
L 189.194653 190.577949 
L 189.439306 189.940199 
L 189.683959 190.344107 
L 189.928612 188.558406 
L 190.173265 188.026947 
L 190.417918 186.83648 
L 190.662571 187.623039 
L 190.907224 189.600065 
L 191.151877 189.812649 
L 191.39653 190.875566 
L 191.641183 185.794821 
L 191.885836 185.560979 
L 192.130489 186.538863 
L 192.619795 186.921513 
L 192.864448 190.811791 
L 193.109101 188.452114 
L 193.353754 188.175756 
L 193.598407 189.493774 
L 193.84306 192.448684 
L 194.087713 190.216557 
L 194.332366 192.066034 
L 194.577019 190.854308 
L 194.821672 192.448684 
L 195.066325 195.956311 
L 195.310978 195.063461 
L 195.555631 190.790533 
L 195.800284 193.469085 
L 196.28959 189.429998 
L 196.534243 187.21913 
L 196.778896 193.256501 
L 197.023549 196.253928 
L 197.268202 191.789675 
L 197.512855 189.451257 
L 197.757508 193.362793 
L 198.002161 191.981 
L 198.246814 195.276044 
L 198.491467 201.292157 
L 198.73612 211.198547 
L 198.980773 214.578624 
L 199.225426 215.981675 
L 199.470079 213.877099 
L 199.714732 214.961274 
L 200.204038 202.758983 
L 200.448691 205.522568 
L 200.693344 203.758125 
L 200.937997 200.165464 
L 201.18265 202.610174 
L 201.427303 202.142491 
L 201.671956 204.395875 
L 201.916609 201.866132 
L 202.161262 192.852592 
L 202.405915 190.811791 
L 202.650568 195.148494 
L 202.895221 196.934195 
L 203.629181 190.662983 
L 204.118487 188.303306 
L 204.36314 189.621324 
L 204.607793 186.538863 
L 204.852446 188.664698 
L 205.097099 185.624754 
L 205.831058 193.447826 
L 206.075711 191.385766 
L 206.320364 191.066891 
L 206.565017 191.534575 
L 206.80967 188.303306 
L 207.054323 189.621324 
L 207.788282 183.116269 
L 208.032935 179.289766 
L 208.277588 181.500635 
L 208.522241 180.671559 
L 208.766894 186.878997 
L 209.011547 187.856881 
L 209.2562 187.410455 
L 209.500853 187.835622 
L 209.745506 190.577949 
L 210.234812 186.857738 
L 210.479465 186.283763 
L 210.724118 183.583953 
L 210.968771 184.455545 
L 211.213424 184.26422 
L 211.458077 183.626469 
L 211.70273 185.986146 
L 211.947383 190.726758 
L 212.192036 192.023517 
L 212.436689 191.173183 
L 212.681342 194.489485 
L 213.170648 194.55326 
L 213.415301 186.645155 
L 213.659954 187.367939 
L 213.904607 192.427426 
L 214.14926 192.746301 
L 214.393913 191.959742 
L 214.638566 198.039629 
L 214.883219 196.020086 
L 215.127872 195.042202 
L 215.372525 194.744585 
L 215.861831 187.601781 
L 216.106484 187.920656 
L 216.59579 190.939341 
L 216.840443 189.451257 
L 217.085096 190.811791 
L 217.329749 190.195299 
L 217.574402 186.793963 
L 217.819055 186.687672 
L 218.063708 186.411313 
L 218.308361 207.94602 
L 218.553014 207.244494 
L 219.04232 207.201977 
L 219.286973 183.095011 
L 219.531626 183.265078 
L 219.776279 184.944487 
L 220.020932 183.945345 
L 220.265585 179.396058 
L 220.510238 177.270223 
L 220.754891 172.061928 
L 220.999544 173.294912 
L 221.244197 172.359545 
L 221.733503 178.439433 
L 221.978156 177.525324 
L 222.467462 182.436002 
L 222.712115 179.225991 
L 222.956768 181.628185 
L 223.201421 180.990434 
L 223.446074 183.541436 
L 223.690727 184.39177 
L 223.93538 179.204733 
L 224.180033 179.289766 
L 224.424686 175.845914 
L 224.669339 177.206448 
L 224.913992 173.571271 
L 225.158645 172.210737 
L 225.403298 169.59596 
L 225.647952 170.680136 
L 225.892605 170.531327 
L 226.381911 176.292339 
L 226.871217 173.252396 
L 227.11587 173.379946 
L 227.360523 173.294912 
L 227.605176 165.195482 
L 227.849829 163.919981 
L 228.094482 164.153823 
L 228.339135 163.771172 
L 228.583788 165.535615 
L 228.828441 162.623222 
L 229.073094 163.537331 
L 229.317747 164.96164 
L 229.5624 165.259257 
L 230.051706 169.21331 
L 230.785665 162.027988 
L 231.030318 163.197197 
L 231.519624 163.409781 
L 231.764277 165.578132 
L 232.253583 173.167362 
L 232.498236 157.308635 
L 232.742889 158.988044 
L 232.987542 163.516072 
L 233.232195 162.814547 
L 233.721501 155.033991 
L 233.966154 152.801865 
L 234.210807 154.056107 
L 234.45546 156.670884 
L 234.700113 152.100339 
L 234.944766 153.652199 
L 235.189419 153.567165 
L 235.434072 152.99319 
L 235.678725 149.209204 
L 235.923378 148.380129 
L 236.168031 133.265443 
L 236.412684 138.282413 
L 236.657337 137.665921 
L 237.146643 145.467735 
L 237.635949 144.681176 
L 238.125255 148.911587 
L 238.369908 147.295953 
L 238.614561 150.718547 
L 238.859214 150.229605 
L 239.103867 143.533225 
L 239.837826 145.552768 
L 240.082479 144.000909 
L 240.327132 144.128459 
L 240.571785 140.323215 
L 240.816438 142.449049 
L 241.061091 140.705865 
L 241.305744 140.004339 
L 241.550397 141.811299 
L 241.79505 141.194807 
L 242.039703 138.133605 
L 242.284356 146.126744 
L 242.529009 141.02474 
L 242.773662 145.616543 
L 243.018315 145.871643 
L 243.262968 147.083369 
L 243.507621 145.892902 
L 243.752274 150.569738 
L 243.996927 151.228747 
L 244.486233 137.262013 
L 244.730886 145.467735 
L 244.975539 145.063826 
L 245.220192 139.536656 
L 245.464845 137.963538 
L 245.709498 140.578315 
L 246.198804 138.239897 
L 246.443457 140.663348 
L 246.68811 148.784037 
L 246.932763 150.442188 
L 247.177416 145.65906 
L 247.422069 146.29681 
L 247.666722 144.723693 
L 247.911375 115.323397 
L 248.156029 112.878687 
L 248.645335 103.950181 
L 248.889988 114.983264 
L 249.134641 116.173731 
L 249.379294 115.217106 
L 249.8686 116.726448 
L 250.113253 116.981549 
L 250.847212 111.326828 
L 251.091865 111.709478 
L 251.825824 143.171833 
L 252.070477 143.001766 
L 252.31513 128.503573 
L 252.559783 123.805478 
L 252.804436 125.803763 
L 253.049089 129.035032 
L 253.293742 138.877647 
L 253.538395 132.457626 
L 253.783048 133.499285 
L 254.027701 137.028171 
L 254.272354 130.161724 
L 254.517007 132.521401 
L 254.76166 127.015489 
L 255.006313 125.591179 
L 255.250966 127.419397 
L 255.495619 120.871826 
L 255.984925 99.613478 
L 256.229578 104.587932 
L 256.474231 104.928065 
L 256.718884 108.010526 
L 257.20819 117.321682 
L 257.452843 118.278308 
L 257.942149 131.11835 
L 258.431455 118.554666 
L 258.676108 112.814912 
L 258.920761 109.987552 
L 259.165414 113.665246 
L 259.410067 112.155904 
L 259.65472 112.262195 
L 260.144026 103.461239 
L 260.388679 101.165338 
L 260.633332 114.451805 
L 261.367291 96.169626 
L 261.611944 99.167053 
L 261.856597 98.954469 
L 262.345903 106.883833 
L 262.590556 100.548846 
L 263.079862 106.054758 
L 263.324515 103.376206 
L 263.569168 83.733492 
L 263.813821 85.625485 
L 264.058474 83.542167 
L 264.303127 88.26152 
L 264.54778 81.586399 
L 265.037086 98.231686 
L 265.771045 101.505471 
L 266.505004 116.492607 
L 266.99431 101.186596 
L 267.483616 107.925492 
L 267.728269 115.684789 
L 267.972922 110.689078 
L 268.217575 110.667819 
L 268.462228 111.773253 
L 268.706881 107.670392 
L 268.951534 111.773253 
L 269.196187 113.558955 
L 269.44084 105.799658 
L 269.685493 107.670392 
L 269.930146 106.41615 
L 270.174799 107.712909 
L 270.419452 106.458666 
L 270.664106 111.56067 
L 270.908759 109.24351 
L 271.153412 96.616051 
L 271.398065 94.660283 
L 271.887371 106.990125 
L 272.132024 106.522441 
L 272.376677 102.398322 
L 272.62133 105.034357 
L 272.865983 104.630448 
L 273.110636 105.417007 
L 273.355289 102.015672 
L 273.844595 109.24351 
L 274.089248 116.683932 
L 274.578554 120.425401 
L 275.06786 136.64552 
L 275.312513 137.091946 
L 275.557166 135.603861 
L 275.801819 147.359728 
L 276.046472 144.596143 
L 276.291125 155.033991 
L 276.535778 149.591854 
L 276.780431 147.551053 
L 277.025084 147.295953 
L 277.269737 145.765352 
L 277.51439 149.825696 
L 277.759043 150.42093 
L 278.003696 161.900438 
L 278.248349 163.686139 
L 278.493002 158.690427 
L 278.737655 156.330751 
L 279.226961 168.766884 
L 279.471614 161.113879 
L 279.716267 174.634188 
L 279.96092 178.907116 
L 280.205573 176.54744 
L 280.450226 172.912262 
L 280.694879 153.737232 
L 280.939532 156.118167 
L 281.184185 149.336754 
L 281.428838 137.772213 
L 281.673491 145.02131 
L 281.918144 142.470308 
L 282.162797 146.105485 
L 282.40745 152.057823 
L 282.652103 151.547622 
L 282.896756 149.995763 
L 283.141409 149.315496 
L 283.386062 149.230462 
L 283.630715 152.164114 
L 283.875368 143.490708 
L 284.120021 146.594427 
L 284.364674 142.810441 
L 284.609327 142.767925 
L 284.85398 149.443046 
L 285.098633 150.569738 
L 285.343286 148.805295 
L 285.587939 140.960965 
L 285.832592 129.162582 
L 286.077245 126.058863 
L 286.321898 126.313963 
L 287.055857 139.239039 
L 287.30051 137.772213 
L 287.545163 141.938849 
L 287.789816 141.790041 
L 288.279122 146.870786 
L 288.768428 144.319784 
L 289.013081 144.277267 
L 289.257734 143.46945 
L 289.502387 149.974505 
L 289.74704 152.291665 
L 289.991693 148.699004 
L 290.236346 153.312065 
L 290.480999 154.587566 
L 290.725652 156.734659 
L 291.459611 142.151433 
L 291.704264 141.428649 
L 291.948917 137.453338 
L 292.19357 144.829984 
L 292.438223 143.278125 
L 292.682876 143.171833 
L 293.172183 147.232178 
L 293.416836 146.785752 
L 293.661489 144.383559 
L 293.906142 146.04171 
L 294.150795 127.376881 
L 294.395448 125.782505 
L 294.640101 126.951714 
L 295.129407 134.222069 
L 295.37406 132.92531 
L 295.618713 134.115777 
L 295.863366 128.971257 
L 296.108019 134.009485 
L 296.352672 133.392993 
L 296.597325 135.561345 
L 296.841978 135.561345 
L 297.086631 136.199095 
L 297.331284 138.006055 
L 297.575937 142.70415 
L 297.82059 138.601288 
L 298.065243 139.217781 
L 298.309896 132.904051 
L 298.554549 133.244185 
L 298.799202 135.773928 
L 299.043855 134.774786 
L 299.533161 138.367447 
L 299.777814 137.304529 
L 300.022467 139.664206 
L 300.26712 140.153148 
L 300.511773 138.239897 
L 301.001079 141.53494 
L 301.490385 151.696431 
L 301.735038 150.272121 
L 301.979691 151.675172 
L 302.224344 151.653914 
L 302.468997 152.100339 
L 302.71365 145.616543 
L 302.958303 145.233893 
L 303.202956 143.937134 
L 303.447609 139.855531 
L 303.692262 157.159826 
L 303.936915 164.217598 
L 304.670874 147.508536 
L 304.915527 144.511109 
L 305.16018 148.295095 
L 305.404833 147.72112 
L 305.894139 140.854673 
L 306.628098 130.586891 
L 306.872751 128.737415 
L 307.117404 129.821591 
L 307.851363 124.358195 
L 308.096016 125.654955 
L 308.585322 123.465345 
L 308.829975 123.40157 
L 309.074628 124.336937 
L 309.319281 119.936459 
L 309.563934 125.506146 
L 309.808587 123.975545 
L 310.05324 132.096234 
L 310.297893 134.20081 
L 310.542546 132.181267 
L 310.787199 132.776501 
L 311.031852 130.948283 
L 311.276505 131.607292 
L 311.765811 129.43894 
L 312.255117 124.974687 
L 312.744423 128.120923 
L 312.989076 128.078406 
L 313.233729 129.013774 
L 313.478382 131.160867 
L 313.723035 131.989942 
L 313.967688 135.62512 
L 314.212341 134.859819 
L 314.456994 136.751812 
L 314.701647 140.068114 
L 314.9463 141.577457 
L 315.190953 141.513682 
L 315.435607 132.989085 
L 315.68026 135.284986 
L 315.924913 131.330933 
L 316.169566 131.88365 
L 316.414219 130.9908 
L 316.658872 137.304529 
L 316.903525 132.053717 
L 317.148178 136.326645 
L 317.392831 136.858104 
L 317.637484 135.603861 
L 317.882137 144.256009 
L 318.12679 147.891187 
L 318.371443 144.638659 
L 318.616096 143.8521 
L 319.105402 139.834273 
L 319.350055 141.577457 
L 319.839361 126.909197 
L 320.084014 121.785935 
L 320.328667 125.357338 
L 320.57332 124.719587 
L 320.817973 120.255334 
L 321.062626 120.212817 
L 321.551932 123.125211 
L 321.796585 120.999376 
L 322.041238 123.231503 
L 322.285891 120.95686 
L 322.530544 121.169443 
L 322.775197 116.683932 
L 323.264503 112.368487 
L 323.509156 108.414434 
L 323.753809 108.478209 
L 323.998462 102.270772 
L 324.243115 102.03693 
L 324.487768 101.399179 
L 324.732421 106.607475 
L 324.977074 104.73674 
L 325.221727 93.639882 
L 325.711033 105.650849 
L 325.955686 112.007095 
L 326.200339 107.138933 
L 326.444992 107.309 
L 326.689645 104.587932 
L 326.934298 103.482498 
L 327.178951 108.286884 
L 327.423604 110.667819 
L 327.91291 120.170301 
L 328.157563 110.859144 
L 328.646869 104.396607 
L 328.891522 106.331116 
L 329.380828 102.29203 
L 329.625481 104.843032 
L 329.870134 102.908522 
L 330.35944 107.542842 
L 330.604093 109.774969 
L 330.848746 114.111672 
L 331.093399 116.258765 
L 331.338052 110.540269 
L 331.582705 110.370202 
L 331.827358 110.837886 
L 332.072011 112.007095 
L 332.316664 109.75371 
L 332.561317 117.853141 
L 332.80597 118.320824 
L 333.050623 126.058863 
L 333.295276 124.847137 
L 333.784582 126.420255 
L 334.029235 124.570779 
L 334.273888 129.31139 
L 335.007847 131.926167 
L 335.2525 132.266301 
L 335.497153 131.203383 
L 335.986459 134.455911 
L 336.965071 124.124353 
L 337.209724 123.444086 
L 337.454377 124.336937 
L 337.943684 120.914343 
L 338.188337 121.403285 
L 338.43299 119.78765 
L 338.677643 120.850568 
L 338.922296 118.554666 
L 339.166949 118.405858 
L 339.411602 117.916916 
L 340.145561 114.13293 
L 340.390214 115.132072 
L 340.634867 115.004522 
L 340.87952 116.747707 
L 341.124173 117.130357 
L 341.613479 114.026638 
L 341.858132 113.410146 
L 342.347438 111.475636 
L 342.592091 112.751137 
L 342.836744 119.447517 
L 343.081397 119.086125 
L 343.32605 116.513865 
L 343.570703 118.703475 
L 343.815356 119.638842 
L 344.060009 119.6601 
L 344.304662 117.194132 
L 344.549315 119.171158 
L 345.038621 121.169443 
L 345.283274 120.425401 
L 345.527927 117.427974 
L 345.77258 120.680501 
L 346.506539 113.303854 
L 346.751192 108.754568 
L 346.995845 108.371918 
L 347.240498 106.139791 
L 347.485151 102.759714 
L 347.729804 102.100705 
L 348.21911 95.574392 
L 348.463763 94.57525 
L 348.708416 97.40261 
L 348.953069 102.228255 
L 349.197722 102.058188 
L 349.442375 103.418723 
L 349.687028 101.888121 
L 349.931681 101.803088 
L 350.176334 99.188311 
L 350.420987 97.849035 
L 350.66564 98.274202 
L 350.910293 105.268199 
L 351.154946 105.331974 
L 351.399599 107.712909 
L 351.644252 107.819201 
L 352.133558 104.587932 
L 352.378211 100.400037 
L 352.622864 98.996986 
L 352.867517 98.656853 
L 353.11217 101.101563 
L 353.356823 96.403468 
L 353.601476 96.127109 
L 353.846129 95.106708 
L 354.090782 93.02339 
L 354.335435 92.917099 
L 354.824741 85.582969 
L 355.314047 83.946076 
L 355.5587 89.218146 
L 356.048006 78.014997 
L 356.292659 77.71738 
L 356.537312 73.529485 
L 357.026618 76.782013 
L 357.271271 77.143404 
L 357.515924 76.229295 
L 357.760577 76.16552 
L 358.00523 76.271812 
L 358.494536 64.452171 
L 358.739189 74.996311 
L 358.983842 73.189352 
L 359.228495 72.487826 
L 359.473148 70.532058 
L 359.717801 70.404508 
L 359.962454 68.023573 
L 360.207107 64.090779 
L 360.451761 66.13158 
L 360.941067 67.832248 
L 361.18572 61.433485 
L 361.430373 62.326336 
L 361.675026 59.137584 
L 361.919679 61.263418 
L 362.164332 62.347594 
L 362.408985 56.267707 
L 362.653638 68.236157 
L 362.898291 66.769331 
L 363.387597 60.583151 
L 363.63225 63.771904 
L 363.876903 62.666469 
L 364.121556 58.03215 
L 364.366209 59.520234 
L 364.855515 50.357886 
L 365.100168 45.192107 
L 365.344821 50.400403 
L 365.589474 59.095067 
L 365.834127 54.460747 
L 366.07878 58.627383 
L 366.323433 56.841682 
L 366.568086 59.435201 
L 366.812739 54.29068 
L 367.057392 57.458174 
L 367.302045 55.077239 
L 367.546698 54.652072 
L 367.791351 54.737106 
L 368.036004 49.635102 
L 368.280657 48.444635 
L 368.52531 45.744824 
L 368.769963 48.806027 
L 369.014616 47.020325 
L 369.259269 42.981239 
L 369.748575 46.233766 
L 369.993228 44.809457 
L 370.237881 44.894491 
L 370.482534 39.856262 
L 370.727187 45.574758 
L 370.97184 34.414125 
L 371.461146 48.89106 
L 371.950452 46.786484 
L 372.684411 63.282962 
L 372.929064 59.073809 
L 373.173717 68.32119 
L 373.41837 66.280389 
L 373.663023 59.754076 
L 373.907676 60.85951 
L 374.152329 57.203074 
L 374.396982 67.066947 
L 374.641635 67.981056 
L 374.886288 65.174955 
L 375.130941 59.690301 
L 375.375594 58.6699 
L 375.620247 54.737106 
L 375.8649 56.182673 
L 376.109553 70.489542 
L 376.354206 67.385823 
L 376.598859 68.555032 
L 376.843512 58.095925 
L 377.088165 58.372283 
L 377.332818 59.690301 
L 377.577471 66.535489 
L 377.822124 67.428339 
L 378.066777 72.870476 
L 378.31143 67.109464 
L 378.556083 64.473429 
L 378.800736 63.835679 
L 379.290042 71.339875 
L 379.534695 71.2761 
L 379.779348 72.742926 
L 380.024001 69.469141 
L 380.268654 69.235299 
L 380.513307 63.601837 
L 380.75796 70.085633 
L 381.002613 68.661324 
L 381.247266 64.027004 
L 381.491919 69.830533 
L 381.736572 67.492114 
L 381.981225 61.327194 
L 382.225878 62.666469 
L 382.715184 57.989633 
L 382.959838 58.882484 
L 383.204491 62.135011 
L 383.449144 62.198786 
L 383.93845 58.903742 
L 384.183103 54.375714 
L 384.427756 57.819566 
L 384.672409 56.437774 
L 384.917062 49.762652 
L 385.161715 47.381717 
L 385.406368 48.657218 
L 385.651021 53.163988 
L 385.895674 53.057696 
L 386.140327 59.073809 
L 386.38498 60.243018 
L 386.629633 110.327686 
L 386.874286 117.938174 
L 387.118939 108.478209 
L 387.363592 114.026638 
L 387.608245 110.922919 
L 387.852898 111.900803 
L 387.852898 111.900803 
" style="fill:none;stroke:#ff7f0e;stroke-linecap:square;stroke-width:1.5;"/>
   </g>
   <g id="patch_3">
    <path d="M 46.965625 288.430125 
L 46.965625 22.318125 
" style="fill:none;stroke:#000000;stroke-linecap:square;stroke-linejoin:miter;stroke-width:0.8;"/>
   </g>
   <g id="patch_4">
    <path d="M 404.085625 288.430125 
L 404.085625 22.318125 
" style="fill:none;stroke:#000000;stroke-linecap:square;stroke-linejoin:miter;stroke-width:0.8;"/>
   </g>
   <g id="patch_5">
    <path d="M 46.965625 288.430125 
L 404.085625 288.430125 
" style="fill:none;stroke:#000000;stroke-linecap:square;stroke-linejoin:miter;stroke-width:0.8;"/>
   </g>
   <g id="patch_6">
    <path d="M 46.965625 22.318125 
L 404.085625 22.318125 
" style="fill:none;stroke:#000000;stroke-linecap:square;stroke-linejoin:miter;stroke-width:0.8;"/>
   </g>
   <g id="text_16">
    <!-- Training: EXPE -->
    <defs>
     <path d="M -0.296875 72.90625 
L 61.375 72.90625 
L 61.375 64.59375 
L 35.5 64.59375 
L 35.5 0 
L 25.59375 0 
L 25.59375 64.59375 
L -0.296875 64.59375 
z
" id="DejaVuSans-84"/>
     <path d="M 54.890625 33.015625 
L 54.890625 0 
L 45.90625 0 
L 45.90625 32.71875 
Q 45.90625 40.484375 42.875 44.328125 
Q 39.84375 48.1875 33.796875 48.1875 
Q 26.515625 48.1875 22.3125 43.546875 
Q 18.109375 38.921875 18.109375 30.90625 
L 18.109375 0 
L 9.078125 0 
L 9.078125 54.6875 
L 18.109375 54.6875 
L 18.109375 46.1875 
Q 21.34375 51.125 25.703125 53.5625 
Q 30.078125 56 35.796875 56 
Q 45.21875 56 50.046875 50.171875 
Q 54.890625 44.34375 54.890625 33.015625 
z
" id="DejaVuSans-110"/>
     <path d="M 45.40625 27.984375 
Q 45.40625 37.75 41.375 43.109375 
Q 37.359375 48.484375 30.078125 48.484375 
Q 22.859375 48.484375 18.828125 43.109375 
Q 14.796875 37.75 14.796875 27.984375 
Q 14.796875 18.265625 18.828125 12.890625 
Q 22.859375 7.515625 30.078125 7.515625 
Q 37.359375 7.515625 41.375 12.890625 
Q 45.40625 18.265625 45.40625 27.984375 
z
M 54.390625 6.78125 
Q 54.390625 -7.171875 48.1875 -13.984375 
Q 42 -20.796875 29.203125 -20.796875 
Q 24.46875 -20.796875 20.265625 -20.09375 
Q 16.0625 -19.390625 12.109375 -17.921875 
L 12.109375 -9.1875 
Q 16.0625 -11.328125 19.921875 -12.34375 
Q 23.78125 -13.375 27.78125 -13.375 
Q 36.625 -13.375 41.015625 -8.765625 
Q 45.40625 -4.15625 45.40625 5.171875 
L 45.40625 9.625 
Q 42.625 4.78125 38.28125 2.390625 
Q 33.9375 0 27.875 0 
Q 17.828125 0 11.671875 7.65625 
Q 5.515625 15.328125 5.515625 27.984375 
Q 5.515625 40.671875 11.671875 48.328125 
Q 17.828125 56 27.875 56 
Q 33.9375 56 38.28125 53.609375 
Q 42.625 51.21875 45.40625 46.390625 
L 45.40625 54.6875 
L 54.390625 54.6875 
z
" id="DejaVuSans-103"/>
     <path d="M 11.71875 12.40625 
L 22.015625 12.40625 
L 22.015625 0 
L 11.71875 0 
z
M 11.71875 51.703125 
L 22.015625 51.703125 
L 22.015625 39.3125 
L 11.71875 39.3125 
z
" id="DejaVuSans-58"/>
     <path d="M 9.8125 72.90625 
L 55.90625 72.90625 
L 55.90625 64.59375 
L 19.671875 64.59375 
L 19.671875 43.015625 
L 54.390625 43.015625 
L 54.390625 34.71875 
L 19.671875 34.71875 
L 19.671875 8.296875 
L 56.78125 8.296875 
L 56.78125 0 
L 9.8125 0 
z
" id="DejaVuSans-69"/>
     <path d="M 6.296875 72.90625 
L 16.890625 72.90625 
L 35.015625 45.796875 
L 53.21875 72.90625 
L 63.8125 72.90625 
L 40.375 37.890625 
L 65.375 0 
L 54.78125 0 
L 34.28125 31 
L 13.625 0 
L 2.984375 0 
L 29 38.921875 
z
" id="DejaVuSans-88"/>
    </defs>
    <g transform="translate(182.61625 16.318125)scale(0.12 -0.12)">
     <use xlink:href="#DejaVuSans-84"/>
     <use x="46.333984" xlink:href="#DejaVuSans-114"/>
     <use x="87.447266" xlink:href="#DejaVuSans-97"/>
     <use x="148.726562" xlink:href="#DejaVuSans-105"/>
     <use x="176.509766" xlink:href="#DejaVuSans-110"/>
     <use x="239.888672" xlink:href="#DejaVuSans-105"/>
     <use x="267.671875" xlink:href="#DejaVuSans-110"/>
     <use x="331.050781" xlink:href="#DejaVuSans-103"/>
     <use x="394.527344" xlink:href="#DejaVuSans-58"/>
     <use x="428.21875" xlink:href="#DejaVuSans-32"/>
     <use x="460.005859" xlink:href="#DejaVuSans-69"/>
     <use x="523.189453" xlink:href="#DejaVuSans-88"/>
     <use x="591.695312" xlink:href="#DejaVuSans-80"/>
     <use x="651.998047" xlink:href="#DejaVuSans-69"/>
    </g>
   </g>
   <g id="legend_1">
    <g id="patch_7">
     <path d="M 53.965625 59.674375 
L 137.69375 59.674375 
Q 139.69375 59.674375 139.69375 57.674375 
L 139.69375 29.318125 
Q 139.69375 27.318125 137.69375 27.318125 
L 53.965625 27.318125 
Q 51.965625 27.318125 51.965625 29.318125 
L 51.965625 57.674375 
Q 51.965625 59.674375 53.965625 59.674375 
z
" style="fill:#ffffff;opacity:0.8;stroke:#cccccc;stroke-linejoin:miter;"/>
    </g>
    <g id="line2d_29">
     <path d="M 55.965625 35.416562 
L 75.965625 35.416562 
" style="fill:none;stroke:#1f77b4;stroke-linecap:square;stroke-width:1.5;"/>
    </g>
    <g id="line2d_30"/>
    <g id="text_17">
     <!-- Predicted -->
     <defs>
      <path d="M 45.40625 46.390625 
L 45.40625 75.984375 
L 54.390625 75.984375 
L 54.390625 0 
L 45.40625 0 
L 45.40625 8.203125 
Q 42.578125 3.328125 38.25 0.953125 
Q 33.9375 -1.421875 27.875 -1.421875 
Q 17.96875 -1.421875 11.734375 6.484375 
Q 5.515625 14.40625 5.515625 27.296875 
Q 5.515625 40.1875 11.734375 48.09375 
Q 17.96875 56 27.875 56 
Q 33.9375 56 38.25 53.625 
Q 42.578125 51.265625 45.40625 46.390625 
z
M 14.796875 27.296875 
Q 14.796875 17.390625 18.875 11.75 
Q 22.953125 6.109375 30.078125 6.109375 
Q 37.203125 6.109375 41.296875 11.75 
Q 45.40625 17.390625 45.40625 27.296875 
Q 45.40625 37.203125 41.296875 42.84375 
Q 37.203125 48.484375 30.078125 48.484375 
Q 22.953125 48.484375 18.875 42.84375 
Q 14.796875 37.203125 14.796875 27.296875 
z
" id="DejaVuSans-100"/>
      <path d="M 18.3125 70.21875 
L 18.3125 54.6875 
L 36.8125 54.6875 
L 36.8125 47.703125 
L 18.3125 47.703125 
L 18.3125 18.015625 
Q 18.3125 11.328125 20.140625 9.421875 
Q 21.96875 7.515625 27.59375 7.515625 
L 36.8125 7.515625 
L 36.8125 0 
L 27.59375 0 
Q 17.1875 0 13.234375 3.875 
Q 9.28125 7.765625 9.28125 18.015625 
L 9.28125 47.703125 
L 2.6875 47.703125 
L 2.6875 54.6875 
L 9.28125 54.6875 
L 9.28125 70.21875 
z
" id="DejaVuSans-116"/>
     </defs>
     <g transform="translate(83.965625 38.916562)scale(0.1 -0.1)">
      <use xlink:href="#DejaVuSans-80"/>
      <use x="58.552734" xlink:href="#DejaVuSans-114"/>
      <use x="97.416016" xlink:href="#DejaVuSans-101"/>
      <use x="158.939453" xlink:href="#DejaVuSans-100"/>
      <use x="222.416016" xlink:href="#DejaVuSans-105"/>
      <use x="250.199219" xlink:href="#DejaVuSans-99"/>
      <use x="305.179688" xlink:href="#DejaVuSans-116"/>
      <use x="344.388672" xlink:href="#DejaVuSans-101"/>
      <use x="405.912109" xlink:href="#DejaVuSans-100"/>
     </g>
    </g>
    <g id="line2d_31">
     <path d="M 55.965625 50.094687 
L 75.965625 50.094687 
" style="fill:none;stroke:#ff7f0e;stroke-linecap:square;stroke-width:1.5;"/>
    </g>
    <g id="line2d_32"/>
    <g id="text_18">
     <!-- True value -->
     <defs>
      <path d="M 8.5 21.578125 
L 8.5 54.6875 
L 17.484375 54.6875 
L 17.484375 21.921875 
Q 17.484375 14.15625 20.5 10.265625 
Q 23.53125 6.390625 29.59375 6.390625 
Q 36.859375 6.390625 41.078125 11.03125 
Q 45.3125 15.671875 45.3125 23.6875 
L 45.3125 54.6875 
L 54.296875 54.6875 
L 54.296875 0 
L 45.3125 0 
L 45.3125 8.40625 
Q 42.046875 3.421875 37.71875 1 
Q 33.40625 -1.421875 27.6875 -1.421875 
Q 18.265625 -1.421875 13.375 4.4375 
Q 8.5 10.296875 8.5 21.578125 
z
M 31.109375 56 
z
" id="DejaVuSans-117"/>
      <path d="M 2.984375 54.6875 
L 12.5 54.6875 
L 29.59375 8.796875 
L 46.6875 54.6875 
L 56.203125 54.6875 
L 35.6875 0 
L 23.484375 0 
z
" id="DejaVuSans-118"/>
      <path d="M 9.421875 75.984375 
L 18.40625 75.984375 
L 18.40625 0 
L 9.421875 0 
z
" id="DejaVuSans-108"/>
     </defs>
     <g transform="translate(83.965625 53.594687)scale(0.1 -0.1)">
      <use xlink:href="#DejaVuSans-84"/>
      <use x="46.333984" xlink:href="#DejaVuSans-114"/>
      <use x="87.447266" xlink:href="#DejaVuSans-117"/>
      <use x="150.826172" xlink:href="#DejaVuSans-101"/>
      <use x="212.349609" xlink:href="#DejaVuSans-32"/>
      <use x="244.136719" xlink:href="#DejaVuSans-118"/>
      <use x="303.316406" xlink:href="#DejaVuSans-97"/>
      <use x="364.595703" xlink:href="#DejaVuSans-108"/>
      <use x="392.378906" xlink:href="#DejaVuSans-117"/>
      <use x="455.757812" xlink:href="#DejaVuSans-101"/>
     </g>
    </g>
   </g>
  </g>
 </g>
 <defs>
  <clipPath id="p39b5ecae6e">
   <rect height="266.112" width="357.12" x="46.965625" y="22.318125"/>
  </clipPath>
 </defs>
</svg>
