<?xml version="1.0" encoding="utf-8" standalone="no"?>
<!DOCTYPE svg PUBLIC "-//W3C//DTD SVG 1.1//EN"
  "http://www.w3.org/Graphics/SVG/1.1/DTD/svg11.dtd">
<!-- Created with matplotlib (https://matplotlib.org/) -->
<svg height="325.986375pt" version="1.1" viewBox="0 0 417.648125 325.986375" width="417.648125pt" xmlns="http://www.w3.org/2000/svg" xmlns:xlink="http://www.w3.org/1999/xlink">
 <defs>
  <style type="text/css">
*{stroke-linecap:butt;stroke-linejoin:round;}
  </style>
 </defs>
 <g id="figure_1">
  <g id="patch_1">
   <path d="M 0 325.986375 
L 417.648125 325.986375 
L 417.648125 0 
L 0 0 
z
" style="fill:#ffffff;"/>
  </g>
  <g id="axes_1">
   <g id="patch_2">
    <path d="M 53.328125 288.430125 
L 410.448125 288.430125 
L 410.448125 22.318125 
L 53.328125 22.318125 
z
" style="fill:#ffffff;"/>
   </g>
   <g id="matplotlib.axis_1">
    <g id="xtick_1">
     <g id="line2d_1">
      <path clip-path="url(#pd30e9ae9d5)" d="M 69.560852 288.430125 
L 69.560852 22.318125 
" style="fill:none;stroke:#b0b0b0;stroke-dasharray:2.96,1.28;stroke-dashoffset:0;stroke-width:0.8;"/>
     </g>
     <g id="line2d_2">
      <defs>
       <path d="M 0 0 
L 0 3.5 
" id="m9e1518d0c0" style="stroke:#000000;stroke-width:0.8;"/>
      </defs>
      <g>
       <use style="stroke:#000000;stroke-width:0.8;" x="69.560852" xlink:href="#m9e1518d0c0" y="288.430125"/>
      </g>
     </g>
     <g id="text_1">
      <!-- 0 -->
      <defs>
       <path d="M 31.78125 66.40625 
Q 24.171875 66.40625 20.328125 58.90625 
Q 16.5 51.421875 16.5 36.375 
Q 16.5 21.390625 20.328125 13.890625 
Q 24.171875 6.390625 31.78125 6.390625 
Q 39.453125 6.390625 43.28125 13.890625 
Q 47.125 21.390625 47.125 36.375 
Q 47.125 51.421875 43.28125 58.90625 
Q 39.453125 66.40625 31.78125 66.40625 
z
M 31.78125 74.21875 
Q 44.046875 74.21875 50.515625 64.515625 
Q 56.984375 54.828125 56.984375 36.375 
Q 56.984375 17.96875 50.515625 8.265625 
Q 44.046875 -1.421875 31.78125 -1.421875 
Q 19.53125 -1.421875 13.0625 8.265625 
Q 6.59375 17.96875 6.59375 36.375 
Q 6.59375 54.828125 13.0625 64.515625 
Q 19.53125 74.21875 31.78125 74.21875 
z
" id="DejaVuSans-48"/>
      </defs>
      <g transform="translate(66.379602 303.028562)scale(0.1 -0.1)">
       <use xlink:href="#DejaVuSans-48"/>
      </g>
     </g>
    </g>
    <g id="xtick_2">
     <g id="line2d_3">
      <path clip-path="url(#pd30e9ae9d5)" d="M 118.491454 288.430125 
L 118.491454 22.318125 
" style="fill:none;stroke:#b0b0b0;stroke-dasharray:2.96,1.28;stroke-dashoffset:0;stroke-width:0.8;"/>
     </g>
     <g id="line2d_4">
      <g>
       <use style="stroke:#000000;stroke-width:0.8;" x="118.491454" xlink:href="#m9e1518d0c0" y="288.430125"/>
      </g>
     </g>
     <g id="text_2">
      <!-- 200 -->
      <defs>
       <path d="M 19.1875 8.296875 
L 53.609375 8.296875 
L 53.609375 0 
L 7.328125 0 
L 7.328125 8.296875 
Q 12.9375 14.109375 22.625 23.890625 
Q 32.328125 33.6875 34.8125 36.53125 
Q 39.546875 41.84375 41.421875 45.53125 
Q 43.3125 49.21875 43.3125 52.78125 
Q 43.3125 58.59375 39.234375 62.25 
Q 35.15625 65.921875 28.609375 65.921875 
Q 23.96875 65.921875 18.8125 64.3125 
Q 13.671875 62.703125 7.8125 59.421875 
L 7.8125 69.390625 
Q 13.765625 71.78125 18.9375 73 
Q 24.125 74.21875 28.421875 74.21875 
Q 39.75 74.21875 46.484375 68.546875 
Q 53.21875 62.890625 53.21875 53.421875 
Q 53.21875 48.921875 51.53125 44.890625 
Q 49.859375 40.875 45.40625 35.40625 
Q 44.1875 33.984375 37.640625 27.21875 
Q 31.109375 20.453125 19.1875 8.296875 
z
" id="DejaVuSans-50"/>
      </defs>
      <g transform="translate(108.947704 303.028562)scale(0.1 -0.1)">
       <use xlink:href="#DejaVuSans-50"/>
       <use x="63.623047" xlink:href="#DejaVuSans-48"/>
       <use x="127.246094" xlink:href="#DejaVuSans-48"/>
      </g>
     </g>
    </g>
    <g id="xtick_3">
     <g id="line2d_5">
      <path clip-path="url(#pd30e9ae9d5)" d="M 167.422057 288.430125 
L 167.422057 22.318125 
" style="fill:none;stroke:#b0b0b0;stroke-dasharray:2.96,1.28;stroke-dashoffset:0;stroke-width:0.8;"/>
     </g>
     <g id="line2d_6">
      <g>
       <use style="stroke:#000000;stroke-width:0.8;" x="167.422057" xlink:href="#m9e1518d0c0" y="288.430125"/>
      </g>
     </g>
     <g id="text_3">
      <!-- 400 -->
      <defs>
       <path d="M 37.796875 64.3125 
L 12.890625 25.390625 
L 37.796875 25.390625 
z
M 35.203125 72.90625 
L 47.609375 72.90625 
L 47.609375 25.390625 
L 58.015625 25.390625 
L 58.015625 17.1875 
L 47.609375 17.1875 
L 47.609375 0 
L 37.796875 0 
L 37.796875 17.1875 
L 4.890625 17.1875 
L 4.890625 26.703125 
z
" id="DejaVuSans-52"/>
      </defs>
      <g transform="translate(157.878307 303.028562)scale(0.1 -0.1)">
       <use xlink:href="#DejaVuSans-52"/>
       <use x="63.623047" xlink:href="#DejaVuSans-48"/>
       <use x="127.246094" xlink:href="#DejaVuSans-48"/>
      </g>
     </g>
    </g>
    <g id="xtick_4">
     <g id="line2d_7">
      <path clip-path="url(#pd30e9ae9d5)" d="M 216.352659 288.430125 
L 216.352659 22.318125 
" style="fill:none;stroke:#b0b0b0;stroke-dasharray:2.96,1.28;stroke-dashoffset:0;stroke-width:0.8;"/>
     </g>
     <g id="line2d_8">
      <g>
       <use style="stroke:#000000;stroke-width:0.8;" x="216.352659" xlink:href="#m9e1518d0c0" y="288.430125"/>
      </g>
     </g>
     <g id="text_4">
      <!-- 600 -->
      <defs>
       <path d="M 33.015625 40.375 
Q 26.375 40.375 22.484375 35.828125 
Q 18.609375 31.296875 18.609375 23.390625 
Q 18.609375 15.53125 22.484375 10.953125 
Q 26.375 6.390625 33.015625 6.390625 
Q 39.65625 6.390625 43.53125 10.953125 
Q 47.40625 15.53125 47.40625 23.390625 
Q 47.40625 31.296875 43.53125 35.828125 
Q 39.65625 40.375 33.015625 40.375 
z
M 52.59375 71.296875 
L 52.59375 62.3125 
Q 48.875 64.0625 45.09375 64.984375 
Q 41.3125 65.921875 37.59375 65.921875 
Q 27.828125 65.921875 22.671875 59.328125 
Q 17.53125 52.734375 16.796875 39.40625 
Q 19.671875 43.65625 24.015625 45.921875 
Q 28.375 48.1875 33.59375 48.1875 
Q 44.578125 48.1875 50.953125 41.515625 
Q 57.328125 34.859375 57.328125 23.390625 
Q 57.328125 12.15625 50.6875 5.359375 
Q 44.046875 -1.421875 33.015625 -1.421875 
Q 20.359375 -1.421875 13.671875 8.265625 
Q 6.984375 17.96875 6.984375 36.375 
Q 6.984375 53.65625 15.1875 63.9375 
Q 23.390625 74.21875 37.203125 74.21875 
Q 40.921875 74.21875 44.703125 73.484375 
Q 48.484375 72.75 52.59375 71.296875 
z
" id="DejaVuSans-54"/>
      </defs>
      <g transform="translate(206.808909 303.028562)scale(0.1 -0.1)">
       <use xlink:href="#DejaVuSans-54"/>
       <use x="63.623047" xlink:href="#DejaVuSans-48"/>
       <use x="127.246094" xlink:href="#DejaVuSans-48"/>
      </g>
     </g>
    </g>
    <g id="xtick_5">
     <g id="line2d_9">
      <path clip-path="url(#pd30e9ae9d5)" d="M 265.283261 288.430125 
L 265.283261 22.318125 
" style="fill:none;stroke:#b0b0b0;stroke-dasharray:2.96,1.28;stroke-dashoffset:0;stroke-width:0.8;"/>
     </g>
     <g id="line2d_10">
      <g>
       <use style="stroke:#000000;stroke-width:0.8;" x="265.283261" xlink:href="#m9e1518d0c0" y="288.430125"/>
      </g>
     </g>
     <g id="text_5">
      <!-- 800 -->
      <defs>
       <path d="M 31.78125 34.625 
Q 24.75 34.625 20.71875 30.859375 
Q 16.703125 27.09375 16.703125 20.515625 
Q 16.703125 13.921875 20.71875 10.15625 
Q 24.75 6.390625 31.78125 6.390625 
Q 38.8125 6.390625 42.859375 10.171875 
Q 46.921875 13.96875 46.921875 20.515625 
Q 46.921875 27.09375 42.890625 30.859375 
Q 38.875 34.625 31.78125 34.625 
z
M 21.921875 38.8125 
Q 15.578125 40.375 12.03125 44.71875 
Q 8.5 49.078125 8.5 55.328125 
Q 8.5 64.0625 14.71875 69.140625 
Q 20.953125 74.21875 31.78125 74.21875 
Q 42.671875 74.21875 48.875 69.140625 
Q 55.078125 64.0625 55.078125 55.328125 
Q 55.078125 49.078125 51.53125 44.71875 
Q 48 40.375 41.703125 38.8125 
Q 48.828125 37.15625 52.796875 32.3125 
Q 56.78125 27.484375 56.78125 20.515625 
Q 56.78125 9.90625 50.3125 4.234375 
Q 43.84375 -1.421875 31.78125 -1.421875 
Q 19.734375 -1.421875 13.25 4.234375 
Q 6.78125 9.90625 6.78125 20.515625 
Q 6.78125 27.484375 10.78125 32.3125 
Q 14.796875 37.15625 21.921875 38.8125 
z
M 18.3125 54.390625 
Q 18.3125 48.734375 21.84375 45.5625 
Q 25.390625 42.390625 31.78125 42.390625 
Q 38.140625 42.390625 41.71875 45.5625 
Q 45.3125 48.734375 45.3125 54.390625 
Q 45.3125 60.0625 41.71875 63.234375 
Q 38.140625 66.40625 31.78125 66.40625 
Q 25.390625 66.40625 21.84375 63.234375 
Q 18.3125 60.0625 18.3125 54.390625 
z
" id="DejaVuSans-56"/>
      </defs>
      <g transform="translate(255.739511 303.028562)scale(0.1 -0.1)">
       <use xlink:href="#DejaVuSans-56"/>
       <use x="63.623047" xlink:href="#DejaVuSans-48"/>
       <use x="127.246094" xlink:href="#DejaVuSans-48"/>
      </g>
     </g>
    </g>
    <g id="xtick_6">
     <g id="line2d_11">
      <path clip-path="url(#pd30e9ae9d5)" d="M 314.213863 288.430125 
L 314.213863 22.318125 
" style="fill:none;stroke:#b0b0b0;stroke-dasharray:2.96,1.28;stroke-dashoffset:0;stroke-width:0.8;"/>
     </g>
     <g id="line2d_12">
      <g>
       <use style="stroke:#000000;stroke-width:0.8;" x="314.213863" xlink:href="#m9e1518d0c0" y="288.430125"/>
      </g>
     </g>
     <g id="text_6">
      <!-- 1000 -->
      <defs>
       <path d="M 12.40625 8.296875 
L 28.515625 8.296875 
L 28.515625 63.921875 
L 10.984375 60.40625 
L 10.984375 69.390625 
L 28.421875 72.90625 
L 38.28125 72.90625 
L 38.28125 8.296875 
L 54.390625 8.296875 
L 54.390625 0 
L 12.40625 0 
z
" id="DejaVuSans-49"/>
      </defs>
      <g transform="translate(301.488863 303.028562)scale(0.1 -0.1)">
       <use xlink:href="#DejaVuSans-49"/>
       <use x="63.623047" xlink:href="#DejaVuSans-48"/>
       <use x="127.246094" xlink:href="#DejaVuSans-48"/>
       <use x="190.869141" xlink:href="#DejaVuSans-48"/>
      </g>
     </g>
    </g>
    <g id="xtick_7">
     <g id="line2d_13">
      <path clip-path="url(#pd30e9ae9d5)" d="M 363.144465 288.430125 
L 363.144465 22.318125 
" style="fill:none;stroke:#b0b0b0;stroke-dasharray:2.96,1.28;stroke-dashoffset:0;stroke-width:0.8;"/>
     </g>
     <g id="line2d_14">
      <g>
       <use style="stroke:#000000;stroke-width:0.8;" x="363.144465" xlink:href="#m9e1518d0c0" y="288.430125"/>
      </g>
     </g>
     <g id="text_7">
      <!-- 1200 -->
      <g transform="translate(350.419465 303.028562)scale(0.1 -0.1)">
       <use xlink:href="#DejaVuSans-49"/>
       <use x="63.623047" xlink:href="#DejaVuSans-50"/>
       <use x="127.246094" xlink:href="#DejaVuSans-48"/>
       <use x="190.869141" xlink:href="#DejaVuSans-48"/>
      </g>
     </g>
    </g>
    <g id="text_8">
     <!-- Day -->
     <defs>
      <path d="M 19.671875 64.796875 
L 19.671875 8.109375 
L 31.59375 8.109375 
Q 46.6875 8.109375 53.6875 14.9375 
Q 60.6875 21.78125 60.6875 36.53125 
Q 60.6875 51.171875 53.6875 57.984375 
Q 46.6875 64.796875 31.59375 64.796875 
z
M 9.8125 72.90625 
L 30.078125 72.90625 
Q 51.265625 72.90625 61.171875 64.09375 
Q 71.09375 55.28125 71.09375 36.53125 
Q 71.09375 17.671875 61.125 8.828125 
Q 51.171875 0 30.078125 0 
L 9.8125 0 
z
" id="DejaVuSans-68"/>
      <path d="M 34.28125 27.484375 
Q 23.390625 27.484375 19.1875 25 
Q 14.984375 22.515625 14.984375 16.5 
Q 14.984375 11.71875 18.140625 8.90625 
Q 21.296875 6.109375 26.703125 6.109375 
Q 34.1875 6.109375 38.703125 11.40625 
Q 43.21875 16.703125 43.21875 25.484375 
L 43.21875 27.484375 
z
M 52.203125 31.203125 
L 52.203125 0 
L 43.21875 0 
L 43.21875 8.296875 
Q 40.140625 3.328125 35.546875 0.953125 
Q 30.953125 -1.421875 24.3125 -1.421875 
Q 15.921875 -1.421875 10.953125 3.296875 
Q 6 8.015625 6 15.921875 
Q 6 25.140625 12.171875 29.828125 
Q 18.359375 34.515625 30.609375 34.515625 
L 43.21875 34.515625 
L 43.21875 35.40625 
Q 43.21875 41.609375 39.140625 45 
Q 35.0625 48.390625 27.6875 48.390625 
Q 23 48.390625 18.546875 47.265625 
Q 14.109375 46.140625 10.015625 43.890625 
L 10.015625 52.203125 
Q 14.9375 54.109375 19.578125 55.046875 
Q 24.21875 56 28.609375 56 
Q 40.484375 56 46.34375 49.84375 
Q 52.203125 43.703125 52.203125 31.203125 
z
" id="DejaVuSans-97"/>
      <path d="M 32.171875 -5.078125 
Q 28.375 -14.84375 24.75 -17.8125 
Q 21.140625 -20.796875 15.09375 -20.796875 
L 7.90625 -20.796875 
L 7.90625 -13.28125 
L 13.1875 -13.28125 
Q 16.890625 -13.28125 18.9375 -11.515625 
Q 21 -9.765625 23.484375 -3.21875 
L 25.09375 0.875 
L 2.984375 54.6875 
L 12.5 54.6875 
L 29.59375 11.921875 
L 46.6875 54.6875 
L 56.203125 54.6875 
z
" id="DejaVuSans-121"/>
     </defs>
     <g transform="translate(222.014688 316.706687)scale(0.1 -0.1)">
      <use xlink:href="#DejaVuSans-68"/>
      <use x="77.001953" xlink:href="#DejaVuSans-97"/>
      <use x="138.28125" xlink:href="#DejaVuSans-121"/>
     </g>
    </g>
   </g>
   <g id="matplotlib.axis_2">
    <g id="ytick_1">
     <g id="line2d_15">
      <path clip-path="url(#pd30e9ae9d5)" d="M 53.328125 281.674335 
L 410.448125 281.674335 
" style="fill:none;stroke:#b0b0b0;stroke-dasharray:2.96,1.28;stroke-dashoffset:0;stroke-width:0.8;"/>
     </g>
     <g id="line2d_16">
      <defs>
       <path d="M 0 0 
L -3.5 0 
" id="mc5857d8613" style="stroke:#000000;stroke-width:0.8;"/>
      </defs>
      <g>
       <use style="stroke:#000000;stroke-width:0.8;" x="53.328125" xlink:href="#mc5857d8613" y="281.674335"/>
      </g>
     </g>
     <g id="text_9">
      <!-- 200 -->
      <g transform="translate(27.240625 285.473554)scale(0.1 -0.1)">
       <use xlink:href="#DejaVuSans-50"/>
       <use x="63.623047" xlink:href="#DejaVuSans-48"/>
       <use x="127.246094" xlink:href="#DejaVuSans-48"/>
      </g>
     </g>
    </g>
    <g id="ytick_2">
     <g id="line2d_17">
      <path clip-path="url(#pd30e9ae9d5)" d="M 53.328125 227.426812 
L 410.448125 227.426812 
" style="fill:none;stroke:#b0b0b0;stroke-dasharray:2.96,1.28;stroke-dashoffset:0;stroke-width:0.8;"/>
     </g>
     <g id="line2d_18">
      <g>
       <use style="stroke:#000000;stroke-width:0.8;" x="53.328125" xlink:href="#mc5857d8613" y="227.426812"/>
      </g>
     </g>
     <g id="text_10">
      <!-- 400 -->
      <g transform="translate(27.240625 231.226031)scale(0.1 -0.1)">
       <use xlink:href="#DejaVuSans-52"/>
       <use x="63.623047" xlink:href="#DejaVuSans-48"/>
       <use x="127.246094" xlink:href="#DejaVuSans-48"/>
      </g>
     </g>
    </g>
    <g id="ytick_3">
     <g id="line2d_19">
      <path clip-path="url(#pd30e9ae9d5)" d="M 53.328125 173.179289 
L 410.448125 173.179289 
" style="fill:none;stroke:#b0b0b0;stroke-dasharray:2.96,1.28;stroke-dashoffset:0;stroke-width:0.8;"/>
     </g>
     <g id="line2d_20">
      <g>
       <use style="stroke:#000000;stroke-width:0.8;" x="53.328125" xlink:href="#mc5857d8613" y="173.179289"/>
      </g>
     </g>
     <g id="text_11">
      <!-- 600 -->
      <g transform="translate(27.240625 176.978508)scale(0.1 -0.1)">
       <use xlink:href="#DejaVuSans-54"/>
       <use x="63.623047" xlink:href="#DejaVuSans-48"/>
       <use x="127.246094" xlink:href="#DejaVuSans-48"/>
      </g>
     </g>
    </g>
    <g id="ytick_4">
     <g id="line2d_21">
      <path clip-path="url(#pd30e9ae9d5)" d="M 53.328125 118.931766 
L 410.448125 118.931766 
" style="fill:none;stroke:#b0b0b0;stroke-dasharray:2.96,1.28;stroke-dashoffset:0;stroke-width:0.8;"/>
     </g>
     <g id="line2d_22">
      <g>
       <use style="stroke:#000000;stroke-width:0.8;" x="53.328125" xlink:href="#mc5857d8613" y="118.931766"/>
      </g>
     </g>
     <g id="text_12">
      <!-- 800 -->
      <g transform="translate(27.240625 122.730985)scale(0.1 -0.1)">
       <use xlink:href="#DejaVuSans-56"/>
       <use x="63.623047" xlink:href="#DejaVuSans-48"/>
       <use x="127.246094" xlink:href="#DejaVuSans-48"/>
      </g>
     </g>
    </g>
    <g id="ytick_5">
     <g id="line2d_23">
      <path clip-path="url(#pd30e9ae9d5)" d="M 53.328125 64.684243 
L 410.448125 64.684243 
" style="fill:none;stroke:#b0b0b0;stroke-dasharray:2.96,1.28;stroke-dashoffset:0;stroke-width:0.8;"/>
     </g>
     <g id="line2d_24">
      <g>
       <use style="stroke:#000000;stroke-width:0.8;" x="53.328125" xlink:href="#mc5857d8613" y="64.684243"/>
      </g>
     </g>
     <g id="text_13">
      <!-- 1000 -->
      <g transform="translate(20.878125 68.483462)scale(0.1 -0.1)">
       <use xlink:href="#DejaVuSans-49"/>
       <use x="63.623047" xlink:href="#DejaVuSans-48"/>
       <use x="127.246094" xlink:href="#DejaVuSans-48"/>
       <use x="190.869141" xlink:href="#DejaVuSans-48"/>
      </g>
     </g>
    </g>
    <g id="text_14">
     <!-- Price $ -->
     <defs>
      <path d="M 19.671875 64.796875 
L 19.671875 37.40625 
L 32.078125 37.40625 
Q 38.96875 37.40625 42.71875 40.96875 
Q 46.484375 44.53125 46.484375 51.125 
Q 46.484375 57.671875 42.71875 61.234375 
Q 38.96875 64.796875 32.078125 64.796875 
z
M 9.8125 72.90625 
L 32.078125 72.90625 
Q 44.34375 72.90625 50.609375 67.359375 
Q 56.890625 61.8125 56.890625 51.125 
Q 56.890625 40.328125 50.609375 34.8125 
Q 44.34375 29.296875 32.078125 29.296875 
L 19.671875 29.296875 
L 19.671875 0 
L 9.8125 0 
z
" id="DejaVuSans-80"/>
      <path d="M 41.109375 46.296875 
Q 39.59375 47.171875 37.8125 47.578125 
Q 36.03125 48 33.890625 48 
Q 26.265625 48 22.1875 43.046875 
Q 18.109375 38.09375 18.109375 28.8125 
L 18.109375 0 
L 9.078125 0 
L 9.078125 54.6875 
L 18.109375 54.6875 
L 18.109375 46.1875 
Q 20.953125 51.171875 25.484375 53.578125 
Q 30.03125 56 36.53125 56 
Q 37.453125 56 38.578125 55.875 
Q 39.703125 55.765625 41.0625 55.515625 
z
" id="DejaVuSans-114"/>
      <path d="M 9.421875 54.6875 
L 18.40625 54.6875 
L 18.40625 0 
L 9.421875 0 
z
M 9.421875 75.984375 
L 18.40625 75.984375 
L 18.40625 64.59375 
L 9.421875 64.59375 
z
" id="DejaVuSans-105"/>
      <path d="M 48.78125 52.59375 
L 48.78125 44.1875 
Q 44.96875 46.296875 41.140625 47.34375 
Q 37.3125 48.390625 33.40625 48.390625 
Q 24.65625 48.390625 19.8125 42.84375 
Q 14.984375 37.3125 14.984375 27.296875 
Q 14.984375 17.28125 19.8125 11.734375 
Q 24.65625 6.203125 33.40625 6.203125 
Q 37.3125 6.203125 41.140625 7.25 
Q 44.96875 8.296875 48.78125 10.40625 
L 48.78125 2.09375 
Q 45.015625 0.34375 40.984375 -0.53125 
Q 36.96875 -1.421875 32.421875 -1.421875 
Q 20.0625 -1.421875 12.78125 6.34375 
Q 5.515625 14.109375 5.515625 27.296875 
Q 5.515625 40.671875 12.859375 48.328125 
Q 20.21875 56 33.015625 56 
Q 37.15625 56 41.109375 55.140625 
Q 45.0625 54.296875 48.78125 52.59375 
z
" id="DejaVuSans-99"/>
      <path d="M 56.203125 29.59375 
L 56.203125 25.203125 
L 14.890625 25.203125 
Q 15.484375 15.921875 20.484375 11.0625 
Q 25.484375 6.203125 34.421875 6.203125 
Q 39.59375 6.203125 44.453125 7.46875 
Q 49.3125 8.734375 54.109375 11.28125 
L 54.109375 2.78125 
Q 49.265625 0.734375 44.1875 -0.34375 
Q 39.109375 -1.421875 33.890625 -1.421875 
Q 20.796875 -1.421875 13.15625 6.1875 
Q 5.515625 13.8125 5.515625 26.8125 
Q 5.515625 40.234375 12.765625 48.109375 
Q 20.015625 56 32.328125 56 
Q 43.359375 56 49.78125 48.890625 
Q 56.203125 41.796875 56.203125 29.59375 
z
M 47.21875 32.234375 
Q 47.125 39.59375 43.09375 43.984375 
Q 39.0625 48.390625 32.421875 48.390625 
Q 24.90625 48.390625 20.390625 44.140625 
Q 15.875 39.890625 15.1875 32.171875 
z
" id="DejaVuSans-101"/>
      <path id="DejaVuSans-32"/>
      <path d="M 33.796875 -14.703125 
L 28.90625 -14.703125 
L 28.859375 0 
Q 23.734375 0.09375 18.609375 1.1875 
Q 13.484375 2.296875 8.296875 4.5 
L 8.296875 13.28125 
Q 13.28125 10.15625 18.375 8.5625 
Q 23.484375 6.984375 28.90625 6.9375 
L 28.90625 29.203125 
Q 18.109375 30.953125 13.203125 35.15625 
Q 8.296875 39.359375 8.296875 46.6875 
Q 8.296875 54.640625 13.625 59.21875 
Q 18.953125 63.8125 28.90625 64.5 
L 28.90625 75.984375 
L 33.796875 75.984375 
L 33.796875 64.65625 
Q 38.328125 64.453125 42.578125 63.6875 
Q 46.828125 62.9375 50.875 61.625 
L 50.875 53.078125 
Q 46.828125 55.125 42.546875 56.25 
Q 38.28125 57.375 33.796875 57.5625 
L 33.796875 36.71875 
Q 44.875 35.015625 50.09375 30.609375 
Q 55.328125 26.21875 55.328125 18.609375 
Q 55.328125 10.359375 49.78125 5.59375 
Q 44.234375 0.828125 33.796875 0.09375 
z
M 28.90625 37.59375 
L 28.90625 57.625 
Q 23.25 56.984375 20.265625 54.390625 
Q 17.28125 51.8125 17.28125 47.515625 
Q 17.28125 43.3125 20.03125 40.96875 
Q 22.796875 38.625 28.90625 37.59375 
z
M 33.796875 28.21875 
L 33.796875 7.078125 
Q 39.984375 7.90625 43.140625 10.59375 
Q 46.296875 13.28125 46.296875 17.671875 
Q 46.296875 21.96875 43.28125 24.5 
Q 40.28125 27.046875 33.796875 28.21875 
z
" id="DejaVuSans-36"/>
     </defs>
     <g transform="translate(14.798438 172.342094)rotate(-90)scale(0.1 -0.1)">
      <use xlink:href="#DejaVuSans-80"/>
      <use x="58.552734" xlink:href="#DejaVuSans-114"/>
      <use x="99.666016" xlink:href="#DejaVuSans-105"/>
      <use x="127.449219" xlink:href="#DejaVuSans-99"/>
      <use x="182.429688" xlink:href="#DejaVuSans-101"/>
      <use x="243.953125" xlink:href="#DejaVuSans-32"/>
      <use x="275.740234" xlink:href="#DejaVuSans-36"/>
     </g>
    </g>
   </g>
   <g id="line2d_25">
    <path clip-path="url(#pd30e9ae9d5)" d="M 69.560852 272.120804 
L 69.805505 272.285443 
L 70.050158 273.361065 
L 70.294811 273.858221 
L 70.539464 273.278079 
L 70.784117 272.118709 
L 71.02877 272.647597 
L 71.273423 272.081667 
L 71.518076 272.813851 
L 71.762729 272.852913 
L 72.007382 273.182747 
L 72.252035 273.186298 
L 72.496688 272.928842 
L 72.985994 270.594595 
L 73.719953 271.222809 
L 73.964606 270.183807 
L 74.209259 270.815444 
L 74.453912 269.53562 
L 74.698566 270.153656 
L 74.943219 269.507071 
L 75.187872 269.275987 
L 75.432525 269.536191 
L 75.677178 268.951794 
L 75.921831 269.086055 
L 76.166484 269.542138 
L 76.65579 265.925824 
L 76.900443 266.633697 
L 77.145096 266.992357 
L 77.389749 266.939957 
L 77.634402 265.590833 
L 77.879055 265.385717 
L 78.123708 266.334345 
L 78.368361 266.055508 
L 78.613014 265.208892 
L 78.857667 265.497943 
L 79.346973 267.119169 
L 79.836279 268.468652 
L 80.080932 266.479739 
L 80.570238 267.869083 
L 80.814891 268.229349 
L 81.304197 265.481098 
L 81.54885 266.127125 
L 81.793503 265.942802 
L 82.282809 269.74872 
L 82.527462 269.88068 
L 82.772115 270.403956 
L 83.016768 269.904689 
L 83.261421 270.024113 
L 83.506074 269.014397 
L 83.750727 269.809514 
L 84.240033 272.783381 
L 84.484686 272.525156 
L 84.973992 275.697514 
L 85.218645 271.347775 
L 85.463298 273.07422 
L 85.707951 273.229142 
L 85.952604 273.144654 
L 86.44191 271.68702 
L 86.931216 274.537577 
L 87.175869 274.750814 
L 87.665175 274.680435 
L 88.154481 276.334125 
L 88.88844 272.73125 
L 89.133093 271.599242 
L 89.377746 271.117151 
L 89.622399 270.068435 
L 89.867052 270.173696 
L 90.356358 267.996763 
L 90.601011 267.838634 
L 90.845664 268.343285 
L 91.33497 267.287881 
L 91.579623 267.476679 
L 91.824276 267.499264 
L 92.068929 269.039267 
L 92.313582 268.109048 
L 92.558235 267.855255 
L 92.802888 268.019907 
L 93.047541 268.613327 
L 93.536847 265.463144 
L 93.7815 266.261693 
L 94.026153 265.23346 
L 94.270806 266.571756 
L 94.515459 265.98654 
L 94.760112 268.861532 
L 95.004765 268.775421 
L 95.249418 269.681573 
L 95.738724 266.343508 
L 96.22803 265.945103 
L 96.472683 263.277218 
L 96.717336 263.998736 
L 96.961989 263.966305 
L 97.206643 264.254197 
L 97.451296 263.466773 
L 97.695949 262.173056 
L 97.940602 262.503982 
L 98.185255 263.33651 
L 98.674561 262.357967 
L 99.163867 263.50187 
L 99.40852 261.88643 
L 99.653173 259.027558 
L 99.897826 261.492694 
L 100.142479 265.796803 
L 100.387132 261.951715 
L 100.631785 264.201899 
L 100.876438 264.263261 
L 101.121091 265.746757 
L 101.365744 263.646478 
L 101.610397 265.120141 
L 101.85505 265.598275 
L 102.099703 265.094216 
L 102.344356 266.434685 
L 102.589009 265.954597 
L 102.833662 262.94135 
L 103.078315 263.193648 
L 103.322968 264.386099 
L 103.567621 262.976769 
L 103.812274 263.961611 
L 104.30158 264.205417 
L 104.546233 265.755647 
L 104.790886 265.817132 
L 105.035539 264.707101 
L 105.280192 264.48831 
L 105.524845 264.106451 
L 105.769498 262.032222 
L 106.014151 261.433228 
L 106.258804 261.978642 
L 106.74811 261.791851 
L 106.992763 262.634544 
L 107.237416 261.775843 
L 107.482069 261.561281 
L 107.726722 264.23986 
L 108.216028 266.210877 
L 108.460681 266.560043 
L 108.705334 266.331158 
L 108.949987 267.461498 
L 109.19464 266.174241 
L 109.439293 266.7339 
L 109.928599 264.157772 
L 110.173252 263.890764 
L 110.417905 265.305772 
L 110.662558 264.719675 
L 110.907211 265.95348 
L 111.151864 265.872575 
L 111.396517 266.923786 
L 111.64117 265.879702 
L 111.885823 265.337252 
L 112.619782 262.174661 
L 112.864435 263.673223 
L 113.109088 262.243804 
L 113.353741 263.711779 
L 113.598394 265.879752 
L 113.843047 265.509945 
L 114.0877 264.599725 
L 114.332353 263.169412 
L 114.577006 263.328233 
L 114.821659 261.628652 
L 115.066312 267.352007 
L 115.310965 268.39055 
L 115.555618 267.156927 
L 115.800271 268.801971 
L 116.289577 266.128433 
L 116.53423 266.857562 
L 116.778883 266.258489 
L 117.268189 265.570851 
L 117.512842 264.62892 
L 117.757495 264.440904 
L 118.002148 263.376929 
L 118.491454 264.593418 
L 118.736107 262.90646 
L 118.98076 263.641752 
L 119.225413 263.260282 
L 119.470066 264.962371 
L 119.71472 265.153549 
L 119.959373 265.155295 
L 120.204026 263.575705 
L 120.448679 264.197877 
L 120.693332 263.79501 
L 120.937985 263.136699 
L 121.182638 263.808386 
L 121.427291 264.108372 
L 121.671944 263.667064 
L 121.916597 263.503972 
L 122.16125 260.965523 
L 122.405903 259.944989 
L 122.650556 261.806842 
L 122.895209 262.561445 
L 123.139862 261.290126 
L 123.384515 261.871042 
L 123.873821 259.757205 
L 124.363127 262.102705 
L 124.60778 262.010022 
L 124.852433 262.775377 
L 125.097086 262.324708 
L 125.341739 260.818573 
L 125.586392 260.925104 
L 125.831045 260.889213 
L 126.075698 259.621205 
L 126.320351 259.213488 
L 126.565004 259.160769 
L 126.809657 258.641686 
L 127.05431 257.320006 
L 127.543616 256.935044 
L 128.032922 252.719322 
L 128.277575 253.159827 
L 128.522228 253.042154 
L 128.766881 252.48876 
L 129.011534 253.805597 
L 129.256187 253.394188 
L 129.990146 255.142018 
L 130.234799 253.809587 
L 130.479452 251.440645 
L 130.724105 253.316926 
L 130.968758 254.24068 
L 131.213411 254.475008 
L 131.458064 253.171531 
L 131.702717 253.693379 
L 131.94737 254.608764 
L 132.192023 254.618747 
L 132.436676 255.691414 
L 132.681329 255.956319 
L 132.925982 255.517164 
L 133.170635 255.714781 
L 133.659941 257.190836 
L 133.904594 258.516472 
L 134.149247 258.893744 
L 134.3939 258.665301 
L 134.638553 258.26366 
L 134.883206 259.031664 
L 135.127859 257.516614 
L 135.372512 257.528252 
L 135.861818 260.043781 
L 136.106471 259.736577 
L 136.351124 259.075369 
L 136.595777 260.000042 
L 137.085083 256.505714 
L 137.329736 256.450718 
L 137.574389 255.960872 
L 137.819042 254.854317 
L 138.063695 254.726727 
L 138.797654 255.39286 
L 139.042307 255.905859 
L 139.531613 251.474078 
L 139.776266 251.626806 
L 140.020919 250.392463 
L 140.265572 251.828008 
L 140.510225 250.922729 
L 140.754878 251.414297 
L 140.999531 249.801101 
L 141.488837 251.464583 
L 141.73349 249.012502 
L 141.978143 249.293805 
L 142.222797 250.940575 
L 142.46745 249.594411 
L 142.956756 253.985501 
L 143.201409 255.301443 
L 143.690715 251.763824 
L 143.935368 251.961872 
L 144.180021 253.19672 
L 144.424674 251.887622 
L 144.669327 251.868286 
L 144.91398 246.675544 
L 145.158633 247.819207 
L 145.403286 245.982989 
L 145.647939 247.792264 
L 145.892592 245.999279 
L 146.137245 237.159017 
L 146.381898 239.401612 
L 146.626551 237.95995 
L 146.871204 238.520785 
L 147.115857 237.450825 
L 147.36051 239.039007 
L 147.849816 238.927277 
L 148.094469 239.685679 
L 148.339122 243.276573 
L 148.583775 240.991747 
L 148.828428 239.977155 
L 149.073081 241.471148 
L 149.317734 239.465497 
L 149.562387 236.348674 
L 149.80704 236.088784 
L 150.051693 237.017662 
L 150.296346 237.272047 
L 150.540999 237.890742 
L 150.785652 236.010934 
L 151.030305 235.232476 
L 151.764264 231.349005 
L 152.008917 229.455225 
L 152.25357 229.995259 
L 152.498223 232.148836 
L 152.742876 231.535613 
L 152.987529 231.976573 
L 153.232182 231.233533 
L 153.476835 231.936799 
L 153.721488 231.012557 
L 153.966141 232.708852 
L 154.210794 232.793729 
L 154.455447 231.911967 
L 154.7001 230.594981 
L 154.944753 231.131455 
L 155.189406 228.672603 
L 155.434059 229.107785 
L 155.678712 227.011165 
L 155.923365 227.016255 
L 156.168018 228.069437 
L 156.412671 226.476164 
L 156.901977 229.626098 
L 157.14663 227.951838 
L 157.635936 228.756206 
L 157.880589 229.539068 
L 158.369895 227.128407 
L 158.614548 227.492717 
L 158.859201 228.447893 
L 159.103854 230.268309 
L 159.348507 228.170249 
L 159.59316 228.856231 
L 159.837813 228.844932 
L 160.082466 227.775544 
L 160.327119 225.6701 
L 160.816425 227.885676 
L 161.061078 231.307791 
L 161.305731 231.326093 
L 161.550384 228.973259 
L 161.795037 232.188974 
L 162.03969 226.50963 
L 162.284343 239.857976 
L 162.528996 242.207582 
L 162.773649 241.491552 
L 163.018302 241.89989 
L 163.507608 238.127089 
L 163.752261 238.303252 
L 163.996914 238.008224 
L 164.241567 241.59959 
L 164.48622 238.996353 
L 164.730874 239.186909 
L 164.975527 240.279955 
L 165.22018 242.085621 
L 165.464833 241.206068 
L 165.709486 242.152751 
L 166.198792 238.913056 
L 166.443445 238.611672 
L 166.688098 238.550617 
L 166.932751 237.949371 
L 167.177404 238.634493 
L 167.422057 237.38203 
L 167.66671 235.042896 
L 167.911363 235.310359 
L 168.156016 235.339371 
L 168.645322 236.167851 
L 168.889975 235.605965 
L 169.134628 235.406005 
L 169.868587 233.404593 
L 170.847199 240.782111 
L 171.091852 239.788759 
L 171.336505 243.147113 
L 171.581158 244.335176 
L 171.825811 244.315244 
L 172.070464 244.844086 
L 172.315117 242.954064 
L 172.55977 243.417672 
L 173.293729 249.896706 
L 173.538382 247.157933 
L 173.783035 246.066998 
L 174.027688 250.43986 
L 174.272341 251.671298 
L 174.516994 250.317121 
L 174.761647 250.345066 
L 175.0063 248.250532 
L 175.250953 248.082242 
L 175.495606 246.36777 
L 175.740259 246.934581 
L 175.984912 248.217413 
L 176.229565 244.502374 
L 176.474218 254.333918 
L 176.718871 255.666424 
L 177.45283 252.616002 
L 177.697483 252.662323 
L 177.942136 252.034532 
L 178.186789 255.649728 
L 178.676095 257.865594 
L 178.920748 256.682828 
L 179.165401 253.816217 
L 179.410054 253.547115 
L 179.654707 255.601818 
L 179.89936 256.121778 
L 180.144013 255.309348 
L 180.388666 255.63761 
L 180.877972 253.41691 
L 181.122625 253.511737 
L 181.367278 251.410324 
L 181.611931 251.945714 
L 181.856584 252.082566 
L 182.101237 251.032158 
L 182.34589 251.431962 
L 182.590543 252.479787 
L 182.835196 252.875668 
L 183.079849 252.94313 
L 183.324502 248.130715 
L 183.569155 246.755075 
L 183.813808 247.506284 
L 184.058461 246.028607 
L 184.303114 245.249039 
L 184.547767 247.969229 
L 185.037073 247.286864 
L 185.281726 247.894201 
L 185.526379 245.377771 
L 185.771032 247.694986 
L 186.015685 248.304319 
L 186.260338 247.36877 
L 186.504991 248.276821 
L 186.749644 247.302731 
L 186.994298 247.891735 
L 187.238951 248.157128 
L 187.483604 248.086786 
L 187.728257 245.890538 
L 187.97291 245.945045 
L 188.217563 244.621495 
L 188.462216 245.864 
L 188.706869 248.532431 
L 188.951522 246.546167 
L 189.196175 247.268587 
L 189.440828 241.990462 
L 189.685481 239.828011 
L 189.930134 240.245198 
L 190.174787 239.794462 
L 190.41944 240.724979 
L 190.664093 238.809016 
L 190.908746 238.671411 
L 191.153399 238.386614 
L 191.398052 239.216725 
L 191.642705 238.968797 
L 191.887358 248.95614 
L 192.376664 249.194922 
L 192.621317 248.483974 
L 192.86597 251.423808 
L 193.110623 252.891668 
L 193.355276 250.870158 
L 193.599929 251.362513 
L 193.844582 250.932976 
L 194.089235 251.696263 
L 194.333888 250.096393 
L 194.823194 249.556426 
L 195.3125 245.762129 
L 195.557153 245.79845 
L 196.291112 245.157291 
L 196.535765 245.999826 
L 196.780418 246.305456 
L 197.025071 245.568468 
L 197.269724 243.363197 
L 197.514377 243.156342 
L 197.75903 244.081346 
L 198.003683 244.257343 
L 198.248336 243.224632 
L 198.492989 244.275288 
L 198.737642 242.20874 
L 198.982295 242.26127 
L 199.226948 243.414849 
L 199.471601 246.96068 
L 199.716254 246.175417 
L 199.960907 246.463938 
L 200.20556 246.282164 
L 200.450213 248.458049 
L 200.694866 247.163686 
L 200.939519 248.332264 
L 201.184172 247.951755 
L 201.428825 246.199736 
L 201.673478 248.279453 
L 201.918131 248.39495 
L 202.162784 247.062253 
L 202.407437 248.947093 
L 202.65209 248.480316 
L 202.896743 248.91866 
L 203.141396 248.692708 
L 203.386049 250.166926 
L 203.630702 249.775457 
L 203.875355 248.563571 
L 204.120008 248.806077 
L 204.364661 250.30881 
L 204.609314 248.542165 
L 204.853967 250.748446 
L 205.343273 253.085255 
L 205.587926 252.427151 
L 206.077232 254.033394 
L 206.321885 253.766138 
L 206.566538 253.033123 
L 206.811191 250.486769 
L 207.055844 251.36301 
L 207.300497 251.242307 
L 207.54515 258.699595 
L 208.034456 255.785239 
L 208.279109 256.345048 
L 208.768415 253.272964 
L 209.013068 253.28447 
L 209.257721 254.109183 
L 209.502375 255.817679 
L 209.747028 255.632271 
L 209.991681 254.732637 
L 210.480987 251.498794 
L 210.72564 251.779385 
L 210.970293 250.316277 
L 211.214946 247.134905 
L 211.459599 248.724155 
L 212.682864 245.170857 
L 213.17217 245.783476 
L 213.416823 244.273202 
L 213.661476 248.017338 
L 213.906129 247.626184 
L 214.150782 250.463385 
L 214.395435 250.094059 
L 214.884741 253.016949 
L 215.129394 251.258771 
L 215.374047 253.277359 
L 215.6187 252.718627 
L 215.863353 252.787827 
L 216.108006 253.11973 
L 216.352659 256.276121 
L 216.597312 254.962371 
L 216.841965 255.386453 
L 217.086618 254.764887 
L 217.331271 252.972117 
L 217.575924 253.158833 
L 217.820577 254.085526 
L 218.06523 252.269058 
L 218.309883 251.523213 
L 218.554536 252.089006 
L 218.799189 252.054017 
L 219.043842 252.550668 
L 219.533148 256.155244 
L 219.777801 255.121391 
L 220.022454 254.613929 
L 220.51176 257.205189 
L 220.756413 256.115736 
L 221.001066 256.585981 
L 221.245719 258.37207 
L 221.490372 257.194941 
L 221.735025 257.628567 
L 221.979678 255.391221 
L 222.224331 251.843826 
L 222.468984 251.499531 
L 223.202943 253.762471 
L 223.447596 251.460577 
L 223.692249 239.368071 
L 223.936902 237.472702 
L 224.181555 237.96192 
L 224.426208 237.540487 
L 224.670861 234.685646 
L 224.915514 234.806432 
L 225.160167 235.925726 
L 225.649473 234.531213 
L 225.894126 233.988108 
L 226.138779 232.68267 
L 226.383432 234.627298 
L 226.628085 235.005589 
L 227.117391 232.056261 
L 227.362044 233.23055 
L 227.606697 233.581277 
L 227.85135 231.543303 
L 228.096003 231.875728 
L 228.340656 233.229987 
L 228.585309 231.527344 
L 229.074615 232.482602 
L 229.319268 230.979919 
L 229.563921 233.338423 
L 229.808574 233.576476 
L 230.053227 236.176071 
L 230.29788 236.820318 
L 230.542533 234.519252 
L 230.787186 235.780919 
L 231.031839 234.915728 
L 231.276492 235.400468 
L 231.521145 234.376928 
L 231.765798 235.026531 
L 232.010452 233.437157 
L 232.255105 234.570829 
L 232.499758 234.757445 
L 232.989064 236.599077 
L 233.47837 234.530368 
L 233.967676 235.837231 
L 234.212329 235.185112 
L 234.456982 233.825066 
L 234.701635 234.720826 
L 234.946288 232.687504 
L 235.190941 232.176864 
L 235.435594 232.462935 
L 235.680247 232.540172 
L 235.9249 231.699268 
L 236.169553 232.252065 
L 236.414206 231.460718 
L 236.658859 234.576458 
L 236.903512 230.231366 
L 237.148165 230.136283 
L 237.392818 230.54169 
L 237.637471 230.502472 
L 237.882124 214.343372 
L 238.37143 220.243195 
L 238.616083 220.008271 
L 238.860736 221.921768 
L 239.105389 221.501518 
L 239.350042 221.560686 
L 239.839348 222.688274 
L 240.328654 218.519428 
L 240.81796 219.420079 
L 241.062613 220.522644 
L 241.307266 218.790028 
L 241.551919 220.814799 
L 241.796572 220.861865 
L 242.041225 221.916015 
L 242.285878 221.153465 
L 242.530531 218.998977 
L 242.775184 220.38258 
L 243.019837 220.899759 
L 243.26449 219.087687 
L 243.509143 220.637619 
L 243.753796 219.741106 
L 243.998449 219.349571 
L 244.243102 219.339862 
L 244.487755 217.738444 
L 244.732408 219.579388 
L 245.221714 221.4115 
L 245.466367 220.706579 
L 245.71102 219.26471 
L 245.955673 218.781452 
L 246.200326 219.735742 
L 246.444979 221.439379 
L 246.689632 220.181404 
L 246.934285 220.126193 
L 247.178938 216.776928 
L 247.423591 218.458323 
L 247.668244 217.873516 
L 247.912897 215.090219 
L 248.15755 216.814119 
L 248.402203 216.902059 
L 248.646856 217.46959 
L 248.891509 219.767975 
L 249.380815 217.507054 
L 249.625468 217.507534 
L 249.870121 218.031973 
L 250.114774 217.73707 
L 250.359427 219.785225 
L 250.60408 218.203814 
L 251.338039 209.887842 
L 251.582692 211.427964 
L 251.827345 207.029127 
L 252.316651 203.906244 
L 252.561304 204.157186 
L 252.805957 203.979774 
L 253.05061 205.769505 
L 253.295263 191.586579 
L 253.784569 194.117909 
L 254.029222 193.125054 
L 254.273875 190.584519 
L 255.007835 192.290631 
L 255.252488 190.591555 
L 255.741794 194.717648 
L 255.986447 194.094732 
L 256.2311 193.066466 
L 256.475753 193.671734 
L 256.720406 192.512617 
L 256.965059 192.070681 
L 257.209712 190.999339 
L 257.454365 191.203032 
L 257.699018 191.787275 
L 258.188324 202.456645 
L 258.432977 210.922755 
L 258.67763 209.157781 
L 258.922283 199.391472 
L 259.166936 195.335912 
L 259.411589 196.04258 
L 259.656242 197.428534 
L 259.900895 201.847055 
L 260.145548 197.162967 
L 260.634854 200.974655 
L 260.879507 195.504939 
L 261.12416 196.201691 
L 261.613466 192.683184 
L 261.858119 195.147235 
L 262.102772 194.584562 
L 262.347425 193.121263 
L 262.592078 189.857439 
L 262.836731 189.883281 
L 263.081384 187.463631 
L 263.326037 190.671052 
L 263.57069 190.891747 
L 263.815343 191.544413 
L 264.059996 194.201032 
L 264.304649 199.900912 
L 264.549302 201.58061 
L 264.793955 196.744033 
L 265.038608 194.698494 
L 265.527914 188.644551 
L 265.772567 190.697524 
L 266.01722 189.116055 
L 266.261873 191.857303 
L 266.751179 186.863362 
L 266.995832 187.563127 
L 267.240485 188.778067 
L 267.485138 183.372387 
L 267.729791 181.477051 
L 267.974444 181.007136 
L 268.219097 184.740196 
L 268.46375 185.659348 
L 268.708403 183.086084 
L 268.953056 172.959041 
L 269.197709 171.443875 
L 269.442362 170.948515 
L 269.687015 169.16875 
L 269.931668 166.326599 
L 270.176321 166.885894 
L 270.420974 166.098769 
L 270.665627 167.101308 
L 271.154933 158.504149 
L 271.399586 157.840871 
L 271.644239 159.107281 
L 271.888892 157.537351 
L 272.133545 153.588795 
L 272.378198 156.362557 
L 272.622851 162.931692 
L 272.867504 160.400494 
L 273.112157 161.925924 
L 273.35681 155.752554 
L 273.601463 157.358805 
L 274.090769 152.127532 
L 274.335422 154.61519 
L 274.580075 153.115784 
L 274.824728 153.886868 
L 275.069381 156.247383 
L 275.314034 151.808483 
L 275.558687 153.250625 
L 275.80334 155.963746 
L 276.047993 153.787339 
L 276.292646 154.751587 
L 276.537299 152.419927 
L 276.781952 156.486769 
L 277.026606 156.614028 
L 277.271259 163.173528 
L 277.515912 157.023881 
L 277.760565 157.668368 
L 278.005218 152.469194 
L 278.494524 156.252714 
L 278.739177 156.027715 
L 278.98383 156.308935 
L 279.228483 156.210217 
L 279.473136 156.542361 
L 279.962442 147.753742 
L 280.207095 149.844924 
L 280.451748 153.494547 
L 280.696401 164.44805 
L 280.941054 163.887447 
L 281.185707 164.348538 
L 281.43036 171.60085 
L 281.675013 171.262481 
L 281.919666 168.089114 
L 282.164319 168.344541 
L 282.408972 179.01651 
L 282.653625 174.505198 
L 282.898278 181.612802 
L 283.142931 179.576914 
L 283.387584 180.898535 
L 283.632237 179.713857 
L 283.87689 173.795467 
L 284.121543 174.376085 
L 284.366196 172.996654 
L 284.610849 178.461535 
L 284.855502 162.387015 
L 285.100155 178.693836 
L 285.344808 180.273566 
L 285.834114 191.947081 
L 286.078767 190.283334 
L 286.32342 200.372896 
L 286.568073 203.510811 
L 286.812726 204.966106 
L 287.302032 198.836449 
L 287.546685 198.267386 
L 288.035991 190.850194 
L 288.280644 193.881751 
L 288.525297 190.730733 
L 288.76995 183.845596 
L 289.014603 186.599392 
L 289.503909 185.852016 
L 289.748562 185.725237 
L 289.993215 185.776442 
L 290.237868 186.58201 
L 290.482521 178.614653 
L 291.21648 180.488864 
L 291.461133 183.835331 
L 291.950439 184.371317 
L 292.195092 184.51667 
L 292.439745 181.411625 
L 292.929051 179.654375 
L 293.173704 180.589552 
L 293.418357 184.790722 
L 293.66301 186.462284 
L 293.907663 185.699014 
L 294.396969 181.533652 
L 294.641622 177.921841 
L 294.886275 179.250581 
L 295.130928 174.910498 
L 295.375581 173.972308 
L 295.620234 175.525153 
L 295.864887 173.976049 
L 296.354193 177.543112 
L 296.598846 172.634264 
L 296.843499 176.339578 
L 297.088152 174.959104 
L 297.332805 174.755493 
L 298.55607 163.902678 
L 298.800723 166.405782 
L 299.045376 164.559184 
L 299.29003 165.384204 
L 299.534683 168.331744 
L 299.779336 166.344528 
L 300.268642 171.960044 
L 300.513295 173.020443 
L 300.757948 155.760235 
L 301.002601 150.718682 
L 301.247254 155.1401 
L 301.491907 154.801401 
L 301.73656 157.934755 
L 301.981213 153.026139 
L 302.225866 152.120098 
L 302.470519 145.31512 
L 302.959825 142.028384 
L 303.204478 144.596599 
L 303.449131 143.801974 
L 303.693784 148.449401 
L 303.938437 147.100199 
L 304.18309 147.024013 
L 304.427743 145.665706 
L 304.672396 147.720003 
L 304.917049 145.123314 
L 305.161702 144.194527 
L 305.406355 142.27012 
L 305.651008 143.371626 
L 305.895661 140.015872 
L 306.140314 141.464304 
L 306.384967 138.607568 
L 306.62962 139.87426 
L 306.874273 139.257022 
L 307.118926 140.314822 
L 307.363579 139.221826 
L 307.608232 139.120807 
L 307.852885 141.97112 
L 308.097538 142.41251 
L 308.342191 141.102991 
L 308.586844 142.723811 
L 308.831497 141.59797 
L 309.07615 145.020176 
L 309.320803 142.264194 
L 309.565456 142.123012 
L 309.810109 143.60881 
L 310.054762 140.140746 
L 310.299415 147.332218 
L 310.544068 148.651422 
L 310.788721 143.677596 
L 311.033374 141.920577 
L 311.278027 142.323279 
L 311.52268 139.336387 
L 311.767333 138.884964 
L 312.011986 136.076668 
L 312.256639 136.798451 
L 312.745945 131.965309 
L 313.235251 135.25976 
L 313.479904 135.418093 
L 313.724557 137.041545 
L 313.96921 136.66515 
L 314.213863 135.576557 
L 314.458516 133.962674 
L 314.703169 134.55142 
L 314.947822 134.290629 
L 315.437128 136.755789 
L 315.681781 136.345257 
L 315.926434 131.678957 
L 316.171087 130.494378 
L 316.41574 128.013177 
L 316.660393 130.484677 
L 316.905046 131.786846 
L 317.394352 128.481932 
L 317.639005 128.572141 
L 317.883658 128.082195 
L 318.128311 128.020047 
L 318.372964 127.181137 
L 318.617617 126.890448 
L 319.106923 129.246394 
L 319.351576 128.890527 
L 319.596229 128.964247 
L 319.840882 131.073871 
L 320.330188 129.395455 
L 320.574841 130.998264 
L 320.819494 130.259727 
L 321.064147 127.443419 
L 321.3088 127.097518 
L 321.553453 128.27857 
L 322.04276 127.257555 
L 322.287413 126.774778 
L 322.532066 122.034973 
L 322.776719 123.950043 
L 323.021372 123.794359 
L 323.266025 130.911946 
L 323.510678 126.485925 
L 323.755331 130.250407 
L 323.999984 129.648234 
L 324.48929 124.900665 
L 324.733943 126.328239 
L 324.978596 124.563506 
L 325.223249 121.947182 
L 325.467902 117.778294 
L 325.712555 118.089611 
L 325.957208 119.961009 
L 326.446514 111.57971 
L 326.691167 111.901457 
L 326.93582 109.497865 
L 327.180473 109.864029 
L 327.425126 110.515751 
L 327.669779 107.393125 
L 327.914432 108.528337 
L 328.159085 109.001893 
L 328.403738 108.279018 
L 328.648391 111.395618 
L 328.893044 110.065372 
L 329.38235 113.212731 
L 329.627003 116.037301 
L 329.871656 114.205388 
L 330.116309 114.469225 
L 330.360962 116.579197 
L 330.605615 113.84967 
L 330.850268 108.519364 
L 331.094921 110.052062 
L 331.339574 113.611741 
L 331.584227 114.392592 
L 331.82888 126.538703 
L 332.073533 121.131979 
L 332.318186 123.282759 
L 332.562839 128.73986 
L 332.807492 128.028689 
L 333.052145 131.402455 
L 333.296798 122.261827 
L 333.541451 122.66625 
L 333.786104 127.159964 
L 334.030757 135.444233 
L 334.27541 135.186289 
L 334.520063 141.156215 
L 334.764716 133.490922 
L 335.009369 133.734612 
L 335.254022 130.69731 
L 335.498675 130.182962 
L 335.743328 124.133836 
L 335.987981 123.403164 
L 336.232634 124.942517 
L 336.477287 124.776188 
L 336.72194 128.70271 
L 336.966593 129.485349 
L 337.211246 132.990579 
L 337.700552 135.430774 
L 337.945205 129.673861 
L 338.189858 128.846242 
L 338.434511 127.204579 
L 338.679164 128.346777 
L 338.923817 127.615045 
L 339.16847 130.252427 
L 339.413123 125.686433 
L 339.902429 129.979385 
L 340.147082 130.827201 
L 340.391735 128.152007 
L 340.636388 127.032771 
L 340.881041 127.374732 
L 341.370347 130.073848 
L 341.615 126.67452 
L 341.859653 126.905099 
L 342.104306 128.94789 
L 342.348959 133.255559 
L 342.593612 131.493325 
L 342.838265 130.705008 
L 343.082918 123.956151 
L 343.327571 120.354489 
L 343.572224 120.452842 
L 343.816877 120.76156 
L 344.06153 119.635355 
L 344.306184 115.410908 
L 344.550837 114.98306 
L 344.79549 117.268201 
L 345.040143 117.637758 
L 345.284796 117.017806 
L 345.529449 117.279888 
L 345.774102 114.454011 
L 346.018755 113.4596 
L 346.263408 109.347678 
L 346.508061 109.106273 
L 346.752714 109.995559 
L 347.24202 113.182187 
L 347.731326 108.51299 
L 347.975979 117.534538 
L 348.220632 117.136687 
L 348.465285 115.718583 
L 348.709938 113.642285 
L 348.954591 113.660992 
L 349.443897 109.335328 
L 349.68855 109.605937 
L 349.933203 107.726974 
L 350.422509 107.245918 
L 350.667162 103.996231 
L 351.156468 105.559556 
L 351.401121 107.512321 
L 351.645774 106.152044 
L 351.890427 107.419034 
L 352.13508 104.856745 
L 352.379733 106.475099 
L 352.624386 105.856884 
L 352.869039 106.948887 
L 353.113692 106.841362 
L 353.358345 105.599387 
L 353.602998 104.969866 
L 353.847651 105.236534 
L 354.092304 104.563854 
L 354.336957 105.230128 
L 354.58161 104.992 
L 354.826263 104.919224 
L 355.070916 105.233008 
L 355.315569 103.854421 
L 355.560222 108.073702 
L 355.804875 106.085394 
L 356.294181 106.94599 
L 356.538834 106.696423 
L 356.783487 103.940391 
L 357.02814 98.927859 
L 357.272793 98.959032 
L 357.517446 95.925522 
L 357.762099 94.840654 
L 358.006752 90.313085 
L 358.251405 90.272856 
L 358.496058 93.408892 
L 358.740711 94.041245 
L 358.985364 90.274363 
L 359.47467 93.722908 
L 359.719323 96.941322 
L 359.963976 91.269237 
L 360.208629 91.52584 
L 360.453282 92.723779 
L 360.697935 91.853001 
L 360.942588 92.780447 
L 361.187241 90.05582 
L 361.431894 90.384388 
L 361.676547 89.791982 
L 362.165853 85.56997 
L 362.410506 78.983435 
L 363.144465 82.5748 
L 363.389118 83.257248 
L 363.633771 78.894551 
L 363.878424 78.395318 
L 364.123077 79.550759 
L 364.36773 79.814878 
L 364.612383 75.593859 
L 364.857036 77.105929 
L 365.101689 74.473514 
L 365.346342 81.11915 
L 365.590995 76.021045 
L 365.835648 76.470199 
L 366.080301 72.978181 
L 366.324954 73.479517 
L 366.814261 67.21698 
L 367.058914 66.748821 
L 367.303567 66.580953 
L 367.54822 67.139536 
L 367.792873 66.608666 
L 368.037526 63.546581 
L 368.282179 62.588724 
L 368.526832 65.122918 
L 368.771485 62.70946 
L 369.016138 62.897922 
L 369.260791 72.076842 
L 369.505444 74.895054 
L 369.750097 69.959652 
L 369.99475 71.773305 
L 370.239403 75.262146 
L 370.484056 68.082891 
L 370.728709 66.627522 
L 370.973362 67.445225 
L 371.218015 64.684624 
L 371.462668 65.101231 
L 371.707321 64.309718 
L 371.951974 67.356473 
L 372.196627 71.911341 
L 372.44128 67.531576 
L 372.685933 72.291759 
L 372.930586 73.987077 
L 373.175239 78.187684 
L 373.419892 72.304904 
L 373.664545 75.041335 
L 374.153851 66.213547 
L 374.398504 67.088778 
L 374.643157 63.48392 
L 374.88781 65.559375 
L 375.132463 64.809117 
L 375.377116 62.674181 
L 375.621769 58.626509 
L 375.866422 58.551962 
L 376.111075 57.944723 
L 376.355728 58.903011 
L 376.600381 54.755993 
L 376.845034 55.066598 
L 377.089687 51.126997 
L 377.33434 53.713158 
L 377.823646 69.262437 
L 378.068299 65.683306 
L 378.312952 66.380802 
L 378.557605 68.898657 
L 378.802258 68.666853 
L 379.046911 67.140148 
L 379.291564 67.987071 
L 379.536217 70.14987 
L 379.78087 77.171785 
L 380.270176 69.319718 
L 380.514829 69.895154 
L 380.759482 71.389775 
L 381.004135 76.227701 
L 381.248788 76.1958 
L 381.493441 77.815776 
L 381.738094 73.698838 
L 381.982747 76.996765 
L 382.2274 78.101847 
L 382.472053 80.216007 
L 382.716706 79.557878 
L 382.961359 77.458468 
L 383.450665 70.481748 
L 383.695318 71.508359 
L 383.939971 75.096777 
L 384.184624 73.859802 
L 384.429277 70.598329 
L 384.67393 74.986057 
L 384.918583 71.012006 
L 385.163236 70.226221 
L 385.407889 65.138844 
L 385.652542 68.12653 
L 385.897195 69.060946 
L 386.141848 72.728994 
L 386.386501 73.311632 
L 386.631154 72.454859 
L 387.12046 77.56889 
L 387.365113 81.713244 
L 387.609766 81.506753 
L 387.854419 78.055327 
L 388.343725 75.62634 
L 388.833031 76.793519 
L 389.077684 74.332995 
L 389.322338 70.151972 
L 389.566991 68.17939 
L 389.811644 68.038921 
L 390.056297 69.14084 
L 390.545603 65.241502 
L 390.790256 64.807677 
L 391.279562 63.146579 
L 391.768868 69.25257 
L 392.013521 70.028571 
L 392.258174 74.710582 
L 392.502827 71.414856 
L 392.74748 72.779272 
L 392.992133 72.613192 
L 393.236786 35.381939 
L 393.481439 37.139388 
L 393.726092 37.795596 
L 394.215398 40.126279 
L 394.215398 40.126279 
" style="fill:none;stroke:#1f77b4;stroke-linecap:square;stroke-width:1.5;"/>
   </g>
   <g id="line2d_26">
    <path clip-path="url(#pd30e9ae9d5)" d="M 69.560852 271.885369 
L 69.805505 272.642122 
L 70.294811 273.317504 
L 70.539464 272.189156 
L 70.784117 272.454968 
L 71.02877 271.757888 
L 71.273423 272.349186 
L 71.518076 272.435982 
L 71.762729 272.791303 
L 72.007382 272.875387 
L 72.252035 272.671958 
L 72.741341 270.404412 
L 73.230647 270.729897 
L 73.4753 270.974011 
L 73.719953 269.983994 
L 73.964606 270.499345 
L 74.209259 269.267926 
L 74.453912 269.761579 
L 74.698566 269.167568 
L 74.943219 268.893618 
L 75.187872 269.137732 
L 75.432525 268.581695 
L 75.677178 268.687478 
L 75.921831 269.137732 
L 76.166484 267.738146 
L 76.411137 265.633342 
L 76.900443 266.574537 
L 77.145096 266.585386 
L 77.389749 265.334981 
L 77.634402 265.055606 
L 77.879055 265.942553 
L 78.123708 265.739125 
L 78.368361 264.944399 
L 78.613014 265.180376 
L 79.10232 266.807801 
L 79.591626 268.201963 
L 79.836279 266.324998 
L 80.570238 267.949712 
L 81.059544 265.272596 
L 81.304197 265.804222 
L 81.54885 265.655041 
L 82.038156 269.471355 
L 82.282809 269.680208 
L 82.527462 270.18471 
L 82.772115 269.691057 
L 83.016768 269.756154 
L 83.261421 268.793261 
L 83.506074 269.509328 
L 83.99538 272.511928 
L 84.240033 272.368172 
L 84.729339 275.457569 
L 84.973992 271.302209 
L 85.218645 272.75333 
L 85.463298 272.956758 
L 85.707951 272.880811 
L 85.952604 272.362748 
L 86.197257 271.48665 
L 86.686563 274.255986 
L 86.931216 274.538073 
L 87.420522 274.459414 
L 87.909828 276.08684 
L 88.88844 271.359168 
L 89.133093 270.857379 
L 89.377746 269.84295 
L 89.622399 269.902622 
L 90.111705 267.767982 
L 90.356358 267.556417 
L 90.601011 268.022946 
L 91.090317 267.038353 
L 91.33497 267.198383 
L 91.579623 267.225507 
L 91.824276 268.717314 
L 92.068929 267.9253 
L 92.313582 267.635076 
L 92.558235 267.773407 
L 92.802888 268.332157 
L 93.292194 265.291583 
L 93.536847 265.945266 
L 93.7815 264.993222 
L 94.026153 266.23549 
L 94.270806 265.774386 
L 94.515459 268.48405 
L 94.760112 268.570846 
L 95.004765 269.419819 
L 95.494071 266.129707 
L 95.983377 265.63063 
L 96.22803 263.105408 
L 96.472683 263.669582 
L 96.717336 263.677719 
L 96.961989 263.951669 
L 97.206643 263.246451 
L 97.451296 261.947223 
L 97.695949 262.17235 
L 97.940602 262.977926 
L 98.429908 262.112678 
L 98.919214 263.200341 
L 99.163867 261.705822 
L 99.40852 258.893088 
L 99.653173 261.049427 
L 99.897826 265.305145 
L 100.142479 261.939086 
L 100.387132 263.908271 
L 100.631785 264.04389 
L 100.876438 265.405503 
L 101.121091 263.531251 
L 101.365744 264.79793 
L 101.610397 265.337693 
L 101.85505 264.871165 
L 102.099703 266.156831 
L 102.344356 265.752687 
L 102.589009 262.831458 
L 102.833662 262.893842 
L 103.078315 264.019479 
L 103.322968 262.755511 
L 103.567621 263.661445 
L 104.056927 263.92997 
L 104.30158 265.435339 
L 104.546233 265.57367 
L 104.790886 264.518556 
L 105.280192 263.843174 
L 105.524845 261.844153 
L 105.769498 261.171484 
L 106.014151 261.659711 
L 106.503457 261.551216 
L 106.74811 262.351367 
L 106.992763 261.56749 
L 107.237416 261.30439 
L 107.482069 263.843174 
L 107.971375 265.972389 
L 108.216028 266.373821 
L 108.460681 266.137844 
L 108.705334 267.192959 
L 108.949987 266.010363 
L 109.19464 266.479604 
L 109.683946 263.962519 
L 109.928599 263.639746 
L 110.173252 264.963385 
L 110.417905 264.499569 
L 110.662558 265.663178 
L 110.907211 265.649617 
L 111.151864 266.626072 
L 112.375129 261.90925 
L 112.619782 263.306124 
L 112.864435 262.053006 
L 113.109088 263.39292 
L 113.353741 265.557396 
L 113.598394 265.313282 
L 113.843047 264.437184 
L 114.0877 262.986063 
L 114.332353 263.018612 
L 114.577006 261.412885 
L 114.821659 266.807801 
L 115.066312 268.182976 
L 115.310965 267.079039 
L 115.555618 268.592545 
L 116.044924 265.928991 
L 116.289577 266.560975 
L 116.53423 266.015787 
L 117.023536 265.35668 
L 117.268189 264.415485 
L 117.512842 264.176796 
L 117.757495 263.140669 
L 118.246801 264.282579 
L 118.491454 262.714826 
L 118.736107 263.330535 
L 118.98076 262.996913 
L 119.225413 264.597215 
L 119.470066 264.91185 
L 119.71472 264.928125 
L 119.959373 263.422756 
L 120.204026 263.900134 
L 120.448679 263.547525 
L 120.693332 262.904692 
L 120.937985 263.533963 
L 121.182638 263.854024 
L 121.427291 263.455304 
L 121.671944 263.276287 
L 121.916597 260.824299 
L 122.16125 259.685101 
L 122.405903 261.391186 
L 122.650556 262.234735 
L 122.895209 261.117236 
L 123.139862 261.605464 
L 123.629168 259.497947 
L 124.118474 261.754644 
L 124.363127 261.776343 
L 124.60778 262.522247 
L 124.852433 262.120815 
L 125.097086 260.634433 
L 125.586392 260.601885 
L 125.831045 259.405727 
L 126.075698 258.963609 
L 126.320351 258.882238 
L 126.565004 258.380449 
L 126.809657 257.102919 
L 127.298963 256.630966 
L 127.788269 252.502729 
L 128.032922 252.768542 
L 128.277575 252.687171 
L 128.522228 252.193519 
L 128.766881 253.435787 
L 129.011534 253.132001 
L 129.50084 254.263062 
L 129.745493 254.838085 
L 129.990146 253.628366 
L 130.234799 251.29301 
L 130.724105 253.896891 
L 130.968758 254.219664 
L 131.213411 253.03978 
L 131.458064 253.408663 
L 131.702717 254.282048 
L 131.94737 254.347145 
L 132.192023 255.388698 
L 132.436676 255.706046 
L 132.681329 255.293764 
L 132.925982 255.44837 
L 133.415288 256.899491 
L 133.659941 258.220418 
L 133.904594 258.66796 
L 134.149247 258.464532 
L 134.3939 258.052251 
L 134.638553 258.73577 
L 134.883206 257.336184 
L 135.127859 257.260237 
L 135.617165 259.723075 
L 135.861818 259.54677 
L 136.106471 258.8958 
L 136.351124 259.709513 
L 136.84043 256.275645 
L 137.085083 256.150875 
L 137.329736 255.673497 
L 137.574389 254.629232 
L 137.819042 254.452928 
L 138.553001 255.114748 
L 138.797654 255.61925 
L 139.28696 251.287585 
L 139.531613 251.279448 
L 139.776266 250.118551 
L 140.020919 251.434053 
L 140.265572 250.717986 
L 140.510225 251.119418 
L 140.754878 249.635748 
L 140.999531 250.208059 
L 141.244184 251.12213 
L 141.488837 248.868145 
L 141.73349 248.98749 
L 141.978143 250.547106 
L 142.222797 249.386209 
L 142.712103 253.674476 
L 142.956756 255.030664 
L 143.446062 251.596796 
L 143.690715 251.648331 
L 143.935368 252.814653 
L 144.180021 251.705291 
L 144.424674 251.629344 
L 144.669327 246.703669 
L 144.91398 247.379051 
L 145.158633 245.724501 
L 145.403286 247.292255 
L 145.647939 245.81401 
L 145.892592 237.356821 
L 146.137245 238.775394 
L 146.381898 237.543975 
L 146.626551 237.98338 
L 146.871204 237.183229 
L 147.115857 238.547554 
L 147.605163 238.57739 
L 147.849816 239.312444 
L 148.094469 242.735463 
L 148.583775 239.800672 
L 148.828428 241.116174 
L 149.073081 239.301595 
L 149.317734 236.269158 
L 149.562387 235.789068 
L 149.80704 236.600068 
L 150.051693 236.936403 
L 150.296346 237.579236 
L 150.540999 235.856877 
L 151.030305 233.762923 
L 151.519611 231.03156 
L 151.764264 229.157308 
L 152.008917 229.515342 
L 152.25357 231.587597 
L 152.498223 231.234988 
L 152.742876 231.633707 
L 152.987529 230.966463 
L 153.232182 231.525212 
L 153.476835 230.741336 
L 153.721488 232.257554 
L 153.966141 232.512517 
L 154.210794 231.701517 
L 154.455447 230.418563 
L 154.7001 230.776596 
L 154.944753 228.522612 
L 155.189406 228.731465 
L 155.434059 226.830089 
L 155.678712 226.634798 
L 155.923365 227.643802 
L 156.168018 226.236079 
L 156.657324 229.225117 
L 156.901977 227.755009 
L 157.14663 227.977424 
L 157.391283 228.392418 
L 157.635936 229.154595 
L 158.125242 226.906036 
L 158.369895 227.152862 
L 158.614548 228.061508 
L 158.859201 229.873375 
L 159.103854 228.094056 
L 159.348507 228.547023 
L 159.59316 228.56601 
L 159.837813 227.532595 
L 160.082466 225.514587 
L 160.327119 226.195393 
L 160.571772 227.462073 
L 160.816425 230.790158 
L 161.061078 231.148192 
L 161.305731 228.937605 
L 161.550384 231.712366 
L 161.795037 226.610387 
L 162.03969 238.631638 
L 162.284343 242.032957 
L 162.528996 241.54473 
L 162.773649 241.951586 
L 163.262955 237.98338 
L 163.507608 238.04034 
L 163.752261 237.790801 
L 163.996914 241.192121 
L 164.241567 239.035782 
L 164.48622 238.995096 
L 164.730874 239.998675 
L 164.975527 241.699335 
L 165.22018 241.04294 
L 165.464833 241.867503 
L 166.198792 238.330564 
L 166.443445 238.241056 
L 166.688098 237.706717 
L 166.932751 238.335989 
L 167.177404 237.21849 
L 167.422057 234.921107 
L 167.911363 235.005191 
L 168.400669 235.884001 
L 168.645322 235.390348 
L 168.889975 235.154372 
L 169.623934 233.185186 
L 170.357893 238.108149 
L 170.602546 240.486903 
L 170.847199 239.711163 
L 171.091852 242.776149 
L 171.336505 244.116062 
L 171.581158 244.164885 
L 171.825811 244.685661 
L 172.070464 242.890068 
L 172.315117 243.169443 
L 173.049076 249.733393 
L 173.293729 247.208171 
L 173.538382 245.922505 
L 173.783035 249.909698 
L 174.027688 251.368956 
L 174.272341 250.235183 
L 174.516994 250.189073 
L 174.761647 248.127667 
L 175.0063 247.794044 
L 175.250953 246.177468 
L 175.495606 246.597887 
L 175.740259 247.883553 
L 175.984912 244.474096 
L 176.229565 253.511733 
L 176.474218 255.478206 
L 177.208177 252.410509 
L 177.45283 252.37796 
L 177.697483 251.824635 
L 177.942136 255.261216 
L 178.431442 257.718629 
L 178.676095 256.655377 
L 178.920748 253.774834 
L 179.165401 253.292031 
L 179.410054 255.196119 
L 179.654707 255.855226 
L 179.89936 255.17442 
L 180.144013 255.432096 
L 180.633319 253.191673 
L 180.877972 253.218797 
L 181.122625 251.230625 
L 181.611931 251.794799 
L 181.856584 250.812919 
L 182.101237 251.146541 
L 182.34589 252.152833 
L 182.590543 252.600375 
L 182.835196 252.711582 
L 183.079849 248.157503 
L 183.324502 246.502953 
L 183.569155 247.091539 
L 184.058461 245.003009 
L 184.303114 247.522807 
L 184.547767 247.425161 
L 184.79242 247.05899 
L 185.037073 247.601466 
L 185.281726 245.225424 
L 185.526379 247.227158 
L 185.771032 247.986623 
L 186.015685 247.162061 
L 186.260338 247.997473 
L 186.504991 247.107813 
L 186.994298 247.886265 
L 187.238951 247.829305 
L 187.483604 245.765187 
L 187.728257 245.640418 
L 187.97291 244.381875 
L 188.217563 245.450551 
L 188.462216 248.092406 
L 188.706869 246.421582 
L 188.951522 246.977619 
L 189.196175 242.019396 
L 189.440828 239.545709 
L 189.685481 239.784398 
L 189.930134 239.388391 
L 190.174787 240.32416 
L 190.41944 238.639775 
L 190.908746 238.048477 
L 191.153399 238.780818 
L 191.398052 238.653337 
L 191.642705 248.038158 
L 191.887358 249.014614 
L 192.132011 249.125821 
L 192.376664 248.445015 
L 192.86597 252.635636 
L 193.110623 250.84818 
L 193.355276 251.208926 
L 193.599929 250.783083 
L 193.844582 251.444903 
L 194.089235 249.993781 
L 194.578541 249.310263 
L 195.067847 245.542772 
L 195.3125 245.428852 
L 196.046459 244.845692 
L 196.291112 245.624143 
L 196.535765 245.982177 
L 196.780418 245.32307 
L 197.025071 243.204704 
L 197.269724 242.838533 
L 197.514377 243.695644 
L 197.75903 243.961457 
L 198.003683 243.055523 
L 198.248336 243.972306 
L 198.492989 242.087205 
L 198.737642 241.970573 
L 198.982295 243.066373 
L 199.226948 246.481254 
L 199.471601 246.052699 
L 199.716254 246.272401 
L 199.960907 246.090672 
L 200.20556 248.070707 
L 200.450213 247.021017 
L 200.694866 248.040871 
L 200.939519 247.769633 
L 201.184172 246.055411 
L 201.428825 247.905252 
L 201.673478 248.141229 
L 201.918131 246.89896 
L 202.162784 248.602332 
L 202.407437 248.255148 
L 202.65209 248.632169 
L 202.896743 248.464001 
L 203.141396 249.814765 
L 203.386049 249.557089 
L 203.630702 248.38263 
L 203.875355 248.529098 
L 204.120008 249.944959 
L 204.364661 248.39348 
L 204.853967 251.461177 
L 205.09862 252.801091 
L 205.343273 252.296589 
L 205.832579 253.774834 
L 206.077232 253.563268 
L 206.321885 252.866188 
L 206.566538 250.392501 
L 206.811191 251.032622 
L 207.055844 250.975662 
L 207.300497 258.060388 
L 207.54515 257.271087 
L 207.789803 255.746731 
L 208.034456 256.145451 
L 208.523762 253.069616 
L 208.768415 252.999094 
L 209.013068 253.788396 
L 209.257721 255.49448 
L 209.502375 255.461932 
L 209.747028 254.588547 
L 210.236334 251.29301 
L 210.480987 251.428628 
L 210.72564 250.080577 
L 210.970293 247.004743 
L 211.214946 248.298546 
L 211.704252 247.351927 
L 211.948905 246.266977 
L 212.438211 244.883665 
L 212.682864 245.046407 
L 212.927517 245.445127 
L 213.17217 244.069952 
L 213.416823 247.498395 
L 213.661476 247.414312 
L 213.906129 250.075153 
L 214.150782 249.958521 
L 214.640088 252.749556 
L 214.884741 251.160103 
L 215.129394 252.966546 
L 215.374047 252.554265 
L 215.6187 252.565114 
L 215.863353 252.904161 
L 216.108006 255.890487 
L 216.352659 254.85436 
L 216.597312 255.166283 
L 216.841965 254.577697 
L 217.086618 252.776679 
L 217.331271 252.844489 
L 217.575924 253.728723 
L 217.820577 252.085023 
L 218.06523 251.284873 
L 218.309883 251.756826 
L 218.554536 251.743264 
L 218.799189 252.239629 
L 219.288495 255.828103 
L 219.777801 254.425804 
L 220.022454 255.383273 
L 220.267107 256.880505 
L 220.51176 255.977283 
L 220.756413 256.376003 
L 221.001066 258.090224 
L 221.245719 257.062234 
L 221.490372 257.414843 
L 221.735025 255.296477 
L 221.979678 251.751401 
L 222.224331 251.189939 
L 222.95829 253.490034 
L 223.202943 251.355394 
L 223.447596 239.759986 
L 223.692249 237.063884 
L 223.936902 237.313423 
L 224.181555 236.987938 
L 224.426208 234.508826 
L 224.670861 234.403043 
L 224.915514 235.412047 
L 225.649473 233.619167 
L 225.894126 232.355199 
L 226.138779 234.09112 
L 226.383432 234.64987 
L 226.872738 231.858835 
L 227.117391 232.813591 
L 227.362044 233.234009 
L 227.606697 231.395018 
L 227.85135 231.549624 
L 228.096003 232.808166 
L 228.340656 231.319072 
L 228.585309 231.601159 
L 228.829962 232.113798 
L 229.074615 230.727774 
L 229.319268 232.827153 
L 229.563921 233.242146 
L 229.808574 235.696847 
L 230.053227 236.548533 
L 230.29788 234.413893 
L 230.542533 235.406623 
L 230.787186 234.655294 
L 231.031839 235.043164 
L 231.276492 234.172491 
L 231.521145 234.68513 
L 231.765798 233.261133 
L 232.010452 234.177916 
L 232.255105 234.454578 
L 232.744411 236.28272 
L 233.233717 234.31896 
L 233.723023 235.496131 
L 233.967676 234.953656 
L 234.212329 233.654428 
L 234.456982 234.367782 
L 234.701635 232.526079 
L 234.946288 231.891383 
L 235.190941 232.132785 
L 235.435594 232.211443 
L 235.680247 231.46554 
L 235.9249 231.915794 
L 236.169553 231.213289 
L 236.414206 234.055859 
L 236.658859 230.272094 
L 236.903512 229.819128 
L 237.148165 230.193436 
L 237.392818 230.1419 
L 237.637471 215.193995 
L 238.126777 219.476837 
L 238.37143 219.460563 
L 238.616083 221.519257 
L 238.860736 221.223608 
L 239.105389 221.177497 
L 239.594695 222.246173 
L 240.084001 218.288817 
L 240.328654 218.516656 
L 240.573307 219.013021 
L 240.81796 220.138657 
L 241.062613 218.671262 
L 241.307266 220.374634 
L 241.551919 220.580774 
L 241.796572 221.538243 
L 242.041225 220.955082 
L 242.285878 218.847566 
L 242.775184 220.51839 
L 243.019837 218.904526 
L 243.26449 220.220028 
L 243.753796 219.040145 
L 243.998449 219.021158 
L 244.243102 217.502228 
L 244.732408 220.116958 
L 244.977061 221.052728 
L 245.221714 220.515677 
L 245.466367 219.08083 
L 245.71102 218.484108 
L 245.955673 219.311382 
L 246.200326 221.006618 
L 246.444979 220.032874 
L 246.689632 219.883694 
L 246.934285 216.742762 
L 247.178938 217.955194 
L 247.423591 217.583599 
L 247.668244 214.952594 
L 247.912897 216.349468 
L 248.15755 216.550184 
L 248.402203 217.092659 
L 248.646856 219.327657 
L 249.136162 217.285237 
L 249.380815 217.198441 
L 249.625468 217.651408 
L 249.870121 217.466967 
L 250.114774 219.371055 
L 250.359427 218.09895 
L 251.093386 209.641761 
L 251.338039 210.829782 
L 251.582692 206.953797 
L 252.071998 203.530778 
L 252.561304 203.484668 
L 252.805957 205.136505 
L 253.05061 192.32324 
L 253.295263 191.783477 
L 253.539916 193.242735 
L 253.784569 192.43716 
L 254.029222 190.332356 
L 254.273875 190.497811 
L 254.518529 190.801597 
L 254.763182 191.65057 
L 255.007835 190.264546 
L 255.497141 194.167656 
L 255.741794 193.793348 
L 255.986447 192.854865 
L 256.2311 193.275284 
L 256.475753 192.258143 
L 256.720406 191.753641 
L 256.965059 190.750062 
L 257.209712 190.804309 
L 257.454365 191.373908 
L 257.943671 201.802994 
L 258.188324 210.238484 
L 258.432977 209.424771 
L 258.67763 200.094197 
L 258.922283 195.320415 
L 259.166936 195.418061 
L 259.411589 196.806798 
L 259.656242 201.241533 
L 259.900895 197.441494 
L 260.390201 200.574288 
L 260.634854 195.545543 
L 260.879507 195.721847 
L 261.368813 192.317815 
L 261.613466 194.50399 
L 261.858119 194.235465 
L 262.102772 192.873852 
L 262.347425 189.760044 
L 262.592078 189.383024 
L 262.836731 187.177862 
L 263.081384 189.887526 
L 263.57069 191.148781 
L 263.815343 193.725538 
L 264.059996 199.201826 
L 264.304649 201.369014 
L 264.793955 194.683007 
L 265.283261 188.455391 
L 265.527914 190.137065 
L 265.772567 188.927345 
L 266.01722 191.308811 
L 266.261873 189.507793 
L 266.506526 186.689634 
L 266.751179 187.039531 
L 266.995832 188.143468 
L 267.240485 183.366974 
L 267.485138 181.110277 
L 267.729791 180.462019 
L 267.974444 183.790104 
L 268.219097 185.176129 
L 268.46375 182.968254 
L 268.708403 173.442389 
L 268.953056 170.843933 
L 269.197709 170.192963 
L 269.442362 168.541126 
L 269.687015 165.97793 
L 269.931668 166.154235 
L 270.176321 165.489702 
L 270.420974 166.314265 
L 270.91028 158.084916 
L 271.154933 157.075912 
L 271.399586 158.128314 
L 271.644239 156.991828 
L 271.888892 153.311134 
L 272.133545 155.386101 
L 272.378198 161.692376 
L 272.622851 160.211418 
L 272.867504 161.4347 
L 273.112157 155.944851 
L 273.35681 156.56056 
L 273.601463 154.613074 
L 273.846116 151.75423 
L 274.090769 153.880733 
L 274.335422 152.744247 
L 274.580075 153.308421 
L 274.824728 155.603091 
L 275.069381 151.735243 
L 275.314034 152.562518 
L 275.558687 155.209797 
L 275.80334 153.476589 
L 276.047993 154.238766 
L 276.292646 152.204484 
L 276.537299 155.605804 
L 276.781952 156.275761 
L 277.026606 162.289099 
L 277.271259 157.471919 
L 277.515912 157.273915 
L 277.760565 152.627615 
L 278.249871 155.782108 
L 278.494524 155.68175 
L 278.739177 156.050633 
L 278.98383 155.901453 
L 279.228483 156.148279 
L 279.473136 152.78222 
L 279.717789 147.69109 
L 279.962442 149.020154 
L 280.207095 152.595066 
L 280.451748 163.146209 
L 280.696401 164.01417 
L 280.941054 164.323381 
L 281.185707 171.025662 
L 281.43036 171.267064 
L 281.675013 168.367534 
L 281.919666 168.326848 
L 282.164319 178.113101 
L 282.408972 175.077952 
L 282.653625 181.267595 
L 282.898278 180.101273 
L 283.142931 180.836327 
L 283.387584 179.954804 
L 283.632237 174.161169 
L 283.87689 174.120483 
L 284.121543 172.840242 
L 284.366196 177.695395 
L 284.610849 163.591039 
L 284.855502 176.705378 
L 285.100155 180.011764 
L 285.589461 191.875698 
L 285.834114 190.467974 
L 286.078767 199.725314 
L 286.32342 203.530778 
L 286.568073 205.166341 
L 286.812726 202.885232 
L 287.057379 199.266923 
L 287.302032 198.382688 
L 287.791338 191.053848 
L 288.035991 193.52211 
L 288.280644 190.836858 
L 288.525297 184.164412 
L 288.76995 185.943731 
L 289.259256 185.344296 
L 289.748562 185.287336 
L 289.993215 186.057651 
L 290.237868 178.864429 
L 290.482521 178.547081 
L 290.971827 179.922256 
L 291.21648 183.269328 
L 291.461133 183.958272 
L 291.950439 184.319018 
L 292.195092 181.4222 
L 292.684398 179.412329 
L 292.929051 180.158233 
L 293.173704 184.180687 
L 293.418357 186.176995 
L 293.66301 185.661644 
L 294.152316 181.416775 
L 294.396969 177.80389 
L 294.641622 178.639302 
L 294.886275 174.844688 
L 295.130928 173.53461 
L 295.375581 174.90436 
L 295.620234 173.586145 
L 296.10954 176.938642 
L 296.354193 172.615115 
L 296.598846 175.503795 
L 296.843499 174.643972 
L 297.088152 174.283226 
L 297.332805 172.319466 
L 297.577458 169.159547 
L 298.066764 166.156947 
L 298.311417 163.591039 
L 298.55607 165.611759 
L 298.800723 164.23116 
L 299.045376 164.770923 
L 299.29003 167.618918 
L 299.534683 166.072863 
L 300.268642 172.636814 
L 300.513295 157.016239 
L 300.757948 150.436015 
L 301.002601 153.834622 
L 301.247254 153.948542 
L 301.491907 157.151858 
L 301.73656 153.121267 
L 301.981213 151.548089 
L 302.225866 145.222828 
L 302.470519 142.467054 
L 302.715172 141.192237 
L 302.959825 143.36485 
L 303.204478 143.164134 
L 303.449131 147.338481 
L 303.693784 146.747183 
L 303.938437 146.456959 
L 304.18309 145.296062 
L 304.427743 146.93705 
L 304.917049 143.790693 
L 305.161702 142.011375 
L 305.406355 142.735579 
L 305.651008 139.874022 
L 305.895661 140.782668 
L 306.140314 138.395777 
L 306.384967 139.128119 
L 306.62962 138.805346 
L 306.874273 139.616346 
L 307.118926 138.829757 
L 307.363579 138.555807 
L 307.608232 141.197662 
L 307.852885 141.921866 
L 308.097538 140.820641 
L 308.342191 142.187679 
L 308.586844 141.306157 
L 308.831497 144.322319 
L 309.07615 142.255488 
L 309.320803 141.764548 
L 309.565456 143.180409 
L 309.810109 140.066601 
L 310.054762 146.337614 
L 310.299415 148.39902 
L 310.544068 143.899188 
L 310.788721 141.824221 
L 311.033374 141.818796 
L 311.278027 139.090145 
L 311.52268 138.43375 
L 311.767333 135.854281 
L 312.011986 136.136368 
L 312.501292 131.468368 
L 312.990598 134.492668 
L 313.235251 134.880538 
L 313.479904 136.442866 
L 313.724557 136.271987 
L 313.96921 135.219585 
L 314.213863 133.654544 
L 314.458516 134.00444 
L 314.703169 133.887808 
L 315.192475 136.402181 
L 315.437128 136.109244 
L 315.681781 131.785716 
L 316.171087 127.681891 
L 316.660393 131.235104 
L 317.149699 128.15927 
L 317.394352 128.001952 
L 317.639005 127.527286 
L 317.883658 127.459476 
L 318.128311 126.73256 
L 318.372964 126.374526 
L 318.86227 128.68547 
L 319.106923 128.52544 
L 319.351576 128.571551 
L 319.596229 130.5109 
L 320.085535 129.116738 
L 320.330188 130.527174 
L 320.574841 129.992836 
L 320.819494 127.340132 
L 321.064147 126.718998 
L 321.3088 127.725289 
L 322.04276 126.407075 
L 322.287413 121.950641 
L 322.532066 123.141374 
L 322.776719 123.255293 
L 323.021372 129.743297 
L 323.266025 126.66475 
L 323.510678 129.50732 
L 323.755331 129.485621 
L 324.244637 124.75795 
L 324.48929 125.685582 
L 324.733943 124.296846 
L 324.978596 121.714664 
L 325.223249 117.656949 
L 325.467902 117.37215 
L 325.712555 119.159605 
L 326.201861 111.141822 
L 326.446514 111.052313 
L 326.691167 108.81189 
L 326.93582 108.966496 
L 327.180473 109.70155 
L 327.425126 106.899665 
L 327.914432 108.236867 
L 328.159085 107.618445 
L 328.403738 110.5234 
L 328.648391 109.685276 
L 329.137697 112.70415 
L 329.38235 115.419239 
L 329.627003 114.144422 
L 329.871656 114.133572 
L 330.116309 116.132594 
L 330.360962 113.780964 
L 330.605615 108.600325 
L 330.850268 109.389627 
L 331.094921 112.804508 
L 331.339574 113.951843 
L 331.584227 125.354673 
L 331.82888 121.692965 
L 332.073533 122.889123 
L 332.318186 128.273189 
L 332.562839 127.87447 
L 332.807492 131.123897 
L 333.052145 123.019317 
L 333.296798 122.254427 
L 333.541451 126.558968 
L 333.786104 134.560477 
L 334.030757 135.474548 
L 334.27541 140.883026 
L 334.520063 134.327213 
L 334.764716 133.445691 
L 335.009369 130.757726 
L 335.254022 129.737872 
L 335.498675 124.356518 
L 335.743328 122.910822 
L 335.987981 124.32397 
L 336.232634 124.25616 
L 336.477287 127.944992 
L 336.72194 129.097752 
L 337.211246 134.216005 
L 337.455899 135.113802 
L 337.700552 129.954863 
L 338.189858 126.954975 
L 338.434511 127.793099 
L 338.679164 127.432353 
L 338.923817 129.748722 
L 339.16847 125.891723 
L 339.902429 130.38613 
L 340.391735 126.737984 
L 340.636388 126.906152 
L 341.125694 129.62124 
L 341.370347 126.689162 
L 341.615 126.491158 
L 341.859653 128.384397 
L 342.104306 132.528908 
L 342.593612 130.546161 
L 343.082918 120.019429 
L 343.327571 119.767178 
L 343.572224 120.04384 
L 343.816877 119.197579 
L 344.06153 115.232085 
L 344.306184 114.282753 
L 344.550837 116.295336 
L 344.79549 116.902908 
L 345.040143 116.479778 
L 345.284796 116.672357 
L 345.529449 114.082037 
L 345.774102 112.845194 
L 346.018755 109.026168 
L 346.263408 108.312813 
L 346.508061 109.229596 
L 346.997367 112.563107 
L 347.486673 108.095823 
L 347.731326 116.165142 
L 347.975979 116.85951 
L 348.220632 115.541296 
L 348.465285 113.585672 
L 348.709938 113.13813 
L 348.954591 111.483581 
L 349.199244 109.023456 
L 349.443897 109.061429 
L 349.68855 107.34992 
L 350.177856 106.707087 
L 350.422509 103.623115 
L 350.667162 103.848242 
L 350.911815 104.775875 
L 351.156468 106.660976 
L 351.401121 105.738768 
L 351.645774 106.715224 
L 351.890427 104.534473 
L 352.13508 105.665534 
L 352.379733 105.402434 
L 352.624386 106.289381 
L 352.869039 106.449411 
L 353.358345 104.556172 
L 353.602998 104.702641 
L 353.847651 104.124904 
L 354.092304 104.683654 
L 354.58161 104.442252 
L 354.826263 104.743326 
L 355.070916 103.479359 
L 355.315569 107.214301 
L 355.560222 105.896086 
L 355.804875 106.080528 
L 356.049528 106.560618 
L 356.294181 106.232421 
L 356.538834 103.742459 
L 356.783487 98.773386 
L 357.02814 98.225486 
L 357.272793 95.458863 
L 357.517446 94.110812 
L 357.762099 89.955451 
L 358.006752 89.290919 
L 358.251405 92.274533 
L 358.496058 93.196741 
L 358.740711 89.898492 
L 359.230017 92.83057 
L 359.47467 95.966077 
L 359.719323 91.268241 
L 359.963976 90.782726 
L 360.208629 92.024994 
L 360.453282 91.249255 
L 360.697935 92.206724 
L 360.942588 89.798134 
L 361.187241 89.741174 
L 361.431894 89.288207 
L 361.9212 85.029776 
L 362.165853 78.726214 
L 362.410506 79.076111 
L 362.899812 81.628457 
L 363.144465 82.54524 
L 363.389118 78.506512 
L 363.633771 77.481234 
L 363.878424 78.530923 
L 364.123077 78.891669 
L 364.36773 75.167577 
L 364.612383 76.08436 
L 364.857036 73.887335 
L 365.101689 79.667409 
L 365.346342 75.943316 
L 365.590995 75.577145 
L 365.835648 72.639642 
L 366.080301 72.403665 
L 366.324954 70.014062 
L 366.569607 66.479836 
L 366.814261 65.828866 
L 367.058914 65.579327 
L 367.303567 66.143501 
L 367.54822 65.782755 
L 367.792873 62.858814 
L 368.037526 61.608408 
L 368.282179 63.87053 
L 368.526832 61.95288 
L 368.771485 61.898633 
L 369.016138 70.567387 
L 369.260791 74.201971 
L 369.505444 69.894717 
L 369.750097 71.066464 
L 369.99475 74.402687 
L 370.239403 68.017753 
L 370.484056 65.994321 
L 370.728709 66.694114 
L 370.973362 64.079383 
L 371.218015 64.331634 
L 371.462668 63.669814 
L 371.707321 66.317093 
L 371.951974 70.98238 
L 372.196627 67.307111 
L 372.930586 77.253394 
L 373.175239 72.441639 
L 373.419892 74.139586 
L 373.909198 65.641712 
L 374.153851 66.276408 
L 374.398504 62.918486 
L 374.643157 64.513363 
L 374.88781 64.193303 
L 375.132463 61.961017 
L 375.377116 58.052483 
L 375.866422 56.899723 
L 376.111075 57.721573 
L 376.355728 54.119538 
L 376.600381 53.869999 
L 376.845034 50.362897 
L 377.089687 52.207313 
L 377.578993 67.998766 
L 377.823646 65.717658 
L 378.068299 65.799029 
L 378.312952 68.232031 
L 378.557605 68.053014 
L 378.802258 66.78091 
L 379.046911 67.440017 
L 379.291564 69.563808 
L 379.536217 76.369159 
L 380.025523 69.213911 
L 380.270176 69.365804 
L 380.514829 70.602648 
L 380.759482 75.379142 
L 381.004135 75.948741 
L 381.248788 77.353752 
L 381.493441 73.662208 
L 381.982747 77.581591 
L 382.2274 79.53179 
L 382.472053 79.325649 
L 382.716706 77.144899 
L 383.206012 69.946253 
L 383.450665 70.583661 
L 383.695318 74.104325 
L 383.939971 73.418094 
L 384.184624 70.252751 
L 384.429277 73.933446 
L 384.67393 70.66232 
L 384.918583 69.409202 
L 385.163236 64.792738 
L 386.141848 72.859345 
L 386.386501 71.950699 
L 386.875807 76.862812 
L 387.12046 81.01546 
L 387.365113 81.338232 
L 387.609766 78.010147 
L 388.099072 75.167577 
L 388.588378 76.320337 
L 388.833031 74.055502 
L 389.322338 67.510539 
L 389.566991 67.128094 
L 389.811644 68.156084 
L 390.30095 64.431992 
L 390.545603 63.886804 
L 391.034909 62.207843 
L 391.524215 68.316115 
L 391.768868 69.319694 
L 392.013521 73.82495 
L 392.258174 71.221069 
L 392.502827 72.03207 
L 392.74748 72.162264 
L 392.992133 37.302806 
L 393.236786 34.617553 
L 393.481439 36.128347 
L 393.726092 36.562327 
L 393.970745 39.128235 
L 394.215398 34.414125 
L 394.215398 34.414125 
" style="fill:none;stroke:#ff7f0e;stroke-linecap:square;stroke-width:1.5;"/>
   </g>
   <g id="patch_3">
    <path d="M 53.328125 288.430125 
L 53.328125 22.318125 
" style="fill:none;stroke:#000000;stroke-linecap:square;stroke-linejoin:miter;stroke-width:0.8;"/>
   </g>
   <g id="patch_4">
    <path d="M 410.448125 288.430125 
L 410.448125 22.318125 
" style="fill:none;stroke:#000000;stroke-linecap:square;stroke-linejoin:miter;stroke-width:0.8;"/>
   </g>
   <g id="patch_5">
    <path d="M 53.328125 288.430125 
L 410.448125 288.430125 
" style="fill:none;stroke:#000000;stroke-linecap:square;stroke-linejoin:miter;stroke-width:0.8;"/>
   </g>
   <g id="patch_6">
    <path d="M 53.328125 22.318125 
L 410.448125 22.318125 
" style="fill:none;stroke:#000000;stroke-linecap:square;stroke-linejoin:miter;stroke-width:0.8;"/>
   </g>
   <g id="text_15">
    <!-- Training: AMZN -->
    <defs>
     <path d="M -0.296875 72.90625 
L 61.375 72.90625 
L 61.375 64.59375 
L 35.5 64.59375 
L 35.5 0 
L 25.59375 0 
L 25.59375 64.59375 
L -0.296875 64.59375 
z
" id="DejaVuSans-84"/>
     <path d="M 54.890625 33.015625 
L 54.890625 0 
L 45.90625 0 
L 45.90625 32.71875 
Q 45.90625 40.484375 42.875 44.328125 
Q 39.84375 48.1875 33.796875 48.1875 
Q 26.515625 48.1875 22.3125 43.546875 
Q 18.109375 38.921875 18.109375 30.90625 
L 18.109375 0 
L 9.078125 0 
L 9.078125 54.6875 
L 18.109375 54.6875 
L 18.109375 46.1875 
Q 21.34375 51.125 25.703125 53.5625 
Q 30.078125 56 35.796875 56 
Q 45.21875 56 50.046875 50.171875 
Q 54.890625 44.34375 54.890625 33.015625 
z
" id="DejaVuSans-110"/>
     <path d="M 45.40625 27.984375 
Q 45.40625 37.75 41.375 43.109375 
Q 37.359375 48.484375 30.078125 48.484375 
Q 22.859375 48.484375 18.828125 43.109375 
Q 14.796875 37.75 14.796875 27.984375 
Q 14.796875 18.265625 18.828125 12.890625 
Q 22.859375 7.515625 30.078125 7.515625 
Q 37.359375 7.515625 41.375 12.890625 
Q 45.40625 18.265625 45.40625 27.984375 
z
M 54.390625 6.78125 
Q 54.390625 -7.171875 48.1875 -13.984375 
Q 42 -20.796875 29.203125 -20.796875 
Q 24.46875 -20.796875 20.265625 -20.09375 
Q 16.0625 -19.390625 12.109375 -17.921875 
L 12.109375 -9.1875 
Q 16.0625 -11.328125 19.921875 -12.34375 
Q 23.78125 -13.375 27.78125 -13.375 
Q 36.625 -13.375 41.015625 -8.765625 
Q 45.40625 -4.15625 45.40625 5.171875 
L 45.40625 9.625 
Q 42.625 4.78125 38.28125 2.390625 
Q 33.9375 0 27.875 0 
Q 17.828125 0 11.671875 7.65625 
Q 5.515625 15.328125 5.515625 27.984375 
Q 5.515625 40.671875 11.671875 48.328125 
Q 17.828125 56 27.875 56 
Q 33.9375 56 38.28125 53.609375 
Q 42.625 51.21875 45.40625 46.390625 
L 45.40625 54.6875 
L 54.390625 54.6875 
z
" id="DejaVuSans-103"/>
     <path d="M 11.71875 12.40625 
L 22.015625 12.40625 
L 22.015625 0 
L 11.71875 0 
z
M 11.71875 51.703125 
L 22.015625 51.703125 
L 22.015625 39.3125 
L 11.71875 39.3125 
z
" id="DejaVuSans-58"/>
     <path d="M 34.1875 63.1875 
L 20.796875 26.90625 
L 47.609375 26.90625 
z
M 28.609375 72.90625 
L 39.796875 72.90625 
L 67.578125 0 
L 57.328125 0 
L 50.6875 18.703125 
L 17.828125 18.703125 
L 11.1875 0 
L 0.78125 0 
z
" id="DejaVuSans-65"/>
     <path d="M 9.8125 72.90625 
L 24.515625 72.90625 
L 43.109375 23.296875 
L 61.8125 72.90625 
L 76.515625 72.90625 
L 76.515625 0 
L 66.890625 0 
L 66.890625 64.015625 
L 48.09375 14.015625 
L 38.1875 14.015625 
L 19.390625 64.015625 
L 19.390625 0 
L 9.8125 0 
z
" id="DejaVuSans-77"/>
     <path d="M 5.609375 72.90625 
L 62.890625 72.90625 
L 62.890625 65.375 
L 16.796875 8.296875 
L 64.015625 8.296875 
L 64.015625 0 
L 4.5 0 
L 4.5 7.515625 
L 50.59375 64.59375 
L 5.609375 64.59375 
z
" id="DejaVuSans-90"/>
     <path d="M 9.8125 72.90625 
L 23.09375 72.90625 
L 55.421875 11.921875 
L 55.421875 72.90625 
L 64.984375 72.90625 
L 64.984375 0 
L 51.703125 0 
L 19.390625 60.984375 
L 19.390625 0 
L 9.8125 0 
z
" id="DejaVuSans-78"/>
    </defs>
    <g transform="translate(186.409063 16.318125)scale(0.12 -0.12)">
     <use xlink:href="#DejaVuSans-84"/>
     <use x="46.333984" xlink:href="#DejaVuSans-114"/>
     <use x="87.447266" xlink:href="#DejaVuSans-97"/>
     <use x="148.726562" xlink:href="#DejaVuSans-105"/>
     <use x="176.509766" xlink:href="#DejaVuSans-110"/>
     <use x="239.888672" xlink:href="#DejaVuSans-105"/>
     <use x="267.671875" xlink:href="#DejaVuSans-110"/>
     <use x="331.050781" xlink:href="#DejaVuSans-103"/>
     <use x="394.527344" xlink:href="#DejaVuSans-58"/>
     <use x="428.21875" xlink:href="#DejaVuSans-32"/>
     <use x="460.005859" xlink:href="#DejaVuSans-65"/>
     <use x="528.414062" xlink:href="#DejaVuSans-77"/>
     <use x="614.693359" xlink:href="#DejaVuSans-90"/>
     <use x="683.199219" xlink:href="#DejaVuSans-78"/>
    </g>
   </g>
   <g id="legend_1">
    <g id="patch_7">
     <path d="M 60.328125 59.674375 
L 144.05625 59.674375 
Q 146.05625 59.674375 146.05625 57.674375 
L 146.05625 29.318125 
Q 146.05625 27.318125 144.05625 27.318125 
L 60.328125 27.318125 
Q 58.328125 27.318125 58.328125 29.318125 
L 58.328125 57.674375 
Q 58.328125 59.674375 60.328125 59.674375 
z
" style="fill:#ffffff;opacity:0.8;stroke:#cccccc;stroke-linejoin:miter;"/>
    </g>
    <g id="line2d_27">
     <path d="M 62.328125 35.416562 
L 82.328125 35.416562 
" style="fill:none;stroke:#1f77b4;stroke-linecap:square;stroke-width:1.5;"/>
    </g>
    <g id="line2d_28"/>
    <g id="text_16">
     <!-- Predicted -->
     <defs>
      <path d="M 45.40625 46.390625 
L 45.40625 75.984375 
L 54.390625 75.984375 
L 54.390625 0 
L 45.40625 0 
L 45.40625 8.203125 
Q 42.578125 3.328125 38.25 0.953125 
Q 33.9375 -1.421875 27.875 -1.421875 
Q 17.96875 -1.421875 11.734375 6.484375 
Q 5.515625 14.40625 5.515625 27.296875 
Q 5.515625 40.1875 11.734375 48.09375 
Q 17.96875 56 27.875 56 
Q 33.9375 56 38.25 53.625 
Q 42.578125 51.265625 45.40625 46.390625 
z
M 14.796875 27.296875 
Q 14.796875 17.390625 18.875 11.75 
Q 22.953125 6.109375 30.078125 6.109375 
Q 37.203125 6.109375 41.296875 11.75 
Q 45.40625 17.390625 45.40625 27.296875 
Q 45.40625 37.203125 41.296875 42.84375 
Q 37.203125 48.484375 30.078125 48.484375 
Q 22.953125 48.484375 18.875 42.84375 
Q 14.796875 37.203125 14.796875 27.296875 
z
" id="DejaVuSans-100"/>
      <path d="M 18.3125 70.21875 
L 18.3125 54.6875 
L 36.8125 54.6875 
L 36.8125 47.703125 
L 18.3125 47.703125 
L 18.3125 18.015625 
Q 18.3125 11.328125 20.140625 9.421875 
Q 21.96875 7.515625 27.59375 7.515625 
L 36.8125 7.515625 
L 36.8125 0 
L 27.59375 0 
Q 17.1875 0 13.234375 3.875 
Q 9.28125 7.765625 9.28125 18.015625 
L 9.28125 47.703125 
L 2.6875 47.703125 
L 2.6875 54.6875 
L 9.28125 54.6875 
L 9.28125 70.21875 
z
" id="DejaVuSans-116"/>
     </defs>
     <g transform="translate(90.328125 38.916562)scale(0.1 -0.1)">
      <use xlink:href="#DejaVuSans-80"/>
      <use x="58.552734" xlink:href="#DejaVuSans-114"/>
      <use x="97.416016" xlink:href="#DejaVuSans-101"/>
      <use x="158.939453" xlink:href="#DejaVuSans-100"/>
      <use x="222.416016" xlink:href="#DejaVuSans-105"/>
      <use x="250.199219" xlink:href="#DejaVuSans-99"/>
      <use x="305.179688" xlink:href="#DejaVuSans-116"/>
      <use x="344.388672" xlink:href="#DejaVuSans-101"/>
      <use x="405.912109" xlink:href="#DejaVuSans-100"/>
     </g>
    </g>
    <g id="line2d_29">
     <path d="M 62.328125 50.094687 
L 82.328125 50.094687 
" style="fill:none;stroke:#ff7f0e;stroke-linecap:square;stroke-width:1.5;"/>
    </g>
    <g id="line2d_30"/>
    <g id="text_17">
     <!-- True value -->
     <defs>
      <path d="M 8.5 21.578125 
L 8.5 54.6875 
L 17.484375 54.6875 
L 17.484375 21.921875 
Q 17.484375 14.15625 20.5 10.265625 
Q 23.53125 6.390625 29.59375 6.390625 
Q 36.859375 6.390625 41.078125 11.03125 
Q 45.3125 15.671875 45.3125 23.6875 
L 45.3125 54.6875 
L 54.296875 54.6875 
L 54.296875 0 
L 45.3125 0 
L 45.3125 8.40625 
Q 42.046875 3.421875 37.71875 1 
Q 33.40625 -1.421875 27.6875 -1.421875 
Q 18.265625 -1.421875 13.375 4.4375 
Q 8.5 10.296875 8.5 21.578125 
z
M 31.109375 56 
z
" id="DejaVuSans-117"/>
      <path d="M 2.984375 54.6875 
L 12.5 54.6875 
L 29.59375 8.796875 
L 46.6875 54.6875 
L 56.203125 54.6875 
L 35.6875 0 
L 23.484375 0 
z
" id="DejaVuSans-118"/>
      <path d="M 9.421875 75.984375 
L 18.40625 75.984375 
L 18.40625 0 
L 9.421875 0 
z
" id="DejaVuSans-108"/>
     </defs>
     <g transform="translate(90.328125 53.594687)scale(0.1 -0.1)">
      <use xlink:href="#DejaVuSans-84"/>
      <use x="46.333984" xlink:href="#DejaVuSans-114"/>
      <use x="87.447266" xlink:href="#DejaVuSans-117"/>
      <use x="150.826172" xlink:href="#DejaVuSans-101"/>
      <use x="212.349609" xlink:href="#DejaVuSans-32"/>
      <use x="244.136719" xlink:href="#DejaVuSans-118"/>
      <use x="303.316406" xlink:href="#DejaVuSans-97"/>
      <use x="364.595703" xlink:href="#DejaVuSans-108"/>
      <use x="392.378906" xlink:href="#DejaVuSans-117"/>
      <use x="455.757812" xlink:href="#DejaVuSans-101"/>
     </g>
    </g>
   </g>
  </g>
 </g>
 <defs>
  <clipPath id="pd30e9ae9d5">
   <rect height="266.112" width="357.12" x="53.328125" y="22.318125"/>
  </clipPath>
 </defs>
</svg>
