<?xml version="1.0" encoding="utf-8" standalone="no"?>
<!DOCTYPE svg PUBLIC "-//W3C//DTD SVG 1.1//EN"
  "http://www.w3.org/Graphics/SVG/1.1/DTD/svg11.dtd">
<!-- Created with matplotlib (https://matplotlib.org/) -->
<svg height="325.986375pt" version="1.1" viewBox="0 0 404.923125 325.986375" width="404.923125pt" xmlns="http://www.w3.org/2000/svg" xmlns:xlink="http://www.w3.org/1999/xlink">
 <defs>
  <style type="text/css">
*{stroke-linecap:butt;stroke-linejoin:round;}
  </style>
 </defs>
 <g id="figure_1">
  <g id="patch_1">
   <path d="M 0 325.986375 
L 404.923125 325.986375 
L 404.923125 0 
L 0 0 
z
" style="fill:#ffffff;"/>
  </g>
  <g id="axes_1">
   <g id="patch_2">
    <path d="M 40.603125 288.430125 
L 397.723125 288.430125 
L 397.723125 22.318125 
L 40.603125 22.318125 
z
" style="fill:#ffffff;"/>
   </g>
   <g id="matplotlib.axis_1">
    <g id="xtick_1">
     <g id="line2d_1">
      <path clip-path="url(#pc23ecde7eb)" d="M 56.835852 288.430125 
L 56.835852 22.318125 
" style="fill:none;stroke:#b0b0b0;stroke-dasharray:2.96,1.28;stroke-dashoffset:0;stroke-width:0.8;"/>
     </g>
     <g id="line2d_2">
      <defs>
       <path d="M 0 0 
L 0 3.5 
" id="m1946fb25a6" style="stroke:#000000;stroke-width:0.8;"/>
      </defs>
      <g>
       <use style="stroke:#000000;stroke-width:0.8;" x="56.835852" xlink:href="#m1946fb25a6" y="288.430125"/>
      </g>
     </g>
     <g id="text_1">
      <!-- 0 -->
      <defs>
       <path d="M 31.78125 66.40625 
Q 24.171875 66.40625 20.328125 58.90625 
Q 16.5 51.421875 16.5 36.375 
Q 16.5 21.390625 20.328125 13.890625 
Q 24.171875 6.390625 31.78125 6.390625 
Q 39.453125 6.390625 43.28125 13.890625 
Q 47.125 21.390625 47.125 36.375 
Q 47.125 51.421875 43.28125 58.90625 
Q 39.453125 66.40625 31.78125 66.40625 
z
M 31.78125 74.21875 
Q 44.046875 74.21875 50.515625 64.515625 
Q 56.984375 54.828125 56.984375 36.375 
Q 56.984375 17.96875 50.515625 8.265625 
Q 44.046875 -1.421875 31.78125 -1.421875 
Q 19.53125 -1.421875 13.0625 8.265625 
Q 6.59375 17.96875 6.59375 36.375 
Q 6.59375 54.828125 13.0625 64.515625 
Q 19.53125 74.21875 31.78125 74.21875 
z
" id="DejaVuSans-48"/>
      </defs>
      <g transform="translate(53.654602 303.028562)scale(0.1 -0.1)">
       <use xlink:href="#DejaVuSans-48"/>
      </g>
     </g>
    </g>
    <g id="xtick_2">
     <g id="line2d_3">
      <path clip-path="url(#pc23ecde7eb)" d="M 105.766454 288.430125 
L 105.766454 22.318125 
" style="fill:none;stroke:#b0b0b0;stroke-dasharray:2.96,1.28;stroke-dashoffset:0;stroke-width:0.8;"/>
     </g>
     <g id="line2d_4">
      <g>
       <use style="stroke:#000000;stroke-width:0.8;" x="105.766454" xlink:href="#m1946fb25a6" y="288.430125"/>
      </g>
     </g>
     <g id="text_2">
      <!-- 200 -->
      <defs>
       <path d="M 19.1875 8.296875 
L 53.609375 8.296875 
L 53.609375 0 
L 7.328125 0 
L 7.328125 8.296875 
Q 12.9375 14.109375 22.625 23.890625 
Q 32.328125 33.6875 34.8125 36.53125 
Q 39.546875 41.84375 41.421875 45.53125 
Q 43.3125 49.21875 43.3125 52.78125 
Q 43.3125 58.59375 39.234375 62.25 
Q 35.15625 65.921875 28.609375 65.921875 
Q 23.96875 65.921875 18.8125 64.3125 
Q 13.671875 62.703125 7.8125 59.421875 
L 7.8125 69.390625 
Q 13.765625 71.78125 18.9375 73 
Q 24.125 74.21875 28.421875 74.21875 
Q 39.75 74.21875 46.484375 68.546875 
Q 53.21875 62.890625 53.21875 53.421875 
Q 53.21875 48.921875 51.53125 44.890625 
Q 49.859375 40.875 45.40625 35.40625 
Q 44.1875 33.984375 37.640625 27.21875 
Q 31.109375 20.453125 19.1875 8.296875 
z
" id="DejaVuSans-50"/>
      </defs>
      <g transform="translate(96.222704 303.028562)scale(0.1 -0.1)">
       <use xlink:href="#DejaVuSans-50"/>
       <use x="63.623047" xlink:href="#DejaVuSans-48"/>
       <use x="127.246094" xlink:href="#DejaVuSans-48"/>
      </g>
     </g>
    </g>
    <g id="xtick_3">
     <g id="line2d_5">
      <path clip-path="url(#pc23ecde7eb)" d="M 154.697057 288.430125 
L 154.697057 22.318125 
" style="fill:none;stroke:#b0b0b0;stroke-dasharray:2.96,1.28;stroke-dashoffset:0;stroke-width:0.8;"/>
     </g>
     <g id="line2d_6">
      <g>
       <use style="stroke:#000000;stroke-width:0.8;" x="154.697057" xlink:href="#m1946fb25a6" y="288.430125"/>
      </g>
     </g>
     <g id="text_3">
      <!-- 400 -->
      <defs>
       <path d="M 37.796875 64.3125 
L 12.890625 25.390625 
L 37.796875 25.390625 
z
M 35.203125 72.90625 
L 47.609375 72.90625 
L 47.609375 25.390625 
L 58.015625 25.390625 
L 58.015625 17.1875 
L 47.609375 17.1875 
L 47.609375 0 
L 37.796875 0 
L 37.796875 17.1875 
L 4.890625 17.1875 
L 4.890625 26.703125 
z
" id="DejaVuSans-52"/>
      </defs>
      <g transform="translate(145.153307 303.028562)scale(0.1 -0.1)">
       <use xlink:href="#DejaVuSans-52"/>
       <use x="63.623047" xlink:href="#DejaVuSans-48"/>
       <use x="127.246094" xlink:href="#DejaVuSans-48"/>
      </g>
     </g>
    </g>
    <g id="xtick_4">
     <g id="line2d_7">
      <path clip-path="url(#pc23ecde7eb)" d="M 203.627659 288.430125 
L 203.627659 22.318125 
" style="fill:none;stroke:#b0b0b0;stroke-dasharray:2.96,1.28;stroke-dashoffset:0;stroke-width:0.8;"/>
     </g>
     <g id="line2d_8">
      <g>
       <use style="stroke:#000000;stroke-width:0.8;" x="203.627659" xlink:href="#m1946fb25a6" y="288.430125"/>
      </g>
     </g>
     <g id="text_4">
      <!-- 600 -->
      <defs>
       <path d="M 33.015625 40.375 
Q 26.375 40.375 22.484375 35.828125 
Q 18.609375 31.296875 18.609375 23.390625 
Q 18.609375 15.53125 22.484375 10.953125 
Q 26.375 6.390625 33.015625 6.390625 
Q 39.65625 6.390625 43.53125 10.953125 
Q 47.40625 15.53125 47.40625 23.390625 
Q 47.40625 31.296875 43.53125 35.828125 
Q 39.65625 40.375 33.015625 40.375 
z
M 52.59375 71.296875 
L 52.59375 62.3125 
Q 48.875 64.0625 45.09375 64.984375 
Q 41.3125 65.921875 37.59375 65.921875 
Q 27.828125 65.921875 22.671875 59.328125 
Q 17.53125 52.734375 16.796875 39.40625 
Q 19.671875 43.65625 24.015625 45.921875 
Q 28.375 48.1875 33.59375 48.1875 
Q 44.578125 48.1875 50.953125 41.515625 
Q 57.328125 34.859375 57.328125 23.390625 
Q 57.328125 12.15625 50.6875 5.359375 
Q 44.046875 -1.421875 33.015625 -1.421875 
Q 20.359375 -1.421875 13.671875 8.265625 
Q 6.984375 17.96875 6.984375 36.375 
Q 6.984375 53.65625 15.1875 63.9375 
Q 23.390625 74.21875 37.203125 74.21875 
Q 40.921875 74.21875 44.703125 73.484375 
Q 48.484375 72.75 52.59375 71.296875 
z
" id="DejaVuSans-54"/>
      </defs>
      <g transform="translate(194.083909 303.028562)scale(0.1 -0.1)">
       <use xlink:href="#DejaVuSans-54"/>
       <use x="63.623047" xlink:href="#DejaVuSans-48"/>
       <use x="127.246094" xlink:href="#DejaVuSans-48"/>
      </g>
     </g>
    </g>
    <g id="xtick_5">
     <g id="line2d_9">
      <path clip-path="url(#pc23ecde7eb)" d="M 252.558261 288.430125 
L 252.558261 22.318125 
" style="fill:none;stroke:#b0b0b0;stroke-dasharray:2.96,1.28;stroke-dashoffset:0;stroke-width:0.8;"/>
     </g>
     <g id="line2d_10">
      <g>
       <use style="stroke:#000000;stroke-width:0.8;" x="252.558261" xlink:href="#m1946fb25a6" y="288.430125"/>
      </g>
     </g>
     <g id="text_5">
      <!-- 800 -->
      <defs>
       <path d="M 31.78125 34.625 
Q 24.75 34.625 20.71875 30.859375 
Q 16.703125 27.09375 16.703125 20.515625 
Q 16.703125 13.921875 20.71875 10.15625 
Q 24.75 6.390625 31.78125 6.390625 
Q 38.8125 6.390625 42.859375 10.171875 
Q 46.921875 13.96875 46.921875 20.515625 
Q 46.921875 27.09375 42.890625 30.859375 
Q 38.875 34.625 31.78125 34.625 
z
M 21.921875 38.8125 
Q 15.578125 40.375 12.03125 44.71875 
Q 8.5 49.078125 8.5 55.328125 
Q 8.5 64.0625 14.71875 69.140625 
Q 20.953125 74.21875 31.78125 74.21875 
Q 42.671875 74.21875 48.875 69.140625 
Q 55.078125 64.0625 55.078125 55.328125 
Q 55.078125 49.078125 51.53125 44.71875 
Q 48 40.375 41.703125 38.8125 
Q 48.828125 37.15625 52.796875 32.3125 
Q 56.78125 27.484375 56.78125 20.515625 
Q 56.78125 9.90625 50.3125 4.234375 
Q 43.84375 -1.421875 31.78125 -1.421875 
Q 19.734375 -1.421875 13.25 4.234375 
Q 6.78125 9.90625 6.78125 20.515625 
Q 6.78125 27.484375 10.78125 32.3125 
Q 14.796875 37.15625 21.921875 38.8125 
z
M 18.3125 54.390625 
Q 18.3125 48.734375 21.84375 45.5625 
Q 25.390625 42.390625 31.78125 42.390625 
Q 38.140625 42.390625 41.71875 45.5625 
Q 45.3125 48.734375 45.3125 54.390625 
Q 45.3125 60.0625 41.71875 63.234375 
Q 38.140625 66.40625 31.78125 66.40625 
Q 25.390625 66.40625 21.84375 63.234375 
Q 18.3125 60.0625 18.3125 54.390625 
z
" id="DejaVuSans-56"/>
      </defs>
      <g transform="translate(243.014511 303.028562)scale(0.1 -0.1)">
       <use xlink:href="#DejaVuSans-56"/>
       <use x="63.623047" xlink:href="#DejaVuSans-48"/>
       <use x="127.246094" xlink:href="#DejaVuSans-48"/>
      </g>
     </g>
    </g>
    <g id="xtick_6">
     <g id="line2d_11">
      <path clip-path="url(#pc23ecde7eb)" d="M 301.488863 288.430125 
L 301.488863 22.318125 
" style="fill:none;stroke:#b0b0b0;stroke-dasharray:2.96,1.28;stroke-dashoffset:0;stroke-width:0.8;"/>
     </g>
     <g id="line2d_12">
      <g>
       <use style="stroke:#000000;stroke-width:0.8;" x="301.488863" xlink:href="#m1946fb25a6" y="288.430125"/>
      </g>
     </g>
     <g id="text_6">
      <!-- 1000 -->
      <defs>
       <path d="M 12.40625 8.296875 
L 28.515625 8.296875 
L 28.515625 63.921875 
L 10.984375 60.40625 
L 10.984375 69.390625 
L 28.421875 72.90625 
L 38.28125 72.90625 
L 38.28125 8.296875 
L 54.390625 8.296875 
L 54.390625 0 
L 12.40625 0 
z
" id="DejaVuSans-49"/>
      </defs>
      <g transform="translate(288.763863 303.028562)scale(0.1 -0.1)">
       <use xlink:href="#DejaVuSans-49"/>
       <use x="63.623047" xlink:href="#DejaVuSans-48"/>
       <use x="127.246094" xlink:href="#DejaVuSans-48"/>
       <use x="190.869141" xlink:href="#DejaVuSans-48"/>
      </g>
     </g>
    </g>
    <g id="xtick_7">
     <g id="line2d_13">
      <path clip-path="url(#pc23ecde7eb)" d="M 350.419465 288.430125 
L 350.419465 22.318125 
" style="fill:none;stroke:#b0b0b0;stroke-dasharray:2.96,1.28;stroke-dashoffset:0;stroke-width:0.8;"/>
     </g>
     <g id="line2d_14">
      <g>
       <use style="stroke:#000000;stroke-width:0.8;" x="350.419465" xlink:href="#m1946fb25a6" y="288.430125"/>
      </g>
     </g>
     <g id="text_7">
      <!-- 1200 -->
      <g transform="translate(337.694465 303.028562)scale(0.1 -0.1)">
       <use xlink:href="#DejaVuSans-49"/>
       <use x="63.623047" xlink:href="#DejaVuSans-50"/>
       <use x="127.246094" xlink:href="#DejaVuSans-48"/>
       <use x="190.869141" xlink:href="#DejaVuSans-48"/>
      </g>
     </g>
    </g>
    <g id="text_8">
     <!-- Day -->
     <defs>
      <path d="M 19.671875 64.796875 
L 19.671875 8.109375 
L 31.59375 8.109375 
Q 46.6875 8.109375 53.6875 14.9375 
Q 60.6875 21.78125 60.6875 36.53125 
Q 60.6875 51.171875 53.6875 57.984375 
Q 46.6875 64.796875 31.59375 64.796875 
z
M 9.8125 72.90625 
L 30.078125 72.90625 
Q 51.265625 72.90625 61.171875 64.09375 
Q 71.09375 55.28125 71.09375 36.53125 
Q 71.09375 17.671875 61.125 8.828125 
Q 51.171875 0 30.078125 0 
L 9.8125 0 
z
" id="DejaVuSans-68"/>
      <path d="M 34.28125 27.484375 
Q 23.390625 27.484375 19.1875 25 
Q 14.984375 22.515625 14.984375 16.5 
Q 14.984375 11.71875 18.140625 8.90625 
Q 21.296875 6.109375 26.703125 6.109375 
Q 34.1875 6.109375 38.703125 11.40625 
Q 43.21875 16.703125 43.21875 25.484375 
L 43.21875 27.484375 
z
M 52.203125 31.203125 
L 52.203125 0 
L 43.21875 0 
L 43.21875 8.296875 
Q 40.140625 3.328125 35.546875 0.953125 
Q 30.953125 -1.421875 24.3125 -1.421875 
Q 15.921875 -1.421875 10.953125 3.296875 
Q 6 8.015625 6 15.921875 
Q 6 25.140625 12.171875 29.828125 
Q 18.359375 34.515625 30.609375 34.515625 
L 43.21875 34.515625 
L 43.21875 35.40625 
Q 43.21875 41.609375 39.140625 45 
Q 35.0625 48.390625 27.6875 48.390625 
Q 23 48.390625 18.546875 47.265625 
Q 14.109375 46.140625 10.015625 43.890625 
L 10.015625 52.203125 
Q 14.9375 54.109375 19.578125 55.046875 
Q 24.21875 56 28.609375 56 
Q 40.484375 56 46.34375 49.84375 
Q 52.203125 43.703125 52.203125 31.203125 
z
" id="DejaVuSans-97"/>
      <path d="M 32.171875 -5.078125 
Q 28.375 -14.84375 24.75 -17.8125 
Q 21.140625 -20.796875 15.09375 -20.796875 
L 7.90625 -20.796875 
L 7.90625 -13.28125 
L 13.1875 -13.28125 
Q 16.890625 -13.28125 18.9375 -11.515625 
Q 21 -9.765625 23.484375 -3.21875 
L 25.09375 0.875 
L 2.984375 54.6875 
L 12.5 54.6875 
L 29.59375 11.921875 
L 46.6875 54.6875 
L 56.203125 54.6875 
z
" id="DejaVuSans-121"/>
     </defs>
     <g transform="translate(209.289688 316.706687)scale(0.1 -0.1)">
      <use xlink:href="#DejaVuSans-68"/>
      <use x="77.001953" xlink:href="#DejaVuSans-97"/>
      <use x="138.28125" xlink:href="#DejaVuSans-121"/>
     </g>
    </g>
   </g>
   <g id="matplotlib.axis_2">
    <g id="ytick_1">
     <g id="line2d_15">
      <path clip-path="url(#pc23ecde7eb)" d="M 40.603125 284.276542 
L 397.723125 284.276542 
" style="fill:none;stroke:#b0b0b0;stroke-dasharray:2.96,1.28;stroke-dashoffset:0;stroke-width:0.8;"/>
     </g>
     <g id="line2d_16">
      <defs>
       <path d="M 0 0 
L -3.5 0 
" id="m6131ff9fef" style="stroke:#000000;stroke-width:0.8;"/>
      </defs>
      <g>
       <use style="stroke:#000000;stroke-width:0.8;" x="40.603125" xlink:href="#m6131ff9fef" y="284.276542"/>
      </g>
     </g>
     <g id="text_9">
      <!-- 20 -->
      <g transform="translate(20.878125 288.075761)scale(0.1 -0.1)">
       <use xlink:href="#DejaVuSans-50"/>
       <use x="63.623047" xlink:href="#DejaVuSans-48"/>
      </g>
     </g>
    </g>
    <g id="ytick_2">
     <g id="line2d_17">
      <path clip-path="url(#pc23ecde7eb)" d="M 40.603125 228.215869 
L 397.723125 228.215869 
" style="fill:none;stroke:#b0b0b0;stroke-dasharray:2.96,1.28;stroke-dashoffset:0;stroke-width:0.8;"/>
     </g>
     <g id="line2d_18">
      <g>
       <use style="stroke:#000000;stroke-width:0.8;" x="40.603125" xlink:href="#m6131ff9fef" y="228.215869"/>
      </g>
     </g>
     <g id="text_10">
      <!-- 30 -->
      <defs>
       <path d="M 40.578125 39.3125 
Q 47.65625 37.796875 51.625 33 
Q 55.609375 28.21875 55.609375 21.1875 
Q 55.609375 10.40625 48.1875 4.484375 
Q 40.765625 -1.421875 27.09375 -1.421875 
Q 22.515625 -1.421875 17.65625 -0.515625 
Q 12.796875 0.390625 7.625 2.203125 
L 7.625 11.71875 
Q 11.71875 9.328125 16.59375 8.109375 
Q 21.484375 6.890625 26.8125 6.890625 
Q 36.078125 6.890625 40.9375 10.546875 
Q 45.796875 14.203125 45.796875 21.1875 
Q 45.796875 27.640625 41.28125 31.265625 
Q 36.765625 34.90625 28.71875 34.90625 
L 20.21875 34.90625 
L 20.21875 43.015625 
L 29.109375 43.015625 
Q 36.375 43.015625 40.234375 45.921875 
Q 44.09375 48.828125 44.09375 54.296875 
Q 44.09375 59.90625 40.109375 62.90625 
Q 36.140625 65.921875 28.71875 65.921875 
Q 24.65625 65.921875 20.015625 65.03125 
Q 15.375 64.15625 9.8125 62.3125 
L 9.8125 71.09375 
Q 15.4375 72.65625 20.34375 73.4375 
Q 25.25 74.21875 29.59375 74.21875 
Q 40.828125 74.21875 47.359375 69.109375 
Q 53.90625 64.015625 53.90625 55.328125 
Q 53.90625 49.265625 50.4375 45.09375 
Q 46.96875 40.921875 40.578125 39.3125 
z
" id="DejaVuSans-51"/>
      </defs>
      <g transform="translate(20.878125 232.015088)scale(0.1 -0.1)">
       <use xlink:href="#DejaVuSans-51"/>
       <use x="63.623047" xlink:href="#DejaVuSans-48"/>
      </g>
     </g>
    </g>
    <g id="ytick_3">
     <g id="line2d_19">
      <path clip-path="url(#pc23ecde7eb)" d="M 40.603125 172.155197 
L 397.723125 172.155197 
" style="fill:none;stroke:#b0b0b0;stroke-dasharray:2.96,1.28;stroke-dashoffset:0;stroke-width:0.8;"/>
     </g>
     <g id="line2d_20">
      <g>
       <use style="stroke:#000000;stroke-width:0.8;" x="40.603125" xlink:href="#m6131ff9fef" y="172.155197"/>
      </g>
     </g>
     <g id="text_11">
      <!-- 40 -->
      <g transform="translate(20.878125 175.954416)scale(0.1 -0.1)">
       <use xlink:href="#DejaVuSans-52"/>
       <use x="63.623047" xlink:href="#DejaVuSans-48"/>
      </g>
     </g>
    </g>
    <g id="ytick_4">
     <g id="line2d_21">
      <path clip-path="url(#pc23ecde7eb)" d="M 40.603125 116.094525 
L 397.723125 116.094525 
" style="fill:none;stroke:#b0b0b0;stroke-dasharray:2.96,1.28;stroke-dashoffset:0;stroke-width:0.8;"/>
     </g>
     <g id="line2d_22">
      <g>
       <use style="stroke:#000000;stroke-width:0.8;" x="40.603125" xlink:href="#m6131ff9fef" y="116.094525"/>
      </g>
     </g>
     <g id="text_12">
      <!-- 50 -->
      <defs>
       <path d="M 10.796875 72.90625 
L 49.515625 72.90625 
L 49.515625 64.59375 
L 19.828125 64.59375 
L 19.828125 46.734375 
Q 21.96875 47.46875 24.109375 47.828125 
Q 26.265625 48.1875 28.421875 48.1875 
Q 40.625 48.1875 47.75 41.5 
Q 54.890625 34.8125 54.890625 23.390625 
Q 54.890625 11.625 47.5625 5.09375 
Q 40.234375 -1.421875 26.90625 -1.421875 
Q 22.3125 -1.421875 17.546875 -0.640625 
Q 12.796875 0.140625 7.71875 1.703125 
L 7.71875 11.625 
Q 12.109375 9.234375 16.796875 8.0625 
Q 21.484375 6.890625 26.703125 6.890625 
Q 35.15625 6.890625 40.078125 11.328125 
Q 45.015625 15.765625 45.015625 23.390625 
Q 45.015625 31 40.078125 35.4375 
Q 35.15625 39.890625 26.703125 39.890625 
Q 22.75 39.890625 18.8125 39.015625 
Q 14.890625 38.140625 10.796875 36.28125 
z
" id="DejaVuSans-53"/>
      </defs>
      <g transform="translate(20.878125 119.893743)scale(0.1 -0.1)">
       <use xlink:href="#DejaVuSans-53"/>
       <use x="63.623047" xlink:href="#DejaVuSans-48"/>
      </g>
     </g>
    </g>
    <g id="ytick_5">
     <g id="line2d_23">
      <path clip-path="url(#pc23ecde7eb)" d="M 40.603125 60.033852 
L 397.723125 60.033852 
" style="fill:none;stroke:#b0b0b0;stroke-dasharray:2.96,1.28;stroke-dashoffset:0;stroke-width:0.8;"/>
     </g>
     <g id="line2d_24">
      <g>
       <use style="stroke:#000000;stroke-width:0.8;" x="40.603125" xlink:href="#m6131ff9fef" y="60.033852"/>
      </g>
     </g>
     <g id="text_13">
      <!-- 60 -->
      <g transform="translate(20.878125 63.833071)scale(0.1 -0.1)">
       <use xlink:href="#DejaVuSans-54"/>
       <use x="63.623047" xlink:href="#DejaVuSans-48"/>
      </g>
     </g>
    </g>
    <g id="text_14">
     <!-- Price $ -->
     <defs>
      <path d="M 19.671875 64.796875 
L 19.671875 37.40625 
L 32.078125 37.40625 
Q 38.96875 37.40625 42.71875 40.96875 
Q 46.484375 44.53125 46.484375 51.125 
Q 46.484375 57.671875 42.71875 61.234375 
Q 38.96875 64.796875 32.078125 64.796875 
z
M 9.8125 72.90625 
L 32.078125 72.90625 
Q 44.34375 72.90625 50.609375 67.359375 
Q 56.890625 61.8125 56.890625 51.125 
Q 56.890625 40.328125 50.609375 34.8125 
Q 44.34375 29.296875 32.078125 29.296875 
L 19.671875 29.296875 
L 19.671875 0 
L 9.8125 0 
z
" id="DejaVuSans-80"/>
      <path d="M 41.109375 46.296875 
Q 39.59375 47.171875 37.8125 47.578125 
Q 36.03125 48 33.890625 48 
Q 26.265625 48 22.1875 43.046875 
Q 18.109375 38.09375 18.109375 28.8125 
L 18.109375 0 
L 9.078125 0 
L 9.078125 54.6875 
L 18.109375 54.6875 
L 18.109375 46.1875 
Q 20.953125 51.171875 25.484375 53.578125 
Q 30.03125 56 36.53125 56 
Q 37.453125 56 38.578125 55.875 
Q 39.703125 55.765625 41.0625 55.515625 
z
" id="DejaVuSans-114"/>
      <path d="M 9.421875 54.6875 
L 18.40625 54.6875 
L 18.40625 0 
L 9.421875 0 
z
M 9.421875 75.984375 
L 18.40625 75.984375 
L 18.40625 64.59375 
L 9.421875 64.59375 
z
" id="DejaVuSans-105"/>
      <path d="M 48.78125 52.59375 
L 48.78125 44.1875 
Q 44.96875 46.296875 41.140625 47.34375 
Q 37.3125 48.390625 33.40625 48.390625 
Q 24.65625 48.390625 19.8125 42.84375 
Q 14.984375 37.3125 14.984375 27.296875 
Q 14.984375 17.28125 19.8125 11.734375 
Q 24.65625 6.203125 33.40625 6.203125 
Q 37.3125 6.203125 41.140625 7.25 
Q 44.96875 8.296875 48.78125 10.40625 
L 48.78125 2.09375 
Q 45.015625 0.34375 40.984375 -0.53125 
Q 36.96875 -1.421875 32.421875 -1.421875 
Q 20.0625 -1.421875 12.78125 6.34375 
Q 5.515625 14.109375 5.515625 27.296875 
Q 5.515625 40.671875 12.859375 48.328125 
Q 20.21875 56 33.015625 56 
Q 37.15625 56 41.109375 55.140625 
Q 45.0625 54.296875 48.78125 52.59375 
z
" id="DejaVuSans-99"/>
      <path d="M 56.203125 29.59375 
L 56.203125 25.203125 
L 14.890625 25.203125 
Q 15.484375 15.921875 20.484375 11.0625 
Q 25.484375 6.203125 34.421875 6.203125 
Q 39.59375 6.203125 44.453125 7.46875 
Q 49.3125 8.734375 54.109375 11.28125 
L 54.109375 2.78125 
Q 49.265625 0.734375 44.1875 -0.34375 
Q 39.109375 -1.421875 33.890625 -1.421875 
Q 20.796875 -1.421875 13.15625 6.1875 
Q 5.515625 13.8125 5.515625 26.8125 
Q 5.515625 40.234375 12.765625 48.109375 
Q 20.015625 56 32.328125 56 
Q 43.359375 56 49.78125 48.890625 
Q 56.203125 41.796875 56.203125 29.59375 
z
M 47.21875 32.234375 
Q 47.125 39.59375 43.09375 43.984375 
Q 39.0625 48.390625 32.421875 48.390625 
Q 24.90625 48.390625 20.390625 44.140625 
Q 15.875 39.890625 15.1875 32.171875 
z
" id="DejaVuSans-101"/>
      <path id="DejaVuSans-32"/>
      <path d="M 33.796875 -14.703125 
L 28.90625 -14.703125 
L 28.859375 0 
Q 23.734375 0.09375 18.609375 1.1875 
Q 13.484375 2.296875 8.296875 4.5 
L 8.296875 13.28125 
Q 13.28125 10.15625 18.375 8.5625 
Q 23.484375 6.984375 28.90625 6.9375 
L 28.90625 29.203125 
Q 18.109375 30.953125 13.203125 35.15625 
Q 8.296875 39.359375 8.296875 46.6875 
Q 8.296875 54.640625 13.625 59.21875 
Q 18.953125 63.8125 28.90625 64.5 
L 28.90625 75.984375 
L 33.796875 75.984375 
L 33.796875 64.65625 
Q 38.328125 64.453125 42.578125 63.6875 
Q 46.828125 62.9375 50.875 61.625 
L 50.875 53.078125 
Q 46.828125 55.125 42.546875 56.25 
Q 38.28125 57.375 33.796875 57.5625 
L 33.796875 36.71875 
Q 44.875 35.015625 50.09375 30.609375 
Q 55.328125 26.21875 55.328125 18.609375 
Q 55.328125 10.359375 49.78125 5.59375 
Q 44.234375 0.828125 33.796875 0.09375 
z
M 28.90625 37.59375 
L 28.90625 57.625 
Q 23.25 56.984375 20.265625 54.390625 
Q 17.28125 51.8125 17.28125 47.515625 
Q 17.28125 43.3125 20.03125 40.96875 
Q 22.796875 38.625 28.90625 37.59375 
z
M 33.796875 28.21875 
L 33.796875 7.078125 
Q 39.984375 7.90625 43.140625 10.59375 
Q 46.296875 13.28125 46.296875 17.671875 
Q 46.296875 21.96875 43.28125 24.5 
Q 40.28125 27.046875 33.796875 28.21875 
z
" id="DejaVuSans-36"/>
     </defs>
     <g transform="translate(14.798438 172.342094)rotate(-90)scale(0.1 -0.1)">
      <use xlink:href="#DejaVuSans-80"/>
      <use x="58.552734" xlink:href="#DejaVuSans-114"/>
      <use x="99.666016" xlink:href="#DejaVuSans-105"/>
      <use x="127.449219" xlink:href="#DejaVuSans-99"/>
      <use x="182.429688" xlink:href="#DejaVuSans-101"/>
      <use x="243.953125" xlink:href="#DejaVuSans-32"/>
      <use x="275.740234" xlink:href="#DejaVuSans-36"/>
     </g>
    </g>
   </g>
   <g id="line2d_25">
    <path clip-path="url(#pc23ecde7eb)" d="M 56.835852 263.723927 
L 57.080505 266.913428 
L 57.569811 275.254534 
L 57.814464 276.334125 
L 58.059117 274.29993 
L 58.30377 275.326892 
L 58.548423 270.881381 
L 58.793076 270.988597 
L 59.037729 271.694552 
L 59.771688 268.797069 
L 60.016341 264.430802 
L 60.260994 263.413967 
L 60.7503 264.260114 
L 61.239606 263.878801 
L 61.484259 264.370078 
L 61.973566 261.055387 
L 62.218219 260.175001 
L 62.462872 260.647748 
L 62.707525 259.170784 
L 63.196831 259.573921 
L 63.441484 258.736798 
L 63.686137 255.943152 
L 63.93079 254.896132 
L 64.175443 255.77008 
L 64.420096 255.976824 
L 64.909402 253.476223 
L 65.398708 258.839886 
L 65.643361 260.031516 
L 66.132667 254.921762 
L 66.37732 255.031929 
L 66.621973 254.810878 
L 67.111279 257.557829 
L 67.355932 255.259385 
L 67.600585 255.949098 
L 68.089891 259.695037 
L 68.334544 259.357532 
L 68.82385 261.432744 
L 69.068503 261.388861 
L 69.313156 265.132683 
L 69.557809 266.323585 
L 69.802462 265.848572 
L 70.047115 265.811864 
L 70.291768 264.53805 
L 70.536421 261.140619 
L 70.781074 262.365214 
L 71.025727 265.035764 
L 71.27038 269.556007 
L 71.515033 271.177526 
L 71.759686 271.873708 
L 72.004339 271.184498 
L 72.248992 268.700567 
L 72.493645 269.55065 
L 72.738298 269.470657 
L 72.982951 267.585102 
L 73.227604 256.709896 
L 73.472257 255.448496 
L 73.71691 253.444883 
L 73.961563 253.193016 
L 74.206216 255.463092 
L 74.450869 255.323103 
L 74.695522 256.060462 
L 74.940175 257.285699 
L 75.184828 260.939382 
L 75.429481 262.314584 
L 75.674134 261.527043 
L 75.918787 258.940687 
L 76.408093 256.762771 
L 76.652746 254.877013 
L 76.897399 255.544325 
L 77.142052 257.25855 
L 77.386705 254.35338 
L 77.631358 253.129437 
L 78.120664 253.025824 
L 78.365317 254.901809 
L 78.60997 255.78335 
L 78.854623 248.249021 
L 79.099276 248.10978 
L 79.343929 249.732465 
L 79.588582 249.243252 
L 79.833235 248.105663 
L 80.077888 249.050451 
L 80.322541 248.681659 
L 80.567194 245.550583 
L 81.0565 246.147462 
L 81.301153 246.28388 
L 81.545806 247.863077 
L 81.790459 248.034685 
L 82.035112 249.149808 
L 82.279765 248.983012 
L 82.524418 250.550662 
L 83.258377 243.196473 
L 83.50303 242.208743 
L 83.747683 242.137059 
L 83.992336 242.305972 
L 84.236989 244.873114 
L 84.481643 245.278143 
L 84.726296 244.084322 
L 84.970949 244.997149 
L 85.460255 245.768865 
L 85.704908 245.440245 
L 85.949561 244.532016 
L 86.194214 244.076645 
L 86.438867 245.391101 
L 86.68352 245.250267 
L 86.928173 239.494919 
L 87.417479 242.252883 
L 87.662132 241.280668 
L 87.906785 240.899066 
L 88.151438 238.975017 
L 88.396091 240.766551 
L 88.640744 240.585748 
L 89.13005 241.516806 
L 89.374703 240.318462 
L 89.619356 240.70015 
L 89.864009 240.426298 
L 90.353315 242.35271 
L 90.597968 245.531903 
L 90.842621 245.449195 
L 91.087274 248.374874 
L 91.331927 248.6434 
L 91.57658 246.336434 
L 91.821233 248.758486 
L 92.065886 248.766805 
L 92.310539 245.408584 
L 92.555192 244.521302 
L 92.799845 244.373304 
L 94.02311 233.828502 
L 94.267763 233.936146 
L 94.512416 234.778775 
L 94.757069 233.999286 
L 95.001722 236.30853 
L 95.246375 236.469145 
L 95.491028 238.428951 
L 95.735681 238.938523 
L 95.980334 237.247864 
L 96.224987 238.181329 
L 96.46964 237.370745 
L 96.714293 239.136296 
L 96.958946 238.271105 
L 97.203599 238.635074 
L 97.448252 238.458227 
L 97.692905 238.702888 
L 97.937558 235.135934 
L 98.182211 236.392275 
L 98.426864 235.381845 
L 98.671517 236.071782 
L 98.91617 235.369067 
L 99.160823 237.114815 
L 99.405476 236.209708 
L 99.894782 232.672565 
L 100.139435 236.092323 
L 100.384088 234.140398 
L 100.628741 234.966828 
L 100.873394 236.20542 
L 101.118047 234.512697 
L 101.3627 233.823049 
L 101.852006 230.557576 
L 102.096659 228.927182 
L 102.341312 229.880941 
L 102.585965 228.436311 
L 102.830618 227.704297 
L 103.075271 229.476627 
L 103.319924 228.913452 
L 103.564577 225.080207 
L 103.80923 223.184996 
L 104.053883 223.860819 
L 104.298536 223.377722 
L 104.543189 223.504666 
L 104.787842 221.488189 
L 105.032495 222.025637 
L 105.521801 218.753856 
L 105.766454 219.981969 
L 106.011107 218.581136 
L 106.25576 219.26005 
L 106.500413 218.271325 
L 106.745066 218.630419 
L 106.98972 219.974837 
L 107.234373 220.521 
L 107.479026 218.269871 
L 107.723679 219.735673 
L 107.968332 220.263241 
L 108.212985 221.096322 
L 108.457638 220.340763 
L 108.702291 220.624473 
L 108.946944 223.272056 
L 109.191597 221.620148 
L 109.680903 213.255336 
L 109.925556 214.794704 
L 110.170209 217.409299 
L 110.414862 213.661767 
L 110.659515 214.23695 
L 110.904168 213.21047 
L 111.148821 210.354785 
L 111.393474 212.172826 
L 111.638127 215.134326 
L 112.127433 218.529191 
L 112.372086 216.799675 
L 112.616739 214.003656 
L 112.861392 214.129274 
L 113.106045 214.49828 
L 113.840004 209.688628 
L 114.32931 206.934311 
L 114.573963 207.29812 
L 114.818616 207.364522 
L 115.063269 204.095627 
L 115.307922 202.917546 
L 115.552575 203.035016 
L 115.797228 203.390592 
L 116.041881 206.91609 
L 116.77584 204.824935 
L 117.265146 211.419973 
L 117.509799 207.35199 
L 117.754452 193.427988 
L 118.488411 198.351025 
L 118.733064 192.692564 
L 118.977717 190.349446 
L 119.22237 190.941737 
L 119.711676 195.714648 
L 119.956329 194.178361 
L 120.200982 194.093503 
L 120.445635 193.776207 
L 120.690288 194.563192 
L 121.179594 199.673865 
L 121.424247 199.919691 
L 121.6689 201.020058 
L 121.913553 200.226144 
L 122.158206 199.988787 
L 122.402859 197.089498 
L 122.647512 196.621178 
L 122.892165 196.767155 
L 123.136818 201.34054 
L 123.381471 199.449168 
L 123.626124 198.765924 
L 123.870777 200.484395 
L 124.360083 196.18438 
L 124.604736 196.325438 
L 124.849389 197.55014 
L 125.094042 195.424191 
L 125.583348 187.201999 
L 125.828001 186.544012 
L 126.072654 186.505668 
L 126.317307 187.293636 
L 126.56196 185.288729 
L 126.806613 181.783311 
L 127.051266 184.177605 
L 127.295919 184.82167 
L 127.540572 186.862591 
L 127.785225 183.931351 
L 128.029878 184.245803 
L 128.274531 182.094063 
L 128.519184 181.619734 
L 128.763837 182.49226 
L 129.00849 181.994664 
L 129.253143 181.903818 
L 129.497797 182.807118 
L 129.74245 181.390952 
L 129.987103 182.683297 
L 130.231756 186.250646 
L 130.476409 187.178133 
L 130.721062 182.347139 
L 130.965715 180.288255 
L 131.210368 179.428624 
L 131.455021 183.038915 
L 131.944327 177.656305 
L 132.18898 176.045617 
L 132.433633 175.674023 
L 132.678286 171.758818 
L 133.167592 176.515626 
L 133.412245 174.224282 
L 133.656898 177.402951 
L 133.901551 175.20782 
L 134.146204 171.919936 
L 134.390857 171.385385 
L 134.63551 172.777535 
L 134.880163 172.962626 
L 135.124816 168.785663 
L 135.369469 170.792452 
L 135.614122 176.295335 
L 135.858775 170.914435 
L 136.103428 171.297534 
L 136.348081 172.430043 
L 136.592734 170.363652 
L 136.837387 170.757808 
L 137.08204 170.739224 
L 137.571346 174.121953 
L 137.815999 174.786655 
L 138.060652 170.018342 
L 138.305305 170.465789 
L 138.549958 171.976265 
L 138.794611 169.950657 
L 139.039264 169.619182 
L 139.283917 170.023859 
L 139.52857 171.075232 
L 140.017876 175.174737 
L 140.507182 174.339635 
L 140.751835 174.864562 
L 140.996488 181.195147 
L 141.241141 183.880326 
L 141.485794 183.84134 
L 141.730447 184.23109 
L 141.9751 184.042385 
L 142.219753 185.024105 
L 142.464406 180.897526 
L 142.709059 181.988719 
L 143.687671 177.288603 
L 143.932324 178.168614 
L 144.176977 178.212241 
L 144.42163 178.569506 
L 144.666283 181.894516 
L 144.910936 182.425581 
L 145.155589 184.48902 
L 145.644895 179.590298 
L 145.889548 180.619259 
L 146.134201 180.493063 
L 146.378854 187.159635 
L 146.623507 186.730044 
L 146.86816 184.969038 
L 147.602119 191.618929 
L 147.846772 191.945142 
L 148.091425 192.60884 
L 148.336078 188.533308 
L 148.580731 190.319121 
L 148.825384 191.101358 
L 149.070037 197.286907 
L 149.31469 196.669936 
L 149.559343 198.662782 
L 149.803996 204.579003 
L 150.048649 200.382108 
L 150.293302 200.560014 
L 150.782608 191.024712 
L 151.027261 188.908729 
L 151.271914 189.405535 
L 151.516567 191.132559 
L 151.76122 188.966128 
L 152.005874 187.91916 
L 152.49518 192.593528 
L 152.739833 192.047023 
L 152.984486 194.664046 
L 153.229139 194.768984 
L 153.473792 200.229929 
L 153.718445 197.094416 
L 153.963098 195.950295 
L 154.207751 199.14496 
L 154.452404 200.582383 
L 154.697057 197.63318 
L 154.94171 198.381072 
L 155.186363 194.802816 
L 155.675669 192.286668 
L 155.920322 188.408246 
L 156.164975 186.542664 
L 156.409628 189.487911 
L 156.654281 190.17494 
L 156.898934 190.365057 
L 157.143587 189.244139 
L 157.632893 182.947364 
L 157.877546 183.390834 
L 158.366852 188.949618 
L 158.611505 191.882269 
L 158.856158 192.540449 
L 159.100811 191.742986 
L 159.345464 192.421888 
L 159.590117 190.89069 
L 159.83477 191.647756 
L 160.079423 193.302348 
L 160.568729 200.508881 
L 161.058035 195.281871 
L 161.547341 205.175058 
L 161.791994 203.97063 
L 162.036647 204.965267 
L 162.2813 200.060407 
L 162.525953 201.50756 
L 162.770606 200.756375 
L 163.015259 199.007088 
L 163.259912 200.811913 
L 163.504565 199.02086 
L 163.749218 198.330624 
L 164.238524 200.165923 
L 164.483177 200.270262 
L 164.72783 199.192158 
L 164.972483 200.198108 
L 165.217136 199.449831 
L 165.461789 202.947443 
L 165.706442 202.741757 
L 165.951095 203.150433 
L 166.440401 198.933501 
L 166.685054 198.904224 
L 166.929707 201.366545 
L 167.17436 202.368068 
L 167.419013 199.568542 
L 167.663666 199.213201 
L 167.908319 201.266696 
L 168.152972 200.886955 
L 168.886931 192.238786 
L 169.376237 193.393172 
L 169.62089 193.046022 
L 170.110196 190.443499 
L 170.354849 189.064137 
L 170.599502 188.934819 
L 170.844155 187.31592 
L 171.088808 187.544316 
L 171.333461 189.079898 
L 171.578114 188.729113 
L 171.822767 190.780854 
L 172.312073 187.859709 
L 172.801379 186.582955 
L 173.046032 182.112818 
L 173.290685 183.507235 
L 173.535338 183.214746 
L 174.024644 179.501056 
L 174.269298 179.492138 
L 174.513951 179.767326 
L 174.758604 181.289778 
L 175.003257 179.515192 
L 175.24791 179.107863 
L 175.492563 176.804693 
L 175.737216 177.689816 
L 175.981869 178.077491 
L 176.226522 175.685828 
L 176.715828 177.920821 
L 176.960481 178.103881 
L 177.205134 177.118845 
L 177.449787 177.522539 
L 177.69444 181.498714 
L 177.939093 179.882508 
L 178.183746 180.679095 
L 178.428399 177.732886 
L 178.673052 176.531622 
L 178.917705 173.245791 
L 179.162358 177.337127 
L 179.407011 178.441728 
L 179.896317 177.148913 
L 180.385623 182.264463 
L 180.630276 180.888052 
L 180.874929 182.751067 
L 181.119582 182.028602 
L 181.364235 183.149499 
L 181.608888 180.877573 
L 181.853541 179.910523 
L 182.098194 180.066487 
L 182.5875 183.318637 
L 182.832153 182.615184 
L 183.321459 179.375246 
L 183.566112 179.479029 
L 183.810765 181.005694 
L 184.055418 181.550787 
L 184.300071 179.905776 
L 184.544724 180.132419 
L 184.789377 179.83653 
L 185.03403 180.181477 
L 185.278683 180.115952 
L 185.523336 180.965147 
L 185.767989 182.794779 
L 186.012642 182.144918 
L 186.257295 179.800068 
L 186.501948 180.542677 
L 186.746601 181.977213 
L 186.991254 181.826189 
L 187.48056 186.642727 
L 187.725213 188.010262 
L 187.969866 187.662449 
L 188.214519 187.087159 
L 188.703825 185.096516 
L 188.948478 189.044249 
L 189.193131 190.66394 
L 189.437784 187.275822 
L 189.682437 190.343778 
L 189.92709 187.637257 
L 190.416396 186.775809 
L 190.661049 188.977569 
L 190.905702 189.443045 
L 191.150355 185.687075 
L 191.395008 187.498808 
L 191.639661 190.46112 
L 191.884314 187.405546 
L 192.128967 189.28785 
L 192.37362 189.491739 
L 192.618273 195.396583 
L 192.862926 194.233022 
L 193.107579 195.141754 
L 193.352232 194.562871 
L 193.841538 188.979002 
L 194.086191 189.698344 
L 194.575497 188.412223 
L 194.82015 185.816072 
L 195.064803 185.344587 
L 195.309456 182.458835 
L 195.554109 183.57122 
L 195.798762 181.588939 
L 196.043415 186.388775 
L 196.532721 183.11385 
L 196.777375 183.307623 
L 197.022028 181.174617 
L 197.266681 180.165374 
L 197.511334 180.582069 
L 198.489946 179.249563 
L 198.979252 180.690044 
L 199.468558 179.137076 
L 199.713211 174.949955 
L 199.957864 172.713828 
L 200.202517 173.447905 
L 200.44717 174.780582 
L 200.691823 170.9244 
L 200.936476 171.647207 
L 201.181129 172.917717 
L 201.425782 172.753156 
L 201.670435 170.524856 
L 201.915088 164.776169 
L 202.159741 163.545116 
L 202.649047 166.641729 
L 202.8937 165.458322 
L 203.138353 165.064851 
L 203.627659 176.296596 
L 203.872312 172.872315 
L 204.116965 173.79822 
L 204.361618 175.485275 
L 204.850924 170.153155 
L 205.095577 170.767025 
L 205.584883 167.506535 
L 205.829536 168.970112 
L 206.074189 168.378056 
L 206.318842 169.918792 
L 206.563495 174.038763 
L 206.808148 175.944998 
L 207.297454 167.334361 
L 207.542107 174.186622 
L 207.78676 173.366683 
L 208.031413 171.833688 
L 208.276066 172.797659 
L 208.520719 175.031711 
L 209.010025 170.77004 
L 209.254678 170.460635 
L 209.499331 166.653705 
L 209.743984 152.081895 
L 210.23329 150.928278 
L 210.477943 152.91751 
L 210.722596 149.003288 
L 210.967249 152.723971 
L 211.701208 149.638864 
L 211.945861 147.16414 
L 212.190514 148.75387 
L 212.435167 149.29304 
L 212.67982 143.164162 
L 212.924473 143.761715 
L 213.169126 141.084107 
L 213.413779 141.689571 
L 213.658432 140.336685 
L 213.903085 137.758691 
L 214.147738 137.207673 
L 214.392391 136.311216 
L 214.637044 136.133931 
L 214.881697 136.295306 
L 215.12635 134.267409 
L 215.371003 133.438702 
L 215.615656 136.18917 
L 215.860309 134.344033 
L 216.104962 134.765519 
L 216.349615 137.273989 
L 216.594268 135.903139 
L 216.838921 139.469997 
L 217.083574 137.557176 
L 217.57288 141.92479 
L 217.817533 136.885844 
L 218.062186 136.829471 
L 218.306839 134.932582 
L 218.551492 133.927594 
L 219.040798 124.988498 
L 219.285452 125.231479 
L 219.530105 125.679825 
L 219.774758 123.938708 
L 220.019411 129.745221 
L 220.264064 131.819053 
L 220.508717 131.904937 
L 220.75337 129.47833 
L 221.242676 137.266141 
L 221.487329 133.821031 
L 221.731982 133.329443 
L 221.976635 134.584791 
L 222.221288 131.497694 
L 222.465941 131.501864 
L 222.710594 127.662107 
L 222.955247 126.442045 
L 223.1999 128.06657 
L 223.444553 128.93514 
L 223.689206 128.388335 
L 223.933859 131.621858 
L 224.178512 130.090831 
L 224.423165 127.639481 
L 224.667818 127.684754 
L 224.912471 121.841543 
L 225.157124 109.865435 
L 225.401777 113.254558 
L 225.64643 114.816787 
L 225.891083 114.836077 
L 226.135736 120.370652 
L 226.380389 116.645692 
L 226.625042 115.735228 
L 226.869695 121.159433 
L 227.114348 123.710076 
L 227.603654 119.850088 
L 227.848307 121.156482 
L 228.09296 119.779323 
L 228.337613 120.565153 
L 228.582266 115.432538 
L 229.316225 110.479882 
L 229.560878 112.453759 
L 230.050184 110.131898 
L 230.294837 113.700338 
L 230.53949 109.4753 
L 231.028796 107.245482 
L 231.273449 106.425243 
L 231.518102 108.677131 
L 231.762755 106.201017 
L 232.007408 108.707328 
L 232.252061 106.419213 
L 232.496714 109.736246 
L 232.741367 109.803246 
L 232.98602 103.801313 
L 233.230673 104.564966 
L 233.475326 103.992606 
L 233.719979 105.989451 
L 233.964632 101.794331 
L 234.209285 100.702155 
L 234.453938 95.729418 
L 234.943244 96.579404 
L 235.187897 95.317577 
L 235.43255 97.434138 
L 235.677203 96.155288 
L 235.921856 92.605881 
L 236.166509 98.247918 
L 236.411162 97.94788 
L 236.655815 96.925677 
L 236.900468 94.393127 
L 237.389774 93.277491 
L 237.634427 98.462307 
L 238.123733 92.313392 
L 238.368386 86.356432 
L 238.613039 85.864887 
L 238.857692 88.068337 
L 239.102345 86.048417 
L 239.346998 86.238235 
L 239.591651 83.487424 
L 239.836304 83.450577 
L 240.080957 80.872818 
L 240.32561 81.470007 
L 240.570263 78.165506 
L 240.814916 79.051997 
L 241.059569 78.392619 
L 241.304222 76.464764 
L 241.548875 73.26704 
L 241.793529 73.809076 
L 242.038182 72.434889 
L 242.527488 67.707208 
L 242.772141 77.439534 
L 243.016794 77.444923 
L 243.261447 82.515905 
L 243.750753 82.373242 
L 243.995406 79.691101 
L 244.240059 78.305431 
L 244.484712 75.016498 
L 244.729365 74.215378 
L 244.974018 75.647134 
L 245.218671 84.715184 
L 245.707977 116.300167 
L 245.95263 110.925918 
L 246.441936 85.877548 
L 246.686589 87.651257 
L 247.175895 98.195994 
L 247.420548 89.568013 
L 247.909854 94.225743 
L 248.154507 89.498233 
L 248.39916 91.844708 
L 248.643813 88.58578 
L 248.888466 82.175619 
L 249.133119 83.088906 
L 249.377772 79.544354 
L 249.622425 77.682323 
L 249.867078 77.352516 
L 250.111731 79.676045 
L 250.356384 76.172574 
L 250.601037 77.986723 
L 251.090343 71.403512 
L 251.334996 73.563229 
L 251.579649 85.367505 
L 251.824302 85.829559 
L 252.313608 76.453002 
L 252.558261 73.18214 
L 252.802914 68.125165 
L 253.047567 69.541887 
L 253.29222 69.20806 
L 254.026179 59.266093 
L 254.270832 61.084776 
L 254.515485 68.253371 
L 254.760138 64.057075 
L 255.004791 62.435353 
L 255.249444 57.202547 
L 255.494097 57.102057 
L 255.73875 59.022427 
L 256.472709 43.090909 
L 256.717362 46.854834 
L 256.962015 42.7907 
L 257.206668 48.711112 
L 257.451321 46.902908 
L 257.695974 49.373655 
L 257.940627 46.712856 
L 258.18528 51.283974 
L 258.429933 50.194172 
L 258.674586 51.3313 
L 258.919239 54.843026 
L 259.163892 50.335252 
L 259.408545 51.727316 
L 259.897851 63.104332 
L 260.142504 58.594975 
L 260.387157 59.137759 
L 260.63181 52.743082 
L 260.876463 54.039682 
L 261.365769 47.737091 
L 261.610422 50.816317 
L 261.855075 49.6667 
L 262.099728 49.701109 
L 262.344381 53.790563 
L 262.589034 54.222506 
L 262.833687 55.031133 
L 263.07834 64.229784 
L 263.322993 52.734913 
L 263.812299 50.410229 
L 264.056952 55.444492 
L 264.301606 51.914503 
L 264.546259 62.890307 
L 264.790912 62.750638 
L 265.035565 62.377163 
L 265.280218 60.59306 
L 265.769524 69.743124 
L 266.25883 62.347822 
L 266.503483 60.427623 
L 266.748136 60.220376 
L 266.992789 60.921947 
L 267.237442 55.925408 
L 267.482095 57.378592 
L 267.726748 61.587954 
L 267.971401 71.149752 
L 268.216054 69.472385 
L 268.460707 72.226574 
L 268.70536 80.254137 
L 268.950013 80.822648 
L 269.439319 65.890835 
L 269.683972 73.671268 
L 269.928625 68.198239 
L 270.173278 73.245056 
L 270.417931 70.356181 
L 270.662584 79.217605 
L 270.907237 68.734693 
L 271.15189 67.082689 
L 271.396543 75.54968 
L 271.641196 71.45781 
L 271.885849 75.775339 
L 272.375155 58.885796 
L 272.619808 55.187482 
L 272.864461 58.681501 
L 273.353767 71.731522 
L 273.59842 92.03166 
L 273.843073 94.60048 
L 274.087726 93.346715 
L 274.332379 89.812278 
L 274.577032 90.807728 
L 275.310991 76.398939 
L 275.555644 79.641208 
L 275.800297 76.122211 
L 276.04495 69.610107 
L 276.534256 73.233294 
L 276.778909 69.798812 
L 277.023562 72.306641 
L 277.268215 71.003005 
L 277.512868 71.516513 
L 277.757521 62.551219 
L 278.002174 64.448558 
L 279.225439 78.226625 
L 279.470092 76.27454 
L 279.714745 75.430478 
L 279.959398 70.129859 
L 280.448704 64.284467 
L 280.693357 65.153272 
L 280.93801 64.100146 
L 281.182663 67.329327 
L 281.427316 66.017458 
L 281.916622 71.38604 
L 282.650581 62.473889 
L 282.895234 63.867985 
L 283.139887 57.582011 
L 283.38454 60.563249 
L 283.629193 61.435818 
L 283.873846 57.414113 
L 284.118499 55.248323 
L 284.607805 56.781489 
L 284.852458 64.168772 
L 285.097111 60.791603 
L 285.341764 61.004196 
L 285.83107 57.025048 
L 286.320376 56.951375 
L 286.56503 59.162844 
L 286.809683 74.665135 
L 287.054336 74.333896 
L 287.298989 75.023919 
L 287.543642 80.010984 
L 288.032948 83.247159 
L 288.277601 77.227967 
L 288.522254 84.684625 
L 288.766907 81.874619 
L 289.01156 83.200603 
L 289.256213 83.261851 
L 289.500866 81.321463 
L 289.745519 77.158272 
L 289.990172 83.219294 
L 290.234825 83.75641 
L 290.724131 87.854953 
L 290.968784 91.356051 
L 291.213437 91.970562 
L 291.45809 93.492671 
L 291.702743 92.693261 
L 291.947396 92.717791 
L 292.192049 88.214657 
L 292.436702 89.632469 
L 292.681355 89.253562 
L 292.926008 89.652593 
L 293.415314 91.727773 
L 293.659967 92.743859 
L 293.90462 92.727671 
L 294.149273 87.323076 
L 294.393926 88.714734 
L 294.638579 89.134445 
L 294.883232 86.995536 
L 295.127885 90.954389 
L 295.372538 90.205236 
L 295.617191 87.167283 
L 295.861844 88.425175 
L 296.106497 87.62645 
L 296.35115 88.196351 
L 296.595803 88.034056 
L 296.840456 85.56115 
L 297.085109 86.671162 
L 297.329762 83.865925 
L 297.819068 97.177726 
L 298.063721 91.220895 
L 298.308374 81.210323 
L 298.553027 78.910147 
L 299.042333 80.355354 
L 299.286986 80.299944 
L 299.531639 79.448761 
L 299.776292 81.473129 
L 300.020945 82.359385 
L 300.265598 76.393507 
L 300.510251 81.230532 
L 300.754904 75.680196 
L 300.999557 76.41145 
L 301.24421 79.028195 
L 301.488863 79.946678 
L 301.733516 75.91272 
L 301.978169 76.248984 
L 302.222822 73.66853 
L 302.467475 73.787134 
L 302.712128 72.019456 
L 302.956781 74.348353 
L 303.201434 72.353582 
L 303.446087 73.058682 
L 303.69074 75.602673 
L 304.424699 87.553183 
L 304.669352 85.18853 
L 304.914005 88.069257 
L 305.158658 88.730174 
L 305.403311 86.602857 
L 305.647964 87.47966 
L 305.892617 87.331844 
L 306.13727 88.690205 
L 306.381923 87.942356 
L 306.626576 85.53337 
L 306.871229 86.851933 
L 307.115882 90.106841 
L 307.605188 82.269844 
L 307.849841 79.009097 
L 308.094494 77.333312 
L 308.339147 77.508716 
L 308.828453 82.245871 
L 309.073107 83.255093 
L 309.31776 82.784378 
L 309.807066 84.474021 
L 310.051719 82.842011 
L 310.541025 93.436662 
L 310.785678 92.063246 
L 311.030331 95.543536 
L 311.274984 96.298741 
L 311.519637 95.114864 
L 311.76429 97.108972 
L 312.008943 101.022231 
L 312.253596 99.946564 
L 312.742902 93.791041 
L 312.987555 93.599919 
L 313.232208 95.457759 
L 313.476861 94.763822 
L 313.721514 95.905335 
L 313.966167 98.559269 
L 314.21082 95.147648 
L 314.455473 96.321324 
L 314.700126 98.353904 
L 315.189432 100.514177 
L 315.434085 98.929451 
L 315.923391 101.783104 
L 316.168044 100.738596 
L 316.412697 101.766359 
L 316.65735 101.345579 
L 316.902003 102.936977 
L 317.146656 103.749795 
L 317.635962 98.467974 
L 317.880615 98.197662 
L 318.125268 95.380172 
L 318.369921 97.619378 
L 319.10388 98.719788 
L 319.348533 100.731047 
L 319.593186 103.839379 
L 319.837839 101.493353 
L 320.082492 108.467383 
L 320.327145 103.794683 
L 320.571798 93.129076 
L 320.816451 93.567242 
L 321.061104 93.150226 
L 321.305757 98.560188 
L 321.795063 94.998356 
L 322.039716 92.793602 
L 322.529022 85.679604 
L 322.773675 86.020958 
L 323.018328 84.085661 
L 323.262981 78.558142 
L 323.507634 75.890799 
L 323.752287 76.371245 
L 323.99694 75.439331 
L 324.241593 72.338505 
L 324.486246 73.472319 
L 324.730899 71.417797 
L 324.975552 77.735637 
L 325.220205 76.252684 
L 325.464858 77.27076 
L 325.709511 69.942651 
L 325.954164 70.385436 
L 326.198817 69.905975 
L 326.44347 69.783971 
L 326.688123 66.480902 
L 326.932776 69.331904 
L 327.177429 74.510326 
L 327.422082 75.049325 
L 327.666735 75.01205 
L 327.911388 74.51486 
L 328.645347 78.395014 
L 328.89 79.283323 
L 329.134653 82.004151 
L 329.379306 82.366292 
L 329.623959 86.620756 
L 329.868612 87.781173 
L 330.602571 78.399013 
L 330.847224 72.782424 
L 331.091877 73.903385 
L 331.33653 72.894206 
L 331.581184 73.197217 
L 331.825837 74.064931 
L 332.07049 73.325144 
L 332.315143 70.893212 
L 332.559796 73.850884 
L 332.804449 75.041647 
L 333.049102 74.522366 
L 333.293755 70.944345 
L 333.538408 69.362827 
L 333.783061 70.944773 
L 334.027714 83.501945 
L 334.272367 84.61262 
L 334.51702 88.710008 
L 334.761673 96.489927 
L 335.006326 95.72343 
L 335.495632 87.067969 
L 335.740285 89.245307 
L 335.984938 89.513801 
L 336.474244 83.555259 
L 336.718897 83.994537 
L 336.96355 81.232564 
L 337.208203 79.806475 
L 337.452856 80.215664 
L 337.697509 77.046213 
L 337.942162 75.793667 
L 338.186815 75.638836 
L 338.431468 75.129499 
L 338.676121 76.109786 
L 338.920774 79.776557 
L 339.165427 79.627736 
L 339.41008 78.521231 
L 339.899386 78.566953 
L 340.633345 85.944634 
L 341.122651 92.682419 
L 341.367304 92.318481 
L 341.611957 94.291867 
L 342.101263 91.507759 
L 342.345916 86.302776 
L 342.590569 85.797694 
L 342.835222 87.189117 
L 343.079875 85.844165 
L 343.324528 85.538139 
L 343.569181 80.273427 
L 343.813834 78.053895 
L 344.058487 77.310088 
L 344.30314 76.121292 
L 344.547793 72.762343 
L 344.792446 71.380373 
L 345.037099 71.151378 
L 345.526405 71.888235 
L 345.771058 73.455296 
L 346.015711 72.937554 
L 346.505017 73.552023 
L 346.74967 75.259971 
L 346.994323 75.745336 
L 347.238976 72.756356 
L 347.483629 71.328364 
L 347.728282 67.626307 
L 347.972935 61.915173 
L 348.462241 56.153912 
L 348.706894 56.806061 
L 348.951547 53.576794 
L 349.1962 55.246099 
L 349.440853 61.792378 
L 349.930159 59.731847 
L 350.174812 59.432515 
L 350.664118 56.951375 
L 350.908771 56.853216 
L 351.153424 56.628562 
L 351.887383 62.209971 
L 352.132036 59.388354 
L 352.621342 63.362326 
L 352.865995 63.217333 
L 353.110648 54.627803 
L 353.355301 55.607257 
L 353.599954 55.812429 
L 354.333914 43.876546 
L 354.578567 44.01876 
L 354.82322 42.046594 
L 355.067873 41.423978 
L 355.312526 36.855575 
L 355.557179 38.709073 
L 355.801832 38.813734 
L 356.046485 42.401678 
L 356.291138 49.307574 
L 356.535791 49.970993 
L 356.780444 54.502506 
L 357.025097 56.908305 
L 357.26975 60.482006 
L 357.514403 62.168933 
L 357.759056 61.196387 
L 358.003709 57.382548 
L 358.248362 62.979655 
L 358.493015 62.558512 
L 358.737668 64.953297 
L 358.982321 63.399558 
L 359.226974 64.2041 
L 359.471627 67.914134 
L 359.71628 66.743387 
L 359.960933 71.01821 
L 360.450239 72.643697 
L 360.694892 73.088899 
L 360.939545 75.065 
L 361.184198 72.753019 
L 361.428851 73.907876 
L 361.673504 73.544965 
L 361.918157 70.181376 
L 362.16281 70.968682 
L 362.407463 69.061955 
L 362.652116 71.291174 
L 363.141422 72.612474 
L 363.630728 73.390284 
L 363.875381 73.181905 
L 364.120034 70.359667 
L 364.364687 73.47018 
L 364.60934 65.809378 
L 364.853993 96.041645 
L 365.343299 91.997486 
L 365.587952 86.824688 
L 365.832605 85.739419 
L 366.077258 87.72632 
L 366.321911 87.588255 
L 366.811217 97.858254 
L 367.05587 101.43497 
L 367.545176 100.37823 
L 367.789829 100.529296 
L 368.034482 98.496716 
L 368.523788 102.413825 
L 368.768441 99.990426 
L 369.013094 93.103948 
L 369.257747 94.834266 
L 369.5024 95.731535 
L 369.991706 92.858571 
L 370.236359 94.826375 
L 370.725665 91.028297 
L 370.970318 90.709184 
L 371.214971 89.775645 
L 371.704277 98.804261 
L 371.94893 98.98747 
L 372.193583 96.152465 
L 372.438236 98.385576 
L 372.682889 94.419131 
L 373.172195 92.398335 
L 373.416848 91.917654 
L 373.661501 92.49288 
L 373.906154 89.597311 
L 374.150807 90.2797 
L 374.39546 89.709114 
L 374.640113 90.332458 
L 374.884766 89.240901 
L 375.129419 89.967472 
L 375.374072 92.505262 
L 375.618725 96.958782 
L 375.863378 96.68601 
L 376.108031 95.749948 
L 376.352684 96.015213 
L 376.841991 89.390471 
L 377.086644 90.488015 
L 377.331297 88.102362 
L 377.57595 86.869555 
L 377.820603 84.978396 
L 378.065256 86.375658 
L 378.554562 93.074179 
L 378.799215 89.396866 
L 379.043868 88.15405 
L 379.288521 92.69818 
L 379.533174 94.576421 
L 379.777827 94.384359 
L 380.02248 94.91012 
L 380.267133 90.996519 
L 380.511786 90.921092 
L 380.756439 89.232219 
L 381.001092 91.063797 
L 381.245745 89.81525 
L 381.490398 90.953555 
L 381.490398 90.953555 
" style="fill:none;stroke:#1f77b4;stroke-linecap:square;stroke-width:1.5;"/>
   </g>
   <g id="line2d_26">
    <path clip-path="url(#pc23ecde7eb)" d="M 56.835852 264.991671 
L 57.325158 273.681075 
L 57.569811 275.418956 
L 57.814464 273.344711 
L 58.059117 274.521985 
L 58.30377 269.364403 
L 58.548423 269.476524 
L 58.793076 269.98107 
L 59.527035 266.281066 
L 59.771688 261.57197 
L 60.016341 260.731059 
L 60.505647 261.740152 
L 60.994953 261.515909 
L 61.239606 262.132576 
L 61.728912 258.656815 
L 61.973566 258.040147 
L 62.218219 258.544693 
L 62.462872 257.031055 
L 62.952178 257.647723 
L 63.196831 256.806812 
L 63.441484 253.891657 
L 63.686137 252.938626 
L 63.93079 253.947718 
L 64.175443 254.228021 
L 64.664749 251.424988 
L 65.154055 257.199237 
L 65.398708 258.376511 
L 65.888014 252.938626 
L 66.132667 253.218929 
L 66.37732 252.994687 
L 66.866626 255.965902 
L 67.111279 253.331051 
L 67.355932 254.228021 
L 67.845238 258.208329 
L 68.089891 257.647723 
L 68.579197 259.778028 
L 68.82385 259.721967 
L 69.068503 263.646214 
L 69.313156 264.767428 
L 69.557809 264.206821 
L 69.802462 264.15076 
L 70.047115 262.749244 
L 70.291768 259.161361 
L 70.536421 260.731059 
L 70.781074 263.534093 
L 71.025727 268.355311 
L 71.515033 270.317434 
L 71.759686 269.532585 
L 72.004339 266.785612 
L 72.248992 267.850765 
L 72.493645 267.738644 
L 72.738298 265.720459 
L 72.982951 253.891657 
L 73.227604 253.443172 
L 73.472257 251.424988 
L 73.71691 251.200745 
L 73.961563 253.835597 
L 74.206216 253.555293 
L 74.695522 255.349235 
L 74.940175 259.497725 
L 75.184828 260.674999 
L 75.429481 259.721967 
L 75.674134 256.974994 
L 76.16344 254.844689 
L 76.408093 252.938626 
L 76.652746 253.723475 
L 76.897399 255.629538 
L 77.142052 252.43408 
L 77.386705 251.200745 
L 77.631358 251.032563 
L 77.876011 251.256806 
L 78.120664 253.106808 
L 78.365317 254.059839 
L 78.60997 245.874981 
L 78.854623 246.043163 
L 79.099276 247.949226 
L 79.343929 247.332559 
L 79.588582 246.155285 
L 79.833235 247.332559 
L 80.077888 246.828013 
L 80.322541 243.408312 
L 80.567194 244.08104 
L 81.0565 244.417404 
L 81.301153 246.155285 
L 81.545806 245.931042 
L 81.790459 247.44468 
L 82.035112 247.164377 
L 82.279765 248.846197 
L 83.013724 241.221945 
L 83.258377 240.324975 
L 83.50303 240.212853 
L 83.747683 240.493157 
L 83.992336 243.24013 
L 84.236989 243.520433 
L 84.481643 242.231038 
L 84.970949 243.688615 
L 85.215602 244.024979 
L 85.460255 243.632554 
L 85.949561 242.231038 
L 86.194214 243.744676 
L 86.438867 243.408312 
L 86.68352 237.129516 
L 86.928173 239.371943 
L 87.172826 240.549217 
L 87.417479 239.428004 
L 87.662132 239.09164 
L 87.906785 237.017395 
L 88.151438 239.147701 
L 88.396091 238.867397 
L 88.885397 239.820429 
L 89.13005 238.418912 
L 89.374703 239.035579 
L 89.619356 238.699215 
L 90.108662 240.717399 
L 90.353315 244.08104 
L 90.597968 243.744676 
L 90.842621 246.940134 
L 91.087274 246.828013 
L 91.331927 244.529525 
L 91.57658 247.220437 
L 91.821233 247.052255 
L 92.065886 243.408312 
L 92.310539 242.623462 
L 92.555192 242.623462 
L 93.778457 231.915874 
L 94.02311 232.140117 
L 94.267763 233.037087 
L 94.512416 232.196177 
L 94.757069 234.718907 
L 95.001722 234.774968 
L 95.246375 236.849213 
L 95.491028 237.129516 
L 95.735681 235.447696 
L 95.980334 236.512849 
L 96.224987 235.559818 
L 96.46964 237.521941 
L 96.714293 236.512849 
L 96.958946 236.905274 
L 97.203599 236.737092 
L 97.448252 237.017395 
L 97.692905 233.093148 
L 97.937558 234.662847 
L 98.182211 233.541633 
L 98.426864 234.382543 
L 98.671517 233.485573 
L 98.91617 235.503757 
L 99.160823 234.382543 
L 99.650129 230.7386 
L 99.894782 234.606786 
L 100.139435 232.252238 
L 100.628741 234.606786 
L 100.873394 232.700723 
L 101.118047 232.027995 
L 101.607353 228.720416 
L 101.852006 226.814353 
L 102.096659 228.215869 
L 102.341312 226.59011 
L 102.585965 225.861321 
L 102.830618 227.823445 
L 103.075271 227.150717 
L 103.319924 223.002227 
L 103.564577 221.264346 
L 103.80923 222.105256 
L 104.053883 221.488589 
L 104.298536 221.60071 
L 104.543189 219.526465 
L 104.787842 220.311315 
L 105.277148 216.835553 
L 105.521801 218.29313 
L 105.766454 216.667371 
L 106.011107 217.508281 
L 106.25576 216.331007 
L 106.500413 216.55525 
L 106.745066 218.349191 
L 106.98972 218.797677 
L 107.234373 216.274946 
L 107.479026 218.012827 
L 107.723679 218.517373 
L 107.968332 219.414344 
L 108.212985 218.517373 
L 108.457638 218.909798 
L 108.702291 221.656771 
L 108.946944 219.750708 
L 109.191597 214.08858 
L 109.43625 211.117364 
L 109.925556 215.71434 
L 110.170209 211.509789 
L 110.414862 212.518881 
L 110.659515 211.285546 
L 110.904168 208.314331 
L 111.148821 210.276454 
L 111.393474 213.584034 
L 111.88278 216.947674 
L 112.127433 214.92949 
L 112.372086 211.958274 
L 112.861392 212.743124 
L 113.350698 209.155241 
L 114.084657 204.95069 
L 114.32931 205.455236 
L 114.573963 205.511297 
L 114.818616 202.035535 
L 115.063269 200.970383 
L 115.307922 201.138565 
L 115.552575 201.530989 
L 115.797228 205.230994 
L 116.531187 202.932506 
L 117.020493 209.715848 
L 117.265146 205.287054 
L 117.509799 190.76734 
L 117.999105 194.747648 
L 118.243758 196.59765 
L 118.488411 190.430976 
L 118.733064 188.300671 
L 118.977717 189.08552 
L 119.22237 192.337039 
L 119.467023 194.07492 
L 119.711676 191.944614 
L 119.956329 192.337039 
L 120.200982 191.944614 
L 120.445635 192.785525 
L 120.934941 198.111288 
L 121.179594 198.22341 
L 121.424247 199.344623 
L 121.6689 198.335531 
L 121.913553 198.167349 
L 122.158206 194.859769 
L 122.402859 194.691587 
L 122.647512 194.91583 
L 122.892165 199.737048 
L 123.136818 197.494621 
L 123.381471 196.877954 
L 123.626124 198.727956 
L 123.870777 195.700679 
L 124.11543 194.187041 
L 124.360083 194.467345 
L 124.604736 195.812801 
L 124.849389 193.346131 
L 125.338695 185.049152 
L 125.583348 184.264302 
L 125.828001 184.600666 
L 126.072654 185.497637 
L 126.317307 183.25521 
L 126.56196 179.667327 
L 126.806613 182.4143 
L 127.051266 183.030968 
L 127.295919 185.161273 
L 127.540572 181.853693 
L 127.785225 182.4143 
L 128.029878 180.059752 
L 128.274531 179.667327 
L 128.519184 180.676419 
L 128.763837 180.115813 
L 129.00849 180.059752 
L 129.253143 180.900662 
L 129.497797 179.443085 
L 129.74245 180.956723 
L 129.987103 184.656727 
L 130.231756 185.441576 
L 130.476409 180.227934 
L 130.721062 178.26581 
L 130.965715 177.480961 
L 131.210368 181.405208 
L 131.455021 177.649143 
L 131.944327 174.06126 
L 132.18898 173.668835 
L 132.433633 169.632467 
L 132.922939 174.846109 
L 133.167592 172.267318 
L 133.412245 175.799141 
L 133.901551 169.85671 
L 134.146204 169.240042 
L 134.390857 171.090044 
L 134.63551 171.090044 
L 134.880163 166.605191 
L 135.124816 169.015799 
L 135.369469 174.790049 
L 135.614122 168.791557 
L 135.858775 169.408224 
L 136.103428 170.417316 
L 136.348081 168.062768 
L 136.592734 168.959739 
L 136.837387 168.847617 
L 137.326693 172.37944 
L 137.571346 173.052168 
L 137.815999 167.838525 
L 138.060652 168.399132 
L 138.305305 170.193074 
L 138.549958 167.894586 
L 138.794611 167.614283 
L 139.039264 168.062768 
L 139.52857 170.641559 
L 139.773223 173.556714 
L 140.262529 172.323379 
L 140.507182 172.883986 
L 140.751835 179.499145 
L 140.996488 182.246118 
L 141.241141 182.021875 
L 141.485794 182.4143 
L 141.730447 182.077936 
L 141.9751 183.087028 
L 142.219753 178.658235 
L 142.464406 180.115813 
L 143.198365 176.191566 
L 143.443018 175.294595 
L 143.687671 176.191566 
L 143.932324 176.247626 
L 144.176977 176.640051 
L 144.42163 180.059752 
L 144.666283 180.676419 
L 144.910936 182.862786 
L 145.400242 177.649143 
L 145.644895 178.882478 
L 145.889548 178.658235 
L 146.134201 185.834001 
L 146.378854 184.88097 
L 146.623507 182.862786 
L 146.86816 185.329455 
L 147.112813 186.450669 
L 147.357466 189.92643 
L 147.602119 190.094612 
L 147.846772 190.655219 
L 148.091425 186.226426 
L 148.336078 188.412792 
L 148.580731 189.253702 
L 148.825384 195.812801 
L 149.070037 194.859769 
L 149.31469 197.046136 
L 149.559343 203.100688 
L 149.803996 198.335531 
L 150.048649 198.840077 
L 150.537955 188.861277 
L 150.782608 186.730972 
L 151.027261 187.571882 
L 151.271914 189.253702 
L 151.516567 187.067336 
L 151.76122 186.058244 
L 152.250527 190.879462 
L 152.49518 190.262794 
L 152.739833 193.009767 
L 152.984486 193.009767 
L 153.229139 198.671895 
L 153.473792 195.196133 
L 153.718445 194.07492 
L 153.963098 197.494621 
L 154.207751 198.896138 
L 154.452404 195.532497 
L 154.697057 196.54159 
L 154.94171 192.673403 
L 155.431016 190.206734 
L 155.675669 186.058244 
L 155.920322 184.432484 
L 156.164975 187.740064 
L 156.409628 188.24461 
L 156.654281 188.468853 
L 156.898934 187.291579 
L 157.38824 180.676419 
L 157.632893 181.405208 
L 158.366852 190.262794 
L 158.611505 190.655219 
L 158.856158 189.814309 
L 159.100811 190.71128 
L 159.345464 188.917338 
L 159.590117 189.87037 
L 159.83477 191.496129 
L 160.324076 198.952198 
L 160.813382 193.23401 
L 161.302688 203.717356 
L 161.547341 202.091596 
L 161.791994 203.26887 
L 162.036647 197.943106 
L 162.2813 199.737048 
L 162.525953 198.840077 
L 162.770606 196.990075 
L 163.015259 199.06432 
L 163.259912 197.102196 
L 163.504565 196.093104 
L 163.993871 198.391592 
L 164.238524 198.447652 
L 164.483177 197.046136 
L 164.72783 198.503713 
L 164.972483 197.606742 
L 165.217136 201.362807 
L 165.461789 200.914322 
L 165.706442 201.362807 
L 166.195748 196.934014 
L 166.440401 196.934014 
L 166.685054 199.680987 
L 166.929707 200.634019 
L 167.17436 197.550682 
L 167.419013 197.326439 
L 167.663666 199.512805 
L 167.908319 199.06432 
L 168.642278 189.92643 
L 168.886931 191.047644 
L 169.131584 191.496129 
L 169.376237 191.103704 
L 169.865543 188.468853 
L 170.110196 187.067336 
L 170.354849 186.955215 
L 170.599502 185.273394 
L 170.844155 185.665819 
L 171.088808 187.291579 
L 171.333461 186.730972 
L 171.578114 189.08552 
L 172.06742 185.890062 
L 172.556726 184.600666 
L 172.801379 179.89157 
L 173.046032 181.685511 
L 173.290685 181.293087 
L 173.779991 177.4249 
L 174.024644 177.593082 
L 174.269298 177.929446 
L 174.513951 179.499145 
L 174.758604 177.537022 
L 175.003257 177.256718 
L 175.24791 174.790049 
L 175.492563 175.855201 
L 175.737216 176.191566 
L 175.981869 173.668835 
L 176.226522 175.406716 
L 176.471175 176.079444 
L 176.715828 176.191566 
L 176.960481 175.238534 
L 177.205134 175.687019 
L 177.449787 179.89157 
L 177.69444 177.929446 
L 177.939093 178.882478 
L 178.183746 175.687019 
L 178.428399 174.565806 
L 178.673052 170.865802 
L 178.917705 175.687019 
L 179.162358 176.752172 
L 179.651664 175.238534 
L 180.14097 180.620359 
L 180.385623 179.05066 
L 180.630276 181.124905 
L 180.874929 180.227934 
L 181.119582 181.405208 
L 181.364235 178.826417 
L 181.608888 178.097628 
L 181.853541 178.26581 
L 182.342847 181.629451 
L 182.5875 180.844601 
L 183.076806 177.4249 
L 183.321459 177.649143 
L 183.566112 179.274902 
L 183.810765 179.779449 
L 184.055418 177.873386 
L 184.300071 178.321871 
L 184.544724 177.985507 
L 184.789377 178.26581 
L 185.03403 178.26581 
L 185.278683 179.218842 
L 185.523336 181.124905 
L 185.767989 180.115813 
L 186.012642 177.873386 
L 186.257295 178.658235 
L 186.501948 180.227934 
L 186.746601 180.003691 
L 187.235907 184.88097 
L 187.48056 186.394608 
L 187.969866 185.217334 
L 188.459172 183.19915 
L 188.703825 187.291579 
L 188.948478 189.08552 
L 189.193131 185.273394 
L 189.437784 188.637035 
L 189.682437 185.665819 
L 189.92709 185.441576 
L 190.171743 184.88097 
L 190.416396 187.291579 
L 190.661049 187.684003 
L 190.905702 183.647635 
L 191.395008 188.861277 
L 191.639661 185.441576 
L 191.884314 187.627943 
L 192.128967 187.684003 
L 192.37362 194.07492 
L 192.618273 192.505221 
L 192.862926 193.514313 
L 193.107579 192.785525 
L 193.596885 187.011275 
L 193.841538 187.964307 
L 194.330844 186.618851 
L 194.575497 183.871878 
L 194.82015 183.479453 
L 195.064803 180.452177 
L 195.309456 181.853693 
L 195.554109 179.667327 
L 195.798762 184.600666 
L 196.288068 181.405208 
L 196.532721 181.517329 
L 196.777375 179.274902 
L 197.022028 178.321871 
L 197.266681 178.714296 
L 198.00064 178.041568 
L 198.245293 177.4249 
L 198.734599 178.994599 
L 199.223905 177.200658 
L 199.468558 172.827925 
L 199.713211 170.69762 
L 199.957864 171.59459 
L 200.202517 172.996107 
L 200.44717 168.791557 
L 200.936476 171.090044 
L 201.181129 170.865802 
L 201.425782 168.455193 
L 201.670435 162.176397 
L 201.915088 161.503669 
L 202.159741 163.633975 
L 202.404394 164.699128 
L 202.649047 163.409732 
L 202.8937 163.073368 
L 203.383006 174.621867 
L 203.627659 170.921862 
L 203.872312 172.043076 
L 204.116965 173.724896 
L 204.606271 168.118829 
L 204.850924 168.623375 
L 205.34023 165.483977 
L 205.584883 167.109737 
L 205.829536 166.437009 
L 206.074189 168.118829 
L 206.318842 172.491561 
L 206.563495 174.285503 
L 207.052801 165.203674 
L 207.297454 172.715804 
L 207.78676 169.688528 
L 208.031413 170.977923 
L 208.276066 173.332471 
L 208.765372 168.735496 
L 209.010025 168.511253 
L 209.254678 164.474885 
L 209.499331 149.114261 
L 209.743984 149.394564 
L 209.988637 148.777897 
L 210.23329 150.964263 
L 210.477943 146.815773 
L 210.722596 151.020324 
L 211.456555 147.768805 
L 211.701208 145.133953 
L 211.945861 146.927895 
L 212.190514 147.432441 
L 212.435167 140.817281 
L 212.67982 141.882434 
L 212.924473 139.02334 
L 213.169126 139.696068 
L 213.413779 138.406672 
L 213.658432 135.71576 
L 213.903085 135.211214 
L 214.147738 134.258183 
L 214.392391 134.090001 
L 214.637044 134.426365 
L 214.881697 132.183938 
L 215.12635 131.399088 
L 215.371003 134.370304 
L 215.615656 132.296059 
L 215.860309 132.912726 
L 216.104962 135.547578 
L 216.349615 133.977879 
L 216.594268 137.902126 
L 216.838921 135.603639 
L 217.328227 140.144553 
L 217.57288 134.650607 
L 217.817533 134.87485 
L 218.062186 132.800605 
L 218.306839 131.847574 
L 218.796145 122.37332 
L 219.040798 123.21423 
L 219.285452 123.438473 
L 219.530105 121.924835 
L 219.774758 127.979387 
L 220.019411 129.88545 
L 220.264064 129.941511 
L 220.508717 127.36272 
L 220.998023 135.659699 
L 221.242676 131.791513 
L 221.487329 131.455149 
L 221.731982 132.744544 
L 222.221288 127.530902 
L 222.465941 126.353628 
L 222.710594 124.503626 
L 223.1999 126.52181 
L 223.444553 125.961203 
L 223.689206 129.436965 
L 224.178512 125.232414 
L 224.423165 125.400596 
L 224.667818 119.289983 
L 224.912471 105.779361 
L 225.157124 111.217246 
L 225.401777 112.674824 
L 225.64643 112.450581 
L 225.891083 118.449073 
L 226.135736 114.468765 
L 226.380389 113.571794 
L 226.625042 119.402104 
L 226.869695 122.093017 
L 227.359001 117.327859 
L 227.603654 118.897558 
L 227.848307 117.720284 
L 228.09296 118.393012 
L 228.337613 113.011188 
L 228.582266 111.609671 
L 229.071572 108.133909 
L 229.316225 110.320275 
L 229.560878 108.638455 
L 229.805531 107.797545 
L 230.050184 111.385428 
L 230.294837 107.180878 
L 231.028796 103.649055 
L 231.273449 106.396028 
L 231.518102 104.209662 
L 231.762755 106.452089 
L 232.007408 103.817237 
L 232.252061 107.517242 
L 232.496714 107.461181 
L 232.741367 101.014204 
L 232.98602 102.135417 
L 233.230673 101.350568 
L 233.475326 103.368752 
L 233.719979 99.444505 
L 233.964632 97.930867 
L 234.209285 93.053588 
L 234.453938 94.06268 
L 234.698591 94.230862 
L 234.943244 92.997528 
L 235.187897 95.296015 
L 235.43255 93.277831 
L 235.677203 90.194494 
L 235.921856 96.192986 
L 236.166509 95.800561 
L 236.655815 92.3248 
L 237.145121 91.53995 
L 237.389774 97.089957 
L 237.87908 90.474797 
L 238.123733 84.139941 
L 238.368386 83.859638 
L 238.613039 86.158126 
L 238.857692 83.915699 
L 239.102345 84.196002 
L 239.346998 81.280847 
L 239.591651 81.336908 
L 239.836304 78.589935 
L 240.080957 79.318724 
L 240.32561 75.226295 
L 240.570263 76.964175 
L 240.814916 76.067205 
L 241.059569 73.99296 
L 241.304222 70.909623 
L 241.548875 71.638411 
L 241.793529 70.180834 
L 242.282835 65.583859 
L 242.527488 75.562659 
L 242.772141 75.730841 
L 243.016794 80.944483 
L 243.261447 80.495998 
L 243.5061 80.327816 
L 243.750753 77.692964 
L 243.995406 76.291447 
L 244.240059 72.703564 
L 244.484712 72.199018 
L 244.729365 73.544474 
L 244.974018 83.523274 
L 245.463324 114.188462 
L 245.707977 109.983911 
L 246.197283 82.738425 
L 246.441936 84.532366 
L 246.931242 96.473289 
L 247.175895 86.606611 
L 247.665201 92.100557 
L 247.909854 86.886914 
L 248.154507 89.802069 
L 248.39916 85.989944 
L 248.643813 79.486906 
L 248.888466 80.832362 
L 249.377772 75.394477 
L 249.622425 75.282355 
L 249.867078 77.749025 
L 250.111731 73.824778 
L 250.356384 76.179326 
L 250.84569 69.171742 
L 251.090343 71.302047 
L 251.334996 83.747517 
L 251.579649 84.02782 
L 252.068955 74.161142 
L 252.313608 70.797501 
L 252.558261 65.415677 
L 252.802914 67.3778 
L 253.047567 66.873254 
L 253.781526 57.006576 
L 254.026179 59.136882 
L 254.270832 66.649012 
L 254.515485 61.771733 
L 254.760138 60.426277 
L 255.004791 54.595967 
L 255.249444 55.100513 
L 255.494097 57.062637 
L 256.228056 40.805042 
L 256.472709 44.84141 
L 256.717362 40.356556 
L 256.962015 46.018684 
L 257.206668 45.626259 
L 257.451321 47.476262 
L 257.695974 44.336864 
L 257.940627 49.04596 
L 258.18528 47.252019 
L 258.429933 48.9899 
L 258.674586 52.521722 
L 258.919239 47.812626 
L 259.163892 49.550507 
L 259.408545 54.03536 
L 259.653198 61.49143 
L 259.897851 56.221727 
L 260.142504 56.950515 
L 260.387157 49.942931 
L 260.63181 51.848994 
L 261.121116 45.233835 
L 261.365769 49.04596 
L 261.610422 47.756565 
L 261.855075 47.812626 
L 262.099728 52.241419 
L 262.344381 52.35354 
L 262.589034 53.19445 
L 262.833687 62.556583 
L 263.07834 50.223235 
L 263.322993 49.438385 
L 263.567646 47.924747 
L 263.812299 53.418693 
L 264.056952 49.550507 
L 264.301606 61.042944 
L 264.790912 60.145974 
L 265.035565 58.071729 
L 265.524871 67.770225 
L 265.769524 62.612643 
L 266.25883 58.127789 
L 266.503483 58.239911 
L 266.748136 58.9687 
L 266.992789 53.698996 
L 267.237442 55.436877 
L 267.482095 59.86567 
L 267.726748 69.788409 
L 267.971401 67.602043 
L 268.216054 70.517198 
L 268.460707 78.589935 
L 268.70536 78.926299 
L 269.194666 63.061129 
L 269.439319 71.974776 
L 269.683972 65.752041 
L 269.928625 71.245987 
L 270.173278 68.16265 
L 270.417931 77.300539 
L 270.662584 65.471738 
L 270.907237 64.686888 
L 271.15189 72.871746 
L 271.396543 67.826286 
L 271.641196 73.320232 
L 272.130502 55.717181 
L 272.375155 52.185358 
L 272.619808 56.109605 
L 273.109114 69.620227 
L 273.353767 90.923283 
L 273.59842 92.885406 
L 273.843073 91.315707 
L 274.087726 87.279339 
L 274.332379 88.512674 
L 275.066338 73.320232 
L 275.310991 77.076297 
L 275.555644 73.095989 
L 275.800297 66.368708 
L 276.289603 70.629319 
L 276.534256 67.041436 
L 276.778909 69.339924 
L 277.023562 69.227803 
L 277.268215 70.068713 
L 277.512868 59.80961 
L 278.980786 76.459629 
L 279.225439 73.936899 
L 279.470092 73.544474 
L 279.714745 67.602043 
L 280.204051 61.883854 
L 280.448704 62.556583 
L 280.693357 61.715672 
L 280.93801 65.079313 
L 281.182663 63.509614 
L 281.671969 69.227803 
L 282.405928 59.977792 
L 282.650581 61.715672 
L 282.895234 54.315664 
L 283.139887 58.632335 
L 283.38454 59.80961 
L 283.629193 55.380816 
L 283.873846 53.474754 
L 284.363152 54.988392 
L 284.607805 62.836886 
L 284.852458 58.856578 
L 285.097111 59.305064 
L 285.586417 55.044452 
L 286.075723 54.988392 
L 286.320376 56.445969 
L 286.56503 73.039928 
L 286.809683 72.535382 
L 287.054336 72.815686 
L 287.543642 80.103573 
L 287.788295 81.168726 
L 288.032948 74.83387 
L 288.277601 81.056604 
L 288.522254 80.271755 
L 288.766907 81.056604 
L 289.01156 80.72024 
L 289.256213 78.870238 
L 289.500866 74.105081 
L 289.745519 81.168726 
L 289.990172 80.776301 
L 290.724131 88.736917 
L 290.968784 89.185402 
L 291.213437 90.586919 
L 291.45809 90.194494 
L 291.702743 90.306615 
L 291.947396 85.597519 
L 292.192049 87.223278 
L 292.436702 86.438429 
L 292.681355 87.223278 
L 292.926008 88.680856 
L 293.170661 89.073281 
L 293.415314 90.194494 
L 293.659967 90.250555 
L 293.90462 84.756609 
L 294.149273 86.382368 
L 294.393926 86.830854 
L 294.638579 84.812669 
L 294.883232 88.792977 
L 295.127885 87.839946 
L 295.372538 84.86873 
L 295.617191 86.102065 
L 295.861844 85.092973 
L 296.106497 86.326308 
L 296.35115 85.933883 
L 296.595803 83.523274 
L 296.840456 84.644487 
L 297.085109 81.729333 
L 297.574415 95.408137 
L 297.819068 88.905099 
L 298.063721 78.309631 
L 298.308374 76.179326 
L 298.553027 76.908115 
L 298.79768 78.141449 
L 299.042333 78.253571 
L 299.286986 77.3566 
L 299.531639 79.599027 
L 299.776292 80.66418 
L 300.020945 74.161142 
L 300.265598 79.767209 
L 300.510251 73.544474 
L 300.754904 74.553566 
L 300.999557 77.300539 
L 301.24421 78.19751 
L 301.488863 73.824778 
L 301.733516 73.488414 
L 301.978169 71.806593 
L 302.222822 71.52629 
L 302.467475 69.508106 
L 302.712128 72.086897 
L 302.956781 70.068713 
L 303.201434 70.965683 
L 303.446087 73.320232 
L 303.935393 82.794485 
L 304.180046 85.70964 
L 304.424699 83.018728 
L 304.669352 86.046004 
L 304.914005 86.942975 
L 305.158658 84.588427 
L 305.403311 85.429337 
L 305.647964 85.429337 
L 305.892617 86.662672 
L 306.13727 85.989944 
L 306.381923 83.579335 
L 306.626576 85.092973 
L 306.871229 88.400553 
L 307.360535 80.215694 
L 307.605188 76.347508 
L 307.849841 75.226295 
L 308.094494 75.226295 
L 308.5838 80.215694 
L 308.828453 81.168726 
L 309.073107 80.72024 
L 309.562413 82.346 
L 309.807066 80.66418 
L 310.296372 91.708132 
L 310.541025 89.689948 
L 310.785678 93.782377 
L 311.030331 94.230862 
L 311.274984 93.053588 
L 311.519637 95.127833 
L 311.76429 99.220262 
L 312.008943 97.594503 
L 312.498249 91.48389 
L 312.742902 91.259647 
L 312.987555 93.446013 
L 313.232208 92.605103 
L 313.476861 93.782377 
L 313.721514 96.753593 
L 313.966167 92.885406 
L 314.700126 97.314199 
L 314.944779 98.491474 
L 315.189432 96.697532 
L 315.434085 97.594503 
L 315.678738 99.724808 
L 315.923391 98.379352 
L 316.168044 99.556626 
L 316.412697 98.827838 
L 316.65735 100.621779 
L 316.902003 101.462689 
L 317.391309 95.968743 
L 317.635962 95.744501 
L 317.880615 92.661164 
L 318.125268 95.520258 
L 318.859227 96.305107 
L 319.348533 102.079357 
L 319.593186 99.388444 
L 319.837839 106.171786 
L 320.082492 100.67784 
L 320.327145 90.923283 
L 320.571798 90.194494 
L 320.816451 90.418737 
L 321.061104 96.080865 
L 321.795063 90.362676 
L 322.039716 85.597519 
L 322.284369 83.299031 
L 322.529022 83.747517 
L 322.773675 81.897515 
L 323.018328 76.179326 
L 323.262981 73.544474 
L 323.507634 74.441445 
L 323.752287 73.544474 
L 323.99694 70.292955 
L 324.241593 71.414169 
L 324.486246 68.386892 
L 324.730899 75.67478 
L 324.975552 74.04902 
L 325.220205 74.385384 
L 325.464858 66.985376 
L 325.709511 67.602043 
L 325.954164 67.041436 
L 326.198817 66.929315 
L 326.44347 63.902039 
L 326.688123 67.041436 
L 326.932776 72.871746 
L 327.177429 73.15205 
L 327.422082 73.20811 
L 327.666735 72.927807 
L 328.400694 76.795993 
L 328.645347 77.636903 
L 328.89 80.495998 
L 329.134653 80.66418 
L 329.379306 85.149034 
L 329.623959 86.102065 
L 330.602571 70.124773 
L 330.847224 71.918715 
L 331.091877 70.68538 
L 331.33653 71.077805 
L 331.581184 72.086897 
L 331.825837 71.245987 
L 332.07049 68.723257 
L 332.315143 71.862654 
L 332.559796 73.15205 
L 332.804449 72.591443 
L 333.049102 68.779317 
L 333.293755 67.32174 
L 333.538408 68.667196 
L 333.783061 81.785393 
L 334.027714 83.018728 
L 334.272367 86.830854 
L 334.51702 94.230862 
L 334.761673 94.399044 
L 335.250979 83.971759 
L 335.495632 86.718732 
L 335.740285 86.830854 
L 336.229591 81.224786 
L 336.474244 81.841454 
L 336.96355 77.636903 
L 337.208203 78.365692 
L 337.452856 74.88993 
L 337.697509 73.824778 
L 337.942162 73.656596 
L 338.186815 73.264171 
L 338.431468 74.161142 
L 338.676121 78.085389 
L 338.920774 77.580843 
L 339.165427 76.067205 
L 339.654733 76.291447 
L 340.388692 83.915699 
L 340.877998 90.69904 
L 341.122651 90.138433 
L 341.367304 92.156618 
L 341.85661 89.185402 
L 342.101263 83.691456 
L 342.345916 83.523274 
L 342.590569 85.036912 
L 342.835222 83.074789 
L 343.079875 83.299031 
L 343.324528 77.917207 
L 343.569181 75.562659 
L 343.813834 74.88993 
L 344.058487 73.824778 
L 344.30314 70.349016 
L 344.547793 69.059621 
L 344.792446 68.779317 
L 345.281752 70.012652 
L 345.526405 71.694472 
L 345.771058 71.133865 
L 346.260364 71.918715 
L 346.505017 73.600535 
L 346.74967 73.99296 
L 346.994323 70.797501 
L 347.238976 69.283863 
L 347.483629 65.415677 
L 347.728282 59.585367 
L 348.217588 53.811118 
L 348.462241 54.652028 
L 348.706894 51.288387 
L 348.951547 52.745965 
L 349.1962 59.697488 
L 349.440853 59.02476 
L 349.685506 57.230819 
L 349.930159 56.726273 
L 350.174812 55.380816 
L 350.419465 54.708088 
L 350.664118 54.764149 
L 350.908771 54.539906 
L 351.64273 60.426277 
L 351.887383 57.511122 
L 352.132036 60.145974 
L 352.376689 61.54749 
L 352.621342 61.042944 
L 352.865995 52.409601 
L 353.355301 53.586875 
L 354.089261 41.53383 
L 354.333914 41.758073 
L 354.578567 39.79595 
L 354.82322 39.0111 
L 355.067873 34.414125 
L 355.312526 36.095945 
L 355.557179 36.712613 
L 355.801832 40.412617 
L 356.046485 47.476262 
L 356.291138 47.756565 
L 356.535791 52.802026 
L 356.780444 54.87627 
L 357.025097 58.520214 
L 357.26975 59.529306 
L 357.514403 59.249003 
L 357.759056 54.988392 
L 358.003709 60.818702 
L 358.248362 60.258095 
L 358.493015 62.780825 
L 358.737668 61.099005 
L 358.982321 62.052036 
L 359.226974 65.864162 
L 359.471627 64.630827 
L 359.71628 69.227803 
L 360.205586 69.84447 
L 360.694892 73.488414 
L 360.939545 71.021744 
L 361.184198 72.31114 
L 361.428851 71.806593 
L 361.673504 68.21871 
L 361.918157 69.115681 
L 362.16281 66.985376 
L 362.407463 69.395985 
L 362.896769 70.629319 
L 363.386075 71.358108 
L 363.630728 71.133865 
L 363.875381 68.16265 
L 364.120034 71.582351 
L 364.364687 62.836886 
L 364.60934 93.670256 
L 364.853993 93.782377 
L 365.343299 85.65358 
L 365.587952 84.252063 
L 365.832605 85.597519 
L 366.077258 84.532366 
L 366.566564 95.127833 
L 366.811217 98.883898 
L 367.05587 98.267231 
L 367.300523 98.042988 
L 367.545176 98.435413 
L 367.789829 96.473289 
L 368.279135 100.958143 
L 368.523788 98.435413 
L 368.768441 91.147525 
L 369.013094 93.22177 
L 369.257747 94.00662 
L 369.5024 91.652072 
L 369.747053 91.427829 
L 369.991706 93.109649 
L 370.481012 88.849038 
L 370.725665 88.456613 
L 370.970318 87.3354 
L 371.459624 96.641471 
L 371.704277 96.52935 
L 371.94893 93.558134 
L 372.193583 96.249047 
L 372.438236 92.044496 
L 372.927542 89.914191 
L 373.172195 89.802069 
L 373.416848 90.194494 
L 373.661501 87.223278 
L 373.906154 88.008128 
L 374.150807 87.559642 
L 374.39546 88.344492 
L 374.640113 87.3354 
L 374.884766 88.120249 
L 375.129419 90.867222 
L 375.374072 95.296015 
L 375.618725 94.735409 
L 375.863378 93.726316 
L 376.108031 94.06268 
L 376.597338 87.111157 
L 376.841991 87.952067 
L 377.331297 84.476305 
L 377.57595 82.626303 
L 377.820603 84.02782 
L 378.065256 88.568735 
L 378.309909 90.811161 
L 378.554562 86.886914 
L 378.799215 85.821762 
L 379.043868 90.474797 
L 379.288521 92.156618 
L 379.533174 92.100557 
L 379.777827 92.773285 
L 380.02248 88.568735 
L 380.267133 88.736917 
L 380.511786 87.111157 
L 380.756439 88.961159 
L 381.001092 87.3354 
L 381.245745 88.792977 
L 381.490398 82.289939 
L 381.490398 82.289939 
" style="fill:none;stroke:#ff7f0e;stroke-linecap:square;stroke-width:1.5;"/>
   </g>
   <g id="patch_3">
    <path d="M 40.603125 288.430125 
L 40.603125 22.318125 
" style="fill:none;stroke:#000000;stroke-linecap:square;stroke-linejoin:miter;stroke-width:0.8;"/>
   </g>
   <g id="patch_4">
    <path d="M 397.723125 288.430125 
L 397.723125 22.318125 
" style="fill:none;stroke:#000000;stroke-linecap:square;stroke-linejoin:miter;stroke-width:0.8;"/>
   </g>
   <g id="patch_5">
    <path d="M 40.603125 288.430125 
L 397.723125 288.430125 
" style="fill:none;stroke:#000000;stroke-linecap:square;stroke-linejoin:miter;stroke-width:0.8;"/>
   </g>
   <g id="patch_6">
    <path d="M 40.603125 22.318125 
L 397.723125 22.318125 
" style="fill:none;stroke:#000000;stroke-linecap:square;stroke-linejoin:miter;stroke-width:0.8;"/>
   </g>
   <g id="text_15">
    <!-- Training: SBUX -->
    <defs>
     <path d="M -0.296875 72.90625 
L 61.375 72.90625 
L 61.375 64.59375 
L 35.5 64.59375 
L 35.5 0 
L 25.59375 0 
L 25.59375 64.59375 
L -0.296875 64.59375 
z
" id="DejaVuSans-84"/>
     <path d="M 54.890625 33.015625 
L 54.890625 0 
L 45.90625 0 
L 45.90625 32.71875 
Q 45.90625 40.484375 42.875 44.328125 
Q 39.84375 48.1875 33.796875 48.1875 
Q 26.515625 48.1875 22.3125 43.546875 
Q 18.109375 38.921875 18.109375 30.90625 
L 18.109375 0 
L 9.078125 0 
L 9.078125 54.6875 
L 18.109375 54.6875 
L 18.109375 46.1875 
Q 21.34375 51.125 25.703125 53.5625 
Q 30.078125 56 35.796875 56 
Q 45.21875 56 50.046875 50.171875 
Q 54.890625 44.34375 54.890625 33.015625 
z
" id="DejaVuSans-110"/>
     <path d="M 45.40625 27.984375 
Q 45.40625 37.75 41.375 43.109375 
Q 37.359375 48.484375 30.078125 48.484375 
Q 22.859375 48.484375 18.828125 43.109375 
Q 14.796875 37.75 14.796875 27.984375 
Q 14.796875 18.265625 18.828125 12.890625 
Q 22.859375 7.515625 30.078125 7.515625 
Q 37.359375 7.515625 41.375 12.890625 
Q 45.40625 18.265625 45.40625 27.984375 
z
M 54.390625 6.78125 
Q 54.390625 -7.171875 48.1875 -13.984375 
Q 42 -20.796875 29.203125 -20.796875 
Q 24.46875 -20.796875 20.265625 -20.09375 
Q 16.0625 -19.390625 12.109375 -17.921875 
L 12.109375 -9.1875 
Q 16.0625 -11.328125 19.921875 -12.34375 
Q 23.78125 -13.375 27.78125 -13.375 
Q 36.625 -13.375 41.015625 -8.765625 
Q 45.40625 -4.15625 45.40625 5.171875 
L 45.40625 9.625 
Q 42.625 4.78125 38.28125 2.390625 
Q 33.9375 0 27.875 0 
Q 17.828125 0 11.671875 7.65625 
Q 5.515625 15.328125 5.515625 27.984375 
Q 5.515625 40.671875 11.671875 48.328125 
Q 17.828125 56 27.875 56 
Q 33.9375 56 38.28125 53.609375 
Q 42.625 51.21875 45.40625 46.390625 
L 45.40625 54.6875 
L 54.390625 54.6875 
z
" id="DejaVuSans-103"/>
     <path d="M 11.71875 12.40625 
L 22.015625 12.40625 
L 22.015625 0 
L 11.71875 0 
z
M 11.71875 51.703125 
L 22.015625 51.703125 
L 22.015625 39.3125 
L 11.71875 39.3125 
z
" id="DejaVuSans-58"/>
     <path d="M 53.515625 70.515625 
L 53.515625 60.890625 
Q 47.90625 63.578125 42.921875 64.890625 
Q 37.9375 66.21875 33.296875 66.21875 
Q 25.25 66.21875 20.875 63.09375 
Q 16.5 59.96875 16.5 54.203125 
Q 16.5 49.359375 19.40625 46.890625 
Q 22.3125 44.4375 30.421875 42.921875 
L 36.375 41.703125 
Q 47.40625 39.59375 52.65625 34.296875 
Q 57.90625 29 57.90625 20.125 
Q 57.90625 9.515625 50.796875 4.046875 
Q 43.703125 -1.421875 29.984375 -1.421875 
Q 24.8125 -1.421875 18.96875 -0.25 
Q 13.140625 0.921875 6.890625 3.21875 
L 6.890625 13.375 
Q 12.890625 10.015625 18.65625 8.296875 
Q 24.421875 6.59375 29.984375 6.59375 
Q 38.421875 6.59375 43.015625 9.90625 
Q 47.609375 13.234375 47.609375 19.390625 
Q 47.609375 24.75 44.3125 27.78125 
Q 41.015625 30.8125 33.5 32.328125 
L 27.484375 33.5 
Q 16.453125 35.6875 11.515625 40.375 
Q 6.59375 45.0625 6.59375 53.421875 
Q 6.59375 63.09375 13.40625 68.65625 
Q 20.21875 74.21875 32.171875 74.21875 
Q 37.3125 74.21875 42.625 73.28125 
Q 47.953125 72.359375 53.515625 70.515625 
z
" id="DejaVuSans-83"/>
     <path d="M 19.671875 34.8125 
L 19.671875 8.109375 
L 35.5 8.109375 
Q 43.453125 8.109375 47.28125 11.40625 
Q 51.125 14.703125 51.125 21.484375 
Q 51.125 28.328125 47.28125 31.5625 
Q 43.453125 34.8125 35.5 34.8125 
z
M 19.671875 64.796875 
L 19.671875 42.828125 
L 34.28125 42.828125 
Q 41.5 42.828125 45.03125 45.53125 
Q 48.578125 48.25 48.578125 53.8125 
Q 48.578125 59.328125 45.03125 62.0625 
Q 41.5 64.796875 34.28125 64.796875 
z
M 9.8125 72.90625 
L 35.015625 72.90625 
Q 46.296875 72.90625 52.390625 68.21875 
Q 58.5 63.53125 58.5 54.890625 
Q 58.5 48.1875 55.375 44.234375 
Q 52.25 40.28125 46.1875 39.3125 
Q 53.46875 37.75 57.5 32.78125 
Q 61.53125 27.828125 61.53125 20.40625 
Q 61.53125 10.640625 54.890625 5.3125 
Q 48.25 0 35.984375 0 
L 9.8125 0 
z
" id="DejaVuSans-66"/>
     <path d="M 8.6875 72.90625 
L 18.609375 72.90625 
L 18.609375 28.609375 
Q 18.609375 16.890625 22.84375 11.734375 
Q 27.09375 6.59375 36.625 6.59375 
Q 46.09375 6.59375 50.34375 11.734375 
Q 54.59375 16.890625 54.59375 28.609375 
L 54.59375 72.90625 
L 64.5 72.90625 
L 64.5 27.390625 
Q 64.5 13.140625 57.4375 5.859375 
Q 50.390625 -1.421875 36.625 -1.421875 
Q 22.796875 -1.421875 15.734375 5.859375 
Q 8.6875 13.140625 8.6875 27.390625 
z
" id="DejaVuSans-85"/>
     <path d="M 6.296875 72.90625 
L 16.890625 72.90625 
L 35.015625 45.796875 
L 53.21875 72.90625 
L 63.8125 72.90625 
L 40.375 37.890625 
L 65.375 0 
L 54.78125 0 
L 34.28125 31 
L 13.625 0 
L 2.984375 0 
L 29 38.921875 
z
" id="DejaVuSans-88"/>
    </defs>
    <g transform="translate(175.137188 16.318125)scale(0.12 -0.12)">
     <use xlink:href="#DejaVuSans-84"/>
     <use x="46.333984" xlink:href="#DejaVuSans-114"/>
     <use x="87.447266" xlink:href="#DejaVuSans-97"/>
     <use x="148.726562" xlink:href="#DejaVuSans-105"/>
     <use x="176.509766" xlink:href="#DejaVuSans-110"/>
     <use x="239.888672" xlink:href="#DejaVuSans-105"/>
     <use x="267.671875" xlink:href="#DejaVuSans-110"/>
     <use x="331.050781" xlink:href="#DejaVuSans-103"/>
     <use x="394.527344" xlink:href="#DejaVuSans-58"/>
     <use x="428.21875" xlink:href="#DejaVuSans-32"/>
     <use x="460.005859" xlink:href="#DejaVuSans-83"/>
     <use x="523.482422" xlink:href="#DejaVuSans-66"/>
     <use x="592.085938" xlink:href="#DejaVuSans-85"/>
     <use x="665.279297" xlink:href="#DejaVuSans-88"/>
    </g>
   </g>
   <g id="legend_1">
    <g id="patch_7">
     <path d="M 47.603125 59.674375 
L 131.33125 59.674375 
Q 133.33125 59.674375 133.33125 57.674375 
L 133.33125 29.318125 
Q 133.33125 27.318125 131.33125 27.318125 
L 47.603125 27.318125 
Q 45.603125 27.318125 45.603125 29.318125 
L 45.603125 57.674375 
Q 45.603125 59.674375 47.603125 59.674375 
z
" style="fill:#ffffff;opacity:0.8;stroke:#cccccc;stroke-linejoin:miter;"/>
    </g>
    <g id="line2d_27">
     <path d="M 49.603125 35.416562 
L 69.603125 35.416562 
" style="fill:none;stroke:#1f77b4;stroke-linecap:square;stroke-width:1.5;"/>
    </g>
    <g id="line2d_28"/>
    <g id="text_16">
     <!-- Predicted -->
     <defs>
      <path d="M 45.40625 46.390625 
L 45.40625 75.984375 
L 54.390625 75.984375 
L 54.390625 0 
L 45.40625 0 
L 45.40625 8.203125 
Q 42.578125 3.328125 38.25 0.953125 
Q 33.9375 -1.421875 27.875 -1.421875 
Q 17.96875 -1.421875 11.734375 6.484375 
Q 5.515625 14.40625 5.515625 27.296875 
Q 5.515625 40.1875 11.734375 48.09375 
Q 17.96875 56 27.875 56 
Q 33.9375 56 38.25 53.625 
Q 42.578125 51.265625 45.40625 46.390625 
z
M 14.796875 27.296875 
Q 14.796875 17.390625 18.875 11.75 
Q 22.953125 6.109375 30.078125 6.109375 
Q 37.203125 6.109375 41.296875 11.75 
Q 45.40625 17.390625 45.40625 27.296875 
Q 45.40625 37.203125 41.296875 42.84375 
Q 37.203125 48.484375 30.078125 48.484375 
Q 22.953125 48.484375 18.875 42.84375 
Q 14.796875 37.203125 14.796875 27.296875 
z
" id="DejaVuSans-100"/>
      <path d="M 18.3125 70.21875 
L 18.3125 54.6875 
L 36.8125 54.6875 
L 36.8125 47.703125 
L 18.3125 47.703125 
L 18.3125 18.015625 
Q 18.3125 11.328125 20.140625 9.421875 
Q 21.96875 7.515625 27.59375 7.515625 
L 36.8125 7.515625 
L 36.8125 0 
L 27.59375 0 
Q 17.1875 0 13.234375 3.875 
Q 9.28125 7.765625 9.28125 18.015625 
L 9.28125 47.703125 
L 2.6875 47.703125 
L 2.6875 54.6875 
L 9.28125 54.6875 
L 9.28125 70.21875 
z
" id="DejaVuSans-116"/>
     </defs>
     <g transform="translate(77.603125 38.916562)scale(0.1 -0.1)">
      <use xlink:href="#DejaVuSans-80"/>
      <use x="58.552734" xlink:href="#DejaVuSans-114"/>
      <use x="97.416016" xlink:href="#DejaVuSans-101"/>
      <use x="158.939453" xlink:href="#DejaVuSans-100"/>
      <use x="222.416016" xlink:href="#DejaVuSans-105"/>
      <use x="250.199219" xlink:href="#DejaVuSans-99"/>
      <use x="305.179688" xlink:href="#DejaVuSans-116"/>
      <use x="344.388672" xlink:href="#DejaVuSans-101"/>
      <use x="405.912109" xlink:href="#DejaVuSans-100"/>
     </g>
    </g>
    <g id="line2d_29">
     <path d="M 49.603125 50.094687 
L 69.603125 50.094687 
" style="fill:none;stroke:#ff7f0e;stroke-linecap:square;stroke-width:1.5;"/>
    </g>
    <g id="line2d_30"/>
    <g id="text_17">
     <!-- True value -->
     <defs>
      <path d="M 8.5 21.578125 
L 8.5 54.6875 
L 17.484375 54.6875 
L 17.484375 21.921875 
Q 17.484375 14.15625 20.5 10.265625 
Q 23.53125 6.390625 29.59375 6.390625 
Q 36.859375 6.390625 41.078125 11.03125 
Q 45.3125 15.671875 45.3125 23.6875 
L 45.3125 54.6875 
L 54.296875 54.6875 
L 54.296875 0 
L 45.3125 0 
L 45.3125 8.40625 
Q 42.046875 3.421875 37.71875 1 
Q 33.40625 -1.421875 27.6875 -1.421875 
Q 18.265625 -1.421875 13.375 4.4375 
Q 8.5 10.296875 8.5 21.578125 
z
M 31.109375 56 
z
" id="DejaVuSans-117"/>
      <path d="M 2.984375 54.6875 
L 12.5 54.6875 
L 29.59375 8.796875 
L 46.6875 54.6875 
L 56.203125 54.6875 
L 35.6875 0 
L 23.484375 0 
z
" id="DejaVuSans-118"/>
      <path d="M 9.421875 75.984375 
L 18.40625 75.984375 
L 18.40625 0 
L 9.421875 0 
z
" id="DejaVuSans-108"/>
     </defs>
     <g transform="translate(77.603125 53.594687)scale(0.1 -0.1)">
      <use xlink:href="#DejaVuSans-84"/>
      <use x="46.333984" xlink:href="#DejaVuSans-114"/>
      <use x="87.447266" xlink:href="#DejaVuSans-117"/>
      <use x="150.826172" xlink:href="#DejaVuSans-101"/>
      <use x="212.349609" xlink:href="#DejaVuSans-32"/>
      <use x="244.136719" xlink:href="#DejaVuSans-118"/>
      <use x="303.316406" xlink:href="#DejaVuSans-97"/>
      <use x="364.595703" xlink:href="#DejaVuSans-108"/>
      <use x="392.378906" xlink:href="#DejaVuSans-117"/>
      <use x="455.757812" xlink:href="#DejaVuSans-101"/>
     </g>
    </g>
   </g>
  </g>
 </g>
 <defs>
  <clipPath id="pc23ecde7eb">
   <rect height="266.112" width="357.12" x="40.603125" y="22.318125"/>
  </clipPath>
 </defs>
</svg>
