<?xml version="1.0" encoding="utf-8" standalone="no"?>
<!DOCTYPE svg PUBLIC "-//W3C//DTD SVG 1.1//EN"
  "http://www.w3.org/Graphics/SVG/1.1/DTD/svg11.dtd">
<!-- Created with matplotlib (https://matplotlib.org/) -->
<svg height="325.986375pt" version="1.1" viewBox="0 0 406.940312 325.986375" width="406.940312pt" xmlns="http://www.w3.org/2000/svg" xmlns:xlink="http://www.w3.org/1999/xlink">
 <defs>
  <style type="text/css">
*{stroke-linecap:butt;stroke-linejoin:round;}
  </style>
 </defs>
 <g id="figure_1">
  <g id="patch_1">
   <path d="M 0 325.986375 
L 406.940312 325.986375 
L 406.940312 0 
L 0 0 
z
" style="fill:#ffffff;"/>
  </g>
  <g id="axes_1">
   <g id="patch_2">
    <path d="M 42.620313 288.430125 
L 399.740313 288.430125 
L 399.740313 22.318125 
L 42.620313 22.318125 
z
" style="fill:#ffffff;"/>
   </g>
   <g id="matplotlib.axis_1">
    <g id="xtick_1">
     <g id="line2d_1">
      <path clip-path="url(#p6abae635e1)" d="M 58.85304 288.430125 
L 58.85304 22.318125 
" style="fill:none;stroke:#b0b0b0;stroke-dasharray:2.96,1.28;stroke-dashoffset:0;stroke-width:0.8;"/>
     </g>
     <g id="line2d_2">
      <defs>
       <path d="M 0 0 
L 0 3.5 
" id="m0ea1140d65" style="stroke:#000000;stroke-width:0.8;"/>
      </defs>
      <g>
       <use style="stroke:#000000;stroke-width:0.8;" x="58.85304" xlink:href="#m0ea1140d65" y="288.430125"/>
      </g>
     </g>
     <g id="text_1">
      <!-- 0 -->
      <defs>
       <path d="M 31.78125 66.40625 
Q 24.171875 66.40625 20.328125 58.90625 
Q 16.5 51.421875 16.5 36.375 
Q 16.5 21.390625 20.328125 13.890625 
Q 24.171875 6.390625 31.78125 6.390625 
Q 39.453125 6.390625 43.28125 13.890625 
Q 47.125 21.390625 47.125 36.375 
Q 47.125 51.421875 43.28125 58.90625 
Q 39.453125 66.40625 31.78125 66.40625 
z
M 31.78125 74.21875 
Q 44.046875 74.21875 50.515625 64.515625 
Q 56.984375 54.828125 56.984375 36.375 
Q 56.984375 17.96875 50.515625 8.265625 
Q 44.046875 -1.421875 31.78125 -1.421875 
Q 19.53125 -1.421875 13.0625 8.265625 
Q 6.59375 17.96875 6.59375 36.375 
Q 6.59375 54.828125 13.0625 64.515625 
Q 19.53125 74.21875 31.78125 74.21875 
z
" id="DejaVuSans-48"/>
      </defs>
      <g transform="translate(55.67179 303.028562)scale(0.1 -0.1)">
       <use xlink:href="#DejaVuSans-48"/>
      </g>
     </g>
    </g>
    <g id="xtick_2">
     <g id="line2d_3">
      <path clip-path="url(#p6abae635e1)" d="M 107.783642 288.430125 
L 107.783642 22.318125 
" style="fill:none;stroke:#b0b0b0;stroke-dasharray:2.96,1.28;stroke-dashoffset:0;stroke-width:0.8;"/>
     </g>
     <g id="line2d_4">
      <g>
       <use style="stroke:#000000;stroke-width:0.8;" x="107.783642" xlink:href="#m0ea1140d65" y="288.430125"/>
      </g>
     </g>
     <g id="text_2">
      <!-- 200 -->
      <defs>
       <path d="M 19.1875 8.296875 
L 53.609375 8.296875 
L 53.609375 0 
L 7.328125 0 
L 7.328125 8.296875 
Q 12.9375 14.109375 22.625 23.890625 
Q 32.328125 33.6875 34.8125 36.53125 
Q 39.546875 41.84375 41.421875 45.53125 
Q 43.3125 49.21875 43.3125 52.78125 
Q 43.3125 58.59375 39.234375 62.25 
Q 35.15625 65.921875 28.609375 65.921875 
Q 23.96875 65.921875 18.8125 64.3125 
Q 13.671875 62.703125 7.8125 59.421875 
L 7.8125 69.390625 
Q 13.765625 71.78125 18.9375 73 
Q 24.125 74.21875 28.421875 74.21875 
Q 39.75 74.21875 46.484375 68.546875 
Q 53.21875 62.890625 53.21875 53.421875 
Q 53.21875 48.921875 51.53125 44.890625 
Q 49.859375 40.875 45.40625 35.40625 
Q 44.1875 33.984375 37.640625 27.21875 
Q 31.109375 20.453125 19.1875 8.296875 
z
" id="DejaVuSans-50"/>
      </defs>
      <g transform="translate(98.239892 303.028562)scale(0.1 -0.1)">
       <use xlink:href="#DejaVuSans-50"/>
       <use x="63.623047" xlink:href="#DejaVuSans-48"/>
       <use x="127.246094" xlink:href="#DejaVuSans-48"/>
      </g>
     </g>
    </g>
    <g id="xtick_3">
     <g id="line2d_5">
      <path clip-path="url(#p6abae635e1)" d="M 156.714244 288.430125 
L 156.714244 22.318125 
" style="fill:none;stroke:#b0b0b0;stroke-dasharray:2.96,1.28;stroke-dashoffset:0;stroke-width:0.8;"/>
     </g>
     <g id="line2d_6">
      <g>
       <use style="stroke:#000000;stroke-width:0.8;" x="156.714244" xlink:href="#m0ea1140d65" y="288.430125"/>
      </g>
     </g>
     <g id="text_3">
      <!-- 400 -->
      <defs>
       <path d="M 37.796875 64.3125 
L 12.890625 25.390625 
L 37.796875 25.390625 
z
M 35.203125 72.90625 
L 47.609375 72.90625 
L 47.609375 25.390625 
L 58.015625 25.390625 
L 58.015625 17.1875 
L 47.609375 17.1875 
L 47.609375 0 
L 37.796875 0 
L 37.796875 17.1875 
L 4.890625 17.1875 
L 4.890625 26.703125 
z
" id="DejaVuSans-52"/>
      </defs>
      <g transform="translate(147.170494 303.028562)scale(0.1 -0.1)">
       <use xlink:href="#DejaVuSans-52"/>
       <use x="63.623047" xlink:href="#DejaVuSans-48"/>
       <use x="127.246094" xlink:href="#DejaVuSans-48"/>
      </g>
     </g>
    </g>
    <g id="xtick_4">
     <g id="line2d_7">
      <path clip-path="url(#p6abae635e1)" d="M 205.644846 288.430125 
L 205.644846 22.318125 
" style="fill:none;stroke:#b0b0b0;stroke-dasharray:2.96,1.28;stroke-dashoffset:0;stroke-width:0.8;"/>
     </g>
     <g id="line2d_8">
      <g>
       <use style="stroke:#000000;stroke-width:0.8;" x="205.644846" xlink:href="#m0ea1140d65" y="288.430125"/>
      </g>
     </g>
     <g id="text_4">
      <!-- 600 -->
      <defs>
       <path d="M 33.015625 40.375 
Q 26.375 40.375 22.484375 35.828125 
Q 18.609375 31.296875 18.609375 23.390625 
Q 18.609375 15.53125 22.484375 10.953125 
Q 26.375 6.390625 33.015625 6.390625 
Q 39.65625 6.390625 43.53125 10.953125 
Q 47.40625 15.53125 47.40625 23.390625 
Q 47.40625 31.296875 43.53125 35.828125 
Q 39.65625 40.375 33.015625 40.375 
z
M 52.59375 71.296875 
L 52.59375 62.3125 
Q 48.875 64.0625 45.09375 64.984375 
Q 41.3125 65.921875 37.59375 65.921875 
Q 27.828125 65.921875 22.671875 59.328125 
Q 17.53125 52.734375 16.796875 39.40625 
Q 19.671875 43.65625 24.015625 45.921875 
Q 28.375 48.1875 33.59375 48.1875 
Q 44.578125 48.1875 50.953125 41.515625 
Q 57.328125 34.859375 57.328125 23.390625 
Q 57.328125 12.15625 50.6875 5.359375 
Q 44.046875 -1.421875 33.015625 -1.421875 
Q 20.359375 -1.421875 13.671875 8.265625 
Q 6.984375 17.96875 6.984375 36.375 
Q 6.984375 53.65625 15.1875 63.9375 
Q 23.390625 74.21875 37.203125 74.21875 
Q 40.921875 74.21875 44.703125 73.484375 
Q 48.484375 72.75 52.59375 71.296875 
z
" id="DejaVuSans-54"/>
      </defs>
      <g transform="translate(196.101096 303.028562)scale(0.1 -0.1)">
       <use xlink:href="#DejaVuSans-54"/>
       <use x="63.623047" xlink:href="#DejaVuSans-48"/>
       <use x="127.246094" xlink:href="#DejaVuSans-48"/>
      </g>
     </g>
    </g>
    <g id="xtick_5">
     <g id="line2d_9">
      <path clip-path="url(#p6abae635e1)" d="M 254.575448 288.430125 
L 254.575448 22.318125 
" style="fill:none;stroke:#b0b0b0;stroke-dasharray:2.96,1.28;stroke-dashoffset:0;stroke-width:0.8;"/>
     </g>
     <g id="line2d_10">
      <g>
       <use style="stroke:#000000;stroke-width:0.8;" x="254.575448" xlink:href="#m0ea1140d65" y="288.430125"/>
      </g>
     </g>
     <g id="text_5">
      <!-- 800 -->
      <defs>
       <path d="M 31.78125 34.625 
Q 24.75 34.625 20.71875 30.859375 
Q 16.703125 27.09375 16.703125 20.515625 
Q 16.703125 13.921875 20.71875 10.15625 
Q 24.75 6.390625 31.78125 6.390625 
Q 38.8125 6.390625 42.859375 10.171875 
Q 46.921875 13.96875 46.921875 20.515625 
Q 46.921875 27.09375 42.890625 30.859375 
Q 38.875 34.625 31.78125 34.625 
z
M 21.921875 38.8125 
Q 15.578125 40.375 12.03125 44.71875 
Q 8.5 49.078125 8.5 55.328125 
Q 8.5 64.0625 14.71875 69.140625 
Q 20.953125 74.21875 31.78125 74.21875 
Q 42.671875 74.21875 48.875 69.140625 
Q 55.078125 64.0625 55.078125 55.328125 
Q 55.078125 49.078125 51.53125 44.71875 
Q 48 40.375 41.703125 38.8125 
Q 48.828125 37.15625 52.796875 32.3125 
Q 56.78125 27.484375 56.78125 20.515625 
Q 56.78125 9.90625 50.3125 4.234375 
Q 43.84375 -1.421875 31.78125 -1.421875 
Q 19.734375 -1.421875 13.25 4.234375 
Q 6.78125 9.90625 6.78125 20.515625 
Q 6.78125 27.484375 10.78125 32.3125 
Q 14.796875 37.15625 21.921875 38.8125 
z
M 18.3125 54.390625 
Q 18.3125 48.734375 21.84375 45.5625 
Q 25.390625 42.390625 31.78125 42.390625 
Q 38.140625 42.390625 41.71875 45.5625 
Q 45.3125 48.734375 45.3125 54.390625 
Q 45.3125 60.0625 41.71875 63.234375 
Q 38.140625 66.40625 31.78125 66.40625 
Q 25.390625 66.40625 21.84375 63.234375 
Q 18.3125 60.0625 18.3125 54.390625 
z
" id="DejaVuSans-56"/>
      </defs>
      <g transform="translate(245.031698 303.028562)scale(0.1 -0.1)">
       <use xlink:href="#DejaVuSans-56"/>
       <use x="63.623047" xlink:href="#DejaVuSans-48"/>
       <use x="127.246094" xlink:href="#DejaVuSans-48"/>
      </g>
     </g>
    </g>
    <g id="xtick_6">
     <g id="line2d_11">
      <path clip-path="url(#p6abae635e1)" d="M 303.506051 288.430125 
L 303.506051 22.318125 
" style="fill:none;stroke:#b0b0b0;stroke-dasharray:2.96,1.28;stroke-dashoffset:0;stroke-width:0.8;"/>
     </g>
     <g id="line2d_12">
      <g>
       <use style="stroke:#000000;stroke-width:0.8;" x="303.506051" xlink:href="#m0ea1140d65" y="288.430125"/>
      </g>
     </g>
     <g id="text_6">
      <!-- 1000 -->
      <defs>
       <path d="M 12.40625 8.296875 
L 28.515625 8.296875 
L 28.515625 63.921875 
L 10.984375 60.40625 
L 10.984375 69.390625 
L 28.421875 72.90625 
L 38.28125 72.90625 
L 38.28125 8.296875 
L 54.390625 8.296875 
L 54.390625 0 
L 12.40625 0 
z
" id="DejaVuSans-49"/>
      </defs>
      <g transform="translate(290.781051 303.028562)scale(0.1 -0.1)">
       <use xlink:href="#DejaVuSans-49"/>
       <use x="63.623047" xlink:href="#DejaVuSans-48"/>
       <use x="127.246094" xlink:href="#DejaVuSans-48"/>
       <use x="190.869141" xlink:href="#DejaVuSans-48"/>
      </g>
     </g>
    </g>
    <g id="xtick_7">
     <g id="line2d_13">
      <path clip-path="url(#p6abae635e1)" d="M 352.436653 288.430125 
L 352.436653 22.318125 
" style="fill:none;stroke:#b0b0b0;stroke-dasharray:2.96,1.28;stroke-dashoffset:0;stroke-width:0.8;"/>
     </g>
     <g id="line2d_14">
      <g>
       <use style="stroke:#000000;stroke-width:0.8;" x="352.436653" xlink:href="#m0ea1140d65" y="288.430125"/>
      </g>
     </g>
     <g id="text_7">
      <!-- 1200 -->
      <g transform="translate(339.711653 303.028562)scale(0.1 -0.1)">
       <use xlink:href="#DejaVuSans-49"/>
       <use x="63.623047" xlink:href="#DejaVuSans-50"/>
       <use x="127.246094" xlink:href="#DejaVuSans-48"/>
       <use x="190.869141" xlink:href="#DejaVuSans-48"/>
      </g>
     </g>
    </g>
    <g id="text_8">
     <!-- Day -->
     <defs>
      <path d="M 19.671875 64.796875 
L 19.671875 8.109375 
L 31.59375 8.109375 
Q 46.6875 8.109375 53.6875 14.9375 
Q 60.6875 21.78125 60.6875 36.53125 
Q 60.6875 51.171875 53.6875 57.984375 
Q 46.6875 64.796875 31.59375 64.796875 
z
M 9.8125 72.90625 
L 30.078125 72.90625 
Q 51.265625 72.90625 61.171875 64.09375 
Q 71.09375 55.28125 71.09375 36.53125 
Q 71.09375 17.671875 61.125 8.828125 
Q 51.171875 0 30.078125 0 
L 9.8125 0 
z
" id="DejaVuSans-68"/>
      <path d="M 34.28125 27.484375 
Q 23.390625 27.484375 19.1875 25 
Q 14.984375 22.515625 14.984375 16.5 
Q 14.984375 11.71875 18.140625 8.90625 
Q 21.296875 6.109375 26.703125 6.109375 
Q 34.1875 6.109375 38.703125 11.40625 
Q 43.21875 16.703125 43.21875 25.484375 
L 43.21875 27.484375 
z
M 52.203125 31.203125 
L 52.203125 0 
L 43.21875 0 
L 43.21875 8.296875 
Q 40.140625 3.328125 35.546875 0.953125 
Q 30.953125 -1.421875 24.3125 -1.421875 
Q 15.921875 -1.421875 10.953125 3.296875 
Q 6 8.015625 6 15.921875 
Q 6 25.140625 12.171875 29.828125 
Q 18.359375 34.515625 30.609375 34.515625 
L 43.21875 34.515625 
L 43.21875 35.40625 
Q 43.21875 41.609375 39.140625 45 
Q 35.0625 48.390625 27.6875 48.390625 
Q 23 48.390625 18.546875 47.265625 
Q 14.109375 46.140625 10.015625 43.890625 
L 10.015625 52.203125 
Q 14.9375 54.109375 19.578125 55.046875 
Q 24.21875 56 28.609375 56 
Q 40.484375 56 46.34375 49.84375 
Q 52.203125 43.703125 52.203125 31.203125 
z
" id="DejaVuSans-97"/>
      <path d="M 32.171875 -5.078125 
Q 28.375 -14.84375 24.75 -17.8125 
Q 21.140625 -20.796875 15.09375 -20.796875 
L 7.90625 -20.796875 
L 7.90625 -13.28125 
L 13.1875 -13.28125 
Q 16.890625 -13.28125 18.9375 -11.515625 
Q 21 -9.765625 23.484375 -3.21875 
L 25.09375 0.875 
L 2.984375 54.6875 
L 12.5 54.6875 
L 29.59375 11.921875 
L 46.6875 54.6875 
L 56.203125 54.6875 
z
" id="DejaVuSans-121"/>
     </defs>
     <g transform="translate(211.306875 316.706687)scale(0.1 -0.1)">
      <use xlink:href="#DejaVuSans-68"/>
      <use x="77.001953" xlink:href="#DejaVuSans-97"/>
      <use x="138.28125" xlink:href="#DejaVuSans-121"/>
     </g>
    </g>
   </g>
   <g id="matplotlib.axis_2">
    <g id="ytick_1">
     <g id="line2d_15">
      <path clip-path="url(#p6abae635e1)" d="M 42.620313 287.555873 
L 399.740313 287.555873 
" style="fill:none;stroke:#b0b0b0;stroke-dasharray:2.96,1.28;stroke-dashoffset:0;stroke-width:0.8;"/>
     </g>
     <g id="line2d_16">
      <defs>
       <path d="M 0 0 
L -3.5 0 
" id="mac9fbb0a3b" style="stroke:#000000;stroke-width:0.8;"/>
      </defs>
      <g>
       <use style="stroke:#000000;stroke-width:0.8;" x="42.620313" xlink:href="#mac9fbb0a3b" y="287.555873"/>
      </g>
     </g>
     <g id="text_9">
      <!-- −6 -->
      <defs>
       <path d="M 10.59375 35.5 
L 73.1875 35.5 
L 73.1875 27.203125 
L 10.59375 27.203125 
z
" id="DejaVuSans-8722"/>
      </defs>
      <g transform="translate(20.878125 291.355091)scale(0.1 -0.1)">
       <use xlink:href="#DejaVuSans-8722"/>
       <use x="83.789062" xlink:href="#DejaVuSans-54"/>
      </g>
     </g>
    </g>
    <g id="ytick_2">
     <g id="line2d_17">
      <path clip-path="url(#p6abae635e1)" d="M 42.620313 235.361698 
L 399.740313 235.361698 
" style="fill:none;stroke:#b0b0b0;stroke-dasharray:2.96,1.28;stroke-dashoffset:0;stroke-width:0.8;"/>
     </g>
     <g id="line2d_18">
      <g>
       <use style="stroke:#000000;stroke-width:0.8;" x="42.620313" xlink:href="#mac9fbb0a3b" y="235.361698"/>
      </g>
     </g>
     <g id="text_10">
      <!-- −4 -->
      <g transform="translate(20.878125 239.160917)scale(0.1 -0.1)">
       <use xlink:href="#DejaVuSans-8722"/>
       <use x="83.789062" xlink:href="#DejaVuSans-52"/>
      </g>
     </g>
    </g>
    <g id="ytick_3">
     <g id="line2d_19">
      <path clip-path="url(#p6abae635e1)" d="M 42.620313 183.167523 
L 399.740313 183.167523 
" style="fill:none;stroke:#b0b0b0;stroke-dasharray:2.96,1.28;stroke-dashoffset:0;stroke-width:0.8;"/>
     </g>
     <g id="line2d_20">
      <g>
       <use style="stroke:#000000;stroke-width:0.8;" x="42.620313" xlink:href="#mac9fbb0a3b" y="183.167523"/>
      </g>
     </g>
     <g id="text_11">
      <!-- −2 -->
      <g transform="translate(20.878125 186.966742)scale(0.1 -0.1)">
       <use xlink:href="#DejaVuSans-8722"/>
       <use x="83.789062" xlink:href="#DejaVuSans-50"/>
      </g>
     </g>
    </g>
    <g id="ytick_4">
     <g id="line2d_21">
      <path clip-path="url(#p6abae635e1)" d="M 42.620313 130.973348 
L 399.740313 130.973348 
" style="fill:none;stroke:#b0b0b0;stroke-dasharray:2.96,1.28;stroke-dashoffset:0;stroke-width:0.8;"/>
     </g>
     <g id="line2d_22">
      <g>
       <use style="stroke:#000000;stroke-width:0.8;" x="42.620313" xlink:href="#mac9fbb0a3b" y="130.973348"/>
      </g>
     </g>
     <g id="text_12">
      <!-- 0 -->
      <g transform="translate(29.257813 134.772567)scale(0.1 -0.1)">
       <use xlink:href="#DejaVuSans-48"/>
      </g>
     </g>
    </g>
    <g id="ytick_5">
     <g id="line2d_23">
      <path clip-path="url(#p6abae635e1)" d="M 42.620313 78.779174 
L 399.740313 78.779174 
" style="fill:none;stroke:#b0b0b0;stroke-dasharray:2.96,1.28;stroke-dashoffset:0;stroke-width:0.8;"/>
     </g>
     <g id="line2d_24">
      <g>
       <use style="stroke:#000000;stroke-width:0.8;" x="42.620313" xlink:href="#mac9fbb0a3b" y="78.779174"/>
      </g>
     </g>
     <g id="text_13">
      <!-- 2 -->
      <g transform="translate(29.257813 82.578392)scale(0.1 -0.1)">
       <use xlink:href="#DejaVuSans-50"/>
      </g>
     </g>
    </g>
    <g id="ytick_6">
     <g id="line2d_25">
      <path clip-path="url(#p6abae635e1)" d="M 42.620313 26.584999 
L 399.740313 26.584999 
" style="fill:none;stroke:#b0b0b0;stroke-dasharray:2.96,1.28;stroke-dashoffset:0;stroke-width:0.8;"/>
     </g>
     <g id="line2d_26">
      <g>
       <use style="stroke:#000000;stroke-width:0.8;" x="42.620313" xlink:href="#mac9fbb0a3b" y="26.584999"/>
      </g>
     </g>
     <g id="text_14">
      <!-- 4 -->
      <g transform="translate(29.257813 30.384218)scale(0.1 -0.1)">
       <use xlink:href="#DejaVuSans-52"/>
      </g>
     </g>
    </g>
    <g id="text_15">
     <!-- Change $ -->
     <defs>
      <path d="M 64.40625 67.28125 
L 64.40625 56.890625 
Q 59.421875 61.53125 53.78125 63.8125 
Q 48.140625 66.109375 41.796875 66.109375 
Q 29.296875 66.109375 22.65625 58.46875 
Q 16.015625 50.828125 16.015625 36.375 
Q 16.015625 21.96875 22.65625 14.328125 
Q 29.296875 6.6875 41.796875 6.6875 
Q 48.140625 6.6875 53.78125 8.984375 
Q 59.421875 11.28125 64.40625 15.921875 
L 64.40625 5.609375 
Q 59.234375 2.09375 53.4375 0.328125 
Q 47.65625 -1.421875 41.21875 -1.421875 
Q 24.65625 -1.421875 15.125 8.703125 
Q 5.609375 18.84375 5.609375 36.375 
Q 5.609375 53.953125 15.125 64.078125 
Q 24.65625 74.21875 41.21875 74.21875 
Q 47.75 74.21875 53.53125 72.484375 
Q 59.328125 70.75 64.40625 67.28125 
z
" id="DejaVuSans-67"/>
      <path d="M 54.890625 33.015625 
L 54.890625 0 
L 45.90625 0 
L 45.90625 32.71875 
Q 45.90625 40.484375 42.875 44.328125 
Q 39.84375 48.1875 33.796875 48.1875 
Q 26.515625 48.1875 22.3125 43.546875 
Q 18.109375 38.921875 18.109375 30.90625 
L 18.109375 0 
L 9.078125 0 
L 9.078125 75.984375 
L 18.109375 75.984375 
L 18.109375 46.1875 
Q 21.34375 51.125 25.703125 53.5625 
Q 30.078125 56 35.796875 56 
Q 45.21875 56 50.046875 50.171875 
Q 54.890625 44.34375 54.890625 33.015625 
z
" id="DejaVuSans-104"/>
      <path d="M 54.890625 33.015625 
L 54.890625 0 
L 45.90625 0 
L 45.90625 32.71875 
Q 45.90625 40.484375 42.875 44.328125 
Q 39.84375 48.1875 33.796875 48.1875 
Q 26.515625 48.1875 22.3125 43.546875 
Q 18.109375 38.921875 18.109375 30.90625 
L 18.109375 0 
L 9.078125 0 
L 9.078125 54.6875 
L 18.109375 54.6875 
L 18.109375 46.1875 
Q 21.34375 51.125 25.703125 53.5625 
Q 30.078125 56 35.796875 56 
Q 45.21875 56 50.046875 50.171875 
Q 54.890625 44.34375 54.890625 33.015625 
z
" id="DejaVuSans-110"/>
      <path d="M 45.40625 27.984375 
Q 45.40625 37.75 41.375 43.109375 
Q 37.359375 48.484375 30.078125 48.484375 
Q 22.859375 48.484375 18.828125 43.109375 
Q 14.796875 37.75 14.796875 27.984375 
Q 14.796875 18.265625 18.828125 12.890625 
Q 22.859375 7.515625 30.078125 7.515625 
Q 37.359375 7.515625 41.375 12.890625 
Q 45.40625 18.265625 45.40625 27.984375 
z
M 54.390625 6.78125 
Q 54.390625 -7.171875 48.1875 -13.984375 
Q 42 -20.796875 29.203125 -20.796875 
Q 24.46875 -20.796875 20.265625 -20.09375 
Q 16.0625 -19.390625 12.109375 -17.921875 
L 12.109375 -9.1875 
Q 16.0625 -11.328125 19.921875 -12.34375 
Q 23.78125 -13.375 27.78125 -13.375 
Q 36.625 -13.375 41.015625 -8.765625 
Q 45.40625 -4.15625 45.40625 5.171875 
L 45.40625 9.625 
Q 42.625 4.78125 38.28125 2.390625 
Q 33.9375 0 27.875 0 
Q 17.828125 0 11.671875 7.65625 
Q 5.515625 15.328125 5.515625 27.984375 
Q 5.515625 40.671875 11.671875 48.328125 
Q 17.828125 56 27.875 56 
Q 33.9375 56 38.28125 53.609375 
Q 42.625 51.21875 45.40625 46.390625 
L 45.40625 54.6875 
L 54.390625 54.6875 
z
" id="DejaVuSans-103"/>
      <path d="M 56.203125 29.59375 
L 56.203125 25.203125 
L 14.890625 25.203125 
Q 15.484375 15.921875 20.484375 11.0625 
Q 25.484375 6.203125 34.421875 6.203125 
Q 39.59375 6.203125 44.453125 7.46875 
Q 49.3125 8.734375 54.109375 11.28125 
L 54.109375 2.78125 
Q 49.265625 0.734375 44.1875 -0.34375 
Q 39.109375 -1.421875 33.890625 -1.421875 
Q 20.796875 -1.421875 13.15625 6.1875 
Q 5.515625 13.8125 5.515625 26.8125 
Q 5.515625 40.234375 12.765625 48.109375 
Q 20.015625 56 32.328125 56 
Q 43.359375 56 49.78125 48.890625 
Q 56.203125 41.796875 56.203125 29.59375 
z
M 47.21875 32.234375 
Q 47.125 39.59375 43.09375 43.984375 
Q 39.0625 48.390625 32.421875 48.390625 
Q 24.90625 48.390625 20.390625 44.140625 
Q 15.875 39.890625 15.1875 32.171875 
z
" id="DejaVuSans-101"/>
      <path id="DejaVuSans-32"/>
      <path d="M 33.796875 -14.703125 
L 28.90625 -14.703125 
L 28.859375 0 
Q 23.734375 0.09375 18.609375 1.1875 
Q 13.484375 2.296875 8.296875 4.5 
L 8.296875 13.28125 
Q 13.28125 10.15625 18.375 8.5625 
Q 23.484375 6.984375 28.90625 6.9375 
L 28.90625 29.203125 
Q 18.109375 30.953125 13.203125 35.15625 
Q 8.296875 39.359375 8.296875 46.6875 
Q 8.296875 54.640625 13.625 59.21875 
Q 18.953125 63.8125 28.90625 64.5 
L 28.90625 75.984375 
L 33.796875 75.984375 
L 33.796875 64.65625 
Q 38.328125 64.453125 42.578125 63.6875 
Q 46.828125 62.9375 50.875 61.625 
L 50.875 53.078125 
Q 46.828125 55.125 42.546875 56.25 
Q 38.28125 57.375 33.796875 57.5625 
L 33.796875 36.71875 
Q 44.875 35.015625 50.09375 30.609375 
Q 55.328125 26.21875 55.328125 18.609375 
Q 55.328125 10.359375 49.78125 5.59375 
Q 44.234375 0.828125 33.796875 0.09375 
z
M 28.90625 37.59375 
L 28.90625 57.625 
Q 23.25 56.984375 20.265625 54.390625 
Q 17.28125 51.8125 17.28125 47.515625 
Q 17.28125 43.3125 20.03125 40.96875 
Q 22.796875 38.625 28.90625 37.59375 
z
M 33.796875 28.21875 
L 33.796875 7.078125 
Q 39.984375 7.90625 43.140625 10.59375 
Q 46.296875 13.28125 46.296875 17.671875 
Q 46.296875 21.96875 43.28125 24.5 
Q 40.28125 27.046875 33.796875 28.21875 
z
" id="DejaVuSans-36"/>
     </defs>
     <g transform="translate(14.798438 179.288187)rotate(-90)scale(0.1 -0.1)">
      <use xlink:href="#DejaVuSans-67"/>
      <use x="69.824219" xlink:href="#DejaVuSans-104"/>
      <use x="133.203125" xlink:href="#DejaVuSans-97"/>
      <use x="194.482422" xlink:href="#DejaVuSans-110"/>
      <use x="257.861328" xlink:href="#DejaVuSans-103"/>
      <use x="321.337891" xlink:href="#DejaVuSans-101"/>
      <use x="382.861328" xlink:href="#DejaVuSans-32"/>
      <use x="414.648438" xlink:href="#DejaVuSans-36"/>
     </g>
    </g>
   </g>
   <g id="line2d_27">
    <path clip-path="url(#p6abae635e1)" d="M 58.85304 236.810037 
L 59.342346 194.007669 
L 59.831652 170.219272 
L 60.320958 153.7369 
L 60.565611 151.811198 
L 60.810264 152.391974 
L 61.054917 151.659691 
L 61.29957 149.220192 
L 61.544223 148.061911 
L 61.788876 150.247439 
L 62.033529 148.966998 
L 62.522835 152.21359 
L 62.767488 152.488585 
L 63.012141 151.116131 
L 63.256794 151.257328 
L 63.501447 150.626199 
L 63.7461 148.353331 
L 63.990753 147.463299 
L 64.724712 149.690845 
L 64.969365 149.999929 
L 65.214018 147.915422 
L 65.458671 148.786062 
L 65.703324 148.440151 
L 65.947977 150.087975 
L 66.19263 149.217034 
L 66.437283 149.147243 
L 66.926589 153.263348 
L 67.171242 153.331957 
L 67.415895 151.207768 
L 67.905201 152.736098 
L 68.149854 151.193047 
L 68.394507 150.464627 
L 68.63916 150.35824 
L 68.883813 152.489523 
L 69.128466 152.821937 
L 69.373119 155.540535 
L 69.617772 156.428801 
L 69.862425 154.673162 
L 70.107078 154.000173 
L 70.351731 155.640311 
L 70.596384 155.321336 
L 70.841037 157.320138 
L 71.08569 158.258461 
L 71.330343 157.831465 
L 71.574996 156.937623 
L 71.819649 155.042202 
L 72.064302 155.487809 
L 72.553608 152.83428 
L 72.798261 152.798693 
L 73.287567 153.52528 
L 73.53222 154.146271 
L 73.776873 155.581558 
L 74.021526 153.719063 
L 74.266179 153.878472 
L 74.510832 152.648123 
L 74.755485 156.095658 
L 75.000138 156.091463 
L 75.734098 149.175433 
L 75.978751 149.894896 
L 76.223404 147.312211 
L 76.468057 147.165938 
L 76.71271 145.707586 
L 77.202016 150.212227 
L 77.446669 150.869111 
L 78.425281 146.773193 
L 78.669934 144.899788 
L 78.914587 144.32266 
L 79.15924 144.456574 
L 79.403893 143.873851 
L 79.648546 139.231346 
L 80.137852 135.651388 
L 80.627158 143.202318 
L 80.871811 139.833333 
L 81.361117 146.215545 
L 81.60577 144.57173 
L 81.850423 147.442778 
L 82.095076 143.092225 
L 82.339729 143.609829 
L 82.584382 142.540057 
L 82.829035 147.914198 
L 83.073688 150.075833 
L 83.318341 145.406088 
L 83.562994 149.585524 
L 83.807647 150.421124 
L 84.0523 149.798545 
L 84.296953 151.718625 
L 84.541606 151.919532 
L 85.030912 149.577031 
L 85.275565 149.929921 
L 85.520218 149.534782 
L 86.254177 146.673726 
L 86.49883 145.775114 
L 86.743483 145.823044 
L 86.988136 145.584847 
L 87.232789 144.40439 
L 87.477442 144.519962 
L 87.722095 144.824562 
L 88.211401 143.9037 
L 88.456054 144.078393 
L 88.700707 143.55828 
L 89.190013 143.218396 
L 89.434666 143.058685 
L 89.679319 142.531247 
L 89.923972 142.976912 
L 90.413278 143.27469 
L 90.657931 143.427841 
L 91.39189 142.687987 
L 91.636543 142.692155 
L 91.881196 142.824065 
L 92.125849 142.691981 
L 92.615155 143.21867 
L 92.859808 142.764094 
L 93.104461 142.797576 
L 93.349114 142.316093 
L 93.593767 142.199626 
L 94.083073 142.449719 
L 94.572379 142.454751 
L 94.817032 142.211219 
L 95.306338 140.930604 
L 95.550991 140.70886 
L 96.040297 141.600075 
L 96.28495 142.614159 
L 96.529603 143.110106 
L 96.774256 143.020387 
L 97.018909 143.64497 
L 97.752869 144.055135 
L 98.242175 145.638099 
L 98.731481 144.997682 
L 98.976134 144.188731 
L 99.220787 143.997283 
L 99.710093 143.12229 
L 99.954746 143.803916 
L 100.199399 143.044885 
L 100.444052 142.674375 
L 101.178011 140.80837 
L 101.422664 140.652855 
L 102.156623 138.235401 
L 102.401276 138.182496 
L 102.645929 138.625883 
L 102.890582 138.788521 
L 103.135235 138.733842 
L 103.379888 138.162236 
L 103.624541 138.174479 
L 103.869194 137.393602 
L 104.113847 137.770645 
L 104.3585 137.828035 
L 104.603153 137.549925 
L 105.092459 137.879888 
L 105.337112 138.945939 
L 105.581765 138.860028 
L 105.826418 139.531589 
L 106.071071 139.60275 
L 106.560377 139.346875 
L 106.80503 139.548908 
L 107.049683 139.342823 
L 107.294336 139.852627 
L 107.538989 139.570998 
L 107.783642 139.481612 
L 108.028295 139.112428 
L 108.517601 139.775381 
L 108.762254 139.136826 
L 109.496213 139.40265 
L 109.740866 139.817227 
L 109.985519 139.346154 
L 110.230172 139.594444 
L 110.474825 139.039551 
L 110.719478 134.08306 
L 110.964131 136.972148 
L 111.208784 137.653255 
L 111.453437 139.126717 
L 111.69809 139.319839 
L 111.942743 140.055092 
L 112.432049 140.076101 
L 112.921355 140.265445 
L 113.166008 140.175942 
L 113.655314 139.626153 
L 114.14462 138.563129 
L 114.389273 138.758471 
L 114.878579 139.523486 
L 115.123232 140.283512 
L 115.367885 140.252654 
L 115.612538 140.402502 
L 116.101844 140.024868 
L 116.346497 139.780068 
L 116.59115 139.304871 
L 116.835803 139.710782 
L 117.080456 139.068492 
L 117.569762 138.442379 
L 117.814415 138.846574 
L 118.059068 138.846531 
L 118.303721 138.64607 
L 118.793027 138.717721 
L 119.282333 139.410394 
L 119.526986 139.43707 
L 119.771639 139.897443 
L 120.016292 139.766081 
L 120.505599 140.414398 
L 120.750252 140.073923 
L 120.994905 140.097759 
L 121.728864 140.833214 
L 121.973517 141.616773 
L 122.21817 141.829158 
L 122.462823 141.542224 
L 122.952129 141.559369 
L 123.196782 139.502188 
L 123.686088 137.747732 
L 123.930741 139.004872 
L 124.175394 139.407755 
L 124.420047 140.345891 
L 124.6647 140.209208 
L 125.154006 140.557311 
L 125.398659 140.179504 
L 125.643312 140.215927 
L 126.132618 139.909959 
L 126.377271 139.513479 
L 126.866577 139.790623 
L 127.600536 139.605966 
L 127.845189 139.659982 
L 128.089842 139.939909 
L 128.334495 139.964321 
L 128.579148 140.525934 
L 128.823801 140.476215 
L 129.068454 140.228545 
L 129.313107 140.497772 
L 130.047066 141.738215 
L 130.291719 141.759527 
L 130.536372 141.665121 
L 130.781025 140.745025 
L 131.025678 140.647577 
L 131.514984 141.36221 
L 131.759637 141.178664 
L 132.00429 140.554167 
L 132.248943 140.365213 
L 132.493596 140.586597 
L 132.738249 140.263858 
L 132.982902 141.059904 
L 133.227555 141.089536 
L 133.472208 140.751153 
L 133.716861 139.794732 
L 133.961514 139.815756 
L 134.206167 140.099129 
L 134.45082 139.983225 
L 134.695473 140.517844 
L 135.184779 139.384842 
L 135.429432 139.279132 
L 135.674085 138.627714 
L 135.918738 139.994487 
L 136.163391 140.461752 
L 136.408044 140.233462 
L 136.652697 140.5085 
L 136.89735 140.589005 
L 137.386656 140.208228 
L 137.631309 140.252279 
L 137.875962 140.666322 
L 138.120615 140.827764 
L 138.609921 140.840035 
L 138.854574 140.004638 
L 139.099227 139.771546 
L 139.833186 136.701665 
L 140.077839 135.960515 
L 140.322492 135.684856 
L 140.567145 136.933849 
L 141.056451 137.084058 
L 142.035063 138.961729 
L 142.279716 138.833265 
L 142.769023 137.150272 
L 143.013676 137.296732 
L 143.258329 137.829001 
L 143.747635 138.079886 
L 144.236941 138.129461 
L 144.481594 136.775378 
L 144.9709 136.603656 
L 145.460206 137.419976 
L 145.704859 137.339702 
L 145.949512 137.141693 
L 146.194165 136.430088 
L 146.683471 136.938333 
L 146.928124 136.860151 
L 148.151389 138.688161 
L 148.396042 138.708867 
L 148.640695 139.512989 
L 148.885348 139.426399 
L 149.130001 140.175596 
L 149.374654 140.187304 
L 149.619307 140.007392 
L 149.86396 140.882673 
L 150.108613 140.762457 
L 150.597919 141.110473 
L 151.087225 140.167954 
L 151.331878 140.251803 
L 151.576531 140.185084 
L 152.31049 142.464859 
L 153.044449 142.874692 
L 153.289102 142.598961 
L 153.533755 142.544427 
L 154.023061 141.366983 
L 154.267714 141.929562 
L 154.512367 142.166259 
L 154.75702 141.785337 
L 155.001673 141.769952 
L 155.246326 141.528871 
L 155.490979 141.683449 
L 155.735632 142.593496 
L 155.980285 142.915239 
L 156.224938 142.836335 
L 156.469591 142.584614 
L 156.714244 144.424506 
L 156.958897 143.155527 
L 157.692856 141.618892 
L 157.937509 141.757536 
L 158.182162 140.759069 
L 158.426815 140.569899 
L 158.671468 140.080052 
L 159.160774 139.94259 
L 159.894733 141.633457 
L 160.139386 141.433846 
L 160.384039 141.781473 
L 160.628692 141.468627 
L 160.873345 141.978142 
L 161.117998 142.054204 
L 161.362651 141.722887 
L 161.607304 141.606823 
L 162.09661 141.983837 
L 162.585916 141.910528 
L 163.075222 142.893105 
L 164.053834 144.126612 
L 164.298487 143.569181 
L 164.54314 144.267606 
L 165.032447 143.976173 
L 165.2771 143.320645 
L 165.766406 143.972799 
L 166.011059 143.025549 
L 166.255712 143.190033 
L 166.500365 142.310281 
L 166.745018 142.556769 
L 166.989671 141.692778 
L 167.72363 141.20743 
L 168.212936 141.261821 
L 168.457589 140.01277 
L 168.702242 139.389096 
L 168.946895 139.81342 
L 169.191548 139.201108 
L 169.680854 136.896257 
L 169.925507 136.704275 
L 170.17016 136.696547 
L 170.904119 136.008243 
L 171.148772 135.15661 
L 171.393425 135.556522 
L 171.882731 132.969971 
L 172.127384 132.979935 
L 172.372037 132.543888 
L 172.61669 132.954355 
L 172.861343 132.825905 
L 173.105996 131.920718 
L 173.350649 131.810898 
L 173.595302 131.01739 
L 173.839955 131.483459 
L 174.329261 131.719478 
L 175.06322 131.189271 
L 175.307873 131.230208 
L 175.552526 131.132429 
L 175.797179 131.270396 
L 176.041832 130.411264 
L 176.775791 133.355103 
L 177.020444 133.380395 
L 177.265097 133.036979 
L 177.754403 134.105554 
L 177.999056 134.235965 
L 178.488362 133.963896 
L 179.222321 136.758681 
L 179.711627 137.605383 
L 179.95628 137.170849 
L 180.200933 137.502224 
L 180.690239 137.68828 
L 180.934892 138.133138 
L 181.179545 138.93984 
L 181.424198 139.181224 
L 182.158157 138.094003 
L 182.40281 138.192878 
L 182.647463 138.801556 
L 182.892116 139.111865 
L 183.381422 138.855413 
L 183.870728 137.48844 
L 184.115381 136.311804 
L 184.360034 135.824034 
L 184.604687 134.671609 
L 185.338646 135.506991 
L 185.827952 135.854747 
L 186.072605 135.479233 
L 187.051217 134.963994 
L 187.785177 133.463466 
L 188.274483 133.405687 
L 188.519136 133.15098 
L 188.763789 133.342529 
L 189.008442 132.801868 
L 189.253095 132.964073 
L 189.497748 132.843194 
L 189.742401 133.013374 
L 190.231707 133.607373 
L 190.47636 133.796212 
L 190.721013 133.803782 
L 191.454972 133.068875 
L 191.699625 133.855361 
L 192.188931 134.571955 
L 192.433584 134.241704 
L 192.678237 134.125107 
L 192.92289 132.96602 
L 193.656849 134.797794 
L 193.901502 135.138355 
L 194.146155 134.64437 
L 194.390808 134.870555 
L 194.880114 135.860227 
L 195.36942 139.174086 
L 195.614073 139.069976 
L 195.858726 138.822493 
L 196.103379 139.180546 
L 196.348032 138.828074 
L 197.081991 138.50424 
L 197.326644 138.670353 
L 197.571297 139.078138 
L 197.81595 138.715184 
L 198.060603 140.384131 
L 198.549909 140.12742 
L 199.283868 139.606255 
L 199.528521 139.619174 
L 200.017827 140.932464 
L 200.26248 141.020164 
L 200.507133 140.581132 
L 200.751786 141.01095 
L 200.996439 141.666463 
L 201.241092 141.477869 
L 201.485745 141.6628 
L 201.730398 142.543431 
L 201.975051 142.964367 
L 202.219704 143.147769 
L 202.464357 143.683182 
L 202.70901 143.526989 
L 202.953663 143.99897 
L 203.198316 143.442548 
L 203.687622 143.809584 
L 203.932275 143.677745 
L 204.421581 144.09039 
L 204.666234 143.746253 
L 204.910887 144.428558 
L 205.15554 144.5901 
L 205.644846 144.544015 
L 205.889499 142.319352 
L 206.134152 142.316684 
L 206.378805 142.671809 
L 206.623458 142.47416 
L 206.868111 142.582725 
L 207.357417 143.599751 
L 207.60207 141.656586 
L 207.846723 140.863178 
L 208.091376 140.876285 
L 208.336029 139.790724 
L 208.580682 139.742202 
L 208.825335 140.606265 
L 209.069988 140.555133 
L 209.314641 141.397841 
L 209.559294 141.187777 
L 209.803947 141.563233 
L 210.048601 141.575201 
L 210.293254 141.901443 
L 210.537907 142.432645 
L 211.027213 142.025582 
L 211.271866 142.114118 
L 211.516519 141.614927 
L 211.761172 141.647515 
L 212.495131 142.548608 
L 212.739784 142.429704 
L 212.984437 142.567382 
L 213.22909 143.060286 
L 213.473743 143.145765 
L 213.718396 142.335833 
L 213.963049 142.245336 
L 214.452355 143.717716 
L 214.697008 144.155927 
L 214.941661 143.954803 
L 215.186314 144.063598 
L 215.67562 144.934137 
L 215.920273 144.608225 
L 216.409579 144.850632 
L 216.654232 145.347992 
L 217.143538 145.41412 
L 217.388191 145.006825 
L 217.632844 145.762583 
L 218.12215 144.993372 
L 218.366803 144.873372 
L 218.611456 144.897812 
L 218.856109 145.114207 
L 219.100762 145.031857 
L 219.345415 145.429477 
L 219.590068 143.50572 
L 219.834721 143.605056 
L 220.079374 143.100113 
L 220.56868 142.756653 
L 221.057986 141.668337 
L 221.302639 141.848322 
L 221.547292 141.18172 
L 222.281251 140.791383 
L 222.525904 140.895291 
L 223.259863 140.829479 
L 223.504516 141.388526 
L 223.749169 141.10459 
L 224.483128 142.518154 
L 224.727781 142.501009 
L 225.217087 142.828535 
L 225.706393 142.916465 
L 226.195699 143.623773 
L 226.440352 143.34872 
L 226.685005 144.347707 
L 226.929658 144.254541 
L 227.174311 144.865946 
L 227.663617 145.547053 
L 227.90827 145.238965 
L 228.152923 145.347847 
L 228.397576 145.265886 
L 228.642229 145.503665 
L 228.886882 146.277174 
L 229.131535 146.176741 
L 229.620841 146.306533 
L 230.110147 145.434047 
L 230.3548 146.022121 
L 230.599453 146.098574 
L 231.088759 146.727251 
L 231.333412 146.601686 
L 231.822718 147.036047 
L 232.067371 146.364239 
L 232.556678 146.744671 
L 233.290637 146.229286 
L 233.53529 145.550832 
L 233.779943 145.420133 
L 234.024596 145.669389 
L 234.269249 145.389636 
L 234.513902 145.469534 
L 234.758555 144.621996 
L 235.003208 144.91604 
L 235.247861 144.885844 
L 235.492514 144.727576 
L 235.737167 144.929103 
L 235.98182 144.656387 
L 236.226473 144.610863 
L 236.715779 144.834741 
L 236.960432 144.725442 
L 237.205085 143.710651 
L 237.449738 143.369917 
L 237.939044 144.007694 
L 238.183697 144.101825 
L 238.42835 143.889525 
L 238.917656 142.876884 
L 239.406962 143.403284 
L 239.651615 143.0787 
L 240.140921 142.722868 
L 240.630227 143.609541 
L 240.87488 143.015311 
L 241.119533 143.042131 
L 241.364186 142.953552 
L 241.608839 142.68134 
L 241.853492 142.847035 
L 242.098145 143.19185 
L 242.832104 142.833105 
L 243.076757 143.727536 
L 243.810716 142.71563 
L 244.055369 142.915658 
L 244.300022 142.264196 
L 245.278634 142.316122 
L 245.523287 142.764959 
L 245.76794 142.779335 
L 246.012593 143.338886 
L 246.257246 143.48771 
L 246.501899 143.776779 
L 246.746552 143.609498 
L 246.991205 143.307451 
L 247.725164 143.120804 
L 247.969817 142.587137 
L 248.703776 142.894807 
L 248.948429 143.111144 
L 249.437735 143.010048 
L 249.682388 143.31531 
L 249.927041 143.079334 
L 250.171694 143.037042 
L 250.416347 143.225246 
L 250.661 143.818293 
L 251.394959 143.031562 
L 251.639612 142.433814 
L 252.373571 143.020963 
L 252.618224 142.73749 
L 252.862877 142.170888 
L 253.10753 142.641052 
L 253.352183 142.121356 
L 253.596836 142.8002 
L 253.841489 144.032698 
L 254.086142 143.849771 
L 254.330795 143.168231 
L 254.575448 143.388129 
L 254.820101 143.799403 
L 255.064755 143.360155 
L 255.309408 143.688301 
L 255.554061 143.645475 
L 255.798714 143.164107 
L 256.532673 142.548969 
L 256.777326 143.055527 
L 257.266632 143.203775 
L 257.511285 143.043718 
L 258.000591 141.976296 
L 258.245244 142.029893 
L 258.489897 142.42881 
L 258.73455 141.978257 
L 258.979203 141.77383 
L 259.223856 142.488204 
L 259.468509 142.736091 
L 259.957815 141.661027 
L 260.202468 142.515429 
L 260.447121 142.717303 
L 260.691774 143.124468 
L 261.18108 142.45367 
L 261.425733 142.683301 
L 261.670386 142.594505 
L 261.915039 142.805651 
L 262.159692 142.585868 
L 262.893651 142.941252 
L 263.138304 142.564354 
L 263.382957 142.676005 
L 263.62761 143.08839 
L 264.116916 143.052081 
L 264.361569 142.910351 
L 264.606222 143.738423 
L 264.850875 143.857861 
L 265.095528 143.786916 
L 265.340181 143.252181 
L 265.584834 143.342044 
L 265.829487 143.152499 
L 266.07414 143.253494 
L 266.563446 143.613492 
L 266.808099 143.665431 
L 267.052752 144.013592 
L 267.297405 144.011472 
L 267.542058 143.474632 
L 267.786711 143.215786 
L 268.031364 143.380501 
L 268.276017 143.770377 
L 268.765323 143.001714 
L 269.009976 142.931187 
L 269.254629 143.374993 
L 269.499282 143.497501 
L 269.988588 144.184189 
L 270.233241 144.661232 
L 270.477894 143.749051 
L 270.722547 143.638712 
L 271.211853 144.263122 
L 271.701159 143.477747 
L 271.945812 143.240256 
L 272.190465 143.467393 
L 272.435118 143.514833 
L 272.924424 142.883719 
L 273.169077 143.183703 
L 273.41373 142.953855 
L 273.658383 142.966746 
L 273.903036 142.734851 
L 274.147689 142.667454 
L 274.392342 142.851606 
L 274.636995 142.717691 
L 275.126301 142.751981 
L 275.370954 143.276046 
L 275.615607 143.499967 
L 276.104913 142.500144 
L 276.349566 142.553179 
L 276.594219 141.981516 
L 277.083525 141.594639 
L 277.328178 141.964889 
L 277.572832 142.050152 
L 277.817485 141.227748 
L 278.062138 141.778027 
L 278.551444 141.63934 
L 279.04075 141.736888 
L 279.285403 142.090123 
L 279.530056 141.916614 
L 279.774709 141.599772 
L 280.019362 141.638028 
L 280.508668 142.609977 
L 280.997974 142.747857 
L 281.242627 142.281414 
L 281.48728 142.385566 
L 281.731933 142.213973 
L 281.976586 142.870827 
L 282.465892 143.34748 
L 282.710545 142.9957 
L 282.955198 143.776865 
L 283.444504 144.225083 
L 283.689157 144.151313 
L 283.93381 143.712641 
L 284.178463 143.654429 
L 284.423116 143.79029 
L 284.667769 143.465821 
L 284.912422 143.594112 
L 285.157075 143.056767 
L 285.401728 143.01002 
L 285.646381 142.476827 
L 286.38034 143.65554 
L 286.624993 143.357256 
L 286.869646 143.262852 
L 287.114299 142.924627 
L 287.358952 142.855643 
L 287.603605 143.232614 
L 287.848258 142.90343 
L 288.092911 142.880546 
L 288.582217 144.010491 
L 288.82687 143.981537 
L 289.316176 144.448124 
L 289.560829 144.557511 
L 290.050135 143.985185 
L 290.294788 144.322819 
L 290.539441 143.750867 
L 291.2734 143.687623 
L 291.518053 143.954183 
L 291.762706 143.527364 
L 292.007359 143.453882 
L 292.496665 143.628647 
L 292.741318 143.697947 
L 292.985971 143.465879 
L 293.230624 143.570724 
L 293.71993 143.154763 
L 293.964583 143.272167 
L 294.453889 142.398097 
L 294.698542 142.738615 
L 294.943195 142.872846 
L 295.187848 143.239882 
L 295.677154 142.4077 
L 296.411113 142.166648 
L 296.655766 142.140794 
L 296.900419 141.90502 
L 297.145072 141.886073 
L 297.389725 142.320736 
L 297.634378 142.153469 
L 297.879031 142.263807 
L 298.123684 141.245671 
L 298.368337 141.492 
L 298.61299 141.173718 
L 298.857643 141.582065 
L 299.102296 141.646203 
L 299.346949 141.228599 
L 299.591602 140.406395 
L 299.836256 140.431471 
L 300.080909 139.984652 
L 300.325562 139.973837 
L 300.570215 140.440728 
L 300.814868 140.331976 
L 301.059521 140.389135 
L 301.304174 140.822717 
L 301.548827 140.498075 
L 301.79348 140.44243 
L 302.038133 140.693835 
L 302.282786 140.334038 
L 302.772092 140.937785 
L 303.016745 140.497296 
L 303.261398 140.708456 
L 303.506051 141.239658 
L 303.750704 141.177048 
L 304.24001 142.027168 
L 304.484663 140.900049 
L 304.973969 141.218231 
L 305.463275 141.014512 
L 305.707928 141.131858 
L 305.952581 140.804692 
L 306.197234 140.684938 
L 306.441887 140.702746 
L 306.68654 141.045889 
L 306.931193 140.869768 
L 307.175846 140.53597 
L 307.420499 140.654052 
L 308.154458 141.550818 
L 308.399111 140.889811 
L 308.643764 141.165657 
L 308.888417 140.148314 
L 309.13307 140.361637 
L 309.377723 139.688792 
L 309.622376 140.25375 
L 309.867029 140.35323 
L 310.111682 140.281031 
L 310.356335 140.511096 
L 310.600988 141.020279 
L 311.090294 140.196634 
L 311.5796 141.005543 
L 311.824253 140.766639 
L 312.068906 141.004533 
L 312.313559 140.95418 
L 312.558212 140.392624 
L 312.802865 140.646106 
L 313.047518 140.279013 
L 313.292171 140.186583 
L 313.536824 139.616824 
L 313.781477 139.578021 
L 314.02613 139.905243 
L 314.270783 139.652599 
L 314.515436 139.631459 
L 314.760089 139.49319 
L 315.004742 139.637141 
L 315.249395 139.311389 
L 315.494048 139.309038 
L 315.738701 138.984916 
L 316.228007 138.91935 
L 316.47266 139.0233 
L 316.717313 138.975139 
L 316.961966 138.235978 
L 317.206619 138.374016 
L 317.451272 138.174032 
L 317.695925 138.246476 
L 317.940578 138.600361 
L 318.185231 137.456183 
L 318.429884 136.90863 
L 318.91919 137.659989 
L 319.163843 137.510069 
L 319.408496 137.84841 
L 319.653149 137.456573 
L 319.897802 137.834725 
L 320.142455 137.468815 
L 320.387108 137.513227 
L 320.631761 137.26635 
L 321.121067 136.623339 
L 321.36572 136.625631 
L 321.610373 137.275679 
L 322.099679 137.426753 
L 322.588986 138.69501 
L 322.833639 138.559395 
L 323.567598 139.602693 
L 323.812251 139.909051 
L 324.056904 140.005315 
L 324.790863 140.03861 
L 325.280169 141.110301 
L 325.769475 141.044749 
L 326.014128 141.074857 
L 326.258781 142.179337 
L 326.503434 142.474592 
L 326.748087 142.584224 
L 326.99274 142.478529 
L 327.237393 142.689617 
L 327.482046 142.436395 
L 328.216005 143.243962 
L 328.705311 143.368893 
L 328.949964 142.81263 
L 329.194617 142.902493 
L 329.43927 143.463774 
L 329.683923 143.674977 
L 330.173229 144.540439 
L 330.417882 144.30452 
L 330.662535 145.746951 
L 330.907188 145.866519 
L 331.151841 146.977691 
L 331.396494 147.019421 
L 331.8858 145.594422 
L 332.130453 145.541833 
L 332.375106 146.298516 
L 332.619759 146.370483 
L 332.864412 146.212604 
L 333.109065 146.555067 
L 333.598371 146.707468 
L 334.087677 146.35889 
L 334.33233 146.514145 
L 334.576983 146.094695 
L 334.821636 146.17827 
L 335.066289 145.907744 
L 335.310942 145.874651 
L 335.800248 146.386085 
L 336.044901 146.988967 
L 336.289554 147.079882 
L 336.77886 147.683355 
L 337.023513 148.168976 
L 337.512819 148.560294 
L 337.757472 147.933735 
L 338.002125 147.883209 
L 338.246778 148.524534 
L 338.491431 148.797496 
L 338.736084 148.741361 
L 338.980737 149.122181 
L 339.470043 149.304603 
L 339.714696 150.174102 
L 339.959349 150.11566 
L 340.204002 149.847038 
L 340.448655 149.777479 
L 340.937961 149.271222 
L 341.182614 148.997668 
L 341.427267 149.502036 
L 341.67192 149.391741 
L 342.405879 150.028205 
L 342.650532 149.685683 
L 342.895185 150.100764 
L 343.139838 150.196481 
L 343.873797 148.478003 
L 344.363103 148.506134 
L 344.607756 148.461636 
L 344.85241 147.704393 
L 345.097063 147.72745 
L 345.586369 148.841231 
L 346.564981 148.108948 
L 346.809634 148.185141 
L 347.054287 147.875006 
L 347.29894 147.944176 
L 347.543593 147.616073 
L 347.788246 147.50797 
L 348.032899 147.692209 
L 348.277552 147.538539 
L 348.766858 147.664437 
L 349.011511 147.553983 
L 349.256164 147.629382 
L 349.74547 147.278627 
L 349.990123 147.122737 
L 350.479429 147.417458 
L 350.968735 147.45358 
L 351.458041 146.224701 
L 351.702694 146.040491 
L 351.947347 146.116266 
L 352.192 145.942669 
L 352.436653 145.938746 
L 352.925959 145.502166 
L 353.415265 145.941659 
L 353.659918 145.991753 
L 353.904571 147.223645 
L 354.149224 147.475785 
L 354.393877 147.345274 
L 354.63853 147.35133 
L 354.883183 147.135455 
L 355.372489 148.346799 
L 355.617142 148.421592 
L 355.861795 148.104305 
L 356.595754 148.181349 
L 356.840407 148.080541 
L 357.08506 148.502891 
L 357.329713 148.476762 
L 357.574366 148.831165 
L 357.819019 148.760496 
L 358.063672 148.969075 
L 358.308325 148.937828 
L 358.552978 149.848652 
L 358.797631 150.093642 
L 359.042284 149.987542 
L 359.286937 149.594999 
L 359.53159 150.313928 
L 360.265549 150.577431 
L 360.510202 150.162465 
L 360.754855 150.025293 
L 360.999508 150.188954 
L 361.244161 149.895416 
L 361.488814 149.819295 
L 361.733467 150.08 
L 361.97812 149.835056 
L 362.222773 149.806994 
L 362.467426 149.572981 
L 362.712079 149.555459 
L 362.956732 149.278172 
L 363.446038 148.440496 
L 363.690691 148.503266 
L 363.935344 148.39297 
L 364.179997 148.952262 
L 364.42465 148.54514 
L 364.669303 148.510908 
L 365.158609 147.690723 
L 365.647915 148.144074 
L 366.137221 148.563971 
L 366.381874 148.4254 
L 367.115833 150.096827 
L 367.360487 150.037189 
L 367.60514 150.617748 
L 367.849793 150.083389 
L 368.339099 150.246156 
L 368.583752 150.528391 
L 368.828405 150.345407 
L 369.073058 150.335631 
L 369.317711 150.067167 
L 369.562364 149.517364 
L 369.807017 149.47226 
L 370.05167 149.646636 
L 370.296323 149.188828 
L 370.540976 149.323305 
L 370.785629 150.074938 
L 371.274935 150.130988 
L 371.519588 151.099044 
L 371.764241 151.142707 
L 372.253547 151.512324 
L 373.232159 150.551751 
L 373.476812 150.728578 
L 373.721465 150.662306 
L 374.455424 151.012917 
L 375.189383 150.105985 
L 375.434036 150.041745 
L 375.678689 150.213511 
L 375.923342 149.79435 
L 376.167995 149.927615 
L 376.412648 149.874118 
L 376.901954 150.18992 
L 377.39126 150.911086 
L 378.125219 151.266745 
L 378.614525 151.181194 
L 378.859178 150.694086 
L 379.103831 150.577562 
L 379.593137 150.549371 
L 379.83779 150.940185 
L 380.082443 150.773826 
L 380.327096 151.249729 
L 380.571749 151.14314 
L 380.816402 150.48963 
L 381.061055 150.390381 
L 381.550361 149.199874 
L 381.795014 149.170675 
L 382.039667 148.467015 
L 382.28432 148.623063 
L 382.528973 149.141013 
L 383.018279 149.534538 
L 383.262932 149.5398 
L 383.507585 149.179426 
L 383.507585 149.179426 
" style="fill:none;stroke:#1f77b4;stroke-linecap:square;stroke-width:1.5;"/>
   </g>
   <g id="line2d_28">
    <path clip-path="url(#p6abae635e1)" d="M 58.85304 126.275873 
L 59.097693 138.541504 
L 59.342346 141.673154 
L 59.586999 136.192766 
L 59.831652 113.749271 
L 60.076305 129.407523 
L 60.320958 128.36364 
L 60.565611 125.49296 
L 60.810264 134.887911 
L 61.054917 125.49296 
L 61.29957 132.539174 
L 61.544223 129.146552 
L 61.788876 134.626941 
L 62.033529 127.058785 
L 62.278182 128.62461 
L 62.767488 135.931795 
L 63.012141 132.539174 
L 63.256794 133.844028 
L 63.501447 123.666164 
L 63.7461 142.978008 
L 63.990753 135.670824 
L 64.235406 121.839368 
L 64.480059 134.887911 
L 64.724712 132.800144 
L 64.969365 135.409853 
L 65.214018 136.453737 
L 65.458671 108.007911 
L 65.703324 134.626941 
L 65.947977 129.668494 
L 66.19263 131.234319 
L 66.437283 130.973348 
L 66.681936 127.841698 
L 66.926589 117.663834 
L 67.171242 131.756261 
L 67.415895 134.887911 
L 67.660548 150.285193 
L 67.905201 111.400533 
L 68.149854 135.148882 
L 68.394507 132.539174 
L 68.63916 136.453737 
L 68.883813 137.758591 
L 69.128466 124.710047 
L 69.373119 133.061115 
L 69.617772 135.670824 
L 69.862425 127.580727 
L 70.107078 133.061115 
L 70.351731 119.751601 
L 70.841037 130.712377 
L 71.08569 146.37063 
L 71.819649 111.139562 
L 72.064302 146.37063 
L 72.308955 84.520533 
L 72.553608 125.753931 
L 72.798261 120.795484 
L 73.042914 138.541504 
L 73.53222 141.673154 
L 73.776873 129.668494 
L 74.021526 123.927135 
L 74.266179 136.453737 
L 74.510832 132.800144 
L 74.755485 121.056455 
L 75.000138 149.241309 
L 75.244792 130.451407 
L 75.489445 122.361309 
L 75.734098 145.587717 
L 75.978751 140.107329 
L 76.223404 128.62461 
L 76.468057 135.931795 
L 76.957363 141.412183 
L 77.202016 130.451407 
L 77.446669 126.014902 
L 77.691322 117.141892 
L 77.935975 121.839368 
L 78.180628 128.885581 
L 78.425281 115.315096 
L 78.669934 134.887911 
L 78.914587 138.280533 
L 79.15924 121.578397 
L 79.403893 125.231989 
L 79.648546 118.185775 
L 79.893199 146.892572 
L 80.137852 134.104999 
L 80.382505 132.800144 
L 80.627158 120.534513 
L 80.871811 132.017232 
L 81.116464 130.973348 
L 81.361117 124.188106 
L 81.60577 134.626941 
L 81.850423 139.846358 
L 82.095076 128.62461 
L 82.339729 124.188106 
L 82.584382 122.361309 
L 82.829035 134.887911 
L 83.073688 132.017232 
L 83.318341 142.717038 
L 83.562994 138.541504 
L 83.807647 141.151212 
L 84.0523 132.800144 
L 84.296953 138.802475 
L 84.541606 110.61762 
L 84.786259 126.275873 
L 85.275565 138.019562 
L 85.520218 142.195096 
L 85.764871 139.324416 
L 86.009524 102.005581 
L 86.254177 126.014902 
L 86.49883 127.580727 
L 86.743483 139.063445 
L 86.988136 125.49296 
L 87.232789 123.405193 
L 87.477442 118.968688 
L 88.211401 135.670824 
L 88.456054 129.407523 
L 88.700707 154.199756 
L 89.190013 122.883251 
L 89.434666 134.887911 
L 89.679319 117.402863 
L 89.923972 114.532183 
L 90.168625 117.402863 
L 90.413278 115.576067 
L 90.657931 127.319756 
L 90.902584 126.797814 
L 91.147237 114.010242 
L 91.39189 132.278203 
L 91.636543 120.534513 
L 91.881196 122.62228 
L 92.125849 126.797814 
L 92.370502 138.802475 
L 92.615155 121.839368 
L 92.859808 142.195096 
L 93.104461 140.107329 
L 93.349114 128.36364 
L 93.593767 145.587717 
L 93.83842 124.710047 
L 94.083073 114.793154 
L 94.327726 132.800144 
L 94.572379 137.49762 
L 95.061685 116.098008 
L 95.306338 136.975678 
L 95.550991 122.62228 
L 95.795644 126.536843 
L 96.040297 124.710047 
L 96.28495 132.539174 
L 96.529603 122.883251 
L 96.774256 121.056455 
L 97.018909 135.148882 
L 97.263562 140.107329 
L 97.752869 118.185775 
L 97.997522 123.666164 
L 98.242175 113.749271 
L 98.731481 129.668494 
L 98.976134 136.453737 
L 99.220787 120.012572 
L 99.46544 136.714708 
L 99.710093 118.707717 
L 99.954746 157.853348 
L 100.199399 123.405193 
L 100.444052 147.675484 
L 100.688705 123.927135 
L 100.933358 121.839368 
L 101.178011 110.356649 
L 101.91197 157.070436 
L 102.401276 110.095678 
L 102.645929 125.753931 
L 102.890582 130.190436 
L 103.135235 129.407523 
L 103.379888 127.319756 
L 103.624541 130.190436 
L 103.869194 115.837038 
L 104.113847 135.409853 
L 104.3585 126.797814 
L 104.603153 108.790824 
L 104.847806 150.024222 
L 105.337112 116.358979 
L 105.581765 126.536843 
L 105.826418 121.317426 
L 106.071071 121.317426 
L 106.315724 135.670824 
L 106.560377 133.583057 
L 107.049683 120.273542 
L 107.294336 129.146552 
L 107.538989 142.978008 
L 107.783642 115.315096 
L 108.028295 147.153542 
L 108.272948 118.446746 
L 108.517601 151.329076 
L 108.762254 144.543834 
L 109.006907 123.666164 
L 109.25156 128.36364 
L 109.496213 153.938785 
L 109.740866 126.797814 
L 109.985519 137.758591 
L 110.230172 126.014902 
L 110.474825 134.36597 
L 110.719478 152.37296 
L 110.964131 122.361309 
L 111.208784 108.529853 
L 111.453437 137.49762 
L 111.69809 136.192766 
L 111.942743 150.807135 
L 112.187396 106.964028 
L 112.432049 135.670824 
L 112.676702 137.49762 
L 112.921355 115.576067 
L 113.166008 126.797814 
L 113.410661 162.028882 
L 113.655314 128.36364 
L 113.899967 136.192766 
L 114.14462 119.49063 
L 114.389273 128.885581 
L 114.633926 117.141892 
L 114.878579 122.100339 
L 115.123232 122.100339 
L 115.367885 146.892572 
L 115.612538 133.844028 
L 115.857191 111.139562 
L 116.101844 122.361309 
L 116.346497 121.578397 
L 116.59115 127.319756 
L 116.835803 126.536843 
L 117.080456 120.795484 
L 117.325109 142.717038 
L 117.569762 138.802475 
L 117.814415 213.701115 
L 118.059068 119.229659 
L 118.303721 163.072766 
L 118.793027 122.361309 
L 119.03768 138.541504 
L 119.282333 122.883251 
L 119.526986 122.100339 
L 119.771639 137.236649 
L 120.016292 142.195096 
L 120.260946 132.800144 
L 120.505599 113.4883 
L 120.750252 127.319756 
L 120.994905 130.451407 
L 121.239558 136.975678 
L 121.484211 138.802475 
L 121.728864 115.054125 
L 122.21817 144.021892 
L 122.462823 126.014902 
L 122.707476 129.929465 
L 122.952129 146.109659 
L 123.196782 140.890242 
L 123.686088 120.273542 
L 123.930741 143.238979 
L 124.175394 127.319756 
L 124.420047 129.929465 
L 124.6647 139.063445 
L 124.909353 154.199756 
L 125.154006 126.014902 
L 125.398659 139.585387 
L 125.643312 128.102669 
L 125.887965 122.62228 
L 126.132618 122.883251 
L 126.377271 131.49529 
L 126.621924 127.841698 
L 126.866577 113.4883 
L 127.355883 137.236649 
L 127.600536 139.585387 
L 127.845189 117.924805 
L 128.089842 133.583057 
L 128.823801 112.183445 
L 129.068454 140.629271 
L 129.313107 140.629271 
L 129.55776 128.885581 
L 129.802413 147.153542 
L 130.047066 130.190436 
L 130.536372 136.453737 
L 130.781025 119.751601 
L 131.270331 136.975678 
L 131.514984 121.317426 
L 131.759637 167.509271 
L 132.00429 150.807135 
L 132.248943 121.317426 
L 132.738249 117.141892 
L 132.982902 126.014902 
L 133.227555 141.151212 
L 133.472208 120.012572 
L 133.716861 119.49063 
L 133.961514 123.666164 
L 134.206167 130.190436 
L 134.45082 123.666164 
L 134.695473 126.797814 
L 134.940126 111.400533 
L 135.184779 127.319756 
L 135.429432 129.146552 
L 135.674085 110.356649 
L 135.918738 137.49762 
L 136.163391 138.280533 
L 136.408044 119.751601 
L 136.652697 111.922475 
L 136.89735 144.021892 
L 137.142003 134.626941 
L 137.386656 149.241309 
L 137.631309 131.756261 
L 137.875962 126.536843 
L 138.120615 126.536843 
L 138.365268 103.832377 
L 138.609921 123.405193 
L 138.854574 122.100339 
L 139.099227 134.36597 
L 139.34388 137.236649 
L 139.588533 135.670824 
L 139.833186 126.275873 
L 140.077839 133.583057 
L 140.322492 135.409853 
L 140.567145 120.795484 
L 140.811798 121.578397 
L 141.301104 143.238979 
L 141.545757 130.190436 
L 141.79041 137.758591 
L 142.035063 125.231989 
L 142.279716 118.707717 
L 142.524369 133.583057 
L 142.769023 128.36364 
L 143.013676 152.633931 
L 143.258329 134.104999 
L 143.502982 129.407523 
L 143.992288 142.195096 
L 144.236941 118.446746 
L 144.481594 133.844028 
L 144.726247 119.229659 
L 144.9709 119.229659 
L 145.215553 135.670824 
L 145.460206 116.880921 
L 145.949512 109.312766 
L 146.194165 137.236649 
L 146.438818 135.931795 
L 146.683471 144.543834 
L 146.928124 137.49762 
L 147.172777 146.109659 
L 147.662083 136.192766 
L 147.906736 136.975678 
L 148.151389 146.631601 
L 148.396042 137.758591 
L 148.640695 134.887911 
L 148.885348 128.36364 
L 149.374654 146.631601 
L 149.619307 122.883251 
L 149.86396 150.546164 
L 150.108613 129.929465 
L 150.353266 129.929465 
L 150.597919 132.278203 
L 150.842572 147.414513 
L 151.087225 114.010242 
L 151.331878 265.89529 
L 151.821184 112.705387 
L 152.065837 138.541504 
L 152.31049 123.927135 
L 152.555143 125.49296 
L 152.799796 135.148882 
L 153.044449 122.361309 
L 153.289102 139.324416 
L 153.533755 123.927135 
L 154.023061 161.767911 
L 154.512367 122.883251 
L 154.75702 130.973348 
L 155.001673 120.273542 
L 155.246326 120.012572 
L 155.490979 116.61995 
L 155.735632 125.231989 
L 155.980285 126.797814 
L 156.224938 141.673154 
L 156.469591 116.098008 
L 156.714244 131.234319 
L 156.958897 117.663834 
L 157.20355 135.931795 
L 157.448203 134.36597 
L 157.692856 137.758591 
L 157.937509 132.539174 
L 158.182162 137.758591 
L 158.426815 125.49296 
L 158.916121 117.141892 
L 159.160774 130.712377 
L 159.405427 120.534513 
L 159.65008 128.62461 
L 159.894733 127.058785 
L 160.139386 133.322086 
L 160.384039 120.273542 
L 160.628692 123.927135 
L 160.873345 117.402863 
L 161.117998 126.797814 
L 161.362651 128.36364 
L 161.607304 128.102669 
L 161.851957 141.934125 
L 162.09661 143.760921 
L 162.341263 160.984999 
L 162.585916 122.883251 
L 163.075222 143.760921 
L 163.319875 135.148882 
L 163.564528 122.62228 
L 163.809181 122.62228 
L 164.053834 146.109659 
L 164.298487 141.673154 
L 164.54314 117.663834 
L 164.787793 137.758591 
L 165.032447 135.148882 
L 165.521753 122.883251 
L 165.766406 120.012572 
L 166.011059 126.014902 
L 166.255712 114.793154 
L 166.500365 126.536843 
L 166.745018 126.536843 
L 166.989671 136.714708 
L 167.234324 135.409853 
L 167.478977 124.710047 
L 167.72363 133.844028 
L 167.968283 127.580727 
L 168.212936 124.449076 
L 168.457589 129.407523 
L 168.702242 143.238979 
L 168.946895 143.238979 
L 169.191548 128.102669 
L 169.436201 135.931795 
L 169.680854 135.931795 
L 169.925507 134.626941 
L 170.17016 123.927135 
L 170.414813 133.583057 
L 170.659466 127.580727 
L 170.904119 136.714708 
L 171.148772 122.361309 
L 171.638078 135.931795 
L 171.882731 135.931795 
L 172.127384 120.012572 
L 172.372037 124.971018 
L 172.61669 138.541504 
L 172.861343 122.62228 
L 173.105996 136.453737 
L 173.350649 132.278203 
L 173.595302 140.107329 
L 174.084608 127.841698 
L 174.329261 129.407523 
L 174.573914 116.358979 
L 174.818567 138.019562 
L 175.06322 122.883251 
L 175.307873 126.275873 
L 175.552526 137.49762 
L 175.797179 133.844028 
L 176.041832 127.058785 
L 176.286485 128.102669 
L 176.531138 140.3683 
L 176.775791 118.446746 
L 177.020444 136.192766 
L 177.265097 116.880921 
L 177.50975 140.890242 
L 177.754403 136.453737 
L 177.999056 121.578397 
L 178.243709 139.063445 
L 178.488362 134.104999 
L 178.733015 117.141892 
L 178.977668 149.763251 
L 179.222321 128.62461 
L 179.466974 198.042863 
L 179.711627 137.758591 
L 179.95628 137.236649 
L 180.200933 143.49995 
L 180.690239 127.841698 
L 180.934892 133.583057 
L 181.179545 127.841698 
L 181.424198 135.409853 
L 181.668851 119.49063 
L 181.913504 138.019562 
L 182.158157 135.409853 
L 182.40281 131.234319 
L 182.892116 127.841698 
L 183.136769 136.975678 
L 183.381422 115.315096 
L 183.870728 143.49995 
L 184.115381 133.844028 
L 184.360034 129.929465 
L 184.604687 133.322086 
L 184.84934 124.971018 
L 185.338646 139.846358 
L 185.583299 121.056455 
L 185.827952 138.541504 
L 186.072605 134.104999 
L 186.317258 136.453737 
L 186.561911 126.275873 
L 186.806564 134.626941 
L 187.051217 136.453737 
L 187.29587 128.62461 
L 187.540524 132.800144 
L 187.785177 120.012572 
L 188.02983 126.536843 
L 188.519136 144.543834 
L 188.763789 128.62461 
L 189.008442 126.275873 
L 189.253095 137.49762 
L 189.497748 131.49529 
L 189.742401 137.236649 
L 189.987054 128.885581 
L 190.231707 134.104999 
L 190.47636 135.148882 
L 190.721013 158.37529 
L 191.210319 141.412183 
L 191.454972 143.238979 
L 191.944278 139.585387 
L 192.188931 126.536843 
L 192.433584 135.931795 
L 192.678237 114.010242 
L 192.92289 113.749271 
L 193.412196 141.673154 
L 193.656849 128.36364 
L 193.901502 155.24364 
L 194.146155 128.102669 
L 194.390808 144.804805 
L 194.635461 118.968688 
L 195.124767 154.982669 
L 195.36942 152.894902 
L 195.614073 113.227329 
L 195.858726 129.146552 
L 196.103379 119.229659 
L 196.592685 129.146552 
L 196.837338 122.100339 
L 197.081991 123.144222 
L 197.326644 132.800144 
L 197.571297 132.800144 
L 197.81595 124.188106 
L 198.060603 129.407523 
L 198.305256 130.451407 
L 198.549909 127.058785 
L 198.794562 126.014902 
L 199.039215 126.275873 
L 199.283868 135.409853 
L 199.528521 150.546164 
L 199.773174 116.358979 
L 200.017827 134.887911 
L 200.26248 135.409853 
L 200.507133 135.409853 
L 200.751786 129.146552 
L 200.996439 125.753931 
L 201.241092 119.229659 
L 201.485745 133.322086 
L 201.730398 137.49762 
L 201.975051 131.234319 
L 202.219704 139.063445 
L 202.464357 113.4883 
L 202.70901 156.548494 
L 202.953663 130.712377 
L 203.198316 139.063445 
L 203.442969 120.273542 
L 203.932275 133.061115 
L 204.176928 131.756261 
L 204.421581 144.282863 
L 204.666234 107.746941 
L 204.910887 141.412183 
L 205.15554 135.409853 
L 205.400193 132.539174 
L 205.889499 119.751601 
L 206.134152 183.167523 
L 206.378805 121.317426 
L 206.623458 109.573737 
L 206.868111 135.148882 
L 207.112764 122.361309 
L 207.357417 125.231989 
L 207.60207 132.017232 
L 207.846723 125.231989 
L 208.091376 143.49995 
L 208.336029 131.234319 
L 208.580682 147.936455 
L 208.825335 128.36364 
L 209.069988 129.146552 
L 209.314641 153.938785 
L 209.559294 135.931795 
L 209.803947 147.675484 
L 210.048601 139.324416 
L 210.293254 145.326746 
L 210.537907 120.012572 
L 210.78256 132.800144 
L 211.027213 123.405193 
L 211.271866 121.317426 
L 211.761172 167.509271 
L 212.005825 134.36597 
L 212.250478 118.707717 
L 212.495131 133.061115 
L 212.739784 130.973348 
L 212.984437 104.61529 
L 213.22909 126.797814 
L 213.473743 134.626941 
L 213.963049 125.231989 
L 214.207702 138.802475 
L 214.452355 143.238979 
L 214.697008 144.282863 
L 214.941661 117.663834 
L 215.186314 126.536843 
L 215.430967 146.37063 
L 215.67562 139.324416 
L 215.920273 154.199756 
L 216.164926 132.017232 
L 216.409579 140.890242 
L 216.654232 132.800144 
L 216.898885 115.315096 
L 217.143538 125.231989 
L 217.388191 126.275873 
L 217.632844 124.710047 
L 217.877497 122.100339 
L 218.12215 144.282863 
L 218.366803 139.063445 
L 218.611456 142.717038 
L 218.856109 133.061115 
L 219.100762 144.804805 
L 219.345415 141.412183 
L 219.590068 103.832377 
L 219.834721 147.153542 
L 220.079374 130.712377 
L 220.324027 146.892572 
L 220.56868 143.49995 
L 221.057986 124.971018 
L 221.302639 126.275873 
L 221.547292 149.241309 
L 221.791945 140.629271 
L 222.036598 140.3683 
L 222.770557 125.753931 
L 223.01521 124.971018 
L 223.259863 142.195096 
L 223.504516 95.74228 
L 223.749169 133.583057 
L 223.993822 129.929465 
L 224.238475 122.361309 
L 224.483128 132.017232 
L 224.972434 124.449076 
L 225.217087 109.834708 
L 225.46174 133.583057 
L 225.706393 92.349659 
L 225.951046 118.707717 
L 226.195699 130.973348 
L 226.440352 101.222669 
L 226.685005 116.358979 
L 226.929658 97.569076 
L 227.174311 167.509271 
L 227.418964 135.931795 
L 227.663617 135.670824 
L 227.90827 138.019562 
L 228.152923 134.626941 
L 228.642229 136.714708 
L 228.886882 141.934125 
L 229.131535 140.629271 
L 229.376188 122.883251 
L 229.620841 124.188106 
L 229.865494 144.543834 
L 230.110147 149.50228 
L 230.3548 116.358979 
L 230.599453 125.231989 
L 230.844106 148.458397 
L 231.088759 138.019562 
L 231.333412 137.49762 
L 231.578065 121.578397 
L 231.822718 125.231989 
L 232.067371 138.019562 
L 232.312024 129.929465 
L 232.556678 137.49762 
L 232.801331 132.278203 
L 233.045984 131.234319 
L 233.290637 136.714708 
L 233.53529 128.885581 
L 233.779943 139.063445 
L 234.024596 123.927135 
L 234.269249 125.753931 
L 234.513902 126.014902 
L 234.758555 122.100339 
L 235.003208 124.710047 
L 235.247861 142.978008 
L 235.492514 137.758591 
L 235.737167 117.663834 
L 235.98182 116.098008 
L 236.471126 139.585387 
L 236.715779 126.014902 
L 236.960432 132.539174 
L 237.205085 132.800144 
L 237.449738 133.844028 
L 237.694391 123.666164 
L 237.939044 157.070436 
L 238.42835 114.010242 
L 238.673003 138.019562 
L 238.917656 138.802475 
L 239.162309 123.927135 
L 239.651615 137.758591 
L 239.896268 141.412183 
L 240.140921 112.183445 
L 240.385574 138.280533 
L 240.630227 136.975678 
L 240.87488 142.456067 
L 241.119533 152.894902 
L 241.364186 138.802475 
L 241.608839 138.280533 
L 241.853492 131.756261 
L 242.342798 139.324416 
L 242.832104 131.49529 
L 243.076757 129.407523 
L 243.32141 122.62228 
L 243.810716 149.241309 
L 244.055369 128.102669 
L 244.300022 122.883251 
L 244.544675 138.802475 
L 245.033981 112.183445 
L 245.278634 137.236649 
L 245.523287 133.061115 
L 245.76794 134.626941 
L 246.012593 130.712377 
L 246.257246 122.62228 
L 246.501899 144.282863 
L 246.746552 141.151212 
L 246.991205 124.449076 
L 247.235858 135.670824 
L 247.480511 160.724028 
L 247.725164 130.973348 
L 247.969817 122.883251 
L 248.21447 102.788494 
L 248.459123 121.317426 
L 248.703776 124.971018 
L 248.948429 153.416843 
L 249.193082 121.578397 
L 249.437735 126.536843 
L 249.682388 138.280533 
L 249.927041 126.275873 
L 250.171694 135.931795 
L 250.416347 132.278203 
L 250.661 135.148882 
L 251.150306 120.534513 
L 251.394959 107.48597 
L 251.884265 151.590047 
L 252.128918 127.058785 
L 252.373571 139.324416 
L 252.618224 134.887911 
L 252.862877 134.104999 
L 253.10753 130.190436 
L 253.352183 157.592377 
L 253.841489 130.190436 
L 254.086142 163.072766 
L 254.575448 86.869271 
L 254.820101 128.885581 
L 255.064755 127.841698 
L 255.309408 117.663834 
L 255.554061 130.451407 
L 255.798714 127.319756 
L 256.043367 131.49529 
L 256.28802 129.668494 
L 256.532673 130.712377 
L 256.777326 95.481309 
L 257.021979 150.546164 
L 257.266632 114.271212 
L 257.511285 129.146552 
L 257.755938 114.271212 
L 258.489897 146.631601 
L 258.73455 116.61995 
L 259.223856 132.278203 
L 259.468509 121.056455 
L 259.713162 121.578397 
L 259.957815 142.717038 
L 260.202468 133.061115 
L 260.447121 135.409853 
L 260.691774 128.885581 
L 260.936427 140.3683 
L 261.18108 138.802475 
L 261.425733 146.109659 
L 261.670386 137.758591 
L 261.915039 115.837038 
L 262.159692 106.703057 
L 262.404345 140.3683 
L 262.648998 129.668494 
L 262.893651 127.319756 
L 263.138304 156.809465 
L 263.382957 109.573737 
L 263.62761 119.49063 
L 263.872263 139.585387 
L 264.116916 121.056455 
L 264.361569 131.756261 
L 264.606222 136.453737 
L 264.850875 134.626941 
L 265.095528 103.310436 
L 265.584834 140.629271 
L 266.07414 124.188106 
L 266.318793 113.227329 
L 266.563446 109.573737 
L 266.808099 130.451407 
L 267.052752 119.49063 
L 267.297405 148.719368 
L 267.542058 148.197426 
L 267.786711 126.014902 
L 268.031364 114.271212 
L 268.276017 114.271212 
L 268.52067 130.190436 
L 268.765323 136.714708 
L 269.009976 125.49296 
L 269.254629 137.236649 
L 269.499282 138.019562 
L 269.743935 124.188106 
L 269.988588 135.409853 
L 270.233241 139.846358 
L 270.477894 127.319756 
L 270.722547 134.36597 
L 270.9672 136.975678 
L 271.211853 120.273542 
L 271.456506 153.155873 
L 271.701159 129.929465 
L 271.945812 146.892572 
L 272.190465 152.37296 
L 272.679771 109.051795 
L 272.924424 120.012572 
L 273.169077 117.924805 
L 273.41373 121.317426 
L 273.658383 134.626941 
L 274.147689 120.273542 
L 274.392342 152.633931 
L 274.636995 34.414125 
L 274.881648 97.047135 
L 275.370954 143.49995 
L 275.615607 127.058785 
L 275.86026 151.590047 
L 276.104913 154.982669 
L 276.349566 138.541504 
L 276.594219 110.095678 
L 276.838872 141.673154 
L 277.083525 90.261892 
L 277.328178 142.456067 
L 277.572832 122.62228 
L 277.817485 115.054125 
L 278.062138 142.195096 
L 278.551444 109.573737 
L 278.796097 148.458397 
L 279.04075 130.712377 
L 279.285403 129.929465 
L 279.530056 137.49762 
L 279.774709 121.317426 
L 280.019362 122.100339 
L 280.264015 150.807135 
L 280.508668 120.012572 
L 280.753321 119.49063 
L 280.997974 125.753931 
L 281.242627 122.100339 
L 281.48728 146.109659 
L 281.731933 136.714708 
L 281.976586 146.109659 
L 282.465892 114.271212 
L 282.710545 131.756261 
L 283.199851 140.890242 
L 283.444504 124.449076 
L 283.689157 134.104999 
L 283.93381 130.190436 
L 284.423116 109.834708 
L 284.667769 130.190436 
L 284.912422 114.271212 
L 285.157075 142.717038 
L 285.401728 150.024222 
L 285.646381 135.409853 
L 285.891034 143.238979 
L 286.624993 118.707717 
L 286.869646 121.578397 
L 287.114299 134.626941 
L 287.358952 118.707717 
L 287.848258 131.49529 
L 288.337564 180.818785 
L 288.582217 107.746941 
L 288.82687 129.668494 
L 289.071523 125.49296 
L 289.316176 131.756261 
L 289.560829 155.24364 
L 290.050135 124.710047 
L 290.294788 144.282863 
L 290.539441 136.714708 
L 290.784094 134.36597 
L 291.028747 123.144222 
L 291.2734 124.449076 
L 291.518053 123.927135 
L 291.762706 140.629271 
L 292.007359 123.144222 
L 292.252012 134.887911 
L 292.496665 134.36597 
L 292.741318 140.107329 
L 292.985971 151.329076 
L 293.230624 117.924805 
L 293.475277 124.710047 
L 293.71993 118.968688 
L 294.209236 124.971018 
L 294.453889 130.190436 
L 294.698542 127.058785 
L 294.943195 128.36364 
L 295.432501 135.148882 
L 295.677154 132.017232 
L 295.921807 132.539174 
L 296.16646 115.576067 
L 296.411113 139.324416 
L 296.655766 127.058785 
L 296.900419 154.721698 
L 297.145072 134.36597 
L 297.634378 118.968688 
L 297.879031 122.883251 
L 298.123684 134.104999 
L 298.368337 113.4883 
L 298.61299 138.541504 
L 299.102296 124.449076 
L 299.346949 199.347717 
L 299.836256 105.920144 
L 300.080909 100.961698 
L 300.325562 123.405193 
L 300.570215 124.188106 
L 300.814868 129.146552 
L 301.059521 117.663834 
L 301.304174 125.49296 
L 301.548827 123.666164 
L 301.79348 124.710047 
L 302.038133 113.749271 
L 302.282786 138.280533 
L 302.527439 139.324416 
L 302.772092 129.929465 
L 303.016745 139.585387 
L 303.261398 137.758591 
L 303.506051 118.968688 
L 303.750704 133.583057 
L 303.995357 130.190436 
L 304.24001 130.451407 
L 304.484663 128.62461 
L 304.729316 129.929465 
L 304.973969 127.319756 
L 305.218622 122.361309 
L 305.463275 148.197426 
L 305.952581 127.058785 
L 306.197234 122.361309 
L 306.441887 107.746941 
L 306.931193 145.848688 
L 307.175846 123.927135 
L 307.420499 121.578397 
L 307.665152 132.539174 
L 307.909805 132.017232 
L 308.154458 139.846358 
L 308.399111 132.017232 
L 308.888417 144.282863 
L 309.13307 113.227329 
L 309.377723 124.971018 
L 309.622376 146.631601 
L 309.867029 126.014902 
L 310.111682 122.361309 
L 310.356335 130.973348 
L 310.600988 134.36597 
L 310.845641 142.456067 
L 311.334947 117.141892 
L 311.5796 151.590047 
L 311.824253 132.278203 
L 312.313559 150.285193 
L 312.558212 125.49296 
L 312.802865 139.585387 
L 313.047518 138.541504 
L 313.292171 131.234319 
L 313.536824 132.800144 
L 313.781477 117.924805 
L 314.02613 136.453737 
L 314.270783 122.100339 
L 314.515436 124.710047 
L 315.004742 148.980339 
L 315.249395 128.885581 
L 315.494048 139.063445 
L 315.738701 138.280533 
L 315.983354 143.760921 
L 316.228007 118.185775 
L 316.47266 145.587717 
L 316.717313 121.317426 
L 317.206619 142.456067 
L 317.451272 124.710047 
L 317.695925 153.416843 
L 317.940578 126.797814 
L 318.185231 121.056455 
L 318.429884 127.841698 
L 318.674537 128.885581 
L 318.91919 117.141892 
L 319.163843 133.322086 
L 319.408496 82.954708 
L 319.653149 123.405193 
L 319.897802 122.100339 
L 320.142455 143.760921 
L 320.387108 147.153542 
L 320.631761 144.804805 
L 320.876414 123.666164 
L 321.36572 144.021892 
L 321.610373 134.36597 
L 321.855026 153.155873 
L 322.099679 120.273542 
L 322.344333 120.795484 
L 322.588986 125.49296 
L 322.833639 122.361309 
L 323.078292 149.241309 
L 323.567598 101.48364 
L 324.056904 140.629271 
L 324.301557 135.931795 
L 324.54621 164.638591 
L 324.790863 118.707717 
L 325.035516 118.707717 
L 325.280169 116.358979 
L 325.524822 121.056455 
L 325.769475 154.721698 
L 326.014128 129.146552 
L 326.258781 130.712377 
L 326.503434 161.767911 
L 326.748087 142.195096 
L 326.99274 134.887911 
L 327.237393 147.153542 
L 327.482046 121.317426 
L 327.971352 135.931795 
L 328.216005 133.061115 
L 328.460658 124.710047 
L 328.705311 130.973348 
L 328.949964 146.109659 
L 329.194617 137.758591 
L 329.43927 142.717038 
L 329.683923 116.880921 
L 329.928576 140.890242 
L 330.417882 130.973348 
L 330.662535 144.282863 
L 331.151841 129.929465 
L 331.396494 133.061115 
L 331.641147 106.703057 
L 331.8858 110.61762 
L 332.130453 87.130242 
L 332.375106 143.238979 
L 332.619759 129.668494 
L 332.864412 146.892572 
L 333.109065 141.412183 
L 333.353718 128.885581 
L 333.598371 132.800144 
L 333.843024 94.698397 
L 334.087677 142.456067 
L 334.33233 141.412183 
L 334.821636 125.231989 
L 335.066289 106.181115 
L 335.310942 121.317426 
L 335.555595 276.334125 
L 335.800248 117.924805 
L 336.044901 135.409853 
L 336.289554 133.844028 
L 336.534207 149.241309 
L 336.77886 124.188106 
L 337.023513 129.668494 
L 337.268166 128.36364 
L 337.512819 132.017232 
L 337.757472 129.146552 
L 338.002125 134.104999 
L 338.246778 133.583057 
L 338.491431 126.275873 
L 338.736084 136.714708 
L 338.980737 122.883251 
L 339.22539 139.585387 
L 339.470043 119.751601 
L 339.714696 139.063445 
L 339.959349 131.49529 
L 340.204002 137.236649 
L 340.448655 124.971018 
L 340.693308 124.710047 
L 340.937961 138.019562 
L 341.182614 135.670824 
L 341.427267 135.931795 
L 341.67192 128.62461 
L 341.916573 130.451407 
L 342.161226 142.717038 
L 342.405879 128.102669 
L 342.650532 129.146552 
L 342.895185 122.100339 
L 343.139838 133.061115 
L 343.384491 138.280533 
L 343.629144 120.273542 
L 343.873797 136.714708 
L 344.11845 123.405193 
L 344.363103 140.107329 
L 344.607756 140.107329 
L 344.85241 128.36364 
L 345.097063 130.451407 
L 345.341716 128.885581 
L 345.586369 130.973348 
L 345.831022 123.666164 
L 346.075675 133.061115 
L 346.564981 125.49296 
L 346.809634 132.800144 
L 347.054287 145.848688 
L 347.29894 126.536843 
L 347.543593 126.014902 
L 347.788246 141.673154 
L 348.032899 118.707717 
L 348.277552 122.100339 
L 348.522205 130.973348 
L 348.766858 149.763251 
L 349.011511 124.971018 
L 349.500817 134.36597 
L 349.74547 128.36364 
L 349.990123 220.225387 
L 350.234776 135.931795 
L 350.479429 117.141892 
L 350.724082 124.188106 
L 350.968735 126.275873 
L 351.458041 142.195096 
L 351.702694 129.146552 
L 351.947347 139.324416 
L 352.436653 122.100339 
L 352.681306 128.36364 
L 352.925959 125.49296 
L 353.170612 127.058785 
L 353.415265 135.409853 
L 353.659918 123.927135 
L 353.904571 136.714708 
L 354.149224 126.014902 
L 354.393877 143.760921 
L 354.63853 133.061115 
L 354.883183 129.146552 
L 355.127836 137.758591 
L 355.372489 134.626941 
L 355.617142 113.749271 
L 355.861795 136.975678 
L 356.106448 121.839368 
L 356.351101 125.231989 
L 356.595754 126.797814 
L 356.840407 134.36597 
L 357.08506 136.714708 
L 357.329713 124.710047 
L 357.574366 130.973348 
L 357.819019 142.195096 
L 358.063672 129.407523 
L 358.308325 135.148882 
L 358.552978 132.017232 
L 358.797631 120.012572 
L 359.286937 169.597038 
L 359.53159 129.668494 
L 359.776243 138.541504 
L 360.020896 141.673154 
L 360.510202 122.883251 
L 360.754855 121.056455 
L 360.999508 132.800144 
L 361.244161 130.451407 
L 361.488814 129.407523 
L 361.733467 126.275873 
L 361.97812 113.749271 
L 362.222773 145.065775 
L 362.467426 131.49529 
L 362.712079 136.453737 
L 362.956732 129.668494 
L 363.201385 128.102669 
L 363.446038 132.017232 
L 363.690691 130.973348 
L 363.935344 134.887911 
L 364.179997 122.361309 
L 364.42465 136.453737 
L 364.669303 130.973348 
L 364.913956 119.229659 
L 365.158609 130.712377 
L 365.403262 122.62228 
L 365.647915 152.633931 
L 365.892568 123.405193 
L 366.137221 135.409853 
L 366.381874 121.056455 
L 366.626527 174.294513 
L 366.87118 121.056455 
L 367.115833 138.802475 
L 367.360487 133.583057 
L 367.60514 147.675484 
L 367.849793 130.451407 
L 368.339099 140.629271 
L 368.583752 141.673154 
L 368.828405 137.758591 
L 369.073058 136.975678 
L 369.562364 129.407523 
L 370.296323 140.107329 
L 370.540976 141.412183 
L 370.785629 133.844028 
L 371.030282 138.019562 
L 371.274935 125.753931 
L 371.519588 124.971018 
L 371.764241 130.973348 
L 372.008894 140.3683 
L 372.253547 130.712377 
L 372.4982 128.36364 
L 372.742853 124.188106 
L 372.987506 138.019562 
L 373.232159 144.543834 
L 373.476812 134.36597 
L 373.721465 138.280533 
L 373.966118 123.144222 
L 374.210771 127.841698 
L 374.455424 120.534513 
L 374.700077 137.758591 
L 374.94473 130.451407 
L 375.189383 156.809465 
L 375.434036 126.275873 
L 375.678689 132.017232 
L 375.923342 131.234319 
L 376.167995 143.49995 
L 376.412648 126.014902 
L 376.657301 123.927135 
L 376.901954 130.190436 
L 377.146607 130.973348 
L 377.39126 118.707717 
L 377.635913 133.583057 
L 377.880566 123.144222 
L 378.369872 135.148882 
L 378.614525 131.234319 
L 378.859178 129.668494 
L 379.103831 133.322086 
L 379.348484 127.058785 
L 379.593137 132.017232 
L 379.83779 127.841698 
L 380.082443 130.712377 
L 380.327096 135.148882 
L 380.816402 126.275873 
L 381.061055 126.797814 
L 381.305708 144.282863 
L 381.550361 132.539174 
L 381.795014 129.668494 
L 382.039667 133.061115 
L 382.28432 166.726358 
L 382.528973 89.73995 
L 382.773626 169.075096 
L 383.018279 145.848688 
L 383.262932 144.282863 
L 383.507585 128.885581 
L 383.507585 128.885581 
" style="fill:none;stroke:#ff7f0e;stroke-linecap:square;stroke-width:1.5;"/>
   </g>
   <g id="patch_3">
    <path d="M 42.620313 288.430125 
L 42.620313 22.318125 
" style="fill:none;stroke:#000000;stroke-linecap:square;stroke-linejoin:miter;stroke-width:0.8;"/>
   </g>
   <g id="patch_4">
    <path d="M 399.740313 288.430125 
L 399.740313 22.318125 
" style="fill:none;stroke:#000000;stroke-linecap:square;stroke-linejoin:miter;stroke-width:0.8;"/>
   </g>
   <g id="patch_5">
    <path d="M 42.620313 288.430125 
L 399.740313 288.430125 
" style="fill:none;stroke:#000000;stroke-linecap:square;stroke-linejoin:miter;stroke-width:0.8;"/>
   </g>
   <g id="patch_6">
    <path d="M 42.620313 22.318125 
L 399.740313 22.318125 
" style="fill:none;stroke:#000000;stroke-linecap:square;stroke-linejoin:miter;stroke-width:0.8;"/>
   </g>
   <g id="text_16">
    <!-- Training: MAT -->
    <defs>
     <path d="M -0.296875 72.90625 
L 61.375 72.90625 
L 61.375 64.59375 
L 35.5 64.59375 
L 35.5 0 
L 25.59375 0 
L 25.59375 64.59375 
L -0.296875 64.59375 
z
" id="DejaVuSans-84"/>
     <path d="M 41.109375 46.296875 
Q 39.59375 47.171875 37.8125 47.578125 
Q 36.03125 48 33.890625 48 
Q 26.265625 48 22.1875 43.046875 
Q 18.109375 38.09375 18.109375 28.8125 
L 18.109375 0 
L 9.078125 0 
L 9.078125 54.6875 
L 18.109375 54.6875 
L 18.109375 46.1875 
Q 20.953125 51.171875 25.484375 53.578125 
Q 30.03125 56 36.53125 56 
Q 37.453125 56 38.578125 55.875 
Q 39.703125 55.765625 41.0625 55.515625 
z
" id="DejaVuSans-114"/>
     <path d="M 9.421875 54.6875 
L 18.40625 54.6875 
L 18.40625 0 
L 9.421875 0 
z
M 9.421875 75.984375 
L 18.40625 75.984375 
L 18.40625 64.59375 
L 9.421875 64.59375 
z
" id="DejaVuSans-105"/>
     <path d="M 11.71875 12.40625 
L 22.015625 12.40625 
L 22.015625 0 
L 11.71875 0 
z
M 11.71875 51.703125 
L 22.015625 51.703125 
L 22.015625 39.3125 
L 11.71875 39.3125 
z
" id="DejaVuSans-58"/>
     <path d="M 9.8125 72.90625 
L 24.515625 72.90625 
L 43.109375 23.296875 
L 61.8125 72.90625 
L 76.515625 72.90625 
L 76.515625 0 
L 66.890625 0 
L 66.890625 64.015625 
L 48.09375 14.015625 
L 38.1875 14.015625 
L 19.390625 64.015625 
L 19.390625 0 
L 9.8125 0 
z
" id="DejaVuSans-77"/>
     <path d="M 34.1875 63.1875 
L 20.796875 26.90625 
L 47.609375 26.90625 
z
M 28.609375 72.90625 
L 39.796875 72.90625 
L 67.578125 0 
L 57.328125 0 
L 50.6875 18.703125 
L 17.828125 18.703125 
L 11.1875 0 
L 0.78125 0 
z
" id="DejaVuSans-65"/>
    </defs>
    <g transform="translate(181.100313 16.318125)scale(0.12 -0.12)">
     <use xlink:href="#DejaVuSans-84"/>
     <use x="46.333984" xlink:href="#DejaVuSans-114"/>
     <use x="87.447266" xlink:href="#DejaVuSans-97"/>
     <use x="148.726562" xlink:href="#DejaVuSans-105"/>
     <use x="176.509766" xlink:href="#DejaVuSans-110"/>
     <use x="239.888672" xlink:href="#DejaVuSans-105"/>
     <use x="267.671875" xlink:href="#DejaVuSans-110"/>
     <use x="331.050781" xlink:href="#DejaVuSans-103"/>
     <use x="394.527344" xlink:href="#DejaVuSans-58"/>
     <use x="428.21875" xlink:href="#DejaVuSans-32"/>
     <use x="460.005859" xlink:href="#DejaVuSans-77"/>
     <use x="546.285156" xlink:href="#DejaVuSans-65"/>
     <use x="606.943359" xlink:href="#DejaVuSans-84"/>
    </g>
   </g>
   <g id="legend_1">
    <g id="patch_7">
     <path d="M 49.620313 59.674375 
L 133.348438 59.674375 
Q 135.348438 59.674375 135.348438 57.674375 
L 135.348438 29.318125 
Q 135.348438 27.318125 133.348438 27.318125 
L 49.620313 27.318125 
Q 47.620313 27.318125 47.620313 29.318125 
L 47.620313 57.674375 
Q 47.620313 59.674375 49.620313 59.674375 
z
" style="fill:#ffffff;opacity:0.8;stroke:#cccccc;stroke-linejoin:miter;"/>
    </g>
    <g id="line2d_29">
     <path d="M 51.620313 35.416562 
L 71.620313 35.416562 
" style="fill:none;stroke:#1f77b4;stroke-linecap:square;stroke-width:1.5;"/>
    </g>
    <g id="line2d_30"/>
    <g id="text_17">
     <!-- Predicted -->
     <defs>
      <path d="M 19.671875 64.796875 
L 19.671875 37.40625 
L 32.078125 37.40625 
Q 38.96875 37.40625 42.71875 40.96875 
Q 46.484375 44.53125 46.484375 51.125 
Q 46.484375 57.671875 42.71875 61.234375 
Q 38.96875 64.796875 32.078125 64.796875 
z
M 9.8125 72.90625 
L 32.078125 72.90625 
Q 44.34375 72.90625 50.609375 67.359375 
Q 56.890625 61.8125 56.890625 51.125 
Q 56.890625 40.328125 50.609375 34.8125 
Q 44.34375 29.296875 32.078125 29.296875 
L 19.671875 29.296875 
L 19.671875 0 
L 9.8125 0 
z
" id="DejaVuSans-80"/>
      <path d="M 45.40625 46.390625 
L 45.40625 75.984375 
L 54.390625 75.984375 
L 54.390625 0 
L 45.40625 0 
L 45.40625 8.203125 
Q 42.578125 3.328125 38.25 0.953125 
Q 33.9375 -1.421875 27.875 -1.421875 
Q 17.96875 -1.421875 11.734375 6.484375 
Q 5.515625 14.40625 5.515625 27.296875 
Q 5.515625 40.1875 11.734375 48.09375 
Q 17.96875 56 27.875 56 
Q 33.9375 56 38.25 53.625 
Q 42.578125 51.265625 45.40625 46.390625 
z
M 14.796875 27.296875 
Q 14.796875 17.390625 18.875 11.75 
Q 22.953125 6.109375 30.078125 6.109375 
Q 37.203125 6.109375 41.296875 11.75 
Q 45.40625 17.390625 45.40625 27.296875 
Q 45.40625 37.203125 41.296875 42.84375 
Q 37.203125 48.484375 30.078125 48.484375 
Q 22.953125 48.484375 18.875 42.84375 
Q 14.796875 37.203125 14.796875 27.296875 
z
" id="DejaVuSans-100"/>
      <path d="M 48.78125 52.59375 
L 48.78125 44.1875 
Q 44.96875 46.296875 41.140625 47.34375 
Q 37.3125 48.390625 33.40625 48.390625 
Q 24.65625 48.390625 19.8125 42.84375 
Q 14.984375 37.3125 14.984375 27.296875 
Q 14.984375 17.28125 19.8125 11.734375 
Q 24.65625 6.203125 33.40625 6.203125 
Q 37.3125 6.203125 41.140625 7.25 
Q 44.96875 8.296875 48.78125 10.40625 
L 48.78125 2.09375 
Q 45.015625 0.34375 40.984375 -0.53125 
Q 36.96875 -1.421875 32.421875 -1.421875 
Q 20.0625 -1.421875 12.78125 6.34375 
Q 5.515625 14.109375 5.515625 27.296875 
Q 5.515625 40.671875 12.859375 48.328125 
Q 20.21875 56 33.015625 56 
Q 37.15625 56 41.109375 55.140625 
Q 45.0625 54.296875 48.78125 52.59375 
z
" id="DejaVuSans-99"/>
      <path d="M 18.3125 70.21875 
L 18.3125 54.6875 
L 36.8125 54.6875 
L 36.8125 47.703125 
L 18.3125 47.703125 
L 18.3125 18.015625 
Q 18.3125 11.328125 20.140625 9.421875 
Q 21.96875 7.515625 27.59375 7.515625 
L 36.8125 7.515625 
L 36.8125 0 
L 27.59375 0 
Q 17.1875 0 13.234375 3.875 
Q 9.28125 7.765625 9.28125 18.015625 
L 9.28125 47.703125 
L 2.6875 47.703125 
L 2.6875 54.6875 
L 9.28125 54.6875 
L 9.28125 70.21875 
z
" id="DejaVuSans-116"/>
     </defs>
     <g transform="translate(79.620313 38.916562)scale(0.1 -0.1)">
      <use xlink:href="#DejaVuSans-80"/>
      <use x="58.552734" xlink:href="#DejaVuSans-114"/>
      <use x="97.416016" xlink:href="#DejaVuSans-101"/>
      <use x="158.939453" xlink:href="#DejaVuSans-100"/>
      <use x="222.416016" xlink:href="#DejaVuSans-105"/>
      <use x="250.199219" xlink:href="#DejaVuSans-99"/>
      <use x="305.179688" xlink:href="#DejaVuSans-116"/>
      <use x="344.388672" xlink:href="#DejaVuSans-101"/>
      <use x="405.912109" xlink:href="#DejaVuSans-100"/>
     </g>
    </g>
    <g id="line2d_31">
     <path d="M 51.620313 50.094687 
L 71.620313 50.094687 
" style="fill:none;stroke:#ff7f0e;stroke-linecap:square;stroke-width:1.5;"/>
    </g>
    <g id="line2d_32"/>
    <g id="text_18">
     <!-- True value -->
     <defs>
      <path d="M 8.5 21.578125 
L 8.5 54.6875 
L 17.484375 54.6875 
L 17.484375 21.921875 
Q 17.484375 14.15625 20.5 10.265625 
Q 23.53125 6.390625 29.59375 6.390625 
Q 36.859375 6.390625 41.078125 11.03125 
Q 45.3125 15.671875 45.3125 23.6875 
L 45.3125 54.6875 
L 54.296875 54.6875 
L 54.296875 0 
L 45.3125 0 
L 45.3125 8.40625 
Q 42.046875 3.421875 37.71875 1 
Q 33.40625 -1.421875 27.6875 -1.421875 
Q 18.265625 -1.421875 13.375 4.4375 
Q 8.5 10.296875 8.5 21.578125 
z
M 31.109375 56 
z
" id="DejaVuSans-117"/>
      <path d="M 2.984375 54.6875 
L 12.5 54.6875 
L 29.59375 8.796875 
L 46.6875 54.6875 
L 56.203125 54.6875 
L 35.6875 0 
L 23.484375 0 
z
" id="DejaVuSans-118"/>
      <path d="M 9.421875 75.984375 
L 18.40625 75.984375 
L 18.40625 0 
L 9.421875 0 
z
" id="DejaVuSans-108"/>
     </defs>
     <g transform="translate(79.620313 53.594687)scale(0.1 -0.1)">
      <use xlink:href="#DejaVuSans-84"/>
      <use x="46.333984" xlink:href="#DejaVuSans-114"/>
      <use x="87.447266" xlink:href="#DejaVuSans-117"/>
      <use x="150.826172" xlink:href="#DejaVuSans-101"/>
      <use x="212.349609" xlink:href="#DejaVuSans-32"/>
      <use x="244.136719" xlink:href="#DejaVuSans-118"/>
      <use x="303.316406" xlink:href="#DejaVuSans-97"/>
      <use x="364.595703" xlink:href="#DejaVuSans-108"/>
      <use x="392.378906" xlink:href="#DejaVuSans-117"/>
      <use x="455.757812" xlink:href="#DejaVuSans-101"/>
     </g>
    </g>
   </g>
  </g>
 </g>
 <defs>
  <clipPath id="p6abae635e1">
   <rect height="266.112" width="357.12" x="42.620313" y="22.318125"/>
  </clipPath>
 </defs>
</svg>
