<?xml version="1.0" encoding="utf-8" standalone="no"?>
<!DOCTYPE svg PUBLIC "-//W3C//DTD SVG 1.1//EN"
  "http://www.w3.org/Graphics/SVG/1.1/DTD/svg11.dtd">
<!-- Created with matplotlib (https://matplotlib.org/) -->
<svg height="325.986375pt" version="1.1" viewBox="0 0 406.940312 325.986375" width="406.940312pt" xmlns="http://www.w3.org/2000/svg" xmlns:xlink="http://www.w3.org/1999/xlink">
 <defs>
  <style type="text/css">
*{stroke-linecap:butt;stroke-linejoin:round;}
  </style>
 </defs>
 <g id="figure_1">
  <g id="patch_1">
   <path d="M 0 325.986375 
L 406.940312 325.986375 
L 406.940312 0 
L 0 0 
z
" style="fill:#ffffff;"/>
  </g>
  <g id="axes_1">
   <g id="patch_2">
    <path d="M 42.620313 288.430125 
L 399.740313 288.430125 
L 399.740313 22.318125 
L 42.620313 22.318125 
z
" style="fill:#ffffff;"/>
   </g>
   <g id="matplotlib.axis_1">
    <g id="xtick_1">
     <g id="line2d_1">
      <path clip-path="url(#pf8236bb8ca)" d="M 58.85304 288.430125 
L 58.85304 22.318125 
" style="fill:none;stroke:#b0b0b0;stroke-dasharray:2.96,1.28;stroke-dashoffset:0;stroke-width:0.8;"/>
     </g>
     <g id="line2d_2">
      <defs>
       <path d="M 0 0 
L 0 3.5 
" id="m77cecc66ad" style="stroke:#000000;stroke-width:0.8;"/>
      </defs>
      <g>
       <use style="stroke:#000000;stroke-width:0.8;" x="58.85304" xlink:href="#m77cecc66ad" y="288.430125"/>
      </g>
     </g>
     <g id="text_1">
      <!-- 0 -->
      <defs>
       <path d="M 31.78125 66.40625 
Q 24.171875 66.40625 20.328125 58.90625 
Q 16.5 51.421875 16.5 36.375 
Q 16.5 21.390625 20.328125 13.890625 
Q 24.171875 6.390625 31.78125 6.390625 
Q 39.453125 6.390625 43.28125 13.890625 
Q 47.125 21.390625 47.125 36.375 
Q 47.125 51.421875 43.28125 58.90625 
Q 39.453125 66.40625 31.78125 66.40625 
z
M 31.78125 74.21875 
Q 44.046875 74.21875 50.515625 64.515625 
Q 56.984375 54.828125 56.984375 36.375 
Q 56.984375 17.96875 50.515625 8.265625 
Q 44.046875 -1.421875 31.78125 -1.421875 
Q 19.53125 -1.421875 13.0625 8.265625 
Q 6.59375 17.96875 6.59375 36.375 
Q 6.59375 54.828125 13.0625 64.515625 
Q 19.53125 74.21875 31.78125 74.21875 
z
" id="DejaVuSans-48"/>
      </defs>
      <g transform="translate(55.67179 303.028562)scale(0.1 -0.1)">
       <use xlink:href="#DejaVuSans-48"/>
      </g>
     </g>
    </g>
    <g id="xtick_2">
     <g id="line2d_3">
      <path clip-path="url(#pf8236bb8ca)" d="M 107.783642 288.430125 
L 107.783642 22.318125 
" style="fill:none;stroke:#b0b0b0;stroke-dasharray:2.96,1.28;stroke-dashoffset:0;stroke-width:0.8;"/>
     </g>
     <g id="line2d_4">
      <g>
       <use style="stroke:#000000;stroke-width:0.8;" x="107.783642" xlink:href="#m77cecc66ad" y="288.430125"/>
      </g>
     </g>
     <g id="text_2">
      <!-- 200 -->
      <defs>
       <path d="M 19.1875 8.296875 
L 53.609375 8.296875 
L 53.609375 0 
L 7.328125 0 
L 7.328125 8.296875 
Q 12.9375 14.109375 22.625 23.890625 
Q 32.328125 33.6875 34.8125 36.53125 
Q 39.546875 41.84375 41.421875 45.53125 
Q 43.3125 49.21875 43.3125 52.78125 
Q 43.3125 58.59375 39.234375 62.25 
Q 35.15625 65.921875 28.609375 65.921875 
Q 23.96875 65.921875 18.8125 64.3125 
Q 13.671875 62.703125 7.8125 59.421875 
L 7.8125 69.390625 
Q 13.765625 71.78125 18.9375 73 
Q 24.125 74.21875 28.421875 74.21875 
Q 39.75 74.21875 46.484375 68.546875 
Q 53.21875 62.890625 53.21875 53.421875 
Q 53.21875 48.921875 51.53125 44.890625 
Q 49.859375 40.875 45.40625 35.40625 
Q 44.1875 33.984375 37.640625 27.21875 
Q 31.109375 20.453125 19.1875 8.296875 
z
" id="DejaVuSans-50"/>
      </defs>
      <g transform="translate(98.239892 303.028562)scale(0.1 -0.1)">
       <use xlink:href="#DejaVuSans-50"/>
       <use x="63.623047" xlink:href="#DejaVuSans-48"/>
       <use x="127.246094" xlink:href="#DejaVuSans-48"/>
      </g>
     </g>
    </g>
    <g id="xtick_3">
     <g id="line2d_5">
      <path clip-path="url(#pf8236bb8ca)" d="M 156.714244 288.430125 
L 156.714244 22.318125 
" style="fill:none;stroke:#b0b0b0;stroke-dasharray:2.96,1.28;stroke-dashoffset:0;stroke-width:0.8;"/>
     </g>
     <g id="line2d_6">
      <g>
       <use style="stroke:#000000;stroke-width:0.8;" x="156.714244" xlink:href="#m77cecc66ad" y="288.430125"/>
      </g>
     </g>
     <g id="text_3">
      <!-- 400 -->
      <defs>
       <path d="M 37.796875 64.3125 
L 12.890625 25.390625 
L 37.796875 25.390625 
z
M 35.203125 72.90625 
L 47.609375 72.90625 
L 47.609375 25.390625 
L 58.015625 25.390625 
L 58.015625 17.1875 
L 47.609375 17.1875 
L 47.609375 0 
L 37.796875 0 
L 37.796875 17.1875 
L 4.890625 17.1875 
L 4.890625 26.703125 
z
" id="DejaVuSans-52"/>
      </defs>
      <g transform="translate(147.170494 303.028562)scale(0.1 -0.1)">
       <use xlink:href="#DejaVuSans-52"/>
       <use x="63.623047" xlink:href="#DejaVuSans-48"/>
       <use x="127.246094" xlink:href="#DejaVuSans-48"/>
      </g>
     </g>
    </g>
    <g id="xtick_4">
     <g id="line2d_7">
      <path clip-path="url(#pf8236bb8ca)" d="M 205.644846 288.430125 
L 205.644846 22.318125 
" style="fill:none;stroke:#b0b0b0;stroke-dasharray:2.96,1.28;stroke-dashoffset:0;stroke-width:0.8;"/>
     </g>
     <g id="line2d_8">
      <g>
       <use style="stroke:#000000;stroke-width:0.8;" x="205.644846" xlink:href="#m77cecc66ad" y="288.430125"/>
      </g>
     </g>
     <g id="text_4">
      <!-- 600 -->
      <defs>
       <path d="M 33.015625 40.375 
Q 26.375 40.375 22.484375 35.828125 
Q 18.609375 31.296875 18.609375 23.390625 
Q 18.609375 15.53125 22.484375 10.953125 
Q 26.375 6.390625 33.015625 6.390625 
Q 39.65625 6.390625 43.53125 10.953125 
Q 47.40625 15.53125 47.40625 23.390625 
Q 47.40625 31.296875 43.53125 35.828125 
Q 39.65625 40.375 33.015625 40.375 
z
M 52.59375 71.296875 
L 52.59375 62.3125 
Q 48.875 64.0625 45.09375 64.984375 
Q 41.3125 65.921875 37.59375 65.921875 
Q 27.828125 65.921875 22.671875 59.328125 
Q 17.53125 52.734375 16.796875 39.40625 
Q 19.671875 43.65625 24.015625 45.921875 
Q 28.375 48.1875 33.59375 48.1875 
Q 44.578125 48.1875 50.953125 41.515625 
Q 57.328125 34.859375 57.328125 23.390625 
Q 57.328125 12.15625 50.6875 5.359375 
Q 44.046875 -1.421875 33.015625 -1.421875 
Q 20.359375 -1.421875 13.671875 8.265625 
Q 6.984375 17.96875 6.984375 36.375 
Q 6.984375 53.65625 15.1875 63.9375 
Q 23.390625 74.21875 37.203125 74.21875 
Q 40.921875 74.21875 44.703125 73.484375 
Q 48.484375 72.75 52.59375 71.296875 
z
" id="DejaVuSans-54"/>
      </defs>
      <g transform="translate(196.101096 303.028562)scale(0.1 -0.1)">
       <use xlink:href="#DejaVuSans-54"/>
       <use x="63.623047" xlink:href="#DejaVuSans-48"/>
       <use x="127.246094" xlink:href="#DejaVuSans-48"/>
      </g>
     </g>
    </g>
    <g id="xtick_5">
     <g id="line2d_9">
      <path clip-path="url(#pf8236bb8ca)" d="M 254.575448 288.430125 
L 254.575448 22.318125 
" style="fill:none;stroke:#b0b0b0;stroke-dasharray:2.96,1.28;stroke-dashoffset:0;stroke-width:0.8;"/>
     </g>
     <g id="line2d_10">
      <g>
       <use style="stroke:#000000;stroke-width:0.8;" x="254.575448" xlink:href="#m77cecc66ad" y="288.430125"/>
      </g>
     </g>
     <g id="text_5">
      <!-- 800 -->
      <defs>
       <path d="M 31.78125 34.625 
Q 24.75 34.625 20.71875 30.859375 
Q 16.703125 27.09375 16.703125 20.515625 
Q 16.703125 13.921875 20.71875 10.15625 
Q 24.75 6.390625 31.78125 6.390625 
Q 38.8125 6.390625 42.859375 10.171875 
Q 46.921875 13.96875 46.921875 20.515625 
Q 46.921875 27.09375 42.890625 30.859375 
Q 38.875 34.625 31.78125 34.625 
z
M 21.921875 38.8125 
Q 15.578125 40.375 12.03125 44.71875 
Q 8.5 49.078125 8.5 55.328125 
Q 8.5 64.0625 14.71875 69.140625 
Q 20.953125 74.21875 31.78125 74.21875 
Q 42.671875 74.21875 48.875 69.140625 
Q 55.078125 64.0625 55.078125 55.328125 
Q 55.078125 49.078125 51.53125 44.71875 
Q 48 40.375 41.703125 38.8125 
Q 48.828125 37.15625 52.796875 32.3125 
Q 56.78125 27.484375 56.78125 20.515625 
Q 56.78125 9.90625 50.3125 4.234375 
Q 43.84375 -1.421875 31.78125 -1.421875 
Q 19.734375 -1.421875 13.25 4.234375 
Q 6.78125 9.90625 6.78125 20.515625 
Q 6.78125 27.484375 10.78125 32.3125 
Q 14.796875 37.15625 21.921875 38.8125 
z
M 18.3125 54.390625 
Q 18.3125 48.734375 21.84375 45.5625 
Q 25.390625 42.390625 31.78125 42.390625 
Q 38.140625 42.390625 41.71875 45.5625 
Q 45.3125 48.734375 45.3125 54.390625 
Q 45.3125 60.0625 41.71875 63.234375 
Q 38.140625 66.40625 31.78125 66.40625 
Q 25.390625 66.40625 21.84375 63.234375 
Q 18.3125 60.0625 18.3125 54.390625 
z
" id="DejaVuSans-56"/>
      </defs>
      <g transform="translate(245.031698 303.028562)scale(0.1 -0.1)">
       <use xlink:href="#DejaVuSans-56"/>
       <use x="63.623047" xlink:href="#DejaVuSans-48"/>
       <use x="127.246094" xlink:href="#DejaVuSans-48"/>
      </g>
     </g>
    </g>
    <g id="xtick_6">
     <g id="line2d_11">
      <path clip-path="url(#pf8236bb8ca)" d="M 303.506051 288.430125 
L 303.506051 22.318125 
" style="fill:none;stroke:#b0b0b0;stroke-dasharray:2.96,1.28;stroke-dashoffset:0;stroke-width:0.8;"/>
     </g>
     <g id="line2d_12">
      <g>
       <use style="stroke:#000000;stroke-width:0.8;" x="303.506051" xlink:href="#m77cecc66ad" y="288.430125"/>
      </g>
     </g>
     <g id="text_6">
      <!-- 1000 -->
      <defs>
       <path d="M 12.40625 8.296875 
L 28.515625 8.296875 
L 28.515625 63.921875 
L 10.984375 60.40625 
L 10.984375 69.390625 
L 28.421875 72.90625 
L 38.28125 72.90625 
L 38.28125 8.296875 
L 54.390625 8.296875 
L 54.390625 0 
L 12.40625 0 
z
" id="DejaVuSans-49"/>
      </defs>
      <g transform="translate(290.781051 303.028562)scale(0.1 -0.1)">
       <use xlink:href="#DejaVuSans-49"/>
       <use x="63.623047" xlink:href="#DejaVuSans-48"/>
       <use x="127.246094" xlink:href="#DejaVuSans-48"/>
       <use x="190.869141" xlink:href="#DejaVuSans-48"/>
      </g>
     </g>
    </g>
    <g id="xtick_7">
     <g id="line2d_13">
      <path clip-path="url(#pf8236bb8ca)" d="M 352.436653 288.430125 
L 352.436653 22.318125 
" style="fill:none;stroke:#b0b0b0;stroke-dasharray:2.96,1.28;stroke-dashoffset:0;stroke-width:0.8;"/>
     </g>
     <g id="line2d_14">
      <g>
       <use style="stroke:#000000;stroke-width:0.8;" x="352.436653" xlink:href="#m77cecc66ad" y="288.430125"/>
      </g>
     </g>
     <g id="text_7">
      <!-- 1200 -->
      <g transform="translate(339.711653 303.028562)scale(0.1 -0.1)">
       <use xlink:href="#DejaVuSans-49"/>
       <use x="63.623047" xlink:href="#DejaVuSans-50"/>
       <use x="127.246094" xlink:href="#DejaVuSans-48"/>
       <use x="190.869141" xlink:href="#DejaVuSans-48"/>
      </g>
     </g>
    </g>
    <g id="text_8">
     <!-- Day -->
     <defs>
      <path d="M 19.671875 64.796875 
L 19.671875 8.109375 
L 31.59375 8.109375 
Q 46.6875 8.109375 53.6875 14.9375 
Q 60.6875 21.78125 60.6875 36.53125 
Q 60.6875 51.171875 53.6875 57.984375 
Q 46.6875 64.796875 31.59375 64.796875 
z
M 9.8125 72.90625 
L 30.078125 72.90625 
Q 51.265625 72.90625 61.171875 64.09375 
Q 71.09375 55.28125 71.09375 36.53125 
Q 71.09375 17.671875 61.125 8.828125 
Q 51.171875 0 30.078125 0 
L 9.8125 0 
z
" id="DejaVuSans-68"/>
      <path d="M 34.28125 27.484375 
Q 23.390625 27.484375 19.1875 25 
Q 14.984375 22.515625 14.984375 16.5 
Q 14.984375 11.71875 18.140625 8.90625 
Q 21.296875 6.109375 26.703125 6.109375 
Q 34.1875 6.109375 38.703125 11.40625 
Q 43.21875 16.703125 43.21875 25.484375 
L 43.21875 27.484375 
z
M 52.203125 31.203125 
L 52.203125 0 
L 43.21875 0 
L 43.21875 8.296875 
Q 40.140625 3.328125 35.546875 0.953125 
Q 30.953125 -1.421875 24.3125 -1.421875 
Q 15.921875 -1.421875 10.953125 3.296875 
Q 6 8.015625 6 15.921875 
Q 6 25.140625 12.171875 29.828125 
Q 18.359375 34.515625 30.609375 34.515625 
L 43.21875 34.515625 
L 43.21875 35.40625 
Q 43.21875 41.609375 39.140625 45 
Q 35.0625 48.390625 27.6875 48.390625 
Q 23 48.390625 18.546875 47.265625 
Q 14.109375 46.140625 10.015625 43.890625 
L 10.015625 52.203125 
Q 14.9375 54.109375 19.578125 55.046875 
Q 24.21875 56 28.609375 56 
Q 40.484375 56 46.34375 49.84375 
Q 52.203125 43.703125 52.203125 31.203125 
z
" id="DejaVuSans-97"/>
      <path d="M 32.171875 -5.078125 
Q 28.375 -14.84375 24.75 -17.8125 
Q 21.140625 -20.796875 15.09375 -20.796875 
L 7.90625 -20.796875 
L 7.90625 -13.28125 
L 13.1875 -13.28125 
Q 16.890625 -13.28125 18.9375 -11.515625 
Q 21 -9.765625 23.484375 -3.21875 
L 25.09375 0.875 
L 2.984375 54.6875 
L 12.5 54.6875 
L 29.59375 11.921875 
L 46.6875 54.6875 
L 56.203125 54.6875 
z
" id="DejaVuSans-121"/>
     </defs>
     <g transform="translate(211.306875 316.706687)scale(0.1 -0.1)">
      <use xlink:href="#DejaVuSans-68"/>
      <use x="77.001953" xlink:href="#DejaVuSans-97"/>
      <use x="138.28125" xlink:href="#DejaVuSans-121"/>
     </g>
    </g>
   </g>
   <g id="matplotlib.axis_2">
    <g id="ytick_1">
     <g id="line2d_15">
      <path clip-path="url(#pf8236bb8ca)" d="M 42.620313 246.155965 
L 399.740313 246.155965 
" style="fill:none;stroke:#b0b0b0;stroke-dasharray:2.96,1.28;stroke-dashoffset:0;stroke-width:0.8;"/>
     </g>
     <g id="line2d_16">
      <defs>
       <path d="M 0 0 
L -3.5 0 
" id="ma3fc04457e" style="stroke:#000000;stroke-width:0.8;"/>
      </defs>
      <g>
       <use style="stroke:#000000;stroke-width:0.8;" x="42.620313" xlink:href="#ma3fc04457e" y="246.155965"/>
      </g>
     </g>
     <g id="text_9">
      <!-- −2 -->
      <defs>
       <path d="M 10.59375 35.5 
L 73.1875 35.5 
L 73.1875 27.203125 
L 10.59375 27.203125 
z
" id="DejaVuSans-8722"/>
      </defs>
      <g transform="translate(20.878125 249.955184)scale(0.1 -0.1)">
       <use xlink:href="#DejaVuSans-8722"/>
       <use x="83.789062" xlink:href="#DejaVuSans-50"/>
      </g>
     </g>
    </g>
    <g id="ytick_2">
     <g id="line2d_17">
      <path clip-path="url(#pf8236bb8ca)" d="M 42.620313 196.683573 
L 399.740313 196.683573 
" style="fill:none;stroke:#b0b0b0;stroke-dasharray:2.96,1.28;stroke-dashoffset:0;stroke-width:0.8;"/>
     </g>
     <g id="line2d_18">
      <g>
       <use style="stroke:#000000;stroke-width:0.8;" x="42.620313" xlink:href="#ma3fc04457e" y="196.683573"/>
      </g>
     </g>
     <g id="text_10">
      <!-- −1 -->
      <g transform="translate(20.878125 200.482792)scale(0.1 -0.1)">
       <use xlink:href="#DejaVuSans-8722"/>
       <use x="83.789062" xlink:href="#DejaVuSans-49"/>
      </g>
     </g>
    </g>
    <g id="ytick_3">
     <g id="line2d_19">
      <path clip-path="url(#pf8236bb8ca)" d="M 42.620313 147.21118 
L 399.740313 147.21118 
" style="fill:none;stroke:#b0b0b0;stroke-dasharray:2.96,1.28;stroke-dashoffset:0;stroke-width:0.8;"/>
     </g>
     <g id="line2d_20">
      <g>
       <use style="stroke:#000000;stroke-width:0.8;" x="42.620313" xlink:href="#ma3fc04457e" y="147.21118"/>
      </g>
     </g>
     <g id="text_11">
      <!-- 0 -->
      <g transform="translate(29.257813 151.010399)scale(0.1 -0.1)">
       <use xlink:href="#DejaVuSans-48"/>
      </g>
     </g>
    </g>
    <g id="ytick_4">
     <g id="line2d_21">
      <path clip-path="url(#pf8236bb8ca)" d="M 42.620313 97.738788 
L 399.740313 97.738788 
" style="fill:none;stroke:#b0b0b0;stroke-dasharray:2.96,1.28;stroke-dashoffset:0;stroke-width:0.8;"/>
     </g>
     <g id="line2d_22">
      <g>
       <use style="stroke:#000000;stroke-width:0.8;" x="42.620313" xlink:href="#ma3fc04457e" y="97.738788"/>
      </g>
     </g>
     <g id="text_12">
      <!-- 1 -->
      <g transform="translate(29.257813 101.538006)scale(0.1 -0.1)">
       <use xlink:href="#DejaVuSans-49"/>
      </g>
     </g>
    </g>
    <g id="ytick_5">
     <g id="line2d_23">
      <path clip-path="url(#pf8236bb8ca)" d="M 42.620313 48.266395 
L 399.740313 48.266395 
" style="fill:none;stroke:#b0b0b0;stroke-dasharray:2.96,1.28;stroke-dashoffset:0;stroke-width:0.8;"/>
     </g>
     <g id="line2d_24">
      <g>
       <use style="stroke:#000000;stroke-width:0.8;" x="42.620313" xlink:href="#ma3fc04457e" y="48.266395"/>
      </g>
     </g>
     <g id="text_13">
      <!-- 2 -->
      <g transform="translate(29.257813 52.065614)scale(0.1 -0.1)">
       <use xlink:href="#DejaVuSans-50"/>
      </g>
     </g>
    </g>
    <g id="text_14">
     <!-- Change $ -->
     <defs>
      <path d="M 64.40625 67.28125 
L 64.40625 56.890625 
Q 59.421875 61.53125 53.78125 63.8125 
Q 48.140625 66.109375 41.796875 66.109375 
Q 29.296875 66.109375 22.65625 58.46875 
Q 16.015625 50.828125 16.015625 36.375 
Q 16.015625 21.96875 22.65625 14.328125 
Q 29.296875 6.6875 41.796875 6.6875 
Q 48.140625 6.6875 53.78125 8.984375 
Q 59.421875 11.28125 64.40625 15.921875 
L 64.40625 5.609375 
Q 59.234375 2.09375 53.4375 0.328125 
Q 47.65625 -1.421875 41.21875 -1.421875 
Q 24.65625 -1.421875 15.125 8.703125 
Q 5.609375 18.84375 5.609375 36.375 
Q 5.609375 53.953125 15.125 64.078125 
Q 24.65625 74.21875 41.21875 74.21875 
Q 47.75 74.21875 53.53125 72.484375 
Q 59.328125 70.75 64.40625 67.28125 
z
" id="DejaVuSans-67"/>
      <path d="M 54.890625 33.015625 
L 54.890625 0 
L 45.90625 0 
L 45.90625 32.71875 
Q 45.90625 40.484375 42.875 44.328125 
Q 39.84375 48.1875 33.796875 48.1875 
Q 26.515625 48.1875 22.3125 43.546875 
Q 18.109375 38.921875 18.109375 30.90625 
L 18.109375 0 
L 9.078125 0 
L 9.078125 75.984375 
L 18.109375 75.984375 
L 18.109375 46.1875 
Q 21.34375 51.125 25.703125 53.5625 
Q 30.078125 56 35.796875 56 
Q 45.21875 56 50.046875 50.171875 
Q 54.890625 44.34375 54.890625 33.015625 
z
" id="DejaVuSans-104"/>
      <path d="M 54.890625 33.015625 
L 54.890625 0 
L 45.90625 0 
L 45.90625 32.71875 
Q 45.90625 40.484375 42.875 44.328125 
Q 39.84375 48.1875 33.796875 48.1875 
Q 26.515625 48.1875 22.3125 43.546875 
Q 18.109375 38.921875 18.109375 30.90625 
L 18.109375 0 
L 9.078125 0 
L 9.078125 54.6875 
L 18.109375 54.6875 
L 18.109375 46.1875 
Q 21.34375 51.125 25.703125 53.5625 
Q 30.078125 56 35.796875 56 
Q 45.21875 56 50.046875 50.171875 
Q 54.890625 44.34375 54.890625 33.015625 
z
" id="DejaVuSans-110"/>
      <path d="M 45.40625 27.984375 
Q 45.40625 37.75 41.375 43.109375 
Q 37.359375 48.484375 30.078125 48.484375 
Q 22.859375 48.484375 18.828125 43.109375 
Q 14.796875 37.75 14.796875 27.984375 
Q 14.796875 18.265625 18.828125 12.890625 
Q 22.859375 7.515625 30.078125 7.515625 
Q 37.359375 7.515625 41.375 12.890625 
Q 45.40625 18.265625 45.40625 27.984375 
z
M 54.390625 6.78125 
Q 54.390625 -7.171875 48.1875 -13.984375 
Q 42 -20.796875 29.203125 -20.796875 
Q 24.46875 -20.796875 20.265625 -20.09375 
Q 16.0625 -19.390625 12.109375 -17.921875 
L 12.109375 -9.1875 
Q 16.0625 -11.328125 19.921875 -12.34375 
Q 23.78125 -13.375 27.78125 -13.375 
Q 36.625 -13.375 41.015625 -8.765625 
Q 45.40625 -4.15625 45.40625 5.171875 
L 45.40625 9.625 
Q 42.625 4.78125 38.28125 2.390625 
Q 33.9375 0 27.875 0 
Q 17.828125 0 11.671875 7.65625 
Q 5.515625 15.328125 5.515625 27.984375 
Q 5.515625 40.671875 11.671875 48.328125 
Q 17.828125 56 27.875 56 
Q 33.9375 56 38.28125 53.609375 
Q 42.625 51.21875 45.40625 46.390625 
L 45.40625 54.6875 
L 54.390625 54.6875 
z
" id="DejaVuSans-103"/>
      <path d="M 56.203125 29.59375 
L 56.203125 25.203125 
L 14.890625 25.203125 
Q 15.484375 15.921875 20.484375 11.0625 
Q 25.484375 6.203125 34.421875 6.203125 
Q 39.59375 6.203125 44.453125 7.46875 
Q 49.3125 8.734375 54.109375 11.28125 
L 54.109375 2.78125 
Q 49.265625 0.734375 44.1875 -0.34375 
Q 39.109375 -1.421875 33.890625 -1.421875 
Q 20.796875 -1.421875 13.15625 6.1875 
Q 5.515625 13.8125 5.515625 26.8125 
Q 5.515625 40.234375 12.765625 48.109375 
Q 20.015625 56 32.328125 56 
Q 43.359375 56 49.78125 48.890625 
Q 56.203125 41.796875 56.203125 29.59375 
z
M 47.21875 32.234375 
Q 47.125 39.59375 43.09375 43.984375 
Q 39.0625 48.390625 32.421875 48.390625 
Q 24.90625 48.390625 20.390625 44.140625 
Q 15.875 39.890625 15.1875 32.171875 
z
" id="DejaVuSans-101"/>
      <path id="DejaVuSans-32"/>
      <path d="M 33.796875 -14.703125 
L 28.90625 -14.703125 
L 28.859375 0 
Q 23.734375 0.09375 18.609375 1.1875 
Q 13.484375 2.296875 8.296875 4.5 
L 8.296875 13.28125 
Q 13.28125 10.15625 18.375 8.5625 
Q 23.484375 6.984375 28.90625 6.9375 
L 28.90625 29.203125 
Q 18.109375 30.953125 13.203125 35.15625 
Q 8.296875 39.359375 8.296875 46.6875 
Q 8.296875 54.640625 13.625 59.21875 
Q 18.953125 63.8125 28.90625 64.5 
L 28.90625 75.984375 
L 33.796875 75.984375 
L 33.796875 64.65625 
Q 38.328125 64.453125 42.578125 63.6875 
Q 46.828125 62.9375 50.875 61.625 
L 50.875 53.078125 
Q 46.828125 55.125 42.546875 56.25 
Q 38.28125 57.375 33.796875 57.5625 
L 33.796875 36.71875 
Q 44.875 35.015625 50.09375 30.609375 
Q 55.328125 26.21875 55.328125 18.609375 
Q 55.328125 10.359375 49.78125 5.59375 
Q 44.234375 0.828125 33.796875 0.09375 
z
M 28.90625 37.59375 
L 28.90625 57.625 
Q 23.25 56.984375 20.265625 54.390625 
Q 17.28125 51.8125 17.28125 47.515625 
Q 17.28125 43.3125 20.03125 40.96875 
Q 22.796875 38.625 28.90625 37.59375 
z
M 33.796875 28.21875 
L 33.796875 7.078125 
Q 39.984375 7.90625 43.140625 10.59375 
Q 46.296875 13.28125 46.296875 17.671875 
Q 46.296875 21.96875 43.28125 24.5 
Q 40.28125 27.046875 33.796875 28.21875 
z
" id="DejaVuSans-36"/>
     </defs>
     <g transform="translate(14.798438 179.288187)rotate(-90)scale(0.1 -0.1)">
      <use xlink:href="#DejaVuSans-67"/>
      <use x="69.824219" xlink:href="#DejaVuSans-104"/>
      <use x="133.203125" xlink:href="#DejaVuSans-97"/>
      <use x="194.482422" xlink:href="#DejaVuSans-110"/>
      <use x="257.861328" xlink:href="#DejaVuSans-103"/>
      <use x="321.337891" xlink:href="#DejaVuSans-101"/>
      <use x="382.861328" xlink:href="#DejaVuSans-32"/>
      <use x="414.648438" xlink:href="#DejaVuSans-36"/>
     </g>
    </g>
   </g>
   <g id="line2d_25">
    <path clip-path="url(#pf8236bb8ca)" d="M 58.85304 116.629718 
L 59.342346 143.767839 
L 59.586999 149.356614 
L 59.831652 151.099938 
L 60.076305 154.074043 
L 60.320958 152.967919 
L 60.565611 154.503847 
L 61.054917 152.561994 
L 61.544223 151.489151 
L 61.788876 152.395794 
L 62.033529 151.094992 
L 62.278182 152.579139 
L 62.767488 152.960349 
L 63.012141 151.008028 
L 63.256794 152.474294 
L 63.501447 151.489439 
L 63.7461 151.883987 
L 63.990753 150.457403 
L 64.235406 152.868266 
L 64.480059 151.991023 
L 64.969365 152.732606 
L 65.214018 151.578206 
L 65.458671 151.886784 
L 65.703324 153.437737 
L 65.947977 152.487517 
L 66.19263 152.697481 
L 66.681936 151.240312 
L 66.926589 151.192497 
L 67.171242 149.895689 
L 67.415895 151.79297 
L 67.905201 149.314999 
L 68.149854 150.38369 
L 68.394507 149.40652 
L 68.883813 152.490171 
L 69.373119 151.062779 
L 69.617772 152.003554 
L 69.862425 151.009844 
L 70.107078 149.227184 
L 70.596384 149.291942 
L 70.841037 149.137407 
L 71.08569 148.726782 
L 71.330343 150.584453 
L 71.574996 148.531887 
L 71.819649 151.442071 
L 72.064302 152.481158 
L 72.308955 150.922347 
L 72.553608 150.435009 
L 73.042914 150.573163 
L 73.287567 151.637038 
L 73.53222 151.38011 
L 74.021526 155.260456 
L 74.266179 153.471868 
L 74.510832 154.417877 
L 74.755485 151.810389 
L 75.000138 151.337558 
L 75.244792 152.764099 
L 75.489445 152.987703 
L 75.734098 153.503606 
L 75.978751 151.459057 
L 76.223404 151.600109 
L 76.468057 153.915126 
L 76.71271 154.811575 
L 76.957363 154.738886 
L 77.202016 152.916932 
L 77.446669 152.401937 
L 77.691322 150.785563 
L 77.935975 150.526256 
L 78.180628 149.021705 
L 78.425281 148.956399 
L 78.669934 148.370388 
L 78.914587 147.294877 
L 79.15924 148.289091 
L 79.648546 148.653314 
L 79.893199 149.964066 
L 80.137852 150.462766 
L 80.627158 149.583029 
L 80.871811 148.874236 
L 81.116464 149.801298 
L 81.361117 148.722326 
L 81.850423 148.269668 
L 82.095076 148.198406 
L 82.339729 149.448769 
L 82.584382 148.787921 
L 82.829035 149.801572 
L 83.073688 148.809983 
L 83.318341 149.501098 
L 83.562994 151.586987 
L 83.807647 149.763332 
L 84.0523 149.850008 
L 84.296953 150.312558 
L 84.541606 150.33909 
L 84.786259 150.526054 
L 85.030912 150.52852 
L 85.275565 148.520265 
L 85.764871 148.10589 
L 86.009524 148.731223 
L 86.254177 149.876583 
L 86.743483 150.489457 
L 86.988136 151.037083 
L 87.232789 151.067148 
L 87.477442 150.089213 
L 87.722095 150.402897 
L 87.966748 150.239768 
L 88.211401 150.218096 
L 88.700707 150.994661 
L 88.94536 150.630697 
L 89.190013 151.129354 
L 89.434666 151.345027 
L 89.679319 150.43273 
L 89.923972 150.175284 
L 90.168625 150.181989 
L 90.413278 149.900865 
L 90.657931 150.168925 
L 90.902584 149.105857 
L 91.147237 148.582543 
L 91.636543 146.666011 
L 91.881196 147.025101 
L 92.615155 151.431775 
L 92.859808 151.530102 
L 93.349114 150.32555 
L 93.593767 150.546847 
L 93.83842 148.406899 
L 94.083073 148.955087 
L 94.327726 148.740754 
L 94.572379 148.341318 
L 94.817032 148.35878 
L 95.061685 147.751559 
L 95.795644 147.693491 
L 96.040297 147.02823 
L 96.28495 146.987625 
L 96.529603 146.594101 
L 96.774256 147.453146 
L 97.018909 148.845743 
L 97.263562 147.774096 
L 97.508215 147.610953 
L 97.752869 148.176373 
L 98.486828 146.233511 
L 98.976134 146.30098 
L 99.220787 145.718646 
L 99.46544 146.261615 
L 99.954746 146.035934 
L 100.199399 145.744702 
L 100.444052 146.371232 
L 100.933358 147.007582 
L 101.178011 146.333986 
L 101.422664 147.119737 
L 101.667317 145.980664 
L 101.91197 145.767615 
L 102.156623 146.311824 
L 102.401276 147.547306 
L 102.890582 143.469253 
L 103.135235 144.475724 
L 103.379888 143.853376 
L 103.624541 143.741394 
L 103.869194 144.066713 
L 104.3585 145.283897 
L 104.603153 145.586534 
L 104.847806 146.312646 
L 105.092459 146.049575 
L 105.337112 146.08225 
L 105.581765 146.401052 
L 105.826418 146.187974 
L 106.071071 146.22646 
L 106.315724 145.670557 
L 107.049683 146.416755 
L 107.294336 146.549458 
L 107.538989 146.490525 
L 107.783642 145.255144 
L 108.028295 144.981259 
L 108.272948 145.297105 
L 108.517601 146.796955 
L 108.762254 146.615009 
L 109.25156 148.152595 
L 109.496213 147.714558 
L 109.740866 147.043933 
L 110.474825 151.473981 
L 110.719478 150.608678 
L 110.964131 151.402633 
L 111.208784 150.332587 
L 111.453437 150.904048 
L 111.69809 149.673801 
L 111.942743 149.219109 
L 112.187396 149.380954 
L 112.432049 150.115198 
L 112.676702 150.218153 
L 112.921355 150.161989 
L 113.410661 148.851742 
L 113.655314 149.469461 
L 113.899967 150.967768 
L 114.389273 150.811129 
L 114.633926 150.23762 
L 114.878579 148.417324 
L 115.123232 147.740225 
L 115.367885 147.974196 
L 115.612538 147.732496 
L 116.346497 149.175244 
L 116.59115 149.397724 
L 116.835803 148.776703 
L 117.080456 148.659039 
L 117.325109 148.338535 
L 117.814415 148.607186 
L 118.059068 149.945033 
L 118.303721 149.877102 
L 118.548374 149.123103 
L 118.793027 149.102195 
L 119.03768 149.247357 
L 119.526986 148.957466 
L 120.016292 149.267198 
L 120.260946 149.763202 
L 120.750252 150.383041 
L 120.994905 149.812935 
L 121.484211 150.453264 
L 121.728864 150.213005 
L 121.973517 150.322695 
L 122.21817 149.919351 
L 122.462823 150.053093 
L 122.707476 149.781212 
L 122.952129 150.459969 
L 123.196782 150.69149 
L 123.441435 151.474298 
L 123.686088 151.56569 
L 123.930741 152.406335 
L 124.175394 151.915436 
L 124.420047 152.683421 
L 124.6647 152.820537 
L 124.909353 152.45777 
L 125.154006 152.864026 
L 125.398659 152.679903 
L 125.643312 151.938767 
L 125.887965 152.565542 
L 126.132618 152.492881 
L 126.377271 152.841546 
L 126.621924 151.982847 
L 126.866577 151.996113 
L 127.355883 151.757282 
L 127.600536 150.867091 
L 127.845189 150.429775 
L 128.089842 150.446675 
L 128.334495 150.67162 
L 128.579148 150.081773 
L 128.823801 150.202811 
L 129.068454 149.357709 
L 129.313107 149.578833 
L 129.55776 149.534522 
L 130.047066 151.200284 
L 130.291719 151.540412 
L 130.536372 151.161625 
L 130.781025 151.548545 
L 131.025678 151.218553 
L 131.514984 152.299616 
L 131.759637 152.777365 
L 132.00429 152.63937 
L 132.248943 152.967472 
L 132.493596 152.702484 
L 132.738249 153.024689 
L 133.227555 151.813216 
L 133.472208 151.585762 
L 133.716861 151.932177 
L 133.961514 151.795191 
L 134.45082 149.804283 
L 134.695473 149.80039 
L 134.940126 149.187011 
L 135.184779 149.028324 
L 135.429432 149.482958 
L 135.674085 149.583217 
L 136.163391 147.693837 
L 136.652697 147.945026 
L 136.89735 148.220857 
L 137.142003 148.813674 
L 137.386656 148.998446 
L 137.631309 148.902917 
L 138.120615 147.825589 
L 138.609921 148.398881 
L 138.854574 148.436963 
L 139.099227 148.357209 
L 139.34388 149.014942 
L 140.077839 149.322598 
L 140.567145 148.741504 
L 140.811798 148.458448 
L 141.545757 148.510287 
L 141.79041 148.746796 
L 142.035063 148.76782 
L 142.279716 148.537641 
L 142.524369 149.320233 
L 143.013676 148.676068 
L 143.258329 149.312893 
L 143.502982 149.135778 
L 143.992288 149.918068 
L 144.236941 149.540074 
L 144.481594 149.841399 
L 144.726247 148.629263 
L 145.215553 148.775837 
L 145.460206 148.831194 
L 145.704859 148.387548 
L 145.949512 146.871 
L 146.194165 146.933653 
L 146.683471 145.977737 
L 146.928124 146.770726 
L 147.172777 147.080948 
L 147.41743 147.972019 
L 147.662083 148.149293 
L 147.906736 148.81141 
L 148.151389 149.832142 
L 148.396042 149.436743 
L 148.640695 149.941024 
L 148.885348 149.575733 
L 149.130001 149.920231 
L 149.374654 149.82101 
L 149.619307 150.62627 
L 150.108613 149.63331 
L 150.842572 152.002588 
L 151.087225 151.651125 
L 151.331878 152.797884 
L 151.576531 152.50782 
L 151.821184 152.868554 
L 152.065837 152.856831 
L 152.31049 151.981218 
L 152.555143 151.755436 
L 152.799796 150.930436 
L 153.044449 151.174126 
L 153.289102 150.269833 
L 153.778408 150.30232 
L 154.023061 150.071276 
L 154.267714 149.558747 
L 154.75702 152.470964 
L 155.001673 152.324476 
L 155.246326 151.997426 
L 155.735632 150.993521 
L 156.224938 151.129714 
L 156.469591 151.075814 
L 156.714244 151.446973 
L 156.958897 150.968965 
L 157.20355 151.030075 
L 157.448203 150.668043 
L 158.182162 149.113586 
L 158.426815 149.703563 
L 158.671468 150.976132 
L 159.160774 150.261599 
L 159.405427 150.324324 
L 159.65008 150.222378 
L 159.894733 149.914939 
L 160.139386 149.364717 
L 160.628692 149.082051 
L 161.362651 147.979719 
L 161.851957 148.959629 
L 162.09661 149.086579 
L 162.341263 149.545048 
L 162.585916 149.482871 
L 163.075222 148.751685 
L 163.319875 148.667792 
L 163.564528 148.072653 
L 164.053834 148.831093 
L 164.54314 145.925625 
L 164.787793 145.784674 
L 165.032447 145.895127 
L 165.2771 145.689158 
L 165.766406 146.930523 
L 166.500365 148.187692 
L 166.745018 147.894327 
L 166.989671 148.534771 
L 167.234324 148.184448 
L 167.72363 149.351264 
L 167.968283 149.02394 
L 168.212936 149.343016 
L 168.457589 148.833487 
L 168.702242 148.826075 
L 168.946895 147.630434 
L 169.191548 147.572165 
L 169.436201 147.896836 
L 169.680854 147.841291 
L 169.925507 146.535557 
L 170.17016 146.663444 
L 170.414813 146.403748 
L 170.904119 147.395064 
L 171.148772 147.310248 
L 171.393425 147.84047 
L 171.638078 148.015393 
L 171.882731 147.131763 
L 172.127384 147.149542 
L 172.372037 147.030624 
L 172.61669 148.006165 
L 173.105996 148.75565 
L 173.595302 147.895235 
L 173.839955 147.999532 
L 174.084608 148.598462 
L 174.329261 148.745758 
L 174.573914 148.289595 
L 174.818567 148.195825 
L 175.307873 147.307552 
L 175.797179 147.702763 
L 176.286485 147.086687 
L 177.020444 146.707799 
L 177.50975 146.875643 
L 177.999056 147.238568 
L 178.243709 147.035455 
L 178.488362 147.116074 
L 178.733015 146.642868 
L 178.977668 147.090999 
L 179.222321 146.801959 
L 179.466974 147.265129 
L 179.95628 147.68494 
L 180.200933 147.245216 
L 180.445586 147.047351 
L 180.934892 149.049477 
L 181.179545 149.316844 
L 181.668851 150.292904 
L 181.913504 150.892859 
L 182.40281 152.970789 
L 182.647463 153.257767 
L 182.892116 152.785714 
L 183.136769 153.208812 
L 183.381422 152.376112 
L 183.626075 152.652376 
L 183.870728 152.301101 
L 184.360034 152.037786 
L 184.604687 150.530567 
L 184.84934 150.240576 
L 185.338646 149.058533 
L 185.583299 148.907964 
L 185.827952 148.924878 
L 186.561911 149.743779 
L 187.051217 149.016341 
L 187.29587 148.982282 
L 187.540524 149.117653 
L 187.785177 148.965051 
L 188.02983 149.175461 
L 188.274483 148.304621 
L 188.519136 147.852827 
L 188.763789 148.463495 
L 189.008442 147.989597 
L 189.253095 147.836331 
L 189.497748 148.019431 
L 189.742401 148.468311 
L 190.47636 148.48002 
L 190.721013 148.901374 
L 190.965666 147.325086 
L 191.210319 146.78653 
L 191.699625 146.57152 
L 191.944278 147.473247 
L 192.188931 147.713635 
L 192.433584 147.742604 
L 192.678237 146.873537 
L 192.92289 146.556567 
L 193.167543 146.931461 
L 193.412196 146.824424 
L 194.146155 144.474267 
L 194.390808 145.033126 
L 194.635461 144.912175 
L 195.124767 146.340879 
L 195.614073 148.647604 
L 195.858726 148.670012 
L 196.103379 147.32288 
L 196.348032 150.877675 
L 196.592685 152.004693 
L 196.837338 152.230474 
L 197.081991 151.996041 
L 197.326644 152.077065 
L 197.571297 152.006264 
L 197.81595 151.627766 
L 198.060603 150.798656 
L 198.549909 148.554483 
L 199.283868 147.213853 
L 199.528521 147.641523 
L 199.773174 147.626152 
L 200.507133 147.135944 
L 200.751786 147.532569 
L 201.241092 146.953004 
L 201.485745 146.187066 
L 201.975051 145.873974 
L 202.219704 146.242278 
L 202.464357 146.097491 
L 202.70901 146.562147 
L 202.953663 146.703891 
L 203.198316 146.319596 
L 203.442969 146.999824 
L 203.687622 148.38276 
L 203.932275 149.093212 
L 204.176928 148.865686 
L 204.910887 152.225153 
L 205.15554 152.583508 
L 205.400193 153.597116 
L 205.644846 153.723605 
L 205.889499 154.344785 
L 206.378805 151.199101 
L 206.623458 151.57401 
L 207.112764 150.532976 
L 207.357417 150.626328 
L 207.846723 150.142364 
L 208.580682 151.760469 
L 209.314641 149.797924 
L 209.559294 148.387101 
L 210.048601 149.448005 
L 210.293254 149.698833 
L 210.537907 149.118979 
L 210.78256 149.76946 
L 211.027213 149.676324 
L 211.516519 148.804172 
L 212.005825 148.957711 
L 212.739784 150.913753 
L 213.22909 152.474078 
L 213.473743 152.564042 
L 213.963049 151.996604 
L 214.207702 151.979776 
L 214.452355 151.74553 
L 214.697008 152.128788 
L 214.941661 150.353466 
L 215.186314 149.474984 
L 215.430967 149.990815 
L 215.67562 149.623664 
L 215.920273 150.870379 
L 216.164926 150.899924 
L 216.409579 150.408087 
L 216.654232 150.819146 
L 216.898885 150.950003 
L 217.632844 149.666245 
L 217.877497 148.589061 
L 218.12215 148.418564 
L 218.366803 148.589609 
L 219.100762 151.312598 
L 219.345415 151.655048 
L 219.834721 153.816568 
L 220.079374 153.641846 
L 220.324027 154.119277 
L 221.057986 151.763165 
L 221.302639 151.946524 
L 221.791945 150.520906 
L 222.036598 150.669283 
L 222.281251 150.61893 
L 222.770557 151.314227 
L 223.01521 150.953882 
L 223.259863 151.001467 
L 223.504516 150.21661 
L 223.749169 149.989084 
L 223.993822 149.501098 
L 224.238475 149.739612 
L 224.483128 149.654666 
L 224.727781 149.136196 
L 225.217087 149.879438 
L 225.46174 149.879914 
L 225.706393 150.324195 
L 225.951046 150.00584 
L 226.195699 150.503545 
L 226.685005 149.562467 
L 226.929658 147.950404 
L 227.663617 149.620938 
L 227.90827 149.666591 
L 228.152923 150.635859 
L 228.397576 150.680776 
L 228.642229 150.256697 
L 228.886882 150.10979 
L 229.131535 150.736161 
L 229.376188 150.875959 
L 229.620841 150.881006 
L 229.865494 150.646198 
L 230.3548 150.720473 
L 230.844106 149.010371 
L 231.088759 148.35395 
L 231.333412 148.466466 
L 231.578065 148.963926 
L 231.822718 149.106752 
L 232.067371 149.434479 
L 232.556678 149.317407 
L 232.801331 149.615834 
L 233.045984 149.471321 
L 233.290637 150.037894 
L 233.53529 149.972112 
L 233.779943 149.559987 
L 234.024596 149.600535 
L 234.758555 150.774128 
L 235.247861 149.954924 
L 235.98182 151.062014 
L 236.226473 150.819881 
L 236.715779 150.00708 
L 237.449738 150.242018 
L 237.694391 150.522579 
L 237.939044 150.448967 
L 238.183697 150.766428 
L 238.42835 151.593433 
L 238.673003 151.915652 
L 238.917656 151.898897 
L 239.406962 151.041784 
L 239.651615 150.277446 
L 239.896268 150.466862 
L 240.630227 149.398142 
L 240.87488 148.322443 
L 241.119533 148.153893 
L 241.608839 147.574544 
L 241.853492 147.775149 
L 242.832104 150.049084 
L 243.32141 150.217793 
L 243.566063 149.808104 
L 243.810716 149.692286 
L 244.300022 148.407562 
L 244.789328 147.612049 
L 245.033981 147.961897 
L 245.523287 148.988901 
L 246.012593 148.681245 
L 246.257246 148.948483 
L 246.501899 148.976471 
L 246.746552 148.884099 
L 246.991205 149.046564 
L 247.235858 148.898144 
L 247.480511 149.568422 
L 247.725164 150.9881 
L 247.969817 153.076225 
L 248.21447 154.105709 
L 248.948429 151.204682 
L 249.193082 151.195583 
L 249.437735 151.972494 
L 249.682388 151.671645 
L 249.927041 151.623901 
L 250.171694 152.371252 
L 250.416347 151.844304 
L 250.661 152.43418 
L 250.905653 152.283827 
L 251.150306 152.733111 
L 251.394959 152.703133 
L 251.639612 152.436775 
L 251.884265 150.807365 
L 252.128918 150.485492 
L 252.862877 150.211203 
L 253.10753 150.881482 
L 253.596836 149.6676 
L 253.841489 149.573628 
L 254.086142 149.326102 
L 254.330795 148.697424 
L 254.575448 148.595564 
L 254.820101 148.071759 
L 255.064755 146.922131 
L 255.309408 146.567165 
L 255.798714 145.346564 
L 256.043367 145.222787 
L 256.28802 145.761617 
L 256.532673 145.944918 
L 256.777326 145.846865 
L 257.021979 143.649541 
L 257.266632 143.401092 
L 257.511285 143.624018 
L 257.755938 143.111216 
L 258.000591 143.335007 
L 258.245244 142.87472 
L 258.489897 142.821224 
L 258.73455 143.327538 
L 258.979203 141.894147 
L 259.223856 141.871465 
L 259.957815 144.748758 
L 260.202468 145.082153 
L 260.447121 146.002293 
L 260.936427 146.872903 
L 261.18108 147.754096 
L 261.670386 147.755798 
L 261.915039 148.061319 
L 262.159692 147.109153 
L 262.404345 146.891994 
L 262.648998 147.735596 
L 262.893651 147.379231 
L 263.138304 146.606934 
L 263.382957 146.946515 
L 263.872263 145.874205 
L 264.116916 146.173554 
L 264.606222 147.470247 
L 264.850875 147.09655 
L 265.095528 147.026255 
L 265.340181 147.663051 
L 265.584834 147.276535 
L 266.07414 147.352079 
L 266.318793 147.487118 
L 266.563446 147.887347 
L 266.808099 148.747301 
L 267.052752 148.330244 
L 267.297405 147.240097 
L 267.542058 145.641314 
L 267.786711 145.734133 
L 268.276017 147.030638 
L 268.52067 146.436827 
L 268.765323 146.280519 
L 269.009976 146.368464 
L 269.254629 146.143403 
L 269.499282 146.188133 
L 269.743935 146.541902 
L 271.211853 151.597888 
L 271.456506 151.698393 
L 271.701159 150.75332 
L 271.945812 150.811936 
L 272.435118 151.337529 
L 272.679771 150.553019 
L 272.924424 150.419162 
L 273.169077 150.414057 
L 273.658383 148.688238 
L 273.903036 148.938793 
L 274.147689 149.012419 
L 274.636995 147.590406 
L 274.881648 147.587277 
L 275.126301 148.61144 
L 275.370954 147.899071 
L 275.615607 148.176676 
L 275.86026 147.949279 
L 276.349566 146.69622 
L 276.838872 148.399847 
L 277.572832 147.179275 
L 277.817485 147.028072 
L 278.306791 147.225418 
L 278.551444 147.878465 
L 279.04075 147.128302 
L 279.530056 148.280021 
L 280.019362 147.58967 
L 280.264015 147.320832 
L 280.508668 147.396693 
L 280.753321 147.755207 
L 281.48728 145.609216 
L 281.976586 145.460623 
L 282.221239 145.164647 
L 282.465892 145.96251 
L 282.710545 145.100393 
L 282.955198 145.195274 
L 283.199851 144.337685 
L 283.689157 145.420003 
L 284.178463 145.590774 
L 284.423116 144.529177 
L 284.667769 144.250058 
L 284.912422 144.643899 
L 285.401728 144.482025 
L 285.646381 145.051785 
L 286.135687 145.764616 
L 286.38034 145.237163 
L 286.624993 145.755503 
L 286.869646 145.576902 
L 287.358952 146.751087 
L 287.603605 146.540013 
L 287.848258 146.721512 
L 288.092911 146.679681 
L 288.582217 151.218611 
L 289.071523 150.206445 
L 289.805482 149.424559 
L 290.050135 148.860769 
L 290.294788 148.625196 
L 290.784094 148.511786 
L 291.2734 148.629162 
L 291.518053 148.926421 
L 291.762706 147.76716 
L 292.252012 147.550463 
L 292.496665 148.547705 
L 292.741318 147.813692 
L 293.230624 150.067829 
L 293.475277 150.584323 
L 293.71993 151.371444 
L 293.964583 151.750548 
L 294.209236 151.576706 
L 294.698542 150.772888 
L 294.943195 150.236553 
L 295.432501 149.89367 
L 295.677154 149.901673 
L 296.16646 149.009809 
L 296.411113 149.179498 
L 296.900419 147.891443 
L 297.145072 147.87773 
L 297.389725 149.273946 
L 297.879031 149.744774 
L 298.123684 149.781356 
L 298.368337 150.672773 
L 298.857643 150.012905 
L 299.102296 150.42888 
L 299.346949 150.235731 
L 299.591602 151.595408 
L 299.836256 151.514414 
L 300.080909 151.199779 
L 300.325562 150.656133 
L 300.570215 149.575863 
L 300.814868 149.395301 
L 301.059521 148.586119 
L 301.548827 148.883696 
L 302.038133 148.82521 
L 302.282786 148.248456 
L 302.772092 148.480683 
L 303.016745 149.251855 
L 303.261398 148.935707 
L 303.506051 149.136961 
L 303.750704 149.126506 
L 303.995357 149.232173 
L 304.24001 148.337814 
L 304.729316 149.246016 
L 304.973969 151.249974 
L 305.218622 152.11395 
L 305.463275 152.466321 
L 305.707928 152.003987 
L 305.952581 152.396689 
L 306.441887 152.53415 
L 306.68654 152.76668 
L 307.175846 152.137411 
L 307.420499 151.537499 
L 307.665152 151.762214 
L 307.909805 151.06337 
L 308.154458 150.710884 
L 308.399111 150.126286 
L 308.643764 150.157476 
L 308.888417 149.49706 
L 309.13307 149.353239 
L 309.377723 149.852632 
L 309.622376 149.259685 
L 309.867029 149.464818 
L 310.356335 150.537849 
L 310.600988 150.219682 
L 310.845641 151.015713 
L 311.090294 150.81792 
L 311.334947 150.913205 
L 311.5796 150.529126 
L 311.824253 150.407179 
L 312.068906 149.447774 
L 312.313559 149.945479 
L 312.558212 151.571414 
L 312.802865 151.213925 
L 313.047518 152.254195 
L 313.292171 152.622225 
L 313.536824 151.876734 
L 314.02613 151.336101 
L 314.515436 150.493711 
L 314.760089 149.693757 
L 315.004742 149.705567 
L 315.249395 150.596537 
L 315.494048 150.429803 
L 315.983354 150.944841 
L 316.228007 150.543559 
L 316.47266 150.906052 
L 317.206619 151.191805 
L 317.451272 150.71247 
L 317.695925 151.303629 
L 318.429884 151.798811 
L 318.674537 151.510809 
L 318.91919 151.537485 
L 319.408496 150.172688 
L 319.653149 150.14855 
L 319.897802 150.371577 
L 320.387108 149.399497 
L 321.121067 150.548029 
L 321.36572 150.552182 
L 321.610373 150.198038 
L 321.855026 150.208824 
L 322.099679 149.626403 
L 322.344333 150.272255 
L 322.588986 149.370067 
L 322.833639 147.924435 
L 323.078292 148.221002 
L 323.322945 149.952415 
L 323.567598 150.339047 
L 323.812251 150.229199 
L 324.301557 150.427799 
L 324.54621 150.803313 
L 324.790863 150.935093 
L 325.035516 150.478657 
L 325.280169 150.590913 
L 325.769475 150.058024 
L 326.014128 149.375229 
L 326.258781 150.204469 
L 326.503434 151.732668 
L 326.99274 151.595596 
L 327.237393 150.910926 
L 327.482046 151.123297 
L 327.726699 149.617536 
L 327.971352 149.749965 
L 328.216005 148.489133 
L 328.705311 147.342 
L 329.194617 147.913678 
L 329.43927 147.512035 
L 329.683923 147.403485 
L 329.928576 147.433031 
L 330.173229 148.107015 
L 330.417882 147.934903 
L 330.662535 147.98217 
L 330.907188 147.203788 
L 331.151841 147.522994 
L 331.396494 147.032758 
L 331.641147 147.650477 
L 331.8858 147.579375 
L 332.130453 147.745156 
L 332.375106 147.482807 
L 333.109065 149.687715 
L 333.353718 149.976929 
L 333.843024 150.074088 
L 334.33233 149.376772 
L 334.576983 149.570037 
L 334.821636 149.959308 
L 335.310942 148.779053 
L 335.555595 147.856446 
L 336.289554 149.908637 
L 336.534207 148.380266 
L 336.77886 149.349649 
L 337.023513 149.25983 
L 337.268166 149.399685 
L 337.757472 148.747921 
L 338.002125 148.750704 
L 338.491431 151.317169 
L 338.736084 151.53574 
L 338.980737 150.674792 
L 339.22539 150.829816 
L 339.470043 150.308809 
L 339.714696 150.093338 
L 339.959349 149.639713 
L 340.204002 149.431408 
L 340.448655 149.026939 
L 340.693308 149.001417 
L 340.937961 148.035537 
L 341.182614 148.160843 
L 341.427267 148.07571 
L 341.67192 147.738812 
L 341.916573 147.733462 
L 342.161226 148.379473 
L 342.405879 148.510763 
L 342.895185 148.142487 
L 343.139838 147.111128 
L 343.384491 146.687958 
L 343.873797 147.25169 
L 344.11845 146.62294 
L 344.607756 146.918872 
L 345.097063 146.685175 
L 345.586369 148.240497 
L 345.831022 148.408038 
L 346.075675 147.33567 
L 346.320328 147.176896 
L 346.564981 146.775138 
L 346.809634 147.173536 
L 347.054287 147.255699 
L 347.29894 147.523037 
L 347.543593 148.178075 
L 347.788246 148.22713 
L 348.032899 148.01137 
L 348.522205 148.28152 
L 348.766858 148.045617 
L 349.256164 147.903151 
L 349.500817 146.602363 
L 349.74547 146.762247 
L 349.990123 147.503989 
L 350.234776 147.701263 
L 350.479429 146.513193 
L 350.724082 147.391949 
L 350.968735 146.910206 
L 351.458041 147.096867 
L 351.702694 147.512338 
L 351.947347 146.980285 
L 352.192 147.413665 
L 352.436653 146.656451 
L 352.681306 146.572284 
L 352.925959 145.042528 
L 353.415265 146.543459 
L 353.659918 146.452241 
L 353.904571 146.481138 
L 354.149224 146.316813 
L 354.393877 146.661916 
L 354.63853 146.429934 
L 354.883183 146.656653 
L 355.372489 146.384873 
L 355.617142 145.724933 
L 355.861795 145.494394 
L 356.106448 144.661678 
L 356.351101 144.259719 
L 356.595754 144.189568 
L 356.840407 145.110703 
L 357.574366 144.805989 
L 357.819019 145.107199 
L 358.063672 144.756444 
L 358.308325 145.404487 
L 358.552978 143.330999 
L 358.797631 143.907103 
L 359.286937 145.389419 
L 359.53159 145.448655 
L 359.776243 145.32146 
L 360.020896 145.796512 
L 360.265549 146.012329 
L 360.510202 146.968562 
L 360.754855 147.422908 
L 360.999508 147.408142 
L 361.244161 146.554418 
L 361.488814 147.224538 
L 361.733467 147.298727 
L 361.97812 147.778408 
L 362.222773 147.722071 
L 362.467426 147.884723 
L 362.712079 147.796793 
L 363.690691 149.522121 
L 363.935344 149.286246 
L 364.179997 149.69057 
L 364.669303 149.798804 
L 364.913956 149.268193 
L 365.158609 149.24006 
L 365.403262 148.691526 
L 365.647915 148.56214 
L 365.892568 148.929002 
L 366.137221 147.387422 
L 366.626527 146.180851 
L 366.87118 146.347512 
L 367.115833 146.117909 
L 367.360487 146.469963 
L 367.849793 147.339303 
L 368.094446 147.81822 
L 368.339099 147.281423 
L 368.828405 147.312123 
L 369.073058 146.959723 
L 369.317711 146.840286 
L 370.05167 145.856122 
L 370.296323 146.030282 
L 370.540976 147.082679 
L 370.785629 147.162649 
L 371.030282 147.495885 
L 371.274935 147.59825 
L 371.519588 148.029164 
L 371.764241 147.894846 
L 372.008894 147.995956 
L 372.253547 147.9453 
L 372.4982 147.747608 
L 372.987506 146.717575 
L 373.232159 146.235443 
L 373.476812 146.555687 
L 373.721465 146.123721 
L 373.966118 146.61922 
L 374.455424 146.187498 
L 374.700077 145.867038 
L 375.189383 146.995094 
L 375.923342 147.983814 
L 376.167995 148.688037 
L 376.412648 148.355233 
L 376.657301 147.7268 
L 376.901954 147.591184 
L 377.146607 148.676141 
L 377.39126 148.704533 
L 377.635913 148.968367 
L 377.880566 148.601981 
L 378.125219 147.806079 
L 378.369872 148.025516 
L 378.614525 147.650232 
L 379.103831 148.282299 
L 379.593137 147.403946 
L 379.83779 147.365835 
L 380.082443 147.622273 
L 380.327096 147.052513 
L 380.571749 146.858988 
L 380.816402 147.637918 
L 381.305708 148.193417 
L 381.550361 148.754136 
L 381.795014 148.695073 
L 382.039667 149.032332 
L 382.28432 148.983147 
L 382.528973 149.298431 
L 383.507585 149.515863 
L 383.507585 149.515863 
" style="fill:none;stroke:#1f77b4;stroke-linecap:square;stroke-width:1.5;"/>
   </g>
   <g id="line2d_26">
    <path clip-path="url(#pf8236bb8ca)" d="M 58.85304 118.022469 
L 59.097693 120.001364 
L 59.342346 155.126763 
L 59.586999 141.769217 
L 59.831652 178.378788 
L 60.076305 120.990812 
L 60.565611 168.979033 
L 60.810264 152.158419 
L 61.29957 158.095107 
L 61.544223 152.158419 
L 61.788876 143.253389 
L 62.033529 148.695352 
L 62.278182 137.316702 
L 62.522835 148.200628 
L 62.767488 150.179524 
L 63.012141 157.600383 
L 63.501447 179.862959 
L 63.7461 129.401119 
L 63.990753 162.052898 
L 64.235406 155.621487 
L 64.480059 173.926272 
L 64.724712 163.042346 
L 64.969365 134.348358 
L 65.214018 153.147867 
L 65.703324 115.548849 
L 65.947977 159.579278 
L 66.19263 159.084554 
L 66.437283 141.769217 
L 66.681936 158.095107 
L 66.926589 107.633266 
L 67.171242 158.589831 
L 67.415895 135.83253 
L 67.660548 133.853634 
L 67.905201 152.158419 
L 68.149854 141.274493 
L 68.394507 177.38934 
L 68.63916 142.758665 
L 68.883813 168.979033 
L 69.373119 120.001364 
L 69.617772 166.010689 
L 69.862425 124.948604 
L 70.107078 149.190076 
L 70.351731 152.158419 
L 70.841037 134.843082 
L 71.08569 147.21118 
L 71.330343 148.200628 
L 71.574996 170.463205 
L 71.819649 146.221732 
L 72.064302 141.274493 
L 72.553608 158.589831 
L 72.798261 155.126763 
L 73.042914 142.263941 
L 73.287567 168.979033 
L 73.53222 155.621487 
L 73.776873 177.884064 
L 74.021526 133.853634 
L 74.266179 136.821978 
L 74.510832 149.6848 
L 74.755485 140.285045 
L 75.000138 139.790321 
L 75.244792 159.579278 
L 75.489445 162.547622 
L 75.734098 115.054125 
L 75.978751 181.841855 
L 76.468057 150.674248 
L 76.71271 157.600383 
L 76.957363 143.253389 
L 77.202016 154.632039 
L 77.446669 126.432775 
L 77.691322 140.779769 
L 77.935975 113.569953 
L 78.180628 146.716456 
L 78.425281 140.285045 
L 78.669934 120.496088 
L 78.914587 175.410444 
L 79.15924 144.242837 
L 79.403893 140.285045 
L 79.648546 126.927499 
L 80.137852 173.926272 
L 80.627158 139.295597 
L 80.871811 143.748113 
L 81.116464 130.885291 
L 81.361117 150.674248 
L 81.60577 136.327254 
L 81.850423 158.095107 
L 82.339729 144.242837 
L 82.584382 155.126763 
L 82.829035 158.095107 
L 83.073688 171.947377 
L 83.318341 133.853634 
L 83.562994 155.126763 
L 83.807647 155.126763 
L 84.0523 162.547622 
L 84.296953 147.21118 
L 84.541606 169.473757 
L 84.786259 133.35891 
L 85.030912 80.42345 
L 85.275565 147.21118 
L 85.520218 144.242837 
L 85.764871 165.021242 
L 86.009524 160.074002 
L 86.254177 147.705904 
L 86.49883 150.674248 
L 86.743483 149.6848 
L 86.988136 143.253389 
L 87.232789 130.885291 
L 87.477442 147.21118 
L 87.722095 137.811426 
L 87.966748 137.811426 
L 88.211401 175.410444 
L 88.456054 147.21118 
L 88.700707 148.200628 
L 88.94536 150.179524 
L 89.190013 149.190076 
L 89.434666 126.927499 
L 89.923972 160.074002 
L 90.168625 132.369462 
L 90.413278 156.610935 
L 90.657931 108.12799 
L 90.902584 138.800873 
L 91.147237 117.527745 
L 91.39189 154.137315 
L 91.636543 155.126763 
L 91.881196 199.157192 
L 92.125849 164.526518 
L 92.370502 165.515965 
L 92.615155 118.517192 
L 93.104461 144.242837 
L 93.349114 148.200628 
L 93.593767 107.138542 
L 93.83842 186.789094 
L 94.083073 127.916947 
L 94.572379 133.853634 
L 94.817032 148.200628 
L 95.061685 141.274493 
L 95.306338 154.137315 
L 95.550991 130.390567 
L 95.795644 142.263941 
L 96.040297 142.263941 
L 96.28495 142.758665 
L 96.529603 164.526518 
L 96.774256 165.515965 
L 97.018909 125.938051 
L 97.263562 156.610935 
L 97.508215 150.674248 
L 97.752869 119.011916 
L 97.997522 120.496088 
L 98.486828 148.695352 
L 98.731481 143.253389 
L 98.976134 119.011916 
L 99.220787 170.463205 
L 99.46544 136.327254 
L 99.710093 146.716456 
L 99.954746 133.853634 
L 100.199399 174.420996 
L 100.444052 128.906395 
L 100.688705 169.968481 
L 100.933358 108.622714 
L 101.178011 154.632039 
L 101.422664 129.401119 
L 101.91197 152.158419 
L 102.156623 196.188849 
L 102.401276 34.414125 
L 102.645929 138.30615 
L 102.890582 169.473757 
L 103.135235 119.50664 
L 103.379888 144.242837 
L 103.624541 148.200628 
L 103.869194 174.420996 
L 104.113847 137.316702 
L 104.3585 159.579278 
L 104.603153 140.285045 
L 104.847806 142.758665 
L 105.337112 159.579278 
L 105.581765 133.35891 
L 105.826418 155.126763 
L 106.071071 116.538297 
L 106.315724 159.084554 
L 106.560377 164.031794 
L 106.80503 145.727008 
L 107.049683 145.232285 
L 107.294336 130.885291 
L 107.538989 127.422223 
L 108.028295 153.147867 
L 108.272948 176.399892 
L 108.517601 149.190076 
L 108.762254 151.663696 
L 109.006907 163.042346 
L 109.25156 131.874738 
L 109.496213 131.874738 
L 109.740866 204.104432 
L 109.985519 178.378788 
L 110.230172 185.799646 
L 110.474825 106.643818 
L 110.719478 117.033021 
L 110.964131 185.304923 
L 111.208784 140.285045 
L 111.453437 116.538297 
L 111.69809 158.589831 
L 111.942743 166.505413 
L 112.187396 167.000137 
L 112.432049 146.221732 
L 112.676702 150.674248 
L 112.921355 130.390567 
L 113.166008 134.843082 
L 113.655314 210.535843 
L 113.899967 116.043573 
L 114.14462 158.589831 
L 114.633926 117.033021 
L 114.878579 150.674248 
L 115.123232 154.632039 
L 115.367885 129.895843 
L 115.612538 151.663696 
L 115.857191 141.274493 
L 116.101844 145.727008 
L 116.346497 146.221732 
L 116.59115 132.864186 
L 116.835803 154.632039 
L 117.080456 129.895843 
L 117.325109 147.21118 
L 117.569762 148.200628 
L 117.814415 185.799646 
L 118.059068 117.033021 
L 118.303721 148.695352 
L 118.548374 133.35891 
L 118.793027 159.579278 
L 119.03768 141.274493 
L 119.282333 152.158419 
L 119.526986 148.200628 
L 120.016292 165.021242 
L 120.260946 145.232285 
L 120.505599 159.084554 
L 120.750252 122.969708 
L 120.994905 164.526518 
L 121.239558 143.748113 
L 121.484211 143.253389 
L 121.728864 158.095107 
L 121.973517 144.737561 
L 122.21817 149.190076 
L 122.462823 163.53707 
L 122.707476 156.116211 
L 122.952129 153.147867 
L 123.196782 168.979033 
L 123.441435 149.190076 
L 123.686088 160.568726 
L 123.930741 153.642591 
L 124.175394 165.515965 
L 124.420047 145.727008 
L 124.6647 136.821978 
L 124.909353 167.000137 
L 125.154006 145.727008 
L 125.398659 137.316702 
L 125.643312 159.579278 
L 125.887965 143.253389 
L 126.132618 161.06345 
L 126.377271 115.548849 
L 126.621924 162.052898 
L 126.866577 141.769217 
L 127.11123 138.800873 
L 127.355883 141.769217 
L 127.600536 139.790321 
L 127.845189 164.031794 
L 128.089842 134.843082 
L 128.334495 138.800873 
L 128.579148 150.674248 
L 128.823801 107.633266 
L 129.068454 161.06345 
L 129.313107 142.758665 
L 129.55776 185.304923 
L 129.802413 152.158419 
L 130.047066 157.105659 
L 130.291719 126.927499 
L 130.536372 164.031794 
L 130.781025 172.936824 
L 131.025678 143.748113 
L 131.270331 172.936824 
L 131.759637 145.232285 
L 132.00429 154.632039 
L 132.248943 135.83253 
L 132.493596 157.105659 
L 132.738249 112.580505 
L 132.982902 147.705904 
L 133.227555 140.285045 
L 133.472208 159.579278 
L 133.716861 130.390567 
L 133.961514 120.001364 
L 134.45082 145.232285 
L 134.695473 133.853634 
L 135.184779 161.558174 
L 135.674085 118.517192 
L 136.163391 156.116211 
L 136.652697 145.232285 
L 136.89735 152.158419 
L 137.142003 147.705904 
L 137.386656 120.001364 
L 137.631309 158.095107 
L 137.875962 136.327254 
L 138.120615 156.116211 
L 138.609921 135.337806 
L 138.854574 142.758665 
L 139.34388 149.6848 
L 139.588533 148.695352 
L 139.833186 151.168972 
L 140.077839 128.906395 
L 140.322492 147.21118 
L 140.811798 153.147867 
L 141.301104 147.21118 
L 141.545757 152.653143 
L 141.79041 133.853634 
L 142.035063 146.221732 
L 142.279716 173.926272 
L 142.524369 116.043573 
L 143.013676 174.420996 
L 143.258329 133.35891 
L 143.502982 192.725781 
L 143.747635 146.221732 
L 143.992288 145.232285 
L 144.236941 155.621487 
L 144.481594 101.696579 
L 144.726247 155.126763 
L 144.9709 138.30615 
L 145.215553 141.274493 
L 145.460206 145.727008 
L 145.704859 132.369462 
L 145.949512 138.800873 
L 146.194165 125.938051 
L 146.438818 136.327254 
L 146.683471 179.368235 
L 146.928124 157.105659 
L 147.172777 156.610935 
L 147.41743 141.274493 
L 147.662083 169.473757 
L 147.906736 157.600383 
L 148.151389 127.422223 
L 148.396042 176.894616 
L 148.640695 139.295597 
L 149.130001 149.6848 
L 149.374654 168.484309 
L 149.619307 115.548849 
L 150.108613 179.862959 
L 150.842572 140.285045 
L 151.087225 195.199401 
L 151.331878 133.853634 
L 151.576531 164.526518 
L 151.821184 177.884064 
L 152.065837 133.35891 
L 152.31049 140.779769 
L 152.555143 126.432775 
L 152.799796 151.168972 
L 153.044449 116.538297 
L 153.289102 143.748113 
L 153.533755 153.642591 
L 153.778408 140.285045 
L 154.023061 133.35891 
L 154.267714 219.440873 
L 154.512367 165.515965 
L 154.75702 137.316702 
L 155.001673 153.147867 
L 155.246326 131.380015 
L 155.490979 133.853634 
L 155.735632 142.263941 
L 155.980285 137.316702 
L 156.224938 140.779769 
L 156.469591 151.168972 
L 156.714244 137.811426 
L 156.958897 145.232285 
L 157.20355 141.274493 
L 157.448203 143.253389 
L 157.692856 142.263941 
L 157.937509 139.790321 
L 158.182162 163.53707 
L 158.426815 171.947377 
L 158.671468 137.316702 
L 158.916121 142.263941 
L 159.160774 140.779769 
L 159.405427 160.074002 
L 159.65008 131.874738 
L 159.894733 147.705904 
L 160.139386 149.190076 
L 160.384039 136.327254 
L 160.628692 147.705904 
L 160.873345 136.821978 
L 161.117998 140.779769 
L 161.362651 161.558174 
L 161.607304 159.579278 
L 161.851957 151.168972 
L 162.09661 160.074002 
L 162.585916 127.422223 
L 162.830569 133.35891 
L 163.564528 160.074002 
L 163.809181 142.263941 
L 164.053834 75.476211 
L 164.298487 126.927499 
L 164.54314 140.779769 
L 165.032447 149.190076 
L 165.2771 146.221732 
L 165.521753 148.695352 
L 165.766406 131.874738 
L 166.011059 146.221732 
L 166.255712 169.968481 
L 166.500365 136.327254 
L 166.745018 147.705904 
L 166.989671 138.800873 
L 167.234324 156.610935 
L 167.478977 160.568726 
L 167.72363 126.432775 
L 167.968283 156.116211 
L 168.212936 140.285045 
L 168.457589 149.6848 
L 168.702242 132.864186 
L 168.946895 158.095107 
L 169.191548 165.515965 
L 169.436201 128.906395 
L 169.680854 156.116211 
L 169.925507 153.642591 
L 170.17016 132.864186 
L 170.414813 161.558174 
L 170.904119 137.811426 
L 171.148772 156.610935 
L 171.638078 134.843082 
L 171.882731 149.6848 
L 172.127384 146.221732 
L 172.372037 151.663696 
L 172.61669 142.263941 
L 172.861343 142.263941 
L 173.105996 151.168972 
L 173.350649 139.295597 
L 173.839955 168.979033 
L 174.329261 132.864186 
L 174.573914 134.348358 
L 174.818567 115.548849 
L 175.307873 152.158419 
L 175.797179 141.274493 
L 176.041832 141.769217 
L 176.286485 143.748113 
L 176.531138 139.295597 
L 176.775791 138.800873 
L 177.020444 150.674248 
L 177.265097 147.21118 
L 177.50975 150.179524 
L 177.754403 151.663696 
L 177.999056 157.105659 
L 178.488362 131.874738 
L 178.733015 161.558174 
L 178.977668 126.927499 
L 179.222321 161.06345 
L 179.466974 146.221732 
L 179.711627 152.158419 
L 179.95628 126.927499 
L 180.200933 148.695352 
L 180.445586 207.072775 
L 180.934892 139.295597 
L 181.179545 145.727008 
L 181.424198 163.042346 
L 181.668851 163.53707 
L 181.913504 183.326027 
L 182.40281 147.21118 
L 182.647463 141.769217 
L 182.892116 158.095107 
L 183.136769 110.60161 
L 183.381422 175.410444 
L 183.626075 142.263941 
L 183.870728 141.274493 
L 184.115381 141.769217 
L 184.360034 134.348358 
L 184.604687 135.337806 
L 184.84934 112.580505 
L 185.093993 123.959156 
L 185.338646 151.663696 
L 185.583299 147.705904 
L 185.827952 139.295597 
L 186.072605 161.558174 
L 186.317258 132.864186 
L 186.561911 137.811426 
L 186.806564 147.21118 
L 187.051217 145.727008 
L 187.29587 142.758665 
L 187.540524 151.168972 
L 187.785177 140.285045 
L 188.02983 142.758665 
L 188.274483 148.695352 
L 188.519136 150.179524 
L 188.763789 139.295597 
L 189.008442 135.83253 
L 189.497748 171.452653 
L 189.742401 145.232285 
L 189.987054 140.285045 
L 190.231707 148.695352 
L 190.47636 138.30615 
L 190.721013 134.348358 
L 190.965666 138.800873 
L 191.210319 163.53707 
L 191.454972 128.411671 
L 191.699625 171.452653 
L 191.944278 126.432775 
L 192.188931 144.737561 
L 192.433584 126.927499 
L 192.678237 143.253389 
L 192.92289 151.168972 
L 193.412196 117.527745 
L 193.656849 131.380015 
L 193.901502 116.043573 
L 194.146155 180.852407 
L 194.390808 117.527745 
L 194.635461 167.000137 
L 194.880114 168.484309 
L 195.124767 167.494861 
L 195.36942 180.357683 
L 195.614073 131.380015 
L 195.858726 126.927499 
L 196.103379 276.334125 
L 196.348032 150.179524 
L 196.592685 135.337806 
L 196.837338 138.800873 
L 197.081991 160.568726 
L 197.326644 157.105659 
L 197.571297 127.422223 
L 198.060603 123.464432 
L 198.305256 150.674248 
L 198.549909 146.716456 
L 198.794562 122.969708 
L 199.039215 148.200628 
L 200.017827 137.316702 
L 200.507133 150.179524 
L 200.751786 137.811426 
L 200.996439 117.033021 
L 201.241092 113.075229 
L 201.485745 145.727008 
L 201.730398 134.843082 
L 201.975051 158.589831 
L 202.219704 139.295597 
L 202.464357 154.137315 
L 202.70901 120.496088 
L 202.953663 161.06345 
L 203.198316 147.705904 
L 203.442969 183.820751 
L 203.932275 145.727008 
L 204.176928 166.505413 
L 204.421581 201.630812 
L 204.910887 150.674248 
L 205.15554 177.884064 
L 205.644846 156.116211 
L 205.889499 89.823205 
L 206.134152 105.65437 
L 206.378805 168.979033 
L 206.623458 127.422223 
L 206.868111 116.538297 
L 207.112764 148.695352 
L 207.357417 146.221732 
L 207.60207 152.158419 
L 207.846723 152.158419 
L 208.091376 173.926272 
L 208.336029 151.168972 
L 208.580682 147.21118 
L 209.069988 120.990812 
L 209.314641 121.485536 
L 209.559294 170.957929 
L 209.803947 166.505413 
L 210.048601 147.705904 
L 210.293254 150.674248 
L 210.537907 156.116211 
L 210.78256 139.790321 
L 211.027213 116.043573 
L 211.271866 137.316702 
L 211.516519 126.432775 
L 211.761172 170.463205 
L 212.005825 162.547622 
L 212.250478 177.38934 
L 212.495131 170.463205 
L 212.739784 138.30615 
L 212.984437 193.220505 
L 213.22909 126.432775 
L 213.473743 145.232285 
L 213.718396 144.737561 
L 213.963049 141.769217 
L 214.207702 164.031794 
L 214.452355 158.095107 
L 214.697008 89.328481 
L 214.941661 148.695352 
L 215.186314 157.105659 
L 215.430967 156.116211 
L 215.67562 156.116211 
L 215.920273 151.168972 
L 216.164926 128.411671 
L 216.409579 154.137315 
L 216.654232 153.147867 
L 216.898885 133.35891 
L 217.143538 151.168972 
L 217.632844 105.65437 
L 217.877497 152.158419 
L 218.366803 169.473757 
L 218.611456 152.158419 
L 218.856109 190.746886 
L 219.100762 153.642591 
L 219.345415 181.841855 
L 219.590068 176.399892 
L 219.834721 123.959156 
L 220.079374 179.862959 
L 220.324027 128.411671 
L 220.813333 142.758665 
L 221.057986 175.905168 
L 221.302639 116.043573 
L 221.547292 148.695352 
L 221.791945 154.632039 
L 222.036598 148.200628 
L 222.281251 152.158419 
L 222.525904 160.568726 
L 222.770557 125.938051 
L 223.01521 145.232285 
L 223.259863 140.779769 
L 223.504516 147.21118 
L 223.749169 122.969708 
L 223.993822 155.126763 
L 224.238475 153.147867 
L 224.483128 139.295597 
L 224.727781 155.621487 
L 225.217087 156.610935 
L 225.46174 152.653143 
L 225.706393 137.316702 
L 225.951046 162.052898 
L 226.195699 129.401119 
L 226.440352 141.274493 
L 226.685005 120.990812 
L 226.929658 165.021242 
L 227.174311 150.179524 
L 227.663617 150.179524 
L 227.90827 161.06345 
L 228.397576 129.895843 
L 228.886882 157.600383 
L 229.376188 145.232285 
L 229.620841 133.35891 
L 230.110147 159.579278 
L 230.3548 129.401119 
L 230.599453 124.948604 
L 230.844106 146.221732 
L 231.088759 157.105659 
L 231.333412 147.705904 
L 231.578065 145.232285 
L 231.822718 153.147867 
L 232.067371 148.200628 
L 232.312024 158.095107 
L 232.556678 140.779769 
L 232.801331 146.221732 
L 233.045984 156.116211 
L 233.290637 148.200628 
L 233.53529 144.737561 
L 234.269249 171.452653 
L 234.513902 144.242837 
L 234.758555 145.232285 
L 235.003208 140.779769 
L 235.247861 158.589831 
L 235.492514 154.137315 
L 235.737167 165.515965 
L 235.98182 122.969708 
L 236.226473 137.811426 
L 236.471126 128.411671 
L 236.715779 159.579278 
L 236.960432 143.253389 
L 237.205085 152.158419 
L 237.449738 156.610935 
L 237.694391 155.621487 
L 237.939044 148.200628 
L 238.183697 176.894616 
L 238.673003 133.853634 
L 238.917656 147.705904 
L 239.162309 150.674248 
L 239.406962 106.149094 
L 239.651615 166.505413 
L 240.140921 123.959156 
L 240.385574 133.853634 
L 240.630227 121.98026 
L 240.87488 149.190076 
L 241.119533 129.895843 
L 241.364186 158.589831 
L 241.608839 140.779769 
L 241.853492 156.610935 
L 242.098145 161.558174 
L 242.342798 150.179524 
L 242.587451 167.000137 
L 242.832104 142.263941 
L 243.076757 146.716456 
L 243.32141 145.232285 
L 243.566063 148.695352 
L 243.810716 121.485536 
L 244.055369 124.45388 
L 244.300022 131.874738 
L 244.544675 133.853634 
L 244.789328 157.105659 
L 245.278634 151.663696 
L 245.523287 157.105659 
L 245.76794 158.095107 
L 246.012593 155.126763 
L 246.257246 139.790321 
L 246.501899 142.263941 
L 246.746552 149.6848 
L 246.991205 172.936824 
L 247.235858 158.589831 
L 247.480511 197.673021 
L 247.725164 204.104432 
L 247.969817 166.505413 
L 248.21447 110.60161 
L 248.459123 120.496088 
L 249.193082 175.410444 
L 249.437735 139.790321 
L 249.682388 134.348358 
L 249.927041 178.873512 
L 250.171694 128.411671 
L 250.416347 176.894616 
L 250.661 141.274493 
L 250.905653 161.558174 
L 251.150306 148.695352 
L 251.639612 115.054125 
L 251.884265 135.83253 
L 252.128918 167.000137 
L 252.373571 136.821978 
L 252.618224 167.000137 
L 253.10753 127.916947 
L 253.352183 123.959156 
L 253.596836 151.663696 
L 253.841489 140.779769 
L 254.086142 124.45388 
L 254.330795 163.042346 
L 254.575448 118.022469 
L 254.820101 116.538297 
L 255.064755 149.6848 
L 255.309408 119.50664 
L 255.554061 124.45388 
L 255.798714 145.232285 
L 256.043367 148.200628 
L 256.28802 164.526518 
L 256.777326 135.337806 
L 257.266632 148.695352 
L 257.511285 132.369462 
L 257.755938 152.158419 
L 258.000591 95.265168 
L 258.245244 169.473757 
L 258.73455 146.221732 
L 258.979203 141.274493 
L 259.223856 144.242837 
L 259.468509 168.979033 
L 259.713162 152.653143 
L 259.957815 151.168972 
L 260.202468 156.610935 
L 260.447121 129.401119 
L 260.691774 165.515965 
L 260.936427 167.989585 
L 261.18108 135.83253 
L 261.425733 133.853634 
L 261.670386 169.968481 
L 261.915039 157.105659 
L 262.159692 118.517192 
L 262.404345 161.558174 
L 262.648998 117.033021 
L 262.893651 106.149094 
L 263.138304 180.852407 
L 263.382957 120.990812 
L 263.62761 127.422223 
L 263.872263 147.21118 
L 264.116916 157.600383 
L 264.361569 173.431548 
L 264.606222 133.853634 
L 264.850875 153.147867 
L 265.095528 162.547622 
L 265.340181 106.149094 
L 265.584834 151.663696 
L 265.829487 156.610935 
L 266.07414 164.526518 
L 266.318793 142.263941 
L 266.563446 171.452653 
L 267.052752 116.538297 
L 267.297405 109.117438 
L 267.786711 196.188849 
L 268.031364 133.35891 
L 268.276017 121.98026 
L 268.52067 128.411671 
L 268.765323 153.642591 
L 269.009976 149.6848 
L 269.254629 136.327254 
L 269.743935 177.38934 
L 269.988588 174.91572 
L 270.233241 139.790321 
L 270.722547 181.841855 
L 270.9672 152.653143 
L 271.211853 143.748113 
L 271.456506 120.496088 
L 271.701159 160.568726 
L 271.945812 145.727008 
L 272.190465 166.010689 
L 272.435118 126.432775 
L 272.679771 173.926272 
L 273.169077 114.064677 
L 273.41373 142.263941 
L 273.658383 151.168972 
L 273.903036 146.716456 
L 274.147689 123.464432 
L 274.392342 129.895843 
L 274.636995 143.253389 
L 274.881648 174.91572 
L 275.126301 133.35891 
L 275.370954 156.610935 
L 275.615607 151.663696 
L 275.86026 136.821978 
L 276.104913 115.054125 
L 276.349566 184.315475 
L 276.838872 112.580505 
L 277.083525 134.843082 
L 277.328178 140.779769 
L 277.572832 141.274493 
L 277.817485 139.295597 
L 278.062138 138.800873 
L 278.306791 159.579278 
L 278.551444 136.327254 
L 278.796097 134.843082 
L 279.04075 197.673021 
L 279.530056 119.50664 
L 279.774709 143.253389 
L 280.019362 137.811426 
L 280.264015 139.790321 
L 280.508668 152.158419 
L 280.753321 131.874738 
L 280.997974 122.969708 
L 281.242627 126.432775 
L 281.48728 148.695352 
L 281.731933 142.758665 
L 282.221239 156.610935 
L 282.465892 111.591058 
L 282.710545 155.621487 
L 282.955198 143.748113 
L 283.199851 155.621487 
L 283.93381 136.327254 
L 284.178463 113.569953 
L 284.423116 142.263941 
L 284.667769 156.610935 
L 284.912422 125.443327 
L 285.401728 165.021242 
L 285.646381 138.30615 
L 285.891034 164.526518 
L 286.135687 121.98026 
L 286.38034 168.484309 
L 286.624993 136.821978 
L 286.869646 177.38934 
L 287.358952 133.853634 
L 287.603605 141.274493 
L 287.848258 128.411671 
L 288.092911 257.534616 
L 288.582217 103.675475 
L 288.82687 138.800873 
L 289.071523 156.116211 
L 289.316176 139.790321 
L 289.560829 149.6848 
L 289.805482 138.800873 
L 290.050135 138.30615 
L 290.294788 154.137315 
L 290.539441 140.285045 
L 290.784094 143.253389 
L 291.028747 134.348358 
L 291.2734 151.168972 
L 291.518053 121.98026 
L 291.762706 161.558174 
L 292.007359 128.906395 
L 292.252012 170.957929 
L 292.496665 133.853634 
L 292.741318 190.252162 
L 292.985971 160.568726 
L 293.230624 155.126763 
L 293.475277 165.515965 
L 293.964583 127.422223 
L 294.209236 146.716456 
L 294.453889 131.874738 
L 294.943195 156.116211 
L 295.187848 142.263941 
L 295.432501 146.221732 
L 295.677154 131.380015 
L 295.921807 130.885291 
L 296.16646 149.6848 
L 296.411113 135.83253 
L 296.655766 136.821978 
L 296.900419 135.83253 
L 297.145072 190.252162 
L 297.389725 151.168972 
L 297.634378 148.695352 
L 297.879031 132.369462 
L 298.123684 172.936824 
L 298.368337 137.811426 
L 298.61299 139.790321 
L 298.857643 160.568726 
L 299.102296 136.327254 
L 299.346949 204.104432 
L 299.836256 127.422223 
L 300.080909 134.348358 
L 300.325562 103.180751 
L 300.570215 157.600383 
L 300.814868 131.874738 
L 301.059521 155.126763 
L 301.304174 156.116211 
L 301.548827 132.864186 
L 301.79348 137.811426 
L 302.038133 146.716456 
L 302.282786 139.295597 
L 302.527439 149.6848 
L 302.772092 150.179524 
L 303.016745 147.21118 
L 303.261398 147.21118 
L 303.506051 153.147867 
L 303.750704 150.179524 
L 303.995357 128.411671 
L 304.729316 220.430321 
L 304.973969 134.843082 
L 305.463275 156.116211 
L 305.707928 143.253389 
L 305.952581 141.769217 
L 306.197234 153.642591 
L 306.441887 148.695352 
L 306.68654 149.190076 
L 306.931193 145.727008 
L 307.175846 140.285045 
L 307.420499 140.285045 
L 307.665152 133.35891 
L 307.909805 136.821978 
L 308.154458 167.494861 
L 308.399111 135.83253 
L 308.888417 156.116211 
L 309.13307 156.116211 
L 309.377723 141.769217 
L 309.622376 147.21118 
L 310.111682 164.526518 
L 310.356335 136.327254 
L 310.600988 162.052898 
L 310.845641 137.811426 
L 311.090294 151.168972 
L 311.334947 131.874738 
L 311.5796 140.779769 
L 311.824253 154.632039 
L 312.068906 147.705904 
L 312.313559 214.493634 
L 312.558212 101.696579 
L 312.802865 192.231058 
L 313.292171 134.843082 
L 313.536824 158.095107 
L 313.781477 149.190076 
L 314.02613 135.337806 
L 314.270783 137.811426 
L 314.515436 125.938051 
L 315.004742 181.347131 
L 315.249395 120.496088 
L 315.494048 168.979033 
L 315.983354 132.864186 
L 316.228007 161.558174 
L 316.47266 156.610935 
L 316.717313 148.695352 
L 316.961966 152.158419 
L 317.206619 146.221732 
L 317.451272 147.21118 
L 317.695925 156.610935 
L 317.940578 135.337806 
L 318.185231 148.200628 
L 318.429884 151.663696 
L 318.674537 150.674248 
L 318.91919 128.906395 
L 319.408496 153.147867 
L 319.897802 125.938051 
L 320.142455 148.200628 
L 320.387108 152.158419 
L 320.631761 163.042346 
L 320.876414 141.769217 
L 321.121067 138.800873 
L 321.36572 161.06345 
L 321.610373 150.674248 
L 321.855026 148.200628 
L 322.099679 164.031794 
L 322.344333 109.117438 
L 322.588986 126.432775 
L 323.078292 213.009462 
L 323.322945 142.758665 
L 323.567598 140.285045 
L 323.812251 133.853634 
L 324.056904 156.116211 
L 324.301557 154.137315 
L 324.54621 157.600383 
L 324.790863 124.948604 
L 325.280169 159.579278 
L 325.524822 126.927499 
L 325.769475 136.327254 
L 326.014128 176.894616 
L 326.258781 186.789094 
L 326.748087 137.811426 
L 326.99274 134.348358 
L 327.237393 149.6848 
L 327.482046 111.591058 
L 327.726699 162.547622 
L 327.971352 96.74934 
L 328.216005 152.158419 
L 328.460658 154.137315 
L 328.705311 174.420996 
L 328.949964 130.390567 
L 329.194617 137.811426 
L 329.43927 150.674248 
L 329.683923 147.705904 
L 329.928576 151.663696 
L 330.417882 144.737561 
L 330.662535 146.716456 
L 330.907188 158.095107 
L 331.151841 136.821978 
L 331.396494 154.137315 
L 331.641147 130.390567 
L 331.8858 154.632039 
L 332.130453 142.263941 
L 332.375106 147.705904 
L 332.619759 167.989585 
L 332.864412 161.06345 
L 333.109065 146.716456 
L 333.353718 152.158419 
L 333.598371 150.674248 
L 333.843024 130.390567 
L 334.33233 154.632039 
L 334.576983 138.30615 
L 334.821636 141.769217 
L 335.066289 123.959156 
L 335.310942 136.327254 
L 335.555595 162.547622 
L 335.800248 165.021242 
L 336.289554 137.811426 
L 336.534207 162.547622 
L 336.77886 140.285045 
L 337.023513 140.285045 
L 337.268166 146.221732 
L 337.512819 130.390567 
L 337.757472 141.274493 
L 338.002125 185.304923 
L 338.246778 180.357683 
L 338.491431 145.232285 
L 338.736084 151.663696 
L 338.980737 151.663696 
L 339.22539 109.612162 
L 339.470043 145.727008 
L 339.714696 135.83253 
L 340.204002 144.242837 
L 340.448655 141.274493 
L 340.693308 152.653143 
L 340.937961 132.864186 
L 341.182614 137.316702 
L 341.427267 131.874738 
L 341.916573 162.052898 
L 342.161226 156.610935 
L 342.405879 147.21118 
L 342.650532 145.232285 
L 342.895185 134.348358 
L 343.139838 160.074002 
L 343.629144 139.790321 
L 343.873797 140.779769 
L 344.11845 158.095107 
L 344.363103 139.790321 
L 344.607756 131.380015 
L 344.85241 153.147867 
L 345.097063 157.600383 
L 345.341716 149.6848 
L 345.586369 137.316702 
L 346.075675 147.705904 
L 346.320328 138.30615 
L 346.564981 155.126763 
L 346.809634 148.695352 
L 347.054287 133.853634 
L 347.29894 152.653143 
L 347.543593 142.263941 
L 347.788246 150.179524 
L 348.032899 143.253389 
L 348.277552 148.695352 
L 348.522205 133.35891 
L 348.766858 154.632039 
L 349.011511 133.35891 
L 349.256164 126.927499 
L 349.500817 159.579278 
L 349.990123 148.200628 
L 350.234776 136.821978 
L 350.479429 155.621487 
L 350.724082 140.779769 
L 350.968735 158.589831 
L 351.213388 140.285045 
L 351.458041 143.748113 
L 351.702694 138.800873 
L 351.947347 150.674248 
L 352.192 130.390567 
L 352.436653 145.727008 
L 352.681306 137.316702 
L 352.925959 166.010689 
L 353.170612 144.242837 
L 353.415265 142.263941 
L 353.659918 151.168972 
L 353.904571 140.285045 
L 354.149224 141.274493 
L 354.393877 143.253389 
L 354.63853 153.642591 
L 355.127836 133.35891 
L 355.372489 136.821978 
L 355.617142 115.548849 
L 355.861795 128.411671 
L 356.106448 148.200628 
L 356.351101 145.232285 
L 356.595754 145.232285 
L 356.840407 131.380015 
L 357.08506 142.263941 
L 357.329713 142.263941 
L 357.574366 147.705904 
L 357.819019 170.463205 
L 358.063672 166.010689 
L 358.308325 137.811426 
L 358.552978 146.716456 
L 358.797631 162.052898 
L 359.042284 133.853634 
L 359.286937 149.6848 
L 359.53159 144.242837 
L 359.776243 143.748113 
L 360.020896 135.83253 
L 360.265549 166.505413 
L 360.754855 138.30615 
L 360.999508 138.30615 
L 361.244161 166.010689 
L 361.488814 133.853634 
L 361.733467 171.452653 
L 361.97812 146.221732 
L 362.222773 151.663696 
L 362.467426 144.242837 
L 362.712079 167.989585 
L 362.956732 147.705904 
L 363.201385 147.705904 
L 363.446038 149.6848 
L 363.690691 138.30615 
L 363.935344 151.168972 
L 364.179997 134.843082 
L 364.669303 150.179524 
L 364.913956 139.295597 
L 365.158609 147.705904 
L 365.403262 136.821978 
L 365.647915 156.610935 
L 365.892568 127.422223 
L 366.137221 122.474984 
L 366.381874 128.411671 
L 366.626527 152.653143 
L 366.87118 155.621487 
L 367.360487 152.653143 
L 367.60514 143.253389 
L 367.849793 155.621487 
L 368.094446 140.285045 
L 368.339099 149.190076 
L 368.583752 147.705904 
L 368.828405 139.790321 
L 369.073058 154.632039 
L 369.317711 136.821978 
L 369.562364 127.916947 
L 370.05167 164.031794 
L 370.540976 146.716456 
L 370.785629 151.168972 
L 371.030282 150.179524 
L 371.274935 153.642591 
L 371.519588 139.295597 
L 371.764241 154.632039 
L 372.008894 145.727008 
L 372.253547 150.179524 
L 372.4982 139.295597 
L 372.742853 135.83253 
L 373.232159 145.232285 
L 373.476812 131.380015 
L 373.721465 146.221732 
L 373.966118 136.327254 
L 374.210771 137.316702 
L 374.455424 139.790321 
L 374.700077 184.810199 
L 374.94473 143.748113 
L 375.189383 150.674248 
L 375.678689 157.105659 
L 375.923342 166.010689 
L 376.167995 142.758665 
L 376.412648 137.316702 
L 376.657301 153.147867 
L 376.901954 193.220505 
L 377.146607 133.853634 
L 377.39126 142.263941 
L 377.635913 157.600383 
L 377.880566 127.916947 
L 378.125219 131.874738 
L 378.369872 146.221732 
L 378.859178 151.168972 
L 379.103831 124.45388 
L 379.593137 146.716456 
L 379.83779 143.748113 
L 380.082443 125.443327 
L 380.327096 152.158419 
L 380.571749 153.147867 
L 380.816402 137.811426 
L 381.061055 157.600383 
L 381.305708 150.179524 
L 381.550361 154.137315 
L 381.795014 153.642591 
L 382.039667 138.30615 
L 382.28432 155.126763 
L 382.528973 157.600383 
L 382.773626 141.274493 
L 383.018279 156.116211 
L 383.262932 143.253389 
L 383.507585 142.758665 
L 383.507585 142.758665 
" style="fill:none;stroke:#ff7f0e;stroke-linecap:square;stroke-width:1.5;"/>
   </g>
   <g id="patch_3">
    <path d="M 42.620313 288.430125 
L 42.620313 22.318125 
" style="fill:none;stroke:#000000;stroke-linecap:square;stroke-linejoin:miter;stroke-width:0.8;"/>
   </g>
   <g id="patch_4">
    <path d="M 399.740313 288.430125 
L 399.740313 22.318125 
" style="fill:none;stroke:#000000;stroke-linecap:square;stroke-linejoin:miter;stroke-width:0.8;"/>
   </g>
   <g id="patch_5">
    <path d="M 42.620313 288.430125 
L 399.740313 288.430125 
" style="fill:none;stroke:#000000;stroke-linecap:square;stroke-linejoin:miter;stroke-width:0.8;"/>
   </g>
   <g id="patch_6">
    <path d="M 42.620313 22.318125 
L 399.740313 22.318125 
" style="fill:none;stroke:#000000;stroke-linecap:square;stroke-linejoin:miter;stroke-width:0.8;"/>
   </g>
   <g id="text_15">
    <!-- Training: KO -->
    <defs>
     <path d="M -0.296875 72.90625 
L 61.375 72.90625 
L 61.375 64.59375 
L 35.5 64.59375 
L 35.5 0 
L 25.59375 0 
L 25.59375 64.59375 
L -0.296875 64.59375 
z
" id="DejaVuSans-84"/>
     <path d="M 41.109375 46.296875 
Q 39.59375 47.171875 37.8125 47.578125 
Q 36.03125 48 33.890625 48 
Q 26.265625 48 22.1875 43.046875 
Q 18.109375 38.09375 18.109375 28.8125 
L 18.109375 0 
L 9.078125 0 
L 9.078125 54.6875 
L 18.109375 54.6875 
L 18.109375 46.1875 
Q 20.953125 51.171875 25.484375 53.578125 
Q 30.03125 56 36.53125 56 
Q 37.453125 56 38.578125 55.875 
Q 39.703125 55.765625 41.0625 55.515625 
z
" id="DejaVuSans-114"/>
     <path d="M 9.421875 54.6875 
L 18.40625 54.6875 
L 18.40625 0 
L 9.421875 0 
z
M 9.421875 75.984375 
L 18.40625 75.984375 
L 18.40625 64.59375 
L 9.421875 64.59375 
z
" id="DejaVuSans-105"/>
     <path d="M 11.71875 12.40625 
L 22.015625 12.40625 
L 22.015625 0 
L 11.71875 0 
z
M 11.71875 51.703125 
L 22.015625 51.703125 
L 22.015625 39.3125 
L 11.71875 39.3125 
z
" id="DejaVuSans-58"/>
     <path d="M 9.8125 72.90625 
L 19.671875 72.90625 
L 19.671875 42.09375 
L 52.390625 72.90625 
L 65.09375 72.90625 
L 28.90625 38.921875 
L 67.671875 0 
L 54.6875 0 
L 19.671875 35.109375 
L 19.671875 0 
L 9.8125 0 
z
" id="DejaVuSans-75"/>
     <path d="M 39.40625 66.21875 
Q 28.65625 66.21875 22.328125 58.203125 
Q 16.015625 50.203125 16.015625 36.375 
Q 16.015625 22.609375 22.328125 14.59375 
Q 28.65625 6.59375 39.40625 6.59375 
Q 50.140625 6.59375 56.421875 14.59375 
Q 62.703125 22.609375 62.703125 36.375 
Q 62.703125 50.203125 56.421875 58.203125 
Q 50.140625 66.21875 39.40625 66.21875 
z
M 39.40625 74.21875 
Q 54.734375 74.21875 63.90625 63.9375 
Q 73.09375 53.65625 73.09375 36.375 
Q 73.09375 19.140625 63.90625 8.859375 
Q 54.734375 -1.421875 39.40625 -1.421875 
Q 24.03125 -1.421875 14.8125 8.828125 
Q 5.609375 19.09375 5.609375 36.375 
Q 5.609375 53.65625 14.8125 63.9375 
Q 24.03125 74.21875 39.40625 74.21875 
z
" id="DejaVuSans-79"/>
    </defs>
    <g transform="translate(185.253438 16.318125)scale(0.12 -0.12)">
     <use xlink:href="#DejaVuSans-84"/>
     <use x="46.333984" xlink:href="#DejaVuSans-114"/>
     <use x="87.447266" xlink:href="#DejaVuSans-97"/>
     <use x="148.726562" xlink:href="#DejaVuSans-105"/>
     <use x="176.509766" xlink:href="#DejaVuSans-110"/>
     <use x="239.888672" xlink:href="#DejaVuSans-105"/>
     <use x="267.671875" xlink:href="#DejaVuSans-110"/>
     <use x="331.050781" xlink:href="#DejaVuSans-103"/>
     <use x="394.527344" xlink:href="#DejaVuSans-58"/>
     <use x="428.21875" xlink:href="#DejaVuSans-32"/>
     <use x="460.005859" xlink:href="#DejaVuSans-75"/>
     <use x="520.082031" xlink:href="#DejaVuSans-79"/>
    </g>
   </g>
   <g id="legend_1">
    <g id="patch_7">
     <path d="M 49.620313 59.674375 
L 133.348438 59.674375 
Q 135.348438 59.674375 135.348438 57.674375 
L 135.348438 29.318125 
Q 135.348438 27.318125 133.348438 27.318125 
L 49.620313 27.318125 
Q 47.620313 27.318125 47.620313 29.318125 
L 47.620313 57.674375 
Q 47.620313 59.674375 49.620313 59.674375 
z
" style="fill:#ffffff;opacity:0.8;stroke:#cccccc;stroke-linejoin:miter;"/>
    </g>
    <g id="line2d_27">
     <path d="M 51.620313 35.416562 
L 71.620313 35.416562 
" style="fill:none;stroke:#1f77b4;stroke-linecap:square;stroke-width:1.5;"/>
    </g>
    <g id="line2d_28"/>
    <g id="text_16">
     <!-- Predicted -->
     <defs>
      <path d="M 19.671875 64.796875 
L 19.671875 37.40625 
L 32.078125 37.40625 
Q 38.96875 37.40625 42.71875 40.96875 
Q 46.484375 44.53125 46.484375 51.125 
Q 46.484375 57.671875 42.71875 61.234375 
Q 38.96875 64.796875 32.078125 64.796875 
z
M 9.8125 72.90625 
L 32.078125 72.90625 
Q 44.34375 72.90625 50.609375 67.359375 
Q 56.890625 61.8125 56.890625 51.125 
Q 56.890625 40.328125 50.609375 34.8125 
Q 44.34375 29.296875 32.078125 29.296875 
L 19.671875 29.296875 
L 19.671875 0 
L 9.8125 0 
z
" id="DejaVuSans-80"/>
      <path d="M 45.40625 46.390625 
L 45.40625 75.984375 
L 54.390625 75.984375 
L 54.390625 0 
L 45.40625 0 
L 45.40625 8.203125 
Q 42.578125 3.328125 38.25 0.953125 
Q 33.9375 -1.421875 27.875 -1.421875 
Q 17.96875 -1.421875 11.734375 6.484375 
Q 5.515625 14.40625 5.515625 27.296875 
Q 5.515625 40.1875 11.734375 48.09375 
Q 17.96875 56 27.875 56 
Q 33.9375 56 38.25 53.625 
Q 42.578125 51.265625 45.40625 46.390625 
z
M 14.796875 27.296875 
Q 14.796875 17.390625 18.875 11.75 
Q 22.953125 6.109375 30.078125 6.109375 
Q 37.203125 6.109375 41.296875 11.75 
Q 45.40625 17.390625 45.40625 27.296875 
Q 45.40625 37.203125 41.296875 42.84375 
Q 37.203125 48.484375 30.078125 48.484375 
Q 22.953125 48.484375 18.875 42.84375 
Q 14.796875 37.203125 14.796875 27.296875 
z
" id="DejaVuSans-100"/>
      <path d="M 48.78125 52.59375 
L 48.78125 44.1875 
Q 44.96875 46.296875 41.140625 47.34375 
Q 37.3125 48.390625 33.40625 48.390625 
Q 24.65625 48.390625 19.8125 42.84375 
Q 14.984375 37.3125 14.984375 27.296875 
Q 14.984375 17.28125 19.8125 11.734375 
Q 24.65625 6.203125 33.40625 6.203125 
Q 37.3125 6.203125 41.140625 7.25 
Q 44.96875 8.296875 48.78125 10.40625 
L 48.78125 2.09375 
Q 45.015625 0.34375 40.984375 -0.53125 
Q 36.96875 -1.421875 32.421875 -1.421875 
Q 20.0625 -1.421875 12.78125 6.34375 
Q 5.515625 14.109375 5.515625 27.296875 
Q 5.515625 40.671875 12.859375 48.328125 
Q 20.21875 56 33.015625 56 
Q 37.15625 56 41.109375 55.140625 
Q 45.0625 54.296875 48.78125 52.59375 
z
" id="DejaVuSans-99"/>
      <path d="M 18.3125 70.21875 
L 18.3125 54.6875 
L 36.8125 54.6875 
L 36.8125 47.703125 
L 18.3125 47.703125 
L 18.3125 18.015625 
Q 18.3125 11.328125 20.140625 9.421875 
Q 21.96875 7.515625 27.59375 7.515625 
L 36.8125 7.515625 
L 36.8125 0 
L 27.59375 0 
Q 17.1875 0 13.234375 3.875 
Q 9.28125 7.765625 9.28125 18.015625 
L 9.28125 47.703125 
L 2.6875 47.703125 
L 2.6875 54.6875 
L 9.28125 54.6875 
L 9.28125 70.21875 
z
" id="DejaVuSans-116"/>
     </defs>
     <g transform="translate(79.620313 38.916562)scale(0.1 -0.1)">
      <use xlink:href="#DejaVuSans-80"/>
      <use x="58.552734" xlink:href="#DejaVuSans-114"/>
      <use x="97.416016" xlink:href="#DejaVuSans-101"/>
      <use x="158.939453" xlink:href="#DejaVuSans-100"/>
      <use x="222.416016" xlink:href="#DejaVuSans-105"/>
      <use x="250.199219" xlink:href="#DejaVuSans-99"/>
      <use x="305.179688" xlink:href="#DejaVuSans-116"/>
      <use x="344.388672" xlink:href="#DejaVuSans-101"/>
      <use x="405.912109" xlink:href="#DejaVuSans-100"/>
     </g>
    </g>
    <g id="line2d_29">
     <path d="M 51.620313 50.094687 
L 71.620313 50.094687 
" style="fill:none;stroke:#ff7f0e;stroke-linecap:square;stroke-width:1.5;"/>
    </g>
    <g id="line2d_30"/>
    <g id="text_17">
     <!-- True value -->
     <defs>
      <path d="M 8.5 21.578125 
L 8.5 54.6875 
L 17.484375 54.6875 
L 17.484375 21.921875 
Q 17.484375 14.15625 20.5 10.265625 
Q 23.53125 6.390625 29.59375 6.390625 
Q 36.859375 6.390625 41.078125 11.03125 
Q 45.3125 15.671875 45.3125 23.6875 
L 45.3125 54.6875 
L 54.296875 54.6875 
L 54.296875 0 
L 45.3125 0 
L 45.3125 8.40625 
Q 42.046875 3.421875 37.71875 1 
Q 33.40625 -1.421875 27.6875 -1.421875 
Q 18.265625 -1.421875 13.375 4.4375 
Q 8.5 10.296875 8.5 21.578125 
z
M 31.109375 56 
z
" id="DejaVuSans-117"/>
      <path d="M 2.984375 54.6875 
L 12.5 54.6875 
L 29.59375 8.796875 
L 46.6875 54.6875 
L 56.203125 54.6875 
L 35.6875 0 
L 23.484375 0 
z
" id="DejaVuSans-118"/>
      <path d="M 9.421875 75.984375 
L 18.40625 75.984375 
L 18.40625 0 
L 9.421875 0 
z
" id="DejaVuSans-108"/>
     </defs>
     <g transform="translate(79.620313 53.594687)scale(0.1 -0.1)">
      <use xlink:href="#DejaVuSans-84"/>
      <use x="46.333984" xlink:href="#DejaVuSans-114"/>
      <use x="87.447266" xlink:href="#DejaVuSans-117"/>
      <use x="150.826172" xlink:href="#DejaVuSans-101"/>
      <use x="212.349609" xlink:href="#DejaVuSans-32"/>
      <use x="244.136719" xlink:href="#DejaVuSans-118"/>
      <use x="303.316406" xlink:href="#DejaVuSans-97"/>
      <use x="364.595703" xlink:href="#DejaVuSans-108"/>
      <use x="392.378906" xlink:href="#DejaVuSans-117"/>
      <use x="455.757812" xlink:href="#DejaVuSans-101"/>
     </g>
    </g>
   </g>
  </g>
 </g>
 <defs>
  <clipPath id="pf8236bb8ca">
   <rect height="266.112" width="357.12" x="42.620313" y="22.318125"/>
  </clipPath>
 </defs>
</svg>
