<?xml version="1.0" encoding="utf-8" standalone="no"?>
<!DOCTYPE svg PUBLIC "-//W3C//DTD SVG 1.1//EN"
  "http://www.w3.org/Graphics/SVG/1.1/DTD/svg11.dtd">
<!-- Created with matplotlib (https://matplotlib.org/) -->
<svg height="325.986375pt" version="1.1" viewBox="0 0 404.923125 325.986375" width="404.923125pt" xmlns="http://www.w3.org/2000/svg" xmlns:xlink="http://www.w3.org/1999/xlink">
 <defs>
  <style type="text/css">
*{stroke-linecap:butt;stroke-linejoin:round;}
  </style>
 </defs>
 <g id="figure_1">
  <g id="patch_1">
   <path d="M 0 325.986375 
L 404.923125 325.986375 
L 404.923125 0 
L 0 0 
z
" style="fill:#ffffff;"/>
  </g>
  <g id="axes_1">
   <g id="patch_2">
    <path d="M 40.603125 288.430125 
L 397.723125 288.430125 
L 397.723125 22.318125 
L 40.603125 22.318125 
z
" style="fill:#ffffff;"/>
   </g>
   <g id="matplotlib.axis_1">
    <g id="xtick_1">
     <g id="line2d_1">
      <path clip-path="url(#p99c14c0f5f)" d="M 56.835852 288.430125 
L 56.835852 22.318125 
" style="fill:none;stroke:#b0b0b0;stroke-dasharray:2.96,1.28;stroke-dashoffset:0;stroke-width:0.8;"/>
     </g>
     <g id="line2d_2">
      <defs>
       <path d="M 0 0 
L 0 3.5 
" id="mb47cd33b04" style="stroke:#000000;stroke-width:0.8;"/>
      </defs>
      <g>
       <use style="stroke:#000000;stroke-width:0.8;" x="56.835852" xlink:href="#mb47cd33b04" y="288.430125"/>
      </g>
     </g>
     <g id="text_1">
      <!-- 0 -->
      <defs>
       <path d="M 31.78125 66.40625 
Q 24.171875 66.40625 20.328125 58.90625 
Q 16.5 51.421875 16.5 36.375 
Q 16.5 21.390625 20.328125 13.890625 
Q 24.171875 6.390625 31.78125 6.390625 
Q 39.453125 6.390625 43.28125 13.890625 
Q 47.125 21.390625 47.125 36.375 
Q 47.125 51.421875 43.28125 58.90625 
Q 39.453125 66.40625 31.78125 66.40625 
z
M 31.78125 74.21875 
Q 44.046875 74.21875 50.515625 64.515625 
Q 56.984375 54.828125 56.984375 36.375 
Q 56.984375 17.96875 50.515625 8.265625 
Q 44.046875 -1.421875 31.78125 -1.421875 
Q 19.53125 -1.421875 13.0625 8.265625 
Q 6.59375 17.96875 6.59375 36.375 
Q 6.59375 54.828125 13.0625 64.515625 
Q 19.53125 74.21875 31.78125 74.21875 
z
" id="DejaVuSans-48"/>
      </defs>
      <g transform="translate(53.654602 303.028562)scale(0.1 -0.1)">
       <use xlink:href="#DejaVuSans-48"/>
      </g>
     </g>
    </g>
    <g id="xtick_2">
     <g id="line2d_3">
      <path clip-path="url(#p99c14c0f5f)" d="M 105.766454 288.430125 
L 105.766454 22.318125 
" style="fill:none;stroke:#b0b0b0;stroke-dasharray:2.96,1.28;stroke-dashoffset:0;stroke-width:0.8;"/>
     </g>
     <g id="line2d_4">
      <g>
       <use style="stroke:#000000;stroke-width:0.8;" x="105.766454" xlink:href="#mb47cd33b04" y="288.430125"/>
      </g>
     </g>
     <g id="text_2">
      <!-- 200 -->
      <defs>
       <path d="M 19.1875 8.296875 
L 53.609375 8.296875 
L 53.609375 0 
L 7.328125 0 
L 7.328125 8.296875 
Q 12.9375 14.109375 22.625 23.890625 
Q 32.328125 33.6875 34.8125 36.53125 
Q 39.546875 41.84375 41.421875 45.53125 
Q 43.3125 49.21875 43.3125 52.78125 
Q 43.3125 58.59375 39.234375 62.25 
Q 35.15625 65.921875 28.609375 65.921875 
Q 23.96875 65.921875 18.8125 64.3125 
Q 13.671875 62.703125 7.8125 59.421875 
L 7.8125 69.390625 
Q 13.765625 71.78125 18.9375 73 
Q 24.125 74.21875 28.421875 74.21875 
Q 39.75 74.21875 46.484375 68.546875 
Q 53.21875 62.890625 53.21875 53.421875 
Q 53.21875 48.921875 51.53125 44.890625 
Q 49.859375 40.875 45.40625 35.40625 
Q 44.1875 33.984375 37.640625 27.21875 
Q 31.109375 20.453125 19.1875 8.296875 
z
" id="DejaVuSans-50"/>
      </defs>
      <g transform="translate(96.222704 303.028562)scale(0.1 -0.1)">
       <use xlink:href="#DejaVuSans-50"/>
       <use x="63.623047" xlink:href="#DejaVuSans-48"/>
       <use x="127.246094" xlink:href="#DejaVuSans-48"/>
      </g>
     </g>
    </g>
    <g id="xtick_3">
     <g id="line2d_5">
      <path clip-path="url(#p99c14c0f5f)" d="M 154.697057 288.430125 
L 154.697057 22.318125 
" style="fill:none;stroke:#b0b0b0;stroke-dasharray:2.96,1.28;stroke-dashoffset:0;stroke-width:0.8;"/>
     </g>
     <g id="line2d_6">
      <g>
       <use style="stroke:#000000;stroke-width:0.8;" x="154.697057" xlink:href="#mb47cd33b04" y="288.430125"/>
      </g>
     </g>
     <g id="text_3">
      <!-- 400 -->
      <defs>
       <path d="M 37.796875 64.3125 
L 12.890625 25.390625 
L 37.796875 25.390625 
z
M 35.203125 72.90625 
L 47.609375 72.90625 
L 47.609375 25.390625 
L 58.015625 25.390625 
L 58.015625 17.1875 
L 47.609375 17.1875 
L 47.609375 0 
L 37.796875 0 
L 37.796875 17.1875 
L 4.890625 17.1875 
L 4.890625 26.703125 
z
" id="DejaVuSans-52"/>
      </defs>
      <g transform="translate(145.153307 303.028562)scale(0.1 -0.1)">
       <use xlink:href="#DejaVuSans-52"/>
       <use x="63.623047" xlink:href="#DejaVuSans-48"/>
       <use x="127.246094" xlink:href="#DejaVuSans-48"/>
      </g>
     </g>
    </g>
    <g id="xtick_4">
     <g id="line2d_7">
      <path clip-path="url(#p99c14c0f5f)" d="M 203.627659 288.430125 
L 203.627659 22.318125 
" style="fill:none;stroke:#b0b0b0;stroke-dasharray:2.96,1.28;stroke-dashoffset:0;stroke-width:0.8;"/>
     </g>
     <g id="line2d_8">
      <g>
       <use style="stroke:#000000;stroke-width:0.8;" x="203.627659" xlink:href="#mb47cd33b04" y="288.430125"/>
      </g>
     </g>
     <g id="text_4">
      <!-- 600 -->
      <defs>
       <path d="M 33.015625 40.375 
Q 26.375 40.375 22.484375 35.828125 
Q 18.609375 31.296875 18.609375 23.390625 
Q 18.609375 15.53125 22.484375 10.953125 
Q 26.375 6.390625 33.015625 6.390625 
Q 39.65625 6.390625 43.53125 10.953125 
Q 47.40625 15.53125 47.40625 23.390625 
Q 47.40625 31.296875 43.53125 35.828125 
Q 39.65625 40.375 33.015625 40.375 
z
M 52.59375 71.296875 
L 52.59375 62.3125 
Q 48.875 64.0625 45.09375 64.984375 
Q 41.3125 65.921875 37.59375 65.921875 
Q 27.828125 65.921875 22.671875 59.328125 
Q 17.53125 52.734375 16.796875 39.40625 
Q 19.671875 43.65625 24.015625 45.921875 
Q 28.375 48.1875 33.59375 48.1875 
Q 44.578125 48.1875 50.953125 41.515625 
Q 57.328125 34.859375 57.328125 23.390625 
Q 57.328125 12.15625 50.6875 5.359375 
Q 44.046875 -1.421875 33.015625 -1.421875 
Q 20.359375 -1.421875 13.671875 8.265625 
Q 6.984375 17.96875 6.984375 36.375 
Q 6.984375 53.65625 15.1875 63.9375 
Q 23.390625 74.21875 37.203125 74.21875 
Q 40.921875 74.21875 44.703125 73.484375 
Q 48.484375 72.75 52.59375 71.296875 
z
" id="DejaVuSans-54"/>
      </defs>
      <g transform="translate(194.083909 303.028562)scale(0.1 -0.1)">
       <use xlink:href="#DejaVuSans-54"/>
       <use x="63.623047" xlink:href="#DejaVuSans-48"/>
       <use x="127.246094" xlink:href="#DejaVuSans-48"/>
      </g>
     </g>
    </g>
    <g id="xtick_5">
     <g id="line2d_9">
      <path clip-path="url(#p99c14c0f5f)" d="M 252.558261 288.430125 
L 252.558261 22.318125 
" style="fill:none;stroke:#b0b0b0;stroke-dasharray:2.96,1.28;stroke-dashoffset:0;stroke-width:0.8;"/>
     </g>
     <g id="line2d_10">
      <g>
       <use style="stroke:#000000;stroke-width:0.8;" x="252.558261" xlink:href="#mb47cd33b04" y="288.430125"/>
      </g>
     </g>
     <g id="text_5">
      <!-- 800 -->
      <defs>
       <path d="M 31.78125 34.625 
Q 24.75 34.625 20.71875 30.859375 
Q 16.703125 27.09375 16.703125 20.515625 
Q 16.703125 13.921875 20.71875 10.15625 
Q 24.75 6.390625 31.78125 6.390625 
Q 38.8125 6.390625 42.859375 10.171875 
Q 46.921875 13.96875 46.921875 20.515625 
Q 46.921875 27.09375 42.890625 30.859375 
Q 38.875 34.625 31.78125 34.625 
z
M 21.921875 38.8125 
Q 15.578125 40.375 12.03125 44.71875 
Q 8.5 49.078125 8.5 55.328125 
Q 8.5 64.0625 14.71875 69.140625 
Q 20.953125 74.21875 31.78125 74.21875 
Q 42.671875 74.21875 48.875 69.140625 
Q 55.078125 64.0625 55.078125 55.328125 
Q 55.078125 49.078125 51.53125 44.71875 
Q 48 40.375 41.703125 38.8125 
Q 48.828125 37.15625 52.796875 32.3125 
Q 56.78125 27.484375 56.78125 20.515625 
Q 56.78125 9.90625 50.3125 4.234375 
Q 43.84375 -1.421875 31.78125 -1.421875 
Q 19.734375 -1.421875 13.25 4.234375 
Q 6.78125 9.90625 6.78125 20.515625 
Q 6.78125 27.484375 10.78125 32.3125 
Q 14.796875 37.15625 21.921875 38.8125 
z
M 18.3125 54.390625 
Q 18.3125 48.734375 21.84375 45.5625 
Q 25.390625 42.390625 31.78125 42.390625 
Q 38.140625 42.390625 41.71875 45.5625 
Q 45.3125 48.734375 45.3125 54.390625 
Q 45.3125 60.0625 41.71875 63.234375 
Q 38.140625 66.40625 31.78125 66.40625 
Q 25.390625 66.40625 21.84375 63.234375 
Q 18.3125 60.0625 18.3125 54.390625 
z
" id="DejaVuSans-56"/>
      </defs>
      <g transform="translate(243.014511 303.028562)scale(0.1 -0.1)">
       <use xlink:href="#DejaVuSans-56"/>
       <use x="63.623047" xlink:href="#DejaVuSans-48"/>
       <use x="127.246094" xlink:href="#DejaVuSans-48"/>
      </g>
     </g>
    </g>
    <g id="xtick_6">
     <g id="line2d_11">
      <path clip-path="url(#p99c14c0f5f)" d="M 301.488863 288.430125 
L 301.488863 22.318125 
" style="fill:none;stroke:#b0b0b0;stroke-dasharray:2.96,1.28;stroke-dashoffset:0;stroke-width:0.8;"/>
     </g>
     <g id="line2d_12">
      <g>
       <use style="stroke:#000000;stroke-width:0.8;" x="301.488863" xlink:href="#mb47cd33b04" y="288.430125"/>
      </g>
     </g>
     <g id="text_6">
      <!-- 1000 -->
      <defs>
       <path d="M 12.40625 8.296875 
L 28.515625 8.296875 
L 28.515625 63.921875 
L 10.984375 60.40625 
L 10.984375 69.390625 
L 28.421875 72.90625 
L 38.28125 72.90625 
L 38.28125 8.296875 
L 54.390625 8.296875 
L 54.390625 0 
L 12.40625 0 
z
" id="DejaVuSans-49"/>
      </defs>
      <g transform="translate(288.763863 303.028562)scale(0.1 -0.1)">
       <use xlink:href="#DejaVuSans-49"/>
       <use x="63.623047" xlink:href="#DejaVuSans-48"/>
       <use x="127.246094" xlink:href="#DejaVuSans-48"/>
       <use x="190.869141" xlink:href="#DejaVuSans-48"/>
      </g>
     </g>
    </g>
    <g id="xtick_7">
     <g id="line2d_13">
      <path clip-path="url(#p99c14c0f5f)" d="M 350.419465 288.430125 
L 350.419465 22.318125 
" style="fill:none;stroke:#b0b0b0;stroke-dasharray:2.96,1.28;stroke-dashoffset:0;stroke-width:0.8;"/>
     </g>
     <g id="line2d_14">
      <g>
       <use style="stroke:#000000;stroke-width:0.8;" x="350.419465" xlink:href="#mb47cd33b04" y="288.430125"/>
      </g>
     </g>
     <g id="text_7">
      <!-- 1200 -->
      <g transform="translate(337.694465 303.028562)scale(0.1 -0.1)">
       <use xlink:href="#DejaVuSans-49"/>
       <use x="63.623047" xlink:href="#DejaVuSans-50"/>
       <use x="127.246094" xlink:href="#DejaVuSans-48"/>
       <use x="190.869141" xlink:href="#DejaVuSans-48"/>
      </g>
     </g>
    </g>
    <g id="text_8">
     <!-- Day -->
     <defs>
      <path d="M 19.671875 64.796875 
L 19.671875 8.109375 
L 31.59375 8.109375 
Q 46.6875 8.109375 53.6875 14.9375 
Q 60.6875 21.78125 60.6875 36.53125 
Q 60.6875 51.171875 53.6875 57.984375 
Q 46.6875 64.796875 31.59375 64.796875 
z
M 9.8125 72.90625 
L 30.078125 72.90625 
Q 51.265625 72.90625 61.171875 64.09375 
Q 71.09375 55.28125 71.09375 36.53125 
Q 71.09375 17.671875 61.125 8.828125 
Q 51.171875 0 30.078125 0 
L 9.8125 0 
z
" id="DejaVuSans-68"/>
      <path d="M 34.28125 27.484375 
Q 23.390625 27.484375 19.1875 25 
Q 14.984375 22.515625 14.984375 16.5 
Q 14.984375 11.71875 18.140625 8.90625 
Q 21.296875 6.109375 26.703125 6.109375 
Q 34.1875 6.109375 38.703125 11.40625 
Q 43.21875 16.703125 43.21875 25.484375 
L 43.21875 27.484375 
z
M 52.203125 31.203125 
L 52.203125 0 
L 43.21875 0 
L 43.21875 8.296875 
Q 40.140625 3.328125 35.546875 0.953125 
Q 30.953125 -1.421875 24.3125 -1.421875 
Q 15.921875 -1.421875 10.953125 3.296875 
Q 6 8.015625 6 15.921875 
Q 6 25.140625 12.171875 29.828125 
Q 18.359375 34.515625 30.609375 34.515625 
L 43.21875 34.515625 
L 43.21875 35.40625 
Q 43.21875 41.609375 39.140625 45 
Q 35.0625 48.390625 27.6875 48.390625 
Q 23 48.390625 18.546875 47.265625 
Q 14.109375 46.140625 10.015625 43.890625 
L 10.015625 52.203125 
Q 14.9375 54.109375 19.578125 55.046875 
Q 24.21875 56 28.609375 56 
Q 40.484375 56 46.34375 49.84375 
Q 52.203125 43.703125 52.203125 31.203125 
z
" id="DejaVuSans-97"/>
      <path d="M 32.171875 -5.078125 
Q 28.375 -14.84375 24.75 -17.8125 
Q 21.140625 -20.796875 15.09375 -20.796875 
L 7.90625 -20.796875 
L 7.90625 -13.28125 
L 13.1875 -13.28125 
Q 16.890625 -13.28125 18.9375 -11.515625 
Q 21 -9.765625 23.484375 -3.21875 
L 25.09375 0.875 
L 2.984375 54.6875 
L 12.5 54.6875 
L 29.59375 11.921875 
L 46.6875 54.6875 
L 56.203125 54.6875 
z
" id="DejaVuSans-121"/>
     </defs>
     <g transform="translate(209.289688 316.706687)scale(0.1 -0.1)">
      <use xlink:href="#DejaVuSans-68"/>
      <use x="77.001953" xlink:href="#DejaVuSans-97"/>
      <use x="138.28125" xlink:href="#DejaVuSans-121"/>
     </g>
    </g>
   </g>
   <g id="matplotlib.axis_2">
    <g id="ytick_1">
     <g id="line2d_15">
      <path clip-path="url(#p99c14c0f5f)" d="M 40.603125 277.539342 
L 397.723125 277.539342 
" style="fill:none;stroke:#b0b0b0;stroke-dasharray:2.96,1.28;stroke-dashoffset:0;stroke-width:0.8;"/>
     </g>
     <g id="line2d_16">
      <defs>
       <path d="M 0 0 
L -3.5 0 
" id="m0541c719ff" style="stroke:#000000;stroke-width:0.8;"/>
      </defs>
      <g>
       <use style="stroke:#000000;stroke-width:0.8;" x="40.603125" xlink:href="#m0541c719ff" y="277.539342"/>
      </g>
     </g>
     <g id="text_9">
      <!-- 25 -->
      <defs>
       <path d="M 10.796875 72.90625 
L 49.515625 72.90625 
L 49.515625 64.59375 
L 19.828125 64.59375 
L 19.828125 46.734375 
Q 21.96875 47.46875 24.109375 47.828125 
Q 26.265625 48.1875 28.421875 48.1875 
Q 40.625 48.1875 47.75 41.5 
Q 54.890625 34.8125 54.890625 23.390625 
Q 54.890625 11.625 47.5625 5.09375 
Q 40.234375 -1.421875 26.90625 -1.421875 
Q 22.3125 -1.421875 17.546875 -0.640625 
Q 12.796875 0.140625 7.71875 1.703125 
L 7.71875 11.625 
Q 12.109375 9.234375 16.796875 8.0625 
Q 21.484375 6.890625 26.703125 6.890625 
Q 35.15625 6.890625 40.078125 11.328125 
Q 45.015625 15.765625 45.015625 23.390625 
Q 45.015625 31 40.078125 35.4375 
Q 35.15625 39.890625 26.703125 39.890625 
Q 22.75 39.890625 18.8125 39.015625 
Q 14.890625 38.140625 10.796875 36.28125 
z
" id="DejaVuSans-53"/>
      </defs>
      <g transform="translate(20.878125 281.338561)scale(0.1 -0.1)">
       <use xlink:href="#DejaVuSans-50"/>
       <use x="63.623047" xlink:href="#DejaVuSans-53"/>
      </g>
     </g>
    </g>
    <g id="ytick_2">
     <g id="line2d_17">
      <path clip-path="url(#p99c14c0f5f)" d="M 40.603125 222.756734 
L 397.723125 222.756734 
" style="fill:none;stroke:#b0b0b0;stroke-dasharray:2.96,1.28;stroke-dashoffset:0;stroke-width:0.8;"/>
     </g>
     <g id="line2d_18">
      <g>
       <use style="stroke:#000000;stroke-width:0.8;" x="40.603125" xlink:href="#m0541c719ff" y="222.756734"/>
      </g>
     </g>
     <g id="text_10">
      <!-- 30 -->
      <defs>
       <path d="M 40.578125 39.3125 
Q 47.65625 37.796875 51.625 33 
Q 55.609375 28.21875 55.609375 21.1875 
Q 55.609375 10.40625 48.1875 4.484375 
Q 40.765625 -1.421875 27.09375 -1.421875 
Q 22.515625 -1.421875 17.65625 -0.515625 
Q 12.796875 0.390625 7.625 2.203125 
L 7.625 11.71875 
Q 11.71875 9.328125 16.59375 8.109375 
Q 21.484375 6.890625 26.8125 6.890625 
Q 36.078125 6.890625 40.9375 10.546875 
Q 45.796875 14.203125 45.796875 21.1875 
Q 45.796875 27.640625 41.28125 31.265625 
Q 36.765625 34.90625 28.71875 34.90625 
L 20.21875 34.90625 
L 20.21875 43.015625 
L 29.109375 43.015625 
Q 36.375 43.015625 40.234375 45.921875 
Q 44.09375 48.828125 44.09375 54.296875 
Q 44.09375 59.90625 40.109375 62.90625 
Q 36.140625 65.921875 28.71875 65.921875 
Q 24.65625 65.921875 20.015625 65.03125 
Q 15.375 64.15625 9.8125 62.3125 
L 9.8125 71.09375 
Q 15.4375 72.65625 20.34375 73.4375 
Q 25.25 74.21875 29.59375 74.21875 
Q 40.828125 74.21875 47.359375 69.109375 
Q 53.90625 64.015625 53.90625 55.328125 
Q 53.90625 49.265625 50.4375 45.09375 
Q 46.96875 40.921875 40.578125 39.3125 
z
" id="DejaVuSans-51"/>
      </defs>
      <g transform="translate(20.878125 226.555952)scale(0.1 -0.1)">
       <use xlink:href="#DejaVuSans-51"/>
       <use x="63.623047" xlink:href="#DejaVuSans-48"/>
      </g>
     </g>
    </g>
    <g id="ytick_3">
     <g id="line2d_19">
      <path clip-path="url(#p99c14c0f5f)" d="M 40.603125 167.974125 
L 397.723125 167.974125 
" style="fill:none;stroke:#b0b0b0;stroke-dasharray:2.96,1.28;stroke-dashoffset:0;stroke-width:0.8;"/>
     </g>
     <g id="line2d_20">
      <g>
       <use style="stroke:#000000;stroke-width:0.8;" x="40.603125" xlink:href="#m0541c719ff" y="167.974125"/>
      </g>
     </g>
     <g id="text_11">
      <!-- 35 -->
      <g transform="translate(20.878125 171.773344)scale(0.1 -0.1)">
       <use xlink:href="#DejaVuSans-51"/>
       <use x="63.623047" xlink:href="#DejaVuSans-53"/>
      </g>
     </g>
    </g>
    <g id="ytick_4">
     <g id="line2d_21">
      <path clip-path="url(#p99c14c0f5f)" d="M 40.603125 113.191516 
L 397.723125 113.191516 
" style="fill:none;stroke:#b0b0b0;stroke-dasharray:2.96,1.28;stroke-dashoffset:0;stroke-width:0.8;"/>
     </g>
     <g id="line2d_22">
      <g>
       <use style="stroke:#000000;stroke-width:0.8;" x="40.603125" xlink:href="#m0541c719ff" y="113.191516"/>
      </g>
     </g>
     <g id="text_12">
      <!-- 40 -->
      <g transform="translate(20.878125 116.990735)scale(0.1 -0.1)">
       <use xlink:href="#DejaVuSans-52"/>
       <use x="63.623047" xlink:href="#DejaVuSans-48"/>
      </g>
     </g>
    </g>
    <g id="ytick_5">
     <g id="line2d_23">
      <path clip-path="url(#p99c14c0f5f)" d="M 40.603125 58.408908 
L 397.723125 58.408908 
" style="fill:none;stroke:#b0b0b0;stroke-dasharray:2.96,1.28;stroke-dashoffset:0;stroke-width:0.8;"/>
     </g>
     <g id="line2d_24">
      <g>
       <use style="stroke:#000000;stroke-width:0.8;" x="40.603125" xlink:href="#m0541c719ff" y="58.408908"/>
      </g>
     </g>
     <g id="text_13">
      <!-- 45 -->
      <g transform="translate(20.878125 62.208126)scale(0.1 -0.1)">
       <use xlink:href="#DejaVuSans-52"/>
       <use x="63.623047" xlink:href="#DejaVuSans-53"/>
      </g>
     </g>
    </g>
    <g id="text_14">
     <!-- Price $ -->
     <defs>
      <path d="M 19.671875 64.796875 
L 19.671875 37.40625 
L 32.078125 37.40625 
Q 38.96875 37.40625 42.71875 40.96875 
Q 46.484375 44.53125 46.484375 51.125 
Q 46.484375 57.671875 42.71875 61.234375 
Q 38.96875 64.796875 32.078125 64.796875 
z
M 9.8125 72.90625 
L 32.078125 72.90625 
Q 44.34375 72.90625 50.609375 67.359375 
Q 56.890625 61.8125 56.890625 51.125 
Q 56.890625 40.328125 50.609375 34.8125 
Q 44.34375 29.296875 32.078125 29.296875 
L 19.671875 29.296875 
L 19.671875 0 
L 9.8125 0 
z
" id="DejaVuSans-80"/>
      <path d="M 41.109375 46.296875 
Q 39.59375 47.171875 37.8125 47.578125 
Q 36.03125 48 33.890625 48 
Q 26.265625 48 22.1875 43.046875 
Q 18.109375 38.09375 18.109375 28.8125 
L 18.109375 0 
L 9.078125 0 
L 9.078125 54.6875 
L 18.109375 54.6875 
L 18.109375 46.1875 
Q 20.953125 51.171875 25.484375 53.578125 
Q 30.03125 56 36.53125 56 
Q 37.453125 56 38.578125 55.875 
Q 39.703125 55.765625 41.0625 55.515625 
z
" id="DejaVuSans-114"/>
      <path d="M 9.421875 54.6875 
L 18.40625 54.6875 
L 18.40625 0 
L 9.421875 0 
z
M 9.421875 75.984375 
L 18.40625 75.984375 
L 18.40625 64.59375 
L 9.421875 64.59375 
z
" id="DejaVuSans-105"/>
      <path d="M 48.78125 52.59375 
L 48.78125 44.1875 
Q 44.96875 46.296875 41.140625 47.34375 
Q 37.3125 48.390625 33.40625 48.390625 
Q 24.65625 48.390625 19.8125 42.84375 
Q 14.984375 37.3125 14.984375 27.296875 
Q 14.984375 17.28125 19.8125 11.734375 
Q 24.65625 6.203125 33.40625 6.203125 
Q 37.3125 6.203125 41.140625 7.25 
Q 44.96875 8.296875 48.78125 10.40625 
L 48.78125 2.09375 
Q 45.015625 0.34375 40.984375 -0.53125 
Q 36.96875 -1.421875 32.421875 -1.421875 
Q 20.0625 -1.421875 12.78125 6.34375 
Q 5.515625 14.109375 5.515625 27.296875 
Q 5.515625 40.671875 12.859375 48.328125 
Q 20.21875 56 33.015625 56 
Q 37.15625 56 41.109375 55.140625 
Q 45.0625 54.296875 48.78125 52.59375 
z
" id="DejaVuSans-99"/>
      <path d="M 56.203125 29.59375 
L 56.203125 25.203125 
L 14.890625 25.203125 
Q 15.484375 15.921875 20.484375 11.0625 
Q 25.484375 6.203125 34.421875 6.203125 
Q 39.59375 6.203125 44.453125 7.46875 
Q 49.3125 8.734375 54.109375 11.28125 
L 54.109375 2.78125 
Q 49.265625 0.734375 44.1875 -0.34375 
Q 39.109375 -1.421875 33.890625 -1.421875 
Q 20.796875 -1.421875 13.15625 6.1875 
Q 5.515625 13.8125 5.515625 26.8125 
Q 5.515625 40.234375 12.765625 48.109375 
Q 20.015625 56 32.328125 56 
Q 43.359375 56 49.78125 48.890625 
Q 56.203125 41.796875 56.203125 29.59375 
z
M 47.21875 32.234375 
Q 47.125 39.59375 43.09375 43.984375 
Q 39.0625 48.390625 32.421875 48.390625 
Q 24.90625 48.390625 20.390625 44.140625 
Q 15.875 39.890625 15.1875 32.171875 
z
" id="DejaVuSans-101"/>
      <path id="DejaVuSans-32"/>
      <path d="M 33.796875 -14.703125 
L 28.90625 -14.703125 
L 28.859375 0 
Q 23.734375 0.09375 18.609375 1.1875 
Q 13.484375 2.296875 8.296875 4.5 
L 8.296875 13.28125 
Q 13.28125 10.15625 18.375 8.5625 
Q 23.484375 6.984375 28.90625 6.9375 
L 28.90625 29.203125 
Q 18.109375 30.953125 13.203125 35.15625 
Q 8.296875 39.359375 8.296875 46.6875 
Q 8.296875 54.640625 13.625 59.21875 
Q 18.953125 63.8125 28.90625 64.5 
L 28.90625 75.984375 
L 33.796875 75.984375 
L 33.796875 64.65625 
Q 38.328125 64.453125 42.578125 63.6875 
Q 46.828125 62.9375 50.875 61.625 
L 50.875 53.078125 
Q 46.828125 55.125 42.546875 56.25 
Q 38.28125 57.375 33.796875 57.5625 
L 33.796875 36.71875 
Q 44.875 35.015625 50.09375 30.609375 
Q 55.328125 26.21875 55.328125 18.609375 
Q 55.328125 10.359375 49.78125 5.59375 
Q 44.234375 0.828125 33.796875 0.09375 
z
M 28.90625 37.59375 
L 28.90625 57.625 
Q 23.25 56.984375 20.265625 54.390625 
Q 17.28125 51.8125 17.28125 47.515625 
Q 17.28125 43.3125 20.03125 40.96875 
Q 22.796875 38.625 28.90625 37.59375 
z
M 33.796875 28.21875 
L 33.796875 7.078125 
Q 39.984375 7.90625 43.140625 10.59375 
Q 46.296875 13.28125 46.296875 17.671875 
Q 46.296875 21.96875 43.28125 24.5 
Q 40.28125 27.046875 33.796875 28.21875 
z
" id="DejaVuSans-36"/>
     </defs>
     <g transform="translate(14.798438 172.342094)rotate(-90)scale(0.1 -0.1)">
      <use xlink:href="#DejaVuSans-80"/>
      <use x="58.552734" xlink:href="#DejaVuSans-114"/>
      <use x="99.666016" xlink:href="#DejaVuSans-105"/>
      <use x="127.449219" xlink:href="#DejaVuSans-99"/>
      <use x="182.429688" xlink:href="#DejaVuSans-101"/>
      <use x="243.953125" xlink:href="#DejaVuSans-32"/>
      <use x="275.740234" xlink:href="#DejaVuSans-36"/>
     </g>
    </g>
   </g>
   <g id="line2d_25">
    <path clip-path="url(#p99c14c0f5f)" d="M 56.835852 267.847562 
L 57.080505 272.260343 
L 57.569811 265.57015 
L 57.814464 265.834216 
L 58.059117 260.699057 
L 58.30377 258.346747 
L 58.793076 256.516696 
L 59.037729 256.869453 
L 59.282382 258.042975 
L 59.527035 258.060278 
L 59.771688 258.476815 
L 60.016341 259.585449 
L 60.260994 259.864165 
L 60.505647 260.844506 
L 60.7503 259.703648 
L 60.994953 257.328517 
L 61.239606 257.192743 
L 61.484259 255.816073 
L 61.728912 252.226335 
L 61.973566 251.992843 
L 62.218219 251.409457 
L 62.462872 252.346163 
L 62.707525 254.414095 
L 62.952178 253.977579 
L 63.196831 251.93949 
L 63.441484 252.361482 
L 63.686137 248.937631 
L 63.93079 261.074132 
L 64.664749 266.947698 
L 64.909402 264.28148 
L 65.154055 264.541012 
L 65.398708 266.148437 
L 66.37732 252.197224 
L 66.621973 252.694364 
L 66.866626 254.476475 
L 67.355932 255.953665 
L 67.600585 255.190494 
L 67.845238 248.385592 
L 68.089891 244.978606 
L 68.334544 246.080553 
L 68.579197 244.537201 
L 68.82385 246.211792 
L 69.313156 251.155902 
L 69.557809 252.480976 
L 70.047115 252.967437 
L 70.291768 253.01055 
L 70.536421 253.446376 
L 70.781074 251.151242 
L 71.025727 250.797273 
L 71.27038 254.379948 
L 71.515033 255.379996 
L 72.004339 260.104407 
L 72.248992 260.975285 
L 72.493645 260.016489 
L 72.738298 260.153392 
L 72.982951 258.159669 
L 73.227604 262.009251 
L 73.472257 262.096374 
L 73.71691 261.204932 
L 74.450869 265.856869 
L 74.695522 266.579874 
L 74.940175 268.556544 
L 75.184828 274.048974 
L 75.429481 275.788892 
L 75.918787 268.95024 
L 76.408093 272.344583 
L 76.652746 271.094553 
L 76.897399 271.480015 
L 77.142052 273.64088 
L 77.631358 269.219635 
L 77.876011 267.899263 
L 78.120664 269.430035 
L 78.365317 269.346005 
L 78.60997 271.334169 
L 78.854623 271.703894 
L 79.099276 271.192544 
L 79.588582 265.580223 
L 79.833235 265.769244 
L 80.077888 265.511594 
L 80.322541 265.907923 
L 80.567194 265.95139 
L 80.811847 267.246747 
L 81.0565 267.213812 
L 81.301153 266.040436 
L 82.035112 272.31148 
L 82.524418 274.171101 
L 82.769071 272.863937 
L 83.013724 262.466581 
L 83.258377 259.50959 
L 83.50303 258.530878 
L 83.747683 259.121829 
L 83.992336 259.171545 
L 84.481643 252.895172 
L 84.726296 251.283693 
L 84.970949 250.519206 
L 85.704908 244.681146 
L 85.949561 243.907296 
L 86.194214 248.347015 
L 86.68352 246.590775 
L 86.928173 246.881152 
L 87.417479 246.490946 
L 87.662132 247.301764 
L 87.906785 246.980124 
L 88.151438 243.096499 
L 88.396091 245.145455 
L 88.640744 245.24447 
L 89.13005 244.185761 
L 89.374703 246.552261 
L 89.864009 247.843647 
L 90.108662 247.360299 
L 90.353315 257.47288 
L 90.597968 258.633152 
L 90.842621 256.295763 
L 91.087274 255.197474 
L 91.821233 260.251737 
L 92.065886 256.973085 
L 92.310539 250.677633 
L 92.799845 247.01122 
L 93.289151 239.604605 
L 93.533804 238.993759 
L 94.02311 238.401534 
L 94.267763 239.642702 
L 94.512416 241.872885 
L 94.757069 239.998008 
L 95.001722 239.003519 
L 95.491028 240.98487 
L 95.735681 240.897893 
L 95.980334 237.714369 
L 96.224987 238.160727 
L 96.46964 228.016611 
L 96.958946 220.409899 
L 97.203599 219.139243 
L 97.448252 216.638328 
L 97.937558 214.287063 
L 98.182211 218.797207 
L 98.426864 219.794685 
L 98.671517 221.94951 
L 98.91617 221.218292 
L 99.160823 221.183706 
L 99.650129 219.111136 
L 99.894782 216.980845 
L 100.139435 219.967908 
L 100.384088 216.478187 
L 100.628741 223.20328 
L 100.873394 221.957242 
L 101.118047 206.793136 
L 101.3627 205.642121 
L 101.607353 203.012768 
L 101.852006 206.193262 
L 102.096659 204.664099 
L 102.341312 205.492952 
L 102.585965 205.060783 
L 102.830618 206.553375 
L 103.075271 206.69803 
L 103.319924 207.024163 
L 103.564577 204.143511 
L 103.80923 209.187096 
L 104.053883 207.567069 
L 104.543189 215.652281 
L 104.787842 215.602649 
L 105.032495 213.631788 
L 105.521801 206.631554 
L 105.766454 206.570385 
L 106.011107 206.261034 
L 106.25576 212.764044 
L 106.500413 211.870032 
L 106.745066 204.24727 
L 107.234373 211.852582 
L 107.479026 209.008649 
L 107.968332 225.763733 
L 108.212985 227.738523 
L 108.457638 225.494171 
L 108.946944 228.026162 
L 109.191597 229.833893 
L 109.43625 224.920587 
L 109.680903 226.518106 
L 109.925556 225.069986 
L 110.170209 227.153298 
L 110.414862 223.6087 
L 110.659515 224.311831 
L 110.904168 219.785595 
L 111.148821 217.410652 
L 111.638127 238.635507 
L 111.88278 235.936396 
L 112.372086 237.44092 
L 112.616739 235.482368 
L 112.861392 232.369081 
L 113.106045 237.420962 
L 113.350698 233.926937 
L 113.595351 235.340743 
L 113.840004 237.662458 
L 114.084657 236.263991 
L 114.32931 236.139147 
L 114.818616 232.113186 
L 115.063269 222.828915 
L 115.307922 219.132932 
L 115.552575 220.503271 
L 115.797228 223.770721 
L 116.041881 218.382865 
L 116.531187 215.416762 
L 116.77584 215.153595 
L 117.020493 211.579823 
L 117.265146 213.551122 
L 117.509799 210.847894 
L 117.754452 206.132115 
L 117.999105 205.197288 
L 118.243758 210.467636 
L 118.488411 209.16089 
L 118.977717 201.801838 
L 119.22237 203.150736 
L 119.467023 202.513412 
L 119.711676 207.996772 
L 119.956329 195.163138 
L 120.445635 201.85331 
L 120.690288 200.137508 
L 121.424247 211.638546 
L 121.6689 214.714341 
L 121.913553 214.310928 
L 122.158206 216.339112 
L 122.647512 208.343615 
L 122.892165 213.847266 
L 123.381471 216.131094 
L 123.626124 214.985952 
L 123.870777 215.070839 
L 124.360083 213.027442 
L 124.604736 214.219103 
L 125.094042 210.657138 
L 125.338695 211.093027 
L 125.583348 208.876846 
L 125.828001 208.668284 
L 126.56196 201.189634 
L 126.806613 193.915909 
L 127.051266 190.846968 
L 127.540572 200.92421 
L 128.029878 199.636418 
L 128.519184 202.687115 
L 128.763837 206.480963 
L 129.00849 212.354215 
L 129.253143 214.952264 
L 129.497797 216.216295 
L 129.74245 213.411712 
L 129.987103 213.923356 
L 130.476409 215.621979 
L 130.721062 210.209254 
L 131.210368 214.829844 
L 131.455021 216.141355 
L 131.944327 198.784787 
L 132.18898 196.137105 
L 132.433633 195.616037 
L 132.678286 188.121713 
L 132.922939 188.491147 
L 133.167592 187.444078 
L 133.412245 184.962953 
L 133.656898 183.811729 
L 133.901551 180.516965 
L 134.146204 180.699153 
L 134.390857 182.630747 
L 134.63551 183.348339 
L 134.880163 183.157917 
L 135.124816 184.79322 
L 135.369469 184.968261 
L 135.614122 198.083369 
L 135.858775 193.79562 
L 136.103428 195.926455 
L 136.348081 195.941543 
L 136.837387 178.020459 
L 137.08204 178.233911 
L 137.326693 179.249925 
L 137.815999 184.029025 
L 138.060652 180.752652 
L 138.305305 180.000661 
L 138.549958 182.80073 
L 138.794611 180.30715 
L 139.039264 179.062011 
L 139.283917 183.452118 
L 139.52857 184.770107 
L 140.017876 176.188549 
L 140.262529 174.620077 
L 140.507182 167.667218 
L 140.751835 170.890846 
L 140.996488 177.562377 
L 141.241141 177.799986 
L 141.485794 178.718073 
L 141.730447 180.21173 
L 141.9751 180.344056 
L 142.219753 179.242109 
L 142.464406 172.444814 
L 142.709059 173.855423 
L 142.953712 171.746949 
L 143.198365 171.09134 
L 143.443018 170.898118 
L 143.687671 168.982992 
L 143.932324 168.804984 
L 144.42163 164.728053 
L 144.666283 169.483288 
L 144.910936 170.482208 
L 145.155589 172.622781 
L 145.400242 170.087656 
L 145.644895 169.73749 
L 146.134201 159.505917 
L 146.378854 165.174014 
L 146.623507 163.626566 
L 146.86816 160.305555 
L 147.112813 160.170429 
L 147.357466 164.715682 
L 147.602119 173.013488 
L 147.846772 173.579236 
L 148.091425 173.552027 
L 148.336078 181.63074 
L 148.580731 182.741798 
L 148.825384 181.476388 
L 149.070037 188.745808 
L 149.559343 191.707711 
L 149.803996 198.595493 
L 150.048649 200.041921 
L 150.293302 199.300087 
L 150.537955 193.439645 
L 151.027261 188.556014 
L 151.271914 186.762263 
L 151.516567 187.250939 
L 151.76122 179.569078 
L 152.005874 177.580475 
L 152.49518 176.09944 
L 152.739833 173.837158 
L 152.984486 175.398524 
L 153.229139 174.614811 
L 153.473792 178.899216 
L 153.963098 180.288008 
L 154.207751 178.623573 
L 154.452404 180.705088 
L 154.697057 175.929415 
L 154.94171 175.152932 
L 155.186363 169.780456 
L 155.431016 167.201697 
L 155.675669 167.054701 
L 156.164975 168.84515 
L 156.654281 175.687459 
L 156.898934 175.901035 
L 157.143587 174.429948 
L 157.38824 176.810847 
L 157.632893 175.966697 
L 157.877546 177.077504 
L 158.122199 180.094911 
L 158.366852 175.904546 
L 158.611505 176.629118 
L 158.856158 176.45692 
L 159.83477 168.790815 
L 160.079423 170.200839 
L 160.568729 175.838592 
L 161.058035 168.644613 
L 161.302688 170.809135 
L 161.547341 174.987797 
L 161.791994 173.847732 
L 162.036647 175.569009 
L 162.2813 170.781174 
L 162.525953 171.470637 
L 162.770606 170.369443 
L 163.015259 167.683226 
L 163.259912 166.673774 
L 163.504565 164.731313 
L 163.749218 164.139192 
L 163.993871 158.116081 
L 164.238524 161.000619 
L 164.483177 160.831429 
L 164.72783 160.862818 
L 164.972483 162.4213 
L 165.217136 161.238103 
L 165.461789 165.024009 
L 165.706442 136.463927 
L 165.951095 137.253032 
L 166.195748 136.058048 
L 166.440401 139.255636 
L 166.685054 136.813382 
L 166.929707 139.216975 
L 167.17436 143.13759 
L 167.419013 140.520002 
L 167.663666 141.690786 
L 167.908319 141.420534 
L 168.152972 139.166152 
L 168.397625 142.512826 
L 168.642278 143.190754 
L 168.886931 141.186687 
L 169.131584 141.424379 
L 169.376237 140.643759 
L 170.110196 135.882004 
L 170.354849 133.323682 
L 170.599502 132.463482 
L 170.844155 132.418677 
L 171.088808 134.0279 
L 171.333461 137.382975 
L 171.578114 139.070063 
L 171.822767 142.12726 
L 172.06742 140.886091 
L 172.312073 142.864663 
L 172.556726 141.792893 
L 172.801379 139.735034 
L 173.046032 140.274827 
L 173.290685 140.399295 
L 173.535338 143.0196 
L 173.779991 144.088152 
L 174.024644 144.435559 
L 174.269298 139.189975 
L 174.513951 142.29904 
L 175.003257 136.411055 
L 175.492563 135.280019 
L 175.737216 135.409084 
L 175.981869 134.086748 
L 176.226522 134.738679 
L 176.471175 134.996141 
L 176.715828 130.561313 
L 176.960481 128.919156 
L 177.205134 133.622271 
L 177.449787 133.342532 
L 177.69444 134.800704 
L 177.939093 129.914899 
L 178.183746 131.838886 
L 178.428399 129.506596 
L 178.673052 131.555259 
L 178.917705 131.481114 
L 179.162358 132.757516 
L 179.407011 132.437694 
L 179.651664 134.57484 
L 180.14097 155.57385 
L 180.385623 152.850477 
L 180.630276 151.573448 
L 181.364235 166.054276 
L 181.853541 159.290752 
L 182.098194 160.15998 
L 182.342847 158.912751 
L 182.5875 159.768144 
L 182.832153 159.083821 
L 183.076806 156.413027 
L 183.321459 154.962085 
L 183.566112 154.61029 
L 183.810765 154.982941 
L 184.055418 158.132256 
L 184.300071 155.332145 
L 184.544724 155.912647 
L 184.789377 154.346767 
L 185.03403 153.675485 
L 185.278683 154.667466 
L 185.523336 159.259029 
L 185.767989 158.738086 
L 186.012642 161.872521 
L 186.257295 160.278095 
L 186.501948 163.820499 
L 186.746601 162.047311 
L 186.991254 161.218709 
L 187.235907 159.637114 
L 187.48056 163.818242 
L 187.725213 163.038081 
L 187.969866 161.780236 
L 188.214519 162.983538 
L 188.459172 159.183295 
L 188.703825 160.25402 
L 189.193131 171.270519 
L 189.437784 165.138028 
L 189.92709 173.468143 
L 190.171743 176.039756 
L 190.416396 175.576742 
L 190.661049 180.704628 
L 190.905702 180.345519 
L 191.150355 176.15482 
L 191.395008 174.175453 
L 191.639661 179.025816 
L 191.884314 174.823414 
L 192.128967 181.583469 
L 192.37362 184.005871 
L 192.618273 189.043186 
L 193.107579 192.842425 
L 193.352232 198.57727 
L 194.575497 177.813277 
L 195.064803 171.227553 
L 195.309456 165.335263 
L 195.554109 168.386357 
L 196.043415 165.15366 
L 196.288068 163.637726 
L 196.532721 167.293606 
L 196.777375 146.432103 
L 197.022028 137.589739 
L 197.266681 138.141987 
L 197.511334 136.506391 
L 197.755987 137.562028 
L 198.00064 136.138296 
L 198.245293 132.864973 
L 198.489946 133.439749 
L 198.734599 131.299511 
L 199.223905 123.408378 
L 199.468558 124.930539 
L 199.713211 124.204128 
L 199.957864 124.163837 
L 200.202517 126.557316 
L 200.691823 121.9403 
L 200.936476 124.176083 
L 201.181129 125.135673 
L 201.670435 130.164838 
L 201.915088 129.333227 
L 202.159741 131.997793 
L 202.404394 128.845093 
L 202.649047 133.312397 
L 202.8937 133.346628 
L 203.383006 148.739901 
L 203.627659 155.596964 
L 203.872312 156.269375 
L 204.606271 140.504871 
L 205.34023 137.468573 
L 205.829536 145.265624 
L 206.074189 152.457387 
L 206.318842 148.232876 
L 206.808148 156.612978 
L 207.052801 145.195407 
L 207.297454 139.726717 
L 208.031413 149.598721 
L 208.276066 150.50849 
L 208.520719 150.72842 
L 208.765372 146.731779 
L 209.254678 144.346993 
L 209.499331 139.716519 
L 209.988637 150.13145 
L 210.477943 159.938378 
L 210.722596 159.439754 
L 210.967249 164.480037 
L 211.456555 156.214998 
L 211.701208 156.52341 
L 211.945861 154.086546 
L 212.435167 159.675692 
L 212.67982 158.759193 
L 212.924473 149.368719 
L 213.169126 146.339191 
L 213.413779 148.29093 
L 213.658432 144.538753 
L 213.903085 146.357247 
L 214.147738 146.063297 
L 214.392391 146.175936 
L 214.881697 145.803828 
L 215.12635 149.350203 
L 215.371003 148.93864 
L 215.615656 146.617844 
L 215.860309 147.044746 
L 216.349615 151.747068 
L 216.594268 151.130203 
L 216.838921 164.18337 
L 217.083574 163.031143 
L 217.328227 172.000608 
L 217.57288 174.503258 
L 217.817533 167.951388 
L 218.062186 172.418357 
L 218.306839 170.964741 
L 218.551492 174.118987 
L 218.796145 167.941357 
L 219.040798 170.915505 
L 219.285452 170.579258 
L 219.530105 164.836471 
L 219.774758 167.299708 
L 220.019411 159.763964 
L 220.264064 166.193582 
L 220.508717 162.219677 
L 220.75337 152.150397 
L 220.998023 155.655185 
L 221.242676 153.922832 
L 221.731982 146.318544 
L 221.976635 146.084445 
L 222.221288 142.098295 
L 222.710594 141.699103 
L 222.955247 143.145865 
L 223.1999 140.973403 
L 223.444553 140.004074 
L 223.689206 142.439224 
L 223.933859 145.996423 
L 224.178512 145.920271 
L 224.423165 150.692977 
L 224.667818 147.861353 
L 225.157124 147.821396 
L 225.401777 147.956605 
L 225.64643 147.947034 
L 225.891083 128.597997 
L 226.135736 130.822077 
L 226.380389 128.266221 
L 226.625042 128.092978 
L 226.869695 131.253076 
L 227.114348 130.049649 
L 227.603654 119.615031 
L 227.848307 120.563545 
L 228.09296 120.718357 
L 228.337613 120.612697 
L 228.826919 108.511388 
L 229.071572 113.085397 
L 229.316225 110.46877 
L 229.560878 106.005604 
L 229.805531 109.63766 
L 230.050184 111.155308 
L 230.294837 113.49161 
L 230.53949 111.514376 
L 230.784143 108.026724 
L 231.028796 96.251548 
L 231.273449 105.355972 
L 231.518102 104.315548 
L 231.762755 101.635016 
L 232.252061 112.486003 
L 232.496714 112.197612 
L 232.98602 108.989114 
L 233.230673 109.03555 
L 233.475326 107.830869 
L 233.719979 111.524323 
L 233.964632 105.016088 
L 234.453938 103.753604 
L 234.698591 101.630711 
L 234.943244 101.472137 
L 235.187897 101.052298 
L 235.677203 101.128785 
L 235.921856 100.812641 
L 236.166509 103.649616 
L 236.411162 100.547029 
L 236.655815 95.536171 
L 236.900468 96.130841 
L 237.145121 99.127601 
L 237.389774 93.590492 
L 237.634427 97.414224 
L 237.87908 99.220973 
L 238.368386 95.500937 
L 238.613039 92.55592 
L 238.857692 98.168346 
L 239.102345 91.548808 
L 239.591651 93.201331 
L 240.080957 88.415585 
L 240.570263 90.696633 
L 240.814916 90.668797 
L 241.059569 82.556188 
L 241.304222 79.321025 
L 241.548875 56.257802 
L 241.793529 57.457217 
L 242.038182 53.417192 
L 242.282835 51.826318 
L 242.772141 38.935862 
L 243.016794 46.486234 
L 243.261447 42.971164 
L 243.5061 46.318382 
L 243.750753 41.784372 
L 243.995406 47.411928 
L 244.240059 42.269914 
L 244.484712 45.285106 
L 244.729365 45.818379 
L 245.463324 77.171007 
L 245.707977 90.618392 
L 245.95263 97.762592 
L 246.441936 82.761949 
L 246.686589 82.386999 
L 246.931242 86.78513 
L 247.175895 100.95575 
L 247.665201 77.476074 
L 247.909854 84.815879 
L 248.154507 80.780911 
L 248.39916 90.561257 
L 248.888466 83.449281 
L 249.133119 87.897275 
L 249.377772 80.340049 
L 249.622425 79.708305 
L 249.867078 72.558713 
L 250.111731 81.634674 
L 250.356384 81.626566 
L 250.601037 90.661567 
L 250.84569 87.827643 
L 251.090343 89.437116 
L 251.334996 82.527558 
L 251.579649 96.50621 
L 251.824302 103.574467 
L 252.068955 92.313295 
L 252.313608 88.8572 
L 252.802914 66.557628 
L 253.047567 70.525012 
L 253.29222 65.647107 
L 253.536873 55.201998 
L 253.781526 58.545789 
L 254.026179 57.889929 
L 254.515485 61.138216 
L 254.760138 58.584701 
L 255.249444 43.309167 
L 255.494097 50.537084 
L 255.73875 53.279182 
L 255.983403 37.138851 
L 256.228056 41.952726 
L 256.472709 38.900586 
L 257.206668 44.185792 
L 257.451321 45.524554 
L 257.695974 42.542966 
L 257.940627 43.054714 
L 258.18528 48.635834 
L 258.429933 48.4493 
L 258.674586 59.252055 
L 258.919239 64.466333 
L 259.163892 62.307161 
L 259.408545 63.872456 
L 259.653198 72.839288 
L 259.897851 76.646887 
L 260.142504 68.22223 
L 260.387157 71.009844 
L 260.63181 63.981293 
L 260.876463 62.762694 
L 261.121116 69.517232 
L 261.365769 67.948551 
L 261.855075 69.761988 
L 262.099728 64.53329 
L 262.344381 72.720672 
L 262.589034 65.631475 
L 262.833687 70.509088 
L 263.07834 83.983181 
L 263.322993 63.686758 
L 263.567646 68.869062 
L 263.812299 69.37638 
L 264.056952 72.712522 
L 264.301606 69.271681 
L 264.546259 82.659215 
L 265.035565 68.945089 
L 265.280218 60.461834 
L 265.524871 65.441973 
L 265.769524 76.527727 
L 266.014177 64.160638 
L 266.25883 61.48834 
L 266.503483 52.40356 
L 266.992789 57.522293 
L 267.237442 50.034949 
L 267.482095 52.774247 
L 267.726748 59.976878 
L 267.971401 71.03676 
L 268.216054 67.178589 
L 268.460707 69.137935 
L 268.70536 94.995918 
L 268.950013 101.161344 
L 269.439319 89.730774 
L 269.683972 105.996534 
L 269.928625 97.791723 
L 270.173278 108.623485 
L 270.417931 96.99334 
L 270.662584 104.967396 
L 270.907237 108.901803 
L 271.15189 95.424367 
L 271.396543 110.057206 
L 271.641196 98.366917 
L 271.885849 100.311718 
L 272.130502 96.149273 
L 272.375155 79.569919 
L 272.619808 83.274951 
L 272.864461 91.493262 
L 273.109114 120.019531 
L 273.353767 133.166613 
L 273.59842 136.900359 
L 273.843073 151.63564 
L 274.087726 145.087699 
L 274.332379 134.772785 
L 274.577032 138.083598 
L 274.821685 133.828993 
L 275.310991 115.358044 
L 275.555644 113.53257 
L 276.04495 116.054153 
L 276.289603 112.281872 
L 276.778909 96.361721 
L 277.023562 105.427944 
L 277.268215 105.4111 
L 277.512868 107.022036 
L 277.757521 98.859314 
L 278.002174 99.840262 
L 278.246827 92.947421 
L 278.49148 90.004787 
L 278.980786 97.772748 
L 279.225439 91.752646 
L 279.470092 94.705855 
L 279.714745 87.529973 
L 279.959398 88.576332 
L 280.204051 94.959054 
L 280.448704 94.02404 
L 280.693357 103.950462 
L 281.182663 105.123838 
L 281.427316 113.508956 
L 281.671969 113.334709 
L 281.916622 117.793653 
L 282.161275 118.769711 
L 282.650581 107.998094 
L 282.895234 111.484074 
L 283.139887 99.732261 
L 283.38454 99.577366 
L 283.629193 101.682872 
L 283.873846 92.611467 
L 284.118499 96.254139 
L 284.363152 87.97163 
L 284.607805 89.389845 
L 285.097111 83.616381 
L 285.341764 89.33154 
L 285.586417 80.234054 
L 285.83107 77.664281 
L 286.075723 77.630593 
L 286.320376 78.390525 
L 286.56503 91.820439 
L 286.809683 88.79438 
L 287.054336 88.075827 
L 287.298989 85.79319 
L 287.543642 71.067856 
L 288.032948 80.578159 
L 288.277601 65.94231 
L 288.522254 72.846268 
L 288.766907 72.899265 
L 289.01156 69.98547 
L 289.256213 70.029941 
L 289.500866 66.301169 
L 289.745519 58.139993 
L 289.990172 64.990035 
L 290.234825 60.005591 
L 290.479478 65.145264 
L 290.724131 63.518947 
L 290.968784 77.052265 
L 291.213437 77.179658 
L 291.45809 76.8776 
L 291.702743 76.194197 
L 291.947396 77.988658 
L 292.192049 67.71019 
L 292.436702 66.922966 
L 292.681355 65.503454 
L 292.926008 60.688618 
L 293.170661 63.789241 
L 293.659967 57.504572 
L 293.90462 55.772887 
L 294.149273 57.0039 
L 294.393926 54.686698 
L 294.638579 57.694492 
L 294.883232 55.860659 
L 295.127885 58.002109 
L 295.372538 67.150795 
L 295.861844 70.743354 
L 296.106497 66.647071 
L 296.35115 68.727291 
L 296.840456 63.902633 
L 297.085109 67.134452 
L 297.329762 59.884676 
L 297.574415 87.474134 
L 297.819068 96.865654 
L 298.063721 91.822027 
L 298.308374 80.54372 
L 298.553027 53.7274 
L 298.79768 57.727134 
L 299.042333 59.521805 
L 299.286986 55.773473 
L 299.531639 56.25797 
L 299.776292 46.395453 
L 300.020945 49.174206 
L 300.510251 51.633681 
L 300.754904 50.843991 
L 300.999557 54.025321 
L 301.24421 53.686315 
L 301.488863 51.964745 
L 301.733516 56.438904 
L 301.978169 56.230802 
L 302.222822 56.73532 
L 302.467475 50.038335 
L 302.712128 55.577952 
L 302.956781 69.52371 
L 303.201434 66.665127 
L 303.446087 69.019402 
L 303.935393 79.370302 
L 304.180046 78.647026 
L 304.424699 85.152711 
L 304.669352 77.03772 
L 305.158658 74.444039 
L 305.403311 74.796127 
L 305.647964 78.272702 
L 305.892617 77.956099 
L 306.381923 83.114664 
L 306.871229 77.570324 
L 307.115882 79.534351 
L 307.360535 77.869373 
L 307.605188 77.716776 
L 307.849841 79.990719 
L 308.094494 79.121492 
L 308.5838 79.611798 
L 308.828453 61.526123 
L 309.073107 58.514985 
L 309.31776 69.868567 
L 309.807066 64.438999 
L 310.051719 73.47751 
L 310.296372 72.97245 
L 310.541025 89.500771 
L 310.785678 74.119829 
L 311.030331 83.278671 
L 311.274984 85.160402 
L 311.519637 79.741156 
L 311.76429 81.0418 
L 312.008943 81.47819 
L 312.253596 81.67856 
L 312.498249 80.742668 
L 312.742902 76.081348 
L 312.987555 78.312408 
L 313.232208 82.973352 
L 313.476861 78.231283 
L 313.721514 75.738497 
L 313.966167 78.596912 
L 314.21082 70.42023 
L 314.455473 71.64468 
L 314.700126 78.282859 
L 314.944779 79.510987 
L 315.189432 79.781406 
L 315.434085 83.342618 
L 315.678738 79.663165 
L 315.923391 87.204426 
L 316.168044 86.423638 
L 316.412697 92.074892 
L 316.65735 90.338109 
L 316.902003 90.947032 
L 317.146656 89.676774 
L 317.391309 89.515484 
L 317.635962 89.936535 
L 317.880615 88.641868 
L 318.125268 84.39884 
L 318.369921 82.790663 
L 318.614574 66.216784 
L 318.859227 70.508796 
L 319.10388 56.585105 
L 319.348533 59.082573 
L 320.327145 84.011894 
L 320.816451 48.068874 
L 321.305757 91.247878 
L 321.55041 98.586931 
L 321.795063 96.667123 
L 322.039716 87.116195 
L 322.284369 85.291766 
L 322.529022 80.50113 
L 322.773675 80.946757 
L 323.018328 80.223856 
L 323.262981 75.671206 
L 323.507634 85.255195 
L 323.752287 77.011472 
L 323.99694 80.775268 
L 324.241593 81.625646 
L 324.486246 98.697731 
L 324.730899 103.09114 
L 324.975552 99.686746 
L 325.220205 101.47686 
L 325.464858 105.587729 
L 325.709511 91.967142 
L 325.954164 98.172316 
L 326.688123 79.525239 
L 326.932776 82.023542 
L 327.177429 61.976264 
L 327.422082 65.435787 
L 327.666735 63.098356 
L 327.911388 65.64811 
L 328.156041 59.861981 
L 328.400694 58.722794 
L 328.645347 58.456179 
L 328.89 58.015651 
L 329.134653 61.412313 
L 329.379306 60.0784 
L 329.623959 65.552021 
L 329.868612 59.985487 
L 330.113265 60.544799 
L 330.357918 58.453253 
L 330.602571 57.683207 
L 331.091877 67.092364 
L 331.33653 57.405766 
L 331.581184 59.521805 
L 331.825837 62.670618 
L 332.07049 59.222296 
L 332.315143 57.904725 
L 332.559796 62.680273 
L 332.804449 56.019566 
L 333.049102 59.721714 
L 333.293755 58.999315 
L 333.538408 57.175973 
L 334.027714 66.736891 
L 334.272367 64.229518 
L 334.51702 65.991128 
L 334.761673 70.233612 
L 335.006326 68.867767 
L 335.250979 65.174521 
L 335.495632 69.008618 
L 335.740285 69.786355 
L 335.984938 63.943175 
L 336.718897 57.956802 
L 336.96355 58.325567 
L 337.208203 54.198063 
L 337.452856 77.511057 
L 337.697509 84.807478 
L 337.942162 58.484349 
L 338.186815 62.486591 
L 338.431468 59.929857 
L 338.676121 54.131733 
L 338.920774 71.444061 
L 339.41008 68.341933 
L 339.654733 71.518373 
L 339.899386 72.016621 
L 340.144039 72.842841 
L 340.388692 77.370749 
L 340.633345 78.318803 
L 340.877998 71.308809 
L 341.122651 70.86987 
L 341.367304 67.014916 
L 341.611957 70.602669 
L 341.85661 63.195406 
L 342.101263 59.647025 
L 342.345916 61.1113 
L 342.835222 67.83633 
L 343.079875 68.955329 
L 343.324528 68.845155 
L 343.813834 74.179973 
L 344.058487 72.344426 
L 344.30314 71.859093 
L 344.547793 76.911162 
L 344.792446 78.974078 
L 345.037099 79.284746 
L 345.771058 68.128106 
L 346.015711 67.259798 
L 346.260364 64.786614 
L 346.505017 68.414616 
L 346.74967 64.870749 
L 346.994323 68.620921 
L 347.238976 67.614686 
L 347.483629 61.168393 
L 347.728282 62.559942 
L 347.972935 58.641334 
L 348.217588 58.961448 
L 348.462241 54.137543 
L 348.706894 52.817422 
L 348.951547 56.995248 
L 349.1962 58.133682 
L 349.440853 57.806463 
L 349.685506 68.322206 
L 349.930159 71.678284 
L 350.174812 57.896951 
L 350.419465 57.998807 
L 351.153424 65.620483 
L 351.398077 66.196805 
L 351.64273 61.885065 
L 351.887383 59.744367 
L 352.132036 49.678431 
L 352.376689 52.867577 
L 352.621342 59.686062 
L 352.865995 57.922112 
L 353.110648 50.243218 
L 353.355301 46.414094 
L 353.599954 47.030875 
L 353.844607 46.175106 
L 354.089261 41.583877 
L 354.578567 43.44354 
L 354.82322 40.87151 
L 355.312526 34.556956 
L 355.801832 38.457676 
L 356.046485 38.917054 
L 356.291138 42.969367 
L 356.535791 51.25359 
L 356.780444 53.837198 
L 357.025097 51.031111 
L 357.26975 50.296925 
L 357.514403 48.706218 
L 357.759056 56.044518 
L 358.003709 52.748584 
L 358.248362 57.625529 
L 358.493015 58.235455 
L 358.737668 59.589054 
L 358.982321 59.145642 
L 359.226974 59.173353 
L 359.471627 69.171455 
L 359.71628 68.314097 
L 359.960933 78.215066 
L 360.205586 77.627626 
L 360.450239 77.550304 
L 360.939545 79.218792 
L 361.184198 77.498393 
L 361.428851 79.320147 
L 361.673504 79.969153 
L 361.918157 77.291253 
L 362.16281 76.809347 
L 362.407463 73.321111 
L 362.652116 72.533218 
L 362.896769 71.353907 
L 363.141422 67.675583 
L 363.386075 71.200558 
L 363.630728 68.827308 
L 363.875381 71.782356 
L 364.120034 66.625505 
L 364.364687 66.832478 
L 364.60934 66.658565 
L 364.853993 69.864221 
L 365.098646 68.887202 
L 365.343299 73.175745 
L 365.587952 68.099936 
L 365.832605 75.478151 
L 366.077258 74.764654 
L 366.321911 69.241296 
L 366.566564 73.123124 
L 367.05587 76.897495 
L 367.300523 73.563819 
L 367.545176 72.442354 
L 367.789829 70.767219 
L 368.034482 67.171442 
L 368.523788 80.410391 
L 368.768441 78.562013 
L 369.013094 75.253038 
L 369.257747 78.982939 
L 369.5024 91.911429 
L 369.747053 96.101208 
L 369.991706 98.118149 
L 370.236359 92.172109 
L 370.481012 94.946139 
L 370.725665 105.232799 
L 370.970318 102.883582 
L 371.459624 106.183779 
L 371.704277 102.290249 
L 371.94893 105.716837 
L 372.193583 99.943288 
L 372.438236 101.973645 
L 372.682889 100.627444 
L 372.927542 105.137965 
L 373.172195 103.391986 
L 373.906154 108.229267 
L 374.39546 112.151929 
L 374.640113 107.508957 
L 374.884766 106.07975 
L 375.374072 107.157831 
L 375.618725 105.671028 
L 375.863378 101.047576 
L 376.108031 102.652326 
L 376.597338 100.894227 
L 376.841991 100.602743 
L 377.086644 103.958278 
L 377.331297 97.284071 
L 377.57595 94.419721 
L 377.820603 93.386695 
L 378.309909 95.934443 
L 378.799215 103.831595 
L 379.043868 104.755449 
L 379.288521 101.80408 
L 379.533174 101.59719 
L 379.777827 101.067094 
L 380.02248 101.080385 
L 380.511786 105.279527 
L 380.756439 119.808838 
L 381.001092 97.84401 
L 381.490398 100.528973 
L 381.490398 100.528973 
" style="fill:none;stroke:#1f77b4;stroke-linecap:square;stroke-width:1.5;"/>
   </g>
   <g id="line2d_26">
    <path clip-path="url(#p99c14c0f5f)" d="M 56.835852 268.335864 
L 57.080505 266.801951 
L 57.569811 272.280212 
L 57.814464 261.10456 
L 58.059117 260.447168 
L 58.548423 256.831516 
L 58.793076 257.050647 
L 59.037729 258.146299 
L 59.282382 257.488908 
L 59.527035 258.255864 
L 59.771688 259.680212 
L 60.016341 259.680212 
L 60.260994 261.10456 
L 60.7503 256.721951 
L 60.994953 257.488908 
L 61.239606 255.516734 
L 61.484259 251.353255 
L 61.728912 252.339342 
L 61.973566 251.353255 
L 62.218219 252.777603 
L 62.462872 255.078473 
L 62.707525 253.873255 
L 62.952178 251.572386 
L 63.196831 252.777603 
L 63.441484 248.066299 
L 63.686137 264.829777 
L 63.93079 263.186299 
L 64.175443 266.36369 
L 64.420096 267.678473 
L 64.664749 263.734125 
L 65.154055 266.911516 
L 65.888014 253.215864 
L 66.132667 252.010647 
L 66.37732 252.996734 
L 66.621973 254.968908 
L 67.111279 256.174125 
L 67.355932 255.078473 
L 67.600585 246.641951 
L 67.845238 244.560212 
L 68.089891 246.532386 
L 68.334544 244.012386 
L 69.068503 251.681951 
L 69.313156 252.887168 
L 70.047115 253.215864 
L 70.291768 253.76369 
L 70.536421 250.695864 
L 70.781074 251.02456 
L 71.025727 255.516734 
L 71.27038 255.626299 
L 71.515033 259.132386 
L 71.759686 260.775864 
L 72.004339 261.433255 
L 72.248992 260.008908 
L 72.493645 260.556734 
L 72.738298 257.817603 
L 72.982951 263.514995 
L 73.472257 261.214125 
L 73.961563 265.377603 
L 74.450869 267.021082 
L 74.695522 269.431516 
L 74.940175 276.005429 
L 75.184828 276.334125 
L 75.674134 268.445429 
L 75.918787 271.622821 
L 76.16344 273.047168 
L 76.408093 270.746299 
L 76.652746 271.951516 
L 76.897399 274.581082 
L 77.142052 270.308038 
L 77.631358 267.788038 
L 77.876011 270.198473 
L 78.120664 269.321951 
L 78.365317 272.170647 
L 78.60997 271.841951 
L 78.854623 271.18456 
L 79.099276 267.240212 
L 79.343929 265.158473 
L 79.588582 266.14456 
L 79.833235 265.487168 
L 80.077888 266.14456 
L 80.322541 266.034995 
L 80.567194 267.788038 
L 80.811847 267.240212 
L 81.0565 265.815864 
L 81.301153 269.212386 
L 81.545806 270.198473 
L 81.790459 273.266299 
L 82.035112 273.594995 
L 82.279765 274.690647 
L 82.524418 272.608908 
L 82.769071 259.241951 
L 83.013724 259.570647 
L 83.258377 258.474995 
L 83.50303 259.351516 
L 83.747683 259.132386 
L 84.236989 252.229777 
L 84.726296 250.367168 
L 84.970949 247.847168 
L 85.215602 246.641951 
L 85.460255 244.121951 
L 85.704908 243.793255 
L 85.949561 249.490647 
L 86.194214 246.970647 
L 86.438867 246.532386 
L 86.68352 247.080212 
L 87.172826 246.532386 
L 87.417479 247.628038 
L 87.662132 246.970647 
L 87.906785 242.259342 
L 88.151438 245.98456 
L 88.640744 244.669777 
L 88.885397 244.231516 
L 89.13005 247.299342 
L 89.374703 247.408908 
L 89.619356 248.175864 
L 89.864009 247.408908 
L 90.108662 260.337603 
L 90.353315 258.694125 
L 90.597968 256.06456 
L 90.842621 255.407168 
L 91.087274 257.598473 
L 91.331927 258.146299 
L 91.57658 261.214125 
L 92.065886 249.381082 
L 92.310539 248.614125 
L 92.555192 246.751516 
L 92.799845 241.711516 
L 93.044498 239.081951 
L 93.289151 238.972386 
L 93.778457 238.314995 
L 94.02311 239.958473 
L 94.267763 242.368908 
L 94.512416 239.520212 
L 94.757069 238.972386 
L 95.246375 241.273255 
L 95.491028 240.94456 
L 95.735681 237.109777 
L 95.980334 238.534125 
L 96.224987 225.714995 
L 96.46964 224.071516 
L 96.714293 219.579342 
L 96.958946 218.921951 
L 97.203599 216.073255 
L 97.448252 215.306299 
L 97.692905 213.991516 
L 97.937558 219.579342 
L 98.182211 219.798473 
L 98.426864 222.428038 
L 98.671517 221.113255 
L 98.91617 221.332386 
L 99.405476 219.031516 
L 99.650129 216.730647 
L 99.894782 220.674995 
L 100.139435 215.854125 
L 100.384088 224.728908 
L 100.628741 221.661082 
L 100.873394 204.349777 
L 101.118047 205.993255 
L 101.3627 202.377603 
L 101.607353 206.760212 
L 101.852006 204.349777 
L 102.096659 205.774125 
L 102.341312 205.007168 
L 102.585965 206.869777 
L 102.830618 206.760212 
L 103.075271 207.198473 
L 103.319924 203.801951 
L 103.564577 210.156734 
L 103.80923 207.308038 
L 104.298536 216.401951 
L 104.543189 215.854125 
L 104.787842 213.662821 
L 105.277148 206.321951 
L 105.521801 206.760212 
L 105.766454 206.321951 
L 106.011107 213.991516 
L 106.25576 211.800212 
L 106.500413 203.36369 
L 106.745066 209.280212 
L 106.98972 212.348038 
L 107.234373 208.732386 
L 107.723679 227.139342 
L 107.968332 228.454125 
L 108.212985 225.605429 
L 108.946944 230.535864 
L 109.191597 224.290647 
L 109.43625 227.358473 
L 109.680903 224.948038 
L 109.925556 227.906299 
L 110.170209 223.085429 
L 110.414862 224.838473 
L 110.659515 219.031516 
L 110.904168 217.278473 
L 111.393474 240.94456 
L 111.638127 235.466299 
L 111.88278 237.657603 
L 112.127433 237.876734 
L 112.616739 232.069777 
L 112.861392 238.862821 
L 113.106045 233.165429 
L 113.595351 238.314995 
L 113.840004 236.12369 
L 114.084657 236.452386 
L 114.32931 233.274995 
L 114.573963 232.069777 
L 114.818616 221.00369 
L 115.063269 218.812386 
L 115.307922 220.78456 
L 115.552575 224.290647 
L 115.797228 217.278473 
L 116.286534 215.196734 
L 116.531187 215.087168 
L 116.77584 210.92369 
L 117.020493 213.991516 
L 117.509799 205.445429 
L 117.754452 205.116734 
L 117.999105 211.252386 
L 118.243758 208.841951 
L 118.488411 204.021082 
L 118.733064 201.501082 
L 118.977717 203.36369 
L 119.22237 202.377603 
L 119.467023 208.951516 
L 119.711676 193.174125 
L 119.956329 199.090647 
L 120.200982 202.158473 
L 120.445635 199.967168 
L 120.934941 209.937603 
L 121.424247 215.525429 
L 121.6689 214.539342 
L 121.913553 217.059342 
L 122.158206 210.70456 
L 122.402859 208.294125 
L 122.647512 214.977603 
L 122.892165 215.087168 
L 123.136818 216.730647 
L 123.381471 215.087168 
L 123.626124 215.415864 
L 124.11543 213.114995 
L 124.360083 214.648908 
L 124.849389 210.594995 
L 125.094042 211.361951 
L 125.338695 208.622821 
L 125.583348 208.841951 
L 126.072654 202.377603 
L 126.317307 201.062821 
L 126.56196 192.845429 
L 126.806613 190.54456 
L 127.295919 201.391516 
L 127.540572 200.295864 
L 127.785225 199.748038 
L 128.274531 203.034995 
L 128.519184 207.198473 
L 128.763837 213.44369 
L 129.253143 216.840212 
L 129.497797 213.334125 
L 129.987103 215.196734 
L 130.231756 216.073255 
L 130.476409 209.608908 
L 130.721062 213.44369 
L 131.210368 216.621082 
L 131.699674 197.666299 
L 131.944327 195.913255 
L 132.18898 195.474995 
L 132.433633 187.038473 
L 132.678286 188.681951 
L 132.922939 187.148038 
L 133.167592 184.628038 
L 133.412245 183.641951 
L 133.656898 180.026299 
L 133.901551 180.68369 
L 134.146204 182.765429 
L 134.390857 183.422821 
L 134.63551 183.20369 
L 134.880163 185.066299 
L 135.124816 185.066299 
L 135.369469 199.857603 
L 135.614122 193.393255 
L 135.858775 196.789777 
L 136.103428 196.132386 
L 136.592734 177.177603 
L 137.08204 179.368908 
L 137.571346 184.518473 
L 137.815999 180.574125 
L 138.060652 180.135864 
L 138.305305 183.20369 
L 138.549958 180.135864 
L 138.794611 179.149777 
L 139.039264 184.080212 
L 139.283917 185.066299 
L 139.773223 175.972386 
L 140.017876 174.548038 
L 140.262529 166.988038 
L 140.507182 171.370647 
L 140.751835 178.273255 
L 140.996488 178.054125 
L 141.485794 180.574125 
L 141.730447 180.574125 
L 141.9751 179.368908 
L 142.219753 171.918473 
L 142.464406 174.219342 
L 142.709059 171.589777 
L 143.198365 171.041951 
L 143.443018 168.960212 
L 143.687671 168.960212 
L 144.176977 164.687168 
L 144.42163 170.055864 
L 144.666283 170.713255 
L 144.910936 173.12369 
L 145.155589 170.055864 
L 145.400242 169.946299 
L 145.889548 159.208908 
L 146.134201 165.782821 
L 146.378854 163.591516 
L 146.623507 160.30456 
L 146.86816 160.30456 
L 147.112813 165.234995 
L 147.357466 174.000212 
L 147.846772 174.000212 
L 148.091425 182.765429 
L 148.336078 183.20369 
L 148.580731 181.888908 
L 148.825384 189.996734 
L 149.070037 190.654125 
L 149.31469 192.516734 
L 149.559343 199.967168 
L 149.803996 200.734125 
L 150.048649 199.857603 
L 150.293302 193.174125 
L 150.782608 188.572386 
L 151.027261 186.819342 
L 151.271914 187.586299 
L 151.516567 178.821082 
L 152.005874 176.848908 
L 152.250527 176.081951 
L 152.49518 173.671516 
L 152.739833 175.64369 
L 152.984486 174.548038 
L 153.229139 179.478473 
L 153.473792 179.807168 
L 153.718445 180.574125 
L 153.963098 178.601951 
L 154.207751 181.121951 
L 154.452404 175.534125 
L 154.697057 175.314995 
L 154.94171 169.288908 
L 155.186363 167.097603 
L 155.431016 167.097603 
L 155.920322 169.069777 
L 156.409628 176.191516 
L 156.654281 176.191516 
L 156.898934 174.548038 
L 157.143587 177.287168 
L 157.38824 176.081951 
L 157.632893 177.506299 
L 157.877546 180.68369 
L 158.122199 175.753255 
L 158.366852 177.068038 
L 158.611505 176.629777 
L 159.590117 168.850647 
L 159.83477 170.494125 
L 160.324076 176.410647 
L 160.813382 168.521951 
L 161.058035 171.151516 
L 161.302688 175.534125 
L 161.547341 174.000212 
L 161.791994 176.081951 
L 162.036647 170.494125 
L 162.2813 171.808908 
L 162.525953 170.38456 
L 162.770606 167.645429 
L 163.015259 166.768908 
L 163.259912 164.687168 
L 163.504565 164.248908 
L 163.749218 157.674995 
L 163.993871 161.400212 
L 164.238524 160.852386 
L 164.483177 161.071516 
L 164.72783 162.714995 
L 164.972483 161.290647 
L 165.217136 165.56369 
L 165.461789 134.008908 
L 165.706442 137.405429 
L 165.951095 135.542821 
L 166.195748 139.596734 
L 166.440401 136.748038 
L 166.929707 143.431516 
L 167.17436 140.473255 
L 167.419013 141.897603 
L 167.663666 141.459342 
L 167.908319 139.158473 
L 168.152972 142.88369 
L 168.397625 143.431516 
L 168.642278 141.349777 
L 168.886931 141.678473 
L 169.131584 140.801951 
L 169.865543 135.981082 
L 170.110196 133.351516 
L 170.354849 132.58456 
L 170.599502 132.58456 
L 170.844155 134.337603 
L 171.088808 137.84369 
L 171.333461 139.487168 
L 171.578114 142.66456 
L 171.822767 141.130647 
L 172.06742 143.321951 
L 172.312073 142.007168 
L 172.556726 139.925429 
L 172.801379 140.582821 
L 173.046032 140.692386 
L 173.290685 143.541082 
L 173.535338 144.527168 
L 173.779991 144.855864 
L 174.024644 139.158473 
L 174.269298 142.774125 
L 174.758604 136.528908 
L 175.24791 135.433255 
L 175.492563 135.652386 
L 175.737216 134.228038 
L 175.981869 134.994995 
L 176.226522 135.214125 
L 176.471175 130.502821 
L 176.715828 128.968908 
L 176.960481 134.008908 
L 177.205134 133.570647 
L 177.449787 135.214125 
L 177.69444 129.845429 
L 177.939093 132.146299 
L 178.183746 129.516734 
L 178.428399 131.927168 
L 178.673052 131.708038 
L 178.917705 133.132386 
L 179.162358 132.694125 
L 179.407011 134.994995 
L 179.896317 156.798473 
L 180.14097 153.401951 
L 180.385623 152.087168 
L 181.119582 167.207168 
L 181.608888 159.647168 
L 181.853541 160.633255 
L 182.098194 159.208908 
L 182.342847 160.30456 
L 182.5875 159.428038 
L 182.832153 156.579342 
L 183.076806 155.154995 
L 183.321459 154.826299 
L 183.566112 155.26456 
L 183.810765 158.661082 
L 184.055418 155.374125 
L 184.300071 156.250647 
L 184.544724 154.388038 
L 184.789377 153.840212 
L 185.03403 154.935864 
L 185.278683 159.866299 
L 185.523336 158.989777 
L 185.767989 162.495864 
L 186.012642 160.414125 
L 186.257295 164.468038 
L 186.501948 162.167168 
L 186.746601 161.509777 
L 186.991254 159.756734 
L 187.235907 164.468038 
L 187.725213 162.057603 
L 187.969866 163.372386 
L 188.214519 159.099342 
L 188.459172 160.633255 
L 188.948478 172.028038 
L 189.193131 165.015864 
L 189.682437 174.000212 
L 189.92709 176.739342 
L 190.171743 175.972386 
L 190.416396 181.669777 
L 190.661049 180.68369 
L 190.905702 176.191516 
L 191.150355 174.328908 
L 191.395008 179.807168 
L 191.639661 174.657603 
L 191.884314 182.765429 
L 192.128967 184.518473 
L 192.37362 190.106299 
L 192.862926 193.502821 
L 193.107579 199.748038 
L 193.596885 190.54456 
L 193.841538 187.367168 
L 194.086191 180.135864 
L 194.575497 174.876734 
L 194.82015 170.932386 
L 195.064803 164.796734 
L 195.309456 168.741082 
L 195.554109 166.221082 
L 195.798762 165.125429 
L 196.043415 163.481951 
L 196.288068 167.645429 
L 196.532721 144.417603 
L 196.777375 136.857603 
L 197.022028 137.734125 
L 197.266681 136.200212 
L 197.511334 137.62456 
L 197.755987 135.981082 
L 198.00064 132.58456 
L 198.245293 133.351516 
L 198.489946 131.050647 
L 198.979252 123.052386 
L 199.223905 124.914995 
L 199.468558 124.148038 
L 199.713211 124.257603 
L 199.957864 126.777603 
L 200.44717 121.956734 
L 200.691823 124.367168 
L 200.936476 125.353255 
L 201.425782 130.612386 
L 201.670435 129.626299 
L 201.915088 132.474995 
L 202.159741 128.968908 
L 202.404394 133.899342 
L 202.649047 133.680212 
L 203.138353 149.676734 
L 203.383006 156.798473 
L 203.627659 157.017603 
L 204.361618 140.582821 
L 205.095577 137.734125 
L 205.829536 153.401951 
L 206.074189 148.361951 
L 206.318842 154.388038 
L 206.563495 157.127168 
L 206.808148 144.746299 
L 207.052801 139.596734 
L 207.78676 150.22456 
L 208.031413 150.991516 
L 208.276066 151.101082 
L 208.520719 146.718473 
L 208.765372 145.841951 
L 209.010025 144.417603 
L 209.254678 139.596734 
L 209.743984 150.662821 
L 210.23329 160.742821 
L 210.477943 159.866299 
L 210.722596 165.34456 
L 211.211902 156.360212 
L 211.456555 156.798473 
L 211.701208 154.168908 
L 212.190514 160.194995 
L 212.435167 159.099342 
L 212.67982 148.909777 
L 212.924473 146.280212 
L 213.169126 148.471516 
L 213.413779 144.417603 
L 213.658432 146.718473 
L 213.903085 146.170647 
L 214.147738 146.389777 
L 214.637044 145.951516 
L 214.881697 149.786299 
L 215.12635 149.128908 
L 215.371003 146.718473 
L 215.615656 147.266299 
L 216.104962 152.196734 
L 216.349615 151.429777 
L 216.594268 165.56369 
L 216.838921 163.372386 
L 217.083574 173.452386 
L 217.328227 175.205429 
L 217.57288 167.974125 
L 217.817533 173.342821 
L 218.062186 171.151516 
L 218.306839 174.986299 
L 218.551492 167.754995 
L 218.796145 171.699342 
L 219.040798 170.822821 
L 219.285452 164.687168 
L 219.530105 167.86456 
L 219.774758 159.208908 
L 220.019411 167.097603 
L 220.264064 161.948038 
L 220.508717 151.539342 
L 220.75337 156.031516 
L 220.998023 153.730647 
L 221.487329 146.061082 
L 221.731982 146.061082 
L 221.976635 141.788038 
L 222.221288 141.897603 
L 222.465941 141.678473 
L 222.710594 143.321951 
L 222.955247 140.911516 
L 223.1999 140.034995 
L 223.689206 146.389777 
L 223.933859 146.170647 
L 224.178512 151.320212 
L 224.423165 147.92369 
L 224.667818 148.142821 
L 224.912471 148.033255 
L 225.157124 148.252386 
L 225.401777 148.252386 
L 225.64643 127.434995 
L 225.891083 131.050647 
L 226.135736 127.982821 
L 226.380389 128.311516 
L 226.625042 131.598473 
L 226.869695 130.174125 
L 227.359001 119.327168 
L 227.603654 120.532386 
L 227.848307 120.751516 
L 228.09296 120.751516 
L 228.337613 112.64369 
L 228.582266 108.261082 
L 228.826919 113.191516 
L 229.071572 110.452386 
L 229.316225 105.960212 
L 229.560878 109.794995 
L 229.805531 111.328908 
L 230.050184 113.848908 
L 230.294837 111.657603 
L 230.53949 108.041951 
L 230.784143 95.770647 
L 231.028796 105.631516 
L 231.273449 104.426299 
L 231.518102 101.906299 
L 232.007408 112.972386 
L 232.252061 112.64369 
L 232.741367 109.137603 
L 232.98602 109.247168 
L 233.230673 108.041951 
L 233.475326 111.986299 
L 233.719979 105.08369 
L 234.209285 103.878473 
L 234.453938 101.796734 
L 234.698591 101.687168 
L 234.943244 101.248908 
L 235.43255 101.358473 
L 235.677203 101.029777 
L 235.921856 103.988038 
L 236.166509 100.701082 
L 236.411162 95.551516 
L 236.655815 96.208908 
L 236.900468 99.386299 
L 237.145121 93.688908 
L 237.389774 97.742821 
L 237.634427 99.495864 
L 238.123733 95.661082 
L 238.368386 92.593255 
L 238.613039 98.509777 
L 238.857692 91.607168 
L 239.346998 93.360212 
L 239.836304 88.539342 
L 240.32561 90.949777 
L 240.570263 90.949777 
L 240.814916 82.513255 
L 241.059569 79.226299 
L 241.304222 55.450647 
L 241.548875 56.98456 
L 241.793529 53.040212 
L 242.038182 51.834995 
L 242.527488 38.577603 
L 242.772141 46.247168 
L 243.016794 42.960212 
L 243.261447 46.356734 
L 243.5061 41.645429 
L 243.750753 47.342821 
L 243.995406 42.193255 
L 244.240059 45.261082 
L 244.484712 45.808908 
L 245.218671 78.130647 
L 245.463324 91.716734 
L 245.707977 98.838473 
L 246.197283 82.951516 
L 246.441936 82.513255 
L 246.686589 87.334125 
L 246.931242 102.125429 
L 247.420548 77.692386 
L 247.665201 85.033255 
L 247.909854 81.088908 
L 248.154507 91.388038 
L 248.643813 83.828038 
L 248.888466 88.210647 
L 249.133119 80.431516 
L 249.377772 79.88369 
L 249.622425 72.433255 
L 249.867078 81.965429 
L 250.111731 81.965429 
L 250.356384 91.388038 
L 250.601037 88.210647 
L 250.84569 89.854125 
L 251.090343 82.513255 
L 251.334996 97.085429 
L 251.579649 104.316734 
L 251.824302 92.702821 
L 252.068955 88.977603 
L 252.313608 74.186299 
L 252.558261 66.188038 
L 252.802914 70.461082 
L 253.047567 65.749777 
L 253.29222 55.121951 
L 253.536873 58.408908 
L 253.781526 57.861082 
L 254.026179 60.161951 
L 254.270832 61.257603 
L 254.515485 58.628038 
L 255.004791 42.850647 
L 255.249444 50.301082 
L 255.494097 53.478473 
L 255.73875 37.153255 
L 255.983403 41.645429 
L 256.228056 38.687168 
L 256.962015 44.38456 
L 257.206668 45.699342 
L 257.451321 42.631516 
L 257.695974 43.069777 
L 257.940627 48.767168 
L 258.18528 48.767168 
L 258.429933 59.72369 
L 258.674586 65.092386 
L 258.919239 62.901082 
L 259.163892 64.215864 
L 259.408545 73.309777 
L 259.653198 77.36369 
L 259.897851 68.708038 
L 260.142504 71.337603 
L 260.387157 64.106299 
L 260.63181 63.010647 
L 260.876463 69.913255 
L 261.121116 68.488908 
L 261.365769 69.58456 
L 261.610422 70.132386 
L 261.855075 64.76369 
L 262.099728 73.090647 
L 262.344381 65.859342 
L 262.589034 70.899342 
L 262.833687 84.594995 
L 263.07834 63.887168 
L 263.322993 69.036734 
L 263.567646 69.365429 
L 263.812299 73.200212 
L 264.056952 69.58456 
L 264.301606 83.280212 
L 264.790912 69.146299 
L 265.035565 60.161951 
L 265.280218 65.421082 
L 265.524871 77.034995 
L 265.769524 64.54456 
L 266.014177 61.586299 
L 266.25883 52.054125 
L 266.748136 57.641951 
L 266.992789 50.191516 
L 267.237442 52.821082 
L 267.482095 60.161951 
L 267.726748 71.666299 
L 267.971401 67.721951 
L 268.216054 69.474995 
L 268.460707 95.770647 
L 268.70536 102.34456 
L 269.194666 89.96369 
L 269.439319 106.727168 
L 269.683972 98.290647 
L 269.928625 109.794995 
L 270.173278 97.194995 
L 270.417931 105.850647 
L 270.662584 109.575864 
L 270.907237 95.661082 
L 271.15189 111.000212 
L 271.396543 98.400212 
L 271.641196 100.920212 
L 271.885849 96.208908 
L 272.130502 79.226299 
L 272.375155 83.280212 
L 272.619808 91.826299 
L 272.864461 121.628038 
L 273.109114 134.885429 
L 273.353767 138.391516 
L 273.59842 153.292386 
L 274.087726 134.885429 
L 274.332379 138.610647 
L 274.577032 134.008908 
L 275.066338 115.273255 
L 275.310991 113.629777 
L 275.800297 116.478473 
L 276.04495 112.42456 
L 276.534256 95.880212 
L 276.778909 105.631516 
L 277.023562 105.521951 
L 277.268215 107.38456 
L 277.512868 98.619342 
L 277.757521 99.82456 
L 278.002174 92.593255 
L 278.246827 89.854125 
L 278.736133 98.071516 
L 278.980786 91.826299 
L 279.225439 94.894125 
L 279.470092 87.334125 
L 279.714745 88.648908 
L 279.959398 95.222821 
L 280.204051 94.346299 
L 280.448704 104.645429 
L 280.93801 105.631516 
L 281.182663 114.177603 
L 281.427316 113.848908 
L 281.671969 118.560212 
L 281.916622 119.327168 
L 282.161275 112.095864 
L 282.405928 108.151516 
L 282.650581 111.876734 
L 282.895234 99.605429 
L 283.139887 99.82456 
L 283.38454 101.906299 
L 283.629193 92.593255 
L 283.873846 96.537603 
L 284.118499 87.772386 
L 284.363152 89.525429 
L 284.852458 83.608908 
L 285.097111 89.525429 
L 285.341764 80.102821 
L 285.586417 77.582821 
L 285.83107 77.473255 
L 286.075723 78.459342 
L 286.320376 92.374125 
L 286.56503 89.196734 
L 286.809683 88.429777 
L 287.054336 85.800212 
L 287.298989 70.680212 
L 287.788295 80.760212 
L 288.032948 65.968908 
L 288.277601 72.981082 
L 288.522254 72.981082 
L 288.766907 70.241951 
L 289.01156 70.132386 
L 289.256213 66.297603 
L 289.500866 57.970647 
L 289.745519 64.982821 
L 289.990172 60.052386 
L 290.234825 65.421082 
L 290.479478 63.668038 
L 290.724131 77.582821 
L 290.968784 77.692386 
L 291.213437 77.36369 
L 291.45809 76.377603 
L 291.702743 78.240212 
L 291.947396 67.721951 
L 292.192049 66.954995 
L 292.436702 65.530647 
L 292.681355 60.819342 
L 292.926008 63.996734 
L 293.415314 57.641951 
L 293.659967 55.779342 
L 293.90462 57.094125 
L 294.149273 54.793255 
L 294.393926 57.861082 
L 294.638579 55.998473 
L 294.883232 58.189777 
L 295.127885 67.502821 
L 295.617191 71.228038 
L 295.861844 66.845429 
L 296.106497 68.927168 
L 296.595803 64.106299 
L 296.840456 67.393255 
L 297.085109 60.052386 
L 297.329762 88.320212 
L 297.574415 98.071516 
L 297.819068 92.921951 
L 298.063721 80.650647 
L 298.308374 52.821082 
L 298.553027 57.20369 
L 298.79768 59.50456 
L 299.042333 56.217603 
L 299.286986 56.546299 
L 299.531639 46.356734 
L 299.776292 49.095864 
L 300.265598 51.834995 
L 300.510251 50.958473 
L 300.754904 54.135864 
L 300.999557 53.807168 
L 301.24421 52.054125 
L 301.488863 56.546299 
L 301.733516 56.436734 
L 301.978169 56.98456 
L 302.222822 50.081951 
L 302.467475 55.669777 
L 302.712128 70.022821 
L 302.956781 67.393255 
L 303.201434 69.58456 
L 303.69074 79.993255 
L 303.935393 79.226299 
L 304.180046 85.800212 
L 304.424699 77.36369 
L 304.914005 74.62456 
L 305.158658 75.172386 
L 305.403311 78.788038 
L 305.647964 78.459342 
L 306.13727 83.608908 
L 306.626576 77.801951 
L 306.871229 79.774125 
L 307.115882 78.130647 
L 307.360535 78.021082 
L 307.605188 80.321951 
L 307.849841 79.445429 
L 308.339147 79.88369 
L 308.5838 61.257603 
L 308.828453 58.189777 
L 309.073107 69.913255 
L 309.562413 64.76369 
L 309.807066 73.748038 
L 310.051719 73.309777 
L 310.296372 90.292386 
L 310.541025 74.295864 
L 310.785678 83.718473 
L 311.030331 85.361951 
L 311.274984 80.102821 
L 311.519637 81.308038 
L 312.008943 82.074995 
L 312.253596 81.088908 
L 312.498249 76.268038 
L 312.742902 78.568908 
L 312.987555 83.389777 
L 313.476861 75.939342 
L 313.721514 78.788038 
L 313.966167 70.461082 
L 314.21082 71.775864 
L 314.455473 78.568908 
L 314.700126 79.993255 
L 314.944779 80.212386 
L 315.189432 83.718473 
L 315.434085 79.88369 
L 315.678738 87.662821 
L 315.923391 86.786299 
L 316.168044 92.702821 
L 316.412697 90.730647 
L 316.65735 91.388038 
L 316.902003 89.96369 
L 317.146656 89.854125 
L 317.391309 90.292386 
L 317.635962 88.977603 
L 317.880615 84.594995 
L 318.125268 82.951516 
L 318.369921 65.859342 
L 318.614574 70.461082 
L 318.859227 56.217603 
L 319.10388 59.066299 
L 320.082492 84.594995 
L 320.571798 47.342821 
L 321.061104 92.154995 
L 321.305757 100.153255 
L 321.55041 97.633255 
L 321.795063 87.22456 
L 322.039716 85.252386 
L 322.284369 80.431516 
L 322.529022 81.198473 
L 322.773675 80.541082 
L 323.018328 75.939342 
L 323.262981 85.800212 
L 323.507634 77.254125 
L 323.752287 81.198473 
L 323.99694 81.855864 
L 324.241593 99.605429 
L 324.486246 103.988038 
L 324.730899 100.372386 
L 324.975552 101.906299 
L 325.220205 106.069777 
L 325.464858 91.935864 
L 325.709511 98.619342 
L 326.44347 79.445429 
L 326.688123 82.18456 
L 326.932776 61.586299 
L 327.177429 65.311516 
L 327.422082 62.901082 
L 327.666735 65.859342 
L 327.911388 59.833255 
L 328.156041 58.628038 
L 328.645347 57.970647 
L 328.89 61.476734 
L 329.134653 60.161951 
L 329.379306 65.749777 
L 329.623959 60.052386 
L 329.868612 60.600212 
L 330.113265 58.408908 
L 330.357918 57.751516 
L 330.847224 67.502821 
L 331.091877 57.641951 
L 331.33653 59.614125 
L 331.581184 62.791516 
L 331.825837 59.50456 
L 332.07049 58.080212 
L 332.315143 62.901082 
L 332.559796 56.217603 
L 332.804449 59.942821 
L 333.049102 59.175864 
L 333.293755 57.422821 
L 333.783061 67.174125 
L 334.027714 64.654125 
L 334.272367 66.297603 
L 334.51702 70.570647 
L 334.761673 69.255864 
L 335.006326 65.421082 
L 335.250979 69.255864 
L 335.495632 70.132386 
L 335.740285 64.215864 
L 336.229591 58.518473 
L 336.474244 58.080212 
L 336.718897 58.518473 
L 336.96355 54.354995 
L 337.208203 78.130647 
L 337.452856 85.800212 
L 337.697509 58.737603 
L 337.942162 62.24369 
L 338.186815 59.614125 
L 338.431468 54.245429 
L 338.676121 71.885429 
L 339.165427 68.927168 
L 339.41008 71.775864 
L 339.654733 72.32369 
L 339.899386 73.200212 
L 340.144039 77.801951 
L 340.388692 78.788038 
L 340.633345 71.556734 
L 340.877998 71.008908 
L 341.122651 67.06456 
L 341.367304 70.899342 
L 341.611957 63.339342 
L 341.85661 59.72369 
L 342.101263 61.148038 
L 342.590569 68.269777 
L 342.835222 69.365429 
L 343.079875 69.146299 
L 343.569181 74.514995 
L 343.813834 72.652386 
L 344.058487 72.10456 
L 344.30314 77.254125 
L 344.547793 79.445429 
L 344.792446 79.774125 
L 345.526405 68.160212 
L 345.771058 67.393255 
L 346.015711 64.982821 
L 346.260364 68.708038 
L 346.505017 65.092386 
L 346.74967 68.927168 
L 346.994323 67.831516 
L 347.238976 61.257603 
L 347.483629 62.572386 
L 347.728282 58.628038 
L 347.972935 59.066299 
L 348.217588 54.135864 
L 348.462241 52.821082 
L 348.706894 57.094125 
L 348.951547 58.408908 
L 349.1962 58.080212 
L 349.440853 68.708038 
L 349.685506 72.214125 
L 349.930159 58.080212 
L 350.174812 57.861082 
L 351.153424 66.626299 
L 351.398077 62.134125 
L 351.64273 59.833255 
L 351.887383 49.534125 
L 352.132036 52.821082 
L 352.376689 59.942821 
L 352.621342 58.408908 
L 352.865995 50.410647 
L 353.110648 46.247168 
L 353.355301 46.90456 
L 353.599954 46.247168 
L 353.844607 41.645429 
L 354.333914 43.508038 
L 354.578567 40.988038 
L 355.067873 34.414125 
L 355.557179 38.577603 
L 355.801832 39.125429 
L 356.046485 43.179342 
L 356.291138 51.615864 
L 356.535791 54.354995 
L 356.780444 51.396734 
L 357.025097 50.410647 
L 357.26975 48.767168 
L 357.514403 56.327168 
L 357.759056 53.149777 
L 358.003709 58.080212 
L 358.248362 58.628038 
L 358.493015 60.052386 
L 358.737668 59.50456 
L 358.982321 59.50456 
L 359.226974 69.694125 
L 359.471627 68.927168 
L 359.71628 79.007168 
L 359.960933 78.240212 
L 360.205586 78.130647 
L 360.694892 79.66456 
L 360.939545 77.911516 
L 361.184198 79.774125 
L 361.428851 80.431516 
L 361.673504 77.692386 
L 361.918157 77.14456 
L 362.16281 73.528908 
L 362.407463 72.761951 
L 362.652116 71.556734 
L 362.896769 67.831516 
L 363.141422 71.447168 
L 363.386075 69.036734 
L 363.630728 72.10456 
L 363.875381 66.735864 
L 364.120034 66.954995 
L 364.364687 66.735864 
L 364.60934 70.132386 
L 364.853993 69.146299 
L 365.098646 73.528908 
L 365.343299 68.269777 
L 365.587952 75.829777 
L 365.832605 75.062821 
L 366.077258 69.474995 
L 366.321911 73.309777 
L 366.811217 77.36369 
L 367.05587 73.857603 
L 367.545176 70.899342 
L 367.789829 67.28369 
L 368.279135 80.979342 
L 368.523788 79.116734 
L 368.768441 75.501082 
L 369.013094 79.226299 
L 369.257747 92.593255 
L 369.5024 96.975864 
L 369.747053 98.948038 
L 369.991706 92.48369 
L 370.236359 95.332386 
L 370.481012 105.960212 
L 370.725665 103.549777 
L 371.214971 106.727168 
L 371.459624 102.673255 
L 371.704277 106.288908 
L 371.94893 100.153255 
L 372.193583 102.454125 
L 372.438236 100.920212 
L 372.682889 105.741082 
L 372.927542 103.768908 
L 373.661501 108.699342 
L 374.150807 112.64369 
L 374.39546 107.713255 
L 374.640113 106.288908 
L 375.129419 107.494125 
L 375.374072 105.960212 
L 375.618725 101.139342 
L 375.863378 102.892386 
L 376.352684 101.139342 
L 376.597338 100.810647 
L 376.841991 104.316734 
L 377.086644 97.30456 
L 377.331297 94.455864 
L 377.57595 93.360212 
L 378.065256 96.208908 
L 378.554562 104.316734 
L 378.799215 105.193255 
L 379.043868 102.015864 
L 379.288521 101.796734 
L 379.533174 101.248908 
L 379.777827 101.358473 
L 380.267133 105.741082 
L 380.511786 120.861082 
L 380.756439 97.52369 
L 381.490398 102.56369 
L 381.490398 102.56369 
" style="fill:none;stroke:#ff7f0e;stroke-linecap:square;stroke-width:1.5;"/>
   </g>
   <g id="patch_3">
    <path d="M 40.603125 288.430125 
L 40.603125 22.318125 
" style="fill:none;stroke:#000000;stroke-linecap:square;stroke-linejoin:miter;stroke-width:0.8;"/>
   </g>
   <g id="patch_4">
    <path d="M 397.723125 288.430125 
L 397.723125 22.318125 
" style="fill:none;stroke:#000000;stroke-linecap:square;stroke-linejoin:miter;stroke-width:0.8;"/>
   </g>
   <g id="patch_5">
    <path d="M 40.603125 288.430125 
L 397.723125 288.430125 
" style="fill:none;stroke:#000000;stroke-linecap:square;stroke-linejoin:miter;stroke-width:0.8;"/>
   </g>
   <g id="patch_6">
    <path d="M 40.603125 22.318125 
L 397.723125 22.318125 
" style="fill:none;stroke:#000000;stroke-linecap:square;stroke-linejoin:miter;stroke-width:0.8;"/>
   </g>
   <g id="text_15">
    <!-- Training: MDLZ -->
    <defs>
     <path d="M -0.296875 72.90625 
L 61.375 72.90625 
L 61.375 64.59375 
L 35.5 64.59375 
L 35.5 0 
L 25.59375 0 
L 25.59375 64.59375 
L -0.296875 64.59375 
z
" id="DejaVuSans-84"/>
     <path d="M 54.890625 33.015625 
L 54.890625 0 
L 45.90625 0 
L 45.90625 32.71875 
Q 45.90625 40.484375 42.875 44.328125 
Q 39.84375 48.1875 33.796875 48.1875 
Q 26.515625 48.1875 22.3125 43.546875 
Q 18.109375 38.921875 18.109375 30.90625 
L 18.109375 0 
L 9.078125 0 
L 9.078125 54.6875 
L 18.109375 54.6875 
L 18.109375 46.1875 
Q 21.34375 51.125 25.703125 53.5625 
Q 30.078125 56 35.796875 56 
Q 45.21875 56 50.046875 50.171875 
Q 54.890625 44.34375 54.890625 33.015625 
z
" id="DejaVuSans-110"/>
     <path d="M 45.40625 27.984375 
Q 45.40625 37.75 41.375 43.109375 
Q 37.359375 48.484375 30.078125 48.484375 
Q 22.859375 48.484375 18.828125 43.109375 
Q 14.796875 37.75 14.796875 27.984375 
Q 14.796875 18.265625 18.828125 12.890625 
Q 22.859375 7.515625 30.078125 7.515625 
Q 37.359375 7.515625 41.375 12.890625 
Q 45.40625 18.265625 45.40625 27.984375 
z
M 54.390625 6.78125 
Q 54.390625 -7.171875 48.1875 -13.984375 
Q 42 -20.796875 29.203125 -20.796875 
Q 24.46875 -20.796875 20.265625 -20.09375 
Q 16.0625 -19.390625 12.109375 -17.921875 
L 12.109375 -9.1875 
Q 16.0625 -11.328125 19.921875 -12.34375 
Q 23.78125 -13.375 27.78125 -13.375 
Q 36.625 -13.375 41.015625 -8.765625 
Q 45.40625 -4.15625 45.40625 5.171875 
L 45.40625 9.625 
Q 42.625 4.78125 38.28125 2.390625 
Q 33.9375 0 27.875 0 
Q 17.828125 0 11.671875 7.65625 
Q 5.515625 15.328125 5.515625 27.984375 
Q 5.515625 40.671875 11.671875 48.328125 
Q 17.828125 56 27.875 56 
Q 33.9375 56 38.28125 53.609375 
Q 42.625 51.21875 45.40625 46.390625 
L 45.40625 54.6875 
L 54.390625 54.6875 
z
" id="DejaVuSans-103"/>
     <path d="M 11.71875 12.40625 
L 22.015625 12.40625 
L 22.015625 0 
L 11.71875 0 
z
M 11.71875 51.703125 
L 22.015625 51.703125 
L 22.015625 39.3125 
L 11.71875 39.3125 
z
" id="DejaVuSans-58"/>
     <path d="M 9.8125 72.90625 
L 24.515625 72.90625 
L 43.109375 23.296875 
L 61.8125 72.90625 
L 76.515625 72.90625 
L 76.515625 0 
L 66.890625 0 
L 66.890625 64.015625 
L 48.09375 14.015625 
L 38.1875 14.015625 
L 19.390625 64.015625 
L 19.390625 0 
L 9.8125 0 
z
" id="DejaVuSans-77"/>
     <path d="M 9.8125 72.90625 
L 19.671875 72.90625 
L 19.671875 8.296875 
L 55.171875 8.296875 
L 55.171875 0 
L 9.8125 0 
z
" id="DejaVuSans-76"/>
     <path d="M 5.609375 72.90625 
L 62.890625 72.90625 
L 62.890625 65.375 
L 16.796875 8.296875 
L 64.015625 8.296875 
L 64.015625 0 
L 4.5 0 
L 4.5 7.515625 
L 50.59375 64.59375 
L 5.609375 64.59375 
z
" id="DejaVuSans-90"/>
    </defs>
    <g transform="translate(174.314063 16.318125)scale(0.12 -0.12)">
     <use xlink:href="#DejaVuSans-84"/>
     <use x="46.333984" xlink:href="#DejaVuSans-114"/>
     <use x="87.447266" xlink:href="#DejaVuSans-97"/>
     <use x="148.726562" xlink:href="#DejaVuSans-105"/>
     <use x="176.509766" xlink:href="#DejaVuSans-110"/>
     <use x="239.888672" xlink:href="#DejaVuSans-105"/>
     <use x="267.671875" xlink:href="#DejaVuSans-110"/>
     <use x="331.050781" xlink:href="#DejaVuSans-103"/>
     <use x="394.527344" xlink:href="#DejaVuSans-58"/>
     <use x="428.21875" xlink:href="#DejaVuSans-32"/>
     <use x="460.005859" xlink:href="#DejaVuSans-77"/>
     <use x="546.285156" xlink:href="#DejaVuSans-68"/>
     <use x="623.287109" xlink:href="#DejaVuSans-76"/>
     <use x="679" xlink:href="#DejaVuSans-90"/>
    </g>
   </g>
   <g id="legend_1">
    <g id="patch_7">
     <path d="M 47.603125 59.674375 
L 131.33125 59.674375 
Q 133.33125 59.674375 133.33125 57.674375 
L 133.33125 29.318125 
Q 133.33125 27.318125 131.33125 27.318125 
L 47.603125 27.318125 
Q 45.603125 27.318125 45.603125 29.318125 
L 45.603125 57.674375 
Q 45.603125 59.674375 47.603125 59.674375 
z
" style="fill:#ffffff;opacity:0.8;stroke:#cccccc;stroke-linejoin:miter;"/>
    </g>
    <g id="line2d_27">
     <path d="M 49.603125 35.416562 
L 69.603125 35.416562 
" style="fill:none;stroke:#1f77b4;stroke-linecap:square;stroke-width:1.5;"/>
    </g>
    <g id="line2d_28"/>
    <g id="text_16">
     <!-- Predicted -->
     <defs>
      <path d="M 45.40625 46.390625 
L 45.40625 75.984375 
L 54.390625 75.984375 
L 54.390625 0 
L 45.40625 0 
L 45.40625 8.203125 
Q 42.578125 3.328125 38.25 0.953125 
Q 33.9375 -1.421875 27.875 -1.421875 
Q 17.96875 -1.421875 11.734375 6.484375 
Q 5.515625 14.40625 5.515625 27.296875 
Q 5.515625 40.1875 11.734375 48.09375 
Q 17.96875 56 27.875 56 
Q 33.9375 56 38.25 53.625 
Q 42.578125 51.265625 45.40625 46.390625 
z
M 14.796875 27.296875 
Q 14.796875 17.390625 18.875 11.75 
Q 22.953125 6.109375 30.078125 6.109375 
Q 37.203125 6.109375 41.296875 11.75 
Q 45.40625 17.390625 45.40625 27.296875 
Q 45.40625 37.203125 41.296875 42.84375 
Q 37.203125 48.484375 30.078125 48.484375 
Q 22.953125 48.484375 18.875 42.84375 
Q 14.796875 37.203125 14.796875 27.296875 
z
" id="DejaVuSans-100"/>
      <path d="M 18.3125 70.21875 
L 18.3125 54.6875 
L 36.8125 54.6875 
L 36.8125 47.703125 
L 18.3125 47.703125 
L 18.3125 18.015625 
Q 18.3125 11.328125 20.140625 9.421875 
Q 21.96875 7.515625 27.59375 7.515625 
L 36.8125 7.515625 
L 36.8125 0 
L 27.59375 0 
Q 17.1875 0 13.234375 3.875 
Q 9.28125 7.765625 9.28125 18.015625 
L 9.28125 47.703125 
L 2.6875 47.703125 
L 2.6875 54.6875 
L 9.28125 54.6875 
L 9.28125 70.21875 
z
" id="DejaVuSans-116"/>
     </defs>
     <g transform="translate(77.603125 38.916562)scale(0.1 -0.1)">
      <use xlink:href="#DejaVuSans-80"/>
      <use x="58.552734" xlink:href="#DejaVuSans-114"/>
      <use x="97.416016" xlink:href="#DejaVuSans-101"/>
      <use x="158.939453" xlink:href="#DejaVuSans-100"/>
      <use x="222.416016" xlink:href="#DejaVuSans-105"/>
      <use x="250.199219" xlink:href="#DejaVuSans-99"/>
      <use x="305.179688" xlink:href="#DejaVuSans-116"/>
      <use x="344.388672" xlink:href="#DejaVuSans-101"/>
      <use x="405.912109" xlink:href="#DejaVuSans-100"/>
     </g>
    </g>
    <g id="line2d_29">
     <path d="M 49.603125 50.094687 
L 69.603125 50.094687 
" style="fill:none;stroke:#ff7f0e;stroke-linecap:square;stroke-width:1.5;"/>
    </g>
    <g id="line2d_30"/>
    <g id="text_17">
     <!-- True value -->
     <defs>
      <path d="M 8.5 21.578125 
L 8.5 54.6875 
L 17.484375 54.6875 
L 17.484375 21.921875 
Q 17.484375 14.15625 20.5 10.265625 
Q 23.53125 6.390625 29.59375 6.390625 
Q 36.859375 6.390625 41.078125 11.03125 
Q 45.3125 15.671875 45.3125 23.6875 
L 45.3125 54.6875 
L 54.296875 54.6875 
L 54.296875 0 
L 45.3125 0 
L 45.3125 8.40625 
Q 42.046875 3.421875 37.71875 1 
Q 33.40625 -1.421875 27.6875 -1.421875 
Q 18.265625 -1.421875 13.375 4.4375 
Q 8.5 10.296875 8.5 21.578125 
z
M 31.109375 56 
z
" id="DejaVuSans-117"/>
      <path d="M 2.984375 54.6875 
L 12.5 54.6875 
L 29.59375 8.796875 
L 46.6875 54.6875 
L 56.203125 54.6875 
L 35.6875 0 
L 23.484375 0 
z
" id="DejaVuSans-118"/>
      <path d="M 9.421875 75.984375 
L 18.40625 75.984375 
L 18.40625 0 
L 9.421875 0 
z
" id="DejaVuSans-108"/>
     </defs>
     <g transform="translate(77.603125 53.594687)scale(0.1 -0.1)">
      <use xlink:href="#DejaVuSans-84"/>
      <use x="46.333984" xlink:href="#DejaVuSans-114"/>
      <use x="87.447266" xlink:href="#DejaVuSans-117"/>
      <use x="150.826172" xlink:href="#DejaVuSans-101"/>
      <use x="212.349609" xlink:href="#DejaVuSans-32"/>
      <use x="244.136719" xlink:href="#DejaVuSans-118"/>
      <use x="303.316406" xlink:href="#DejaVuSans-97"/>
      <use x="364.595703" xlink:href="#DejaVuSans-108"/>
      <use x="392.378906" xlink:href="#DejaVuSans-117"/>
      <use x="455.757812" xlink:href="#DejaVuSans-101"/>
     </g>
    </g>
   </g>
  </g>
 </g>
 <defs>
  <clipPath id="p99c14c0f5f">
   <rect height="266.112" width="357.12" x="40.603125" y="22.318125"/>
  </clipPath>
 </defs>
</svg>
