<?xml version="1.0" encoding="utf-8" standalone="no"?>
<!DOCTYPE svg PUBLIC "-//W3C//DTD SVG 1.1//EN"
  "http://www.w3.org/Graphics/SVG/1.1/DTD/svg11.dtd">
<!-- Created with matplotlib (https://matplotlib.org/) -->
<svg height="325.986375pt" version="1.1" viewBox="0 0 411.285625 325.986375" width="411.285625pt" xmlns="http://www.w3.org/2000/svg" xmlns:xlink="http://www.w3.org/1999/xlink">
 <defs>
  <style type="text/css">
*{stroke-linecap:butt;stroke-linejoin:round;}
  </style>
 </defs>
 <g id="figure_1">
  <g id="patch_1">
   <path d="M 0 325.986375 
L 411.285625 325.986375 
L 411.285625 0 
L 0 0 
z
" style="fill:#ffffff;"/>
  </g>
  <g id="axes_1">
   <g id="patch_2">
    <path d="M 46.965625 288.430125 
L 404.085625 288.430125 
L 404.085625 22.318125 
L 46.965625 22.318125 
z
" style="fill:#ffffff;"/>
   </g>
   <g id="matplotlib.axis_1">
    <g id="xtick_1">
     <g id="line2d_1">
      <path clip-path="url(#p765228c2cd)" d="M 63.198352 288.430125 
L 63.198352 22.318125 
" style="fill:none;stroke:#b0b0b0;stroke-dasharray:2.96,1.28;stroke-dashoffset:0;stroke-width:0.8;"/>
     </g>
     <g id="line2d_2">
      <defs>
       <path d="M 0 0 
L 0 3.5 
" id="mffab4f0c8c" style="stroke:#000000;stroke-width:0.8;"/>
      </defs>
      <g>
       <use style="stroke:#000000;stroke-width:0.8;" x="63.198352" xlink:href="#mffab4f0c8c" y="288.430125"/>
      </g>
     </g>
     <g id="text_1">
      <!-- 0 -->
      <defs>
       <path d="M 31.78125 66.40625 
Q 24.171875 66.40625 20.328125 58.90625 
Q 16.5 51.421875 16.5 36.375 
Q 16.5 21.390625 20.328125 13.890625 
Q 24.171875 6.390625 31.78125 6.390625 
Q 39.453125 6.390625 43.28125 13.890625 
Q 47.125 21.390625 47.125 36.375 
Q 47.125 51.421875 43.28125 58.90625 
Q 39.453125 66.40625 31.78125 66.40625 
z
M 31.78125 74.21875 
Q 44.046875 74.21875 50.515625 64.515625 
Q 56.984375 54.828125 56.984375 36.375 
Q 56.984375 17.96875 50.515625 8.265625 
Q 44.046875 -1.421875 31.78125 -1.421875 
Q 19.53125 -1.421875 13.0625 8.265625 
Q 6.59375 17.96875 6.59375 36.375 
Q 6.59375 54.828125 13.0625 64.515625 
Q 19.53125 74.21875 31.78125 74.21875 
z
" id="DejaVuSans-48"/>
      </defs>
      <g transform="translate(60.017102 303.028562)scale(0.1 -0.1)">
       <use xlink:href="#DejaVuSans-48"/>
      </g>
     </g>
    </g>
    <g id="xtick_2">
     <g id="line2d_3">
      <path clip-path="url(#p765228c2cd)" d="M 112.128954 288.430125 
L 112.128954 22.318125 
" style="fill:none;stroke:#b0b0b0;stroke-dasharray:2.96,1.28;stroke-dashoffset:0;stroke-width:0.8;"/>
     </g>
     <g id="line2d_4">
      <g>
       <use style="stroke:#000000;stroke-width:0.8;" x="112.128954" xlink:href="#mffab4f0c8c" y="288.430125"/>
      </g>
     </g>
     <g id="text_2">
      <!-- 200 -->
      <defs>
       <path d="M 19.1875 8.296875 
L 53.609375 8.296875 
L 53.609375 0 
L 7.328125 0 
L 7.328125 8.296875 
Q 12.9375 14.109375 22.625 23.890625 
Q 32.328125 33.6875 34.8125 36.53125 
Q 39.546875 41.84375 41.421875 45.53125 
Q 43.3125 49.21875 43.3125 52.78125 
Q 43.3125 58.59375 39.234375 62.25 
Q 35.15625 65.921875 28.609375 65.921875 
Q 23.96875 65.921875 18.8125 64.3125 
Q 13.671875 62.703125 7.8125 59.421875 
L 7.8125 69.390625 
Q 13.765625 71.78125 18.9375 73 
Q 24.125 74.21875 28.421875 74.21875 
Q 39.75 74.21875 46.484375 68.546875 
Q 53.21875 62.890625 53.21875 53.421875 
Q 53.21875 48.921875 51.53125 44.890625 
Q 49.859375 40.875 45.40625 35.40625 
Q 44.1875 33.984375 37.640625 27.21875 
Q 31.109375 20.453125 19.1875 8.296875 
z
" id="DejaVuSans-50"/>
      </defs>
      <g transform="translate(102.585204 303.028562)scale(0.1 -0.1)">
       <use xlink:href="#DejaVuSans-50"/>
       <use x="63.623047" xlink:href="#DejaVuSans-48"/>
       <use x="127.246094" xlink:href="#DejaVuSans-48"/>
      </g>
     </g>
    </g>
    <g id="xtick_3">
     <g id="line2d_5">
      <path clip-path="url(#p765228c2cd)" d="M 161.059557 288.430125 
L 161.059557 22.318125 
" style="fill:none;stroke:#b0b0b0;stroke-dasharray:2.96,1.28;stroke-dashoffset:0;stroke-width:0.8;"/>
     </g>
     <g id="line2d_6">
      <g>
       <use style="stroke:#000000;stroke-width:0.8;" x="161.059557" xlink:href="#mffab4f0c8c" y="288.430125"/>
      </g>
     </g>
     <g id="text_3">
      <!-- 400 -->
      <defs>
       <path d="M 37.796875 64.3125 
L 12.890625 25.390625 
L 37.796875 25.390625 
z
M 35.203125 72.90625 
L 47.609375 72.90625 
L 47.609375 25.390625 
L 58.015625 25.390625 
L 58.015625 17.1875 
L 47.609375 17.1875 
L 47.609375 0 
L 37.796875 0 
L 37.796875 17.1875 
L 4.890625 17.1875 
L 4.890625 26.703125 
z
" id="DejaVuSans-52"/>
      </defs>
      <g transform="translate(151.515807 303.028562)scale(0.1 -0.1)">
       <use xlink:href="#DejaVuSans-52"/>
       <use x="63.623047" xlink:href="#DejaVuSans-48"/>
       <use x="127.246094" xlink:href="#DejaVuSans-48"/>
      </g>
     </g>
    </g>
    <g id="xtick_4">
     <g id="line2d_7">
      <path clip-path="url(#p765228c2cd)" d="M 209.990159 288.430125 
L 209.990159 22.318125 
" style="fill:none;stroke:#b0b0b0;stroke-dasharray:2.96,1.28;stroke-dashoffset:0;stroke-width:0.8;"/>
     </g>
     <g id="line2d_8">
      <g>
       <use style="stroke:#000000;stroke-width:0.8;" x="209.990159" xlink:href="#mffab4f0c8c" y="288.430125"/>
      </g>
     </g>
     <g id="text_4">
      <!-- 600 -->
      <defs>
       <path d="M 33.015625 40.375 
Q 26.375 40.375 22.484375 35.828125 
Q 18.609375 31.296875 18.609375 23.390625 
Q 18.609375 15.53125 22.484375 10.953125 
Q 26.375 6.390625 33.015625 6.390625 
Q 39.65625 6.390625 43.53125 10.953125 
Q 47.40625 15.53125 47.40625 23.390625 
Q 47.40625 31.296875 43.53125 35.828125 
Q 39.65625 40.375 33.015625 40.375 
z
M 52.59375 71.296875 
L 52.59375 62.3125 
Q 48.875 64.0625 45.09375 64.984375 
Q 41.3125 65.921875 37.59375 65.921875 
Q 27.828125 65.921875 22.671875 59.328125 
Q 17.53125 52.734375 16.796875 39.40625 
Q 19.671875 43.65625 24.015625 45.921875 
Q 28.375 48.1875 33.59375 48.1875 
Q 44.578125 48.1875 50.953125 41.515625 
Q 57.328125 34.859375 57.328125 23.390625 
Q 57.328125 12.15625 50.6875 5.359375 
Q 44.046875 -1.421875 33.015625 -1.421875 
Q 20.359375 -1.421875 13.671875 8.265625 
Q 6.984375 17.96875 6.984375 36.375 
Q 6.984375 53.65625 15.1875 63.9375 
Q 23.390625 74.21875 37.203125 74.21875 
Q 40.921875 74.21875 44.703125 73.484375 
Q 48.484375 72.75 52.59375 71.296875 
z
" id="DejaVuSans-54"/>
      </defs>
      <g transform="translate(200.446409 303.028562)scale(0.1 -0.1)">
       <use xlink:href="#DejaVuSans-54"/>
       <use x="63.623047" xlink:href="#DejaVuSans-48"/>
       <use x="127.246094" xlink:href="#DejaVuSans-48"/>
      </g>
     </g>
    </g>
    <g id="xtick_5">
     <g id="line2d_9">
      <path clip-path="url(#p765228c2cd)" d="M 258.920761 288.430125 
L 258.920761 22.318125 
" style="fill:none;stroke:#b0b0b0;stroke-dasharray:2.96,1.28;stroke-dashoffset:0;stroke-width:0.8;"/>
     </g>
     <g id="line2d_10">
      <g>
       <use style="stroke:#000000;stroke-width:0.8;" x="258.920761" xlink:href="#mffab4f0c8c" y="288.430125"/>
      </g>
     </g>
     <g id="text_5">
      <!-- 800 -->
      <defs>
       <path d="M 31.78125 34.625 
Q 24.75 34.625 20.71875 30.859375 
Q 16.703125 27.09375 16.703125 20.515625 
Q 16.703125 13.921875 20.71875 10.15625 
Q 24.75 6.390625 31.78125 6.390625 
Q 38.8125 6.390625 42.859375 10.171875 
Q 46.921875 13.96875 46.921875 20.515625 
Q 46.921875 27.09375 42.890625 30.859375 
Q 38.875 34.625 31.78125 34.625 
z
M 21.921875 38.8125 
Q 15.578125 40.375 12.03125 44.71875 
Q 8.5 49.078125 8.5 55.328125 
Q 8.5 64.0625 14.71875 69.140625 
Q 20.953125 74.21875 31.78125 74.21875 
Q 42.671875 74.21875 48.875 69.140625 
Q 55.078125 64.0625 55.078125 55.328125 
Q 55.078125 49.078125 51.53125 44.71875 
Q 48 40.375 41.703125 38.8125 
Q 48.828125 37.15625 52.796875 32.3125 
Q 56.78125 27.484375 56.78125 20.515625 
Q 56.78125 9.90625 50.3125 4.234375 
Q 43.84375 -1.421875 31.78125 -1.421875 
Q 19.734375 -1.421875 13.25 4.234375 
Q 6.78125 9.90625 6.78125 20.515625 
Q 6.78125 27.484375 10.78125 32.3125 
Q 14.796875 37.15625 21.921875 38.8125 
z
M 18.3125 54.390625 
Q 18.3125 48.734375 21.84375 45.5625 
Q 25.390625 42.390625 31.78125 42.390625 
Q 38.140625 42.390625 41.71875 45.5625 
Q 45.3125 48.734375 45.3125 54.390625 
Q 45.3125 60.0625 41.71875 63.234375 
Q 38.140625 66.40625 31.78125 66.40625 
Q 25.390625 66.40625 21.84375 63.234375 
Q 18.3125 60.0625 18.3125 54.390625 
z
" id="DejaVuSans-56"/>
      </defs>
      <g transform="translate(249.377011 303.028562)scale(0.1 -0.1)">
       <use xlink:href="#DejaVuSans-56"/>
       <use x="63.623047" xlink:href="#DejaVuSans-48"/>
       <use x="127.246094" xlink:href="#DejaVuSans-48"/>
      </g>
     </g>
    </g>
    <g id="xtick_6">
     <g id="line2d_11">
      <path clip-path="url(#p765228c2cd)" d="M 307.851363 288.430125 
L 307.851363 22.318125 
" style="fill:none;stroke:#b0b0b0;stroke-dasharray:2.96,1.28;stroke-dashoffset:0;stroke-width:0.8;"/>
     </g>
     <g id="line2d_12">
      <g>
       <use style="stroke:#000000;stroke-width:0.8;" x="307.851363" xlink:href="#mffab4f0c8c" y="288.430125"/>
      </g>
     </g>
     <g id="text_6">
      <!-- 1000 -->
      <defs>
       <path d="M 12.40625 8.296875 
L 28.515625 8.296875 
L 28.515625 63.921875 
L 10.984375 60.40625 
L 10.984375 69.390625 
L 28.421875 72.90625 
L 38.28125 72.90625 
L 38.28125 8.296875 
L 54.390625 8.296875 
L 54.390625 0 
L 12.40625 0 
z
" id="DejaVuSans-49"/>
      </defs>
      <g transform="translate(295.126363 303.028562)scale(0.1 -0.1)">
       <use xlink:href="#DejaVuSans-49"/>
       <use x="63.623047" xlink:href="#DejaVuSans-48"/>
       <use x="127.246094" xlink:href="#DejaVuSans-48"/>
       <use x="190.869141" xlink:href="#DejaVuSans-48"/>
      </g>
     </g>
    </g>
    <g id="xtick_7">
     <g id="line2d_13">
      <path clip-path="url(#p765228c2cd)" d="M 356.781965 288.430125 
L 356.781965 22.318125 
" style="fill:none;stroke:#b0b0b0;stroke-dasharray:2.96,1.28;stroke-dashoffset:0;stroke-width:0.8;"/>
     </g>
     <g id="line2d_14">
      <g>
       <use style="stroke:#000000;stroke-width:0.8;" x="356.781965" xlink:href="#mffab4f0c8c" y="288.430125"/>
      </g>
     </g>
     <g id="text_7">
      <!-- 1200 -->
      <g transform="translate(344.056965 303.028562)scale(0.1 -0.1)">
       <use xlink:href="#DejaVuSans-49"/>
       <use x="63.623047" xlink:href="#DejaVuSans-50"/>
       <use x="127.246094" xlink:href="#DejaVuSans-48"/>
       <use x="190.869141" xlink:href="#DejaVuSans-48"/>
      </g>
     </g>
    </g>
    <g id="text_8">
     <!-- Day -->
     <defs>
      <path d="M 19.671875 64.796875 
L 19.671875 8.109375 
L 31.59375 8.109375 
Q 46.6875 8.109375 53.6875 14.9375 
Q 60.6875 21.78125 60.6875 36.53125 
Q 60.6875 51.171875 53.6875 57.984375 
Q 46.6875 64.796875 31.59375 64.796875 
z
M 9.8125 72.90625 
L 30.078125 72.90625 
Q 51.265625 72.90625 61.171875 64.09375 
Q 71.09375 55.28125 71.09375 36.53125 
Q 71.09375 17.671875 61.125 8.828125 
Q 51.171875 0 30.078125 0 
L 9.8125 0 
z
" id="DejaVuSans-68"/>
      <path d="M 34.28125 27.484375 
Q 23.390625 27.484375 19.1875 25 
Q 14.984375 22.515625 14.984375 16.5 
Q 14.984375 11.71875 18.140625 8.90625 
Q 21.296875 6.109375 26.703125 6.109375 
Q 34.1875 6.109375 38.703125 11.40625 
Q 43.21875 16.703125 43.21875 25.484375 
L 43.21875 27.484375 
z
M 52.203125 31.203125 
L 52.203125 0 
L 43.21875 0 
L 43.21875 8.296875 
Q 40.140625 3.328125 35.546875 0.953125 
Q 30.953125 -1.421875 24.3125 -1.421875 
Q 15.921875 -1.421875 10.953125 3.296875 
Q 6 8.015625 6 15.921875 
Q 6 25.140625 12.171875 29.828125 
Q 18.359375 34.515625 30.609375 34.515625 
L 43.21875 34.515625 
L 43.21875 35.40625 
Q 43.21875 41.609375 39.140625 45 
Q 35.0625 48.390625 27.6875 48.390625 
Q 23 48.390625 18.546875 47.265625 
Q 14.109375 46.140625 10.015625 43.890625 
L 10.015625 52.203125 
Q 14.9375 54.109375 19.578125 55.046875 
Q 24.21875 56 28.609375 56 
Q 40.484375 56 46.34375 49.84375 
Q 52.203125 43.703125 52.203125 31.203125 
z
" id="DejaVuSans-97"/>
      <path d="M 32.171875 -5.078125 
Q 28.375 -14.84375 24.75 -17.8125 
Q 21.140625 -20.796875 15.09375 -20.796875 
L 7.90625 -20.796875 
L 7.90625 -13.28125 
L 13.1875 -13.28125 
Q 16.890625 -13.28125 18.9375 -11.515625 
Q 21 -9.765625 23.484375 -3.21875 
L 25.09375 0.875 
L 2.984375 54.6875 
L 12.5 54.6875 
L 29.59375 11.921875 
L 46.6875 54.6875 
L 56.203125 54.6875 
z
" id="DejaVuSans-121"/>
     </defs>
     <g transform="translate(215.652188 316.706687)scale(0.1 -0.1)">
      <use xlink:href="#DejaVuSans-68"/>
      <use x="77.001953" xlink:href="#DejaVuSans-97"/>
      <use x="138.28125" xlink:href="#DejaVuSans-121"/>
     </g>
    </g>
   </g>
   <g id="matplotlib.axis_2">
    <g id="ytick_1">
     <g id="line2d_15">
      <path clip-path="url(#p765228c2cd)" d="M 46.965625 287.298645 
L 404.085625 287.298645 
" style="fill:none;stroke:#b0b0b0;stroke-dasharray:2.96,1.28;stroke-dashoffset:0;stroke-width:0.8;"/>
     </g>
     <g id="line2d_16">
      <defs>
       <path d="M 0 0 
L -3.5 0 
" id="m6dcfb75009" style="stroke:#000000;stroke-width:0.8;"/>
      </defs>
      <g>
       <use style="stroke:#000000;stroke-width:0.8;" x="46.965625" xlink:href="#m6dcfb75009" y="287.298645"/>
      </g>
     </g>
     <g id="text_9">
      <!-- 75 -->
      <defs>
       <path d="M 8.203125 72.90625 
L 55.078125 72.90625 
L 55.078125 68.703125 
L 28.609375 0 
L 18.3125 0 
L 43.21875 64.59375 
L 8.203125 64.59375 
z
" id="DejaVuSans-55"/>
       <path d="M 10.796875 72.90625 
L 49.515625 72.90625 
L 49.515625 64.59375 
L 19.828125 64.59375 
L 19.828125 46.734375 
Q 21.96875 47.46875 24.109375 47.828125 
Q 26.265625 48.1875 28.421875 48.1875 
Q 40.625 48.1875 47.75 41.5 
Q 54.890625 34.8125 54.890625 23.390625 
Q 54.890625 11.625 47.5625 5.09375 
Q 40.234375 -1.421875 26.90625 -1.421875 
Q 22.3125 -1.421875 17.546875 -0.640625 
Q 12.796875 0.140625 7.71875 1.703125 
L 7.71875 11.625 
Q 12.109375 9.234375 16.796875 8.0625 
Q 21.484375 6.890625 26.703125 6.890625 
Q 35.15625 6.890625 40.078125 11.328125 
Q 45.015625 15.765625 45.015625 23.390625 
Q 45.015625 31 40.078125 35.4375 
Q 35.15625 39.890625 26.703125 39.890625 
Q 22.75 39.890625 18.8125 39.015625 
Q 14.890625 38.140625 10.796875 36.28125 
z
" id="DejaVuSans-53"/>
      </defs>
      <g transform="translate(27.240625 291.097864)scale(0.1 -0.1)">
       <use xlink:href="#DejaVuSans-55"/>
       <use x="63.623047" xlink:href="#DejaVuSans-53"/>
      </g>
     </g>
    </g>
    <g id="ytick_2">
     <g id="line2d_17">
      <path clip-path="url(#p765228c2cd)" d="M 46.965625 255.387934 
L 404.085625 255.387934 
" style="fill:none;stroke:#b0b0b0;stroke-dasharray:2.96,1.28;stroke-dashoffset:0;stroke-width:0.8;"/>
     </g>
     <g id="line2d_18">
      <g>
       <use style="stroke:#000000;stroke-width:0.8;" x="46.965625" xlink:href="#m6dcfb75009" y="255.387934"/>
      </g>
     </g>
     <g id="text_10">
      <!-- 100 -->
      <g transform="translate(20.878125 259.187153)scale(0.1 -0.1)">
       <use xlink:href="#DejaVuSans-49"/>
       <use x="63.623047" xlink:href="#DejaVuSans-48"/>
       <use x="127.246094" xlink:href="#DejaVuSans-48"/>
      </g>
     </g>
    </g>
    <g id="ytick_3">
     <g id="line2d_19">
      <path clip-path="url(#p765228c2cd)" d="M 46.965625 223.477222 
L 404.085625 223.477222 
" style="fill:none;stroke:#b0b0b0;stroke-dasharray:2.96,1.28;stroke-dashoffset:0;stroke-width:0.8;"/>
     </g>
     <g id="line2d_20">
      <g>
       <use style="stroke:#000000;stroke-width:0.8;" x="46.965625" xlink:href="#m6dcfb75009" y="223.477222"/>
      </g>
     </g>
     <g id="text_11">
      <!-- 125 -->
      <g transform="translate(20.878125 227.276441)scale(0.1 -0.1)">
       <use xlink:href="#DejaVuSans-49"/>
       <use x="63.623047" xlink:href="#DejaVuSans-50"/>
       <use x="127.246094" xlink:href="#DejaVuSans-53"/>
      </g>
     </g>
    </g>
    <g id="ytick_4">
     <g id="line2d_21">
      <path clip-path="url(#p765228c2cd)" d="M 46.965625 191.566511 
L 404.085625 191.566511 
" style="fill:none;stroke:#b0b0b0;stroke-dasharray:2.96,1.28;stroke-dashoffset:0;stroke-width:0.8;"/>
     </g>
     <g id="line2d_22">
      <g>
       <use style="stroke:#000000;stroke-width:0.8;" x="46.965625" xlink:href="#m6dcfb75009" y="191.566511"/>
      </g>
     </g>
     <g id="text_12">
      <!-- 150 -->
      <g transform="translate(20.878125 195.36573)scale(0.1 -0.1)">
       <use xlink:href="#DejaVuSans-49"/>
       <use x="63.623047" xlink:href="#DejaVuSans-53"/>
       <use x="127.246094" xlink:href="#DejaVuSans-48"/>
      </g>
     </g>
    </g>
    <g id="ytick_5">
     <g id="line2d_23">
      <path clip-path="url(#p765228c2cd)" d="M 46.965625 159.655799 
L 404.085625 159.655799 
" style="fill:none;stroke:#b0b0b0;stroke-dasharray:2.96,1.28;stroke-dashoffset:0;stroke-width:0.8;"/>
     </g>
     <g id="line2d_24">
      <g>
       <use style="stroke:#000000;stroke-width:0.8;" x="46.965625" xlink:href="#m6dcfb75009" y="159.655799"/>
      </g>
     </g>
     <g id="text_13">
      <!-- 175 -->
      <g transform="translate(20.878125 163.455018)scale(0.1 -0.1)">
       <use xlink:href="#DejaVuSans-49"/>
       <use x="63.623047" xlink:href="#DejaVuSans-55"/>
       <use x="127.246094" xlink:href="#DejaVuSans-53"/>
      </g>
     </g>
    </g>
    <g id="ytick_6">
     <g id="line2d_25">
      <path clip-path="url(#p765228c2cd)" d="M 46.965625 127.745088 
L 404.085625 127.745088 
" style="fill:none;stroke:#b0b0b0;stroke-dasharray:2.96,1.28;stroke-dashoffset:0;stroke-width:0.8;"/>
     </g>
     <g id="line2d_26">
      <g>
       <use style="stroke:#000000;stroke-width:0.8;" x="46.965625" xlink:href="#m6dcfb75009" y="127.745088"/>
      </g>
     </g>
     <g id="text_14">
      <!-- 200 -->
      <g transform="translate(20.878125 131.544306)scale(0.1 -0.1)">
       <use xlink:href="#DejaVuSans-50"/>
       <use x="63.623047" xlink:href="#DejaVuSans-48"/>
       <use x="127.246094" xlink:href="#DejaVuSans-48"/>
      </g>
     </g>
    </g>
    <g id="ytick_7">
     <g id="line2d_27">
      <path clip-path="url(#p765228c2cd)" d="M 46.965625 95.834376 
L 404.085625 95.834376 
" style="fill:none;stroke:#b0b0b0;stroke-dasharray:2.96,1.28;stroke-dashoffset:0;stroke-width:0.8;"/>
     </g>
     <g id="line2d_28">
      <g>
       <use style="stroke:#000000;stroke-width:0.8;" x="46.965625" xlink:href="#m6dcfb75009" y="95.834376"/>
      </g>
     </g>
     <g id="text_15">
      <!-- 225 -->
      <g transform="translate(20.878125 99.633595)scale(0.1 -0.1)">
       <use xlink:href="#DejaVuSans-50"/>
       <use x="63.623047" xlink:href="#DejaVuSans-50"/>
       <use x="127.246094" xlink:href="#DejaVuSans-53"/>
      </g>
     </g>
    </g>
    <g id="ytick_8">
     <g id="line2d_29">
      <path clip-path="url(#p765228c2cd)" d="M 46.965625 63.923665 
L 404.085625 63.923665 
" style="fill:none;stroke:#b0b0b0;stroke-dasharray:2.96,1.28;stroke-dashoffset:0;stroke-width:0.8;"/>
     </g>
     <g id="line2d_30">
      <g>
       <use style="stroke:#000000;stroke-width:0.8;" x="46.965625" xlink:href="#m6dcfb75009" y="63.923665"/>
      </g>
     </g>
     <g id="text_16">
      <!-- 250 -->
      <g transform="translate(20.878125 67.722883)scale(0.1 -0.1)">
       <use xlink:href="#DejaVuSans-50"/>
       <use x="63.623047" xlink:href="#DejaVuSans-53"/>
       <use x="127.246094" xlink:href="#DejaVuSans-48"/>
      </g>
     </g>
    </g>
    <g id="ytick_9">
     <g id="line2d_31">
      <path clip-path="url(#p765228c2cd)" d="M 46.965625 32.012953 
L 404.085625 32.012953 
" style="fill:none;stroke:#b0b0b0;stroke-dasharray:2.96,1.28;stroke-dashoffset:0;stroke-width:0.8;"/>
     </g>
     <g id="line2d_32">
      <g>
       <use style="stroke:#000000;stroke-width:0.8;" x="46.965625" xlink:href="#m6dcfb75009" y="32.012953"/>
      </g>
     </g>
     <g id="text_17">
      <!-- 275 -->
      <g transform="translate(20.878125 35.812172)scale(0.1 -0.1)">
       <use xlink:href="#DejaVuSans-50"/>
       <use x="63.623047" xlink:href="#DejaVuSans-55"/>
       <use x="127.246094" xlink:href="#DejaVuSans-53"/>
      </g>
     </g>
    </g>
    <g id="text_18">
     <!-- Price $ -->
     <defs>
      <path d="M 19.671875 64.796875 
L 19.671875 37.40625 
L 32.078125 37.40625 
Q 38.96875 37.40625 42.71875 40.96875 
Q 46.484375 44.53125 46.484375 51.125 
Q 46.484375 57.671875 42.71875 61.234375 
Q 38.96875 64.796875 32.078125 64.796875 
z
M 9.8125 72.90625 
L 32.078125 72.90625 
Q 44.34375 72.90625 50.609375 67.359375 
Q 56.890625 61.8125 56.890625 51.125 
Q 56.890625 40.328125 50.609375 34.8125 
Q 44.34375 29.296875 32.078125 29.296875 
L 19.671875 29.296875 
L 19.671875 0 
L 9.8125 0 
z
" id="DejaVuSans-80"/>
      <path d="M 41.109375 46.296875 
Q 39.59375 47.171875 37.8125 47.578125 
Q 36.03125 48 33.890625 48 
Q 26.265625 48 22.1875 43.046875 
Q 18.109375 38.09375 18.109375 28.8125 
L 18.109375 0 
L 9.078125 0 
L 9.078125 54.6875 
L 18.109375 54.6875 
L 18.109375 46.1875 
Q 20.953125 51.171875 25.484375 53.578125 
Q 30.03125 56 36.53125 56 
Q 37.453125 56 38.578125 55.875 
Q 39.703125 55.765625 41.0625 55.515625 
z
" id="DejaVuSans-114"/>
      <path d="M 9.421875 54.6875 
L 18.40625 54.6875 
L 18.40625 0 
L 9.421875 0 
z
M 9.421875 75.984375 
L 18.40625 75.984375 
L 18.40625 64.59375 
L 9.421875 64.59375 
z
" id="DejaVuSans-105"/>
      <path d="M 48.78125 52.59375 
L 48.78125 44.1875 
Q 44.96875 46.296875 41.140625 47.34375 
Q 37.3125 48.390625 33.40625 48.390625 
Q 24.65625 48.390625 19.8125 42.84375 
Q 14.984375 37.3125 14.984375 27.296875 
Q 14.984375 17.28125 19.8125 11.734375 
Q 24.65625 6.203125 33.40625 6.203125 
Q 37.3125 6.203125 41.140625 7.25 
Q 44.96875 8.296875 48.78125 10.40625 
L 48.78125 2.09375 
Q 45.015625 0.34375 40.984375 -0.53125 
Q 36.96875 -1.421875 32.421875 -1.421875 
Q 20.0625 -1.421875 12.78125 6.34375 
Q 5.515625 14.109375 5.515625 27.296875 
Q 5.515625 40.671875 12.859375 48.328125 
Q 20.21875 56 33.015625 56 
Q 37.15625 56 41.109375 55.140625 
Q 45.0625 54.296875 48.78125 52.59375 
z
" id="DejaVuSans-99"/>
      <path d="M 56.203125 29.59375 
L 56.203125 25.203125 
L 14.890625 25.203125 
Q 15.484375 15.921875 20.484375 11.0625 
Q 25.484375 6.203125 34.421875 6.203125 
Q 39.59375 6.203125 44.453125 7.46875 
Q 49.3125 8.734375 54.109375 11.28125 
L 54.109375 2.78125 
Q 49.265625 0.734375 44.1875 -0.34375 
Q 39.109375 -1.421875 33.890625 -1.421875 
Q 20.796875 -1.421875 13.15625 6.1875 
Q 5.515625 13.8125 5.515625 26.8125 
Q 5.515625 40.234375 12.765625 48.109375 
Q 20.015625 56 32.328125 56 
Q 43.359375 56 49.78125 48.890625 
Q 56.203125 41.796875 56.203125 29.59375 
z
M 47.21875 32.234375 
Q 47.125 39.59375 43.09375 43.984375 
Q 39.0625 48.390625 32.421875 48.390625 
Q 24.90625 48.390625 20.390625 44.140625 
Q 15.875 39.890625 15.1875 32.171875 
z
" id="DejaVuSans-101"/>
      <path id="DejaVuSans-32"/>
      <path d="M 33.796875 -14.703125 
L 28.90625 -14.703125 
L 28.859375 0 
Q 23.734375 0.09375 18.609375 1.1875 
Q 13.484375 2.296875 8.296875 4.5 
L 8.296875 13.28125 
Q 13.28125 10.15625 18.375 8.5625 
Q 23.484375 6.984375 28.90625 6.9375 
L 28.90625 29.203125 
Q 18.109375 30.953125 13.203125 35.15625 
Q 8.296875 39.359375 8.296875 46.6875 
Q 8.296875 54.640625 13.625 59.21875 
Q 18.953125 63.8125 28.90625 64.5 
L 28.90625 75.984375 
L 33.796875 75.984375 
L 33.796875 64.65625 
Q 38.328125 64.453125 42.578125 63.6875 
Q 46.828125 62.9375 50.875 61.625 
L 50.875 53.078125 
Q 46.828125 55.125 42.546875 56.25 
Q 38.28125 57.375 33.796875 57.5625 
L 33.796875 36.71875 
Q 44.875 35.015625 50.09375 30.609375 
Q 55.328125 26.21875 55.328125 18.609375 
Q 55.328125 10.359375 49.78125 5.59375 
Q 44.234375 0.828125 33.796875 0.09375 
z
M 28.90625 37.59375 
L 28.90625 57.625 
Q 23.25 56.984375 20.265625 54.390625 
Q 17.28125 51.8125 17.28125 47.515625 
Q 17.28125 43.3125 20.03125 40.96875 
Q 22.796875 38.625 28.90625 37.59375 
z
M 33.796875 28.21875 
L 33.796875 7.078125 
Q 39.984375 7.90625 43.140625 10.59375 
Q 46.296875 13.28125 46.296875 17.671875 
Q 46.296875 21.96875 43.28125 24.5 
Q 40.28125 27.046875 33.796875 28.21875 
z
" id="DejaVuSans-36"/>
     </defs>
     <g transform="translate(14.798438 172.342094)rotate(-90)scale(0.1 -0.1)">
      <use xlink:href="#DejaVuSans-80"/>
      <use x="58.552734" xlink:href="#DejaVuSans-114"/>
      <use x="99.666016" xlink:href="#DejaVuSans-105"/>
      <use x="127.449219" xlink:href="#DejaVuSans-99"/>
      <use x="182.429688" xlink:href="#DejaVuSans-101"/>
      <use x="243.953125" xlink:href="#DejaVuSans-32"/>
      <use x="275.740234" xlink:href="#DejaVuSans-36"/>
     </g>
    </g>
   </g>
   <g id="line2d_33">
    <path clip-path="url(#p765228c2cd)" d="M 63.198352 252.185235 
L 63.443005 233.246567 
L 63.687658 226.9945 
L 63.932311 225.679313 
L 64.176964 227.032674 
L 64.421617 224.822842 
L 64.910923 216.518997 
L 65.155576 215.123818 
L 65.400229 215.489494 
L 65.644882 215.563389 
L 66.134188 216.427027 
L 66.378841 216.9395 
L 66.623494 212.775779 
L 66.868147 212.113725 
L 67.1128 215.846464 
L 67.357453 225.076098 
L 67.602106 226.121552 
L 67.846759 235.180793 
L 68.091412 235.0901 
L 68.336066 233.648917 
L 68.580719 229.116726 
L 68.825372 237.484815 
L 69.070025 239.588567 
L 69.314678 240.330437 
L 69.559331 236.750736 
L 69.803984 239.329702 
L 70.048637 238.738339 
L 70.29329 242.33924 
L 70.537943 243.1693 
L 70.782596 242.450228 
L 71.027249 245.517554 
L 71.271902 242.65264 
L 71.516555 235.513573 
L 72.005861 239.586737 
L 72.250514 237.126053 
L 72.495167 240.416777 
L 72.73982 240.78853 
L 72.984473 238.31098 
L 73.473779 239.451568 
L 73.963085 233.598775 
L 74.207738 238.620466 
L 74.452391 239.285957 
L 74.697044 239.622253 
L 75.18635 236.967639 
L 75.431003 236.838284 
L 75.675656 246.417078 
L 76.409615 240.782424 
L 76.654268 237.526515 
L 76.898921 237.930677 
L 77.143574 236.181528 
L 77.388227 238.1982 
L 77.63288 239.209316 
L 78.122186 235.956513 
L 78.366839 237.187512 
L 78.611492 237.199861 
L 78.856145 237.410044 
L 79.100798 246.173317 
L 79.345451 246.412443 
L 79.834757 249.999661 
L 80.07941 247.573276 
L 80.568716 250.176656 
L 80.813369 250.21335 
L 81.058022 249.152792 
L 81.547328 262.552019 
L 81.791981 262.796696 
L 82.036634 264.044455 
L 82.281287 264.471151 
L 82.52594 262.673749 
L 82.770593 263.352387 
L 83.015246 260.063134 
L 83.259899 260.570708 
L 83.504552 261.769804 
L 83.749205 260.42769 
L 83.993858 256.540237 
L 84.238511 259.391585 
L 84.483164 260.183393 
L 84.727817 266.893865 
L 84.97247 269.893158 
L 85.461776 268.603787 
L 86.195735 260.165484 
L 86.440388 261.005409 
L 86.685041 258.560483 
L 86.929694 259.772511 
L 87.419 254.504965 
L 87.663653 255.311147 
L 87.908306 256.774094 
L 88.152959 259.192104 
L 88.397612 253.572613 
L 88.642265 255.830251 
L 88.886918 256.448638 
L 89.131571 254.91832 
L 89.376224 250.12327 
L 89.620877 248.910268 
L 89.86553 249.31221 
L 90.110183 252.263084 
L 90.354836 253.764079 
L 90.599489 249.767264 
L 90.844143 241.903185 
L 91.088796 238.757582 
L 91.333449 239.21103 
L 91.578102 240.439624 
L 92.067408 244.425638 
L 92.312061 242.64336 
L 92.801367 244.637565 
L 93.04602 245.121338 
L 93.290673 244.991 
L 93.535326 240.747123 
L 93.779979 243.122556 
L 94.269285 244.54955 
L 94.513938 244.141317 
L 94.758591 245.878711 
L 95.003244 259.101342 
L 95.247897 257.184275 
L 95.49255 259.533736 
L 95.737203 259.006783 
L 95.981856 259.550087 
L 96.226509 260.564894 
L 96.471162 260.207768 
L 96.960468 262.063591 
L 97.205121 264.639713 
L 97.449774 269.163491 
L 97.694427 269.280857 
L 97.93908 268.763876 
L 98.183733 269.999335 
L 98.428386 268.228782 
L 98.673039 268.427415 
L 99.162345 264.626069 
L 99.406998 267.092596 
L 99.651651 266.111737 
L 99.896304 267.69246 
L 100.140957 267.280907 
L 100.38561 268.647542 
L 100.630263 268.54337 
L 100.874916 270.49087 
L 101.119569 270.799684 
L 101.608875 273.938343 
L 101.853528 273.995264 
L 102.098181 275.042159 
L 102.342834 273.020267 
L 102.587487 272.981002 
L 102.83214 272.339409 
L 103.076793 273.634603 
L 103.321446 272.926282 
L 103.566099 270.450884 
L 103.810752 270.71608 
L 104.055405 271.546101 
L 104.300058 270.389279 
L 104.544711 272.825149 
L 104.789364 273.980452 
L 105.034017 275.910179 
L 105.27867 275.52342 
L 105.523323 274.541548 
L 105.767976 268.349353 
L 106.012629 269.329627 
L 106.257282 267.270779 
L 106.501935 269.607103 
L 106.746588 267.713904 
L 107.480547 272.515858 
L 107.7252 273.429708 
L 107.969853 270.917966 
L 108.214506 270.420491 
L 108.459159 265.328167 
L 108.703812 273.699383 
L 108.948465 273.728403 
L 109.193118 273.29638 
L 109.437771 274.373571 
L 109.682424 274.317809 
L 109.927077 274.882664 
L 110.661036 264.48201 
L 111.150342 261.07981 
L 111.394995 263.876662 
L 111.639648 264.349431 
L 111.884301 263.512408 
L 112.128954 264.532386 
L 112.373607 262.120775 
L 112.61826 254.937534 
L 112.862913 256.522192 
L 113.107566 261.382489 
L 113.35222 263.013131 
L 113.596873 259.912257 
L 113.841526 258.785449 
L 114.086179 259.659001 
L 114.330832 258.201098 
L 114.575485 259.526179 
L 115.064791 260.258028 
L 115.309444 261.605692 
L 115.79875 251.992493 
L 116.043403 251.440727 
L 116.532709 258.302552 
L 116.777362 255.703263 
L 117.266668 259.249502 
L 117.511321 259.886304 
L 118.000627 263.682421 
L 118.24528 263.555023 
L 118.489933 267.684017 
L 118.734586 266.572206 
L 118.979239 263.349806 
L 119.468545 261.974008 
L 120.202504 268.691062 
L 120.447157 266.095493 
L 120.69181 267.047526 
L 120.936463 264.57914 
L 121.181116 263.509097 
L 121.425769 259.082323 
L 121.670422 259.086949 
L 122.404381 244.371259 
L 122.649034 240.986833 
L 122.893687 241.1831 
L 123.13834 242.531427 
L 123.382993 242.708763 
L 123.627646 238.165615 
L 123.872299 221.980736 
L 124.116952 220.410335 
L 124.606258 214.8498 
L 124.850911 214.149104 
L 125.095564 210.53529 
L 125.340217 204.314883 
L 125.58487 213.054199 
L 125.829523 210.958403 
L 126.318829 209.748527 
L 126.563482 206.500447 
L 126.808135 208.753946 
L 127.052788 201.952294 
L 127.542094 210.882405 
L 127.786747 210.93768 
L 128.0314 210.462584 
L 128.276053 210.590682 
L 128.520706 209.259485 
L 128.765359 204.664452 
L 129.010012 205.992864 
L 129.254665 205.367699 
L 129.499318 210.441588 
L 129.743971 205.179573 
L 129.988624 204.377345 
L 130.233277 209.851773 
L 130.47793 208.859004 
L 130.967236 212.874409 
L 131.211889 209.500374 
L 131.456542 208.3693 
L 131.701195 203.254432 
L 131.945848 194.683999 
L 132.435154 200.676606 
L 132.679807 200.61541 
L 133.169113 196.635608 
L 133.413766 194.14683 
L 133.658419 196.145379 
L 133.903072 192.05974 
L 134.392378 190.358679 
L 134.637031 185.634204 
L 134.881684 186.44541 
L 135.126337 184.540896 
L 135.37099 180.04274 
L 135.615643 178.54449 
L 135.860297 182.422779 
L 136.10495 179.519828 
L 136.349603 181.686207 
L 136.594256 193.132656 
L 136.838909 195.363017 
L 137.083562 186.899063 
L 137.328215 184.926652 
L 137.817521 189.345285 
L 138.062174 190.881358 
L 138.306827 186.180897 
L 138.55148 170.752192 
L 138.796133 177.255733 
L 139.040786 180.290347 
L 139.285439 184.711492 
L 139.530092 176.295997 
L 139.774745 179.31949 
L 140.019398 185.997951 
L 140.508704 172.033821 
L 140.753357 177.635413 
L 140.99801 178.338387 
L 141.487316 186.562368 
L 141.976622 194.282427 
L 142.221275 189.713765 
L 142.465928 189.043142 
L 142.710581 190.520356 
L 142.955234 187.394922 
L 143.44454 175.464768 
L 143.933846 174.437408 
L 144.178499 180.035923 
L 144.423152 180.223542 
L 144.667805 180.6904 
L 144.912458 182.566303 
L 145.157111 174.406206 
L 145.401764 174.6953 
L 145.646417 169.976492 
L 145.89107 167.418454 
L 146.135723 169.5176 
L 146.380376 167.748741 
L 146.625029 169.007952 
L 146.869682 167.130918 
L 147.114335 163.074028 
L 147.358988 152.658562 
L 147.603641 162.155192 
L 147.848294 163.590376 
L 148.092947 163.899219 
L 148.3376 166.807059 
L 148.582253 167.655447 
L 148.826906 163.591116 
L 149.071559 165.192943 
L 149.316212 161.261891 
L 149.560865 162.779091 
L 149.805518 167.445507 
L 150.050171 168.946561 
L 150.294824 160.602058 
L 150.539477 160.538934 
L 150.78413 155.495974 
L 151.028783 152.926231 
L 151.273436 159.045223 
L 151.762742 154.191772 
L 152.007395 150.420157 
L 152.252048 158.845703 
L 152.496701 152.969177 
L 152.741354 164.538212 
L 152.986007 161.577298 
L 153.23066 164.867311 
L 153.475313 161.596463 
L 153.719966 165.379744 
L 154.209272 159.925299 
L 154.453925 173.600453 
L 154.943231 179.566416 
L 155.187884 172.86764 
L 155.432537 180.268397 
L 155.67719 177.270068 
L 156.166496 189.774786 
L 156.411149 183.806661 
L 156.655802 187.878724 
L 156.900455 184.625912 
L 157.389761 172.995953 
L 157.634414 170.39976 
L 157.879067 169.41597 
L 158.12372 165.517756 
L 158.368374 168.838173 
L 158.613027 160.512932 
L 158.85768 161.111472 
L 159.102333 160.574576 
L 159.346986 162.271196 
L 159.591639 162.290439 
L 159.836292 165.447056 
L 160.080945 161.711298 
L 160.325598 154.070782 
L 160.570251 164.900908 
L 160.814904 165.761917 
L 161.30421 159.635836 
L 161.548863 146.720392 
L 162.038169 153.447545 
L 162.282822 161.22658 
L 162.527475 159.848775 
L 163.016781 177.192434 
L 163.261434 175.964015 
L 163.506087 172.996966 
L 163.995393 181.289836 
L 164.240046 180.388744 
L 164.484699 181.415675 
L 164.729352 183.082496 
L 164.974005 187.933571 
L 165.218658 189.496113 
L 165.463311 189.971754 
L 165.707964 188.079315 
L 165.952617 179.684173 
L 166.19727 177.734627 
L 166.441923 181.494439 
L 166.931229 198.795152 
L 167.420535 181.417311 
L 167.665188 189.569657 
L 167.909841 191.396557 
L 168.154494 186.441359 
L 168.6438 181.911573 
L 168.888453 183.758066 
L 169.377759 174.551639 
L 169.622412 179.32247 
L 169.867065 178.627831 
L 170.111718 174.548815 
L 170.356371 190.157426 
L 170.601024 184.246738 
L 170.845677 186.118629 
L 171.09033 179.938909 
L 171.334983 178.583191 
L 171.579636 178.786684 
L 171.824289 181.199094 
L 172.068942 189.443603 
L 172.313595 190.387369 
L 172.558248 187.342432 
L 172.802901 178.531577 
L 173.047554 183.388729 
L 173.292207 183.449944 
L 173.781513 184.930392 
L 174.026166 181.298659 
L 174.270819 180.379785 
L 174.515472 173.281112 
L 174.760125 174.005394 
L 175.004778 168.554221 
L 175.249431 166.533605 
L 175.494084 170.666728 
L 175.738737 168.637134 
L 175.98339 170.999255 
L 176.228043 168.965823 
L 176.472696 173.846912 
L 176.717349 173.963246 
L 176.962002 170.081082 
L 177.206655 162.524822 
L 177.451308 163.797141 
L 177.695961 157.663269 
L 177.940614 157.430385 
L 178.185267 157.975637 
L 178.42992 155.17266 
L 178.674573 156.880829 
L 178.919226 154.962837 
L 179.408532 160.022391 
L 179.653185 159.756786 
L 180.387144 147.16678 
L 180.631798 148.277363 
L 181.121104 144.032172 
L 181.365757 138.196216 
L 181.61041 140.293765 
L 181.855063 138.387867 
L 182.099716 142.774655 
L 182.344369 149.946287 
L 182.589022 146.148905 
L 182.833675 148.557595 
L 183.322981 141.98014 
L 183.567634 140.241372 
L 183.812287 140.833446 
L 184.05694 143.9723 
L 184.301593 138.299891 
L 184.546246 130.03606 
L 184.790899 129.361347 
L 185.035552 127.072653 
L 185.280205 121.636185 
L 185.524858 92.692153 
L 185.769511 94.975003 
L 186.014164 101.856452 
L 186.258817 102.320836 
L 186.748123 111.398113 
L 186.992776 102.560322 
L 187.237429 107.7649 
L 187.482082 107.861914 
L 187.726735 110.029014 
L 187.971388 107.752805 
L 188.216041 104.162227 
L 188.460694 106.578142 
L 188.705347 103.290058 
L 188.95 102.085829 
L 189.194653 102.961777 
L 189.439306 102.425017 
L 189.683959 103.732784 
L 189.928612 102.653694 
L 190.417918 108.772257 
L 190.662571 105.469156 
L 191.151877 107.204378 
L 191.39653 109.29065 
L 191.641183 108.343944 
L 191.885836 95.563104 
L 192.130489 92.192418 
L 192.375142 96.195417 
L 192.619795 92.820427 
L 192.864448 94.401666 
L 193.109101 99.736096 
L 193.598407 101.287555 
L 193.84306 103.932537 
L 194.087713 113.028668 
L 194.577019 102.655992 
L 194.821672 90.999759 
L 195.066325 95.317327 
L 195.310978 107.731225 
L 195.555631 107.568769 
L 195.800284 98.720617 
L 196.044937 104.358961 
L 196.534243 100.843154 
L 196.778896 103.532563 
L 197.023549 111.302696 
L 197.512855 105.84679 
L 197.757508 104.927234 
L 198.002161 106.939397 
L 198.246814 104.513724 
L 198.491467 110.135805 
L 198.73612 122.084481 
L 198.980773 126.685689 
L 199.225426 127.60951 
L 199.714732 112.89011 
L 199.959385 112.058881 
L 200.448691 98.658739 
L 200.937997 105.03498 
L 201.18265 97.989927 
L 201.427303 101.562392 
L 201.671956 89.960382 
L 201.916609 96.015568 
L 202.161262 79.630244 
L 202.405915 77.923243 
L 202.650568 80.492226 
L 202.895221 73.289587 
L 203.139875 79.112785 
L 203.629181 80.315864 
L 203.873834 66.182091 
L 204.118487 63.171998 
L 204.36314 63.663358 
L 204.607793 70.84319 
L 204.852446 63.187424 
L 205.097099 70.689187 
L 205.341752 72.169576 
L 205.831058 77.667085 
L 206.075711 69.180245 
L 206.320364 70.895076 
L 206.565017 70.259296 
L 206.80967 68.128364 
L 207.054323 69.135741 
L 207.298976 79.684116 
L 207.543629 81.959274 
L 207.788282 86.309679 
L 208.032935 87.062923 
L 208.277588 84.93873 
L 208.522241 90.977848 
L 208.766894 88.504417 
L 209.011547 94.158363 
L 209.2562 89.397991 
L 209.500853 89.176501 
L 209.745506 93.378747 
L 209.990159 100.659021 
L 210.234812 96.206129 
L 210.479465 86.450613 
L 210.724118 83.286751 
L 210.968771 82.800786 
L 211.213424 84.478709 
L 211.458077 87.076985 
L 211.70273 82.280037 
L 211.947383 88.184434 
L 212.192036 88.427523 
L 212.436689 91.061364 
L 212.925995 101.270533 
L 213.170648 100.881757 
L 213.659954 89.83836 
L 213.904607 92.50056 
L 214.14926 99.854144 
L 214.393913 101.430028 
L 214.638566 104.874141 
L 214.883219 106.071786 
L 215.127872 101.117601 
L 215.372525 100.814932 
L 215.617178 91.153879 
L 215.861831 88.959355 
L 216.106484 84.498517 
L 216.351137 89.291142 
L 216.59579 91.50485 
L 216.840443 100.666753 
L 217.085096 100.488327 
L 217.329749 103.787124 
L 217.819055 104.931364 
L 218.063708 104.815866 
L 218.308361 105.348887 
L 218.553014 111.480246 
L 219.04232 102.14165 
L 219.286973 107.869626 
L 219.531626 119.856477 
L 219.776279 111.367359 
L 220.265585 117.400731 
L 220.510238 117.542191 
L 220.754891 114.575239 
L 220.999544 118.445425 
L 221.244197 116.559842 
L 221.48885 122.103529 
L 221.733503 119.299286 
L 221.978156 121.933419 
L 222.712115 117.138477 
L 222.956768 109.034297 
L 223.201421 110.088087 
L 223.690727 113.617703 
L 223.93538 121.163562 
L 224.180033 122.350845 
L 224.669339 120.173072 
L 224.913992 122.786871 
L 225.158645 113.233544 
L 225.403298 108.610269 
L 225.647952 110.871461 
L 225.892605 105.589697 
L 226.137258 109.652626 
L 226.381911 116.929666 
L 226.626564 119.74133 
L 226.871217 117.406827 
L 227.11587 113.530525 
L 227.360523 116.327465 
L 227.605176 112.92211 
L 227.849829 116.137118 
L 228.094482 122.180073 
L 228.339135 121.825499 
L 228.828441 103.629946 
L 229.073094 108.28489 
L 229.317747 107.291595 
L 229.5624 109.129383 
L 230.051706 117.974146 
L 230.296359 116.738502 
L 230.541012 111.85309 
L 231.030318 110.022528 
L 231.274971 111.340364 
L 231.764277 100.950413 
L 232.00893 102.563594 
L 232.253583 102.699756 
L 232.498236 126.623324 
L 232.742889 123.094896 
L 232.987542 121.91217 
L 233.476848 139.128432 
L 233.721501 135.077832 
L 233.966154 134.89775 
L 234.210807 138.197599 
L 234.700113 140.460427 
L 234.944766 139.190465 
L 235.189419 135.915001 
L 235.434072 137.81564 
L 235.923378 132.77642 
L 236.412684 122.349053 
L 236.657337 126.875451 
L 236.90199 125.127276 
L 237.146643 126.679826 
L 237.391296 130.289589 
L 237.635949 125.005585 
L 237.880602 122.874536 
L 238.369908 121.671262 
L 238.614561 119.58277 
L 238.859214 123.122534 
L 239.103867 123.713556 
L 239.593173 118.412646 
L 239.837826 117.425194 
L 240.082479 119.813803 
L 240.327132 120.608533 
L 240.571785 114.810226 
L 240.816438 113.445373 
L 241.061091 113.220085 
L 241.305744 114.778498 
L 241.550397 111.644727 
L 241.79505 113.890085 
L 242.039703 117.34158 
L 242.529009 126.135763 
L 242.773662 127.959098 
L 243.018315 128.493988 
L 243.262968 130.639762 
L 243.507621 140.52807 
L 243.752274 142.507609 
L 243.996927 146.149528 
L 244.24158 142.751205 
L 244.486233 142.443083 
L 244.730886 135.838048 
L 244.975539 138.002812 
L 245.220192 143.790932 
L 245.464845 139.653135 
L 245.709498 129.26147 
L 245.954151 127.604193 
L 246.68811 117.37064 
L 246.932763 119.168597 
L 247.177416 130.203969 
L 247.422069 167.52505 
L 247.666722 164.223702 
L 247.911375 159.32485 
L 248.156029 161.266566 
L 248.400682 165.932046 
L 248.645335 164.984113 
L 249.134641 159.628006 
L 249.379294 157.601333 
L 249.623947 156.589087 
L 250.113253 176.249876 
L 250.357906 176.598665 
L 250.847212 168.717514 
L 251.091865 170.237266 
L 251.336518 174.311354 
L 251.825824 186.689902 
L 252.070477 200.808269 
L 252.31513 206.550912 
L 252.559783 201.094168 
L 252.804436 189.282258 
L 253.049089 187.900635 
L 253.538395 198.909558 
L 253.783048 193.730183 
L 254.027701 192.108529 
L 254.272354 195.799179 
L 254.76166 190.999679 
L 255.495619 201.990196 
L 255.740272 201.93535 
L 255.984925 191.040307 
L 256.229578 194.720596 
L 256.474231 200.450578 
L 256.718884 202.705908 
L 257.20819 213.148369 
L 257.452843 213.144669 
L 257.697496 211.057891 
L 257.942149 212.481057 
L 258.186802 208.304209 
L 258.431455 207.1767 
L 258.676108 207.000941 
L 258.920761 193.481212 
L 259.165414 191.691376 
L 259.410067 191.464745 
L 259.899373 202.170161 
L 260.144026 198.326483 
L 260.388679 198.662729 
L 260.633332 195.622934 
L 260.877985 197.639168 
L 261.122638 190.850643 
L 261.367291 190.019005 
L 261.611944 185.175448 
L 261.856597 187.287468 
L 262.10125 191.769809 
L 262.590556 181.357011 
L 263.079862 160.562092 
L 263.324515 162.85209 
L 263.569168 167.211163 
L 263.813821 141.377159 
L 264.058474 133.224385 
L 264.303127 137.418275 
L 264.54778 128.889425 
L 264.792433 128.613225 
L 265.037086 126.54567 
L 265.281739 135.935822 
L 265.526392 130.353005 
L 265.771045 127.851664 
L 266.015698 130.044961 
L 266.260351 135.578949 
L 266.505004 128.467325 
L 266.749657 131.745613 
L 266.99431 120.801606 
L 267.238963 117.565076 
L 267.483616 119.020983 
L 267.728269 117.761071 
L 267.972922 120.609117 
L 268.217575 125.056984 
L 268.462228 119.859983 
L 268.706881 104.047645 
L 268.951534 109.899747 
L 269.196187 112.86814 
L 269.44084 117.752442 
L 269.685493 116.320765 
L 269.930146 116.26438 
L 270.419452 126.557629 
L 270.664106 126.976516 
L 270.908759 134.948273 
L 271.153412 134.680681 
L 271.398065 128.31675 
L 271.642718 127.901058 
L 271.887371 130.895491 
L 272.132024 137.115392 
L 272.376677 130.324414 
L 272.62133 130.715877 
L 272.865983 131.352825 
L 273.110636 134.682824 
L 273.355289 136.057142 
L 273.599942 133.77139 
L 274.089248 140.839328 
L 274.333901 147.095592 
L 274.578554 143.118381 
L 274.823207 145.221325 
L 275.06786 159.001556 
L 275.312513 163.095043 
L 275.557166 164.42065 
L 275.801819 161.511291 
L 276.046472 169.479679 
L 276.291125 162.933951 
L 276.535778 172.150058 
L 276.780431 170.371539 
L 277.025084 171.475383 
L 277.269737 166.133592 
L 277.51439 163.921559 
L 277.759043 168.26059 
L 278.003696 169.061532 
L 278.248349 179.730293 
L 278.493002 181.710008 
L 278.737655 174.290962 
L 278.982308 176.492634 
L 279.226961 184.334228 
L 279.471614 186.849611 
L 279.716267 187.483677 
L 279.96092 196.070763 
L 280.205573 197.062402 
L 280.450226 202.17618 
L 280.694879 199.059802 
L 280.939532 201.709614 
L 281.184185 188.589236 
L 281.673491 174.078646 
L 281.918144 177.549715 
L 282.40745 167.239949 
L 282.652103 177.270691 
L 282.896756 174.556353 
L 283.141409 180.6688 
L 283.386062 160.244543 
L 283.875368 161.371915 
L 284.120021 152.293314 
L 284.364674 157.158743 
L 284.85398 154.586078 
L 285.098633 156.490944 
L 285.343286 162.252635 
L 285.587939 156.9653 
L 285.832592 157.936645 
L 286.077245 148.74726 
L 286.566551 152.66199 
L 286.811204 148.761536 
L 287.055857 148.427393 
L 287.30051 142.490996 
L 287.545163 143.927523 
L 287.789816 142.007251 
L 288.034469 148.178168 
L 288.279122 146.356956 
L 288.523775 146.161468 
L 288.768428 140.066393 
L 289.013081 140.349118 
L 289.257734 138.9286 
L 289.502387 139.684707 
L 289.74704 141.33098 
L 289.991693 147.98901 
L 290.236346 143.796542 
L 290.480999 149.563706 
L 291.214958 143.292133 
L 291.459611 134.969015 
L 291.704264 132.82928 
L 291.948917 135.995226 
L 292.19357 136.129557 
L 292.438223 134.028015 
L 292.92753 136.424747 
L 293.416836 142.382198 
L 293.661489 142.053041 
L 293.906142 142.497072 
L 294.150795 144.956967 
L 294.395448 134.498165 
L 294.640101 154.121616 
L 294.884754 159.323195 
L 295.129407 155.912309 
L 295.618713 160.133447 
L 296.108019 169.795786 
L 296.597325 176.061944 
L 296.841978 178.042477 
L 297.086631 168.600186 
L 297.331284 164.189247 
L 297.82059 167.326504 
L 298.065243 165.412504 
L 298.309896 165.656139 
L 298.554549 158.040787 
L 299.043855 155.762143 
L 299.288508 146.370998 
L 299.533161 154.951287 
L 300.26712 160.628916 
L 300.511773 159.544042 
L 300.756426 164.451346 
L 301.001079 167.072625 
L 301.245732 166.728334 
L 301.490385 172.621863 
L 301.735038 173.568531 
L 301.979691 176.949539 
L 302.224344 176.781396 
L 302.468997 171.325451 
L 302.71365 174.652081 
L 302.958303 170.031299 
L 303.202956 174.565098 
L 303.447609 175.290665 
L 303.692262 173.226733 
L 303.936915 179.138979 
L 304.181568 181.968542 
L 304.670874 172.714397 
L 304.915527 171.758907 
L 305.16018 171.751408 
L 305.404833 175.912129 
L 305.649486 176.21026 
L 305.894139 173.869894 
L 306.138792 178.469096 
L 306.383445 169.361162 
L 306.628098 172.04391 
L 306.872751 172.985786 
L 307.117404 172.137749 
L 307.362057 174.782127 
L 307.60671 172.126628 
L 307.851363 176.795984 
L 308.096016 177.384319 
L 308.340669 176.477812 
L 308.829975 177.95863 
L 309.074628 173.195434 
L 309.319281 171.344461 
L 309.563934 171.177233 
L 309.808587 178.874894 
L 310.05324 174.04986 
L 310.297893 177.298134 
L 310.542546 175.352854 
L 310.787199 175.066098 
L 311.031852 168.903946 
L 311.521158 171.285251 
L 311.765811 171.130976 
L 312.010464 168.399615 
L 312.255117 168.151773 
L 312.49977 161.722516 
L 312.744423 161.488406 
L 312.989076 162.147304 
L 313.478382 155.914257 
L 313.723035 160.875784 
L 313.967688 161.025268 
L 314.212341 163.673016 
L 314.456994 161.778123 
L 314.701647 161.140473 
L 314.9463 160.93178 
L 315.190953 158.612079 
L 315.435607 164.341906 
L 315.68026 157.011382 
L 315.924913 155.682736 
L 316.169566 140.988072 
L 316.414219 141.459429 
L 316.658872 143.32051 
L 316.903525 150.324857 
L 317.148178 147.064273 
L 317.392831 150.377444 
L 317.637484 149.878508 
L 317.882137 144.393446 
L 318.12679 146.576634 
L 318.371443 146.76476 
L 318.616096 144.623603 
L 318.860749 132.078899 
L 319.105402 133.346154 
L 319.594708 141.426279 
L 319.839361 138.612921 
L 320.084014 142.904409 
L 320.328667 149.893856 
L 320.57332 149.916099 
L 320.817973 148.106591 
L 321.062626 147.493502 
L 321.307279 147.509161 
L 321.796585 152.840942 
L 322.041238 150.708705 
L 322.285891 156.280731 
L 322.530544 158.33325 
L 322.775197 159.39372 
L 323.01985 158.295075 
L 323.264503 158.774184 
L 323.753809 157.52403 
L 323.998462 158.779384 
L 324.243115 156.818212 
L 324.487768 151.680283 
L 324.977074 161.717394 
L 325.221727 158.861401 
L 325.46638 153.220622 
L 325.955686 160.981192 
L 326.200339 166.85577 
L 326.444992 167.071144 
L 326.689645 168.215345 
L 326.934298 163.519403 
L 327.178951 164.297888 
L 327.423604 167.120498 
L 327.668257 173.586235 
L 327.91291 174.260345 
L 328.157563 175.777837 
L 328.646869 169.686794 
L 328.891522 170.299552 
L 329.136175 172.606691 
L 329.380828 170.984102 
L 329.870134 173.519469 
L 330.114787 172.556012 
L 330.604093 166.610733 
L 330.848746 169.455625 
L 331.093399 174.305336 
L 331.338052 176.007526 
L 331.582705 172.678988 
L 331.827358 171.658484 
L 332.072011 166.450342 
L 332.316664 168.52413 
L 332.561317 164.499746 
L 332.80597 167.570587 
L 333.050623 163.570529 
L 333.295276 165.820639 
L 333.539929 170.91233 
L 333.784582 171.886694 
L 334.029235 173.472432 
L 334.273888 171.476435 
L 334.763194 174.577348 
L 335.007847 173.663616 
L 335.497153 171.231437 
L 335.741806 170.024541 
L 335.986459 172.673223 
L 336.720418 156.007726 
L 336.965071 157.623342 
L 337.209724 156.391963 
L 337.454377 152.262385 
L 337.69903 153.735801 
L 338.188337 157.259594 
L 338.43299 156.573759 
L 338.922296 157.803209 
L 339.166949 161.237117 
L 339.411602 157.822589 
L 339.656255 157.85827 
L 339.900908 157.104715 
L 340.145561 159.279411 
L 340.390214 160.253775 
L 340.634867 159.436647 
L 340.87952 159.00997 
L 341.124173 160.630358 
L 341.368826 161.139266 
L 341.613479 158.882105 
L 341.858132 155.551833 
L 342.102785 155.14808 
L 342.347438 150.854839 
L 342.592091 150.935142 
L 342.836744 147.615719 
L 343.081397 147.310557 
L 343.32605 149.257901 
L 343.570703 148.103806 
L 343.815356 146.39328 
L 344.060009 146.172063 
L 344.549315 145.100394 
L 344.793968 146.877141 
L 345.038621 159.053286 
L 345.283274 161.380719 
L 345.77258 158.571042 
L 346.261886 160.631098 
L 346.506539 161.217465 
L 346.751192 160.637467 
L 346.995845 160.466578 
L 347.485151 161.89173 
L 347.729804 161.261969 
L 347.974457 161.779544 
L 348.21911 162.796095 
L 348.463763 157.142578 
L 348.708416 157.07959 
L 348.953069 157.679474 
L 349.197722 163.686299 
L 349.442375 165.871065 
L 349.687028 165.834371 
L 349.931681 167.567568 
L 350.420987 165.770136 
L 350.66564 164.671199 
L 350.910293 162.536664 
L 351.154946 162.31572 
L 351.399599 159.145353 
L 351.644252 158.902146 
L 351.888905 161.773117 
L 352.133558 161.114394 
L 352.378211 162.333931 
L 352.622864 160.045159 
L 352.867517 161.687556 
L 353.11217 160.875959 
L 353.356823 162.191614 
L 353.601476 161.246173 
L 353.846129 159.803024 
L 354.090782 155.546127 
L 354.335435 154.567011 
L 354.580088 155.26346 
L 354.824741 152.676305 
L 355.069394 143.693257 
L 355.314047 144.423265 
L 355.5587 142.695891 
L 355.803353 152.841604 
L 356.048006 152.342162 
L 356.537312 155.956034 
L 356.781965 156.925684 
L 357.026618 155.241004 
L 357.271271 155.997831 
L 357.515924 148.958758 
L 357.760577 148.305897 
L 358.00523 144.32629 
L 358.249883 144.113915 
L 358.494536 144.887707 
L 358.739189 138.980584 
L 359.228495 149.556441 
L 359.473148 141.279269 
L 359.717801 137.812193 
L 359.962454 137.788821 
L 360.207107 139.303683 
L 360.451761 137.40618 
L 360.696414 139.49627 
L 360.941067 140.045981 
L 361.18572 144.964543 
L 361.430373 143.283076 
L 361.675026 142.974175 
L 361.919679 143.353076 
L 362.164332 145.367167 
L 362.408985 143.039364 
L 362.653638 145.334153 
L 362.898291 151.195585 
L 363.63225 154.789377 
L 364.121556 160.259481 
L 364.366209 156.590723 
L 364.610862 155.377925 
L 364.855515 152.500527 
L 365.344821 154.989091 
L 365.589474 154.578502 
L 365.834127 158.146039 
L 366.323433 153.166769 
L 366.568086 154.139145 
L 366.812739 152.761808 
L 367.057392 147.865586 
L 367.302045 150.494675 
L 367.546698 150.897181 
L 368.036004 147.052899 
L 368.280657 144.088751 
L 368.52531 143.961354 
L 368.769963 141.794546 
L 369.014616 142.260858 
L 369.503922 138.771072 
L 369.748575 138.27905 
L 369.993228 135.852072 
L 370.237881 128.789451 
L 370.482534 131.18067 
L 370.727187 125.490361 
L 370.97184 126.026751 
L 371.216493 100.872194 
L 371.461146 93.787292 
L 371.705799 94.634316 
L 371.950452 99.248008 
L 372.195105 91.244173 
L 372.439758 94.076443 
L 372.684411 92.300534 
L 372.929064 89.497323 
L 373.173717 88.539534 
L 373.41837 98.933809 
L 373.663023 96.813687 
L 373.907676 96.824496 
L 374.152329 94.711619 
L 374.396982 93.825018 
L 374.641635 100.294221 
L 374.886288 100.437473 
L 375.130941 98.190498 
L 375.375594 93.650662 
L 375.620247 95.152047 
L 375.8649 95.208471 
L 376.109553 94.295654 
L 376.354206 101.271565 
L 376.598859 100.304758 
L 377.088165 91.248672 
L 377.332818 85.553319 
L 377.577471 94.745548 
L 377.822124 92.315511 
L 378.066777 84.605775 
L 378.31143 89.650877 
L 378.800736 79.126146 
L 379.045389 80.574925 
L 379.290042 79.332074 
L 379.534695 81.996299 
L 379.779348 76.99726 
L 380.024001 78.711642 
L 380.268654 78.468339 
L 380.513307 77.282497 
L 380.75796 75.165822 
L 381.002613 82.857113 
L 381.247266 80.526992 
L 381.491919 76.083878 
L 381.736572 74.26434 
L 381.981225 66.312118 
L 382.225878 65.002774 
L 382.470531 66.910873 
L 382.715184 70.612936 
L 382.959838 68.887899 
L 383.204491 65.997608 
L 383.449144 60.447629 
L 383.693797 47.864848 
L 383.93845 50.345252 
L 384.183103 51.246753 
L 384.427756 46.943754 
L 384.672409 34.414125 
L 384.917062 37.695685 
L 385.161715 39.099608 
L 385.406368 44.580951 
L 385.651021 43.972926 
L 385.895674 42.641923 
L 386.140327 45.335675 
L 386.38498 46.490413 
L 386.629633 49.388632 
L 386.874286 75.430627 
L 387.118939 79.098158 
L 387.363592 70.547397 
L 387.608245 68.315166 
L 387.852898 72.404096 
L 387.852898 72.404096 
" style="fill:none;stroke:#1f77b4;stroke-linecap:square;stroke-width:1.5;"/>
   </g>
   <g id="line2d_34">
    <path clip-path="url(#p765228c2cd)" d="M 63.198352 228.212772 
L 63.443005 229.195622 
L 63.687658 225.723736 
L 63.932311 227.268215 
L 64.176964 223.681451 
L 64.421617 218.448094 
L 64.910923 215.474016 
L 65.155576 215.895237 
L 65.400229 215.742066 
L 66.134188 216.967437 
L 66.378841 212.423352 
L 66.623494 212.014895 
L 66.868147 215.93353 
L 67.1128 225.519508 
L 67.357453 226.285365 
L 67.602106 236.126628 
L 67.846759 235.322479 
L 68.091412 233.816293 
L 68.336066 229.067979 
L 68.580719 238.666721 
L 68.825372 240.058028 
L 69.070025 240.785592 
L 69.314678 236.866957 
L 69.559331 240.147378 
L 69.803984 239.126235 
L 70.048637 243.146985 
L 70.29329 243.695849 
L 70.537943 242.866171 
L 70.782596 246.338056 
L 71.027249 242.840642 
L 71.271902 235.450121 
L 71.761208 240.083557 
L 72.005861 237.339235 
L 72.250514 241.002585 
L 72.495167 241.206814 
L 72.73982 238.564607 
L 72.984473 239.40705 
L 73.229126 239.828271 
L 73.718432 233.829057 
L 73.963085 239.087942 
L 74.452391 239.981442 
L 74.941697 237.26265 
L 75.18635 237.147771 
L 75.431003 247.103913 
L 76.164962 241.066407 
L 76.409615 237.747693 
L 76.654268 238.271028 
L 76.898921 236.432971 
L 77.143574 238.564607 
L 77.388227 239.58575 
L 77.877533 236.254271 
L 78.122186 237.5307 
L 78.366839 237.505171 
L 78.611492 237.722164 
L 78.856145 246.79757 
L 79.100798 246.835863 
L 79.590104 250.537506 
L 79.834757 247.805949 
L 80.324063 250.665149 
L 80.568716 250.626856 
L 80.813369 249.516363 
L 81.302675 263.595369 
L 81.547328 263.263498 
L 81.791981 264.73139 
L 82.036634 265.063262 
L 82.281287 262.982683 
L 82.52594 264.01659 
L 82.770593 260.212834 
L 83.259899 262.382762 
L 83.504552 260.736169 
L 83.749205 256.664362 
L 83.993858 260.097955 
L 84.238511 260.621291 
L 84.483164 267.845876 
L 84.727817 270.551904 
L 84.97247 269.403118 
L 85.217123 268.969133 
L 85.951082 260.378769 
L 86.195735 261.450969 
L 86.440388 258.706648 
L 86.685041 260.161776 
L 87.174347 254.647605 
L 87.419 255.592162 
L 87.663653 257.047291 
L 87.908306 259.510798 
L 88.152959 253.537113 
L 88.397612 256.115498 
L 88.642265 256.664362 
L 88.886918 255.01777 
L 89.131571 250.129049 
L 89.376224 249.03132 
L 89.620877 249.452542 
L 89.86553 252.464913 
L 90.110183 253.996627 
L 90.354836 249.848234 
L 90.599489 241.908849 
L 90.844143 238.832657 
L 91.088796 239.253878 
L 91.333449 240.504778 
L 91.822755 244.627642 
L 92.067408 242.827878 
L 92.556714 244.793578 
L 92.801367 245.278621 
L 93.04602 245.163742 
L 93.290673 240.849414 
L 93.535326 243.325685 
L 94.024632 244.793578 
L 94.269285 244.397885 
L 94.513938 246.197649 
L 94.758591 260.021369 
L 95.003244 257.468512 
L 95.247897 260.149012 
L 95.49255 259.395919 
L 95.737203 260.021369 
L 95.981856 261.093569 
L 96.226509 260.608526 
L 96.715815 262.638048 
L 96.960468 265.369605 
L 97.205121 270.130683 
L 97.694427 269.19889 
L 97.93908 270.692311 
L 98.183733 268.496854 
L 98.428386 268.981897 
L 98.917692 264.884562 
L 99.162345 267.820347 
L 99.406998 266.403512 
L 99.651651 268.241569 
L 99.896304 267.616119 
L 100.140957 269.147833 
L 100.38561 268.879783 
L 100.630263 271.024183 
L 100.874916 271.151825 
L 101.364222 274.432247 
L 101.608875 274.317368 
L 101.853528 275.504446 
L 102.098181 273.13029 
L 102.342834 273.360047 
L 102.587487 272.632482 
L 102.83214 274.113139 
L 103.076793 273.168582 
L 103.321446 270.53914 
L 103.566099 271.088004 
L 103.810752 271.917683 
L 104.055405 270.551904 
L 104.300058 273.30899 
L 104.544711 274.330132 
L 104.789364 276.334125 
L 105.034017 275.721439 
L 105.27867 274.700297 
L 105.523323 268.062869 
L 105.767976 269.73499 
L 106.012629 267.360833 
L 106.257282 269.977511 
L 106.501935 267.782054 
L 106.991241 272.658011 
L 107.235894 272.709068 
L 107.480547 273.691918 
L 107.7252 270.89654 
L 107.969853 270.590197 
L 108.214506 265.165376 
L 108.459159 274.508832 
L 108.948465 273.449397 
L 109.193118 274.713061 
L 109.437771 274.534361 
L 109.682424 275.159811 
L 109.927077 271.151825 
L 110.17173 269.045718 
L 110.416383 264.437812 
L 110.905689 261.195683 
L 111.150342 264.144233 
L 111.394995 264.527162 
L 111.639648 263.620898 
L 111.884301 264.718626 
L 112.128954 262.127476 
L 112.373607 254.762484 
L 112.61826 256.62607 
L 112.862913 261.591376 
L 113.107566 263.186912 
L 113.35222 259.919255 
L 113.596873 258.859819 
L 113.841526 259.791612 
L 114.086179 258.234369 
L 114.330832 259.676734 
L 114.820138 260.417062 
L 115.064791 261.833898 
L 115.554097 251.97987 
L 115.79875 251.571413 
L 116.043403 256.115498 
L 116.288056 258.566241 
L 116.532709 255.82192 
L 117.022015 259.523562 
L 117.266668 260.110719 
L 117.755974 264.029355 
L 118.000627 263.799597 
L 118.24528 268.292626 
L 118.489933 266.760912 
L 118.734586 263.403905 
L 119.223892 262.280648 
L 119.957851 269.147833 
L 120.202504 266.212047 
L 120.447157 267.514004 
L 120.69181 264.718626 
L 120.936463 263.774069 
L 121.181116 259.115105 
L 121.425769 259.408684 
L 121.915075 248.125056 
L 122.404381 241.091935 
L 122.649034 241.245107 
L 122.893687 242.610885 
L 123.13834 242.827878 
L 123.382993 238.322085 
L 123.627646 222.392258 
L 124.850911 210.802288 
L 125.095564 204.713724 
L 125.340217 212.129773 
L 126.074176 209.768381 
L 126.318829 206.641131 
L 126.563482 208.504717 
L 126.808135 202.37786 
L 127.297441 210.815052 
L 127.542094 211.172452 
L 127.786747 210.700173 
L 128.0314 210.763995 
L 128.276053 209.449274 
L 128.520706 204.917953 
L 128.765359 206.066738 
L 129.010012 205.581695 
L 129.254665 210.559766 
L 129.499318 205.632752 
L 129.743971 204.637138 
L 129.988624 210.036431 
L 130.233277 209.219516 
L 130.722583 213.278559 
L 130.967236 209.857731 
L 131.211889 208.696181 
L 131.456542 203.564938 
L 131.701195 195.000103 
L 132.190501 200.961024 
L 132.435154 201.024846 
L 132.679807 199.467603 
L 133.169113 194.502296 
L 133.413766 196.353118 
L 133.658419 192.511068 
L 134.147725 190.698539 
L 134.392378 186.103397 
L 134.637031 186.665026 
L 134.881684 184.954611 
L 135.126337 180.538169 
L 135.37099 178.878812 
L 135.615643 182.529397 
L 135.860297 180.078655 
L 136.10495 181.94224 
L 136.349603 193.162046 
L 136.594256 195.982953 
L 136.838909 187.532997 
L 137.083562 185.312011 
L 137.572868 189.651868 
L 137.817521 191.311225 
L 138.062174 186.67779 
L 138.306827 171.258534 
L 138.796133 180.627519 
L 139.040786 185.095019 
L 139.285439 177.091812 
L 139.530092 179.61914 
L 139.774745 186.307626 
L 140.264051 172.509434 
L 140.508704 177.781083 
L 140.753357 178.72564 
L 141.242663 187.150068 
L 141.731969 194.949046 
L 141.976622 190.175204 
L 142.221275 189.524225 
L 142.465928 191.017647 
L 142.710581 187.762754 
L 143.199887 175.828148 
L 143.44454 175.138877 
L 143.689193 174.819769 
L 143.933846 180.384997 
L 144.423152 181.240205 
L 144.667805 183.065497 
L 144.912458 174.934648 
L 145.157111 174.985705 
L 145.646417 167.748356 
L 145.89107 169.803406 
L 146.135723 168.258927 
L 146.380376 169.407713 
L 146.625029 167.684534 
L 146.869682 163.612727 
L 147.114335 153.363007 
L 147.358988 161.902313 
L 147.603641 164.123299 
L 147.848294 164.45517 
L 148.092947 167.301606 
L 148.3376 168.169577 
L 148.582253 164.136063 
L 148.826906 165.540134 
L 149.071559 161.749142 
L 149.316212 163.102156 
L 149.560865 167.85047 
L 149.805518 169.509827 
L 150.050171 161.225806 
L 150.294824 160.944992 
L 150.539477 155.979685 
L 150.78413 153.286421 
L 151.028783 159.298399 
L 151.273436 157.575221 
L 151.762742 150.98885 
L 152.007395 158.992056 
L 152.252048 153.707643 
L 152.496701 164.761513 
L 152.741354 162.374592 
L 152.986007 165.399727 
L 153.23066 162.208656 
L 153.475313 165.859242 
L 153.964619 160.383363 
L 154.209272 174.232612 
L 154.698578 180.487112 
L 154.943231 173.39017 
L 155.187884 181.22744 
L 155.432537 177.768319 
L 155.921843 190.902768 
L 156.166496 184.137697 
L 156.411149 188.886011 
L 156.655802 185.120547 
L 156.900455 177.347098 
L 157.389761 170.773491 
L 157.634414 169.803406 
L 157.879067 165.986884 
L 158.12372 169.254541 
L 158.368374 161.200278 
L 158.613027 161.455563 
L 158.85768 161.059871 
L 159.102333 162.642642 
L 159.346986 162.808578 
L 159.591639 165.846477 
L 159.836292 162.336299 
L 160.080945 154.6522 
L 160.325598 164.850863 
L 160.570251 166.357049 
L 161.059557 160.204663 
L 161.30421 147.351029 
L 161.793516 153.835285 
L 162.038169 161.570442 
L 162.282822 160.702471 
L 162.772128 178.049133 
L 163.016781 176.683355 
L 163.261434 173.581634 
L 163.75074 182.018826 
L 163.995393 180.95939 
L 164.484699 183.844119 
L 164.729352 188.860482 
L 164.974005 190.290082 
L 165.218658 190.724068 
L 165.463311 188.669018 
L 165.707964 179.848898 
L 165.952617 178.202305 
L 166.19727 182.057119 
L 166.686576 199.850532 
L 167.175882 181.76354 
L 167.420535 190.328375 
L 167.665188 191.898382 
L 167.909841 186.779904 
L 168.399147 182.337933 
L 168.6438 184.163226 
L 169.133106 174.960177 
L 169.377759 179.644669 
L 169.622412 179.134098 
L 169.867065 175.087819 
L 170.111718 190.379432 
L 170.356371 184.992904 
L 170.601024 186.652261 
L 170.845677 180.474347 
L 171.09033 178.917105 
L 171.334983 179.146862 
L 171.579636 181.572076 
L 171.824289 189.945447 
L 172.068942 191.081468 
L 172.313595 187.92869 
L 172.558248 178.955398 
L 172.802901 183.767533 
L 173.047554 183.882411 
L 173.53686 185.477947 
L 173.781513 181.801833 
L 174.026166 180.818983 
L 174.270819 173.734805 
L 174.515472 174.296434 
L 174.760125 169.063077 
L 175.004778 166.905913 
L 175.249431 170.926663 
L 175.494084 169.229013 
L 175.738737 171.386177 
L 175.98339 169.54812 
L 176.228043 174.117734 
L 176.472696 174.487898 
L 176.717349 170.607555 
L 176.962002 163.051099 
L 177.206655 164.00842 
L 177.451308 158.200671 
L 177.695961 157.728392 
L 177.940614 158.404899 
L 178.185267 155.762692 
L 178.42992 157.256114 
L 178.674573 155.5457 
L 178.919226 157.511399 
L 179.163879 160.434421 
L 179.408532 160.294013 
L 180.142491 147.580786 
L 180.387144 148.538107 
L 180.631798 146.942572 
L 180.876451 144.581179 
L 181.121104 138.875544 
L 181.365757 140.560429 
L 181.61041 138.977658 
L 181.855063 143.062229 
L 182.099716 150.337871 
L 182.344369 146.9681 
L 182.589022 149.035914 
L 183.078328 142.398486 
L 183.322981 140.675308 
L 183.567634 141.249701 
L 183.812287 144.453536 
L 184.05694 139.015951 
L 184.301593 130.655345 
L 184.546246 129.74908 
L 184.790899 127.591916 
L 185.035552 122.294738 
L 185.280205 93.919733 
L 185.524858 94.813233 
L 185.769511 102.216518 
L 186.014164 103.327011 
L 186.50347 111.942903 
L 186.748123 103.62059 
L 186.992776 107.871097 
L 187.237429 108.419961 
L 187.482082 110.500539 
L 187.726735 108.483782 
L 187.971388 104.794904 
L 188.216041 107.118004 
L 188.460694 104.016283 
L 188.705347 102.752618 
L 188.95 103.684411 
L 189.194653 103.186604 
L 189.439306 104.501325 
L 189.683959 103.467418 
L 190.173265 109.632568 
L 190.417918 106.30109 
L 190.907224 108.011504 
L 191.151877 110.117611 
L 191.39653 109.211346 
L 191.641183 96.089662 
L 191.885836 92.707126 
L 192.130489 96.855519 
L 192.375142 93.664448 
L 192.619795 95.247219 
L 192.864448 100.646511 
L 193.353754 102.19099 
L 193.598407 104.820433 
L 193.84306 114.04901 
L 194.332366 103.390833 
L 194.577019 91.430698 
L 194.821672 95.923726 
L 195.066325 108.777361 
L 195.310978 108.866711 
L 195.555631 99.701954 
L 195.800284 105.343768 
L 196.28959 101.616597 
L 196.534243 104.475797 
L 196.778896 112.389653 
L 197.268202 106.747839 
L 197.512855 105.790518 
L 197.757508 107.794511 
L 198.002161 105.356532 
L 198.246814 111.151518 
L 198.491467 123.469052 
L 198.73612 128.153545 
L 198.980773 128.932166 
L 199.470079 113.42356 
L 199.714732 112.772582 
L 200.204038 99.216912 
L 200.693344 106.007511 
L 200.937997 98.961626 
L 201.18265 102.318633 
L 201.427303 90.779719 
L 201.671956 96.408769 
L 201.916609 80.50447 
L 202.161262 78.257956 
L 202.405915 81.104392 
L 202.650568 74.186149 
L 202.895221 79.623735 
L 203.139875 80.644877 
L 203.384528 81.104392 
L 203.629181 67.012621 
L 203.873834 63.489679 
L 204.118487 64.153422 
L 204.36314 71.467357 
L 204.607793 64.306593 
L 204.852446 71.390771 
L 205.097099 73.177771 
L 205.586405 78.742999 
L 205.831058 69.922878 
L 206.075711 71.697114 
L 206.320364 71.14825 
L 206.565017 68.991086 
L 206.80967 70.1654 
L 207.054323 81.015042 
L 207.298976 83.401963 
L 207.543629 87.805641 
L 207.788282 88.418327 
L 208.032935 85.980348 
L 208.277588 92.426312 
L 208.522241 89.579877 
L 208.766894 95.681205 
L 209.011547 90.435084 
L 209.2562 90.320205 
L 209.500853 94.800469 
L 209.745506 102.267576 
L 209.990159 97.302269 
L 210.234812 87.052548 
L 210.479465 84.052941 
L 210.724118 83.580663 
L 210.968771 85.41872 
L 211.213424 88.201334 
L 211.458077 83.223263 
L 211.70273 89.184184 
L 211.947383 89.43947 
L 212.192036 92.043384 
L 212.681342 102.497333 
L 212.925995 101.986761 
L 213.415301 90.460612 
L 213.659954 93.409162 
L 213.904607 101.080497 
L 214.14926 102.72709 
L 214.393913 106.275561 
L 214.638566 107.360525 
L 214.883219 101.973997 
L 215.127872 101.757004 
L 215.372525 91.647691 
L 215.617178 89.605405 
L 215.861831 85.214491 
L 216.106484 90.141505 
L 216.351137 92.605012 
L 216.59579 101.820826 
L 216.840443 101.718711 
L 217.085096 104.87149 
L 217.574402 105.841575 
L 217.819055 105.739461 
L 218.063708 106.30109 
L 218.308361 112.70876 
L 218.797667 102.931318 
L 219.04232 109.019882 
L 219.286973 121.337417 
L 219.531626 112.26201 
L 219.776279 116.499753 
L 220.020932 118.618624 
L 220.265585 118.503746 
L 220.510238 115.453082 
L 220.754891 119.537653 
L 220.999544 117.457074 
L 221.244197 123.239295 
L 221.48885 120.239688 
L 221.733503 122.958481 
L 222.467462 117.929353 
L 222.712115 109.581511 
L 222.956768 110.755825 
L 223.446074 114.482996 
L 223.690727 122.154331 
L 223.93538 123.417995 
L 224.424686 120.980017 
L 224.669339 123.583931 
L 224.913992 113.768196 
L 225.158645 109.147525 
L 225.403298 111.547211 
L 225.647952 106.326618 
L 225.892605 110.385661 
L 226.137258 117.865531 
L 226.381911 120.801317 
L 226.626564 118.388867 
L 226.871217 114.291532 
L 227.11587 117.023089 
L 227.360523 113.615025 
L 227.605176 116.882681 
L 227.849829 123.149945 
L 228.094482 122.80531 
L 228.583788 104.169454 
L 228.828441 108.866711 
L 229.073094 108.088089 
L 229.317747 109.989968 
L 229.807053 118.937731 
L 230.051706 117.699596 
L 230.296359 112.606646 
L 230.785665 110.679239 
L 231.030318 112.070546 
L 231.519624 101.629361 
L 231.764277 103.250426 
L 232.00893 103.492947 
L 232.253583 127.387688 
L 232.742889 123.022302 
L 232.987542 134.459101 
L 233.232195 140.445551 
L 233.476848 135.875937 
L 233.721501 135.990816 
L 233.966154 139.437172 
L 234.45546 141.556044 
L 234.700113 140.164737 
L 234.944766 136.705616 
L 235.189419 138.824487 
L 235.678725 133.476251 
L 236.168031 122.89466 
L 236.412684 127.502566 
L 236.657337 125.894266 
L 236.90199 127.400452 
L 237.146643 131.063802 
L 237.391296 125.753859 
L 237.635949 123.456288 
L 238.125255 122.230917 
L 238.369908 120.226924 
L 238.614561 123.724338 
L 238.859214 124.477431 
L 239.34852 119.103667 
L 239.593173 118.044231 
L 239.837826 120.431153 
L 240.082479 121.362945 
L 240.327132 115.606253 
L 240.571785 114.087303 
L 240.816438 113.87031 
L 241.061091 115.440317 
L 241.305744 112.453475 
L 241.550397 114.572346 
L 241.79505 118.108053 
L 242.284356 127.106873 
L 242.529009 128.919402 
L 242.773662 129.39168 
L 243.018315 131.53608 
L 243.262968 141.747508 
L 243.507621 143.649386 
L 243.752274 147.427615 
L 243.996927 143.611093 
L 244.24158 143.381336 
L 244.486233 136.335451 
L 244.730886 138.875544 
L 244.975539 144.874758 
L 245.220192 140.381729 
L 245.464845 129.736316 
L 245.709498 128.242895 
L 246.443457 118.005939 
L 246.68811 119.76741 
L 246.932763 130.706402 
L 247.177416 168.552506 
L 247.422069 166.025177 
L 247.666722 160.332306 
L 247.911375 162.642642 
L 248.156029 167.13567 
L 248.400682 165.629484 
L 248.889988 160.345071 
L 249.134641 158.277257 
L 249.379294 157.294407 
L 249.8686 177.755555 
L 250.113253 177.666205 
L 250.602559 169.318363 
L 250.847212 171.003248 
L 251.091865 175.113348 
L 251.581171 187.852104 
L 251.825824 202.952253 
L 252.070477 208.172845 
L 252.31513 201.267367 
L 252.559783 188.937068 
L 252.804436 188.847718 
L 253.293742 199.773946 
L 253.538395 193.927903 
L 253.783048 192.740825 
L 254.027701 196.672225 
L 254.517007 191.426104 
L 255.250966 202.709731 
L 255.495619 202.543796 
L 255.740272 191.119761 
L 256.718884 209.283338 
L 256.963537 214.069945 
L 257.20819 213.78913 
L 257.452843 211.555381 
L 257.697496 213.189209 
L 257.942149 208.568538 
L 258.186802 207.636745 
L 258.431455 207.483574 
L 258.676108 193.468389 
L 258.920761 192.051554 
L 259.165414 191.821797 
L 259.65472 202.722496 
L 259.899373 198.944267 
L 260.144026 199.135732 
L 260.388679 196.03401 
L 260.633332 197.923125 
L 260.877985 191.260168 
L 261.122638 190.290082 
L 261.367291 185.592826 
L 261.611944 187.469175 
L 261.856597 192.038789 
L 262.345903 181.865655 
L 262.835209 161.110928 
L 263.079862 162.795813 
L 263.324515 167.327134 
L 263.569168 143.738736 
L 263.813821 133.884709 
L 264.058474 137.318301 
L 264.303127 130.400059 
L 264.792433 127.362159 
L 265.037086 135.390894 
L 265.526392 128.396066 
L 265.771045 130.119245 
L 266.015698 135.46748 
L 266.260351 129.378916 
L 266.505004 131.791366 
L 266.749657 121.707581 
L 266.99431 117.788946 
L 267.238963 119.205781 
L 267.483616 118.222931 
L 267.728269 120.941724 
L 267.972922 125.447516 
L 268.217575 120.622617 
L 268.462228 104.807668 
L 269.196187 118.197403 
L 269.44084 117.150731 
L 269.685493 116.844389 
L 270.174799 127.157931 
L 270.419452 127.732323 
L 270.664106 135.812116 
L 270.908759 135.544066 
L 271.153412 128.85558 
L 271.398065 128.58753 
L 271.642718 131.650959 
L 271.887371 138.05863 
L 272.132024 131.012745 
L 272.62133 132.174294 
L 272.865983 135.493008 
L 273.110636 136.935373 
L 273.355289 134.535687 
L 273.844595 141.734744 
L 274.089248 148.12965 
L 274.333901 143.866379 
L 274.578554 146.112893 
L 274.823207 160.459949 
L 275.06786 164.327527 
L 275.312513 165.565663 
L 275.557166 162.323535 
L 275.801819 171.092598 
L 276.046472 163.191506 
L 276.291125 173.798627 
L 276.535778 171.105363 
L 276.780431 172.432848 
L 277.025084 166.59957 
L 277.269737 164.54452 
L 277.51439 169.177956 
L 277.759043 169.765113 
L 278.003696 181.010447 
L 278.248349 182.708097 
L 278.493002 174.628305 
L 278.737655 177.398155 
L 278.982308 185.414126 
L 279.226961 187.635111 
L 279.471614 188.260561 
L 279.716267 197.514667 
L 279.96092 197.884832 
L 280.205573 203.462824 
L 280.450226 199.505896 
L 280.694879 202.786317 
L 280.939532 188.081861 
L 281.428838 174.296434 
L 281.673491 177.908726 
L 282.162797 167.735591 
L 282.40745 177.500269 
L 282.652103 175.292048 
L 282.896756 181.074269 
L 283.141409 161.187513 
L 283.386062 160.817349 
L 283.630715 161.672556 
L 283.875368 153.018371 
L 284.120021 157.179528 
L 284.364674 156.720014 
L 284.609327 155.124478 
L 284.85398 156.847657 
L 285.098633 162.451178 
L 285.343286 157.741157 
L 285.587939 158.277257 
L 285.832592 149.4699 
L 286.077245 150.695271 
L 286.321898 152.992843 
L 286.566551 149.38055 
L 286.811204 148.882743 
L 287.055857 143.164344 
L 287.30051 144.185486 
L 287.545163 142.551658 
L 287.789816 148.372172 
L 288.034469 147.070215 
L 288.279122 146.674522 
L 288.523775 140.713601 
L 288.768428 140.649779 
L 289.013081 139.386115 
L 289.257734 140.088151 
L 289.502387 141.824094 
L 289.74704 148.423229 
L 289.991693 144.568415 
L 290.236346 150.044293 
L 290.970305 143.828086 
L 291.214958 135.429187 
L 291.459611 133.208202 
L 291.704264 136.399273 
L 291.948917 136.756673 
L 292.19357 134.739916 
L 292.682876 137.011958 
L 293.172183 143.011172 
L 293.416836 142.743122 
L 293.661489 143.126051 
L 293.906142 145.589558 
L 294.150795 135.02073 
L 294.395448 154.664964 
L 294.640101 160.472713 
L 294.884754 156.745542 
L 295.37406 161.008813 
L 295.863366 170.875605 
L 296.352672 177.168398 
L 296.597325 179.121333 
L 296.841978 168.641856 
L 297.086631 164.710456 
L 297.575937 167.93982 
L 297.82059 165.97412 
L 298.065243 166.33152 
L 298.309896 158.494249 
L 298.799202 156.247735 
L 299.043855 146.87875 
L 299.288508 155.137243 
L 299.533161 157.702864 
L 299.777814 158.838885 
L 300.022467 161.264099 
L 300.26712 160.140842 
L 300.756426 167.684534 
L 301.001079 167.327134 
L 301.245732 173.339112 
L 301.490385 174.270905 
L 301.735038 177.730026 
L 301.979691 177.487505 
L 302.224344 171.756341 
L 302.468997 175.381398 
L 302.71365 170.467148 
L 302.958303 175.228226 
L 303.202956 175.968555 
L 303.447609 173.798627 
L 303.692262 179.925483 
L 303.936915 182.733626 
L 304.426221 173.173177 
L 304.670874 172.22862 
L 304.915527 172.177562 
L 305.16018 176.415305 
L 305.404833 176.810998 
L 305.649486 174.436841 
L 305.894139 179.057512 
L 306.138792 169.828934 
L 306.383445 172.445612 
L 306.628098 173.492284 
L 306.872751 172.611548 
L 307.117404 175.304812 
L 307.362057 172.688134 
L 307.60671 177.283276 
L 307.851363 177.972548 
L 308.096016 177.015226 
L 308.585322 178.483119 
L 308.829975 173.658219 
L 309.074628 171.78187 
L 309.319281 171.615934 
L 309.563934 179.312798 
L 309.808587 174.679362 
L 310.05324 177.844905 
L 310.297893 175.943026 
L 310.542546 175.534569 
L 310.787199 169.382184 
L 311.276505 171.730813 
L 311.521158 171.615934 
L 311.765811 168.948198 
L 312.010464 168.616327 
L 312.255117 162.272478 
L 312.49977 161.825728 
L 312.744423 162.553292 
L 313.233729 156.426435 
L 313.478382 161.123692 
L 313.723035 161.583206 
L 313.967688 164.136063 
L 314.212341 162.40012 
L 314.456994 161.608735 
L 314.701647 161.378978 
L 314.9463 159.081406 
L 315.190953 164.672163 
L 315.435607 157.677335 
L 315.68026 156.107328 
L 315.924913 141.709215 
L 316.169566 141.594337 
L 316.414219 143.700443 
L 316.658872 150.593157 
L 316.903525 148.002007 
L 317.148178 150.848443 
L 317.392831 150.491043 
L 317.637484 144.976872 
L 317.882137 146.87875 
L 318.12679 147.223386 
L 318.371443 145.142808 
L 318.616096 132.812509 
L 318.860749 133.552837 
L 319.350055 141.964501 
L 319.594708 139.449937 
L 319.839361 143.394101 
L 320.084014 150.427221 
L 320.328667 150.63145 
L 320.57332 148.7551 
L 320.817973 148.065829 
L 321.062626 148.027536 
L 321.551932 153.528943 
L 321.796585 151.371779 
L 322.041238 157.051885 
L 322.285891 159.132464 
L 322.530544 160.153606 
L 322.775197 159.004821 
L 323.01985 159.464335 
L 323.509156 158.124085 
L 323.753809 159.438806 
L 323.998462 157.409285 
L 324.243115 152.175928 
L 324.732421 162.438413 
L 324.977074 159.528156 
L 325.221727 153.796993 
L 325.711033 161.583206 
L 325.955686 167.595184 
L 326.200339 167.863234 
L 326.444992 168.973727 
L 326.689645 164.046713 
L 326.934298 164.863627 
L 327.178951 167.748356 
L 327.423604 174.373019 
L 327.668257 175.036762 
L 327.91291 176.594005 
L 328.402216 170.199098 
L 328.646869 170.875605 
L 328.891522 173.21147 
L 329.136175 171.539348 
L 329.625481 174.168791 
L 329.870134 173.134884 
L 330.35944 167.084613 
L 330.604093 169.931048 
L 330.848746 174.870827 
L 331.093399 176.670591 
L 331.338052 173.288055 
L 331.582705 172.203091 
L 331.827358 166.893149 
L 332.072011 168.909906 
L 332.316664 164.99127 
L 332.561317 167.978113 
L 332.80597 164.174356 
L 333.050623 166.254934 
L 333.295276 171.42447 
L 333.784582 174.092205 
L 334.029235 172.062684 
L 334.518541 175.113348 
L 334.763194 174.181555 
L 335.2525 171.730813 
L 335.497153 170.505441 
L 335.741806 173.173177 
L 336.475765 156.503021 
L 336.720418 157.894328 
L 336.965071 156.898714 
L 337.209724 152.877964 
L 337.454377 154.141628 
L 337.943684 157.766685 
L 338.188337 157.153999 
L 338.677643 158.264492 
L 338.922296 161.647028 
L 339.166949 158.417664 
L 339.411602 158.315549 
L 339.656255 157.600749 
L 339.900908 159.719621 
L 340.145561 160.804585 
L 340.634867 159.566449 
L 340.87952 161.161985 
L 341.124173 161.698085 
L 341.368826 159.438806 
L 341.613479 156.069035 
L 341.858132 155.609521 
L 342.102785 151.359014 
L 342.347438 151.359014 
L 342.592091 148.180707 
L 342.836744 147.77225 
L 343.081397 149.73795 
L 343.32605 148.704043 
L 343.570703 146.9681 
L 343.815356 146.674522 
L 344.304662 145.602322 
L 344.549315 147.351029 
L 344.793968 159.438806 
L 345.038621 162.246949 
L 345.527927 159.234578 
L 346.017233 161.200278 
L 346.261886 161.825728 
L 346.506539 161.264099 
L 346.751192 161.098163 
L 347.240498 162.540528 
L 347.485151 161.889549 
L 347.729804 162.412885 
L 347.974457 163.434028 
L 348.21911 157.651807 
L 348.463763 157.587985 
L 348.708416 158.213435 
L 348.953069 164.250942 
L 349.197722 166.59957 
L 349.442375 166.535749 
L 349.687028 168.258927 
L 350.176334 166.305992 
L 350.420987 165.195499 
L 350.66564 163.02557 
L 350.910293 162.821342 
L 351.154946 159.655799 
L 351.399599 159.400514 
L 351.644252 162.31077 
L 351.888905 161.723613 
L 352.133558 162.923456 
L 352.378211 160.651413 
L 352.622864 162.195892 
L 352.867517 161.430035 
L 353.11217 162.706463 
L 353.356823 161.812963 
L 353.601476 160.332306 
L 353.846129 156.069035 
L 354.090782 155.0096 
L 354.335435 155.7244 
L 354.580088 153.235364 
L 354.824741 144.351422 
L 355.069394 144.759879 
L 355.314047 143.240929 
L 355.5587 152.980078 
L 355.803353 153.197071 
L 356.292659 156.592371 
L 356.537312 157.473107 
L 356.781965 155.788221 
L 357.026618 156.503021 
L 357.271271 149.4699 
L 357.515924 148.716807 
L 357.760577 144.849229 
L 358.00523 144.555651 
L 358.249883 145.436386 
L 358.494536 139.692458 
L 358.983842 150.171936 
L 359.228495 142.092144 
L 359.473148 138.352208 
L 359.717801 138.211801 
L 359.962454 139.705222 
L 360.207107 138.020337 
L 360.451761 140.011565 
L 360.696414 140.662544 
L 360.941067 145.487443 
L 361.18572 144.006786 
L 361.430373 143.572801 
L 361.675026 143.942965 
L 361.919679 145.934193 
L 362.164332 143.662151 
L 362.408985 145.934193 
L 362.653638 151.907878 
L 363.387597 155.571228 
L 363.876903 161.085399 
L 364.121556 157.192292 
L 364.366209 156.017978 
L 364.610862 153.056664 
L 365.100168 155.647814 
L 365.344821 155.239357 
L 365.589474 158.889942 
L 366.07878 153.745935 
L 366.323433 154.728785 
L 366.568086 153.31195 
L 366.812739 148.384936 
L 367.057392 150.98885 
L 367.302045 151.486657 
L 367.791351 147.644607 
L 368.036004 144.645001 
L 368.280657 144.440772 
L 368.52531 142.360194 
L 368.769963 142.768651 
L 369.259269 139.347822 
L 369.503922 138.824487 
L 369.748575 136.45033 
L 369.993228 129.468266 
L 370.237881 131.510552 
L 370.482534 126.251666 
L 370.727187 126.468659 
L 370.97184 102.216518 
L 371.216493 94.111198 
L 371.461146 95.068519 
L 371.705799 99.714719 
L 371.950452 92.783712 
L 372.195105 94.494126 
L 372.439758 93.077291 
L 372.684411 90.154269 
L 372.929064 89.069305 
L 373.173717 98.936097 
L 373.41837 97.761783 
L 373.663023 97.506497 
L 373.907676 95.413155 
L 374.152329 94.379248 
L 374.396982 100.876269 
L 374.641635 101.335783 
L 374.886288 99.050976 
L 375.130941 94.417541 
L 375.375594 95.84714 
L 375.620247 96.013076 
L 375.8649 95.13234 
L 376.109553 102.229283 
L 376.354206 101.335783 
L 376.843512 91.941269 
L 377.088165 86.082463 
L 377.332818 95.451448 
L 377.577471 93.319812 
L 377.822124 85.393191 
L 378.066777 90.435084 
L 378.556083 79.751378 
L 378.800736 81.270327 
L 379.045389 80.096013 
L 379.290042 82.802042 
L 379.534695 77.875028 
L 379.779348 79.43227 
L 380.024001 79.291863 
L 380.268654 78.066492 
L 380.513307 75.960385 
L 380.75796 83.72107 
L 381.002613 81.551142 
L 381.247266 76.917706 
L 381.491919 75.054121 
L 381.736572 66.872214 
L 381.981225 65.621314 
L 382.225878 67.75295 
L 382.470531 71.620528 
L 382.715184 69.961171 
L 382.959838 66.872214 
L 383.204491 61.089993 
L 383.449144 48.083187 
L 383.693797 50.750923 
L 383.93845 52.014587 
L 384.183103 47.738552 
L 384.427756 34.795567 
L 384.672409 37.986638 
L 384.917062 39.709817 
L 385.161715 45.389923 
L 385.406368 44.90488 
L 385.651021 43.334873 
L 385.895674 46.053666 
L 386.140327 47.279037 
L 386.38498 50.367994 
L 386.629633 77.492099 
L 386.874286 81.257563 
L 387.118939 71.658821 
L 387.363592 69.756943 
L 387.608245 74.020214 
L 387.852898 74.722249 
L 387.852898 74.722249 
" style="fill:none;stroke:#ff7f0e;stroke-linecap:square;stroke-width:1.5;"/>
   </g>
   <g id="patch_3">
    <path d="M 46.965625 288.430125 
L 46.965625 22.318125 
" style="fill:none;stroke:#000000;stroke-linecap:square;stroke-linejoin:miter;stroke-width:0.8;"/>
   </g>
   <g id="patch_4">
    <path d="M 404.085625 288.430125 
L 404.085625 22.318125 
" style="fill:none;stroke:#000000;stroke-linecap:square;stroke-linejoin:miter;stroke-width:0.8;"/>
   </g>
   <g id="patch_5">
    <path d="M 46.965625 288.430125 
L 404.085625 288.430125 
" style="fill:none;stroke:#000000;stroke-linecap:square;stroke-linejoin:miter;stroke-width:0.8;"/>
   </g>
   <g id="patch_6">
    <path d="M 46.965625 22.318125 
L 404.085625 22.318125 
" style="fill:none;stroke:#000000;stroke-linecap:square;stroke-linejoin:miter;stroke-width:0.8;"/>
   </g>
   <g id="text_19">
    <!-- Training: BIDU -->
    <defs>
     <path d="M -0.296875 72.90625 
L 61.375 72.90625 
L 61.375 64.59375 
L 35.5 64.59375 
L 35.5 0 
L 25.59375 0 
L 25.59375 64.59375 
L -0.296875 64.59375 
z
" id="DejaVuSans-84"/>
     <path d="M 54.890625 33.015625 
L 54.890625 0 
L 45.90625 0 
L 45.90625 32.71875 
Q 45.90625 40.484375 42.875 44.328125 
Q 39.84375 48.1875 33.796875 48.1875 
Q 26.515625 48.1875 22.3125 43.546875 
Q 18.109375 38.921875 18.109375 30.90625 
L 18.109375 0 
L 9.078125 0 
L 9.078125 54.6875 
L 18.109375 54.6875 
L 18.109375 46.1875 
Q 21.34375 51.125 25.703125 53.5625 
Q 30.078125 56 35.796875 56 
Q 45.21875 56 50.046875 50.171875 
Q 54.890625 44.34375 54.890625 33.015625 
z
" id="DejaVuSans-110"/>
     <path d="M 45.40625 27.984375 
Q 45.40625 37.75 41.375 43.109375 
Q 37.359375 48.484375 30.078125 48.484375 
Q 22.859375 48.484375 18.828125 43.109375 
Q 14.796875 37.75 14.796875 27.984375 
Q 14.796875 18.265625 18.828125 12.890625 
Q 22.859375 7.515625 30.078125 7.515625 
Q 37.359375 7.515625 41.375 12.890625 
Q 45.40625 18.265625 45.40625 27.984375 
z
M 54.390625 6.78125 
Q 54.390625 -7.171875 48.1875 -13.984375 
Q 42 -20.796875 29.203125 -20.796875 
Q 24.46875 -20.796875 20.265625 -20.09375 
Q 16.0625 -19.390625 12.109375 -17.921875 
L 12.109375 -9.1875 
Q 16.0625 -11.328125 19.921875 -12.34375 
Q 23.78125 -13.375 27.78125 -13.375 
Q 36.625 -13.375 41.015625 -8.765625 
Q 45.40625 -4.15625 45.40625 5.171875 
L 45.40625 9.625 
Q 42.625 4.78125 38.28125 2.390625 
Q 33.9375 0 27.875 0 
Q 17.828125 0 11.671875 7.65625 
Q 5.515625 15.328125 5.515625 27.984375 
Q 5.515625 40.671875 11.671875 48.328125 
Q 17.828125 56 27.875 56 
Q 33.9375 56 38.28125 53.609375 
Q 42.625 51.21875 45.40625 46.390625 
L 45.40625 54.6875 
L 54.390625 54.6875 
z
" id="DejaVuSans-103"/>
     <path d="M 11.71875 12.40625 
L 22.015625 12.40625 
L 22.015625 0 
L 11.71875 0 
z
M 11.71875 51.703125 
L 22.015625 51.703125 
L 22.015625 39.3125 
L 11.71875 39.3125 
z
" id="DejaVuSans-58"/>
     <path d="M 19.671875 34.8125 
L 19.671875 8.109375 
L 35.5 8.109375 
Q 43.453125 8.109375 47.28125 11.40625 
Q 51.125 14.703125 51.125 21.484375 
Q 51.125 28.328125 47.28125 31.5625 
Q 43.453125 34.8125 35.5 34.8125 
z
M 19.671875 64.796875 
L 19.671875 42.828125 
L 34.28125 42.828125 
Q 41.5 42.828125 45.03125 45.53125 
Q 48.578125 48.25 48.578125 53.8125 
Q 48.578125 59.328125 45.03125 62.0625 
Q 41.5 64.796875 34.28125 64.796875 
z
M 9.8125 72.90625 
L 35.015625 72.90625 
Q 46.296875 72.90625 52.390625 68.21875 
Q 58.5 63.53125 58.5 54.890625 
Q 58.5 48.1875 55.375 44.234375 
Q 52.25 40.28125 46.1875 39.3125 
Q 53.46875 37.75 57.5 32.78125 
Q 61.53125 27.828125 61.53125 20.40625 
Q 61.53125 10.640625 54.890625 5.3125 
Q 48.25 0 35.984375 0 
L 9.8125 0 
z
" id="DejaVuSans-66"/>
     <path d="M 9.8125 72.90625 
L 19.671875 72.90625 
L 19.671875 0 
L 9.8125 0 
z
" id="DejaVuSans-73"/>
     <path d="M 8.6875 72.90625 
L 18.609375 72.90625 
L 18.609375 28.609375 
Q 18.609375 16.890625 22.84375 11.734375 
Q 27.09375 6.59375 36.625 6.59375 
Q 46.09375 6.59375 50.34375 11.734375 
Q 54.59375 16.890625 54.59375 28.609375 
L 54.59375 72.90625 
L 64.5 72.90625 
L 64.5 27.390625 
Q 64.5 13.140625 57.4375 5.859375 
Q 50.390625 -1.421875 36.625 -1.421875 
Q 22.796875 -1.421875 15.734375 5.859375 
Q 8.6875 13.140625 8.6875 27.390625 
z
" id="DejaVuSans-85"/>
    </defs>
    <g transform="translate(183.02875 16.318125)scale(0.12 -0.12)">
     <use xlink:href="#DejaVuSans-84"/>
     <use x="46.333984" xlink:href="#DejaVuSans-114"/>
     <use x="87.447266" xlink:href="#DejaVuSans-97"/>
     <use x="148.726562" xlink:href="#DejaVuSans-105"/>
     <use x="176.509766" xlink:href="#DejaVuSans-110"/>
     <use x="239.888672" xlink:href="#DejaVuSans-105"/>
     <use x="267.671875" xlink:href="#DejaVuSans-110"/>
     <use x="331.050781" xlink:href="#DejaVuSans-103"/>
     <use x="394.527344" xlink:href="#DejaVuSans-58"/>
     <use x="428.21875" xlink:href="#DejaVuSans-32"/>
     <use x="460.005859" xlink:href="#DejaVuSans-66"/>
     <use x="528.609375" xlink:href="#DejaVuSans-73"/>
     <use x="558.101562" xlink:href="#DejaVuSans-68"/>
     <use x="635.103516" xlink:href="#DejaVuSans-85"/>
    </g>
   </g>
   <g id="legend_1">
    <g id="patch_7">
     <path d="M 53.965625 59.674375 
L 137.69375 59.674375 
Q 139.69375 59.674375 139.69375 57.674375 
L 139.69375 29.318125 
Q 139.69375 27.318125 137.69375 27.318125 
L 53.965625 27.318125 
Q 51.965625 27.318125 51.965625 29.318125 
L 51.965625 57.674375 
Q 51.965625 59.674375 53.965625 59.674375 
z
" style="fill:#ffffff;opacity:0.8;stroke:#cccccc;stroke-linejoin:miter;"/>
    </g>
    <g id="line2d_35">
     <path d="M 55.965625 35.416562 
L 75.965625 35.416562 
" style="fill:none;stroke:#1f77b4;stroke-linecap:square;stroke-width:1.5;"/>
    </g>
    <g id="line2d_36"/>
    <g id="text_20">
     <!-- Predicted -->
     <defs>
      <path d="M 45.40625 46.390625 
L 45.40625 75.984375 
L 54.390625 75.984375 
L 54.390625 0 
L 45.40625 0 
L 45.40625 8.203125 
Q 42.578125 3.328125 38.25 0.953125 
Q 33.9375 -1.421875 27.875 -1.421875 
Q 17.96875 -1.421875 11.734375 6.484375 
Q 5.515625 14.40625 5.515625 27.296875 
Q 5.515625 40.1875 11.734375 48.09375 
Q 17.96875 56 27.875 56 
Q 33.9375 56 38.25 53.625 
Q 42.578125 51.265625 45.40625 46.390625 
z
M 14.796875 27.296875 
Q 14.796875 17.390625 18.875 11.75 
Q 22.953125 6.109375 30.078125 6.109375 
Q 37.203125 6.109375 41.296875 11.75 
Q 45.40625 17.390625 45.40625 27.296875 
Q 45.40625 37.203125 41.296875 42.84375 
Q 37.203125 48.484375 30.078125 48.484375 
Q 22.953125 48.484375 18.875 42.84375 
Q 14.796875 37.203125 14.796875 27.296875 
z
" id="DejaVuSans-100"/>
      <path d="M 18.3125 70.21875 
L 18.3125 54.6875 
L 36.8125 54.6875 
L 36.8125 47.703125 
L 18.3125 47.703125 
L 18.3125 18.015625 
Q 18.3125 11.328125 20.140625 9.421875 
Q 21.96875 7.515625 27.59375 7.515625 
L 36.8125 7.515625 
L 36.8125 0 
L 27.59375 0 
Q 17.1875 0 13.234375 3.875 
Q 9.28125 7.765625 9.28125 18.015625 
L 9.28125 47.703125 
L 2.6875 47.703125 
L 2.6875 54.6875 
L 9.28125 54.6875 
L 9.28125 70.21875 
z
" id="DejaVuSans-116"/>
     </defs>
     <g transform="translate(83.965625 38.916562)scale(0.1 -0.1)">
      <use xlink:href="#DejaVuSans-80"/>
      <use x="58.552734" xlink:href="#DejaVuSans-114"/>
      <use x="97.416016" xlink:href="#DejaVuSans-101"/>
      <use x="158.939453" xlink:href="#DejaVuSans-100"/>
      <use x="222.416016" xlink:href="#DejaVuSans-105"/>
      <use x="250.199219" xlink:href="#DejaVuSans-99"/>
      <use x="305.179688" xlink:href="#DejaVuSans-116"/>
      <use x="344.388672" xlink:href="#DejaVuSans-101"/>
      <use x="405.912109" xlink:href="#DejaVuSans-100"/>
     </g>
    </g>
    <g id="line2d_37">
     <path d="M 55.965625 50.094687 
L 75.965625 50.094687 
" style="fill:none;stroke:#ff7f0e;stroke-linecap:square;stroke-width:1.5;"/>
    </g>
    <g id="line2d_38"/>
    <g id="text_21">
     <!-- True value -->
     <defs>
      <path d="M 8.5 21.578125 
L 8.5 54.6875 
L 17.484375 54.6875 
L 17.484375 21.921875 
Q 17.484375 14.15625 20.5 10.265625 
Q 23.53125 6.390625 29.59375 6.390625 
Q 36.859375 6.390625 41.078125 11.03125 
Q 45.3125 15.671875 45.3125 23.6875 
L 45.3125 54.6875 
L 54.296875 54.6875 
L 54.296875 0 
L 45.3125 0 
L 45.3125 8.40625 
Q 42.046875 3.421875 37.71875 1 
Q 33.40625 -1.421875 27.6875 -1.421875 
Q 18.265625 -1.421875 13.375 4.4375 
Q 8.5 10.296875 8.5 21.578125 
z
M 31.109375 56 
z
" id="DejaVuSans-117"/>
      <path d="M 2.984375 54.6875 
L 12.5 54.6875 
L 29.59375 8.796875 
L 46.6875 54.6875 
L 56.203125 54.6875 
L 35.6875 0 
L 23.484375 0 
z
" id="DejaVuSans-118"/>
      <path d="M 9.421875 75.984375 
L 18.40625 75.984375 
L 18.40625 0 
L 9.421875 0 
z
" id="DejaVuSans-108"/>
     </defs>
     <g transform="translate(83.965625 53.594687)scale(0.1 -0.1)">
      <use xlink:href="#DejaVuSans-84"/>
      <use x="46.333984" xlink:href="#DejaVuSans-114"/>
      <use x="87.447266" xlink:href="#DejaVuSans-117"/>
      <use x="150.826172" xlink:href="#DejaVuSans-101"/>
      <use x="212.349609" xlink:href="#DejaVuSans-32"/>
      <use x="244.136719" xlink:href="#DejaVuSans-118"/>
      <use x="303.316406" xlink:href="#DejaVuSans-97"/>
      <use x="364.595703" xlink:href="#DejaVuSans-108"/>
      <use x="392.378906" xlink:href="#DejaVuSans-117"/>
      <use x="455.757812" xlink:href="#DejaVuSans-101"/>
     </g>
    </g>
   </g>
  </g>
 </g>
 <defs>
  <clipPath id="p765228c2cd">
   <rect height="266.112" width="357.12" x="46.965625" y="22.318125"/>
  </clipPath>
 </defs>
</svg>
