<?xml version="1.0" encoding="utf-8" standalone="no"?>
<!DOCTYPE svg PUBLIC "-//W3C//DTD SVG 1.1//EN"
  "http://www.w3.org/Graphics/SVG/1.1/DTD/svg11.dtd">
<!-- Created with matplotlib (https://matplotlib.org/) -->
<svg height="325.986375pt" version="1.1" viewBox="0 0 411.285625 325.986375" width="411.285625pt" xmlns="http://www.w3.org/2000/svg" xmlns:xlink="http://www.w3.org/1999/xlink">
 <defs>
  <style type="text/css">
*{stroke-linecap:butt;stroke-linejoin:round;}
  </style>
 </defs>
 <g id="figure_1">
  <g id="patch_1">
   <path d="M 0 325.986375 
L 411.285625 325.986375 
L 411.285625 0 
L 0 0 
z
" style="fill:#ffffff;"/>
  </g>
  <g id="axes_1">
   <g id="patch_2">
    <path d="M 46.965625 288.430125 
L 404.085625 288.430125 
L 404.085625 22.318125 
L 46.965625 22.318125 
z
" style="fill:#ffffff;"/>
   </g>
   <g id="matplotlib.axis_1">
    <g id="xtick_1">
     <g id="line2d_1">
      <path clip-path="url(#p7ef9a95ac7)" d="M 63.198352 288.430125 
L 63.198352 22.318125 
" style="fill:none;stroke:#b0b0b0;stroke-dasharray:2.96,1.28;stroke-dashoffset:0;stroke-width:0.8;"/>
     </g>
     <g id="line2d_2">
      <defs>
       <path d="M 0 0 
L 0 3.5 
" id="mc70b802d13" style="stroke:#000000;stroke-width:0.8;"/>
      </defs>
      <g>
       <use style="stroke:#000000;stroke-width:0.8;" x="63.198352" xlink:href="#mc70b802d13" y="288.430125"/>
      </g>
     </g>
     <g id="text_1">
      <!-- 0 -->
      <defs>
       <path d="M 31.78125 66.40625 
Q 24.171875 66.40625 20.328125 58.90625 
Q 16.5 51.421875 16.5 36.375 
Q 16.5 21.390625 20.328125 13.890625 
Q 24.171875 6.390625 31.78125 6.390625 
Q 39.453125 6.390625 43.28125 13.890625 
Q 47.125 21.390625 47.125 36.375 
Q 47.125 51.421875 43.28125 58.90625 
Q 39.453125 66.40625 31.78125 66.40625 
z
M 31.78125 74.21875 
Q 44.046875 74.21875 50.515625 64.515625 
Q 56.984375 54.828125 56.984375 36.375 
Q 56.984375 17.96875 50.515625 8.265625 
Q 44.046875 -1.421875 31.78125 -1.421875 
Q 19.53125 -1.421875 13.0625 8.265625 
Q 6.59375 17.96875 6.59375 36.375 
Q 6.59375 54.828125 13.0625 64.515625 
Q 19.53125 74.21875 31.78125 74.21875 
z
" id="DejaVuSans-48"/>
      </defs>
      <g transform="translate(60.017102 303.028562)scale(0.1 -0.1)">
       <use xlink:href="#DejaVuSans-48"/>
      </g>
     </g>
    </g>
    <g id="xtick_2">
     <g id="line2d_3">
      <path clip-path="url(#p7ef9a95ac7)" d="M 112.128954 288.430125 
L 112.128954 22.318125 
" style="fill:none;stroke:#b0b0b0;stroke-dasharray:2.96,1.28;stroke-dashoffset:0;stroke-width:0.8;"/>
     </g>
     <g id="line2d_4">
      <g>
       <use style="stroke:#000000;stroke-width:0.8;" x="112.128954" xlink:href="#mc70b802d13" y="288.430125"/>
      </g>
     </g>
     <g id="text_2">
      <!-- 200 -->
      <defs>
       <path d="M 19.1875 8.296875 
L 53.609375 8.296875 
L 53.609375 0 
L 7.328125 0 
L 7.328125 8.296875 
Q 12.9375 14.109375 22.625 23.890625 
Q 32.328125 33.6875 34.8125 36.53125 
Q 39.546875 41.84375 41.421875 45.53125 
Q 43.3125 49.21875 43.3125 52.78125 
Q 43.3125 58.59375 39.234375 62.25 
Q 35.15625 65.921875 28.609375 65.921875 
Q 23.96875 65.921875 18.8125 64.3125 
Q 13.671875 62.703125 7.8125 59.421875 
L 7.8125 69.390625 
Q 13.765625 71.78125 18.9375 73 
Q 24.125 74.21875 28.421875 74.21875 
Q 39.75 74.21875 46.484375 68.546875 
Q 53.21875 62.890625 53.21875 53.421875 
Q 53.21875 48.921875 51.53125 44.890625 
Q 49.859375 40.875 45.40625 35.40625 
Q 44.1875 33.984375 37.640625 27.21875 
Q 31.109375 20.453125 19.1875 8.296875 
z
" id="DejaVuSans-50"/>
      </defs>
      <g transform="translate(102.585204 303.028562)scale(0.1 -0.1)">
       <use xlink:href="#DejaVuSans-50"/>
       <use x="63.623047" xlink:href="#DejaVuSans-48"/>
       <use x="127.246094" xlink:href="#DejaVuSans-48"/>
      </g>
     </g>
    </g>
    <g id="xtick_3">
     <g id="line2d_5">
      <path clip-path="url(#p7ef9a95ac7)" d="M 161.059557 288.430125 
L 161.059557 22.318125 
" style="fill:none;stroke:#b0b0b0;stroke-dasharray:2.96,1.28;stroke-dashoffset:0;stroke-width:0.8;"/>
     </g>
     <g id="line2d_6">
      <g>
       <use style="stroke:#000000;stroke-width:0.8;" x="161.059557" xlink:href="#mc70b802d13" y="288.430125"/>
      </g>
     </g>
     <g id="text_3">
      <!-- 400 -->
      <defs>
       <path d="M 37.796875 64.3125 
L 12.890625 25.390625 
L 37.796875 25.390625 
z
M 35.203125 72.90625 
L 47.609375 72.90625 
L 47.609375 25.390625 
L 58.015625 25.390625 
L 58.015625 17.1875 
L 47.609375 17.1875 
L 47.609375 0 
L 37.796875 0 
L 37.796875 17.1875 
L 4.890625 17.1875 
L 4.890625 26.703125 
z
" id="DejaVuSans-52"/>
      </defs>
      <g transform="translate(151.515807 303.028562)scale(0.1 -0.1)">
       <use xlink:href="#DejaVuSans-52"/>
       <use x="63.623047" xlink:href="#DejaVuSans-48"/>
       <use x="127.246094" xlink:href="#DejaVuSans-48"/>
      </g>
     </g>
    </g>
    <g id="xtick_4">
     <g id="line2d_7">
      <path clip-path="url(#p7ef9a95ac7)" d="M 209.990159 288.430125 
L 209.990159 22.318125 
" style="fill:none;stroke:#b0b0b0;stroke-dasharray:2.96,1.28;stroke-dashoffset:0;stroke-width:0.8;"/>
     </g>
     <g id="line2d_8">
      <g>
       <use style="stroke:#000000;stroke-width:0.8;" x="209.990159" xlink:href="#mc70b802d13" y="288.430125"/>
      </g>
     </g>
     <g id="text_4">
      <!-- 600 -->
      <defs>
       <path d="M 33.015625 40.375 
Q 26.375 40.375 22.484375 35.828125 
Q 18.609375 31.296875 18.609375 23.390625 
Q 18.609375 15.53125 22.484375 10.953125 
Q 26.375 6.390625 33.015625 6.390625 
Q 39.65625 6.390625 43.53125 10.953125 
Q 47.40625 15.53125 47.40625 23.390625 
Q 47.40625 31.296875 43.53125 35.828125 
Q 39.65625 40.375 33.015625 40.375 
z
M 52.59375 71.296875 
L 52.59375 62.3125 
Q 48.875 64.0625 45.09375 64.984375 
Q 41.3125 65.921875 37.59375 65.921875 
Q 27.828125 65.921875 22.671875 59.328125 
Q 17.53125 52.734375 16.796875 39.40625 
Q 19.671875 43.65625 24.015625 45.921875 
Q 28.375 48.1875 33.59375 48.1875 
Q 44.578125 48.1875 50.953125 41.515625 
Q 57.328125 34.859375 57.328125 23.390625 
Q 57.328125 12.15625 50.6875 5.359375 
Q 44.046875 -1.421875 33.015625 -1.421875 
Q 20.359375 -1.421875 13.671875 8.265625 
Q 6.984375 17.96875 6.984375 36.375 
Q 6.984375 53.65625 15.1875 63.9375 
Q 23.390625 74.21875 37.203125 74.21875 
Q 40.921875 74.21875 44.703125 73.484375 
Q 48.484375 72.75 52.59375 71.296875 
z
" id="DejaVuSans-54"/>
      </defs>
      <g transform="translate(200.446409 303.028562)scale(0.1 -0.1)">
       <use xlink:href="#DejaVuSans-54"/>
       <use x="63.623047" xlink:href="#DejaVuSans-48"/>
       <use x="127.246094" xlink:href="#DejaVuSans-48"/>
      </g>
     </g>
    </g>
    <g id="xtick_5">
     <g id="line2d_9">
      <path clip-path="url(#p7ef9a95ac7)" d="M 258.920761 288.430125 
L 258.920761 22.318125 
" style="fill:none;stroke:#b0b0b0;stroke-dasharray:2.96,1.28;stroke-dashoffset:0;stroke-width:0.8;"/>
     </g>
     <g id="line2d_10">
      <g>
       <use style="stroke:#000000;stroke-width:0.8;" x="258.920761" xlink:href="#mc70b802d13" y="288.430125"/>
      </g>
     </g>
     <g id="text_5">
      <!-- 800 -->
      <defs>
       <path d="M 31.78125 34.625 
Q 24.75 34.625 20.71875 30.859375 
Q 16.703125 27.09375 16.703125 20.515625 
Q 16.703125 13.921875 20.71875 10.15625 
Q 24.75 6.390625 31.78125 6.390625 
Q 38.8125 6.390625 42.859375 10.171875 
Q 46.921875 13.96875 46.921875 20.515625 
Q 46.921875 27.09375 42.890625 30.859375 
Q 38.875 34.625 31.78125 34.625 
z
M 21.921875 38.8125 
Q 15.578125 40.375 12.03125 44.71875 
Q 8.5 49.078125 8.5 55.328125 
Q 8.5 64.0625 14.71875 69.140625 
Q 20.953125 74.21875 31.78125 74.21875 
Q 42.671875 74.21875 48.875 69.140625 
Q 55.078125 64.0625 55.078125 55.328125 
Q 55.078125 49.078125 51.53125 44.71875 
Q 48 40.375 41.703125 38.8125 
Q 48.828125 37.15625 52.796875 32.3125 
Q 56.78125 27.484375 56.78125 20.515625 
Q 56.78125 9.90625 50.3125 4.234375 
Q 43.84375 -1.421875 31.78125 -1.421875 
Q 19.734375 -1.421875 13.25 4.234375 
Q 6.78125 9.90625 6.78125 20.515625 
Q 6.78125 27.484375 10.78125 32.3125 
Q 14.796875 37.15625 21.921875 38.8125 
z
M 18.3125 54.390625 
Q 18.3125 48.734375 21.84375 45.5625 
Q 25.390625 42.390625 31.78125 42.390625 
Q 38.140625 42.390625 41.71875 45.5625 
Q 45.3125 48.734375 45.3125 54.390625 
Q 45.3125 60.0625 41.71875 63.234375 
Q 38.140625 66.40625 31.78125 66.40625 
Q 25.390625 66.40625 21.84375 63.234375 
Q 18.3125 60.0625 18.3125 54.390625 
z
" id="DejaVuSans-56"/>
      </defs>
      <g transform="translate(249.377011 303.028562)scale(0.1 -0.1)">
       <use xlink:href="#DejaVuSans-56"/>
       <use x="63.623047" xlink:href="#DejaVuSans-48"/>
       <use x="127.246094" xlink:href="#DejaVuSans-48"/>
      </g>
     </g>
    </g>
    <g id="xtick_6">
     <g id="line2d_11">
      <path clip-path="url(#p7ef9a95ac7)" d="M 307.851363 288.430125 
L 307.851363 22.318125 
" style="fill:none;stroke:#b0b0b0;stroke-dasharray:2.96,1.28;stroke-dashoffset:0;stroke-width:0.8;"/>
     </g>
     <g id="line2d_12">
      <g>
       <use style="stroke:#000000;stroke-width:0.8;" x="307.851363" xlink:href="#mc70b802d13" y="288.430125"/>
      </g>
     </g>
     <g id="text_6">
      <!-- 1000 -->
      <defs>
       <path d="M 12.40625 8.296875 
L 28.515625 8.296875 
L 28.515625 63.921875 
L 10.984375 60.40625 
L 10.984375 69.390625 
L 28.421875 72.90625 
L 38.28125 72.90625 
L 38.28125 8.296875 
L 54.390625 8.296875 
L 54.390625 0 
L 12.40625 0 
z
" id="DejaVuSans-49"/>
      </defs>
      <g transform="translate(295.126363 303.028562)scale(0.1 -0.1)">
       <use xlink:href="#DejaVuSans-49"/>
       <use x="63.623047" xlink:href="#DejaVuSans-48"/>
       <use x="127.246094" xlink:href="#DejaVuSans-48"/>
       <use x="190.869141" xlink:href="#DejaVuSans-48"/>
      </g>
     </g>
    </g>
    <g id="xtick_7">
     <g id="line2d_13">
      <path clip-path="url(#p7ef9a95ac7)" d="M 356.781965 288.430125 
L 356.781965 22.318125 
" style="fill:none;stroke:#b0b0b0;stroke-dasharray:2.96,1.28;stroke-dashoffset:0;stroke-width:0.8;"/>
     </g>
     <g id="line2d_14">
      <g>
       <use style="stroke:#000000;stroke-width:0.8;" x="356.781965" xlink:href="#mc70b802d13" y="288.430125"/>
      </g>
     </g>
     <g id="text_7">
      <!-- 1200 -->
      <g transform="translate(344.056965 303.028562)scale(0.1 -0.1)">
       <use xlink:href="#DejaVuSans-49"/>
       <use x="63.623047" xlink:href="#DejaVuSans-50"/>
       <use x="127.246094" xlink:href="#DejaVuSans-48"/>
       <use x="190.869141" xlink:href="#DejaVuSans-48"/>
      </g>
     </g>
    </g>
    <g id="text_8">
     <!-- Day -->
     <defs>
      <path d="M 19.671875 64.796875 
L 19.671875 8.109375 
L 31.59375 8.109375 
Q 46.6875 8.109375 53.6875 14.9375 
Q 60.6875 21.78125 60.6875 36.53125 
Q 60.6875 51.171875 53.6875 57.984375 
Q 46.6875 64.796875 31.59375 64.796875 
z
M 9.8125 72.90625 
L 30.078125 72.90625 
Q 51.265625 72.90625 61.171875 64.09375 
Q 71.09375 55.28125 71.09375 36.53125 
Q 71.09375 17.671875 61.125 8.828125 
Q 51.171875 0 30.078125 0 
L 9.8125 0 
z
" id="DejaVuSans-68"/>
      <path d="M 34.28125 27.484375 
Q 23.390625 27.484375 19.1875 25 
Q 14.984375 22.515625 14.984375 16.5 
Q 14.984375 11.71875 18.140625 8.90625 
Q 21.296875 6.109375 26.703125 6.109375 
Q 34.1875 6.109375 38.703125 11.40625 
Q 43.21875 16.703125 43.21875 25.484375 
L 43.21875 27.484375 
z
M 52.203125 31.203125 
L 52.203125 0 
L 43.21875 0 
L 43.21875 8.296875 
Q 40.140625 3.328125 35.546875 0.953125 
Q 30.953125 -1.421875 24.3125 -1.421875 
Q 15.921875 -1.421875 10.953125 3.296875 
Q 6 8.015625 6 15.921875 
Q 6 25.140625 12.171875 29.828125 
Q 18.359375 34.515625 30.609375 34.515625 
L 43.21875 34.515625 
L 43.21875 35.40625 
Q 43.21875 41.609375 39.140625 45 
Q 35.0625 48.390625 27.6875 48.390625 
Q 23 48.390625 18.546875 47.265625 
Q 14.109375 46.140625 10.015625 43.890625 
L 10.015625 52.203125 
Q 14.9375 54.109375 19.578125 55.046875 
Q 24.21875 56 28.609375 56 
Q 40.484375 56 46.34375 49.84375 
Q 52.203125 43.703125 52.203125 31.203125 
z
" id="DejaVuSans-97"/>
      <path d="M 32.171875 -5.078125 
Q 28.375 -14.84375 24.75 -17.8125 
Q 21.140625 -20.796875 15.09375 -20.796875 
L 7.90625 -20.796875 
L 7.90625 -13.28125 
L 13.1875 -13.28125 
Q 16.890625 -13.28125 18.9375 -11.515625 
Q 21 -9.765625 23.484375 -3.21875 
L 25.09375 0.875 
L 2.984375 54.6875 
L 12.5 54.6875 
L 29.59375 11.921875 
L 46.6875 54.6875 
L 56.203125 54.6875 
z
" id="DejaVuSans-121"/>
     </defs>
     <g transform="translate(215.652188 316.706687)scale(0.1 -0.1)">
      <use xlink:href="#DejaVuSans-68"/>
      <use x="77.001953" xlink:href="#DejaVuSans-97"/>
      <use x="138.28125" xlink:href="#DejaVuSans-121"/>
     </g>
    </g>
   </g>
   <g id="matplotlib.axis_2">
    <g id="ytick_1">
     <g id="line2d_15">
      <path clip-path="url(#p7ef9a95ac7)" d="M 46.965625 266.829779 
L 404.085625 266.829779 
" style="fill:none;stroke:#b0b0b0;stroke-dasharray:2.96,1.28;stroke-dashoffset:0;stroke-width:0.8;"/>
     </g>
     <g id="line2d_16">
      <defs>
       <path d="M 0 0 
L -3.5 0 
" id="mc815c5bb95" style="stroke:#000000;stroke-width:0.8;"/>
      </defs>
      <g>
       <use style="stroke:#000000;stroke-width:0.8;" x="46.965625" xlink:href="#mc815c5bb95" y="266.829779"/>
      </g>
     </g>
     <g id="text_9">
      <!-- 50 -->
      <defs>
       <path d="M 10.796875 72.90625 
L 49.515625 72.90625 
L 49.515625 64.59375 
L 19.828125 64.59375 
L 19.828125 46.734375 
Q 21.96875 47.46875 24.109375 47.828125 
Q 26.265625 48.1875 28.421875 48.1875 
Q 40.625 48.1875 47.75 41.5 
Q 54.890625 34.8125 54.890625 23.390625 
Q 54.890625 11.625 47.5625 5.09375 
Q 40.234375 -1.421875 26.90625 -1.421875 
Q 22.3125 -1.421875 17.546875 -0.640625 
Q 12.796875 0.140625 7.71875 1.703125 
L 7.71875 11.625 
Q 12.109375 9.234375 16.796875 8.0625 
Q 21.484375 6.890625 26.703125 6.890625 
Q 35.15625 6.890625 40.078125 11.328125 
Q 45.015625 15.765625 45.015625 23.390625 
Q 45.015625 31 40.078125 35.4375 
Q 35.15625 39.890625 26.703125 39.890625 
Q 22.75 39.890625 18.8125 39.015625 
Q 14.890625 38.140625 10.796875 36.28125 
z
" id="DejaVuSans-53"/>
      </defs>
      <g transform="translate(27.240625 270.628998)scale(0.1 -0.1)">
       <use xlink:href="#DejaVuSans-53"/>
       <use x="63.623047" xlink:href="#DejaVuSans-48"/>
      </g>
     </g>
    </g>
    <g id="ytick_2">
     <g id="line2d_17">
      <path clip-path="url(#p7ef9a95ac7)" d="M 46.965625 234.502071 
L 404.085625 234.502071 
" style="fill:none;stroke:#b0b0b0;stroke-dasharray:2.96,1.28;stroke-dashoffset:0;stroke-width:0.8;"/>
     </g>
     <g id="line2d_18">
      <g>
       <use style="stroke:#000000;stroke-width:0.8;" x="46.965625" xlink:href="#mc815c5bb95" y="234.502071"/>
      </g>
     </g>
     <g id="text_10">
      <!-- 60 -->
      <g transform="translate(27.240625 238.30129)scale(0.1 -0.1)">
       <use xlink:href="#DejaVuSans-54"/>
       <use x="63.623047" xlink:href="#DejaVuSans-48"/>
      </g>
     </g>
    </g>
    <g id="ytick_3">
     <g id="line2d_19">
      <path clip-path="url(#p7ef9a95ac7)" d="M 46.965625 202.174363 
L 404.085625 202.174363 
" style="fill:none;stroke:#b0b0b0;stroke-dasharray:2.96,1.28;stroke-dashoffset:0;stroke-width:0.8;"/>
     </g>
     <g id="line2d_20">
      <g>
       <use style="stroke:#000000;stroke-width:0.8;" x="46.965625" xlink:href="#mc815c5bb95" y="202.174363"/>
      </g>
     </g>
     <g id="text_11">
      <!-- 70 -->
      <defs>
       <path d="M 8.203125 72.90625 
L 55.078125 72.90625 
L 55.078125 68.703125 
L 28.609375 0 
L 18.3125 0 
L 43.21875 64.59375 
L 8.203125 64.59375 
z
" id="DejaVuSans-55"/>
      </defs>
      <g transform="translate(27.240625 205.973582)scale(0.1 -0.1)">
       <use xlink:href="#DejaVuSans-55"/>
       <use x="63.623047" xlink:href="#DejaVuSans-48"/>
      </g>
     </g>
    </g>
    <g id="ytick_4">
     <g id="line2d_21">
      <path clip-path="url(#p7ef9a95ac7)" d="M 46.965625 169.846656 
L 404.085625 169.846656 
" style="fill:none;stroke:#b0b0b0;stroke-dasharray:2.96,1.28;stroke-dashoffset:0;stroke-width:0.8;"/>
     </g>
     <g id="line2d_22">
      <g>
       <use style="stroke:#000000;stroke-width:0.8;" x="46.965625" xlink:href="#mc815c5bb95" y="169.846656"/>
      </g>
     </g>
     <g id="text_12">
      <!-- 80 -->
      <g transform="translate(27.240625 173.645874)scale(0.1 -0.1)">
       <use xlink:href="#DejaVuSans-56"/>
       <use x="63.623047" xlink:href="#DejaVuSans-48"/>
      </g>
     </g>
    </g>
    <g id="ytick_5">
     <g id="line2d_23">
      <path clip-path="url(#p7ef9a95ac7)" d="M 46.965625 137.518948 
L 404.085625 137.518948 
" style="fill:none;stroke:#b0b0b0;stroke-dasharray:2.96,1.28;stroke-dashoffset:0;stroke-width:0.8;"/>
     </g>
     <g id="line2d_24">
      <g>
       <use style="stroke:#000000;stroke-width:0.8;" x="46.965625" xlink:href="#mc815c5bb95" y="137.518948"/>
      </g>
     </g>
     <g id="text_13">
      <!-- 90 -->
      <defs>
       <path d="M 10.984375 1.515625 
L 10.984375 10.5 
Q 14.703125 8.734375 18.5 7.8125 
Q 22.3125 6.890625 25.984375 6.890625 
Q 35.75 6.890625 40.890625 13.453125 
Q 46.046875 20.015625 46.78125 33.40625 
Q 43.953125 29.203125 39.59375 26.953125 
Q 35.25 24.703125 29.984375 24.703125 
Q 19.046875 24.703125 12.671875 31.3125 
Q 6.296875 37.9375 6.296875 49.421875 
Q 6.296875 60.640625 12.9375 67.421875 
Q 19.578125 74.21875 30.609375 74.21875 
Q 43.265625 74.21875 49.921875 64.515625 
Q 56.59375 54.828125 56.59375 36.375 
Q 56.59375 19.140625 48.40625 8.859375 
Q 40.234375 -1.421875 26.421875 -1.421875 
Q 22.703125 -1.421875 18.890625 -0.6875 
Q 15.09375 0.046875 10.984375 1.515625 
z
M 30.609375 32.421875 
Q 37.25 32.421875 41.125 36.953125 
Q 45.015625 41.5 45.015625 49.421875 
Q 45.015625 57.28125 41.125 61.84375 
Q 37.25 66.40625 30.609375 66.40625 
Q 23.96875 66.40625 20.09375 61.84375 
Q 16.21875 57.28125 16.21875 49.421875 
Q 16.21875 41.5 20.09375 36.953125 
Q 23.96875 32.421875 30.609375 32.421875 
z
" id="DejaVuSans-57"/>
      </defs>
      <g transform="translate(27.240625 141.318167)scale(0.1 -0.1)">
       <use xlink:href="#DejaVuSans-57"/>
       <use x="63.623047" xlink:href="#DejaVuSans-48"/>
      </g>
     </g>
    </g>
    <g id="ytick_6">
     <g id="line2d_25">
      <path clip-path="url(#p7ef9a95ac7)" d="M 46.965625 105.19124 
L 404.085625 105.19124 
" style="fill:none;stroke:#b0b0b0;stroke-dasharray:2.96,1.28;stroke-dashoffset:0;stroke-width:0.8;"/>
     </g>
     <g id="line2d_26">
      <g>
       <use style="stroke:#000000;stroke-width:0.8;" x="46.965625" xlink:href="#mc815c5bb95" y="105.19124"/>
      </g>
     </g>
     <g id="text_14">
      <!-- 100 -->
      <g transform="translate(20.878125 108.990459)scale(0.1 -0.1)">
       <use xlink:href="#DejaVuSans-49"/>
       <use x="63.623047" xlink:href="#DejaVuSans-48"/>
       <use x="127.246094" xlink:href="#DejaVuSans-48"/>
      </g>
     </g>
    </g>
    <g id="ytick_7">
     <g id="line2d_27">
      <path clip-path="url(#p7ef9a95ac7)" d="M 46.965625 72.863532 
L 404.085625 72.863532 
" style="fill:none;stroke:#b0b0b0;stroke-dasharray:2.96,1.28;stroke-dashoffset:0;stroke-width:0.8;"/>
     </g>
     <g id="line2d_28">
      <g>
       <use style="stroke:#000000;stroke-width:0.8;" x="46.965625" xlink:href="#mc815c5bb95" y="72.863532"/>
      </g>
     </g>
     <g id="text_15">
      <!-- 110 -->
      <g transform="translate(20.878125 76.662751)scale(0.1 -0.1)">
       <use xlink:href="#DejaVuSans-49"/>
       <use x="63.623047" xlink:href="#DejaVuSans-49"/>
       <use x="127.246094" xlink:href="#DejaVuSans-48"/>
      </g>
     </g>
    </g>
    <g id="ytick_8">
     <g id="line2d_29">
      <path clip-path="url(#p7ef9a95ac7)" d="M 46.965625 40.535825 
L 404.085625 40.535825 
" style="fill:none;stroke:#b0b0b0;stroke-dasharray:2.96,1.28;stroke-dashoffset:0;stroke-width:0.8;"/>
     </g>
     <g id="line2d_30">
      <g>
       <use style="stroke:#000000;stroke-width:0.8;" x="46.965625" xlink:href="#mc815c5bb95" y="40.535825"/>
      </g>
     </g>
     <g id="text_16">
      <!-- 120 -->
      <g transform="translate(20.878125 44.335043)scale(0.1 -0.1)">
       <use xlink:href="#DejaVuSans-49"/>
       <use x="63.623047" xlink:href="#DejaVuSans-50"/>
       <use x="127.246094" xlink:href="#DejaVuSans-48"/>
      </g>
     </g>
    </g>
    <g id="text_17">
     <!-- Price $ -->
     <defs>
      <path d="M 19.671875 64.796875 
L 19.671875 37.40625 
L 32.078125 37.40625 
Q 38.96875 37.40625 42.71875 40.96875 
Q 46.484375 44.53125 46.484375 51.125 
Q 46.484375 57.671875 42.71875 61.234375 
Q 38.96875 64.796875 32.078125 64.796875 
z
M 9.8125 72.90625 
L 32.078125 72.90625 
Q 44.34375 72.90625 50.609375 67.359375 
Q 56.890625 61.8125 56.890625 51.125 
Q 56.890625 40.328125 50.609375 34.8125 
Q 44.34375 29.296875 32.078125 29.296875 
L 19.671875 29.296875 
L 19.671875 0 
L 9.8125 0 
z
" id="DejaVuSans-80"/>
      <path d="M 41.109375 46.296875 
Q 39.59375 47.171875 37.8125 47.578125 
Q 36.03125 48 33.890625 48 
Q 26.265625 48 22.1875 43.046875 
Q 18.109375 38.09375 18.109375 28.8125 
L 18.109375 0 
L 9.078125 0 
L 9.078125 54.6875 
L 18.109375 54.6875 
L 18.109375 46.1875 
Q 20.953125 51.171875 25.484375 53.578125 
Q 30.03125 56 36.53125 56 
Q 37.453125 56 38.578125 55.875 
Q 39.703125 55.765625 41.0625 55.515625 
z
" id="DejaVuSans-114"/>
      <path d="M 9.421875 54.6875 
L 18.40625 54.6875 
L 18.40625 0 
L 9.421875 0 
z
M 9.421875 75.984375 
L 18.40625 75.984375 
L 18.40625 64.59375 
L 9.421875 64.59375 
z
" id="DejaVuSans-105"/>
      <path d="M 48.78125 52.59375 
L 48.78125 44.1875 
Q 44.96875 46.296875 41.140625 47.34375 
Q 37.3125 48.390625 33.40625 48.390625 
Q 24.65625 48.390625 19.8125 42.84375 
Q 14.984375 37.3125 14.984375 27.296875 
Q 14.984375 17.28125 19.8125 11.734375 
Q 24.65625 6.203125 33.40625 6.203125 
Q 37.3125 6.203125 41.140625 7.25 
Q 44.96875 8.296875 48.78125 10.40625 
L 48.78125 2.09375 
Q 45.015625 0.34375 40.984375 -0.53125 
Q 36.96875 -1.421875 32.421875 -1.421875 
Q 20.0625 -1.421875 12.78125 6.34375 
Q 5.515625 14.109375 5.515625 27.296875 
Q 5.515625 40.671875 12.859375 48.328125 
Q 20.21875 56 33.015625 56 
Q 37.15625 56 41.109375 55.140625 
Q 45.0625 54.296875 48.78125 52.59375 
z
" id="DejaVuSans-99"/>
      <path d="M 56.203125 29.59375 
L 56.203125 25.203125 
L 14.890625 25.203125 
Q 15.484375 15.921875 20.484375 11.0625 
Q 25.484375 6.203125 34.421875 6.203125 
Q 39.59375 6.203125 44.453125 7.46875 
Q 49.3125 8.734375 54.109375 11.28125 
L 54.109375 2.78125 
Q 49.265625 0.734375 44.1875 -0.34375 
Q 39.109375 -1.421875 33.890625 -1.421875 
Q 20.796875 -1.421875 13.15625 6.1875 
Q 5.515625 13.8125 5.515625 26.8125 
Q 5.515625 40.234375 12.765625 48.109375 
Q 20.015625 56 32.328125 56 
Q 43.359375 56 49.78125 48.890625 
Q 56.203125 41.796875 56.203125 29.59375 
z
M 47.21875 32.234375 
Q 47.125 39.59375 43.09375 43.984375 
Q 39.0625 48.390625 32.421875 48.390625 
Q 24.90625 48.390625 20.390625 44.140625 
Q 15.875 39.890625 15.1875 32.171875 
z
" id="DejaVuSans-101"/>
      <path id="DejaVuSans-32"/>
      <path d="M 33.796875 -14.703125 
L 28.90625 -14.703125 
L 28.859375 0 
Q 23.734375 0.09375 18.609375 1.1875 
Q 13.484375 2.296875 8.296875 4.5 
L 8.296875 13.28125 
Q 13.28125 10.15625 18.375 8.5625 
Q 23.484375 6.984375 28.90625 6.9375 
L 28.90625 29.203125 
Q 18.109375 30.953125 13.203125 35.15625 
Q 8.296875 39.359375 8.296875 46.6875 
Q 8.296875 54.640625 13.625 59.21875 
Q 18.953125 63.8125 28.90625 64.5 
L 28.90625 75.984375 
L 33.796875 75.984375 
L 33.796875 64.65625 
Q 38.328125 64.453125 42.578125 63.6875 
Q 46.828125 62.9375 50.875 61.625 
L 50.875 53.078125 
Q 46.828125 55.125 42.546875 56.25 
Q 38.28125 57.375 33.796875 57.5625 
L 33.796875 36.71875 
Q 44.875 35.015625 50.09375 30.609375 
Q 55.328125 26.21875 55.328125 18.609375 
Q 55.328125 10.359375 49.78125 5.59375 
Q 44.234375 0.828125 33.796875 0.09375 
z
M 28.90625 37.59375 
L 28.90625 57.625 
Q 23.25 56.984375 20.265625 54.390625 
Q 17.28125 51.8125 17.28125 47.515625 
Q 17.28125 43.3125 20.03125 40.96875 
Q 22.796875 38.625 28.90625 37.59375 
z
M 33.796875 28.21875 
L 33.796875 7.078125 
Q 39.984375 7.90625 43.140625 10.59375 
Q 46.296875 13.28125 46.296875 17.671875 
Q 46.296875 21.96875 43.28125 24.5 
Q 40.28125 27.046875 33.796875 28.21875 
z
" id="DejaVuSans-36"/>
     </defs>
     <g transform="translate(14.798438 172.342094)rotate(-90)scale(0.1 -0.1)">
      <use xlink:href="#DejaVuSans-80"/>
      <use x="58.552734" xlink:href="#DejaVuSans-114"/>
      <use x="99.666016" xlink:href="#DejaVuSans-105"/>
      <use x="127.449219" xlink:href="#DejaVuSans-99"/>
      <use x="182.429688" xlink:href="#DejaVuSans-101"/>
      <use x="243.953125" xlink:href="#DejaVuSans-32"/>
      <use x="275.740234" xlink:href="#DejaVuSans-36"/>
     </g>
    </g>
   </g>
   <g id="line2d_31">
    <path clip-path="url(#p7ef9a95ac7)" d="M 63.198352 271.718866 
L 63.687658 268.516617 
L 63.932311 267.588754 
L 64.176964 268.177856 
L 64.421617 269.276037 
L 64.66627 269.518374 
L 64.910923 267.884847 
L 65.400229 266.926622 
L 65.644882 265.434223 
L 65.889535 266.258053 
L 66.134188 267.54193 
L 66.378841 267.453127 
L 66.623494 267.791345 
L 66.868147 267.362079 
L 67.357453 265.47228 
L 67.602106 265.368839 
L 67.846759 267.613209 
L 68.091412 267.955238 
L 68.336066 269.292192 
L 68.580719 268.365476 
L 68.825372 267.960183 
L 69.070025 267.891173 
L 69.314678 266.71001 
L 69.559331 268.331945 
L 69.803984 268.404087 
L 70.048637 267.834039 
L 70.537943 260.890298 
L 70.782596 260.969654 
L 71.027249 261.713338 
L 71.271902 261.664664 
L 71.516555 261.222905 
L 71.761208 258.449861 
L 72.495167 260.540623 
L 72.73982 258.114182 
L 72.984473 258.111358 
L 73.229126 257.869169 
L 73.473779 257.311551 
L 73.718432 258.451057 
L 73.963085 260.334973 
L 74.207738 258.444348 
L 74.941697 261.288425 
L 75.18635 258.80654 
L 75.431003 258.164608 
L 75.675656 257.084679 
L 76.654268 265.291665 
L 77.143574 264.05285 
L 77.388227 262.639499 
L 77.63288 259.364701 
L 77.877533 258.749948 
L 78.122186 260.32639 
L 78.366839 260.762291 
L 78.611492 263.899969 
L 78.856145 264.408173 
L 79.100798 265.610461 
L 79.345451 266.229406 
L 79.590104 269.132825 
L 79.834757 267.412258 
L 80.07941 266.990885 
L 80.324063 265.577522 
L 80.568716 265.021544 
L 80.813369 266.157103 
L 81.058022 266.377896 
L 81.302675 275.206491 
L 81.547328 274.832608 
L 81.791981 273.261432 
L 82.036634 275.334263 
L 82.281287 274.733915 
L 82.52594 274.794539 
L 83.504552 269.015202 
L 83.749205 269.568775 
L 83.993858 270.932637 
L 84.483164 267.577027 
L 84.727817 267.645309 
L 84.97247 268.804028 
L 85.217123 268.873679 
L 85.461776 268.00374 
L 85.706429 269.540559 
L 86.685041 267.82992 
L 87.174347 270.826791 
L 87.419 269.094225 
L 87.663653 266.111339 
L 87.908306 266.750262 
L 88.152959 263.810981 
L 88.397612 266.483199 
L 88.642265 266.996459 
L 88.886918 267.122036 
L 89.376224 269.29689 
L 89.620877 267.450882 
L 89.86553 263.338356 
L 90.110183 262.738069 
L 90.354836 259.721195 
L 90.599489 263.367842 
L 90.844143 264.156242 
L 91.333449 264.087145 
L 91.578102 264.737882 
L 91.822755 264.749462 
L 92.312061 261.781349 
L 92.556714 258.99707 
L 92.801367 259.092348 
L 93.04602 257.890726 
L 93.290673 254.040835 
L 93.535326 253.925111 
L 93.779979 252.569746 
L 94.024632 252.62434 
L 94.513938 254.426458 
L 94.758591 254.155572 
L 95.003244 251.919637 
L 95.247897 254.059567 
L 95.737203 252.11325 
L 95.981856 252.576664 
L 96.226509 251.63822 
L 96.471162 251.326269 
L 96.715815 250.675704 
L 96.960468 250.624921 
L 97.205121 250.863694 
L 97.449774 248.563546 
L 97.694427 248.134292 
L 97.93908 251.675475 
L 98.183733 253.071697 
L 98.428386 252.848376 
L 98.673039 254.874185 
L 98.917692 253.997747 
L 99.162345 252.172161 
L 99.406998 251.742451 
L 100.140957 245.696026 
L 100.38561 246.027708 
L 100.630263 246.153335 
L 100.874916 242.763331 
L 101.119569 241.863166 
L 101.364222 243.614969 
L 101.608875 242.889944 
L 101.853528 241.576532 
L 102.098181 242.110522 
L 102.587487 246.152731 
L 102.83214 244.18101 
L 103.076793 246.132013 
L 103.321446 244.692124 
L 103.566099 246.451968 
L 103.810752 245.157671 
L 104.055405 245.619838 
L 104.300058 244.584946 
L 104.544711 244.901448 
L 104.789364 242.489177 
L 105.034017 243.088613 
L 105.27867 242.026701 
L 105.523323 241.663128 
L 105.767976 238.103755 
L 106.012629 237.044544 
L 106.257282 233.930777 
L 106.501935 232.523358 
L 106.746588 232.514886 
L 106.991241 237.895627 
L 107.235894 231.771572 
L 107.480547 232.09292 
L 107.7252 234.301355 
L 107.969853 229.227349 
L 108.459159 225.923521 
L 108.703812 228.096735 
L 108.948465 227.788606 
L 109.193118 228.211176 
L 109.437771 224.507001 
L 109.682424 225.136132 
L 109.927077 223.887907 
L 110.905689 214.597909 
L 111.150342 214.981263 
L 111.639648 210.973744 
L 112.128954 210.116001 
L 112.373607 209.454066 
L 112.61826 213.478973 
L 112.862913 212.87865 
L 113.35222 215.345872 
L 113.841526 217.274702 
L 114.086179 216.415726 
L 114.330832 212.553454 
L 114.575485 213.981332 
L 115.064791 224.040159 
L 115.554097 220.007236 
L 115.79875 223.880188 
L 116.043403 223.930712 
L 116.288056 218.565053 
L 116.532709 221.616173 
L 116.777362 221.793606 
L 117.022015 224.346178 
L 117.266668 220.256762 
L 117.511321 221.745289 
L 118.000627 217.070483 
L 118.24528 220.084755 
L 118.489933 227.524947 
L 118.734586 225.240362 
L 118.979239 226.087537 
L 119.223892 225.725554 
L 119.713198 222.123242 
L 119.957851 223.884787 
L 120.202504 221.461381 
L 120.447157 223.522287 
L 120.936463 221.762135 
L 121.181116 218.920709 
L 121.425769 218.183401 
L 121.670422 218.280405 
L 121.915075 212.898159 
L 122.159728 211.637578 
L 122.649034 217.886273 
L 123.13834 215.291019 
L 123.627646 219.910898 
L 123.872299 219.72905 
L 124.116952 219.114593 
L 124.361605 219.406468 
L 124.606258 218.050412 
L 125.095564 220.577519 
L 125.340217 219.086526 
L 125.58487 216.806701 
L 125.829523 213.120259 
L 126.074176 214.715902 
L 126.318829 211.363535 
L 126.563482 215.083915 
L 126.808135 215.491908 
L 127.297441 221.300867 
L 127.542094 221.180309 
L 127.786747 221.263698 
L 128.0314 226.244622 
L 128.520706 228.066521 
L 128.765359 227.935284 
L 129.010012 230.216724 
L 129.254665 228.796171 
L 129.499318 228.439134 
L 129.743971 229.592254 
L 129.988624 231.689157 
L 130.233277 231.41382 
L 130.47793 230.555423 
L 130.722583 231.287798 
L 130.967236 231.042255 
L 131.945848 228.965268 
L 132.92446 212.605076 
L 133.169113 211.827146 
L 133.413766 211.67154 
L 133.658419 211.203983 
L 133.903072 215.80751 
L 134.147725 217.936908 
L 134.392378 218.768828 
L 134.637031 220.185853 
L 134.881684 219.785925 
L 135.126337 217.270706 
L 135.37099 217.44994 
L 135.615643 219.683199 
L 135.860297 218.550945 
L 136.10495 218.370453 
L 136.349603 221.105355 
L 136.594256 217.02118 
L 137.083562 221.151477 
L 137.328215 222.472251 
L 137.572868 216.14563 
L 138.062174 212.110216 
L 138.306827 213.410407 
L 138.55148 213.629153 
L 138.796133 213.374028 
L 139.285439 209.564537 
L 139.530092 205.050097 
L 139.774745 208.072631 
L 140.019398 204.84684 
L 140.264051 204.273302 
L 140.508704 205.103741 
L 140.753357 205.339752 
L 140.99801 206.803319 
L 141.242663 206.350659 
L 141.487316 205.00913 
L 141.731969 205.70991 
L 141.976622 205.554132 
L 142.221275 205.062034 
L 142.465928 211.067689 
L 142.710581 206.302169 
L 142.955234 207.171085 
L 143.199887 208.97731 
L 143.689193 201.754038 
L 143.933846 201.852497 
L 144.423152 204.633792 
L 144.667805 204.224393 
L 144.912458 201.938106 
L 145.157111 201.15988 
L 145.401764 202.680248 
L 145.646417 197.945978 
L 145.89107 199.389468 
L 146.135723 200.058062 
L 146.380376 198.840717 
L 146.625029 202.146246 
L 146.869682 201.822382 
L 147.114335 201.015127 
L 147.358988 197.036859 
L 147.603641 198.277068 
L 147.848294 196.723724 
L 148.3376 202.919909 
L 148.582253 202.912214 
L 148.826906 200.064302 
L 149.071559 199.641584 
L 149.316212 194.687556 
L 149.560865 192.255431 
L 149.805518 194.127435 
L 150.294824 189.331331 
L 150.539477 186.808442 
L 150.78413 187.81592 
L 151.028783 181.462822 
L 151.273436 181.213247 
L 151.762742 182.080608 
L 152.007395 182.982179 
L 152.252048 181.195316 
L 152.496701 185.069057 
L 152.741354 185.909732 
L 152.986007 184.295714 
L 153.23066 191.325891 
L 153.475313 187.245687 
L 153.719966 187.947701 
L 153.964619 188.125923 
L 154.209272 188.911499 
L 154.453925 188.157567 
L 154.698578 184.57691 
L 154.943231 186.306133 
L 155.187884 192.938182 
L 155.432537 194.322996 
L 155.67719 192.316302 
L 155.921843 197.254298 
L 156.166496 191.371741 
L 156.411149 193.272331 
L 156.655802 201.53438 
L 157.145108 196.000203 
L 157.389761 183.948247 
L 157.634414 183.52696 
L 157.879067 178.996291 
L 158.12372 176.675795 
L 158.368374 176.206413 
L 158.613027 176.203947 
L 158.85768 171.721471 
L 159.102333 170.812871 
L 159.346986 173.230494 
L 159.591639 171.978249 
L 160.080945 167.074635 
L 160.325598 168.935786 
L 160.570251 169.199125 
L 161.059557 166.791318 
L 161.30421 171.367073 
L 161.548863 163.606051 
L 162.038169 158.642182 
L 162.282822 162.543423 
L 162.527475 162.983011 
L 162.772128 166.03016 
L 163.016781 164.785857 
L 163.261434 169.710461 
L 163.506087 169.063916 
L 163.75074 164.858468 
L 163.995393 163.001509 
L 164.240046 167.849605 
L 164.484699 166.722283 
L 164.729352 168.222772 
L 164.974005 170.935846 
L 165.218658 170.744453 
L 165.463311 173.744049 
L 165.707964 174.177101 
L 165.952617 172.594777 
L 166.441923 164.373375 
L 166.686576 164.070673 
L 166.931229 163.955442 
L 167.420535 172.049676 
L 167.665188 170.576663 
L 167.909841 167.763724 
L 168.154494 177.368708 
L 168.399147 178.85573 
L 168.6438 176.966264 
L 168.888453 176.807156 
L 169.377759 169.493121 
L 169.622412 172.271554 
L 169.867065 171.128522 
L 170.356371 170.615756 
L 170.601024 175.028876 
L 170.845677 176.405057 
L 171.334983 171.469774 
L 171.579636 170.81662 
L 172.068942 165.466684 
L 172.313595 166.101489 
L 172.558248 168.457254 
L 172.802901 164.075112 
L 173.047554 163.067338 
L 173.292207 161.532048 
L 173.53686 162.727861 
L 174.026166 168.806769 
L 174.270819 167.975762 
L 174.515472 165.906593 
L 174.760125 165.868438 
L 175.004778 162.298755 
L 175.249431 161.847107 
L 175.494084 158.618258 
L 175.738737 157.317844 
L 175.98339 157.753485 
L 176.228043 156.281632 
L 176.472696 156.390376 
L 176.717349 155.504368 
L 176.962002 156.848215 
L 177.451308 153.879744 
L 177.695961 154.499183 
L 177.940614 151.592077 
L 178.185267 154.113042 
L 178.42992 155.392294 
L 178.674573 160.308685 
L 178.919226 160.125258 
L 179.163879 158.588044 
L 179.408532 159.098443 
L 179.653185 157.767544 
L 179.897838 157.17203 
L 180.142491 160.206329 
L 180.387144 160.326714 
L 180.631798 160.585416 
L 180.876451 156.665059 
L 181.121104 154.970144 
L 181.365757 152.225598 
L 181.61041 150.833064 
L 181.855063 148.411594 
L 182.099716 148.544977 
L 182.344369 147.16628 
L 182.589022 148.039018 
L 182.833675 150.380429 
L 183.078328 145.828648 
L 183.322981 147.228408 
L 183.567634 147.03625 
L 183.812287 147.499664 
L 184.546246 152.957036 
L 184.790899 150.443076 
L 185.035552 150.748195 
L 185.280205 149.224127 
L 185.524858 149.801242 
L 185.769511 147.281214 
L 186.014164 149.170582 
L 186.258817 146.104787 
L 186.50347 149.276366 
L 186.748123 145.873635 
L 186.992776 150.318941 
L 187.237429 151.769855 
L 187.482082 145.815995 
L 187.726735 147.501958 
L 187.971388 147.973461 
L 188.216041 151.479485 
L 188.460694 147.031071 
L 188.705347 145.045933 
L 188.95 146.000778 
L 189.194653 144.722611 
L 189.683959 139.293751 
L 189.928612 137.06868 
L 190.173265 136.709769 
L 190.417918 137.478943 
L 190.662571 135.635648 
L 190.907224 135.354058 
L 191.151877 135.716645 
L 191.39653 136.89396 
L 191.641183 135.684483 
L 191.885836 136.205339 
L 192.130489 137.321191 
L 192.375142 134.290123 
L 192.619795 133.924626 
L 192.864448 136.506981 
L 193.109101 133.807916 
L 193.353754 135.113904 
L 193.598407 138.157254 
L 193.84306 138.364408 
L 194.087713 136.920819 
L 194.332366 137.933798 
L 194.577019 136.615749 
L 194.821672 136.031654 
L 195.066325 135.812563 
L 195.310978 135.777146 
L 195.555631 135.274418 
L 196.044937 142.204014 
L 196.28959 138.562041 
L 196.534243 143.033936 
L 196.778896 140.883351 
L 197.023549 140.670204 
L 197.268202 139.983482 
L 197.512855 144.92392 
L 197.757508 147.083482 
L 198.002161 141.862589 
L 198.246814 141.505897 
L 198.491467 146.142399 
L 198.73612 142.977529 
L 198.980773 150.581885 
L 199.225426 148.765277 
L 199.470079 156.284098 
L 199.714732 155.609289 
L 199.959385 162.096658 
L 200.204038 163.298983 
L 200.937997 145.097481 
L 201.18265 146.413384 
L 201.671956 141.415824 
L 201.916609 141.886661 
L 202.161262 137.045595 
L 202.405915 138.535083 
L 202.650568 136.144295 
L 202.895221 132.453315 
L 203.139875 131.473436 
L 203.384528 136.005066 
L 203.873834 130.403631 
L 204.118487 137.166103 
L 204.36314 137.540208 
L 204.607793 136.922768 
L 204.852446 137.197304 
L 205.097099 135.326163 
L 205.341752 134.368974 
L 205.586405 135.613647 
L 205.831058 135.967256 
L 206.075711 137.426433 
L 206.320364 140.350705 
L 206.565017 140.127594 
L 207.054323 131.620853 
L 207.298976 130.781509 
L 207.543629 128.833195 
L 207.788282 128.181866 
L 208.032935 125.619563 
L 208.277588 126.873411 
L 208.522241 126.3915 
L 208.766894 124.694389 
L 209.011547 124.616302 
L 209.2562 127.434075 
L 209.500853 131.593402 
L 209.745506 131.079328 
L 209.990159 131.989951 
L 210.479465 136.244431 
L 210.968771 128.473716 
L 211.213424 127.573896 
L 211.458077 123.347187 
L 211.70273 121.756625 
L 211.947383 122.560156 
L 212.436689 119.027569 
L 212.925995 123.248112 
L 213.170648 124.65653 
L 213.415301 129.08102 
L 213.659954 130.596701 
L 214.14926 124.628782 
L 214.393913 123.187093 
L 214.638566 122.490012 
L 214.883219 120.071353 
L 215.127872 123.144399 
L 215.372525 122.635111 
L 215.617178 120.005574 
L 216.106484 123.293518 
L 216.351137 120.116094 
L 216.59579 121.5639 
L 216.840443 120.71368 
L 217.329749 128.041206 
L 217.574402 126.265935 
L 217.819055 133.51022 
L 218.063708 130.432167 
L 218.308361 123.6748 
L 218.553014 100.938215 
L 218.797667 96.422517 
L 219.04232 98.121009 
L 219.286973 98.764298 
L 219.531626 97.942367 
L 219.776279 98.274222 
L 220.020932 92.716812 
L 220.265585 91.162704 
L 220.510238 91.334391 
L 220.754891 92.12596 
L 220.999544 91.910741 
L 221.48885 88.400598 
L 221.733503 89.455259 
L 221.978156 86.414005 
L 222.222809 89.769553 
L 222.467462 91.126349 
L 222.712115 85.293491 
L 222.956768 83.941011 
L 223.690727 91.841731 
L 223.93538 87.218128 
L 224.180033 94.25336 
L 224.424686 94.779815 
L 224.669339 81.46491 
L 224.913992 83.621808 
L 225.158645 80.585956 
L 225.403298 81.88267 
L 225.647952 78.476782 
L 225.892605 80.483871 
L 226.137258 77.04772 
L 226.381911 77.818201 
L 226.626564 81.291546 
L 226.871217 87.978127 
L 227.360523 86.500058 
L 227.605176 84.544196 
L 227.849829 88.417221 
L 228.339135 84.864705 
L 228.828441 86.59864 
L 229.073094 83.683567 
L 229.317747 82.368799 
L 229.5624 81.793682 
L 229.807053 83.169124 
L 230.051706 82.666642 
L 230.296359 81.678624 
L 230.541012 78.176521 
L 230.785665 82.635072 
L 231.030318 77.757035 
L 231.274971 79.486159 
L 231.519624 78.589102 
L 231.764277 75.309889 
L 232.253583 71.577892 
L 232.498236 72.295518 
L 232.742889 72.56305 
L 232.987542 76.003837 
L 233.232195 70.300613 
L 233.476848 68.776866 
L 233.721501 69.427628 
L 233.966154 72.840126 
L 234.210807 74.182395 
L 234.45546 71.540946 
L 234.700113 76.322522 
L 234.944766 74.333388 
L 235.189419 74.507739 
L 235.434072 72.159891 
L 235.678725 71.014392 
L 235.923378 70.844629 
L 236.168031 70.092942 
L 236.412684 71.177816 
L 236.657337 70.58097 
L 236.90199 71.008399 
L 237.146643 73.578741 
L 237.391296 70.725452 
L 237.635949 70.22635 
L 237.880602 70.708261 
L 238.125255 68.881269 
L 238.369908 69.477499 
L 238.614561 68.148499 
L 238.859214 70.855975 
L 239.103867 70.841719 
L 239.593173 76.443943 
L 239.837826 71.961838 
L 240.082479 69.991079 
L 240.327132 72.027642 
L 240.571785 71.312334 
L 240.816438 68.518091 
L 241.061091 67.127702 
L 241.305744 61.749699 
L 241.550397 63.533356 
L 242.039703 57.845966 
L 242.284356 59.799608 
L 242.773662 55.972877 
L 243.018315 62.053116 
L 243.507621 55.549321 
L 243.752274 56.015546 
L 243.996927 53.736264 
L 244.24158 49.28965 
L 244.486233 55.145964 
L 244.730886 53.794422 
L 244.975539 51.199612 
L 245.220192 46.202225 
L 245.464845 46.807679 
L 245.709498 45.309953 
L 245.954151 42.851067 
L 246.198804 43.43272 
L 246.443457 41.197192 
L 246.68811 42.005064 
L 246.932763 41.915731 
L 247.177416 43.560578 
L 247.422069 43.219055 
L 247.666722 45.267752 
L 247.911375 44.645749 
L 248.156029 40.436058 
L 248.400682 39.736536 
L 248.645335 39.766724 
L 248.889988 36.286154 
L 249.134641 34.414125 
L 249.379294 68.959159 
L 249.623947 74.990884 
L 249.8686 73.073942 
L 250.113253 68.293401 
L 250.357906 77.194373 
L 250.602559 80.812619 
L 250.847212 79.401981 
L 251.091865 80.193945 
L 251.336518 74.843417 
L 251.581171 80.730142 
L 251.825824 82.610803 
L 252.070477 101.962391 
L 252.31513 106.531215 
L 252.559783 117.094916 
L 252.804436 116.661396 
L 253.293742 97.72959 
L 253.538395 96.140681 
L 253.783048 97.983606 
L 254.027701 105.169856 
L 254.272354 98.188268 
L 254.517007 97.660259 
L 254.76166 100.89155 
L 255.006313 91.748451 
L 255.250966 98.095063 
L 255.495619 95.932146 
L 255.740272 90.131548 
L 256.229578 93.333513 
L 256.474231 91.625501 
L 256.718884 90.833118 
L 256.963537 95.174712 
L 257.20819 93.305988 
L 257.942149 102.155313 
L 258.186802 103.159117 
L 258.431455 108.862144 
L 258.676108 106.074732 
L 258.920761 97.471579 
L 259.65472 91.936046 
L 259.899373 92.064447 
L 260.144026 93.239074 
L 260.633332 86.424191 
L 260.877985 83.933094 
L 261.122638 83.182344 
L 261.367291 85.88057 
L 261.611944 78.847434 
L 261.856597 77.890886 
L 262.10125 73.873379 
L 262.590556 71.821524 
L 262.835209 61.668603 
L 263.079862 62.363465 
L 263.324515 60.763999 
L 263.569168 59.953438 
L 264.058474 55.882829 
L 264.303127 60.086723 
L 264.54778 55.75904 
L 264.792433 54.28282 
L 265.037086 61.541435 
L 265.281739 62.154363 
L 265.526392 53.79568 
L 266.015698 48.310338 
L 266.260351 51.00082 
L 266.505004 51.782474 
L 266.749657 56.077305 
L 266.99431 52.74092 
L 267.238963 52.184104 
L 267.483616 45.989226 
L 267.728269 44.147337 
L 267.972922 39.795581 
L 268.217575 41.67385 
L 268.462228 46.126432 
L 268.706881 43.912954 
L 268.951534 54.967076 
L 269.196187 60.19194 
L 269.44084 54.545024 
L 269.685493 58.666417 
L 269.930146 65.281916 
L 270.174799 58.408406 
L 270.419452 59.239709 
L 270.908759 66.623618 
L 271.153412 68.820102 
L 271.398065 77.17802 
L 271.642718 73.709017 
L 272.132024 59.91368 
L 272.376677 65.142515 
L 272.62133 78.35065 
L 272.865983 82.041728 
L 273.110636 81.839236 
L 273.355289 85.587264 
L 273.599942 85.068455 
L 273.844595 80.923385 
L 274.089248 81.184824 
L 274.333901 83.453723 
L 274.578554 87.349661 
L 275.06786 100.42752 
L 275.801819 106.207376 
L 276.046472 104.361836 
L 276.291125 99.663131 
L 276.535778 108.398903 
L 276.780431 106.939874 
L 277.025084 122.621027 
L 277.269737 123.103186 
L 277.51439 127.519092 
L 277.759043 123.499118 
L 278.003696 114.831197 
L 278.248349 119.1024 
L 278.493002 116.485368 
L 278.737655 122.306708 
L 278.982308 124.833914 
L 279.226961 118.006279 
L 279.471614 119.861215 
L 279.716267 126.290254 
L 279.96092 120.241782 
L 280.205573 119.176146 
L 280.694879 129.654238 
L 280.939532 129.06997 
L 281.184185 139.869805 
L 281.918144 127.516453 
L 282.162797 119.404313 
L 282.40745 120.214997 
L 282.652103 120.597857 
L 282.896756 116.160394 
L 283.141409 119.354664 
L 283.386062 119.104472 
L 283.630715 118.483874 
L 283.875368 119.60461 
L 284.120021 118.946128 
L 284.364674 112.110699 
L 284.609327 114.362111 
L 284.85398 108.291663 
L 285.098633 109.563467 
L 285.343286 106.378125 
L 285.587939 111.654833 
L 285.832592 111.86248 
L 286.077245 113.963909 
L 286.566551 108.354976 
L 286.811204 110.225624 
L 287.055857 109.487945 
L 287.30051 105.728769 
L 287.545163 107.055056 
L 288.279122 114.48516 
L 288.523775 113.26742 
L 288.768428 110.580046 
L 289.013081 110.39472 
L 289.257734 107.99128 
L 289.502387 106.693159 
L 289.74704 107.399489 
L 289.991693 108.606969 
L 290.236346 113.951207 
L 290.480999 112.355959 
L 290.725652 116.65222 
L 290.970305 115.829797 
L 291.214958 116.400228 
L 291.459611 112.982871 
L 291.704264 106.286054 
L 291.948917 108.907846 
L 292.19357 108.92484 
L 292.438223 99.685896 
L 292.92753 93.94025 
L 293.172183 95.098228 
L 293.661489 89.641769 
L 294.150795 87.426071 
L 294.640101 93.809727 
L 294.884754 90.218711 
L 295.129407 92.24156 
L 295.37406 92.528354 
L 295.618713 88.491288 
L 295.863366 86.54359 
L 296.108019 87.154026 
L 296.352672 83.046445 
L 296.597325 96.912346 
L 296.841978 98.336697 
L 297.086631 102.257867 
L 297.331284 102.810342 
L 297.575937 104.320697 
L 298.065243 109.16635 
L 298.309896 105.005643 
L 298.554549 106.718687 
L 299.043855 104.677438 
L 299.288508 104.760975 
L 299.533161 103.294745 
L 300.022467 108.85985 
L 300.26712 108.316525 
L 300.756426 108.226501 
L 301.245732 110.590578 
L 301.490385 111.232954 
L 301.735038 112.813305 
L 301.979691 112.132108 
L 302.224344 109.552837 
L 302.468997 109.935278 
L 302.71365 109.583346 
L 303.202956 105.776445 
L 303.447609 108.149968 
L 303.692262 108.207806 
L 303.936915 107.48833 
L 304.181568 118.005933 
L 304.426221 122.150338 
L 304.915527 114.132365 
L 305.16018 111.549222 
L 305.404833 110.880233 
L 305.649486 111.934943 
L 305.894139 109.358681 
L 306.138792 109.471396 
L 306.383445 105.600442 
L 306.872751 103.765039 
L 307.117404 104.79844 
L 307.362057 104.447075 
L 307.60671 105.020737 
L 307.851363 103.892676 
L 308.096016 106.130621 
L 308.340669 110.078922 
L 308.585322 110.698952 
L 309.074628 112.718028 
L 309.319281 114.965222 
L 309.808587 117.430052 
L 310.05324 117.324736 
L 310.542546 120.308153 
L 310.787199 116.987183 
L 311.031852 119.851645 
L 311.276505 117.790246 
L 311.521158 118.060268 
L 312.010464 111.401829 
L 312.255117 111.645609 
L 312.49977 114.578045 
L 312.744423 113.689768 
L 312.989076 114.41726 
L 313.233729 114.467575 
L 313.723035 116.051551 
L 313.967688 117.713121 
L 314.212341 117.387186 
L 314.456994 117.884019 
L 314.9463 119.824416 
L 315.190953 120.892716 
L 315.435607 120.931735 
L 315.68026 122.209754 
L 315.924913 122.854942 
L 316.169566 122.374683 
L 316.414219 124.332517 
L 316.658872 124.635836 
L 316.903525 123.466857 
L 317.148178 128.723686 
L 317.392831 124.933927 
L 317.637484 127.901608 
L 317.882137 129.276828 
L 318.12679 128.615337 
L 318.616096 128.210698 
L 318.860749 127.222334 
L 319.105402 128.980439 
L 319.350055 125.75127 
L 319.594708 126.204324 
L 319.839361 130.340442 
L 320.084014 131.100539 
L 320.328667 129.593638 
L 320.57332 130.891191 
L 320.817973 127.574981 
L 321.062626 128.777577 
L 321.307279 128.405372 
L 321.551932 128.867009 
L 321.796585 127.613877 
L 322.041238 128.727879 
L 322.285891 128.706964 
L 322.775197 132.146272 
L 323.01985 133.091276 
L 323.264503 132.535767 
L 323.509156 134.063633 
L 323.753809 132.993187 
L 323.998462 130.599932 
L 324.243115 130.267189 
L 324.487768 127.065989 
L 324.732421 125.980744 
L 324.977074 127.928689 
L 325.46638 123.819381 
L 325.711033 124.386113 
L 325.955686 128.140208 
L 326.200339 128.994893 
L 326.444992 130.558398 
L 326.689645 125.883173 
L 326.934298 128.968576 
L 327.178951 122.525873 
L 327.423604 122.801223 
L 327.91291 120.816504 
L 328.157563 111.951369 
L 328.402216 111.38343 
L 328.646869 111.983877 
L 328.891522 107.249853 
L 329.136175 106.565276 
L 329.380828 110.27547 
L 329.625481 112.099625 
L 329.870134 111.785183 
L 330.35944 108.351597 
L 330.604093 107.901379 
L 330.848746 105.579329 
L 331.093399 107.377736 
L 331.338052 107.827954 
L 331.582705 109.240047 
L 331.827358 104.48274 
L 332.072011 102.370606 
L 332.80597 88.815522 
L 333.050623 91.463754 
L 333.295276 91.900456 
L 333.539929 91.237337 
L 333.784582 90.178188 
L 334.029235 91.839289 
L 334.273888 87.274238 
L 334.763194 86.496753 
L 335.007847 86.928152 
L 335.2525 87.708968 
L 335.497153 87.613641 
L 335.741806 90.409882 
L 335.986459 89.521753 
L 336.231112 90.648532 
L 336.720418 80.476595 
L 336.965071 80.59333 
L 337.209724 75.412319 
L 337.454377 77.365221 
L 337.69903 77.153677 
L 337.943684 73.811792 
L 338.188337 79.982845 
L 338.43299 78.156642 
L 338.677643 78.552821 
L 338.922296 77.926921 
L 339.166949 80.774808 
L 339.411602 79.501426 
L 339.656255 81.209932 
L 339.900908 78.729465 
L 340.145561 78.305786 
L 340.390214 78.186239 
L 340.87952 69.099078 
L 341.124173 69.941159 
L 341.368826 67.805471 
L 341.613479 69.955933 
L 341.858132 70.867739 
L 342.347438 75.045071 
L 342.592091 75.110628 
L 342.836744 73.616749 
L 343.081397 74.338691 
L 343.32605 73.099518 
L 343.570703 70.936355 
L 343.815356 71.32839 
L 344.060009 69.642822 
L 344.304662 71.635434 
L 344.549315 71.764575 
L 344.793968 71.456126 
L 345.038621 72.680352 
L 345.283274 70.885029 
L 345.77258 71.583664 
L 346.017233 68.637909 
L 346.261886 69.988021 
L 346.506539 67.946698 
L 346.751192 69.711068 
L 346.995845 69.08312 
L 347.240498 69.173169 
L 347.485151 68.569367 
L 347.729804 68.929586 
L 348.21911 64.577362 
L 348.463763 65.895953 
L 348.708416 66.364201 
L 348.953069 66.190664 
L 349.197722 63.229199 
L 349.442375 66.224824 
L 349.687028 65.185036 
L 349.931681 64.691088 
L 350.176334 64.970853 
L 350.420987 64.250859 
L 350.66564 62.146495 
L 350.910293 63.721518 
L 351.154946 61.688162 
L 351.399599 61.009036 
L 351.888905 62.063821 
L 352.133558 62.174291 
L 352.378211 62.027885 
L 352.622864 63.498925 
L 352.867517 63.981429 
L 353.11217 62.018957 
L 353.356823 62.083823 
L 353.601476 61.581268 
L 354.090782 58.435907 
L 354.335435 59.820203 
L 354.580088 56.535416 
L 354.824741 57.570493 
L 355.069394 59.850515 
L 355.314047 55.320488 
L 355.803353 53.195948 
L 356.048006 53.911872 
L 356.292659 56.543826 
L 356.537312 57.675809 
L 356.781965 66.2505 
L 357.026618 67.755083 
L 357.271271 65.377958 
L 357.515924 67.090287 
L 357.760577 65.222797 
L 358.00523 72.481116 
L 358.249883 72.856972 
L 358.494536 72.570942 
L 358.739189 74.265464 
L 359.228495 83.129267 
L 359.473148 82.24099 
L 359.717801 79.729594 
L 359.962454 79.345229 
L 360.207107 81.246534 
L 360.451761 79.215002 
L 360.696414 80.468382 
L 360.941067 77.041554 
L 361.18572 77.207469 
L 361.430373 78.430907 
L 361.675026 77.655542 
L 362.408985 86.208281 
L 362.653638 85.001369 
L 362.898291 89.982922 
L 363.387597 81.688662 
L 363.876903 84.326017 
L 364.121556 84.781612 
L 364.366209 86.217235 
L 364.610862 86.717792 
L 364.855515 91.226929 
L 365.100168 88.650667 
L 365.344821 90.46471 
L 365.589474 90.063919 
L 365.834127 86.367192 
L 366.07878 86.756071 
L 366.323433 82.228485 
L 366.568086 85.756731 
L 366.812739 83.991128 
L 367.057392 80.233062 
L 367.546698 93.13995 
L 367.791351 93.259768 
L 368.280657 91.811123 
L 368.52531 90.191926 
L 368.769963 90.409191 
L 369.014616 87.86186 
L 369.259269 88.731664 
L 369.993228 80.559491 
L 370.237881 81.390103 
L 370.482534 81.618789 
L 370.727187 83.45096 
L 370.97184 81.808702 
L 371.216493 72.237188 
L 371.461146 72.387022 
L 371.705799 72.348201 
L 371.950452 70.104115 
L 372.195105 76.243794 
L 372.439758 74.67871 
L 372.929064 83.527394 
L 373.173717 81.632773 
L 373.41837 94.65203 
L 373.663023 99.287201 
L 373.907676 97.530724 
L 374.152329 99.246555 
L 374.396982 99.100839 
L 374.641635 97.038404 
L 375.130941 101.547985 
L 375.375594 100.213387 
L 375.620247 95.289178 
L 375.8649 99.079973 
L 376.109553 99.157369 
L 376.354206 96.45352 
L 376.598859 95.922206 
L 376.843512 95.945316 
L 377.088165 95.033239 
L 377.332818 100.263381 
L 377.577471 99.340722 
L 377.822124 99.090776 
L 378.066777 99.414542 
L 378.31143 113.412593 
L 378.800736 113.447073 
L 379.290042 108.237156 
L 379.534695 110.975535 
L 379.779348 109.083849 
L 380.024001 110.310123 
L 380.268654 109.262614 
L 380.513307 106.86492 
L 381.002613 108.770788 
L 381.247266 105.737303 
L 381.491919 108.708462 
L 381.736572 106.774551 
L 381.981225 110.601184 
L 382.225878 108.904936 
L 382.715184 101.935063 
L 382.959838 102.70404 
L 383.204491 104.02564 
L 383.449144 104.08032 
L 383.693797 105.672116 
L 383.93845 105.646909 
L 384.183103 108.978311 
L 384.427756 114.094925 
L 384.672409 112.689763 
L 384.917062 110.378861 
L 385.161715 109.666217 
L 385.406368 110.031073 
L 385.651021 107.591327 
L 385.895674 106.306106 
L 386.38498 109.766107 
L 386.629633 111.319426 
L 386.874286 108.932239 
L 387.608245 111.402174 
L 387.852898 107.525104 
L 387.852898 107.525104 
" style="fill:none;stroke:#1f77b4;stroke-linecap:square;stroke-width:1.5;"/>
   </g>
   <g id="line2d_32">
    <path clip-path="url(#p7ef9a95ac7)" d="M 63.198352 267.767282 
L 63.443005 267.023745 
L 63.687658 267.476333 
L 63.932311 269.609962 
L 64.176964 270.644448 
L 64.421617 270.127205 
L 64.66627 267.573316 
L 64.910923 267.961249 
L 65.155576 267.444005 
L 65.400229 265.245721 
L 65.889535 267.961249 
L 66.134188 267.282367 
L 66.378841 267.831938 
L 66.623494 267.185384 
L 67.1128 265.342704 
L 67.357453 265.375032 
L 67.602106 267.993576 
L 67.846759 267.928921 
L 68.091412 269.512979 
L 68.336066 268.252198 
L 68.580719 268.025904 
L 68.825372 268.025904 
L 69.070025 266.700468 
L 69.314678 268.704786 
L 69.559331 268.543147 
L 69.803984 267.928921 
L 70.29329 260.816825 
L 70.537943 261.204758 
L 70.782596 261.915967 
L 71.027249 261.786657 
L 71.271902 261.334069 
L 71.516555 258.424575 
L 72.250514 260.687514 
L 72.495167 258.101298 
L 72.73982 258.230609 
L 72.984473 257.971987 
L 73.229126 257.390088 
L 73.473779 258.618541 
L 73.718432 260.558204 
L 73.963085 258.48923 
L 74.697044 261.528035 
L 74.941697 258.844835 
L 75.18635 258.327592 
L 75.431003 257.22845 
L 76.409615 265.730637 
L 76.898921 264.27589 
L 77.143574 262.821143 
L 77.388227 259.426734 
L 77.63288 259.006474 
L 77.877533 260.687514 
L 78.122186 261.043119 
L 78.366839 264.372873 
L 78.611492 264.728478 
L 78.856145 265.989259 
L 79.100798 266.571157 
L 79.345451 269.674617 
L 79.590104 267.540988 
L 79.834757 267.282367 
L 80.07941 265.795292 
L 80.324063 265.310377 
L 80.568716 266.571157 
L 80.813369 266.700468 
L 81.058022 276.334125 
L 81.547328 273.424631 
L 81.791981 275.97852 
L 82.036634 275.008689 
L 82.281287 275.170328 
L 83.259899 269.222029 
L 83.504552 269.965567 
L 83.749205 271.355658 
L 84.238511 267.734955 
L 84.483164 267.928921 
L 84.727817 269.125046 
L 84.97247 269.092718 
L 85.217123 268.155215 
L 85.461776 269.868583 
L 85.706429 269.286685 
L 85.951082 269.092718 
L 86.440388 267.993576 
L 86.929694 271.129364 
L 87.174347 269.157374 
L 87.419 266.118569 
L 87.663653 267.023745 
L 87.908306 263.823302 
L 88.152959 266.829779 
L 88.397612 267.217711 
L 88.642265 267.314695 
L 89.131571 269.577634 
L 89.376224 267.508661 
L 89.620877 263.273731 
L 89.86553 262.918126 
L 90.110183 259.750011 
L 90.354836 263.693991 
L 90.599489 264.372873 
L 91.088796 264.27589 
L 91.333449 264.954772 
L 91.578102 264.922444 
L 92.067408 261.88364 
L 92.312061 259.038801 
L 92.556714 259.265095 
L 92.801367 258.004315 
L 93.04602 254.060334 
L 93.290673 254.060334 
L 93.535326 252.670243 
L 93.779979 252.734898 
L 94.269285 254.577578 
L 94.513938 254.286628 
L 94.758591 251.991361 
L 95.003244 254.221973 
L 95.49255 252.217655 
L 95.737203 252.734898 
L 95.981856 251.765067 
L 96.226509 251.474118 
L 96.471162 250.827564 
L 96.715815 250.795236 
L 96.960468 251.053858 
L 97.205121 248.693935 
L 97.449774 248.306002 
L 97.694427 251.959033 
L 97.93908 253.349125 
L 98.183733 253.090503 
L 98.428386 255.224132 
L 98.673039 254.221973 
L 98.917692 252.346966 
L 99.162345 251.991361 
L 99.896304 245.881424 
L 100.140957 246.269357 
L 100.38561 246.398668 
L 100.630263 242.939603 
L 100.874916 242.066755 
L 101.119569 243.844779 
L 101.364222 243.101241 
L 101.608875 241.775805 
L 101.853528 242.325376 
L 102.342834 246.430995 
L 102.587487 244.39435 
L 102.83214 246.430995 
L 103.076793 244.911593 
L 103.321446 246.754272 
L 103.566099 245.396509 
L 103.810752 245.913752 
L 104.055405 244.846938 
L 104.300058 245.202542 
L 104.544711 242.713309 
L 104.789364 243.392191 
L 105.034017 242.293049 
L 105.27867 241.937444 
L 105.523323 238.316741 
L 105.767976 237.282254 
L 106.012629 234.146466 
L 106.257282 232.724047 
L 106.501935 232.724047 
L 106.746588 238.122774 
L 106.991241 232.077493 
L 107.235894 232.303787 
L 107.480547 234.534399 
L 107.7252 229.458949 
L 108.214506 226.129195 
L 108.459159 228.230496 
L 108.703812 228.03653 
L 108.948465 228.45679 
L 109.193118 224.803759 
L 109.437771 225.321002 
L 109.682424 224.124877 
L 110.661036 214.879153 
L 110.905689 215.137774 
L 111.394995 211.226122 
L 111.884301 210.353273 
L 112.128954 209.706719 
L 112.373607 213.586044 
L 112.61826 213.230439 
L 113.107566 215.655018 
L 113.596873 217.59468 
L 113.841526 216.75416 
L 114.086179 212.874835 
L 114.330832 214.264926 
L 114.820138 224.545137 
L 115.309444 220.439518 
L 115.554097 224.415826 
L 115.79875 224.351171 
L 116.043403 218.823133 
L 116.288056 222.120559 
L 116.532709 222.217542 
L 116.777362 224.836087 
L 117.022015 220.601157 
L 117.266668 222.217542 
L 117.755974 217.400714 
L 118.000627 220.504174 
L 118.24528 228.101185 
L 118.489933 225.676607 
L 118.734586 226.61411 
L 118.979239 226.19385 
L 119.468545 222.476164 
L 119.713198 224.318843 
L 119.957851 221.797282 
L 120.202504 223.963238 
L 120.69181 222.152887 
L 120.936463 219.275721 
L 121.181116 218.532184 
L 121.425769 218.629167 
L 121.670422 213.230439 
L 121.915075 211.937331 
L 122.404381 218.241234 
L 122.893687 215.687345 
L 123.382993 220.27788 
L 123.627646 220.116241 
L 123.872299 219.502015 
L 124.116952 219.792964 
L 124.361605 218.402873 
L 124.850911 220.989089 
L 125.095564 219.469687 
L 125.340217 217.17442 
L 125.58487 213.456733 
L 125.829523 215.040791 
L 126.074176 211.711037 
L 126.318829 215.396396 
L 126.563482 215.913639 
L 127.052788 221.797282 
L 127.297441 221.635643 
L 127.542094 221.700299 
L 127.786747 226.808077 
L 128.0314 227.486959 
L 128.276053 228.586101 
L 128.520706 228.424462 
L 128.765359 230.816712 
L 129.010012 229.200327 
L 129.254665 228.909378 
L 129.499318 230.137831 
L 129.743971 232.271459 
L 129.988624 231.883527 
L 130.233277 231.010679 
L 130.47793 231.818871 
L 130.722583 231.495594 
L 131.701195 229.361966 
L 132.679807 212.874835 
L 132.92446 212.066642 
L 133.169113 211.937331 
L 133.413766 211.517071 
L 133.658419 216.010622 
L 133.903072 218.30589 
L 134.147725 219.14641 
L 134.392378 220.536501 
L 134.637031 220.116241 
L 134.881684 217.562352 
L 135.126337 217.723991 
L 135.37099 219.98693 
L 135.615643 218.887788 
L 135.860297 218.72615 
L 136.10495 221.506333 
L 136.349603 217.368386 
L 136.838909 221.570988 
L 137.083562 222.896424 
L 137.328215 216.46321 
L 137.817521 212.422247 
L 138.062174 213.683027 
L 138.306827 213.973977 
L 138.55148 213.747683 
L 139.040786 209.900686 
L 139.285439 205.407134 
L 139.530092 208.251972 
L 139.774745 205.245496 
L 140.019398 204.566614 
L 140.264051 205.407134 
L 140.508704 205.665756 
L 140.753357 207.120503 
L 140.99801 206.73257 
L 141.242663 205.374806 
L 141.487316 206.021361 
L 141.731969 205.89205 
L 141.976622 205.407134 
L 142.221275 211.38776 
L 142.465928 206.764898 
L 142.710581 207.540763 
L 142.955234 209.383442 
L 143.44454 202.109708 
L 143.689193 202.174363 
L 144.178499 205.019202 
L 144.423152 204.663597 
L 144.667805 202.36833 
L 144.912458 201.527809 
L 145.157111 203.014884 
L 145.401764 198.359694 
L 145.89107 200.428667 
L 146.135723 199.232542 
L 146.380376 202.49764 
L 146.625029 202.271347 
L 146.869682 201.430826 
L 147.114335 197.454518 
L 147.358988 198.585988 
L 147.603641 197.098913 
L 148.092947 203.370489 
L 148.3376 203.402816 
L 148.582253 200.52565 
L 148.826906 200.040735 
L 149.071559 195.062268 
L 149.316212 192.573034 
L 149.560865 194.415714 
L 150.050171 189.728196 
L 150.294824 187.238962 
L 150.539477 188.111811 
L 150.78413 182.034201 
L 151.028783 181.48463 
L 151.518089 182.422134 
L 151.762742 183.359637 
L 152.007395 181.678597 
L 152.252048 185.2993 
L 152.496701 186.333787 
L 152.741354 184.749729 
L 152.986007 191.603203 
L 153.23066 187.788533 
L 153.475313 188.338104 
L 153.719966 188.564398 
L 153.964619 189.307936 
L 154.209272 188.596726 
L 154.453925 185.008351 
L 154.698578 186.689391 
L 154.943231 193.381227 
L 155.187884 194.900629 
L 155.432537 192.863984 
L 155.67719 197.874778 
L 155.921843 191.764841 
L 156.166496 193.736832 
L 156.411149 202.206691 
L 156.900455 196.484687 
L 157.145108 184.200158 
L 157.389761 183.844553 
L 157.634414 179.351002 
L 157.879067 176.991079 
L 158.12372 176.603147 
L 158.368374 176.635474 
L 158.613027 172.335889 
L 158.85768 171.204419 
L 159.102333 173.499687 
L 159.346986 172.4652 
L 159.836292 167.486733 
L 160.080945 169.167774 
L 160.325598 169.588034 
L 160.814904 167.228111 
L 161.059557 171.592352 
L 161.30421 164.318618 
L 161.793516 159.049201 
L 162.038169 162.702232 
L 162.282822 163.478097 
L 162.527475 166.452246 
L 162.772128 165.385432 
L 163.016781 170.07295 
L 163.261434 169.620362 
L 163.506087 165.353104 
L 163.75074 163.413442 
L 163.995393 168.165615 
L 164.240046 167.228111 
L 164.484699 168.715186 
L 164.729352 171.495369 
L 164.974005 171.301402 
L 165.218658 174.307879 
L 165.463311 174.760467 
L 165.707964 173.111754 
L 166.19727 164.771206 
L 166.441923 164.447928 
L 166.686576 164.383273 
L 167.175882 172.659166 
L 167.420535 171.236747 
L 167.665188 168.327253 
L 167.909841 177.896255 
L 168.154494 179.51264 
L 168.399147 177.54065 
L 168.6438 177.411339 
L 169.133106 169.878983 
L 169.377759 172.723822 
L 169.622412 171.62468 
L 170.111718 171.172092 
L 170.356371 175.56866 
L 170.601024 177.023407 
L 171.09033 171.980284 
L 171.334983 171.269075 
L 171.824289 165.902675 
L 172.068942 166.516902 
L 172.313595 168.909152 
L 172.558248 164.674222 
L 173.047554 162.02335 
L 173.292207 163.122492 
L 173.781513 169.36174 
L 174.026166 168.585875 
L 174.270819 166.452246 
L 174.515472 166.322935 
L 174.760125 162.766888 
L 175.004778 162.249644 
L 175.249431 159.113857 
L 175.494084 157.756093 
L 175.738737 158.208681 
L 175.98339 156.818589 
L 176.228043 156.883245 
L 176.472696 156.042724 
L 176.717349 157.303505 
L 176.962002 156.139708 
L 177.206655 154.394011 
L 177.451308 154.943582 
L 177.695961 152.131072 
L 178.185267 155.913414 
L 178.42992 160.794897 
L 178.674573 160.794897 
L 178.919226 159.178512 
L 179.163879 159.6311 
L 179.408532 158.273336 
L 179.653185 157.65911 
L 179.897838 160.730242 
L 180.387144 161.18283 
L 180.631798 157.23885 
L 180.876451 155.460826 
L 181.121104 152.712971 
L 181.365757 151.290551 
L 181.61041 148.930629 
L 181.855063 149.027612 
L 182.099716 147.734504 
L 182.344369 148.542696 
L 182.589022 150.902619 
L 182.833675 146.506051 
L 183.078328 147.669848 
L 183.322981 147.572865 
L 183.567634 147.993125 
L 184.301593 153.585819 
L 184.546246 151.064257 
L 184.790899 151.290551 
L 185.035552 149.771149 
L 185.280205 150.32072 
L 185.524858 147.863814 
L 185.769511 149.706494 
L 186.014164 146.732345 
L 186.258817 149.803477 
L 186.50347 146.538378 
L 186.748123 150.837963 
L 186.992776 152.454349 
L 187.237429 146.441395 
L 187.482082 148.025453 
L 187.726735 148.542696 
L 187.971388 152.034089 
L 188.216041 147.702176 
L 188.460694 145.600875 
L 188.705347 146.538378 
L 188.95 145.277598 
L 189.439306 139.846543 
L 189.683959 137.615931 
L 189.928612 137.227998 
L 190.173265 138.036191 
L 190.417918 136.290495 
L 190.662571 135.93489 
L 190.907224 136.290495 
L 191.151877 137.454292 
L 191.39653 136.322823 
L 191.641183 136.775411 
L 191.885836 137.90688 
L 192.130489 134.932731 
L 192.375142 134.480143 
L 192.619795 137.06636 
L 192.864448 134.480143 
L 193.109101 135.708596 
L 193.353754 138.812056 
L 193.598407 139.070678 
L 193.84306 137.615931 
L 194.087713 138.585762 
L 194.332366 137.260326 
L 194.577019 136.6461 
L 194.821672 136.452134 
L 195.066325 136.419806 
L 195.310978 135.93489 
L 195.800284 142.98233 
L 196.044937 139.296972 
L 196.28959 143.758195 
L 196.534243 141.592239 
L 196.778896 141.30129 
L 197.023549 140.654736 
L 197.268202 145.633203 
L 197.512855 147.896142 
L 197.757508 142.529743 
L 198.002161 142.174138 
L 198.246814 146.861655 
L 198.491467 143.628885 
L 198.73612 151.387534 
L 198.980773 149.577183 
L 199.225426 157.206522 
L 199.470079 156.462985 
L 199.714732 163.122492 
L 199.959385 164.221634 
L 200.693344 145.471564 
L 200.937997 146.893983 
L 201.427303 142.012499 
L 201.671956 142.529743 
L 201.916609 137.745242 
L 202.161262 139.03835 
L 202.405915 136.807738 
L 202.650568 133.057724 
L 202.895221 131.99091 
L 203.139875 136.387478 
L 203.384528 134.286177 
L 203.629181 131.053406 
L 203.873834 137.518948 
L 204.118487 138.230157 
L 204.36314 137.583603 
L 204.607793 137.842225 
L 204.852446 135.93489 
L 205.097099 134.932731 
L 205.341752 136.193512 
L 205.586405 136.613772 
L 205.831058 138.100847 
L 206.075711 141.074996 
L 206.320364 140.881029 
L 206.80967 132.184876 
L 207.054323 131.312028 
L 207.298976 129.404693 
L 207.543629 128.790467 
L 207.788282 126.301233 
L 208.032935 127.465031 
L 208.277588 127.077098 
L 208.522241 125.36373 
L 208.766894 125.234419 
L 209.011547 128.014602 
L 209.2562 132.249531 
L 209.500853 131.861599 
L 209.745506 132.702119 
L 210.234812 136.969377 
L 210.724118 129.081416 
L 210.968771 128.17624 
L 211.213424 123.941311 
L 211.458077 122.357253 
L 211.70273 123.230101 
L 212.192036 119.738709 
L 212.681342 123.973638 
L 212.925995 125.396057 
L 213.170648 129.824953 
L 213.415301 131.409011 
L 213.904607 125.266747 
L 214.14926 123.779672 
L 214.393913 123.10079 
L 214.638566 120.740868 
L 214.883219 123.844327 
L 215.127872 123.456395 
L 215.372525 120.773195 
L 215.861831 124.038294 
L 216.106484 120.870178 
L 216.351137 122.26027 
L 216.59579 121.452077 
L 217.085096 128.88745 
L 217.329749 127.109426 
L 217.574402 134.415488 
L 217.819055 131.2797 
L 218.063708 124.264588 
L 218.308361 101.053293 
L 218.553014 96.656725 
L 218.797667 98.661043 
L 219.04232 99.598547 
L 219.286973 98.98432 
L 219.531626 99.145959 
L 219.776279 93.617921 
L 220.020932 91.710586 
L 220.265585 91.872224 
L 220.510238 92.712745 
L 220.754891 92.615762 
L 221.244197 89.059714 
L 221.48885 90.094201 
L 221.733503 87.184707 
L 221.978156 90.449805 
L 222.222809 92.001535 
L 222.467462 86.15022 
L 222.712115 84.663146 
L 223.446074 92.842056 
L 223.690727 88.186866 
L 223.93538 95.201978 
L 224.180033 95.848533 
L 224.424686 82.012274 
L 224.669339 84.372196 
L 224.913992 81.365719 
L 225.158645 82.691155 
L 225.403298 79.426057 
L 225.647952 81.365719 
L 225.892605 77.938982 
L 226.137258 78.617864 
L 226.381911 82.20624 
L 226.626564 89.027386 
L 227.11587 87.475656 
L 227.360523 85.406683 
L 227.605176 89.382991 
L 228.094482 85.794615 
L 228.583788 87.637295 
L 228.828441 84.630818 
L 229.073094 83.305382 
L 229.317747 82.723483 
L 229.5624 84.145902 
L 229.807053 83.660987 
L 230.051706 82.6265 
L 230.296359 79.005797 
L 230.541012 83.564004 
L 230.785665 78.617864 
L 231.030318 80.363561 
L 231.274971 79.52304 
L 231.519624 76.096303 
L 232.00893 72.346289 
L 232.253583 73.122154 
L 232.498236 73.477759 
L 232.742889 77.001479 
L 232.987542 71.182492 
L 233.232195 69.533778 
L 233.476848 70.244988 
L 233.721501 73.768708 
L 233.966154 75.255783 
L 234.210807 72.507928 
L 234.45546 77.389411 
L 234.700113 75.320438 
L 234.944766 75.482077 
L 235.189419 73.089826 
L 235.434072 71.893701 
L 235.678725 71.796718 
L 235.923378 71.053181 
L 236.168031 72.216978 
L 236.412684 71.602752 
L 236.657337 72.023012 
L 236.90199 74.673884 
L 237.146643 71.667407 
L 237.391296 71.150164 
L 237.635949 71.667407 
L 237.880602 69.760072 
L 238.125255 70.438954 
L 238.369908 69.081191 
L 238.614561 71.893701 
L 238.859214 71.893701 
L 239.34852 77.648033 
L 239.593173 72.863532 
L 239.837826 70.859214 
L 240.082479 73.025171 
L 240.327132 72.281634 
L 240.571785 69.436795 
L 240.816438 68.046704 
L 241.061091 62.45401 
L 241.305744 64.393673 
L 241.79505 58.607013 
L 242.039703 60.675986 
L 242.529009 56.732006 
L 242.773662 63.003581 
L 243.262968 56.279418 
L 243.507621 56.796662 
L 243.752274 54.436739 
L 243.996927 49.91086 
L 244.24158 56.085452 
L 244.486233 54.760016 
L 244.730886 52.044489 
L 244.975539 46.839728 
L 245.220192 47.486282 
L 245.464845 46.031535 
L 245.709498 43.542301 
L 245.954151 44.221183 
L 246.198804 41.893588 
L 246.443457 42.766436 
L 246.68811 42.701781 
L 246.932763 44.415149 
L 247.177416 44.059545 
L 247.422069 46.193173 
L 247.666722 45.514292 
L 247.911375 41.053068 
L 248.156029 40.438841 
L 248.400682 40.535825 
L 248.645335 36.915121 
L 248.889988 35.072442 
L 249.134641 71.150164 
L 249.379294 77.55105 
L 249.623947 74.964833 
L 249.8686 69.630762 
L 250.113253 79.329074 
L 250.357906 82.594172 
L 250.602559 80.880804 
L 250.847212 82.044601 
L 251.091865 75.934665 
L 251.336518 82.755811 
L 251.581171 84.339869 
L 251.825824 105.126585 
L 252.070477 108.941254 
L 252.31513 120.191296 
L 252.559783 118.477928 
L 253.049089 98.176128 
L 253.293742 97.173969 
L 253.538395 99.113631 
L 253.783048 106.775298 
L 254.027701 99.081303 
L 254.272354 98.758026 
L 254.517007 102.055452 
L 254.76166 92.227829 
L 255.006313 99.016648 
L 255.250966 96.786036 
L 255.495619 90.708427 
L 255.984925 94.102836 
L 256.229578 92.389468 
L 256.474231 91.613603 
L 256.718884 96.010171 
L 256.963537 94.167492 
L 257.697496 103.186922 
L 257.942149 104.221409 
L 258.186802 110.072724 
L 258.431455 107.066247 
L 258.676108 98.079144 
L 259.165414 95.492928 
L 259.410067 92.745073 
L 259.65472 93.003694 
L 259.899373 94.232147 
L 260.388679 87.217035 
L 260.633332 84.663146 
L 260.877985 83.887281 
L 261.122638 86.667464 
L 261.367291 79.684679 
L 261.611944 78.553209 
L 261.856597 74.576901 
L 262.345903 72.572583 
L 262.590556 62.357027 
L 262.835209 62.874271 
L 263.569168 58.833307 
L 263.813821 56.570368 
L 264.058474 60.77297 
L 264.303127 56.570368 
L 264.54778 54.953982 
L 264.792433 62.357027 
L 265.037086 63.16522 
L 265.281739 54.533722 
L 265.771045 48.876373 
L 266.015698 51.785867 
L 266.260351 52.788026 
L 266.505004 57.216922 
L 266.749657 53.725529 
L 266.99431 53.046647 
L 267.238963 46.548778 
L 267.483616 44.706099 
L 267.728269 40.309531 
L 267.972922 42.410832 
L 268.217575 47.163005 
L 268.462228 44.83541 
L 268.706881 56.279418 
L 268.951534 61.645818 
L 269.196187 55.438898 
L 269.44084 59.932449 
L 269.685493 66.753596 
L 269.930146 59.156584 
L 270.174799 60.48202 
L 270.664106 68.111359 
L 270.908759 70.406627 
L 271.153412 79.199763 
L 271.398065 74.964833 
L 271.887371 60.611331 
L 272.132024 66.365663 
L 272.376677 80.23425 
L 272.62133 83.887281 
L 272.865983 83.402365 
L 273.110636 87.217035 
L 273.355289 86.247203 
L 273.599942 81.753652 
L 273.844595 82.303223 
L 274.089248 84.695473 
L 274.333901 88.768765 
L 274.823207 102.281746 
L 275.06786 104.027443 
L 275.312513 106.807625 
L 275.557166 107.615818 
L 275.801819 105.449862 
L 276.046472 100.471395 
L 276.291125 110.105052 
L 276.535778 108.068406 
L 276.780431 124.911142 
L 277.025084 124.684848 
L 277.269737 129.30771 
L 277.51439 124.523209 
L 277.759043 115.212829 
L 278.003696 120.41759 
L 278.248349 117.249475 
L 278.493002 123.553378 
L 278.737655 126.107267 
L 278.982308 118.704222 
L 279.226961 120.870178 
L 279.471614 127.432703 
L 279.716267 120.902506 
L 279.96092 119.965003 
L 280.450226 130.665474 
L 280.694879 130.01892 
L 280.939532 141.236634 
L 281.673491 128.111585 
L 281.918144 119.738709 
L 282.162797 120.805523 
L 282.40745 121.322766 
L 282.652103 116.926198 
L 282.896756 120.126641 
L 283.141409 119.965003 
L 283.386062 119.253793 
L 283.630715 120.352935 
L 283.875368 119.674053 
L 284.120021 112.788251 
L 284.364674 114.889552 
L 284.609327 109.00591 
L 284.85398 110.105052 
L 285.098633 107.16323 
L 285.343286 112.23868 
L 285.587939 112.755924 
L 285.832592 114.760242 
L 286.321898 109.038237 
L 286.566551 110.880917 
L 286.811204 110.234363 
L 287.055857 106.484348 
L 287.30051 107.777457 
L 288.034469 115.439123 
L 288.279122 114.178343 
L 288.523775 111.365832 
L 288.768428 111.139538 
L 289.013081 108.71496 
L 289.257734 107.421852 
L 289.502387 108.197717 
L 289.74704 109.458498 
L 289.991693 114.889552 
L 290.236346 113.337822 
L 290.480999 117.60508 
L 290.725652 116.764559 
L 290.970305 117.249475 
L 291.214958 113.758083 
L 291.459611 106.872281 
L 291.704264 109.620136 
L 291.948917 109.749447 
L 292.19357 100.406739 
L 292.438223 96.656725 
L 292.682876 94.62008 
L 292.92753 95.783877 
L 293.416836 90.417478 
L 293.906142 88.12221 
L 294.395448 94.652407 
L 294.640101 91.09636 
L 294.884754 92.971367 
L 295.129407 93.326971 
L 295.37406 89.25368 
L 295.618713 87.28169 
L 295.863366 87.928244 
L 296.108019 83.854953 
L 296.352672 97.788195 
L 296.597325 99.663202 
L 296.841978 103.510199 
L 297.086631 104.027443 
L 297.331284 105.385206 
L 297.82059 110.331346 
L 298.065243 105.90245 
L 298.309896 107.842112 
L 298.799202 105.643828 
L 299.043855 105.805467 
L 299.288508 104.253737 
L 299.777814 109.975741 
L 300.022467 109.329187 
L 300.511773 109.13522 
L 301.001079 111.527471 
L 301.245732 112.174025 
L 301.490385 113.79041 
L 301.735038 113.046873 
L 301.979691 110.363673 
L 302.224344 110.783934 
L 302.468997 110.428329 
L 302.958303 106.581332 
L 303.202956 109.00591 
L 303.447609 109.102893 
L 303.692262 108.359355 
L 303.936915 119.027499 
L 304.181568 123.359412 
L 304.670874 114.954208 
L 304.915527 112.23868 
L 305.16018 111.559799 
L 305.404833 112.755924 
L 305.649486 110.202035 
L 305.894139 110.331346 
L 306.138792 106.419693 
L 306.628098 104.544686 
L 306.872751 105.579173 
L 307.117404 105.288223 
L 307.362057 105.837794 
L 307.60671 104.706324 
L 307.851363 106.904609 
L 308.096016 110.945572 
L 308.585322 112.594285 
L 308.829975 113.628772 
L 309.074628 115.891711 
L 309.563934 118.413273 
L 309.808587 118.283962 
L 310.297893 121.322766 
L 310.542546 117.831374 
L 310.787199 120.837851 
L 311.031852 118.671894 
L 311.276505 118.930516 
L 311.765811 112.10937 
L 312.010464 112.400319 
L 312.255117 115.406796 
L 312.49977 114.566275 
L 312.744423 115.277485 
L 312.989076 115.309813 
L 313.478382 116.861543 
L 313.723035 118.542583 
L 313.967688 118.219306 
L 314.212341 118.704222 
L 314.701647 120.676212 
L 314.9463 121.775354 
L 315.190953 121.807682 
L 315.435607 123.10079 
L 315.68026 123.747344 
L 315.924913 123.230101 
L 316.169566 125.234419 
L 316.414219 125.525368 
L 316.658872 124.296915 
L 316.903525 129.695643 
L 317.148178 125.751662 
L 317.392831 128.790467 
L 317.637484 130.212886 
L 317.882137 129.437021 
L 318.371443 129.016761 
L 318.616096 127.982274 
L 318.860749 129.792626 
L 319.105402 126.4952 
L 319.350055 126.947787 
L 319.594708 131.182717 
L 319.839361 131.958582 
L 320.084014 130.406852 
L 320.328667 131.69996 
L 320.57332 128.273223 
L 320.817973 129.469349 
L 321.062626 129.146072 
L 321.307279 129.598659 
L 321.551932 128.370207 
L 321.796585 129.469349 
L 322.041238 129.469349 
L 322.530544 132.960741 
L 322.775197 133.898245 
L 323.01985 133.316346 
L 323.264503 134.835748 
L 323.509156 133.736606 
L 323.753809 131.2797 
L 323.998462 130.956423 
L 324.243115 127.723652 
L 324.487768 126.62451 
L 324.732421 128.628828 
L 325.221727 124.523209 
L 325.46638 125.07278 
L 325.711033 128.822794 
L 325.955686 129.792626 
L 326.200339 131.344356 
L 326.444992 126.62451 
L 326.689645 129.598659 
L 326.934298 123.197773 
L 327.178951 123.359412 
L 327.668257 121.484405 
L 327.91291 112.691268 
L 328.157563 111.915403 
L 328.402216 112.626613 
L 328.646869 108.036078 
L 328.891522 107.227886 
L 329.136175 110.880917 
L 329.380828 112.852907 
L 329.625481 112.594285 
L 330.114787 109.00591 
L 330.35944 108.520994 
L 330.604093 106.258054 
L 330.848746 108.036078 
L 331.093399 108.617977 
L 331.338052 110.040396 
L 331.582705 105.320551 
L 331.827358 103.057611 
L 332.561317 89.479974 
L 332.80597 92.066191 
L 333.050623 92.745073 
L 333.295276 92.098518 
L 333.539929 90.999376 
L 333.784582 92.551106 
L 334.029235 88.057555 
L 334.518541 87.217035 
L 334.763194 87.669622 
L 335.007847 88.542471 
L 335.2525 88.477815 
L 335.497153 91.290326 
L 335.741806 90.449805 
L 335.986459 91.548947 
L 336.475765 81.139426 
L 336.720418 81.333392 
L 336.965071 76.160959 
L 337.209724 78.165276 
L 337.454377 78.100621 
L 337.69903 74.673884 
L 337.943684 80.848476 
L 338.188337 79.135108 
L 338.43299 79.426057 
L 338.677643 78.811831 
L 338.922296 81.656669 
L 339.166949 80.428216 
L 339.411602 82.173912 
L 339.656255 79.652351 
L 339.900908 79.199763 
L 340.145561 79.135108 
L 340.634867 69.824728 
L 340.87952 70.762231 
L 341.124173 68.66093 
L 341.368826 70.891542 
L 341.613479 71.893701 
L 342.102785 76.096303 
L 342.347438 76.096303 
L 342.592091 74.512245 
L 342.836744 75.255783 
L 343.081397 73.995002 
L 343.32605 71.796718 
L 343.570703 72.281634 
L 343.815356 70.568265 
L 344.060009 72.669566 
L 344.304662 72.831205 
L 344.549315 72.4756 
L 344.793968 73.73638 
L 345.038621 71.829046 
L 345.527927 72.572583 
L 345.77258 69.501451 
L 346.017233 70.956198 
L 346.261886 68.854897 
L 346.506539 70.697576 
L 346.751192 70.083349 
L 346.995845 70.148005 
L 347.240498 69.533778 
L 347.485151 69.889383 
L 347.974457 65.395832 
L 348.21911 66.818251 
L 348.463763 67.335494 
L 348.708416 67.173856 
L 348.953069 64.102724 
L 349.197722 67.206183 
L 349.442375 66.139369 
L 349.687028 65.622126 
L 349.931681 65.945403 
L 350.176334 65.169538 
L 350.420987 63.003581 
L 350.66564 64.684622 
L 350.910293 62.583321 
L 351.154946 61.904439 
L 351.644252 63.035909 
L 351.888905 63.16522 
L 352.133558 63.003581 
L 352.378211 64.522984 
L 352.622864 65.007899 
L 352.867517 62.938926 
L 353.11217 63.035909 
L 353.356823 62.518666 
L 353.846129 59.318223 
L 354.090782 60.805297 
L 354.335435 57.37856 
L 354.580088 58.51003 
L 354.824741 60.90228 
L 355.069394 56.11778 
L 355.5587 53.984151 
L 355.803353 54.760016 
L 356.048006 57.572527 
L 356.292659 58.736324 
L 356.537312 67.626444 
L 356.781965 69.081191 
L 357.026618 66.430318 
L 357.271271 68.272998 
L 357.515924 66.171697 
L 357.760577 73.962674 
L 358.00523 74.221296 
L 358.249883 73.865691 
L 358.494536 75.676043 
L 358.983842 84.792456 
L 359.228495 83.596331 
L 359.473148 80.880804 
L 359.717801 80.525199 
L 359.962454 82.497189 
L 360.207107 80.266577 
L 360.451761 81.688997 
L 360.696414 78.003638 
L 360.941067 78.229932 
L 361.18572 79.52304 
L 361.430373 78.650192 
L 362.164332 87.411001 
L 362.408985 86.053237 
L 362.653638 91.22567 
L 363.142944 82.432534 
L 363.63225 85.342028 
L 363.876903 85.859271 
L 364.121556 87.378673 
L 364.366209 87.831261 
L 364.610862 92.454123 
L 364.855515 89.67394 
L 365.100168 91.548947 
L 365.344821 91.09636 
L 365.589474 87.184707 
L 365.834127 87.70195 
L 366.07878 83.014433 
L 366.323433 86.732119 
L 366.568086 84.986423 
L 366.812739 81.07477 
L 367.302045 94.361458 
L 367.546698 94.458441 
L 368.036004 92.7774 
L 368.280657 91.031704 
L 368.52531 91.322653 
L 368.769963 88.736437 
L 369.014616 89.706268 
L 369.748575 81.398047 
L 369.993228 82.270895 
L 370.237881 82.561845 
L 370.482534 84.436852 
L 370.727187 82.755811 
L 370.97184 72.863532 
L 371.461146 73.089826 
L 371.705799 70.891542 
L 371.950452 77.163117 
L 372.195105 75.708371 
L 372.684411 84.663146 
L 372.929064 82.6265 
L 373.173717 96.042499 
L 373.41837 100.827 
L 373.663023 98.758026 
L 373.907676 100.665361 
L 374.152329 100.309756 
L 374.396982 98.079144 
L 374.886288 102.928301 
L 375.130941 101.408898 
L 375.375594 96.236465 
L 375.620247 100.342084 
L 375.8649 100.277429 
L 376.109553 97.400263 
L 376.354206 96.915347 
L 376.598859 96.883019 
L 376.843512 95.913188 
L 377.088165 101.311915 
L 377.332818 100.342084 
L 377.577471 100.018807 
L 377.822124 100.342084 
L 378.066777 114.695586 
L 378.556083 114.598603 
L 379.045389 109.00591 
L 379.290042 111.980059 
L 379.534695 109.975741 
L 379.779348 111.333505 
L 380.024001 110.26669 
L 380.268654 107.745129 
L 380.75796 109.717119 
L 381.002613 106.581332 
L 381.247266 109.620136 
L 381.491919 107.648146 
L 381.736572 111.495143 
L 381.981225 109.814102 
L 382.470531 102.637351 
L 382.715184 103.413216 
L 382.959838 104.835635 
L 383.204491 104.964946 
L 383.449144 106.581332 
L 383.693797 106.549004 
L 383.93845 109.878758 
L 384.183103 115.115846 
L 384.427756 113.6611 
L 384.672409 111.236521 
L 384.917062 110.492984 
L 385.161715 110.848589 
L 385.406368 108.391683 
L 385.651021 107.130903 
L 386.140327 110.719278 
L 386.38498 112.303336 
L 386.629633 109.84643 
L 387.363592 112.271008 
L 387.608245 108.327028 
L 387.852898 110.525312 
L 387.852898 110.525312 
" style="fill:none;stroke:#ff7f0e;stroke-linecap:square;stroke-width:1.5;"/>
   </g>
   <g id="patch_3">
    <path d="M 46.965625 288.430125 
L 46.965625 22.318125 
" style="fill:none;stroke:#000000;stroke-linecap:square;stroke-linejoin:miter;stroke-width:0.8;"/>
   </g>
   <g id="patch_4">
    <path d="M 404.085625 288.430125 
L 404.085625 22.318125 
" style="fill:none;stroke:#000000;stroke-linecap:square;stroke-linejoin:miter;stroke-width:0.8;"/>
   </g>
   <g id="patch_5">
    <path d="M 46.965625 288.430125 
L 404.085625 288.430125 
" style="fill:none;stroke:#000000;stroke-linecap:square;stroke-linejoin:miter;stroke-width:0.8;"/>
   </g>
   <g id="patch_6">
    <path d="M 46.965625 22.318125 
L 404.085625 22.318125 
" style="fill:none;stroke:#000000;stroke-linecap:square;stroke-linejoin:miter;stroke-width:0.8;"/>
   </g>
   <g id="text_18">
    <!-- Training: DIS -->
    <defs>
     <path d="M -0.296875 72.90625 
L 61.375 72.90625 
L 61.375 64.59375 
L 35.5 64.59375 
L 35.5 0 
L 25.59375 0 
L 25.59375 64.59375 
L -0.296875 64.59375 
z
" id="DejaVuSans-84"/>
     <path d="M 54.890625 33.015625 
L 54.890625 0 
L 45.90625 0 
L 45.90625 32.71875 
Q 45.90625 40.484375 42.875 44.328125 
Q 39.84375 48.1875 33.796875 48.1875 
Q 26.515625 48.1875 22.3125 43.546875 
Q 18.109375 38.921875 18.109375 30.90625 
L 18.109375 0 
L 9.078125 0 
L 9.078125 54.6875 
L 18.109375 54.6875 
L 18.109375 46.1875 
Q 21.34375 51.125 25.703125 53.5625 
Q 30.078125 56 35.796875 56 
Q 45.21875 56 50.046875 50.171875 
Q 54.890625 44.34375 54.890625 33.015625 
z
" id="DejaVuSans-110"/>
     <path d="M 45.40625 27.984375 
Q 45.40625 37.75 41.375 43.109375 
Q 37.359375 48.484375 30.078125 48.484375 
Q 22.859375 48.484375 18.828125 43.109375 
Q 14.796875 37.75 14.796875 27.984375 
Q 14.796875 18.265625 18.828125 12.890625 
Q 22.859375 7.515625 30.078125 7.515625 
Q 37.359375 7.515625 41.375 12.890625 
Q 45.40625 18.265625 45.40625 27.984375 
z
M 54.390625 6.78125 
Q 54.390625 -7.171875 48.1875 -13.984375 
Q 42 -20.796875 29.203125 -20.796875 
Q 24.46875 -20.796875 20.265625 -20.09375 
Q 16.0625 -19.390625 12.109375 -17.921875 
L 12.109375 -9.1875 
Q 16.0625 -11.328125 19.921875 -12.34375 
Q 23.78125 -13.375 27.78125 -13.375 
Q 36.625 -13.375 41.015625 -8.765625 
Q 45.40625 -4.15625 45.40625 5.171875 
L 45.40625 9.625 
Q 42.625 4.78125 38.28125 2.390625 
Q 33.9375 0 27.875 0 
Q 17.828125 0 11.671875 7.65625 
Q 5.515625 15.328125 5.515625 27.984375 
Q 5.515625 40.671875 11.671875 48.328125 
Q 17.828125 56 27.875 56 
Q 33.9375 56 38.28125 53.609375 
Q 42.625 51.21875 45.40625 46.390625 
L 45.40625 54.6875 
L 54.390625 54.6875 
z
" id="DejaVuSans-103"/>
     <path d="M 11.71875 12.40625 
L 22.015625 12.40625 
L 22.015625 0 
L 11.71875 0 
z
M 11.71875 51.703125 
L 22.015625 51.703125 
L 22.015625 39.3125 
L 11.71875 39.3125 
z
" id="DejaVuSans-58"/>
     <path d="M 9.8125 72.90625 
L 19.671875 72.90625 
L 19.671875 0 
L 9.8125 0 
z
" id="DejaVuSans-73"/>
     <path d="M 53.515625 70.515625 
L 53.515625 60.890625 
Q 47.90625 63.578125 42.921875 64.890625 
Q 37.9375 66.21875 33.296875 66.21875 
Q 25.25 66.21875 20.875 63.09375 
Q 16.5 59.96875 16.5 54.203125 
Q 16.5 49.359375 19.40625 46.890625 
Q 22.3125 44.4375 30.421875 42.921875 
L 36.375 41.703125 
Q 47.40625 39.59375 52.65625 34.296875 
Q 57.90625 29 57.90625 20.125 
Q 57.90625 9.515625 50.796875 4.046875 
Q 43.703125 -1.421875 29.984375 -1.421875 
Q 24.8125 -1.421875 18.96875 -0.25 
Q 13.140625 0.921875 6.890625 3.21875 
L 6.890625 13.375 
Q 12.890625 10.015625 18.65625 8.296875 
Q 24.421875 6.59375 29.984375 6.59375 
Q 38.421875 6.59375 43.015625 9.90625 
Q 47.609375 13.234375 47.609375 19.390625 
Q 47.609375 24.75 44.3125 27.78125 
Q 41.015625 30.8125 33.5 32.328125 
L 27.484375 33.5 
Q 16.453125 35.6875 11.515625 40.375 
Q 6.59375 45.0625 6.59375 53.421875 
Q 6.59375 63.09375 13.40625 68.65625 
Q 20.21875 74.21875 32.171875 74.21875 
Q 37.3125 74.21875 42.625 73.28125 
Q 47.953125 72.359375 53.515625 70.515625 
z
" id="DejaVuSans-83"/>
    </defs>
    <g transform="translate(187.7275 16.318125)scale(0.12 -0.12)">
     <use xlink:href="#DejaVuSans-84"/>
     <use x="46.333984" xlink:href="#DejaVuSans-114"/>
     <use x="87.447266" xlink:href="#DejaVuSans-97"/>
     <use x="148.726562" xlink:href="#DejaVuSans-105"/>
     <use x="176.509766" xlink:href="#DejaVuSans-110"/>
     <use x="239.888672" xlink:href="#DejaVuSans-105"/>
     <use x="267.671875" xlink:href="#DejaVuSans-110"/>
     <use x="331.050781" xlink:href="#DejaVuSans-103"/>
     <use x="394.527344" xlink:href="#DejaVuSans-58"/>
     <use x="428.21875" xlink:href="#DejaVuSans-32"/>
     <use x="460.005859" xlink:href="#DejaVuSans-68"/>
     <use x="537.007812" xlink:href="#DejaVuSans-73"/>
     <use x="566.5" xlink:href="#DejaVuSans-83"/>
    </g>
   </g>
   <g id="legend_1">
    <g id="patch_7">
     <path d="M 53.965625 59.674375 
L 137.69375 59.674375 
Q 139.69375 59.674375 139.69375 57.674375 
L 139.69375 29.318125 
Q 139.69375 27.318125 137.69375 27.318125 
L 53.965625 27.318125 
Q 51.965625 27.318125 51.965625 29.318125 
L 51.965625 57.674375 
Q 51.965625 59.674375 53.965625 59.674375 
z
" style="fill:#ffffff;opacity:0.8;stroke:#cccccc;stroke-linejoin:miter;"/>
    </g>
    <g id="line2d_33">
     <path d="M 55.965625 35.416562 
L 75.965625 35.416562 
" style="fill:none;stroke:#1f77b4;stroke-linecap:square;stroke-width:1.5;"/>
    </g>
    <g id="line2d_34"/>
    <g id="text_19">
     <!-- Predicted -->
     <defs>
      <path d="M 45.40625 46.390625 
L 45.40625 75.984375 
L 54.390625 75.984375 
L 54.390625 0 
L 45.40625 0 
L 45.40625 8.203125 
Q 42.578125 3.328125 38.25 0.953125 
Q 33.9375 -1.421875 27.875 -1.421875 
Q 17.96875 -1.421875 11.734375 6.484375 
Q 5.515625 14.40625 5.515625 27.296875 
Q 5.515625 40.1875 11.734375 48.09375 
Q 17.96875 56 27.875 56 
Q 33.9375 56 38.25 53.625 
Q 42.578125 51.265625 45.40625 46.390625 
z
M 14.796875 27.296875 
Q 14.796875 17.390625 18.875 11.75 
Q 22.953125 6.109375 30.078125 6.109375 
Q 37.203125 6.109375 41.296875 11.75 
Q 45.40625 17.390625 45.40625 27.296875 
Q 45.40625 37.203125 41.296875 42.84375 
Q 37.203125 48.484375 30.078125 48.484375 
Q 22.953125 48.484375 18.875 42.84375 
Q 14.796875 37.203125 14.796875 27.296875 
z
" id="DejaVuSans-100"/>
      <path d="M 18.3125 70.21875 
L 18.3125 54.6875 
L 36.8125 54.6875 
L 36.8125 47.703125 
L 18.3125 47.703125 
L 18.3125 18.015625 
Q 18.3125 11.328125 20.140625 9.421875 
Q 21.96875 7.515625 27.59375 7.515625 
L 36.8125 7.515625 
L 36.8125 0 
L 27.59375 0 
Q 17.1875 0 13.234375 3.875 
Q 9.28125 7.765625 9.28125 18.015625 
L 9.28125 47.703125 
L 2.6875 47.703125 
L 2.6875 54.6875 
L 9.28125 54.6875 
L 9.28125 70.21875 
z
" id="DejaVuSans-116"/>
     </defs>
     <g transform="translate(83.965625 38.916562)scale(0.1 -0.1)">
      <use xlink:href="#DejaVuSans-80"/>
      <use x="58.552734" xlink:href="#DejaVuSans-114"/>
      <use x="97.416016" xlink:href="#DejaVuSans-101"/>
      <use x="158.939453" xlink:href="#DejaVuSans-100"/>
      <use x="222.416016" xlink:href="#DejaVuSans-105"/>
      <use x="250.199219" xlink:href="#DejaVuSans-99"/>
      <use x="305.179688" xlink:href="#DejaVuSans-116"/>
      <use x="344.388672" xlink:href="#DejaVuSans-101"/>
      <use x="405.912109" xlink:href="#DejaVuSans-100"/>
     </g>
    </g>
    <g id="line2d_35">
     <path d="M 55.965625 50.094687 
L 75.965625 50.094687 
" style="fill:none;stroke:#ff7f0e;stroke-linecap:square;stroke-width:1.5;"/>
    </g>
    <g id="line2d_36"/>
    <g id="text_20">
     <!-- True value -->
     <defs>
      <path d="M 8.5 21.578125 
L 8.5 54.6875 
L 17.484375 54.6875 
L 17.484375 21.921875 
Q 17.484375 14.15625 20.5 10.265625 
Q 23.53125 6.390625 29.59375 6.390625 
Q 36.859375 6.390625 41.078125 11.03125 
Q 45.3125 15.671875 45.3125 23.6875 
L 45.3125 54.6875 
L 54.296875 54.6875 
L 54.296875 0 
L 45.3125 0 
L 45.3125 8.40625 
Q 42.046875 3.421875 37.71875 1 
Q 33.40625 -1.421875 27.6875 -1.421875 
Q 18.265625 -1.421875 13.375 4.4375 
Q 8.5 10.296875 8.5 21.578125 
z
M 31.109375 56 
z
" id="DejaVuSans-117"/>
      <path d="M 2.984375 54.6875 
L 12.5 54.6875 
L 29.59375 8.796875 
L 46.6875 54.6875 
L 56.203125 54.6875 
L 35.6875 0 
L 23.484375 0 
z
" id="DejaVuSans-118"/>
      <path d="M 9.421875 75.984375 
L 18.40625 75.984375 
L 18.40625 0 
L 9.421875 0 
z
" id="DejaVuSans-108"/>
     </defs>
     <g transform="translate(83.965625 53.594687)scale(0.1 -0.1)">
      <use xlink:href="#DejaVuSans-84"/>
      <use x="46.333984" xlink:href="#DejaVuSans-114"/>
      <use x="87.447266" xlink:href="#DejaVuSans-117"/>
      <use x="150.826172" xlink:href="#DejaVuSans-101"/>
      <use x="212.349609" xlink:href="#DejaVuSans-32"/>
      <use x="244.136719" xlink:href="#DejaVuSans-118"/>
      <use x="303.316406" xlink:href="#DejaVuSans-97"/>
      <use x="364.595703" xlink:href="#DejaVuSans-108"/>
      <use x="392.378906" xlink:href="#DejaVuSans-117"/>
      <use x="455.757812" xlink:href="#DejaVuSans-101"/>
     </g>
    </g>
   </g>
  </g>
 </g>
 <defs>
  <clipPath id="p7ef9a95ac7">
   <rect height="266.112" width="357.12" x="46.965625" y="22.318125"/>
  </clipPath>
 </defs>
</svg>
