<?xml version="1.0" encoding="utf-8" standalone="no"?>
<!DOCTYPE svg PUBLIC "-//W3C//DTD SVG 1.1//EN"
  "http://www.w3.org/Graphics/SVG/1.1/DTD/svg11.dtd">
<!-- Created with matplotlib (https://matplotlib.org/) -->
<svg height="325.986375pt" version="1.1" viewBox="0 0 411.285625 325.986375" width="411.285625pt" xmlns="http://www.w3.org/2000/svg" xmlns:xlink="http://www.w3.org/1999/xlink">
 <defs>
  <style type="text/css">
*{stroke-linecap:butt;stroke-linejoin:round;}
  </style>
 </defs>
 <g id="figure_1">
  <g id="patch_1">
   <path d="M 0 325.986375 
L 411.285625 325.986375 
L 411.285625 0 
L 0 0 
z
" style="fill:#ffffff;"/>
  </g>
  <g id="axes_1">
   <g id="patch_2">
    <path d="M 46.965625 288.430125 
L 404.085625 288.430125 
L 404.085625 22.318125 
L 46.965625 22.318125 
z
" style="fill:#ffffff;"/>
   </g>
   <g id="matplotlib.axis_1">
    <g id="xtick_1">
     <g id="line2d_1">
      <path clip-path="url(#pa087f3e946)" d="M 63.198352 288.430125 
L 63.198352 22.318125 
" style="fill:none;stroke:#b0b0b0;stroke-dasharray:2.96,1.28;stroke-dashoffset:0;stroke-width:0.8;"/>
     </g>
     <g id="line2d_2">
      <defs>
       <path d="M 0 0 
L 0 3.5 
" id="md23d05a523" style="stroke:#000000;stroke-width:0.8;"/>
      </defs>
      <g>
       <use style="stroke:#000000;stroke-width:0.8;" x="63.198352" xlink:href="#md23d05a523" y="288.430125"/>
      </g>
     </g>
     <g id="text_1">
      <!-- 0 -->
      <defs>
       <path d="M 31.78125 66.40625 
Q 24.171875 66.40625 20.328125 58.90625 
Q 16.5 51.421875 16.5 36.375 
Q 16.5 21.390625 20.328125 13.890625 
Q 24.171875 6.390625 31.78125 6.390625 
Q 39.453125 6.390625 43.28125 13.890625 
Q 47.125 21.390625 47.125 36.375 
Q 47.125 51.421875 43.28125 58.90625 
Q 39.453125 66.40625 31.78125 66.40625 
z
M 31.78125 74.21875 
Q 44.046875 74.21875 50.515625 64.515625 
Q 56.984375 54.828125 56.984375 36.375 
Q 56.984375 17.96875 50.515625 8.265625 
Q 44.046875 -1.421875 31.78125 -1.421875 
Q 19.53125 -1.421875 13.0625 8.265625 
Q 6.59375 17.96875 6.59375 36.375 
Q 6.59375 54.828125 13.0625 64.515625 
Q 19.53125 74.21875 31.78125 74.21875 
z
" id="DejaVuSans-48"/>
      </defs>
      <g transform="translate(60.017102 303.028562)scale(0.1 -0.1)">
       <use xlink:href="#DejaVuSans-48"/>
      </g>
     </g>
    </g>
    <g id="xtick_2">
     <g id="line2d_3">
      <path clip-path="url(#pa087f3e946)" d="M 112.128954 288.430125 
L 112.128954 22.318125 
" style="fill:none;stroke:#b0b0b0;stroke-dasharray:2.96,1.28;stroke-dashoffset:0;stroke-width:0.8;"/>
     </g>
     <g id="line2d_4">
      <g>
       <use style="stroke:#000000;stroke-width:0.8;" x="112.128954" xlink:href="#md23d05a523" y="288.430125"/>
      </g>
     </g>
     <g id="text_2">
      <!-- 200 -->
      <defs>
       <path d="M 19.1875 8.296875 
L 53.609375 8.296875 
L 53.609375 0 
L 7.328125 0 
L 7.328125 8.296875 
Q 12.9375 14.109375 22.625 23.890625 
Q 32.328125 33.6875 34.8125 36.53125 
Q 39.546875 41.84375 41.421875 45.53125 
Q 43.3125 49.21875 43.3125 52.78125 
Q 43.3125 58.59375 39.234375 62.25 
Q 35.15625 65.921875 28.609375 65.921875 
Q 23.96875 65.921875 18.8125 64.3125 
Q 13.671875 62.703125 7.8125 59.421875 
L 7.8125 69.390625 
Q 13.765625 71.78125 18.9375 73 
Q 24.125 74.21875 28.421875 74.21875 
Q 39.75 74.21875 46.484375 68.546875 
Q 53.21875 62.890625 53.21875 53.421875 
Q 53.21875 48.921875 51.53125 44.890625 
Q 49.859375 40.875 45.40625 35.40625 
Q 44.1875 33.984375 37.640625 27.21875 
Q 31.109375 20.453125 19.1875 8.296875 
z
" id="DejaVuSans-50"/>
      </defs>
      <g transform="translate(102.585204 303.028562)scale(0.1 -0.1)">
       <use xlink:href="#DejaVuSans-50"/>
       <use x="63.623047" xlink:href="#DejaVuSans-48"/>
       <use x="127.246094" xlink:href="#DejaVuSans-48"/>
      </g>
     </g>
    </g>
    <g id="xtick_3">
     <g id="line2d_5">
      <path clip-path="url(#pa087f3e946)" d="M 161.059557 288.430125 
L 161.059557 22.318125 
" style="fill:none;stroke:#b0b0b0;stroke-dasharray:2.96,1.28;stroke-dashoffset:0;stroke-width:0.8;"/>
     </g>
     <g id="line2d_6">
      <g>
       <use style="stroke:#000000;stroke-width:0.8;" x="161.059557" xlink:href="#md23d05a523" y="288.430125"/>
      </g>
     </g>
     <g id="text_3">
      <!-- 400 -->
      <defs>
       <path d="M 37.796875 64.3125 
L 12.890625 25.390625 
L 37.796875 25.390625 
z
M 35.203125 72.90625 
L 47.609375 72.90625 
L 47.609375 25.390625 
L 58.015625 25.390625 
L 58.015625 17.1875 
L 47.609375 17.1875 
L 47.609375 0 
L 37.796875 0 
L 37.796875 17.1875 
L 4.890625 17.1875 
L 4.890625 26.703125 
z
" id="DejaVuSans-52"/>
      </defs>
      <g transform="translate(151.515807 303.028562)scale(0.1 -0.1)">
       <use xlink:href="#DejaVuSans-52"/>
       <use x="63.623047" xlink:href="#DejaVuSans-48"/>
       <use x="127.246094" xlink:href="#DejaVuSans-48"/>
      </g>
     </g>
    </g>
    <g id="xtick_4">
     <g id="line2d_7">
      <path clip-path="url(#pa087f3e946)" d="M 209.990159 288.430125 
L 209.990159 22.318125 
" style="fill:none;stroke:#b0b0b0;stroke-dasharray:2.96,1.28;stroke-dashoffset:0;stroke-width:0.8;"/>
     </g>
     <g id="line2d_8">
      <g>
       <use style="stroke:#000000;stroke-width:0.8;" x="209.990159" xlink:href="#md23d05a523" y="288.430125"/>
      </g>
     </g>
     <g id="text_4">
      <!-- 600 -->
      <defs>
       <path d="M 33.015625 40.375 
Q 26.375 40.375 22.484375 35.828125 
Q 18.609375 31.296875 18.609375 23.390625 
Q 18.609375 15.53125 22.484375 10.953125 
Q 26.375 6.390625 33.015625 6.390625 
Q 39.65625 6.390625 43.53125 10.953125 
Q 47.40625 15.53125 47.40625 23.390625 
Q 47.40625 31.296875 43.53125 35.828125 
Q 39.65625 40.375 33.015625 40.375 
z
M 52.59375 71.296875 
L 52.59375 62.3125 
Q 48.875 64.0625 45.09375 64.984375 
Q 41.3125 65.921875 37.59375 65.921875 
Q 27.828125 65.921875 22.671875 59.328125 
Q 17.53125 52.734375 16.796875 39.40625 
Q 19.671875 43.65625 24.015625 45.921875 
Q 28.375 48.1875 33.59375 48.1875 
Q 44.578125 48.1875 50.953125 41.515625 
Q 57.328125 34.859375 57.328125 23.390625 
Q 57.328125 12.15625 50.6875 5.359375 
Q 44.046875 -1.421875 33.015625 -1.421875 
Q 20.359375 -1.421875 13.671875 8.265625 
Q 6.984375 17.96875 6.984375 36.375 
Q 6.984375 53.65625 15.1875 63.9375 
Q 23.390625 74.21875 37.203125 74.21875 
Q 40.921875 74.21875 44.703125 73.484375 
Q 48.484375 72.75 52.59375 71.296875 
z
" id="DejaVuSans-54"/>
      </defs>
      <g transform="translate(200.446409 303.028562)scale(0.1 -0.1)">
       <use xlink:href="#DejaVuSans-54"/>
       <use x="63.623047" xlink:href="#DejaVuSans-48"/>
       <use x="127.246094" xlink:href="#DejaVuSans-48"/>
      </g>
     </g>
    </g>
    <g id="xtick_5">
     <g id="line2d_9">
      <path clip-path="url(#pa087f3e946)" d="M 258.920761 288.430125 
L 258.920761 22.318125 
" style="fill:none;stroke:#b0b0b0;stroke-dasharray:2.96,1.28;stroke-dashoffset:0;stroke-width:0.8;"/>
     </g>
     <g id="line2d_10">
      <g>
       <use style="stroke:#000000;stroke-width:0.8;" x="258.920761" xlink:href="#md23d05a523" y="288.430125"/>
      </g>
     </g>
     <g id="text_5">
      <!-- 800 -->
      <defs>
       <path d="M 31.78125 34.625 
Q 24.75 34.625 20.71875 30.859375 
Q 16.703125 27.09375 16.703125 20.515625 
Q 16.703125 13.921875 20.71875 10.15625 
Q 24.75 6.390625 31.78125 6.390625 
Q 38.8125 6.390625 42.859375 10.171875 
Q 46.921875 13.96875 46.921875 20.515625 
Q 46.921875 27.09375 42.890625 30.859375 
Q 38.875 34.625 31.78125 34.625 
z
M 21.921875 38.8125 
Q 15.578125 40.375 12.03125 44.71875 
Q 8.5 49.078125 8.5 55.328125 
Q 8.5 64.0625 14.71875 69.140625 
Q 20.953125 74.21875 31.78125 74.21875 
Q 42.671875 74.21875 48.875 69.140625 
Q 55.078125 64.0625 55.078125 55.328125 
Q 55.078125 49.078125 51.53125 44.71875 
Q 48 40.375 41.703125 38.8125 
Q 48.828125 37.15625 52.796875 32.3125 
Q 56.78125 27.484375 56.78125 20.515625 
Q 56.78125 9.90625 50.3125 4.234375 
Q 43.84375 -1.421875 31.78125 -1.421875 
Q 19.734375 -1.421875 13.25 4.234375 
Q 6.78125 9.90625 6.78125 20.515625 
Q 6.78125 27.484375 10.78125 32.3125 
Q 14.796875 37.15625 21.921875 38.8125 
z
M 18.3125 54.390625 
Q 18.3125 48.734375 21.84375 45.5625 
Q 25.390625 42.390625 31.78125 42.390625 
Q 38.140625 42.390625 41.71875 45.5625 
Q 45.3125 48.734375 45.3125 54.390625 
Q 45.3125 60.0625 41.71875 63.234375 
Q 38.140625 66.40625 31.78125 66.40625 
Q 25.390625 66.40625 21.84375 63.234375 
Q 18.3125 60.0625 18.3125 54.390625 
z
" id="DejaVuSans-56"/>
      </defs>
      <g transform="translate(249.377011 303.028562)scale(0.1 -0.1)">
       <use xlink:href="#DejaVuSans-56"/>
       <use x="63.623047" xlink:href="#DejaVuSans-48"/>
       <use x="127.246094" xlink:href="#DejaVuSans-48"/>
      </g>
     </g>
    </g>
    <g id="xtick_6">
     <g id="line2d_11">
      <path clip-path="url(#pa087f3e946)" d="M 307.851363 288.430125 
L 307.851363 22.318125 
" style="fill:none;stroke:#b0b0b0;stroke-dasharray:2.96,1.28;stroke-dashoffset:0;stroke-width:0.8;"/>
     </g>
     <g id="line2d_12">
      <g>
       <use style="stroke:#000000;stroke-width:0.8;" x="307.851363" xlink:href="#md23d05a523" y="288.430125"/>
      </g>
     </g>
     <g id="text_6">
      <!-- 1000 -->
      <defs>
       <path d="M 12.40625 8.296875 
L 28.515625 8.296875 
L 28.515625 63.921875 
L 10.984375 60.40625 
L 10.984375 69.390625 
L 28.421875 72.90625 
L 38.28125 72.90625 
L 38.28125 8.296875 
L 54.390625 8.296875 
L 54.390625 0 
L 12.40625 0 
z
" id="DejaVuSans-49"/>
      </defs>
      <g transform="translate(295.126363 303.028562)scale(0.1 -0.1)">
       <use xlink:href="#DejaVuSans-49"/>
       <use x="63.623047" xlink:href="#DejaVuSans-48"/>
       <use x="127.246094" xlink:href="#DejaVuSans-48"/>
       <use x="190.869141" xlink:href="#DejaVuSans-48"/>
      </g>
     </g>
    </g>
    <g id="xtick_7">
     <g id="line2d_13">
      <path clip-path="url(#pa087f3e946)" d="M 356.781965 288.430125 
L 356.781965 22.318125 
" style="fill:none;stroke:#b0b0b0;stroke-dasharray:2.96,1.28;stroke-dashoffset:0;stroke-width:0.8;"/>
     </g>
     <g id="line2d_14">
      <g>
       <use style="stroke:#000000;stroke-width:0.8;" x="356.781965" xlink:href="#md23d05a523" y="288.430125"/>
      </g>
     </g>
     <g id="text_7">
      <!-- 1200 -->
      <g transform="translate(344.056965 303.028562)scale(0.1 -0.1)">
       <use xlink:href="#DejaVuSans-49"/>
       <use x="63.623047" xlink:href="#DejaVuSans-50"/>
       <use x="127.246094" xlink:href="#DejaVuSans-48"/>
       <use x="190.869141" xlink:href="#DejaVuSans-48"/>
      </g>
     </g>
    </g>
    <g id="text_8">
     <!-- Day -->
     <defs>
      <path d="M 19.671875 64.796875 
L 19.671875 8.109375 
L 31.59375 8.109375 
Q 46.6875 8.109375 53.6875 14.9375 
Q 60.6875 21.78125 60.6875 36.53125 
Q 60.6875 51.171875 53.6875 57.984375 
Q 46.6875 64.796875 31.59375 64.796875 
z
M 9.8125 72.90625 
L 30.078125 72.90625 
Q 51.265625 72.90625 61.171875 64.09375 
Q 71.09375 55.28125 71.09375 36.53125 
Q 71.09375 17.671875 61.125 8.828125 
Q 51.171875 0 30.078125 0 
L 9.8125 0 
z
" id="DejaVuSans-68"/>
      <path d="M 34.28125 27.484375 
Q 23.390625 27.484375 19.1875 25 
Q 14.984375 22.515625 14.984375 16.5 
Q 14.984375 11.71875 18.140625 8.90625 
Q 21.296875 6.109375 26.703125 6.109375 
Q 34.1875 6.109375 38.703125 11.40625 
Q 43.21875 16.703125 43.21875 25.484375 
L 43.21875 27.484375 
z
M 52.203125 31.203125 
L 52.203125 0 
L 43.21875 0 
L 43.21875 8.296875 
Q 40.140625 3.328125 35.546875 0.953125 
Q 30.953125 -1.421875 24.3125 -1.421875 
Q 15.921875 -1.421875 10.953125 3.296875 
Q 6 8.015625 6 15.921875 
Q 6 25.140625 12.171875 29.828125 
Q 18.359375 34.515625 30.609375 34.515625 
L 43.21875 34.515625 
L 43.21875 35.40625 
Q 43.21875 41.609375 39.140625 45 
Q 35.0625 48.390625 27.6875 48.390625 
Q 23 48.390625 18.546875 47.265625 
Q 14.109375 46.140625 10.015625 43.890625 
L 10.015625 52.203125 
Q 14.9375 54.109375 19.578125 55.046875 
Q 24.21875 56 28.609375 56 
Q 40.484375 56 46.34375 49.84375 
Q 52.203125 43.703125 52.203125 31.203125 
z
" id="DejaVuSans-97"/>
      <path d="M 32.171875 -5.078125 
Q 28.375 -14.84375 24.75 -17.8125 
Q 21.140625 -20.796875 15.09375 -20.796875 
L 7.90625 -20.796875 
L 7.90625 -13.28125 
L 13.1875 -13.28125 
Q 16.890625 -13.28125 18.9375 -11.515625 
Q 21 -9.765625 23.484375 -3.21875 
L 25.09375 0.875 
L 2.984375 54.6875 
L 12.5 54.6875 
L 29.59375 11.921875 
L 46.6875 54.6875 
L 56.203125 54.6875 
z
" id="DejaVuSans-121"/>
     </defs>
     <g transform="translate(215.652188 316.706687)scale(0.1 -0.1)">
      <use xlink:href="#DejaVuSans-68"/>
      <use x="77.001953" xlink:href="#DejaVuSans-97"/>
      <use x="138.28125" xlink:href="#DejaVuSans-121"/>
     </g>
    </g>
   </g>
   <g id="matplotlib.axis_2">
    <g id="ytick_1">
     <g id="line2d_15">
      <path clip-path="url(#pa087f3e946)" d="M 46.965625 278.511012 
L 404.085625 278.511012 
" style="fill:none;stroke:#b0b0b0;stroke-dasharray:2.96,1.28;stroke-dashoffset:0;stroke-width:0.8;"/>
     </g>
     <g id="line2d_16">
      <defs>
       <path d="M 0 0 
L -3.5 0 
" id="m1ae788d60b" style="stroke:#000000;stroke-width:0.8;"/>
      </defs>
      <g>
       <use style="stroke:#000000;stroke-width:0.8;" x="46.965625" xlink:href="#m1ae788d60b" y="278.511012"/>
      </g>
     </g>
     <g id="text_9">
      <!-- 50 -->
      <defs>
       <path d="M 10.796875 72.90625 
L 49.515625 72.90625 
L 49.515625 64.59375 
L 19.828125 64.59375 
L 19.828125 46.734375 
Q 21.96875 47.46875 24.109375 47.828125 
Q 26.265625 48.1875 28.421875 48.1875 
Q 40.625 48.1875 47.75 41.5 
Q 54.890625 34.8125 54.890625 23.390625 
Q 54.890625 11.625 47.5625 5.09375 
Q 40.234375 -1.421875 26.90625 -1.421875 
Q 22.3125 -1.421875 17.546875 -0.640625 
Q 12.796875 0.140625 7.71875 1.703125 
L 7.71875 11.625 
Q 12.109375 9.234375 16.796875 8.0625 
Q 21.484375 6.890625 26.703125 6.890625 
Q 35.15625 6.890625 40.078125 11.328125 
Q 45.015625 15.765625 45.015625 23.390625 
Q 45.015625 31 40.078125 35.4375 
Q 35.15625 39.890625 26.703125 39.890625 
Q 22.75 39.890625 18.8125 39.015625 
Q 14.890625 38.140625 10.796875 36.28125 
z
" id="DejaVuSans-53"/>
      </defs>
      <g transform="translate(27.240625 282.310231)scale(0.1 -0.1)">
       <use xlink:href="#DejaVuSans-53"/>
       <use x="63.623047" xlink:href="#DejaVuSans-48"/>
      </g>
     </g>
    </g>
    <g id="ytick_2">
     <g id="line2d_17">
      <path clip-path="url(#pa087f3e946)" d="M 46.965625 222.007103 
L 404.085625 222.007103 
" style="fill:none;stroke:#b0b0b0;stroke-dasharray:2.96,1.28;stroke-dashoffset:0;stroke-width:0.8;"/>
     </g>
     <g id="line2d_18">
      <g>
       <use style="stroke:#000000;stroke-width:0.8;" x="46.965625" xlink:href="#m1ae788d60b" y="222.007103"/>
      </g>
     </g>
     <g id="text_10">
      <!-- 100 -->
      <g transform="translate(20.878125 225.806322)scale(0.1 -0.1)">
       <use xlink:href="#DejaVuSans-49"/>
       <use x="63.623047" xlink:href="#DejaVuSans-48"/>
       <use x="127.246094" xlink:href="#DejaVuSans-48"/>
      </g>
     </g>
    </g>
    <g id="ytick_3">
     <g id="line2d_19">
      <path clip-path="url(#pa087f3e946)" d="M 46.965625 165.503194 
L 404.085625 165.503194 
" style="fill:none;stroke:#b0b0b0;stroke-dasharray:2.96,1.28;stroke-dashoffset:0;stroke-width:0.8;"/>
     </g>
     <g id="line2d_20">
      <g>
       <use style="stroke:#000000;stroke-width:0.8;" x="46.965625" xlink:href="#m1ae788d60b" y="165.503194"/>
      </g>
     </g>
     <g id="text_11">
      <!-- 150 -->
      <g transform="translate(20.878125 169.302413)scale(0.1 -0.1)">
       <use xlink:href="#DejaVuSans-49"/>
       <use x="63.623047" xlink:href="#DejaVuSans-53"/>
       <use x="127.246094" xlink:href="#DejaVuSans-48"/>
      </g>
     </g>
    </g>
    <g id="ytick_4">
     <g id="line2d_21">
      <path clip-path="url(#pa087f3e946)" d="M 46.965625 108.999285 
L 404.085625 108.999285 
" style="fill:none;stroke:#b0b0b0;stroke-dasharray:2.96,1.28;stroke-dashoffset:0;stroke-width:0.8;"/>
     </g>
     <g id="line2d_22">
      <g>
       <use style="stroke:#000000;stroke-width:0.8;" x="46.965625" xlink:href="#m1ae788d60b" y="108.999285"/>
      </g>
     </g>
     <g id="text_12">
      <!-- 200 -->
      <g transform="translate(20.878125 112.798504)scale(0.1 -0.1)">
       <use xlink:href="#DejaVuSans-50"/>
       <use x="63.623047" xlink:href="#DejaVuSans-48"/>
       <use x="127.246094" xlink:href="#DejaVuSans-48"/>
      </g>
     </g>
    </g>
    <g id="ytick_5">
     <g id="line2d_23">
      <path clip-path="url(#pa087f3e946)" d="M 46.965625 52.495376 
L 404.085625 52.495376 
" style="fill:none;stroke:#b0b0b0;stroke-dasharray:2.96,1.28;stroke-dashoffset:0;stroke-width:0.8;"/>
     </g>
     <g id="line2d_24">
      <g>
       <use style="stroke:#000000;stroke-width:0.8;" x="46.965625" xlink:href="#m1ae788d60b" y="52.495376"/>
      </g>
     </g>
     <g id="text_13">
      <!-- 250 -->
      <g transform="translate(20.878125 56.294595)scale(0.1 -0.1)">
       <use xlink:href="#DejaVuSans-50"/>
       <use x="63.623047" xlink:href="#DejaVuSans-53"/>
       <use x="127.246094" xlink:href="#DejaVuSans-48"/>
      </g>
     </g>
    </g>
    <g id="text_14">
     <!-- Price $ -->
     <defs>
      <path d="M 19.671875 64.796875 
L 19.671875 37.40625 
L 32.078125 37.40625 
Q 38.96875 37.40625 42.71875 40.96875 
Q 46.484375 44.53125 46.484375 51.125 
Q 46.484375 57.671875 42.71875 61.234375 
Q 38.96875 64.796875 32.078125 64.796875 
z
M 9.8125 72.90625 
L 32.078125 72.90625 
Q 44.34375 72.90625 50.609375 67.359375 
Q 56.890625 61.8125 56.890625 51.125 
Q 56.890625 40.328125 50.609375 34.8125 
Q 44.34375 29.296875 32.078125 29.296875 
L 19.671875 29.296875 
L 19.671875 0 
L 9.8125 0 
z
" id="DejaVuSans-80"/>
      <path d="M 41.109375 46.296875 
Q 39.59375 47.171875 37.8125 47.578125 
Q 36.03125 48 33.890625 48 
Q 26.265625 48 22.1875 43.046875 
Q 18.109375 38.09375 18.109375 28.8125 
L 18.109375 0 
L 9.078125 0 
L 9.078125 54.6875 
L 18.109375 54.6875 
L 18.109375 46.1875 
Q 20.953125 51.171875 25.484375 53.578125 
Q 30.03125 56 36.53125 56 
Q 37.453125 56 38.578125 55.875 
Q 39.703125 55.765625 41.0625 55.515625 
z
" id="DejaVuSans-114"/>
      <path d="M 9.421875 54.6875 
L 18.40625 54.6875 
L 18.40625 0 
L 9.421875 0 
z
M 9.421875 75.984375 
L 18.40625 75.984375 
L 18.40625 64.59375 
L 9.421875 64.59375 
z
" id="DejaVuSans-105"/>
      <path d="M 48.78125 52.59375 
L 48.78125 44.1875 
Q 44.96875 46.296875 41.140625 47.34375 
Q 37.3125 48.390625 33.40625 48.390625 
Q 24.65625 48.390625 19.8125 42.84375 
Q 14.984375 37.3125 14.984375 27.296875 
Q 14.984375 17.28125 19.8125 11.734375 
Q 24.65625 6.203125 33.40625 6.203125 
Q 37.3125 6.203125 41.140625 7.25 
Q 44.96875 8.296875 48.78125 10.40625 
L 48.78125 2.09375 
Q 45.015625 0.34375 40.984375 -0.53125 
Q 36.96875 -1.421875 32.421875 -1.421875 
Q 20.0625 -1.421875 12.78125 6.34375 
Q 5.515625 14.109375 5.515625 27.296875 
Q 5.515625 40.671875 12.859375 48.328125 
Q 20.21875 56 33.015625 56 
Q 37.15625 56 41.109375 55.140625 
Q 45.0625 54.296875 48.78125 52.59375 
z
" id="DejaVuSans-99"/>
      <path d="M 56.203125 29.59375 
L 56.203125 25.203125 
L 14.890625 25.203125 
Q 15.484375 15.921875 20.484375 11.0625 
Q 25.484375 6.203125 34.421875 6.203125 
Q 39.59375 6.203125 44.453125 7.46875 
Q 49.3125 8.734375 54.109375 11.28125 
L 54.109375 2.78125 
Q 49.265625 0.734375 44.1875 -0.34375 
Q 39.109375 -1.421875 33.890625 -1.421875 
Q 20.796875 -1.421875 13.15625 6.1875 
Q 5.515625 13.8125 5.515625 26.8125 
Q 5.515625 40.234375 12.765625 48.109375 
Q 20.015625 56 32.328125 56 
Q 43.359375 56 49.78125 48.890625 
Q 56.203125 41.796875 56.203125 29.59375 
z
M 47.21875 32.234375 
Q 47.125 39.59375 43.09375 43.984375 
Q 39.0625 48.390625 32.421875 48.390625 
Q 24.90625 48.390625 20.390625 44.140625 
Q 15.875 39.890625 15.1875 32.171875 
z
" id="DejaVuSans-101"/>
      <path id="DejaVuSans-32"/>
      <path d="M 33.796875 -14.703125 
L 28.90625 -14.703125 
L 28.859375 0 
Q 23.734375 0.09375 18.609375 1.1875 
Q 13.484375 2.296875 8.296875 4.5 
L 8.296875 13.28125 
Q 13.28125 10.15625 18.375 8.5625 
Q 23.484375 6.984375 28.90625 6.9375 
L 28.90625 29.203125 
Q 18.109375 30.953125 13.203125 35.15625 
Q 8.296875 39.359375 8.296875 46.6875 
Q 8.296875 54.640625 13.625 59.21875 
Q 18.953125 63.8125 28.90625 64.5 
L 28.90625 75.984375 
L 33.796875 75.984375 
L 33.796875 64.65625 
Q 38.328125 64.453125 42.578125 63.6875 
Q 46.828125 62.9375 50.875 61.625 
L 50.875 53.078125 
Q 46.828125 55.125 42.546875 56.25 
Q 38.28125 57.375 33.796875 57.5625 
L 33.796875 36.71875 
Q 44.875 35.015625 50.09375 30.609375 
Q 55.328125 26.21875 55.328125 18.609375 
Q 55.328125 10.359375 49.78125 5.59375 
Q 44.234375 0.828125 33.796875 0.09375 
z
M 28.90625 37.59375 
L 28.90625 57.625 
Q 23.25 56.984375 20.265625 54.390625 
Q 17.28125 51.8125 17.28125 47.515625 
Q 17.28125 43.3125 20.03125 40.96875 
Q 22.796875 38.625 28.90625 37.59375 
z
M 33.796875 28.21875 
L 33.796875 7.078125 
Q 39.984375 7.90625 43.140625 10.59375 
Q 46.296875 13.28125 46.296875 17.671875 
Q 46.296875 21.96875 43.28125 24.5 
Q 40.28125 27.046875 33.796875 28.21875 
z
" id="DejaVuSans-36"/>
     </defs>
     <g transform="translate(14.798438 172.342094)rotate(-90)scale(0.1 -0.1)">
      <use xlink:href="#DejaVuSans-80"/>
      <use x="58.552734" xlink:href="#DejaVuSans-114"/>
      <use x="99.666016" xlink:href="#DejaVuSans-105"/>
      <use x="127.449219" xlink:href="#DejaVuSans-99"/>
      <use x="182.429688" xlink:href="#DejaVuSans-101"/>
      <use x="243.953125" xlink:href="#DejaVuSans-32"/>
      <use x="275.740234" xlink:href="#DejaVuSans-36"/>
     </g>
    </g>
   </g>
   <g id="line2d_25">
    <path clip-path="url(#pa087f3e946)" d="M 63.198352 259.895364 
L 63.443005 262.719279 
L 63.687658 263.265708 
L 63.932311 265.021699 
L 64.421617 265.953635 
L 64.66627 267.530957 
L 64.910923 267.28127 
L 65.155576 265.48623 
L 66.134188 270.542591 
L 66.378841 270.228946 
L 66.623494 271.04441 
L 67.1128 269.443736 
L 67.357453 270.699771 
L 67.602106 270.984075 
L 67.846759 270.153863 
L 68.091412 270.39865 
L 68.336066 271.023291 
L 68.580719 273.512702 
L 68.825372 274.16051 
L 69.559331 270.070775 
L 69.803984 270.524213 
L 70.048637 269.236709 
L 70.29329 269.105063 
L 70.537943 269.556053 
L 71.027249 271.185873 
L 71.516555 269.743064 
L 71.761208 270.033973 
L 72.005861 270.781889 
L 72.73982 271.717088 
L 73.229126 272.684913 
L 73.473779 271.231538 
L 73.718432 268.411645 
L 73.963085 267.513968 
L 74.452391 269.60355 
L 74.697044 270.805164 
L 75.18635 269.112461 
L 75.431003 269.822329 
L 75.920309 272.426125 
L 76.164962 270.968978 
L 76.409615 271.442117 
L 76.654268 271.595435 
L 76.898921 273.861269 
L 77.388227 273.966468 
L 77.877533 273.946758 
L 78.122186 275.463844 
L 78.366839 275.706246 
L 78.611492 273.474261 
L 79.100798 276.334125 
L 79.834757 271.975105 
L 80.07941 271.522076 
L 80.324063 271.574311 
L 80.568716 272.246869 
L 80.813369 274.212245 
L 81.058022 273.456164 
L 81.302675 275.058929 
L 81.547328 274.064459 
L 82.52594 264.400196 
L 82.770593 263.81024 
L 83.015246 262.566358 
L 83.259899 263.633514 
L 83.749205 260.664723 
L 83.993858 260.966158 
L 84.727817 265.373444 
L 84.97247 265.820075 
L 85.217123 265.477112 
L 85.461776 266.480351 
L 85.706429 266.164258 
L 85.951082 264.324837 
L 86.195735 265.115932 
L 86.440388 264.890532 
L 87.174347 268.180395 
L 87.663653 266.720722 
L 87.908306 267.484559 
L 88.152959 264.602339 
L 88.397612 264.10636 
L 88.886918 260.790075 
L 89.131571 260.156467 
L 89.376224 262.009449 
L 89.86553 260.392127 
L 90.110183 258.115615 
L 90.599489 258.895415 
L 90.844143 257.421645 
L 91.088796 257.503846 
L 91.333449 256.938393 
L 91.578102 256.025938 
L 91.822755 255.56555 
L 92.067408 254.196699 
L 92.556714 252.911196 
L 92.801367 252.977955 
L 93.04602 253.389068 
L 93.290673 252.164926 
L 93.779979 254.338554 
L 94.024632 254.798373 
L 94.513938 252.552158 
L 94.758591 252.431539 
L 95.003244 251.48939 
L 95.247897 252.297728 
L 95.981856 256.105138 
L 96.226509 255.605805 
L 96.715815 250.811724 
L 96.960468 250.77903 
L 97.205121 249.910978 
L 97.694427 253.125931 
L 97.93908 254.159419 
L 98.428386 254.588095 
L 98.673039 254.57987 
L 98.917692 253.236695 
L 99.406998 254.898774 
L 99.651651 255.987226 
L 99.896304 254.961368 
L 100.140957 255.242465 
L 100.38561 255.708965 
L 100.630263 254.542081 
L 100.874916 254.544736 
L 101.119569 253.974507 
L 101.364222 254.189785 
L 101.853528 253.833454 
L 102.098181 252.793689 
L 102.342834 252.658982 
L 102.587487 249.417413 
L 102.83214 248.066436 
L 103.566099 252.279657 
L 103.810752 252.668561 
L 104.055405 252.424365 
L 104.300058 253.095349 
L 104.544711 251.220743 
L 104.789364 250.745664 
L 105.034017 251.808 
L 105.27867 253.494591 
L 105.523323 253.549072 
L 105.767976 254.451836 
L 106.012629 253.039307 
L 106.501935 253.96548 
L 106.746588 253.77855 
L 106.991241 253.877503 
L 107.235894 252.275372 
L 107.480547 252.83034 
L 107.7252 252.738691 
L 107.969853 254.409296 
L 108.214506 252.993344 
L 108.459159 254.525966 
L 108.703812 251.78379 
L 108.948465 251.376203 
L 109.193118 252.126913 
L 109.437771 251.059489 
L 109.682424 252.038306 
L 109.927077 249.159785 
L 110.17173 250.101865 
L 110.416383 249.494208 
L 110.661036 251.074129 
L 110.905689 251.669931 
L 111.150342 252.787619 
L 111.394995 251.631978 
L 111.639648 252.029512 
L 111.884301 251.452428 
L 112.128954 252.039979 
L 112.373607 251.922222 
L 112.61826 252.907316 
L 112.862913 252.358676 
L 113.107566 250.457618 
L 113.35222 251.97998 
L 113.596873 252.517645 
L 113.841526 252.384024 
L 114.086179 252.972178 
L 114.330832 250.678129 
L 114.575485 250.44572 
L 114.820138 250.762502 
L 115.064791 252.670001 
L 115.309444 255.740616 
L 115.554097 254.111438 
L 115.79875 255.156764 
L 116.043403 255.27465 
L 116.288056 255.877211 
L 116.532709 255.373034 
L 116.777362 255.433085 
L 117.022015 254.501282 
L 117.266668 254.406684 
L 117.755974 253.979757 
L 118.000627 254.640059 
L 118.489933 257.115924 
L 118.734586 257.514269 
L 118.979239 254.881409 
L 119.713198 250.480233 
L 119.957851 251.779971 
L 120.447157 251.185799 
L 120.69181 251.830581 
L 120.936463 251.963029 
L 121.181116 252.765944 
L 121.425769 250.375909 
L 121.670422 251.881277 
L 121.915075 252.136431 
L 122.159728 253.325905 
L 122.404381 252.672277 
L 122.649034 252.859068 
L 122.893687 253.637454 
L 123.13834 253.653336 
L 123.627646 253.156831 
L 123.872299 251.921446 
L 124.116952 252.422089 
L 124.361605 251.856119 
L 124.606258 253.276442 
L 125.095564 251.830159 
L 125.340217 253.051214 
L 125.58487 253.14245 
L 125.829523 253.423435 
L 126.074176 253.299798 
L 126.318829 252.948183 
L 126.563482 251.058998 
L 126.808135 251.567228 
L 127.052788 253.001794 
L 127.297441 252.875234 
L 127.542094 252.938346 
L 127.786747 256.901991 
L 128.0314 257.619826 
L 128.276053 257.844536 
L 128.520706 253.899419 
L 129.010012 250.010042 
L 129.499318 250.83709 
L 129.743971 250.142128 
L 129.988624 251.716109 
L 130.47793 252.48489 
L 130.722583 253.161616 
L 130.967236 253.321103 
L 131.211889 252.993086 
L 131.701195 253.263112 
L 131.945848 254.058914 
L 132.435154 251.700142 
L 132.679807 251.54838 
L 132.92446 251.166253 
L 133.169113 250.173658 
L 133.413766 250.231856 
L 133.658419 250.924566 
L 133.903072 249.473205 
L 134.147725 248.753577 
L 134.637031 248.187201 
L 134.881684 248.396893 
L 135.126337 249.242735 
L 135.37099 251.211406 
L 135.615643 250.094234 
L 135.860297 249.804567 
L 136.10495 248.635587 
L 136.349603 248.568949 
L 136.594256 249.455711 
L 136.838909 248.126142 
L 137.083562 248.392858 
L 137.328215 248.473661 
L 137.572868 246.813471 
L 137.817521 247.055476 
L 138.306827 250.905297 
L 138.55148 248.880542 
L 138.796133 248.662919 
L 139.040786 248.901217 
L 139.285439 248.054408 
L 139.530092 249.113141 
L 140.019398 249.032527 
L 140.264051 250.539034 
L 140.508704 247.765767 
L 140.753357 246.579458 
L 140.99801 247.847321 
L 141.242663 247.16787 
L 141.487316 247.622826 
L 141.731969 249.052159 
L 142.221275 245.886954 
L 142.710581 247.883101 
L 142.955234 247.897974 
L 143.199887 247.774993 
L 143.44454 250.303865 
L 143.689193 250.650858 
L 144.178499 251.902927 
L 144.423152 251.10847 
L 144.912458 250.495743 
L 145.157111 248.576011 
L 145.646417 249.073394 
L 146.380376 246.866236 
L 146.625029 244.814771 
L 146.869682 244.734131 
L 147.358988 248.165914 
L 147.848294 248.628457 
L 148.092947 248.302596 
L 148.582253 249.461902 
L 148.826906 247.9934 
L 149.071559 250.625743 
L 149.560865 250.696778 
L 150.050171 248.581373 
L 150.294824 248.836458 
L 150.539477 249.453401 
L 150.78413 250.430097 
L 151.028783 250.108296 
L 151.518089 249.915797 
L 151.762742 250.104046 
L 152.252048 248.48274 
L 152.496701 248.398712 
L 152.741354 248.548524 
L 152.986007 250.020828 
L 153.23066 247.652183 
L 153.475313 248.846787 
L 153.719966 247.964759 
L 153.964619 247.793728 
L 154.209272 248.05446 
L 154.453925 245.685833 
L 154.698578 246.25808 
L 155.187884 246.414177 
L 155.432537 248.261616 
L 155.67719 249.015999 
L 156.166496 251.030822 
L 156.411149 249.68644 
L 156.655802 250.783169 
L 156.900455 247.136866 
L 157.145108 248.795177 
L 157.389761 247.879118 
L 157.634414 245.657467 
L 157.879067 247.075496 
L 158.12372 247.275962 
L 158.368374 246.721657 
L 158.613027 246.457881 
L 158.85768 246.747393 
L 159.346986 250.434589 
L 159.591639 250.440883 
L 159.836292 251.350803 
L 160.325598 247.880049 
L 160.570251 246.646544 
L 160.814904 247.306578 
L 161.059557 247.273746 
L 161.30421 245.219375 
L 161.548863 249.069213 
L 161.793516 250.237132 
L 162.038169 250.22351 
L 162.282822 250.673163 
L 162.527475 250.777927 
L 162.772128 251.704228 
L 163.016781 251.252902 
L 163.75074 252.974911 
L 163.995393 250.286561 
L 164.240046 249.575624 
L 164.484699 246.352575 
L 164.729352 245.739917 
L 164.974005 246.310897 
L 165.218658 248.358534 
L 165.463311 246.962361 
L 165.707964 248.636139 
L 165.952617 247.588572 
L 166.19727 249.13423 
L 166.441923 249.680387 
L 166.686576 247.000366 
L 166.931229 247.151911 
L 167.175882 246.778225 
L 167.420535 246.055157 
L 167.909841 246.820092 
L 168.154494 244.668976 
L 168.399147 244.892574 
L 168.6438 243.837764 
L 168.888453 245.250604 
L 169.133106 244.869692 
L 169.377759 244.121543 
L 169.867065 244.428341 
L 170.111718 243.590293 
L 170.356371 243.550917 
L 171.09033 238.841122 
L 171.334983 241.450505 
L 171.579636 241.346802 
L 171.824289 240.86492 
L 172.068942 241.946363 
L 172.313595 239.816913 
L 172.558248 240.29507 
L 172.802901 243.256654 
L 173.047554 241.561511 
L 173.292207 240.689441 
L 173.781513 246.887205 
L 174.026166 246.226412 
L 174.515472 240.817483 
L 175.004778 239.029156 
L 175.249431 241.939922 
L 175.738737 242.715937 
L 175.98339 241.339646 
L 176.472696 244.002286 
L 176.717349 244.061061 
L 177.451308 239.579701 
L 177.940614 240.92254 
L 178.185267 240.033398 
L 178.674573 247.38564 
L 179.163879 250.179814 
L 179.408532 246.515527 
L 179.897838 250.15857 
L 180.142491 250.018931 
L 180.876451 243.778464 
L 181.121104 243.724241 
L 181.61041 249.222319 
L 181.855063 246.907362 
L 182.344369 250.091734 
L 182.833675 252.201638 
L 183.078328 252.569082 
L 183.322981 250.454152 
L 183.567634 250.717557 
L 183.812287 249.090879 
L 184.05694 245.455441 
L 184.301593 244.769032 
L 184.546246 244.847551 
L 184.790899 243.743226 
L 185.035552 243.423573 
L 185.280205 242.421502 
L 185.524858 242.288623 
L 185.769511 243.60094 
L 186.014164 243.037014 
L 186.258817 242.934483 
L 186.50347 241.882182 
L 187.237429 241.0693 
L 187.482082 241.203309 
L 187.726735 242.738975 
L 187.971388 243.262888 
L 188.216041 242.190722 
L 188.460694 242.547553 
L 188.705347 241.526024 
L 188.95 242.519498 
L 189.194653 242.218097 
L 189.439306 241.587514 
L 189.683959 242.020942 
L 189.928612 243.269035 
L 190.173265 242.558365 
L 190.417918 242.802147 
L 190.662571 242.830185 
L 190.907224 244.284883 
L 191.151877 243.162694 
L 191.39653 244.819892 
L 191.641183 242.737225 
L 191.885836 242.923576 
L 192.130489 243.707497 
L 192.375142 243.803225 
L 192.619795 246.849976 
L 192.864448 245.149271 
L 193.353754 246.758946 
L 193.598407 246.431111 
L 194.087713 243.981524 
L 194.332366 244.367204 
L 194.577019 245.274693 
L 195.066325 244.141235 
L 195.555631 246.873125 
L 195.800284 244.582887 
L 196.044937 243.948624 
L 196.28959 243.942062 
L 196.534243 243.271889 
L 196.778896 245.332976 
L 197.023549 246.075573 
L 197.268202 244.359927 
L 197.512855 244.113154 
L 197.757508 245.021427 
L 198.246814 248.928927 
L 198.491467 245.521009 
L 198.73612 243.917723 
L 199.470079 247.343988 
L 199.959385 242.995258 
L 200.693344 241.139758 
L 200.937997 241.036331 
L 201.427303 244.548719 
L 201.671956 245.079366 
L 201.916609 245.156496 
L 202.161262 244.140304 
L 202.405915 246.024816 
L 202.650568 242.216415 
L 202.895221 243.145562 
L 203.139875 243.086667 
L 203.384528 244.112861 
L 203.629181 243.078036 
L 203.873834 243.527405 
L 204.118487 244.695445 
L 204.36314 243.615391 
L 204.607793 240.671844 
L 204.852446 240.145335 
L 205.341752 239.901864 
L 205.586405 240.347482 
L 205.831058 241.267223 
L 206.075711 242.953598 
L 206.320364 242.768332 
L 206.565017 241.315979 
L 206.80967 242.092391 
L 207.054323 240.788229 
L 207.298976 241.848764 
L 207.543629 242.026046 
L 207.788282 241.016638 
L 208.522241 243.94108 
L 208.766894 244.115818 
L 209.2562 241.689097 
L 209.500853 242.352838 
L 209.745506 243.427056 
L 209.990159 245.242266 
L 210.234812 244.984405 
L 210.479465 250.508064 
L 210.724118 248.175812 
L 210.968771 247.012566 
L 211.213424 244.60577 
L 211.458077 244.799148 
L 211.947383 247.250123 
L 212.192036 244.843939 
L 212.436689 245.879858 
L 212.681342 246.260976 
L 212.925995 248.940644 
L 213.170648 248.301139 
L 213.415301 245.706292 
L 213.659954 244.714344 
L 213.904607 242.419683 
L 214.14926 242.723981 
L 214.393913 245.322121 
L 214.638566 245.487962 
L 215.127872 243.679761 
L 215.372525 244.431023 
L 215.617178 243.773954 
L 215.861831 244.00376 
L 216.106484 244.47045 
L 216.351137 244.673011 
L 216.59579 244.714887 
L 216.840443 244.614322 
L 217.085096 244.074925 
L 217.329749 244.203898 
L 217.574402 243.955961 
L 218.063708 246.325545 
L 218.553014 245.118724 
L 218.797667 243.552357 
L 219.286973 241.886002 
L 219.531626 242.310988 
L 219.776279 239.721349 
L 220.020932 240.75069 
L 220.265585 240.729998 
L 220.510238 241.17553 
L 220.754891 241.255368 
L 220.999544 241.503529 
L 221.244197 240.866395 
L 221.48885 241.294838 
L 221.733503 240.002981 
L 221.978156 239.903002 
L 222.467462 237.835664 
L 222.712115 240.626312 
L 223.201421 238.114649 
L 223.690727 240.85979 
L 223.93538 239.414232 
L 224.180033 243.103376 
L 224.424686 244.303644 
L 224.669339 244.469536 
L 224.913992 242.285873 
L 225.158645 242.42602 
L 225.403298 242.91467 
L 225.647952 242.777463 
L 225.892605 240.924851 
L 226.137258 240.811914 
L 226.381911 240.50527 
L 226.871217 242.503634 
L 227.11587 241.71485 
L 227.360523 242.284579 
L 227.605176 243.439144 
L 227.849829 241.06417 
L 228.094482 242.306315 
L 228.339135 240.459307 
L 228.583788 240.21024 
L 228.828441 241.226148 
L 229.073094 241.692718 
L 229.807053 245.989484 
L 230.296359 246.952911 
L 230.785665 247.469901 
L 231.030318 247.192184 
L 231.274971 247.400366 
L 231.519624 246.424782 
L 231.764277 247.047613 
L 232.00893 247.069349 
L 232.253583 247.570026 
L 232.498236 246.737452 
L 232.742889 246.311992 
L 232.987542 246.606306 
L 233.232195 246.385907 
L 233.476848 247.381165 
L 233.721501 247.109889 
L 234.210807 246.079401 
L 234.45546 246.908225 
L 234.700113 246.02473 
L 234.944766 245.588458 
L 235.189419 243.004734 
L 235.434072 243.926422 
L 235.678725 243.028625 
L 235.923378 242.749304 
L 236.168031 241.991369 
L 236.412684 243.182895 
L 236.657337 241.78285 
L 236.90199 243.390034 
L 237.391296 244.747917 
L 237.635949 244.34521 
L 237.880602 245.37199 
L 238.125255 245.660502 
L 238.369908 246.161222 
L 238.859214 244.922923 
L 239.103867 245.447215 
L 239.34852 244.6301 
L 239.593173 244.769843 
L 239.837826 244.193388 
L 240.082479 245.650449 
L 240.327132 245.398192 
L 240.816438 243.449809 
L 241.305744 244.780275 
L 241.550397 245.330536 
L 242.039703 242.673742 
L 242.284356 244.457664 
L 243.018315 246.539573 
L 243.262968 245.640163 
L 243.507621 245.385638 
L 243.752274 244.869563 
L 243.996927 245.478918 
L 244.24158 244.833946 
L 244.486233 246.318544 
L 244.730886 245.513362 
L 244.975539 245.460881 
L 245.220192 245.131131 
L 245.464845 246.751058 
L 245.954151 245.187845 
L 246.198804 246.482729 
L 246.443457 244.725078 
L 246.68811 244.778283 
L 246.932763 246.080737 
L 247.177416 245.209012 
L 247.666722 247.373087 
L 247.911375 247.055416 
L 248.156029 246.961619 
L 248.400682 246.443776 
L 248.645335 246.341573 
L 248.889988 244.268484 
L 249.134641 244.41684 
L 249.379294 244.39 
L 249.623947 242.873397 
L 249.8686 243.461655 
L 250.113253 245.033946 
L 250.357906 244.319956 
L 250.602559 244.492229 
L 250.847212 243.695573 
L 251.091865 243.924345 
L 251.336518 245.504292 
L 251.581171 245.020039 
L 252.070477 247.085946 
L 252.559783 247.774527 
L 253.293742 247.973199 
L 253.538395 247.259581 
L 253.783048 245.575172 
L 254.027701 245.070399 
L 254.272354 245.745599 
L 254.517007 244.466251 
L 254.76166 244.490108 
L 255.006313 243.934501 
L 255.250966 244.310119 
L 255.495619 244.255733 
L 255.740272 246.201667 
L 255.984925 247.026266 
L 256.474231 244.713361 
L 256.963537 246.523614 
L 257.20819 245.796744 
L 257.452843 243.738519 
L 257.697496 245.162325 
L 258.186802 242.084484 
L 258.431455 244.791716 
L 258.676108 245.530054 
L 258.920761 243.347063 
L 259.165414 242.707729 
L 259.410067 244.067631 
L 259.65472 242.249152 
L 259.899373 243.779248 
L 260.144026 241.908298 
L 260.388679 241.571478 
L 260.633332 242.415079 
L 260.877985 241.897977 
L 261.122638 241.84322 
L 261.367291 241.400292 
L 261.856597 244.558522 
L 262.10125 245.540089 
L 262.345903 245.605288 
L 262.835209 243.496591 
L 263.079862 244.036506 
L 263.324515 244.279632 
L 263.813821 242.177988 
L 264.058474 242.975807 
L 264.303127 240.934688 
L 264.54778 239.899071 
L 265.037086 244.145132 
L 265.281739 244.360651 
L 265.526392 243.694996 
L 265.771045 243.666501 
L 266.015698 243.348804 
L 266.505004 243.080536 
L 266.749657 243.332854 
L 266.99431 243.882503 
L 267.483616 244.488832 
L 267.728269 241.922679 
L 267.972922 241.778082 
L 268.217575 241.435719 
L 268.462228 241.424769 
L 268.706881 240.156837 
L 268.951534 239.637079 
L 269.44084 243.261931 
L 270.419452 241.290209 
L 270.664106 241.550467 
L 270.908759 240.163984 
L 271.153412 242.532646 
L 271.398065 241.989179 
L 271.642718 240.029794 
L 271.887371 241.452393 
L 272.132024 240.481431 
L 272.376677 241.535301 
L 272.62133 241.510849 
L 272.865983 242.026529 
L 273.110636 243.340286 
L 273.355289 241.668594 
L 273.599942 241.360597 
L 273.844595 241.347466 
L 274.089248 239.938222 
L 274.333901 241.834762 
L 274.578554 239.72103 
L 274.823207 241.006542 
L 275.06786 240.179607 
L 275.312513 240.71322 
L 275.557166 240.158915 
L 275.801819 242.190214 
L 276.046472 241.299925 
L 276.291125 242.742104 
L 276.535778 243.471105 
L 276.780431 243.242575 
L 277.025084 245.733528 
L 277.269737 246.844044 
L 277.51439 245.517543 
L 277.759043 243.246731 
L 278.003696 242.808087 
L 278.248349 242.975523 
L 278.493002 243.348114 
L 278.737655 242.362029 
L 278.982308 245.593838 
L 279.471614 246.664382 
L 279.716267 244.434282 
L 279.96092 244.542658 
L 280.205573 245.87196 
L 280.450226 244.078494 
L 280.694879 243.872916 
L 280.939532 246.932064 
L 281.184185 247.549239 
L 281.428838 247.418972 
L 281.673491 245.755824 
L 281.918144 244.950996 
L 282.162797 246.773828 
L 282.40745 247.29718 
L 283.141409 245.371223 
L 283.386062 243.794431 
L 283.630715 243.520102 
L 283.875368 243.798958 
L 284.120021 243.431962 
L 284.364674 242.631288 
L 284.609327 242.847963 
L 284.85398 244.327363 
L 285.098633 243.893616 
L 285.343286 244.722078 
L 285.587939 243.444179 
L 285.832592 244.30761 
L 286.077245 243.247972 
L 286.566551 243.290641 
L 286.811204 241.893097 
L 287.055857 243.207863 
L 287.30051 242.892667 
L 287.545163 243.05643 
L 287.789816 242.364469 
L 288.034469 243.558952 
L 288.279122 242.386481 
L 288.523775 242.307893 
L 288.768428 242.383704 
L 289.013081 243.447145 
L 289.257734 242.913265 
L 289.502387 241.972953 
L 289.74704 244.105394 
L 289.991693 243.631272 
L 290.236346 245.04956 
L 290.480999 243.759289 
L 290.725652 244.873546 
L 291.214958 243.527103 
L 291.459611 243.887762 
L 291.704264 242.46487 
L 291.948917 242.104651 
L 292.19357 242.545605 
L 292.438223 242.07125 
L 292.682876 240.388919 
L 292.92753 241.231796 
L 293.172183 240.525005 
L 293.416836 241.894848 
L 293.661489 242.306944 
L 294.150795 244.246412 
L 294.395448 244.305894 
L 294.640101 243.059292 
L 294.884754 243.232858 
L 295.129407 242.346174 
L 295.37406 243.627134 
L 295.618713 241.872767 
L 295.863366 242.293917 
L 296.108019 242.334819 
L 296.352672 240.960347 
L 296.597325 241.706082 
L 296.841978 243.982835 
L 297.086631 242.23021 
L 297.331284 242.805656 
L 297.575937 242.849946 
L 297.82059 243.120697 
L 298.065243 243.100918 
L 298.309896 243.290814 
L 298.554549 243.115403 
L 298.799202 243.627134 
L 299.043855 243.737234 
L 299.288508 243.446601 
L 299.533161 242.451489 
L 299.777814 242.212467 
L 300.022467 242.553347 
L 300.26712 241.441254 
L 300.756426 243.063922 
L 301.001079 243.499194 
L 301.245732 243.553322 
L 301.490385 244.009847 
L 301.735038 244.840955 
L 301.979691 243.690909 
L 302.224344 245.042507 
L 302.468997 244.623487 
L 302.71365 243.651025 
L 302.958303 243.614451 
L 303.202956 243.356452 
L 303.692262 246.301508 
L 303.936915 245.48009 
L 304.181568 245.978181 
L 304.426221 245.391424 
L 304.670874 245.563662 
L 304.915527 246.616255 
L 305.404833 245.918691 
L 305.649486 246.304534 
L 305.894139 246.481712 
L 306.383445 245.247784 
L 306.628098 245.554359 
L 306.872751 243.99901 
L 307.117404 243.334225 
L 307.362057 245.649336 
L 307.60671 243.767462 
L 307.851363 242.765633 
L 308.096016 242.997345 
L 308.340669 243.425357 
L 308.585322 244.336674 
L 308.829975 244.116447 
L 309.074628 244.346727 
L 309.319281 243.97961 
L 309.563934 245.541478 
L 309.808587 243.816469 
L 310.05324 244.351297 
L 310.297893 245.880815 
L 310.787199 244.522862 
L 311.031852 244.443723 
L 311.276505 243.550951 
L 311.765811 244.118215 
L 312.010464 242.348545 
L 312.255117 243.614882 
L 312.49977 243.738829 
L 312.744423 242.247075 
L 312.989076 243.876019 
L 313.233729 244.379111 
L 313.478382 245.476417 
L 313.723035 244.026091 
L 313.967688 244.349383 
L 314.456994 242.894176 
L 314.9463 243.768454 
L 315.190953 244.773153 
L 315.435607 243.534897 
L 315.924913 243.167117 
L 316.169566 242.460516 
L 316.414219 243.25562 
L 316.658872 242.032357 
L 316.903525 242.879657 
L 317.148178 244.484392 
L 317.392831 243.729966 
L 317.637484 245.758213 
L 317.882137 245.090764 
L 318.12679 246.95248 
L 318.371443 245.965197 
L 318.616096 243.790698 
L 318.860749 243.228642 
L 319.350055 246.054812 
L 319.594708 246.194778 
L 319.839361 245.825377 
L 320.084014 244.618056 
L 320.328667 244.927803 
L 320.57332 245.666356 
L 321.062626 245.560325 
L 321.307279 245.706335 
L 321.796585 245.041481 
L 322.041238 246.036223 
L 322.285891 244.935166 
L 322.530544 246.54253 
L 322.775197 246.115302 
L 323.01985 247.898578 
L 323.509156 244.585422 
L 323.998462 247.109259 
L 324.243115 246.921287 
L 324.487768 244.786879 
L 324.732421 245.086944 
L 325.221727 247.834224 
L 325.46638 246.820239 
L 325.711033 244.778585 
L 325.955686 244.457121 
L 326.200339 243.178144 
L 326.444992 243.867734 
L 326.689645 242.707841 
L 326.934298 243.304152 
L 327.423604 241.561796 
L 327.91291 242.909497 
L 328.157563 243.496832 
L 328.646869 246.116277 
L 328.891522 244.928303 
L 329.136175 244.685375 
L 329.380828 244.863984 
L 329.625481 243.679468 
L 329.870134 245.211288 
L 330.114787 244.863165 
L 330.35944 242.670268 
L 331.093399 243.650818 
L 331.338052 243.373695 
L 331.827358 244.545598 
L 332.316664 247.159999 
L 332.561317 247.926202 
L 333.050623 247.880274 
L 333.295276 247.187054 
L 333.539929 247.934651 
L 333.784582 247.952593 
L 334.029235 248.394323 
L 334.518541 247.96725 
L 334.763194 247.204858 
L 335.007847 247.058598 
L 335.2525 248.414464 
L 335.497153 248.285059 
L 335.741806 248.637803 
L 336.231112 248.710632 
L 336.475765 247.864625 
L 336.720418 244.964937 
L 336.965071 244.689849 
L 337.209724 245.272529 
L 337.454377 244.126052 
L 337.69903 245.284763 
L 337.943684 244.869028 
L 338.188337 244.97699 
L 338.43299 243.619417 
L 338.677643 242.996043 
L 338.922296 243.026917 
L 339.166949 242.091132 
L 339.411602 243.661724 
L 339.656255 244.358039 
L 339.900908 243.676381 
L 340.145561 242.193895 
L 340.390214 242.080915 
L 340.634867 243.014407 
L 340.87952 242.63785 
L 341.124173 242.516886 
L 341.368826 242.08013 
L 341.613479 241.89214 
L 341.858132 242.055627 
L 342.102785 241.276784 
L 342.347438 240.957717 
L 342.592091 240.83427 
L 343.32605 242.384799 
L 343.570703 241.194256 
L 344.060009 242.998181 
L 344.304662 240.986281 
L 344.549315 240.944112 
L 344.793968 242.267267 
L 345.283274 240.631881 
L 345.527927 239.575089 
L 346.017233 240.574934 
L 346.261886 240.103019 
L 346.506539 241.061239 
L 346.751192 240.412008 
L 346.995845 239.072239 
L 347.240498 239.896794 
L 347.485151 241.42289 
L 347.729804 242.050204 
L 347.974457 241.9228 
L 348.21911 243.011743 
L 348.463763 243.507437 
L 348.953069 242.23997 
L 349.197722 240.780021 
L 349.442375 241.796205 
L 349.687028 240.951432 
L 349.931681 241.428442 
L 350.176334 241.038124 
L 350.420987 241.44854 
L 350.66564 243.494478 
L 350.910293 243.0879 
L 351.154946 243.80626 
L 351.399599 243.677744 
L 351.888905 242.487692 
L 352.133558 240.57321 
L 352.378211 241.152751 
L 352.622864 242.76766 
L 352.867517 241.297434 
L 353.11217 240.82582 
L 353.356823 242.601845 
L 353.601476 242.541673 
L 353.846129 242.219105 
L 354.090782 241.054695 
L 354.335435 242.111971 
L 354.580088 242.037013 
L 355.314047 240.52379 
L 355.5587 242.233823 
L 355.803353 242.014691 
L 356.292659 242.659361 
L 356.781965 242.575919 
L 357.026618 242.089571 
L 357.271271 242.915972 
L 357.515924 242.476561 
L 357.760577 243.652232 
L 358.249883 240.048866 
L 358.494536 240.357199 
L 358.983842 242.021243 
L 359.717801 239.445253 
L 359.962454 240.241581 
L 360.207107 242.962357 
L 360.696414 240.126505 
L 360.941067 239.984254 
L 361.18572 238.79209 
L 361.430373 238.639605 
L 361.675026 239.142696 
L 361.919679 238.239113 
L 362.408985 239.889569 
L 362.653638 240.090423 
L 362.898291 237.843441 
L 363.387597 241.07312 
L 363.876903 238.815145 
L 364.121556 238.231819 
L 364.366209 238.96288 
L 364.610862 240.51046 
L 364.855515 238.937144 
L 365.100168 239.113304 
L 365.344821 239.563363 
L 365.589474 239.468376 
L 365.834127 238.982994 
L 366.07878 238.795548 
L 366.323433 238.348532 
L 366.568086 239.99654 
L 366.812739 239.825294 
L 367.302045 240.842081 
L 367.546698 239.449253 
L 367.791351 240.473783 
L 368.036004 240.74318 
L 368.769963 237.929116 
L 369.259269 239.949094 
L 369.503922 239.431949 
L 369.748575 241.075422 
L 369.993228 241.340284 
L 370.237881 241.309754 
L 370.482534 241.157579 
L 370.97184 237.296533 
L 371.216493 237.870393 
L 371.461146 237.494025 
L 371.705799 239.174562 
L 371.950452 239.965924 
L 372.195105 238.414791 
L 372.439758 238.484938 
L 372.684411 239.992859 
L 372.929064 240.50152 
L 373.173717 241.53387 
L 373.41837 241.707694 
L 373.663023 242.220657 
L 373.907676 239.883086 
L 374.152329 239.109838 
L 374.396982 238.845649 
L 374.641635 237.918356 
L 374.886288 239.860143 
L 375.130941 240.586919 
L 375.375594 239.592962 
L 375.620247 239.768631 
L 375.8649 238.378683 
L 376.109553 237.935237 
L 376.354206 239.565018 
L 376.598859 238.847727 
L 377.332818 242.057602 
L 377.577471 240.218991 
L 377.822124 241.433443 
L 378.066777 241.540181 
L 378.31143 240.4982 
L 378.556083 241.479095 
L 379.045389 241.810311 
L 379.290042 241.690769 
L 379.779348 241.115556 
L 380.024001 241.108711 
L 380.268654 240.276016 
L 380.75796 240.327497 
L 381.002613 239.726746 
L 381.247266 240.485199 
L 381.491919 239.016275 
L 381.736572 239.536998 
L 381.981225 238.528168 
L 382.225878 238.547093 
L 382.470531 237.700138 
L 382.715184 238.979916 
L 382.959838 238.780985 
L 383.204491 239.011481 
L 383.93845 240.160699 
L 384.183103 237.882782 
L 384.427756 238.679282 
L 384.917062 235.517224 
L 385.161715 237.391442 
L 385.406368 237.383467 
L 385.651021 236.440129 
L 385.895674 237.302215 
L 386.140327 236.10449 
L 386.38498 236.316061 
L 386.629633 236.942824 
L 386.874286 236.878789 
L 387.608245 239.642908 
L 387.852898 240.208542 
L 387.852898 240.208542 
" style="fill:none;stroke:#1f77b4;stroke-linecap:square;stroke-width:1.5;"/>
   </g>
   <g id="line2d_26">
    <path clip-path="url(#pa087f3e946)" d="M 63.198352 249.682718 
L 63.687658 251.490843 
L 64.176964 253.660593 
L 64.421617 252.733929 
L 64.66627 252.643522 
L 64.910923 250.8693 
L 65.155576 250.711089 
L 65.400229 251.072714 
L 65.889535 251.174421 
L 66.134188 251.60385 
L 66.378841 252.440108 
L 66.623494 251.795964 
L 66.868147 251.490843 
L 67.1128 251.581249 
L 67.602106 252.745229 
L 67.846759 255.50262 
L 68.091412 254.677663 
L 68.580719 254.191729 
L 68.825372 254.282136 
L 69.070025 254.982784 
L 69.314678 254.327339 
L 69.559331 254.92628 
L 70.048637 252.722628 
L 70.29329 252.643522 
L 70.537943 254.688964 
L 70.782596 254.474249 
L 71.027249 254.824573 
L 71.271902 254.123925 
L 71.516555 254.462948 
L 71.761208 255.999855 
L 72.005861 255.400913 
L 72.250514 256.022456 
L 72.495167 256.07896 
L 72.984473 255.875546 
L 73.229126 256.610097 
L 73.473779 255.626929 
L 73.718432 255.79644 
L 73.963085 256.37278 
L 74.207738 255.898148 
L 74.452391 256.440585 
L 74.697044 256.067659 
L 74.941697 255.977253 
L 75.18635 254.903679 
L 75.431003 255.265304 
L 75.675656 255.186198 
L 75.920309 255.525222 
L 76.164962 254.971483 
L 76.409615 253.818804 
L 76.654268 253.366772 
L 76.898921 251.976776 
L 77.143574 251.807265 
L 77.388227 251.095315 
L 77.877533 251.728159 
L 78.122186 252.722628 
L 78.366839 252.846936 
L 78.611492 254.169128 
L 78.856145 254.655062 
L 79.100798 255.412214 
L 79.345451 255.016687 
L 79.590104 255.852944 
L 79.834757 255.446116 
L 80.07941 253.62669 
L 80.324063 255.78514 
L 80.568716 254.801972 
L 80.813369 252.236694 
L 81.058022 251.73946 
L 81.302675 252.112386 
L 81.547328 254.451647 
L 82.036634 255.039288 
L 82.281287 253.694495 
L 83.259899 251.084014 
L 83.504552 250.835397 
L 83.749205 251.287429 
L 83.993858 251.253526 
L 84.238511 251.072714 
L 84.483164 251.366534 
L 84.727817 251.332632 
L 84.97247 251.536046 
L 85.217123 251.411737 
L 85.951082 249.332393 
L 86.195735 249.727921 
L 86.440388 251.027511 
L 86.685041 251.366534 
L 87.174347 249.671417 
L 87.419 249.682718 
L 87.663653 248.902964 
L 87.908306 248.936866 
L 88.152959 249.162882 
L 88.397612 249.106378 
L 88.642265 249.321093 
L 88.886918 250.609382 
L 89.131571 249.852229 
L 89.376224 247.919796 
L 89.86553 247.219147 
L 90.354836 251.242225 
L 90.599489 248.27012 
L 90.844143 247.897194 
L 91.088796 250.078245 
L 91.333449 248.507436 
L 91.578102 248.066706 
L 91.822755 251.004909 
L 92.067408 249.965237 
L 92.312061 250.213854 
L 92.556714 251.208323 
L 92.801367 251.061413 
L 93.04602 249.897432 
L 93.290673 250.225155 
L 93.535326 251.389136 
L 93.779979 251.784663 
L 94.024632 250.722389 
L 94.269285 251.536046 
L 94.513938 250.405968 
L 94.758591 250.021741 
L 95.49255 247.512967 
L 95.981856 249.275889 
L 96.226509 249.14028 
L 96.471162 250.507675 
L 96.960468 250.225155 
L 97.205121 250.654585 
L 97.449774 250.507675 
L 97.694427 249.117678 
L 97.93908 248.383128 
L 98.183733 250.225155 
L 98.428386 249.524507 
L 98.673039 247.592073 
L 98.917692 248.111909 
L 99.162345 247.682479 
L 99.406998 247.897194 
L 99.651651 246.122971 
L 99.896304 245.648338 
L 100.140957 243.422084 
L 100.38561 243.21867 
L 100.874916 239.907541 
L 101.119569 239.240795 
L 101.364222 239.387705 
L 101.608875 237.342264 
L 101.853528 238.754862 
L 102.098181 238.381936 
L 102.342834 238.540147 
L 102.587487 239.715428 
L 102.83214 239.16169 
L 103.076793 239.127787 
L 103.321446 237.127549 
L 104.055405 238.675756 
L 104.300058 239.986647 
L 104.544711 239.681526 
L 104.789364 239.01478 
L 105.034017 237.636084 
L 106.257282 234.562271 
L 106.501935 236.958037 
L 106.746588 236.822428 
L 106.991241 237.048443 
L 107.235894 237.692588 
L 107.480547 235.613244 
L 107.7252 236.765924 
L 107.969853 235.364627 
L 108.214506 232.36992 
L 108.703812 230.087162 
L 108.948465 231.160736 
L 109.193118 231.714474 
L 109.437771 231.974392 
L 109.682424 230.810412 
L 109.927077 229.081392 
L 110.416383 227.89481 
L 110.661036 228.742369 
L 110.905689 228.098224 
L 111.150342 228.516353 
L 111.394995 227.928713 
L 111.884301 225.374736 
L 112.128954 225.87197 
L 112.373607 223.227587 
L 112.61826 223.453603 
L 112.862913 223.419701 
L 113.107566 224.346365 
L 113.35222 222.289622 
L 113.841526 221.882794 
L 114.086179 223.035474 
L 114.330832 221.396861 
L 114.575485 223.11458 
L 114.820138 221.170845 
L 115.309444 223.713521 
L 115.554097 222.278322 
L 115.79875 219.193208 
L 116.043403 219.475728 
L 116.288056 220.029466 
L 116.532709 221.012634 
L 116.777362 219.566134 
L 117.022015 219.93906 
L 117.511321 217.396384 
L 118.000627 222.413931 
L 118.24528 222.029704 
L 118.489933 224.436771 
L 118.734586 223.510107 
L 119.223892 218.447357 
L 119.468545 219.249712 
L 119.713198 218.34565 
L 119.957851 220.345888 
L 120.447157 217.260775 
L 120.69181 217.068661 
L 120.936463 216.718337 
L 121.181116 215.791673 
L 121.425769 214.232165 
L 121.670422 219.893857 
L 121.915075 215.61086 
L 122.159728 217.226872 
L 122.404381 216.594028 
L 122.649034 213.384606 
L 122.893687 214.141759 
L 123.13834 214.254767 
L 123.382993 213.203794 
L 123.627646 214.15306 
L 123.872299 214.435579 
L 124.361605 216.571427 
L 124.606258 215.531755 
L 124.850911 216.243704 
L 125.340217 213.079485 
L 125.829523 214.051353 
L 126.563482 215.983786 
L 126.808135 217.215571 
L 127.052788 214.966716 
L 127.542094 218.921989 
L 127.786747 218.085732 
L 128.0314 216.673134 
L 128.276053 216.774841 
L 128.520706 217.588497 
L 128.765359 216.198501 
L 129.010012 215.814274 
L 129.254665 215.757771 
L 129.499318 218.379552 
L 129.743971 218.311747 
L 129.988624 216.435817 
L 130.233277 217.577196 
L 130.722583 214.808505 
L 130.967236 214.492083 
L 131.211889 215.147528 
L 131.945848 211.576481 
L 132.190501 210.932337 
L 132.435154 209.203317 
L 132.679807 204.298778 
L 133.169113 201.213664 
L 133.413766 200.490414 
L 133.658419 203.213903 
L 133.903072 202.219434 
L 134.147725 200.535617 
L 134.392378 201.089356 
L 134.637031 200.106188 
L 134.881684 200.829438 
L 135.126337 202.230735 
L 135.37099 201.948215 
L 135.615643 201.846508 
L 135.860297 204.784711 
L 136.10495 202.569758 
L 136.349603 203.146098 
L 136.838909 205.654872 
L 137.083562 200.648625 
L 137.328215 201.688297 
L 137.572868 200.015782 
L 137.817521 201.462282 
L 138.306827 196.81766 
L 138.55148 196.557742 
L 138.796133 197.744324 
L 139.040786 196.602945 
L 139.285439 189.212234 
L 139.530092 189.257437 
L 139.774745 186.759964 
L 140.019398 188.240367 
L 140.264051 188.488984 
L 140.508704 188.466383 
L 140.753357 187.539718 
L 140.99801 184.680621 
L 141.242663 184.951839 
L 141.487316 184.070378 
L 141.731969 184.612816 
L 141.976622 186.398339 
L 142.221275 184.160785 
L 142.465928 185.24566 
L 142.710581 185.471675 
L 142.955234 184.52241 
L 143.199887 182.35266 
L 143.44454 181.233882 
L 143.689193 178.657304 
L 143.933846 180.216812 
L 144.178499 185.336066 
L 144.423152 184.793628 
L 144.667805 181.358191 
L 144.912458 184.714523 
L 145.157111 182.702984 
L 145.401764 182.770788 
L 145.646417 183.301925 
L 145.89107 183.403632 
L 146.135723 185.844601 
L 146.380376 186.40964 
L 146.625029 185.019644 
L 146.869682 182.250953 
L 147.114335 182.815992 
L 147.603641 185.211757 
L 147.848294 184.759726 
L 148.582253 181.459898 
L 149.071559 182.262253 
L 149.316212 180.567136 
L 149.560865 180.872257 
L 149.805518 180.386324 
L 150.050171 178.759011 
L 150.539477 181.414695 
L 150.78413 180.77055 
L 151.028783 180.567136 
L 151.518089 178.6008 
L 151.762742 176.227636 
L 152.007395 175.877312 
L 152.252048 174.396909 
L 152.496701 174.656827 
L 152.986007 176.792675 
L 153.23066 176.103327 
L 153.475313 176.566659 
L 153.719966 176.28414 
L 153.964619 174.916745 
L 154.209272 171.865534 
L 154.453925 175.323573 
L 154.698578 180.589738 
L 154.943231 179.787382 
L 155.187884 180.092503 
L 155.432537 188.353375 
L 155.67719 192.026129 
L 155.921843 193.461328 
L 156.166496 195.924898 
L 156.655802 197.82343 
L 156.900455 196.388231 
L 157.145108 191.47239 
L 157.389761 191.31418 
L 157.634414 187.923945 
L 157.879067 190.218004 
L 158.12372 188.669797 
L 158.613027 187.392808 
L 158.85768 189.924183 
L 159.102333 188.601992 
L 159.346986 190.048492 
L 159.591639 188.56809 
L 159.836292 191.743609 
L 160.080945 191.935723 
L 160.325598 189.73207 
L 160.570251 189.325242 
L 160.814904 190.116297 
L 161.059557 187.84484 
L 161.30421 189.472152 
L 161.548863 189.393047 
L 161.793516 189.754672 
L 162.282822 192.997996 
L 162.527475 194.399293 
L 162.772128 197.269692 
L 163.016781 195.890996 
L 163.261434 193.280516 
L 163.75074 196.874164 
L 163.995393 195.190348 
L 164.240046 196.489938 
L 164.729352 194.862625 
L 165.218658 195.777988 
L 165.707964 193.20141 
L 165.952617 190.127597 
L 166.19727 190.01459 
L 166.441923 189.483453 
L 167.175882 194.715715 
L 167.420535 191.630601 
L 167.665188 195.292055 
L 167.909841 197.066277 
L 168.6438 192.579867 
L 168.888453 190.45532 
L 169.133106 190.568328 
L 169.377759 190.873449 
L 169.622412 187.392808 
L 169.867065 188.262968 
L 170.356371 191.449789 
L 170.601024 189.946785 
L 170.845677 189.212234 
L 171.09033 189.845078 
L 171.579636 185.889804 
L 171.824289 187.166793 
L 172.068942 187.70923 
L 172.313595 187.460613 
L 172.558248 186.861671 
L 173.047554 184.205988 
L 173.292207 184.725824 
L 173.53686 186.737363 
L 173.781513 187.189394 
L 174.026166 186.579152 
L 174.270819 188.57939 
L 174.760125 186.025414 
L 175.004778 185.381269 
L 175.249431 183.392331 
L 175.494084 183.211519 
L 175.738737 182.296156 
L 175.98339 182.171847 
L 176.228043 181.437296 
L 176.472696 181.459898 
L 176.717349 182.081441 
L 177.206655 178.781613 
L 177.451308 179.109335 
L 177.695961 179.911691 
L 178.185267 185.629886 
L 178.42992 185.516878 
L 178.674573 185.234359 
L 178.919226 185.336066 
L 179.163879 185.302164 
L 179.408532 184.917937 
L 179.653185 185.731593 
L 180.142491 189.065324 
L 180.387144 191.427187 
L 180.876451 189.754672 
L 181.121104 191.235074 
L 181.365757 190.195402 
L 181.61041 190.794344 
L 182.099716 189.133129 
L 182.344369 191.732308 
L 182.833675 191.732308 
L 183.322981 188.647195 
L 183.567634 189.121828 
L 184.05694 192.76068 
L 184.301593 190.771742 
L 184.546246 190.02589 
L 184.790899 188.398578 
L 185.280205 194.433195 
L 185.524858 195.789289 
L 185.769511 195.9475 
L 186.014164 196.783758 
L 186.258817 196.81766 
L 186.50347 198.863102 
L 186.748123 198.97611 
L 186.992776 199.484645 
L 187.237429 197.97034 
L 187.482082 201.281469 
L 187.726735 199.586352 
L 187.971388 198.69359 
L 188.216041 198.501477 
L 188.460694 198.874403 
L 188.95 194.760918 
L 189.194653 195.834492 
L 189.439306 193.77775 
L 189.683959 193.099703 
L 189.928612 191.099465 
L 190.173265 190.929953 
L 190.417918 190.975156 
L 190.662571 189.991988 
L 190.907224 189.686867 
L 191.151877 190.138898 
L 191.39653 191.370683 
L 191.641183 191.721008 
L 191.885836 193.212711 
L 192.130489 192.692875 
L 192.375142 193.235312 
L 192.619795 194.105473 
L 192.864448 190.387515 
L 193.109101 190.127597 
L 193.353754 190.116297 
L 194.087713 192.274746 
L 194.332366 191.133367 
L 194.577019 190.636133 
L 195.066325 188.839308 
L 195.310978 189.675566 
L 195.555631 191.065562 
L 195.800284 189.709469 
L 196.044937 191.336781 
L 196.28959 189.58516 
L 196.534243 189.494754 
L 196.778896 191.065562 
L 197.023549 194.128074 
L 197.268202 194.693113 
L 197.512855 192.218242 
L 197.757508 192.33125 
L 198.002161 195.65368 
L 198.246814 193.77775 
L 198.73612 197.710422 
L 198.980773 198.897004 
L 199.225426 196.81766 
L 199.470079 199.190824 
L 199.714732 199.077817 
L 199.959385 195.744086 
L 200.204038 194.534902 
L 200.448691 191.359383 
L 200.693344 197.766926 
L 200.937997 197.111481 
L 201.18265 196.874164 
L 201.427303 197.009774 
L 201.671956 195.325957 
L 201.916609 195.924898 
L 202.405915 193.856855 
L 202.650568 192.591168 
L 202.895221 192.805883 
L 203.139875 194.636609 
L 203.384528 194.229781 
L 203.629181 194.376691 
L 203.873834 194.161977 
L 204.36314 192.77198 
L 204.607793 189.765972 
L 204.852446 189.393047 
L 205.097099 189.890281 
L 205.341752 187.358906 
L 205.586405 186.285332 
L 205.831058 186.183625 
L 206.075711 184.96314 
L 206.320364 182.895097 
L 206.565017 182.669081 
L 206.80967 182.702984 
L 207.054323 183.177617 
L 207.298976 185.403871 
L 207.543629 185.528179 
L 207.788282 185.878503 
L 208.032935 186.613054 
L 208.277588 185.607285 
L 208.522241 187.788336 
L 208.766894 188.488984 
L 209.011547 194.161977 
L 209.2562 195.597176 
L 209.500853 198.535379 
L 209.745506 197.054977 
L 209.990159 194.602707 
L 210.479465 192.997996 
L 210.724118 192.365152 
L 211.213424 188.070855 
L 211.458077 186.703461 
L 211.70273 186.26273 
L 211.947383 185.516878 
L 212.192036 186.036714 
L 212.436689 188.127359 
L 212.681342 188.161261 
L 212.925995 189.178332 
L 213.170648 190.896051 
L 213.659954 186.070617 
L 213.904607 186.364437 
L 214.14926 187.121589 
L 214.393913 186.782566 
L 214.638566 187.675328 
L 214.883219 187.946547 
L 215.372525 186.726062 
L 215.617178 185.381269 
L 215.861831 181.731117 
L 216.59579 185.302164 
L 217.085096 168.011967 
L 217.329749 170.735456 
L 217.819055 168.509202 
L 218.063708 168.644811 
L 218.308361 167.085303 
L 218.797667 168.237983 
L 219.04232 167.718147 
L 219.286973 167.853757 
L 219.531626 167.661643 
L 219.776279 165.808315 
L 220.020932 165.5936 
L 220.265585 164.181002 
L 220.510238 161.265401 
L 220.754891 156.112244 
L 220.999544 160.146623 
L 221.244197 160.553451 
L 221.978156 164.542627 
L 222.467462 159.208658 
L 222.712115 160.587354 
L 222.956768 160.451744 
L 223.201421 161.97735 
L 223.446074 160.135323 
L 223.690727 162.768405 
L 223.93538 164.181002 
L 224.180033 163.197834 
L 224.424686 163.728971 
L 224.669339 161.355807 
L 225.158645 159.027846 
L 225.403298 160.858573 
L 225.647952 160.417842 
L 226.137258 163.638565 
L 226.381911 167.503432 
L 226.626564 167.571237 
L 226.871217 166.802784 
L 227.11587 162.451983 
L 227.605176 167.0401 
L 227.849829 166.31685 
L 228.339135 162.881413 
L 228.583788 161.706131 
L 228.828441 161.638327 
L 229.073094 160.553451 
L 229.317747 161.841741 
L 229.5624 161.875643 
L 230.051706 163.27694 
L 230.296359 165.955225 
L 230.541012 162.485885 
L 230.785665 161.740034 
L 231.274971 165.650104 
L 231.519624 167.311319 
L 231.764277 167.989366 
L 232.00893 168.317089 
L 232.253583 169.853995 
L 232.498236 173.029515 
L 232.742889 171.526511 
L 232.987542 172.261061 
L 233.232195 173.515448 
L 233.476848 175.628694 
L 233.721501 175.120159 
L 233.966154 170.633749 
L 234.210807 170.147815 
L 234.45546 170.667651 
L 234.700113 170.452936 
L 234.944766 167.808553 
L 235.189419 169.029038 
L 235.434072 169.221151 
L 235.678725 168.836925 
L 235.923378 169.548874 
L 236.168031 168.497901 
L 236.657337 173.639757 
L 236.90199 173.413741 
L 237.146643 174.170894 
L 237.391296 176.216335 
L 237.635949 175.391378 
L 237.880602 173.131222 
L 238.125255 172.498378 
L 238.369908 175.459183 
L 238.614561 175.979019 
L 238.859214 176.080726 
L 239.103867 176.690968 
L 239.593173 173.458944 
L 239.837826 173.639757 
L 240.082479 174.216097 
L 240.327132 174.159593 
L 240.571785 172.927808 
L 240.816438 170.724155 
L 241.061091 171.006675 
L 241.305744 170.36253 
L 242.039703 174.035284 
L 242.284356 174.001382 
L 242.529009 178.239175 
L 242.773662 178.250476 
L 243.018315 175.979019 
L 243.262968 176.566659 
L 243.507621 176.216335 
L 243.752274 173.244229 
L 243.996927 174.634226 
L 244.24158 173.639757 
L 244.975539 168.04587 
L 245.220192 169.017737 
L 245.464845 167.209612 
L 245.709498 169.074241 
L 245.954151 169.20985 
L 246.198804 171.153585 
L 246.443457 169.49237 
L 246.68811 169.899198 
L 246.932763 172.215858 
L 247.177416 175.639995 
L 247.422069 174.758534 
L 247.666722 172.125452 
L 247.911375 173.40244 
L 248.156029 172.09155 
L 248.400682 172.633987 
L 248.645335 172.803499 
L 248.889988 171.210089 
L 249.379294 174.069186 
L 249.623947 170.181718 
L 250.113253 174.057886 
L 250.357906 171.3683 
L 250.602559 171.051878 
L 250.847212 171.786429 
L 251.091865 171.605616 
L 251.336518 173.730163 
L 252.070477 191.280277 
L 252.31513 193.20141 
L 252.804436 185.991511 
L 253.049089 184.443304 
L 253.538395 190.997758 
L 253.783048 187.392808 
L 254.027701 186.952078 
L 254.272354 188.375976 
L 254.517007 183.787859 
L 254.76166 185.11005 
L 255.250966 182.827292 
L 255.495619 183.098511 
L 255.740272 180.985265 
L 255.984925 179.968195 
L 256.229578 179.685675 
L 256.474231 181.222581 
L 256.718884 181.301687 
L 257.452843 188.387277 
L 257.697496 186.963379 
L 257.942149 190.218004 
L 258.186802 189.517355 
L 258.431455 187.031183 
L 258.676108 187.41541 
L 259.165414 183.561843 
L 259.410067 182.872496 
L 259.899373 177.888851 
L 260.144026 177.142999 
L 260.388679 176.035523 
L 260.633332 176.476253 
L 260.877985 183.335828 
L 261.122638 179.75348 
L 261.367291 179.516163 
L 261.856597 178.069663 
L 262.10125 175.459183 
L 262.345903 169.673182 
L 262.590556 169.232452 
L 262.835209 169.232452 
L 263.079862 167.243514 
L 263.569168 168.690014 
L 263.813821 167.684245 
L 264.058474 167.311319 
L 264.303127 167.661643 
L 264.54778 167.548635 
L 264.792433 167.797253 
L 265.037086 167.831155 
L 265.281739 170.046108 
L 265.526392 170.984073 
L 265.771045 171.164886 
L 266.015698 173.933577 
L 266.260351 173.877073 
L 267.238963 166.362053 
L 267.483616 166.181241 
L 267.728269 167.379124 
L 267.972922 167.028799 
L 268.217575 168.407495 
L 268.462228 168.949932 
L 268.706881 170.64505 
L 268.951534 168.057171 
L 269.196187 168.938632 
L 269.44084 170.520741 
L 269.685493 167.198311 
L 269.930146 167.254815 
L 270.174799 171.164886 
L 270.419452 172.012444 
L 270.664106 169.560175 
L 271.153412 173.413741 
L 271.398065 169.424565 
L 271.642718 167.639042 
L 271.887371 170.520741 
L 272.132024 177.278609 
L 272.865983 172.215858 
L 273.110636 172.8148 
L 273.355289 171.673421 
L 273.599942 168.497901 
L 273.844595 169.560175 
L 274.089248 171.616917 
L 274.333901 176.238937 
L 274.578554 175.594792 
L 274.823207 178.126167 
L 275.06786 184.703222 
L 275.312513 188.116058 
L 275.557166 187.867441 
L 275.801819 185.935007 
L 276.046472 190.229304 
L 276.291125 189.00882 
L 276.535778 193.043199 
L 276.780431 192.557266 
L 277.025084 196.987172 
L 277.51439 194.195879 
L 277.759043 194.873926 
L 278.003696 190.353613 
L 278.248349 203.270407 
L 278.493002 201.654395 
L 278.982308 197.642617 
L 279.226961 202.208133 
L 279.471614 197.292293 
L 279.716267 195.325957 
L 279.96092 196.512539 
L 280.205573 200.004481 
L 280.450226 200.671227 
L 280.694879 203.519024 
L 280.939532 212.469243 
L 281.184185 212.254528 
L 281.673491 203.541625 
L 281.918144 202.151629 
L 282.162797 204.875118 
L 282.40745 202.355043 
L 282.652103 202.908782 
L 282.896756 204.389184 
L 283.386062 201.484883 
L 283.630715 201.462282 
L 283.875368 199.450742 
L 284.120021 199.801067 
L 284.364674 199.84627 
L 284.85398 196.128313 
L 285.098633 196.749856 
L 285.343286 196.173516 
L 285.587939 196.083109 
L 286.077245 192.240844 
L 286.321898 192.218242 
L 286.566551 190.850847 
L 287.30051 181.482499 
L 287.545163 182.318757 
L 287.789816 184.872734 
L 288.523775 187.110289 
L 289.013081 191.562797 
L 289.257734 191.540195 
L 289.502387 192.240844 
L 289.991693 190.444019 
L 290.236346 191.494992 
L 290.480999 190.500523 
L 290.725652 190.466621 
L 291.214958 186.816468 
L 291.459611 187.144191 
L 291.704264 186.827769 
L 292.19357 185.076148 
L 292.438223 187.460613 
L 292.682876 187.2685 
L 292.92753 186.918175 
L 293.172183 187.257199 
L 293.416836 184.443304 
L 293.661489 180.103804 
L 293.906142 182.680382 
L 294.150795 182.680382 
L 294.395448 183.573144 
L 294.884754 187.098988 
L 295.37406 184.420703 
L 295.618713 185.731593 
L 295.863366 182.770788 
L 296.108019 184.714523 
L 296.352672 183.109812 
L 296.597325 185.708992 
L 296.841978 183.426234 
L 297.331284 186.98598 
L 297.575937 190.274508 
L 297.82059 191.054262 
L 298.065243 190.839547 
L 298.309896 190.929953 
L 298.554549 189.393047 
L 298.799202 188.884511 
L 299.043855 188.986218 
L 299.288508 192.455558 
L 299.533161 192.161738 
L 300.022467 191.065562 
L 300.26712 185.957609 
L 300.511773 185.923707 
L 300.756426 184.714523 
L 301.001079 184.601515 
L 301.490385 188.195164 
L 301.735038 187.539718 
L 301.979691 187.923945 
L 302.224344 188.816707 
L 302.468997 188.308172 
L 302.71365 184.997042 
L 302.958303 186.387039 
L 303.202956 186.104519 
L 303.447609 184.09298 
L 303.692262 192.03743 
L 303.936915 196.354328 
L 304.181568 195.009535 
L 304.670874 188.251668 
L 304.915527 188.455082 
L 305.16018 191.528894 
L 305.404833 191.540195 
L 305.649486 191.302879 
L 306.138792 185.799398 
L 306.628098 187.980449 
L 307.117404 185.403871 
L 307.60671 182.838593 
L 307.851363 182.770788 
L 308.096016 184.115582 
L 308.340669 184.183386 
L 308.585322 184.782328 
L 309.074628 181.369492 
L 309.319281 184.703222 
L 309.563934 183.968671 
L 309.808587 184.477207 
L 310.05324 186.296632 
L 310.297893 185.991511 
L 310.542546 186.737363 
L 311.276505 185.143953 
L 311.521158 185.528179 
L 311.765811 184.714523 
L 312.010464 184.601515 
L 312.255117 182.838593 
L 312.49977 182.454367 
L 312.744423 182.770788 
L 312.989076 182.454367 
L 313.233729 183.08721 
L 313.478382 182.465667 
L 313.967688 184.3868 
L 314.212341 184.737125 
L 314.456994 185.584683 
L 314.701647 184.827531 
L 315.190953 188.7263 
L 315.435607 188.217765 
L 315.924913 184.725824 
L 316.169566 185.121351 
L 316.414219 184.827531 
L 316.658872 189.765972 
L 316.903525 187.969148 
L 317.392831 190.73784 
L 317.637484 190.624832 
L 317.882137 191.834015 
L 318.12679 190.952555 
L 318.371443 190.60223 
L 318.616096 187.471914 
L 318.860749 185.991511 
L 319.105402 186.093218 
L 319.350055 187.460613 
L 319.839361 185.584683 
L 320.084014 186.940777 
L 320.57332 185.415171 
L 320.817973 185.562082 
L 321.062626 182.838593 
L 321.307279 183.109812 
L 321.551932 183.753956 
L 321.796585 181.505101 
L 322.041238 183.878265 
L 322.285891 184.53371 
L 322.775197 184.149484 
L 323.01985 183.584445 
L 323.509156 181.120874 
L 323.998462 181.742417 
L 324.487768 177.911452 
L 324.732421 170.543343 
L 324.977074 173.063417 
L 325.221727 173.40244 
L 325.46638 174.057886 
L 325.711033 174.080487 
L 325.955686 175.956417 
L 326.444992 177.323812 
L 326.689645 173.379839 
L 326.934298 174.317804 
L 327.423604 168.113674 
L 327.668257 167.17571 
L 327.91291 165.514495 
L 328.402216 169.526272 
L 328.646869 170.780659 
L 329.136175 168.870827 
L 329.380828 166.045631 
L 329.870134 165.457991 
L 330.114787 165.763112 
L 330.35944 163.649866 
L 330.604093 164.87035 
L 330.848746 162.802307 
L 331.338052 163.062225 
L 331.582705 162.971819 
L 332.072011 159.412072 
L 332.561317 157.411834 
L 332.80597 157.976873 
L 333.050623 160.451744 
L 333.295276 161.242799 
L 333.539929 160.417842 
L 333.784582 158.519311 
L 334.029235 158.281994 
L 334.273888 157.050209 
L 334.518541 157.072811 
L 334.763194 156.677283 
L 335.007847 157.050209 
L 335.2525 158.609717 
L 335.497153 159.073049 
L 335.741806 159.08435 
L 336.231112 155.76192 
L 336.475765 155.660213 
L 336.720418 155.219482 
L 336.965071 156.100943 
L 337.209724 155.253385 
L 337.454377 154.880459 
L 337.69903 156.134846 
L 337.943684 155.524604 
L 338.188337 156.835494 
L 338.922296 154.733549 
L 339.166949 156.643381 
L 339.411602 153.580869 
L 339.656255 145.885037 
L 339.900908 143.896099 
L 340.145561 145.50081 
L 340.634867 150.337545 
L 340.87952 149.716002 
L 341.124173 151.648435 
L 341.368826 151.490224 
L 341.613479 149.704701 
L 341.858132 146.856904 
L 342.102785 149.896814 
L 342.347438 149.365677 
L 342.836744 145.127884 
L 343.081397 144.596748 
L 343.32605 143.692685 
L 343.815356 139.839118 
L 344.060009 136.618396 
L 344.304662 136.844411 
L 344.549315 135.149294 
L 344.793968 134.493849 
L 345.038621 132.244993 
L 345.283274 131.340931 
L 345.527927 127.182243 
L 346.261886 130.549876 
L 346.506539 129.318091 
L 346.751192 129.634512 
L 346.995845 130.956704 
L 347.240498 133.06995 
L 347.485151 132.674423 
L 347.729804 133.036048 
L 347.974457 133.058649 
L 348.21911 133.64629 
L 348.463763 131.487841 
L 348.708416 132.290196 
L 348.953069 136.166364 
L 349.197722 135.013685 
L 349.442375 134.697263 
L 349.687028 136.324575 
L 349.931681 136.008153 
L 350.176334 134.584255 
L 350.66564 133.883606 
L 350.910293 135.149294 
L 351.154946 135.38661 
L 351.399599 133.06995 
L 351.644252 134.900677 
L 351.888905 134.572954 
L 352.133558 132.900438 
L 352.378211 134.358239 
L 352.622864 133.21686 
L 352.867517 136.064657 
L 353.11217 136.550591 
L 353.356823 132.708325 
L 353.601476 134.030517 
L 353.846129 133.408974 
L 354.335435 131.171419 
L 354.824741 127.634274 
L 355.069394 129.668415 
L 355.5587 126.142571 
L 355.803353 128.899962 
L 356.048006 127.71338 
L 356.292659 127.769883 
L 356.537312 128.131508 
L 356.781965 125.939157 
L 357.271271 123.792008 
L 357.515924 128.0072 
L 357.760577 127.14834 
L 358.249883 128.899962 
L 358.494536 128.549637 
L 358.739189 132.979544 
L 358.983842 134.539052 
L 359.473148 127.453462 
L 359.717801 127.656876 
L 360.207107 123.611196 
L 360.451761 124.153633 
L 360.696414 123.825911 
L 360.941067 122.978352 
L 361.18572 123.328676 
L 361.430373 120.040149 
L 361.675026 121.486649 
L 361.919679 123.972821 
L 362.408985 120.379172 
L 362.653638 120.266164 
L 362.898291 120.300067 
L 363.387597 117.610481 
L 363.63225 114.141141 
L 363.876903 113.022363 
L 364.121556 110.038957 
L 364.366209 110.886515 
L 364.610862 109.93725 
L 364.855515 109.632129 
L 365.100168 106.479211 
L 365.344821 109.021886 
L 365.589474 110.253672 
L 365.834127 109.428715 
L 366.07878 111.869683 
L 366.323433 111.541961 
L 366.568086 110.592695 
L 366.812739 106.953843 
L 367.057392 107.326769 
L 367.302045 106.321 
L 368.036004 101.721581 
L 368.280657 101.958898 
L 368.52531 99.38232 
L 368.769963 98.828581 
L 369.014616 99.687441 
L 369.259269 96.704034 
L 369.503922 97.382081 
L 369.748575 95.280136 
L 369.993228 95.234933 
L 370.237881 94.918511 
L 370.482534 71.19817 
L 370.727187 62.66608 
L 370.97184 62.360958 
L 371.216493 61.016165 
L 371.461146 64.429001 
L 371.705799 66.112818 
L 371.950452 65.773794 
L 372.195105 66.384037 
L 372.439758 63.53624 
L 372.684411 64.361197 
L 372.929064 70.226303 
L 373.173717 71.842314 
L 373.907676 64.734123 
L 374.396982 68.779802 
L 374.641635 68.576388 
L 374.886288 68.678095 
L 375.130941 64.078677 
L 375.375594 65.954607 
L 375.620247 65.220056 
L 375.8649 68.440779 
L 376.109553 66.982978 
L 376.354206 63.242419 
L 376.598859 63.276322 
L 376.843512 64.180384 
L 377.088165 63.423232 
L 377.577471 69.875978 
L 377.822124 67.966146 
L 378.31143 63.129412 
L 378.556083 63.140712 
L 378.800736 61.615107 
L 379.534695 49.014735 
L 379.779348 49.715384 
L 380.024001 46.325149 
L 380.513307 45.206372 
L 380.75796 47.613438 
L 381.002613 48.314087 
L 381.247266 46.528563 
L 381.491919 47.669942 
L 381.736572 47.737747 
L 381.981225 45.726208 
L 382.225878 46.325149 
L 382.470531 45.986126 
L 382.715184 42.448981 
L 383.204491 43.01402 
L 383.449144 40.143621 
L 383.93845 39.036145 
L 384.672409 42.754102 
L 384.917062 41.149391 
L 385.161715 42.279469 
L 385.406368 35.826723 
L 385.651021 38.572813 
L 385.895674 34.414125 
L 386.140327 42.980118 
L 386.38498 42.019551 
L 386.629633 45.195071 
L 386.874286 42.042153 
L 387.118939 43.477352 
L 387.363592 42.889711 
L 387.608245 38.222488 
L 387.852898 39.216957 
L 387.852898 39.216957 
" style="fill:none;stroke:#ff7f0e;stroke-linecap:square;stroke-width:1.5;"/>
   </g>
   <g id="patch_3">
    <path d="M 46.965625 288.430125 
L 46.965625 22.318125 
" style="fill:none;stroke:#000000;stroke-linecap:square;stroke-linejoin:miter;stroke-width:0.8;"/>
   </g>
   <g id="patch_4">
    <path d="M 404.085625 288.430125 
L 404.085625 22.318125 
" style="fill:none;stroke:#000000;stroke-linecap:square;stroke-linejoin:miter;stroke-width:0.8;"/>
   </g>
   <g id="patch_5">
    <path d="M 46.965625 288.430125 
L 404.085625 288.430125 
" style="fill:none;stroke:#000000;stroke-linecap:square;stroke-linejoin:miter;stroke-width:0.8;"/>
   </g>
   <g id="patch_6">
    <path d="M 46.965625 22.318125 
L 404.085625 22.318125 
" style="fill:none;stroke:#000000;stroke-linecap:square;stroke-linejoin:miter;stroke-width:0.8;"/>
   </g>
   <g id="text_15">
    <!-- Training: BA -->
    <defs>
     <path d="M -0.296875 72.90625 
L 61.375 72.90625 
L 61.375 64.59375 
L 35.5 64.59375 
L 35.5 0 
L 25.59375 0 
L 25.59375 64.59375 
L -0.296875 64.59375 
z
" id="DejaVuSans-84"/>
     <path d="M 54.890625 33.015625 
L 54.890625 0 
L 45.90625 0 
L 45.90625 32.71875 
Q 45.90625 40.484375 42.875 44.328125 
Q 39.84375 48.1875 33.796875 48.1875 
Q 26.515625 48.1875 22.3125 43.546875 
Q 18.109375 38.921875 18.109375 30.90625 
L 18.109375 0 
L 9.078125 0 
L 9.078125 54.6875 
L 18.109375 54.6875 
L 18.109375 46.1875 
Q 21.34375 51.125 25.703125 53.5625 
Q 30.078125 56 35.796875 56 
Q 45.21875 56 50.046875 50.171875 
Q 54.890625 44.34375 54.890625 33.015625 
z
" id="DejaVuSans-110"/>
     <path d="M 45.40625 27.984375 
Q 45.40625 37.75 41.375 43.109375 
Q 37.359375 48.484375 30.078125 48.484375 
Q 22.859375 48.484375 18.828125 43.109375 
Q 14.796875 37.75 14.796875 27.984375 
Q 14.796875 18.265625 18.828125 12.890625 
Q 22.859375 7.515625 30.078125 7.515625 
Q 37.359375 7.515625 41.375 12.890625 
Q 45.40625 18.265625 45.40625 27.984375 
z
M 54.390625 6.78125 
Q 54.390625 -7.171875 48.1875 -13.984375 
Q 42 -20.796875 29.203125 -20.796875 
Q 24.46875 -20.796875 20.265625 -20.09375 
Q 16.0625 -19.390625 12.109375 -17.921875 
L 12.109375 -9.1875 
Q 16.0625 -11.328125 19.921875 -12.34375 
Q 23.78125 -13.375 27.78125 -13.375 
Q 36.625 -13.375 41.015625 -8.765625 
Q 45.40625 -4.15625 45.40625 5.171875 
L 45.40625 9.625 
Q 42.625 4.78125 38.28125 2.390625 
Q 33.9375 0 27.875 0 
Q 17.828125 0 11.671875 7.65625 
Q 5.515625 15.328125 5.515625 27.984375 
Q 5.515625 40.671875 11.671875 48.328125 
Q 17.828125 56 27.875 56 
Q 33.9375 56 38.28125 53.609375 
Q 42.625 51.21875 45.40625 46.390625 
L 45.40625 54.6875 
L 54.390625 54.6875 
z
" id="DejaVuSans-103"/>
     <path d="M 11.71875 12.40625 
L 22.015625 12.40625 
L 22.015625 0 
L 11.71875 0 
z
M 11.71875 51.703125 
L 22.015625 51.703125 
L 22.015625 39.3125 
L 11.71875 39.3125 
z
" id="DejaVuSans-58"/>
     <path d="M 19.671875 34.8125 
L 19.671875 8.109375 
L 35.5 8.109375 
Q 43.453125 8.109375 47.28125 11.40625 
Q 51.125 14.703125 51.125 21.484375 
Q 51.125 28.328125 47.28125 31.5625 
Q 43.453125 34.8125 35.5 34.8125 
z
M 19.671875 64.796875 
L 19.671875 42.828125 
L 34.28125 42.828125 
Q 41.5 42.828125 45.03125 45.53125 
Q 48.578125 48.25 48.578125 53.8125 
Q 48.578125 59.328125 45.03125 62.0625 
Q 41.5 64.796875 34.28125 64.796875 
z
M 9.8125 72.90625 
L 35.015625 72.90625 
Q 46.296875 72.90625 52.390625 68.21875 
Q 58.5 63.53125 58.5 54.890625 
Q 58.5 48.1875 55.375 44.234375 
Q 52.25 40.28125 46.1875 39.3125 
Q 53.46875 37.75 57.5 32.78125 
Q 61.53125 27.828125 61.53125 20.40625 
Q 61.53125 10.640625 54.890625 5.3125 
Q 48.25 0 35.984375 0 
L 9.8125 0 
z
" id="DejaVuSans-66"/>
     <path d="M 34.1875 63.1875 
L 20.796875 26.90625 
L 47.609375 26.90625 
z
M 28.609375 72.90625 
L 39.796875 72.90625 
L 67.578125 0 
L 57.328125 0 
L 50.6875 18.703125 
L 17.828125 18.703125 
L 11.1875 0 
L 0.78125 0 
z
" id="DejaVuSans-65"/>
    </defs>
    <g transform="translate(189.705625 16.318125)scale(0.12 -0.12)">
     <use xlink:href="#DejaVuSans-84"/>
     <use x="46.333984" xlink:href="#DejaVuSans-114"/>
     <use x="87.447266" xlink:href="#DejaVuSans-97"/>
     <use x="148.726562" xlink:href="#DejaVuSans-105"/>
     <use x="176.509766" xlink:href="#DejaVuSans-110"/>
     <use x="239.888672" xlink:href="#DejaVuSans-105"/>
     <use x="267.671875" xlink:href="#DejaVuSans-110"/>
     <use x="331.050781" xlink:href="#DejaVuSans-103"/>
     <use x="394.527344" xlink:href="#DejaVuSans-58"/>
     <use x="428.21875" xlink:href="#DejaVuSans-32"/>
     <use x="460.005859" xlink:href="#DejaVuSans-66"/>
     <use x="528.609375" xlink:href="#DejaVuSans-65"/>
    </g>
   </g>
   <g id="legend_1">
    <g id="patch_7">
     <path d="M 53.965625 59.674375 
L 137.69375 59.674375 
Q 139.69375 59.674375 139.69375 57.674375 
L 139.69375 29.318125 
Q 139.69375 27.318125 137.69375 27.318125 
L 53.965625 27.318125 
Q 51.965625 27.318125 51.965625 29.318125 
L 51.965625 57.674375 
Q 51.965625 59.674375 53.965625 59.674375 
z
" style="fill:#ffffff;opacity:0.8;stroke:#cccccc;stroke-linejoin:miter;"/>
    </g>
    <g id="line2d_27">
     <path d="M 55.965625 35.416562 
L 75.965625 35.416562 
" style="fill:none;stroke:#1f77b4;stroke-linecap:square;stroke-width:1.5;"/>
    </g>
    <g id="line2d_28"/>
    <g id="text_16">
     <!-- Predicted -->
     <defs>
      <path d="M 45.40625 46.390625 
L 45.40625 75.984375 
L 54.390625 75.984375 
L 54.390625 0 
L 45.40625 0 
L 45.40625 8.203125 
Q 42.578125 3.328125 38.25 0.953125 
Q 33.9375 -1.421875 27.875 -1.421875 
Q 17.96875 -1.421875 11.734375 6.484375 
Q 5.515625 14.40625 5.515625 27.296875 
Q 5.515625 40.1875 11.734375 48.09375 
Q 17.96875 56 27.875 56 
Q 33.9375 56 38.25 53.625 
Q 42.578125 51.265625 45.40625 46.390625 
z
M 14.796875 27.296875 
Q 14.796875 17.390625 18.875 11.75 
Q 22.953125 6.109375 30.078125 6.109375 
Q 37.203125 6.109375 41.296875 11.75 
Q 45.40625 17.390625 45.40625 27.296875 
Q 45.40625 37.203125 41.296875 42.84375 
Q 37.203125 48.484375 30.078125 48.484375 
Q 22.953125 48.484375 18.875 42.84375 
Q 14.796875 37.203125 14.796875 27.296875 
z
" id="DejaVuSans-100"/>
      <path d="M 18.3125 70.21875 
L 18.3125 54.6875 
L 36.8125 54.6875 
L 36.8125 47.703125 
L 18.3125 47.703125 
L 18.3125 18.015625 
Q 18.3125 11.328125 20.140625 9.421875 
Q 21.96875 7.515625 27.59375 7.515625 
L 36.8125 7.515625 
L 36.8125 0 
L 27.59375 0 
Q 17.1875 0 13.234375 3.875 
Q 9.28125 7.765625 9.28125 18.015625 
L 9.28125 47.703125 
L 2.6875 47.703125 
L 2.6875 54.6875 
L 9.28125 54.6875 
L 9.28125 70.21875 
z
" id="DejaVuSans-116"/>
     </defs>
     <g transform="translate(83.965625 38.916562)scale(0.1 -0.1)">
      <use xlink:href="#DejaVuSans-80"/>
      <use x="58.552734" xlink:href="#DejaVuSans-114"/>
      <use x="97.416016" xlink:href="#DejaVuSans-101"/>
      <use x="158.939453" xlink:href="#DejaVuSans-100"/>
      <use x="222.416016" xlink:href="#DejaVuSans-105"/>
      <use x="250.199219" xlink:href="#DejaVuSans-99"/>
      <use x="305.179688" xlink:href="#DejaVuSans-116"/>
      <use x="344.388672" xlink:href="#DejaVuSans-101"/>
      <use x="405.912109" xlink:href="#DejaVuSans-100"/>
     </g>
    </g>
    <g id="line2d_29">
     <path d="M 55.965625 50.094687 
L 75.965625 50.094687 
" style="fill:none;stroke:#ff7f0e;stroke-linecap:square;stroke-width:1.5;"/>
    </g>
    <g id="line2d_30"/>
    <g id="text_17">
     <!-- True value -->
     <defs>
      <path d="M 8.5 21.578125 
L 8.5 54.6875 
L 17.484375 54.6875 
L 17.484375 21.921875 
Q 17.484375 14.15625 20.5 10.265625 
Q 23.53125 6.390625 29.59375 6.390625 
Q 36.859375 6.390625 41.078125 11.03125 
Q 45.3125 15.671875 45.3125 23.6875 
L 45.3125 54.6875 
L 54.296875 54.6875 
L 54.296875 0 
L 45.3125 0 
L 45.3125 8.40625 
Q 42.046875 3.421875 37.71875 1 
Q 33.40625 -1.421875 27.6875 -1.421875 
Q 18.265625 -1.421875 13.375 4.4375 
Q 8.5 10.296875 8.5 21.578125 
z
M 31.109375 56 
z
" id="DejaVuSans-117"/>
      <path d="M 2.984375 54.6875 
L 12.5 54.6875 
L 29.59375 8.796875 
L 46.6875 54.6875 
L 56.203125 54.6875 
L 35.6875 0 
L 23.484375 0 
z
" id="DejaVuSans-118"/>
      <path d="M 9.421875 75.984375 
L 18.40625 75.984375 
L 18.40625 0 
L 9.421875 0 
z
" id="DejaVuSans-108"/>
     </defs>
     <g transform="translate(83.965625 53.594687)scale(0.1 -0.1)">
      <use xlink:href="#DejaVuSans-84"/>
      <use x="46.333984" xlink:href="#DejaVuSans-114"/>
      <use x="87.447266" xlink:href="#DejaVuSans-117"/>
      <use x="150.826172" xlink:href="#DejaVuSans-101"/>
      <use x="212.349609" xlink:href="#DejaVuSans-32"/>
      <use x="244.136719" xlink:href="#DejaVuSans-118"/>
      <use x="303.316406" xlink:href="#DejaVuSans-97"/>
      <use x="364.595703" xlink:href="#DejaVuSans-108"/>
      <use x="392.378906" xlink:href="#DejaVuSans-117"/>
      <use x="455.757812" xlink:href="#DejaVuSans-101"/>
     </g>
    </g>
   </g>
  </g>
 </g>
 <defs>
  <clipPath id="pa087f3e946">
   <rect height="266.112" width="357.12" x="46.965625" y="22.318125"/>
  </clipPath>
 </defs>
</svg>
