<?xml version="1.0" encoding="utf-8" standalone="no"?>
<!DOCTYPE svg PUBLIC "-//W3C//DTD SVG 1.1//EN"
  "http://www.w3.org/Graphics/SVG/1.1/DTD/svg11.dtd">
<!-- Created with matplotlib (https://matplotlib.org/) -->
<svg height="325.986375pt" version="1.1" viewBox="0 0 404.923125 325.986375" width="404.923125pt" xmlns="http://www.w3.org/2000/svg" xmlns:xlink="http://www.w3.org/1999/xlink">
 <defs>
  <style type="text/css">
*{stroke-linecap:butt;stroke-linejoin:round;}
  </style>
 </defs>
 <g id="figure_1">
  <g id="patch_1">
   <path d="M 0 325.986375 
L 404.923125 325.986375 
L 404.923125 0 
L 0 0 
z
" style="fill:#ffffff;"/>
  </g>
  <g id="axes_1">
   <g id="patch_2">
    <path d="M 40.603125 288.430125 
L 397.723125 288.430125 
L 397.723125 22.318125 
L 40.603125 22.318125 
z
" style="fill:#ffffff;"/>
   </g>
   <g id="matplotlib.axis_1">
    <g id="xtick_1">
     <g id="line2d_1">
      <path clip-path="url(#p162e9cf71e)" d="M 56.835852 288.430125 
L 56.835852 22.318125 
" style="fill:none;stroke:#b0b0b0;stroke-dasharray:2.96,1.28;stroke-dashoffset:0;stroke-width:0.8;"/>
     </g>
     <g id="line2d_2">
      <defs>
       <path d="M 0 0 
L 0 3.5 
" id="mcbe53dc383" style="stroke:#000000;stroke-width:0.8;"/>
      </defs>
      <g>
       <use style="stroke:#000000;stroke-width:0.8;" x="56.835852" xlink:href="#mcbe53dc383" y="288.430125"/>
      </g>
     </g>
     <g id="text_1">
      <!-- 0 -->
      <defs>
       <path d="M 31.78125 66.40625 
Q 24.171875 66.40625 20.328125 58.90625 
Q 16.5 51.421875 16.5 36.375 
Q 16.5 21.390625 20.328125 13.890625 
Q 24.171875 6.390625 31.78125 6.390625 
Q 39.453125 6.390625 43.28125 13.890625 
Q 47.125 21.390625 47.125 36.375 
Q 47.125 51.421875 43.28125 58.90625 
Q 39.453125 66.40625 31.78125 66.40625 
z
M 31.78125 74.21875 
Q 44.046875 74.21875 50.515625 64.515625 
Q 56.984375 54.828125 56.984375 36.375 
Q 56.984375 17.96875 50.515625 8.265625 
Q 44.046875 -1.421875 31.78125 -1.421875 
Q 19.53125 -1.421875 13.0625 8.265625 
Q 6.59375 17.96875 6.59375 36.375 
Q 6.59375 54.828125 13.0625 64.515625 
Q 19.53125 74.21875 31.78125 74.21875 
z
" id="DejaVuSans-48"/>
      </defs>
      <g transform="translate(53.654602 303.028562)scale(0.1 -0.1)">
       <use xlink:href="#DejaVuSans-48"/>
      </g>
     </g>
    </g>
    <g id="xtick_2">
     <g id="line2d_3">
      <path clip-path="url(#p162e9cf71e)" d="M 105.766454 288.430125 
L 105.766454 22.318125 
" style="fill:none;stroke:#b0b0b0;stroke-dasharray:2.96,1.28;stroke-dashoffset:0;stroke-width:0.8;"/>
     </g>
     <g id="line2d_4">
      <g>
       <use style="stroke:#000000;stroke-width:0.8;" x="105.766454" xlink:href="#mcbe53dc383" y="288.430125"/>
      </g>
     </g>
     <g id="text_2">
      <!-- 200 -->
      <defs>
       <path d="M 19.1875 8.296875 
L 53.609375 8.296875 
L 53.609375 0 
L 7.328125 0 
L 7.328125 8.296875 
Q 12.9375 14.109375 22.625 23.890625 
Q 32.328125 33.6875 34.8125 36.53125 
Q 39.546875 41.84375 41.421875 45.53125 
Q 43.3125 49.21875 43.3125 52.78125 
Q 43.3125 58.59375 39.234375 62.25 
Q 35.15625 65.921875 28.609375 65.921875 
Q 23.96875 65.921875 18.8125 64.3125 
Q 13.671875 62.703125 7.8125 59.421875 
L 7.8125 69.390625 
Q 13.765625 71.78125 18.9375 73 
Q 24.125 74.21875 28.421875 74.21875 
Q 39.75 74.21875 46.484375 68.546875 
Q 53.21875 62.890625 53.21875 53.421875 
Q 53.21875 48.921875 51.53125 44.890625 
Q 49.859375 40.875 45.40625 35.40625 
Q 44.1875 33.984375 37.640625 27.21875 
Q 31.109375 20.453125 19.1875 8.296875 
z
" id="DejaVuSans-50"/>
      </defs>
      <g transform="translate(96.222704 303.028562)scale(0.1 -0.1)">
       <use xlink:href="#DejaVuSans-50"/>
       <use x="63.623047" xlink:href="#DejaVuSans-48"/>
       <use x="127.246094" xlink:href="#DejaVuSans-48"/>
      </g>
     </g>
    </g>
    <g id="xtick_3">
     <g id="line2d_5">
      <path clip-path="url(#p162e9cf71e)" d="M 154.697057 288.430125 
L 154.697057 22.318125 
" style="fill:none;stroke:#b0b0b0;stroke-dasharray:2.96,1.28;stroke-dashoffset:0;stroke-width:0.8;"/>
     </g>
     <g id="line2d_6">
      <g>
       <use style="stroke:#000000;stroke-width:0.8;" x="154.697057" xlink:href="#mcbe53dc383" y="288.430125"/>
      </g>
     </g>
     <g id="text_3">
      <!-- 400 -->
      <defs>
       <path d="M 37.796875 64.3125 
L 12.890625 25.390625 
L 37.796875 25.390625 
z
M 35.203125 72.90625 
L 47.609375 72.90625 
L 47.609375 25.390625 
L 58.015625 25.390625 
L 58.015625 17.1875 
L 47.609375 17.1875 
L 47.609375 0 
L 37.796875 0 
L 37.796875 17.1875 
L 4.890625 17.1875 
L 4.890625 26.703125 
z
" id="DejaVuSans-52"/>
      </defs>
      <g transform="translate(145.153307 303.028562)scale(0.1 -0.1)">
       <use xlink:href="#DejaVuSans-52"/>
       <use x="63.623047" xlink:href="#DejaVuSans-48"/>
       <use x="127.246094" xlink:href="#DejaVuSans-48"/>
      </g>
     </g>
    </g>
    <g id="xtick_4">
     <g id="line2d_7">
      <path clip-path="url(#p162e9cf71e)" d="M 203.627659 288.430125 
L 203.627659 22.318125 
" style="fill:none;stroke:#b0b0b0;stroke-dasharray:2.96,1.28;stroke-dashoffset:0;stroke-width:0.8;"/>
     </g>
     <g id="line2d_8">
      <g>
       <use style="stroke:#000000;stroke-width:0.8;" x="203.627659" xlink:href="#mcbe53dc383" y="288.430125"/>
      </g>
     </g>
     <g id="text_4">
      <!-- 600 -->
      <defs>
       <path d="M 33.015625 40.375 
Q 26.375 40.375 22.484375 35.828125 
Q 18.609375 31.296875 18.609375 23.390625 
Q 18.609375 15.53125 22.484375 10.953125 
Q 26.375 6.390625 33.015625 6.390625 
Q 39.65625 6.390625 43.53125 10.953125 
Q 47.40625 15.53125 47.40625 23.390625 
Q 47.40625 31.296875 43.53125 35.828125 
Q 39.65625 40.375 33.015625 40.375 
z
M 52.59375 71.296875 
L 52.59375 62.3125 
Q 48.875 64.0625 45.09375 64.984375 
Q 41.3125 65.921875 37.59375 65.921875 
Q 27.828125 65.921875 22.671875 59.328125 
Q 17.53125 52.734375 16.796875 39.40625 
Q 19.671875 43.65625 24.015625 45.921875 
Q 28.375 48.1875 33.59375 48.1875 
Q 44.578125 48.1875 50.953125 41.515625 
Q 57.328125 34.859375 57.328125 23.390625 
Q 57.328125 12.15625 50.6875 5.359375 
Q 44.046875 -1.421875 33.015625 -1.421875 
Q 20.359375 -1.421875 13.671875 8.265625 
Q 6.984375 17.96875 6.984375 36.375 
Q 6.984375 53.65625 15.1875 63.9375 
Q 23.390625 74.21875 37.203125 74.21875 
Q 40.921875 74.21875 44.703125 73.484375 
Q 48.484375 72.75 52.59375 71.296875 
z
" id="DejaVuSans-54"/>
      </defs>
      <g transform="translate(194.083909 303.028562)scale(0.1 -0.1)">
       <use xlink:href="#DejaVuSans-54"/>
       <use x="63.623047" xlink:href="#DejaVuSans-48"/>
       <use x="127.246094" xlink:href="#DejaVuSans-48"/>
      </g>
     </g>
    </g>
    <g id="xtick_5">
     <g id="line2d_9">
      <path clip-path="url(#p162e9cf71e)" d="M 252.558261 288.430125 
L 252.558261 22.318125 
" style="fill:none;stroke:#b0b0b0;stroke-dasharray:2.96,1.28;stroke-dashoffset:0;stroke-width:0.8;"/>
     </g>
     <g id="line2d_10">
      <g>
       <use style="stroke:#000000;stroke-width:0.8;" x="252.558261" xlink:href="#mcbe53dc383" y="288.430125"/>
      </g>
     </g>
     <g id="text_5">
      <!-- 800 -->
      <defs>
       <path d="M 31.78125 34.625 
Q 24.75 34.625 20.71875 30.859375 
Q 16.703125 27.09375 16.703125 20.515625 
Q 16.703125 13.921875 20.71875 10.15625 
Q 24.75 6.390625 31.78125 6.390625 
Q 38.8125 6.390625 42.859375 10.171875 
Q 46.921875 13.96875 46.921875 20.515625 
Q 46.921875 27.09375 42.890625 30.859375 
Q 38.875 34.625 31.78125 34.625 
z
M 21.921875 38.8125 
Q 15.578125 40.375 12.03125 44.71875 
Q 8.5 49.078125 8.5 55.328125 
Q 8.5 64.0625 14.71875 69.140625 
Q 20.953125 74.21875 31.78125 74.21875 
Q 42.671875 74.21875 48.875 69.140625 
Q 55.078125 64.0625 55.078125 55.328125 
Q 55.078125 49.078125 51.53125 44.71875 
Q 48 40.375 41.703125 38.8125 
Q 48.828125 37.15625 52.796875 32.3125 
Q 56.78125 27.484375 56.78125 20.515625 
Q 56.78125 9.90625 50.3125 4.234375 
Q 43.84375 -1.421875 31.78125 -1.421875 
Q 19.734375 -1.421875 13.25 4.234375 
Q 6.78125 9.90625 6.78125 20.515625 
Q 6.78125 27.484375 10.78125 32.3125 
Q 14.796875 37.15625 21.921875 38.8125 
z
M 18.3125 54.390625 
Q 18.3125 48.734375 21.84375 45.5625 
Q 25.390625 42.390625 31.78125 42.390625 
Q 38.140625 42.390625 41.71875 45.5625 
Q 45.3125 48.734375 45.3125 54.390625 
Q 45.3125 60.0625 41.71875 63.234375 
Q 38.140625 66.40625 31.78125 66.40625 
Q 25.390625 66.40625 21.84375 63.234375 
Q 18.3125 60.0625 18.3125 54.390625 
z
" id="DejaVuSans-56"/>
      </defs>
      <g transform="translate(243.014511 303.028562)scale(0.1 -0.1)">
       <use xlink:href="#DejaVuSans-56"/>
       <use x="63.623047" xlink:href="#DejaVuSans-48"/>
       <use x="127.246094" xlink:href="#DejaVuSans-48"/>
      </g>
     </g>
    </g>
    <g id="xtick_6">
     <g id="line2d_11">
      <path clip-path="url(#p162e9cf71e)" d="M 301.488863 288.430125 
L 301.488863 22.318125 
" style="fill:none;stroke:#b0b0b0;stroke-dasharray:2.96,1.28;stroke-dashoffset:0;stroke-width:0.8;"/>
     </g>
     <g id="line2d_12">
      <g>
       <use style="stroke:#000000;stroke-width:0.8;" x="301.488863" xlink:href="#mcbe53dc383" y="288.430125"/>
      </g>
     </g>
     <g id="text_6">
      <!-- 1000 -->
      <defs>
       <path d="M 12.40625 8.296875 
L 28.515625 8.296875 
L 28.515625 63.921875 
L 10.984375 60.40625 
L 10.984375 69.390625 
L 28.421875 72.90625 
L 38.28125 72.90625 
L 38.28125 8.296875 
L 54.390625 8.296875 
L 54.390625 0 
L 12.40625 0 
z
" id="DejaVuSans-49"/>
      </defs>
      <g transform="translate(288.763863 303.028562)scale(0.1 -0.1)">
       <use xlink:href="#DejaVuSans-49"/>
       <use x="63.623047" xlink:href="#DejaVuSans-48"/>
       <use x="127.246094" xlink:href="#DejaVuSans-48"/>
       <use x="190.869141" xlink:href="#DejaVuSans-48"/>
      </g>
     </g>
    </g>
    <g id="xtick_7">
     <g id="line2d_13">
      <path clip-path="url(#p162e9cf71e)" d="M 350.419465 288.430125 
L 350.419465 22.318125 
" style="fill:none;stroke:#b0b0b0;stroke-dasharray:2.96,1.28;stroke-dashoffset:0;stroke-width:0.8;"/>
     </g>
     <g id="line2d_14">
      <g>
       <use style="stroke:#000000;stroke-width:0.8;" x="350.419465" xlink:href="#mcbe53dc383" y="288.430125"/>
      </g>
     </g>
     <g id="text_7">
      <!-- 1200 -->
      <g transform="translate(337.694465 303.028562)scale(0.1 -0.1)">
       <use xlink:href="#DejaVuSans-49"/>
       <use x="63.623047" xlink:href="#DejaVuSans-50"/>
       <use x="127.246094" xlink:href="#DejaVuSans-48"/>
       <use x="190.869141" xlink:href="#DejaVuSans-48"/>
      </g>
     </g>
    </g>
    <g id="text_8">
     <!-- Day -->
     <defs>
      <path d="M 19.671875 64.796875 
L 19.671875 8.109375 
L 31.59375 8.109375 
Q 46.6875 8.109375 53.6875 14.9375 
Q 60.6875 21.78125 60.6875 36.53125 
Q 60.6875 51.171875 53.6875 57.984375 
Q 46.6875 64.796875 31.59375 64.796875 
z
M 9.8125 72.90625 
L 30.078125 72.90625 
Q 51.265625 72.90625 61.171875 64.09375 
Q 71.09375 55.28125 71.09375 36.53125 
Q 71.09375 17.671875 61.125 8.828125 
Q 51.171875 0 30.078125 0 
L 9.8125 0 
z
" id="DejaVuSans-68"/>
      <path d="M 34.28125 27.484375 
Q 23.390625 27.484375 19.1875 25 
Q 14.984375 22.515625 14.984375 16.5 
Q 14.984375 11.71875 18.140625 8.90625 
Q 21.296875 6.109375 26.703125 6.109375 
Q 34.1875 6.109375 38.703125 11.40625 
Q 43.21875 16.703125 43.21875 25.484375 
L 43.21875 27.484375 
z
M 52.203125 31.203125 
L 52.203125 0 
L 43.21875 0 
L 43.21875 8.296875 
Q 40.140625 3.328125 35.546875 0.953125 
Q 30.953125 -1.421875 24.3125 -1.421875 
Q 15.921875 -1.421875 10.953125 3.296875 
Q 6 8.015625 6 15.921875 
Q 6 25.140625 12.171875 29.828125 
Q 18.359375 34.515625 30.609375 34.515625 
L 43.21875 34.515625 
L 43.21875 35.40625 
Q 43.21875 41.609375 39.140625 45 
Q 35.0625 48.390625 27.6875 48.390625 
Q 23 48.390625 18.546875 47.265625 
Q 14.109375 46.140625 10.015625 43.890625 
L 10.015625 52.203125 
Q 14.9375 54.109375 19.578125 55.046875 
Q 24.21875 56 28.609375 56 
Q 40.484375 56 46.34375 49.84375 
Q 52.203125 43.703125 52.203125 31.203125 
z
" id="DejaVuSans-97"/>
      <path d="M 32.171875 -5.078125 
Q 28.375 -14.84375 24.75 -17.8125 
Q 21.140625 -20.796875 15.09375 -20.796875 
L 7.90625 -20.796875 
L 7.90625 -13.28125 
L 13.1875 -13.28125 
Q 16.890625 -13.28125 18.9375 -11.515625 
Q 21 -9.765625 23.484375 -3.21875 
L 25.09375 0.875 
L 2.984375 54.6875 
L 12.5 54.6875 
L 29.59375 11.921875 
L 46.6875 54.6875 
L 56.203125 54.6875 
z
" id="DejaVuSans-121"/>
     </defs>
     <g transform="translate(209.289688 316.706687)scale(0.1 -0.1)">
      <use xlink:href="#DejaVuSans-68"/>
      <use x="77.001953" xlink:href="#DejaVuSans-97"/>
      <use x="138.28125" xlink:href="#DejaVuSans-121"/>
     </g>
    </g>
   </g>
   <g id="matplotlib.axis_2">
    <g id="ytick_1">
     <g id="line2d_15">
      <path clip-path="url(#p162e9cf71e)" d="M 40.603125 277.539342 
L 397.723125 277.539342 
" style="fill:none;stroke:#b0b0b0;stroke-dasharray:2.96,1.28;stroke-dashoffset:0;stroke-width:0.8;"/>
     </g>
     <g id="line2d_16">
      <defs>
       <path d="M 0 0 
L -3.5 0 
" id="m0ec938955c" style="stroke:#000000;stroke-width:0.8;"/>
      </defs>
      <g>
       <use style="stroke:#000000;stroke-width:0.8;" x="40.603125" xlink:href="#m0ec938955c" y="277.539342"/>
      </g>
     </g>
     <g id="text_9">
      <!-- 25 -->
      <defs>
       <path d="M 10.796875 72.90625 
L 49.515625 72.90625 
L 49.515625 64.59375 
L 19.828125 64.59375 
L 19.828125 46.734375 
Q 21.96875 47.46875 24.109375 47.828125 
Q 26.265625 48.1875 28.421875 48.1875 
Q 40.625 48.1875 47.75 41.5 
Q 54.890625 34.8125 54.890625 23.390625 
Q 54.890625 11.625 47.5625 5.09375 
Q 40.234375 -1.421875 26.90625 -1.421875 
Q 22.3125 -1.421875 17.546875 -0.640625 
Q 12.796875 0.140625 7.71875 1.703125 
L 7.71875 11.625 
Q 12.109375 9.234375 16.796875 8.0625 
Q 21.484375 6.890625 26.703125 6.890625 
Q 35.15625 6.890625 40.078125 11.328125 
Q 45.015625 15.765625 45.015625 23.390625 
Q 45.015625 31 40.078125 35.4375 
Q 35.15625 39.890625 26.703125 39.890625 
Q 22.75 39.890625 18.8125 39.015625 
Q 14.890625 38.140625 10.796875 36.28125 
z
" id="DejaVuSans-53"/>
      </defs>
      <g transform="translate(20.878125 281.338561)scale(0.1 -0.1)">
       <use xlink:href="#DejaVuSans-50"/>
       <use x="63.623047" xlink:href="#DejaVuSans-53"/>
      </g>
     </g>
    </g>
    <g id="ytick_2">
     <g id="line2d_17">
      <path clip-path="url(#p162e9cf71e)" d="M 40.603125 222.756734 
L 397.723125 222.756734 
" style="fill:none;stroke:#b0b0b0;stroke-dasharray:2.96,1.28;stroke-dashoffset:0;stroke-width:0.8;"/>
     </g>
     <g id="line2d_18">
      <g>
       <use style="stroke:#000000;stroke-width:0.8;" x="40.603125" xlink:href="#m0ec938955c" y="222.756734"/>
      </g>
     </g>
     <g id="text_10">
      <!-- 30 -->
      <defs>
       <path d="M 40.578125 39.3125 
Q 47.65625 37.796875 51.625 33 
Q 55.609375 28.21875 55.609375 21.1875 
Q 55.609375 10.40625 48.1875 4.484375 
Q 40.765625 -1.421875 27.09375 -1.421875 
Q 22.515625 -1.421875 17.65625 -0.515625 
Q 12.796875 0.390625 7.625 2.203125 
L 7.625 11.71875 
Q 11.71875 9.328125 16.59375 8.109375 
Q 21.484375 6.890625 26.8125 6.890625 
Q 36.078125 6.890625 40.9375 10.546875 
Q 45.796875 14.203125 45.796875 21.1875 
Q 45.796875 27.640625 41.28125 31.265625 
Q 36.765625 34.90625 28.71875 34.90625 
L 20.21875 34.90625 
L 20.21875 43.015625 
L 29.109375 43.015625 
Q 36.375 43.015625 40.234375 45.921875 
Q 44.09375 48.828125 44.09375 54.296875 
Q 44.09375 59.90625 40.109375 62.90625 
Q 36.140625 65.921875 28.71875 65.921875 
Q 24.65625 65.921875 20.015625 65.03125 
Q 15.375 64.15625 9.8125 62.3125 
L 9.8125 71.09375 
Q 15.4375 72.65625 20.34375 73.4375 
Q 25.25 74.21875 29.59375 74.21875 
Q 40.828125 74.21875 47.359375 69.109375 
Q 53.90625 64.015625 53.90625 55.328125 
Q 53.90625 49.265625 50.4375 45.09375 
Q 46.96875 40.921875 40.578125 39.3125 
z
" id="DejaVuSans-51"/>
      </defs>
      <g transform="translate(20.878125 226.555952)scale(0.1 -0.1)">
       <use xlink:href="#DejaVuSans-51"/>
       <use x="63.623047" xlink:href="#DejaVuSans-48"/>
      </g>
     </g>
    </g>
    <g id="ytick_3">
     <g id="line2d_19">
      <path clip-path="url(#p162e9cf71e)" d="M 40.603125 167.974125 
L 397.723125 167.974125 
" style="fill:none;stroke:#b0b0b0;stroke-dasharray:2.96,1.28;stroke-dashoffset:0;stroke-width:0.8;"/>
     </g>
     <g id="line2d_20">
      <g>
       <use style="stroke:#000000;stroke-width:0.8;" x="40.603125" xlink:href="#m0ec938955c" y="167.974125"/>
      </g>
     </g>
     <g id="text_11">
      <!-- 35 -->
      <g transform="translate(20.878125 171.773344)scale(0.1 -0.1)">
       <use xlink:href="#DejaVuSans-51"/>
       <use x="63.623047" xlink:href="#DejaVuSans-53"/>
      </g>
     </g>
    </g>
    <g id="ytick_4">
     <g id="line2d_21">
      <path clip-path="url(#p162e9cf71e)" d="M 40.603125 113.191516 
L 397.723125 113.191516 
" style="fill:none;stroke:#b0b0b0;stroke-dasharray:2.96,1.28;stroke-dashoffset:0;stroke-width:0.8;"/>
     </g>
     <g id="line2d_22">
      <g>
       <use style="stroke:#000000;stroke-width:0.8;" x="40.603125" xlink:href="#m0ec938955c" y="113.191516"/>
      </g>
     </g>
     <g id="text_12">
      <!-- 40 -->
      <g transform="translate(20.878125 116.990735)scale(0.1 -0.1)">
       <use xlink:href="#DejaVuSans-52"/>
       <use x="63.623047" xlink:href="#DejaVuSans-48"/>
      </g>
     </g>
    </g>
    <g id="ytick_5">
     <g id="line2d_23">
      <path clip-path="url(#p162e9cf71e)" d="M 40.603125 58.408908 
L 397.723125 58.408908 
" style="fill:none;stroke:#b0b0b0;stroke-dasharray:2.96,1.28;stroke-dashoffset:0;stroke-width:0.8;"/>
     </g>
     <g id="line2d_24">
      <g>
       <use style="stroke:#000000;stroke-width:0.8;" x="40.603125" xlink:href="#m0ec938955c" y="58.408908"/>
      </g>
     </g>
     <g id="text_13">
      <!-- 45 -->
      <g transform="translate(20.878125 62.208126)scale(0.1 -0.1)">
       <use xlink:href="#DejaVuSans-52"/>
       <use x="63.623047" xlink:href="#DejaVuSans-53"/>
      </g>
     </g>
    </g>
    <g id="text_14">
     <!-- Price $ -->
     <defs>
      <path d="M 19.671875 64.796875 
L 19.671875 37.40625 
L 32.078125 37.40625 
Q 38.96875 37.40625 42.71875 40.96875 
Q 46.484375 44.53125 46.484375 51.125 
Q 46.484375 57.671875 42.71875 61.234375 
Q 38.96875 64.796875 32.078125 64.796875 
z
M 9.8125 72.90625 
L 32.078125 72.90625 
Q 44.34375 72.90625 50.609375 67.359375 
Q 56.890625 61.8125 56.890625 51.125 
Q 56.890625 40.328125 50.609375 34.8125 
Q 44.34375 29.296875 32.078125 29.296875 
L 19.671875 29.296875 
L 19.671875 0 
L 9.8125 0 
z
" id="DejaVuSans-80"/>
      <path d="M 41.109375 46.296875 
Q 39.59375 47.171875 37.8125 47.578125 
Q 36.03125 48 33.890625 48 
Q 26.265625 48 22.1875 43.046875 
Q 18.109375 38.09375 18.109375 28.8125 
L 18.109375 0 
L 9.078125 0 
L 9.078125 54.6875 
L 18.109375 54.6875 
L 18.109375 46.1875 
Q 20.953125 51.171875 25.484375 53.578125 
Q 30.03125 56 36.53125 56 
Q 37.453125 56 38.578125 55.875 
Q 39.703125 55.765625 41.0625 55.515625 
z
" id="DejaVuSans-114"/>
      <path d="M 9.421875 54.6875 
L 18.40625 54.6875 
L 18.40625 0 
L 9.421875 0 
z
M 9.421875 75.984375 
L 18.40625 75.984375 
L 18.40625 64.59375 
L 9.421875 64.59375 
z
" id="DejaVuSans-105"/>
      <path d="M 48.78125 52.59375 
L 48.78125 44.1875 
Q 44.96875 46.296875 41.140625 47.34375 
Q 37.3125 48.390625 33.40625 48.390625 
Q 24.65625 48.390625 19.8125 42.84375 
Q 14.984375 37.3125 14.984375 27.296875 
Q 14.984375 17.28125 19.8125 11.734375 
Q 24.65625 6.203125 33.40625 6.203125 
Q 37.3125 6.203125 41.140625 7.25 
Q 44.96875 8.296875 48.78125 10.40625 
L 48.78125 2.09375 
Q 45.015625 0.34375 40.984375 -0.53125 
Q 36.96875 -1.421875 32.421875 -1.421875 
Q 20.0625 -1.421875 12.78125 6.34375 
Q 5.515625 14.109375 5.515625 27.296875 
Q 5.515625 40.671875 12.859375 48.328125 
Q 20.21875 56 33.015625 56 
Q 37.15625 56 41.109375 55.140625 
Q 45.0625 54.296875 48.78125 52.59375 
z
" id="DejaVuSans-99"/>
      <path d="M 56.203125 29.59375 
L 56.203125 25.203125 
L 14.890625 25.203125 
Q 15.484375 15.921875 20.484375 11.0625 
Q 25.484375 6.203125 34.421875 6.203125 
Q 39.59375 6.203125 44.453125 7.46875 
Q 49.3125 8.734375 54.109375 11.28125 
L 54.109375 2.78125 
Q 49.265625 0.734375 44.1875 -0.34375 
Q 39.109375 -1.421875 33.890625 -1.421875 
Q 20.796875 -1.421875 13.15625 6.1875 
Q 5.515625 13.8125 5.515625 26.8125 
Q 5.515625 40.234375 12.765625 48.109375 
Q 20.015625 56 32.328125 56 
Q 43.359375 56 49.78125 48.890625 
Q 56.203125 41.796875 56.203125 29.59375 
z
M 47.21875 32.234375 
Q 47.125 39.59375 43.09375 43.984375 
Q 39.0625 48.390625 32.421875 48.390625 
Q 24.90625 48.390625 20.390625 44.140625 
Q 15.875 39.890625 15.1875 32.171875 
z
" id="DejaVuSans-101"/>
      <path id="DejaVuSans-32"/>
      <path d="M 33.796875 -14.703125 
L 28.90625 -14.703125 
L 28.859375 0 
Q 23.734375 0.09375 18.609375 1.1875 
Q 13.484375 2.296875 8.296875 4.5 
L 8.296875 13.28125 
Q 13.28125 10.15625 18.375 8.5625 
Q 23.484375 6.984375 28.90625 6.9375 
L 28.90625 29.203125 
Q 18.109375 30.953125 13.203125 35.15625 
Q 8.296875 39.359375 8.296875 46.6875 
Q 8.296875 54.640625 13.625 59.21875 
Q 18.953125 63.8125 28.90625 64.5 
L 28.90625 75.984375 
L 33.796875 75.984375 
L 33.796875 64.65625 
Q 38.328125 64.453125 42.578125 63.6875 
Q 46.828125 62.9375 50.875 61.625 
L 50.875 53.078125 
Q 46.828125 55.125 42.546875 56.25 
Q 38.28125 57.375 33.796875 57.5625 
L 33.796875 36.71875 
Q 44.875 35.015625 50.09375 30.609375 
Q 55.328125 26.21875 55.328125 18.609375 
Q 55.328125 10.359375 49.78125 5.59375 
Q 44.234375 0.828125 33.796875 0.09375 
z
M 28.90625 37.59375 
L 28.90625 57.625 
Q 23.25 56.984375 20.265625 54.390625 
Q 17.28125 51.8125 17.28125 47.515625 
Q 17.28125 43.3125 20.03125 40.96875 
Q 22.796875 38.625 28.90625 37.59375 
z
M 33.796875 28.21875 
L 33.796875 7.078125 
Q 39.984375 7.90625 43.140625 10.59375 
Q 46.296875 13.28125 46.296875 17.671875 
Q 46.296875 21.96875 43.28125 24.5 
Q 40.28125 27.046875 33.796875 28.21875 
z
" id="DejaVuSans-36"/>
     </defs>
     <g transform="translate(14.798438 172.342094)rotate(-90)scale(0.1 -0.1)">
      <use xlink:href="#DejaVuSans-80"/>
      <use x="58.552734" xlink:href="#DejaVuSans-114"/>
      <use x="99.666016" xlink:href="#DejaVuSans-105"/>
      <use x="127.449219" xlink:href="#DejaVuSans-99"/>
      <use x="182.429688" xlink:href="#DejaVuSans-101"/>
      <use x="243.953125" xlink:href="#DejaVuSans-32"/>
      <use x="275.740234" xlink:href="#DejaVuSans-36"/>
     </g>
    </g>
   </g>
   <g id="line2d_25">
    <path clip-path="url(#p162e9cf71e)" d="M 56.835852 267.781044 
L 57.080505 268.811791 
L 57.325158 267.660672 
L 57.569811 268.898622 
L 57.814464 271.27206 
L 58.059117 261.409147 
L 58.30377 260.368849 
L 58.548423 258.201026 
L 58.793076 257.139391 
L 59.037729 257.474928 
L 59.282382 258.236322 
L 59.527035 257.82781 
L 59.771688 258.220753 
L 60.016341 259.517719 
L 60.260994 259.713971 
L 60.505647 261.072962 
L 60.7503 260.12426 
L 60.994953 257.577662 
L 61.239606 257.776338 
L 61.484259 256.23029 
L 61.728912 252.09869 
L 61.973566 252.932454 
L 62.218219 251.866619 
L 62.462872 253.287175 
L 62.707525 255.423171 
L 62.952178 254.162589 
L 63.196831 251.864132 
L 63.441484 251.86198 
L 63.686137 248.315751 
L 63.93079 264.037079 
L 64.175443 262.818481 
L 64.420096 266.035254 
L 64.664749 266.812092 
L 64.909402 263.60746 
L 65.398708 266.741206 
L 66.132667 254.157051 
L 66.37732 253.161203 
L 66.621973 254.050012 
L 66.866626 255.60492 
L 67.111279 255.495102 
L 67.355932 256.664005 
L 67.600585 256.23587 
L 67.845238 247.859822 
L 68.089891 245.206059 
L 68.334544 246.234403 
L 68.579197 244.093308 
L 69.068503 250.469991 
L 69.313156 252.519825 
L 69.802462 253.451036 
L 70.291768 253.540249 
L 70.536421 253.891041 
L 70.781074 251.533611 
L 71.025727 252.172021 
L 71.27038 256.471619 
L 71.515033 256.712593 
L 71.759686 259.719217 
L 72.248992 262.149204 
L 72.493645 260.130696 
L 72.738298 259.702937 
L 72.982951 258.203471 
L 73.227604 263.078033 
L 73.472257 261.921417 
L 73.71691 261.850866 
L 73.961563 264.94827 
L 74.695522 267.66109 
L 75.184828 274.861025 
L 75.429481 275.027748 
L 75.674134 269.519499 
L 75.918787 267.138433 
L 76.16344 270.070765 
L 76.408093 271.230912 
L 76.652746 269.947342 
L 76.897399 271.916092 
L 77.142052 272.424204 
L 77.386705 269.669065 
L 77.876011 267.775715 
L 78.120664 269.787452 
L 78.365317 268.691419 
L 78.60997 270.723678 
L 78.854623 270.879096 
L 79.099276 270.65296 
L 79.343929 266.204276 
L 79.588582 265.615812 
L 79.833235 266.996683 
L 80.077888 265.440248 
L 80.322541 265.751418 
L 80.567194 265.17495 
L 80.811847 268.614452 
L 81.0565 266.658785 
L 81.301153 266.652285 
L 81.545806 269.784401 
L 81.790459 270.01246 
L 82.279765 274.599822 
L 82.524418 273.067232 
L 82.769071 269.813177 
L 83.013724 260.0591 
L 83.50303 258.596435 
L 83.747683 259.628708 
L 83.992336 259.121683 
L 84.481643 251.867079 
L 84.970949 250.604574 
L 85.215602 247.787849 
L 85.460255 246.514916 
L 85.704908 243.779296 
L 85.949561 244.287972 
L 86.194214 249.754071 
L 86.438867 246.675015 
L 86.68352 246.503966 
L 86.928173 246.636584 
L 87.417479 246.544737 
L 87.662132 247.793304 
L 87.906785 246.364242 
L 88.151438 242.124621 
L 88.396091 245.741192 
L 88.640744 244.629737 
L 88.885397 245.213436 
L 89.13005 244.582758 
L 89.374703 247.403662 
L 89.619356 247.263375 
L 89.864009 248.09415 
L 90.108662 247.179699 
L 90.353315 259.522128 
L 91.087274 255.129806 
L 91.57658 257.443999 
L 91.821233 260.318046 
L 92.310539 248.627214 
L 92.555192 247.846426 
L 92.799845 246.093928 
L 93.044498 240.933482 
L 93.289151 238.182315 
L 93.778457 238.528091 
L 94.02311 237.952709 
L 94.267763 239.970946 
L 94.512416 243.131231 
L 94.757069 239.338073 
L 95.001722 239.737202 
L 95.246375 240.955655 
L 95.491028 241.570994 
L 95.735681 240.716248 
L 95.980334 237.831773 
L 96.224987 238.482701 
L 96.46964 225.942285 
L 96.714293 225.33495 
L 96.958946 219.751991 
L 97.203599 219.065745 
L 97.448252 216.602655 
L 97.937558 214.763452 
L 98.182211 219.871757 
L 98.426864 219.976539 
L 98.671517 222.663654 
L 98.91617 220.857344 
L 99.405476 220.334541 
L 99.894782 217.685418 
L 100.139435 221.485305 
L 100.384088 216.935768 
L 100.628741 225.021252 
L 100.873394 221.090753 
L 101.118047 204.676199 
L 101.3627 205.75729 
L 101.607353 203.153536 
L 101.852006 207.489287 
L 102.096659 204.849694 
L 102.341312 205.194634 
L 102.585965 204.449248 
L 102.830618 206.377686 
L 103.075271 205.971974 
L 103.319924 206.58305 
L 103.564577 203.370435 
L 103.80923 209.740326 
L 104.053883 206.350665 
L 104.543189 215.455695 
L 104.787842 215.405644 
L 105.032495 213.277234 
L 105.521801 206.247701 
L 105.766454 205.941463 
L 106.011107 206.182896 
L 106.25576 213.119351 
L 106.500413 211.481811 
L 106.745066 203.467443 
L 107.234373 211.816847 
L 107.479026 208.936781 
L 107.968332 227.433602 
L 108.212985 227.471615 
L 108.457638 225.773869 
L 108.702291 229.25824 
L 108.946944 227.144375 
L 109.191597 229.032647 
L 109.43625 224.719068 
L 109.680903 228.150086 
L 109.925556 225.631512 
L 110.170209 228.229854 
L 110.414862 223.202026 
L 110.659515 224.836723 
L 110.904168 219.308036 
L 111.148821 217.968375 
L 111.638127 241.287618 
L 111.88278 235.843128 
L 112.127433 237.875157 
L 112.372086 236.837179 
L 112.861392 232.282188 
L 113.106045 237.838419 
L 113.350698 232.92158 
L 113.595351 235.497999 
L 113.840004 236.78786 
L 114.084657 235.445149 
L 114.32931 235.652268 
L 114.573963 232.411274 
L 114.818616 231.119365 
L 115.063269 220.151183 
L 115.307922 219.402285 
L 115.552575 220.454244 
L 115.797228 223.983671 
L 116.041881 216.674001 
L 116.286534 216.248331 
L 116.531187 214.92704 
L 116.77584 215.063566 
L 117.020493 210.851238 
L 117.265146 214.551359 
L 117.754452 205.865875 
L 117.999105 205.243243 
L 118.243758 211.650792 
L 118.488411 208.641431 
L 118.733064 204.094485 
L 118.977717 202.118254 
L 119.22237 204.138726 
L 119.467023 203.113119 
L 119.711676 209.872067 
L 119.956329 193.282869 
L 120.200982 200.081293 
L 120.445635 202.993855 
L 120.690288 200.790693 
L 121.179594 210.383815 
L 121.6689 214.998219 
L 121.913553 214.642515 
L 122.158206 215.341864 
L 122.647512 208.327837 
L 122.892165 215.830687 
L 123.136818 215.743145 
L 123.381471 216.118702 
L 123.626124 214.837827 
L 123.870777 214.562518 
L 124.11543 213.393949 
L 124.360083 212.820448 
L 124.604736 214.353664 
L 125.094042 210.390565 
L 125.338695 211.234673 
L 125.583348 208.015246 
L 125.828001 207.949961 
L 126.317307 202.083835 
L 126.56196 201.503437 
L 126.806613 192.633404 
L 127.051266 190.774953 
L 127.295919 197.816378 
L 127.540572 201.437567 
L 127.785225 200.101104 
L 128.029878 199.698652 
L 128.274531 200.843105 
L 128.519184 202.97536 
L 129.00849 213.324275 
L 129.497797 216.159097 
L 129.74245 212.933422 
L 129.987103 214.338367 
L 130.231756 214.686255 
L 130.476409 215.23472 
L 130.721062 209.464996 
L 130.965715 213.296711 
L 131.210368 214.323989 
L 131.455021 216.251842 
L 131.944327 197.406194 
L 132.18898 195.349129 
L 132.433633 195.57002 
L 132.678286 187.42715 
L 132.922939 188.505148 
L 133.167592 187.083631 
L 133.412245 184.55816 
L 133.656898 183.577547 
L 133.901551 180.244791 
L 134.146204 180.101055 
L 134.390857 182.762988 
L 134.880163 183.234487 
L 135.124816 184.69082 
L 135.369469 184.499688 
L 135.614122 198.701195 
L 135.858775 192.993224 
L 136.103428 196.892816 
L 136.348081 195.384823 
L 136.837387 177.63343 
L 137.326693 179.930946 
L 137.815999 184.400757 
L 138.060652 179.870175 
L 138.305305 179.74391 
L 138.549958 182.343442 
L 138.794611 180.245 
L 139.039264 179.428978 
L 139.283917 185.078226 
L 139.52857 185.123323 
L 140.017876 176.081886 
L 140.262529 173.527493 
L 140.507182 167.539825 
L 140.751835 171.783855 
L 140.996488 179.322775 
L 141.485794 177.962823 
L 141.730447 179.339117 
L 141.9751 179.354874 
L 142.219753 178.176191 
L 142.464406 171.525097 
L 142.709059 173.623247 
L 142.953712 171.256434 
L 143.198365 170.564797 
L 143.443018 170.33935 
L 143.687671 168.492184 
L 143.932324 168.279193 
L 144.42163 164.09259 
L 144.666283 169.76449 
L 144.910936 170.528685 
L 145.155589 172.194039 
L 145.400242 169.872658 
L 145.644895 169.750405 
L 146.134201 159.511016 
L 146.378854 166.145349 
L 146.86816 161.107115 
L 147.112813 160.473532 
L 147.357466 165.015776 
L 147.602119 174.092614 
L 147.846772 174.186529 
L 148.091425 173.370006 
L 148.336078 182.415206 
L 148.580731 183.325184 
L 148.825384 181.905924 
L 149.070037 189.582184 
L 149.31469 190.863811 
L 149.559343 193.174493 
L 149.803996 199.259211 
L 150.048649 198.764223 
L 150.293302 198.59658 
L 150.537955 191.368036 
L 150.782608 189.878391 
L 151.027261 187.404999 
L 151.271914 186.158397 
L 151.516567 186.571548 
L 151.76122 177.775828 
L 152.250527 176.380141 
L 152.49518 176.205769 
L 152.739833 173.224849 
L 152.984486 175.32442 
L 153.229139 174.643483 
L 153.473792 178.263335 
L 153.963098 179.99527 
L 154.207751 177.965038 
L 154.452404 180.50405 
L 154.697057 175.62372 
L 154.94171 175.111471 
L 155.186363 169.150176 
L 155.431016 167.64887 
L 155.675669 167.734719 
L 155.920322 168.447713 
L 156.164975 169.693688 
L 156.654281 175.268999 
L 156.898934 175.04234 
L 157.143587 174.041832 
L 157.38824 177.323347 
L 157.632893 175.424312 
L 157.877546 177.071444 
L 158.122199 179.692752 
L 158.366852 175.461929 
L 158.611505 177.279587 
L 158.856158 176.159543 
L 159.83477 169.264947 
L 160.079423 170.800734 
L 160.568729 176.031773 
L 161.058035 169.15632 
L 161.302688 171.057444 
L 161.547341 174.283203 
L 161.791994 173.179376 
L 162.036647 175.036238 
L 162.2813 169.645665 
L 162.525953 170.932433 
L 163.504565 163.808336 
L 163.749218 163.810008 
L 163.993871 157.023705 
L 164.238524 160.430817 
L 164.483177 159.983183 
L 164.72783 160.139918 
L 165.217136 161.802221 
L 165.461789 164.71447 
L 165.706442 133.698381 
L 165.951095 136.909637 
L 166.195748 135.100255 
L 166.440401 137.964856 
L 166.685054 137.990435 
L 166.929707 139.368401 
L 167.17436 141.822777 
L 167.419013 139.714763 
L 167.663666 142.701868 
L 168.152972 139.023795 
L 168.397625 142.245834 
L 168.642278 142.335236 
L 168.886931 140.87071 
L 169.131584 140.820221 
L 169.376237 140.309894 
L 169.865543 137.441573 
L 170.354849 132.632254 
L 170.599502 132.006027 
L 170.844155 133.238586 
L 171.578114 140.711343 
L 171.822767 141.180877 
L 172.06742 140.966046 
L 172.312073 142.632446 
L 172.556726 141.780313 
L 172.801379 140.426755 
L 173.046032 140.116045 
L 173.290685 141.75791 
L 173.535338 144.29943 
L 173.779991 144.634632 
L 174.024644 144.275648 
L 174.269298 138.844784 
L 174.513951 142.157645 
L 175.003257 137.096297 
L 175.24791 135.727903 
L 175.492563 136.193383 
L 175.737216 135.896423 
L 175.981869 134.674899 
L 176.471175 135.696556 
L 176.715828 129.860355 
L 176.960481 128.323398 
L 177.205134 134.447153 
L 177.69444 132.933936 
L 177.939093 130.422384 
L 178.183746 131.62184 
L 178.428399 128.900389 
L 178.673052 131.593126 
L 178.917705 131.905717 
L 179.407011 133.569191 
L 179.651664 134.547004 
L 180.14097 156.423685 
L 180.385623 151.860083 
L 180.630276 151.120256 
L 181.364235 166.037683 
L 181.853541 158.225628 
L 182.098194 158.068726 
L 182.342847 157.427328 
L 182.5875 158.225293 
L 183.321459 153.156339 
L 183.566112 153.115463 
L 183.810765 154.458195 
L 184.055418 157.805245 
L 184.300071 154.639547 
L 184.544724 155.699739 
L 184.789377 154.2549 
L 185.03403 153.753099 
L 185.278683 155.112425 
L 185.523336 159.465459 
L 185.767989 158.700804 
L 186.012642 161.380208 
L 186.257295 159.953049 
L 186.501948 164.921902 
L 186.746601 161.774176 
L 186.991254 161.500079 
L 187.235907 160.063473 
L 187.48056 164.754008 
L 187.725213 163.87801 
L 187.969866 161.841175 
L 188.214519 162.705679 
L 188.459172 159.57814 
L 188.703825 162.326842 
L 188.948478 168.486082 
L 189.193131 170.92817 
L 189.437784 166.288165 
L 189.92709 174.438474 
L 190.171743 177.554478 
L 190.416396 177.93181 
L 190.661049 182.973639 
L 190.905702 182.899619 
L 191.150355 177.320881 
L 191.395008 175.065495 
L 191.639661 180.502587 
L 191.884314 179.54818 
L 192.37362 185.189653 
L 192.618273 190.979544 
L 193.107579 194.37374 
L 193.352232 195.497964 
L 193.841538 187.68921 
L 194.086191 187.386191 
L 194.575497 174.112718 
L 194.82015 173.680089 
L 195.309456 163.93619 
L 195.554109 166.763467 
L 195.798762 163.977526 
L 196.043415 163.334957 
L 196.288068 161.184186 
L 196.532721 165.26095 
L 196.777375 144.887371 
L 197.022028 135.741779 
L 197.266681 136.597506 
L 197.511334 135.143639 
L 197.755987 137.049946 
L 198.00064 135.995897 
L 198.245293 131.616866 
L 198.489946 131.98655 
L 199.223905 122.731369 
L 199.468558 123.001286 
L 199.713211 122.80029 
L 200.202517 126.295967 
L 200.44717 123.185146 
L 200.691823 122.187564 
L 200.936476 123.121407 
L 201.670435 129.941105 
L 201.915088 129.507473 
L 202.159741 132.508914 
L 202.404394 129.579697 
L 202.649047 134.912215 
L 202.8937 135.36453 
L 203.383006 149.40274 
L 203.627659 155.148996 
L 203.872312 152.906483 
L 204.116965 149.223478 
L 204.361618 141.36319 
L 204.606271 140.192239 
L 205.095577 139.879063 
L 205.34023 138.693274 
L 205.584883 144.652688 
L 205.829536 147.498063 
L 206.074189 154.044374 
L 206.318842 150.687544 
L 206.563495 155.846067 
L 206.808148 156.116151 
L 207.052801 143.516302 
L 207.297454 140.441175 
L 207.78676 149.896349 
L 208.031413 152.731359 
L 208.276066 151.468916 
L 208.520719 149.03686 
L 208.765372 144.955666 
L 209.254678 143.12317 
L 209.499331 139.007453 
L 209.988637 151.634511 
L 210.477943 159.310104 
L 210.722596 158.004235 
L 210.967249 162.637385 
L 211.211902 157.812601 
L 211.456555 155.209098 
L 211.701208 155.03878 
L 211.945861 153.056948 
L 212.190514 156.828101 
L 212.435167 158.414378 
L 212.67982 157.878764 
L 212.924473 146.211546 
L 213.169126 144.930087 
L 213.413779 146.12248 
L 213.658432 143.504181 
L 213.903085 147.053105 
L 214.147738 144.586818 
L 214.392391 146.080809 
L 214.637044 145.564464 
L 214.881697 146.064927 
L 215.12635 149.19209 
L 215.371003 149.147828 
L 215.615656 146.782101 
L 215.860309 147.98465 
L 216.349615 151.925661 
L 216.594268 151.606884 
L 216.838921 165.288619 
L 217.083574 163.911154 
L 217.328227 173.214986 
L 217.57288 174.230457 
L 217.817533 168.102814 
L 218.062186 171.299442 
L 218.306839 170.65821 
L 218.551492 173.524024 
L 218.796145 167.795615 
L 219.040798 170.932391 
L 219.285452 170.653069 
L 219.530105 165.138948 
L 219.774758 168.446251 
L 220.019411 159.770861 
L 220.264064 166.584874 
L 220.508717 162.731342 
L 220.75337 152.066011 
L 220.998023 156.536993 
L 221.242676 154.598211 
L 221.731982 146.291669 
L 221.976635 145.268257 
L 222.221288 141.186101 
L 222.710594 141.532714 
L 222.955247 142.711899 
L 223.1999 141.060129 
L 223.444553 140.235163 
L 223.933859 145.814319 
L 224.178512 145.6221 
L 224.423165 151.408563 
L 224.667818 147.08161 
L 224.912471 148.310449 
L 225.157124 147.877737 
L 225.401777 148.623666 
L 225.64643 148.790139 
L 225.891083 129.014492 
L 226.135736 133.163646 
L 226.380389 129.109118 
L 226.625042 129.331346 
L 226.869695 132.129994 
L 227.114348 130.416323 
L 227.603654 120.306627 
L 227.848307 121.757568 
L 228.09296 120.479996 
L 228.337613 119.851763 
L 228.826919 108.973943 
L 229.071572 114.409822 
L 229.560878 106.458796 
L 230.050184 111.631237 
L 230.294837 112.040543 
L 230.784143 106.98931 
L 231.028796 93.339174 
L 231.273449 105.352294 
L 231.518102 101.543065 
L 231.762755 101.494791 
L 232.007408 109.324609 
L 232.252061 112.00439 
L 232.496714 110.296613 
L 232.741367 107.407435 
L 232.98602 107.449022 
L 233.230673 108.362177 
L 233.475326 107.012674 
L 233.719979 109.635946 
L 233.964632 104.06189 
L 234.209285 104.04747 
L 234.453938 103.500655 
L 234.698591 101.546701 
L 234.943244 102.912797 
L 235.187897 102.927468 
L 235.43255 103.915855 
L 235.921856 103.069406 
L 236.166509 105.633997 
L 236.655815 96.12871 
L 236.900468 96.111866 
L 237.145121 99.024366 
L 237.389774 93.756923 
L 237.634427 97.785956 
L 237.87908 98.48871 
L 238.123733 97.532548 
L 238.613039 92.846359 
L 238.857692 97.727859 
L 239.102345 91.346349 
L 239.346998 92.549985 
L 239.591651 92.616608 
L 240.080957 88.559404 
L 240.570263 90.859721 
L 240.814916 90.134563 
L 241.304222 78.171013 
L 241.548875 56.094966 
L 241.793529 58.47833 
L 242.527488 47.286582 
L 242.772141 41.02862 
L 243.016794 48.684359 
L 243.261447 45.393023 
L 243.5061 48.074976 
L 243.750753 44.162805 
L 243.995406 50.243636 
L 244.240059 45.755434 
L 244.484712 51.717356 
L 244.729365 53.334938 
L 245.707977 89.112363 
L 245.95263 93.817192 
L 246.441936 82.787653 
L 246.686589 83.119345 
L 246.931242 88.395272 
L 247.175895 97.929984 
L 247.665201 77.500441 
L 247.909854 82.589249 
L 248.154507 79.435922 
L 248.39916 90.078599 
L 248.643813 85.877492 
L 248.888466 86.031259 
L 249.133119 88.128866 
L 249.377772 80.458874 
L 249.622425 81.461389 
L 249.867078 74.029006 
L 250.111731 82.696204 
L 250.356384 82.118878 
L 250.601037 91.794568 
L 250.84569 88.5579 
L 251.090343 89.796644 
L 251.334996 84.882292 
L 251.579649 97.189571 
L 251.824302 103.229066 
L 252.068955 92.696521 
L 252.313608 89.810771 
L 252.558261 74.061189 
L 252.802914 67.791399 
L 253.047567 72.729992 
L 253.536873 56.769509 
L 253.781526 58.466126 
L 254.026179 59.080734 
L 254.270832 60.842343 
L 254.515485 60.648996 
L 254.760138 57.979247 
L 255.004791 47.952055 
L 255.249444 44.724499 
L 255.494097 50.716639 
L 255.73875 52.626666 
L 255.983403 36.721311 
L 256.228056 42.273425 
L 256.472709 39.682419 
L 257.206668 44.943592 
L 257.451321 46.023094 
L 257.695974 42.901658 
L 257.940627 43.957044 
L 258.18528 49.129903 
L 258.429933 49.347115 
L 258.674586 60.700614 
L 258.919239 65.928894 
L 259.163892 62.696657 
L 259.408545 64.279673 
L 259.653198 73.438849 
L 259.897851 76.37559 
L 260.142504 68.506149 
L 260.387157 70.782767 
L 260.63181 64.173386 
L 260.876463 62.795754 
L 261.121116 69.251996 
L 261.365769 67.988299 
L 261.855075 69.852183 
L 262.099728 65.174772 
L 262.344381 73.134367 
L 262.589034 65.639291 
L 262.833687 70.774868 
L 263.07834 83.397078 
L 263.322993 63.45709 
L 263.567646 69.014052 
L 263.812299 69.694153 
L 264.056952 72.574345 
L 264.301606 69.339349 
L 264.546259 82.004065 
L 264.790912 76.385538 
L 265.280218 60.732922 
L 265.524871 65.990543 
L 265.769524 77.037761 
L 266.014177 64.659555 
L 266.25883 61.251274 
L 266.503483 53.632984 
L 266.748136 56.784263 
L 266.992789 58.383078 
L 267.237442 51.716687 
L 267.482095 54.536693 
L 267.726748 61.327885 
L 267.971401 73.031006 
L 268.216054 67.674036 
L 268.460707 71.497016 
L 268.70536 94.277699 
L 268.950013 100.053922 
L 269.194666 93.00581 
L 269.439319 90.437583 
L 269.683972 104.597294 
L 269.928625 98.8199 
L 270.173278 107.755887 
L 270.417931 97.209215 
L 270.662584 104.729745 
L 270.907237 108.607435 
L 271.15189 94.92917 
L 271.396543 108.117337 
L 271.641196 99.179595 
L 271.885849 100.167732 
L 272.130502 95.033618 
L 272.375155 79.744333 
L 272.619808 82.634806 
L 272.864461 91.741654 
L 273.109114 120.596648 
L 273.353767 133.499601 
L 273.59842 136.991139 
L 273.843073 150.782713 
L 274.087726 144.171785 
L 274.332379 134.225845 
L 274.577032 136.934297 
L 274.821685 132.856865 
L 275.310991 115.169378 
L 275.555644 113.910739 
L 275.800297 114.127575 
L 276.04495 116.032336 
L 276.289603 111.946461 
L 276.778909 96.160182 
L 277.023562 106.325885 
L 277.268215 105.892086 
L 277.512868 108.222914 
L 277.757521 99.603196 
L 278.002174 100.569682 
L 278.246827 93.590116 
L 278.49148 90.937419 
L 278.980786 98.550944 
L 279.225439 92.343472 
L 279.470092 94.370485 
L 279.714745 87.582511 
L 279.959398 88.180107 
L 280.204051 94.935147 
L 280.448704 94.234691 
L 280.693357 103.213602 
L 280.93801 104.775428 
L 281.182663 104.470109 
L 281.427316 113.702804 
L 281.671969 113.03357 
L 281.916622 117.593033 
L 282.161275 117.285416 
L 282.650581 107.53997 
L 282.895234 111.193802 
L 283.139887 99.902663 
L 283.38454 99.489762 
L 283.629193 101.372914 
L 283.873846 92.74793 
L 284.118499 95.681286 
L 284.363152 88.484088 
L 284.607805 89.18375 
L 284.852458 86.968196 
L 285.097111 83.597364 
L 285.341764 89.062124 
L 285.586417 80.100684 
L 285.83107 77.615045 
L 286.075723 77.521005 
L 286.320376 78.894582 
L 286.56503 92.733845 
L 286.809683 89.768014 
L 287.054336 88.681908 
L 287.298989 86.098174 
L 287.543642 71.521801 
L 288.032948 80.695982 
L 288.277601 66.063476 
L 288.522254 73.116436 
L 288.766907 73.273004 
L 289.01156 69.81695 
L 289.256213 70.689813 
L 289.500866 66.455688 
L 289.745519 58.700057 
L 289.990172 65.392946 
L 290.234825 60.475209 
L 290.479478 65.158137 
L 290.724131 64.298481 
L 290.968784 76.855741 
L 291.213437 77.749753 
L 291.702743 76.107888 
L 291.947396 77.793722 
L 292.192049 67.72603 
L 292.436702 67.036483 
L 292.681355 65.711765 
L 292.926008 61.285254 
L 293.170661 64.149145 
L 293.90462 56.095008 
L 294.149273 57.481333 
L 294.393926 55.579331 
L 294.638579 58.196836 
L 294.883232 57.604631 
L 295.127885 58.920614 
L 295.372538 68.338255 
L 295.861844 71.71193 
L 296.106497 67.448005 
L 296.35115 68.866722 
L 296.840456 64.082355 
L 297.085109 67.195641 
L 297.329762 60.602979 
L 297.574415 87.180937 
L 297.819068 96.701312 
L 298.063721 91.724351 
L 298.308374 80.445834 
L 298.553027 54.006722 
L 299.042333 60.687532 
L 299.286986 57.051338 
L 299.531639 57.1901 
L 299.776292 47.408751 
L 300.265598 51.262032 
L 300.510251 52.210672 
L 300.754904 51.329324 
L 300.999557 54.349865 
L 301.24421 54.205126 
L 301.488863 51.984348 
L 301.733516 56.954539 
L 301.978169 56.557144 
L 302.222822 57.084022 
L 302.467475 51.156749 
L 302.712128 55.224067 
L 302.956781 69.682242 
L 303.201434 66.990967 
L 303.446087 68.574067 
L 303.935393 79.134699 
L 304.180046 78.635908 
L 304.424699 84.778179 
L 304.669352 77.262748 
L 305.158658 74.401658 
L 305.403311 74.794413 
L 305.647964 78.728402 
L 305.892617 78.440429 
L 306.13727 80.037196 
L 306.381923 83.151653 
L 306.871229 77.280512 
L 307.115882 79.777602 
L 307.360535 78.051895 
L 307.605188 78.334895 
L 307.849841 80.282245 
L 308.094494 79.486871 
L 308.339147 80.183816 
L 308.5838 79.908131 
L 308.828453 62.510289 
L 309.073107 59.077975 
L 309.31776 70.363513 
L 309.807066 65.31483 
L 310.051719 74.124551 
L 310.296372 73.855136 
L 310.541025 89.562044 
L 310.785678 75.14019 
L 311.030331 82.666571 
L 311.274984 84.940681 
L 311.519637 80.134539 
L 311.76429 80.33123 
L 312.008943 81.603202 
L 312.253596 81.763363 
L 312.498249 80.939944 
L 312.742902 76.581226 
L 312.987555 78.82796 
L 313.232208 83.388844 
L 313.476861 78.402646 
L 313.721514 75.946473 
L 313.966167 79.130687 
L 314.21082 71.093185 
L 314.455473 72.493846 
L 314.700126 78.841543 
L 314.944779 80.250564 
L 315.189432 80.192468 
L 315.434085 83.209791 
L 315.678738 80.493606 
L 315.923391 87.544978 
L 316.168044 87.184448 
L 316.412697 92.20843 
L 316.65735 90.666833 
L 316.902003 91.053402 
L 317.391309 89.502402 
L 317.635962 89.654705 
L 317.880615 88.977571 
L 318.125268 84.322897 
L 318.369921 83.207952 
L 318.614574 66.318013 
L 318.859227 69.915755 
L 319.10388 56.992573 
L 319.348533 59.504459 
L 320.327145 82.746066 
L 320.816451 46.752766 
L 321.305757 92.273966 
L 321.55041 98.841843 
L 321.795063 95.710668 
L 322.039716 86.259882 
L 322.284369 84.211219 
L 322.529022 80.143859 
L 322.773675 81.312679 
L 323.018328 79.892207 
L 323.262981 75.711204 
L 323.507634 85.681303 
L 323.752287 77.081731 
L 323.99694 81.157993 
L 324.241593 82.756766 
L 324.486246 100.005731 
L 324.730899 103.828878 
L 324.975552 99.955158 
L 325.220205 101.247318 
L 325.464858 105.181599 
L 325.709511 91.953308 
L 325.954164 97.076346 
L 326.688123 79.930283 
L 326.932776 83.33823 
L 327.177429 63.698335 
L 327.422082 67.956576 
L 327.666735 65.917985 
L 327.911388 68.221478 
L 328.156041 62.130532 
L 328.400694 61.487462 
L 328.645347 59.610704 
L 329.134653 63.70335 
L 329.379306 63.335129 
L 329.623959 67.961968 
L 329.868612 60.766735 
L 330.113265 61.636004 
L 330.357918 58.692618 
L 330.602571 58.731738 
L 331.091877 67.679052 
L 331.33653 57.833797 
L 331.825837 65.124993 
L 332.07049 61.041877 
L 332.315143 59.15676 
L 332.559796 62.916503 
L 332.804449 55.359067 
L 333.049102 59.139289 
L 333.293755 60.01696 
L 333.538408 60.427311 
L 334.027714 69.313017 
L 334.272367 65.833808 
L 334.761673 70.832713 
L 335.006326 68.376039 
L 335.250979 63.939079 
L 335.495632 67.296704 
L 335.740285 66.500702 
L 335.984938 61.266278 
L 336.229591 59.235378 
L 336.474244 55.758426 
L 336.718897 55.916665 
L 336.96355 56.222903 
L 337.208203 53.263718 
L 337.452856 76.562627 
L 337.697509 83.801327 
L 337.942162 59.542452 
L 338.186815 63.846334 
L 338.431468 60.402652 
L 338.676121 54.640681 
L 338.920774 71.855875 
L 339.41008 69.264283 
L 339.654733 72.690913 
L 339.899386 73.087973 
L 340.144039 73.768159 
L 340.388692 78.493928 
L 340.633345 79.194342 
L 340.877998 72.681426 
L 341.122651 72.694173 
L 341.367304 68.747353 
L 341.611957 71.604974 
L 341.85661 63.380645 
L 342.101263 60.407124 
L 342.345916 62.272429 
L 342.835222 69.690141 
L 343.079875 70.082269 
L 343.324528 69.776199 
L 343.569181 71.647021 
L 343.813834 75.874835 
L 344.058487 73.486246 
L 344.30314 72.616099 
L 344.547793 77.966882 
L 345.037099 80.29516 
L 345.771058 68.373489 
L 346.015711 67.300883 
L 346.260364 65.112455 
L 346.505017 68.639143 
L 346.74967 64.134433 
L 346.994323 68.741167 
L 347.238976 66.491006 
L 347.483629 61.138132 
L 347.728282 60.937763 
L 347.972935 58.263667 
L 348.217588 57.868446 
L 348.462241 53.428895 
L 348.706894 52.326906 
L 348.951547 56.465319 
L 349.1962 56.724829 
L 349.440853 56.22307 
L 349.685506 68.136758 
L 349.930159 70.589629 
L 350.174812 57.534497 
L 350.419465 57.900545 
L 350.664118 59.768191 
L 351.153424 65.276294 
L 351.398077 66.057709 
L 351.64273 61.420965 
L 351.887383 60.124668 
L 352.132036 49.768125 
L 352.621342 59.185181 
L 352.865995 57.941672 
L 353.110648 49.910983 
L 353.355301 46.080982 
L 353.599954 46.991211 
L 353.844607 45.106178 
L 354.089261 41.279144 
L 354.578567 43.469078 
L 354.82322 41.160528 
L 355.067873 37.108173 
L 355.312526 34.985447 
L 355.801832 39.251253 
L 356.046485 39.907615 
L 356.291138 43.840183 
L 356.535791 52.183881 
L 356.780444 53.018585 
L 357.025097 52.553816 
L 357.26975 51.400836 
L 357.514403 48.967108 
L 357.759056 55.233847 
L 358.003709 53.730577 
L 358.248362 58.209751 
L 358.737668 60.196515 
L 358.982321 59.495139 
L 359.226974 60.102725 
L 359.471627 69.588452 
L 359.71628 68.933929 
L 359.960933 78.351446 
L 360.205586 78.290006 
L 360.450239 77.751425 
L 360.694892 78.949084 
L 360.939545 79.39212 
L 361.184198 77.408908 
L 361.428851 79.24061 
L 361.673504 79.54852 
L 361.918157 76.886419 
L 362.16281 76.652738 
L 362.407463 73.159194 
L 362.896769 71.490329 
L 363.141422 68.091744 
L 363.386075 71.59068 
L 363.630728 69.234692 
L 363.875381 71.860807 
L 364.120034 66.891452 
L 364.364687 67.571386 
L 364.60934 66.974082 
L 364.853993 70.233278 
L 365.098646 69.464109 
L 365.343299 73.952478 
L 365.587952 68.26737 
L 365.832605 75.929253 
L 366.077258 74.885653 
L 366.321911 68.995035 
L 366.566564 74.343227 
L 367.05587 77.447193 
L 367.300523 74.413444 
L 367.545176 73.318101 
L 367.789829 70.483426 
L 368.034482 69.173628 
L 368.523788 80.870563 
L 369.013094 75.472174 
L 369.257747 79.074137 
L 369.5024 91.948167 
L 369.991706 97.681633 
L 370.236359 92.326712 
L 370.481012 94.265703 
L 370.725665 105.041416 
L 370.970318 102.300614 
L 371.459624 105.84887 
L 371.704277 102.78323 
L 371.94893 105.704381 
L 372.193583 99.163922 
L 372.438236 102.411582 
L 372.682889 101.038924 
L 372.927542 105.613058 
L 373.172195 103.411171 
L 374.150807 110.237305 
L 374.39546 113.728843 
L 374.640113 107.568726 
L 374.884766 106.496203 
L 375.129419 107.096934 
L 375.374072 106.988516 
L 375.618725 105.586392 
L 375.863378 100.771347 
L 376.108031 103.384547 
L 376.352684 101.163183 
L 376.597338 101.991994 
L 376.841991 101.307671 
L 377.086644 104.258121 
L 377.331297 97.964089 
L 377.820603 94.343569 
L 378.309909 96.992587 
L 378.799215 103.361475 
L 379.043868 103.569201 
L 379.288521 101.865018 
L 379.533174 101.146046 
L 379.777827 101.74799 
L 380.02248 101.389549 
L 380.511786 106.261938 
L 380.756439 119.348917 
L 381.001092 97.119605 
L 381.245745 99.495321 
L 381.490398 100.476478 
L 381.490398 100.476478 
" style="fill:none;stroke:#1f77b4;stroke-linecap:square;stroke-width:1.5;"/>
   </g>
   <g id="line2d_26">
    <path clip-path="url(#p162e9cf71e)" d="M 56.835852 268.335864 
L 57.080505 266.801951 
L 57.569811 272.280212 
L 57.814464 261.10456 
L 58.059117 260.447168 
L 58.548423 256.831516 
L 58.793076 257.050647 
L 59.037729 258.146299 
L 59.282382 257.488908 
L 59.527035 258.255864 
L 59.771688 259.680212 
L 60.016341 259.680212 
L 60.260994 261.10456 
L 60.7503 256.721951 
L 60.994953 257.488908 
L 61.239606 255.516734 
L 61.484259 251.353255 
L 61.728912 252.339342 
L 61.973566 251.353255 
L 62.218219 252.777603 
L 62.462872 255.078473 
L 62.707525 253.873255 
L 62.952178 251.572386 
L 63.196831 252.777603 
L 63.441484 248.066299 
L 63.686137 264.829777 
L 63.93079 263.186299 
L 64.175443 266.36369 
L 64.420096 267.678473 
L 64.664749 263.734125 
L 65.154055 266.911516 
L 65.888014 253.215864 
L 66.132667 252.010647 
L 66.37732 252.996734 
L 66.621973 254.968908 
L 67.111279 256.174125 
L 67.355932 255.078473 
L 67.600585 246.641951 
L 67.845238 244.560212 
L 68.089891 246.532386 
L 68.334544 244.012386 
L 69.068503 251.681951 
L 69.313156 252.887168 
L 70.047115 253.215864 
L 70.291768 253.76369 
L 70.536421 250.695864 
L 70.781074 251.02456 
L 71.025727 255.516734 
L 71.27038 255.626299 
L 71.515033 259.132386 
L 71.759686 260.775864 
L 72.004339 261.433255 
L 72.248992 260.008908 
L 72.493645 260.556734 
L 72.738298 257.817603 
L 72.982951 263.514995 
L 73.472257 261.214125 
L 73.961563 265.377603 
L 74.450869 267.021082 
L 74.695522 269.431516 
L 74.940175 276.005429 
L 75.184828 276.334125 
L 75.674134 268.445429 
L 75.918787 271.622821 
L 76.16344 273.047168 
L 76.408093 270.746299 
L 76.652746 271.951516 
L 76.897399 274.581082 
L 77.142052 270.308038 
L 77.631358 267.788038 
L 77.876011 270.198473 
L 78.120664 269.321951 
L 78.365317 272.170647 
L 78.60997 271.841951 
L 78.854623 271.18456 
L 79.099276 267.240212 
L 79.343929 265.158473 
L 79.588582 266.14456 
L 79.833235 265.487168 
L 80.077888 266.14456 
L 80.322541 266.034995 
L 80.567194 267.788038 
L 80.811847 267.240212 
L 81.0565 265.815864 
L 81.301153 269.212386 
L 81.545806 270.198473 
L 81.790459 273.266299 
L 82.035112 273.594995 
L 82.279765 274.690647 
L 82.524418 272.608908 
L 82.769071 259.241951 
L 83.013724 259.570647 
L 83.258377 258.474995 
L 83.50303 259.351516 
L 83.747683 259.132386 
L 84.236989 252.229777 
L 84.726296 250.367168 
L 84.970949 247.847168 
L 85.215602 246.641951 
L 85.460255 244.121951 
L 85.704908 243.793255 
L 85.949561 249.490647 
L 86.194214 246.970647 
L 86.438867 246.532386 
L 86.68352 247.080212 
L 87.172826 246.532386 
L 87.417479 247.628038 
L 87.662132 246.970647 
L 87.906785 242.259342 
L 88.151438 245.98456 
L 88.640744 244.669777 
L 88.885397 244.231516 
L 89.13005 247.299342 
L 89.374703 247.408908 
L 89.619356 248.175864 
L 89.864009 247.408908 
L 90.108662 260.337603 
L 90.353315 258.694125 
L 90.597968 256.06456 
L 90.842621 255.407168 
L 91.087274 257.598473 
L 91.331927 258.146299 
L 91.57658 261.214125 
L 92.065886 249.381082 
L 92.310539 248.614125 
L 92.555192 246.751516 
L 92.799845 241.711516 
L 93.044498 239.081951 
L 93.289151 238.972386 
L 93.778457 238.314995 
L 94.02311 239.958473 
L 94.267763 242.368908 
L 94.512416 239.520212 
L 94.757069 238.972386 
L 95.246375 241.273255 
L 95.491028 240.94456 
L 95.735681 237.109777 
L 95.980334 238.534125 
L 96.224987 225.714995 
L 96.46964 224.071516 
L 96.714293 219.579342 
L 96.958946 218.921951 
L 97.203599 216.073255 
L 97.448252 215.306299 
L 97.692905 213.991516 
L 97.937558 219.579342 
L 98.182211 219.798473 
L 98.426864 222.428038 
L 98.671517 221.113255 
L 98.91617 221.332386 
L 99.405476 219.031516 
L 99.650129 216.730647 
L 99.894782 220.674995 
L 100.139435 215.854125 
L 100.384088 224.728908 
L 100.628741 221.661082 
L 100.873394 204.349777 
L 101.118047 205.993255 
L 101.3627 202.377603 
L 101.607353 206.760212 
L 101.852006 204.349777 
L 102.096659 205.774125 
L 102.341312 205.007168 
L 102.585965 206.869777 
L 102.830618 206.760212 
L 103.075271 207.198473 
L 103.319924 203.801951 
L 103.564577 210.156734 
L 103.80923 207.308038 
L 104.298536 216.401951 
L 104.543189 215.854125 
L 104.787842 213.662821 
L 105.277148 206.321951 
L 105.521801 206.760212 
L 105.766454 206.321951 
L 106.011107 213.991516 
L 106.25576 211.800212 
L 106.500413 203.36369 
L 106.745066 209.280212 
L 106.98972 212.348038 
L 107.234373 208.732386 
L 107.723679 227.139342 
L 107.968332 228.454125 
L 108.212985 225.605429 
L 108.946944 230.535864 
L 109.191597 224.290647 
L 109.43625 227.358473 
L 109.680903 224.948038 
L 109.925556 227.906299 
L 110.170209 223.085429 
L 110.414862 224.838473 
L 110.659515 219.031516 
L 110.904168 217.278473 
L 111.393474 240.94456 
L 111.638127 235.466299 
L 111.88278 237.657603 
L 112.127433 237.876734 
L 112.616739 232.069777 
L 112.861392 238.862821 
L 113.106045 233.165429 
L 113.595351 238.314995 
L 113.840004 236.12369 
L 114.084657 236.452386 
L 114.32931 233.274995 
L 114.573963 232.069777 
L 114.818616 221.00369 
L 115.063269 218.812386 
L 115.307922 220.78456 
L 115.552575 224.290647 
L 115.797228 217.278473 
L 116.286534 215.196734 
L 116.531187 215.087168 
L 116.77584 210.92369 
L 117.020493 213.991516 
L 117.509799 205.445429 
L 117.754452 205.116734 
L 117.999105 211.252386 
L 118.243758 208.841951 
L 118.488411 204.021082 
L 118.733064 201.501082 
L 118.977717 203.36369 
L 119.22237 202.377603 
L 119.467023 208.951516 
L 119.711676 193.174125 
L 119.956329 199.090647 
L 120.200982 202.158473 
L 120.445635 199.967168 
L 120.934941 209.937603 
L 121.424247 215.525429 
L 121.6689 214.539342 
L 121.913553 217.059342 
L 122.158206 210.70456 
L 122.402859 208.294125 
L 122.647512 214.977603 
L 122.892165 215.087168 
L 123.136818 216.730647 
L 123.381471 215.087168 
L 123.626124 215.415864 
L 124.11543 213.114995 
L 124.360083 214.648908 
L 124.849389 210.594995 
L 125.094042 211.361951 
L 125.338695 208.622821 
L 125.583348 208.841951 
L 126.072654 202.377603 
L 126.317307 201.062821 
L 126.56196 192.845429 
L 126.806613 190.54456 
L 127.295919 201.391516 
L 127.540572 200.295864 
L 127.785225 199.748038 
L 128.274531 203.034995 
L 128.519184 207.198473 
L 128.763837 213.44369 
L 129.253143 216.840212 
L 129.497797 213.334125 
L 129.987103 215.196734 
L 130.231756 216.073255 
L 130.476409 209.608908 
L 130.721062 213.44369 
L 131.210368 216.621082 
L 131.699674 197.666299 
L 131.944327 195.913255 
L 132.18898 195.474995 
L 132.433633 187.038473 
L 132.678286 188.681951 
L 132.922939 187.148038 
L 133.167592 184.628038 
L 133.412245 183.641951 
L 133.656898 180.026299 
L 133.901551 180.68369 
L 134.146204 182.765429 
L 134.390857 183.422821 
L 134.63551 183.20369 
L 134.880163 185.066299 
L 135.124816 185.066299 
L 135.369469 199.857603 
L 135.614122 193.393255 
L 135.858775 196.789777 
L 136.103428 196.132386 
L 136.592734 177.177603 
L 137.08204 179.368908 
L 137.571346 184.518473 
L 137.815999 180.574125 
L 138.060652 180.135864 
L 138.305305 183.20369 
L 138.549958 180.135864 
L 138.794611 179.149777 
L 139.039264 184.080212 
L 139.283917 185.066299 
L 139.773223 175.972386 
L 140.017876 174.548038 
L 140.262529 166.988038 
L 140.507182 171.370647 
L 140.751835 178.273255 
L 140.996488 178.054125 
L 141.485794 180.574125 
L 141.730447 180.574125 
L 141.9751 179.368908 
L 142.219753 171.918473 
L 142.464406 174.219342 
L 142.709059 171.589777 
L 143.198365 171.041951 
L 143.443018 168.960212 
L 143.687671 168.960212 
L 144.176977 164.687168 
L 144.42163 170.055864 
L 144.666283 170.713255 
L 144.910936 173.12369 
L 145.155589 170.055864 
L 145.400242 169.946299 
L 145.889548 159.208908 
L 146.134201 165.782821 
L 146.378854 163.591516 
L 146.623507 160.30456 
L 146.86816 160.30456 
L 147.112813 165.234995 
L 147.357466 174.000212 
L 147.846772 174.000212 
L 148.091425 182.765429 
L 148.336078 183.20369 
L 148.580731 181.888908 
L 148.825384 189.996734 
L 149.070037 190.654125 
L 149.31469 192.516734 
L 149.559343 199.967168 
L 149.803996 200.734125 
L 150.048649 199.857603 
L 150.293302 193.174125 
L 150.782608 188.572386 
L 151.027261 186.819342 
L 151.271914 187.586299 
L 151.516567 178.821082 
L 152.005874 176.848908 
L 152.250527 176.081951 
L 152.49518 173.671516 
L 152.739833 175.64369 
L 152.984486 174.548038 
L 153.229139 179.478473 
L 153.473792 179.807168 
L 153.718445 180.574125 
L 153.963098 178.601951 
L 154.207751 181.121951 
L 154.452404 175.534125 
L 154.697057 175.314995 
L 154.94171 169.288908 
L 155.186363 167.097603 
L 155.431016 167.097603 
L 155.920322 169.069777 
L 156.409628 176.191516 
L 156.654281 176.191516 
L 156.898934 174.548038 
L 157.143587 177.287168 
L 157.38824 176.081951 
L 157.632893 177.506299 
L 157.877546 180.68369 
L 158.122199 175.753255 
L 158.366852 177.068038 
L 158.611505 176.629777 
L 159.590117 168.850647 
L 159.83477 170.494125 
L 160.324076 176.410647 
L 160.813382 168.521951 
L 161.058035 171.151516 
L 161.302688 175.534125 
L 161.547341 174.000212 
L 161.791994 176.081951 
L 162.036647 170.494125 
L 162.2813 171.808908 
L 162.525953 170.38456 
L 162.770606 167.645429 
L 163.015259 166.768908 
L 163.259912 164.687168 
L 163.504565 164.248908 
L 163.749218 157.674995 
L 163.993871 161.400212 
L 164.238524 160.852386 
L 164.483177 161.071516 
L 164.72783 162.714995 
L 164.972483 161.290647 
L 165.217136 165.56369 
L 165.461789 134.008908 
L 165.706442 137.405429 
L 165.951095 135.542821 
L 166.195748 139.596734 
L 166.440401 136.748038 
L 166.929707 143.431516 
L 167.17436 140.473255 
L 167.419013 141.897603 
L 167.663666 141.459342 
L 167.908319 139.158473 
L 168.152972 142.88369 
L 168.397625 143.431516 
L 168.642278 141.349777 
L 168.886931 141.678473 
L 169.131584 140.801951 
L 169.865543 135.981082 
L 170.110196 133.351516 
L 170.354849 132.58456 
L 170.599502 132.58456 
L 170.844155 134.337603 
L 171.088808 137.84369 
L 171.333461 139.487168 
L 171.578114 142.66456 
L 171.822767 141.130647 
L 172.06742 143.321951 
L 172.312073 142.007168 
L 172.556726 139.925429 
L 172.801379 140.582821 
L 173.046032 140.692386 
L 173.290685 143.541082 
L 173.535338 144.527168 
L 173.779991 144.855864 
L 174.024644 139.158473 
L 174.269298 142.774125 
L 174.758604 136.528908 
L 175.24791 135.433255 
L 175.492563 135.652386 
L 175.737216 134.228038 
L 175.981869 134.994995 
L 176.226522 135.214125 
L 176.471175 130.502821 
L 176.715828 128.968908 
L 176.960481 134.008908 
L 177.205134 133.570647 
L 177.449787 135.214125 
L 177.69444 129.845429 
L 177.939093 132.146299 
L 178.183746 129.516734 
L 178.428399 131.927168 
L 178.673052 131.708038 
L 178.917705 133.132386 
L 179.162358 132.694125 
L 179.407011 134.994995 
L 179.896317 156.798473 
L 180.14097 153.401951 
L 180.385623 152.087168 
L 181.119582 167.207168 
L 181.608888 159.647168 
L 181.853541 160.633255 
L 182.098194 159.208908 
L 182.342847 160.30456 
L 182.5875 159.428038 
L 182.832153 156.579342 
L 183.076806 155.154995 
L 183.321459 154.826299 
L 183.566112 155.26456 
L 183.810765 158.661082 
L 184.055418 155.374125 
L 184.300071 156.250647 
L 184.544724 154.388038 
L 184.789377 153.840212 
L 185.03403 154.935864 
L 185.278683 159.866299 
L 185.523336 158.989777 
L 185.767989 162.495864 
L 186.012642 160.414125 
L 186.257295 164.468038 
L 186.501948 162.167168 
L 186.746601 161.509777 
L 186.991254 159.756734 
L 187.235907 164.468038 
L 187.725213 162.057603 
L 187.969866 163.372386 
L 188.214519 159.099342 
L 188.459172 160.633255 
L 188.948478 172.028038 
L 189.193131 165.015864 
L 189.682437 174.000212 
L 189.92709 176.739342 
L 190.171743 175.972386 
L 190.416396 181.669777 
L 190.661049 180.68369 
L 190.905702 176.191516 
L 191.150355 174.328908 
L 191.395008 179.807168 
L 191.639661 174.657603 
L 191.884314 182.765429 
L 192.128967 184.518473 
L 192.37362 190.106299 
L 192.862926 193.502821 
L 193.107579 199.748038 
L 193.596885 190.54456 
L 193.841538 187.367168 
L 194.086191 180.135864 
L 194.575497 174.876734 
L 194.82015 170.932386 
L 195.064803 164.796734 
L 195.309456 168.741082 
L 195.554109 166.221082 
L 195.798762 165.125429 
L 196.043415 163.481951 
L 196.288068 167.645429 
L 196.532721 144.417603 
L 196.777375 136.857603 
L 197.022028 137.734125 
L 197.266681 136.200212 
L 197.511334 137.62456 
L 197.755987 135.981082 
L 198.00064 132.58456 
L 198.245293 133.351516 
L 198.489946 131.050647 
L 198.979252 123.052386 
L 199.223905 124.914995 
L 199.468558 124.148038 
L 199.713211 124.257603 
L 199.957864 126.777603 
L 200.44717 121.956734 
L 200.691823 124.367168 
L 200.936476 125.353255 
L 201.425782 130.612386 
L 201.670435 129.626299 
L 201.915088 132.474995 
L 202.159741 128.968908 
L 202.404394 133.899342 
L 202.649047 133.680212 
L 203.138353 149.676734 
L 203.383006 156.798473 
L 203.627659 157.017603 
L 204.361618 140.582821 
L 205.095577 137.734125 
L 205.829536 153.401951 
L 206.074189 148.361951 
L 206.318842 154.388038 
L 206.563495 157.127168 
L 206.808148 144.746299 
L 207.052801 139.596734 
L 207.78676 150.22456 
L 208.031413 150.991516 
L 208.276066 151.101082 
L 208.520719 146.718473 
L 208.765372 145.841951 
L 209.010025 144.417603 
L 209.254678 139.596734 
L 209.743984 150.662821 
L 210.23329 160.742821 
L 210.477943 159.866299 
L 210.722596 165.34456 
L 211.211902 156.360212 
L 211.456555 156.798473 
L 211.701208 154.168908 
L 212.190514 160.194995 
L 212.435167 159.099342 
L 212.67982 148.909777 
L 212.924473 146.280212 
L 213.169126 148.471516 
L 213.413779 144.417603 
L 213.658432 146.718473 
L 213.903085 146.170647 
L 214.147738 146.389777 
L 214.637044 145.951516 
L 214.881697 149.786299 
L 215.12635 149.128908 
L 215.371003 146.718473 
L 215.615656 147.266299 
L 216.104962 152.196734 
L 216.349615 151.429777 
L 216.594268 165.56369 
L 216.838921 163.372386 
L 217.083574 173.452386 
L 217.328227 175.205429 
L 217.57288 167.974125 
L 217.817533 173.342821 
L 218.062186 171.151516 
L 218.306839 174.986299 
L 218.551492 167.754995 
L 218.796145 171.699342 
L 219.040798 170.822821 
L 219.285452 164.687168 
L 219.530105 167.86456 
L 219.774758 159.208908 
L 220.019411 167.097603 
L 220.264064 161.948038 
L 220.508717 151.539342 
L 220.75337 156.031516 
L 220.998023 153.730647 
L 221.487329 146.061082 
L 221.731982 146.061082 
L 221.976635 141.788038 
L 222.221288 141.897603 
L 222.465941 141.678473 
L 222.710594 143.321951 
L 222.955247 140.911516 
L 223.1999 140.034995 
L 223.689206 146.389777 
L 223.933859 146.170647 
L 224.178512 151.320212 
L 224.423165 147.92369 
L 224.667818 148.142821 
L 224.912471 148.033255 
L 225.157124 148.252386 
L 225.401777 148.252386 
L 225.64643 127.434995 
L 225.891083 131.050647 
L 226.135736 127.982821 
L 226.380389 128.311516 
L 226.625042 131.598473 
L 226.869695 130.174125 
L 227.359001 119.327168 
L 227.603654 120.532386 
L 227.848307 120.751516 
L 228.09296 120.751516 
L 228.337613 112.64369 
L 228.582266 108.261082 
L 228.826919 113.191516 
L 229.071572 110.452386 
L 229.316225 105.960212 
L 229.560878 109.794995 
L 229.805531 111.328908 
L 230.050184 113.848908 
L 230.294837 111.657603 
L 230.53949 108.041951 
L 230.784143 95.770647 
L 231.028796 105.631516 
L 231.273449 104.426299 
L 231.518102 101.906299 
L 232.007408 112.972386 
L 232.252061 112.64369 
L 232.741367 109.137603 
L 232.98602 109.247168 
L 233.230673 108.041951 
L 233.475326 111.986299 
L 233.719979 105.08369 
L 234.209285 103.878473 
L 234.453938 101.796734 
L 234.698591 101.687168 
L 234.943244 101.248908 
L 235.43255 101.358473 
L 235.677203 101.029777 
L 235.921856 103.988038 
L 236.166509 100.701082 
L 236.411162 95.551516 
L 236.655815 96.208908 
L 236.900468 99.386299 
L 237.145121 93.688908 
L 237.389774 97.742821 
L 237.634427 99.495864 
L 238.123733 95.661082 
L 238.368386 92.593255 
L 238.613039 98.509777 
L 238.857692 91.607168 
L 239.346998 93.360212 
L 239.836304 88.539342 
L 240.32561 90.949777 
L 240.570263 90.949777 
L 240.814916 82.513255 
L 241.059569 79.226299 
L 241.304222 55.450647 
L 241.548875 56.98456 
L 241.793529 53.040212 
L 242.038182 51.834995 
L 242.527488 38.577603 
L 242.772141 46.247168 
L 243.016794 42.960212 
L 243.261447 46.356734 
L 243.5061 41.645429 
L 243.750753 47.342821 
L 243.995406 42.193255 
L 244.240059 45.261082 
L 244.484712 45.808908 
L 245.218671 78.130647 
L 245.463324 91.716734 
L 245.707977 98.838473 
L 246.197283 82.951516 
L 246.441936 82.513255 
L 246.686589 87.334125 
L 246.931242 102.125429 
L 247.420548 77.692386 
L 247.665201 85.033255 
L 247.909854 81.088908 
L 248.154507 91.388038 
L 248.643813 83.828038 
L 248.888466 88.210647 
L 249.133119 80.431516 
L 249.377772 79.88369 
L 249.622425 72.433255 
L 249.867078 81.965429 
L 250.111731 81.965429 
L 250.356384 91.388038 
L 250.601037 88.210647 
L 250.84569 89.854125 
L 251.090343 82.513255 
L 251.334996 97.085429 
L 251.579649 104.316734 
L 251.824302 92.702821 
L 252.068955 88.977603 
L 252.313608 74.186299 
L 252.558261 66.188038 
L 252.802914 70.461082 
L 253.047567 65.749777 
L 253.29222 55.121951 
L 253.536873 58.408908 
L 253.781526 57.861082 
L 254.026179 60.161951 
L 254.270832 61.257603 
L 254.515485 58.628038 
L 255.004791 42.850647 
L 255.249444 50.301082 
L 255.494097 53.478473 
L 255.73875 37.153255 
L 255.983403 41.645429 
L 256.228056 38.687168 
L 256.962015 44.38456 
L 257.206668 45.699342 
L 257.451321 42.631516 
L 257.695974 43.069777 
L 257.940627 48.767168 
L 258.18528 48.767168 
L 258.429933 59.72369 
L 258.674586 65.092386 
L 258.919239 62.901082 
L 259.163892 64.215864 
L 259.408545 73.309777 
L 259.653198 77.36369 
L 259.897851 68.708038 
L 260.142504 71.337603 
L 260.387157 64.106299 
L 260.63181 63.010647 
L 260.876463 69.913255 
L 261.121116 68.488908 
L 261.365769 69.58456 
L 261.610422 70.132386 
L 261.855075 64.76369 
L 262.099728 73.090647 
L 262.344381 65.859342 
L 262.589034 70.899342 
L 262.833687 84.594995 
L 263.07834 63.887168 
L 263.322993 69.036734 
L 263.567646 69.365429 
L 263.812299 73.200212 
L 264.056952 69.58456 
L 264.301606 83.280212 
L 264.790912 69.146299 
L 265.035565 60.161951 
L 265.280218 65.421082 
L 265.524871 77.034995 
L 265.769524 64.54456 
L 266.014177 61.586299 
L 266.25883 52.054125 
L 266.748136 57.641951 
L 266.992789 50.191516 
L 267.237442 52.821082 
L 267.482095 60.161951 
L 267.726748 71.666299 
L 267.971401 67.721951 
L 268.216054 69.474995 
L 268.460707 95.770647 
L 268.70536 102.34456 
L 269.194666 89.96369 
L 269.439319 106.727168 
L 269.683972 98.290647 
L 269.928625 109.794995 
L 270.173278 97.194995 
L 270.417931 105.850647 
L 270.662584 109.575864 
L 270.907237 95.661082 
L 271.15189 111.000212 
L 271.396543 98.400212 
L 271.641196 100.920212 
L 271.885849 96.208908 
L 272.130502 79.226299 
L 272.375155 83.280212 
L 272.619808 91.826299 
L 272.864461 121.628038 
L 273.109114 134.885429 
L 273.353767 138.391516 
L 273.59842 153.292386 
L 274.087726 134.885429 
L 274.332379 138.610647 
L 274.577032 134.008908 
L 275.066338 115.273255 
L 275.310991 113.629777 
L 275.800297 116.478473 
L 276.04495 112.42456 
L 276.534256 95.880212 
L 276.778909 105.631516 
L 277.023562 105.521951 
L 277.268215 107.38456 
L 277.512868 98.619342 
L 277.757521 99.82456 
L 278.002174 92.593255 
L 278.246827 89.854125 
L 278.736133 98.071516 
L 278.980786 91.826299 
L 279.225439 94.894125 
L 279.470092 87.334125 
L 279.714745 88.648908 
L 279.959398 95.222821 
L 280.204051 94.346299 
L 280.448704 104.645429 
L 280.93801 105.631516 
L 281.182663 114.177603 
L 281.427316 113.848908 
L 281.671969 118.560212 
L 281.916622 119.327168 
L 282.161275 112.095864 
L 282.405928 108.151516 
L 282.650581 111.876734 
L 282.895234 99.605429 
L 283.139887 99.82456 
L 283.38454 101.906299 
L 283.629193 92.593255 
L 283.873846 96.537603 
L 284.118499 87.772386 
L 284.363152 89.525429 
L 284.852458 83.608908 
L 285.097111 89.525429 
L 285.341764 80.102821 
L 285.586417 77.582821 
L 285.83107 77.473255 
L 286.075723 78.459342 
L 286.320376 92.374125 
L 286.56503 89.196734 
L 286.809683 88.429777 
L 287.054336 85.800212 
L 287.298989 70.680212 
L 287.788295 80.760212 
L 288.032948 65.968908 
L 288.277601 72.981082 
L 288.522254 72.981082 
L 288.766907 70.241951 
L 289.01156 70.132386 
L 289.256213 66.297603 
L 289.500866 57.970647 
L 289.745519 64.982821 
L 289.990172 60.052386 
L 290.234825 65.421082 
L 290.479478 63.668038 
L 290.724131 77.582821 
L 290.968784 77.692386 
L 291.213437 77.36369 
L 291.45809 76.377603 
L 291.702743 78.240212 
L 291.947396 67.721951 
L 292.192049 66.954995 
L 292.436702 65.530647 
L 292.681355 60.819342 
L 292.926008 63.996734 
L 293.415314 57.641951 
L 293.659967 55.779342 
L 293.90462 57.094125 
L 294.149273 54.793255 
L 294.393926 57.861082 
L 294.638579 55.998473 
L 294.883232 58.189777 
L 295.127885 67.502821 
L 295.617191 71.228038 
L 295.861844 66.845429 
L 296.106497 68.927168 
L 296.595803 64.106299 
L 296.840456 67.393255 
L 297.085109 60.052386 
L 297.329762 88.320212 
L 297.574415 98.071516 
L 297.819068 92.921951 
L 298.063721 80.650647 
L 298.308374 52.821082 
L 298.553027 57.20369 
L 298.79768 59.50456 
L 299.042333 56.217603 
L 299.286986 56.546299 
L 299.531639 46.356734 
L 299.776292 49.095864 
L 300.265598 51.834995 
L 300.510251 50.958473 
L 300.754904 54.135864 
L 300.999557 53.807168 
L 301.24421 52.054125 
L 301.488863 56.546299 
L 301.733516 56.436734 
L 301.978169 56.98456 
L 302.222822 50.081951 
L 302.467475 55.669777 
L 302.712128 70.022821 
L 302.956781 67.393255 
L 303.201434 69.58456 
L 303.69074 79.993255 
L 303.935393 79.226299 
L 304.180046 85.800212 
L 304.424699 77.36369 
L 304.914005 74.62456 
L 305.158658 75.172386 
L 305.403311 78.788038 
L 305.647964 78.459342 
L 306.13727 83.608908 
L 306.626576 77.801951 
L 306.871229 79.774125 
L 307.115882 78.130647 
L 307.360535 78.021082 
L 307.605188 80.321951 
L 307.849841 79.445429 
L 308.339147 79.88369 
L 308.5838 61.257603 
L 308.828453 58.189777 
L 309.073107 69.913255 
L 309.562413 64.76369 
L 309.807066 73.748038 
L 310.051719 73.309777 
L 310.296372 90.292386 
L 310.541025 74.295864 
L 310.785678 83.718473 
L 311.030331 85.361951 
L 311.274984 80.102821 
L 311.519637 81.308038 
L 312.008943 82.074995 
L 312.253596 81.088908 
L 312.498249 76.268038 
L 312.742902 78.568908 
L 312.987555 83.389777 
L 313.476861 75.939342 
L 313.721514 78.788038 
L 313.966167 70.461082 
L 314.21082 71.775864 
L 314.455473 78.568908 
L 314.700126 79.993255 
L 314.944779 80.212386 
L 315.189432 83.718473 
L 315.434085 79.88369 
L 315.678738 87.662821 
L 315.923391 86.786299 
L 316.168044 92.702821 
L 316.412697 90.730647 
L 316.65735 91.388038 
L 316.902003 89.96369 
L 317.146656 89.854125 
L 317.391309 90.292386 
L 317.635962 88.977603 
L 317.880615 84.594995 
L 318.125268 82.951516 
L 318.369921 65.859342 
L 318.614574 70.461082 
L 318.859227 56.217603 
L 319.10388 59.066299 
L 320.082492 84.594995 
L 320.571798 47.342821 
L 321.061104 92.154995 
L 321.305757 100.153255 
L 321.55041 97.633255 
L 321.795063 87.22456 
L 322.039716 85.252386 
L 322.284369 80.431516 
L 322.529022 81.198473 
L 322.773675 80.541082 
L 323.018328 75.939342 
L 323.262981 85.800212 
L 323.507634 77.254125 
L 323.752287 81.198473 
L 323.99694 81.855864 
L 324.241593 99.605429 
L 324.486246 103.988038 
L 324.730899 100.372386 
L 324.975552 101.906299 
L 325.220205 106.069777 
L 325.464858 91.935864 
L 325.709511 98.619342 
L 326.44347 79.445429 
L 326.688123 82.18456 
L 326.932776 61.586299 
L 327.177429 65.311516 
L 327.422082 62.901082 
L 327.666735 65.859342 
L 327.911388 59.833255 
L 328.156041 58.628038 
L 328.645347 57.970647 
L 328.89 61.476734 
L 329.134653 60.161951 
L 329.379306 65.749777 
L 329.623959 60.052386 
L 329.868612 60.600212 
L 330.113265 58.408908 
L 330.357918 57.751516 
L 330.847224 67.502821 
L 331.091877 57.641951 
L 331.33653 59.614125 
L 331.581184 62.791516 
L 331.825837 59.50456 
L 332.07049 58.080212 
L 332.315143 62.901082 
L 332.559796 56.217603 
L 332.804449 59.942821 
L 333.049102 59.175864 
L 333.293755 57.422821 
L 333.783061 67.174125 
L 334.027714 64.654125 
L 334.272367 66.297603 
L 334.51702 70.570647 
L 334.761673 69.255864 
L 335.006326 65.421082 
L 335.250979 69.255864 
L 335.495632 70.132386 
L 335.740285 64.215864 
L 336.229591 58.518473 
L 336.474244 58.080212 
L 336.718897 58.518473 
L 336.96355 54.354995 
L 337.208203 78.130647 
L 337.452856 85.800212 
L 337.697509 58.737603 
L 337.942162 62.24369 
L 338.186815 59.614125 
L 338.431468 54.245429 
L 338.676121 71.885429 
L 339.165427 68.927168 
L 339.41008 71.775864 
L 339.654733 72.32369 
L 339.899386 73.200212 
L 340.144039 77.801951 
L 340.388692 78.788038 
L 340.633345 71.556734 
L 340.877998 71.008908 
L 341.122651 67.06456 
L 341.367304 70.899342 
L 341.611957 63.339342 
L 341.85661 59.72369 
L 342.101263 61.148038 
L 342.590569 68.269777 
L 342.835222 69.365429 
L 343.079875 69.146299 
L 343.569181 74.514995 
L 343.813834 72.652386 
L 344.058487 72.10456 
L 344.30314 77.254125 
L 344.547793 79.445429 
L 344.792446 79.774125 
L 345.526405 68.160212 
L 345.771058 67.393255 
L 346.015711 64.982821 
L 346.260364 68.708038 
L 346.505017 65.092386 
L 346.74967 68.927168 
L 346.994323 67.831516 
L 347.238976 61.257603 
L 347.483629 62.572386 
L 347.728282 58.628038 
L 347.972935 59.066299 
L 348.217588 54.135864 
L 348.462241 52.821082 
L 348.706894 57.094125 
L 348.951547 58.408908 
L 349.1962 58.080212 
L 349.440853 68.708038 
L 349.685506 72.214125 
L 349.930159 58.080212 
L 350.174812 57.861082 
L 351.153424 66.626299 
L 351.398077 62.134125 
L 351.64273 59.833255 
L 351.887383 49.534125 
L 352.132036 52.821082 
L 352.376689 59.942821 
L 352.621342 58.408908 
L 352.865995 50.410647 
L 353.110648 46.247168 
L 353.355301 46.90456 
L 353.599954 46.247168 
L 353.844607 41.645429 
L 354.333914 43.508038 
L 354.578567 40.988038 
L 355.067873 34.414125 
L 355.557179 38.577603 
L 355.801832 39.125429 
L 356.046485 43.179342 
L 356.291138 51.615864 
L 356.535791 54.354995 
L 356.780444 51.396734 
L 357.025097 50.410647 
L 357.26975 48.767168 
L 357.514403 56.327168 
L 357.759056 53.149777 
L 358.003709 58.080212 
L 358.248362 58.628038 
L 358.493015 60.052386 
L 358.737668 59.50456 
L 358.982321 59.50456 
L 359.226974 69.694125 
L 359.471627 68.927168 
L 359.71628 79.007168 
L 359.960933 78.240212 
L 360.205586 78.130647 
L 360.694892 79.66456 
L 360.939545 77.911516 
L 361.184198 79.774125 
L 361.428851 80.431516 
L 361.673504 77.692386 
L 361.918157 77.14456 
L 362.16281 73.528908 
L 362.407463 72.761951 
L 362.652116 71.556734 
L 362.896769 67.831516 
L 363.141422 71.447168 
L 363.386075 69.036734 
L 363.630728 72.10456 
L 363.875381 66.735864 
L 364.120034 66.954995 
L 364.364687 66.735864 
L 364.60934 70.132386 
L 364.853993 69.146299 
L 365.098646 73.528908 
L 365.343299 68.269777 
L 365.587952 75.829777 
L 365.832605 75.062821 
L 366.077258 69.474995 
L 366.321911 73.309777 
L 366.811217 77.36369 
L 367.05587 73.857603 
L 367.545176 70.899342 
L 367.789829 67.28369 
L 368.279135 80.979342 
L 368.523788 79.116734 
L 368.768441 75.501082 
L 369.013094 79.226299 
L 369.257747 92.593255 
L 369.5024 96.975864 
L 369.747053 98.948038 
L 369.991706 92.48369 
L 370.236359 95.332386 
L 370.481012 105.960212 
L 370.725665 103.549777 
L 371.214971 106.727168 
L 371.459624 102.673255 
L 371.704277 106.288908 
L 371.94893 100.153255 
L 372.193583 102.454125 
L 372.438236 100.920212 
L 372.682889 105.741082 
L 372.927542 103.768908 
L 373.661501 108.699342 
L 374.150807 112.64369 
L 374.39546 107.713255 
L 374.640113 106.288908 
L 375.129419 107.494125 
L 375.374072 105.960212 
L 375.618725 101.139342 
L 375.863378 102.892386 
L 376.352684 101.139342 
L 376.597338 100.810647 
L 376.841991 104.316734 
L 377.086644 97.30456 
L 377.331297 94.455864 
L 377.57595 93.360212 
L 378.065256 96.208908 
L 378.554562 104.316734 
L 378.799215 105.193255 
L 379.043868 102.015864 
L 379.288521 101.796734 
L 379.533174 101.248908 
L 379.777827 101.358473 
L 380.267133 105.741082 
L 380.511786 120.861082 
L 380.756439 97.52369 
L 381.490398 102.56369 
L 381.490398 102.56369 
" style="fill:none;stroke:#ff7f0e;stroke-linecap:square;stroke-width:1.5;"/>
   </g>
   <g id="patch_3">
    <path d="M 40.603125 288.430125 
L 40.603125 22.318125 
" style="fill:none;stroke:#000000;stroke-linecap:square;stroke-linejoin:miter;stroke-width:0.8;"/>
   </g>
   <g id="patch_4">
    <path d="M 397.723125 288.430125 
L 397.723125 22.318125 
" style="fill:none;stroke:#000000;stroke-linecap:square;stroke-linejoin:miter;stroke-width:0.8;"/>
   </g>
   <g id="patch_5">
    <path d="M 40.603125 288.430125 
L 397.723125 288.430125 
" style="fill:none;stroke:#000000;stroke-linecap:square;stroke-linejoin:miter;stroke-width:0.8;"/>
   </g>
   <g id="patch_6">
    <path d="M 40.603125 22.318125 
L 397.723125 22.318125 
" style="fill:none;stroke:#000000;stroke-linecap:square;stroke-linejoin:miter;stroke-width:0.8;"/>
   </g>
   <g id="text_15">
    <!-- Training: MDLZ -->
    <defs>
     <path d="M -0.296875 72.90625 
L 61.375 72.90625 
L 61.375 64.59375 
L 35.5 64.59375 
L 35.5 0 
L 25.59375 0 
L 25.59375 64.59375 
L -0.296875 64.59375 
z
" id="DejaVuSans-84"/>
     <path d="M 54.890625 33.015625 
L 54.890625 0 
L 45.90625 0 
L 45.90625 32.71875 
Q 45.90625 40.484375 42.875 44.328125 
Q 39.84375 48.1875 33.796875 48.1875 
Q 26.515625 48.1875 22.3125 43.546875 
Q 18.109375 38.921875 18.109375 30.90625 
L 18.109375 0 
L 9.078125 0 
L 9.078125 54.6875 
L 18.109375 54.6875 
L 18.109375 46.1875 
Q 21.34375 51.125 25.703125 53.5625 
Q 30.078125 56 35.796875 56 
Q 45.21875 56 50.046875 50.171875 
Q 54.890625 44.34375 54.890625 33.015625 
z
" id="DejaVuSans-110"/>
     <path d="M 45.40625 27.984375 
Q 45.40625 37.75 41.375 43.109375 
Q 37.359375 48.484375 30.078125 48.484375 
Q 22.859375 48.484375 18.828125 43.109375 
Q 14.796875 37.75 14.796875 27.984375 
Q 14.796875 18.265625 18.828125 12.890625 
Q 22.859375 7.515625 30.078125 7.515625 
Q 37.359375 7.515625 41.375 12.890625 
Q 45.40625 18.265625 45.40625 27.984375 
z
M 54.390625 6.78125 
Q 54.390625 -7.171875 48.1875 -13.984375 
Q 42 -20.796875 29.203125 -20.796875 
Q 24.46875 -20.796875 20.265625 -20.09375 
Q 16.0625 -19.390625 12.109375 -17.921875 
L 12.109375 -9.1875 
Q 16.0625 -11.328125 19.921875 -12.34375 
Q 23.78125 -13.375 27.78125 -13.375 
Q 36.625 -13.375 41.015625 -8.765625 
Q 45.40625 -4.15625 45.40625 5.171875 
L 45.40625 9.625 
Q 42.625 4.78125 38.28125 2.390625 
Q 33.9375 0 27.875 0 
Q 17.828125 0 11.671875 7.65625 
Q 5.515625 15.328125 5.515625 27.984375 
Q 5.515625 40.671875 11.671875 48.328125 
Q 17.828125 56 27.875 56 
Q 33.9375 56 38.28125 53.609375 
Q 42.625 51.21875 45.40625 46.390625 
L 45.40625 54.6875 
L 54.390625 54.6875 
z
" id="DejaVuSans-103"/>
     <path d="M 11.71875 12.40625 
L 22.015625 12.40625 
L 22.015625 0 
L 11.71875 0 
z
M 11.71875 51.703125 
L 22.015625 51.703125 
L 22.015625 39.3125 
L 11.71875 39.3125 
z
" id="DejaVuSans-58"/>
     <path d="M 9.8125 72.90625 
L 24.515625 72.90625 
L 43.109375 23.296875 
L 61.8125 72.90625 
L 76.515625 72.90625 
L 76.515625 0 
L 66.890625 0 
L 66.890625 64.015625 
L 48.09375 14.015625 
L 38.1875 14.015625 
L 19.390625 64.015625 
L 19.390625 0 
L 9.8125 0 
z
" id="DejaVuSans-77"/>
     <path d="M 9.8125 72.90625 
L 19.671875 72.90625 
L 19.671875 8.296875 
L 55.171875 8.296875 
L 55.171875 0 
L 9.8125 0 
z
" id="DejaVuSans-76"/>
     <path d="M 5.609375 72.90625 
L 62.890625 72.90625 
L 62.890625 65.375 
L 16.796875 8.296875 
L 64.015625 8.296875 
L 64.015625 0 
L 4.5 0 
L 4.5 7.515625 
L 50.59375 64.59375 
L 5.609375 64.59375 
z
" id="DejaVuSans-90"/>
    </defs>
    <g transform="translate(174.314063 16.318125)scale(0.12 -0.12)">
     <use xlink:href="#DejaVuSans-84"/>
     <use x="46.333984" xlink:href="#DejaVuSans-114"/>
     <use x="87.447266" xlink:href="#DejaVuSans-97"/>
     <use x="148.726562" xlink:href="#DejaVuSans-105"/>
     <use x="176.509766" xlink:href="#DejaVuSans-110"/>
     <use x="239.888672" xlink:href="#DejaVuSans-105"/>
     <use x="267.671875" xlink:href="#DejaVuSans-110"/>
     <use x="331.050781" xlink:href="#DejaVuSans-103"/>
     <use x="394.527344" xlink:href="#DejaVuSans-58"/>
     <use x="428.21875" xlink:href="#DejaVuSans-32"/>
     <use x="460.005859" xlink:href="#DejaVuSans-77"/>
     <use x="546.285156" xlink:href="#DejaVuSans-68"/>
     <use x="623.287109" xlink:href="#DejaVuSans-76"/>
     <use x="679" xlink:href="#DejaVuSans-90"/>
    </g>
   </g>
   <g id="legend_1">
    <g id="patch_7">
     <path d="M 47.603125 59.674375 
L 131.33125 59.674375 
Q 133.33125 59.674375 133.33125 57.674375 
L 133.33125 29.318125 
Q 133.33125 27.318125 131.33125 27.318125 
L 47.603125 27.318125 
Q 45.603125 27.318125 45.603125 29.318125 
L 45.603125 57.674375 
Q 45.603125 59.674375 47.603125 59.674375 
z
" style="fill:#ffffff;opacity:0.8;stroke:#cccccc;stroke-linejoin:miter;"/>
    </g>
    <g id="line2d_27">
     <path d="M 49.603125 35.416562 
L 69.603125 35.416562 
" style="fill:none;stroke:#1f77b4;stroke-linecap:square;stroke-width:1.5;"/>
    </g>
    <g id="line2d_28"/>
    <g id="text_16">
     <!-- Predicted -->
     <defs>
      <path d="M 45.40625 46.390625 
L 45.40625 75.984375 
L 54.390625 75.984375 
L 54.390625 0 
L 45.40625 0 
L 45.40625 8.203125 
Q 42.578125 3.328125 38.25 0.953125 
Q 33.9375 -1.421875 27.875 -1.421875 
Q 17.96875 -1.421875 11.734375 6.484375 
Q 5.515625 14.40625 5.515625 27.296875 
Q 5.515625 40.1875 11.734375 48.09375 
Q 17.96875 56 27.875 56 
Q 33.9375 56 38.25 53.625 
Q 42.578125 51.265625 45.40625 46.390625 
z
M 14.796875 27.296875 
Q 14.796875 17.390625 18.875 11.75 
Q 22.953125 6.109375 30.078125 6.109375 
Q 37.203125 6.109375 41.296875 11.75 
Q 45.40625 17.390625 45.40625 27.296875 
Q 45.40625 37.203125 41.296875 42.84375 
Q 37.203125 48.484375 30.078125 48.484375 
Q 22.953125 48.484375 18.875 42.84375 
Q 14.796875 37.203125 14.796875 27.296875 
z
" id="DejaVuSans-100"/>
      <path d="M 18.3125 70.21875 
L 18.3125 54.6875 
L 36.8125 54.6875 
L 36.8125 47.703125 
L 18.3125 47.703125 
L 18.3125 18.015625 
Q 18.3125 11.328125 20.140625 9.421875 
Q 21.96875 7.515625 27.59375 7.515625 
L 36.8125 7.515625 
L 36.8125 0 
L 27.59375 0 
Q 17.1875 0 13.234375 3.875 
Q 9.28125 7.765625 9.28125 18.015625 
L 9.28125 47.703125 
L 2.6875 47.703125 
L 2.6875 54.6875 
L 9.28125 54.6875 
L 9.28125 70.21875 
z
" id="DejaVuSans-116"/>
     </defs>
     <g transform="translate(77.603125 38.916562)scale(0.1 -0.1)">
      <use xlink:href="#DejaVuSans-80"/>
      <use x="58.552734" xlink:href="#DejaVuSans-114"/>
      <use x="97.416016" xlink:href="#DejaVuSans-101"/>
      <use x="158.939453" xlink:href="#DejaVuSans-100"/>
      <use x="222.416016" xlink:href="#DejaVuSans-105"/>
      <use x="250.199219" xlink:href="#DejaVuSans-99"/>
      <use x="305.179688" xlink:href="#DejaVuSans-116"/>
      <use x="344.388672" xlink:href="#DejaVuSans-101"/>
      <use x="405.912109" xlink:href="#DejaVuSans-100"/>
     </g>
    </g>
    <g id="line2d_29">
     <path d="M 49.603125 50.094687 
L 69.603125 50.094687 
" style="fill:none;stroke:#ff7f0e;stroke-linecap:square;stroke-width:1.5;"/>
    </g>
    <g id="line2d_30"/>
    <g id="text_17">
     <!-- True value -->
     <defs>
      <path d="M 8.5 21.578125 
L 8.5 54.6875 
L 17.484375 54.6875 
L 17.484375 21.921875 
Q 17.484375 14.15625 20.5 10.265625 
Q 23.53125 6.390625 29.59375 6.390625 
Q 36.859375 6.390625 41.078125 11.03125 
Q 45.3125 15.671875 45.3125 23.6875 
L 45.3125 54.6875 
L 54.296875 54.6875 
L 54.296875 0 
L 45.3125 0 
L 45.3125 8.40625 
Q 42.046875 3.421875 37.71875 1 
Q 33.40625 -1.421875 27.6875 -1.421875 
Q 18.265625 -1.421875 13.375 4.4375 
Q 8.5 10.296875 8.5 21.578125 
z
M 31.109375 56 
z
" id="DejaVuSans-117"/>
      <path d="M 2.984375 54.6875 
L 12.5 54.6875 
L 29.59375 8.796875 
L 46.6875 54.6875 
L 56.203125 54.6875 
L 35.6875 0 
L 23.484375 0 
z
" id="DejaVuSans-118"/>
      <path d="M 9.421875 75.984375 
L 18.40625 75.984375 
L 18.40625 0 
L 9.421875 0 
z
" id="DejaVuSans-108"/>
     </defs>
     <g transform="translate(77.603125 53.594687)scale(0.1 -0.1)">
      <use xlink:href="#DejaVuSans-84"/>
      <use x="46.333984" xlink:href="#DejaVuSans-114"/>
      <use x="87.447266" xlink:href="#DejaVuSans-117"/>
      <use x="150.826172" xlink:href="#DejaVuSans-101"/>
      <use x="212.349609" xlink:href="#DejaVuSans-32"/>
      <use x="244.136719" xlink:href="#DejaVuSans-118"/>
      <use x="303.316406" xlink:href="#DejaVuSans-97"/>
      <use x="364.595703" xlink:href="#DejaVuSans-108"/>
      <use x="392.378906" xlink:href="#DejaVuSans-117"/>
      <use x="455.757812" xlink:href="#DejaVuSans-101"/>
     </g>
    </g>
   </g>
  </g>
 </g>
 <defs>
  <clipPath id="p162e9cf71e">
   <rect height="266.112" width="357.12" x="40.603125" y="22.318125"/>
  </clipPath>
 </defs>
</svg>
