<?xml version="1.0" encoding="utf-8" standalone="no"?>
<!DOCTYPE svg PUBLIC "-//W3C//DTD SVG 1.1//EN"
  "http://www.w3.org/Graphics/SVG/1.1/DTD/svg11.dtd">
<!-- Created with matplotlib (https://matplotlib.org/) -->
<svg height="325.986375pt" version="1.1" viewBox="0 0 406.940312 325.986375" width="406.940312pt" xmlns="http://www.w3.org/2000/svg" xmlns:xlink="http://www.w3.org/1999/xlink">
 <defs>
  <style type="text/css">
*{stroke-linecap:butt;stroke-linejoin:round;}
  </style>
 </defs>
 <g id="figure_1">
  <g id="patch_1">
   <path d="M 0 325.986375 
L 406.940312 325.986375 
L 406.940312 0 
L 0 0 
z
" style="fill:#ffffff;"/>
  </g>
  <g id="axes_1">
   <g id="patch_2">
    <path d="M 42.620313 288.430125 
L 399.740313 288.430125 
L 399.740313 22.318125 
L 42.620313 22.318125 
z
" style="fill:#ffffff;"/>
   </g>
   <g id="matplotlib.axis_1">
    <g id="xtick_1">
     <g id="line2d_1">
      <path clip-path="url(#p2356eb56e9)" d="M 58.85304 288.430125 
L 58.85304 22.318125 
" style="fill:none;stroke:#b0b0b0;stroke-dasharray:2.96,1.28;stroke-dashoffset:0;stroke-width:0.8;"/>
     </g>
     <g id="line2d_2">
      <defs>
       <path d="M 0 0 
L 0 3.5 
" id="medb4054f4b" style="stroke:#000000;stroke-width:0.8;"/>
      </defs>
      <g>
       <use style="stroke:#000000;stroke-width:0.8;" x="58.85304" xlink:href="#medb4054f4b" y="288.430125"/>
      </g>
     </g>
     <g id="text_1">
      <!-- 0 -->
      <defs>
       <path d="M 31.78125 66.40625 
Q 24.171875 66.40625 20.328125 58.90625 
Q 16.5 51.421875 16.5 36.375 
Q 16.5 21.390625 20.328125 13.890625 
Q 24.171875 6.390625 31.78125 6.390625 
Q 39.453125 6.390625 43.28125 13.890625 
Q 47.125 21.390625 47.125 36.375 
Q 47.125 51.421875 43.28125 58.90625 
Q 39.453125 66.40625 31.78125 66.40625 
z
M 31.78125 74.21875 
Q 44.046875 74.21875 50.515625 64.515625 
Q 56.984375 54.828125 56.984375 36.375 
Q 56.984375 17.96875 50.515625 8.265625 
Q 44.046875 -1.421875 31.78125 -1.421875 
Q 19.53125 -1.421875 13.0625 8.265625 
Q 6.59375 17.96875 6.59375 36.375 
Q 6.59375 54.828125 13.0625 64.515625 
Q 19.53125 74.21875 31.78125 74.21875 
z
" id="DejaVuSans-48"/>
      </defs>
      <g transform="translate(55.67179 303.028562)scale(0.1 -0.1)">
       <use xlink:href="#DejaVuSans-48"/>
      </g>
     </g>
    </g>
    <g id="xtick_2">
     <g id="line2d_3">
      <path clip-path="url(#p2356eb56e9)" d="M 107.783642 288.430125 
L 107.783642 22.318125 
" style="fill:none;stroke:#b0b0b0;stroke-dasharray:2.96,1.28;stroke-dashoffset:0;stroke-width:0.8;"/>
     </g>
     <g id="line2d_4">
      <g>
       <use style="stroke:#000000;stroke-width:0.8;" x="107.783642" xlink:href="#medb4054f4b" y="288.430125"/>
      </g>
     </g>
     <g id="text_2">
      <!-- 200 -->
      <defs>
       <path d="M 19.1875 8.296875 
L 53.609375 8.296875 
L 53.609375 0 
L 7.328125 0 
L 7.328125 8.296875 
Q 12.9375 14.109375 22.625 23.890625 
Q 32.328125 33.6875 34.8125 36.53125 
Q 39.546875 41.84375 41.421875 45.53125 
Q 43.3125 49.21875 43.3125 52.78125 
Q 43.3125 58.59375 39.234375 62.25 
Q 35.15625 65.921875 28.609375 65.921875 
Q 23.96875 65.921875 18.8125 64.3125 
Q 13.671875 62.703125 7.8125 59.421875 
L 7.8125 69.390625 
Q 13.765625 71.78125 18.9375 73 
Q 24.125 74.21875 28.421875 74.21875 
Q 39.75 74.21875 46.484375 68.546875 
Q 53.21875 62.890625 53.21875 53.421875 
Q 53.21875 48.921875 51.53125 44.890625 
Q 49.859375 40.875 45.40625 35.40625 
Q 44.1875 33.984375 37.640625 27.21875 
Q 31.109375 20.453125 19.1875 8.296875 
z
" id="DejaVuSans-50"/>
      </defs>
      <g transform="translate(98.239892 303.028562)scale(0.1 -0.1)">
       <use xlink:href="#DejaVuSans-50"/>
       <use x="63.623047" xlink:href="#DejaVuSans-48"/>
       <use x="127.246094" xlink:href="#DejaVuSans-48"/>
      </g>
     </g>
    </g>
    <g id="xtick_3">
     <g id="line2d_5">
      <path clip-path="url(#p2356eb56e9)" d="M 156.714244 288.430125 
L 156.714244 22.318125 
" style="fill:none;stroke:#b0b0b0;stroke-dasharray:2.96,1.28;stroke-dashoffset:0;stroke-width:0.8;"/>
     </g>
     <g id="line2d_6">
      <g>
       <use style="stroke:#000000;stroke-width:0.8;" x="156.714244" xlink:href="#medb4054f4b" y="288.430125"/>
      </g>
     </g>
     <g id="text_3">
      <!-- 400 -->
      <defs>
       <path d="M 37.796875 64.3125 
L 12.890625 25.390625 
L 37.796875 25.390625 
z
M 35.203125 72.90625 
L 47.609375 72.90625 
L 47.609375 25.390625 
L 58.015625 25.390625 
L 58.015625 17.1875 
L 47.609375 17.1875 
L 47.609375 0 
L 37.796875 0 
L 37.796875 17.1875 
L 4.890625 17.1875 
L 4.890625 26.703125 
z
" id="DejaVuSans-52"/>
      </defs>
      <g transform="translate(147.170494 303.028562)scale(0.1 -0.1)">
       <use xlink:href="#DejaVuSans-52"/>
       <use x="63.623047" xlink:href="#DejaVuSans-48"/>
       <use x="127.246094" xlink:href="#DejaVuSans-48"/>
      </g>
     </g>
    </g>
    <g id="xtick_4">
     <g id="line2d_7">
      <path clip-path="url(#p2356eb56e9)" d="M 205.644846 288.430125 
L 205.644846 22.318125 
" style="fill:none;stroke:#b0b0b0;stroke-dasharray:2.96,1.28;stroke-dashoffset:0;stroke-width:0.8;"/>
     </g>
     <g id="line2d_8">
      <g>
       <use style="stroke:#000000;stroke-width:0.8;" x="205.644846" xlink:href="#medb4054f4b" y="288.430125"/>
      </g>
     </g>
     <g id="text_4">
      <!-- 600 -->
      <defs>
       <path d="M 33.015625 40.375 
Q 26.375 40.375 22.484375 35.828125 
Q 18.609375 31.296875 18.609375 23.390625 
Q 18.609375 15.53125 22.484375 10.953125 
Q 26.375 6.390625 33.015625 6.390625 
Q 39.65625 6.390625 43.53125 10.953125 
Q 47.40625 15.53125 47.40625 23.390625 
Q 47.40625 31.296875 43.53125 35.828125 
Q 39.65625 40.375 33.015625 40.375 
z
M 52.59375 71.296875 
L 52.59375 62.3125 
Q 48.875 64.0625 45.09375 64.984375 
Q 41.3125 65.921875 37.59375 65.921875 
Q 27.828125 65.921875 22.671875 59.328125 
Q 17.53125 52.734375 16.796875 39.40625 
Q 19.671875 43.65625 24.015625 45.921875 
Q 28.375 48.1875 33.59375 48.1875 
Q 44.578125 48.1875 50.953125 41.515625 
Q 57.328125 34.859375 57.328125 23.390625 
Q 57.328125 12.15625 50.6875 5.359375 
Q 44.046875 -1.421875 33.015625 -1.421875 
Q 20.359375 -1.421875 13.671875 8.265625 
Q 6.984375 17.96875 6.984375 36.375 
Q 6.984375 53.65625 15.1875 63.9375 
Q 23.390625 74.21875 37.203125 74.21875 
Q 40.921875 74.21875 44.703125 73.484375 
Q 48.484375 72.75 52.59375 71.296875 
z
" id="DejaVuSans-54"/>
      </defs>
      <g transform="translate(196.101096 303.028562)scale(0.1 -0.1)">
       <use xlink:href="#DejaVuSans-54"/>
       <use x="63.623047" xlink:href="#DejaVuSans-48"/>
       <use x="127.246094" xlink:href="#DejaVuSans-48"/>
      </g>
     </g>
    </g>
    <g id="xtick_5">
     <g id="line2d_9">
      <path clip-path="url(#p2356eb56e9)" d="M 254.575448 288.430125 
L 254.575448 22.318125 
" style="fill:none;stroke:#b0b0b0;stroke-dasharray:2.96,1.28;stroke-dashoffset:0;stroke-width:0.8;"/>
     </g>
     <g id="line2d_10">
      <g>
       <use style="stroke:#000000;stroke-width:0.8;" x="254.575448" xlink:href="#medb4054f4b" y="288.430125"/>
      </g>
     </g>
     <g id="text_5">
      <!-- 800 -->
      <defs>
       <path d="M 31.78125 34.625 
Q 24.75 34.625 20.71875 30.859375 
Q 16.703125 27.09375 16.703125 20.515625 
Q 16.703125 13.921875 20.71875 10.15625 
Q 24.75 6.390625 31.78125 6.390625 
Q 38.8125 6.390625 42.859375 10.171875 
Q 46.921875 13.96875 46.921875 20.515625 
Q 46.921875 27.09375 42.890625 30.859375 
Q 38.875 34.625 31.78125 34.625 
z
M 21.921875 38.8125 
Q 15.578125 40.375 12.03125 44.71875 
Q 8.5 49.078125 8.5 55.328125 
Q 8.5 64.0625 14.71875 69.140625 
Q 20.953125 74.21875 31.78125 74.21875 
Q 42.671875 74.21875 48.875 69.140625 
Q 55.078125 64.0625 55.078125 55.328125 
Q 55.078125 49.078125 51.53125 44.71875 
Q 48 40.375 41.703125 38.8125 
Q 48.828125 37.15625 52.796875 32.3125 
Q 56.78125 27.484375 56.78125 20.515625 
Q 56.78125 9.90625 50.3125 4.234375 
Q 43.84375 -1.421875 31.78125 -1.421875 
Q 19.734375 -1.421875 13.25 4.234375 
Q 6.78125 9.90625 6.78125 20.515625 
Q 6.78125 27.484375 10.78125 32.3125 
Q 14.796875 37.15625 21.921875 38.8125 
z
M 18.3125 54.390625 
Q 18.3125 48.734375 21.84375 45.5625 
Q 25.390625 42.390625 31.78125 42.390625 
Q 38.140625 42.390625 41.71875 45.5625 
Q 45.3125 48.734375 45.3125 54.390625 
Q 45.3125 60.0625 41.71875 63.234375 
Q 38.140625 66.40625 31.78125 66.40625 
Q 25.390625 66.40625 21.84375 63.234375 
Q 18.3125 60.0625 18.3125 54.390625 
z
" id="DejaVuSans-56"/>
      </defs>
      <g transform="translate(245.031698 303.028562)scale(0.1 -0.1)">
       <use xlink:href="#DejaVuSans-56"/>
       <use x="63.623047" xlink:href="#DejaVuSans-48"/>
       <use x="127.246094" xlink:href="#DejaVuSans-48"/>
      </g>
     </g>
    </g>
    <g id="xtick_6">
     <g id="line2d_11">
      <path clip-path="url(#p2356eb56e9)" d="M 303.506051 288.430125 
L 303.506051 22.318125 
" style="fill:none;stroke:#b0b0b0;stroke-dasharray:2.96,1.28;stroke-dashoffset:0;stroke-width:0.8;"/>
     </g>
     <g id="line2d_12">
      <g>
       <use style="stroke:#000000;stroke-width:0.8;" x="303.506051" xlink:href="#medb4054f4b" y="288.430125"/>
      </g>
     </g>
     <g id="text_6">
      <!-- 1000 -->
      <defs>
       <path d="M 12.40625 8.296875 
L 28.515625 8.296875 
L 28.515625 63.921875 
L 10.984375 60.40625 
L 10.984375 69.390625 
L 28.421875 72.90625 
L 38.28125 72.90625 
L 38.28125 8.296875 
L 54.390625 8.296875 
L 54.390625 0 
L 12.40625 0 
z
" id="DejaVuSans-49"/>
      </defs>
      <g transform="translate(290.781051 303.028562)scale(0.1 -0.1)">
       <use xlink:href="#DejaVuSans-49"/>
       <use x="63.623047" xlink:href="#DejaVuSans-48"/>
       <use x="127.246094" xlink:href="#DejaVuSans-48"/>
       <use x="190.869141" xlink:href="#DejaVuSans-48"/>
      </g>
     </g>
    </g>
    <g id="xtick_7">
     <g id="line2d_13">
      <path clip-path="url(#p2356eb56e9)" d="M 352.436653 288.430125 
L 352.436653 22.318125 
" style="fill:none;stroke:#b0b0b0;stroke-dasharray:2.96,1.28;stroke-dashoffset:0;stroke-width:0.8;"/>
     </g>
     <g id="line2d_14">
      <g>
       <use style="stroke:#000000;stroke-width:0.8;" x="352.436653" xlink:href="#medb4054f4b" y="288.430125"/>
      </g>
     </g>
     <g id="text_7">
      <!-- 1200 -->
      <g transform="translate(339.711653 303.028562)scale(0.1 -0.1)">
       <use xlink:href="#DejaVuSans-49"/>
       <use x="63.623047" xlink:href="#DejaVuSans-50"/>
       <use x="127.246094" xlink:href="#DejaVuSans-48"/>
       <use x="190.869141" xlink:href="#DejaVuSans-48"/>
      </g>
     </g>
    </g>
    <g id="text_8">
     <!-- Day -->
     <defs>
      <path d="M 19.671875 64.796875 
L 19.671875 8.109375 
L 31.59375 8.109375 
Q 46.6875 8.109375 53.6875 14.9375 
Q 60.6875 21.78125 60.6875 36.53125 
Q 60.6875 51.171875 53.6875 57.984375 
Q 46.6875 64.796875 31.59375 64.796875 
z
M 9.8125 72.90625 
L 30.078125 72.90625 
Q 51.265625 72.90625 61.171875 64.09375 
Q 71.09375 55.28125 71.09375 36.53125 
Q 71.09375 17.671875 61.125 8.828125 
Q 51.171875 0 30.078125 0 
L 9.8125 0 
z
" id="DejaVuSans-68"/>
      <path d="M 34.28125 27.484375 
Q 23.390625 27.484375 19.1875 25 
Q 14.984375 22.515625 14.984375 16.5 
Q 14.984375 11.71875 18.140625 8.90625 
Q 21.296875 6.109375 26.703125 6.109375 
Q 34.1875 6.109375 38.703125 11.40625 
Q 43.21875 16.703125 43.21875 25.484375 
L 43.21875 27.484375 
z
M 52.203125 31.203125 
L 52.203125 0 
L 43.21875 0 
L 43.21875 8.296875 
Q 40.140625 3.328125 35.546875 0.953125 
Q 30.953125 -1.421875 24.3125 -1.421875 
Q 15.921875 -1.421875 10.953125 3.296875 
Q 6 8.015625 6 15.921875 
Q 6 25.140625 12.171875 29.828125 
Q 18.359375 34.515625 30.609375 34.515625 
L 43.21875 34.515625 
L 43.21875 35.40625 
Q 43.21875 41.609375 39.140625 45 
Q 35.0625 48.390625 27.6875 48.390625 
Q 23 48.390625 18.546875 47.265625 
Q 14.109375 46.140625 10.015625 43.890625 
L 10.015625 52.203125 
Q 14.9375 54.109375 19.578125 55.046875 
Q 24.21875 56 28.609375 56 
Q 40.484375 56 46.34375 49.84375 
Q 52.203125 43.703125 52.203125 31.203125 
z
" id="DejaVuSans-97"/>
      <path d="M 32.171875 -5.078125 
Q 28.375 -14.84375 24.75 -17.8125 
Q 21.140625 -20.796875 15.09375 -20.796875 
L 7.90625 -20.796875 
L 7.90625 -13.28125 
L 13.1875 -13.28125 
Q 16.890625 -13.28125 18.9375 -11.515625 
Q 21 -9.765625 23.484375 -3.21875 
L 25.09375 0.875 
L 2.984375 54.6875 
L 12.5 54.6875 
L 29.59375 11.921875 
L 46.6875 54.6875 
L 56.203125 54.6875 
z
" id="DejaVuSans-121"/>
     </defs>
     <g transform="translate(211.306875 316.706687)scale(0.1 -0.1)">
      <use xlink:href="#DejaVuSans-68"/>
      <use x="77.001953" xlink:href="#DejaVuSans-97"/>
      <use x="138.28125" xlink:href="#DejaVuSans-121"/>
     </g>
    </g>
   </g>
   <g id="matplotlib.axis_2">
    <g id="ytick_1">
     <g id="line2d_15">
      <path clip-path="url(#p2356eb56e9)" d="M 42.620313 288.430125 
L 399.740313 288.430125 
" style="fill:none;stroke:#b0b0b0;stroke-dasharray:2.96,1.28;stroke-dashoffset:0;stroke-width:0.8;"/>
     </g>
     <g id="line2d_16">
      <defs>
       <path d="M 0 0 
L -3.5 0 
" id="md9020a60cf" style="stroke:#000000;stroke-width:0.8;"/>
      </defs>
      <g>
       <use style="stroke:#000000;stroke-width:0.8;" x="42.620313" xlink:href="#md9020a60cf" y="288.430125"/>
      </g>
     </g>
     <g id="text_9">
      <!-- −3 -->
      <defs>
       <path d="M 10.59375 35.5 
L 73.1875 35.5 
L 73.1875 27.203125 
L 10.59375 27.203125 
z
" id="DejaVuSans-8722"/>
       <path d="M 40.578125 39.3125 
Q 47.65625 37.796875 51.625 33 
Q 55.609375 28.21875 55.609375 21.1875 
Q 55.609375 10.40625 48.1875 4.484375 
Q 40.765625 -1.421875 27.09375 -1.421875 
Q 22.515625 -1.421875 17.65625 -0.515625 
Q 12.796875 0.390625 7.625 2.203125 
L 7.625 11.71875 
Q 11.71875 9.328125 16.59375 8.109375 
Q 21.484375 6.890625 26.8125 6.890625 
Q 36.078125 6.890625 40.9375 10.546875 
Q 45.796875 14.203125 45.796875 21.1875 
Q 45.796875 27.640625 41.28125 31.265625 
Q 36.765625 34.90625 28.71875 34.90625 
L 20.21875 34.90625 
L 20.21875 43.015625 
L 29.109375 43.015625 
Q 36.375 43.015625 40.234375 45.921875 
Q 44.09375 48.828125 44.09375 54.296875 
Q 44.09375 59.90625 40.109375 62.90625 
Q 36.140625 65.921875 28.71875 65.921875 
Q 24.65625 65.921875 20.015625 65.03125 
Q 15.375 64.15625 9.8125 62.3125 
L 9.8125 71.09375 
Q 15.4375 72.65625 20.34375 73.4375 
Q 25.25 74.21875 29.59375 74.21875 
Q 40.828125 74.21875 47.359375 69.109375 
Q 53.90625 64.015625 53.90625 55.328125 
Q 53.90625 49.265625 50.4375 45.09375 
Q 46.96875 40.921875 40.578125 39.3125 
z
" id="DejaVuSans-51"/>
      </defs>
      <g transform="translate(20.878125 292.229344)scale(0.1 -0.1)">
       <use xlink:href="#DejaVuSans-8722"/>
       <use x="83.789062" xlink:href="#DejaVuSans-51"/>
      </g>
     </g>
    </g>
    <g id="ytick_2">
     <g id="line2d_17">
      <path clip-path="url(#p2356eb56e9)" d="M 42.620313 245.230125 
L 399.740313 245.230125 
" style="fill:none;stroke:#b0b0b0;stroke-dasharray:2.96,1.28;stroke-dashoffset:0;stroke-width:0.8;"/>
     </g>
     <g id="line2d_18">
      <g>
       <use style="stroke:#000000;stroke-width:0.8;" x="42.620313" xlink:href="#md9020a60cf" y="245.230125"/>
      </g>
     </g>
     <g id="text_10">
      <!-- −2 -->
      <g transform="translate(20.878125 249.029344)scale(0.1 -0.1)">
       <use xlink:href="#DejaVuSans-8722"/>
       <use x="83.789062" xlink:href="#DejaVuSans-50"/>
      </g>
     </g>
    </g>
    <g id="ytick_3">
     <g id="line2d_19">
      <path clip-path="url(#p2356eb56e9)" d="M 42.620313 202.030125 
L 399.740313 202.030125 
" style="fill:none;stroke:#b0b0b0;stroke-dasharray:2.96,1.28;stroke-dashoffset:0;stroke-width:0.8;"/>
     </g>
     <g id="line2d_20">
      <g>
       <use style="stroke:#000000;stroke-width:0.8;" x="42.620313" xlink:href="#md9020a60cf" y="202.030125"/>
      </g>
     </g>
     <g id="text_11">
      <!-- −1 -->
      <g transform="translate(20.878125 205.829344)scale(0.1 -0.1)">
       <use xlink:href="#DejaVuSans-8722"/>
       <use x="83.789062" xlink:href="#DejaVuSans-49"/>
      </g>
     </g>
    </g>
    <g id="ytick_4">
     <g id="line2d_21">
      <path clip-path="url(#p2356eb56e9)" d="M 42.620313 158.830125 
L 399.740313 158.830125 
" style="fill:none;stroke:#b0b0b0;stroke-dasharray:2.96,1.28;stroke-dashoffset:0;stroke-width:0.8;"/>
     </g>
     <g id="line2d_22">
      <g>
       <use style="stroke:#000000;stroke-width:0.8;" x="42.620313" xlink:href="#md9020a60cf" y="158.830125"/>
      </g>
     </g>
     <g id="text_12">
      <!-- 0 -->
      <g transform="translate(29.257813 162.629344)scale(0.1 -0.1)">
       <use xlink:href="#DejaVuSans-48"/>
      </g>
     </g>
    </g>
    <g id="ytick_5">
     <g id="line2d_23">
      <path clip-path="url(#p2356eb56e9)" d="M 42.620313 115.630125 
L 399.740313 115.630125 
" style="fill:none;stroke:#b0b0b0;stroke-dasharray:2.96,1.28;stroke-dashoffset:0;stroke-width:0.8;"/>
     </g>
     <g id="line2d_24">
      <g>
       <use style="stroke:#000000;stroke-width:0.8;" x="42.620313" xlink:href="#md9020a60cf" y="115.630125"/>
      </g>
     </g>
     <g id="text_13">
      <!-- 1 -->
      <g transform="translate(29.257813 119.429344)scale(0.1 -0.1)">
       <use xlink:href="#DejaVuSans-49"/>
      </g>
     </g>
    </g>
    <g id="ytick_6">
     <g id="line2d_25">
      <path clip-path="url(#p2356eb56e9)" d="M 42.620313 72.430125 
L 399.740313 72.430125 
" style="fill:none;stroke:#b0b0b0;stroke-dasharray:2.96,1.28;stroke-dashoffset:0;stroke-width:0.8;"/>
     </g>
     <g id="line2d_26">
      <g>
       <use style="stroke:#000000;stroke-width:0.8;" x="42.620313" xlink:href="#md9020a60cf" y="72.430125"/>
      </g>
     </g>
     <g id="text_14">
      <!-- 2 -->
      <g transform="translate(29.257813 76.229344)scale(0.1 -0.1)">
       <use xlink:href="#DejaVuSans-50"/>
      </g>
     </g>
    </g>
    <g id="ytick_7">
     <g id="line2d_27">
      <path clip-path="url(#p2356eb56e9)" d="M 42.620313 29.230125 
L 399.740313 29.230125 
" style="fill:none;stroke:#b0b0b0;stroke-dasharray:2.96,1.28;stroke-dashoffset:0;stroke-width:0.8;"/>
     </g>
     <g id="line2d_28">
      <g>
       <use style="stroke:#000000;stroke-width:0.8;" x="42.620313" xlink:href="#md9020a60cf" y="29.230125"/>
      </g>
     </g>
     <g id="text_15">
      <!-- 3 -->
      <g transform="translate(29.257813 33.029344)scale(0.1 -0.1)">
       <use xlink:href="#DejaVuSans-51"/>
      </g>
     </g>
    </g>
    <g id="text_16">
     <!-- Change $ -->
     <defs>
      <path d="M 64.40625 67.28125 
L 64.40625 56.890625 
Q 59.421875 61.53125 53.78125 63.8125 
Q 48.140625 66.109375 41.796875 66.109375 
Q 29.296875 66.109375 22.65625 58.46875 
Q 16.015625 50.828125 16.015625 36.375 
Q 16.015625 21.96875 22.65625 14.328125 
Q 29.296875 6.6875 41.796875 6.6875 
Q 48.140625 6.6875 53.78125 8.984375 
Q 59.421875 11.28125 64.40625 15.921875 
L 64.40625 5.609375 
Q 59.234375 2.09375 53.4375 0.328125 
Q 47.65625 -1.421875 41.21875 -1.421875 
Q 24.65625 -1.421875 15.125 8.703125 
Q 5.609375 18.84375 5.609375 36.375 
Q 5.609375 53.953125 15.125 64.078125 
Q 24.65625 74.21875 41.21875 74.21875 
Q 47.75 74.21875 53.53125 72.484375 
Q 59.328125 70.75 64.40625 67.28125 
z
" id="DejaVuSans-67"/>
      <path d="M 54.890625 33.015625 
L 54.890625 0 
L 45.90625 0 
L 45.90625 32.71875 
Q 45.90625 40.484375 42.875 44.328125 
Q 39.84375 48.1875 33.796875 48.1875 
Q 26.515625 48.1875 22.3125 43.546875 
Q 18.109375 38.921875 18.109375 30.90625 
L 18.109375 0 
L 9.078125 0 
L 9.078125 75.984375 
L 18.109375 75.984375 
L 18.109375 46.1875 
Q 21.34375 51.125 25.703125 53.5625 
Q 30.078125 56 35.796875 56 
Q 45.21875 56 50.046875 50.171875 
Q 54.890625 44.34375 54.890625 33.015625 
z
" id="DejaVuSans-104"/>
      <path d="M 54.890625 33.015625 
L 54.890625 0 
L 45.90625 0 
L 45.90625 32.71875 
Q 45.90625 40.484375 42.875 44.328125 
Q 39.84375 48.1875 33.796875 48.1875 
Q 26.515625 48.1875 22.3125 43.546875 
Q 18.109375 38.921875 18.109375 30.90625 
L 18.109375 0 
L 9.078125 0 
L 9.078125 54.6875 
L 18.109375 54.6875 
L 18.109375 46.1875 
Q 21.34375 51.125 25.703125 53.5625 
Q 30.078125 56 35.796875 56 
Q 45.21875 56 50.046875 50.171875 
Q 54.890625 44.34375 54.890625 33.015625 
z
" id="DejaVuSans-110"/>
      <path d="M 45.40625 27.984375 
Q 45.40625 37.75 41.375 43.109375 
Q 37.359375 48.484375 30.078125 48.484375 
Q 22.859375 48.484375 18.828125 43.109375 
Q 14.796875 37.75 14.796875 27.984375 
Q 14.796875 18.265625 18.828125 12.890625 
Q 22.859375 7.515625 30.078125 7.515625 
Q 37.359375 7.515625 41.375 12.890625 
Q 45.40625 18.265625 45.40625 27.984375 
z
M 54.390625 6.78125 
Q 54.390625 -7.171875 48.1875 -13.984375 
Q 42 -20.796875 29.203125 -20.796875 
Q 24.46875 -20.796875 20.265625 -20.09375 
Q 16.0625 -19.390625 12.109375 -17.921875 
L 12.109375 -9.1875 
Q 16.0625 -11.328125 19.921875 -12.34375 
Q 23.78125 -13.375 27.78125 -13.375 
Q 36.625 -13.375 41.015625 -8.765625 
Q 45.40625 -4.15625 45.40625 5.171875 
L 45.40625 9.625 
Q 42.625 4.78125 38.28125 2.390625 
Q 33.9375 0 27.875 0 
Q 17.828125 0 11.671875 7.65625 
Q 5.515625 15.328125 5.515625 27.984375 
Q 5.515625 40.671875 11.671875 48.328125 
Q 17.828125 56 27.875 56 
Q 33.9375 56 38.28125 53.609375 
Q 42.625 51.21875 45.40625 46.390625 
L 45.40625 54.6875 
L 54.390625 54.6875 
z
" id="DejaVuSans-103"/>
      <path d="M 56.203125 29.59375 
L 56.203125 25.203125 
L 14.890625 25.203125 
Q 15.484375 15.921875 20.484375 11.0625 
Q 25.484375 6.203125 34.421875 6.203125 
Q 39.59375 6.203125 44.453125 7.46875 
Q 49.3125 8.734375 54.109375 11.28125 
L 54.109375 2.78125 
Q 49.265625 0.734375 44.1875 -0.34375 
Q 39.109375 -1.421875 33.890625 -1.421875 
Q 20.796875 -1.421875 13.15625 6.1875 
Q 5.515625 13.8125 5.515625 26.8125 
Q 5.515625 40.234375 12.765625 48.109375 
Q 20.015625 56 32.328125 56 
Q 43.359375 56 49.78125 48.890625 
Q 56.203125 41.796875 56.203125 29.59375 
z
M 47.21875 32.234375 
Q 47.125 39.59375 43.09375 43.984375 
Q 39.0625 48.390625 32.421875 48.390625 
Q 24.90625 48.390625 20.390625 44.140625 
Q 15.875 39.890625 15.1875 32.171875 
z
" id="DejaVuSans-101"/>
      <path id="DejaVuSans-32"/>
      <path d="M 33.796875 -14.703125 
L 28.90625 -14.703125 
L 28.859375 0 
Q 23.734375 0.09375 18.609375 1.1875 
Q 13.484375 2.296875 8.296875 4.5 
L 8.296875 13.28125 
Q 13.28125 10.15625 18.375 8.5625 
Q 23.484375 6.984375 28.90625 6.9375 
L 28.90625 29.203125 
Q 18.109375 30.953125 13.203125 35.15625 
Q 8.296875 39.359375 8.296875 46.6875 
Q 8.296875 54.640625 13.625 59.21875 
Q 18.953125 63.8125 28.90625 64.5 
L 28.90625 75.984375 
L 33.796875 75.984375 
L 33.796875 64.65625 
Q 38.328125 64.453125 42.578125 63.6875 
Q 46.828125 62.9375 50.875 61.625 
L 50.875 53.078125 
Q 46.828125 55.125 42.546875 56.25 
Q 38.28125 57.375 33.796875 57.5625 
L 33.796875 36.71875 
Q 44.875 35.015625 50.09375 30.609375 
Q 55.328125 26.21875 55.328125 18.609375 
Q 55.328125 10.359375 49.78125 5.59375 
Q 44.234375 0.828125 33.796875 0.09375 
z
M 28.90625 37.59375 
L 28.90625 57.625 
Q 23.25 56.984375 20.265625 54.390625 
Q 17.28125 51.8125 17.28125 47.515625 
Q 17.28125 43.3125 20.03125 40.96875 
Q 22.796875 38.625 28.90625 37.59375 
z
M 33.796875 28.21875 
L 33.796875 7.078125 
Q 39.984375 7.90625 43.140625 10.59375 
Q 46.296875 13.28125 46.296875 17.671875 
Q 46.296875 21.96875 43.28125 24.5 
Q 40.28125 27.046875 33.796875 28.21875 
z
" id="DejaVuSans-36"/>
     </defs>
     <g transform="translate(14.798438 179.288187)rotate(-90)scale(0.1 -0.1)">
      <use xlink:href="#DejaVuSans-67"/>
      <use x="69.824219" xlink:href="#DejaVuSans-104"/>
      <use x="133.203125" xlink:href="#DejaVuSans-97"/>
      <use x="194.482422" xlink:href="#DejaVuSans-110"/>
      <use x="257.861328" xlink:href="#DejaVuSans-103"/>
      <use x="321.337891" xlink:href="#DejaVuSans-101"/>
      <use x="382.861328" xlink:href="#DejaVuSans-32"/>
      <use x="414.648438" xlink:href="#DejaVuSans-36"/>
     </g>
    </g>
   </g>
   <g id="line2d_29">
    <path clip-path="url(#p2356eb56e9)" d="M 58.85304 182.059589 
L 59.097693 162.641567 
L 59.342346 157.442942 
L 59.586999 157.27269 
L 60.320958 160.345325 
L 60.565611 160.884371 
L 60.810264 160.992171 
L 61.054917 160.788163 
L 61.788876 159.53173 
L 63.256794 157.204731 
L 64.235406 155.937338 
L 65.214018 155.197442 
L 65.703324 154.856002 
L 65.947977 155.003889 
L 67.660548 154.817127 
L 68.883813 154.359681 
L 69.617772 154.308823 
L 70.107078 154.032717 
L 71.08569 153.957894 
L 72.308955 154.091073 
L 74.021526 154.288953 
L 74.755485 154.362766 
L 75.000138 154.32764 
L 75.489445 154.424583 
L 76.223404 154.518411 
L 76.957363 154.662318 
L 77.446669 154.887653 
L 78.180628 154.838511 
L 79.15924 154.922288 
L 80.382505 154.728331 
L 80.871811 154.806312 
L 82.584382 154.609456 
L 83.073688 154.650941 
L 83.562994 154.687927 
L 84.786259 154.835829 
L 85.275565 154.495369 
L 85.764871 154.380575 
L 86.254177 154.255845 
L 87.722095 153.781759 
L 91.39189 153.680404 
L 92.125849 153.711695 
L 92.370502 153.947224 
L 93.349114 154.116726 
L 94.083073 154.164469 
L 94.572379 153.940793 
L 95.061685 153.779149 
L 95.795644 153.522121 
L 96.28495 153.484587 
L 96.774256 153.498386 
L 98.242175 153.444068 
L 98.731481 153.068381 
L 99.220787 152.83203 
L 99.710093 152.572031 
L 99.954746 152.150302 
L 100.199399 151.99744 
L 100.444052 152.263625 
L 100.688705 152.295016 
L 101.178011 151.844521 
L 101.422664 151.299548 
L 101.667317 151.820887 
L 101.91197 151.819806 
L 102.401276 151.508762 
L 102.645929 151.976849 
L 102.890582 152.023324 
L 103.379888 151.216232 
L 103.624541 150.96575 
L 104.113847 150.884135 
L 104.3585 150.940804 
L 104.603153 151.248113 
L 104.847806 151.365143 
L 105.092459 151.2343 
L 105.581765 151.502821 
L 106.80503 151.944275 
L 107.049683 151.775855 
L 107.538989 151.707881 
L 108.028295 151.636966 
L 108.272948 151.87747 
L 108.762254 151.734009 
L 109.25156 151.901752 
L 109.496213 151.980685 
L 109.985519 152.41568 
L 110.474825 152.534929 
L 110.719478 152.476775 
L 110.964131 152.60172 
L 111.942743 152.398621 
L 112.187396 152.52684 
L 112.432049 152.315954 
L 113.166008 152.214253 
L 113.410661 152.279472 
L 113.655314 152.725844 
L 113.899967 152.725815 
L 114.14462 152.564994 
L 114.633926 152.707343 
L 114.878579 152.364158 
L 115.123232 152.514698 
L 115.367885 152.482543 
L 115.857191 152.835375 
L 116.101844 152.797105 
L 116.346497 152.905584 
L 117.080456 152.297223 
L 117.569762 152.368686 
L 117.814415 152.263957 
L 118.059068 151.987462 
L 118.548374 151.884175 
L 118.793027 151.818089 
L 119.282333 151.97261 
L 119.526986 151.681003 
L 120.750252 151.715827 
L 121.239558 151.088878 
L 121.484211 151.354602 
L 121.973517 151.05877 
L 122.462823 151.459202 
L 124.175394 152.017022 
L 124.420047 151.792048 
L 124.6647 151.858811 
L 124.909353 151.778407 
L 125.154006 151.949235 
L 125.398659 151.855105 
L 125.643312 151.93186 
L 125.887965 151.5129 
L 127.11123 151.901247 
L 127.600536 151.606194 
L 127.845189 151.258755 
L 128.089842 151.516663 
L 128.334495 151.320197 
L 128.579148 151.276808 
L 129.068454 150.983731 
L 129.55776 151.252353 
L 129.802413 150.993464 
L 130.047066 151.043226 
L 130.291719 150.92562 
L 130.536372 151.226283 
L 130.781025 151.261452 
L 131.025678 151.625747 
L 131.270331 151.752683 
L 131.759637 151.456692 
L 132.00429 151.452929 
L 132.248943 151.675206 
L 132.493596 151.566771 
L 132.738249 151.672135 
L 132.982902 151.540052 
L 133.472208 151.990403 
L 133.716861 151.873562 
L 133.961514 151.475841 
L 134.206167 151.504926 
L 134.695473 150.921568 
L 134.940126 151.087407 
L 135.429432 151.022722 
L 135.674085 150.425665 
L 135.918738 150.678036 
L 136.163391 150.385175 
L 136.408044 150.378066 
L 136.652697 150.631231 
L 136.89735 150.69596 
L 137.386656 150.557171 
L 137.631309 150.753523 
L 138.120615 150.742723 
L 138.365268 150.755801 
L 138.609921 150.588894 
L 138.854574 150.266791 
L 139.099227 150.140533 
L 139.588533 150.165003 
L 139.833186 150.049531 
L 140.077839 150.325897 
L 140.322492 150.198802 
L 140.567145 150.233107 
L 140.811798 150.097404 
L 141.056451 150.162883 
L 141.301104 150.428953 
L 141.545757 150.384353 
L 141.79041 150.538326 
L 142.524369 150.228449 
L 143.013676 150.387569 
L 143.992288 150.482565 
L 144.236941 150.630481 
L 145.215553 150.308564 
L 145.460206 150.120173 
L 145.704859 150.12695 
L 145.949512 150.260648 
L 146.194165 150.266892 
L 146.438818 150.117505 
L 146.928124 150.055198 
L 147.172777 150.009272 
L 147.41743 150.163778 
L 147.906736 149.585842 
L 148.151389 149.353399 
L 148.396042 149.508178 
L 148.640695 149.530225 
L 148.885348 149.689028 
L 149.130001 149.578516 
L 149.374654 149.638156 
L 149.619307 149.567024 
L 150.353266 149.885148 
L 150.597919 149.786547 
L 151.087225 150.194823 
L 151.331878 150.494389 
L 151.576531 150.536321 
L 152.065837 151.148575 
L 152.31049 151.298409 
L 152.555143 151.263961 
L 153.044449 151.01991 
L 153.289102 151.023875 
L 153.533755 150.672572 
L 153.778408 150.621959 
L 154.023061 150.398355 
L 154.512367 150.380648 
L 155.246326 150.277591 
L 155.980285 150.49237 
L 156.224938 150.349718 
L 156.714244 150.435701 
L 157.20355 150.362681 
L 158.182162 150.110108 
L 158.426815 150.34382 
L 160.139386 150.744381 
L 160.628692 150.685953 
L 161.117998 150.751201 
L 161.607304 150.674388 
L 162.09661 150.396048 
L 162.585916 150.387425 
L 162.830569 150.460546 
L 163.075222 150.275327 
L 163.319875 150.277057 
L 163.564528 150.481714 
L 164.053834 150.441267 
L 164.787793 150.113626 
L 165.032447 150.048666 
L 165.521753 150.210006 
L 165.766406 150.230771 
L 166.255712 149.805351 
L 166.500365 149.977116 
L 166.745018 149.853209 
L 166.989671 149.855675 
L 167.234324 149.973396 
L 167.478977 149.915703 
L 167.72363 149.257566 
L 167.968283 149.086881 
L 168.212936 149.165223 
L 168.457589 149.063479 
L 168.702242 149.159181 
L 168.946895 148.904258 
L 169.191548 149.192736 
L 169.436201 149.060451 
L 169.680854 149.229664 
L 170.17016 149.067372 
L 170.414813 149.244185 
L 170.659466 149.140695 
L 170.904119 148.888195 
L 171.882731 149.196066 
L 172.127384 149.082181 
L 172.861343 149.145785 
L 173.105996 149.049593 
L 173.350649 149.199628 
L 173.595302 149.138503 
L 173.839955 149.314076 
L 174.084608 149.345324 
L 174.329261 149.154236 
L 174.573914 149.325756 
L 175.552526 149.415388 
L 175.797179 149.468726 
L 176.531138 149.192649 
L 176.775791 149.307227 
L 177.020444 149.144185 
L 177.50975 149.226492 
L 177.999056 149.242671 
L 178.733015 148.797525 
L 178.977668 148.669637 
L 179.222321 148.886219 
L 179.466974 148.743668 
L 179.711627 148.947993 
L 179.95628 148.928858 
L 180.445586 148.681664 
L 180.690239 148.655968 
L 180.934892 148.382213 
L 181.179545 148.698375 
L 181.668851 148.911554 
L 181.913504 149.176499 
L 182.158157 149.261474 
L 182.647463 148.930934 
L 183.136769 148.949679 
L 183.381422 149.059816 
L 183.626075 149.377897 
L 183.870728 149.075086 
L 184.115381 149.054654 
L 184.360034 148.881706 
L 184.604687 149.282743 
L 184.84934 149.051655 
L 185.093993 149.374884 
L 185.827952 149.659554 
L 186.072605 149.42613 
L 186.317258 149.632489 
L 186.806564 149.177725 
L 187.051217 149.064258 
L 187.29587 149.351164 
L 187.540524 149.166117 
L 188.02983 149.691306 
L 188.274483 149.784456 
L 188.519136 149.719568 
L 188.763789 149.900159 
L 189.008442 149.859006 
L 189.987054 150.111045 
L 190.721013 149.947383 
L 191.210319 150.135399 
L 191.454972 150.078471 
L 191.944278 150.400734 
L 192.433584 150.446386 
L 192.678237 150.643055 
L 193.412196 150.461037 
L 193.656849 150.66402 
L 193.901502 150.532009 
L 194.146155 150.741757 
L 194.635461 150.700891 
L 194.880114 150.931763 
L 195.124767 150.800747 
L 195.614073 150.929067 
L 196.348032 150.907654 
L 196.837338 150.627554 
L 197.081991 150.623242 
L 198.060603 150.139004 
L 198.549909 150.277404 
L 199.283868 148.95389 
L 201.241092 148.600582 
L 201.485745 148.243237 
L 201.975051 148.478218 
L 202.219704 148.198983 
L 202.70901 148.390331 
L 202.953663 148.506221 
L 203.442969 148.457684 
L 203.932275 148.756962 
L 204.176928 148.693963 
L 204.421581 148.443149 
L 204.666234 148.386365 
L 204.910887 148.48625 
L 205.15554 148.836832 
L 205.400193 148.907488 
L 205.889499 149.198345 
L 206.134152 148.979946 
L 206.378805 149.137782 
L 206.623458 148.95154 
L 206.868111 148.914885 
L 207.112764 149.054784 
L 207.357417 148.869709 
L 207.846723 149.255403 
L 208.336029 149.20629 
L 208.825335 149.630398 
L 209.069988 149.352764 
L 209.559294 149.428597 
L 210.293254 149.111842 
L 211.027213 149.369159 
L 211.271866 149.224978 
L 211.516519 149.286578 
L 211.761172 149.015606 
L 212.005825 149.067761 
L 212.250478 149.392908 
L 212.495131 149.429043 
L 212.739784 149.654363 
L 212.984437 149.648351 
L 213.22909 149.504487 
L 213.473743 149.564457 
L 213.718396 149.483535 
L 214.207702 149.605221 
L 214.697008 149.872575 
L 215.67562 149.502107 
L 216.164926 149.607889 
L 216.898885 149.46215 
L 217.143538 149.597968 
L 217.632844 149.497724 
L 220.079374 150.34927 
L 220.324027 150.278211 
L 220.56868 150.343142 
L 221.302639 150.112646 
L 222.036598 149.959755 
L 222.281251 150.134722 
L 222.770557 149.772445 
L 223.259863 149.66499 
L 223.504516 149.363492 
L 223.993822 149.330688 
L 224.972434 149.164762 
L 225.706393 149.159888 
L 225.951046 149.338358 
L 226.195699 149.312389 
L 226.440352 149.513484 
L 226.685005 149.339656 
L 227.174311 149.551019 
L 227.663617 149.484184 
L 227.90827 149.084531 
L 228.886882 148.85428 
L 229.131535 148.955851 
L 229.620841 148.556775 
L 229.865494 148.490907 
L 230.110147 148.086208 
L 230.3548 148.042055 
L 230.599453 148.142805 
L 230.844106 147.932942 
L 231.088759 148.146309 
L 231.333412 147.914081 
L 231.822718 147.853765 
L 232.312024 148.153518 
L 232.556678 148.056432 
L 232.801331 147.788054 
L 233.045984 147.791154 
L 233.290637 147.926353 
L 233.779943 147.707939 
L 234.269249 147.808314 
L 234.513902 147.689785 
L 234.758555 147.914716 
L 235.247861 148.05933 
L 235.492514 147.905603 
L 236.226473 147.97747 
L 236.471126 148.017874 
L 236.960432 147.71414 
L 237.205085 147.844218 
L 237.449738 147.685128 
L 237.694391 147.66445 
L 237.939044 147.384769 
L 238.917656 147.654933 
L 239.162309 147.592525 
L 239.406962 147.646065 
L 240.630227 147.40497 
L 240.87488 147.614674 
L 241.119533 147.362303 
L 243.076757 147.317025 
L 243.32141 147.269484 
L 243.810716 146.456712 
L 244.055369 146.244384 
L 244.300022 146.26372 
L 245.278634 145.799237 
L 246.012593 145.843938 
L 246.257246 145.770225 
L 246.746552 145.894233 
L 246.991205 146.044832 
L 247.969817 147.143313 
L 248.459123 147.111993 
L 248.703776 147.078295 
L 248.948429 147.180574 
L 249.193082 147.529815 
L 249.682388 146.967928 
L 250.416347 147.014084 
L 250.661 147.142058 
L 250.905653 147.030437 
L 251.150306 147.081251 
L 252.128918 146.776927 
L 252.373571 146.814229 
L 252.862877 147.009081 
L 253.10753 147.030841 
L 253.352183 146.71165 
L 253.596836 146.817964 
L 253.841489 147.129643 
L 254.330795 146.929673 
L 255.064755 146.374924 
L 255.309408 146.519984 
L 255.554061 146.050484 
L 255.798714 146.006548 
L 256.28802 146.256857 
L 256.532673 146.09654 
L 256.777326 146.27465 
L 257.266632 145.762871 
L 257.511285 145.817666 
L 257.755938 145.525049 
L 258.000591 145.659036 
L 258.245244 145.367185 
L 258.73455 145.388496 
L 258.979203 145.142787 
L 259.223856 145.220652 
L 259.713162 145.55536 
L 259.957815 145.401387 
L 260.936427 145.993901 
L 261.18108 146.035199 
L 261.670386 146.380519 
L 261.915039 146.417029 
L 262.159692 146.28979 
L 262.404345 146.380014 
L 262.648998 146.094132 
L 262.893651 146.066359 
L 263.62761 146.257736 
L 264.116916 146.104268 
L 264.361569 146.420634 
L 264.606222 146.326993 
L 264.850875 146.360476 
L 265.095528 146.580013 
L 265.340181 146.340317 
L 265.584834 146.309459 
L 265.829487 146.538888 
L 266.07414 146.291824 
L 266.318793 146.345335 
L 266.563446 146.528492 
L 267.052752 146.397072 
L 267.542058 146.139957 
L 267.786711 146.368032 
L 268.031364 146.104586 
L 268.276017 146.104471 
L 268.52067 145.812475 
L 268.765323 145.782742 
L 269.009976 146.016684 
L 269.254629 145.764025 
L 270.233241 146.396727 
L 270.477894 146.356943 
L 270.9672 147.156189 
L 271.456506 147.269455 
L 271.701159 147.599966 
L 271.945812 147.551445 
L 272.190465 147.836736 
L 272.435118 147.616001 
L 272.679771 147.747291 
L 273.169077 147.625734 
L 273.41373 147.823686 
L 273.903036 147.660513 
L 274.147689 147.629022 
L 274.392342 147.341784 
L 275.126301 147.212686 
L 275.370954 147.45988 
L 275.615607 147.103155 
L 275.86026 147.685531 
L 276.349566 147.715654 
L 276.594219 147.835106 
L 276.838872 148.164852 
L 277.083525 147.683124 
L 277.328178 147.681149 
L 277.572832 147.112109 
L 278.062138 147.622245 
L 278.306791 147.468488 
L 278.551444 147.019319 
L 279.285403 147.018266 
L 279.530056 147.429151 
L 279.774709 146.825304 
L 280.019362 147.003184 
L 280.753321 146.911908 
L 281.242627 147.130594 
L 281.48728 147.280846 
L 281.731933 147.106241 
L 282.221239 147.081482 
L 282.465892 147.175858 
L 282.710545 147.042318 
L 282.955198 147.168259 
L 283.199851 147.103544 
L 283.444504 147.201467 
L 283.689157 147.594732 
L 283.93381 147.489585 
L 284.178463 147.508459 
L 284.423116 147.375382 
L 284.912422 147.525762 
L 285.157075 147.328431 
L 285.401728 147.367277 
L 285.891034 147.122736 
L 286.135687 147.192945 
L 286.869646 146.927711 
L 287.358952 146.8926 
L 288.092911 146.466286 
L 288.337564 146.557389 
L 288.582217 146.782911 
L 289.316176 146.875312 
L 289.560829 146.743141 
L 289.805482 146.286417 
L 290.050135 146.567598 
L 290.294788 146.267095 
L 290.539441 146.57896 
L 290.784094 146.289517 
L 291.028747 146.356409 
L 291.2734 145.991898 
L 291.518053 146.099654 
L 291.762706 145.669721 
L 292.007359 145.806837 
L 292.252012 145.411655 
L 292.496665 145.701386 
L 292.741318 145.543636 
L 292.985971 145.90029 
L 293.230624 145.873498 
L 293.475277 146.023332 
L 293.71993 146.020535 
L 293.964583 146.377188 
L 294.209236 146.16349 
L 294.453889 146.116353 
L 294.698542 145.600695 
L 295.187848 145.429751 
L 295.432501 145.775286 
L 295.677154 145.52404 
L 295.921807 145.817247 
L 296.900419 145.481762 
L 297.145072 145.62613 
L 297.389725 145.987975 
L 298.61299 146.249964 
L 298.857643 146.059121 
L 299.102296 146.182552 
L 299.346949 146.061514 
L 299.591602 146.672543 
L 300.080909 146.793653 
L 300.814868 145.779843 
L 301.059521 145.929157 
L 301.548827 145.74414 
L 301.79348 145.737219 
L 302.038133 145.517869 
L 302.527439 145.369996 
L 303.261398 145.793094 
L 303.506051 145.758041 
L 303.750704 145.872416 
L 303.995357 145.822049 
L 304.484663 146.049042 
L 304.729316 145.769274 
L 304.973969 146.25478 
L 305.463275 146.307512 
L 305.707928 146.577764 
L 305.952581 146.554533 
L 306.197234 146.832802 
L 306.441887 146.605911 
L 306.931193 146.534231 
L 307.665152 146.518096 
L 307.909805 146.099784 
L 308.399111 146.612342 
L 308.888417 146.504167 
L 309.13307 146.561138 
L 309.377723 146.303721 
L 309.622376 146.390295 
L 309.867029 146.641787 
L 310.356335 146.555601 
L 310.600988 146.785708 
L 311.090294 146.029547 
L 311.5796 146.323676 
L 311.824253 145.697753 
L 312.068906 146.143015 
L 312.313559 145.966736 
L 312.558212 146.601022 
L 312.802865 146.217462 
L 313.047518 146.513914 
L 313.292171 146.427008 
L 314.515436 146.79123 
L 314.760089 146.69113 
L 315.004742 146.86529 
L 315.249395 146.821195 
L 315.983354 146.987596 
L 316.47266 146.906198 
L 316.961966 147.179074 
L 317.206619 146.647785 
L 317.451272 147.001251 
L 317.695925 146.987236 
L 317.940578 147.199376 
L 318.185231 146.991071 
L 318.429884 147.330363 
L 318.674537 146.96529 
L 318.91919 147.275541 
L 319.408496 147.003227 
L 319.897802 147.24265 
L 320.142455 147.319693 
L 320.387108 146.800531 
L 320.631761 146.638326 
L 320.876414 146.239899 
L 321.610373 145.762555 
L 322.344333 146.321975 
L 322.833639 145.566377 
L 323.078292 145.707356 
L 323.567598 146.368002 
L 323.812251 146.326892 
L 324.056904 146.053772 
L 324.301557 146.283547 
L 324.54621 145.968566 
L 324.790863 146.176957 
L 325.524822 145.939497 
L 326.014128 146.073411 
L 326.258781 146.474995 
L 326.503434 146.409805 
L 326.99274 147.070769 
L 327.237393 146.825809 
L 327.726699 146.861886 
L 327.971352 146.249401 
L 328.216005 146.556898 
L 328.705311 146.392213 
L 328.949964 146.473539 
L 329.194617 146.117867 
L 329.43927 145.452086 
L 329.683923 145.419802 
L 329.928576 145.825741 
L 330.173229 145.72228 
L 330.417882 145.490328 
L 330.662535 145.574508 
L 330.907188 145.24557 
L 331.151841 145.322253 
L 331.641147 145.238374 
L 331.8858 145.313428 
L 332.130453 145.640233 
L 332.375106 145.770514 
L 332.619759 144.99702 
L 332.864412 145.628323 
L 333.109065 145.873325 
L 333.353718 145.694407 
L 333.598371 145.990729 
L 333.843024 145.851898 
L 334.087677 145.928826 
L 334.33233 145.292838 
L 334.576983 145.483867 
L 335.066289 145.441387 
L 335.310942 145.60391 
L 335.555595 145.391828 
L 336.289554 146.034982 
L 336.534207 145.82701 
L 337.023513 145.83993 
L 337.757472 146.210843 
L 338.491431 146.005092 
L 339.22539 145.961184 
L 339.714696 146.696942 
L 339.959349 145.906807 
L 340.204002 146.022005 
L 340.693308 145.854738 
L 341.182614 146.19416 
L 341.427267 146.132286 
L 341.67192 146.248897 
L 342.161226 145.828278 
L 342.405879 146.151795 
L 342.650532 145.981846 
L 342.895185 146.158716 
L 343.139838 145.659051 
L 343.384491 145.686434 
L 343.629144 146.104038 
L 343.873797 145.672345 
L 344.11845 145.7751 
L 344.363103 145.640463 
L 344.607756 145.816051 
L 344.85241 145.646203 
L 345.097063 145.801992 
L 345.341716 146.117116 
L 345.586369 145.953628 
L 345.831022 146.102438 
L 346.809634 146.045379 
L 347.054287 145.906332 
L 347.29894 146.270973 
L 347.543593 146.022625 
L 347.788246 146.26969 
L 348.277552 146.175659 
L 348.766858 146.131277 
L 349.500817 146.171882 
L 349.74547 145.794739 
L 349.990123 145.869562 
L 350.234776 146.080506 
L 350.479429 145.716757 
L 350.724082 145.820694 
L 350.968735 145.661416 
L 351.458041 145.926057 
L 351.702694 146.225479 
L 351.947347 146.250801 
L 352.436653 145.807644 
L 352.681306 145.524358 
L 353.415265 145.85161 
L 353.659918 145.867673 
L 354.149224 145.640622 
L 354.393877 145.640189 
L 354.63853 145.793369 
L 354.883183 145.509563 
L 355.127836 145.755575 
L 355.861795 145.366348 
L 356.106448 144.870561 
L 356.351101 145.231078 
L 356.595754 144.741851 
L 356.840407 144.75904 
L 357.08506 144.97131 
L 357.329713 144.773748 
L 357.574366 144.022547 
L 357.819019 144.380959 
L 358.063672 143.815568 
L 358.308325 144.640078 
L 358.552978 144.688226 
L 358.797631 144.509956 
L 359.042284 144.540842 
L 359.286937 144.691196 
L 359.53159 144.60315 
L 359.776243 144.646379 
L 360.020896 144.396402 
L 360.265549 144.748181 
L 360.510202 144.796645 
L 360.754855 144.264622 
L 360.999508 144.676646 
L 361.244161 144.608167 
L 361.488814 145.341301 
L 361.733467 145.202657 
L 361.97812 145.473773 
L 362.222773 145.371525 
L 362.467426 145.442022 
L 362.956732 145.945697 
L 363.201385 145.61435 
L 363.446038 145.713326 
L 363.690691 145.948509 
L 363.935344 145.872186 
L 364.179997 146.221832 
L 365.158609 146.013079 
L 365.647915 146.031768 
L 365.892568 146.357145 
L 366.137221 146.001615 
L 366.87118 145.989431 
L 367.115833 146.097881 
L 367.360487 145.957752 
L 367.60514 146.260332 
L 367.849793 145.461431 
L 368.094446 145.734653 
L 368.339099 144.808253 
L 368.583752 145.440306 
L 368.828405 145.528381 
L 369.073058 145.952676 
L 369.807017 145.907427 
L 370.05167 146.179899 
L 370.296323 145.914176 
L 370.540976 146.421889 
L 370.785629 146.290439 
L 371.030282 146.529689 
L 371.274935 146.470136 
L 371.519588 146.738484 
L 371.764241 146.638759 
L 372.008894 146.846861 
L 372.253547 146.790423 
L 372.4982 147.105736 
L 372.742853 147.066139 
L 372.987506 147.254214 
L 373.232159 146.772471 
L 373.721465 147.283962 
L 373.966118 147.081972 
L 374.210771 147.122477 
L 374.700077 146.770899 
L 374.94473 146.707122 
L 375.189383 146.880517 
L 375.434036 146.883242 
L 375.678689 146.489415 
L 375.923342 146.737575 
L 376.167995 146.808505 
L 376.657301 146.619307 
L 377.146607 146.908981 
L 377.39126 146.893595 
L 377.635913 146.714706 
L 378.125219 146.914187 
L 378.369872 147.181814 
L 378.614525 147.171504 
L 379.348484 147.410752 
L 379.593137 147.377934 
L 380.082443 147.423283 
L 382.039667 147.598034 
L 382.28432 147.475886 
L 382.773626 147.814644 
L 383.262932 147.221568 
L 383.507585 147.189931 
L 383.507585 147.189931 
" style="fill:none;stroke:#1f77b4;stroke-linecap:square;stroke-width:1.5;"/>
   </g>
   <g id="line2d_30">
    <path clip-path="url(#p2356eb56e9)" d="M 58.85304 156.670125 
L 59.097693 152.782125 
L 59.342346 167.902125 
L 59.586999 171.358125 
L 59.831652 114.766125 
L 60.076305 156.238125 
L 60.320958 151.054125 
L 60.565611 152.350125 
L 60.810264 159.694125 
L 61.054917 163.150125 
L 61.29957 156.238125 
L 61.544223 161.854125 
L 61.788876 164.446125 
L 62.033529 158.830125 
L 62.278182 164.446125 
L 62.522835 151.486125 
L 62.767488 148.894125 
L 63.012141 161.854125 
L 63.501447 142.414125 
L 63.7461 162.718125 
L 63.990753 154.942125 
L 64.235406 164.446125 
L 64.480059 167.902125 
L 64.724712 154.078125 
L 64.969365 149.758125 
L 65.214018 163.582125 
L 65.458671 140.254125 
L 65.703324 224.926125 
L 65.947977 152.350125 
L 66.19263 171.358125 
L 66.437283 164.014125 
L 66.681936 143.278125 
L 66.926589 164.446125 
L 67.171242 165.742125 
L 67.415895 138.094125 
L 67.660548 147.166125 
L 67.905201 137.230125 
L 68.149854 154.078125 
L 68.394507 162.718125 
L 68.63916 166.606125 
L 68.883813 161.422125 
L 69.128466 160.990125 
L 69.373119 154.510125 
L 69.617772 125.566125 
L 70.107078 166.606125 
L 70.351731 148.894125 
L 70.596384 169.630125 
L 70.841037 170.062125 
L 71.330343 163.582125 
L 71.574996 159.262125 
L 71.819649 159.694125 
L 72.064302 158.830125 
L 72.308955 160.990125 
L 72.553608 146.734125 
L 73.042914 176.542125 
L 73.287567 159.262125 
L 73.53222 172.654125 
L 73.776873 165.310125 
L 74.021526 161.422125 
L 74.266179 153.214125 
L 74.510832 160.990125 
L 74.755485 148.030125 
L 75.000138 181.294125 
L 75.244792 153.214125 
L 75.489445 155.374125 
L 75.734098 169.198125 
L 75.978751 164.878125 
L 76.468057 161.422125 
L 76.71271 168.334125 
L 76.957363 184.750125 
L 77.446669 139.390125 
L 77.691322 147.166125 
L 77.935975 171.358125 
L 78.180628 164.446125 
L 78.425281 149.758125 
L 78.669934 163.582125 
L 78.914587 169.198125 
L 79.15924 141.982125 
L 79.403893 153.646125 
L 79.648546 154.078125 
L 79.893199 168.334125 
L 80.137852 155.374125 
L 80.382505 170.062125 
L 80.627158 157.534125 
L 80.871811 156.238125 
L 81.116464 143.278125 
L 81.361117 150.622125 
L 81.60577 162.718125 
L 81.850423 156.238125 
L 82.095076 161.422125 
L 82.339729 158.398125 
L 82.584382 165.742125 
L 82.829035 156.670125 
L 83.073688 153.214125 
L 83.318341 172.222125 
L 83.562994 162.718125 
L 83.807647 170.926125 
L 84.0523 160.126125 
L 84.296953 163.150125 
L 84.541606 150.622125 
L 84.786259 106.126125 
L 85.030912 160.126125 
L 85.275565 154.510125 
L 85.520218 162.286125 
L 85.764871 157.966125 
L 86.009524 142.846125 
L 86.743483 156.238125 
L 86.988136 148.894125 
L 87.232789 154.078125 
L 87.477442 148.894125 
L 87.722095 157.534125 
L 87.966748 181.294125 
L 88.211401 148.894125 
L 88.456054 157.102125 
L 88.700707 160.990125 
L 88.94536 157.534125 
L 89.190013 157.966125 
L 89.434666 163.150125 
L 89.679319 156.238125 
L 89.923972 140.254125 
L 90.168625 173.518125 
L 90.413278 155.806125 
L 90.657931 156.670125 
L 90.902584 157.102125 
L 91.147237 170.926125 
L 91.39189 159.262125 
L 91.636543 161.854125 
L 91.881196 155.806125 
L 92.125849 209.806125 
L 92.370502 152.350125 
L 92.615155 148.462125 
L 93.104461 167.470125 
L 93.349114 160.990125 
L 93.593767 170.926125 
L 93.83842 138.958125 
L 94.083073 132.046125 
L 94.327726 155.806125 
L 94.572379 151.486125 
L 94.817032 138.958125 
L 95.306338 158.398125 
L 95.550991 157.534125 
L 95.795644 157.534125 
L 96.040297 165.310125 
L 96.28495 168.334125 
L 96.529603 147.598125 
L 97.018909 163.582125 
L 97.263562 163.150125 
L 97.508215 157.534125 
L 97.752869 143.710125 
L 97.997522 164.446125 
L 98.242175 108.286125 
L 98.486828 152.350125 
L 98.731481 141.118125 
L 98.976134 156.238125 
L 99.220787 147.598125 
L 99.46544 155.806125 
L 99.710093 153.646125 
L 99.954746 180.862125 
L 100.199399 159.694125 
L 100.444052 169.198125 
L 100.688705 153.646125 
L 100.933358 159.694125 
L 101.178011 154.510125 
L 101.422664 154.078125 
L 101.667317 149.758125 
L 101.91197 174.382125 
L 102.156623 139.822125 
L 102.401276 193.822125 
L 102.890582 90.574125 
L 103.135235 165.310125 
L 103.379888 144.574125 
L 103.624541 176.110125 
L 103.869194 149.326125 
L 104.113847 164.446125 
L 104.3585 155.806125 
L 104.603153 166.174125 
L 104.847806 158.398125 
L 105.092459 160.558125 
L 105.337112 145.438125 
L 105.581765 183.886125 
L 105.826418 147.598125 
L 106.071071 179.998125 
L 106.315724 173.518125 
L 106.560377 156.670125 
L 107.049683 143.710125 
L 107.294336 145.006125 
L 107.538989 160.558125 
L 107.783642 157.102125 
L 108.028295 189.070125 
L 108.517601 125.566125 
L 108.762254 182.158125 
L 109.006907 170.926125 
L 109.25156 144.574125 
L 109.496213 202.030125 
L 109.740866 188.206125 
L 110.230172 147.598125 
L 110.474825 166.174125 
L 110.719478 163.150125 
L 110.964131 166.606125 
L 111.208784 134.206125 
L 111.453437 170.926125 
L 111.69809 149.326125 
L 111.942743 170.494125 
L 112.187396 139.822125 
L 112.432049 165.742125 
L 112.676702 135.934125 
L 112.921355 151.918125 
L 113.166008 200.734125 
L 113.410661 210.238125 
L 113.655314 137.230125 
L 113.899967 167.470125 
L 114.633926 145.870125 
L 114.878579 185.614125 
L 115.123232 136.366125 
L 115.367885 170.494125 
L 115.612538 167.470125 
L 115.857191 150.190125 
L 116.101844 160.126125 
L 116.346497 146.302125 
L 116.59115 154.078125 
L 116.835803 115.198125 
L 117.080456 150.190125 
L 117.325109 166.606125 
L 117.569762 172.654125 
L 117.814415 131.182125 
L 118.059068 155.374125 
L 118.303721 154.078125 
L 118.548374 158.398125 
L 118.793027 142.414125 
L 119.03768 170.926125 
L 119.282333 144.142125 
L 119.526986 139.822125 
L 120.016292 183.022125 
L 120.260946 149.326125 
L 120.505599 139.822125 
L 120.750252 148.894125 
L 120.994905 166.174125 
L 121.239558 154.942125 
L 121.484211 184.750125 
L 121.728864 96.622125 
L 121.973517 182.158125 
L 122.21817 170.926125 
L 122.462823 150.190125 
L 122.707476 179.566125 
L 122.952129 177.406125 
L 123.196782 167.902125 
L 123.441435 171.790125 
L 123.686088 154.942125 
L 123.930741 168.766125 
L 124.175394 133.774125 
L 124.420047 149.326125 
L 124.6647 185.182125 
L 124.909353 159.262125 
L 125.154006 165.310125 
L 125.398659 152.350125 
L 125.643312 160.126125 
L 125.887965 153.646125 
L 126.132618 154.942125 
L 126.377271 164.878125 
L 126.621924 150.190125 
L 126.866577 151.486125 
L 127.11123 161.854125 
L 127.355883 148.030125 
L 127.600536 159.694125 
L 127.845189 146.734125 
L 128.089842 145.438125 
L 128.334495 153.646125 
L 128.579148 126.430125 
L 128.823801 149.758125 
L 129.068454 186.478125 
L 129.313107 173.950125 
L 129.55776 154.510125 
L 129.802413 156.670125 
L 130.047066 164.446125 
L 130.291719 166.174125 
L 130.781025 183.454125 
L 131.025678 167.470125 
L 131.270331 163.582125 
L 131.514984 145.006125 
L 131.759637 163.150125 
L 132.00429 161.854125 
L 132.248943 162.286125 
L 132.493596 133.342125 
L 132.738249 173.950125 
L 132.982902 166.174125 
L 133.227555 164.014125 
L 133.472208 121.246125 
L 133.716861 121.678125 
L 133.961514 151.918125 
L 134.206167 157.102125 
L 134.45082 125.566125 
L 134.695473 165.310125 
L 134.940126 152.782125 
L 135.184779 148.894125 
L 135.429432 154.942125 
L 135.674085 144.574125 
L 135.918738 161.422125 
L 136.163391 167.038125 
L 136.652697 157.966125 
L 136.89735 166.174125 
L 137.142003 158.830125 
L 137.386656 217.150125 
L 137.631309 133.342125 
L 137.875962 172.222125 
L 138.120615 156.238125 
L 138.365268 120.814125 
L 138.609921 122.110125 
L 138.854574 163.582125 
L 139.099227 162.718125 
L 139.34388 169.198125 
L 139.588533 168.766125 
L 139.833186 143.278125 
L 140.322492 170.926125 
L 140.567145 146.734125 
L 140.811798 154.942125 
L 141.056451 178.270125 
L 141.301104 162.718125 
L 141.545757 138.958125 
L 141.79041 142.846125 
L 142.035063 153.214125 
L 142.279716 129.022125 
L 142.524369 176.110125 
L 142.769023 186.046125 
L 143.013676 157.966125 
L 143.258329 163.150125 
L 143.502982 164.446125 
L 143.992288 154.078125 
L 144.236941 129.454125 
L 144.481594 167.902125 
L 144.726247 148.462125 
L 144.9709 157.534125 
L 145.215553 157.966125 
L 145.460206 150.622125 
L 145.704859 158.830125 
L 145.949512 149.326125 
L 146.194165 151.486125 
L 146.438818 179.998125 
L 146.683471 161.422125 
L 146.928124 168.334125 
L 147.172777 146.734125 
L 147.41743 158.398125 
L 147.662083 135.502125 
L 147.906736 139.822125 
L 148.151389 184.750125 
L 148.396042 150.190125 
L 148.640695 145.870125 
L 148.885348 158.830125 
L 149.374654 193.390125 
L 149.619307 158.830125 
L 149.86396 158.830125 
L 150.108613 193.390125 
L 150.353266 160.558125 
L 150.597919 153.646125 
L 150.842572 190.798125 
L 151.087225 161.422125 
L 151.331878 166.174125 
L 151.576531 188.206125 
L 151.821184 161.854125 
L 152.065837 155.374125 
L 152.31049 132.478125 
L 152.555143 148.894125 
L 153.044449 151.918125 
L 153.289102 161.854125 
L 153.533755 124.270125 
L 153.778408 154.078125 
L 154.023061 155.806125 
L 154.267714 155.806125 
L 154.512367 149.326125 
L 154.75702 166.606125 
L 155.001673 154.510125 
L 155.246326 178.270125 
L 155.490979 160.126125 
L 155.735632 161.854125 
L 155.980285 151.054125 
L 156.224938 168.766125 
L 156.469591 136.798125 
L 156.714244 157.966125 
L 156.958897 135.070125 
L 157.448203 158.830125 
L 157.692856 163.582125 
L 157.937509 161.854125 
L 158.182162 174.814125 
L 158.426815 170.926125 
L 158.671468 158.830125 
L 158.916121 152.350125 
L 159.160774 169.630125 
L 159.405427 154.078125 
L 159.894733 171.358125 
L 160.139386 139.390125 
L 160.384039 164.014125 
L 160.873345 150.622125 
L 161.117998 152.350125 
L 161.362651 147.166125 
L 161.607304 154.510125 
L 161.851957 165.310125 
L 162.341263 172.222125 
L 162.585916 142.846125 
L 162.830569 143.710125 
L 163.075222 169.198125 
L 163.319875 176.110125 
L 163.564528 152.782125 
L 163.809181 167.038125 
L 164.053834 136.798125 
L 164.298487 164.014125 
L 164.54314 153.214125 
L 164.787793 148.030125 
L 165.032447 155.374125 
L 165.2771 150.622125 
L 165.521753 157.102125 
L 165.766406 132.910125 
L 166.011059 173.518125 
L 166.255712 156.670125 
L 166.500365 159.694125 
L 166.745018 165.310125 
L 166.989671 153.214125 
L 167.234324 175.678125 
L 167.478977 34.414125 
L 167.72363 172.222125 
L 167.968283 151.486125 
L 168.212936 174.814125 
L 168.457589 147.598125 
L 168.702242 169.630125 
L 168.946895 174.382125 
L 169.191548 147.166125 
L 169.436201 164.446125 
L 169.925507 149.758125 
L 170.17016 173.518125 
L 170.659466 150.622125 
L 170.904119 160.126125 
L 171.393425 152.782125 
L 171.638078 152.350125 
L 171.882731 152.350125 
L 172.127384 148.462125 
L 172.372037 155.806125 
L 172.61669 158.830125 
L 173.105996 172.654125 
L 173.350649 165.310125 
L 173.595302 171.358125 
L 173.839955 152.782125 
L 174.084608 167.470125 
L 174.329261 153.646125 
L 174.573914 150.622125 
L 174.818567 161.422125 
L 175.06322 159.262125 
L 175.307873 170.062125 
L 175.552526 162.718125 
L 175.797179 160.126125 
L 176.041832 136.366125 
L 176.286485 173.086125 
L 176.531138 145.438125 
L 176.775791 147.598125 
L 177.020444 157.102125 
L 177.265097 156.238125 
L 177.50975 159.694125 
L 177.754403 153.214125 
L 177.999056 161.854125 
L 178.243709 159.694125 
L 178.488362 140.254125 
L 178.733015 152.782125 
L 178.977668 178.702125 
L 179.222321 157.102125 
L 179.466974 165.310125 
L 179.711627 137.662125 
L 179.95628 167.902125 
L 180.200933 148.462125 
L 180.445586 168.334125 
L 180.690239 157.966125 
L 180.934892 164.446125 
L 181.179545 157.102125 
L 181.424198 167.902125 
L 181.668851 203.758125 
L 181.913504 199.870125 
L 182.158157 145.438125 
L 182.40281 153.646125 
L 182.647463 179.998125 
L 182.892116 171.790125 
L 183.136769 184.318125 
L 183.381422 141.118125 
L 183.626075 146.734125 
L 183.870728 162.718125 
L 184.115381 153.214125 
L 184.360034 163.150125 
L 184.84934 147.598125 
L 185.338646 157.534125 
L 185.583299 160.558125 
L 185.827952 172.222125 
L 186.072605 145.870125 
L 186.317258 162.286125 
L 186.561911 151.486125 
L 187.051217 163.150125 
L 187.29587 178.270125 
L 187.540524 155.374125 
L 187.785177 172.654125 
L 188.02983 150.622125 
L 188.274483 174.814125 
L 188.519136 149.758125 
L 188.763789 156.238125 
L 189.008442 151.918125 
L 189.253095 177.406125 
L 189.497748 154.078125 
L 189.742401 154.078125 
L 189.987054 164.014125 
L 190.231707 141.982125 
L 190.721013 186.478125 
L 190.965666 176.110125 
L 191.210319 131.182125 
L 191.454972 181.726125 
L 191.699625 171.358125 
L 191.944278 169.630125 
L 192.188931 155.806125 
L 192.433584 181.294125 
L 192.678237 154.942125 
L 192.92289 141.118125 
L 193.167543 151.486125 
L 193.412196 180.430125 
L 193.656849 138.526125 
L 193.901502 190.798125 
L 194.146155 165.742125 
L 194.390808 180.862125 
L 194.635461 166.606125 
L 194.880114 164.446125 
L 195.124767 183.454125 
L 195.36942 136.366125 
L 195.614073 145.006125 
L 195.858726 146.302125 
L 196.103379 130.318125 
L 196.348032 149.326125 
L 196.592685 147.598125 
L 196.837338 143.278125 
L 197.081991 134.638125 
L 197.326644 174.382125 
L 197.571297 148.894125 
L 197.81595 154.510125 
L 198.060603 152.350125 
L 198.305256 175.246125 
L 198.549909 67.246125 
L 198.794562 129.022125 
L 199.039215 162.286125 
L 199.283868 152.782125 
L 199.528521 164.446125 
L 200.017827 145.438125 
L 200.26248 161.854125 
L 200.507133 149.758125 
L 200.996439 141.550125 
L 201.241092 166.174125 
L 201.485745 155.806125 
L 201.730398 159.262125 
L 201.975051 168.766125 
L 202.219704 148.462125 
L 202.464357 150.190125 
L 202.70901 168.334125 
L 202.953663 162.718125 
L 203.198316 168.334125 
L 203.442969 170.062125 
L 203.687622 154.942125 
L 203.932275 170.062125 
L 204.176928 145.006125 
L 204.421581 178.270125 
L 204.666234 157.966125 
L 204.910887 197.710125 
L 205.15554 183.022125 
L 205.400193 186.910125 
L 205.889499 133.774125 
L 206.134152 127.726125 
L 206.378805 150.190125 
L 206.623458 155.374125 
L 206.868111 156.670125 
L 207.112764 153.214125 
L 207.357417 176.974125 
L 207.60207 172.654125 
L 207.846723 188.638125 
L 208.091376 138.958125 
L 208.336029 182.590125 
L 208.580682 169.630125 
L 208.825335 110.014125 
L 209.314641 174.814125 
L 209.559294 173.950125 
L 209.803947 169.630125 
L 210.048601 161.854125 
L 210.293254 159.262125 
L 210.537907 141.550125 
L 210.78256 155.374125 
L 211.027213 153.214125 
L 211.271866 139.822125 
L 211.516519 186.910125 
L 211.761172 174.382125 
L 212.005825 180.430125 
L 212.250478 176.974125 
L 212.495131 155.374125 
L 212.739784 180.430125 
L 212.984437 136.366125 
L 213.22909 145.870125 
L 213.473743 160.558125 
L 213.718396 148.462125 
L 213.963049 173.950125 
L 214.207702 167.470125 
L 214.452355 154.510125 
L 214.697008 118.654125 
L 215.186314 167.470125 
L 215.430967 142.846125 
L 215.67562 167.902125 
L 215.920273 156.670125 
L 216.164926 159.694125 
L 216.409579 157.966125 
L 216.654232 157.966125 
L 216.898885 173.950125 
L 217.143538 156.238125 
L 217.388191 149.326125 
L 217.877497 169.630125 
L 218.12215 167.470125 
L 218.366803 155.806125 
L 218.611456 214.558125 
L 218.856109 150.190125 
L 219.100762 198.574125 
L 219.590068 130.318125 
L 219.834721 179.998125 
L 220.079374 150.190125 
L 220.324027 173.950125 
L 220.56868 130.318125 
L 220.813333 174.382125 
L 221.302639 134.638125 
L 221.547292 171.358125 
L 221.791945 124.702125 
L 222.036598 189.934125 
L 222.281251 138.526125 
L 222.525904 117.790125 
L 222.770557 176.542125 
L 223.01521 149.758125 
L 223.259863 144.574125 
L 223.504516 142.846125 
L 223.749169 158.830125 
L 223.993822 141.982125 
L 224.238475 159.262125 
L 224.483128 157.966125 
L 224.727781 165.310125 
L 224.972434 149.326125 
L 225.217087 155.374125 
L 225.46174 169.198125 
L 225.706393 173.518125 
L 225.951046 157.966125 
L 226.195699 179.134125 
L 226.440352 145.438125 
L 226.685005 159.694125 
L 226.929658 158.398125 
L 227.174311 159.694125 
L 227.418964 158.830125 
L 227.663617 76.750125 
L 227.90827 173.086125 
L 228.152923 146.734125 
L 228.642229 171.790125 
L 229.131535 135.934125 
L 229.376188 138.958125 
L 229.620841 163.582125 
L 229.865494 159.694125 
L 230.110147 158.830125 
L 230.3548 126.862125 
L 230.599453 141.550125 
L 230.844106 178.270125 
L 231.088759 148.030125 
L 231.333412 141.118125 
L 231.578065 173.950125 
L 231.822718 164.878125 
L 232.067371 168.766125 
L 232.312024 150.190125 
L 232.556678 144.574125 
L 232.801331 110.446125 
L 233.045984 197.710125 
L 233.290637 154.078125 
L 233.53529 148.894125 
L 233.779943 185.182125 
L 234.024596 176.110125 
L 234.269249 157.534125 
L 234.513902 151.486125 
L 234.758555 152.350125 
L 235.003208 159.262125 
L 235.247861 154.078125 
L 235.492514 174.382125 
L 235.737167 131.614125 
L 235.98182 156.670125 
L 236.226473 156.238125 
L 236.471126 150.622125 
L 236.715779 158.398125 
L 236.960432 157.102125 
L 237.205085 159.262125 
L 237.449738 158.830125 
L 237.694391 157.534125 
L 237.939044 170.494125 
L 238.183697 145.870125 
L 238.42835 138.526125 
L 238.673003 161.422125 
L 238.917656 171.358125 
L 239.162309 136.366125 
L 239.406962 174.814125 
L 239.651615 165.742125 
L 239.896268 151.918125 
L 240.140921 150.622125 
L 240.385574 146.734125 
L 240.630227 182.158125 
L 240.87488 131.614125 
L 241.119533 162.286125 
L 241.364186 162.286125 
L 241.608839 147.598125 
L 241.853492 151.054125 
L 242.098145 164.446125 
L 242.342798 162.718125 
L 242.587451 158.830125 
L 242.832104 125.566125 
L 243.076757 145.870125 
L 243.32141 65.086125 
L 243.566063 164.878125 
L 243.810716 143.278125 
L 244.055369 154.078125 
L 244.300022 129.022125 
L 244.544675 136.366125 
L 244.789328 189.070125 
L 245.033981 145.870125 
L 245.278634 172.222125 
L 245.523287 140.254125 
L 245.76794 181.294125 
L 246.012593 138.526125 
L 246.257246 170.926125 
L 246.501899 160.990125 
L 246.746552 199.438125 
L 246.991205 211.102125 
L 247.235858 193.390125 
L 247.480511 212.398125 
L 247.725164 186.910125 
L 247.969817 120.382125 
L 248.21447 134.638125 
L 248.703776 177.838125 
L 248.948429 217.150125 
L 249.193082 104.398125 
L 249.437735 116.926125 
L 249.682388 187.774125 
L 249.927041 143.278125 
L 250.171694 199.438125 
L 250.416347 141.982125 
L 250.661 145.870125 
L 250.905653 176.110125 
L 251.150306 128.158125 
L 251.394959 156.670125 
L 251.639612 129.454125 
L 251.884265 196.414125 
L 252.128918 158.830125 
L 252.373571 195.982125 
L 252.618224 146.302125 
L 252.862877 165.310125 
L 253.10753 129.886125 
L 253.352183 216.286125 
L 253.596836 187.342125 
L 253.841489 113.038125 
L 254.086142 144.142125 
L 254.330795 100.510125 
L 254.575448 127.294125 
L 254.820101 175.678125 
L 255.309408 116.926125 
L 255.554061 171.790125 
L 255.798714 156.670125 
L 256.043367 167.902125 
L 256.28802 163.150125 
L 256.532673 148.462125 
L 256.777326 121.246125 
L 257.021979 134.206125 
L 257.266632 188.206125 
L 257.511285 171.358125 
L 257.755938 94.462125 
L 258.000591 176.542125 
L 258.245244 147.166125 
L 258.489897 167.470125 
L 258.73455 167.470125 
L 258.979203 164.014125 
L 259.223856 164.014125 
L 259.468509 146.734125 
L 259.713162 160.558125 
L 259.957815 181.294125 
L 260.202468 158.830125 
L 260.447121 202.030125 
L 260.936427 150.190125 
L 261.18108 164.014125 
L 261.425733 194.686125 
L 261.670386 174.814125 
L 261.915039 124.702125 
L 262.159692 169.198125 
L 262.404345 130.318125 
L 262.893651 186.046125 
L 263.138304 153.214125 
L 263.382957 163.150125 
L 263.62761 160.990125 
L 263.872263 137.662125 
L 264.116916 191.662125 
L 264.361569 130.318125 
L 264.850875 212.830125 
L 265.095528 77.182125 
L 265.340181 179.134125 
L 265.584834 160.126125 
L 265.829487 173.950125 
L 266.07414 144.574125 
L 266.318793 212.830125 
L 266.563446 133.342125 
L 267.052752 123.406125 
L 267.297405 179.566125 
L 267.542058 204.622125 
L 267.786711 109.582125 
L 268.031364 147.166125 
L 268.276017 121.246125 
L 268.52067 168.766125 
L 268.765323 170.926125 
L 269.009976 129.454125 
L 269.254629 169.198125 
L 269.743935 204.190125 
L 269.988588 143.278125 
L 270.233241 165.742125 
L 270.477894 262.510125 
L 270.9672 129.022125 
L 271.211853 139.822125 
L 271.456506 224.926125 
L 271.701159 125.566125 
L 271.945812 204.190125 
L 272.190465 109.150125 
L 272.435118 192.958125 
L 272.679771 173.518125 
L 272.924424 103.966125 
L 273.169077 219.310125 
L 273.41373 109.150125 
L 273.658383 168.766125 
L 273.903036 140.254125 
L 274.147689 91.870125 
L 274.392342 174.814125 
L 274.636995 192.526125 
L 274.881648 276.334125 
L 275.370954 172.654125 
L 275.615607 217.582125 
L 275.86026 128.158125 
L 276.104913 116.926125 
L 276.349566 173.518125 
L 276.838872 114.766125 
L 277.083525 129.022125 
L 277.572832 165.310125 
L 277.817485 163.582125 
L 278.306791 129.022125 
L 278.551444 123.406125 
L 278.796097 197.278125 
L 279.04075 158.398125 
L 279.285403 166.174125 
L 279.530056 124.270125 
L 279.774709 163.582125 
L 280.019362 130.318125 
L 280.264015 148.030125 
L 280.508668 176.110125 
L 280.753321 173.950125 
L 280.997974 134.206125 
L 281.242627 170.926125 
L 281.48728 129.022125 
L 281.976586 184.750125 
L 282.221239 155.374125 
L 282.465892 199.438125 
L 282.710545 160.558125 
L 282.955198 160.990125 
L 283.199851 192.526125 
L 283.444504 157.534125 
L 283.689157 177.406125 
L 283.93381 161.854125 
L 284.178463 130.318125 
L 284.423116 143.278125 
L 284.667769 173.518125 
L 284.912422 110.446125 
L 285.157075 159.694125 
L 285.401728 167.038125 
L 285.646381 122.110125 
L 285.891034 174.382125 
L 286.135687 124.270125 
L 286.38034 165.742125 
L 286.624993 148.462125 
L 286.869646 145.870125 
L 287.114299 182.158125 
L 287.358952 121.678125 
L 287.603605 148.894125 
L 287.848258 158.398125 
L 288.092911 162.718125 
L 288.337564 213.694125 
L 288.582217 146.302125 
L 288.82687 155.806125 
L 289.071523 148.462125 
L 289.316176 99.214125 
L 289.560829 180.430125 
L 289.805482 176.974125 
L 290.050135 100.510125 
L 290.294788 186.478125 
L 290.539441 158.830125 
L 290.784094 148.030125 
L 291.028747 158.398125 
L 291.518053 125.998125 
L 291.762706 186.478125 
L 292.007359 139.390125 
L 292.252012 179.998125 
L 292.496665 151.918125 
L 292.741318 213.694125 
L 292.985971 159.262125 
L 293.230624 157.534125 
L 293.475277 154.942125 
L 293.71993 166.174125 
L 293.964583 117.358125 
L 294.209236 155.806125 
L 294.453889 153.214125 
L 294.698542 140.254125 
L 294.943195 171.358125 
L 295.187848 144.142125 
L 295.677154 151.486125 
L 295.921807 164.014125 
L 296.16646 149.758125 
L 296.411113 170.926125 
L 296.655766 151.486125 
L 296.900419 167.470125 
L 297.145072 195.550125 
L 297.389725 165.310125 
L 297.634378 167.038125 
L 297.879031 141.550125 
L 298.123684 167.038125 
L 298.368337 150.622125 
L 298.61299 148.030125 
L 298.857643 171.790125 
L 299.102296 129.886125 
L 299.346949 270.286125 
L 299.836256 138.526125 
L 300.080909 110.446125 
L 300.325562 49.102125 
L 300.570215 176.110125 
L 300.814868 167.902125 
L 301.059521 145.870125 
L 301.304174 160.126125 
L 301.548827 118.654125 
L 301.79348 169.630125 
L 302.038133 164.014125 
L 302.282786 164.446125 
L 302.527439 155.374125 
L 302.772092 171.358125 
L 303.016745 157.534125 
L 303.261398 151.918125 
L 303.506051 176.542125 
L 303.750704 158.398125 
L 303.995357 160.990125 
L 304.24001 131.614125 
L 304.729316 215.422125 
L 304.973969 148.462125 
L 305.463275 180.430125 
L 305.707928 178.270125 
L 305.952581 155.806125 
L 306.197234 184.750125 
L 306.441887 125.566125 
L 306.68654 152.350125 
L 306.931193 154.510125 
L 307.175846 160.990125 
L 307.420499 173.086125 
L 307.665152 157.534125 
L 307.909805 167.902125 
L 308.154458 170.062125 
L 308.399111 145.438125 
L 308.643764 149.326125 
L 308.888417 166.606125 
L 309.13307 152.350125 
L 309.377723 158.398125 
L 309.622376 167.902125 
L 309.867029 155.374125 
L 310.111682 159.694125 
L 310.356335 159.694125 
L 310.600988 85.390125 
L 311.090294 205.054125 
L 311.334947 148.462125 
L 311.5796 148.894125 
L 311.824253 194.254125 
L 312.068906 157.102125 
L 312.313559 225.790125 
L 312.558212 95.758125 
L 312.802865 195.982125 
L 313.292171 138.094125 
L 313.536824 163.582125 
L 313.781477 160.558125 
L 314.02613 160.126125 
L 314.270783 154.942125 
L 314.515436 139.822125 
L 314.760089 167.902125 
L 315.004742 177.838125 
L 315.249395 139.822125 
L 315.494048 148.462125 
L 315.738701 170.062125 
L 315.983354 125.998125 
L 316.47266 185.614125 
L 316.717313 164.446125 
L 316.961966 159.694125 
L 317.206619 172.654125 
L 317.451272 143.710125 
L 317.695925 189.502125 
L 317.940578 155.374125 
L 318.185231 182.158125 
L 318.429884 151.054125 
L 318.674537 161.422125 
L 318.91919 153.214125 
L 319.163843 158.398125 
L 319.408496 160.558125 
L 319.653149 153.646125 
L 319.897802 141.550125 
L 320.142455 152.350125 
L 320.387108 91.438125 
L 320.631761 176.974125 
L 320.876414 102.670125 
L 321.121067 170.062125 
L 321.36572 182.158125 
L 321.610373 176.542125 
L 321.855026 188.206125 
L 322.099679 189.070125 
L 322.344333 89.278125 
L 322.588986 81.502125 
L 322.833639 245.230125 
L 323.078292 249.118125 
L 323.567598 148.894125 
L 323.812251 117.790125 
L 324.056904 151.054125 
L 324.301557 139.822125 
L 324.54621 161.854125 
L 324.790863 156.238125 
L 325.035516 140.686125 
L 325.280169 197.710125 
L 325.524822 125.134125 
L 325.769475 174.382125 
L 326.014128 161.422125 
L 326.258781 228.814125 
L 326.748087 144.574125 
L 326.99274 164.878125 
L 327.237393 175.246125 
L 327.482046 103.102125 
L 327.726699 185.182125 
L 327.971352 132.046125 
L 328.216005 128.158125 
L 328.460658 140.686125 
L 328.705311 169.630125 
L 328.949964 77.614125 
L 329.194617 173.518125 
L 329.43927 149.326125 
L 329.683923 170.494125 
L 329.928576 135.070125 
L 330.173229 154.078125 
L 330.417882 157.534125 
L 330.662535 157.534125 
L 330.907188 172.654125 
L 331.151841 153.646125 
L 331.396494 180.862125 
L 331.641147 136.366125 
L 331.8858 160.990125 
L 332.130453 150.190125 
L 332.375106 156.238125 
L 332.619759 174.814125 
L 332.864412 181.294125 
L 333.109065 119.950125 
L 333.353718 166.606125 
L 333.598371 171.358125 
L 333.843024 145.870125 
L 334.087677 153.214125 
L 334.33233 177.838125 
L 334.576983 132.478125 
L 334.821636 173.518125 
L 335.066289 155.806125 
L 335.310942 151.918125 
L 335.555595 179.566125 
L 335.800248 176.542125 
L 336.044901 148.894125 
L 336.534207 175.678125 
L 336.77886 153.646125 
L 337.023513 143.710125 
L 337.268166 173.950125 
L 337.512819 162.286125 
L 337.757472 135.502125 
L 338.002125 148.894125 
L 338.246778 146.302125 
L 338.491431 157.102125 
L 338.736084 160.558125 
L 338.980737 142.414125 
L 339.22539 252.574125 
L 339.470043 189.070125 
L 339.714696 52.126125 
L 339.959349 172.654125 
L 340.204002 148.462125 
L 340.448655 137.662125 
L 340.693308 228.382125 
L 340.937961 152.350125 
L 341.182614 153.646125 
L 341.427267 170.062125 
L 341.67192 160.990125 
L 341.916573 162.286125 
L 342.161226 176.974125 
L 342.405879 162.718125 
L 342.650532 130.318125 
L 342.895185 156.670125 
L 343.139838 143.278125 
L 343.384491 173.950125 
L 343.629144 129.022125 
L 344.363103 172.222125 
L 344.607756 173.518125 
L 344.85241 163.150125 
L 345.097063 157.966125 
L 345.341716 168.334125 
L 345.586369 170.494125 
L 345.831022 151.486125 
L 346.075675 156.670125 
L 346.320328 179.134125 
L 347.29894 135.070125 
L 347.543593 154.510125 
L 347.788246 155.806125 
L 348.032899 149.326125 
L 348.277552 173.518125 
L 348.522205 144.574125 
L 348.766858 173.950125 
L 349.256164 132.910125 
L 349.500817 164.014125 
L 349.74547 143.278125 
L 349.990123 160.558125 
L 350.234776 139.390125 
L 350.479429 153.646125 
L 350.724082 175.678125 
L 351.213388 157.534125 
L 351.458041 200.734125 
L 351.702694 172.654125 
L 351.947347 103.102125 
L 352.192 157.966125 
L 352.436653 168.334125 
L 352.681306 169.198125 
L 352.925959 171.358125 
L 353.170612 160.990125 
L 353.415265 141.118125 
L 353.659918 149.758125 
L 353.904571 118.222125 
L 354.149224 171.790125 
L 354.393877 186.910125 
L 354.883183 127.294125 
L 355.372489 161.422125 
L 355.617142 156.238125 
L 355.861795 140.686125 
L 356.106448 162.718125 
L 356.351101 162.286125 
L 356.595754 148.894125 
L 356.840407 143.278125 
L 357.08506 148.462125 
L 357.329713 167.038125 
L 357.574366 167.038125 
L 357.819019 160.990125 
L 358.308325 192.094125 
L 358.797631 147.166125 
L 359.042284 154.942125 
L 359.286937 152.350125 
L 359.53159 188.638125 
L 359.776243 146.302125 
L 360.020896 178.270125 
L 360.265549 160.990125 
L 360.510202 164.446125 
L 360.754855 156.670125 
L 360.999508 158.830125 
L 361.244161 199.006125 
L 361.488814 155.806125 
L 361.733467 198.574125 
L 361.97812 155.806125 
L 362.222773 158.398125 
L 362.467426 162.286125 
L 362.712079 161.422125 
L 362.956732 151.918125 
L 363.201385 166.174125 
L 363.446038 161.422125 
L 363.690691 148.030125 
L 363.935344 156.670125 
L 364.179997 144.574125 
L 364.42465 155.806125 
L 364.669303 154.078125 
L 364.913956 144.142125 
L 365.158609 173.086125 
L 365.403262 149.326125 
L 365.647915 170.926125 
L 365.892568 137.662125 
L 366.137221 159.694125 
L 366.381874 157.966125 
L 366.626527 172.222125 
L 366.87118 154.942125 
L 367.115833 176.110125 
L 367.360487 138.094125 
L 367.60514 188.638125 
L 368.094446 136.798125 
L 368.339099 173.950125 
L 368.583752 166.174125 
L 368.828405 167.470125 
L 369.073058 145.006125 
L 369.317711 154.078125 
L 369.562364 151.918125 
L 369.807017 144.574125 
L 370.05167 192.526125 
L 370.296323 179.134125 
L 370.540976 151.486125 
L 370.785629 144.574125 
L 371.274935 211.534125 
L 371.519588 176.110125 
L 371.764241 166.606125 
L 372.008894 133.342125 
L 372.4982 200.734125 
L 372.742853 149.326125 
L 372.987506 165.310125 
L 373.232159 164.878125 
L 373.476812 142.846125 
L 373.721465 173.086125 
L 373.966118 134.638125 
L 374.210771 167.902125 
L 374.455424 152.782125 
L 374.700077 177.838125 
L 374.94473 151.054125 
L 375.189383 165.310125 
L 375.434036 164.446125 
L 375.923342 168.334125 
L 376.167995 164.878125 
L 376.412648 139.390125 
L 376.901954 161.422125 
L 377.146607 160.990125 
L 377.39126 152.782125 
L 377.635913 139.822125 
L 377.880566 165.742125 
L 378.125219 155.374125 
L 378.369872 155.374125 
L 378.614525 157.534125 
L 378.859178 172.654125 
L 379.103831 131.182125 
L 379.348484 147.598125 
L 379.83779 164.446125 
L 380.082443 164.446125 
L 380.327096 176.974125 
L 380.571749 172.654125 
L 380.816402 162.286125 
L 381.061055 146.302125 
L 381.305708 157.966125 
L 381.550361 156.670125 
L 381.795014 159.262125 
L 382.039667 166.174125 
L 382.28432 168.766125 
L 382.528973 218.446125 
L 382.773626 66.814125 
L 383.018279 165.742125 
L 383.262932 163.582125 
L 383.507585 167.038125 
L 383.507585 167.038125 
" style="fill:none;stroke:#ff7f0e;stroke-linecap:square;stroke-width:1.5;"/>
   </g>
   <g id="patch_3">
    <path d="M 42.620313 288.430125 
L 42.620313 22.318125 
" style="fill:none;stroke:#000000;stroke-linecap:square;stroke-linejoin:miter;stroke-width:0.8;"/>
   </g>
   <g id="patch_4">
    <path d="M 399.740313 288.430125 
L 399.740313 22.318125 
" style="fill:none;stroke:#000000;stroke-linecap:square;stroke-linejoin:miter;stroke-width:0.8;"/>
   </g>
   <g id="patch_5">
    <path d="M 42.620313 288.430125 
L 399.740313 288.430125 
" style="fill:none;stroke:#000000;stroke-linecap:square;stroke-linejoin:miter;stroke-width:0.8;"/>
   </g>
   <g id="patch_6">
    <path d="M 42.620313 22.318125 
L 399.740313 22.318125 
" style="fill:none;stroke:#000000;stroke-linecap:square;stroke-linejoin:miter;stroke-width:0.8;"/>
   </g>
   <g id="text_17">
    <!-- Training: MDLZ -->
    <defs>
     <path d="M -0.296875 72.90625 
L 61.375 72.90625 
L 61.375 64.59375 
L 35.5 64.59375 
L 35.5 0 
L 25.59375 0 
L 25.59375 64.59375 
L -0.296875 64.59375 
z
" id="DejaVuSans-84"/>
     <path d="M 41.109375 46.296875 
Q 39.59375 47.171875 37.8125 47.578125 
Q 36.03125 48 33.890625 48 
Q 26.265625 48 22.1875 43.046875 
Q 18.109375 38.09375 18.109375 28.8125 
L 18.109375 0 
L 9.078125 0 
L 9.078125 54.6875 
L 18.109375 54.6875 
L 18.109375 46.1875 
Q 20.953125 51.171875 25.484375 53.578125 
Q 30.03125 56 36.53125 56 
Q 37.453125 56 38.578125 55.875 
Q 39.703125 55.765625 41.0625 55.515625 
z
" id="DejaVuSans-114"/>
     <path d="M 9.421875 54.6875 
L 18.40625 54.6875 
L 18.40625 0 
L 9.421875 0 
z
M 9.421875 75.984375 
L 18.40625 75.984375 
L 18.40625 64.59375 
L 9.421875 64.59375 
z
" id="DejaVuSans-105"/>
     <path d="M 11.71875 12.40625 
L 22.015625 12.40625 
L 22.015625 0 
L 11.71875 0 
z
M 11.71875 51.703125 
L 22.015625 51.703125 
L 22.015625 39.3125 
L 11.71875 39.3125 
z
" id="DejaVuSans-58"/>
     <path d="M 9.8125 72.90625 
L 24.515625 72.90625 
L 43.109375 23.296875 
L 61.8125 72.90625 
L 76.515625 72.90625 
L 76.515625 0 
L 66.890625 0 
L 66.890625 64.015625 
L 48.09375 14.015625 
L 38.1875 14.015625 
L 19.390625 64.015625 
L 19.390625 0 
L 9.8125 0 
z
" id="DejaVuSans-77"/>
     <path d="M 9.8125 72.90625 
L 19.671875 72.90625 
L 19.671875 8.296875 
L 55.171875 8.296875 
L 55.171875 0 
L 9.8125 0 
z
" id="DejaVuSans-76"/>
     <path d="M 5.609375 72.90625 
L 62.890625 72.90625 
L 62.890625 65.375 
L 16.796875 8.296875 
L 64.015625 8.296875 
L 64.015625 0 
L 4.5 0 
L 4.5 7.515625 
L 50.59375 64.59375 
L 5.609375 64.59375 
z
" id="DejaVuSans-90"/>
    </defs>
    <g transform="translate(176.33125 16.318125)scale(0.12 -0.12)">
     <use xlink:href="#DejaVuSans-84"/>
     <use x="46.333984" xlink:href="#DejaVuSans-114"/>
     <use x="87.447266" xlink:href="#DejaVuSans-97"/>
     <use x="148.726562" xlink:href="#DejaVuSans-105"/>
     <use x="176.509766" xlink:href="#DejaVuSans-110"/>
     <use x="239.888672" xlink:href="#DejaVuSans-105"/>
     <use x="267.671875" xlink:href="#DejaVuSans-110"/>
     <use x="331.050781" xlink:href="#DejaVuSans-103"/>
     <use x="394.527344" xlink:href="#DejaVuSans-58"/>
     <use x="428.21875" xlink:href="#DejaVuSans-32"/>
     <use x="460.005859" xlink:href="#DejaVuSans-77"/>
     <use x="546.285156" xlink:href="#DejaVuSans-68"/>
     <use x="623.287109" xlink:href="#DejaVuSans-76"/>
     <use x="679" xlink:href="#DejaVuSans-90"/>
    </g>
   </g>
   <g id="legend_1">
    <g id="patch_7">
     <path d="M 49.620313 59.674375 
L 133.348438 59.674375 
Q 135.348438 59.674375 135.348438 57.674375 
L 135.348438 29.318125 
Q 135.348438 27.318125 133.348438 27.318125 
L 49.620313 27.318125 
Q 47.620313 27.318125 47.620313 29.318125 
L 47.620313 57.674375 
Q 47.620313 59.674375 49.620313 59.674375 
z
" style="fill:#ffffff;opacity:0.8;stroke:#cccccc;stroke-linejoin:miter;"/>
    </g>
    <g id="line2d_31">
     <path d="M 51.620313 35.416562 
L 71.620313 35.416562 
" style="fill:none;stroke:#1f77b4;stroke-linecap:square;stroke-width:1.5;"/>
    </g>
    <g id="line2d_32"/>
    <g id="text_18">
     <!-- Predicted -->
     <defs>
      <path d="M 19.671875 64.796875 
L 19.671875 37.40625 
L 32.078125 37.40625 
Q 38.96875 37.40625 42.71875 40.96875 
Q 46.484375 44.53125 46.484375 51.125 
Q 46.484375 57.671875 42.71875 61.234375 
Q 38.96875 64.796875 32.078125 64.796875 
z
M 9.8125 72.90625 
L 32.078125 72.90625 
Q 44.34375 72.90625 50.609375 67.359375 
Q 56.890625 61.8125 56.890625 51.125 
Q 56.890625 40.328125 50.609375 34.8125 
Q 44.34375 29.296875 32.078125 29.296875 
L 19.671875 29.296875 
L 19.671875 0 
L 9.8125 0 
z
" id="DejaVuSans-80"/>
      <path d="M 45.40625 46.390625 
L 45.40625 75.984375 
L 54.390625 75.984375 
L 54.390625 0 
L 45.40625 0 
L 45.40625 8.203125 
Q 42.578125 3.328125 38.25 0.953125 
Q 33.9375 -1.421875 27.875 -1.421875 
Q 17.96875 -1.421875 11.734375 6.484375 
Q 5.515625 14.40625 5.515625 27.296875 
Q 5.515625 40.1875 11.734375 48.09375 
Q 17.96875 56 27.875 56 
Q 33.9375 56 38.25 53.625 
Q 42.578125 51.265625 45.40625 46.390625 
z
M 14.796875 27.296875 
Q 14.796875 17.390625 18.875 11.75 
Q 22.953125 6.109375 30.078125 6.109375 
Q 37.203125 6.109375 41.296875 11.75 
Q 45.40625 17.390625 45.40625 27.296875 
Q 45.40625 37.203125 41.296875 42.84375 
Q 37.203125 48.484375 30.078125 48.484375 
Q 22.953125 48.484375 18.875 42.84375 
Q 14.796875 37.203125 14.796875 27.296875 
z
" id="DejaVuSans-100"/>
      <path d="M 48.78125 52.59375 
L 48.78125 44.1875 
Q 44.96875 46.296875 41.140625 47.34375 
Q 37.3125 48.390625 33.40625 48.390625 
Q 24.65625 48.390625 19.8125 42.84375 
Q 14.984375 37.3125 14.984375 27.296875 
Q 14.984375 17.28125 19.8125 11.734375 
Q 24.65625 6.203125 33.40625 6.203125 
Q 37.3125 6.203125 41.140625 7.25 
Q 44.96875 8.296875 48.78125 10.40625 
L 48.78125 2.09375 
Q 45.015625 0.34375 40.984375 -0.53125 
Q 36.96875 -1.421875 32.421875 -1.421875 
Q 20.0625 -1.421875 12.78125 6.34375 
Q 5.515625 14.109375 5.515625 27.296875 
Q 5.515625 40.671875 12.859375 48.328125 
Q 20.21875 56 33.015625 56 
Q 37.15625 56 41.109375 55.140625 
Q 45.0625 54.296875 48.78125 52.59375 
z
" id="DejaVuSans-99"/>
      <path d="M 18.3125 70.21875 
L 18.3125 54.6875 
L 36.8125 54.6875 
L 36.8125 47.703125 
L 18.3125 47.703125 
L 18.3125 18.015625 
Q 18.3125 11.328125 20.140625 9.421875 
Q 21.96875 7.515625 27.59375 7.515625 
L 36.8125 7.515625 
L 36.8125 0 
L 27.59375 0 
Q 17.1875 0 13.234375 3.875 
Q 9.28125 7.765625 9.28125 18.015625 
L 9.28125 47.703125 
L 2.6875 47.703125 
L 2.6875 54.6875 
L 9.28125 54.6875 
L 9.28125 70.21875 
z
" id="DejaVuSans-116"/>
     </defs>
     <g transform="translate(79.620313 38.916562)scale(0.1 -0.1)">
      <use xlink:href="#DejaVuSans-80"/>
      <use x="58.552734" xlink:href="#DejaVuSans-114"/>
      <use x="97.416016" xlink:href="#DejaVuSans-101"/>
      <use x="158.939453" xlink:href="#DejaVuSans-100"/>
      <use x="222.416016" xlink:href="#DejaVuSans-105"/>
      <use x="250.199219" xlink:href="#DejaVuSans-99"/>
      <use x="305.179688" xlink:href="#DejaVuSans-116"/>
      <use x="344.388672" xlink:href="#DejaVuSans-101"/>
      <use x="405.912109" xlink:href="#DejaVuSans-100"/>
     </g>
    </g>
    <g id="line2d_33">
     <path d="M 51.620313 50.094687 
L 71.620313 50.094687 
" style="fill:none;stroke:#ff7f0e;stroke-linecap:square;stroke-width:1.5;"/>
    </g>
    <g id="line2d_34"/>
    <g id="text_19">
     <!-- True value -->
     <defs>
      <path d="M 8.5 21.578125 
L 8.5 54.6875 
L 17.484375 54.6875 
L 17.484375 21.921875 
Q 17.484375 14.15625 20.5 10.265625 
Q 23.53125 6.390625 29.59375 6.390625 
Q 36.859375 6.390625 41.078125 11.03125 
Q 45.3125 15.671875 45.3125 23.6875 
L 45.3125 54.6875 
L 54.296875 54.6875 
L 54.296875 0 
L 45.3125 0 
L 45.3125 8.40625 
Q 42.046875 3.421875 37.71875 1 
Q 33.40625 -1.421875 27.6875 -1.421875 
Q 18.265625 -1.421875 13.375 4.4375 
Q 8.5 10.296875 8.5 21.578125 
z
M 31.109375 56 
z
" id="DejaVuSans-117"/>
      <path d="M 2.984375 54.6875 
L 12.5 54.6875 
L 29.59375 8.796875 
L 46.6875 54.6875 
L 56.203125 54.6875 
L 35.6875 0 
L 23.484375 0 
z
" id="DejaVuSans-118"/>
      <path d="M 9.421875 75.984375 
L 18.40625 75.984375 
L 18.40625 0 
L 9.421875 0 
z
" id="DejaVuSans-108"/>
     </defs>
     <g transform="translate(79.620313 53.594687)scale(0.1 -0.1)">
      <use xlink:href="#DejaVuSans-84"/>
      <use x="46.333984" xlink:href="#DejaVuSans-114"/>
      <use x="87.447266" xlink:href="#DejaVuSans-117"/>
      <use x="150.826172" xlink:href="#DejaVuSans-101"/>
      <use x="212.349609" xlink:href="#DejaVuSans-32"/>
      <use x="244.136719" xlink:href="#DejaVuSans-118"/>
      <use x="303.316406" xlink:href="#DejaVuSans-97"/>
      <use x="364.595703" xlink:href="#DejaVuSans-108"/>
      <use x="392.378906" xlink:href="#DejaVuSans-117"/>
      <use x="455.757812" xlink:href="#DejaVuSans-101"/>
     </g>
    </g>
   </g>
  </g>
 </g>
 <defs>
  <clipPath id="p2356eb56e9">
   <rect height="266.112" width="357.12" x="42.620313" y="22.318125"/>
  </clipPath>
 </defs>
</svg>
