<?xml version="1.0" encoding="utf-8" standalone="no"?>
<!DOCTYPE svg PUBLIC "-//W3C//DTD SVG 1.1//EN"
  "http://www.w3.org/Graphics/SVG/1.1/DTD/svg11.dtd">
<!-- Created with matplotlib (https://matplotlib.org/) -->
<svg height="325.986375pt" version="1.1" viewBox="0 0 411.285625 325.986375" width="411.285625pt" xmlns="http://www.w3.org/2000/svg" xmlns:xlink="http://www.w3.org/1999/xlink">
 <defs>
  <style type="text/css">
*{stroke-linecap:butt;stroke-linejoin:round;}
  </style>
 </defs>
 <g id="figure_1">
  <g id="patch_1">
   <path d="M 0 325.986375 
L 411.285625 325.986375 
L 411.285625 0 
L 0 0 
z
" style="fill:#ffffff;"/>
  </g>
  <g id="axes_1">
   <g id="patch_2">
    <path d="M 46.965625 288.430125 
L 404.085625 288.430125 
L 404.085625 22.318125 
L 46.965625 22.318125 
z
" style="fill:#ffffff;"/>
   </g>
   <g id="matplotlib.axis_1">
    <g id="xtick_1">
     <g id="line2d_1">
      <path clip-path="url(#p7bbec4d192)" d="M 63.198352 288.430125 
L 63.198352 22.318125 
" style="fill:none;stroke:#b0b0b0;stroke-dasharray:2.96,1.28;stroke-dashoffset:0;stroke-width:0.8;"/>
     </g>
     <g id="line2d_2">
      <defs>
       <path d="M 0 0 
L 0 3.5 
" id="mcaa8cd2993" style="stroke:#000000;stroke-width:0.8;"/>
      </defs>
      <g>
       <use style="stroke:#000000;stroke-width:0.8;" x="63.198352" xlink:href="#mcaa8cd2993" y="288.430125"/>
      </g>
     </g>
     <g id="text_1">
      <!-- 0 -->
      <defs>
       <path d="M 31.78125 66.40625 
Q 24.171875 66.40625 20.328125 58.90625 
Q 16.5 51.421875 16.5 36.375 
Q 16.5 21.390625 20.328125 13.890625 
Q 24.171875 6.390625 31.78125 6.390625 
Q 39.453125 6.390625 43.28125 13.890625 
Q 47.125 21.390625 47.125 36.375 
Q 47.125 51.421875 43.28125 58.90625 
Q 39.453125 66.40625 31.78125 66.40625 
z
M 31.78125 74.21875 
Q 44.046875 74.21875 50.515625 64.515625 
Q 56.984375 54.828125 56.984375 36.375 
Q 56.984375 17.96875 50.515625 8.265625 
Q 44.046875 -1.421875 31.78125 -1.421875 
Q 19.53125 -1.421875 13.0625 8.265625 
Q 6.59375 17.96875 6.59375 36.375 
Q 6.59375 54.828125 13.0625 64.515625 
Q 19.53125 74.21875 31.78125 74.21875 
z
" id="DejaVuSans-48"/>
      </defs>
      <g transform="translate(60.017102 303.028562)scale(0.1 -0.1)">
       <use xlink:href="#DejaVuSans-48"/>
      </g>
     </g>
    </g>
    <g id="xtick_2">
     <g id="line2d_3">
      <path clip-path="url(#p7bbec4d192)" d="M 112.128954 288.430125 
L 112.128954 22.318125 
" style="fill:none;stroke:#b0b0b0;stroke-dasharray:2.96,1.28;stroke-dashoffset:0;stroke-width:0.8;"/>
     </g>
     <g id="line2d_4">
      <g>
       <use style="stroke:#000000;stroke-width:0.8;" x="112.128954" xlink:href="#mcaa8cd2993" y="288.430125"/>
      </g>
     </g>
     <g id="text_2">
      <!-- 200 -->
      <defs>
       <path d="M 19.1875 8.296875 
L 53.609375 8.296875 
L 53.609375 0 
L 7.328125 0 
L 7.328125 8.296875 
Q 12.9375 14.109375 22.625 23.890625 
Q 32.328125 33.6875 34.8125 36.53125 
Q 39.546875 41.84375 41.421875 45.53125 
Q 43.3125 49.21875 43.3125 52.78125 
Q 43.3125 58.59375 39.234375 62.25 
Q 35.15625 65.921875 28.609375 65.921875 
Q 23.96875 65.921875 18.8125 64.3125 
Q 13.671875 62.703125 7.8125 59.421875 
L 7.8125 69.390625 
Q 13.765625 71.78125 18.9375 73 
Q 24.125 74.21875 28.421875 74.21875 
Q 39.75 74.21875 46.484375 68.546875 
Q 53.21875 62.890625 53.21875 53.421875 
Q 53.21875 48.921875 51.53125 44.890625 
Q 49.859375 40.875 45.40625 35.40625 
Q 44.1875 33.984375 37.640625 27.21875 
Q 31.109375 20.453125 19.1875 8.296875 
z
" id="DejaVuSans-50"/>
      </defs>
      <g transform="translate(102.585204 303.028562)scale(0.1 -0.1)">
       <use xlink:href="#DejaVuSans-50"/>
       <use x="63.623047" xlink:href="#DejaVuSans-48"/>
       <use x="127.246094" xlink:href="#DejaVuSans-48"/>
      </g>
     </g>
    </g>
    <g id="xtick_3">
     <g id="line2d_5">
      <path clip-path="url(#p7bbec4d192)" d="M 161.059557 288.430125 
L 161.059557 22.318125 
" style="fill:none;stroke:#b0b0b0;stroke-dasharray:2.96,1.28;stroke-dashoffset:0;stroke-width:0.8;"/>
     </g>
     <g id="line2d_6">
      <g>
       <use style="stroke:#000000;stroke-width:0.8;" x="161.059557" xlink:href="#mcaa8cd2993" y="288.430125"/>
      </g>
     </g>
     <g id="text_3">
      <!-- 400 -->
      <defs>
       <path d="M 37.796875 64.3125 
L 12.890625 25.390625 
L 37.796875 25.390625 
z
M 35.203125 72.90625 
L 47.609375 72.90625 
L 47.609375 25.390625 
L 58.015625 25.390625 
L 58.015625 17.1875 
L 47.609375 17.1875 
L 47.609375 0 
L 37.796875 0 
L 37.796875 17.1875 
L 4.890625 17.1875 
L 4.890625 26.703125 
z
" id="DejaVuSans-52"/>
      </defs>
      <g transform="translate(151.515807 303.028562)scale(0.1 -0.1)">
       <use xlink:href="#DejaVuSans-52"/>
       <use x="63.623047" xlink:href="#DejaVuSans-48"/>
       <use x="127.246094" xlink:href="#DejaVuSans-48"/>
      </g>
     </g>
    </g>
    <g id="xtick_4">
     <g id="line2d_7">
      <path clip-path="url(#p7bbec4d192)" d="M 209.990159 288.430125 
L 209.990159 22.318125 
" style="fill:none;stroke:#b0b0b0;stroke-dasharray:2.96,1.28;stroke-dashoffset:0;stroke-width:0.8;"/>
     </g>
     <g id="line2d_8">
      <g>
       <use style="stroke:#000000;stroke-width:0.8;" x="209.990159" xlink:href="#mcaa8cd2993" y="288.430125"/>
      </g>
     </g>
     <g id="text_4">
      <!-- 600 -->
      <defs>
       <path d="M 33.015625 40.375 
Q 26.375 40.375 22.484375 35.828125 
Q 18.609375 31.296875 18.609375 23.390625 
Q 18.609375 15.53125 22.484375 10.953125 
Q 26.375 6.390625 33.015625 6.390625 
Q 39.65625 6.390625 43.53125 10.953125 
Q 47.40625 15.53125 47.40625 23.390625 
Q 47.40625 31.296875 43.53125 35.828125 
Q 39.65625 40.375 33.015625 40.375 
z
M 52.59375 71.296875 
L 52.59375 62.3125 
Q 48.875 64.0625 45.09375 64.984375 
Q 41.3125 65.921875 37.59375 65.921875 
Q 27.828125 65.921875 22.671875 59.328125 
Q 17.53125 52.734375 16.796875 39.40625 
Q 19.671875 43.65625 24.015625 45.921875 
Q 28.375 48.1875 33.59375 48.1875 
Q 44.578125 48.1875 50.953125 41.515625 
Q 57.328125 34.859375 57.328125 23.390625 
Q 57.328125 12.15625 50.6875 5.359375 
Q 44.046875 -1.421875 33.015625 -1.421875 
Q 20.359375 -1.421875 13.671875 8.265625 
Q 6.984375 17.96875 6.984375 36.375 
Q 6.984375 53.65625 15.1875 63.9375 
Q 23.390625 74.21875 37.203125 74.21875 
Q 40.921875 74.21875 44.703125 73.484375 
Q 48.484375 72.75 52.59375 71.296875 
z
" id="DejaVuSans-54"/>
      </defs>
      <g transform="translate(200.446409 303.028562)scale(0.1 -0.1)">
       <use xlink:href="#DejaVuSans-54"/>
       <use x="63.623047" xlink:href="#DejaVuSans-48"/>
       <use x="127.246094" xlink:href="#DejaVuSans-48"/>
      </g>
     </g>
    </g>
    <g id="xtick_5">
     <g id="line2d_9">
      <path clip-path="url(#p7bbec4d192)" d="M 258.920761 288.430125 
L 258.920761 22.318125 
" style="fill:none;stroke:#b0b0b0;stroke-dasharray:2.96,1.28;stroke-dashoffset:0;stroke-width:0.8;"/>
     </g>
     <g id="line2d_10">
      <g>
       <use style="stroke:#000000;stroke-width:0.8;" x="258.920761" xlink:href="#mcaa8cd2993" y="288.430125"/>
      </g>
     </g>
     <g id="text_5">
      <!-- 800 -->
      <defs>
       <path d="M 31.78125 34.625 
Q 24.75 34.625 20.71875 30.859375 
Q 16.703125 27.09375 16.703125 20.515625 
Q 16.703125 13.921875 20.71875 10.15625 
Q 24.75 6.390625 31.78125 6.390625 
Q 38.8125 6.390625 42.859375 10.171875 
Q 46.921875 13.96875 46.921875 20.515625 
Q 46.921875 27.09375 42.890625 30.859375 
Q 38.875 34.625 31.78125 34.625 
z
M 21.921875 38.8125 
Q 15.578125 40.375 12.03125 44.71875 
Q 8.5 49.078125 8.5 55.328125 
Q 8.5 64.0625 14.71875 69.140625 
Q 20.953125 74.21875 31.78125 74.21875 
Q 42.671875 74.21875 48.875 69.140625 
Q 55.078125 64.0625 55.078125 55.328125 
Q 55.078125 49.078125 51.53125 44.71875 
Q 48 40.375 41.703125 38.8125 
Q 48.828125 37.15625 52.796875 32.3125 
Q 56.78125 27.484375 56.78125 20.515625 
Q 56.78125 9.90625 50.3125 4.234375 
Q 43.84375 -1.421875 31.78125 -1.421875 
Q 19.734375 -1.421875 13.25 4.234375 
Q 6.78125 9.90625 6.78125 20.515625 
Q 6.78125 27.484375 10.78125 32.3125 
Q 14.796875 37.15625 21.921875 38.8125 
z
M 18.3125 54.390625 
Q 18.3125 48.734375 21.84375 45.5625 
Q 25.390625 42.390625 31.78125 42.390625 
Q 38.140625 42.390625 41.71875 45.5625 
Q 45.3125 48.734375 45.3125 54.390625 
Q 45.3125 60.0625 41.71875 63.234375 
Q 38.140625 66.40625 31.78125 66.40625 
Q 25.390625 66.40625 21.84375 63.234375 
Q 18.3125 60.0625 18.3125 54.390625 
z
" id="DejaVuSans-56"/>
      </defs>
      <g transform="translate(249.377011 303.028562)scale(0.1 -0.1)">
       <use xlink:href="#DejaVuSans-56"/>
       <use x="63.623047" xlink:href="#DejaVuSans-48"/>
       <use x="127.246094" xlink:href="#DejaVuSans-48"/>
      </g>
     </g>
    </g>
    <g id="xtick_6">
     <g id="line2d_11">
      <path clip-path="url(#p7bbec4d192)" d="M 307.851363 288.430125 
L 307.851363 22.318125 
" style="fill:none;stroke:#b0b0b0;stroke-dasharray:2.96,1.28;stroke-dashoffset:0;stroke-width:0.8;"/>
     </g>
     <g id="line2d_12">
      <g>
       <use style="stroke:#000000;stroke-width:0.8;" x="307.851363" xlink:href="#mcaa8cd2993" y="288.430125"/>
      </g>
     </g>
     <g id="text_6">
      <!-- 1000 -->
      <defs>
       <path d="M 12.40625 8.296875 
L 28.515625 8.296875 
L 28.515625 63.921875 
L 10.984375 60.40625 
L 10.984375 69.390625 
L 28.421875 72.90625 
L 38.28125 72.90625 
L 38.28125 8.296875 
L 54.390625 8.296875 
L 54.390625 0 
L 12.40625 0 
z
" id="DejaVuSans-49"/>
      </defs>
      <g transform="translate(295.126363 303.028562)scale(0.1 -0.1)">
       <use xlink:href="#DejaVuSans-49"/>
       <use x="63.623047" xlink:href="#DejaVuSans-48"/>
       <use x="127.246094" xlink:href="#DejaVuSans-48"/>
       <use x="190.869141" xlink:href="#DejaVuSans-48"/>
      </g>
     </g>
    </g>
    <g id="xtick_7">
     <g id="line2d_13">
      <path clip-path="url(#p7bbec4d192)" d="M 356.781965 288.430125 
L 356.781965 22.318125 
" style="fill:none;stroke:#b0b0b0;stroke-dasharray:2.96,1.28;stroke-dashoffset:0;stroke-width:0.8;"/>
     </g>
     <g id="line2d_14">
      <g>
       <use style="stroke:#000000;stroke-width:0.8;" x="356.781965" xlink:href="#mcaa8cd2993" y="288.430125"/>
      </g>
     </g>
     <g id="text_7">
      <!-- 1200 -->
      <g transform="translate(344.056965 303.028562)scale(0.1 -0.1)">
       <use xlink:href="#DejaVuSans-49"/>
       <use x="63.623047" xlink:href="#DejaVuSans-50"/>
       <use x="127.246094" xlink:href="#DejaVuSans-48"/>
       <use x="190.869141" xlink:href="#DejaVuSans-48"/>
      </g>
     </g>
    </g>
    <g id="text_8">
     <!-- Day -->
     <defs>
      <path d="M 19.671875 64.796875 
L 19.671875 8.109375 
L 31.59375 8.109375 
Q 46.6875 8.109375 53.6875 14.9375 
Q 60.6875 21.78125 60.6875 36.53125 
Q 60.6875 51.171875 53.6875 57.984375 
Q 46.6875 64.796875 31.59375 64.796875 
z
M 9.8125 72.90625 
L 30.078125 72.90625 
Q 51.265625 72.90625 61.171875 64.09375 
Q 71.09375 55.28125 71.09375 36.53125 
Q 71.09375 17.671875 61.125 8.828125 
Q 51.171875 0 30.078125 0 
L 9.8125 0 
z
" id="DejaVuSans-68"/>
      <path d="M 34.28125 27.484375 
Q 23.390625 27.484375 19.1875 25 
Q 14.984375 22.515625 14.984375 16.5 
Q 14.984375 11.71875 18.140625 8.90625 
Q 21.296875 6.109375 26.703125 6.109375 
Q 34.1875 6.109375 38.703125 11.40625 
Q 43.21875 16.703125 43.21875 25.484375 
L 43.21875 27.484375 
z
M 52.203125 31.203125 
L 52.203125 0 
L 43.21875 0 
L 43.21875 8.296875 
Q 40.140625 3.328125 35.546875 0.953125 
Q 30.953125 -1.421875 24.3125 -1.421875 
Q 15.921875 -1.421875 10.953125 3.296875 
Q 6 8.015625 6 15.921875 
Q 6 25.140625 12.171875 29.828125 
Q 18.359375 34.515625 30.609375 34.515625 
L 43.21875 34.515625 
L 43.21875 35.40625 
Q 43.21875 41.609375 39.140625 45 
Q 35.0625 48.390625 27.6875 48.390625 
Q 23 48.390625 18.546875 47.265625 
Q 14.109375 46.140625 10.015625 43.890625 
L 10.015625 52.203125 
Q 14.9375 54.109375 19.578125 55.046875 
Q 24.21875 56 28.609375 56 
Q 40.484375 56 46.34375 49.84375 
Q 52.203125 43.703125 52.203125 31.203125 
z
" id="DejaVuSans-97"/>
      <path d="M 32.171875 -5.078125 
Q 28.375 -14.84375 24.75 -17.8125 
Q 21.140625 -20.796875 15.09375 -20.796875 
L 7.90625 -20.796875 
L 7.90625 -13.28125 
L 13.1875 -13.28125 
Q 16.890625 -13.28125 18.9375 -11.515625 
Q 21 -9.765625 23.484375 -3.21875 
L 25.09375 0.875 
L 2.984375 54.6875 
L 12.5 54.6875 
L 29.59375 11.921875 
L 46.6875 54.6875 
L 56.203125 54.6875 
z
" id="DejaVuSans-121"/>
     </defs>
     <g transform="translate(215.652188 316.706687)scale(0.1 -0.1)">
      <use xlink:href="#DejaVuSans-68"/>
      <use x="77.001953" xlink:href="#DejaVuSans-97"/>
      <use x="138.28125" xlink:href="#DejaVuSans-121"/>
     </g>
    </g>
   </g>
   <g id="matplotlib.axis_2">
    <g id="ytick_1">
     <g id="line2d_15">
      <path clip-path="url(#p7bbec4d192)" d="M 46.965625 258.423603 
L 404.085625 258.423603 
" style="fill:none;stroke:#b0b0b0;stroke-dasharray:2.96,1.28;stroke-dashoffset:0;stroke-width:0.8;"/>
     </g>
     <g id="line2d_16">
      <defs>
       <path d="M 0 0 
L -3.5 0 
" id="m0e8a9e153e" style="stroke:#000000;stroke-width:0.8;"/>
      </defs>
      <g>
       <use style="stroke:#000000;stroke-width:0.8;" x="46.965625" xlink:href="#m0e8a9e153e" y="258.423603"/>
      </g>
     </g>
     <g id="text_9">
      <!-- 60 -->
      <g transform="translate(27.240625 262.222821)scale(0.1 -0.1)">
       <use xlink:href="#DejaVuSans-54"/>
       <use x="63.623047" xlink:href="#DejaVuSans-48"/>
      </g>
     </g>
    </g>
    <g id="ytick_2">
     <g id="line2d_17">
      <path clip-path="url(#p7bbec4d192)" d="M 46.965625 216.819602 
L 404.085625 216.819602 
" style="fill:none;stroke:#b0b0b0;stroke-dasharray:2.96,1.28;stroke-dashoffset:0;stroke-width:0.8;"/>
     </g>
     <g id="line2d_18">
      <g>
       <use style="stroke:#000000;stroke-width:0.8;" x="46.965625" xlink:href="#m0e8a9e153e" y="216.819602"/>
      </g>
     </g>
     <g id="text_10">
      <!-- 80 -->
      <g transform="translate(27.240625 220.618821)scale(0.1 -0.1)">
       <use xlink:href="#DejaVuSans-56"/>
       <use x="63.623047" xlink:href="#DejaVuSans-48"/>
      </g>
     </g>
    </g>
    <g id="ytick_3">
     <g id="line2d_19">
      <path clip-path="url(#p7bbec4d192)" d="M 46.965625 175.215601 
L 404.085625 175.215601 
" style="fill:none;stroke:#b0b0b0;stroke-dasharray:2.96,1.28;stroke-dashoffset:0;stroke-width:0.8;"/>
     </g>
     <g id="line2d_20">
      <g>
       <use style="stroke:#000000;stroke-width:0.8;" x="46.965625" xlink:href="#m0e8a9e153e" y="175.215601"/>
      </g>
     </g>
     <g id="text_11">
      <!-- 100 -->
      <g transform="translate(20.878125 179.01482)scale(0.1 -0.1)">
       <use xlink:href="#DejaVuSans-49"/>
       <use x="63.623047" xlink:href="#DejaVuSans-48"/>
       <use x="127.246094" xlink:href="#DejaVuSans-48"/>
      </g>
     </g>
    </g>
    <g id="ytick_4">
     <g id="line2d_21">
      <path clip-path="url(#p7bbec4d192)" d="M 46.965625 133.611601 
L 404.085625 133.611601 
" style="fill:none;stroke:#b0b0b0;stroke-dasharray:2.96,1.28;stroke-dashoffset:0;stroke-width:0.8;"/>
     </g>
     <g id="line2d_22">
      <g>
       <use style="stroke:#000000;stroke-width:0.8;" x="46.965625" xlink:href="#m0e8a9e153e" y="133.611601"/>
      </g>
     </g>
     <g id="text_12">
      <!-- 120 -->
      <g transform="translate(20.878125 137.41082)scale(0.1 -0.1)">
       <use xlink:href="#DejaVuSans-49"/>
       <use x="63.623047" xlink:href="#DejaVuSans-50"/>
       <use x="127.246094" xlink:href="#DejaVuSans-48"/>
      </g>
     </g>
    </g>
    <g id="ytick_5">
     <g id="line2d_23">
      <path clip-path="url(#p7bbec4d192)" d="M 46.965625 92.0076 
L 404.085625 92.0076 
" style="fill:none;stroke:#b0b0b0;stroke-dasharray:2.96,1.28;stroke-dashoffset:0;stroke-width:0.8;"/>
     </g>
     <g id="line2d_24">
      <g>
       <use style="stroke:#000000;stroke-width:0.8;" x="46.965625" xlink:href="#m0e8a9e153e" y="92.0076"/>
      </g>
     </g>
     <g id="text_13">
      <!-- 140 -->
      <g transform="translate(20.878125 95.806819)scale(0.1 -0.1)">
       <use xlink:href="#DejaVuSans-49"/>
       <use x="63.623047" xlink:href="#DejaVuSans-52"/>
       <use x="127.246094" xlink:href="#DejaVuSans-48"/>
      </g>
     </g>
    </g>
    <g id="ytick_6">
     <g id="line2d_25">
      <path clip-path="url(#p7bbec4d192)" d="M 46.965625 50.4036 
L 404.085625 50.4036 
" style="fill:none;stroke:#b0b0b0;stroke-dasharray:2.96,1.28;stroke-dashoffset:0;stroke-width:0.8;"/>
     </g>
     <g id="line2d_26">
      <g>
       <use style="stroke:#000000;stroke-width:0.8;" x="46.965625" xlink:href="#m0e8a9e153e" y="50.4036"/>
      </g>
     </g>
     <g id="text_14">
      <!-- 160 -->
      <g transform="translate(20.878125 54.202818)scale(0.1 -0.1)">
       <use xlink:href="#DejaVuSans-49"/>
       <use x="63.623047" xlink:href="#DejaVuSans-54"/>
       <use x="127.246094" xlink:href="#DejaVuSans-48"/>
      </g>
     </g>
    </g>
    <g id="text_15">
     <!-- Price $ -->
     <defs>
      <path d="M 19.671875 64.796875 
L 19.671875 37.40625 
L 32.078125 37.40625 
Q 38.96875 37.40625 42.71875 40.96875 
Q 46.484375 44.53125 46.484375 51.125 
Q 46.484375 57.671875 42.71875 61.234375 
Q 38.96875 64.796875 32.078125 64.796875 
z
M 9.8125 72.90625 
L 32.078125 72.90625 
Q 44.34375 72.90625 50.609375 67.359375 
Q 56.890625 61.8125 56.890625 51.125 
Q 56.890625 40.328125 50.609375 34.8125 
Q 44.34375 29.296875 32.078125 29.296875 
L 19.671875 29.296875 
L 19.671875 0 
L 9.8125 0 
z
" id="DejaVuSans-80"/>
      <path d="M 41.109375 46.296875 
Q 39.59375 47.171875 37.8125 47.578125 
Q 36.03125 48 33.890625 48 
Q 26.265625 48 22.1875 43.046875 
Q 18.109375 38.09375 18.109375 28.8125 
L 18.109375 0 
L 9.078125 0 
L 9.078125 54.6875 
L 18.109375 54.6875 
L 18.109375 46.1875 
Q 20.953125 51.171875 25.484375 53.578125 
Q 30.03125 56 36.53125 56 
Q 37.453125 56 38.578125 55.875 
Q 39.703125 55.765625 41.0625 55.515625 
z
" id="DejaVuSans-114"/>
      <path d="M 9.421875 54.6875 
L 18.40625 54.6875 
L 18.40625 0 
L 9.421875 0 
z
M 9.421875 75.984375 
L 18.40625 75.984375 
L 18.40625 64.59375 
L 9.421875 64.59375 
z
" id="DejaVuSans-105"/>
      <path d="M 48.78125 52.59375 
L 48.78125 44.1875 
Q 44.96875 46.296875 41.140625 47.34375 
Q 37.3125 48.390625 33.40625 48.390625 
Q 24.65625 48.390625 19.8125 42.84375 
Q 14.984375 37.3125 14.984375 27.296875 
Q 14.984375 17.28125 19.8125 11.734375 
Q 24.65625 6.203125 33.40625 6.203125 
Q 37.3125 6.203125 41.140625 7.25 
Q 44.96875 8.296875 48.78125 10.40625 
L 48.78125 2.09375 
Q 45.015625 0.34375 40.984375 -0.53125 
Q 36.96875 -1.421875 32.421875 -1.421875 
Q 20.0625 -1.421875 12.78125 6.34375 
Q 5.515625 14.109375 5.515625 27.296875 
Q 5.515625 40.671875 12.859375 48.328125 
Q 20.21875 56 33.015625 56 
Q 37.15625 56 41.109375 55.140625 
Q 45.0625 54.296875 48.78125 52.59375 
z
" id="DejaVuSans-99"/>
      <path d="M 56.203125 29.59375 
L 56.203125 25.203125 
L 14.890625 25.203125 
Q 15.484375 15.921875 20.484375 11.0625 
Q 25.484375 6.203125 34.421875 6.203125 
Q 39.59375 6.203125 44.453125 7.46875 
Q 49.3125 8.734375 54.109375 11.28125 
L 54.109375 2.78125 
Q 49.265625 0.734375 44.1875 -0.34375 
Q 39.109375 -1.421875 33.890625 -1.421875 
Q 20.796875 -1.421875 13.15625 6.1875 
Q 5.515625 13.8125 5.515625 26.8125 
Q 5.515625 40.234375 12.765625 48.109375 
Q 20.015625 56 32.328125 56 
Q 43.359375 56 49.78125 48.890625 
Q 56.203125 41.796875 56.203125 29.59375 
z
M 47.21875 32.234375 
Q 47.125 39.59375 43.09375 43.984375 
Q 39.0625 48.390625 32.421875 48.390625 
Q 24.90625 48.390625 20.390625 44.140625 
Q 15.875 39.890625 15.1875 32.171875 
z
" id="DejaVuSans-101"/>
      <path id="DejaVuSans-32"/>
      <path d="M 33.796875 -14.703125 
L 28.90625 -14.703125 
L 28.859375 0 
Q 23.734375 0.09375 18.609375 1.1875 
Q 13.484375 2.296875 8.296875 4.5 
L 8.296875 13.28125 
Q 13.28125 10.15625 18.375 8.5625 
Q 23.484375 6.984375 28.90625 6.9375 
L 28.90625 29.203125 
Q 18.109375 30.953125 13.203125 35.15625 
Q 8.296875 39.359375 8.296875 46.6875 
Q 8.296875 54.640625 13.625 59.21875 
Q 18.953125 63.8125 28.90625 64.5 
L 28.90625 75.984375 
L 33.796875 75.984375 
L 33.796875 64.65625 
Q 38.328125 64.453125 42.578125 63.6875 
Q 46.828125 62.9375 50.875 61.625 
L 50.875 53.078125 
Q 46.828125 55.125 42.546875 56.25 
Q 38.28125 57.375 33.796875 57.5625 
L 33.796875 36.71875 
Q 44.875 35.015625 50.09375 30.609375 
Q 55.328125 26.21875 55.328125 18.609375 
Q 55.328125 10.359375 49.78125 5.59375 
Q 44.234375 0.828125 33.796875 0.09375 
z
M 28.90625 37.59375 
L 28.90625 57.625 
Q 23.25 56.984375 20.265625 54.390625 
Q 17.28125 51.8125 17.28125 47.515625 
Q 17.28125 43.3125 20.03125 40.96875 
Q 22.796875 38.625 28.90625 37.59375 
z
M 33.796875 28.21875 
L 33.796875 7.078125 
Q 39.984375 7.90625 43.140625 10.59375 
Q 46.296875 13.28125 46.296875 17.671875 
Q 46.296875 21.96875 43.28125 24.5 
Q 40.28125 27.046875 33.796875 28.21875 
z
" id="DejaVuSans-36"/>
     </defs>
     <g transform="translate(14.798438 172.342094)rotate(-90)scale(0.1 -0.1)">
      <use xlink:href="#DejaVuSans-80"/>
      <use x="58.552734" xlink:href="#DejaVuSans-114"/>
      <use x="99.666016" xlink:href="#DejaVuSans-105"/>
      <use x="127.449219" xlink:href="#DejaVuSans-99"/>
      <use x="182.429688" xlink:href="#DejaVuSans-101"/>
      <use x="243.953125" xlink:href="#DejaVuSans-32"/>
      <use x="275.740234" xlink:href="#DejaVuSans-36"/>
     </g>
    </g>
   </g>
   <g id="line2d_27">
    <path clip-path="url(#p7bbec4d192)" d="M 63.198352 271.520569 
L 63.932311 274.146791 
L 64.421617 275.511756 
L 64.66627 274.02035 
L 64.910923 274.162503 
L 65.644882 272.539061 
L 65.889535 272.517707 
L 66.134188 272.665709 
L 66.378841 269.71144 
L 66.623494 268.941586 
L 66.868147 266.311776 
L 67.1128 265.578321 
L 67.357453 265.435025 
L 67.602106 265.833919 
L 67.846759 265.147615 
L 68.091412 265.370106 
L 68.336066 264.990774 
L 68.825372 265.579194 
L 69.070025 265.052352 
L 69.314678 265.107621 
L 69.559331 265.018611 
L 69.803984 264.72767 
L 70.048637 265.466886 
L 70.29329 263.017145 
L 70.537943 263.92117 
L 70.782596 263.73707 
L 71.027249 264.747087 
L 71.271902 264.439855 
L 71.761208 259.781227 
L 72.005861 260.728904 
L 72.250514 260.547749 
L 72.495167 259.135235 
L 72.73982 259.688193 
L 72.984473 258.977251 
L 73.229126 259.003207 
L 73.473779 258.22314 
L 73.718432 259.858335 
L 74.207738 257.184651 
L 74.452391 256.787218 
L 74.697044 257.200625 
L 74.941697 254.68914 
L 75.18635 254.888999 
L 75.431003 252.079439 
L 76.164962 259.322414 
L 76.409615 260.477632 
L 76.654268 259.482208 
L 76.898921 256.924229 
L 77.143574 256.683805 
L 77.877533 254.183302 
L 78.122186 254.001527 
L 78.611492 255.510129 
L 79.100798 258.520596 
L 79.590104 254.030697 
L 79.834757 254.031047 
L 80.07941 252.986749 
L 80.324063 252.682825 
L 80.568716 254.101893 
L 80.813369 256.275786 
L 81.302675 256.061492 
L 81.547328 251.470116 
L 81.791981 255.126702 
L 82.036634 255.698205 
L 82.281287 253.975388 
L 82.52594 251.450667 
L 83.015246 250.258272 
L 83.259899 248.72315 
L 83.504552 248.693583 
L 83.749205 250.137059 
L 83.993858 248.710691 
L 84.238511 249.52027 
L 84.483164 247.981164 
L 84.727817 248.508404 
L 84.97247 249.487481 
L 85.217123 249.715495 
L 85.706429 249.269402 
L 85.951082 251.828476 
L 86.195735 252.334512 
L 86.440388 252.433037 
L 86.929694 254.268464 
L 87.174347 251.827952 
L 87.419 252.348796 
L 87.663653 254.644146 
L 87.908306 254.281303 
L 88.152959 255.513867 
L 88.397612 255.229655 
L 88.642265 255.781375 
L 88.886918 256.89402 
L 89.131571 256.84052 
L 89.620877 250.850097 
L 89.86553 251.201346 
L 90.110183 251.788402 
L 90.354836 252.737079 
L 90.844143 250.448045 
L 91.088796 250.148732 
L 91.578102 250.670314 
L 91.822755 249.308031 
L 92.067408 249.646457 
L 92.312061 247.181124 
L 92.801367 246.223837 
L 93.535326 242.066119 
L 93.779979 242.233221 
L 94.024632 243.279971 
L 94.269285 243.628602 
L 94.513938 243.542536 
L 94.758591 242.559808 
L 95.003244 244.744516 
L 95.247897 244.862769 
L 95.49255 244.046937 
L 95.737203 244.164428 
L 95.981856 243.09046 
L 96.226509 245.043393 
L 96.471162 243.243151 
L 96.715815 242.634003 
L 96.960468 242.924802 
L 97.205121 242.589518 
L 97.449774 242.472202 
L 97.694427 244.686112 
L 97.93908 248.381042 
L 98.183733 246.657106 
L 98.428386 249.164656 
L 98.673039 242.291435 
L 99.162345 239.514687 
L 99.406998 239.144869 
L 99.651651 236.63213 
L 99.896304 236.178784 
L 100.140957 236.010857 
L 100.38561 236.443174 
L 100.630263 234.06451 
L 100.874916 234.663612 
L 101.119569 235.557337 
L 101.364222 235.736278 
L 101.608875 236.287133 
L 101.853528 239.132839 
L 102.098181 238.380823 
L 102.342834 239.674251 
L 102.587487 239.178118 
L 102.83214 239.145155 
L 103.076793 238.035557 
L 103.321446 238.1932 
L 103.566099 236.471233 
L 103.810752 237.440597 
L 104.055405 237.637981 
L 104.300058 237.552295 
L 104.544711 234.962171 
L 104.789364 236.085512 
L 105.034017 235.660908 
L 105.27867 236.854287 
L 105.523323 234.115375 
L 105.767976 234.289937 
L 106.012629 233.244568 
L 106.257282 233.18637 
L 106.501935 229.670478 
L 106.746588 232.590522 
L 106.991241 232.207277 
L 107.235894 231.558103 
L 107.480547 231.786101 
L 107.7252 228.958996 
L 107.969853 229.296946 
L 108.459159 230.706626 
L 108.703812 229.821281 
L 108.948465 230.107381 
L 109.193118 229.459922 
L 109.437771 230.127585 
L 109.682424 231.51795 
L 110.17173 228.987452 
L 110.416383 226.284884 
L 110.661036 226.435639 
L 110.905689 225.388016 
L 111.150342 224.847017 
L 111.394995 224.671059 
L 111.884301 221.71967 
L 112.128954 220.79249 
L 112.373607 223.013384 
L 112.61826 221.907532 
L 112.862913 223.000036 
L 113.35222 216.802906 
L 113.596873 218.107189 
L 113.841526 218.389132 
L 114.086179 216.630313 
L 114.575485 217.197752 
L 114.820138 218.743127 
L 115.064791 218.122965 
L 115.309444 224.484023 
L 115.554097 226.59552 
L 115.79875 221.905072 
L 116.043403 219.439119 
L 116.288056 220.174883 
L 116.532709 221.560583 
L 116.777362 223.975479 
L 117.022015 223.964545 
L 117.266668 223.640688 
L 117.511321 224.352408 
L 117.755974 222.320724 
L 118.000627 224.956604 
L 118.24528 228.870152 
L 118.489933 229.178043 
L 118.734586 229.833358 
L 118.979239 228.393984 
L 119.223892 225.367432 
L 119.468545 224.410494 
L 119.713198 221.659171 
L 119.957851 223.437337 
L 120.936463 218.207555 
L 121.181116 217.168281 
L 121.425769 217.539956 
L 121.915075 215.289955 
L 122.159728 215.764504 
L 122.404381 215.847555 
L 122.649034 215.428157 
L 123.13834 216.596222 
L 123.382993 216.146464 
L 123.872299 215.900627 
L 124.116952 218.749094 
L 124.361605 219.375763 
L 124.606258 219.437913 
L 124.850911 219.311995 
L 125.095564 218.805483 
L 125.340217 219.162017 
L 125.58487 216.261002 
L 125.829523 217.501485 
L 126.074176 216.728901 
L 126.318829 218.867616 
L 126.563482 216.34837 
L 126.808135 218.553409 
L 127.297441 217.661811 
L 127.786747 225.848202 
L 128.0314 225.860312 
L 128.276053 226.089436 
L 128.765359 229.301659 
L 129.010012 228.238515 
L 129.254665 228.866803 
L 129.499318 225.93165 
L 129.743971 228.402253 
L 129.988624 226.76321 
L 130.233277 226.589283 
L 130.47793 227.532001 
L 130.722583 228.958837 
L 130.967236 228.396809 
L 131.211889 230.493467 
L 131.456542 231.209313 
L 132.190501 226.538941 
L 132.435154 225.992324 
L 132.679807 226.651845 
L 133.169113 224.86776 
L 133.658419 219.392253 
L 133.903072 222.610904 
L 134.147725 223.081739 
L 134.392378 224.519478 
L 134.637031 225.142053 
L 134.881684 224.888614 
L 135.126337 225.20909 
L 135.37099 225.294935 
L 135.615643 224.125124 
L 135.860297 224.406654 
L 136.10495 225.336865 
L 136.349603 225.342864 
L 137.083562 228.557055 
L 137.572868 223.920234 
L 137.817521 223.917583 
L 138.062174 226.320323 
L 138.306827 226.613819 
L 138.55148 225.264797 
L 138.796133 226.841817 
L 139.040786 227.199859 
L 139.530092 226.250682 
L 139.774745 223.032381 
L 140.264051 224.426825 
L 140.508704 221.281053 
L 140.753357 220.219178 
L 140.99801 220.370569 
L 141.242663 222.592367 
L 141.487316 222.635106 
L 141.731969 223.247619 
L 141.976622 223.520198 
L 142.221275 224.150723 
L 142.465928 225.249989 
L 142.710581 225.564673 
L 142.955234 224.284878 
L 143.44454 218.983488 
L 143.689193 216.874562 
L 143.933846 217.374171 
L 144.178499 215.906309 
L 144.423152 216.410694 
L 144.667805 216.083584 
L 144.912458 218.092271 
L 145.646417 215.035485 
L 145.89107 214.841355 
L 146.380376 219.048923 
L 146.625029 219.124658 
L 146.869682 219.063683 
L 147.114335 216.959248 
L 147.358988 217.262838 
L 147.603641 219.77034 
L 147.848294 218.960793 
L 148.092947 220.046775 
L 148.3376 218.852333 
L 148.582253 219.006659 
L 148.826906 220.068915 
L 149.071559 216.698969 
L 149.560865 216.31966 
L 149.805518 215.293098 
L 150.050171 215.100634 
L 150.294824 213.254368 
L 150.539477 213.281237 
L 150.78413 212.203571 
L 151.028783 211.718611 
L 151.273436 212.414984 
L 151.518089 212.604337 
L 151.762742 214.314655 
L 152.007395 213.105406 
L 152.252048 212.480562 
L 152.496701 213.15232 
L 152.741354 212.539569 
L 152.986007 214.801869 
L 153.23066 214.626911 
L 153.719966 213.473685 
L 154.209272 215.362199 
L 154.453925 215.439568 
L 154.698578 215.808196 
L 154.943231 218.125631 
L 155.187884 218.293543 
L 155.432537 219.289744 
L 155.67719 223.117511 
L 155.921843 222.57083 
L 156.166496 222.710698 
L 156.411149 226.5421 
L 156.655802 226.20288 
L 156.900455 226.196484 
L 157.145108 224.263659 
L 157.389761 223.632657 
L 157.634414 223.712518 
L 157.879067 223.071216 
L 158.368374 221.1854 
L 158.613027 220.526879 
L 158.85768 221.382498 
L 159.102333 223.314307 
L 159.346986 221.101032 
L 159.836292 220.433654 
L 160.080945 213.868991 
L 160.570251 211.987476 
L 160.814904 212.0621 
L 161.059557 212.439917 
L 161.30421 210.833853 
L 161.548863 210.558957 
L 161.793516 211.318718 
L 162.038169 211.261171 
L 162.282822 212.047658 
L 162.772128 215.113521 
L 163.016781 218.437315 
L 163.261434 217.288231 
L 163.506087 216.979071 
L 163.75074 216.228563 
L 163.995393 216.563973 
L 164.240046 216.077553 
L 164.484699 215.124155 
L 164.729352 216.848503 
L 164.974005 217.5836 
L 165.218658 218.687945 
L 165.707964 218.892327 
L 166.441923 216.382032 
L 166.686576 217.187944 
L 166.931229 218.819179 
L 167.175882 222.148559 
L 167.420535 221.939384 
L 167.665188 220.821978 
L 168.154494 224.925545 
L 168.399147 224.6513 
L 168.6438 224.690215 
L 168.888453 222.32147 
L 169.133106 222.599429 
L 169.377759 220.832183 
L 169.622412 217.32148 
L 169.867065 219.557578 
L 170.111718 216.659927 
L 170.356371 217.101005 
L 170.601024 215.826162 
L 170.845677 217.282296 
L 171.09033 217.214655 
L 171.334983 217.522228 
L 171.579636 217.523609 
L 171.824289 218.518827 
L 172.068942 221.392878 
L 172.313595 222.093218 
L 172.558248 222.276398 
L 173.047554 219.841599 
L 173.53686 223.393724 
L 173.781513 223.854243 
L 174.026166 221.480134 
L 174.270819 222.512966 
L 174.515472 219.425566 
L 174.760125 220.428147 
L 175.004778 218.630064 
L 175.738737 216.137401 
L 175.98339 215.937241 
L 176.472696 213.9582 
L 176.717349 214.525751 
L 176.962002 214.626577 
L 177.206655 215.266768 
L 177.451308 215.468215 
L 177.940614 214.609405 
L 178.674573 219.93668 
L 178.919226 218.586991 
L 179.408532 214.628212 
L 179.897838 215.813037 
L 180.142491 214.786601 
L 180.387144 215.206269 
L 180.631798 215.129551 
L 180.876451 214.712073 
L 181.121104 214.006907 
L 181.365757 214.107781 
L 181.61041 212.137851 
L 181.855063 212.227615 
L 182.099716 212.123678 
L 182.589022 214.658128 
L 182.833675 214.80425 
L 183.078328 217.176327 
L 183.322981 216.680432 
L 183.567634 217.478346 
L 183.812287 215.999708 
L 184.05694 216.398553 
L 184.301593 217.066248 
L 184.546246 215.960491 
L 184.790899 216.428231 
L 185.035552 214.441922 
L 185.280205 213.635915 
L 185.524858 213.397013 
L 185.769511 214.19626 
L 186.014164 214.515895 
L 186.258817 214.309958 
L 186.50347 213.047541 
L 186.748123 214.125477 
L 186.992776 216.373097 
L 187.237429 215.742523 
L 187.482082 215.792024 
L 187.726735 214.402785 
L 187.971388 214.736085 
L 188.216041 210.863087 
L 188.460694 209.945001 
L 188.705347 209.659773 
L 188.95 208.952401 
L 189.194653 207.453766 
L 189.439306 207.927664 
L 189.683959 208.121763 
L 189.928612 198.051888 
L 190.173265 193.157501 
L 190.417918 192.339289 
L 190.662571 192.688475 
L 190.907224 192.449797 
L 191.39653 191.408157 
L 191.885836 188.093029 
L 192.375142 197.57015 
L 192.619795 195.643673 
L 192.864448 191.590336 
L 193.109101 193.316827 
L 193.353754 197.613429 
L 193.598407 196.829323 
L 193.84306 196.620465 
L 194.087713 197.174462 
L 194.332366 195.974418 
L 195.066325 190.920642 
L 195.310978 190.675869 
L 195.555631 190.841416 
L 195.800284 193.26055 
L 196.044937 189.967037 
L 196.28959 192.293439 
L 196.534243 189.406168 
L 197.268202 194.43728 
L 197.757508 188.197902 
L 198.002161 188.44577 
L 198.246814 190.909088 
L 198.491467 187.591817 
L 198.73612 189.19904 
L 198.980773 189.818519 
L 199.225426 193.444871 
L 199.470079 194.843077 
L 199.714732 199.55192 
L 199.959385 197.660946 
L 200.693344 185.936221 
L 200.937997 187.692485 
L 201.18265 185.02626 
L 201.427303 184.512511 
L 201.671956 183.680317 
L 201.916609 181.007316 
L 202.161262 181.164007 
L 202.405915 179.64593 
L 202.650568 179.584828 
L 202.895221 182.412409 
L 203.139875 183.047458 
L 203.384528 182.786957 
L 203.629181 180.137857 
L 204.118487 178.650537 
L 204.36314 178.695451 
L 204.852446 176.804223 
L 205.097099 178.00103 
L 205.341752 177.91544 
L 205.586405 182.345245 
L 205.831058 181.426444 
L 206.565017 177.501104 
L 206.80967 179.995878 
L 207.054323 178.599894 
L 207.298976 175.674518 
L 207.543629 176.667593 
L 207.788282 178.18294 
L 208.032935 177.754035 
L 208.277588 176.726616 
L 208.766894 173.752342 
L 209.2562 176.210089 
L 209.500853 174.299134 
L 209.745506 174.610818 
L 209.990159 174.335779 
L 210.234812 180.178962 
L 211.213424 167.133353 
L 211.458077 166.163116 
L 211.70273 167.156271 
L 211.947383 166.690022 
L 212.192036 165.421146 
L 212.436689 165.675141 
L 212.681342 164.481873 
L 212.925995 167.207834 
L 213.170648 171.721785 
L 213.415301 172.28448 
L 213.904607 160.679547 
L 214.14926 164.49449 
L 214.638566 166.488338 
L 215.127872 171.864034 
L 215.372525 165.656239 
L 215.617178 167.625915 
L 215.861831 167.02875 
L 216.106484 161.893288 
L 216.351137 163.414253 
L 216.59579 161.441831 
L 216.840443 163.727667 
L 217.085096 164.250002 
L 217.329749 158.798444 
L 217.574402 164.987068 
L 217.819055 165.366107 
L 218.063708 159.361789 
L 218.308361 156.698787 
L 218.553014 155.447401 
L 218.797667 155.640626 
L 219.04232 156.648683 
L 219.286973 152.118433 
L 219.531626 152.692507 
L 219.776279 149.329639 
L 220.020932 150.398434 
L 220.510238 149.613328 
L 220.754891 151.529584 
L 220.999544 148.724903 
L 221.244197 148.777451 
L 221.48885 140.623166 
L 221.733503 140.507882 
L 221.978156 142.61868 
L 222.222809 143.756068 
L 222.467462 141.178005 
L 222.712115 140.899014 
L 222.956768 143.182724 
L 223.201421 141.257945 
L 223.446074 143.676889 
L 223.690727 142.308044 
L 223.93538 147.883012 
L 224.180033 147.670139 
L 224.424686 141.84116 
L 224.669339 143.319751 
L 224.913992 140.499264 
L 225.158645 141.463978 
L 225.403298 140.9013 
L 225.647952 142.722252 
L 225.892605 138.335219 
L 226.137258 141.105158 
L 226.381911 141.464835 
L 226.871217 148.856075 
L 227.11587 145.773324 
L 227.360523 144.207747 
L 227.605176 146.370776 
L 227.849829 146.951785 
L 228.094482 144.068291 
L 228.339135 143.003338 
L 228.583788 144.309684 
L 228.828441 142.33888 
L 229.073094 143.959212 
L 229.317747 143.008242 
L 229.5624 144.512432 
L 229.807053 145.043623 
L 230.051706 146.259745 
L 230.296359 146.507105 
L 230.541012 148.768722 
L 231.030318 146.913203 
L 231.274971 147.356852 
L 231.519624 146.113893 
L 231.764277 146.025065 
L 232.00893 150.950764 
L 232.253583 152.835374 
L 232.742889 160.067066 
L 232.987542 154.412236 
L 233.232195 153.561045 
L 233.476848 157.631077 
L 233.721501 156.494023 
L 234.210807 148.549945 
L 234.45546 148.332977 
L 234.700113 147.297115 
L 234.944766 150.035662 
L 235.189419 149.167124 
L 235.434072 145.796543 
L 235.678725 144.156469 
L 235.923378 148.705557 
L 236.412684 149.574635 
L 236.657337 149.46681 
L 236.90199 151.814208 
L 237.146643 149.69622 
L 237.391296 149.68546 
L 237.635949 151.279271 
L 237.880602 150.810071 
L 238.125255 150.838099 
L 238.369908 147.701706 
L 238.614561 151.459277 
L 238.859214 153.361376 
L 239.103867 154.391779 
L 239.34852 154.788022 
L 239.593173 151.485019 
L 239.837826 150.914373 
L 240.327132 153.518718 
L 240.571785 153.127617 
L 240.816438 152.376347 
L 241.061091 149.468365 
L 241.305744 148.846901 
L 241.550397 147.21773 
L 241.79505 147.103604 
L 242.039703 148.663579 
L 242.284356 148.914241 
L 242.529009 147.690326 
L 242.773662 152.512343 
L 243.018315 150.386578 
L 243.262968 149.410326 
L 243.752274 150.661712 
L 243.996927 148.849774 
L 244.24158 151.471576 
L 244.486233 150.825989 
L 244.975539 143.511469 
L 245.220192 142.774752 
L 245.464845 142.492143 
L 245.709498 144.334744 
L 245.954151 144.891645 
L 246.198804 146.747387 
L 246.443457 146.134239 
L 246.68811 144.133916 
L 246.932763 143.988954 
L 247.177416 146.88735 
L 247.422069 147.562726 
L 247.911375 140.736467 
L 248.156029 140.539988 
L 248.400682 139.413869 
L 248.645335 139.520996 
L 248.889988 137.81209 
L 249.134641 136.898067 
L 249.379294 140.028873 
L 250.113253 137.038205 
L 250.357906 136.874483 
L 250.602559 134.383106 
L 250.847212 133.062142 
L 251.091865 133.3245 
L 251.336518 127.184822 
L 251.581171 126.782929 
L 251.825824 131.265853 
L 252.31513 147.711657 
L 252.559783 151.092125 
L 252.804436 142.242355 
L 253.049089 137.915884 
L 253.293742 138.136296 
L 253.538395 140.357158 
L 253.783048 146.590553 
L 254.027701 140.529783 
L 254.272354 139.920461 
L 254.517007 144.101699 
L 254.76166 140.455604 
L 255.006313 144.6729 
L 255.250966 144.288132 
L 255.495619 142.347546 
L 255.740272 143.767717 
L 255.984925 141.199779 
L 256.229578 137.417355 
L 256.474231 136.731488 
L 256.718884 143.252269 
L 256.963537 139.965676 
L 257.20819 141.720972 
L 257.452843 141.104032 
L 257.697496 140.84499 
L 257.942149 139.878165 
L 258.186802 145.284381 
L 258.431455 147.654125 
L 258.920761 139.109422 
L 259.165414 137.556112 
L 259.410067 134.369981 
L 259.65472 135.366706 
L 259.899373 133.746882 
L 260.144026 130.586588 
L 260.388679 130.164429 
L 260.633332 128.619768 
L 260.877985 129.536347 
L 261.122638 132.095159 
L 261.611944 126.967346 
L 261.856597 126.271402 
L 262.10125 126.320125 
L 262.345903 125.909868 
L 262.590556 123.882803 
L 263.079862 122.54635 
L 263.324515 123.357706 
L 263.569168 125.300593 
L 263.813821 125.636559 
L 264.058474 125.372265 
L 264.54778 120.940778 
L 264.792433 121.395536 
L 265.037086 121.231529 
L 265.281739 120.861123 
L 265.526392 123.460643 
L 265.771045 122.703755 
L 266.260351 124.677384 
L 266.505004 132.110553 
L 266.749657 130.792701 
L 266.99431 121.436705 
L 267.238963 118.708759 
L 267.483616 118.352732 
L 267.972922 107.151327 
L 268.462228 102.889958 
L 268.706881 102.434882 
L 268.951534 103.83385 
L 269.196187 103.623817 
L 269.44084 105.247387 
L 269.685493 110.225761 
L 269.930146 103.736531 
L 270.174799 102.010247 
L 270.419452 104.20462 
L 270.664106 107.985743 
L 270.908759 107.915722 
L 271.153412 111.085094 
L 271.398065 109.191819 
L 271.642718 109.247779 
L 271.887371 106.520341 
L 272.376677 111.671547 
L 272.62133 109.210641 
L 272.865983 108.526933 
L 273.110636 105.631425 
L 273.355289 107.086384 
L 273.599942 105.856852 
L 273.844595 104.006745 
L 274.089248 104.433729 
L 274.578554 109.910061 
L 275.06786 114.743536 
L 275.312513 121.59749 
L 275.557166 125.142013 
L 276.046472 118.024448 
L 276.291125 129.239137 
L 276.535778 133.625504 
L 276.780431 134.122287 
L 277.025084 133.948979 
L 277.269737 139.671958 
L 277.759043 127.776322 
L 278.003696 129.17121 
L 278.248349 128.343698 
L 278.493002 129.583419 
L 278.737655 128.441382 
L 278.982308 122.16593 
L 279.226961 120.068701 
L 279.471614 122.105479 
L 279.96092 131.109336 
L 280.450226 150.072847 
L 280.694879 146.956499 
L 280.939532 145.353498 
L 281.184185 146.867147 
L 281.918144 130.870832 
L 282.162797 133.100835 
L 283.141409 120.918861 
L 283.386062 119.077403 
L 283.630715 120.202316 
L 283.875368 124.856436 
L 284.120021 121.747182 
L 284.364674 121.371413 
L 284.609327 118.920331 
L 284.85398 121.172014 
L 285.343286 118.854293 
L 285.587939 120.141293 
L 285.832592 120.102489 
L 286.077245 115.204516 
L 286.321898 114.370671 
L 287.30051 108.916939 
L 287.789816 110.777869 
L 288.034469 111.230469 
L 288.279122 110.763046 
L 288.523775 109.460509 
L 289.013081 105.318931 
L 289.257734 105.284556 
L 289.502387 102.157209 
L 289.991693 102.659547 
L 290.236346 101.49172 
L 290.480999 104.132186 
L 290.725652 104.583104 
L 290.970305 105.731347 
L 291.214958 103.661494 
L 291.459611 103.753766 
L 291.704264 103.212608 
L 291.948917 101.735748 
L 292.19357 98.510923 
L 292.438223 100.537068 
L 292.92753 102.232214 
L 293.172183 100.36011 
L 293.416836 100.257109 
L 293.661489 101.192399 
L 293.906142 100.24181 
L 294.150795 106.396708 
L 294.395448 104.170022 
L 294.640101 100.103957 
L 294.884754 102.707699 
L 295.129407 101.867728 
L 295.37406 102.738932 
L 296.108019 96.662879 
L 296.352672 103.473363 
L 296.597325 103.424323 
L 296.841978 104.991012 
L 297.086631 100.722183 
L 297.331284 107.603355 
L 297.575937 107.79028 
L 297.82059 108.464053 
L 298.065243 106.600996 
L 298.309896 109.233273 
L 298.554549 104.833829 
L 298.799202 105.530773 
L 299.043855 103.269648 
L 299.288508 103.127605 
L 299.533161 107.182973 
L 299.777814 107.750191 
L 300.022467 107.043787 
L 300.26712 108.140546 
L 300.511773 113.573107 
L 300.756426 112.232734 
L 301.001079 112.542656 
L 301.245732 112.547131 
L 301.735038 116.395895 
L 301.979691 121.4378 
L 302.468997 116.985776 
L 302.71365 117.090284 
L 302.958303 116.079466 
L 303.202956 115.990114 
L 303.447609 116.453823 
L 303.692262 115.068631 
L 304.181568 122.664729 
L 304.426221 116.894393 
L 304.670874 117.329487 
L 304.915527 116.240267 
L 305.16018 113.01538 
L 305.404833 113.658967 
L 305.649486 109.333575 
L 305.894139 109.368173 
L 306.138792 103.345033 
L 306.383445 101.483182 
L 306.628098 101.968062 
L 306.872751 105.029831 
L 307.117404 102.975024 
L 307.362057 102.765468 
L 307.60671 99.561181 
L 308.096016 97.041998 
L 308.340669 99.440786 
L 308.585322 99.004247 
L 308.829975 98.253628 
L 309.074628 97.938818 
L 309.319281 99.327691 
L 309.563934 95.976187 
L 309.808587 95.188653 
L 310.05324 93.993084 
L 310.297893 96.784766 
L 310.542546 97.36795 
L 310.787199 99.614855 
L 311.031852 97.83696 
L 311.276505 98.958444 
L 311.521158 99.402093 
L 311.765811 100.247016 
L 312.010464 97.457936 
L 312.255117 97.634577 
L 312.49977 97.129445 
L 312.744423 98.960793 
L 312.989076 99.328834 
L 313.233729 101.198525 
L 313.478382 99.863834 
L 313.723035 101.229124 
L 313.967688 98.739778 
L 314.212341 101.076829 
L 314.456994 100.699901 
L 314.701647 102.125245 
L 314.9463 101.436585 
L 315.190953 103.386868 
L 315.435607 103.104624 
L 315.68026 103.225527 
L 315.924913 101.633001 
L 316.169566 103.03911 
L 316.658872 109.575 
L 316.903525 116.120952 
L 317.148178 115.466477 
L 317.392831 120.446423 
L 317.637484 120.108108 
L 317.882137 118.41658 
L 318.12679 120.053846 
L 318.616096 118.426594 
L 319.105402 114.306109 
L 319.350055 116.003001 
L 319.594708 121.212992 
L 320.084014 115.382394 
L 320.328667 116.08702 
L 320.57332 113.647445 
L 321.062626 114.304332 
L 321.307279 116.679155 
L 321.551932 111.954172 
L 322.041238 118.213594 
L 322.285891 121.42642 
L 322.530544 119.734877 
L 323.01985 120.77639 
L 323.264503 122.915724 
L 323.509156 121.713076 
L 323.753809 121.565241 
L 324.243115 119.626639 
L 324.487768 117.561754 
L 324.732421 126.001077 
L 324.977074 127.608537 
L 325.221727 127.945963 
L 325.46638 125.44408 
L 325.711033 127.805238 
L 325.955686 132.918973 
L 326.689645 129.976171 
L 326.934298 124.575557 
L 327.178951 122.745654 
L 327.423604 119.396673 
L 327.668257 113.448585 
L 327.91291 111.764009 
L 328.157563 115.481364 
L 328.402216 122.921628 
L 328.646869 121.502441 
L 328.891522 114.644059 
L 329.380828 115.452384 
L 329.625481 110.016839 
L 330.114787 108.782355 
L 330.604093 112.880479 
L 330.848746 113.339014 
L 331.093399 113.293846 
L 331.338052 111.988738 
L 331.582705 112.381156 
L 331.827358 114.626411 
L 332.072011 107.782249 
L 332.316664 107.182433 
L 332.561317 106.036222 
L 333.050623 98.924703 
L 333.295276 99.551023 
L 333.539929 98.555837 
L 333.784582 102.440151 
L 334.029235 101.515812 
L 334.273888 98.088065 
L 334.518541 98.612527 
L 334.763194 101.403162 
L 335.007847 101.793485 
L 335.2525 101.01322 
L 335.497153 101.777043 
L 335.741806 101.774186 
L 335.986459 104.211064 
L 336.231112 101.608877 
L 336.475765 100.929327 
L 336.720418 104.153898 
L 336.965071 104.183163 
L 337.209724 103.241176 
L 337.454377 100.407119 
L 337.69903 101.136598 
L 337.943684 103.212323 
L 338.188337 103.129256 
L 338.43299 100.80598 
L 338.677643 100.287962 
L 338.922296 102.184983 
L 339.166949 101.893851 
L 339.411602 96.102454 
L 339.656255 95.959428 
L 339.900908 96.554451 
L 340.145561 94.535797 
L 340.390214 94.509738 
L 340.634867 94.367346 
L 341.124173 96.74947 
L 341.368826 97.675999 
L 341.613479 95.098063 
L 341.858132 98.620399 
L 342.102785 98.11203 
L 342.592091 93.03275 
L 342.836744 91.129095 
L 343.081397 91.073421 
L 343.32605 87.727916 
L 343.570703 86.332408 
L 343.815356 87.702618 
L 344.304662 80.39589 
L 344.549315 79.965446 
L 344.793968 80.880454 
L 345.038621 78.598696 
L 345.527927 81.073663 
L 346.017233 74.804718 
L 346.261886 74.875723 
L 346.751192 78.747595 
L 346.995845 76.471455 
L 347.240498 77.293683 
L 347.729804 75.469604 
L 347.974457 76.375787 
L 348.708416 71.354435 
L 348.953069 75.226116 
L 349.197722 77.227788 
L 349.687028 74.868264 
L 349.931681 74.801004 
L 350.176334 77.391891 
L 350.420987 76.309702 
L 350.66564 76.909137 
L 351.399599 77.552787 
L 351.644252 78.855642 
L 351.888905 78.472588 
L 352.133558 76.517131 
L 352.378211 76.088369 
L 352.622864 74.470926 
L 352.867517 74.063717 
L 353.11217 77.48029 
L 353.356823 79.161248 
L 353.601476 75.879797 
L 353.846129 74.975328 
L 354.090782 75.88624 
L 355.314047 61.204794 
L 355.5587 57.318925 
L 355.803353 57.507437 
L 356.048006 61.311731 
L 356.292659 59.683115 
L 356.537312 59.590176 
L 356.781965 60.31883 
L 357.515924 54.866526 
L 357.760577 53.674449 
L 358.00523 57.393073 
L 358.494536 55.449392 
L 358.739189 54.198339 
L 359.228495 58.978172 
L 359.473148 58.012315 
L 359.717801 58.112554 
L 359.962454 60.475982 
L 360.207107 59.481367 
L 360.451761 57.674301 
L 360.941067 62.04048 
L 361.18572 62.951425 
L 361.430373 60.239985 
L 361.675026 59.361226 
L 362.164332 61.077988 
L 362.408985 59.673846 
L 362.653638 63.276805 
L 362.898291 64.31754 
L 363.142944 66.012464 
L 363.387597 62.577925 
L 363.63225 56.487588 
L 363.876903 56.068317 
L 364.121556 56.051335 
L 364.366209 51.843767 
L 364.855515 56.907145 
L 365.100168 59.043464 
L 365.344821 67.453965 
L 365.589474 67.435745 
L 366.07878 63.394439 
L 366.323433 66.45662 
L 366.568086 62.551833 
L 366.812739 62.799257 
L 367.302045 65.961233 
L 367.546698 66.648782 
L 368.036004 69.618851 
L 368.280657 65.337802 
L 368.52531 64.015807 
L 368.769963 65.329105 
L 369.014616 62.731616 
L 369.259269 65.923366 
L 369.503922 64.2047 
L 369.748575 76.977634 
L 369.993228 77.494796 
L 370.237881 81.635612 
L 370.482534 77.226931 
L 370.727187 78.242939 
L 370.97184 74.741997 
L 371.216493 74.822049 
L 371.461146 71.579418 
L 371.705799 70.663617 
L 372.195105 68.021309 
L 372.439758 63.730325 
L 372.684411 62.589066 
L 372.929064 64.394037 
L 373.173717 59.626107 
L 373.41837 61.85892 
L 373.663023 60.11375 
L 373.907676 61.278434 
L 374.152329 70.05869 
L 374.396982 65.79183 
L 374.886288 77.243341 
L 375.130941 72.797682 
L 375.375594 71.174208 
L 375.8649 74.194872 
L 376.354206 67.152009 
L 376.598859 70.344584 
L 376.843512 70.60553 
L 377.088165 70.329253 
L 377.332818 68.248546 
L 377.577471 63.535148 
L 377.822124 56.647437 
L 378.066777 54.705693 
L 378.31143 51.150854 
L 378.556083 53.734154 
L 378.800736 50.573225 
L 379.045389 50.657467 
L 379.290042 51.720547 
L 379.534695 54.028015 
L 379.779348 54.782761 
L 380.024001 54.878556 
L 380.268654 52.553377 
L 380.513307 52.218283 
L 380.75796 50.357511 
L 381.002613 47.28295 
L 381.247266 47.46578 
L 381.491919 48.877445 
L 381.736572 44.489173 
L 381.981225 43.527982 
L 382.715184 37.967789 
L 382.959838 37.450057 
L 383.204491 37.378607 
L 383.93845 39.553967 
L 384.183103 38.59503 
L 384.427756 41.608679 
L 384.672409 40.226947 
L 384.917062 43.674596 
L 385.161715 42.424654 
L 385.406368 44.491554 
L 385.895674 40.786769 
L 386.140327 38.165411 
L 386.38498 38.103008 
L 386.629633 34.414125 
L 386.874286 35.00845 
L 387.118939 39.166723 
L 387.363592 37.35442 
L 387.608245 38.136653 
L 387.852898 43.312014 
L 387.852898 43.312014 
" style="fill:none;stroke:#1f77b4;stroke-linecap:square;stroke-width:1.5;"/>
   </g>
   <g id="line2d_28">
    <path clip-path="url(#p7bbec4d192)" d="M 63.198352 271.508061 
L 63.443005 272.464953 
L 63.687658 274.690767 
L 64.176964 276.334125 
L 64.421617 274.461945 
L 64.66627 275.065203 
L 65.400229 272.672973 
L 65.644882 272.860191 
L 65.889535 273.359439 
L 66.134188 269.427861 
L 66.378841 268.824603 
L 66.623494 266.099541 
L 66.868147 265.225857 
L 67.357453 266.078739 
L 67.602106 265.413075 
L 67.846759 265.600293 
L 68.091412 264.747411 
L 68.336066 265.350669 
L 68.580719 265.641897 
L 68.825372 264.997035 
L 69.070025 265.454679 
L 69.314678 265.184253 
L 69.559331 265.101045 
L 69.803984 265.621095 
L 70.048637 263.312073 
L 70.29329 264.123351 
L 70.537943 264.040143 
L 70.782596 265.246659 
L 71.027249 264.560193 
L 71.516555 259.546911 
L 71.761208 260.691021 
L 72.005861 260.795031 
L 72.250514 259.526109 
L 72.495167 259.921347 
L 72.73982 259.630119 
L 72.984473 259.692525 
L 73.229126 259.006059 
L 73.473779 260.150169 
L 73.963085 257.653929 
L 74.207738 257.237889 
L 74.452391 257.737137 
L 74.697044 254.741649 
L 74.941697 254.804055 
L 75.18635 251.766963 
L 75.920309 258.964455 
L 76.164962 260.483001 
L 76.409615 259.338891 
L 76.654268 257.071473 
L 76.898921 256.634631 
L 77.388227 254.679243 
L 77.877533 254.179995 
L 78.122186 254.783253 
L 78.366839 255.760947 
L 78.856145 258.340395 
L 79.345451 253.722351 
L 79.590104 254.221599 
L 80.07941 252.973479 
L 80.324063 254.284005 
L 80.568716 256.634631 
L 80.813369 256.426611 
L 81.058022 256.010571 
L 81.302675 251.392527 
L 81.547328 255.365709 
L 81.791981 255.823353 
L 82.52594 250.477239 
L 82.770593 249.915585 
L 83.015246 248.397039 
L 83.259899 248.709069 
L 83.504552 249.769971 
L 83.749205 248.376237 
L 83.993858 249.603555 
L 84.238511 247.876989 
L 84.483164 248.064207 
L 84.727817 249.603555 
L 84.97247 250.061199 
L 85.217123 249.395535 
L 85.461776 249.166713 
L 85.706429 252.099795 
L 85.951082 252.411825 
L 86.195735 252.328617 
L 86.685041 254.138391 
L 86.929694 251.538141 
L 87.174347 252.183003 
L 87.419 254.741649 
L 87.663653 254.325609 
L 87.908306 255.677739 
L 88.152959 255.157689 
L 88.397612 256.052175 
L 88.642265 256.197789 
L 88.886918 257.071473 
L 89.376224 251.184507 
L 89.86553 251.808567 
L 90.110183 252.515835 
L 90.354836 251.725359 
L 90.599489 251.829369 
L 90.844143 250.893279 
L 91.088796 250.726863 
L 91.333449 251.184507 
L 91.578102 250.206813 
L 91.822755 250.394031 
L 92.067408 247.918593 
L 92.801367 244.985511 
L 93.04602 243.134132 
L 93.290673 242.156438 
L 93.535326 242.655686 
L 93.779979 243.446162 
L 94.024632 243.362954 
L 94.269285 244.028619 
L 94.513938 243.238142 
L 94.758591 245.193531 
L 95.003244 245.131125 
L 95.247897 244.548669 
L 95.49255 245.297541 
L 95.737203 243.841401 
L 95.981856 245.151927 
L 96.226509 243.196538 
L 96.471162 242.926112 
L 96.715815 243.154934 
L 96.960468 242.780498 
L 97.205121 242.718092 
L 97.449774 245.027115 
L 97.694427 249.312327 
L 97.93908 246.816087 
L 98.183733 250.269219 
L 98.428386 242.69729 
L 99.162345 239.639396 
L 99.406998 237.018344 
L 99.651651 236.643908 
L 99.896304 236.623106 
L 100.140957 237.101552 
L 100.38561 234.771728 
L 100.630263 234.875738 
L 100.874916 236.061452 
L 101.119569 236.04065 
L 101.364222 237.122354 
L 101.608875 239.597792 
L 101.853528 238.973732 
L 102.098181 240.138644 
L 102.587487 239.805812 
L 102.83214 238.53689 
L 103.076793 238.724108 
L 103.321446 237.517592 
L 103.566099 238.349672 
L 103.810752 238.079246 
L 104.055405 238.308068 
L 104.300058 235.499798 
L 104.544711 236.87273 
L 104.789364 236.186264 
L 105.034017 237.49679 
L 105.27867 235.083758 
L 105.523323 235.125362 
L 105.767976 234.106064 
L 106.012629 233.669222 
L 106.257282 230.091278 
L 106.501935 232.982756 
L 106.991241 231.797042 
L 107.235894 232.462706 
L 107.480547 229.300802 
L 107.7252 229.59203 
L 107.969853 230.590526 
L 108.214506 230.798546 
L 108.459159 230.611328 
L 108.703812 230.652932 
L 108.948465 229.987268 
L 109.193118 230.652932 
L 109.437771 231.88025 
L 109.927077 229.38401 
L 110.17173 226.67975 
L 110.416383 227.074988 
L 111.150342 225.1196 
L 111.884301 221.229626 
L 112.128954 223.580252 
L 112.373607 223.35143 
L 112.61826 223.55945 
L 112.862913 219.50306 
L 113.107566 217.464464 
L 113.35222 219.08702 
L 113.596873 218.920604 
L 113.841526 217.194038 
L 114.086179 217.880504 
L 114.330832 217.984514 
L 114.575485 219.60707 
L 114.820138 218.733386 
L 115.309444 227.012582 
L 115.79875 219.440654 
L 116.043403 221.541656 
L 116.288056 221.79128 
L 116.532709 224.308322 
L 117.022015 223.913084 
L 117.266668 224.849174 
L 117.511321 222.664964 
L 117.755974 225.286016 
L 118.000627 229.571228 
L 118.24528 229.675238 
L 118.489933 230.3201 
L 118.734586 229.009574 
L 118.979239 225.826868 
L 119.223892 224.578748 
L 119.468545 222.082508 
L 119.713198 223.330628 
L 120.447157 220.376744 
L 120.69181 218.442158 
L 120.936463 217.443662 
L 121.181116 218.067722 
L 121.425769 217.11083 
L 121.670422 215.696294 
L 122.159728 216.361958 
L 122.404381 215.904314 
L 122.649034 216.777998 
L 122.893687 217.048424 
L 123.13834 216.819602 
L 123.382993 216.424364 
L 123.627646 216.257948 
L 123.872299 218.920604 
L 124.116952 219.440654 
L 124.606258 219.731882 
L 124.850911 218.837396 
L 125.095564 219.648674 
L 125.340217 216.341156 
L 125.58487 217.52687 
L 125.829523 216.715592 
L 126.074176 219.253436 
L 126.318829 216.736394 
L 126.563482 218.962208 
L 127.052788 217.984514 
L 127.542094 226.929374 
L 127.786747 226.430126 
L 128.0314 226.78376 
L 128.520706 229.862456 
L 128.765359 229.300802 
L 129.010012 229.529624 
L 129.254665 226.326116 
L 129.499318 229.051178 
L 129.743971 227.158196 
L 129.988624 227.116592 
L 130.47793 229.508822 
L 130.722583 229.009574 
L 130.967236 231.401804 
L 131.211889 232.005062 
L 131.945848 227.137394 
L 132.190501 226.388522 
L 132.435154 226.99178 
L 132.92446 225.556442 
L 133.413766 219.9191 
L 133.903072 225.32762 
L 134.147725 225.057194 
L 134.392378 226.138898 
L 134.637031 224.994788 
L 135.126337 225.452432 
L 135.37099 224.59955 
L 135.615643 224.474738 
L 135.860297 225.390026 
L 136.10495 225.598046 
L 136.594256 228.739148 
L 136.838909 229.009574 
L 137.328215 224.474738 
L 137.572868 224.412332 
L 137.817521 226.846166 
L 138.062174 227.345414 
L 138.306827 225.681254 
L 138.55148 227.865464 
L 138.796133 228.011078 
L 139.285439 227.054186 
L 139.530092 223.517846 
L 139.774745 224.620352 
L 140.019398 225.01559 
L 140.264051 222.020102 
L 140.508704 221.229626 
L 140.753357 221.208824 
L 140.99801 223.081004 
L 141.242663 223.060202 
L 141.731969 224.266718 
L 141.976622 225.785264 
L 142.465928 226.450928 
L 142.710581 224.765966 
L 143.44454 216.757196 
L 143.689193 217.506068 
L 143.933846 216.029126 
L 144.178499 217.339652 
L 144.423152 217.173236 
L 144.667805 218.525366 
L 145.401764 215.44667 
L 145.646417 215.425868 
L 146.135723 219.50306 
L 146.380376 220.147922 
L 146.625029 219.856694 
L 146.869682 217.152434 
L 147.114335 217.651682 
L 147.358988 219.71108 
L 147.603641 218.899802 
L 147.848294 219.877496 
L 148.092947 218.879 
L 148.3376 218.691782 
L 148.582253 219.690278 
L 148.826906 216.715592 
L 149.071559 216.923612 
L 149.316212 216.736394 
L 149.560865 215.65469 
L 149.805518 215.488274 
L 150.050171 213.595292 
L 150.294824 213.408074 
L 150.78413 211.951934 
L 151.028783 212.617598 
L 151.273436 212.888024 
L 151.518089 214.531382 
L 152.007395 212.804816 
L 152.252048 213.553688 
L 152.496701 212.6384 
L 152.741354 214.801808 
L 153.23066 214.593788 
L 153.475313 214.19855 
L 153.719966 214.739402 
L 153.964619 215.86271 
L 154.209272 216.403562 
L 154.453925 216.320354 
L 154.698578 218.56697 
L 154.943231 219.024614 
L 155.187884 219.856694 
L 155.432537 223.725866 
L 155.67719 223.205816 
L 155.921843 223.372232 
L 156.166496 227.033384 
L 156.411149 227.283008 
L 156.655802 226.67975 
L 156.900455 224.80757 
L 157.145108 224.204312 
L 157.389761 224.28752 
L 157.634414 223.684262 
L 157.879067 222.477746 
L 158.368374 221.125616 
L 158.613027 221.874488 
L 158.85768 224.204312 
L 159.102333 222.061706 
L 159.346986 221.520854 
L 159.591639 221.250428 
L 159.836292 214.781006 
L 160.080945 213.283262 
L 160.325598 212.721608 
L 160.570251 212.596796 
L 160.814904 212.659202 
L 161.059557 210.849428 
L 161.30421 210.76622 
L 161.548863 211.80632 
L 161.793516 211.515092 
L 162.038169 212.284766 
L 162.527475 215.65469 
L 162.772128 219.315842 
L 163.016781 218.109326 
L 163.506087 217.194038 
L 163.75074 217.339652 
L 164.240046 215.945918 
L 164.484699 217.52687 
L 164.729352 217.922108 
L 164.974005 219.170228 
L 165.218658 219.565466 
L 165.463311 219.482258 
L 166.19727 216.923612 
L 166.686576 219.482258 
L 166.931229 222.789776 
L 167.175882 222.83138 
L 167.420535 221.47925 
L 167.909841 225.764462 
L 168.154494 225.202808 
L 168.399147 225.369224 
L 169.133106 221.06321 
L 169.377759 217.506068 
L 169.622412 219.898298 
L 169.867065 217.298048 
L 170.111718 218.109326 
L 170.356371 216.465968 
L 170.601024 217.818098 
L 170.845677 217.8389 
L 171.09033 218.213336 
L 171.334983 218.067722 
L 171.579636 219.544664 
L 171.824289 222.186518 
L 172.068942 222.893786 
L 172.313595 222.956192 
L 172.802901 220.418348 
L 173.292207 224.49554 
L 173.53686 224.641154 
L 173.781513 222.31133 
L 174.026166 224.100302 
L 174.270819 221.06321 
L 174.515472 220.813586 
L 175.004778 218.525366 
L 175.249431 217.464464 
L 175.494084 217.485266 
L 175.98339 216.341156 
L 176.228043 215.072234 
L 176.962002 216.029126 
L 177.206655 215.488274 
L 177.451308 215.55068 
L 177.695961 215.280254 
L 177.940614 217.21484 
L 178.185267 220.085516 
L 178.42992 220.834388 
L 179.163879 215.34266 
L 179.653185 216.465968 
L 179.897838 215.488274 
L 180.142491 215.925116 
L 180.387144 215.717096 
L 180.631798 215.259452 
L 180.876451 214.468976 
L 181.121104 214.82261 
L 181.365757 213.033638 
L 181.855063 212.555192 
L 182.344369 215.23865 
L 182.589022 215.301056 
L 182.833675 218.067722 
L 183.078328 217.63088 
L 183.322981 217.94291 
L 183.567634 217.11083 
L 184.05694 217.755692 
L 184.301593 216.653186 
L 184.546246 217.42286 
L 185.035552 214.697798 
L 185.280205 214.323362 
L 185.524858 214.676996 
L 185.769511 214.593788 
L 186.014164 214.781006 
L 186.258817 213.15845 
L 186.748123 217.339652 
L 186.992776 216.757196 
L 187.237429 216.757196 
L 187.482082 215.737898 
L 187.726735 215.841908 
L 187.971388 211.764716 
L 188.216041 210.828626 
L 188.460694 210.745418 
L 188.705347 210.329378 
L 188.95 208.79003 
L 189.439306 209.351684 
L 189.683959 199.699556 
L 189.928612 194.457452 
L 190.173265 193.625372 
L 190.417918 193.874996 
L 190.662571 193.521362 
L 191.39653 190.7963 
L 191.641183 188.736902 
L 192.130489 198.097802 
L 192.375142 196.163216 
L 192.619795 192.66848 
L 192.864448 194.311838 
L 193.109101 198.243416 
L 193.353754 197.577752 
L 193.598407 197.640158 
L 193.84306 198.430634 
L 194.087713 197.307326 
L 194.821672 191.669984 
L 195.066325 191.149934 
L 195.555631 192.918104 
L 195.800284 189.735398 
L 196.044937 192.065222 
L 196.28959 190.109834 
L 196.534243 190.026626 
L 197.023549 193.895798 
L 197.512855 188.653694 
L 197.757508 189.23615 
L 198.002161 190.879508 
L 198.246814 187.509584 
L 198.491467 189.631388 
L 198.73612 190.713092 
L 198.980773 194.769482 
L 199.225426 195.809582 
L 199.470079 200.490032 
L 199.959385 195.518354 
L 200.204038 192.169232 
L 200.448691 187.280762 
L 200.693344 189.069734 
L 200.937997 186.032642 
L 201.18265 185.637404 
L 201.427303 184.638908 
L 201.671956 182.309084 
L 201.916609 182.662718 
L 202.161262 180.374498 
L 202.405915 180.374498 
L 202.650568 183.349184 
L 203.139875 183.994046 
L 203.384528 180.852944 
L 203.873834 179.04317 
L 204.118487 179.084774 
L 204.607793 177.295801 
L 204.852446 178.876754 
L 205.097099 179.313596 
L 205.341752 183.578006 
L 206.075711 178.793546 
L 206.320364 178.543922 
L 206.565017 181.4354 
L 206.80967 180.000062 
L 207.054323 176.463721 
L 207.543629 179.04317 
L 208.277588 175.964473 
L 208.522241 174.321115 
L 209.011547 177.420613 
L 209.2562 174.653947 
L 209.500853 175.673245 
L 209.745506 175.111591 
L 209.990159 181.33139 
L 210.724118 171.200815 
L 210.968771 167.934901 
L 211.213424 167.394049 
L 211.458077 167.810089 
L 211.70273 167.414851 
L 211.947383 165.792295 
L 212.192036 166.333147 
L 212.436689 164.877007 
L 213.170648 173.239411 
L 213.659954 161.236657 
L 213.904607 165.043423 
L 214.393913 167.456455 
L 214.638566 169.723873 
L 214.883219 173.114599 
L 215.127872 166.645177 
L 215.372525 168.454951 
L 215.617178 167.872495 
L 215.861831 162.588787 
L 216.106484 164.044927 
L 216.351137 161.985529 
L 216.59579 164.481769 
L 216.840443 165.355453 
L 217.085096 159.364477 
L 217.329749 166.021117 
L 217.574402 166.000315 
L 217.819055 160.154953 
L 218.063708 157.721119 
L 218.308361 156.514603 
L 218.553014 156.410593 
L 218.797667 157.866733 
L 219.04232 153.019867 
L 219.286973 153.768739 
L 219.531626 149.920369 
L 219.776279 150.482023 
L 220.020932 150.253201 
L 220.265585 150.274003 
L 220.510238 152.458213 
L 220.754891 149.753953 
L 220.999544 149.670745 
L 221.244197 140.372251 
L 221.48885 141.287539 
L 221.978156 144.532651 
L 222.222809 141.682777 
L 222.467462 141.786787 
L 222.712115 144.511849 
L 222.956768 142.119619 
L 223.201421 145.156711 
L 223.446074 143.492551 
L 223.690727 149.088289 
L 223.93538 148.027387 
L 224.180033 141.724381 
L 224.424686 144.387037 
L 224.669339 140.892301 
L 224.913992 142.806085 
L 225.158645 141.765985 
L 225.403298 143.679769 
L 225.647952 138.832903 
L 225.892605 141.786787 
L 226.137258 141.620371 
L 226.381911 146.758465 
L 226.626564 149.483527 
L 226.871217 146.384029 
L 227.11587 144.782275 
L 227.360523 146.904079 
L 227.605176 147.902575 
L 227.849829 144.969493 
L 228.094482 144.116611 
L 228.339135 145.468741 
L 228.583788 142.785283 
L 228.828441 144.907087 
L 229.073094 143.513353 
L 229.317747 145.177513 
L 229.5624 145.988791 
L 229.807053 147.236911 
L 230.051706 147.403327 
L 230.296359 150.045181 
L 230.541012 148.464229 
L 230.785665 147.819367 
L 231.030318 148.193803 
L 231.274971 146.176009 
L 231.519624 146.716861 
L 231.764277 151.522123 
L 232.00893 153.207085 
L 232.498236 160.695805 
L 232.742889 155.349691 
L 232.987542 154.288789 
L 233.232195 158.449189 
L 233.476848 157.929139 
L 233.966154 149.275507 
L 234.210807 150.461221 
L 234.45546 149.171497 
L 234.700113 151.938163 
L 234.944766 150.378013 
L 235.434072 145.406335 
L 235.678725 149.545933 
L 235.923378 150.045181 
L 236.168031 150.232399 
L 236.412684 149.920369 
L 236.657337 152.479015 
L 236.90199 149.920369 
L 237.146643 149.857963 
L 237.391296 151.459717 
L 237.635949 150.939667 
L 237.880602 151.106083 
L 238.125255 147.840169 
L 238.614561 153.643927 
L 239.103867 155.391295 
L 239.34852 152.375005 
L 239.593173 151.730143 
L 240.082479 154.392799 
L 240.571785 153.435907 
L 240.816438 150.565231 
L 241.305744 148.027387 
L 241.550397 147.798565 
L 241.79505 149.525131 
L 242.039703 149.753953 
L 242.284356 149.005081 
L 242.529009 153.290293 
L 242.773662 152.062975 
L 243.018315 150.107587 
L 243.262968 151.314103 
L 243.507621 151.667737 
L 243.752274 149.421121 
L 243.996927 152.333401 
L 244.24158 151.542925 
L 244.730886 144.220621 
L 244.975539 143.263729 
L 245.220192 142.806085 
L 245.464845 144.574255 
L 245.709498 145.115107 
L 245.954151 147.320119 
L 246.198804 146.384029 
L 246.443457 144.220621 
L 246.68811 144.865483 
L 246.932763 146.945683 
L 247.177416 148.027387 
L 247.666722 141.162727 
L 247.911375 140.975509 
L 248.156029 139.789795 
L 248.400682 140.081023 
L 248.889988 137.772001 
L 249.134641 140.767489 
L 249.379294 139.997815 
L 249.623947 138.604081 
L 249.8686 138.416863 
L 250.113253 138.416863 
L 250.602559 134.131651 
L 250.847212 134.235661 
L 251.091865 127.787041 
L 251.336518 127.870249 
L 251.581171 132.488293 
L 252.070477 149.129893 
L 252.31513 152.395807 
L 252.559783 142.078015 
L 252.804436 138.479269 
L 253.049089 138.770497 
L 253.293742 140.975509 
L 253.538395 148.027387 
L 253.783048 140.933905 
L 254.027701 140.684281 
L 254.272354 145.219117 
L 254.517007 141.037915 
L 254.76166 146.155207 
L 255.006313 145.073503 
L 255.250966 143.097313 
L 255.495619 144.574255 
L 255.984925 138.146437 
L 256.229578 137.959219 
L 256.474231 143.762977 
L 256.718884 140.725885 
L 256.963537 142.348441 
L 257.20819 141.578767 
L 257.452843 141.225133 
L 257.697496 140.393053 
L 257.942149 145.884781 
L 258.186802 148.360219 
L 258.676108 139.789795 
L 258.920761 138.167239 
L 259.165414 135.275761 
L 259.410067 136.357465 
L 260.144026 130.844935 
L 260.388679 129.659221 
L 260.633332 130.262479 
L 260.877985 133.049947 
L 261.367291 127.911853 
L 261.611944 127.162981 
L 261.856597 127.683031 
L 262.10125 126.746941 
L 262.345903 124.541929 
L 262.590556 124.021879 
L 262.835209 123.189799 
L 263.569168 126.060475 
L 263.813821 126.039673 
L 264.058474 124.437919 
L 264.303127 121.837669 
L 264.54778 122.420125 
L 265.037086 121.172005 
L 265.281739 124.250701 
L 265.526392 122.669749 
L 265.771045 123.813859 
L 266.015698 125.686039 
L 266.260351 133.611601 
L 266.505004 131.864233 
L 266.749657 120.755965 
L 267.238963 119.341429 
L 267.728269 107.6091 
L 268.217575 103.13667 
L 268.462228 102.949452 
L 268.706881 104.738424 
L 268.951534 103.594314 
L 269.196187 104.884038 
L 269.44084 110.875014 
L 269.685493 103.386294 
L 269.930146 104.634414 
L 270.174799 104.821632 
L 270.419452 108.85722 
L 270.664106 107.525892 
L 270.908759 111.894312 
L 271.153412 108.628398 
L 271.398065 110.126142 
L 271.642718 106.77702 
L 272.132024 112.206342 
L 272.865983 106.340178 
L 273.355289 107.234664 
L 273.599942 105.11286 
L 273.844595 105.84093 
L 274.823207 114.723385 
L 275.06786 122.378521 
L 275.312513 125.498821 
L 275.801819 118.030903 
L 276.046472 130.699321 
L 276.291125 134.402077 
L 276.535778 135.213355 
L 276.780431 134.110849 
L 277.025084 140.975509 
L 277.51439 127.870249 
L 277.759043 130.054459 
L 278.003696 129.035161 
L 278.248349 130.345687 
L 278.493002 128.868745 
L 278.737655 121.629649 
L 278.982308 120.069499 
L 279.471614 125.727643 
L 279.716267 131.302579 
L 280.205573 150.565231 
L 280.450226 146.384029 
L 280.694879 145.406335 
L 280.939532 147.611347 
L 281.673491 131.094559 
L 281.918144 133.674007 
L 282.652103 124.188295 
L 283.141409 119.341429 
L 283.386062 120.589549 
L 283.630715 125.041177 
L 283.875368 121.754461 
L 284.120021 121.983283 
L 284.364674 119.466241 
L 284.609327 122.045689 
L 285.098633 119.632657 
L 285.343286 121.067995 
L 285.587939 121.359223 
L 285.832592 116.013109 
L 286.077245 115.222633 
L 286.566551 111.87351 
L 287.055857 110.00133 
L 287.789816 112.351957 
L 288.034469 111.852708 
L 288.279122 110.562984 
L 288.768428 105.695316 
L 289.013081 105.674514 
L 289.257734 102.72063 
L 289.502387 102.72063 
L 289.74704 103.282284 
L 289.991693 101.493312 
L 290.236346 104.759226 
L 290.480999 105.279276 
L 290.725652 106.548198 
L 290.970305 103.698324 
L 291.214958 104.821632 
L 291.704264 102.387798 
L 291.948917 98.66424 
L 292.19357 101.493312 
L 292.438223 102.013362 
L 292.682876 103.24068 
L 292.92753 101.035668 
L 293.172183 101.05647 
L 293.416836 101.701332 
L 293.661489 100.84845 
L 293.906142 107.130654 
L 294.150795 104.717622 
L 294.395448 100.22439 
L 294.640101 103.365492 
L 294.884754 102.075768 
L 295.129407 103.095066 
L 295.37406 100.95246 
L 295.618713 99.829152 
L 295.863366 97.187298 
L 296.108019 103.86474 
L 296.352672 104.093562 
L 296.597325 106.298574 
L 296.841978 101.701332 
L 297.086631 108.6492 
L 297.331284 109.127646 
L 297.575937 109.210854 
L 297.82059 108.96123 
L 298.065243 109.855716 
L 298.309896 105.820128 
L 298.554549 106.15296 
L 298.799202 104.38479 
L 299.043855 104.613612 
L 299.288508 108.399576 
L 299.533161 109.002834 
L 299.777814 107.796318 
L 300.022467 109.190052 
L 300.26712 114.494563 
L 300.511773 112.976017 
L 301.245732 115.243435 
L 301.490385 117.323635 
L 301.735038 122.711353 
L 302.224344 118.301329 
L 302.468997 118.758973 
L 302.71365 117.760477 
L 302.958303 117.510853 
L 303.202956 117.802081 
L 303.447609 116.366743 
L 303.936915 123.897067 
L 304.181568 117.947695 
L 304.426221 118.280527 
L 304.670874 117.614863 
L 304.915527 113.600077 
L 305.16018 114.161731 
L 305.404833 109.543686 
L 305.649486 110.396568 
L 305.894139 103.781532 
L 306.138792 102.09657 
L 306.383445 102.741432 
L 306.628098 105.404088 
L 306.872751 103.365492 
L 307.117404 102.866244 
L 307.362057 99.621132 
L 307.851363 97.395318 
L 308.096016 100.182786 
L 308.340669 99.246696 
L 308.585322 99.2883 
L 308.829975 98.76825 
L 309.074628 99.683538 
L 309.319281 96.251208 
L 309.563934 95.668752 
L 309.808587 94.566246 
L 310.05324 97.790556 
L 310.297893 98.123388 
L 310.542546 100.22439 
L 310.787199 98.435418 
L 311.031852 99.891558 
L 311.276505 100.099578 
L 311.521158 101.16048 
L 311.765811 98.164992 
L 312.010464 99.142686 
L 312.255117 98.123388 
L 312.49977 99.849954 
L 312.744423 100.01637 
L 312.989076 102.82464 
L 313.233729 101.451708 
L 313.478382 101.701332 
L 313.723035 99.870756 
L 313.967688 102.283788 
L 314.212341 101.514114 
L 314.456994 103.739928 
L 314.701647 101.909352 
L 314.9463 104.28078 
L 315.190953 104.239176 
L 315.435607 104.010354 
L 315.68026 102.09657 
L 316.169566 107.005842 
L 316.414219 110.188548 
L 316.658872 117.510853 
L 316.903525 115.742683 
L 317.148178 121.712857 
L 317.637484 119.133409 
L 317.882137 120.901579 
L 318.12679 120.527143 
L 318.371443 119.403835 
L 318.616096 116.741179 
L 318.860749 115.409851 
L 319.105402 117.406843 
L 319.350055 122.274511 
L 319.839361 116.408347 
L 320.084014 117.115615 
L 320.328667 115.555465 
L 320.57332 115.929901 
L 320.817973 116.553961 
L 321.062626 117.843685 
L 321.307279 112.414363 
L 321.796585 118.530151 
L 322.041238 121.442431 
L 322.285891 119.695063 
L 322.530544 120.527143 
L 322.775197 120.256717 
L 323.01985 122.919373 
L 323.264503 121.671253 
L 323.509156 121.359223 
L 323.998462 119.882281 
L 324.243115 117.427645 
L 324.487768 126.663733 
L 324.977074 128.910349 
L 325.221727 126.164485 
L 325.711033 133.840423 
L 325.955686 133.008343 
L 326.200339 133.237165 
L 326.444992 131.718619 
L 326.689645 125.810851 
L 326.934298 124.770751 
L 327.178951 121.088797 
L 327.423604 114.827395 
L 327.668257 113.121631 
L 327.91291 117.656467 
L 328.157563 124.458721 
L 328.402216 122.524135 
L 328.646869 115.035415 
L 328.891522 116.283535 
L 329.136175 116.512357 
L 329.380828 110.771004 
L 329.625481 110.292558 
L 329.870134 109.543686 
L 330.35944 113.600077 
L 330.604093 114.057721 
L 330.848746 113.912107 
L 331.093399 113.080027 
L 331.338052 113.475265 
L 331.582705 115.430653 
L 331.827358 107.692308 
L 332.072011 107.546694 
L 332.561317 103.282284 
L 332.80597 99.205092 
L 333.050623 100.370004 
L 333.295276 100.661232 
L 333.539929 102.179778 
L 333.784582 101.493312 
L 334.029235 98.019378 
L 334.273888 98.601834 
L 334.518541 101.514114 
L 334.763194 102.30459 
L 335.007847 101.867748 
L 335.2525 102.262986 
L 335.497153 102.20058 
L 335.741806 104.322384 
L 335.986459 103.843938 
L 336.231112 101.3685 
L 336.475765 104.69682 
L 336.720418 105.466494 
L 336.965071 103.843938 
L 337.209724 100.12038 
L 337.454377 100.95246 
L 337.69903 102.262986 
L 337.943684 102.325392 
L 338.188337 100.474014 
L 338.43299 99.995568 
L 338.677643 101.597322 
L 338.922296 101.16048 
L 339.166949 96.022386 
L 339.411602 96.043188 
L 339.656255 97.249704 
L 339.900908 95.211108 
L 340.145561 95.481534 
L 340.390214 95.190306 
L 340.634867 97.041684 
L 340.87952 97.332912 
L 341.124173 98.35221 
L 341.368826 96.209604 
L 341.613479 99.309102 
L 341.858132 98.97627 
L 342.592091 92.31963 
L 342.836744 92.278026 
L 343.32605 87.451962 
L 343.570703 88.804092 
L 344.060009 81.564996 
L 344.304662 81.08655 
L 344.549315 82.209858 
L 344.793968 79.63041 
L 345.283274 81.793818 
L 345.77258 75.47001 
L 346.017233 75.761238 
L 346.261886 77.175774 
L 346.506539 79.484796 
L 346.751192 77.612616 
L 346.995845 78.236676 
L 347.240498 77.75823 
L 347.485151 76.551714 
L 347.729804 77.113368 
L 348.463763 72.03768 
L 348.953069 78.257478 
L 349.442375 75.386802 
L 349.687028 75.969258 
L 349.931681 77.716626 
L 350.176334 77.03016 
L 350.66564 77.55021 
L 350.910293 77.799834 
L 351.399599 78.819132 
L 351.644252 78.195072 
L 351.888905 76.946952 
L 352.133558 77.175774 
L 352.378211 74.929158 
L 352.622864 74.94996 
L 352.867517 78.403092 
L 353.11217 79.713618 
L 353.356823 76.801338 
L 353.601476 75.865248 
L 353.846129 76.988556 
L 355.314047 58.474776 
L 355.5587 58.51638 
L 355.803353 62.447958 
L 356.048006 60.90861 
L 356.292659 60.8046 
L 356.537312 61.095828 
L 357.515924 54.293574 
L 357.760577 58.30836 
L 358.494536 54.023148 
L 358.739189 58.537182 
L 358.983842 59.34846 
L 359.228495 58.10034 
L 359.473148 58.807608 
L 359.717801 61.158234 
L 359.962454 60.8046 
L 360.207107 57.767508 
L 360.696414 63.134424 
L 360.941067 63.904098 
L 361.18572 60.49257 
L 361.430373 60.07653 
L 361.919679 62.46876 
L 362.164332 60.887808 
L 362.408985 63.9249 
L 362.898291 66.670764 
L 363.142944 62.905602 
L 363.387597 57.143448 
L 363.63225 57.122646 
L 363.876903 57.393072 
L 364.121556 52.879038 
L 364.855515 59.806104 
L 365.100168 68.480538 
L 365.344821 68.251716 
L 365.834127 64.486554 
L 366.07878 66.712368 
L 366.323433 64.13292 
L 366.568086 62.863998 
L 366.812739 65.609862 
L 367.057392 66.94119 
L 367.302045 66.566754 
L 367.791351 69.95748 
L 368.036004 65.817882 
L 368.280657 64.361742 
L 368.52531 65.214624 
L 368.769963 63.113622 
L 369.014616 66.691566 
L 369.259269 64.34094 
L 369.503922 77.383794 
L 369.748575 78.17427 
L 369.993228 82.480284 
L 370.237881 77.508606 
L 370.482534 78.091062 
L 370.727187 75.927654 
L 370.97184 75.199584 
L 371.216493 72.03768 
L 371.461146 71.51763 
L 371.705799 70.1655 
L 371.950452 69.562242 
L 372.195105 65.48505 
L 372.439758 64.23693 
L 372.684411 64.23693 
L 372.929064 60.263748 
L 373.173717 63.134424 
L 373.41837 61.054224 
L 373.663023 62.343948 
L 373.907676 70.851966 
L 374.152329 66.52515 
L 374.641635 76.426902 
L 374.886288 72.86976 
L 375.130941 71.392818 
L 375.620247 74.84595 
L 376.109553 68.314122 
L 376.354206 71.538432 
L 376.598859 71.2056 
L 376.843512 71.476026 
L 377.088165 69.583044 
L 377.332818 65.110614 
L 377.577471 57.559488 
L 378.066777 51.110868 
L 378.31143 53.794326 
L 378.556083 50.590818 
L 378.800736 50.361996 
L 379.045389 51.693324 
L 379.534695 54.959238 
L 379.779348 55.271268 
L 380.024001 53.149464 
L 380.268654 52.088562 
L 381.002613 47.782548 
L 381.247266 48.489816 
L 381.736572 42.998087 
L 381.981225 42.041195 
L 382.225878 39.648965 
L 382.470531 39.399341 
L 382.715184 37.672775 
L 383.204491 38.525657 
L 383.449144 39.669767 
L 383.693797 39.482549 
L 383.93845 40.855481 
L 384.183103 41.105105 
L 384.427756 41.625155 
L 384.672409 43.434929 
L 384.917062 43.226909 
L 385.161715 43.663751 
L 385.406368 43.268513 
L 385.895674 37.859993 
L 386.140327 37.776785 
L 386.38498 34.490069 
L 386.629633 35.134931 
L 386.874286 39.357737 
L 387.118939 38.380043 
L 387.363592 39.212123 
L 387.608245 44.766257 
L 387.852898 41.271521 
L 387.852898 41.271521 
" style="fill:none;stroke:#ff7f0e;stroke-linecap:square;stroke-width:1.5;"/>
   </g>
   <g id="patch_3">
    <path d="M 46.965625 288.430125 
L 46.965625 22.318125 
" style="fill:none;stroke:#000000;stroke-linecap:square;stroke-linejoin:miter;stroke-width:0.8;"/>
   </g>
   <g id="patch_4">
    <path d="M 404.085625 288.430125 
L 404.085625 22.318125 
" style="fill:none;stroke:#000000;stroke-linecap:square;stroke-linejoin:miter;stroke-width:0.8;"/>
   </g>
   <g id="patch_5">
    <path d="M 46.965625 288.430125 
L 404.085625 288.430125 
" style="fill:none;stroke:#000000;stroke-linecap:square;stroke-linejoin:miter;stroke-width:0.8;"/>
   </g>
   <g id="patch_6">
    <path d="M 46.965625 22.318125 
L 404.085625 22.318125 
" style="fill:none;stroke:#000000;stroke-linecap:square;stroke-linejoin:miter;stroke-width:0.8;"/>
   </g>
   <g id="text_16">
    <!-- Training: HD -->
    <defs>
     <path d="M -0.296875 72.90625 
L 61.375 72.90625 
L 61.375 64.59375 
L 35.5 64.59375 
L 35.5 0 
L 25.59375 0 
L 25.59375 64.59375 
L -0.296875 64.59375 
z
" id="DejaVuSans-84"/>
     <path d="M 54.890625 33.015625 
L 54.890625 0 
L 45.90625 0 
L 45.90625 32.71875 
Q 45.90625 40.484375 42.875 44.328125 
Q 39.84375 48.1875 33.796875 48.1875 
Q 26.515625 48.1875 22.3125 43.546875 
Q 18.109375 38.921875 18.109375 30.90625 
L 18.109375 0 
L 9.078125 0 
L 9.078125 54.6875 
L 18.109375 54.6875 
L 18.109375 46.1875 
Q 21.34375 51.125 25.703125 53.5625 
Q 30.078125 56 35.796875 56 
Q 45.21875 56 50.046875 50.171875 
Q 54.890625 44.34375 54.890625 33.015625 
z
" id="DejaVuSans-110"/>
     <path d="M 45.40625 27.984375 
Q 45.40625 37.75 41.375 43.109375 
Q 37.359375 48.484375 30.078125 48.484375 
Q 22.859375 48.484375 18.828125 43.109375 
Q 14.796875 37.75 14.796875 27.984375 
Q 14.796875 18.265625 18.828125 12.890625 
Q 22.859375 7.515625 30.078125 7.515625 
Q 37.359375 7.515625 41.375 12.890625 
Q 45.40625 18.265625 45.40625 27.984375 
z
M 54.390625 6.78125 
Q 54.390625 -7.171875 48.1875 -13.984375 
Q 42 -20.796875 29.203125 -20.796875 
Q 24.46875 -20.796875 20.265625 -20.09375 
Q 16.0625 -19.390625 12.109375 -17.921875 
L 12.109375 -9.1875 
Q 16.0625 -11.328125 19.921875 -12.34375 
Q 23.78125 -13.375 27.78125 -13.375 
Q 36.625 -13.375 41.015625 -8.765625 
Q 45.40625 -4.15625 45.40625 5.171875 
L 45.40625 9.625 
Q 42.625 4.78125 38.28125 2.390625 
Q 33.9375 0 27.875 0 
Q 17.828125 0 11.671875 7.65625 
Q 5.515625 15.328125 5.515625 27.984375 
Q 5.515625 40.671875 11.671875 48.328125 
Q 17.828125 56 27.875 56 
Q 33.9375 56 38.28125 53.609375 
Q 42.625 51.21875 45.40625 46.390625 
L 45.40625 54.6875 
L 54.390625 54.6875 
z
" id="DejaVuSans-103"/>
     <path d="M 11.71875 12.40625 
L 22.015625 12.40625 
L 22.015625 0 
L 11.71875 0 
z
M 11.71875 51.703125 
L 22.015625 51.703125 
L 22.015625 39.3125 
L 11.71875 39.3125 
z
" id="DejaVuSans-58"/>
     <path d="M 9.8125 72.90625 
L 19.671875 72.90625 
L 19.671875 43.015625 
L 55.515625 43.015625 
L 55.515625 72.90625 
L 65.375 72.90625 
L 65.375 0 
L 55.515625 0 
L 55.515625 34.71875 
L 19.671875 34.71875 
L 19.671875 0 
L 9.8125 0 
z
" id="DejaVuSans-72"/>
    </defs>
    <g transform="translate(188.794375 16.318125)scale(0.12 -0.12)">
     <use xlink:href="#DejaVuSans-84"/>
     <use x="46.333984" xlink:href="#DejaVuSans-114"/>
     <use x="87.447266" xlink:href="#DejaVuSans-97"/>
     <use x="148.726562" xlink:href="#DejaVuSans-105"/>
     <use x="176.509766" xlink:href="#DejaVuSans-110"/>
     <use x="239.888672" xlink:href="#DejaVuSans-105"/>
     <use x="267.671875" xlink:href="#DejaVuSans-110"/>
     <use x="331.050781" xlink:href="#DejaVuSans-103"/>
     <use x="394.527344" xlink:href="#DejaVuSans-58"/>
     <use x="428.21875" xlink:href="#DejaVuSans-32"/>
     <use x="460.005859" xlink:href="#DejaVuSans-72"/>
     <use x="535.201172" xlink:href="#DejaVuSans-68"/>
    </g>
   </g>
   <g id="legend_1">
    <g id="patch_7">
     <path d="M 53.965625 59.674375 
L 137.69375 59.674375 
Q 139.69375 59.674375 139.69375 57.674375 
L 139.69375 29.318125 
Q 139.69375 27.318125 137.69375 27.318125 
L 53.965625 27.318125 
Q 51.965625 27.318125 51.965625 29.318125 
L 51.965625 57.674375 
Q 51.965625 59.674375 53.965625 59.674375 
z
" style="fill:#ffffff;opacity:0.8;stroke:#cccccc;stroke-linejoin:miter;"/>
    </g>
    <g id="line2d_29">
     <path d="M 55.965625 35.416562 
L 75.965625 35.416562 
" style="fill:none;stroke:#1f77b4;stroke-linecap:square;stroke-width:1.5;"/>
    </g>
    <g id="line2d_30"/>
    <g id="text_17">
     <!-- Predicted -->
     <defs>
      <path d="M 45.40625 46.390625 
L 45.40625 75.984375 
L 54.390625 75.984375 
L 54.390625 0 
L 45.40625 0 
L 45.40625 8.203125 
Q 42.578125 3.328125 38.25 0.953125 
Q 33.9375 -1.421875 27.875 -1.421875 
Q 17.96875 -1.421875 11.734375 6.484375 
Q 5.515625 14.40625 5.515625 27.296875 
Q 5.515625 40.1875 11.734375 48.09375 
Q 17.96875 56 27.875 56 
Q 33.9375 56 38.25 53.625 
Q 42.578125 51.265625 45.40625 46.390625 
z
M 14.796875 27.296875 
Q 14.796875 17.390625 18.875 11.75 
Q 22.953125 6.109375 30.078125 6.109375 
Q 37.203125 6.109375 41.296875 11.75 
Q 45.40625 17.390625 45.40625 27.296875 
Q 45.40625 37.203125 41.296875 42.84375 
Q 37.203125 48.484375 30.078125 48.484375 
Q 22.953125 48.484375 18.875 42.84375 
Q 14.796875 37.203125 14.796875 27.296875 
z
" id="DejaVuSans-100"/>
      <path d="M 18.3125 70.21875 
L 18.3125 54.6875 
L 36.8125 54.6875 
L 36.8125 47.703125 
L 18.3125 47.703125 
L 18.3125 18.015625 
Q 18.3125 11.328125 20.140625 9.421875 
Q 21.96875 7.515625 27.59375 7.515625 
L 36.8125 7.515625 
L 36.8125 0 
L 27.59375 0 
Q 17.1875 0 13.234375 3.875 
Q 9.28125 7.765625 9.28125 18.015625 
L 9.28125 47.703125 
L 2.6875 47.703125 
L 2.6875 54.6875 
L 9.28125 54.6875 
L 9.28125 70.21875 
z
" id="DejaVuSans-116"/>
     </defs>
     <g transform="translate(83.965625 38.916562)scale(0.1 -0.1)">
      <use xlink:href="#DejaVuSans-80"/>
      <use x="58.552734" xlink:href="#DejaVuSans-114"/>
      <use x="97.416016" xlink:href="#DejaVuSans-101"/>
      <use x="158.939453" xlink:href="#DejaVuSans-100"/>
      <use x="222.416016" xlink:href="#DejaVuSans-105"/>
      <use x="250.199219" xlink:href="#DejaVuSans-99"/>
      <use x="305.179688" xlink:href="#DejaVuSans-116"/>
      <use x="344.388672" xlink:href="#DejaVuSans-101"/>
      <use x="405.912109" xlink:href="#DejaVuSans-100"/>
     </g>
    </g>
    <g id="line2d_31">
     <path d="M 55.965625 50.094687 
L 75.965625 50.094687 
" style="fill:none;stroke:#ff7f0e;stroke-linecap:square;stroke-width:1.5;"/>
    </g>
    <g id="line2d_32"/>
    <g id="text_18">
     <!-- True value -->
     <defs>
      <path d="M 8.5 21.578125 
L 8.5 54.6875 
L 17.484375 54.6875 
L 17.484375 21.921875 
Q 17.484375 14.15625 20.5 10.265625 
Q 23.53125 6.390625 29.59375 6.390625 
Q 36.859375 6.390625 41.078125 11.03125 
Q 45.3125 15.671875 45.3125 23.6875 
L 45.3125 54.6875 
L 54.296875 54.6875 
L 54.296875 0 
L 45.3125 0 
L 45.3125 8.40625 
Q 42.046875 3.421875 37.71875 1 
Q 33.40625 -1.421875 27.6875 -1.421875 
Q 18.265625 -1.421875 13.375 4.4375 
Q 8.5 10.296875 8.5 21.578125 
z
M 31.109375 56 
z
" id="DejaVuSans-117"/>
      <path d="M 2.984375 54.6875 
L 12.5 54.6875 
L 29.59375 8.796875 
L 46.6875 54.6875 
L 56.203125 54.6875 
L 35.6875 0 
L 23.484375 0 
z
" id="DejaVuSans-118"/>
      <path d="M 9.421875 75.984375 
L 18.40625 75.984375 
L 18.40625 0 
L 9.421875 0 
z
" id="DejaVuSans-108"/>
     </defs>
     <g transform="translate(83.965625 53.594687)scale(0.1 -0.1)">
      <use xlink:href="#DejaVuSans-84"/>
      <use x="46.333984" xlink:href="#DejaVuSans-114"/>
      <use x="87.447266" xlink:href="#DejaVuSans-117"/>
      <use x="150.826172" xlink:href="#DejaVuSans-101"/>
      <use x="212.349609" xlink:href="#DejaVuSans-32"/>
      <use x="244.136719" xlink:href="#DejaVuSans-118"/>
      <use x="303.316406" xlink:href="#DejaVuSans-97"/>
      <use x="364.595703" xlink:href="#DejaVuSans-108"/>
      <use x="392.378906" xlink:href="#DejaVuSans-117"/>
      <use x="455.757812" xlink:href="#DejaVuSans-101"/>
     </g>
    </g>
   </g>
  </g>
 </g>
 <defs>
  <clipPath id="p7bbec4d192">
   <rect height="266.112" width="357.12" x="46.965625" y="22.318125"/>
  </clipPath>
 </defs>
</svg>
