<?xml version="1.0" encoding="utf-8" standalone="no"?>
<!DOCTYPE svg PUBLIC "-//W3C//DTD SVG 1.1//EN"
  "http://www.w3.org/Graphics/SVG/1.1/DTD/svg11.dtd">
<!-- Created with matplotlib (https://matplotlib.org/) -->
<svg height="325.986375pt" version="1.1" viewBox="0 0 411.285625 325.986375" width="411.285625pt" xmlns="http://www.w3.org/2000/svg" xmlns:xlink="http://www.w3.org/1999/xlink">
 <defs>
  <style type="text/css">
*{stroke-linecap:butt;stroke-linejoin:round;}
  </style>
 </defs>
 <g id="figure_1">
  <g id="patch_1">
   <path d="M 0 325.986375 
L 411.285625 325.986375 
L 411.285625 0 
L 0 0 
z
" style="fill:#ffffff;"/>
  </g>
  <g id="axes_1">
   <g id="patch_2">
    <path d="M 46.965625 288.430125 
L 404.085625 288.430125 
L 404.085625 22.318125 
L 46.965625 22.318125 
z
" style="fill:#ffffff;"/>
   </g>
   <g id="matplotlib.axis_1">
    <g id="xtick_1">
     <g id="line2d_1">
      <path clip-path="url(#p0725d36ddc)" d="M 63.198352 288.430125 
L 63.198352 22.318125 
" style="fill:none;stroke:#b0b0b0;stroke-dasharray:2.96,1.28;stroke-dashoffset:0;stroke-width:0.8;"/>
     </g>
     <g id="line2d_2">
      <defs>
       <path d="M 0 0 
L 0 3.5 
" id="m4801080fcf" style="stroke:#000000;stroke-width:0.8;"/>
      </defs>
      <g>
       <use style="stroke:#000000;stroke-width:0.8;" x="63.198352" xlink:href="#m4801080fcf" y="288.430125"/>
      </g>
     </g>
     <g id="text_1">
      <!-- 0 -->
      <defs>
       <path d="M 31.78125 66.40625 
Q 24.171875 66.40625 20.328125 58.90625 
Q 16.5 51.421875 16.5 36.375 
Q 16.5 21.390625 20.328125 13.890625 
Q 24.171875 6.390625 31.78125 6.390625 
Q 39.453125 6.390625 43.28125 13.890625 
Q 47.125 21.390625 47.125 36.375 
Q 47.125 51.421875 43.28125 58.90625 
Q 39.453125 66.40625 31.78125 66.40625 
z
M 31.78125 74.21875 
Q 44.046875 74.21875 50.515625 64.515625 
Q 56.984375 54.828125 56.984375 36.375 
Q 56.984375 17.96875 50.515625 8.265625 
Q 44.046875 -1.421875 31.78125 -1.421875 
Q 19.53125 -1.421875 13.0625 8.265625 
Q 6.59375 17.96875 6.59375 36.375 
Q 6.59375 54.828125 13.0625 64.515625 
Q 19.53125 74.21875 31.78125 74.21875 
z
" id="DejaVuSans-48"/>
      </defs>
      <g transform="translate(60.017102 303.028562)scale(0.1 -0.1)">
       <use xlink:href="#DejaVuSans-48"/>
      </g>
     </g>
    </g>
    <g id="xtick_2">
     <g id="line2d_3">
      <path clip-path="url(#p0725d36ddc)" d="M 112.128954 288.430125 
L 112.128954 22.318125 
" style="fill:none;stroke:#b0b0b0;stroke-dasharray:2.96,1.28;stroke-dashoffset:0;stroke-width:0.8;"/>
     </g>
     <g id="line2d_4">
      <g>
       <use style="stroke:#000000;stroke-width:0.8;" x="112.128954" xlink:href="#m4801080fcf" y="288.430125"/>
      </g>
     </g>
     <g id="text_2">
      <!-- 200 -->
      <defs>
       <path d="M 19.1875 8.296875 
L 53.609375 8.296875 
L 53.609375 0 
L 7.328125 0 
L 7.328125 8.296875 
Q 12.9375 14.109375 22.625 23.890625 
Q 32.328125 33.6875 34.8125 36.53125 
Q 39.546875 41.84375 41.421875 45.53125 
Q 43.3125 49.21875 43.3125 52.78125 
Q 43.3125 58.59375 39.234375 62.25 
Q 35.15625 65.921875 28.609375 65.921875 
Q 23.96875 65.921875 18.8125 64.3125 
Q 13.671875 62.703125 7.8125 59.421875 
L 7.8125 69.390625 
Q 13.765625 71.78125 18.9375 73 
Q 24.125 74.21875 28.421875 74.21875 
Q 39.75 74.21875 46.484375 68.546875 
Q 53.21875 62.890625 53.21875 53.421875 
Q 53.21875 48.921875 51.53125 44.890625 
Q 49.859375 40.875 45.40625 35.40625 
Q 44.1875 33.984375 37.640625 27.21875 
Q 31.109375 20.453125 19.1875 8.296875 
z
" id="DejaVuSans-50"/>
      </defs>
      <g transform="translate(102.585204 303.028562)scale(0.1 -0.1)">
       <use xlink:href="#DejaVuSans-50"/>
       <use x="63.623047" xlink:href="#DejaVuSans-48"/>
       <use x="127.246094" xlink:href="#DejaVuSans-48"/>
      </g>
     </g>
    </g>
    <g id="xtick_3">
     <g id="line2d_5">
      <path clip-path="url(#p0725d36ddc)" d="M 161.059557 288.430125 
L 161.059557 22.318125 
" style="fill:none;stroke:#b0b0b0;stroke-dasharray:2.96,1.28;stroke-dashoffset:0;stroke-width:0.8;"/>
     </g>
     <g id="line2d_6">
      <g>
       <use style="stroke:#000000;stroke-width:0.8;" x="161.059557" xlink:href="#m4801080fcf" y="288.430125"/>
      </g>
     </g>
     <g id="text_3">
      <!-- 400 -->
      <defs>
       <path d="M 37.796875 64.3125 
L 12.890625 25.390625 
L 37.796875 25.390625 
z
M 35.203125 72.90625 
L 47.609375 72.90625 
L 47.609375 25.390625 
L 58.015625 25.390625 
L 58.015625 17.1875 
L 47.609375 17.1875 
L 47.609375 0 
L 37.796875 0 
L 37.796875 17.1875 
L 4.890625 17.1875 
L 4.890625 26.703125 
z
" id="DejaVuSans-52"/>
      </defs>
      <g transform="translate(151.515807 303.028562)scale(0.1 -0.1)">
       <use xlink:href="#DejaVuSans-52"/>
       <use x="63.623047" xlink:href="#DejaVuSans-48"/>
       <use x="127.246094" xlink:href="#DejaVuSans-48"/>
      </g>
     </g>
    </g>
    <g id="xtick_4">
     <g id="line2d_7">
      <path clip-path="url(#p0725d36ddc)" d="M 209.990159 288.430125 
L 209.990159 22.318125 
" style="fill:none;stroke:#b0b0b0;stroke-dasharray:2.96,1.28;stroke-dashoffset:0;stroke-width:0.8;"/>
     </g>
     <g id="line2d_8">
      <g>
       <use style="stroke:#000000;stroke-width:0.8;" x="209.990159" xlink:href="#m4801080fcf" y="288.430125"/>
      </g>
     </g>
     <g id="text_4">
      <!-- 600 -->
      <defs>
       <path d="M 33.015625 40.375 
Q 26.375 40.375 22.484375 35.828125 
Q 18.609375 31.296875 18.609375 23.390625 
Q 18.609375 15.53125 22.484375 10.953125 
Q 26.375 6.390625 33.015625 6.390625 
Q 39.65625 6.390625 43.53125 10.953125 
Q 47.40625 15.53125 47.40625 23.390625 
Q 47.40625 31.296875 43.53125 35.828125 
Q 39.65625 40.375 33.015625 40.375 
z
M 52.59375 71.296875 
L 52.59375 62.3125 
Q 48.875 64.0625 45.09375 64.984375 
Q 41.3125 65.921875 37.59375 65.921875 
Q 27.828125 65.921875 22.671875 59.328125 
Q 17.53125 52.734375 16.796875 39.40625 
Q 19.671875 43.65625 24.015625 45.921875 
Q 28.375 48.1875 33.59375 48.1875 
Q 44.578125 48.1875 50.953125 41.515625 
Q 57.328125 34.859375 57.328125 23.390625 
Q 57.328125 12.15625 50.6875 5.359375 
Q 44.046875 -1.421875 33.015625 -1.421875 
Q 20.359375 -1.421875 13.671875 8.265625 
Q 6.984375 17.96875 6.984375 36.375 
Q 6.984375 53.65625 15.1875 63.9375 
Q 23.390625 74.21875 37.203125 74.21875 
Q 40.921875 74.21875 44.703125 73.484375 
Q 48.484375 72.75 52.59375 71.296875 
z
" id="DejaVuSans-54"/>
      </defs>
      <g transform="translate(200.446409 303.028562)scale(0.1 -0.1)">
       <use xlink:href="#DejaVuSans-54"/>
       <use x="63.623047" xlink:href="#DejaVuSans-48"/>
       <use x="127.246094" xlink:href="#DejaVuSans-48"/>
      </g>
     </g>
    </g>
    <g id="xtick_5">
     <g id="line2d_9">
      <path clip-path="url(#p0725d36ddc)" d="M 258.920761 288.430125 
L 258.920761 22.318125 
" style="fill:none;stroke:#b0b0b0;stroke-dasharray:2.96,1.28;stroke-dashoffset:0;stroke-width:0.8;"/>
     </g>
     <g id="line2d_10">
      <g>
       <use style="stroke:#000000;stroke-width:0.8;" x="258.920761" xlink:href="#m4801080fcf" y="288.430125"/>
      </g>
     </g>
     <g id="text_5">
      <!-- 800 -->
      <defs>
       <path d="M 31.78125 34.625 
Q 24.75 34.625 20.71875 30.859375 
Q 16.703125 27.09375 16.703125 20.515625 
Q 16.703125 13.921875 20.71875 10.15625 
Q 24.75 6.390625 31.78125 6.390625 
Q 38.8125 6.390625 42.859375 10.171875 
Q 46.921875 13.96875 46.921875 20.515625 
Q 46.921875 27.09375 42.890625 30.859375 
Q 38.875 34.625 31.78125 34.625 
z
M 21.921875 38.8125 
Q 15.578125 40.375 12.03125 44.71875 
Q 8.5 49.078125 8.5 55.328125 
Q 8.5 64.0625 14.71875 69.140625 
Q 20.953125 74.21875 31.78125 74.21875 
Q 42.671875 74.21875 48.875 69.140625 
Q 55.078125 64.0625 55.078125 55.328125 
Q 55.078125 49.078125 51.53125 44.71875 
Q 48 40.375 41.703125 38.8125 
Q 48.828125 37.15625 52.796875 32.3125 
Q 56.78125 27.484375 56.78125 20.515625 
Q 56.78125 9.90625 50.3125 4.234375 
Q 43.84375 -1.421875 31.78125 -1.421875 
Q 19.734375 -1.421875 13.25 4.234375 
Q 6.78125 9.90625 6.78125 20.515625 
Q 6.78125 27.484375 10.78125 32.3125 
Q 14.796875 37.15625 21.921875 38.8125 
z
M 18.3125 54.390625 
Q 18.3125 48.734375 21.84375 45.5625 
Q 25.390625 42.390625 31.78125 42.390625 
Q 38.140625 42.390625 41.71875 45.5625 
Q 45.3125 48.734375 45.3125 54.390625 
Q 45.3125 60.0625 41.71875 63.234375 
Q 38.140625 66.40625 31.78125 66.40625 
Q 25.390625 66.40625 21.84375 63.234375 
Q 18.3125 60.0625 18.3125 54.390625 
z
" id="DejaVuSans-56"/>
      </defs>
      <g transform="translate(249.377011 303.028562)scale(0.1 -0.1)">
       <use xlink:href="#DejaVuSans-56"/>
       <use x="63.623047" xlink:href="#DejaVuSans-48"/>
       <use x="127.246094" xlink:href="#DejaVuSans-48"/>
      </g>
     </g>
    </g>
    <g id="xtick_6">
     <g id="line2d_11">
      <path clip-path="url(#p0725d36ddc)" d="M 307.851363 288.430125 
L 307.851363 22.318125 
" style="fill:none;stroke:#b0b0b0;stroke-dasharray:2.96,1.28;stroke-dashoffset:0;stroke-width:0.8;"/>
     </g>
     <g id="line2d_12">
      <g>
       <use style="stroke:#000000;stroke-width:0.8;" x="307.851363" xlink:href="#m4801080fcf" y="288.430125"/>
      </g>
     </g>
     <g id="text_6">
      <!-- 1000 -->
      <defs>
       <path d="M 12.40625 8.296875 
L 28.515625 8.296875 
L 28.515625 63.921875 
L 10.984375 60.40625 
L 10.984375 69.390625 
L 28.421875 72.90625 
L 38.28125 72.90625 
L 38.28125 8.296875 
L 54.390625 8.296875 
L 54.390625 0 
L 12.40625 0 
z
" id="DejaVuSans-49"/>
      </defs>
      <g transform="translate(295.126363 303.028562)scale(0.1 -0.1)">
       <use xlink:href="#DejaVuSans-49"/>
       <use x="63.623047" xlink:href="#DejaVuSans-48"/>
       <use x="127.246094" xlink:href="#DejaVuSans-48"/>
       <use x="190.869141" xlink:href="#DejaVuSans-48"/>
      </g>
     </g>
    </g>
    <g id="xtick_7">
     <g id="line2d_13">
      <path clip-path="url(#p0725d36ddc)" d="M 356.781965 288.430125 
L 356.781965 22.318125 
" style="fill:none;stroke:#b0b0b0;stroke-dasharray:2.96,1.28;stroke-dashoffset:0;stroke-width:0.8;"/>
     </g>
     <g id="line2d_14">
      <g>
       <use style="stroke:#000000;stroke-width:0.8;" x="356.781965" xlink:href="#m4801080fcf" y="288.430125"/>
      </g>
     </g>
     <g id="text_7">
      <!-- 1200 -->
      <g transform="translate(344.056965 303.028562)scale(0.1 -0.1)">
       <use xlink:href="#DejaVuSans-49"/>
       <use x="63.623047" xlink:href="#DejaVuSans-50"/>
       <use x="127.246094" xlink:href="#DejaVuSans-48"/>
       <use x="190.869141" xlink:href="#DejaVuSans-48"/>
      </g>
     </g>
    </g>
    <g id="text_8">
     <!-- Day -->
     <defs>
      <path d="M 19.671875 64.796875 
L 19.671875 8.109375 
L 31.59375 8.109375 
Q 46.6875 8.109375 53.6875 14.9375 
Q 60.6875 21.78125 60.6875 36.53125 
Q 60.6875 51.171875 53.6875 57.984375 
Q 46.6875 64.796875 31.59375 64.796875 
z
M 9.8125 72.90625 
L 30.078125 72.90625 
Q 51.265625 72.90625 61.171875 64.09375 
Q 71.09375 55.28125 71.09375 36.53125 
Q 71.09375 17.671875 61.125 8.828125 
Q 51.171875 0 30.078125 0 
L 9.8125 0 
z
" id="DejaVuSans-68"/>
      <path d="M 34.28125 27.484375 
Q 23.390625 27.484375 19.1875 25 
Q 14.984375 22.515625 14.984375 16.5 
Q 14.984375 11.71875 18.140625 8.90625 
Q 21.296875 6.109375 26.703125 6.109375 
Q 34.1875 6.109375 38.703125 11.40625 
Q 43.21875 16.703125 43.21875 25.484375 
L 43.21875 27.484375 
z
M 52.203125 31.203125 
L 52.203125 0 
L 43.21875 0 
L 43.21875 8.296875 
Q 40.140625 3.328125 35.546875 0.953125 
Q 30.953125 -1.421875 24.3125 -1.421875 
Q 15.921875 -1.421875 10.953125 3.296875 
Q 6 8.015625 6 15.921875 
Q 6 25.140625 12.171875 29.828125 
Q 18.359375 34.515625 30.609375 34.515625 
L 43.21875 34.515625 
L 43.21875 35.40625 
Q 43.21875 41.609375 39.140625 45 
Q 35.0625 48.390625 27.6875 48.390625 
Q 23 48.390625 18.546875 47.265625 
Q 14.109375 46.140625 10.015625 43.890625 
L 10.015625 52.203125 
Q 14.9375 54.109375 19.578125 55.046875 
Q 24.21875 56 28.609375 56 
Q 40.484375 56 46.34375 49.84375 
Q 52.203125 43.703125 52.203125 31.203125 
z
" id="DejaVuSans-97"/>
      <path d="M 32.171875 -5.078125 
Q 28.375 -14.84375 24.75 -17.8125 
Q 21.140625 -20.796875 15.09375 -20.796875 
L 7.90625 -20.796875 
L 7.90625 -13.28125 
L 13.1875 -13.28125 
Q 16.890625 -13.28125 18.9375 -11.515625 
Q 21 -9.765625 23.484375 -3.21875 
L 25.09375 0.875 
L 2.984375 54.6875 
L 12.5 54.6875 
L 29.59375 11.921875 
L 46.6875 54.6875 
L 56.203125 54.6875 
z
" id="DejaVuSans-121"/>
     </defs>
     <g transform="translate(215.652188 316.706687)scale(0.1 -0.1)">
      <use xlink:href="#DejaVuSans-68"/>
      <use x="77.001953" xlink:href="#DejaVuSans-97"/>
      <use x="138.28125" xlink:href="#DejaVuSans-121"/>
     </g>
    </g>
   </g>
   <g id="matplotlib.axis_2">
    <g id="ytick_1">
     <g id="line2d_15">
      <path clip-path="url(#p0725d36ddc)" d="M 46.965625 287.86418 
L 404.085625 287.86418 
" style="fill:none;stroke:#b0b0b0;stroke-dasharray:2.96,1.28;stroke-dashoffset:0;stroke-width:0.8;"/>
     </g>
     <g id="line2d_16">
      <defs>
       <path d="M 0 0 
L -3.5 0 
" id="m4189f0f0c9" style="stroke:#000000;stroke-width:0.8;"/>
      </defs>
      <g>
       <use style="stroke:#000000;stroke-width:0.8;" x="46.965625" xlink:href="#m4189f0f0c9" y="287.86418"/>
      </g>
     </g>
     <g id="text_9">
      <!-- 80 -->
      <g transform="translate(27.240625 291.663398)scale(0.1 -0.1)">
       <use xlink:href="#DejaVuSans-56"/>
       <use x="63.623047" xlink:href="#DejaVuSans-48"/>
      </g>
     </g>
    </g>
    <g id="ytick_2">
     <g id="line2d_17">
      <path clip-path="url(#p0725d36ddc)" d="M 46.965625 230.925638 
L 404.085625 230.925638 
" style="fill:none;stroke:#b0b0b0;stroke-dasharray:2.96,1.28;stroke-dashoffset:0;stroke-width:0.8;"/>
     </g>
     <g id="line2d_18">
      <g>
       <use style="stroke:#000000;stroke-width:0.8;" x="46.965625" xlink:href="#m4189f0f0c9" y="230.925638"/>
      </g>
     </g>
     <g id="text_10">
      <!-- 100 -->
      <g transform="translate(20.878125 234.724857)scale(0.1 -0.1)">
       <use xlink:href="#DejaVuSans-49"/>
       <use x="63.623047" xlink:href="#DejaVuSans-48"/>
       <use x="127.246094" xlink:href="#DejaVuSans-48"/>
      </g>
     </g>
    </g>
    <g id="ytick_3">
     <g id="line2d_19">
      <path clip-path="url(#p0725d36ddc)" d="M 46.965625 173.987097 
L 404.085625 173.987097 
" style="fill:none;stroke:#b0b0b0;stroke-dasharray:2.96,1.28;stroke-dashoffset:0;stroke-width:0.8;"/>
     </g>
     <g id="line2d_20">
      <g>
       <use style="stroke:#000000;stroke-width:0.8;" x="46.965625" xlink:href="#m4189f0f0c9" y="173.987097"/>
      </g>
     </g>
     <g id="text_11">
      <!-- 120 -->
      <g transform="translate(20.878125 177.786315)scale(0.1 -0.1)">
       <use xlink:href="#DejaVuSans-49"/>
       <use x="63.623047" xlink:href="#DejaVuSans-50"/>
       <use x="127.246094" xlink:href="#DejaVuSans-48"/>
      </g>
     </g>
    </g>
    <g id="ytick_4">
     <g id="line2d_21">
      <path clip-path="url(#p0725d36ddc)" d="M 46.965625 117.048555 
L 404.085625 117.048555 
" style="fill:none;stroke:#b0b0b0;stroke-dasharray:2.96,1.28;stroke-dashoffset:0;stroke-width:0.8;"/>
     </g>
     <g id="line2d_22">
      <g>
       <use style="stroke:#000000;stroke-width:0.8;" x="46.965625" xlink:href="#m4189f0f0c9" y="117.048555"/>
      </g>
     </g>
     <g id="text_12">
      <!-- 140 -->
      <g transform="translate(20.878125 120.847774)scale(0.1 -0.1)">
       <use xlink:href="#DejaVuSans-49"/>
       <use x="63.623047" xlink:href="#DejaVuSans-52"/>
       <use x="127.246094" xlink:href="#DejaVuSans-48"/>
      </g>
     </g>
    </g>
    <g id="ytick_5">
     <g id="line2d_23">
      <path clip-path="url(#p0725d36ddc)" d="M 46.965625 60.110014 
L 404.085625 60.110014 
" style="fill:none;stroke:#b0b0b0;stroke-dasharray:2.96,1.28;stroke-dashoffset:0;stroke-width:0.8;"/>
     </g>
     <g id="line2d_24">
      <g>
       <use style="stroke:#000000;stroke-width:0.8;" x="46.965625" xlink:href="#m4189f0f0c9" y="60.110014"/>
      </g>
     </g>
     <g id="text_13">
      <!-- 160 -->
      <g transform="translate(20.878125 63.909232)scale(0.1 -0.1)">
       <use xlink:href="#DejaVuSans-49"/>
       <use x="63.623047" xlink:href="#DejaVuSans-54"/>
       <use x="127.246094" xlink:href="#DejaVuSans-48"/>
      </g>
     </g>
    </g>
    <g id="text_14">
     <!-- Price $ -->
     <defs>
      <path d="M 19.671875 64.796875 
L 19.671875 37.40625 
L 32.078125 37.40625 
Q 38.96875 37.40625 42.71875 40.96875 
Q 46.484375 44.53125 46.484375 51.125 
Q 46.484375 57.671875 42.71875 61.234375 
Q 38.96875 64.796875 32.078125 64.796875 
z
M 9.8125 72.90625 
L 32.078125 72.90625 
Q 44.34375 72.90625 50.609375 67.359375 
Q 56.890625 61.8125 56.890625 51.125 
Q 56.890625 40.328125 50.609375 34.8125 
Q 44.34375 29.296875 32.078125 29.296875 
L 19.671875 29.296875 
L 19.671875 0 
L 9.8125 0 
z
" id="DejaVuSans-80"/>
      <path d="M 41.109375 46.296875 
Q 39.59375 47.171875 37.8125 47.578125 
Q 36.03125 48 33.890625 48 
Q 26.265625 48 22.1875 43.046875 
Q 18.109375 38.09375 18.109375 28.8125 
L 18.109375 0 
L 9.078125 0 
L 9.078125 54.6875 
L 18.109375 54.6875 
L 18.109375 46.1875 
Q 20.953125 51.171875 25.484375 53.578125 
Q 30.03125 56 36.53125 56 
Q 37.453125 56 38.578125 55.875 
Q 39.703125 55.765625 41.0625 55.515625 
z
" id="DejaVuSans-114"/>
      <path d="M 9.421875 54.6875 
L 18.40625 54.6875 
L 18.40625 0 
L 9.421875 0 
z
M 9.421875 75.984375 
L 18.40625 75.984375 
L 18.40625 64.59375 
L 9.421875 64.59375 
z
" id="DejaVuSans-105"/>
      <path d="M 48.78125 52.59375 
L 48.78125 44.1875 
Q 44.96875 46.296875 41.140625 47.34375 
Q 37.3125 48.390625 33.40625 48.390625 
Q 24.65625 48.390625 19.8125 42.84375 
Q 14.984375 37.3125 14.984375 27.296875 
Q 14.984375 17.28125 19.8125 11.734375 
Q 24.65625 6.203125 33.40625 6.203125 
Q 37.3125 6.203125 41.140625 7.25 
Q 44.96875 8.296875 48.78125 10.40625 
L 48.78125 2.09375 
Q 45.015625 0.34375 40.984375 -0.53125 
Q 36.96875 -1.421875 32.421875 -1.421875 
Q 20.0625 -1.421875 12.78125 6.34375 
Q 5.515625 14.109375 5.515625 27.296875 
Q 5.515625 40.671875 12.859375 48.328125 
Q 20.21875 56 33.015625 56 
Q 37.15625 56 41.109375 55.140625 
Q 45.0625 54.296875 48.78125 52.59375 
z
" id="DejaVuSans-99"/>
      <path d="M 56.203125 29.59375 
L 56.203125 25.203125 
L 14.890625 25.203125 
Q 15.484375 15.921875 20.484375 11.0625 
Q 25.484375 6.203125 34.421875 6.203125 
Q 39.59375 6.203125 44.453125 7.46875 
Q 49.3125 8.734375 54.109375 11.28125 
L 54.109375 2.78125 
Q 49.265625 0.734375 44.1875 -0.34375 
Q 39.109375 -1.421875 33.890625 -1.421875 
Q 20.796875 -1.421875 13.15625 6.1875 
Q 5.515625 13.8125 5.515625 26.8125 
Q 5.515625 40.234375 12.765625 48.109375 
Q 20.015625 56 32.328125 56 
Q 43.359375 56 49.78125 48.890625 
Q 56.203125 41.796875 56.203125 29.59375 
z
M 47.21875 32.234375 
Q 47.125 39.59375 43.09375 43.984375 
Q 39.0625 48.390625 32.421875 48.390625 
Q 24.90625 48.390625 20.390625 44.140625 
Q 15.875 39.890625 15.1875 32.171875 
z
" id="DejaVuSans-101"/>
      <path id="DejaVuSans-32"/>
      <path d="M 33.796875 -14.703125 
L 28.90625 -14.703125 
L 28.859375 0 
Q 23.734375 0.09375 18.609375 1.1875 
Q 13.484375 2.296875 8.296875 4.5 
L 8.296875 13.28125 
Q 13.28125 10.15625 18.375 8.5625 
Q 23.484375 6.984375 28.90625 6.9375 
L 28.90625 29.203125 
Q 18.109375 30.953125 13.203125 35.15625 
Q 8.296875 39.359375 8.296875 46.6875 
Q 8.296875 54.640625 13.625 59.21875 
Q 18.953125 63.8125 28.90625 64.5 
L 28.90625 75.984375 
L 33.796875 75.984375 
L 33.796875 64.65625 
Q 38.328125 64.453125 42.578125 63.6875 
Q 46.828125 62.9375 50.875 61.625 
L 50.875 53.078125 
Q 46.828125 55.125 42.546875 56.25 
Q 38.28125 57.375 33.796875 57.5625 
L 33.796875 36.71875 
Q 44.875 35.015625 50.09375 30.609375 
Q 55.328125 26.21875 55.328125 18.609375 
Q 55.328125 10.359375 49.78125 5.59375 
Q 44.234375 0.828125 33.796875 0.09375 
z
M 28.90625 37.59375 
L 28.90625 57.625 
Q 23.25 56.984375 20.265625 54.390625 
Q 17.28125 51.8125 17.28125 47.515625 
Q 17.28125 43.3125 20.03125 40.96875 
Q 22.796875 38.625 28.90625 37.59375 
z
M 33.796875 28.21875 
L 33.796875 7.078125 
Q 39.984375 7.90625 43.140625 10.59375 
Q 46.296875 13.28125 46.296875 17.671875 
Q 46.296875 21.96875 43.28125 24.5 
Q 40.28125 27.046875 33.796875 28.21875 
z
" id="DejaVuSans-36"/>
     </defs>
     <g transform="translate(14.798438 172.342094)rotate(-90)scale(0.1 -0.1)">
      <use xlink:href="#DejaVuSans-80"/>
      <use x="58.552734" xlink:href="#DejaVuSans-114"/>
      <use x="99.666016" xlink:href="#DejaVuSans-105"/>
      <use x="127.449219" xlink:href="#DejaVuSans-99"/>
      <use x="182.429688" xlink:href="#DejaVuSans-101"/>
      <use x="243.953125" xlink:href="#DejaVuSans-32"/>
      <use x="275.740234" xlink:href="#DejaVuSans-36"/>
     </g>
    </g>
   </g>
   <g id="line2d_25">
    <path clip-path="url(#p0725d36ddc)" d="M 63.198352 264.149402 
L 63.443005 262.231323 
L 63.687658 262.028173 
L 64.66627 259.740653 
L 64.910923 259.571995 
L 65.155576 260.92856 
L 65.400229 265.761615 
L 65.644882 267.371353 
L 65.889535 264.876664 
L 66.134188 264.941868 
L 66.378841 264.794865 
L 66.868147 266.458382 
L 67.1128 267.173155 
L 67.602106 263.812129 
L 67.846759 263.501963 
L 68.091412 264.45618 
L 68.580719 261.234577 
L 68.825372 262.036144 
L 69.070025 260.869828 
L 69.314678 262.902742 
L 69.559331 261.130646 
L 69.803984 262.042509 
L 70.048637 261.751565 
L 70.29329 258.113192 
L 70.782596 255.960773 
L 71.027249 256.152172 
L 71.271902 257.094444 
L 71.516555 255.334576 
L 71.761208 254.743717 
L 72.005861 253.514499 
L 72.250514 251.282865 
L 72.495167 251.565577 
L 72.73982 250.796981 
L 72.984473 249.396433 
L 73.229126 249.193022 
L 73.473779 251.25048 
L 73.718432 250.29661 
L 73.963085 250.680408 
L 74.207738 254.38733 
L 74.452391 253.837676 
L 74.941697 257.732022 
L 75.18635 256.599046 
L 75.431003 256.900416 
L 75.675656 255.756515 
L 76.164962 252.586715 
L 76.409615 252.966538 
L 76.654268 252.786824 
L 77.143574 248.28205 
L 77.388227 249.352275 
L 77.63288 251.582345 
L 77.877533 262.149459 
L 78.366839 265.129749 
L 79.100798 268.699247 
L 79.590104 268.514428 
L 79.834757 268.011299 
L 80.324063 265.72493 
L 80.568716 268.513646 
L 80.813369 273.053695 
L 81.058022 274.560673 
L 81.547328 274.886543 
L 81.791981 274.726204 
L 82.036634 275.449447 
L 82.281287 274.793689 
L 82.52594 272.43371 
L 83.015246 269.980138 
L 83.259899 267.660993 
L 83.504552 269.524554 
L 83.749205 270.367759 
L 83.993858 269.248597 
L 84.238511 269.573707 
L 84.483164 268.16838 
L 84.97247 267.302716 
L 85.217123 267.451066 
L 85.461776 265.190219 
L 85.706429 264.371406 
L 85.951082 260.922717 
L 86.440388 261.241376 
L 86.685041 261.817594 
L 86.929694 262.977221 
L 87.174347 259.808355 
L 87.419 258.491647 
L 87.663653 260.071584 
L 87.908306 260.314548 
L 88.152959 259.72673 
L 89.131571 265.668023 
L 89.376224 264.362957 
L 89.620877 259.099447 
L 89.86553 257.330913 
L 90.110183 259.19758 
L 90.354836 256.846788 
L 90.599489 256.328063 
L 90.844143 256.744312 
L 91.333449 253.654986 
L 91.578102 254.174319 
L 92.067408 255.786576 
L 92.556714 252.469143 
L 93.04602 249.240828 
L 93.290673 249.082531 
L 93.535326 248.756074 
L 94.024632 245.01453 
L 94.269285 246.073483 
L 94.758591 242.348056 
L 95.003244 245.74555 
L 95.49255 244.737118 
L 95.737203 245.78962 
L 95.981856 245.217376 
L 96.226509 244.162919 
L 96.471162 244.468807 
L 96.715815 247.550183 
L 96.960468 248.96157 
L 97.205121 248.138435 
L 97.449774 248.248904 
L 97.694427 248.149816 
L 97.93908 246.942101 
L 98.673039 241.155609 
L 98.917692 242.777141 
L 99.162345 242.200987 
L 99.406998 242.703639 
L 99.651651 244.693221 
L 100.38561 239.214529 
L 100.630263 234.652499 
L 100.874916 234.150477 
L 101.119569 234.02943 
L 101.364222 232.557704 
L 101.608875 232.699733 
L 101.853528 231.812001 
L 102.098181 234.633994 
L 102.342834 234.969638 
L 102.587487 234.243158 
L 102.83214 234.320765 
L 103.076793 232.775081 
L 103.321446 235.969403 
L 103.566099 235.438753 
L 104.055405 231.6375 
L 104.300058 233.39802 
L 104.544711 229.7444 
L 104.789364 232.51233 
L 105.27867 226.710091 
L 105.523323 226.349338 
L 105.767976 227.564352 
L 106.257282 225.057087 
L 106.501935 220.742192 
L 106.746588 223.902022 
L 106.991241 222.202927 
L 107.235894 223.233427 
L 107.480547 224.802482 
L 107.7252 230.656024 
L 107.969853 232.271821 
L 108.214506 231.147881 
L 108.459159 227.802385 
L 108.703812 227.993068 
L 108.948465 227.868958 
L 109.193118 224.730674 
L 109.437771 224.221745 
L 109.682424 226.422862 
L 110.17173 222.129143 
L 110.416383 224.711343 
L 110.661036 223.73395 
L 111.150342 230.944991 
L 111.884301 227.12912 
L 112.128954 224.89614 
L 112.373607 227.128577 
L 112.61826 226.013434 
L 112.862913 226.36691 
L 113.107566 224.228826 
L 113.35222 225.266623 
L 113.841526 229.499373 
L 114.086179 227.243217 
L 114.575485 238.375733 
L 114.820138 240.013229 
L 115.064791 236.681917 
L 115.309444 236.435456 
L 115.554097 240.081105 
L 115.79875 239.448153 
L 116.288056 232.101837 
L 116.532709 235.580196 
L 116.777362 235.302806 
L 117.022015 233.803473 
L 117.266668 234.72852 
L 117.511321 234.167006 
L 117.755974 231.505332 
L 118.000627 233.942592 
L 118.24528 239.544222 
L 118.979239 237.358592 
L 119.468545 231.844278 
L 119.713198 233.399953 
L 119.957851 231.394276 
L 120.202504 230.892145 
L 120.447157 229.308777 
L 120.69181 231.077159 
L 120.936463 230.673639 
L 121.181116 230.855112 
L 121.425769 230.565776 
L 121.915075 226.524078 
L 122.159728 228.453647 
L 122.404381 228.256514 
L 122.649034 230.085583 
L 122.893687 230.367643 
L 123.13834 229.691359 
L 123.382993 237.10581 
L 123.627646 239.702976 
L 123.872299 239.983233 
L 124.361605 236.22781 
L 124.606258 236.783437 
L 124.850911 235.387971 
L 125.095564 235.825571 
L 125.340217 233.623672 
L 125.829523 232.628925 
L 126.074176 234.280973 
L 126.808135 237.129073 
L 127.297441 240.518313 
L 127.542094 241.625681 
L 128.0314 245.282885 
L 128.276053 242.921385 
L 128.520706 243.863483 
L 128.765359 244.229036 
L 129.010012 243.675819 
L 129.254665 244.360379 
L 129.499318 244.565571 
L 129.743971 245.232624 
L 129.988624 241.992038 
L 130.233277 244.979604 
L 130.47793 246.499853 
L 130.722583 246.373376 
L 131.211889 243.119996 
L 131.456542 241.546032 
L 131.945848 239.931582 
L 132.190501 237.948929 
L 132.435154 238.464852 
L 132.679807 238.087374 
L 133.169113 236.690648 
L 133.413766 234.456995 
L 133.658419 236.354374 
L 133.903072 239.325129 
L 134.392378 236.948077 
L 134.637031 237.287175 
L 134.881684 235.88276 
L 135.37099 241.340254 
L 135.615643 241.757654 
L 136.10495 245.580866 
L 136.349603 245.777305 
L 136.838909 247.645687 
L 137.083562 249.535617 
L 137.328215 246.575223 
L 137.572868 245.511426 
L 137.817521 245.560579 
L 138.062174 248.223209 
L 138.306827 244.748478 
L 138.55148 243.453012 
L 138.796133 243.941198 
L 139.040786 245.988448 
L 139.285439 244.515093 
L 139.530092 246.870663 
L 139.774745 245.565119 
L 140.019398 245.578216 
L 140.508704 241.673292 
L 140.753357 241.80887 
L 140.99801 240.51638 
L 141.242663 238.462028 
L 141.487316 238.208943 
L 141.731969 238.14515 
L 141.976622 236.502398 
L 142.221275 238.47784 
L 142.465928 239.011596 
L 142.710581 239.203017 
L 143.199887 235.979633 
L 143.689193 239.538422 
L 144.178499 236.377311 
L 144.423152 237.526989 
L 144.667805 237.109742 
L 144.912458 235.778698 
L 145.157111 233.302755 
L 145.646417 239.048499 
L 145.89107 238.448974 
L 146.135723 240.460472 
L 146.380376 240.850265 
L 146.625029 242.866346 
L 146.869682 243.373603 
L 147.114335 240.023481 
L 147.358988 242.516562 
L 147.848294 244.124735 
L 148.092947 247.020403 
L 148.3376 246.188232 
L 148.582253 243.580272 
L 148.826906 246.040772 
L 149.071559 242.610589 
L 149.316212 244.382099 
L 149.560865 240.526784 
L 149.805518 241.196292 
L 150.050171 240.177152 
L 150.294824 239.634187 
L 150.539477 239.490312 
L 151.028783 239.049237 
L 151.273436 240.584756 
L 151.518089 240.629174 
L 151.762742 242.247013 
L 152.007395 240.786603 
L 152.252048 243.660659 
L 152.496701 243.449711 
L 152.741354 242.595081 
L 152.986007 245.249392 
L 153.23066 243.978014 
L 153.475313 243.537917 
L 153.719966 241.953354 
L 153.964619 244.783404 
L 154.453925 244.918852 
L 154.698578 243.776276 
L 154.943231 246.397811 
L 155.187884 247.471078 
L 155.432537 247.479201 
L 155.67719 249.740613 
L 156.166496 247.269926 
L 156.411149 250.360729 
L 156.655802 249.93021 
L 156.900455 248.521581 
L 157.145108 244.62187 
L 157.389761 242.57588 
L 157.634414 244.828539 
L 157.879067 244.1195 
L 158.12372 245.122046 
L 158.368374 243.382812 
L 158.613027 242.954639 
L 158.85768 241.8797 
L 159.102333 243.383768 
L 159.346986 242.921733 
L 159.591639 240.873202 
L 159.836292 240.61347 
L 160.080945 240.13471 
L 160.570251 244.545349 
L 160.814904 244.351148 
L 161.059557 246.796596 
L 161.30421 244.365092 
L 161.548863 244.662465 
L 161.793516 243.446127 
L 162.038169 243.350514 
L 162.282822 244.288658 
L 162.527475 234.36136 
L 162.772128 234.309709 
L 163.016781 238.026123 
L 163.506087 237.120472 
L 163.75074 238.029663 
L 163.995393 241.436041 
L 164.240046 240.219094 
L 164.484699 243.340718 
L 164.729352 241.304698 
L 164.974005 242.578269 
L 165.218658 242.452509 
L 165.463311 241.852224 
L 165.952617 236.210607 
L 166.19727 236.50672 
L 166.441923 237.394278 
L 166.931229 236.766952 
L 167.175882 238.823194 
L 167.420535 235.967079 
L 167.665188 235.360234 
L 167.909841 232.147342 
L 168.154494 232.366152 
L 168.6438 228.208664 
L 168.888453 227.995957 
L 169.622412 232.346908 
L 169.867065 232.969565 
L 170.356371 228.534881 
L 170.601024 229.563621 
L 170.845677 226.376728 
L 171.09033 226.698297 
L 171.334983 227.494782 
L 171.579636 225.855331 
L 171.824289 227.447279 
L 172.068942 228.289398 
L 172.313595 224.961518 
L 172.558248 225.22479 
L 172.802901 222.496369 
L 173.292207 221.122254 
L 173.781513 222.581469 
L 174.026166 221.219192 
L 174.270819 224.588515 
L 174.515472 225.824554 
L 174.760125 223.272589 
L 175.004778 223.440878 
L 175.249431 224.187796 
L 175.494084 223.817964 
L 175.738737 226.238087 
L 175.98339 226.662937 
L 176.228043 226.670213 
L 176.472696 224.81143 
L 176.717349 226.230007 
L 176.962002 223.544679 
L 177.206655 223.477889 
L 178.185267 229.413295 
L 178.42992 230.776658 
L 178.919226 226.770539 
L 179.408532 226.386002 
L 179.653185 225.51417 
L 179.897838 225.330199 
L 180.142491 224.888234 
L 180.387144 226.167387 
L 180.631798 225.83057 
L 181.121104 226.415955 
L 181.365757 228.412639 
L 181.61041 227.764005 
L 181.855063 228.204276 
L 182.099716 227.849714 
L 182.344369 230.01282 
L 182.589022 230.359215 
L 182.833675 227.804296 
L 183.078328 228.383643 
L 183.322981 229.276305 
L 183.567634 228.938728 
L 183.812287 229.433669 
L 184.301593 234.381277 
L 184.546246 233.517894 
L 185.280205 243.441566 
L 185.524858 243.734616 
L 185.769511 242.816129 
L 186.014164 243.035178 
L 186.258817 242.659699 
L 186.50347 242.520254 
L 186.748123 246.040468 
L 186.992776 246.673029 
L 187.237429 246.63061 
L 187.482082 248.875949 
L 187.726735 248.898733 
L 187.971388 249.424474 
L 188.216041 248.979989 
L 188.705347 248.77723 
L 188.95 247.595948 
L 189.194653 248.684788 
L 189.928612 246.021463 
L 190.173265 246.790688 
L 190.417918 246.330652 
L 190.662571 246.658064 
L 190.907224 246.485366 
L 191.151877 247.385521 
L 191.39653 245.959256 
L 191.641183 246.943665 
L 191.885836 248.416911 
L 192.130489 250.932668 
L 192.375142 250.075997 
L 192.619795 250.528258 
L 192.864448 249.969133 
L 193.109101 251.851156 
L 193.353754 255.77198 
L 193.598407 251.019615 
L 193.84306 250.772394 
L 194.087713 249.730448 
L 194.332366 249.457554 
L 194.577019 248.624036 
L 195.066325 249.115741 
L 195.310978 247.073726 
L 195.800284 248.817065 
L 196.044937 245.468203 
L 196.28959 247.290321 
L 196.534243 245.716271 
L 196.778896 241.734565 
L 197.023549 245.132645 
L 197.268202 246.928113 
L 197.512855 247.814368 
L 197.757508 245.558385 
L 198.246814 250.629865 
L 198.491467 247.850532 
L 198.73612 251.393031 
L 198.980773 252.911586 
L 199.225426 256.893422 
L 199.470079 255.974652 
L 199.959385 258.473098 
L 200.448691 254.11285 
L 200.693344 256.024413 
L 200.937997 256.096872 
L 201.18265 255.919482 
L 201.671956 253.148316 
L 201.916609 251.726134 
L 202.161262 251.204672 
L 202.650568 247.824554 
L 202.895221 248.271016 
L 203.139875 246.516057 
L 203.384528 245.719138 
L 203.629181 245.93191 
L 203.873834 244.632513 
L 204.118487 244.511922 
L 204.852446 243.344997 
L 205.097099 241.728005 
L 205.341752 242.075096 
L 205.586405 241.093294 
L 206.075711 240.169767 
L 206.320364 240.250697 
L 206.565017 238.776538 
L 206.80967 239.203907 
L 207.054323 241.003893 
L 207.298976 239.91779 
L 207.788282 244.268654 
L 208.277588 243.020647 
L 208.522241 241.335128 
L 208.766894 250.606559 
L 209.2562 258.82929 
L 209.500853 256.39481 
L 209.745506 257.424918 
L 209.990159 262.87027 
L 210.234812 262.773137 
L 210.479465 253.911199 
L 210.724118 249.674953 
L 211.213424 248.599536 
L 211.458077 247.383176 
L 211.70273 247.985763 
L 211.947383 245.469897 
L 212.192036 244.720611 
L 212.681342 248.942717 
L 212.925995 250.124042 
L 213.170648 253.063607 
L 213.415301 251.422093 
L 213.659954 248.01641 
L 213.904607 247.029004 
L 214.14926 249.995501 
L 214.393913 250.957495 
L 214.638566 250.770005 
L 214.883219 254.583335 
L 215.127872 255.022541 
L 215.372525 254.806858 
L 215.861831 257.858695 
L 216.106484 256.63432 
L 216.351137 259.831813 
L 216.59579 257.191468 
L 217.085096 262.113903 
L 217.329749 250.912686 
L 217.574402 251.742381 
L 217.819055 251.583475 
L 218.063708 248.42775 
L 218.553014 246.659411 
L 218.797667 247.413106 
L 219.04232 250.973199 
L 219.286973 247.726357 
L 219.531626 246.931849 
L 220.020932 243.02599 
L 220.265585 246.723377 
L 220.510238 246.151676 
L 220.754891 247.206741 
L 221.244197 246.883869 
L 221.48885 245.073327 
L 221.733503 235.168574 
L 221.978156 232.084678 
L 222.222809 233.396825 
L 222.467462 230.97755 
L 222.712115 231.270991 
L 222.956768 230.042685 
L 223.201421 232.776449 
L 223.446074 238.521976 
L 223.690727 237.528249 
L 224.180033 244.483642 
L 224.424686 241.751203 
L 224.913992 239.24548 
L 225.158645 241.139406 
L 225.403298 238.997391 
L 225.647952 241.613474 
L 225.892605 238.948151 
L 226.137258 234.709081 
L 226.381911 232.429163 
L 226.626564 235.567273 
L 227.11587 239.232014 
L 227.360523 236.807373 
L 227.605176 237.921648 
L 227.849829 241.146161 
L 228.094482 242.328703 
L 228.339135 241.745925 
L 228.828441 239.699153 
L 229.073094 240.15806 
L 229.317747 237.0375 
L 229.5624 237.777403 
L 229.807053 237.24595 
L 230.296359 242.539325 
L 230.541012 244.668547 
L 230.785665 241.560303 
L 231.030318 244.609098 
L 231.274971 237.707464 
L 231.519624 239.071261 
L 231.764277 234.693029 
L 232.00893 240.453109 
L 232.498236 239.080623 
L 232.742889 240.009384 
L 232.987542 237.259786 
L 233.232195 241.548031 
L 233.476848 241.639191 
L 233.721501 240.931564 
L 233.966154 239.44307 
L 234.210807 235.489688 
L 234.45546 237.775383 
L 234.700113 236.385304 
L 234.944766 237.552858 
L 235.189419 236.297011 
L 235.434072 235.971553 
L 235.678725 236.193578 
L 235.923378 228.506754 
L 236.90199 234.725219 
L 237.146643 234.452976 
L 237.391296 240.402783 
L 237.635949 242.030874 
L 237.880602 241.387278 
L 238.125255 241.273811 
L 238.369908 240.630933 
L 238.614561 240.984084 
L 238.859214 243.083462 
L 239.103867 243.765198 
L 239.34852 245.257103 
L 239.593173 243.784356 
L 239.837826 242.99947 
L 240.082479 244.430275 
L 240.327132 246.55789 
L 240.816438 244.145804 
L 241.061091 241.570576 
L 241.305744 241.710694 
L 241.79505 238.388896 
L 242.039703 239.885665 
L 242.284356 242.572557 
L 242.529009 238.604644 
L 242.773662 243.079227 
L 243.018315 244.307512 
L 243.507621 241.527831 
L 243.752274 242.869105 
L 243.996927 240.342726 
L 244.24158 242.289107 
L 244.486233 240.563839 
L 244.975539 234.932583 
L 245.464845 233.469806 
L 245.709498 236.491581 
L 246.198804 237.921735 
L 246.443457 237.998429 
L 246.68811 237.256093 
L 247.177416 241.3267 
L 247.422069 241.742319 
L 247.911375 235.379305 
L 248.400682 230.963171 
L 248.889988 232.737852 
L 249.134641 231.184327 
L 249.623947 233.167958 
L 249.8686 232.183093 
L 250.357906 235.189752 
L 250.602559 232.230378 
L 250.847212 232.554098 
L 251.091865 228.835969 
L 251.336518 228.811273 
L 251.581171 227.318065 
L 251.825824 231.051269 
L 252.070477 238.228426 
L 252.31513 249.914919 
L 252.559783 254.910703 
L 253.049089 238.288374 
L 253.538395 244.583794 
L 253.783048 248.489305 
L 254.027701 241.862302 
L 254.272354 241.869405 
L 254.517007 244.715528 
L 254.76166 239.901847 
L 255.006313 243.19719 
L 255.250966 243.669846 
L 255.495619 238.341133 
L 255.740272 239.102321 
L 255.984925 235.889472 
L 256.229578 234.197784 
L 256.718884 238.97895 
L 256.963537 236.773794 
L 257.20819 238.241349 
L 257.452843 237.684614 
L 257.697496 238.301341 
L 257.942149 237.432397 
L 258.186802 241.503395 
L 258.676108 234.963578 
L 258.920761 233.787465 
L 259.65472 225.140602 
L 259.899373 225.427984 
L 260.144026 221.831423 
L 260.388679 222.51898 
L 260.633332 221.310026 
L 260.877985 220.795776 
L 261.122638 222.177254 
L 261.611944 216.854991 
L 261.856597 217.586315 
L 262.10125 219.294054 
L 262.345903 223.106602 
L 262.590556 200.55106 
L 262.835209 194.627427 
L 263.079862 195.661097 
L 263.324515 197.516035 
L 263.569168 193.367734 
L 263.813821 193.978858 
L 264.058474 195.566353 
L 264.303127 195.926302 
L 264.54778 195.910903 
L 264.792433 195.280839 
L 265.037086 194.249992 
L 265.281739 192.457957 
L 265.526392 193.232656 
L 265.771045 192.704873 
L 266.015698 191.127869 
L 266.505004 201.620048 
L 266.749657 198.662304 
L 266.99431 198.89684 
L 267.238963 194.514329 
L 267.972922 188.88531 
L 268.217575 189.450581 
L 268.462228 189.134247 
L 268.951534 189.509965 
L 269.196187 189.048495 
L 269.44084 191.260884 
L 269.685493 191.841599 
L 269.930146 183.811506 
L 270.174799 183.565241 
L 270.419452 183.130639 
L 270.664106 183.093714 
L 270.908759 180.767923 
L 271.153412 184.128731 
L 271.398065 183.678903 
L 271.887371 179.243721 
L 272.132024 180.24531 
L 272.376677 182.633222 
L 272.62133 179.558904 
L 272.865983 179.358078 
L 273.110636 176.511672 
L 273.355289 176.928399 
L 273.599942 176.30155 
L 273.844595 172.971215 
L 274.089248 174.57676 
L 274.333901 178.087048 
L 274.578554 179.533796 
L 274.823207 175.2338 
L 275.06786 177.670843 
L 275.312513 184.872674 
L 275.557166 185.542595 
L 276.046472 180.13345 
L 276.291125 186.425852 
L 276.535778 182.646905 
L 276.780431 186.368597 
L 277.025084 180.300523 
L 277.269737 184.723021 
L 277.51439 179.010661 
L 278.003696 175.210407 
L 279.226961 159.803157 
L 279.471614 161.709333 
L 279.716267 168.216809 
L 279.96092 171.178636 
L 280.205573 185.938817 
L 280.450226 184.126342 
L 280.694879 181.36786 
L 280.939532 180.052933 
L 281.184185 182.645711 
L 281.673491 175.082974 
L 281.918144 176.688693 
L 282.162797 181.202503 
L 282.40745 182.83559 
L 282.652103 179.335446 
L 282.896756 181.586953 
L 283.141409 181.199137 
L 283.386062 177.720973 
L 283.630715 181.163233 
L 283.875368 180.998702 
L 284.120021 176.364778 
L 284.364674 177.067778 
L 284.609327 182.15785 
L 284.85398 181.232043 
L 285.098633 181.098724 
L 285.587939 174.230386 
L 285.832592 173.170651 
L 286.321898 164.711169 
L 286.566551 163.102453 
L 286.811204 162.651213 
L 287.055857 163.85541 
L 287.30051 161.054508 
L 287.545163 162.076037 
L 287.789816 161.756879 
L 288.034469 160.970733 
L 288.279122 163.086641 
L 288.523775 163.64077 
L 288.768428 161.362655 
L 289.013081 156.253012 
L 289.257734 156.411831 
L 289.502387 152.68004 
L 289.74704 151.239243 
L 289.991693 151.700692 
L 290.236346 151.381837 
L 290.480999 149.379527 
L 290.970305 151.27645 
L 291.214958 151.168066 
L 291.459611 153.194985 
L 291.704264 151.45775 
L 291.948917 150.671713 
L 292.19357 147.707322 
L 292.438223 147.53647 
L 292.682876 148.167141 
L 292.92753 156.224906 
L 293.172183 157.24372 
L 293.416836 151.807186 
L 293.661489 150.837656 
L 293.906142 149.234087 
L 294.150795 150.347211 
L 294.395448 154.002742 
L 294.640101 149.140256 
L 294.884754 148.897944 
L 295.129407 145.881685 
L 295.37406 146.277603 
L 295.618713 142.3583 
L 295.863366 141.775457 
L 296.108019 139.473927 
L 296.352672 146.425692 
L 296.597325 143.696533 
L 296.841978 147.452239 
L 297.086631 144.957876 
L 297.575937 154.592493 
L 297.82059 157.649086 
L 298.065243 164.843055 
L 298.309896 164.398071 
L 298.554549 161.338892 
L 298.799202 163.083252 
L 299.043855 161.741196 
L 299.288508 163.386859 
L 299.533161 166.469995 
L 299.777814 166.982638 
L 300.022467 169.152238 
L 300.26712 168.698196 
L 300.511773 167.066131 
L 300.756426 167.2824 
L 301.001079 166.590282 
L 301.245732 164.889276 
L 301.490385 165.92779 
L 301.735038 164.474092 
L 302.224344 166.478248 
L 302.468997 165.771165 
L 302.71365 166.295255 
L 302.958303 163.215985 
L 303.202956 165.229916 
L 303.447609 170.911759 
L 303.692262 169.377956 
L 303.936915 173.956732 
L 304.181568 182.701184 
L 304.426221 177.263196 
L 304.915527 171.906854 
L 305.16018 171.839238 
L 305.404833 170.679916 
L 305.649486 171.040777 
L 305.894139 170.455219 
L 306.138792 169.314663 
L 306.383445 167.248321 
L 306.628098 166.730204 
L 306.872751 164.8762 
L 307.117404 161.685267 
L 307.362057 162.822804 
L 307.60671 161.995737 
L 307.851363 154.062278 
L 308.096016 155.578466 
L 308.585322 149.500552 
L 308.829975 151.802212 
L 309.074628 167.526189 
L 309.319281 173.893482 
L 309.563934 174.438098 
L 309.808587 178.946891 
L 310.05324 178.19604 
L 310.297893 179.386184 
L 310.542546 179.752107 
L 311.031852 174.908473 
L 311.276505 177.604096 
L 311.521158 177.555812 
L 312.010464 174.375608 
L 312.255117 174.111076 
L 312.744423 178.568501 
L 312.989076 180.954501 
L 313.233729 181.002329 
L 313.478382 186.905371 
L 313.723035 185.67372 
L 314.212341 187.517841 
L 314.456994 186.008973 
L 314.701647 188.716543 
L 314.9463 186.170833 
L 315.190953 186.371725 
L 315.435607 185.21023 
L 315.68026 185.939903 
L 315.924913 184.973022 
L 316.169566 181.011191 
L 316.414219 181.641471 
L 316.658872 183.766067 
L 316.903525 188.260611 
L 317.148178 184.678039 
L 317.392831 187.607373 
L 317.637484 186.719663 
L 317.882137 184.132228 
L 318.12679 186.309344 
L 318.371443 186.509258 
L 318.616096 183.158593 
L 319.105402 180.743792 
L 319.350055 181.241296 
L 319.594708 182.60101 
L 319.839361 181.668556 
L 320.084014 186.498919 
L 320.328667 187.815345 
L 320.57332 186.369618 
L 320.817973 188.217323 
L 321.062626 191.206496 
L 321.307279 191.606064 
L 321.551932 190.333209 
L 321.796585 191.414034 
L 322.041238 188.25731 
L 322.285891 190.909645 
L 322.775197 186.246702 
L 323.264503 194.287569 
L 323.509156 197.946858 
L 323.753809 197.844837 
L 323.998462 199.791413 
L 324.243115 190.794027 
L 324.487768 191.175045 
L 324.977074 195.950303 
L 325.221727 195.566179 
L 325.46638 195.50849 
L 325.711033 194.093302 
L 325.955686 195.021303 
L 326.200339 194.905903 
L 326.689645 198.439453 
L 327.178951 190.04561 
L 327.423604 187.496773 
L 327.91291 189.71898 
L 328.157563 179.516875 
L 328.402216 177.956596 
L 328.646869 175.471008 
L 328.891522 174.686426 
L 329.136175 173.156099 
L 329.380828 174.527737 
L 329.870134 172.936224 
L 330.114787 171.089713 
L 330.35944 167.630012 
L 331.093399 177.251771 
L 331.338052 177.509765 
L 331.582705 174.837621 
L 331.827358 175.201915 
L 333.050623 165.218513 
L 333.295276 165.058542 
L 333.539929 166.420385 
L 333.784582 163.920006 
L 334.029235 164.940644 
L 334.273888 163.715922 
L 334.518541 164.035862 
L 334.763194 162.611313 
L 335.007847 164.299417 
L 335.497153 165.336324 
L 335.741806 165.109824 
L 335.986459 168.317309 
L 336.231112 173.941332 
L 336.475765 173.9581 
L 336.720418 173.259031 
L 336.965071 170.576136 
L 337.209724 172.383658 
L 337.454377 171.96741 
L 337.69903 170.176569 
L 337.943684 166.914479 
L 338.188337 168.835034 
L 338.43299 165.011996 
L 338.677643 165.279221 
L 338.922296 167.19213 
L 339.166949 166.717129 
L 339.411602 169.299849 
L 339.656255 169.941707 
L 339.900908 168.109315 
L 340.145561 167.715417 
L 340.390214 165.05674 
L 340.634867 164.712168 
L 340.87952 165.758002 
L 341.124173 166.061066 
L 341.613479 160.739259 
L 342.347438 159.344141 
L 342.592091 159.721141 
L 342.836744 156.217152 
L 343.081397 156.679208 
L 343.32605 156.117195 
L 343.570703 154.152591 
L 343.815356 153.762429 
L 344.060009 150.738394 
L 344.304662 149.849555 
L 344.549315 150.432181 
L 345.038621 148.162971 
L 345.283274 152.737468 
L 345.527927 150.750253 
L 345.77258 147.079735 
L 346.017233 149.347294 
L 346.261886 150.10655 
L 346.506539 149.674445 
L 346.751192 149.493819 
L 346.995845 149.636174 
L 347.240498 149.385609 
L 347.729804 151.169369 
L 347.974457 150.162762 
L 348.21911 149.958026 
L 348.463763 150.128922 
L 348.708416 148.041598 
L 348.953069 147.664403 
L 349.197722 148.392729 
L 349.442375 146.841897 
L 349.687028 147.102672 
L 349.931681 146.192677 
L 350.176334 145.794109 
L 350.420987 145.821085 
L 350.66564 147.68621 
L 351.154946 145.311439 
L 351.399599 145.077468 
L 351.644252 146.379471 
L 351.888905 142.901699 
L 352.622864 144.499273 
L 352.867517 140.567372 
L 353.11217 140.245954 
L 353.356823 141.95895 
L 353.601476 140.446824 
L 353.846129 137.524267 
L 354.335435 134.880729 
L 354.580088 134.472126 
L 354.824741 131.943575 
L 355.069394 110.542925 
L 355.314047 113.308488 
L 355.5587 113.242154 
L 355.803353 115.683519 
L 356.048006 112.048709 
L 356.292659 112.032766 
L 356.537312 108.103341 
L 357.026618 104.423309 
L 357.515924 103.292071 
L 357.760577 102.898368 
L 358.00523 103.444548 
L 358.494536 97.460727 
L 358.739189 95.16567 
L 358.983842 97.054905 
L 359.228495 95.027659 
L 359.473148 91.726039 
L 359.717801 91.695978 
L 359.962454 92.989467 
L 360.207107 88.081237 
L 360.451761 86.925281 
L 360.696414 86.928626 
L 360.941067 86.612074 
L 361.18572 84.182395 
L 361.675026 76.111685 
L 361.919679 78.882634 
L 362.164332 83.252026 
L 362.408985 81.189029 
L 362.653638 82.632519 
L 362.898291 82.307409 
L 363.142944 90.456095 
L 363.63225 84.614151 
L 364.121556 80.42443 
L 364.610862 74.904947 
L 364.855515 75.630797 
L 365.100168 72.506631 
L 365.344821 72.953549 
L 365.589474 75.397607 
L 365.834127 75.874977 
L 366.07878 73.98192 
L 366.323433 77.622377 
L 366.568086 77.737191 
L 366.812739 79.299013 
L 367.057392 77.771683 
L 367.302045 77.745314 
L 367.546698 68.664826 
L 368.036004 72.338559 
L 368.280657 67.892625 
L 368.52531 71.913406 
L 368.769963 71.12057 
L 369.014616 71.582388 
L 369.259269 75.18149 
L 369.503922 75.48653 
L 369.748575 74.22749 
L 369.993228 75.105556 
L 370.237881 81.075345 
L 370.482534 60.941989 
L 370.727187 68.023034 
L 370.97184 66.708302 
L 371.705799 75.075712 
L 371.950452 67.619601 
L 372.195105 72.945599 
L 372.439758 75.357425 
L 372.684411 72.335432 
L 372.929064 72.932828 
L 373.173717 72.778222 
L 373.41837 67.522424 
L 373.663023 65.676239 
L 373.907676 65.810254 
L 374.152329 64.418502 
L 374.396982 61.454546 
L 374.641635 64.38275 
L 374.886288 64.14652 
L 375.130941 62.012932 
L 375.375594 58.866177 
L 375.8649 62.005808 
L 376.109553 61.039904 
L 376.354206 58.804448 
L 376.598859 59.636163 
L 377.088165 57.770256 
L 377.332818 58.099884 
L 377.822124 62.214974 
L 378.066777 57.912177 
L 378.31143 58.585811 
L 378.556083 52.791131 
L 378.800736 67.795448 
L 379.045389 65.797439 
L 379.290042 65.795658 
L 379.534695 66.083843 
L 379.779348 67.116645 
L 380.024001 65.060902 
L 380.268654 58.42191 
L 380.513307 60.61727 
L 380.75796 61.246639 
L 381.247266 75.925237 
L 381.491919 73.852684 
L 381.736572 64.249561 
L 381.981225 67.334456 
L 382.225878 65.954042 
L 382.470531 66.497485 
L 382.715184 64.765462 
L 383.204491 58.775604 
L 383.693797 55.786148 
L 383.93845 48.705277 
L 384.183103 46.427379 
L 384.427756 41.786135 
L 384.672409 43.701477 
L 385.406368 38.469658 
L 385.651021 39.795206 
L 385.895674 47.821781 
L 386.140327 46.25657 
L 386.38498 47.501623 
L 386.629633 46.200532 
L 387.118939 39.559063 
L 387.363592 38.013401 
L 387.608245 39.40424 
L 387.852898 34.414125 
L 387.852898 34.414125 
" style="fill:none;stroke:#1f77b4;stroke-linecap:square;stroke-width:1.5;"/>
   </g>
   <g id="line2d_26">
    <path clip-path="url(#p0725d36ddc)" d="M 63.198352 261.70092 
L 63.443005 261.30235 
L 63.932311 261.017657 
L 64.176964 260.562149 
L 64.421617 260.562149 
L 64.66627 260.277456 
L 64.910923 262.213367 
L 65.155576 266.426819 
L 65.400229 267.508651 
L 65.644882 264.519378 
L 65.889535 265.373456 
L 66.134188 264.747132 
L 66.623494 266.626104 
L 66.868147 266.910796 
L 67.1128 264.604785 
L 67.357453 263.608361 
L 67.602106 263.522953 
L 67.846759 264.377031 
L 68.336066 260.704495 
L 68.580719 261.843266 
L 68.825372 260.391333 
L 69.070025 263.095914 
L 69.314678 260.846842 
L 69.559331 262.09949 
L 69.803984 262.07102 
L 70.048637 257.487468 
L 70.537943 255.693904 
L 70.782596 255.978596 
L 71.027249 257.060429 
L 71.271902 254.925233 
L 71.516555 254.555133 
L 71.761208 253.302485 
L 72.005861 250.626374 
L 72.250514 251.338105 
L 72.495167 250.427089 
L 72.73982 248.832809 
L 72.984473 248.832809 
L 73.229126 251.252697 
L 73.473779 250.284742 
L 73.718432 250.085457 
L 73.963085 254.412787 
L 74.207738 253.729524 
L 74.697044 258.398484 
L 74.941697 256.462574 
L 75.18635 256.547982 
L 75.920309 252.562284 
L 76.164962 252.676161 
L 76.409615 252.249122 
L 76.898921 247.750977 
L 77.143574 248.918217 
L 77.388227 251.252697 
L 77.63288 263.038976 
L 77.877533 263.807646 
L 78.366839 267.138551 
L 78.611492 266.996204 
L 78.856145 268.761299 
L 79.100798 268.505076 
L 79.345451 268.505076 
L 79.590104 268.33426 
L 80.07941 265.174171 
L 80.324063 268.33426 
L 80.568716 273.259444 
L 80.813369 274.369745 
L 81.058022 273.971176 
L 81.302675 274.654438 
L 81.547328 274.711377 
L 81.791981 276.334125 
L 82.036634 276.13484 
L 82.52594 271.693634 
L 82.770593 270.754148 
L 83.015246 267.793344 
L 83.259899 270.099355 
L 83.504552 271.010371 
L 83.749205 269.302215 
L 83.993858 269.387623 
L 84.238511 267.821813 
L 84.483164 267.764875 
L 84.727817 267.366305 
L 84.97247 268.021098 
L 85.217123 264.83254 
L 85.461776 263.722238 
L 85.706429 261.074596 
L 85.951082 260.476741 
L 86.195735 261.359289 
L 86.440388 261.757858 
L 86.685041 262.583467 
L 87.174347 257.914507 
L 87.419 260.220518 
L 87.663653 259.281032 
L 87.908306 258.882462 
L 88.397612 262.982037 
L 88.642265 263.038976 
L 88.886918 266.284472 
L 89.131571 264.490908 
L 89.376224 259.053278 
L 89.620877 257.601345 
L 89.86553 259.821948 
L 90.110183 256.804205 
L 90.354836 256.718797 
L 90.599489 257.088898 
L 91.088796 254.469725 
L 91.333449 255.03911 
L 91.578102 255.096049 
L 91.822755 256.263289 
L 92.801367 249.487603 
L 93.04602 249.97158 
L 93.290673 248.80434 
L 93.779979 245.388028 
L 94.024632 246.099759 
L 94.513938 242.455693 
L 94.758591 246.299044 
L 95.003244 245.416497 
L 95.247897 244.960989 
L 95.49255 246.213637 
L 95.981856 244.676296 
L 96.226509 244.875581 
L 96.471162 248.007201 
L 96.715815 249.259849 
L 96.960468 248.291893 
L 97.205121 248.43424 
L 97.449774 248.263424 
L 97.694427 247.608631 
L 98.183733 241.914777 
L 98.428386 241.687023 
L 98.673039 243.082017 
L 98.917692 242.598039 
L 99.162345 243.224363 
L 99.406998 244.960989 
L 100.140957 239.210196 
L 100.38561 234.598174 
L 100.630263 234.085727 
L 100.874916 234.455828 
L 101.119569 232.690733 
L 101.364222 232.890018 
L 101.608875 231.865124 
L 101.853528 234.996744 
L 102.098181 235.480721 
L 102.342834 234.427358 
L 102.587487 235.110621 
L 102.83214 233.003895 
L 103.076793 235.93623 
L 103.321446 235.196029 
L 103.566099 234.057258 
L 103.810752 231.808186 
L 104.055405 233.630219 
L 104.300058 230.185437 
L 104.544711 233.060833 
L 105.034017 226.883002 
L 105.27867 226.655248 
L 105.523323 227.907895 
L 106.012629 225.260253 
L 106.257282 220.70517 
L 106.501935 224.804745 
L 106.746588 222.27098 
L 107.235894 225.488007 
L 107.480547 231.153392 
L 107.7252 232.861549 
L 107.969853 231.608901 
L 108.214506 228.021773 
L 108.703812 228.391873 
L 108.948465 224.719337 
L 109.193118 224.833214 
L 109.437771 226.996879 
L 109.927077 222.612611 
L 110.17173 225.032499 
L 110.416383 224.406175 
L 110.905689 231.808186 
L 111.150342 230.356253 
L 111.394995 229.843806 
L 111.884301 225.37413 
L 112.128954 227.73708 
L 112.373607 226.54137 
L 112.61826 226.54137 
L 112.862913 224.833214 
L 113.107566 225.971985 
L 113.596873 230.100029 
L 113.841526 227.395449 
L 114.330832 239.267134 
L 114.575485 240.690598 
L 114.820138 236.733369 
L 115.064791 235.566129 
L 115.309444 241.117637 
L 115.554097 240.377436 
L 116.043403 232.263694 
L 116.288056 235.964699 
L 116.532709 235.93623 
L 116.777362 234.114196 
L 117.022015 235.423783 
L 117.266668 234.512766 
L 117.511321 231.63737 
L 117.755974 234.313481 
L 118.000627 240.064274 
L 118.24528 238.811626 
L 118.489933 238.640811 
L 118.734586 237.986017 
L 119.223892 231.922063 
L 119.468545 233.772565 
L 119.713198 231.438085 
L 119.957851 231.124923 
L 120.202504 229.929214 
L 120.447157 231.324208 
L 120.69181 231.267269 
L 120.936463 230.954107 
L 121.181116 230.982577 
L 121.670422 226.427493 
L 121.915075 228.790443 
L 122.159728 228.420342 
L 122.404381 230.640945 
L 122.893687 230.156968 
L 123.13834 237.815202 
L 123.382993 240.149682 
L 123.627646 240.434375 
L 124.116952 236.534085 
L 124.361605 236.989593 
L 124.606258 235.566129 
L 124.850911 236.391738 
L 125.095564 233.772565 
L 125.58487 232.890018 
L 126.074176 235.680006 
L 126.563482 237.701325 
L 127.542094 244.049972 
L 127.786747 245.074866 
L 128.0314 243.793749 
L 128.276053 243.73681 
L 128.520706 244.847112 
L 128.765359 243.850687 
L 129.010012 244.790173 
L 129.254665 244.277726 
L 129.499318 245.615782 
L 129.743971 242.085592 
L 129.988624 245.558843 
L 130.233277 246.982307 
L 130.47793 246.526799 
L 131.211889 241.573145 
L 131.456542 241.032229 
L 131.945848 238.156833 
L 132.190501 238.953973 
L 132.435154 238.469995 
L 132.92446 236.847246 
L 133.169113 234.626643 
L 133.658419 239.751112 
L 134.147725 237.245816 
L 134.392378 237.701325 
L 134.637031 236.078576 
L 135.126337 241.715492 
L 135.37099 241.943246 
L 135.860297 246.099759 
L 136.10495 246.014352 
L 136.594256 248.178016 
L 136.838909 250.085457 
L 137.083562 246.754553 
L 137.328215 245.900475 
L 137.572868 245.957413 
L 137.817521 248.576586 
L 138.062174 244.53395 
L 138.306827 243.822218 
L 138.55148 244.590888 
L 138.796133 246.327514 
L 139.040786 244.818642 
L 139.285439 247.409346 
L 139.530092 246.07129 
L 139.774745 245.786597 
L 140.264051 242.171 
L 140.508704 242.227939 
L 140.753357 240.832944 
L 140.99801 238.783157 
L 141.487316 238.299179 
L 141.731969 236.904185 
L 141.976622 238.897034 
L 142.221275 239.43795 
L 142.465928 239.210196 
L 142.955234 236.30633 
L 143.44454 239.694174 
L 143.689193 237.615917 
L 143.933846 236.676431 
L 144.178499 237.929079 
L 144.423152 237.47357 
L 144.912458 234.000319 
L 145.157111 236.050107 
L 145.401764 239.295604 
L 145.646417 238.413056 
L 145.89107 240.861414 
L 146.135723 241.231514 
L 146.380376 243.138955 
L 146.625029 243.936095 
L 146.869682 240.035805 
L 147.114335 243.110486 
L 147.603641 244.420072 
L 147.848294 247.722508 
L 148.092947 246.754553 
L 148.3376 243.879156 
L 148.582253 246.925368 
L 148.826906 242.512631 
L 149.071559 244.761704 
L 149.316212 240.861414 
L 149.560865 241.459268 
L 150.294824 239.722643 
L 150.539477 239.43795 
L 150.78413 239.381012 
L 151.028783 241.146106 
L 151.273436 240.776006 
L 151.518089 242.740386 
L 151.762742 241.231514 
L 152.007395 243.993033 
L 152.252048 243.850687 
L 152.496701 242.882732 
L 152.741354 245.644251 
L 153.475313 242.142531 
L 153.719966 245.359558 
L 153.964619 244.932519 
L 154.209272 245.501905 
L 154.453925 244.249257 
L 154.698578 246.783022 
L 154.943231 247.807916 
L 155.187884 247.494754 
L 155.432537 250.427089 
L 155.921843 247.523223 
L 156.166496 250.797189 
L 156.411149 250.597904 
L 156.655802 249.20291 
L 157.145108 242.541101 
L 157.389761 245.558843 
L 157.634414 244.192318 
L 157.879067 245.473436 
L 158.368374 242.93967 
L 158.613027 242.256408 
L 158.85768 243.594464 
L 159.102333 243.025078 
L 159.346986 241.032229 
L 159.591639 240.889883 
L 159.836292 240.548252 
L 160.325598 244.932519 
L 160.570251 244.733234 
L 160.814904 247.096184 
L 161.059557 245.217212 
L 161.30421 245.103335 
L 161.548863 243.509056 
L 161.793516 243.73681 
L 162.038169 244.590888 
L 162.282822 234.398889 
L 162.527475 234.598174 
L 162.772128 238.413056 
L 163.016781 237.815202 
L 163.261434 237.758263 
L 163.506087 238.583872 
L 163.75074 242.028654 
L 163.995393 240.60519 
L 164.240046 243.822218 
L 164.484699 241.8009 
L 164.729352 242.56957 
L 164.974005 242.768855 
L 165.218658 241.857838 
L 165.707964 236.534085 
L 165.952617 236.904185 
L 166.19727 237.786732 
L 166.441923 237.587448 
L 166.686576 236.989593 
L 166.931229 239.43795 
L 167.175882 236.391738 
L 167.420535 235.623068 
L 167.665188 232.548387 
L 167.909841 232.946956 
L 168.399147 228.562689 
L 168.6438 228.562689 
L 169.377759 232.861549 
L 169.622412 233.402465 
L 170.111718 228.847381 
L 170.356371 230.043091 
L 170.601024 226.655248 
L 170.845677 226.996879 
L 171.09033 228.192588 
L 171.334983 226.854532 
L 171.824289 228.221057 
L 172.068942 225.345661 
L 172.313595 225.37413 
L 172.558248 222.584142 
L 172.802901 222.783427 
L 173.047554 220.875986 
L 173.53686 223.80832 
L 173.781513 221.986287 
L 174.026166 224.975561 
L 174.270819 226.56984 
L 174.515472 223.637505 
L 174.760125 223.950667 
L 175.004778 225.231784 
L 175.249431 224.20689 
L 175.494084 227.224633 
L 175.738737 227.110756 
L 175.98339 226.854532 
L 176.228043 225.146376 
L 176.472696 226.797594 
L 176.717349 223.979136 
L 176.962002 223.950667 
L 177.940614 229.729929 
L 178.185267 231.608901 
L 178.674573 227.794018 
L 178.919226 227.310041 
L 179.163879 227.082287 
L 179.408532 225.488007 
L 179.897838 225.488007 
L 180.142491 226.740655 
L 180.387144 226.342086 
L 180.876451 226.769125 
L 181.121104 228.818912 
L 181.365757 228.078711 
L 181.61041 229.416767 
L 181.855063 228.13565 
L 182.099716 230.441661 
L 182.344369 230.669415 
L 182.589022 227.879426 
L 182.833675 229.27442 
L 183.078328 229.872275 
L 183.322981 229.587582 
L 183.567634 230.07156 
L 184.05694 235.566129 
L 184.301593 233.801035 
L 184.790899 241.544676 
L 185.035552 244.163849 
L 185.280205 244.163849 
L 185.524858 243.110486 
L 186.014164 242.825793 
L 186.258817 242.455693 
L 186.50347 246.412921 
L 186.748123 247.153122 
L 186.992776 247.124653 
L 187.237429 249.629949 
L 187.482082 249.516072 
L 187.726735 249.97158 
L 187.971388 249.288318 
L 188.216041 249.345256 
L 188.460694 249.259849 
L 188.705347 248.121078 
L 188.95 248.975156 
L 189.194653 248.605055 
L 189.439306 247.295469 
L 189.683959 246.726083 
L 189.928612 247.466284 
L 190.173265 246.498329 
L 190.417918 246.726083 
L 190.662571 246.754553 
L 190.907224 247.694039 
L 191.151877 246.156698 
L 191.641183 248.80434 
L 191.885836 251.423513 
L 192.130489 250.455558 
L 192.375142 250.825658 
L 192.619795 250.654843 
L 192.864448 252.277591 
L 193.109101 256.291758 
L 193.353754 250.854128 
L 193.598407 250.968005 
L 193.84306 249.886172 
L 194.087713 249.516072 
L 194.332366 248.718932 
L 194.577019 249.345256 
L 194.821672 249.487603 
L 195.066325 246.982307 
L 195.555631 249.402195 
L 195.800284 245.160274 
L 196.044937 247.551692 
L 196.28959 246.014352 
L 196.534243 241.687023 
L 196.778896 245.70119 
L 197.023549 247.466284 
L 197.268202 247.665569 
L 197.512855 245.558843 
L 198.002161 251.395044 
L 198.246814 248.491178 
L 198.491467 251.651267 
L 198.73612 252.846977 
L 198.980773 257.316652 
L 199.225426 256.263289 
L 199.714732 259.651132 
L 199.959385 256.434105 
L 200.204038 254.868295 
L 200.448691 256.519513 
L 200.693344 256.718797 
L 200.937997 256.491043 
L 201.18265 254.640541 
L 201.427303 253.672585 
L 201.671956 251.992899 
L 201.916609 251.622798 
L 202.161262 249.772295 
L 202.405915 248.775871 
L 202.650568 249.117502 
L 202.895221 246.669145 
L 203.139875 246.185167 
L 203.384528 246.128229 
L 203.629181 244.875581 
L 204.118487 244.761704 
L 204.607793 243.793749 
L 204.852446 241.715492 
L 205.097099 242.398754 
L 205.341752 241.146106 
L 205.831058 240.491313 
L 206.075711 240.377436 
L 206.320364 238.982442 
L 206.565017 239.466419 
L 206.80967 241.687023 
L 207.054323 240.007336 
L 207.543629 244.847112 
L 207.788282 243.73681 
L 208.032935 243.281302 
L 208.277588 241.430799 
L 208.522241 251.964429 
L 209.011547 259.394909 
L 209.2562 256.63339 
L 209.500853 257.629814 
L 209.745506 263.779177 
L 209.990159 263.038976 
L 210.479465 248.946687 
L 210.724118 250.227804 
L 210.968771 248.320363 
L 211.213424 247.380877 
L 211.458077 248.491178 
L 211.70273 245.786597 
L 211.947383 245.046396 
L 212.436689 248.861279 
L 212.681342 250.113927 
L 212.925995 253.046262 
L 213.170648 252.562284 
L 213.415301 247.978731 
L 213.659954 246.982307 
L 213.904607 250.256273 
L 214.393913 251.338105 
L 214.638566 255.010641 
L 214.883219 255.46615 
L 215.127872 255.152988 
L 215.617178 258.426954 
L 215.861831 256.861144 
L 216.106484 260.647557 
L 216.351137 257.487468 
L 216.840443 262.86816 
L 217.085096 250.085457 
L 217.329749 252.448407 
L 217.574402 252.249122 
L 217.819055 248.234955 
L 218.063708 247.864854 
L 218.308361 247.039245 
L 218.553014 248.03567 
L 218.797667 251.651267 
L 219.04232 247.950262 
L 219.286973 247.409346 
L 219.776279 243.309771 
L 220.020932 247.010776 
L 220.265585 246.355983 
L 220.510238 247.466284 
L 220.754891 247.466284 
L 220.999544 247.124653 
L 221.244197 245.217212 
L 221.48885 234.74052 
L 221.733503 232.320632 
L 221.978156 234.057258 
L 222.222809 230.925638 
L 222.467462 231.665839 
L 222.712115 230.213906 
L 222.956768 233.459403 
L 223.201421 239.096319 
L 223.446074 237.445101 
L 223.93538 245.274151 
L 224.180033 241.601615 
L 224.424686 241.316922 
L 224.669339 239.03938 
L 224.913992 241.829369 
L 225.158645 239.466419 
L 225.403298 242.370285 
L 225.647952 239.324073 
L 225.892605 234.854398 
L 226.137258 232.747671 
L 226.381911 236.220923 
L 226.871217 239.580296 
L 227.11587 236.961124 
L 227.360523 238.213771 
L 227.605176 241.487738 
L 227.849829 242.797324 
L 228.094482 241.516207 
L 228.339135 241.316922 
L 228.583788 239.893458 
L 228.828441 240.747537 
L 229.073094 237.188878 
L 229.317747 238.213771 
L 229.5624 237.815202 
L 230.051706 243.366709 
L 230.296359 245.501905 
L 230.541012 241.8009 
L 230.785665 245.530374 
L 231.030318 237.075001 
L 231.274971 239.466419 
L 231.519624 234.512766 
L 231.764277 241.060699 
L 232.00893 239.950397 
L 232.253583 239.409481 
L 232.498236 240.747537 
L 232.742889 237.188878 
L 232.987542 241.943246 
L 233.232195 241.943246 
L 233.476848 241.203045 
L 233.721501 240.092743 
L 233.966154 235.964699 
L 234.210807 238.014487 
L 234.45546 236.761839 
L 234.700113 238.469995 
L 235.189419 236.505615 
L 235.434072 236.562554 
L 235.678725 228.989728 
L 236.657337 235.309906 
L 236.90199 234.74052 
L 237.146643 240.946821 
L 237.391296 242.512631 
L 237.635949 241.687023 
L 237.880602 241.487738 
L 238.125255 240.832944 
L 238.369908 241.430799 
L 238.614561 243.622933 
L 238.859214 244.249257 
L 239.103867 245.928944 
L 239.34852 244.306195 
L 239.593173 243.480587 
L 240.082479 247.153122 
L 240.327132 246.213637 
L 240.571785 244.53395 
L 240.816438 241.829369 
L 241.061091 242.085592 
L 241.305744 239.83652 
L 241.550397 238.953973 
L 241.79505 240.491313 
L 242.039703 242.911201 
L 242.284356 238.640811 
L 242.529009 243.907626 
L 242.773662 244.960989 
L 243.262968 241.829369 
L 243.507621 243.309771 
L 243.752274 240.377436 
L 243.996927 242.768855 
L 244.24158 240.918352 
L 244.730886 235.395314 
L 245.220192 233.57328 
L 245.464845 237.018062 
L 245.709498 238.042956 
L 245.954151 238.071425 
L 246.198804 238.555403 
L 246.443457 237.815202 
L 246.68811 239.210196 
L 246.932763 242.028654 
L 247.177416 242.199469 
L 247.666722 236.021638 
L 248.156029 231.324208 
L 248.645335 233.373995 
L 248.889988 231.495024 
L 249.379294 234.000319 
L 249.623947 232.662264 
L 250.113253 235.822353 
L 250.357906 232.719202 
L 250.602559 233.003895 
L 250.847212 229.046666 
L 251.091865 228.761974 
L 251.336518 227.794018 
L 251.581171 231.608901 
L 251.825824 239.096319 
L 252.070477 251.224228 
L 252.31513 255.950127 
L 252.804436 238.526933 
L 253.293742 245.103335 
L 253.538395 249.516072 
L 253.783048 242.199469 
L 254.027701 242.284877 
L 254.272354 245.587313 
L 254.517007 240.092743 
L 254.76166 243.936095 
L 255.006313 244.448542 
L 255.250966 238.299179 
L 255.495619 239.551827 
L 255.740272 236.078576 
L 255.984925 234.655113 
L 256.474231 239.324073 
L 256.718884 236.904185 
L 256.963537 238.897034 
L 257.20819 238.384587 
L 257.452843 238.640811 
L 257.697496 237.786732 
L 257.942149 242.427224 
L 258.431455 235.110621 
L 258.676108 234.398889 
L 259.410067 225.516477 
L 259.65472 225.886577 
L 259.899373 222.527203 
L 260.144026 223.068119 
L 260.388679 221.701594 
L 260.633332 221.303025 
L 260.877985 222.897304 
L 261.367291 217.20345 
L 261.611944 218.142936 
L 261.856597 219.993438 
L 262.10125 223.694443 
L 262.345903 199.979541 
L 262.590556 195.082826 
L 263.079862 197.787407 
L 263.324515 194.086402 
L 264.058474 196.449351 
L 264.303127 196.534759 
L 264.792433 194.342625 
L 265.037086 193.033039 
L 265.281739 194.114871 
L 265.526392 193.289262 
L 265.771045 191.495698 
L 266.260351 202.541775 
L 266.505004 199.438625 
L 266.749657 199.780256 
L 266.99431 195.253642 
L 267.483616 191.324883 
L 267.728269 189.730603 
L 267.972922 190.27152 
L 268.217575 189.929888 
L 268.462228 190.413866 
L 268.706881 190.613151 
L 268.951534 189.787542 
L 269.196187 191.865799 
L 269.44084 192.805285 
L 269.685493 184.80542 
L 269.930146 184.179096 
L 270.419452 183.723587 
L 270.664106 181.958492 
L 270.908759 185.147051 
L 271.153412 184.634604 
L 271.642718 180.136459 
L 271.887371 181.104414 
L 272.132024 183.495833 
L 272.376677 180.563498 
L 272.62133 180.47809 
L 272.865983 177.403409 
L 273.110636 178.058202 
L 273.355289 177.545756 
L 273.599942 173.787812 
L 273.844595 175.609845 
L 274.089248 179.282381 
L 274.333901 180.87666 
L 274.578554 176.264638 
L 274.823207 178.54218 
L 275.06786 186.34276 
L 275.312513 186.855207 
L 275.801819 181.27523 
L 276.046472 187.880101 
L 276.291125 183.60971 
L 276.535778 187.709285 
L 276.780431 181.104414 
L 277.025084 186.001129 
L 277.269737 180.136459 
L 277.759043 176.264638 
L 278.003696 172.762918 
L 278.248349 171.51027 
L 278.737655 163.225712 
L 278.982308 160.862763 
L 279.226961 162.741735 
L 279.471614 169.802114 
L 279.716267 172.108125 
L 279.96092 187.082961 
L 280.205573 185.232459 
L 280.694879 180.990537 
L 280.939532 183.296548 
L 281.428838 176.321577 
L 281.673491 177.858917 
L 281.918144 182.0439 
L 282.162797 183.865934 
L 282.40745 180.620437 
L 282.652103 182.812571 
L 282.896756 182.357062 
L 283.141409 178.627588 
L 283.386062 182.357062 
L 283.630715 181.986962 
L 283.875368 177.261063 
L 284.120021 178.314426 
L 284.364674 183.410425 
L 284.609327 182.015431 
L 284.85398 182.100839 
L 285.343286 175.01199 
L 285.587939 174.044035 
L 286.077245 165.731008 
L 286.321898 164.222137 
L 286.566551 163.965913 
L 286.811204 164.990807 
L 287.055857 162.371634 
L 287.30051 163.140305 
L 287.545163 163.111835 
L 287.789816 162.058472 
L 288.034469 164.620707 
L 288.279122 164.962338 
L 288.523775 162.684796 
L 288.768428 157.389512 
L 289.013081 157.816551 
L 289.257734 154.001669 
L 289.502387 152.435859 
L 289.74704 152.976775 
L 289.991693 152.578205 
L 290.236346 150.81311 
L 290.480999 151.325557 
L 290.725652 152.464328 
L 290.970305 152.321982 
L 291.214958 154.371769 
L 291.459611 152.606674 
L 291.704264 151.838004 
L 291.948917 148.791792 
L 292.19357 148.763323 
L 292.438223 149.64587 
L 292.682876 157.503389 
L 292.92753 158.328998 
L 293.172183 152.749021 
L 293.416836 152.037289 
L 293.661489 150.357602 
L 293.906142 151.439434 
L 294.150795 155.51054 
L 294.395448 150.642295 
L 294.640101 150.072909 
L 294.884754 147.425267 
L 295.129407 147.567613 
L 295.37406 143.866608 
L 295.618713 143.154876 
L 295.863366 140.962743 
L 296.108019 147.966183 
L 296.352672 145.176195 
L 296.597325 148.848731 
L 296.841978 146.54272 
L 297.331284 156.30768 
L 297.575937 158.926852 
L 297.82059 166.698963 
L 298.065243 165.987232 
L 298.309896 162.741735 
L 298.554549 164.706114 
L 298.799202 163.197243 
L 299.043855 164.734584 
L 299.288508 168.122427 
L 299.533161 168.37865 
L 299.777814 170.656192 
L 300.022467 170.143745 
L 300.26712 168.293243 
L 300.511773 168.577935 
L 300.756426 167.980081 
L 301.001079 166.04417 
L 301.245732 167.268349 
L 301.490385 165.474785 
L 301.979691 167.581511 
L 302.224344 166.955187 
L 302.468997 167.524572 
L 302.71365 164.250606 
L 302.958303 166.499678 
L 303.202956 172.222002 
L 303.447609 170.542315 
L 303.692262 175.581376 
L 303.936915 184.520727 
L 304.181568 178.257487 
L 304.670874 173.019141 
L 304.915527 172.848326 
L 305.16018 171.823432 
L 305.404833 172.193533 
L 305.894139 170.257622 
L 306.138792 168.293243 
L 306.383445 167.581511 
L 306.628098 165.958762 
L 306.872751 162.798673 
L 307.117404 163.70969 
L 307.362057 163.168774 
L 307.60671 155.482071 
L 307.851363 156.734719 
L 308.340669 150.471479 
L 308.585322 152.919836 
L 308.829975 169.118851 
L 309.074628 175.467499 
L 309.319281 175.638314 
L 309.563934 180.677375 
L 309.808587 179.652482 
L 310.297893 181.047476 
L 310.787199 176.236169 
L 311.031852 178.855342 
L 311.276505 178.798403 
L 311.765811 175.752191 
L 312.010464 175.353622 
L 312.49977 179.851766 
L 312.744423 182.243185 
L 312.989076 182.157777 
L 313.233729 188.193263 
L 313.478382 187.026023 
L 313.967688 188.591833 
L 314.212341 186.997553 
L 314.456994 189.816011 
L 314.701647 187.054492 
L 314.9463 187.196838 
L 315.190953 186.34276 
L 315.435607 187.082961 
L 315.68026 185.858783 
L 315.924913 181.816146 
L 316.169566 182.755632 
L 316.414219 184.890827 
L 316.658872 189.417441 
L 316.903525 185.517151 
L 317.148178 188.990402 
L 317.392831 187.709285 
L 317.637484 184.976235 
L 317.882137 187.424592 
L 318.12679 187.623877 
L 318.371443 184.093688 
L 318.860749 181.502984 
L 319.105402 182.0439 
L 319.350055 183.865934 
L 319.594708 182.869509 
L 319.839361 187.709285 
L 320.084014 188.819587 
L 320.328667 187.196838 
L 320.57332 189.246626 
L 320.817973 192.492123 
L 321.062626 192.748346 
L 321.307279 191.296413 
L 321.551932 192.634469 
L 321.796585 189.047341 
L 322.041238 191.979676 
L 322.530544 187.054492 
L 323.264503 198.897709 
L 323.509156 198.869239 
L 323.753809 200.833619 
L 323.998462 191.267944 
L 324.243115 192.292838 
L 324.732421 196.449351 
L 324.977074 196.534759 
L 325.221727 196.477821 
L 325.46638 195.139765 
L 325.711033 196.050782 
L 325.955686 195.652212 
L 326.444992 199.495563 
L 326.934298 190.755497 
L 327.178951 188.278671 
L 327.668257 190.442335 
L 327.91291 180.079521 
L 328.157563 178.769934 
L 328.402216 176.236169 
L 328.646869 175.552907 
L 328.891522 173.987097 
L 329.136175 175.41056 
L 329.380828 174.869644 
L 329.870134 172.108125 
L 330.114787 168.805689 
L 330.848746 178.342895 
L 331.093399 178.997688 
L 331.338052 176.008415 
L 331.582705 176.122292 
L 332.80597 166.357332 
L 333.050623 165.901824 
L 333.295276 167.268349 
L 333.539929 164.763053 
L 333.784582 165.474785 
L 334.029235 164.50683 
L 334.273888 164.933869 
L 334.518541 163.396528 
L 334.763194 165.047746 
L 335.007847 165.247031 
L 335.2525 166.357332 
L 335.497153 166.04417 
L 335.741806 169.090382 
L 335.986459 175.068929 
L 336.231112 175.467499 
L 336.475765 174.841175 
L 336.720418 171.823432 
L 337.209724 173.275365 
L 337.454377 171.481801 
L 337.69903 168.00855 
L 337.943684 169.716706 
L 338.188337 166.158047 
L 338.43299 166.271924 
L 338.677643 167.780796 
L 338.922296 167.553041 
L 339.166949 170.058337 
L 339.411602 170.997823 
L 339.656255 168.891097 
L 339.900908 168.634874 
L 340.145561 165.844885 
L 340.390214 165.389377 
L 340.634867 166.670494 
L 340.87952 167.097533 
L 341.368826 161.916126 
L 341.858132 160.919701 
L 342.102785 160.691947 
L 342.347438 161.232863 
L 342.592091 157.417981 
L 342.836744 158.215121 
L 343.081397 157.44645 
L 343.32605 155.539009 
L 343.570703 154.912685 
L 343.815356 151.781065 
L 344.060009 151.097803 
L 344.304662 151.638719 
L 344.793968 149.361177 
L 345.038621 154.087076 
L 345.283274 152.208105 
L 345.527927 148.222407 
L 345.77258 150.556887 
L 346.017233 151.496373 
L 346.261886 151.126272 
L 346.995845 150.81311 
L 347.240498 151.268619 
L 347.485151 152.321982 
L 347.729804 151.781065 
L 348.21911 151.268619 
L 348.463763 149.389647 
L 348.708416 148.991077 
L 348.953069 149.731278 
L 349.197722 148.08006 
L 349.442375 148.364753 
L 349.687028 147.396798 
L 349.931681 146.969759 
L 350.176334 147.083636 
L 350.420987 148.820261 
L 350.910293 146.628127 
L 351.154946 146.628127 
L 351.399599 147.539144 
L 351.644252 144.350586 
L 352.133558 145.631703 
L 352.378211 145.574764 
L 352.622864 142.101513 
L 352.867517 141.930698 
L 353.11217 143.354161 
L 353.356823 141.674474 
L 353.601476 138.969894 
L 353.846129 138.001938 
L 354.090782 136.208374 
L 354.335435 135.809805 
L 354.580088 133.475324 
L 354.824741 112.208779 
L 355.069394 114.657136 
L 355.314047 114.571729 
L 355.5587 117.24784 
L 355.803353 113.774589 
L 356.048006 113.546835 
L 356.537312 107.226657 
L 357.026618 104.977584 
L 357.515924 104.180445 
L 357.760577 105.062992 
L 358.494536 96.294457 
L 358.739189 98.799753 
L 358.983842 97.091596 
L 359.228495 93.8461 
L 359.473148 93.732222 
L 359.717801 94.785585 
L 359.962454 90.002748 
L 360.207107 89.205608 
L 360.696414 88.778569 
L 360.941067 86.045519 
L 361.430373 77.931777 
L 361.675026 80.636358 
L 361.919679 85.077564 
L 362.164332 83.056246 
L 362.408985 84.508179 
L 362.653638 84.365832 
L 362.898291 92.935083 
L 363.387597 86.643374 
L 363.63225 85.24838 
L 364.121556 79.639933 
L 364.366209 76.992291 
L 364.610862 77.960246 
L 364.855515 74.914034 
L 365.100168 75.369543 
L 365.344821 77.305453 
L 365.589474 77.988716 
L 365.834127 76.337498 
L 366.07878 79.668403 
L 366.323433 79.582995 
L 366.568086 81.461967 
L 366.812739 79.839218 
L 367.057392 79.78228 
L 367.302045 70.729052 
L 367.791351 74.600873 
L 368.036004 69.846504 
L 368.280657 74.230772 
L 368.52531 73.547509 
L 368.769963 73.604448 
L 369.014616 77.305453 
L 369.259269 77.504738 
L 369.503922 76.593721 
L 369.748575 77.41933 
L 369.993228 83.312469 
L 370.237881 62.757656 
L 370.482534 70.045789 
L 370.727187 68.793141 
L 371.461146 77.077699 
L 371.705799 69.818035 
L 371.950452 75.141789 
L 372.195105 77.704023 
L 372.439758 74.430057 
L 372.684411 74.572403 
L 372.929064 74.572403 
L 373.173717 69.732627 
L 373.41837 67.796717 
L 373.663023 67.910594 
L 373.907676 66.8857 
L 374.152329 63.241633 
L 374.396982 66.11703 
L 374.641635 66.48713 
L 374.886288 64.778974 
L 375.130941 61.134907 
L 375.375594 63.497857 
L 375.620247 64.636628 
L 375.8649 63.469388 
L 376.109553 61.0495 
L 376.354206 61.875108 
L 376.598859 61.448069 
L 376.843512 60.195422 
L 377.088165 60.65093 
L 377.577471 65.177544 
L 377.822124 60.394706 
L 378.066777 60.935623 
L 378.31143 55.754215 
L 378.556083 70.558236 
L 378.800736 68.650795 
L 379.045389 68.650795 
L 379.290042 68.878549 
L 379.534695 69.561812 
L 379.779348 67.426616 
L 380.024001 60.451645 
L 380.268654 62.871533 
L 380.513307 63.213164 
L 381.002613 79.042079 
L 381.247266 77.04923 
L 381.491919 67.255801 
L 381.736572 69.561812 
L 381.981225 68.764672 
L 382.225878 69.049365 
L 382.470531 68.05294 
L 382.715184 63.526326 
L 383.204491 59.768382 
L 383.449144 58.458796 
L 383.693797 51.142193 
L 383.93845 48.978529 
L 384.183103 44.822015 
L 384.427756 45.846909 
L 384.917062 43.683244 
L 385.161715 41.604988 
L 385.406368 42.174373 
L 385.651021 50.601277 
L 385.895674 49.063937 
L 386.140327 49.918015 
L 386.38498 48.693836 
L 386.874286 42.373658 
L 387.118939 40.437748 
L 387.363592 41.975088 
L 387.608245 37.049904 
L 387.852898 35.484095 
L 387.852898 35.484095 
" style="fill:none;stroke:#ff7f0e;stroke-linecap:square;stroke-width:1.5;"/>
   </g>
   <g id="patch_3">
    <path d="M 46.965625 288.430125 
L 46.965625 22.318125 
" style="fill:none;stroke:#000000;stroke-linecap:square;stroke-linejoin:miter;stroke-width:0.8;"/>
   </g>
   <g id="patch_4">
    <path d="M 404.085625 288.430125 
L 404.085625 22.318125 
" style="fill:none;stroke:#000000;stroke-linecap:square;stroke-linejoin:miter;stroke-width:0.8;"/>
   </g>
   <g id="patch_5">
    <path d="M 46.965625 288.430125 
L 404.085625 288.430125 
" style="fill:none;stroke:#000000;stroke-linecap:square;stroke-linejoin:miter;stroke-width:0.8;"/>
   </g>
   <g id="patch_6">
    <path d="M 46.965625 22.318125 
L 404.085625 22.318125 
" style="fill:none;stroke:#000000;stroke-linecap:square;stroke-linejoin:miter;stroke-width:0.8;"/>
   </g>
   <g id="text_15">
    <!-- Training: MCD -->
    <defs>
     <path d="M -0.296875 72.90625 
L 61.375 72.90625 
L 61.375 64.59375 
L 35.5 64.59375 
L 35.5 0 
L 25.59375 0 
L 25.59375 64.59375 
L -0.296875 64.59375 
z
" id="DejaVuSans-84"/>
     <path d="M 54.890625 33.015625 
L 54.890625 0 
L 45.90625 0 
L 45.90625 32.71875 
Q 45.90625 40.484375 42.875 44.328125 
Q 39.84375 48.1875 33.796875 48.1875 
Q 26.515625 48.1875 22.3125 43.546875 
Q 18.109375 38.921875 18.109375 30.90625 
L 18.109375 0 
L 9.078125 0 
L 9.078125 54.6875 
L 18.109375 54.6875 
L 18.109375 46.1875 
Q 21.34375 51.125 25.703125 53.5625 
Q 30.078125 56 35.796875 56 
Q 45.21875 56 50.046875 50.171875 
Q 54.890625 44.34375 54.890625 33.015625 
z
" id="DejaVuSans-110"/>
     <path d="M 45.40625 27.984375 
Q 45.40625 37.75 41.375 43.109375 
Q 37.359375 48.484375 30.078125 48.484375 
Q 22.859375 48.484375 18.828125 43.109375 
Q 14.796875 37.75 14.796875 27.984375 
Q 14.796875 18.265625 18.828125 12.890625 
Q 22.859375 7.515625 30.078125 7.515625 
Q 37.359375 7.515625 41.375 12.890625 
Q 45.40625 18.265625 45.40625 27.984375 
z
M 54.390625 6.78125 
Q 54.390625 -7.171875 48.1875 -13.984375 
Q 42 -20.796875 29.203125 -20.796875 
Q 24.46875 -20.796875 20.265625 -20.09375 
Q 16.0625 -19.390625 12.109375 -17.921875 
L 12.109375 -9.1875 
Q 16.0625 -11.328125 19.921875 -12.34375 
Q 23.78125 -13.375 27.78125 -13.375 
Q 36.625 -13.375 41.015625 -8.765625 
Q 45.40625 -4.15625 45.40625 5.171875 
L 45.40625 9.625 
Q 42.625 4.78125 38.28125 2.390625 
Q 33.9375 0 27.875 0 
Q 17.828125 0 11.671875 7.65625 
Q 5.515625 15.328125 5.515625 27.984375 
Q 5.515625 40.671875 11.671875 48.328125 
Q 17.828125 56 27.875 56 
Q 33.9375 56 38.28125 53.609375 
Q 42.625 51.21875 45.40625 46.390625 
L 45.40625 54.6875 
L 54.390625 54.6875 
z
" id="DejaVuSans-103"/>
     <path d="M 11.71875 12.40625 
L 22.015625 12.40625 
L 22.015625 0 
L 11.71875 0 
z
M 11.71875 51.703125 
L 22.015625 51.703125 
L 22.015625 39.3125 
L 11.71875 39.3125 
z
" id="DejaVuSans-58"/>
     <path d="M 9.8125 72.90625 
L 24.515625 72.90625 
L 43.109375 23.296875 
L 61.8125 72.90625 
L 76.515625 72.90625 
L 76.515625 0 
L 66.890625 0 
L 66.890625 64.015625 
L 48.09375 14.015625 
L 38.1875 14.015625 
L 19.390625 64.015625 
L 19.390625 0 
L 9.8125 0 
z
" id="DejaVuSans-77"/>
     <path d="M 64.40625 67.28125 
L 64.40625 56.890625 
Q 59.421875 61.53125 53.78125 63.8125 
Q 48.140625 66.109375 41.796875 66.109375 
Q 29.296875 66.109375 22.65625 58.46875 
Q 16.015625 50.828125 16.015625 36.375 
Q 16.015625 21.96875 22.65625 14.328125 
Q 29.296875 6.6875 41.796875 6.6875 
Q 48.140625 6.6875 53.78125 8.984375 
Q 59.421875 11.28125 64.40625 15.921875 
L 64.40625 5.609375 
Q 59.234375 2.09375 53.4375 0.328125 
Q 47.65625 -1.421875 41.21875 -1.421875 
Q 24.65625 -1.421875 15.125 8.703125 
Q 5.609375 18.84375 5.609375 36.375 
Q 5.609375 53.953125 15.125 64.078125 
Q 24.65625 74.21875 41.21875 74.21875 
Q 47.75 74.21875 53.53125 72.484375 
Q 59.328125 70.75 64.40625 67.28125 
z
" id="DejaVuSans-67"/>
    </defs>
    <g transform="translate(183.94 16.318125)scale(0.12 -0.12)">
     <use xlink:href="#DejaVuSans-84"/>
     <use x="46.333984" xlink:href="#DejaVuSans-114"/>
     <use x="87.447266" xlink:href="#DejaVuSans-97"/>
     <use x="148.726562" xlink:href="#DejaVuSans-105"/>
     <use x="176.509766" xlink:href="#DejaVuSans-110"/>
     <use x="239.888672" xlink:href="#DejaVuSans-105"/>
     <use x="267.671875" xlink:href="#DejaVuSans-110"/>
     <use x="331.050781" xlink:href="#DejaVuSans-103"/>
     <use x="394.527344" xlink:href="#DejaVuSans-58"/>
     <use x="428.21875" xlink:href="#DejaVuSans-32"/>
     <use x="460.005859" xlink:href="#DejaVuSans-77"/>
     <use x="546.285156" xlink:href="#DejaVuSans-67"/>
     <use x="616.109375" xlink:href="#DejaVuSans-68"/>
    </g>
   </g>
   <g id="legend_1">
    <g id="patch_7">
     <path d="M 53.965625 59.674375 
L 137.69375 59.674375 
Q 139.69375 59.674375 139.69375 57.674375 
L 139.69375 29.318125 
Q 139.69375 27.318125 137.69375 27.318125 
L 53.965625 27.318125 
Q 51.965625 27.318125 51.965625 29.318125 
L 51.965625 57.674375 
Q 51.965625 59.674375 53.965625 59.674375 
z
" style="fill:#ffffff;opacity:0.8;stroke:#cccccc;stroke-linejoin:miter;"/>
    </g>
    <g id="line2d_27">
     <path d="M 55.965625 35.416562 
L 75.965625 35.416562 
" style="fill:none;stroke:#1f77b4;stroke-linecap:square;stroke-width:1.5;"/>
    </g>
    <g id="line2d_28"/>
    <g id="text_16">
     <!-- Predicted -->
     <defs>
      <path d="M 45.40625 46.390625 
L 45.40625 75.984375 
L 54.390625 75.984375 
L 54.390625 0 
L 45.40625 0 
L 45.40625 8.203125 
Q 42.578125 3.328125 38.25 0.953125 
Q 33.9375 -1.421875 27.875 -1.421875 
Q 17.96875 -1.421875 11.734375 6.484375 
Q 5.515625 14.40625 5.515625 27.296875 
Q 5.515625 40.1875 11.734375 48.09375 
Q 17.96875 56 27.875 56 
Q 33.9375 56 38.25 53.625 
Q 42.578125 51.265625 45.40625 46.390625 
z
M 14.796875 27.296875 
Q 14.796875 17.390625 18.875 11.75 
Q 22.953125 6.109375 30.078125 6.109375 
Q 37.203125 6.109375 41.296875 11.75 
Q 45.40625 17.390625 45.40625 27.296875 
Q 45.40625 37.203125 41.296875 42.84375 
Q 37.203125 48.484375 30.078125 48.484375 
Q 22.953125 48.484375 18.875 42.84375 
Q 14.796875 37.203125 14.796875 27.296875 
z
" id="DejaVuSans-100"/>
      <path d="M 18.3125 70.21875 
L 18.3125 54.6875 
L 36.8125 54.6875 
L 36.8125 47.703125 
L 18.3125 47.703125 
L 18.3125 18.015625 
Q 18.3125 11.328125 20.140625 9.421875 
Q 21.96875 7.515625 27.59375 7.515625 
L 36.8125 7.515625 
L 36.8125 0 
L 27.59375 0 
Q 17.1875 0 13.234375 3.875 
Q 9.28125 7.765625 9.28125 18.015625 
L 9.28125 47.703125 
L 2.6875 47.703125 
L 2.6875 54.6875 
L 9.28125 54.6875 
L 9.28125 70.21875 
z
" id="DejaVuSans-116"/>
     </defs>
     <g transform="translate(83.965625 38.916562)scale(0.1 -0.1)">
      <use xlink:href="#DejaVuSans-80"/>
      <use x="58.552734" xlink:href="#DejaVuSans-114"/>
      <use x="97.416016" xlink:href="#DejaVuSans-101"/>
      <use x="158.939453" xlink:href="#DejaVuSans-100"/>
      <use x="222.416016" xlink:href="#DejaVuSans-105"/>
      <use x="250.199219" xlink:href="#DejaVuSans-99"/>
      <use x="305.179688" xlink:href="#DejaVuSans-116"/>
      <use x="344.388672" xlink:href="#DejaVuSans-101"/>
      <use x="405.912109" xlink:href="#DejaVuSans-100"/>
     </g>
    </g>
    <g id="line2d_29">
     <path d="M 55.965625 50.094687 
L 75.965625 50.094687 
" style="fill:none;stroke:#ff7f0e;stroke-linecap:square;stroke-width:1.5;"/>
    </g>
    <g id="line2d_30"/>
    <g id="text_17">
     <!-- True value -->
     <defs>
      <path d="M 8.5 21.578125 
L 8.5 54.6875 
L 17.484375 54.6875 
L 17.484375 21.921875 
Q 17.484375 14.15625 20.5 10.265625 
Q 23.53125 6.390625 29.59375 6.390625 
Q 36.859375 6.390625 41.078125 11.03125 
Q 45.3125 15.671875 45.3125 23.6875 
L 45.3125 54.6875 
L 54.296875 54.6875 
L 54.296875 0 
L 45.3125 0 
L 45.3125 8.40625 
Q 42.046875 3.421875 37.71875 1 
Q 33.40625 -1.421875 27.6875 -1.421875 
Q 18.265625 -1.421875 13.375 4.4375 
Q 8.5 10.296875 8.5 21.578125 
z
M 31.109375 56 
z
" id="DejaVuSans-117"/>
      <path d="M 2.984375 54.6875 
L 12.5 54.6875 
L 29.59375 8.796875 
L 46.6875 54.6875 
L 56.203125 54.6875 
L 35.6875 0 
L 23.484375 0 
z
" id="DejaVuSans-118"/>
      <path d="M 9.421875 75.984375 
L 18.40625 75.984375 
L 18.40625 0 
L 9.421875 0 
z
" id="DejaVuSans-108"/>
     </defs>
     <g transform="translate(83.965625 53.594687)scale(0.1 -0.1)">
      <use xlink:href="#DejaVuSans-84"/>
      <use x="46.333984" xlink:href="#DejaVuSans-114"/>
      <use x="87.447266" xlink:href="#DejaVuSans-117"/>
      <use x="150.826172" xlink:href="#DejaVuSans-101"/>
      <use x="212.349609" xlink:href="#DejaVuSans-32"/>
      <use x="244.136719" xlink:href="#DejaVuSans-118"/>
      <use x="303.316406" xlink:href="#DejaVuSans-97"/>
      <use x="364.595703" xlink:href="#DejaVuSans-108"/>
      <use x="392.378906" xlink:href="#DejaVuSans-117"/>
      <use x="455.757812" xlink:href="#DejaVuSans-101"/>
     </g>
    </g>
   </g>
  </g>
 </g>
 <defs>
  <clipPath id="p0725d36ddc">
   <rect height="266.112" width="357.12" x="46.965625" y="22.318125"/>
  </clipPath>
 </defs>
</svg>
