<?xml version="1.0" encoding="utf-8" standalone="no"?>
<!DOCTYPE svg PUBLIC "-//W3C//DTD SVG 1.1//EN"
  "http://www.w3.org/Graphics/SVG/1.1/DTD/svg11.dtd">
<!-- Created with matplotlib (https://matplotlib.org/) -->
<svg height="325.986375pt" version="1.1" viewBox="0 0 404.923125 325.986375" width="404.923125pt" xmlns="http://www.w3.org/2000/svg" xmlns:xlink="http://www.w3.org/1999/xlink">
 <defs>
  <style type="text/css">
*{stroke-linecap:butt;stroke-linejoin:round;}
  </style>
 </defs>
 <g id="figure_1">
  <g id="patch_1">
   <path d="M 0 325.986375 
L 404.923125 325.986375 
L 404.923125 0 
L 0 0 
z
" style="fill:#ffffff;"/>
  </g>
  <g id="axes_1">
   <g id="patch_2">
    <path d="M 40.603125 288.430125 
L 397.723125 288.430125 
L 397.723125 22.318125 
L 40.603125 22.318125 
z
" style="fill:#ffffff;"/>
   </g>
   <g id="matplotlib.axis_1">
    <g id="xtick_1">
     <g id="line2d_1">
      <path clip-path="url(#pc9415a11fd)" d="M 56.835852 288.430125 
L 56.835852 22.318125 
" style="fill:none;stroke:#b0b0b0;stroke-dasharray:2.96,1.28;stroke-dashoffset:0;stroke-width:0.8;"/>
     </g>
     <g id="line2d_2">
      <defs>
       <path d="M 0 0 
L 0 3.5 
" id="m36ad1aac98" style="stroke:#000000;stroke-width:0.8;"/>
      </defs>
      <g>
       <use style="stroke:#000000;stroke-width:0.8;" x="56.835852" xlink:href="#m36ad1aac98" y="288.430125"/>
      </g>
     </g>
     <g id="text_1">
      <!-- 0 -->
      <defs>
       <path d="M 31.78125 66.40625 
Q 24.171875 66.40625 20.328125 58.90625 
Q 16.5 51.421875 16.5 36.375 
Q 16.5 21.390625 20.328125 13.890625 
Q 24.171875 6.390625 31.78125 6.390625 
Q 39.453125 6.390625 43.28125 13.890625 
Q 47.125 21.390625 47.125 36.375 
Q 47.125 51.421875 43.28125 58.90625 
Q 39.453125 66.40625 31.78125 66.40625 
z
M 31.78125 74.21875 
Q 44.046875 74.21875 50.515625 64.515625 
Q 56.984375 54.828125 56.984375 36.375 
Q 56.984375 17.96875 50.515625 8.265625 
Q 44.046875 -1.421875 31.78125 -1.421875 
Q 19.53125 -1.421875 13.0625 8.265625 
Q 6.59375 17.96875 6.59375 36.375 
Q 6.59375 54.828125 13.0625 64.515625 
Q 19.53125 74.21875 31.78125 74.21875 
z
" id="DejaVuSans-48"/>
      </defs>
      <g transform="translate(53.654602 303.028562)scale(0.1 -0.1)">
       <use xlink:href="#DejaVuSans-48"/>
      </g>
     </g>
    </g>
    <g id="xtick_2">
     <g id="line2d_3">
      <path clip-path="url(#pc9415a11fd)" d="M 105.766454 288.430125 
L 105.766454 22.318125 
" style="fill:none;stroke:#b0b0b0;stroke-dasharray:2.96,1.28;stroke-dashoffset:0;stroke-width:0.8;"/>
     </g>
     <g id="line2d_4">
      <g>
       <use style="stroke:#000000;stroke-width:0.8;" x="105.766454" xlink:href="#m36ad1aac98" y="288.430125"/>
      </g>
     </g>
     <g id="text_2">
      <!-- 200 -->
      <defs>
       <path d="M 19.1875 8.296875 
L 53.609375 8.296875 
L 53.609375 0 
L 7.328125 0 
L 7.328125 8.296875 
Q 12.9375 14.109375 22.625 23.890625 
Q 32.328125 33.6875 34.8125 36.53125 
Q 39.546875 41.84375 41.421875 45.53125 
Q 43.3125 49.21875 43.3125 52.78125 
Q 43.3125 58.59375 39.234375 62.25 
Q 35.15625 65.921875 28.609375 65.921875 
Q 23.96875 65.921875 18.8125 64.3125 
Q 13.671875 62.703125 7.8125 59.421875 
L 7.8125 69.390625 
Q 13.765625 71.78125 18.9375 73 
Q 24.125 74.21875 28.421875 74.21875 
Q 39.75 74.21875 46.484375 68.546875 
Q 53.21875 62.890625 53.21875 53.421875 
Q 53.21875 48.921875 51.53125 44.890625 
Q 49.859375 40.875 45.40625 35.40625 
Q 44.1875 33.984375 37.640625 27.21875 
Q 31.109375 20.453125 19.1875 8.296875 
z
" id="DejaVuSans-50"/>
      </defs>
      <g transform="translate(96.222704 303.028562)scale(0.1 -0.1)">
       <use xlink:href="#DejaVuSans-50"/>
       <use x="63.623047" xlink:href="#DejaVuSans-48"/>
       <use x="127.246094" xlink:href="#DejaVuSans-48"/>
      </g>
     </g>
    </g>
    <g id="xtick_3">
     <g id="line2d_5">
      <path clip-path="url(#pc9415a11fd)" d="M 154.697057 288.430125 
L 154.697057 22.318125 
" style="fill:none;stroke:#b0b0b0;stroke-dasharray:2.96,1.28;stroke-dashoffset:0;stroke-width:0.8;"/>
     </g>
     <g id="line2d_6">
      <g>
       <use style="stroke:#000000;stroke-width:0.8;" x="154.697057" xlink:href="#m36ad1aac98" y="288.430125"/>
      </g>
     </g>
     <g id="text_3">
      <!-- 400 -->
      <defs>
       <path d="M 37.796875 64.3125 
L 12.890625 25.390625 
L 37.796875 25.390625 
z
M 35.203125 72.90625 
L 47.609375 72.90625 
L 47.609375 25.390625 
L 58.015625 25.390625 
L 58.015625 17.1875 
L 47.609375 17.1875 
L 47.609375 0 
L 37.796875 0 
L 37.796875 17.1875 
L 4.890625 17.1875 
L 4.890625 26.703125 
z
" id="DejaVuSans-52"/>
      </defs>
      <g transform="translate(145.153307 303.028562)scale(0.1 -0.1)">
       <use xlink:href="#DejaVuSans-52"/>
       <use x="63.623047" xlink:href="#DejaVuSans-48"/>
       <use x="127.246094" xlink:href="#DejaVuSans-48"/>
      </g>
     </g>
    </g>
    <g id="xtick_4">
     <g id="line2d_7">
      <path clip-path="url(#pc9415a11fd)" d="M 203.627659 288.430125 
L 203.627659 22.318125 
" style="fill:none;stroke:#b0b0b0;stroke-dasharray:2.96,1.28;stroke-dashoffset:0;stroke-width:0.8;"/>
     </g>
     <g id="line2d_8">
      <g>
       <use style="stroke:#000000;stroke-width:0.8;" x="203.627659" xlink:href="#m36ad1aac98" y="288.430125"/>
      </g>
     </g>
     <g id="text_4">
      <!-- 600 -->
      <defs>
       <path d="M 33.015625 40.375 
Q 26.375 40.375 22.484375 35.828125 
Q 18.609375 31.296875 18.609375 23.390625 
Q 18.609375 15.53125 22.484375 10.953125 
Q 26.375 6.390625 33.015625 6.390625 
Q 39.65625 6.390625 43.53125 10.953125 
Q 47.40625 15.53125 47.40625 23.390625 
Q 47.40625 31.296875 43.53125 35.828125 
Q 39.65625 40.375 33.015625 40.375 
z
M 52.59375 71.296875 
L 52.59375 62.3125 
Q 48.875 64.0625 45.09375 64.984375 
Q 41.3125 65.921875 37.59375 65.921875 
Q 27.828125 65.921875 22.671875 59.328125 
Q 17.53125 52.734375 16.796875 39.40625 
Q 19.671875 43.65625 24.015625 45.921875 
Q 28.375 48.1875 33.59375 48.1875 
Q 44.578125 48.1875 50.953125 41.515625 
Q 57.328125 34.859375 57.328125 23.390625 
Q 57.328125 12.15625 50.6875 5.359375 
Q 44.046875 -1.421875 33.015625 -1.421875 
Q 20.359375 -1.421875 13.671875 8.265625 
Q 6.984375 17.96875 6.984375 36.375 
Q 6.984375 53.65625 15.1875 63.9375 
Q 23.390625 74.21875 37.203125 74.21875 
Q 40.921875 74.21875 44.703125 73.484375 
Q 48.484375 72.75 52.59375 71.296875 
z
" id="DejaVuSans-54"/>
      </defs>
      <g transform="translate(194.083909 303.028562)scale(0.1 -0.1)">
       <use xlink:href="#DejaVuSans-54"/>
       <use x="63.623047" xlink:href="#DejaVuSans-48"/>
       <use x="127.246094" xlink:href="#DejaVuSans-48"/>
      </g>
     </g>
    </g>
    <g id="xtick_5">
     <g id="line2d_9">
      <path clip-path="url(#pc9415a11fd)" d="M 252.558261 288.430125 
L 252.558261 22.318125 
" style="fill:none;stroke:#b0b0b0;stroke-dasharray:2.96,1.28;stroke-dashoffset:0;stroke-width:0.8;"/>
     </g>
     <g id="line2d_10">
      <g>
       <use style="stroke:#000000;stroke-width:0.8;" x="252.558261" xlink:href="#m36ad1aac98" y="288.430125"/>
      </g>
     </g>
     <g id="text_5">
      <!-- 800 -->
      <defs>
       <path d="M 31.78125 34.625 
Q 24.75 34.625 20.71875 30.859375 
Q 16.703125 27.09375 16.703125 20.515625 
Q 16.703125 13.921875 20.71875 10.15625 
Q 24.75 6.390625 31.78125 6.390625 
Q 38.8125 6.390625 42.859375 10.171875 
Q 46.921875 13.96875 46.921875 20.515625 
Q 46.921875 27.09375 42.890625 30.859375 
Q 38.875 34.625 31.78125 34.625 
z
M 21.921875 38.8125 
Q 15.578125 40.375 12.03125 44.71875 
Q 8.5 49.078125 8.5 55.328125 
Q 8.5 64.0625 14.71875 69.140625 
Q 20.953125 74.21875 31.78125 74.21875 
Q 42.671875 74.21875 48.875 69.140625 
Q 55.078125 64.0625 55.078125 55.328125 
Q 55.078125 49.078125 51.53125 44.71875 
Q 48 40.375 41.703125 38.8125 
Q 48.828125 37.15625 52.796875 32.3125 
Q 56.78125 27.484375 56.78125 20.515625 
Q 56.78125 9.90625 50.3125 4.234375 
Q 43.84375 -1.421875 31.78125 -1.421875 
Q 19.734375 -1.421875 13.25 4.234375 
Q 6.78125 9.90625 6.78125 20.515625 
Q 6.78125 27.484375 10.78125 32.3125 
Q 14.796875 37.15625 21.921875 38.8125 
z
M 18.3125 54.390625 
Q 18.3125 48.734375 21.84375 45.5625 
Q 25.390625 42.390625 31.78125 42.390625 
Q 38.140625 42.390625 41.71875 45.5625 
Q 45.3125 48.734375 45.3125 54.390625 
Q 45.3125 60.0625 41.71875 63.234375 
Q 38.140625 66.40625 31.78125 66.40625 
Q 25.390625 66.40625 21.84375 63.234375 
Q 18.3125 60.0625 18.3125 54.390625 
z
" id="DejaVuSans-56"/>
      </defs>
      <g transform="translate(243.014511 303.028562)scale(0.1 -0.1)">
       <use xlink:href="#DejaVuSans-56"/>
       <use x="63.623047" xlink:href="#DejaVuSans-48"/>
       <use x="127.246094" xlink:href="#DejaVuSans-48"/>
      </g>
     </g>
    </g>
    <g id="xtick_6">
     <g id="line2d_11">
      <path clip-path="url(#pc9415a11fd)" d="M 301.488863 288.430125 
L 301.488863 22.318125 
" style="fill:none;stroke:#b0b0b0;stroke-dasharray:2.96,1.28;stroke-dashoffset:0;stroke-width:0.8;"/>
     </g>
     <g id="line2d_12">
      <g>
       <use style="stroke:#000000;stroke-width:0.8;" x="301.488863" xlink:href="#m36ad1aac98" y="288.430125"/>
      </g>
     </g>
     <g id="text_6">
      <!-- 1000 -->
      <defs>
       <path d="M 12.40625 8.296875 
L 28.515625 8.296875 
L 28.515625 63.921875 
L 10.984375 60.40625 
L 10.984375 69.390625 
L 28.421875 72.90625 
L 38.28125 72.90625 
L 38.28125 8.296875 
L 54.390625 8.296875 
L 54.390625 0 
L 12.40625 0 
z
" id="DejaVuSans-49"/>
      </defs>
      <g transform="translate(288.763863 303.028562)scale(0.1 -0.1)">
       <use xlink:href="#DejaVuSans-49"/>
       <use x="63.623047" xlink:href="#DejaVuSans-48"/>
       <use x="127.246094" xlink:href="#DejaVuSans-48"/>
       <use x="190.869141" xlink:href="#DejaVuSans-48"/>
      </g>
     </g>
    </g>
    <g id="xtick_7">
     <g id="line2d_13">
      <path clip-path="url(#pc9415a11fd)" d="M 350.419465 288.430125 
L 350.419465 22.318125 
" style="fill:none;stroke:#b0b0b0;stroke-dasharray:2.96,1.28;stroke-dashoffset:0;stroke-width:0.8;"/>
     </g>
     <g id="line2d_14">
      <g>
       <use style="stroke:#000000;stroke-width:0.8;" x="350.419465" xlink:href="#m36ad1aac98" y="288.430125"/>
      </g>
     </g>
     <g id="text_7">
      <!-- 1200 -->
      <g transform="translate(337.694465 303.028562)scale(0.1 -0.1)">
       <use xlink:href="#DejaVuSans-49"/>
       <use x="63.623047" xlink:href="#DejaVuSans-50"/>
       <use x="127.246094" xlink:href="#DejaVuSans-48"/>
       <use x="190.869141" xlink:href="#DejaVuSans-48"/>
      </g>
     </g>
    </g>
    <g id="text_8">
     <!-- Day -->
     <defs>
      <path d="M 19.671875 64.796875 
L 19.671875 8.109375 
L 31.59375 8.109375 
Q 46.6875 8.109375 53.6875 14.9375 
Q 60.6875 21.78125 60.6875 36.53125 
Q 60.6875 51.171875 53.6875 57.984375 
Q 46.6875 64.796875 31.59375 64.796875 
z
M 9.8125 72.90625 
L 30.078125 72.90625 
Q 51.265625 72.90625 61.171875 64.09375 
Q 71.09375 55.28125 71.09375 36.53125 
Q 71.09375 17.671875 61.125 8.828125 
Q 51.171875 0 30.078125 0 
L 9.8125 0 
z
" id="DejaVuSans-68"/>
      <path d="M 34.28125 27.484375 
Q 23.390625 27.484375 19.1875 25 
Q 14.984375 22.515625 14.984375 16.5 
Q 14.984375 11.71875 18.140625 8.90625 
Q 21.296875 6.109375 26.703125 6.109375 
Q 34.1875 6.109375 38.703125 11.40625 
Q 43.21875 16.703125 43.21875 25.484375 
L 43.21875 27.484375 
z
M 52.203125 31.203125 
L 52.203125 0 
L 43.21875 0 
L 43.21875 8.296875 
Q 40.140625 3.328125 35.546875 0.953125 
Q 30.953125 -1.421875 24.3125 -1.421875 
Q 15.921875 -1.421875 10.953125 3.296875 
Q 6 8.015625 6 15.921875 
Q 6 25.140625 12.171875 29.828125 
Q 18.359375 34.515625 30.609375 34.515625 
L 43.21875 34.515625 
L 43.21875 35.40625 
Q 43.21875 41.609375 39.140625 45 
Q 35.0625 48.390625 27.6875 48.390625 
Q 23 48.390625 18.546875 47.265625 
Q 14.109375 46.140625 10.015625 43.890625 
L 10.015625 52.203125 
Q 14.9375 54.109375 19.578125 55.046875 
Q 24.21875 56 28.609375 56 
Q 40.484375 56 46.34375 49.84375 
Q 52.203125 43.703125 52.203125 31.203125 
z
" id="DejaVuSans-97"/>
      <path d="M 32.171875 -5.078125 
Q 28.375 -14.84375 24.75 -17.8125 
Q 21.140625 -20.796875 15.09375 -20.796875 
L 7.90625 -20.796875 
L 7.90625 -13.28125 
L 13.1875 -13.28125 
Q 16.890625 -13.28125 18.9375 -11.515625 
Q 21 -9.765625 23.484375 -3.21875 
L 25.09375 0.875 
L 2.984375 54.6875 
L 12.5 54.6875 
L 29.59375 11.921875 
L 46.6875 54.6875 
L 56.203125 54.6875 
z
" id="DejaVuSans-121"/>
     </defs>
     <g transform="translate(209.289688 316.706687)scale(0.1 -0.1)">
      <use xlink:href="#DejaVuSans-68"/>
      <use x="77.001953" xlink:href="#DejaVuSans-97"/>
      <use x="138.28125" xlink:href="#DejaVuSans-121"/>
     </g>
    </g>
   </g>
   <g id="matplotlib.axis_2">
    <g id="ytick_1">
     <g id="line2d_15">
      <path clip-path="url(#pc9415a11fd)" d="M 40.603125 270.870707 
L 397.723125 270.870707 
" style="fill:none;stroke:#b0b0b0;stroke-dasharray:2.96,1.28;stroke-dashoffset:0;stroke-width:0.8;"/>
     </g>
     <g id="line2d_16">
      <defs>
       <path d="M 0 0 
L -3.5 0 
" id="m512a0691c1" style="stroke:#000000;stroke-width:0.8;"/>
      </defs>
      <g>
       <use style="stroke:#000000;stroke-width:0.8;" x="40.603125" xlink:href="#m512a0691c1" y="270.870707"/>
      </g>
     </g>
     <g id="text_9">
      <!-- 20 -->
      <g transform="translate(20.878125 274.669926)scale(0.1 -0.1)">
       <use xlink:href="#DejaVuSans-50"/>
       <use x="63.623047" xlink:href="#DejaVuSans-48"/>
      </g>
     </g>
    </g>
    <g id="ytick_2">
     <g id="line2d_17">
      <path clip-path="url(#pc9415a11fd)" d="M 40.603125 236.292115 
L 397.723125 236.292115 
" style="fill:none;stroke:#b0b0b0;stroke-dasharray:2.96,1.28;stroke-dashoffset:0;stroke-width:0.8;"/>
     </g>
     <g id="line2d_18">
      <g>
       <use style="stroke:#000000;stroke-width:0.8;" x="40.603125" xlink:href="#m512a0691c1" y="236.292115"/>
      </g>
     </g>
     <g id="text_10">
      <!-- 30 -->
      <defs>
       <path d="M 40.578125 39.3125 
Q 47.65625 37.796875 51.625 33 
Q 55.609375 28.21875 55.609375 21.1875 
Q 55.609375 10.40625 48.1875 4.484375 
Q 40.765625 -1.421875 27.09375 -1.421875 
Q 22.515625 -1.421875 17.65625 -0.515625 
Q 12.796875 0.390625 7.625 2.203125 
L 7.625 11.71875 
Q 11.71875 9.328125 16.59375 8.109375 
Q 21.484375 6.890625 26.8125 6.890625 
Q 36.078125 6.890625 40.9375 10.546875 
Q 45.796875 14.203125 45.796875 21.1875 
Q 45.796875 27.640625 41.28125 31.265625 
Q 36.765625 34.90625 28.71875 34.90625 
L 20.21875 34.90625 
L 20.21875 43.015625 
L 29.109375 43.015625 
Q 36.375 43.015625 40.234375 45.921875 
Q 44.09375 48.828125 44.09375 54.296875 
Q 44.09375 59.90625 40.109375 62.90625 
Q 36.140625 65.921875 28.71875 65.921875 
Q 24.65625 65.921875 20.015625 65.03125 
Q 15.375 64.15625 9.8125 62.3125 
L 9.8125 71.09375 
Q 15.4375 72.65625 20.34375 73.4375 
Q 25.25 74.21875 29.59375 74.21875 
Q 40.828125 74.21875 47.359375 69.109375 
Q 53.90625 64.015625 53.90625 55.328125 
Q 53.90625 49.265625 50.4375 45.09375 
Q 46.96875 40.921875 40.578125 39.3125 
z
" id="DejaVuSans-51"/>
      </defs>
      <g transform="translate(20.878125 240.091334)scale(0.1 -0.1)">
       <use xlink:href="#DejaVuSans-51"/>
       <use x="63.623047" xlink:href="#DejaVuSans-48"/>
      </g>
     </g>
    </g>
    <g id="ytick_3">
     <g id="line2d_19">
      <path clip-path="url(#pc9415a11fd)" d="M 40.603125 201.713523 
L 397.723125 201.713523 
" style="fill:none;stroke:#b0b0b0;stroke-dasharray:2.96,1.28;stroke-dashoffset:0;stroke-width:0.8;"/>
     </g>
     <g id="line2d_20">
      <g>
       <use style="stroke:#000000;stroke-width:0.8;" x="40.603125" xlink:href="#m512a0691c1" y="201.713523"/>
      </g>
     </g>
     <g id="text_11">
      <!-- 40 -->
      <g transform="translate(20.878125 205.512742)scale(0.1 -0.1)">
       <use xlink:href="#DejaVuSans-52"/>
       <use x="63.623047" xlink:href="#DejaVuSans-48"/>
      </g>
     </g>
    </g>
    <g id="ytick_4">
     <g id="line2d_21">
      <path clip-path="url(#pc9415a11fd)" d="M 40.603125 167.134931 
L 397.723125 167.134931 
" style="fill:none;stroke:#b0b0b0;stroke-dasharray:2.96,1.28;stroke-dashoffset:0;stroke-width:0.8;"/>
     </g>
     <g id="line2d_22">
      <g>
       <use style="stroke:#000000;stroke-width:0.8;" x="40.603125" xlink:href="#m512a0691c1" y="167.134931"/>
      </g>
     </g>
     <g id="text_12">
      <!-- 50 -->
      <defs>
       <path d="M 10.796875 72.90625 
L 49.515625 72.90625 
L 49.515625 64.59375 
L 19.828125 64.59375 
L 19.828125 46.734375 
Q 21.96875 47.46875 24.109375 47.828125 
Q 26.265625 48.1875 28.421875 48.1875 
Q 40.625 48.1875 47.75 41.5 
Q 54.890625 34.8125 54.890625 23.390625 
Q 54.890625 11.625 47.5625 5.09375 
Q 40.234375 -1.421875 26.90625 -1.421875 
Q 22.3125 -1.421875 17.546875 -0.640625 
Q 12.796875 0.140625 7.71875 1.703125 
L 7.71875 11.625 
Q 12.109375 9.234375 16.796875 8.0625 
Q 21.484375 6.890625 26.703125 6.890625 
Q 35.15625 6.890625 40.078125 11.328125 
Q 45.015625 15.765625 45.015625 23.390625 
Q 45.015625 31 40.078125 35.4375 
Q 35.15625 39.890625 26.703125 39.890625 
Q 22.75 39.890625 18.8125 39.015625 
Q 14.890625 38.140625 10.796875 36.28125 
z
" id="DejaVuSans-53"/>
      </defs>
      <g transform="translate(20.878125 170.934149)scale(0.1 -0.1)">
       <use xlink:href="#DejaVuSans-53"/>
       <use x="63.623047" xlink:href="#DejaVuSans-48"/>
      </g>
     </g>
    </g>
    <g id="ytick_5">
     <g id="line2d_23">
      <path clip-path="url(#pc9415a11fd)" d="M 40.603125 132.556338 
L 397.723125 132.556338 
" style="fill:none;stroke:#b0b0b0;stroke-dasharray:2.96,1.28;stroke-dashoffset:0;stroke-width:0.8;"/>
     </g>
     <g id="line2d_24">
      <g>
       <use style="stroke:#000000;stroke-width:0.8;" x="40.603125" xlink:href="#m512a0691c1" y="132.556338"/>
      </g>
     </g>
     <g id="text_13">
      <!-- 60 -->
      <g transform="translate(20.878125 136.355557)scale(0.1 -0.1)">
       <use xlink:href="#DejaVuSans-54"/>
       <use x="63.623047" xlink:href="#DejaVuSans-48"/>
      </g>
     </g>
    </g>
    <g id="ytick_6">
     <g id="line2d_25">
      <path clip-path="url(#pc9415a11fd)" d="M 40.603125 97.977746 
L 397.723125 97.977746 
" style="fill:none;stroke:#b0b0b0;stroke-dasharray:2.96,1.28;stroke-dashoffset:0;stroke-width:0.8;"/>
     </g>
     <g id="line2d_26">
      <g>
       <use style="stroke:#000000;stroke-width:0.8;" x="40.603125" xlink:href="#m512a0691c1" y="97.977746"/>
      </g>
     </g>
     <g id="text_14">
      <!-- 70 -->
      <defs>
       <path d="M 8.203125 72.90625 
L 55.078125 72.90625 
L 55.078125 68.703125 
L 28.609375 0 
L 18.3125 0 
L 43.21875 64.59375 
L 8.203125 64.59375 
z
" id="DejaVuSans-55"/>
      </defs>
      <g transform="translate(20.878125 101.776965)scale(0.1 -0.1)">
       <use xlink:href="#DejaVuSans-55"/>
       <use x="63.623047" xlink:href="#DejaVuSans-48"/>
      </g>
     </g>
    </g>
    <g id="ytick_7">
     <g id="line2d_27">
      <path clip-path="url(#pc9415a11fd)" d="M 40.603125 63.399154 
L 397.723125 63.399154 
" style="fill:none;stroke:#b0b0b0;stroke-dasharray:2.96,1.28;stroke-dashoffset:0;stroke-width:0.8;"/>
     </g>
     <g id="line2d_28">
      <g>
       <use style="stroke:#000000;stroke-width:0.8;" x="40.603125" xlink:href="#m512a0691c1" y="63.399154"/>
      </g>
     </g>
     <g id="text_15">
      <!-- 80 -->
      <g transform="translate(20.878125 67.198373)scale(0.1 -0.1)">
       <use xlink:href="#DejaVuSans-56"/>
       <use x="63.623047" xlink:href="#DejaVuSans-48"/>
      </g>
     </g>
    </g>
    <g id="ytick_8">
     <g id="line2d_29">
      <path clip-path="url(#pc9415a11fd)" d="M 40.603125 28.820562 
L 397.723125 28.820562 
" style="fill:none;stroke:#b0b0b0;stroke-dasharray:2.96,1.28;stroke-dashoffset:0;stroke-width:0.8;"/>
     </g>
     <g id="line2d_30">
      <g>
       <use style="stroke:#000000;stroke-width:0.8;" x="40.603125" xlink:href="#m512a0691c1" y="28.820562"/>
      </g>
     </g>
     <g id="text_16">
      <!-- 90 -->
      <defs>
       <path d="M 10.984375 1.515625 
L 10.984375 10.5 
Q 14.703125 8.734375 18.5 7.8125 
Q 22.3125 6.890625 25.984375 6.890625 
Q 35.75 6.890625 40.890625 13.453125 
Q 46.046875 20.015625 46.78125 33.40625 
Q 43.953125 29.203125 39.59375 26.953125 
Q 35.25 24.703125 29.984375 24.703125 
Q 19.046875 24.703125 12.671875 31.3125 
Q 6.296875 37.9375 6.296875 49.421875 
Q 6.296875 60.640625 12.9375 67.421875 
Q 19.578125 74.21875 30.609375 74.21875 
Q 43.265625 74.21875 49.921875 64.515625 
Q 56.59375 54.828125 56.59375 36.375 
Q 56.59375 19.140625 48.40625 8.859375 
Q 40.234375 -1.421875 26.421875 -1.421875 
Q 22.703125 -1.421875 18.890625 -0.6875 
Q 15.09375 0.046875 10.984375 1.515625 
z
M 30.609375 32.421875 
Q 37.25 32.421875 41.125 36.953125 
Q 45.015625 41.5 45.015625 49.421875 
Q 45.015625 57.28125 41.125 61.84375 
Q 37.25 66.40625 30.609375 66.40625 
Q 23.96875 66.40625 20.09375 61.84375 
Q 16.21875 57.28125 16.21875 49.421875 
Q 16.21875 41.5 20.09375 36.953125 
Q 23.96875 32.421875 30.609375 32.421875 
z
" id="DejaVuSans-57"/>
      </defs>
      <g transform="translate(20.878125 32.619781)scale(0.1 -0.1)">
       <use xlink:href="#DejaVuSans-57"/>
       <use x="63.623047" xlink:href="#DejaVuSans-48"/>
      </g>
     </g>
    </g>
    <g id="text_17">
     <!-- Price $ -->
     <defs>
      <path d="M 19.671875 64.796875 
L 19.671875 37.40625 
L 32.078125 37.40625 
Q 38.96875 37.40625 42.71875 40.96875 
Q 46.484375 44.53125 46.484375 51.125 
Q 46.484375 57.671875 42.71875 61.234375 
Q 38.96875 64.796875 32.078125 64.796875 
z
M 9.8125 72.90625 
L 32.078125 72.90625 
Q 44.34375 72.90625 50.609375 67.359375 
Q 56.890625 61.8125 56.890625 51.125 
Q 56.890625 40.328125 50.609375 34.8125 
Q 44.34375 29.296875 32.078125 29.296875 
L 19.671875 29.296875 
L 19.671875 0 
L 9.8125 0 
z
" id="DejaVuSans-80"/>
      <path d="M 41.109375 46.296875 
Q 39.59375 47.171875 37.8125 47.578125 
Q 36.03125 48 33.890625 48 
Q 26.265625 48 22.1875 43.046875 
Q 18.109375 38.09375 18.109375 28.8125 
L 18.109375 0 
L 9.078125 0 
L 9.078125 54.6875 
L 18.109375 54.6875 
L 18.109375 46.1875 
Q 20.953125 51.171875 25.484375 53.578125 
Q 30.03125 56 36.53125 56 
Q 37.453125 56 38.578125 55.875 
Q 39.703125 55.765625 41.0625 55.515625 
z
" id="DejaVuSans-114"/>
      <path d="M 9.421875 54.6875 
L 18.40625 54.6875 
L 18.40625 0 
L 9.421875 0 
z
M 9.421875 75.984375 
L 18.40625 75.984375 
L 18.40625 64.59375 
L 9.421875 64.59375 
z
" id="DejaVuSans-105"/>
      <path d="M 48.78125 52.59375 
L 48.78125 44.1875 
Q 44.96875 46.296875 41.140625 47.34375 
Q 37.3125 48.390625 33.40625 48.390625 
Q 24.65625 48.390625 19.8125 42.84375 
Q 14.984375 37.3125 14.984375 27.296875 
Q 14.984375 17.28125 19.8125 11.734375 
Q 24.65625 6.203125 33.40625 6.203125 
Q 37.3125 6.203125 41.140625 7.25 
Q 44.96875 8.296875 48.78125 10.40625 
L 48.78125 2.09375 
Q 45.015625 0.34375 40.984375 -0.53125 
Q 36.96875 -1.421875 32.421875 -1.421875 
Q 20.0625 -1.421875 12.78125 6.34375 
Q 5.515625 14.109375 5.515625 27.296875 
Q 5.515625 40.671875 12.859375 48.328125 
Q 20.21875 56 33.015625 56 
Q 37.15625 56 41.109375 55.140625 
Q 45.0625 54.296875 48.78125 52.59375 
z
" id="DejaVuSans-99"/>
      <path d="M 56.203125 29.59375 
L 56.203125 25.203125 
L 14.890625 25.203125 
Q 15.484375 15.921875 20.484375 11.0625 
Q 25.484375 6.203125 34.421875 6.203125 
Q 39.59375 6.203125 44.453125 7.46875 
Q 49.3125 8.734375 54.109375 11.28125 
L 54.109375 2.78125 
Q 49.265625 0.734375 44.1875 -0.34375 
Q 39.109375 -1.421875 33.890625 -1.421875 
Q 20.796875 -1.421875 13.15625 6.1875 
Q 5.515625 13.8125 5.515625 26.8125 
Q 5.515625 40.234375 12.765625 48.109375 
Q 20.015625 56 32.328125 56 
Q 43.359375 56 49.78125 48.890625 
Q 56.203125 41.796875 56.203125 29.59375 
z
M 47.21875 32.234375 
Q 47.125 39.59375 43.09375 43.984375 
Q 39.0625 48.390625 32.421875 48.390625 
Q 24.90625 48.390625 20.390625 44.140625 
Q 15.875 39.890625 15.1875 32.171875 
z
" id="DejaVuSans-101"/>
      <path id="DejaVuSans-32"/>
      <path d="M 33.796875 -14.703125 
L 28.90625 -14.703125 
L 28.859375 0 
Q 23.734375 0.09375 18.609375 1.1875 
Q 13.484375 2.296875 8.296875 4.5 
L 8.296875 13.28125 
Q 13.28125 10.15625 18.375 8.5625 
Q 23.484375 6.984375 28.90625 6.9375 
L 28.90625 29.203125 
Q 18.109375 30.953125 13.203125 35.15625 
Q 8.296875 39.359375 8.296875 46.6875 
Q 8.296875 54.640625 13.625 59.21875 
Q 18.953125 63.8125 28.90625 64.5 
L 28.90625 75.984375 
L 33.796875 75.984375 
L 33.796875 64.65625 
Q 38.328125 64.453125 42.578125 63.6875 
Q 46.828125 62.9375 50.875 61.625 
L 50.875 53.078125 
Q 46.828125 55.125 42.546875 56.25 
Q 38.28125 57.375 33.796875 57.5625 
L 33.796875 36.71875 
Q 44.875 35.015625 50.09375 30.609375 
Q 55.328125 26.21875 55.328125 18.609375 
Q 55.328125 10.359375 49.78125 5.59375 
Q 44.234375 0.828125 33.796875 0.09375 
z
M 28.90625 37.59375 
L 28.90625 57.625 
Q 23.25 56.984375 20.265625 54.390625 
Q 17.28125 51.8125 17.28125 47.515625 
Q 17.28125 43.3125 20.03125 40.96875 
Q 22.796875 38.625 28.90625 37.59375 
z
M 33.796875 28.21875 
L 33.796875 7.078125 
Q 39.984375 7.90625 43.140625 10.59375 
Q 46.296875 13.28125 46.296875 17.671875 
Q 46.296875 21.96875 43.28125 24.5 
Q 40.28125 27.046875 33.796875 28.21875 
z
" id="DejaVuSans-36"/>
     </defs>
     <g transform="translate(14.798438 172.342094)rotate(-90)scale(0.1 -0.1)">
      <use xlink:href="#DejaVuSans-80"/>
      <use x="58.552734" xlink:href="#DejaVuSans-114"/>
      <use x="99.666016" xlink:href="#DejaVuSans-105"/>
      <use x="127.449219" xlink:href="#DejaVuSans-99"/>
      <use x="182.429688" xlink:href="#DejaVuSans-101"/>
      <use x="243.953125" xlink:href="#DejaVuSans-32"/>
      <use x="275.740234" xlink:href="#DejaVuSans-36"/>
     </g>
    </g>
   </g>
   <g id="line2d_31">
    <path clip-path="url(#pc9415a11fd)" d="M 56.835852 213.318728 
L 57.325158 144.529485 
L 57.814464 116.787032 
L 58.793076 82.735117 
L 59.527035 66.181676 
L 60.016341 59.855793 
L 60.7503 51.384945 
L 60.994953 49.317727 
L 61.239606 49.065389 
L 61.484259 46.654343 
L 61.728912 46.680988 
L 62.462872 43.647605 
L 62.707525 43.623018 
L 62.952178 46.607648 
L 63.196831 44.948101 
L 63.441484 44.114846 
L 63.686137 44.993372 
L 64.175443 44.368978 
L 64.420096 45.031229 
L 64.664749 43.131216 
L 64.909402 42.963536 
L 65.154055 43.21131 
L 65.643361 41.292118 
L 66.132667 41.084391 
L 66.37732 40.644376 
L 66.621973 40.466117 
L 66.866626 40.466777 
L 67.111279 40.349802 
L 67.355932 41.121457 
L 67.600585 40.224438 
L 67.845238 41.527044 
L 68.089891 41.992913 
L 68.334544 41.425951 
L 68.82385 43.118052 
L 69.068503 42.999389 
L 69.313156 43.448479 
L 69.557809 43.406954 
L 70.291768 46.254138 
L 70.536421 45.611224 
L 70.781074 47.936108 
L 71.025727 45.151581 
L 71.27038 44.382221 
L 71.515033 44.114925 
L 71.759686 42.987728 
L 72.004339 43.582681 
L 72.248992 43.059142 
L 72.493645 42.103213 
L 72.738298 42.593617 
L 73.227604 41.9072 
L 73.472257 41.846575 
L 73.71691 42.487089 
L 73.961563 42.308065 
L 74.206216 42.399582 
L 74.450869 42.358453 
L 74.695522 43.749358 
L 75.184828 42.663712 
L 75.429481 42.545814 
L 76.16344 42.567394 
L 76.408093 42.31656 
L 76.652746 42.435276 
L 76.897399 44.524971 
L 77.386705 41.981516 
L 77.631358 41.621358 
L 77.876011 44.840307 
L 78.120664 41.409093 
L 78.365317 42.059552 
L 78.60997 44.094954 
L 78.854623 40.638071 
L 79.099276 40.063274 
L 79.343929 40.117145 
L 79.588582 39.296737 
L 80.322541 38.46385 
L 80.567194 39.696863 
L 80.811847 38.618841 
L 81.0565 38.203915 
L 81.301153 39.034954 
L 81.545806 38.032594 
L 81.790459 38.063065 
L 82.035112 37.76448 
L 82.279765 38.338512 
L 82.524418 37.9864 
L 82.769071 38.032541 
L 83.258377 38.701546 
L 83.50303 39.49552 
L 83.747683 38.32395 
L 83.992336 38.314004 
L 84.236989 38.138542 
L 84.481643 38.604806 
L 84.726296 38.763437 
L 84.970949 38.538694 
L 85.215602 38.721517 
L 85.460255 41.763052 
L 85.704908 47.780115 
L 85.949561 45.213577 
L 86.194214 41.393792 
L 86.438867 45.128576 
L 86.68352 42.471392 
L 86.928173 43.547857 
L 87.172826 39.671326 
L 87.662132 37.236694 
L 88.151438 37.647901 
L 88.396091 39.374087 
L 88.640744 39.593369 
L 88.885397 41.464045 
L 89.13005 37.733561 
L 89.374703 37.465447 
L 89.619356 37.559207 
L 89.864009 35.77179 
L 90.108662 36.735026 
L 90.353315 35.418728 
L 90.597968 35.169714 
L 90.842621 38.799685 
L 91.087274 35.897655 
L 91.331927 36.359751 
L 91.57658 38.602564 
L 91.821233 36.450134 
L 92.065886 36.891758 
L 92.310539 35.693199 
L 92.555192 37.636399 
L 92.799845 38.224255 
L 93.289151 37.579626 
L 93.533804 42.24409 
L 93.778457 38.463982 
L 94.02311 37.910659 
L 94.267763 38.431032 
L 94.512416 36.522946 
L 94.757069 39.292885 
L 95.001722 40.317142 
L 95.246375 39.048435 
L 95.491028 41.407246 
L 95.735681 40.468571 
L 95.980334 40.1521 
L 96.224987 38.053119 
L 96.46964 38.040851 
L 96.714293 36.472505 
L 96.958946 37.092045 
L 97.203599 35.816902 
L 97.448252 36.799977 
L 97.692905 34.975204 
L 97.937558 34.414125 
L 98.182211 34.432434 
L 98.426864 35.445346 
L 98.671517 37.094736 
L 98.91617 36.381384 
L 99.160823 37.32312 
L 99.405476 36.972854 
L 99.894782 38.135429 
L 100.384088 39.242365 
L 100.628741 45.004426 
L 100.873394 40.827674 
L 101.118047 41.492933 
L 101.3627 40.13635 
L 101.852006 39.528048 
L 102.096659 39.573372 
L 102.341312 39.113228 
L 102.585965 39.203742 
L 102.830618 39.098692 
L 103.075271 41.721554 
L 103.319924 40.860123 
L 103.564577 42.94842 
L 103.80923 40.40449 
L 104.053883 42.653529 
L 104.543189 39.712349 
L 104.787842 41.592259 
L 105.032495 39.500955 
L 105.277148 39.870663 
L 105.521801 37.708182 
L 105.766454 37.623815 
L 106.011107 37.086189 
L 106.25576 38.155267 
L 106.745066 35.858795 
L 107.234373 35.033058 
L 107.479026 34.877329 
L 107.723679 36.052329 
L 107.968332 36.349251 
L 108.212985 35.613238 
L 108.457638 35.498109 
L 108.702291 36.096096 
L 108.946944 36.283192 
L 109.191597 36.327117 
L 109.43625 36.557295 
L 109.925556 37.636372 
L 110.414862 39.193454 
L 110.904168 39.810408 
L 111.148821 39.719023 
L 111.638127 41.507047 
L 111.88278 41.599408 
L 112.127433 42.072954 
L 112.616739 44.08952 
L 112.861392 42.908637 
L 113.106045 42.470363 
L 113.350698 45.125912 
L 113.595351 44.134948 
L 113.840004 44.272738 
L 114.084657 45.820665 
L 114.32931 44.991288 
L 114.573963 45.409802 
L 114.818616 47.978398 
L 115.063269 47.00358 
L 115.307922 49.230484 
L 115.797228 47.487335 
L 116.041881 47.316041 
L 116.286534 48.80978 
L 116.77584 45.216901 
L 117.020493 45.274861 
L 117.509799 43.418721 
L 117.999105 42.592509 
L 118.243758 41.846628 
L 118.488411 42.430184 
L 118.733064 42.456829 
L 119.22237 41.135967 
L 119.467023 41.193241 
L 119.711676 40.497142 
L 119.956329 40.233618 
L 120.200982 42.603536 
L 120.445635 40.097649 
L 120.690288 39.726674 
L 120.934941 39.917728 
L 121.179594 39.123859 
L 121.424247 39.089616 
L 121.6689 38.733626 
L 121.913553 38.925841 
L 122.158206 38.602089 
L 122.402859 38.8076 
L 122.647512 39.595057 
L 122.892165 39.516757 
L 123.136818 38.925366 
L 123.381471 38.973248 
L 123.626124 38.724973 
L 123.870777 38.996464 
L 124.11543 40.547741 
L 124.360083 39.710687 
L 124.604736 40.326059 
L 124.849389 40.02444 
L 125.094042 40.012912 
L 125.338695 42.082187 
L 125.583348 40.271027 
L 125.828001 40.226469 
L 126.072654 40.906449 
L 126.317307 40.595439 
L 126.56196 39.673937 
L 126.806613 39.339554 
L 127.051266 39.495652 
L 127.295919 38.717745 
L 127.540572 38.795095 
L 127.785225 39.176833 
L 128.029878 39.33615 
L 128.519184 39.218621 
L 128.763837 39.322195 
L 129.00849 39.845258 
L 129.253143 39.770098 
L 129.497797 42.307801 
L 129.74245 39.723904 
L 129.987103 39.203874 
L 130.476409 39.718707 
L 130.721062 38.684979 
L 130.965715 40.280313 
L 131.210368 38.228265 
L 131.699674 42.683709 
L 131.944327 44.080656 
L 132.18898 43.411228 
L 132.433633 44.260102 
L 132.678286 41.15227 
L 132.922939 40.826724 
L 133.167592 41.504462 
L 133.656898 36.714739 
L 133.901551 37.667159 
L 134.146204 37.553376 
L 134.390857 35.388706 
L 134.63551 37.572503 
L 134.880163 36.222515 
L 135.369469 34.902708 
L 135.614122 36.411802 
L 135.858775 37.090937 
L 136.103428 35.856236 
L 136.348081 35.999434 
L 136.592734 35.930368 
L 136.837387 36.059531 
L 137.326693 36.875956 
L 137.815999 40.171332 
L 138.060652 38.319122 
L 138.305305 37.786825 
L 138.549958 37.561634 
L 138.794611 45.276497 
L 139.039264 41.127815 
L 139.283917 39.428037 
L 139.52857 46.425458 
L 139.773223 42.357662 
L 140.017876 52.182058 
L 140.262529 53.261637 
L 140.507182 45.951411 
L 140.751835 43.842907 
L 140.996488 43.591492 
L 141.241141 39.076795 
L 141.485794 37.324966 
L 141.730447 37.273153 
L 142.219753 35.946091 
L 142.464406 35.961023 
L 142.709059 34.870549 
L 142.953712 34.501817 
L 143.198365 35.775193 
L 143.443018 34.750883 
L 143.687671 34.793568 
L 143.932324 36.470817 
L 144.176977 35.442603 
L 144.42163 36.932517 
L 144.666283 36.689466 
L 144.910936 36.831978 
L 145.155589 36.836595 
L 145.400242 37.319558 
L 145.889548 39.288453 
L 146.134201 41.203503 
L 146.378854 41.008043 
L 146.623507 42.277964 
L 146.86816 42.94565 
L 147.112813 43.111905 
L 147.602119 44.580266 
L 147.846772 45.836468 
L 148.091425 50.526706 
L 148.336078 45.193897 
L 148.580731 44.257332 
L 148.825384 43.94648 
L 149.070037 43.209648 
L 149.31469 42.867508 
L 149.559343 44.050976 
L 150.048649 42.816012 
L 150.293302 42.486561 
L 150.537955 43.531395 
L 150.782608 42.143366 
L 151.027261 42.202803 
L 151.516567 41.310005 
L 151.76122 40.762908 
L 152.250527 40.643347 
L 152.49518 42.094376 
L 152.984486 41.476682 
L 153.229139 43.955107 
L 153.473792 43.440195 
L 153.718445 41.968879 
L 153.963098 42.431028 
L 154.207751 45.961806 
L 154.452404 43.174139 
L 154.697057 45.177698 
L 154.94171 44.109042 
L 155.186363 43.969221 
L 155.675669 40.41689 
L 155.920322 42.026391 
L 156.409628 38.295827 
L 156.654281 36.711389 
L 157.143587 36.136459 
L 157.38824 34.925317 
L 157.632893 34.911387 
L 157.877546 34.783306 
L 158.122199 34.839577 
L 158.611505 35.967724 
L 159.100811 35.080176 
L 159.345464 35.754061 
L 159.590117 36.042331 
L 159.83477 38.468335 
L 160.079423 36.721308 
L 160.324076 37.980491 
L 160.568729 37.065558 
L 160.813382 36.677541 
L 161.058035 36.711784 
L 161.302688 37.960072 
L 161.547341 37.618829 
L 161.791994 37.60081 
L 162.036647 38.07338 
L 162.2813 40.853871 
L 162.770606 39.519659 
L 163.259912 39.993258 
L 163.504565 41.079141 
L 163.749218 40.198716 
L 164.483177 42.326426 
L 164.72783 41.239329 
L 164.972483 40.694184 
L 165.217136 40.43628 
L 165.461789 39.914325 
L 165.706442 40.64034 
L 165.951095 42.291339 
L 166.195748 41.956401 
L 166.685054 44.040952 
L 166.929707 45.746797 
L 167.17436 45.795049 
L 167.419013 46.627223 
L 167.663666 51.615835 
L 167.908319 50.393349 
L 168.152972 52.717099 
L 168.397625 48.761582 
L 168.642278 47.839289 
L 168.886931 47.854089 
L 169.131584 47.475569 
L 169.376237 47.517594 
L 169.62089 48.634318 
L 169.865543 48.625586 
L 170.110196 48.109434 
L 170.354849 49.061696 
L 170.599502 49.470449 
L 170.844155 50.445557 
L 171.088808 49.752651 
L 171.333461 50.241629 
L 171.578114 48.634239 
L 171.822767 50.334993 
L 172.06742 53.423566 
L 172.312073 52.391315 
L 172.556726 50.701377 
L 172.801379 50.003537 
L 173.290685 50.705467 
L 173.535338 50.759918 
L 173.779991 50.10624 
L 174.024644 50.170874 
L 174.513951 52.685547 
L 174.758604 53.810264 
L 175.003257 54.040626 
L 175.24791 52.637084 
L 175.492563 52.540871 
L 175.737216 52.291884 
L 176.226522 50.64194 
L 176.715828 48.936015 
L 176.960481 48.742719 
L 177.449787 47.565819 
L 177.69444 47.386215 
L 177.939093 45.324775 
L 178.183746 45.766372 
L 178.428399 46.490699 
L 178.673052 44.75747 
L 178.917705 43.885855 
L 179.162358 43.560995 
L 179.407011 43.799114 
L 179.651664 42.721329 
L 179.896317 42.278148 
L 180.14097 42.174021 
L 180.385623 41.377831 
L 180.874929 44.560744 
L 181.119582 43.200705 
L 181.364235 43.099216 
L 181.608888 42.501308 
L 181.853541 43.307681 
L 182.098194 43.040781 
L 182.5875 44.077411 
L 182.832153 43.676308 
L 183.810765 43.384082 
L 184.055418 44.676426 
L 184.300071 42.79401 
L 184.544724 42.453848 
L 184.789377 42.981185 
L 185.03403 42.246438 
L 185.278683 42.102976 
L 185.523336 50.308743 
L 185.767989 51.505957 
L 186.012642 57.730035 
L 186.257295 59.865712 
L 186.501948 65.278695 
L 186.746601 65.235377 
L 186.991254 68.432693 
L 187.969866 72.905998 
L 188.214519 76.600657 
L 188.459172 78.249097 
L 188.703825 75.866991 
L 189.193131 78.614268 
L 189.437784 79.732205 
L 189.682437 79.184422 
L 189.92709 80.796033 
L 190.171743 83.469891 
L 190.416396 81.535741 
L 190.661049 76.331408 
L 190.905702 67.912136 
L 191.395008 59.901617 
L 191.639661 57.662208 
L 191.884314 53.553098 
L 192.618273 47.288208 
L 192.862926 46.346683 
L 193.107579 48.716179 
L 193.352232 44.700802 
L 194.086191 40.572118 
L 194.330844 40.297857 
L 194.575497 40.945625 
L 194.82015 40.081398 
L 195.309456 40.457781 
L 195.554109 40.002306 
L 195.798762 40.187847 
L 196.043415 40.179932 
L 196.288068 40.8487 
L 196.532721 40.802427 
L 197.022028 41.522902 
L 197.266681 41.030652 
L 197.511334 43.684012 
L 197.755987 41.272675 
L 198.00064 40.860413 
L 198.245293 40.799024 
L 198.489946 41.823967 
L 198.734599 40.091423 
L 198.979252 39.850482 
L 199.223905 39.443496 
L 199.468558 40.000512 
L 199.957864 39.481802 
L 200.202517 39.305838 
L 200.44717 39.491484 
L 200.691823 41.275076 
L 200.936476 40.982005 
L 201.181129 42.577207 
L 201.425782 40.925153 
L 201.670435 40.406575 
L 201.915088 40.272689 
L 202.159741 40.407867 
L 202.404394 40.138144 
L 202.649047 40.583198 
L 202.8937 42.337928 
L 203.383006 41.913373 
L 203.872312 39.378229 
L 204.116965 38.574388 
L 204.850924 37.207965 
L 205.095577 37.424873 
L 205.34023 38.554154 
L 205.829536 37.841593 
L 206.074189 38.811425 
L 206.318842 44.859856 
L 206.563495 42.678406 
L 206.808148 44.74879 
L 207.052801 43.864645 
L 207.542107 48.413981 
L 207.78676 50.097983 
L 208.031413 50.163118 
L 208.276066 51.961352 
L 208.520719 50.848955 
L 208.765372 50.721691 
L 209.010025 52.553614 
L 209.254678 51.478494 
L 209.499331 53.136009 
L 209.743984 49.872475 
L 209.988637 52.732743 
L 210.23329 53.680045 
L 210.477943 53.442297 
L 210.722596 52.527206 
L 210.967249 53.894711 
L 211.211902 52.73947 
L 211.456555 52.893669 
L 211.701208 51.857225 
L 211.945861 51.56885 
L 212.190514 49.874744 
L 212.435167 49.498334 
L 212.67982 48.383062 
L 212.924473 49.146301 
L 213.413779 46.545916 
L 213.658432 45.762732 
L 213.903085 45.573577 
L 214.147738 45.53973 
L 214.392391 45.120002 
L 214.881697 43.5945 
L 215.12635 43.288106 
L 215.371003 43.202209 
L 215.615656 42.270893 
L 215.860309 41.966954 
L 216.104962 41.848132 
L 216.349615 42.434537 
L 216.594268 41.910814 
L 216.838921 43.282698 
L 217.083574 41.193953 
L 217.57288 40.508196 
L 217.817533 40.726897 
L 218.306839 40.301339 
L 218.551492 40.305613 
L 218.796145 41.096052 
L 219.040798 41.34037 
L 219.285452 45.285572 
L 219.530105 45.186141 
L 219.774758 44.501095 
L 220.019411 44.237915 
L 220.264064 44.691727 
L 220.508717 45.667759 
L 220.75337 45.683693 
L 220.998023 46.304843 
L 221.487329 49.278498 
L 221.976635 48.295001 
L 222.465941 53.291949 
L 222.710594 52.13568 
L 222.955247 52.59614 
L 223.444553 52.459274 
L 223.689206 51.813352 
L 223.933859 51.883764 
L 224.423165 50.481304 
L 224.667818 50.118745 
L 224.912471 50.213375 
L 225.157124 48.203827 
L 225.401777 50.292519 
L 225.64643 48.147212 
L 225.891083 48.436484 
L 226.135736 47.976788 
L 226.625042 46.14017 
L 227.114348 45.118446 
L 227.359001 45.743315 
L 227.848307 44.45287 
L 228.09296 44.228418 
L 228.337613 43.437557 
L 228.582266 44.355813 
L 228.826919 44.407864 
L 229.071572 43.746483 
L 229.560878 42.930217 
L 230.050184 43.700263 
L 230.294837 42.443164 
L 230.53949 43.538439 
L 230.784143 43.757906 
L 231.028796 43.093728 
L 231.518102 42.379637 
L 231.762755 42.544046 
L 232.007408 41.823755 
L 232.98602 40.572197 
L 233.719979 40.156848 
L 234.943244 41.090512 
L 235.187897 40.91774 
L 235.677203 41.449641 
L 235.921856 40.928345 
L 236.166509 41.822647 
L 236.411162 40.966308 
L 236.900468 50.437959 
L 237.389774 52.409149 
L 237.634427 57.450049 
L 237.87908 59.974245 
L 238.123733 64.026028 
L 238.368386 64.718328 
L 238.857692 68.112925 
L 239.346998 63.878767 
L 239.591651 66.749272 
L 239.836304 60.102248 
L 240.080957 58.859342 
L 240.32561 62.042123 
L 240.570263 61.010268 
L 240.814916 60.971698 
L 241.793529 72.942589 
L 242.282835 66.621005 
L 242.527488 66.665379 
L 242.772141 66.18508 
L 243.016794 66.0661 
L 243.261447 67.083999 
L 243.995406 63.188261 
L 244.240059 61.440232 
L 244.484712 62.647047 
L 244.729365 60.014661 
L 244.974018 61.41881 
L 245.218671 58.69889 
L 245.463324 58.851955 
L 245.707977 57.665374 
L 245.95263 55.783933 
L 246.197283 52.744061 
L 246.441936 51.753176 
L 246.686589 52.045192 
L 246.931242 52.722375 
L 247.420548 48.650938 
L 247.665201 48.173805 
L 248.39916 45.262647 
L 248.643813 45.200255 
L 249.133119 45.709257 
L 249.622425 44.617173 
L 249.867078 44.778232 
L 250.111731 45.937086 
L 250.356384 45.510368 
L 250.601037 44.281022 
L 250.84569 43.921655 
L 251.090343 43.889021 
L 251.334996 43.99489 
L 251.579649 46.32207 
L 251.824302 45.202418 
L 252.558261 48.642575 
L 252.802914 50.980598 
L 253.047567 51.420243 
L 253.29222 52.203032 
L 253.536873 52.169369 
L 253.781526 54.730921 
L 254.026179 55.86131 
L 254.270832 56.078983 
L 254.515485 58.711949 
L 254.760138 58.384319 
L 255.249444 62.408771 
L 255.494097 62.800086 
L 255.73875 60.037323 
L 255.983403 59.377235 
L 256.228056 55.984775 
L 256.472709 56.303594 
L 256.962015 54.103387 
L 257.206668 53.308411 
L 257.451321 53.039163 
L 257.695974 51.607525 
L 257.940627 51.145086 
L 258.919239 45.353768 
L 259.653198 42.516715 
L 260.142504 41.418274 
L 260.63181 40.946047 
L 260.876463 41.600543 
L 261.121116 40.328169 
L 261.365769 40.202963 
L 261.855075 39.744402 
L 262.099728 40.061717 
L 262.344381 39.833914 
L 262.833687 40.022172 
L 263.07834 39.65394 
L 263.322993 40.184734 
L 263.567646 40.340489 
L 263.812299 39.802837 
L 264.056952 39.596508 
L 264.301606 39.778592 
L 264.546259 39.796294 
L 265.035565 39.579914 
L 265.524871 39.767618 
L 266.014177 39.757355 
L 266.25883 39.904722 
L 266.503483 40.587445 
L 266.748136 41.634337 
L 266.992789 41.212473 
L 267.237442 41.798535 
L 267.482095 41.322298 
L 267.726748 42.13838 
L 267.971401 43.4613 
L 268.460707 47.714637 
L 268.70536 47.817049 
L 269.683972 57.642396 
L 269.928625 61.60749 
L 270.173278 59.88476 
L 270.417931 60.808055 
L 270.662584 60.454518 
L 271.15189 64.008142 
L 271.641196 62.015187 
L 272.619808 54.029757 
L 274.087726 46.141911 
L 274.332379 45.43344 
L 274.577032 46.222559 
L 275.066338 44.647987 
L 276.04495 45.041914 
L 276.289603 45.485411 
L 276.534256 47.004028 
L 276.778909 47.240221 
L 277.023562 46.860329 
L 277.268215 49.591513 
L 277.512868 50.349819 
L 277.757521 49.190252 
L 278.002174 48.661939 
L 278.246827 51.315378 
L 278.736133 48.775775 
L 279.225439 48.095241 
L 279.470092 48.820175 
L 279.714745 48.649091 
L 280.204051 47.15398 
L 280.448704 47.203973 
L 280.93801 46.502624 
L 281.182663 46.681067 
L 281.427316 46.168002 
L 281.671969 48.37425 
L 282.161275 46.107061 
L 282.405928 45.980536 
L 282.650581 46.223931 
L 282.895234 46.942348 
L 283.139887 46.344283 
L 283.629193 49.111425 
L 283.873846 47.928009 
L 284.118499 47.718752 
L 284.363152 47.92516 
L 284.607805 50.019999 
L 284.852458 49.374975 
L 285.097111 48.394485 
L 285.341764 49.717537 
L 285.586417 53.014707 
L 285.83107 54.280143 
L 286.075723 54.824311 
L 286.320376 56.303119 
L 286.56503 56.217854 
L 286.809683 56.722134 
L 287.054336 58.448215 
L 287.543642 54.851246 
L 288.032948 53.762408 
L 288.277601 54.574981 
L 288.766907 51.757213 
L 289.01156 51.930723 
L 289.256213 50.821993 
L 289.500866 50.351798 
L 289.745519 50.422579 
L 289.990172 49.564736 
L 290.234825 49.459976 
L 290.479478 54.781811 
L 290.724131 52.221156 
L 291.213437 51.795624 
L 291.45809 51.412593 
L 291.702743 51.793012 
L 292.192049 50.771209 
L 292.436702 50.357101 
L 292.681355 50.393586 
L 293.170661 51.23407 
L 293.415314 51.670893 
L 293.659967 53.559614 
L 293.90462 52.322434 
L 294.149273 54.177493 
L 294.393926 53.70371 
L 294.638579 53.767051 
L 294.883232 59.085747 
L 295.127885 56.464124 
L 295.372538 59.292867 
L 295.617191 57.574701 
L 295.861844 59.260787 
L 296.106497 60.17076 
L 296.595803 64.635939 
L 296.840456 64.052911 
L 297.085109 62.745107 
L 297.329762 67.598303 
L 297.574415 64.026345 
L 298.308374 58.740705 
L 298.553027 58.391653 
L 299.286986 69.314676 
L 299.531639 70.665138 
L 299.776292 73.505541 
L 300.020945 74.741772 
L 300.754904 87.669674 
L 301.24421 89.966225 
L 301.488863 87.595463 
L 302.222822 75.387799 
L 302.467475 75.963705 
L 302.712128 75.442488 
L 302.956781 76.060577 
L 303.201434 79.497094 
L 303.446087 78.052054 
L 303.935393 70.951112 
L 304.180046 68.850311 
L 304.424699 68.854162 
L 304.669352 67.41461 
L 304.914005 68.883736 
L 305.647964 62.849445 
L 305.892617 65.403769 
L 306.13727 65.45793 
L 306.381923 62.72912 
L 306.626576 61.870828 
L 306.871229 64.667043 
L 307.115882 64.966656 
L 307.360535 69.055162 
L 307.849841 65.505891 
L 308.094494 65.20947 
L 308.339147 64.132081 
L 308.5838 64.777317 
L 308.828453 64.033204 
L 309.073107 61.667771 
L 309.562413 59.871806 
L 309.807066 62.143796 
L 310.051719 60.547671 
L 310.296372 59.929107 
L 310.541025 60.842957 
L 310.785678 60.824939 
L 311.030331 58.53253 
L 311.274984 63.031873 
L 311.519637 61.521407 
L 312.008943 64.16271 
L 312.253596 61.68484 
L 312.742902 59.876555 
L 312.987555 61.202061 
L 313.476861 61.236726 
L 313.721514 62.549252 
L 313.966167 61.28627 
L 314.21082 61.397863 
L 314.455473 64.781459 
L 314.700126 65.078355 
L 315.189432 73.526409 
L 315.434085 75.642881 
L 315.678738 73.385216 
L 316.412697 81.278232 
L 316.902003 77.799558 
L 317.146656 78.19272 
L 317.880615 66.9852 
L 318.125268 67.619066 
L 318.369921 66.620504 
L 318.614574 68.489255 
L 318.859227 66.939297 
L 319.348533 73.518231 
L 319.593186 68.651184 
L 319.837839 66.076995 
L 320.327145 59.884021 
L 320.571798 59.141253 
L 321.305757 52.422999 
L 321.795063 49.210144 
L 322.039716 48.933324 
L 322.529022 45.444784 
L 322.773675 45.465414 
L 323.018328 43.472459 
L 323.262981 42.759476 
L 323.99694 41.696835 
L 324.241593 41.590755 
L 324.486246 41.715803 
L 324.730899 42.351568 
L 325.464858 42.570823 
L 325.954164 42.761903 
L 326.44347 42.809865 
L 326.688123 42.800025 
L 326.932776 43.154115 
L 327.177429 44.649754 
L 327.422082 44.305267 
L 327.666735 44.403247 
L 327.911388 46.54399 
L 328.156041 46.065959 
L 328.645347 48.572533 
L 328.89 47.777899 
L 329.134653 48.506315 
L 329.379306 50.058912 
L 329.623959 50.850485 
L 329.868612 52.551952 
L 330.113265 52.247115 
L 330.847224 56.802043 
L 331.091877 62.368645 
L 331.33653 64.399984 
L 331.581184 64.412753 
L 331.825837 63.917812 
L 332.07049 66.533683 
L 332.315143 66.985306 
L 332.559796 69.653412 
L 333.049102 69.166228 
L 333.293755 74.02383 
L 333.783061 65.032768 
L 334.027714 62.663905 
L 334.51702 63.088302 
L 334.761673 61.222744 
L 335.006326 58.46006 
L 335.250979 59.581585 
L 335.740285 55.051323 
L 335.984938 53.562675 
L 336.229591 53.908851 
L 336.718897 50.59142 
L 336.96355 50.142277 
L 337.452856 48.128903 
L 337.697509 48.355968 
L 337.942162 47.492875 
L 338.186815 47.274991 
L 338.431468 48.444873 
L 338.676121 47.327015 
L 338.920774 48.857794 
L 339.654733 45.791725 
L 339.899386 45.828632 
L 340.144039 44.726208 
L 340.633345 45.596872 
L 340.877998 45.233759 
L 341.122651 45.101245 
L 341.611957 45.682585 
L 341.85661 45.498918 
L 342.101263 46.053877 
L 342.345916 45.795286 
L 342.590569 46.819596 
L 342.835222 46.273185 
L 343.079875 46.238863 
L 343.324528 46.81337 
L 343.569181 47.812512 
L 344.058487 46.347765 
L 344.30314 45.78848 
L 344.547793 45.756796 
L 344.792446 45.844197 
L 345.037099 49.113746 
L 345.281752 49.452932 
L 345.526405 53.719855 
L 345.771058 53.080344 
L 346.015711 54.72728 
L 346.260364 57.240634 
L 346.505017 55.819891 
L 346.74967 56.356568 
L 346.994323 62.304696 
L 347.238976 61.567152 
L 347.483629 61.253109 
L 347.972935 57.435012 
L 348.217588 56.621463 
L 348.462241 56.744215 
L 348.706894 57.539376 
L 348.951547 59.327216 
L 349.1962 59.277276 
L 349.440853 62.701024 
L 349.685506 60.098449 
L 350.174812 57.972242 
L 350.419465 58.6518 
L 350.664118 58.123618 
L 350.908771 58.909018 
L 351.153424 56.770069 
L 351.398077 56.08666 
L 351.887383 55.423168 
L 352.132036 56.256688 
L 352.376689 55.999918 
L 352.621342 55.086304 
L 352.865995 55.715052 
L 353.110648 55.370063 
L 353.599954 57.484028 
L 353.844607 62.818078 
L 354.089261 61.917391 
L 354.333914 61.656691 
L 354.578567 63.545966 
L 354.82322 63.406567 
L 355.067873 62.872661 
L 355.312526 67.408964 
L 355.557179 63.277615 
L 355.801832 61.441735 
L 356.046485 61.73995 
L 356.291138 63.783293 
L 356.535791 61.465109 
L 356.780444 61.403034 
L 357.025097 62.974414 
L 357.26975 59.8841 
L 357.514403 61.831151 
L 358.003709 58.135543 
L 358.493015 55.970133 
L 358.737668 56.911975 
L 358.982321 54.841723 
L 359.226974 54.32412 
L 359.71628 53.974699 
L 359.960933 52.718735 
L 360.205586 53.45897 
L 360.694892 61.511277 
L 360.939545 64.252486 
L 361.428851 72.650125 
L 361.918157 77.440481 
L 362.16281 77.402782 
L 362.407463 76.049813 
L 362.652116 84.972152 
L 363.386075 75.569699 
L 363.630728 70.836775 
L 363.875381 74.217442 
L 364.120034 75.578695 
L 364.60934 74.920532 
L 365.098646 80.71433 
L 365.587952 70.90476 
L 366.321911 64.268262 
L 366.566564 63.504574 
L 367.545176 54.94957 
L 367.789829 55.234911 
L 368.279135 51.989712 
L 368.523788 51.687381 
L 368.768441 51.186056 
L 369.257747 49.116226 
L 369.5024 50.07701 
L 369.991706 48.642549 
L 370.236359 48.342091 
L 370.481012 49.457575 
L 370.725665 48.865128 
L 370.970318 51.72144 
L 371.214971 52.213452 
L 371.459624 51.577767 
L 371.94893 51.820686 
L 372.438236 55.542544 
L 372.682889 55.519249 
L 372.927542 54.493225 
L 373.172195 56.325754 
L 373.416848 59.056701 
L 373.661501 57.016207 
L 373.906154 56.199493 
L 374.150807 56.616635 
L 374.39546 55.108887 
L 374.640113 55.250634 
L 374.884766 56.481272 
L 375.129419 55.910116 
L 375.374072 57.778603 
L 375.618725 55.420609 
L 375.863378 58.50657 
L 376.352684 54.238724 
L 376.597338 53.190011 
L 376.841991 51.513264 
L 377.331297 55.015629 
L 377.57595 54.504965 
L 377.820603 54.602734 
L 378.065256 57.018292 
L 378.554562 57.267226 
L 378.799215 55.434591 
L 379.043868 55.958789 
L 379.288521 55.573041 
L 379.533174 53.759163 
L 379.777827 53.148461 
L 380.02248 54.170739 
L 380.267133 54.184695 
L 380.511786 53.402672 
L 380.756439 57.530275 
L 381.001092 56.767668 
L 381.490398 53.009616 
L 381.490398 53.009616 
" style="fill:none;stroke:#1f77b4;stroke-linecap:square;stroke-width:1.5;"/>
   </g>
   <g id="line2d_32">
    <path clip-path="url(#pc9415a11fd)" d="M 56.835852 273.671573 
L 57.080505 275.573396 
L 57.325158 276.161232 
L 57.569811 276.334125 
L 57.814464 275.262189 
L 58.059117 274.881824 
L 58.30377 273.636995 
L 58.793076 275.607975 
L 59.037729 276.022918 
L 59.282382 274.086517 
L 59.527035 274.017359 
L 59.771688 274.570617 
L 60.260994 271.804329 
L 60.7503 273.291209 
L 60.994953 271.631436 
L 61.239606 271.908065 
L 61.484259 271.493122 
L 61.728912 271.666015 
L 61.973566 271.700594 
L 62.218219 270.905286 
L 62.462872 272.28843 
L 62.707525 270.939865 
L 63.196831 271.389386 
L 63.441484 268.83057 
L 63.686137 268.381049 
L 63.93079 269.383828 
L 64.420096 270.179136 
L 65.154055 266.548383 
L 65.398708 267.309112 
L 65.643361 266.686698 
L 65.888014 267.136219 
L 66.132667 268.035263 
L 66.37732 268.277313 
L 66.621973 270.144557 
L 66.866626 270.836129 
L 67.111279 268.553942 
L 67.355932 269.625878 
L 67.600585 269.83335 
L 68.089891 269.314671 
L 68.334544 268.000684 
L 68.82385 270.282871 
L 69.068503 272.77253 
L 69.802462 270.386607 
L 70.047115 271.0436 
L 70.291768 269.83335 
L 70.536421 269.867928 
L 70.781074 266.064283 
L 71.025727 267.309112 
L 71.27038 267.032484 
L 71.759686 268.899728 
L 72.004339 269.660457 
L 72.248992 267.966106 
L 72.493645 269.798771 
L 72.738298 268.381049 
L 72.982951 269.176356 
L 73.227604 268.208156 
L 73.472257 268.000684 
L 73.71691 269.5913 
L 73.961563 270.352029 
L 74.206216 270.5595 
L 74.450869 270.939865 
L 74.695522 270.5595 
L 74.940175 272.392165 
L 75.184828 272.323008 
L 75.674134 270.282871 
L 76.408093 268.692256 
L 76.652746 265.234397 
L 76.897399 265.580183 
L 77.142052 265.130661 
L 77.631358 263.159681 
L 77.876011 264.300775 
L 78.365317 264.335353 
L 78.60997 264.369932 
L 78.854623 264.715718 
L 79.099276 265.580183 
L 79.343929 264.369932 
L 79.588582 264.542825 
L 80.077888 266.721276 
L 80.567194 264.473668 
L 80.811847 265.303554 
L 81.0565 264.162461 
L 81.301153 265.303554 
L 81.545806 265.683919 
L 81.790459 266.928748 
L 82.035112 266.825012 
L 82.279765 267.551163 
L 82.524418 265.822233 
L 82.769071 262.053166 
L 83.013724 263.712939 
L 83.258377 263.228839 
L 83.50303 262.156902 
L 83.747683 263.367153 
L 83.992336 263.228839 
L 84.236989 262.883053 
L 84.481643 261.880273 
L 84.970949 263.609203 
L 85.215602 263.055946 
L 85.460255 261.188702 
L 85.704908 261.119544 
L 85.949561 262.364374 
L 86.194214 262.329795 
L 86.68352 257.765421 
L 86.928173 258.595307 
L 87.172826 259.01025 
L 87.662132 258.560729 
L 87.906785 256.762642 
L 88.151438 258.975672 
L 88.396091 257.903735 
L 88.640744 258.353257 
L 88.885397 258.353257 
L 89.13005 257.627107 
L 89.374703 257.938314 
L 89.864009 257.004692 
L 90.353315 257.523371 
L 90.597968 257.523371 
L 91.087274 260.531708 
L 91.331927 259.943872 
L 91.57658 262.018588 
L 92.065886 261.22328 
L 92.310539 260.393394 
L 92.555192 260.116765 
L 92.799845 259.286879 
L 93.044498 259.598086 
L 93.289151 262.053166 
L 93.533804 262.917631 
L 93.778457 262.71016 
L 94.02311 263.228839 
L 94.267763 262.95221 
L 94.512416 265.822233 
L 94.757069 264.646561 
L 95.001722 266.652119 
L 95.246375 267.101641 
L 95.980334 263.021367 
L 96.224987 262.502688 
L 96.46964 265.338133 
L 96.714293 264.231618 
L 96.958946 264.231618 
L 97.448252 258.941093 
L 97.692905 258.2841 
L 97.937558 259.2523 
L 98.182211 258.837357 
L 98.426864 259.217722 
L 98.91617 258.422414 
L 99.160823 256.624327 
L 99.405476 255.932756 
L 99.650129 256.624327 
L 99.894782 258.7682 
L 100.139435 257.073849 
L 100.384088 258.387836 
L 100.628741 263.159681 
L 100.873394 263.782096 
L 101.118047 264.888611 
L 101.607353 262.95221 
L 101.852006 263.816675 
L 102.096659 263.574624 
L 102.341312 263.125103 
L 102.585965 263.782096 
L 102.830618 263.782096 
L 103.319924 261.119544 
L 103.80923 261.534488 
L 104.053883 260.047608 
L 104.298536 259.736401 
L 104.543189 259.044829 
L 104.787842 259.494351 
L 105.032495 258.145785 
L 105.277148 257.592528 
L 105.521801 258.837357 
L 105.766454 257.488792 
L 106.500413 260.842916 
L 106.745066 260.73918 
L 106.98972 260.49713 
L 107.234373 259.217722 
L 107.479026 259.909294 
L 107.723679 259.840137 
L 108.212985 262.295217 
L 108.702291 265.268975 
L 108.946944 265.061504 
L 109.191597 265.130661 
L 109.43625 262.537267 
L 109.925556 266.168019 
L 110.170209 265.096083 
L 110.414862 265.372711 
L 110.904168 263.540046 
L 111.148821 264.024146 
L 111.393474 266.168019 
L 111.638127 265.614761 
L 111.88278 266.064283 
L 112.127433 264.888611 
L 112.372086 265.338133 
L 112.616739 264.162461 
L 112.861392 264.750297 
L 113.106045 263.021367 
L 113.350698 262.398952 
L 113.595351 262.641002 
L 113.840004 261.672802 
L 114.084657 261.845695 
L 114.32931 260.73918 
L 114.573963 260.151344 
L 115.063269 257.004692 
L 115.307922 257.869157 
L 115.552575 257.350478 
L 115.797228 256.520592 
L 116.041881 262.122324 
L 116.286534 264.093303 
L 116.531187 263.885832 
L 116.77584 264.888611 
L 117.020493 264.197039 
L 117.265146 265.061504 
L 117.509799 263.989568 
L 117.754452 264.888611 
L 117.999105 264.369932 
L 118.243758 264.784875 
L 118.488411 263.747517 
L 118.977717 263.332574 
L 119.22237 261.880273 
L 119.467023 262.883053 
L 119.711676 262.053166 
L 119.956329 262.398952 
L 120.200982 262.502688 
L 120.445635 261.257859 
L 120.690288 261.119544 
L 120.934941 262.641002 
L 121.179594 263.021367 
L 121.424247 264.231618 
L 121.6689 264.369932 
L 121.913553 265.856812 
L 122.158206 265.683919 
L 122.647512 264.404511 
L 122.892165 266.37549 
L 123.136818 266.652119 
L 123.381471 265.822233 
L 123.626124 267.274534 
L 123.870777 266.790434 
L 124.11543 265.16524 
L 124.360083 264.439089 
L 124.604736 263.159681 
L 124.849389 263.367153 
L 125.338695 261.015809 
L 125.828001 261.70738 
L 126.072654 261.949431 
L 126.317307 260.531708 
L 126.56196 260.462551 
L 126.806613 260.773758 
L 127.051266 260.047608 
L 127.295919 260.324237 
L 127.540572 259.736401 
L 127.785225 261.119544 
L 128.029878 257.592528 
L 128.274531 258.837357 
L 128.519184 258.837357 
L 128.763837 258.560729 
L 129.00849 259.079407 
L 129.253143 260.116765 
L 129.497797 259.148565 
L 129.74245 260.600866 
L 129.987103 262.95221 
L 130.231756 263.885832 
L 130.721062 260.912073 
L 130.965715 260.324237 
L 131.210368 261.499909 
L 131.455021 262.122324 
L 131.699674 265.268975 
L 131.944327 264.058725 
L 132.18898 264.439089 
L 132.678286 264.750297 
L 132.922939 263.851253 
L 133.167592 264.888611 
L 133.412245 264.404511 
L 133.656898 262.398952 
L 133.901551 263.297996 
L 134.146204 263.332574 
L 134.63551 265.268975 
L 134.880163 265.683919 
L 135.124816 262.502688 
L 135.369469 263.505467 
L 135.614122 262.883053 
L 135.858775 263.159681 
L 136.103428 263.159681 
L 136.348081 262.848474 
L 136.592734 263.055946 
L 136.837387 263.470889 
L 137.08204 264.231618 
L 137.326693 264.162461 
L 137.571346 266.686698 
L 137.815999 266.963327 
L 138.060652 266.790434 
L 138.305305 268.657678 
L 138.549958 269.072621 
L 138.794611 268.277313 
L 139.283917 265.303554 
L 139.52857 264.439089 
L 139.773223 265.683919 
L 140.017876 265.199818 
L 140.262529 264.335353 
L 140.507182 264.784875 
L 140.751835 264.473668 
L 140.996488 265.268975 
L 141.241141 265.268975 
L 141.485794 264.992347 
L 141.730447 262.744738 
L 141.9751 263.505467 
L 142.219753 262.71016 
L 142.464406 262.329795 
L 142.953712 259.563508 
L 143.198365 259.736401 
L 143.443018 261.361595 
L 143.687671 261.188702 
L 143.932324 261.430752 
L 144.176977 260.185922 
L 144.910936 264.681139 
L 145.155589 263.090524 
L 145.644895 264.231618 
L 145.889548 264.127882 
L 146.378854 262.95221 
L 146.623507 261.741959 
L 146.86816 261.811116 
L 147.112813 262.606424 
L 147.357466 261.22328 
L 147.602119 260.842916 
L 147.846772 260.082187 
L 148.091425 260.912073 
L 148.336078 263.055946 
L 148.580731 262.675581 
L 148.825384 264.058725 
L 149.070037 262.641002 
L 149.31469 262.606424 
L 149.559343 263.782096 
L 150.048649 262.122324 
L 150.293302 260.912073 
L 150.537955 260.600866 
L 150.782608 261.776538 
L 151.271914 260.220501 
L 151.516567 260.116765 
L 151.76122 260.324237 
L 152.005874 259.770979 
L 152.250527 260.358815 
L 152.49518 260.047608 
L 152.739833 260.566287 
L 152.984486 258.076628 
L 153.229139 258.318678 
L 153.718445 255.137448 
L 153.963098 254.480455 
L 154.207751 255.172027 
L 154.452404 254.065512 
L 154.697057 254.376719 
L 154.94171 253.719726 
L 155.186363 254.065512 
L 155.675669 256.278542 
L 155.920322 255.656127 
L 156.164975 257.523371 
L 156.409628 257.454214 
L 156.898934 255.863598 
L 157.143587 256.624327 
L 157.632893 257.143006 
L 158.611505 259.736401 
L 159.100811 259.632665 
L 159.345464 258.456993 
L 159.590117 259.321458 
L 160.324076 262.95221 
L 160.813382 258.699043 
L 161.058035 261.327016 
L 161.302688 262.226059 
L 161.547341 261.46533 
L 161.791994 261.569066 
L 162.036647 260.427973 
L 162.2813 260.013029 
L 162.525953 260.082187 
L 162.770606 259.286879 
L 163.015259 260.082187 
L 163.259912 260.220501 
L 163.504565 261.845695 
L 163.749218 261.949431 
L 163.993871 260.670023 
L 164.238524 264.611982 
L 164.483177 264.784875 
L 164.72783 264.335353 
L 164.972483 264.335353 
L 165.217136 265.89139 
L 165.706442 266.859591 
L 165.951095 266.479226 
L 166.195748 265.338133 
L 166.440401 264.957768 
L 166.685054 264.854032 
L 166.929707 265.268975 
L 167.419013 263.885832 
L 167.663666 264.404511 
L 167.908319 264.508246 
L 168.152972 265.061504 
L 168.397625 264.335353 
L 168.642278 264.681139 
L 168.886931 266.686698 
L 169.131584 267.067062 
L 169.376237 266.202597 
L 169.62089 266.548383 
L 169.865543 266.652119 
L 170.110196 266.617541 
L 170.354849 266.410069 
L 170.599502 267.689477 
L 170.844155 267.86237 
L 171.088808 269.798771 
L 171.333461 268.968885 
L 171.578114 269.349249 
L 171.822767 268.657678 
L 172.06742 268.726835 
L 172.312073 268.623099 
L 172.556726 267.758634 
L 172.801379 267.827791 
L 173.046032 268.208156 
L 173.290685 268.138999 
L 173.535338 268.934306 
L 173.779991 268.242734 
L 174.024644 268.035263 
L 174.269298 267.136219 
L 174.513951 267.170798 
L 174.758604 266.548383 
L 175.003257 266.444648 
L 175.24791 265.89139 
L 175.492563 266.168019 
L 175.737216 266.997905 
L 175.981869 265.89139 
L 176.226522 266.790434 
L 176.471175 265.061504 
L 176.960481 266.064283 
L 177.205134 266.237176 
L 178.183746 264.266196 
L 178.673052 262.571845 
L 178.917705 263.263417 
L 179.651664 262.571845 
L 180.14097 263.574624 
L 180.385623 262.813895 
L 180.874929 262.226059 
L 181.119582 262.087745 
L 181.364235 261.292437 
L 181.608888 261.603645 
L 182.098194 262.986788 
L 182.342847 262.986788 
L 182.5875 263.401732 
L 183.076806 261.811116 
L 183.321459 262.329795 
L 183.566112 258.699043 
L 183.810765 259.2523 
L 184.055418 259.286879 
L 184.300071 258.180364 
L 184.544724 258.629886 
L 184.789377 259.356036 
L 185.03403 259.2523 
L 185.523336 260.635444 
L 185.767989 260.808337 
L 186.012642 261.569066 
L 186.257295 261.119544 
L 186.746601 265.64934 
L 186.991254 266.271755 
L 187.235907 264.058725 
L 187.48056 265.856812 
L 187.725213 264.92319 
L 187.969866 264.439089 
L 188.214519 263.332574 
L 188.459172 263.782096 
L 188.703825 263.67836 
L 189.193131 262.986788 
L 189.437784 264.127882 
L 189.682437 262.986788 
L 189.92709 263.401732 
L 190.171743 257.627107 
L 190.416396 259.321458 
L 191.395008 262.95221 
L 191.639661 260.704601 
L 192.128967 264.542825 
L 192.37362 266.582962 
L 192.618273 266.410069 
L 192.862926 266.928748 
L 193.107579 270.352029 
L 193.352232 270.248293 
L 193.841538 265.995126 
L 194.086191 267.067062 
L 194.330844 266.098862 
L 194.575497 265.614761 
L 195.309456 265.338133 
L 195.554109 264.992347 
L 195.798762 263.609203 
L 196.043415 263.332574 
L 196.532721 262.053166 
L 196.777375 262.502688 
L 197.022028 262.156902 
L 197.511334 261.154123 
L 197.755987 261.361595 
L 198.00064 260.912073 
L 198.245293 260.912073 
L 198.734599 259.425193 
L 199.223905 260.670023 
L 199.468558 260.842916 
L 199.957864 260.842916 
L 200.202517 260.600866 
L 200.44717 260.151344 
L 200.691823 260.185922 
L 200.936476 259.943872 
L 201.425782 260.462551 
L 201.670435 260.25508 
L 202.159741 259.390615 
L 202.404394 259.598086 
L 202.649047 257.385056 
L 202.8937 258.871936 
L 203.138353 259.356036 
L 203.627659 257.938314 
L 203.872312 256.31312 
L 204.116965 256.866378 
L 204.361618 256.589749 
L 205.095577 257.004692 
L 205.34023 257.039271 
L 205.584883 256.762642 
L 205.829536 258.353257 
L 206.074189 258.214943 
L 206.318842 258.906515 
L 206.563495 259.943872 
L 206.808148 260.082187 
L 207.052801 257.938314 
L 207.542107 259.701822 
L 207.78676 259.805558 
L 208.276066 262.883053 
L 208.520719 261.949431 
L 208.765372 261.914852 
L 209.010025 262.329795 
L 209.254678 256.866378 
L 209.499331 257.419635 
L 209.743984 258.456993 
L 210.23329 261.672802 
L 210.477943 261.499909 
L 210.722596 262.883053 
L 211.211902 261.084966 
L 211.456555 261.845695 
L 211.701208 261.015809 
L 211.945861 260.704601 
L 212.190514 260.946651 
L 212.435167 259.598086 
L 212.67982 259.770979 
L 212.924473 260.358815 
L 213.169126 257.834578 
L 213.413779 257.938314 
L 214.147738 255.58697 
L 214.392391 255.517812 
L 214.637044 255.033712 
L 214.881697 255.102869 
L 215.12635 254.826241 
L 215.371003 255.759863 
L 215.615656 255.068291 
L 215.860309 255.241184 
L 216.104962 255.172027 
L 216.838921 251.541274 
L 217.083574 253.85804 
L 217.328227 253.166468 
L 217.817533 254.065512 
L 218.062186 253.339361 
L 218.306839 253.443097 
L 218.551492 254.999134 
L 218.796145 255.794441 
L 219.040798 255.725284 
L 219.530105 253.408518 
L 219.774758 255.517812 
L 220.019411 256.31312 
L 220.264064 256.140227 
L 220.508717 255.725284 
L 220.75337 256.07107 
L 220.998023 256.900956 
L 221.487329 257.350478 
L 221.731982 256.970113 
L 221.976635 256.900956 
L 222.221288 257.073849 
L 222.465941 256.589749 
L 222.710594 257.177585 
L 223.444553 257.039271 
L 223.689206 258.837357 
L 224.423165 257.454214 
L 224.667818 254.307562 
L 224.912471 253.85804 
L 225.157124 254.030933 
L 225.401777 253.477676 
L 225.891083 255.241184 
L 226.135736 253.719726 
L 226.380389 253.996354 
L 226.625042 255.725284 
L 226.869695 256.347699 
L 227.114348 255.690705 
L 227.359001 254.411298 
L 227.603654 255.137448 
L 227.848307 255.172027 
L 228.09296 254.445876 
L 228.337613 252.578632 
L 228.582266 253.581411 
L 228.826919 253.477676 
L 229.316225 253.961776 
L 229.560878 253.097311 
L 229.805531 253.13189 
L 230.050184 254.549612 
L 230.294837 253.61599 
L 231.028796 248.982459 
L 231.273449 249.812345 
L 231.518102 249.777766 
L 231.762755 249.086194 
L 232.007408 248.014258 
L 232.252061 251.472117 
L 232.496714 252.094532 
L 232.98602 252.059953 
L 233.230673 252.682368 
L 233.475326 252.716947 
L 233.719979 251.956217 
L 233.964632 251.921639 
L 234.209285 251.714167 
L 234.698591 250.158131 
L 234.943244 249.916081 
L 235.187897 250.365602 
L 235.43255 250.400181 
L 235.677203 251.195488 
L 235.921856 253.61599 
L 236.166509 252.371161 
L 236.411162 252.094532 
L 236.655815 250.019816 
L 236.900468 250.158131 
L 237.145121 249.812345 
L 237.389774 251.264646 
L 238.123733 247.668472 
L 238.368386 247.495579 
L 238.613039 247.703051 
L 238.857692 244.556399 
L 239.102345 243.55362 
L 239.346998 241.236854 
L 239.591651 241.133118 
L 239.836304 241.651797 
L 240.080957 241.720954 
L 240.570263 243.207834 
L 241.059569 240.614439 
L 241.548875 242.792891 
L 241.793529 242.06674 
L 242.038182 241.790111 
L 242.282835 241.271432 
L 242.527488 242.654576 
L 242.772141 241.306011 
L 243.016794 240.925647 
L 243.261447 242.723733 
L 243.5061 243.173255 
L 243.750753 243.242412 
L 243.995406 242.30879 
L 244.240059 242.205054 
L 244.974018 248.325465 
L 245.463324 253.823461 
L 245.707977 252.786104 
L 246.197283 246.319907 
L 246.441936 245.801228 
L 246.686589 246.285328 
L 246.931242 248.46378 
L 247.175895 247.115215 
L 247.420548 246.527378 
L 247.665201 248.46378 
L 248.39916 249.604873 
L 248.643813 249.017037 
L 248.888466 250.988017 
L 249.133119 250.192709 
L 249.377772 247.564736 
L 249.622425 249.18993 
L 249.867078 250.054395 
L 250.111731 250.400181 
L 250.356384 251.472117 
L 250.601037 251.541274 
L 250.84569 251.472117 
L 251.090343 252.440318 
L 251.334996 256.55517 
L 251.579649 256.762642 
L 252.068955 253.892619 
L 252.313608 251.748746 
L 252.558261 251.057174 
L 252.802914 251.230067 
L 253.047567 251.230067 
L 253.29222 256.520592 
L 253.536873 256.001913 
L 253.781526 255.102869 
L 254.026179 254.895398 
L 254.270832 257.039271 
L 254.515485 255.275762 
L 254.760138 255.137448 
L 255.004791 255.137448 
L 255.249444 255.58697 
L 255.494097 256.31312 
L 255.73875 244.660135 
L 255.983403 242.654576 
L 256.228056 242.619998 
L 256.472709 241.928426 
L 256.962015 242.585419 
L 257.206668 243.55362 
L 257.695974 240.09576 
L 257.940627 238.712617 
L 258.18528 238.712617 
L 258.429933 238.366831 
L 258.674586 239.12756 
L 258.919239 239.265874 
L 259.163892 239.922867 
L 259.653198 242.55084 
L 259.897851 241.548061 
L 260.142504 241.651797 
L 260.387157 240.614439 
L 260.63181 240.545282 
L 260.876463 239.542503 
L 261.121116 240.303232 
L 261.365769 239.749974 
L 261.610422 239.749974 
L 261.855075 239.404188 
L 262.099728 237.709837 
L 262.344381 239.577081 
L 262.589034 239.85371 
L 262.833687 241.167697 
L 263.07834 238.539724 
L 263.812299 242.032162 
L 264.056952 241.236854 
L 264.301606 243.346148 
L 264.546259 243.069519 
L 265.035565 241.236854 
L 265.524871 245.075078 
L 265.769524 244.625556 
L 266.014177 243.588198 
L 266.503483 244.383506 
L 266.748136 244.452663 
L 266.992789 243.519041 
L 267.237442 244.072298 
L 267.482095 245.00592 
L 267.726748 248.636673 
L 267.971401 249.708609 
L 268.216054 248.70583 
L 268.460707 251.195488 
L 268.70536 250.988017 
L 268.950013 249.777766 
L 269.194666 249.397402 
L 269.439319 252.163689 
L 269.683972 250.607652 
L 269.928625 252.682368 
L 270.173278 250.91886 
L 270.417931 250.745967 
L 270.907237 248.636673 
L 271.15189 249.639452 
L 271.396543 247.875944 
L 271.641196 248.671251 
L 271.885849 260.047608 
L 272.375155 257.246742 
L 272.619808 259.494351 
L 272.864461 258.7682 
L 273.109114 258.802779 
L 273.353767 259.805558 
L 273.843073 263.92041 
L 274.087726 262.848474 
L 274.332379 263.67836 
L 275.066338 259.736401 
L 275.800297 256.209384 
L 276.04495 258.353257 
L 276.534256 256.416856 
L 276.778909 256.416856 
L 277.023562 256.278542 
L 277.268215 257.730842 
L 277.512868 256.174806 
L 277.757521 258.007471 
L 278.002174 257.246742 
L 278.246827 255.621548 
L 278.980786 257.212163 
L 279.225439 258.111207 
L 279.714745 256.07107 
L 279.959398 258.491571 
L 280.448704 257.869157 
L 280.693357 257.834578 
L 280.93801 255.863598 
L 281.182663 256.589749 
L 281.427316 256.451434 
L 281.671969 255.898177 
L 281.916622 256.624327 
L 282.161275 256.693485 
L 282.405928 256.900956 
L 282.650581 257.523371 
L 282.895234 257.454214 
L 283.139887 256.935535 
L 283.38454 255.690705 
L 283.629193 252.094532 
L 283.873846 256.693485 
L 284.363152 256.831799 
L 284.607805 255.58697 
L 284.852458 253.304783 
L 285.097111 252.855261 
L 285.341764 252.820682 
L 285.586417 252.509475 
L 285.83107 256.001913 
L 286.075723 254.757083 
L 286.320376 254.653348 
L 286.809683 256.278542 
L 287.054336 255.34492 
L 287.298989 252.647789 
L 287.543642 254.895398 
L 288.522254 257.730842 
L 289.01156 257.661685 
L 289.500866 256.486013 
L 289.745519 257.938314 
L 289.990172 258.491571 
L 290.234825 257.8 
L 290.479478 257.730842 
L 290.724131 259.563508 
L 290.968784 258.111207 
L 291.213437 259.044829 
L 291.45809 258.249521 
L 291.702743 258.906515 
L 291.947396 256.866378 
L 292.192049 256.900956 
L 292.436702 256.624327 
L 292.681355 255.794441 
L 292.926008 255.448655 
L 293.170661 256.79722 
L 293.415314 256.174806 
L 293.659967 257.108428 
L 293.90462 257.073849 
L 294.149273 256.07107 
L 294.393926 256.243963 
L 294.638579 255.898177 
L 295.127885 257.419635 
L 295.372538 257.454214 
L 295.617191 257.177585 
L 296.106497 257.765421 
L 296.35115 255.068291 
L 296.595803 254.618769 
L 296.840456 255.863598 
L 297.085109 254.10009 
L 297.329762 260.047608 
L 297.574415 261.46533 
L 298.553027 257.8 
L 298.79768 257.869157 
L 299.286986 257.281321 
L 299.531639 254.929976 
L 300.020945 253.13189 
L 300.265598 253.166468 
L 300.510251 249.846923 
L 300.999557 248.429201 
L 301.24421 248.394622 
L 301.488863 246.700271 
L 301.733516 236.534165 
L 301.978169 234.597764 
L 302.222822 233.940771 
L 302.467475 231.451112 
L 303.201434 232.280998 
L 303.446087 231.969791 
L 303.69074 233.560406 
L 304.180046 232.626784 
L 304.424699 231.485691 
L 304.669352 232.315577 
L 304.914005 232.453891 
L 305.158658 232.419313 
L 305.403311 232.142684 
L 305.647964 233.21462 
L 305.892617 232.661363 
L 306.381923 234.182821 
L 306.626576 234.494028 
L 306.871229 234.113664 
L 307.115882 234.148242 
L 307.360535 233.97535 
L 307.605188 231.969791 
L 307.849841 231.658584 
L 308.094494 231.76232 
L 308.339147 231.451112 
L 308.828453 228.823139 
L 309.073107 228.926875 
L 310.051719 226.955895 
L 310.296372 229.756761 
L 310.541025 227.682046 
L 310.785678 229.687604 
L 311.030331 230.067969 
L 311.274984 229.445554 
L 312.008943 231.589427 
L 312.253596 229.480133 
L 312.498249 228.408196 
L 312.742902 229.134347 
L 312.987555 230.51749 
L 313.232208 229.583868 
L 313.476861 229.895076 
L 313.966167 226.264323 
L 314.21082 227.474574 
L 314.455473 227.439996 
L 314.700126 228.857718 
L 314.944779 228.926875 
L 315.189432 230.690383 
L 315.434085 229.54929 
L 315.678738 231.243641 
L 316.168044 231.070748 
L 316.412697 229.756761 
L 316.65735 230.03339 
L 316.902003 230.621226 
L 317.146656 227.57831 
L 317.391309 239.680817 
L 317.635962 239.542503 
L 317.880615 238.989245 
L 318.369921 240.372389 
L 318.614574 240.406968 
L 318.859227 241.133118 
L 319.348533 241.893847 
L 319.593186 242.30879 
L 320.082492 243.380727 
L 320.327145 242.377947 
L 320.571798 243.104098 
L 320.816451 242.205054 
L 321.061104 242.654576 
L 321.305757 240.994804 
L 321.55041 243.588198 
L 321.795063 241.513483 
L 322.039716 242.06674 
L 322.284369 240.199496 
L 322.529022 240.821911 
L 322.773675 239.749974 
L 323.018328 239.542503 
L 323.262981 240.09576 
L 323.507634 239.922867 
L 323.752287 241.236854 
L 323.99694 241.444325 
L 324.486246 245.317128 
L 324.730899 241.755533 
L 324.975552 241.997583 
L 325.220205 242.481683 
L 325.709511 238.297674 
L 325.954164 236.395851 
L 326.198817 235.565965 
L 326.44347 236.91453 
L 326.688123 236.91453 
L 327.177429 237.64068 
L 327.422082 238.435988 
L 327.666735 238.850931 
L 327.911388 238.505145 
L 328.400694 237.018266 
L 328.645347 235.462229 
L 328.89 236.257537 
L 329.134653 236.361272 
L 329.379306 237.364052 
L 329.623959 236.845373 
L 329.868612 237.122001 
L 330.113265 236.257537 
L 330.357918 232.661363 
L 330.602571 233.698721 
L 330.847224 235.42765 
L 331.091877 234.874393 
L 331.581184 235.289336 
L 331.825837 235.289336 
L 332.07049 234.94355 
L 332.315143 233.802457 
L 332.559796 234.079085 
L 333.049102 236.326694 
L 333.293755 235.496808 
L 333.538408 230.27544 
L 333.783061 227.612889 
L 334.272367 229.964233 
L 334.51702 228.753982 
L 334.761673 229.480133 
L 335.006326 229.134347 
L 335.250979 229.272661 
L 335.495632 227.889517 
L 335.740285 225.054073 
L 335.984938 225.503594 
L 336.229591 223.740086 
L 336.474244 223.186829 
L 336.718897 223.740086 
L 336.96355 222.4261 
L 337.208203 224.051294 
L 337.697509 222.737307 
L 337.942162 223.083093 
L 338.186815 223.843822 
L 338.431468 222.253207 
L 338.676121 221.492478 
L 338.920774 222.806464 
L 339.165427 221.527056 
L 339.41008 222.771886 
L 340.144039 224.293344 
L 340.633345 225.296123 
L 340.877998 225.469016 
L 341.122651 226.575531 
L 341.611957 226.298902 
L 341.85661 225.572752 
L 342.101263 223.498036 
L 342.345916 223.117672 
L 342.590569 225.261544 
L 342.835222 224.085872 
L 343.079875 224.120451 
L 343.324528 224.535394 
L 343.569181 224.431658 
L 344.30314 223.498036 
L 344.547793 223.947558 
L 344.792446 223.290565 
L 345.037099 221.976578 
L 345.281752 223.117672 
L 345.526405 221.907421 
L 345.771058 222.771886 
L 346.015711 222.253207 
L 346.260364 222.495257 
L 346.505017 221.527056 
L 346.74967 221.319585 
L 346.994323 220.93922 
L 347.238976 222.391521 
L 347.483629 222.979357 
L 347.728282 227.543731 
L 347.972935 228.753982 
L 348.217588 229.203504 
L 348.462241 226.575531 
L 348.706894 225.883959 
L 348.951547 225.711066 
L 349.1962 224.500815 
L 349.440853 224.846601 
L 349.685506 224.155029 
L 349.930159 225.019494 
L 350.174812 224.155029 
L 350.419465 224.189608 
L 350.664118 225.088651 
L 350.908771 223.428879 
L 351.153424 222.875621 
L 351.398077 222.045735 
L 351.64273 222.218628 
L 351.887383 221.838264 
L 352.132036 219.659812 
L 352.376689 223.912979 
L 352.865995 223.048514 
L 353.110648 222.944779 
L 353.355301 220.351384 
L 353.599954 219.625234 
L 353.844607 218.24209 
L 354.578567 221.423321 
L 355.312526 217.100997 
L 355.557179 217.377625 
L 356.046485 215.06086 
L 356.535791 221.941999 
L 356.780444 220.870063 
L 357.025097 220.731749 
L 357.26975 222.149471 
L 357.514403 222.598993 
L 357.759056 219.348605 
L 358.248362 219.141133 
L 358.493015 218.587876 
L 358.737668 217.031839 
L 358.982321 218.691612 
L 359.226974 219.314026 
L 359.471627 217.930883 
L 359.71628 220.69717 
L 359.960933 219.279448 
L 360.205586 220.385963 
L 360.450239 219.97102 
L 360.694892 222.356943 
L 360.939545 221.665371 
L 361.184198 218.864505 
L 361.428851 218.345826 
L 361.918157 213.81603 
L 362.16281 211.810472 
L 362.407463 211.914208 
L 362.652116 212.778672 
L 362.896769 211.810472 
L 363.141422 211.464686 
L 363.386075 213.435666 
L 363.630728 214.230973 
L 363.875381 214.438445 
L 364.120034 211.948786 
L 364.364687 214.957124 
L 364.853993 216.478582 
L 365.098646 215.856167 
L 365.343299 215.890746 
L 365.587952 216.547739 
L 365.832605 216.858946 
L 366.077258 215.164595 
L 366.321911 214.300131 
L 366.566564 215.268331 
L 366.811217 219.037398 
L 367.05587 218.829926 
L 367.300523 218.311247 
L 367.545176 218.138354 
L 367.789829 217.75799 
L 368.034482 219.521498 
L 368.279135 219.763548 
L 368.523788 221.630792 
L 368.768441 219.659812 
L 369.013094 219.383184 
L 369.257747 219.417762 
L 369.5024 220.109334 
L 369.747053 219.659812 
L 370.725665 214.334709 
L 370.970318 215.233753 
L 371.214971 212.916987 
L 371.459624 208.594663 
L 371.704277 209.355392 
L 371.94893 208.318034 
L 372.927542 207.246098 
L 373.172195 207.280676 
L 373.416848 206.589104 
L 373.661501 206.761997 
L 373.906154 207.764777 
L 374.150807 207.626462 
L 374.39546 209.38997 
L 374.640113 209.14792 
L 374.884766 208.456348 
L 375.129419 209.562863 
L 375.374072 207.038626 
L 375.618725 206.105004 
L 376.108031 206.347054 
L 376.352684 205.205961 
L 376.597338 205.828375 
L 376.841991 205.205961 
L 377.086644 205.72464 
L 377.331297 207.557305 
L 377.57595 208.318034 
L 377.820603 207.418991 
L 378.065256 209.424549 
L 378.309909 210.39275 
L 378.554562 208.732977 
L 378.799215 211.084321 
L 379.043868 209.977807 
L 379.288521 212.674937 
L 379.777827 213.193616 
L 380.02248 212.432887 
L 380.267133 212.778672 
L 380.511786 212.087101 
L 380.756439 209.874071 
L 381.245745 210.703957 
L 381.490398 210.358171 
L 381.490398 210.358171 
" style="fill:none;stroke:#ff7f0e;stroke-linecap:square;stroke-width:1.5;"/>
   </g>
   <g id="patch_3">
    <path d="M 40.603125 288.430125 
L 40.603125 22.318125 
" style="fill:none;stroke:#000000;stroke-linecap:square;stroke-linejoin:miter;stroke-width:0.8;"/>
   </g>
   <g id="patch_4">
    <path d="M 397.723125 288.430125 
L 397.723125 22.318125 
" style="fill:none;stroke:#000000;stroke-linecap:square;stroke-linejoin:miter;stroke-width:0.8;"/>
   </g>
   <g id="patch_5">
    <path d="M 40.603125 288.430125 
L 397.723125 288.430125 
" style="fill:none;stroke:#000000;stroke-linecap:square;stroke-linejoin:miter;stroke-width:0.8;"/>
   </g>
   <g id="patch_6">
    <path d="M 40.603125 22.318125 
L 397.723125 22.318125 
" style="fill:none;stroke:#000000;stroke-linecap:square;stroke-linejoin:miter;stroke-width:0.8;"/>
   </g>
   <g id="text_18">
    <!-- Training: EBAY -->
    <defs>
     <path d="M -0.296875 72.90625 
L 61.375 72.90625 
L 61.375 64.59375 
L 35.5 64.59375 
L 35.5 0 
L 25.59375 0 
L 25.59375 64.59375 
L -0.296875 64.59375 
z
" id="DejaVuSans-84"/>
     <path d="M 54.890625 33.015625 
L 54.890625 0 
L 45.90625 0 
L 45.90625 32.71875 
Q 45.90625 40.484375 42.875 44.328125 
Q 39.84375 48.1875 33.796875 48.1875 
Q 26.515625 48.1875 22.3125 43.546875 
Q 18.109375 38.921875 18.109375 30.90625 
L 18.109375 0 
L 9.078125 0 
L 9.078125 54.6875 
L 18.109375 54.6875 
L 18.109375 46.1875 
Q 21.34375 51.125 25.703125 53.5625 
Q 30.078125 56 35.796875 56 
Q 45.21875 56 50.046875 50.171875 
Q 54.890625 44.34375 54.890625 33.015625 
z
" id="DejaVuSans-110"/>
     <path d="M 45.40625 27.984375 
Q 45.40625 37.75 41.375 43.109375 
Q 37.359375 48.484375 30.078125 48.484375 
Q 22.859375 48.484375 18.828125 43.109375 
Q 14.796875 37.75 14.796875 27.984375 
Q 14.796875 18.265625 18.828125 12.890625 
Q 22.859375 7.515625 30.078125 7.515625 
Q 37.359375 7.515625 41.375 12.890625 
Q 45.40625 18.265625 45.40625 27.984375 
z
M 54.390625 6.78125 
Q 54.390625 -7.171875 48.1875 -13.984375 
Q 42 -20.796875 29.203125 -20.796875 
Q 24.46875 -20.796875 20.265625 -20.09375 
Q 16.0625 -19.390625 12.109375 -17.921875 
L 12.109375 -9.1875 
Q 16.0625 -11.328125 19.921875 -12.34375 
Q 23.78125 -13.375 27.78125 -13.375 
Q 36.625 -13.375 41.015625 -8.765625 
Q 45.40625 -4.15625 45.40625 5.171875 
L 45.40625 9.625 
Q 42.625 4.78125 38.28125 2.390625 
Q 33.9375 0 27.875 0 
Q 17.828125 0 11.671875 7.65625 
Q 5.515625 15.328125 5.515625 27.984375 
Q 5.515625 40.671875 11.671875 48.328125 
Q 17.828125 56 27.875 56 
Q 33.9375 56 38.28125 53.609375 
Q 42.625 51.21875 45.40625 46.390625 
L 45.40625 54.6875 
L 54.390625 54.6875 
z
" id="DejaVuSans-103"/>
     <path d="M 11.71875 12.40625 
L 22.015625 12.40625 
L 22.015625 0 
L 11.71875 0 
z
M 11.71875 51.703125 
L 22.015625 51.703125 
L 22.015625 39.3125 
L 11.71875 39.3125 
z
" id="DejaVuSans-58"/>
     <path d="M 9.8125 72.90625 
L 55.90625 72.90625 
L 55.90625 64.59375 
L 19.671875 64.59375 
L 19.671875 43.015625 
L 54.390625 43.015625 
L 54.390625 34.71875 
L 19.671875 34.71875 
L 19.671875 8.296875 
L 56.78125 8.296875 
L 56.78125 0 
L 9.8125 0 
z
" id="DejaVuSans-69"/>
     <path d="M 19.671875 34.8125 
L 19.671875 8.109375 
L 35.5 8.109375 
Q 43.453125 8.109375 47.28125 11.40625 
Q 51.125 14.703125 51.125 21.484375 
Q 51.125 28.328125 47.28125 31.5625 
Q 43.453125 34.8125 35.5 34.8125 
z
M 19.671875 64.796875 
L 19.671875 42.828125 
L 34.28125 42.828125 
Q 41.5 42.828125 45.03125 45.53125 
Q 48.578125 48.25 48.578125 53.8125 
Q 48.578125 59.328125 45.03125 62.0625 
Q 41.5 64.796875 34.28125 64.796875 
z
M 9.8125 72.90625 
L 35.015625 72.90625 
Q 46.296875 72.90625 52.390625 68.21875 
Q 58.5 63.53125 58.5 54.890625 
Q 58.5 48.1875 55.375 44.234375 
Q 52.25 40.28125 46.1875 39.3125 
Q 53.46875 37.75 57.5 32.78125 
Q 61.53125 27.828125 61.53125 20.40625 
Q 61.53125 10.640625 54.890625 5.3125 
Q 48.25 0 35.984375 0 
L 9.8125 0 
z
" id="DejaVuSans-66"/>
     <path d="M 34.1875 63.1875 
L 20.796875 26.90625 
L 47.609375 26.90625 
z
M 28.609375 72.90625 
L 39.796875 72.90625 
L 67.578125 0 
L 57.328125 0 
L 50.6875 18.703125 
L 17.828125 18.703125 
L 11.1875 0 
L 0.78125 0 
z
" id="DejaVuSans-65"/>
     <path d="M -0.203125 72.90625 
L 10.40625 72.90625 
L 30.609375 42.921875 
L 50.6875 72.90625 
L 61.28125 72.90625 
L 35.5 34.71875 
L 35.5 0 
L 25.59375 0 
L 25.59375 34.71875 
z
" id="DejaVuSans-89"/>
    </defs>
    <g transform="translate(176.352188 16.318125)scale(0.12 -0.12)">
     <use xlink:href="#DejaVuSans-84"/>
     <use x="46.333984" xlink:href="#DejaVuSans-114"/>
     <use x="87.447266" xlink:href="#DejaVuSans-97"/>
     <use x="148.726562" xlink:href="#DejaVuSans-105"/>
     <use x="176.509766" xlink:href="#DejaVuSans-110"/>
     <use x="239.888672" xlink:href="#DejaVuSans-105"/>
     <use x="267.671875" xlink:href="#DejaVuSans-110"/>
     <use x="331.050781" xlink:href="#DejaVuSans-103"/>
     <use x="394.527344" xlink:href="#DejaVuSans-58"/>
     <use x="428.21875" xlink:href="#DejaVuSans-32"/>
     <use x="460.005859" xlink:href="#DejaVuSans-69"/>
     <use x="523.189453" xlink:href="#DejaVuSans-66"/>
     <use x="591.792969" xlink:href="#DejaVuSans-65"/>
     <use x="652.451172" xlink:href="#DejaVuSans-89"/>
    </g>
   </g>
   <g id="legend_1">
    <g id="patch_7">
     <path d="M 47.603125 59.674375 
L 131.33125 59.674375 
Q 133.33125 59.674375 133.33125 57.674375 
L 133.33125 29.318125 
Q 133.33125 27.318125 131.33125 27.318125 
L 47.603125 27.318125 
Q 45.603125 27.318125 45.603125 29.318125 
L 45.603125 57.674375 
Q 45.603125 59.674375 47.603125 59.674375 
z
" style="fill:#ffffff;opacity:0.8;stroke:#cccccc;stroke-linejoin:miter;"/>
    </g>
    <g id="line2d_33">
     <path d="M 49.603125 35.416562 
L 69.603125 35.416562 
" style="fill:none;stroke:#1f77b4;stroke-linecap:square;stroke-width:1.5;"/>
    </g>
    <g id="line2d_34"/>
    <g id="text_19">
     <!-- Predicted -->
     <defs>
      <path d="M 45.40625 46.390625 
L 45.40625 75.984375 
L 54.390625 75.984375 
L 54.390625 0 
L 45.40625 0 
L 45.40625 8.203125 
Q 42.578125 3.328125 38.25 0.953125 
Q 33.9375 -1.421875 27.875 -1.421875 
Q 17.96875 -1.421875 11.734375 6.484375 
Q 5.515625 14.40625 5.515625 27.296875 
Q 5.515625 40.1875 11.734375 48.09375 
Q 17.96875 56 27.875 56 
Q 33.9375 56 38.25 53.625 
Q 42.578125 51.265625 45.40625 46.390625 
z
M 14.796875 27.296875 
Q 14.796875 17.390625 18.875 11.75 
Q 22.953125 6.109375 30.078125 6.109375 
Q 37.203125 6.109375 41.296875 11.75 
Q 45.40625 17.390625 45.40625 27.296875 
Q 45.40625 37.203125 41.296875 42.84375 
Q 37.203125 48.484375 30.078125 48.484375 
Q 22.953125 48.484375 18.875 42.84375 
Q 14.796875 37.203125 14.796875 27.296875 
z
" id="DejaVuSans-100"/>
      <path d="M 18.3125 70.21875 
L 18.3125 54.6875 
L 36.8125 54.6875 
L 36.8125 47.703125 
L 18.3125 47.703125 
L 18.3125 18.015625 
Q 18.3125 11.328125 20.140625 9.421875 
Q 21.96875 7.515625 27.59375 7.515625 
L 36.8125 7.515625 
L 36.8125 0 
L 27.59375 0 
Q 17.1875 0 13.234375 3.875 
Q 9.28125 7.765625 9.28125 18.015625 
L 9.28125 47.703125 
L 2.6875 47.703125 
L 2.6875 54.6875 
L 9.28125 54.6875 
L 9.28125 70.21875 
z
" id="DejaVuSans-116"/>
     </defs>
     <g transform="translate(77.603125 38.916562)scale(0.1 -0.1)">
      <use xlink:href="#DejaVuSans-80"/>
      <use x="58.552734" xlink:href="#DejaVuSans-114"/>
      <use x="97.416016" xlink:href="#DejaVuSans-101"/>
      <use x="158.939453" xlink:href="#DejaVuSans-100"/>
      <use x="222.416016" xlink:href="#DejaVuSans-105"/>
      <use x="250.199219" xlink:href="#DejaVuSans-99"/>
      <use x="305.179688" xlink:href="#DejaVuSans-116"/>
      <use x="344.388672" xlink:href="#DejaVuSans-101"/>
      <use x="405.912109" xlink:href="#DejaVuSans-100"/>
     </g>
    </g>
    <g id="line2d_35">
     <path d="M 49.603125 50.094687 
L 69.603125 50.094687 
" style="fill:none;stroke:#ff7f0e;stroke-linecap:square;stroke-width:1.5;"/>
    </g>
    <g id="line2d_36"/>
    <g id="text_20">
     <!-- True value -->
     <defs>
      <path d="M 8.5 21.578125 
L 8.5 54.6875 
L 17.484375 54.6875 
L 17.484375 21.921875 
Q 17.484375 14.15625 20.5 10.265625 
Q 23.53125 6.390625 29.59375 6.390625 
Q 36.859375 6.390625 41.078125 11.03125 
Q 45.3125 15.671875 45.3125 23.6875 
L 45.3125 54.6875 
L 54.296875 54.6875 
L 54.296875 0 
L 45.3125 0 
L 45.3125 8.40625 
Q 42.046875 3.421875 37.71875 1 
Q 33.40625 -1.421875 27.6875 -1.421875 
Q 18.265625 -1.421875 13.375 4.4375 
Q 8.5 10.296875 8.5 21.578125 
z
M 31.109375 56 
z
" id="DejaVuSans-117"/>
      <path d="M 2.984375 54.6875 
L 12.5 54.6875 
L 29.59375 8.796875 
L 46.6875 54.6875 
L 56.203125 54.6875 
L 35.6875 0 
L 23.484375 0 
z
" id="DejaVuSans-118"/>
      <path d="M 9.421875 75.984375 
L 18.40625 75.984375 
L 18.40625 0 
L 9.421875 0 
z
" id="DejaVuSans-108"/>
     </defs>
     <g transform="translate(77.603125 53.594687)scale(0.1 -0.1)">
      <use xlink:href="#DejaVuSans-84"/>
      <use x="46.333984" xlink:href="#DejaVuSans-114"/>
      <use x="87.447266" xlink:href="#DejaVuSans-117"/>
      <use x="150.826172" xlink:href="#DejaVuSans-101"/>
      <use x="212.349609" xlink:href="#DejaVuSans-32"/>
      <use x="244.136719" xlink:href="#DejaVuSans-118"/>
      <use x="303.316406" xlink:href="#DejaVuSans-97"/>
      <use x="364.595703" xlink:href="#DejaVuSans-108"/>
      <use x="392.378906" xlink:href="#DejaVuSans-117"/>
      <use x="455.757812" xlink:href="#DejaVuSans-101"/>
     </g>
    </g>
   </g>
  </g>
 </g>
 <defs>
  <clipPath id="pc9415a11fd">
   <rect height="266.112" width="357.12" x="40.603125" y="22.318125"/>
  </clipPath>
 </defs>
</svg>
