<?xml version="1.0" encoding="utf-8" standalone="no"?>
<!DOCTYPE svg PUBLIC "-//W3C//DTD SVG 1.1//EN"
  "http://www.w3.org/Graphics/SVG/1.1/DTD/svg11.dtd">
<!-- Created with matplotlib (https://matplotlib.org/) -->
<svg height="325.986375pt" version="1.1" viewBox="0 0 404.923125 325.986375" width="404.923125pt" xmlns="http://www.w3.org/2000/svg" xmlns:xlink="http://www.w3.org/1999/xlink">
 <defs>
  <style type="text/css">
*{stroke-linecap:butt;stroke-linejoin:round;}
  </style>
 </defs>
 <g id="figure_1">
  <g id="patch_1">
   <path d="M 0 325.986375 
L 404.923125 325.986375 
L 404.923125 0 
L 0 0 
z
" style="fill:#ffffff;"/>
  </g>
  <g id="axes_1">
   <g id="patch_2">
    <path d="M 40.603125 288.430125 
L 397.723125 288.430125 
L 397.723125 22.318125 
L 40.603125 22.318125 
z
" style="fill:#ffffff;"/>
   </g>
   <g id="matplotlib.axis_1">
    <g id="xtick_1">
     <g id="line2d_1">
      <path clip-path="url(#p9437be7deb)" d="M 56.835852 288.430125 
L 56.835852 22.318125 
" style="fill:none;stroke:#b0b0b0;stroke-dasharray:2.96,1.28;stroke-dashoffset:0;stroke-width:0.8;"/>
     </g>
     <g id="line2d_2">
      <defs>
       <path d="M 0 0 
L 0 3.5 
" id="m987e6a6b80" style="stroke:#000000;stroke-width:0.8;"/>
      </defs>
      <g>
       <use style="stroke:#000000;stroke-width:0.8;" x="56.835852" xlink:href="#m987e6a6b80" y="288.430125"/>
      </g>
     </g>
     <g id="text_1">
      <!-- 0 -->
      <defs>
       <path d="M 31.78125 66.40625 
Q 24.171875 66.40625 20.328125 58.90625 
Q 16.5 51.421875 16.5 36.375 
Q 16.5 21.390625 20.328125 13.890625 
Q 24.171875 6.390625 31.78125 6.390625 
Q 39.453125 6.390625 43.28125 13.890625 
Q 47.125 21.390625 47.125 36.375 
Q 47.125 51.421875 43.28125 58.90625 
Q 39.453125 66.40625 31.78125 66.40625 
z
M 31.78125 74.21875 
Q 44.046875 74.21875 50.515625 64.515625 
Q 56.984375 54.828125 56.984375 36.375 
Q 56.984375 17.96875 50.515625 8.265625 
Q 44.046875 -1.421875 31.78125 -1.421875 
Q 19.53125 -1.421875 13.0625 8.265625 
Q 6.59375 17.96875 6.59375 36.375 
Q 6.59375 54.828125 13.0625 64.515625 
Q 19.53125 74.21875 31.78125 74.21875 
z
" id="DejaVuSans-48"/>
      </defs>
      <g transform="translate(53.654602 303.028562)scale(0.1 -0.1)">
       <use xlink:href="#DejaVuSans-48"/>
      </g>
     </g>
    </g>
    <g id="xtick_2">
     <g id="line2d_3">
      <path clip-path="url(#p9437be7deb)" d="M 105.766454 288.430125 
L 105.766454 22.318125 
" style="fill:none;stroke:#b0b0b0;stroke-dasharray:2.96,1.28;stroke-dashoffset:0;stroke-width:0.8;"/>
     </g>
     <g id="line2d_4">
      <g>
       <use style="stroke:#000000;stroke-width:0.8;" x="105.766454" xlink:href="#m987e6a6b80" y="288.430125"/>
      </g>
     </g>
     <g id="text_2">
      <!-- 200 -->
      <defs>
       <path d="M 19.1875 8.296875 
L 53.609375 8.296875 
L 53.609375 0 
L 7.328125 0 
L 7.328125 8.296875 
Q 12.9375 14.109375 22.625 23.890625 
Q 32.328125 33.6875 34.8125 36.53125 
Q 39.546875 41.84375 41.421875 45.53125 
Q 43.3125 49.21875 43.3125 52.78125 
Q 43.3125 58.59375 39.234375 62.25 
Q 35.15625 65.921875 28.609375 65.921875 
Q 23.96875 65.921875 18.8125 64.3125 
Q 13.671875 62.703125 7.8125 59.421875 
L 7.8125 69.390625 
Q 13.765625 71.78125 18.9375 73 
Q 24.125 74.21875 28.421875 74.21875 
Q 39.75 74.21875 46.484375 68.546875 
Q 53.21875 62.890625 53.21875 53.421875 
Q 53.21875 48.921875 51.53125 44.890625 
Q 49.859375 40.875 45.40625 35.40625 
Q 44.1875 33.984375 37.640625 27.21875 
Q 31.109375 20.453125 19.1875 8.296875 
z
" id="DejaVuSans-50"/>
      </defs>
      <g transform="translate(96.222704 303.028562)scale(0.1 -0.1)">
       <use xlink:href="#DejaVuSans-50"/>
       <use x="63.623047" xlink:href="#DejaVuSans-48"/>
       <use x="127.246094" xlink:href="#DejaVuSans-48"/>
      </g>
     </g>
    </g>
    <g id="xtick_3">
     <g id="line2d_5">
      <path clip-path="url(#p9437be7deb)" d="M 154.697057 288.430125 
L 154.697057 22.318125 
" style="fill:none;stroke:#b0b0b0;stroke-dasharray:2.96,1.28;stroke-dashoffset:0;stroke-width:0.8;"/>
     </g>
     <g id="line2d_6">
      <g>
       <use style="stroke:#000000;stroke-width:0.8;" x="154.697057" xlink:href="#m987e6a6b80" y="288.430125"/>
      </g>
     </g>
     <g id="text_3">
      <!-- 400 -->
      <defs>
       <path d="M 37.796875 64.3125 
L 12.890625 25.390625 
L 37.796875 25.390625 
z
M 35.203125 72.90625 
L 47.609375 72.90625 
L 47.609375 25.390625 
L 58.015625 25.390625 
L 58.015625 17.1875 
L 47.609375 17.1875 
L 47.609375 0 
L 37.796875 0 
L 37.796875 17.1875 
L 4.890625 17.1875 
L 4.890625 26.703125 
z
" id="DejaVuSans-52"/>
      </defs>
      <g transform="translate(145.153307 303.028562)scale(0.1 -0.1)">
       <use xlink:href="#DejaVuSans-52"/>
       <use x="63.623047" xlink:href="#DejaVuSans-48"/>
       <use x="127.246094" xlink:href="#DejaVuSans-48"/>
      </g>
     </g>
    </g>
    <g id="xtick_4">
     <g id="line2d_7">
      <path clip-path="url(#p9437be7deb)" d="M 203.627659 288.430125 
L 203.627659 22.318125 
" style="fill:none;stroke:#b0b0b0;stroke-dasharray:2.96,1.28;stroke-dashoffset:0;stroke-width:0.8;"/>
     </g>
     <g id="line2d_8">
      <g>
       <use style="stroke:#000000;stroke-width:0.8;" x="203.627659" xlink:href="#m987e6a6b80" y="288.430125"/>
      </g>
     </g>
     <g id="text_4">
      <!-- 600 -->
      <defs>
       <path d="M 33.015625 40.375 
Q 26.375 40.375 22.484375 35.828125 
Q 18.609375 31.296875 18.609375 23.390625 
Q 18.609375 15.53125 22.484375 10.953125 
Q 26.375 6.390625 33.015625 6.390625 
Q 39.65625 6.390625 43.53125 10.953125 
Q 47.40625 15.53125 47.40625 23.390625 
Q 47.40625 31.296875 43.53125 35.828125 
Q 39.65625 40.375 33.015625 40.375 
z
M 52.59375 71.296875 
L 52.59375 62.3125 
Q 48.875 64.0625 45.09375 64.984375 
Q 41.3125 65.921875 37.59375 65.921875 
Q 27.828125 65.921875 22.671875 59.328125 
Q 17.53125 52.734375 16.796875 39.40625 
Q 19.671875 43.65625 24.015625 45.921875 
Q 28.375 48.1875 33.59375 48.1875 
Q 44.578125 48.1875 50.953125 41.515625 
Q 57.328125 34.859375 57.328125 23.390625 
Q 57.328125 12.15625 50.6875 5.359375 
Q 44.046875 -1.421875 33.015625 -1.421875 
Q 20.359375 -1.421875 13.671875 8.265625 
Q 6.984375 17.96875 6.984375 36.375 
Q 6.984375 53.65625 15.1875 63.9375 
Q 23.390625 74.21875 37.203125 74.21875 
Q 40.921875 74.21875 44.703125 73.484375 
Q 48.484375 72.75 52.59375 71.296875 
z
" id="DejaVuSans-54"/>
      </defs>
      <g transform="translate(194.083909 303.028562)scale(0.1 -0.1)">
       <use xlink:href="#DejaVuSans-54"/>
       <use x="63.623047" xlink:href="#DejaVuSans-48"/>
       <use x="127.246094" xlink:href="#DejaVuSans-48"/>
      </g>
     </g>
    </g>
    <g id="xtick_5">
     <g id="line2d_9">
      <path clip-path="url(#p9437be7deb)" d="M 252.558261 288.430125 
L 252.558261 22.318125 
" style="fill:none;stroke:#b0b0b0;stroke-dasharray:2.96,1.28;stroke-dashoffset:0;stroke-width:0.8;"/>
     </g>
     <g id="line2d_10">
      <g>
       <use style="stroke:#000000;stroke-width:0.8;" x="252.558261" xlink:href="#m987e6a6b80" y="288.430125"/>
      </g>
     </g>
     <g id="text_5">
      <!-- 800 -->
      <defs>
       <path d="M 31.78125 34.625 
Q 24.75 34.625 20.71875 30.859375 
Q 16.703125 27.09375 16.703125 20.515625 
Q 16.703125 13.921875 20.71875 10.15625 
Q 24.75 6.390625 31.78125 6.390625 
Q 38.8125 6.390625 42.859375 10.171875 
Q 46.921875 13.96875 46.921875 20.515625 
Q 46.921875 27.09375 42.890625 30.859375 
Q 38.875 34.625 31.78125 34.625 
z
M 21.921875 38.8125 
Q 15.578125 40.375 12.03125 44.71875 
Q 8.5 49.078125 8.5 55.328125 
Q 8.5 64.0625 14.71875 69.140625 
Q 20.953125 74.21875 31.78125 74.21875 
Q 42.671875 74.21875 48.875 69.140625 
Q 55.078125 64.0625 55.078125 55.328125 
Q 55.078125 49.078125 51.53125 44.71875 
Q 48 40.375 41.703125 38.8125 
Q 48.828125 37.15625 52.796875 32.3125 
Q 56.78125 27.484375 56.78125 20.515625 
Q 56.78125 9.90625 50.3125 4.234375 
Q 43.84375 -1.421875 31.78125 -1.421875 
Q 19.734375 -1.421875 13.25 4.234375 
Q 6.78125 9.90625 6.78125 20.515625 
Q 6.78125 27.484375 10.78125 32.3125 
Q 14.796875 37.15625 21.921875 38.8125 
z
M 18.3125 54.390625 
Q 18.3125 48.734375 21.84375 45.5625 
Q 25.390625 42.390625 31.78125 42.390625 
Q 38.140625 42.390625 41.71875 45.5625 
Q 45.3125 48.734375 45.3125 54.390625 
Q 45.3125 60.0625 41.71875 63.234375 
Q 38.140625 66.40625 31.78125 66.40625 
Q 25.390625 66.40625 21.84375 63.234375 
Q 18.3125 60.0625 18.3125 54.390625 
z
" id="DejaVuSans-56"/>
      </defs>
      <g transform="translate(243.014511 303.028562)scale(0.1 -0.1)">
       <use xlink:href="#DejaVuSans-56"/>
       <use x="63.623047" xlink:href="#DejaVuSans-48"/>
       <use x="127.246094" xlink:href="#DejaVuSans-48"/>
      </g>
     </g>
    </g>
    <g id="xtick_6">
     <g id="line2d_11">
      <path clip-path="url(#p9437be7deb)" d="M 301.488863 288.430125 
L 301.488863 22.318125 
" style="fill:none;stroke:#b0b0b0;stroke-dasharray:2.96,1.28;stroke-dashoffset:0;stroke-width:0.8;"/>
     </g>
     <g id="line2d_12">
      <g>
       <use style="stroke:#000000;stroke-width:0.8;" x="301.488863" xlink:href="#m987e6a6b80" y="288.430125"/>
      </g>
     </g>
     <g id="text_6">
      <!-- 1000 -->
      <defs>
       <path d="M 12.40625 8.296875 
L 28.515625 8.296875 
L 28.515625 63.921875 
L 10.984375 60.40625 
L 10.984375 69.390625 
L 28.421875 72.90625 
L 38.28125 72.90625 
L 38.28125 8.296875 
L 54.390625 8.296875 
L 54.390625 0 
L 12.40625 0 
z
" id="DejaVuSans-49"/>
      </defs>
      <g transform="translate(288.763863 303.028562)scale(0.1 -0.1)">
       <use xlink:href="#DejaVuSans-49"/>
       <use x="63.623047" xlink:href="#DejaVuSans-48"/>
       <use x="127.246094" xlink:href="#DejaVuSans-48"/>
       <use x="190.869141" xlink:href="#DejaVuSans-48"/>
      </g>
     </g>
    </g>
    <g id="xtick_7">
     <g id="line2d_13">
      <path clip-path="url(#p9437be7deb)" d="M 350.419465 288.430125 
L 350.419465 22.318125 
" style="fill:none;stroke:#b0b0b0;stroke-dasharray:2.96,1.28;stroke-dashoffset:0;stroke-width:0.8;"/>
     </g>
     <g id="line2d_14">
      <g>
       <use style="stroke:#000000;stroke-width:0.8;" x="350.419465" xlink:href="#m987e6a6b80" y="288.430125"/>
      </g>
     </g>
     <g id="text_7">
      <!-- 1200 -->
      <g transform="translate(337.694465 303.028562)scale(0.1 -0.1)">
       <use xlink:href="#DejaVuSans-49"/>
       <use x="63.623047" xlink:href="#DejaVuSans-50"/>
       <use x="127.246094" xlink:href="#DejaVuSans-48"/>
       <use x="190.869141" xlink:href="#DejaVuSans-48"/>
      </g>
     </g>
    </g>
    <g id="text_8">
     <!-- Day -->
     <defs>
      <path d="M 19.671875 64.796875 
L 19.671875 8.109375 
L 31.59375 8.109375 
Q 46.6875 8.109375 53.6875 14.9375 
Q 60.6875 21.78125 60.6875 36.53125 
Q 60.6875 51.171875 53.6875 57.984375 
Q 46.6875 64.796875 31.59375 64.796875 
z
M 9.8125 72.90625 
L 30.078125 72.90625 
Q 51.265625 72.90625 61.171875 64.09375 
Q 71.09375 55.28125 71.09375 36.53125 
Q 71.09375 17.671875 61.125 8.828125 
Q 51.171875 0 30.078125 0 
L 9.8125 0 
z
" id="DejaVuSans-68"/>
      <path d="M 34.28125 27.484375 
Q 23.390625 27.484375 19.1875 25 
Q 14.984375 22.515625 14.984375 16.5 
Q 14.984375 11.71875 18.140625 8.90625 
Q 21.296875 6.109375 26.703125 6.109375 
Q 34.1875 6.109375 38.703125 11.40625 
Q 43.21875 16.703125 43.21875 25.484375 
L 43.21875 27.484375 
z
M 52.203125 31.203125 
L 52.203125 0 
L 43.21875 0 
L 43.21875 8.296875 
Q 40.140625 3.328125 35.546875 0.953125 
Q 30.953125 -1.421875 24.3125 -1.421875 
Q 15.921875 -1.421875 10.953125 3.296875 
Q 6 8.015625 6 15.921875 
Q 6 25.140625 12.171875 29.828125 
Q 18.359375 34.515625 30.609375 34.515625 
L 43.21875 34.515625 
L 43.21875 35.40625 
Q 43.21875 41.609375 39.140625 45 
Q 35.0625 48.390625 27.6875 48.390625 
Q 23 48.390625 18.546875 47.265625 
Q 14.109375 46.140625 10.015625 43.890625 
L 10.015625 52.203125 
Q 14.9375 54.109375 19.578125 55.046875 
Q 24.21875 56 28.609375 56 
Q 40.484375 56 46.34375 49.84375 
Q 52.203125 43.703125 52.203125 31.203125 
z
" id="DejaVuSans-97"/>
      <path d="M 32.171875 -5.078125 
Q 28.375 -14.84375 24.75 -17.8125 
Q 21.140625 -20.796875 15.09375 -20.796875 
L 7.90625 -20.796875 
L 7.90625 -13.28125 
L 13.1875 -13.28125 
Q 16.890625 -13.28125 18.9375 -11.515625 
Q 21 -9.765625 23.484375 -3.21875 
L 25.09375 0.875 
L 2.984375 54.6875 
L 12.5 54.6875 
L 29.59375 11.921875 
L 46.6875 54.6875 
L 56.203125 54.6875 
z
" id="DejaVuSans-121"/>
     </defs>
     <g transform="translate(209.289688 316.706687)scale(0.1 -0.1)">
      <use xlink:href="#DejaVuSans-68"/>
      <use x="77.001953" xlink:href="#DejaVuSans-97"/>
      <use x="138.28125" xlink:href="#DejaVuSans-121"/>
     </g>
    </g>
   </g>
   <g id="matplotlib.axis_2">
    <g id="ytick_1">
     <g id="line2d_15">
      <path clip-path="url(#p9437be7deb)" d="M 40.603125 263.655547 
L 397.723125 263.655547 
" style="fill:none;stroke:#b0b0b0;stroke-dasharray:2.96,1.28;stroke-dashoffset:0;stroke-width:0.8;"/>
     </g>
     <g id="line2d_16">
      <defs>
       <path d="M 0 0 
L -3.5 0 
" id="m970ef8315c" style="stroke:#000000;stroke-width:0.8;"/>
      </defs>
      <g>
       <use style="stroke:#000000;stroke-width:0.8;" x="40.603125" xlink:href="#m970ef8315c" y="263.655547"/>
      </g>
     </g>
     <g id="text_9">
      <!-- 25 -->
      <defs>
       <path d="M 10.796875 72.90625 
L 49.515625 72.90625 
L 49.515625 64.59375 
L 19.828125 64.59375 
L 19.828125 46.734375 
Q 21.96875 47.46875 24.109375 47.828125 
Q 26.265625 48.1875 28.421875 48.1875 
Q 40.625 48.1875 47.75 41.5 
Q 54.890625 34.8125 54.890625 23.390625 
Q 54.890625 11.625 47.5625 5.09375 
Q 40.234375 -1.421875 26.90625 -1.421875 
Q 22.3125 -1.421875 17.546875 -0.640625 
Q 12.796875 0.140625 7.71875 1.703125 
L 7.71875 11.625 
Q 12.109375 9.234375 16.796875 8.0625 
Q 21.484375 6.890625 26.703125 6.890625 
Q 35.15625 6.890625 40.078125 11.328125 
Q 45.015625 15.765625 45.015625 23.390625 
Q 45.015625 31 40.078125 35.4375 
Q 35.15625 39.890625 26.703125 39.890625 
Q 22.75 39.890625 18.8125 39.015625 
Q 14.890625 38.140625 10.796875 36.28125 
z
" id="DejaVuSans-53"/>
      </defs>
      <g transform="translate(20.878125 267.454766)scale(0.1 -0.1)">
       <use xlink:href="#DejaVuSans-50"/>
       <use x="63.623047" xlink:href="#DejaVuSans-53"/>
      </g>
     </g>
    </g>
    <g id="ytick_2">
     <g id="line2d_17">
      <path clip-path="url(#p9437be7deb)" d="M 40.603125 212.001328 
L 397.723125 212.001328 
" style="fill:none;stroke:#b0b0b0;stroke-dasharray:2.96,1.28;stroke-dashoffset:0;stroke-width:0.8;"/>
     </g>
     <g id="line2d_18">
      <g>
       <use style="stroke:#000000;stroke-width:0.8;" x="40.603125" xlink:href="#m970ef8315c" y="212.001328"/>
      </g>
     </g>
     <g id="text_10">
      <!-- 30 -->
      <defs>
       <path d="M 40.578125 39.3125 
Q 47.65625 37.796875 51.625 33 
Q 55.609375 28.21875 55.609375 21.1875 
Q 55.609375 10.40625 48.1875 4.484375 
Q 40.765625 -1.421875 27.09375 -1.421875 
Q 22.515625 -1.421875 17.65625 -0.515625 
Q 12.796875 0.390625 7.625 2.203125 
L 7.625 11.71875 
Q 11.71875 9.328125 16.59375 8.109375 
Q 21.484375 6.890625 26.8125 6.890625 
Q 36.078125 6.890625 40.9375 10.546875 
Q 45.796875 14.203125 45.796875 21.1875 
Q 45.796875 27.640625 41.28125 31.265625 
Q 36.765625 34.90625 28.71875 34.90625 
L 20.21875 34.90625 
L 20.21875 43.015625 
L 29.109375 43.015625 
Q 36.375 43.015625 40.234375 45.921875 
Q 44.09375 48.828125 44.09375 54.296875 
Q 44.09375 59.90625 40.109375 62.90625 
Q 36.140625 65.921875 28.71875 65.921875 
Q 24.65625 65.921875 20.015625 65.03125 
Q 15.375 64.15625 9.8125 62.3125 
L 9.8125 71.09375 
Q 15.4375 72.65625 20.34375 73.4375 
Q 25.25 74.21875 29.59375 74.21875 
Q 40.828125 74.21875 47.359375 69.109375 
Q 53.90625 64.015625 53.90625 55.328125 
Q 53.90625 49.265625 50.4375 45.09375 
Q 46.96875 40.921875 40.578125 39.3125 
z
" id="DejaVuSans-51"/>
      </defs>
      <g transform="translate(20.878125 215.800547)scale(0.1 -0.1)">
       <use xlink:href="#DejaVuSans-51"/>
       <use x="63.623047" xlink:href="#DejaVuSans-48"/>
      </g>
     </g>
    </g>
    <g id="ytick_3">
     <g id="line2d_19">
      <path clip-path="url(#p9437be7deb)" d="M 40.603125 160.34711 
L 397.723125 160.34711 
" style="fill:none;stroke:#b0b0b0;stroke-dasharray:2.96,1.28;stroke-dashoffset:0;stroke-width:0.8;"/>
     </g>
     <g id="line2d_20">
      <g>
       <use style="stroke:#000000;stroke-width:0.8;" x="40.603125" xlink:href="#m970ef8315c" y="160.34711"/>
      </g>
     </g>
     <g id="text_11">
      <!-- 35 -->
      <g transform="translate(20.878125 164.146328)scale(0.1 -0.1)">
       <use xlink:href="#DejaVuSans-51"/>
       <use x="63.623047" xlink:href="#DejaVuSans-53"/>
      </g>
     </g>
    </g>
    <g id="ytick_4">
     <g id="line2d_21">
      <path clip-path="url(#p9437be7deb)" d="M 40.603125 108.692891 
L 397.723125 108.692891 
" style="fill:none;stroke:#b0b0b0;stroke-dasharray:2.96,1.28;stroke-dashoffset:0;stroke-width:0.8;"/>
     </g>
     <g id="line2d_22">
      <g>
       <use style="stroke:#000000;stroke-width:0.8;" x="40.603125" xlink:href="#m970ef8315c" y="108.692891"/>
      </g>
     </g>
     <g id="text_12">
      <!-- 40 -->
      <g transform="translate(20.878125 112.49211)scale(0.1 -0.1)">
       <use xlink:href="#DejaVuSans-52"/>
       <use x="63.623047" xlink:href="#DejaVuSans-48"/>
      </g>
     </g>
    </g>
    <g id="ytick_5">
     <g id="line2d_23">
      <path clip-path="url(#p9437be7deb)" d="M 40.603125 57.038673 
L 397.723125 57.038673 
" style="fill:none;stroke:#b0b0b0;stroke-dasharray:2.96,1.28;stroke-dashoffset:0;stroke-width:0.8;"/>
     </g>
     <g id="line2d_24">
      <g>
       <use style="stroke:#000000;stroke-width:0.8;" x="40.603125" xlink:href="#m970ef8315c" y="57.038673"/>
      </g>
     </g>
     <g id="text_13">
      <!-- 45 -->
      <g transform="translate(20.878125 60.837891)scale(0.1 -0.1)">
       <use xlink:href="#DejaVuSans-52"/>
       <use x="63.623047" xlink:href="#DejaVuSans-53"/>
      </g>
     </g>
    </g>
    <g id="text_14">
     <!-- Price $ -->
     <defs>
      <path d="M 19.671875 64.796875 
L 19.671875 37.40625 
L 32.078125 37.40625 
Q 38.96875 37.40625 42.71875 40.96875 
Q 46.484375 44.53125 46.484375 51.125 
Q 46.484375 57.671875 42.71875 61.234375 
Q 38.96875 64.796875 32.078125 64.796875 
z
M 9.8125 72.90625 
L 32.078125 72.90625 
Q 44.34375 72.90625 50.609375 67.359375 
Q 56.890625 61.8125 56.890625 51.125 
Q 56.890625 40.328125 50.609375 34.8125 
Q 44.34375 29.296875 32.078125 29.296875 
L 19.671875 29.296875 
L 19.671875 0 
L 9.8125 0 
z
" id="DejaVuSans-80"/>
      <path d="M 41.109375 46.296875 
Q 39.59375 47.171875 37.8125 47.578125 
Q 36.03125 48 33.890625 48 
Q 26.265625 48 22.1875 43.046875 
Q 18.109375 38.09375 18.109375 28.8125 
L 18.109375 0 
L 9.078125 0 
L 9.078125 54.6875 
L 18.109375 54.6875 
L 18.109375 46.1875 
Q 20.953125 51.171875 25.484375 53.578125 
Q 30.03125 56 36.53125 56 
Q 37.453125 56 38.578125 55.875 
Q 39.703125 55.765625 41.0625 55.515625 
z
" id="DejaVuSans-114"/>
      <path d="M 9.421875 54.6875 
L 18.40625 54.6875 
L 18.40625 0 
L 9.421875 0 
z
M 9.421875 75.984375 
L 18.40625 75.984375 
L 18.40625 64.59375 
L 9.421875 64.59375 
z
" id="DejaVuSans-105"/>
      <path d="M 48.78125 52.59375 
L 48.78125 44.1875 
Q 44.96875 46.296875 41.140625 47.34375 
Q 37.3125 48.390625 33.40625 48.390625 
Q 24.65625 48.390625 19.8125 42.84375 
Q 14.984375 37.3125 14.984375 27.296875 
Q 14.984375 17.28125 19.8125 11.734375 
Q 24.65625 6.203125 33.40625 6.203125 
Q 37.3125 6.203125 41.140625 7.25 
Q 44.96875 8.296875 48.78125 10.40625 
L 48.78125 2.09375 
Q 45.015625 0.34375 40.984375 -0.53125 
Q 36.96875 -1.421875 32.421875 -1.421875 
Q 20.0625 -1.421875 12.78125 6.34375 
Q 5.515625 14.109375 5.515625 27.296875 
Q 5.515625 40.671875 12.859375 48.328125 
Q 20.21875 56 33.015625 56 
Q 37.15625 56 41.109375 55.140625 
Q 45.0625 54.296875 48.78125 52.59375 
z
" id="DejaVuSans-99"/>
      <path d="M 56.203125 29.59375 
L 56.203125 25.203125 
L 14.890625 25.203125 
Q 15.484375 15.921875 20.484375 11.0625 
Q 25.484375 6.203125 34.421875 6.203125 
Q 39.59375 6.203125 44.453125 7.46875 
Q 49.3125 8.734375 54.109375 11.28125 
L 54.109375 2.78125 
Q 49.265625 0.734375 44.1875 -0.34375 
Q 39.109375 -1.421875 33.890625 -1.421875 
Q 20.796875 -1.421875 13.15625 6.1875 
Q 5.515625 13.8125 5.515625 26.8125 
Q 5.515625 40.234375 12.765625 48.109375 
Q 20.015625 56 32.328125 56 
Q 43.359375 56 49.78125 48.890625 
Q 56.203125 41.796875 56.203125 29.59375 
z
M 47.21875 32.234375 
Q 47.125 39.59375 43.09375 43.984375 
Q 39.0625 48.390625 32.421875 48.390625 
Q 24.90625 48.390625 20.390625 44.140625 
Q 15.875 39.890625 15.1875 32.171875 
z
" id="DejaVuSans-101"/>
      <path id="DejaVuSans-32"/>
      <path d="M 33.796875 -14.703125 
L 28.90625 -14.703125 
L 28.859375 0 
Q 23.734375 0.09375 18.609375 1.1875 
Q 13.484375 2.296875 8.296875 4.5 
L 8.296875 13.28125 
Q 13.28125 10.15625 18.375 8.5625 
Q 23.484375 6.984375 28.90625 6.9375 
L 28.90625 29.203125 
Q 18.109375 30.953125 13.203125 35.15625 
Q 8.296875 39.359375 8.296875 46.6875 
Q 8.296875 54.640625 13.625 59.21875 
Q 18.953125 63.8125 28.90625 64.5 
L 28.90625 75.984375 
L 33.796875 75.984375 
L 33.796875 64.65625 
Q 38.328125 64.453125 42.578125 63.6875 
Q 46.828125 62.9375 50.875 61.625 
L 50.875 53.078125 
Q 46.828125 55.125 42.546875 56.25 
Q 38.28125 57.375 33.796875 57.5625 
L 33.796875 36.71875 
Q 44.875 35.015625 50.09375 30.609375 
Q 55.328125 26.21875 55.328125 18.609375 
Q 55.328125 10.359375 49.78125 5.59375 
Q 44.234375 0.828125 33.796875 0.09375 
z
M 28.90625 37.59375 
L 28.90625 57.625 
Q 23.25 56.984375 20.265625 54.390625 
Q 17.28125 51.8125 17.28125 47.515625 
Q 17.28125 43.3125 20.03125 40.96875 
Q 22.796875 38.625 28.90625 37.59375 
z
M 33.796875 28.21875 
L 33.796875 7.078125 
Q 39.984375 7.90625 43.140625 10.59375 
Q 46.296875 13.28125 46.296875 17.671875 
Q 46.296875 21.96875 43.28125 24.5 
Q 40.28125 27.046875 33.796875 28.21875 
z
" id="DejaVuSans-36"/>
     </defs>
     <g transform="translate(14.798438 172.342094)rotate(-90)scale(0.1 -0.1)">
      <use xlink:href="#DejaVuSans-80"/>
      <use x="58.552734" xlink:href="#DejaVuSans-114"/>
      <use x="99.666016" xlink:href="#DejaVuSans-105"/>
      <use x="127.449219" xlink:href="#DejaVuSans-99"/>
      <use x="182.429688" xlink:href="#DejaVuSans-101"/>
      <use x="243.953125" xlink:href="#DejaVuSans-32"/>
      <use x="275.740234" xlink:href="#DejaVuSans-36"/>
     </g>
    </g>
   </g>
   <g id="line2d_25">
    <path clip-path="url(#p9437be7deb)" d="M 56.835852 276.334125 
L 57.325158 266.292662 
L 57.569811 265.845192 
L 57.814464 267.354952 
L 58.059117 259.220256 
L 58.548423 253.159067 
L 58.793076 256.165011 
L 59.037729 256.554294 
L 59.282382 256.392421 
L 59.527035 255.848655 
L 60.016341 255.787551 
L 60.260994 258.843348 
L 60.505647 259.11929 
L 60.7503 257.498416 
L 60.994953 254.730956 
L 61.239606 254.441378 
L 61.484259 252.794257 
L 61.728912 248.875363 
L 61.973566 249.714086 
L 62.218219 248.756151 
L 62.462872 247.347435 
L 62.707525 249.37306 
L 62.952178 249.40443 
L 63.196831 246.633462 
L 63.441484 247.291849 
L 63.686137 243.755813 
L 63.93079 257.932349 
L 64.175443 257.166336 
L 64.420096 259.981856 
L 64.664749 260.836953 
L 64.909402 257.576091 
L 65.398708 261.756583 
L 65.888014 255.109125 
L 66.132667 250.402582 
L 66.37732 249.419937 
L 66.621973 249.654046 
L 67.111279 251.16694 
L 67.355932 253.704803 
L 67.600585 252.339911 
L 67.845238 244.145155 
L 68.089891 240.301907 
L 68.334544 240.312705 
L 68.579197 239.044758 
L 69.068503 246.131607 
L 69.557809 249.166931 
L 69.802462 248.720702 
L 70.047115 250.723352 
L 70.291768 249.556824 
L 70.536421 250.675036 
L 70.781074 248.141252 
L 71.025727 248.150138 
L 71.27038 251.515079 
L 71.515033 251.927948 
L 71.759686 255.408476 
L 72.004339 256.032656 
L 72.248992 254.160904 
L 72.738298 256.639398 
L 72.982951 253.235245 
L 73.227604 255.253441 
L 73.472257 255.068711 
L 73.71691 254.740906 
L 73.961563 259.440178 
L 74.206216 258.361868 
L 74.450869 260.813406 
L 74.695522 261.506237 
L 75.184828 268.572613 
L 75.429481 267.723348 
L 75.918787 260.544814 
L 76.408093 264.975356 
L 76.652746 266.820743 
L 76.897399 265.918414 
L 77.142052 270.210847 
L 77.386705 267.009966 
L 77.631358 266.767265 
L 77.876011 262.993514 
L 78.120664 263.748927 
L 78.365317 259.766328 
L 78.60997 263.746286 
L 78.854623 264.658527 
L 79.099276 261.377547 
L 79.343929 256.438865 
L 79.833235 260.436084 
L 80.077888 260.134723 
L 80.567194 257.449588 
L 80.811847 263.250028 
L 81.0565 261.716602 
L 81.301153 261.735696 
L 81.545806 264.153381 
L 81.790459 262.674005 
L 82.279765 270.247103 
L 82.524418 270.745864 
L 82.769071 268.714663 
L 83.013724 258.563524 
L 83.50303 258.768668 
L 83.747683 258.819762 
L 83.992336 259.703687 
L 84.481643 253.250634 
L 84.726296 249.903072 
L 84.970949 249.510637 
L 85.460255 246.941404 
L 85.704908 243.373191 
L 86.194214 248.709983 
L 86.438867 245.445575 
L 86.68352 245.665339 
L 86.928173 245.49056 
L 87.172826 246.398741 
L 87.417479 246.482229 
L 87.662132 248.203971 
L 88.151438 242.879416 
L 88.396091 244.796015 
L 88.640744 243.346807 
L 88.885397 243.951834 
L 89.13005 242.194073 
L 89.374703 243.76403 
L 89.619356 243.774828 
L 89.864009 245.427407 
L 90.108662 243.71272 
L 90.353315 253.721296 
L 90.597968 256.084696 
L 90.842621 254.054539 
L 91.087274 250.033674 
L 91.331927 253.605433 
L 91.57658 253.806104 
L 91.821233 254.720315 
L 92.065886 252.129939 
L 92.555192 241.897835 
L 92.799845 242.952125 
L 93.289151 235.201845 
L 93.533804 236.171504 
L 93.778457 235.503343 
L 94.02311 236.863783 
L 94.267763 234.867498 
L 94.512416 239.808367 
L 94.757069 234.989351 
L 95.001722 235.842557 
L 95.246375 237.34077 
L 95.491028 238.110981 
L 95.735681 240.171896 
L 96.224987 236.496412 
L 96.46964 225.696876 
L 96.714293 226.34817 
L 96.958946 219.292553 
L 97.203599 219.145892 
L 97.937558 213.847248 
L 98.182211 216.864936 
L 98.426864 217.61156 
L 98.671517 220.368932 
L 98.91617 218.879211 
L 99.160823 224.548674 
L 99.405476 217.967089 
L 99.650129 218.811368 
L 99.894782 217.221667 
L 100.139435 218.039641 
L 100.384088 214.35322 
L 100.628741 221.738022 
L 100.873394 218.232233 
L 101.118047 205.916691 
L 101.3627 201.154601 
L 101.607353 202.043688 
L 101.852006 204.922657 
L 102.096659 204.9398 
L 102.341312 206.761207 
L 102.585965 205.14713 
L 102.830618 204.995721 
L 103.075271 202.432636 
L 103.319924 205.747251 
L 103.564577 202.207196 
L 103.80923 208.391795 
L 104.053883 203.086924 
L 104.298536 209.275582 
L 104.787842 213.8851 
L 105.032495 209.625397 
L 105.277148 209.133926 
L 105.521801 205.509536 
L 105.766454 204.055736 
L 106.011107 205.534186 
L 106.25576 211.264517 
L 106.500413 209.907447 
L 106.745066 202.718883 
L 107.234373 209.972649 
L 107.479026 207.550944 
L 107.968332 223.419132 
L 108.212985 225.293308 
L 108.457638 225.046371 
L 108.702291 224.099451 
L 108.946944 229.94594 
L 109.191597 222.064407 
L 109.43625 222.345729 
L 109.680903 223.812218 
L 109.925556 221.678711 
L 110.170209 225.110431 
L 110.414862 221.227261 
L 110.659515 222.466005 
L 110.904168 219.510051 
L 111.148821 218.137809 
L 111.393474 224.952046 
L 111.638127 236.849596 
L 112.127433 233.370349 
L 112.372086 235.566359 
L 112.616739 234.1672 
L 112.861392 229.783259 
L 113.106045 237.167075 
L 113.350698 232.457714 
L 113.595351 235.364565 
L 113.840004 236.03509 
L 114.084657 232.506759 
L 114.32931 233.817267 
L 114.573963 233.417935 
L 114.818616 228.805935 
L 115.063269 221.991658 
L 115.307922 219.800772 
L 115.552575 219.348178 
L 115.797228 221.653253 
L 116.041881 215.346328 
L 116.286534 215.054327 
L 116.531187 213.373118 
L 116.77584 214.199624 
L 117.020493 210.329892 
L 117.265146 212.700839 
L 117.509799 207.688324 
L 117.999105 204.458359 
L 118.243758 208.738575 
L 118.488411 207.719299 
L 118.977717 202.904421 
L 119.22237 201.571824 
L 119.467023 202.862982 
L 119.711676 206.755019 
L 119.956329 195.822872 
L 120.445635 200.852865 
L 120.690288 199.928861 
L 120.934941 203.987519 
L 121.179594 204.214791 
L 121.424247 211.778982 
L 121.6689 215.700497 
L 121.913553 211.840086 
L 122.158206 213.826026 
L 122.647512 207.567634 
L 123.136818 215.651413 
L 123.381471 214.675902 
L 123.626124 217.114986 
L 123.870777 212.556917 
L 124.11543 213.222871 
L 124.360083 212.944446 
L 124.604736 214.425024 
L 124.849389 210.625874 
L 125.094042 210.886052 
L 125.338695 210.807274 
L 125.583348 210.997639 
L 126.317307 202.476695 
L 126.56196 203.763105 
L 126.806613 194.681331 
L 127.051266 191.432351 
L 127.540572 201.092058 
L 127.785225 198.549623 
L 128.029878 201.029595 
L 128.274531 201.45673 
L 128.519184 203.127437 
L 129.253143 214.230264 
L 129.497797 214.534817 
L 129.74245 213.288664 
L 129.987103 215.38889 
L 130.231756 215.652655 
L 130.476409 214.871095 
L 130.721062 210.72085 
L 131.455021 216.190568 
L 131.699674 210.262858 
L 131.944327 197.247135 
L 132.18898 195.674616 
L 132.433633 195.510516 
L 132.678286 189.467554 
L 132.922939 188.344435 
L 133.167592 188.38546 
L 133.412245 188.986527 
L 133.656898 179.993502 
L 133.901551 181.351065 
L 134.146204 178.386598 
L 134.390857 181.959067 
L 134.63551 183.129871 
L 135.124816 183.283684 
L 135.369469 185.551793 
L 135.614122 197.694447 
L 135.858775 195.180919 
L 136.103428 198.38582 
L 136.348081 197.31618 
L 136.837387 180.744126 
L 137.08204 181.083162 
L 137.326693 181.851678 
L 137.815999 186.066987 
L 138.060652 182.307167 
L 138.305305 182.367187 
L 138.549958 184.734804 
L 138.794611 179.926743 
L 139.039264 181.152758 
L 139.283917 185.680581 
L 139.773223 181.419676 
L 140.507182 169.866364 
L 140.751835 173.025471 
L 140.996488 178.524294 
L 141.241141 178.6759 
L 141.485794 179.745698 
L 141.730447 181.554652 
L 141.9751 181.291005 
L 142.219753 181.360326 
L 142.464406 175.742133 
L 142.709059 176.598571 
L 142.953712 175.340043 
L 143.198365 172.035595 
L 143.443018 172.23863 
L 143.687671 171.605169 
L 143.932324 172.065191 
L 144.176977 169.786403 
L 144.42163 166.335235 
L 144.666283 172.254157 
L 144.910936 172.226571 
L 145.400242 174.449005 
L 145.889548 166.620674 
L 146.134201 163.141565 
L 146.378854 167.160224 
L 146.623507 168.00606 
L 146.86816 163.426296 
L 147.112813 162.194212 
L 147.357466 165.823784 
L 147.602119 172.863973 
L 147.846772 174.575823 
L 148.091425 173.532311 
L 148.336078 182.923682 
L 148.580731 182.356074 
L 148.825384 182.230202 
L 149.070037 188.437598 
L 149.31469 189.807575 
L 149.803996 197.559353 
L 150.048649 196.419998 
L 150.293302 197.635137 
L 150.537955 188.789561 
L 150.782608 189.50318 
L 151.027261 187.965281 
L 151.271914 188.187351 
L 151.516567 186.194988 
L 151.76122 180.799338 
L 152.005874 178.711329 
L 152.250527 178.943172 
L 152.49518 175.942607 
L 152.739833 174.867332 
L 152.984486 175.9858 
L 153.229139 175.700478 
L 153.473792 180.166902 
L 153.963098 181.981333 
L 154.207751 179.17336 
L 154.452404 181.893294 
L 155.431016 167.150214 
L 155.675669 165.372354 
L 156.164975 168.596644 
L 156.409628 173.339285 
L 156.654281 175.316161 
L 156.898934 175.437186 
L 157.143587 173.75978 
L 157.38824 175.916597 
L 157.632893 175.727513 
L 157.877546 179.70085 
L 158.122199 180.337779 
L 158.366852 177.485471 
L 158.611505 178.584116 
L 158.856158 178.992906 
L 159.100811 173.017077 
L 159.345464 174.154225 
L 159.590117 170.556574 
L 159.83477 169.564766 
L 160.568729 178.304352 
L 161.058035 170.886112 
L 161.302688 171.641741 
L 161.547341 176.549112 
L 161.791994 172.505863 
L 162.036647 176.74931 
L 162.2813 172.214551 
L 162.525953 172.532858 
L 162.770606 171.786687 
L 163.015259 169.144863 
L 163.259912 168.673846 
L 163.504565 166.21153 
L 163.749218 165.812237 
L 163.993871 164.005924 
L 164.238524 164.394734 
L 164.483177 165.946583 
L 164.972483 160.769417 
L 165.461789 167.560659 
L 165.706442 141.9436 
L 165.951095 142.488745 
L 166.195748 136.94677 
L 166.440401 142.348055 
L 166.685054 142.151364 
L 166.929707 139.135627 
L 167.17436 143.979904 
L 167.419013 139.467766 
L 167.663666 142.914599 
L 168.152972 143.866249 
L 168.397625 146.635798 
L 168.642278 146.061648 
L 168.886931 142.75519 
L 169.131584 143.013949 
L 169.376237 142.69584 
L 169.865543 145.624917 
L 170.110196 139.310918 
L 170.354849 137.322969 
L 170.599502 136.823577 
L 170.844155 140.528579 
L 171.333461 143.318424 
L 171.578114 145.237762 
L 171.822767 144.047609 
L 172.06742 144.157915 
L 172.312073 141.153567 
L 172.556726 143.338916 
L 172.801379 143.834209 
L 173.046032 143.987116 
L 173.290685 143.777657 
L 173.535338 145.676621 
L 173.779991 145.829252 
L 174.024644 147.437575 
L 174.269298 142.728313 
L 174.513951 145.964347 
L 174.758604 141.405903 
L 175.003257 139.586151 
L 175.24791 138.873163 
L 175.492563 137.3249 
L 175.737216 139.415352 
L 175.981869 139.255824 
L 176.226522 138.125731 
L 176.471175 139.794585 
L 176.960481 130.861186 
L 177.205134 137.790399 
L 177.449787 136.13585 
L 177.69444 136.55197 
L 177.939093 134.017535 
L 178.183746 134.04591 
L 178.428399 132.542455 
L 178.673052 135.887573 
L 178.917705 134.995746 
L 179.162358 137.546103 
L 179.407011 138.626265 
L 179.651664 139.125814 
L 180.14097 162.23169 
L 180.630276 154.977983 
L 181.364235 168.997473 
L 181.608888 167.69461 
L 181.853541 163.257507 
L 182.098194 166.096377 
L 182.342847 165.72869 
L 182.5875 166.099845 
L 183.076806 159.494653 
L 183.321459 157.938981 
L 183.566112 158.063671 
L 183.810765 161.665776 
L 184.055418 162.374429 
L 184.300071 160.53647 
L 184.544724 159.954359 
L 184.789377 157.78702 
L 185.278683 160.345691 
L 185.523336 162.756736 
L 185.767989 161.59677 
L 186.012642 164.307994 
L 186.257295 162.661524 
L 186.501948 164.818775 
L 186.746601 164.496094 
L 186.991254 163.9742 
L 187.235907 162.69778 
L 187.48056 167.126884 
L 187.725213 166.684202 
L 187.969866 165.832888 
L 188.214519 166.699887 
L 188.459172 163.606001 
L 188.703825 164.700824 
L 189.193131 174.233792 
L 189.437784 169.278617 
L 190.171743 177.544979 
L 190.416396 178.625693 
L 190.661049 183.33799 
L 190.905702 185.005307 
L 191.395008 177.633255 
L 191.639661 179.645166 
L 191.884314 176.351555 
L 192.128967 184.995298 
L 192.862926 193.454901 
L 193.107579 195.089116 
L 193.352232 197.718704 
L 193.596885 197.995375 
L 193.841538 190.652268 
L 194.086191 186.856626 
L 194.575497 177.531737 
L 194.82015 175.055589 
L 195.064803 171.433701 
L 195.309456 166.132554 
L 195.554109 169.42782 
L 195.798762 167.300165 
L 196.043415 166.575906 
L 196.288068 164.416251 
L 196.532721 168.835108 
L 196.777375 149.768226 
L 197.022028 141.659382 
L 197.511334 139.081558 
L 197.755987 139.975473 
L 198.00064 139.323687 
L 198.245293 136.385033 
L 198.489946 138.890621 
L 199.223905 129.586186 
L 199.468558 127.630157 
L 199.957864 130.727432 
L 200.202517 129.740038 
L 200.44717 131.077542 
L 200.691823 127.119337 
L 201.181129 130.807945 
L 201.425782 131.079867 
L 201.670435 134.393025 
L 201.915088 134.577025 
L 202.159741 136.032362 
L 202.404394 134.358029 
L 202.649047 139.93965 
L 202.8937 139.939059 
L 203.627659 158.136617 
L 203.872312 156.276392 
L 204.116965 152.21068 
L 204.361618 146.01148 
L 204.606271 144.397561 
L 204.850924 143.70948 
L 205.34023 139.44487 
L 205.584883 142.87988 
L 206.074189 155.143067 
L 206.318842 153.24761 
L 206.563495 155.63505 
L 206.808148 156.728611 
L 207.052801 147.901735 
L 207.297454 143.365005 
L 207.542107 147.42725 
L 207.78676 147.109534 
L 208.031413 154.513744 
L 208.276066 151.400548 
L 208.520719 153.488006 
L 208.765372 150.352386 
L 209.499331 144.892815 
L 209.743984 146.552802 
L 210.23329 157.090504 
L 210.477943 160.773831 
L 210.722596 161.057576 
L 210.967249 165.981578 
L 211.211902 159.055518 
L 211.456555 157.985168 
L 211.701208 158.165583 
L 211.945861 156.053613 
L 212.190514 160.675111 
L 212.435167 162.30034 
L 212.67982 161.653992 
L 212.924473 150.621234 
L 213.169126 149.729683 
L 213.413779 148.071982 
L 213.658432 147.892867 
L 213.903085 150.077232 
L 214.147738 148.424653 
L 214.881697 150.029705 
L 215.12635 153.770568 
L 215.371003 153.063688 
L 215.615656 150.817137 
L 215.860309 152.528041 
L 216.104962 153.298369 
L 216.349615 155.312289 
L 216.594268 154.081782 
L 216.838921 165.215112 
L 217.083574 166.257954 
L 217.328227 174.600651 
L 217.57288 177.160544 
L 217.817533 166.871395 
L 218.062186 172.955323 
L 218.306839 171.017659 
L 218.551492 174.320255 
L 218.796145 171.476696 
L 219.040798 172.599223 
L 219.285452 171.789288 
L 219.530105 168.000267 
L 219.774758 169.364214 
L 220.019411 162.447927 
L 220.264064 168.515816 
L 220.508717 164.473158 
L 220.75337 155.11887 
L 221.242676 163.353823 
L 221.487329 153.814273 
L 221.731982 157.211923 
L 222.221288 147.350126 
L 222.465941 146.731562 
L 222.710594 147.236234 
L 223.444553 143.216433 
L 223.933859 148.37283 
L 224.178512 148.48357 
L 224.423165 154.820662 
L 224.667818 149.389386 
L 224.912471 151.629318 
L 225.157124 149.222686 
L 225.401777 150.777806 
L 225.64643 150.788604 
L 225.891083 134.913145 
L 226.135736 135.062821 
L 226.625042 133.448114 
L 226.869695 135.963002 
L 227.114348 135.711454 
L 227.603654 125.015998 
L 227.848307 129.238007 
L 228.09296 126.972578 
L 228.337613 129.681004 
L 228.826919 115.001096 
L 229.071572 119.276977 
L 229.560878 111.988472 
L 230.050184 117.947119 
L 230.294837 118.119376 
L 230.53949 118.760246 
L 230.784143 114.891973 
L 231.028796 105.276324 
L 231.273449 111.247543 
L 231.518102 112.019487 
L 231.762755 108.556024 
L 232.252061 118.83737 
L 232.496714 117.619945 
L 232.741367 117.243313 
L 232.98602 113.286212 
L 233.230673 114.335241 
L 233.475326 113.430686 
L 233.719979 116.166737 
L 233.964632 111.798994 
L 234.209285 110.069567 
L 234.453938 110.032956 
L 234.943244 108.241973 
L 235.187897 109.003316 
L 235.43255 108.470782 
L 235.677203 109.403949 
L 235.921856 107.954957 
L 236.166509 111.007542 
L 236.411162 108.141992 
L 236.655815 103.028078 
L 236.900468 102.954935 
L 237.145121 106.55503 
L 237.389774 102.534401 
L 237.634427 105.685311 
L 237.87908 107.213082 
L 238.123733 106.291225 
L 238.368386 102.763525 
L 238.613039 101.123163 
L 238.857692 107.067741 
L 239.102345 99.195036 
L 239.591651 101.224287 
L 240.080957 96.402788 
L 240.32561 97.605433 
L 240.570263 98.10912 
L 240.814916 97.882597 
L 241.059569 88.984311 
L 241.304222 87.630808 
L 241.548875 67.40459 
L 241.793529 66.756194 
L 242.038182 63.131586 
L 242.282835 62.693831 
L 242.772141 50.353441 
L 243.016794 55.396616 
L 243.261447 53.660411 
L 243.5061 57.023816 
L 243.750753 53.629633 
L 243.995406 57.12754 
L 244.240059 55.182349 
L 244.484712 57.625986 
L 244.729365 58.533418 
L 245.463324 85.702957 
L 245.95263 105.284876 
L 246.441936 91.96927 
L 246.686589 91.812698 
L 246.931242 94.551627 
L 247.175895 108.224633 
L 247.665201 87.788365 
L 247.909854 94.447311 
L 248.154507 90.392791 
L 248.39916 98.620413 
L 248.643813 94.951156 
L 248.888466 93.091009 
L 249.133119 96.29658 
L 249.377772 90.651669 
L 249.622425 88.84567 
L 249.867078 82.791851 
L 250.111731 90.245677 
L 250.356384 91.725959 
L 250.601037 99.144238 
L 250.84569 97.164052 
L 251.090343 98.290993 
L 251.334996 93.946974 
L 251.579649 104.898195 
L 251.824302 107.898681 
L 252.313608 98.170441 
L 252.802914 77.073205 
L 253.047567 81.800713 
L 253.29222 75.850815 
L 253.536873 66.792292 
L 253.781526 69.297801 
L 254.026179 67.956278 
L 254.270832 69.358097 
L 254.515485 70.023045 
L 254.760138 67.642858 
L 255.249444 53.570677 
L 255.494097 60.704581 
L 255.73875 63.329065 
L 255.983403 51.145642 
L 256.228056 52.075813 
L 256.472709 49.913636 
L 256.717362 53.537573 
L 256.962015 53.102419 
L 257.206668 55.823337 
L 257.451321 54.949127 
L 257.695974 52.873216 
L 257.940627 54.044492 
L 258.18528 59.004356 
L 258.429933 60.337446 
L 258.919239 73.907595 
L 259.163892 73.718313 
L 259.408545 75.324901 
L 259.653198 83.712052 
L 259.897851 87.949824 
L 260.142504 81.578486 
L 260.387157 83.243439 
L 260.63181 76.204275 
L 260.876463 74.027477 
L 261.121116 80.627388 
L 261.365769 78.510531 
L 261.855075 81.148769 
L 262.099728 77.685582 
L 262.344381 82.710904 
L 262.589034 76.402857 
L 262.833687 81.257381 
L 263.07834 92.328681 
L 263.322993 77.532911 
L 264.056952 82.813959 
L 264.301606 80.446224 
L 264.546259 89.761143 
L 264.790912 86.876913 
L 265.035565 79.9624 
L 265.280218 69.849409 
L 265.769524 85.698859 
L 266.014177 75.62039 
L 266.25883 72.037911 
L 266.503483 64.426804 
L 266.992789 67.083249 
L 267.237442 61.840467 
L 267.482095 63.262661 
L 267.726748 68.493975 
L 267.971401 79.928193 
L 268.216054 75.997771 
L 268.460707 82.171552 
L 268.70536 101.632919 
L 268.950013 109.303574 
L 269.194666 103.250739 
L 269.439319 100.410214 
L 269.683972 112.045103 
L 269.928625 106.808548 
L 270.173278 115.428488 
L 270.417931 105.200659 
L 270.662584 113.275217 
L 270.907237 116.156727 
L 271.15189 105.318413 
L 271.396543 116.71204 
L 271.641196 107.630226 
L 271.885849 108.394407 
L 272.130502 104.145521 
L 272.375155 88.153096 
L 272.619808 92.572189 
L 272.864461 103.095152 
L 273.353767 139.439983 
L 273.59842 140.690116 
L 273.843073 158.770157 
L 274.087726 153.271886 
L 274.332379 142.523464 
L 274.577032 144.575808 
L 274.821685 138.876 
L 275.066338 128.36553 
L 275.555644 119.183066 
L 275.800297 123.465567 
L 276.289603 118.58996 
L 276.778909 104.744893 
L 277.023562 111.470559 
L 277.512868 115.393611 
L 277.757521 105.614887 
L 278.002174 107.550384 
L 278.49148 97.926341 
L 278.980786 105.784307 
L 279.225439 100.657151 
L 279.470092 101.816092 
L 279.714745 96.495202 
L 279.959398 96.26194 
L 280.204051 102.074813 
L 280.448704 104.160694 
L 280.693357 109.796857 
L 280.93801 112.363804 
L 281.182663 110.175144 
L 281.427316 120.068942 
L 281.671969 118.772581 
L 281.916622 123.655913 
L 282.161275 124.067068 
L 282.650581 114.799874 
L 282.895234 116.283112 
L 283.139887 107.2839 
L 283.38454 106.454537 
L 283.629193 108.655177 
L 283.873846 100.252696 
L 284.118499 102.548549 
L 284.363152 95.917544 
L 284.607805 98.219426 
L 285.097111 93.580667 
L 285.341764 97.62234 
L 285.586417 89.442087 
L 285.83107 87.668877 
L 286.075723 87.493389 
L 286.320376 87.712188 
L 286.56503 99.222229 
L 286.809683 99.372141 
L 287.298989 95.15423 
L 287.543642 85.441951 
L 287.788295 84.014358 
L 288.032948 88.749276 
L 288.277601 77.548241 
L 288.522254 82.245444 
L 288.766907 81.991335 
L 289.01156 79.268052 
L 289.256213 79.492802 
L 289.500866 75.608292 
L 289.745519 69.467141 
L 289.990172 75.322655 
L 290.234825 70.568033 
L 290.479478 73.583968 
L 290.724131 73.109522 
L 290.968784 83.409036 
L 291.213437 85.180433 
L 291.947396 86.01618 
L 292.192049 78.203141 
L 292.436702 79.849414 
L 292.681355 73.421918 
L 292.926008 70.153056 
L 293.170661 75.153827 
L 293.415314 69.278845 
L 293.659967 67.946031 
L 293.90462 64.848284 
L 294.149273 66.141452 
L 294.393926 64.899909 
L 294.638579 67.235683 
L 294.883232 66.381926 
L 295.127885 69.182214 
L 295.372538 75.685573 
L 295.617191 78.727911 
L 295.861844 79.639048 
L 296.106497 78.200658 
L 296.35115 78.158293 
L 296.595803 77.4643 
L 296.840456 74.085842 
L 297.085109 76.247979 
L 297.329762 71.322243 
L 297.574415 93.954777 
L 297.819068 103.3067 
L 298.063721 102.649554 
L 298.308374 91.12308 
L 298.553027 67.584808 
L 298.79768 67.278836 
L 299.042333 70.128622 
L 299.286986 67.215466 
L 299.531639 68.064258 
L 299.776292 59.765581 
L 300.020945 59.835532 
L 300.510251 63.569618 
L 300.754904 61.238021 
L 300.999557 64.392557 
L 301.488863 60.635181 
L 301.733516 65.393074 
L 301.978169 65.692346 
L 302.222822 67.54532 
L 302.467475 64.90184 
L 302.712128 64.67311 
L 302.956781 77.602705 
L 303.201434 76.092274 
L 303.446087 78.119751 
L 303.69074 82.194882 
L 303.935393 88.629315 
L 304.180046 89.563033 
L 304.424699 92.066296 
L 304.669352 87.103042 
L 305.158658 84.349493 
L 305.403311 84.58445 
L 305.647964 89.351407 
L 305.892617 85.927313 
L 306.13727 89.60059 
L 306.381923 91.166705 
L 306.626576 87.516206 
L 306.871229 86.964913 
L 307.115882 89.03708 
L 307.360535 87.427694 
L 307.605188 88.020957 
L 307.849841 88.996647 
L 308.094494 88.9224 
L 308.339147 89.751724 
L 308.5838 90.121302 
L 308.828453 75.413138 
L 309.073107 70.93836 
L 309.31776 79.363619 
L 309.562413 81.166385 
L 309.807066 76.763371 
L 310.051719 82.933368 
L 310.296372 84.677534 
L 310.541025 97.033608 
L 310.785678 83.592091 
L 311.030331 90.942074 
L 311.274984 92.813215 
L 311.519637 90.02475 
L 311.76429 90.081735 
L 312.008943 89.812059 
L 312.253596 90.147391 
L 312.498249 89.646817 
L 312.742902 86.551985 
L 312.987555 87.539773 
L 313.232208 90.828261 
L 313.721514 84.946067 
L 313.966167 86.689996 
L 314.21082 81.157282 
L 314.455473 80.386914 
L 314.944779 93.380351 
L 315.189432 86.302605 
L 315.434085 91.282686 
L 315.678738 88.243027 
L 315.923391 94.949816 
L 316.168044 95.137127 
L 316.412697 102.019088 
L 316.65735 96.253073 
L 316.902003 99.858685 
L 317.146656 97.94644 
L 317.391309 97.042436 
L 317.635962 98.783212 
L 317.880615 95.55368 
L 318.125268 95.597109 
L 318.369921 90.841541 
L 318.614574 79.121568 
L 318.859227 78.845863 
L 319.10388 68.239432 
L 319.348533 69.638295 
L 319.593186 72.59283 
L 320.327145 92.438159 
L 320.816451 61.589116 
L 321.55041 106.403344 
L 321.795063 104.631987 
L 322.039716 95.877505 
L 322.284369 94.347606 
L 322.529022 89.702029 
L 322.773675 90.389362 
L 323.018328 89.009533 
L 323.262981 85.956081 
L 323.507634 93.202498 
L 323.752287 86.97717 
L 324.241593 90.481343 
L 324.486246 103.220158 
L 324.730899 109.019513 
L 324.975552 106.292644 
L 325.220205 105.592503 
L 325.464858 110.045015 
L 325.709511 102.278479 
L 326.198817 97.985218 
L 326.688123 86.019688 
L 326.932776 88.540093 
L 327.177429 74.607657 
L 327.422082 70.854497 
L 327.666735 77.50765 
L 327.911388 73.908934 
L 328.156041 66.276901 
L 328.400694 67.118087 
L 328.645347 65.690888 
L 329.379306 70.09012 
L 329.623959 74.630514 
L 330.113265 66.696331 
L 330.357918 66.406556 
L 330.602571 66.33897 
L 331.091877 70.238495 
L 331.33653 64.888993 
L 331.581184 66.422793 
L 332.07049 71.172922 
L 332.315143 63.839373 
L 332.559796 71.66254 
L 332.804449 65.893805 
L 333.049102 66.63903 
L 333.293755 66.934007 
L 333.538408 64.520755 
L 334.027714 75.782677 
L 334.272367 74.123398 
L 334.51702 74.638278 
L 334.761673 77.821464 
L 335.006326 78.522196 
L 335.250979 74.49077 
L 335.495632 77.064613 
L 335.740285 77.43695 
L 336.229591 70.789394 
L 336.474244 68.427137 
L 336.96355 66.96585 
L 337.208203 64.780185 
L 337.697509 97.082357 
L 337.942162 71.317041 
L 338.186815 72.227627 
L 338.431468 70.652329 
L 338.676121 66.491483 
L 338.920774 78.393092 
L 339.165427 78.596128 
L 339.41008 76.84676 
L 339.654733 81.482958 
L 339.899386 81.695925 
L 340.144039 80.198696 
L 340.388692 86.85579 
L 340.633345 87.276481 
L 340.877998 81.107429 
L 341.122651 78.722434 
L 341.611957 77.496852 
L 341.85661 71.72122 
L 342.101263 68.953208 
L 342.345916 69.374924 
L 343.079875 80.502895 
L 343.324528 78.645152 
L 343.569181 79.037942 
L 343.813834 83.559539 
L 344.058487 81.975492 
L 344.30314 82.698688 
L 344.547793 85.971609 
L 344.792446 85.512533 
L 345.037099 90.561855 
L 345.771058 75.556035 
L 346.260364 73.733091 
L 346.505017 76.222836 
L 346.74967 71.999527 
L 346.994323 77.176693 
L 347.238976 75.920963 
L 347.728282 69.448422 
L 347.972935 68.351944 
L 348.217588 68.306506 
L 348.462241 62.770718 
L 348.706894 62.201533 
L 349.1962 67.572552 
L 349.440853 66.061373 
L 349.685506 74.563873 
L 349.930159 78.283259 
L 350.174812 69.501151 
L 350.419465 68.242545 
L 350.664118 69.489447 
L 350.908771 73.756461 
L 351.153424 75.915288 
L 351.398077 75.801081 
L 351.64273 71.81659 
L 351.887383 69.802985 
L 352.132036 60.784108 
L 352.376689 62.970955 
L 352.621342 67.263427 
L 352.865995 67.25322 
L 353.110648 59.140278 
L 353.355301 55.171157 
L 353.844607 58.129476 
L 354.089261 51.105839 
L 354.333914 53.810718 
L 354.578567 52.600111 
L 354.82322 53.357435 
L 355.067873 49.722148 
L 355.312526 49.917223 
L 355.557179 45.42605 
L 355.801832 49.166283 
L 356.046485 55.623258 
L 356.291138 51.005543 
L 356.535791 58.265043 
L 356.780444 56.889549 
L 357.025097 59.382644 
L 357.26975 59.031194 
L 357.514403 57.867563 
L 357.759056 63.213084 
L 358.003709 63.502662 
L 358.737668 70.119873 
L 358.982321 70.379973 
L 359.226974 72.058759 
L 359.471627 72.90562 
L 359.71628 74.901018 
L 359.960933 84.380823 
L 360.205586 85.330581 
L 360.450239 87.178747 
L 360.694892 86.535631 
L 360.939545 87.796996 
L 361.184198 84.567543 
L 361.428851 88.102337 
L 361.673504 88.40555 
L 362.652116 79.334101 
L 362.896769 79.348249 
L 363.141422 76.150481 
L 363.386075 79.818517 
L 363.630728 78.451339 
L 363.875381 80.298953 
L 364.120034 74.933254 
L 364.364687 76.385911 
L 364.60934 76.264334 
L 364.853993 78.556049 
L 365.098646 78.07116 
L 365.343299 81.077873 
L 365.587952 85.922465 
L 365.832605 80.737851 
L 366.077258 88.100406 
L 366.321911 79.519087 
L 366.566564 84.267837 
L 366.811217 82.711377 
L 367.300523 77.439118 
L 367.545176 75.574242 
L 367.789829 76.161004 
L 368.034482 74.234571 
L 368.523788 85.677065 
L 368.768441 84.349414 
L 369.013094 81.92166 
L 369.257747 84.588903 
L 369.5024 98.192195 
L 369.747053 102.112409 
L 369.991706 103.504927 
L 370.236359 103.130699 
L 370.481012 101.145232 
L 370.725665 109.218017 
L 370.970318 113.145837 
L 371.214971 108.632162 
L 371.459624 112.28069 
L 371.704277 109.580462 
L 371.94893 109.268224 
L 372.193583 105.244285 
L 372.438236 106.624981 
L 372.682889 107.079327 
L 372.927542 111.712294 
L 373.172195 111.307326 
L 373.416848 112.269104 
L 373.661501 111.902009 
L 373.906154 116.936829 
L 374.150807 116.364295 
L 374.39546 119.301214 
L 374.640113 117.197284 
L 374.884766 112.97626 
L 375.129419 112.293971 
L 375.374072 110.88494 
L 375.618725 112.442977 
L 375.863378 109.556107 
L 376.108031 110.812073 
L 376.352684 105.238886 
L 376.597338 105.86813 
L 376.841991 105.04657 
L 377.086644 106.933041 
L 377.331297 103.357104 
L 377.57595 101.87024 
L 377.820603 99.214583 
L 378.065256 98.620059 
L 378.799215 108.988459 
L 379.043868 110.029567 
L 379.288521 107.629911 
L 379.533174 107.048076 
L 379.777827 107.446462 
L 380.02248 108.122406 
L 380.267133 109.41254 
L 380.511786 112.954348 
L 380.756439 121.515726 
L 381.001092 106.150141 
L 381.245745 104.471237 
L 381.490398 106.217018 
L 381.490398 106.217018 
" style="fill:none;stroke:#1f77b4;stroke-linecap:square;stroke-width:1.5;"/>
   </g>
   <g id="line2d_26">
    <path clip-path="url(#p9437be7deb)" d="M 56.835852 254.977638 
L 57.080505 253.53132 
L 57.569811 258.696742 
L 57.814464 248.159281 
L 58.059117 247.539431 
L 58.548423 244.130252 
L 58.793076 244.336869 
L 59.037729 245.369953 
L 59.282382 244.750103 
L 59.527035 245.473262 
L 59.771688 246.816272 
L 60.016341 246.816272 
L 60.260994 248.159281 
L 60.7503 244.026944 
L 60.994953 244.750103 
L 61.239606 242.890551 
L 61.484259 238.96483 
L 61.728912 239.894606 
L 61.973566 238.96483 
L 62.218219 240.30784 
L 62.462872 242.477317 
L 62.707525 241.340924 
L 62.952178 239.171447 
L 63.196831 240.30784 
L 63.441484 235.865577 
L 63.686137 251.671768 
L 63.93079 250.122142 
L 64.175443 253.118086 
L 64.420096 254.357787 
L 64.664749 250.638684 
L 65.154055 253.634628 
L 65.888014 240.721074 
L 66.132667 239.584681 
L 66.37732 240.514457 
L 66.621973 242.374009 
L 67.111279 243.510402 
L 67.355932 242.477317 
L 67.600585 234.522568 
L 67.845238 232.559707 
L 68.089891 234.419259 
L 68.334544 232.043165 
L 69.068503 239.274756 
L 69.313156 240.411148 
L 70.047115 240.721074 
L 70.291768 241.237616 
L 70.536421 238.34498 
L 70.781074 238.654905 
L 71.025727 242.890551 
L 71.27038 242.993859 
L 71.515033 246.299729 
L 71.759686 247.849356 
L 72.004339 248.469207 
L 72.248992 247.126197 
L 72.493645 247.642739 
L 72.738298 245.060028 
L 72.982951 250.432067 
L 73.472257 248.26259 
L 73.961563 252.18831 
L 74.450869 253.737937 
L 74.695522 256.010722 
L 74.940175 262.209229 
L 75.184828 262.519154 
L 75.674134 255.080947 
L 75.918787 258.076891 
L 76.16344 259.419901 
L 76.408093 257.250424 
L 76.652746 258.386816 
L 76.897399 260.866219 
L 77.142052 256.83719 
L 77.631358 254.461096 
L 77.876011 256.733881 
L 78.120664 255.907414 
L 78.365317 258.593433 
L 78.60997 258.283508 
L 78.854623 257.663657 
L 79.099276 253.944554 
L 79.343929 251.981693 
L 79.588582 252.911469 
L 79.833235 252.291619 
L 80.077888 252.911469 
L 80.322541 252.808161 
L 80.567194 254.461096 
L 80.811847 253.944554 
L 81.0565 252.601544 
L 81.301153 255.804106 
L 81.545806 256.733881 
L 81.790459 259.626518 
L 82.035112 259.936443 
L 82.279765 260.969527 
L 82.524418 259.006667 
L 82.769071 246.403038 
L 83.013724 246.712963 
L 83.258377 245.679879 
L 83.50303 246.506346 
L 83.747683 246.299729 
L 84.236989 239.791298 
L 84.726296 238.035054 
L 84.970949 235.65896 
L 85.215602 234.522568 
L 85.460255 232.146473 
L 85.704908 231.836548 
L 85.949561 237.208587 
L 86.194214 234.832493 
L 86.438867 234.419259 
L 86.68352 234.935801 
L 87.172826 234.419259 
L 87.417479 235.452343 
L 87.662132 234.832493 
L 87.906785 230.39023 
L 88.151438 233.902717 
L 88.640744 232.663016 
L 88.885397 232.249782 
L 89.13005 235.142418 
L 89.374703 235.245727 
L 89.619356 235.968886 
L 89.864009 235.245727 
L 90.108662 247.436122 
L 90.353315 245.886496 
L 90.597968 243.407093 
L 90.842621 242.787242 
L 91.087274 244.853411 
L 91.331927 245.369953 
L 91.57658 248.26259 
L 92.065886 237.105278 
L 92.310539 236.382119 
L 92.555192 234.625876 
L 92.799845 229.873688 
L 93.044498 227.394285 
L 93.289151 227.290977 
L 93.778457 226.671126 
L 94.02311 228.220753 
L 94.267763 230.493538 
L 94.512416 227.807519 
L 94.757069 227.290977 
L 95.246375 229.460454 
L 95.491028 229.150529 
L 95.735681 225.534734 
L 95.980334 226.877743 
L 96.224987 214.790656 
L 96.46964 213.24103 
L 96.714293 209.005384 
L 96.958946 208.385533 
L 97.203599 205.699514 
L 97.448252 204.976355 
L 97.692905 203.736653 
L 97.937558 209.005384 
L 98.182211 209.212 
L 98.426864 211.691403 
L 98.671517 210.451702 
L 98.91617 210.658319 
L 99.405476 208.488841 
L 99.650129 206.319364 
L 99.894782 210.038468 
L 100.139435 205.492897 
L 100.384088 213.86088 
L 100.628741 210.968244 
L 100.873394 194.645511 
L 101.118047 196.195137 
L 101.3627 192.785959 
L 101.607353 196.918296 
L 101.852006 194.645511 
L 102.096659 195.988521 
L 102.341312 195.265361 
L 102.585965 197.021605 
L 102.830618 196.918296 
L 103.075271 197.33153 
L 103.319924 194.128969 
L 103.564577 200.120858 
L 103.80923 197.434839 
L 104.298536 206.009439 
L 104.543189 205.492897 
L 104.787842 203.426728 
L 105.277148 196.505063 
L 105.521801 196.918296 
L 105.766454 196.505063 
L 106.011107 203.736653 
L 106.25576 201.670485 
L 106.500413 193.715735 
L 106.745066 199.294391 
L 106.98972 202.187027 
L 107.234373 198.777848 
L 107.723679 216.133666 
L 107.968332 217.373367 
L 108.212985 214.687348 
L 108.946944 219.336227 
L 109.191597 213.447646 
L 109.43625 216.340283 
L 109.680903 214.067497 
L 109.925556 216.856825 
L 110.170209 212.311254 
L 110.414862 213.964189 
L 110.659515 208.488841 
L 110.904168 206.835906 
L 111.393474 229.150529 
L 111.638127 223.985107 
L 111.88278 226.051276 
L 112.127433 226.257893 
L 112.616739 220.782545 
L 112.861392 227.187669 
L 113.106045 221.81563 
L 113.595351 226.671126 
L 113.840004 224.604958 
L 114.084657 224.914883 
L 114.32931 221.918938 
L 114.573963 220.782545 
L 114.818616 210.348393 
L 115.063269 208.282225 
L 115.307922 210.141776 
L 115.552575 213.447646 
L 115.797228 206.835906 
L 116.286534 204.873046 
L 116.531187 204.769738 
L 116.77584 200.844017 
L 117.020493 203.736653 
L 117.509799 195.678595 
L 117.754452 195.36867 
L 117.999105 201.153942 
L 118.243758 198.881157 
L 118.488411 194.335586 
L 118.733064 191.959491 
L 118.977717 193.715735 
L 119.22237 192.785959 
L 119.467023 198.984465 
L 119.711676 184.10805 
L 119.956329 189.686706 
L 120.200982 192.579342 
L 120.445635 190.513173 
L 120.934941 199.914241 
L 121.424247 205.182971 
L 121.6689 204.253195 
L 121.913553 206.62929 
L 122.158206 200.6374 
L 122.402859 198.364615 
L 122.647512 204.666429 
L 122.892165 204.769738 
L 123.136818 206.319364 
L 123.381471 204.769738 
L 123.626124 205.079663 
L 124.11543 202.910186 
L 124.360083 204.356504 
L 124.849389 200.534092 
L 125.094042 201.257251 
L 125.338695 198.67454 
L 125.583348 198.881157 
L 126.072654 192.785959 
L 126.317307 191.546258 
L 126.56196 183.798125 
L 126.806613 181.628648 
L 127.295919 191.856183 
L 127.540572 190.823099 
L 127.785225 190.306556 
L 128.274531 193.40581 
L 128.519184 197.33153 
L 128.763837 203.220111 
L 129.253143 206.422673 
L 129.497797 203.116803 
L 129.987103 204.873046 
L 130.231756 205.699514 
L 130.476409 199.604316 
L 130.721062 203.220111 
L 131.210368 206.216056 
L 131.699674 188.343696 
L 131.944327 186.690761 
L 132.18898 186.277527 
L 132.433633 178.322778 
L 132.678286 179.872404 
L 132.922939 178.426086 
L 133.167592 176.049992 
L 133.412245 175.120216 
L 133.656898 171.711038 
L 133.901551 172.330888 
L 134.146204 174.293749 
L 134.390857 174.913599 
L 134.63551 174.706982 
L 134.880163 176.463226 
L 135.124816 176.463226 
L 135.369469 190.409865 
L 135.614122 184.314667 
L 135.858775 187.517229 
L 136.103428 186.897378 
L 136.592734 169.025018 
L 137.08204 171.091187 
L 137.571346 175.946684 
L 137.815999 172.22758 
L 138.060652 171.814346 
L 138.305305 174.706982 
L 138.549958 171.814346 
L 138.794611 170.88457 
L 139.039264 175.53345 
L 139.283917 176.463226 
L 139.773223 167.888626 
L 140.017876 166.545616 
L 140.262529 159.417334 
L 140.507182 163.549671 
L 140.751835 170.058103 
L 140.996488 169.851486 
L 141.485794 172.22758 
L 141.730447 172.22758 
L 141.9751 171.091187 
L 142.219753 164.066213 
L 142.464406 166.235691 
L 142.709059 163.756288 
L 143.198365 163.239746 
L 143.443018 161.276886 
L 143.687671 161.276886 
L 144.176977 157.247857 
L 144.42163 162.30997 
L 144.666283 162.929821 
L 144.910936 165.202606 
L 145.155589 162.30997 
L 145.400242 162.206662 
L 145.889548 152.082435 
L 146.134201 158.280941 
L 146.378854 156.214772 
L 146.623507 153.115519 
L 146.86816 153.115519 
L 147.112813 157.764399 
L 147.357466 166.029074 
L 147.846772 166.029074 
L 148.091425 174.293749 
L 148.336078 174.706982 
L 148.580731 173.467281 
L 148.825384 181.112106 
L 149.070037 181.731956 
L 149.31469 183.4882 
L 149.559343 190.513173 
L 149.803996 191.236332 
L 150.048649 190.409865 
L 150.293302 184.10805 
L 150.782608 179.769096 
L 151.027261 178.116161 
L 151.271914 178.83932 
L 151.516567 170.574645 
L 152.005874 168.715093 
L 152.250527 167.991934 
L 152.49518 165.719148 
L 152.739833 167.5787 
L 152.984486 166.545616 
L 153.229139 171.194496 
L 153.473792 171.504421 
L 153.718445 172.22758 
L 153.963098 170.368028 
L 154.207751 172.744122 
L 154.452404 167.475392 
L 154.697057 167.268775 
L 154.94171 161.586811 
L 155.186363 159.520642 
L 155.431016 159.520642 
L 155.920322 161.380194 
L 156.409628 168.095243 
L 156.654281 168.095243 
L 156.898934 166.545616 
L 157.143587 169.128327 
L 157.38824 167.991934 
L 157.632893 169.334944 
L 157.877546 172.330888 
L 158.122199 167.682009 
L 158.366852 168.92171 
L 158.611505 168.508476 
L 159.590117 161.173577 
L 159.83477 162.723204 
L 160.324076 168.301859 
L 160.813382 160.863652 
L 161.058035 163.343054 
L 161.302688 167.475392 
L 161.547341 166.029074 
L 161.791994 167.991934 
L 162.036647 162.723204 
L 162.2813 163.962905 
L 162.525953 162.619895 
L 162.770606 160.037184 
L 163.015259 159.210717 
L 163.259912 157.247857 
L 163.504565 156.834623 
L 163.749218 150.636117 
L 163.993871 154.148604 
L 164.238524 153.632061 
L 164.483177 153.838678 
L 164.72783 155.388305 
L 164.972483 154.045295 
L 165.217136 158.074324 
L 165.461789 128.321494 
L 165.706442 131.524056 
L 165.951095 129.767812 
L 166.195748 133.590225 
L 166.440401 130.904205 
L 166.929707 137.20602 
L 167.17436 134.416692 
L 167.419013 135.759702 
L 167.663666 135.346468 
L 167.908319 133.176991 
L 168.152972 136.689478 
L 168.397625 137.20602 
L 168.642278 135.24316 
L 168.886931 135.553085 
L 169.131584 134.726617 
L 169.865543 130.181046 
L 170.110196 127.701644 
L 170.354849 126.978485 
L 170.599502 126.978485 
L 170.844155 128.63142 
L 171.088808 131.93729 
L 171.333461 133.486916 
L 171.578114 136.482861 
L 171.822767 135.036543 
L 172.06742 137.102711 
L 172.312073 135.86301 
L 172.556726 133.90015 
L 172.801379 134.52 
L 173.046032 134.623309 
L 173.290685 137.309328 
L 173.535338 138.239104 
L 173.779991 138.54903 
L 174.024644 133.176991 
L 174.269298 136.586169 
L 174.758604 130.697588 
L 175.24791 129.664504 
L 175.492563 129.871121 
L 175.737216 128.528111 
L 175.981869 129.25127 
L 176.226522 129.457887 
L 176.471175 125.015624 
L 176.715828 123.569306 
L 176.960481 128.321494 
L 177.205134 127.908261 
L 177.449787 129.457887 
L 177.69444 124.395774 
L 177.939093 126.565251 
L 178.183746 124.085848 
L 178.428399 126.358634 
L 178.673052 126.152017 
L 178.917705 127.495027 
L 179.162358 127.081793 
L 179.407011 129.25127 
L 179.896317 149.809649 
L 180.14097 146.607088 
L 180.385623 145.367386 
L 181.119582 159.623951 
L 181.608888 152.495669 
L 181.853541 153.425444 
L 182.098194 152.082435 
L 182.342847 153.115519 
L 182.5875 152.289052 
L 182.832153 149.603032 
L 183.076806 148.260023 
L 183.321459 147.950097 
L 183.566112 148.363331 
L 183.810765 151.565893 
L 184.055418 148.466639 
L 184.300071 149.293107 
L 184.544724 147.536864 
L 184.789377 147.020321 
L 185.03403 148.053406 
L 185.278683 152.702285 
L 185.523336 151.875818 
L 185.767989 155.181688 
L 186.012642 153.218828 
L 186.257295 157.04124 
L 186.501948 154.871763 
L 186.746601 154.251912 
L 186.991254 152.598977 
L 187.235907 157.04124 
L 187.725213 154.768454 
L 187.969866 156.008155 
L 188.214519 151.979126 
L 188.459172 153.425444 
L 188.948478 164.169522 
L 189.193131 157.557782 
L 189.682437 166.029074 
L 189.92709 168.611785 
L 190.171743 167.888626 
L 190.416396 173.260664 
L 190.661049 172.330888 
L 190.905702 168.095243 
L 191.150355 166.338999 
L 191.395008 171.504421 
L 191.639661 166.648924 
L 191.884314 174.293749 
L 192.128967 175.946684 
L 192.37362 181.215414 
L 192.862926 184.417976 
L 193.107579 190.306556 
L 193.596885 181.628648 
L 193.841538 178.632703 
L 194.086191 171.814346 
L 194.575497 166.855541 
L 194.82015 163.136438 
L 195.064803 157.351165 
L 195.309456 161.070269 
L 195.554109 158.694175 
L 195.798762 157.66109 
L 196.043415 156.111464 
L 196.288068 160.037184 
L 196.532721 138.135796 
L 196.777375 131.007514 
L 197.022028 131.833981 
L 197.266681 130.387663 
L 197.511334 131.730673 
L 197.755987 130.181046 
L 198.00064 126.978485 
L 198.245293 127.701644 
L 198.489946 125.532166 
L 198.979252 117.990651 
L 199.223905 119.746894 
L 199.468558 119.023735 
L 199.713211 119.127043 
L 199.957864 121.503137 
L 200.44717 116.957566 
L 200.691823 119.230352 
L 200.936476 120.160128 
L 201.425782 125.118933 
L 201.670435 124.189157 
L 201.915088 126.875176 
L 202.159741 123.569306 
L 202.404394 128.218186 
L 202.649047 128.011569 
L 203.138353 143.094601 
L 203.383006 149.809649 
L 203.627659 150.016266 
L 204.361618 134.52 
L 205.095577 131.833981 
L 205.829536 146.607088 
L 206.074189 141.8549 
L 206.318842 147.536864 
L 206.563495 150.119574 
L 206.808148 138.445721 
L 207.052801 133.590225 
L 207.78676 143.611143 
L 208.031413 144.334302 
L 208.276066 144.43761 
L 208.520719 140.305273 
L 208.765372 139.478805 
L 209.010025 138.135796 
L 209.254678 133.590225 
L 209.743984 144.024377 
L 210.23329 153.528753 
L 210.477943 152.702285 
L 210.722596 157.867707 
L 211.211902 149.396415 
L 211.456555 149.809649 
L 211.701208 147.330247 
L 212.190514 153.012211 
L 212.435167 151.979126 
L 212.67982 142.371442 
L 212.924473 139.892039 
L 213.169126 141.958208 
L 213.413779 138.135796 
L 213.658432 140.305273 
L 213.903085 139.788731 
L 214.147738 139.995348 
L 214.637044 139.582114 
L 214.881697 143.197909 
L 215.12635 142.578059 
L 215.371003 140.305273 
L 215.615656 140.821815 
L 216.104962 145.470695 
L 216.349615 144.747536 
L 216.594268 158.074324 
L 216.838921 156.008155 
L 217.083574 165.512532 
L 217.328227 167.165467 
L 217.57288 160.34711 
L 217.817533 165.409223 
L 218.062186 163.343054 
L 218.306839 166.95885 
L 218.551492 160.140493 
L 218.796145 163.859597 
L 219.040798 163.033129 
L 219.285452 157.247857 
L 219.530105 160.243801 
L 219.774758 152.082435 
L 220.019411 159.520642 
L 220.264064 154.665146 
L 220.508717 144.850844 
L 220.75337 149.08649 
L 220.998023 146.917013 
L 221.487329 139.685422 
L 221.731982 139.685422 
L 221.976635 135.656393 
L 222.221288 135.759702 
L 222.465941 135.553085 
L 222.710594 137.102711 
L 222.955247 134.829926 
L 223.1999 134.003458 
L 223.689206 139.995348 
L 223.933859 139.788731 
L 224.178512 144.644227 
L 224.423165 141.441666 
L 224.667818 141.648283 
L 224.912471 141.544974 
L 225.157124 141.751591 
L 225.401777 141.751591 
L 225.64643 122.122988 
L 225.891083 125.532166 
L 226.135736 122.63953 
L 226.380389 122.949456 
L 226.625042 126.048709 
L 226.869695 124.705699 
L 227.359001 114.478164 
L 227.603654 115.614557 
L 227.848307 115.821173 
L 228.09296 115.821173 
L 228.337613 108.176349 
L 228.582266 104.044012 
L 228.826919 108.692891 
L 229.071572 106.11018 
L 229.316225 101.874534 
L 229.560878 105.49033 
L 229.805531 106.936648 
L 230.050184 109.312742 
L 230.294837 107.246573 
L 230.53949 103.837395 
L 230.784143 92.26685 
L 231.028796 101.564609 
L 231.273449 100.428216 
L 231.518102 98.052122 
L 232.007408 108.486274 
L 232.252061 108.176349 
L 232.741367 104.870479 
L 232.98602 104.973787 
L 233.230673 103.837395 
L 233.475326 107.556498 
L 233.719979 101.048067 
L 234.209285 99.911674 
L 234.453938 97.948814 
L 234.698591 97.845505 
L 234.943244 97.432272 
L 235.43255 97.53558 
L 235.677203 97.225655 
L 235.921856 100.014983 
L 236.166509 96.915729 
L 236.411162 92.060233 
L 236.655815 92.680083 
L 236.900468 95.676028 
L 237.145121 90.303989 
L 237.389774 94.126402 
L 237.634427 95.779337 
L 238.123733 92.163541 
L 238.368386 89.270905 
L 238.613039 94.849561 
L 238.857692 88.341129 
L 239.346998 89.994064 
L 239.836304 85.448493 
L 240.32561 87.721279 
L 240.570263 87.721279 
L 240.814916 79.766529 
L 241.059569 76.667276 
L 241.304222 54.249345 
L 241.548875 55.695663 
L 241.793529 51.976559 
L 242.038182 50.840166 
L 242.527488 38.339846 
L 242.772141 45.571436 
L 243.016794 42.472183 
L 243.261447 45.674745 
L 243.5061 41.232482 
L 243.750753 46.604521 
L 243.995406 41.749024 
L 244.240059 44.64166 
L 244.484712 45.158202 
L 245.218671 75.634191 
L 245.463324 88.444438 
L 245.707977 95.159486 
L 246.197283 80.179763 
L 246.441936 79.766529 
L 246.686589 84.3121 
L 246.931242 98.258739 
L 247.420548 75.220958 
L 247.665201 82.142623 
L 247.909854 78.423519 
L 248.154507 88.134512 
L 248.643813 81.00623 
L 248.888466 85.138568 
L 249.133119 77.803669 
L 249.377772 77.287126 
L 249.622425 70.262153 
L 249.867078 79.249987 
L 250.111731 79.249987 
L 250.356384 88.134512 
L 250.601037 85.138568 
L 250.84569 86.688194 
L 251.090343 79.766529 
L 251.334996 93.506551 
L 251.579649 100.324908 
L 251.824302 89.374214 
L 252.068955 85.861727 
L 252.313608 71.915088 
L 252.558261 64.373572 
L 252.802914 68.402601 
L 253.047567 63.960338 
L 253.29222 53.93942 
L 253.536873 57.038673 
L 253.781526 56.522131 
L 254.026179 58.691608 
L 254.270832 59.724692 
L 254.515485 57.24529 
L 255.004791 42.368875 
L 255.249444 49.393848 
L 255.494097 52.389793 
L 255.73875 36.996836 
L 255.983403 41.232482 
L 256.228056 38.443154 
L 256.962015 43.815193 
L 257.206668 45.054894 
L 257.451321 42.162258 
L 257.695974 42.575492 
L 257.940627 47.94753 
L 258.18528 47.94753 
L 258.429933 58.278374 
L 258.674586 63.340487 
L 258.919239 61.274319 
L 259.163892 62.51402 
L 259.408545 71.08862 
L 259.653198 74.911032 
L 259.897851 66.749666 
L 260.142504 69.229068 
L 260.387157 62.410711 
L 260.63181 61.377627 
L 260.876463 67.886059 
L 261.121116 66.543049 
L 261.365769 67.576133 
L 261.610422 68.092675 
L 261.855075 63.030562 
L 262.099728 70.882003 
L 262.344381 64.063646 
L 262.589034 68.815835 
L 262.833687 81.729389 
L 263.07834 62.204095 
L 263.322993 67.059591 
L 263.567646 67.369516 
L 263.812299 70.985312 
L 264.056952 67.576133 
L 264.301606 80.489688 
L 264.790912 67.1629 
L 265.035565 58.691608 
L 265.280218 63.650413 
L 265.524871 74.601107 
L 265.769524 62.823945 
L 266.014177 60.034617 
L 266.25883 51.046783 
L 266.748136 56.315514 
L 266.992789 49.29054 
L 267.237442 51.769942 
L 267.482095 58.691608 
L 267.726748 69.538994 
L 267.971401 65.81989 
L 268.216054 67.472825 
L 268.460707 92.26685 
L 268.70536 98.465356 
L 269.194666 86.791503 
L 269.439319 102.597693 
L 269.683972 94.642944 
L 269.928625 105.49033 
L 270.173278 93.609859 
L 270.417931 101.771226 
L 270.662584 105.283713 
L 270.907237 92.163541 
L 271.15189 106.626722 
L 271.396543 94.746252 
L 271.641196 97.122346 
L 271.885849 92.680083 
L 272.130502 76.667276 
L 272.375155 80.489688 
L 272.619808 88.547746 
L 272.864461 116.647641 
L 273.109114 129.147962 
L 273.353767 132.453832 
L 273.59842 146.503779 
L 274.087726 129.147962 
L 274.332379 132.660449 
L 274.577032 128.321494 
L 275.066338 110.655752 
L 275.310991 109.106125 
L 275.800297 111.792144 
L 276.04495 107.969732 
L 276.534256 92.370158 
L 276.778909 101.564609 
L 277.023562 101.461301 
L 277.268215 103.217544 
L 277.512868 94.952869 
L 277.757521 96.089262 
L 278.002174 89.270905 
L 278.246827 86.688194 
L 278.736133 94.436327 
L 278.980786 88.547746 
L 279.225439 91.440382 
L 279.470092 84.3121 
L 279.714745 85.551801 
L 279.959398 91.750308 
L 280.204051 90.92384 
L 280.448704 100.634833 
L 280.93801 101.564609 
L 281.182663 109.622667 
L 281.427316 109.312742 
L 281.671969 113.755005 
L 281.916622 114.478164 
L 282.161275 107.659807 
L 282.405928 103.940703 
L 282.650581 107.45319 
L 282.895234 95.882645 
L 283.139887 96.089262 
L 283.38454 98.052122 
L 283.629193 89.270905 
L 283.873846 92.990009 
L 284.118499 84.725334 
L 284.363152 86.378269 
L 284.852458 80.799613 
L 285.097111 86.378269 
L 285.341764 77.493743 
L 285.586417 75.117649 
L 285.83107 75.014341 
L 286.075723 75.944117 
L 286.320376 89.064288 
L 286.56503 86.068344 
L 286.809683 85.345184 
L 287.054336 82.865782 
L 287.298989 68.609218 
L 287.788295 78.113594 
L 288.032948 64.166955 
L 288.277601 70.778695 
L 288.522254 70.778695 
L 288.766907 68.195984 
L 289.01156 68.092675 
L 289.256213 64.47688 
L 289.500866 56.625439 
L 289.745519 63.237179 
L 289.990172 58.588299 
L 290.234825 63.650413 
L 290.479478 61.997478 
L 290.724131 75.117649 
L 290.968784 75.220958 
L 291.213437 74.911032 
L 291.45809 73.981256 
L 291.702743 75.7375 
L 291.947396 65.81989 
L 292.192049 65.096731 
L 292.436702 63.753721 
L 292.681355 59.311458 
L 292.926008 62.307403 
L 293.415314 56.315514 
L 293.659967 54.55927 
L 293.90462 55.798971 
L 294.149273 53.629494 
L 294.393926 56.522131 
L 294.638579 54.765887 
L 294.883232 56.832056 
L 295.127885 65.613273 
L 295.617191 69.12576 
L 295.861844 64.993422 
L 296.106497 66.956283 
L 296.595803 62.410711 
L 296.840456 65.509965 
L 297.085109 58.588299 
L 297.329762 85.241876 
L 297.574415 94.436327 
L 297.819068 89.58083 
L 298.063721 78.010285 
L 298.308374 51.769942 
L 298.553027 55.90228 
L 298.79768 58.071757 
L 299.042333 54.972504 
L 299.286986 55.282429 
L 299.531639 45.674745 
L 299.776292 48.257456 
L 300.265598 50.840166 
L 300.510251 50.013699 
L 300.754904 53.009644 
L 300.999557 52.699718 
L 301.24421 51.046783 
L 301.488863 55.282429 
L 301.733516 55.179121 
L 301.978169 55.695663 
L 302.222822 49.187231 
L 302.467475 54.455962 
L 302.712128 67.989367 
L 302.956781 65.509965 
L 303.201434 67.576133 
L 303.69074 77.390435 
L 303.935393 76.667276 
L 304.180046 82.865782 
L 304.424699 74.911032 
L 304.914005 72.328321 
L 305.158658 72.844864 
L 305.403311 76.254042 
L 305.647964 75.944117 
L 306.13727 80.799613 
L 306.626576 75.324266 
L 306.871229 77.183818 
L 307.115882 75.634191 
L 307.360535 75.530883 
L 307.605188 77.70036 
L 307.849841 76.873893 
L 308.339147 77.287126 
L 308.5838 59.724692 
L 308.828453 56.832056 
L 309.073107 67.886059 
L 309.562413 63.030562 
L 309.807066 71.501854 
L 310.051719 71.08862 
L 310.296372 87.101428 
L 310.541025 72.018396 
L 310.785678 80.902922 
L 311.030331 82.452548 
L 311.274984 77.493743 
L 311.519637 78.630136 
L 312.008943 79.353295 
L 312.253596 78.423519 
L 312.498249 73.877948 
L 312.742902 76.047425 
L 312.987555 80.592996 
L 313.476861 73.568023 
L 313.721514 76.254042 
L 313.966167 68.402601 
L 314.21082 69.642302 
L 314.455473 76.047425 
L 314.700126 77.390435 
L 314.944779 77.597052 
L 315.189432 80.902922 
L 315.434085 77.287126 
L 315.678738 84.622025 
L 315.923391 83.795558 
L 316.168044 89.374214 
L 316.412697 87.514662 
L 316.65735 88.134512 
L 316.902003 86.791503 
L 317.146656 86.688194 
L 317.391309 87.101428 
L 317.635962 85.861727 
L 317.880615 81.729389 
L 318.125268 80.179763 
L 318.369921 64.063646 
L 318.614574 68.402601 
L 318.859227 54.972504 
L 319.10388 57.658523 
L 320.082492 81.729389 
L 320.571798 46.604521 
L 321.061104 88.857671 
L 321.305757 96.399187 
L 321.55041 94.023093 
L 321.795063 84.208792 
L 322.039716 82.34924 
L 322.284369 77.803669 
L 322.529022 78.526828 
L 322.773675 77.906977 
L 323.018328 73.568023 
L 323.262981 82.865782 
L 323.507634 74.807724 
L 323.752287 78.526828 
L 323.99694 79.146678 
L 324.241593 95.882645 
L 324.486246 100.014983 
L 324.730899 96.605804 
L 324.975552 98.052122 
L 325.220205 101.977843 
L 325.464858 88.651054 
L 325.709511 94.952869 
L 326.44347 76.873893 
L 326.688123 79.456604 
L 326.932776 60.034617 
L 327.177429 63.547104 
L 327.422082 61.274319 
L 327.666735 64.063646 
L 327.911388 58.381682 
L 328.156041 57.24529 
L 328.645347 56.625439 
L 328.89 59.931309 
L 329.134653 58.691608 
L 329.379306 63.960338 
L 329.623959 58.588299 
L 329.868612 59.104841 
L 330.113265 57.038673 
L 330.357918 56.418822 
L 330.847224 65.613273 
L 331.091877 56.315514 
L 331.33653 58.175066 
L 331.581184 61.17101 
L 331.825837 58.071757 
L 332.07049 56.728747 
L 332.315143 61.274319 
L 332.559796 54.972504 
L 332.804449 58.484991 
L 333.049102 57.761832 
L 333.293755 56.108897 
L 333.783061 65.303348 
L 334.027714 62.927254 
L 334.272367 64.47688 
L 334.51702 68.505909 
L 334.761673 67.266208 
L 335.006326 63.650413 
L 335.250979 67.266208 
L 335.495632 68.092675 
L 335.740285 62.51402 
L 336.229591 57.141981 
L 336.474244 56.728747 
L 336.718897 57.141981 
L 336.96355 53.216261 
L 337.208203 75.634191 
L 337.452856 82.865782 
L 337.697509 57.348598 
L 337.942162 60.654468 
L 338.186815 58.175066 
L 338.431468 53.112952 
L 338.676121 69.74561 
L 339.165427 66.956283 
L 339.41008 69.642302 
L 339.654733 70.158844 
L 339.899386 70.985312 
L 340.144039 75.324266 
L 340.388692 76.254042 
L 340.633345 69.435685 
L 340.877998 68.919143 
L 341.122651 65.200039 
L 341.367304 68.815835 
L 341.611957 61.687552 
L 341.85661 58.278374 
L 342.101263 59.621384 
L 342.590569 66.336432 
L 342.835222 67.369516 
L 343.079875 67.1629 
L 343.569181 72.225013 
L 343.813834 70.46877 
L 344.058487 69.952227 
L 344.30314 74.807724 
L 344.547793 76.873893 
L 344.792446 77.183818 
L 345.526405 66.233124 
L 345.771058 65.509965 
L 346.015711 63.237179 
L 346.260364 66.749666 
L 346.505017 63.340487 
L 346.74967 66.956283 
L 346.994323 65.923198 
L 347.238976 59.724692 
L 347.483629 60.964393 
L 347.728282 57.24529 
L 347.972935 57.658523 
L 348.217588 53.009644 
L 348.462241 51.769942 
L 348.706894 55.798971 
L 348.951547 57.038673 
L 349.1962 56.728747 
L 349.440853 66.749666 
L 349.685506 70.055536 
L 349.930159 56.728747 
L 350.174812 56.522131 
L 351.153424 64.786805 
L 351.398077 60.55116 
L 351.64273 58.381682 
L 351.887383 48.670689 
L 352.132036 51.769942 
L 352.376689 58.484991 
L 352.621342 57.038673 
L 352.865995 49.497157 
L 353.110648 45.571436 
L 353.355301 46.191287 
L 353.599954 45.571436 
L 353.844607 41.232482 
L 354.333914 42.988725 
L 354.578567 40.612631 
L 355.067873 34.414125 
L 355.557179 38.339846 
L 355.801832 38.856388 
L 356.046485 42.6788 
L 356.291138 50.63355 
L 356.535791 53.216261 
L 356.780444 50.426933 
L 357.025097 49.497157 
L 357.26975 47.94753 
L 357.514403 55.075812 
L 357.759056 52.079868 
L 358.003709 56.728747 
L 358.248362 57.24529 
L 358.493015 58.588299 
L 358.737668 58.071757 
L 358.982321 58.071757 
L 359.226974 67.679442 
L 359.471627 66.956283 
L 359.71628 76.460659 
L 359.960933 75.7375 
L 360.205586 75.634191 
L 360.694892 77.080509 
L 360.939545 75.427575 
L 361.184198 77.183818 
L 361.428851 77.803669 
L 361.673504 75.220958 
L 361.918157 74.704415 
L 362.16281 71.295237 
L 362.407463 70.572078 
L 362.652116 69.435685 
L 362.896769 65.923198 
L 363.141422 69.332377 
L 363.386075 67.059591 
L 363.630728 69.952227 
L 363.875381 64.890114 
L 364.120034 65.096731 
L 364.364687 64.890114 
L 364.60934 68.092675 
L 364.853993 67.1629 
L 365.098646 71.295237 
L 365.343299 66.336432 
L 365.587952 73.464714 
L 365.832605 72.741555 
L 366.077258 67.472825 
L 366.321911 71.08862 
L 366.811217 74.911032 
L 367.05587 71.605162 
L 367.545176 68.815835 
L 367.789829 65.406656 
L 368.279135 78.320211 
L 368.523788 76.563967 
L 368.768441 73.154789 
L 369.013094 76.667276 
L 369.257747 89.270905 
L 369.5024 93.403243 
L 369.747053 95.262794 
L 369.991706 89.167597 
L 370.236359 91.853616 
L 370.481012 101.874534 
L 370.725665 99.601749 
L 371.214971 102.597693 
L 371.459624 98.775281 
L 371.704277 102.18446 
L 371.94893 96.399187 
L 372.193583 98.568664 
L 372.438236 97.122346 
L 372.682889 101.667918 
L 372.927542 99.808366 
L 373.661501 104.457245 
L 374.150807 108.176349 
L 374.39546 103.527469 
L 374.640113 102.18446 
L 375.129419 103.320853 
L 375.374072 101.874534 
L 375.618725 97.328963 
L 375.863378 98.981898 
L 376.352684 97.328963 
L 376.597338 97.019038 
L 376.841991 100.324908 
L 377.086644 93.713168 
L 377.331297 91.027148 
L 377.57595 89.994064 
L 378.065256 92.680083 
L 378.554562 100.324908 
L 378.799215 101.151375 
L 379.043868 98.155431 
L 379.288521 97.948814 
L 379.533174 97.432272 
L 379.777827 97.53558 
L 380.267133 101.667918 
L 380.511786 115.924482 
L 380.756439 93.919785 
L 381.490398 98.671973 
L 381.490398 98.671973 
" style="fill:none;stroke:#ff7f0e;stroke-linecap:square;stroke-width:1.5;"/>
   </g>
   <g id="patch_3">
    <path d="M 40.603125 288.430125 
L 40.603125 22.318125 
" style="fill:none;stroke:#000000;stroke-linecap:square;stroke-linejoin:miter;stroke-width:0.8;"/>
   </g>
   <g id="patch_4">
    <path d="M 397.723125 288.430125 
L 397.723125 22.318125 
" style="fill:none;stroke:#000000;stroke-linecap:square;stroke-linejoin:miter;stroke-width:0.8;"/>
   </g>
   <g id="patch_5">
    <path d="M 40.603125 288.430125 
L 397.723125 288.430125 
" style="fill:none;stroke:#000000;stroke-linecap:square;stroke-linejoin:miter;stroke-width:0.8;"/>
   </g>
   <g id="patch_6">
    <path d="M 40.603125 22.318125 
L 397.723125 22.318125 
" style="fill:none;stroke:#000000;stroke-linecap:square;stroke-linejoin:miter;stroke-width:0.8;"/>
   </g>
   <g id="text_15">
    <!-- Training: MDLZ -->
    <defs>
     <path d="M -0.296875 72.90625 
L 61.375 72.90625 
L 61.375 64.59375 
L 35.5 64.59375 
L 35.5 0 
L 25.59375 0 
L 25.59375 64.59375 
L -0.296875 64.59375 
z
" id="DejaVuSans-84"/>
     <path d="M 54.890625 33.015625 
L 54.890625 0 
L 45.90625 0 
L 45.90625 32.71875 
Q 45.90625 40.484375 42.875 44.328125 
Q 39.84375 48.1875 33.796875 48.1875 
Q 26.515625 48.1875 22.3125 43.546875 
Q 18.109375 38.921875 18.109375 30.90625 
L 18.109375 0 
L 9.078125 0 
L 9.078125 54.6875 
L 18.109375 54.6875 
L 18.109375 46.1875 
Q 21.34375 51.125 25.703125 53.5625 
Q 30.078125 56 35.796875 56 
Q 45.21875 56 50.046875 50.171875 
Q 54.890625 44.34375 54.890625 33.015625 
z
" id="DejaVuSans-110"/>
     <path d="M 45.40625 27.984375 
Q 45.40625 37.75 41.375 43.109375 
Q 37.359375 48.484375 30.078125 48.484375 
Q 22.859375 48.484375 18.828125 43.109375 
Q 14.796875 37.75 14.796875 27.984375 
Q 14.796875 18.265625 18.828125 12.890625 
Q 22.859375 7.515625 30.078125 7.515625 
Q 37.359375 7.515625 41.375 12.890625 
Q 45.40625 18.265625 45.40625 27.984375 
z
M 54.390625 6.78125 
Q 54.390625 -7.171875 48.1875 -13.984375 
Q 42 -20.796875 29.203125 -20.796875 
Q 24.46875 -20.796875 20.265625 -20.09375 
Q 16.0625 -19.390625 12.109375 -17.921875 
L 12.109375 -9.1875 
Q 16.0625 -11.328125 19.921875 -12.34375 
Q 23.78125 -13.375 27.78125 -13.375 
Q 36.625 -13.375 41.015625 -8.765625 
Q 45.40625 -4.15625 45.40625 5.171875 
L 45.40625 9.625 
Q 42.625 4.78125 38.28125 2.390625 
Q 33.9375 0 27.875 0 
Q 17.828125 0 11.671875 7.65625 
Q 5.515625 15.328125 5.515625 27.984375 
Q 5.515625 40.671875 11.671875 48.328125 
Q 17.828125 56 27.875 56 
Q 33.9375 56 38.28125 53.609375 
Q 42.625 51.21875 45.40625 46.390625 
L 45.40625 54.6875 
L 54.390625 54.6875 
z
" id="DejaVuSans-103"/>
     <path d="M 11.71875 12.40625 
L 22.015625 12.40625 
L 22.015625 0 
L 11.71875 0 
z
M 11.71875 51.703125 
L 22.015625 51.703125 
L 22.015625 39.3125 
L 11.71875 39.3125 
z
" id="DejaVuSans-58"/>
     <path d="M 9.8125 72.90625 
L 24.515625 72.90625 
L 43.109375 23.296875 
L 61.8125 72.90625 
L 76.515625 72.90625 
L 76.515625 0 
L 66.890625 0 
L 66.890625 64.015625 
L 48.09375 14.015625 
L 38.1875 14.015625 
L 19.390625 64.015625 
L 19.390625 0 
L 9.8125 0 
z
" id="DejaVuSans-77"/>
     <path d="M 9.8125 72.90625 
L 19.671875 72.90625 
L 19.671875 8.296875 
L 55.171875 8.296875 
L 55.171875 0 
L 9.8125 0 
z
" id="DejaVuSans-76"/>
     <path d="M 5.609375 72.90625 
L 62.890625 72.90625 
L 62.890625 65.375 
L 16.796875 8.296875 
L 64.015625 8.296875 
L 64.015625 0 
L 4.5 0 
L 4.5 7.515625 
L 50.59375 64.59375 
L 5.609375 64.59375 
z
" id="DejaVuSans-90"/>
    </defs>
    <g transform="translate(174.314063 16.318125)scale(0.12 -0.12)">
     <use xlink:href="#DejaVuSans-84"/>
     <use x="46.333984" xlink:href="#DejaVuSans-114"/>
     <use x="87.447266" xlink:href="#DejaVuSans-97"/>
     <use x="148.726562" xlink:href="#DejaVuSans-105"/>
     <use x="176.509766" xlink:href="#DejaVuSans-110"/>
     <use x="239.888672" xlink:href="#DejaVuSans-105"/>
     <use x="267.671875" xlink:href="#DejaVuSans-110"/>
     <use x="331.050781" xlink:href="#DejaVuSans-103"/>
     <use x="394.527344" xlink:href="#DejaVuSans-58"/>
     <use x="428.21875" xlink:href="#DejaVuSans-32"/>
     <use x="460.005859" xlink:href="#DejaVuSans-77"/>
     <use x="546.285156" xlink:href="#DejaVuSans-68"/>
     <use x="623.287109" xlink:href="#DejaVuSans-76"/>
     <use x="679" xlink:href="#DejaVuSans-90"/>
    </g>
   </g>
   <g id="legend_1">
    <g id="patch_7">
     <path d="M 47.603125 59.674375 
L 131.33125 59.674375 
Q 133.33125 59.674375 133.33125 57.674375 
L 133.33125 29.318125 
Q 133.33125 27.318125 131.33125 27.318125 
L 47.603125 27.318125 
Q 45.603125 27.318125 45.603125 29.318125 
L 45.603125 57.674375 
Q 45.603125 59.674375 47.603125 59.674375 
z
" style="fill:#ffffff;opacity:0.8;stroke:#cccccc;stroke-linejoin:miter;"/>
    </g>
    <g id="line2d_27">
     <path d="M 49.603125 35.416562 
L 69.603125 35.416562 
" style="fill:none;stroke:#1f77b4;stroke-linecap:square;stroke-width:1.5;"/>
    </g>
    <g id="line2d_28"/>
    <g id="text_16">
     <!-- Predicted -->
     <defs>
      <path d="M 45.40625 46.390625 
L 45.40625 75.984375 
L 54.390625 75.984375 
L 54.390625 0 
L 45.40625 0 
L 45.40625 8.203125 
Q 42.578125 3.328125 38.25 0.953125 
Q 33.9375 -1.421875 27.875 -1.421875 
Q 17.96875 -1.421875 11.734375 6.484375 
Q 5.515625 14.40625 5.515625 27.296875 
Q 5.515625 40.1875 11.734375 48.09375 
Q 17.96875 56 27.875 56 
Q 33.9375 56 38.25 53.625 
Q 42.578125 51.265625 45.40625 46.390625 
z
M 14.796875 27.296875 
Q 14.796875 17.390625 18.875 11.75 
Q 22.953125 6.109375 30.078125 6.109375 
Q 37.203125 6.109375 41.296875 11.75 
Q 45.40625 17.390625 45.40625 27.296875 
Q 45.40625 37.203125 41.296875 42.84375 
Q 37.203125 48.484375 30.078125 48.484375 
Q 22.953125 48.484375 18.875 42.84375 
Q 14.796875 37.203125 14.796875 27.296875 
z
" id="DejaVuSans-100"/>
      <path d="M 18.3125 70.21875 
L 18.3125 54.6875 
L 36.8125 54.6875 
L 36.8125 47.703125 
L 18.3125 47.703125 
L 18.3125 18.015625 
Q 18.3125 11.328125 20.140625 9.421875 
Q 21.96875 7.515625 27.59375 7.515625 
L 36.8125 7.515625 
L 36.8125 0 
L 27.59375 0 
Q 17.1875 0 13.234375 3.875 
Q 9.28125 7.765625 9.28125 18.015625 
L 9.28125 47.703125 
L 2.6875 47.703125 
L 2.6875 54.6875 
L 9.28125 54.6875 
L 9.28125 70.21875 
z
" id="DejaVuSans-116"/>
     </defs>
     <g transform="translate(77.603125 38.916562)scale(0.1 -0.1)">
      <use xlink:href="#DejaVuSans-80"/>
      <use x="58.552734" xlink:href="#DejaVuSans-114"/>
      <use x="97.416016" xlink:href="#DejaVuSans-101"/>
      <use x="158.939453" xlink:href="#DejaVuSans-100"/>
      <use x="222.416016" xlink:href="#DejaVuSans-105"/>
      <use x="250.199219" xlink:href="#DejaVuSans-99"/>
      <use x="305.179688" xlink:href="#DejaVuSans-116"/>
      <use x="344.388672" xlink:href="#DejaVuSans-101"/>
      <use x="405.912109" xlink:href="#DejaVuSans-100"/>
     </g>
    </g>
    <g id="line2d_29">
     <path d="M 49.603125 50.094687 
L 69.603125 50.094687 
" style="fill:none;stroke:#ff7f0e;stroke-linecap:square;stroke-width:1.5;"/>
    </g>
    <g id="line2d_30"/>
    <g id="text_17">
     <!-- True value -->
     <defs>
      <path d="M 8.5 21.578125 
L 8.5 54.6875 
L 17.484375 54.6875 
L 17.484375 21.921875 
Q 17.484375 14.15625 20.5 10.265625 
Q 23.53125 6.390625 29.59375 6.390625 
Q 36.859375 6.390625 41.078125 11.03125 
Q 45.3125 15.671875 45.3125 23.6875 
L 45.3125 54.6875 
L 54.296875 54.6875 
L 54.296875 0 
L 45.3125 0 
L 45.3125 8.40625 
Q 42.046875 3.421875 37.71875 1 
Q 33.40625 -1.421875 27.6875 -1.421875 
Q 18.265625 -1.421875 13.375 4.4375 
Q 8.5 10.296875 8.5 21.578125 
z
M 31.109375 56 
z
" id="DejaVuSans-117"/>
      <path d="M 2.984375 54.6875 
L 12.5 54.6875 
L 29.59375 8.796875 
L 46.6875 54.6875 
L 56.203125 54.6875 
L 35.6875 0 
L 23.484375 0 
z
" id="DejaVuSans-118"/>
      <path d="M 9.421875 75.984375 
L 18.40625 75.984375 
L 18.40625 0 
L 9.421875 0 
z
" id="DejaVuSans-108"/>
     </defs>
     <g transform="translate(77.603125 53.594687)scale(0.1 -0.1)">
      <use xlink:href="#DejaVuSans-84"/>
      <use x="46.333984" xlink:href="#DejaVuSans-114"/>
      <use x="87.447266" xlink:href="#DejaVuSans-117"/>
      <use x="150.826172" xlink:href="#DejaVuSans-101"/>
      <use x="212.349609" xlink:href="#DejaVuSans-32"/>
      <use x="244.136719" xlink:href="#DejaVuSans-118"/>
      <use x="303.316406" xlink:href="#DejaVuSans-97"/>
      <use x="364.595703" xlink:href="#DejaVuSans-108"/>
      <use x="392.378906" xlink:href="#DejaVuSans-117"/>
      <use x="455.757812" xlink:href="#DejaVuSans-101"/>
     </g>
    </g>
   </g>
  </g>
 </g>
 <defs>
  <clipPath id="p9437be7deb">
   <rect height="266.112" width="357.12" x="40.603125" y="22.318125"/>
  </clipPath>
 </defs>
</svg>
