<?xml version="1.0" encoding="utf-8" standalone="no"?>
<!DOCTYPE svg PUBLIC "-//W3C//DTD SVG 1.1//EN"
  "http://www.w3.org/Graphics/SVG/1.1/DTD/svg11.dtd">
<!-- Created with matplotlib (https://matplotlib.org/) -->
<svg height="325.986375pt" version="1.1" viewBox="0 0 411.285625 325.986375" width="411.285625pt" xmlns="http://www.w3.org/2000/svg" xmlns:xlink="http://www.w3.org/1999/xlink">
 <defs>
  <style type="text/css">
*{stroke-linecap:butt;stroke-linejoin:round;}
  </style>
 </defs>
 <g id="figure_1">
  <g id="patch_1">
   <path d="M 0 325.986375 
L 411.285625 325.986375 
L 411.285625 0 
L 0 0 
z
" style="fill:#ffffff;"/>
  </g>
  <g id="axes_1">
   <g id="patch_2">
    <path d="M 46.965625 288.430125 
L 404.085625 288.430125 
L 404.085625 22.318125 
L 46.965625 22.318125 
z
" style="fill:#ffffff;"/>
   </g>
   <g id="matplotlib.axis_1">
    <g id="xtick_1">
     <g id="line2d_1">
      <path clip-path="url(#pf9f29eef08)" d="M 63.198352 288.430125 
L 63.198352 22.318125 
" style="fill:none;stroke:#b0b0b0;stroke-dasharray:2.96,1.28;stroke-dashoffset:0;stroke-width:0.8;"/>
     </g>
     <g id="line2d_2">
      <defs>
       <path d="M 0 0 
L 0 3.5 
" id="m51292d585c" style="stroke:#000000;stroke-width:0.8;"/>
      </defs>
      <g>
       <use style="stroke:#000000;stroke-width:0.8;" x="63.198352" xlink:href="#m51292d585c" y="288.430125"/>
      </g>
     </g>
     <g id="text_1">
      <!-- 0 -->
      <defs>
       <path d="M 31.78125 66.40625 
Q 24.171875 66.40625 20.328125 58.90625 
Q 16.5 51.421875 16.5 36.375 
Q 16.5 21.390625 20.328125 13.890625 
Q 24.171875 6.390625 31.78125 6.390625 
Q 39.453125 6.390625 43.28125 13.890625 
Q 47.125 21.390625 47.125 36.375 
Q 47.125 51.421875 43.28125 58.90625 
Q 39.453125 66.40625 31.78125 66.40625 
z
M 31.78125 74.21875 
Q 44.046875 74.21875 50.515625 64.515625 
Q 56.984375 54.828125 56.984375 36.375 
Q 56.984375 17.96875 50.515625 8.265625 
Q 44.046875 -1.421875 31.78125 -1.421875 
Q 19.53125 -1.421875 13.0625 8.265625 
Q 6.59375 17.96875 6.59375 36.375 
Q 6.59375 54.828125 13.0625 64.515625 
Q 19.53125 74.21875 31.78125 74.21875 
z
" id="DejaVuSans-48"/>
      </defs>
      <g transform="translate(60.017102 303.028562)scale(0.1 -0.1)">
       <use xlink:href="#DejaVuSans-48"/>
      </g>
     </g>
    </g>
    <g id="xtick_2">
     <g id="line2d_3">
      <path clip-path="url(#pf9f29eef08)" d="M 112.128954 288.430125 
L 112.128954 22.318125 
" style="fill:none;stroke:#b0b0b0;stroke-dasharray:2.96,1.28;stroke-dashoffset:0;stroke-width:0.8;"/>
     </g>
     <g id="line2d_4">
      <g>
       <use style="stroke:#000000;stroke-width:0.8;" x="112.128954" xlink:href="#m51292d585c" y="288.430125"/>
      </g>
     </g>
     <g id="text_2">
      <!-- 200 -->
      <defs>
       <path d="M 19.1875 8.296875 
L 53.609375 8.296875 
L 53.609375 0 
L 7.328125 0 
L 7.328125 8.296875 
Q 12.9375 14.109375 22.625 23.890625 
Q 32.328125 33.6875 34.8125 36.53125 
Q 39.546875 41.84375 41.421875 45.53125 
Q 43.3125 49.21875 43.3125 52.78125 
Q 43.3125 58.59375 39.234375 62.25 
Q 35.15625 65.921875 28.609375 65.921875 
Q 23.96875 65.921875 18.8125 64.3125 
Q 13.671875 62.703125 7.8125 59.421875 
L 7.8125 69.390625 
Q 13.765625 71.78125 18.9375 73 
Q 24.125 74.21875 28.421875 74.21875 
Q 39.75 74.21875 46.484375 68.546875 
Q 53.21875 62.890625 53.21875 53.421875 
Q 53.21875 48.921875 51.53125 44.890625 
Q 49.859375 40.875 45.40625 35.40625 
Q 44.1875 33.984375 37.640625 27.21875 
Q 31.109375 20.453125 19.1875 8.296875 
z
" id="DejaVuSans-50"/>
      </defs>
      <g transform="translate(102.585204 303.028562)scale(0.1 -0.1)">
       <use xlink:href="#DejaVuSans-50"/>
       <use x="63.623047" xlink:href="#DejaVuSans-48"/>
       <use x="127.246094" xlink:href="#DejaVuSans-48"/>
      </g>
     </g>
    </g>
    <g id="xtick_3">
     <g id="line2d_5">
      <path clip-path="url(#pf9f29eef08)" d="M 161.059557 288.430125 
L 161.059557 22.318125 
" style="fill:none;stroke:#b0b0b0;stroke-dasharray:2.96,1.28;stroke-dashoffset:0;stroke-width:0.8;"/>
     </g>
     <g id="line2d_6">
      <g>
       <use style="stroke:#000000;stroke-width:0.8;" x="161.059557" xlink:href="#m51292d585c" y="288.430125"/>
      </g>
     </g>
     <g id="text_3">
      <!-- 400 -->
      <defs>
       <path d="M 37.796875 64.3125 
L 12.890625 25.390625 
L 37.796875 25.390625 
z
M 35.203125 72.90625 
L 47.609375 72.90625 
L 47.609375 25.390625 
L 58.015625 25.390625 
L 58.015625 17.1875 
L 47.609375 17.1875 
L 47.609375 0 
L 37.796875 0 
L 37.796875 17.1875 
L 4.890625 17.1875 
L 4.890625 26.703125 
z
" id="DejaVuSans-52"/>
      </defs>
      <g transform="translate(151.515807 303.028562)scale(0.1 -0.1)">
       <use xlink:href="#DejaVuSans-52"/>
       <use x="63.623047" xlink:href="#DejaVuSans-48"/>
       <use x="127.246094" xlink:href="#DejaVuSans-48"/>
      </g>
     </g>
    </g>
    <g id="xtick_4">
     <g id="line2d_7">
      <path clip-path="url(#pf9f29eef08)" d="M 209.990159 288.430125 
L 209.990159 22.318125 
" style="fill:none;stroke:#b0b0b0;stroke-dasharray:2.96,1.28;stroke-dashoffset:0;stroke-width:0.8;"/>
     </g>
     <g id="line2d_8">
      <g>
       <use style="stroke:#000000;stroke-width:0.8;" x="209.990159" xlink:href="#m51292d585c" y="288.430125"/>
      </g>
     </g>
     <g id="text_4">
      <!-- 600 -->
      <defs>
       <path d="M 33.015625 40.375 
Q 26.375 40.375 22.484375 35.828125 
Q 18.609375 31.296875 18.609375 23.390625 
Q 18.609375 15.53125 22.484375 10.953125 
Q 26.375 6.390625 33.015625 6.390625 
Q 39.65625 6.390625 43.53125 10.953125 
Q 47.40625 15.53125 47.40625 23.390625 
Q 47.40625 31.296875 43.53125 35.828125 
Q 39.65625 40.375 33.015625 40.375 
z
M 52.59375 71.296875 
L 52.59375 62.3125 
Q 48.875 64.0625 45.09375 64.984375 
Q 41.3125 65.921875 37.59375 65.921875 
Q 27.828125 65.921875 22.671875 59.328125 
Q 17.53125 52.734375 16.796875 39.40625 
Q 19.671875 43.65625 24.015625 45.921875 
Q 28.375 48.1875 33.59375 48.1875 
Q 44.578125 48.1875 50.953125 41.515625 
Q 57.328125 34.859375 57.328125 23.390625 
Q 57.328125 12.15625 50.6875 5.359375 
Q 44.046875 -1.421875 33.015625 -1.421875 
Q 20.359375 -1.421875 13.671875 8.265625 
Q 6.984375 17.96875 6.984375 36.375 
Q 6.984375 53.65625 15.1875 63.9375 
Q 23.390625 74.21875 37.203125 74.21875 
Q 40.921875 74.21875 44.703125 73.484375 
Q 48.484375 72.75 52.59375 71.296875 
z
" id="DejaVuSans-54"/>
      </defs>
      <g transform="translate(200.446409 303.028562)scale(0.1 -0.1)">
       <use xlink:href="#DejaVuSans-54"/>
       <use x="63.623047" xlink:href="#DejaVuSans-48"/>
       <use x="127.246094" xlink:href="#DejaVuSans-48"/>
      </g>
     </g>
    </g>
    <g id="xtick_5">
     <g id="line2d_9">
      <path clip-path="url(#pf9f29eef08)" d="M 258.920761 288.430125 
L 258.920761 22.318125 
" style="fill:none;stroke:#b0b0b0;stroke-dasharray:2.96,1.28;stroke-dashoffset:0;stroke-width:0.8;"/>
     </g>
     <g id="line2d_10">
      <g>
       <use style="stroke:#000000;stroke-width:0.8;" x="258.920761" xlink:href="#m51292d585c" y="288.430125"/>
      </g>
     </g>
     <g id="text_5">
      <!-- 800 -->
      <defs>
       <path d="M 31.78125 34.625 
Q 24.75 34.625 20.71875 30.859375 
Q 16.703125 27.09375 16.703125 20.515625 
Q 16.703125 13.921875 20.71875 10.15625 
Q 24.75 6.390625 31.78125 6.390625 
Q 38.8125 6.390625 42.859375 10.171875 
Q 46.921875 13.96875 46.921875 20.515625 
Q 46.921875 27.09375 42.890625 30.859375 
Q 38.875 34.625 31.78125 34.625 
z
M 21.921875 38.8125 
Q 15.578125 40.375 12.03125 44.71875 
Q 8.5 49.078125 8.5 55.328125 
Q 8.5 64.0625 14.71875 69.140625 
Q 20.953125 74.21875 31.78125 74.21875 
Q 42.671875 74.21875 48.875 69.140625 
Q 55.078125 64.0625 55.078125 55.328125 
Q 55.078125 49.078125 51.53125 44.71875 
Q 48 40.375 41.703125 38.8125 
Q 48.828125 37.15625 52.796875 32.3125 
Q 56.78125 27.484375 56.78125 20.515625 
Q 56.78125 9.90625 50.3125 4.234375 
Q 43.84375 -1.421875 31.78125 -1.421875 
Q 19.734375 -1.421875 13.25 4.234375 
Q 6.78125 9.90625 6.78125 20.515625 
Q 6.78125 27.484375 10.78125 32.3125 
Q 14.796875 37.15625 21.921875 38.8125 
z
M 18.3125 54.390625 
Q 18.3125 48.734375 21.84375 45.5625 
Q 25.390625 42.390625 31.78125 42.390625 
Q 38.140625 42.390625 41.71875 45.5625 
Q 45.3125 48.734375 45.3125 54.390625 
Q 45.3125 60.0625 41.71875 63.234375 
Q 38.140625 66.40625 31.78125 66.40625 
Q 25.390625 66.40625 21.84375 63.234375 
Q 18.3125 60.0625 18.3125 54.390625 
z
" id="DejaVuSans-56"/>
      </defs>
      <g transform="translate(249.377011 303.028562)scale(0.1 -0.1)">
       <use xlink:href="#DejaVuSans-56"/>
       <use x="63.623047" xlink:href="#DejaVuSans-48"/>
       <use x="127.246094" xlink:href="#DejaVuSans-48"/>
      </g>
     </g>
    </g>
    <g id="xtick_6">
     <g id="line2d_11">
      <path clip-path="url(#pf9f29eef08)" d="M 307.851363 288.430125 
L 307.851363 22.318125 
" style="fill:none;stroke:#b0b0b0;stroke-dasharray:2.96,1.28;stroke-dashoffset:0;stroke-width:0.8;"/>
     </g>
     <g id="line2d_12">
      <g>
       <use style="stroke:#000000;stroke-width:0.8;" x="307.851363" xlink:href="#m51292d585c" y="288.430125"/>
      </g>
     </g>
     <g id="text_6">
      <!-- 1000 -->
      <defs>
       <path d="M 12.40625 8.296875 
L 28.515625 8.296875 
L 28.515625 63.921875 
L 10.984375 60.40625 
L 10.984375 69.390625 
L 28.421875 72.90625 
L 38.28125 72.90625 
L 38.28125 8.296875 
L 54.390625 8.296875 
L 54.390625 0 
L 12.40625 0 
z
" id="DejaVuSans-49"/>
      </defs>
      <g transform="translate(295.126363 303.028562)scale(0.1 -0.1)">
       <use xlink:href="#DejaVuSans-49"/>
       <use x="63.623047" xlink:href="#DejaVuSans-48"/>
       <use x="127.246094" xlink:href="#DejaVuSans-48"/>
       <use x="190.869141" xlink:href="#DejaVuSans-48"/>
      </g>
     </g>
    </g>
    <g id="xtick_7">
     <g id="line2d_13">
      <path clip-path="url(#pf9f29eef08)" d="M 356.781965 288.430125 
L 356.781965 22.318125 
" style="fill:none;stroke:#b0b0b0;stroke-dasharray:2.96,1.28;stroke-dashoffset:0;stroke-width:0.8;"/>
     </g>
     <g id="line2d_14">
      <g>
       <use style="stroke:#000000;stroke-width:0.8;" x="356.781965" xlink:href="#m51292d585c" y="288.430125"/>
      </g>
     </g>
     <g id="text_7">
      <!-- 1200 -->
      <g transform="translate(344.056965 303.028562)scale(0.1 -0.1)">
       <use xlink:href="#DejaVuSans-49"/>
       <use x="63.623047" xlink:href="#DejaVuSans-50"/>
       <use x="127.246094" xlink:href="#DejaVuSans-48"/>
       <use x="190.869141" xlink:href="#DejaVuSans-48"/>
      </g>
     </g>
    </g>
    <g id="text_8">
     <!-- Day -->
     <defs>
      <path d="M 19.671875 64.796875 
L 19.671875 8.109375 
L 31.59375 8.109375 
Q 46.6875 8.109375 53.6875 14.9375 
Q 60.6875 21.78125 60.6875 36.53125 
Q 60.6875 51.171875 53.6875 57.984375 
Q 46.6875 64.796875 31.59375 64.796875 
z
M 9.8125 72.90625 
L 30.078125 72.90625 
Q 51.265625 72.90625 61.171875 64.09375 
Q 71.09375 55.28125 71.09375 36.53125 
Q 71.09375 17.671875 61.125 8.828125 
Q 51.171875 0 30.078125 0 
L 9.8125 0 
z
" id="DejaVuSans-68"/>
      <path d="M 34.28125 27.484375 
Q 23.390625 27.484375 19.1875 25 
Q 14.984375 22.515625 14.984375 16.5 
Q 14.984375 11.71875 18.140625 8.90625 
Q 21.296875 6.109375 26.703125 6.109375 
Q 34.1875 6.109375 38.703125 11.40625 
Q 43.21875 16.703125 43.21875 25.484375 
L 43.21875 27.484375 
z
M 52.203125 31.203125 
L 52.203125 0 
L 43.21875 0 
L 43.21875 8.296875 
Q 40.140625 3.328125 35.546875 0.953125 
Q 30.953125 -1.421875 24.3125 -1.421875 
Q 15.921875 -1.421875 10.953125 3.296875 
Q 6 8.015625 6 15.921875 
Q 6 25.140625 12.171875 29.828125 
Q 18.359375 34.515625 30.609375 34.515625 
L 43.21875 34.515625 
L 43.21875 35.40625 
Q 43.21875 41.609375 39.140625 45 
Q 35.0625 48.390625 27.6875 48.390625 
Q 23 48.390625 18.546875 47.265625 
Q 14.109375 46.140625 10.015625 43.890625 
L 10.015625 52.203125 
Q 14.9375 54.109375 19.578125 55.046875 
Q 24.21875 56 28.609375 56 
Q 40.484375 56 46.34375 49.84375 
Q 52.203125 43.703125 52.203125 31.203125 
z
" id="DejaVuSans-97"/>
      <path d="M 32.171875 -5.078125 
Q 28.375 -14.84375 24.75 -17.8125 
Q 21.140625 -20.796875 15.09375 -20.796875 
L 7.90625 -20.796875 
L 7.90625 -13.28125 
L 13.1875 -13.28125 
Q 16.890625 -13.28125 18.9375 -11.515625 
Q 21 -9.765625 23.484375 -3.21875 
L 25.09375 0.875 
L 2.984375 54.6875 
L 12.5 54.6875 
L 29.59375 11.921875 
L 46.6875 54.6875 
L 56.203125 54.6875 
z
" id="DejaVuSans-121"/>
     </defs>
     <g transform="translate(215.652188 316.706687)scale(0.1 -0.1)">
      <use xlink:href="#DejaVuSans-68"/>
      <use x="77.001953" xlink:href="#DejaVuSans-97"/>
      <use x="138.28125" xlink:href="#DejaVuSans-121"/>
     </g>
    </g>
   </g>
   <g id="matplotlib.axis_2">
    <g id="ytick_1">
     <g id="line2d_15">
      <path clip-path="url(#pf9f29eef08)" d="M 46.965625 256.233484 
L 404.085625 256.233484 
" style="fill:none;stroke:#b0b0b0;stroke-dasharray:2.96,1.28;stroke-dashoffset:0;stroke-width:0.8;"/>
     </g>
     <g id="line2d_16">
      <defs>
       <path d="M 0 0 
L -3.5 0 
" id="m12527538b3" style="stroke:#000000;stroke-width:0.8;"/>
      </defs>
      <g>
       <use style="stroke:#000000;stroke-width:0.8;" x="46.965625" xlink:href="#m12527538b3" y="256.233484"/>
      </g>
     </g>
     <g id="text_9">
      <!-- 20 -->
      <g transform="translate(27.240625 260.032703)scale(0.1 -0.1)">
       <use xlink:href="#DejaVuSans-50"/>
       <use x="63.623047" xlink:href="#DejaVuSans-48"/>
      </g>
     </g>
    </g>
    <g id="ytick_2">
     <g id="line2d_17">
      <path clip-path="url(#pf9f29eef08)" d="M 46.965625 212.726954 
L 404.085625 212.726954 
" style="fill:none;stroke:#b0b0b0;stroke-dasharray:2.96,1.28;stroke-dashoffset:0;stroke-width:0.8;"/>
     </g>
     <g id="line2d_18">
      <g>
       <use style="stroke:#000000;stroke-width:0.8;" x="46.965625" xlink:href="#m12527538b3" y="212.726954"/>
      </g>
     </g>
     <g id="text_10">
      <!-- 40 -->
      <g transform="translate(27.240625 216.526172)scale(0.1 -0.1)">
       <use xlink:href="#DejaVuSans-52"/>
       <use x="63.623047" xlink:href="#DejaVuSans-48"/>
      </g>
     </g>
    </g>
    <g id="ytick_3">
     <g id="line2d_19">
      <path clip-path="url(#pf9f29eef08)" d="M 46.965625 169.220423 
L 404.085625 169.220423 
" style="fill:none;stroke:#b0b0b0;stroke-dasharray:2.96,1.28;stroke-dashoffset:0;stroke-width:0.8;"/>
     </g>
     <g id="line2d_20">
      <g>
       <use style="stroke:#000000;stroke-width:0.8;" x="46.965625" xlink:href="#m12527538b3" y="169.220423"/>
      </g>
     </g>
     <g id="text_11">
      <!-- 60 -->
      <g transform="translate(27.240625 173.019642)scale(0.1 -0.1)">
       <use xlink:href="#DejaVuSans-54"/>
       <use x="63.623047" xlink:href="#DejaVuSans-48"/>
      </g>
     </g>
    </g>
    <g id="ytick_4">
     <g id="line2d_21">
      <path clip-path="url(#pf9f29eef08)" d="M 46.965625 125.713893 
L 404.085625 125.713893 
" style="fill:none;stroke:#b0b0b0;stroke-dasharray:2.96,1.28;stroke-dashoffset:0;stroke-width:0.8;"/>
     </g>
     <g id="line2d_22">
      <g>
       <use style="stroke:#000000;stroke-width:0.8;" x="46.965625" xlink:href="#m12527538b3" y="125.713893"/>
      </g>
     </g>
     <g id="text_12">
      <!-- 80 -->
      <g transform="translate(27.240625 129.513112)scale(0.1 -0.1)">
       <use xlink:href="#DejaVuSans-56"/>
       <use x="63.623047" xlink:href="#DejaVuSans-48"/>
      </g>
     </g>
    </g>
    <g id="ytick_5">
     <g id="line2d_23">
      <path clip-path="url(#pf9f29eef08)" d="M 46.965625 82.207362 
L 404.085625 82.207362 
" style="fill:none;stroke:#b0b0b0;stroke-dasharray:2.96,1.28;stroke-dashoffset:0;stroke-width:0.8;"/>
     </g>
     <g id="line2d_24">
      <g>
       <use style="stroke:#000000;stroke-width:0.8;" x="46.965625" xlink:href="#m12527538b3" y="82.207362"/>
      </g>
     </g>
     <g id="text_13">
      <!-- 100 -->
      <g transform="translate(20.878125 86.006581)scale(0.1 -0.1)">
       <use xlink:href="#DejaVuSans-49"/>
       <use x="63.623047" xlink:href="#DejaVuSans-48"/>
       <use x="127.246094" xlink:href="#DejaVuSans-48"/>
      </g>
     </g>
    </g>
    <g id="ytick_6">
     <g id="line2d_25">
      <path clip-path="url(#pf9f29eef08)" d="M 46.965625 38.700832 
L 404.085625 38.700832 
" style="fill:none;stroke:#b0b0b0;stroke-dasharray:2.96,1.28;stroke-dashoffset:0;stroke-width:0.8;"/>
     </g>
     <g id="line2d_26">
      <g>
       <use style="stroke:#000000;stroke-width:0.8;" x="46.965625" xlink:href="#m12527538b3" y="38.700832"/>
      </g>
     </g>
     <g id="text_14">
      <!-- 120 -->
      <g transform="translate(20.878125 42.500051)scale(0.1 -0.1)">
       <use xlink:href="#DejaVuSans-49"/>
       <use x="63.623047" xlink:href="#DejaVuSans-50"/>
       <use x="127.246094" xlink:href="#DejaVuSans-48"/>
      </g>
     </g>
    </g>
    <g id="text_15">
     <!-- Price $ -->
     <defs>
      <path d="M 19.671875 64.796875 
L 19.671875 37.40625 
L 32.078125 37.40625 
Q 38.96875 37.40625 42.71875 40.96875 
Q 46.484375 44.53125 46.484375 51.125 
Q 46.484375 57.671875 42.71875 61.234375 
Q 38.96875 64.796875 32.078125 64.796875 
z
M 9.8125 72.90625 
L 32.078125 72.90625 
Q 44.34375 72.90625 50.609375 67.359375 
Q 56.890625 61.8125 56.890625 51.125 
Q 56.890625 40.328125 50.609375 34.8125 
Q 44.34375 29.296875 32.078125 29.296875 
L 19.671875 29.296875 
L 19.671875 0 
L 9.8125 0 
z
" id="DejaVuSans-80"/>
      <path d="M 41.109375 46.296875 
Q 39.59375 47.171875 37.8125 47.578125 
Q 36.03125 48 33.890625 48 
Q 26.265625 48 22.1875 43.046875 
Q 18.109375 38.09375 18.109375 28.8125 
L 18.109375 0 
L 9.078125 0 
L 9.078125 54.6875 
L 18.109375 54.6875 
L 18.109375 46.1875 
Q 20.953125 51.171875 25.484375 53.578125 
Q 30.03125 56 36.53125 56 
Q 37.453125 56 38.578125 55.875 
Q 39.703125 55.765625 41.0625 55.515625 
z
" id="DejaVuSans-114"/>
      <path d="M 9.421875 54.6875 
L 18.40625 54.6875 
L 18.40625 0 
L 9.421875 0 
z
M 9.421875 75.984375 
L 18.40625 75.984375 
L 18.40625 64.59375 
L 9.421875 64.59375 
z
" id="DejaVuSans-105"/>
      <path d="M 48.78125 52.59375 
L 48.78125 44.1875 
Q 44.96875 46.296875 41.140625 47.34375 
Q 37.3125 48.390625 33.40625 48.390625 
Q 24.65625 48.390625 19.8125 42.84375 
Q 14.984375 37.3125 14.984375 27.296875 
Q 14.984375 17.28125 19.8125 11.734375 
Q 24.65625 6.203125 33.40625 6.203125 
Q 37.3125 6.203125 41.140625 7.25 
Q 44.96875 8.296875 48.78125 10.40625 
L 48.78125 2.09375 
Q 45.015625 0.34375 40.984375 -0.53125 
Q 36.96875 -1.421875 32.421875 -1.421875 
Q 20.0625 -1.421875 12.78125 6.34375 
Q 5.515625 14.109375 5.515625 27.296875 
Q 5.515625 40.671875 12.859375 48.328125 
Q 20.21875 56 33.015625 56 
Q 37.15625 56 41.109375 55.140625 
Q 45.0625 54.296875 48.78125 52.59375 
z
" id="DejaVuSans-99"/>
      <path d="M 56.203125 29.59375 
L 56.203125 25.203125 
L 14.890625 25.203125 
Q 15.484375 15.921875 20.484375 11.0625 
Q 25.484375 6.203125 34.421875 6.203125 
Q 39.59375 6.203125 44.453125 7.46875 
Q 49.3125 8.734375 54.109375 11.28125 
L 54.109375 2.78125 
Q 49.265625 0.734375 44.1875 -0.34375 
Q 39.109375 -1.421875 33.890625 -1.421875 
Q 20.796875 -1.421875 13.15625 6.1875 
Q 5.515625 13.8125 5.515625 26.8125 
Q 5.515625 40.234375 12.765625 48.109375 
Q 20.015625 56 32.328125 56 
Q 43.359375 56 49.78125 48.890625 
Q 56.203125 41.796875 56.203125 29.59375 
z
M 47.21875 32.234375 
Q 47.125 39.59375 43.09375 43.984375 
Q 39.0625 48.390625 32.421875 48.390625 
Q 24.90625 48.390625 20.390625 44.140625 
Q 15.875 39.890625 15.1875 32.171875 
z
" id="DejaVuSans-101"/>
      <path id="DejaVuSans-32"/>
      <path d="M 33.796875 -14.703125 
L 28.90625 -14.703125 
L 28.859375 0 
Q 23.734375 0.09375 18.609375 1.1875 
Q 13.484375 2.296875 8.296875 4.5 
L 8.296875 13.28125 
Q 13.28125 10.15625 18.375 8.5625 
Q 23.484375 6.984375 28.90625 6.9375 
L 28.90625 29.203125 
Q 18.109375 30.953125 13.203125 35.15625 
Q 8.296875 39.359375 8.296875 46.6875 
Q 8.296875 54.640625 13.625 59.21875 
Q 18.953125 63.8125 28.90625 64.5 
L 28.90625 75.984375 
L 33.796875 75.984375 
L 33.796875 64.65625 
Q 38.328125 64.453125 42.578125 63.6875 
Q 46.828125 62.9375 50.875 61.625 
L 50.875 53.078125 
Q 46.828125 55.125 42.546875 56.25 
Q 38.28125 57.375 33.796875 57.5625 
L 33.796875 36.71875 
Q 44.875 35.015625 50.09375 30.609375 
Q 55.328125 26.21875 55.328125 18.609375 
Q 55.328125 10.359375 49.78125 5.59375 
Q 44.234375 0.828125 33.796875 0.09375 
z
M 28.90625 37.59375 
L 28.90625 57.625 
Q 23.25 56.984375 20.265625 54.390625 
Q 17.28125 51.8125 17.28125 47.515625 
Q 17.28125 43.3125 20.03125 40.96875 
Q 22.796875 38.625 28.90625 37.59375 
z
M 33.796875 28.21875 
L 33.796875 7.078125 
Q 39.984375 7.90625 43.140625 10.59375 
Q 46.296875 13.28125 46.296875 17.671875 
Q 46.296875 21.96875 43.28125 24.5 
Q 40.28125 27.046875 33.796875 28.21875 
z
" id="DejaVuSans-36"/>
     </defs>
     <g transform="translate(14.798438 172.342094)rotate(-90)scale(0.1 -0.1)">
      <use xlink:href="#DejaVuSans-80"/>
      <use x="58.552734" xlink:href="#DejaVuSans-114"/>
      <use x="99.666016" xlink:href="#DejaVuSans-105"/>
      <use x="127.449219" xlink:href="#DejaVuSans-99"/>
      <use x="182.429688" xlink:href="#DejaVuSans-101"/>
      <use x="243.953125" xlink:href="#DejaVuSans-32"/>
      <use x="275.740234" xlink:href="#DejaVuSans-36"/>
     </g>
    </g>
   </g>
   <g id="line2d_27">
    <path clip-path="url(#pf9f29eef08)" d="M 63.198352 272.653526 
L 63.443005 275.084856 
L 63.687658 276.334125 
L 63.932311 274.917848 
L 64.176964 274.520335 
L 64.421617 273.194727 
L 64.66627 272.486503 
L 64.910923 271.40261 
L 65.400229 270.905159 
L 65.644882 271.115037 
L 66.134188 272.138686 
L 66.378841 271.495689 
L 66.623494 270.032959 
L 66.868147 269.986036 
L 67.1128 270.381496 
L 67.357453 270.397472 
L 67.846759 270.942801 
L 68.091412 270.747775 
L 68.336066 271.526753 
L 68.580719 271.713429 
L 68.825372 271.677627 
L 69.070025 271.335363 
L 69.314678 270.621476 
L 69.559331 271.219252 
L 69.803984 270.985021 
L 70.29329 269.10748 
L 70.537943 269.498935 
L 70.782596 269.573543 
L 71.027249 269.250178 
L 71.516555 268.179572 
L 72.005861 269.263046 
L 72.250514 269.471489 
L 72.73982 270.963624 
L 72.984473 270.889234 
L 73.229126 272.216546 
L 73.473779 272.383624 
L 73.718432 272.075615 
L 73.963085 272.249851 
L 74.207738 272.957873 
L 74.697044 271.953779 
L 74.941697 271.527805 
L 75.18635 271.695061 
L 75.675656 271.576781 
L 75.920309 271.817879 
L 76.164962 271.474543 
L 76.898921 269.469371 
L 77.143574 269.693553 
L 77.388227 269.762343 
L 77.63288 271.362017 
L 77.877533 271.413802 
L 78.856145 273.865081 
L 79.100798 272.945776 
L 79.345451 271.584413 
L 79.590104 271.537592 
L 79.834757 271.059308 
L 80.07941 269.903492 
L 80.324063 270.53504 
L 80.568716 271.600099 
L 80.813369 271.689076 
L 81.058022 271.432201 
L 81.302675 271.480443 
L 81.547328 271.947927 
L 81.791981 271.335452 
L 82.036634 271.345211 
L 82.281287 269.923976 
L 82.770593 269.309732 
L 83.259899 267.976927 
L 83.504552 267.661139 
L 83.749205 267.01816 
L 83.993858 267.003736 
L 84.727817 268.241348 
L 85.217123 267.43896 
L 85.706429 267.408477 
L 86.195735 266.333703 
L 86.440388 266.461958 
L 86.685041 266.352235 
L 86.929694 266.106361 
L 87.663653 269.23244 
L 87.908306 269.362239 
L 88.152959 268.915685 
L 88.397612 268.789594 
L 88.886918 269.289202 
L 89.131571 268.05409 
L 89.376224 267.965544 
L 89.86553 267.233716 
L 90.110183 268.108995 
L 90.354836 269.532232 
L 90.599489 269.732343 
L 91.333449 268.178464 
L 91.578102 267.800468 
L 91.822755 267.816456 
L 92.312061 268.106267 
L 92.556714 268.16962 
L 92.801367 268.957195 
L 93.04602 268.531241 
L 93.535326 266.877767 
L 93.779979 267.031223 
L 94.024632 266.767734 
L 94.513938 264.42277 
L 94.758591 264.759258 
L 95.003244 262.89389 
L 95.49255 262.865394 
L 95.737203 261.852486 
L 95.981856 261.753177 
L 96.226509 261.439334 
L 96.471162 262.229702 
L 96.715815 262.270176 
L 96.960468 262.679328 
L 97.205121 261.366567 
L 97.449774 261.596033 
L 97.93908 260.888698 
L 98.183733 261.09646 
L 98.428386 261.108883 
L 98.673039 260.215788 
L 98.917692 261.434169 
L 99.162345 260.342568 
L 99.406998 260.054827 
L 99.651651 259.336372 
L 100.140957 258.900048 
L 100.38561 259.174134 
L 100.630263 258.014616 
L 100.874916 257.759355 
L 101.119569 258.359009 
L 101.364222 257.538311 
L 101.608875 258.521376 
L 101.853528 258.841102 
L 102.098181 262.160109 
L 102.342834 261.788033 
L 102.83214 260.48292 
L 103.076793 261.323811 
L 103.321446 260.901332 
L 103.566099 260.896436 
L 103.810752 261.044626 
L 104.055405 260.606741 
L 104.544711 261.990767 
L 104.789364 262.011027 
L 105.034017 261.807746 
L 105.27867 261.959134 
L 105.523323 261.582736 
L 105.767976 260.860546 
L 106.012629 261.191915 
L 106.257282 261.284656 
L 106.501935 262.710496 
L 106.746588 261.763533 
L 106.991241 262.542536 
L 107.235894 262.639305 
L 107.7252 261.96986 
L 107.969853 261.661448 
L 108.214506 260.857028 
L 108.459159 260.551699 
L 108.703812 260.650751 
L 109.193118 261.228443 
L 109.437771 261.882177 
L 109.682424 261.393831 
L 110.17173 259.797541 
L 110.416383 259.52414 
L 110.661036 252.907374 
L 110.905689 252.673966 
L 111.150342 250.679615 
L 111.394995 252.359198 
L 111.639648 250.870279 
L 111.884301 250.447697 
L 112.128954 251.656572 
L 112.373607 251.270153 
L 112.61826 252.216386 
L 112.862913 251.804923 
L 113.107566 252.312201 
L 113.35222 250.387792 
L 113.596873 250.154056 
L 113.841526 249.043569 
L 114.086179 249.277985 
L 114.330832 248.836109 
L 114.575485 249.610013 
L 114.820138 249.579301 
L 115.064791 250.172893 
L 115.309444 249.816792 
L 115.79875 248.269462 
L 116.043403 249.809489 
L 116.288056 250.378548 
L 116.532709 252.67173 
L 116.777362 252.771657 
L 117.022015 252.158518 
L 117.511321 249.525288 
L 117.755974 249.893123 
L 118.000627 251.33268 
L 118.24528 251.7278 
L 118.489933 252.530863 
L 118.734586 252.153842 
L 118.979239 252.145735 
L 119.223892 251.244653 
L 119.468545 249.611751 
L 119.713198 249.173423 
L 119.957851 248.419497 
L 120.202504 248.868941 
L 120.447157 247.751251 
L 120.69181 248.371326 
L 120.936463 248.26011 
L 121.425769 246.803246 
L 121.670422 246.674516 
L 121.915075 246.938204 
L 122.159728 246.950805 
L 122.404381 247.758491 
L 122.649034 247.014419 
L 122.893687 246.800525 
L 123.382993 247.720132 
L 123.627646 244.391998 
L 123.872299 245.996905 
L 124.116952 243.398324 
L 124.361605 244.217847 
L 124.606258 242.855903 
L 124.850911 242.808197 
L 125.095564 241.876515 
L 125.340217 241.806266 
L 125.58487 241.860217 
L 126.074176 242.275095 
L 126.318829 241.64324 
L 126.808135 241.537222 
L 127.052788 241.824203 
L 127.297441 241.588463 
L 127.542094 241.974098 
L 127.786747 241.091359 
L 128.0314 241.778007 
L 128.276053 241.363046 
L 128.520706 241.586256 
L 128.765359 239.191267 
L 129.010012 238.791538 
L 129.254665 238.945557 
L 129.499318 240.815115 
L 129.743971 240.526757 
L 129.988624 239.637636 
L 130.233277 241.552731 
L 130.722583 238.764843 
L 130.967236 239.338204 
L 131.211889 241.273297 
L 131.456542 240.57943 
L 131.945848 241.39726 
L 132.190501 242.098961 
L 132.679807 240.924461 
L 132.92446 239.541979 
L 133.169113 241.090483 
L 133.413766 240.814203 
L 133.903072 242.504353 
L 134.147725 241.779148 
L 134.392378 241.675499 
L 134.637031 242.594372 
L 134.881684 243.038323 
L 135.126337 243.915796 
L 135.37099 242.086845 
L 135.860297 244.856266 
L 136.10495 243.521723 
L 136.349603 244.584744 
L 136.594256 247.011768 
L 136.838909 246.926662 
L 137.083562 244.737353 
L 137.328215 245.717658 
L 137.572868 245.945726 
L 137.817521 247.328494 
L 138.306827 246.180619 
L 138.55148 245.083417 
L 138.796133 246.181598 
L 139.040786 244.643574 
L 139.285439 245.987362 
L 139.530092 245.655707 
L 139.774745 245.697215 
L 140.019398 245.496278 
L 140.264051 246.975497 
L 140.508704 243.051786 
L 140.753357 242.544492 
L 140.99801 243.708192 
L 141.242663 243.562624 
L 141.487316 243.963515 
L 141.731969 243.545406 
L 141.976622 244.417336 
L 142.710581 242.06125 
L 142.955234 242.099077 
L 143.199887 243.053492 
L 143.44454 247.080456 
L 143.689193 246.994358 
L 143.933846 248.776271 
L 144.178499 249.38843 
L 144.423152 248.646499 
L 144.912458 249.908649 
L 145.401764 251.37676 
L 145.646417 251.260693 
L 146.135723 252.580744 
L 146.380376 250.94239 
L 146.625029 253.719806 
L 146.869682 251.126304 
L 147.358988 251.462083 
L 147.603641 253.572417 
L 147.848294 253.836338 
L 148.092947 251.28209 
L 148.3376 251.550936 
L 148.582253 250.030541 
L 148.826906 249.852951 
L 149.071559 248.625799 
L 149.316212 248.378222 
L 149.560865 247.661153 
L 149.805518 247.728638 
L 150.050171 248.0449 
L 150.539477 249.717404 
L 150.78413 249.64489 
L 151.273436 250.189415 
L 151.518089 250.525169 
L 151.762742 249.340163 
L 152.007395 248.893931 
L 152.252048 250.024542 
L 152.496701 249.493431 
L 152.741354 250.855612 
L 152.986007 250.652048 
L 153.475313 252.612937 
L 153.719966 247.287696 
L 153.964619 246.781659 
L 154.209272 246.918965 
L 154.453925 247.645922 
L 154.698578 247.721385 
L 155.187884 245.5137 
L 155.432537 244.727756 
L 155.67719 243.017772 
L 155.921843 242.226737 
L 156.166496 242.861608 
L 156.411149 242.650564 
L 156.655802 242.719393 
L 156.900455 242.054516 
L 157.145108 240.487195 
L 157.389761 241.145741 
L 157.879067 239.080196 
L 158.12372 239.661718 
L 158.368374 239.601668 
L 158.613027 237.890265 
L 158.85768 238.911983 
L 159.102333 239.105377 
L 159.346986 238.721348 
L 159.591639 238.789302 
L 160.080945 238.118773 
L 160.325598 237.534405 
L 160.570251 237.420205 
L 160.814904 238.464365 
L 161.059557 236.939 
L 161.548863 236.046116 
L 161.793516 235.69326 
L 162.038169 236.052473 
L 162.282822 234.787348 
L 162.527475 234.41524 
L 162.772128 234.939023 
L 163.016781 235.17936 
L 163.261434 234.136976 
L 163.506087 233.832087 
L 163.995393 233.781103 
L 164.240046 234.843855 
L 164.484699 236.424482 
L 164.729352 235.837097 
L 164.974005 237.383958 
L 165.218658 237.534276 
L 165.463311 237.489939 
L 165.952617 235.479618 
L 166.686576 237.305349 
L 166.931229 237.849065 
L 167.175882 237.02955 
L 167.420535 238.235039 
L 167.909841 241.420155 
L 168.154494 240.185725 
L 168.6438 239.475543 
L 168.888453 239.536618 
L 169.133106 238.675094 
L 169.377759 238.374508 
L 169.622412 238.27585 
L 169.867065 238.381291 
L 170.111718 238.148576 
L 170.356371 238.212165 
L 170.601024 238.456913 
L 170.845677 237.959634 
L 171.09033 237.037164 
L 171.334983 237.524775 
L 171.579636 236.96199 
L 171.824289 238.491877 
L 172.068942 225.972253 
L 172.313595 225.286696 
L 172.558248 223.112647 
L 172.802901 222.917092 
L 173.047554 223.416644 
L 173.292207 225.339166 
L 173.53686 226.035427 
L 173.781513 224.683316 
L 174.026166 224.420205 
L 174.270819 224.799126 
L 174.515472 224.359487 
L 174.760125 224.447689 
L 175.249431 223.332193 
L 175.494084 224.114018 
L 175.738737 223.96684 
L 175.98339 223.196127 
L 176.228043 224.389427 
L 176.717349 223.570493 
L 176.962002 223.901708 
L 177.451308 223.632157 
L 177.695961 221.938392 
L 178.185267 222.894072 
L 178.42992 221.966266 
L 178.674573 221.928725 
L 178.919226 219.565743 
L 179.163879 218.819509 
L 179.408532 218.930797 
L 179.653185 218.790034 
L 179.897838 219.306415 
L 180.142491 220.43552 
L 180.387144 220.117059 
L 181.121104 221.498048 
L 181.61041 219.612652 
L 181.855063 219.242643 
L 182.344369 222.690575 
L 183.078328 221.25618 
L 183.322981 220.023596 
L 183.567634 220.82171 
L 183.812287 218.792839 
L 184.05694 218.954621 
L 184.301593 216.070917 
L 184.790899 215.941789 
L 185.035552 221.050276 
L 185.280205 219.307062 
L 186.014164 224.715862 
L 186.258817 224.421176 
L 186.50347 226.348411 
L 186.748123 226.101033 
L 186.992776 225.167376 
L 187.237429 225.237604 
L 187.482082 224.921409 
L 187.726735 226.96203 
L 188.216041 223.271077 
L 188.460694 222.165075 
L 188.705347 220.331792 
L 188.95 219.948556 
L 189.194653 220.870794 
L 189.928612 217.854485 
L 190.173265 217.415775 
L 190.417918 216.549849 
L 190.662571 217.71559 
L 190.907224 217.814056 
L 191.151877 218.575882 
L 191.39653 218.807759 
L 191.641183 217.2465 
L 191.885836 216.891312 
L 192.130489 217.109015 
L 192.375142 218.251505 
L 192.864448 216.902332 
L 193.109101 218.037934 
L 193.598407 216.810827 
L 194.087713 219.981168 
L 194.332366 218.98822 
L 194.577019 220.29518 
L 194.821672 218.467765 
L 195.066325 219.675959 
L 195.310978 219.827725 
L 195.555631 219.755672 
L 195.800284 219.314672 
L 196.044937 221.538095 
L 196.28959 221.229003 
L 196.778896 221.997193 
L 197.023549 223.014513 
L 197.512855 221.331859 
L 197.757508 221.190201 
L 198.002161 223.478889 
L 198.246814 222.723154 
L 198.491467 223.348234 
L 198.73612 224.311308 
L 198.980773 227.095217 
L 199.225426 228.182913 
L 199.470079 226.878509 
L 199.714732 228.471268 
L 199.959385 224.962311 
L 200.448691 221.896171 
L 200.693344 223.265666 
L 200.937997 220.70244 
L 201.18265 220.510121 
L 201.671956 218.034631 
L 202.161262 212.950408 
L 202.405915 210.502444 
L 202.650568 210.540408 
L 202.895221 211.179528 
L 203.629181 210.528151 
L 203.873834 209.847665 
L 204.118487 210.115174 
L 204.36314 209.969981 
L 204.607793 209.447085 
L 204.852446 209.394549 
L 205.097099 209.523894 
L 205.341752 206.36342 
L 205.586405 205.15062 
L 205.831058 205.721454 
L 206.075711 204.982548 
L 206.320364 204.771134 
L 206.565017 203.847734 
L 206.80967 204.56621 
L 207.054323 203.995874 
L 207.298976 205.70801 
L 207.543629 204.629583 
L 207.788282 199.622193 
L 208.032935 198.561416 
L 208.277588 198.104334 
L 209.011547 202.174092 
L 209.2562 201.366519 
L 209.500853 201.88363 
L 209.745506 200.670714 
L 209.990159 200.716238 
L 210.234812 199.375761 
L 210.479465 196.86395 
L 210.724118 196.397831 
L 210.968771 195.48546 
L 211.213424 195.517516 
L 211.70273 194.426633 
L 211.947383 196.007168 
L 212.192036 196.424958 
L 212.436689 197.233071 
L 212.681342 197.53847 
L 212.925995 198.195573 
L 213.170648 199.498616 
L 213.415301 197.682585 
L 213.659954 194.912103 
L 214.393913 198.49659 
L 214.638566 197.443995 
L 214.883219 198.017302 
L 215.127872 194.88096 
L 215.372525 195.53495 
L 215.617178 194.907854 
L 215.861831 192.186514 
L 216.106484 191.259512 
L 216.351137 191.876999 
L 216.59579 194.166168 
L 216.840443 180.810785 
L 217.085096 179.451389 
L 217.329749 180.215745 
L 217.574402 180.040902 
L 217.819055 181.006963 
L 218.063708 180.863221 
L 218.308361 176.886121 
L 218.797667 181.439881 
L 219.04232 180.43115 
L 219.286973 180.042968 
L 219.531626 177.306043 
L 219.776279 176.946714 
L 220.020932 176.091874 
L 220.265585 174.280366 
L 220.510238 175.27167 
L 220.754891 174.049468 
L 220.999544 174.346677 
L 221.244197 174.148474 
L 221.48885 174.658366 
L 221.733503 173.907602 
L 221.978156 175.119091 
L 222.222809 174.499555 
L 222.467462 176.215185 
L 222.712115 175.027769 
L 222.956768 174.687061 
L 223.201421 176.856139 
L 223.446074 176.179785 
L 223.690727 179.672843 
L 223.93538 179.522015 
L 224.180033 179.646289 
L 224.424686 179.11868 
L 224.669339 178.043464 
L 224.913992 181.556852 
L 225.158645 178.415896 
L 225.403298 177.774884 
L 225.647952 174.862494 
L 225.892605 174.916026 
L 226.137258 173.387138 
L 226.381911 177.428102 
L 226.626564 177.360305 
L 227.11587 170.171382 
L 227.360523 171.582949 
L 227.605176 174.86739 
L 227.849829 174.012873 
L 228.094482 175.188472 
L 228.339135 173.680015 
L 228.583788 172.981663 
L 228.828441 174.370169 
L 229.073094 172.518498 
L 229.317747 174.749754 
L 229.807053 175.711998 
L 230.051706 175.6998 
L 230.296359 177.488986 
L 231.030318 169.430634 
L 231.274971 169.238049 
L 231.519624 169.193844 
L 231.764277 169.280253 
L 232.253583 171.866408 
L 232.498236 173.02488 
L 232.742889 170.365228 
L 232.987542 170.474474 
L 233.232195 170.766057 
L 233.476848 166.961799 
L 233.721501 168.431064 
L 233.966154 164.859231 
L 234.210807 163.401684 
L 234.45546 163.633718 
L 234.700113 165.185285 
L 234.944766 162.20392 
L 235.189419 162.729645 
L 235.434072 161.762206 
L 235.678725 163.29896 
L 235.923378 164.048488 
L 236.168031 163.082393 
L 236.412684 163.385029 
L 236.657337 163.452386 
L 236.90199 160.564475 
L 237.391296 162.909741 
L 237.880602 162.428079 
L 238.125255 161.580342 
L 238.369908 163.18983 
L 238.614561 162.574261 
L 238.859214 165.271802 
L 239.103867 164.964967 
L 239.34852 163.395045 
L 239.593173 163.28155 
L 239.837826 162.9293 
L 240.082479 165.470934 
L 240.816438 157.524823 
L 241.305744 154.593364 
L 241.550397 154.668131 
L 241.79505 152.246181 
L 242.039703 152.789017 
L 242.284356 152.352133 
L 242.529009 155.429392 
L 242.773662 154.745686 
L 243.018315 151.554044 
L 243.262968 152.045331 
L 243.507621 151.546708 
L 243.752274 147.47685 
L 243.996927 149.461119 
L 244.730886 139.571177 
L 244.975539 142.410576 
L 245.464845 140.722355 
L 245.709498 139.646724 
L 245.954151 136.796968 
L 246.68811 143.19479 
L 246.932763 142.112206 
L 247.177416 144.473429 
L 247.666722 142.40407 
L 247.911375 142.147888 
L 248.400682 144.945082 
L 248.645335 143.139524 
L 248.889988 135.936776 
L 249.134641 138.501936 
L 249.379294 139.817949 
L 249.623947 138.444612 
L 250.113253 139.00104 
L 250.357906 139.7428 
L 250.602559 140.952033 
L 250.847212 139.055675 
L 251.091865 138.772125 
L 251.336518 143.596606 
L 251.825824 156.467449 
L 252.070477 160.412734 
L 252.31513 160.865285 
L 252.559783 155.047857 
L 253.049089 151.700093 
L 253.293742 155.384316 
L 253.538395 161.107435 
L 254.027701 156.114808 
L 254.272354 154.921442 
L 254.517007 150.408559 
L 254.76166 151.971544 
L 255.006313 149.872826 
L 255.250966 149.514526 
L 255.495619 150.703029 
L 256.229578 144.904786 
L 256.474231 147.06428 
L 256.718884 145.890465 
L 256.963537 150.004453 
L 257.20819 148.243572 
L 257.452843 149.715276 
L 257.697496 148.217715 
L 257.942149 154.791326 
L 258.186802 155.661891 
L 258.431455 151.949836 
L 258.920761 154.683333 
L 259.165414 152.311638 
L 259.410067 154.564403 
L 259.899373 156.13703 
L 260.144026 157.775463 
L 260.388679 151.208291 
L 260.633332 150.61945 
L 260.877985 145.96075 
L 261.122638 145.144455 
L 261.611944 142.228464 
L 261.856597 142.200183 
L 262.10125 141.116769 
L 262.345903 137.336667 
L 262.590556 136.601197 
L 262.835209 138.416779 
L 263.324515 132.545844 
L 263.569168 134.152328 
L 263.813821 142.743351 
L 264.058474 142.634528 
L 264.303127 142.930924 
L 264.54778 137.804073 
L 264.792433 138.414506 
L 265.281739 144.986192 
L 265.526392 145.167624 
L 266.015698 143.444484 
L 266.505004 151.294459 
L 266.749657 151.052882 
L 266.99431 150.416741 
L 267.238963 144.783002 
L 267.483616 141.946938 
L 267.728269 149.336911 
L 267.972922 153.323372 
L 268.217575 148.072064 
L 268.462228 149.486163 
L 268.706881 151.848066 
L 269.196187 148.571882 
L 269.44084 153.128912 
L 269.685493 146.317192 
L 270.174799 145.041026 
L 270.419452 153.416993 
L 270.664106 154.820619 
L 270.908759 153.150935 
L 271.398065 142.198075 
L 271.642718 142.872936 
L 271.887371 144.7755 
L 272.132024 149.303917 
L 272.376677 149.783322 
L 272.62133 149.042939 
L 272.865983 150.022294 
L 273.355289 148.893173 
L 273.599942 147.475971 
L 273.844595 147.912108 
L 274.089248 149.883647 
L 274.333901 155.475779 
L 275.06786 163.28121 
L 275.312513 161.92032 
L 275.801819 156.684878 
L 276.046472 161.464574 
L 276.535778 155.691865 
L 276.780431 152.870738 
L 277.025084 153.998017 
L 277.269737 153.575422 
L 277.51439 148.556265 
L 277.759043 147.412124 
L 278.003696 145.422794 
L 278.248349 148.366336 
L 278.493002 147.614451 
L 278.737655 159.009324 
L 278.982308 159.514967 
L 279.226961 167.253988 
L 279.716267 171.453514 
L 279.96092 178.352705 
L 280.205573 176.703552 
L 280.450226 172.678438 
L 280.694879 171.076974 
L 280.939532 172.717182 
L 281.184185 170.44753 
L 281.428838 170.184775 
L 281.673491 169.123583 
L 281.918144 172.3151 
L 282.162797 169.710632 
L 282.40745 161.851744 
L 282.652103 165.665212 
L 283.141409 158.874594 
L 283.386062 159.354944 
L 283.630715 159.28909 
L 283.875368 159.775896 
L 284.120021 157.061982 
L 284.364674 155.803459 
L 284.609327 158.600886 
L 284.85398 159.315611 
L 285.343286 162.461106 
L 285.587939 160.383674 
L 285.832592 161.347246 
L 286.077245 159.204265 
L 286.321898 158.559013 
L 286.566551 156.510815 
L 286.811204 155.918456 
L 287.055857 158.76524 
L 287.545163 160.281589 
L 287.789816 160.430841 
L 288.034469 157.915553 
L 288.279122 159.726206 
L 288.523775 158.816341 
L 288.768428 155.855439 
L 289.013081 155.060503 
L 289.502387 156.0654 
L 289.74704 156.440247 
L 289.991693 157.056755 
L 290.236346 156.233588 
L 290.480999 160.363874 
L 290.725652 159.626346 
L 290.970305 162.01414 
L 291.214958 162.408471 
L 291.459611 158.555246 
L 291.704264 158.23525 
L 291.948917 154.10684 
L 292.682876 156.280224 
L 292.92753 155.43384 
L 293.172183 156.126707 
L 293.416836 155.990584 
L 293.661489 157.310547 
L 293.906142 161.561721 
L 294.150795 163.733222 
L 294.395448 164.769868 
L 294.640101 162.571331 
L 294.884754 164.350659 
L 295.129407 164.758002 
L 295.37406 164.000391 
L 295.618713 160.351692 
L 295.863366 159.11257 
L 296.108019 159.039778 
L 296.352672 139.935203 
L 296.597325 136.624681 
L 296.841978 136.095089 
L 297.086631 132.907364 
L 297.331284 136.20743 
L 297.575937 137.424645 
L 297.82059 139.61144 
L 298.065243 140.438622 
L 298.309896 140.201326 
L 298.554549 135.647533 
L 298.799202 136.683333 
L 299.043855 136.202916 
L 299.288508 134.879384 
L 299.533161 132.565411 
L 299.777814 132.850272 
L 300.022467 132.864877 
L 300.26712 133.304649 
L 300.511773 132.990811 
L 300.756426 131.346055 
L 301.001079 133.488637 
L 301.245732 133.495425 
L 301.735038 137.813433 
L 301.979691 137.19754 
L 302.224344 137.518166 
L 302.468997 136.228325 
L 302.71365 137.275012 
L 302.958303 135.56007 
L 303.202956 135.128895 
L 303.447609 136.648497 
L 303.692262 133.92982 
L 304.181568 143.654627 
L 304.670874 138.9318 
L 304.915527 134.668726 
L 305.404833 134.37311 
L 305.649486 132.478994 
L 305.894139 132.724056 
L 306.138792 129.163875 
L 306.383445 127.235669 
L 306.628098 126.522056 
L 306.872751 130.597225 
L 307.117404 129.554969 
L 307.362057 130.057957 
L 307.60671 129.151278 
L 307.851363 132.976538 
L 308.096016 132.482263 
L 308.340669 135.328683 
L 308.829975 132.070971 
L 309.074628 132.220986 
L 309.319281 132.555835 
L 309.563934 133.35794 
L 309.808587 133.247425 
L 310.05324 132.581709 
L 310.297893 132.27665 
L 310.542546 128.310586 
L 310.787199 129.211622 
L 311.031852 125.72093 
L 311.521158 128.184188 
L 311.765811 128.398381 
L 312.255117 130.870402 
L 312.49977 126.470773 
L 312.744423 129.630881 
L 313.233729 123.280658 
L 313.478382 121.627654 
L 313.723035 122.184447 
L 313.967688 120.342842 
L 314.212341 120.101497 
L 314.456994 121.981042 
L 314.701647 122.66342 
L 315.190953 121.572836 
L 315.435607 122.675768 
L 315.68026 121.509869 
L 315.924913 117.846839 
L 316.169566 117.01033 
L 316.414219 119.415334 
L 316.658872 120.582859 
L 316.903525 125.486605 
L 317.148178 123.344571 
L 317.392831 123.331111 
L 317.637484 123.495963 
L 317.882137 118.039424 
L 318.12679 119.101081 
L 318.371443 119.342061 
L 318.616096 118.778695 
L 318.860749 117.737801 
L 319.105402 118.399218 
L 319.350055 116.048633 
L 319.594708 117.708591 
L 319.839361 114.041412 
L 320.084014 114.491972 
L 320.328667 116.102987 
L 320.57332 113.575666 
L 320.817973 113.57965 
L 321.062626 113.278723 
L 321.307279 113.444273 
L 321.796585 116.967063 
L 322.041238 114.94595 
L 322.530544 119.733139 
L 322.775197 121.332337 
L 323.01985 119.578709 
L 323.264503 120.182122 
L 323.509156 116.602356 
L 323.753809 119.254349 
L 323.998462 119.764423 
L 324.243115 118.944776 
L 324.487768 116.231775 
L 324.732421 118.859935 
L 324.977074 119.629096 
L 325.221727 119.28628 
L 325.46638 126.317422 
L 325.955686 129.746011 
L 326.444992 124.200631 
L 326.689645 124.874064 
L 326.934298 123.009954 
L 327.178951 122.061036 
L 327.668257 132.052067 
L 327.91291 130.618584 
L 328.157563 132.954747 
L 328.891522 126.222689 
L 329.625481 130.103199 
L 329.870134 126.674776 
L 330.114787 127.108789 
L 330.35944 128.084277 
L 330.604093 122.377082 
L 330.848746 127.021807 
L 331.093399 134.838341 
L 331.338052 134.105244 
L 331.582705 130.759256 
L 331.827358 132.121507 
L 332.072011 129.829474 
L 332.316664 130.178016 
L 332.561317 128.076195 
L 332.80597 124.028028 
L 333.050623 123.75105 
L 333.295276 123.848554 
L 333.539929 122.04366 
L 333.784582 126.391077 
L 334.273888 126.352042 
L 334.763194 125.815944 
L 335.007847 123.929429 
L 335.2525 123.062465 
L 335.497153 124.566715 
L 335.741806 124.977974 
L 335.986459 127.965198 
L 336.231112 127.048345 
L 336.475765 123.933096 
L 336.720418 127.60313 
L 336.965071 127.446377 
L 337.209724 128.211621 
L 337.69903 127.425382 
L 338.188337 124.591012 
L 338.43299 124.858546 
L 338.677643 124.190175 
L 338.922296 124.498288 
L 339.411602 125.561604 
L 339.656255 124.210356 
L 339.900908 122.152682 
L 340.145561 121.716478 
L 340.390214 118.553996 
L 340.634867 117.097112 
L 341.368826 119.860931 
L 341.613479 122.507032 
L 341.858132 121.966868 
L 342.102785 120.515627 
L 342.347438 122.145761 
L 342.592091 118.288536 
L 342.836744 112.023519 
L 343.081397 111.782722 
L 343.32605 112.281411 
L 343.570703 108.058036 
L 343.815356 108.323927 
L 344.060009 109.512281 
L 344.304662 108.920037 
L 344.549315 109.288246 
L 344.793968 110.890182 
L 345.038621 111.101737 
L 345.283274 110.112491 
L 345.527927 111.225613 
L 345.77258 108.362165 
L 346.017233 110.111246 
L 346.261886 109.591794 
L 346.506539 109.74571 
L 346.995845 105.758402 
L 347.240498 105.715451 
L 347.729804 101.995511 
L 347.974457 101.654604 
L 348.21911 100.323953 
L 348.463763 103.136682 
L 349.197722 106.938989 
L 349.442375 106.253473 
L 349.687028 106.548077 
L 349.931681 104.993158 
L 350.176334 105.678905 
L 350.420987 104.130359 
L 350.66564 103.995331 
L 350.910293 102.972145 
L 351.399599 105.393082 
L 351.644252 104.998734 
L 351.888905 106.908186 
L 352.378211 106.226853 
L 352.622864 106.248461 
L 352.867517 104.246435 
L 353.11217 103.658639 
L 353.356823 105.657944 
L 353.601476 105.206754 
L 353.846129 105.191817 
L 354.090782 104.271263 
L 354.335435 100.940045 
L 354.824741 97.543139 
L 355.069394 97.109043 
L 355.5587 94.359281 
L 355.803353 93.125635 
L 356.048006 93.200684 
L 356.292659 94.34212 
L 356.537312 94.600659 
L 356.781965 93.190577 
L 357.026618 91.118646 
L 357.271271 91.176701 
L 357.515924 90.547066 
L 357.760577 64.305082 
L 358.249883 62.765531 
L 358.494536 58.164737 
L 358.739189 56.359228 
L 358.983842 70.772741 
L 359.228495 66.509817 
L 359.962454 62.518892 
L 360.207107 55.345983 
L 360.451761 52.07194 
L 360.696414 55.768927 
L 361.18572 52.681494 
L 361.919679 49.879851 
L 362.164332 51.996476 
L 362.408985 48.39633 
L 362.653638 50.586909 
L 362.898291 58.850069 
L 363.142944 62.036749 
L 363.387597 59.698645 
L 363.63225 59.756566 
L 363.876903 58.923807 
L 364.121556 58.828229 
L 364.366209 52.288109 
L 364.610862 52.347408 
L 365.100168 54.099376 
L 365.344821 57.726774 
L 365.589474 55.831396 
L 365.834127 63.063785 
L 366.07878 62.569428 
L 366.568086 69.097465 
L 366.812739 69.691634 
L 367.057392 67.013884 
L 367.302045 69.013139 
L 367.546698 65.731445 
L 368.036004 63.465253 
L 368.280657 58.653103 
L 368.52531 61.993333 
L 368.769963 62.225931 
L 369.259269 59.367197 
L 369.503922 56.702675 
L 369.993228 55.34683 
L 370.237881 52.042166 
L 370.482534 52.144616 
L 370.727187 43.064696 
L 370.97184 43.650649 
L 371.216493 42.531154 
L 371.461146 45.368014 
L 371.705799 45.03182 
L 371.950452 45.120677 
L 372.195105 40.992284 
L 372.439758 44.377158 
L 373.173717 46.660112 
L 373.41837 51.102543 
L 373.907676 44.473085 
L 374.152329 43.946879 
L 374.396982 40.152223 
L 374.641635 45.641838 
L 374.886288 45.047803 
L 375.130941 44.750411 
L 375.375594 40.458626 
L 376.109553 44.734844 
L 376.354206 41.090369 
L 376.598859 39.906911 
L 376.843512 34.414125 
L 377.088165 35.091525 
L 377.332818 39.825572 
L 377.822124 44.404011 
L 378.066777 40.667193 
L 378.31143 41.880641 
L 378.556083 36.205062 
L 378.800736 37.336755 
L 379.045389 39.308809 
L 379.290042 39.915624 
L 379.534695 39.394297 
L 379.779348 38.331362 
L 380.268654 37.58693 
L 380.513307 42.332196 
L 380.75796 41.538621 
L 381.002613 50.106824 
L 381.247266 51.357514 
L 381.491919 46.860547 
L 381.736572 45.577594 
L 381.981225 42.842254 
L 382.470531 42.728237 
L 382.715184 41.346485 
L 383.204491 38.100954 
L 383.93845 46.49131 
L 384.183103 44.49622 
L 384.427756 41.314039 
L 384.917062 47.036701 
L 385.161715 52.697758 
L 385.406368 53.0895 
L 385.651021 51.87831 
L 385.895674 51.96091 
L 386.140327 52.60769 
L 387.363592 39.338882 
L 387.608245 49.792753 
L 387.852898 53.988412 
L 387.852898 53.988412 
" style="fill:none;stroke:#1f77b4;stroke-linecap:square;stroke-width:1.5;"/>
   </g>
   <g id="line2d_28">
    <path clip-path="url(#pf9f29eef08)" d="M 63.198352 275.311098 
L 63.443005 275.767916 
L 63.687658 274.332201 
L 63.932311 275.006552 
L 64.176964 273.701356 
L 64.421617 273.201031 
L 64.66627 271.917588 
L 65.155576 271.19973 
L 65.400229 271.286744 
L 65.889535 272.091614 
L 66.134188 271.26499 
L 66.378841 269.698755 
L 66.623494 269.785768 
L 66.868147 270.242587 
L 67.1128 270.242587 
L 67.602106 270.916938 
L 67.846759 270.742912 
L 68.091412 271.613043 
L 68.336066 271.830575 
L 68.580719 271.787069 
L 68.825372 271.46077 
L 69.070025 270.742912 
L 69.314678 271.39551 
L 69.559331 271.156224 
L 70.048637 269.19843 
L 70.29329 269.633495 
L 70.537943 269.698755 
L 71.027249 268.763365 
L 71.271902 268.19778 
L 71.761208 269.285443 
L 72.005861 269.437716 
L 72.495167 270.938691 
L 72.73982 270.808172 
L 72.984473 272.156874 
L 73.229126 272.3309 
L 73.473779 271.939341 
L 73.718432 272.135121 
L 73.963085 272.874732 
L 74.452391 271.787069 
L 74.697044 271.39551 
L 74.941697 271.569536 
L 75.431003 271.439016 
L 75.675656 271.700056 
L 75.920309 271.352003 
L 76.654268 269.32895 
L 77.143574 269.655249 
L 77.388227 271.286744 
L 77.63288 271.352003 
L 78.611492 273.831876 
L 78.856145 272.874732 
L 79.100798 271.46077 
L 79.345451 271.482523 
L 79.590104 271.025704 
L 79.834757 269.807521 
L 80.07941 270.503626 
L 80.324063 271.656549 
L 80.568716 271.700056 
L 80.813369 271.417263 
L 81.058022 271.504276 
L 81.302675 272.004601 
L 81.547328 271.352003 
L 81.791981 271.352003 
L 82.036634 269.916288 
L 82.52594 269.350703 
L 83.015246 267.980247 
L 83.259899 267.697455 
L 83.504552 267.044857 
L 83.749205 267.044857 
L 84.483164 268.328299 
L 84.97247 267.501675 
L 85.461776 267.501675 
L 85.951082 266.392259 
L 86.195735 266.566285 
L 86.440388 266.457519 
L 86.685041 266.196479 
L 87.419 269.415963 
L 87.663653 269.524729 
L 87.908306 269.046157 
L 88.152959 268.937391 
L 88.642265 269.459469 
L 88.886918 268.154273 
L 89.131571 268.089014 
L 89.620877 267.371156 
L 89.86553 268.306546 
L 90.110183 269.785768 
L 90.354836 269.938041 
L 90.844143 268.763365 
L 91.333449 267.958494 
L 91.578102 267.980247 
L 92.067408 268.284793 
L 92.312061 268.350053 
L 92.556714 269.176677 
L 92.801367 268.719858 
L 93.04602 267.610442 
L 93.290673 267.023104 
L 93.535326 267.218883 
L 93.779979 266.93609 
L 94.269285 264.521478 
L 94.513938 264.93479 
L 94.758591 262.998749 
L 95.247897 263.042256 
L 95.49255 261.954593 
L 95.737203 261.86758 
L 95.981856 261.584787 
L 96.226509 262.389658 
L 96.471162 262.433165 
L 96.715815 262.824723 
L 96.960468 261.476021 
L 97.205121 261.715307 
L 97.694427 260.997449 
L 97.93908 261.236735 
L 98.183733 261.258488 
L 98.428386 260.323098 
L 98.673039 261.606541 
L 98.917692 260.497124 
L 99.162345 260.149072 
L 99.406998 259.474721 
L 99.896304 259.039655 
L 100.140957 259.322448 
L 100.38561 258.126018 
L 100.630263 257.864979 
L 100.874916 258.53933 
L 101.119569 257.6692 
L 101.364222 258.66985 
L 101.608875 259.039655 
L 101.853528 262.433165 
L 102.098181 262.019853 
L 102.587487 260.649397 
L 102.83214 261.541281 
L 103.076793 261.084462 
L 103.321446 261.040956 
L 103.566099 261.236735 
L 103.810752 260.779916 
L 104.300058 262.237385 
L 104.544711 262.215632 
L 104.789364 261.998099 
L 105.034017 262.172125 
L 105.27867 261.780567 
L 105.523323 261.019202 
L 105.767976 261.389008 
L 106.012629 261.497774 
L 106.257282 262.955243 
L 106.501935 261.954593 
L 106.746588 262.73771 
L 106.991241 262.889983 
L 107.7252 261.845826 
L 107.969853 261.019202 
L 108.214506 260.714657 
L 108.703812 261.084462 
L 108.948465 261.432514 
L 109.193118 262.106866 
L 109.437771 261.584787 
L 109.927077 259.953292 
L 110.17173 259.692253 
L 110.416383 252.839975 
L 110.661036 252.665949 
L 110.905689 250.838674 
L 111.150342 252.448416 
L 111.394995 250.990947 
L 111.639648 250.490622 
L 111.884301 251.839324 
L 112.128954 251.426012 
L 112.373607 252.33965 
L 112.61826 251.948091 
L 112.862913 252.426663 
L 113.107566 250.468869 
L 113.35222 250.20783 
L 113.596873 249.14192 
L 113.841526 249.359452 
L 114.086179 248.94614 
L 114.330832 249.729258 
L 114.575485 249.729258 
L 114.820138 250.316596 
L 115.064791 249.968544 
L 115.554097 248.380555 
L 115.79875 249.990297 
L 116.043403 250.577635 
L 116.288056 252.883481 
L 116.532709 252.992247 
L 116.777362 252.296143 
L 117.266668 249.642245 
L 117.511321 250.055557 
L 117.755974 251.556532 
L 118.000627 251.926338 
L 118.24528 252.731208 
L 118.489933 252.361403 
L 118.734586 252.33965 
L 118.979239 251.426012 
L 119.223892 249.729258 
L 119.468545 249.315946 
L 119.713198 248.576335 
L 119.957851 249.033153 
L 120.202504 247.901983 
L 120.447157 248.532828 
L 120.69181 248.467568 
L 121.181116 246.94484 
L 121.425769 246.836073 
L 121.670422 247.118866 
L 121.915075 247.118866 
L 122.159728 247.94549 
L 122.404381 247.184126 
L 122.649034 246.94484 
L 123.13834 247.923737 
L 123.382993 244.464968 
L 123.627646 246.139969 
L 123.872299 243.573084 
L 124.116952 244.312695 
L 124.361605 243.029252 
L 124.606258 242.920486 
L 124.850911 242.028602 
L 125.095564 241.941589 
L 125.58487 242.224381 
L 125.829523 242.441914 
L 126.074176 241.789316 
L 126.563482 241.702303 
L 126.808135 241.985095 
L 127.052788 241.745809 
L 127.297441 242.137368 
L 127.542094 241.245484 
L 127.786747 241.941589 
L 128.0314 241.55003 
L 128.276053 241.745809 
L 128.520706 239.309444 
L 128.765359 238.896132 
L 129.010012 239.135418 
L 129.254665 241.027952 
L 129.499318 240.723406 
L 129.743971 239.766262 
L 129.988624 241.789316 
L 130.47793 238.852625 
L 130.722583 239.526976 
L 130.967236 241.528277 
L 131.211889 240.766912 
L 131.701195 241.637043 
L 131.945848 242.333148 
L 132.435154 241.093211 
L 132.679807 239.701002 
L 132.92446 241.310744 
L 133.169113 241.049705 
L 133.658419 242.768213 
L 133.903072 241.985095 
L 134.147725 241.876329 
L 134.392378 242.855226 
L 134.637031 243.290291 
L 134.881684 244.160422 
L 135.126337 242.267888 
L 135.615643 245.182825 
L 135.860297 243.703603 
L 136.10495 244.81302 
L 136.349603 247.379905 
L 136.594256 247.205879 
L 136.838909 244.87828 
L 137.083562 245.965943 
L 137.328215 246.248735 
L 137.572868 247.597438 
L 138.062174 246.379255 
L 138.306827 245.291592 
L 138.55148 246.444515 
L 138.796133 244.856526 
L 139.040786 246.205229 
L 139.285439 245.922436 
L 139.530092 245.900683 
L 139.774745 245.726657 
L 140.019398 247.249385 
L 140.264051 243.181525 
L 140.508704 242.637693 
L 140.753357 243.986396 
L 140.99801 243.768863 
L 141.242663 244.138669 
L 141.487316 243.74711 
L 141.731969 244.638994 
L 142.465928 242.224381 
L 142.710581 242.267888 
L 142.955234 243.268538 
L 143.199887 247.401658 
L 143.44454 247.271139 
L 143.689193 249.0114 
L 143.933846 249.707504 
L 144.178499 248.859127 
L 144.912458 250.751661 
L 145.157111 251.643545 
L 145.401764 251.513025 
L 145.89107 252.883481 
L 146.135723 251.14322 
L 146.380376 254.036404 
L 146.625029 251.360753 
L 146.869682 251.469519 
L 147.114335 251.752311 
L 147.358988 253.884131 
L 147.603641 254.123417 
L 147.848294 251.404259 
L 148.092947 251.752311 
L 148.3376 250.251336 
L 148.582253 250.01205 
L 148.826906 248.793867 
L 149.071559 248.532828 
L 149.316212 247.836724 
L 149.560865 247.901983 
L 149.805518 248.250036 
L 150.294824 249.94679 
L 150.539477 249.838024 
L 151.028783 250.403609 
L 151.273436 250.729908 
L 151.518089 249.489972 
L 151.762742 249.033153 
L 152.007395 250.251336 
L 152.252048 249.685751 
L 152.496701 251.056207 
L 152.741354 250.882181 
L 153.23066 252.883481 
L 153.475313 247.314645 
L 153.719966 246.836073 
L 153.964619 247.162372 
L 154.209272 247.81497 
L 154.453925 247.88023 
L 154.943231 245.639644 
L 155.187884 244.87828 
L 155.432537 243.116265 
L 155.67719 242.311394 
L 155.921843 243.007499 
L 156.166496 242.789966 
L 156.411149 242.833473 
L 156.655802 242.180875 
L 156.900455 240.571133 
L 157.145108 241.267238 
L 157.634414 239.135418 
L 157.879067 239.788016 
L 158.12372 239.744509 
L 158.368374 237.960741 
L 158.613027 239.026651 
L 158.85768 239.28769 
L 159.102333 238.830872 
L 159.346986 238.917885 
L 159.836292 238.243534 
L 160.080945 237.656196 
L 160.325598 237.547429 
L 160.570251 238.635092 
L 160.814904 237.068857 
L 161.059557 236.459766 
L 161.548863 235.828921 
L 161.793516 236.198727 
L 162.038169 234.915284 
L 162.282822 234.523725 
L 162.527475 235.111064 
L 162.772128 235.350349 
L 163.016781 234.262686 
L 163.261434 233.95814 
L 163.75074 233.936387 
L 163.995393 235.02405 
L 164.240046 236.655545 
L 164.484699 236.024701 
L 164.729352 237.590936 
L 164.974005 237.786715 
L 165.218658 237.677949 
L 165.707964 235.633142 
L 166.441923 237.525676 
L 166.686576 238.091261 
L 166.931229 237.242883 
L 167.175882 238.48282 
L 167.665188 241.724056 
L 167.909841 240.397107 
L 168.399147 239.722756 
L 168.6438 239.766262 
L 168.888453 238.874378 
L 169.133106 238.569833 
L 169.377759 238.504573 
L 169.622412 238.613339 
L 169.867065 238.374053 
L 170.111718 238.439313 
L 170.356371 238.700352 
L 170.601024 238.178274 
L 170.845677 237.22113 
L 171.09033 237.743209 
L 171.334983 237.177624 
L 171.579636 238.722106 
L 171.824289 225.887679 
L 172.068942 225.169821 
L 172.313595 223.342547 
L 172.558248 222.929235 
L 172.802901 223.516573 
L 173.047554 225.49612 
L 173.292207 226.235731 
L 173.53686 224.821769 
L 173.781513 224.538977 
L 174.026166 224.952289 
L 174.270819 224.473717 
L 174.515472 224.538977 
L 175.004778 223.42956 
L 175.249431 224.256184 
L 175.494084 224.125665 
L 175.738737 223.320794 
L 175.98339 224.56073 
L 176.472696 223.712353 
L 176.717349 224.082158 
L 177.206655 223.799366 
L 177.451308 222.080858 
L 177.940614 223.103261 
L 178.185267 222.124364 
L 178.42992 222.080858 
L 178.674573 219.709752 
L 178.919226 218.926634 
L 179.163879 219.10066 
L 179.408532 218.948387 
L 179.653185 219.470466 
L 179.897838 220.645142 
L 180.142491 220.318843 
L 180.387144 220.840922 
L 180.631798 221.667546 
L 180.876451 221.711052 
L 181.365757 219.775012 
L 181.61041 219.426959 
L 182.099716 222.972742 
L 182.833675 221.493519 
L 183.078328 220.23183 
L 183.322981 221.036701 
L 183.567634 218.991894 
L 183.812287 219.122414 
L 184.05694 216.250983 
L 184.546246 216.16397 
L 184.790899 221.341247 
L 185.035552 219.600985 
L 185.769511 225.039302 
L 186.014164 224.691249 
L 186.258817 226.649043 
L 186.50347 226.409757 
L 186.748123 225.387354 
L 186.992776 225.49612 
L 187.237429 225.191575 
L 187.482082 227.279888 
L 187.971388 223.451313 
L 188.216041 222.407157 
L 188.460694 220.536376 
L 188.705347 220.144817 
L 188.95 221.123714 
L 189.683959 218.056504 
L 189.928612 217.599685 
L 190.173265 216.729554 
L 190.417918 217.904231 
L 190.662571 218.03475 
L 190.907224 218.774361 
L 191.151877 219.035401 
L 191.39653 217.425659 
L 191.641183 217.055853 
L 191.885836 217.316893 
L 192.130489 218.469816 
L 192.619795 217.077607 
L 192.864448 218.274036 
L 193.353754 216.990594 
L 193.84306 220.275337 
L 194.087713 219.209427 
L 194.332366 220.536376 
L 194.577019 218.709102 
L 194.821672 219.883778 
L 195.066325 220.101311 
L 195.310978 219.970791 
L 195.555631 219.535726 
L 195.800284 221.819818 
L 196.044937 221.515273 
L 196.534243 222.276637 
L 196.778896 223.299041 
L 197.268202 221.537026 
L 197.512855 221.42826 
L 197.757508 223.777612 
L 198.002161 222.994495 
L 198.246814 223.581833 
L 198.491467 224.62599 
L 198.73612 227.453914 
L 198.980773 228.541577 
L 199.225426 227.127615 
L 199.470079 228.780863 
L 199.714732 225.191575 
L 200.204038 222.102611 
L 200.448691 223.49482 
L 200.693344 220.906181 
L 200.937997 220.666895 
L 201.427303 218.208776 
L 201.916609 213.053253 
L 202.161262 210.616887 
L 202.405915 210.63864 
L 202.650568 211.334745 
L 203.384528 210.682147 
L 203.629181 209.986042 
L 203.873834 210.247081 
L 204.118487 210.116562 
L 204.36314 209.57273 
L 204.607793 209.529224 
L 204.852446 209.681496 
L 205.097099 206.483767 
L 205.341752 205.222077 
L 205.586405 205.874675 
L 205.831058 205.135064 
L 206.075711 204.895778 
L 206.320364 204.003894 
L 206.565017 204.721752 
L 206.80967 204.17792 
L 207.054323 205.874675 
L 207.298976 204.830518 
L 207.543629 199.696748 
L 207.788282 198.609084 
L 208.032935 198.239279 
L 208.766894 202.372399 
L 209.011547 201.589282 
L 209.2562 202.067854 
L 209.500853 200.871424 
L 209.745506 200.871424 
L 209.990159 199.544475 
L 210.234812 196.97759 
L 210.479465 196.520771 
L 210.724118 195.65064 
L 210.968771 195.672394 
L 211.458077 194.606484 
L 211.70273 196.216225 
L 211.947383 196.673044 
L 212.192036 197.456161 
L 212.436689 197.78246 
L 212.681342 198.435058 
L 212.925995 199.762008 
L 213.170648 197.91298 
L 213.415301 195.063302 
L 214.14926 198.761357 
L 214.393913 197.717201 
L 214.638566 198.282786 
L 214.883219 195.128562 
L 215.127872 195.737653 
L 215.372525 195.172069 
L 215.617178 192.365897 
L 215.861831 191.430507 
L 216.106484 192.104858 
L 216.351137 194.432458 
L 216.59579 180.945433 
L 216.840443 179.379198 
L 217.085096 180.401602 
L 217.329749 180.162316 
L 217.574402 181.141213 
L 217.819055 181.075953 
L 218.063708 177.073352 
L 218.553014 181.685044 
L 218.797667 180.619134 
L 219.04232 180.205822 
L 219.286973 177.486664 
L 219.531626 177.073352 
L 219.776279 176.268481 
L 220.020932 174.441207 
L 220.265585 175.441857 
L 220.510238 174.288934 
L 220.754891 174.549973 
L 220.999544 174.3977 
L 221.244197 174.898025 
L 221.48885 174.158414 
L 221.733503 175.354844 
L 221.978156 174.767506 
L 222.222809 176.464261 
L 222.467462 175.311337 
L 222.712115 174.919779 
L 222.956768 177.138612 
L 223.201421 176.486014 
L 223.446074 179.988289 
L 223.690727 179.901276 
L 223.93538 179.966536 
L 224.180033 179.444458 
L 224.424686 178.335041 
L 224.669339 181.902577 
L 224.913992 178.748353 
L 225.158645 178.030496 
L 225.403298 175.137311 
L 225.647952 175.159065 
L 225.892605 173.658089 
L 226.137258 177.72595 
L 226.381911 177.747703 
L 226.871217 170.373346 
L 227.11587 171.809062 
L 227.360523 175.159065 
L 227.605176 174.332441 
L 227.849829 175.485364 
L 228.094482 174.006142 
L 228.339135 173.244777 
L 228.583788 174.65874 
L 228.828441 172.809712 
L 229.073094 175.028545 
L 229.5624 176.050948 
L 229.807053 176.050948 
L 230.051706 177.856469 
L 230.785665 169.655489 
L 231.030318 169.481462 
L 231.274971 169.459709 
L 231.519624 169.568475 
L 232.00893 172.222374 
L 232.253583 173.375297 
L 232.498236 170.677892 
L 232.742889 170.721399 
L 232.987542 171.047697 
L 233.232195 167.19737 
L 233.476848 168.633085 
L 233.721501 165.130809 
L 233.966154 163.586328 
L 234.210807 163.86912 
L 234.45546 165.457108 
L 234.700113 162.498664 
L 234.944766 162.955483 
L 235.189419 162.041846 
L 235.434072 163.542821 
L 235.678725 164.347692 
L 235.923378 163.368795 
L 236.168031 163.651587 
L 236.412684 163.7386 
L 236.657337 160.823663 
L 237.146643 163.216522 
L 237.635949 162.73795 
L 237.880602 161.889573 
L 238.125255 163.499314 
L 238.369908 162.911976 
L 238.614561 165.609381 
L 238.859214 165.348342 
L 239.103867 163.716847 
L 239.34852 163.586328 
L 239.593173 163.238275 
L 239.837826 165.805161 
L 240.571785 157.756452 
L 241.061091 154.819762 
L 241.305744 154.906775 
L 241.550397 152.513916 
L 241.79505 153.014241 
L 242.039703 152.622682 
L 242.284356 155.689892 
L 242.529009 155.080801 
L 242.773662 151.817811 
L 243.018315 152.252876 
L 243.262968 151.796058 
L 243.507621 147.706444 
L 243.752274 149.642485 
L 244.486233 139.766502 
L 244.730886 142.572673 
L 244.975539 142.028842 
L 245.464845 139.918775 
L 245.709498 137.047344 
L 246.443457 143.529817 
L 246.68811 142.48566 
L 246.932763 144.81326 
L 247.422069 142.724946 
L 247.666722 142.463907 
L 248.156029 145.357091 
L 248.400682 143.55157 
L 248.645335 136.242473 
L 249.134641 140.158061 
L 249.379294 138.831112 
L 249.8686 139.374943 
L 250.113253 140.114554 
L 250.357906 141.332737 
L 250.602559 139.41845 
L 250.847212 139.092151 
L 251.091865 143.964882 
L 251.581171 157.190868 
L 251.825824 161.171715 
L 252.070477 161.519767 
L 252.31513 155.428853 
L 252.804436 152.01359 
L 253.049089 155.842165 
L 253.293742 161.759053 
L 253.783048 156.625283 
L 254.027701 155.363593 
L 254.272354 150.730148 
L 254.517007 152.296383 
L 254.76166 150.208069 
L 255.006313 149.838264 
L 255.250966 151.056447 
L 255.984925 145.161312 
L 256.229578 147.314885 
L 256.474231 146.205469 
L 256.718884 150.316836 
L 256.963537 148.641834 
L 257.20819 150.055797 
L 257.452843 148.576575 
L 257.697496 155.167814 
L 257.942149 156.168464 
L 258.186802 152.361643 
L 258.676108 155.102554 
L 258.920761 152.709695 
L 259.165414 154.972035 
L 259.899373 158.256778 
L 260.144026 151.578525 
L 260.388679 150.904174 
L 260.633332 146.227222 
L 260.877985 145.357091 
L 261.367291 142.48566 
L 261.611944 142.463907 
L 261.856597 141.397997 
L 262.10125 137.591176 
L 262.345903 136.764552 
L 262.590556 138.591826 
L 263.079862 132.740197 
L 263.324515 134.284679 
L 263.569168 142.964232 
L 264.058474 143.334038 
L 264.303127 138.135007 
L 264.54778 138.635332 
L 265.037086 145.422351 
L 265.281739 145.661637 
L 265.771045 143.856116 
L 266.260351 151.839564 
L 266.505004 151.600278 
L 266.749657 150.904174 
L 266.99431 145.117805 
L 267.238963 142.202868 
L 267.728269 153.862618 
L 267.972922 148.533068 
L 268.217575 149.903524 
L 268.462228 152.27463 
L 268.951534 148.902874 
L 269.196187 153.514566 
L 269.44084 146.640534 
L 269.685493 145.74865 
L 269.930146 145.313585 
L 270.174799 153.797358 
L 270.419452 155.363593 
L 270.664106 153.623332 
L 271.153412 142.398647 
L 271.398065 143.029492 
L 271.642718 145.030792 
L 271.887371 149.685991 
L 272.132024 150.273329 
L 272.376677 149.490212 
L 272.62133 150.425602 
L 273.110636 149.229172 
L 273.355289 147.793457 
L 273.599942 148.228522 
L 273.844595 150.251576 
L 274.089248 155.950931 
L 274.823207 163.86912 
L 275.06786 162.411651 
L 275.557166 156.995088 
L 275.801819 161.86782 
L 276.291125 156.037945 
L 276.535778 153.188267 
L 276.780431 154.319437 
L 277.025084 153.927878 
L 277.269737 148.859367 
L 277.51439 147.641184 
L 277.759043 145.661637 
L 278.003696 148.576575 
L 278.248349 147.923977 
L 278.493002 159.322688 
L 278.737655 160.084052 
L 278.982308 167.784708 
L 279.471614 171.983088 
L 279.716267 179.009393 
L 279.96092 177.225625 
L 280.205573 173.027245 
L 280.450226 171.439256 
L 280.694879 173.157764 
L 280.939532 170.851918 
L 281.184185 170.612632 
L 281.428838 169.568475 
L 281.673491 172.809712 
L 281.918144 170.155814 
L 282.162797 162.107105 
L 282.40745 165.913927 
L 282.896756 159.039895 
L 283.141409 159.54022 
L 283.386062 159.518467 
L 283.630715 159.997039 
L 283.875368 157.299634 
L 284.120021 155.972685 
L 284.364674 158.778856 
L 284.609327 159.583727 
L 285.098633 162.781457 
L 285.343286 160.693143 
L 285.587939 161.60678 
L 285.832592 159.496714 
L 286.077245 158.800609 
L 286.321898 156.777556 
L 286.566551 156.168464 
L 286.811204 159.061648 
L 287.30051 160.649637 
L 287.545163 160.80191 
L 287.789816 158.235024 
L 288.034469 159.997039 
L 288.279122 159.126908 
L 288.523775 156.103204 
L 288.768428 155.27658 
L 289.257734 156.34249 
L 289.502387 156.734049 
L 289.74704 157.364894 
L 289.991693 156.53827 
L 290.236346 160.67139 
L 290.480999 159.997039 
L 290.725652 162.346391 
L 290.970305 162.781457 
L 291.214958 158.844116 
L 291.459611 158.47431 
L 291.704264 154.34119 
L 292.438223 156.603529 
L 292.682876 155.776905 
L 292.92753 156.451257 
L 293.172183 156.320737 
L 293.416836 157.625933 
L 293.661489 161.933079 
L 293.906142 164.173666 
L 294.150795 165.196069 
L 294.395448 162.93373 
L 294.640101 164.695744 
L 294.884754 165.130809 
L 295.129407 164.347692 
L 295.37406 160.649637 
L 295.618713 159.387947 
L 295.863366 159.344441 
L 296.108019 140.114554 
L 296.352672 136.568772 
L 296.597325 136.15546 
L 296.841978 133.066496 
L 297.086631 136.28598 
L 297.331284 137.699942 
L 297.575937 139.853515 
L 297.82059 140.701893 
L 298.065243 140.4191 
L 298.309896 135.829161 
L 298.554549 136.721045 
L 298.799202 136.351239 
L 299.043855 135.067797 
L 299.288508 132.783704 
L 299.533161 133.066496 
L 299.777814 133.15351 
L 300.022467 133.632081 
L 300.26712 133.349289 
L 300.511773 131.696041 
L 300.756426 133.806107 
L 301.001079 133.871367 
L 301.490385 138.243774 
L 301.735038 137.634682 
L 301.979691 137.917475 
L 302.224344 136.590525 
L 302.468997 137.634682 
L 302.71365 135.916174 
L 302.958303 135.481109 
L 303.202956 137.025591 
L 303.447609 134.306433 
L 303.936915 144.204168 
L 304.426221 139.331437 
L 304.670874 134.937277 
L 304.915527 134.697991 
L 305.16018 134.654485 
L 305.404833 132.805457 
L 305.649486 133.066496 
L 306.138792 127.519414 
L 306.383445 126.779803 
L 306.628098 130.89117 
L 306.872751 129.95578 
L 307.117404 130.434351 
L 307.362057 129.498961 
L 307.60671 133.327536 
L 307.851363 132.89247 
L 308.096016 135.763901 
L 308.585322 132.457405 
L 308.829975 132.587925 
L 309.074628 132.95773 
L 309.319281 133.806107 
L 309.563934 133.719094 
L 309.808587 133.044743 
L 310.05324 132.718444 
L 310.297893 128.69409 
L 310.542546 129.564221 
L 310.787199 126.061945 
L 311.276505 128.563571 
L 311.521158 128.82461 
L 312.010464 131.304482 
L 312.255117 126.845063 
L 312.49977 129.95578 
L 312.989076 123.582073 
L 313.233729 121.885318 
L 313.478382 122.472656 
L 313.723035 120.688889 
L 313.967688 120.449603 
L 314.212341 122.342137 
L 314.456994 123.081748 
L 314.9463 121.950578 
L 315.190953 123.038241 
L 315.435607 121.885318 
L 315.68026 118.187263 
L 315.924913 117.295379 
L 316.169566 119.731745 
L 316.414219 121.015188 
L 316.658872 126.018439 
L 316.903525 123.886619 
L 317.148178 123.821359 
L 317.392831 123.908372 
L 317.637484 118.383042 
L 317.882137 119.427199 
L 318.12679 119.688238 
L 318.371443 119.209667 
L 318.616096 118.16551 
L 318.860749 118.818108 
L 319.105402 116.447002 
L 319.350055 118.10025 
L 319.594708 114.402195 
L 319.839361 114.83726 
L 320.084014 116.447002 
L 320.328667 113.96713 
L 320.57332 113.945376 
L 320.817973 113.619077 
L 321.062626 113.814857 
L 321.551932 117.425899 
L 321.796585 115.402845 
L 322.285891 120.210317 
L 322.530544 121.885318 
L 322.775197 120.079797 
L 323.01985 120.667135 
L 323.264503 116.990833 
L 323.509156 119.709992 
L 323.753809 120.23207 
L 323.998462 119.470706 
L 324.243115 116.686288 
L 324.487768 119.318433 
L 324.732421 120.10155 
L 324.977074 119.797005 
L 325.221727 126.910322 
L 325.711033 130.412598 
L 326.200339 124.582723 
L 326.444992 125.235321 
L 326.689645 123.36454 
L 326.934298 122.472656 
L 327.423604 132.696691 
L 327.668257 131.260975 
L 327.91291 133.588575 
L 328.646869 126.540517 
L 329.380828 130.608377 
L 329.625481 127.127855 
L 329.870134 127.519414 
L 330.114787 128.476557 
L 330.35944 122.733695 
L 330.604093 127.367141 
L 330.848746 135.328836 
L 331.093399 134.719745 
L 331.338052 131.260975 
L 331.582705 132.522665 
L 331.827358 130.173312 
L 332.072011 130.543118 
L 332.316664 128.433051 
L 332.561317 124.36519 
L 332.80597 124.060645 
L 333.050623 124.191164 
L 333.295276 122.42915 
L 333.539929 126.779803 
L 334.029235 126.801556 
L 334.518541 126.170711 
L 334.763194 124.256424 
L 335.007847 123.36454 
L 335.2525 124.887269 
L 335.497153 125.365841 
L 335.741806 128.411298 
L 335.986459 127.519414 
L 336.231112 124.343437 
L 336.475765 127.976232 
L 336.720418 127.867466 
L 336.965071 128.672337 
L 337.454377 127.845713 
L 337.943684 124.952529 
L 338.188337 125.213568 
L 338.43299 124.56097 
L 338.677643 124.887269 
L 339.166949 125.974932 
L 339.411602 124.604476 
L 339.656255 122.49441 
L 339.900908 122.015838 
L 340.145561 118.839861 
L 340.390214 117.360639 
L 341.124173 120.253823 
L 341.368826 122.929475 
L 341.613479 122.407397 
L 341.858132 120.906421 
L 342.102785 122.49441 
L 342.347438 118.622328 
L 342.592091 112.292128 
L 342.836744 111.965829 
L 343.081397 112.531414 
L 343.32605 108.420047 
L 343.570703 108.63758 
L 343.815356 109.834009 
L 344.060009 109.311931 
L 344.304662 109.659983 
L 344.549315 111.247971 
L 344.793968 111.487257 
L 345.038621 110.486607 
L 345.283274 111.57427 
L 345.527927 108.702839 
L 345.77258 110.464854 
L 346.017233 109.964529 
L 346.261886 110.182061 
L 346.751192 106.135954 
L 346.995845 106.070694 
L 347.485151 102.372639 
L 347.729804 102.002834 
L 347.974457 100.675885 
L 348.21911 103.525562 
L 348.953069 107.419397 
L 349.197722 106.701539 
L 349.442375 106.984331 
L 349.687028 105.37459 
L 349.931681 106.092448 
L 350.176334 104.526213 
L 350.420987 104.439199 
L 350.66564 103.395043 
L 351.154946 105.896668 
L 351.399599 105.526863 
L 351.644252 107.44115 
L 352.133558 106.723292 
L 352.378211 106.701539 
L 352.622864 104.656732 
L 352.867517 104.069394 
L 353.11217 106.092448 
L 353.356823 105.679136 
L 353.601476 105.700889 
L 353.846129 104.721992 
L 354.090782 101.328483 
L 354.580088 97.84796 
L 354.824741 97.456401 
L 355.314047 94.737243 
L 355.5587 93.475554 
L 355.803353 93.540814 
L 356.048006 94.71549 
L 356.292659 95.020036 
L 356.537312 93.606073 
L 356.781965 91.474253 
L 357.026618 91.496007 
L 357.271271 90.886915 
L 357.515924 64.456698 
L 358.00523 62.433644 
L 358.249883 58.496303 
L 358.494536 56.625523 
L 358.739189 70.808651 
L 358.983842 67.13235 
L 359.717801 62.60767 
L 359.962454 55.429093 
L 360.207107 52.122597 
L 360.451761 55.820652 
L 360.941067 53.21026 
L 361.430373 50.621621 
L 361.675026 50.251816 
L 361.919679 52.427142 
L 362.164332 48.772594 
L 362.408985 51.121946 
L 362.653638 59.453447 
L 362.898291 62.846956 
L 363.142944 60.497604 
L 363.387597 60.410591 
L 363.63225 59.301174 
L 363.876903 59.344681 
L 364.121556 52.514155 
L 364.366209 52.905714 
L 364.610862 53.558312 
L 364.855515 54.754742 
L 365.100168 58.561563 
L 365.344821 56.40799 
L 365.589474 64.108646 
L 365.834127 63.042736 
L 366.07878 67.676181 
L 366.323433 69.764495 
L 366.568086 70.417093 
L 366.812739 67.502155 
L 367.057392 69.699235 
L 367.302045 66.00118 
L 367.546698 65.152802 
L 367.791351 63.891113 
L 368.036004 58.974875 
L 368.280657 62.67293 
L 368.52531 62.651177 
L 368.769963 61.67228 
L 369.014616 59.845006 
L 369.259269 57.017081 
L 369.748575 55.624872 
L 369.993228 52.296623 
L 370.237881 52.492402 
L 370.482534 43.051485 
L 370.727187 43.921616 
L 370.97184 42.507653 
L 371.216493 45.792396 
L 371.461146 45.400838 
L 371.705799 45.596617 
L 371.950452 41.202458 
L 372.195105 44.74824 
L 372.439758 45.313825 
L 372.929064 47.162852 
L 373.173717 51.774544 
L 373.663023 44.987526 
L 373.907676 44.291421 
L 374.152329 40.332327 
L 374.396982 46.379735 
L 374.641635 45.487851 
L 374.886288 45.574864 
L 375.130941 40.810899 
L 375.375594 42.659926 
L 375.620247 43.443044 
L 375.8649 45.379084 
L 376.109553 41.463497 
L 376.354206 40.375833 
L 376.598859 34.415439 
L 376.843512 35.437842 
L 377.088165 40.201807 
L 377.577471 45.226812 
L 377.822124 41.028431 
L 378.066777 42.442394 
L 378.31143 36.112193 
L 379.045389 40.462846 
L 379.290042 39.962521 
L 379.534695 38.787845 
L 380.024001 37.961221 
L 380.268654 43.007979 
L 380.513307 41.963822 
L 380.75796 51.317726 
L 381.002613 51.926817 
L 381.247266 47.467398 
L 381.491919 46.075189 
L 381.736572 42.920965 
L 381.981225 43.160251 
L 382.225878 43.138498 
L 382.470531 41.833302 
L 382.959838 38.505053 
L 383.204491 41.702783 
L 383.449144 43.443044 
L 383.693797 47.293372 
L 384.183103 41.702783 
L 384.672409 47.445645 
L 384.917062 53.580065 
L 385.161715 53.775845 
L 385.406368 52.579415 
L 385.651021 52.492402 
L 385.895674 53.07974 
L 387.118939 39.570963 
L 387.363592 50.730388 
L 387.608245 54.602469 
L 387.852898 53.493052 
L 387.852898 53.493052 
" style="fill:none;stroke:#ff7f0e;stroke-linecap:square;stroke-width:1.5;"/>
   </g>
   <g id="patch_3">
    <path d="M 46.965625 288.430125 
L 46.965625 22.318125 
" style="fill:none;stroke:#000000;stroke-linecap:square;stroke-linejoin:miter;stroke-width:0.8;"/>
   </g>
   <g id="patch_4">
    <path d="M 404.085625 288.430125 
L 404.085625 22.318125 
" style="fill:none;stroke:#000000;stroke-linecap:square;stroke-linejoin:miter;stroke-width:0.8;"/>
   </g>
   <g id="patch_5">
    <path d="M 46.965625 288.430125 
L 404.085625 288.430125 
" style="fill:none;stroke:#000000;stroke-linecap:square;stroke-linejoin:miter;stroke-width:0.8;"/>
   </g>
   <g id="patch_6">
    <path d="M 46.965625 22.318125 
L 404.085625 22.318125 
" style="fill:none;stroke:#000000;stroke-linecap:square;stroke-linejoin:miter;stroke-width:0.8;"/>
   </g>
   <g id="text_16">
    <!-- Training: EA -->
    <defs>
     <path d="M -0.296875 72.90625 
L 61.375 72.90625 
L 61.375 64.59375 
L 35.5 64.59375 
L 35.5 0 
L 25.59375 0 
L 25.59375 64.59375 
L -0.296875 64.59375 
z
" id="DejaVuSans-84"/>
     <path d="M 54.890625 33.015625 
L 54.890625 0 
L 45.90625 0 
L 45.90625 32.71875 
Q 45.90625 40.484375 42.875 44.328125 
Q 39.84375 48.1875 33.796875 48.1875 
Q 26.515625 48.1875 22.3125 43.546875 
Q 18.109375 38.921875 18.109375 30.90625 
L 18.109375 0 
L 9.078125 0 
L 9.078125 54.6875 
L 18.109375 54.6875 
L 18.109375 46.1875 
Q 21.34375 51.125 25.703125 53.5625 
Q 30.078125 56 35.796875 56 
Q 45.21875 56 50.046875 50.171875 
Q 54.890625 44.34375 54.890625 33.015625 
z
" id="DejaVuSans-110"/>
     <path d="M 45.40625 27.984375 
Q 45.40625 37.75 41.375 43.109375 
Q 37.359375 48.484375 30.078125 48.484375 
Q 22.859375 48.484375 18.828125 43.109375 
Q 14.796875 37.75 14.796875 27.984375 
Q 14.796875 18.265625 18.828125 12.890625 
Q 22.859375 7.515625 30.078125 7.515625 
Q 37.359375 7.515625 41.375 12.890625 
Q 45.40625 18.265625 45.40625 27.984375 
z
M 54.390625 6.78125 
Q 54.390625 -7.171875 48.1875 -13.984375 
Q 42 -20.796875 29.203125 -20.796875 
Q 24.46875 -20.796875 20.265625 -20.09375 
Q 16.0625 -19.390625 12.109375 -17.921875 
L 12.109375 -9.1875 
Q 16.0625 -11.328125 19.921875 -12.34375 
Q 23.78125 -13.375 27.78125 -13.375 
Q 36.625 -13.375 41.015625 -8.765625 
Q 45.40625 -4.15625 45.40625 5.171875 
L 45.40625 9.625 
Q 42.625 4.78125 38.28125 2.390625 
Q 33.9375 0 27.875 0 
Q 17.828125 0 11.671875 7.65625 
Q 5.515625 15.328125 5.515625 27.984375 
Q 5.515625 40.671875 11.671875 48.328125 
Q 17.828125 56 27.875 56 
Q 33.9375 56 38.28125 53.609375 
Q 42.625 51.21875 45.40625 46.390625 
L 45.40625 54.6875 
L 54.390625 54.6875 
z
" id="DejaVuSans-103"/>
     <path d="M 11.71875 12.40625 
L 22.015625 12.40625 
L 22.015625 0 
L 11.71875 0 
z
M 11.71875 51.703125 
L 22.015625 51.703125 
L 22.015625 39.3125 
L 11.71875 39.3125 
z
" id="DejaVuSans-58"/>
     <path d="M 9.8125 72.90625 
L 55.90625 72.90625 
L 55.90625 64.59375 
L 19.671875 64.59375 
L 19.671875 43.015625 
L 54.390625 43.015625 
L 54.390625 34.71875 
L 19.671875 34.71875 
L 19.671875 8.296875 
L 56.78125 8.296875 
L 56.78125 0 
L 9.8125 0 
z
" id="DejaVuSans-69"/>
     <path d="M 34.1875 63.1875 
L 20.796875 26.90625 
L 47.609375 26.90625 
z
M 28.609375 72.90625 
L 39.796875 72.90625 
L 67.578125 0 
L 57.328125 0 
L 50.6875 18.703125 
L 17.828125 18.703125 
L 11.1875 0 
L 0.78125 0 
z
" id="DejaVuSans-65"/>
    </defs>
    <g transform="translate(190.030938 16.318125)scale(0.12 -0.12)">
     <use xlink:href="#DejaVuSans-84"/>
     <use x="46.333984" xlink:href="#DejaVuSans-114"/>
     <use x="87.447266" xlink:href="#DejaVuSans-97"/>
     <use x="148.726562" xlink:href="#DejaVuSans-105"/>
     <use x="176.509766" xlink:href="#DejaVuSans-110"/>
     <use x="239.888672" xlink:href="#DejaVuSans-105"/>
     <use x="267.671875" xlink:href="#DejaVuSans-110"/>
     <use x="331.050781" xlink:href="#DejaVuSans-103"/>
     <use x="394.527344" xlink:href="#DejaVuSans-58"/>
     <use x="428.21875" xlink:href="#DejaVuSans-32"/>
     <use x="460.005859" xlink:href="#DejaVuSans-69"/>
     <use x="523.189453" xlink:href="#DejaVuSans-65"/>
    </g>
   </g>
   <g id="legend_1">
    <g id="patch_7">
     <path d="M 53.965625 59.674375 
L 137.69375 59.674375 
Q 139.69375 59.674375 139.69375 57.674375 
L 139.69375 29.318125 
Q 139.69375 27.318125 137.69375 27.318125 
L 53.965625 27.318125 
Q 51.965625 27.318125 51.965625 29.318125 
L 51.965625 57.674375 
Q 51.965625 59.674375 53.965625 59.674375 
z
" style="fill:#ffffff;opacity:0.8;stroke:#cccccc;stroke-linejoin:miter;"/>
    </g>
    <g id="line2d_29">
     <path d="M 55.965625 35.416562 
L 75.965625 35.416562 
" style="fill:none;stroke:#1f77b4;stroke-linecap:square;stroke-width:1.5;"/>
    </g>
    <g id="line2d_30"/>
    <g id="text_17">
     <!-- Predicted -->
     <defs>
      <path d="M 45.40625 46.390625 
L 45.40625 75.984375 
L 54.390625 75.984375 
L 54.390625 0 
L 45.40625 0 
L 45.40625 8.203125 
Q 42.578125 3.328125 38.25 0.953125 
Q 33.9375 -1.421875 27.875 -1.421875 
Q 17.96875 -1.421875 11.734375 6.484375 
Q 5.515625 14.40625 5.515625 27.296875 
Q 5.515625 40.1875 11.734375 48.09375 
Q 17.96875 56 27.875 56 
Q 33.9375 56 38.25 53.625 
Q 42.578125 51.265625 45.40625 46.390625 
z
M 14.796875 27.296875 
Q 14.796875 17.390625 18.875 11.75 
Q 22.953125 6.109375 30.078125 6.109375 
Q 37.203125 6.109375 41.296875 11.75 
Q 45.40625 17.390625 45.40625 27.296875 
Q 45.40625 37.203125 41.296875 42.84375 
Q 37.203125 48.484375 30.078125 48.484375 
Q 22.953125 48.484375 18.875 42.84375 
Q 14.796875 37.203125 14.796875 27.296875 
z
" id="DejaVuSans-100"/>
      <path d="M 18.3125 70.21875 
L 18.3125 54.6875 
L 36.8125 54.6875 
L 36.8125 47.703125 
L 18.3125 47.703125 
L 18.3125 18.015625 
Q 18.3125 11.328125 20.140625 9.421875 
Q 21.96875 7.515625 27.59375 7.515625 
L 36.8125 7.515625 
L 36.8125 0 
L 27.59375 0 
Q 17.1875 0 13.234375 3.875 
Q 9.28125 7.765625 9.28125 18.015625 
L 9.28125 47.703125 
L 2.6875 47.703125 
L 2.6875 54.6875 
L 9.28125 54.6875 
L 9.28125 70.21875 
z
" id="DejaVuSans-116"/>
     </defs>
     <g transform="translate(83.965625 38.916562)scale(0.1 -0.1)">
      <use xlink:href="#DejaVuSans-80"/>
      <use x="58.552734" xlink:href="#DejaVuSans-114"/>
      <use x="97.416016" xlink:href="#DejaVuSans-101"/>
      <use x="158.939453" xlink:href="#DejaVuSans-100"/>
      <use x="222.416016" xlink:href="#DejaVuSans-105"/>
      <use x="250.199219" xlink:href="#DejaVuSans-99"/>
      <use x="305.179688" xlink:href="#DejaVuSans-116"/>
      <use x="344.388672" xlink:href="#DejaVuSans-101"/>
      <use x="405.912109" xlink:href="#DejaVuSans-100"/>
     </g>
    </g>
    <g id="line2d_31">
     <path d="M 55.965625 50.094687 
L 75.965625 50.094687 
" style="fill:none;stroke:#ff7f0e;stroke-linecap:square;stroke-width:1.5;"/>
    </g>
    <g id="line2d_32"/>
    <g id="text_18">
     <!-- True value -->
     <defs>
      <path d="M 8.5 21.578125 
L 8.5 54.6875 
L 17.484375 54.6875 
L 17.484375 21.921875 
Q 17.484375 14.15625 20.5 10.265625 
Q 23.53125 6.390625 29.59375 6.390625 
Q 36.859375 6.390625 41.078125 11.03125 
Q 45.3125 15.671875 45.3125 23.6875 
L 45.3125 54.6875 
L 54.296875 54.6875 
L 54.296875 0 
L 45.3125 0 
L 45.3125 8.40625 
Q 42.046875 3.421875 37.71875 1 
Q 33.40625 -1.421875 27.6875 -1.421875 
Q 18.265625 -1.421875 13.375 4.4375 
Q 8.5 10.296875 8.5 21.578125 
z
M 31.109375 56 
z
" id="DejaVuSans-117"/>
      <path d="M 2.984375 54.6875 
L 12.5 54.6875 
L 29.59375 8.796875 
L 46.6875 54.6875 
L 56.203125 54.6875 
L 35.6875 0 
L 23.484375 0 
z
" id="DejaVuSans-118"/>
      <path d="M 9.421875 75.984375 
L 18.40625 75.984375 
L 18.40625 0 
L 9.421875 0 
z
" id="DejaVuSans-108"/>
     </defs>
     <g transform="translate(83.965625 53.594687)scale(0.1 -0.1)">
      <use xlink:href="#DejaVuSans-84"/>
      <use x="46.333984" xlink:href="#DejaVuSans-114"/>
      <use x="87.447266" xlink:href="#DejaVuSans-117"/>
      <use x="150.826172" xlink:href="#DejaVuSans-101"/>
      <use x="212.349609" xlink:href="#DejaVuSans-32"/>
      <use x="244.136719" xlink:href="#DejaVuSans-118"/>
      <use x="303.316406" xlink:href="#DejaVuSans-97"/>
      <use x="364.595703" xlink:href="#DejaVuSans-108"/>
      <use x="392.378906" xlink:href="#DejaVuSans-117"/>
      <use x="455.757812" xlink:href="#DejaVuSans-101"/>
     </g>
    </g>
   </g>
  </g>
 </g>
 <defs>
  <clipPath id="pf9f29eef08">
   <rect height="266.112" width="357.12" x="46.965625" y="22.318125"/>
  </clipPath>
 </defs>
</svg>
