<?xml version="1.0" encoding="utf-8" standalone="no"?>
<!DOCTYPE svg PUBLIC "-//W3C//DTD SVG 1.1//EN"
  "http://www.w3.org/Graphics/SVG/1.1/DTD/svg11.dtd">
<!-- Created with matplotlib (https://matplotlib.org/) -->
<svg height="325.986375pt" version="1.1" viewBox="0 0 404.923125 325.986375" width="404.923125pt" xmlns="http://www.w3.org/2000/svg" xmlns:xlink="http://www.w3.org/1999/xlink">
 <defs>
  <style type="text/css">
*{stroke-linecap:butt;stroke-linejoin:round;}
  </style>
 </defs>
 <g id="figure_1">
  <g id="patch_1">
   <path d="M 0 325.986375 
L 404.923125 325.986375 
L 404.923125 0 
L 0 0 
z
" style="fill:#ffffff;"/>
  </g>
  <g id="axes_1">
   <g id="patch_2">
    <path d="M 40.603125 288.430125 
L 397.723125 288.430125 
L 397.723125 22.318125 
L 40.603125 22.318125 
z
" style="fill:#ffffff;"/>
   </g>
   <g id="matplotlib.axis_1">
    <g id="xtick_1">
     <g id="line2d_1">
      <path clip-path="url(#pec2a702037)" d="M 56.835852 288.430125 
L 56.835852 22.318125 
" style="fill:none;stroke:#b0b0b0;stroke-dasharray:2.96,1.28;stroke-dashoffset:0;stroke-width:0.8;"/>
     </g>
     <g id="line2d_2">
      <defs>
       <path d="M 0 0 
L 0 3.5 
" id="maeb09e0dbc" style="stroke:#000000;stroke-width:0.8;"/>
      </defs>
      <g>
       <use style="stroke:#000000;stroke-width:0.8;" x="56.835852" xlink:href="#maeb09e0dbc" y="288.430125"/>
      </g>
     </g>
     <g id="text_1">
      <!-- 0 -->
      <defs>
       <path d="M 31.78125 66.40625 
Q 24.171875 66.40625 20.328125 58.90625 
Q 16.5 51.421875 16.5 36.375 
Q 16.5 21.390625 20.328125 13.890625 
Q 24.171875 6.390625 31.78125 6.390625 
Q 39.453125 6.390625 43.28125 13.890625 
Q 47.125 21.390625 47.125 36.375 
Q 47.125 51.421875 43.28125 58.90625 
Q 39.453125 66.40625 31.78125 66.40625 
z
M 31.78125 74.21875 
Q 44.046875 74.21875 50.515625 64.515625 
Q 56.984375 54.828125 56.984375 36.375 
Q 56.984375 17.96875 50.515625 8.265625 
Q 44.046875 -1.421875 31.78125 -1.421875 
Q 19.53125 -1.421875 13.0625 8.265625 
Q 6.59375 17.96875 6.59375 36.375 
Q 6.59375 54.828125 13.0625 64.515625 
Q 19.53125 74.21875 31.78125 74.21875 
z
" id="DejaVuSans-48"/>
      </defs>
      <g transform="translate(53.654602 303.028562)scale(0.1 -0.1)">
       <use xlink:href="#DejaVuSans-48"/>
      </g>
     </g>
    </g>
    <g id="xtick_2">
     <g id="line2d_3">
      <path clip-path="url(#pec2a702037)" d="M 105.766454 288.430125 
L 105.766454 22.318125 
" style="fill:none;stroke:#b0b0b0;stroke-dasharray:2.96,1.28;stroke-dashoffset:0;stroke-width:0.8;"/>
     </g>
     <g id="line2d_4">
      <g>
       <use style="stroke:#000000;stroke-width:0.8;" x="105.766454" xlink:href="#maeb09e0dbc" y="288.430125"/>
      </g>
     </g>
     <g id="text_2">
      <!-- 200 -->
      <defs>
       <path d="M 19.1875 8.296875 
L 53.609375 8.296875 
L 53.609375 0 
L 7.328125 0 
L 7.328125 8.296875 
Q 12.9375 14.109375 22.625 23.890625 
Q 32.328125 33.6875 34.8125 36.53125 
Q 39.546875 41.84375 41.421875 45.53125 
Q 43.3125 49.21875 43.3125 52.78125 
Q 43.3125 58.59375 39.234375 62.25 
Q 35.15625 65.921875 28.609375 65.921875 
Q 23.96875 65.921875 18.8125 64.3125 
Q 13.671875 62.703125 7.8125 59.421875 
L 7.8125 69.390625 
Q 13.765625 71.78125 18.9375 73 
Q 24.125 74.21875 28.421875 74.21875 
Q 39.75 74.21875 46.484375 68.546875 
Q 53.21875 62.890625 53.21875 53.421875 
Q 53.21875 48.921875 51.53125 44.890625 
Q 49.859375 40.875 45.40625 35.40625 
Q 44.1875 33.984375 37.640625 27.21875 
Q 31.109375 20.453125 19.1875 8.296875 
z
" id="DejaVuSans-50"/>
      </defs>
      <g transform="translate(96.222704 303.028562)scale(0.1 -0.1)">
       <use xlink:href="#DejaVuSans-50"/>
       <use x="63.623047" xlink:href="#DejaVuSans-48"/>
       <use x="127.246094" xlink:href="#DejaVuSans-48"/>
      </g>
     </g>
    </g>
    <g id="xtick_3">
     <g id="line2d_5">
      <path clip-path="url(#pec2a702037)" d="M 154.697057 288.430125 
L 154.697057 22.318125 
" style="fill:none;stroke:#b0b0b0;stroke-dasharray:2.96,1.28;stroke-dashoffset:0;stroke-width:0.8;"/>
     </g>
     <g id="line2d_6">
      <g>
       <use style="stroke:#000000;stroke-width:0.8;" x="154.697057" xlink:href="#maeb09e0dbc" y="288.430125"/>
      </g>
     </g>
     <g id="text_3">
      <!-- 400 -->
      <defs>
       <path d="M 37.796875 64.3125 
L 12.890625 25.390625 
L 37.796875 25.390625 
z
M 35.203125 72.90625 
L 47.609375 72.90625 
L 47.609375 25.390625 
L 58.015625 25.390625 
L 58.015625 17.1875 
L 47.609375 17.1875 
L 47.609375 0 
L 37.796875 0 
L 37.796875 17.1875 
L 4.890625 17.1875 
L 4.890625 26.703125 
z
" id="DejaVuSans-52"/>
      </defs>
      <g transform="translate(145.153307 303.028562)scale(0.1 -0.1)">
       <use xlink:href="#DejaVuSans-52"/>
       <use x="63.623047" xlink:href="#DejaVuSans-48"/>
       <use x="127.246094" xlink:href="#DejaVuSans-48"/>
      </g>
     </g>
    </g>
    <g id="xtick_4">
     <g id="line2d_7">
      <path clip-path="url(#pec2a702037)" d="M 203.627659 288.430125 
L 203.627659 22.318125 
" style="fill:none;stroke:#b0b0b0;stroke-dasharray:2.96,1.28;stroke-dashoffset:0;stroke-width:0.8;"/>
     </g>
     <g id="line2d_8">
      <g>
       <use style="stroke:#000000;stroke-width:0.8;" x="203.627659" xlink:href="#maeb09e0dbc" y="288.430125"/>
      </g>
     </g>
     <g id="text_4">
      <!-- 600 -->
      <defs>
       <path d="M 33.015625 40.375 
Q 26.375 40.375 22.484375 35.828125 
Q 18.609375 31.296875 18.609375 23.390625 
Q 18.609375 15.53125 22.484375 10.953125 
Q 26.375 6.390625 33.015625 6.390625 
Q 39.65625 6.390625 43.53125 10.953125 
Q 47.40625 15.53125 47.40625 23.390625 
Q 47.40625 31.296875 43.53125 35.828125 
Q 39.65625 40.375 33.015625 40.375 
z
M 52.59375 71.296875 
L 52.59375 62.3125 
Q 48.875 64.0625 45.09375 64.984375 
Q 41.3125 65.921875 37.59375 65.921875 
Q 27.828125 65.921875 22.671875 59.328125 
Q 17.53125 52.734375 16.796875 39.40625 
Q 19.671875 43.65625 24.015625 45.921875 
Q 28.375 48.1875 33.59375 48.1875 
Q 44.578125 48.1875 50.953125 41.515625 
Q 57.328125 34.859375 57.328125 23.390625 
Q 57.328125 12.15625 50.6875 5.359375 
Q 44.046875 -1.421875 33.015625 -1.421875 
Q 20.359375 -1.421875 13.671875 8.265625 
Q 6.984375 17.96875 6.984375 36.375 
Q 6.984375 53.65625 15.1875 63.9375 
Q 23.390625 74.21875 37.203125 74.21875 
Q 40.921875 74.21875 44.703125 73.484375 
Q 48.484375 72.75 52.59375 71.296875 
z
" id="DejaVuSans-54"/>
      </defs>
      <g transform="translate(194.083909 303.028562)scale(0.1 -0.1)">
       <use xlink:href="#DejaVuSans-54"/>
       <use x="63.623047" xlink:href="#DejaVuSans-48"/>
       <use x="127.246094" xlink:href="#DejaVuSans-48"/>
      </g>
     </g>
    </g>
    <g id="xtick_5">
     <g id="line2d_9">
      <path clip-path="url(#pec2a702037)" d="M 252.558261 288.430125 
L 252.558261 22.318125 
" style="fill:none;stroke:#b0b0b0;stroke-dasharray:2.96,1.28;stroke-dashoffset:0;stroke-width:0.8;"/>
     </g>
     <g id="line2d_10">
      <g>
       <use style="stroke:#000000;stroke-width:0.8;" x="252.558261" xlink:href="#maeb09e0dbc" y="288.430125"/>
      </g>
     </g>
     <g id="text_5">
      <!-- 800 -->
      <defs>
       <path d="M 31.78125 34.625 
Q 24.75 34.625 20.71875 30.859375 
Q 16.703125 27.09375 16.703125 20.515625 
Q 16.703125 13.921875 20.71875 10.15625 
Q 24.75 6.390625 31.78125 6.390625 
Q 38.8125 6.390625 42.859375 10.171875 
Q 46.921875 13.96875 46.921875 20.515625 
Q 46.921875 27.09375 42.890625 30.859375 
Q 38.875 34.625 31.78125 34.625 
z
M 21.921875 38.8125 
Q 15.578125 40.375 12.03125 44.71875 
Q 8.5 49.078125 8.5 55.328125 
Q 8.5 64.0625 14.71875 69.140625 
Q 20.953125 74.21875 31.78125 74.21875 
Q 42.671875 74.21875 48.875 69.140625 
Q 55.078125 64.0625 55.078125 55.328125 
Q 55.078125 49.078125 51.53125 44.71875 
Q 48 40.375 41.703125 38.8125 
Q 48.828125 37.15625 52.796875 32.3125 
Q 56.78125 27.484375 56.78125 20.515625 
Q 56.78125 9.90625 50.3125 4.234375 
Q 43.84375 -1.421875 31.78125 -1.421875 
Q 19.734375 -1.421875 13.25 4.234375 
Q 6.78125 9.90625 6.78125 20.515625 
Q 6.78125 27.484375 10.78125 32.3125 
Q 14.796875 37.15625 21.921875 38.8125 
z
M 18.3125 54.390625 
Q 18.3125 48.734375 21.84375 45.5625 
Q 25.390625 42.390625 31.78125 42.390625 
Q 38.140625 42.390625 41.71875 45.5625 
Q 45.3125 48.734375 45.3125 54.390625 
Q 45.3125 60.0625 41.71875 63.234375 
Q 38.140625 66.40625 31.78125 66.40625 
Q 25.390625 66.40625 21.84375 63.234375 
Q 18.3125 60.0625 18.3125 54.390625 
z
" id="DejaVuSans-56"/>
      </defs>
      <g transform="translate(243.014511 303.028562)scale(0.1 -0.1)">
       <use xlink:href="#DejaVuSans-56"/>
       <use x="63.623047" xlink:href="#DejaVuSans-48"/>
       <use x="127.246094" xlink:href="#DejaVuSans-48"/>
      </g>
     </g>
    </g>
    <g id="xtick_6">
     <g id="line2d_11">
      <path clip-path="url(#pec2a702037)" d="M 301.488863 288.430125 
L 301.488863 22.318125 
" style="fill:none;stroke:#b0b0b0;stroke-dasharray:2.96,1.28;stroke-dashoffset:0;stroke-width:0.8;"/>
     </g>
     <g id="line2d_12">
      <g>
       <use style="stroke:#000000;stroke-width:0.8;" x="301.488863" xlink:href="#maeb09e0dbc" y="288.430125"/>
      </g>
     </g>
     <g id="text_6">
      <!-- 1000 -->
      <defs>
       <path d="M 12.40625 8.296875 
L 28.515625 8.296875 
L 28.515625 63.921875 
L 10.984375 60.40625 
L 10.984375 69.390625 
L 28.421875 72.90625 
L 38.28125 72.90625 
L 38.28125 8.296875 
L 54.390625 8.296875 
L 54.390625 0 
L 12.40625 0 
z
" id="DejaVuSans-49"/>
      </defs>
      <g transform="translate(288.763863 303.028562)scale(0.1 -0.1)">
       <use xlink:href="#DejaVuSans-49"/>
       <use x="63.623047" xlink:href="#DejaVuSans-48"/>
       <use x="127.246094" xlink:href="#DejaVuSans-48"/>
       <use x="190.869141" xlink:href="#DejaVuSans-48"/>
      </g>
     </g>
    </g>
    <g id="xtick_7">
     <g id="line2d_13">
      <path clip-path="url(#pec2a702037)" d="M 350.419465 288.430125 
L 350.419465 22.318125 
" style="fill:none;stroke:#b0b0b0;stroke-dasharray:2.96,1.28;stroke-dashoffset:0;stroke-width:0.8;"/>
     </g>
     <g id="line2d_14">
      <g>
       <use style="stroke:#000000;stroke-width:0.8;" x="350.419465" xlink:href="#maeb09e0dbc" y="288.430125"/>
      </g>
     </g>
     <g id="text_7">
      <!-- 1200 -->
      <g transform="translate(337.694465 303.028562)scale(0.1 -0.1)">
       <use xlink:href="#DejaVuSans-49"/>
       <use x="63.623047" xlink:href="#DejaVuSans-50"/>
       <use x="127.246094" xlink:href="#DejaVuSans-48"/>
       <use x="190.869141" xlink:href="#DejaVuSans-48"/>
      </g>
     </g>
    </g>
    <g id="text_8">
     <!-- Day -->
     <defs>
      <path d="M 19.671875 64.796875 
L 19.671875 8.109375 
L 31.59375 8.109375 
Q 46.6875 8.109375 53.6875 14.9375 
Q 60.6875 21.78125 60.6875 36.53125 
Q 60.6875 51.171875 53.6875 57.984375 
Q 46.6875 64.796875 31.59375 64.796875 
z
M 9.8125 72.90625 
L 30.078125 72.90625 
Q 51.265625 72.90625 61.171875 64.09375 
Q 71.09375 55.28125 71.09375 36.53125 
Q 71.09375 17.671875 61.125 8.828125 
Q 51.171875 0 30.078125 0 
L 9.8125 0 
z
" id="DejaVuSans-68"/>
      <path d="M 34.28125 27.484375 
Q 23.390625 27.484375 19.1875 25 
Q 14.984375 22.515625 14.984375 16.5 
Q 14.984375 11.71875 18.140625 8.90625 
Q 21.296875 6.109375 26.703125 6.109375 
Q 34.1875 6.109375 38.703125 11.40625 
Q 43.21875 16.703125 43.21875 25.484375 
L 43.21875 27.484375 
z
M 52.203125 31.203125 
L 52.203125 0 
L 43.21875 0 
L 43.21875 8.296875 
Q 40.140625 3.328125 35.546875 0.953125 
Q 30.953125 -1.421875 24.3125 -1.421875 
Q 15.921875 -1.421875 10.953125 3.296875 
Q 6 8.015625 6 15.921875 
Q 6 25.140625 12.171875 29.828125 
Q 18.359375 34.515625 30.609375 34.515625 
L 43.21875 34.515625 
L 43.21875 35.40625 
Q 43.21875 41.609375 39.140625 45 
Q 35.0625 48.390625 27.6875 48.390625 
Q 23 48.390625 18.546875 47.265625 
Q 14.109375 46.140625 10.015625 43.890625 
L 10.015625 52.203125 
Q 14.9375 54.109375 19.578125 55.046875 
Q 24.21875 56 28.609375 56 
Q 40.484375 56 46.34375 49.84375 
Q 52.203125 43.703125 52.203125 31.203125 
z
" id="DejaVuSans-97"/>
      <path d="M 32.171875 -5.078125 
Q 28.375 -14.84375 24.75 -17.8125 
Q 21.140625 -20.796875 15.09375 -20.796875 
L 7.90625 -20.796875 
L 7.90625 -13.28125 
L 13.1875 -13.28125 
Q 16.890625 -13.28125 18.9375 -11.515625 
Q 21 -9.765625 23.484375 -3.21875 
L 25.09375 0.875 
L 2.984375 54.6875 
L 12.5 54.6875 
L 29.59375 11.921875 
L 46.6875 54.6875 
L 56.203125 54.6875 
z
" id="DejaVuSans-121"/>
     </defs>
     <g transform="translate(209.289688 316.706687)scale(0.1 -0.1)">
      <use xlink:href="#DejaVuSans-68"/>
      <use x="77.001953" xlink:href="#DejaVuSans-97"/>
      <use x="138.28125" xlink:href="#DejaVuSans-121"/>
     </g>
    </g>
   </g>
   <g id="matplotlib.axis_2">
    <g id="ytick_1">
     <g id="line2d_15">
      <path clip-path="url(#pec2a702037)" d="M 40.603125 275.66951 
L 397.723125 275.66951 
" style="fill:none;stroke:#b0b0b0;stroke-dasharray:2.96,1.28;stroke-dashoffset:0;stroke-width:0.8;"/>
     </g>
     <g id="line2d_16">
      <defs>
       <path d="M 0 0 
L -3.5 0 
" id="m1d4356170f" style="stroke:#000000;stroke-width:0.8;"/>
      </defs>
      <g>
       <use style="stroke:#000000;stroke-width:0.8;" x="40.603125" xlink:href="#m1d4356170f" y="275.66951"/>
      </g>
     </g>
     <g id="text_9">
      <!-- 36 -->
      <defs>
       <path d="M 40.578125 39.3125 
Q 47.65625 37.796875 51.625 33 
Q 55.609375 28.21875 55.609375 21.1875 
Q 55.609375 10.40625 48.1875 4.484375 
Q 40.765625 -1.421875 27.09375 -1.421875 
Q 22.515625 -1.421875 17.65625 -0.515625 
Q 12.796875 0.390625 7.625 2.203125 
L 7.625 11.71875 
Q 11.71875 9.328125 16.59375 8.109375 
Q 21.484375 6.890625 26.8125 6.890625 
Q 36.078125 6.890625 40.9375 10.546875 
Q 45.796875 14.203125 45.796875 21.1875 
Q 45.796875 27.640625 41.28125 31.265625 
Q 36.765625 34.90625 28.71875 34.90625 
L 20.21875 34.90625 
L 20.21875 43.015625 
L 29.109375 43.015625 
Q 36.375 43.015625 40.234375 45.921875 
Q 44.09375 48.828125 44.09375 54.296875 
Q 44.09375 59.90625 40.109375 62.90625 
Q 36.140625 65.921875 28.71875 65.921875 
Q 24.65625 65.921875 20.015625 65.03125 
Q 15.375 64.15625 9.8125 62.3125 
L 9.8125 71.09375 
Q 15.4375 72.65625 20.34375 73.4375 
Q 25.25 74.21875 29.59375 74.21875 
Q 40.828125 74.21875 47.359375 69.109375 
Q 53.90625 64.015625 53.90625 55.328125 
Q 53.90625 49.265625 50.4375 45.09375 
Q 46.96875 40.921875 40.578125 39.3125 
z
" id="DejaVuSans-51"/>
      </defs>
      <g transform="translate(20.878125 279.468728)scale(0.1 -0.1)">
       <use xlink:href="#DejaVuSans-51"/>
       <use x="63.623047" xlink:href="#DejaVuSans-54"/>
      </g>
     </g>
    </g>
    <g id="ytick_2">
     <g id="line2d_17">
      <path clip-path="url(#pec2a702037)" d="M 40.603125 231.361817 
L 397.723125 231.361817 
" style="fill:none;stroke:#b0b0b0;stroke-dasharray:2.96,1.28;stroke-dashoffset:0;stroke-width:0.8;"/>
     </g>
     <g id="line2d_18">
      <g>
       <use style="stroke:#000000;stroke-width:0.8;" x="40.603125" xlink:href="#m1d4356170f" y="231.361817"/>
      </g>
     </g>
     <g id="text_10">
      <!-- 38 -->
      <g transform="translate(20.878125 235.161036)scale(0.1 -0.1)">
       <use xlink:href="#DejaVuSans-51"/>
       <use x="63.623047" xlink:href="#DejaVuSans-56"/>
      </g>
     </g>
    </g>
    <g id="ytick_3">
     <g id="line2d_19">
      <path clip-path="url(#pec2a702037)" d="M 40.603125 187.054125 
L 397.723125 187.054125 
" style="fill:none;stroke:#b0b0b0;stroke-dasharray:2.96,1.28;stroke-dashoffset:0;stroke-width:0.8;"/>
     </g>
     <g id="line2d_20">
      <g>
       <use style="stroke:#000000;stroke-width:0.8;" x="40.603125" xlink:href="#m1d4356170f" y="187.054125"/>
      </g>
     </g>
     <g id="text_11">
      <!-- 40 -->
      <g transform="translate(20.878125 190.853344)scale(0.1 -0.1)">
       <use xlink:href="#DejaVuSans-52"/>
       <use x="63.623047" xlink:href="#DejaVuSans-48"/>
      </g>
     </g>
    </g>
    <g id="ytick_4">
     <g id="line2d_21">
      <path clip-path="url(#pec2a702037)" d="M 40.603125 142.746433 
L 397.723125 142.746433 
" style="fill:none;stroke:#b0b0b0;stroke-dasharray:2.96,1.28;stroke-dashoffset:0;stroke-width:0.8;"/>
     </g>
     <g id="line2d_22">
      <g>
       <use style="stroke:#000000;stroke-width:0.8;" x="40.603125" xlink:href="#m1d4356170f" y="142.746433"/>
      </g>
     </g>
     <g id="text_12">
      <!-- 42 -->
      <g transform="translate(20.878125 146.545651)scale(0.1 -0.1)">
       <use xlink:href="#DejaVuSans-52"/>
       <use x="63.623047" xlink:href="#DejaVuSans-50"/>
      </g>
     </g>
    </g>
    <g id="ytick_5">
     <g id="line2d_23">
      <path clip-path="url(#pec2a702037)" d="M 40.603125 98.43874 
L 397.723125 98.43874 
" style="fill:none;stroke:#b0b0b0;stroke-dasharray:2.96,1.28;stroke-dashoffset:0;stroke-width:0.8;"/>
     </g>
     <g id="line2d_24">
      <g>
       <use style="stroke:#000000;stroke-width:0.8;" x="40.603125" xlink:href="#m1d4356170f" y="98.43874"/>
      </g>
     </g>
     <g id="text_13">
      <!-- 44 -->
      <g transform="translate(20.878125 102.237959)scale(0.1 -0.1)">
       <use xlink:href="#DejaVuSans-52"/>
       <use x="63.623047" xlink:href="#DejaVuSans-52"/>
      </g>
     </g>
    </g>
    <g id="ytick_6">
     <g id="line2d_25">
      <path clip-path="url(#pec2a702037)" d="M 40.603125 54.131048 
L 397.723125 54.131048 
" style="fill:none;stroke:#b0b0b0;stroke-dasharray:2.96,1.28;stroke-dashoffset:0;stroke-width:0.8;"/>
     </g>
     <g id="line2d_26">
      <g>
       <use style="stroke:#000000;stroke-width:0.8;" x="40.603125" xlink:href="#m1d4356170f" y="54.131048"/>
      </g>
     </g>
     <g id="text_14">
      <!-- 46 -->
      <g transform="translate(20.878125 57.930267)scale(0.1 -0.1)">
       <use xlink:href="#DejaVuSans-52"/>
       <use x="63.623047" xlink:href="#DejaVuSans-54"/>
      </g>
     </g>
    </g>
    <g id="text_15">
     <!-- Price $ -->
     <defs>
      <path d="M 19.671875 64.796875 
L 19.671875 37.40625 
L 32.078125 37.40625 
Q 38.96875 37.40625 42.71875 40.96875 
Q 46.484375 44.53125 46.484375 51.125 
Q 46.484375 57.671875 42.71875 61.234375 
Q 38.96875 64.796875 32.078125 64.796875 
z
M 9.8125 72.90625 
L 32.078125 72.90625 
Q 44.34375 72.90625 50.609375 67.359375 
Q 56.890625 61.8125 56.890625 51.125 
Q 56.890625 40.328125 50.609375 34.8125 
Q 44.34375 29.296875 32.078125 29.296875 
L 19.671875 29.296875 
L 19.671875 0 
L 9.8125 0 
z
" id="DejaVuSans-80"/>
      <path d="M 41.109375 46.296875 
Q 39.59375 47.171875 37.8125 47.578125 
Q 36.03125 48 33.890625 48 
Q 26.265625 48 22.1875 43.046875 
Q 18.109375 38.09375 18.109375 28.8125 
L 18.109375 0 
L 9.078125 0 
L 9.078125 54.6875 
L 18.109375 54.6875 
L 18.109375 46.1875 
Q 20.953125 51.171875 25.484375 53.578125 
Q 30.03125 56 36.53125 56 
Q 37.453125 56 38.578125 55.875 
Q 39.703125 55.765625 41.0625 55.515625 
z
" id="DejaVuSans-114"/>
      <path d="M 9.421875 54.6875 
L 18.40625 54.6875 
L 18.40625 0 
L 9.421875 0 
z
M 9.421875 75.984375 
L 18.40625 75.984375 
L 18.40625 64.59375 
L 9.421875 64.59375 
z
" id="DejaVuSans-105"/>
      <path d="M 48.78125 52.59375 
L 48.78125 44.1875 
Q 44.96875 46.296875 41.140625 47.34375 
Q 37.3125 48.390625 33.40625 48.390625 
Q 24.65625 48.390625 19.8125 42.84375 
Q 14.984375 37.3125 14.984375 27.296875 
Q 14.984375 17.28125 19.8125 11.734375 
Q 24.65625 6.203125 33.40625 6.203125 
Q 37.3125 6.203125 41.140625 7.25 
Q 44.96875 8.296875 48.78125 10.40625 
L 48.78125 2.09375 
Q 45.015625 0.34375 40.984375 -0.53125 
Q 36.96875 -1.421875 32.421875 -1.421875 
Q 20.0625 -1.421875 12.78125 6.34375 
Q 5.515625 14.109375 5.515625 27.296875 
Q 5.515625 40.671875 12.859375 48.328125 
Q 20.21875 56 33.015625 56 
Q 37.15625 56 41.109375 55.140625 
Q 45.0625 54.296875 48.78125 52.59375 
z
" id="DejaVuSans-99"/>
      <path d="M 56.203125 29.59375 
L 56.203125 25.203125 
L 14.890625 25.203125 
Q 15.484375 15.921875 20.484375 11.0625 
Q 25.484375 6.203125 34.421875 6.203125 
Q 39.59375 6.203125 44.453125 7.46875 
Q 49.3125 8.734375 54.109375 11.28125 
L 54.109375 2.78125 
Q 49.265625 0.734375 44.1875 -0.34375 
Q 39.109375 -1.421875 33.890625 -1.421875 
Q 20.796875 -1.421875 13.15625 6.1875 
Q 5.515625 13.8125 5.515625 26.8125 
Q 5.515625 40.234375 12.765625 48.109375 
Q 20.015625 56 32.328125 56 
Q 43.359375 56 49.78125 48.890625 
Q 56.203125 41.796875 56.203125 29.59375 
z
M 47.21875 32.234375 
Q 47.125 39.59375 43.09375 43.984375 
Q 39.0625 48.390625 32.421875 48.390625 
Q 24.90625 48.390625 20.390625 44.140625 
Q 15.875 39.890625 15.1875 32.171875 
z
" id="DejaVuSans-101"/>
      <path id="DejaVuSans-32"/>
      <path d="M 33.796875 -14.703125 
L 28.90625 -14.703125 
L 28.859375 0 
Q 23.734375 0.09375 18.609375 1.1875 
Q 13.484375 2.296875 8.296875 4.5 
L 8.296875 13.28125 
Q 13.28125 10.15625 18.375 8.5625 
Q 23.484375 6.984375 28.90625 6.9375 
L 28.90625 29.203125 
Q 18.109375 30.953125 13.203125 35.15625 
Q 8.296875 39.359375 8.296875 46.6875 
Q 8.296875 54.640625 13.625 59.21875 
Q 18.953125 63.8125 28.90625 64.5 
L 28.90625 75.984375 
L 33.796875 75.984375 
L 33.796875 64.65625 
Q 38.328125 64.453125 42.578125 63.6875 
Q 46.828125 62.9375 50.875 61.625 
L 50.875 53.078125 
Q 46.828125 55.125 42.546875 56.25 
Q 38.28125 57.375 33.796875 57.5625 
L 33.796875 36.71875 
Q 44.875 35.015625 50.09375 30.609375 
Q 55.328125 26.21875 55.328125 18.609375 
Q 55.328125 10.359375 49.78125 5.59375 
Q 44.234375 0.828125 33.796875 0.09375 
z
M 28.90625 37.59375 
L 28.90625 57.625 
Q 23.25 56.984375 20.265625 54.390625 
Q 17.28125 51.8125 17.28125 47.515625 
Q 17.28125 43.3125 20.03125 40.96875 
Q 22.796875 38.625 28.90625 37.59375 
z
M 33.796875 28.21875 
L 33.796875 7.078125 
Q 39.984375 7.90625 43.140625 10.59375 
Q 46.296875 13.28125 46.296875 17.671875 
Q 46.296875 21.96875 43.28125 24.5 
Q 40.28125 27.046875 33.796875 28.21875 
z
" id="DejaVuSans-36"/>
     </defs>
     <g transform="translate(14.798438 172.342094)rotate(-90)scale(0.1 -0.1)">
      <use xlink:href="#DejaVuSans-80"/>
      <use x="58.552734" xlink:href="#DejaVuSans-114"/>
      <use x="99.666016" xlink:href="#DejaVuSans-105"/>
      <use x="127.449219" xlink:href="#DejaVuSans-99"/>
      <use x="182.429688" xlink:href="#DejaVuSans-101"/>
      <use x="243.953125" xlink:href="#DejaVuSans-32"/>
      <use x="275.740234" xlink:href="#DejaVuSans-36"/>
     </g>
    </g>
   </g>
   <g id="line2d_27">
    <path clip-path="url(#pec2a702037)" d="M 56.835852 186.613489 
L 57.080505 174.924712 
L 57.325158 172.500114 
L 57.569811 178.13179 
L 57.814464 179.612831 
L 58.059117 191.982169 
L 58.30377 185.285411 
L 58.548423 185.018865 
L 58.793076 191.216084 
L 59.771688 205.054886 
L 60.016341 202.00187 
L 60.260994 203.150701 
L 60.505647 199.448224 
L 60.7503 199.684092 
L 60.994953 200.663566 
L 61.239606 203.096361 
L 61.728912 224.664129 
L 61.973566 222.299618 
L 62.462872 231.130006 
L 62.952178 247.159988 
L 63.196831 244.710375 
L 63.441484 247.165988 
L 63.686137 244.234836 
L 63.93079 232.29836 
L 64.175443 233.496799 
L 64.420096 237.553036 
L 64.664749 236.96045 
L 64.909402 240.806172 
L 65.154055 228.695266 
L 65.398708 229.170383 
L 65.643361 225.621883 
L 65.888014 219.396692 
L 66.132667 220.24847 
L 66.37732 218.190055 
L 66.621973 228.549909 
L 66.866626 229.731869 
L 67.111279 236.068107 
L 67.355932 235.275063 
L 67.600585 228.000339 
L 67.845238 232.488761 
L 68.089891 224.948506 
L 68.334544 224.306904 
L 68.579197 225.464356 
L 68.82385 224.089037 
L 69.068503 220.896833 
L 69.557809 219.468526 
L 69.802462 225.762931 
L 70.047115 227.829459 
L 70.291768 226.808914 
L 70.536421 228.997221 
L 70.781074 233.584521 
L 71.025727 235.444168 
L 71.27038 235.62316 
L 71.759686 246.565205 
L 72.004339 257.431951 
L 72.248992 256.535721 
L 72.493645 253.406476 
L 72.738298 253.496733 
L 73.227604 247.115789 
L 73.472257 249.059271 
L 73.71691 255.734986 
L 73.961563 247.986075 
L 74.450869 262.195539 
L 74.940175 271.452788 
L 75.184828 271.171031 
L 75.429481 273.623686 
L 75.918787 265.304923 
L 76.16344 252.636588 
L 76.408093 250.099338 
L 76.652746 245.690863 
L 76.897399 236.043599 
L 77.142052 243.000649 
L 77.386705 242.177688 
L 77.631358 243.463596 
L 77.876011 235.549552 
L 78.120664 234.370888 
L 78.60997 246.63949 
L 78.854623 246.399058 
L 79.099276 245.462009 
L 79.343929 240.299111 
L 79.588582 239.867602 
L 79.833235 235.967286 
L 80.077888 238.175369 
L 80.322541 239.141574 
L 80.567194 239.12332 
L 80.811847 241.15165 
L 81.0565 245.283439 
L 81.301153 254.013429 
L 81.545806 253.547693 
L 82.035112 259.239625 
L 82.279765 264.063806 
L 82.524418 265.721136 
L 82.769071 272.601958 
L 83.013724 272.032866 
L 83.258377 249.208093 
L 83.747683 238.912636 
L 84.236989 249.834652 
L 84.726296 253.668627 
L 84.970949 256.392138 
L 85.215602 254.613874 
L 85.460255 249.273504 
L 85.704908 247.381489 
L 86.194214 239.710497 
L 86.438867 246.785777 
L 86.928173 250.063506 
L 87.417479 252.947839 
L 87.906785 243.526809 
L 88.151438 246.441482 
L 88.396091 241.564398 
L 88.640744 244.176186 
L 88.885397 232.336981 
L 89.13005 226.487944 
L 89.374703 214.354221 
L 89.619356 213.850878 
L 89.864009 216.331844 
L 90.108662 235.369292 
L 90.597968 252.007832 
L 90.842621 247.943144 
L 91.087274 241.122747 
L 91.331927 238.330614 
L 91.57658 238.164721 
L 91.821233 225.151838 
L 92.065886 231.854681 
L 92.555192 223.303768 
L 92.799845 216.385339 
L 93.044498 215.851911 
L 93.289151 214.113198 
L 93.533804 214.651781 
L 94.02311 207.514386 
L 94.512416 202.422392 
L 95.001722 215.064107 
L 95.246375 210.148739 
L 95.491028 212.87039 
L 95.735681 214.295571 
L 96.46964 186.283223 
L 96.958946 183.528612 
L 97.203599 174.63425 
L 97.448252 180.327957 
L 97.692905 177.76417 
L 97.937558 177.636476 
L 98.182211 172.172383 
L 98.426864 179.199323 
L 98.671517 175.701614 
L 98.91617 182.840868 
L 99.160823 173.462262 
L 99.405476 171.060567 
L 99.894782 160.312473 
L 100.139435 163.122775 
L 100.384088 178.029786 
L 100.628741 142.79866 
L 100.873394 134.055571 
L 101.118047 136.878297 
L 101.3627 129.034228 
L 101.607353 127.152439 
L 101.852006 127.018743 
L 102.096659 134.728188 
L 102.341312 134.296003 
L 102.585965 138.143922 
L 102.830618 138.00279 
L 103.075271 137.188111 
L 103.319924 137.003034 
L 103.564577 143.178026 
L 103.80923 138.125245 
L 104.053883 140.020894 
L 104.298536 130.727305 
L 104.543189 132.468469 
L 104.787842 137.166139 
L 105.032495 139.060435 
L 105.277148 138.115611 
L 105.521801 133.208441 
L 106.011107 118.848972 
L 106.25576 120.584727 
L 106.500413 129.57129 
L 106.745066 133.348559 
L 106.98972 135.234827 
L 107.234373 143.228141 
L 107.479026 140.552632 
L 107.723679 130.631809 
L 108.457638 178.17844 
L 108.702291 173.576182 
L 108.946944 159.293195 
L 109.191597 167.846897 
L 109.43625 169.021335 
L 109.680903 157.35377 
L 109.925556 158.96538 
L 110.414862 174.012508 
L 110.659515 178.280612 
L 110.904168 178.065449 
L 111.393474 168.021579 
L 111.638127 172.704797 
L 111.88278 195.179106 
L 112.127433 191.394147 
L 112.372086 196.338671 
L 112.616739 193.147058 
L 112.861392 181.800885 
L 113.106045 179.052613 
L 113.350698 181.590878 
L 113.595351 175.275091 
L 113.840004 177.141837 
L 114.084657 177.03003 
L 114.573963 174.235615 
L 114.818616 168.344577 
L 115.063269 170.589845 
L 115.307922 164.936872 
L 115.552575 164.676918 
L 115.797228 163.850493 
L 116.041881 181.1281 
L 116.286534 170.922561 
L 116.531187 168.864231 
L 116.77584 164.186083 
L 117.020493 166.841732 
L 117.265146 165.319196 
L 117.509799 166.74032 
L 117.754452 169.137283 
L 118.243758 178.79528 
L 118.488411 178.259654 
L 118.733064 182.306595 
L 118.977717 175.087732 
L 119.22237 182.086614 
L 119.467023 180.351535 
L 119.711676 179.646889 
L 119.956329 182.796754 
L 120.200982 182.205605 
L 120.445635 183.064482 
L 120.934941 192.831919 
L 121.179594 196.73908 
L 121.424247 204.75986 
L 122.158206 214.545805 
L 122.402859 221.565055 
L 122.647512 223.171679 
L 122.892165 220.053252 
L 123.136818 225.776622 
L 123.381471 227.696102 
L 123.626124 224.438656 
L 123.870777 227.031514 
L 124.11543 226.556397 
L 124.360083 230.779119 
L 124.604736 222.446243 
L 124.849389 224.542857 
L 125.338695 219.897668 
L 125.828001 214.67705 
L 126.072654 220.382335 
L 126.56196 211.671444 
L 126.806613 212.232845 
L 127.051266 201.167247 
L 127.295919 201.44106 
L 127.540572 201.389847 
L 127.785225 213.438637 
L 128.029878 216.498329 
L 128.274531 221.095854 
L 128.519184 216.621207 
L 128.763837 221.999268 
L 129.00849 230.685313 
L 129.253143 231.8022 
L 129.74245 246.659603 
L 129.987103 248.432966 
L 130.231756 251.326257 
L 130.476409 248.328511 
L 130.721062 250.052097 
L 130.965715 238.473944 
L 131.210368 237.147978 
L 131.455021 234.758705 
L 131.699674 235.581919 
L 131.944327 230.700018 
L 132.433633 216.201952 
L 132.678286 213.214093 
L 132.922939 208.108071 
L 133.167592 207.048059 
L 133.412245 210.166909 
L 133.656898 208.656542 
L 134.146204 193.077422 
L 134.63551 194.408035 
L 134.880163 195.229474 
L 135.369469 198.162401 
L 135.614122 189.32576 
L 135.858775 189.399622 
L 136.103428 187.744489 
L 136.348081 189.023467 
L 136.592734 189.584868 
L 137.08204 182.806473 
L 137.326693 182.35747 
L 137.571346 182.947098 
L 138.060652 184.535805 
L 138.305305 179.1438 
L 138.549958 178.851141 
L 138.794611 177.408213 
L 139.039264 179.303609 
L 139.283917 183.176205 
L 139.52857 182.161152 
L 139.773223 185.282706 
L 140.017876 181.208469 
L 140.262529 180.37486 
L 140.507182 187.169819 
L 140.751835 178.766969 
L 140.996488 178.582483 
L 141.241141 186.933782 
L 141.485794 183.924712 
L 141.730447 197.56297 
L 141.9751 200.080783 
L 142.219753 201.086539 
L 142.464406 206.033007 
L 142.709059 192.977869 
L 142.953712 191.198844 
L 143.198365 186.116738 
L 143.932324 177.16888 
L 144.176977 172.387039 
L 144.666283 159.02572 
L 145.155589 173.69382 
L 145.400242 178.529072 
L 145.644895 177.270462 
L 146.134201 190.830295 
L 146.378854 185.208844 
L 146.623507 193.449267 
L 147.112813 191.677763 
L 147.357466 192.820849 
L 147.602119 199.181764 
L 147.846772 190.90272 
L 148.091425 189.48954 
L 148.580731 208.328811 
L 148.825384 212.519758 
L 149.070037 211.98954 
L 149.31469 227.443163 
L 149.559343 226.098352 
L 149.803996 232.660486 
L 150.048649 242.504405 
L 150.293302 241.888832 
L 150.537955 240.310604 
L 150.782608 228.924965 
L 151.027261 230.173519 
L 151.516567 217.171284 
L 151.76122 217.542791 
L 152.005874 217.351545 
L 152.250527 212.806163 
L 152.49518 236.35916 
L 152.739833 245.111883 
L 153.229139 247.131931 
L 154.452404 226.665669 
L 154.697057 228.425341 
L 154.94171 224.148617 
L 155.431016 220.896664 
L 155.920322 217.518621 
L 156.164975 214.40873 
L 156.654281 227.52142 
L 156.898934 227.256987 
L 157.143587 225.735972 
L 157.38824 223.413209 
L 157.632893 225.629236 
L 158.122199 220.458225 
L 158.366852 221.541561 
L 158.611505 217.766997 
L 158.856158 216.16874 
L 159.345464 210.497597 
L 160.324076 226.451436 
L 160.568729 225.459877 
L 161.058035 214.033589 
L 161.302688 210.896992 
L 161.547341 209.605761 
L 161.791994 213.26649 
L 162.036647 214.397236 
L 162.2813 188.581056 
L 162.525953 177.864991 
L 162.770606 172.80697 
L 163.015259 170.988733 
L 163.259912 170.941492 
L 163.504565 170.3353 
L 163.749218 170.764527 
L 164.238524 164.766415 
L 164.483177 170.700807 
L 164.72783 169.235315 
L 164.972483 170.869066 
L 165.217136 167.862446 
L 165.461789 169.773138 
L 165.706442 174.053411 
L 165.951095 168.346605 
L 166.195748 169.657021 
L 166.440401 167.965718 
L 166.685054 168.189247 
L 166.929707 163.873902 
L 167.17436 165.682336 
L 167.419013 172.126071 
L 167.663666 168.985165 
L 167.908319 171.759382 
L 168.152972 172.360165 
L 168.397625 169.463831 
L 168.642278 172.489803 
L 168.886931 173.119404 
L 169.131584 170.930083 
L 169.376237 172.69567 
L 169.62089 171.430214 
L 169.865543 168.614503 
L 170.110196 168.435088 
L 170.354849 167.545618 
L 170.599502 168.460272 
L 170.844155 167.624719 
L 171.088808 165.35393 
L 171.333461 166.044378 
L 171.578114 163.983258 
L 171.822767 166.673895 
L 172.06742 175.055449 
L 172.312073 177.638335 
L 172.556726 174.726704 
L 172.801379 167.617536 
L 173.290685 148.936806 
L 173.535338 148.437013 
L 173.779991 149.127039 
L 174.513951 142.661246 
L 175.003257 136.222582 
L 175.24791 135.412298 
L 175.492563 135.427256 
L 175.737216 136.983597 
L 176.226522 142.317543 
L 176.471175 143.175576 
L 176.715828 140.225155 
L 176.960481 142.158157 
L 177.205134 136.149143 
L 177.449787 138.811214 
L 177.69444 138.55912 
L 177.939093 141.407537 
L 178.183746 135.233813 
L 178.428399 134.696497 
L 178.673052 158.164815 
L 178.917705 166.024096 
L 179.162358 165.558867 
L 179.407011 165.370747 
L 179.896317 175.538678 
L 180.385623 197.298115 
L 180.630276 200.960873 
L 180.874929 200.563506 
L 181.119582 203.440487 
L 181.364235 193.541552 
L 181.608888 197.768161 
L 181.853541 197.526546 
L 182.5875 188.659566 
L 182.832153 184.022067 
L 183.321459 159.5425 
L 183.566112 157.675585 
L 183.810765 158.128053 
L 184.055418 154.957652 
L 184.300071 159.457652 
L 184.789377 152.384485 
L 185.278683 151.002489 
L 185.523336 149.487559 
L 185.767989 150.648307 
L 186.257295 144.744592 
L 186.746601 147.091187 
L 186.991254 144.545402 
L 187.235907 140.531335 
L 187.48056 144.145499 
L 187.725213 151.605047 
L 187.969866 153.204825 
L 188.214519 152.118362 
L 188.459172 151.75632 
L 188.703825 148.231061 
L 188.948478 142.224836 
L 189.193131 139.843084 
L 189.437784 143.221718 
L 189.682437 138.05189 
L 189.92709 144.491991 
L 190.171743 139.726629 
L 190.416396 138.694506 
L 190.661049 130.731531 
L 190.905702 127.271598 
L 191.150355 127.669726 
L 191.395008 121.658683 
L 192.128967 90.847357 
L 192.37362 95.957689 
L 192.618273 88.255513 
L 192.862926 92.942365 
L 193.352232 113.992677 
L 193.596885 126.34807 
L 193.841538 124.592962 
L 194.086191 117.581065 
L 194.330844 161.471023 
L 194.575497 168.405002 
L 195.064803 163.471718 
L 195.554109 171.494019 
L 195.798762 167.294369 
L 196.532721 145.878719 
L 196.777375 144.894767 
L 197.022028 136.122944 
L 197.266681 134.872616 
L 197.511334 134.615451 
L 197.755987 133.859085 
L 198.489946 124.715925 
L 198.734599 125.264734 
L 198.979252 122.482235 
L 199.713211 93.310238 
L 199.957864 86.386738 
L 200.202517 88.550623 
L 200.44717 88.288556 
L 200.691823 91.500029 
L 200.936476 83.447727 
L 201.181129 86.094671 
L 201.425782 86.087995 
L 201.915088 105.603686 
L 202.159741 108.782622 
L 202.404394 114.241728 
L 202.649047 135.667181 
L 202.8937 144.924514 
L 203.138353 149.160843 
L 203.627659 168.096117 
L 203.872312 174.740226 
L 204.361618 141.343732 
L 204.606271 140.502771 
L 204.850924 134.494855 
L 205.095577 123.286181 
L 205.34023 120.387987 
L 205.584883 119.343948 
L 206.074189 124.798575 
L 206.563495 138.310914 
L 206.808148 136.831056 
L 207.052801 132.238855 
L 207.542107 112.568257 
L 207.78676 117.163585 
L 208.031413 124.512677 
L 208.276066 125.915463 
L 208.520719 131.008978 
L 208.765372 132.683717 
L 209.010025 131.793486 
L 209.254678 120.626813 
L 209.499331 115.910721 
L 209.743984 106.986188 
L 209.988637 111.350549 
L 210.23329 117.955614 
L 210.722596 138.827778 
L 210.967249 141.712366 
L 211.211902 155.618099 
L 211.701208 151.656598 
L 211.945861 148.843845 
L 212.190514 147.871386 
L 212.67982 157.938919 
L 212.924473 135.148373 
L 213.169126 137.099798 
L 213.413779 137.469192 
L 214.147738 149.057825 
L 214.392391 143.616043 
L 214.881697 145.646232 
L 215.12635 141.086145 
L 215.371003 141.886288 
L 215.615656 135.249785 
L 215.860309 118.577947 
L 216.104962 116.537702 
L 216.349615 120.144006 
L 216.838921 132.573262 
L 217.083574 148.646513 
L 217.328227 154.195032 
L 217.817533 178.827901 
L 218.062186 176.481897 
L 218.306839 186.022678 
L 218.796145 176.355977 
L 219.040798 176.081065 
L 219.285452 183.270856 
L 219.530105 175.477493 
L 219.774758 173.239578 
L 220.019411 173.810106 
L 220.508717 178.456478 
L 220.75337 183.070651 
L 221.242676 175.291402 
L 221.487329 173.148391 
L 221.731982 172.026265 
L 221.976635 163.064801 
L 222.221288 163.195539 
L 222.465941 165.645659 
L 222.710594 164.726188 
L 222.955247 166.078098 
L 223.1999 169.384644 
L 223.444553 174.709126 
L 223.689206 176.654129 
L 223.933859 174.447652 
L 224.178512 179.108559 
L 224.423165 173.289693 
L 224.667818 170.327356 
L 224.912471 159.014311 
L 225.157124 163.704037 
L 225.891083 169.313318 
L 226.135736 174.710901 
L 226.380389 175.490677 
L 226.625042 169.794434 
L 226.869695 166.92489 
L 227.359001 170.896025 
L 227.603654 171.178205 
L 227.848307 165.607207 
L 228.09296 165.03634 
L 228.337613 170.200844 
L 228.582266 164.5739 
L 228.826919 155.613198 
L 229.071572 153.375198 
L 229.316225 156.542218 
L 229.560878 157.997907 
L 229.805531 156.590643 
L 230.050184 159.630222 
L 230.294837 160.909199 
L 230.53949 165.139443 
L 231.028796 162.549205 
L 231.273449 165.39796 
L 231.518102 164.643368 
L 232.007408 166.597667 
L 232.252061 171.714676 
L 232.496714 181.02111 
L 232.741367 182.623846 
L 232.98602 182.195126 
L 233.230673 179.502461 
L 233.964632 193.734489 
L 234.698591 175.510114 
L 234.943244 177.022931 
L 235.187897 174.697464 
L 235.677203 180.992123 
L 235.921856 184.557778 
L 236.166509 185.638494 
L 236.411162 196.225427 
L 236.655815 201.373029 
L 236.900468 198.835272 
L 237.145121 198.274293 
L 237.389774 199.917679 
L 237.634427 186.694703 
L 237.87908 188.954929 
L 238.123733 185.278143 
L 238.857692 162.905077 
L 239.102345 161.428346 
L 239.346998 154.321882 
L 239.591651 159.058764 
L 239.836304 156.50402 
L 240.080957 159.453764 
L 240.32561 165.239503 
L 240.570263 168.247137 
L 240.814916 174.916852 
L 241.059569 175.934609 
L 241.548875 173.852784 
L 241.793529 174.495569 
L 242.527488 148.66088 
L 242.772141 140.976113 
L 243.016794 142.560595 
L 243.261447 146.577703 
L 243.5061 148.389602 
L 243.995406 160.357094 
L 244.240059 162.157162 
L 244.484712 160.889762 
L 244.729365 158.968591 
L 244.974018 158.150955 
L 245.463324 172.783983 
L 245.707977 190.36008 
L 245.95263 220.629865 
L 246.197283 223.867958 
L 246.441936 217.181088 
L 246.931242 201.683604 
L 247.175895 202.150269 
L 247.420548 211.480113 
L 247.665201 210.046651 
L 247.909854 206.088023 
L 248.154507 216.842709 
L 248.39916 211.657584 
L 248.643813 219.492949 
L 248.888466 220.104296 
L 249.133119 227.429895 
L 249.377772 228.820426 
L 249.622425 223.143368 
L 250.111731 202.426618 
L 250.356384 207.90626 
L 250.601037 204.35869 
L 250.84569 211.84114 
L 251.090343 213.546979 
L 251.334996 208.903058 
L 251.579649 196.770011 
L 251.824302 196.675275 
L 252.068955 194.846981 
L 252.313608 185.826192 
L 252.558261 188.751851 
L 252.802914 182.659763 
L 253.047567 168.60808 
L 253.29222 164.328229 
L 253.781526 146.391105 
L 254.026179 142.594483 
L 254.270832 141.547909 
L 254.515485 148.045561 
L 254.760138 148.74725 
L 255.249444 142.593047 
L 255.494097 143.387189 
L 255.73875 138.027467 
L 255.983403 139.202159 
L 256.228056 118.992555 
L 256.472709 122.15087 
L 256.717362 127.008095 
L 256.962015 128.393387 
L 257.206668 128.097854 
L 257.451321 127.131818 
L 257.940627 136.50324 
L 258.429933 141.409059 
L 258.674586 137.403274 
L 259.163892 150.495766 
L 259.408545 148.880522 
L 259.653198 142.715079 
L 260.142504 153.161894 
L 260.387157 146.639311 
L 260.63181 148.561158 
L 260.876463 139.76263 
L 261.121116 123.2768 
L 261.365769 127.491494 
L 261.855075 114.779805 
L 262.099728 111.963333 
L 262.344381 116.506518 
L 262.589034 124.61147 
L 262.833687 122.346174 
L 263.07834 124.987709 
L 263.322993 130.313543 
L 263.567646 118.411209 
L 263.812299 116.480911 
L 264.056952 119.379865 
L 264.301606 124.968357 
L 264.546259 124.785814 
L 264.790912 133.027842 
L 265.035565 132.76848 
L 265.524871 106.371545 
L 265.769524 107.88749 
L 266.014177 123.98677 
L 266.25883 124.172017 
L 266.748136 108.356944 
L 266.992789 108.173726 
L 267.237442 109.311064 
L 267.482095 105.595657 
L 267.726748 106.997428 
L 268.216054 132.111498 
L 268.460707 131.764415 
L 268.70536 135.759128 
L 268.950013 147.659434 
L 269.194666 150.254067 
L 269.439319 151.139142 
L 269.683972 141.031974 
L 269.928625 143.322285 
L 270.173278 143.924167 
L 270.417931 153.761325 
L 270.662584 145.499522 
L 270.907237 155.861658 
L 271.15189 155.841713 
L 271.396543 144.678843 
L 271.641196 139.371517 
L 272.130502 139.177735 
L 272.619808 122.860418 
L 272.864461 121.376419 
L 273.109114 129.587431 
L 273.353767 126.782706 
L 273.59842 129.518556 
L 273.843073 130.662232 
L 274.087726 130.942637 
L 274.332379 119.653678 
L 274.821685 132.085046 
L 275.310991 114.343986 
L 275.800297 107.456657 
L 276.04495 105.242235 
L 276.289603 100.471887 
L 276.534256 102.923021 
L 276.778909 101.901124 
L 277.023562 96.45013 
L 277.268215 111.11316 
L 277.512868 114.805496 
L 277.757521 108.349338 
L 278.002174 105.894401 
L 278.49148 97.968188 
L 278.736133 97.675444 
L 278.980786 93.023072 
L 279.470092 74.16842 
L 279.959398 70.313909 
L 280.204051 69.868287 
L 280.448704 75.314463 
L 280.693357 64.186665 
L 280.93801 62.945379 
L 281.182663 62.293214 
L 281.671969 65.173153 
L 281.916622 65.044359 
L 282.161275 60.247306 
L 282.405928 48.170796 
L 282.650581 42.547655 
L 282.895234 42.996743 
L 283.38454 35.912758 
L 283.629193 40.141142 
L 283.873846 39.326971 
L 284.118499 44.545223 
L 284.363152 37.61454 
L 284.607805 40.862691 
L 284.852458 40.300444 
L 285.341764 54.678421 
L 285.586417 53.591873 
L 285.83107 51.196938 
L 286.075723 43.986442 
L 286.320376 79.419125 
L 286.56503 98.592718 
L 287.054336 85.673979 
L 287.298989 85.136748 
L 287.543642 83.738188 
L 287.788295 83.343526 
L 288.032948 81.206347 
L 288.277601 77.565224 
L 288.522254 78.516471 
L 288.766907 77.60562 
L 289.256213 70.383968 
L 289.500866 69.660223 
L 289.745519 61.688797 
L 289.990172 63.554275 
L 290.234825 59.326652 
L 290.479478 65.521758 
L 290.724131 64.17813 
L 291.213437 84.630701 
L 291.702743 95.863545 
L 291.947396 97.632851 
L 292.192049 92.513814 
L 292.436702 90.185135 
L 292.926008 81.227221 
L 293.170661 83.638635 
L 293.415314 82.98216 
L 293.659967 82.864268 
L 294.393926 68.808782 
L 294.883232 61.569891 
L 295.127885 56.555731 
L 295.372538 69.247982 
L 295.617191 75.511288 
L 295.861844 75.385875 
L 296.106497 72.596361 
L 296.35115 79.750912 
L 296.840456 73.514142 
L 297.085109 76.928355 
L 297.329762 75.110456 
L 297.574415 94.563609 
L 297.819068 102.127358 
L 298.308374 90.179472 
L 298.553027 75.0382 
L 298.79768 72.860371 
L 299.042333 67.021053 
L 299.531639 72.117864 
L 300.020945 65.56528 
L 300.265598 64.759475 
L 300.510251 61.574708 
L 300.754904 60.495343 
L 301.733516 64.217089 
L 301.978169 66.672787 
L 302.222822 60.827469 
L 302.467475 62.959915 
L 302.712128 74.197238 
L 302.956781 103.984385 
L 303.201434 106.113029 
L 303.446087 106.938355 
L 303.69074 109.241259 
L 303.935393 109.4429 
L 304.180046 107.443388 
L 304.424699 108.552923 
L 304.669352 108.789636 
L 304.914005 110.846784 
L 305.158658 109.956215 
L 305.647964 104.582295 
L 306.13727 94.511297 
L 306.381923 99.70707 
L 306.871229 96.464497 
L 307.360535 102.998574 
L 307.605188 101.945999 
L 307.849841 102.353845 
L 308.094494 104.755795 
L 308.339147 110.356371 
L 308.5838 109.134269 
L 308.828453 114.019044 
L 309.073107 112.373376 
L 309.31776 113.456882 
L 309.562413 107.057684 
L 309.807066 104.780472 
L 310.051719 106.03942 
L 310.296372 106.629555 
L 310.541025 128.529194 
L 310.785678 119.989015 
L 311.030331 133.265739 
L 311.274984 137.930364 
L 311.519637 136.44721 
L 311.76429 139.555496 
L 312.008943 139.503184 
L 312.498249 132.692759 
L 312.742902 123.599291 
L 312.987555 125.781514 
L 313.232208 136.968469 
L 313.476861 131.804472 
L 313.966167 140.663847 
L 314.21082 136.264837 
L 314.700126 143.875827 
L 315.189432 148.698234 
L 315.678738 148.060689 
L 315.923391 152.335384 
L 316.168044 148.806153 
L 316.65735 149.439473 
L 316.902003 150.622109 
L 317.146656 144.937445 
L 317.391309 142.955849 
L 317.635962 144.166542 
L 317.880615 141.817243 
L 318.125268 132.149443 
L 318.369921 130.422392 
L 318.614574 130.53665 
L 318.859227 137.75602 
L 319.10388 137.099883 
L 319.348533 135.394466 
L 319.593186 139.691642 
L 320.082492 141.461117 
L 320.327145 147.670082 
L 320.816451 126.865949 
L 321.061104 138.381226 
L 321.305757 158.178928 
L 321.55041 162.319168 
L 321.795063 161.116925 
L 322.039716 156.629856 
L 322.284369 158.137349 
L 322.773675 164.82236 
L 323.262981 156.563092 
L 323.507634 160.955934 
L 323.99694 150.623038 
L 324.241593 159.04558 
L 324.730899 180.893415 
L 324.975552 179.246987 
L 325.220205 175.261231 
L 325.464858 174.724676 
L 325.709511 163.484479 
L 325.954164 165.038284 
L 326.198817 146.434036 
L 326.44347 145.198497 
L 326.688123 147.436158 
L 326.932776 155.960619 
L 327.422082 149.79974 
L 327.666735 150.139133 
L 328.156041 151.610118 
L 328.400694 153.943614 
L 328.89 151.399941 
L 329.134653 154.67505 
L 329.379306 152.256283 
L 329.623959 153.535091 
L 329.868612 149.598437 
L 330.113265 149.740498 
L 330.357918 148.626823 
L 330.602571 148.983118 
L 331.091877 161.847263 
L 331.825837 167.673904 
L 332.315143 159.332492 
L 332.559796 161.419388 
L 333.049102 156.102005 
L 333.538408 141.209361 
L 333.783061 145.025504 
L 334.272367 155.735653 
L 334.51702 153.128344 
L 334.761673 157.321149 
L 335.006326 156.031185 
L 335.250979 152.746273 
L 335.495632 152.58114 
L 335.740285 146.218535 
L 335.984938 142.815309 
L 336.474244 169.225934 
L 336.718897 171.20153 
L 336.96355 175.692994 
L 337.208203 176.976958 
L 337.452856 165.28142 
L 338.431468 148.747165 
L 338.676121 146.984197 
L 338.920774 148.970441 
L 339.41008 139.946102 
L 339.654733 134.025739 
L 339.899386 132.540218 
L 340.388692 140.722498 
L 340.633345 142.865592 
L 340.877998 142.086915 
L 341.122651 137.1107 
L 341.367304 141.700534 
L 341.611957 142.81421 
L 342.101263 138.145866 
L 342.345916 140.146138 
L 342.590569 138.393396 
L 342.835222 132.862202 
L 343.079875 133.157481 
L 343.324528 137.164786 
L 343.569181 139.27695 
L 344.547793 130.906636 
L 345.037099 132.555261 
L 345.281752 129.249813 
L 345.526405 129.1184 
L 345.771058 128.147208 
L 346.015711 128.665763 
L 346.260364 127.474507 
L 346.505017 127.935764 
L 346.74967 124.17844 
L 346.994323 124.016095 
L 347.238976 120.315309 
L 347.483629 112.144354 
L 347.728282 112.759926 
L 348.217588 118.829534 
L 348.462241 115.029364 
L 348.706894 118.023476 
L 348.951547 115.803731 
L 349.1962 118.810858 
L 349.440853 117.974967 
L 349.930159 112.538509 
L 350.174812 113.000696 
L 350.419465 106.917904 
L 350.908771 102.021636 
L 351.153424 106.879114 
L 351.398077 107.670129 
L 351.64273 106.428252 
L 351.887383 107.122672 
L 352.132036 105.429256 
L 352.376689 101.254114 
L 352.621342 99.646138 
L 352.865995 101.749006 
L 353.110648 100.465633 
L 353.599954 90.195867 
L 354.089261 69.075328 
L 354.333914 66.181698 
L 354.578567 66.808595 
L 354.82322 64.803928 
L 355.312526 57.749184 
L 355.557179 55.422871 
L 355.801832 54.23677 
L 356.291138 70.267091 
L 356.535791 70.301993 
L 356.780444 69.28804 
L 357.025097 74.853798 
L 357.26975 70.044322 
L 357.514403 70.53896 
L 357.759056 70.099338 
L 358.003709 68.825346 
L 358.248362 63.567374 
L 358.737668 72.104005 
L 358.982321 70.838126 
L 359.226974 67.115198 
L 359.471627 72.369451 
L 359.71628 68.818586 
L 359.960933 77.040162 
L 360.694892 79.380672 
L 360.939545 86.290312 
L 361.184198 88.633781 
L 361.428851 89.511419 
L 361.673504 90.997447 
L 361.918157 87.016847 
L 362.16281 88.166355 
L 362.407463 84.366522 
L 362.652116 82.550313 
L 362.896769 82.532735 
L 363.386075 79.732404 
L 363.630728 77.132785 
L 363.875381 78.500076 
L 364.364687 66.834455 
L 364.60934 53.336568 
L 364.853993 53.285946 
L 365.343299 58.645753 
L 365.587952 62.197886 
L 365.832605 60.94105 
L 366.077258 63.933473 
L 366.321911 62.638015 
L 366.566564 62.436121 
L 366.811217 63.793017 
L 367.05587 61.31991 
L 367.300523 61.89348 
L 367.545176 59.078783 
L 367.789829 52.22323 
L 368.034482 49.880015 
L 368.523788 59.442938 
L 369.257747 64.371066 
L 369.5024 66.987756 
L 369.747053 63.81406 
L 369.991706 66.070398 
L 370.481012 67.566144 
L 370.725665 64.997118 
L 371.214971 57.483484 
L 371.459624 55.611583 
L 371.704277 49.630879 
L 371.94893 48.483399 
L 372.682889 35.554604 
L 372.927542 49.255569 
L 373.172195 49.530481 
L 373.661501 54.12978 
L 373.906154 58.43059 
L 374.150807 65.176195 
L 374.39546 65.216929 
L 374.640113 62.514546 
L 374.884766 62.569816 
L 375.129419 79.142945 
L 375.618725 76.53234 
L 375.863378 78.621686 
L 376.597338 64.125733 
L 377.086644 66.046313 
L 377.57595 53.274368 
L 377.820603 52.359798 
L 378.065256 49.634767 
L 378.309909 42.694027 
L 378.554562 42.881555 
L 378.799215 45.079919 
L 379.043868 42.003579 
L 379.288521 44.971915 
L 379.533174 46.265175 
L 379.777827 50.462206 
L 380.02248 51.404241 
L 380.267133 47.849404 
L 380.756439 56.220732 
L 381.001092 54.812623 
L 381.245745 58.032124 
L 381.490398 57.080032 
L 381.490398 57.080032 
" style="fill:none;stroke:#1f77b4;stroke-linecap:square;stroke-width:1.5;"/>
   </g>
   <g id="line2d_28">
    <path clip-path="url(#pec2a702037)" d="M 56.835852 186.832587 
L 57.080505 174.647971 
L 57.325158 178.192587 
L 57.569811 175.755663 
L 57.814464 189.712587 
L 58.059117 177.971048 
L 58.30377 179.964894 
L 58.548423 189.712587 
L 58.793076 191.927971 
L 59.527035 202.561817 
L 59.771688 200.78951 
L 60.016341 201.454125 
L 60.260994 197.023356 
L 60.505647 197.466433 
L 60.7503 198.795663 
L 60.994953 203.447971 
L 61.484259 228.924894 
L 61.728912 220.94951 
L 62.707525 250.414125 
L 62.952178 244.654125 
L 63.196831 247.312587 
L 63.441484 242.217202 
L 63.686137 228.03874 
L 64.175443 238.894125 
L 64.420096 236.457202 
L 64.664749 241.331048 
L 64.909402 223.607971 
L 65.154055 228.703356 
L 65.643361 217.626433 
L 65.888014 219.841817 
L 66.132667 217.183356 
L 66.37732 230.697202 
L 66.621973 228.703356 
L 66.866626 238.451048 
L 67.111279 236.67874 
L 67.355932 224.494125 
L 67.600585 232.912587 
L 67.845238 222.943356 
L 68.089891 223.82951 
L 68.334544 226.044894 
L 68.579197 224.051048 
L 68.82385 218.512587 
L 69.068503 218.512587 
L 69.313156 218.955663 
L 69.557809 229.367971 
L 69.802462 228.924894 
L 70.047115 226.266433 
L 70.291768 228.481817 
L 70.781074 237.121817 
L 71.025727 234.906433 
L 71.27038 244.654125 
L 71.515033 248.420279 
L 71.759686 262.155663 
L 72.248992 251.521817 
L 72.493645 252.62951 
L 72.982951 246.204894 
L 73.472257 258.611048 
L 73.71691 244.211048 
L 73.961563 259.71874 
L 74.206216 267.694125 
L 74.450869 269.244894 
L 74.695522 273.897202 
L 74.940175 272.124894 
L 75.184828 275.447971 
L 75.429481 266.143356 
L 75.674134 263.263356 
L 75.918787 248.19874 
L 76.16344 247.977202 
L 76.408093 244.875663 
L 76.652746 232.912587 
L 76.897399 245.540279 
L 77.142052 244.211048 
L 77.386705 241.10951 
L 77.631358 232.026433 
L 77.876011 233.134125 
L 78.120664 245.097202 
L 78.365317 250.192587 
L 78.60997 246.647971 
L 78.854623 245.097202 
L 79.099276 237.786433 
L 79.343929 239.337202 
L 79.588582 234.463356 
L 79.833235 239.337202 
L 80.077888 240.223356 
L 80.322541 238.894125 
L 80.811847 247.312587 
L 81.0565 258.38951 
L 81.301153 252.407971 
L 81.790459 259.497202 
L 82.035112 266.364894 
L 82.279765 266.364894 
L 82.524418 276.334125 
L 82.769071 270.131048 
L 83.013724 240.223356 
L 83.258377 240.223356 
L 83.50303 238.894125 
L 83.992336 252.62951 
L 84.236989 252.851048 
L 84.726296 255.50951 
L 84.970949 253.737202 
L 85.215602 246.426433 
L 85.460255 246.426433 
L 85.949561 238.007971 
L 86.194214 250.635663 
L 86.438867 250.635663 
L 86.68352 251.07874 
L 87.172826 253.294125 
L 87.417479 244.211048 
L 87.662132 242.43874 
L 87.906785 248.19874 
L 88.151438 241.552587 
L 88.396091 245.761817 
L 88.640744 228.260279 
L 88.885397 224.494125 
L 89.13005 211.201817 
L 89.619356 217.847971 
L 89.864009 241.10951 
L 90.353315 257.060279 
L 90.597968 244.211048 
L 90.842621 238.672587 
L 91.087274 237.343356 
L 91.331927 237.786433 
L 91.57658 219.841817 
L 91.821233 237.564894 
L 92.555192 215.411048 
L 92.799845 215.854125 
L 93.044498 213.195663 
L 93.289151 216.297202 
L 93.533804 208.764894 
L 94.267763 202.340279 
L 94.757069 218.291048 
L 95.001722 208.764894 
L 95.246375 212.974125 
L 95.491028 214.524894 
L 95.980334 189.934125 
L 96.224987 185.503356 
L 96.46964 186.167971 
L 96.714293 184.395663 
L 96.958946 171.767971 
L 97.203599 182.180279 
L 97.448252 177.306433 
L 97.692905 177.084894 
L 97.937558 171.103356 
L 98.182211 183.287971 
L 98.426864 175.091048 
L 98.671517 185.281817 
L 98.91617 168.001817 
L 99.160823 171.324894 
L 99.405476 163.34951 
L 99.650129 160.912587 
L 99.894782 163.127971 
L 100.139435 185.060279 
L 100.384088 134.54951 
L 100.628741 130.561817 
L 100.873394 140.531048 
L 101.118047 128.124894 
L 101.3627 126.795663 
L 101.607353 127.23874 
L 101.852006 139.423356 
L 102.096659 134.992587 
L 102.341312 140.531048 
L 102.830618 135.435663 
L 103.075271 138.094125 
L 103.319924 143.632587 
L 103.564577 137.42951 
L 103.80923 140.974125 
L 104.053883 127.23874 
L 104.543189 140.087971 
L 105.032495 138.537202 
L 105.766454 118.59874 
L 106.011107 121.257202 
L 106.25576 134.327971 
L 106.500413 135.214125 
L 106.745066 137.207971 
L 106.98972 144.297202 
L 107.479026 130.561817 
L 107.968332 169.995663 
L 108.212985 187.275663 
L 108.702291 155.595663 
L 108.946944 172.654125 
L 109.191597 169.552587 
L 109.43625 155.817202 
L 109.680903 160.912587 
L 110.170209 178.414125 
L 110.414862 177.971048 
L 110.659515 179.521817 
L 111.148821 166.451048 
L 111.393474 177.971048 
L 111.638127 206.327971 
L 111.88278 192.371048 
L 112.127433 197.466433 
L 112.372086 193.257202 
L 112.616739 179.743356 
L 112.861392 181.294125 
L 113.106045 184.617202 
L 113.350698 176.863356 
L 113.595351 178.857202 
L 113.840004 176.19874 
L 114.32931 175.091048 
L 114.573963 168.666433 
L 114.818616 171.98951 
L 115.063269 164.235663 
L 115.307922 164.235663 
L 115.552575 164.67874 
L 115.797228 181.95874 
L 116.041881 168.444894 
L 116.286534 169.10951 
L 116.531187 162.906433 
L 116.77584 168.444894 
L 117.020493 165.786433 
L 117.265146 168.001817 
L 117.509799 168.444894 
L 117.754452 172.875663 
L 117.999105 180.851048 
L 118.243758 179.964894 
L 118.488411 185.281817 
L 118.733064 174.426433 
L 118.977717 182.180279 
L 119.467023 178.857202 
L 119.711676 183.731048 
L 119.956329 182.623356 
L 120.200982 183.50951 
L 120.445635 190.820279 
L 120.934941 197.466433 
L 121.179594 207.214125 
L 121.424247 208.100279 
L 121.6689 214.081817 
L 121.913553 216.961817 
L 122.158206 225.15874 
L 122.402859 224.494125 
L 122.647512 219.841817 
L 122.892165 228.703356 
L 123.136818 228.03874 
L 123.381471 223.607971 
L 123.626124 229.146433 
L 123.870777 227.374125 
L 124.11543 233.577202 
L 124.360083 219.39874 
L 124.604736 226.044894 
L 124.849389 223.607971 
L 125.338695 217.404894 
L 125.583348 214.081817 
L 125.828001 221.614125 
L 126.317307 212.30951 
L 126.56196 213.860279 
L 126.806613 196.137202 
L 127.051266 202.340279 
L 127.295919 200.346433 
L 127.540572 217.404894 
L 127.785225 219.620279 
L 128.029878 224.051048 
L 128.274531 214.967971 
L 128.519184 222.500279 
L 128.763837 234.020279 
L 129.00849 232.46951 
L 129.253143 243.98951 
L 129.497797 249.971048 
L 129.74245 249.084894 
L 129.987103 252.407971 
L 130.231756 247.312587 
L 130.476409 251.743356 
L 130.721062 236.235663 
L 130.965715 236.457202 
L 131.210368 233.355663 
L 131.455021 238.894125 
L 131.699674 231.361817 
L 131.944327 219.177202 
L 132.18898 214.081817 
L 132.433633 213.195663 
L 132.678286 207.214125 
L 132.922939 207.214125 
L 133.167592 213.63874 
L 133.412245 208.543356 
L 133.656898 195.694125 
L 133.901551 191.484894 
L 134.146204 195.472587 
L 134.390857 196.580279 
L 134.63551 195.694125 
L 134.880163 197.90951 
L 135.124816 198.131048 
L 135.369469 185.946433 
L 135.614122 190.820279 
L 135.858775 185.946433 
L 136.103428 189.934125 
L 136.348081 189.712587 
L 136.592734 184.395663 
L 136.837387 182.401817 
L 137.08204 182.180279 
L 137.815999 185.724894 
L 138.060652 177.527971 
L 138.305305 177.527971 
L 138.549958 178.857202 
L 138.794611 181.515663 
L 139.039264 182.844894 
L 139.283917 182.844894 
L 139.52857 185.281817 
L 139.773223 179.300279 
L 140.017876 178.857202 
L 140.262529 190.820279 
L 140.507182 176.863356 
L 140.751835 178.192587 
L 140.996488 190.377202 
L 141.241141 184.174125 
L 141.485794 204.555663 
L 141.730447 204.112587 
L 141.9751 203.226433 
L 142.219753 206.992587 
L 142.464406 186.611048 
L 142.709059 190.155663 
L 143.198365 183.50951 
L 143.443018 182.844894 
L 144.42163 158.032587 
L 144.666283 172.432587 
L 145.155589 181.072587 
L 145.400242 178.414125 
L 145.644895 188.383356 
L 145.889548 193.035663 
L 146.134201 184.174125 
L 146.378854 197.466433 
L 146.623507 193.921817 
L 146.86816 192.371048 
L 147.112813 193.47874 
L 147.357466 203.004894 
L 147.602119 188.826433 
L 147.846772 189.26951 
L 148.336078 212.752587 
L 148.580731 215.18951 
L 148.825384 212.087971 
L 149.070037 233.577202 
L 149.31469 227.595663 
L 149.559343 235.34951 
L 149.803996 249.084894 
L 150.048649 242.881817 
L 150.293302 240.001817 
L 150.537955 230.697202 
L 150.782608 232.46951 
L 151.027261 218.734125 
L 151.271914 217.183356 
L 151.516567 220.063356 
L 151.76122 216.961817 
L 152.005874 210.75874 
L 152.250527 243.103356 
L 152.49518 251.300279 
L 152.739833 246.86951 
L 152.984486 249.527971 
L 153.473792 236.457202 
L 153.718445 234.241817 
L 154.207751 226.931048 
L 154.452404 228.703356 
L 154.697057 224.494125 
L 154.94171 223.607971 
L 155.431016 219.177202 
L 155.675669 216.961817 
L 155.920322 213.63874 
L 156.164975 220.94951 
L 156.409628 232.026433 
L 156.654281 227.595663 
L 157.143587 222.500279 
L 157.38824 228.260279 
L 157.632893 221.392587 
L 157.877546 221.614125 
L 158.122199 222.500279 
L 158.366852 217.626433 
L 158.611505 217.847971 
L 159.100811 210.315663 
L 159.590117 222.27874 
L 159.83477 224.051048 
L 160.079423 229.811048 
L 160.324076 226.487971 
L 160.813382 211.423356 
L 161.058035 209.42951 
L 161.302688 211.644894 
L 161.547341 217.404894 
L 161.791994 215.18951 
L 162.036647 183.066433 
L 162.2813 173.983356 
L 162.525953 171.103356 
L 162.770606 170.43874 
L 163.015259 171.324894 
L 163.259912 170.881817 
L 163.504565 171.546433 
L 163.749218 164.67874 
L 163.993871 164.235663 
L 164.238524 174.426433 
L 164.483177 169.552587 
L 164.72783 169.774125 
L 164.972483 166.007971 
L 165.461789 176.19874 
L 165.706442 166.894125 
L 165.951095 170.881817 
L 166.195748 167.780279 
L 166.440401 168.887971 
L 166.685054 162.463356 
L 166.929707 167.337202 
L 167.17436 175.534125 
L 167.419013 167.337202 
L 167.908319 174.204894 
L 168.152972 167.780279 
L 168.397625 174.204894 
L 168.642278 174.204894 
L 168.886931 169.995663 
L 169.131584 174.204894 
L 169.376237 172.432587 
L 169.62089 166.894125 
L 169.865543 168.001817 
L 170.110196 167.55874 
L 170.354849 169.552587 
L 170.844155 165.121817 
L 171.088808 166.894125 
L 171.333461 163.34951 
L 171.578114 168.001817 
L 171.822767 177.74951 
L 172.06742 178.857202 
L 172.556726 166.672587 
L 172.801379 152.494125 
L 173.046032 147.39874 
L 173.290685 149.614125 
L 173.535338 148.727971 
L 174.024644 143.632587 
L 174.269298 142.081817 
L 174.758604 134.771048 
L 175.003257 136.321817 
L 175.24791 136.321817 
L 175.492563 137.651048 
L 175.737216 139.644894 
L 175.981869 144.075663 
L 176.226522 143.854125 
L 176.471175 136.986433 
L 176.715828 143.411048 
L 176.960481 134.327971 
L 177.205134 140.531048 
L 177.449787 140.087971 
L 177.69444 142.303356 
L 177.939093 133.220279 
L 178.183746 133.884894 
L 178.428399 160.691048 
L 178.673052 169.10951 
L 178.917705 165.564894 
L 179.162358 164.900279 
L 179.651664 179.300279 
L 179.896317 195.472587 
L 180.14097 202.783356 
L 180.385623 202.783356 
L 180.630276 200.346433 
L 180.874929 205.220279 
L 181.119582 188.826433 
L 181.364235 201.454125 
L 182.098194 194.143356 
L 182.5875 183.066433 
L 183.076806 157.146433 
L 183.321459 159.140279 
L 183.566112 159.361817 
L 183.810765 155.817202 
L 184.055418 162.241817 
L 184.544724 151.607971 
L 184.789377 151.607971 
L 185.03403 150.943356 
L 185.278683 148.94951 
L 185.523336 150.721817 
L 186.012642 145.626433 
L 186.257295 146.291048 
L 186.501948 147.620279 
L 186.991254 138.980279 
L 187.235907 143.854125 
L 187.48056 154.70951 
L 187.725213 153.823356 
L 187.969866 150.721817 
L 188.214519 151.386433 
L 188.948478 137.872587 
L 189.193131 145.183356 
L 189.437784 136.764894 
L 189.682437 147.620279 
L 189.92709 138.315663 
L 190.171743 137.207971 
L 190.416396 128.124894 
L 190.661049 126.352587 
L 190.905702 128.124894 
L 191.150355 120.592587 
L 191.395008 107.300279 
L 191.639661 100.211048 
L 191.884314 86.254125 
L 192.128967 101.31874 
L 192.37362 88.026433 
L 193.107579 115.497202 
L 193.352232 130.340279 
L 193.841538 114.167971 
L 194.086191 171.98951 
L 194.330844 173.31874 
L 194.82015 164.235663 
L 195.309456 174.647971 
L 196.043415 145.404894 
L 196.288068 146.955663 
L 196.532721 146.734125 
L 196.777375 135.87874 
L 197.022028 136.321817 
L 197.266681 135.657202 
L 197.511334 134.106433 
L 197.755987 131.447971 
L 198.00064 127.017202 
L 198.245293 125.244894 
L 198.489946 126.574125 
L 198.734599 122.364894 
L 199.223905 93.564894 
L 199.468558 92.900279 
L 199.713211 87.361817 
L 199.957864 92.457202 
L 200.202517 88.912587 
L 200.44717 92.014125 
L 200.691823 80.051048 
L 200.936476 86.254125 
L 201.181129 86.475663 
L 201.425782 102.86951 
L 201.670435 109.515663 
L 201.915088 108.851048 
L 202.159741 117.491048 
L 202.404394 141.860279 
L 202.649047 151.607971 
L 202.8937 153.15874 
L 203.383006 174.426433 
L 203.627659 178.414125 
L 204.116965 134.106433 
L 204.361618 143.854125 
L 204.606271 134.992587 
L 204.850924 121.257202 
L 205.095577 121.921817 
L 205.34023 121.47874 
L 205.829536 125.90951 
L 206.074189 137.872587 
L 206.318842 139.644894 
L 206.563495 139.644894 
L 206.808148 132.555663 
L 207.297454 109.294125 
L 207.78676 128.567971 
L 208.031413 128.78951 
L 208.276066 130.340279 
L 208.520719 134.327971 
L 208.765372 131.004894 
L 209.010025 117.047971 
L 209.254678 112.617202 
L 209.499331 103.312587 
L 210.477943 144.51874 
L 210.722596 140.531048 
L 210.967249 161.134125 
L 211.211902 151.82951 
L 211.701208 149.835663 
L 211.945861 147.39874 
L 212.435167 159.804894 
L 212.67982 133.884894 
L 212.924473 134.54951 
L 213.658432 146.955663 
L 213.903085 148.727971 
L 214.147738 140.30951 
L 214.637044 146.06951 
L 214.881697 139.866433 
L 215.12635 141.63874 
L 215.371003 132.555663 
L 215.615656 113.946433 
L 215.860309 116.161817 
L 216.104962 121.700279 
L 216.349615 131.66951 
L 216.594268 133.884894 
L 216.838921 153.380279 
L 217.083574 156.260279 
L 217.57288 184.83874 
L 217.817533 174.426433 
L 218.062186 189.047971 
L 218.551492 175.755663 
L 218.796145 173.761817 
L 219.040798 186.611048 
L 219.285452 172.654125 
L 219.530105 173.31874 
L 219.774758 176.641817 
L 220.019411 177.084894 
L 220.264064 179.300279 
L 220.508717 185.281817 
L 220.75337 175.755663 
L 220.998023 174.86951 
L 221.242676 171.98951 
L 221.487329 171.98951 
L 221.731982 161.134125 
L 222.221288 167.337202 
L 222.465941 163.792587 
L 223.444553 178.192587 
L 223.689206 173.761817 
L 223.933859 180.407971 
L 224.178512 172.432587 
L 224.423165 169.774125 
L 224.667818 158.032587 
L 224.912471 166.007971 
L 225.64643 169.995663 
L 225.891083 176.19874 
L 226.135736 174.647971 
L 226.380389 166.894125 
L 226.625042 165.786433 
L 226.869695 170.43874 
L 227.114348 172.432587 
L 227.359001 171.546433 
L 227.603654 165.343356 
L 227.848307 166.22951 
L 228.09296 171.767971 
L 228.582266 153.823356 
L 228.826919 153.380279 
L 229.071572 157.811048 
L 229.316225 158.032587 
L 229.560878 157.146433 
L 229.805531 159.804894 
L 230.050184 160.247971 
L 230.294837 165.121817 
L 230.53949 162.241817 
L 230.784143 161.79874 
L 231.028796 165.786433 
L 231.273449 166.22951 
L 231.518102 165.121817 
L 231.762755 167.780279 
L 232.007408 173.983356 
L 232.252061 184.83874 
L 232.741367 182.623356 
L 232.98602 179.743356 
L 233.719979 196.137202 
L 233.964632 185.281817 
L 234.209285 181.072587 
L 234.453938 172.654125 
L 234.698591 178.192587 
L 234.943244 176.420279 
L 235.187897 178.635663 
L 235.677203 186.611048 
L 235.921856 187.054125 
L 236.166509 200.346433 
L 236.411162 204.112587 
L 236.655815 198.131048 
L 236.900468 198.352587 
L 237.145121 199.903356 
L 237.389774 181.515663 
L 237.634427 190.155663 
L 237.87908 188.826433 
L 238.613039 161.134125 
L 238.857692 162.020279 
L 239.102345 154.266433 
L 239.346998 159.361817 
L 239.591651 156.481817 
L 239.836304 160.691048 
L 240.080957 167.115663 
L 240.32561 168.444894 
L 240.570263 177.306433 
L 240.814916 175.091048 
L 241.059569 174.86951 
L 241.304222 173.983356 
L 241.548875 174.647971 
L 242.038182 152.937202 
L 242.527488 140.087971 
L 243.016794 147.841817 
L 243.261447 149.835663 
L 243.995406 162.684894 
L 244.484712 157.146433 
L 244.729365 158.254125 
L 244.974018 169.774125 
L 245.218671 174.86951 
L 245.707977 222.943356 
L 245.95263 231.583356 
L 246.441936 203.226433 
L 246.686589 199.23874 
L 246.931242 202.11874 
L 247.175895 214.746433 
L 247.420548 211.423356 
L 247.665201 205.663356 
L 247.909854 219.841817 
L 248.154507 211.423356 
L 248.39916 224.715663 
L 248.643813 222.057202 
L 248.888466 228.481817 
L 249.133119 229.146433 
L 249.377772 220.284894 
L 249.622425 205.884894 
L 249.867078 200.78951 
L 250.111731 209.651048 
L 250.356384 204.99874 
L 250.601037 213.860279 
L 250.84569 214.524894 
L 251.334996 195.472587 
L 251.579649 197.466433 
L 251.824302 194.586433 
L 252.068955 184.395663 
L 252.313608 191.484894 
L 252.802914 164.67874 
L 253.047567 165.786433 
L 253.536873 143.18951 
L 253.781526 142.303356 
L 254.026179 142.746433 
L 254.270832 150.500279 
L 254.515485 149.835663 
L 254.760138 144.51874 
L 255.004791 142.303356 
L 255.249444 142.967971 
L 255.494097 136.321817 
L 255.73875 138.537202 
L 255.983403 115.275663 
L 256.228056 125.244894 
L 256.472709 129.675663 
L 256.717362 129.232587 
L 256.962015 126.574125 
L 257.206668 125.244894 
L 257.451321 134.992587 
L 258.18528 143.411048 
L 258.429933 135.435663 
L 258.919239 152.937202 
L 259.408545 141.860279 
L 259.653198 152.051048 
L 259.897851 156.481817 
L 260.142504 143.632587 
L 260.387157 150.057202 
L 260.876463 118.155663 
L 261.121116 133.220279 
L 261.610422 112.617202 
L 261.855075 112.617202 
L 262.099728 117.26951 
L 262.344381 129.011048 
L 262.589034 123.02951 
L 262.833687 125.687971 
L 263.07834 132.555663 
L 263.322993 114.167971 
L 263.567646 116.161817 
L 263.812299 120.371048 
L 264.056952 128.124894 
L 264.301606 125.90951 
L 264.546259 136.764894 
L 264.790912 132.777202 
L 265.280218 101.983356 
L 265.524871 109.737202 
L 265.769524 131.66951 
L 266.014177 125.466433 
L 266.503483 105.74951 
L 266.748136 108.62951 
L 266.992789 109.737202 
L 267.237442 104.863356 
L 267.482095 107.964894 
L 267.971401 133.884894 
L 268.216054 130.561817 
L 268.460707 135.657202 
L 268.70536 151.164894 
L 268.950013 153.601817 
L 269.194666 152.051048 
L 269.439319 140.087971 
L 269.683972 146.06951 
L 269.928625 145.404894 
L 270.173278 153.823356 
L 270.417931 144.51874 
L 270.662584 156.481817 
L 270.907237 156.260279 
L 271.15189 141.417202 
L 271.396543 139.201817 
L 271.641196 140.974125 
L 271.885849 140.752587 
L 272.375155 122.364894 
L 272.619808 120.592587 
L 272.864461 132.99874 
L 273.109114 126.795663 
L 273.353767 131.004894 
L 273.59842 132.99874 
L 273.843073 128.346433 
L 274.087726 113.946433 
L 274.332379 130.561817 
L 274.577032 133.663356 
L 274.821685 118.155663 
L 275.066338 112.617202 
L 275.800297 103.534125 
L 276.04495 99.767971 
L 276.289603 105.306433 
L 276.778909 94.894125 
L 277.023562 117.491048 
L 277.268215 117.712587 
L 277.512868 105.306433 
L 277.757521 103.534125 
L 278.246827 96.001817 
L 278.49148 98.217202 
L 278.736133 91.34951 
L 279.225439 71.18951 
L 279.470092 71.854125 
L 279.714745 69.860279 
L 279.959398 70.967971 
L 280.204051 75.177202 
L 280.448704 59.226433 
L 280.693357 62.992587 
L 280.93801 61.441817 
L 281.182663 65.207971 
L 281.427316 66.094125 
L 281.671969 63.435663 
L 281.916622 58.561817 
L 282.161275 43.497202 
L 282.405928 41.281817 
L 282.650581 45.491048 
L 282.895234 35.743356 
L 283.139887 34.414125 
L 283.38454 42.38951 
L 283.629193 38.401817 
L 283.873846 46.155663 
L 284.118499 34.857202 
L 284.363152 44.383356 
L 284.607805 39.731048 
L 284.852458 53.244894 
L 285.097111 57.897202 
L 285.341764 51.915663 
L 285.586417 49.257202 
L 285.83107 40.83874 
L 286.075723 90.241817 
L 286.320376 105.971048 
L 286.56503 86.475663 
L 286.809683 82.70951 
L 287.054336 86.697202 
L 287.298989 83.374125 
L 287.543642 84.481817 
L 288.032948 76.727971 
L 288.277601 79.82951 
L 289.01156 69.195663 
L 289.256213 70.967971 
L 289.500866 59.66951 
L 289.745519 66.094125 
L 289.990172 57.897202 
L 290.234825 68.531048 
L 290.479478 62.54951 
L 290.724131 81.823356 
L 291.45809 99.546433 
L 291.702743 99.103356 
L 291.947396 90.241817 
L 292.192049 90.020279 
L 292.436702 83.152587 
L 292.681355 81.15874 
L 292.926008 85.146433 
L 293.170661 82.931048 
L 293.415314 82.487971 
L 293.90462 68.087971 
L 294.149273 69.195663 
L 294.883232 54.352587 
L 295.127885 73.626433 
L 295.372538 75.39874 
L 295.617191 76.063356 
L 295.861844 69.417202 
L 296.106497 80.937202 
L 296.595803 73.404894 
L 296.840456 79.386433 
L 297.085109 74.512587 
L 297.329762 99.98951 
L 297.574415 103.312587 
L 298.063721 88.691048 
L 298.308374 68.974125 
L 298.553027 73.626433 
L 298.79768 66.75874 
L 299.286986 74.291048 
L 299.776292 63.657202 
L 300.020945 63.435663 
L 300.265598 59.891048 
L 300.754904 62.327971 
L 301.24421 62.327971 
L 301.488863 64.986433 
L 301.733516 66.315663 
L 301.978169 57.897202 
L 302.222822 63.657202 
L 302.467475 78.943356 
L 302.712128 111.731048 
L 302.956781 106.192587 
L 303.201434 106.635663 
L 303.446087 110.623356 
L 303.935393 106.414125 
L 304.180046 109.294125 
L 304.669352 110.844894 
L 304.914005 110.180279 
L 305.403311 103.977202 
L 305.892617 93.121817 
L 306.13727 102.204894 
L 306.381923 97.10951 
L 306.626576 96.223356 
L 307.115882 104.19874 
L 307.360535 101.761817 
L 307.605188 101.761817 
L 307.849841 105.74951 
L 308.094494 113.503356 
L 308.339147 108.62951 
L 308.5838 115.275663 
L 308.828453 111.066433 
L 309.073107 112.83874 
L 309.31776 105.971048 
L 309.562413 103.091048 
L 309.807066 106.414125 
L 310.051719 106.635663 
L 310.296372 136.764894 
L 310.541025 116.383356 
L 310.785678 136.543356 
L 311.030331 140.30951 
L 311.274984 134.771048 
L 311.519637 139.644894 
L 311.76429 140.531048 
L 312.253596 131.004894 
L 312.498249 121.47874 
L 312.742902 126.352587 
L 312.987555 141.63874 
L 313.232208 129.675663 
L 313.476861 139.423356 
L 313.721514 142.081817 
L 313.966167 135.657202 
L 314.455473 146.291048 
L 314.700126 146.955663 
L 314.944779 149.171048 
L 315.189432 148.727971 
L 315.434085 148.727971 
L 315.678738 152.937202 
L 315.923391 147.620279 
L 316.168044 148.063356 
L 316.65735 151.607971 
L 316.902003 143.411048 
L 317.146656 141.63874 
L 317.391309 144.297202 
L 317.635962 139.866433 
L 317.880615 130.340279 
L 318.125268 130.783356 
L 318.369921 132.99874 
L 318.614574 140.087971 
L 318.859227 137.651048 
L 319.10388 133.884894 
L 319.348533 140.087971 
L 319.593186 141.63874 
L 319.837839 142.081817 
L 320.082492 149.614125 
L 320.327145 132.555663 
L 320.571798 123.251048 
L 320.816451 136.764894 
L 321.061104 166.22951 
L 321.305757 164.235663 
L 321.55041 161.134125 
L 321.795063 155.152587 
L 322.529022 166.894125 
L 322.773675 156.924894 
L 323.018328 156.703356 
L 323.262981 162.241817 
L 323.507634 153.15874 
L 323.752287 148.284894 
L 324.486246 183.287971 
L 324.975552 173.31874 
L 325.220205 174.426433 
L 325.464858 158.475663 
L 325.709511 165.343356 
L 325.954164 142.746433 
L 326.44347 148.063356 
L 326.688123 160.247971 
L 327.177429 148.506433 
L 327.422082 150.057202 
L 327.666735 150.27874 
L 327.911388 152.272587 
L 328.156041 152.715663 
L 328.400694 151.607971 
L 328.645347 151.386433 
L 328.89 156.260279 
L 329.134653 151.607971 
L 329.379306 154.70951 
L 329.623959 147.177202 
L 329.868612 150.500279 
L 330.113265 148.284894 
L 330.357918 148.506433 
L 330.847224 164.014125 
L 331.091877 163.792587 
L 331.581184 167.55874 
L 331.825837 160.026433 
L 332.07049 158.475663 
L 332.315143 161.79874 
L 332.804449 155.374125 
L 333.049102 144.961817 
L 333.293755 140.087971 
L 333.783061 154.931048 
L 334.027714 156.481817 
L 334.272367 152.272587 
L 334.51702 159.140279 
L 335.006326 152.937202 
L 335.250979 152.494125 
L 335.495632 144.961817 
L 335.740285 142.303356 
L 336.229591 174.204894 
L 336.474244 173.31874 
L 336.96355 177.306433 
L 337.208203 160.46951 
L 337.452856 159.804894 
L 337.942162 151.607971 
L 338.186815 150.27874 
L 338.431468 147.620279 
L 338.676121 150.057202 
L 339.41008 132.334125 
L 339.654733 132.112587 
L 340.144039 142.967971 
L 340.388692 142.967971 
L 340.633345 142.081817 
L 340.877998 136.321817 
L 341.122651 142.081817 
L 341.367304 143.411048 
L 341.85661 137.207971 
L 342.101263 142.081817 
L 342.345916 138.75874 
L 342.590569 131.66951 
L 342.835222 134.327971 
L 343.079875 138.980279 
L 343.324528 140.087971 
L 343.813834 133.220279 
L 344.058487 133.441817 
L 344.30314 129.454125 
L 344.547793 132.99874 
L 344.792446 133.663356 
L 345.037099 127.681817 
L 345.281752 130.11874 
L 345.526405 127.903356 
L 345.771058 129.232587 
L 346.015711 127.460279 
L 346.260364 128.124894 
L 346.505017 121.921817 
L 346.74967 125.244894 
L 346.994323 119.041817 
L 347.238976 109.95874 
L 347.728282 118.59874 
L 347.972935 119.041817 
L 348.217588 114.38951 
L 348.462241 118.155663 
L 348.706894 115.275663 
L 348.951547 120.371048 
L 349.1962 117.26951 
L 349.440853 115.71874 
L 349.685506 111.952587 
L 349.930159 113.503356 
L 350.174812 105.971048 
L 350.419465 105.306433 
L 350.664118 100.875663 
L 350.908771 109.294125 
L 351.153424 107.964894 
L 351.398077 105.74951 
L 351.64273 107.521817 
L 352.132036 101.761817 
L 352.376689 99.98951 
L 352.621342 102.86951 
L 352.865995 100.654125 
L 353.355301 89.79874 
L 353.844607 67.201817 
L 354.089261 67.644894 
L 354.578567 65.872587 
L 354.82322 58.783356 
L 355.312526 54.352587 
L 355.557179 54.574125 
L 356.046485 73.404894 
L 356.291138 69.195663 
L 356.535791 68.974125 
L 356.780444 75.620279 
L 357.025097 69.63874 
L 357.26975 70.746433 
L 357.759056 67.866433 
L 358.003709 62.771048 
L 358.248362 71.411048 
L 358.493015 74.734125 
L 358.982321 66.75874 
L 359.226974 75.177202 
L 359.471627 69.195663 
L 359.71628 80.051048 
L 359.960933 79.607971 
L 360.205586 81.601817 
L 360.450239 80.272587 
L 360.694892 89.577202 
L 361.184198 90.020279 
L 361.428851 91.127971 
L 361.673504 87.140279 
L 361.918157 88.912587 
L 362.16281 83.374125 
L 362.407463 82.266433 
L 362.652116 83.595663 
L 362.896769 80.051048 
L 363.141422 80.272587 
L 363.386075 75.620279 
L 363.630728 79.82951 
L 364.364687 51.472587 
L 364.60934 53.90951 
L 365.098646 60.777202 
L 365.343299 63.214125 
L 365.587952 61.441817 
L 365.832605 65.207971 
L 366.077258 62.106433 
L 366.321911 62.992587 
L 366.566564 63.214125 
L 366.811217 59.891048 
L 367.05587 63.214125 
L 367.300523 58.561817 
L 367.545176 49.921817 
L 367.789829 49.700279 
L 368.279135 61.441817 
L 368.523788 61.220279 
L 369.257747 67.201817 
L 369.5024 63.657202 
L 369.747053 66.980279 
L 369.991706 66.315663 
L 370.236359 67.644894 
L 371.214971 55.017202 
L 371.459624 47.927971 
L 371.704277 47.484894 
L 372.438236 34.857202 
L 372.682889 51.694125 
L 372.927542 50.143356 
L 373.172195 51.694125 
L 373.416848 54.574125 
L 373.661501 59.004894 
L 373.906154 67.423356 
L 374.150807 65.42951 
L 374.39546 60.99874 
L 374.640113 63.657202 
L 374.884766 84.260279 
L 375.129419 78.27874 
L 375.374072 76.063356 
L 375.618725 80.715663 
L 376.108031 65.207971 
L 376.352684 64.764894 
L 376.597338 65.42951 
L 376.841991 67.201817 
L 377.086644 57.011048 
L 377.331297 51.915663 
L 377.57595 51.694125 
L 377.820603 50.143356 
L 378.065256 40.395663 
L 378.554562 45.26951 
L 378.799215 41.060279 
L 379.043868 45.712587 
L 379.288521 47.041817 
L 379.777827 53.023356 
L 380.02248 49.035663 
L 380.511786 57.232587 
L 380.756439 54.574125 
L 381.001092 58.561817 
L 381.490398 54.795663 
L 381.490398 54.795663 
" style="fill:none;stroke:#ff7f0e;stroke-linecap:square;stroke-width:1.5;"/>
   </g>
   <g id="patch_3">
    <path d="M 40.603125 288.430125 
L 40.603125 22.318125 
" style="fill:none;stroke:#000000;stroke-linecap:square;stroke-linejoin:miter;stroke-width:0.8;"/>
   </g>
   <g id="patch_4">
    <path d="M 397.723125 288.430125 
L 397.723125 22.318125 
" style="fill:none;stroke:#000000;stroke-linecap:square;stroke-linejoin:miter;stroke-width:0.8;"/>
   </g>
   <g id="patch_5">
    <path d="M 40.603125 288.430125 
L 397.723125 288.430125 
" style="fill:none;stroke:#000000;stroke-linecap:square;stroke-linejoin:miter;stroke-width:0.8;"/>
   </g>
   <g id="patch_6">
    <path d="M 40.603125 22.318125 
L 397.723125 22.318125 
" style="fill:none;stroke:#000000;stroke-linecap:square;stroke-linejoin:miter;stroke-width:0.8;"/>
   </g>
   <g id="text_16">
    <!-- Training: KO -->
    <defs>
     <path d="M -0.296875 72.90625 
L 61.375 72.90625 
L 61.375 64.59375 
L 35.5 64.59375 
L 35.5 0 
L 25.59375 0 
L 25.59375 64.59375 
L -0.296875 64.59375 
z
" id="DejaVuSans-84"/>
     <path d="M 54.890625 33.015625 
L 54.890625 0 
L 45.90625 0 
L 45.90625 32.71875 
Q 45.90625 40.484375 42.875 44.328125 
Q 39.84375 48.1875 33.796875 48.1875 
Q 26.515625 48.1875 22.3125 43.546875 
Q 18.109375 38.921875 18.109375 30.90625 
L 18.109375 0 
L 9.078125 0 
L 9.078125 54.6875 
L 18.109375 54.6875 
L 18.109375 46.1875 
Q 21.34375 51.125 25.703125 53.5625 
Q 30.078125 56 35.796875 56 
Q 45.21875 56 50.046875 50.171875 
Q 54.890625 44.34375 54.890625 33.015625 
z
" id="DejaVuSans-110"/>
     <path d="M 45.40625 27.984375 
Q 45.40625 37.75 41.375 43.109375 
Q 37.359375 48.484375 30.078125 48.484375 
Q 22.859375 48.484375 18.828125 43.109375 
Q 14.796875 37.75 14.796875 27.984375 
Q 14.796875 18.265625 18.828125 12.890625 
Q 22.859375 7.515625 30.078125 7.515625 
Q 37.359375 7.515625 41.375 12.890625 
Q 45.40625 18.265625 45.40625 27.984375 
z
M 54.390625 6.78125 
Q 54.390625 -7.171875 48.1875 -13.984375 
Q 42 -20.796875 29.203125 -20.796875 
Q 24.46875 -20.796875 20.265625 -20.09375 
Q 16.0625 -19.390625 12.109375 -17.921875 
L 12.109375 -9.1875 
Q 16.0625 -11.328125 19.921875 -12.34375 
Q 23.78125 -13.375 27.78125 -13.375 
Q 36.625 -13.375 41.015625 -8.765625 
Q 45.40625 -4.15625 45.40625 5.171875 
L 45.40625 9.625 
Q 42.625 4.78125 38.28125 2.390625 
Q 33.9375 0 27.875 0 
Q 17.828125 0 11.671875 7.65625 
Q 5.515625 15.328125 5.515625 27.984375 
Q 5.515625 40.671875 11.671875 48.328125 
Q 17.828125 56 27.875 56 
Q 33.9375 56 38.28125 53.609375 
Q 42.625 51.21875 45.40625 46.390625 
L 45.40625 54.6875 
L 54.390625 54.6875 
z
" id="DejaVuSans-103"/>
     <path d="M 11.71875 12.40625 
L 22.015625 12.40625 
L 22.015625 0 
L 11.71875 0 
z
M 11.71875 51.703125 
L 22.015625 51.703125 
L 22.015625 39.3125 
L 11.71875 39.3125 
z
" id="DejaVuSans-58"/>
     <path d="M 9.8125 72.90625 
L 19.671875 72.90625 
L 19.671875 42.09375 
L 52.390625 72.90625 
L 65.09375 72.90625 
L 28.90625 38.921875 
L 67.671875 0 
L 54.6875 0 
L 19.671875 35.109375 
L 19.671875 0 
L 9.8125 0 
z
" id="DejaVuSans-75"/>
     <path d="M 39.40625 66.21875 
Q 28.65625 66.21875 22.328125 58.203125 
Q 16.015625 50.203125 16.015625 36.375 
Q 16.015625 22.609375 22.328125 14.59375 
Q 28.65625 6.59375 39.40625 6.59375 
Q 50.140625 6.59375 56.421875 14.59375 
Q 62.703125 22.609375 62.703125 36.375 
Q 62.703125 50.203125 56.421875 58.203125 
Q 50.140625 66.21875 39.40625 66.21875 
z
M 39.40625 74.21875 
Q 54.734375 74.21875 63.90625 63.9375 
Q 73.09375 53.65625 73.09375 36.375 
Q 73.09375 19.140625 63.90625 8.859375 
Q 54.734375 -1.421875 39.40625 -1.421875 
Q 24.03125 -1.421875 14.8125 8.828125 
Q 5.609375 19.09375 5.609375 36.375 
Q 5.609375 53.65625 14.8125 63.9375 
Q 24.03125 74.21875 39.40625 74.21875 
z
" id="DejaVuSans-79"/>
    </defs>
    <g transform="translate(183.23625 16.318125)scale(0.12 -0.12)">
     <use xlink:href="#DejaVuSans-84"/>
     <use x="46.333984" xlink:href="#DejaVuSans-114"/>
     <use x="87.447266" xlink:href="#DejaVuSans-97"/>
     <use x="148.726562" xlink:href="#DejaVuSans-105"/>
     <use x="176.509766" xlink:href="#DejaVuSans-110"/>
     <use x="239.888672" xlink:href="#DejaVuSans-105"/>
     <use x="267.671875" xlink:href="#DejaVuSans-110"/>
     <use x="331.050781" xlink:href="#DejaVuSans-103"/>
     <use x="394.527344" xlink:href="#DejaVuSans-58"/>
     <use x="428.21875" xlink:href="#DejaVuSans-32"/>
     <use x="460.005859" xlink:href="#DejaVuSans-75"/>
     <use x="520.082031" xlink:href="#DejaVuSans-79"/>
    </g>
   </g>
   <g id="legend_1">
    <g id="patch_7">
     <path d="M 47.603125 59.674375 
L 131.33125 59.674375 
Q 133.33125 59.674375 133.33125 57.674375 
L 133.33125 29.318125 
Q 133.33125 27.318125 131.33125 27.318125 
L 47.603125 27.318125 
Q 45.603125 27.318125 45.603125 29.318125 
L 45.603125 57.674375 
Q 45.603125 59.674375 47.603125 59.674375 
z
" style="fill:#ffffff;opacity:0.8;stroke:#cccccc;stroke-linejoin:miter;"/>
    </g>
    <g id="line2d_29">
     <path d="M 49.603125 35.416562 
L 69.603125 35.416562 
" style="fill:none;stroke:#1f77b4;stroke-linecap:square;stroke-width:1.5;"/>
    </g>
    <g id="line2d_30"/>
    <g id="text_17">
     <!-- Predicted -->
     <defs>
      <path d="M 45.40625 46.390625 
L 45.40625 75.984375 
L 54.390625 75.984375 
L 54.390625 0 
L 45.40625 0 
L 45.40625 8.203125 
Q 42.578125 3.328125 38.25 0.953125 
Q 33.9375 -1.421875 27.875 -1.421875 
Q 17.96875 -1.421875 11.734375 6.484375 
Q 5.515625 14.40625 5.515625 27.296875 
Q 5.515625 40.1875 11.734375 48.09375 
Q 17.96875 56 27.875 56 
Q 33.9375 56 38.25 53.625 
Q 42.578125 51.265625 45.40625 46.390625 
z
M 14.796875 27.296875 
Q 14.796875 17.390625 18.875 11.75 
Q 22.953125 6.109375 30.078125 6.109375 
Q 37.203125 6.109375 41.296875 11.75 
Q 45.40625 17.390625 45.40625 27.296875 
Q 45.40625 37.203125 41.296875 42.84375 
Q 37.203125 48.484375 30.078125 48.484375 
Q 22.953125 48.484375 18.875 42.84375 
Q 14.796875 37.203125 14.796875 27.296875 
z
" id="DejaVuSans-100"/>
      <path d="M 18.3125 70.21875 
L 18.3125 54.6875 
L 36.8125 54.6875 
L 36.8125 47.703125 
L 18.3125 47.703125 
L 18.3125 18.015625 
Q 18.3125 11.328125 20.140625 9.421875 
Q 21.96875 7.515625 27.59375 7.515625 
L 36.8125 7.515625 
L 36.8125 0 
L 27.59375 0 
Q 17.1875 0 13.234375 3.875 
Q 9.28125 7.765625 9.28125 18.015625 
L 9.28125 47.703125 
L 2.6875 47.703125 
L 2.6875 54.6875 
L 9.28125 54.6875 
L 9.28125 70.21875 
z
" id="DejaVuSans-116"/>
     </defs>
     <g transform="translate(77.603125 38.916562)scale(0.1 -0.1)">
      <use xlink:href="#DejaVuSans-80"/>
      <use x="58.552734" xlink:href="#DejaVuSans-114"/>
      <use x="97.416016" xlink:href="#DejaVuSans-101"/>
      <use x="158.939453" xlink:href="#DejaVuSans-100"/>
      <use x="222.416016" xlink:href="#DejaVuSans-105"/>
      <use x="250.199219" xlink:href="#DejaVuSans-99"/>
      <use x="305.179688" xlink:href="#DejaVuSans-116"/>
      <use x="344.388672" xlink:href="#DejaVuSans-101"/>
      <use x="405.912109" xlink:href="#DejaVuSans-100"/>
     </g>
    </g>
    <g id="line2d_31">
     <path d="M 49.603125 50.094687 
L 69.603125 50.094687 
" style="fill:none;stroke:#ff7f0e;stroke-linecap:square;stroke-width:1.5;"/>
    </g>
    <g id="line2d_32"/>
    <g id="text_18">
     <!-- True value -->
     <defs>
      <path d="M 8.5 21.578125 
L 8.5 54.6875 
L 17.484375 54.6875 
L 17.484375 21.921875 
Q 17.484375 14.15625 20.5 10.265625 
Q 23.53125 6.390625 29.59375 6.390625 
Q 36.859375 6.390625 41.078125 11.03125 
Q 45.3125 15.671875 45.3125 23.6875 
L 45.3125 54.6875 
L 54.296875 54.6875 
L 54.296875 0 
L 45.3125 0 
L 45.3125 8.40625 
Q 42.046875 3.421875 37.71875 1 
Q 33.40625 -1.421875 27.6875 -1.421875 
Q 18.265625 -1.421875 13.375 4.4375 
Q 8.5 10.296875 8.5 21.578125 
z
M 31.109375 56 
z
" id="DejaVuSans-117"/>
      <path d="M 2.984375 54.6875 
L 12.5 54.6875 
L 29.59375 8.796875 
L 46.6875 54.6875 
L 56.203125 54.6875 
L 35.6875 0 
L 23.484375 0 
z
" id="DejaVuSans-118"/>
      <path d="M 9.421875 75.984375 
L 18.40625 75.984375 
L 18.40625 0 
L 9.421875 0 
z
" id="DejaVuSans-108"/>
     </defs>
     <g transform="translate(77.603125 53.594687)scale(0.1 -0.1)">
      <use xlink:href="#DejaVuSans-84"/>
      <use x="46.333984" xlink:href="#DejaVuSans-114"/>
      <use x="87.447266" xlink:href="#DejaVuSans-117"/>
      <use x="150.826172" xlink:href="#DejaVuSans-101"/>
      <use x="212.349609" xlink:href="#DejaVuSans-32"/>
      <use x="244.136719" xlink:href="#DejaVuSans-118"/>
      <use x="303.316406" xlink:href="#DejaVuSans-97"/>
      <use x="364.595703" xlink:href="#DejaVuSans-108"/>
      <use x="392.378906" xlink:href="#DejaVuSans-117"/>
      <use x="455.757812" xlink:href="#DejaVuSans-101"/>
     </g>
    </g>
   </g>
  </g>
 </g>
 <defs>
  <clipPath id="pec2a702037">
   <rect height="266.112" width="357.12" x="40.603125" y="22.318125"/>
  </clipPath>
 </defs>
</svg>
