<?xml version="1.0" encoding="utf-8" standalone="no"?>
<!DOCTYPE svg PUBLIC "-//W3C//DTD SVG 1.1//EN"
  "http://www.w3.org/Graphics/SVG/1.1/DTD/svg11.dtd">
<!-- Created with matplotlib (https://matplotlib.org/) -->
<svg height="325.986375pt" version="1.1" viewBox="0 0 406.940312 325.986375" width="406.940312pt" xmlns="http://www.w3.org/2000/svg" xmlns:xlink="http://www.w3.org/1999/xlink">
 <defs>
  <style type="text/css">
*{stroke-linecap:butt;stroke-linejoin:round;}
  </style>
 </defs>
 <g id="figure_1">
  <g id="patch_1">
   <path d="M 0 325.986375 
L 406.940312 325.986375 
L 406.940312 0 
L 0 0 
z
" style="fill:#ffffff;"/>
  </g>
  <g id="axes_1">
   <g id="patch_2">
    <path d="M 42.620313 288.430125 
L 399.740313 288.430125 
L 399.740313 22.318125 
L 42.620313 22.318125 
z
" style="fill:#ffffff;"/>
   </g>
   <g id="matplotlib.axis_1">
    <g id="xtick_1">
     <g id="line2d_1">
      <path clip-path="url(#p535b74f802)" d="M 58.85304 288.430125 
L 58.85304 22.318125 
" style="fill:none;stroke:#b0b0b0;stroke-dasharray:2.96,1.28;stroke-dashoffset:0;stroke-width:0.8;"/>
     </g>
     <g id="line2d_2">
      <defs>
       <path d="M 0 0 
L 0 3.5 
" id="m6ca1d8539e" style="stroke:#000000;stroke-width:0.8;"/>
      </defs>
      <g>
       <use style="stroke:#000000;stroke-width:0.8;" x="58.85304" xlink:href="#m6ca1d8539e" y="288.430125"/>
      </g>
     </g>
     <g id="text_1">
      <!-- 0 -->
      <defs>
       <path d="M 31.78125 66.40625 
Q 24.171875 66.40625 20.328125 58.90625 
Q 16.5 51.421875 16.5 36.375 
Q 16.5 21.390625 20.328125 13.890625 
Q 24.171875 6.390625 31.78125 6.390625 
Q 39.453125 6.390625 43.28125 13.890625 
Q 47.125 21.390625 47.125 36.375 
Q 47.125 51.421875 43.28125 58.90625 
Q 39.453125 66.40625 31.78125 66.40625 
z
M 31.78125 74.21875 
Q 44.046875 74.21875 50.515625 64.515625 
Q 56.984375 54.828125 56.984375 36.375 
Q 56.984375 17.96875 50.515625 8.265625 
Q 44.046875 -1.421875 31.78125 -1.421875 
Q 19.53125 -1.421875 13.0625 8.265625 
Q 6.59375 17.96875 6.59375 36.375 
Q 6.59375 54.828125 13.0625 64.515625 
Q 19.53125 74.21875 31.78125 74.21875 
z
" id="DejaVuSans-48"/>
      </defs>
      <g transform="translate(55.67179 303.028562)scale(0.1 -0.1)">
       <use xlink:href="#DejaVuSans-48"/>
      </g>
     </g>
    </g>
    <g id="xtick_2">
     <g id="line2d_3">
      <path clip-path="url(#p535b74f802)" d="M 107.783642 288.430125 
L 107.783642 22.318125 
" style="fill:none;stroke:#b0b0b0;stroke-dasharray:2.96,1.28;stroke-dashoffset:0;stroke-width:0.8;"/>
     </g>
     <g id="line2d_4">
      <g>
       <use style="stroke:#000000;stroke-width:0.8;" x="107.783642" xlink:href="#m6ca1d8539e" y="288.430125"/>
      </g>
     </g>
     <g id="text_2">
      <!-- 200 -->
      <defs>
       <path d="M 19.1875 8.296875 
L 53.609375 8.296875 
L 53.609375 0 
L 7.328125 0 
L 7.328125 8.296875 
Q 12.9375 14.109375 22.625 23.890625 
Q 32.328125 33.6875 34.8125 36.53125 
Q 39.546875 41.84375 41.421875 45.53125 
Q 43.3125 49.21875 43.3125 52.78125 
Q 43.3125 58.59375 39.234375 62.25 
Q 35.15625 65.921875 28.609375 65.921875 
Q 23.96875 65.921875 18.8125 64.3125 
Q 13.671875 62.703125 7.8125 59.421875 
L 7.8125 69.390625 
Q 13.765625 71.78125 18.9375 73 
Q 24.125 74.21875 28.421875 74.21875 
Q 39.75 74.21875 46.484375 68.546875 
Q 53.21875 62.890625 53.21875 53.421875 
Q 53.21875 48.921875 51.53125 44.890625 
Q 49.859375 40.875 45.40625 35.40625 
Q 44.1875 33.984375 37.640625 27.21875 
Q 31.109375 20.453125 19.1875 8.296875 
z
" id="DejaVuSans-50"/>
      </defs>
      <g transform="translate(98.239892 303.028562)scale(0.1 -0.1)">
       <use xlink:href="#DejaVuSans-50"/>
       <use x="63.623047" xlink:href="#DejaVuSans-48"/>
       <use x="127.246094" xlink:href="#DejaVuSans-48"/>
      </g>
     </g>
    </g>
    <g id="xtick_3">
     <g id="line2d_5">
      <path clip-path="url(#p535b74f802)" d="M 156.714244 288.430125 
L 156.714244 22.318125 
" style="fill:none;stroke:#b0b0b0;stroke-dasharray:2.96,1.28;stroke-dashoffset:0;stroke-width:0.8;"/>
     </g>
     <g id="line2d_6">
      <g>
       <use style="stroke:#000000;stroke-width:0.8;" x="156.714244" xlink:href="#m6ca1d8539e" y="288.430125"/>
      </g>
     </g>
     <g id="text_3">
      <!-- 400 -->
      <defs>
       <path d="M 37.796875 64.3125 
L 12.890625 25.390625 
L 37.796875 25.390625 
z
M 35.203125 72.90625 
L 47.609375 72.90625 
L 47.609375 25.390625 
L 58.015625 25.390625 
L 58.015625 17.1875 
L 47.609375 17.1875 
L 47.609375 0 
L 37.796875 0 
L 37.796875 17.1875 
L 4.890625 17.1875 
L 4.890625 26.703125 
z
" id="DejaVuSans-52"/>
      </defs>
      <g transform="translate(147.170494 303.028562)scale(0.1 -0.1)">
       <use xlink:href="#DejaVuSans-52"/>
       <use x="63.623047" xlink:href="#DejaVuSans-48"/>
       <use x="127.246094" xlink:href="#DejaVuSans-48"/>
      </g>
     </g>
    </g>
    <g id="xtick_4">
     <g id="line2d_7">
      <path clip-path="url(#p535b74f802)" d="M 205.644846 288.430125 
L 205.644846 22.318125 
" style="fill:none;stroke:#b0b0b0;stroke-dasharray:2.96,1.28;stroke-dashoffset:0;stroke-width:0.8;"/>
     </g>
     <g id="line2d_8">
      <g>
       <use style="stroke:#000000;stroke-width:0.8;" x="205.644846" xlink:href="#m6ca1d8539e" y="288.430125"/>
      </g>
     </g>
     <g id="text_4">
      <!-- 600 -->
      <defs>
       <path d="M 33.015625 40.375 
Q 26.375 40.375 22.484375 35.828125 
Q 18.609375 31.296875 18.609375 23.390625 
Q 18.609375 15.53125 22.484375 10.953125 
Q 26.375 6.390625 33.015625 6.390625 
Q 39.65625 6.390625 43.53125 10.953125 
Q 47.40625 15.53125 47.40625 23.390625 
Q 47.40625 31.296875 43.53125 35.828125 
Q 39.65625 40.375 33.015625 40.375 
z
M 52.59375 71.296875 
L 52.59375 62.3125 
Q 48.875 64.0625 45.09375 64.984375 
Q 41.3125 65.921875 37.59375 65.921875 
Q 27.828125 65.921875 22.671875 59.328125 
Q 17.53125 52.734375 16.796875 39.40625 
Q 19.671875 43.65625 24.015625 45.921875 
Q 28.375 48.1875 33.59375 48.1875 
Q 44.578125 48.1875 50.953125 41.515625 
Q 57.328125 34.859375 57.328125 23.390625 
Q 57.328125 12.15625 50.6875 5.359375 
Q 44.046875 -1.421875 33.015625 -1.421875 
Q 20.359375 -1.421875 13.671875 8.265625 
Q 6.984375 17.96875 6.984375 36.375 
Q 6.984375 53.65625 15.1875 63.9375 
Q 23.390625 74.21875 37.203125 74.21875 
Q 40.921875 74.21875 44.703125 73.484375 
Q 48.484375 72.75 52.59375 71.296875 
z
" id="DejaVuSans-54"/>
      </defs>
      <g transform="translate(196.101096 303.028562)scale(0.1 -0.1)">
       <use xlink:href="#DejaVuSans-54"/>
       <use x="63.623047" xlink:href="#DejaVuSans-48"/>
       <use x="127.246094" xlink:href="#DejaVuSans-48"/>
      </g>
     </g>
    </g>
    <g id="xtick_5">
     <g id="line2d_9">
      <path clip-path="url(#p535b74f802)" d="M 254.575448 288.430125 
L 254.575448 22.318125 
" style="fill:none;stroke:#b0b0b0;stroke-dasharray:2.96,1.28;stroke-dashoffset:0;stroke-width:0.8;"/>
     </g>
     <g id="line2d_10">
      <g>
       <use style="stroke:#000000;stroke-width:0.8;" x="254.575448" xlink:href="#m6ca1d8539e" y="288.430125"/>
      </g>
     </g>
     <g id="text_5">
      <!-- 800 -->
      <defs>
       <path d="M 31.78125 34.625 
Q 24.75 34.625 20.71875 30.859375 
Q 16.703125 27.09375 16.703125 20.515625 
Q 16.703125 13.921875 20.71875 10.15625 
Q 24.75 6.390625 31.78125 6.390625 
Q 38.8125 6.390625 42.859375 10.171875 
Q 46.921875 13.96875 46.921875 20.515625 
Q 46.921875 27.09375 42.890625 30.859375 
Q 38.875 34.625 31.78125 34.625 
z
M 21.921875 38.8125 
Q 15.578125 40.375 12.03125 44.71875 
Q 8.5 49.078125 8.5 55.328125 
Q 8.5 64.0625 14.71875 69.140625 
Q 20.953125 74.21875 31.78125 74.21875 
Q 42.671875 74.21875 48.875 69.140625 
Q 55.078125 64.0625 55.078125 55.328125 
Q 55.078125 49.078125 51.53125 44.71875 
Q 48 40.375 41.703125 38.8125 
Q 48.828125 37.15625 52.796875 32.3125 
Q 56.78125 27.484375 56.78125 20.515625 
Q 56.78125 9.90625 50.3125 4.234375 
Q 43.84375 -1.421875 31.78125 -1.421875 
Q 19.734375 -1.421875 13.25 4.234375 
Q 6.78125 9.90625 6.78125 20.515625 
Q 6.78125 27.484375 10.78125 32.3125 
Q 14.796875 37.15625 21.921875 38.8125 
z
M 18.3125 54.390625 
Q 18.3125 48.734375 21.84375 45.5625 
Q 25.390625 42.390625 31.78125 42.390625 
Q 38.140625 42.390625 41.71875 45.5625 
Q 45.3125 48.734375 45.3125 54.390625 
Q 45.3125 60.0625 41.71875 63.234375 
Q 38.140625 66.40625 31.78125 66.40625 
Q 25.390625 66.40625 21.84375 63.234375 
Q 18.3125 60.0625 18.3125 54.390625 
z
" id="DejaVuSans-56"/>
      </defs>
      <g transform="translate(245.031698 303.028562)scale(0.1 -0.1)">
       <use xlink:href="#DejaVuSans-56"/>
       <use x="63.623047" xlink:href="#DejaVuSans-48"/>
       <use x="127.246094" xlink:href="#DejaVuSans-48"/>
      </g>
     </g>
    </g>
    <g id="xtick_6">
     <g id="line2d_11">
      <path clip-path="url(#p535b74f802)" d="M 303.506051 288.430125 
L 303.506051 22.318125 
" style="fill:none;stroke:#b0b0b0;stroke-dasharray:2.96,1.28;stroke-dashoffset:0;stroke-width:0.8;"/>
     </g>
     <g id="line2d_12">
      <g>
       <use style="stroke:#000000;stroke-width:0.8;" x="303.506051" xlink:href="#m6ca1d8539e" y="288.430125"/>
      </g>
     </g>
     <g id="text_6">
      <!-- 1000 -->
      <defs>
       <path d="M 12.40625 8.296875 
L 28.515625 8.296875 
L 28.515625 63.921875 
L 10.984375 60.40625 
L 10.984375 69.390625 
L 28.421875 72.90625 
L 38.28125 72.90625 
L 38.28125 8.296875 
L 54.390625 8.296875 
L 54.390625 0 
L 12.40625 0 
z
" id="DejaVuSans-49"/>
      </defs>
      <g transform="translate(290.781051 303.028562)scale(0.1 -0.1)">
       <use xlink:href="#DejaVuSans-49"/>
       <use x="63.623047" xlink:href="#DejaVuSans-48"/>
       <use x="127.246094" xlink:href="#DejaVuSans-48"/>
       <use x="190.869141" xlink:href="#DejaVuSans-48"/>
      </g>
     </g>
    </g>
    <g id="xtick_7">
     <g id="line2d_13">
      <path clip-path="url(#p535b74f802)" d="M 352.436653 288.430125 
L 352.436653 22.318125 
" style="fill:none;stroke:#b0b0b0;stroke-dasharray:2.96,1.28;stroke-dashoffset:0;stroke-width:0.8;"/>
     </g>
     <g id="line2d_14">
      <g>
       <use style="stroke:#000000;stroke-width:0.8;" x="352.436653" xlink:href="#m6ca1d8539e" y="288.430125"/>
      </g>
     </g>
     <g id="text_7">
      <!-- 1200 -->
      <g transform="translate(339.711653 303.028562)scale(0.1 -0.1)">
       <use xlink:href="#DejaVuSans-49"/>
       <use x="63.623047" xlink:href="#DejaVuSans-50"/>
       <use x="127.246094" xlink:href="#DejaVuSans-48"/>
       <use x="190.869141" xlink:href="#DejaVuSans-48"/>
      </g>
     </g>
    </g>
    <g id="text_8">
     <!-- Day -->
     <defs>
      <path d="M 19.671875 64.796875 
L 19.671875 8.109375 
L 31.59375 8.109375 
Q 46.6875 8.109375 53.6875 14.9375 
Q 60.6875 21.78125 60.6875 36.53125 
Q 60.6875 51.171875 53.6875 57.984375 
Q 46.6875 64.796875 31.59375 64.796875 
z
M 9.8125 72.90625 
L 30.078125 72.90625 
Q 51.265625 72.90625 61.171875 64.09375 
Q 71.09375 55.28125 71.09375 36.53125 
Q 71.09375 17.671875 61.125 8.828125 
Q 51.171875 0 30.078125 0 
L 9.8125 0 
z
" id="DejaVuSans-68"/>
      <path d="M 34.28125 27.484375 
Q 23.390625 27.484375 19.1875 25 
Q 14.984375 22.515625 14.984375 16.5 
Q 14.984375 11.71875 18.140625 8.90625 
Q 21.296875 6.109375 26.703125 6.109375 
Q 34.1875 6.109375 38.703125 11.40625 
Q 43.21875 16.703125 43.21875 25.484375 
L 43.21875 27.484375 
z
M 52.203125 31.203125 
L 52.203125 0 
L 43.21875 0 
L 43.21875 8.296875 
Q 40.140625 3.328125 35.546875 0.953125 
Q 30.953125 -1.421875 24.3125 -1.421875 
Q 15.921875 -1.421875 10.953125 3.296875 
Q 6 8.015625 6 15.921875 
Q 6 25.140625 12.171875 29.828125 
Q 18.359375 34.515625 30.609375 34.515625 
L 43.21875 34.515625 
L 43.21875 35.40625 
Q 43.21875 41.609375 39.140625 45 
Q 35.0625 48.390625 27.6875 48.390625 
Q 23 48.390625 18.546875 47.265625 
Q 14.109375 46.140625 10.015625 43.890625 
L 10.015625 52.203125 
Q 14.9375 54.109375 19.578125 55.046875 
Q 24.21875 56 28.609375 56 
Q 40.484375 56 46.34375 49.84375 
Q 52.203125 43.703125 52.203125 31.203125 
z
" id="DejaVuSans-97"/>
      <path d="M 32.171875 -5.078125 
Q 28.375 -14.84375 24.75 -17.8125 
Q 21.140625 -20.796875 15.09375 -20.796875 
L 7.90625 -20.796875 
L 7.90625 -13.28125 
L 13.1875 -13.28125 
Q 16.890625 -13.28125 18.9375 -11.515625 
Q 21 -9.765625 23.484375 -3.21875 
L 25.09375 0.875 
L 2.984375 54.6875 
L 12.5 54.6875 
L 29.59375 11.921875 
L 46.6875 54.6875 
L 56.203125 54.6875 
z
" id="DejaVuSans-121"/>
     </defs>
     <g transform="translate(211.306875 316.706687)scale(0.1 -0.1)">
      <use xlink:href="#DejaVuSans-68"/>
      <use x="77.001953" xlink:href="#DejaVuSans-97"/>
      <use x="138.28125" xlink:href="#DejaVuSans-121"/>
     </g>
    </g>
   </g>
   <g id="matplotlib.axis_2">
    <g id="ytick_1">
     <g id="line2d_15">
      <path clip-path="url(#p535b74f802)" d="M 42.620313 267.326465 
L 399.740313 267.326465 
" style="fill:none;stroke:#b0b0b0;stroke-dasharray:2.96,1.28;stroke-dashoffset:0;stroke-width:0.8;"/>
     </g>
     <g id="line2d_16">
      <defs>
       <path d="M 0 0 
L -3.5 0 
" id="m4443e080e9" style="stroke:#000000;stroke-width:0.8;"/>
      </defs>
      <g>
       <use style="stroke:#000000;stroke-width:0.8;" x="42.620313" xlink:href="#m4443e080e9" y="267.326465"/>
      </g>
     </g>
     <g id="text_9">
      <!-- −4 -->
      <defs>
       <path d="M 10.59375 35.5 
L 73.1875 35.5 
L 73.1875 27.203125 
L 10.59375 27.203125 
z
" id="DejaVuSans-8722"/>
      </defs>
      <g transform="translate(20.878125 271.125684)scale(0.1 -0.1)">
       <use xlink:href="#DejaVuSans-8722"/>
       <use x="83.789062" xlink:href="#DejaVuSans-52"/>
      </g>
     </g>
    </g>
    <g id="ytick_2">
     <g id="line2d_17">
      <path clip-path="url(#p535b74f802)" d="M 42.620313 215.854125 
L 399.740313 215.854125 
" style="fill:none;stroke:#b0b0b0;stroke-dasharray:2.96,1.28;stroke-dashoffset:0;stroke-width:0.8;"/>
     </g>
     <g id="line2d_18">
      <g>
       <use style="stroke:#000000;stroke-width:0.8;" x="42.620313" xlink:href="#m4443e080e9" y="215.854125"/>
      </g>
     </g>
     <g id="text_10">
      <!-- −2 -->
      <g transform="translate(20.878125 219.653344)scale(0.1 -0.1)">
       <use xlink:href="#DejaVuSans-8722"/>
       <use x="83.789062" xlink:href="#DejaVuSans-50"/>
      </g>
     </g>
    </g>
    <g id="ytick_3">
     <g id="line2d_19">
      <path clip-path="url(#p535b74f802)" d="M 42.620313 164.381785 
L 399.740313 164.381785 
" style="fill:none;stroke:#b0b0b0;stroke-dasharray:2.96,1.28;stroke-dashoffset:0;stroke-width:0.8;"/>
     </g>
     <g id="line2d_20">
      <g>
       <use style="stroke:#000000;stroke-width:0.8;" x="42.620313" xlink:href="#m4443e080e9" y="164.381785"/>
      </g>
     </g>
     <g id="text_11">
      <!-- 0 -->
      <g transform="translate(29.257813 168.181003)scale(0.1 -0.1)">
       <use xlink:href="#DejaVuSans-48"/>
      </g>
     </g>
    </g>
    <g id="ytick_4">
     <g id="line2d_21">
      <path clip-path="url(#p535b74f802)" d="M 42.620313 112.909444 
L 399.740313 112.909444 
" style="fill:none;stroke:#b0b0b0;stroke-dasharray:2.96,1.28;stroke-dashoffset:0;stroke-width:0.8;"/>
     </g>
     <g id="line2d_22">
      <g>
       <use style="stroke:#000000;stroke-width:0.8;" x="42.620313" xlink:href="#m4443e080e9" y="112.909444"/>
      </g>
     </g>
     <g id="text_12">
      <!-- 2 -->
      <g transform="translate(29.257813 116.708663)scale(0.1 -0.1)">
       <use xlink:href="#DejaVuSans-50"/>
      </g>
     </g>
    </g>
    <g id="ytick_5">
     <g id="line2d_23">
      <path clip-path="url(#p535b74f802)" d="M 42.620313 61.437104 
L 399.740313 61.437104 
" style="fill:none;stroke:#b0b0b0;stroke-dasharray:2.96,1.28;stroke-dashoffset:0;stroke-width:0.8;"/>
     </g>
     <g id="line2d_24">
      <g>
       <use style="stroke:#000000;stroke-width:0.8;" x="42.620313" xlink:href="#m4443e080e9" y="61.437104"/>
      </g>
     </g>
     <g id="text_13">
      <!-- 4 -->
      <g transform="translate(29.257813 65.236322)scale(0.1 -0.1)">
       <use xlink:href="#DejaVuSans-52"/>
      </g>
     </g>
    </g>
    <g id="text_14">
     <!-- Change $ -->
     <defs>
      <path d="M 64.40625 67.28125 
L 64.40625 56.890625 
Q 59.421875 61.53125 53.78125 63.8125 
Q 48.140625 66.109375 41.796875 66.109375 
Q 29.296875 66.109375 22.65625 58.46875 
Q 16.015625 50.828125 16.015625 36.375 
Q 16.015625 21.96875 22.65625 14.328125 
Q 29.296875 6.6875 41.796875 6.6875 
Q 48.140625 6.6875 53.78125 8.984375 
Q 59.421875 11.28125 64.40625 15.921875 
L 64.40625 5.609375 
Q 59.234375 2.09375 53.4375 0.328125 
Q 47.65625 -1.421875 41.21875 -1.421875 
Q 24.65625 -1.421875 15.125 8.703125 
Q 5.609375 18.84375 5.609375 36.375 
Q 5.609375 53.953125 15.125 64.078125 
Q 24.65625 74.21875 41.21875 74.21875 
Q 47.75 74.21875 53.53125 72.484375 
Q 59.328125 70.75 64.40625 67.28125 
z
" id="DejaVuSans-67"/>
      <path d="M 54.890625 33.015625 
L 54.890625 0 
L 45.90625 0 
L 45.90625 32.71875 
Q 45.90625 40.484375 42.875 44.328125 
Q 39.84375 48.1875 33.796875 48.1875 
Q 26.515625 48.1875 22.3125 43.546875 
Q 18.109375 38.921875 18.109375 30.90625 
L 18.109375 0 
L 9.078125 0 
L 9.078125 75.984375 
L 18.109375 75.984375 
L 18.109375 46.1875 
Q 21.34375 51.125 25.703125 53.5625 
Q 30.078125 56 35.796875 56 
Q 45.21875 56 50.046875 50.171875 
Q 54.890625 44.34375 54.890625 33.015625 
z
" id="DejaVuSans-104"/>
      <path d="M 54.890625 33.015625 
L 54.890625 0 
L 45.90625 0 
L 45.90625 32.71875 
Q 45.90625 40.484375 42.875 44.328125 
Q 39.84375 48.1875 33.796875 48.1875 
Q 26.515625 48.1875 22.3125 43.546875 
Q 18.109375 38.921875 18.109375 30.90625 
L 18.109375 0 
L 9.078125 0 
L 9.078125 54.6875 
L 18.109375 54.6875 
L 18.109375 46.1875 
Q 21.34375 51.125 25.703125 53.5625 
Q 30.078125 56 35.796875 56 
Q 45.21875 56 50.046875 50.171875 
Q 54.890625 44.34375 54.890625 33.015625 
z
" id="DejaVuSans-110"/>
      <path d="M 45.40625 27.984375 
Q 45.40625 37.75 41.375 43.109375 
Q 37.359375 48.484375 30.078125 48.484375 
Q 22.859375 48.484375 18.828125 43.109375 
Q 14.796875 37.75 14.796875 27.984375 
Q 14.796875 18.265625 18.828125 12.890625 
Q 22.859375 7.515625 30.078125 7.515625 
Q 37.359375 7.515625 41.375 12.890625 
Q 45.40625 18.265625 45.40625 27.984375 
z
M 54.390625 6.78125 
Q 54.390625 -7.171875 48.1875 -13.984375 
Q 42 -20.796875 29.203125 -20.796875 
Q 24.46875 -20.796875 20.265625 -20.09375 
Q 16.0625 -19.390625 12.109375 -17.921875 
L 12.109375 -9.1875 
Q 16.0625 -11.328125 19.921875 -12.34375 
Q 23.78125 -13.375 27.78125 -13.375 
Q 36.625 -13.375 41.015625 -8.765625 
Q 45.40625 -4.15625 45.40625 5.171875 
L 45.40625 9.625 
Q 42.625 4.78125 38.28125 2.390625 
Q 33.9375 0 27.875 0 
Q 17.828125 0 11.671875 7.65625 
Q 5.515625 15.328125 5.515625 27.984375 
Q 5.515625 40.671875 11.671875 48.328125 
Q 17.828125 56 27.875 56 
Q 33.9375 56 38.28125 53.609375 
Q 42.625 51.21875 45.40625 46.390625 
L 45.40625 54.6875 
L 54.390625 54.6875 
z
" id="DejaVuSans-103"/>
      <path d="M 56.203125 29.59375 
L 56.203125 25.203125 
L 14.890625 25.203125 
Q 15.484375 15.921875 20.484375 11.0625 
Q 25.484375 6.203125 34.421875 6.203125 
Q 39.59375 6.203125 44.453125 7.46875 
Q 49.3125 8.734375 54.109375 11.28125 
L 54.109375 2.78125 
Q 49.265625 0.734375 44.1875 -0.34375 
Q 39.109375 -1.421875 33.890625 -1.421875 
Q 20.796875 -1.421875 13.15625 6.1875 
Q 5.515625 13.8125 5.515625 26.8125 
Q 5.515625 40.234375 12.765625 48.109375 
Q 20.015625 56 32.328125 56 
Q 43.359375 56 49.78125 48.890625 
Q 56.203125 41.796875 56.203125 29.59375 
z
M 47.21875 32.234375 
Q 47.125 39.59375 43.09375 43.984375 
Q 39.0625 48.390625 32.421875 48.390625 
Q 24.90625 48.390625 20.390625 44.140625 
Q 15.875 39.890625 15.1875 32.171875 
z
" id="DejaVuSans-101"/>
      <path id="DejaVuSans-32"/>
      <path d="M 33.796875 -14.703125 
L 28.90625 -14.703125 
L 28.859375 0 
Q 23.734375 0.09375 18.609375 1.1875 
Q 13.484375 2.296875 8.296875 4.5 
L 8.296875 13.28125 
Q 13.28125 10.15625 18.375 8.5625 
Q 23.484375 6.984375 28.90625 6.9375 
L 28.90625 29.203125 
Q 18.109375 30.953125 13.203125 35.15625 
Q 8.296875 39.359375 8.296875 46.6875 
Q 8.296875 54.640625 13.625 59.21875 
Q 18.953125 63.8125 28.90625 64.5 
L 28.90625 75.984375 
L 33.796875 75.984375 
L 33.796875 64.65625 
Q 38.328125 64.453125 42.578125 63.6875 
Q 46.828125 62.9375 50.875 61.625 
L 50.875 53.078125 
Q 46.828125 55.125 42.546875 56.25 
Q 38.28125 57.375 33.796875 57.5625 
L 33.796875 36.71875 
Q 44.875 35.015625 50.09375 30.609375 
Q 55.328125 26.21875 55.328125 18.609375 
Q 55.328125 10.359375 49.78125 5.59375 
Q 44.234375 0.828125 33.796875 0.09375 
z
M 28.90625 37.59375 
L 28.90625 57.625 
Q 23.25 56.984375 20.265625 54.390625 
Q 17.28125 51.8125 17.28125 47.515625 
Q 17.28125 43.3125 20.03125 40.96875 
Q 22.796875 38.625 28.90625 37.59375 
z
M 33.796875 28.21875 
L 33.796875 7.078125 
Q 39.984375 7.90625 43.140625 10.59375 
Q 46.296875 13.28125 46.296875 17.671875 
Q 46.296875 21.96875 43.28125 24.5 
Q 40.28125 27.046875 33.796875 28.21875 
z
" id="DejaVuSans-36"/>
     </defs>
     <g transform="translate(14.798438 179.288187)rotate(-90)scale(0.1 -0.1)">
      <use xlink:href="#DejaVuSans-67"/>
      <use x="69.824219" xlink:href="#DejaVuSans-104"/>
      <use x="133.203125" xlink:href="#DejaVuSans-97"/>
      <use x="194.482422" xlink:href="#DejaVuSans-110"/>
      <use x="257.861328" xlink:href="#DejaVuSans-103"/>
      <use x="321.337891" xlink:href="#DejaVuSans-101"/>
      <use x="382.861328" xlink:href="#DejaVuSans-32"/>
      <use x="414.648438" xlink:href="#DejaVuSans-36"/>
     </g>
    </g>
   </g>
   <g id="line2d_25">
    <path clip-path="url(#p535b74f802)" d="M 58.85304 258.889135 
L 59.342346 225.74529 
L 59.831652 201.943739 
L 60.810264 174.549849 
L 61.29957 170.368985 
L 61.544223 169.825115 
L 61.788876 168.192202 
L 62.033529 168.879301 
L 62.522835 165.110771 
L 63.012141 165.863948 
L 63.256794 164.824017 
L 63.501447 165.459133 
L 63.990753 169.332587 
L 64.235406 169.085277 
L 64.724712 166.059138 
L 64.969365 165.396841 
L 65.214018 166.08518 
L 65.458671 165.897488 
L 65.703324 164.896172 
L 65.947977 164.887506 
L 66.437283 167.69309 
L 66.681936 166.425006 
L 66.926589 165.909557 
L 67.171242 165.664922 
L 67.415895 166.300644 
L 67.660548 165.691029 
L 67.905201 165.57542 
L 68.149854 166.50463 
L 68.394507 166.155807 
L 68.63916 166.95018 
L 68.883813 165.826262 
L 69.128466 163.911756 
L 69.617772 166.279931 
L 70.107078 169.803515 
L 70.596384 166.666598 
L 70.841037 166.297804 
L 71.330343 169.381786 
L 71.574996 167.852585 
L 71.819649 168.985075 
L 72.064302 169.059062 
L 72.308955 170.325539 
L 72.553608 168.939185 
L 72.798261 168.199202 
L 73.042914 167.042941 
L 73.287567 167.253366 
L 73.53222 169.899859 
L 73.776873 170.292864 
L 74.021526 167.614489 
L 74.510832 170.930786 
L 74.755485 168.27794 
L 75.000138 163.854669 
L 75.244792 161.668557 
L 75.489445 162.12637 
L 75.734098 162.872878 
L 75.978751 164.378777 
L 76.223404 167.018053 
L 76.468057 167.490092 
L 76.71271 169.393409 
L 76.957363 168.601047 
L 77.202016 166.940577 
L 77.446669 166.558884 
L 77.691322 164.61551 
L 77.935975 164.75432 
L 78.180628 163.570482 
L 78.425281 163.42333 
L 78.669934 161.125523 
L 78.914587 160.157496 
L 79.15924 159.949969 
L 79.648546 163.195674 
L 79.893199 164.570262 
L 80.137852 166.600758 
L 80.382505 166.204444 
L 80.627158 163.864323 
L 80.871811 165.797769 
L 81.116464 164.97739 
L 81.361117 163.557929 
L 81.60577 163.877445 
L 81.850423 161.490064 
L 82.584382 166.754521 
L 82.829035 164.593052 
L 83.073688 160.633773 
L 83.318341 163.167347 
L 83.562994 160.318684 
L 83.807647 159.068235 
L 84.296953 161.169986 
L 84.541606 160.639094 
L 84.786259 161.436661 
L 85.030912 161.39514 
L 85.275565 158.465044 
L 85.764871 159.599956 
L 86.254177 161.547043 
L 86.49883 160.869598 
L 86.743483 162.475122 
L 86.988136 162.510536 
L 87.232789 161.390021 
L 87.477442 159.031862 
L 87.966748 162.197156 
L 88.211401 160.208288 
L 88.456054 162.236074 
L 88.700707 162.197214 
L 89.434666 163.357375 
L 89.679319 161.917676 
L 89.923972 161.954093 
L 90.168625 163.227822 
L 90.413278 163.400735 
L 90.657931 165.446596 
L 90.902584 164.452648 
L 91.147237 164.672619 
L 91.39189 166.317818 
L 91.636543 166.382554 
L 91.881196 165.203381 
L 92.125849 165.003274 
L 92.370502 165.381772 
L 92.615155 162.94809 
L 93.104461 163.645204 
L 93.349114 163.770654 
L 93.593767 165.493488 
L 93.83842 165.171766 
L 94.083073 166.484602 
L 94.572379 164.381964 
L 94.817032 165.699507 
L 95.061685 166.068208 
L 95.306338 165.785808 
L 95.550991 163.472703 
L 95.795644 165.048428 
L 96.040297 163.111579 
L 96.28495 163.518917 
L 96.774256 165.181766 
L 97.018909 165.251831 
L 97.263562 163.743105 
L 97.508215 165.14522 
L 97.752869 164.450089 
L 97.997522 164.720787 
L 98.242175 162.112751 
L 98.486828 164.356319 
L 98.731481 163.190764 
L 98.976134 165.683639 
L 99.220787 165.970689 
L 99.710093 166.021662 
L 100.199399 164.605193 
L 100.444052 166.305165 
L 100.688705 166.992336 
L 100.933358 165.321434 
L 101.178011 165.522558 
L 101.667317 161.131118 
L 101.91197 162.065325 
L 102.156623 161.535392 
L 102.401276 163.89968 
L 102.645929 162.622591 
L 102.890582 162.480414 
L 103.869194 156.682051 
L 104.113847 156.367986 
L 104.3585 154.191433 
L 104.603153 155.425877 
L 104.847806 155.35623 
L 105.092459 155.086412 
L 105.581765 157.160766 
L 106.071071 158.025413 
L 106.315724 158.930817 
L 107.049683 163.382364 
L 107.294336 163.365133 
L 107.538989 161.80472 
L 107.783642 162.156478 
L 108.028295 161.127766 
L 108.272948 161.708967 
L 108.517601 159.892753 
L 108.762254 159.81462 
L 109.006907 161.248803 
L 109.25156 163.830661 
L 109.496213 164.114921 
L 109.740866 162.206788 
L 109.985519 162.303356 
L 110.230172 161.317722 
L 110.474825 162.355259 
L 110.719478 163.892571 
L 110.964131 162.706519 
L 111.208784 164.076889 
L 111.453437 163.835664 
L 111.69809 162.345137 
L 111.942743 162.566008 
L 112.187396 164.021835 
L 112.432049 162.991955 
L 112.676702 162.813109 
L 112.921355 163.573596 
L 113.166008 162.059889 
L 113.410661 162.037856 
L 113.655314 163.25669 
L 113.899967 163.543113 
L 114.14462 164.561732 
L 114.633926 162.079168 
L 114.878579 162.109975 
L 115.123232 159.426201 
L 115.367885 159.235949 
L 115.612538 159.407051 
L 116.346497 163.50116 
L 116.59115 164.104034 
L 116.835803 163.33837 
L 117.325109 160.39611 
L 117.814415 161.762024 
L 118.059068 160.743766 
L 118.303721 160.853578 
L 118.793027 167.679002 
L 119.03768 167.782023 
L 119.282333 169.67167 
L 119.526986 168.992242 
L 119.771639 170.271581 
L 120.016292 169.243106 
L 120.260946 169.684986 
L 120.505599 167.674179 
L 120.750252 166.713938 
L 120.994905 167.378311 
L 121.484211 165.294109 
L 121.728864 165.350965 
L 121.973517 164.229773 
L 122.21817 162.009089 
L 122.462823 162.893606 
L 122.707476 161.855138 
L 122.952129 162.815553 
L 123.196782 160.728971 
L 123.441435 164.364177 
L 123.686088 164.134077 
L 123.930741 164.362822 
L 124.175394 163.266705 
L 124.420047 162.943728 
L 124.6647 158.40999 
L 124.909353 155.953308 
L 125.398659 157.139865 
L 125.643312 158.86373 
L 125.887965 158.346479 
L 126.377271 160.126176 
L 126.621924 162.574516 
L 126.866577 162.37908 
L 127.11123 163.317779 
L 127.355883 162.267386 
L 127.600536 162.870059 
L 127.845189 161.442249 
L 128.089842 162.987059 
L 128.334495 161.676278 
L 128.579148 161.151363 
L 128.823801 161.87007 
L 129.068454 162.196687 
L 129.313107 161.397671 
L 129.55776 161.320526 
L 129.802413 162.24115 
L 130.047066 164.669331 
L 130.291719 165.767827 
L 130.536372 165.566905 
L 130.781025 165.020404 
L 131.025678 165.363597 
L 131.270331 164.971082 
L 131.514984 163.37705 
L 131.759637 164.90791 
L 132.00429 164.225411 
L 132.248943 164.34846 
L 132.493596 166.890116 
L 132.738249 166.316289 
L 132.982902 165.156135 
L 133.227555 165.129661 
L 133.716861 164.591343 
L 134.206167 164.756209 
L 134.45082 165.603913 
L 134.695473 163.337447 
L 134.940126 164.317753 
L 135.184779 164.738531 
L 135.918738 160.287416 
L 136.163391 161.895304 
L 136.408044 160.479809 
L 136.652697 162.335129 
L 136.89735 162.16575 
L 137.142003 161.662918 
L 137.631309 157.628298 
L 137.875962 158.571099 
L 138.120615 157.642018 
L 138.365268 158.158462 
L 138.609921 159.399885 
L 138.854574 158.242232 
L 139.099227 157.68956 
L 139.588533 159.075243 
L 139.833186 161.527699 
L 140.322492 162.813073 
L 140.811798 160.853304 
L 141.056451 162.149398 
L 141.301104 161.913307 
L 141.545757 162.340767 
L 141.79041 159.850525 
L 142.035063 160.40536 
L 142.279716 159.54514 
L 142.769023 162.694126 
L 143.013676 162.166428 
L 143.258329 162.556643 
L 143.502982 163.987661 
L 143.747635 164.712806 
L 143.992288 167.232775 
L 144.236941 165.502853 
L 144.481594 165.894243 
L 144.726247 164.945444 
L 144.9709 165.328788 
L 145.215553 164.277927 
L 145.460206 164.563823 
L 145.704859 164.523881 
L 145.949512 162.693527 
L 146.438818 164.484465 
L 146.683471 162.496246 
L 146.928124 162.408626 
L 147.41743 164.736959 
L 147.662083 164.273276 
L 147.906736 164.368395 
L 148.151389 165.300497 
L 148.396042 165.565723 
L 148.640695 165.218233 
L 148.885348 163.058018 
L 149.374654 160.905106 
L 149.619307 161.15623 
L 149.86396 160.528424 
L 150.108613 163.185991 
L 150.597919 161.244896 
L 150.842572 163.129438 
L 151.331878 164.472461 
L 151.576531 162.162189 
L 151.821184 161.662933 
L 152.065837 162.106493 
L 152.31049 161.922132 
L 152.555143 164.62104 
L 152.799796 165.495961 
L 153.044449 165.488167 
L 153.289102 164.740189 
L 153.533755 165.178341 
L 153.778408 165.026705 
L 154.023061 165.614706 
L 154.267714 163.476445 
L 154.512367 165.875837 
L 154.75702 167.004347 
L 155.001673 167.067974 
L 155.246326 165.597215 
L 155.490979 165.339112 
L 155.735632 163.893545 
L 155.980285 164.659569 
L 156.224938 164.189088 
L 156.958897 160.816923 
L 157.20355 163.177123 
L 157.448203 162.146947 
L 157.692856 162.948725 
L 157.937509 165.118421 
L 158.182162 165.108017 
L 158.426815 163.070873 
L 158.671468 162.722612 
L 158.916121 164.321849 
L 159.160774 163.023151 
L 159.65008 158.007958 
L 159.894733 155.917728 
L 160.139386 156.879808 
L 160.384039 155.031762 
L 160.873345 156.89435 
L 161.117998 159.122056 
L 161.362651 158.925013 
L 161.607304 159.252221 
L 162.09661 157.491824 
L 162.341263 157.992724 
L 162.585916 158.999735 
L 162.830569 161.094709 
L 163.075222 160.757861 
L 163.319875 160.806916 
L 164.053834 162.20482 
L 164.298487 161.940668 
L 164.54314 159.630655 
L 164.787793 159.771253 
L 165.032447 161.851656 
L 165.2771 160.75714 
L 165.521753 162.227487 
L 165.766406 162.667342 
L 166.011059 162.628373 
L 166.255712 160.519318 
L 166.500365 159.779472 
L 166.745018 160.990765 
L 166.989671 159.972053 
L 167.478977 161.430028 
L 167.72363 162.868559 
L 167.968283 162.690845 
L 168.212936 162.242368 
L 168.457589 163.539299 
L 168.702242 163.048941 
L 168.946895 162.113724 
L 169.436201 163.454902 
L 169.925507 161.061515 
L 170.17016 161.554621 
L 170.414813 160.388785 
L 170.904119 162.523651 
L 171.148772 161.071327 
L 171.393425 161.702068 
L 171.638078 161.169748 
L 171.882731 159.949919 
L 172.127384 160.369997 
L 172.372037 162.23381 
L 172.61669 161.093332 
L 172.861343 161.570893 
L 173.105996 160.003112 
L 173.350649 160.035722 
L 173.839955 161.455616 
L 174.084608 163.027953 
L 174.329261 163.762255 
L 174.573914 163.732435 
L 174.818567 161.141745 
L 175.06322 160.507574 
L 175.307873 162.164445 
L 175.552526 162.997463 
L 175.797179 161.119626 
L 176.041832 162.262325 
L 176.286485 161.068206 
L 176.775791 161.013491 
L 177.020444 163.13602 
L 177.265097 163.667302 
L 177.50975 162.868826 
L 177.754403 164.643095 
L 177.999056 164.137012 
L 178.243709 164.132419 
L 178.488362 164.746108 
L 178.733015 164.876533 
L 178.977668 165.508614 
L 179.222321 165.125169 
L 179.466974 161.648679 
L 179.711627 160.003718 
L 179.95628 159.498659 
L 180.200933 159.478789 
L 180.445586 157.565371 
L 180.690239 159.698607 
L 180.934892 159.487873 
L 181.179545 161.082279 
L 181.668851 161.202553 
L 181.913504 161.866213 
L 182.158157 163.156734 
L 182.40281 163.297058 
L 182.647463 164.107055 
L 182.892116 162.954666 
L 183.136769 162.416701 
L 183.381422 163.124038 
L 183.626075 161.673394 
L 183.870728 163.516524 
L 184.115381 164.069982 
L 184.360034 163.461938 
L 184.604687 164.429649 
L 185.093993 163.510186 
L 185.338646 163.114672 
L 185.583299 161.291925 
L 185.827952 162.333175 
L 186.072605 161.37762 
L 186.317258 163.417367 
L 186.806564 162.651999 
L 187.051217 163.759882 
L 187.29587 164.335886 
L 187.785177 162.254632 
L 188.02983 163.862896 
L 188.274483 163.785117 
L 188.763789 162.513535 
L 189.008442 162.556592 
L 189.253095 162.736159 
L 189.497748 161.474058 
L 189.742401 161.551434 
L 189.987054 163.189301 
L 190.231707 162.2073 
L 190.47636 163.016136 
L 190.965666 160.233335 
L 191.210319 160.411936 
L 191.454972 161.914605 
L 191.699625 162.338943 
L 192.188931 165.741461 
L 192.433584 164.71334 
L 192.92289 164.480666 
L 193.412196 166.212382 
L 193.656849 166.09252 
L 194.146155 163.809248 
L 194.880114 167.766089 
L 195.36942 164.69861 
L 195.858726 165.297584 
L 196.103379 164.562554 
L 196.348032 162.371344 
L 196.592685 162.93132 
L 197.081991 160.223941 
L 197.326644 160.752943 
L 197.571297 160.915978 
L 198.060603 159.602869 
L 198.305256 159.560086 
L 198.549909 160.868149 
L 198.794562 161.480994 
L 199.039215 161.314023 
L 199.283868 159.47212 
L 199.528521 160.950491 
L 200.017827 158.815864 
L 200.26248 159.868211 
L 200.507133 158.702916 
L 200.751786 158.373018 
L 201.241092 159.925896 
L 201.485745 161.719876 
L 201.975051 161.603157 
L 202.219704 161.866364 
L 202.70901 164.150205 
L 202.953663 163.445298 
L 203.198316 161.464469 
L 203.442969 161.578961 
L 203.687622 162.643975 
L 203.932275 161.656834 
L 204.176928 162.196875 
L 204.421581 162.00839 
L 204.666234 162.451884 
L 204.910887 164.027913 
L 205.15554 163.282833 
L 205.400193 163.297065 
L 205.644846 164.774269 
L 206.378805 162.505936 
L 206.623458 162.196392 
L 207.112764 160.983426 
L 207.60207 162.435201 
L 207.846723 162.441603 
L 208.336029 164.617219 
L 208.580682 164.641847 
L 208.825335 163.338449 
L 209.069988 164.270594 
L 209.559294 160.94972 
L 209.803947 161.631318 
L 210.048601 160.973729 
L 210.293254 160.964594 
L 210.537907 161.350223 
L 211.027213 162.753671 
L 211.271866 161.45811 
L 211.516519 160.877449 
L 211.761172 161.377894 
L 212.005825 159.629343 
L 212.739784 170.121236 
L 212.984437 171.057504 
L 213.22909 173.080388 
L 213.473743 173.75686 
L 213.718396 173.483126 
L 213.963049 172.138466 
L 214.452355 166.730123 
L 214.697008 166.691702 
L 214.941661 165.226279 
L 215.186314 165.634533 
L 215.430967 164.83194 
L 215.920273 161.480655 
L 216.164926 161.011638 
L 216.409579 162.344257 
L 216.654232 162.486693 
L 216.898885 160.3866 
L 217.143538 159.802616 
L 217.388191 161.723906 
L 217.632844 160.074417 
L 217.877497 161.971742 
L 218.12215 161.171392 
L 218.366803 161.960279 
L 218.611456 163.827712 
L 218.856109 163.347736 
L 219.100762 164.68936 
L 219.345415 163.960999 
L 219.590068 162.869576 
L 220.079374 166.545214 
L 220.324027 166.998262 
L 220.56868 166.799979 
L 220.813333 165.3894 
L 221.057986 162.927679 
L 221.302639 163.269408 
L 221.547292 161.661736 
L 221.791945 163.495745 
L 222.036598 163.339653 
L 222.281251 163.549263 
L 222.525904 164.043724 
L 222.770557 164.175432 
L 223.01521 164.126911 
L 223.259863 165.906839 
L 223.504516 164.438395 
L 223.749169 165.013064 
L 224.238475 161.556466 
L 224.483128 162.9853 
L 224.727781 162.762078 
L 224.972434 163.780048 
L 225.217087 162.838307 
L 225.46174 163.555428 
L 225.706393 162.529123 
L 226.195699 162.644198 
L 226.440352 161.127117 
L 226.685005 162.048224 
L 226.929658 161.983653 
L 227.174311 155.21825 
L 228.152923 149.160291 
L 228.397576 152.125096 
L 228.642229 153.014192 
L 228.886882 154.719088 
L 229.376188 161.06641 
L 229.620841 161.894554 
L 230.110147 160.607847 
L 230.3548 161.753286 
L 230.599453 160.803506 
L 230.844106 159.378739 
L 231.088759 159.153455 
L 231.333412 159.801044 
L 231.578065 162.24146 
L 231.822718 161.629083 
L 232.067371 161.98508 
L 232.556678 163.226964 
L 232.801331 162.091735 
L 233.045984 161.489221 
L 233.290637 162.546736 
L 233.779943 161.234723 
L 234.024596 161.100008 
L 234.269249 161.201651 
L 234.513902 161.763776 
L 234.758555 161.390605 
L 235.003208 161.972088 
L 235.247861 160.454466 
L 235.492514 160.061065 
L 235.737167 160.35363 
L 235.98182 161.339531 
L 236.226473 161.853761 
L 236.471126 161.520893 
L 236.715779 160.144136 
L 236.960432 161.788628 
L 237.205085 161.407195 
L 237.449738 161.469538 
L 237.694391 163.5294 
L 237.939044 163.232826 
L 238.42835 164.595063 
L 238.673003 166.211445 
L 238.917656 165.504389 
L 239.406962 163.646141 
L 239.651615 162.740557 
L 240.140921 163.729277 
L 240.385574 162.730095 
L 240.87488 162.31133 
L 241.119533 161.993883 
L 241.364186 159.998217 
L 241.853492 161.685154 
L 242.098145 161.726249 
L 242.342798 163.637114 
L 242.587451 163.184557 
L 242.832104 163.690856 
L 243.32141 165.018068 
L 243.566063 164.488077 
L 243.810716 162.456246 
L 244.055369 163.53108 
L 244.300022 163.282667 
L 244.544675 163.409228 
L 244.789328 163.061277 
L 245.033981 164.977664 
L 245.278634 165.492926 
L 245.523287 165.070065 
L 245.76794 166.497507 
L 246.012593 165.369465 
L 246.257246 166.304898 
L 246.501899 166.120551 
L 246.746552 164.557313 
L 246.991205 164.650614 
L 247.235858 165.701274 
L 247.725164 171.332247 
L 247.969817 173.122306 
L 248.21447 172.662358 
L 248.948429 166.749366 
L 249.193082 167.33829 
L 249.437735 167.004939 
L 249.682388 167.133395 
L 249.927041 165.910948 
L 250.171694 165.594108 
L 250.416347 164.759223 
L 250.905653 166.456325 
L 251.150306 165.407007 
L 251.639612 166.353968 
L 251.884265 164.085909 
L 252.128918 163.638455 
L 252.373571 164.655964 
L 252.618224 163.587338 
L 252.862877 163.188969 
L 253.352183 165.725095 
L 253.596836 164.226593 
L 253.841489 165.793645 
L 254.086142 165.360518 
L 254.330795 165.411217 
L 254.820101 162.813325 
L 255.064755 162.706541 
L 255.309408 162.850427 
L 255.554061 162.209405 
L 255.798714 160.824436 
L 256.043367 160.47345 
L 256.532673 161.215501 
L 256.777326 162.431034 
L 257.021979 162.936511 
L 257.266632 163.776011 
L 257.511285 163.956688 
L 257.755938 162.909424 
L 258.000591 163.802903 
L 258.245244 156.767631 
L 258.73455 150.688823 
L 258.979203 151.945933 
L 259.223856 151.631328 
L 259.468509 153.200002 
L 259.713162 156.047915 
L 260.202468 158.363465 
L 260.447121 157.37114 
L 260.691774 158.574726 
L 261.18108 160.126984 
L 261.425733 162.328266 
L 261.670386 162.2173 
L 261.915039 162.508517 
L 262.159692 163.536913 
L 262.404345 162.97212 
L 262.648998 163.408485 
L 263.382957 165.183554 
L 263.62761 165.750185 
L 263.872263 164.936886 
L 264.116916 166.412922 
L 264.361569 166.854557 
L 264.606222 166.229686 
L 264.850875 164.191748 
L 265.095528 164.544501 
L 265.340181 163.97309 
L 265.829487 161.215711 
L 266.07414 161.578831 
L 266.318793 162.841934 
L 266.563446 163.20806 
L 266.808099 163.812658 
L 267.052752 163.828491 
L 267.297405 163.440028 
L 267.542058 162.300018 
L 267.786711 163.084809 
L 268.031364 164.94698 
L 268.276017 165.245933 
L 268.52067 165.146618 
L 268.765323 164.263738 
L 269.009976 165.255335 
L 269.254629 165.080973 
L 269.499282 163.501996 
L 269.988588 164.014741 
L 270.233241 165.692471 
L 270.477894 166.437904 
L 270.9672 169.990436 
L 271.211853 168.707441 
L 271.456506 169.651648 
L 271.945812 168.895667 
L 272.190465 168.938233 
L 272.435118 169.256978 
L 272.679771 170.825292 
L 273.169077 167.312645 
L 273.41373 165.554584 
L 273.658383 166.077819 
L 273.903036 164.680513 
L 274.147689 164.72109 
L 274.392342 160.756787 
L 274.636995 158.680262 
L 275.370954 161.040433 
L 275.86026 164.945646 
L 276.104913 165.629803 
L 276.349566 167.124491 
L 276.594219 165.917171 
L 276.838872 165.9404 
L 277.083525 164.965083 
L 277.572832 159.481016 
L 277.817485 158.701279 
L 278.062138 159.06967 
L 278.306791 159.874829 
L 278.551444 162.206125 
L 278.796097 162.43014 
L 279.04075 162.322361 
L 279.285403 164.216038 
L 279.530056 164.097898 
L 280.019362 163.508204 
L 280.264015 162.068533 
L 280.508668 161.818527 
L 280.997974 164.034777 
L 281.242627 163.558261 
L 281.48728 162.251691 
L 282.221239 162.315461 
L 282.465892 161.388349 
L 282.710545 161.26181 
L 282.955198 160.195736 
L 283.444504 163.691736 
L 283.689157 162.932012 
L 283.93381 164.345569 
L 284.178463 164.072448 
L 284.423116 164.424199 
L 284.667769 164.541776 
L 285.157075 165.035206 
L 285.401728 163.17558 
L 285.646381 163.888599 
L 285.891034 165.61534 
L 286.624993 164.596736 
L 286.869646 165.365911 
L 287.114299 164.742849 
L 287.358952 164.919496 
L 287.603605 164.82946 
L 287.848258 164.345064 
L 288.092911 162.432966 
L 288.337564 162.091078 
L 288.582217 163.307317 
L 289.071523 170.457211 
L 289.316176 171.179631 
L 289.560829 171.171275 
L 289.805482 172.441298 
L 290.050135 172.831326 
L 290.294788 172.630642 
L 290.539441 171.583955 
L 291.028747 171.948446 
L 291.2734 171.246782 
L 291.518053 168.968594 
L 291.762706 168.151012 
L 292.007359 168.121019 
L 292.252012 167.344497 
L 292.496665 165.496357 
L 292.985971 165.500171 
L 293.230624 167.360056 
L 293.475277 167.035746 
L 293.71993 168.207068 
L 293.964583 167.34741 
L 294.453889 164.906165 
L 294.698542 162.491985 
L 294.943195 163.167527 
L 295.187848 162.760247 
L 295.432501 160.88843 
L 295.677154 160.477235 
L 295.921807 161.266727 
L 296.16646 163.339516 
L 296.411113 162.987845 
L 296.655766 162.427105 
L 296.900419 162.70843 
L 297.145072 162.420969 
L 297.389725 163.280367 
L 297.634378 163.191175 
L 297.879031 163.370266 
L 298.123684 163.84237 
L 298.368337 161.966357 
L 298.61299 161.221038 
L 298.857643 160.915863 
L 299.102296 159.493288 
L 299.346949 159.2291 
L 299.591602 159.475148 
L 300.080909 163.336611 
L 300.325562 163.414534 
L 300.570215 163.033094 
L 300.814868 161.475075 
L 301.304174 163.20677 
L 301.548827 164.103558 
L 301.79348 163.451427 
L 302.038133 163.361441 
L 302.527439 162.919799 
L 302.772092 163.430273 
L 303.016745 161.64643 
L 303.261398 163.141579 
L 303.506051 162.46975 
L 303.995357 158.685547 
L 304.24001 158.450119 
L 304.729316 159.836314 
L 304.973969 159.19517 
L 305.218622 161.440627 
L 305.463275 162.390284 
L 305.707928 161.53147 
L 306.197234 164.13735 
L 306.441887 164.722683 
L 306.68654 164.240205 
L 306.931193 164.624292 
L 307.175846 165.45059 
L 307.420499 164.228814 
L 307.665152 165.320345 
L 307.909805 164.344639 
L 308.154458 166.110666 
L 308.399111 166.151402 
L 308.888417 169.066135 
L 309.377723 170.278618 
L 309.622376 170.144552 
L 309.867029 170.628097 
L 310.111682 170.469979 
L 310.356335 168.556663 
L 310.600988 169.33095 
L 310.845641 167.969289 
L 311.090294 167.647805 
L 311.334947 168.776273 
L 311.5796 169.332918 
L 311.824253 167.501822 
L 312.068906 167.88252 
L 312.313559 166.470737 
L 312.558212 166.604745 
L 312.802865 167.77097 
L 313.292171 166.222483 
L 313.536824 166.296556 
L 313.781477 166.18549 
L 314.270783 163.699602 
L 314.515436 163.445068 
L 314.760089 163.7318 
L 315.004742 162.716491 
L 315.494048 162.392483 
L 315.738701 162.75476 
L 315.983354 162.128541 
L 316.228007 163.120137 
L 316.47266 162.587724 
L 316.717313 162.429311 
L 317.451272 164.533636 
L 317.695925 164.708206 
L 317.940578 164.31536 
L 318.185231 163.475695 
L 318.429884 163.597872 
L 318.674537 165.2162 
L 318.91919 164.293161 
L 319.163843 164.593636 
L 319.653149 162.375951 
L 320.142455 158.447077 
L 320.387108 154.758771 
L 320.631761 153.665293 
L 320.876414 153.737765 
L 321.121067 154.117043 
L 321.36572 156.604546 
L 321.610373 156.484467 
L 322.344333 158.251656 
L 322.588986 158.29857 
L 322.833639 158.804018 
L 323.078292 157.407874 
L 323.322945 157.657144 
L 323.567598 160.096912 
L 323.812251 161.042647 
L 324.056904 162.635986 
L 324.301557 162.889359 
L 324.54621 161.869385 
L 324.790863 159.954742 
L 325.280169 161.476358 
L 325.524822 160.983822 
L 326.014128 164.143897 
L 326.258781 163.740149 
L 326.503434 162.852027 
L 326.748087 163.929803 
L 326.99274 166.260947 
L 327.237393 166.296621 
L 327.482046 165.295738 
L 327.726699 165.227692 
L 327.971352 164.222995 
L 328.216005 164.111813 
L 328.460658 164.207343 
L 328.705311 163.194073 
L 328.949964 161.348226 
L 329.194617 160.524805 
L 329.43927 160.42141 
L 329.683923 160.573565 
L 329.928576 159.328443 
L 330.173229 160.362434 
L 330.417882 160.86445 
L 330.662535 159.907158 
L 330.907188 161.637857 
L 331.151841 161.52408 
L 331.396494 161.791577 
L 331.641147 162.408813 
L 331.8858 163.53183 
L 332.130453 162.573319 
L 332.375106 163.286762 
L 332.619759 163.221709 
L 333.109065 161.607821 
L 333.353718 162.340724 
L 333.598371 161.581325 
L 333.843024 162.541077 
L 334.087677 161.452905 
L 334.576983 160.679519 
L 335.555595 162.78042 
L 335.800248 162.520601 
L 336.289554 159.46757 
L 336.534207 159.258617 
L 337.268166 162.692496 
L 337.512819 161.533525 
L 337.757472 161.208176 
L 338.002125 161.121724 
L 338.246778 161.54483 
L 338.491431 160.263609 
L 338.736084 160.304748 
L 338.980737 159.076663 
L 339.470043 158.077698 
L 339.714696 159.514326 
L 340.204002 157.320326 
L 340.693308 159.705529 
L 340.937961 158.92962 
L 341.182614 158.955453 
L 341.427267 159.827043 
L 341.67192 159.791873 
L 342.161226 162.743758 
L 342.405879 163.213251 
L 342.650532 162.941796 
L 342.895185 161.699508 
L 343.139838 163.14075 
L 343.384491 162.681905 
L 343.629144 163.212754 
L 343.873797 164.405396 
L 344.11845 163.452962 
L 344.607756 165.153496 
L 344.85241 164.703368 
L 345.097063 164.942293 
L 345.341716 163.142668 
L 346.075675 164.945379 
L 346.320328 165.112163 
L 346.564981 165.426134 
L 346.809634 166.197047 
L 347.054287 165.172105 
L 347.29894 165.922866 
L 347.543593 164.976273 
L 347.788246 166.274624 
L 348.032899 164.995285 
L 348.277552 164.66003 
L 348.522205 163.87831 
L 349.011511 163.325356 
L 349.256164 163.695261 
L 349.500817 161.888743 
L 349.74547 161.2761 
L 349.990123 162.048101 
L 350.234776 161.215992 
L 350.479429 159.478955 
L 350.724082 158.660522 
L 350.968735 156.711193 
L 351.458041 159.085769 
L 351.702694 159.053902 
L 351.947347 158.016192 
L 352.192 157.929811 
L 352.436653 158.004432 
L 352.681306 159.854317 
L 352.925959 159.181176 
L 353.170612 160.566167 
L 353.415265 161.215098 
L 353.659918 161.115372 
L 353.904571 160.54797 
L 354.149224 161.838376 
L 354.393877 161.198465 
L 354.63853 161.913473 
L 354.883183 164.34559 
L 355.127836 163.30385 
L 355.617142 164.343874 
L 355.861795 164.400334 
L 356.106448 164.137365 
L 356.595754 164.251315 
L 356.840407 163.183987 
L 357.08506 164.182325 
L 357.329713 162.893108 
L 357.574366 162.446903 
L 357.819019 162.340587 
L 358.063672 161.074132 
L 358.308325 160.959612 
L 358.797631 162.637954 
L 359.042284 164.556729 
L 359.53159 163.163648 
L 359.776243 164.071489 
L 360.020896 163.942405 
L 360.265549 163.349689 
L 360.510202 164.686317 
L 360.754855 163.027701 
L 360.999508 162.955891 
L 361.244161 162.197639 
L 361.733467 164.636454 
L 361.97812 164.781328 
L 362.222773 166.23523 
L 362.467426 165.819024 
L 362.712079 166.171236 
L 362.956732 164.957268 
L 363.201385 164.847312 
L 363.446038 164.406729 
L 363.690691 164.688682 
L 364.179997 162.206896 
L 364.42465 160.758899 
L 364.669303 160.46593 
L 364.913956 159.230239 
L 365.403262 161.073389 
L 365.647915 160.298504 
L 365.892568 160.225952 
L 366.137221 161.3054 
L 366.381874 160.074014 
L 366.626527 160.042528 
L 366.87118 160.353847 
L 367.360487 161.560619 
L 367.60514 161.615918 
L 367.849793 161.25039 
L 368.094446 161.244672 
L 368.339099 160.140935 
L 368.583752 160.963599 
L 368.828405 160.226053 
L 369.317711 161.427584 
L 369.562364 160.237437 
L 369.807017 158.420992 
L 370.05167 158.885842 
L 370.296323 158.942893 
L 370.540976 161.175458 
L 370.785629 161.331903 
L 371.030282 162.170732 
L 371.519588 160.7005 
L 372.253547 163.498824 
L 372.987506 161.511102 
L 373.232159 161.29796 
L 373.476812 161.745492 
L 373.721465 162.722331 
L 373.966118 161.643805 
L 374.210771 161.910459 
L 374.455424 160.767666 
L 374.700077 161.294831 
L 374.94473 160.494827 
L 375.189383 160.956209 
L 375.434036 159.820244 
L 375.678689 160.781329 
L 375.923342 160.219846 
L 376.167995 160.590169 
L 376.412648 162.361488 
L 376.657301 162.535691 
L 376.901954 164.432836 
L 377.39126 165.324859 
L 377.635913 165.236056 
L 377.880566 165.392717 
L 378.125219 163.905592 
L 378.369872 164.867304 
L 378.614525 164.347227 
L 378.859178 164.328417 
L 379.103831 164.55104 
L 379.593137 165.947307 
L 380.082443 165.195703 
L 380.327096 165.445045 
L 380.571749 163.92353 
L 381.061055 166.582316 
L 381.305708 166.456556 
L 381.795014 167.340619 
L 382.039667 165.733321 
L 382.28432 167.044773 
L 382.528973 160.949179 
L 383.018279 158.525822 
L 383.262932 159.792371 
L 383.507585 160.288663 
L 383.507585 160.288663 
" style="fill:none;stroke:#1f77b4;stroke-linecap:square;stroke-width:1.5;"/>
   </g>
   <g id="line2d_26">
    <path clip-path="url(#p535b74f802)" d="M 58.85304 167.212763 
L 59.097693 168.756934 
L 59.342346 165.925955 
L 59.586999 170.043742 
L 59.831652 149.969529 
L 60.076305 159.234551 
L 60.320958 156.403572 
L 60.565611 162.580253 
L 60.810264 160.006636 
L 61.054917 166.440678 
L 61.29957 165.15387 
L 61.544223 171.073189 
L 61.788876 162.580253 
L 62.033529 149.454806 
L 62.522835 168.499572 
L 62.767488 162.837614 
L 63.012141 171.073189 
L 63.256794 171.845274 
L 63.501447 156.403572 
L 63.990753 165.925955 
L 64.235406 163.867061 
L 64.480059 172.874721 
L 64.724712 151.513699 
L 64.969365 175.448338 
L 65.214018 164.381785 
L 65.458671 139.932423 
L 65.703324 174.418891 
L 65.947977 170.301104 
L 66.19263 162.580253 
L 66.437283 164.639146 
L 66.926589 157.175657 
L 67.171242 164.381785 
L 67.415895 165.15387 
L 67.660548 167.727487 
L 67.905201 154.087316 
L 68.149854 171.073189 
L 68.394507 174.933614 
L 68.63916 174.418891 
L 69.128466 164.381785 
L 69.373119 174.676253 
L 69.617772 171.330551 
L 69.862425 160.006636 
L 70.107078 159.234551 
L 70.351731 160.006636 
L 70.596384 169.014295 
L 70.841037 166.183316 
L 71.08569 177.24987 
L 71.574996 165.15387 
L 71.819649 157.947742 
L 72.064302 156.403572 
L 72.308955 164.896508 
L 72.553608 161.808168 
L 72.798261 166.69804 
L 73.042914 186.514891 
L 73.287567 180.852934 
L 73.53222 163.094976 
L 73.776873 168.24221 
L 74.021526 164.896508 
L 74.266179 155.888848 
L 74.510832 155.888848 
L 74.755485 139.160338 
L 75.000138 164.896508 
L 75.489445 158.462465 
L 75.734098 184.455997 
L 76.223404 163.867061 
L 76.71271 193.463657 
L 76.957363 170.815827 
L 77.446669 167.984848 
L 77.691322 158.977189 
L 77.935975 164.896508 
L 78.180628 158.205104 
L 78.425281 145.079657 
L 78.669934 172.359997 
L 78.914587 172.359997 
L 79.15924 157.175657 
L 79.403893 174.933614 
L 79.648546 173.132082 
L 80.137852 165.925955 
L 80.382505 156.660934 
L 80.871811 171.587912 
L 81.116464 151.771061 
L 81.361117 154.60204 
L 81.60577 166.440678 
L 81.850423 167.727487 
L 82.095076 172.102636 
L 82.339729 157.175657 
L 82.584382 152.285785 
L 82.829035 170.815827 
L 83.073688 154.859402 
L 83.318341 170.301104 
L 83.562994 174.418891 
L 83.807647 169.529019 
L 84.0523 161.808168 
L 84.296953 174.933614 
L 84.786259 140.96187 
L 85.030912 173.904168 
L 85.275565 177.507231 
L 85.520218 165.668593 
L 85.764871 167.984848 
L 86.009524 160.521359 
L 86.254177 170.558465 
L 86.49883 154.859402 
L 86.743483 162.837614 
L 86.988136 156.14621 
L 87.232789 168.756934 
L 87.477442 158.977189 
L 87.722095 164.381785 
L 87.966748 166.955402 
L 88.211401 152.543146 
L 88.456054 163.867061 
L 88.700707 157.947742 
L 88.94536 163.609699 
L 89.190013 161.808168 
L 89.679319 174.676253 
L 89.923972 152.028423 
L 90.168625 176.992508 
L 90.413278 162.837614 
L 90.657931 168.499572 
L 90.902584 165.925955 
L 91.147237 157.433019 
L 91.39189 156.403572 
L 91.636543 163.867061 
L 91.881196 160.521359 
L 92.125849 164.124423 
L 92.370502 165.15387 
L 92.615155 163.352338 
L 93.104461 174.161529 
L 93.349114 157.433019 
L 93.593767 174.418891 
L 94.083073 153.05787 
L 94.327726 164.639146 
L 94.572379 160.521359 
L 94.817032 159.234551 
L 95.061685 159.234551 
L 95.306338 171.073189 
L 95.550991 163.094976 
L 95.795644 167.984848 
L 96.040297 167.727487 
L 96.28495 163.352338 
L 96.529603 164.381785 
L 96.774256 158.462465 
L 97.018909 166.955402 
L 97.263562 162.837614 
L 97.508215 162.322891 
L 97.752869 160.778721 
L 97.997522 169.78638 
L 98.242175 160.778721 
L 98.486828 166.69804 
L 98.731481 164.381785 
L 98.976134 158.977189 
L 99.220787 158.205104 
L 99.46544 164.381785 
L 99.710093 159.491912 
L 99.954746 170.558465 
L 100.199399 163.609699 
L 100.444052 161.550806 
L 100.688705 167.212763 
L 100.933358 138.130891 
L 101.178011 147.138551 
L 101.422664 199.125614 
L 101.667317 167.984848 
L 101.91197 166.955402 
L 102.156623 157.175657 
L 102.401276 168.24221 
L 102.645929 165.15387 
L 102.890582 139.160338 
L 103.135235 137.101444 
L 103.379888 170.301104 
L 103.624541 134.527827 
L 103.869194 159.749274 
L 104.113847 168.24221 
L 104.3585 143.278125 
L 104.603153 151.771061 
L 104.847806 174.161529 
L 105.092459 153.05787 
L 105.581765 157.69038 
L 105.826418 175.705699 
L 106.071071 172.617359 
L 106.315724 172.874721 
L 106.80503 155.631487 
L 107.049683 151.513699 
L 107.294336 156.403572 
L 107.538989 158.205104 
L 107.783642 144.05021 
L 108.272948 170.301104 
L 108.517601 170.558465 
L 108.762254 176.220423 
L 109.25156 145.079657 
L 109.496213 167.984848 
L 109.740866 160.521359 
L 109.985519 167.727487 
L 110.230172 146.623827 
L 110.474825 179.823487 
L 111.208784 146.109104 
L 111.453437 169.529019 
L 111.69809 180.595572 
L 111.942743 160.263997 
L 112.187396 171.587912 
L 112.432049 172.617359 
L 112.676702 148.940082 
L 113.410661 192.691572 
L 113.899967 152.800508 
L 114.14462 165.668593 
L 114.389273 146.881189 
L 114.878579 166.183316 
L 115.123232 169.271657 
L 115.367885 175.190976 
L 115.612538 162.580253 
L 115.857191 159.234551 
L 116.346497 163.867061 
L 116.59115 155.374125 
L 116.835803 138.902976 
L 117.080456 164.896508 
L 117.325109 151.513699 
L 117.569762 161.808168 
L 117.814415 178.021955 
L 118.059068 172.102636 
L 118.303721 268.355912 
L 118.548374 148.682721 
L 118.793027 169.271657 
L 119.03768 160.778721 
L 119.282333 179.051402 
L 119.526986 158.462465 
L 119.771639 166.440678 
L 120.016292 156.403572 
L 120.260946 164.639146 
L 120.505599 168.756934 
L 120.750252 158.719827 
L 120.994905 169.271657 
L 121.239558 167.470125 
L 121.728864 143.020763 
L 121.973517 169.271657 
L 122.21817 160.006636 
L 122.462823 180.852934 
L 122.707476 161.293444 
L 122.952129 178.79404 
L 123.196782 164.124423 
L 123.441435 174.933614 
L 123.686088 158.462465 
L 123.930741 164.639146 
L 124.175394 144.307572 
L 124.420047 103.644423 
L 124.6647 179.823487 
L 124.909353 187.286976 
L 125.398659 150.741614 
L 125.643312 168.24221 
L 125.887965 203.500763 
L 126.377271 163.609699 
L 126.621924 166.440678 
L 126.866577 151.256338 
L 127.11123 145.59438 
L 127.600536 165.668593 
L 127.845189 155.631487 
L 128.089842 170.301104 
L 128.579148 154.344678 
L 128.823801 156.14621 
L 129.068454 186.257529 
L 129.313107 165.668593 
L 129.55776 171.845274 
L 130.047066 157.69038 
L 130.291719 151.513699 
L 130.536372 164.124423 
L 130.781025 156.660934 
L 131.025678 155.631487 
L 131.270331 165.925955 
L 131.514984 163.867061 
L 131.759637 179.308763 
L 132.248943 162.837614 
L 132.493596 146.623827 
L 132.738249 154.859402 
L 132.982902 156.14621 
L 133.227555 163.352338 
L 133.716861 157.175657 
L 133.961514 163.352338 
L 134.206167 163.609699 
L 134.695473 185.485444 
L 134.940126 165.411231 
L 135.184779 112.652082 
L 135.429432 168.499572 
L 135.918738 163.867061 
L 136.163391 167.727487 
L 136.652697 153.572593 
L 136.89735 146.366465 
L 137.142003 124.748082 
L 137.386656 181.88238 
L 137.631309 157.175657 
L 137.875962 169.271657 
L 138.120615 170.301104 
L 138.365268 143.792848 
L 138.609921 167.984848 
L 138.854574 169.014295 
L 139.099227 180.852934 
L 139.34388 176.220423 
L 139.588533 155.631487 
L 139.833186 156.14621 
L 140.322492 162.580253 
L 140.567145 171.845274 
L 140.811798 157.947742 
L 141.056451 150.741614 
L 141.301104 156.14621 
L 141.545757 167.984848 
L 141.79041 148.167997 
L 142.035063 188.573785 
L 142.279716 155.116763 
L 142.524369 155.631487 
L 142.769023 179.566125 
L 143.258329 174.418891 
L 143.502982 178.021955 
L 143.747635 159.491912 
L 143.992288 173.646806 
L 144.236941 162.837614 
L 144.481594 172.874721 
L 144.726247 150.226891 
L 144.9709 169.014295 
L 145.215553 152.543146 
L 145.460206 155.116763 
L 145.704859 168.24221 
L 146.194165 161.293444 
L 146.438818 170.815827 
L 146.683471 170.815827 
L 146.928124 184.455997 
L 147.172777 157.175657 
L 147.41743 181.110295 
L 147.662083 170.301104 
L 147.906736 151.256338 
L 148.151389 191.662125 
L 148.396042 143.792848 
L 148.640695 139.160338 
L 149.130001 177.507231 
L 149.374654 169.78638 
L 149.619307 170.558465 
L 149.86396 161.293444 
L 150.108613 145.079657 
L 150.353266 184.198636 
L 150.597919 158.205104 
L 150.842572 154.344678 
L 151.087225 159.234551 
L 151.331878 139.160338 
L 151.576531 199.382976 
L 151.821184 167.727487 
L 152.065837 178.021955 
L 152.31049 155.116763 
L 152.555143 154.60204 
L 152.799796 158.205104 
L 153.044449 154.859402 
L 153.289102 156.660934 
L 154.023061 169.529019 
L 154.267714 162.065529 
L 154.512367 158.205104 
L 154.75702 158.462465 
L 155.001673 171.845274 
L 155.490979 166.183316 
L 155.735632 154.344678 
L 155.980285 152.800508 
L 156.224938 178.021955 
L 156.469591 148.167997 
L 156.714244 172.102636 
L 156.958897 163.352338 
L 157.20355 170.815827 
L 157.448203 166.440678 
L 157.692856 159.234551 
L 157.937509 157.947742 
L 158.182162 174.161529 
L 158.426815 169.271657 
L 158.671468 155.374125 
L 158.916121 125.777529 
L 159.160774 171.587912 
L 159.405427 137.101444 
L 159.65008 168.756934 
L 159.894733 155.631487 
L 160.384039 178.536678 
L 160.628692 175.448338 
L 160.873345 140.189785 
L 161.362651 153.315231 
L 161.607304 166.183316 
L 161.851957 173.132082 
L 162.09661 193.721019 
L 162.341263 166.183316 
L 162.585916 163.867061 
L 162.830569 147.653274 
L 163.075222 192.948934 
L 163.319875 168.24221 
L 163.564528 165.15387 
L 163.809181 149.712168 
L 164.053834 147.653274 
L 164.298487 174.418891 
L 164.54314 166.183316 
L 164.787793 163.094976 
L 165.032447 172.102636 
L 165.2771 160.006636 
L 165.521753 163.094976 
L 165.766406 139.675061 
L 166.011059 173.646806 
L 166.255712 167.212763 
L 166.500365 174.676253 
L 166.989671 171.073189 
L 167.234324 173.904168 
L 167.478977 155.116763 
L 167.72363 158.719827 
L 167.968283 166.955402 
L 168.212936 153.315231 
L 168.457589 152.800508 
L 168.946895 180.852934 
L 169.191548 158.462465 
L 169.436201 166.440678 
L 169.680854 166.183316 
L 169.925507 147.138551 
L 170.17016 170.815827 
L 170.414813 163.867061 
L 170.659466 162.580253 
L 170.904119 169.014295 
L 171.148772 155.888848 
L 171.393425 148.940082 
L 171.638078 168.24221 
L 171.882731 177.24987 
L 172.127384 163.609699 
L 172.372037 141.476593 
L 172.861343 169.78638 
L 173.105996 168.499572 
L 173.350649 170.815827 
L 173.595302 171.587912 
L 173.839955 147.653274 
L 174.084608 157.433019 
L 174.329261 159.749274 
L 174.573914 165.15387 
L 174.818567 167.984848 
L 175.06322 160.006636 
L 175.307873 156.403572 
L 175.552526 170.815827 
L 175.797179 156.918295 
L 176.041832 172.359997 
L 176.286485 150.741614 
L 176.531138 178.536678 
L 176.775791 160.006636 
L 177.265097 166.955402 
L 177.50975 159.491912 
L 177.754403 169.78638 
L 178.243709 163.867061 
L 178.488362 154.087316 
L 178.733015 163.094976 
L 178.977668 156.403572 
L 179.222321 122.431827 
L 179.466974 152.800508 
L 179.711627 160.263997 
L 179.95628 160.521359 
L 180.200933 164.639146 
L 180.445586 163.352338 
L 180.690239 176.477785 
L 180.934892 161.808168 
L 181.179545 178.021955 
L 181.424198 166.69804 
L 181.913504 175.190976 
L 182.158157 172.102636 
L 182.40281 151.256338 
L 182.647463 171.845274 
L 182.892116 173.132082 
L 183.136769 151.771061 
L 183.381422 165.15387 
L 183.626075 164.381785 
L 184.115381 149.969529 
L 184.360034 159.491912 
L 184.604687 150.998976 
L 184.84934 156.14621 
L 185.093993 158.719827 
L 185.338646 174.161529 
L 185.583299 157.433019 
L 185.827952 166.183316 
L 186.072605 163.867061 
L 186.317258 168.499572 
L 186.561911 167.984848 
L 186.806564 164.124423 
L 187.051217 150.226891 
L 187.29587 173.132082 
L 187.540524 167.727487 
L 188.02983 147.653274 
L 188.274483 149.969529 
L 188.763789 162.322891 
L 189.008442 160.263997 
L 189.253095 172.102636 
L 189.497748 176.220423 
L 189.742401 150.998976 
L 189.987054 170.558465 
L 190.231707 160.263997 
L 190.47636 142.763402 
L 190.721013 176.220423 
L 190.965666 177.24987 
L 191.210319 150.998976 
L 191.454972 191.147402 
L 191.699625 154.859402 
L 191.944278 163.609699 
L 192.188931 166.440678 
L 192.433584 176.220423 
L 192.678237 167.984848 
L 192.92289 155.888848 
L 193.167543 164.381785 
L 193.412196 178.79404 
L 193.656849 132.211572 
L 193.901502 188.316423 
L 194.146155 211.221614 
L 194.390808 174.161529 
L 194.635461 162.322891 
L 194.880114 177.507231 
L 195.124767 176.735146 
L 195.36942 141.476593 
L 195.614073 152.800508 
L 195.858726 143.792848 
L 196.103379 177.24987 
L 196.348032 147.910636 
L 196.592685 135.814636 
L 196.837338 170.043742 
L 197.081991 149.454806 
L 197.326644 161.036082 
L 197.571297 179.051402 
L 197.81595 141.219231 
L 198.305256 161.036082 
L 198.549909 156.918295 
L 198.794562 142.763402 
L 199.039215 164.896508 
L 199.283868 158.977189 
L 199.528521 164.896508 
L 199.773174 166.69804 
L 200.017827 143.020763 
L 200.26248 165.15387 
L 200.507133 167.470125 
L 200.751786 182.911827 
L 200.996439 177.764593 
L 201.241092 152.028423 
L 201.485745 182.911827 
L 202.219704 157.175657 
L 202.464357 162.837614 
L 202.70901 143.535487 
L 202.953663 168.499572 
L 203.198316 174.161529 
L 203.442969 144.822295 
L 203.687622 175.190976 
L 203.932275 182.911827 
L 204.176928 167.212763 
L 204.421581 182.139742 
L 204.666234 157.433019 
L 204.910887 170.043742 
L 205.15554 171.587912 
L 205.400193 203.243402 
L 205.889499 118.571402 
L 206.134152 160.778721 
L 206.623458 152.285785 
L 206.868111 172.359997 
L 207.112764 171.073189 
L 207.357417 175.448338 
L 207.60207 175.448338 
L 207.846723 179.051402 
L 208.091376 156.403572 
L 208.336029 175.448338 
L 208.580682 181.88238 
L 209.069988 129.380593 
L 209.314641 174.676253 
L 209.559294 179.566125 
L 209.803947 170.815827 
L 210.048601 174.676253 
L 210.293254 176.477785 
L 210.537907 144.822295 
L 211.027213 176.477785 
L 211.271866 133.241019 
L 211.516519 163.094976 
L 211.761172 168.756934 
L 212.005825 276.334125 
L 212.495131 143.278125 
L 212.739784 205.817019 
L 212.984437 141.733955 
L 213.22909 156.14621 
L 213.473743 158.205104 
L 213.718396 148.682721 
L 213.963049 165.411231 
L 214.207702 165.668593 
L 214.452355 158.205104 
L 214.697008 170.043742 
L 214.941661 146.109104 
L 215.186314 144.307572 
L 215.430967 171.845274 
L 215.67562 165.668593 
L 215.920273 165.15387 
L 216.164926 155.374125 
L 216.409579 156.660934 
L 216.654232 165.925955 
L 216.898885 166.955402 
L 217.143538 162.837614 
L 217.388191 169.529019 
L 217.632844 163.609699 
L 217.877497 179.823487 
L 218.366803 162.837614 
L 218.611456 183.683912 
L 218.856109 151.771061 
L 219.100762 185.485444 
L 219.345415 165.668593 
L 219.590068 189.088508 
L 219.834721 155.116763 
L 220.079374 159.749274 
L 220.324027 160.778721 
L 220.56868 143.792848 
L 220.813333 170.043742 
L 221.057986 148.940082 
L 221.302639 165.15387 
L 221.547292 163.094976 
L 221.791945 201.44187 
L 222.036598 170.815827 
L 222.281251 170.558465 
L 222.525904 164.639146 
L 222.770557 172.102636 
L 223.01521 162.837614 
L 223.259863 175.448338 
L 223.504516 131.95421 
L 223.749169 164.896508 
L 223.993822 167.212763 
L 224.483128 158.205104 
L 224.972434 167.212763 
L 225.217087 148.682721 
L 225.706393 178.279316 
L 225.951046 131.182125 
L 226.195699 171.587912 
L 226.440352 155.374125 
L 226.685005 155.116763 
L 226.929658 47.796934 
L 227.174311 160.263997 
L 227.418964 135.299912 
L 227.663617 166.955402 
L 227.90827 175.190976 
L 228.152923 163.867061 
L 228.397576 175.190976 
L 228.642229 180.852934 
L 228.886882 198.353529 
L 229.131535 153.572593 
L 229.376188 137.358806 
L 229.620841 174.161529 
L 230.110147 157.433019 
L 230.3548 136.071997 
L 230.599453 175.190976 
L 230.844106 171.845274 
L 231.088759 175.448338 
L 231.333412 164.381785 
L 231.578065 168.499572 
L 231.822718 177.764593 
L 232.067371 172.359997 
L 232.312024 138.130891 
L 232.556678 168.499572 
L 232.801331 179.566125 
L 233.045984 154.859402 
L 233.290637 172.359997 
L 233.53529 166.183316 
L 233.779943 176.992508 
L 234.024596 170.043742 
L 234.269249 174.933614 
L 234.513902 166.440678 
L 234.758555 139.675061 
L 235.003208 168.756934 
L 235.247861 176.477785 
L 235.492514 176.992508 
L 235.737167 155.374125 
L 235.98182 160.778721 
L 236.226473 145.079657 
L 236.471126 180.33821 
L 236.715779 161.036082 
L 236.960432 172.617359 
L 237.205085 171.587912 
L 237.449738 163.867061 
L 237.939044 187.286976 
L 238.42835 156.660934 
L 238.673003 165.668593 
L 238.917656 164.639146 
L 239.162309 166.69804 
L 239.406962 165.925955 
L 239.651615 157.175657 
L 239.896268 162.065529 
L 240.140921 140.447146 
L 240.385574 162.322891 
L 240.630227 160.778721 
L 240.87488 141.219231 
L 241.119533 165.411231 
L 241.364186 156.660934 
L 241.608839 155.116763 
L 241.853492 209.162721 
L 242.098145 149.712168 
L 242.587451 179.566125 
L 242.832104 164.639146 
L 243.076757 139.932423 
L 243.32141 149.197444 
L 243.566063 169.014295 
L 243.810716 161.550806 
L 244.055369 145.59438 
L 244.544675 189.088508 
L 244.789328 161.293444 
L 245.033981 149.197444 
L 245.278634 188.059061 
L 245.523287 155.888848 
L 245.76794 164.639146 
L 246.012593 157.433019 
L 246.257246 156.14621 
L 246.501899 165.668593 
L 246.746552 181.367657 
L 246.991205 188.831146 
L 247.235858 231.038465 
L 247.480511 200.155061 
L 247.725164 195.522551 
L 247.969817 106.732763 
L 248.459123 163.609699 
L 248.703776 174.933614 
L 248.948429 208.133274 
L 249.193082 124.748082 
L 249.682388 187.286976 
L 249.927041 131.439487 
L 250.171694 185.485444 
L 250.416347 158.719827 
L 250.661 159.491912 
L 250.905653 175.705699 
L 251.150306 140.189785 
L 251.884265 184.198636 
L 252.128918 148.167997 
L 252.373571 169.78638 
L 252.618224 165.15387 
L 252.862877 163.352338 
L 253.10753 163.609699 
L 253.352183 181.110295 
L 253.841489 143.278125 
L 254.086142 155.374125 
L 254.330795 139.675061 
L 254.575448 137.101444 
L 254.820101 161.293444 
L 255.064755 163.094976 
L 255.309408 147.653274 
L 255.554061 173.132082 
L 255.798714 167.212763 
L 256.043367 167.212763 
L 256.28802 169.78638 
L 256.532673 155.888848 
L 256.777326 151.513699 
L 257.021979 161.550806 
L 257.266632 160.521359 
L 257.511285 179.051402 
L 257.755938 143.020763 
L 258.000591 39.818721 
L 258.489897 178.79404 
L 258.73455 156.918295 
L 258.979203 180.33821 
L 259.223856 182.911827 
L 259.468509 148.940082 
L 259.713162 140.96187 
L 259.957815 157.947742 
L 260.202468 164.896508 
L 260.447121 150.484253 
L 260.691774 183.941274 
L 260.936427 181.110295 
L 261.18108 160.778721 
L 261.425733 172.874721 
L 261.670386 176.735146 
L 261.915039 140.447146 
L 262.159692 184.970721 
L 262.404345 141.733955 
L 262.648998 162.065529 
L 262.893651 157.947742 
L 263.138304 164.381785 
L 263.382957 162.837614 
L 263.62761 178.79404 
L 263.872263 158.205104 
L 264.116916 153.572593 
L 264.361569 141.991316 
L 264.850875 190.375316 
L 265.095528 120.372934 
L 265.340181 166.955402 
L 265.584834 164.896508 
L 265.829487 185.228082 
L 266.07414 156.918295 
L 266.318793 195.522551 
L 266.563446 136.586721 
L 266.808099 162.837614 
L 267.052752 140.447146 
L 267.542058 204.787572 
L 267.786711 146.366465 
L 268.031364 150.998976 
L 268.276017 152.285785 
L 268.52067 168.24221 
L 269.009976 148.940082 
L 269.499282 185.742806 
L 269.743935 181.88238 
L 269.988588 157.947742 
L 270.477894 212.765785 
L 270.722547 160.263997 
L 270.9672 165.15387 
L 271.211853 152.028423 
L 271.456506 193.721019 
L 271.701159 126.549614 
L 271.945812 218.942465 
L 272.190465 175.448338 
L 272.435118 158.462465 
L 272.679771 172.359997 
L 272.924424 117.799316 
L 273.169077 177.24987 
L 273.41373 154.60204 
L 273.658383 188.831146 
L 274.147689 86.143827 
L 274.392342 174.161529 
L 274.636995 208.390636 
L 275.126301 168.499572 
L 275.370954 211.736338 
L 275.86026 167.727487 
L 276.104913 153.315231 
L 276.349566 164.896508 
L 276.594219 143.535487 
L 276.838872 149.197444 
L 277.083525 130.152678 
L 277.328178 170.301104 
L 277.572832 173.904168 
L 277.817485 143.020763 
L 278.062138 202.213955 
L 278.306791 159.749274 
L 278.551444 145.337019 
L 278.796097 184.970721 
L 279.04075 163.609699 
L 279.285403 175.963061 
L 279.530056 120.630295 
L 280.019362 179.823487 
L 280.264015 172.617359 
L 280.508668 190.117955 
L 280.753321 148.425359 
L 280.997974 133.755742 
L 281.242627 184.713359 
L 281.48728 138.130891 
L 281.731933 161.808168 
L 282.221239 144.822295 
L 282.465892 156.403572 
L 282.710545 194.493104 
L 282.955198 154.859402 
L 283.199851 158.977189 
L 283.444504 166.955402 
L 283.689157 158.205104 
L 283.93381 181.625019 
L 284.178463 134.270465 
L 284.423116 155.631487 
L 284.667769 159.749274 
L 284.912422 155.631487 
L 285.157075 167.984848 
L 285.401728 186.772253 
L 285.646381 149.969529 
L 285.891034 181.367657 
L 286.135687 165.411231 
L 286.38034 167.212763 
L 286.869646 146.366465 
L 287.114299 164.124423 
L 287.358952 156.918295 
L 287.603605 143.535487 
L 288.092911 184.970721 
L 288.337564 159.491912 
L 288.582217 267.326465 
L 288.82687 155.888848 
L 289.071523 181.625019 
L 289.316176 177.24987 
L 289.560829 191.147402 
L 290.050135 145.337019 
L 290.294788 185.742806 
L 290.539441 162.065529 
L 290.784094 162.580253 
L 291.028747 152.800508 
L 291.2734 172.617359 
L 291.518053 139.932423 
L 291.762706 163.609699 
L 292.007359 152.543146 
L 292.252012 175.448338 
L 292.496665 145.079657 
L 292.741318 198.353529 
L 292.985971 156.660934 
L 293.230624 176.992508 
L 293.475277 156.660934 
L 293.71993 179.566125 
L 293.964583 124.233359 
L 294.453889 170.301104 
L 294.698542 153.315231 
L 294.943195 146.881189 
L 295.187848 168.24221 
L 295.677154 182.139742 
L 295.921807 155.631487 
L 296.16646 165.15387 
L 296.411113 165.925955 
L 296.655766 175.190976 
L 296.900419 167.984848 
L 297.145072 198.868253 
L 297.389725 172.359997 
L 297.634378 167.984848 
L 297.879031 146.366465 
L 298.123684 171.073189 
L 298.368337 165.925955 
L 298.61299 135.557274 
L 298.857643 169.529019 
L 299.102296 140.704508 
L 299.346949 217.913019 
L 299.591602 200.412423 
L 299.836256 138.388253 
L 300.080909 136.071997 
L 300.570215 164.639146 
L 300.814868 164.124423 
L 301.059521 158.977189 
L 301.304174 164.381785 
L 301.548827 140.704508 
L 301.79348 156.918295 
L 302.038133 148.425359 
L 302.282786 156.660934 
L 302.527439 158.462465 
L 302.772092 165.411231 
L 303.016745 157.69038 
L 303.261398 186.772253 
L 303.506051 91.805785 
L 303.750704 167.212763 
L 303.995357 144.564934 
L 304.24001 160.263997 
L 304.484663 163.609699 
L 304.729316 179.051402 
L 305.218622 152.285785 
L 305.463275 166.955402 
L 305.707928 164.381785 
L 305.952581 154.344678 
L 306.197234 153.572593 
L 306.441887 149.712168 
L 306.68654 161.808168 
L 306.931193 160.778721 
L 307.175846 169.014295 
L 307.420499 157.175657 
L 307.665152 173.646806 
L 307.909805 159.749274 
L 308.154458 181.88238 
L 308.399111 161.293444 
L 308.643764 163.352338 
L 308.888417 163.867061 
L 309.13307 163.094976 
L 309.377723 158.719827 
L 309.622376 162.837614 
L 309.867029 158.719827 
L 310.111682 167.984848 
L 310.356335 162.580253 
L 310.845641 175.448338 
L 311.090294 161.036082 
L 311.334947 162.322891 
L 311.5796 165.925955 
L 311.824253 163.094976 
L 312.068906 170.301104 
L 312.313559 195.779912 
L 312.558212 142.763402 
L 312.802865 177.764593 
L 313.047518 171.330551 
L 313.292171 140.447146 
L 313.536824 162.837614 
L 313.781477 172.617359 
L 314.02613 167.470125 
L 314.270783 139.932423 
L 314.515436 162.837614 
L 314.760089 174.418891 
L 315.004742 178.021955 
L 315.249395 137.358806 
L 315.738701 180.595572 
L 315.983354 159.234551 
L 316.228007 169.014295 
L 316.47266 169.014295 
L 316.717313 154.087316 
L 316.961966 161.808168 
L 317.206619 162.837614 
L 317.451272 158.205104 
L 317.695925 186.257529 
L 317.940578 166.440678 
L 318.185231 169.271657 
L 318.429884 151.513699 
L 318.674537 169.529019 
L 318.91919 153.05787 
L 319.163843 167.727487 
L 319.408496 171.587912 
L 319.653149 102.357614 
L 320.387108 173.646806 
L 320.631761 178.021955 
L 321.121067 163.094976 
L 321.36572 167.470125 
L 321.610373 173.904168 
L 321.855026 170.043742 
L 322.099679 177.24987 
L 322.344333 120.372934 
L 322.588986 163.094976 
L 322.833639 172.102636 
L 323.078292 202.213955 
L 323.322945 156.14621 
L 323.567598 187.544338 
L 323.812251 145.079657 
L 324.056904 144.307572 
L 324.301557 138.902976 
L 324.54621 171.845274 
L 324.790863 151.256338 
L 325.035516 157.69038 
L 325.280169 182.911827 
L 325.524822 161.036082 
L 325.769475 162.322891 
L 326.014128 152.028423 
L 326.258781 185.742806 
L 326.503434 191.662125 
L 326.99274 139.417699 
L 327.237393 171.330551 
L 327.482046 127.836423 
L 327.726699 173.646806 
L 327.971352 139.675061 
L 328.216005 159.234551 
L 328.460658 143.535487 
L 328.705311 172.102636 
L 328.949964 166.955402 
L 329.194617 171.587912 
L 329.43927 130.41004 
L 329.683923 166.440678 
L 329.928576 164.381785 
L 330.173229 164.124423 
L 330.417882 172.359997 
L 330.662535 163.352338 
L 330.907188 171.845274 
L 331.151841 166.69804 
L 331.396494 183.941274 
L 331.641147 153.05787 
L 331.8858 171.587912 
L 332.130453 164.381785 
L 332.375106 150.484253 
L 332.619759 169.529019 
L 332.864412 164.896508 
L 333.109065 149.712168 
L 333.353718 179.308763 
L 333.598371 162.065529 
L 333.843024 168.756934 
L 334.087677 165.15387 
L 334.33233 169.529019 
L 334.576983 153.05787 
L 334.821636 158.719827 
L 335.066289 149.969529 
L 335.310942 160.263997 
L 335.555595 149.197444 
L 335.800248 125.520168 
L 336.044901 181.110295 
L 336.289554 176.735146 
L 336.534207 191.919487 
L 337.023513 151.256338 
L 337.268166 165.411231 
L 337.512819 169.78638 
L 337.757472 166.69804 
L 338.002125 145.851742 
L 338.246778 165.925955 
L 338.491431 145.851742 
L 338.736084 168.24221 
L 338.980737 165.411231 
L 339.22539 164.639146 
L 339.470043 161.808168 
L 339.714696 167.727487 
L 339.959349 167.727487 
L 340.204002 157.69038 
L 340.448655 164.381785 
L 340.693308 174.418891 
L 340.937961 170.815827 
L 341.182614 139.675061 
L 341.427267 188.316423 
L 341.67192 158.205104 
L 341.916573 163.867061 
L 342.161226 161.036082 
L 342.405879 149.197444 
L 342.650532 171.073189 
L 342.895185 159.234551 
L 343.139838 170.043742 
L 343.384491 172.102636 
L 343.629144 155.631487 
L 343.873797 167.212763 
L 344.11845 158.462465 
L 344.363103 162.837614 
L 344.607756 182.911827 
L 344.85241 143.278125 
L 345.097063 168.499572 
L 345.341716 161.550806 
L 345.586369 161.293444 
L 345.831022 159.491912 
L 346.075675 159.749274 
L 346.320328 158.205104 
L 346.564981 160.521359 
L 346.809634 172.359997 
L 347.054287 159.749274 
L 347.29894 168.756934 
L 347.543593 160.006636 
L 347.788246 165.668593 
L 348.032899 168.24221 
L 348.277552 165.668593 
L 348.522205 170.815827 
L 348.766858 171.587912 
L 349.011511 150.741614 
L 349.256164 166.69804 
L 349.500817 173.389444 
L 349.74547 152.543146 
L 349.990123 141.219231 
L 350.234776 135.299912 
L 350.724082 166.69804 
L 350.968735 153.05787 
L 351.213388 159.491912 
L 351.458041 139.932423 
L 351.702694 167.212763 
L 351.947347 170.043742 
L 352.192 171.330551 
L 352.436653 159.491912 
L 352.681306 165.925955 
L 353.170612 157.433019 
L 353.415265 186.257529 
L 353.659918 166.440678 
L 353.904571 163.094976 
L 354.149224 139.160338 
L 354.393877 214.052593 
L 354.63853 158.462465 
L 354.883183 164.896508 
L 355.127836 144.822295 
L 355.372489 158.462465 
L 355.617142 162.065529 
L 355.861795 142.50604 
L 356.106448 155.631487 
L 356.351101 152.800508 
L 356.595754 179.051402 
L 356.840407 157.69038 
L 357.08506 121.659742 
L 357.329713 150.998976 
L 358.063672 175.705699 
L 358.308325 206.331742 
L 358.797631 141.991316 
L 359.042284 174.161529 
L 359.286937 173.904168 
L 359.53159 161.808168 
L 359.776243 141.991316 
L 360.020896 189.088508 
L 360.265549 155.116763 
L 360.510202 164.639146 
L 360.754855 139.932423 
L 360.999508 181.88238 
L 361.244161 198.353529 
L 361.488814 149.197444 
L 361.733467 198.096168 
L 361.97812 153.05787 
L 362.222773 183.941274 
L 362.467426 140.96187 
L 362.712079 177.507231 
L 362.956732 141.476593 
L 363.446038 164.124423 
L 363.690691 134.527827 
L 363.935344 148.425359 
L 364.179997 138.388253 
L 364.669303 165.668593 
L 364.913956 149.969529 
L 365.158609 155.116763 
L 365.403262 175.448338 
L 365.647915 169.271657 
L 365.892568 149.197444 
L 366.381874 187.286976 
L 366.626527 167.470125 
L 366.87118 173.132082 
L 367.115833 167.470125 
L 367.360487 172.617359 
L 367.60514 167.212763 
L 367.849793 150.741614 
L 368.094446 171.587912 
L 368.339099 154.344678 
L 368.828405 191.662125 
L 369.073058 136.329359 
L 369.317711 136.329359 
L 369.562364 173.904168 
L 369.807017 153.315231 
L 370.05167 196.551997 
L 370.296323 162.065529 
L 370.540976 173.132082 
L 370.785629 138.388253 
L 371.030282 175.705699 
L 371.274935 165.15387 
L 371.519588 161.036082 
L 371.764241 164.124423 
L 372.008894 158.719827 
L 372.253547 139.675061 
L 372.4982 144.822295 
L 372.742853 185.742806 
L 372.987506 172.874721 
L 373.232159 169.78638 
L 373.476812 140.189785 
L 373.721465 173.646806 
L 373.966118 144.307572 
L 374.210771 166.440678 
L 374.455424 150.741614 
L 374.700077 175.705699 
L 374.94473 150.484253 
L 375.189383 168.24221 
L 375.434036 157.175657 
L 375.678689 177.24987 
L 375.923342 183.169189 
L 376.167995 159.234551 
L 376.412648 193.97838 
L 376.657301 164.381785 
L 376.901954 149.197444 
L 377.146607 163.867061 
L 377.39126 148.425359 
L 377.880566 173.389444 
L 378.369872 131.439487 
L 378.614525 163.609699 
L 378.859178 156.918295 
L 379.103831 164.381785 
L 379.348484 161.036082 
L 379.593137 146.366465 
L 380.082443 160.263997 
L 380.327096 165.925955 
L 380.571749 163.867061 
L 380.816402 156.660934 
L 381.061055 141.219231 
L 381.305708 163.867061 
L 381.550361 163.609699 
L 381.795014 170.301104 
L 382.039667 161.036082 
L 382.28432 34.414125 
L 382.528973 162.322891 
L 382.773626 182.654465 
L 383.262932 141.991316 
L 383.507585 162.065529 
L 383.507585 162.065529 
" style="fill:none;stroke:#ff7f0e;stroke-linecap:square;stroke-width:1.5;"/>
   </g>
   <g id="patch_3">
    <path d="M 42.620313 288.430125 
L 42.620313 22.318125 
" style="fill:none;stroke:#000000;stroke-linecap:square;stroke-linejoin:miter;stroke-width:0.8;"/>
   </g>
   <g id="patch_4">
    <path d="M 399.740313 288.430125 
L 399.740313 22.318125 
" style="fill:none;stroke:#000000;stroke-linecap:square;stroke-linejoin:miter;stroke-width:0.8;"/>
   </g>
   <g id="patch_5">
    <path d="M 42.620313 288.430125 
L 399.740313 288.430125 
" style="fill:none;stroke:#000000;stroke-linecap:square;stroke-linejoin:miter;stroke-width:0.8;"/>
   </g>
   <g id="patch_6">
    <path d="M 42.620313 22.318125 
L 399.740313 22.318125 
" style="fill:none;stroke:#000000;stroke-linecap:square;stroke-linejoin:miter;stroke-width:0.8;"/>
   </g>
   <g id="text_15">
    <!-- Training: MSFT -->
    <defs>
     <path d="M -0.296875 72.90625 
L 61.375 72.90625 
L 61.375 64.59375 
L 35.5 64.59375 
L 35.5 0 
L 25.59375 0 
L 25.59375 64.59375 
L -0.296875 64.59375 
z
" id="DejaVuSans-84"/>
     <path d="M 41.109375 46.296875 
Q 39.59375 47.171875 37.8125 47.578125 
Q 36.03125 48 33.890625 48 
Q 26.265625 48 22.1875 43.046875 
Q 18.109375 38.09375 18.109375 28.8125 
L 18.109375 0 
L 9.078125 0 
L 9.078125 54.6875 
L 18.109375 54.6875 
L 18.109375 46.1875 
Q 20.953125 51.171875 25.484375 53.578125 
Q 30.03125 56 36.53125 56 
Q 37.453125 56 38.578125 55.875 
Q 39.703125 55.765625 41.0625 55.515625 
z
" id="DejaVuSans-114"/>
     <path d="M 9.421875 54.6875 
L 18.40625 54.6875 
L 18.40625 0 
L 9.421875 0 
z
M 9.421875 75.984375 
L 18.40625 75.984375 
L 18.40625 64.59375 
L 9.421875 64.59375 
z
" id="DejaVuSans-105"/>
     <path d="M 11.71875 12.40625 
L 22.015625 12.40625 
L 22.015625 0 
L 11.71875 0 
z
M 11.71875 51.703125 
L 22.015625 51.703125 
L 22.015625 39.3125 
L 11.71875 39.3125 
z
" id="DejaVuSans-58"/>
     <path d="M 9.8125 72.90625 
L 24.515625 72.90625 
L 43.109375 23.296875 
L 61.8125 72.90625 
L 76.515625 72.90625 
L 76.515625 0 
L 66.890625 0 
L 66.890625 64.015625 
L 48.09375 14.015625 
L 38.1875 14.015625 
L 19.390625 64.015625 
L 19.390625 0 
L 9.8125 0 
z
" id="DejaVuSans-77"/>
     <path d="M 53.515625 70.515625 
L 53.515625 60.890625 
Q 47.90625 63.578125 42.921875 64.890625 
Q 37.9375 66.21875 33.296875 66.21875 
Q 25.25 66.21875 20.875 63.09375 
Q 16.5 59.96875 16.5 54.203125 
Q 16.5 49.359375 19.40625 46.890625 
Q 22.3125 44.4375 30.421875 42.921875 
L 36.375 41.703125 
Q 47.40625 39.59375 52.65625 34.296875 
Q 57.90625 29 57.90625 20.125 
Q 57.90625 9.515625 50.796875 4.046875 
Q 43.703125 -1.421875 29.984375 -1.421875 
Q 24.8125 -1.421875 18.96875 -0.25 
Q 13.140625 0.921875 6.890625 3.21875 
L 6.890625 13.375 
Q 12.890625 10.015625 18.65625 8.296875 
Q 24.421875 6.59375 29.984375 6.59375 
Q 38.421875 6.59375 43.015625 9.90625 
Q 47.609375 13.234375 47.609375 19.390625 
Q 47.609375 24.75 44.3125 27.78125 
Q 41.015625 30.8125 33.5 32.328125 
L 27.484375 33.5 
Q 16.453125 35.6875 11.515625 40.375 
Q 6.59375 45.0625 6.59375 53.421875 
Q 6.59375 63.09375 13.40625 68.65625 
Q 20.21875 74.21875 32.171875 74.21875 
Q 37.3125 74.21875 42.625 73.28125 
Q 47.953125 72.359375 53.515625 70.515625 
z
" id="DejaVuSans-83"/>
     <path d="M 9.8125 72.90625 
L 51.703125 72.90625 
L 51.703125 64.59375 
L 19.671875 64.59375 
L 19.671875 43.109375 
L 48.578125 43.109375 
L 48.578125 34.8125 
L 19.671875 34.8125 
L 19.671875 0 
L 9.8125 0 
z
" id="DejaVuSans-70"/>
    </defs>
    <g transform="translate(177.584688 16.318125)scale(0.12 -0.12)">
     <use xlink:href="#DejaVuSans-84"/>
     <use x="46.333984" xlink:href="#DejaVuSans-114"/>
     <use x="87.447266" xlink:href="#DejaVuSans-97"/>
     <use x="148.726562" xlink:href="#DejaVuSans-105"/>
     <use x="176.509766" xlink:href="#DejaVuSans-110"/>
     <use x="239.888672" xlink:href="#DejaVuSans-105"/>
     <use x="267.671875" xlink:href="#DejaVuSans-110"/>
     <use x="331.050781" xlink:href="#DejaVuSans-103"/>
     <use x="394.527344" xlink:href="#DejaVuSans-58"/>
     <use x="428.21875" xlink:href="#DejaVuSans-32"/>
     <use x="460.005859" xlink:href="#DejaVuSans-77"/>
     <use x="546.285156" xlink:href="#DejaVuSans-83"/>
     <use x="609.761719" xlink:href="#DejaVuSans-70"/>
     <use x="665.53125" xlink:href="#DejaVuSans-84"/>
    </g>
   </g>
   <g id="legend_1">
    <g id="patch_7">
     <path d="M 49.620313 59.674375 
L 133.348438 59.674375 
Q 135.348438 59.674375 135.348438 57.674375 
L 135.348438 29.318125 
Q 135.348438 27.318125 133.348438 27.318125 
L 49.620313 27.318125 
Q 47.620313 27.318125 47.620313 29.318125 
L 47.620313 57.674375 
Q 47.620313 59.674375 49.620313 59.674375 
z
" style="fill:#ffffff;opacity:0.8;stroke:#cccccc;stroke-linejoin:miter;"/>
    </g>
    <g id="line2d_27">
     <path d="M 51.620313 35.416562 
L 71.620313 35.416562 
" style="fill:none;stroke:#1f77b4;stroke-linecap:square;stroke-width:1.5;"/>
    </g>
    <g id="line2d_28"/>
    <g id="text_16">
     <!-- Predicted -->
     <defs>
      <path d="M 19.671875 64.796875 
L 19.671875 37.40625 
L 32.078125 37.40625 
Q 38.96875 37.40625 42.71875 40.96875 
Q 46.484375 44.53125 46.484375 51.125 
Q 46.484375 57.671875 42.71875 61.234375 
Q 38.96875 64.796875 32.078125 64.796875 
z
M 9.8125 72.90625 
L 32.078125 72.90625 
Q 44.34375 72.90625 50.609375 67.359375 
Q 56.890625 61.8125 56.890625 51.125 
Q 56.890625 40.328125 50.609375 34.8125 
Q 44.34375 29.296875 32.078125 29.296875 
L 19.671875 29.296875 
L 19.671875 0 
L 9.8125 0 
z
" id="DejaVuSans-80"/>
      <path d="M 45.40625 46.390625 
L 45.40625 75.984375 
L 54.390625 75.984375 
L 54.390625 0 
L 45.40625 0 
L 45.40625 8.203125 
Q 42.578125 3.328125 38.25 0.953125 
Q 33.9375 -1.421875 27.875 -1.421875 
Q 17.96875 -1.421875 11.734375 6.484375 
Q 5.515625 14.40625 5.515625 27.296875 
Q 5.515625 40.1875 11.734375 48.09375 
Q 17.96875 56 27.875 56 
Q 33.9375 56 38.25 53.625 
Q 42.578125 51.265625 45.40625 46.390625 
z
M 14.796875 27.296875 
Q 14.796875 17.390625 18.875 11.75 
Q 22.953125 6.109375 30.078125 6.109375 
Q 37.203125 6.109375 41.296875 11.75 
Q 45.40625 17.390625 45.40625 27.296875 
Q 45.40625 37.203125 41.296875 42.84375 
Q 37.203125 48.484375 30.078125 48.484375 
Q 22.953125 48.484375 18.875 42.84375 
Q 14.796875 37.203125 14.796875 27.296875 
z
" id="DejaVuSans-100"/>
      <path d="M 48.78125 52.59375 
L 48.78125 44.1875 
Q 44.96875 46.296875 41.140625 47.34375 
Q 37.3125 48.390625 33.40625 48.390625 
Q 24.65625 48.390625 19.8125 42.84375 
Q 14.984375 37.3125 14.984375 27.296875 
Q 14.984375 17.28125 19.8125 11.734375 
Q 24.65625 6.203125 33.40625 6.203125 
Q 37.3125 6.203125 41.140625 7.25 
Q 44.96875 8.296875 48.78125 10.40625 
L 48.78125 2.09375 
Q 45.015625 0.34375 40.984375 -0.53125 
Q 36.96875 -1.421875 32.421875 -1.421875 
Q 20.0625 -1.421875 12.78125 6.34375 
Q 5.515625 14.109375 5.515625 27.296875 
Q 5.515625 40.671875 12.859375 48.328125 
Q 20.21875 56 33.015625 56 
Q 37.15625 56 41.109375 55.140625 
Q 45.0625 54.296875 48.78125 52.59375 
z
" id="DejaVuSans-99"/>
      <path d="M 18.3125 70.21875 
L 18.3125 54.6875 
L 36.8125 54.6875 
L 36.8125 47.703125 
L 18.3125 47.703125 
L 18.3125 18.015625 
Q 18.3125 11.328125 20.140625 9.421875 
Q 21.96875 7.515625 27.59375 7.515625 
L 36.8125 7.515625 
L 36.8125 0 
L 27.59375 0 
Q 17.1875 0 13.234375 3.875 
Q 9.28125 7.765625 9.28125 18.015625 
L 9.28125 47.703125 
L 2.6875 47.703125 
L 2.6875 54.6875 
L 9.28125 54.6875 
L 9.28125 70.21875 
z
" id="DejaVuSans-116"/>
     </defs>
     <g transform="translate(79.620313 38.916562)scale(0.1 -0.1)">
      <use xlink:href="#DejaVuSans-80"/>
      <use x="58.552734" xlink:href="#DejaVuSans-114"/>
      <use x="97.416016" xlink:href="#DejaVuSans-101"/>
      <use x="158.939453" xlink:href="#DejaVuSans-100"/>
      <use x="222.416016" xlink:href="#DejaVuSans-105"/>
      <use x="250.199219" xlink:href="#DejaVuSans-99"/>
      <use x="305.179688" xlink:href="#DejaVuSans-116"/>
      <use x="344.388672" xlink:href="#DejaVuSans-101"/>
      <use x="405.912109" xlink:href="#DejaVuSans-100"/>
     </g>
    </g>
    <g id="line2d_29">
     <path d="M 51.620313 50.094687 
L 71.620313 50.094687 
" style="fill:none;stroke:#ff7f0e;stroke-linecap:square;stroke-width:1.5;"/>
    </g>
    <g id="line2d_30"/>
    <g id="text_17">
     <!-- True value -->
     <defs>
      <path d="M 8.5 21.578125 
L 8.5 54.6875 
L 17.484375 54.6875 
L 17.484375 21.921875 
Q 17.484375 14.15625 20.5 10.265625 
Q 23.53125 6.390625 29.59375 6.390625 
Q 36.859375 6.390625 41.078125 11.03125 
Q 45.3125 15.671875 45.3125 23.6875 
L 45.3125 54.6875 
L 54.296875 54.6875 
L 54.296875 0 
L 45.3125 0 
L 45.3125 8.40625 
Q 42.046875 3.421875 37.71875 1 
Q 33.40625 -1.421875 27.6875 -1.421875 
Q 18.265625 -1.421875 13.375 4.4375 
Q 8.5 10.296875 8.5 21.578125 
z
M 31.109375 56 
z
" id="DejaVuSans-117"/>
      <path d="M 2.984375 54.6875 
L 12.5 54.6875 
L 29.59375 8.796875 
L 46.6875 54.6875 
L 56.203125 54.6875 
L 35.6875 0 
L 23.484375 0 
z
" id="DejaVuSans-118"/>
      <path d="M 9.421875 75.984375 
L 18.40625 75.984375 
L 18.40625 0 
L 9.421875 0 
z
" id="DejaVuSans-108"/>
     </defs>
     <g transform="translate(79.620313 53.594687)scale(0.1 -0.1)">
      <use xlink:href="#DejaVuSans-84"/>
      <use x="46.333984" xlink:href="#DejaVuSans-114"/>
      <use x="87.447266" xlink:href="#DejaVuSans-117"/>
      <use x="150.826172" xlink:href="#DejaVuSans-101"/>
      <use x="212.349609" xlink:href="#DejaVuSans-32"/>
      <use x="244.136719" xlink:href="#DejaVuSans-118"/>
      <use x="303.316406" xlink:href="#DejaVuSans-97"/>
      <use x="364.595703" xlink:href="#DejaVuSans-108"/>
      <use x="392.378906" xlink:href="#DejaVuSans-117"/>
      <use x="455.757812" xlink:href="#DejaVuSans-101"/>
     </g>
    </g>
   </g>
  </g>
 </g>
 <defs>
  <clipPath id="p535b74f802">
   <rect height="266.112" width="357.12" x="42.620313" y="22.318125"/>
  </clipPath>
 </defs>
</svg>
