<?xml version="1.0" encoding="utf-8" standalone="no"?>
<!DOCTYPE svg PUBLIC "-//W3C//DTD SVG 1.1//EN"
  "http://www.w3.org/Graphics/SVG/1.1/DTD/svg11.dtd">
<!-- Created with matplotlib (https://matplotlib.org/) -->
<svg height="325.986375pt" version="1.1" viewBox="0 0 411.285625 325.986375" width="411.285625pt" xmlns="http://www.w3.org/2000/svg" xmlns:xlink="http://www.w3.org/1999/xlink">
 <defs>
  <style type="text/css">
*{stroke-linecap:butt;stroke-linejoin:round;}
  </style>
 </defs>
 <g id="figure_1">
  <g id="patch_1">
   <path d="M 0 325.986375 
L 411.285625 325.986375 
L 411.285625 0 
L 0 0 
z
" style="fill:#ffffff;"/>
  </g>
  <g id="axes_1">
   <g id="patch_2">
    <path d="M 46.965625 288.430125 
L 404.085625 288.430125 
L 404.085625 22.318125 
L 46.965625 22.318125 
z
" style="fill:#ffffff;"/>
   </g>
   <g id="matplotlib.axis_1">
    <g id="xtick_1">
     <g id="line2d_1">
      <path clip-path="url(#pef03933e4f)" d="M 63.198352 288.430125 
L 63.198352 22.318125 
" style="fill:none;stroke:#b0b0b0;stroke-dasharray:2.96,1.28;stroke-dashoffset:0;stroke-width:0.8;"/>
     </g>
     <g id="line2d_2">
      <defs>
       <path d="M 0 0 
L 0 3.5 
" id="m12442afd20" style="stroke:#000000;stroke-width:0.8;"/>
      </defs>
      <g>
       <use style="stroke:#000000;stroke-width:0.8;" x="63.198352" xlink:href="#m12442afd20" y="288.430125"/>
      </g>
     </g>
     <g id="text_1">
      <!-- 0 -->
      <defs>
       <path d="M 31.78125 66.40625 
Q 24.171875 66.40625 20.328125 58.90625 
Q 16.5 51.421875 16.5 36.375 
Q 16.5 21.390625 20.328125 13.890625 
Q 24.171875 6.390625 31.78125 6.390625 
Q 39.453125 6.390625 43.28125 13.890625 
Q 47.125 21.390625 47.125 36.375 
Q 47.125 51.421875 43.28125 58.90625 
Q 39.453125 66.40625 31.78125 66.40625 
z
M 31.78125 74.21875 
Q 44.046875 74.21875 50.515625 64.515625 
Q 56.984375 54.828125 56.984375 36.375 
Q 56.984375 17.96875 50.515625 8.265625 
Q 44.046875 -1.421875 31.78125 -1.421875 
Q 19.53125 -1.421875 13.0625 8.265625 
Q 6.59375 17.96875 6.59375 36.375 
Q 6.59375 54.828125 13.0625 64.515625 
Q 19.53125 74.21875 31.78125 74.21875 
z
" id="DejaVuSans-48"/>
      </defs>
      <g transform="translate(60.017102 303.028562)scale(0.1 -0.1)">
       <use xlink:href="#DejaVuSans-48"/>
      </g>
     </g>
    </g>
    <g id="xtick_2">
     <g id="line2d_3">
      <path clip-path="url(#pef03933e4f)" d="M 112.128954 288.430125 
L 112.128954 22.318125 
" style="fill:none;stroke:#b0b0b0;stroke-dasharray:2.96,1.28;stroke-dashoffset:0;stroke-width:0.8;"/>
     </g>
     <g id="line2d_4">
      <g>
       <use style="stroke:#000000;stroke-width:0.8;" x="112.128954" xlink:href="#m12442afd20" y="288.430125"/>
      </g>
     </g>
     <g id="text_2">
      <!-- 200 -->
      <defs>
       <path d="M 19.1875 8.296875 
L 53.609375 8.296875 
L 53.609375 0 
L 7.328125 0 
L 7.328125 8.296875 
Q 12.9375 14.109375 22.625 23.890625 
Q 32.328125 33.6875 34.8125 36.53125 
Q 39.546875 41.84375 41.421875 45.53125 
Q 43.3125 49.21875 43.3125 52.78125 
Q 43.3125 58.59375 39.234375 62.25 
Q 35.15625 65.921875 28.609375 65.921875 
Q 23.96875 65.921875 18.8125 64.3125 
Q 13.671875 62.703125 7.8125 59.421875 
L 7.8125 69.390625 
Q 13.765625 71.78125 18.9375 73 
Q 24.125 74.21875 28.421875 74.21875 
Q 39.75 74.21875 46.484375 68.546875 
Q 53.21875 62.890625 53.21875 53.421875 
Q 53.21875 48.921875 51.53125 44.890625 
Q 49.859375 40.875 45.40625 35.40625 
Q 44.1875 33.984375 37.640625 27.21875 
Q 31.109375 20.453125 19.1875 8.296875 
z
" id="DejaVuSans-50"/>
      </defs>
      <g transform="translate(102.585204 303.028562)scale(0.1 -0.1)">
       <use xlink:href="#DejaVuSans-50"/>
       <use x="63.623047" xlink:href="#DejaVuSans-48"/>
       <use x="127.246094" xlink:href="#DejaVuSans-48"/>
      </g>
     </g>
    </g>
    <g id="xtick_3">
     <g id="line2d_5">
      <path clip-path="url(#pef03933e4f)" d="M 161.059557 288.430125 
L 161.059557 22.318125 
" style="fill:none;stroke:#b0b0b0;stroke-dasharray:2.96,1.28;stroke-dashoffset:0;stroke-width:0.8;"/>
     </g>
     <g id="line2d_6">
      <g>
       <use style="stroke:#000000;stroke-width:0.8;" x="161.059557" xlink:href="#m12442afd20" y="288.430125"/>
      </g>
     </g>
     <g id="text_3">
      <!-- 400 -->
      <defs>
       <path d="M 37.796875 64.3125 
L 12.890625 25.390625 
L 37.796875 25.390625 
z
M 35.203125 72.90625 
L 47.609375 72.90625 
L 47.609375 25.390625 
L 58.015625 25.390625 
L 58.015625 17.1875 
L 47.609375 17.1875 
L 47.609375 0 
L 37.796875 0 
L 37.796875 17.1875 
L 4.890625 17.1875 
L 4.890625 26.703125 
z
" id="DejaVuSans-52"/>
      </defs>
      <g transform="translate(151.515807 303.028562)scale(0.1 -0.1)">
       <use xlink:href="#DejaVuSans-52"/>
       <use x="63.623047" xlink:href="#DejaVuSans-48"/>
       <use x="127.246094" xlink:href="#DejaVuSans-48"/>
      </g>
     </g>
    </g>
    <g id="xtick_4">
     <g id="line2d_7">
      <path clip-path="url(#pef03933e4f)" d="M 209.990159 288.430125 
L 209.990159 22.318125 
" style="fill:none;stroke:#b0b0b0;stroke-dasharray:2.96,1.28;stroke-dashoffset:0;stroke-width:0.8;"/>
     </g>
     <g id="line2d_8">
      <g>
       <use style="stroke:#000000;stroke-width:0.8;" x="209.990159" xlink:href="#m12442afd20" y="288.430125"/>
      </g>
     </g>
     <g id="text_4">
      <!-- 600 -->
      <defs>
       <path d="M 33.015625 40.375 
Q 26.375 40.375 22.484375 35.828125 
Q 18.609375 31.296875 18.609375 23.390625 
Q 18.609375 15.53125 22.484375 10.953125 
Q 26.375 6.390625 33.015625 6.390625 
Q 39.65625 6.390625 43.53125 10.953125 
Q 47.40625 15.53125 47.40625 23.390625 
Q 47.40625 31.296875 43.53125 35.828125 
Q 39.65625 40.375 33.015625 40.375 
z
M 52.59375 71.296875 
L 52.59375 62.3125 
Q 48.875 64.0625 45.09375 64.984375 
Q 41.3125 65.921875 37.59375 65.921875 
Q 27.828125 65.921875 22.671875 59.328125 
Q 17.53125 52.734375 16.796875 39.40625 
Q 19.671875 43.65625 24.015625 45.921875 
Q 28.375 48.1875 33.59375 48.1875 
Q 44.578125 48.1875 50.953125 41.515625 
Q 57.328125 34.859375 57.328125 23.390625 
Q 57.328125 12.15625 50.6875 5.359375 
Q 44.046875 -1.421875 33.015625 -1.421875 
Q 20.359375 -1.421875 13.671875 8.265625 
Q 6.984375 17.96875 6.984375 36.375 
Q 6.984375 53.65625 15.1875 63.9375 
Q 23.390625 74.21875 37.203125 74.21875 
Q 40.921875 74.21875 44.703125 73.484375 
Q 48.484375 72.75 52.59375 71.296875 
z
" id="DejaVuSans-54"/>
      </defs>
      <g transform="translate(200.446409 303.028562)scale(0.1 -0.1)">
       <use xlink:href="#DejaVuSans-54"/>
       <use x="63.623047" xlink:href="#DejaVuSans-48"/>
       <use x="127.246094" xlink:href="#DejaVuSans-48"/>
      </g>
     </g>
    </g>
    <g id="xtick_5">
     <g id="line2d_9">
      <path clip-path="url(#pef03933e4f)" d="M 258.920761 288.430125 
L 258.920761 22.318125 
" style="fill:none;stroke:#b0b0b0;stroke-dasharray:2.96,1.28;stroke-dashoffset:0;stroke-width:0.8;"/>
     </g>
     <g id="line2d_10">
      <g>
       <use style="stroke:#000000;stroke-width:0.8;" x="258.920761" xlink:href="#m12442afd20" y="288.430125"/>
      </g>
     </g>
     <g id="text_5">
      <!-- 800 -->
      <defs>
       <path d="M 31.78125 34.625 
Q 24.75 34.625 20.71875 30.859375 
Q 16.703125 27.09375 16.703125 20.515625 
Q 16.703125 13.921875 20.71875 10.15625 
Q 24.75 6.390625 31.78125 6.390625 
Q 38.8125 6.390625 42.859375 10.171875 
Q 46.921875 13.96875 46.921875 20.515625 
Q 46.921875 27.09375 42.890625 30.859375 
Q 38.875 34.625 31.78125 34.625 
z
M 21.921875 38.8125 
Q 15.578125 40.375 12.03125 44.71875 
Q 8.5 49.078125 8.5 55.328125 
Q 8.5 64.0625 14.71875 69.140625 
Q 20.953125 74.21875 31.78125 74.21875 
Q 42.671875 74.21875 48.875 69.140625 
Q 55.078125 64.0625 55.078125 55.328125 
Q 55.078125 49.078125 51.53125 44.71875 
Q 48 40.375 41.703125 38.8125 
Q 48.828125 37.15625 52.796875 32.3125 
Q 56.78125 27.484375 56.78125 20.515625 
Q 56.78125 9.90625 50.3125 4.234375 
Q 43.84375 -1.421875 31.78125 -1.421875 
Q 19.734375 -1.421875 13.25 4.234375 
Q 6.78125 9.90625 6.78125 20.515625 
Q 6.78125 27.484375 10.78125 32.3125 
Q 14.796875 37.15625 21.921875 38.8125 
z
M 18.3125 54.390625 
Q 18.3125 48.734375 21.84375 45.5625 
Q 25.390625 42.390625 31.78125 42.390625 
Q 38.140625 42.390625 41.71875 45.5625 
Q 45.3125 48.734375 45.3125 54.390625 
Q 45.3125 60.0625 41.71875 63.234375 
Q 38.140625 66.40625 31.78125 66.40625 
Q 25.390625 66.40625 21.84375 63.234375 
Q 18.3125 60.0625 18.3125 54.390625 
z
" id="DejaVuSans-56"/>
      </defs>
      <g transform="translate(249.377011 303.028562)scale(0.1 -0.1)">
       <use xlink:href="#DejaVuSans-56"/>
       <use x="63.623047" xlink:href="#DejaVuSans-48"/>
       <use x="127.246094" xlink:href="#DejaVuSans-48"/>
      </g>
     </g>
    </g>
    <g id="xtick_6">
     <g id="line2d_11">
      <path clip-path="url(#pef03933e4f)" d="M 307.851363 288.430125 
L 307.851363 22.318125 
" style="fill:none;stroke:#b0b0b0;stroke-dasharray:2.96,1.28;stroke-dashoffset:0;stroke-width:0.8;"/>
     </g>
     <g id="line2d_12">
      <g>
       <use style="stroke:#000000;stroke-width:0.8;" x="307.851363" xlink:href="#m12442afd20" y="288.430125"/>
      </g>
     </g>
     <g id="text_6">
      <!-- 1000 -->
      <defs>
       <path d="M 12.40625 8.296875 
L 28.515625 8.296875 
L 28.515625 63.921875 
L 10.984375 60.40625 
L 10.984375 69.390625 
L 28.421875 72.90625 
L 38.28125 72.90625 
L 38.28125 8.296875 
L 54.390625 8.296875 
L 54.390625 0 
L 12.40625 0 
z
" id="DejaVuSans-49"/>
      </defs>
      <g transform="translate(295.126363 303.028562)scale(0.1 -0.1)">
       <use xlink:href="#DejaVuSans-49"/>
       <use x="63.623047" xlink:href="#DejaVuSans-48"/>
       <use x="127.246094" xlink:href="#DejaVuSans-48"/>
       <use x="190.869141" xlink:href="#DejaVuSans-48"/>
      </g>
     </g>
    </g>
    <g id="xtick_7">
     <g id="line2d_13">
      <path clip-path="url(#pef03933e4f)" d="M 356.781965 288.430125 
L 356.781965 22.318125 
" style="fill:none;stroke:#b0b0b0;stroke-dasharray:2.96,1.28;stroke-dashoffset:0;stroke-width:0.8;"/>
     </g>
     <g id="line2d_14">
      <g>
       <use style="stroke:#000000;stroke-width:0.8;" x="356.781965" xlink:href="#m12442afd20" y="288.430125"/>
      </g>
     </g>
     <g id="text_7">
      <!-- 1200 -->
      <g transform="translate(344.056965 303.028562)scale(0.1 -0.1)">
       <use xlink:href="#DejaVuSans-49"/>
       <use x="63.623047" xlink:href="#DejaVuSans-50"/>
       <use x="127.246094" xlink:href="#DejaVuSans-48"/>
       <use x="190.869141" xlink:href="#DejaVuSans-48"/>
      </g>
     </g>
    </g>
    <g id="text_8">
     <!-- Day -->
     <defs>
      <path d="M 19.671875 64.796875 
L 19.671875 8.109375 
L 31.59375 8.109375 
Q 46.6875 8.109375 53.6875 14.9375 
Q 60.6875 21.78125 60.6875 36.53125 
Q 60.6875 51.171875 53.6875 57.984375 
Q 46.6875 64.796875 31.59375 64.796875 
z
M 9.8125 72.90625 
L 30.078125 72.90625 
Q 51.265625 72.90625 61.171875 64.09375 
Q 71.09375 55.28125 71.09375 36.53125 
Q 71.09375 17.671875 61.125 8.828125 
Q 51.171875 0 30.078125 0 
L 9.8125 0 
z
" id="DejaVuSans-68"/>
      <path d="M 34.28125 27.484375 
Q 23.390625 27.484375 19.1875 25 
Q 14.984375 22.515625 14.984375 16.5 
Q 14.984375 11.71875 18.140625 8.90625 
Q 21.296875 6.109375 26.703125 6.109375 
Q 34.1875 6.109375 38.703125 11.40625 
Q 43.21875 16.703125 43.21875 25.484375 
L 43.21875 27.484375 
z
M 52.203125 31.203125 
L 52.203125 0 
L 43.21875 0 
L 43.21875 8.296875 
Q 40.140625 3.328125 35.546875 0.953125 
Q 30.953125 -1.421875 24.3125 -1.421875 
Q 15.921875 -1.421875 10.953125 3.296875 
Q 6 8.015625 6 15.921875 
Q 6 25.140625 12.171875 29.828125 
Q 18.359375 34.515625 30.609375 34.515625 
L 43.21875 34.515625 
L 43.21875 35.40625 
Q 43.21875 41.609375 39.140625 45 
Q 35.0625 48.390625 27.6875 48.390625 
Q 23 48.390625 18.546875 47.265625 
Q 14.109375 46.140625 10.015625 43.890625 
L 10.015625 52.203125 
Q 14.9375 54.109375 19.578125 55.046875 
Q 24.21875 56 28.609375 56 
Q 40.484375 56 46.34375 49.84375 
Q 52.203125 43.703125 52.203125 31.203125 
z
" id="DejaVuSans-97"/>
      <path d="M 32.171875 -5.078125 
Q 28.375 -14.84375 24.75 -17.8125 
Q 21.140625 -20.796875 15.09375 -20.796875 
L 7.90625 -20.796875 
L 7.90625 -13.28125 
L 13.1875 -13.28125 
Q 16.890625 -13.28125 18.9375 -11.515625 
Q 21 -9.765625 23.484375 -3.21875 
L 25.09375 0.875 
L 2.984375 54.6875 
L 12.5 54.6875 
L 29.59375 11.921875 
L 46.6875 54.6875 
L 56.203125 54.6875 
z
" id="DejaVuSans-121"/>
     </defs>
     <g transform="translate(215.652188 316.706687)scale(0.1 -0.1)">
      <use xlink:href="#DejaVuSans-68"/>
      <use x="77.001953" xlink:href="#DejaVuSans-97"/>
      <use x="138.28125" xlink:href="#DejaVuSans-121"/>
     </g>
    </g>
   </g>
   <g id="matplotlib.axis_2">
    <g id="ytick_1">
     <g id="line2d_15">
      <path clip-path="url(#pef03933e4f)" d="M 46.965625 260.27874 
L 404.085625 260.27874 
" style="fill:none;stroke:#b0b0b0;stroke-dasharray:2.96,1.28;stroke-dashoffset:0;stroke-width:0.8;"/>
     </g>
     <g id="line2d_16">
      <defs>
       <path d="M 0 0 
L -3.5 0 
" id="md1c7427745" style="stroke:#000000;stroke-width:0.8;"/>
      </defs>
      <g>
       <use style="stroke:#000000;stroke-width:0.8;" x="46.965625" xlink:href="#md1c7427745" y="260.27874"/>
      </g>
     </g>
     <g id="text_9">
      <!-- 40 -->
      <g transform="translate(27.240625 264.077959)scale(0.1 -0.1)">
       <use xlink:href="#DejaVuSans-52"/>
       <use x="63.623047" xlink:href="#DejaVuSans-48"/>
      </g>
     </g>
    </g>
    <g id="ytick_2">
     <g id="line2d_17">
      <path clip-path="url(#pef03933e4f)" d="M 46.965625 228.533889 
L 404.085625 228.533889 
" style="fill:none;stroke:#b0b0b0;stroke-dasharray:2.96,1.28;stroke-dashoffset:0;stroke-width:0.8;"/>
     </g>
     <g id="line2d_18">
      <g>
       <use style="stroke:#000000;stroke-width:0.8;" x="46.965625" xlink:href="#md1c7427745" y="228.533889"/>
      </g>
     </g>
     <g id="text_10">
      <!-- 60 -->
      <g transform="translate(27.240625 232.333108)scale(0.1 -0.1)">
       <use xlink:href="#DejaVuSans-54"/>
       <use x="63.623047" xlink:href="#DejaVuSans-48"/>
      </g>
     </g>
    </g>
    <g id="ytick_3">
     <g id="line2d_19">
      <path clip-path="url(#pef03933e4f)" d="M 46.965625 196.789038 
L 404.085625 196.789038 
" style="fill:none;stroke:#b0b0b0;stroke-dasharray:2.96,1.28;stroke-dashoffset:0;stroke-width:0.8;"/>
     </g>
     <g id="line2d_20">
      <g>
       <use style="stroke:#000000;stroke-width:0.8;" x="46.965625" xlink:href="#md1c7427745" y="196.789038"/>
      </g>
     </g>
     <g id="text_11">
      <!-- 80 -->
      <g transform="translate(27.240625 200.588257)scale(0.1 -0.1)">
       <use xlink:href="#DejaVuSans-56"/>
       <use x="63.623047" xlink:href="#DejaVuSans-48"/>
      </g>
     </g>
    </g>
    <g id="ytick_4">
     <g id="line2d_21">
      <path clip-path="url(#pef03933e4f)" d="M 46.965625 165.044187 
L 404.085625 165.044187 
" style="fill:none;stroke:#b0b0b0;stroke-dasharray:2.96,1.28;stroke-dashoffset:0;stroke-width:0.8;"/>
     </g>
     <g id="line2d_22">
      <g>
       <use style="stroke:#000000;stroke-width:0.8;" x="46.965625" xlink:href="#md1c7427745" y="165.044187"/>
      </g>
     </g>
     <g id="text_12">
      <!-- 100 -->
      <g transform="translate(20.878125 168.843406)scale(0.1 -0.1)">
       <use xlink:href="#DejaVuSans-49"/>
       <use x="63.623047" xlink:href="#DejaVuSans-48"/>
       <use x="127.246094" xlink:href="#DejaVuSans-48"/>
      </g>
     </g>
    </g>
    <g id="ytick_5">
     <g id="line2d_23">
      <path clip-path="url(#pef03933e4f)" d="M 46.965625 133.299336 
L 404.085625 133.299336 
" style="fill:none;stroke:#b0b0b0;stroke-dasharray:2.96,1.28;stroke-dashoffset:0;stroke-width:0.8;"/>
     </g>
     <g id="line2d_24">
      <g>
       <use style="stroke:#000000;stroke-width:0.8;" x="46.965625" xlink:href="#md1c7427745" y="133.299336"/>
      </g>
     </g>
     <g id="text_13">
      <!-- 120 -->
      <g transform="translate(20.878125 137.098555)scale(0.1 -0.1)">
       <use xlink:href="#DejaVuSans-49"/>
       <use x="63.623047" xlink:href="#DejaVuSans-50"/>
       <use x="127.246094" xlink:href="#DejaVuSans-48"/>
      </g>
     </g>
    </g>
    <g id="ytick_6">
     <g id="line2d_25">
      <path clip-path="url(#pef03933e4f)" d="M 46.965625 101.554485 
L 404.085625 101.554485 
" style="fill:none;stroke:#b0b0b0;stroke-dasharray:2.96,1.28;stroke-dashoffset:0;stroke-width:0.8;"/>
     </g>
     <g id="line2d_26">
      <g>
       <use style="stroke:#000000;stroke-width:0.8;" x="46.965625" xlink:href="#md1c7427745" y="101.554485"/>
      </g>
     </g>
     <g id="text_14">
      <!-- 140 -->
      <g transform="translate(20.878125 105.353704)scale(0.1 -0.1)">
       <use xlink:href="#DejaVuSans-49"/>
       <use x="63.623047" xlink:href="#DejaVuSans-52"/>
       <use x="127.246094" xlink:href="#DejaVuSans-48"/>
      </g>
     </g>
    </g>
    <g id="ytick_7">
     <g id="line2d_27">
      <path clip-path="url(#pef03933e4f)" d="M 46.965625 69.809634 
L 404.085625 69.809634 
" style="fill:none;stroke:#b0b0b0;stroke-dasharray:2.96,1.28;stroke-dashoffset:0;stroke-width:0.8;"/>
     </g>
     <g id="line2d_28">
      <g>
       <use style="stroke:#000000;stroke-width:0.8;" x="46.965625" xlink:href="#md1c7427745" y="69.809634"/>
      </g>
     </g>
     <g id="text_15">
      <!-- 160 -->
      <g transform="translate(20.878125 73.608853)scale(0.1 -0.1)">
       <use xlink:href="#DejaVuSans-49"/>
       <use x="63.623047" xlink:href="#DejaVuSans-54"/>
       <use x="127.246094" xlink:href="#DejaVuSans-48"/>
      </g>
     </g>
    </g>
    <g id="ytick_8">
     <g id="line2d_29">
      <path clip-path="url(#pef03933e4f)" d="M 46.965625 38.064783 
L 404.085625 38.064783 
" style="fill:none;stroke:#b0b0b0;stroke-dasharray:2.96,1.28;stroke-dashoffset:0;stroke-width:0.8;"/>
     </g>
     <g id="line2d_30">
      <g>
       <use style="stroke:#000000;stroke-width:0.8;" x="46.965625" xlink:href="#md1c7427745" y="38.064783"/>
      </g>
     </g>
     <g id="text_16">
      <!-- 180 -->
      <g transform="translate(20.878125 41.864002)scale(0.1 -0.1)">
       <use xlink:href="#DejaVuSans-49"/>
       <use x="63.623047" xlink:href="#DejaVuSans-56"/>
       <use x="127.246094" xlink:href="#DejaVuSans-48"/>
      </g>
     </g>
    </g>
    <g id="text_17">
     <!-- Price $ -->
     <defs>
      <path d="M 19.671875 64.796875 
L 19.671875 37.40625 
L 32.078125 37.40625 
Q 38.96875 37.40625 42.71875 40.96875 
Q 46.484375 44.53125 46.484375 51.125 
Q 46.484375 57.671875 42.71875 61.234375 
Q 38.96875 64.796875 32.078125 64.796875 
z
M 9.8125 72.90625 
L 32.078125 72.90625 
Q 44.34375 72.90625 50.609375 67.359375 
Q 56.890625 61.8125 56.890625 51.125 
Q 56.890625 40.328125 50.609375 34.8125 
Q 44.34375 29.296875 32.078125 29.296875 
L 19.671875 29.296875 
L 19.671875 0 
L 9.8125 0 
z
" id="DejaVuSans-80"/>
      <path d="M 41.109375 46.296875 
Q 39.59375 47.171875 37.8125 47.578125 
Q 36.03125 48 33.890625 48 
Q 26.265625 48 22.1875 43.046875 
Q 18.109375 38.09375 18.109375 28.8125 
L 18.109375 0 
L 9.078125 0 
L 9.078125 54.6875 
L 18.109375 54.6875 
L 18.109375 46.1875 
Q 20.953125 51.171875 25.484375 53.578125 
Q 30.03125 56 36.53125 56 
Q 37.453125 56 38.578125 55.875 
Q 39.703125 55.765625 41.0625 55.515625 
z
" id="DejaVuSans-114"/>
      <path d="M 9.421875 54.6875 
L 18.40625 54.6875 
L 18.40625 0 
L 9.421875 0 
z
M 9.421875 75.984375 
L 18.40625 75.984375 
L 18.40625 64.59375 
L 9.421875 64.59375 
z
" id="DejaVuSans-105"/>
      <path d="M 48.78125 52.59375 
L 48.78125 44.1875 
Q 44.96875 46.296875 41.140625 47.34375 
Q 37.3125 48.390625 33.40625 48.390625 
Q 24.65625 48.390625 19.8125 42.84375 
Q 14.984375 37.3125 14.984375 27.296875 
Q 14.984375 17.28125 19.8125 11.734375 
Q 24.65625 6.203125 33.40625 6.203125 
Q 37.3125 6.203125 41.140625 7.25 
Q 44.96875 8.296875 48.78125 10.40625 
L 48.78125 2.09375 
Q 45.015625 0.34375 40.984375 -0.53125 
Q 36.96875 -1.421875 32.421875 -1.421875 
Q 20.0625 -1.421875 12.78125 6.34375 
Q 5.515625 14.109375 5.515625 27.296875 
Q 5.515625 40.671875 12.859375 48.328125 
Q 20.21875 56 33.015625 56 
Q 37.15625 56 41.109375 55.140625 
Q 45.0625 54.296875 48.78125 52.59375 
z
" id="DejaVuSans-99"/>
      <path d="M 56.203125 29.59375 
L 56.203125 25.203125 
L 14.890625 25.203125 
Q 15.484375 15.921875 20.484375 11.0625 
Q 25.484375 6.203125 34.421875 6.203125 
Q 39.59375 6.203125 44.453125 7.46875 
Q 49.3125 8.734375 54.109375 11.28125 
L 54.109375 2.78125 
Q 49.265625 0.734375 44.1875 -0.34375 
Q 39.109375 -1.421875 33.890625 -1.421875 
Q 20.796875 -1.421875 13.15625 6.1875 
Q 5.515625 13.8125 5.515625 26.8125 
Q 5.515625 40.234375 12.765625 48.109375 
Q 20.015625 56 32.328125 56 
Q 43.359375 56 49.78125 48.890625 
Q 56.203125 41.796875 56.203125 29.59375 
z
M 47.21875 32.234375 
Q 47.125 39.59375 43.09375 43.984375 
Q 39.0625 48.390625 32.421875 48.390625 
Q 24.90625 48.390625 20.390625 44.140625 
Q 15.875 39.890625 15.1875 32.171875 
z
" id="DejaVuSans-101"/>
      <path id="DejaVuSans-32"/>
      <path d="M 33.796875 -14.703125 
L 28.90625 -14.703125 
L 28.859375 0 
Q 23.734375 0.09375 18.609375 1.1875 
Q 13.484375 2.296875 8.296875 4.5 
L 8.296875 13.28125 
Q 13.28125 10.15625 18.375 8.5625 
Q 23.484375 6.984375 28.90625 6.9375 
L 28.90625 29.203125 
Q 18.109375 30.953125 13.203125 35.15625 
Q 8.296875 39.359375 8.296875 46.6875 
Q 8.296875 54.640625 13.625 59.21875 
Q 18.953125 63.8125 28.90625 64.5 
L 28.90625 75.984375 
L 33.796875 75.984375 
L 33.796875 64.65625 
Q 38.328125 64.453125 42.578125 63.6875 
Q 46.828125 62.9375 50.875 61.625 
L 50.875 53.078125 
Q 46.828125 55.125 42.546875 56.25 
Q 38.28125 57.375 33.796875 57.5625 
L 33.796875 36.71875 
Q 44.875 35.015625 50.09375 30.609375 
Q 55.328125 26.21875 55.328125 18.609375 
Q 55.328125 10.359375 49.78125 5.59375 
Q 44.234375 0.828125 33.796875 0.09375 
z
M 28.90625 37.59375 
L 28.90625 57.625 
Q 23.25 56.984375 20.265625 54.390625 
Q 17.28125 51.8125 17.28125 47.515625 
Q 17.28125 43.3125 20.03125 40.96875 
Q 22.796875 38.625 28.90625 37.59375 
z
M 33.796875 28.21875 
L 33.796875 7.078125 
Q 39.984375 7.90625 43.140625 10.59375 
Q 46.296875 13.28125 46.296875 17.671875 
Q 46.296875 21.96875 43.28125 24.5 
Q 40.28125 27.046875 33.796875 28.21875 
z
" id="DejaVuSans-36"/>
     </defs>
     <g transform="translate(14.798438 172.342094)rotate(-90)scale(0.1 -0.1)">
      <use xlink:href="#DejaVuSans-80"/>
      <use x="58.552734" xlink:href="#DejaVuSans-114"/>
      <use x="99.666016" xlink:href="#DejaVuSans-105"/>
      <use x="127.449219" xlink:href="#DejaVuSans-99"/>
      <use x="182.429688" xlink:href="#DejaVuSans-101"/>
      <use x="243.953125" xlink:href="#DejaVuSans-32"/>
      <use x="275.740234" xlink:href="#DejaVuSans-36"/>
     </g>
    </g>
   </g>
   <g id="line2d_31">
    <path clip-path="url(#pef03933e4f)" d="M 63.198352 276.334125 
L 63.443005 274.683164 
L 63.687658 275.372143 
L 63.932311 275.547058 
L 64.176964 275.508343 
L 64.421617 273.477211 
L 64.910923 272.634745 
L 65.644882 272.442177 
L 66.134188 273.272033 
L 66.623494 271.066333 
L 67.1128 270.569805 
L 67.357453 270.803008 
L 67.602106 270.65134 
L 67.846759 271.134323 
L 68.091412 272.904828 
L 68.336066 273.078614 
L 68.580719 273.409433 
L 68.825372 273.529428 
L 69.070025 274.214652 
L 69.314678 274.558673 
L 69.559331 274.402834 
L 70.048637 272.354878 
L 70.537943 273.224051 
L 70.782596 272.875449 
L 71.027249 272.770501 
L 71.761208 271.252471 
L 72.005861 272.399532 
L 72.250514 271.792927 
L 72.495167 269.755028 
L 73.473779 272.411945 
L 73.718432 272.136867 
L 73.963085 272.632075 
L 74.207738 272.48252 
L 74.452391 272.551878 
L 74.941697 272.368513 
L 75.431003 273.053589 
L 75.675656 273.857119 
L 75.920309 274.155381 
L 76.654268 273.070167 
L 76.898921 271.730417 
L 77.143574 271.278065 
L 77.388227 271.164918 
L 77.63288 271.468545 
L 77.877533 271.147196 
L 78.122186 271.340448 
L 78.611492 271.215712 
L 78.856145 270.384157 
L 79.100798 270.220125 
L 79.345451 269.736282 
L 79.590104 269.675031 
L 79.834757 269.893829 
L 80.07941 269.722411 
L 80.568716 271.848099 
L 81.058022 272.349344 
L 81.547328 272.986168 
L 81.791981 272.50528 
L 82.036634 272.497197 
L 82.281287 271.896023 
L 82.52594 272.42116 
L 82.770593 272.24942 
L 83.015246 271.498244 
L 83.259899 271.38655 
L 83.504552 271.626098 
L 83.749205 270.577489 
L 83.993858 270.192812 
L 84.238511 269.410235 
L 84.483164 269.145953 
L 84.727817 268.287835 
L 84.97247 268.197158 
L 85.217123 268.319405 
L 85.706429 267.458847 
L 85.951082 267.717377 
L 86.195735 267.352633 
L 86.440388 267.660135 
L 86.685041 265.091825 
L 86.929694 264.928168 
L 87.174347 264.926637 
L 87.419 263.996285 
L 87.663653 264.172487 
L 88.152959 264.731047 
L 88.397612 264.435806 
L 88.886918 265.569892 
L 89.376224 263.556079 
L 89.620877 264.383765 
L 89.86553 263.683394 
L 90.110183 264.015963 
L 90.354836 263.92712 
L 90.599489 263.023942 
L 90.844143 263.098714 
L 91.088796 263.659193 
L 91.333449 263.613539 
L 91.578102 263.752765 
L 91.822755 264.058977 
L 92.312061 264.214477 
L 92.556714 264.044947 
L 92.801367 263.588351 
L 93.04602 263.85649 
L 93.290673 263.583071 
L 93.535326 263.657685 
L 93.779979 263.280716 
L 94.024632 264.097891 
L 94.269285 264.186371 
L 94.513938 263.57804 
L 94.758591 263.837593 
L 95.003244 263.165917 
L 95.247897 263.369808 
L 95.49255 263.827421 
L 95.737203 262.401104 
L 95.981856 262.902985 
L 96.226509 262.604305 
L 96.471162 262.669831 
L 96.960468 263.081681 
L 97.205121 262.60195 
L 97.449774 262.741799 
L 97.694427 263.468054 
L 97.93908 263.210934 
L 98.183733 263.66948 
L 98.428386 263.107693 
L 98.673039 261.641317 
L 98.917692 261.732183 
L 99.162345 261.253625 
L 99.406998 260.244458 
L 99.651651 258.656694 
L 99.896304 258.756763 
L 100.140957 258.552763 
L 100.630263 258.398855 
L 100.874916 258.634788 
L 101.119569 258.190313 
L 101.364222 258.2939 
L 101.853528 258.996892 
L 102.098181 259.563014 
L 102.342834 257.140742 
L 102.587487 257.171815 
L 102.83214 256.11112 
L 103.076793 257.076391 
L 103.321446 256.536044 
L 103.566099 256.698955 
L 103.810752 255.371896 
L 104.055405 255.439995 
L 104.300058 254.7301 
L 104.544711 254.941893 
L 104.789364 254.138856 
L 105.034017 255.375686 
L 105.523323 254.274678 
L 106.012629 252.691505 
L 106.501935 253.425425 
L 106.746588 252.527521 
L 107.235894 253.510266 
L 107.480547 253.366257 
L 107.7252 253.52705 
L 107.969853 253.153411 
L 108.214506 253.4805 
L 108.459159 252.810706 
L 108.703812 253.080202 
L 109.193118 252.799808 
L 109.437771 253.226184 
L 109.682424 251.952074 
L 109.927077 249.830709 
L 110.661036 252.376326 
L 110.905689 254.234983 
L 111.150342 254.409786 
L 111.394995 254.936001 
L 111.639648 254.528691 
L 111.884301 252.91238 
L 112.128954 253.468251 
L 112.373607 253.670919 
L 112.862913 254.341869 
L 113.35222 256.386398 
L 113.596873 256.862412 
L 113.841526 256.232236 
L 114.086179 256.605668 
L 114.330832 255.782312 
L 114.575485 256.077177 
L 114.820138 255.553245 
L 115.064791 254.043419 
L 115.309444 254.642728 
L 115.554097 254.937515 
L 115.79875 254.398948 
L 116.043403 254.303366 
L 116.288056 255.645375 
L 116.532709 256.36095 
L 116.777362 255.598269 
L 117.022015 256.200115 
L 117.266668 255.564258 
L 117.511321 255.567831 
L 117.755974 252.175559 
L 118.000627 253.115296 
L 118.24528 253.462747 
L 118.489933 255.086083 
L 118.734586 253.988139 
L 118.979239 251.926771 
L 119.223892 251.523688 
L 119.468545 251.955532 
L 119.713198 251.071384 
L 119.957851 251.402179 
L 120.447157 249.821724 
L 120.69181 250.380005 
L 120.936463 249.48832 
L 121.181116 249.293953 
L 121.670422 247.73762 
L 121.915075 247.973832 
L 122.159728 248.83993 
L 122.404381 248.100227 
L 122.649034 247.863573 
L 122.893687 247.956927 
L 123.13834 247.702321 
L 124.116952 248.644201 
L 124.361605 249.405271 
L 124.606258 249.134946 
L 124.850911 249.236728 
L 125.095564 248.720353 
L 125.340217 249.065449 
L 125.58487 248.818798 
L 126.074176 249.54156 
L 126.318829 248.925146 
L 126.563482 249.364504 
L 127.052788 249.588691 
L 127.297441 250.015745 
L 127.786747 252.470805 
L 128.0314 253.05063 
L 128.276053 252.565879 
L 128.520706 252.499905 
L 128.765359 251.833872 
L 129.254665 251.268082 
L 129.499318 252.10927 
L 129.743971 251.931482 
L 129.988624 251.484924 
L 130.233277 251.686654 
L 130.47793 251.503803 
L 130.722583 250.013517 
L 130.967236 250.137817 
L 131.211889 250.006136 
L 131.456542 249.406537 
L 131.701195 248.307987 
L 131.945848 247.858324 
L 132.190501 248.595732 
L 132.435154 248.495651 
L 132.679807 247.979633 
L 132.92446 248.012383 
L 133.169113 241.615483 
L 133.413766 242.013371 
L 133.658419 241.479951 
L 134.147725 242.604313 
L 134.637031 241.659544 
L 134.881684 241.767926 
L 135.126337 242.037627 
L 135.37099 241.204032 
L 135.860297 243.511577 
L 136.10495 242.620079 
L 136.349603 243.668846 
L 136.594256 245.506378 
L 136.838909 245.827793 
L 137.328215 241.711452 
L 137.572868 241.01618 
L 137.817521 242.037657 
L 138.062174 242.18525 
L 138.306827 241.706899 
L 138.796133 240.276834 
L 139.040786 240.044897 
L 139.285439 240.022979 
L 139.530092 238.544203 
L 139.774745 238.805566 
L 140.019398 238.749898 
L 140.264051 237.304575 
L 140.508704 238.176437 
L 140.753357 238.176467 
L 140.99801 237.689991 
L 141.242663 236.439779 
L 141.487316 237.276523 
L 141.731969 237.213062 
L 141.976622 239.576863 
L 142.465928 235.487933 
L 142.710581 235.111696 
L 142.955234 233.18626 
L 143.199887 233.772854 
L 143.44454 233.450621 
L 143.933846 235.802488 
L 144.178499 235.582412 
L 144.667805 234.994704 
L 144.912458 233.916263 
L 145.157111 234.307618 
L 145.401764 234.062833 
L 145.646417 234.316925 
L 145.89107 234.169719 
L 146.380376 235.419004 
L 146.625029 236.642677 
L 146.869682 236.250844 
L 147.358988 236.450781 
L 147.848294 238.476074 
L 148.092947 228.542402 
L 148.582253 232.710379 
L 148.826906 230.9544 
L 149.071559 232.065386 
L 149.316212 230.450612 
L 149.560865 229.903436 
L 149.805518 229.798208 
L 150.050171 229.827592 
L 150.294824 229.97498 
L 150.539477 229.946673 
L 150.78413 229.373388 
L 151.028783 230.253061 
L 151.273436 230.437031 
L 151.518089 231.870487 
L 151.762742 230.874543 
L 152.252048 230.574446 
L 152.496701 229.915291 
L 152.741354 231.188365 
L 153.23066 226.687693 
L 153.475313 226.625879 
L 153.719966 226.929917 
L 153.964619 227.72929 
L 154.209272 226.256048 
L 154.453925 227.516499 
L 154.698578 230.388193 
L 154.943231 231.527486 
L 155.187884 230.633124 
L 155.432537 231.434695 
L 155.67719 230.179961 
L 155.921843 230.456159 
L 156.166496 231.966789 
L 156.655802 227.637917 
L 156.900455 226.842321 
L 157.389761 223.188995 
L 157.634414 222.92823 
L 157.879067 221.257849 
L 158.368374 216.177382 
L 158.613027 215.579889 
L 158.85768 216.555035 
L 159.102333 215.886507 
L 159.346986 216.010837 
L 159.591639 215.253726 
L 159.836292 216.291346 
L 160.080945 216.606683 
L 160.325598 213.674549 
L 160.814904 216.614493 
L 161.059557 215.526231 
L 161.30421 214.995281 
L 161.548863 215.063265 
L 161.793516 215.501794 
L 162.282822 217.051847 
L 162.527475 216.377628 
L 162.772128 217.638962 
L 163.016781 217.670944 
L 163.261434 216.192022 
L 163.506087 215.600173 
L 163.75074 216.751599 
L 163.995393 215.601408 
L 164.484699 220.459807 
L 164.729352 219.840953 
L 164.974005 222.685019 
L 165.463311 221.275819 
L 165.707964 220.145113 
L 165.952617 219.730525 
L 166.19727 220.370123 
L 166.441923 224.78521 
L 166.931229 228.152803 
L 167.420535 223.859424 
L 167.909841 228.207436 
L 168.399147 225.866691 
L 168.888453 222.891762 
L 169.377759 221.974852 
L 169.622412 222.170678 
L 169.867065 223.670755 
L 170.356371 228.458682 
L 171.09033 225.24897 
L 171.334983 226.546233 
L 171.579636 226.932418 
L 171.824289 229.784512 
L 172.068942 231.209461 
L 172.313595 230.689749 
L 173.047554 228.006185 
L 173.292207 227.788888 
L 173.53686 228.661828 
L 173.781513 226.330862 
L 174.026166 225.658156 
L 174.270819 226.535304 
L 174.760125 224.367383 
L 175.249431 220.916161 
L 175.494084 221.462357 
L 175.738737 220.756907 
L 175.98339 222.291829 
L 176.228043 222.171574 
L 176.472696 222.582862 
L 176.717349 222.567628 
L 177.206655 218.612533 
L 177.451308 218.580685 
L 177.695961 218.301859 
L 177.940614 217.603759 
L 178.185267 218.73719 
L 178.42992 218.119148 
L 178.674573 216.788025 
L 178.919226 216.812426 
L 179.163879 208.769551 
L 179.408532 208.832679 
L 179.653185 209.358664 
L 179.897838 208.731115 
L 180.387144 209.40238 
L 180.631798 208.669828 
L 180.876451 210.015034 
L 181.121104 209.596547 
L 181.365757 208.647691 
L 181.61041 208.656592 
L 181.855063 207.678383 
L 182.099716 208.971808 
L 182.344369 211.193138 
L 182.589022 210.718329 
L 182.833675 210.546093 
L 183.322981 208.593767 
L 183.567634 209.555289 
L 183.812287 209.388393 
L 184.05694 210.60095 
L 184.301593 209.392038 
L 184.546246 209.94774 
L 184.790899 209.611248 
L 185.035552 209.996651 
L 185.280205 208.871999 
L 185.524858 209.246165 
L 185.769511 209.235545 
L 186.258817 210.326556 
L 186.50347 214.290993 
L 186.748123 214.910077 
L 186.992776 215.112588 
L 187.237429 214.837552 
L 187.726735 216.662387 
L 188.216041 214.981682 
L 188.460694 215.359953 
L 188.705347 213.924784 
L 189.194653 213.192438 
L 189.683959 210.28456 
L 189.928612 211.716096 
L 190.417918 210.320937 
L 190.662571 210.512936 
L 190.907224 210.908585 
L 191.151877 210.909771 
L 191.39653 211.196662 
L 191.641183 210.424499 
L 191.885836 210.101279 
L 192.130489 209.5658 
L 192.375142 209.611502 
L 192.619795 208.237996 
L 192.864448 207.963542 
L 193.109101 209.307731 
L 193.353754 209.523065 
L 193.598407 209.364755 
L 194.087713 212.805472 
L 194.332366 212.188204 
L 194.577019 217.154852 
L 194.821672 216.612326 
L 195.066325 218.054894 
L 195.310978 217.7995 
L 195.555631 216.817331 
L 195.800284 215.100405 
L 196.044937 216.786148 
L 196.28959 215.993278 
L 196.534243 214.590829 
L 196.778896 214.581238 
L 197.023549 216.955176 
L 197.268202 218.12094 
L 197.512855 216.144504 
L 197.757508 216.981006 
L 198.002161 219.341682 
L 198.246814 216.432049 
L 198.980773 226.190638 
L 199.225426 227.467206 
L 199.959385 222.235338 
L 200.204038 221.45514 
L 200.448691 218.988782 
L 200.693344 221.030913 
L 201.18265 218.048572 
L 201.427303 217.847188 
L 201.671956 215.820267 
L 201.916609 216.376598 
L 202.161262 215.591466 
L 202.405915 213.08701 
L 202.650568 213.244388 
L 202.895221 211.729489 
L 203.139875 211.107256 
L 203.384528 209.98964 
L 203.629181 210.598419 
L 204.118487 210.473665 
L 204.36314 210.946173 
L 204.607793 210.47473 
L 204.852446 211.215226 
L 205.097099 213.118072 
L 205.341752 212.007067 
L 205.586405 212.111562 
L 205.831058 212.526295 
L 206.075711 211.379918 
L 206.320364 211.318994 
L 207.054323 207.607832 
L 207.298976 207.416147 
L 207.788282 208.143141 
L 208.032935 208.508563 
L 208.277588 209.45731 
L 208.766894 210.681685 
L 209.011547 213.341242 
L 209.2562 213.606541 
L 209.500853 204.668771 
L 209.745506 208.265061 
L 209.990159 209.639912 
L 210.234812 206.550715 
L 210.479465 205.579784 
L 210.724118 205.970285 
L 211.213424 206.200806 
L 211.458077 205.720268 
L 211.70273 205.823855 
L 211.947383 206.623846 
L 212.192036 208.231639 
L 212.681342 209.671772 
L 212.925995 210.009209 
L 213.170648 211.984325 
L 213.415301 211.468513 
L 213.659954 208.723922 
L 214.14926 211.31587 
L 214.638566 213.066812 
L 214.883219 212.648325 
L 215.127872 210.654971 
L 215.372525 210.86528 
L 215.617178 210.756814 
L 215.861831 207.985775 
L 216.106484 206.828924 
L 216.840443 212.523195 
L 217.085096 210.663932 
L 217.329749 212.739523 
L 217.819055 210.308537 
L 218.063708 209.630624 
L 218.308361 208.291969 
L 218.797667 209.564444 
L 219.286973 208.402845 
L 220.020932 202.192132 
L 220.265585 201.240334 
L 220.510238 200.972443 
L 220.754891 199.84021 
L 221.244197 201.044217 
L 221.48885 200.496931 
L 221.733503 199.084916 
L 221.978156 198.745299 
L 222.222809 197.920266 
L 222.467462 199.061193 
L 222.712115 201.069175 
L 222.956768 199.600135 
L 223.201421 201.142657 
L 223.446074 200.851079 
L 223.690727 203.540765 
L 223.93538 203.696871 
L 224.180033 201.670301 
L 224.424686 201.031066 
L 224.669339 199.931457 
L 224.913992 197.969189 
L 225.158645 202.155827 
L 225.403298 201.884352 
L 225.647952 201.35299 
L 226.137258 204.452443 
L 226.381911 208.060819 
L 226.626564 208.521496 
L 227.360523 207.113502 
L 227.849829 204.20968 
L 228.094482 203.787246 
L 228.583788 204.519701 
L 228.828441 203.245906 
L 229.073094 202.899423 
L 229.317747 203.567781 
L 229.5624 203.754089 
L 229.807053 203.613714 
L 230.051706 204.847522 
L 230.296359 207.861602 
L 230.785665 206.043573 
L 231.274971 203.13538 
L 231.519624 202.92868 
L 231.764277 203.068087 
L 232.00893 203.770801 
L 232.253583 202.859473 
L 232.498236 203.527686 
L 232.742889 203.211587 
L 232.987542 203.987746 
L 233.476848 206.202065 
L 233.721501 205.680742 
L 233.966154 203.432383 
L 234.210807 202.749759 
L 234.45546 202.926476 
L 234.700113 202.154652 
L 234.944766 198.604367 
L 235.189419 199.116353 
L 235.678725 198.053787 
L 235.923378 197.991313 
L 236.168031 196.665979 
L 236.657337 198.323022 
L 236.90199 197.334762 
L 237.146643 197.345055 
L 237.391296 198.681033 
L 237.635949 197.657667 
L 237.880602 197.718421 
L 238.125255 197.188101 
L 238.369908 199.142243 
L 238.614561 199.106435 
L 239.103867 200.665607 
L 239.34852 198.02034 
L 239.837826 197.637516 
L 240.082479 198.926909 
L 240.327132 197.479582 
L 240.571785 200.340232 
L 240.816438 198.488683 
L 241.061091 197.92758 
L 241.550397 191.921859 
L 241.79505 192.072153 
L 242.039703 191.482701 
L 242.773662 195.68249 
L 243.018315 195.810005 
L 243.507621 196.590451 
L 243.752274 196.565929 
L 243.996927 197.44272 
L 244.24158 196.79565 
L 244.486233 196.537568 
L 244.730886 195.192241 
L 244.975539 194.475855 
L 245.220192 194.20197 
L 245.464845 193.446422 
L 245.709498 193.9823 
L 245.954151 194.143819 
L 246.443457 196.139994 
L 246.68811 196.439673 
L 246.932763 195.840764 
L 247.177416 197.380548 
L 247.422069 196.532506 
L 247.666722 196.927948 
L 248.156029 194.311527 
L 248.400682 195.079463 
L 248.645335 194.272001 
L 248.889988 192.222785 
L 249.134641 193.939432 
L 249.379294 193.213237 
L 249.623947 191.877344 
L 249.8686 191.495755 
L 250.113253 191.453843 
L 250.357906 190.677224 
L 250.602559 188.025612 
L 250.847212 186.920868 
L 251.091865 187.438909 
L 251.336518 188.794941 
L 251.825824 198.756477 
L 252.070477 205.74829 
L 252.31513 205.816565 
L 252.804436 199.265096 
L 253.049089 198.488852 
L 253.293742 199.575734 
L 253.538395 203.445025 
L 254.027701 200.120598 
L 254.272354 202.237289 
L 254.517007 197.998361 
L 254.76166 199.620322 
L 255.006313 199.487515 
L 255.250966 198.808609 
L 255.495619 199.851109 
L 255.984925 196.652816 
L 256.229578 196.868805 
L 256.474231 195.678397 
L 256.963537 190.237364 
L 257.20819 188.857052 
L 258.186802 197.474956 
L 258.676108 191.604936 
L 258.920761 191.049803 
L 259.165414 188.559904 
L 259.410067 189.411567 
L 259.65472 195.934263 
L 260.144026 191.427396 
L 260.388679 191.336016 
L 260.633332 191.710218 
L 260.877985 191.432906 
L 261.367291 184.031336 
L 261.611944 184.223154 
L 261.856597 186.448457 
L 262.10125 187.580459 
L 262.345903 184.142963 
L 262.590556 184.796718 
L 262.835209 183.477887 
L 263.079862 184.6596 
L 263.324515 183.871234 
L 263.569168 184.326934 
L 263.813821 183.721437 
L 264.058474 181.892255 
L 264.54778 180.313477 
L 264.792433 180.944513 
L 265.037086 180.523968 
L 265.281739 181.772538 
L 265.526392 181.199592 
L 265.771045 179.821411 
L 266.015698 180.390494 
L 266.260351 183.108408 
L 266.749657 181.301168 
L 267.238963 178.941702 
L 267.483616 178.787267 
L 267.728269 178.499032 
L 267.972922 178.513745 
L 268.217575 178.857382 
L 268.462228 178.244268 
L 268.706881 179.29493 
L 268.951534 177.765015 
L 269.196187 178.534029 
L 269.44084 181.481518 
L 269.685493 177.631469 
L 269.930146 181.873085 
L 270.174799 179.132708 
L 270.419452 182.073755 
L 270.664106 183.166389 
L 271.153412 176.549189 
L 271.398065 175.249612 
L 271.642718 172.840993 
L 271.887371 174.994352 
L 272.132024 179.218784 
L 272.376677 178.892016 
L 272.62133 175.571427 
L 272.865983 174.216715 
L 273.355289 174.937364 
L 273.599942 173.276809 
L 273.844595 173.262774 
L 274.089248 175.240239 
L 274.333901 178.365862 
L 274.578554 177.687089 
L 275.312513 184.786122 
L 275.557166 182.697974 
L 275.801819 181.935729 
L 276.046472 184.124145 
L 276.291125 182.04388 
L 276.535778 182.721188 
L 276.780431 182.90207 
L 277.025084 184.732996 
L 277.269737 184.557624 
L 277.51439 182.115134 
L 277.759043 186.396203 
L 278.003696 186.562651 
L 278.248349 189.568678 
L 278.493002 190.062403 
L 278.737655 183.507931 
L 278.982308 182.293776 
L 279.226961 184.607092 
L 279.471614 184.582739 
L 279.716267 187.092911 
L 280.205573 204.905867 
L 280.450226 206.68592 
L 280.694879 204.623202 
L 280.939532 205.297301 
L 281.428838 199.36482 
L 281.673491 194.937634 
L 281.918144 196.797636 
L 282.162797 196.299176 
L 282.40745 191.609175 
L 282.652103 192.424315 
L 282.896756 191.991454 
L 283.141409 187.100176 
L 283.630715 186.917126 
L 283.875368 189.15386 
L 284.120021 184.428958 
L 284.364674 184.151767 
L 285.098633 189.263029 
L 285.343286 190.420377 
L 285.587939 189.16999 
L 285.832592 189.766611 
L 286.321898 186.451254 
L 286.566551 186.687744 
L 287.055857 181.855574 
L 287.30051 176.591391 
L 287.545163 177.490161 
L 287.789816 177.58986 
L 288.034469 177.982033 
L 288.279122 177.564684 
L 288.523775 177.545635 
L 289.013081 175.639363 
L 289.257734 175.414001 
L 289.502387 173.467549 
L 289.74704 174.495311 
L 289.991693 174.994497 
L 290.236346 173.155482 
L 290.480999 175.241414 
L 290.725652 175.10254 
L 290.970305 176.826525 
L 291.214958 176.130605 
L 291.459611 174.572268 
L 291.704264 174.589706 
L 291.948917 173.493003 
L 292.19357 171.527466 
L 292.438223 171.366855 
L 292.92753 171.693756 
L 293.172183 174.128363 
L 293.416836 172.589729 
L 293.661489 171.968041 
L 293.906142 172.704831 
L 294.150795 175.737149 
L 294.640101 173.758763 
L 295.129407 176.890682 
L 295.863366 174.166351 
L 296.108019 171.509749 
L 296.597325 172.139139 
L 296.841978 172.253467 
L 297.086631 170.144611 
L 297.331284 171.930126 
L 297.575937 170.94195 
L 297.82059 172.11699 
L 298.065243 170.662967 
L 298.309896 171.00561 
L 298.554549 166.59705 
L 298.799202 166.504968 
L 299.043855 166.823853 
L 299.288508 165.570414 
L 299.533161 166.400425 
L 299.777814 165.775661 
L 300.022467 165.539522 
L 300.26712 167.708539 
L 300.511773 167.220712 
L 300.756426 168.064964 
L 301.001079 167.816981 
L 301.245732 168.731809 
L 301.490385 170.292398 
L 301.735038 170.550467 
L 302.224344 170.453784 
L 302.468997 170.328061 
L 302.71365 172.530367 
L 303.202956 166.317704 
L 303.447609 174.720079 
L 303.692262 171.857734 
L 303.936915 177.578259 
L 304.181568 179.90515 
L 304.915527 172.585054 
L 305.16018 173.085161 
L 305.404833 173.948122 
L 305.649486 173.378361 
L 305.894139 173.471242 
L 306.138792 170.933049 
L 306.628098 169.818 
L 306.872751 169.933127 
L 307.117404 169.321563 
L 307.362057 169.38922 
L 307.60671 169.178063 
L 307.851363 169.120796 
L 308.096016 168.33639 
L 308.340669 171.30581 
L 308.585322 169.01589 
L 308.829975 169.977267 
L 309.074628 168.969619 
L 309.319281 168.942106 
L 309.563934 168.276024 
L 309.808587 168.980336 
L 310.05324 169.185946 
L 310.297893 171.907553 
L 310.787199 170.150072 
L 311.031852 167.323777 
L 311.276505 168.090539 
L 311.521158 167.621494 
L 312.010464 163.096814 
L 312.255117 164.090924 
L 312.49977 164.338228 
L 312.744423 164.80605 
L 312.989076 166.091034 
L 313.233729 164.852866 
L 313.478382 165.242822 
L 313.723035 165.319562 
L 313.967688 164.020094 
L 314.212341 163.978328 
L 314.701647 162.624851 
L 314.9463 162.256183 
L 315.190953 162.708747 
L 315.435607 162.176077 
L 315.924913 160.193744 
L 316.169566 160.333526 
L 316.414219 161.02459 
L 316.658872 162.702692 
L 316.903525 166.586648 
L 317.148178 165.229029 
L 317.392831 167.391858 
L 317.637484 167.52693 
L 317.882137 166.304213 
L 318.12679 167.327689 
L 318.616096 164.719138 
L 318.860749 153.739407 
L 319.105402 153.332909 
L 319.350055 154.083734 
L 319.594708 154.118368 
L 319.839361 150.292914 
L 320.084014 150.52479 
L 320.328667 153.168701 
L 320.57332 152.234971 
L 320.817973 152.169699 
L 321.062626 152.282889 
L 321.307279 151.784562 
L 321.551932 152.00755 
L 321.796585 152.028876 
L 322.041238 151.161107 
L 322.285891 153.792302 
L 322.530544 153.051915 
L 322.775197 153.018541 
L 323.264503 153.6353 
L 323.509156 152.288883 
L 323.753809 152.367753 
L 323.998462 151.554466 
L 324.243115 151.268374 
L 324.487768 148.5764 
L 324.977074 153.125227 
L 325.221727 154.470252 
L 325.46638 153.46953 
L 325.711033 153.544925 
L 325.955686 154.563932 
L 326.200339 156.348018 
L 326.444992 154.386089 
L 326.689645 155.666084 
L 326.934298 152.081565 
L 327.178951 152.501142 
L 327.423604 153.244641 
L 327.668257 159.14422 
L 327.91291 159.714272 
L 328.157563 161.586129 
L 328.402216 159.892188 
L 328.646869 159.183577 
L 328.891522 156.487824 
L 329.136175 157.665771 
L 329.380828 156.814471 
L 329.625481 157.365632 
L 329.870134 158.95675 
L 330.114787 157.751484 
L 330.35944 158.322965 
L 330.604093 157.792402 
L 331.093399 166.041348 
L 331.338052 165.911157 
L 331.582705 162.542807 
L 331.827358 163.10718 
L 332.072011 160.528105 
L 332.316664 160.086464 
L 333.050623 155.81679 
L 333.295276 156.312791 
L 333.539929 157.435396 
L 333.784582 159.853703 
L 334.029235 157.461105 
L 334.273888 156.521623 
L 334.518541 156.88369 
L 334.763194 158.112002 
L 335.007847 157.77385 
L 335.2525 157.932233 
L 335.497153 159.533838 
L 335.741806 159.858535 
L 335.986459 160.908252 
L 336.475765 159.004208 
L 336.965071 152.714587 
L 337.209724 152.390168 
L 337.454377 152.543175 
L 337.69903 151.537258 
L 337.943684 152.055747 
L 338.188337 152.130839 
L 338.43299 152.923504 
L 339.411602 148.337355 
L 339.656255 144.203467 
L 339.900908 142.989433 
L 340.145561 145.044921 
L 340.390214 143.547533 
L 340.634867 143.739387 
L 340.87952 144.434859 
L 341.124173 144.374952 
L 341.368826 144.70987 
L 341.613479 141.668531 
L 341.858132 142.820406 
L 342.102785 141.952491 
L 342.347438 140.215694 
L 342.836744 139.091417 
L 343.081397 137.809315 
L 343.32605 137.785677 
L 343.570703 136.084204 
L 343.815356 135.757532 
L 344.060009 134.696674 
L 344.304662 134.58145 
L 344.549315 134.831491 
L 344.793968 135.966207 
L 345.038621 135.175395 
L 345.527927 136.462377 
L 345.77258 133.504571 
L 346.017233 134.187619 
L 346.506539 133.649803 
L 346.995845 134.425296 
L 347.240498 133.937372 
L 347.729804 131.109164 
L 347.974457 131.485618 
L 348.21911 130.596172 
L 348.463763 130.208384 
L 348.708416 122.901839 
L 348.953069 123.823121 
L 349.197722 125.983067 
L 349.931681 121.767753 
L 350.420987 120.238734 
L 350.66564 119.05007 
L 350.910293 118.766631 
L 351.154946 117.89093 
L 351.399599 118.700415 
L 351.644252 117.933169 
L 351.888905 118.10842 
L 352.378211 117.542897 
L 352.622864 117.912873 
L 352.867517 118.025226 
L 353.356823 119.588855 
L 353.601476 118.013286 
L 353.846129 118.224334 
L 354.090782 117.457984 
L 354.335435 115.847733 
L 354.580088 115.694812 
L 354.824741 113.391184 
L 355.069394 112.470846 
L 355.314047 113.583146 
L 355.803353 112.087817 
L 356.048006 109.931345 
L 356.292659 110.028756 
L 356.781965 110.690188 
L 357.271271 110.073634 
L 357.760577 108.439164 
L 358.00523 108.102514 
L 358.739189 105.663718 
L 358.983842 110.907775 
L 359.228495 110.776554 
L 359.717801 103.978193 
L 359.962454 103.121456 
L 360.451761 97.554191 
L 360.696414 99.056956 
L 360.941067 98.320081 
L 361.430373 99.956441 
L 361.675026 96.756525 
L 361.919679 96.443877 
L 362.164332 97.419652 
L 362.408985 96.594957 
L 362.653638 98.015498 
L 362.898291 105.077148 
L 363.142944 106.272787 
L 363.387597 103.942687 
L 363.876903 105.892131 
L 364.121556 105.453179 
L 364.366209 101.8131 
L 364.610862 100.986177 
L 364.855515 95.550278 
L 365.100168 96.171578 
L 365.344821 93.743317 
L 365.589474 94.44505 
L 365.834127 97.978006 
L 366.07878 95.944085 
L 366.323433 99.988168 
L 366.568086 99.954406 
L 366.812739 104.523178 
L 367.057392 100.374879 
L 367.302045 101.020108 
L 367.791351 97.084843 
L 368.036004 97.654968 
L 368.280657 92.901983 
L 368.52531 94.086457 
L 368.769963 92.539322 
L 369.014616 92.020107 
L 369.748575 86.402901 
L 369.993228 87.118754 
L 370.237881 86.954571 
L 370.482534 88.964902 
L 370.727187 86.668491 
L 370.97184 92.085015 
L 371.216493 91.579943 
L 371.461146 91.834029 
L 371.705799 90.574766 
L 371.950452 90.792571 
L 372.195105 89.694366 
L 372.439758 89.836752 
L 372.684411 89.021672 
L 372.929064 89.972696 
L 373.173717 89.066575 
L 373.41837 93.992656 
L 373.663023 92.007537 
L 373.907676 87.479381 
L 374.396982 83.735692 
L 374.641635 89.192807 
L 374.886288 89.564066 
L 375.130941 87.616124 
L 375.375594 82.628671 
L 375.620247 84.229961 
L 375.8649 84.869208 
L 376.109553 83.931869 
L 376.598859 82.981548 
L 377.088165 78.227716 
L 377.332818 78.223114 
L 377.822124 80.149525 
L 378.066777 77.685831 
L 378.31143 77.540079 
L 378.556083 75.340158 
L 378.800736 76.196895 
L 379.045389 76.305955 
L 379.290042 78.197829 
L 379.534695 78.990675 
L 380.024001 75.870684 
L 380.268654 86.183256 
L 380.513307 86.999885 
L 380.75796 88.583689 
L 381.002613 94.480943 
L 381.247266 93.426406 
L 381.491919 91.844443 
L 381.736572 91.174971 
L 381.981225 87.661559 
L 382.225878 89.371279 
L 382.470531 88.547093 
L 382.715184 89.276751 
L 383.204491 84.336139 
L 383.693797 82.887528 
L 383.93845 80.535364 
L 384.427756 79.734841 
L 384.672409 85.318405 
L 384.917062 85.260182 
L 385.161715 81.394596 
L 385.406368 52.01879 
L 385.651021 45.816662 
L 385.895674 51.69115 
L 386.140327 52.363819 
L 386.38498 51.651309 
L 386.629633 48.600682 
L 386.874286 42.820698 
L 387.363592 46.465887 
L 387.608245 44.591766 
L 387.852898 37.085447 
L 387.852898 37.085447 
" style="fill:none;stroke:#1f77b4;stroke-linecap:square;stroke-width:1.5;"/>
   </g>
   <g id="line2d_32">
    <path clip-path="url(#pef03933e4f)" d="M 63.198352 274.548051 
L 63.932311 275.230565 
L 64.176964 272.944936 
L 64.421617 272.754467 
L 64.910923 272.167187 
L 65.155576 271.944973 
L 65.400229 271.960845 
L 65.644882 272.548125 
L 65.889535 272.817956 
L 66.378841 270.35773 
L 66.868147 269.929175 
L 67.1128 270.199006 
L 67.357453 270.056154 
L 67.602106 270.595817 
L 67.846759 272.563997 
L 68.091412 272.468763 
L 68.336066 272.881446 
L 68.580719 273.04017 
L 68.825372 273.833791 
L 69.070025 274.135368 
L 69.314678 273.881409 
L 69.803984 271.722759 
L 70.29329 272.770339 
L 70.537943 272.294166 
L 70.782596 272.310039 
L 71.516555 270.738669 
L 71.761208 272.071952 
L 72.005861 271.198969 
L 72.250514 268.960957 
L 72.73982 270.738669 
L 73.229126 272.135442 
L 73.473779 271.706886 
L 73.718432 272.278294 
L 73.963085 271.99259 
L 74.207738 272.071952 
L 74.697044 271.897356 
L 75.18635 272.611615 
L 75.431003 273.484598 
L 75.675656 273.754429 
L 76.409615 272.45289 
L 76.654268 271.0085 
L 76.898921 270.691051 
L 77.143574 270.627562 
L 77.388227 271.0085 
L 77.63288 270.611689 
L 77.877533 270.897393 
L 78.366839 270.754541 
L 78.611492 269.786323 
L 78.856145 269.770451 
L 79.100798 269.230788 
L 79.345451 269.183171 
L 79.590104 269.421257 
L 79.834757 269.183171 
L 80.07941 270.643434 
L 80.324063 271.421183 
L 80.568716 271.548162 
L 81.302675 272.611615 
L 81.547328 271.960845 
L 81.791981 271.944973 
L 82.036634 271.516417 
L 82.281287 271.960845 
L 82.52594 271.643397 
L 82.770593 270.754541 
L 83.259899 271.103734 
L 83.504552 269.992665 
L 83.749205 269.659344 
L 83.993858 268.833977 
L 84.238511 268.691126 
L 84.483164 267.73878 
L 84.727817 267.580056 
L 84.97247 267.992739 
L 85.461776 267.024521 
L 85.706429 267.357842 
L 85.951082 266.6912 
L 86.195735 267.373714 
L 86.440388 264.151612 
L 86.685041 264.373826 
L 86.929694 264.262719 
L 87.174347 263.310373 
L 87.908306 264.199229 
L 88.152959 264.167484 
L 88.397612 264.564295 
L 88.642265 265.199192 
L 89.131571 262.913563 
L 89.376224 263.850036 
L 89.620877 263.246884 
L 89.86553 263.54846 
L 90.110183 263.231011 
L 90.354836 262.405645 
L 90.599489 262.469135 
L 90.844143 263.310373 
L 91.088796 263.199266 
L 91.333449 263.215139 
L 91.822755 263.881781 
L 92.067408 263.48497 
L 92.312061 263.532587 
L 92.556714 263.056415 
L 92.801367 263.294501 
L 93.04602 262.945308 
L 93.290673 263.072287 
L 93.535326 262.627859 
L 93.779979 263.54846 
L 94.024632 263.723056 
L 94.269285 262.913563 
L 94.513938 263.294501 
L 94.758591 262.643731 
L 95.003244 262.818328 
L 95.247897 263.342118 
L 95.49255 261.675514 
L 95.737203 262.43739 
L 95.981856 262.040579 
L 96.226509 262.167559 
L 96.471162 262.485007 
L 96.715815 262.453262 
L 96.960468 261.881855 
L 97.205121 262.231048 
L 97.449774 262.913563 
L 97.694427 262.580242 
L 97.93908 263.278629 
L 98.183733 262.516752 
L 98.428386 260.913637 
L 98.673039 261.373937 
L 99.162345 259.548609 
L 99.406998 257.961366 
L 99.651651 258.231197 
L 99.896304 257.897876 
L 100.38561 257.929621 
L 100.630263 258.056601 
L 100.874916 257.755024 
L 101.119569 257.707407 
L 101.608875 258.596263 
L 101.853528 259.088308 
L 102.098181 256.374123 
L 102.342834 256.818551 
L 102.587487 255.56463 
L 102.83214 256.326506 
L 103.076793 255.913823 
L 103.321446 256.056675 
L 103.566099 254.691646 
L 103.810752 254.91386 
L 104.055405 254.183729 
L 104.300058 254.405943 
L 104.544711 253.596449 
L 104.789364 254.91386 
L 105.767976 252.009206 
L 106.012629 252.29491 
L 106.257282 252.977424 
L 106.501935 251.898099 
L 106.991241 253.199638 
L 107.235894 252.75521 
L 107.480547 253.088531 
L 107.7252 252.548869 
L 107.969853 252.866317 
L 108.214506 252.263165 
L 108.459159 252.485379 
L 108.703812 252.247293 
L 108.948465 252.215548 
L 109.193118 252.802828 
L 109.682424 249.15217 
L 109.927077 249.977536 
L 110.17173 251.390182 
L 110.416383 251.83461 
L 110.661036 253.977387 
L 110.905689 253.898025 
L 111.150342 254.548794 
L 111.394995 253.86628 
L 111.639648 252.23142 
L 111.884301 253.040914 
L 112.128954 252.961552 
L 112.61826 253.898025 
L 112.862913 255.247181 
L 113.35222 256.421741 
L 113.596873 255.659864 
L 113.841526 256.151909 
L 114.086179 255.215436 
L 114.330832 255.659864 
L 114.575485 254.786881 
L 114.820138 253.310745 
L 115.064791 254.183729 
L 115.309444 254.612284 
L 115.554097 253.739301 
L 115.79875 253.786918 
L 116.043403 255.326543 
L 116.288056 255.96144 
L 116.532709 255.04084 
L 116.777362 255.770971 
L 117.022015 254.897988 
L 117.266668 254.945605 
L 117.511321 251.104478 
L 117.755974 252.501252 
L 118.000627 252.707593 
L 118.24528 254.564667 
L 118.489933 253.34249 
L 118.734586 251.263202 
L 118.979239 250.866392 
L 119.223892 251.453672 
L 119.468545 250.390219 
L 119.713198 250.707668 
L 120.202504 249.168042 
L 120.447157 249.771194 
L 120.69181 248.755359 
L 120.936463 248.771232 
L 121.425769 246.961775 
L 121.670422 247.390331 
L 121.915075 248.406166 
L 122.159728 247.51731 
L 122.404381 247.279224 
L 122.649034 247.469693 
L 122.893687 247.136372 
L 123.382993 247.898248 
L 123.627646 247.914121 
L 123.872299 248.152207 
L 124.116952 248.898211 
L 124.361605 248.596635 
L 124.606258 248.723614 
L 124.850911 248.056972 
L 125.095564 248.453783 
L 125.340217 248.168079 
L 125.829523 249.009318 
L 126.074176 248.358549 
L 126.318829 248.882339 
L 126.563482 248.850594 
L 126.808135 248.945828 
L 127.052788 249.422001 
L 127.297441 250.961626 
L 127.786747 252.517124 
L 128.0314 252.23142 
L 128.276053 252.120313 
L 128.520706 251.263202 
L 128.765359 251.120351 
L 129.010012 250.66005 
L 129.254665 251.548906 
L 129.499318 251.501289 
L 129.743971 250.866392 
L 129.988624 251.152095 
L 130.233277 250.945754 
L 130.47793 249.279149 
L 130.722583 249.596598 
L 130.967236 249.374384 
L 131.211889 248.771232 
L 131.456542 247.549055 
L 131.701195 247.263351 
L 131.945848 248.152207 
L 132.190501 247.961738 
L 132.435154 247.358586 
L 132.679807 247.358586 
L 132.92446 240.311229 
L 133.169113 241.438171 
L 133.413766 240.739784 
L 133.903072 242.15243 
L 134.147725 241.438171 
L 134.392378 241.073105 
L 134.881684 241.327064 
L 135.126337 240.549315 
L 135.615643 243.009541 
L 135.860297 241.914344 
L 136.10495 243.104776 
L 136.349603 245.072956 
L 136.594256 245.279298 
L 137.083562 240.930253 
L 137.328215 240.231867 
L 137.572868 241.342936 
L 137.817521 241.374681 
L 138.062174 241.136595 
L 138.55148 239.517608 
L 138.796133 239.374756 
L 139.040786 239.549352 
L 139.285439 237.724023 
L 139.530092 238.35892 
L 139.774745 238.168451 
L 140.019398 236.692316 
L 140.264051 237.89862 
L 140.508704 237.708151 
L 140.753357 237.089126 
L 140.99801 235.851077 
L 141.242663 236.803423 
L 141.487316 236.660571 
L 141.731969 239.374756 
L 142.221275 234.597156 
L 142.465928 234.501921 
L 142.710581 232.422633 
L 142.955234 233.025785 
L 143.199887 232.740082 
L 143.689193 235.247925 
L 143.933846 234.978094 
L 144.667805 233.374979 
L 144.912458 233.771789 
L 145.157111 233.438469 
L 145.401764 233.64481 
L 145.646417 233.676555 
L 146.135723 234.803497 
L 146.380376 236.406612 
L 146.625029 235.517756 
L 147.114335 235.962184 
L 147.603641 238.073217 
L 147.848294 227.121243 
L 148.092947 230.914753 
L 148.3376 232.232164 
L 148.582253 230.057642 
L 148.826906 231.502033 
L 149.071559 229.708449 
L 149.316212 229.375128 
L 149.805518 229.200531 
L 150.050171 229.311638 
L 150.294824 229.248148 
L 150.539477 228.724358 
L 150.78413 229.660831 
L 151.028783 229.867173 
L 151.273436 231.517905 
L 151.518089 230.168749 
L 151.762742 230.279856 
L 152.007395 229.97828 
L 152.252048 229.279893 
L 152.496701 230.756029 
L 152.986007 225.867322 
L 153.23066 225.946684 
L 153.475313 226.359367 
L 153.719966 227.184733 
L 153.964619 225.72447 
L 154.209272 227.137116 
L 154.453925 229.97828 
L 154.698578 231.136967 
L 154.943231 229.946535 
L 155.187884 230.978243 
L 155.432537 229.502107 
L 155.67719 229.819556 
L 155.921843 231.565522 
L 156.411149 226.946647 
L 156.655802 226.406984 
L 157.145108 222.534112 
L 157.389761 222.232536 
L 157.634414 220.375462 
L 158.12372 215.296286 
L 158.368374 214.788369 
L 158.613027 215.851821 
L 158.85768 215.074072 
L 159.102333 215.486755 
L 159.346986 214.613772 
L 159.591639 215.820076 
L 159.836292 216.121652 
L 160.080945 212.788443 
L 160.570251 216.058163 
L 160.814904 214.883603 
L 161.059557 214.40743 
L 161.30421 214.375685 
L 161.793516 215.772459 
L 162.038169 216.677187 
L 162.282822 215.740714 
L 162.527475 217.296212 
L 162.772128 217.121615 
L 163.016781 215.566117 
L 163.261434 215.010583 
L 163.506087 216.423228 
L 163.75074 215.0582 
L 164.240046 220.216738 
L 164.484699 219.31201 
L 164.729352 222.343643 
L 165.463311 219.423117 
L 165.707964 219.121541 
L 165.952617 219.8358 
L 166.19727 224.645145 
L 166.686576 227.787885 
L 167.175882 223.04203 
L 167.420535 226.168898 
L 167.665188 227.740268 
L 168.6438 222.121429 
L 169.133106 221.423042 
L 169.377759 221.565894 
L 170.111718 227.898992 
L 170.356371 227.089498 
L 170.845677 224.422931 
L 171.09033 226.057791 
L 171.334983 226.24826 
L 171.579636 229.422745 
L 171.824289 230.708411 
L 172.313595 229.184659 
L 172.558248 227.422819 
L 173.047554 227.137116 
L 173.292207 228.216441 
L 173.53686 225.930811 
L 173.781513 225.041955 
L 174.026166 225.819704 
L 174.760125 221.708746 
L 175.004778 220.200866 
L 175.249431 220.851635 
L 175.494084 219.883417 
L 175.738737 221.327808 
L 175.98339 221.169084 
L 176.228043 222.042067 
L 176.472696 221.915088 
L 176.962002 217.566043 
L 177.451308 217.486681 
L 177.695961 216.69306 
L 177.940614 218.121578 
L 178.185267 217.708895 
L 178.42992 216.439101 
L 178.674573 216.56608 
L 178.919226 207.772756 
L 179.163879 207.979098 
L 179.408532 208.51876 
L 179.653185 208.074333 
L 179.897838 208.883826 
L 180.142491 208.788592 
L 180.387144 208.137822 
L 180.631798 209.486978 
L 180.876451 208.915571 
L 181.121104 207.883863 
L 181.365757 208.280674 
L 181.61041 206.995008 
L 181.855063 208.407654 
L 182.099716 210.852007 
L 182.344369 210.169493 
L 182.589022 209.963151 
L 183.078328 208.090205 
L 183.322981 209.026678 
L 183.567634 208.883826 
L 183.812287 210.455196 
L 184.05694 208.613995 
L 184.301593 209.550468 
L 184.546246 209.074295 
L 184.790899 209.423489 
L 185.035552 208.217184 
L 185.280205 208.502888 
L 185.524858 208.375909 
L 186.014164 209.661575 
L 186.258817 213.851895 
L 186.748123 214.613772 
L 186.992776 214.296323 
L 187.482082 216.10578 
L 187.971388 214.296323 
L 188.216041 214.597899 
L 188.460694 212.994784 
L 188.705347 212.582101 
L 188.95 212.550357 
L 189.439306 209.407616 
L 189.683959 211.042476 
L 189.928612 209.915534 
L 190.173265 209.423489 
L 190.662571 210.232982 
L 190.907224 210.201238 
L 191.151877 210.486941 
L 191.39653 209.645703 
L 191.641183 209.328254 
L 191.885836 208.804464 
L 192.130489 208.772719 
L 192.375142 207.693394 
L 192.619795 207.280711 
L 192.864448 208.820337 
L 193.109101 208.963188 
L 193.353754 208.820337 
L 193.598407 211.105966 
L 193.84306 212.232908 
L 194.087713 211.502776 
L 194.332366 216.947018 
L 194.577019 215.9788 
L 194.821672 217.518426 
L 195.066325 217.105743 
L 195.310978 216.16927 
L 195.555631 214.201089 
L 195.800284 216.296249 
L 196.28959 213.899513 
L 196.534243 213.94713 
L 196.778896 216.56608 
L 197.023549 217.327957 
L 197.268202 215.201052 
L 197.512855 216.359739 
L 197.757508 219.073923 
L 198.002161 215.851821 
L 198.73612 225.867322 
L 198.980773 227.137116 
L 199.225426 225.057828 
L 199.470079 223.994375 
L 199.714732 221.359553 
L 199.959385 221.105594 
L 200.204038 218.343792 
L 200.448691 220.534187 
L 200.937997 217.407319 
L 201.18265 217.375574 
L 201.427303 215.248669 
L 201.671956 215.947056 
L 201.916609 214.93122 
L 202.161262 212.470994 
L 202.405915 212.804315 
L 202.650568 210.963114 
L 202.895221 210.486941 
L 203.139875 209.328254 
L 203.384528 210.121875 
L 203.629181 209.963151 
L 203.873834 209.963151 
L 204.118487 210.423452 
L 204.36314 209.931406 
L 204.607793 210.407579 
L 204.852446 212.709081 
L 205.097099 211.344052 
L 205.341752 211.359925 
L 205.586405 211.963077 
L 205.831058 210.566303 
L 206.075711 210.725028 
L 206.80967 206.820411 
L 207.054323 206.709304 
L 207.788282 207.852119 
L 208.277588 209.407616 
L 208.522241 210.185365 
L 208.766894 212.89955 
L 209.011547 213.074147 
L 209.2562 203.106263 
L 209.500853 207.836246 
L 209.745506 208.979061 
L 209.990159 206.312493 
L 210.234812 204.899847 
L 210.479465 205.598234 
L 210.724118 205.518872 
L 210.968771 205.709341 
L 211.213424 205.137934 
L 211.458077 205.249041 
L 211.70273 206.106152 
L 211.947383 207.772756 
L 212.681342 209.518723 
L 212.925995 211.820225 
L 213.170648 210.899624 
L 213.415301 208.026715 
L 213.904607 210.883752 
L 214.393913 212.677336 
L 214.638566 212.201163 
L 214.883219 209.915534 
L 215.127872 210.296472 
L 215.372525 210.21711 
L 215.617178 207.137859 
L 215.861831 206.217259 
L 216.59579 212.264653 
L 216.840443 210.058386 
L 217.085096 212.455122 
L 217.574402 209.613958 
L 217.819055 209.042551 
L 218.063708 207.741012 
L 218.308361 208.629867 
L 218.553014 208.963188 
L 219.04232 207.883863 
L 219.776279 201.344424 
L 220.020932 200.392079 
L 220.265585 200.392079 
L 220.510238 199.09054 
L 220.999544 200.471441 
L 221.244197 199.852416 
L 221.48885 198.43977 
L 221.733503 198.217556 
L 221.978156 197.122359 
L 222.222809 198.392153 
L 222.467462 200.550803 
L 222.712115 198.979433 
L 222.956768 200.677782 
L 223.201421 200.07463 
L 223.446074 203.138008 
L 223.690727 203.122136 
L 223.93538 200.915869 
L 224.180033 200.566675 
L 224.424686 199.439733 
L 224.669339 197.3287 
L 224.913992 201.725362 
L 225.403298 200.979358 
L 225.892605 204.010992 
L 226.137258 207.693394 
L 226.381911 207.947353 
L 227.11587 206.407728 
L 227.360523 204.614144 
L 227.849829 202.772942 
L 228.094482 203.693543 
L 228.339135 204.026864 
L 228.583788 202.614218 
L 228.828441 202.29677 
L 229.073094 203.106263 
L 229.317747 203.21737 
L 229.5624 203.090391 
L 229.807053 204.487164 
L 230.051706 207.66165 
L 231.030318 202.312642 
L 231.519624 202.265025 
L 231.764277 203.106263 
L 232.00893 202.106301 
L 232.253583 203.042774 
L 232.498236 202.455494 
L 233.232195 205.550617 
L 233.476848 205.153806 
L 233.721501 202.645963 
L 233.966154 201.899959 
L 234.210807 202.23328 
L 234.45546 201.423786 
L 234.700113 197.693766 
L 234.944766 198.50326 
L 235.189419 197.725511 
L 235.434072 197.39219 
L 235.678725 197.408063 
L 235.923378 195.900182 
L 236.412684 197.804873 
L 236.657337 196.535079 
L 236.90199 196.757293 
L 237.146643 198.233429 
L 237.391296 196.99538 
L 237.635949 197.074742 
L 237.880602 196.582696 
L 238.125255 198.773091 
L 238.369908 198.598495 
L 238.614561 199.709564 
L 238.859214 200.122247 
L 239.103867 197.487425 
L 239.34852 197.344573 
L 239.593173 197.011252 
L 239.837826 198.535005 
L 240.082479 196.884273 
L 240.327132 200.106375 
L 240.571785 197.757256 
L 240.816438 197.265211 
L 241.061091 193.170125 
L 241.305744 191.154327 
L 241.550397 191.392413 
L 241.79505 190.535302 
L 242.284356 194.757368 
L 242.529009 195.185923 
L 242.773662 195.29703 
L 243.262968 195.995417 
L 243.507621 195.852565 
L 243.752274 196.80491 
L 243.996927 196.043034 
L 244.24158 195.852565 
L 244.486233 194.503409 
L 244.730886 193.78915 
L 244.975539 193.424084 
L 245.220192 192.789187 
L 245.464845 193.455829 
L 245.709498 193.471701 
L 245.954151 194.900219 
L 246.198804 195.630351 
L 246.443457 195.773203 
L 246.68811 195.23354 
L 246.932763 196.900145 
L 247.177416 195.852565 
L 247.422069 196.392227 
L 247.911375 193.630425 
L 248.156029 194.566898 
L 248.400682 193.519318 
L 248.645335 191.424158 
L 248.889988 193.312977 
L 249.134641 192.519356 
L 249.379294 191.04322 
L 249.623947 190.598792 
L 249.8686 190.725771 
L 250.113253 189.948023 
L 250.357906 187.075114 
L 250.602559 186.043406 
L 250.847212 186.551324 
L 251.091865 188.090949 
L 251.581171 198.582622 
L 251.825824 205.883938 
L 252.070477 205.407765 
L 252.559783 198.519132 
L 252.804436 197.741384 
L 253.049089 199.058795 
L 253.293742 203.153881 
L 253.783048 199.455606 
L 254.027701 201.725362 
L 254.272354 197.138231 
L 254.517007 199.138157 
L 254.76166 198.852453 
L 255.006313 198.074704 
L 255.250966 199.233392 
L 255.740272 195.947799 
L 255.984925 196.296993 
L 256.229578 194.804985 
L 256.718884 189.392488 
L 256.963537 188.059204 
L 257.20819 190.58292 
L 257.452843 191.820969 
L 257.697496 195.963672 
L 257.942149 197.058869 
L 258.431455 190.836878 
L 258.676108 190.45594 
L 258.920761 187.519542 
L 259.165414 188.614739 
L 259.410067 195.75733 
L 259.899373 190.725771 
L 260.144026 190.567047 
L 260.388679 190.995603 
L 260.633332 190.757516 
L 261.122638 183.027645 
L 261.367291 183.456201 
L 261.611944 185.932299 
L 261.856597 187.059241 
L 262.10125 183.360966 
L 262.345903 184.313312 
L 262.590556 182.757814 
L 262.835209 184.011735 
L 263.079862 183.297476 
L 263.324515 183.900629 
L 263.569168 183.043518 
L 263.813821 181.059464 
L 264.303127 179.313498 
L 264.54778 180.043629 
L 264.792433 179.821415 
L 265.037086 181.234061 
L 265.281739 180.472185 
L 265.526392 178.996049 
L 265.771045 179.583329 
L 266.015698 182.47211 
L 266.99431 178.123066 
L 267.238963 178.043703 
L 267.483616 177.805617 
L 267.728269 177.742127 
L 267.972922 178.107193 
L 268.217575 177.472296 
L 268.462228 178.599238 
L 268.706881 176.869144 
L 268.951534 177.710383 
L 269.196187 181.059464 
L 269.44084 176.821527 
L 269.685493 181.55151 
L 269.930146 178.186555 
L 270.174799 181.614999 
L 270.419452 182.567345 
L 270.908759 175.742202 
L 271.153412 174.535897 
L 271.398065 172.091544 
L 271.642718 174.250194 
L 271.887371 178.837325 
L 272.132024 178.34528 
L 272.376677 174.853346 
L 272.62133 173.456573 
L 272.865983 174.09147 
L 273.110636 174.250194 
L 273.355289 172.45661 
L 273.599942 172.535972 
L 273.844595 174.662877 
L 274.089248 177.789745 
L 274.333901 177.202465 
L 275.06786 184.329184 
L 275.312513 181.900703 
L 275.557166 181.202316 
L 275.801819 183.614925 
L 276.046472 181.234061 
L 276.291125 182.234024 
L 276.535778 182.218151 
L 276.780431 184.186332 
L 277.025084 184.091098 
L 277.269737 181.503892 
L 277.51439 186.043406 
L 277.759043 185.852937 
L 278.003696 189.090912 
L 278.248349 189.614702 
L 278.493002 182.297514 
L 278.737655 181.535637 
L 278.982308 184.17046 
L 279.226961 184.10697 
L 279.471614 186.694175 
L 279.96092 204.820485 
L 280.205573 206.55058 
L 280.450226 203.884012 
L 280.694879 204.820485 
L 281.184185 198.56675 
L 281.428838 193.852639 
L 281.673491 195.947799 
L 281.918144 195.408137 
L 282.162797 190.757516 
L 282.40745 191.916203 
L 282.652103 191.360668 
L 282.896756 186.186258 
L 283.141409 186.313237 
L 283.386062 186.138641 
L 283.630715 188.614739 
L 283.875368 183.503818 
L 284.120021 183.472073 
L 284.85398 188.678229 
L 285.098633 189.884533 
L 285.343286 188.42427 
L 285.587939 189.090912 
L 286.077245 185.662468 
L 286.321898 185.948171 
L 286.811204 180.980102 
L 287.055857 175.488243 
L 287.30051 176.948506 
L 287.545163 176.853272 
L 287.789816 177.488169 
L 288.034469 176.916761 
L 288.279122 177.10723 
L 288.768428 174.916836 
L 289.013081 174.885091 
L 289.257734 172.726441 
L 289.502387 173.774021 
L 289.74704 174.297811 
L 289.991693 172.345503 
L 290.236346 174.916836 
L 290.480999 174.456535 
L 290.725652 176.234247 
L 290.970305 175.488243 
L 291.214958 173.726404 
L 291.459611 173.869256 
L 291.704264 172.726441 
L 291.948917 170.520174 
L 292.19357 170.567791 
L 292.438223 170.869367 
L 292.682876 170.805877 
L 292.92753 173.313721 
L 293.172183 171.710606 
L 293.416836 171.155071 
L 293.661489 171.964565 
L 293.906142 175.13905 
L 294.395448 173.139124 
L 294.884754 176.250119 
L 295.618713 173.599424 
L 295.863366 170.567791 
L 296.108019 171.234433 
L 296.352672 171.456647 
L 296.597325 171.440774 
L 296.841978 169.440849 
L 297.086631 171.504264 
L 297.331284 170.282087 
L 297.575937 171.583626 
L 297.82059 169.996384 
L 298.065243 170.409067 
L 298.309896 165.631467 
L 298.554549 165.663212 
L 298.799202 166.04415 
L 299.043855 164.821973 
L 299.288508 165.885426 
L 299.533161 164.980697 
L 299.777814 164.774356 
L 300.022467 167.107602 
L 300.26712 166.44096 
L 300.511773 167.393306 
L 300.756426 167.139347 
L 301.001079 168.107565 
L 301.245732 169.663063 
L 301.490385 169.869404 
L 301.979691 169.77417 
L 302.224344 169.504339 
L 302.468997 172.059799 
L 302.958303 165.488615 
L 303.202956 174.55177 
L 303.447609 171.059836 
L 303.692262 177.424679 
L 303.936915 179.567456 
L 304.670874 171.726478 
L 305.16018 173.408955 
L 305.404833 172.694696 
L 305.649486 172.758186 
L 305.894139 170.139236 
L 306.383445 168.948804 
L 306.628098 169.266252 
L 306.872751 168.694845 
L 307.117404 168.488503 
L 307.60671 168.551993 
L 307.851363 167.583775 
L 308.096016 170.853495 
L 308.340669 168.123438 
L 308.585322 169.297997 
L 308.829975 168.361524 
L 309.074628 168.329779 
L 309.319281 167.520285 
L 309.563934 168.440886 
L 309.808587 168.6631 
L 310.05324 171.313795 
L 310.542546 169.663063 
L 310.787199 166.56794 
L 311.031852 167.440923 
L 311.276505 166.837771 
L 311.765811 162.393492 
L 312.010464 163.393455 
L 312.255117 163.568051 
L 312.49977 164.091841 
L 312.744423 165.52036 
L 312.989076 163.980734 
L 313.233729 164.536269 
L 313.478382 164.663249 
L 313.723035 163.23473 
L 313.967688 163.23473 
L 314.456994 161.774467 
L 314.701647 161.393529 
L 314.9463 161.869702 
L 315.190953 161.377657 
L 315.68026 159.377731 
L 315.924913 159.488838 
L 316.169566 160.282459 
L 316.414219 162.060171 
L 316.658872 166.028277 
L 316.903525 164.536269 
L 317.148178 166.996495 
L 317.392831 166.96475 
L 317.637484 165.647339 
L 317.882137 166.742537 
L 318.371443 164.060097 
L 318.616096 152.69544 
L 318.860749 152.473226 
L 319.105402 153.187485 
L 319.350055 153.520806 
L 319.594708 149.647934 
L 319.839361 149.981255 
L 320.084014 152.663695 
L 320.328667 151.489136 
L 320.817973 151.727222 
L 321.062626 151.076453 
L 321.307279 151.457391 
L 321.551932 151.330411 
L 321.796585 150.378066 
L 322.041238 153.346209 
L 322.285891 152.266884 
L 322.530544 152.330374 
L 322.775197 152.600205 
L 323.01985 153.15574 
L 323.264503 151.679605 
L 323.509156 151.727222 
L 323.753809 150.711387 
L 323.998462 150.711387 
L 324.243115 147.886095 
L 324.732421 152.393864 
L 324.977074 153.822382 
L 325.221727 152.981144 
L 325.46638 153.123995 
L 325.711033 154.139831 
L 325.955686 155.695328 
L 326.200339 153.663658 
L 326.444992 155.203283 
L 326.689645 151.298666 
L 326.934298 151.727222 
L 327.178951 152.568461 
L 327.423604 158.568237 
L 327.668257 159.203134 
L 327.91291 161.20306 
L 328.157563 159.234879 
L 328.402216 158.568237 
L 328.646869 155.822308 
L 328.891522 157.076229 
L 329.136175 156.076267 
L 329.380828 156.774653 
L 329.625481 158.361896 
L 329.870134 157.076229 
L 330.114787 157.901596 
L 330.35944 157.187336 
L 330.604093 160.584035 
L 330.848746 165.821936 
L 331.093399 165.472742 
L 331.338052 161.949064 
L 331.582705 162.583961 
L 331.827358 159.711052 
L 332.072011 159.488838 
L 332.80597 155.282645 
L 333.050623 155.822308 
L 333.295276 156.94925 
L 333.539929 159.409476 
L 333.784582 156.647674 
L 334.029235 155.885797 
L 334.273888 156.298481 
L 334.518541 157.552402 
L 334.763194 157.076229 
L 335.007847 157.139719 
L 335.2525 159.060283 
L 335.497153 159.203134 
L 335.741806 160.361821 
L 336.231112 158.473003 
L 336.720418 151.870074 
L 336.965071 151.441518 
L 337.209724 151.933564 
L 337.454377 150.774876 
L 337.69903 151.409773 
L 337.943684 151.505008 
L 338.188337 152.346247 
L 339.166949 147.632136 
L 339.411602 143.267219 
L 339.656255 142.425981 
L 339.900908 144.600503 
L 340.145561 142.838664 
L 340.390214 143.108495 
L 340.634867 143.806882 
L 340.87952 143.838627 
L 341.124173 144.156075 
L 341.368826 140.965717 
L 341.613479 142.09266 
L 341.858132 141.299038 
L 342.102785 139.441965 
L 342.592091 138.29915 
L 342.836744 137.029356 
L 343.081397 137.140463 
L 343.32605 135.315134 
L 343.570703 134.997685 
L 343.815356 133.823126 
L 344.060009 133.886616 
L 344.304662 134.140575 
L 344.549315 135.15641 
L 344.793968 134.394533 
L 345.283274 135.934159 
L 345.527927 132.743801 
L 345.77258 133.45806 
L 346.261886 133.06125 
L 346.506539 133.331081 
L 346.751192 133.934233 
L 346.995845 133.442188 
L 347.485151 130.442299 
L 347.729804 131.013707 
L 347.974457 129.950254 
L 348.21911 129.569316 
L 348.463763 122.172766 
L 348.708416 123.283835 
L 348.953069 125.252016 
L 349.442375 122.39498 
L 349.931681 120.204585 
L 350.176334 119.506198 
L 350.420987 118.093552 
L 350.66564 118.045935 
L 350.910293 117.220569 
L 351.154946 118.07768 
L 351.399599 117.363421 
L 351.644252 117.601507 
L 351.888905 117.188824 
L 352.133558 117.077717 
L 352.378211 117.172952 
L 352.622864 117.506273 
L 353.11217 118.934791 
L 353.356823 117.442783 
L 353.601476 117.728487 
L 353.846129 117.077717 
L 354.090782 115.173026 
L 354.335435 115.014302 
L 354.580088 112.839779 
L 354.824741 111.887434 
L 355.069394 112.998504 
L 355.5587 111.490623 
L 355.803353 109.316101 
L 356.292659 109.728784 
L 356.537312 110.109722 
L 357.026618 109.300229 
L 357.515924 107.665369 
L 357.760577 107.443155 
L 358.494536 104.681353 
L 358.739189 110.55415 
L 358.983842 110.220829 
L 359.717801 102.316361 
L 360.207107 97.030844 
L 360.451761 98.554597 
L 360.696414 97.72923 
L 361.18572 99.36409 
L 361.430373 96.030881 
L 361.675026 95.856284 
L 361.919679 96.74514 
L 362.164332 95.808667 
L 362.408985 97.380037 
L 362.653638 104.649608 
L 362.898291 105.919402 
L 363.142944 102.998876 
L 363.63225 105.490846 
L 363.876903 104.982929 
L 364.121556 100.99895 
L 364.366209 100.110094 
L 364.610862 94.824577 
L 364.855515 95.69756 
L 365.100168 92.967503 
L 365.344821 93.681762 
L 365.589474 97.522889 
L 365.834127 95.507091 
L 366.07878 99.586304 
L 366.323433 99.268856 
L 366.568086 104.078201 
L 366.812739 99.633921 
L 367.057392 100.364053 
L 367.546698 96.253095 
L 367.791351 96.903864 
L 368.036004 92.173881 
L 368.280657 93.53891 
L 368.52531 91.777071 
L 368.769963 91.396133 
L 369.259269 87.396281 
L 369.503922 85.777294 
L 369.748575 86.443936 
L 369.993228 86.428063 
L 370.237881 88.523224 
L 370.482534 86.031253 
L 370.727187 91.713581 
L 370.97184 90.872343 
L 371.216493 91.253281 
L 371.461146 89.87238 
L 371.705799 90.237446 
L 371.950452 89.189865 
L 372.195105 89.316845 
L 372.439758 88.158158 
L 372.684411 89.158121 
L 372.929064 88.30101 
L 373.173717 93.745252 
L 373.41837 91.285026 
L 373.663023 87.015343 
L 374.152329 82.825023 
L 374.396982 88.491479 
L 374.641635 88.904162 
L 374.886288 86.856619 
L 375.130941 82.110764 
L 375.375594 83.936093 
L 375.620247 84.396393 
L 375.8649 83.380558 
L 376.354206 82.28536 
L 376.843512 77.491888 
L 377.088165 77.650612 
L 377.577471 79.714027 
L 377.822124 76.999843 
L 378.066777 77.206184 
L 378.31143 74.777703 
L 378.556083 75.666559 
L 378.800736 75.777666 
L 379.045389 77.825209 
L 379.290042 78.55534 
L 379.779348 75.206259 
L 380.024001 85.745549 
L 380.513307 88.062923 
L 380.75796 94.300786 
L 381.491919 90.713618 
L 381.736572 86.983598 
L 381.981225 88.951779 
L 382.225878 87.904199 
L 382.470531 88.935907 
L 382.715184 85.285249 
L 382.959838 83.904348 
L 383.204491 83.301196 
L 383.449144 82.269488 
L 383.693797 79.888624 
L 383.93845 79.952114 
L 384.183103 79.444196 
L 384.427756 84.951928 
L 384.672409 85.078907 
L 384.917062 80.920332 
L 385.161715 51.191279 
L 385.406368 44.98516 
L 385.651021 50.508764 
L 385.895674 51.429365 
L 386.140327 51.032555 
L 386.38498 47.985049 
L 386.629633 42.30272 
L 387.118939 45.747037 
L 387.363592 44.016942 
L 387.608245 36.572775 
L 387.852898 34.414125 
L 387.852898 34.414125 
" style="fill:none;stroke:#ff7f0e;stroke-linecap:square;stroke-width:1.5;"/>
   </g>
   <g id="patch_3">
    <path d="M 46.965625 288.430125 
L 46.965625 22.318125 
" style="fill:none;stroke:#000000;stroke-linecap:square;stroke-linejoin:miter;stroke-width:0.8;"/>
   </g>
   <g id="patch_4">
    <path d="M 404.085625 288.430125 
L 404.085625 22.318125 
" style="fill:none;stroke:#000000;stroke-linecap:square;stroke-linejoin:miter;stroke-width:0.8;"/>
   </g>
   <g id="patch_5">
    <path d="M 46.965625 288.430125 
L 404.085625 288.430125 
" style="fill:none;stroke:#000000;stroke-linecap:square;stroke-linejoin:miter;stroke-width:0.8;"/>
   </g>
   <g id="patch_6">
    <path d="M 46.965625 22.318125 
L 404.085625 22.318125 
" style="fill:none;stroke:#000000;stroke-linecap:square;stroke-linejoin:miter;stroke-width:0.8;"/>
   </g>
   <g id="text_18">
    <!-- Training: ADBE -->
    <defs>
     <path d="M -0.296875 72.90625 
L 61.375 72.90625 
L 61.375 64.59375 
L 35.5 64.59375 
L 35.5 0 
L 25.59375 0 
L 25.59375 64.59375 
L -0.296875 64.59375 
z
" id="DejaVuSans-84"/>
     <path d="M 54.890625 33.015625 
L 54.890625 0 
L 45.90625 0 
L 45.90625 32.71875 
Q 45.90625 40.484375 42.875 44.328125 
Q 39.84375 48.1875 33.796875 48.1875 
Q 26.515625 48.1875 22.3125 43.546875 
Q 18.109375 38.921875 18.109375 30.90625 
L 18.109375 0 
L 9.078125 0 
L 9.078125 54.6875 
L 18.109375 54.6875 
L 18.109375 46.1875 
Q 21.34375 51.125 25.703125 53.5625 
Q 30.078125 56 35.796875 56 
Q 45.21875 56 50.046875 50.171875 
Q 54.890625 44.34375 54.890625 33.015625 
z
" id="DejaVuSans-110"/>
     <path d="M 45.40625 27.984375 
Q 45.40625 37.75 41.375 43.109375 
Q 37.359375 48.484375 30.078125 48.484375 
Q 22.859375 48.484375 18.828125 43.109375 
Q 14.796875 37.75 14.796875 27.984375 
Q 14.796875 18.265625 18.828125 12.890625 
Q 22.859375 7.515625 30.078125 7.515625 
Q 37.359375 7.515625 41.375 12.890625 
Q 45.40625 18.265625 45.40625 27.984375 
z
M 54.390625 6.78125 
Q 54.390625 -7.171875 48.1875 -13.984375 
Q 42 -20.796875 29.203125 -20.796875 
Q 24.46875 -20.796875 20.265625 -20.09375 
Q 16.0625 -19.390625 12.109375 -17.921875 
L 12.109375 -9.1875 
Q 16.0625 -11.328125 19.921875 -12.34375 
Q 23.78125 -13.375 27.78125 -13.375 
Q 36.625 -13.375 41.015625 -8.765625 
Q 45.40625 -4.15625 45.40625 5.171875 
L 45.40625 9.625 
Q 42.625 4.78125 38.28125 2.390625 
Q 33.9375 0 27.875 0 
Q 17.828125 0 11.671875 7.65625 
Q 5.515625 15.328125 5.515625 27.984375 
Q 5.515625 40.671875 11.671875 48.328125 
Q 17.828125 56 27.875 56 
Q 33.9375 56 38.28125 53.609375 
Q 42.625 51.21875 45.40625 46.390625 
L 45.40625 54.6875 
L 54.390625 54.6875 
z
" id="DejaVuSans-103"/>
     <path d="M 11.71875 12.40625 
L 22.015625 12.40625 
L 22.015625 0 
L 11.71875 0 
z
M 11.71875 51.703125 
L 22.015625 51.703125 
L 22.015625 39.3125 
L 11.71875 39.3125 
z
" id="DejaVuSans-58"/>
     <path d="M 34.1875 63.1875 
L 20.796875 26.90625 
L 47.609375 26.90625 
z
M 28.609375 72.90625 
L 39.796875 72.90625 
L 67.578125 0 
L 57.328125 0 
L 50.6875 18.703125 
L 17.828125 18.703125 
L 11.1875 0 
L 0.78125 0 
z
" id="DejaVuSans-65"/>
     <path d="M 19.671875 34.8125 
L 19.671875 8.109375 
L 35.5 8.109375 
Q 43.453125 8.109375 47.28125 11.40625 
Q 51.125 14.703125 51.125 21.484375 
Q 51.125 28.328125 47.28125 31.5625 
Q 43.453125 34.8125 35.5 34.8125 
z
M 19.671875 64.796875 
L 19.671875 42.828125 
L 34.28125 42.828125 
Q 41.5 42.828125 45.03125 45.53125 
Q 48.578125 48.25 48.578125 53.8125 
Q 48.578125 59.328125 45.03125 62.0625 
Q 41.5 64.796875 34.28125 64.796875 
z
M 9.8125 72.90625 
L 35.015625 72.90625 
Q 46.296875 72.90625 52.390625 68.21875 
Q 58.5 63.53125 58.5 54.890625 
Q 58.5 48.1875 55.375 44.234375 
Q 52.25 40.28125 46.1875 39.3125 
Q 53.46875 37.75 57.5 32.78125 
Q 61.53125 27.828125 61.53125 20.40625 
Q 61.53125 10.640625 54.890625 5.3125 
Q 48.25 0 35.984375 0 
L 9.8125 0 
z
" id="DejaVuSans-66"/>
     <path d="M 9.8125 72.90625 
L 55.90625 72.90625 
L 55.90625 64.59375 
L 19.671875 64.59375 
L 19.671875 43.015625 
L 54.390625 43.015625 
L 54.390625 34.71875 
L 19.671875 34.71875 
L 19.671875 8.296875 
L 56.78125 8.296875 
L 56.78125 0 
L 9.8125 0 
z
" id="DejaVuSans-69"/>
    </defs>
    <g transform="translate(181.294375 16.318125)scale(0.12 -0.12)">
     <use xlink:href="#DejaVuSans-84"/>
     <use x="46.333984" xlink:href="#DejaVuSans-114"/>
     <use x="87.447266" xlink:href="#DejaVuSans-97"/>
     <use x="148.726562" xlink:href="#DejaVuSans-105"/>
     <use x="176.509766" xlink:href="#DejaVuSans-110"/>
     <use x="239.888672" xlink:href="#DejaVuSans-105"/>
     <use x="267.671875" xlink:href="#DejaVuSans-110"/>
     <use x="331.050781" xlink:href="#DejaVuSans-103"/>
     <use x="394.527344" xlink:href="#DejaVuSans-58"/>
     <use x="428.21875" xlink:href="#DejaVuSans-32"/>
     <use x="460.005859" xlink:href="#DejaVuSans-65"/>
     <use x="528.414062" xlink:href="#DejaVuSans-68"/>
     <use x="605.416016" xlink:href="#DejaVuSans-66"/>
     <use x="674.019531" xlink:href="#DejaVuSans-69"/>
    </g>
   </g>
   <g id="legend_1">
    <g id="patch_7">
     <path d="M 53.965625 59.674375 
L 137.69375 59.674375 
Q 139.69375 59.674375 139.69375 57.674375 
L 139.69375 29.318125 
Q 139.69375 27.318125 137.69375 27.318125 
L 53.965625 27.318125 
Q 51.965625 27.318125 51.965625 29.318125 
L 51.965625 57.674375 
Q 51.965625 59.674375 53.965625 59.674375 
z
" style="fill:#ffffff;opacity:0.8;stroke:#cccccc;stroke-linejoin:miter;"/>
    </g>
    <g id="line2d_33">
     <path d="M 55.965625 35.416562 
L 75.965625 35.416562 
" style="fill:none;stroke:#1f77b4;stroke-linecap:square;stroke-width:1.5;"/>
    </g>
    <g id="line2d_34"/>
    <g id="text_19">
     <!-- Predicted -->
     <defs>
      <path d="M 45.40625 46.390625 
L 45.40625 75.984375 
L 54.390625 75.984375 
L 54.390625 0 
L 45.40625 0 
L 45.40625 8.203125 
Q 42.578125 3.328125 38.25 0.953125 
Q 33.9375 -1.421875 27.875 -1.421875 
Q 17.96875 -1.421875 11.734375 6.484375 
Q 5.515625 14.40625 5.515625 27.296875 
Q 5.515625 40.1875 11.734375 48.09375 
Q 17.96875 56 27.875 56 
Q 33.9375 56 38.25 53.625 
Q 42.578125 51.265625 45.40625 46.390625 
z
M 14.796875 27.296875 
Q 14.796875 17.390625 18.875 11.75 
Q 22.953125 6.109375 30.078125 6.109375 
Q 37.203125 6.109375 41.296875 11.75 
Q 45.40625 17.390625 45.40625 27.296875 
Q 45.40625 37.203125 41.296875 42.84375 
Q 37.203125 48.484375 30.078125 48.484375 
Q 22.953125 48.484375 18.875 42.84375 
Q 14.796875 37.203125 14.796875 27.296875 
z
" id="DejaVuSans-100"/>
      <path d="M 18.3125 70.21875 
L 18.3125 54.6875 
L 36.8125 54.6875 
L 36.8125 47.703125 
L 18.3125 47.703125 
L 18.3125 18.015625 
Q 18.3125 11.328125 20.140625 9.421875 
Q 21.96875 7.515625 27.59375 7.515625 
L 36.8125 7.515625 
L 36.8125 0 
L 27.59375 0 
Q 17.1875 0 13.234375 3.875 
Q 9.28125 7.765625 9.28125 18.015625 
L 9.28125 47.703125 
L 2.6875 47.703125 
L 2.6875 54.6875 
L 9.28125 54.6875 
L 9.28125 70.21875 
z
" id="DejaVuSans-116"/>
     </defs>
     <g transform="translate(83.965625 38.916562)scale(0.1 -0.1)">
      <use xlink:href="#DejaVuSans-80"/>
      <use x="58.552734" xlink:href="#DejaVuSans-114"/>
      <use x="97.416016" xlink:href="#DejaVuSans-101"/>
      <use x="158.939453" xlink:href="#DejaVuSans-100"/>
      <use x="222.416016" xlink:href="#DejaVuSans-105"/>
      <use x="250.199219" xlink:href="#DejaVuSans-99"/>
      <use x="305.179688" xlink:href="#DejaVuSans-116"/>
      <use x="344.388672" xlink:href="#DejaVuSans-101"/>
      <use x="405.912109" xlink:href="#DejaVuSans-100"/>
     </g>
    </g>
    <g id="line2d_35">
     <path d="M 55.965625 50.094687 
L 75.965625 50.094687 
" style="fill:none;stroke:#ff7f0e;stroke-linecap:square;stroke-width:1.5;"/>
    </g>
    <g id="line2d_36"/>
    <g id="text_20">
     <!-- True value -->
     <defs>
      <path d="M 8.5 21.578125 
L 8.5 54.6875 
L 17.484375 54.6875 
L 17.484375 21.921875 
Q 17.484375 14.15625 20.5 10.265625 
Q 23.53125 6.390625 29.59375 6.390625 
Q 36.859375 6.390625 41.078125 11.03125 
Q 45.3125 15.671875 45.3125 23.6875 
L 45.3125 54.6875 
L 54.296875 54.6875 
L 54.296875 0 
L 45.3125 0 
L 45.3125 8.40625 
Q 42.046875 3.421875 37.71875 1 
Q 33.40625 -1.421875 27.6875 -1.421875 
Q 18.265625 -1.421875 13.375 4.4375 
Q 8.5 10.296875 8.5 21.578125 
z
M 31.109375 56 
z
" id="DejaVuSans-117"/>
      <path d="M 2.984375 54.6875 
L 12.5 54.6875 
L 29.59375 8.796875 
L 46.6875 54.6875 
L 56.203125 54.6875 
L 35.6875 0 
L 23.484375 0 
z
" id="DejaVuSans-118"/>
      <path d="M 9.421875 75.984375 
L 18.40625 75.984375 
L 18.40625 0 
L 9.421875 0 
z
" id="DejaVuSans-108"/>
     </defs>
     <g transform="translate(83.965625 53.594687)scale(0.1 -0.1)">
      <use xlink:href="#DejaVuSans-84"/>
      <use x="46.333984" xlink:href="#DejaVuSans-114"/>
      <use x="87.447266" xlink:href="#DejaVuSans-117"/>
      <use x="150.826172" xlink:href="#DejaVuSans-101"/>
      <use x="212.349609" xlink:href="#DejaVuSans-32"/>
      <use x="244.136719" xlink:href="#DejaVuSans-118"/>
      <use x="303.316406" xlink:href="#DejaVuSans-97"/>
      <use x="364.595703" xlink:href="#DejaVuSans-108"/>
      <use x="392.378906" xlink:href="#DejaVuSans-117"/>
      <use x="455.757812" xlink:href="#DejaVuSans-101"/>
     </g>
    </g>
   </g>
  </g>
 </g>
 <defs>
  <clipPath id="pef03933e4f">
   <rect height="266.112" width="357.12" x="46.965625" y="22.318125"/>
  </clipPath>
 </defs>
</svg>
